<?xml version="1.0"?>
<!DOCTYPE lmms-project>
<lmms-project creatorversion="1.2.2" creator="LMMS" version="1.0" type="song">
  <head timesig_denominator="4" masterpitch="0" mastervol="100" timesig_numerator="4">
    <bpm id="4555788" scale_type="linear" value="140"/>
  </head>
  <song>
    <trackcontainer height="748" minimized="0" width="1611" y="97" x="46" maximized="0" type="song" visible="1">
      <track muted="0" solo="0" name="Phase bass" type="0">
        <instrumenttrack fxch="1" pitch="0" pan="0" vol="15" usemasterpitch="1" pitchrange="1" basenote="69">
          <instrument name="watsyn">
            <watsyn envHold="0" amod="0" b1_pan="21.9" b2_ltune="-12" b2_mult="4" a1_rtune="1" b2_wave="XvhLv5WZRr97BkG/lTo7v5w0Nb/a9C6/U3wov07MIb8r5hq/WcsTv1V9DL+k/QS/tpv6viDf6r7VyNq+LFzKvpicub6Xjai+tjKXvpaPhb7ST2e+7f5Cvrw0Hr7B9/G9Ws6mvaB9Nr2ymf+7EL/mPIg/fz3dGb89GHf1PbOhED6onyE+zk8vPoYePD51gko+SDRcPp27cT68N4U+iGiSPpSHnz6qwas+pIW2Pi6Zvz5nFsc+iFbNPtDP0j7O79c+q/3cPiMO4j6wCuc+YsTrPpgI8D4gsvM+9rX2Pswq+T5/R/s+M1b9PhSg/z4iLgE/+NQCP0XKBD/9DAc/FJYJP9dXDD96Pg8/mTISP5MbFT8+4Bc/AWgaP0afHD/Ufh4/qhAgP5ZsIT92rCI/694jP4UBJT8+BiY/ReAmP5iPJz+tJCg/IrsoP2RvKT/PVCo/f3ArPyW6LD8WIS4/FZIvPyP7MD8MTTI/2nwzP7iGND86cTU/nU02P34yNz/CMjg/CVY5P66XOj9w7Ds/PEk9P12lPj+Q9z8/CDNBPxBKQj/ZNUM/q/1DP8i2RD9ne0U/X11GP05cRz8iZUg/MVtJP0AlSj8Ot0o/KhNLPwpGSz8lX0s/cmxLP7t5Sz/Zkks/t8VLP9EhTD+Ts0w/ZX1NP3NyTj/Zd08/6mxQP7k2UT96yFE/hCRSPwdXUj+EblI/qHVSPytvUj/cUVI//gJSP7pQUT8j8k8/vZNNP0/xST8F80Q/Vbs+P5iVNz+ewy8/UzgnP+pXHT8Z3BA/zPr/Pgrt0T7GmJU+GSIYPmyzQrz6lzO+/rSnvkVm6r4Y1A+/oyckv+KKM788nD+/ZbhJv0LAUr/NGlu/Cddiv1PVab9P6W+/5+90v+DaeL/ntHu/1p99v3PNfr/SdH+/xMd/vwnsf7/d+X+/Zf5/v6j/f7/v/3+//f9/vwAAgL8AAIC/AACAvwAAgL8AAIC/AACAvwAAgL8AAIC/AACAvwAAgL8AAIC/AACAvwAAgL8AAIC/AACAvwAAgL8AAIC/AACAvwAAgL8AAIC/AACAv/3/f7/4/3+/zv9/vyD/f7+j/H+/yfR/vzzff79Uq3+/pzx/v2Zqfr9ZBH2/h956v1/gd7+JEHS/7pVvvw2sar99j2W/BWxgv0dUW7+GRFa/QyxRvw==" b1_rtune="-7" b2_vol="146.3" a2_vol="134.60001" envAtt_denominator="4" envHold_numerator="4" envDec_syncmode="0" b1_ltune="2" a2_pan="-11.1" envAtt_numerator="4" a2_ltune="-1" envHold_denominator="4" envDec="145" a1_ltune="7" b1_wave="WLMevoAP3r4gpie/09hNv65bY78W7Gy/b3Rvv2aGbr/cU2y/EA1qvzIPaL/5PWa/r3Vkv2WtYr8c5WC/0hxfv4hUXb8/jFu/9cNZv6v7V79iM1a/GGtUv86iUr+F2lC/OxJPv/JJTb+ogUu/XrlJvxXxR7/LKEa/gWBEvziYQr/uz0C/pAc/v1s/Pb8Rdzu/yK45v37mN780Hja/61U0v6GNMr9XxTC/Dv0uv8Q0Lb96bCu/MaQpv+fbJ7+dEya/VEskvwqDIr/BuiC/d/Iev4/YG7/tGhK/v3H4vicgvr77LI++NDNtvlZVVb5cj0K+Y8kvvmoDHb4iIgq+N9DtvRSux716FKa9aQONve7udr0NdFq9iyU/vQrXI72IiAi9DHTavAjXo7wKdFq8BnTauwAAgDEWdNo7EnRaPAzXozwQdNo8iogIPdijID2NJR89MpacPI/C9bzhesy9PQovvpqZbb53d4++YCyhvpDCrb7sUbi+banCvl10zb6G0Ni+mM/jvnIi7b5Kq/S+cFj7vlDuAL9oMAS/gHIHv5i0Cr8E+Q2/7DYRv9wcFL8k/hW/umgWvxWuFb/iehS/MzMTv4XrEb/XoxC/KVwPv3sUDr/NzAy/H4ULv3E9Cr/D9Qi/Fa4Hv2ZmBr+4HgW/hsoDv1swAr9Y8v++9ij6vui0875ERO2+Cfjmvgu24L4OdNq+EDLUvhLwzb4Vrse+F2zBvhkqu74b6LS+HqauviBkqL4REaG+pHCTvs3MbL6X/Aq+9llRvK/G9T1UZ4E+VhbAPioL8D5+lgU/3BMLP/VDDT8B5Q4/DYYQPxknEj8lyBM/MWkVPz0KFz9Jqxg/VUwaP2LtGz9ujh0/ei8fP4bQID+ScSI/nhIkP6qzJT+2VCc/wvUoP8+WKj/bNyw/59gtP/N5Lz//GjE/C7wyPxddND8j/jU/L583PzxAOT9I4To/VII8P2AjPj9sxD8/eGVBP4QGQz+Qp0Q/nEhGP6jpRz+1ikk/wStLP83MTD/ZbU4/5Q5QP/GvUT/9UFM/CfJUPxWTVj8iNFg/LtVZPzp2Wz9GF10/UrheP15ZYD9q+mE/dptjP4I8ZT+P3WY/m35oP6cfaj9Bs2s/MwRtP03YbT9vMW4/PMJtP02vaj/mB2E/C4VLP1hSJT/wZ9k+OGQVPg==" b2_pan="0" a2_rtune="-11" a2_wave="sTlbPzfpXj8yamI/6LtlP6XdaD/Dzms/pI5uP7cccT9xeHM/VaF1P/CWdz/YWHk/seZ6PyZAfD/wZH0/0lR+P5kPfz8elX8/RuV/PwAAgD9G5X8/HpV/P5kPfz/SVH4/8GR9PyZAfD+x5no/2Fh5P++Wdz9VoXU/cHhzP7YccT+kjm4/ws5rP6TdaD/nu2U/MmpiPzfpXj+xOVs/ZVxXPyFSUz+9G08/GbpKPyMuRj/MeEE/EJs8P/KVNz9/ajI/yxktP/OkJz8ZDSI/alMcPxd5Fj9ZfxA/b2cKP58yBD9qxPs+BO/uPrvn4T5HsdQ+ak7HPu/BuT6rDqw+czeePjo/kD7iKII+uu5nPkJbSz5VnS4+8roRPkN06T3jQa892NVpPS3u6Twuvbuzi+7pvAfWab37Qa+9WnTpvf66Eb5gnS6+TltLvsXuZ77oKIK+QD+Qvnk3nr6xDqy+9cG5vm9Ox75MsdS+wOfhvgrv7r5vxPu+ojIEv3JnCr9bfxC/GnkWv21THL8cDSK/9aQnv80ZLb+BajK/9JU3vxKbPL/OeEG/KC5Gvxu6Sr+/G0+/IFJTv2ZcV7+wOVu/OelevzJqYr/pu2W/pN1ov8POa7+kjm6/txxxv3B4c79VoXW/8ZZ3v9lYeb+y5nq/JkB8v/Fkfb/SVH6/mQ9/vx6Vf79G5X+/AACAv0blf78elX+/mA9/v9JUfr/wZH2/JkB8v7Dmer/ZWHm/75Z3v1Whdb9weHO/tBxxv6OObr/Azmu/pN1ov+W7Zb8yamK/NOlev7A5W79iXFe/IFJTv7obT78bukq/Ii5Gv854Qb8Pmzy/85U3v35qMr/NGS2/8qQnvxsNIr9pUxy/E3kWv1h/EL9qZwq/njIEv2HE+74C7+6+sefhvkSx1L5gTse+7MG5vqEOrL54N56+Nz+Qvucogr607me+TFtLvk+dLr78uhG+N3TpvfhBr73B1Wm9fu7pvAAAAABi7uk89tVpPfNBrz1VdOk9/LoRPl+dLj5NW0s+xe5nPugogj5BP5A+ejeePqoOrD7vwbk+ak7HPkex1D685+E+Be/uPmvE+z6gMgQ/cGcKP1p/ED8YeRY/a1McPxsNIj/1pCc/zRktP4BqMj/zlTc/EZs8P854QT8mLkY/G7pKP70bTz8gUlM/ZFxXPw==" a1_pan="0" a1_wave="DaxxP4gqcj8NrHE/VTlwP8zqbT/o42o/+kxnP01NYz/CBl8/r5NaP58GVj+Ea1E/ZMlMPwQkSD9GfUM//NU+P4IuOj/4hjU/at8wP9o3LD9KkCc/uugiPypBHj+amRk/CPIUP3RKED/Togs/AvsGP5tSAj/uUPs+aPPxPn5/6D4T2t4+qNDUPoIOyj5ZFL4+JjmwPgi7nz6K5Is+f4RoPpa2MT70Xuk9wghQPfxrTbyoO5S9qYwAvjzlLb6mLFG+KIZqvuHKer5siIG+IymCvsxRf77gunS+oWRlvm6QUr4EAT6+K9kpvu9JGL6eLQu+fbQDvmg/Ar5PcAa+smMPviz6G76AGSu+hNY7vjOFTb5KtV++4iRyvnxYgr5gpIu+dPKUvkVBnr5RkKe+bN+wvowuur6sfcO+zszMvu4b1r4Oa9++L7rovk8J8r5wWPu+yFMCv1j7Br/pogu/ekoQvwryFL+amRm/KkEev7roIr9KkCe/2jcsv2rfML/6hjW/hC46v/zVPr9GfUO/BSRIv2TJTL+Fa1G/oQZWv7CTWr/FBl+/T01jv/xMZ7/q42q/zuptv1U5cL8NrHG/iCpyvw2scb9VOXC/zOptv+jjar/6TGe/TU1jv8IGX7+vk1q/nwZWv4RrUb9kyUy/BCRIv0Z9Q7/81T6/gi46v/iGNb9q3zC/2jcsv0qQJ7+66CK/KkEev5qZGb8J8hS/eUoQv+miC79Y+wa/yFMCv3BY+75QCfK+Lrrovg1r377tG9a+yszMvp99w75CLrq+GN6wvgyLp77yLp6+87mUvqwIi7451oC+0FxrvrbSUb7aeTO+ndcOvpoxxr3IeEK95MbXO9yDfz0JQO49Ly8pPqjkUz7einY+7NiIPgRXkz46hZs+thGiPs58pz5bF6w+CAmwPtpVsz7H4bU+XHe3PrrXtz461rY+rnm0PuIVsT5qTq0+HPupPjb1pz664Kc+TgiqPpFYrj4qeLQ+5u27PsJDxD5JHM0+pzjWPlZ03z7YvOg++wnyPpRY+z7LUwI/WPsGP+miCz96ShA/CvIUP5qZGT8qQR4/uugiP0qQJz/aNyw/at8wP/qGNT+ELjo//NU+P0Z9Qz8FJEg/ZMlMP4VrUT+hBlY/sJNaP8UGXz9PTWM//ExnP+rjaj/O6m0/VTlwPw==" envAtt="2" envHold_syncmode="0" a1_mult="8" a1_vol="103.4" xtalk="0" envAmt="134" abmix="-84.300003" b2_rtune="0" b1_vol="63.700001" b1_mult="24" envDec_denominator="4" envDec_numerator="4" bmod="3" envAtt_syncmode="0" a2_mult="4"/>
          </instrument>
          <eldata ftype="0" fres="0.5" fcut="14000" fwet="0">
            <elvol lamt="0" x100="0" pdel="0" lshp="0" sustain="0.90399998" amt="1" att="0" hold="0.13" ctlenvamt="0" dec="0.5" lspd_denominator="4" rel="0.121" lspd="0.1" latt="0" userwavefile="" lspd_numerator="4" lspd_syncmode="0" lpdel="0"/>
            <elcut lamt="0" x100="0" pdel="0" lshp="0" sustain="0.5" amt="0" att="0" hold="0.5" ctlenvamt="0" dec="0.5" lspd_denominator="4" rel="0.1" lspd="0.1" latt="0" userwavefile="" lspd_numerator="4" lspd_syncmode="0" lpdel="0"/>
            <elres lamt="0" x100="0" pdel="0" lshp="0" sustain="0.69199997" amt="0" att="0" hold="0.116" ctlenvamt="0" dec="0.5" lspd_denominator="4" rel="0.26300001" lspd="0.1" latt="0" userwavefile="" lspd_numerator="4" lspd_syncmode="0" lpdel="0"/>
          </eldata>
          <chordcreator chord-enabled="0" chordrange="1" chord="0"/>
          <arpeggiator arpdir="0" arptime="100" arpcycle="0" arpmode="0" arpmiss="0" arp-enabled="0" arprange="1" arpskip="0" arp="0" arptime_syncmode="0" arptime_numerator="4" arpgate="100" arptime_denominator="4"/>
          <midiport inputchannel="0" outputchannel="1" inputcontroller="0" outputprogram="1" readable="0" writable="0" fixedinputvelocity="-1" outputcontroller="0" fixedoutputvelocity="-1" basevelocity="63" fixedoutputnote="-1"/>
          <fxchain numofeffects="4" enabled="1">
            <effect wet="1" gate="0" autoquit="1" name="ladspaeffect" autoquit_numerator="4" autoquit_denominator="4" on="1" autoquit_syncmode="0">
              <ladspacontrols ports="4" link="1">
                <port00 data="30" link="1"/>
                <port01 data="-14.174999" link="1"/>
                <port10 data="30"/>
                <port11 data="-14.174999"/>
              </ladspacontrols>
              <key>
                <attribute value="satan_maximiser_1408" name="file"/>
                <attribute value="satanMaximiser" name="plugin"/>
              </key>
            </effect>
            <effect wet="0.65999997" gate="0" autoquit="1" name="ladspaeffect" autoquit_numerator="4" autoquit_denominator="4" on="1" autoquit_syncmode="0">
              <ladspacontrols ports="7">
                <port00 data="1.25"/>
                <port01 data="90"/>
                <port02 data="75"/>
                <port03 data="25"/>
                <port04 data="100"/>
                <port05 data="0"/>
                <port06 data="0"/>
              </ladspacontrols>
              <key>
                <attribute value="tap_chorusflanger" name="file"/>
                <attribute value="tap_chorusflanger" name="plugin"/>
              </key>
            </effect>
            <effect wet="1" gate="0" autoquit="1" name="ladspaeffect" autoquit_numerator="4" autoquit_denominator="4" on="1" autoquit_syncmode="0">
              <ladspacontrols ports="4">
                <port02 data="0.50200003"/>
                <port03 data="0.050000001"/>
                <port04 data="0.250375"/>
                <port05 data="0.25"/>
              </ladspacontrols>
              <key>
                <attribute value="caps" name="file"/>
                <attribute value="Plate2x2" name="plugin"/>
              </key>
            </effect>
            <effect wet="1" gate="0" autoquit="1" name="ladspaeffect" autoquit_numerator="4" autoquit_denominator="4" on="1" autoquit_syncmode="0">
              <ladspacontrols ports="10">
                <port04 data="140"/>
                <port05 data="11"/>
                <port06 data="8"/>
                <port07 data="8"/>
                <port08 data="0.5"/>
                <port09 data="0"/>
                <port010 data="1"/>
                <port011 data="2"/>
                <port012 data="1"/>
                <port013 data="1"/>
              </ladspacontrols>
              <key>
                <attribute value="calf" name="file"/>
                <attribute value="VintageDelay" name="plugin"/>
              </key>
            </effect>
          </fxchain>
        </instrumenttrack>
        <pattern muted="0" pos="0" name="Regular" type="1" steps="16">
          <note pos="0" pan="0" len="12" key="50" vol="100"/>
          <note pos="12" pan="0" len="12" key="60" vol="100"/>
          <note pos="36" pan="0" len="24" key="60" vol="100"/>
          <note pos="60" pan="0" len="12" key="59" vol="100"/>
          <note pos="72" pan="0" len="12" key="57" vol="100"/>
          <note pos="72" pan="0" len="12" key="48" vol="100"/>
          <note pos="84" pan="0" len="12" key="59" vol="100"/>
          <note pos="96" pan="0" len="12" key="50" vol="100"/>
          <note pos="108" pan="0" len="12" key="60" vol="100"/>
          <note pos="132" pan="0" len="24" key="60" vol="100"/>
          <note pos="156" pan="0" len="12" key="59" vol="100"/>
          <note pos="168" pan="0" len="12" key="57" vol="100"/>
          <note pos="168" pan="0" len="12" key="48" vol="100"/>
          <note pos="180" pan="0" len="12" key="59" vol="100"/>
          <note pos="192" pan="0" len="12" key="50" vol="100"/>
          <note pos="204" pan="0" len="12" key="60" vol="100"/>
          <note pos="228" pan="0" len="24" key="60" vol="100"/>
          <note pos="252" pan="0" len="12" key="59" vol="100"/>
          <note pos="264" pan="0" len="12" key="57" vol="100"/>
          <note pos="264" pan="0" len="12" key="48" vol="100"/>
          <note pos="276" pan="0" len="12" key="59" vol="100"/>
          <note pos="288" pan="0" len="12" key="50" vol="100"/>
          <note pos="300" pan="0" len="12" key="60" vol="100"/>
          <note pos="300" pan="0" len="12" key="48" vol="100"/>
          <note pos="312" pan="0" len="12" key="48" vol="100"/>
          <note pos="324" pan="0" len="12" key="50" vol="100"/>
          <note pos="336" pan="0" len="12" key="51" vol="100"/>
          <note pos="348" pan="0" len="12" key="53" vol="100"/>
          <note pos="360" pan="0" len="12" key="53" vol="100"/>
          <note pos="372" pan="0" len="12" key="51" vol="100"/>
          <note pos="384" pan="0" len="12" key="50" vol="100"/>
          <note pos="396" pan="0" len="12" key="60" vol="100"/>
          <note pos="420" pan="0" len="24" key="60" vol="100"/>
          <note pos="444" pan="0" len="12" key="59" vol="100"/>
          <note pos="456" pan="0" len="12" key="57" vol="100"/>
          <note pos="456" pan="0" len="12" key="48" vol="100"/>
          <note pos="468" pan="0" len="12" key="59" vol="100"/>
          <note pos="480" pan="0" len="12" key="50" vol="100"/>
          <note pos="492" pan="0" len="12" key="60" vol="100"/>
          <note pos="516" pan="0" len="24" key="60" vol="100"/>
          <note pos="540" pan="0" len="12" key="59" vol="100"/>
          <note pos="552" pan="0" len="12" key="57" vol="100"/>
          <note pos="552" pan="0" len="12" key="48" vol="100"/>
          <note pos="564" pan="0" len="12" key="59" vol="100"/>
          <note pos="576" pan="0" len="12" key="50" vol="100"/>
          <note pos="588" pan="0" len="12" key="60" vol="100"/>
          <note pos="612" pan="0" len="24" key="60" vol="100"/>
          <note pos="636" pan="0" len="12" key="59" vol="100"/>
          <note pos="648" pan="0" len="12" key="57" vol="100"/>
          <note pos="648" pan="0" len="12" key="48" vol="100"/>
          <note pos="660" pan="0" len="12" key="59" vol="100"/>
          <note pos="672" pan="0" len="12" key="50" vol="100"/>
          <note pos="684" pan="0" len="12" key="60" vol="100"/>
          <note pos="684" pan="0" len="12" key="48" vol="100"/>
          <note pos="696" pan="0" len="12" key="48" vol="100"/>
          <note pos="708" pan="0" len="12" key="50" vol="100"/>
          <note pos="720" pan="0" len="12" key="51" vol="100"/>
          <note pos="732" pan="0" len="12" key="53" vol="100"/>
          <note pos="744" pan="0" len="12" key="53" vol="100"/>
          <note pos="756" pan="0" len="12" key="51" vol="100"/>
          <note pos="768" pan="0" len="12" key="50" vol="100"/>
          <note pos="780" pan="0" len="12" key="53" vol="100"/>
          <note pos="804" pan="0" len="24" key="53" vol="100"/>
          <note pos="828" pan="0" len="12" key="52" vol="100"/>
          <note pos="840" pan="0" len="12" key="52" vol="100"/>
          <note pos="852" pan="0" len="12" key="50" vol="100"/>
          <note pos="864" pan="0" len="12" key="50" vol="100"/>
          <note pos="876" pan="0" len="12" key="53" vol="100"/>
          <note pos="900" pan="0" len="24" key="53" vol="100"/>
          <note pos="924" pan="0" len="12" key="52" vol="100"/>
          <note pos="936" pan="0" len="12" key="52" vol="100"/>
          <note pos="948" pan="0" len="12" key="50" vol="100"/>
          <note pos="960" pan="0" len="12" key="50" vol="100"/>
          <note pos="972" pan="0" len="12" key="53" vol="100"/>
          <note pos="996" pan="0" len="24" key="53" vol="100"/>
          <note pos="1020" pan="0" len="12" key="52" vol="100"/>
          <note pos="1032" pan="0" len="12" key="52" vol="100"/>
          <note pos="1044" pan="0" len="12" key="50" vol="100"/>
          <note pos="1056" pan="0" len="12" key="50" vol="100"/>
          <note pos="1068" pan="0" len="12" key="53" vol="100"/>
          <note pos="1080" pan="0" len="12" key="50" vol="100"/>
          <note pos="1092" pan="0" len="12" key="52" vol="100"/>
          <note pos="1104" pan="0" len="12" key="53" vol="100"/>
          <note pos="1116" pan="0" len="12" key="53" vol="100"/>
          <note pos="1128" pan="0" len="12" key="52" vol="100"/>
          <note pos="1140" pan="0" len="12" key="51" vol="100"/>
          <note pos="1152" pan="0" len="12" key="50" vol="100"/>
          <note pos="1164" pan="0" len="12" key="53" vol="100"/>
          <note pos="1188" pan="0" len="24" key="53" vol="100"/>
          <note pos="1212" pan="0" len="12" key="52" vol="100"/>
          <note pos="1224" pan="0" len="12" key="52" vol="100"/>
          <note pos="1236" pan="0" len="12" key="50" vol="100"/>
          <note pos="1248" pan="0" len="12" key="50" vol="100"/>
          <note pos="1260" pan="0" len="12" key="53" vol="100"/>
          <note pos="1284" pan="0" len="24" key="53" vol="100"/>
          <note pos="1308" pan="0" len="12" key="52" vol="100"/>
          <note pos="1320" pan="0" len="12" key="52" vol="100"/>
          <note pos="1332" pan="0" len="12" key="50" vol="100"/>
          <note pos="1344" pan="0" len="12" key="50" vol="100"/>
          <note pos="1356" pan="0" len="12" key="53" vol="100"/>
          <note pos="1380" pan="0" len="24" key="53" vol="100"/>
          <note pos="1404" pan="0" len="12" key="52" vol="100"/>
          <note pos="1416" pan="0" len="12" key="52" vol="100"/>
          <note pos="1428" pan="0" len="12" key="50" vol="100"/>
          <note pos="1440" pan="0" len="12" key="50" vol="100"/>
          <note pos="1452" pan="0" len="12" key="53" vol="100"/>
          <note pos="1464" pan="0" len="12" key="50" vol="100"/>
          <note pos="1476" pan="0" len="12" key="52" vol="100"/>
          <note pos="1488" pan="0" len="12" key="53" vol="100"/>
          <note pos="1500" pan="0" len="12" key="53" vol="100"/>
          <note pos="1512" pan="0" len="12" key="52" vol="100"/>
          <note pos="1524" pan="0" len="12" key="51" vol="100"/>
        </pattern>
        <pattern muted="0" pos="1536" name="Phase bass" type="1" steps="16">
          <note pos="0" pan="0" len="12" key="50" vol="100"/>
          <note pos="12" pan="0" len="12" key="60" vol="100"/>
          <note pos="36" pan="0" len="24" key="60" vol="100"/>
          <note pos="60" pan="0" len="12" key="59" vol="100"/>
          <note pos="72" pan="0" len="12" key="57" vol="100"/>
          <note pos="72" pan="0" len="12" key="48" vol="100"/>
          <note pos="84" pan="0" len="12" key="59" vol="100"/>
          <note pos="96" pan="0" len="12" key="50" vol="100"/>
          <note pos="108" pan="0" len="12" key="60" vol="100"/>
          <note pos="132" pan="0" len="24" key="60" vol="100"/>
          <note pos="156" pan="0" len="12" key="59" vol="100"/>
          <note pos="168" pan="0" len="12" key="57" vol="100"/>
          <note pos="168" pan="0" len="12" key="48" vol="100"/>
          <note pos="180" pan="0" len="12" key="59" vol="100"/>
          <note pos="192" pan="0" len="12" key="50" vol="100"/>
          <note pos="204" pan="0" len="12" key="60" vol="100"/>
          <note pos="228" pan="0" len="24" key="60" vol="100"/>
          <note pos="252" pan="0" len="12" key="59" vol="100"/>
          <note pos="264" pan="0" len="12" key="57" vol="100"/>
          <note pos="264" pan="0" len="12" key="48" vol="100"/>
          <note pos="276" pan="0" len="12" key="59" vol="100"/>
          <note pos="288" pan="0" len="12" key="50" vol="100"/>
          <note pos="300" pan="0" len="12" key="60" vol="100"/>
          <note pos="300" pan="0" len="12" key="48" vol="100"/>
          <note pos="312" pan="0" len="12" key="48" vol="100"/>
          <note pos="324" pan="0" len="12" key="50" vol="100"/>
          <note pos="336" pan="0" len="12" key="51" vol="100"/>
          <note pos="348" pan="0" len="12" key="53" vol="100"/>
          <note pos="360" pan="0" len="12" key="53" vol="100"/>
          <note pos="372" pan="0" len="12" key="51" vol="100"/>
          <note pos="384" pan="0" len="12" key="50" vol="100"/>
          <note pos="396" pan="0" len="12" key="60" vol="100"/>
          <note pos="420" pan="0" len="24" key="60" vol="100"/>
          <note pos="444" pan="0" len="12" key="59" vol="100"/>
          <note pos="456" pan="0" len="12" key="57" vol="100"/>
          <note pos="456" pan="0" len="12" key="48" vol="100"/>
          <note pos="468" pan="0" len="12" key="59" vol="100"/>
          <note pos="480" pan="0" len="12" key="50" vol="100"/>
          <note pos="492" pan="0" len="12" key="60" vol="100"/>
          <note pos="516" pan="0" len="24" key="60" vol="100"/>
          <note pos="540" pan="0" len="12" key="59" vol="100"/>
          <note pos="552" pan="0" len="12" key="57" vol="100"/>
          <note pos="552" pan="0" len="12" key="48" vol="100"/>
          <note pos="564" pan="0" len="12" key="59" vol="100"/>
          <note pos="576" pan="0" len="12" key="50" vol="100"/>
          <note pos="588" pan="0" len="12" key="60" vol="100"/>
          <note pos="612" pan="0" len="24" key="60" vol="100"/>
          <note pos="636" pan="0" len="12" key="59" vol="100"/>
          <note pos="648" pan="0" len="12" key="57" vol="100"/>
          <note pos="648" pan="0" len="12" key="48" vol="100"/>
          <note pos="660" pan="0" len="12" key="59" vol="100"/>
          <note pos="672" pan="0" len="12" key="50" vol="100"/>
          <note pos="684" pan="0" len="12" key="60" vol="100"/>
          <note pos="684" pan="0" len="12" key="48" vol="100"/>
          <note pos="696" pan="0" len="12" key="48" vol="100"/>
          <note pos="708" pan="0" len="12" key="50" vol="100"/>
          <note pos="720" pan="0" len="12" key="51" vol="100"/>
          <note pos="732" pan="0" len="12" key="53" vol="100"/>
          <note pos="744" pan="0" len="12" key="53" vol="100"/>
          <note pos="756" pan="0" len="12" key="51" vol="100"/>
          <note pos="768" pan="0" len="12" key="49" vol="100"/>
          <note pos="780" pan="0" len="12" key="52" vol="100"/>
          <note pos="804" pan="0" len="24" key="52" vol="100"/>
          <note pos="828" pan="0" len="12" key="51" vol="100"/>
          <note pos="840" pan="0" len="12" key="51" vol="100"/>
          <note pos="852" pan="0" len="12" key="49" vol="100"/>
          <note pos="864" pan="0" len="12" key="49" vol="100"/>
          <note pos="876" pan="0" len="12" key="52" vol="100"/>
          <note pos="900" pan="0" len="24" key="52" vol="100"/>
          <note pos="924" pan="0" len="12" key="51" vol="100"/>
          <note pos="936" pan="0" len="12" key="51" vol="100"/>
          <note pos="948" pan="0" len="12" key="49" vol="100"/>
          <note pos="960" pan="0" len="12" key="49" vol="100"/>
          <note pos="972" pan="0" len="12" key="52" vol="100"/>
          <note pos="996" pan="0" len="24" key="52" vol="100"/>
          <note pos="1020" pan="0" len="12" key="51" vol="100"/>
          <note pos="1032" pan="0" len="12" key="51" vol="100"/>
          <note pos="1044" pan="0" len="12" key="49" vol="100"/>
          <note pos="1056" pan="0" len="12" key="49" vol="100"/>
          <note pos="1068" pan="0" len="12" key="52" vol="100"/>
          <note pos="1080" pan="0" len="12" key="49" vol="100"/>
          <note pos="1092" pan="0" len="12" key="51" vol="100"/>
          <note pos="1104" pan="0" len="12" key="52" vol="100"/>
          <note pos="1116" pan="0" len="12" key="52" vol="100"/>
          <note pos="1128" pan="0" len="12" key="51" vol="100"/>
          <note pos="1140" pan="0" len="12" key="50" vol="100"/>
          <note pos="1152" pan="0" len="12" key="49" vol="100"/>
          <note pos="1164" pan="0" len="12" key="52" vol="100"/>
          <note pos="1188" pan="0" len="24" key="52" vol="100"/>
          <note pos="1212" pan="0" len="12" key="51" vol="100"/>
          <note pos="1224" pan="0" len="12" key="51" vol="100"/>
          <note pos="1236" pan="0" len="12" key="49" vol="100"/>
          <note pos="1248" pan="0" len="12" key="49" vol="100"/>
          <note pos="1260" pan="0" len="12" key="52" vol="100"/>
          <note pos="1284" pan="0" len="24" key="52" vol="100"/>
          <note pos="1308" pan="0" len="12" key="51" vol="100"/>
          <note pos="1320" pan="0" len="12" key="51" vol="100"/>
          <note pos="1332" pan="0" len="12" key="49" vol="100"/>
          <note pos="1344" pan="0" len="12" key="49" vol="100"/>
          <note pos="1356" pan="0" len="12" key="52" vol="100"/>
          <note pos="1380" pan="0" len="24" key="52" vol="100"/>
          <note pos="1404" pan="0" len="12" key="51" vol="100"/>
          <note pos="1416" pan="0" len="12" key="51" vol="100"/>
          <note pos="1428" pan="0" len="12" key="49" vol="100"/>
          <note pos="1440" pan="0" len="12" key="49" vol="100"/>
          <note pos="1452" pan="0" len="12" key="52" vol="100"/>
          <note pos="1464" pan="0" len="12" key="49" vol="100"/>
          <note pos="1476" pan="0" len="12" key="51" vol="100"/>
          <note pos="1488" pan="0" len="12" key="52" vol="100"/>
          <note pos="1500" pan="0" len="12" key="52" vol="100"/>
          <note pos="1512" pan="0" len="12" key="51" vol="100"/>
          <note pos="1524" pan="0" len="12" key="50" vol="100"/>
        </pattern>
        <pattern muted="0" pos="3072" name="" type="1" steps="16">
          <note pos="0" pan="0" len="12" key="50" vol="100"/>
          <note pos="12" pan="0" len="12" key="60" vol="100"/>
          <note pos="36" pan="0" len="24" key="60" vol="100"/>
          <note pos="60" pan="0" len="12" key="59" vol="100"/>
          <note pos="72" pan="0" len="12" key="57" vol="100"/>
          <note pos="72" pan="0" len="12" key="48" vol="100"/>
          <note pos="84" pan="0" len="12" key="59" vol="100"/>
          <note pos="96" pan="0" len="12" key="50" vol="100"/>
          <note pos="108" pan="0" len="12" key="60" vol="100"/>
          <note pos="132" pan="0" len="24" key="60" vol="100"/>
          <note pos="156" pan="0" len="12" key="59" vol="100"/>
          <note pos="168" pan="0" len="12" key="57" vol="100"/>
          <note pos="168" pan="0" len="12" key="48" vol="100"/>
          <note pos="180" pan="0" len="12" key="59" vol="100"/>
          <note pos="192" pan="0" len="12" key="50" vol="100"/>
          <note pos="204" pan="0" len="12" key="60" vol="100"/>
          <note pos="228" pan="0" len="24" key="60" vol="100"/>
          <note pos="252" pan="0" len="12" key="59" vol="100"/>
          <note pos="264" pan="0" len="12" key="57" vol="100"/>
          <note pos="264" pan="0" len="12" key="48" vol="100"/>
          <note pos="276" pan="0" len="12" key="59" vol="100"/>
          <note pos="288" pan="0" len="12" key="50" vol="100"/>
          <note pos="300" pan="0" len="12" key="60" vol="100"/>
          <note pos="300" pan="0" len="12" key="48" vol="100"/>
          <note pos="312" pan="0" len="12" key="48" vol="100"/>
          <note pos="324" pan="0" len="12" key="50" vol="100"/>
          <note pos="336" pan="0" len="12" key="51" vol="100"/>
          <note pos="348" pan="0" len="12" key="53" vol="100"/>
          <note pos="360" pan="0" len="12" key="53" vol="100"/>
          <note pos="372" pan="0" len="12" key="51" vol="100"/>
          <note pos="384" pan="0" len="12" key="50" vol="100"/>
          <note pos="396" pan="0" len="12" key="60" vol="100"/>
          <note pos="420" pan="0" len="24" key="60" vol="100"/>
          <note pos="444" pan="0" len="12" key="59" vol="100"/>
          <note pos="456" pan="0" len="12" key="57" vol="100"/>
          <note pos="456" pan="0" len="12" key="48" vol="100"/>
          <note pos="468" pan="0" len="12" key="59" vol="100"/>
          <note pos="480" pan="0" len="12" key="50" vol="100"/>
          <note pos="492" pan="0" len="12" key="60" vol="100"/>
          <note pos="516" pan="0" len="24" key="60" vol="100"/>
          <note pos="540" pan="0" len="12" key="59" vol="100"/>
          <note pos="552" pan="0" len="12" key="57" vol="100"/>
          <note pos="552" pan="0" len="12" key="48" vol="100"/>
          <note pos="564" pan="0" len="12" key="59" vol="100"/>
          <note pos="576" pan="0" len="12" key="50" vol="100"/>
          <note pos="588" pan="0" len="12" key="60" vol="100"/>
          <note pos="612" pan="0" len="24" key="60" vol="100"/>
          <note pos="636" pan="0" len="12" key="59" vol="100"/>
          <note pos="648" pan="0" len="12" key="57" vol="100"/>
          <note pos="648" pan="0" len="12" key="48" vol="100"/>
          <note pos="660" pan="0" len="12" key="59" vol="100"/>
          <note pos="672" pan="0" len="12" key="50" vol="100"/>
          <note pos="684" pan="0" len="12" key="60" vol="100"/>
          <note pos="684" pan="0" len="12" key="48" vol="100"/>
          <note pos="696" pan="0" len="12" key="48" vol="100"/>
          <note pos="708" pan="0" len="12" key="50" vol="100"/>
          <note pos="720" pan="0" len="12" key="51" vol="100"/>
          <note pos="732" pan="0" len="12" key="53" vol="100"/>
          <note pos="744" pan="0" len="12" key="53" vol="100"/>
          <note pos="756" pan="0" len="12" key="51" vol="100"/>
          <note pos="768" pan="0" len="12" key="49" vol="100"/>
          <note pos="780" pan="0" len="12" key="52" vol="100"/>
          <note pos="804" pan="0" len="24" key="52" vol="100"/>
          <note pos="828" pan="0" len="12" key="51" vol="100"/>
          <note pos="840" pan="0" len="12" key="51" vol="100"/>
          <note pos="852" pan="0" len="12" key="49" vol="100"/>
          <note pos="864" pan="0" len="12" key="49" vol="100"/>
          <note pos="876" pan="0" len="12" key="52" vol="100"/>
          <note pos="900" pan="0" len="24" key="52" vol="100"/>
          <note pos="924" pan="0" len="12" key="51" vol="100"/>
          <note pos="936" pan="0" len="12" key="51" vol="100"/>
          <note pos="948" pan="0" len="12" key="49" vol="100"/>
          <note pos="960" pan="0" len="12" key="49" vol="100"/>
          <note pos="972" pan="0" len="12" key="52" vol="100"/>
          <note pos="996" pan="0" len="24" key="52" vol="100"/>
          <note pos="1020" pan="0" len="12" key="51" vol="100"/>
          <note pos="1032" pan="0" len="12" key="51" vol="100"/>
          <note pos="1044" pan="0" len="12" key="49" vol="100"/>
          <note pos="1056" pan="0" len="12" key="49" vol="100"/>
          <note pos="1068" pan="0" len="12" key="52" vol="100"/>
          <note pos="1080" pan="0" len="12" key="49" vol="100"/>
          <note pos="1092" pan="0" len="12" key="51" vol="100"/>
          <note pos="1104" pan="0" len="12" key="52" vol="100"/>
          <note pos="1116" pan="0" len="12" key="52" vol="100"/>
          <note pos="1128" pan="0" len="12" key="51" vol="100"/>
          <note pos="1140" pan="0" len="12" key="50" vol="100"/>
          <note pos="1152" pan="0" len="12" key="49" vol="100"/>
          <note pos="1164" pan="0" len="12" key="52" vol="100"/>
          <note pos="1188" pan="0" len="24" key="52" vol="100"/>
          <note pos="1212" pan="0" len="12" key="51" vol="100"/>
          <note pos="1224" pan="0" len="12" key="51" vol="100"/>
          <note pos="1236" pan="0" len="12" key="49" vol="100"/>
          <note pos="1248" pan="0" len="12" key="49" vol="100"/>
          <note pos="1260" pan="0" len="12" key="52" vol="100"/>
          <note pos="1284" pan="0" len="24" key="52" vol="100"/>
          <note pos="1308" pan="0" len="12" key="51" vol="100"/>
          <note pos="1320" pan="0" len="12" key="51" vol="100"/>
          <note pos="1332" pan="0" len="12" key="49" vol="100"/>
          <note pos="1344" pan="0" len="12" key="49" vol="100"/>
          <note pos="1356" pan="0" len="12" key="52" vol="100"/>
          <note pos="1380" pan="0" len="24" key="52" vol="100"/>
          <note pos="1404" pan="0" len="12" key="51" vol="100"/>
          <note pos="1416" pan="0" len="12" key="51" vol="100"/>
          <note pos="1428" pan="0" len="12" key="49" vol="100"/>
          <note pos="1440" pan="0" len="12" key="49" vol="100"/>
          <note pos="1452" pan="0" len="12" key="52" vol="100"/>
          <note pos="1464" pan="0" len="12" key="49" vol="100"/>
          <note pos="1476" pan="0" len="12" key="51" vol="100"/>
          <note pos="1488" pan="0" len="12" key="52" vol="100"/>
          <note pos="1500" pan="0" len="12" key="52" vol="100"/>
          <note pos="1512" pan="0" len="12" key="51" vol="100"/>
          <note pos="1524" pan="0" len="12" key="50" vol="100"/>
        </pattern>
        <pattern muted="0" pos="4608" name="" type="1" steps="16">
          <note pos="0" pan="0" len="12" key="50" vol="100"/>
          <note pos="12" pan="0" len="12" key="60" vol="100"/>
          <note pos="36" pan="0" len="24" key="60" vol="100"/>
          <note pos="60" pan="0" len="12" key="59" vol="100"/>
          <note pos="72" pan="0" len="12" key="57" vol="100"/>
          <note pos="72" pan="0" len="12" key="48" vol="100"/>
          <note pos="84" pan="0" len="12" key="59" vol="100"/>
          <note pos="96" pan="0" len="12" key="50" vol="100"/>
          <note pos="108" pan="0" len="12" key="60" vol="100"/>
          <note pos="132" pan="0" len="24" key="60" vol="100"/>
          <note pos="156" pan="0" len="12" key="59" vol="100"/>
          <note pos="168" pan="0" len="12" key="57" vol="100"/>
          <note pos="168" pan="0" len="12" key="48" vol="100"/>
          <note pos="180" pan="0" len="12" key="59" vol="100"/>
          <note pos="192" pan="0" len="12" key="50" vol="100"/>
          <note pos="204" pan="0" len="12" key="60" vol="100"/>
          <note pos="228" pan="0" len="24" key="60" vol="100"/>
          <note pos="252" pan="0" len="12" key="59" vol="100"/>
          <note pos="264" pan="0" len="12" key="57" vol="100"/>
          <note pos="264" pan="0" len="12" key="48" vol="100"/>
          <note pos="276" pan="0" len="12" key="59" vol="100"/>
          <note pos="288" pan="0" len="12" key="50" vol="100"/>
          <note pos="300" pan="0" len="12" key="60" vol="100"/>
          <note pos="300" pan="0" len="12" key="48" vol="100"/>
          <note pos="312" pan="0" len="12" key="48" vol="100"/>
          <note pos="324" pan="0" len="12" key="50" vol="100"/>
          <note pos="336" pan="0" len="12" key="51" vol="100"/>
          <note pos="348" pan="0" len="12" key="53" vol="100"/>
          <note pos="360" pan="0" len="12" key="53" vol="100"/>
          <note pos="372" pan="0" len="12" key="51" vol="100"/>
          <note pos="384" pan="0" len="12" key="50" vol="100"/>
          <note pos="396" pan="0" len="12" key="60" vol="100"/>
          <note pos="420" pan="0" len="24" key="60" vol="100"/>
          <note pos="444" pan="0" len="12" key="59" vol="100"/>
          <note pos="456" pan="0" len="12" key="57" vol="100"/>
          <note pos="456" pan="0" len="12" key="48" vol="100"/>
          <note pos="468" pan="0" len="12" key="59" vol="100"/>
          <note pos="480" pan="0" len="12" key="50" vol="100"/>
          <note pos="492" pan="0" len="12" key="60" vol="100"/>
          <note pos="516" pan="0" len="24" key="60" vol="100"/>
          <note pos="540" pan="0" len="12" key="59" vol="100"/>
          <note pos="552" pan="0" len="12" key="57" vol="100"/>
          <note pos="552" pan="0" len="12" key="48" vol="100"/>
          <note pos="564" pan="0" len="12" key="59" vol="100"/>
          <note pos="576" pan="0" len="12" key="50" vol="100"/>
          <note pos="588" pan="0" len="12" key="60" vol="100"/>
          <note pos="612" pan="0" len="24" key="60" vol="100"/>
          <note pos="636" pan="0" len="12" key="59" vol="100"/>
          <note pos="648" pan="0" len="12" key="57" vol="100"/>
          <note pos="648" pan="0" len="12" key="48" vol="100"/>
          <note pos="660" pan="0" len="12" key="59" vol="100"/>
          <note pos="672" pan="0" len="12" key="50" vol="100"/>
          <note pos="684" pan="0" len="12" key="60" vol="100"/>
          <note pos="684" pan="0" len="12" key="48" vol="100"/>
          <note pos="696" pan="0" len="12" key="48" vol="100"/>
          <note pos="708" pan="0" len="12" key="50" vol="100"/>
          <note pos="720" pan="0" len="12" key="51" vol="100"/>
          <note pos="732" pan="0" len="12" key="53" vol="100"/>
          <note pos="744" pan="0" len="12" key="53" vol="100"/>
          <note pos="756" pan="0" len="12" key="51" vol="100"/>
          <note pos="768" pan="0" len="12" key="49" vol="100"/>
          <note pos="780" pan="0" len="12" key="52" vol="100"/>
          <note pos="804" pan="0" len="24" key="52" vol="100"/>
          <note pos="828" pan="0" len="12" key="51" vol="100"/>
          <note pos="840" pan="0" len="12" key="51" vol="100"/>
          <note pos="852" pan="0" len="12" key="49" vol="100"/>
          <note pos="864" pan="0" len="12" key="49" vol="100"/>
          <note pos="876" pan="0" len="12" key="52" vol="100"/>
          <note pos="900" pan="0" len="24" key="52" vol="100"/>
          <note pos="924" pan="0" len="12" key="51" vol="100"/>
          <note pos="936" pan="0" len="12" key="51" vol="100"/>
          <note pos="948" pan="0" len="12" key="49" vol="100"/>
          <note pos="960" pan="0" len="12" key="49" vol="100"/>
          <note pos="972" pan="0" len="12" key="52" vol="100"/>
          <note pos="996" pan="0" len="24" key="52" vol="100"/>
          <note pos="1020" pan="0" len="12" key="51" vol="100"/>
          <note pos="1032" pan="0" len="12" key="51" vol="100"/>
          <note pos="1044" pan="0" len="12" key="49" vol="100"/>
          <note pos="1056" pan="0" len="12" key="49" vol="100"/>
          <note pos="1068" pan="0" len="12" key="52" vol="100"/>
          <note pos="1080" pan="0" len="12" key="49" vol="100"/>
          <note pos="1092" pan="0" len="12" key="51" vol="100"/>
          <note pos="1104" pan="0" len="12" key="52" vol="100"/>
          <note pos="1116" pan="0" len="12" key="52" vol="100"/>
          <note pos="1128" pan="0" len="12" key="51" vol="100"/>
          <note pos="1140" pan="0" len="12" key="50" vol="100"/>
          <note pos="1152" pan="0" len="12" key="49" vol="100"/>
          <note pos="1164" pan="0" len="12" key="52" vol="100"/>
          <note pos="1188" pan="0" len="24" key="52" vol="100"/>
          <note pos="1212" pan="0" len="12" key="51" vol="100"/>
          <note pos="1224" pan="0" len="12" key="51" vol="100"/>
          <note pos="1236" pan="0" len="12" key="49" vol="100"/>
          <note pos="1248" pan="0" len="12" key="49" vol="100"/>
          <note pos="1260" pan="0" len="12" key="52" vol="100"/>
          <note pos="1284" pan="0" len="24" key="52" vol="100"/>
          <note pos="1308" pan="0" len="12" key="51" vol="100"/>
          <note pos="1320" pan="0" len="12" key="51" vol="100"/>
          <note pos="1332" pan="0" len="12" key="49" vol="100"/>
          <note pos="1344" pan="0" len="12" key="49" vol="100"/>
          <note pos="1356" pan="0" len="12" key="52" vol="100"/>
          <note pos="1380" pan="0" len="24" key="52" vol="100"/>
          <note pos="1404" pan="0" len="12" key="51" vol="100"/>
          <note pos="1416" pan="0" len="12" key="51" vol="100"/>
          <note pos="1428" pan="0" len="12" key="49" vol="100"/>
          <note pos="1440" pan="0" len="12" key="49" vol="100"/>
          <note pos="1452" pan="0" len="12" key="52" vol="100"/>
          <note pos="1464" pan="0" len="12" key="49" vol="100"/>
          <note pos="1476" pan="0" len="12" key="51" vol="100"/>
          <note pos="1488" pan="0" len="12" key="52" vol="100"/>
          <note pos="1500" pan="0" len="12" key="52" vol="100"/>
          <note pos="1512" pan="0" len="12" key="51" vol="100"/>
          <note pos="1524" pan="0" len="12" key="50" vol="100"/>
        </pattern>
        <pattern muted="0" pos="12288" name="" type="1" steps="16">
          <note pos="0" pan="0" len="12" key="50" vol="100"/>
          <note pos="12" pan="0" len="12" key="60" vol="100"/>
          <note pos="36" pan="0" len="24" key="60" vol="100"/>
          <note pos="60" pan="0" len="12" key="59" vol="100"/>
          <note pos="72" pan="0" len="12" key="57" vol="100"/>
          <note pos="72" pan="0" len="12" key="48" vol="100"/>
          <note pos="84" pan="0" len="12" key="59" vol="100"/>
          <note pos="96" pan="0" len="12" key="50" vol="100"/>
          <note pos="108" pan="0" len="12" key="60" vol="100"/>
          <note pos="132" pan="0" len="24" key="60" vol="100"/>
          <note pos="156" pan="0" len="12" key="59" vol="100"/>
          <note pos="168" pan="0" len="12" key="57" vol="100"/>
          <note pos="168" pan="0" len="12" key="48" vol="100"/>
          <note pos="180" pan="0" len="12" key="59" vol="100"/>
          <note pos="192" pan="0" len="12" key="50" vol="100"/>
          <note pos="204" pan="0" len="12" key="60" vol="100"/>
          <note pos="228" pan="0" len="24" key="60" vol="100"/>
          <note pos="252" pan="0" len="12" key="59" vol="100"/>
          <note pos="264" pan="0" len="12" key="57" vol="100"/>
          <note pos="264" pan="0" len="12" key="48" vol="100"/>
          <note pos="276" pan="0" len="12" key="59" vol="100"/>
          <note pos="288" pan="0" len="12" key="50" vol="100"/>
          <note pos="300" pan="0" len="12" key="60" vol="100"/>
          <note pos="300" pan="0" len="12" key="48" vol="100"/>
          <note pos="312" pan="0" len="12" key="48" vol="100"/>
          <note pos="324" pan="0" len="12" key="50" vol="100"/>
          <note pos="336" pan="0" len="12" key="51" vol="100"/>
          <note pos="348" pan="0" len="12" key="53" vol="100"/>
          <note pos="360" pan="0" len="12" key="53" vol="100"/>
          <note pos="372" pan="0" len="12" key="51" vol="100"/>
          <note pos="384" pan="0" len="12" key="50" vol="100"/>
          <note pos="396" pan="0" len="12" key="60" vol="100"/>
          <note pos="420" pan="0" len="24" key="60" vol="100"/>
          <note pos="444" pan="0" len="12" key="59" vol="100"/>
          <note pos="456" pan="0" len="12" key="57" vol="100"/>
          <note pos="456" pan="0" len="12" key="48" vol="100"/>
          <note pos="468" pan="0" len="12" key="59" vol="100"/>
          <note pos="480" pan="0" len="12" key="50" vol="100"/>
          <note pos="492" pan="0" len="12" key="60" vol="100"/>
          <note pos="516" pan="0" len="24" key="60" vol="100"/>
          <note pos="540" pan="0" len="12" key="59" vol="100"/>
          <note pos="552" pan="0" len="12" key="57" vol="100"/>
          <note pos="552" pan="0" len="12" key="48" vol="100"/>
          <note pos="564" pan="0" len="12" key="59" vol="100"/>
          <note pos="576" pan="0" len="12" key="50" vol="100"/>
          <note pos="588" pan="0" len="12" key="60" vol="100"/>
          <note pos="612" pan="0" len="24" key="60" vol="100"/>
          <note pos="636" pan="0" len="12" key="59" vol="100"/>
          <note pos="648" pan="0" len="12" key="57" vol="100"/>
          <note pos="648" pan="0" len="12" key="48" vol="100"/>
          <note pos="660" pan="0" len="12" key="59" vol="100"/>
          <note pos="672" pan="0" len="12" key="50" vol="100"/>
          <note pos="684" pan="0" len="12" key="60" vol="100"/>
          <note pos="684" pan="0" len="12" key="48" vol="100"/>
          <note pos="696" pan="0" len="12" key="48" vol="100"/>
          <note pos="708" pan="0" len="12" key="50" vol="100"/>
          <note pos="720" pan="0" len="12" key="51" vol="100"/>
          <note pos="732" pan="0" len="12" key="53" vol="100"/>
          <note pos="744" pan="0" len="12" key="53" vol="100"/>
          <note pos="756" pan="0" len="12" key="51" vol="100"/>
          <note pos="768" pan="0" len="12" key="49" vol="100"/>
          <note pos="780" pan="0" len="12" key="52" vol="100"/>
          <note pos="804" pan="0" len="24" key="52" vol="100"/>
          <note pos="828" pan="0" len="12" key="51" vol="100"/>
          <note pos="840" pan="0" len="12" key="51" vol="100"/>
          <note pos="852" pan="0" len="12" key="49" vol="100"/>
          <note pos="864" pan="0" len="12" key="49" vol="100"/>
          <note pos="876" pan="0" len="12" key="52" vol="100"/>
          <note pos="900" pan="0" len="24" key="52" vol="100"/>
          <note pos="924" pan="0" len="12" key="51" vol="100"/>
          <note pos="936" pan="0" len="12" key="51" vol="100"/>
          <note pos="948" pan="0" len="12" key="49" vol="100"/>
          <note pos="960" pan="0" len="12" key="49" vol="100"/>
          <note pos="972" pan="0" len="12" key="52" vol="100"/>
          <note pos="996" pan="0" len="24" key="52" vol="100"/>
          <note pos="1020" pan="0" len="12" key="51" vol="100"/>
          <note pos="1032" pan="0" len="12" key="51" vol="100"/>
          <note pos="1044" pan="0" len="12" key="49" vol="100"/>
          <note pos="1056" pan="0" len="12" key="49" vol="100"/>
          <note pos="1068" pan="0" len="12" key="52" vol="100"/>
          <note pos="1080" pan="0" len="12" key="49" vol="100"/>
          <note pos="1092" pan="0" len="12" key="51" vol="100"/>
          <note pos="1104" pan="0" len="12" key="52" vol="100"/>
          <note pos="1116" pan="0" len="12" key="52" vol="100"/>
          <note pos="1128" pan="0" len="12" key="51" vol="100"/>
          <note pos="1140" pan="0" len="12" key="50" vol="100"/>
          <note pos="1152" pan="0" len="12" key="49" vol="100"/>
          <note pos="1164" pan="0" len="12" key="52" vol="100"/>
          <note pos="1188" pan="0" len="24" key="52" vol="100"/>
          <note pos="1212" pan="0" len="12" key="51" vol="100"/>
          <note pos="1224" pan="0" len="12" key="51" vol="100"/>
          <note pos="1236" pan="0" len="12" key="49" vol="100"/>
          <note pos="1248" pan="0" len="12" key="49" vol="100"/>
          <note pos="1260" pan="0" len="12" key="52" vol="100"/>
          <note pos="1284" pan="0" len="24" key="52" vol="100"/>
          <note pos="1308" pan="0" len="12" key="51" vol="100"/>
          <note pos="1320" pan="0" len="12" key="51" vol="100"/>
          <note pos="1332" pan="0" len="12" key="49" vol="100"/>
          <note pos="1344" pan="0" len="12" key="49" vol="100"/>
          <note pos="1356" pan="0" len="12" key="52" vol="100"/>
          <note pos="1380" pan="0" len="24" key="52" vol="100"/>
          <note pos="1404" pan="0" len="12" key="51" vol="100"/>
          <note pos="1416" pan="0" len="12" key="51" vol="100"/>
          <note pos="1428" pan="0" len="12" key="49" vol="100"/>
          <note pos="1440" pan="0" len="12" key="49" vol="100"/>
          <note pos="1452" pan="0" len="12" key="52" vol="100"/>
          <note pos="1464" pan="0" len="12" key="49" vol="100"/>
          <note pos="1476" pan="0" len="12" key="51" vol="100"/>
          <note pos="1488" pan="0" len="12" key="52" vol="100"/>
          <note pos="1500" pan="0" len="12" key="52" vol="100"/>
          <note pos="1512" pan="0" len="12" key="51" vol="100"/>
          <note pos="1524" pan="0" len="12" key="50" vol="100"/>
        </pattern>
        <pattern muted="0" pos="13824" name="" type="1" steps="16">
          <note pos="0" pan="0" len="12" key="50" vol="100"/>
          <note pos="12" pan="0" len="12" key="60" vol="100"/>
          <note pos="36" pan="0" len="24" key="60" vol="100"/>
          <note pos="60" pan="0" len="12" key="59" vol="100"/>
          <note pos="72" pan="0" len="12" key="57" vol="100"/>
          <note pos="72" pan="0" len="12" key="48" vol="100"/>
          <note pos="84" pan="0" len="12" key="59" vol="100"/>
          <note pos="96" pan="0" len="12" key="50" vol="100"/>
          <note pos="108" pan="0" len="12" key="60" vol="100"/>
          <note pos="132" pan="0" len="24" key="60" vol="100"/>
          <note pos="156" pan="0" len="12" key="59" vol="100"/>
          <note pos="168" pan="0" len="12" key="57" vol="100"/>
          <note pos="168" pan="0" len="12" key="48" vol="100"/>
          <note pos="180" pan="0" len="12" key="59" vol="100"/>
          <note pos="192" pan="0" len="12" key="50" vol="100"/>
          <note pos="204" pan="0" len="12" key="60" vol="100"/>
          <note pos="228" pan="0" len="24" key="60" vol="100"/>
          <note pos="252" pan="0" len="12" key="59" vol="100"/>
          <note pos="264" pan="0" len="12" key="57" vol="100"/>
          <note pos="264" pan="0" len="12" key="48" vol="100"/>
          <note pos="276" pan="0" len="12" key="59" vol="100"/>
          <note pos="288" pan="0" len="12" key="50" vol="100"/>
          <note pos="300" pan="0" len="12" key="60" vol="100"/>
          <note pos="300" pan="0" len="12" key="48" vol="100"/>
          <note pos="312" pan="0" len="12" key="48" vol="100"/>
          <note pos="324" pan="0" len="12" key="50" vol="100"/>
          <note pos="336" pan="0" len="12" key="51" vol="100"/>
          <note pos="348" pan="0" len="12" key="53" vol="100"/>
          <note pos="360" pan="0" len="12" key="53" vol="100"/>
          <note pos="372" pan="0" len="12" key="51" vol="100"/>
          <note pos="384" pan="0" len="12" key="50" vol="100"/>
          <note pos="396" pan="0" len="12" key="60" vol="100"/>
          <note pos="420" pan="0" len="24" key="60" vol="100"/>
          <note pos="444" pan="0" len="12" key="59" vol="100"/>
          <note pos="456" pan="0" len="12" key="57" vol="100"/>
          <note pos="456" pan="0" len="12" key="48" vol="100"/>
          <note pos="468" pan="0" len="12" key="59" vol="100"/>
          <note pos="480" pan="0" len="12" key="50" vol="100"/>
          <note pos="492" pan="0" len="12" key="60" vol="100"/>
          <note pos="516" pan="0" len="24" key="60" vol="100"/>
          <note pos="540" pan="0" len="12" key="59" vol="100"/>
          <note pos="552" pan="0" len="12" key="57" vol="100"/>
          <note pos="552" pan="0" len="12" key="48" vol="100"/>
          <note pos="564" pan="0" len="12" key="59" vol="100"/>
          <note pos="576" pan="0" len="12" key="50" vol="100"/>
          <note pos="588" pan="0" len="12" key="60" vol="100"/>
          <note pos="612" pan="0" len="24" key="60" vol="100"/>
          <note pos="636" pan="0" len="12" key="59" vol="100"/>
          <note pos="648" pan="0" len="12" key="57" vol="100"/>
          <note pos="648" pan="0" len="12" key="48" vol="100"/>
          <note pos="660" pan="0" len="12" key="59" vol="100"/>
          <note pos="672" pan="0" len="12" key="50" vol="100"/>
          <note pos="684" pan="0" len="12" key="60" vol="100"/>
          <note pos="684" pan="0" len="12" key="48" vol="100"/>
          <note pos="696" pan="0" len="12" key="48" vol="100"/>
          <note pos="708" pan="0" len="12" key="50" vol="100"/>
          <note pos="720" pan="0" len="12" key="51" vol="100"/>
          <note pos="732" pan="0" len="12" key="53" vol="100"/>
          <note pos="744" pan="0" len="12" key="53" vol="100"/>
          <note pos="756" pan="0" len="12" key="51" vol="100"/>
          <note pos="768" pan="0" len="12" key="49" vol="100"/>
          <note pos="780" pan="0" len="12" key="52" vol="100"/>
          <note pos="804" pan="0" len="24" key="52" vol="100"/>
          <note pos="828" pan="0" len="12" key="51" vol="100"/>
          <note pos="840" pan="0" len="12" key="51" vol="100"/>
          <note pos="852" pan="0" len="12" key="49" vol="100"/>
          <note pos="864" pan="0" len="12" key="49" vol="100"/>
          <note pos="876" pan="0" len="12" key="52" vol="100"/>
          <note pos="900" pan="0" len="24" key="52" vol="100"/>
          <note pos="924" pan="0" len="12" key="51" vol="100"/>
          <note pos="936" pan="0" len="12" key="51" vol="100"/>
          <note pos="948" pan="0" len="12" key="49" vol="100"/>
          <note pos="960" pan="0" len="12" key="49" vol="100"/>
          <note pos="972" pan="0" len="12" key="52" vol="100"/>
          <note pos="996" pan="0" len="24" key="52" vol="100"/>
          <note pos="1020" pan="0" len="12" key="51" vol="100"/>
          <note pos="1032" pan="0" len="12" key="51" vol="100"/>
          <note pos="1044" pan="0" len="12" key="49" vol="100"/>
          <note pos="1056" pan="0" len="12" key="49" vol="100"/>
          <note pos="1068" pan="0" len="12" key="52" vol="100"/>
          <note pos="1080" pan="0" len="12" key="49" vol="100"/>
          <note pos="1092" pan="0" len="12" key="51" vol="100"/>
          <note pos="1104" pan="0" len="12" key="52" vol="100"/>
          <note pos="1116" pan="0" len="12" key="52" vol="100"/>
          <note pos="1128" pan="0" len="12" key="51" vol="100"/>
          <note pos="1140" pan="0" len="12" key="50" vol="100"/>
          <note pos="1152" pan="0" len="12" key="49" vol="100"/>
          <note pos="1164" pan="0" len="12" key="52" vol="100"/>
          <note pos="1188" pan="0" len="24" key="52" vol="100"/>
          <note pos="1212" pan="0" len="12" key="51" vol="100"/>
          <note pos="1224" pan="0" len="12" key="51" vol="100"/>
          <note pos="1236" pan="0" len="12" key="49" vol="100"/>
          <note pos="1248" pan="0" len="12" key="49" vol="100"/>
          <note pos="1260" pan="0" len="12" key="52" vol="100"/>
          <note pos="1284" pan="0" len="24" key="52" vol="100"/>
          <note pos="1308" pan="0" len="12" key="51" vol="100"/>
          <note pos="1320" pan="0" len="12" key="51" vol="100"/>
          <note pos="1332" pan="0" len="12" key="49" vol="100"/>
          <note pos="1344" pan="0" len="12" key="49" vol="100"/>
          <note pos="1356" pan="0" len="12" key="52" vol="100"/>
          <note pos="1380" pan="0" len="24" key="52" vol="100"/>
          <note pos="1404" pan="0" len="12" key="51" vol="100"/>
          <note pos="1416" pan="0" len="12" key="51" vol="100"/>
          <note pos="1428" pan="0" len="12" key="49" vol="100"/>
          <note pos="1440" pan="0" len="12" key="49" vol="100"/>
          <note pos="1452" pan="0" len="12" key="52" vol="100"/>
          <note pos="1464" pan="0" len="12" key="49" vol="100"/>
          <note pos="1476" pan="0" len="12" key="51" vol="100"/>
          <note pos="1488" pan="0" len="12" key="52" vol="100"/>
          <note pos="1500" pan="0" len="12" key="52" vol="100"/>
          <note pos="1512" pan="0" len="12" key="51" vol="100"/>
          <note pos="1524" pan="0" len="12" key="50" vol="100"/>
        </pattern>
        <pattern muted="0" pos="15360" name="" type="1" steps="16">
          <note pos="0" pan="0" len="12" key="50" vol="100"/>
          <note pos="12" pan="0" len="12" key="60" vol="100"/>
          <note pos="36" pan="0" len="24" key="60" vol="100"/>
          <note pos="60" pan="0" len="12" key="59" vol="100"/>
          <note pos="72" pan="0" len="12" key="57" vol="100"/>
          <note pos="72" pan="0" len="12" key="48" vol="100"/>
          <note pos="84" pan="0" len="12" key="59" vol="100"/>
          <note pos="96" pan="0" len="12" key="50" vol="100"/>
          <note pos="108" pan="0" len="12" key="60" vol="100"/>
          <note pos="132" pan="0" len="24" key="60" vol="100"/>
          <note pos="156" pan="0" len="12" key="59" vol="100"/>
          <note pos="168" pan="0" len="12" key="57" vol="100"/>
          <note pos="168" pan="0" len="12" key="48" vol="100"/>
          <note pos="180" pan="0" len="12" key="59" vol="100"/>
          <note pos="192" pan="0" len="12" key="50" vol="100"/>
          <note pos="204" pan="0" len="12" key="60" vol="100"/>
          <note pos="228" pan="0" len="24" key="60" vol="100"/>
          <note pos="252" pan="0" len="12" key="59" vol="100"/>
          <note pos="264" pan="0" len="12" key="57" vol="100"/>
          <note pos="264" pan="0" len="12" key="48" vol="100"/>
          <note pos="276" pan="0" len="12" key="59" vol="100"/>
          <note pos="288" pan="0" len="12" key="50" vol="100"/>
          <note pos="300" pan="0" len="12" key="60" vol="100"/>
          <note pos="300" pan="0" len="12" key="48" vol="100"/>
          <note pos="312" pan="0" len="12" key="48" vol="100"/>
          <note pos="324" pan="0" len="12" key="50" vol="100"/>
          <note pos="336" pan="0" len="12" key="51" vol="100"/>
          <note pos="348" pan="0" len="12" key="53" vol="100"/>
          <note pos="360" pan="0" len="12" key="53" vol="100"/>
          <note pos="372" pan="0" len="12" key="51" vol="100"/>
          <note pos="384" pan="0" len="12" key="50" vol="100"/>
          <note pos="396" pan="0" len="12" key="60" vol="100"/>
          <note pos="420" pan="0" len="24" key="60" vol="100"/>
          <note pos="444" pan="0" len="12" key="59" vol="100"/>
          <note pos="456" pan="0" len="12" key="57" vol="100"/>
          <note pos="456" pan="0" len="12" key="48" vol="100"/>
          <note pos="468" pan="0" len="12" key="59" vol="100"/>
          <note pos="480" pan="0" len="12" key="50" vol="100"/>
          <note pos="492" pan="0" len="12" key="60" vol="100"/>
          <note pos="516" pan="0" len="24" key="60" vol="100"/>
          <note pos="540" pan="0" len="12" key="59" vol="100"/>
          <note pos="552" pan="0" len="12" key="57" vol="100"/>
          <note pos="552" pan="0" len="12" key="48" vol="100"/>
          <note pos="564" pan="0" len="12" key="59" vol="100"/>
          <note pos="576" pan="0" len="12" key="50" vol="100"/>
          <note pos="588" pan="0" len="12" key="60" vol="100"/>
          <note pos="612" pan="0" len="24" key="60" vol="100"/>
          <note pos="636" pan="0" len="12" key="59" vol="100"/>
          <note pos="648" pan="0" len="12" key="57" vol="100"/>
          <note pos="648" pan="0" len="12" key="48" vol="100"/>
          <note pos="660" pan="0" len="12" key="59" vol="100"/>
          <note pos="672" pan="0" len="12" key="50" vol="100"/>
          <note pos="684" pan="0" len="12" key="60" vol="100"/>
          <note pos="684" pan="0" len="12" key="48" vol="100"/>
          <note pos="696" pan="0" len="12" key="48" vol="100"/>
          <note pos="708" pan="0" len="12" key="50" vol="100"/>
          <note pos="720" pan="0" len="12" key="51" vol="100"/>
          <note pos="732" pan="0" len="12" key="53" vol="100"/>
          <note pos="744" pan="0" len="12" key="53" vol="100"/>
          <note pos="756" pan="0" len="12" key="51" vol="100"/>
          <note pos="768" pan="0" len="12" key="49" vol="100"/>
          <note pos="780" pan="0" len="12" key="52" vol="100"/>
          <note pos="804" pan="0" len="24" key="52" vol="100"/>
          <note pos="828" pan="0" len="12" key="51" vol="100"/>
          <note pos="840" pan="0" len="12" key="51" vol="100"/>
          <note pos="852" pan="0" len="12" key="49" vol="100"/>
          <note pos="864" pan="0" len="12" key="49" vol="100"/>
          <note pos="876" pan="0" len="12" key="52" vol="100"/>
          <note pos="900" pan="0" len="24" key="52" vol="100"/>
          <note pos="924" pan="0" len="12" key="51" vol="100"/>
          <note pos="936" pan="0" len="12" key="51" vol="100"/>
          <note pos="948" pan="0" len="12" key="49" vol="100"/>
          <note pos="960" pan="0" len="12" key="49" vol="100"/>
          <note pos="972" pan="0" len="12" key="52" vol="100"/>
          <note pos="996" pan="0" len="24" key="52" vol="100"/>
          <note pos="1020" pan="0" len="12" key="51" vol="100"/>
          <note pos="1032" pan="0" len="12" key="51" vol="100"/>
          <note pos="1044" pan="0" len="12" key="49" vol="100"/>
          <note pos="1056" pan="0" len="12" key="49" vol="100"/>
          <note pos="1068" pan="0" len="12" key="52" vol="100"/>
          <note pos="1080" pan="0" len="12" key="49" vol="100"/>
          <note pos="1092" pan="0" len="12" key="51" vol="100"/>
          <note pos="1104" pan="0" len="12" key="52" vol="100"/>
          <note pos="1116" pan="0" len="12" key="52" vol="100"/>
          <note pos="1128" pan="0" len="12" key="51" vol="100"/>
          <note pos="1140" pan="0" len="12" key="50" vol="100"/>
          <note pos="1152" pan="0" len="12" key="49" vol="100"/>
          <note pos="1164" pan="0" len="12" key="52" vol="100"/>
          <note pos="1188" pan="0" len="24" key="52" vol="100"/>
          <note pos="1212" pan="0" len="12" key="51" vol="100"/>
          <note pos="1224" pan="0" len="12" key="51" vol="100"/>
          <note pos="1236" pan="0" len="12" key="49" vol="100"/>
          <note pos="1248" pan="0" len="12" key="49" vol="100"/>
          <note pos="1260" pan="0" len="12" key="52" vol="100"/>
          <note pos="1284" pan="0" len="24" key="52" vol="100"/>
          <note pos="1308" pan="0" len="12" key="51" vol="100"/>
          <note pos="1320" pan="0" len="12" key="51" vol="100"/>
          <note pos="1332" pan="0" len="12" key="49" vol="100"/>
          <note pos="1344" pan="0" len="12" key="49" vol="100"/>
          <note pos="1356" pan="0" len="12" key="52" vol="100"/>
          <note pos="1380" pan="0" len="24" key="52" vol="100"/>
          <note pos="1404" pan="0" len="12" key="51" vol="100"/>
          <note pos="1416" pan="0" len="12" key="51" vol="100"/>
          <note pos="1428" pan="0" len="12" key="49" vol="100"/>
          <note pos="1440" pan="0" len="12" key="49" vol="100"/>
          <note pos="1452" pan="0" len="12" key="52" vol="100"/>
          <note pos="1464" pan="0" len="12" key="49" vol="100"/>
          <note pos="1476" pan="0" len="12" key="51" vol="100"/>
          <note pos="1488" pan="0" len="12" key="52" vol="100"/>
          <note pos="1500" pan="0" len="12" key="52" vol="100"/>
          <note pos="1512" pan="0" len="12" key="51" vol="100"/>
          <note pos="1524" pan="0" len="12" key="50" vol="100"/>
        </pattern>
        <pattern muted="0" pos="16896" name="" type="1" steps="16">
          <note pos="0" pan="0" len="12" key="50" vol="100"/>
          <note pos="12" pan="0" len="12" key="60" vol="100"/>
          <note pos="36" pan="0" len="24" key="60" vol="100"/>
          <note pos="60" pan="0" len="12" key="59" vol="100"/>
          <note pos="72" pan="0" len="12" key="57" vol="100"/>
          <note pos="72" pan="0" len="12" key="48" vol="100"/>
          <note pos="84" pan="0" len="12" key="59" vol="100"/>
          <note pos="96" pan="0" len="12" key="50" vol="100"/>
          <note pos="108" pan="0" len="12" key="60" vol="100"/>
          <note pos="132" pan="0" len="24" key="60" vol="100"/>
          <note pos="156" pan="0" len="12" key="59" vol="100"/>
          <note pos="168" pan="0" len="12" key="57" vol="100"/>
          <note pos="168" pan="0" len="12" key="48" vol="100"/>
          <note pos="180" pan="0" len="12" key="59" vol="100"/>
          <note pos="192" pan="0" len="12" key="50" vol="100"/>
          <note pos="204" pan="0" len="12" key="60" vol="100"/>
          <note pos="228" pan="0" len="24" key="60" vol="100"/>
          <note pos="252" pan="0" len="12" key="59" vol="100"/>
          <note pos="264" pan="0" len="12" key="57" vol="100"/>
          <note pos="264" pan="0" len="12" key="48" vol="100"/>
          <note pos="276" pan="0" len="12" key="59" vol="100"/>
          <note pos="288" pan="0" len="12" key="50" vol="100"/>
          <note pos="300" pan="0" len="12" key="60" vol="100"/>
          <note pos="300" pan="0" len="12" key="48" vol="100"/>
          <note pos="312" pan="0" len="12" key="48" vol="100"/>
          <note pos="324" pan="0" len="12" key="50" vol="100"/>
          <note pos="336" pan="0" len="12" key="51" vol="100"/>
          <note pos="348" pan="0" len="12" key="53" vol="100"/>
          <note pos="360" pan="0" len="12" key="53" vol="100"/>
          <note pos="372" pan="0" len="12" key="51" vol="100"/>
          <note pos="384" pan="0" len="12" key="50" vol="100"/>
          <note pos="396" pan="0" len="12" key="60" vol="100"/>
          <note pos="420" pan="0" len="24" key="60" vol="100"/>
          <note pos="444" pan="0" len="12" key="59" vol="100"/>
          <note pos="456" pan="0" len="12" key="57" vol="100"/>
          <note pos="456" pan="0" len="12" key="48" vol="100"/>
          <note pos="468" pan="0" len="12" key="59" vol="100"/>
          <note pos="480" pan="0" len="12" key="50" vol="100"/>
          <note pos="492" pan="0" len="12" key="60" vol="100"/>
          <note pos="516" pan="0" len="24" key="60" vol="100"/>
          <note pos="540" pan="0" len="12" key="59" vol="100"/>
          <note pos="552" pan="0" len="12" key="57" vol="100"/>
          <note pos="552" pan="0" len="12" key="48" vol="100"/>
          <note pos="564" pan="0" len="12" key="59" vol="100"/>
          <note pos="576" pan="0" len="12" key="50" vol="100"/>
          <note pos="588" pan="0" len="12" key="60" vol="100"/>
          <note pos="612" pan="0" len="24" key="60" vol="100"/>
          <note pos="636" pan="0" len="12" key="59" vol="100"/>
          <note pos="648" pan="0" len="12" key="57" vol="100"/>
          <note pos="648" pan="0" len="12" key="48" vol="100"/>
          <note pos="660" pan="0" len="12" key="59" vol="100"/>
          <note pos="672" pan="0" len="12" key="50" vol="100"/>
          <note pos="684" pan="0" len="12" key="60" vol="100"/>
          <note pos="684" pan="0" len="12" key="48" vol="100"/>
          <note pos="696" pan="0" len="12" key="48" vol="100"/>
          <note pos="708" pan="0" len="12" key="50" vol="100"/>
          <note pos="720" pan="0" len="12" key="51" vol="100"/>
          <note pos="732" pan="0" len="12" key="53" vol="100"/>
          <note pos="744" pan="0" len="12" key="53" vol="100"/>
          <note pos="756" pan="0" len="12" key="51" vol="100"/>
          <note pos="768" pan="0" len="12" key="49" vol="100"/>
          <note pos="780" pan="0" len="12" key="52" vol="100"/>
          <note pos="804" pan="0" len="24" key="52" vol="100"/>
          <note pos="828" pan="0" len="12" key="51" vol="100"/>
          <note pos="840" pan="0" len="12" key="51" vol="100"/>
          <note pos="852" pan="0" len="12" key="49" vol="100"/>
          <note pos="864" pan="0" len="12" key="49" vol="100"/>
          <note pos="876" pan="0" len="12" key="52" vol="100"/>
          <note pos="900" pan="0" len="24" key="52" vol="100"/>
          <note pos="924" pan="0" len="12" key="51" vol="100"/>
          <note pos="936" pan="0" len="12" key="51" vol="100"/>
          <note pos="948" pan="0" len="12" key="49" vol="100"/>
          <note pos="960" pan="0" len="12" key="49" vol="100"/>
          <note pos="972" pan="0" len="12" key="52" vol="100"/>
          <note pos="996" pan="0" len="24" key="52" vol="100"/>
          <note pos="1020" pan="0" len="12" key="51" vol="100"/>
          <note pos="1032" pan="0" len="12" key="51" vol="100"/>
          <note pos="1044" pan="0" len="12" key="49" vol="100"/>
          <note pos="1056" pan="0" len="12" key="49" vol="100"/>
          <note pos="1068" pan="0" len="12" key="52" vol="100"/>
          <note pos="1080" pan="0" len="12" key="49" vol="100"/>
          <note pos="1092" pan="0" len="12" key="51" vol="100"/>
          <note pos="1104" pan="0" len="12" key="52" vol="100"/>
          <note pos="1116" pan="0" len="12" key="52" vol="100"/>
          <note pos="1128" pan="0" len="12" key="51" vol="100"/>
          <note pos="1140" pan="0" len="12" key="50" vol="100"/>
          <note pos="1152" pan="0" len="12" key="49" vol="100"/>
          <note pos="1164" pan="0" len="12" key="52" vol="100"/>
          <note pos="1188" pan="0" len="24" key="52" vol="100"/>
          <note pos="1212" pan="0" len="12" key="51" vol="100"/>
          <note pos="1224" pan="0" len="12" key="51" vol="100"/>
          <note pos="1236" pan="0" len="12" key="49" vol="100"/>
          <note pos="1248" pan="0" len="12" key="49" vol="100"/>
          <note pos="1260" pan="0" len="12" key="52" vol="100"/>
          <note pos="1284" pan="0" len="24" key="52" vol="100"/>
          <note pos="1308" pan="0" len="12" key="51" vol="100"/>
          <note pos="1320" pan="0" len="12" key="51" vol="100"/>
          <note pos="1332" pan="0" len="12" key="49" vol="100"/>
          <note pos="1344" pan="0" len="12" key="49" vol="100"/>
          <note pos="1356" pan="0" len="12" key="52" vol="100"/>
          <note pos="1380" pan="0" len="24" key="52" vol="100"/>
          <note pos="1404" pan="0" len="12" key="51" vol="100"/>
          <note pos="1416" pan="0" len="12" key="51" vol="100"/>
          <note pos="1428" pan="0" len="12" key="49" vol="100"/>
          <note pos="1440" pan="0" len="12" key="49" vol="100"/>
          <note pos="1452" pan="0" len="12" key="52" vol="100"/>
          <note pos="1464" pan="0" len="12" key="49" vol="100"/>
          <note pos="1476" pan="0" len="12" key="51" vol="100"/>
          <note pos="1488" pan="0" len="12" key="52" vol="100"/>
          <note pos="1500" pan="0" len="12" key="52" vol="100"/>
          <note pos="1512" pan="0" len="12" key="51" vol="100"/>
          <note pos="1524" pan="0" len="12" key="50" vol="100"/>
        </pattern>
      </track>
      <track muted="0" solo="0" name="DoublePadBass" type="0">
        <instrumenttrack fxch="2" pitch="0" pan="0" vol="60" usemasterpitch="1" pitchrange="1" basenote="57">
          <instrument name="zynaddsubfx">
            <zynaddsubfx filterfreq="64" resbandwidth="64" portamento="0" modifiedcontrollers="" forwardmidicc="1" filterq="64" rescenterfreq="64" bandwidth="64" fmgain="127">
              <ZynAddSubFX-data version-revision="1" version-minor="4" version-major="2" ZynAddSubFX-author="Nasca Octavian Paul">
                <INFORMATION>
                  <par_bool value="yes" name="PADsynth_used"/>
                  <par_bool value="yes" name="PADsynth_used"/>
                </INFORMATION>
                <BASE_PARAMETERS>
                  <par value="16" name="max_midi_parts"/>
                  <par value="16" name="max_kit_items_per_instrument"/>
                  <par value="4" name="max_system_effects"/>
                  <par value="8" name="max_insertion_effects"/>
                  <par value="3" name="max_instrument_effects"/>
                  <par value="8" name="max_addsynth_voices"/>
                </BASE_PARAMETERS>
                <MASTER>
                  <par value="80" name="volume"/>
                  <par value="64" name="key_shift"/>
                  <par_bool value="yes" name="nrpn_receive"/>
                  <MICROTONAL>
                    <string name="name">12tET</string>
                    <string name="comment">Equal Temperament 12 notes per octave</string>
                    <par_bool value="no" name="invert_up_down"/>
                    <par value="60" name="invert_up_down_center"/>
                    <par_bool value="no" name="enabled"/>
                    <par value="64" name="global_fine_detune"/>
                    <par value="69" name="a_note"/>
                    <par_real value="440.000000" name="a_freq"/>
                  </MICROTONAL>
                  <PART id="0">
                    <par_bool value="yes" name="enabled"/>
                    <par value="96" name="volume"/>
                    <par value="64" name="panning"/>
                    <par value="0" name="min_key"/>
                    <par value="127" name="max_key"/>
                    <par value="64" name="key_shift"/>
                    <par value="0" name="rcv_chn"/>
                    <par value="64" name="velocity_sensing"/>
                    <par value="64" name="velocity_offset"/>
                    <par_bool value="yes" name="note_on"/>
                    <par_bool value="yes" name="poly_mode"/>
                    <par value="0" name="legato_mode"/>
                    <par value="15" name="key_limit"/>
                    <INSTRUMENT>
                      <INFO>
                        <string name="name">DoublePadBass</string>
                        <string name="author">laba170</string>
                        <string name="comments">Fat bass, made with two pad-synths.
(kit-edit)</string>
                        <par value="0" name="type"/>
                      </INFO>
                      <INSTRUMENT_KIT>
                        <par value="1" name="kit_mode"/>
                        <par_bool value="no" name="drum_mode"/>
                        <INSTRUMENT_KIT_ITEM id="0">
                          <par_bool value="yes" name="enabled"/>
                          <string name="name"/>
                          <par_bool value="no" name="muted"/>
                          <par value="0" name="min_key"/>
                          <par value="127" name="max_key"/>
                          <par value="0" name="send_to_instrument_effect"/>
                          <par_bool value="no" name="add_enabled"/>
                          <par_bool value="no" name="sub_enabled"/>
                          <par_bool value="yes" name="pad_enabled"/>
                          <PAD_SYNTH_PARAMETERS>
                            <par_bool value="yes" name="stereo"/>
                            <par value="0" name="mode"/>
                            <par value="0" name="bandwidth"/>
                            <par value="0" name="bandwidth_scale"/>
                            <HARMONIC_PROFILE>
                              <par value="1" name="base_type"/>
                              <par value="4" name="base_par1"/>
                              <par value="17" name="frequency_multiplier"/>
                              <par value="0" name="modulator_par1"/>
                              <par value="30" name="modulator_frequency"/>
                              <par value="127" name="width"/>
                              <par value="2" name="amplitude_multiplier_type"/>
                              <par value="0" name="amplitude_multiplier_mode"/>
                              <par value="34" name="amplitude_multiplier_par1"/>
                              <par value="64" name="amplitude_multiplier_par2"/>
                              <par_bool value="yes" name="autoscale"/>
                              <par value="0" name="one_half"/>
                            </HARMONIC_PROFILE>
                            <OSCIL>
                              <par value="0" name="harmonic_mag_type"/>
                              <par value="2" name="base_function"/>
                              <par value="64" name="base_function_par"/>
                              <par value="0" name="base_function_modulation"/>
                              <par value="64" name="base_function_modulation_par1"/>
                              <par value="64" name="base_function_modulation_par2"/>
                              <par value="32" name="base_function_modulation_par3"/>
                              <par value="0" name="modulation"/>
                              <par value="64" name="modulation_par1"/>
                              <par value="64" name="modulation_par2"/>
                              <par value="32" name="modulation_par3"/>
                              <par value="64" name="wave_shaping"/>
                              <par value="0" name="wave_shaping_function"/>
                              <par value="1" name="filter_type"/>
                              <par value="104" name="filter_par1"/>
                              <par value="64" name="filter_par2"/>
                              <par value="0" name="filter_before_wave_shaping"/>
                              <par value="0" name="spectrum_adjust_type"/>
                              <par value="64" name="spectrum_adjust_par"/>
                              <par value="127" name="rand"/>
                              <par value="0" name="amp_rand_type"/>
                              <par value="64" name="amp_rand_power"/>
                              <par value="0" name="harmonic_shift"/>
                              <par_bool value="no" name="harmonic_shift_first"/>
                              <par value="0" name="adaptive_harmonics"/>
                              <par value="128" name="adaptive_harmonics_base_frequency"/>
                              <par value="100" name="adaptive_harmonics_power"/>
                              <HARMONICS>
                                <HARMONIC id="1">
                                  <par value="127" name="mag"/>
                                  <par value="64" name="phase"/>
                                </HARMONIC>
                                <HARMONIC id="2">
                                  <par value="107" name="mag"/>
                                  <par value="64" name="phase"/>
                                </HARMONIC>
                              </HARMONICS>
                            </OSCIL>
                            <RESONANCE>
                              <par_bool value="no" name="enabled"/>
                            </RESONANCE>
                            <HARMONIC_POSITION>
                              <par value="0" name="type"/>
                              <par value="64" name="parameter1"/>
                              <par value="64" name="parameter2"/>
                              <par value="0" name="parameter3"/>
                            </HARMONIC_POSITION>
                            <SAMPLE_QUALITY>
                              <par value="3" name="samplesize"/>
                              <par value="6" name="basenote"/>
                              <par value="3" name="octaves"/>
                              <par value="2" name="samples_per_octave"/>
                            </SAMPLE_QUALITY>
                            <AMPLITUDE_PARAMETERS>
                              <par value="110" name="volume"/>
                              <par value="64" name="panning"/>
                              <par value="64" name="velocity_sensing"/>
                              <par value="0" name="punch_strength"/>
                              <par value="60" name="punch_time"/>
                              <par value="64" name="punch_stretch"/>
                              <par value="72" name="punch_velocity_sensing"/>
                              <AMPLITUDE_ENVELOPE>
                                <par_bool value="no" name="free_mode"/>
                                <par value="4" name="env_points"/>
                                <par value="2" name="env_sustain"/>
                                <par value="0" name="env_stretch"/>
                                <par_bool value="yes" name="forced_release"/>
                                <par_bool value="no" name="linear_envelope"/>
                                <par value="10" name="A_dt"/>
                                <par value="70" name="D_dt"/>
                                <par value="0" name="R_dt"/>
                                <par value="64" name="A_val"/>
                                <par value="64" name="D_val"/>
                                <par value="103" name="S_val"/>
                                <par value="64" name="R_val"/>
                              </AMPLITUDE_ENVELOPE>
                              <AMPLITUDE_LFO>
                                <par_real value="0.629921" name="freq"/>
                                <par value="0" name="intensity"/>
                                <par value="64" name="start_phase"/>
                                <par value="0" name="lfo_type"/>
                                <par value="0" name="randomness_amplitude"/>
                                <par value="0" name="randomness_frequency"/>
                                <par value="0" name="delay"/>
                                <par value="64" name="stretch"/>
                                <par_bool value="no" name="continous"/>
                              </AMPLITUDE_LFO>
                            </AMPLITUDE_PARAMETERS>
                            <FREQUENCY_PARAMETERS>
                              <par value="0" name="fixed_freq"/>
                              <par value="0" name="fixed_freq_et"/>
                              <par value="8192" name="detune"/>
                              <par value="15360" name="coarse_detune"/>
                              <par value="1" name="detune_type"/>
                              <FREQUENCY_ENVELOPE>
                                <par_bool value="no" name="free_mode"/>
                                <par value="3" name="env_points"/>
                                <par value="1" name="env_sustain"/>
                                <par value="0" name="env_stretch"/>
                                <par_bool value="no" name="forced_release"/>
                                <par_bool value="no" name="linear_envelope"/>
                                <par value="50" name="A_dt"/>
                                <par value="10" name="D_dt"/>
                                <par value="60" name="R_dt"/>
                                <par value="64" name="A_val"/>
                                <par value="64" name="D_val"/>
                                <par value="64" name="S_val"/>
                                <par value="64" name="R_val"/>
                              </FREQUENCY_ENVELOPE>
                              <FREQUENCY_LFO>
                                <par_real value="0.711181" name="freq"/>
                                <par value="20" name="intensity"/>
                                <par value="64" name="start_phase"/>
                                <par value="0" name="lfo_type"/>
                                <par value="0" name="randomness_amplitude"/>
                                <par value="0" name="randomness_frequency"/>
                                <par value="0" name="delay"/>
                                <par value="64" name="stretch"/>
                                <par_bool value="no" name="continous"/>
                              </FREQUENCY_LFO>
                            </FREQUENCY_PARAMETERS>
                            <FILTER_PARAMETERS>
                              <par value="64" name="velocity_sensing_amplitude"/>
                              <par value="64" name="velocity_sensing"/>
                              <FILTER>
                                <par value="0" name="category"/>
                                <par value="2" name="type"/>
                                <par value="12" name="freq"/>
                                <par value="45" name="q"/>
                                <par value="0" name="stages"/>
                                <par value="64" name="freq_track"/>
                                <par value="64" name="gain"/>
                              </FILTER>
                              <FILTER_ENVELOPE>
                                <par_bool value="no" name="free_mode"/>
                                <par value="4" name="env_points"/>
                                <par value="2" name="env_sustain"/>
                                <par value="0" name="env_stretch"/>
                                <par_bool value="yes" name="forced_release"/>
                                <par_bool value="no" name="linear_envelope"/>
                                <par value="50" name="A_dt"/>
                                <par value="70" name="D_dt"/>
                                <par value="60" name="R_dt"/>
                                <par value="103" name="A_val"/>
                                <par value="76" name="D_val"/>
                                <par value="64" name="S_val"/>
                                <par value="64" name="R_val"/>
                              </FILTER_ENVELOPE>
                              <FILTER_LFO>
                                <par_real value="0.629921" name="freq"/>
                                <par value="0" name="intensity"/>
                                <par value="64" name="start_phase"/>
                                <par value="0" name="lfo_type"/>
                                <par value="0" name="randomness_amplitude"/>
                                <par value="0" name="randomness_frequency"/>
                                <par value="0" name="delay"/>
                                <par value="64" name="stretch"/>
                                <par_bool value="no" name="continous"/>
                              </FILTER_LFO>
                            </FILTER_PARAMETERS>
                          </PAD_SYNTH_PARAMETERS>
                        </INSTRUMENT_KIT_ITEM>
                        <INSTRUMENT_KIT_ITEM id="1">
                          <par_bool value="yes" name="enabled"/>
                          <string name="name"/>
                          <par_bool value="no" name="muted"/>
                          <par value="0" name="min_key"/>
                          <par value="127" name="max_key"/>
                          <par value="0" name="send_to_instrument_effect"/>
                          <par_bool value="no" name="add_enabled"/>
                          <par_bool value="no" name="sub_enabled"/>
                          <par_bool value="yes" name="pad_enabled"/>
                          <PAD_SYNTH_PARAMETERS>
                            <par_bool value="yes" name="stereo"/>
                            <par value="0" name="mode"/>
                            <par value="500" name="bandwidth"/>
                            <par value="0" name="bandwidth_scale"/>
                            <HARMONIC_PROFILE>
                              <par value="0" name="base_type"/>
                              <par value="84" name="base_par1"/>
                              <par value="0" name="frequency_multiplier"/>
                              <par value="0" name="modulator_par1"/>
                              <par value="30" name="modulator_frequency"/>
                              <par value="127" name="width"/>
                              <par value="0" name="amplitude_multiplier_type"/>
                              <par value="0" name="amplitude_multiplier_mode"/>
                              <par value="80" name="amplitude_multiplier_par1"/>
                              <par value="64" name="amplitude_multiplier_par2"/>
                              <par_bool value="no" name="autoscale"/>
                              <par value="0" name="one_half"/>
                            </HARMONIC_PROFILE>
                            <OSCIL>
                              <par value="0" name="harmonic_mag_type"/>
                              <par value="0" name="base_function"/>
                              <par value="64" name="base_function_par"/>
                              <par value="0" name="base_function_modulation"/>
                              <par value="64" name="base_function_modulation_par1"/>
                              <par value="64" name="base_function_modulation_par2"/>
                              <par value="32" name="base_function_modulation_par3"/>
                              <par value="0" name="modulation"/>
                              <par value="64" name="modulation_par1"/>
                              <par value="64" name="modulation_par2"/>
                              <par value="32" name="modulation_par3"/>
                              <par value="64" name="wave_shaping"/>
                              <par value="0" name="wave_shaping_function"/>
                              <par value="0" name="filter_type"/>
                              <par value="64" name="filter_par1"/>
                              <par value="64" name="filter_par2"/>
                              <par value="0" name="filter_before_wave_shaping"/>
                              <par value="0" name="spectrum_adjust_type"/>
                              <par value="64" name="spectrum_adjust_par"/>
                              <par value="127" name="rand"/>
                              <par value="0" name="amp_rand_type"/>
                              <par value="64" name="amp_rand_power"/>
                              <par value="0" name="harmonic_shift"/>
                              <par_bool value="no" name="harmonic_shift_first"/>
                              <par value="0" name="adaptive_harmonics"/>
                              <par value="128" name="adaptive_harmonics_base_frequency"/>
                              <par value="100" name="adaptive_harmonics_power"/>
                              <HARMONICS>
                                <HARMONIC id="1">
                                  <par value="127" name="mag"/>
                                  <par value="64" name="phase"/>
                                </HARMONIC>
                              </HARMONICS>
                            </OSCIL>
                            <RESONANCE>
                              <par_bool value="no" name="enabled"/>
                            </RESONANCE>
                            <HARMONIC_POSITION>
                              <par value="0" name="type"/>
                              <par value="64" name="parameter1"/>
                              <par value="64" name="parameter2"/>
                              <par value="0" name="parameter3"/>
                            </HARMONIC_POSITION>
                            <SAMPLE_QUALITY>
                              <par value="3" name="samplesize"/>
                              <par value="4" name="basenote"/>
                              <par value="3" name="octaves"/>
                              <par value="2" name="samples_per_octave"/>
                            </SAMPLE_QUALITY>
                            <AMPLITUDE_PARAMETERS>
                              <par value="99" name="volume"/>
                              <par value="64" name="panning"/>
                              <par value="64" name="velocity_sensing"/>
                              <par value="0" name="punch_strength"/>
                              <par value="60" name="punch_time"/>
                              <par value="64" name="punch_stretch"/>
                              <par value="72" name="punch_velocity_sensing"/>
                              <AMPLITUDE_ENVELOPE>
                                <par_bool value="no" name="free_mode"/>
                                <par value="4" name="env_points"/>
                                <par value="2" name="env_sustain"/>
                                <par value="64" name="env_stretch"/>
                                <par_bool value="yes" name="forced_release"/>
                                <par_bool value="no" name="linear_envelope"/>
                                <par value="0" name="A_dt"/>
                                <par value="40" name="D_dt"/>
                                <par value="25" name="R_dt"/>
                                <par value="64" name="A_val"/>
                                <par value="64" name="D_val"/>
                                <par value="127" name="S_val"/>
                                <par value="64" name="R_val"/>
                              </AMPLITUDE_ENVELOPE>
                              <AMPLITUDE_LFO>
                                <par_real value="0.629921" name="freq"/>
                                <par value="0" name="intensity"/>
                                <par value="64" name="start_phase"/>
                                <par value="0" name="lfo_type"/>
                                <par value="0" name="randomness_amplitude"/>
                                <par value="0" name="randomness_frequency"/>
                                <par value="0" name="delay"/>
                                <par value="64" name="stretch"/>
                                <par_bool value="no" name="continous"/>
                              </AMPLITUDE_LFO>
                            </AMPLITUDE_PARAMETERS>
                            <FREQUENCY_PARAMETERS>
                              <par value="0" name="fixed_freq"/>
                              <par value="0" name="fixed_freq_et"/>
                              <par value="8192" name="detune"/>
                              <par value="15360" name="coarse_detune"/>
                              <par value="1" name="detune_type"/>
                              <FREQUENCY_ENVELOPE>
                                <par_bool value="no" name="free_mode"/>
                                <par value="3" name="env_points"/>
                                <par value="1" name="env_sustain"/>
                                <par value="0" name="env_stretch"/>
                                <par_bool value="no" name="forced_release"/>
                                <par_bool value="no" name="linear_envelope"/>
                                <par value="50" name="A_dt"/>
                                <par value="10" name="D_dt"/>
                                <par value="60" name="R_dt"/>
                                <par value="64" name="A_val"/>
                                <par value="64" name="D_val"/>
                                <par value="64" name="S_val"/>
                                <par value="64" name="R_val"/>
                              </FREQUENCY_ENVELOPE>
                              <FREQUENCY_LFO>
                                <par_real value="0.551181" name="freq"/>
                                <par value="0" name="intensity"/>
                                <par value="64" name="start_phase"/>
                                <par value="0" name="lfo_type"/>
                                <par value="0" name="randomness_amplitude"/>
                                <par value="0" name="randomness_frequency"/>
                                <par value="0" name="delay"/>
                                <par value="64" name="stretch"/>
                                <par_bool value="no" name="continous"/>
                              </FREQUENCY_LFO>
                            </FREQUENCY_PARAMETERS>
                            <FILTER_PARAMETERS>
                              <par value="64" name="velocity_sensing_amplitude"/>
                              <par value="64" name="velocity_sensing"/>
                              <FILTER>
                                <par value="0" name="category"/>
                                <par value="2" name="type"/>
                                <par value="61" name="freq"/>
                                <par value="40" name="q"/>
                                <par value="0" name="stages"/>
                                <par value="64" name="freq_track"/>
                                <par value="64" name="gain"/>
                              </FILTER>
                              <FILTER_ENVELOPE>
                                <par_bool value="no" name="free_mode"/>
                                <par value="4" name="env_points"/>
                                <par value="2" name="env_sustain"/>
                                <par value="0" name="env_stretch"/>
                                <par_bool value="yes" name="forced_release"/>
                                <par_bool value="no" name="linear_envelope"/>
                                <par value="40" name="A_dt"/>
                                <par value="70" name="D_dt"/>
                                <par value="60" name="R_dt"/>
                                <par value="99" name="A_val"/>
                                <par value="64" name="D_val"/>
                                <par value="64" name="S_val"/>
                                <par value="64" name="R_val"/>
                              </FILTER_ENVELOPE>
                              <FILTER_LFO>
                                <par_real value="0.629921" name="freq"/>
                                <par value="0" name="intensity"/>
                                <par value="64" name="start_phase"/>
                                <par value="0" name="lfo_type"/>
                                <par value="0" name="randomness_amplitude"/>
                                <par value="0" name="randomness_frequency"/>
                                <par value="0" name="delay"/>
                                <par value="64" name="stretch"/>
                                <par_bool value="no" name="continous"/>
                              </FILTER_LFO>
                            </FILTER_PARAMETERS>
                          </PAD_SYNTH_PARAMETERS>
                        </INSTRUMENT_KIT_ITEM>
                        <INSTRUMENT_KIT_ITEM id="2">
                          <par_bool value="no" name="enabled"/>
                        </INSTRUMENT_KIT_ITEM>
                        <INSTRUMENT_KIT_ITEM id="3">
                          <par_bool value="no" name="enabled"/>
                        </INSTRUMENT_KIT_ITEM>
                        <INSTRUMENT_KIT_ITEM id="4">
                          <par_bool value="no" name="enabled"/>
                        </INSTRUMENT_KIT_ITEM>
                        <INSTRUMENT_KIT_ITEM id="5">
                          <par_bool value="no" name="enabled"/>
                        </INSTRUMENT_KIT_ITEM>
                        <INSTRUMENT_KIT_ITEM id="6">
                          <par_bool value="no" name="enabled"/>
                        </INSTRUMENT_KIT_ITEM>
                        <INSTRUMENT_KIT_ITEM id="7">
                          <par_bool value="no" name="enabled"/>
                        </INSTRUMENT_KIT_ITEM>
                        <INSTRUMENT_KIT_ITEM id="8">
                          <par_bool value="no" name="enabled"/>
                        </INSTRUMENT_KIT_ITEM>
                        <INSTRUMENT_KIT_ITEM id="9">
                          <par_bool value="no" name="enabled"/>
                        </INSTRUMENT_KIT_ITEM>
                        <INSTRUMENT_KIT_ITEM id="10">
                          <par_bool value="no" name="enabled"/>
                        </INSTRUMENT_KIT_ITEM>
                        <INSTRUMENT_KIT_ITEM id="11">
                          <par_bool value="no" name="enabled"/>
                        </INSTRUMENT_KIT_ITEM>
                        <INSTRUMENT_KIT_ITEM id="12">
                          <par_bool value="no" name="enabled"/>
                        </INSTRUMENT_KIT_ITEM>
                        <INSTRUMENT_KIT_ITEM id="13">
                          <par_bool value="no" name="enabled"/>
                        </INSTRUMENT_KIT_ITEM>
                        <INSTRUMENT_KIT_ITEM id="14">
                          <par_bool value="no" name="enabled"/>
                        </INSTRUMENT_KIT_ITEM>
                        <INSTRUMENT_KIT_ITEM id="15">
                          <par_bool value="no" name="enabled"/>
                        </INSTRUMENT_KIT_ITEM>
                      </INSTRUMENT_KIT>
                      <INSTRUMENT_EFFECTS>
                        <INSTRUMENT_EFFECT id="0">
                          <EFFECT>
                            <par value="7" name="type"/>
                            <par value="0" name="preset"/>
                            <EFFECT_PARAMETERS>
                              <par_no id="0">
                                <par value="89" name="par"/>
                              </par_no>
                              <par_no id="10">
                                <par value="1" name="par"/>
                              </par_no>
                              <par_no id="11">
                                <par value="127" name="par"/>
                              </par_no>
                              <par_no id="12">
                                <par value="64" name="par"/>
                              </par_no>
                              <par_no id="13">
                                <par value="104" name="par"/>
                              </par_no>
                              <par_no id="14">
                                <par value="4" name="par"/>
                              </par_no>
                              <par_no id="15">
                                <par value="2" name="par"/>
                              </par_no>
                              <par_no id="17">
                                <par value="64" name="par"/>
                              </par_no>
                              <par_no id="18">
                                <par value="62" name="par"/>
                              </par_no>
                              <par_no id="20">
                                <par value="2" name="par"/>
                              </par_no>
                              <par_no id="22">
                                <par value="64" name="par"/>
                              </par_no>
                              <par_no id="23">
                                <par value="127" name="par"/>
                              </par_no>
                              <par_no id="24">
                                <par value="4" name="par"/>
                              </par_no>
                              <par_no id="25">
                                <par value="1" name="par"/>
                              </par_no>
                              <par_no id="26">
                                <par value="73" name="par"/>
                              </par_no>
                              <par_no id="27">
                                <par value="64" name="par"/>
                              </par_no>
                              <par_no id="28">
                                <par value="8" name="par"/>
                              </par_no>
                              <par_no id="30">
                                <par value="9" name="par"/>
                              </par_no>
                              <par_no id="31">
                                <par value="77" name="par"/>
                              </par_no>
                              <par_no id="32">
                                <par value="39" name="par"/>
                              </par_no>
                              <par_no id="34">
                                <par value="4" name="par"/>
                              </par_no>
                              <par_no id="36">
                                <par value="127" name="par"/>
                              </par_no>
                              <par_no id="37">
                                <par value="64" name="par"/>
                              </par_no>
                              <par_no id="38">
                                <par value="64" name="par"/>
                              </par_no>
                              <par_no id="41">
                                <par value="64" name="par"/>
                              </par_no>
                              <par_no id="42">
                                <par value="64" name="par"/>
                              </par_no>
                              <par_no id="43">
                                <par value="64" name="par"/>
                              </par_no>
                              <par_no id="46">
                                <par value="64" name="par"/>
                              </par_no>
                              <par_no id="47">
                                <par value="64" name="par"/>
                              </par_no>
                              <par_no id="48">
                                <par value="64" name="par"/>
                              </par_no>
                            </EFFECT_PARAMETERS>
                          </EFFECT>
                          <par value="0" name="route"/>
                          <par_bool value="no" name="bypass"/>
                        </INSTRUMENT_EFFECT>
                        <INSTRUMENT_EFFECT id="1">
                          <EFFECT>
                            <par value="0" name="type"/>
                          </EFFECT>
                          <par value="0" name="route"/>
                          <par_bool value="no" name="bypass"/>
                        </INSTRUMENT_EFFECT>
                        <INSTRUMENT_EFFECT id="2">
                          <EFFECT>
                            <par value="0" name="type"/>
                          </EFFECT>
                          <par value="0" name="route"/>
                          <par_bool value="no" name="bypass"/>
                        </INSTRUMENT_EFFECT>
                      </INSTRUMENT_EFFECTS>
                    </INSTRUMENT>
                    <CONTROLLER>
                      <par value="100" name="pitchwheel_bendrange"/>
                      <par_bool value="yes" name="expression_receive"/>
                      <par value="64" name="panning_depth"/>
                      <par value="64" name="filter_cutoff_depth"/>
                      <par value="64" name="filter_q_depth"/>
                      <par value="64" name="bandwidth_depth"/>
                      <par value="80" name="mod_wheel_depth"/>
                      <par_bool value="no" name="mod_wheel_exponential"/>
                      <par_bool value="yes" name="fm_amp_receive"/>
                      <par_bool value="yes" name="volume_receive"/>
                      <par_bool value="yes" name="sustain_receive"/>
                      <par_bool value="yes" name="portamento_receive"/>
                      <par value="64" name="portamento_time"/>
                      <par value="3" name="portamento_pitchthresh"/>
                      <par value="1" name="portamento_pitchthreshtype"/>
                      <par value="0" name="portamento_portamento"/>
                      <par value="64" name="portamento_updowntimestretch"/>
                      <par value="0" name="portamento_proportional"/>
                      <par value="80" name="portamento_proprate"/>
                      <par value="90" name="portamento_propdepth"/>
                      <par value="64" name="resonance_center_depth"/>
                      <par value="64" name="resonance_bandwidth_depth"/>
                    </CONTROLLER>
                  </PART>
                  <PART id="1">
                    <par_bool value="no" name="enabled"/>
                  </PART>
                  <PART id="2">
                    <par_bool value="no" name="enabled"/>
                  </PART>
                  <PART id="3">
                    <par_bool value="no" name="enabled"/>
                  </PART>
                  <PART id="4">
                    <par_bool value="no" name="enabled"/>
                  </PART>
                  <PART id="5">
                    <par_bool value="no" name="enabled"/>
                  </PART>
                  <PART id="6">
                    <par_bool value="no" name="enabled"/>
                  </PART>
                  <PART id="7">
                    <par_bool value="no" name="enabled"/>
                  </PART>
                  <PART id="8">
                    <par_bool value="no" name="enabled"/>
                  </PART>
                  <PART id="9">
                    <par_bool value="no" name="enabled"/>
                  </PART>
                  <PART id="10">
                    <par_bool value="no" name="enabled"/>
                  </PART>
                  <PART id="11">
                    <par_bool value="no" name="enabled"/>
                  </PART>
                  <PART id="12">
                    <par_bool value="no" name="enabled"/>
                  </PART>
                  <PART id="13">
                    <par_bool value="no" name="enabled"/>
                  </PART>
                  <PART id="14">
                    <par_bool value="no" name="enabled"/>
                  </PART>
                  <PART id="15">
                    <par_bool value="no" name="enabled"/>
                  </PART>
                  <SYSTEM_EFFECTS>
                    <SYSTEM_EFFECT id="0">
                      <EFFECT>
                        <par value="0" name="type"/>
                      </EFFECT>
                      <VOLUME id="0">
                        <par value="0" name="vol"/>
                      </VOLUME>
                      <VOLUME id="1">
                        <par value="0" name="vol"/>
                      </VOLUME>
                      <VOLUME id="2">
                        <par value="0" name="vol"/>
                      </VOLUME>
                      <VOLUME id="3">
                        <par value="0" name="vol"/>
                      </VOLUME>
                      <VOLUME id="4">
                        <par value="0" name="vol"/>
                      </VOLUME>
                      <VOLUME id="5">
                        <par value="0" name="vol"/>
                      </VOLUME>
                      <VOLUME id="6">
                        <par value="0" name="vol"/>
                      </VOLUME>
                      <VOLUME id="7">
                        <par value="0" name="vol"/>
                      </VOLUME>
                      <VOLUME id="8">
                        <par value="0" name="vol"/>
                      </VOLUME>
                      <VOLUME id="9">
                        <par value="0" name="vol"/>
                      </VOLUME>
                      <VOLUME id="10">
                        <par value="0" name="vol"/>
                      </VOLUME>
                      <VOLUME id="11">
                        <par value="0" name="vol"/>
                      </VOLUME>
                      <VOLUME id="12">
                        <par value="0" name="vol"/>
                      </VOLUME>
                      <VOLUME id="13">
                        <par value="0" name="vol"/>
                      </VOLUME>
                      <VOLUME id="14">
                        <par value="0" name="vol"/>
                      </VOLUME>
                      <VOLUME id="15">
                        <par value="0" name="vol"/>
                      </VOLUME>
                      <SENDTO id="1">
                        <par value="0" name="send_vol"/>
                      </SENDTO>
                      <SENDTO id="2">
                        <par value="0" name="send_vol"/>
                      </SENDTO>
                      <SENDTO id="3">
                        <par value="0" name="send_vol"/>
                      </SENDTO>
                    </SYSTEM_EFFECT>
                    <SYSTEM_EFFECT id="1">
                      <EFFECT>
                        <par value="0" name="type"/>
                      </EFFECT>
                      <VOLUME id="0">
                        <par value="0" name="vol"/>
                      </VOLUME>
                      <VOLUME id="1">
                        <par value="0" name="vol"/>
                      </VOLUME>
                      <VOLUME id="2">
                        <par value="0" name="vol"/>
                      </VOLUME>
                      <VOLUME id="3">
                        <par value="0" name="vol"/>
                      </VOLUME>
                      <VOLUME id="4">
                        <par value="0" name="vol"/>
                      </VOLUME>
                      <VOLUME id="5">
                        <par value="0" name="vol"/>
                      </VOLUME>
                      <VOLUME id="6">
                        <par value="0" name="vol"/>
                      </VOLUME>
                      <VOLUME id="7">
                        <par value="0" name="vol"/>
                      </VOLUME>
                      <VOLUME id="8">
                        <par value="0" name="vol"/>
                      </VOLUME>
                      <VOLUME id="9">
                        <par value="0" name="vol"/>
                      </VOLUME>
                      <VOLUME id="10">
                        <par value="0" name="vol"/>
                      </VOLUME>
                      <VOLUME id="11">
                        <par value="0" name="vol"/>
                      </VOLUME>
                      <VOLUME id="12">
                        <par value="0" name="vol"/>
                      </VOLUME>
                      <VOLUME id="13">
                        <par value="0" name="vol"/>
                      </VOLUME>
                      <VOLUME id="14">
                        <par value="0" name="vol"/>
                      </VOLUME>
                      <VOLUME id="15">
                        <par value="0" name="vol"/>
                      </VOLUME>
                      <SENDTO id="2">
                        <par value="0" name="send_vol"/>
                      </SENDTO>
                      <SENDTO id="3">
                        <par value="0" name="send_vol"/>
                      </SENDTO>
                    </SYSTEM_EFFECT>
                    <SYSTEM_EFFECT id="2">
                      <EFFECT>
                        <par value="0" name="type"/>
                      </EFFECT>
                      <VOLUME id="0">
                        <par value="0" name="vol"/>
                      </VOLUME>
                      <VOLUME id="1">
                        <par value="0" name="vol"/>
                      </VOLUME>
                      <VOLUME id="2">
                        <par value="0" name="vol"/>
                      </VOLUME>
                      <VOLUME id="3">
                        <par value="0" name="vol"/>
                      </VOLUME>
                      <VOLUME id="4">
                        <par value="0" name="vol"/>
                      </VOLUME>
                      <VOLUME id="5">
                        <par value="0" name="vol"/>
                      </VOLUME>
                      <VOLUME id="6">
                        <par value="0" name="vol"/>
                      </VOLUME>
                      <VOLUME id="7">
                        <par value="0" name="vol"/>
                      </VOLUME>
                      <VOLUME id="8">
                        <par value="0" name="vol"/>
                      </VOLUME>
                      <VOLUME id="9">
                        <par value="0" name="vol"/>
                      </VOLUME>
                      <VOLUME id="10">
                        <par value="0" name="vol"/>
                      </VOLUME>
                      <VOLUME id="11">
                        <par value="0" name="vol"/>
                      </VOLUME>
                      <VOLUME id="12">
                        <par value="0" name="vol"/>
                      </VOLUME>
                      <VOLUME id="13">
                        <par value="0" name="vol"/>
                      </VOLUME>
                      <VOLUME id="14">
                        <par value="0" name="vol"/>
                      </VOLUME>
                      <VOLUME id="15">
                        <par value="0" name="vol"/>
                      </VOLUME>
                      <SENDTO id="3">
                        <par value="0" name="send_vol"/>
                      </SENDTO>
                    </SYSTEM_EFFECT>
                    <SYSTEM_EFFECT id="3">
                      <EFFECT>
                        <par value="0" name="type"/>
                      </EFFECT>
                      <VOLUME id="0">
                        <par value="0" name="vol"/>
                      </VOLUME>
                      <VOLUME id="1">
                        <par value="0" name="vol"/>
                      </VOLUME>
                      <VOLUME id="2">
                        <par value="0" name="vol"/>
                      </VOLUME>
                      <VOLUME id="3">
                        <par value="0" name="vol"/>
                      </VOLUME>
                      <VOLUME id="4">
                        <par value="0" name="vol"/>
                      </VOLUME>
                      <VOLUME id="5">
                        <par value="0" name="vol"/>
                      </VOLUME>
                      <VOLUME id="6">
                        <par value="0" name="vol"/>
                      </VOLUME>
                      <VOLUME id="7">
                        <par value="0" name="vol"/>
                      </VOLUME>
                      <VOLUME id="8">
                        <par value="0" name="vol"/>
                      </VOLUME>
                      <VOLUME id="9">
                        <par value="0" name="vol"/>
                      </VOLUME>
                      <VOLUME id="10">
                        <par value="0" name="vol"/>
                      </VOLUME>
                      <VOLUME id="11">
                        <par value="0" name="vol"/>
                      </VOLUME>
                      <VOLUME id="12">
                        <par value="0" name="vol"/>
                      </VOLUME>
                      <VOLUME id="13">
                        <par value="0" name="vol"/>
                      </VOLUME>
                      <VOLUME id="14">
                        <par value="0" name="vol"/>
                      </VOLUME>
                      <VOLUME id="15">
                        <par value="0" name="vol"/>
                      </VOLUME>
                    </SYSTEM_EFFECT>
                  </SYSTEM_EFFECTS>
                  <INSERTION_EFFECTS>
                    <INSERTION_EFFECT id="0">
                      <par value="-1" name="part"/>
                      <EFFECT>
                        <par value="0" name="type"/>
                      </EFFECT>
                    </INSERTION_EFFECT>
                    <INSERTION_EFFECT id="1">
                      <par value="-1" name="part"/>
                      <EFFECT>
                        <par value="0" name="type"/>
                      </EFFECT>
                    </INSERTION_EFFECT>
                    <INSERTION_EFFECT id="2">
                      <par value="-1" name="part"/>
                      <EFFECT>
                        <par value="0" name="type"/>
                      </EFFECT>
                    </INSERTION_EFFECT>
                    <INSERTION_EFFECT id="3">
                      <par value="-1" name="part"/>
                      <EFFECT>
                        <par value="0" name="type"/>
                      </EFFECT>
                    </INSERTION_EFFECT>
                    <INSERTION_EFFECT id="4">
                      <par value="-1" name="part"/>
                      <EFFECT>
                        <par value="0" name="type"/>
                      </EFFECT>
                    </INSERTION_EFFECT>
                    <INSERTION_EFFECT id="5">
                      <par value="-1" name="part"/>
                      <EFFECT>
                        <par value="0" name="type"/>
                      </EFFECT>
                    </INSERTION_EFFECT>
                    <INSERTION_EFFECT id="6">
                      <par value="-1" name="part"/>
                      <EFFECT>
                        <par value="0" name="type"/>
                      </EFFECT>
                    </INSERTION_EFFECT>
                    <INSERTION_EFFECT id="7">
                      <par value="-1" name="part"/>
                      <EFFECT>
                        <par value="0" name="type"/>
                      </EFFECT>
                    </INSERTION_EFFECT>
                  </INSERTION_EFFECTS>
                </MASTER>
              </ZynAddSubFX-data>
            </zynaddsubfx>
          </instrument>
          <eldata ftype="6" fres="0.88" fcut="686" fwet="0">
            <elvol lamt="0" x100="0" pdel="0" lshp="0" sustain="0.26200002" amt="1" att="0" hold="0" ctlenvamt="0" dec="0.29699999" lspd_denominator="4" rel="0.34599999" lspd="0.091700003" latt="0" userwavefile="" lspd_numerator="4" lspd_syncmode="0" lpdel="0"/>
            <elcut lamt="0" x100="0" pdel="0" lshp="1" sustain="0.00099998713" amt="0" att="0" hold="0" ctlenvamt="0" dec="0.223" lspd_denominator="4" rel="0" lspd="0.76700002" latt="0" userwavefile="" lspd_numerator="4" lspd_syncmode="0" lpdel="0"/>
            <elres lamt="-0.0059999502" x100="0" pdel="0" lshp="1" sustain="0.5" amt="0" att="0" hold="0" ctlenvamt="0" dec="0.5" lspd_denominator="4" rel="0.1" lspd="0.0099999998" latt="0" userwavefile="" lspd_numerator="4" lspd_syncmode="0" lpdel="0"/>
          </eldata>
          <chordcreator chord-enabled="1" chordrange="2" chord="0"/>
          <arpeggiator arpdir="0" arptime="158" arpcycle="0" arpmode="0" arpmiss="0" arp-enabled="0" arprange="2" arpskip="0" arp="0" arptime_syncmode="0" arptime_numerator="4" arpgate="150" arptime_denominator="4"/>
          <midiport inputchannel="0" outputchannel="1" inputcontroller="0" outputprogram="1" readable="0" writable="0" fixedinputvelocity="-1" outputcontroller="0" fixedoutputvelocity="-1" basevelocity="127" fixedoutputnote="-1"/>
          <fxchain numofeffects="0" enabled="0"/>
        </instrumenttrack>
        <pattern muted="0" pos="1536" name="DoublePadBass" type="1" steps="16">
          <note pos="0" pan="0" len="12" key="38" vol="100"/>
          <note pos="72" pan="0" len="12" key="36" vol="100"/>
          <note pos="96" pan="0" len="12" key="38" vol="100"/>
          <note pos="168" pan="0" len="12" key="36" vol="100"/>
          <note pos="192" pan="0" len="12" key="38" vol="100"/>
          <note pos="264" pan="0" len="12" key="36" vol="100"/>
          <note pos="288" pan="0" len="12" key="38" vol="100"/>
          <note pos="300" pan="0" len="12" key="36" vol="100"/>
          <note pos="312" pan="0" len="12" key="36" vol="100"/>
          <note pos="324" pan="0" len="12" key="38" vol="100"/>
          <note pos="336" pan="0" len="12" key="39" vol="100"/>
          <note pos="348" pan="0" len="12" key="41" vol="100"/>
          <note pos="360" pan="0" len="12" key="41" vol="100"/>
          <note pos="372" pan="0" len="12" key="39" vol="100"/>
          <note pos="384" pan="0" len="12" key="38" vol="100"/>
          <note pos="456" pan="0" len="12" key="36" vol="100"/>
          <note pos="480" pan="0" len="12" key="38" vol="100"/>
          <note pos="552" pan="0" len="12" key="36" vol="100"/>
          <note pos="576" pan="0" len="12" key="38" vol="100"/>
          <note pos="648" pan="0" len="12" key="36" vol="100"/>
          <note pos="672" pan="0" len="12" key="38" vol="100"/>
          <note pos="684" pan="0" len="12" key="36" vol="100"/>
          <note pos="696" pan="0" len="12" key="36" vol="100"/>
          <note pos="708" pan="0" len="12" key="38" vol="100"/>
          <note pos="720" pan="0" len="12" key="39" vol="100"/>
          <note pos="732" pan="0" len="12" key="41" vol="100"/>
          <note pos="744" pan="0" len="12" key="41" vol="100"/>
          <note pos="756" pan="0" len="12" key="39" vol="100"/>
          <note pos="768" pan="0" len="12" key="37" vol="100"/>
          <note pos="828" pan="0" len="12" key="37" vol="100"/>
          <note pos="840" pan="0" len="12" key="37" vol="100"/>
          <note pos="852" pan="0" len="12" key="37" vol="100"/>
          <note pos="864" pan="0" len="12" key="37" vol="100"/>
          <note pos="924" pan="0" len="12" key="37" vol="100"/>
          <note pos="936" pan="0" len="12" key="37" vol="100"/>
          <note pos="948" pan="0" len="12" key="37" vol="100"/>
          <note pos="960" pan="0" len="12" key="37" vol="100"/>
          <note pos="1020" pan="0" len="12" key="37" vol="100"/>
          <note pos="1032" pan="0" len="12" key="37" vol="100"/>
          <note pos="1044" pan="0" len="12" key="37" vol="100"/>
          <note pos="1056" pan="0" len="12" key="37" vol="100"/>
          <note pos="1080" pan="0" len="12" key="37" vol="100"/>
          <note pos="1092" pan="0" len="12" key="39" vol="100"/>
          <note pos="1128" pan="0" len="12" key="39" vol="100"/>
          <note pos="1152" pan="0" len="12" key="37" vol="100"/>
          <note pos="1212" pan="0" len="12" key="37" vol="100"/>
          <note pos="1224" pan="0" len="12" key="37" vol="100"/>
          <note pos="1236" pan="0" len="12" key="37" vol="100"/>
          <note pos="1248" pan="0" len="12" key="37" vol="100"/>
          <note pos="1308" pan="0" len="12" key="37" vol="100"/>
          <note pos="1320" pan="0" len="12" key="37" vol="100"/>
          <note pos="1332" pan="0" len="12" key="37" vol="100"/>
          <note pos="1344" pan="0" len="12" key="37" vol="100"/>
          <note pos="1404" pan="0" len="12" key="37" vol="100"/>
          <note pos="1416" pan="0" len="12" key="37" vol="100"/>
          <note pos="1428" pan="0" len="12" key="37" vol="100"/>
          <note pos="1440" pan="0" len="12" key="37" vol="100"/>
          <note pos="1464" pan="0" len="12" key="37" vol="100"/>
          <note pos="1476" pan="0" len="12" key="39" vol="100"/>
          <note pos="1512" pan="0" len="12" key="39" vol="100"/>
        </pattern>
        <pattern muted="0" pos="3072" name="" type="1" steps="16">
          <note pos="0" pan="0" len="12" key="38" vol="100"/>
          <note pos="72" pan="0" len="12" key="36" vol="100"/>
          <note pos="96" pan="0" len="12" key="38" vol="100"/>
          <note pos="168" pan="0" len="12" key="36" vol="100"/>
          <note pos="192" pan="0" len="12" key="38" vol="100"/>
          <note pos="264" pan="0" len="12" key="36" vol="100"/>
          <note pos="288" pan="0" len="12" key="38" vol="100"/>
          <note pos="300" pan="0" len="12" key="36" vol="100"/>
          <note pos="312" pan="0" len="12" key="36" vol="100"/>
          <note pos="324" pan="0" len="12" key="38" vol="100"/>
          <note pos="336" pan="0" len="12" key="39" vol="100"/>
          <note pos="348" pan="0" len="12" key="41" vol="100"/>
          <note pos="360" pan="0" len="12" key="41" vol="100"/>
          <note pos="372" pan="0" len="12" key="39" vol="100"/>
          <note pos="384" pan="0" len="12" key="38" vol="100"/>
          <note pos="456" pan="0" len="12" key="36" vol="100"/>
          <note pos="480" pan="0" len="12" key="38" vol="100"/>
          <note pos="552" pan="0" len="12" key="36" vol="100"/>
          <note pos="576" pan="0" len="12" key="38" vol="100"/>
          <note pos="648" pan="0" len="12" key="36" vol="100"/>
          <note pos="672" pan="0" len="12" key="38" vol="100"/>
          <note pos="684" pan="0" len="12" key="36" vol="100"/>
          <note pos="696" pan="0" len="12" key="36" vol="100"/>
          <note pos="708" pan="0" len="12" key="38" vol="100"/>
          <note pos="720" pan="0" len="12" key="39" vol="100"/>
          <note pos="732" pan="0" len="12" key="41" vol="100"/>
          <note pos="744" pan="0" len="12" key="41" vol="100"/>
          <note pos="756" pan="0" len="12" key="39" vol="100"/>
          <note pos="768" pan="0" len="12" key="37" vol="100"/>
          <note pos="828" pan="0" len="12" key="37" vol="100"/>
          <note pos="840" pan="0" len="12" key="37" vol="100"/>
          <note pos="852" pan="0" len="12" key="37" vol="100"/>
          <note pos="864" pan="0" len="12" key="37" vol="100"/>
          <note pos="924" pan="0" len="12" key="37" vol="100"/>
          <note pos="936" pan="0" len="12" key="37" vol="100"/>
          <note pos="948" pan="0" len="12" key="37" vol="100"/>
          <note pos="960" pan="0" len="12" key="37" vol="100"/>
          <note pos="1020" pan="0" len="12" key="37" vol="100"/>
          <note pos="1032" pan="0" len="12" key="37" vol="100"/>
          <note pos="1044" pan="0" len="12" key="37" vol="100"/>
          <note pos="1056" pan="0" len="12" key="37" vol="100"/>
          <note pos="1080" pan="0" len="12" key="37" vol="100"/>
          <note pos="1092" pan="0" len="12" key="39" vol="100"/>
          <note pos="1128" pan="0" len="12" key="39" vol="100"/>
          <note pos="1152" pan="0" len="12" key="37" vol="100"/>
          <note pos="1212" pan="0" len="12" key="37" vol="100"/>
          <note pos="1224" pan="0" len="12" key="37" vol="100"/>
          <note pos="1236" pan="0" len="12" key="37" vol="100"/>
          <note pos="1248" pan="0" len="12" key="37" vol="100"/>
          <note pos="1308" pan="0" len="12" key="37" vol="100"/>
          <note pos="1320" pan="0" len="12" key="37" vol="100"/>
          <note pos="1332" pan="0" len="12" key="37" vol="100"/>
          <note pos="1344" pan="0" len="12" key="37" vol="100"/>
          <note pos="1404" pan="0" len="12" key="37" vol="100"/>
          <note pos="1416" pan="0" len="12" key="37" vol="100"/>
          <note pos="1428" pan="0" len="12" key="37" vol="100"/>
          <note pos="1440" pan="0" len="12" key="37" vol="100"/>
          <note pos="1464" pan="0" len="12" key="37" vol="100"/>
          <note pos="1476" pan="0" len="12" key="39" vol="100"/>
          <note pos="1512" pan="0" len="12" key="39" vol="100"/>
        </pattern>
        <pattern muted="0" pos="4608" name="" type="1" steps="16">
          <note pos="0" pan="0" len="12" key="38" vol="100"/>
          <note pos="72" pan="0" len="12" key="36" vol="100"/>
          <note pos="96" pan="0" len="12" key="38" vol="100"/>
          <note pos="168" pan="0" len="12" key="36" vol="100"/>
          <note pos="192" pan="0" len="12" key="38" vol="100"/>
          <note pos="264" pan="0" len="12" key="36" vol="100"/>
          <note pos="288" pan="0" len="12" key="38" vol="100"/>
          <note pos="300" pan="0" len="12" key="36" vol="100"/>
          <note pos="312" pan="0" len="12" key="36" vol="100"/>
          <note pos="324" pan="0" len="12" key="38" vol="100"/>
          <note pos="336" pan="0" len="12" key="39" vol="100"/>
          <note pos="348" pan="0" len="12" key="41" vol="100"/>
          <note pos="360" pan="0" len="12" key="41" vol="100"/>
          <note pos="372" pan="0" len="12" key="39" vol="100"/>
          <note pos="384" pan="0" len="12" key="38" vol="100"/>
          <note pos="456" pan="0" len="12" key="36" vol="100"/>
          <note pos="480" pan="0" len="12" key="38" vol="100"/>
          <note pos="552" pan="0" len="12" key="36" vol="100"/>
          <note pos="576" pan="0" len="12" key="38" vol="100"/>
          <note pos="648" pan="0" len="12" key="36" vol="100"/>
          <note pos="672" pan="0" len="12" key="38" vol="100"/>
          <note pos="684" pan="0" len="12" key="36" vol="100"/>
          <note pos="696" pan="0" len="12" key="36" vol="100"/>
          <note pos="708" pan="0" len="12" key="38" vol="100"/>
          <note pos="720" pan="0" len="12" key="39" vol="100"/>
          <note pos="732" pan="0" len="12" key="41" vol="100"/>
          <note pos="744" pan="0" len="12" key="41" vol="100"/>
          <note pos="756" pan="0" len="12" key="39" vol="100"/>
          <note pos="768" pan="0" len="12" key="37" vol="100"/>
          <note pos="828" pan="0" len="12" key="37" vol="100"/>
          <note pos="840" pan="0" len="12" key="37" vol="100"/>
          <note pos="852" pan="0" len="12" key="37" vol="100"/>
          <note pos="864" pan="0" len="12" key="37" vol="100"/>
          <note pos="924" pan="0" len="12" key="37" vol="100"/>
          <note pos="936" pan="0" len="12" key="37" vol="100"/>
          <note pos="948" pan="0" len="12" key="37" vol="100"/>
          <note pos="960" pan="0" len="12" key="37" vol="100"/>
          <note pos="1020" pan="0" len="12" key="37" vol="100"/>
          <note pos="1032" pan="0" len="12" key="37" vol="100"/>
          <note pos="1044" pan="0" len="12" key="37" vol="100"/>
          <note pos="1056" pan="0" len="12" key="37" vol="100"/>
          <note pos="1080" pan="0" len="12" key="37" vol="100"/>
          <note pos="1092" pan="0" len="12" key="39" vol="100"/>
          <note pos="1128" pan="0" len="12" key="39" vol="100"/>
          <note pos="1152" pan="0" len="12" key="37" vol="100"/>
          <note pos="1212" pan="0" len="12" key="37" vol="100"/>
          <note pos="1224" pan="0" len="12" key="37" vol="100"/>
          <note pos="1236" pan="0" len="12" key="37" vol="100"/>
          <note pos="1248" pan="0" len="12" key="37" vol="100"/>
          <note pos="1308" pan="0" len="12" key="37" vol="100"/>
          <note pos="1320" pan="0" len="12" key="37" vol="100"/>
          <note pos="1332" pan="0" len="12" key="37" vol="100"/>
          <note pos="1344" pan="0" len="12" key="37" vol="100"/>
          <note pos="1404" pan="0" len="12" key="37" vol="100"/>
          <note pos="1416" pan="0" len="12" key="37" vol="100"/>
          <note pos="1428" pan="0" len="12" key="37" vol="100"/>
          <note pos="1440" pan="0" len="12" key="37" vol="100"/>
          <note pos="1464" pan="0" len="12" key="37" vol="100"/>
          <note pos="1476" pan="0" len="12" key="39" vol="100"/>
          <note pos="1512" pan="0" len="12" key="39" vol="100"/>
        </pattern>
      </track>
      <track muted="0" solo="0" name="warp01.ogg" type="0">
        <instrumenttrack fxch="0" pitch="0" pan="0" vol="100" usemasterpitch="1" pitchrange="1" basenote="57">
          <instrument name="audiofileprocessor">
            <audiofileprocessor lframe="0" reversed="0" looped="0" eframe="1" interp="1" stutter="0" src="effects/warp01.ogg" sframe="0" amp="100"/>
          </instrument>
          <eldata ftype="0" fres="0.5" fcut="14000" fwet="0">
            <elvol lamt="0" x100="0" pdel="0" lshp="0" sustain="0.5" amt="1" att="0" hold="0.23600002" ctlenvamt="0" dec="0.62" lspd_denominator="4" rel="0.1" lspd="0.1" latt="0" userwavefile="" lspd_numerator="4" lspd_syncmode="0" lpdel="0"/>
            <elcut lamt="0" x100="0" pdel="0" lshp="0" sustain="0.5" amt="0" att="0" hold="0.5" ctlenvamt="0" dec="0.5" lspd_denominator="4" rel="0.1" lspd="0.1" latt="0" userwavefile="" lspd_numerator="4" lspd_syncmode="0" lpdel="0"/>
            <elres lamt="0" x100="0" pdel="0" lshp="0" sustain="0.5" amt="1" att="0" hold="0.5" ctlenvamt="0" dec="0.5" lspd_denominator="4" rel="0.1" lspd="0.1" latt="0" userwavefile="" lspd_numerator="4" lspd_syncmode="0" lpdel="0"/>
          </eldata>
          <chordcreator chord-enabled="1" chordrange="1" chord="0"/>
          <arpeggiator arpdir="0" arptime="200" arpcycle="0" arpmode="0" arpmiss="0" arp-enabled="0" arprange="1" arpskip="0" arp="0" arptime_syncmode="0" arptime_numerator="4" arpgate="100" arptime_denominator="4"/>
          <midiport inputchannel="0" outputchannel="1" inputcontroller="0" outputprogram="1" readable="0" writable="0" fixedinputvelocity="-1" outputcontroller="0" fixedoutputvelocity="-1" basevelocity="63" fixedoutputnote="-1"/>
          <fxchain numofeffects="2" enabled="1">
            <effect wet="1" gate="0" autoquit="1" name="ladspaeffect" autoquit_numerator="4" autoquit_denominator="4" on="1" autoquit_syncmode="0">
              <ladspacontrols ports="10">
                <port00 data="280"/>
                <port01 data="0"/>
                <port02 data="107.5"/>
                <port03 data="0"/>
                <port04 data="0"/>
                <port05 data="0"/>
                <port06 data="0"/>
                <port07 data="0"/>
                <port08 data="0"/>
                <port09 data="0"/>
              </ladspacontrols>
              <key>
                <attribute value="tap_echo" name="file"/>
                <attribute value="tap_stereo_echo" name="plugin"/>
              </key>
            </effect>
            <effect wet="1" gate="0" autoquit="1" name="ladspaeffect" autoquit_numerator="4" autoquit_denominator="4" on="1" autoquit_syncmode="0">
              <ladspacontrols ports="9">
                <port07>
                  <data id="4639240" scale_type="log" value="0.98984641"/>
                </port07>
                <port08>
                  <data id="6416635" scale_type="log" value="6324.5552"/>
                </port08>
                <port09 data="1"/>
                <port010 data="0.5"/>
                <port011 data="0.5"/>
                <port012 data="1"/>
                <port013 data="0"/>
                <port014>
                  <data id="5187421" scale_type="log" value="632.45551"/>
                </port014>
                <port015>
                  <data id="2831938" scale_type="log" value="3556.5579"/>
                </port015>
              </ladspacontrols>
              <key>
                <attribute value="calf" name="file"/>
                <attribute value="Reverb" name="plugin"/>
              </key>
            </effect>
          </fxchain>
        </instrumenttrack>
        <pattern muted="0" pos="10560" name="warp01.ogg" type="1" steps="16">
          <note pos="144" pan="0" len="624" key="57" vol="100"/>
        </pattern>
        <pattern muted="0" pos="15168" name="" type="1" steps="16">
          <note pos="144" pan="0" len="624" key="57" vol="100"/>
        </pattern>
      </track>
      <track muted="0" solo="0" name="Choir" type="0">
        <instrumenttrack fxch="4" pitch="0" pan="0" vol="123.2" usemasterpitch="1" pitchrange="1" basenote="57">
          <instrument name="zynaddsubfx">
            <zynaddsubfx filterfreq="64" resbandwidth="64" portamento="0" modifiedcontrollers="" forwardmidicc="1" filterq="64" rescenterfreq="64" bandwidth="64" fmgain="127">
              <ZynAddSubFX-data version-revision="1" version-minor="4" version-major="2" ZynAddSubFX-author="Nasca Octavian Paul">
                <INFORMATION/>
                <BASE_PARAMETERS>
                  <par value="16" name="max_midi_parts"/>
                  <par value="16" name="max_kit_items_per_instrument"/>
                  <par value="4" name="max_system_effects"/>
                  <par value="8" name="max_insertion_effects"/>
                  <par value="3" name="max_instrument_effects"/>
                  <par value="8" name="max_addsynth_voices"/>
                </BASE_PARAMETERS>
                <MASTER>
                  <par value="80" name="volume"/>
                  <par value="64" name="key_shift"/>
                  <par_bool value="yes" name="nrpn_receive"/>
                  <MICROTONAL>
                    <string name="name">12tET</string>
                    <string name="comment">Equal Temperament 12 notes per octave</string>
                    <par_bool value="no" name="invert_up_down"/>
                    <par value="60" name="invert_up_down_center"/>
                    <par_bool value="no" name="enabled"/>
                    <par value="64" name="global_fine_detune"/>
                    <par value="69" name="a_note"/>
                    <par_real value="440.000000" name="a_freq"/>
                  </MICROTONAL>
                  <PART id="0">
                    <par_bool value="yes" name="enabled"/>
                    <par value="96" name="volume"/>
                    <par value="64" name="panning"/>
                    <par value="0" name="min_key"/>
                    <par value="127" name="max_key"/>
                    <par value="64" name="key_shift"/>
                    <par value="0" name="rcv_chn"/>
                    <par value="64" name="velocity_sensing"/>
                    <par value="64" name="velocity_offset"/>
                    <par_bool value="yes" name="note_on"/>
                    <par_bool value="yes" name="poly_mode"/>
                    <par value="0" name="legato_mode"/>
                    <par value="15" name="key_limit"/>
                    <INSTRUMENT>
                      <INFO>
                        <string name="name">Choir</string>
                        <string name="author"/>
                        <string name="comments"/>
                        <par value="0" name="type"/>
                      </INFO>
                      <INSTRUMENT_KIT>
                        <par value="0" name="kit_mode"/>
                        <par_bool value="no" name="drum_mode"/>
                        <INSTRUMENT_KIT_ITEM id="0">
                          <par_bool value="yes" name="enabled"/>
                          <string name="name">Choir</string>
                          <par_bool value="no" name="muted"/>
                          <par value="0" name="min_key"/>
                          <par value="127" name="max_key"/>
                          <par value="0" name="send_to_instrument_effect"/>
                          <par_bool value="no" name="add_enabled"/>
                          <par_bool value="yes" name="sub_enabled"/>
                          <SUB_SYNTH_PARAMETERS>
                            <par value="2" name="num_stages"/>
                            <par value="0" name="harmonic_mag_type"/>
                            <par value="2" name="start"/>
                            <HARMONICS>
                              <HARMONIC id="0">
                                <par value="65" name="mag"/>
                                <par value="64" name="relbw"/>
                              </HARMONIC>
                              <HARMONIC id="1">
                                <par value="122" name="mag"/>
                                <par value="64" name="relbw"/>
                              </HARMONIC>
                              <HARMONIC id="2">
                                <par value="94" name="mag"/>
                                <par value="64" name="relbw"/>
                              </HARMONIC>
                              <HARMONIC id="3">
                                <par value="126" name="mag"/>
                                <par value="64" name="relbw"/>
                              </HARMONIC>
                              <HARMONIC id="9">
                                <par value="15" name="mag"/>
                                <par value="104" name="relbw"/>
                              </HARMONIC>
                              <HARMONIC id="20">
                                <par value="12" name="mag"/>
                                <par value="92" name="relbw"/>
                              </HARMONIC>
                            </HARMONICS>
                            <AMPLITUDE_PARAMETERS>
                              <par_bool value="yes" name="stereo"/>
                              <par value="109" name="volume"/>
                              <par value="64" name="panning"/>
                              <par value="90" name="velocity_sensing"/>
                              <AMPLITUDE_ENVELOPE>
                                <par_bool value="no" name="free_mode"/>
                                <par value="4" name="env_points"/>
                                <par value="2" name="env_sustain"/>
                                <par value="5" name="env_stretch"/>
                                <par_bool value="yes" name="forced_release"/>
                                <par_bool value="no" name="linear_envelope"/>
                                <par value="19" name="A_dt"/>
                                <par value="40" name="D_dt"/>
                                <par value="49" name="R_dt"/>
                                <par value="64" name="A_val"/>
                                <par value="64" name="D_val"/>
                                <par value="127" name="S_val"/>
                                <par value="64" name="R_val"/>
                              </AMPLITUDE_ENVELOPE>
                            </AMPLITUDE_PARAMETERS>
                            <FREQUENCY_PARAMETERS>
                              <par_bool value="no" name="fixed_freq"/>
                              <par value="0" name="fixed_freq_et"/>
                              <par value="8192" name="detune"/>
                              <par value="0" name="coarse_detune"/>
                              <par value="0" name="overtone_spread_type"/>
                              <par value="0" name="overtone_spread_par1"/>
                              <par value="0" name="overtone_spread_par2"/>
                              <par value="0" name="overtone_spread_par3"/>
                              <par value="1" name="detune_type"/>
                              <par value="69" name="bandwidth"/>
                              <par value="64" name="bandwidth_scale"/>
                              <par_bool value="no" name="freq_envelope_enabled"/>
                              <par_bool value="no" name="band_width_envelope_enabled"/>
                            </FREQUENCY_PARAMETERS>
                            <FILTER_PARAMETERS>
                              <par_bool value="no" name="enabled"/>
                            </FILTER_PARAMETERS>
                          </SUB_SYNTH_PARAMETERS>
                          <par_bool value="no" name="pad_enabled"/>
                        </INSTRUMENT_KIT_ITEM>
                        <INSTRUMENT_KIT_ITEM id="1">
                          <par_bool value="no" name="enabled"/>
                        </INSTRUMENT_KIT_ITEM>
                        <INSTRUMENT_KIT_ITEM id="2">
                          <par_bool value="no" name="enabled"/>
                        </INSTRUMENT_KIT_ITEM>
                        <INSTRUMENT_KIT_ITEM id="3">
                          <par_bool value="no" name="enabled"/>
                        </INSTRUMENT_KIT_ITEM>
                        <INSTRUMENT_KIT_ITEM id="4">
                          <par_bool value="no" name="enabled"/>
                        </INSTRUMENT_KIT_ITEM>
                        <INSTRUMENT_KIT_ITEM id="5">
                          <par_bool value="no" name="enabled"/>
                        </INSTRUMENT_KIT_ITEM>
                        <INSTRUMENT_KIT_ITEM id="6">
                          <par_bool value="no" name="enabled"/>
                        </INSTRUMENT_KIT_ITEM>
                        <INSTRUMENT_KIT_ITEM id="7">
                          <par_bool value="no" name="enabled"/>
                        </INSTRUMENT_KIT_ITEM>
                        <INSTRUMENT_KIT_ITEM id="8">
                          <par_bool value="no" name="enabled"/>
                        </INSTRUMENT_KIT_ITEM>
                        <INSTRUMENT_KIT_ITEM id="9">
                          <par_bool value="no" name="enabled"/>
                        </INSTRUMENT_KIT_ITEM>
                        <INSTRUMENT_KIT_ITEM id="10">
                          <par_bool value="no" name="enabled"/>
                        </INSTRUMENT_KIT_ITEM>
                        <INSTRUMENT_KIT_ITEM id="11">
                          <par_bool value="no" name="enabled"/>
                        </INSTRUMENT_KIT_ITEM>
                        <INSTRUMENT_KIT_ITEM id="12">
                          <par_bool value="no" name="enabled"/>
                        </INSTRUMENT_KIT_ITEM>
                        <INSTRUMENT_KIT_ITEM id="13">
                          <par_bool value="no" name="enabled"/>
                        </INSTRUMENT_KIT_ITEM>
                        <INSTRUMENT_KIT_ITEM id="14">
                          <par_bool value="no" name="enabled"/>
                        </INSTRUMENT_KIT_ITEM>
                        <INSTRUMENT_KIT_ITEM id="15">
                          <par_bool value="no" name="enabled"/>
                        </INSTRUMENT_KIT_ITEM>
                      </INSTRUMENT_KIT>
                      <INSTRUMENT_EFFECTS>
                        <INSTRUMENT_EFFECT id="0">
                          <EFFECT>
                            <par value="0" name="type"/>
                          </EFFECT>
                          <par value="0" name="route"/>
                          <par_bool value="no" name="bypass"/>
                        </INSTRUMENT_EFFECT>
                        <INSTRUMENT_EFFECT id="1">
                          <EFFECT>
                            <par value="0" name="type"/>
                          </EFFECT>
                          <par value="0" name="route"/>
                          <par_bool value="no" name="bypass"/>
                        </INSTRUMENT_EFFECT>
                        <INSTRUMENT_EFFECT id="2">
                          <EFFECT>
                            <par value="0" name="type"/>
                          </EFFECT>
                          <par value="0" name="route"/>
                          <par_bool value="no" name="bypass"/>
                        </INSTRUMENT_EFFECT>
                      </INSTRUMENT_EFFECTS>
                    </INSTRUMENT>
                    <CONTROLLER>
                      <par value="100" name="pitchwheel_bendrange"/>
                      <par_bool value="yes" name="expression_receive"/>
                      <par value="64" name="panning_depth"/>
                      <par value="64" name="filter_cutoff_depth"/>
                      <par value="64" name="filter_q_depth"/>
                      <par value="64" name="bandwidth_depth"/>
                      <par value="80" name="mod_wheel_depth"/>
                      <par_bool value="no" name="mod_wheel_exponential"/>
                      <par_bool value="yes" name="fm_amp_receive"/>
                      <par_bool value="yes" name="volume_receive"/>
                      <par_bool value="yes" name="sustain_receive"/>
                      <par_bool value="yes" name="portamento_receive"/>
                      <par value="64" name="portamento_time"/>
                      <par value="3" name="portamento_pitchthresh"/>
                      <par value="1" name="portamento_pitchthreshtype"/>
                      <par value="0" name="portamento_portamento"/>
                      <par value="64" name="portamento_updowntimestretch"/>
                      <par value="0" name="portamento_proportional"/>
                      <par value="80" name="portamento_proprate"/>
                      <par value="90" name="portamento_propdepth"/>
                      <par value="64" name="resonance_center_depth"/>
                      <par value="64" name="resonance_bandwidth_depth"/>
                    </CONTROLLER>
                  </PART>
                  <PART id="1">
                    <par_bool value="no" name="enabled"/>
                  </PART>
                  <PART id="2">
                    <par_bool value="no" name="enabled"/>
                  </PART>
                  <PART id="3">
                    <par_bool value="no" name="enabled"/>
                  </PART>
                  <PART id="4">
                    <par_bool value="no" name="enabled"/>
                  </PART>
                  <PART id="5">
                    <par_bool value="no" name="enabled"/>
                  </PART>
                  <PART id="6">
                    <par_bool value="no" name="enabled"/>
                  </PART>
                  <PART id="7">
                    <par_bool value="no" name="enabled"/>
                  </PART>
                  <PART id="8">
                    <par_bool value="no" name="enabled"/>
                  </PART>
                  <PART id="9">
                    <par_bool value="no" name="enabled"/>
                  </PART>
                  <PART id="10">
                    <par_bool value="no" name="enabled"/>
                  </PART>
                  <PART id="11">
                    <par_bool value="no" name="enabled"/>
                  </PART>
                  <PART id="12">
                    <par_bool value="no" name="enabled"/>
                  </PART>
                  <PART id="13">
                    <par_bool value="no" name="enabled"/>
                  </PART>
                  <PART id="14">
                    <par_bool value="no" name="enabled"/>
                  </PART>
                  <PART id="15">
                    <par_bool value="no" name="enabled"/>
                  </PART>
                  <SYSTEM_EFFECTS>
                    <SYSTEM_EFFECT id="0">
                      <EFFECT>
                        <par value="0" name="type"/>
                      </EFFECT>
                      <VOLUME id="0">
                        <par value="0" name="vol"/>
                      </VOLUME>
                      <VOLUME id="1">
                        <par value="0" name="vol"/>
                      </VOLUME>
                      <VOLUME id="2">
                        <par value="0" name="vol"/>
                      </VOLUME>
                      <VOLUME id="3">
                        <par value="0" name="vol"/>
                      </VOLUME>
                      <VOLUME id="4">
                        <par value="0" name="vol"/>
                      </VOLUME>
                      <VOLUME id="5">
                        <par value="0" name="vol"/>
                      </VOLUME>
                      <VOLUME id="6">
                        <par value="0" name="vol"/>
                      </VOLUME>
                      <VOLUME id="7">
                        <par value="0" name="vol"/>
                      </VOLUME>
                      <VOLUME id="8">
                        <par value="0" name="vol"/>
                      </VOLUME>
                      <VOLUME id="9">
                        <par value="0" name="vol"/>
                      </VOLUME>
                      <VOLUME id="10">
                        <par value="0" name="vol"/>
                      </VOLUME>
                      <VOLUME id="11">
                        <par value="0" name="vol"/>
                      </VOLUME>
                      <VOLUME id="12">
                        <par value="0" name="vol"/>
                      </VOLUME>
                      <VOLUME id="13">
                        <par value="0" name="vol"/>
                      </VOLUME>
                      <VOLUME id="14">
                        <par value="0" name="vol"/>
                      </VOLUME>
                      <VOLUME id="15">
                        <par value="0" name="vol"/>
                      </VOLUME>
                      <SENDTO id="1">
                        <par value="0" name="send_vol"/>
                      </SENDTO>
                      <SENDTO id="2">
                        <par value="0" name="send_vol"/>
                      </SENDTO>
                      <SENDTO id="3">
                        <par value="0" name="send_vol"/>
                      </SENDTO>
                    </SYSTEM_EFFECT>
                    <SYSTEM_EFFECT id="1">
                      <EFFECT>
                        <par value="0" name="type"/>
                      </EFFECT>
                      <VOLUME id="0">
                        <par value="0" name="vol"/>
                      </VOLUME>
                      <VOLUME id="1">
                        <par value="0" name="vol"/>
                      </VOLUME>
                      <VOLUME id="2">
                        <par value="0" name="vol"/>
                      </VOLUME>
                      <VOLUME id="3">
                        <par value="0" name="vol"/>
                      </VOLUME>
                      <VOLUME id="4">
                        <par value="0" name="vol"/>
                      </VOLUME>
                      <VOLUME id="5">
                        <par value="0" name="vol"/>
                      </VOLUME>
                      <VOLUME id="6">
                        <par value="0" name="vol"/>
                      </VOLUME>
                      <VOLUME id="7">
                        <par value="0" name="vol"/>
                      </VOLUME>
                      <VOLUME id="8">
                        <par value="0" name="vol"/>
                      </VOLUME>
                      <VOLUME id="9">
                        <par value="0" name="vol"/>
                      </VOLUME>
                      <VOLUME id="10">
                        <par value="0" name="vol"/>
                      </VOLUME>
                      <VOLUME id="11">
                        <par value="0" name="vol"/>
                      </VOLUME>
                      <VOLUME id="12">
                        <par value="0" name="vol"/>
                      </VOLUME>
                      <VOLUME id="13">
                        <par value="0" name="vol"/>
                      </VOLUME>
                      <VOLUME id="14">
                        <par value="0" name="vol"/>
                      </VOLUME>
                      <VOLUME id="15">
                        <par value="0" name="vol"/>
                      </VOLUME>
                      <SENDTO id="2">
                        <par value="0" name="send_vol"/>
                      </SENDTO>
                      <SENDTO id="3">
                        <par value="0" name="send_vol"/>
                      </SENDTO>
                    </SYSTEM_EFFECT>
                    <SYSTEM_EFFECT id="2">
                      <EFFECT>
                        <par value="0" name="type"/>
                      </EFFECT>
                      <VOLUME id="0">
                        <par value="0" name="vol"/>
                      </VOLUME>
                      <VOLUME id="1">
                        <par value="0" name="vol"/>
                      </VOLUME>
                      <VOLUME id="2">
                        <par value="0" name="vol"/>
                      </VOLUME>
                      <VOLUME id="3">
                        <par value="0" name="vol"/>
                      </VOLUME>
                      <VOLUME id="4">
                        <par value="0" name="vol"/>
                      </VOLUME>
                      <VOLUME id="5">
                        <par value="0" name="vol"/>
                      </VOLUME>
                      <VOLUME id="6">
                        <par value="0" name="vol"/>
                      </VOLUME>
                      <VOLUME id="7">
                        <par value="0" name="vol"/>
                      </VOLUME>
                      <VOLUME id="8">
                        <par value="0" name="vol"/>
                      </VOLUME>
                      <VOLUME id="9">
                        <par value="0" name="vol"/>
                      </VOLUME>
                      <VOLUME id="10">
                        <par value="0" name="vol"/>
                      </VOLUME>
                      <VOLUME id="11">
                        <par value="0" name="vol"/>
                      </VOLUME>
                      <VOLUME id="12">
                        <par value="0" name="vol"/>
                      </VOLUME>
                      <VOLUME id="13">
                        <par value="0" name="vol"/>
                      </VOLUME>
                      <VOLUME id="14">
                        <par value="0" name="vol"/>
                      </VOLUME>
                      <VOLUME id="15">
                        <par value="0" name="vol"/>
                      </VOLUME>
                      <SENDTO id="3">
                        <par value="0" name="send_vol"/>
                      </SENDTO>
                    </SYSTEM_EFFECT>
                    <SYSTEM_EFFECT id="3">
                      <EFFECT>
                        <par value="0" name="type"/>
                      </EFFECT>
                      <VOLUME id="0">
                        <par value="0" name="vol"/>
                      </VOLUME>
                      <VOLUME id="1">
                        <par value="0" name="vol"/>
                      </VOLUME>
                      <VOLUME id="2">
                        <par value="0" name="vol"/>
                      </VOLUME>
                      <VOLUME id="3">
                        <par value="0" name="vol"/>
                      </VOLUME>
                      <VOLUME id="4">
                        <par value="0" name="vol"/>
                      </VOLUME>
                      <VOLUME id="5">
                        <par value="0" name="vol"/>
                      </VOLUME>
                      <VOLUME id="6">
                        <par value="0" name="vol"/>
                      </VOLUME>
                      <VOLUME id="7">
                        <par value="0" name="vol"/>
                      </VOLUME>
                      <VOLUME id="8">
                        <par value="0" name="vol"/>
                      </VOLUME>
                      <VOLUME id="9">
                        <par value="0" name="vol"/>
                      </VOLUME>
                      <VOLUME id="10">
                        <par value="0" name="vol"/>
                      </VOLUME>
                      <VOLUME id="11">
                        <par value="0" name="vol"/>
                      </VOLUME>
                      <VOLUME id="12">
                        <par value="0" name="vol"/>
                      </VOLUME>
                      <VOLUME id="13">
                        <par value="0" name="vol"/>
                      </VOLUME>
                      <VOLUME id="14">
                        <par value="0" name="vol"/>
                      </VOLUME>
                      <VOLUME id="15">
                        <par value="0" name="vol"/>
                      </VOLUME>
                    </SYSTEM_EFFECT>
                  </SYSTEM_EFFECTS>
                  <INSERTION_EFFECTS>
                    <INSERTION_EFFECT id="0">
                      <par value="-1" name="part"/>
                      <EFFECT>
                        <par value="0" name="type"/>
                      </EFFECT>
                    </INSERTION_EFFECT>
                    <INSERTION_EFFECT id="1">
                      <par value="-1" name="part"/>
                      <EFFECT>
                        <par value="0" name="type"/>
                      </EFFECT>
                    </INSERTION_EFFECT>
                    <INSERTION_EFFECT id="2">
                      <par value="-1" name="part"/>
                      <EFFECT>
                        <par value="0" name="type"/>
                      </EFFECT>
                    </INSERTION_EFFECT>
                    <INSERTION_EFFECT id="3">
                      <par value="-1" name="part"/>
                      <EFFECT>
                        <par value="0" name="type"/>
                      </EFFECT>
                    </INSERTION_EFFECT>
                    <INSERTION_EFFECT id="4">
                      <par value="-1" name="part"/>
                      <EFFECT>
                        <par value="0" name="type"/>
                      </EFFECT>
                    </INSERTION_EFFECT>
                    <INSERTION_EFFECT id="5">
                      <par value="-1" name="part"/>
                      <EFFECT>
                        <par value="0" name="type"/>
                      </EFFECT>
                    </INSERTION_EFFECT>
                    <INSERTION_EFFECT id="6">
                      <par value="-1" name="part"/>
                      <EFFECT>
                        <par value="0" name="type"/>
                      </EFFECT>
                    </INSERTION_EFFECT>
                    <INSERTION_EFFECT id="7">
                      <par value="-1" name="part"/>
                      <EFFECT>
                        <par value="0" name="type"/>
                      </EFFECT>
                    </INSERTION_EFFECT>
                  </INSERTION_EFFECTS>
                </MASTER>
              </ZynAddSubFX-data>
            </zynaddsubfx>
          </instrument>
          <eldata ftype="0" fres="0.5" fcut="14000" fwet="0">
            <elvol lamt="0" x100="0" pdel="0" lshp="0" sustain="0.5" amt="0" att="0" hold="0.5" ctlenvamt="0" dec="0.5" lspd_denominator="4" rel="0.1" lspd="0.1" latt="0" userwavefile="" lspd_numerator="4" lspd_syncmode="0" lpdel="0"/>
            <elcut lamt="0" x100="0" pdel="0" lshp="0" sustain="0.5" amt="0" att="0" hold="0.5" ctlenvamt="0" dec="0.5" lspd_denominator="4" rel="0.1" lspd="0.1" latt="0" userwavefile="" lspd_numerator="4" lspd_syncmode="0" lpdel="0"/>
            <elres lamt="0" x100="0" pdel="0" lshp="0" sustain="0.5" amt="0" att="0" hold="0.5" ctlenvamt="0" dec="0.5" lspd_denominator="4" rel="0.1" lspd="0.1" latt="0" userwavefile="" lspd_numerator="4" lspd_syncmode="0" lpdel="0"/>
          </eldata>
          <chordcreator chord-enabled="0" chordrange="1" chord="0"/>
          <arpeggiator arpdir="0" arptime="200" arpcycle="0" arpmode="0" arpmiss="0" arp-enabled="0" arprange="1" arpskip="0" arp="0" arptime_syncmode="0" arptime_numerator="4" arpgate="100" arptime_denominator="4"/>
          <midiport inputchannel="0" outputchannel="1" inputcontroller="0" outputprogram="1" readable="0" writable="0" fixedinputvelocity="-1" outputcontroller="0" fixedoutputvelocity="-1" basevelocity="63" fixedoutputnote="-1"/>
          <fxchain numofeffects="1" enabled="1">
            <effect wet="0.25999999" gate="0" autoquit="1" name="stereomatrix" autoquit_numerator="4" autoquit_denominator="4" on="1" autoquit_syncmode="0">
              <stereomatrixcontrols l-r="0.97999996" r-r="1" r-l="-1" l-l="1"/>
              <key/>
            </effect>
          </fxchain>
        </instrumenttrack>
        <pattern muted="0" pos="1536" name="Simple and quiet" type="1" steps="16">
          <note pos="0" pan="0" len="768" key="64" vol="27"/>
          <note pos="0" pan="0" len="768" key="60" vol="27"/>
          <note pos="0" pan="0" len="768" key="57" vol="27"/>
          <note pos="768" pan="0" len="768" key="63" vol="27"/>
          <note pos="768" pan="0" len="768" key="59" vol="27"/>
          <note pos="768" pan="0" len="768" key="56" vol="27"/>
        </pattern>
        <pattern muted="0" pos="3072" name="Simple and quiet" type="1" steps="16">
          <note pos="0" pan="0" len="768" key="64" vol="27"/>
          <note pos="0" pan="0" len="768" key="60" vol="27"/>
          <note pos="0" pan="0" len="768" key="57" vol="27"/>
          <note pos="768" pan="0" len="768" key="63" vol="27"/>
          <note pos="768" pan="0" len="768" key="59" vol="27"/>
          <note pos="768" pan="0" len="768" key="56" vol="27"/>
        </pattern>
        <pattern muted="0" pos="6144" name="Choir" type="1" steps="16">
          <note pos="0" pan="0" len="768" key="64" vol="97"/>
          <note pos="0" pan="0" len="768" key="60" vol="97"/>
          <note pos="0" pan="0" len="768" key="57" vol="97"/>
          <note pos="384" pan="0" len="384" key="67" vol="97"/>
          <note pos="768" pan="0" len="384" key="66" vol="97"/>
          <note pos="768" pan="0" len="768" key="63" vol="97"/>
          <note pos="768" pan="0" len="768" key="59" vol="97"/>
          <note pos="768" pan="0" len="768" key="56" vol="97"/>
        </pattern>
        <pattern muted="0" pos="9216" name="Choir" type="1" steps="16">
          <note pos="0" pan="0" len="768" key="64" vol="97"/>
          <note pos="0" pan="0" len="768" key="60" vol="97"/>
          <note pos="0" pan="0" len="768" key="57" vol="97"/>
          <note pos="384" pan="0" len="384" key="67" vol="97"/>
          <note pos="768" pan="0" len="384" key="66" vol="97"/>
          <note pos="768" pan="0" len="768" key="63" vol="97"/>
          <note pos="768" pan="0" len="768" key="59" vol="97"/>
          <note pos="768" pan="0" len="768" key="56" vol="97"/>
        </pattern>
        <pattern muted="0" pos="7680" name="Choir" type="1" steps="16">
          <note pos="0" pan="0" len="768" key="64" vol="97"/>
          <note pos="0" pan="0" len="768" key="60" vol="97"/>
          <note pos="0" pan="0" len="768" key="57" vol="97"/>
          <note pos="384" pan="0" len="384" key="67" vol="97"/>
          <note pos="768" pan="0" len="384" key="66" vol="97"/>
          <note pos="768" pan="0" len="768" key="63" vol="97"/>
          <note pos="768" pan="0" len="768" key="59" vol="97"/>
          <note pos="768" pan="0" len="768" key="56" vol="97"/>
        </pattern>
        <pattern muted="0" pos="10752" name="Choir" type="1" steps="16">
          <note pos="0" pan="0" len="768" key="64" vol="97"/>
          <note pos="0" pan="0" len="768" key="60" vol="97"/>
          <note pos="0" pan="0" len="768" key="57" vol="97"/>
          <note pos="384" pan="0" len="384" key="67" vol="97"/>
          <note pos="768" pan="0" len="384" key="66" vol="97"/>
          <note pos="768" pan="0" len="768" key="63" vol="97"/>
          <note pos="768" pan="0" len="768" key="59" vol="97"/>
          <note pos="768" pan="0" len="768" key="56" vol="97"/>
        </pattern>
        <pattern muted="0" pos="4608" name="Simple and quiet" type="1" steps="16">
          <note pos="0" pan="0" len="768" key="64" vol="27"/>
          <note pos="0" pan="0" len="768" key="60" vol="27"/>
          <note pos="0" pan="0" len="768" key="57" vol="27"/>
          <note pos="768" pan="0" len="768" key="63" vol="27"/>
          <note pos="768" pan="0" len="768" key="59" vol="27"/>
          <note pos="768" pan="0" len="768" key="56" vol="27"/>
        </pattern>
        <pattern muted="0" pos="12288" name="Choir" type="1" steps="16">
          <note pos="0" pan="0" len="768" key="64" vol="97"/>
          <note pos="0" pan="0" len="768" key="60" vol="97"/>
          <note pos="0" pan="0" len="768" key="57" vol="97"/>
          <note pos="384" pan="0" len="384" key="67" vol="97"/>
          <note pos="768" pan="0" len="384" key="66" vol="97"/>
          <note pos="768" pan="0" len="768" key="63" vol="97"/>
          <note pos="768" pan="0" len="768" key="59" vol="97"/>
          <note pos="768" pan="0" len="768" key="56" vol="97"/>
        </pattern>
        <pattern muted="0" pos="13824" name="Choir" type="1" steps="16">
          <note pos="0" pan="0" len="768" key="64" vol="97"/>
          <note pos="0" pan="0" len="768" key="60" vol="97"/>
          <note pos="0" pan="0" len="768" key="57" vol="97"/>
          <note pos="384" pan="0" len="384" key="67" vol="97"/>
          <note pos="768" pan="0" len="384" key="68" vol="97"/>
          <note pos="768" pan="0" len="384" key="63" vol="97"/>
          <note pos="768" pan="0" len="768" key="59" vol="97"/>
          <note pos="768" pan="0" len="768" key="56" vol="97"/>
          <note pos="1152" pan="0" len="384" key="63" vol="140"/>
        </pattern>
        <pattern muted="0" pos="15360" name="Choir" type="1" steps="16">
          <note pos="0" pan="0" len="768" key="64" vol="97"/>
          <note pos="0" pan="0" len="768" key="60" vol="97"/>
          <note pos="0" pan="0" len="768" key="57" vol="97"/>
          <note pos="384" pan="0" len="384" key="67" vol="97"/>
          <note pos="768" pan="0" len="384" key="66" vol="97"/>
          <note pos="768" pan="0" len="768" key="63" vol="97"/>
          <note pos="768" pan="0" len="768" key="59" vol="97"/>
          <note pos="768" pan="0" len="768" key="56" vol="97"/>
        </pattern>
        <pattern muted="0" pos="16896" name="Choir" type="1" steps="16">
          <note pos="0" pan="0" len="768" key="64" vol="97"/>
          <note pos="0" pan="0" len="768" key="60" vol="97"/>
          <note pos="0" pan="0" len="768" key="57" vol="97"/>
          <note pos="384" pan="0" len="384" key="67" vol="97"/>
          <note pos="768" pan="0" len="384" key="66" vol="97"/>
          <note pos="768" pan="0" len="768" key="63" vol="97"/>
          <note pos="768" pan="0" len="768" key="59" vol="97"/>
          <note pos="768" pan="0" len="768" key="56" vol="97"/>
        </pattern>
      </track>
      <track muted="0" solo="0" name="Beat/Bassline 2" type="1">
        <bbtrack>
          <trackcontainer height="400" minimized="0" width="701" y="394" x="75" maximized="0" type="bbtrackcontainer" visible="0">
            <track muted="0" solo="0" name="kick01.ogg" type="0">
              <instrumenttrack fxch="3" pitch="0" pan="-12" vol="30" usemasterpitch="1" pitchrange="1" basenote="56">
                <instrument name="audiofileprocessor">
                  <audiofileprocessor lframe="0" reversed="0" looped="0" eframe="1" interp="1" stutter="0" src="drums/kick01.ogg" sframe="0" amp="100"/>
                </instrument>
                <eldata ftype="0" fres="0.5" fcut="14000" fwet="1">
                  <elvol lamt="0" x100="0" pdel="0" lshp="0" sustain="0.5" amt="1" att="0" hold="0.2" ctlenvamt="0" dec="0.5" lspd_denominator="4" rel="0.1" lspd="0.1" latt="0" userwavefile="" lspd_numerator="4" lspd_syncmode="0" lpdel="0"/>
                  <elcut lamt="0" x100="0" pdel="0" lshp="0" sustain="0.5" amt="0" att="0" hold="0.5" ctlenvamt="0" dec="0.5" lspd_denominator="4" rel="0.1" lspd="0.1" latt="0" userwavefile="" lspd_numerator="4" lspd_syncmode="0" lpdel="0"/>
                  <elres lamt="0" x100="0" pdel="0" lshp="0" sustain="0.5" amt="0" att="0" hold="0.5" ctlenvamt="0" dec="0.5" lspd_denominator="4" rel="0.1" lspd="0.1" latt="0" userwavefile="" lspd_numerator="4" lspd_syncmode="0" lpdel="0"/>
                </eldata>
                <chordcreator chord-enabled="0" chordrange="1" chord="0"/>
                <arpeggiator arpdir="0" arptime="100" arpcycle="0" arpmode="0" arpmiss="0" arp-enabled="0" arprange="1" arpskip="0" arp="0" arptime_syncmode="0" arptime_numerator="4" arpgate="100" arptime_denominator="4"/>
                <midiport inputchannel="0" outputchannel="1" inputcontroller="0" outputprogram="1" readable="0" writable="0" fixedinputvelocity="-1" outputcontroller="0" fixedoutputvelocity="-1" basevelocity="63" fixedoutputnote="-1"/>
                <fxchain numofeffects="2" enabled="1">
                  <effect wet="1" gate="0" autoquit="1" name="ladspaeffect" autoquit_numerator="4" autoquit_denominator="4" on="1" autoquit_syncmode="0">
                    <ladspacontrols ports="4" link="1">
                      <port00 data="30" link="1"/>
                      <port01 data="-5" link="1"/>
                      <port10 data="30"/>
                      <port11 data="-5"/>
                    </ladspacontrols>
                    <key>
                      <attribute value="satan_maximiser_1408" name="file"/>
                      <attribute value="satanMaximiser" name="plugin"/>
                    </key>
                  </effect>
                  <effect wet="1" gate="0" autoquit="1" name="ladspaeffect" autoquit_numerator="4" autoquit_denominator="4" on="1" autoquit_syncmode="0">
                    <ladspacontrols ports="10">
                      <port00 data="20"/>
                      <port01 data="0"/>
                      <port02 data="50"/>
                      <port03 data="0"/>
                      <port04 data="0"/>
                      <port05 data="0"/>
                      <port06 data="0"/>
                      <port07 data="1"/>
                      <port08 data="1"/>
                      <port09 data="0"/>
                    </ladspacontrols>
                    <key>
                      <attribute value="tap_echo" name="file"/>
                      <attribute value="tap_stereo_echo" name="plugin"/>
                    </key>
                  </effect>
                </fxchain>
              </instrumenttrack>
              <pattern muted="0" pos="0" name="kick01.ogg" type="0" steps="64">
                <note pos="0" pan="0" len="-192" key="57" vol="100"/>
                <note pos="12" pan="0" len="-192" key="57" vol="5"/>
                <note pos="24" pan="0" len="-192" key="57" vol="5"/>
                <note pos="36" pan="0" len="-192" key="57" vol="100"/>
                <note pos="60" pan="0" len="-192" key="57" vol="5"/>
                <note pos="72" pan="0" len="-192" key="57" vol="5"/>
                <note pos="84" pan="0" len="-192" key="57" vol="20"/>
                <note pos="96" pan="0" len="-192" key="57" vol="100"/>
                <note pos="108" pan="0" len="-192" key="57" vol="5"/>
                <note pos="120" pan="0" len="-192" key="57" vol="5"/>
                <note pos="132" pan="0" len="-192" key="57" vol="100"/>
                <note pos="156" pan="0" len="-192" key="57" vol="5"/>
                <note pos="168" pan="0" len="-192" key="57" vol="5"/>
                <note pos="180" pan="0" len="-192" key="57" vol="20"/>
                <note pos="192" pan="0" len="-192" key="57" vol="100"/>
                <note pos="204" pan="0" len="-192" key="57" vol="5"/>
                <note pos="216" pan="0" len="-192" key="57" vol="5"/>
                <note pos="228" pan="0" len="-192" key="57" vol="100"/>
                <note pos="252" pan="0" len="-192" key="57" vol="5"/>
                <note pos="264" pan="0" len="-192" key="57" vol="5"/>
                <note pos="276" pan="0" len="-192" key="57" vol="20"/>
                <note pos="288" pan="0" len="-192" key="57" vol="100"/>
                <note pos="300" pan="0" len="-192" key="57" vol="5"/>
                <note pos="312" pan="0" len="-192" key="57" vol="5"/>
                <note pos="324" pan="0" len="-192" key="57" vol="100"/>
                <note pos="348" pan="0" len="-192" key="57" vol="5"/>
                <note pos="360" pan="0" len="-192" key="57" vol="100"/>
                <note pos="384" pan="0" len="-192" key="57" vol="100"/>
                <note pos="396" pan="0" len="-192" key="57" vol="5"/>
                <note pos="408" pan="0" len="-192" key="57" vol="5"/>
                <note pos="420" pan="0" len="-192" key="57" vol="100"/>
                <note pos="444" pan="0" len="-192" key="57" vol="5"/>
                <note pos="456" pan="0" len="-192" key="57" vol="5"/>
                <note pos="468" pan="0" len="-192" key="57" vol="20"/>
                <note pos="480" pan="0" len="-192" key="57" vol="100"/>
                <note pos="492" pan="0" len="-192" key="57" vol="5"/>
                <note pos="504" pan="0" len="-192" key="57" vol="5"/>
                <note pos="516" pan="0" len="-192" key="57" vol="100"/>
                <note pos="540" pan="0" len="-192" key="57" vol="5"/>
                <note pos="552" pan="0" len="-192" key="57" vol="5"/>
                <note pos="564" pan="0" len="-192" key="57" vol="20"/>
                <note pos="576" pan="0" len="-192" key="57" vol="100"/>
                <note pos="588" pan="0" len="-192" key="57" vol="5"/>
                <note pos="600" pan="0" len="-192" key="57" vol="5"/>
                <note pos="612" pan="0" len="-192" key="57" vol="100"/>
                <note pos="636" pan="0" len="-192" key="57" vol="5"/>
                <note pos="648" pan="0" len="-192" key="57" vol="5"/>
                <note pos="660" pan="0" len="-192" key="57" vol="20"/>
                <note pos="672" pan="0" len="-192" key="57" vol="100"/>
                <note pos="684" pan="0" len="-192" key="57" vol="5"/>
                <note pos="696" pan="0" len="-192" key="57" vol="5"/>
                <note pos="708" pan="0" len="-192" key="57" vol="100"/>
                <note pos="732" pan="0" len="-192" key="57" vol="5"/>
                <note pos="744" pan="0" len="-192" key="57" vol="100"/>
              </pattern>
              <pattern muted="0" pos="192" name="kick01.ogg" type="0" steps="16"/>
              <pattern muted="0" pos="384" name="kick01.ogg" type="0" steps="16"/>
            </track>
            <track muted="0" solo="0" name="Dubstep snare (short decay).wav" type="0">
              <instrumenttrack fxch="3" pitch="0" pan="0" vol="32.799999" usemasterpitch="1" pitchrange="1" basenote="57">
                <instrument name="audiofileprocessor">
                  <audiofileprocessor lframe="0" reversed="0" looped="0" eframe="1" interp="1" stutter="0" src="gig/Dubstep snare (short decay).wav" sframe="0" amp="100"/>
                </instrument>
                <eldata ftype="10" fres="10" fcut="200" fwet="0">
                  <elvol lamt="0" x100="0" pdel="0" lshp="0" sustain="0" amt="1" att="0" hold="0" ctlenvamt="0" dec="0.35000002" lspd_denominator="4" rel="0.1" lspd="0.1" latt="0" userwavefile="" lspd_numerator="4" lspd_syncmode="0" lpdel="0"/>
                  <elcut lamt="0" x100="0" pdel="0" lshp="0" sustain="0" amt="0" att="0" hold="0.034000002" ctlenvamt="0" dec="0.061999999" lspd_denominator="4" rel="0.198" lspd="0.1" latt="0" userwavefile="" lspd_numerator="4" lspd_syncmode="0" lpdel="0"/>
                  <elres lamt="0" x100="0" pdel="0" lshp="0" sustain="0.5" amt="0" att="0" hold="0.5" ctlenvamt="0" dec="0.5" lspd_denominator="4" rel="0.1" lspd="0.1" latt="0" userwavefile="" lspd_numerator="4" lspd_syncmode="0" lpdel="0"/>
                </eldata>
                <chordcreator chord-enabled="0" chordrange="1" chord="0"/>
                <arpeggiator arpdir="0" arptime="100" arpcycle="0" arpmode="0" arpmiss="0" arp-enabled="0" arprange="1" arpskip="0" arp="0" arptime_syncmode="0" arptime_numerator="4" arpgate="100" arptime_denominator="4"/>
                <midiport inputchannel="0" outputchannel="1" inputcontroller="0" outputprogram="1" readable="0" writable="0" fixedinputvelocity="-1" outputcontroller="0" fixedoutputvelocity="-1" basevelocity="63" fixedoutputnote="-1"/>
                <fxchain numofeffects="2" enabled="1">
                  <effect wet="1" gate="0" autoquit="1" name="ladspaeffect" autoquit_numerator="4" autoquit_denominator="4" on="0" autoquit_syncmode="0">
                    <ladspacontrols ports="7">
                      <port00 data="1.25"/>
                      <port01 data="90"/>
                      <port02 data="75"/>
                      <port03 data="25"/>
                      <port04 data="100"/>
                      <port05 data="0"/>
                      <port06 data="0"/>
                    </ladspacontrols>
                    <key>
                      <attribute value="tap_chorusflanger" name="file"/>
                      <attribute value="tap_chorusflanger" name="plugin"/>
                    </key>
                  </effect>
                  <effect wet="1" gate="0" autoquit="1" name="ladspaeffect" autoquit_numerator="4" autoquit_denominator="4" on="0" autoquit_syncmode="0">
                    <ladspacontrols ports="13">
                      <port04 data="0"/>
                      <port05 data="1"/>
                      <port06 data="1"/>
                      <port07 data="1"/>
                      <port012 data="5.0500002"/>
                      <port013 data="10"/>
                      <port015>
                        <data id="3101030" scale_type="log" value="20000"/>
                      </port015>
                      <port016>
                        <data id="692951" scale_type="log" value="10"/>
                      </port016>
                      <port017>
                        <data id="2353953" scale_type="log" value="20000"/>
                      </port017>
                      <port018>
                        <data id="5956240" scale_type="log" value="10"/>
                      </port018>
                      <port019>
                        <data id="5928465" scale_type="log" value="2529.8223"/>
                      </port019>
                      <port020 data="1"/>
                      <port021>
                        <data id="6397583" scale_type="log" value="1"/>
                      </port021>
                    </ladspacontrols>
                    <key>
                      <attribute value="calf" name="file"/>
                      <attribute value="Saturator" name="plugin"/>
                    </key>
                  </effect>
                </fxchain>
              </instrumenttrack>
              <pattern muted="0" pos="0" name="Dubstep snare (short decay).wav" type="0" steps="64">
                <note pos="48" pan="0" len="-192" key="57" vol="100"/>
                <note pos="144" pan="0" len="-192" key="57" vol="100"/>
                <note pos="240" pan="0" len="-192" key="57" vol="100"/>
                <note pos="336" pan="0" len="-192" key="57" vol="100"/>
                <note pos="372" pan="0" len="-192" key="57" vol="100"/>
                <note pos="432" pan="0" len="-192" key="57" vol="100"/>
                <note pos="528" pan="0" len="-192" key="57" vol="100"/>
                <note pos="624" pan="0" len="-192" key="57" vol="100"/>
                <note pos="720" pan="0" len="-192" key="57" vol="100"/>
                <note pos="732" pan="0" len="-192" key="57" vol="100"/>
                <note pos="756" pan="0" len="-192" key="57" vol="100"/>
              </pattern>
              <pattern muted="0" pos="192" name="Dubstep snare (short decay).wav" type="0" steps="16"/>
              <pattern muted="0" pos="384" name="Dubstep snare (short decay).wav" type="0" steps="16"/>
            </track>
            <track muted="0" solo="0" name="snaph01.ogg" type="0">
              <instrumenttrack fxch="0" pitch="0" pan="0" vol="100" usemasterpitch="1" pitchrange="1" basenote="57">
                <instrument name="audiofileprocessor">
                  <audiofileprocessor lframe="0" reversed="0" looped="0" eframe="1" interp="1" stutter="0" src="misc/snaph01.ogg" sframe="0" amp="100"/>
                </instrument>
                <eldata ftype="0" fres="0.5" fcut="14000" fwet="0">
                  <elvol lamt="0" x100="0" pdel="0" lshp="0" sustain="0.5" amt="0" att="0" hold="0.5" ctlenvamt="0" dec="0.5" lspd_denominator="4" rel="0.1" lspd="0.1" latt="0" userwavefile="" lspd_numerator="4" lspd_syncmode="0" lpdel="0"/>
                  <elcut lamt="0" x100="0" pdel="0" lshp="0" sustain="0.5" amt="0" att="0" hold="0.5" ctlenvamt="0" dec="0.5" lspd_denominator="4" rel="0.1" lspd="0.1" latt="0" userwavefile="" lspd_numerator="4" lspd_syncmode="0" lpdel="0"/>
                  <elres lamt="0" x100="0" pdel="0" lshp="0" sustain="0.5" amt="0" att="0" hold="0.5" ctlenvamt="0" dec="0.5" lspd_denominator="4" rel="0.1" lspd="0.1" latt="0" userwavefile="" lspd_numerator="4" lspd_syncmode="0" lpdel="0"/>
                </eldata>
                <chordcreator chord-enabled="0" chordrange="1" chord="0"/>
                <arpeggiator arpdir="0" arptime="200" arpcycle="0" arpmode="0" arpmiss="0" arp-enabled="0" arprange="1" arpskip="0" arp="0" arptime_syncmode="0" arptime_numerator="4" arpgate="100" arptime_denominator="4"/>
                <midiport inputchannel="0" outputchannel="1" inputcontroller="0" outputprogram="1" readable="0" writable="0" fixedinputvelocity="-1" outputcontroller="0" fixedoutputvelocity="-1" basevelocity="63" fixedoutputnote="-1"/>
                <fxchain numofeffects="0" enabled="0"/>
              </instrumenttrack>
              <pattern muted="0" pos="0" name="snaph01.ogg" type="0" steps="64"/>
              <pattern muted="0" pos="192" name="snaph01.ogg" type="0" steps="16">
                <note pos="144" pan="0" len="-192" key="57" vol="100"/>
              </pattern>
              <pattern muted="0" pos="384" name="snaph01.ogg" type="0" steps="16"/>
            </track>
            <track muted="0" solo="0" name="ride01.ogg" type="0">
              <instrumenttrack fxch="0" pitch="0" vol="53.600002" usemasterpitch="1" pitchrange="1" basenote="57">
                <pan id="3444656" scale_type="linear" value="15.569141"/>
                <instrument name="audiofileprocessor">
                  <audiofileprocessor lframe="0" reversed="0" looped="0" eframe="1" interp="1" stutter="0" src="drums/ride01.ogg" sframe="0" amp="100"/>
                </instrument>
                <eldata ftype="0" fres="0.5" fcut="14000" fwet="0">
                  <elvol lamt="0" x100="0" pdel="0" lshp="0" sustain="0.5" amt="1" att="0" hold="0" ctlenvamt="0" dec="0.41200003" lspd_denominator="4" rel="0.40000001" lspd="0.1" latt="0" userwavefile="" lspd_numerator="4" lspd_syncmode="0" lpdel="0"/>
                  <elcut lamt="0" x100="0" pdel="0" lshp="0" sustain="0.5" amt="0" att="0" hold="0.5" ctlenvamt="0" dec="0.5" lspd_denominator="4" rel="0.1" lspd="0.1" latt="0" userwavefile="" lspd_numerator="4" lspd_syncmode="0" lpdel="0"/>
                  <elres lamt="0" x100="0" pdel="0" lshp="0" sustain="0.5" amt="0" att="0" hold="0.5" ctlenvamt="0" dec="0.5" lspd_denominator="4" rel="0.1" lspd="0.1" latt="0" userwavefile="" lspd_numerator="4" lspd_syncmode="0" lpdel="0"/>
                </eldata>
                <chordcreator chord-enabled="0" chordrange="1" chord="0"/>
                <arpeggiator arpdir="0" arptime="200" arpcycle="0" arpmode="0" arpmiss="0" arp-enabled="0" arprange="1" arpskip="0" arp="0" arptime_syncmode="0" arptime_numerator="4" arpgate="100" arptime_denominator="4"/>
                <midiport inputchannel="0" outputchannel="1" inputcontroller="0" outputprogram="1" readable="0" writable="0" fixedinputvelocity="-1" outputcontroller="0" fixedoutputvelocity="-1" basevelocity="63" fixedoutputnote="-1"/>
                <fxchain numofeffects="0" enabled="0"/>
              </instrumenttrack>
              <pattern muted="0" pos="0" name="ride01.ogg" type="0" steps="64"/>
              <pattern muted="0" pos="192" name="ride01.ogg" type="0" steps="16"/>
              <pattern muted="0" pos="384" name="ride01.ogg" type="0" steps="16">
                <note pos="0" pan="0" len="-192" key="57" vol="100"/>
                <note pos="24" pan="0" len="-192" key="57" vol="100"/>
                <note pos="48" pan="0" len="-192" key="57" vol="100"/>
                <note pos="72" pan="0" len="-192" key="57" vol="100"/>
                <note pos="96" pan="0" len="-192" key="57" vol="100"/>
                <note pos="120" pan="0" len="-192" key="57" vol="100"/>
                <note pos="144" pan="0" len="-192" key="57" vol="100"/>
                <note pos="168" pan="0" len="-192" key="57" vol="100"/>
              </pattern>
            </track>
            <track muted="0" solo="0" name="amen_ride.ds" type="0">
              <instrumenttrack fxch="0" pitch="0" pan="0" vol="10.400001" usemasterpitch="1" pitchrange="1" basenote="57">
                <instrument name="audiofileprocessor">
                  <audiofileprocessor lframe="0" reversed="0" looped="0" eframe="1" interp="1" stutter="0" src="drumsynth/misc_hats/amen_ride.ds" sframe="0" amp="100"/>
                </instrument>
                <eldata ftype="0" fres="0.5" fcut="14000" fwet="0">
                  <elvol lamt="0" x100="0" pdel="0" lshp="0" sustain="0.46000001" amt="1" att="0" hold="0" ctlenvamt="0" dec="0.65600002" lspd_denominator="4" rel="0.46000001" lspd="0.1" latt="0" userwavefile="" lspd_numerator="4" lspd_syncmode="0" lpdel="0"/>
                  <elcut lamt="0" x100="0" pdel="0" lshp="0" sustain="0.5" amt="0" att="0" hold="0.5" ctlenvamt="0" dec="0.5" lspd_denominator="4" rel="0.1" lspd="0.1" latt="0" userwavefile="" lspd_numerator="4" lspd_syncmode="0" lpdel="0"/>
                  <elres lamt="0" x100="0" pdel="0" lshp="0" sustain="0.5" amt="0" att="0" hold="0.5" ctlenvamt="0" dec="0.5" lspd_denominator="4" rel="0.1" lspd="0.1" latt="0" userwavefile="" lspd_numerator="4" lspd_syncmode="0" lpdel="0"/>
                </eldata>
                <chordcreator chord-enabled="0" chordrange="1" chord="0"/>
                <arpeggiator arpdir="0" arptime="200" arpcycle="0" arpmode="0" arpmiss="0" arp-enabled="0" arprange="1" arpskip="0" arp="0" arptime_syncmode="0" arptime_numerator="4" arpgate="100" arptime_denominator="4"/>
                <midiport inputchannel="0" outputchannel="1" inputcontroller="0" outputprogram="1" readable="0" writable="0" fixedinputvelocity="-1" outputcontroller="0" fixedoutputvelocity="-1" basevelocity="63" fixedoutputnote="-1"/>
                <fxchain numofeffects="0" enabled="0"/>
              </instrumenttrack>
              <pattern muted="0" pos="0" name="amen_ride.ds" type="0" steps="64"/>
              <pattern muted="0" pos="192" name="amen_ride.ds" type="0" steps="16"/>
              <pattern muted="0" pos="384" name="amen_ride.ds" type="0" steps="16">
                <note pos="0" pan="0" len="-192" key="57" vol="100"/>
                <note pos="48" pan="0" len="-192" key="57" vol="100"/>
                <note pos="96" pan="0" len="-192" key="57" vol="100"/>
                <note pos="144" pan="0" len="-192" key="57" vol="100"/>
              </pattern>
            </track>
          </trackcontainer>
        </bbtrack>
        <bbtco muted="0" color="4286611584" pos="0" len="1536" name="" usestyle="1"/>
        <bbtco muted="0" color="4286611584" pos="7680" len="768" name="" usestyle="1"/>
        <bbtco muted="0" color="4286611584" pos="15360" len="3072" name="" usestyle="1"/>
        <bbtco muted="0" color="4286611584" pos="18816" len="768" name="" usestyle="1"/>
      </track>
      <track muted="0" solo="0" name="202537__gowers__140-bpm-amen-break-original-processed.wav" type="0">
        <instrumenttrack fxch="0" pitch="0" pan="-14" vol="73.599998" usemasterpitch="1" pitchrange="1" basenote="57">
          <instrument name="audiofileprocessor">
            <audiofileprocessor lframe="0" reversed="0" looped="0" eframe="1" interp="1" stutter="0" src="gig/202537__gowers__140-bpm-amen-break-original-processed.wav" sframe="0" amp="100"/>
          </instrument>
          <eldata ftype="0" fres="0.5" fcut="14000" fwet="0">
            <elvol lamt="0" x100="0" pdel="0" lshp="0" sustain="0.5" amt="0" att="0" hold="0.5" ctlenvamt="0" dec="0.5" lspd_denominator="4" rel="0.1" lspd="0.1" latt="0" userwavefile="" lspd_numerator="4" lspd_syncmode="0" lpdel="0"/>
            <elcut lamt="0" x100="0" pdel="0" lshp="0" sustain="0.5" amt="0" att="0" hold="0.5" ctlenvamt="0" dec="0.5" lspd_denominator="4" rel="0.1" lspd="0.1" latt="0" userwavefile="" lspd_numerator="4" lspd_syncmode="0" lpdel="0"/>
            <elres lamt="0" x100="0" pdel="0" lshp="0" sustain="0.5" amt="0" att="0" hold="0.5" ctlenvamt="0" dec="0.5" lspd_denominator="4" rel="0.1" lspd="0.1" latt="0" userwavefile="" lspd_numerator="4" lspd_syncmode="0" lpdel="0"/>
          </eldata>
          <chordcreator chord-enabled="0" chordrange="1" chord="0"/>
          <arpeggiator arpdir="0" arptime="200" arpcycle="0" arpmode="0" arpmiss="0" arp-enabled="0" arprange="1" arpskip="0" arp="0" arptime_syncmode="0" arptime_numerator="4" arpgate="100" arptime_denominator="4"/>
          <midiport inputchannel="0" outputchannel="1" inputcontroller="0" outputprogram="1" readable="0" writable="0" fixedinputvelocity="-1" outputcontroller="0" fixedoutputvelocity="-1" basevelocity="63" fixedoutputnote="-1"/>
          <fxchain numofeffects="3" enabled="1">
            <effect wet="1" gate="0" autoquit="1" name="eq" autoquit_numerator="4" autoquit_denominator="4" on="1" autoquit_syncmode="0">
              <Eq Peak4bw="0.671" LP24="0" LP48="0" LP12="1" HighShelfres="1.439" Peak4gain="3.0600002" HP12="1" Peak1active="0" HPactive="1" LowShelfres="1.4" Peak1bw="0.30000001" Lowshelfgain="1.26" Peak2active="1" LPactive="1" HP48="0" HP="0" Outputgain="0" Peak3active="1" AnalyseIn="1" Lowshelfactive="1" Peak2bw="0.30000001" Peak4active="1" HP24="0" Peak3gain="3.0600002" Peak2gain="-8.1000004" HPres="0.70700002" LPres="0.70700002" LP="0" AnalyseOut="1" Peak3bw="0.58900005" HighShelfgain="5.04" Highshelfactive="1">
                <Inputgain id="1228934" scale_type="log" value="0"/>
                <Peak1gain id="157423" scale_type="log" value="0"/>
                <HPfreq id="6129609" scale_type="log" value="46.205643"/>
                <LowShelffreq id="3002531" scale_type="log" value="159.62097"/>
                <Peak1freq id="1456125" scale_type="log" value="119.99998"/>
                <Peak2freq id="226041" scale_type="log" value="319.59998"/>
                <Peak3freq id="4426189" scale_type="log" value="942.67792"/>
                <Peak4freq id="4593094" scale_type="log" value="3939.0696"/>
                <Highshelffreq id="7046699" scale_type="log" value="7807.54"/>
                <LPfreq id="5732777" scale_type="log" value="13039.833"/>
              </Eq>
              <key/>
            </effect>
            <effect wet="0.71999997" gate="0" autoquit="1" name="ladspaeffect" autoquit_numerator="4" autoquit_denominator="4" on="1" autoquit_syncmode="0">
              <ladspacontrols ports="18">
                <port04 data="0"/>
                <port05 data="1.04"/>
                <port010 data="0.13486816"/>
                <port011 data="1.5"/>
                <port012>
                  <data id="720151" scale_type="log" value="4.472136"/>
                </port012>
                <port013>
                  <data id="2231852" scale_type="log" value="94.574165"/>
                </port013>
                <port014 data="1"/>
                <port015 data="2.75"/>
                <port016 data="0"/>
                <port017 data="0"/>
                <port019 data="0"/>
                <port020>
                  <data id="6789177" scale_type="log" value="424.26407"/>
                </port020>
                <port021>
                  <data id="1906482" scale_type="log" value="2763.468"/>
                </port021>
                <port022 data="1"/>
                <port023 data="1"/>
                <port024 data="0"/>
                <port027 data="0"/>
                <port028 data="1"/>
              </ladspacontrols>
              <key>
                <attribute value="calf" name="file"/>
                <attribute value="Sidechaincompressor" name="plugin"/>
              </key>
            </effect>
            <effect wet="0.44" gate="0" autoquit="1" name="ladspaeffect" autoquit_numerator="4" autoquit_denominator="4" on="1" autoquit_syncmode="0">
              <ladspacontrols ports="10">
                <port00 data="5"/>
                <port01 data="0"/>
                <port02 data="8"/>
                <port03 data="0"/>
                <port04 data="-10.7"/>
                <port05 data="-10.5"/>
                <port06 data="0"/>
                <port07 data="1"/>
                <port08 data="1"/>
                <port09 data="0"/>
              </ladspacontrols>
              <key>
                <attribute value="tap_echo" name="file"/>
                <attribute value="tap_stereo_echo" name="plugin"/>
              </key>
            </effect>
          </fxchain>
        </instrumenttrack>
        <pattern muted="0" pos="1536" name="202537__gowers__140-bpm-amen-break-original-processed.wav" type="1" steps="16">
          <note pos="0" pan="0" len="96" key="57" vol="100"/>
          <note pos="96" pan="0" len="96" key="57" vol="100"/>
          <note pos="192" pan="0" len="96" key="57" vol="100"/>
          <note pos="288" pan="0" len="36" key="57" vol="100"/>
          <note pos="324" pan="0" len="36" key="57" vol="100"/>
          <note pos="360" pan="0" len="24" key="57" vol="100"/>
          <note pos="384" pan="0" len="96" key="57" vol="100"/>
          <note pos="480" pan="0" len="96" key="57" vol="100"/>
          <note pos="576" pan="0" len="96" key="57" vol="100"/>
          <note pos="672" pan="0" len="36" key="57" vol="100"/>
          <note pos="708" pan="0" len="60" key="57" vol="100"/>
          <note pos="768" pan="0" len="96" key="57" vol="100"/>
          <note pos="864" pan="0" len="96" key="57" vol="100"/>
          <note pos="960" pan="0" len="96" key="57" vol="100"/>
          <note pos="1056" pan="0" len="36" key="57" vol="100"/>
          <note pos="1092" pan="0" len="36" key="57" vol="100"/>
          <note pos="1128" pan="0" len="24" key="57" vol="100"/>
          <note pos="1152" pan="0" len="96" key="57" vol="100"/>
          <note pos="1248" pan="0" len="96" key="57" vol="100"/>
          <note pos="1344" pan="0" len="96" key="57" vol="100"/>
          <note pos="1440" pan="0" len="36" key="57" vol="100"/>
          <note pos="1476" pan="0" len="60" key="57" vol="100"/>
        </pattern>
        <pattern muted="0" pos="768" name="202537__gowers__140-bpm-amen-break-original-processed.wav" type="1" steps="16">
          <note pos="0" pan="0" len="36" key="57" vol="100"/>
          <note pos="36" pan="0" len="12" key="57" vol="100"/>
          <note pos="48" pan="0" len="48" key="57" vol="100"/>
          <note pos="96" pan="0" len="36" key="57" vol="100"/>
          <note pos="132" pan="0" len="12" key="57" vol="100"/>
          <note pos="144" pan="0" len="48" key="57" vol="100"/>
          <note pos="192" pan="0" len="132" key="57" vol="100"/>
          <note pos="324" pan="0" len="12" key="57" vol="100"/>
          <note pos="336" pan="0" len="48" key="57" vol="100"/>
          <note pos="384" pan="0" len="36" key="57" vol="100"/>
          <note pos="420" pan="0" len="12" key="57" vol="100"/>
          <note pos="432" pan="0" len="48" key="57" vol="100"/>
          <note pos="480" pan="0" len="36" key="57" vol="100"/>
          <note pos="516" pan="0" len="12" key="57" vol="100"/>
          <note pos="528" pan="0" len="48" key="57" vol="100"/>
          <note pos="576" pan="0" len="192" key="57" vol="100"/>
        </pattern>
        <pattern muted="0" pos="3072" name="202537__gowers__140-bpm-amen-break-original-processed.wav" type="1" steps="16">
          <note pos="0" pan="0" len="96" key="57" vol="100"/>
          <note pos="96" pan="0" len="96" key="57" vol="100"/>
          <note pos="192" pan="0" len="96" key="57" vol="100"/>
          <note pos="288" pan="0" len="36" key="57" vol="100"/>
          <note pos="324" pan="0" len="36" key="57" vol="100"/>
          <note pos="360" pan="0" len="24" key="57" vol="100"/>
          <note pos="384" pan="0" len="96" key="57" vol="100"/>
          <note pos="480" pan="0" len="96" key="57" vol="100"/>
          <note pos="576" pan="0" len="96" key="57" vol="100"/>
          <note pos="672" pan="0" len="36" key="57" vol="100"/>
          <note pos="708" pan="0" len="60" key="57" vol="100"/>
          <note pos="768" pan="0" len="96" key="57" vol="100"/>
          <note pos="864" pan="0" len="96" key="57" vol="100"/>
          <note pos="960" pan="0" len="96" key="57" vol="100"/>
          <note pos="1056" pan="0" len="36" key="57" vol="100"/>
          <note pos="1092" pan="0" len="36" key="57" vol="100"/>
          <note pos="1128" pan="0" len="24" key="57" vol="100"/>
          <note pos="1152" pan="0" len="96" key="57" vol="100"/>
          <note pos="1248" pan="0" len="96" key="57" vol="100"/>
          <note pos="1344" pan="0" len="96" key="57" vol="100"/>
          <note pos="1440" pan="0" len="36" key="57" vol="100"/>
          <note pos="1476" pan="0" len="60" key="57" vol="100"/>
        </pattern>
        <pattern muted="0" pos="4608" name="202537__gowers__140-bpm-amen-break-original-processed.wav" type="1" steps="16">
          <note pos="0" pan="0" len="96" key="57" vol="100"/>
          <note pos="96" pan="0" len="96" key="57" vol="100"/>
          <note pos="192" pan="0" len="96" key="57" vol="100"/>
          <note pos="288" pan="0" len="36" key="57" vol="100"/>
          <note pos="324" pan="0" len="36" key="57" vol="100"/>
          <note pos="360" pan="0" len="24" key="57" vol="100"/>
          <note pos="384" pan="0" len="96" key="57" vol="100"/>
          <note pos="480" pan="0" len="96" key="57" vol="100"/>
          <note pos="576" pan="0" len="96" key="57" vol="100"/>
          <note pos="672" pan="0" len="36" key="57" vol="100"/>
          <note pos="708" pan="0" len="60" key="57" vol="100"/>
          <note pos="768" pan="0" len="96" key="57" vol="100"/>
          <note pos="864" pan="0" len="96" key="57" vol="100"/>
          <note pos="960" pan="0" len="96" key="57" vol="100"/>
          <note pos="1056" pan="0" len="36" key="57" vol="100"/>
          <note pos="1092" pan="0" len="36" key="57" vol="100"/>
          <note pos="1128" pan="0" len="24" key="57" vol="100"/>
          <note pos="1152" pan="0" len="96" key="57" vol="100"/>
          <note pos="1248" pan="0" len="96" key="57" vol="100"/>
          <note pos="1344" pan="0" len="96" key="57" vol="100"/>
          <note pos="1440" pan="0" len="36" key="57" vol="100"/>
          <note pos="1476" pan="0" len="60" key="57" vol="100"/>
        </pattern>
        <pattern muted="0" pos="9216" name="202537__gowers__140-bpm-amen-break-original-processed.wav" type="1" steps="16">
          <note pos="0" pan="0" len="96" key="57" vol="100"/>
          <note pos="96" pan="0" len="96" key="57" vol="100"/>
          <note pos="192" pan="0" len="96" key="57" vol="100"/>
          <note pos="288" pan="0" len="36" key="57" vol="100"/>
          <note pos="324" pan="0" len="36" key="57" vol="100"/>
          <note pos="360" pan="0" len="24" key="57" vol="100"/>
          <note pos="384" pan="0" len="96" key="57" vol="100"/>
          <note pos="480" pan="0" len="96" key="57" vol="100"/>
          <note pos="576" pan="0" len="96" key="57" vol="100"/>
          <note pos="672" pan="0" len="36" key="57" vol="100"/>
          <note pos="708" pan="0" len="60" key="57" vol="100"/>
          <note pos="768" pan="0" len="96" key="57" vol="100"/>
          <note pos="864" pan="0" len="96" key="57" vol="100"/>
          <note pos="960" pan="0" len="96" key="57" vol="100"/>
          <note pos="1056" pan="0" len="36" key="57" vol="100"/>
          <note pos="1092" pan="0" len="36" key="57" vol="100"/>
          <note pos="1128" pan="0" len="24" key="57" vol="100"/>
          <note pos="1152" pan="0" len="96" key="57" vol="100"/>
          <note pos="1248" pan="0" len="96" key="57" vol="100"/>
          <note pos="1344" pan="0" len="96" key="57" vol="100"/>
          <note pos="1440" pan="0" len="36" key="57" vol="100"/>
          <note pos="1476" pan="0" len="60" key="57" vol="100"/>
        </pattern>
        <pattern muted="0" pos="8448" name="202537__gowers__140-bpm-amen-break-original-processed.wav" type="1" steps="16">
          <note pos="0" pan="0" len="36" key="57" vol="100"/>
          <note pos="36" pan="0" len="12" key="57" vol="100"/>
          <note pos="48" pan="0" len="48" key="57" vol="100"/>
          <note pos="96" pan="0" len="36" key="57" vol="100"/>
          <note pos="132" pan="0" len="12" key="57" vol="100"/>
          <note pos="144" pan="0" len="48" key="57" vol="100"/>
          <note pos="192" pan="0" len="132" key="57" vol="100"/>
          <note pos="324" pan="0" len="12" key="57" vol="100"/>
          <note pos="336" pan="0" len="48" key="57" vol="100"/>
          <note pos="384" pan="0" len="36" key="57" vol="100"/>
          <note pos="420" pan="0" len="12" key="57" vol="100"/>
          <note pos="432" pan="0" len="48" key="57" vol="100"/>
          <note pos="480" pan="0" len="36" key="57" vol="100"/>
          <note pos="516" pan="0" len="12" key="57" vol="100"/>
          <note pos="528" pan="0" len="48" key="57" vol="100"/>
          <note pos="576" pan="0" len="192" key="57" vol="100"/>
        </pattern>
        <pattern muted="0" pos="10752" name="202537__gowers__140-bpm-amen-break-original-processed.wav" type="1" steps="16">
          <note pos="0" pan="0" len="96" key="57" vol="100"/>
          <note pos="96" pan="0" len="96" key="57" vol="100"/>
          <note pos="192" pan="0" len="96" key="57" vol="100"/>
          <note pos="288" pan="0" len="36" key="57" vol="100"/>
          <note pos="324" pan="0" len="36" key="57" vol="100"/>
          <note pos="360" pan="0" len="24" key="57" vol="100"/>
          <note pos="384" pan="0" len="96" key="57" vol="100"/>
          <note pos="480" pan="0" len="96" key="57" vol="100"/>
          <note pos="576" pan="0" len="96" key="57" vol="100"/>
          <note pos="672" pan="0" len="36" key="57" vol="100"/>
          <note pos="708" pan="0" len="60" key="57" vol="100"/>
          <note pos="768" pan="0" len="96" key="57" vol="100"/>
          <note pos="864" pan="0" len="96" key="57" vol="100"/>
          <note pos="960" pan="0" len="96" key="57" vol="100"/>
          <note pos="1056" pan="0" len="36" key="57" vol="100"/>
          <note pos="1092" pan="0" len="36" key="57" vol="100"/>
          <note pos="1128" pan="0" len="24" key="57" vol="100"/>
          <note pos="1152" pan="0" len="96" key="57" vol="100"/>
          <note pos="1248" pan="0" len="96" key="57" vol="100"/>
          <note pos="1344" pan="0" len="96" key="57" vol="100"/>
          <note pos="1440" pan="0" len="36" key="57" vol="100"/>
          <note pos="1476" pan="0" len="60" key="57" vol="100"/>
        </pattern>
        <pattern muted="0" pos="12288" name="202537__gowers__140-bpm-amen-break-original-processed.wav" type="1" steps="16">
          <note pos="0" pan="0" len="96" key="57" vol="100"/>
          <note pos="96" pan="0" len="96" key="57" vol="100"/>
          <note pos="192" pan="0" len="96" key="57" vol="100"/>
          <note pos="288" pan="0" len="36" key="57" vol="100"/>
          <note pos="324" pan="0" len="36" key="57" vol="100"/>
          <note pos="360" pan="0" len="24" key="57" vol="100"/>
          <note pos="384" pan="0" len="96" key="57" vol="100"/>
          <note pos="480" pan="0" len="96" key="57" vol="100"/>
          <note pos="576" pan="0" len="96" key="57" vol="100"/>
          <note pos="672" pan="0" len="36" key="57" vol="100"/>
          <note pos="708" pan="0" len="60" key="57" vol="100"/>
          <note pos="768" pan="0" len="96" key="57" vol="100"/>
          <note pos="864" pan="0" len="96" key="57" vol="100"/>
          <note pos="960" pan="0" len="96" key="57" vol="100"/>
          <note pos="1056" pan="0" len="36" key="57" vol="100"/>
          <note pos="1092" pan="0" len="36" key="57" vol="100"/>
          <note pos="1128" pan="0" len="24" key="57" vol="100"/>
          <note pos="1152" pan="0" len="96" key="57" vol="100"/>
          <note pos="1248" pan="0" len="96" key="57" vol="100"/>
          <note pos="1344" pan="0" len="96" key="57" vol="100"/>
          <note pos="1440" pan="0" len="36" key="57" vol="100"/>
          <note pos="1476" pan="0" len="60" key="57" vol="100"/>
        </pattern>
        <pattern muted="0" pos="13824" name="202537__gowers__140-bpm-amen-break-original-processed.wav" type="1" steps="16">
          <note pos="0" pan="0" len="96" key="57" vol="100"/>
          <note pos="96" pan="0" len="96" key="57" vol="100"/>
          <note pos="192" pan="0" len="96" key="57" vol="100"/>
          <note pos="288" pan="0" len="36" key="57" vol="100"/>
          <note pos="324" pan="0" len="36" key="57" vol="100"/>
          <note pos="360" pan="0" len="24" key="57" vol="100"/>
          <note pos="384" pan="0" len="96" key="57" vol="100"/>
          <note pos="480" pan="0" len="96" key="57" vol="100"/>
          <note pos="576" pan="0" len="96" key="57" vol="100"/>
          <note pos="672" pan="0" len="36" key="57" vol="100"/>
          <note pos="708" pan="0" len="60" key="57" vol="100"/>
          <note pos="768" pan="0" len="96" key="57" vol="100"/>
          <note pos="864" pan="0" len="96" key="57" vol="100"/>
          <note pos="960" pan="0" len="96" key="57" vol="100"/>
          <note pos="1056" pan="0" len="36" key="57" vol="100"/>
          <note pos="1092" pan="0" len="36" key="57" vol="100"/>
          <note pos="1128" pan="0" len="24" key="57" vol="100"/>
          <note pos="1152" pan="0" len="96" key="57" vol="100"/>
          <note pos="1248" pan="0" len="96" key="57" vol="100"/>
          <note pos="1344" pan="0" len="96" key="57" vol="100"/>
          <note pos="1440" pan="0" len="36" key="57" vol="100"/>
          <note pos="1476" pan="0" len="60" key="57" vol="100"/>
        </pattern>
        <pattern muted="0" pos="20736" name="202537__gowers__140-bpm-amen-break-original-processed.wav" type="1" steps="16">
          <note pos="0" pan="0" len="768" key="55" vol="100"/>
          <note pos="720" pan="0" len="12" key="55" vol="40"/>
          <note pos="732" pan="0" len="12" key="55" vol="51"/>
          <note pos="744" pan="0" len="12" key="55" vol="48"/>
          <note pos="756" pan="0" len="12" key="55" vol="42"/>
        </pattern>
      </track>
      <track muted="0" solo="0" name="hit02.ogg" type="0">
        <instrumenttrack fxch="0" pitch="0" pan="0" vol="52.799999" usemasterpitch="1" pitchrange="1" basenote="57">
          <instrument name="audiofileprocessor">
            <audiofileprocessor lframe="0" reversed="0" looped="0" eframe="1" interp="0" stutter="0" src="misc/hit02.ogg" sframe="0" amp="100"/>
          </instrument>
          <eldata ftype="0" fres="0.5" fcut="14000" fwet="0">
            <elvol lamt="0" x100="0" pdel="0" lshp="0" sustain="0.5" amt="1" att="0" hold="0.21600001" ctlenvamt="0" dec="0.58000004" lspd_denominator="4" rel="0.34" lspd="0.1" latt="0" userwavefile="" lspd_numerator="4" lspd_syncmode="0" lpdel="0"/>
            <elcut lamt="0" x100="0" pdel="0" lshp="0" sustain="0.5" amt="0" att="0" hold="0.5" ctlenvamt="0" dec="0.5" lspd_denominator="4" rel="0.1" lspd="0.1" latt="0" userwavefile="" lspd_numerator="4" lspd_syncmode="0" lpdel="0"/>
            <elres lamt="0" x100="0" pdel="0" lshp="0" sustain="0.5" amt="0" att="0" hold="0.5" ctlenvamt="0" dec="0.5" lspd_denominator="4" rel="0.1" lspd="0.1" latt="0" userwavefile="" lspd_numerator="4" lspd_syncmode="0" lpdel="0"/>
          </eldata>
          <chordcreator chord-enabled="0" chordrange="1" chord="3"/>
          <arpeggiator arpdir="0" arptime="200" arpcycle="0" arpmode="0" arpmiss="0" arp-enabled="0" arprange="1" arpskip="0" arp="0" arptime_syncmode="0" arptime_numerator="4" arpgate="100" arptime_denominator="4"/>
          <midiport inputchannel="0" outputchannel="1" inputcontroller="0" outputprogram="1" readable="0" writable="0" fixedinputvelocity="-1" outputcontroller="0" fixedoutputvelocity="-1" basevelocity="63" fixedoutputnote="-1"/>
          <fxchain numofeffects="3" enabled="1">
            <effect wet="0.23999999" gate="0" autoquit="1" name="ladspaeffect" autoquit_numerator="4" autoquit_denominator="4" on="1" autoquit_syncmode="0">
              <ladspacontrols ports="7">
                <port00 data="0.61875004"/>
                <port01 data="90"/>
                <port02 data="75"/>
                <port03 data="25"/>
                <port04 data="100"/>
                <port05 data="0"/>
                <port06 data="0"/>
              </ladspacontrols>
              <key>
                <attribute value="tap_chorusflanger" name="file"/>
                <attribute value="tap_chorusflanger" name="plugin"/>
              </key>
            </effect>
            <effect wet="0.64999998" gate="0" autoquit="1" name="ladspaeffect" autoquit_numerator="4" autoquit_denominator="4" on="1" autoquit_syncmode="0">
              <ladspacontrols ports="10">
                <port04 data="0.060000002"/>
                <port05>
                  <data id="111456" scale_type="log" value="223.6068"/>
                </port05>
                <port06 data="2.75"/>
                <port07 data="2.75"/>
                <port08>
                  <data id="3817476" scale_type="log" value="6000"/>
                </port08>
                <port09>
                  <data id="7191495" scale_type="log" value="159.05415"/>
                </port09>
                <port010 data="0"/>
                <port011>
                  <data id="1185484" scale_type="log" value="2514.8672"/>
                </port011>
                <port012 data="0"/>
                <port013 data="0.5"/>
              </ladspacontrols>
              <key>
                <attribute value="zita-reverbs" name="file"/>
                <attribute value="zita-reverb" name="plugin"/>
              </key>
            </effect>
            <effect wet="1" gate="0" autoquit="1" name="eq" autoquit_numerator="4" autoquit_denominator="4" on="1" autoquit_syncmode="0">
              <Eq Peak4bw="0.86000001" LP24="0" LP48="0" LP12="1" HighShelfres="1.4" Peak4gain="5.9400001" HP12="0" Peak1active="0" HPactive="1" LowShelfres="1.4" Peak1bw="0.30000001" Lowshelfgain="1.08" Peak2active="1" LPactive="0" HP48="0" HP="1" Outputgain="0" Peak3active="0" AnalyseIn="1" Lowshelfactive="1" Peak2bw="0.30000001" Peak4active="1" HP24="1" Peak3gain="0" Peak2gain="5.5800004" HPres="0.70700002" LPres="0.70700002" LP="0" AnalyseOut="1" Peak3bw="0.30000001" HighShelfgain="1.98" Highshelfactive="1">
                <Inputgain id="8287867" scale_type="log" value="0"/>
                <Peak1gain id="4846267" scale_type="log" value="0"/>
                <HPfreq id="468132" scale_type="log" value="20.942572"/>
                <LowShelffreq id="980733" scale_type="log" value="63.546257"/>
                <Peak1freq id="905372" scale_type="log" value="119.99998"/>
                <Peak2freq id="1765144" scale_type="log" value="396.22369"/>
                <Peak3freq id="859291" scale_type="log" value="1999.9996"/>
                <Peak4freq id="7270274" scale_type="log" value="7981.0498"/>
                <Highshelffreq id="647593" scale_type="log" value="11113.424"/>
                <LPfreq id="1747257" scale_type="log" value="17999.996"/>
              </Eq>
              <key/>
            </effect>
          </fxchain>
        </instrumenttrack>
        <pattern muted="0" pos="1536" name="hit02.ogg" type="1" steps="16">
          <note pos="0" pan="0" len="24" key="57" vol="100"/>
          <note pos="36" pan="0" len="24" key="57" vol="100"/>
          <note pos="72" pan="0" len="24" key="55" vol="100"/>
          <note pos="108" pan="0" len="24" key="55" vol="100"/>
          <note pos="144" pan="0" len="24" key="55" vol="100"/>
          <note pos="168" pan="0" len="24" key="58" vol="100"/>
          <note pos="192" pan="0" len="24" key="57" vol="100"/>
          <note pos="228" pan="0" len="24" key="57" vol="100"/>
          <note pos="264" pan="0" len="24" key="55" vol="100"/>
          <note pos="300" pan="0" len="24" key="55" vol="100"/>
          <note pos="336" pan="0" len="24" key="55" vol="100"/>
          <note pos="360" pan="0" len="24" key="52" vol="100"/>
          <note pos="384" pan="0" len="24" key="57" vol="100"/>
          <note pos="420" pan="0" len="24" key="57" vol="100"/>
          <note pos="456" pan="0" len="24" key="55" vol="100"/>
          <note pos="492" pan="0" len="24" key="55" vol="100"/>
          <note pos="528" pan="0" len="24" key="55" vol="100"/>
          <note pos="552" pan="0" len="24" key="58" vol="100"/>
          <note pos="576" pan="0" len="24" key="57" vol="100"/>
          <note pos="612" pan="0" len="24" key="57" vol="100"/>
          <note pos="648" pan="0" len="12" key="55" vol="100"/>
          <note pos="660" pan="0" len="12" key="55" vol="100"/>
          <note pos="684" pan="0" len="12" key="55" vol="100"/>
          <note pos="696" pan="0" len="12" key="55" vol="100"/>
          <note pos="720" pan="0" len="24" key="55" vol="100"/>
          <note pos="744" pan="0" len="24" key="52" vol="100"/>
          <note pos="768" pan="0" len="24" key="56" vol="100"/>
          <note pos="804" pan="0" len="24" key="56" vol="100"/>
          <note pos="840" pan="0" len="24" key="54" vol="100"/>
          <note pos="876" pan="0" len="24" key="54" vol="100"/>
          <note pos="912" pan="0" len="24" key="54" vol="100"/>
          <note pos="936" pan="0" len="24" key="57" vol="100"/>
          <note pos="960" pan="0" len="24" key="56" vol="100"/>
          <note pos="996" pan="0" len="24" key="56" vol="100"/>
          <note pos="1032" pan="0" len="24" key="54" vol="100"/>
          <note pos="1068" pan="0" len="24" key="54" vol="100"/>
          <note pos="1104" pan="0" len="24" key="54" vol="100"/>
          <note pos="1128" pan="0" len="24" key="51" vol="100"/>
          <note pos="1152" pan="0" len="24" key="56" vol="100"/>
          <note pos="1188" pan="0" len="24" key="56" vol="100"/>
          <note pos="1224" pan="0" len="24" key="54" vol="100"/>
          <note pos="1260" pan="0" len="24" key="54" vol="100"/>
          <note pos="1296" pan="0" len="24" key="54" vol="100"/>
          <note pos="1320" pan="0" len="24" key="57" vol="100"/>
          <note pos="1344" pan="0" len="24" key="56" vol="100"/>
          <note pos="1380" pan="0" len="24" key="56" vol="100"/>
          <note pos="1416" pan="0" len="24" key="54" vol="100"/>
          <note pos="1452" pan="0" len="24" key="54" vol="100"/>
          <note pos="1488" pan="0" len="24" key="54" vol="100"/>
          <note pos="1512" pan="0" len="24" key="52" vol="100"/>
        </pattern>
        <pattern muted="0" pos="3072" name="hit02.ogg" type="1" steps="16">
          <note pos="0" pan="0" len="24" key="57" vol="100"/>
          <note pos="36" pan="0" len="24" key="57" vol="100"/>
          <note pos="72" pan="0" len="24" key="55" vol="100"/>
          <note pos="108" pan="0" len="24" key="55" vol="100"/>
          <note pos="144" pan="0" len="24" key="55" vol="100"/>
          <note pos="168" pan="0" len="24" key="58" vol="100"/>
          <note pos="192" pan="0" len="24" key="57" vol="100"/>
          <note pos="228" pan="0" len="24" key="57" vol="100"/>
          <note pos="264" pan="0" len="24" key="55" vol="100"/>
          <note pos="300" pan="0" len="24" key="55" vol="100"/>
          <note pos="336" pan="0" len="24" key="55" vol="100"/>
          <note pos="360" pan="0" len="24" key="52" vol="100"/>
          <note pos="384" pan="0" len="24" key="57" vol="100"/>
          <note pos="420" pan="0" len="24" key="57" vol="100"/>
          <note pos="456" pan="0" len="24" key="55" vol="100"/>
          <note pos="492" pan="0" len="24" key="55" vol="100"/>
          <note pos="528" pan="0" len="24" key="55" vol="100"/>
          <note pos="552" pan="0" len="24" key="58" vol="100"/>
          <note pos="576" pan="0" len="24" key="57" vol="100"/>
          <note pos="612" pan="0" len="24" key="57" vol="100"/>
          <note pos="648" pan="0" len="12" key="55" vol="100"/>
          <note pos="660" pan="0" len="12" key="55" vol="100"/>
          <note pos="684" pan="0" len="12" key="55" vol="100"/>
          <note pos="696" pan="0" len="12" key="55" vol="100"/>
          <note pos="720" pan="0" len="24" key="55" vol="100"/>
          <note pos="744" pan="0" len="24" key="52" vol="100"/>
          <note pos="768" pan="0" len="24" key="56" vol="100"/>
          <note pos="804" pan="0" len="24" key="56" vol="100"/>
          <note pos="840" pan="0" len="24" key="54" vol="100"/>
          <note pos="876" pan="0" len="24" key="54" vol="100"/>
          <note pos="912" pan="0" len="24" key="54" vol="100"/>
          <note pos="936" pan="0" len="24" key="57" vol="100"/>
          <note pos="960" pan="0" len="24" key="56" vol="100"/>
          <note pos="996" pan="0" len="24" key="56" vol="100"/>
          <note pos="1032" pan="0" len="24" key="54" vol="100"/>
          <note pos="1068" pan="0" len="24" key="54" vol="100"/>
          <note pos="1104" pan="0" len="24" key="54" vol="100"/>
          <note pos="1128" pan="0" len="24" key="51" vol="100"/>
          <note pos="1152" pan="0" len="24" key="56" vol="100"/>
          <note pos="1188" pan="0" len="24" key="56" vol="100"/>
          <note pos="1224" pan="0" len="24" key="54" vol="100"/>
          <note pos="1260" pan="0" len="24" key="54" vol="100"/>
          <note pos="1296" pan="0" len="24" key="54" vol="100"/>
          <note pos="1320" pan="0" len="24" key="57" vol="100"/>
          <note pos="1344" pan="0" len="24" key="56" vol="100"/>
          <note pos="1380" pan="0" len="24" key="56" vol="100"/>
          <note pos="1416" pan="0" len="24" key="54" vol="100"/>
          <note pos="1452" pan="0" len="24" key="54" vol="100"/>
          <note pos="1488" pan="0" len="24" key="54" vol="100"/>
          <note pos="1512" pan="0" len="24" key="52" vol="100"/>
        </pattern>
        <pattern muted="0" pos="4608" name="hit02.ogg" type="1" steps="16">
          <note pos="0" pan="0" len="24" key="57" vol="100"/>
          <note pos="36" pan="0" len="24" key="57" vol="100"/>
          <note pos="72" pan="0" len="24" key="55" vol="100"/>
          <note pos="108" pan="0" len="24" key="55" vol="100"/>
          <note pos="144" pan="0" len="24" key="55" vol="100"/>
          <note pos="168" pan="0" len="24" key="58" vol="100"/>
          <note pos="192" pan="0" len="24" key="57" vol="100"/>
          <note pos="228" pan="0" len="24" key="57" vol="100"/>
          <note pos="264" pan="0" len="24" key="55" vol="100"/>
          <note pos="300" pan="0" len="24" key="55" vol="100"/>
          <note pos="336" pan="0" len="24" key="55" vol="100"/>
          <note pos="360" pan="0" len="24" key="52" vol="100"/>
          <note pos="384" pan="0" len="24" key="57" vol="100"/>
          <note pos="420" pan="0" len="24" key="57" vol="100"/>
          <note pos="456" pan="0" len="24" key="55" vol="100"/>
          <note pos="492" pan="0" len="24" key="55" vol="100"/>
          <note pos="528" pan="0" len="24" key="55" vol="100"/>
          <note pos="552" pan="0" len="24" key="58" vol="100"/>
          <note pos="576" pan="0" len="24" key="57" vol="100"/>
          <note pos="612" pan="0" len="24" key="57" vol="100"/>
          <note pos="648" pan="0" len="12" key="55" vol="100"/>
          <note pos="660" pan="0" len="12" key="55" vol="100"/>
          <note pos="684" pan="0" len="12" key="55" vol="100"/>
          <note pos="696" pan="0" len="12" key="55" vol="100"/>
          <note pos="720" pan="0" len="24" key="55" vol="100"/>
          <note pos="744" pan="0" len="24" key="52" vol="100"/>
          <note pos="768" pan="0" len="24" key="56" vol="100"/>
          <note pos="804" pan="0" len="24" key="56" vol="100"/>
          <note pos="840" pan="0" len="24" key="54" vol="100"/>
          <note pos="876" pan="0" len="24" key="54" vol="100"/>
          <note pos="912" pan="0" len="24" key="54" vol="100"/>
          <note pos="936" pan="0" len="24" key="57" vol="100"/>
          <note pos="960" pan="0" len="24" key="56" vol="100"/>
          <note pos="996" pan="0" len="24" key="56" vol="100"/>
          <note pos="1032" pan="0" len="24" key="54" vol="100"/>
          <note pos="1068" pan="0" len="24" key="54" vol="100"/>
          <note pos="1104" pan="0" len="24" key="54" vol="100"/>
          <note pos="1128" pan="0" len="24" key="51" vol="100"/>
          <note pos="1152" pan="0" len="24" key="56" vol="100"/>
          <note pos="1188" pan="0" len="24" key="56" vol="100"/>
          <note pos="1224" pan="0" len="24" key="54" vol="100"/>
          <note pos="1260" pan="0" len="24" key="54" vol="100"/>
          <note pos="1296" pan="0" len="24" key="54" vol="100"/>
          <note pos="1320" pan="0" len="24" key="57" vol="100"/>
          <note pos="1344" pan="0" len="24" key="56" vol="100"/>
          <note pos="1380" pan="0" len="24" key="56" vol="100"/>
          <note pos="1416" pan="0" len="24" key="54" vol="100"/>
          <note pos="1452" pan="0" len="24" key="54" vol="100"/>
          <note pos="1488" pan="0" len="24" key="54" vol="100"/>
          <note pos="1512" pan="0" len="24" key="52" vol="100"/>
        </pattern>
        <pattern muted="0" pos="9216" name="hit02.ogg" type="1" steps="16">
          <note pos="0" pan="0" len="24" key="57" vol="100"/>
          <note pos="36" pan="0" len="24" key="57" vol="100"/>
          <note pos="72" pan="0" len="24" key="55" vol="100"/>
          <note pos="108" pan="0" len="24" key="55" vol="100"/>
          <note pos="144" pan="0" len="24" key="55" vol="100"/>
          <note pos="168" pan="0" len="24" key="58" vol="100"/>
          <note pos="192" pan="0" len="24" key="57" vol="100"/>
          <note pos="228" pan="0" len="24" key="57" vol="100"/>
          <note pos="264" pan="0" len="24" key="55" vol="100"/>
          <note pos="300" pan="0" len="24" key="55" vol="100"/>
          <note pos="336" pan="0" len="24" key="55" vol="100"/>
          <note pos="360" pan="0" len="24" key="52" vol="100"/>
          <note pos="384" pan="0" len="24" key="57" vol="100"/>
          <note pos="420" pan="0" len="24" key="57" vol="100"/>
          <note pos="456" pan="0" len="24" key="55" vol="100"/>
          <note pos="492" pan="0" len="24" key="55" vol="100"/>
          <note pos="528" pan="0" len="24" key="55" vol="100"/>
          <note pos="552" pan="0" len="24" key="58" vol="100"/>
          <note pos="576" pan="0" len="24" key="57" vol="100"/>
          <note pos="612" pan="0" len="24" key="57" vol="100"/>
          <note pos="648" pan="0" len="12" key="55" vol="100"/>
          <note pos="660" pan="0" len="12" key="55" vol="100"/>
          <note pos="684" pan="0" len="12" key="55" vol="100"/>
          <note pos="696" pan="0" len="12" key="55" vol="100"/>
          <note pos="720" pan="0" len="24" key="55" vol="100"/>
          <note pos="744" pan="0" len="24" key="52" vol="100"/>
          <note pos="768" pan="0" len="24" key="56" vol="100"/>
          <note pos="804" pan="0" len="24" key="56" vol="100"/>
          <note pos="840" pan="0" len="24" key="54" vol="100"/>
          <note pos="876" pan="0" len="24" key="54" vol="100"/>
          <note pos="912" pan="0" len="24" key="54" vol="100"/>
          <note pos="936" pan="0" len="24" key="57" vol="100"/>
          <note pos="960" pan="0" len="24" key="56" vol="100"/>
          <note pos="996" pan="0" len="24" key="56" vol="100"/>
          <note pos="1032" pan="0" len="24" key="54" vol="100"/>
          <note pos="1068" pan="0" len="24" key="54" vol="100"/>
          <note pos="1104" pan="0" len="24" key="54" vol="100"/>
          <note pos="1128" pan="0" len="24" key="51" vol="100"/>
          <note pos="1152" pan="0" len="24" key="56" vol="100"/>
          <note pos="1188" pan="0" len="24" key="56" vol="100"/>
          <note pos="1224" pan="0" len="24" key="54" vol="100"/>
          <note pos="1260" pan="0" len="24" key="54" vol="100"/>
          <note pos="1296" pan="0" len="24" key="54" vol="100"/>
          <note pos="1320" pan="0" len="24" key="57" vol="100"/>
          <note pos="1344" pan="0" len="24" key="56" vol="100"/>
          <note pos="1380" pan="0" len="24" key="56" vol="100"/>
          <note pos="1416" pan="0" len="24" key="54" vol="100"/>
          <note pos="1452" pan="0" len="24" key="54" vol="100"/>
          <note pos="1488" pan="0" len="24" key="54" vol="100"/>
          <note pos="1512" pan="0" len="24" key="52" vol="100"/>
        </pattern>
        <pattern muted="0" pos="10752" name="hit02.ogg" type="1" steps="16">
          <note pos="0" pan="0" len="24" key="57" vol="100"/>
          <note pos="36" pan="0" len="24" key="57" vol="100"/>
          <note pos="72" pan="0" len="24" key="55" vol="100"/>
          <note pos="108" pan="0" len="24" key="55" vol="100"/>
          <note pos="144" pan="0" len="24" key="55" vol="100"/>
          <note pos="168" pan="0" len="24" key="58" vol="100"/>
          <note pos="192" pan="0" len="24" key="57" vol="100"/>
          <note pos="228" pan="0" len="24" key="57" vol="100"/>
          <note pos="264" pan="0" len="24" key="55" vol="100"/>
          <note pos="300" pan="0" len="24" key="55" vol="100"/>
          <note pos="336" pan="0" len="24" key="55" vol="100"/>
          <note pos="360" pan="0" len="24" key="52" vol="100"/>
          <note pos="384" pan="0" len="24" key="57" vol="100"/>
          <note pos="420" pan="0" len="24" key="57" vol="100"/>
          <note pos="456" pan="0" len="24" key="55" vol="100"/>
          <note pos="492" pan="0" len="24" key="55" vol="100"/>
          <note pos="528" pan="0" len="24" key="55" vol="100"/>
          <note pos="552" pan="0" len="24" key="58" vol="100"/>
          <note pos="576" pan="0" len="24" key="57" vol="100"/>
          <note pos="612" pan="0" len="24" key="57" vol="100"/>
          <note pos="648" pan="0" len="12" key="55" vol="100"/>
          <note pos="660" pan="0" len="12" key="55" vol="100"/>
          <note pos="684" pan="0" len="12" key="55" vol="100"/>
          <note pos="696" pan="0" len="12" key="55" vol="100"/>
          <note pos="720" pan="0" len="24" key="55" vol="100"/>
          <note pos="744" pan="0" len="24" key="52" vol="100"/>
          <note pos="768" pan="0" len="24" key="56" vol="100"/>
          <note pos="804" pan="0" len="24" key="56" vol="100"/>
          <note pos="840" pan="0" len="24" key="54" vol="100"/>
          <note pos="876" pan="0" len="24" key="54" vol="100"/>
          <note pos="912" pan="0" len="24" key="54" vol="100"/>
          <note pos="936" pan="0" len="24" key="57" vol="100"/>
          <note pos="960" pan="0" len="24" key="56" vol="100"/>
          <note pos="996" pan="0" len="24" key="56" vol="100"/>
          <note pos="1032" pan="0" len="24" key="54" vol="100"/>
          <note pos="1068" pan="0" len="24" key="54" vol="100"/>
          <note pos="1104" pan="0" len="24" key="54" vol="100"/>
          <note pos="1128" pan="0" len="24" key="51" vol="100"/>
          <note pos="1152" pan="0" len="24" key="56" vol="100"/>
          <note pos="1188" pan="0" len="24" key="56" vol="100"/>
          <note pos="1224" pan="0" len="24" key="54" vol="100"/>
          <note pos="1260" pan="0" len="24" key="54" vol="100"/>
          <note pos="1296" pan="0" len="24" key="54" vol="100"/>
          <note pos="1320" pan="0" len="24" key="57" vol="100"/>
          <note pos="1344" pan="0" len="24" key="56" vol="100"/>
          <note pos="1380" pan="0" len="24" key="56" vol="100"/>
          <note pos="1416" pan="0" len="24" key="54" vol="100"/>
          <note pos="1452" pan="0" len="24" key="54" vol="100"/>
          <note pos="1488" pan="0" len="24" key="54" vol="100"/>
          <note pos="1512" pan="0" len="24" key="52" vol="100"/>
        </pattern>
        <pattern muted="0" pos="12288" name="hit02.ogg" type="1" steps="16">
          <note pos="0" pan="0" len="24" key="57" vol="100"/>
          <note pos="36" pan="0" len="24" key="57" vol="100"/>
          <note pos="72" pan="0" len="24" key="55" vol="100"/>
          <note pos="108" pan="0" len="24" key="55" vol="100"/>
          <note pos="144" pan="0" len="24" key="55" vol="100"/>
          <note pos="168" pan="0" len="24" key="58" vol="100"/>
          <note pos="192" pan="0" len="24" key="57" vol="100"/>
          <note pos="228" pan="0" len="24" key="57" vol="100"/>
          <note pos="264" pan="0" len="24" key="55" vol="100"/>
          <note pos="300" pan="0" len="24" key="55" vol="100"/>
          <note pos="336" pan="0" len="24" key="55" vol="100"/>
          <note pos="360" pan="0" len="24" key="52" vol="100"/>
          <note pos="384" pan="0" len="24" key="57" vol="100"/>
          <note pos="420" pan="0" len="24" key="57" vol="100"/>
          <note pos="456" pan="0" len="24" key="55" vol="100"/>
          <note pos="492" pan="0" len="24" key="55" vol="100"/>
          <note pos="528" pan="0" len="24" key="55" vol="100"/>
          <note pos="552" pan="0" len="24" key="58" vol="100"/>
          <note pos="576" pan="0" len="24" key="57" vol="100"/>
          <note pos="612" pan="0" len="24" key="57" vol="100"/>
          <note pos="648" pan="0" len="12" key="55" vol="100"/>
          <note pos="660" pan="0" len="12" key="55" vol="100"/>
          <note pos="684" pan="0" len="12" key="55" vol="100"/>
          <note pos="696" pan="0" len="12" key="55" vol="100"/>
          <note pos="720" pan="0" len="24" key="55" vol="100"/>
          <note pos="744" pan="0" len="24" key="52" vol="100"/>
          <note pos="768" pan="0" len="24" key="56" vol="100"/>
          <note pos="804" pan="0" len="24" key="56" vol="100"/>
          <note pos="840" pan="0" len="24" key="54" vol="100"/>
          <note pos="876" pan="0" len="24" key="54" vol="100"/>
          <note pos="912" pan="0" len="24" key="54" vol="100"/>
          <note pos="936" pan="0" len="24" key="57" vol="100"/>
          <note pos="960" pan="0" len="24" key="56" vol="100"/>
          <note pos="996" pan="0" len="24" key="56" vol="100"/>
          <note pos="1032" pan="0" len="24" key="54" vol="100"/>
          <note pos="1068" pan="0" len="24" key="54" vol="100"/>
          <note pos="1104" pan="0" len="24" key="54" vol="100"/>
          <note pos="1128" pan="0" len="24" key="51" vol="100"/>
          <note pos="1152" pan="0" len="24" key="56" vol="100"/>
          <note pos="1188" pan="0" len="24" key="56" vol="100"/>
          <note pos="1224" pan="0" len="24" key="54" vol="100"/>
          <note pos="1260" pan="0" len="24" key="54" vol="100"/>
          <note pos="1296" pan="0" len="24" key="54" vol="100"/>
          <note pos="1320" pan="0" len="24" key="57" vol="100"/>
          <note pos="1344" pan="0" len="24" key="56" vol="100"/>
          <note pos="1380" pan="0" len="24" key="56" vol="100"/>
          <note pos="1416" pan="0" len="24" key="54" vol="100"/>
          <note pos="1452" pan="0" len="24" key="54" vol="100"/>
          <note pos="1488" pan="0" len="24" key="54" vol="100"/>
          <note pos="1512" pan="0" len="24" key="52" vol="100"/>
        </pattern>
        <pattern muted="0" pos="13824" name="hit02.ogg" type="1" steps="16">
          <note pos="0" pan="0" len="24" key="57" vol="100"/>
          <note pos="36" pan="0" len="24" key="57" vol="100"/>
          <note pos="72" pan="0" len="24" key="55" vol="100"/>
          <note pos="108" pan="0" len="24" key="55" vol="100"/>
          <note pos="144" pan="0" len="24" key="55" vol="100"/>
          <note pos="168" pan="0" len="24" key="58" vol="100"/>
          <note pos="192" pan="0" len="24" key="57" vol="100"/>
          <note pos="228" pan="0" len="24" key="57" vol="100"/>
          <note pos="264" pan="0" len="24" key="55" vol="100"/>
          <note pos="300" pan="0" len="24" key="55" vol="100"/>
          <note pos="336" pan="0" len="24" key="55" vol="100"/>
          <note pos="360" pan="0" len="24" key="52" vol="100"/>
          <note pos="384" pan="0" len="24" key="57" vol="100"/>
          <note pos="420" pan="0" len="24" key="57" vol="100"/>
          <note pos="456" pan="0" len="24" key="55" vol="100"/>
          <note pos="492" pan="0" len="24" key="55" vol="100"/>
          <note pos="528" pan="0" len="24" key="55" vol="100"/>
          <note pos="552" pan="0" len="24" key="58" vol="100"/>
          <note pos="576" pan="0" len="24" key="57" vol="100"/>
          <note pos="612" pan="0" len="24" key="57" vol="100"/>
          <note pos="648" pan="0" len="12" key="55" vol="100"/>
          <note pos="660" pan="0" len="12" key="55" vol="100"/>
          <note pos="684" pan="0" len="12" key="55" vol="100"/>
          <note pos="696" pan="0" len="12" key="55" vol="100"/>
          <note pos="720" pan="0" len="24" key="55" vol="100"/>
          <note pos="744" pan="0" len="24" key="52" vol="100"/>
          <note pos="768" pan="0" len="24" key="56" vol="100"/>
          <note pos="804" pan="0" len="24" key="56" vol="100"/>
          <note pos="840" pan="0" len="24" key="54" vol="100"/>
          <note pos="876" pan="0" len="24" key="54" vol="100"/>
          <note pos="912" pan="0" len="24" key="54" vol="100"/>
          <note pos="936" pan="0" len="24" key="57" vol="100"/>
          <note pos="960" pan="0" len="24" key="56" vol="100"/>
          <note pos="996" pan="0" len="24" key="56" vol="100"/>
          <note pos="1032" pan="0" len="24" key="54" vol="100"/>
          <note pos="1068" pan="0" len="24" key="54" vol="100"/>
          <note pos="1104" pan="0" len="24" key="54" vol="100"/>
          <note pos="1128" pan="0" len="24" key="51" vol="100"/>
          <note pos="1152" pan="0" len="24" key="56" vol="100"/>
          <note pos="1188" pan="0" len="24" key="56" vol="100"/>
          <note pos="1224" pan="0" len="24" key="54" vol="100"/>
          <note pos="1260" pan="0" len="24" key="54" vol="100"/>
          <note pos="1296" pan="0" len="24" key="54" vol="100"/>
          <note pos="1320" pan="0" len="24" key="57" vol="100"/>
          <note pos="1344" pan="0" len="24" key="56" vol="100"/>
          <note pos="1380" pan="0" len="24" key="56" vol="100"/>
          <note pos="1416" pan="0" len="24" key="54" vol="100"/>
          <note pos="1452" pan="0" len="24" key="54" vol="100"/>
          <note pos="1488" pan="0" len="24" key="54" vol="100"/>
          <note pos="1512" pan="0" len="24" key="52" vol="100"/>
        </pattern>
        <pattern muted="0" pos="18816" name="hit02.ogg" type="1" steps="16">
          <note pos="0" pan="0" len="12" key="59" vol="100"/>
          <note pos="48" pan="0" len="12" key="59" vol="100"/>
          <note pos="84" pan="0" len="12" key="47" vol="100"/>
          <note pos="96" pan="0" len="12" key="59" vol="100"/>
          <note pos="120" pan="0" len="12" key="47" vol="100"/>
          <note pos="132" pan="0" len="12" key="59" vol="100"/>
          <note pos="156" pan="0" len="12" key="47" vol="100"/>
          <note pos="168" pan="0" len="12" key="60" vol="100"/>
          <note pos="192" pan="0" len="12" key="59" vol="100"/>
          <note pos="240" pan="0" len="12" key="59" vol="100"/>
          <note pos="276" pan="0" len="12" key="47" vol="100"/>
          <note pos="288" pan="0" len="12" key="59" vol="100"/>
          <note pos="312" pan="0" len="12" key="47" vol="100"/>
          <note pos="324" pan="0" len="12" key="59" vol="100"/>
          <note pos="348" pan="0" len="12" key="47" vol="100"/>
          <note pos="360" pan="0" len="12" key="60" vol="100"/>
          <note pos="384" pan="0" len="12" key="59" vol="100"/>
          <note pos="432" pan="0" len="12" key="59" vol="100"/>
          <note pos="468" pan="0" len="12" key="47" vol="100"/>
          <note pos="480" pan="0" len="12" key="59" vol="100"/>
          <note pos="504" pan="0" len="12" key="47" vol="100"/>
          <note pos="516" pan="0" len="12" key="59" vol="100"/>
          <note pos="540" pan="0" len="12" key="47" vol="100"/>
          <note pos="552" pan="0" len="12" key="60" vol="100"/>
          <note pos="576" pan="0" len="12" key="57" vol="100"/>
          <note pos="624" pan="0" len="12" key="57" vol="100"/>
          <note pos="660" pan="0" len="12" key="47" vol="100"/>
          <note pos="672" pan="0" len="12" key="57" vol="100"/>
          <note pos="696" pan="0" len="12" key="47" vol="100"/>
          <note pos="708" pan="0" len="12" key="57" vol="100"/>
          <note pos="732" pan="0" len="12" key="47" vol="100"/>
          <note pos="744" pan="0" len="12" key="57" vol="100"/>
        </pattern>
        <pattern muted="0" pos="20736" name="hit02.ogg" type="1" steps="16">
          <note pos="0" pan="0" len="12" key="48" vol="100"/>
          <note pos="0" pan="0" len="12" key="36" vol="42"/>
          <note pos="24" pan="0" len="12" key="45" vol="100"/>
          <note pos="48" pan="0" len="12" key="48" vol="100"/>
          <note pos="48" pan="0" len="12" key="36" vol="42"/>
          <note pos="60" pan="0" len="12" key="45" vol="100"/>
          <note pos="84" pan="0" len="12" key="48" vol="100"/>
          <note pos="96" pan="0" len="12" key="50" vol="100"/>
          <note pos="96" pan="0" len="12" key="38" vol="42"/>
          <note pos="120" pan="0" len="12" key="45" vol="100"/>
          <note pos="132" pan="0" len="12" key="50" vol="100"/>
          <note pos="132" pan="0" len="12" key="38" vol="42"/>
          <note pos="156" pan="0" len="12" key="45" vol="100"/>
          <note pos="168" pan="0" len="12" key="50" vol="100"/>
          <note pos="168" pan="0" len="12" key="38" vol="42"/>
          <note pos="192" pan="0" len="12" key="48" vol="100"/>
          <note pos="192" pan="0" len="12" key="36" vol="42"/>
          <note pos="216" pan="0" len="12" key="45" vol="100"/>
          <note pos="240" pan="0" len="12" key="48" vol="100"/>
          <note pos="240" pan="0" len="12" key="36" vol="42"/>
          <note pos="252" pan="0" len="12" key="45" vol="100"/>
          <note pos="276" pan="0" len="12" key="48" vol="100"/>
          <note pos="288" pan="0" len="12" key="50" vol="100"/>
          <note pos="288" pan="0" len="12" key="38" vol="42"/>
          <note pos="312" pan="0" len="12" key="45" vol="100"/>
          <note pos="324" pan="0" len="12" key="50" vol="100"/>
          <note pos="324" pan="0" len="12" key="38" vol="42"/>
          <note pos="348" pan="0" len="12" key="45" vol="100"/>
          <note pos="360" pan="0" len="12" key="50" vol="100"/>
          <note pos="360" pan="0" len="12" key="38" vol="42"/>
          <note pos="384" pan="0" len="12" key="48" vol="100"/>
          <note pos="384" pan="0" len="12" key="36" vol="42"/>
          <note pos="408" pan="0" len="12" key="45" vol="100"/>
          <note pos="432" pan="0" len="12" key="48" vol="100"/>
          <note pos="432" pan="0" len="12" key="36" vol="42"/>
          <note pos="444" pan="0" len="12" key="45" vol="100"/>
          <note pos="468" pan="0" len="12" key="48" vol="100"/>
          <note pos="480" pan="0" len="12" key="50" vol="100"/>
          <note pos="480" pan="0" len="12" key="38" vol="42"/>
          <note pos="504" pan="0" len="12" key="45" vol="100"/>
          <note pos="516" pan="0" len="12" key="50" vol="100"/>
          <note pos="516" pan="0" len="12" key="38" vol="42"/>
          <note pos="540" pan="0" len="12" key="45" vol="100"/>
          <note pos="552" pan="0" len="12" key="50" vol="100"/>
          <note pos="552" pan="0" len="12" key="38" vol="42"/>
          <note pos="576" pan="0" len="12" key="48" vol="100"/>
          <note pos="576" pan="0" len="12" key="36" vol="42"/>
          <note pos="600" pan="0" len="12" key="45" vol="100"/>
          <note pos="624" pan="0" len="12" key="48" vol="100"/>
          <note pos="624" pan="0" len="12" key="36" vol="42"/>
          <note pos="636" pan="0" len="12" key="45" vol="100"/>
          <note pos="660" pan="0" len="12" key="48" vol="100"/>
          <note pos="672" pan="0" len="12" key="50" vol="100"/>
          <note pos="672" pan="0" len="12" key="38" vol="42"/>
          <note pos="696" pan="0" len="12" key="38" vol="65"/>
          <note pos="720" pan="0" len="12" key="38" vol="65"/>
          <note pos="732" pan="0" len="12" key="38" vol="31"/>
          <note pos="744" pan="0" len="12" key="38" vol="68"/>
          <note pos="756" pan="0" len="12" key="38" vol="44"/>
        </pattern>
      </track>
      <track muted="0" solo="0" name="undefined01.ogg" type="0">
        <instrumenttrack fxch="0" pitch="0" pan="35.400002" vol="173.60001" usemasterpitch="1" pitchrange="1" basenote="57">
          <instrument name="audiofileprocessor">
            <audiofileprocessor lframe="0" reversed="0" looped="0" eframe="1" interp="1" stutter="0" src="misc/undefined01.ogg" sframe="0" amp="100"/>
          </instrument>
          <eldata ftype="0" fres="0.5" fcut="14000" fwet="0">
            <elvol lamt="0" x100="0" pdel="0" lshp="0" sustain="0.5" amt="1" att="0" hold="0.5" ctlenvamt="0" dec="0.5" lspd_denominator="4" rel="0.164" lspd="0.1" latt="0" userwavefile="" lspd_numerator="4" lspd_syncmode="0" lpdel="0"/>
            <elcut lamt="0" x100="0" pdel="0" lshp="0" sustain="0.5" amt="0" att="0" hold="0.5" ctlenvamt="0" dec="0.5" lspd_denominator="4" rel="0.1" lspd="0.1" latt="0" userwavefile="" lspd_numerator="4" lspd_syncmode="0" lpdel="0"/>
            <elres lamt="0" x100="0" pdel="0" lshp="0" sustain="0.5" amt="0" att="0" hold="0.5" ctlenvamt="0" dec="0.5" lspd_denominator="4" rel="0.1" lspd="0.1" latt="0" userwavefile="" lspd_numerator="4" lspd_syncmode="0" lpdel="0"/>
          </eldata>
          <chordcreator chord-enabled="0" chordrange="1" chord="0"/>
          <arpeggiator arpdir="0" arptime="200" arpcycle="0" arpmode="0" arpmiss="0" arp-enabled="0" arprange="1" arpskip="0" arp="0" arptime_syncmode="0" arptime_numerator="4" arpgate="100" arptime_denominator="4"/>
          <midiport inputchannel="0" outputchannel="1" inputcontroller="0" outputprogram="1" readable="0" writable="0" fixedinputvelocity="-1" outputcontroller="0" fixedoutputvelocity="-1" basevelocity="63" fixedoutputnote="-1"/>
          <fxchain numofeffects="1" enabled="1">
            <effect wet="0" gate="0" autoquit="1" name="ladspaeffect" autoquit_numerator="4" autoquit_denominator="4" on="1" autoquit_syncmode="0">
              <ladspacontrols ports="10">
                <port00 data="37.5"/>
                <port01 data="0"/>
                <port02 data="92.5"/>
                <port03 data="0"/>
                <port04 data="-6.4000001"/>
                <port05 data="-6"/>
                <port06 data="0"/>
                <port07 data="1"/>
                <port08 data="0"/>
                <port09 data="0"/>
              </ladspacontrols>
              <key>
                <attribute value="tap_echo" name="file"/>
                <attribute value="tap_stereo_echo" name="plugin"/>
              </key>
            </effect>
          </fxchain>
        </instrumenttrack>
        <pattern muted="0" pos="2880" name="undefined01.ogg" type="1" steps="16">
          <note pos="0" pan="0" len="24" key="57" vol="21"/>
          <note pos="36" pan="0" len="24" key="57" vol="40"/>
          <note pos="72" pan="0" len="24" key="57" vol="65"/>
          <note pos="108" pan="0" len="24" key="57" vol="82"/>
          <note pos="144" pan="0" len="48" key="57" vol="100"/>
        </pattern>
      </track>
      <track muted="0" solo="0" name="electric_ping01.ogg" type="0">
        <instrumenttrack fxch="0" pitch="0" pan="-40.799999" vol="44.799999" usemasterpitch="1" pitchrange="1" basenote="57">
          <instrument name="audiofileprocessor">
            <audiofileprocessor lframe="0" reversed="0" looped="0" eframe="1" interp="1" stutter="0" src="misc/electric_ping01.ogg" sframe="0" amp="100"/>
          </instrument>
          <eldata ftype="0" fres="0.5" fcut="14000" fwet="0">
            <elvol lamt="0" x100="0" pdel="0" lshp="0" sustain="0.5" amt="1" att="0" hold="0.5" ctlenvamt="0" dec="0.5" lspd_denominator="4" rel="0.1" lspd="0.1" latt="0" userwavefile="" lspd_numerator="4" lspd_syncmode="0" lpdel="0"/>
            <elcut lamt="0" x100="0" pdel="0" lshp="0" sustain="0.5" amt="0" att="0" hold="0.5" ctlenvamt="0" dec="0.5" lspd_denominator="4" rel="0.1" lspd="0.1" latt="0" userwavefile="" lspd_numerator="4" lspd_syncmode="0" lpdel="0"/>
            <elres lamt="0" x100="0" pdel="0" lshp="0" sustain="0.5" amt="0" att="0" hold="0.5" ctlenvamt="0" dec="0.5" lspd_denominator="4" rel="0.1" lspd="0.1" latt="0" userwavefile="" lspd_numerator="4" lspd_syncmode="0" lpdel="0"/>
          </eldata>
          <chordcreator chord-enabled="1" chordrange="2" chord="0"/>
          <arpeggiator arpdir="0" arptime="200" arpcycle="0" arpmode="0" arpmiss="0" arp-enabled="0" arprange="1" arpskip="0" arp="0" arptime_syncmode="0" arptime_numerator="4" arpgate="100" arptime_denominator="4"/>
          <midiport inputchannel="0" outputchannel="1" inputcontroller="0" outputprogram="1" readable="0" writable="0" fixedinputvelocity="-1" outputcontroller="0" fixedoutputvelocity="-1" basevelocity="63" fixedoutputnote="-1"/>
          <fxchain numofeffects="3" enabled="1">
            <effect wet="1" gate="0" autoquit="1" name="stereomatrix" autoquit_numerator="4" autoquit_denominator="4" on="1" autoquit_syncmode="0">
              <stereomatrixcontrols l-r="0" r-r="1" r-l="0" l-l="-1"/>
              <key/>
            </effect>
            <effect wet="0.63999999" gate="0" autoquit="1" name="ladspaeffect" autoquit_numerator="4" autoquit_denominator="4" on="1" autoquit_syncmode="0">
              <ladspacontrols ports="10">
                <port04 data="0.024499999"/>
                <port05>
                  <data id="1781583" scale_type="log" value="223.6068"/>
                </port05>
                <port06 data="2.75"/>
                <port07 data="2.75"/>
                <port08>
                  <data id="8201415" scale_type="log" value="6000"/>
                </port08>
                <port09>
                  <data id="5197898" scale_type="log" value="159.05415"/>
                </port09>
                <port010 data="0"/>
                <port011>
                  <data id="4221565" scale_type="log" value="2514.8672"/>
                </port011>
                <port012 data="0"/>
                <port013 data="0.5"/>
              </ladspacontrols>
              <key>
                <attribute value="zita-reverbs" name="file"/>
                <attribute value="zita-reverb" name="plugin"/>
              </key>
            </effect>
            <effect wet="1" gate="0" autoquit="1" name="ladspaeffect" autoquit_numerator="4" autoquit_denominator="4" on="1" autoquit_syncmode="0">
              <ladspacontrols ports="10">
                <port00 data="100"/>
                <port01 data="0"/>
                <port02 data="0"/>
                <port03 data="0"/>
                <port04 data="-2"/>
                <port05 data="-2.5"/>
                <port06 data="0"/>
                <port07 data="1"/>
                <port08 data="1"/>
                <port09 data="1"/>
              </ladspacontrols>
              <key>
                <attribute value="tap_echo" name="file"/>
                <attribute value="tap_stereo_echo" name="plugin"/>
              </key>
            </effect>
          </fxchain>
        </instrumenttrack>
        <pattern muted="0" pos="3072" name="electric_ping01.ogg" type="1" steps="16">
          <note pos="0" pan="0" len="24" key="45" vol="100"/>
          <note pos="36" pan="0" len="24" key="45" vol="100"/>
          <note pos="72" pan="0" len="24" key="43" vol="100"/>
          <note pos="108" pan="0" len="24" key="43" vol="100"/>
          <note pos="144" pan="0" len="24" key="43" vol="100"/>
          <note pos="168" pan="0" len="24" key="46" vol="100"/>
          <note pos="192" pan="0" len="24" key="45" vol="100"/>
          <note pos="228" pan="0" len="24" key="45" vol="100"/>
          <note pos="264" pan="0" len="24" key="43" vol="100"/>
          <note pos="300" pan="0" len="24" key="43" vol="100"/>
          <note pos="336" pan="0" len="24" key="43" vol="100"/>
          <note pos="360" pan="0" len="24" key="40" vol="100"/>
          <note pos="384" pan="0" len="24" key="45" vol="100"/>
          <note pos="420" pan="0" len="24" key="45" vol="100"/>
          <note pos="456" pan="0" len="24" key="43" vol="100"/>
          <note pos="492" pan="0" len="24" key="43" vol="100"/>
          <note pos="528" pan="0" len="24" key="43" vol="100"/>
          <note pos="552" pan="0" len="24" key="46" vol="100"/>
          <note pos="576" pan="0" len="24" key="45" vol="100"/>
          <note pos="612" pan="0" len="24" key="45" vol="100"/>
          <note pos="648" pan="0" len="12" key="43" vol="100"/>
          <note pos="660" pan="0" len="12" key="43" vol="100"/>
          <note pos="684" pan="0" len="12" key="43" vol="100"/>
          <note pos="696" pan="0" len="12" key="43" vol="100"/>
          <note pos="720" pan="0" len="12" key="43" vol="100"/>
          <note pos="732" pan="0" len="12" key="43" vol="100"/>
          <note pos="744" pan="0" len="12" key="40" vol="100"/>
          <note pos="756" pan="0" len="12" key="40" vol="100"/>
          <note pos="768" pan="0" len="24" key="44" vol="100"/>
          <note pos="804" pan="0" len="24" key="44" vol="100"/>
          <note pos="840" pan="0" len="24" key="42" vol="100"/>
          <note pos="876" pan="0" len="24" key="42" vol="100"/>
          <note pos="912" pan="0" len="24" key="42" vol="100"/>
          <note pos="936" pan="0" len="24" key="45" vol="100"/>
          <note pos="960" pan="0" len="24" key="44" vol="100"/>
          <note pos="996" pan="0" len="24" key="44" vol="100"/>
          <note pos="1032" pan="0" len="24" key="42" vol="100"/>
          <note pos="1068" pan="0" len="24" key="42" vol="100"/>
          <note pos="1104" pan="0" len="24" key="42" vol="100"/>
          <note pos="1128" pan="0" len="24" key="39" vol="100"/>
          <note pos="1152" pan="0" len="24" key="44" vol="100"/>
          <note pos="1188" pan="0" len="24" key="44" vol="100"/>
          <note pos="1224" pan="0" len="24" key="42" vol="100"/>
          <note pos="1260" pan="0" len="24" key="42" vol="100"/>
          <note pos="1296" pan="0" len="24" key="42" vol="100"/>
          <note pos="1320" pan="0" len="24" key="45" vol="100"/>
          <note pos="1344" pan="0" len="24" key="44" vol="100"/>
          <note pos="1380" pan="0" len="24" key="44" vol="100"/>
          <note pos="1416" pan="0" len="24" key="42" vol="100"/>
          <note pos="1452" pan="0" len="24" key="42" vol="100"/>
          <note pos="1488" pan="0" len="24" key="42" vol="100"/>
          <note pos="1512" pan="0" len="24" key="40" vol="100"/>
        </pattern>
        <pattern muted="0" pos="4608" name="electric_ping01.ogg" type="1" steps="16">
          <note pos="0" pan="0" len="24" key="45" vol="100"/>
          <note pos="36" pan="0" len="24" key="45" vol="100"/>
          <note pos="72" pan="0" len="24" key="43" vol="100"/>
          <note pos="108" pan="0" len="24" key="43" vol="100"/>
          <note pos="144" pan="0" len="24" key="43" vol="100"/>
          <note pos="168" pan="0" len="24" key="46" vol="100"/>
          <note pos="192" pan="0" len="24" key="45" vol="100"/>
          <note pos="228" pan="0" len="24" key="45" vol="100"/>
          <note pos="264" pan="0" len="24" key="43" vol="100"/>
          <note pos="300" pan="0" len="24" key="43" vol="100"/>
          <note pos="336" pan="0" len="24" key="43" vol="100"/>
          <note pos="360" pan="0" len="24" key="40" vol="100"/>
          <note pos="384" pan="0" len="24" key="45" vol="100"/>
          <note pos="420" pan="0" len="24" key="45" vol="100"/>
          <note pos="456" pan="0" len="24" key="43" vol="100"/>
          <note pos="492" pan="0" len="24" key="43" vol="100"/>
          <note pos="528" pan="0" len="24" key="43" vol="100"/>
          <note pos="552" pan="0" len="24" key="46" vol="100"/>
          <note pos="576" pan="0" len="24" key="45" vol="100"/>
          <note pos="612" pan="0" len="24" key="45" vol="100"/>
          <note pos="648" pan="0" len="12" key="43" vol="100"/>
          <note pos="660" pan="0" len="12" key="43" vol="100"/>
          <note pos="684" pan="0" len="12" key="43" vol="100"/>
          <note pos="696" pan="0" len="12" key="43" vol="100"/>
          <note pos="720" pan="0" len="24" key="43" vol="100"/>
          <note pos="744" pan="0" len="24" key="40" vol="100"/>
          <note pos="768" pan="0" len="24" key="44" vol="100"/>
          <note pos="804" pan="0" len="24" key="44" vol="100"/>
          <note pos="840" pan="0" len="24" key="42" vol="100"/>
          <note pos="876" pan="0" len="24" key="42" vol="100"/>
          <note pos="912" pan="0" len="24" key="42" vol="100"/>
          <note pos="936" pan="0" len="24" key="45" vol="100"/>
          <note pos="960" pan="0" len="24" key="44" vol="100"/>
          <note pos="996" pan="0" len="24" key="44" vol="100"/>
          <note pos="1032" pan="0" len="24" key="42" vol="100"/>
          <note pos="1068" pan="0" len="24" key="42" vol="100"/>
          <note pos="1104" pan="0" len="24" key="42" vol="100"/>
          <note pos="1128" pan="0" len="24" key="39" vol="100"/>
          <note pos="1152" pan="0" len="24" key="44" vol="100"/>
          <note pos="1188" pan="0" len="24" key="44" vol="100"/>
          <note pos="1224" pan="0" len="24" key="42" vol="100"/>
          <note pos="1260" pan="0" len="24" key="42" vol="100"/>
          <note pos="1296" pan="0" len="24" key="42" vol="100"/>
          <note pos="1320" pan="0" len="24" key="45" vol="100"/>
          <note pos="1344" pan="0" len="24" key="44" vol="100"/>
          <note pos="1380" pan="0" len="24" key="44" vol="100"/>
          <note pos="1416" pan="0" len="24" key="42" vol="100"/>
          <note pos="1452" pan="0" len="24" key="42" vol="100"/>
          <note pos="1488" pan="0" len="24" key="42" vol="100"/>
          <note pos="1512" pan="0" len="24" key="40" vol="100"/>
        </pattern>
        <pattern muted="0" pos="9216" name="electric_ping01.ogg" type="1" steps="16">
          <note pos="0" pan="0" len="24" key="45" vol="100"/>
          <note pos="36" pan="0" len="24" key="45" vol="100"/>
          <note pos="72" pan="0" len="24" key="43" vol="100"/>
          <note pos="108" pan="0" len="24" key="43" vol="100"/>
          <note pos="144" pan="0" len="24" key="43" vol="100"/>
          <note pos="168" pan="0" len="24" key="46" vol="100"/>
          <note pos="192" pan="0" len="24" key="45" vol="100"/>
          <note pos="228" pan="0" len="24" key="45" vol="100"/>
          <note pos="264" pan="0" len="24" key="43" vol="100"/>
          <note pos="300" pan="0" len="24" key="43" vol="100"/>
          <note pos="336" pan="0" len="24" key="43" vol="100"/>
          <note pos="360" pan="0" len="24" key="40" vol="100"/>
          <note pos="384" pan="0" len="24" key="45" vol="100"/>
          <note pos="420" pan="0" len="24" key="45" vol="100"/>
          <note pos="456" pan="0" len="24" key="43" vol="100"/>
          <note pos="492" pan="0" len="24" key="43" vol="100"/>
          <note pos="528" pan="0" len="24" key="43" vol="100"/>
          <note pos="552" pan="0" len="24" key="46" vol="100"/>
          <note pos="576" pan="0" len="24" key="45" vol="100"/>
          <note pos="612" pan="0" len="24" key="45" vol="100"/>
          <note pos="648" pan="0" len="12" key="43" vol="100"/>
          <note pos="660" pan="0" len="12" key="43" vol="100"/>
          <note pos="684" pan="0" len="12" key="43" vol="100"/>
          <note pos="696" pan="0" len="12" key="43" vol="100"/>
          <note pos="720" pan="0" len="24" key="43" vol="100"/>
          <note pos="744" pan="0" len="24" key="40" vol="100"/>
          <note pos="768" pan="0" len="24" key="44" vol="100"/>
          <note pos="804" pan="0" len="24" key="44" vol="100"/>
          <note pos="840" pan="0" len="24" key="42" vol="100"/>
          <note pos="876" pan="0" len="24" key="42" vol="100"/>
          <note pos="912" pan="0" len="24" key="42" vol="100"/>
          <note pos="936" pan="0" len="24" key="45" vol="100"/>
          <note pos="960" pan="0" len="24" key="44" vol="100"/>
          <note pos="996" pan="0" len="24" key="44" vol="100"/>
          <note pos="1032" pan="0" len="24" key="42" vol="100"/>
          <note pos="1068" pan="0" len="24" key="42" vol="100"/>
          <note pos="1104" pan="0" len="24" key="42" vol="100"/>
          <note pos="1128" pan="0" len="24" key="39" vol="100"/>
          <note pos="1152" pan="0" len="24" key="44" vol="100"/>
          <note pos="1188" pan="0" len="24" key="44" vol="100"/>
          <note pos="1224" pan="0" len="24" key="42" vol="100"/>
          <note pos="1260" pan="0" len="24" key="42" vol="100"/>
          <note pos="1296" pan="0" len="24" key="42" vol="100"/>
          <note pos="1320" pan="0" len="24" key="45" vol="100"/>
          <note pos="1344" pan="0" len="24" key="44" vol="100"/>
          <note pos="1380" pan="0" len="24" key="44" vol="100"/>
          <note pos="1416" pan="0" len="24" key="42" vol="100"/>
          <note pos="1452" pan="0" len="24" key="42" vol="100"/>
          <note pos="1488" pan="0" len="24" key="42" vol="100"/>
          <note pos="1512" pan="0" len="24" key="40" vol="100"/>
        </pattern>
        <pattern muted="0" pos="10752" name="electric_ping01.ogg" type="1" steps="16">
          <note pos="0" pan="0" len="24" key="45" vol="100"/>
          <note pos="36" pan="0" len="24" key="45" vol="100"/>
          <note pos="72" pan="0" len="24" key="43" vol="100"/>
          <note pos="108" pan="0" len="24" key="43" vol="100"/>
          <note pos="144" pan="0" len="24" key="43" vol="100"/>
          <note pos="168" pan="0" len="24" key="46" vol="100"/>
          <note pos="192" pan="0" len="24" key="45" vol="100"/>
          <note pos="228" pan="0" len="24" key="45" vol="100"/>
          <note pos="264" pan="0" len="24" key="43" vol="100"/>
          <note pos="300" pan="0" len="24" key="43" vol="100"/>
          <note pos="336" pan="0" len="24" key="43" vol="100"/>
          <note pos="360" pan="0" len="24" key="40" vol="100"/>
          <note pos="384" pan="0" len="24" key="45" vol="100"/>
          <note pos="420" pan="0" len="24" key="45" vol="100"/>
          <note pos="456" pan="0" len="24" key="43" vol="100"/>
          <note pos="492" pan="0" len="24" key="43" vol="100"/>
          <note pos="528" pan="0" len="24" key="43" vol="100"/>
          <note pos="552" pan="0" len="24" key="46" vol="100"/>
          <note pos="576" pan="0" len="24" key="45" vol="100"/>
          <note pos="612" pan="0" len="24" key="45" vol="100"/>
          <note pos="648" pan="0" len="12" key="43" vol="100"/>
          <note pos="660" pan="0" len="12" key="43" vol="100"/>
          <note pos="684" pan="0" len="12" key="43" vol="100"/>
          <note pos="696" pan="0" len="12" key="43" vol="100"/>
          <note pos="720" pan="0" len="24" key="43" vol="100"/>
          <note pos="744" pan="0" len="24" key="40" vol="100"/>
          <note pos="768" pan="0" len="24" key="44" vol="100"/>
          <note pos="804" pan="0" len="24" key="44" vol="100"/>
          <note pos="840" pan="0" len="24" key="42" vol="100"/>
          <note pos="876" pan="0" len="24" key="42" vol="100"/>
          <note pos="912" pan="0" len="24" key="42" vol="100"/>
          <note pos="936" pan="0" len="24" key="45" vol="100"/>
          <note pos="960" pan="0" len="24" key="44" vol="100"/>
          <note pos="996" pan="0" len="24" key="44" vol="100"/>
          <note pos="1032" pan="0" len="24" key="42" vol="100"/>
          <note pos="1068" pan="0" len="24" key="42" vol="100"/>
          <note pos="1104" pan="0" len="24" key="42" vol="100"/>
          <note pos="1128" pan="0" len="24" key="39" vol="100"/>
          <note pos="1152" pan="0" len="24" key="44" vol="100"/>
          <note pos="1188" pan="0" len="24" key="44" vol="100"/>
          <note pos="1224" pan="0" len="24" key="42" vol="100"/>
          <note pos="1260" pan="0" len="24" key="42" vol="100"/>
          <note pos="1296" pan="0" len="24" key="42" vol="100"/>
          <note pos="1320" pan="0" len="24" key="45" vol="100"/>
          <note pos="1344" pan="0" len="24" key="44" vol="100"/>
          <note pos="1380" pan="0" len="24" key="44" vol="100"/>
          <note pos="1416" pan="0" len="24" key="42" vol="100"/>
          <note pos="1452" pan="0" len="24" key="42" vol="100"/>
          <note pos="1488" pan="0" len="24" key="42" vol="100"/>
          <note pos="1512" pan="0" len="24" key="40" vol="100"/>
        </pattern>
        <pattern muted="0" pos="13824" name="electric_ping01.ogg" type="1" steps="16">
          <note pos="0" pan="0" len="24" key="45" vol="100"/>
          <note pos="36" pan="0" len="24" key="45" vol="100"/>
          <note pos="72" pan="0" len="24" key="43" vol="100"/>
          <note pos="108" pan="0" len="24" key="43" vol="100"/>
          <note pos="144" pan="0" len="24" key="43" vol="100"/>
          <note pos="168" pan="0" len="24" key="46" vol="100"/>
          <note pos="192" pan="0" len="24" key="45" vol="100"/>
          <note pos="228" pan="0" len="24" key="45" vol="100"/>
          <note pos="264" pan="0" len="24" key="43" vol="100"/>
          <note pos="300" pan="0" len="24" key="43" vol="100"/>
          <note pos="336" pan="0" len="24" key="43" vol="100"/>
          <note pos="360" pan="0" len="24" key="40" vol="100"/>
          <note pos="384" pan="0" len="24" key="45" vol="100"/>
          <note pos="420" pan="0" len="24" key="45" vol="100"/>
          <note pos="456" pan="0" len="24" key="43" vol="100"/>
          <note pos="492" pan="0" len="24" key="43" vol="100"/>
          <note pos="528" pan="0" len="24" key="43" vol="100"/>
          <note pos="552" pan="0" len="24" key="46" vol="100"/>
          <note pos="576" pan="0" len="24" key="45" vol="100"/>
          <note pos="612" pan="0" len="24" key="45" vol="100"/>
          <note pos="648" pan="0" len="12" key="43" vol="100"/>
          <note pos="660" pan="0" len="12" key="43" vol="100"/>
          <note pos="684" pan="0" len="12" key="43" vol="100"/>
          <note pos="696" pan="0" len="12" key="43" vol="100"/>
          <note pos="720" pan="0" len="24" key="43" vol="100"/>
          <note pos="744" pan="0" len="24" key="40" vol="100"/>
          <note pos="768" pan="0" len="24" key="44" vol="100"/>
          <note pos="804" pan="0" len="24" key="44" vol="100"/>
          <note pos="840" pan="0" len="24" key="42" vol="100"/>
          <note pos="876" pan="0" len="24" key="42" vol="100"/>
          <note pos="912" pan="0" len="24" key="42" vol="100"/>
          <note pos="936" pan="0" len="24" key="45" vol="100"/>
          <note pos="960" pan="0" len="24" key="44" vol="100"/>
          <note pos="996" pan="0" len="24" key="44" vol="100"/>
          <note pos="1032" pan="0" len="24" key="42" vol="100"/>
          <note pos="1068" pan="0" len="24" key="42" vol="100"/>
          <note pos="1104" pan="0" len="24" key="42" vol="100"/>
          <note pos="1128" pan="0" len="24" key="39" vol="100"/>
          <note pos="1152" pan="0" len="24" key="44" vol="100"/>
          <note pos="1188" pan="0" len="24" key="44" vol="100"/>
          <note pos="1224" pan="0" len="24" key="42" vol="100"/>
          <note pos="1260" pan="0" len="24" key="42" vol="100"/>
          <note pos="1296" pan="0" len="24" key="42" vol="100"/>
          <note pos="1320" pan="0" len="24" key="45" vol="100"/>
          <note pos="1344" pan="0" len="24" key="44" vol="100"/>
          <note pos="1380" pan="0" len="24" key="44" vol="100"/>
          <note pos="1416" pan="0" len="24" key="42" vol="100"/>
          <note pos="1452" pan="0" len="24" key="42" vol="100"/>
          <note pos="1488" pan="0" len="24" key="42" vol="100"/>
          <note pos="1512" pan="0" len="24" key="40" vol="100"/>
        </pattern>
        <pattern muted="0" pos="12288" name="electric_ping01.ogg" type="1" steps="16">
          <note pos="0" pan="0" len="24" key="45" vol="100"/>
          <note pos="36" pan="0" len="24" key="45" vol="100"/>
          <note pos="72" pan="0" len="24" key="43" vol="100"/>
          <note pos="108" pan="0" len="24" key="43" vol="100"/>
          <note pos="144" pan="0" len="24" key="43" vol="100"/>
          <note pos="168" pan="0" len="24" key="46" vol="100"/>
          <note pos="192" pan="0" len="24" key="45" vol="100"/>
          <note pos="228" pan="0" len="24" key="45" vol="100"/>
          <note pos="264" pan="0" len="24" key="43" vol="100"/>
          <note pos="300" pan="0" len="24" key="43" vol="100"/>
          <note pos="336" pan="0" len="24" key="43" vol="100"/>
          <note pos="360" pan="0" len="24" key="40" vol="100"/>
          <note pos="384" pan="0" len="24" key="45" vol="100"/>
          <note pos="420" pan="0" len="24" key="45" vol="100"/>
          <note pos="456" pan="0" len="24" key="43" vol="100"/>
          <note pos="492" pan="0" len="24" key="43" vol="100"/>
          <note pos="528" pan="0" len="24" key="43" vol="100"/>
          <note pos="552" pan="0" len="24" key="46" vol="100"/>
          <note pos="576" pan="0" len="24" key="45" vol="100"/>
          <note pos="612" pan="0" len="24" key="45" vol="100"/>
          <note pos="648" pan="0" len="12" key="43" vol="100"/>
          <note pos="660" pan="0" len="12" key="43" vol="100"/>
          <note pos="684" pan="0" len="12" key="43" vol="100"/>
          <note pos="696" pan="0" len="12" key="43" vol="100"/>
          <note pos="720" pan="0" len="12" key="43" vol="100"/>
          <note pos="732" pan="0" len="12" key="43" vol="100"/>
          <note pos="744" pan="0" len="12" key="40" vol="100"/>
          <note pos="756" pan="0" len="12" key="40" vol="100"/>
          <note pos="768" pan="0" len="24" key="44" vol="100"/>
          <note pos="804" pan="0" len="24" key="44" vol="100"/>
          <note pos="840" pan="0" len="24" key="42" vol="100"/>
          <note pos="876" pan="0" len="24" key="42" vol="100"/>
          <note pos="912" pan="0" len="24" key="42" vol="100"/>
          <note pos="936" pan="0" len="24" key="45" vol="100"/>
          <note pos="960" pan="0" len="24" key="44" vol="100"/>
          <note pos="996" pan="0" len="24" key="44" vol="100"/>
          <note pos="1032" pan="0" len="24" key="42" vol="100"/>
          <note pos="1068" pan="0" len="24" key="42" vol="100"/>
          <note pos="1104" pan="0" len="24" key="42" vol="100"/>
          <note pos="1128" pan="0" len="24" key="39" vol="100"/>
          <note pos="1152" pan="0" len="24" key="44" vol="100"/>
          <note pos="1188" pan="0" len="24" key="44" vol="100"/>
          <note pos="1224" pan="0" len="24" key="42" vol="100"/>
          <note pos="1260" pan="0" len="24" key="42" vol="100"/>
          <note pos="1296" pan="0" len="24" key="42" vol="100"/>
          <note pos="1320" pan="0" len="24" key="45" vol="100"/>
          <note pos="1344" pan="0" len="24" key="44" vol="100"/>
          <note pos="1380" pan="0" len="24" key="44" vol="100"/>
          <note pos="1416" pan="0" len="24" key="42" vol="100"/>
          <note pos="1452" pan="0" len="24" key="42" vol="100"/>
          <note pos="1488" pan="0" len="24" key="42" vol="100"/>
          <note pos="1512" pan="0" len="24" key="40" vol="100"/>
        </pattern>
      </track>
      <track muted="0" solo="0" name="Beat/Bassline 1" type="1">
        <bbtrack/>
        <bbtco muted="0" color="4286611584" pos="4608" len="1536" name="" usestyle="1"/>
      </track>
      <track muted="0" solo="0" name="hit01.ogg" type="0">
        <instrumenttrack fxch="0" pitch="0" pan="0" vol="100" usemasterpitch="1" pitchrange="1" basenote="57">
          <instrument name="audiofileprocessor">
            <audiofileprocessor lframe="0" reversed="0" looped="0" eframe="1" interp="1" stutter="0" src="misc/hit01.ogg" sframe="0" amp="100"/>
          </instrument>
          <eldata ftype="0" fres="0.5" fcut="14000" fwet="0">
            <elvol lamt="0" x100="0" pdel="0" lshp="0" sustain="0.5" amt="0" att="0" hold="0.5" ctlenvamt="0" dec="0.5" lspd_denominator="4" rel="0.1" lspd="0.1" latt="0" userwavefile="" lspd_numerator="4" lspd_syncmode="0" lpdel="0"/>
            <elcut lamt="0" x100="0" pdel="0" lshp="0" sustain="0.5" amt="0" att="0" hold="0.5" ctlenvamt="0" dec="0.5" lspd_denominator="4" rel="0.1" lspd="0.1" latt="0" userwavefile="" lspd_numerator="4" lspd_syncmode="0" lpdel="0"/>
            <elres lamt="0" x100="0" pdel="0" lshp="0" sustain="0.5" amt="0" att="0" hold="0.5" ctlenvamt="0" dec="0.5" lspd_denominator="4" rel="0.1" lspd="0.1" latt="0" userwavefile="" lspd_numerator="4" lspd_syncmode="0" lpdel="0"/>
          </eldata>
          <chordcreator chord-enabled="0" chordrange="1" chord="0"/>
          <arpeggiator arpdir="0" arptime="200" arpcycle="0" arpmode="0" arpmiss="0" arp-enabled="0" arprange="1" arpskip="0" arp="0" arptime_syncmode="0" arptime_numerator="4" arpgate="100" arptime_denominator="4"/>
          <midiport inputchannel="0" outputchannel="1" inputcontroller="0" outputprogram="1" readable="0" writable="0" fixedinputvelocity="-1" outputcontroller="0" fixedoutputvelocity="-1" basevelocity="63" fixedoutputnote="-1"/>
          <fxchain numofeffects="0" enabled="0"/>
        </instrumenttrack>
        <pattern muted="0" pos="5952" name="hit01.ogg" type="1" steps="16">
          <note pos="0" pan="0" len="48" key="57" vol="19"/>
          <note pos="48" pan="0" len="48" key="57" vol="65"/>
          <note pos="96" pan="0" len="48" key="57" vol="97"/>
          <note pos="144" pan="0" len="96" key="57" vol="134"/>
        </pattern>
        <pattern muted="0" pos="15168" name="" type="1" steps="16">
          <note pos="0" pan="0" len="48" key="57" vol="19"/>
          <note pos="48" pan="0" len="48" key="57" vol="65"/>
          <note pos="96" pan="0" len="48" key="57" vol="97"/>
          <note pos="144" pan="0" len="96" key="57" vol="134"/>
        </pattern>
      </track>
      <track muted="0" solo="0" name="bassslap02.ogg" type="0">
        <instrumenttrack fxch="0" pitch="0" pan="0" vol="100" usemasterpitch="1" pitchrange="1" basenote="57">
          <instrument name="audiofileprocessor">
            <audiofileprocessor lframe="0" reversed="0" looped="0" eframe="1" interp="1" stutter="0" src="instruments/bassslap02.ogg" sframe="0" amp="100"/>
          </instrument>
          <eldata ftype="0" fres="0.5" fcut="14000" fwet="0">
            <elvol lamt="0" x100="0" pdel="0" lshp="0" sustain="0.5" amt="1" att="0" hold="0" ctlenvamt="0" dec="0.74000001" lspd_denominator="4" rel="0.31600001" lspd="0.1" latt="0" userwavefile="" lspd_numerator="4" lspd_syncmode="0" lpdel="0"/>
            <elcut lamt="0" x100="0" pdel="0" lshp="0" sustain="0.5" amt="0" att="0" hold="0.5" ctlenvamt="0" dec="0.5" lspd_denominator="4" rel="0.1" lspd="0.1" latt="0" userwavefile="" lspd_numerator="4" lspd_syncmode="0" lpdel="0"/>
            <elres lamt="0" x100="0" pdel="0" lshp="0" sustain="0.5" amt="0" att="0" hold="0.5" ctlenvamt="0" dec="0.5" lspd_denominator="4" rel="0.1" lspd="0.1" latt="0" userwavefile="" lspd_numerator="4" lspd_syncmode="0" lpdel="0"/>
          </eldata>
          <chordcreator chord-enabled="0" chordrange="1" chord="0"/>
          <arpeggiator arpdir="0" arptime="200" arpcycle="0" arpmode="0" arpmiss="0" arp-enabled="0" arprange="1" arpskip="0" arp="0" arptime_syncmode="0" arptime_numerator="4" arpgate="100" arptime_denominator="4"/>
          <midiport inputchannel="0" outputchannel="1" inputcontroller="0" outputprogram="1" readable="0" writable="0" fixedinputvelocity="-1" outputcontroller="0" fixedoutputvelocity="-1" basevelocity="63" fixedoutputnote="-1"/>
          <fxchain numofeffects="0" enabled="0"/>
        </instrumenttrack>
        <pattern muted="0" pos="6144" name="bassslap02.ogg" type="1" steps="16">
          <note pos="0" pan="0" len="24" key="69" vol="100"/>
          <note pos="36" pan="0" len="24" key="69" vol="100"/>
          <note pos="72" pan="0" len="24" key="67" vol="100"/>
          <note pos="108" pan="0" len="24" key="67" vol="100"/>
          <note pos="132" pan="0" len="24" key="64" vol="100"/>
          <note pos="144" pan="0" len="24" key="67" vol="100"/>
          <note pos="168" pan="0" len="24" key="70" vol="100"/>
          <note pos="192" pan="0" len="24" key="69" vol="100"/>
          <note pos="228" pan="0" len="24" key="69" vol="100"/>
          <note pos="264" pan="0" len="24" key="67" vol="100"/>
          <note pos="300" pan="0" len="24" key="67" vol="100"/>
          <note pos="324" pan="0" len="24" key="64" vol="100"/>
          <note pos="336" pan="0" len="24" key="67" vol="100"/>
          <note pos="360" pan="0" len="24" key="64" vol="100"/>
          <note pos="384" pan="0" len="24" key="69" vol="100"/>
          <note pos="420" pan="0" len="24" key="69" vol="100"/>
          <note pos="456" pan="0" len="24" key="67" vol="100"/>
          <note pos="492" pan="0" len="24" key="67" vol="100"/>
          <note pos="516" pan="0" len="12" key="67" vol="100"/>
          <note pos="528" pan="0" len="24" key="67" vol="100"/>
          <note pos="552" pan="0" len="24" key="70" vol="100"/>
          <note pos="576" pan="0" len="24" key="69" vol="100"/>
          <note pos="612" pan="0" len="24" key="69" vol="100"/>
          <note pos="648" pan="0" len="24" key="67" vol="100"/>
          <note pos="684" pan="0" len="24" key="67" vol="100"/>
          <note pos="720" pan="0" len="24" key="67" vol="100"/>
          <note pos="744" pan="0" len="24" key="64" vol="100"/>
          <note pos="768" pan="0" len="24" key="68" vol="100"/>
          <note pos="804" pan="0" len="24" key="68" vol="100"/>
          <note pos="840" pan="0" len="24" key="66" vol="100"/>
          <note pos="876" pan="0" len="24" key="66" vol="100"/>
          <note pos="912" pan="0" len="24" key="66" vol="100"/>
          <note pos="936" pan="0" len="24" key="69" vol="100"/>
          <note pos="960" pan="0" len="24" key="68" vol="100"/>
          <note pos="996" pan="0" len="24" key="68" vol="100"/>
          <note pos="1032" pan="0" len="24" key="66" vol="100"/>
          <note pos="1068" pan="0" len="24" key="66" vol="100"/>
          <note pos="1104" pan="0" len="24" key="66" vol="100"/>
          <note pos="1128" pan="0" len="24" key="63" vol="100"/>
          <note pos="1152" pan="0" len="24" key="68" vol="100"/>
          <note pos="1188" pan="0" len="24" key="68" vol="100"/>
          <note pos="1224" pan="0" len="24" key="66" vol="100"/>
          <note pos="1260" pan="0" len="24" key="66" vol="100"/>
          <note pos="1296" pan="0" len="24" key="66" vol="100"/>
          <note pos="1320" pan="0" len="24" key="69" vol="100"/>
          <note pos="1344" pan="0" len="24" key="68" vol="100"/>
          <note pos="1380" pan="0" len="24" key="68" vol="100"/>
          <note pos="1416" pan="0" len="24" key="66" vol="100"/>
          <note pos="1452" pan="0" len="24" key="66" vol="100"/>
          <note pos="1488" pan="0" len="24" key="66" vol="100"/>
          <note pos="1512" pan="0" len="24" key="64" vol="100"/>
        </pattern>
        <pattern muted="0" pos="7680" name="" type="1" steps="16">
          <note pos="0" pan="0" len="24" key="69" vol="100"/>
          <note pos="36" pan="0" len="24" key="69" vol="100"/>
          <note pos="72" pan="0" len="24" key="67" vol="100"/>
          <note pos="108" pan="0" len="24" key="67" vol="100"/>
          <note pos="132" pan="0" len="24" key="64" vol="100"/>
          <note pos="144" pan="0" len="24" key="67" vol="100"/>
          <note pos="168" pan="0" len="24" key="70" vol="100"/>
          <note pos="192" pan="0" len="24" key="69" vol="100"/>
          <note pos="228" pan="0" len="24" key="69" vol="100"/>
          <note pos="264" pan="0" len="24" key="67" vol="100"/>
          <note pos="300" pan="0" len="24" key="67" vol="100"/>
          <note pos="324" pan="0" len="24" key="64" vol="100"/>
          <note pos="336" pan="0" len="24" key="67" vol="100"/>
          <note pos="360" pan="0" len="24" key="64" vol="100"/>
          <note pos="384" pan="0" len="24" key="69" vol="100"/>
          <note pos="420" pan="0" len="24" key="69" vol="100"/>
          <note pos="456" pan="0" len="24" key="67" vol="100"/>
          <note pos="492" pan="0" len="24" key="67" vol="100"/>
          <note pos="516" pan="0" len="12" key="67" vol="100"/>
          <note pos="528" pan="0" len="24" key="67" vol="100"/>
          <note pos="552" pan="0" len="24" key="70" vol="100"/>
          <note pos="576" pan="0" len="24" key="69" vol="100"/>
          <note pos="612" pan="0" len="24" key="69" vol="100"/>
          <note pos="648" pan="0" len="24" key="67" vol="100"/>
          <note pos="684" pan="0" len="24" key="67" vol="100"/>
          <note pos="720" pan="0" len="24" key="67" vol="100"/>
          <note pos="744" pan="0" len="24" key="64" vol="100"/>
          <note pos="768" pan="0" len="24" key="68" vol="100"/>
          <note pos="804" pan="0" len="24" key="68" vol="100"/>
          <note pos="840" pan="0" len="24" key="66" vol="100"/>
          <note pos="876" pan="0" len="24" key="66" vol="100"/>
          <note pos="912" pan="0" len="24" key="66" vol="100"/>
          <note pos="936" pan="0" len="24" key="69" vol="100"/>
          <note pos="960" pan="0" len="24" key="68" vol="100"/>
          <note pos="996" pan="0" len="24" key="68" vol="100"/>
          <note pos="1032" pan="0" len="24" key="66" vol="100"/>
          <note pos="1068" pan="0" len="24" key="66" vol="100"/>
          <note pos="1104" pan="0" len="24" key="66" vol="100"/>
          <note pos="1128" pan="0" len="24" key="63" vol="100"/>
          <note pos="1152" pan="0" len="24" key="68" vol="100"/>
          <note pos="1188" pan="0" len="24" key="68" vol="100"/>
          <note pos="1224" pan="0" len="24" key="66" vol="100"/>
          <note pos="1260" pan="0" len="24" key="66" vol="100"/>
          <note pos="1296" pan="0" len="24" key="66" vol="100"/>
          <note pos="1320" pan="0" len="24" key="69" vol="100"/>
          <note pos="1344" pan="0" len="24" key="68" vol="100"/>
          <note pos="1380" pan="0" len="24" key="68" vol="100"/>
          <note pos="1416" pan="0" len="24" key="66" vol="100"/>
          <note pos="1452" pan="0" len="24" key="66" vol="100"/>
          <note pos="1488" pan="0" len="24" key="66" vol="100"/>
          <note pos="1512" pan="0" len="24" key="64" vol="100"/>
        </pattern>
        <pattern muted="0" pos="10752" name="" type="1" steps="16">
          <note pos="0" pan="0" len="24" key="69" vol="100"/>
          <note pos="36" pan="0" len="24" key="69" vol="100"/>
          <note pos="72" pan="0" len="24" key="67" vol="100"/>
          <note pos="108" pan="0" len="24" key="67" vol="100"/>
          <note pos="132" pan="0" len="24" key="64" vol="100"/>
          <note pos="144" pan="0" len="24" key="67" vol="100"/>
          <note pos="168" pan="0" len="24" key="70" vol="100"/>
          <note pos="192" pan="0" len="24" key="69" vol="100"/>
          <note pos="228" pan="0" len="24" key="69" vol="100"/>
          <note pos="264" pan="0" len="24" key="67" vol="100"/>
          <note pos="300" pan="0" len="24" key="67" vol="100"/>
          <note pos="324" pan="0" len="24" key="64" vol="100"/>
          <note pos="336" pan="0" len="24" key="67" vol="100"/>
          <note pos="360" pan="0" len="24" key="64" vol="100"/>
          <note pos="384" pan="0" len="24" key="69" vol="100"/>
          <note pos="420" pan="0" len="24" key="69" vol="100"/>
          <note pos="456" pan="0" len="24" key="67" vol="100"/>
          <note pos="492" pan="0" len="24" key="67" vol="100"/>
          <note pos="516" pan="0" len="12" key="67" vol="100"/>
          <note pos="528" pan="0" len="24" key="67" vol="100"/>
          <note pos="552" pan="0" len="24" key="70" vol="100"/>
          <note pos="576" pan="0" len="24" key="69" vol="100"/>
          <note pos="612" pan="0" len="24" key="69" vol="100"/>
          <note pos="648" pan="0" len="24" key="67" vol="100"/>
          <note pos="684" pan="0" len="24" key="67" vol="100"/>
          <note pos="720" pan="0" len="24" key="67" vol="100"/>
          <note pos="744" pan="0" len="24" key="64" vol="100"/>
          <note pos="768" pan="0" len="24" key="68" vol="100"/>
          <note pos="804" pan="0" len="24" key="68" vol="100"/>
          <note pos="840" pan="0" len="24" key="66" vol="100"/>
          <note pos="876" pan="0" len="24" key="66" vol="100"/>
          <note pos="912" pan="0" len="24" key="66" vol="100"/>
          <note pos="936" pan="0" len="24" key="69" vol="100"/>
          <note pos="960" pan="0" len="24" key="68" vol="100"/>
          <note pos="996" pan="0" len="24" key="68" vol="100"/>
          <note pos="1032" pan="0" len="24" key="66" vol="100"/>
          <note pos="1068" pan="0" len="24" key="66" vol="100"/>
          <note pos="1104" pan="0" len="24" key="66" vol="100"/>
          <note pos="1128" pan="0" len="24" key="63" vol="100"/>
          <note pos="1152" pan="0" len="24" key="68" vol="100"/>
          <note pos="1188" pan="0" len="24" key="68" vol="100"/>
          <note pos="1224" pan="0" len="24" key="66" vol="100"/>
          <note pos="1260" pan="0" len="24" key="66" vol="100"/>
          <note pos="1296" pan="0" len="24" key="66" vol="100"/>
          <note pos="1320" pan="0" len="24" key="69" vol="100"/>
          <note pos="1344" pan="0" len="24" key="68" vol="100"/>
          <note pos="1380" pan="0" len="24" key="68" vol="100"/>
          <note pos="1416" pan="0" len="24" key="66" vol="100"/>
          <note pos="1452" pan="0" len="24" key="66" vol="100"/>
          <note pos="1488" pan="0" len="24" key="66" vol="100"/>
          <note pos="1512" pan="0" len="24" key="64" vol="100"/>
        </pattern>
        <pattern muted="0" pos="9216" name="hit02.ogg" type="1" steps="16">
          <note pos="0" pan="0" len="24" key="69" vol="100"/>
          <note pos="36" pan="0" len="24" key="69" vol="100"/>
          <note pos="72" pan="0" len="24" key="67" vol="100"/>
          <note pos="108" pan="0" len="24" key="67" vol="100"/>
          <note pos="144" pan="0" len="24" key="67" vol="100"/>
          <note pos="168" pan="0" len="24" key="70" vol="100"/>
          <note pos="192" pan="0" len="24" key="69" vol="100"/>
          <note pos="228" pan="0" len="24" key="69" vol="100"/>
          <note pos="264" pan="0" len="24" key="67" vol="100"/>
          <note pos="300" pan="0" len="24" key="67" vol="100"/>
          <note pos="336" pan="0" len="24" key="67" vol="100"/>
          <note pos="360" pan="0" len="24" key="64" vol="100"/>
          <note pos="384" pan="0" len="24" key="69" vol="100"/>
          <note pos="420" pan="0" len="24" key="69" vol="100"/>
          <note pos="456" pan="0" len="24" key="67" vol="100"/>
          <note pos="492" pan="0" len="24" key="67" vol="100"/>
          <note pos="528" pan="0" len="24" key="67" vol="100"/>
          <note pos="552" pan="0" len="24" key="70" vol="100"/>
          <note pos="576" pan="0" len="24" key="69" vol="100"/>
          <note pos="612" pan="0" len="24" key="69" vol="100"/>
          <note pos="648" pan="0" len="12" key="67" vol="100"/>
          <note pos="660" pan="0" len="12" key="67" vol="100"/>
          <note pos="684" pan="0" len="12" key="67" vol="100"/>
          <note pos="696" pan="0" len="12" key="67" vol="100"/>
          <note pos="720" pan="0" len="24" key="67" vol="100"/>
          <note pos="744" pan="0" len="24" key="64" vol="100"/>
          <note pos="768" pan="0" len="24" key="68" vol="100"/>
          <note pos="804" pan="0" len="24" key="68" vol="100"/>
          <note pos="840" pan="0" len="24" key="66" vol="100"/>
          <note pos="876" pan="0" len="24" key="66" vol="100"/>
          <note pos="912" pan="0" len="24" key="66" vol="100"/>
          <note pos="936" pan="0" len="24" key="69" vol="100"/>
          <note pos="960" pan="0" len="24" key="68" vol="100"/>
          <note pos="996" pan="0" len="24" key="68" vol="100"/>
          <note pos="1032" pan="0" len="24" key="66" vol="100"/>
          <note pos="1068" pan="0" len="24" key="66" vol="100"/>
          <note pos="1104" pan="0" len="24" key="66" vol="100"/>
          <note pos="1128" pan="0" len="24" key="63" vol="100"/>
          <note pos="1152" pan="0" len="24" key="68" vol="100"/>
          <note pos="1188" pan="0" len="24" key="68" vol="100"/>
          <note pos="1224" pan="0" len="24" key="66" vol="100"/>
          <note pos="1260" pan="0" len="24" key="66" vol="100"/>
          <note pos="1296" pan="0" len="24" key="66" vol="100"/>
          <note pos="1320" pan="0" len="24" key="69" vol="100"/>
          <note pos="1344" pan="0" len="24" key="68" vol="100"/>
          <note pos="1380" pan="0" len="24" key="68" vol="100"/>
          <note pos="1416" pan="0" len="24" key="66" vol="100"/>
          <note pos="1452" pan="0" len="24" key="66" vol="100"/>
          <note pos="1488" pan="0" len="24" key="66" vol="100"/>
          <note pos="1512" pan="0" len="24" key="64" vol="100"/>
        </pattern>
        <pattern muted="0" pos="12288" name="hit02.ogg" type="1" steps="16">
          <note pos="0" pan="0" len="24" key="57" vol="100"/>
          <note pos="36" pan="0" len="24" key="57" vol="100"/>
          <note pos="72" pan="0" len="24" key="55" vol="100"/>
          <note pos="108" pan="0" len="24" key="55" vol="100"/>
          <note pos="144" pan="0" len="24" key="55" vol="100"/>
          <note pos="168" pan="0" len="24" key="58" vol="100"/>
          <note pos="192" pan="0" len="24" key="57" vol="100"/>
          <note pos="228" pan="0" len="24" key="57" vol="100"/>
          <note pos="264" pan="0" len="24" key="55" vol="100"/>
          <note pos="300" pan="0" len="24" key="55" vol="100"/>
          <note pos="336" pan="0" len="24" key="55" vol="100"/>
          <note pos="360" pan="0" len="24" key="52" vol="100"/>
          <note pos="384" pan="0" len="24" key="57" vol="100"/>
          <note pos="420" pan="0" len="24" key="57" vol="100"/>
          <note pos="456" pan="0" len="24" key="55" vol="100"/>
          <note pos="492" pan="0" len="24" key="55" vol="100"/>
          <note pos="528" pan="0" len="24" key="55" vol="100"/>
          <note pos="552" pan="0" len="24" key="58" vol="100"/>
          <note pos="576" pan="0" len="24" key="57" vol="100"/>
          <note pos="612" pan="0" len="24" key="57" vol="100"/>
          <note pos="648" pan="0" len="12" key="55" vol="100"/>
          <note pos="660" pan="0" len="12" key="55" vol="100"/>
          <note pos="684" pan="0" len="12" key="55" vol="100"/>
          <note pos="696" pan="0" len="12" key="55" vol="100"/>
          <note pos="720" pan="0" len="24" key="55" vol="100"/>
          <note pos="744" pan="0" len="24" key="52" vol="100"/>
          <note pos="768" pan="0" len="24" key="56" vol="100"/>
          <note pos="804" pan="0" len="24" key="56" vol="100"/>
          <note pos="840" pan="0" len="24" key="54" vol="100"/>
          <note pos="876" pan="0" len="24" key="54" vol="100"/>
          <note pos="912" pan="0" len="24" key="54" vol="100"/>
          <note pos="936" pan="0" len="24" key="57" vol="100"/>
          <note pos="960" pan="0" len="24" key="56" vol="100"/>
          <note pos="996" pan="0" len="24" key="56" vol="100"/>
          <note pos="1032" pan="0" len="24" key="54" vol="100"/>
          <note pos="1068" pan="0" len="24" key="54" vol="100"/>
          <note pos="1104" pan="0" len="24" key="54" vol="100"/>
          <note pos="1128" pan="0" len="24" key="51" vol="100"/>
          <note pos="1152" pan="0" len="24" key="56" vol="100"/>
          <note pos="1188" pan="0" len="24" key="56" vol="100"/>
          <note pos="1224" pan="0" len="24" key="54" vol="100"/>
          <note pos="1260" pan="0" len="24" key="54" vol="100"/>
          <note pos="1296" pan="0" len="24" key="54" vol="100"/>
          <note pos="1320" pan="0" len="24" key="57" vol="100"/>
          <note pos="1344" pan="0" len="24" key="56" vol="100"/>
          <note pos="1380" pan="0" len="24" key="56" vol="100"/>
          <note pos="1416" pan="0" len="24" key="54" vol="100"/>
          <note pos="1452" pan="0" len="24" key="54" vol="100"/>
          <note pos="1488" pan="0" len="24" key="54" vol="100"/>
          <note pos="1512" pan="0" len="24" key="52" vol="100"/>
        </pattern>
        <pattern muted="0" pos="13824" name="hit02.ogg" type="1" steps="16">
          <note pos="0" pan="0" len="24" key="57" vol="100"/>
          <note pos="36" pan="0" len="24" key="57" vol="100"/>
          <note pos="72" pan="0" len="24" key="55" vol="100"/>
          <note pos="108" pan="0" len="24" key="55" vol="100"/>
          <note pos="144" pan="0" len="24" key="55" vol="100"/>
          <note pos="168" pan="0" len="24" key="58" vol="100"/>
          <note pos="192" pan="0" len="24" key="57" vol="100"/>
          <note pos="228" pan="0" len="24" key="57" vol="100"/>
          <note pos="264" pan="0" len="24" key="55" vol="100"/>
          <note pos="300" pan="0" len="24" key="55" vol="100"/>
          <note pos="336" pan="0" len="24" key="55" vol="100"/>
          <note pos="360" pan="0" len="24" key="52" vol="100"/>
          <note pos="384" pan="0" len="24" key="57" vol="100"/>
          <note pos="420" pan="0" len="24" key="57" vol="100"/>
          <note pos="456" pan="0" len="24" key="55" vol="100"/>
          <note pos="492" pan="0" len="24" key="55" vol="100"/>
          <note pos="528" pan="0" len="24" key="55" vol="100"/>
          <note pos="552" pan="0" len="24" key="58" vol="100"/>
          <note pos="576" pan="0" len="24" key="57" vol="100"/>
          <note pos="612" pan="0" len="24" key="57" vol="100"/>
          <note pos="648" pan="0" len="12" key="55" vol="100"/>
          <note pos="660" pan="0" len="12" key="55" vol="100"/>
          <note pos="684" pan="0" len="12" key="55" vol="100"/>
          <note pos="696" pan="0" len="12" key="55" vol="100"/>
          <note pos="720" pan="0" len="24" key="55" vol="100"/>
          <note pos="744" pan="0" len="24" key="52" vol="100"/>
          <note pos="768" pan="0" len="24" key="56" vol="100"/>
          <note pos="804" pan="0" len="24" key="56" vol="100"/>
          <note pos="840" pan="0" len="24" key="54" vol="100"/>
          <note pos="876" pan="0" len="24" key="54" vol="100"/>
          <note pos="912" pan="0" len="24" key="54" vol="100"/>
          <note pos="936" pan="0" len="24" key="57" vol="100"/>
          <note pos="960" pan="0" len="24" key="56" vol="100"/>
          <note pos="996" pan="0" len="24" key="56" vol="100"/>
          <note pos="1032" pan="0" len="24" key="54" vol="100"/>
          <note pos="1068" pan="0" len="24" key="54" vol="100"/>
          <note pos="1104" pan="0" len="24" key="54" vol="100"/>
          <note pos="1128" pan="0" len="24" key="51" vol="100"/>
          <note pos="1152" pan="0" len="24" key="56" vol="100"/>
          <note pos="1188" pan="0" len="24" key="56" vol="100"/>
          <note pos="1224" pan="0" len="24" key="54" vol="100"/>
          <note pos="1260" pan="0" len="24" key="54" vol="100"/>
          <note pos="1296" pan="0" len="24" key="54" vol="100"/>
          <note pos="1320" pan="0" len="24" key="57" vol="100"/>
          <note pos="1344" pan="0" len="24" key="56" vol="100"/>
          <note pos="1380" pan="0" len="24" key="56" vol="100"/>
          <note pos="1416" pan="0" len="24" key="54" vol="100"/>
          <note pos="1452" pan="0" len="24" key="54" vol="100"/>
          <note pos="1488" pan="0" len="24" key="54" vol="100"/>
          <note pos="1512" pan="0" len="24" key="52" vol="100"/>
        </pattern>
      </track>
      <track muted="0" solo="0" name="crash02.ogg" type="0">
        <instrumenttrack fxch="0" pitch="0" pan="0" vol="100" usemasterpitch="1" pitchrange="1" basenote="57">
          <instrument name="audiofileprocessor">
            <audiofileprocessor lframe="0" reversed="0" looped="0" eframe="1" interp="1" stutter="0" src="drums/crash02.ogg" sframe="0" amp="100"/>
          </instrument>
          <eldata ftype="0" fres="0.5" fcut="14000" fwet="0">
            <elvol lamt="0" x100="0" pdel="0" lshp="0" sustain="0.5" amt="1" att="0" hold="0" ctlenvamt="0" dec="0.5" lspd_denominator="4" rel="0.1" lspd="0.1" latt="0" userwavefile="" lspd_numerator="4" lspd_syncmode="0" lpdel="0"/>
            <elcut lamt="0" x100="0" pdel="0" lshp="0" sustain="0.5" amt="0" att="0" hold="0.5" ctlenvamt="0" dec="0.5" lspd_denominator="4" rel="0.1" lspd="0.1" latt="0" userwavefile="" lspd_numerator="4" lspd_syncmode="0" lpdel="0"/>
            <elres lamt="0" x100="0" pdel="0" lshp="0" sustain="0.5" amt="0" att="0" hold="0.5" ctlenvamt="0" dec="0.5" lspd_denominator="4" rel="0.1" lspd="0.1" latt="0" userwavefile="" lspd_numerator="4" lspd_syncmode="0" lpdel="0"/>
          </eldata>
          <chordcreator chord-enabled="0" chordrange="1" chord="0"/>
          <arpeggiator arpdir="0" arptime="200" arpcycle="0" arpmode="0" arpmiss="0" arp-enabled="0" arprange="1" arpskip="0" arp="0" arptime_syncmode="0" arptime_numerator="4" arpgate="100" arptime_denominator="4"/>
          <midiport inputchannel="0" outputchannel="1" inputcontroller="0" outputprogram="1" readable="0" writable="0" fixedinputvelocity="-1" outputcontroller="0" fixedoutputvelocity="-1" basevelocity="63" fixedoutputnote="-1"/>
          <fxchain numofeffects="0" enabled="0"/>
        </instrumenttrack>
        <pattern muted="0" pos="6144" name="crash02.ogg" type="1" steps="16">
          <note pos="0" pan="0" len="384" key="57" vol="100"/>
        </pattern>
      </track>
      <track muted="0" solo="0" name="Beat/Bassline 2" type="1">
        <bbtrack/>
        <bbtco muted="0" color="4286611584" pos="9216" len="6144" name="" usestyle="1"/>
        <bbtco muted="0" color="4286611584" pos="18816" len="768" name="" usestyle="1"/>
        <bbtco muted="1" color="4286611584" pos="1536" len="4608" name="" usestyle="1"/>
      </track>
      <track muted="0" solo="0" name="Automation track" type="5">
        <automationtrack/>
        <automationpattern tens="1" mute="0" pos="9216" len="3072" name="ride01.ogg>Panning" prog="1">
          <time pos="0" value="-100"/>
          <time pos="768" value="0.69999999"/>
          <time pos="1536" value="100"/>
          <time pos="2112" value="0"/>
          <time pos="2880" value="-100"/>
          <object id="3444656"/>
        </automationpattern>
        <automationpattern tens="1" mute="0" pos="12288" len="3072" name="ride01.ogg>Panning" prog="1">
          <time pos="0" value="-100"/>
          <time pos="768" value="0.69999999"/>
          <time pos="1536" value="100"/>
          <time pos="2112" value="0"/>
          <time pos="2880" value="-100"/>
          <object id="3444656"/>
        </automationpattern>
        <automationpattern tens="1" mute="0" pos="0" len="192" name="Tempo" prog="0">
          <time pos="0" value="140"/>
          <object id="4555788"/>
        </automationpattern>
        <automationpattern tens="1" mute="0" pos="18816" len="192" name="Tempo" prog="0">
          <time pos="0" value="124"/>
          <object id="4555788"/>
        </automationpattern>
        <automationpattern tens="1" mute="0" pos="1536" len="3072" name="ride01.ogg>Panning" prog="1">
          <time pos="0" value="-100"/>
          <time pos="768" value="0.69999999"/>
          <time pos="1536" value="100"/>
          <time pos="2112" value="0"/>
          <time pos="2880" value="-100"/>
          <object id="3444656"/>
        </automationpattern>
        <automationpattern tens="1" mute="0" pos="4608" len="1536" name="ride01.ogg>Panning" prog="1">
          <time pos="0" value="-100"/>
          <time pos="768" value="0.69999999"/>
          <time pos="1536" value="100"/>
          <time pos="2880" value="-100"/>
          <object id="3444656"/>
        </automationpattern>
      </track>
    </trackcontainer>
    <track muted="0" solo="0" name="Automation track" type="6">
      <automationtrack/>
      <automationpattern tens="1" mute="0" pos="0" len="192" name="Numerator" prog="0"/>
      <automationpattern tens="1" mute="0" pos="0" len="192" name="Denominator" prog="0"/>
      <automationpattern tens="1" mute="0" pos="0" len="192" name="Tempo" prog="0"/>
      <automationpattern tens="1" mute="0" pos="0" len="192" name="Master volume" prog="0"/>
      <automationpattern tens="1" mute="0" pos="0" len="192" name="Master pitch" prog="0"/>
      <automationpattern tens="1" mute="0" pos="0" len="192" name="Numerator" prog="0"/>
      <automationpattern tens="1" mute="0" pos="0" len="192" name="Denominator" prog="0"/>
      <automationpattern tens="1" mute="0" pos="0" len="192" name="Tempo" prog="0"/>
      <automationpattern tens="1" mute="0" pos="0" len="192" name="Master volume" prog="0"/>
      <automationpattern tens="1" mute="0" pos="0" len="192" name="Master pitch" prog="0"/>
    </track>
    <fxmixer height="333" minimized="0" width="561" y="477" x="61" maximized="0" visible="0">
      <fxchannel muted="0" name="Master" volume="0.85300004" soloed="0" num="0">
        <fxchain numofeffects="1" enabled="1">
          <effect wet="1" gate="0" autoquit="1" name="bitcrush" autoquit_numerator="4" autoquit_denominator="4" on="0" autoquit_syncmode="0">
            <bitcrushcontrols ingain="1.4" innoise="0" outclip="7.3000002" rate="44100" levels="256" rateon="1" stereodiff="0" depthon="1" outgain="0"/>
            <key/>
          </effect>
        </fxchain>
      </fxchannel>
      <fxchannel muted="0" name="Leads" volume="0.39999998" soloed="0" num="1">
        <fxchain numofeffects="0" enabled="0"/>
        <send amount="1" channel="0"/>
      </fxchannel>
      <fxchannel muted="0" name="DoublePadBass" volume="0.5" soloed="0" num="2">
        <fxchain numofeffects="1" enabled="1">
          <effect wet="1" gate="0" autoquit="1" name="ladspaeffect" autoquit_numerator="4" autoquit_denominator="4" on="1" autoquit_syncmode="0">
            <ladspacontrols ports="20" link="1">
              <port01 data="0" link="1"/>
              <port02 data="-13.05" link="1"/>
              <port03 data="-6.0300002" link="1"/>
              <port04 data="0" link="1"/>
              <port05 data="6.4800005" link="1"/>
              <port06 data="0" link="1"/>
              <port07 data="0" link="1"/>
              <port08 data="0" link="1"/>
              <port09 data="0" link="1"/>
              <port010 data="0" link="1"/>
              <port11 data="0"/>
              <port12 data="-13.05"/>
              <port13 data="-6.0300002"/>
              <port14 data="0"/>
              <port15 data="6.4800005"/>
              <port16 data="0"/>
              <port17 data="0"/>
              <port18 data="0"/>
              <port19 data="0"/>
              <port110 data="0"/>
            </ladspacontrols>
            <key>
              <attribute value="caps" name="file"/>
              <attribute value="Eq" name="plugin"/>
            </key>
          </effect>
        </fxchain>
        <send amount="1" channel="0"/>
      </fxchannel>
      <fxchannel muted="0" name="Percussion" volume="0.39999998" soloed="0" num="3">
        <fxchain numofeffects="1" enabled="1">
          <effect wet="1" gate="0" autoquit="1" name="ladspaeffect" autoquit_numerator="4" autoquit_denominator="4" on="1" autoquit_syncmode="0">
            <ladspacontrols ports="20" link="1">
              <port01 data="-15.93" link="1"/>
              <port02 data="-10.440001" link="1"/>
              <port03 data="-3.7800002" link="1"/>
              <port04 data="4" link="1"/>
              <port05 data="4.9500003" link="1"/>
              <port06 data="0" link="1"/>
              <port07 data="0" link="1"/>
              <port08 data="0" link="1"/>
              <port09 data="0" link="1"/>
              <port010 data="0" link="1"/>
              <port11 data="-15.93"/>
              <port12 data="-10.440001"/>
              <port13 data="-3.7800002"/>
              <port14 data="4"/>
              <port15 data="4.9500003"/>
              <port16 data="0"/>
              <port17 data="0"/>
              <port18 data="0"/>
              <port19 data="0"/>
              <port110 data="0"/>
            </ladspacontrols>
            <key>
              <attribute value="caps" name="file"/>
              <attribute value="Eq" name="plugin"/>
            </key>
          </effect>
        </fxchain>
        <send amount="1" channel="0"/>
      </fxchannel>
      <fxchannel muted="0" name="Choir" volume="0.76800001" soloed="0" num="4">
        <fxchain numofeffects="0" enabled="0"/>
        <send amount="1" channel="0"/>
      </fxchannel>
    </fxmixer>
    <ControllerRackView height="200" minimized="0" width="350" y="407" x="836" maximized="0" visible="0"/>
    <pianoroll height="476" minimized="0" width="860" y="391" x="829" maximized="0" visible="1"/>
    <automationeditor height="400" minimized="0" width="860" y="255" x="56" maximized="0" visible="0"/>
    <projectnotes height="400" minimized="0" width="860" y="1" x="1" maximized="0" visible="1"><![CDATA[<!DOCTYPE HTML PUBLIC "-//W3C//DTD HTML 4.0//EN" "http://www.w3.org/TR/REC-html40/strict.dtd">
<html><head><meta name="qrichtext" content="1" /><style type="text/css">
p, li { white-space: pre-wrap; }
</style></head><body style=" font-family:'Sans Serif'; font-size:9pt; font-weight:400; font-style:normal;">
<p style=" margin-top:0px; margin-bottom:0px; margin-left:0px; margin-right:0px; -qt-block-indent:0; text-indent:0px;"><span style=" color:#e0e0e0;">Funky Break</span></p>
<p style=" margin-top:0px; margin-bottom:0px; margin-left:0px; margin-right:0px; -qt-block-indent:0; text-indent:0px;"><span style=" color:#e0e0e0;">==========</span></p></body></html>]]></projectnotes>
    <timeline lp0pos="0" lp1pos="18432" lpstate="0"/>
    <controllers/>
  </song>
</lmms-project>
