<?xml version="1.0"?>
<!DOCTYPE lmms-project>
<lmms-project creator="LMMS" type="song" version="1.0" creatorversion="1.2.2">
  <head bpm="145" timesig_denominator="4" timesig_numerator="4" masterpitch="0" mastervol="100"/>
  <song>
    <trackcontainer visible="1" type="song" y="37" x="29" width="1257" height="776" minimized="0" maximized="0">
      <track name="Organic" muted="0" type="0" solo="0">
        <instrumenttrack pitchrange="1" pan="0" fxch="3" basenote="57" pitch="0" vol="20" usemasterpitch="1">
          <instrument name="organic">
            <organic newharmonic4="4" wavetype4="0" newharmonic0="0" pan2="17" wavetype5="0" newharmonic1="1" pan1="-28" newdetune4="0" pan3="42" vol3="100" pan0="0" foldback="0" newharmonic3="3" newharmonic2="2" pan5="-45" vol4="100" pan6="0" vol6="100" pan7="25" newharmonic6="6" pan4="55" newharmonic5="5" newdetune7="0" vol1="100" newdetune3="0" newdetune5="0" newdetune6="0" wavetype0="0" num_osc="8" wavetype7="0" wavetype2="0" wavetype1="0" newharmonic7="7" newdetune0="0" wavetype6="0" vol7="100" vol="100" newdetune2="0" wavetype3="0" vol2="100" vol0="100" newdetune1="0" vol5="100"/>
          </instrument>
          <eldata fcut="14000" ftype="0" fwet="0" fres="0.5">
            <elvol dec="0.5" ctlenvamt="0" latt="0" sustain="0.5" amt="1" lamt="0" pdel="0" rel="0.1" lshp="0" lpdel="0" hold="0.5" lspd_numerator="4" lspd_denominator="4" att="0" x100="0" lspd="0.1" lspd_syncmode="0" userwavefile=""/>
            <elcut dec="0.5" ctlenvamt="0" latt="0" sustain="0.5" amt="0" lamt="0" pdel="0" rel="0.1" lshp="0" lpdel="0" hold="0.5" lspd_numerator="4" lspd_denominator="4" att="0" x100="0" lspd="0.1" lspd_syncmode="0" userwavefile=""/>
            <elres dec="0.5" ctlenvamt="0" latt="0" sustain="0.5" amt="0" lamt="0" pdel="0" rel="0.1" lshp="0" lpdel="0" hold="0.5" lspd_numerator="4" lspd_denominator="4" att="0" x100="0" lspd="0.1" lspd_syncmode="0" userwavefile=""/>
          </eldata>
          <chordcreator chordrange="1" chord-enabled="0" chord="0"/>
          <arpeggiator arptime="200" arptime_syncmode="0" arpmode="0" arptime_numerator="4" arptime_denominator="4" arpdir="0" arpgate="100" arprange="1" arp-enabled="0" arpmiss="0" arp="0" arpcycle="0" arpskip="0"/>
          <midiport inputcontroller="0" fixedoutputnote="-1" writable="0" basevelocity="63" outputprogram="1" outputcontroller="0" fixedinputvelocity="-1" outputchannel="1" fixedoutputvelocity="-1" readable="0" inputchannel="0"/>
          <fxchain numofeffects="2" enabled="1">
            <effect gate="0" on="1" autoquit_syncmode="0" autoquit="1" name="stereoenhancer" autoquit_numerator="4" wet="1" autoquit_denominator="4">
              <stereoenhancercontrols width="100"/>
              <key/>
            </effect>
            <effect gate="0" on="1" autoquit_syncmode="0" autoquit="1" name="ladspaeffect" autoquit_numerator="4" wet="1" autoquit_denominator="4">
              <ladspacontrols ports="4">
                <port02 data="0.50200003"/>
                <port03 data="0.37450001"/>
                <port04 data="0.250375"/>
                <port05 data="0.1"/>
              </ladspacontrols>
              <key>
                <attribute value="caps" name="file"/>
                <attribute value="Plate2x2" name="plugin"/>
              </key>
            </effect>
          </fxchain>
        </instrumenttrack>
        <pattern name="Organic" pos="0" muted="0" type="1" steps="16">
          <note key="57" pan="0" pos="0" len="24" vol="100"/>
          <note key="57" pan="0" pos="48" len="12" vol="100"/>
          <note key="60" pan="0" pos="72" len="24" vol="100"/>
          <note key="59" pan="0" pos="120" len="24" vol="100"/>
          <note key="55" pan="0" pos="168" len="24" vol="100"/>
          <note key="57" pan="0" pos="192" len="24" vol="100"/>
          <note key="57" pan="0" pos="240" len="12" vol="100"/>
          <note key="60" pan="0" pos="264" len="24" vol="100"/>
          <note key="59" pan="0" pos="312" len="24" vol="100"/>
          <note key="55" pan="0" pos="360" len="24" vol="100"/>
          <note key="57" pan="0" pos="384" len="24" vol="100"/>
          <note key="57" pan="0" pos="432" len="12" vol="100"/>
          <note key="60" pan="0" pos="456" len="24" vol="100"/>
          <note key="59" pan="0" pos="504" len="24" vol="100"/>
          <note key="55" pan="0" pos="552" len="24" vol="100"/>
          <note key="57" pan="0" pos="576" len="24" vol="100"/>
          <note key="57" pan="0" pos="624" len="24" vol="100"/>
          <note key="62" pan="0" pos="648" len="48" vol="100"/>
          <note key="60" pan="0" pos="696" len="48" vol="100"/>
          <note key="59" pan="0" pos="744" len="24" vol="100"/>
        </pattern>
        <pattern name="Organic" pos="768" muted="0" type="1" steps="16">
          <note key="57" pan="0" pos="0" len="24" vol="100"/>
          <note key="57" pan="0" pos="48" len="12" vol="100"/>
          <note key="60" pan="0" pos="72" len="24" vol="100"/>
          <note key="59" pan="0" pos="120" len="24" vol="100"/>
          <note key="55" pan="0" pos="168" len="24" vol="100"/>
          <note key="57" pan="0" pos="192" len="24" vol="100"/>
          <note key="57" pan="0" pos="240" len="12" vol="100"/>
          <note key="60" pan="0" pos="264" len="24" vol="100"/>
          <note key="59" pan="0" pos="312" len="24" vol="100"/>
          <note key="55" pan="0" pos="360" len="24" vol="100"/>
          <note key="57" pan="0" pos="384" len="24" vol="100"/>
          <note key="57" pan="0" pos="432" len="12" vol="100"/>
          <note key="60" pan="0" pos="456" len="24" vol="100"/>
          <note key="59" pan="0" pos="504" len="24" vol="100"/>
          <note key="55" pan="0" pos="552" len="24" vol="100"/>
          <note key="57" pan="0" pos="576" len="24" vol="100"/>
          <note key="57" pan="0" pos="624" len="24" vol="100"/>
          <note key="62" pan="0" pos="648" len="48" vol="100"/>
          <note key="60" pan="0" pos="696" len="48" vol="100"/>
          <note key="59" pan="0" pos="744" len="24" vol="100"/>
        </pattern>
        <pattern name="" pos="1536" muted="0" type="1" steps="16">
          <note key="57" pan="0" pos="0" len="24" vol="100"/>
          <note key="57" pan="0" pos="48" len="12" vol="100"/>
          <note key="60" pan="0" pos="72" len="24" vol="100"/>
          <note key="59" pan="0" pos="120" len="24" vol="100"/>
          <note key="55" pan="0" pos="168" len="24" vol="100"/>
          <note key="57" pan="0" pos="192" len="24" vol="100"/>
          <note key="57" pan="0" pos="240" len="12" vol="100"/>
          <note key="60" pan="0" pos="264" len="24" vol="100"/>
          <note key="59" pan="0" pos="312" len="24" vol="100"/>
          <note key="55" pan="0" pos="360" len="24" vol="100"/>
          <note key="57" pan="0" pos="384" len="24" vol="100"/>
          <note key="57" pan="0" pos="432" len="12" vol="100"/>
          <note key="60" pan="0" pos="456" len="24" vol="100"/>
          <note key="59" pan="0" pos="504" len="24" vol="100"/>
          <note key="55" pan="0" pos="552" len="24" vol="100"/>
          <note key="57" pan="0" pos="576" len="24" vol="100"/>
          <note key="57" pan="0" pos="624" len="24" vol="100"/>
          <note key="62" pan="0" pos="648" len="48" vol="100"/>
          <note key="60" pan="0" pos="696" len="48" vol="100"/>
          <note key="59" pan="0" pos="744" len="24" vol="100"/>
        </pattern>
        <pattern name="" pos="2304" muted="0" type="1" steps="16">
          <note key="57" pan="0" pos="0" len="24" vol="100"/>
          <note key="57" pan="0" pos="48" len="12" vol="100"/>
          <note key="60" pan="0" pos="72" len="24" vol="100"/>
          <note key="59" pan="0" pos="120" len="24" vol="100"/>
          <note key="55" pan="0" pos="168" len="24" vol="100"/>
          <note key="57" pan="0" pos="192" len="24" vol="100"/>
          <note key="57" pan="0" pos="240" len="12" vol="100"/>
          <note key="60" pan="0" pos="264" len="24" vol="100"/>
          <note key="59" pan="0" pos="312" len="24" vol="100"/>
          <note key="55" pan="0" pos="360" len="24" vol="100"/>
          <note key="57" pan="0" pos="384" len="24" vol="100"/>
          <note key="57" pan="0" pos="432" len="12" vol="100"/>
          <note key="60" pan="0" pos="456" len="24" vol="100"/>
          <note key="59" pan="0" pos="504" len="24" vol="100"/>
          <note key="55" pan="0" pos="552" len="24" vol="100"/>
          <note key="57" pan="0" pos="576" len="24" vol="100"/>
          <note key="57" pan="0" pos="624" len="24" vol="100"/>
          <note key="62" pan="0" pos="648" len="48" vol="100"/>
          <note key="60" pan="0" pos="696" len="48" vol="100"/>
          <note key="59" pan="0" pos="744" len="24" vol="100"/>
        </pattern>
        <pattern name="" pos="3072" muted="0" type="1" steps="16">
          <note key="57" pan="0" pos="0" len="24" vol="100"/>
          <note key="57" pan="0" pos="48" len="12" vol="100"/>
          <note key="60" pan="0" pos="72" len="24" vol="100"/>
          <note key="59" pan="0" pos="120" len="24" vol="100"/>
          <note key="55" pan="0" pos="168" len="24" vol="100"/>
          <note key="57" pan="0" pos="192" len="24" vol="100"/>
          <note key="57" pan="0" pos="240" len="12" vol="100"/>
          <note key="60" pan="0" pos="264" len="24" vol="100"/>
          <note key="59" pan="0" pos="312" len="24" vol="100"/>
          <note key="55" pan="0" pos="360" len="24" vol="100"/>
          <note key="57" pan="0" pos="384" len="24" vol="100"/>
          <note key="57" pan="0" pos="432" len="12" vol="100"/>
          <note key="60" pan="0" pos="456" len="24" vol="100"/>
          <note key="59" pan="0" pos="504" len="24" vol="100"/>
          <note key="55" pan="0" pos="552" len="24" vol="100"/>
          <note key="57" pan="0" pos="576" len="24" vol="100"/>
          <note key="57" pan="0" pos="624" len="24" vol="100"/>
          <note key="62" pan="0" pos="648" len="48" vol="100"/>
          <note key="60" pan="0" pos="696" len="48" vol="100"/>
          <note key="59" pan="0" pos="744" len="24" vol="100"/>
        </pattern>
        <pattern name="" pos="3840" muted="0" type="1" steps="16">
          <note key="57" pan="0" pos="0" len="24" vol="100"/>
          <note key="57" pan="0" pos="48" len="12" vol="100"/>
          <note key="60" pan="0" pos="72" len="24" vol="100"/>
          <note key="59" pan="0" pos="120" len="24" vol="100"/>
          <note key="55" pan="0" pos="168" len="24" vol="100"/>
          <note key="57" pan="0" pos="192" len="24" vol="100"/>
          <note key="57" pan="0" pos="240" len="12" vol="100"/>
          <note key="60" pan="0" pos="264" len="24" vol="100"/>
          <note key="59" pan="0" pos="312" len="24" vol="100"/>
          <note key="55" pan="0" pos="360" len="24" vol="100"/>
          <note key="57" pan="0" pos="384" len="24" vol="100"/>
          <note key="57" pan="0" pos="432" len="12" vol="100"/>
          <note key="60" pan="0" pos="456" len="24" vol="100"/>
          <note key="59" pan="0" pos="504" len="24" vol="100"/>
          <note key="55" pan="0" pos="552" len="24" vol="100"/>
          <note key="57" pan="0" pos="576" len="24" vol="100"/>
          <note key="57" pan="0" pos="624" len="24" vol="100"/>
          <note key="62" pan="0" pos="648" len="48" vol="100"/>
          <note key="60" pan="0" pos="696" len="48" vol="100"/>
          <note key="59" pan="0" pos="744" len="24" vol="100"/>
        </pattern>
        <pattern name="" pos="4608" muted="0" type="1" steps="16">
          <note key="57" pan="0" pos="0" len="24" vol="100"/>
          <note key="57" pan="0" pos="48" len="12" vol="100"/>
          <note key="60" pan="0" pos="72" len="24" vol="100"/>
          <note key="59" pan="0" pos="120" len="24" vol="100"/>
          <note key="55" pan="0" pos="168" len="24" vol="100"/>
          <note key="57" pan="0" pos="192" len="24" vol="100"/>
          <note key="57" pan="0" pos="240" len="12" vol="100"/>
          <note key="60" pan="0" pos="264" len="24" vol="100"/>
          <note key="59" pan="0" pos="312" len="24" vol="100"/>
          <note key="55" pan="0" pos="360" len="24" vol="100"/>
          <note key="57" pan="0" pos="384" len="24" vol="100"/>
          <note key="57" pan="0" pos="432" len="12" vol="100"/>
          <note key="60" pan="0" pos="456" len="24" vol="100"/>
          <note key="59" pan="0" pos="504" len="24" vol="100"/>
          <note key="55" pan="0" pos="552" len="24" vol="100"/>
          <note key="57" pan="0" pos="576" len="24" vol="100"/>
          <note key="57" pan="0" pos="624" len="24" vol="100"/>
          <note key="62" pan="0" pos="648" len="48" vol="100"/>
          <note key="60" pan="0" pos="696" len="48" vol="100"/>
          <note key="59" pan="0" pos="744" len="24" vol="100"/>
        </pattern>
        <pattern name="" pos="5376" muted="0" type="1" steps="16">
          <note key="57" pan="0" pos="0" len="24" vol="100"/>
          <note key="57" pan="0" pos="48" len="12" vol="100"/>
          <note key="60" pan="0" pos="72" len="24" vol="100"/>
          <note key="59" pan="0" pos="120" len="24" vol="100"/>
          <note key="55" pan="0" pos="168" len="24" vol="100"/>
          <note key="57" pan="0" pos="192" len="24" vol="100"/>
          <note key="57" pan="0" pos="240" len="12" vol="100"/>
          <note key="60" pan="0" pos="264" len="24" vol="100"/>
          <note key="59" pan="0" pos="312" len="24" vol="100"/>
          <note key="55" pan="0" pos="360" len="24" vol="100"/>
          <note key="57" pan="0" pos="384" len="24" vol="100"/>
          <note key="57" pan="0" pos="432" len="12" vol="100"/>
          <note key="60" pan="0" pos="456" len="24" vol="100"/>
          <note key="59" pan="0" pos="504" len="24" vol="100"/>
          <note key="55" pan="0" pos="552" len="24" vol="100"/>
          <note key="57" pan="0" pos="576" len="24" vol="100"/>
          <note key="57" pan="0" pos="624" len="24" vol="100"/>
          <note key="62" pan="0" pos="648" len="48" vol="100"/>
          <note key="60" pan="0" pos="696" len="48" vol="100"/>
          <note key="59" pan="0" pos="744" len="24" vol="100"/>
        </pattern>
        <pattern name="" pos="7680" muted="0" type="1" steps="16">
          <note key="57" pan="0" pos="0" len="24" vol="100"/>
          <note key="57" pan="0" pos="48" len="12" vol="100"/>
          <note key="60" pan="0" pos="72" len="24" vol="100"/>
          <note key="59" pan="0" pos="120" len="24" vol="100"/>
          <note key="55" pan="0" pos="168" len="24" vol="100"/>
          <note key="57" pan="0" pos="192" len="24" vol="100"/>
          <note key="57" pan="0" pos="240" len="12" vol="100"/>
          <note key="60" pan="0" pos="264" len="24" vol="100"/>
          <note key="59" pan="0" pos="312" len="24" vol="100"/>
          <note key="55" pan="0" pos="360" len="24" vol="100"/>
          <note key="57" pan="0" pos="384" len="24" vol="100"/>
          <note key="57" pan="0" pos="432" len="12" vol="100"/>
          <note key="60" pan="0" pos="456" len="24" vol="100"/>
          <note key="59" pan="0" pos="504" len="24" vol="100"/>
          <note key="55" pan="0" pos="552" len="24" vol="100"/>
          <note key="57" pan="0" pos="576" len="24" vol="100"/>
          <note key="57" pan="0" pos="624" len="24" vol="100"/>
          <note key="62" pan="0" pos="648" len="48" vol="100"/>
          <note key="60" pan="0" pos="696" len="48" vol="100"/>
          <note key="59" pan="0" pos="744" len="24" vol="100"/>
        </pattern>
        <pattern name="" pos="8448" muted="0" type="1" steps="16">
          <note key="57" pan="0" pos="0" len="24" vol="100"/>
          <note key="57" pan="0" pos="48" len="12" vol="100"/>
          <note key="60" pan="0" pos="72" len="24" vol="100"/>
          <note key="59" pan="0" pos="120" len="24" vol="100"/>
          <note key="55" pan="0" pos="168" len="24" vol="100"/>
          <note key="57" pan="0" pos="192" len="24" vol="100"/>
          <note key="57" pan="0" pos="240" len="12" vol="100"/>
          <note key="60" pan="0" pos="264" len="24" vol="100"/>
          <note key="59" pan="0" pos="312" len="24" vol="100"/>
          <note key="55" pan="0" pos="360" len="24" vol="100"/>
          <note key="57" pan="0" pos="384" len="24" vol="100"/>
          <note key="57" pan="0" pos="432" len="12" vol="100"/>
          <note key="60" pan="0" pos="456" len="24" vol="100"/>
          <note key="59" pan="0" pos="504" len="24" vol="100"/>
          <note key="55" pan="0" pos="552" len="24" vol="100"/>
          <note key="57" pan="0" pos="576" len="24" vol="100"/>
          <note key="57" pan="0" pos="624" len="24" vol="100"/>
          <note key="62" pan="0" pos="648" len="48" vol="100"/>
          <note key="60" pan="0" pos="696" len="48" vol="100"/>
          <note key="59" pan="0" pos="744" len="24" vol="100"/>
        </pattern>
        <pattern name="" pos="9216" muted="0" type="1" steps="16">
          <note key="57" pan="0" pos="0" len="24" vol="100"/>
          <note key="57" pan="0" pos="48" len="12" vol="100"/>
          <note key="60" pan="0" pos="72" len="24" vol="100"/>
          <note key="59" pan="0" pos="120" len="24" vol="100"/>
          <note key="55" pan="0" pos="168" len="24" vol="100"/>
          <note key="57" pan="0" pos="192" len="24" vol="100"/>
          <note key="57" pan="0" pos="240" len="12" vol="100"/>
          <note key="60" pan="0" pos="264" len="24" vol="100"/>
          <note key="59" pan="0" pos="312" len="24" vol="100"/>
          <note key="55" pan="0" pos="360" len="24" vol="100"/>
          <note key="57" pan="0" pos="384" len="24" vol="100"/>
          <note key="57" pan="0" pos="432" len="12" vol="100"/>
          <note key="60" pan="0" pos="456" len="24" vol="100"/>
          <note key="59" pan="0" pos="504" len="24" vol="100"/>
          <note key="55" pan="0" pos="552" len="24" vol="100"/>
          <note key="57" pan="0" pos="576" len="24" vol="100"/>
          <note key="57" pan="0" pos="624" len="24" vol="100"/>
          <note key="62" pan="0" pos="648" len="48" vol="100"/>
          <note key="60" pan="0" pos="696" len="48" vol="100"/>
          <note key="59" pan="0" pos="744" len="24" vol="100"/>
        </pattern>
        <pattern name="" pos="9984" muted="0" type="1" steps="16">
          <note key="57" pan="0" pos="0" len="24" vol="100"/>
          <note key="57" pan="0" pos="48" len="12" vol="100"/>
          <note key="60" pan="0" pos="72" len="24" vol="100"/>
          <note key="59" pan="0" pos="120" len="24" vol="100"/>
          <note key="55" pan="0" pos="168" len="24" vol="100"/>
          <note key="57" pan="0" pos="192" len="24" vol="100"/>
          <note key="57" pan="0" pos="240" len="12" vol="100"/>
          <note key="60" pan="0" pos="264" len="24" vol="100"/>
          <note key="59" pan="0" pos="312" len="24" vol="100"/>
          <note key="55" pan="0" pos="360" len="24" vol="100"/>
          <note key="57" pan="0" pos="384" len="24" vol="100"/>
          <note key="57" pan="0" pos="432" len="12" vol="100"/>
          <note key="60" pan="0" pos="456" len="24" vol="100"/>
          <note key="59" pan="0" pos="504" len="24" vol="100"/>
          <note key="55" pan="0" pos="552" len="24" vol="100"/>
          <note key="57" pan="0" pos="576" len="24" vol="100"/>
          <note key="57" pan="0" pos="624" len="24" vol="100"/>
          <note key="62" pan="0" pos="648" len="48" vol="100"/>
          <note key="60" pan="0" pos="696" len="48" vol="100"/>
          <note key="59" pan="0" pos="744" len="24" vol="100"/>
        </pattern>
        <pattern name="" pos="10752" muted="0" type="1" steps="16">
          <note key="57" pan="0" pos="0" len="24" vol="100"/>
          <note key="57" pan="0" pos="48" len="12" vol="100"/>
          <note key="60" pan="0" pos="72" len="24" vol="100"/>
          <note key="59" pan="0" pos="120" len="24" vol="100"/>
          <note key="55" pan="0" pos="168" len="24" vol="100"/>
          <note key="57" pan="0" pos="192" len="24" vol="100"/>
          <note key="57" pan="0" pos="240" len="12" vol="100"/>
          <note key="60" pan="0" pos="264" len="24" vol="100"/>
          <note key="59" pan="0" pos="312" len="24" vol="100"/>
          <note key="55" pan="0" pos="360" len="24" vol="100"/>
          <note key="57" pan="0" pos="384" len="24" vol="100"/>
          <note key="57" pan="0" pos="432" len="12" vol="100"/>
          <note key="60" pan="0" pos="456" len="24" vol="100"/>
          <note key="59" pan="0" pos="504" len="24" vol="100"/>
          <note key="55" pan="0" pos="552" len="24" vol="100"/>
          <note key="57" pan="0" pos="576" len="24" vol="100"/>
          <note key="57" pan="0" pos="624" len="24" vol="100"/>
          <note key="62" pan="0" pos="648" len="48" vol="100"/>
          <note key="60" pan="0" pos="696" len="48" vol="100"/>
          <note key="59" pan="0" pos="744" len="24" vol="100"/>
        </pattern>
        <pattern name="" pos="11520" muted="0" type="1" steps="16">
          <note key="57" pan="0" pos="0" len="24" vol="100"/>
          <note key="57" pan="0" pos="48" len="12" vol="100"/>
          <note key="60" pan="0" pos="72" len="24" vol="100"/>
          <note key="59" pan="0" pos="120" len="24" vol="100"/>
          <note key="55" pan="0" pos="168" len="24" vol="100"/>
          <note key="57" pan="0" pos="192" len="24" vol="100"/>
          <note key="57" pan="0" pos="240" len="12" vol="100"/>
          <note key="60" pan="0" pos="264" len="24" vol="100"/>
          <note key="59" pan="0" pos="312" len="24" vol="100"/>
          <note key="55" pan="0" pos="360" len="24" vol="100"/>
          <note key="57" pan="0" pos="384" len="24" vol="100"/>
          <note key="57" pan="0" pos="432" len="12" vol="100"/>
          <note key="60" pan="0" pos="456" len="24" vol="100"/>
          <note key="59" pan="0" pos="504" len="24" vol="100"/>
          <note key="55" pan="0" pos="552" len="24" vol="100"/>
          <note key="57" pan="0" pos="576" len="24" vol="100"/>
          <note key="57" pan="0" pos="624" len="24" vol="100"/>
          <note key="62" pan="0" pos="648" len="48" vol="100"/>
          <note key="60" pan="0" pos="696" len="48" vol="100"/>
          <note key="59" pan="0" pos="744" len="24" vol="100"/>
        </pattern>
        <pattern name="" pos="12288" muted="0" type="1" steps="16">
          <note key="57" pan="0" pos="0" len="24" vol="100"/>
          <note key="57" pan="0" pos="48" len="12" vol="100"/>
          <note key="60" pan="0" pos="72" len="24" vol="100"/>
          <note key="59" pan="0" pos="120" len="24" vol="100"/>
          <note key="55" pan="0" pos="168" len="24" vol="100"/>
          <note key="57" pan="0" pos="192" len="24" vol="100"/>
          <note key="57" pan="0" pos="240" len="12" vol="100"/>
          <note key="60" pan="0" pos="264" len="24" vol="100"/>
          <note key="59" pan="0" pos="312" len="24" vol="100"/>
          <note key="55" pan="0" pos="360" len="24" vol="100"/>
          <note key="57" pan="0" pos="384" len="24" vol="100"/>
          <note key="57" pan="0" pos="432" len="12" vol="100"/>
          <note key="60" pan="0" pos="456" len="24" vol="100"/>
          <note key="59" pan="0" pos="504" len="24" vol="100"/>
          <note key="55" pan="0" pos="552" len="24" vol="100"/>
          <note key="57" pan="0" pos="576" len="24" vol="100"/>
          <note key="57" pan="0" pos="624" len="24" vol="100"/>
          <note key="62" pan="0" pos="648" len="48" vol="100"/>
          <note key="60" pan="0" pos="696" len="48" vol="100"/>
          <note key="59" pan="0" pos="744" len="24" vol="100"/>
        </pattern>
        <pattern name="" pos="13056" muted="0" type="1" steps="16">
          <note key="57" pan="0" pos="0" len="24" vol="100"/>
          <note key="57" pan="0" pos="48" len="12" vol="100"/>
          <note key="60" pan="0" pos="72" len="24" vol="100"/>
          <note key="59" pan="0" pos="120" len="24" vol="100"/>
          <note key="55" pan="0" pos="168" len="24" vol="100"/>
          <note key="57" pan="0" pos="192" len="24" vol="100"/>
          <note key="57" pan="0" pos="240" len="12" vol="100"/>
          <note key="60" pan="0" pos="264" len="24" vol="100"/>
          <note key="59" pan="0" pos="312" len="24" vol="100"/>
          <note key="55" pan="0" pos="360" len="24" vol="100"/>
          <note key="57" pan="0" pos="384" len="24" vol="100"/>
          <note key="57" pan="0" pos="432" len="12" vol="100"/>
          <note key="60" pan="0" pos="456" len="24" vol="100"/>
          <note key="59" pan="0" pos="504" len="24" vol="100"/>
          <note key="55" pan="0" pos="552" len="24" vol="100"/>
          <note key="57" pan="0" pos="576" len="24" vol="100"/>
          <note key="57" pan="0" pos="624" len="24" vol="100"/>
          <note key="62" pan="0" pos="648" len="48" vol="100"/>
          <note key="60" pan="0" pos="696" len="48" vol="100"/>
          <note key="59" pan="0" pos="744" len="24" vol="100"/>
        </pattern>
        <pattern name="" pos="13824" muted="0" type="1" steps="16">
          <note key="57" pan="0" pos="0" len="24" vol="100"/>
          <note key="57" pan="0" pos="48" len="12" vol="100"/>
          <note key="60" pan="0" pos="72" len="24" vol="100"/>
          <note key="59" pan="0" pos="120" len="24" vol="100"/>
          <note key="55" pan="0" pos="168" len="24" vol="100"/>
          <note key="57" pan="0" pos="192" len="24" vol="100"/>
          <note key="57" pan="0" pos="240" len="12" vol="100"/>
          <note key="60" pan="0" pos="264" len="24" vol="100"/>
          <note key="59" pan="0" pos="312" len="24" vol="100"/>
          <note key="55" pan="0" pos="360" len="24" vol="100"/>
          <note key="57" pan="0" pos="384" len="24" vol="100"/>
          <note key="57" pan="0" pos="432" len="12" vol="100"/>
          <note key="60" pan="0" pos="456" len="24" vol="100"/>
          <note key="59" pan="0" pos="504" len="24" vol="100"/>
          <note key="55" pan="0" pos="552" len="24" vol="100"/>
          <note key="57" pan="0" pos="576" len="24" vol="100"/>
          <note key="57" pan="0" pos="624" len="24" vol="100"/>
          <note key="62" pan="0" pos="648" len="48" vol="100"/>
          <note key="60" pan="0" pos="696" len="48" vol="100"/>
          <note key="59" pan="0" pos="744" len="24" vol="100"/>
        </pattern>
        <pattern name="" pos="14592" muted="0" type="1" steps="16">
          <note key="57" pan="0" pos="0" len="24" vol="100"/>
          <note key="57" pan="0" pos="48" len="12" vol="100"/>
          <note key="60" pan="0" pos="72" len="24" vol="100"/>
          <note key="59" pan="0" pos="120" len="24" vol="100"/>
          <note key="55" pan="0" pos="168" len="24" vol="100"/>
          <note key="57" pan="0" pos="192" len="24" vol="100"/>
          <note key="57" pan="0" pos="240" len="12" vol="100"/>
          <note key="60" pan="0" pos="264" len="24" vol="100"/>
          <note key="59" pan="0" pos="312" len="24" vol="100"/>
          <note key="55" pan="0" pos="360" len="24" vol="100"/>
          <note key="57" pan="0" pos="384" len="24" vol="100"/>
          <note key="57" pan="0" pos="432" len="12" vol="100"/>
          <note key="60" pan="0" pos="456" len="24" vol="100"/>
          <note key="59" pan="0" pos="504" len="24" vol="100"/>
          <note key="55" pan="0" pos="552" len="24" vol="100"/>
          <note key="57" pan="0" pos="576" len="24" vol="100"/>
          <note key="57" pan="0" pos="624" len="24" vol="100"/>
          <note key="62" pan="0" pos="648" len="48" vol="100"/>
          <note key="60" pan="0" pos="696" len="48" vol="100"/>
          <note key="59" pan="0" pos="744" len="24" vol="100"/>
        </pattern>
        <pattern name="" pos="15360" muted="0" type="1" steps="16">
          <note key="57" pan="0" pos="0" len="24" vol="100"/>
          <note key="57" pan="0" pos="48" len="12" vol="100"/>
          <note key="60" pan="0" pos="72" len="24" vol="100"/>
          <note key="59" pan="0" pos="120" len="24" vol="100"/>
          <note key="55" pan="0" pos="168" len="24" vol="100"/>
          <note key="57" pan="0" pos="192" len="24" vol="100"/>
          <note key="57" pan="0" pos="240" len="12" vol="100"/>
          <note key="60" pan="0" pos="264" len="24" vol="100"/>
          <note key="59" pan="0" pos="312" len="24" vol="100"/>
          <note key="55" pan="0" pos="360" len="24" vol="100"/>
          <note key="57" pan="0" pos="384" len="24" vol="100"/>
          <note key="57" pan="0" pos="432" len="12" vol="100"/>
          <note key="60" pan="0" pos="456" len="24" vol="100"/>
          <note key="59" pan="0" pos="504" len="24" vol="100"/>
          <note key="55" pan="0" pos="552" len="24" vol="100"/>
          <note key="57" pan="0" pos="576" len="24" vol="100"/>
          <note key="57" pan="0" pos="624" len="24" vol="100"/>
          <note key="62" pan="0" pos="648" len="48" vol="100"/>
          <note key="60" pan="0" pos="696" len="48" vol="100"/>
          <note key="59" pan="0" pos="744" len="24" vol="100"/>
        </pattern>
        <pattern name="" pos="16128" muted="0" type="1" steps="16">
          <note key="57" pan="0" pos="0" len="24" vol="100"/>
          <note key="57" pan="0" pos="48" len="12" vol="100"/>
          <note key="60" pan="0" pos="72" len="24" vol="100"/>
          <note key="59" pan="0" pos="120" len="24" vol="100"/>
          <note key="55" pan="0" pos="168" len="24" vol="100"/>
          <note key="57" pan="0" pos="192" len="24" vol="100"/>
          <note key="57" pan="0" pos="240" len="12" vol="100"/>
          <note key="60" pan="0" pos="264" len="24" vol="100"/>
          <note key="59" pan="0" pos="312" len="24" vol="100"/>
          <note key="55" pan="0" pos="360" len="24" vol="100"/>
          <note key="57" pan="0" pos="384" len="24" vol="100"/>
          <note key="57" pan="0" pos="432" len="12" vol="100"/>
          <note key="60" pan="0" pos="456" len="24" vol="100"/>
          <note key="59" pan="0" pos="504" len="24" vol="100"/>
          <note key="55" pan="0" pos="552" len="24" vol="100"/>
          <note key="57" pan="0" pos="576" len="24" vol="100"/>
          <note key="57" pan="0" pos="624" len="24" vol="100"/>
          <note key="62" pan="0" pos="648" len="48" vol="100"/>
          <note key="60" pan="0" pos="696" len="48" vol="100"/>
          <note key="59" pan="0" pos="744" len="24" vol="100"/>
        </pattern>
        <pattern name="" pos="16896" muted="0" type="1" steps="16">
          <note key="57" pan="0" pos="0" len="24" vol="100"/>
        </pattern>
        <pattern name="" pos="6144" muted="0" type="1" steps="16">
          <note key="57" pan="0" pos="0" len="24" vol="100"/>
          <note key="57" pan="0" pos="48" len="12" vol="100"/>
          <note key="60" pan="0" pos="72" len="24" vol="100"/>
          <note key="59" pan="0" pos="120" len="24" vol="100"/>
          <note key="55" pan="0" pos="168" len="24" vol="100"/>
          <note key="57" pan="0" pos="192" len="24" vol="100"/>
          <note key="57" pan="0" pos="240" len="12" vol="100"/>
          <note key="60" pan="0" pos="264" len="24" vol="100"/>
          <note key="59" pan="0" pos="312" len="24" vol="100"/>
          <note key="55" pan="0" pos="360" len="24" vol="100"/>
          <note key="57" pan="0" pos="384" len="24" vol="100"/>
          <note key="57" pan="0" pos="432" len="12" vol="100"/>
          <note key="60" pan="0" pos="456" len="24" vol="100"/>
          <note key="59" pan="0" pos="504" len="24" vol="100"/>
          <note key="55" pan="0" pos="552" len="24" vol="100"/>
          <note key="57" pan="0" pos="576" len="24" vol="100"/>
          <note key="57" pan="0" pos="624" len="24" vol="100"/>
          <note key="62" pan="0" pos="648" len="48" vol="100"/>
          <note key="60" pan="0" pos="696" len="48" vol="100"/>
          <note key="59" pan="0" pos="744" len="24" vol="100"/>
        </pattern>
        <pattern name="" pos="6912" muted="0" type="1" steps="16">
          <note key="57" pan="0" pos="0" len="24" vol="100"/>
          <note key="57" pan="0" pos="48" len="12" vol="100"/>
          <note key="60" pan="0" pos="72" len="24" vol="100"/>
          <note key="59" pan="0" pos="120" len="24" vol="100"/>
          <note key="55" pan="0" pos="168" len="24" vol="100"/>
          <note key="57" pan="0" pos="192" len="24" vol="100"/>
          <note key="57" pan="0" pos="240" len="12" vol="100"/>
          <note key="60" pan="0" pos="264" len="24" vol="100"/>
          <note key="59" pan="0" pos="312" len="24" vol="100"/>
          <note key="55" pan="0" pos="360" len="24" vol="100"/>
          <note key="57" pan="0" pos="384" len="24" vol="100"/>
          <note key="57" pan="0" pos="432" len="12" vol="100"/>
          <note key="60" pan="0" pos="456" len="24" vol="100"/>
          <note key="59" pan="0" pos="504" len="24" vol="100"/>
          <note key="55" pan="0" pos="552" len="24" vol="100"/>
          <note key="57" pan="0" pos="576" len="24" vol="100"/>
          <note key="57" pan="0" pos="624" len="24" vol="100"/>
          <note key="62" pan="0" pos="648" len="48" vol="100"/>
          <note key="60" pan="0" pos="696" len="48" vol="100"/>
          <note key="59" pan="0" pos="744" len="24" vol="100"/>
        </pattern>
      </track>
      <track name="Organic" muted="0" type="0" solo="0">
        <instrumenttrack pitchrange="1" pan="0" fxch="3" basenote="57" pitch="0" vol="40" usemasterpitch="1">
          <instrument name="organic">
            <organic newharmonic4="4" wavetype4="2" newharmonic0="0" pan2="0" wavetype5="4" newharmonic1="1" pan1="0" newdetune4="2" pan3="0" vol3="86" pan0="0" foldback="0" newharmonic3="3" newharmonic2="2" pan5="0" vol4="2" pan6="0" vol6="81" pan7="0" newharmonic6="6" pan4="0" newharmonic5="5" newdetune7="-5" vol1="31" newdetune3="4" newdetune5="-4" newdetune6="4" wavetype0="0" num_osc="8" wavetype7="2" wavetype2="3" wavetype1="1" newharmonic7="7" newdetune0="0" wavetype6="1" vol7="87" vol="100" newdetune2="0" wavetype3="0" vol2="43" vol0="91" newdetune1="-5" vol5="59"/>
          </instrument>
          <eldata fcut="14000" ftype="0" fwet="0" fres="0.5">
            <elvol dec="0.5" ctlenvamt="0" latt="0" sustain="0.5" amt="1" lamt="0" pdel="0" rel="0.1" lshp="0" lpdel="0" hold="0.5" lspd_numerator="4" lspd_denominator="4" att="0" x100="0" lspd="0.1" lspd_syncmode="0" userwavefile=""/>
            <elcut dec="0.5" ctlenvamt="0" latt="0" sustain="0.5" amt="0" lamt="0" pdel="0" rel="0.1" lshp="0" lpdel="0" hold="0.5" lspd_numerator="4" lspd_denominator="4" att="0" x100="0" lspd="0.1" lspd_syncmode="0" userwavefile=""/>
            <elres dec="0.5" ctlenvamt="0" latt="0" sustain="0.5" amt="0" lamt="0" pdel="0" rel="0.1" lshp="0" lpdel="0" hold="0.5" lspd_numerator="4" lspd_denominator="4" att="0" x100="0" lspd="0.1" lspd_syncmode="0" userwavefile=""/>
          </eldata>
          <chordcreator chordrange="2" chord-enabled="1" chord="0"/>
          <arpeggiator arptime="200" arptime_syncmode="0" arpmode="0" arptime_numerator="4" arptime_denominator="4" arpdir="0" arpgate="100" arprange="1" arp-enabled="0" arpmiss="0" arp="0" arpcycle="0" arpskip="0"/>
          <midiport inputcontroller="0" fixedoutputnote="-1" writable="0" basevelocity="63" outputprogram="1" outputcontroller="0" fixedinputvelocity="-1" outputchannel="1" fixedoutputvelocity="-1" readable="0" inputchannel="0"/>
          <fxchain numofeffects="2" enabled="1">
            <effect gate="0" on="1" autoquit_syncmode="0" autoquit="1" name="stereoenhancer" autoquit_numerator="4" wet="1" autoquit_denominator="4">
              <stereoenhancercontrols width="100"/>
              <key/>
            </effect>
            <effect gate="0" on="1" autoquit_syncmode="0" autoquit="1" name="ladspaeffect" autoquit_numerator="4" wet="1" autoquit_denominator="4">
              <ladspacontrols ports="4">
                <port02 data="0.50200003"/>
                <port03 data="0.37450001"/>
                <port04 data="0.250375"/>
                <port05 data="0.1"/>
              </ladspacontrols>
              <key>
                <attribute value="caps" name="file"/>
                <attribute value="Plate2x2" name="plugin"/>
              </key>
            </effect>
          </fxchain>
        </instrumenttrack>
        <pattern name="Organic" pos="1536" muted="0" type="1" steps="16">
          <note key="57" pan="0" pos="0" len="24" vol="100"/>
          <note key="52" pan="0" pos="24" len="24" vol="55"/>
          <note key="57" pan="0" pos="48" len="12" vol="100"/>
          <note key="60" pan="0" pos="72" len="24" vol="100"/>
          <note key="59" pan="0" pos="120" len="24" vol="100"/>
          <note key="55" pan="0" pos="168" len="24" vol="100"/>
          <note key="57" pan="0" pos="192" len="24" vol="100"/>
          <note key="52" pan="0" pos="216" len="24" vol="53"/>
          <note key="57" pan="0" pos="240" len="12" vol="100"/>
          <note key="60" pan="0" pos="264" len="24" vol="100"/>
          <note key="59" pan="0" pos="312" len="24" vol="100"/>
          <note key="55" pan="0" pos="360" len="24" vol="100"/>
          <note key="57" pan="0" pos="384" len="24" vol="100"/>
          <note key="52" pan="0" pos="408" len="24" vol="53"/>
          <note key="57" pan="0" pos="432" len="12" vol="100"/>
          <note key="60" pan="0" pos="456" len="24" vol="100"/>
          <note key="59" pan="0" pos="504" len="24" vol="100"/>
          <note key="55" pan="0" pos="552" len="24" vol="100"/>
          <note key="57" pan="0" pos="576" len="24" vol="100"/>
          <note key="52" pan="0" pos="600" len="24" vol="53"/>
          <note key="57" pan="0" pos="624" len="24" vol="100"/>
          <note key="62" pan="0" pos="648" len="48" vol="100"/>
          <note key="60" pan="0" pos="696" len="48" vol="100"/>
          <note key="59" pan="0" pos="744" len="24" vol="100"/>
        </pattern>
        <pattern name="" pos="16896" muted="0" type="1" steps="16">
          <note key="57" pan="0" pos="0" len="24" vol="100"/>
        </pattern>
        <pattern name="" pos="2304" muted="0" type="1" steps="16">
          <note key="57" pan="0" pos="0" len="24" vol="100"/>
          <note key="52" pan="0" pos="24" len="24" vol="55"/>
          <note key="57" pan="0" pos="48" len="12" vol="100"/>
          <note key="60" pan="0" pos="72" len="24" vol="100"/>
          <note key="59" pan="0" pos="120" len="24" vol="100"/>
          <note key="55" pan="0" pos="168" len="24" vol="100"/>
          <note key="57" pan="0" pos="192" len="24" vol="100"/>
          <note key="52" pan="0" pos="216" len="24" vol="53"/>
          <note key="57" pan="0" pos="240" len="12" vol="100"/>
          <note key="60" pan="0" pos="264" len="24" vol="100"/>
          <note key="59" pan="0" pos="312" len="24" vol="100"/>
          <note key="55" pan="0" pos="360" len="24" vol="100"/>
          <note key="57" pan="0" pos="384" len="24" vol="100"/>
          <note key="52" pan="0" pos="408" len="24" vol="53"/>
          <note key="57" pan="0" pos="432" len="12" vol="100"/>
          <note key="60" pan="0" pos="456" len="24" vol="100"/>
          <note key="59" pan="0" pos="504" len="24" vol="100"/>
          <note key="55" pan="0" pos="552" len="24" vol="100"/>
          <note key="57" pan="0" pos="576" len="24" vol="100"/>
          <note key="52" pan="0" pos="600" len="24" vol="53"/>
          <note key="57" pan="0" pos="624" len="24" vol="100"/>
          <note key="62" pan="0" pos="648" len="48" vol="100"/>
          <note key="60" pan="0" pos="696" len="48" vol="100"/>
          <note key="59" pan="0" pos="744" len="24" vol="100"/>
        </pattern>
        <pattern name="" pos="3072" muted="0" type="1" steps="16">
          <note key="57" pan="0" pos="0" len="24" vol="100"/>
          <note key="52" pan="0" pos="24" len="24" vol="55"/>
          <note key="57" pan="0" pos="48" len="12" vol="100"/>
          <note key="60" pan="0" pos="72" len="24" vol="100"/>
          <note key="59" pan="0" pos="120" len="24" vol="100"/>
          <note key="55" pan="0" pos="168" len="24" vol="100"/>
          <note key="57" pan="0" pos="192" len="24" vol="100"/>
          <note key="52" pan="0" pos="216" len="24" vol="53"/>
          <note key="57" pan="0" pos="240" len="12" vol="100"/>
          <note key="60" pan="0" pos="264" len="24" vol="100"/>
          <note key="59" pan="0" pos="312" len="24" vol="100"/>
          <note key="55" pan="0" pos="360" len="24" vol="100"/>
          <note key="57" pan="0" pos="384" len="24" vol="100"/>
          <note key="52" pan="0" pos="408" len="24" vol="53"/>
          <note key="57" pan="0" pos="432" len="12" vol="100"/>
          <note key="60" pan="0" pos="456" len="24" vol="100"/>
          <note key="59" pan="0" pos="504" len="24" vol="100"/>
          <note key="55" pan="0" pos="552" len="24" vol="100"/>
          <note key="57" pan="0" pos="576" len="24" vol="100"/>
          <note key="52" pan="0" pos="600" len="24" vol="53"/>
          <note key="57" pan="0" pos="624" len="24" vol="100"/>
          <note key="62" pan="0" pos="648" len="48" vol="100"/>
          <note key="60" pan="0" pos="696" len="48" vol="100"/>
          <note key="59" pan="0" pos="744" len="24" vol="100"/>
        </pattern>
        <pattern name="" pos="3840" muted="0" type="1" steps="16">
          <note key="57" pan="0" pos="0" len="24" vol="100"/>
          <note key="52" pan="0" pos="24" len="24" vol="55"/>
          <note key="57" pan="0" pos="48" len="12" vol="100"/>
          <note key="60" pan="0" pos="72" len="24" vol="100"/>
          <note key="59" pan="0" pos="120" len="24" vol="100"/>
          <note key="55" pan="0" pos="168" len="24" vol="100"/>
          <note key="57" pan="0" pos="192" len="24" vol="100"/>
          <note key="52" pan="0" pos="216" len="24" vol="53"/>
          <note key="57" pan="0" pos="240" len="12" vol="100"/>
          <note key="60" pan="0" pos="264" len="24" vol="100"/>
          <note key="59" pan="0" pos="312" len="24" vol="100"/>
          <note key="55" pan="0" pos="360" len="24" vol="100"/>
          <note key="57" pan="0" pos="384" len="24" vol="100"/>
          <note key="52" pan="0" pos="408" len="24" vol="53"/>
          <note key="57" pan="0" pos="432" len="12" vol="100"/>
          <note key="60" pan="0" pos="456" len="24" vol="100"/>
          <note key="59" pan="0" pos="504" len="24" vol="100"/>
          <note key="55" pan="0" pos="552" len="24" vol="100"/>
          <note key="57" pan="0" pos="576" len="24" vol="100"/>
          <note key="52" pan="0" pos="600" len="24" vol="53"/>
          <note key="57" pan="0" pos="624" len="24" vol="100"/>
          <note key="62" pan="0" pos="648" len="48" vol="100"/>
          <note key="60" pan="0" pos="696" len="48" vol="100"/>
          <note key="59" pan="0" pos="744" len="24" vol="100"/>
        </pattern>
        <pattern name="" pos="4608" muted="0" type="1" steps="16">
          <note key="57" pan="0" pos="0" len="24" vol="100"/>
          <note key="52" pan="0" pos="24" len="24" vol="55"/>
          <note key="57" pan="0" pos="48" len="12" vol="100"/>
          <note key="60" pan="0" pos="72" len="24" vol="100"/>
          <note key="59" pan="0" pos="120" len="24" vol="100"/>
          <note key="55" pan="0" pos="168" len="24" vol="100"/>
          <note key="57" pan="0" pos="192" len="24" vol="100"/>
          <note key="52" pan="0" pos="216" len="24" vol="53"/>
          <note key="57" pan="0" pos="240" len="12" vol="100"/>
          <note key="60" pan="0" pos="264" len="24" vol="100"/>
          <note key="59" pan="0" pos="312" len="24" vol="100"/>
          <note key="55" pan="0" pos="360" len="24" vol="100"/>
          <note key="57" pan="0" pos="384" len="24" vol="100"/>
          <note key="52" pan="0" pos="408" len="24" vol="53"/>
          <note key="57" pan="0" pos="432" len="12" vol="100"/>
          <note key="60" pan="0" pos="456" len="24" vol="100"/>
          <note key="59" pan="0" pos="504" len="24" vol="100"/>
          <note key="55" pan="0" pos="552" len="24" vol="100"/>
          <note key="57" pan="0" pos="576" len="24" vol="100"/>
          <note key="52" pan="0" pos="600" len="24" vol="53"/>
          <note key="57" pan="0" pos="624" len="24" vol="100"/>
          <note key="62" pan="0" pos="648" len="48" vol="100"/>
          <note key="60" pan="0" pos="696" len="48" vol="100"/>
          <note key="59" pan="0" pos="744" len="24" vol="100"/>
        </pattern>
        <pattern name="" pos="5376" muted="0" type="1" steps="16">
          <note key="57" pan="0" pos="0" len="24" vol="100"/>
          <note key="52" pan="0" pos="24" len="24" vol="55"/>
          <note key="57" pan="0" pos="48" len="12" vol="100"/>
          <note key="60" pan="0" pos="72" len="24" vol="100"/>
          <note key="59" pan="0" pos="120" len="24" vol="100"/>
          <note key="55" pan="0" pos="168" len="24" vol="100"/>
          <note key="57" pan="0" pos="192" len="24" vol="100"/>
          <note key="52" pan="0" pos="216" len="24" vol="53"/>
          <note key="57" pan="0" pos="240" len="12" vol="100"/>
          <note key="60" pan="0" pos="264" len="24" vol="100"/>
          <note key="59" pan="0" pos="312" len="24" vol="100"/>
          <note key="55" pan="0" pos="360" len="24" vol="100"/>
          <note key="57" pan="0" pos="384" len="24" vol="100"/>
          <note key="52" pan="0" pos="408" len="24" vol="53"/>
          <note key="57" pan="0" pos="432" len="12" vol="100"/>
          <note key="60" pan="0" pos="456" len="24" vol="100"/>
          <note key="59" pan="0" pos="504" len="24" vol="100"/>
          <note key="55" pan="0" pos="552" len="24" vol="100"/>
          <note key="57" pan="0" pos="576" len="24" vol="100"/>
          <note key="52" pan="0" pos="600" len="24" vol="53"/>
          <note key="57" pan="0" pos="624" len="24" vol="100"/>
          <note key="62" pan="0" pos="648" len="48" vol="100"/>
          <note key="60" pan="0" pos="696" len="48" vol="100"/>
          <note key="59" pan="0" pos="744" len="24" vol="100"/>
        </pattern>
        <pattern name="" pos="7680" muted="0" type="1" steps="16">
          <note key="57" pan="0" pos="0" len="24" vol="100"/>
          <note key="52" pan="0" pos="24" len="24" vol="55"/>
          <note key="57" pan="0" pos="48" len="12" vol="100"/>
          <note key="60" pan="0" pos="72" len="24" vol="100"/>
          <note key="59" pan="0" pos="120" len="24" vol="100"/>
          <note key="55" pan="0" pos="168" len="24" vol="100"/>
          <note key="57" pan="0" pos="192" len="24" vol="100"/>
          <note key="52" pan="0" pos="216" len="24" vol="53"/>
          <note key="57" pan="0" pos="240" len="12" vol="100"/>
          <note key="60" pan="0" pos="264" len="24" vol="100"/>
          <note key="59" pan="0" pos="312" len="24" vol="100"/>
          <note key="55" pan="0" pos="360" len="24" vol="100"/>
          <note key="57" pan="0" pos="384" len="24" vol="100"/>
          <note key="52" pan="0" pos="408" len="24" vol="53"/>
          <note key="57" pan="0" pos="432" len="12" vol="100"/>
          <note key="60" pan="0" pos="456" len="24" vol="100"/>
          <note key="59" pan="0" pos="504" len="24" vol="100"/>
          <note key="55" pan="0" pos="552" len="24" vol="100"/>
          <note key="57" pan="0" pos="576" len="24" vol="100"/>
          <note key="52" pan="0" pos="600" len="24" vol="53"/>
          <note key="57" pan="0" pos="624" len="24" vol="100"/>
          <note key="62" pan="0" pos="648" len="48" vol="100"/>
          <note key="60" pan="0" pos="696" len="48" vol="100"/>
          <note key="59" pan="0" pos="744" len="24" vol="100"/>
        </pattern>
        <pattern name="" pos="8448" muted="0" type="1" steps="16">
          <note key="57" pan="0" pos="0" len="24" vol="100"/>
          <note key="52" pan="0" pos="24" len="24" vol="55"/>
          <note key="57" pan="0" pos="48" len="12" vol="100"/>
          <note key="60" pan="0" pos="72" len="24" vol="100"/>
          <note key="59" pan="0" pos="120" len="24" vol="100"/>
          <note key="55" pan="0" pos="168" len="24" vol="100"/>
          <note key="57" pan="0" pos="192" len="24" vol="100"/>
          <note key="52" pan="0" pos="216" len="24" vol="53"/>
          <note key="57" pan="0" pos="240" len="12" vol="100"/>
          <note key="60" pan="0" pos="264" len="24" vol="100"/>
          <note key="59" pan="0" pos="312" len="24" vol="100"/>
          <note key="55" pan="0" pos="360" len="24" vol="100"/>
          <note key="57" pan="0" pos="384" len="24" vol="100"/>
          <note key="52" pan="0" pos="408" len="24" vol="53"/>
          <note key="57" pan="0" pos="432" len="12" vol="100"/>
          <note key="60" pan="0" pos="456" len="24" vol="100"/>
          <note key="59" pan="0" pos="504" len="24" vol="100"/>
          <note key="55" pan="0" pos="552" len="24" vol="100"/>
          <note key="57" pan="0" pos="576" len="24" vol="100"/>
          <note key="52" pan="0" pos="600" len="24" vol="53"/>
          <note key="57" pan="0" pos="624" len="24" vol="100"/>
          <note key="62" pan="0" pos="648" len="48" vol="100"/>
          <note key="60" pan="0" pos="696" len="48" vol="100"/>
          <note key="59" pan="0" pos="744" len="24" vol="100"/>
        </pattern>
        <pattern name="" pos="9216" muted="0" type="1" steps="16">
          <note key="57" pan="0" pos="0" len="24" vol="100"/>
          <note key="52" pan="0" pos="24" len="24" vol="55"/>
          <note key="57" pan="0" pos="48" len="12" vol="100"/>
          <note key="60" pan="0" pos="72" len="24" vol="100"/>
          <note key="59" pan="0" pos="120" len="24" vol="100"/>
          <note key="55" pan="0" pos="168" len="24" vol="100"/>
          <note key="57" pan="0" pos="192" len="24" vol="100"/>
          <note key="52" pan="0" pos="216" len="24" vol="53"/>
          <note key="57" pan="0" pos="240" len="12" vol="100"/>
          <note key="60" pan="0" pos="264" len="24" vol="100"/>
          <note key="59" pan="0" pos="312" len="24" vol="100"/>
          <note key="55" pan="0" pos="360" len="24" vol="100"/>
          <note key="57" pan="0" pos="384" len="24" vol="100"/>
          <note key="52" pan="0" pos="408" len="24" vol="53"/>
          <note key="57" pan="0" pos="432" len="12" vol="100"/>
          <note key="60" pan="0" pos="456" len="24" vol="100"/>
          <note key="59" pan="0" pos="504" len="24" vol="100"/>
          <note key="55" pan="0" pos="552" len="24" vol="100"/>
          <note key="57" pan="0" pos="576" len="24" vol="100"/>
          <note key="52" pan="0" pos="600" len="24" vol="53"/>
          <note key="57" pan="0" pos="624" len="24" vol="100"/>
          <note key="62" pan="0" pos="648" len="48" vol="100"/>
          <note key="60" pan="0" pos="696" len="48" vol="100"/>
          <note key="59" pan="0" pos="744" len="24" vol="100"/>
        </pattern>
        <pattern name="" pos="9984" muted="0" type="1" steps="16">
          <note key="57" pan="0" pos="0" len="24" vol="100"/>
          <note key="52" pan="0" pos="24" len="24" vol="55"/>
          <note key="57" pan="0" pos="48" len="12" vol="100"/>
          <note key="60" pan="0" pos="72" len="24" vol="100"/>
          <note key="59" pan="0" pos="120" len="24" vol="100"/>
          <note key="55" pan="0" pos="168" len="24" vol="100"/>
          <note key="57" pan="0" pos="192" len="24" vol="100"/>
          <note key="52" pan="0" pos="216" len="24" vol="53"/>
          <note key="57" pan="0" pos="240" len="12" vol="100"/>
          <note key="60" pan="0" pos="264" len="24" vol="100"/>
          <note key="59" pan="0" pos="312" len="24" vol="100"/>
          <note key="55" pan="0" pos="360" len="24" vol="100"/>
          <note key="57" pan="0" pos="384" len="24" vol="100"/>
          <note key="52" pan="0" pos="408" len="24" vol="53"/>
          <note key="57" pan="0" pos="432" len="12" vol="100"/>
          <note key="60" pan="0" pos="456" len="24" vol="100"/>
          <note key="59" pan="0" pos="504" len="24" vol="100"/>
          <note key="55" pan="0" pos="552" len="24" vol="100"/>
          <note key="57" pan="0" pos="576" len="24" vol="100"/>
          <note key="52" pan="0" pos="600" len="24" vol="53"/>
          <note key="57" pan="0" pos="624" len="24" vol="100"/>
          <note key="62" pan="0" pos="648" len="48" vol="100"/>
          <note key="60" pan="0" pos="696" len="48" vol="100"/>
          <note key="59" pan="0" pos="744" len="24" vol="100"/>
        </pattern>
        <pattern name="" pos="10752" muted="0" type="1" steps="16">
          <note key="57" pan="0" pos="0" len="24" vol="100"/>
          <note key="52" pan="0" pos="24" len="24" vol="55"/>
          <note key="57" pan="0" pos="48" len="12" vol="100"/>
          <note key="60" pan="0" pos="72" len="24" vol="100"/>
          <note key="59" pan="0" pos="120" len="24" vol="100"/>
          <note key="55" pan="0" pos="168" len="24" vol="100"/>
          <note key="57" pan="0" pos="192" len="24" vol="100"/>
          <note key="52" pan="0" pos="216" len="24" vol="53"/>
          <note key="57" pan="0" pos="240" len="12" vol="100"/>
          <note key="60" pan="0" pos="264" len="24" vol="100"/>
          <note key="59" pan="0" pos="312" len="24" vol="100"/>
          <note key="55" pan="0" pos="360" len="24" vol="100"/>
          <note key="57" pan="0" pos="384" len="24" vol="100"/>
          <note key="52" pan="0" pos="408" len="24" vol="53"/>
          <note key="57" pan="0" pos="432" len="12" vol="100"/>
          <note key="60" pan="0" pos="456" len="24" vol="100"/>
          <note key="59" pan="0" pos="504" len="24" vol="100"/>
          <note key="55" pan="0" pos="552" len="24" vol="100"/>
          <note key="57" pan="0" pos="576" len="24" vol="100"/>
          <note key="52" pan="0" pos="600" len="24" vol="53"/>
          <note key="57" pan="0" pos="624" len="24" vol="100"/>
          <note key="62" pan="0" pos="648" len="48" vol="100"/>
          <note key="60" pan="0" pos="696" len="48" vol="100"/>
          <note key="59" pan="0" pos="744" len="24" vol="100"/>
        </pattern>
        <pattern name="" pos="11520" muted="0" type="1" steps="16">
          <note key="57" pan="0" pos="0" len="24" vol="100"/>
          <note key="52" pan="0" pos="24" len="24" vol="55"/>
          <note key="57" pan="0" pos="48" len="12" vol="100"/>
          <note key="60" pan="0" pos="72" len="24" vol="100"/>
          <note key="59" pan="0" pos="120" len="24" vol="100"/>
          <note key="55" pan="0" pos="168" len="24" vol="100"/>
          <note key="57" pan="0" pos="192" len="24" vol="100"/>
          <note key="52" pan="0" pos="216" len="24" vol="53"/>
          <note key="57" pan="0" pos="240" len="12" vol="100"/>
          <note key="60" pan="0" pos="264" len="24" vol="100"/>
          <note key="59" pan="0" pos="312" len="24" vol="100"/>
          <note key="55" pan="0" pos="360" len="24" vol="100"/>
          <note key="57" pan="0" pos="384" len="24" vol="100"/>
          <note key="52" pan="0" pos="408" len="24" vol="53"/>
          <note key="57" pan="0" pos="432" len="12" vol="100"/>
          <note key="60" pan="0" pos="456" len="24" vol="100"/>
          <note key="59" pan="0" pos="504" len="24" vol="100"/>
          <note key="55" pan="0" pos="552" len="24" vol="100"/>
          <note key="57" pan="0" pos="576" len="24" vol="100"/>
          <note key="52" pan="0" pos="600" len="24" vol="53"/>
          <note key="57" pan="0" pos="624" len="24" vol="100"/>
          <note key="62" pan="0" pos="648" len="48" vol="100"/>
          <note key="60" pan="0" pos="696" len="48" vol="100"/>
          <note key="59" pan="0" pos="744" len="24" vol="100"/>
        </pattern>
        <pattern name="" pos="12288" muted="0" type="1" steps="16">
          <note key="57" pan="0" pos="0" len="24" vol="100"/>
          <note key="52" pan="0" pos="24" len="24" vol="55"/>
          <note key="57" pan="0" pos="48" len="12" vol="100"/>
          <note key="60" pan="0" pos="72" len="24" vol="100"/>
          <note key="59" pan="0" pos="120" len="24" vol="100"/>
          <note key="55" pan="0" pos="168" len="24" vol="100"/>
          <note key="57" pan="0" pos="192" len="24" vol="100"/>
          <note key="52" pan="0" pos="216" len="24" vol="53"/>
          <note key="57" pan="0" pos="240" len="12" vol="100"/>
          <note key="60" pan="0" pos="264" len="24" vol="100"/>
          <note key="59" pan="0" pos="312" len="24" vol="100"/>
          <note key="55" pan="0" pos="360" len="24" vol="100"/>
          <note key="57" pan="0" pos="384" len="24" vol="100"/>
          <note key="52" pan="0" pos="408" len="24" vol="53"/>
          <note key="57" pan="0" pos="432" len="12" vol="100"/>
          <note key="60" pan="0" pos="456" len="24" vol="100"/>
          <note key="59" pan="0" pos="504" len="24" vol="100"/>
          <note key="55" pan="0" pos="552" len="24" vol="100"/>
          <note key="57" pan="0" pos="576" len="24" vol="100"/>
          <note key="52" pan="0" pos="600" len="24" vol="53"/>
          <note key="57" pan="0" pos="624" len="24" vol="100"/>
          <note key="62" pan="0" pos="648" len="48" vol="100"/>
          <note key="60" pan="0" pos="696" len="48" vol="100"/>
          <note key="59" pan="0" pos="744" len="24" vol="100"/>
        </pattern>
        <pattern name="" pos="13056" muted="0" type="1" steps="16">
          <note key="57" pan="0" pos="0" len="24" vol="100"/>
          <note key="52" pan="0" pos="24" len="24" vol="55"/>
          <note key="57" pan="0" pos="48" len="12" vol="100"/>
          <note key="60" pan="0" pos="72" len="24" vol="100"/>
          <note key="59" pan="0" pos="120" len="24" vol="100"/>
          <note key="55" pan="0" pos="168" len="24" vol="100"/>
          <note key="57" pan="0" pos="192" len="24" vol="100"/>
          <note key="52" pan="0" pos="216" len="24" vol="53"/>
          <note key="57" pan="0" pos="240" len="12" vol="100"/>
          <note key="60" pan="0" pos="264" len="24" vol="100"/>
          <note key="59" pan="0" pos="312" len="24" vol="100"/>
          <note key="55" pan="0" pos="360" len="24" vol="100"/>
          <note key="57" pan="0" pos="384" len="24" vol="100"/>
          <note key="52" pan="0" pos="408" len="24" vol="53"/>
          <note key="57" pan="0" pos="432" len="12" vol="100"/>
          <note key="60" pan="0" pos="456" len="24" vol="100"/>
          <note key="59" pan="0" pos="504" len="24" vol="100"/>
          <note key="55" pan="0" pos="552" len="24" vol="100"/>
          <note key="57" pan="0" pos="576" len="24" vol="100"/>
          <note key="52" pan="0" pos="600" len="24" vol="53"/>
          <note key="57" pan="0" pos="624" len="24" vol="100"/>
          <note key="62" pan="0" pos="648" len="48" vol="100"/>
          <note key="60" pan="0" pos="696" len="48" vol="100"/>
          <note key="59" pan="0" pos="744" len="24" vol="100"/>
        </pattern>
        <pattern name="" pos="13824" muted="0" type="1" steps="16">
          <note key="57" pan="0" pos="0" len="24" vol="100"/>
          <note key="52" pan="0" pos="24" len="24" vol="55"/>
          <note key="57" pan="0" pos="48" len="12" vol="100"/>
          <note key="60" pan="0" pos="72" len="24" vol="100"/>
          <note key="59" pan="0" pos="120" len="24" vol="100"/>
          <note key="55" pan="0" pos="168" len="24" vol="100"/>
          <note key="57" pan="0" pos="192" len="24" vol="100"/>
          <note key="52" pan="0" pos="216" len="24" vol="53"/>
          <note key="57" pan="0" pos="240" len="12" vol="100"/>
          <note key="60" pan="0" pos="264" len="24" vol="100"/>
          <note key="59" pan="0" pos="312" len="24" vol="100"/>
          <note key="55" pan="0" pos="360" len="24" vol="100"/>
          <note key="57" pan="0" pos="384" len="24" vol="100"/>
          <note key="52" pan="0" pos="408" len="24" vol="53"/>
          <note key="57" pan="0" pos="432" len="12" vol="100"/>
          <note key="60" pan="0" pos="456" len="24" vol="100"/>
          <note key="59" pan="0" pos="504" len="24" vol="100"/>
          <note key="55" pan="0" pos="552" len="24" vol="100"/>
          <note key="57" pan="0" pos="576" len="24" vol="100"/>
          <note key="52" pan="0" pos="600" len="24" vol="53"/>
          <note key="57" pan="0" pos="624" len="24" vol="100"/>
          <note key="62" pan="0" pos="648" len="48" vol="100"/>
          <note key="60" pan="0" pos="696" len="48" vol="100"/>
          <note key="59" pan="0" pos="744" len="24" vol="100"/>
        </pattern>
        <pattern name="" pos="14592" muted="0" type="1" steps="16">
          <note key="57" pan="0" pos="0" len="24" vol="100"/>
          <note key="52" pan="0" pos="24" len="24" vol="55"/>
          <note key="57" pan="0" pos="48" len="12" vol="100"/>
          <note key="60" pan="0" pos="72" len="24" vol="100"/>
          <note key="59" pan="0" pos="120" len="24" vol="100"/>
          <note key="55" pan="0" pos="168" len="24" vol="100"/>
          <note key="57" pan="0" pos="192" len="24" vol="100"/>
          <note key="52" pan="0" pos="216" len="24" vol="53"/>
          <note key="57" pan="0" pos="240" len="12" vol="100"/>
          <note key="60" pan="0" pos="264" len="24" vol="100"/>
          <note key="59" pan="0" pos="312" len="24" vol="100"/>
          <note key="55" pan="0" pos="360" len="24" vol="100"/>
          <note key="57" pan="0" pos="384" len="24" vol="100"/>
          <note key="52" pan="0" pos="408" len="24" vol="53"/>
          <note key="57" pan="0" pos="432" len="12" vol="100"/>
          <note key="60" pan="0" pos="456" len="24" vol="100"/>
          <note key="59" pan="0" pos="504" len="24" vol="100"/>
          <note key="55" pan="0" pos="552" len="24" vol="100"/>
          <note key="57" pan="0" pos="576" len="24" vol="100"/>
          <note key="52" pan="0" pos="600" len="24" vol="53"/>
          <note key="57" pan="0" pos="624" len="24" vol="100"/>
          <note key="62" pan="0" pos="648" len="48" vol="100"/>
          <note key="60" pan="0" pos="696" len="48" vol="100"/>
          <note key="59" pan="0" pos="744" len="24" vol="100"/>
        </pattern>
        <pattern name="" pos="15360" muted="0" type="1" steps="16">
          <note key="57" pan="0" pos="0" len="24" vol="100"/>
          <note key="52" pan="0" pos="24" len="24" vol="55"/>
          <note key="57" pan="0" pos="48" len="12" vol="100"/>
          <note key="60" pan="0" pos="72" len="24" vol="100"/>
          <note key="59" pan="0" pos="120" len="24" vol="100"/>
          <note key="55" pan="0" pos="168" len="24" vol="100"/>
          <note key="57" pan="0" pos="192" len="24" vol="100"/>
          <note key="52" pan="0" pos="216" len="24" vol="53"/>
          <note key="57" pan="0" pos="240" len="12" vol="100"/>
          <note key="60" pan="0" pos="264" len="24" vol="100"/>
          <note key="59" pan="0" pos="312" len="24" vol="100"/>
          <note key="55" pan="0" pos="360" len="24" vol="100"/>
          <note key="57" pan="0" pos="384" len="24" vol="100"/>
          <note key="52" pan="0" pos="408" len="24" vol="53"/>
          <note key="57" pan="0" pos="432" len="12" vol="100"/>
          <note key="60" pan="0" pos="456" len="24" vol="100"/>
          <note key="59" pan="0" pos="504" len="24" vol="100"/>
          <note key="55" pan="0" pos="552" len="24" vol="100"/>
          <note key="57" pan="0" pos="576" len="24" vol="100"/>
          <note key="52" pan="0" pos="600" len="24" vol="53"/>
          <note key="57" pan="0" pos="624" len="24" vol="100"/>
          <note key="62" pan="0" pos="648" len="48" vol="100"/>
          <note key="60" pan="0" pos="696" len="48" vol="100"/>
          <note key="59" pan="0" pos="744" len="24" vol="100"/>
        </pattern>
        <pattern name="" pos="16128" muted="0" type="1" steps="16">
          <note key="57" pan="0" pos="0" len="24" vol="100"/>
          <note key="52" pan="0" pos="24" len="24" vol="55"/>
          <note key="57" pan="0" pos="48" len="12" vol="100"/>
          <note key="60" pan="0" pos="72" len="24" vol="100"/>
          <note key="59" pan="0" pos="120" len="24" vol="100"/>
          <note key="55" pan="0" pos="168" len="24" vol="100"/>
          <note key="57" pan="0" pos="192" len="24" vol="100"/>
          <note key="52" pan="0" pos="216" len="24" vol="53"/>
          <note key="57" pan="0" pos="240" len="12" vol="100"/>
          <note key="60" pan="0" pos="264" len="24" vol="100"/>
          <note key="59" pan="0" pos="312" len="24" vol="100"/>
          <note key="55" pan="0" pos="360" len="24" vol="100"/>
          <note key="57" pan="0" pos="384" len="24" vol="100"/>
          <note key="52" pan="0" pos="408" len="24" vol="53"/>
          <note key="57" pan="0" pos="432" len="12" vol="100"/>
          <note key="60" pan="0" pos="456" len="24" vol="100"/>
          <note key="59" pan="0" pos="504" len="24" vol="100"/>
          <note key="55" pan="0" pos="552" len="24" vol="100"/>
          <note key="57" pan="0" pos="576" len="24" vol="100"/>
          <note key="52" pan="0" pos="600" len="24" vol="53"/>
          <note key="57" pan="0" pos="624" len="24" vol="100"/>
          <note key="62" pan="0" pos="648" len="48" vol="100"/>
          <note key="60" pan="0" pos="696" len="48" vol="100"/>
          <note key="59" pan="0" pos="744" len="24" vol="100"/>
        </pattern>
        <pattern name="" pos="6144" muted="0" type="1" steps="16">
          <note key="57" pan="0" pos="0" len="24" vol="100"/>
          <note key="52" pan="0" pos="24" len="24" vol="55"/>
          <note key="57" pan="0" pos="48" len="12" vol="100"/>
          <note key="60" pan="0" pos="72" len="24" vol="100"/>
          <note key="59" pan="0" pos="120" len="24" vol="100"/>
          <note key="55" pan="0" pos="168" len="24" vol="100"/>
          <note key="57" pan="0" pos="192" len="24" vol="100"/>
          <note key="52" pan="0" pos="216" len="24" vol="53"/>
          <note key="57" pan="0" pos="240" len="12" vol="100"/>
          <note key="60" pan="0" pos="264" len="24" vol="100"/>
          <note key="59" pan="0" pos="312" len="24" vol="100"/>
          <note key="55" pan="0" pos="360" len="24" vol="100"/>
          <note key="57" pan="0" pos="384" len="24" vol="100"/>
          <note key="52" pan="0" pos="408" len="24" vol="53"/>
          <note key="57" pan="0" pos="432" len="12" vol="100"/>
          <note key="60" pan="0" pos="456" len="24" vol="100"/>
          <note key="59" pan="0" pos="504" len="24" vol="100"/>
          <note key="55" pan="0" pos="552" len="24" vol="100"/>
          <note key="57" pan="0" pos="576" len="24" vol="100"/>
          <note key="52" pan="0" pos="600" len="24" vol="53"/>
          <note key="57" pan="0" pos="624" len="24" vol="100"/>
          <note key="62" pan="0" pos="648" len="48" vol="100"/>
          <note key="60" pan="0" pos="696" len="48" vol="100"/>
          <note key="59" pan="0" pos="744" len="24" vol="100"/>
        </pattern>
        <pattern name="" pos="6912" muted="0" type="1" steps="16">
          <note key="57" pan="0" pos="0" len="24" vol="100"/>
          <note key="52" pan="0" pos="24" len="24" vol="55"/>
          <note key="57" pan="0" pos="48" len="12" vol="100"/>
          <note key="60" pan="0" pos="72" len="24" vol="100"/>
          <note key="59" pan="0" pos="120" len="24" vol="100"/>
          <note key="55" pan="0" pos="168" len="24" vol="100"/>
          <note key="57" pan="0" pos="192" len="24" vol="100"/>
          <note key="52" pan="0" pos="216" len="24" vol="53"/>
          <note key="57" pan="0" pos="240" len="12" vol="100"/>
          <note key="60" pan="0" pos="264" len="24" vol="100"/>
          <note key="59" pan="0" pos="312" len="24" vol="100"/>
          <note key="55" pan="0" pos="360" len="24" vol="100"/>
          <note key="57" pan="0" pos="384" len="24" vol="100"/>
          <note key="52" pan="0" pos="408" len="24" vol="53"/>
          <note key="57" pan="0" pos="432" len="12" vol="100"/>
          <note key="60" pan="0" pos="456" len="24" vol="100"/>
          <note key="59" pan="0" pos="504" len="24" vol="100"/>
          <note key="55" pan="0" pos="552" len="24" vol="100"/>
          <note key="57" pan="0" pos="576" len="24" vol="100"/>
          <note key="52" pan="0" pos="600" len="24" vol="53"/>
          <note key="57" pan="0" pos="624" len="24" vol="100"/>
          <note key="62" pan="0" pos="648" len="48" vol="100"/>
          <note key="60" pan="0" pos="696" len="48" vol="100"/>
          <note key="59" pan="0" pos="744" len="24" vol="100"/>
        </pattern>
      </track>
      <track name="BitInvader" muted="0" type="0" solo="0">
        <instrumenttrack pitchrange="1" pan="0" fxch="4" basenote="57" pitch="0" vol="18.800001" usemasterpitch="1">
          <instrument name="bitinvader">
            <bitinvader sampleLength="128" sampleShape="AACAvwAAfL8AAHi/AAB0vwAAcL8AAGy/AABovwAAZL8AAGC/AABcvwAAWL8AAFS/AABQvwAATL8AAEi/AABEvwAAQL8AADy/AAA4vwAANL8AADC/AAAsvwAAKL8AACS/AAAgvwAAHL8AABi/AAAUvwAAEL8AAAy/AAAIvwAABL8AAAC/AAD4vgAA8L4AAOi+AADgvgAA2L4AANC+AADIvgAAwL4AALi+AACwvgAAqL4AAKC+AACYvgAAkL4AAIi+AACAvgAAcL4AAGC+AABQvgAAQL4AADC+AAAgvgAAEL4AAAC+AADgvQAAwL0AAKC9AACAvQAAQL0AAAC9AACAvAAAAAAAAIA8AAAAPQAAQD0AAIA9AACgPQAAwD0AAOA9AAAAPgAAED4AACA+AAAwPgAAQD4AAFA+AABgPgAAcD4AAIA+AACIPgAAkD4AAJg+AACgPgAAqD4AALA+AAC4PgAAwD4AAMg+AADQPgAA2D4AAOA+AADoPgAA8D4AAPg+AAAAPwAABD8AAAg/AAAMPwAAED8AABQ/AAAYPwAAHD8AACA/AAAkPwAAKD8AACw/AAAwPwAAND8AADg/AAA8PwAAQD8AAEQ/AABIPwAATD8AAFA/AABUPwAAWD8AAFw/AABgPwAAZD8AAGg/AABsPwAAcD8AAHQ/AAB4PwAAfD8=" interpolation="0" version="0.1" normalize="0"/>
          </instrument>
          <eldata fcut="14000" ftype="0" fwet="0" fres="0.5">
            <elvol dec="0.5" ctlenvamt="0" latt="0" sustain="0.5" amt="1" lamt="0" pdel="0" rel="0.1" lshp="0" lpdel="0" hold="0.5" lspd_numerator="4" lspd_denominator="4" att="0" x100="0" lspd="0.1" lspd_syncmode="0" userwavefile=""/>
            <elcut dec="0.5" ctlenvamt="0" latt="0" sustain="0.5" amt="0" lamt="0" pdel="0" rel="0.1" lshp="0" lpdel="0" hold="0.5" lspd_numerator="4" lspd_denominator="4" att="0" x100="0" lspd="0.1" lspd_syncmode="0" userwavefile=""/>
            <elres dec="0.5" ctlenvamt="0" latt="0" sustain="0.5" amt="0" lamt="0" pdel="0" rel="0.1" lshp="0" lpdel="0" hold="0.5" lspd_numerator="4" lspd_denominator="4" att="0" x100="0" lspd="0.1" lspd_syncmode="0" userwavefile=""/>
          </eldata>
          <chordcreator chordrange="1" chord-enabled="0" chord="0"/>
          <arpeggiator arptime="200" arptime_syncmode="0" arpmode="0" arptime_numerator="4" arptime_denominator="4" arpdir="0" arpgate="100" arprange="1" arp-enabled="0" arpmiss="0" arp="0" arpcycle="0" arpskip="0"/>
          <midiport inputcontroller="0" fixedoutputnote="-1" writable="0" basevelocity="63" outputprogram="1" outputcontroller="0" fixedinputvelocity="-1" outputchannel="1" fixedoutputvelocity="-1" readable="0" inputchannel="0"/>
          <fxchain numofeffects="2" enabled="1">
            <effect gate="0" on="1" autoquit_syncmode="0" autoquit="1" name="stereoenhancer" autoquit_numerator="4" wet="1" autoquit_denominator="4">
              <stereoenhancercontrols width="100"/>
              <key/>
            </effect>
            <effect gate="0" on="1" autoquit_syncmode="0" autoquit="1" name="ladspaeffect" autoquit_numerator="4" wet="1" autoquit_denominator="4">
              <ladspacontrols ports="4">
                <port02 data="0.50200003"/>
                <port03 data="0.37450001"/>
                <port04 data="0.250375"/>
                <port05 data="0.1"/>
              </ladspacontrols>
              <key>
                <attribute value="caps" name="file"/>
                <attribute value="Plate2x2" name="plugin"/>
              </key>
            </effect>
          </fxchain>
        </instrumenttrack>
        <pattern name="BitInvader" pos="12288" muted="0" type="1" steps="16">
          <note key="57" pan="0" pos="0" len="24" vol="100"/>
          <note key="57" pan="0" pos="48" len="12" vol="100"/>
          <note key="60" pan="0" pos="72" len="24" vol="100"/>
          <note key="59" pan="0" pos="120" len="24" vol="100"/>
          <note key="55" pan="0" pos="168" len="24" vol="100"/>
          <note key="57" pan="0" pos="192" len="24" vol="100"/>
          <note key="57" pan="0" pos="240" len="12" vol="100"/>
          <note key="60" pan="0" pos="264" len="24" vol="100"/>
          <note key="59" pan="0" pos="312" len="24" vol="100"/>
          <note key="55" pan="0" pos="360" len="24" vol="100"/>
          <note key="57" pan="0" pos="384" len="24" vol="100"/>
          <note key="57" pan="0" pos="432" len="12" vol="100"/>
          <note key="60" pan="0" pos="456" len="24" vol="100"/>
          <note key="59" pan="0" pos="504" len="24" vol="100"/>
          <note key="55" pan="0" pos="552" len="24" vol="100"/>
          <note key="57" pan="0" pos="576" len="24" vol="100"/>
          <note key="57" pan="0" pos="624" len="24" vol="100"/>
          <note key="62" pan="0" pos="648" len="48" vol="100"/>
          <note key="60" pan="0" pos="696" len="48" vol="100"/>
          <note key="59" pan="0" pos="744" len="24" vol="100"/>
        </pattern>
        <pattern name="BitInvader" pos="13056" muted="0" type="1" steps="16">
          <note key="57" pan="0" pos="0" len="24" vol="100"/>
          <note key="57" pan="0" pos="48" len="12" vol="100"/>
          <note key="60" pan="0" pos="72" len="24" vol="100"/>
          <note key="59" pan="0" pos="120" len="24" vol="100"/>
          <note key="55" pan="0" pos="168" len="24" vol="100"/>
          <note key="57" pan="0" pos="192" len="24" vol="100"/>
          <note key="57" pan="0" pos="240" len="12" vol="100"/>
          <note key="60" pan="0" pos="264" len="24" vol="100"/>
          <note key="59" pan="0" pos="312" len="24" vol="100"/>
          <note key="55" pan="0" pos="360" len="24" vol="100"/>
          <note key="57" pan="0" pos="384" len="24" vol="100"/>
          <note key="57" pan="0" pos="432" len="12" vol="100"/>
          <note key="60" pan="0" pos="456" len="24" vol="100"/>
          <note key="59" pan="0" pos="504" len="24" vol="100"/>
          <note key="55" pan="0" pos="552" len="24" vol="100"/>
          <note key="57" pan="0" pos="576" len="24" vol="100"/>
          <note key="57" pan="0" pos="624" len="24" vol="100"/>
          <note key="62" pan="0" pos="648" len="48" vol="100"/>
          <note key="60" pan="0" pos="696" len="48" vol="100"/>
          <note key="59" pan="0" pos="744" len="24" vol="100"/>
        </pattern>
        <pattern name="BitInvader" pos="13824" muted="0" type="1" steps="16">
          <note key="57" pan="0" pos="0" len="24" vol="100"/>
          <note key="57" pan="0" pos="48" len="12" vol="100"/>
          <note key="60" pan="0" pos="72" len="24" vol="100"/>
          <note key="59" pan="0" pos="120" len="24" vol="100"/>
          <note key="55" pan="0" pos="168" len="24" vol="100"/>
          <note key="57" pan="0" pos="192" len="24" vol="100"/>
          <note key="57" pan="0" pos="240" len="12" vol="100"/>
          <note key="60" pan="0" pos="264" len="24" vol="100"/>
          <note key="59" pan="0" pos="312" len="24" vol="100"/>
          <note key="55" pan="0" pos="360" len="24" vol="100"/>
          <note key="57" pan="0" pos="384" len="24" vol="100"/>
          <note key="57" pan="0" pos="432" len="12" vol="100"/>
          <note key="60" pan="0" pos="456" len="24" vol="100"/>
          <note key="59" pan="0" pos="504" len="24" vol="100"/>
          <note key="55" pan="0" pos="552" len="24" vol="100"/>
          <note key="57" pan="0" pos="576" len="24" vol="100"/>
          <note key="57" pan="0" pos="624" len="24" vol="100"/>
          <note key="62" pan="0" pos="648" len="48" vol="100"/>
          <note key="60" pan="0" pos="696" len="48" vol="100"/>
          <note key="59" pan="0" pos="744" len="24" vol="100"/>
        </pattern>
        <pattern name="BitInvader" pos="14592" muted="0" type="1" steps="16">
          <note key="57" pan="0" pos="0" len="24" vol="100"/>
          <note key="57" pan="0" pos="48" len="12" vol="100"/>
          <note key="60" pan="0" pos="72" len="24" vol="100"/>
          <note key="59" pan="0" pos="120" len="24" vol="100"/>
          <note key="55" pan="0" pos="168" len="24" vol="100"/>
          <note key="57" pan="0" pos="192" len="24" vol="100"/>
          <note key="57" pan="0" pos="240" len="12" vol="100"/>
          <note key="60" pan="0" pos="264" len="24" vol="100"/>
          <note key="59" pan="0" pos="312" len="24" vol="100"/>
          <note key="55" pan="0" pos="360" len="24" vol="100"/>
          <note key="57" pan="0" pos="384" len="24" vol="100"/>
          <note key="57" pan="0" pos="432" len="12" vol="100"/>
          <note key="60" pan="0" pos="456" len="24" vol="100"/>
          <note key="59" pan="0" pos="504" len="24" vol="100"/>
          <note key="55" pan="0" pos="552" len="24" vol="100"/>
          <note key="57" pan="0" pos="576" len="24" vol="100"/>
          <note key="57" pan="0" pos="624" len="24" vol="100"/>
          <note key="62" pan="0" pos="648" len="48" vol="100"/>
          <note key="60" pan="0" pos="696" len="48" vol="100"/>
          <note key="59" pan="0" pos="744" len="24" vol="100"/>
        </pattern>
        <pattern name="BitInvader" pos="15360" muted="0" type="1" steps="16">
          <note key="57" pan="0" pos="0" len="24" vol="100"/>
          <note key="57" pan="0" pos="48" len="12" vol="100"/>
          <note key="60" pan="0" pos="72" len="24" vol="100"/>
          <note key="59" pan="0" pos="120" len="24" vol="100"/>
          <note key="55" pan="0" pos="168" len="24" vol="100"/>
          <note key="57" pan="0" pos="192" len="24" vol="100"/>
          <note key="57" pan="0" pos="240" len="12" vol="100"/>
          <note key="60" pan="0" pos="264" len="24" vol="100"/>
          <note key="59" pan="0" pos="312" len="24" vol="100"/>
          <note key="55" pan="0" pos="360" len="24" vol="100"/>
          <note key="57" pan="0" pos="384" len="24" vol="100"/>
          <note key="57" pan="0" pos="432" len="12" vol="100"/>
          <note key="60" pan="0" pos="456" len="24" vol="100"/>
          <note key="59" pan="0" pos="504" len="24" vol="100"/>
          <note key="55" pan="0" pos="552" len="24" vol="100"/>
          <note key="57" pan="0" pos="576" len="24" vol="100"/>
          <note key="57" pan="0" pos="624" len="24" vol="100"/>
          <note key="62" pan="0" pos="648" len="48" vol="100"/>
          <note key="60" pan="0" pos="696" len="48" vol="100"/>
          <note key="59" pan="0" pos="744" len="24" vol="100"/>
        </pattern>
        <pattern name="" pos="16128" muted="0" type="1" steps="16">
          <note key="57" pan="0" pos="0" len="24" vol="100"/>
          <note key="57" pan="0" pos="48" len="12" vol="100"/>
          <note key="60" pan="0" pos="72" len="24" vol="100"/>
          <note key="59" pan="0" pos="120" len="24" vol="100"/>
          <note key="55" pan="0" pos="168" len="24" vol="100"/>
          <note key="57" pan="0" pos="192" len="24" vol="100"/>
          <note key="57" pan="0" pos="240" len="12" vol="100"/>
          <note key="60" pan="0" pos="264" len="24" vol="100"/>
          <note key="59" pan="0" pos="312" len="24" vol="100"/>
          <note key="55" pan="0" pos="360" len="24" vol="100"/>
          <note key="57" pan="0" pos="384" len="24" vol="100"/>
          <note key="57" pan="0" pos="432" len="12" vol="100"/>
          <note key="60" pan="0" pos="456" len="24" vol="100"/>
          <note key="59" pan="0" pos="504" len="24" vol="100"/>
          <note key="55" pan="0" pos="552" len="24" vol="100"/>
          <note key="57" pan="0" pos="576" len="24" vol="100"/>
          <note key="57" pan="0" pos="624" len="24" vol="100"/>
          <note key="62" pan="0" pos="648" len="48" vol="100"/>
          <note key="60" pan="0" pos="696" len="48" vol="100"/>
          <note key="59" pan="0" pos="744" len="24" vol="100"/>
        </pattern>
        <pattern name="" pos="16896" muted="0" type="1" steps="16">
          <note key="57" pan="0" pos="0" len="24" vol="100"/>
        </pattern>
      </track>
      <track name="BitInvader" muted="0" type="0" solo="0">
        <instrumenttrack pitchrange="1" pan="0" fxch="4" basenote="57" pitch="0" vol="25.200001" usemasterpitch="1">
          <instrument name="bitinvader">
            <bitinvader sampleLength="128" sampleShape="AACAvwAAfL8AAHi/AAB0vwAAcL8AAGy/AABovwAAZL8AAGC/AABcvwAAWL8AAFS/AABQvwAATL8AAEi/AABEvwAAQL8AADy/AAA4vwAANL8AADC/AAAsvwAAKL8AACS/AAAgvwAAHL8AABi/AAAUvwAAEL8AAAy/AAAIvwAABL8AAAC/AAD4vgAA8L4AAOi+AADgvgAA2L4AANC+AADIvgAAwL4AALi+AACwvgAAqL4AAKC+AACYvgAAkL4AAIi+AACAvgAAcL4AAGC+AABQvgAAQL4AADC+AAAgvgAAEL4AAAC+AADgvQAAwL0AAKC9AACAvQAAQL0AAAC9AACAvAAAAAAAAIA8AAAAPQAAQD0AAIA9AACgPQAAwD0AAOA9AAAAPgAAED4AACA+AAAwPgAAQD4AAFA+AABgPgAAcD4AAIA+AACIPgAAkD4AAJg+AACgPgAAqD4AALA+AAC4PgAAwD4AAMg+AADQPgAA2D4AAOA+AADoPgAA8D4AAPg+AAAAPwAABD8AAAg/AAAMPwAAED8AABQ/AAAYPwAAHD8AACA/AAAkPwAAKD8AACw/AAAwPwAAND8AADg/AAA8PwAAQD8AAEQ/AABIPwAATD8AAFA/AABUPwAAWD8AAFw/AABgPwAAZD8AAGg/AABsPwAAcD8AAHQ/AAB4PwAAfD8=" interpolation="0" version="0.1" normalize="0"/>
          </instrument>
          <eldata fcut="14000" ftype="0" fwet="0" fres="0.5">
            <elvol dec="0.5" ctlenvamt="0" latt="0" sustain="0.5" amt="0" lamt="0" pdel="0" rel="0.1" lshp="0" lpdel="0" hold="0.5" lspd_numerator="4" lspd_denominator="4" att="0" x100="0" lspd="0.1" lspd_syncmode="0" userwavefile=""/>
            <elcut dec="0.5" ctlenvamt="0" latt="0" sustain="0.5" amt="0" lamt="0" pdel="0" rel="0.1" lshp="0" lpdel="0" hold="0.5" lspd_numerator="4" lspd_denominator="4" att="0" x100="0" lspd="0.1" lspd_syncmode="0" userwavefile=""/>
            <elres dec="0.5" ctlenvamt="0" latt="0" sustain="0.5" amt="0" lamt="0" pdel="0" rel="0.1" lshp="0" lpdel="0" hold="0.5" lspd_numerator="4" lspd_denominator="4" att="0" x100="0" lspd="0.1" lspd_syncmode="0" userwavefile=""/>
          </eldata>
          <chordcreator chordrange="1" chord-enabled="0" chord="0"/>
          <arpeggiator arptime="200" arptime_syncmode="0" arpmode="0" arptime_numerator="4" arptime_denominator="4" arpdir="0" arpgate="100" arprange="1" arp-enabled="0" arpmiss="0" arp="0" arpcycle="0" arpskip="0"/>
          <midiport inputcontroller="0" fixedoutputnote="-1" writable="0" basevelocity="63" outputprogram="1" outputcontroller="0" fixedinputvelocity="-1" outputchannel="1" fixedoutputvelocity="-1" readable="0" inputchannel="0"/>
          <fxchain numofeffects="3" enabled="1">
            <effect gate="0" on="1" autoquit_syncmode="0" autoquit="1" name="ladspaeffect" autoquit_numerator="4" wet="1" autoquit_denominator="4">
              <ladspacontrols ports="7">
                <port00 data="1.25"/>
                <port01 data="90"/>
                <port02 data="75"/>
                <port03 data="25"/>
                <port04 data="100"/>
                <port05 data="0"/>
                <port06 data="0"/>
              </ladspacontrols>
              <key>
                <attribute value="tap_chorusflanger" name="file"/>
                <attribute value="tap_chorusflanger" name="plugin"/>
              </key>
            </effect>
            <effect gate="0" on="1" autoquit_syncmode="0" autoquit="1" name="ladspaeffect" autoquit_numerator="4" wet="1" autoquit_denominator="4">
              <ladspacontrols ports="4">
                <port02 data="0.50200003"/>
                <port03 data="0.37450001"/>
                <port04 data="0.250375"/>
                <port05 data="0.1"/>
              </ladspacontrols>
              <key>
                <attribute value="caps" name="file"/>
                <attribute value="Plate2x2" name="plugin"/>
              </key>
            </effect>
            <effect gate="0" on="1" autoquit_syncmode="0" autoquit="1" name="ladspaeffect" autoquit_numerator="4" wet="1" autoquit_denominator="4">
              <ladspacontrols ports="10">
                <port04 data="0.073100001"/>
                <port05>
                  <data value="223.6068" scale_type="log" id="6714609"/>
                </port05>
                <port06 data="2.75"/>
                <port07 data="2.75"/>
                <port08>
                  <data value="6000" scale_type="log" id="6458393"/>
                </port08>
                <port09>
                  <data value="159.05415" scale_type="log" id="7773828"/>
                </port09>
                <port010 data="0"/>
                <port011>
                  <data value="2514.8672" scale_type="log" id="6196783"/>
                </port011>
                <port012 data="0"/>
                <port013 data="0.5"/>
              </ladspacontrols>
              <key>
                <attribute value="zita-reverbs" name="file"/>
                <attribute value="zita-reverb" name="plugin"/>
              </key>
            </effect>
          </fxchain>
        </instrumenttrack>
        <pattern name="BitInvader" pos="12288" muted="0" type="1" steps="16">
          <note key="57" pan="0" pos="0" len="288" vol="100"/>
          <note key="60" pan="0" pos="288" len="48" vol="100"/>
          <note key="59" pan="0" pos="336" len="48" vol="100"/>
          <note key="55" pan="0" pos="384" len="288" vol="100"/>
          <note key="60" pan="0" pos="672" len="48" vol="100"/>
          <note key="59" pan="0" pos="720" len="48" vol="100"/>
          <note key="57" pan="0" pos="768" len="288" vol="100"/>
          <note key="60" pan="0" pos="1056" len="48" vol="100"/>
          <note key="59" pan="0" pos="1104" len="48" vol="100"/>
          <note key="62" pan="0" pos="1152" len="288" vol="100"/>
          <note key="60" pan="0" pos="1440" len="48" vol="100"/>
          <note key="59" pan="0" pos="1488" len="48" vol="100"/>
        </pattern>
        <pattern name="BitInvader" pos="13824" muted="0" type="1" steps="16">
          <note key="57" pan="0" pos="0" len="288" vol="100"/>
          <note key="60" pan="0" pos="288" len="48" vol="100"/>
          <note key="59" pan="0" pos="336" len="48" vol="100"/>
          <note key="55" pan="0" pos="384" len="288" vol="100"/>
          <note key="60" pan="0" pos="672" len="48" vol="100"/>
          <note key="59" pan="0" pos="720" len="48" vol="100"/>
          <note key="57" pan="0" pos="768" len="288" vol="100"/>
          <note key="60" pan="0" pos="1056" len="48" vol="100"/>
          <note key="59" pan="0" pos="1104" len="48" vol="100"/>
          <note key="62" pan="0" pos="1152" len="288" vol="100"/>
          <note key="60" pan="0" pos="1440" len="48" vol="100"/>
          <note key="59" pan="0" pos="1488" len="48" vol="100"/>
        </pattern>
      </track>
      <track name="SBass" muted="0" type="0" solo="0">
        <instrumenttrack pitchrange="1" pan="-96.800003" fxch="2" basenote="81" pitch="0" vol="200" usemasterpitch="1">
          <instrument name="tripleoscillator">
            <tripleoscillator vol0="33" finel2="-2" coarse0="0" coarse2="0" stphdetun2="0" coarse1="0" wavetype0="3" stphdetun1="0" finel1="4" pan0="0" userwavefile2="" userwavefile0="" wavetype1="5" vol2="33" phoffset2="0" phoffset0="0" finer0="0" pan1="0" pan2="0" wavetype2="5" finel0="0" phoffset1="0" modalgo1="0" stphdetun0="0" modalgo2="0" modalgo3="2" vol1="33" finer2="2" finer1="-4" userwavefile1=""/>
          </instrument>
          <eldata fcut="1" ftype="7" fwet="1" fres="0.5">
            <elvol dec="0.13" ctlenvamt="0" latt="0" sustain="0.5" amt="1" lamt="0" pdel="0" rel="0.050000001" lshp="0" lpdel="0" hold="0" lspd_numerator="4" lspd_denominator="4" att="0" x100="0" lspd="0.1" lspd_syncmode="0" userwavefile=""/>
            <elcut dec="0.5" ctlenvamt="0" latt="0.23999999" sustain="0.5" amt="1" lamt="0" pdel="0" rel="0.1" lshp="1" lpdel="0" hold="0" lspd_numerator="3" lspd_denominator="4" att="0" x100="0" lspd="0.015517241" lspd_syncmode="8" userwavefile=""/>
            <elres dec="0.5" ctlenvamt="0" latt="0" sustain="0.5" amt="0" lamt="0" pdel="0" rel="0.1" lshp="3" lpdel="0" hold="0.5" lspd_numerator="4" lspd_denominator="4" att="0" x100="0" lspd="0.04137931" lspd_syncmode="3" userwavefile=""/>
          </eldata>
          <chordcreator chordrange="1" chord-enabled="0" chord="0"/>
          <arpeggiator arptime="206.89656" arptime_syncmode="5" arpmode="0" arptime_numerator="4" arptime_denominator="4" arpdir="1" arpgate="100" arprange="3" arp-enabled="0" arpmiss="0" arp="0" arpcycle="0" arpskip="0"/>
          <midiport inputcontroller="0" fixedoutputnote="-1" writable="0" basevelocity="63" outputprogram="1" outputcontroller="0" fixedinputvelocity="-1" outputchannel="1" fixedoutputvelocity="-1" readable="0" inputchannel="0"/>
          <fxchain numofeffects="6" enabled="1">
            <effect gate="0" on="1" autoquit_syncmode="0" autoquit="1" name="stereomatrix" autoquit_numerator="4" wet="0.38" autoquit_denominator="4">
              <stereomatrixcontrols l-r="-0.5" r-l="-0.5" r-r="-0.5" l-l="-0.5"/>
              <key/>
            </effect>
            <effect gate="0" on="1" autoquit_syncmode="0" autoquit="8000" name="ladspaeffect" autoquit_numerator="4" wet="1" autoquit_denominator="4">
              <ladspacontrols ports="10" link="0">
                <port00 data="0.25" link="1"/>
                <port01 data="0.1" link="0"/>
                <port02 data="1" link="1"/>
                <port03 data="1" link="1"/>
                <port04 data="0" link="1"/>
                <port10 data="0.25"/>
                <port11 data="0.15000001"/>
                <port12 data="1"/>
                <port13 data="1"/>
                <port14 data="0"/>
              </ladspacontrols>
              <key>
                <attribute value="caps" name="file"/>
                <attribute value="PhaserII" name="plugin"/>
              </key>
            </effect>
            <effect gate="0" on="1" autoquit_syncmode="0" autoquit="1" name="ladspaeffect" autoquit_numerator="4" wet="0.75" autoquit_denominator="4">
              <ladspacontrols ports="8" link="1">
                <port00 data="0" link="1"/>
                <port01 data="0" link="1"/>
                <port02 data="0.5" link="1"/>
                <port03 data="0.5" link="1"/>
                <port10 data="0"/>
                <port11 data="0"/>
                <port12 data="0.5"/>
                <port13 data="0.5"/>
              </ladspacontrols>
              <key>
                <attribute value="caps" name="file"/>
                <attribute value="ToneStack" name="plugin"/>
              </key>
            </effect>
            <effect gate="0" on="1" autoquit_syncmode="0" autoquit="8000" name="ladspaeffect" autoquit_numerator="4" wet="1" autoquit_denominator="4">
              <ladspacontrols ports="2" link="1">
                <port01 data="14.04" link="1"/>
                <port11 data="14.04"/>
              </ladspacontrols>
              <key>
                <attribute value="caps" name="file"/>
                <attribute value="Clip" name="plugin"/>
              </key>
            </effect>
            <effect gate="0" on="1" autoquit_syncmode="0" autoquit="1" name="ladspaeffect" autoquit_numerator="4" wet="1" autoquit_denominator="4">
              <ladspacontrols ports="0" link="1"/>
              <key>
                <attribute value="dc_remove_1207" name="file"/>
                <attribute value="dcRemove" name="plugin"/>
              </key>
            </effect>
            <effect gate="0" on="1" autoquit_syncmode="0" autoquit="1" name="amplifier" autoquit_numerator="4" wet="1" autoquit_denominator="4">
              <AmplifierControls pan="0" right="100" volume="200" left="100"/>
              <key/>
            </effect>
          </fxchain>
        </instrumenttrack>
        <pattern name="SBass" pos="4608" muted="0" type="1" steps="16">
          <note key="57" pan="0" pos="0" len="24" vol="100"/>
          <note key="57" pan="0" pos="48" len="12" vol="100"/>
          <note key="60" pan="0" pos="72" len="24" vol="100"/>
          <note key="59" pan="0" pos="120" len="24" vol="100"/>
          <note key="55" pan="0" pos="168" len="24" vol="100"/>
          <note key="57" pan="0" pos="192" len="24" vol="100"/>
          <note key="57" pan="0" pos="240" len="12" vol="100"/>
          <note key="60" pan="0" pos="264" len="24" vol="100"/>
          <note key="59" pan="0" pos="312" len="24" vol="100"/>
          <note key="55" pan="0" pos="360" len="24" vol="100"/>
          <note key="57" pan="0" pos="384" len="24" vol="100"/>
          <note key="57" pan="0" pos="432" len="12" vol="100"/>
          <note key="60" pan="0" pos="456" len="24" vol="100"/>
          <note key="59" pan="0" pos="504" len="24" vol="100"/>
          <note key="55" pan="0" pos="552" len="24" vol="100"/>
          <note key="57" pan="0" pos="576" len="24" vol="100"/>
          <note key="57" pan="0" pos="624" len="24" vol="100"/>
          <note key="62" pan="0" pos="648" len="48" vol="100"/>
          <note key="60" pan="0" pos="696" len="48" vol="100"/>
          <note key="59" pan="0" pos="744" len="24" vol="100"/>
        </pattern>
        <pattern name="SBass" pos="5376" muted="0" type="1" steps="16">
          <note key="57" pan="0" pos="0" len="24" vol="100"/>
          <note key="57" pan="0" pos="48" len="12" vol="100"/>
          <note key="60" pan="0" pos="72" len="24" vol="100"/>
          <note key="59" pan="0" pos="120" len="24" vol="100"/>
          <note key="55" pan="0" pos="168" len="24" vol="100"/>
          <note key="57" pan="0" pos="192" len="24" vol="100"/>
          <note key="57" pan="0" pos="240" len="12" vol="100"/>
          <note key="60" pan="0" pos="264" len="24" vol="100"/>
          <note key="59" pan="0" pos="312" len="24" vol="100"/>
          <note key="55" pan="0" pos="360" len="24" vol="100"/>
          <note key="57" pan="0" pos="384" len="24" vol="100"/>
          <note key="57" pan="0" pos="432" len="12" vol="100"/>
          <note key="60" pan="0" pos="456" len="24" vol="100"/>
          <note key="59" pan="0" pos="504" len="24" vol="100"/>
          <note key="55" pan="0" pos="552" len="24" vol="100"/>
          <note key="57" pan="0" pos="576" len="24" vol="100"/>
          <note key="57" pan="0" pos="624" len="24" vol="100"/>
          <note key="62" pan="0" pos="648" len="48" vol="100"/>
          <note key="60" pan="0" pos="696" len="48" vol="100"/>
          <note key="59" pan="0" pos="744" len="24" vol="100"/>
        </pattern>
        <pattern name="SBass" pos="7680" muted="0" type="1" steps="16">
          <note key="57" pan="0" pos="0" len="24" vol="100"/>
          <note key="57" pan="0" pos="48" len="12" vol="100"/>
          <note key="60" pan="0" pos="72" len="24" vol="100"/>
          <note key="59" pan="0" pos="120" len="24" vol="100"/>
          <note key="55" pan="0" pos="168" len="24" vol="100"/>
          <note key="57" pan="0" pos="192" len="24" vol="100"/>
          <note key="57" pan="0" pos="240" len="12" vol="100"/>
          <note key="60" pan="0" pos="264" len="24" vol="100"/>
          <note key="59" pan="0" pos="312" len="24" vol="100"/>
          <note key="55" pan="0" pos="360" len="24" vol="100"/>
          <note key="57" pan="0" pos="384" len="24" vol="100"/>
          <note key="57" pan="0" pos="432" len="12" vol="100"/>
          <note key="60" pan="0" pos="456" len="24" vol="100"/>
          <note key="59" pan="0" pos="504" len="24" vol="100"/>
          <note key="55" pan="0" pos="552" len="24" vol="100"/>
          <note key="57" pan="0" pos="576" len="24" vol="100"/>
          <note key="57" pan="0" pos="624" len="24" vol="100"/>
          <note key="62" pan="0" pos="648" len="48" vol="100"/>
          <note key="60" pan="0" pos="696" len="48" vol="100"/>
          <note key="59" pan="0" pos="744" len="24" vol="100"/>
        </pattern>
        <pattern name="SBass" pos="8448" muted="0" type="1" steps="16">
          <note key="57" pan="0" pos="0" len="24" vol="100"/>
          <note key="57" pan="0" pos="48" len="12" vol="100"/>
          <note key="60" pan="0" pos="72" len="24" vol="100"/>
          <note key="59" pan="0" pos="120" len="24" vol="100"/>
          <note key="55" pan="0" pos="168" len="24" vol="100"/>
          <note key="57" pan="0" pos="192" len="24" vol="100"/>
          <note key="57" pan="0" pos="240" len="12" vol="100"/>
          <note key="60" pan="0" pos="264" len="24" vol="100"/>
          <note key="59" pan="0" pos="312" len="24" vol="100"/>
          <note key="55" pan="0" pos="360" len="24" vol="100"/>
          <note key="57" pan="0" pos="384" len="24" vol="100"/>
          <note key="57" pan="0" pos="432" len="12" vol="100"/>
          <note key="60" pan="0" pos="456" len="24" vol="100"/>
          <note key="59" pan="0" pos="504" len="24" vol="100"/>
          <note key="55" pan="0" pos="552" len="24" vol="100"/>
          <note key="57" pan="0" pos="576" len="24" vol="100"/>
          <note key="57" pan="0" pos="624" len="24" vol="100"/>
          <note key="62" pan="0" pos="648" len="48" vol="100"/>
          <note key="60" pan="0" pos="696" len="48" vol="100"/>
          <note key="59" pan="0" pos="744" len="24" vol="100"/>
        </pattern>
        <pattern name="SBass" pos="12288" muted="0" type="1" steps="16">
          <note key="57" pan="0" pos="0" len="24" vol="100"/>
          <note key="57" pan="0" pos="48" len="12" vol="100"/>
          <note key="60" pan="0" pos="72" len="24" vol="100"/>
          <note key="59" pan="0" pos="120" len="24" vol="100"/>
          <note key="55" pan="0" pos="168" len="24" vol="100"/>
          <note key="57" pan="0" pos="192" len="24" vol="100"/>
          <note key="57" pan="0" pos="240" len="12" vol="100"/>
          <note key="60" pan="0" pos="264" len="24" vol="100"/>
          <note key="59" pan="0" pos="312" len="24" vol="100"/>
          <note key="55" pan="0" pos="360" len="24" vol="100"/>
          <note key="57" pan="0" pos="384" len="24" vol="100"/>
          <note key="57" pan="0" pos="432" len="12" vol="100"/>
          <note key="60" pan="0" pos="456" len="24" vol="100"/>
          <note key="59" pan="0" pos="504" len="24" vol="100"/>
          <note key="55" pan="0" pos="552" len="24" vol="100"/>
          <note key="57" pan="0" pos="576" len="24" vol="100"/>
          <note key="57" pan="0" pos="624" len="24" vol="100"/>
          <note key="62" pan="0" pos="648" len="48" vol="100"/>
          <note key="60" pan="0" pos="696" len="48" vol="100"/>
          <note key="59" pan="0" pos="744" len="24" vol="100"/>
        </pattern>
        <pattern name="SBass" pos="13056" muted="0" type="1" steps="16">
          <note key="57" pan="0" pos="0" len="24" vol="100"/>
          <note key="57" pan="0" pos="48" len="12" vol="100"/>
          <note key="60" pan="0" pos="72" len="24" vol="100"/>
          <note key="59" pan="0" pos="120" len="24" vol="100"/>
          <note key="55" pan="0" pos="168" len="24" vol="100"/>
          <note key="57" pan="0" pos="192" len="24" vol="100"/>
          <note key="57" pan="0" pos="240" len="12" vol="100"/>
          <note key="60" pan="0" pos="264" len="24" vol="100"/>
          <note key="59" pan="0" pos="312" len="24" vol="100"/>
          <note key="55" pan="0" pos="360" len="24" vol="100"/>
          <note key="57" pan="0" pos="384" len="24" vol="100"/>
          <note key="57" pan="0" pos="432" len="12" vol="100"/>
          <note key="60" pan="0" pos="456" len="24" vol="100"/>
          <note key="59" pan="0" pos="504" len="24" vol="100"/>
          <note key="55" pan="0" pos="552" len="24" vol="100"/>
          <note key="57" pan="0" pos="576" len="24" vol="100"/>
          <note key="57" pan="0" pos="624" len="24" vol="100"/>
          <note key="62" pan="0" pos="648" len="48" vol="100"/>
          <note key="60" pan="0" pos="696" len="48" vol="100"/>
          <note key="59" pan="0" pos="744" len="24" vol="100"/>
        </pattern>
        <pattern name="SBass" pos="13824" muted="0" type="1" steps="16">
          <note key="57" pan="0" pos="0" len="24" vol="100"/>
          <note key="57" pan="0" pos="48" len="12" vol="100"/>
          <note key="60" pan="0" pos="72" len="24" vol="100"/>
          <note key="59" pan="0" pos="120" len="24" vol="100"/>
          <note key="55" pan="0" pos="168" len="24" vol="100"/>
          <note key="57" pan="0" pos="192" len="24" vol="100"/>
          <note key="57" pan="0" pos="240" len="12" vol="100"/>
          <note key="60" pan="0" pos="264" len="24" vol="100"/>
          <note key="59" pan="0" pos="312" len="24" vol="100"/>
          <note key="55" pan="0" pos="360" len="24" vol="100"/>
          <note key="57" pan="0" pos="384" len="24" vol="100"/>
          <note key="57" pan="0" pos="432" len="12" vol="100"/>
          <note key="60" pan="0" pos="456" len="24" vol="100"/>
          <note key="59" pan="0" pos="504" len="24" vol="100"/>
          <note key="55" pan="0" pos="552" len="24" vol="100"/>
          <note key="57" pan="0" pos="576" len="24" vol="100"/>
          <note key="57" pan="0" pos="624" len="24" vol="100"/>
          <note key="62" pan="0" pos="648" len="48" vol="100"/>
          <note key="60" pan="0" pos="696" len="48" vol="100"/>
          <note key="59" pan="0" pos="744" len="24" vol="100"/>
        </pattern>
        <pattern name="SBass" pos="14592" muted="0" type="1" steps="16">
          <note key="57" pan="0" pos="0" len="24" vol="100"/>
          <note key="57" pan="0" pos="48" len="12" vol="100"/>
          <note key="60" pan="0" pos="72" len="24" vol="100"/>
          <note key="59" pan="0" pos="120" len="24" vol="100"/>
          <note key="55" pan="0" pos="168" len="24" vol="100"/>
          <note key="57" pan="0" pos="192" len="24" vol="100"/>
          <note key="57" pan="0" pos="240" len="12" vol="100"/>
          <note key="60" pan="0" pos="264" len="24" vol="100"/>
          <note key="59" pan="0" pos="312" len="24" vol="100"/>
          <note key="55" pan="0" pos="360" len="24" vol="100"/>
          <note key="57" pan="0" pos="384" len="24" vol="100"/>
          <note key="57" pan="0" pos="432" len="12" vol="100"/>
          <note key="60" pan="0" pos="456" len="24" vol="100"/>
          <note key="59" pan="0" pos="504" len="24" vol="100"/>
          <note key="55" pan="0" pos="552" len="24" vol="100"/>
          <note key="57" pan="0" pos="576" len="24" vol="100"/>
          <note key="57" pan="0" pos="624" len="24" vol="100"/>
          <note key="62" pan="0" pos="648" len="48" vol="100"/>
          <note key="60" pan="0" pos="696" len="48" vol="100"/>
          <note key="59" pan="0" pos="744" len="24" vol="100"/>
        </pattern>
        <pattern name="SBass" pos="15360" muted="0" type="1" steps="16">
          <note key="57" pan="0" pos="0" len="24" vol="100"/>
          <note key="57" pan="0" pos="48" len="12" vol="100"/>
          <note key="60" pan="0" pos="72" len="24" vol="100"/>
          <note key="59" pan="0" pos="120" len="24" vol="100"/>
          <note key="55" pan="0" pos="168" len="24" vol="100"/>
          <note key="57" pan="0" pos="192" len="24" vol="100"/>
          <note key="57" pan="0" pos="240" len="12" vol="100"/>
          <note key="60" pan="0" pos="264" len="24" vol="100"/>
          <note key="59" pan="0" pos="312" len="24" vol="100"/>
          <note key="55" pan="0" pos="360" len="24" vol="100"/>
          <note key="57" pan="0" pos="384" len="24" vol="100"/>
          <note key="57" pan="0" pos="432" len="12" vol="100"/>
          <note key="60" pan="0" pos="456" len="24" vol="100"/>
          <note key="59" pan="0" pos="504" len="24" vol="100"/>
          <note key="55" pan="0" pos="552" len="24" vol="100"/>
          <note key="57" pan="0" pos="576" len="24" vol="100"/>
          <note key="57" pan="0" pos="624" len="24" vol="100"/>
          <note key="62" pan="0" pos="648" len="48" vol="100"/>
          <note key="60" pan="0" pos="696" len="48" vol="100"/>
          <note key="59" pan="0" pos="744" len="24" vol="100"/>
        </pattern>
        <pattern name="SBass" pos="9216" muted="0" type="1" steps="16">
          <note key="57" pan="0" pos="0" len="24" vol="100"/>
          <note key="57" pan="0" pos="48" len="12" vol="100"/>
          <note key="60" pan="0" pos="72" len="24" vol="100"/>
          <note key="59" pan="0" pos="120" len="24" vol="100"/>
          <note key="55" pan="0" pos="168" len="24" vol="100"/>
          <note key="57" pan="0" pos="192" len="24" vol="100"/>
          <note key="57" pan="0" pos="240" len="12" vol="100"/>
          <note key="60" pan="0" pos="264" len="24" vol="100"/>
          <note key="59" pan="0" pos="312" len="24" vol="100"/>
          <note key="55" pan="0" pos="360" len="24" vol="100"/>
          <note key="57" pan="0" pos="384" len="24" vol="100"/>
          <note key="57" pan="0" pos="432" len="12" vol="100"/>
          <note key="60" pan="0" pos="456" len="24" vol="100"/>
          <note key="59" pan="0" pos="504" len="24" vol="100"/>
          <note key="55" pan="0" pos="552" len="24" vol="100"/>
          <note key="57" pan="0" pos="576" len="24" vol="100"/>
          <note key="57" pan="0" pos="624" len="24" vol="100"/>
          <note key="62" pan="0" pos="648" len="48" vol="100"/>
          <note key="60" pan="0" pos="696" len="48" vol="100"/>
          <note key="59" pan="0" pos="744" len="24" vol="100"/>
        </pattern>
        <pattern name="SBass" pos="9984" muted="0" type="1" steps="16">
          <note key="57" pan="0" pos="0" len="24" vol="100"/>
          <note key="57" pan="0" pos="48" len="12" vol="100"/>
          <note key="60" pan="0" pos="72" len="24" vol="100"/>
          <note key="59" pan="0" pos="120" len="24" vol="100"/>
          <note key="55" pan="0" pos="168" len="24" vol="100"/>
          <note key="57" pan="0" pos="192" len="24" vol="100"/>
          <note key="57" pan="0" pos="240" len="12" vol="100"/>
          <note key="60" pan="0" pos="264" len="24" vol="100"/>
          <note key="59" pan="0" pos="312" len="24" vol="100"/>
          <note key="55" pan="0" pos="360" len="24" vol="100"/>
          <note key="57" pan="0" pos="384" len="24" vol="100"/>
          <note key="57" pan="0" pos="432" len="12" vol="100"/>
          <note key="60" pan="0" pos="456" len="24" vol="100"/>
          <note key="59" pan="0" pos="504" len="24" vol="100"/>
          <note key="55" pan="0" pos="552" len="24" vol="100"/>
          <note key="57" pan="0" pos="576" len="24" vol="100"/>
          <note key="57" pan="0" pos="624" len="24" vol="100"/>
          <note key="62" pan="0" pos="648" len="48" vol="100"/>
          <note key="60" pan="0" pos="696" len="48" vol="100"/>
          <note key="59" pan="0" pos="744" len="24" vol="100"/>
        </pattern>
        <pattern name="SBass" pos="10752" muted="0" type="1" steps="16">
          <note key="57" pan="0" pos="0" len="24" vol="100"/>
          <note key="57" pan="0" pos="48" len="12" vol="100"/>
          <note key="60" pan="0" pos="72" len="24" vol="100"/>
          <note key="59" pan="0" pos="120" len="24" vol="100"/>
          <note key="55" pan="0" pos="168" len="24" vol="100"/>
          <note key="57" pan="0" pos="192" len="24" vol="100"/>
          <note key="57" pan="0" pos="240" len="12" vol="100"/>
          <note key="60" pan="0" pos="264" len="24" vol="100"/>
          <note key="59" pan="0" pos="312" len="24" vol="100"/>
          <note key="55" pan="0" pos="360" len="24" vol="100"/>
          <note key="57" pan="0" pos="384" len="24" vol="100"/>
          <note key="57" pan="0" pos="432" len="12" vol="100"/>
          <note key="60" pan="0" pos="456" len="24" vol="100"/>
          <note key="59" pan="0" pos="504" len="24" vol="100"/>
          <note key="55" pan="0" pos="552" len="24" vol="100"/>
          <note key="57" pan="0" pos="576" len="24" vol="100"/>
          <note key="57" pan="0" pos="624" len="24" vol="100"/>
          <note key="62" pan="0" pos="648" len="48" vol="100"/>
          <note key="60" pan="0" pos="696" len="48" vol="100"/>
          <note key="59" pan="0" pos="744" len="24" vol="100"/>
        </pattern>
        <pattern name="SBass" pos="11520" muted="0" type="1" steps="16">
          <note key="57" pan="0" pos="0" len="24" vol="100"/>
          <note key="57" pan="0" pos="48" len="12" vol="100"/>
          <note key="60" pan="0" pos="72" len="24" vol="100"/>
          <note key="59" pan="0" pos="120" len="24" vol="100"/>
          <note key="55" pan="0" pos="168" len="24" vol="100"/>
          <note key="57" pan="0" pos="192" len="24" vol="100"/>
          <note key="57" pan="0" pos="240" len="12" vol="100"/>
          <note key="60" pan="0" pos="264" len="24" vol="100"/>
          <note key="59" pan="0" pos="312" len="24" vol="100"/>
          <note key="55" pan="0" pos="360" len="24" vol="100"/>
          <note key="57" pan="0" pos="384" len="24" vol="100"/>
          <note key="57" pan="0" pos="432" len="12" vol="100"/>
          <note key="60" pan="0" pos="456" len="24" vol="100"/>
          <note key="59" pan="0" pos="504" len="24" vol="100"/>
          <note key="55" pan="0" pos="552" len="24" vol="100"/>
          <note key="57" pan="0" pos="576" len="24" vol="100"/>
          <note key="57" pan="0" pos="624" len="24" vol="100"/>
          <note key="62" pan="0" pos="648" len="48" vol="100"/>
          <note key="60" pan="0" pos="696" len="48" vol="100"/>
          <note key="59" pan="0" pos="744" len="24" vol="100"/>
        </pattern>
        <pattern name="SBass" pos="16128" muted="0" type="1" steps="16">
          <note key="57" pan="0" pos="0" len="24" vol="100"/>
          <note key="57" pan="0" pos="48" len="12" vol="100"/>
          <note key="60" pan="0" pos="72" len="24" vol="100"/>
          <note key="59" pan="0" pos="120" len="24" vol="100"/>
          <note key="55" pan="0" pos="168" len="24" vol="100"/>
          <note key="57" pan="0" pos="192" len="24" vol="100"/>
          <note key="57" pan="0" pos="240" len="12" vol="100"/>
          <note key="60" pan="0" pos="264" len="24" vol="100"/>
          <note key="59" pan="0" pos="312" len="24" vol="100"/>
          <note key="55" pan="0" pos="360" len="24" vol="100"/>
          <note key="57" pan="0" pos="384" len="24" vol="100"/>
          <note key="57" pan="0" pos="432" len="12" vol="100"/>
          <note key="60" pan="0" pos="456" len="24" vol="100"/>
          <note key="59" pan="0" pos="504" len="24" vol="100"/>
          <note key="55" pan="0" pos="552" len="24" vol="100"/>
          <note key="57" pan="0" pos="576" len="24" vol="100"/>
          <note key="57" pan="0" pos="624" len="24" vol="100"/>
          <note key="62" pan="0" pos="648" len="48" vol="100"/>
          <note key="60" pan="0" pos="696" len="48" vol="100"/>
          <note key="59" pan="0" pos="744" len="24" vol="100"/>
        </pattern>
        <pattern name="SBass" pos="16896" muted="0" type="1" steps="16">
          <note key="57" pan="0" pos="0" len="24" vol="100"/>
        </pattern>
        <pattern name="SBass" pos="6144" muted="0" type="1" steps="16">
          <note key="57" pan="0" pos="0" len="24" vol="100"/>
          <note key="57" pan="0" pos="48" len="12" vol="100"/>
          <note key="60" pan="0" pos="72" len="24" vol="100"/>
          <note key="59" pan="0" pos="120" len="24" vol="100"/>
          <note key="55" pan="0" pos="168" len="24" vol="100"/>
          <note key="57" pan="0" pos="192" len="24" vol="100"/>
          <note key="57" pan="0" pos="240" len="12" vol="100"/>
          <note key="60" pan="0" pos="264" len="24" vol="100"/>
          <note key="59" pan="0" pos="312" len="24" vol="100"/>
          <note key="55" pan="0" pos="360" len="24" vol="100"/>
          <note key="57" pan="0" pos="384" len="24" vol="100"/>
          <note key="57" pan="0" pos="432" len="12" vol="100"/>
          <note key="60" pan="0" pos="456" len="24" vol="100"/>
          <note key="59" pan="0" pos="504" len="24" vol="100"/>
          <note key="55" pan="0" pos="552" len="24" vol="100"/>
          <note key="57" pan="0" pos="576" len="24" vol="100"/>
          <note key="57" pan="0" pos="624" len="24" vol="100"/>
          <note key="62" pan="0" pos="648" len="48" vol="100"/>
          <note key="60" pan="0" pos="696" len="48" vol="100"/>
          <note key="59" pan="0" pos="744" len="24" vol="100"/>
        </pattern>
        <pattern name="SBass" pos="6912" muted="0" type="1" steps="16">
          <note key="57" pan="0" pos="0" len="24" vol="100"/>
          <note key="57" pan="0" pos="48" len="12" vol="100"/>
          <note key="60" pan="0" pos="72" len="24" vol="100"/>
          <note key="59" pan="0" pos="120" len="24" vol="100"/>
          <note key="55" pan="0" pos="168" len="24" vol="100"/>
          <note key="57" pan="0" pos="192" len="24" vol="100"/>
          <note key="57" pan="0" pos="240" len="12" vol="100"/>
          <note key="60" pan="0" pos="264" len="24" vol="100"/>
          <note key="59" pan="0" pos="312" len="24" vol="100"/>
          <note key="55" pan="0" pos="360" len="24" vol="100"/>
          <note key="57" pan="0" pos="384" len="24" vol="100"/>
          <note key="57" pan="0" pos="432" len="12" vol="100"/>
          <note key="60" pan="0" pos="456" len="24" vol="100"/>
          <note key="59" pan="0" pos="504" len="24" vol="100"/>
          <note key="55" pan="0" pos="552" len="24" vol="100"/>
          <note key="57" pan="0" pos="576" len="24" vol="100"/>
          <note key="57" pan="0" pos="624" len="24" vol="100"/>
          <note key="62" pan="0" pos="648" len="48" vol="100"/>
          <note key="60" pan="0" pos="696" len="48" vol="100"/>
          <note key="59" pan="0" pos="744" len="24" vol="100"/>
        </pattern>
      </track>
      <track name="SBass" muted="0" type="0" solo="0">
        <instrumenttrack pitchrange="1" pan="100" fxch="2" basenote="81" pitch="0" vol="200" usemasterpitch="1">
          <instrument name="tripleoscillator">
            <tripleoscillator vol0="33" finel2="-2" coarse0="0" coarse2="0" stphdetun2="0" coarse1="0" wavetype0="3" stphdetun1="0" finel1="4" pan0="0" userwavefile2="" userwavefile0="" wavetype1="5" vol2="33" phoffset2="0" phoffset0="0" finer0="0" pan1="0" pan2="0" wavetype2="5" finel0="0" phoffset1="0" modalgo1="0" stphdetun0="0" modalgo2="0" modalgo3="2" vol1="33" finer2="2" finer1="-4" userwavefile1=""/>
          </instrument>
          <eldata fcut="1" ftype="7" fwet="1" fres="0.5">
            <elvol dec="0.13" ctlenvamt="0" latt="0" sustain="0.5" amt="1" lamt="0" pdel="0" rel="0.050000001" lshp="0" lpdel="0" hold="0" lspd_numerator="4" lspd_denominator="4" att="0" x100="0" lspd="0.1" lspd_syncmode="0" userwavefile=""/>
            <elcut dec="0.5" ctlenvamt="0" latt="0.23999999" sustain="0.5" amt="1" lamt="0" pdel="0" rel="0.1" lshp="1" lpdel="0" hold="0" lspd_numerator="3" lspd_denominator="4" att="0" x100="0" lspd="0.015517241" lspd_syncmode="8" userwavefile=""/>
            <elres dec="0.5" ctlenvamt="0" latt="0" sustain="0.5" amt="0" lamt="0" pdel="0" rel="0.1" lshp="3" lpdel="0" hold="0.5" lspd_numerator="4" lspd_denominator="4" att="0" x100="0" lspd="0.04137931" lspd_syncmode="3" userwavefile=""/>
          </eldata>
          <chordcreator chordrange="1" chord-enabled="0" chord="0"/>
          <arpeggiator arptime="206.89656" arptime_syncmode="5" arpmode="0" arptime_numerator="4" arptime_denominator="4" arpdir="1" arpgate="100" arprange="3" arp-enabled="0" arpmiss="0" arp="0" arpcycle="0" arpskip="0"/>
          <midiport inputcontroller="0" fixedoutputnote="-1" writable="0" basevelocity="127" outputprogram="1" outputcontroller="0" fixedinputvelocity="-1" outputchannel="1" fixedoutputvelocity="-1" readable="0" inputchannel="0"/>
          <fxchain numofeffects="6" enabled="1">
            <effect gate="0" on="1" autoquit_syncmode="0" autoquit="1" name="stereomatrix" autoquit_numerator="4" wet="0.38" autoquit_denominator="4">
              <stereomatrixcontrols l-r="-0.5" r-l="-0.5" r-r="-0.5" l-l="-0.5"/>
              <key/>
            </effect>
            <effect gate="0" on="1" autoquit_syncmode="0" autoquit="8000" name="ladspaeffect" autoquit_numerator="4" wet="1" autoquit_denominator="4">
              <ladspacontrols ports="10" link="0">
                <port00 data="0.25" link="1"/>
                <port01 data="0.1" link="0"/>
                <port02 data="1" link="1"/>
                <port03 data="1" link="1"/>
                <port04 data="0" link="1"/>
                <port10 data="0.25"/>
                <port11 data="0.15000001"/>
                <port12 data="1"/>
                <port13 data="1"/>
                <port14 data="0"/>
              </ladspacontrols>
              <key>
                <attribute value="caps" name="file"/>
                <attribute value="PhaserII" name="plugin"/>
              </key>
            </effect>
            <effect gate="0" on="1" autoquit_syncmode="0" autoquit="1" name="ladspaeffect" autoquit_numerator="4" wet="0.75" autoquit_denominator="4">
              <ladspacontrols ports="8" link="1">
                <port00 data="0" link="1"/>
                <port01 data="0" link="1"/>
                <port02 data="0.5" link="1"/>
                <port03 data="0.5" link="1"/>
                <port10 data="0"/>
                <port11 data="0"/>
                <port12 data="0.5"/>
                <port13 data="0.5"/>
              </ladspacontrols>
              <key>
                <attribute value="caps" name="file"/>
                <attribute value="ToneStack" name="plugin"/>
              </key>
            </effect>
            <effect gate="0" on="1" autoquit_syncmode="0" autoquit="8000" name="ladspaeffect" autoquit_numerator="4" wet="1" autoquit_denominator="4">
              <ladspacontrols ports="2" link="1">
                <port01 data="14.04" link="1"/>
                <port11 data="14.04"/>
              </ladspacontrols>
              <key>
                <attribute value="caps" name="file"/>
                <attribute value="Clip" name="plugin"/>
              </key>
            </effect>
            <effect gate="0" on="1" autoquit_syncmode="0" autoquit="1" name="ladspaeffect" autoquit_numerator="4" wet="1" autoquit_denominator="4">
              <ladspacontrols ports="0" link="1"/>
              <key>
                <attribute value="dc_remove_1207" name="file"/>
                <attribute value="dcRemove" name="plugin"/>
              </key>
            </effect>
            <effect gate="0" on="1" autoquit_syncmode="0" autoquit="1" name="amplifier" autoquit_numerator="4" wet="1" autoquit_denominator="4">
              <AmplifierControls pan="0" right="100" volume="200" left="100"/>
              <key/>
            </effect>
          </fxchain>
        </instrumenttrack>
        <pattern name="SBass" pos="4608" muted="0" type="1" steps="16">
          <note key="57" pan="0" pos="0" len="24" vol="100"/>
          <note key="57" pan="0" pos="72" len="24" vol="100"/>
          <note key="57" pan="0" pos="120" len="24" vol="100"/>
          <note key="55" pan="0" pos="168" len="24" vol="100"/>
          <note key="57" pan="0" pos="192" len="24" vol="100"/>
          <note key="57" pan="0" pos="264" len="24" vol="100"/>
          <note key="57" pan="0" pos="312" len="24" vol="100"/>
          <note key="55" pan="0" pos="360" len="24" vol="100"/>
          <note key="57" pan="0" pos="384" len="24" vol="100"/>
          <note key="57" pan="0" pos="456" len="24" vol="100"/>
          <note key="57" pan="0" pos="504" len="24" vol="100"/>
          <note key="55" pan="0" pos="552" len="24" vol="100"/>
          <note key="57" pan="0" pos="576" len="24" vol="100"/>
          <note key="62" pan="0" pos="648" len="24" vol="100"/>
          <note key="60" pan="0" pos="696" len="24" vol="100"/>
          <note key="55" pan="0" pos="744" len="24" vol="100"/>
        </pattern>
        <pattern name="" pos="5376" muted="0" type="1" steps="16">
          <note key="57" pan="0" pos="0" len="24" vol="100"/>
          <note key="57" pan="0" pos="72" len="24" vol="100"/>
          <note key="57" pan="0" pos="120" len="24" vol="100"/>
          <note key="55" pan="0" pos="168" len="24" vol="100"/>
          <note key="57" pan="0" pos="192" len="24" vol="100"/>
          <note key="57" pan="0" pos="264" len="24" vol="100"/>
          <note key="57" pan="0" pos="312" len="24" vol="100"/>
          <note key="55" pan="0" pos="360" len="24" vol="100"/>
          <note key="57" pan="0" pos="384" len="24" vol="100"/>
          <note key="57" pan="0" pos="456" len="24" vol="100"/>
          <note key="57" pan="0" pos="504" len="24" vol="100"/>
          <note key="55" pan="0" pos="552" len="24" vol="100"/>
          <note key="57" pan="0" pos="576" len="24" vol="100"/>
          <note key="62" pan="0" pos="648" len="24" vol="100"/>
          <note key="60" pan="0" pos="696" len="24" vol="100"/>
          <note key="55" pan="0" pos="744" len="24" vol="100"/>
        </pattern>
        <pattern name="" pos="7680" muted="0" type="1" steps="16">
          <note key="57" pan="0" pos="0" len="24" vol="100"/>
          <note key="57" pan="0" pos="72" len="24" vol="100"/>
          <note key="57" pan="0" pos="120" len="24" vol="100"/>
          <note key="55" pan="0" pos="168" len="24" vol="100"/>
          <note key="57" pan="0" pos="192" len="24" vol="100"/>
          <note key="57" pan="0" pos="264" len="24" vol="100"/>
          <note key="57" pan="0" pos="312" len="24" vol="100"/>
          <note key="55" pan="0" pos="360" len="24" vol="100"/>
          <note key="57" pan="0" pos="384" len="24" vol="100"/>
          <note key="57" pan="0" pos="456" len="24" vol="100"/>
          <note key="57" pan="0" pos="504" len="24" vol="100"/>
          <note key="55" pan="0" pos="552" len="24" vol="100"/>
          <note key="57" pan="0" pos="576" len="24" vol="100"/>
          <note key="62" pan="0" pos="648" len="24" vol="100"/>
          <note key="60" pan="0" pos="696" len="24" vol="100"/>
          <note key="55" pan="0" pos="744" len="24" vol="100"/>
        </pattern>
        <pattern name="" pos="8448" muted="0" type="1" steps="16">
          <note key="57" pan="0" pos="0" len="24" vol="100"/>
          <note key="57" pan="0" pos="72" len="24" vol="100"/>
          <note key="57" pan="0" pos="120" len="24" vol="100"/>
          <note key="55" pan="0" pos="168" len="24" vol="100"/>
          <note key="57" pan="0" pos="192" len="24" vol="100"/>
          <note key="57" pan="0" pos="264" len="24" vol="100"/>
          <note key="57" pan="0" pos="312" len="24" vol="100"/>
          <note key="55" pan="0" pos="360" len="24" vol="100"/>
          <note key="57" pan="0" pos="384" len="24" vol="100"/>
          <note key="57" pan="0" pos="456" len="24" vol="100"/>
          <note key="57" pan="0" pos="504" len="24" vol="100"/>
          <note key="55" pan="0" pos="552" len="24" vol="100"/>
          <note key="57" pan="0" pos="576" len="24" vol="100"/>
          <note key="62" pan="0" pos="648" len="24" vol="100"/>
          <note key="60" pan="0" pos="696" len="24" vol="100"/>
          <note key="55" pan="0" pos="744" len="24" vol="100"/>
        </pattern>
        <pattern name="" pos="12288" muted="0" type="1" steps="16">
          <note key="57" pan="0" pos="0" len="24" vol="100"/>
          <note key="57" pan="0" pos="72" len="24" vol="100"/>
          <note key="57" pan="0" pos="120" len="24" vol="100"/>
          <note key="55" pan="0" pos="168" len="24" vol="100"/>
          <note key="57" pan="0" pos="192" len="24" vol="100"/>
          <note key="57" pan="0" pos="264" len="24" vol="100"/>
          <note key="57" pan="0" pos="312" len="24" vol="100"/>
          <note key="55" pan="0" pos="360" len="24" vol="100"/>
          <note key="57" pan="0" pos="384" len="24" vol="100"/>
          <note key="57" pan="0" pos="456" len="24" vol="100"/>
          <note key="57" pan="0" pos="504" len="24" vol="100"/>
          <note key="55" pan="0" pos="552" len="24" vol="100"/>
          <note key="57" pan="0" pos="576" len="24" vol="100"/>
          <note key="62" pan="0" pos="648" len="24" vol="100"/>
          <note key="60" pan="0" pos="696" len="24" vol="100"/>
          <note key="55" pan="0" pos="744" len="24" vol="100"/>
        </pattern>
        <pattern name="" pos="13056" muted="0" type="1" steps="16">
          <note key="57" pan="0" pos="0" len="24" vol="100"/>
          <note key="57" pan="0" pos="72" len="24" vol="100"/>
          <note key="57" pan="0" pos="120" len="24" vol="100"/>
          <note key="55" pan="0" pos="168" len="24" vol="100"/>
          <note key="57" pan="0" pos="192" len="24" vol="100"/>
          <note key="57" pan="0" pos="264" len="24" vol="100"/>
          <note key="57" pan="0" pos="312" len="24" vol="100"/>
          <note key="55" pan="0" pos="360" len="24" vol="100"/>
          <note key="57" pan="0" pos="384" len="24" vol="100"/>
          <note key="57" pan="0" pos="456" len="24" vol="100"/>
          <note key="57" pan="0" pos="504" len="24" vol="100"/>
          <note key="55" pan="0" pos="552" len="24" vol="100"/>
          <note key="57" pan="0" pos="576" len="24" vol="100"/>
          <note key="62" pan="0" pos="648" len="24" vol="100"/>
          <note key="60" pan="0" pos="696" len="24" vol="100"/>
          <note key="55" pan="0" pos="744" len="24" vol="100"/>
        </pattern>
        <pattern name="" pos="13824" muted="0" type="1" steps="16">
          <note key="57" pan="0" pos="0" len="24" vol="100"/>
          <note key="57" pan="0" pos="72" len="24" vol="100"/>
          <note key="57" pan="0" pos="120" len="24" vol="100"/>
          <note key="55" pan="0" pos="168" len="24" vol="100"/>
          <note key="57" pan="0" pos="192" len="24" vol="100"/>
          <note key="57" pan="0" pos="264" len="24" vol="100"/>
          <note key="57" pan="0" pos="312" len="24" vol="100"/>
          <note key="55" pan="0" pos="360" len="24" vol="100"/>
          <note key="57" pan="0" pos="384" len="24" vol="100"/>
          <note key="57" pan="0" pos="456" len="24" vol="100"/>
          <note key="57" pan="0" pos="504" len="24" vol="100"/>
          <note key="55" pan="0" pos="552" len="24" vol="100"/>
          <note key="57" pan="0" pos="576" len="24" vol="100"/>
          <note key="62" pan="0" pos="648" len="24" vol="100"/>
          <note key="60" pan="0" pos="696" len="24" vol="100"/>
          <note key="55" pan="0" pos="744" len="24" vol="100"/>
        </pattern>
        <pattern name="" pos="14592" muted="0" type="1" steps="16">
          <note key="57" pan="0" pos="0" len="24" vol="100"/>
          <note key="57" pan="0" pos="72" len="24" vol="100"/>
          <note key="57" pan="0" pos="120" len="24" vol="100"/>
          <note key="55" pan="0" pos="168" len="24" vol="100"/>
          <note key="57" pan="0" pos="192" len="24" vol="100"/>
          <note key="57" pan="0" pos="264" len="24" vol="100"/>
          <note key="57" pan="0" pos="312" len="24" vol="100"/>
          <note key="55" pan="0" pos="360" len="24" vol="100"/>
          <note key="57" pan="0" pos="384" len="24" vol="100"/>
          <note key="57" pan="0" pos="456" len="24" vol="100"/>
          <note key="57" pan="0" pos="504" len="24" vol="100"/>
          <note key="55" pan="0" pos="552" len="24" vol="100"/>
          <note key="57" pan="0" pos="576" len="24" vol="100"/>
          <note key="62" pan="0" pos="648" len="24" vol="100"/>
          <note key="60" pan="0" pos="696" len="24" vol="100"/>
          <note key="55" pan="0" pos="744" len="24" vol="100"/>
        </pattern>
        <pattern name="" pos="15360" muted="0" type="1" steps="16">
          <note key="57" pan="0" pos="0" len="24" vol="100"/>
          <note key="57" pan="0" pos="72" len="24" vol="100"/>
          <note key="57" pan="0" pos="120" len="24" vol="100"/>
          <note key="55" pan="0" pos="168" len="24" vol="100"/>
          <note key="57" pan="0" pos="192" len="24" vol="100"/>
          <note key="57" pan="0" pos="264" len="24" vol="100"/>
          <note key="57" pan="0" pos="312" len="24" vol="100"/>
          <note key="55" pan="0" pos="360" len="24" vol="100"/>
          <note key="57" pan="0" pos="384" len="24" vol="100"/>
          <note key="57" pan="0" pos="456" len="24" vol="100"/>
          <note key="57" pan="0" pos="504" len="24" vol="100"/>
          <note key="55" pan="0" pos="552" len="24" vol="100"/>
          <note key="57" pan="0" pos="576" len="24" vol="100"/>
          <note key="62" pan="0" pos="648" len="24" vol="100"/>
          <note key="60" pan="0" pos="696" len="24" vol="100"/>
          <note key="55" pan="0" pos="744" len="24" vol="100"/>
        </pattern>
        <pattern name="" pos="9216" muted="0" type="1" steps="16">
          <note key="57" pan="0" pos="0" len="24" vol="100"/>
          <note key="57" pan="0" pos="72" len="24" vol="100"/>
          <note key="57" pan="0" pos="120" len="24" vol="100"/>
          <note key="55" pan="0" pos="168" len="24" vol="100"/>
          <note key="57" pan="0" pos="192" len="24" vol="100"/>
          <note key="57" pan="0" pos="264" len="24" vol="100"/>
          <note key="57" pan="0" pos="312" len="24" vol="100"/>
          <note key="55" pan="0" pos="360" len="24" vol="100"/>
          <note key="57" pan="0" pos="384" len="24" vol="100"/>
          <note key="57" pan="0" pos="456" len="24" vol="100"/>
          <note key="57" pan="0" pos="504" len="24" vol="100"/>
          <note key="55" pan="0" pos="552" len="24" vol="100"/>
          <note key="57" pan="0" pos="576" len="24" vol="100"/>
          <note key="62" pan="0" pos="648" len="24" vol="100"/>
          <note key="60" pan="0" pos="696" len="24" vol="100"/>
          <note key="55" pan="0" pos="744" len="24" vol="100"/>
        </pattern>
        <pattern name="" pos="9984" muted="0" type="1" steps="16">
          <note key="57" pan="0" pos="0" len="24" vol="100"/>
          <note key="57" pan="0" pos="72" len="24" vol="100"/>
          <note key="57" pan="0" pos="120" len="24" vol="100"/>
          <note key="55" pan="0" pos="168" len="24" vol="100"/>
          <note key="57" pan="0" pos="192" len="24" vol="100"/>
          <note key="57" pan="0" pos="264" len="24" vol="100"/>
          <note key="57" pan="0" pos="312" len="24" vol="100"/>
          <note key="55" pan="0" pos="360" len="24" vol="100"/>
          <note key="57" pan="0" pos="384" len="24" vol="100"/>
          <note key="57" pan="0" pos="456" len="24" vol="100"/>
          <note key="57" pan="0" pos="504" len="24" vol="100"/>
          <note key="55" pan="0" pos="552" len="24" vol="100"/>
          <note key="57" pan="0" pos="576" len="24" vol="100"/>
          <note key="62" pan="0" pos="648" len="24" vol="100"/>
          <note key="60" pan="0" pos="696" len="24" vol="100"/>
          <note key="55" pan="0" pos="744" len="24" vol="100"/>
        </pattern>
        <pattern name="" pos="10752" muted="0" type="1" steps="16">
          <note key="57" pan="0" pos="0" len="24" vol="100"/>
          <note key="57" pan="0" pos="72" len="24" vol="100"/>
          <note key="57" pan="0" pos="120" len="24" vol="100"/>
          <note key="55" pan="0" pos="168" len="24" vol="100"/>
          <note key="57" pan="0" pos="192" len="24" vol="100"/>
          <note key="57" pan="0" pos="264" len="24" vol="100"/>
          <note key="57" pan="0" pos="312" len="24" vol="100"/>
          <note key="55" pan="0" pos="360" len="24" vol="100"/>
          <note key="57" pan="0" pos="384" len="24" vol="100"/>
          <note key="57" pan="0" pos="456" len="24" vol="100"/>
          <note key="57" pan="0" pos="504" len="24" vol="100"/>
          <note key="55" pan="0" pos="552" len="24" vol="100"/>
          <note key="57" pan="0" pos="576" len="24" vol="100"/>
          <note key="62" pan="0" pos="648" len="24" vol="100"/>
          <note key="60" pan="0" pos="696" len="24" vol="100"/>
          <note key="55" pan="0" pos="744" len="24" vol="100"/>
        </pattern>
        <pattern name="" pos="11520" muted="0" type="1" steps="16">
          <note key="57" pan="0" pos="0" len="24" vol="100"/>
          <note key="57" pan="0" pos="72" len="24" vol="100"/>
          <note key="57" pan="0" pos="120" len="24" vol="100"/>
          <note key="55" pan="0" pos="168" len="24" vol="100"/>
          <note key="57" pan="0" pos="192" len="24" vol="100"/>
          <note key="57" pan="0" pos="264" len="24" vol="100"/>
          <note key="57" pan="0" pos="312" len="24" vol="100"/>
          <note key="55" pan="0" pos="360" len="24" vol="100"/>
          <note key="57" pan="0" pos="384" len="24" vol="100"/>
          <note key="57" pan="0" pos="456" len="24" vol="100"/>
          <note key="57" pan="0" pos="504" len="24" vol="100"/>
          <note key="55" pan="0" pos="552" len="24" vol="100"/>
          <note key="57" pan="0" pos="576" len="24" vol="100"/>
          <note key="62" pan="0" pos="648" len="24" vol="100"/>
          <note key="60" pan="0" pos="696" len="24" vol="100"/>
          <note key="55" pan="0" pos="744" len="24" vol="100"/>
        </pattern>
        <pattern name="" pos="16128" muted="0" type="1" steps="16">
          <note key="57" pan="0" pos="0" len="24" vol="100"/>
          <note key="57" pan="0" pos="72" len="24" vol="100"/>
          <note key="57" pan="0" pos="120" len="24" vol="100"/>
          <note key="55" pan="0" pos="168" len="24" vol="100"/>
          <note key="57" pan="0" pos="192" len="24" vol="100"/>
          <note key="57" pan="0" pos="264" len="24" vol="100"/>
          <note key="57" pan="0" pos="312" len="24" vol="100"/>
          <note key="55" pan="0" pos="360" len="24" vol="100"/>
          <note key="57" pan="0" pos="384" len="24" vol="100"/>
          <note key="57" pan="0" pos="456" len="24" vol="100"/>
          <note key="57" pan="0" pos="504" len="24" vol="100"/>
          <note key="55" pan="0" pos="552" len="24" vol="100"/>
          <note key="57" pan="0" pos="576" len="24" vol="100"/>
          <note key="62" pan="0" pos="648" len="24" vol="100"/>
          <note key="60" pan="0" pos="696" len="24" vol="100"/>
          <note key="55" pan="0" pos="744" len="24" vol="100"/>
        </pattern>
        <pattern name="" pos="16896" muted="0" type="1" steps="16">
          <note key="57" pan="0" pos="0" len="24" vol="100"/>
        </pattern>
        <pattern name="" pos="6144" muted="0" type="1" steps="16">
          <note key="57" pan="0" pos="0" len="24" vol="100"/>
          <note key="57" pan="0" pos="72" len="24" vol="100"/>
          <note key="57" pan="0" pos="120" len="24" vol="100"/>
          <note key="55" pan="0" pos="168" len="24" vol="100"/>
          <note key="57" pan="0" pos="192" len="24" vol="100"/>
          <note key="57" pan="0" pos="264" len="24" vol="100"/>
          <note key="57" pan="0" pos="312" len="24" vol="100"/>
          <note key="55" pan="0" pos="360" len="24" vol="100"/>
          <note key="57" pan="0" pos="384" len="24" vol="100"/>
          <note key="57" pan="0" pos="456" len="24" vol="100"/>
          <note key="57" pan="0" pos="504" len="24" vol="100"/>
          <note key="55" pan="0" pos="552" len="24" vol="100"/>
          <note key="57" pan="0" pos="576" len="24" vol="100"/>
          <note key="62" pan="0" pos="648" len="24" vol="100"/>
          <note key="60" pan="0" pos="696" len="24" vol="100"/>
          <note key="55" pan="0" pos="744" len="24" vol="100"/>
        </pattern>
        <pattern name="" pos="6912" muted="0" type="1" steps="16">
          <note key="57" pan="0" pos="0" len="24" vol="100"/>
          <note key="57" pan="0" pos="72" len="24" vol="100"/>
          <note key="57" pan="0" pos="120" len="24" vol="100"/>
          <note key="55" pan="0" pos="168" len="24" vol="100"/>
          <note key="57" pan="0" pos="192" len="24" vol="100"/>
          <note key="57" pan="0" pos="264" len="24" vol="100"/>
          <note key="57" pan="0" pos="312" len="24" vol="100"/>
          <note key="55" pan="0" pos="360" len="24" vol="100"/>
          <note key="57" pan="0" pos="384" len="24" vol="100"/>
          <note key="57" pan="0" pos="456" len="24" vol="100"/>
          <note key="57" pan="0" pos="504" len="24" vol="100"/>
          <note key="55" pan="0" pos="552" len="24" vol="100"/>
          <note key="57" pan="0" pos="576" len="24" vol="100"/>
          <note key="62" pan="0" pos="648" len="24" vol="100"/>
          <note key="60" pan="0" pos="696" len="24" vol="100"/>
          <note key="55" pan="0" pos="744" len="24" vol="100"/>
        </pattern>
      </track>
      <track name="Erazzor" muted="0" type="0" solo="0">
        <instrumenttrack pitchrange="1" pan="0" fxch="5" basenote="57" pitch="0" vol="11.2" usemasterpitch="1">
          <instrument name="tripleoscillator">
            <tripleoscillator vol0="33" finel2="-2" coarse0="0" coarse2="0" stphdetun2="0" coarse1="0" wavetype0="2" stphdetun1="0" finel1="-2" pan0="0" userwavefile2="" userwavefile0="" wavetype1="2" vol2="33" phoffset2="0" phoffset0="0" finer0="-2" pan1="0" pan2="0" wavetype2="1" finel0="0" phoffset1="0" modalgo1="1" stphdetun0="0" modalgo2="0" modalgo3="2" vol1="33" finer2="0" finer1="2" userwavefile1=""/>
          </instrument>
          <eldata fcut="1260" ftype="7" fwet="1" fres="1.8099999">
            <elvol dec="1.1720001" ctlenvamt="0" latt="0" sustain="0.45600003" amt="1" lamt="0" pdel="0" rel="0.14" lshp="0" lpdel="0" hold="0" lspd_numerator="4" lspd_denominator="4" att="0" x100="0" lspd="0.1" lspd_syncmode="0" userwavefile=""/>
            <elcut dec="0.23" ctlenvamt="0" latt="0" sustain="0.15000001" amt="0" lamt="0.125" pdel="0" rel="0.1" lshp="0" lpdel="0" hold="0" lspd_numerator="4" lspd_denominator="4" att="0.33000001" x100="0" lspd="0.111" lspd_syncmode="0" userwavefile=""/>
            <elres dec="0.5" ctlenvamt="0" latt="0" sustain="0.5" amt="0" lamt="0" pdel="0" rel="0.1" lshp="0" lpdel="0" hold="0.5" lspd_numerator="4" lspd_denominator="4" att="0" x100="0" lspd="0.1" lspd_syncmode="0" userwavefile=""/>
          </eldata>
          <chordcreator chordrange="1" chord-enabled="0" chord="0"/>
          <arpeggiator arptime="100" arptime_syncmode="0" arpmode="0" arptime_numerator="4" arptime_denominator="4" arpdir="0" arpgate="100" arprange="1" arp-enabled="0" arpmiss="0" arp="0" arpcycle="0" arpskip="0"/>
          <midiport inputcontroller="0" fixedoutputnote="-1" writable="0" basevelocity="127" outputprogram="1" outputcontroller="0" fixedinputvelocity="-1" outputchannel="1" fixedoutputvelocity="0" readable="0" inputchannel="0"/>
          <fxchain numofeffects="8" enabled="1">
            <effect gate="0" on="1" autoquit_syncmode="0" autoquit="8000" name="ladspaeffect" autoquit_numerator="4" wet="1" autoquit_denominator="4">
              <ladspacontrols ports="2" link="1">
                <port01 data="72" link="1"/>
                <port11 data="72"/>
              </ladspacontrols>
              <key>
                <attribute value="caps.so" name="file"/>
                <attribute value="Clip" name="plugin"/>
              </key>
            </effect>
            <effect gate="0" on="1" autoquit_syncmode="0" autoquit="8000" name="ladspaeffect" autoquit_numerator="4" wet="1" autoquit_denominator="4">
              <ladspacontrols ports="2" link="1">
                <port01 data="-10.08" link="1"/>
                <port11 data="-10.08"/>
              </ladspacontrols>
              <key>
                <attribute value="caps.so" name="file"/>
                <attribute value="Clip" name="plugin"/>
              </key>
            </effect>
            <effect gate="0" on="1" autoquit_syncmode="0" autoquit="1" name="ladspaeffect" autoquit_numerator="4" wet="0.5" autoquit_denominator="4">
              <ladspacontrols ports="20" link="1">
                <port01 data="-30.059999" link="1"/>
                <port02 data="0" link="1"/>
                <port03 data="0" link="1"/>
                <port04 data="0" link="1"/>
                <port05 data="0" link="1"/>
                <port06 data="0" link="1"/>
                <port07 data="0" link="1"/>
                <port08 data="-16.02" link="1"/>
                <port09 data="-32.040001" link="1"/>
                <port010 data="-48" link="1"/>
                <port11 data="-30.059999"/>
                <port12 data="0"/>
                <port13 data="0"/>
                <port14 data="0"/>
                <port15 data="0"/>
                <port16 data="0"/>
                <port17 data="0"/>
                <port18 data="-16.02"/>
                <port19 data="-32.040001"/>
                <port110 data="-48"/>
              </ladspacontrols>
              <key>
                <attribute value="caps.so" name="file"/>
                <attribute value="Eq" name="plugin"/>
              </key>
            </effect>
            <effect gate="0" on="1" autoquit_syncmode="0" autoquit="8000" name="ladspaeffect" autoquit_numerator="4" wet="1" autoquit_denominator="4">
              <ladspacontrols ports="10" link="1">
                <port00 data="0.25" link="1"/>
                <port01 data="0.25" link="1"/>
                <port02 data="0.75" link="1"/>
                <port03 data="0.47999999" link="1"/>
                <port04 data="0.74924999" link="1"/>
                <port10 data="0.25"/>
                <port11 data="0.25"/>
                <port12 data="0.75"/>
                <port13 data="0.47999999"/>
                <port14 data="0.74924999"/>
              </ladspacontrols>
              <key>
                <attribute value="caps.so" name="file"/>
                <attribute value="PhaserII" name="plugin"/>
              </key>
            </effect>
            <effect gate="0" on="1" autoquit_syncmode="0" autoquit="8000" name="ladspaeffect" autoquit_numerator="4" wet="1" autoquit_denominator="4">
              <ladspacontrols ports="4">
                <port02 data="0.50196999"/>
                <port03 data="0.74900001"/>
                <port04 data="0.24987499"/>
                <port05 data="0.25"/>
              </ladspacontrols>
              <key>
                <attribute value="caps.so" name="file"/>
                <attribute value="Plate2x2" name="plugin"/>
              </key>
            </effect>
            <effect gate="0" on="1" autoquit_syncmode="0" autoquit="8000" name="ladspaeffect" autoquit_numerator="4" wet="-0.5" autoquit_denominator="4">
              <ladspacontrols ports="10">
                <port00 data="320"/>
                <port01 data="50"/>
                <port02 data="430"/>
                <port03 data="50"/>
                <port04 data="0"/>
                <port05 data="0"/>
                <port06 data="-70"/>
                <port07 data="1"/>
                <port08 data="0"/>
                <port09 data="1"/>
              </ladspacontrols>
              <key>
                <attribute value="tap_echo.so" name="file"/>
                <attribute value="tap_stereo_echo" name="plugin"/>
              </key>
            </effect>
            <effect gate="0" on="1" autoquit_syncmode="0" autoquit="1" name="stereomatrix" autoquit_numerator="4" wet="1" autoquit_denominator="4">
              <stereomatrixcontrols l-r="0" r-l="0.33000001" r-r="0.5" l-l="0.66000003"/>
              <key/>
            </effect>
            <effect gate="0" on="1" autoquit_syncmode="0" autoquit="1" name="ladspaeffect" autoquit_numerator="4" wet="1" autoquit_denominator="4">
              <ladspacontrols ports="10">
                <port04 data="0.079399996"/>
                <port05>
                  <data value="223.6068" scale_type="log" id="5073240"/>
                </port05>
                <port06 data="2.75"/>
                <port07 data="2.75"/>
                <port08>
                  <data value="6000" scale_type="log" id="3422700"/>
                </port08>
                <port09>
                  <data value="159.05415" scale_type="log" id="4053440"/>
                </port09>
                <port010 data="0"/>
                <port011>
                  <data value="2514.8672" scale_type="log" id="1963302"/>
                </port011>
                <port012 data="0"/>
                <port013 data="0.5"/>
              </ladspacontrols>
              <key>
                <attribute value="zita-reverbs" name="file"/>
                <attribute value="zita-reverb" name="plugin"/>
              </key>
            </effect>
          </fxchain>
        </instrumenttrack>
        <pattern name="Erazzor" pos="1536" muted="0" type="1" steps="16">
          <note key="57" pan="0" pos="0" len="576" vol="100"/>
        </pattern>
        <pattern name="Erazzor" pos="2304" muted="0" type="1" steps="16">
          <note key="57" pan="0" pos="0" len="576" vol="100"/>
        </pattern>
        <pattern name="Erazzor" pos="3072" muted="0" type="1" steps="16">
          <note key="57" pan="0" pos="0" len="576" vol="100"/>
        </pattern>
        <pattern name="Erazzor" pos="3840" muted="0" type="1" steps="16">
          <note key="57" pan="0" pos="0" len="576" vol="100"/>
        </pattern>
        <pattern name="Erazzor" pos="4608" muted="0" type="1" steps="16">
          <note key="40" pan="0" pos="0" len="384" vol="80"/>
          <note key="33" pan="0" pos="0" len="384" vol="80"/>
          <note key="43" pan="0" pos="384" len="384" vol="80"/>
          <note key="36" pan="0" pos="384" len="384" vol="80"/>
          <note key="42" pan="0" pos="768" len="384" vol="80"/>
          <note key="35" pan="0" pos="768" len="336" vol="80"/>
          <note key="31" pan="0" pos="1104" len="48" vol="80"/>
          <note key="40" pan="0" pos="1152" len="384" vol="80"/>
          <note key="33" pan="0" pos="1152" len="384" vol="80"/>
        </pattern>
        <pattern name="Erazzor" pos="7680" muted="0" type="1" steps="16">
          <note key="40" pan="0" pos="0" len="384" vol="80"/>
          <note key="33" pan="0" pos="0" len="384" vol="80"/>
          <note key="43" pan="0" pos="384" len="384" vol="80"/>
          <note key="36" pan="0" pos="384" len="384" vol="80"/>
          <note key="42" pan="0" pos="768" len="384" vol="80"/>
          <note key="35" pan="0" pos="768" len="336" vol="80"/>
          <note key="31" pan="0" pos="1104" len="48" vol="80"/>
          <note key="40" pan="0" pos="1152" len="384" vol="80"/>
          <note key="33" pan="0" pos="1152" len="384" vol="80"/>
        </pattern>
        <pattern name="Erazzor" pos="9216" muted="0" type="1" steps="16">
          <note key="40" pan="0" pos="0" len="384" vol="80"/>
          <note key="33" pan="0" pos="0" len="384" vol="80"/>
          <note key="43" pan="0" pos="384" len="384" vol="80"/>
          <note key="36" pan="0" pos="384" len="384" vol="80"/>
          <note key="42" pan="0" pos="768" len="384" vol="80"/>
          <note key="35" pan="0" pos="768" len="336" vol="80"/>
          <note key="31" pan="0" pos="1104" len="48" vol="80"/>
          <note key="40" pan="0" pos="1152" len="384" vol="80"/>
          <note key="33" pan="0" pos="1152" len="384" vol="80"/>
        </pattern>
        <pattern name="Erazzor" pos="13824" muted="0" type="1" steps="16">
          <note key="45" pan="0" pos="0" len="288" vol="100"/>
          <note key="48" pan="0" pos="288" len="48" vol="100"/>
          <note key="47" pan="0" pos="336" len="48" vol="100"/>
          <note key="43" pan="0" pos="384" len="288" vol="100"/>
          <note key="48" pan="0" pos="672" len="48" vol="100"/>
          <note key="47" pan="0" pos="720" len="48" vol="100"/>
          <note key="45" pan="0" pos="768" len="288" vol="100"/>
          <note key="48" pan="0" pos="1056" len="48" vol="100"/>
          <note key="47" pan="0" pos="1104" len="48" vol="100"/>
          <note key="50" pan="0" pos="1152" len="288" vol="100"/>
          <note key="48" pan="0" pos="1440" len="48" vol="100"/>
          <note key="47" pan="0" pos="1488" len="48" vol="100"/>
        </pattern>
        <pattern name="Erazzor" pos="6144" muted="0" type="1" steps="16">
          <note key="40" pan="0" pos="0" len="384" vol="80"/>
          <note key="33" pan="0" pos="0" len="384" vol="80"/>
          <note key="43" pan="0" pos="384" len="384" vol="80"/>
          <note key="36" pan="0" pos="384" len="384" vol="80"/>
          <note key="42" pan="0" pos="768" len="384" vol="80"/>
          <note key="35" pan="0" pos="768" len="336" vol="80"/>
          <note key="31" pan="0" pos="1104" len="48" vol="80"/>
          <note key="40" pan="0" pos="1152" len="384" vol="80"/>
          <note key="33" pan="0" pos="1152" len="384" vol="80"/>
        </pattern>
        <pattern name="Erazzor" pos="15360" muted="0" type="1" steps="16">
          <note key="45" pan="0" pos="0" len="24" vol="100"/>
        </pattern>
        <pattern name="Gorescript reference?" pos="17664" muted="0" type="1" steps="16">
          <note key="40" pan="0" pos="0" len="192" vol="80"/>
          <note key="33" pan="0" pos="0" len="192" vol="80"/>
          <note key="40" pan="0" pos="384" len="192" vol="80"/>
          <note key="33" pan="0" pos="384" len="192" vol="80"/>
          <note key="40" pan="0" pos="768" len="192" vol="80"/>
          <note key="33" pan="0" pos="768" len="192" vol="80"/>
          <note key="40" pan="0" pos="1152" len="192" vol="80"/>
          <note key="33" pan="0" pos="1152" len="192" vol="80"/>
        </pattern>
      </track>
      <track name="Analog Dreamz" muted="0" type="0" solo="0">
        <instrumenttrack pitchrange="1" pan="0" fxch="0" basenote="57" pitch="0" vol="45.600002" usemasterpitch="1">
          <instrument name="tripleoscillator">
            <tripleoscillator vol0="33" finel2="0" coarse0="-12" coarse2="-24" stphdetun2="0" coarse1="-12" wavetype0="2" stphdetun1="0" finel1="14" pan0="0" userwavefile2="" userwavefile0="" wavetype1="2" vol2="33" phoffset2="0" phoffset0="0" finer0="15" pan1="0" pan2="0" wavetype2="2" finel0="-18" phoffset1="0" modalgo1="2" stphdetun0="0" modalgo2="2" modalgo3="2" vol1="33" finer2="0" finer1="-5" userwavefile1=""/>
          </instrument>
          <eldata fcut="100" ftype="1" fwet="1" fres="2">
            <elvol dec="0.59200001" ctlenvamt="0" latt="0" sustain="1" amt="1" lamt="0" pdel="0" rel="0.278" lshp="0" lpdel="0" hold="0" lspd_numerator="4" lspd_denominator="4" att="0" x100="0" lspd="0.1" lspd_syncmode="0" userwavefile=""/>
            <elcut dec="0.62900001" ctlenvamt="0" latt="0" sustain="0.178" amt="0.83499998" lamt="0" pdel="0" rel="1.409" lshp="0" lpdel="0" hold="0" lspd_numerator="4" lspd_denominator="4" att="0" x100="0" lspd="0.1" lspd_syncmode="0" userwavefile=""/>
            <elres dec="0.5" ctlenvamt="0" latt="0" sustain="0.5" amt="0" lamt="0" pdel="0" rel="0.1" lshp="0" lpdel="0" hold="0.5" lspd_numerator="4" lspd_denominator="4" att="0" x100="0" lspd="0.1" lspd_syncmode="0" userwavefile=""/>
          </eldata>
          <chordcreator chordrange="1" chord-enabled="1" chord="0"/>
          <arpeggiator arptime="100" arptime_syncmode="0" arpmode="0" arptime_numerator="4" arptime_denominator="4" arpdir="0" arpgate="100" arprange="1" arp-enabled="0" arpmiss="0" arp="0" arpcycle="0" arpskip="0"/>
          <midiport inputcontroller="0" fixedoutputnote="-1" writable="0" basevelocity="63" outputprogram="1" outputcontroller="0" fixedinputvelocity="-1" outputchannel="1" fixedoutputvelocity="-1" readable="0" inputchannel="0"/>
          <fxchain numofeffects="2" enabled="1">
            <effect gate="0" on="1" autoquit_syncmode="0" autoquit="1" name="stereomatrix" autoquit_numerator="4" wet="1" autoquit_denominator="4">
              <stereomatrixcontrols l-r="0" r-l="0" r-r="1" l-l="-1"/>
              <key/>
            </effect>
            <effect gate="0" on="1" autoquit_syncmode="0" autoquit="1" name="ladspaeffect" autoquit_numerator="4" wet="1" autoquit_denominator="4">
              <ladspacontrols ports="10">
                <port04 data="0.060000002"/>
                <port05>
                  <data value="223.6068" scale_type="log" id="5629282"/>
                </port05>
                <port06 data="2.75"/>
                <port07 data="2.75"/>
                <port08>
                  <data value="6000" scale_type="log" id="5159186"/>
                </port08>
                <port09>
                  <data value="159.05415" scale_type="log" id="6639332"/>
                </port09>
                <port010 data="0"/>
                <port011>
                  <data value="2514.8672" scale_type="log" id="7905490"/>
                </port011>
                <port012 data="0"/>
                <port013 data="0.5"/>
              </ladspacontrols>
              <key>
                <attribute value="zita-reverbs" name="file"/>
                <attribute value="zita-reverb" name="plugin"/>
              </key>
            </effect>
          </fxchain>
        </instrumenttrack>
        <pattern name="Analog Dreamz" pos="7680" muted="0" type="1" steps="16">
          <note key="64" pan="0" pos="0" len="384" vol="80"/>
          <note key="57" pan="0" pos="0" len="384" vol="80"/>
          <note key="67" pan="0" pos="384" len="384" vol="80"/>
          <note key="60" pan="0" pos="384" len="384" vol="80"/>
          <note key="66" pan="0" pos="768" len="384" vol="80"/>
          <note key="59" pan="0" pos="768" len="336" vol="80"/>
          <note key="55" pan="0" pos="1104" len="48" vol="80"/>
          <note key="64" pan="0" pos="1152" len="384" vol="80"/>
          <note key="57" pan="0" pos="1152" len="384" vol="80"/>
        </pattern>
        <pattern name="" pos="9216" muted="0" type="1" steps="16">
          <note key="64" pan="0" pos="0" len="384" vol="80"/>
          <note key="57" pan="0" pos="0" len="384" vol="80"/>
          <note key="67" pan="0" pos="384" len="384" vol="80"/>
          <note key="60" pan="0" pos="384" len="384" vol="80"/>
          <note key="66" pan="0" pos="768" len="384" vol="80"/>
          <note key="59" pan="0" pos="768" len="336" vol="80"/>
          <note key="55" pan="0" pos="1104" len="48" vol="80"/>
          <note key="64" pan="0" pos="1152" len="384" vol="80"/>
          <note key="57" pan="0" pos="1152" len="384" vol="80"/>
        </pattern>
        <pattern name="" pos="12288" muted="0" type="1" steps="16">
          <note key="64" pan="0" pos="0" len="384" vol="46"/>
          <note key="57" pan="0" pos="0" len="384" vol="46"/>
          <note key="67" pan="0" pos="384" len="384" vol="46"/>
          <note key="60" pan="0" pos="384" len="384" vol="46"/>
          <note key="66" pan="0" pos="768" len="384" vol="46"/>
          <note key="59" pan="0" pos="768" len="336" vol="46"/>
          <note key="55" pan="0" pos="1104" len="48" vol="46"/>
          <note key="64" pan="0" pos="1152" len="384" vol="46"/>
          <note key="57" pan="0" pos="1152" len="384" vol="46"/>
        </pattern>
        <pattern name="" pos="13824" muted="0" type="1" steps="16">
          <note key="64" pan="0" pos="0" len="384" vol="46"/>
          <note key="57" pan="0" pos="0" len="384" vol="46"/>
          <note key="67" pan="0" pos="384" len="384" vol="46"/>
          <note key="60" pan="0" pos="384" len="384" vol="46"/>
          <note key="66" pan="0" pos="768" len="384" vol="46"/>
          <note key="59" pan="0" pos="768" len="336" vol="46"/>
          <note key="55" pan="0" pos="1104" len="48" vol="46"/>
          <note key="64" pan="0" pos="1152" len="384" vol="46"/>
          <note key="57" pan="0" pos="1152" len="384" vol="46"/>
        </pattern>
      </track>
      <track name="Totally not Go Down" muted="0" type="1" solo="0">
        <bbtrack>
          <trackcontainer visible="0" type="bbtrackcontainer" y="243" x="133" width="941" height="575" minimized="0" maximized="0">
            <track name="kick01.ogg" muted="0" type="0" solo="0">
              <instrumenttrack pitchrange="1" pan="0" fxch="1" basenote="57" pitch="0" vol="100" usemasterpitch="1">
                <instrument name="audiofileprocessor">
                  <audiofileprocessor sframe="0" lframe="0" looped="0" interp="1" reversed="0" amp="100" stutter="0" src="drums/kick01.ogg" eframe="1"/>
                </instrument>
                <eldata fcut="14000" ftype="0" fwet="0" fres="0.5">
                  <elvol dec="0.5" ctlenvamt="0" latt="0" sustain="0.5" amt="0" lamt="0" pdel="0" rel="0.1" lshp="0" lpdel="0" hold="0.5" lspd_numerator="4" lspd_denominator="4" att="0" x100="0" lspd="0.1" lspd_syncmode="0" userwavefile=""/>
                  <elcut dec="0.5" ctlenvamt="0" latt="0" sustain="0.5" amt="0" lamt="0" pdel="0" rel="0.1" lshp="0" lpdel="0" hold="0.5" lspd_numerator="4" lspd_denominator="4" att="0" x100="0" lspd="0.1" lspd_syncmode="0" userwavefile=""/>
                  <elres dec="0.5" ctlenvamt="0" latt="0" sustain="0.5" amt="0" lamt="0" pdel="0" rel="0.1" lshp="0" lpdel="0" hold="0.5" lspd_numerator="4" lspd_denominator="4" att="0" x100="0" lspd="0.1" lspd_syncmode="0" userwavefile=""/>
                </eldata>
                <chordcreator chordrange="1" chord-enabled="0" chord="0"/>
                <arpeggiator arptime="200" arptime_syncmode="0" arpmode="0" arptime_numerator="4" arptime_denominator="4" arpdir="0" arpgate="100" arprange="1" arp-enabled="0" arpmiss="0" arp="0" arpcycle="0" arpskip="0"/>
                <midiport inputcontroller="0" fixedoutputnote="-1" writable="0" basevelocity="63" outputprogram="1" outputcontroller="0" fixedinputvelocity="-1" outputchannel="1" fixedoutputvelocity="-1" readable="0" inputchannel="0"/>
                <fxchain numofeffects="0" enabled="0"/>
              </instrumenttrack>
              <pattern name="kick01.ogg" pos="0" muted="0" type="0" steps="64">
                <note key="57" pan="0" pos="0" len="-192" vol="100"/>
                <note key="57" pan="0" pos="36" len="-192" vol="100"/>
                <note key="57" pan="0" pos="84" len="-192" vol="100"/>
                <note key="57" pan="0" pos="108" len="-192" vol="100"/>
                <note key="57" pan="0" pos="120" len="-192" vol="100"/>
                <note key="57" pan="0" pos="192" len="-192" vol="100"/>
                <note key="57" pan="0" pos="228" len="-192" vol="100"/>
                <note key="57" pan="0" pos="276" len="-192" vol="100"/>
                <note key="57" pan="0" pos="300" len="-192" vol="100"/>
                <note key="57" pan="0" pos="312" len="-192" vol="100"/>
                <note key="57" pan="0" pos="384" len="-192" vol="100"/>
                <note key="57" pan="0" pos="420" len="-192" vol="100"/>
                <note key="57" pan="0" pos="468" len="-192" vol="100"/>
                <note key="57" pan="0" pos="492" len="-192" vol="100"/>
                <note key="57" pan="0" pos="504" len="-192" vol="100"/>
                <note key="57" pan="0" pos="576" len="-192" vol="100"/>
                <note key="57" pan="0" pos="612" len="-192" vol="100"/>
                <note key="57" pan="0" pos="660" len="-192" vol="100"/>
                <note key="57" pan="0" pos="684" len="-192" vol="100"/>
                <note key="57" pan="0" pos="696" len="-192" vol="100"/>
                <note key="57" pan="0" pos="756" len="-192" vol="30"/>
              </pattern>
              <pattern name="kick01.ogg" pos="192" muted="0" type="0" steps="64">
                <note key="57" pan="0" pos="0" len="-192" vol="100"/>
                <note key="57" pan="0" pos="36" len="-192" vol="100"/>
                <note key="57" pan="0" pos="84" len="-192" vol="100"/>
                <note key="57" pan="0" pos="108" len="-192" vol="100"/>
                <note key="57" pan="0" pos="120" len="-192" vol="100"/>
                <note key="57" pan="0" pos="192" len="-192" vol="100"/>
                <note key="57" pan="0" pos="228" len="-192" vol="100"/>
                <note key="57" pan="0" pos="276" len="-192" vol="100"/>
                <note key="57" pan="0" pos="300" len="-192" vol="100"/>
                <note key="57" pan="0" pos="312" len="-192" vol="100"/>
                <note key="57" pan="0" pos="384" len="-192" vol="100"/>
                <note key="57" pan="0" pos="420" len="-192" vol="100"/>
                <note key="57" pan="0" pos="468" len="-192" vol="100"/>
                <note key="57" pan="0" pos="492" len="-192" vol="100"/>
                <note key="57" pan="0" pos="504" len="-192" vol="100"/>
                <note key="57" pan="0" pos="564" len="-192" vol="100"/>
                <note key="57" pan="0" pos="576" len="-192" vol="100"/>
                <note key="57" pan="0" pos="612" len="-192" vol="100"/>
                <note key="57" pan="0" pos="660" len="-192" vol="100"/>
                <note key="57" pan="0" pos="684" len="-192" vol="100"/>
                <note key="57" pan="0" pos="696" len="-192" vol="100"/>
                <note key="57" pan="0" pos="756" len="-192" vol="30"/>
              </pattern>
              <pattern name="kick01.ogg" pos="384" muted="0" type="0" steps="64"/>
              <pattern name="kick01.ogg" pos="576" muted="0" type="0" steps="16"/>
              <pattern name="kick01.ogg" pos="768" muted="0" type="0" steps="16"/>
            </track>
            <track name="Hat_o.ds" muted="0" type="0" solo="0">
              <instrumenttrack pitchrange="1" pan="0" fxch="1" basenote="57" pitch="0" vol="106.8" usemasterpitch="1">
                <instrument name="audiofileprocessor">
                  <audiofileprocessor sframe="0" lframe="0" looped="0" interp="1" reversed="0" amp="100" stutter="0" src="drumsynth/cr8000/Hat_o.ds" eframe="1"/>
                </instrument>
                <eldata fcut="14000" ftype="0" fwet="0" fres="0.5">
                  <elvol dec="0.5" ctlenvamt="0" latt="0" sustain="0.5" amt="0" lamt="0" pdel="0" rel="0.1" lshp="0" lpdel="0" hold="0.5" lspd_numerator="4" lspd_denominator="4" att="0" x100="0" lspd="0.1" lspd_syncmode="0" userwavefile=""/>
                  <elcut dec="0.5" ctlenvamt="0" latt="0" sustain="0.5" amt="0" lamt="0" pdel="0" rel="0.1" lshp="0" lpdel="0" hold="0.5" lspd_numerator="4" lspd_denominator="4" att="0" x100="0" lspd="0.1" lspd_syncmode="0" userwavefile=""/>
                  <elres dec="0.5" ctlenvamt="0" latt="0" sustain="0.5" amt="0" lamt="0" pdel="0" rel="0.1" lshp="0" lpdel="0" hold="0.5" lspd_numerator="4" lspd_denominator="4" att="0" x100="0" lspd="0.1" lspd_syncmode="0" userwavefile=""/>
                </eldata>
                <chordcreator chordrange="1" chord-enabled="0" chord="0"/>
                <arpeggiator arptime="200" arptime_syncmode="0" arpmode="0" arptime_numerator="4" arptime_denominator="4" arpdir="0" arpgate="100" arprange="1" arp-enabled="0" arpmiss="0" arp="0" arpcycle="0" arpskip="0"/>
                <midiport inputcontroller="0" fixedoutputnote="-1" writable="0" basevelocity="63" outputprogram="1" outputcontroller="0" fixedinputvelocity="-1" outputchannel="1" fixedoutputvelocity="-1" readable="0" inputchannel="0"/>
                <fxchain numofeffects="0" enabled="0"/>
              </instrumenttrack>
              <pattern name="Hat_o.ds" pos="0" muted="0" type="0" steps="64">
                <note key="57" pan="0" pos="24" len="-192" vol="100"/>
                <note key="57" pan="0" pos="120" len="-192" vol="100"/>
                <note key="57" pan="0" pos="216" len="-192" vol="100"/>
                <note key="57" pan="0" pos="312" len="-192" vol="100"/>
                <note key="57" pan="0" pos="408" len="-192" vol="100"/>
                <note key="57" pan="0" pos="504" len="-192" vol="100"/>
                <note key="57" pan="0" pos="600" len="-192" vol="100"/>
                <note key="57" pan="0" pos="696" len="-192" vol="100"/>
              </pattern>
              <pattern name="Hat_o.ds" pos="192" muted="0" type="0" steps="64">
                <note key="57" pan="0" pos="24" len="-192" vol="100"/>
                <note key="57" pan="0" pos="120" len="-192" vol="100"/>
                <note key="57" pan="0" pos="216" len="-192" vol="100"/>
                <note key="57" pan="0" pos="312" len="-192" vol="100"/>
                <note key="57" pan="0" pos="408" len="-192" vol="100"/>
                <note key="57" pan="0" pos="504" len="-192" vol="100"/>
                <note key="57" pan="0" pos="600" len="-192" vol="100"/>
                <note key="57" pan="0" pos="696" len="-192" vol="100"/>
              </pattern>
              <pattern name="Hat_o.ds" pos="384" muted="0" type="0" steps="64"/>
              <pattern name="Hat_o.ds" pos="576" muted="0" type="0" steps="16"/>
              <pattern name="Hat_o.ds" pos="768" muted="0" type="0" steps="16"/>
            </track>
            <track name="clap01.ogg" muted="0" type="0" solo="0">
              <instrumenttrack pitchrange="1" pan="0" fxch="1" basenote="57" pitch="0" vol="200" usemasterpitch="1">
                <instrument name="audiofileprocessor">
                  <audiofileprocessor sframe="0" lframe="0" looped="0" interp="1" reversed="0" amp="100" stutter="0" src="drums/clap01.ogg" eframe="1"/>
                </instrument>
                <eldata fcut="14000" ftype="0" fwet="0" fres="0.5">
                  <elvol dec="0.5" ctlenvamt="0" latt="0" sustain="0.5" amt="0" lamt="0" pdel="0" rel="0.1" lshp="0" lpdel="0" hold="0.5" lspd_numerator="4" lspd_denominator="4" att="0" x100="0" lspd="0.1" lspd_syncmode="0" userwavefile=""/>
                  <elcut dec="0.5" ctlenvamt="0" latt="0" sustain="0.5" amt="0" lamt="0" pdel="0" rel="0.1" lshp="0" lpdel="0" hold="0.5" lspd_numerator="4" lspd_denominator="4" att="0" x100="0" lspd="0.1" lspd_syncmode="0" userwavefile=""/>
                  <elres dec="0.5" ctlenvamt="0" latt="0" sustain="0.5" amt="0" lamt="0" pdel="0" rel="0.1" lshp="0" lpdel="0" hold="0.5" lspd_numerator="4" lspd_denominator="4" att="0" x100="0" lspd="0.1" lspd_syncmode="0" userwavefile=""/>
                </eldata>
                <chordcreator chordrange="1" chord-enabled="0" chord="0"/>
                <arpeggiator arptime="200" arptime_syncmode="0" arpmode="0" arptime_numerator="4" arptime_denominator="4" arpdir="0" arpgate="100" arprange="1" arp-enabled="0" arpmiss="0" arp="0" arpcycle="0" arpskip="0"/>
                <midiport inputcontroller="0" fixedoutputnote="-1" writable="0" basevelocity="63" outputprogram="1" outputcontroller="0" fixedinputvelocity="-1" outputchannel="1" fixedoutputvelocity="-1" readable="0" inputchannel="0"/>
                <fxchain numofeffects="3" enabled="1">
                  <effect gate="0" on="1" autoquit_syncmode="0" autoquit="1" name="bitcrush" autoquit_numerator="4" wet="1" autoquit_denominator="4">
                    <bitcrushcontrols outclip="-13.3" innoise="0" depthon="1" ingain="10.400001" outgain="0" stereodiff="0" levels="256" rateon="1" rate="44100"/>
                    <key/>
                  </effect>
                  <effect gate="0" on="1" autoquit_syncmode="0" autoquit="1" name="amplifier" autoquit_numerator="4" wet="1" autoquit_denominator="4">
                    <AmplifierControls pan="0" right="100" volume="140.8" left="100"/>
                    <key/>
                  </effect>
                  <effect gate="0" on="1" autoquit_syncmode="0" autoquit="1" name="ladspaeffect" autoquit_numerator="4" wet="0.23999999" autoquit_denominator="4">
                    <ladspacontrols ports="10">
                      <port04 data="0.0414"/>
                      <port05>
                        <data value="223.6068" scale_type="log" id="4055869"/>
                      </port05>
                      <port06 data="2.75"/>
                      <port07 data="2.75"/>
                      <port08>
                        <data value="6000" scale_type="log" id="981116"/>
                      </port08>
                      <port09>
                        <data value="159.05415" scale_type="log" id="5613614"/>
                      </port09>
                      <port010 data="0"/>
                      <port011>
                        <data value="2514.8672" scale_type="log" id="5753918"/>
                      </port011>
                      <port012 data="0"/>
                      <port013 data="0.5"/>
                    </ladspacontrols>
                    <key>
                      <attribute value="zita-reverbs" name="file"/>
                      <attribute value="zita-reverb" name="plugin"/>
                    </key>
                  </effect>
                </fxchain>
              </instrumenttrack>
              <pattern name="clap01.ogg" pos="0" muted="0" type="0" steps="64"/>
              <pattern name="clap01.ogg" pos="192" muted="0" type="0" steps="64"/>
              <pattern name="clap01.ogg" pos="384" muted="0" type="0" steps="64">
                <note key="57" pan="0" pos="144" len="-192" vol="100"/>
                <note key="57" pan="0" pos="336" len="-192" vol="100"/>
                <note key="57" pan="0" pos="528" len="-192" vol="100"/>
              </pattern>
              <pattern name="clap01.ogg" pos="576" muted="0" type="0" steps="16"/>
              <pattern name="clap01.ogg" pos="768" muted="0" type="0" steps="16"/>
            </track>
            <track name="bright_808_hat_2.ds" muted="0" type="0" solo="0">
              <instrumenttrack pitchrange="1" pan="0" fxch="0" basenote="57" pitch="0" vol="100" usemasterpitch="1">
                <instrument name="audiofileprocessor">
                  <audiofileprocessor sframe="0" lframe="0" looped="0" interp="1" reversed="0" amp="100" stutter="0" src="drumsynth/misc_hats/bright_808_hat_2.ds" eframe="1"/>
                </instrument>
                <eldata fcut="14000" ftype="0" fwet="0" fres="0.5">
                  <elvol dec="0.5" ctlenvamt="0" latt="0" sustain="0.5" amt="0" lamt="0" pdel="0" rel="0.1" lshp="0" lpdel="0" hold="0.5" lspd_numerator="4" lspd_denominator="4" att="0" x100="0" lspd="0.1" lspd_syncmode="0" userwavefile=""/>
                  <elcut dec="0.5" ctlenvamt="0" latt="0" sustain="0.5" amt="0" lamt="0" pdel="0" rel="0.1" lshp="0" lpdel="0" hold="0.5" lspd_numerator="4" lspd_denominator="4" att="0" x100="0" lspd="0.1" lspd_syncmode="0" userwavefile=""/>
                  <elres dec="0.5" ctlenvamt="0" latt="0" sustain="0.5" amt="0" lamt="0" pdel="0" rel="0.1" lshp="0" lpdel="0" hold="0.5" lspd_numerator="4" lspd_denominator="4" att="0" x100="0" lspd="0.1" lspd_syncmode="0" userwavefile=""/>
                </eldata>
                <chordcreator chordrange="1" chord-enabled="0" chord="0"/>
                <arpeggiator arptime="200" arptime_syncmode="0" arpmode="0" arptime_numerator="4" arptime_denominator="4" arpdir="0" arpgate="100" arprange="1" arp-enabled="0" arpmiss="0" arp="0" arpcycle="0" arpskip="0"/>
                <midiport inputcontroller="0" fixedoutputnote="-1" writable="0" basevelocity="63" outputprogram="1" outputcontroller="0" fixedinputvelocity="-1" outputchannel="1" fixedoutputvelocity="-1" readable="0" inputchannel="0"/>
                <fxchain numofeffects="0" enabled="0"/>
              </instrumenttrack>
              <pattern name="bright_808_hat_2.ds" pos="0" muted="0" type="0" steps="64">
                <note key="57" pan="0" pos="0" len="-192" vol="100"/>
                <note key="57" pan="0" pos="24" len="-192" vol="100"/>
                <note key="57" pan="0" pos="48" len="-192" vol="100"/>
                <note key="57" pan="0" pos="72" len="-192" vol="100"/>
                <note key="57" pan="0" pos="96" len="-192" vol="100"/>
                <note key="57" pan="0" pos="120" len="-192" vol="100"/>
                <note key="57" pan="0" pos="144" len="-192" vol="100"/>
                <note key="57" pan="0" pos="168" len="-192" vol="100"/>
                <note key="57" pan="0" pos="192" len="-192" vol="100"/>
                <note key="57" pan="0" pos="216" len="-192" vol="100"/>
                <note key="57" pan="0" pos="240" len="-192" vol="100"/>
                <note key="57" pan="0" pos="264" len="-192" vol="100"/>
                <note key="57" pan="0" pos="288" len="-192" vol="100"/>
                <note key="57" pan="0" pos="312" len="-192" vol="100"/>
                <note key="57" pan="0" pos="336" len="-192" vol="100"/>
                <note key="57" pan="0" pos="360" len="-192" vol="100"/>
                <note key="57" pan="0" pos="384" len="-192" vol="100"/>
                <note key="57" pan="0" pos="408" len="-192" vol="100"/>
                <note key="57" pan="0" pos="432" len="-192" vol="100"/>
                <note key="57" pan="0" pos="456" len="-192" vol="100"/>
                <note key="57" pan="0" pos="480" len="-192" vol="100"/>
                <note key="57" pan="0" pos="504" len="-192" vol="100"/>
                <note key="57" pan="0" pos="528" len="-192" vol="100"/>
                <note key="57" pan="0" pos="552" len="-192" vol="100"/>
                <note key="57" pan="0" pos="576" len="-192" vol="100"/>
                <note key="57" pan="0" pos="600" len="-192" vol="100"/>
                <note key="57" pan="0" pos="624" len="-192" vol="100"/>
                <note key="57" pan="0" pos="648" len="-192" vol="100"/>
                <note key="57" pan="0" pos="672" len="-192" vol="100"/>
                <note key="57" pan="0" pos="696" len="-192" vol="100"/>
                <note key="57" pan="0" pos="720" len="-192" vol="100"/>
                <note key="57" pan="0" pos="744" len="-192" vol="100"/>
              </pattern>
              <pattern name="bright_808_hat_2.ds" pos="192" muted="0" type="0" steps="64">
                <note key="57" pan="0" pos="0" len="-192" vol="100"/>
                <note key="57" pan="0" pos="24" len="-192" vol="100"/>
                <note key="57" pan="0" pos="48" len="-192" vol="100"/>
                <note key="57" pan="0" pos="72" len="-192" vol="100"/>
                <note key="57" pan="0" pos="96" len="-192" vol="100"/>
                <note key="57" pan="0" pos="120" len="-192" vol="100"/>
                <note key="57" pan="0" pos="144" len="-192" vol="100"/>
                <note key="57" pan="0" pos="168" len="-192" vol="100"/>
                <note key="57" pan="0" pos="192" len="-192" vol="100"/>
                <note key="57" pan="0" pos="216" len="-192" vol="100"/>
                <note key="57" pan="0" pos="240" len="-192" vol="100"/>
                <note key="57" pan="0" pos="264" len="-192" vol="100"/>
                <note key="57" pan="0" pos="288" len="-192" vol="100"/>
                <note key="57" pan="0" pos="312" len="-192" vol="100"/>
                <note key="57" pan="0" pos="336" len="-192" vol="100"/>
                <note key="57" pan="0" pos="360" len="-192" vol="100"/>
                <note key="57" pan="0" pos="384" len="-192" vol="100"/>
                <note key="57" pan="0" pos="408" len="-192" vol="100"/>
                <note key="57" pan="0" pos="432" len="-192" vol="100"/>
                <note key="57" pan="0" pos="456" len="-192" vol="100"/>
                <note key="57" pan="0" pos="480" len="-192" vol="100"/>
                <note key="57" pan="0" pos="504" len="-192" vol="100"/>
                <note key="57" pan="0" pos="528" len="-192" vol="100"/>
                <note key="57" pan="0" pos="552" len="-192" vol="100"/>
                <note key="57" pan="0" pos="576" len="-192" vol="100"/>
                <note key="57" pan="0" pos="600" len="-192" vol="100"/>
                <note key="57" pan="0" pos="624" len="-192" vol="100"/>
                <note key="57" pan="0" pos="648" len="-192" vol="100"/>
                <note key="57" pan="0" pos="672" len="-192" vol="100"/>
                <note key="57" pan="0" pos="696" len="-192" vol="100"/>
                <note key="57" pan="0" pos="720" len="-192" vol="100"/>
                <note key="57" pan="0" pos="744" len="-192" vol="100"/>
              </pattern>
              <pattern name="bright_808_hat_2.ds" pos="384" muted="0" type="0" steps="64"/>
              <pattern name="bright_808_hat_2.ds" pos="576" muted="0" type="0" steps="16"/>
              <pattern name="bright_808_hat_2.ds" pos="768" muted="0" type="0" steps="16"/>
            </track>
            <track name="snare04.ogg" muted="0" type="0" solo="0">
              <instrumenttrack pitchrange="1" pan="0" fxch="0" basenote="57" pitch="0" vol="100" usemasterpitch="1">
                <instrument name="audiofileprocessor">
                  <audiofileprocessor sframe="0" lframe="0" looped="0" interp="1" reversed="0" amp="100" stutter="0" src="drums/snare04.ogg" eframe="1"/>
                </instrument>
                <eldata fcut="14000" ftype="0" fwet="0" fres="0.5">
                  <elvol dec="0.5" ctlenvamt="0" latt="0" sustain="0.5" amt="0" lamt="0" pdel="0" rel="0.1" lshp="0" lpdel="0" hold="0.5" lspd_numerator="4" lspd_denominator="4" att="0" x100="0" lspd="0.1" lspd_syncmode="0" userwavefile=""/>
                  <elcut dec="0.5" ctlenvamt="0" latt="0" sustain="0.5" amt="0" lamt="0" pdel="0" rel="0.1" lshp="0" lpdel="0" hold="0.5" lspd_numerator="4" lspd_denominator="4" att="0" x100="0" lspd="0.1" lspd_syncmode="0" userwavefile=""/>
                  <elres dec="0.5" ctlenvamt="0" latt="0" sustain="0.5" amt="0" lamt="0" pdel="0" rel="0.1" lshp="0" lpdel="0" hold="0.5" lspd_numerator="4" lspd_denominator="4" att="0" x100="0" lspd="0.1" lspd_syncmode="0" userwavefile=""/>
                </eldata>
                <chordcreator chordrange="1" chord-enabled="0" chord="0"/>
                <arpeggiator arptime="200" arptime_syncmode="0" arpmode="0" arptime_numerator="4" arptime_denominator="4" arpdir="0" arpgate="100" arprange="1" arp-enabled="0" arpmiss="0" arp="0" arpcycle="0" arpskip="0"/>
                <midiport inputcontroller="0" fixedoutputnote="-1" writable="0" basevelocity="63" outputprogram="1" outputcontroller="0" fixedinputvelocity="-1" outputchannel="1" fixedoutputvelocity="-1" readable="0" inputchannel="0"/>
                <fxchain numofeffects="0" enabled="0"/>
              </instrumenttrack>
              <pattern name="snare04.ogg" pos="0" muted="0" type="0" steps="64">
                <note key="57" pan="0" pos="48" len="-192" vol="100"/>
                <note key="57" pan="0" pos="144" len="-192" vol="100"/>
                <note key="57" pan="0" pos="240" len="-192" vol="100"/>
                <note key="57" pan="0" pos="336" len="-192" vol="100"/>
                <note key="57" pan="0" pos="432" len="-192" vol="100"/>
                <note key="57" pan="0" pos="528" len="-192" vol="100"/>
                <note key="57" pan="0" pos="624" len="-192" vol="100"/>
                <note key="57" pan="0" pos="720" len="-192" vol="100"/>
              </pattern>
              <pattern name="snare04.ogg" pos="192" muted="0" type="0" steps="64">
                <note key="57" pan="0" pos="48" len="-192" vol="55"/>
                <note key="57" pan="0" pos="144" len="-192" vol="55"/>
                <note key="57" pan="0" pos="240" len="-192" vol="55"/>
                <note key="57" pan="0" pos="336" len="-192" vol="75"/>
                <note key="57" pan="0" pos="432" len="-192" vol="55"/>
                <note key="57" pan="0" pos="528" len="-192" vol="55"/>
                <note key="57" pan="0" pos="624" len="-192" vol="60"/>
                <note key="57" pan="0" pos="720" len="-192" vol="75"/>
              </pattern>
              <pattern name="snare04.ogg" pos="384" muted="0" type="0" steps="64"/>
              <pattern name="snare04.ogg" pos="576" muted="0" type="0" steps="16"/>
              <pattern name="snare04.ogg" pos="768" muted="0" type="0" steps="16"/>
            </track>
            <track name="close_ride.ds" muted="0" type="0" solo="0">
              <instrumenttrack pitchrange="1" pan="0" fxch="0" basenote="57" pitch="0" vol="59.200001" usemasterpitch="1">
                <instrument name="audiofileprocessor">
                  <audiofileprocessor sframe="0" lframe="0" looped="0" interp="1" reversed="0" amp="100" stutter="0" src="drumsynth/misc_hats/close_ride.ds" eframe="1"/>
                </instrument>
                <eldata fcut="14000" ftype="0" fwet="0" fres="0.5">
                  <elvol dec="0.5" ctlenvamt="0" latt="0" sustain="0.5" amt="0" lamt="0" pdel="0" rel="0.1" lshp="0" lpdel="0" hold="0.5" lspd_numerator="4" lspd_denominator="4" att="0" x100="0" lspd="0.1" lspd_syncmode="0" userwavefile=""/>
                  <elcut dec="0.5" ctlenvamt="0" latt="0" sustain="0.5" amt="0" lamt="0" pdel="0" rel="0.1" lshp="0" lpdel="0" hold="0.5" lspd_numerator="4" lspd_denominator="4" att="0" x100="0" lspd="0.1" lspd_syncmode="0" userwavefile=""/>
                  <elres dec="0.5" ctlenvamt="0" latt="0" sustain="0.5" amt="0" lamt="0" pdel="0" rel="0.1" lshp="0" lpdel="0" hold="0.5" lspd_numerator="4" lspd_denominator="4" att="0" x100="0" lspd="0.1" lspd_syncmode="0" userwavefile=""/>
                </eldata>
                <chordcreator chordrange="1" chord-enabled="0" chord="0"/>
                <arpeggiator arptime="200" arptime_syncmode="0" arpmode="0" arptime_numerator="4" arptime_denominator="4" arpdir="0" arpgate="100" arprange="1" arp-enabled="0" arpmiss="0" arp="0" arpcycle="0" arpskip="0"/>
                <midiport inputcontroller="0" fixedoutputnote="-1" writable="0" basevelocity="63" outputprogram="1" outputcontroller="0" fixedinputvelocity="-1" outputchannel="1" fixedoutputvelocity="-1" readable="0" inputchannel="0"/>
                <fxchain numofeffects="1" enabled="1">
                  <effect gate="0" on="1" autoquit_syncmode="0" autoquit="1" name="ladspaeffect" autoquit_numerator="4" wet="0.41" autoquit_denominator="4">
                    <ladspacontrols ports="10">
                      <port04 data="0.040599998"/>
                      <port05>
                        <data value="223.6068" scale_type="log" id="7364936"/>
                      </port05>
                      <port06 data="2.75"/>
                      <port07 data="2.75"/>
                      <port08>
                        <data value="6000" scale_type="log" id="1255802"/>
                      </port08>
                      <port09>
                        <data value="159.05415" scale_type="log" id="190211"/>
                      </port09>
                      <port010 data="0"/>
                      <port011>
                        <data value="2514.8672" scale_type="log" id="8156417"/>
                      </port011>
                      <port012 data="0"/>
                      <port013 data="0.5"/>
                    </ladspacontrols>
                    <key>
                      <attribute value="zita-reverbs" name="file"/>
                      <attribute value="zita-reverb" name="plugin"/>
                    </key>
                  </effect>
                </fxchain>
              </instrumenttrack>
              <pattern name="close_ride.ds" pos="0" muted="0" type="0" steps="64"/>
              <pattern name="close_ride.ds" pos="192" muted="0" type="0" steps="64"/>
              <pattern name="close_ride.ds" pos="384" muted="0" type="0" steps="64"/>
              <pattern name="close_ride.ds" pos="576" muted="0" type="0" steps="16">
                <note key="57" pan="0" pos="0" len="-192" vol="100"/>
                <note key="57" pan="0" pos="24" len="-192" vol="50"/>
                <note key="57" pan="0" pos="48" len="-192" vol="100"/>
                <note key="57" pan="0" pos="72" len="-192" vol="40"/>
                <note key="57" pan="0" pos="96" len="-192" vol="100"/>
                <note key="57" pan="0" pos="120" len="-192" vol="35"/>
                <note key="57" pan="0" pos="144" len="-192" vol="100"/>
                <note key="57" pan="0" pos="168" len="-192" vol="45"/>
              </pattern>
              <pattern name="close_ride.ds" pos="768" muted="0" type="0" steps="16"/>
            </track>
            <track name="tom_mid01.ogg" muted="0" type="0" solo="0">
              <instrumenttrack pitchrange="1" pan="30" fxch="0" basenote="57" pitch="0" vol="52" usemasterpitch="1">
                <instrument name="audiofileprocessor">
                  <audiofileprocessor sframe="0" lframe="0" looped="0" interp="1" reversed="0" amp="100" stutter="0" src="drums/tom_mid01.ogg" eframe="1"/>
                </instrument>
                <eldata fcut="14000" ftype="0" fwet="0" fres="0.5">
                  <elvol dec="0.5" ctlenvamt="0" latt="0" sustain="0.5" amt="0" lamt="0" pdel="0" rel="0.1" lshp="0" lpdel="0" hold="0.5" lspd_numerator="4" lspd_denominator="4" att="0" x100="0" lspd="0.1" lspd_syncmode="0" userwavefile=""/>
                  <elcut dec="0.5" ctlenvamt="0" latt="0" sustain="0.5" amt="0" lamt="0" pdel="0" rel="0.1" lshp="0" lpdel="0" hold="0.5" lspd_numerator="4" lspd_denominator="4" att="0" x100="0" lspd="0.1" lspd_syncmode="0" userwavefile=""/>
                  <elres dec="0.5" ctlenvamt="0" latt="0" sustain="0.5" amt="0" lamt="0" pdel="0" rel="0.1" lshp="0" lpdel="0" hold="0.5" lspd_numerator="4" lspd_denominator="4" att="0" x100="0" lspd="0.1" lspd_syncmode="0" userwavefile=""/>
                </eldata>
                <chordcreator chordrange="1" chord-enabled="0" chord="0"/>
                <arpeggiator arptime="200" arptime_syncmode="0" arpmode="0" arptime_numerator="4" arptime_denominator="4" arpdir="0" arpgate="100" arprange="1" arp-enabled="0" arpmiss="0" arp="0" arpcycle="0" arpskip="0"/>
                <midiport inputcontroller="0" fixedoutputnote="-1" writable="0" basevelocity="63" outputprogram="1" outputcontroller="0" fixedinputvelocity="-1" outputchannel="1" fixedoutputvelocity="-1" readable="0" inputchannel="0"/>
                <fxchain numofeffects="0" enabled="0"/>
              </instrumenttrack>
              <pattern name="tom_mid01.ogg" pos="0" muted="0" type="0" steps="64"/>
              <pattern name="tom_mid01.ogg" pos="192" muted="0" type="0" steps="64"/>
              <pattern name="tom_mid01.ogg" pos="384" muted="0" type="0" steps="64"/>
              <pattern name="tom_mid01.ogg" pos="576" muted="0" type="0" steps="16"/>
              <pattern name="tom_mid01.ogg" pos="768" muted="0" type="0" steps="16">
                <note key="57" pan="0" pos="120" len="-192" vol="30"/>
                <note key="57" pan="0" pos="132" len="-192" vol="55"/>
                <note key="57" pan="0" pos="144" len="-192" vol="100"/>
                <note key="57" pan="0" pos="156" len="-192" vol="100"/>
              </pattern>
            </track>
            <track name="tom_low01.ogg" muted="0" type="0" solo="0">
              <instrumenttrack pitchrange="1" pan="30" fxch="0" basenote="57" pitch="0" vol="49.600002" usemasterpitch="1">
                <instrument name="audiofileprocessor">
                  <audiofileprocessor sframe="0" lframe="0" looped="0" interp="1" reversed="0" amp="100" stutter="0" src="drums/tom_low01.ogg" eframe="1"/>
                </instrument>
                <eldata fcut="14000" ftype="0" fwet="0" fres="0.5">
                  <elvol dec="0.5" ctlenvamt="0" latt="0" sustain="0.5" amt="0" lamt="0" pdel="0" rel="0.1" lshp="0" lpdel="0" hold="0.5" lspd_numerator="4" lspd_denominator="4" att="0" x100="0" lspd="0.1" lspd_syncmode="0" userwavefile=""/>
                  <elcut dec="0.5" ctlenvamt="0" latt="0" sustain="0.5" amt="0" lamt="0" pdel="0" rel="0.1" lshp="0" lpdel="0" hold="0.5" lspd_numerator="4" lspd_denominator="4" att="0" x100="0" lspd="0.1" lspd_syncmode="0" userwavefile=""/>
                  <elres dec="0.5" ctlenvamt="0" latt="0" sustain="0.5" amt="0" lamt="0" pdel="0" rel="0.1" lshp="0" lpdel="0" hold="0.5" lspd_numerator="4" lspd_denominator="4" att="0" x100="0" lspd="0.1" lspd_syncmode="0" userwavefile=""/>
                </eldata>
                <chordcreator chordrange="1" chord-enabled="0" chord="0"/>
                <arpeggiator arptime="200" arptime_syncmode="0" arpmode="0" arptime_numerator="4" arptime_denominator="4" arpdir="0" arpgate="100" arprange="1" arp-enabled="0" arpmiss="0" arp="0" arpcycle="0" arpskip="0"/>
                <midiport inputcontroller="0" fixedoutputnote="-1" writable="0" basevelocity="63" outputprogram="1" outputcontroller="0" fixedinputvelocity="-1" outputchannel="1" fixedoutputvelocity="-1" readable="0" inputchannel="0"/>
                <fxchain numofeffects="0" enabled="0"/>
              </instrumenttrack>
              <pattern name="tom_low01.ogg" pos="0" muted="0" type="0" steps="64"/>
              <pattern name="tom_low01.ogg" pos="192" muted="0" type="0" steps="64"/>
              <pattern name="tom_low01.ogg" pos="384" muted="0" type="0" steps="64"/>
              <pattern name="tom_low01.ogg" pos="576" muted="0" type="0" steps="16"/>
              <pattern name="tom_low01.ogg" pos="768" muted="0" type="0" steps="16">
                <note key="57" pan="0" pos="168" len="-192" vol="100"/>
                <note key="57" pan="0" pos="180" len="-192" vol="100"/>
              </pattern>
            </track>
            <track name="kick_hard01.ogg" muted="0" type="0" solo="0">
              <instrumenttrack pitchrange="1" pan="0" fxch="0" basenote="57" pitch="0" vol="80" usemasterpitch="1">
                <instrument name="audiofileprocessor">
                  <audiofileprocessor sframe="0" lframe="0" looped="0" interp="1" reversed="0" amp="100" stutter="0" src="drums/kick_hard01.ogg" eframe="1"/>
                </instrument>
                <eldata fcut="14000" ftype="0" fwet="0" fres="0.5">
                  <elvol dec="0.5" ctlenvamt="0" latt="0" sustain="0.5" amt="0" lamt="0" pdel="0" rel="0.1" lshp="0" lpdel="0" hold="0.5" lspd_numerator="4" lspd_denominator="4" att="0" x100="0" lspd="0.1" lspd_syncmode="0" userwavefile=""/>
                  <elcut dec="0.5" ctlenvamt="0" latt="0" sustain="0.5" amt="0" lamt="0" pdel="0" rel="0.1" lshp="0" lpdel="0" hold="0.5" lspd_numerator="4" lspd_denominator="4" att="0" x100="0" lspd="0.1" lspd_syncmode="0" userwavefile=""/>
                  <elres dec="0.5" ctlenvamt="0" latt="0" sustain="0.5" amt="0" lamt="0" pdel="0" rel="0.1" lshp="0" lpdel="0" hold="0.5" lspd_numerator="4" lspd_denominator="4" att="0" x100="0" lspd="0.1" lspd_syncmode="0" userwavefile=""/>
                </eldata>
                <chordcreator chordrange="1" chord-enabled="0" chord="0"/>
                <arpeggiator arptime="200" arptime_syncmode="0" arpmode="0" arptime_numerator="4" arptime_denominator="4" arpdir="0" arpgate="100" arprange="1" arp-enabled="0" arpmiss="0" arp="0" arpcycle="0" arpskip="0"/>
                <midiport inputcontroller="0" fixedoutputnote="-1" writable="0" basevelocity="63" outputprogram="1" outputcontroller="0" fixedinputvelocity="-1" outputchannel="1" fixedoutputvelocity="-1" readable="0" inputchannel="0"/>
                <fxchain numofeffects="0" enabled="0"/>
              </instrumenttrack>
              <pattern name="kick_hard01.ogg" pos="0" muted="0" type="0" steps="64"/>
              <pattern name="kick_hard01.ogg" pos="192" muted="0" type="0" steps="64">
                <note key="57" pan="0" pos="0" len="-192" vol="100"/>
                <note key="57" pan="0" pos="36" len="-192" vol="100"/>
                <note key="57" pan="0" pos="84" len="-192" vol="100"/>
                <note key="57" pan="0" pos="108" len="-192" vol="100"/>
                <note key="57" pan="0" pos="120" len="-192" vol="100"/>
                <note key="57" pan="0" pos="192" len="-192" vol="100"/>
                <note key="57" pan="0" pos="228" len="-192" vol="100"/>
                <note key="57" pan="0" pos="276" len="-192" vol="100"/>
                <note key="57" pan="0" pos="300" len="-192" vol="100"/>
                <note key="57" pan="0" pos="312" len="-192" vol="100"/>
                <note key="57" pan="0" pos="384" len="-192" vol="100"/>
                <note key="57" pan="0" pos="420" len="-192" vol="100"/>
                <note key="57" pan="0" pos="468" len="-192" vol="100"/>
                <note key="57" pan="0" pos="492" len="-192" vol="100"/>
                <note key="57" pan="0" pos="504" len="-192" vol="100"/>
                <note key="57" pan="0" pos="576" len="-192" vol="100"/>
                <note key="57" pan="0" pos="612" len="-192" vol="100"/>
                <note key="57" pan="0" pos="660" len="-192" vol="100"/>
                <note key="57" pan="0" pos="684" len="-192" vol="100"/>
                <note key="57" pan="0" pos="696" len="-192" vol="100"/>
              </pattern>
              <pattern name="kick_hard01.ogg" pos="384" muted="0" type="0" steps="64"/>
              <pattern name="kick_hard01.ogg" pos="576" muted="0" type="0" steps="16"/>
              <pattern name="kick_hard01.ogg" pos="768" muted="0" type="0" steps="16"/>
            </track>
            <track name="nasty_snare01.ogg" muted="0" type="0" solo="0">
              <instrumenttrack pitchrange="1" pan="0" fxch="0" basenote="57" pitch="0" vol="58.400002" usemasterpitch="1">
                <instrument name="audiofileprocessor">
                  <audiofileprocessor sframe="0" lframe="0" looped="0" interp="1" reversed="0" amp="100" stutter="0" src="drums/nasty_snare01.ogg" eframe="1"/>
                </instrument>
                <eldata fcut="14000" ftype="0" fwet="0" fres="0.5">
                  <elvol dec="0.5" ctlenvamt="0" latt="0" sustain="0.5" amt="0" lamt="0" pdel="0" rel="0.1" lshp="0" lpdel="0" hold="0.5" lspd_numerator="4" lspd_denominator="4" att="0" x100="0" lspd="0.1" lspd_syncmode="0" userwavefile=""/>
                  <elcut dec="0.5" ctlenvamt="0" latt="0" sustain="0.5" amt="0" lamt="0" pdel="0" rel="0.1" lshp="0" lpdel="0" hold="0.5" lspd_numerator="4" lspd_denominator="4" att="0" x100="0" lspd="0.1" lspd_syncmode="0" userwavefile=""/>
                  <elres dec="0.5" ctlenvamt="0" latt="0" sustain="0.5" amt="0" lamt="0" pdel="0" rel="0.1" lshp="0" lpdel="0" hold="0.5" lspd_numerator="4" lspd_denominator="4" att="0" x100="0" lspd="0.1" lspd_syncmode="0" userwavefile=""/>
                </eldata>
                <chordcreator chordrange="1" chord-enabled="0" chord="0"/>
                <arpeggiator arptime="200" arptime_syncmode="0" arpmode="0" arptime_numerator="4" arptime_denominator="4" arpdir="0" arpgate="100" arprange="1" arp-enabled="0" arpmiss="0" arp="0" arpcycle="0" arpskip="0"/>
                <midiport inputcontroller="0" fixedoutputnote="-1" writable="0" basevelocity="63" outputprogram="1" outputcontroller="0" fixedinputvelocity="-1" outputchannel="1" fixedoutputvelocity="-1" readable="0" inputchannel="0"/>
                <fxchain numofeffects="2" enabled="1">
                  <effect gate="0" on="1" autoquit_syncmode="0" autoquit="1" name="stereomatrix" autoquit_numerator="4" wet="1" autoquit_denominator="4">
                    <stereomatrixcontrols l-r="0" r-l="0" r-r="1" l-l="-1"/>
                    <key/>
                  </effect>
                  <effect gate="0" on="1" autoquit_syncmode="0" autoquit="1" name="ladspaeffect" autoquit_numerator="4" wet="0.14" autoquit_denominator="4">
                    <ladspacontrols ports="10">
                      <port04 data="0.060000002"/>
                      <port05>
                        <data value="223.6068" scale_type="log" id="4116232"/>
                      </port05>
                      <port06 data="2.75"/>
                      <port07 data="2.75"/>
                      <port08>
                        <data value="6000" scale_type="log" id="8037257"/>
                      </port08>
                      <port09>
                        <data value="159.05415" scale_type="log" id="7820810"/>
                      </port09>
                      <port010 data="0"/>
                      <port011>
                        <data value="2514.8672" scale_type="log" id="4428122"/>
                      </port011>
                      <port012 data="0"/>
                      <port013 data="0.5"/>
                    </ladspacontrols>
                    <key>
                      <attribute value="zita-reverbs" name="file"/>
                      <attribute value="zita-reverb" name="plugin"/>
                    </key>
                  </effect>
                </fxchain>
              </instrumenttrack>
              <pattern name="nasty_snare01.ogg" pos="0" muted="0" type="0" steps="64"/>
              <pattern name="nasty_snare01.ogg" pos="192" muted="0" type="0" steps="64">
                <note key="57" pan="0" pos="48" len="-192" vol="100"/>
                <note key="57" pan="0" pos="144" len="-192" vol="100"/>
                <note key="57" pan="0" pos="240" len="-192" vol="100"/>
                <note key="57" pan="0" pos="336" len="-192" vol="100"/>
                <note key="57" pan="0" pos="432" len="-192" vol="100"/>
                <note key="57" pan="0" pos="528" len="-192" vol="100"/>
                <note key="57" pan="0" pos="624" len="-192" vol="100"/>
                <note key="57" pan="0" pos="720" len="-192" vol="100"/>
              </pattern>
              <pattern name="nasty_snare01.ogg" pos="384" muted="0" type="0" steps="64"/>
              <pattern name="nasty_snare01.ogg" pos="576" muted="0" type="0" steps="16"/>
              <pattern name="nasty_snare01.ogg" pos="768" muted="0" type="0" steps="16"/>
            </track>
            <track name="amen_ride.ds" muted="0" type="0" solo="0">
              <instrumenttrack pitchrange="1" pan="0" fxch="0" basenote="57" pitch="0" vol="47.200001" usemasterpitch="1">
                <instrument name="audiofileprocessor">
                  <audiofileprocessor sframe="0" lframe="0" looped="0" interp="1" reversed="0" amp="100" stutter="0" src="drumsynth/misc_hats/amen_ride.ds" eframe="1"/>
                </instrument>
                <eldata fcut="14000" ftype="0" fwet="0" fres="0.5">
                  <elvol dec="0.5" ctlenvamt="0" latt="0" sustain="0.5" amt="0" lamt="0" pdel="0" rel="0.1" lshp="0" lpdel="0" hold="0.5" lspd_numerator="4" lspd_denominator="4" att="0" x100="0" lspd="0.1" lspd_syncmode="0" userwavefile=""/>
                  <elcut dec="0.5" ctlenvamt="0" latt="0" sustain="0.5" amt="0" lamt="0" pdel="0" rel="0.1" lshp="0" lpdel="0" hold="0.5" lspd_numerator="4" lspd_denominator="4" att="0" x100="0" lspd="0.1" lspd_syncmode="0" userwavefile=""/>
                  <elres dec="0.5" ctlenvamt="0" latt="0" sustain="0.5" amt="0" lamt="0" pdel="0" rel="0.1" lshp="0" lpdel="0" hold="0.5" lspd_numerator="4" lspd_denominator="4" att="0" x100="0" lspd="0.1" lspd_syncmode="0" userwavefile=""/>
                </eldata>
                <chordcreator chordrange="1" chord-enabled="0" chord="0"/>
                <arpeggiator arptime="200" arptime_syncmode="0" arpmode="0" arptime_numerator="4" arptime_denominator="4" arpdir="0" arpgate="100" arprange="1" arp-enabled="0" arpmiss="0" arp="0" arpcycle="0" arpskip="0"/>
                <midiport inputcontroller="0" fixedoutputnote="-1" writable="0" basevelocity="63" outputprogram="1" outputcontroller="0" fixedinputvelocity="-1" outputchannel="1" fixedoutputvelocity="-1" readable="0" inputchannel="0"/>
                <fxchain numofeffects="0" enabled="0"/>
              </instrumenttrack>
              <pattern name="amen_ride.ds" pos="0" muted="0" type="0" steps="64"/>
              <pattern name="amen_ride.ds" pos="192" muted="0" type="0" steps="64">
                <note key="57" pan="0" pos="48" len="-192" vol="100"/>
                <note key="57" pan="0" pos="144" len="-192" vol="100"/>
                <note key="57" pan="0" pos="240" len="-192" vol="100"/>
                <note key="57" pan="0" pos="336" len="-192" vol="100"/>
                <note key="57" pan="0" pos="432" len="-192" vol="100"/>
                <note key="57" pan="0" pos="528" len="-192" vol="100"/>
                <note key="57" pan="0" pos="624" len="-192" vol="100"/>
                <note key="57" pan="0" pos="720" len="-192" vol="100"/>
              </pattern>
              <pattern name="amen_ride.ds" pos="384" muted="0" type="0" steps="64"/>
              <pattern name="amen_ride.ds" pos="576" muted="0" type="0" steps="16"/>
              <pattern name="amen_ride.ds" pos="768" muted="0" type="0" steps="16"/>
            </track>
            <track name="crash01.ogg" muted="0" type="0" solo="0">
              <instrumenttrack pitchrange="1" pan="0" fxch="0" basenote="45" pitch="0" vol="20" usemasterpitch="1">
                <instrument name="audiofileprocessor">
                  <audiofileprocessor sframe="0" lframe="0" looped="0" interp="1" reversed="0" amp="100" stutter="0" src="drums/crash01.ogg" eframe="1"/>
                </instrument>
                <eldata fcut="1793" ftype="1" fwet="1" fres="0.5">
                  <elvol dec="0.5" ctlenvamt="0" latt="0" sustain="0.5" amt="0" lamt="0" pdel="0" rel="0.1" lshp="0" lpdel="0" hold="0.5" lspd_numerator="4" lspd_denominator="4" att="0" x100="0" lspd="0.1" lspd_syncmode="0" userwavefile=""/>
                  <elcut dec="0.5" ctlenvamt="0" latt="0" sustain="0.5" amt="0" lamt="0" pdel="0" rel="0.1" lshp="0" lpdel="0" hold="0.5" lspd_numerator="4" lspd_denominator="4" att="0" x100="0" lspd="0.1" lspd_syncmode="0" userwavefile=""/>
                  <elres dec="0.5" ctlenvamt="0" latt="0" sustain="0.5" amt="0" lamt="0" pdel="0" rel="0.1" lshp="0" lpdel="0" hold="0.5" lspd_numerator="4" lspd_denominator="4" att="0" x100="0" lspd="0.1" lspd_syncmode="0" userwavefile=""/>
                </eldata>
                <chordcreator chordrange="1" chord-enabled="0" chord="0"/>
                <arpeggiator arptime="200" arptime_syncmode="0" arpmode="0" arptime_numerator="4" arptime_denominator="4" arpdir="0" arpgate="100" arprange="1" arp-enabled="0" arpmiss="0" arp="0" arpcycle="0" arpskip="0"/>
                <midiport inputcontroller="0" fixedoutputnote="-1" writable="0" basevelocity="63" outputprogram="1" outputcontroller="0" fixedinputvelocity="-1" outputchannel="1" fixedoutputvelocity="-1" readable="0" inputchannel="0"/>
                <fxchain numofeffects="0" enabled="0"/>
              </instrumenttrack>
              <pattern name="crash01.ogg" pos="0" muted="0" type="0" steps="64"/>
              <pattern name="crash01.ogg" pos="192" muted="0" type="0" steps="64">
                <note key="57" pan="0" pos="24" len="-192" vol="100"/>
                <note key="57" pan="0" pos="48" len="-192" vol="100"/>
                <note key="57" pan="0" pos="72" len="-192" vol="100"/>
                <note key="57" pan="0" pos="96" len="-192" vol="100"/>
                <note key="57" pan="0" pos="120" len="-192" vol="100"/>
                <note key="57" pan="0" pos="144" len="-192" vol="100"/>
                <note key="57" pan="0" pos="168" len="-192" vol="100"/>
                <note key="57" pan="0" pos="216" len="-192" vol="100"/>
                <note key="57" pan="0" pos="240" len="-192" vol="100"/>
                <note key="57" pan="0" pos="264" len="-192" vol="100"/>
                <note key="57" pan="0" pos="288" len="-192" vol="100"/>
                <note key="57" pan="0" pos="312" len="-192" vol="100"/>
                <note key="57" pan="0" pos="336" len="-192" vol="100"/>
                <note key="57" pan="0" pos="360" len="-192" vol="100"/>
                <note key="57" pan="0" pos="408" len="-192" vol="100"/>
                <note key="57" pan="0" pos="432" len="-192" vol="100"/>
                <note key="57" pan="0" pos="456" len="-192" vol="100"/>
                <note key="57" pan="0" pos="480" len="-192" vol="100"/>
                <note key="57" pan="0" pos="504" len="-192" vol="100"/>
                <note key="57" pan="0" pos="528" len="-192" vol="100"/>
                <note key="57" pan="0" pos="552" len="-192" vol="100"/>
                <note key="57" pan="0" pos="576" len="-192" vol="100"/>
                <note key="57" pan="0" pos="600" len="-192" vol="100"/>
                <note key="57" pan="0" pos="624" len="-192" vol="100"/>
                <note key="57" pan="0" pos="648" len="-192" vol="100"/>
                <note key="57" pan="0" pos="672" len="-192" vol="100"/>
                <note key="57" pan="0" pos="696" len="-192" vol="100"/>
                <note key="57" pan="0" pos="720" len="-192" vol="100"/>
              </pattern>
              <pattern name="crash01.ogg" pos="384" muted="0" type="0" steps="64"/>
              <pattern name="crash01.ogg" pos="576" muted="0" type="0" steps="16"/>
              <pattern name="crash01.ogg" pos="768" muted="0" type="0" steps="16"/>
            </track>
          </trackcontainer>
        </bbtrack>
        <bbtco usestyle="1" name="" pos="768" muted="0" len="6912" color="4286611584"/>
        <bbtco usestyle="1" name="" pos="10752" muted="0" len="6144" color="4286611584"/>
        <bbtco usestyle="1" name="" pos="17664" muted="0" len="1536" color="4286611584"/>
      </track>
      <track name="Clone of Beat/Bassline 4" muted="0" type="1" solo="0">
        <bbtrack/>
        <bbtco usestyle="1" name="" pos="7680" muted="0" len="3072" color="4286611584"/>
      </track>
      <track name="Beat/Bassline 2" muted="0" type="1" solo="0">
        <bbtrack/>
        <bbtco usestyle="1" name="" pos="9216" muted="0" len="7680" color="4286611584"/>
      </track>
      <track name="Beat/Bassline 2" muted="0" type="1" solo="0">
        <bbtrack/>
        <bbtco usestyle="1" name="" pos="7680" muted="0" len="3072" color="4286611584"/>
        <bbtco usestyle="1" name="" pos="12288" muted="0" len="4608" color="4286611584"/>
      </track>
      <track name="Beat/Bassline 3" muted="0" type="1" solo="0">
        <bbtrack/>
        <bbtco usestyle="1" name="" pos="11328" muted="0" len="192" color="4286611584"/>
        <bbtco usestyle="1" name="" pos="7488" muted="0" len="192" color="4286611584"/>
      </track>
      <track name="Arpeggio2" muted="0" type="0" solo="0">
        <instrumenttrack pitchrange="1" pan="-38.400002" fxch="0" basenote="57" pitch="0" vol="87.200005" usemasterpitch="1">
          <instrument name="zynaddsubfx">
            <zynaddsubfx modifiedcontrollers="" portamento="0" filterfreq="64" resbandwidth="64" rescenterfreq="64" filterq="64" bandwidth="64" fmgain="127" forwardmidicc="1">
              <ZynAddSubFX-data version-revision="1" version-minor="4" version-major="2" ZynAddSubFX-author="Nasca Octavian Paul">
                <INFORMATION/>
                <BASE_PARAMETERS>
                  <par value="16" name="max_midi_parts"/>
                  <par value="16" name="max_kit_items_per_instrument"/>
                  <par value="4" name="max_system_effects"/>
                  <par value="8" name="max_insertion_effects"/>
                  <par value="3" name="max_instrument_effects"/>
                  <par value="8" name="max_addsynth_voices"/>
                </BASE_PARAMETERS>
                <MASTER>
                  <par value="80" name="volume"/>
                  <par value="64" name="key_shift"/>
                  <par_bool value="yes" name="nrpn_receive"/>
                  <MICROTONAL>
                    <string name="name">12tET</string>
                    <string name="comment">Equal Temperament 12 notes per octave</string>
                    <par_bool value="no" name="invert_up_down"/>
                    <par value="60" name="invert_up_down_center"/>
                    <par_bool value="no" name="enabled"/>
                    <par value="64" name="global_fine_detune"/>
                    <par value="69" name="a_note"/>
                    <par_real value="440.000000" name="a_freq"/>
                  </MICROTONAL>
                  <PART id="0">
                    <par_bool value="yes" name="enabled"/>
                    <par value="96" name="volume"/>
                    <par value="64" name="panning"/>
                    <par value="0" name="min_key"/>
                    <par value="127" name="max_key"/>
                    <par value="64" name="key_shift"/>
                    <par value="0" name="rcv_chn"/>
                    <par value="64" name="velocity_sensing"/>
                    <par value="64" name="velocity_offset"/>
                    <par_bool value="yes" name="note_on"/>
                    <par_bool value="yes" name="poly_mode"/>
                    <par value="0" name="legato_mode"/>
                    <par value="15" name="key_limit"/>
                    <INSTRUMENT>
                      <INFO>
                        <string name="name">Arpeggio2</string>
                        <string name="author"/>
                        <string name="comments"/>
                        <par value="0" name="type"/>
                      </INFO>
                      <INSTRUMENT_KIT>
                        <par value="0" name="kit_mode"/>
                        <par_bool value="no" name="drum_mode"/>
                        <INSTRUMENT_KIT_ITEM id="0">
                          <par_bool value="yes" name="enabled"/>
                          <string name="name"/>
                          <par_bool value="no" name="muted"/>
                          <par value="0" name="min_key"/>
                          <par value="127" name="max_key"/>
                          <par value="0" name="send_to_instrument_effect"/>
                          <par_bool value="yes" name="add_enabled"/>
                          <ADD_SYNTH_PARAMETERS>
                            <par_bool value="yes" name="stereo"/>
                            <AMPLITUDE_PARAMETERS>
                              <par value="115" name="volume"/>
                              <par value="63" name="panning"/>
                              <par value="87" name="velocity_sensing"/>
                              <par value="37" name="punch_strength"/>
                              <par value="60" name="punch_time"/>
                              <par value="64" name="punch_stretch"/>
                              <par value="72" name="punch_velocity_sensing"/>
                              <par value="0" name="harmonic_randomness_grouping"/>
                              <AMPLITUDE_ENVELOPE>
                                <par_bool value="no" name="free_mode"/>
                                <par value="4" name="env_points"/>
                                <par value="2" name="env_sustain"/>
                                <par value="0" name="env_stretch"/>
                                <par_bool value="yes" name="forced_release"/>
                                <par_bool value="no" name="linear_envelope"/>
                                <par value="0" name="A_dt"/>
                                <par value="22" name="D_dt"/>
                                <par value="84" name="R_dt"/>
                                <par value="64" name="A_val"/>
                                <par value="64" name="D_val"/>
                                <par value="100" name="S_val"/>
                                <par value="64" name="R_val"/>
                              </AMPLITUDE_ENVELOPE>
                              <AMPLITUDE_LFO>
                                <par_real value="0.622047" name="freq"/>
                                <par value="0" name="intensity"/>
                                <par value="64" name="start_phase"/>
                                <par value="0" name="lfo_type"/>
                                <par value="0" name="randomness_amplitude"/>
                                <par value="0" name="randomness_frequency"/>
                                <par value="0" name="delay"/>
                                <par value="64" name="stretch"/>
                                <par_bool value="no" name="continous"/>
                              </AMPLITUDE_LFO>
                            </AMPLITUDE_PARAMETERS>
                            <FREQUENCY_PARAMETERS>
                              <par value="8192" name="detune"/>
                              <par value="15360" name="coarse_detune"/>
                              <par value="1" name="detune_type"/>
                              <par value="64" name="bandwidth"/>
                              <FREQUENCY_ENVELOPE>
                                <par_bool value="no" name="free_mode"/>
                                <par value="3" name="env_points"/>
                                <par value="1" name="env_sustain"/>
                                <par value="0" name="env_stretch"/>
                                <par_bool value="no" name="forced_release"/>
                                <par_bool value="no" name="linear_envelope"/>
                                <par value="50" name="A_dt"/>
                                <par value="10" name="D_dt"/>
                                <par value="60" name="R_dt"/>
                                <par value="64" name="A_val"/>
                                <par value="64" name="D_val"/>
                                <par value="64" name="S_val"/>
                                <par value="64" name="R_val"/>
                              </FREQUENCY_ENVELOPE>
                              <FREQUENCY_LFO>
                                <par_real value="0.527559" name="freq"/>
                                <par value="33" name="intensity"/>
                                <par value="64" name="start_phase"/>
                                <par value="0" name="lfo_type"/>
                                <par value="0" name="randomness_amplitude"/>
                                <par value="0" name="randomness_frequency"/>
                                <par value="0" name="delay"/>
                                <par value="64" name="stretch"/>
                                <par_bool value="no" name="continous"/>
                              </FREQUENCY_LFO>
                            </FREQUENCY_PARAMETERS>
                            <FILTER_PARAMETERS>
                              <par value="3" name="velocity_sensing_amplitude"/>
                              <par value="64" name="velocity_sensing"/>
                              <FILTER>
                                <par value="2" name="category"/>
                                <par value="0" name="type"/>
                                <par value="94" name="freq"/>
                                <par value="43" name="q"/>
                                <par value="1" name="stages"/>
                                <par value="102" name="freq_track"/>
                                <par value="64" name="gain"/>
                              </FILTER>
                              <FILTER_ENVELOPE>
                                <par_bool value="no" name="free_mode"/>
                                <par value="4" name="env_points"/>
                                <par value="2" name="env_sustain"/>
                                <par value="0" name="env_stretch"/>
                                <par_bool value="yes" name="forced_release"/>
                                <par_bool value="no" name="linear_envelope"/>
                                <par value="30" name="A_dt"/>
                                <par value="54" name="D_dt"/>
                                <par value="64" name="R_dt"/>
                                <par value="117" name="A_val"/>
                                <par value="105" name="D_val"/>
                                <par value="64" name="S_val"/>
                                <par value="47" name="R_val"/>
                              </FILTER_ENVELOPE>
                              <FILTER_LFO>
                                <par_real value="0.078740" name="freq"/>
                                <par value="29" name="intensity"/>
                                <par value="64" name="start_phase"/>
                                <par value="0" name="lfo_type"/>
                                <par value="0" name="randomness_amplitude"/>
                                <par value="0" name="randomness_frequency"/>
                                <par value="0" name="delay"/>
                                <par value="64" name="stretch"/>
                                <par_bool value="yes" name="continous"/>
                              </FILTER_LFO>
                            </FILTER_PARAMETERS>
                            <RESONANCE>
                              <par_bool value="no" name="enabled"/>
                            </RESONANCE>
                            <VOICE id="0">
                              <par_bool value="yes" name="enabled"/>
                              <par value="0" name="type"/>
                              <par value="1" name="unison_size"/>
                              <par value="60" name="unison_frequency_spread"/>
                              <par value="64" name="unison_stereo_spread"/>
                              <par value="64" name="unison_vibratto"/>
                              <par value="64" name="unison_vibratto_speed"/>
                              <par value="0" name="unison_invert_phase"/>
                              <par value="127" name="unison_phase_randomness"/>
                              <par value="0" name="delay"/>
                              <par_bool value="yes" name="resonance"/>
                              <par value="-1" name="ext_oscil"/>
                              <par value="-1" name="ext_fm_oscil"/>
                              <par value="64" name="oscil_phase"/>
                              <par value="64" name="oscil_fm_phase"/>
                              <par_bool value="no" name="filter_enabled"/>
                              <par_bool value="no" name="filter_bypass"/>
                              <par value="0" name="fm_enabled"/>
                              <OSCIL>
                                <par value="0" name="harmonic_mag_type"/>
                                <par value="4" name="base_function"/>
                                <par value="38" name="base_function_par"/>
                                <par value="0" name="base_function_modulation"/>
                                <par value="64" name="base_function_modulation_par1"/>
                                <par value="0" name="base_function_modulation_par2"/>
                                <par value="32" name="base_function_modulation_par3"/>
                                <par value="0" name="modulation"/>
                                <par value="64" name="modulation_par1"/>
                                <par value="64" name="modulation_par2"/>
                                <par value="32" name="modulation_par3"/>
                                <par value="102" name="wave_shaping"/>
                                <par value="7" name="wave_shaping_function"/>
                                <par value="0" name="filter_type"/>
                                <par value="64" name="filter_par1"/>
                                <par value="64" name="filter_par2"/>
                                <par value="0" name="filter_before_wave_shaping"/>
                                <par value="0" name="spectrum_adjust_type"/>
                                <par value="31" name="spectrum_adjust_par"/>
                                <par value="0" name="rand"/>
                                <par value="0" name="amp_rand_type"/>
                                <par value="64" name="amp_rand_power"/>
                                <par value="2" name="harmonic_shift"/>
                                <par_bool value="no" name="harmonic_shift_first"/>
                                <par value="0" name="adaptive_harmonics"/>
                                <par value="128" name="adaptive_harmonics_base_frequency"/>
                                <par value="100" name="adaptive_harmonics_power"/>
                                <HARMONICS>
                                  <HARMONIC id="1">
                                    <par value="127" name="mag"/>
                                    <par value="64" name="phase"/>
                                  </HARMONIC>
                                  <HARMONIC id="2">
                                    <par value="120" name="mag"/>
                                    <par value="64" name="phase"/>
                                  </HARMONIC>
                                </HARMONICS>
                              </OSCIL>
                              <AMPLITUDE_PARAMETERS>
                                <par value="0" name="panning"/>
                                <par value="100" name="volume"/>
                                <par_bool value="no" name="volume_minus"/>
                                <par value="127" name="velocity_sensing"/>
                                <par_bool value="no" name="amp_envelope_enabled"/>
                                <par_bool value="no" name="amp_lfo_enabled"/>
                              </AMPLITUDE_PARAMETERS>
                              <FREQUENCY_PARAMETERS>
                                <par_bool value="no" name="fixed_freq"/>
                                <par value="0" name="fixed_freq_et"/>
                                <par value="7645" name="detune"/>
                                <par value="0" name="coarse_detune"/>
                                <par value="0" name="detune_type"/>
                                <par_bool value="no" name="freq_envelope_enabled"/>
                                <par_bool value="no" name="freq_lfo_enabled"/>
                              </FREQUENCY_PARAMETERS>
                            </VOICE>
                            <VOICE id="1">
                              <par_bool value="yes" name="enabled"/>
                              <par value="0" name="type"/>
                              <par value="1" name="unison_size"/>
                              <par value="60" name="unison_frequency_spread"/>
                              <par value="64" name="unison_stereo_spread"/>
                              <par value="64" name="unison_vibratto"/>
                              <par value="64" name="unison_vibratto_speed"/>
                              <par value="0" name="unison_invert_phase"/>
                              <par value="127" name="unison_phase_randomness"/>
                              <par value="0" name="delay"/>
                              <par_bool value="yes" name="resonance"/>
                              <par value="0" name="ext_oscil"/>
                              <par value="-1" name="ext_fm_oscil"/>
                              <par value="66" name="oscil_phase"/>
                              <par value="64" name="oscil_fm_phase"/>
                              <par_bool value="no" name="filter_enabled"/>
                              <par_bool value="no" name="filter_bypass"/>
                              <par value="0" name="fm_enabled"/>
                              <OSCIL>
                                <par value="0" name="harmonic_mag_type"/>
                                <par value="0" name="base_function"/>
                                <par value="64" name="base_function_par"/>
                                <par value="0" name="base_function_modulation"/>
                                <par value="64" name="base_function_modulation_par1"/>
                                <par value="0" name="base_function_modulation_par2"/>
                                <par value="32" name="base_function_modulation_par3"/>
                                <par value="0" name="modulation"/>
                                <par value="64" name="modulation_par1"/>
                                <par value="64" name="modulation_par2"/>
                                <par value="32" name="modulation_par3"/>
                                <par value="64" name="wave_shaping"/>
                                <par value="0" name="wave_shaping_function"/>
                                <par value="0" name="filter_type"/>
                                <par value="64" name="filter_par1"/>
                                <par value="64" name="filter_par2"/>
                                <par value="0" name="filter_before_wave_shaping"/>
                                <par value="0" name="spectrum_adjust_type"/>
                                <par value="64" name="spectrum_adjust_par"/>
                                <par value="64" name="rand"/>
                                <par value="0" name="amp_rand_type"/>
                                <par value="64" name="amp_rand_power"/>
                                <par value="0" name="harmonic_shift"/>
                                <par_bool value="no" name="harmonic_shift_first"/>
                                <par value="0" name="adaptive_harmonics"/>
                                <par value="128" name="adaptive_harmonics_base_frequency"/>
                                <par value="100" name="adaptive_harmonics_power"/>
                                <HARMONICS>
                                  <HARMONIC id="1">
                                    <par value="127" name="mag"/>
                                    <par value="64" name="phase"/>
                                  </HARMONIC>
                                </HARMONICS>
                              </OSCIL>
                              <AMPLITUDE_PARAMETERS>
                                <par value="0" name="panning"/>
                                <par value="100" name="volume"/>
                                <par_bool value="no" name="volume_minus"/>
                                <par value="127" name="velocity_sensing"/>
                                <par_bool value="no" name="amp_envelope_enabled"/>
                                <par_bool value="no" name="amp_lfo_enabled"/>
                              </AMPLITUDE_PARAMETERS>
                              <FREQUENCY_PARAMETERS>
                                <par_bool value="no" name="fixed_freq"/>
                                <par value="0" name="fixed_freq_et"/>
                                <par value="9102" name="detune"/>
                                <par value="0" name="coarse_detune"/>
                                <par value="0" name="detune_type"/>
                                <par_bool value="no" name="freq_envelope_enabled"/>
                                <par_bool value="no" name="freq_lfo_enabled"/>
                              </FREQUENCY_PARAMETERS>
                            </VOICE>
                            <VOICE id="2">
                              <par_bool value="no" name="enabled"/>
                            </VOICE>
                            <VOICE id="3">
                              <par_bool value="no" name="enabled"/>
                            </VOICE>
                            <VOICE id="4">
                              <par_bool value="no" name="enabled"/>
                            </VOICE>
                            <VOICE id="5">
                              <par_bool value="no" name="enabled"/>
                            </VOICE>
                            <VOICE id="6">
                              <par_bool value="no" name="enabled"/>
                            </VOICE>
                            <VOICE id="7">
                              <par_bool value="no" name="enabled"/>
                            </VOICE>
                          </ADD_SYNTH_PARAMETERS>
                          <par_bool value="no" name="sub_enabled"/>
                          <par_bool value="no" name="pad_enabled"/>
                        </INSTRUMENT_KIT_ITEM>
                        <INSTRUMENT_KIT_ITEM id="1">
                          <par_bool value="no" name="enabled"/>
                        </INSTRUMENT_KIT_ITEM>
                        <INSTRUMENT_KIT_ITEM id="2">
                          <par_bool value="no" name="enabled"/>
                        </INSTRUMENT_KIT_ITEM>
                        <INSTRUMENT_KIT_ITEM id="3">
                          <par_bool value="no" name="enabled"/>
                        </INSTRUMENT_KIT_ITEM>
                        <INSTRUMENT_KIT_ITEM id="4">
                          <par_bool value="no" name="enabled"/>
                        </INSTRUMENT_KIT_ITEM>
                        <INSTRUMENT_KIT_ITEM id="5">
                          <par_bool value="no" name="enabled"/>
                        </INSTRUMENT_KIT_ITEM>
                        <INSTRUMENT_KIT_ITEM id="6">
                          <par_bool value="no" name="enabled"/>
                        </INSTRUMENT_KIT_ITEM>
                        <INSTRUMENT_KIT_ITEM id="7">
                          <par_bool value="no" name="enabled"/>
                        </INSTRUMENT_KIT_ITEM>
                        <INSTRUMENT_KIT_ITEM id="8">
                          <par_bool value="no" name="enabled"/>
                        </INSTRUMENT_KIT_ITEM>
                        <INSTRUMENT_KIT_ITEM id="9">
                          <par_bool value="no" name="enabled"/>
                        </INSTRUMENT_KIT_ITEM>
                        <INSTRUMENT_KIT_ITEM id="10">
                          <par_bool value="no" name="enabled"/>
                        </INSTRUMENT_KIT_ITEM>
                        <INSTRUMENT_KIT_ITEM id="11">
                          <par_bool value="no" name="enabled"/>
                        </INSTRUMENT_KIT_ITEM>
                        <INSTRUMENT_KIT_ITEM id="12">
                          <par_bool value="no" name="enabled"/>
                        </INSTRUMENT_KIT_ITEM>
                        <INSTRUMENT_KIT_ITEM id="13">
                          <par_bool value="no" name="enabled"/>
                        </INSTRUMENT_KIT_ITEM>
                        <INSTRUMENT_KIT_ITEM id="14">
                          <par_bool value="no" name="enabled"/>
                        </INSTRUMENT_KIT_ITEM>
                        <INSTRUMENT_KIT_ITEM id="15">
                          <par_bool value="no" name="enabled"/>
                        </INSTRUMENT_KIT_ITEM>
                      </INSTRUMENT_KIT>
                      <INSTRUMENT_EFFECTS>
                        <INSTRUMENT_EFFECT id="0">
                          <EFFECT>
                            <par value="3" name="type"/>
                            <par value="7" name="preset"/>
                            <EFFECT_PARAMETERS>
                              <par_no id="0">
                                <par value="64" name="par"/>
                              </par_no>
                              <par_no id="1">
                                <par value="64" name="par"/>
                              </par_no>
                              <par_no id="2">
                                <par value="53" name="par"/>
                              </par_no>
                              <par_no id="3">
                                <par value="34" name="par"/>
                              </par_no>
                              <par_no id="4">
                                <par value="1" name="par"/>
                              </par_no>
                              <par_no id="5">
                                <par value="94" name="par"/>
                              </par_no>
                              <par_no id="6">
                                <par value="35" name="par"/>
                              </par_no>
                              <par_no id="7">
                                <par value="3" name="par"/>
                              </par_no>
                              <par_no id="8">
                                <par value="54" name="par"/>
                              </par_no>
                              <par_no id="11">
                                <par value="1" name="par"/>
                              </par_no>
                            </EFFECT_PARAMETERS>
                          </EFFECT>
                          <par value="0" name="route"/>
                          <par_bool value="no" name="bypass"/>
                        </INSTRUMENT_EFFECT>
                        <INSTRUMENT_EFFECT id="1">
                          <EFFECT>
                            <par value="1" name="type"/>
                            <par value="0" name="preset"/>
                            <EFFECT_PARAMETERS>
                              <par_no id="0">
                                <par value="40" name="par"/>
                              </par_no>
                              <par_no id="1">
                                <par value="64" name="par"/>
                              </par_no>
                              <par_no id="2">
                                <par value="63" name="par"/>
                              </par_no>
                              <par_no id="3">
                                <par value="24" name="par"/>
                              </par_no>
                              <par_no id="7">
                                <par value="85" name="par"/>
                              </par_no>
                              <par_no id="8">
                                <par value="5" name="par"/>
                              </par_no>
                              <par_no id="9">
                                <par value="83" name="par"/>
                              </par_no>
                              <par_no id="10">
                                <par value="1" name="par"/>
                              </par_no>
                              <par_no id="11">
                                <par value="64" name="par"/>
                              </par_no>
                              <par_no id="12">
                                <par value="20" name="par"/>
                              </par_no>
                            </EFFECT_PARAMETERS>
                          </EFFECT>
                          <par value="0" name="route"/>
                          <par_bool value="no" name="bypass"/>
                        </INSTRUMENT_EFFECT>
                        <INSTRUMENT_EFFECT id="2">
                          <EFFECT>
                            <par value="0" name="type"/>
                          </EFFECT>
                          <par value="0" name="route"/>
                          <par_bool value="no" name="bypass"/>
                        </INSTRUMENT_EFFECT>
                      </INSTRUMENT_EFFECTS>
                    </INSTRUMENT>
                    <CONTROLLER>
                      <par value="100" name="pitchwheel_bendrange"/>
                      <par_bool value="yes" name="expression_receive"/>
                      <par value="64" name="panning_depth"/>
                      <par value="64" name="filter_cutoff_depth"/>
                      <par value="64" name="filter_q_depth"/>
                      <par value="64" name="bandwidth_depth"/>
                      <par value="80" name="mod_wheel_depth"/>
                      <par_bool value="no" name="mod_wheel_exponential"/>
                      <par_bool value="yes" name="fm_amp_receive"/>
                      <par_bool value="yes" name="volume_receive"/>
                      <par_bool value="yes" name="sustain_receive"/>
                      <par_bool value="yes" name="portamento_receive"/>
                      <par value="64" name="portamento_time"/>
                      <par value="3" name="portamento_pitchthresh"/>
                      <par value="1" name="portamento_pitchthreshtype"/>
                      <par value="0" name="portamento_portamento"/>
                      <par value="64" name="portamento_updowntimestretch"/>
                      <par value="0" name="portamento_proportional"/>
                      <par value="80" name="portamento_proprate"/>
                      <par value="90" name="portamento_propdepth"/>
                      <par value="64" name="resonance_center_depth"/>
                      <par value="64" name="resonance_bandwidth_depth"/>
                    </CONTROLLER>
                  </PART>
                  <PART id="1">
                    <par_bool value="no" name="enabled"/>
                  </PART>
                  <PART id="2">
                    <par_bool value="no" name="enabled"/>
                  </PART>
                  <PART id="3">
                    <par_bool value="no" name="enabled"/>
                  </PART>
                  <PART id="4">
                    <par_bool value="no" name="enabled"/>
                  </PART>
                  <PART id="5">
                    <par_bool value="no" name="enabled"/>
                  </PART>
                  <PART id="6">
                    <par_bool value="no" name="enabled"/>
                  </PART>
                  <PART id="7">
                    <par_bool value="no" name="enabled"/>
                  </PART>
                  <PART id="8">
                    <par_bool value="no" name="enabled"/>
                  </PART>
                  <PART id="9">
                    <par_bool value="no" name="enabled"/>
                  </PART>
                  <PART id="10">
                    <par_bool value="no" name="enabled"/>
                  </PART>
                  <PART id="11">
                    <par_bool value="no" name="enabled"/>
                  </PART>
                  <PART id="12">
                    <par_bool value="no" name="enabled"/>
                  </PART>
                  <PART id="13">
                    <par_bool value="no" name="enabled"/>
                  </PART>
                  <PART id="14">
                    <par_bool value="no" name="enabled"/>
                  </PART>
                  <PART id="15">
                    <par_bool value="no" name="enabled"/>
                  </PART>
                  <SYSTEM_EFFECTS>
                    <SYSTEM_EFFECT id="0">
                      <EFFECT>
                        <par value="0" name="type"/>
                      </EFFECT>
                      <VOLUME id="0">
                        <par value="0" name="vol"/>
                      </VOLUME>
                      <VOLUME id="1">
                        <par value="0" name="vol"/>
                      </VOLUME>
                      <VOLUME id="2">
                        <par value="0" name="vol"/>
                      </VOLUME>
                      <VOLUME id="3">
                        <par value="0" name="vol"/>
                      </VOLUME>
                      <VOLUME id="4">
                        <par value="0" name="vol"/>
                      </VOLUME>
                      <VOLUME id="5">
                        <par value="0" name="vol"/>
                      </VOLUME>
                      <VOLUME id="6">
                        <par value="0" name="vol"/>
                      </VOLUME>
                      <VOLUME id="7">
                        <par value="0" name="vol"/>
                      </VOLUME>
                      <VOLUME id="8">
                        <par value="0" name="vol"/>
                      </VOLUME>
                      <VOLUME id="9">
                        <par value="0" name="vol"/>
                      </VOLUME>
                      <VOLUME id="10">
                        <par value="0" name="vol"/>
                      </VOLUME>
                      <VOLUME id="11">
                        <par value="0" name="vol"/>
                      </VOLUME>
                      <VOLUME id="12">
                        <par value="0" name="vol"/>
                      </VOLUME>
                      <VOLUME id="13">
                        <par value="0" name="vol"/>
                      </VOLUME>
                      <VOLUME id="14">
                        <par value="0" name="vol"/>
                      </VOLUME>
                      <VOLUME id="15">
                        <par value="0" name="vol"/>
                      </VOLUME>
                      <SENDTO id="1">
                        <par value="0" name="send_vol"/>
                      </SENDTO>
                      <SENDTO id="2">
                        <par value="0" name="send_vol"/>
                      </SENDTO>
                      <SENDTO id="3">
                        <par value="0" name="send_vol"/>
                      </SENDTO>
                    </SYSTEM_EFFECT>
                    <SYSTEM_EFFECT id="1">
                      <EFFECT>
                        <par value="0" name="type"/>
                      </EFFECT>
                      <VOLUME id="0">
                        <par value="0" name="vol"/>
                      </VOLUME>
                      <VOLUME id="1">
                        <par value="0" name="vol"/>
                      </VOLUME>
                      <VOLUME id="2">
                        <par value="0" name="vol"/>
                      </VOLUME>
                      <VOLUME id="3">
                        <par value="0" name="vol"/>
                      </VOLUME>
                      <VOLUME id="4">
                        <par value="0" name="vol"/>
                      </VOLUME>
                      <VOLUME id="5">
                        <par value="0" name="vol"/>
                      </VOLUME>
                      <VOLUME id="6">
                        <par value="0" name="vol"/>
                      </VOLUME>
                      <VOLUME id="7">
                        <par value="0" name="vol"/>
                      </VOLUME>
                      <VOLUME id="8">
                        <par value="0" name="vol"/>
                      </VOLUME>
                      <VOLUME id="9">
                        <par value="0" name="vol"/>
                      </VOLUME>
                      <VOLUME id="10">
                        <par value="0" name="vol"/>
                      </VOLUME>
                      <VOLUME id="11">
                        <par value="0" name="vol"/>
                      </VOLUME>
                      <VOLUME id="12">
                        <par value="0" name="vol"/>
                      </VOLUME>
                      <VOLUME id="13">
                        <par value="0" name="vol"/>
                      </VOLUME>
                      <VOLUME id="14">
                        <par value="0" name="vol"/>
                      </VOLUME>
                      <VOLUME id="15">
                        <par value="0" name="vol"/>
                      </VOLUME>
                      <SENDTO id="2">
                        <par value="0" name="send_vol"/>
                      </SENDTO>
                      <SENDTO id="3">
                        <par value="0" name="send_vol"/>
                      </SENDTO>
                    </SYSTEM_EFFECT>
                    <SYSTEM_EFFECT id="2">
                      <EFFECT>
                        <par value="0" name="type"/>
                      </EFFECT>
                      <VOLUME id="0">
                        <par value="0" name="vol"/>
                      </VOLUME>
                      <VOLUME id="1">
                        <par value="0" name="vol"/>
                      </VOLUME>
                      <VOLUME id="2">
                        <par value="0" name="vol"/>
                      </VOLUME>
                      <VOLUME id="3">
                        <par value="0" name="vol"/>
                      </VOLUME>
                      <VOLUME id="4">
                        <par value="0" name="vol"/>
                      </VOLUME>
                      <VOLUME id="5">
                        <par value="0" name="vol"/>
                      </VOLUME>
                      <VOLUME id="6">
                        <par value="0" name="vol"/>
                      </VOLUME>
                      <VOLUME id="7">
                        <par value="0" name="vol"/>
                      </VOLUME>
                      <VOLUME id="8">
                        <par value="0" name="vol"/>
                      </VOLUME>
                      <VOLUME id="9">
                        <par value="0" name="vol"/>
                      </VOLUME>
                      <VOLUME id="10">
                        <par value="0" name="vol"/>
                      </VOLUME>
                      <VOLUME id="11">
                        <par value="0" name="vol"/>
                      </VOLUME>
                      <VOLUME id="12">
                        <par value="0" name="vol"/>
                      </VOLUME>
                      <VOLUME id="13">
                        <par value="0" name="vol"/>
                      </VOLUME>
                      <VOLUME id="14">
                        <par value="0" name="vol"/>
                      </VOLUME>
                      <VOLUME id="15">
                        <par value="0" name="vol"/>
                      </VOLUME>
                      <SENDTO id="3">
                        <par value="0" name="send_vol"/>
                      </SENDTO>
                    </SYSTEM_EFFECT>
                    <SYSTEM_EFFECT id="3">
                      <EFFECT>
                        <par value="0" name="type"/>
                      </EFFECT>
                      <VOLUME id="0">
                        <par value="0" name="vol"/>
                      </VOLUME>
                      <VOLUME id="1">
                        <par value="0" name="vol"/>
                      </VOLUME>
                      <VOLUME id="2">
                        <par value="0" name="vol"/>
                      </VOLUME>
                      <VOLUME id="3">
                        <par value="0" name="vol"/>
                      </VOLUME>
                      <VOLUME id="4">
                        <par value="0" name="vol"/>
                      </VOLUME>
                      <VOLUME id="5">
                        <par value="0" name="vol"/>
                      </VOLUME>
                      <VOLUME id="6">
                        <par value="0" name="vol"/>
                      </VOLUME>
                      <VOLUME id="7">
                        <par value="0" name="vol"/>
                      </VOLUME>
                      <VOLUME id="8">
                        <par value="0" name="vol"/>
                      </VOLUME>
                      <VOLUME id="9">
                        <par value="0" name="vol"/>
                      </VOLUME>
                      <VOLUME id="10">
                        <par value="0" name="vol"/>
                      </VOLUME>
                      <VOLUME id="11">
                        <par value="0" name="vol"/>
                      </VOLUME>
                      <VOLUME id="12">
                        <par value="0" name="vol"/>
                      </VOLUME>
                      <VOLUME id="13">
                        <par value="0" name="vol"/>
                      </VOLUME>
                      <VOLUME id="14">
                        <par value="0" name="vol"/>
                      </VOLUME>
                      <VOLUME id="15">
                        <par value="0" name="vol"/>
                      </VOLUME>
                    </SYSTEM_EFFECT>
                  </SYSTEM_EFFECTS>
                  <INSERTION_EFFECTS>
                    <INSERTION_EFFECT id="0">
                      <par value="-1" name="part"/>
                      <EFFECT>
                        <par value="0" name="type"/>
                      </EFFECT>
                    </INSERTION_EFFECT>
                    <INSERTION_EFFECT id="1">
                      <par value="-1" name="part"/>
                      <EFFECT>
                        <par value="0" name="type"/>
                      </EFFECT>
                    </INSERTION_EFFECT>
                    <INSERTION_EFFECT id="2">
                      <par value="-1" name="part"/>
                      <EFFECT>
                        <par value="0" name="type"/>
                      </EFFECT>
                    </INSERTION_EFFECT>
                    <INSERTION_EFFECT id="3">
                      <par value="-1" name="part"/>
                      <EFFECT>
                        <par value="0" name="type"/>
                      </EFFECT>
                    </INSERTION_EFFECT>
                    <INSERTION_EFFECT id="4">
                      <par value="-1" name="part"/>
                      <EFFECT>
                        <par value="0" name="type"/>
                      </EFFECT>
                    </INSERTION_EFFECT>
                    <INSERTION_EFFECT id="5">
                      <par value="-1" name="part"/>
                      <EFFECT>
                        <par value="0" name="type"/>
                      </EFFECT>
                    </INSERTION_EFFECT>
                    <INSERTION_EFFECT id="6">
                      <par value="-1" name="part"/>
                      <EFFECT>
                        <par value="0" name="type"/>
                      </EFFECT>
                    </INSERTION_EFFECT>
                    <INSERTION_EFFECT id="7">
                      <par value="-1" name="part"/>
                      <EFFECT>
                        <par value="0" name="type"/>
                      </EFFECT>
                    </INSERTION_EFFECT>
                  </INSERTION_EFFECTS>
                </MASTER>
              </ZynAddSubFX-data>
            </zynaddsubfx>
          </instrument>
          <eldata fcut="14000" ftype="0" fwet="0" fres="0.5">
            <elvol dec="0.5" ctlenvamt="0" latt="0" sustain="0.5" amt="0" lamt="0" pdel="0" rel="0.1" lshp="0" lpdel="0" hold="0.5" lspd_numerator="4" lspd_denominator="4" att="0" x100="0" lspd="0.1" lspd_syncmode="0" userwavefile=""/>
            <elcut dec="0.5" ctlenvamt="0" latt="0" sustain="0.5" amt="0" lamt="0" pdel="0" rel="0.1" lshp="0" lpdel="0" hold="0.5" lspd_numerator="4" lspd_denominator="4" att="0" x100="0" lspd="0.1" lspd_syncmode="0" userwavefile=""/>
            <elres dec="0.5" ctlenvamt="0" latt="0" sustain="0.5" amt="0" lamt="0" pdel="0" rel="0.1" lshp="0" lpdel="0" hold="0.5" lspd_numerator="4" lspd_denominator="4" att="0" x100="0" lspd="0.1" lspd_syncmode="0" userwavefile=""/>
          </eldata>
          <chordcreator chordrange="1" chord-enabled="0" chord="0"/>
          <arpeggiator arptime="200" arptime_syncmode="0" arpmode="0" arptime_numerator="4" arptime_denominator="4" arpdir="0" arpgate="100" arprange="1" arp-enabled="0" arpmiss="0" arp="0" arpcycle="0" arpskip="0"/>
          <midiport inputcontroller="0" fixedoutputnote="-1" writable="0" basevelocity="63" outputprogram="1" outputcontroller="0" fixedinputvelocity="-1" outputchannel="1" fixedoutputvelocity="-1" readable="0" inputchannel="0"/>
          <fxchain numofeffects="0" enabled="0"/>
        </instrumenttrack>
        <pattern name="Arpeggio2" pos="768" muted="0" type="1" steps="16">
          <note key="43" pan="0" pos="24" len="192" vol="123"/>
          <note key="43" pan="0" pos="216" len="192" vol="123"/>
          <note key="43" pan="0" pos="408" len="192" vol="123"/>
          <note key="43" pan="0" pos="600" len="168" vol="123"/>
        </pattern>
        <pattern name="" pos="1536" muted="0" type="1" steps="16">
          <note key="43" pan="0" pos="24" len="192" vol="123"/>
          <note key="43" pan="0" pos="216" len="192" vol="123"/>
          <note key="43" pan="0" pos="408" len="192" vol="123"/>
          <note key="43" pan="0" pos="600" len="168" vol="123"/>
        </pattern>
        <pattern name="" pos="2304" muted="0" type="1" steps="16">
          <note key="43" pan="0" pos="24" len="192" vol="123"/>
          <note key="43" pan="0" pos="216" len="192" vol="123"/>
          <note key="43" pan="0" pos="408" len="192" vol="123"/>
          <note key="43" pan="0" pos="600" len="168" vol="123"/>
        </pattern>
        <pattern name="" pos="3072" muted="0" type="1" steps="16">
          <note key="43" pan="0" pos="24" len="192" vol="123"/>
          <note key="43" pan="0" pos="216" len="192" vol="123"/>
          <note key="43" pan="0" pos="408" len="192" vol="123"/>
          <note key="43" pan="0" pos="600" len="168" vol="123"/>
        </pattern>
        <pattern name="" pos="3840" muted="0" type="1" steps="16">
          <note key="43" pan="0" pos="24" len="192" vol="123"/>
          <note key="43" pan="0" pos="216" len="192" vol="123"/>
          <note key="43" pan="0" pos="408" len="192" vol="123"/>
          <note key="43" pan="0" pos="600" len="168" vol="123"/>
        </pattern>
        <pattern name="" pos="4608" muted="0" type="1" steps="16">
          <note key="43" pan="0" pos="24" len="192" vol="123"/>
          <note key="43" pan="0" pos="216" len="192" vol="123"/>
          <note key="43" pan="0" pos="408" len="192" vol="123"/>
          <note key="43" pan="0" pos="600" len="168" vol="123"/>
        </pattern>
        <pattern name="" pos="5376" muted="0" type="1" steps="16">
          <note key="43" pan="0" pos="24" len="192" vol="123"/>
          <note key="43" pan="0" pos="216" len="192" vol="123"/>
          <note key="43" pan="0" pos="408" len="192" vol="123"/>
          <note key="43" pan="0" pos="600" len="168" vol="123"/>
        </pattern>
        <pattern name="" pos="6144" muted="0" type="1" steps="16">
          <note key="43" pan="0" pos="24" len="192" vol="123"/>
          <note key="43" pan="0" pos="216" len="192" vol="123"/>
          <note key="43" pan="0" pos="408" len="192" vol="123"/>
          <note key="43" pan="0" pos="600" len="168" vol="123"/>
        </pattern>
        <pattern name="" pos="6912" muted="0" type="1" steps="16">
          <note key="43" pan="0" pos="24" len="192" vol="123"/>
          <note key="43" pan="0" pos="216" len="192" vol="123"/>
          <note key="43" pan="0" pos="408" len="192" vol="123"/>
          <note key="43" pan="0" pos="600" len="168" vol="123"/>
        </pattern>
        <pattern name="" pos="7680" muted="0" type="1" steps="16">
          <note key="43" pan="0" pos="24" len="192" vol="123"/>
          <note key="43" pan="0" pos="216" len="192" vol="123"/>
          <note key="43" pan="0" pos="408" len="192" vol="123"/>
          <note key="43" pan="0" pos="600" len="168" vol="123"/>
        </pattern>
        <pattern name="" pos="8448" muted="0" type="1" steps="16">
          <note key="43" pan="0" pos="24" len="192" vol="123"/>
          <note key="43" pan="0" pos="216" len="192" vol="123"/>
          <note key="43" pan="0" pos="408" len="192" vol="123"/>
          <note key="43" pan="0" pos="600" len="168" vol="123"/>
        </pattern>
        <pattern name="" pos="9216" muted="0" type="1" steps="16">
          <note key="43" pan="0" pos="24" len="192" vol="123"/>
          <note key="43" pan="0" pos="216" len="192" vol="123"/>
          <note key="43" pan="0" pos="408" len="192" vol="123"/>
          <note key="43" pan="0" pos="600" len="168" vol="123"/>
        </pattern>
        <pattern name="" pos="9984" muted="0" type="1" steps="16">
          <note key="43" pan="0" pos="24" len="192" vol="123"/>
          <note key="43" pan="0" pos="216" len="192" vol="123"/>
          <note key="43" pan="0" pos="408" len="192" vol="123"/>
          <note key="43" pan="0" pos="600" len="168" vol="123"/>
        </pattern>
        <pattern name="" pos="10752" muted="0" type="1" steps="16">
          <note key="43" pan="0" pos="24" len="192" vol="123"/>
          <note key="43" pan="0" pos="216" len="192" vol="123"/>
          <note key="43" pan="0" pos="408" len="192" vol="123"/>
          <note key="43" pan="0" pos="600" len="168" vol="123"/>
        </pattern>
        <pattern name="" pos="11520" muted="0" type="1" steps="16">
          <note key="43" pan="0" pos="24" len="192" vol="123"/>
          <note key="43" pan="0" pos="216" len="192" vol="123"/>
          <note key="43" pan="0" pos="408" len="192" vol="123"/>
          <note key="43" pan="0" pos="600" len="168" vol="123"/>
        </pattern>
        <pattern name="" pos="12288" muted="0" type="1" steps="16">
          <note key="43" pan="0" pos="24" len="192" vol="123"/>
          <note key="43" pan="0" pos="216" len="192" vol="123"/>
          <note key="43" pan="0" pos="408" len="192" vol="123"/>
          <note key="43" pan="0" pos="600" len="168" vol="123"/>
        </pattern>
        <pattern name="" pos="13056" muted="0" type="1" steps="16">
          <note key="43" pan="0" pos="24" len="192" vol="123"/>
          <note key="43" pan="0" pos="216" len="192" vol="123"/>
          <note key="43" pan="0" pos="408" len="192" vol="123"/>
          <note key="43" pan="0" pos="600" len="168" vol="123"/>
        </pattern>
        <pattern name="" pos="13824" muted="0" type="1" steps="16">
          <note key="43" pan="0" pos="24" len="192" vol="123"/>
          <note key="43" pan="0" pos="216" len="192" vol="123"/>
          <note key="43" pan="0" pos="408" len="192" vol="123"/>
          <note key="43" pan="0" pos="600" len="168" vol="123"/>
        </pattern>
        <pattern name="" pos="14592" muted="0" type="1" steps="16">
          <note key="43" pan="0" pos="24" len="192" vol="123"/>
          <note key="43" pan="0" pos="216" len="192" vol="123"/>
          <note key="43" pan="0" pos="408" len="192" vol="123"/>
          <note key="43" pan="0" pos="600" len="168" vol="123"/>
        </pattern>
        <pattern name="" pos="15360" muted="0" type="1" steps="16">
          <note key="43" pan="0" pos="24" len="192" vol="123"/>
          <note key="43" pan="0" pos="216" len="192" vol="123"/>
          <note key="43" pan="0" pos="408" len="192" vol="123"/>
          <note key="43" pan="0" pos="600" len="168" vol="123"/>
        </pattern>
        <pattern name="" pos="16128" muted="0" type="1" steps="16">
          <note key="43" pan="0" pos="24" len="192" vol="123"/>
          <note key="43" pan="0" pos="216" len="192" vol="123"/>
          <note key="43" pan="0" pos="408" len="192" vol="123"/>
          <note key="43" pan="0" pos="600" len="168" vol="123"/>
        </pattern>
        <pattern name="" pos="16896" muted="0" type="1" steps="16">
          <note key="45" pan="0" pos="0" len="24" vol="100"/>
        </pattern>
      </track>
      <track name="Pulse" muted="0" type="0" solo="0">
        <instrumenttrack pitchrange="1" pan="46.400002" fxch="0" basenote="57" pitch="0" vol="61.400002" usemasterpitch="1">
          <instrument name="watsyn">
            <watsyn xtalk="22.6" b1_wave="AACAvzisfb9wWHu/qAR5v9+wdr8XXXS/Twlyv4e1b7+/YW2/9w1rvy66aL9mZma/nhJkv9a+Yb8Oa1+/Rhddv37DWr9cj8K+yXa+vjZeur6iRba+Dy2yvnwUrr4qXI++ksJ1vs7MTL6wR+G90MzMvfBRuL0Q16O9SsYJviwmLb4OhlC+8OVzvumii77aUp2+zAKvvryywL6uYtK+nxLkvicxCL8GgRW/5tAiv8UgML+DwEq/YhBYv0JgZb8hsHK/AACAvwAAgL8AAIC/kMJ1v3oUDr/0KNy+9Cicvu7ubr75xZK+UBtovlAb6L0A16O8ANcjvcTMzL0kXA++6FE4vqxHYb63HoW+mJmZvnoUrr5cj8K+PQrXvh6F674RERG/IyIivzQzM7/MzEy/SOF6v0jher9I4Xq/2kAnv6qqKr/gehS/jsL1vlyPwr4oXI++6FE4vgjXo70Q16M8kML1Pa5HYT4K16M+PQrXPgrX4z6jcL0+PAqXPqxHYT7fehQ+JFyPPcL1KD8K1yM/UrgeP5mZGT/hehQ/KFwPP3A9Cj+4HgU/////Po7C9T4ehes+EFBuPq5iUj5MdTY+6ocaPhI1/T1QWsU9jH+NPZJJKz0wUG48cD2Kvihcj77gepS+OW2gvttAp75nZqa+UrievgQT/T4ubww/2FQaP4Q6KD8vIDY/2gVEP4XrUT/2KFw/9ihcP+xRWD/ielQ/16NQP83MTD/D9Ug/uB5FP65HQT+kcD0/mpk5P5DCNT9P+iQ/3P4gP2kDHT/2Bxk/hAwVPxERET+eFQ0/HoXrPh6F6z4ehes+2mHqPiQB3z5toNM+tz/IPgHfvD5KfrE+lB2mPt68mj5cj8K+pHC9vquqqr5rA52+KlyPvum0gb5RG2i+WPsGPyBPCT/oogs/sPYNP3pKED9CnhI/CvIUP9JFFz+amRk/Yu0bPypBHj/ylCA/uugiP4I8JT9KkCc/EuQpP9o3LD+iiy4/bN8wPzQzMz/8hjU/xNo3P4wuOj9Ugjw/HNY+P+QpQT+sfUM/dNFFPzwlSD8EeUo/zMxMP5QgTz9edFE/JshTP+4bVj+2b1g/fsNaP0YXXT8Oa18/1r5hP54SZD9mZmY/LrpoP/YNaz++YW0/hrVvP1AJcj8YXXQ/4LB2P6gEeT9wWHs/OKx9Pw==" envAtt_denominator="4" envAtt_syncmode="0" abmix="-83.900002" a1_mult="8" envAtt_numerator="4" b1_vol="100" a2_vol="100" envHold_syncmode="0" b1_rtune="0" envDec="2000" envAtt="342" a2_pan="0" a2_wave="AACAvzisfb9wWHu/qAR5v9+wdr8XXXS/Twlyv4e1b7+/YW2/9w1rvy66aL9mZma/nhJkv9a+Yb8Oa1+/Rhddv37DWr+2b1i/7htWvyXIU79ddFG/lSBPv83MTL8FeUq/PCVIv3TRRb+sfUO/5ClBvxzWPr9Ugjy/jC46v8TaN7/8hjW/MzMzv2vfML+jiy6/2zcsvxLkKb9KkCe/gjwlv7roIr/ylCC/KkEev2LtG7+amRm/0kUXvwryFL9BnhK/eUoQv7H2Db/oogu/IE8Jv1j7Br+QpwS/yFMCvwAAAL9wWPu+4LD2vlAJ8r6+Ye2+Lrrovp4S5L4Oa9++fsPavu4b1r5edNG+zMzMvjwlyL6sfcO+HNa+vowuur78hrW+bN+wvto3rL5KkKe+uuiivipBnr6amZm+CvKUvnpKkL7ooou+WPuGvshTgr5wWHu+UAlyvjC6aL4Ma1++7BtWvszMTL6sfUO+jC46vmzfML5MkCe+KEEevgjyFL7oogu+yFMCvlAJ8r0Qa9+90MzMvYguur1IkKe9CPKUvchTgr0Qa1+9kC46vRDyFL0Aa9+8APKUvADyFLwAAAAAAPIUPADylDwAa988APIUPYAuOj0Aa1890FOCPRDylD1QkKc9kC66PdDMzD0Qa989UAnyPchTAj7oogs+CPIUPihBHj5IkCc+aN8wPoguOj6wfUM+0MxMPvAbVj4Qa18+MLpoPlAJcj5wWHs+yFOCPlj7hj7ooos+eEqQPgjylD6YmZk+KEGePrzooj5MkKc+3DesPmzfsD78hrU+jC66PhzWvj6sfcM+PCXIPszMzD5cdNE+7BvWPnzD2j4Ma98+oBLkPjC66D7AYe0+UAnyPuCw9j5wWPs+AAAAP8hTAj+QpwQ/WPsGPyBPCT/oogs/sPYNP3pKED9CnhI/CvIUP9JFFz+amRk/Yu0bPypBHj/ylCA/uugiP4I8JT9KkCc/EuQpP9o3LD+iiy4/bN8wPzQzMz/8hjU/xNo3P4wuOj9Ugjw/HNY+P+QpQT+sfUM/dNFFPzwlSD8EeUo/zMxMP5QgTz9edFE/JshTP+4bVj+2b1g/fsNaP0YXXT8Oa18/1r5hP54SZD9mZmY/LrpoP/YNaz++YW0/hrVvP1AJcj8YXXQ/4LB2P6gEeT9wWHs/OKx9Pw==" b2_ltune="0" a1_ltune="1" a2_mult="8" b2_pan="0" b2_rtune="0" envHold="2000" amod="2" bmod="3" b2_wave="AACAvzisfb9wWHu/qAR5v9+wdr8XXXS/Twlyv4e1b7+/YW2/9w1rvy66aL9mZma/nhJkv9a+Yb8Oa1+/Rhddv37DWr+2b1i/7htWvyXIU79ddFG/lSBPv83MTL8FeUq/PCVIv3TRRb+sfUO/5ClBvxzWPr9Ugjy/jC46v8TaN7/8hjW/MzMzv2vfML+jiy6/2zcsvxLkKb9KkCe/gjwlv7roIr/ylCC/KkEev2LtG7+amRm/0kUXvwryFL9BnhK/eUoQv7H2Db/oogu/IE8Jv1j7Br+QpwS/yFMCvwAAAL9wWPu+4LD2vlAJ8r6+Ye2+Lrrovp4S5L4Oa9++fsPavu4b1r5edNG+zMzMvjwlyL6sfcO+HNa+vowuur78hrW+bN+wvto3rL5KkKe+uuiivipBnr6amZm+CvKUvnpKkL7ooou+WPuGvshTgr5wWHu+UAlyvjC6aL4Ma1++7BtWvszMTL6sfUO+jC46vmzfML5MkCe+KEEevgjyFL7oogu+yFMCvlAJ8r0Qa9+90MzMvYguur1IkKe9CPKUvchTgr0Qa1+9kC46vRDyFL0Aa9+8APKUvADyFLwAAAAAAPIUPADylDwAa988APIUPYAuOj0Aa1890FOCPRDylD1QkKc9kC66PdDMzD0Qa989UAnyPchTAj7oogs+CPIUPihBHj5IkCc+aN8wPoguOj6wfUM+0MxMPvAbVj4Qa18+MLpoPlAJcj5wWHs+yFOCPlj7hj7ooos+eEqQPgjylD6YmZk+KEGePrzooj5MkKc+3DesPmzfsD78hrU+jC66PhzWvj6sfcM+PCXIPszMzD5cdNE+7BvWPnzD2j4Ma98+oBLkPjC66D7AYe0+UAnyPuCw9j5wWPs+AAAAP8hTAj+QpwQ/WPsGPyBPCT/oogs/sPYNP3pKED9CnhI/CvIUP9JFFz+amRk/Yu0bPypBHj/ylCA/uugiP4I8JT9KkCc/EuQpP9o3LD+iiy4/bN8wPzQzMz/8hjU/xNo3P4wuOj9Ugjw/HNY+P+QpQT+sfUM/dNFFPzwlSD8EeUo/zMxMP5QgTz9edFE/JshTP+4bVj+2b1g/fsNaP0YXXT8Oa18/1r5hP54SZD9mZmY/LrpoP/YNaz++YW0/hrVvP1AJcj8YXXQ/4LB2P6gEeT9wWHs/OKx9Pw==" envAmt="200" a1_wave="AACAvzisfb9wWHu/qAR5v9+wdr8XXXS/Twlyv4e1b7+/YW2/9w1rvy66aL9mZma/nhJkv9a+Yb8Oa1+/Rhddv37DWr+2b1i/7htWvyXIU79ddFG/lSBPv83MTL8FeUq/PCVIv3TRRb+sfUO/5ClBvxzWPr9Ugjy/jC46v8TaN7/8hjW/MzMzv2vfML+jiy6/2zcsvxLkKb9KkCe/gjwlvwDXozwA16M8ANejPADXozw6YOU8unQTPVY5ND3z/VQ9SMaJPUmrmD1KkKc9S3W2PUxaxT1MP9Q9TSTjPU4J8j0ndwA+qOkHPuF6FD6amRk+U7gePqyqKj5MfjE+7FE4PowlPz4s+UU+nTZQPm2gUz4+Clc+zMxMPszMTD7MzEw+zMxMPlyPQj7rUTg+ehQuPgnXIz6ZmRk+KFwPPihcDz4oXA8+KFwPPoiICD7otAE+jsL1PU4b6D0NdNo9zMzMPYwlvz1LfrE9CtejPckvlj2JiIg9D2tfPY4TST0MvDI9imQcPQkNBj0Pa988DLyyPAkNhjwMvDI8DLyyOwB0WrsAdNq7ANcjvAB0WryAiIi8VQu2vKo/yLwAdNq8VajsvKrc/ryAiAi9q6IRvdW8Gr0q8Sy9VQs2vYAlP72qP0i91VlRvQB0Wr0rjmO9gMJ1vYDCdb2AwnW9gMJ1vYDCdb2AwnW9gMJ1vQDXI70A1yO9ANcjvQDXo7yQwnU9iyW/PQ102j1QG+g96LQBPiRJEj4gNhU+HCMYPhgQGz4U/R0+EOogPjttID5rAx0+mpkZPskvFj75xRI+ov4NPhuhDD6VQws+DuYJPoiICD4CKwc+e80FPvVvBD5uEgM+6LQBPmJXAD628/09qjj7PZ19+D2iDuo9tFrePcWm0j3X8sY96T67PfqKrz0M16M9HiOYPTBvjD2QwnU9Q2BlPfb9VD2qm0Q9XTk0PSpBHj/ylCA/uugiP4I8JT9KkCc/EuQpP9o3LD+iiy4/bN8wPzQzMz/8hjU/xNo3P4wuOj9Ugjw/HNY+P+QpQT+sfUM/dNFFPzwlSD8EeUo/zMxMP5QgTz9edFE/JshTP+4bVj+2b1g/fsNaP0YXXT8Oa18/1r5hP54SZD9mZmY/LrpoP/YNaz++YW0/hrVvP1AJcj8YXXQ/4LB2P6gEeT9wWHs/OKx9Pw==" b1_mult="8" a2_ltune="0" b2_mult="8" b2_vol="100" a1_pan="0" envDec_denominator="4" a1_vol="100" b1_pan="0" a2_rtune="0" envDec_syncmode="0" envHold_numerator="4" envDec_numerator="4" b1_ltune="1" a1_rtune="1" envHold_denominator="4"/>
          </instrument>
          <eldata fcut="2498" ftype="4" fwet="1" fres="2.98">
            <elvol dec="0.5" ctlenvamt="0" latt="0.215" sustain="0.5" amt="0" lamt="0.72500002" pdel="0" rel="0.1" lshp="2" lpdel="0" hold="0.5" lspd_numerator="4" lspd_denominator="4" att="0" x100="0" lspd="0.020689655" lspd_syncmode="4" userwavefile=""/>
            <elcut dec="0.5" ctlenvamt="0" latt="0.243" sustain="0.5" amt="0" lamt="0" pdel="0" rel="0.1" lshp="2" lpdel="0" hold="0.5" lspd_numerator="4" lspd_denominator="4" att="0" x100="0" lspd="0.020689655" lspd_syncmode="4" userwavefile=""/>
            <elres dec="0.5" ctlenvamt="0" latt="0" sustain="0.5" amt="0" lamt="0" pdel="0" rel="0.1" lshp="0" lpdel="0" hold="0.5" lspd_numerator="4" lspd_denominator="4" att="0" x100="0" lspd="0.1" lspd_syncmode="0" userwavefile=""/>
          </eldata>
          <chordcreator chordrange="1" chord-enabled="0" chord="0"/>
          <arpeggiator arptime="100" arptime_syncmode="0" arpmode="0" arptime_numerator="4" arptime_denominator="4" arpdir="0" arpgate="100" arprange="1" arp-enabled="0" arpmiss="0" arp="0" arpcycle="0" arpskip="0"/>
          <midiport inputcontroller="0" fixedoutputnote="-1" writable="0" basevelocity="63" outputprogram="1" outputcontroller="0" fixedinputvelocity="-1" outputchannel="1" fixedoutputvelocity="-1" readable="0" inputchannel="0"/>
          <fxchain numofeffects="1" enabled="1">
            <effect gate="0" on="1" autoquit_syncmode="0" autoquit="8000" name="ladspaeffect" autoquit_numerator="4" wet="1" autoquit_denominator="4">
              <ladspacontrols ports="4">
                <port02 data="0.80017"/>
                <port03 data="0.37450001"/>
                <port04 data="0.24987499"/>
                <port05 data="0.2825"/>
              </ladspacontrols>
              <key>
                <attribute value="caps" name="file"/>
                <attribute value="Plate2x2" name="plugin"/>
              </key>
            </effect>
          </fxchain>
        </instrumenttrack>
        <pattern name="Pulse" pos="3072" muted="0" type="1" steps="16">
          <note key="45" pan="0" pos="0" len="24" vol="123"/>
          <note key="43" pan="0" pos="24" len="24" vol="123"/>
          <note key="45" pan="0" pos="48" len="24" vol="123"/>
          <note key="40" pan="0" pos="72" len="12" vol="123"/>
          <note key="40" pan="0" pos="96" len="24" vol="123"/>
          <note key="45" pan="0" pos="120" len="24" vol="123"/>
          <note key="45" pan="0" pos="144" len="24" vol="123"/>
          <note key="43" pan="0" pos="168" len="24" vol="123"/>
          <note key="45" pan="0" pos="192" len="24" vol="123"/>
          <note key="43" pan="0" pos="216" len="24" vol="123"/>
          <note key="45" pan="0" pos="240" len="24" vol="123"/>
          <note key="40" pan="0" pos="264" len="12" vol="123"/>
          <note key="40" pan="0" pos="288" len="24" vol="123"/>
          <note key="45" pan="0" pos="312" len="24" vol="123"/>
          <note key="45" pan="0" pos="336" len="24" vol="123"/>
          <note key="43" pan="0" pos="360" len="24" vol="123"/>
          <note key="45" pan="0" pos="384" len="24" vol="123"/>
          <note key="43" pan="0" pos="408" len="24" vol="123"/>
          <note key="45" pan="0" pos="432" len="24" vol="123"/>
          <note key="40" pan="0" pos="456" len="12" vol="123"/>
          <note key="40" pan="0" pos="480" len="24" vol="123"/>
          <note key="40" pan="0" pos="504" len="24" vol="123"/>
          <note key="40" pan="0" pos="528" len="24" vol="123"/>
          <note key="43" pan="0" pos="552" len="24" vol="123"/>
          <note key="45" pan="0" pos="576" len="24" vol="123"/>
          <note key="43" pan="0" pos="600" len="24" vol="123"/>
          <note key="45" pan="0" pos="624" len="24" vol="123"/>
          <note key="40" pan="0" pos="648" len="12" vol="123"/>
          <note key="40" pan="0" pos="672" len="24" vol="123"/>
          <note key="48" pan="0" pos="696" len="24" vol="123"/>
          <note key="47" pan="0" pos="720" len="24" vol="123"/>
          <note key="43" pan="0" pos="744" len="24" vol="123"/>
        </pattern>
        <pattern name="" pos="3840" muted="0" type="1" steps="16">
          <note key="45" pan="0" pos="0" len="24" vol="123"/>
          <note key="43" pan="0" pos="24" len="24" vol="123"/>
          <note key="45" pan="0" pos="48" len="24" vol="123"/>
          <note key="40" pan="0" pos="72" len="12" vol="123"/>
          <note key="40" pan="0" pos="96" len="24" vol="123"/>
          <note key="45" pan="0" pos="120" len="24" vol="123"/>
          <note key="45" pan="0" pos="144" len="24" vol="123"/>
          <note key="43" pan="0" pos="168" len="24" vol="123"/>
          <note key="45" pan="0" pos="192" len="24" vol="123"/>
          <note key="43" pan="0" pos="216" len="24" vol="123"/>
          <note key="45" pan="0" pos="240" len="24" vol="123"/>
          <note key="40" pan="0" pos="264" len="12" vol="123"/>
          <note key="40" pan="0" pos="288" len="24" vol="123"/>
          <note key="45" pan="0" pos="312" len="24" vol="123"/>
          <note key="45" pan="0" pos="336" len="24" vol="123"/>
          <note key="43" pan="0" pos="360" len="24" vol="123"/>
          <note key="45" pan="0" pos="384" len="24" vol="123"/>
          <note key="43" pan="0" pos="408" len="24" vol="123"/>
          <note key="45" pan="0" pos="432" len="24" vol="123"/>
          <note key="40" pan="0" pos="456" len="12" vol="123"/>
          <note key="40" pan="0" pos="480" len="24" vol="123"/>
          <note key="40" pan="0" pos="504" len="24" vol="123"/>
          <note key="40" pan="0" pos="528" len="24" vol="123"/>
          <note key="43" pan="0" pos="552" len="24" vol="123"/>
          <note key="45" pan="0" pos="576" len="24" vol="123"/>
          <note key="43" pan="0" pos="600" len="24" vol="123"/>
          <note key="45" pan="0" pos="624" len="24" vol="123"/>
          <note key="40" pan="0" pos="648" len="12" vol="123"/>
          <note key="40" pan="0" pos="672" len="24" vol="123"/>
          <note key="48" pan="0" pos="696" len="24" vol="123"/>
          <note key="47" pan="0" pos="720" len="24" vol="123"/>
          <note key="43" pan="0" pos="744" len="24" vol="123"/>
        </pattern>
        <pattern name="" pos="4608" muted="0" type="1" steps="16">
          <note key="45" pan="0" pos="0" len="24" vol="123"/>
          <note key="43" pan="0" pos="24" len="24" vol="123"/>
          <note key="45" pan="0" pos="48" len="24" vol="123"/>
          <note key="40" pan="0" pos="72" len="12" vol="123"/>
          <note key="40" pan="0" pos="96" len="24" vol="123"/>
          <note key="45" pan="0" pos="120" len="24" vol="123"/>
          <note key="45" pan="0" pos="144" len="24" vol="123"/>
          <note key="43" pan="0" pos="168" len="24" vol="123"/>
          <note key="45" pan="0" pos="192" len="24" vol="123"/>
          <note key="43" pan="0" pos="216" len="24" vol="123"/>
          <note key="45" pan="0" pos="240" len="24" vol="123"/>
          <note key="40" pan="0" pos="264" len="12" vol="123"/>
          <note key="40" pan="0" pos="288" len="24" vol="123"/>
          <note key="45" pan="0" pos="312" len="24" vol="123"/>
          <note key="45" pan="0" pos="336" len="24" vol="123"/>
          <note key="43" pan="0" pos="360" len="24" vol="123"/>
          <note key="45" pan="0" pos="384" len="24" vol="123"/>
          <note key="43" pan="0" pos="408" len="24" vol="123"/>
          <note key="45" pan="0" pos="432" len="24" vol="123"/>
          <note key="40" pan="0" pos="456" len="12" vol="123"/>
          <note key="40" pan="0" pos="480" len="24" vol="123"/>
          <note key="40" pan="0" pos="504" len="24" vol="123"/>
          <note key="40" pan="0" pos="528" len="24" vol="123"/>
          <note key="43" pan="0" pos="552" len="24" vol="123"/>
          <note key="45" pan="0" pos="576" len="24" vol="123"/>
          <note key="43" pan="0" pos="600" len="24" vol="123"/>
          <note key="45" pan="0" pos="624" len="24" vol="123"/>
          <note key="40" pan="0" pos="648" len="12" vol="123"/>
          <note key="40" pan="0" pos="672" len="24" vol="123"/>
          <note key="48" pan="0" pos="696" len="24" vol="123"/>
          <note key="47" pan="0" pos="720" len="24" vol="123"/>
          <note key="43" pan="0" pos="744" len="24" vol="123"/>
        </pattern>
        <pattern name="" pos="5376" muted="0" type="1" steps="16">
          <note key="45" pan="0" pos="0" len="24" vol="123"/>
          <note key="43" pan="0" pos="24" len="24" vol="123"/>
          <note key="45" pan="0" pos="48" len="24" vol="123"/>
          <note key="40" pan="0" pos="72" len="12" vol="123"/>
          <note key="40" pan="0" pos="96" len="24" vol="123"/>
          <note key="45" pan="0" pos="120" len="24" vol="123"/>
          <note key="45" pan="0" pos="144" len="24" vol="123"/>
          <note key="43" pan="0" pos="168" len="24" vol="123"/>
          <note key="45" pan="0" pos="192" len="24" vol="123"/>
          <note key="43" pan="0" pos="216" len="24" vol="123"/>
          <note key="45" pan="0" pos="240" len="24" vol="123"/>
          <note key="40" pan="0" pos="264" len="12" vol="123"/>
          <note key="40" pan="0" pos="288" len="24" vol="123"/>
          <note key="45" pan="0" pos="312" len="24" vol="123"/>
          <note key="45" pan="0" pos="336" len="24" vol="123"/>
          <note key="43" pan="0" pos="360" len="24" vol="123"/>
          <note key="45" pan="0" pos="384" len="24" vol="123"/>
          <note key="43" pan="0" pos="408" len="24" vol="123"/>
          <note key="45" pan="0" pos="432" len="24" vol="123"/>
          <note key="40" pan="0" pos="456" len="12" vol="123"/>
          <note key="40" pan="0" pos="480" len="24" vol="123"/>
          <note key="40" pan="0" pos="504" len="24" vol="123"/>
          <note key="40" pan="0" pos="528" len="24" vol="123"/>
          <note key="43" pan="0" pos="552" len="24" vol="123"/>
          <note key="45" pan="0" pos="576" len="24" vol="123"/>
          <note key="43" pan="0" pos="600" len="24" vol="123"/>
          <note key="45" pan="0" pos="624" len="24" vol="123"/>
          <note key="40" pan="0" pos="648" len="12" vol="123"/>
          <note key="40" pan="0" pos="672" len="24" vol="123"/>
          <note key="48" pan="0" pos="696" len="24" vol="123"/>
          <note key="47" pan="0" pos="720" len="24" vol="123"/>
          <note key="43" pan="0" pos="744" len="24" vol="123"/>
        </pattern>
        <pattern name="" pos="6144" muted="0" type="1" steps="16">
          <note key="45" pan="0" pos="0" len="24" vol="123"/>
          <note key="43" pan="0" pos="24" len="24" vol="123"/>
          <note key="45" pan="0" pos="48" len="24" vol="123"/>
          <note key="40" pan="0" pos="72" len="12" vol="123"/>
          <note key="40" pan="0" pos="96" len="24" vol="123"/>
          <note key="45" pan="0" pos="120" len="24" vol="123"/>
          <note key="45" pan="0" pos="144" len="24" vol="123"/>
          <note key="43" pan="0" pos="168" len="24" vol="123"/>
          <note key="45" pan="0" pos="192" len="24" vol="123"/>
          <note key="43" pan="0" pos="216" len="24" vol="123"/>
          <note key="45" pan="0" pos="240" len="24" vol="123"/>
          <note key="40" pan="0" pos="264" len="12" vol="123"/>
          <note key="40" pan="0" pos="288" len="24" vol="123"/>
          <note key="45" pan="0" pos="312" len="24" vol="123"/>
          <note key="45" pan="0" pos="336" len="24" vol="123"/>
          <note key="43" pan="0" pos="360" len="24" vol="123"/>
          <note key="45" pan="0" pos="384" len="24" vol="123"/>
          <note key="43" pan="0" pos="408" len="24" vol="123"/>
          <note key="45" pan="0" pos="432" len="24" vol="123"/>
          <note key="40" pan="0" pos="456" len="12" vol="123"/>
          <note key="40" pan="0" pos="480" len="24" vol="123"/>
          <note key="40" pan="0" pos="504" len="24" vol="123"/>
          <note key="40" pan="0" pos="528" len="24" vol="123"/>
          <note key="43" pan="0" pos="552" len="24" vol="123"/>
          <note key="45" pan="0" pos="576" len="24" vol="123"/>
          <note key="43" pan="0" pos="600" len="24" vol="123"/>
          <note key="45" pan="0" pos="624" len="24" vol="123"/>
          <note key="40" pan="0" pos="648" len="12" vol="123"/>
          <note key="40" pan="0" pos="672" len="24" vol="123"/>
          <note key="48" pan="0" pos="696" len="24" vol="123"/>
          <note key="47" pan="0" pos="720" len="24" vol="123"/>
          <note key="43" pan="0" pos="744" len="24" vol="123"/>
        </pattern>
        <pattern name="" pos="6912" muted="0" type="1" steps="16">
          <note key="45" pan="0" pos="0" len="24" vol="123"/>
          <note key="43" pan="0" pos="24" len="24" vol="123"/>
          <note key="45" pan="0" pos="48" len="24" vol="123"/>
          <note key="40" pan="0" pos="72" len="12" vol="123"/>
          <note key="40" pan="0" pos="96" len="24" vol="123"/>
          <note key="45" pan="0" pos="120" len="24" vol="123"/>
          <note key="45" pan="0" pos="144" len="24" vol="123"/>
          <note key="43" pan="0" pos="168" len="24" vol="123"/>
          <note key="45" pan="0" pos="192" len="24" vol="123"/>
          <note key="43" pan="0" pos="216" len="24" vol="123"/>
          <note key="45" pan="0" pos="240" len="24" vol="123"/>
          <note key="40" pan="0" pos="264" len="12" vol="123"/>
          <note key="40" pan="0" pos="288" len="24" vol="123"/>
          <note key="45" pan="0" pos="312" len="24" vol="123"/>
          <note key="45" pan="0" pos="336" len="24" vol="123"/>
          <note key="43" pan="0" pos="360" len="24" vol="123"/>
          <note key="45" pan="0" pos="384" len="24" vol="123"/>
          <note key="43" pan="0" pos="408" len="24" vol="123"/>
          <note key="45" pan="0" pos="432" len="24" vol="123"/>
          <note key="40" pan="0" pos="456" len="12" vol="123"/>
          <note key="40" pan="0" pos="480" len="24" vol="123"/>
          <note key="40" pan="0" pos="504" len="24" vol="123"/>
          <note key="40" pan="0" pos="528" len="24" vol="123"/>
          <note key="43" pan="0" pos="552" len="24" vol="123"/>
          <note key="45" pan="0" pos="576" len="24" vol="123"/>
          <note key="43" pan="0" pos="600" len="24" vol="123"/>
          <note key="45" pan="0" pos="624" len="24" vol="123"/>
          <note key="40" pan="0" pos="648" len="12" vol="123"/>
          <note key="40" pan="0" pos="672" len="24" vol="123"/>
          <note key="48" pan="0" pos="696" len="24" vol="123"/>
          <note key="47" pan="0" pos="720" len="24" vol="123"/>
          <note key="43" pan="0" pos="744" len="24" vol="123"/>
        </pattern>
        <pattern name="" pos="7680" muted="0" type="1" steps="16">
          <note key="45" pan="0" pos="0" len="24" vol="123"/>
          <note key="43" pan="0" pos="24" len="24" vol="123"/>
          <note key="45" pan="0" pos="48" len="24" vol="123"/>
          <note key="40" pan="0" pos="72" len="12" vol="123"/>
          <note key="40" pan="0" pos="96" len="24" vol="123"/>
          <note key="45" pan="0" pos="120" len="24" vol="123"/>
          <note key="45" pan="0" pos="144" len="24" vol="123"/>
          <note key="43" pan="0" pos="168" len="24" vol="123"/>
          <note key="45" pan="0" pos="192" len="24" vol="123"/>
          <note key="43" pan="0" pos="216" len="24" vol="123"/>
          <note key="45" pan="0" pos="240" len="24" vol="123"/>
          <note key="40" pan="0" pos="264" len="12" vol="123"/>
          <note key="40" pan="0" pos="288" len="24" vol="123"/>
          <note key="45" pan="0" pos="312" len="24" vol="123"/>
          <note key="45" pan="0" pos="336" len="24" vol="123"/>
          <note key="43" pan="0" pos="360" len="24" vol="123"/>
          <note key="45" pan="0" pos="384" len="24" vol="123"/>
          <note key="43" pan="0" pos="408" len="24" vol="123"/>
          <note key="45" pan="0" pos="432" len="24" vol="123"/>
          <note key="40" pan="0" pos="456" len="12" vol="123"/>
          <note key="40" pan="0" pos="480" len="24" vol="123"/>
          <note key="40" pan="0" pos="504" len="24" vol="123"/>
          <note key="40" pan="0" pos="528" len="24" vol="123"/>
          <note key="43" pan="0" pos="552" len="24" vol="123"/>
          <note key="45" pan="0" pos="576" len="24" vol="123"/>
          <note key="43" pan="0" pos="600" len="24" vol="123"/>
          <note key="45" pan="0" pos="624" len="24" vol="123"/>
          <note key="40" pan="0" pos="648" len="12" vol="123"/>
          <note key="40" pan="0" pos="672" len="24" vol="123"/>
          <note key="48" pan="0" pos="696" len="24" vol="123"/>
          <note key="47" pan="0" pos="720" len="24" vol="123"/>
          <note key="43" pan="0" pos="744" len="24" vol="123"/>
        </pattern>
        <pattern name="" pos="8448" muted="0" type="1" steps="16">
          <note key="45" pan="0" pos="0" len="24" vol="123"/>
          <note key="43" pan="0" pos="24" len="24" vol="123"/>
          <note key="45" pan="0" pos="48" len="24" vol="123"/>
          <note key="40" pan="0" pos="72" len="12" vol="123"/>
          <note key="40" pan="0" pos="96" len="24" vol="123"/>
          <note key="45" pan="0" pos="120" len="24" vol="123"/>
          <note key="45" pan="0" pos="144" len="24" vol="123"/>
          <note key="43" pan="0" pos="168" len="24" vol="123"/>
          <note key="45" pan="0" pos="192" len="24" vol="123"/>
          <note key="43" pan="0" pos="216" len="24" vol="123"/>
          <note key="45" pan="0" pos="240" len="24" vol="123"/>
          <note key="40" pan="0" pos="264" len="12" vol="123"/>
          <note key="40" pan="0" pos="288" len="24" vol="123"/>
          <note key="45" pan="0" pos="312" len="24" vol="123"/>
          <note key="45" pan="0" pos="336" len="24" vol="123"/>
          <note key="43" pan="0" pos="360" len="24" vol="123"/>
          <note key="45" pan="0" pos="384" len="24" vol="123"/>
          <note key="43" pan="0" pos="408" len="24" vol="123"/>
          <note key="45" pan="0" pos="432" len="24" vol="123"/>
          <note key="40" pan="0" pos="456" len="12" vol="123"/>
          <note key="40" pan="0" pos="480" len="24" vol="123"/>
          <note key="40" pan="0" pos="504" len="24" vol="123"/>
          <note key="40" pan="0" pos="528" len="24" vol="123"/>
          <note key="43" pan="0" pos="552" len="24" vol="123"/>
          <note key="45" pan="0" pos="576" len="24" vol="123"/>
          <note key="43" pan="0" pos="600" len="24" vol="123"/>
          <note key="45" pan="0" pos="624" len="24" vol="123"/>
          <note key="40" pan="0" pos="648" len="12" vol="123"/>
          <note key="40" pan="0" pos="672" len="24" vol="123"/>
          <note key="48" pan="0" pos="696" len="24" vol="123"/>
          <note key="47" pan="0" pos="720" len="24" vol="123"/>
          <note key="43" pan="0" pos="744" len="24" vol="123"/>
        </pattern>
        <pattern name="" pos="9216" muted="0" type="1" steps="16">
          <note key="45" pan="0" pos="0" len="24" vol="123"/>
          <note key="43" pan="0" pos="24" len="24" vol="123"/>
          <note key="45" pan="0" pos="48" len="24" vol="123"/>
          <note key="40" pan="0" pos="72" len="12" vol="123"/>
          <note key="40" pan="0" pos="96" len="24" vol="123"/>
          <note key="45" pan="0" pos="120" len="24" vol="123"/>
          <note key="45" pan="0" pos="144" len="24" vol="123"/>
          <note key="43" pan="0" pos="168" len="24" vol="123"/>
          <note key="45" pan="0" pos="192" len="24" vol="123"/>
          <note key="43" pan="0" pos="216" len="24" vol="123"/>
          <note key="45" pan="0" pos="240" len="24" vol="123"/>
          <note key="40" pan="0" pos="264" len="12" vol="123"/>
          <note key="40" pan="0" pos="288" len="24" vol="123"/>
          <note key="45" pan="0" pos="312" len="24" vol="123"/>
          <note key="45" pan="0" pos="336" len="24" vol="123"/>
          <note key="43" pan="0" pos="360" len="24" vol="123"/>
          <note key="45" pan="0" pos="384" len="24" vol="123"/>
          <note key="43" pan="0" pos="408" len="24" vol="123"/>
          <note key="45" pan="0" pos="432" len="24" vol="123"/>
          <note key="40" pan="0" pos="456" len="12" vol="123"/>
          <note key="40" pan="0" pos="480" len="24" vol="123"/>
          <note key="40" pan="0" pos="504" len="24" vol="123"/>
          <note key="40" pan="0" pos="528" len="24" vol="123"/>
          <note key="43" pan="0" pos="552" len="24" vol="123"/>
          <note key="45" pan="0" pos="576" len="24" vol="123"/>
          <note key="43" pan="0" pos="600" len="24" vol="123"/>
          <note key="45" pan="0" pos="624" len="24" vol="123"/>
          <note key="40" pan="0" pos="648" len="12" vol="123"/>
          <note key="40" pan="0" pos="672" len="24" vol="123"/>
          <note key="48" pan="0" pos="696" len="24" vol="123"/>
          <note key="47" pan="0" pos="720" len="24" vol="123"/>
          <note key="43" pan="0" pos="744" len="24" vol="123"/>
        </pattern>
        <pattern name="" pos="9984" muted="0" type="1" steps="16">
          <note key="45" pan="0" pos="0" len="24" vol="123"/>
          <note key="43" pan="0" pos="24" len="24" vol="123"/>
          <note key="45" pan="0" pos="48" len="24" vol="123"/>
          <note key="40" pan="0" pos="72" len="12" vol="123"/>
          <note key="40" pan="0" pos="96" len="24" vol="123"/>
          <note key="45" pan="0" pos="120" len="24" vol="123"/>
          <note key="45" pan="0" pos="144" len="24" vol="123"/>
          <note key="43" pan="0" pos="168" len="24" vol="123"/>
          <note key="45" pan="0" pos="192" len="24" vol="123"/>
          <note key="43" pan="0" pos="216" len="24" vol="123"/>
          <note key="45" pan="0" pos="240" len="24" vol="123"/>
          <note key="40" pan="0" pos="264" len="12" vol="123"/>
          <note key="40" pan="0" pos="288" len="24" vol="123"/>
          <note key="45" pan="0" pos="312" len="24" vol="123"/>
          <note key="45" pan="0" pos="336" len="24" vol="123"/>
          <note key="43" pan="0" pos="360" len="24" vol="123"/>
          <note key="45" pan="0" pos="384" len="24" vol="123"/>
          <note key="43" pan="0" pos="408" len="24" vol="123"/>
          <note key="45" pan="0" pos="432" len="24" vol="123"/>
          <note key="40" pan="0" pos="456" len="12" vol="123"/>
          <note key="40" pan="0" pos="480" len="24" vol="123"/>
          <note key="40" pan="0" pos="504" len="24" vol="123"/>
          <note key="40" pan="0" pos="528" len="24" vol="123"/>
          <note key="43" pan="0" pos="552" len="24" vol="123"/>
          <note key="45" pan="0" pos="576" len="24" vol="123"/>
          <note key="43" pan="0" pos="600" len="24" vol="123"/>
          <note key="45" pan="0" pos="624" len="24" vol="123"/>
          <note key="40" pan="0" pos="648" len="12" vol="123"/>
          <note key="40" pan="0" pos="672" len="24" vol="123"/>
          <note key="48" pan="0" pos="696" len="24" vol="123"/>
          <note key="47" pan="0" pos="720" len="24" vol="123"/>
          <note key="43" pan="0" pos="744" len="24" vol="123"/>
        </pattern>
        <pattern name="" pos="12288" muted="0" type="1" steps="16">
          <note key="45" pan="0" pos="0" len="24" vol="123"/>
          <note key="43" pan="0" pos="24" len="24" vol="123"/>
          <note key="45" pan="0" pos="48" len="24" vol="123"/>
          <note key="40" pan="0" pos="72" len="12" vol="123"/>
          <note key="40" pan="0" pos="96" len="24" vol="123"/>
          <note key="45" pan="0" pos="120" len="24" vol="123"/>
          <note key="45" pan="0" pos="144" len="24" vol="123"/>
          <note key="43" pan="0" pos="168" len="24" vol="123"/>
          <note key="45" pan="0" pos="192" len="24" vol="123"/>
          <note key="43" pan="0" pos="216" len="24" vol="123"/>
          <note key="45" pan="0" pos="240" len="24" vol="123"/>
          <note key="40" pan="0" pos="264" len="12" vol="123"/>
          <note key="40" pan="0" pos="288" len="24" vol="123"/>
          <note key="45" pan="0" pos="312" len="24" vol="123"/>
          <note key="45" pan="0" pos="336" len="24" vol="123"/>
          <note key="43" pan="0" pos="360" len="24" vol="123"/>
          <note key="45" pan="0" pos="384" len="24" vol="123"/>
          <note key="43" pan="0" pos="408" len="24" vol="123"/>
          <note key="45" pan="0" pos="432" len="24" vol="123"/>
          <note key="40" pan="0" pos="456" len="12" vol="123"/>
          <note key="40" pan="0" pos="480" len="24" vol="123"/>
          <note key="40" pan="0" pos="504" len="24" vol="123"/>
          <note key="40" pan="0" pos="528" len="24" vol="123"/>
          <note key="43" pan="0" pos="552" len="24" vol="123"/>
          <note key="45" pan="0" pos="576" len="24" vol="123"/>
          <note key="43" pan="0" pos="600" len="24" vol="123"/>
          <note key="45" pan="0" pos="624" len="24" vol="123"/>
          <note key="40" pan="0" pos="648" len="12" vol="123"/>
          <note key="40" pan="0" pos="672" len="24" vol="123"/>
          <note key="48" pan="0" pos="696" len="24" vol="123"/>
          <note key="47" pan="0" pos="720" len="24" vol="123"/>
          <note key="43" pan="0" pos="744" len="24" vol="123"/>
        </pattern>
        <pattern name="" pos="13056" muted="0" type="1" steps="16">
          <note key="45" pan="0" pos="0" len="24" vol="123"/>
          <note key="43" pan="0" pos="24" len="24" vol="123"/>
          <note key="45" pan="0" pos="48" len="24" vol="123"/>
          <note key="40" pan="0" pos="72" len="12" vol="123"/>
          <note key="40" pan="0" pos="96" len="24" vol="123"/>
          <note key="45" pan="0" pos="120" len="24" vol="123"/>
          <note key="45" pan="0" pos="144" len="24" vol="123"/>
          <note key="43" pan="0" pos="168" len="24" vol="123"/>
          <note key="45" pan="0" pos="192" len="24" vol="123"/>
          <note key="43" pan="0" pos="216" len="24" vol="123"/>
          <note key="45" pan="0" pos="240" len="24" vol="123"/>
          <note key="40" pan="0" pos="264" len="12" vol="123"/>
          <note key="40" pan="0" pos="288" len="24" vol="123"/>
          <note key="45" pan="0" pos="312" len="24" vol="123"/>
          <note key="45" pan="0" pos="336" len="24" vol="123"/>
          <note key="43" pan="0" pos="360" len="24" vol="123"/>
          <note key="45" pan="0" pos="384" len="24" vol="123"/>
          <note key="43" pan="0" pos="408" len="24" vol="123"/>
          <note key="45" pan="0" pos="432" len="24" vol="123"/>
          <note key="40" pan="0" pos="456" len="12" vol="123"/>
          <note key="40" pan="0" pos="480" len="24" vol="123"/>
          <note key="40" pan="0" pos="504" len="24" vol="123"/>
          <note key="40" pan="0" pos="528" len="24" vol="123"/>
          <note key="43" pan="0" pos="552" len="24" vol="123"/>
          <note key="45" pan="0" pos="576" len="24" vol="123"/>
          <note key="43" pan="0" pos="600" len="24" vol="123"/>
          <note key="45" pan="0" pos="624" len="24" vol="123"/>
          <note key="40" pan="0" pos="648" len="12" vol="123"/>
          <note key="40" pan="0" pos="672" len="24" vol="123"/>
          <note key="48" pan="0" pos="696" len="24" vol="123"/>
          <note key="47" pan="0" pos="720" len="24" vol="123"/>
          <note key="43" pan="0" pos="744" len="24" vol="123"/>
        </pattern>
        <pattern name="" pos="13824" muted="0" type="1" steps="16">
          <note key="45" pan="0" pos="0" len="24" vol="123"/>
          <note key="43" pan="0" pos="24" len="24" vol="123"/>
          <note key="45" pan="0" pos="48" len="24" vol="123"/>
          <note key="40" pan="0" pos="72" len="12" vol="123"/>
          <note key="40" pan="0" pos="96" len="24" vol="123"/>
          <note key="45" pan="0" pos="120" len="24" vol="123"/>
          <note key="45" pan="0" pos="144" len="24" vol="123"/>
          <note key="43" pan="0" pos="168" len="24" vol="123"/>
          <note key="45" pan="0" pos="192" len="24" vol="123"/>
          <note key="43" pan="0" pos="216" len="24" vol="123"/>
          <note key="45" pan="0" pos="240" len="24" vol="123"/>
          <note key="40" pan="0" pos="264" len="12" vol="123"/>
          <note key="40" pan="0" pos="288" len="24" vol="123"/>
          <note key="45" pan="0" pos="312" len="24" vol="123"/>
          <note key="45" pan="0" pos="336" len="24" vol="123"/>
          <note key="43" pan="0" pos="360" len="24" vol="123"/>
          <note key="45" pan="0" pos="384" len="24" vol="123"/>
          <note key="43" pan="0" pos="408" len="24" vol="123"/>
          <note key="45" pan="0" pos="432" len="24" vol="123"/>
          <note key="40" pan="0" pos="456" len="12" vol="123"/>
          <note key="40" pan="0" pos="480" len="24" vol="123"/>
          <note key="40" pan="0" pos="504" len="24" vol="123"/>
          <note key="40" pan="0" pos="528" len="24" vol="123"/>
          <note key="43" pan="0" pos="552" len="24" vol="123"/>
          <note key="45" pan="0" pos="576" len="24" vol="123"/>
          <note key="43" pan="0" pos="600" len="24" vol="123"/>
          <note key="45" pan="0" pos="624" len="24" vol="123"/>
          <note key="40" pan="0" pos="648" len="12" vol="123"/>
          <note key="40" pan="0" pos="672" len="24" vol="123"/>
          <note key="48" pan="0" pos="696" len="24" vol="123"/>
          <note key="47" pan="0" pos="720" len="24" vol="123"/>
          <note key="43" pan="0" pos="744" len="24" vol="123"/>
        </pattern>
        <pattern name="" pos="14592" muted="0" type="1" steps="16">
          <note key="45" pan="0" pos="0" len="24" vol="123"/>
          <note key="43" pan="0" pos="24" len="24" vol="123"/>
          <note key="45" pan="0" pos="48" len="24" vol="123"/>
          <note key="40" pan="0" pos="72" len="12" vol="123"/>
          <note key="40" pan="0" pos="96" len="24" vol="123"/>
          <note key="45" pan="0" pos="120" len="24" vol="123"/>
          <note key="45" pan="0" pos="144" len="24" vol="123"/>
          <note key="43" pan="0" pos="168" len="24" vol="123"/>
          <note key="45" pan="0" pos="192" len="24" vol="123"/>
          <note key="43" pan="0" pos="216" len="24" vol="123"/>
          <note key="45" pan="0" pos="240" len="24" vol="123"/>
          <note key="40" pan="0" pos="264" len="12" vol="123"/>
          <note key="40" pan="0" pos="288" len="24" vol="123"/>
          <note key="45" pan="0" pos="312" len="24" vol="123"/>
          <note key="45" pan="0" pos="336" len="24" vol="123"/>
          <note key="43" pan="0" pos="360" len="24" vol="123"/>
          <note key="45" pan="0" pos="384" len="24" vol="123"/>
          <note key="43" pan="0" pos="408" len="24" vol="123"/>
          <note key="45" pan="0" pos="432" len="24" vol="123"/>
          <note key="40" pan="0" pos="456" len="12" vol="123"/>
          <note key="40" pan="0" pos="480" len="24" vol="123"/>
          <note key="40" pan="0" pos="504" len="24" vol="123"/>
          <note key="40" pan="0" pos="528" len="24" vol="123"/>
          <note key="43" pan="0" pos="552" len="24" vol="123"/>
          <note key="45" pan="0" pos="576" len="24" vol="123"/>
          <note key="43" pan="0" pos="600" len="24" vol="123"/>
          <note key="45" pan="0" pos="624" len="24" vol="123"/>
          <note key="40" pan="0" pos="648" len="12" vol="123"/>
          <note key="40" pan="0" pos="672" len="24" vol="123"/>
          <note key="48" pan="0" pos="696" len="24" vol="123"/>
          <note key="47" pan="0" pos="720" len="24" vol="123"/>
          <note key="43" pan="0" pos="744" len="24" vol="123"/>
        </pattern>
        <pattern name="" pos="15360" muted="0" type="1" steps="16">
          <note key="45" pan="0" pos="0" len="24" vol="100"/>
        </pattern>
      </track>
      <track name="SGM-v2" muted="0" type="0" solo="0">
        <instrumenttrack pitchrange="1" pan="-56" fxch="0" basenote="57" pitch="0" vol="114.4" usemasterpitch="1">
          <instrument name="sf2player">
            <sf2player reverbWidth="0.5" chorusOn="0" gain="1" chorusDepth="8" bank="1" reverbLevel="0.89999998" reverbRoomSize="0.2" patch="28" chorusSpeed="0.30000001" reverbOn="0" chorusNum="0.89999998" reverbDamping="0.2" chorusLevel="2" src="soundfonts/SGM-v2.01-HQ-v3.0.sf2"/>
          </instrument>
          <eldata fcut="2498" ftype="4" fwet="1" fres="2.98">
            <elvol dec="0.5" ctlenvamt="0" latt="0.215" sustain="0.5" amt="0" lamt="0.72500002" pdel="0" rel="0.1" lshp="2" lpdel="0" hold="0.5" lspd_numerator="4" lspd_denominator="4" att="0" x100="0" lspd="0.020689655" lspd_syncmode="4" userwavefile=""/>
            <elcut dec="0.5" ctlenvamt="0" latt="0.243" sustain="0.5" amt="0" lamt="0" pdel="0" rel="0.1" lshp="2" lpdel="0" hold="0.5" lspd_numerator="4" lspd_denominator="4" att="0" x100="0" lspd="0.020689655" lspd_syncmode="4" userwavefile=""/>
            <elres dec="0.5" ctlenvamt="0" latt="0" sustain="0.5" amt="0" lamt="0" pdel="0" rel="0.1" lshp="0" lpdel="0" hold="0.5" lspd_numerator="4" lspd_denominator="4" att="0" x100="0" lspd="0.1" lspd_syncmode="0" userwavefile=""/>
          </eldata>
          <chordcreator chordrange="1" chord-enabled="0" chord="0"/>
          <arpeggiator arptime="100" arptime_syncmode="0" arpmode="0" arptime_numerator="4" arptime_denominator="4" arpdir="0" arpgate="100" arprange="1" arp-enabled="0" arpmiss="0" arp="0" arpcycle="0" arpskip="0"/>
          <midiport inputcontroller="0" fixedoutputnote="-1" writable="0" basevelocity="63" outputprogram="1" outputcontroller="0" fixedinputvelocity="-1" outputchannel="1" fixedoutputvelocity="-1" readable="0" inputchannel="0"/>
          <fxchain numofeffects="2" enabled="1">
            <effect gate="0" on="1" autoquit_syncmode="0" autoquit="1" name="ladspaeffect" autoquit_numerator="4" wet="1" autoquit_denominator="4">
              <ladspacontrols ports="12" link="1">
                <port02 data="0" link="1"/>
                <port03 data="4.3000002" link="1"/>
                <port04 data="9.75" link="1"/>
                <port05 data="20" link="1"/>
                <port06 data="0.15625" link="1"/>
                <port07 data="0.28375" link="1"/>
                <port12 data="0"/>
                <port13 data="4.3000002"/>
                <port14 data="9.75"/>
                <port15 data="20"/>
                <port16 data="0.15625"/>
                <port17 data="0.28375"/>
              </ladspacontrols>
              <key>
                <attribute value="guitarix_amp" name="file"/>
                <attribute value="guitarix_amp" name="plugin"/>
              </key>
            </effect>
            <effect gate="0" on="1" autoquit_syncmode="0" autoquit="8000" name="ladspaeffect" autoquit_numerator="4" wet="1" autoquit_denominator="4">
              <ladspacontrols ports="4">
                <port02 data="0.80017"/>
                <port03 data="0.37450001"/>
                <port04 data="0.24987499"/>
                <port05 data="0.2825"/>
              </ladspacontrols>
              <key>
                <attribute value="caps" name="file"/>
                <attribute value="Plate2x2" name="plugin"/>
              </key>
            </effect>
          </fxchain>
        </instrumenttrack>
        <pattern name="Sf2 Player" pos="1536" muted="0" type="1" steps="16">
          <note key="33" pan="0" pos="0" len="24" vol="123"/>
          <note key="33" pan="0" pos="24" len="24" vol="123"/>
          <note key="33" pan="0" pos="48" len="12" vol="123"/>
          <note key="33" pan="0" pos="72" len="24" vol="123"/>
          <note key="33" pan="0" pos="96" len="24" vol="123"/>
          <note key="33" pan="0" pos="120" len="24" vol="123"/>
          <note key="33" pan="0" pos="144" len="24" vol="123"/>
          <note key="33" pan="0" pos="168" len="24" vol="123"/>
          <note key="33" pan="0" pos="192" len="24" vol="123"/>
          <note key="33" pan="0" pos="216" len="24" vol="123"/>
          <note key="33" pan="0" pos="240" len="12" vol="123"/>
          <note key="33" pan="0" pos="264" len="24" vol="123"/>
          <note key="33" pan="0" pos="288" len="24" vol="123"/>
          <note key="33" pan="0" pos="312" len="24" vol="123"/>
          <note key="33" pan="0" pos="336" len="24" vol="123"/>
          <note key="33" pan="0" pos="360" len="24" vol="123"/>
          <note key="31" pan="0" pos="384" len="24" vol="123"/>
          <note key="31" pan="0" pos="408" len="24" vol="123"/>
          <note key="31" pan="0" pos="432" len="12" vol="123"/>
          <note key="31" pan="0" pos="456" len="24" vol="123"/>
          <note key="31" pan="0" pos="480" len="24" vol="123"/>
          <note key="31" pan="0" pos="504" len="24" vol="123"/>
          <note key="31" pan="0" pos="528" len="24" vol="123"/>
          <note key="31" pan="0" pos="552" len="24" vol="123"/>
          <note key="28" pan="0" pos="576" len="24" vol="123"/>
          <note key="28" pan="0" pos="600" len="24" vol="123"/>
          <note key="28" pan="0" pos="624" len="12" vol="123"/>
          <note key="28" pan="0" pos="648" len="24" vol="123"/>
          <note key="28" pan="0" pos="672" len="24" vol="123"/>
          <note key="28" pan="0" pos="696" len="24" vol="123"/>
          <note key="28" pan="0" pos="720" len="24" vol="123"/>
          <note key="31" pan="0" pos="744" len="24" vol="123"/>
        </pattern>
        <pattern name="SGM-v2" pos="2304" muted="0" type="1" steps="16">
          <note key="33" pan="0" pos="0" len="24" vol="123"/>
          <note key="33" pan="0" pos="24" len="24" vol="123"/>
          <note key="33" pan="0" pos="48" len="12" vol="123"/>
          <note key="33" pan="0" pos="72" len="24" vol="123"/>
          <note key="33" pan="0" pos="96" len="24" vol="123"/>
          <note key="33" pan="0" pos="120" len="24" vol="123"/>
          <note key="33" pan="0" pos="144" len="24" vol="123"/>
          <note key="33" pan="0" pos="168" len="24" vol="123"/>
          <note key="33" pan="0" pos="192" len="24" vol="123"/>
          <note key="33" pan="0" pos="216" len="24" vol="123"/>
          <note key="33" pan="0" pos="240" len="12" vol="123"/>
          <note key="33" pan="0" pos="264" len="24" vol="123"/>
          <note key="33" pan="0" pos="288" len="24" vol="123"/>
          <note key="33" pan="0" pos="312" len="24" vol="123"/>
          <note key="33" pan="0" pos="336" len="24" vol="123"/>
          <note key="33" pan="0" pos="360" len="24" vol="123"/>
          <note key="31" pan="0" pos="384" len="24" vol="123"/>
          <note key="31" pan="0" pos="408" len="24" vol="123"/>
          <note key="31" pan="0" pos="432" len="12" vol="123"/>
          <note key="31" pan="0" pos="456" len="24" vol="123"/>
          <note key="31" pan="0" pos="480" len="24" vol="123"/>
          <note key="31" pan="0" pos="504" len="24" vol="123"/>
          <note key="31" pan="0" pos="528" len="24" vol="123"/>
          <note key="31" pan="0" pos="552" len="24" vol="123"/>
          <note key="28" pan="0" pos="576" len="24" vol="123"/>
          <note key="28" pan="0" pos="600" len="24" vol="123"/>
          <note key="28" pan="0" pos="624" len="12" vol="123"/>
          <note key="28" pan="0" pos="648" len="24" vol="123"/>
          <note key="28" pan="0" pos="672" len="24" vol="123"/>
          <note key="28" pan="0" pos="696" len="24" vol="123"/>
          <note key="28" pan="0" pos="720" len="24" vol="123"/>
          <note key="31" pan="0" pos="744" len="24" vol="123"/>
        </pattern>
        <pattern name="SGM-v2" pos="3072" muted="0" type="1" steps="16">
          <note key="33" pan="0" pos="0" len="24" vol="123"/>
          <note key="33" pan="0" pos="24" len="24" vol="123"/>
          <note key="33" pan="0" pos="48" len="12" vol="123"/>
          <note key="33" pan="0" pos="72" len="24" vol="123"/>
          <note key="33" pan="0" pos="96" len="24" vol="123"/>
          <note key="33" pan="0" pos="120" len="24" vol="123"/>
          <note key="33" pan="0" pos="144" len="24" vol="123"/>
          <note key="33" pan="0" pos="168" len="24" vol="123"/>
          <note key="33" pan="0" pos="192" len="24" vol="123"/>
          <note key="33" pan="0" pos="216" len="24" vol="123"/>
          <note key="33" pan="0" pos="240" len="12" vol="123"/>
          <note key="33" pan="0" pos="264" len="24" vol="123"/>
          <note key="33" pan="0" pos="288" len="24" vol="123"/>
          <note key="33" pan="0" pos="312" len="24" vol="123"/>
          <note key="33" pan="0" pos="336" len="24" vol="123"/>
          <note key="33" pan="0" pos="360" len="24" vol="123"/>
          <note key="31" pan="0" pos="384" len="24" vol="123"/>
          <note key="31" pan="0" pos="408" len="24" vol="123"/>
          <note key="31" pan="0" pos="432" len="12" vol="123"/>
          <note key="31" pan="0" pos="456" len="24" vol="123"/>
          <note key="31" pan="0" pos="480" len="24" vol="123"/>
          <note key="31" pan="0" pos="504" len="24" vol="123"/>
          <note key="31" pan="0" pos="528" len="24" vol="123"/>
          <note key="31" pan="0" pos="552" len="24" vol="123"/>
          <note key="28" pan="0" pos="576" len="24" vol="123"/>
          <note key="28" pan="0" pos="600" len="24" vol="123"/>
          <note key="28" pan="0" pos="624" len="12" vol="123"/>
          <note key="28" pan="0" pos="648" len="24" vol="123"/>
          <note key="28" pan="0" pos="672" len="24" vol="123"/>
          <note key="28" pan="0" pos="696" len="24" vol="123"/>
          <note key="28" pan="0" pos="720" len="24" vol="123"/>
          <note key="31" pan="0" pos="744" len="24" vol="123"/>
        </pattern>
        <pattern name="SGM-v2" pos="3840" muted="0" type="1" steps="16">
          <note key="33" pan="0" pos="0" len="24" vol="123"/>
          <note key="33" pan="0" pos="24" len="24" vol="123"/>
          <note key="33" pan="0" pos="48" len="12" vol="123"/>
          <note key="33" pan="0" pos="72" len="24" vol="123"/>
          <note key="33" pan="0" pos="96" len="24" vol="123"/>
          <note key="33" pan="0" pos="120" len="24" vol="123"/>
          <note key="33" pan="0" pos="144" len="24" vol="123"/>
          <note key="33" pan="0" pos="168" len="24" vol="123"/>
          <note key="33" pan="0" pos="192" len="24" vol="123"/>
          <note key="33" pan="0" pos="216" len="24" vol="123"/>
          <note key="33" pan="0" pos="240" len="12" vol="123"/>
          <note key="33" pan="0" pos="264" len="24" vol="123"/>
          <note key="33" pan="0" pos="288" len="24" vol="123"/>
          <note key="33" pan="0" pos="312" len="24" vol="123"/>
          <note key="33" pan="0" pos="336" len="24" vol="123"/>
          <note key="33" pan="0" pos="360" len="24" vol="123"/>
          <note key="31" pan="0" pos="384" len="24" vol="123"/>
          <note key="31" pan="0" pos="408" len="24" vol="123"/>
          <note key="31" pan="0" pos="432" len="12" vol="123"/>
          <note key="31" pan="0" pos="456" len="24" vol="123"/>
          <note key="31" pan="0" pos="480" len="24" vol="123"/>
          <note key="31" pan="0" pos="504" len="24" vol="123"/>
          <note key="31" pan="0" pos="528" len="24" vol="123"/>
          <note key="31" pan="0" pos="552" len="24" vol="123"/>
          <note key="28" pan="0" pos="576" len="24" vol="123"/>
          <note key="28" pan="0" pos="600" len="24" vol="123"/>
          <note key="28" pan="0" pos="624" len="12" vol="123"/>
          <note key="28" pan="0" pos="648" len="24" vol="123"/>
          <note key="28" pan="0" pos="672" len="24" vol="123"/>
          <note key="28" pan="0" pos="696" len="24" vol="123"/>
          <note key="28" pan="0" pos="720" len="24" vol="123"/>
          <note key="31" pan="0" pos="744" len="24" vol="123"/>
        </pattern>
        <pattern name="SGM-v2" pos="4608" muted="0" type="1" steps="16">
          <note key="33" pan="0" pos="0" len="24" vol="123"/>
          <note key="33" pan="0" pos="24" len="24" vol="123"/>
          <note key="33" pan="0" pos="48" len="12" vol="123"/>
          <note key="33" pan="0" pos="72" len="24" vol="123"/>
          <note key="33" pan="0" pos="96" len="24" vol="123"/>
          <note key="33" pan="0" pos="120" len="24" vol="123"/>
          <note key="33" pan="0" pos="144" len="24" vol="123"/>
          <note key="33" pan="0" pos="168" len="24" vol="123"/>
          <note key="33" pan="0" pos="192" len="24" vol="123"/>
          <note key="33" pan="0" pos="216" len="24" vol="123"/>
          <note key="33" pan="0" pos="240" len="12" vol="123"/>
          <note key="33" pan="0" pos="264" len="24" vol="123"/>
          <note key="33" pan="0" pos="288" len="24" vol="123"/>
          <note key="33" pan="0" pos="312" len="24" vol="123"/>
          <note key="33" pan="0" pos="336" len="24" vol="123"/>
          <note key="33" pan="0" pos="360" len="24" vol="123"/>
          <note key="36" pan="0" pos="384" len="24" vol="123"/>
          <note key="36" pan="0" pos="408" len="24" vol="123"/>
          <note key="36" pan="0" pos="432" len="12" vol="123"/>
          <note key="36" pan="0" pos="456" len="24" vol="123"/>
          <note key="36" pan="0" pos="480" len="24" vol="123"/>
          <note key="36" pan="0" pos="504" len="24" vol="123"/>
          <note key="36" pan="0" pos="528" len="24" vol="123"/>
          <note key="36" pan="0" pos="552" len="24" vol="123"/>
          <note key="36" pan="0" pos="576" len="24" vol="123"/>
          <note key="36" pan="0" pos="600" len="24" vol="123"/>
          <note key="36" pan="0" pos="624" len="12" vol="123"/>
          <note key="36" pan="0" pos="648" len="24" vol="123"/>
          <note key="36" pan="0" pos="672" len="24" vol="123"/>
          <note key="36" pan="0" pos="696" len="24" vol="123"/>
          <note key="36" pan="0" pos="720" len="24" vol="123"/>
          <note key="36" pan="0" pos="744" len="24" vol="123"/>
          <note key="35" pan="0" pos="768" len="24" vol="123"/>
          <note key="35" pan="0" pos="792" len="24" vol="123"/>
          <note key="35" pan="0" pos="816" len="12" vol="123"/>
          <note key="35" pan="0" pos="840" len="24" vol="123"/>
          <note key="35" pan="0" pos="864" len="24" vol="123"/>
          <note key="35" pan="0" pos="888" len="24" vol="123"/>
          <note key="35" pan="0" pos="912" len="24" vol="123"/>
          <note key="35" pan="0" pos="936" len="24" vol="123"/>
          <note key="35" pan="0" pos="960" len="24" vol="123"/>
          <note key="35" pan="0" pos="984" len="24" vol="123"/>
          <note key="35" pan="0" pos="1008" len="12" vol="123"/>
          <note key="35" pan="0" pos="1032" len="24" vol="123"/>
          <note key="35" pan="0" pos="1056" len="24" vol="123"/>
          <note key="35" pan="0" pos="1080" len="24" vol="123"/>
          <note key="35" pan="0" pos="1104" len="24" vol="123"/>
          <note key="35" pan="0" pos="1128" len="24" vol="123"/>
          <note key="33" pan="0" pos="1152" len="24" vol="123"/>
          <note key="33" pan="0" pos="1176" len="24" vol="123"/>
          <note key="33" pan="0" pos="1200" len="12" vol="123"/>
          <note key="33" pan="0" pos="1224" len="24" vol="123"/>
          <note key="33" pan="0" pos="1248" len="24" vol="123"/>
          <note key="33" pan="0" pos="1272" len="24" vol="123"/>
          <note key="33" pan="0" pos="1296" len="24" vol="123"/>
          <note key="33" pan="0" pos="1320" len="24" vol="123"/>
          <note key="33" pan="0" pos="1344" len="24" vol="123"/>
          <note key="33" pan="0" pos="1368" len="24" vol="123"/>
          <note key="33" pan="0" pos="1392" len="12" vol="123"/>
          <note key="33" pan="0" pos="1416" len="24" vol="123"/>
          <note key="33" pan="0" pos="1440" len="24" vol="123"/>
          <note key="33" pan="0" pos="1464" len="24" vol="123"/>
          <note key="33" pan="0" pos="1488" len="24" vol="123"/>
          <note key="33" pan="0" pos="1512" len="24" vol="123"/>
        </pattern>
        <pattern name="SGM-v2" pos="6144" muted="0" type="1" steps="16">
          <note key="33" pan="0" pos="0" len="24" vol="123"/>
          <note key="33" pan="0" pos="24" len="24" vol="123"/>
          <note key="33" pan="0" pos="48" len="12" vol="123"/>
          <note key="33" pan="0" pos="72" len="24" vol="123"/>
          <note key="33" pan="0" pos="96" len="24" vol="123"/>
          <note key="33" pan="0" pos="120" len="24" vol="123"/>
          <note key="33" pan="0" pos="144" len="24" vol="123"/>
          <note key="33" pan="0" pos="168" len="24" vol="123"/>
          <note key="33" pan="0" pos="192" len="24" vol="123"/>
          <note key="33" pan="0" pos="216" len="24" vol="123"/>
          <note key="33" pan="0" pos="240" len="12" vol="123"/>
          <note key="33" pan="0" pos="264" len="24" vol="123"/>
          <note key="33" pan="0" pos="288" len="24" vol="123"/>
          <note key="33" pan="0" pos="312" len="24" vol="123"/>
          <note key="33" pan="0" pos="336" len="24" vol="123"/>
          <note key="33" pan="0" pos="360" len="24" vol="123"/>
          <note key="36" pan="0" pos="384" len="24" vol="123"/>
          <note key="36" pan="0" pos="408" len="24" vol="123"/>
          <note key="36" pan="0" pos="432" len="12" vol="123"/>
          <note key="36" pan="0" pos="456" len="24" vol="123"/>
          <note key="36" pan="0" pos="480" len="24" vol="123"/>
          <note key="36" pan="0" pos="504" len="24" vol="123"/>
          <note key="36" pan="0" pos="528" len="24" vol="123"/>
          <note key="36" pan="0" pos="552" len="24" vol="123"/>
          <note key="36" pan="0" pos="576" len="24" vol="123"/>
          <note key="36" pan="0" pos="600" len="24" vol="123"/>
          <note key="36" pan="0" pos="624" len="12" vol="123"/>
          <note key="36" pan="0" pos="648" len="24" vol="123"/>
          <note key="36" pan="0" pos="672" len="24" vol="123"/>
          <note key="36" pan="0" pos="696" len="24" vol="123"/>
          <note key="36" pan="0" pos="720" len="24" vol="123"/>
          <note key="36" pan="0" pos="744" len="24" vol="123"/>
          <note key="35" pan="0" pos="768" len="24" vol="123"/>
          <note key="35" pan="0" pos="792" len="24" vol="123"/>
          <note key="35" pan="0" pos="816" len="12" vol="123"/>
          <note key="35" pan="0" pos="840" len="24" vol="123"/>
          <note key="35" pan="0" pos="864" len="24" vol="123"/>
          <note key="35" pan="0" pos="888" len="24" vol="123"/>
          <note key="35" pan="0" pos="912" len="24" vol="123"/>
          <note key="35" pan="0" pos="936" len="24" vol="123"/>
          <note key="35" pan="0" pos="960" len="24" vol="123"/>
          <note key="35" pan="0" pos="984" len="24" vol="123"/>
          <note key="35" pan="0" pos="1008" len="12" vol="123"/>
          <note key="35" pan="0" pos="1032" len="24" vol="123"/>
          <note key="35" pan="0" pos="1056" len="24" vol="123"/>
          <note key="35" pan="0" pos="1080" len="24" vol="123"/>
          <note key="35" pan="0" pos="1104" len="24" vol="123"/>
          <note key="35" pan="0" pos="1128" len="24" vol="123"/>
          <note key="33" pan="0" pos="1152" len="24" vol="123"/>
          <note key="33" pan="0" pos="1176" len="24" vol="123"/>
          <note key="33" pan="0" pos="1200" len="12" vol="123"/>
          <note key="33" pan="0" pos="1224" len="24" vol="123"/>
          <note key="33" pan="0" pos="1248" len="24" vol="123"/>
          <note key="33" pan="0" pos="1272" len="24" vol="123"/>
          <note key="33" pan="0" pos="1296" len="24" vol="123"/>
          <note key="33" pan="0" pos="1320" len="24" vol="123"/>
          <note key="33" pan="0" pos="1344" len="24" vol="123"/>
          <note key="33" pan="0" pos="1368" len="24" vol="123"/>
          <note key="33" pan="0" pos="1392" len="12" vol="123"/>
          <note key="33" pan="0" pos="1416" len="24" vol="123"/>
          <note key="33" pan="0" pos="1440" len="24" vol="123"/>
          <note key="33" pan="0" pos="1464" len="24" vol="123"/>
          <note key="33" pan="0" pos="1488" len="24" vol="123"/>
          <note key="33" pan="0" pos="1512" len="24" vol="123"/>
        </pattern>
        <pattern name="SGM-v2" pos="7680" muted="0" type="1" steps="16">
          <note key="33" pan="0" pos="0" len="24" vol="123"/>
          <note key="33" pan="0" pos="24" len="24" vol="123"/>
          <note key="33" pan="0" pos="48" len="12" vol="123"/>
          <note key="33" pan="0" pos="72" len="24" vol="123"/>
          <note key="33" pan="0" pos="96" len="24" vol="123"/>
          <note key="33" pan="0" pos="120" len="24" vol="123"/>
          <note key="33" pan="0" pos="144" len="24" vol="123"/>
          <note key="33" pan="0" pos="168" len="24" vol="123"/>
          <note key="33" pan="0" pos="192" len="24" vol="123"/>
          <note key="33" pan="0" pos="216" len="24" vol="123"/>
          <note key="33" pan="0" pos="240" len="12" vol="123"/>
          <note key="33" pan="0" pos="264" len="24" vol="123"/>
          <note key="33" pan="0" pos="288" len="24" vol="123"/>
          <note key="33" pan="0" pos="312" len="24" vol="123"/>
          <note key="33" pan="0" pos="336" len="24" vol="123"/>
          <note key="33" pan="0" pos="360" len="24" vol="123"/>
          <note key="36" pan="0" pos="384" len="24" vol="123"/>
          <note key="36" pan="0" pos="408" len="24" vol="123"/>
          <note key="36" pan="0" pos="432" len="12" vol="123"/>
          <note key="36" pan="0" pos="456" len="24" vol="123"/>
          <note key="36" pan="0" pos="480" len="24" vol="123"/>
          <note key="36" pan="0" pos="504" len="24" vol="123"/>
          <note key="36" pan="0" pos="528" len="24" vol="123"/>
          <note key="36" pan="0" pos="552" len="24" vol="123"/>
          <note key="36" pan="0" pos="576" len="24" vol="123"/>
          <note key="36" pan="0" pos="600" len="24" vol="123"/>
          <note key="36" pan="0" pos="624" len="12" vol="123"/>
          <note key="36" pan="0" pos="648" len="24" vol="123"/>
          <note key="36" pan="0" pos="672" len="24" vol="123"/>
          <note key="36" pan="0" pos="696" len="24" vol="123"/>
          <note key="36" pan="0" pos="720" len="24" vol="123"/>
          <note key="36" pan="0" pos="744" len="24" vol="123"/>
          <note key="35" pan="0" pos="768" len="24" vol="123"/>
          <note key="35" pan="0" pos="792" len="24" vol="123"/>
          <note key="35" pan="0" pos="816" len="12" vol="123"/>
          <note key="35" pan="0" pos="840" len="24" vol="123"/>
          <note key="35" pan="0" pos="864" len="24" vol="123"/>
          <note key="35" pan="0" pos="888" len="24" vol="123"/>
          <note key="35" pan="0" pos="912" len="24" vol="123"/>
          <note key="35" pan="0" pos="936" len="24" vol="123"/>
          <note key="35" pan="0" pos="960" len="24" vol="123"/>
          <note key="35" pan="0" pos="984" len="24" vol="123"/>
          <note key="35" pan="0" pos="1008" len="12" vol="123"/>
          <note key="35" pan="0" pos="1032" len="24" vol="123"/>
          <note key="35" pan="0" pos="1056" len="24" vol="123"/>
          <note key="35" pan="0" pos="1080" len="24" vol="123"/>
          <note key="35" pan="0" pos="1104" len="24" vol="123"/>
          <note key="35" pan="0" pos="1128" len="24" vol="123"/>
          <note key="33" pan="0" pos="1152" len="24" vol="123"/>
          <note key="33" pan="0" pos="1176" len="24" vol="123"/>
          <note key="33" pan="0" pos="1200" len="12" vol="123"/>
          <note key="33" pan="0" pos="1224" len="24" vol="123"/>
          <note key="33" pan="0" pos="1248" len="24" vol="123"/>
          <note key="33" pan="0" pos="1272" len="24" vol="123"/>
          <note key="33" pan="0" pos="1296" len="24" vol="123"/>
          <note key="33" pan="0" pos="1320" len="24" vol="123"/>
          <note key="33" pan="0" pos="1344" len="24" vol="123"/>
          <note key="33" pan="0" pos="1368" len="24" vol="123"/>
          <note key="33" pan="0" pos="1392" len="12" vol="123"/>
          <note key="33" pan="0" pos="1416" len="24" vol="123"/>
          <note key="33" pan="0" pos="1440" len="24" vol="123"/>
          <note key="33" pan="0" pos="1464" len="24" vol="123"/>
          <note key="33" pan="0" pos="1488" len="24" vol="123"/>
          <note key="33" pan="0" pos="1512" len="24" vol="123"/>
        </pattern>
        <pattern name="SGM-v2" pos="9216" muted="0" type="1" steps="16">
          <note key="33" pan="0" pos="0" len="24" vol="123"/>
          <note key="33" pan="0" pos="24" len="24" vol="123"/>
          <note key="33" pan="0" pos="48" len="12" vol="123"/>
          <note key="33" pan="0" pos="72" len="24" vol="123"/>
          <note key="33" pan="0" pos="96" len="24" vol="123"/>
          <note key="33" pan="0" pos="120" len="24" vol="123"/>
          <note key="33" pan="0" pos="144" len="24" vol="123"/>
          <note key="33" pan="0" pos="168" len="24" vol="123"/>
          <note key="33" pan="0" pos="192" len="24" vol="123"/>
          <note key="33" pan="0" pos="216" len="24" vol="123"/>
          <note key="33" pan="0" pos="240" len="12" vol="123"/>
          <note key="33" pan="0" pos="264" len="24" vol="123"/>
          <note key="33" pan="0" pos="288" len="24" vol="123"/>
          <note key="33" pan="0" pos="312" len="24" vol="123"/>
          <note key="33" pan="0" pos="336" len="24" vol="123"/>
          <note key="33" pan="0" pos="360" len="24" vol="123"/>
          <note key="36" pan="0" pos="384" len="24" vol="123"/>
          <note key="36" pan="0" pos="408" len="24" vol="123"/>
          <note key="36" pan="0" pos="432" len="12" vol="123"/>
          <note key="36" pan="0" pos="456" len="24" vol="123"/>
          <note key="36" pan="0" pos="480" len="24" vol="123"/>
          <note key="36" pan="0" pos="504" len="24" vol="123"/>
          <note key="36" pan="0" pos="528" len="24" vol="123"/>
          <note key="36" pan="0" pos="552" len="24" vol="123"/>
          <note key="36" pan="0" pos="576" len="24" vol="123"/>
          <note key="36" pan="0" pos="600" len="24" vol="123"/>
          <note key="36" pan="0" pos="624" len="12" vol="123"/>
          <note key="36" pan="0" pos="648" len="24" vol="123"/>
          <note key="36" pan="0" pos="672" len="24" vol="123"/>
          <note key="36" pan="0" pos="696" len="24" vol="123"/>
          <note key="36" pan="0" pos="720" len="24" vol="123"/>
          <note key="36" pan="0" pos="744" len="24" vol="123"/>
          <note key="35" pan="0" pos="768" len="24" vol="123"/>
          <note key="35" pan="0" pos="792" len="24" vol="123"/>
          <note key="35" pan="0" pos="816" len="12" vol="123"/>
          <note key="35" pan="0" pos="840" len="24" vol="123"/>
          <note key="35" pan="0" pos="864" len="24" vol="123"/>
          <note key="35" pan="0" pos="888" len="24" vol="123"/>
          <note key="35" pan="0" pos="912" len="24" vol="123"/>
          <note key="35" pan="0" pos="936" len="24" vol="123"/>
          <note key="35" pan="0" pos="960" len="24" vol="123"/>
          <note key="35" pan="0" pos="984" len="24" vol="123"/>
          <note key="35" pan="0" pos="1008" len="12" vol="123"/>
          <note key="35" pan="0" pos="1032" len="24" vol="123"/>
          <note key="35" pan="0" pos="1056" len="24" vol="123"/>
          <note key="35" pan="0" pos="1080" len="24" vol="123"/>
          <note key="35" pan="0" pos="1104" len="24" vol="123"/>
          <note key="35" pan="0" pos="1128" len="24" vol="123"/>
          <note key="33" pan="0" pos="1152" len="24" vol="123"/>
          <note key="33" pan="0" pos="1176" len="24" vol="123"/>
          <note key="33" pan="0" pos="1200" len="12" vol="123"/>
          <note key="33" pan="0" pos="1224" len="24" vol="123"/>
          <note key="33" pan="0" pos="1248" len="24" vol="123"/>
          <note key="33" pan="0" pos="1272" len="24" vol="123"/>
          <note key="33" pan="0" pos="1296" len="24" vol="123"/>
          <note key="33" pan="0" pos="1320" len="24" vol="123"/>
          <note key="33" pan="0" pos="1344" len="24" vol="123"/>
          <note key="33" pan="0" pos="1368" len="24" vol="123"/>
          <note key="33" pan="0" pos="1392" len="12" vol="123"/>
          <note key="33" pan="0" pos="1416" len="24" vol="123"/>
          <note key="33" pan="0" pos="1440" len="24" vol="123"/>
          <note key="33" pan="0" pos="1464" len="24" vol="123"/>
          <note key="33" pan="0" pos="1488" len="24" vol="123"/>
          <note key="33" pan="0" pos="1512" len="24" vol="123"/>
        </pattern>
        <pattern name="SGM-v2" pos="12288" muted="0" type="1" steps="16">
          <note key="33" pan="0" pos="0" len="24" vol="123"/>
          <note key="33" pan="0" pos="24" len="24" vol="123"/>
          <note key="33" pan="0" pos="48" len="12" vol="123"/>
          <note key="33" pan="0" pos="72" len="24" vol="123"/>
          <note key="33" pan="0" pos="96" len="24" vol="123"/>
          <note key="33" pan="0" pos="120" len="24" vol="123"/>
          <note key="33" pan="0" pos="144" len="24" vol="123"/>
          <note key="33" pan="0" pos="168" len="24" vol="123"/>
          <note key="33" pan="0" pos="192" len="24" vol="123"/>
          <note key="33" pan="0" pos="216" len="24" vol="123"/>
          <note key="33" pan="0" pos="240" len="12" vol="123"/>
          <note key="33" pan="0" pos="264" len="24" vol="123"/>
          <note key="33" pan="0" pos="288" len="24" vol="123"/>
          <note key="33" pan="0" pos="312" len="24" vol="123"/>
          <note key="33" pan="0" pos="336" len="24" vol="123"/>
          <note key="33" pan="0" pos="360" len="24" vol="123"/>
          <note key="36" pan="0" pos="384" len="24" vol="123"/>
          <note key="36" pan="0" pos="408" len="24" vol="123"/>
          <note key="36" pan="0" pos="432" len="12" vol="123"/>
          <note key="36" pan="0" pos="456" len="24" vol="123"/>
          <note key="36" pan="0" pos="480" len="24" vol="123"/>
          <note key="36" pan="0" pos="504" len="24" vol="123"/>
          <note key="36" pan="0" pos="528" len="24" vol="123"/>
          <note key="36" pan="0" pos="552" len="24" vol="123"/>
          <note key="36" pan="0" pos="576" len="24" vol="123"/>
          <note key="36" pan="0" pos="600" len="24" vol="123"/>
          <note key="36" pan="0" pos="624" len="12" vol="123"/>
          <note key="36" pan="0" pos="648" len="24" vol="123"/>
          <note key="36" pan="0" pos="672" len="24" vol="123"/>
          <note key="36" pan="0" pos="696" len="24" vol="123"/>
          <note key="36" pan="0" pos="720" len="24" vol="123"/>
          <note key="36" pan="0" pos="744" len="24" vol="123"/>
          <note key="35" pan="0" pos="768" len="24" vol="123"/>
          <note key="35" pan="0" pos="792" len="24" vol="123"/>
          <note key="35" pan="0" pos="816" len="12" vol="123"/>
          <note key="35" pan="0" pos="840" len="24" vol="123"/>
          <note key="35" pan="0" pos="864" len="24" vol="123"/>
          <note key="35" pan="0" pos="888" len="24" vol="123"/>
          <note key="35" pan="0" pos="912" len="24" vol="123"/>
          <note key="35" pan="0" pos="936" len="24" vol="123"/>
          <note key="35" pan="0" pos="960" len="24" vol="123"/>
          <note key="35" pan="0" pos="984" len="24" vol="123"/>
          <note key="35" pan="0" pos="1008" len="12" vol="123"/>
          <note key="35" pan="0" pos="1032" len="24" vol="123"/>
          <note key="35" pan="0" pos="1056" len="24" vol="123"/>
          <note key="35" pan="0" pos="1080" len="24" vol="123"/>
          <note key="35" pan="0" pos="1104" len="24" vol="123"/>
          <note key="35" pan="0" pos="1128" len="24" vol="123"/>
          <note key="33" pan="0" pos="1152" len="24" vol="123"/>
          <note key="33" pan="0" pos="1176" len="24" vol="123"/>
          <note key="33" pan="0" pos="1200" len="12" vol="123"/>
          <note key="33" pan="0" pos="1224" len="24" vol="123"/>
          <note key="33" pan="0" pos="1248" len="24" vol="123"/>
          <note key="33" pan="0" pos="1272" len="24" vol="123"/>
          <note key="33" pan="0" pos="1296" len="24" vol="123"/>
          <note key="33" pan="0" pos="1320" len="24" vol="123"/>
          <note key="33" pan="0" pos="1344" len="24" vol="123"/>
          <note key="33" pan="0" pos="1368" len="24" vol="123"/>
          <note key="33" pan="0" pos="1392" len="12" vol="123"/>
          <note key="33" pan="0" pos="1416" len="24" vol="123"/>
          <note key="33" pan="0" pos="1440" len="24" vol="123"/>
          <note key="33" pan="0" pos="1464" len="24" vol="123"/>
          <note key="33" pan="0" pos="1488" len="24" vol="123"/>
          <note key="33" pan="0" pos="1512" len="24" vol="123"/>
        </pattern>
        <pattern name="SGM-v2" pos="13824" muted="0" type="1" steps="16">
          <note key="33" pan="0" pos="0" len="24" vol="123"/>
          <note key="33" pan="0" pos="24" len="24" vol="123"/>
          <note key="33" pan="0" pos="48" len="12" vol="123"/>
          <note key="33" pan="0" pos="72" len="24" vol="123"/>
          <note key="33" pan="0" pos="96" len="24" vol="123"/>
          <note key="33" pan="0" pos="120" len="24" vol="123"/>
          <note key="33" pan="0" pos="144" len="24" vol="123"/>
          <note key="33" pan="0" pos="168" len="24" vol="123"/>
          <note key="33" pan="0" pos="192" len="24" vol="123"/>
          <note key="33" pan="0" pos="216" len="24" vol="123"/>
          <note key="33" pan="0" pos="240" len="12" vol="123"/>
          <note key="33" pan="0" pos="264" len="24" vol="123"/>
          <note key="33" pan="0" pos="288" len="24" vol="123"/>
          <note key="33" pan="0" pos="312" len="24" vol="123"/>
          <note key="33" pan="0" pos="336" len="24" vol="123"/>
          <note key="33" pan="0" pos="360" len="24" vol="123"/>
          <note key="36" pan="0" pos="384" len="24" vol="123"/>
          <note key="36" pan="0" pos="408" len="24" vol="123"/>
          <note key="36" pan="0" pos="432" len="12" vol="123"/>
          <note key="36" pan="0" pos="456" len="24" vol="123"/>
          <note key="36" pan="0" pos="480" len="24" vol="123"/>
          <note key="36" pan="0" pos="504" len="24" vol="123"/>
          <note key="36" pan="0" pos="528" len="24" vol="123"/>
          <note key="36" pan="0" pos="552" len="24" vol="123"/>
          <note key="36" pan="0" pos="576" len="24" vol="123"/>
          <note key="36" pan="0" pos="600" len="24" vol="123"/>
          <note key="36" pan="0" pos="624" len="12" vol="123"/>
          <note key="36" pan="0" pos="648" len="24" vol="123"/>
          <note key="36" pan="0" pos="672" len="24" vol="123"/>
          <note key="36" pan="0" pos="696" len="24" vol="123"/>
          <note key="36" pan="0" pos="720" len="24" vol="123"/>
          <note key="36" pan="0" pos="744" len="24" vol="123"/>
          <note key="35" pan="0" pos="768" len="24" vol="123"/>
          <note key="35" pan="0" pos="792" len="24" vol="123"/>
          <note key="35" pan="0" pos="816" len="12" vol="123"/>
          <note key="35" pan="0" pos="840" len="24" vol="123"/>
          <note key="35" pan="0" pos="864" len="24" vol="123"/>
          <note key="35" pan="0" pos="888" len="24" vol="123"/>
          <note key="35" pan="0" pos="912" len="24" vol="123"/>
          <note key="35" pan="0" pos="936" len="24" vol="123"/>
          <note key="35" pan="0" pos="960" len="24" vol="123"/>
          <note key="35" pan="0" pos="984" len="24" vol="123"/>
          <note key="35" pan="0" pos="1008" len="12" vol="123"/>
          <note key="35" pan="0" pos="1032" len="24" vol="123"/>
          <note key="35" pan="0" pos="1056" len="24" vol="123"/>
          <note key="35" pan="0" pos="1080" len="24" vol="123"/>
          <note key="35" pan="0" pos="1104" len="24" vol="123"/>
          <note key="35" pan="0" pos="1128" len="24" vol="123"/>
          <note key="33" pan="0" pos="1152" len="24" vol="123"/>
          <note key="33" pan="0" pos="1176" len="24" vol="123"/>
          <note key="33" pan="0" pos="1200" len="12" vol="123"/>
          <note key="33" pan="0" pos="1224" len="24" vol="123"/>
          <note key="33" pan="0" pos="1248" len="24" vol="123"/>
          <note key="33" pan="0" pos="1272" len="24" vol="123"/>
          <note key="33" pan="0" pos="1296" len="24" vol="123"/>
          <note key="33" pan="0" pos="1320" len="24" vol="123"/>
          <note key="33" pan="0" pos="1344" len="24" vol="123"/>
          <note key="33" pan="0" pos="1368" len="24" vol="123"/>
          <note key="33" pan="0" pos="1392" len="12" vol="123"/>
          <note key="33" pan="0" pos="1416" len="24" vol="123"/>
          <note key="33" pan="0" pos="1440" len="24" vol="123"/>
          <note key="33" pan="0" pos="1464" len="24" vol="123"/>
          <note key="33" pan="0" pos="1488" len="24" vol="123"/>
          <note key="33" pan="0" pos="1512" len="24" vol="123"/>
        </pattern>
        <pattern name="SGM-v2" pos="16896" muted="0" type="1" steps="16">
          <note key="45" pan="0" pos="0" len="24" vol="100"/>
        </pattern>
        <pattern name="SGM-v2" pos="15360" muted="0" type="1" steps="16">
          <note key="33" pan="0" pos="0" len="24" vol="123"/>
          <note key="33" pan="0" pos="24" len="24" vol="123"/>
          <note key="33" pan="0" pos="48" len="12" vol="123"/>
          <note key="33" pan="0" pos="72" len="24" vol="123"/>
          <note key="33" pan="0" pos="96" len="24" vol="123"/>
          <note key="33" pan="0" pos="120" len="24" vol="123"/>
          <note key="33" pan="0" pos="144" len="24" vol="123"/>
          <note key="33" pan="0" pos="168" len="24" vol="123"/>
          <note key="33" pan="0" pos="192" len="24" vol="123"/>
          <note key="33" pan="0" pos="216" len="24" vol="123"/>
          <note key="33" pan="0" pos="240" len="12" vol="123"/>
          <note key="33" pan="0" pos="264" len="24" vol="123"/>
          <note key="33" pan="0" pos="288" len="24" vol="123"/>
          <note key="33" pan="0" pos="312" len="24" vol="123"/>
          <note key="33" pan="0" pos="336" len="24" vol="123"/>
          <note key="33" pan="0" pos="360" len="24" vol="123"/>
          <note key="31" pan="0" pos="384" len="24" vol="123"/>
          <note key="31" pan="0" pos="408" len="24" vol="123"/>
          <note key="31" pan="0" pos="432" len="12" vol="123"/>
          <note key="31" pan="0" pos="456" len="24" vol="123"/>
          <note key="31" pan="0" pos="480" len="24" vol="123"/>
          <note key="31" pan="0" pos="504" len="24" vol="123"/>
          <note key="31" pan="0" pos="528" len="24" vol="123"/>
          <note key="31" pan="0" pos="552" len="24" vol="123"/>
          <note key="28" pan="0" pos="576" len="24" vol="123"/>
          <note key="28" pan="0" pos="600" len="24" vol="123"/>
          <note key="28" pan="0" pos="624" len="12" vol="123"/>
          <note key="28" pan="0" pos="648" len="24" vol="123"/>
          <note key="28" pan="0" pos="672" len="24" vol="123"/>
          <note key="28" pan="0" pos="696" len="24" vol="123"/>
          <note key="28" pan="0" pos="720" len="24" vol="123"/>
          <note key="31" pan="0" pos="744" len="24" vol="123"/>
        </pattern>
        <pattern name="SGM-v2" pos="16128" muted="0" type="1" steps="16">
          <note key="33" pan="0" pos="0" len="24" vol="123"/>
          <note key="33" pan="0" pos="24" len="24" vol="123"/>
          <note key="33" pan="0" pos="48" len="12" vol="123"/>
          <note key="33" pan="0" pos="72" len="24" vol="123"/>
          <note key="33" pan="0" pos="96" len="24" vol="123"/>
          <note key="33" pan="0" pos="120" len="24" vol="123"/>
          <note key="33" pan="0" pos="144" len="24" vol="123"/>
          <note key="33" pan="0" pos="168" len="24" vol="123"/>
          <note key="33" pan="0" pos="192" len="24" vol="123"/>
          <note key="33" pan="0" pos="216" len="24" vol="123"/>
          <note key="33" pan="0" pos="240" len="12" vol="123"/>
          <note key="33" pan="0" pos="264" len="24" vol="123"/>
          <note key="33" pan="0" pos="288" len="24" vol="123"/>
          <note key="33" pan="0" pos="312" len="24" vol="123"/>
          <note key="33" pan="0" pos="336" len="24" vol="123"/>
          <note key="33" pan="0" pos="360" len="24" vol="123"/>
          <note key="31" pan="0" pos="384" len="24" vol="123"/>
          <note key="31" pan="0" pos="408" len="24" vol="123"/>
          <note key="31" pan="0" pos="432" len="12" vol="123"/>
          <note key="31" pan="0" pos="456" len="24" vol="123"/>
          <note key="31" pan="0" pos="480" len="24" vol="123"/>
          <note key="31" pan="0" pos="504" len="24" vol="123"/>
          <note key="31" pan="0" pos="528" len="24" vol="123"/>
          <note key="31" pan="0" pos="552" len="24" vol="123"/>
          <note key="28" pan="0" pos="576" len="24" vol="123"/>
          <note key="28" pan="0" pos="600" len="24" vol="123"/>
          <note key="28" pan="0" pos="624" len="12" vol="123"/>
          <note key="28" pan="0" pos="648" len="24" vol="123"/>
          <note key="28" pan="0" pos="672" len="24" vol="123"/>
          <note key="28" pan="0" pos="696" len="24" vol="123"/>
          <note key="28" pan="0" pos="720" len="24" vol="123"/>
          <note key="31" pan="0" pos="744" len="24" vol="123"/>
        </pattern>
      </track>
    </trackcontainer>
    <track name="Automation track" muted="0" type="6" solo="0">
      <automationtrack/>
      <automationpattern prog="0" mute="0" pos="0" name="Numerator" len="192" tens="1"/>
      <automationpattern prog="0" mute="0" pos="0" name="Denominator" len="192" tens="1"/>
      <automationpattern prog="0" mute="0" pos="0" name="Tempo" len="192" tens="1"/>
      <automationpattern prog="0" mute="0" pos="0" name="Master volume" len="192" tens="1"/>
      <automationpattern prog="0" mute="0" pos="0" name="Master pitch" len="192" tens="1"/>
      <automationpattern prog="0" mute="0" pos="0" name="Numerator" len="192" tens="1"/>
      <automationpattern prog="0" mute="0" pos="0" name="Denominator" len="192" tens="1"/>
      <automationpattern prog="0" mute="0" pos="0" name="Tempo" len="192" tens="1"/>
      <automationpattern prog="0" mute="0" pos="0" name="Master volume" len="192" tens="1"/>
      <automationpattern prog="0" mute="0" pos="0" name="Master pitch" len="192" tens="1"/>
    </track>
    <fxmixer visible="0" y="535" x="193" width="561" height="333" minimized="0" maximized="0">
      <fxchannel soloed="0" volume="0.55300003" muted="0" name="Master" num="0">
        <fxchain numofeffects="1" enabled="1">
          <effect gate="0" on="1" autoquit_syncmode="0" autoquit="1" name="ladspaeffect" autoquit_numerator="4" wet="1" autoquit_denominator="4">
            <ladspacontrols ports="18">
              <port04 data="0"/>
              <port05 data="1"/>
              <port010 data="0.23227294"/>
              <port011 data="1"/>
              <port012>
                <data value="4.472136" scale_type="log" id="2302665"/>
              </port012>
              <port013>
                <data value="94.574165" scale_type="log" id="2978773"/>
              </port013>
              <port014 data="1"/>
              <port015 data="2.75"/>
              <port016 data="0"/>
              <port017 data="0"/>
              <port019 data="0"/>
              <port020>
                <data value="424.26407" scale_type="log" id="7285287"/>
              </port020>
              <port021>
                <data value="2763.468" scale_type="log" id="7475496"/>
              </port021>
              <port022 data="1"/>
              <port023 data="1"/>
              <port024 data="0"/>
              <port027 data="0"/>
              <port028 data="1"/>
            </ladspacontrols>
            <key>
              <attribute value="calf" name="file"/>
              <attribute value="Sidechaincompressor" name="plugin"/>
            </key>
          </effect>
        </fxchain>
      </fxchannel>
      <fxchannel soloed="0" volume="0.44999999" muted="0" name="Percussion" num="1">
        <fxchain numofeffects="0" enabled="0"/>
        <send amount="1" channel="0"/>
      </fxchannel>
      <fxchannel soloed="0" volume="0.33600003" muted="0" name="SBass" num="2">
        <fxchain numofeffects="2" enabled="1">
          <effect gate="0" on="1" autoquit_syncmode="0" autoquit="1" name="ladspaeffect" autoquit_numerator="4" wet="1" autoquit_denominator="4">
            <ladspacontrols ports="4">
              <port02 data="0.50200003"/>
              <port03 data="0.16290751"/>
              <port04 data="0.250375"/>
              <port05 data="0.25"/>
            </ladspacontrols>
            <key>
              <attribute value="caps" name="file"/>
              <attribute value="Plate2x2" name="plugin"/>
            </key>
          </effect>
          <effect gate="0" on="1" autoquit_syncmode="0" autoquit="1" name="multitapecho" autoquit_numerator="4" wet="1" autoquit_denominator="4">
            <multitapechocontrols stages="1" ampsteps="AAC4wNEiFcEkSlfBH5WcwR+ZrsFfTs/B9p7ZwTMz68E=" lpsteps="Fc4qQPpbIkDifBtA+9wTQLiJD0CVVgtATfwBQKRw/T8=" steplength_syncmode="0" steplength="100" swapinputs="0" steps="8" drygain="0" steplength_numerator="4" steplength_denominator="4"/>
            <key/>
          </effect>
        </fxchain>
        <send amount="1" channel="0"/>
      </fxchannel>
      <fxchannel soloed="0" volume="0.69999999" muted="0" name="Organic" num="3">
        <fxchain numofeffects="0" enabled="0"/>
        <send amount="1" channel="0"/>
      </fxchannel>
      <fxchannel soloed="0" volume="0.79999995" muted="0" name="BitInvader" num="4">
        <fxchain numofeffects="0" enabled="0"/>
        <send amount="1" channel="0"/>
      </fxchannel>
      <fxchannel soloed="0" volume="0.81400001" muted="0" name="Erazzor" num="5">
        <fxchain numofeffects="0" enabled="0"/>
        <send amount="1" channel="0"/>
      </fxchannel>
    </fxmixer>
    <ControllerRackView visible="0" y="407" x="660" width="350" height="200" minimized="0" maximized="0"/>
    <pianoroll visible="0" y="334" x="183" width="860" height="487" minimized="0" maximized="0"/>
    <automationeditor visible="0" y="255" x="1" width="860" height="400" minimized="0" maximized="0"/>
    <projectnotes visible="0" y="466" x="543" width="860" height="400" minimized="0" maximized="0"><![CDATA[<!DOCTYPE HTML PUBLIC "-//W3C//DTD HTML 4.0//EN" "http://www.w3.org/TR/REC-html40/strict.dtd">
<html><head><meta name="qrichtext" content="1" /><style type="text/css">
p, li { white-space: pre-wrap; }
</style></head><body style=" font-family:'Sans Serif'; font-size:9pt; font-weight:400; font-style:normal;">
<p style=" margin-top:0px; margin-bottom:0px; margin-left:0px; margin-right:0px; -qt-block-indent:0; text-indent:0px;"><span style=" color:#e0e0e0;">Pushing Onward</span></p>
<p style=" margin-top:0px; margin-bottom:0px; margin-left:0px; margin-right:0px; -qt-block-indent:0; text-indent:0px;"><span style=" color:#e0e0e0;">==============</span></p></body></html>]]></projectnotes>
    <timeline lp1pos="17088" lpstate="1" lp0pos="0"/>
    <controllers/>
  </song>
</lmms-project>
