<?xml version="1.0"?>
<!DOCTYPE lmms-project>
<lmms-project type="song" creator="LMMS" creatorversion="1.2.2" version="1.0">
  <head timesig_denominator="4" bpm="120" timesig_numerator="4" mastervol="100" masterpitch="0"/>
  <song>
    <trackcontainer y="45" height="594" x="33" visible="1" type="song" width="1619" maximized="0" minimized="0">
      <track name="Drums" muted="0" type="0" solo="0">
        <instrumenttrack fxch="0" vol="130" basenote="57" usemasterpitch="1" pitchrange="1" pan="-2.4000001" pitch="0">
          <instrument name="sf2player">
            <sf2player chorusSpeed="0.30000001" patch="30" reverbRoomSize="0.2" chorusLevel="2" chorusDepth="8" gain="1" reverbWidth="0.5" chorusOn="0" chorusNum="0.89999998" src="soundfonts/SGM-v2.01-HQ-v3.0.sf2" reverbOn="0" bank="128" reverbDamping="0.2" reverbLevel="0.89999998"/>
          </instrument>
          <eldata fwet="0" fcut="14000" fres="0.5" ftype="0">
            <elvol ctlenvamt="0" att="0" lspd_denominator="4" x100="0" lspd="0.1" dec="0.5" rel="0.1" lspd_numerator="4" hold="0.5" lpdel="0" amt="0" lshp="0" pdel="0" latt="0" sustain="0.5" userwavefile="" lamt="0" lspd_syncmode="0"/>
            <elcut ctlenvamt="0" att="0" lspd_denominator="4" x100="0" lspd="0.1" dec="0.5" rel="0.1" lspd_numerator="4" hold="0.5" lpdel="0" amt="0" lshp="0" pdel="0" latt="0" sustain="0.5" userwavefile="" lamt="0" lspd_syncmode="0"/>
            <elres ctlenvamt="0" att="0" lspd_denominator="4" x100="0" lspd="0.1" dec="0.5" rel="0.1" lspd_numerator="4" hold="0.5" lpdel="0" amt="0" lshp="0" pdel="0" latt="0" sustain="0.5" userwavefile="" lamt="0" lspd_syncmode="0"/>
          </eldata>
          <chordcreator chord-enabled="0" chord="0" chordrange="1"/>
          <arpeggiator arpskip="0" arptime="200" arpdir="0" arpmode="0" arp-enabled="0" arpmiss="0" arpcycle="0" arptime_syncmode="0" arpgate="100" arptime_numerator="4" arp="0" arprange="1" arptime_denominator="4"/>
          <midiport inputcontroller="0" fixedoutputnote="-1" outputcontroller="0" inputchannel="0" fixedinputvelocity="-1" writable="0" outputchannel="1" fixedoutputvelocity="-1" readable="0" outputprogram="1" basevelocity="63"/>
          <fxchain numofeffects="3" enabled="1">
            <effect name="amplifier" on="1" autoquit_numerator="4" gate="0" autoquit="1" wet="1" autoquit_syncmode="0" autoquit_denominator="4">
              <AmplifierControls volume="200" left="100" right="100" pan="0"/>
              <key/>
            </effect>
            <effect name="ladspaeffect" on="1" autoquit_numerator="4" gate="0" autoquit="1" wet="1" autoquit_syncmode="0" autoquit_denominator="4">
              <ladspacontrols ports="4" link="1">
                <port00 link="1" data="30"/>
                <port01 link="1" data="-7.6499996"/>
                <port10 data="30"/>
                <port11 data="-7.6499996"/>
              </ladspacontrols>
              <key>
                <attribute name="file" value="satan_maximiser_1408"/>
                <attribute name="plugin" value="satanMaximiser"/>
              </key>
            </effect>
            <effect name="ladspaeffect" on="1" autoquit_numerator="4" gate="0" autoquit="1" wet="1" autoquit_syncmode="0" autoquit_denominator="4">
              <ladspacontrols ports="18">
                <port04 data="0"/>
                <port05 data="1"/>
                <port010 data="0.25073242"/>
                <port011 data="1.9712499"/>
                <port012>
                  <data id="928098" value="4.472136" scale_type="log"/>
                </port012>
                <port013>
                  <data id="2317995" value="94.574165" scale_type="log"/>
                </port013>
                <port014 data="1"/>
                <port015 data="2.75"/>
                <port016 data="0"/>
                <port017 data="0"/>
                <port019 data="0"/>
                <port020>
                  <data id="3091942" value="424.26407" scale_type="log"/>
                </port020>
                <port021>
                  <data id="5207506" value="2763.468" scale_type="log"/>
                </port021>
                <port022 data="1"/>
                <port023 data="1"/>
                <port024 data="0"/>
                <port027 data="0"/>
                <port028 data="1"/>
              </ladspacontrols>
              <key>
                <attribute name="file" value="calf"/>
                <attribute name="plugin" value="Sidechaincompressor"/>
              </key>
            </effect>
          </fxchain>
        </instrumenttrack>
        <pattern name="Drums" muted="0" steps="16" pos="768" type="1">
          <note pos="0" vol="153" key="43" len="48" pan="0"/>
          <note pos="0" vol="153" key="37" len="48" pan="0"/>
          <note pos="0" vol="126" key="32" len="12" pan="0"/>
          <note pos="0" vol="126" key="24" len="12" pan="0"/>
          <note pos="12" vol="89" key="32" len="12" pan="0"/>
          <note pos="24" vol="126" key="32" len="12" pan="0"/>
          <note pos="36" vol="94" key="32" len="12" pan="0"/>
          <note pos="36" vol="126" key="24" len="12" pan="0"/>
          <note pos="48" vol="126" key="32" len="12" pan="0"/>
          <note pos="48" vol="145" key="28" len="12" pan="0"/>
          <note pos="60" vol="102" key="32" len="12" pan="0"/>
          <note pos="72" vol="126" key="32" len="12" pan="0"/>
          <note pos="72" vol="126" key="24" len="12" pan="0"/>
          <note pos="84" vol="94" key="32" len="12" pan="0"/>
          <note pos="84" vol="126" key="24" len="12" pan="0"/>
          <note pos="96" vol="123" key="32" len="12" pan="0"/>
          <note pos="108" vol="91" key="32" len="12" pan="0"/>
          <note pos="108" vol="145" key="28" len="12" pan="0"/>
          <note pos="120" vol="117" key="32" len="12" pan="0"/>
          <note pos="120" vol="126" key="24" len="12" pan="0"/>
          <note pos="132" vol="85" key="32" len="12" pan="0"/>
          <note pos="144" vol="121" key="32" len="12" pan="0"/>
          <note pos="144" vol="145" key="28" len="12" pan="0"/>
          <note pos="156" vol="87" key="32" len="12" pan="0"/>
          <note pos="168" vol="123" key="32" len="12" pan="0"/>
          <note pos="168" vol="126" key="24" len="12" pan="0"/>
          <note pos="180" vol="94" key="32" len="12" pan="0"/>
          <note pos="180" vol="145" key="28" len="12" pan="0"/>
          <note pos="192" vol="126" key="32" len="12" pan="0"/>
          <note pos="192" vol="126" key="24" len="12" pan="0"/>
          <note pos="204" vol="102" key="32" len="12" pan="0"/>
          <note pos="216" vol="126" key="32" len="12" pan="0"/>
          <note pos="228" vol="94" key="32" len="12" pan="0"/>
          <note pos="228" vol="126" key="24" len="12" pan="0"/>
          <note pos="240" vol="126" key="32" len="12" pan="0"/>
          <note pos="240" vol="145" key="28" len="12" pan="0"/>
          <note pos="252" vol="102" key="32" len="12" pan="0"/>
          <note pos="264" vol="126" key="32" len="12" pan="0"/>
          <note pos="264" vol="126" key="24" len="12" pan="0"/>
          <note pos="276" vol="94" key="32" len="12" pan="0"/>
          <note pos="276" vol="126" key="24" len="12" pan="0"/>
          <note pos="288" vol="123" key="32" len="12" pan="0"/>
          <note pos="300" vol="91" key="32" len="12" pan="0"/>
          <note pos="300" vol="145" key="28" len="12" pan="0"/>
          <note pos="312" vol="117" key="32" len="12" pan="0"/>
          <note pos="312" vol="126" key="24" len="12" pan="0"/>
          <note pos="324" vol="85" key="32" len="12" pan="0"/>
          <note pos="336" vol="121" key="32" len="12" pan="0"/>
          <note pos="336" vol="145" key="28" len="12" pan="0"/>
          <note pos="348" vol="87" key="32" len="12" pan="0"/>
          <note pos="360" vol="123" key="32" len="12" pan="0"/>
          <note pos="360" vol="126" key="24" len="12" pan="0"/>
          <note pos="372" vol="94" key="32" len="12" pan="0"/>
          <note pos="372" vol="145" key="28" len="12" pan="0"/>
          <note pos="384" vol="126" key="32" len="12" pan="0"/>
          <note pos="384" vol="126" key="24" len="12" pan="0"/>
          <note pos="396" vol="102" key="32" len="12" pan="0"/>
          <note pos="408" vol="126" key="32" len="12" pan="0"/>
          <note pos="420" vol="94" key="32" len="12" pan="0"/>
          <note pos="420" vol="126" key="24" len="12" pan="0"/>
          <note pos="432" vol="126" key="32" len="12" pan="0"/>
          <note pos="432" vol="145" key="28" len="12" pan="0"/>
          <note pos="444" vol="102" key="32" len="12" pan="0"/>
          <note pos="456" vol="126" key="32" len="12" pan="0"/>
          <note pos="456" vol="126" key="24" len="12" pan="0"/>
          <note pos="468" vol="94" key="32" len="12" pan="0"/>
          <note pos="468" vol="126" key="24" len="12" pan="0"/>
          <note pos="480" vol="123" key="32" len="12" pan="0"/>
          <note pos="492" vol="91" key="32" len="12" pan="0"/>
          <note pos="492" vol="145" key="28" len="12" pan="0"/>
          <note pos="504" vol="117" key="32" len="12" pan="0"/>
          <note pos="504" vol="126" key="24" len="12" pan="0"/>
          <note pos="516" vol="85" key="32" len="12" pan="0"/>
          <note pos="528" vol="121" key="32" len="12" pan="0"/>
          <note pos="528" vol="145" key="28" len="12" pan="0"/>
          <note pos="540" vol="87" key="32" len="12" pan="0"/>
          <note pos="552" vol="123" key="32" len="12" pan="0"/>
          <note pos="552" vol="126" key="24" len="12" pan="0"/>
          <note pos="564" vol="94" key="32" len="12" pan="0"/>
          <note pos="564" vol="145" key="28" len="12" pan="0"/>
          <note pos="576" vol="126" key="32" len="12" pan="0"/>
          <note pos="576" vol="126" key="24" len="12" pan="0"/>
          <note pos="588" vol="102" key="32" len="12" pan="0"/>
          <note pos="600" vol="126" key="32" len="12" pan="0"/>
          <note pos="612" vol="94" key="32" len="12" pan="0"/>
          <note pos="612" vol="126" key="24" len="12" pan="0"/>
          <note pos="624" vol="126" key="32" len="12" pan="0"/>
          <note pos="624" vol="145" key="28" len="12" pan="0"/>
          <note pos="636" vol="102" key="32" len="12" pan="0"/>
          <note pos="648" vol="126" key="32" len="12" pan="0"/>
          <note pos="648" vol="126" key="24" len="12" pan="0"/>
          <note pos="660" vol="94" key="32" len="12" pan="0"/>
          <note pos="660" vol="126" key="24" len="12" pan="0"/>
          <note pos="672" vol="123" key="32" len="12" pan="0"/>
          <note pos="684" vol="91" key="32" len="12" pan="0"/>
          <note pos="684" vol="145" key="28" len="12" pan="0"/>
          <note pos="696" vol="117" key="32" len="12" pan="0"/>
          <note pos="696" vol="126" key="24" len="12" pan="0"/>
          <note pos="708" vol="89" key="32" len="12" pan="0"/>
          <note pos="720" vol="121" key="32" len="12" pan="0"/>
          <note pos="720" vol="145" key="28" len="12" pan="0"/>
          <note pos="732" vol="87" key="32" len="12" pan="0"/>
          <note pos="732" vol="145" key="28" len="12" pan="0"/>
          <note pos="744" vol="123" key="32" len="12" pan="0"/>
          <note pos="744" vol="126" key="24" len="12" pan="0"/>
          <note pos="756" vol="94" key="32" len="12" pan="0"/>
          <note pos="756" vol="145" key="28" len="12" pan="0"/>
        </pattern>
        <pattern name="Drums" muted="0" steps="16" pos="1536" type="1">
          <note pos="0" vol="126" key="32" len="12" pan="0"/>
          <note pos="0" vol="126" key="24" len="12" pan="0"/>
          <note pos="12" vol="89" key="32" len="12" pan="0"/>
          <note pos="24" vol="126" key="32" len="12" pan="0"/>
          <note pos="36" vol="94" key="32" len="12" pan="0"/>
          <note pos="36" vol="126" key="24" len="12" pan="0"/>
          <note pos="48" vol="126" key="32" len="12" pan="0"/>
          <note pos="48" vol="145" key="28" len="12" pan="0"/>
          <note pos="60" vol="102" key="32" len="12" pan="0"/>
          <note pos="72" vol="126" key="32" len="12" pan="0"/>
          <note pos="72" vol="126" key="24" len="12" pan="0"/>
          <note pos="84" vol="94" key="32" len="12" pan="0"/>
          <note pos="84" vol="126" key="24" len="12" pan="0"/>
          <note pos="96" vol="123" key="32" len="12" pan="0"/>
          <note pos="108" vol="91" key="32" len="12" pan="0"/>
          <note pos="108" vol="145" key="28" len="12" pan="0"/>
          <note pos="120" vol="117" key="32" len="12" pan="0"/>
          <note pos="120" vol="126" key="24" len="12" pan="0"/>
          <note pos="132" vol="85" key="32" len="12" pan="0"/>
          <note pos="144" vol="121" key="32" len="12" pan="0"/>
          <note pos="144" vol="145" key="28" len="12" pan="0"/>
          <note pos="156" vol="87" key="32" len="12" pan="0"/>
          <note pos="168" vol="123" key="32" len="12" pan="0"/>
          <note pos="168" vol="126" key="24" len="12" pan="0"/>
          <note pos="180" vol="94" key="32" len="12" pan="0"/>
          <note pos="180" vol="145" key="28" len="12" pan="0"/>
          <note pos="192" vol="126" key="32" len="12" pan="0"/>
          <note pos="192" vol="126" key="24" len="12" pan="0"/>
          <note pos="204" vol="102" key="32" len="12" pan="0"/>
          <note pos="216" vol="126" key="32" len="12" pan="0"/>
          <note pos="228" vol="94" key="32" len="12" pan="0"/>
          <note pos="228" vol="126" key="24" len="12" pan="0"/>
          <note pos="240" vol="126" key="32" len="12" pan="0"/>
          <note pos="240" vol="145" key="28" len="12" pan="0"/>
          <note pos="252" vol="102" key="32" len="12" pan="0"/>
          <note pos="264" vol="126" key="32" len="12" pan="0"/>
          <note pos="264" vol="126" key="24" len="12" pan="0"/>
          <note pos="276" vol="94" key="32" len="12" pan="0"/>
          <note pos="276" vol="126" key="24" len="12" pan="0"/>
          <note pos="288" vol="123" key="32" len="12" pan="0"/>
          <note pos="300" vol="91" key="32" len="12" pan="0"/>
          <note pos="300" vol="145" key="28" len="12" pan="0"/>
          <note pos="312" vol="117" key="32" len="12" pan="0"/>
          <note pos="312" vol="126" key="24" len="12" pan="0"/>
          <note pos="324" vol="85" key="32" len="12" pan="0"/>
          <note pos="336" vol="121" key="32" len="12" pan="0"/>
          <note pos="336" vol="145" key="28" len="12" pan="0"/>
          <note pos="348" vol="87" key="32" len="12" pan="0"/>
          <note pos="360" vol="123" key="32" len="12" pan="0"/>
          <note pos="360" vol="126" key="24" len="12" pan="0"/>
          <note pos="372" vol="94" key="32" len="12" pan="0"/>
          <note pos="372" vol="145" key="28" len="12" pan="0"/>
          <note pos="384" vol="126" key="32" len="12" pan="0"/>
          <note pos="384" vol="126" key="24" len="12" pan="0"/>
          <note pos="396" vol="102" key="32" len="12" pan="0"/>
          <note pos="408" vol="126" key="32" len="12" pan="0"/>
          <note pos="420" vol="94" key="32" len="12" pan="0"/>
          <note pos="420" vol="126" key="24" len="12" pan="0"/>
          <note pos="432" vol="126" key="32" len="12" pan="0"/>
          <note pos="432" vol="145" key="28" len="12" pan="0"/>
          <note pos="444" vol="102" key="32" len="12" pan="0"/>
          <note pos="456" vol="126" key="32" len="12" pan="0"/>
          <note pos="456" vol="126" key="24" len="12" pan="0"/>
          <note pos="468" vol="94" key="32" len="12" pan="0"/>
          <note pos="468" vol="126" key="24" len="12" pan="0"/>
          <note pos="480" vol="123" key="32" len="12" pan="0"/>
          <note pos="492" vol="91" key="32" len="12" pan="0"/>
          <note pos="492" vol="145" key="28" len="12" pan="0"/>
          <note pos="504" vol="117" key="32" len="12" pan="0"/>
          <note pos="504" vol="126" key="24" len="12" pan="0"/>
          <note pos="516" vol="85" key="32" len="12" pan="0"/>
          <note pos="528" vol="121" key="32" len="12" pan="0"/>
          <note pos="528" vol="145" key="28" len="12" pan="0"/>
          <note pos="540" vol="87" key="32" len="12" pan="0"/>
          <note pos="552" vol="123" key="32" len="12" pan="0"/>
          <note pos="552" vol="126" key="24" len="12" pan="0"/>
          <note pos="564" vol="94" key="32" len="12" pan="0"/>
          <note pos="564" vol="145" key="28" len="12" pan="0"/>
          <note pos="576" vol="126" key="32" len="12" pan="0"/>
          <note pos="576" vol="126" key="24" len="12" pan="0"/>
          <note pos="588" vol="102" key="32" len="12" pan="0"/>
          <note pos="600" vol="126" key="32" len="12" pan="0"/>
          <note pos="612" vol="94" key="32" len="12" pan="0"/>
          <note pos="612" vol="126" key="24" len="12" pan="0"/>
          <note pos="624" vol="126" key="32" len="12" pan="0"/>
          <note pos="624" vol="145" key="28" len="12" pan="0"/>
          <note pos="636" vol="102" key="32" len="12" pan="0"/>
          <note pos="648" vol="126" key="32" len="12" pan="0"/>
          <note pos="648" vol="126" key="24" len="12" pan="0"/>
          <note pos="660" vol="94" key="32" len="12" pan="0"/>
          <note pos="660" vol="126" key="24" len="12" pan="0"/>
          <note pos="672" vol="123" key="32" len="12" pan="0"/>
          <note pos="684" vol="91" key="32" len="12" pan="0"/>
          <note pos="684" vol="145" key="28" len="12" pan="0"/>
          <note pos="696" vol="117" key="32" len="12" pan="0"/>
          <note pos="696" vol="126" key="24" len="12" pan="0"/>
          <note pos="708" vol="89" key="32" len="12" pan="0"/>
          <note pos="720" vol="121" key="32" len="12" pan="0"/>
          <note pos="720" vol="145" key="28" len="12" pan="0"/>
          <note pos="732" vol="87" key="32" len="12" pan="0"/>
          <note pos="732" vol="145" key="28" len="12" pan="0"/>
          <note pos="744" vol="123" key="32" len="12" pan="0"/>
          <note pos="744" vol="126" key="24" len="12" pan="0"/>
          <note pos="756" vol="94" key="32" len="12" pan="0"/>
          <note pos="756" vol="145" key="28" len="12" pan="0"/>
          <note pos="768" vol="126" key="32" len="12" pan="0"/>
          <note pos="768" vol="126" key="24" len="12" pan="0"/>
          <note pos="780" vol="89" key="32" len="12" pan="0"/>
          <note pos="792" vol="126" key="32" len="12" pan="0"/>
          <note pos="804" vol="94" key="32" len="12" pan="0"/>
          <note pos="804" vol="126" key="24" len="12" pan="0"/>
          <note pos="816" vol="126" key="32" len="12" pan="0"/>
          <note pos="816" vol="145" key="28" len="12" pan="0"/>
          <note pos="828" vol="102" key="32" len="12" pan="0"/>
          <note pos="840" vol="126" key="32" len="12" pan="0"/>
          <note pos="840" vol="126" key="24" len="12" pan="0"/>
          <note pos="852" vol="94" key="32" len="12" pan="0"/>
          <note pos="852" vol="126" key="24" len="12" pan="0"/>
          <note pos="864" vol="123" key="32" len="12" pan="0"/>
          <note pos="876" vol="91" key="32" len="12" pan="0"/>
          <note pos="876" vol="145" key="28" len="12" pan="0"/>
          <note pos="888" vol="117" key="32" len="12" pan="0"/>
          <note pos="888" vol="126" key="24" len="12" pan="0"/>
          <note pos="900" vol="85" key="32" len="12" pan="0"/>
          <note pos="912" vol="121" key="32" len="12" pan="0"/>
          <note pos="912" vol="145" key="28" len="12" pan="0"/>
          <note pos="924" vol="87" key="32" len="12" pan="0"/>
          <note pos="936" vol="123" key="32" len="12" pan="0"/>
          <note pos="936" vol="126" key="24" len="12" pan="0"/>
          <note pos="948" vol="94" key="32" len="12" pan="0"/>
          <note pos="948" vol="145" key="28" len="12" pan="0"/>
          <note pos="960" vol="126" key="32" len="12" pan="0"/>
          <note pos="960" vol="126" key="24" len="12" pan="0"/>
          <note pos="972" vol="102" key="32" len="12" pan="0"/>
          <note pos="984" vol="126" key="32" len="12" pan="0"/>
          <note pos="996" vol="94" key="32" len="12" pan="0"/>
          <note pos="996" vol="126" key="24" len="12" pan="0"/>
          <note pos="1008" vol="126" key="32" len="12" pan="0"/>
          <note pos="1008" vol="145" key="28" len="12" pan="0"/>
          <note pos="1020" vol="102" key="32" len="12" pan="0"/>
          <note pos="1032" vol="126" key="32" len="12" pan="0"/>
          <note pos="1032" vol="126" key="24" len="12" pan="0"/>
          <note pos="1044" vol="94" key="32" len="12" pan="0"/>
          <note pos="1044" vol="126" key="24" len="12" pan="0"/>
          <note pos="1056" vol="123" key="32" len="12" pan="0"/>
          <note pos="1068" vol="91" key="32" len="12" pan="0"/>
          <note pos="1068" vol="145" key="28" len="12" pan="0"/>
          <note pos="1080" vol="117" key="32" len="12" pan="0"/>
          <note pos="1080" vol="126" key="24" len="12" pan="0"/>
          <note pos="1092" vol="85" key="32" len="12" pan="0"/>
          <note pos="1104" vol="121" key="32" len="12" pan="0"/>
          <note pos="1104" vol="145" key="28" len="12" pan="0"/>
          <note pos="1116" vol="87" key="32" len="12" pan="0"/>
          <note pos="1128" vol="123" key="32" len="12" pan="0"/>
          <note pos="1128" vol="126" key="24" len="12" pan="0"/>
          <note pos="1140" vol="94" key="32" len="12" pan="0"/>
          <note pos="1140" vol="145" key="28" len="12" pan="0"/>
          <note pos="1152" vol="126" key="32" len="12" pan="0"/>
          <note pos="1152" vol="126" key="24" len="12" pan="0"/>
          <note pos="1164" vol="102" key="32" len="12" pan="0"/>
          <note pos="1176" vol="126" key="32" len="12" pan="0"/>
          <note pos="1188" vol="94" key="32" len="12" pan="0"/>
          <note pos="1188" vol="126" key="24" len="12" pan="0"/>
          <note pos="1200" vol="126" key="32" len="12" pan="0"/>
          <note pos="1200" vol="145" key="28" len="12" pan="0"/>
          <note pos="1212" vol="102" key="32" len="12" pan="0"/>
          <note pos="1224" vol="126" key="32" len="12" pan="0"/>
          <note pos="1224" vol="126" key="24" len="12" pan="0"/>
          <note pos="1236" vol="94" key="32" len="12" pan="0"/>
          <note pos="1236" vol="126" key="24" len="12" pan="0"/>
          <note pos="1248" vol="123" key="32" len="12" pan="0"/>
          <note pos="1260" vol="91" key="32" len="12" pan="0"/>
          <note pos="1260" vol="145" key="28" len="12" pan="0"/>
          <note pos="1272" vol="117" key="32" len="12" pan="0"/>
          <note pos="1272" vol="126" key="24" len="12" pan="0"/>
          <note pos="1284" vol="85" key="32" len="12" pan="0"/>
          <note pos="1296" vol="121" key="32" len="12" pan="0"/>
          <note pos="1296" vol="145" key="28" len="12" pan="0"/>
          <note pos="1308" vol="87" key="32" len="12" pan="0"/>
          <note pos="1320" vol="123" key="32" len="12" pan="0"/>
          <note pos="1320" vol="126" key="24" len="12" pan="0"/>
          <note pos="1332" vol="94" key="32" len="12" pan="0"/>
          <note pos="1332" vol="145" key="28" len="12" pan="0"/>
          <note pos="1344" vol="126" key="32" len="12" pan="0"/>
          <note pos="1344" vol="126" key="24" len="12" pan="0"/>
          <note pos="1356" vol="102" key="32" len="12" pan="0"/>
          <note pos="1368" vol="126" key="32" len="12" pan="0"/>
          <note pos="1380" vol="94" key="32" len="12" pan="0"/>
          <note pos="1380" vol="126" key="24" len="12" pan="0"/>
          <note pos="1392" vol="126" key="32" len="12" pan="0"/>
          <note pos="1392" vol="145" key="28" len="12" pan="0"/>
          <note pos="1404" vol="102" key="32" len="12" pan="0"/>
          <note pos="1416" vol="126" key="32" len="12" pan="0"/>
          <note pos="1416" vol="126" key="24" len="12" pan="0"/>
          <note pos="1428" vol="94" key="32" len="12" pan="0"/>
          <note pos="1428" vol="126" key="24" len="12" pan="0"/>
          <note pos="1440" vol="123" key="32" len="12" pan="0"/>
          <note pos="1452" vol="91" key="32" len="12" pan="0"/>
          <note pos="1452" vol="145" key="28" len="12" pan="0"/>
          <note pos="1464" vol="117" key="32" len="12" pan="0"/>
          <note pos="1464" vol="126" key="24" len="12" pan="0"/>
          <note pos="1476" vol="89" key="32" len="12" pan="0"/>
          <note pos="1488" vol="121" key="32" len="12" pan="0"/>
          <note pos="1488" vol="145" key="28" len="12" pan="0"/>
          <note pos="1500" vol="87" key="32" len="12" pan="0"/>
          <note pos="1500" vol="145" key="28" len="12" pan="0"/>
          <note pos="1512" vol="123" key="32" len="12" pan="0"/>
          <note pos="1512" vol="126" key="24" len="12" pan="0"/>
          <note pos="1524" vol="94" key="32" len="12" pan="0"/>
          <note pos="1524" vol="145" key="28" len="12" pan="0"/>
        </pattern>
        <pattern name="Drums" muted="0" steps="16" pos="576" type="1">
          <note pos="96" vol="146" key="28" len="12" pan="0"/>
          <note pos="96" vol="146" key="24" len="12" pan="0"/>
          <note pos="108" vol="146" key="28" len="12" pan="0"/>
          <note pos="108" vol="146" key="24" len="12" pan="0"/>
          <note pos="120" vol="65" key="28" len="12" pan="0"/>
          <note pos="132" vol="146" key="28" len="12" pan="0"/>
          <note pos="132" vol="146" key="24" len="12" pan="0"/>
          <note pos="144" vol="146" key="28" len="12" pan="0"/>
          <note pos="144" vol="146" key="24" len="12" pan="0"/>
          <note pos="156" vol="65" key="28" len="12" pan="0"/>
          <note pos="168" vol="146" key="28" len="12" pan="0"/>
          <note pos="168" vol="146" key="26" len="12" pan="0"/>
          <note pos="168" vol="146" key="24" len="12" pan="0"/>
          <note pos="180" vol="134" key="28" len="12" pan="0"/>
          <note pos="180" vol="134" key="24" len="12" pan="0"/>
        </pattern>
        <pattern name="Drums" muted="0" steps="16" pos="4608" type="1">
          <note pos="0" vol="153" key="43" len="48" pan="0"/>
          <note pos="0" vol="126" key="41" len="48" pan="0"/>
          <note pos="0" vol="153" key="37" len="48" pan="0"/>
          <note pos="0" vol="126" key="32" len="12" pan="0"/>
          <note pos="0" vol="126" key="24" len="12" pan="0"/>
          <note pos="12" vol="89" key="32" len="12" pan="0"/>
          <note pos="24" vol="126" key="32" len="12" pan="0"/>
          <note pos="36" vol="94" key="32" len="12" pan="0"/>
          <note pos="36" vol="126" key="24" len="12" pan="0"/>
          <note pos="48" vol="126" key="41" len="48" pan="0"/>
          <note pos="48" vol="126" key="32" len="12" pan="0"/>
          <note pos="48" vol="145" key="28" len="12" pan="0"/>
          <note pos="60" vol="102" key="32" len="12" pan="0"/>
          <note pos="72" vol="126" key="32" len="12" pan="0"/>
          <note pos="72" vol="126" key="24" len="12" pan="0"/>
          <note pos="84" vol="94" key="32" len="12" pan="0"/>
          <note pos="84" vol="126" key="24" len="12" pan="0"/>
          <note pos="96" vol="126" key="41" len="48" pan="0"/>
          <note pos="96" vol="123" key="32" len="12" pan="0"/>
          <note pos="108" vol="91" key="32" len="12" pan="0"/>
          <note pos="108" vol="145" key="28" len="12" pan="0"/>
          <note pos="120" vol="117" key="32" len="12" pan="0"/>
          <note pos="120" vol="126" key="24" len="12" pan="0"/>
          <note pos="132" vol="85" key="32" len="12" pan="0"/>
          <note pos="144" vol="126" key="41" len="24" pan="0"/>
          <note pos="144" vol="121" key="32" len="12" pan="0"/>
          <note pos="144" vol="145" key="28" len="12" pan="0"/>
          <note pos="156" vol="87" key="32" len="12" pan="0"/>
          <note pos="168" vol="126" key="41" len="24" pan="0"/>
          <note pos="168" vol="96" key="32" len="12" pan="0"/>
          <note pos="168" vol="99" key="24" len="12" pan="0"/>
          <note pos="180" vol="94" key="32" len="12" pan="0"/>
          <note pos="180" vol="145" key="28" len="12" pan="0"/>
          <note pos="192" vol="126" key="41" len="48" pan="0"/>
          <note pos="192" vol="126" key="32" len="12" pan="0"/>
          <note pos="192" vol="126" key="24" len="12" pan="0"/>
          <note pos="204" vol="102" key="32" len="12" pan="0"/>
          <note pos="216" vol="126" key="32" len="12" pan="0"/>
          <note pos="228" vol="94" key="32" len="12" pan="0"/>
          <note pos="228" vol="126" key="24" len="12" pan="0"/>
          <note pos="240" vol="126" key="41" len="48" pan="0"/>
          <note pos="240" vol="126" key="32" len="12" pan="0"/>
          <note pos="240" vol="145" key="28" len="12" pan="0"/>
          <note pos="252" vol="102" key="32" len="12" pan="0"/>
          <note pos="264" vol="126" key="32" len="12" pan="0"/>
          <note pos="264" vol="126" key="24" len="12" pan="0"/>
          <note pos="276" vol="94" key="32" len="12" pan="0"/>
          <note pos="276" vol="126" key="24" len="12" pan="0"/>
          <note pos="288" vol="126" key="41" len="48" pan="0"/>
          <note pos="288" vol="123" key="32" len="12" pan="0"/>
          <note pos="300" vol="91" key="32" len="12" pan="0"/>
          <note pos="300" vol="145" key="28" len="12" pan="0"/>
          <note pos="312" vol="117" key="32" len="12" pan="0"/>
          <note pos="312" vol="126" key="24" len="12" pan="0"/>
          <note pos="324" vol="85" key="32" len="12" pan="0"/>
          <note pos="336" vol="126" key="41" len="48" pan="0"/>
          <note pos="336" vol="121" key="32" len="12" pan="0"/>
          <note pos="336" vol="145" key="28" len="12" pan="0"/>
          <note pos="348" vol="87" key="32" len="12" pan="0"/>
          <note pos="360" vol="123" key="32" len="12" pan="0"/>
          <note pos="360" vol="126" key="24" len="12" pan="0"/>
          <note pos="372" vol="94" key="32" len="12" pan="0"/>
          <note pos="372" vol="145" key="28" len="12" pan="0"/>
          <note pos="384" vol="126" key="41" len="48" pan="0"/>
          <note pos="384" vol="126" key="32" len="12" pan="0"/>
          <note pos="384" vol="126" key="24" len="12" pan="0"/>
          <note pos="396" vol="102" key="32" len="12" pan="0"/>
          <note pos="408" vol="126" key="32" len="12" pan="0"/>
          <note pos="420" vol="94" key="32" len="12" pan="0"/>
          <note pos="420" vol="126" key="24" len="12" pan="0"/>
          <note pos="432" vol="126" key="41" len="48" pan="0"/>
          <note pos="432" vol="126" key="32" len="12" pan="0"/>
          <note pos="432" vol="145" key="28" len="12" pan="0"/>
          <note pos="444" vol="102" key="32" len="12" pan="0"/>
          <note pos="456" vol="126" key="32" len="12" pan="0"/>
          <note pos="456" vol="126" key="24" len="12" pan="0"/>
          <note pos="468" vol="94" key="32" len="12" pan="0"/>
          <note pos="468" vol="126" key="24" len="12" pan="0"/>
          <note pos="480" vol="126" key="41" len="48" pan="0"/>
          <note pos="480" vol="123" key="32" len="12" pan="0"/>
          <note pos="492" vol="91" key="32" len="12" pan="0"/>
          <note pos="492" vol="145" key="28" len="12" pan="0"/>
          <note pos="504" vol="117" key="32" len="12" pan="0"/>
          <note pos="504" vol="126" key="24" len="12" pan="0"/>
          <note pos="516" vol="85" key="32" len="12" pan="0"/>
          <note pos="528" vol="126" key="41" len="48" pan="0"/>
          <note pos="528" vol="121" key="32" len="12" pan="0"/>
          <note pos="528" vol="145" key="28" len="12" pan="0"/>
          <note pos="540" vol="87" key="32" len="12" pan="0"/>
          <note pos="552" vol="123" key="32" len="12" pan="0"/>
          <note pos="552" vol="126" key="24" len="12" pan="0"/>
          <note pos="564" vol="94" key="32" len="12" pan="0"/>
          <note pos="564" vol="145" key="28" len="12" pan="0"/>
          <note pos="576" vol="126" key="41" len="48" pan="0"/>
          <note pos="576" vol="126" key="32" len="12" pan="0"/>
          <note pos="576" vol="126" key="24" len="12" pan="0"/>
          <note pos="588" vol="102" key="32" len="12" pan="0"/>
          <note pos="600" vol="126" key="32" len="12" pan="0"/>
          <note pos="612" vol="94" key="32" len="12" pan="0"/>
          <note pos="612" vol="126" key="24" len="12" pan="0"/>
          <note pos="624" vol="126" key="41" len="48" pan="0"/>
          <note pos="624" vol="126" key="32" len="12" pan="0"/>
          <note pos="624" vol="145" key="28" len="12" pan="0"/>
          <note pos="636" vol="102" key="32" len="12" pan="0"/>
          <note pos="648" vol="126" key="32" len="12" pan="0"/>
          <note pos="648" vol="126" key="24" len="12" pan="0"/>
          <note pos="660" vol="94" key="32" len="12" pan="0"/>
          <note pos="660" vol="126" key="24" len="12" pan="0"/>
          <note pos="672" vol="126" key="41" len="48" pan="0"/>
          <note pos="672" vol="123" key="32" len="12" pan="0"/>
          <note pos="684" vol="91" key="32" len="12" pan="0"/>
          <note pos="684" vol="145" key="28" len="12" pan="0"/>
          <note pos="696" vol="117" key="32" len="12" pan="0"/>
          <note pos="696" vol="126" key="24" len="12" pan="0"/>
          <note pos="708" vol="89" key="32" len="12" pan="0"/>
          <note pos="720" vol="126" key="41" len="24" pan="0"/>
          <note pos="720" vol="121" key="32" len="12" pan="0"/>
          <note pos="720" vol="145" key="28" len="12" pan="0"/>
          <note pos="732" vol="87" key="32" len="12" pan="0"/>
          <note pos="732" vol="145" key="28" len="12" pan="0"/>
          <note pos="744" vol="126" key="41" len="24" pan="0"/>
          <note pos="744" vol="123" key="32" len="12" pan="0"/>
          <note pos="744" vol="126" key="24" len="12" pan="0"/>
          <note pos="756" vol="94" key="32" len="12" pan="0"/>
          <note pos="756" vol="145" key="28" len="12" pan="0"/>
          <note pos="768" vol="126" key="41" len="48" pan="0"/>
          <note pos="768" vol="126" key="32" len="12" pan="0"/>
          <note pos="768" vol="126" key="24" len="12" pan="0"/>
          <note pos="780" vol="89" key="32" len="12" pan="0"/>
          <note pos="792" vol="126" key="32" len="12" pan="0"/>
          <note pos="804" vol="94" key="32" len="12" pan="0"/>
          <note pos="804" vol="126" key="24" len="12" pan="0"/>
          <note pos="816" vol="126" key="41" len="48" pan="0"/>
          <note pos="816" vol="126" key="32" len="12" pan="0"/>
          <note pos="816" vol="145" key="28" len="12" pan="0"/>
          <note pos="828" vol="102" key="32" len="12" pan="0"/>
          <note pos="840" vol="126" key="32" len="12" pan="0"/>
          <note pos="840" vol="126" key="24" len="12" pan="0"/>
          <note pos="852" vol="94" key="32" len="12" pan="0"/>
          <note pos="852" vol="126" key="24" len="12" pan="0"/>
          <note pos="864" vol="126" key="41" len="48" pan="0"/>
          <note pos="864" vol="123" key="32" len="12" pan="0"/>
          <note pos="876" vol="91" key="32" len="12" pan="0"/>
          <note pos="876" vol="145" key="28" len="12" pan="0"/>
          <note pos="888" vol="117" key="32" len="12" pan="0"/>
          <note pos="888" vol="126" key="24" len="12" pan="0"/>
          <note pos="900" vol="85" key="32" len="12" pan="0"/>
          <note pos="912" vol="126" key="41" len="24" pan="0"/>
          <note pos="912" vol="121" key="32" len="12" pan="0"/>
          <note pos="912" vol="145" key="28" len="12" pan="0"/>
          <note pos="924" vol="87" key="32" len="12" pan="0"/>
          <note pos="936" vol="126" key="41" len="24" pan="0"/>
          <note pos="936" vol="123" key="32" len="12" pan="0"/>
          <note pos="936" vol="126" key="24" len="12" pan="0"/>
          <note pos="948" vol="94" key="32" len="12" pan="0"/>
          <note pos="948" vol="145" key="28" len="12" pan="0"/>
          <note pos="960" vol="126" key="41" len="48" pan="0"/>
          <note pos="960" vol="126" key="32" len="12" pan="0"/>
          <note pos="960" vol="126" key="24" len="12" pan="0"/>
          <note pos="972" vol="102" key="32" len="12" pan="0"/>
          <note pos="984" vol="126" key="32" len="12" pan="0"/>
          <note pos="996" vol="94" key="32" len="12" pan="0"/>
          <note pos="996" vol="126" key="24" len="12" pan="0"/>
          <note pos="1008" vol="126" key="41" len="48" pan="0"/>
          <note pos="1008" vol="126" key="32" len="12" pan="0"/>
          <note pos="1008" vol="145" key="28" len="12" pan="0"/>
          <note pos="1020" vol="102" key="32" len="12" pan="0"/>
          <note pos="1032" vol="126" key="32" len="12" pan="0"/>
          <note pos="1032" vol="126" key="24" len="12" pan="0"/>
          <note pos="1044" vol="94" key="32" len="12" pan="0"/>
          <note pos="1044" vol="126" key="24" len="12" pan="0"/>
          <note pos="1056" vol="126" key="41" len="48" pan="0"/>
          <note pos="1056" vol="123" key="32" len="12" pan="0"/>
          <note pos="1068" vol="91" key="32" len="12" pan="0"/>
          <note pos="1068" vol="145" key="28" len="12" pan="0"/>
          <note pos="1080" vol="117" key="32" len="12" pan="0"/>
          <note pos="1080" vol="126" key="24" len="12" pan="0"/>
          <note pos="1092" vol="85" key="32" len="12" pan="0"/>
          <note pos="1104" vol="126" key="41" len="48" pan="0"/>
          <note pos="1104" vol="121" key="32" len="12" pan="0"/>
          <note pos="1104" vol="145" key="28" len="12" pan="0"/>
          <note pos="1116" vol="87" key="32" len="12" pan="0"/>
          <note pos="1128" vol="123" key="32" len="12" pan="0"/>
          <note pos="1128" vol="126" key="24" len="12" pan="0"/>
          <note pos="1140" vol="94" key="32" len="12" pan="0"/>
          <note pos="1140" vol="145" key="28" len="12" pan="0"/>
          <note pos="1152" vol="126" key="41" len="48" pan="0"/>
          <note pos="1152" vol="126" key="32" len="12" pan="0"/>
          <note pos="1152" vol="126" key="24" len="12" pan="0"/>
          <note pos="1164" vol="102" key="32" len="12" pan="0"/>
          <note pos="1176" vol="126" key="32" len="12" pan="0"/>
          <note pos="1188" vol="94" key="32" len="12" pan="0"/>
          <note pos="1188" vol="126" key="24" len="12" pan="0"/>
          <note pos="1200" vol="126" key="41" len="48" pan="0"/>
          <note pos="1200" vol="126" key="32" len="12" pan="0"/>
          <note pos="1200" vol="145" key="28" len="12" pan="0"/>
          <note pos="1212" vol="102" key="32" len="12" pan="0"/>
          <note pos="1224" vol="126" key="32" len="12" pan="0"/>
          <note pos="1224" vol="126" key="24" len="12" pan="0"/>
          <note pos="1236" vol="94" key="32" len="12" pan="0"/>
          <note pos="1236" vol="126" key="24" len="12" pan="0"/>
          <note pos="1248" vol="126" key="41" len="48" pan="0"/>
          <note pos="1248" vol="123" key="32" len="12" pan="0"/>
          <note pos="1260" vol="91" key="32" len="12" pan="0"/>
          <note pos="1260" vol="145" key="28" len="12" pan="0"/>
          <note pos="1272" vol="117" key="32" len="12" pan="0"/>
          <note pos="1272" vol="126" key="24" len="12" pan="0"/>
          <note pos="1284" vol="85" key="32" len="12" pan="0"/>
          <note pos="1296" vol="126" key="41" len="48" pan="0"/>
          <note pos="1296" vol="121" key="32" len="12" pan="0"/>
          <note pos="1296" vol="145" key="28" len="12" pan="0"/>
          <note pos="1308" vol="87" key="32" len="12" pan="0"/>
          <note pos="1320" vol="123" key="32" len="12" pan="0"/>
          <note pos="1320" vol="126" key="24" len="12" pan="0"/>
          <note pos="1332" vol="94" key="32" len="12" pan="0"/>
          <note pos="1332" vol="145" key="28" len="12" pan="0"/>
          <note pos="1344" vol="126" key="41" len="48" pan="0"/>
          <note pos="1344" vol="126" key="32" len="12" pan="0"/>
          <note pos="1344" vol="126" key="24" len="12" pan="0"/>
          <note pos="1356" vol="102" key="32" len="12" pan="0"/>
          <note pos="1368" vol="126" key="32" len="12" pan="0"/>
          <note pos="1380" vol="94" key="32" len="12" pan="0"/>
          <note pos="1380" vol="126" key="24" len="12" pan="0"/>
          <note pos="1392" vol="126" key="41" len="48" pan="0"/>
          <note pos="1392" vol="126" key="32" len="12" pan="0"/>
          <note pos="1392" vol="145" key="28" len="12" pan="0"/>
          <note pos="1404" vol="102" key="32" len="12" pan="0"/>
          <note pos="1416" vol="126" key="32" len="12" pan="0"/>
          <note pos="1416" vol="126" key="24" len="12" pan="0"/>
          <note pos="1428" vol="94" key="32" len="12" pan="0"/>
          <note pos="1428" vol="126" key="24" len="12" pan="0"/>
          <note pos="1440" vol="126" key="41" len="48" pan="0"/>
          <note pos="1440" vol="123" key="32" len="12" pan="0"/>
          <note pos="1452" vol="91" key="32" len="12" pan="0"/>
          <note pos="1452" vol="145" key="28" len="12" pan="0"/>
          <note pos="1464" vol="117" key="32" len="12" pan="0"/>
          <note pos="1464" vol="126" key="24" len="12" pan="0"/>
          <note pos="1476" vol="89" key="32" len="12" pan="0"/>
          <note pos="1488" vol="126" key="41" len="24" pan="0"/>
          <note pos="1488" vol="121" key="32" len="12" pan="0"/>
          <note pos="1488" vol="145" key="28" len="12" pan="0"/>
          <note pos="1500" vol="87" key="32" len="12" pan="0"/>
          <note pos="1500" vol="145" key="28" len="12" pan="0"/>
          <note pos="1512" vol="126" key="41" len="24" pan="0"/>
          <note pos="1512" vol="123" key="32" len="12" pan="0"/>
          <note pos="1512" vol="126" key="24" len="12" pan="0"/>
          <note pos="1524" vol="94" key="32" len="12" pan="0"/>
          <note pos="1524" vol="145" key="28" len="12" pan="0"/>
        </pattern>
        <pattern name="Drums" muted="0" steps="16" pos="9216" type="1">
          <note pos="0" vol="126" key="32" len="12" pan="0"/>
          <note pos="0" vol="126" key="24" len="12" pan="0"/>
          <note pos="12" vol="89" key="32" len="12" pan="0"/>
          <note pos="24" vol="126" key="32" len="12" pan="0"/>
          <note pos="36" vol="94" key="32" len="12" pan="0"/>
          <note pos="36" vol="126" key="24" len="12" pan="0"/>
          <note pos="48" vol="126" key="32" len="12" pan="0"/>
          <note pos="48" vol="145" key="28" len="12" pan="0"/>
          <note pos="60" vol="102" key="32" len="12" pan="0"/>
          <note pos="72" vol="126" key="32" len="12" pan="0"/>
          <note pos="72" vol="126" key="24" len="12" pan="0"/>
          <note pos="84" vol="94" key="32" len="12" pan="0"/>
          <note pos="84" vol="126" key="24" len="12" pan="0"/>
          <note pos="96" vol="123" key="32" len="12" pan="0"/>
          <note pos="108" vol="91" key="32" len="12" pan="0"/>
          <note pos="108" vol="145" key="28" len="12" pan="0"/>
          <note pos="120" vol="117" key="32" len="12" pan="0"/>
          <note pos="120" vol="126" key="24" len="12" pan="0"/>
          <note pos="132" vol="85" key="32" len="12" pan="0"/>
          <note pos="144" vol="121" key="32" len="12" pan="0"/>
          <note pos="144" vol="145" key="28" len="12" pan="0"/>
          <note pos="156" vol="87" key="32" len="12" pan="0"/>
          <note pos="168" vol="123" key="32" len="12" pan="0"/>
          <note pos="168" vol="126" key="24" len="12" pan="0"/>
          <note pos="180" vol="94" key="32" len="12" pan="0"/>
          <note pos="180" vol="145" key="28" len="12" pan="0"/>
          <note pos="192" vol="126" key="32" len="12" pan="0"/>
          <note pos="192" vol="126" key="24" len="12" pan="0"/>
          <note pos="204" vol="102" key="32" len="12" pan="0"/>
          <note pos="216" vol="126" key="32" len="12" pan="0"/>
          <note pos="228" vol="94" key="32" len="12" pan="0"/>
          <note pos="228" vol="126" key="24" len="12" pan="0"/>
          <note pos="240" vol="126" key="32" len="12" pan="0"/>
          <note pos="240" vol="145" key="28" len="12" pan="0"/>
          <note pos="252" vol="102" key="32" len="12" pan="0"/>
          <note pos="264" vol="126" key="32" len="12" pan="0"/>
          <note pos="264" vol="126" key="24" len="12" pan="0"/>
          <note pos="276" vol="94" key="32" len="12" pan="0"/>
          <note pos="276" vol="126" key="24" len="12" pan="0"/>
          <note pos="288" vol="123" key="32" len="12" pan="0"/>
          <note pos="300" vol="91" key="32" len="12" pan="0"/>
          <note pos="300" vol="145" key="28" len="12" pan="0"/>
          <note pos="312" vol="117" key="32" len="12" pan="0"/>
          <note pos="312" vol="126" key="24" len="12" pan="0"/>
          <note pos="324" vol="85" key="32" len="12" pan="0"/>
          <note pos="336" vol="121" key="32" len="12" pan="0"/>
          <note pos="336" vol="145" key="28" len="12" pan="0"/>
          <note pos="348" vol="87" key="32" len="12" pan="0"/>
          <note pos="360" vol="123" key="32" len="12" pan="0"/>
          <note pos="360" vol="126" key="24" len="12" pan="0"/>
          <note pos="372" vol="94" key="32" len="12" pan="0"/>
          <note pos="372" vol="145" key="28" len="12" pan="0"/>
          <note pos="384" vol="126" key="32" len="12" pan="0"/>
          <note pos="384" vol="126" key="24" len="12" pan="0"/>
          <note pos="396" vol="102" key="32" len="12" pan="0"/>
          <note pos="408" vol="126" key="32" len="12" pan="0"/>
          <note pos="420" vol="94" key="32" len="12" pan="0"/>
          <note pos="420" vol="126" key="24" len="12" pan="0"/>
          <note pos="432" vol="126" key="32" len="12" pan="0"/>
          <note pos="432" vol="145" key="28" len="12" pan="0"/>
          <note pos="444" vol="102" key="32" len="12" pan="0"/>
          <note pos="456" vol="126" key="32" len="12" pan="0"/>
          <note pos="456" vol="126" key="24" len="12" pan="0"/>
          <note pos="468" vol="94" key="32" len="12" pan="0"/>
          <note pos="468" vol="126" key="24" len="12" pan="0"/>
          <note pos="480" vol="123" key="32" len="12" pan="0"/>
          <note pos="492" vol="91" key="32" len="12" pan="0"/>
          <note pos="492" vol="145" key="28" len="12" pan="0"/>
          <note pos="504" vol="117" key="32" len="12" pan="0"/>
          <note pos="504" vol="126" key="24" len="12" pan="0"/>
          <note pos="516" vol="85" key="32" len="12" pan="0"/>
          <note pos="528" vol="121" key="32" len="12" pan="0"/>
          <note pos="528" vol="145" key="28" len="12" pan="0"/>
          <note pos="540" vol="87" key="32" len="12" pan="0"/>
          <note pos="552" vol="123" key="32" len="12" pan="0"/>
          <note pos="552" vol="126" key="24" len="12" pan="0"/>
          <note pos="564" vol="94" key="32" len="12" pan="0"/>
          <note pos="564" vol="145" key="28" len="12" pan="0"/>
          <note pos="576" vol="126" key="32" len="12" pan="0"/>
          <note pos="576" vol="126" key="24" len="12" pan="0"/>
          <note pos="588" vol="102" key="32" len="12" pan="0"/>
          <note pos="600" vol="126" key="32" len="12" pan="0"/>
          <note pos="612" vol="94" key="32" len="12" pan="0"/>
          <note pos="612" vol="126" key="24" len="12" pan="0"/>
          <note pos="624" vol="126" key="32" len="12" pan="0"/>
          <note pos="624" vol="145" key="28" len="12" pan="0"/>
          <note pos="636" vol="102" key="32" len="12" pan="0"/>
          <note pos="648" vol="126" key="32" len="12" pan="0"/>
          <note pos="648" vol="126" key="24" len="12" pan="0"/>
          <note pos="660" vol="94" key="32" len="12" pan="0"/>
          <note pos="660" vol="126" key="24" len="12" pan="0"/>
          <note pos="672" vol="123" key="32" len="12" pan="0"/>
          <note pos="684" vol="91" key="32" len="12" pan="0"/>
          <note pos="684" vol="145" key="28" len="12" pan="0"/>
          <note pos="696" vol="117" key="32" len="12" pan="0"/>
          <note pos="696" vol="126" key="24" len="12" pan="0"/>
          <note pos="708" vol="89" key="32" len="12" pan="0"/>
          <note pos="720" vol="121" key="32" len="12" pan="0"/>
          <note pos="720" vol="145" key="28" len="12" pan="0"/>
          <note pos="732" vol="87" key="32" len="12" pan="0"/>
          <note pos="732" vol="145" key="28" len="12" pan="0"/>
          <note pos="744" vol="123" key="32" len="12" pan="0"/>
          <note pos="744" vol="126" key="24" len="12" pan="0"/>
          <note pos="756" vol="94" key="32" len="12" pan="0"/>
          <note pos="756" vol="145" key="28" len="12" pan="0"/>
          <note pos="768" vol="126" key="32" len="12" pan="0"/>
          <note pos="768" vol="126" key="24" len="12" pan="0"/>
          <note pos="780" vol="89" key="32" len="12" pan="0"/>
          <note pos="792" vol="126" key="32" len="12" pan="0"/>
          <note pos="804" vol="94" key="32" len="12" pan="0"/>
          <note pos="804" vol="126" key="24" len="12" pan="0"/>
          <note pos="816" vol="126" key="32" len="12" pan="0"/>
          <note pos="816" vol="145" key="28" len="12" pan="0"/>
          <note pos="828" vol="102" key="32" len="12" pan="0"/>
          <note pos="840" vol="126" key="32" len="12" pan="0"/>
          <note pos="840" vol="126" key="24" len="12" pan="0"/>
          <note pos="852" vol="94" key="32" len="12" pan="0"/>
          <note pos="852" vol="126" key="24" len="12" pan="0"/>
          <note pos="864" vol="123" key="32" len="12" pan="0"/>
          <note pos="876" vol="91" key="32" len="12" pan="0"/>
          <note pos="876" vol="145" key="28" len="12" pan="0"/>
          <note pos="888" vol="117" key="32" len="12" pan="0"/>
          <note pos="888" vol="126" key="24" len="12" pan="0"/>
          <note pos="900" vol="85" key="32" len="12" pan="0"/>
          <note pos="912" vol="121" key="32" len="12" pan="0"/>
          <note pos="912" vol="145" key="28" len="12" pan="0"/>
          <note pos="924" vol="87" key="32" len="12" pan="0"/>
          <note pos="936" vol="123" key="32" len="12" pan="0"/>
          <note pos="936" vol="126" key="24" len="12" pan="0"/>
          <note pos="948" vol="94" key="32" len="12" pan="0"/>
          <note pos="948" vol="145" key="28" len="12" pan="0"/>
          <note pos="960" vol="126" key="32" len="12" pan="0"/>
          <note pos="960" vol="126" key="24" len="12" pan="0"/>
          <note pos="972" vol="102" key="32" len="12" pan="0"/>
          <note pos="984" vol="126" key="32" len="12" pan="0"/>
          <note pos="996" vol="94" key="32" len="12" pan="0"/>
          <note pos="996" vol="126" key="24" len="12" pan="0"/>
          <note pos="1008" vol="126" key="32" len="12" pan="0"/>
          <note pos="1008" vol="145" key="28" len="12" pan="0"/>
          <note pos="1020" vol="102" key="32" len="12" pan="0"/>
          <note pos="1032" vol="126" key="32" len="12" pan="0"/>
          <note pos="1032" vol="126" key="24" len="12" pan="0"/>
          <note pos="1044" vol="94" key="32" len="12" pan="0"/>
          <note pos="1044" vol="126" key="24" len="12" pan="0"/>
          <note pos="1056" vol="123" key="32" len="12" pan="0"/>
          <note pos="1068" vol="91" key="32" len="12" pan="0"/>
          <note pos="1068" vol="145" key="28" len="12" pan="0"/>
          <note pos="1080" vol="117" key="32" len="12" pan="0"/>
          <note pos="1080" vol="126" key="24" len="12" pan="0"/>
          <note pos="1092" vol="85" key="32" len="12" pan="0"/>
          <note pos="1104" vol="121" key="32" len="12" pan="0"/>
          <note pos="1104" vol="145" key="28" len="12" pan="0"/>
          <note pos="1116" vol="87" key="32" len="12" pan="0"/>
          <note pos="1128" vol="123" key="32" len="12" pan="0"/>
          <note pos="1128" vol="126" key="24" len="12" pan="0"/>
          <note pos="1140" vol="94" key="32" len="12" pan="0"/>
          <note pos="1140" vol="145" key="28" len="12" pan="0"/>
          <note pos="1152" vol="126" key="32" len="12" pan="0"/>
          <note pos="1152" vol="126" key="24" len="12" pan="0"/>
          <note pos="1164" vol="102" key="32" len="12" pan="0"/>
          <note pos="1176" vol="126" key="32" len="12" pan="0"/>
          <note pos="1188" vol="94" key="32" len="12" pan="0"/>
          <note pos="1188" vol="126" key="24" len="12" pan="0"/>
          <note pos="1200" vol="126" key="32" len="12" pan="0"/>
          <note pos="1200" vol="145" key="28" len="12" pan="0"/>
          <note pos="1212" vol="102" key="32" len="12" pan="0"/>
          <note pos="1224" vol="126" key="32" len="12" pan="0"/>
          <note pos="1224" vol="126" key="24" len="12" pan="0"/>
          <note pos="1236" vol="94" key="32" len="12" pan="0"/>
          <note pos="1236" vol="126" key="24" len="12" pan="0"/>
          <note pos="1248" vol="123" key="32" len="12" pan="0"/>
          <note pos="1260" vol="91" key="32" len="12" pan="0"/>
          <note pos="1260" vol="145" key="28" len="12" pan="0"/>
          <note pos="1272" vol="117" key="32" len="12" pan="0"/>
          <note pos="1272" vol="126" key="24" len="12" pan="0"/>
          <note pos="1284" vol="85" key="32" len="12" pan="0"/>
          <note pos="1296" vol="121" key="32" len="12" pan="0"/>
          <note pos="1296" vol="145" key="28" len="12" pan="0"/>
          <note pos="1308" vol="87" key="32" len="12" pan="0"/>
          <note pos="1320" vol="123" key="32" len="12" pan="0"/>
          <note pos="1320" vol="126" key="24" len="12" pan="0"/>
          <note pos="1332" vol="94" key="32" len="12" pan="0"/>
          <note pos="1332" vol="145" key="28" len="12" pan="0"/>
          <note pos="1344" vol="126" key="32" len="12" pan="0"/>
          <note pos="1344" vol="126" key="24" len="12" pan="0"/>
          <note pos="1356" vol="102" key="32" len="12" pan="0"/>
          <note pos="1368" vol="126" key="32" len="12" pan="0"/>
          <note pos="1380" vol="94" key="32" len="12" pan="0"/>
          <note pos="1380" vol="126" key="24" len="12" pan="0"/>
          <note pos="1392" vol="126" key="32" len="12" pan="0"/>
          <note pos="1392" vol="145" key="28" len="12" pan="0"/>
          <note pos="1404" vol="102" key="32" len="12" pan="0"/>
          <note pos="1416" vol="126" key="32" len="12" pan="0"/>
          <note pos="1416" vol="126" key="24" len="12" pan="0"/>
          <note pos="1428" vol="94" key="32" len="12" pan="0"/>
          <note pos="1428" vol="126" key="24" len="12" pan="0"/>
          <note pos="1440" vol="123" key="32" len="12" pan="0"/>
          <note pos="1452" vol="91" key="32" len="12" pan="0"/>
          <note pos="1452" vol="145" key="28" len="12" pan="0"/>
          <note pos="1464" vol="117" key="32" len="12" pan="0"/>
          <note pos="1464" vol="126" key="24" len="12" pan="0"/>
          <note pos="1476" vol="89" key="32" len="12" pan="0"/>
          <note pos="1488" vol="121" key="32" len="12" pan="0"/>
          <note pos="1488" vol="145" key="28" len="12" pan="0"/>
          <note pos="1500" vol="87" key="32" len="12" pan="0"/>
          <note pos="1500" vol="145" key="28" len="12" pan="0"/>
          <note pos="1512" vol="123" key="32" len="12" pan="0"/>
          <note pos="1512" vol="126" key="24" len="12" pan="0"/>
          <note pos="1524" vol="94" key="32" len="12" pan="0"/>
          <note pos="1524" vol="145" key="28" len="12" pan="0"/>
        </pattern>
        <pattern name="Drums" muted="0" steps="16" pos="6144" type="1">
          <note pos="0" vol="153" key="41" len="48" pan="0"/>
          <note pos="0" vol="126" key="32" len="12" pan="0"/>
          <note pos="0" vol="126" key="24" len="12" pan="0"/>
          <note pos="12" vol="89" key="32" len="12" pan="0"/>
          <note pos="24" vol="126" key="32" len="12" pan="0"/>
          <note pos="36" vol="94" key="32" len="12" pan="0"/>
          <note pos="36" vol="126" key="24" len="12" pan="0"/>
          <note pos="48" vol="153" key="41" len="48" pan="0"/>
          <note pos="48" vol="126" key="32" len="12" pan="0"/>
          <note pos="48" vol="145" key="28" len="12" pan="0"/>
          <note pos="60" vol="102" key="32" len="12" pan="0"/>
          <note pos="72" vol="126" key="32" len="12" pan="0"/>
          <note pos="72" vol="126" key="24" len="12" pan="0"/>
          <note pos="84" vol="94" key="32" len="12" pan="0"/>
          <note pos="84" vol="126" key="24" len="12" pan="0"/>
          <note pos="96" vol="153" key="41" len="48" pan="0"/>
          <note pos="96" vol="123" key="32" len="12" pan="0"/>
          <note pos="108" vol="91" key="32" len="12" pan="0"/>
          <note pos="108" vol="145" key="28" len="12" pan="0"/>
          <note pos="120" vol="117" key="32" len="12" pan="0"/>
          <note pos="120" vol="126" key="24" len="12" pan="0"/>
          <note pos="132" vol="85" key="32" len="12" pan="0"/>
          <note pos="144" vol="153" key="41" len="24" pan="0"/>
          <note pos="144" vol="121" key="32" len="12" pan="0"/>
          <note pos="144" vol="145" key="28" len="12" pan="0"/>
          <note pos="156" vol="87" key="32" len="12" pan="0"/>
          <note pos="168" vol="153" key="41" len="24" pan="0"/>
          <note pos="168" vol="123" key="32" len="12" pan="0"/>
          <note pos="168" vol="126" key="24" len="12" pan="0"/>
          <note pos="180" vol="94" key="32" len="12" pan="0"/>
          <note pos="180" vol="145" key="28" len="12" pan="0"/>
          <note pos="192" vol="153" key="41" len="48" pan="0"/>
          <note pos="192" vol="126" key="32" len="12" pan="0"/>
          <note pos="192" vol="126" key="24" len="12" pan="0"/>
          <note pos="204" vol="102" key="32" len="12" pan="0"/>
          <note pos="216" vol="126" key="32" len="12" pan="0"/>
          <note pos="228" vol="94" key="32" len="12" pan="0"/>
          <note pos="228" vol="126" key="24" len="12" pan="0"/>
          <note pos="240" vol="153" key="41" len="48" pan="0"/>
          <note pos="240" vol="126" key="32" len="12" pan="0"/>
          <note pos="240" vol="145" key="28" len="12" pan="0"/>
          <note pos="252" vol="102" key="32" len="12" pan="0"/>
          <note pos="264" vol="126" key="32" len="12" pan="0"/>
          <note pos="264" vol="126" key="24" len="12" pan="0"/>
          <note pos="276" vol="94" key="32" len="12" pan="0"/>
          <note pos="276" vol="126" key="24" len="12" pan="0"/>
          <note pos="288" vol="153" key="41" len="48" pan="0"/>
          <note pos="288" vol="123" key="32" len="12" pan="0"/>
          <note pos="300" vol="91" key="32" len="12" pan="0"/>
          <note pos="300" vol="145" key="28" len="12" pan="0"/>
          <note pos="312" vol="117" key="32" len="12" pan="0"/>
          <note pos="312" vol="126" key="24" len="12" pan="0"/>
          <note pos="324" vol="85" key="32" len="12" pan="0"/>
          <note pos="336" vol="153" key="41" len="48" pan="0"/>
          <note pos="336" vol="121" key="32" len="12" pan="0"/>
          <note pos="336" vol="145" key="28" len="12" pan="0"/>
          <note pos="348" vol="87" key="32" len="12" pan="0"/>
          <note pos="360" vol="123" key="32" len="12" pan="0"/>
          <note pos="360" vol="126" key="24" len="12" pan="0"/>
          <note pos="372" vol="94" key="32" len="12" pan="0"/>
          <note pos="372" vol="145" key="28" len="12" pan="0"/>
          <note pos="384" vol="153" key="41" len="48" pan="0"/>
          <note pos="384" vol="126" key="32" len="12" pan="0"/>
          <note pos="384" vol="126" key="24" len="12" pan="0"/>
          <note pos="396" vol="102" key="32" len="12" pan="0"/>
          <note pos="408" vol="126" key="32" len="12" pan="0"/>
          <note pos="420" vol="94" key="32" len="12" pan="0"/>
          <note pos="420" vol="126" key="24" len="12" pan="0"/>
          <note pos="432" vol="153" key="41" len="48" pan="0"/>
          <note pos="432" vol="126" key="32" len="12" pan="0"/>
          <note pos="432" vol="145" key="28" len="12" pan="0"/>
          <note pos="444" vol="102" key="32" len="12" pan="0"/>
          <note pos="456" vol="126" key="32" len="12" pan="0"/>
          <note pos="456" vol="126" key="24" len="12" pan="0"/>
          <note pos="468" vol="94" key="32" len="12" pan="0"/>
          <note pos="468" vol="126" key="24" len="12" pan="0"/>
          <note pos="480" vol="153" key="41" len="48" pan="0"/>
          <note pos="480" vol="123" key="32" len="12" pan="0"/>
          <note pos="492" vol="91" key="32" len="12" pan="0"/>
          <note pos="492" vol="145" key="28" len="12" pan="0"/>
          <note pos="504" vol="117" key="32" len="12" pan="0"/>
          <note pos="504" vol="126" key="24" len="12" pan="0"/>
          <note pos="516" vol="85" key="32" len="12" pan="0"/>
          <note pos="528" vol="153" key="41" len="48" pan="0"/>
          <note pos="528" vol="121" key="32" len="12" pan="0"/>
          <note pos="528" vol="145" key="28" len="12" pan="0"/>
          <note pos="540" vol="87" key="32" len="12" pan="0"/>
          <note pos="552" vol="123" key="32" len="12" pan="0"/>
          <note pos="552" vol="126" key="24" len="12" pan="0"/>
          <note pos="564" vol="94" key="32" len="12" pan="0"/>
          <note pos="564" vol="145" key="28" len="12" pan="0"/>
          <note pos="576" vol="153" key="41" len="48" pan="0"/>
          <note pos="576" vol="126" key="32" len="12" pan="0"/>
          <note pos="576" vol="126" key="24" len="12" pan="0"/>
          <note pos="588" vol="102" key="32" len="12" pan="0"/>
          <note pos="600" vol="126" key="32" len="12" pan="0"/>
          <note pos="612" vol="94" key="32" len="12" pan="0"/>
          <note pos="612" vol="126" key="24" len="12" pan="0"/>
          <note pos="624" vol="153" key="41" len="48" pan="0"/>
          <note pos="624" vol="126" key="32" len="12" pan="0"/>
          <note pos="624" vol="145" key="28" len="12" pan="0"/>
          <note pos="636" vol="102" key="32" len="12" pan="0"/>
          <note pos="648" vol="126" key="32" len="12" pan="0"/>
          <note pos="648" vol="126" key="24" len="12" pan="0"/>
          <note pos="660" vol="94" key="32" len="12" pan="0"/>
          <note pos="660" vol="126" key="24" len="12" pan="0"/>
          <note pos="672" vol="153" key="41" len="48" pan="0"/>
          <note pos="672" vol="123" key="32" len="12" pan="0"/>
          <note pos="684" vol="91" key="32" len="12" pan="0"/>
          <note pos="684" vol="145" key="28" len="12" pan="0"/>
          <note pos="696" vol="117" key="32" len="12" pan="0"/>
          <note pos="696" vol="126" key="24" len="12" pan="0"/>
          <note pos="708" vol="89" key="32" len="12" pan="0"/>
          <note pos="720" vol="153" key="41" len="24" pan="0"/>
          <note pos="720" vol="121" key="32" len="12" pan="0"/>
          <note pos="720" vol="145" key="28" len="12" pan="0"/>
          <note pos="732" vol="87" key="32" len="12" pan="0"/>
          <note pos="732" vol="145" key="28" len="12" pan="0"/>
          <note pos="744" vol="153" key="41" len="24" pan="0"/>
          <note pos="744" vol="123" key="32" len="12" pan="0"/>
          <note pos="744" vol="126" key="24" len="12" pan="0"/>
          <note pos="756" vol="94" key="32" len="12" pan="0"/>
          <note pos="756" vol="145" key="28" len="12" pan="0"/>
          <note pos="768" vol="153" key="41" len="48" pan="0"/>
          <note pos="768" vol="126" key="32" len="12" pan="0"/>
          <note pos="768" vol="126" key="24" len="12" pan="0"/>
          <note pos="780" vol="89" key="32" len="12" pan="0"/>
          <note pos="792" vol="126" key="32" len="12" pan="0"/>
          <note pos="804" vol="94" key="32" len="12" pan="0"/>
          <note pos="804" vol="126" key="24" len="12" pan="0"/>
          <note pos="816" vol="153" key="41" len="48" pan="0"/>
          <note pos="816" vol="126" key="32" len="12" pan="0"/>
          <note pos="816" vol="145" key="28" len="12" pan="0"/>
          <note pos="828" vol="102" key="32" len="12" pan="0"/>
          <note pos="840" vol="126" key="32" len="12" pan="0"/>
          <note pos="840" vol="126" key="24" len="12" pan="0"/>
          <note pos="852" vol="94" key="32" len="12" pan="0"/>
          <note pos="852" vol="126" key="24" len="12" pan="0"/>
          <note pos="864" vol="153" key="41" len="48" pan="0"/>
          <note pos="864" vol="123" key="32" len="12" pan="0"/>
          <note pos="876" vol="91" key="32" len="12" pan="0"/>
          <note pos="876" vol="145" key="28" len="12" pan="0"/>
          <note pos="888" vol="117" key="32" len="12" pan="0"/>
          <note pos="888" vol="126" key="24" len="12" pan="0"/>
          <note pos="900" vol="85" key="32" len="12" pan="0"/>
          <note pos="912" vol="153" key="41" len="24" pan="0"/>
          <note pos="912" vol="121" key="32" len="12" pan="0"/>
          <note pos="912" vol="145" key="28" len="12" pan="0"/>
          <note pos="924" vol="87" key="32" len="12" pan="0"/>
          <note pos="936" vol="153" key="41" len="24" pan="0"/>
          <note pos="936" vol="123" key="32" len="12" pan="0"/>
          <note pos="936" vol="126" key="24" len="12" pan="0"/>
          <note pos="948" vol="94" key="32" len="12" pan="0"/>
          <note pos="948" vol="145" key="28" len="12" pan="0"/>
          <note pos="960" vol="153" key="41" len="48" pan="0"/>
          <note pos="960" vol="126" key="32" len="12" pan="0"/>
          <note pos="960" vol="126" key="24" len="12" pan="0"/>
          <note pos="972" vol="102" key="32" len="12" pan="0"/>
          <note pos="984" vol="126" key="32" len="12" pan="0"/>
          <note pos="996" vol="94" key="32" len="12" pan="0"/>
          <note pos="996" vol="126" key="24" len="12" pan="0"/>
          <note pos="1008" vol="153" key="41" len="48" pan="0"/>
          <note pos="1008" vol="126" key="32" len="12" pan="0"/>
          <note pos="1008" vol="145" key="28" len="12" pan="0"/>
          <note pos="1020" vol="102" key="32" len="12" pan="0"/>
          <note pos="1032" vol="126" key="32" len="12" pan="0"/>
          <note pos="1032" vol="126" key="24" len="12" pan="0"/>
          <note pos="1044" vol="94" key="32" len="12" pan="0"/>
          <note pos="1044" vol="126" key="24" len="12" pan="0"/>
          <note pos="1056" vol="153" key="41" len="48" pan="0"/>
          <note pos="1056" vol="123" key="32" len="12" pan="0"/>
          <note pos="1068" vol="91" key="32" len="12" pan="0"/>
          <note pos="1068" vol="145" key="28" len="12" pan="0"/>
          <note pos="1080" vol="117" key="32" len="12" pan="0"/>
          <note pos="1080" vol="126" key="24" len="12" pan="0"/>
          <note pos="1092" vol="85" key="32" len="12" pan="0"/>
          <note pos="1104" vol="153" key="41" len="48" pan="0"/>
          <note pos="1104" vol="121" key="32" len="12" pan="0"/>
          <note pos="1104" vol="145" key="28" len="12" pan="0"/>
          <note pos="1116" vol="87" key="32" len="12" pan="0"/>
          <note pos="1128" vol="123" key="32" len="12" pan="0"/>
          <note pos="1128" vol="126" key="24" len="12" pan="0"/>
          <note pos="1140" vol="94" key="32" len="12" pan="0"/>
          <note pos="1140" vol="145" key="28" len="12" pan="0"/>
          <note pos="1152" vol="153" key="41" len="48" pan="0"/>
          <note pos="1152" vol="126" key="32" len="12" pan="0"/>
          <note pos="1152" vol="126" key="24" len="12" pan="0"/>
          <note pos="1164" vol="102" key="32" len="12" pan="0"/>
          <note pos="1176" vol="126" key="32" len="12" pan="0"/>
          <note pos="1188" vol="94" key="32" len="12" pan="0"/>
          <note pos="1188" vol="126" key="24" len="12" pan="0"/>
          <note pos="1200" vol="153" key="41" len="48" pan="0"/>
          <note pos="1200" vol="126" key="32" len="12" pan="0"/>
          <note pos="1200" vol="145" key="28" len="12" pan="0"/>
          <note pos="1212" vol="102" key="32" len="12" pan="0"/>
          <note pos="1224" vol="126" key="32" len="12" pan="0"/>
          <note pos="1224" vol="126" key="24" len="12" pan="0"/>
          <note pos="1236" vol="94" key="32" len="12" pan="0"/>
          <note pos="1236" vol="126" key="24" len="12" pan="0"/>
          <note pos="1248" vol="153" key="41" len="48" pan="0"/>
          <note pos="1248" vol="123" key="32" len="12" pan="0"/>
          <note pos="1260" vol="91" key="32" len="12" pan="0"/>
          <note pos="1260" vol="145" key="28" len="12" pan="0"/>
          <note pos="1272" vol="117" key="32" len="12" pan="0"/>
          <note pos="1272" vol="126" key="24" len="12" pan="0"/>
          <note pos="1284" vol="85" key="32" len="12" pan="0"/>
          <note pos="1296" vol="153" key="41" len="48" pan="0"/>
          <note pos="1296" vol="121" key="32" len="12" pan="0"/>
          <note pos="1296" vol="145" key="28" len="12" pan="0"/>
          <note pos="1308" vol="87" key="32" len="12" pan="0"/>
          <note pos="1320" vol="123" key="32" len="12" pan="0"/>
          <note pos="1320" vol="126" key="24" len="12" pan="0"/>
          <note pos="1332" vol="94" key="32" len="12" pan="0"/>
          <note pos="1332" vol="145" key="28" len="12" pan="0"/>
          <note pos="1344" vol="153" key="41" len="48" pan="0"/>
          <note pos="1344" vol="126" key="32" len="12" pan="0"/>
          <note pos="1344" vol="126" key="24" len="12" pan="0"/>
          <note pos="1356" vol="102" key="32" len="12" pan="0"/>
          <note pos="1368" vol="126" key="32" len="12" pan="0"/>
          <note pos="1380" vol="94" key="32" len="12" pan="0"/>
          <note pos="1380" vol="126" key="24" len="12" pan="0"/>
          <note pos="1392" vol="153" key="41" len="48" pan="0"/>
          <note pos="1392" vol="126" key="32" len="12" pan="0"/>
          <note pos="1392" vol="145" key="28" len="12" pan="0"/>
          <note pos="1404" vol="102" key="32" len="12" pan="0"/>
          <note pos="1416" vol="126" key="32" len="12" pan="0"/>
          <note pos="1416" vol="126" key="24" len="12" pan="0"/>
          <note pos="1428" vol="94" key="32" len="12" pan="0"/>
          <note pos="1428" vol="126" key="24" len="12" pan="0"/>
          <note pos="1440" vol="153" key="41" len="48" pan="0"/>
          <note pos="1440" vol="123" key="32" len="12" pan="0"/>
          <note pos="1452" vol="91" key="32" len="12" pan="0"/>
          <note pos="1452" vol="145" key="28" len="12" pan="0"/>
          <note pos="1464" vol="117" key="32" len="12" pan="0"/>
          <note pos="1464" vol="126" key="24" len="12" pan="0"/>
          <note pos="1476" vol="89" key="32" len="12" pan="0"/>
          <note pos="1488" vol="153" key="41" len="24" pan="0"/>
          <note pos="1488" vol="121" key="32" len="12" pan="0"/>
          <note pos="1488" vol="145" key="28" len="12" pan="0"/>
          <note pos="1500" vol="87" key="32" len="12" pan="0"/>
          <note pos="1500" vol="145" key="28" len="12" pan="0"/>
          <note pos="1512" vol="153" key="41" len="24" pan="0"/>
          <note pos="1512" vol="123" key="32" len="12" pan="0"/>
          <note pos="1512" vol="126" key="24" len="12" pan="0"/>
          <note pos="1524" vol="94" key="32" len="12" pan="0"/>
          <note pos="1524" vol="145" key="28" len="12" pan="0"/>
        </pattern>
        <pattern name="Drums" muted="0" steps="16" pos="7680" type="1">
          <note pos="0" vol="153" key="41" len="48" pan="0"/>
          <note pos="0" vol="126" key="32" len="12" pan="0"/>
          <note pos="0" vol="126" key="24" len="12" pan="0"/>
          <note pos="12" vol="89" key="32" len="12" pan="0"/>
          <note pos="24" vol="126" key="32" len="12" pan="0"/>
          <note pos="36" vol="94" key="32" len="12" pan="0"/>
          <note pos="36" vol="126" key="24" len="12" pan="0"/>
          <note pos="48" vol="126" key="32" len="12" pan="0"/>
          <note pos="48" vol="145" key="28" len="12" pan="0"/>
          <note pos="60" vol="102" key="32" len="12" pan="0"/>
          <note pos="72" vol="126" key="32" len="12" pan="0"/>
          <note pos="72" vol="126" key="24" len="12" pan="0"/>
          <note pos="84" vol="94" key="32" len="12" pan="0"/>
          <note pos="84" vol="126" key="24" len="12" pan="0"/>
          <note pos="96" vol="123" key="32" len="12" pan="0"/>
          <note pos="108" vol="91" key="32" len="12" pan="0"/>
          <note pos="108" vol="145" key="28" len="12" pan="0"/>
          <note pos="120" vol="117" key="32" len="12" pan="0"/>
          <note pos="120" vol="126" key="24" len="12" pan="0"/>
          <note pos="132" vol="85" key="32" len="12" pan="0"/>
          <note pos="144" vol="121" key="32" len="12" pan="0"/>
          <note pos="144" vol="145" key="28" len="12" pan="0"/>
          <note pos="156" vol="87" key="32" len="12" pan="0"/>
          <note pos="168" vol="123" key="32" len="12" pan="0"/>
          <note pos="168" vol="126" key="24" len="12" pan="0"/>
          <note pos="180" vol="94" key="32" len="12" pan="0"/>
          <note pos="180" vol="145" key="28" len="12" pan="0"/>
          <note pos="192" vol="126" key="32" len="12" pan="0"/>
          <note pos="192" vol="126" key="24" len="12" pan="0"/>
          <note pos="204" vol="102" key="32" len="12" pan="0"/>
          <note pos="216" vol="126" key="32" len="12" pan="0"/>
          <note pos="228" vol="94" key="32" len="12" pan="0"/>
          <note pos="228" vol="126" key="24" len="12" pan="0"/>
          <note pos="240" vol="126" key="32" len="12" pan="0"/>
          <note pos="240" vol="145" key="28" len="12" pan="0"/>
          <note pos="252" vol="102" key="32" len="12" pan="0"/>
          <note pos="264" vol="126" key="32" len="12" pan="0"/>
          <note pos="264" vol="126" key="24" len="12" pan="0"/>
          <note pos="276" vol="94" key="32" len="12" pan="0"/>
          <note pos="276" vol="126" key="24" len="12" pan="0"/>
          <note pos="288" vol="123" key="32" len="12" pan="0"/>
          <note pos="300" vol="91" key="32" len="12" pan="0"/>
          <note pos="300" vol="145" key="28" len="12" pan="0"/>
          <note pos="312" vol="117" key="32" len="12" pan="0"/>
          <note pos="312" vol="126" key="24" len="12" pan="0"/>
          <note pos="324" vol="85" key="32" len="12" pan="0"/>
          <note pos="336" vol="121" key="32" len="12" pan="0"/>
          <note pos="336" vol="145" key="28" len="12" pan="0"/>
          <note pos="348" vol="87" key="32" len="12" pan="0"/>
          <note pos="360" vol="123" key="32" len="12" pan="0"/>
          <note pos="360" vol="126" key="24" len="12" pan="0"/>
          <note pos="372" vol="94" key="32" len="12" pan="0"/>
          <note pos="372" vol="145" key="28" len="12" pan="0"/>
          <note pos="384" vol="126" key="32" len="12" pan="0"/>
          <note pos="384" vol="126" key="24" len="12" pan="0"/>
          <note pos="396" vol="102" key="32" len="12" pan="0"/>
          <note pos="408" vol="126" key="32" len="12" pan="0"/>
          <note pos="420" vol="94" key="32" len="12" pan="0"/>
          <note pos="420" vol="126" key="24" len="12" pan="0"/>
          <note pos="432" vol="126" key="32" len="12" pan="0"/>
          <note pos="432" vol="145" key="28" len="12" pan="0"/>
          <note pos="444" vol="102" key="32" len="12" pan="0"/>
          <note pos="456" vol="126" key="32" len="12" pan="0"/>
          <note pos="456" vol="126" key="24" len="12" pan="0"/>
          <note pos="468" vol="94" key="32" len="12" pan="0"/>
          <note pos="468" vol="126" key="24" len="12" pan="0"/>
          <note pos="480" vol="123" key="32" len="12" pan="0"/>
          <note pos="492" vol="91" key="32" len="12" pan="0"/>
          <note pos="492" vol="145" key="28" len="12" pan="0"/>
          <note pos="504" vol="117" key="32" len="12" pan="0"/>
          <note pos="504" vol="126" key="24" len="12" pan="0"/>
          <note pos="516" vol="85" key="32" len="12" pan="0"/>
          <note pos="528" vol="121" key="32" len="12" pan="0"/>
          <note pos="528" vol="145" key="28" len="12" pan="0"/>
          <note pos="540" vol="87" key="32" len="12" pan="0"/>
          <note pos="552" vol="123" key="32" len="12" pan="0"/>
          <note pos="552" vol="126" key="24" len="12" pan="0"/>
          <note pos="564" vol="94" key="32" len="12" pan="0"/>
          <note pos="564" vol="145" key="28" len="12" pan="0"/>
          <note pos="576" vol="126" key="32" len="12" pan="0"/>
          <note pos="576" vol="126" key="24" len="12" pan="0"/>
          <note pos="588" vol="102" key="32" len="12" pan="0"/>
          <note pos="600" vol="126" key="32" len="12" pan="0"/>
          <note pos="612" vol="94" key="32" len="12" pan="0"/>
          <note pos="612" vol="126" key="24" len="12" pan="0"/>
          <note pos="624" vol="126" key="32" len="12" pan="0"/>
          <note pos="624" vol="145" key="28" len="12" pan="0"/>
          <note pos="636" vol="102" key="32" len="12" pan="0"/>
          <note pos="648" vol="126" key="32" len="12" pan="0"/>
          <note pos="648" vol="126" key="24" len="12" pan="0"/>
          <note pos="660" vol="94" key="32" len="12" pan="0"/>
          <note pos="660" vol="126" key="24" len="12" pan="0"/>
          <note pos="672" vol="123" key="32" len="12" pan="0"/>
          <note pos="684" vol="91" key="32" len="12" pan="0"/>
          <note pos="684" vol="145" key="28" len="12" pan="0"/>
          <note pos="696" vol="117" key="32" len="12" pan="0"/>
          <note pos="696" vol="126" key="24" len="12" pan="0"/>
          <note pos="708" vol="89" key="32" len="12" pan="0"/>
          <note pos="720" vol="121" key="32" len="12" pan="0"/>
          <note pos="720" vol="145" key="28" len="12" pan="0"/>
          <note pos="732" vol="87" key="32" len="12" pan="0"/>
          <note pos="732" vol="145" key="28" len="12" pan="0"/>
          <note pos="744" vol="123" key="32" len="12" pan="0"/>
          <note pos="744" vol="126" key="24" len="12" pan="0"/>
          <note pos="756" vol="94" key="32" len="12" pan="0"/>
          <note pos="756" vol="145" key="28" len="12" pan="0"/>
          <note pos="768" vol="126" key="32" len="12" pan="0"/>
          <note pos="768" vol="126" key="24" len="12" pan="0"/>
          <note pos="780" vol="89" key="32" len="12" pan="0"/>
          <note pos="792" vol="126" key="32" len="12" pan="0"/>
          <note pos="804" vol="94" key="32" len="12" pan="0"/>
          <note pos="804" vol="126" key="24" len="12" pan="0"/>
          <note pos="816" vol="126" key="32" len="12" pan="0"/>
          <note pos="816" vol="145" key="28" len="12" pan="0"/>
          <note pos="828" vol="102" key="32" len="12" pan="0"/>
          <note pos="840" vol="126" key="32" len="12" pan="0"/>
          <note pos="840" vol="126" key="24" len="12" pan="0"/>
          <note pos="852" vol="94" key="32" len="12" pan="0"/>
          <note pos="852" vol="126" key="24" len="12" pan="0"/>
          <note pos="864" vol="123" key="32" len="12" pan="0"/>
          <note pos="876" vol="91" key="32" len="12" pan="0"/>
          <note pos="876" vol="145" key="28" len="12" pan="0"/>
          <note pos="888" vol="117" key="32" len="12" pan="0"/>
          <note pos="888" vol="126" key="24" len="12" pan="0"/>
          <note pos="900" vol="85" key="32" len="12" pan="0"/>
          <note pos="912" vol="121" key="32" len="12" pan="0"/>
          <note pos="912" vol="145" key="28" len="12" pan="0"/>
          <note pos="924" vol="87" key="32" len="12" pan="0"/>
          <note pos="936" vol="123" key="32" len="12" pan="0"/>
          <note pos="936" vol="126" key="24" len="12" pan="0"/>
          <note pos="948" vol="94" key="32" len="12" pan="0"/>
          <note pos="948" vol="145" key="28" len="12" pan="0"/>
          <note pos="960" vol="126" key="32" len="12" pan="0"/>
          <note pos="960" vol="126" key="24" len="12" pan="0"/>
          <note pos="972" vol="102" key="32" len="12" pan="0"/>
          <note pos="984" vol="126" key="32" len="12" pan="0"/>
          <note pos="996" vol="94" key="32" len="12" pan="0"/>
          <note pos="996" vol="126" key="24" len="12" pan="0"/>
          <note pos="1008" vol="126" key="32" len="12" pan="0"/>
          <note pos="1008" vol="145" key="28" len="12" pan="0"/>
          <note pos="1020" vol="102" key="32" len="12" pan="0"/>
          <note pos="1032" vol="126" key="32" len="12" pan="0"/>
          <note pos="1032" vol="126" key="24" len="12" pan="0"/>
          <note pos="1044" vol="94" key="32" len="12" pan="0"/>
          <note pos="1044" vol="126" key="24" len="12" pan="0"/>
          <note pos="1056" vol="123" key="32" len="12" pan="0"/>
          <note pos="1068" vol="91" key="32" len="12" pan="0"/>
          <note pos="1068" vol="145" key="28" len="12" pan="0"/>
          <note pos="1080" vol="117" key="32" len="12" pan="0"/>
          <note pos="1080" vol="126" key="24" len="12" pan="0"/>
          <note pos="1092" vol="85" key="32" len="12" pan="0"/>
          <note pos="1104" vol="121" key="32" len="12" pan="0"/>
          <note pos="1104" vol="145" key="28" len="12" pan="0"/>
          <note pos="1116" vol="87" key="32" len="12" pan="0"/>
          <note pos="1128" vol="123" key="32" len="12" pan="0"/>
          <note pos="1128" vol="126" key="24" len="12" pan="0"/>
          <note pos="1140" vol="94" key="32" len="12" pan="0"/>
          <note pos="1140" vol="145" key="28" len="12" pan="0"/>
          <note pos="1152" vol="126" key="32" len="12" pan="0"/>
          <note pos="1152" vol="126" key="24" len="12" pan="0"/>
          <note pos="1164" vol="102" key="32" len="12" pan="0"/>
          <note pos="1176" vol="126" key="32" len="12" pan="0"/>
          <note pos="1188" vol="94" key="32" len="12" pan="0"/>
          <note pos="1188" vol="126" key="24" len="12" pan="0"/>
          <note pos="1200" vol="126" key="32" len="12" pan="0"/>
          <note pos="1200" vol="145" key="28" len="12" pan="0"/>
          <note pos="1212" vol="102" key="32" len="12" pan="0"/>
          <note pos="1224" vol="126" key="32" len="12" pan="0"/>
          <note pos="1224" vol="126" key="24" len="12" pan="0"/>
          <note pos="1236" vol="94" key="32" len="12" pan="0"/>
          <note pos="1236" vol="126" key="24" len="12" pan="0"/>
          <note pos="1248" vol="123" key="32" len="12" pan="0"/>
          <note pos="1260" vol="91" key="32" len="12" pan="0"/>
          <note pos="1260" vol="145" key="28" len="12" pan="0"/>
          <note pos="1272" vol="117" key="32" len="12" pan="0"/>
          <note pos="1272" vol="126" key="24" len="12" pan="0"/>
          <note pos="1284" vol="85" key="32" len="12" pan="0"/>
          <note pos="1296" vol="121" key="32" len="12" pan="0"/>
          <note pos="1296" vol="145" key="28" len="12" pan="0"/>
          <note pos="1308" vol="87" key="32" len="12" pan="0"/>
          <note pos="1320" vol="123" key="32" len="12" pan="0"/>
          <note pos="1320" vol="126" key="24" len="12" pan="0"/>
          <note pos="1332" vol="94" key="32" len="12" pan="0"/>
          <note pos="1332" vol="145" key="28" len="12" pan="0"/>
          <note pos="1344" vol="126" key="32" len="12" pan="0"/>
          <note pos="1344" vol="126" key="24" len="12" pan="0"/>
          <note pos="1356" vol="102" key="32" len="12" pan="0"/>
          <note pos="1368" vol="126" key="32" len="12" pan="0"/>
          <note pos="1380" vol="94" key="32" len="12" pan="0"/>
          <note pos="1380" vol="126" key="24" len="12" pan="0"/>
          <note pos="1392" vol="126" key="32" len="12" pan="0"/>
          <note pos="1392" vol="145" key="28" len="12" pan="0"/>
          <note pos="1404" vol="102" key="32" len="12" pan="0"/>
          <note pos="1416" vol="126" key="32" len="12" pan="0"/>
          <note pos="1416" vol="126" key="24" len="12" pan="0"/>
          <note pos="1428" vol="94" key="32" len="12" pan="0"/>
          <note pos="1428" vol="126" key="24" len="12" pan="0"/>
          <note pos="1440" vol="123" key="32" len="12" pan="0"/>
          <note pos="1452" vol="91" key="32" len="12" pan="0"/>
          <note pos="1452" vol="145" key="28" len="12" pan="0"/>
          <note pos="1464" vol="117" key="32" len="12" pan="0"/>
          <note pos="1464" vol="126" key="24" len="12" pan="0"/>
          <note pos="1476" vol="89" key="32" len="12" pan="0"/>
          <note pos="1488" vol="121" key="32" len="12" pan="0"/>
          <note pos="1488" vol="145" key="28" len="12" pan="0"/>
          <note pos="1500" vol="87" key="32" len="12" pan="0"/>
          <note pos="1500" vol="145" key="28" len="12" pan="0"/>
          <note pos="1512" vol="123" key="32" len="12" pan="0"/>
          <note pos="1512" vol="126" key="24" len="12" pan="0"/>
          <note pos="1524" vol="94" key="32" len="12" pan="0"/>
          <note pos="1524" vol="145" key="28" len="12" pan="0"/>
        </pattern>
        <pattern name="Drums" muted="0" steps="16" pos="10752" type="1">
          <note pos="0" vol="126" key="32" len="12" pan="0"/>
          <note pos="0" vol="126" key="24" len="12" pan="0"/>
          <note pos="12" vol="89" key="32" len="12" pan="0"/>
          <note pos="24" vol="126" key="32" len="12" pan="0"/>
          <note pos="36" vol="94" key="32" len="12" pan="0"/>
          <note pos="36" vol="126" key="24" len="12" pan="0"/>
          <note pos="48" vol="126" key="32" len="12" pan="0"/>
          <note pos="48" vol="145" key="28" len="12" pan="0"/>
          <note pos="60" vol="102" key="32" len="12" pan="0"/>
          <note pos="72" vol="126" key="32" len="12" pan="0"/>
          <note pos="72" vol="126" key="24" len="12" pan="0"/>
          <note pos="84" vol="94" key="32" len="12" pan="0"/>
          <note pos="84" vol="126" key="24" len="12" pan="0"/>
          <note pos="96" vol="123" key="32" len="12" pan="0"/>
          <note pos="108" vol="91" key="32" len="12" pan="0"/>
          <note pos="108" vol="145" key="28" len="12" pan="0"/>
          <note pos="120" vol="117" key="32" len="12" pan="0"/>
          <note pos="120" vol="126" key="24" len="12" pan="0"/>
          <note pos="132" vol="85" key="32" len="12" pan="0"/>
          <note pos="144" vol="121" key="32" len="12" pan="0"/>
          <note pos="144" vol="145" key="28" len="12" pan="0"/>
          <note pos="156" vol="87" key="32" len="12" pan="0"/>
          <note pos="168" vol="123" key="32" len="12" pan="0"/>
          <note pos="168" vol="126" key="24" len="12" pan="0"/>
          <note pos="180" vol="94" key="32" len="12" pan="0"/>
          <note pos="180" vol="145" key="28" len="12" pan="0"/>
          <note pos="192" vol="126" key="32" len="12" pan="0"/>
          <note pos="192" vol="126" key="24" len="12" pan="0"/>
          <note pos="204" vol="102" key="32" len="12" pan="0"/>
          <note pos="216" vol="126" key="32" len="12" pan="0"/>
          <note pos="228" vol="94" key="32" len="12" pan="0"/>
          <note pos="228" vol="126" key="24" len="12" pan="0"/>
          <note pos="240" vol="126" key="32" len="12" pan="0"/>
          <note pos="240" vol="145" key="28" len="12" pan="0"/>
          <note pos="252" vol="102" key="32" len="12" pan="0"/>
          <note pos="264" vol="126" key="32" len="12" pan="0"/>
          <note pos="264" vol="126" key="24" len="12" pan="0"/>
          <note pos="276" vol="94" key="32" len="12" pan="0"/>
          <note pos="276" vol="126" key="24" len="12" pan="0"/>
          <note pos="288" vol="123" key="32" len="12" pan="0"/>
          <note pos="300" vol="91" key="32" len="12" pan="0"/>
          <note pos="300" vol="145" key="28" len="12" pan="0"/>
          <note pos="312" vol="117" key="32" len="12" pan="0"/>
          <note pos="312" vol="126" key="24" len="12" pan="0"/>
          <note pos="324" vol="85" key="32" len="12" pan="0"/>
          <note pos="336" vol="121" key="32" len="12" pan="0"/>
          <note pos="336" vol="145" key="28" len="12" pan="0"/>
          <note pos="348" vol="87" key="32" len="12" pan="0"/>
          <note pos="360" vol="123" key="32" len="12" pan="0"/>
          <note pos="360" vol="126" key="24" len="12" pan="0"/>
          <note pos="372" vol="94" key="32" len="12" pan="0"/>
          <note pos="372" vol="145" key="28" len="12" pan="0"/>
          <note pos="384" vol="126" key="32" len="12" pan="0"/>
          <note pos="384" vol="126" key="24" len="12" pan="0"/>
          <note pos="396" vol="102" key="32" len="12" pan="0"/>
          <note pos="408" vol="126" key="32" len="12" pan="0"/>
          <note pos="420" vol="94" key="32" len="12" pan="0"/>
          <note pos="420" vol="126" key="24" len="12" pan="0"/>
          <note pos="432" vol="126" key="32" len="12" pan="0"/>
          <note pos="432" vol="145" key="28" len="12" pan="0"/>
          <note pos="444" vol="102" key="32" len="12" pan="0"/>
          <note pos="456" vol="126" key="32" len="12" pan="0"/>
          <note pos="456" vol="126" key="24" len="12" pan="0"/>
          <note pos="468" vol="94" key="32" len="12" pan="0"/>
          <note pos="468" vol="126" key="24" len="12" pan="0"/>
          <note pos="480" vol="123" key="32" len="12" pan="0"/>
          <note pos="492" vol="91" key="32" len="12" pan="0"/>
          <note pos="492" vol="145" key="28" len="12" pan="0"/>
          <note pos="504" vol="117" key="32" len="12" pan="0"/>
          <note pos="504" vol="126" key="24" len="12" pan="0"/>
          <note pos="516" vol="85" key="32" len="12" pan="0"/>
          <note pos="528" vol="121" key="32" len="12" pan="0"/>
          <note pos="528" vol="145" key="28" len="12" pan="0"/>
          <note pos="540" vol="87" key="32" len="12" pan="0"/>
          <note pos="552" vol="123" key="32" len="12" pan="0"/>
          <note pos="552" vol="126" key="24" len="12" pan="0"/>
          <note pos="564" vol="94" key="32" len="12" pan="0"/>
          <note pos="564" vol="145" key="28" len="12" pan="0"/>
          <note pos="576" vol="126" key="32" len="12" pan="0"/>
          <note pos="576" vol="126" key="24" len="12" pan="0"/>
          <note pos="588" vol="102" key="32" len="12" pan="0"/>
          <note pos="600" vol="126" key="32" len="12" pan="0"/>
          <note pos="612" vol="94" key="32" len="12" pan="0"/>
          <note pos="612" vol="126" key="24" len="12" pan="0"/>
          <note pos="624" vol="126" key="32" len="12" pan="0"/>
          <note pos="624" vol="145" key="28" len="12" pan="0"/>
          <note pos="636" vol="102" key="32" len="12" pan="0"/>
          <note pos="648" vol="126" key="32" len="12" pan="0"/>
          <note pos="648" vol="126" key="24" len="12" pan="0"/>
          <note pos="660" vol="94" key="32" len="12" pan="0"/>
          <note pos="660" vol="126" key="24" len="12" pan="0"/>
          <note pos="672" vol="123" key="32" len="12" pan="0"/>
          <note pos="684" vol="91" key="32" len="12" pan="0"/>
          <note pos="684" vol="145" key="28" len="12" pan="0"/>
          <note pos="696" vol="117" key="32" len="12" pan="0"/>
          <note pos="696" vol="126" key="24" len="12" pan="0"/>
          <note pos="708" vol="89" key="32" len="12" pan="0"/>
          <note pos="720" vol="121" key="32" len="12" pan="0"/>
          <note pos="720" vol="145" key="28" len="12" pan="0"/>
          <note pos="732" vol="87" key="32" len="12" pan="0"/>
          <note pos="732" vol="145" key="28" len="12" pan="0"/>
          <note pos="744" vol="123" key="32" len="12" pan="0"/>
          <note pos="744" vol="126" key="24" len="12" pan="0"/>
          <note pos="756" vol="94" key="32" len="12" pan="0"/>
          <note pos="756" vol="145" key="28" len="12" pan="0"/>
          <note pos="768" vol="126" key="32" len="12" pan="0"/>
          <note pos="768" vol="126" key="24" len="12" pan="0"/>
          <note pos="780" vol="89" key="32" len="12" pan="0"/>
          <note pos="792" vol="126" key="32" len="12" pan="0"/>
          <note pos="804" vol="94" key="32" len="12" pan="0"/>
          <note pos="804" vol="126" key="24" len="12" pan="0"/>
          <note pos="816" vol="126" key="32" len="12" pan="0"/>
          <note pos="816" vol="145" key="28" len="12" pan="0"/>
          <note pos="828" vol="102" key="32" len="12" pan="0"/>
          <note pos="840" vol="126" key="32" len="12" pan="0"/>
          <note pos="840" vol="126" key="24" len="12" pan="0"/>
          <note pos="852" vol="94" key="32" len="12" pan="0"/>
          <note pos="852" vol="126" key="24" len="12" pan="0"/>
          <note pos="864" vol="123" key="32" len="12" pan="0"/>
          <note pos="876" vol="91" key="32" len="12" pan="0"/>
          <note pos="876" vol="145" key="28" len="12" pan="0"/>
          <note pos="888" vol="117" key="32" len="12" pan="0"/>
          <note pos="888" vol="126" key="24" len="12" pan="0"/>
          <note pos="900" vol="85" key="32" len="12" pan="0"/>
          <note pos="912" vol="121" key="32" len="12" pan="0"/>
          <note pos="912" vol="145" key="28" len="12" pan="0"/>
          <note pos="924" vol="87" key="32" len="12" pan="0"/>
          <note pos="936" vol="123" key="32" len="12" pan="0"/>
          <note pos="936" vol="126" key="24" len="12" pan="0"/>
          <note pos="948" vol="94" key="32" len="12" pan="0"/>
          <note pos="948" vol="145" key="28" len="12" pan="0"/>
          <note pos="960" vol="126" key="32" len="12" pan="0"/>
          <note pos="960" vol="126" key="24" len="12" pan="0"/>
          <note pos="972" vol="102" key="32" len="12" pan="0"/>
          <note pos="984" vol="126" key="32" len="12" pan="0"/>
          <note pos="996" vol="94" key="32" len="12" pan="0"/>
          <note pos="996" vol="126" key="24" len="12" pan="0"/>
          <note pos="1008" vol="126" key="32" len="12" pan="0"/>
          <note pos="1008" vol="145" key="28" len="12" pan="0"/>
          <note pos="1020" vol="102" key="32" len="12" pan="0"/>
          <note pos="1032" vol="126" key="32" len="12" pan="0"/>
          <note pos="1032" vol="126" key="24" len="12" pan="0"/>
          <note pos="1044" vol="94" key="32" len="12" pan="0"/>
          <note pos="1044" vol="126" key="24" len="12" pan="0"/>
          <note pos="1056" vol="123" key="32" len="12" pan="0"/>
          <note pos="1068" vol="91" key="32" len="12" pan="0"/>
          <note pos="1068" vol="145" key="28" len="12" pan="0"/>
          <note pos="1080" vol="117" key="32" len="12" pan="0"/>
          <note pos="1080" vol="126" key="24" len="12" pan="0"/>
          <note pos="1092" vol="85" key="32" len="12" pan="0"/>
          <note pos="1104" vol="121" key="32" len="12" pan="0"/>
          <note pos="1104" vol="145" key="28" len="12" pan="0"/>
          <note pos="1116" vol="87" key="32" len="12" pan="0"/>
          <note pos="1128" vol="123" key="32" len="12" pan="0"/>
          <note pos="1128" vol="126" key="24" len="12" pan="0"/>
          <note pos="1140" vol="94" key="32" len="12" pan="0"/>
          <note pos="1140" vol="145" key="28" len="12" pan="0"/>
          <note pos="1152" vol="126" key="32" len="12" pan="0"/>
          <note pos="1152" vol="126" key="24" len="12" pan="0"/>
          <note pos="1164" vol="102" key="32" len="12" pan="0"/>
          <note pos="1176" vol="126" key="32" len="12" pan="0"/>
          <note pos="1188" vol="94" key="32" len="12" pan="0"/>
          <note pos="1188" vol="126" key="24" len="12" pan="0"/>
          <note pos="1200" vol="126" key="32" len="12" pan="0"/>
          <note pos="1200" vol="145" key="28" len="12" pan="0"/>
          <note pos="1212" vol="102" key="32" len="12" pan="0"/>
          <note pos="1224" vol="126" key="32" len="12" pan="0"/>
          <note pos="1224" vol="126" key="24" len="12" pan="0"/>
          <note pos="1236" vol="94" key="32" len="12" pan="0"/>
          <note pos="1236" vol="126" key="24" len="12" pan="0"/>
          <note pos="1248" vol="123" key="32" len="12" pan="0"/>
          <note pos="1260" vol="91" key="32" len="12" pan="0"/>
          <note pos="1260" vol="145" key="28" len="12" pan="0"/>
          <note pos="1272" vol="117" key="32" len="12" pan="0"/>
          <note pos="1272" vol="126" key="24" len="12" pan="0"/>
          <note pos="1284" vol="85" key="32" len="12" pan="0"/>
          <note pos="1296" vol="121" key="32" len="12" pan="0"/>
          <note pos="1296" vol="145" key="28" len="12" pan="0"/>
          <note pos="1308" vol="87" key="32" len="12" pan="0"/>
          <note pos="1320" vol="123" key="32" len="12" pan="0"/>
          <note pos="1320" vol="126" key="24" len="12" pan="0"/>
          <note pos="1332" vol="94" key="32" len="12" pan="0"/>
          <note pos="1332" vol="145" key="28" len="12" pan="0"/>
          <note pos="1344" vol="126" key="32" len="12" pan="0"/>
          <note pos="1344" vol="126" key="24" len="12" pan="0"/>
          <note pos="1356" vol="102" key="32" len="12" pan="0"/>
          <note pos="1368" vol="126" key="32" len="12" pan="0"/>
          <note pos="1380" vol="94" key="32" len="12" pan="0"/>
          <note pos="1380" vol="126" key="24" len="12" pan="0"/>
          <note pos="1392" vol="126" key="32" len="12" pan="0"/>
          <note pos="1392" vol="145" key="28" len="12" pan="0"/>
          <note pos="1404" vol="102" key="32" len="12" pan="0"/>
          <note pos="1416" vol="126" key="32" len="12" pan="0"/>
          <note pos="1416" vol="126" key="24" len="12" pan="0"/>
          <note pos="1428" vol="94" key="32" len="12" pan="0"/>
          <note pos="1428" vol="126" key="24" len="12" pan="0"/>
          <note pos="1440" vol="123" key="32" len="12" pan="0"/>
          <note pos="1452" vol="91" key="32" len="12" pan="0"/>
          <note pos="1452" vol="145" key="28" len="12" pan="0"/>
          <note pos="1464" vol="117" key="32" len="12" pan="0"/>
          <note pos="1464" vol="126" key="24" len="12" pan="0"/>
          <note pos="1476" vol="89" key="32" len="12" pan="0"/>
          <note pos="1488" vol="121" key="32" len="12" pan="0"/>
          <note pos="1488" vol="145" key="28" len="12" pan="0"/>
          <note pos="1500" vol="87" key="32" len="12" pan="0"/>
          <note pos="1500" vol="145" key="28" len="12" pan="0"/>
          <note pos="1512" vol="123" key="32" len="12" pan="0"/>
          <note pos="1512" vol="126" key="24" len="12" pan="0"/>
          <note pos="1524" vol="94" key="32" len="12" pan="0"/>
          <note pos="1524" vol="145" key="28" len="12" pan="0"/>
        </pattern>
        <pattern name="Drums" muted="0" steps="16" pos="3072" type="1">
          <note pos="0" vol="126" key="32" len="12" pan="0"/>
          <note pos="0" vol="126" key="24" len="12" pan="0"/>
          <note pos="12" vol="89" key="32" len="12" pan="0"/>
          <note pos="24" vol="126" key="32" len="12" pan="0"/>
          <note pos="36" vol="94" key="32" len="12" pan="0"/>
          <note pos="36" vol="126" key="24" len="12" pan="0"/>
          <note pos="48" vol="126" key="32" len="12" pan="0"/>
          <note pos="48" vol="145" key="28" len="12" pan="0"/>
          <note pos="60" vol="102" key="32" len="12" pan="0"/>
          <note pos="72" vol="126" key="32" len="12" pan="0"/>
          <note pos="72" vol="126" key="24" len="12" pan="0"/>
          <note pos="84" vol="94" key="32" len="12" pan="0"/>
          <note pos="84" vol="126" key="24" len="12" pan="0"/>
          <note pos="96" vol="123" key="32" len="12" pan="0"/>
          <note pos="108" vol="91" key="32" len="12" pan="0"/>
          <note pos="108" vol="145" key="28" len="12" pan="0"/>
          <note pos="120" vol="117" key="32" len="12" pan="0"/>
          <note pos="120" vol="126" key="24" len="12" pan="0"/>
          <note pos="132" vol="85" key="32" len="12" pan="0"/>
          <note pos="144" vol="121" key="32" len="12" pan="0"/>
          <note pos="144" vol="145" key="28" len="12" pan="0"/>
          <note pos="156" vol="87" key="32" len="12" pan="0"/>
          <note pos="168" vol="123" key="32" len="12" pan="0"/>
          <note pos="168" vol="126" key="24" len="12" pan="0"/>
          <note pos="180" vol="94" key="32" len="12" pan="0"/>
          <note pos="180" vol="145" key="28" len="12" pan="0"/>
          <note pos="192" vol="126" key="32" len="12" pan="0"/>
          <note pos="192" vol="126" key="24" len="12" pan="0"/>
          <note pos="204" vol="102" key="32" len="12" pan="0"/>
          <note pos="216" vol="126" key="32" len="12" pan="0"/>
          <note pos="228" vol="94" key="32" len="12" pan="0"/>
          <note pos="228" vol="126" key="24" len="12" pan="0"/>
          <note pos="240" vol="126" key="32" len="12" pan="0"/>
          <note pos="240" vol="145" key="28" len="12" pan="0"/>
          <note pos="252" vol="102" key="32" len="12" pan="0"/>
          <note pos="264" vol="126" key="32" len="12" pan="0"/>
          <note pos="264" vol="126" key="24" len="12" pan="0"/>
          <note pos="276" vol="94" key="32" len="12" pan="0"/>
          <note pos="276" vol="126" key="24" len="12" pan="0"/>
          <note pos="288" vol="123" key="32" len="12" pan="0"/>
          <note pos="300" vol="91" key="32" len="12" pan="0"/>
          <note pos="300" vol="145" key="28" len="12" pan="0"/>
          <note pos="312" vol="117" key="32" len="12" pan="0"/>
          <note pos="312" vol="126" key="24" len="12" pan="0"/>
          <note pos="324" vol="85" key="32" len="12" pan="0"/>
          <note pos="336" vol="121" key="32" len="12" pan="0"/>
          <note pos="336" vol="145" key="28" len="12" pan="0"/>
          <note pos="348" vol="87" key="32" len="12" pan="0"/>
          <note pos="360" vol="123" key="32" len="12" pan="0"/>
          <note pos="360" vol="126" key="24" len="12" pan="0"/>
          <note pos="372" vol="94" key="32" len="12" pan="0"/>
          <note pos="372" vol="145" key="28" len="12" pan="0"/>
          <note pos="384" vol="126" key="32" len="12" pan="0"/>
          <note pos="384" vol="126" key="24" len="12" pan="0"/>
          <note pos="396" vol="102" key="32" len="12" pan="0"/>
          <note pos="408" vol="126" key="32" len="12" pan="0"/>
          <note pos="420" vol="94" key="32" len="12" pan="0"/>
          <note pos="420" vol="126" key="24" len="12" pan="0"/>
          <note pos="432" vol="126" key="32" len="12" pan="0"/>
          <note pos="432" vol="145" key="28" len="12" pan="0"/>
          <note pos="444" vol="102" key="32" len="12" pan="0"/>
          <note pos="456" vol="126" key="32" len="12" pan="0"/>
          <note pos="456" vol="126" key="24" len="12" pan="0"/>
          <note pos="468" vol="94" key="32" len="12" pan="0"/>
          <note pos="468" vol="126" key="24" len="12" pan="0"/>
          <note pos="480" vol="123" key="32" len="12" pan="0"/>
          <note pos="492" vol="91" key="32" len="12" pan="0"/>
          <note pos="492" vol="145" key="28" len="12" pan="0"/>
          <note pos="504" vol="117" key="32" len="12" pan="0"/>
          <note pos="504" vol="126" key="24" len="12" pan="0"/>
          <note pos="516" vol="85" key="32" len="12" pan="0"/>
          <note pos="528" vol="121" key="32" len="12" pan="0"/>
          <note pos="528" vol="145" key="28" len="12" pan="0"/>
          <note pos="540" vol="87" key="32" len="12" pan="0"/>
          <note pos="552" vol="123" key="32" len="12" pan="0"/>
          <note pos="552" vol="126" key="24" len="12" pan="0"/>
          <note pos="564" vol="94" key="32" len="12" pan="0"/>
          <note pos="564" vol="145" key="28" len="12" pan="0"/>
          <note pos="576" vol="126" key="32" len="12" pan="0"/>
          <note pos="576" vol="126" key="24" len="12" pan="0"/>
          <note pos="588" vol="102" key="32" len="12" pan="0"/>
          <note pos="600" vol="126" key="32" len="12" pan="0"/>
          <note pos="612" vol="94" key="32" len="12" pan="0"/>
          <note pos="612" vol="126" key="24" len="12" pan="0"/>
          <note pos="624" vol="126" key="32" len="12" pan="0"/>
          <note pos="624" vol="145" key="28" len="12" pan="0"/>
          <note pos="636" vol="102" key="32" len="12" pan="0"/>
          <note pos="648" vol="126" key="32" len="12" pan="0"/>
          <note pos="648" vol="126" key="24" len="12" pan="0"/>
          <note pos="660" vol="94" key="32" len="12" pan="0"/>
          <note pos="660" vol="126" key="24" len="12" pan="0"/>
          <note pos="672" vol="123" key="32" len="12" pan="0"/>
          <note pos="684" vol="91" key="32" len="12" pan="0"/>
          <note pos="684" vol="145" key="28" len="12" pan="0"/>
          <note pos="696" vol="117" key="32" len="12" pan="0"/>
          <note pos="696" vol="126" key="24" len="12" pan="0"/>
          <note pos="708" vol="89" key="32" len="12" pan="0"/>
          <note pos="720" vol="121" key="32" len="12" pan="0"/>
          <note pos="720" vol="145" key="28" len="12" pan="0"/>
          <note pos="732" vol="87" key="32" len="12" pan="0"/>
          <note pos="732" vol="145" key="28" len="12" pan="0"/>
          <note pos="744" vol="123" key="32" len="12" pan="0"/>
          <note pos="744" vol="126" key="24" len="12" pan="0"/>
          <note pos="756" vol="94" key="32" len="12" pan="0"/>
          <note pos="756" vol="145" key="28" len="12" pan="0"/>
          <note pos="768" vol="126" key="32" len="12" pan="0"/>
          <note pos="768" vol="126" key="24" len="12" pan="0"/>
          <note pos="780" vol="89" key="32" len="12" pan="0"/>
          <note pos="792" vol="126" key="32" len="12" pan="0"/>
          <note pos="804" vol="94" key="32" len="12" pan="0"/>
          <note pos="804" vol="126" key="24" len="12" pan="0"/>
          <note pos="816" vol="126" key="32" len="12" pan="0"/>
          <note pos="816" vol="145" key="28" len="12" pan="0"/>
          <note pos="828" vol="102" key="32" len="12" pan="0"/>
          <note pos="840" vol="126" key="32" len="12" pan="0"/>
          <note pos="840" vol="126" key="24" len="12" pan="0"/>
          <note pos="852" vol="94" key="32" len="12" pan="0"/>
          <note pos="852" vol="126" key="24" len="12" pan="0"/>
          <note pos="864" vol="123" key="32" len="12" pan="0"/>
          <note pos="876" vol="91" key="32" len="12" pan="0"/>
          <note pos="876" vol="145" key="28" len="12" pan="0"/>
          <note pos="888" vol="117" key="32" len="12" pan="0"/>
          <note pos="888" vol="126" key="24" len="12" pan="0"/>
          <note pos="900" vol="85" key="32" len="12" pan="0"/>
          <note pos="912" vol="121" key="32" len="12" pan="0"/>
          <note pos="912" vol="145" key="28" len="12" pan="0"/>
          <note pos="924" vol="87" key="32" len="12" pan="0"/>
          <note pos="936" vol="123" key="32" len="12" pan="0"/>
          <note pos="936" vol="126" key="24" len="12" pan="0"/>
          <note pos="948" vol="94" key="32" len="12" pan="0"/>
          <note pos="948" vol="145" key="28" len="12" pan="0"/>
          <note pos="960" vol="126" key="32" len="12" pan="0"/>
          <note pos="960" vol="126" key="24" len="12" pan="0"/>
          <note pos="972" vol="102" key="32" len="12" pan="0"/>
          <note pos="984" vol="126" key="32" len="12" pan="0"/>
          <note pos="996" vol="94" key="32" len="12" pan="0"/>
          <note pos="996" vol="126" key="24" len="12" pan="0"/>
          <note pos="1008" vol="126" key="32" len="12" pan="0"/>
          <note pos="1008" vol="145" key="28" len="12" pan="0"/>
          <note pos="1020" vol="102" key="32" len="12" pan="0"/>
          <note pos="1032" vol="126" key="32" len="12" pan="0"/>
          <note pos="1032" vol="126" key="24" len="12" pan="0"/>
          <note pos="1044" vol="94" key="32" len="12" pan="0"/>
          <note pos="1044" vol="126" key="24" len="12" pan="0"/>
          <note pos="1056" vol="123" key="32" len="12" pan="0"/>
          <note pos="1068" vol="91" key="32" len="12" pan="0"/>
          <note pos="1068" vol="145" key="28" len="12" pan="0"/>
          <note pos="1080" vol="117" key="32" len="12" pan="0"/>
          <note pos="1080" vol="126" key="24" len="12" pan="0"/>
          <note pos="1092" vol="85" key="32" len="12" pan="0"/>
          <note pos="1104" vol="121" key="32" len="12" pan="0"/>
          <note pos="1104" vol="145" key="28" len="12" pan="0"/>
          <note pos="1116" vol="87" key="32" len="12" pan="0"/>
          <note pos="1128" vol="123" key="32" len="12" pan="0"/>
          <note pos="1128" vol="126" key="24" len="12" pan="0"/>
          <note pos="1140" vol="94" key="32" len="12" pan="0"/>
          <note pos="1140" vol="145" key="28" len="12" pan="0"/>
          <note pos="1152" vol="126" key="32" len="12" pan="0"/>
          <note pos="1152" vol="126" key="24" len="12" pan="0"/>
          <note pos="1164" vol="102" key="32" len="12" pan="0"/>
          <note pos="1176" vol="126" key="32" len="12" pan="0"/>
          <note pos="1188" vol="94" key="32" len="12" pan="0"/>
          <note pos="1188" vol="126" key="24" len="12" pan="0"/>
          <note pos="1200" vol="126" key="32" len="12" pan="0"/>
          <note pos="1200" vol="145" key="28" len="12" pan="0"/>
          <note pos="1212" vol="102" key="32" len="12" pan="0"/>
          <note pos="1224" vol="126" key="32" len="12" pan="0"/>
          <note pos="1224" vol="126" key="24" len="12" pan="0"/>
          <note pos="1236" vol="94" key="32" len="12" pan="0"/>
          <note pos="1236" vol="126" key="24" len="12" pan="0"/>
          <note pos="1248" vol="123" key="32" len="12" pan="0"/>
          <note pos="1260" vol="91" key="32" len="12" pan="0"/>
          <note pos="1260" vol="145" key="28" len="12" pan="0"/>
          <note pos="1272" vol="117" key="32" len="12" pan="0"/>
          <note pos="1272" vol="126" key="24" len="12" pan="0"/>
          <note pos="1284" vol="85" key="32" len="12" pan="0"/>
          <note pos="1296" vol="121" key="32" len="12" pan="0"/>
          <note pos="1296" vol="145" key="28" len="12" pan="0"/>
          <note pos="1308" vol="87" key="32" len="12" pan="0"/>
          <note pos="1320" vol="123" key="32" len="12" pan="0"/>
          <note pos="1320" vol="126" key="24" len="12" pan="0"/>
          <note pos="1332" vol="94" key="32" len="12" pan="0"/>
          <note pos="1332" vol="145" key="28" len="12" pan="0"/>
          <note pos="1344" vol="126" key="32" len="12" pan="0"/>
          <note pos="1344" vol="126" key="24" len="12" pan="0"/>
          <note pos="1356" vol="102" key="32" len="12" pan="0"/>
          <note pos="1368" vol="126" key="32" len="12" pan="0"/>
          <note pos="1380" vol="94" key="32" len="12" pan="0"/>
          <note pos="1380" vol="126" key="24" len="12" pan="0"/>
          <note pos="1392" vol="126" key="32" len="12" pan="0"/>
          <note pos="1392" vol="145" key="28" len="12" pan="0"/>
          <note pos="1404" vol="102" key="32" len="12" pan="0"/>
          <note pos="1416" vol="126" key="32" len="12" pan="0"/>
          <note pos="1416" vol="126" key="24" len="12" pan="0"/>
          <note pos="1428" vol="94" key="32" len="12" pan="0"/>
          <note pos="1428" vol="126" key="24" len="12" pan="0"/>
          <note pos="1440" vol="123" key="32" len="12" pan="0"/>
          <note pos="1452" vol="91" key="32" len="12" pan="0"/>
          <note pos="1452" vol="145" key="28" len="12" pan="0"/>
          <note pos="1464" vol="117" key="32" len="12" pan="0"/>
          <note pos="1464" vol="126" key="24" len="12" pan="0"/>
          <note pos="1476" vol="89" key="32" len="12" pan="0"/>
          <note pos="1488" vol="121" key="32" len="12" pan="0"/>
          <note pos="1488" vol="145" key="28" len="12" pan="0"/>
          <note pos="1500" vol="87" key="32" len="12" pan="0"/>
          <note pos="1500" vol="145" key="28" len="12" pan="0"/>
          <note pos="1512" vol="123" key="32" len="12" pan="0"/>
          <note pos="1512" vol="126" key="24" len="12" pan="0"/>
          <note pos="1524" vol="94" key="32" len="12" pan="0"/>
          <note pos="1524" vol="145" key="28" len="12" pan="0"/>
        </pattern>
      </track>
      <track name="LB302" muted="0" type="0" solo="0">
        <instrumenttrack fxch="1" vol="50" basenote="57" usemasterpitch="1" pitchrange="1" pan="-5" pitch="0">
          <instrument name="lb302">
            <lb302 vcf_res="0.75" dist="0" vcf_dec="0.1" slide_dec="0.60000002" vcf_mod="0.1" dead="0" shape="11" db24="0" slide="0" vcf_cut="1.26"/>
          </instrument>
          <eldata fwet="0" fcut="14000" fres="0.5" ftype="0">
            <elvol ctlenvamt="0" att="0" lspd_denominator="4" x100="0" lspd="0.1" dec="0.5" rel="0.1" lspd_numerator="4" hold="0.5" lpdel="0" amt="0" lshp="0" pdel="0" latt="0" sustain="0.5" userwavefile="" lamt="0" lspd_syncmode="0"/>
            <elcut ctlenvamt="0" att="0" lspd_denominator="4" x100="0" lspd="0.1" dec="0.5" rel="0.1" lspd_numerator="4" hold="0.5" lpdel="0" amt="0" lshp="0" pdel="0" latt="0" sustain="0.5" userwavefile="" lamt="0" lspd_syncmode="0"/>
            <elres ctlenvamt="0" att="0" lspd_denominator="4" x100="0" lspd="0.1" dec="0.5" rel="0.1" lspd_numerator="4" hold="0.5" lpdel="0" amt="0" lshp="0" pdel="0" latt="0" sustain="0.5" userwavefile="" lamt="0" lspd_syncmode="0"/>
          </eldata>
          <chordcreator chord-enabled="0" chord="0" chordrange="1"/>
          <arpeggiator arpskip="0" arptime="200" arpdir="0" arpmode="0" arp-enabled="0" arpmiss="0" arpcycle="0" arptime_syncmode="0" arpgate="100" arptime_numerator="4" arp="0" arprange="1" arptime_denominator="4"/>
          <midiport inputcontroller="0" fixedoutputnote="-1" outputcontroller="0" inputchannel="0" fixedinputvelocity="-1" writable="0" outputchannel="1" fixedoutputvelocity="-1" readable="0" outputprogram="1" basevelocity="63"/>
          <fxchain numofeffects="1" enabled="1">
            <effect name="bitcrush" on="1" autoquit_numerator="4" gate="0" autoquit="1" wet="1" autoquit_syncmode="0" autoquit_denominator="4">
              <bitcrushcontrols rate="44100" levels="256" depthon="1" innoise="0" outgain="-3" stereodiff="0" outclip="-16.9" rateon="1" ingain="7.2000003"/>
              <key/>
            </effect>
          </fxchain>
        </instrumenttrack>
        <pattern name="LB302" muted="0" steps="16" pos="0" type="1">
          <note pos="0" vol="100" key="47" len="24" pan="0"/>
          <note pos="24" vol="100" key="59" len="12" pan="0"/>
          <note pos="36" vol="100" key="47" len="24" pan="0"/>
          <note pos="60" vol="100" key="59" len="12" pan="0"/>
          <note pos="72" vol="100" key="47" len="24" pan="0"/>
          <note pos="96" vol="100" key="59" len="12" pan="0"/>
          <note pos="108" vol="100" key="47" len="24" pan="0"/>
          <note pos="132" vol="100" key="59" len="12" pan="0"/>
          <note pos="144" vol="100" key="45" len="24" pan="0"/>
          <note pos="168" vol="100" key="47" len="24" pan="0"/>
          <note pos="192" vol="100" key="47" len="24" pan="0"/>
          <note pos="216" vol="100" key="59" len="12" pan="0"/>
          <note pos="228" vol="100" key="47" len="24" pan="0"/>
          <note pos="252" vol="100" key="59" len="12" pan="0"/>
          <note pos="264" vol="100" key="47" len="24" pan="0"/>
          <note pos="288" vol="100" key="59" len="12" pan="0"/>
          <note pos="300" vol="100" key="47" len="24" pan="0"/>
          <note pos="324" vol="100" key="59" len="12" pan="0"/>
          <note pos="336" vol="100" key="45" len="24" pan="0"/>
          <note pos="360" vol="100" key="47" len="24" pan="0"/>
          <note pos="384" vol="100" key="47" len="24" pan="0"/>
          <note pos="408" vol="100" key="59" len="12" pan="0"/>
          <note pos="420" vol="100" key="47" len="24" pan="0"/>
          <note pos="444" vol="100" key="59" len="12" pan="0"/>
          <note pos="456" vol="100" key="47" len="24" pan="0"/>
          <note pos="480" vol="100" key="59" len="12" pan="0"/>
          <note pos="492" vol="100" key="47" len="24" pan="0"/>
          <note pos="516" vol="100" key="59" len="12" pan="0"/>
          <note pos="528" vol="100" key="45" len="24" pan="0"/>
          <note pos="552" vol="100" key="47" len="24" pan="0"/>
          <note pos="576" vol="100" key="47" len="24" pan="0"/>
          <note pos="600" vol="100" key="59" len="12" pan="0"/>
          <note pos="612" vol="100" key="47" len="24" pan="0"/>
          <note pos="636" vol="100" key="59" len="12" pan="0"/>
          <note pos="648" vol="100" key="47" len="24" pan="0"/>
          <note pos="672" vol="100" key="59" len="12" pan="0"/>
          <note pos="684" vol="100" key="47" len="24" pan="0"/>
          <note pos="708" vol="100" key="59" len="12" pan="0"/>
          <note pos="720" vol="100" key="45" len="24" pan="0"/>
          <note pos="744" vol="100" key="47" len="24" pan="0"/>
          <note pos="768" vol="100" key="47" len="24" pan="0"/>
          <note pos="792" vol="100" key="59" len="12" pan="0"/>
          <note pos="804" vol="100" key="47" len="24" pan="0"/>
          <note pos="828" vol="100" key="59" len="12" pan="0"/>
          <note pos="840" vol="100" key="47" len="24" pan="0"/>
          <note pos="864" vol="100" key="59" len="12" pan="0"/>
          <note pos="876" vol="100" key="47" len="24" pan="0"/>
          <note pos="900" vol="100" key="59" len="12" pan="0"/>
          <note pos="912" vol="100" key="45" len="24" pan="0"/>
          <note pos="936" vol="100" key="47" len="24" pan="0"/>
          <note pos="960" vol="100" key="47" len="24" pan="0"/>
          <note pos="984" vol="100" key="59" len="12" pan="0"/>
          <note pos="996" vol="100" key="47" len="24" pan="0"/>
          <note pos="1020" vol="100" key="59" len="12" pan="0"/>
          <note pos="1032" vol="100" key="47" len="24" pan="0"/>
          <note pos="1056" vol="100" key="59" len="12" pan="0"/>
          <note pos="1068" vol="100" key="47" len="24" pan="0"/>
          <note pos="1092" vol="100" key="59" len="12" pan="0"/>
          <note pos="1104" vol="100" key="45" len="24" pan="0"/>
          <note pos="1128" vol="100" key="47" len="24" pan="0"/>
          <note pos="1152" vol="100" key="47" len="24" pan="0"/>
          <note pos="1176" vol="100" key="59" len="12" pan="0"/>
          <note pos="1188" vol="100" key="47" len="24" pan="0"/>
          <note pos="1212" vol="100" key="59" len="12" pan="0"/>
          <note pos="1224" vol="100" key="47" len="24" pan="0"/>
          <note pos="1248" vol="100" key="59" len="12" pan="0"/>
          <note pos="1260" vol="100" key="47" len="24" pan="0"/>
          <note pos="1284" vol="100" key="59" len="12" pan="0"/>
          <note pos="1296" vol="100" key="45" len="24" pan="0"/>
          <note pos="1320" vol="100" key="47" len="24" pan="0"/>
          <note pos="1344" vol="100" key="47" len="24" pan="0"/>
          <note pos="1368" vol="100" key="59" len="12" pan="0"/>
          <note pos="1380" vol="100" key="47" len="24" pan="0"/>
          <note pos="1404" vol="100" key="59" len="12" pan="0"/>
          <note pos="1416" vol="100" key="47" len="24" pan="0"/>
          <note pos="1440" vol="100" key="59" len="12" pan="0"/>
          <note pos="1452" vol="100" key="47" len="24" pan="0"/>
          <note pos="1476" vol="100" key="59" len="12" pan="0"/>
          <note pos="1488" vol="100" key="45" len="24" pan="0"/>
          <note pos="1512" vol="100" key="47" len="24" pan="0"/>
        </pattern>
        <pattern name="" muted="0" steps="16" pos="5376" type="1">
          <note pos="0" vol="100" key="47" len="24" pan="0"/>
          <note pos="24" vol="100" key="47" len="12" pan="0"/>
          <note pos="36" vol="100" key="47" len="24" pan="0"/>
          <note pos="60" vol="100" key="47" len="12" pan="0"/>
          <note pos="72" vol="100" key="47" len="24" pan="0"/>
          <note pos="96" vol="100" key="47" len="12" pan="0"/>
          <note pos="108" vol="100" key="47" len="24" pan="0"/>
          <note pos="132" vol="100" key="47" len="12" pan="0"/>
          <note pos="144" vol="100" key="45" len="24" pan="0"/>
          <note pos="168" vol="100" key="47" len="24" pan="0"/>
          <note pos="192" vol="100" key="47" len="24" pan="0"/>
          <note pos="216" vol="100" key="47" len="12" pan="0"/>
          <note pos="228" vol="100" key="47" len="24" pan="0"/>
          <note pos="252" vol="100" key="47" len="12" pan="0"/>
          <note pos="264" vol="100" key="47" len="24" pan="0"/>
          <note pos="288" vol="100" key="47" len="12" pan="0"/>
          <note pos="300" vol="100" key="47" len="24" pan="0"/>
          <note pos="324" vol="100" key="47" len="12" pan="0"/>
          <note pos="336" vol="100" key="45" len="24" pan="0"/>
          <note pos="360" vol="100" key="47" len="24" pan="0"/>
          <note pos="384" vol="100" key="47" len="24" pan="0"/>
          <note pos="408" vol="100" key="47" len="12" pan="0"/>
          <note pos="420" vol="100" key="47" len="24" pan="0"/>
          <note pos="444" vol="100" key="47" len="12" pan="0"/>
          <note pos="456" vol="100" key="47" len="24" pan="0"/>
          <note pos="480" vol="100" key="47" len="12" pan="0"/>
          <note pos="492" vol="100" key="47" len="24" pan="0"/>
          <note pos="516" vol="100" key="47" len="12" pan="0"/>
          <note pos="528" vol="100" key="45" len="24" pan="0"/>
          <note pos="552" vol="100" key="47" len="24" pan="0"/>
          <note pos="576" vol="100" key="47" len="24" pan="0"/>
          <note pos="600" vol="100" key="47" len="12" pan="0"/>
          <note pos="612" vol="100" key="47" len="24" pan="0"/>
          <note pos="636" vol="100" key="47" len="12" pan="0"/>
          <note pos="648" vol="100" key="47" len="24" pan="0"/>
          <note pos="672" vol="100" key="47" len="12" pan="0"/>
          <note pos="684" vol="100" key="47" len="24" pan="0"/>
          <note pos="708" vol="100" key="47" len="12" pan="0"/>
          <note pos="720" vol="100" key="45" len="24" pan="0"/>
          <note pos="744" vol="100" key="47" len="24" pan="0"/>
        </pattern>
        <pattern name="" muted="0" steps="16" pos="6144" type="1">
          <note pos="0" vol="100" key="47" len="24" pan="0"/>
          <note pos="24" vol="100" key="47" len="12" pan="0"/>
          <note pos="36" vol="100" key="47" len="24" pan="0"/>
          <note pos="60" vol="100" key="47" len="12" pan="0"/>
          <note pos="72" vol="100" key="47" len="24" pan="0"/>
          <note pos="96" vol="100" key="47" len="12" pan="0"/>
          <note pos="108" vol="100" key="47" len="24" pan="0"/>
          <note pos="132" vol="100" key="47" len="12" pan="0"/>
          <note pos="144" vol="100" key="45" len="24" pan="0"/>
          <note pos="168" vol="100" key="47" len="24" pan="0"/>
          <note pos="192" vol="100" key="47" len="24" pan="0"/>
          <note pos="216" vol="100" key="47" len="12" pan="0"/>
          <note pos="228" vol="100" key="47" len="24" pan="0"/>
          <note pos="252" vol="100" key="47" len="12" pan="0"/>
          <note pos="264" vol="100" key="47" len="24" pan="0"/>
          <note pos="288" vol="100" key="47" len="12" pan="0"/>
          <note pos="300" vol="100" key="47" len="24" pan="0"/>
          <note pos="324" vol="100" key="47" len="12" pan="0"/>
          <note pos="336" vol="100" key="45" len="24" pan="0"/>
          <note pos="360" vol="100" key="47" len="24" pan="0"/>
          <note pos="384" vol="100" key="47" len="24" pan="0"/>
          <note pos="408" vol="100" key="47" len="12" pan="0"/>
          <note pos="420" vol="100" key="47" len="24" pan="0"/>
          <note pos="444" vol="100" key="47" len="12" pan="0"/>
          <note pos="456" vol="100" key="47" len="24" pan="0"/>
          <note pos="480" vol="100" key="47" len="12" pan="0"/>
          <note pos="492" vol="100" key="47" len="24" pan="0"/>
          <note pos="516" vol="100" key="47" len="12" pan="0"/>
          <note pos="528" vol="100" key="45" len="24" pan="0"/>
          <note pos="552" vol="100" key="47" len="24" pan="0"/>
          <note pos="576" vol="100" key="47" len="24" pan="0"/>
          <note pos="600" vol="100" key="47" len="12" pan="0"/>
          <note pos="612" vol="100" key="47" len="24" pan="0"/>
          <note pos="636" vol="100" key="47" len="12" pan="0"/>
          <note pos="648" vol="100" key="47" len="24" pan="0"/>
          <note pos="672" vol="100" key="47" len="12" pan="0"/>
          <note pos="684" vol="100" key="47" len="24" pan="0"/>
          <note pos="708" vol="100" key="47" len="12" pan="0"/>
          <note pos="720" vol="100" key="45" len="24" pan="0"/>
          <note pos="744" vol="100" key="47" len="24" pan="0"/>
          <note pos="768" vol="100" key="47" len="24" pan="0"/>
          <note pos="792" vol="100" key="47" len="12" pan="0"/>
          <note pos="804" vol="100" key="47" len="24" pan="0"/>
          <note pos="828" vol="100" key="47" len="12" pan="0"/>
          <note pos="840" vol="100" key="47" len="24" pan="0"/>
          <note pos="864" vol="100" key="47" len="12" pan="0"/>
          <note pos="876" vol="100" key="47" len="24" pan="0"/>
          <note pos="900" vol="100" key="47" len="12" pan="0"/>
          <note pos="912" vol="100" key="45" len="24" pan="0"/>
          <note pos="936" vol="100" key="47" len="24" pan="0"/>
          <note pos="960" vol="100" key="47" len="24" pan="0"/>
          <note pos="984" vol="100" key="47" len="12" pan="0"/>
          <note pos="996" vol="100" key="47" len="24" pan="0"/>
          <note pos="1020" vol="100" key="47" len="12" pan="0"/>
          <note pos="1032" vol="100" key="47" len="24" pan="0"/>
          <note pos="1056" vol="100" key="47" len="12" pan="0"/>
          <note pos="1068" vol="100" key="47" len="24" pan="0"/>
          <note pos="1092" vol="100" key="47" len="12" pan="0"/>
          <note pos="1104" vol="100" key="45" len="24" pan="0"/>
          <note pos="1128" vol="100" key="47" len="24" pan="0"/>
          <note pos="1152" vol="100" key="47" len="24" pan="0"/>
          <note pos="1176" vol="100" key="47" len="12" pan="0"/>
          <note pos="1188" vol="100" key="47" len="24" pan="0"/>
          <note pos="1212" vol="100" key="47" len="12" pan="0"/>
          <note pos="1224" vol="100" key="47" len="24" pan="0"/>
          <note pos="1248" vol="100" key="47" len="12" pan="0"/>
          <note pos="1260" vol="100" key="47" len="24" pan="0"/>
          <note pos="1284" vol="100" key="47" len="12" pan="0"/>
          <note pos="1296" vol="100" key="45" len="24" pan="0"/>
          <note pos="1320" vol="100" key="47" len="24" pan="0"/>
          <note pos="1344" vol="100" key="47" len="24" pan="0"/>
          <note pos="1368" vol="100" key="47" len="12" pan="0"/>
          <note pos="1380" vol="100" key="47" len="24" pan="0"/>
          <note pos="1404" vol="100" key="47" len="12" pan="0"/>
          <note pos="1416" vol="100" key="47" len="24" pan="0"/>
          <note pos="1440" vol="100" key="47" len="12" pan="0"/>
          <note pos="1452" vol="100" key="47" len="24" pan="0"/>
          <note pos="1476" vol="100" key="47" len="12" pan="0"/>
          <note pos="1488" vol="100" key="45" len="24" pan="0"/>
          <note pos="1512" vol="100" key="47" len="24" pan="0"/>
        </pattern>
        <pattern name="" muted="0" steps="16" pos="1536" type="1">
          <note pos="0" vol="100" key="47" len="24" pan="0"/>
          <note pos="24" vol="100" key="59" len="12" pan="0"/>
          <note pos="36" vol="100" key="47" len="24" pan="0"/>
          <note pos="60" vol="100" key="59" len="12" pan="0"/>
          <note pos="72" vol="100" key="47" len="24" pan="0"/>
          <note pos="96" vol="100" key="59" len="12" pan="0"/>
          <note pos="108" vol="100" key="47" len="24" pan="0"/>
          <note pos="132" vol="100" key="59" len="12" pan="0"/>
          <note pos="144" vol="100" key="45" len="24" pan="0"/>
          <note pos="168" vol="100" key="47" len="24" pan="0"/>
          <note pos="192" vol="100" key="47" len="24" pan="0"/>
          <note pos="216" vol="100" key="59" len="12" pan="0"/>
          <note pos="228" vol="100" key="47" len="24" pan="0"/>
          <note pos="252" vol="100" key="59" len="12" pan="0"/>
          <note pos="264" vol="100" key="47" len="24" pan="0"/>
          <note pos="288" vol="100" key="59" len="12" pan="0"/>
          <note pos="300" vol="100" key="47" len="24" pan="0"/>
          <note pos="324" vol="100" key="59" len="12" pan="0"/>
          <note pos="336" vol="100" key="45" len="24" pan="0"/>
          <note pos="360" vol="100" key="47" len="24" pan="0"/>
          <note pos="384" vol="100" key="47" len="24" pan="0"/>
          <note pos="408" vol="100" key="59" len="12" pan="0"/>
          <note pos="420" vol="100" key="47" len="24" pan="0"/>
          <note pos="444" vol="100" key="59" len="12" pan="0"/>
          <note pos="456" vol="100" key="47" len="24" pan="0"/>
          <note pos="480" vol="100" key="59" len="12" pan="0"/>
          <note pos="492" vol="100" key="47" len="24" pan="0"/>
          <note pos="516" vol="100" key="59" len="12" pan="0"/>
          <note pos="528" vol="100" key="45" len="24" pan="0"/>
          <note pos="552" vol="100" key="47" len="24" pan="0"/>
          <note pos="576" vol="100" key="47" len="24" pan="0"/>
          <note pos="600" vol="100" key="59" len="12" pan="0"/>
          <note pos="612" vol="100" key="47" len="24" pan="0"/>
          <note pos="636" vol="100" key="59" len="12" pan="0"/>
          <note pos="648" vol="100" key="47" len="24" pan="0"/>
          <note pos="672" vol="100" key="59" len="12" pan="0"/>
          <note pos="684" vol="100" key="47" len="24" pan="0"/>
          <note pos="708" vol="100" key="59" len="12" pan="0"/>
          <note pos="720" vol="100" key="45" len="24" pan="0"/>
          <note pos="744" vol="100" key="47" len="24" pan="0"/>
          <note pos="768" vol="100" key="47" len="24" pan="0"/>
          <note pos="792" vol="100" key="59" len="12" pan="0"/>
          <note pos="804" vol="100" key="47" len="24" pan="0"/>
          <note pos="828" vol="100" key="59" len="12" pan="0"/>
          <note pos="840" vol="100" key="47" len="24" pan="0"/>
          <note pos="864" vol="100" key="59" len="12" pan="0"/>
          <note pos="876" vol="100" key="47" len="24" pan="0"/>
          <note pos="900" vol="100" key="59" len="12" pan="0"/>
          <note pos="912" vol="100" key="45" len="24" pan="0"/>
          <note pos="936" vol="100" key="47" len="24" pan="0"/>
          <note pos="960" vol="100" key="47" len="24" pan="0"/>
          <note pos="984" vol="100" key="59" len="12" pan="0"/>
          <note pos="996" vol="100" key="47" len="24" pan="0"/>
          <note pos="1020" vol="100" key="59" len="12" pan="0"/>
          <note pos="1032" vol="100" key="47" len="24" pan="0"/>
          <note pos="1056" vol="100" key="59" len="12" pan="0"/>
          <note pos="1068" vol="100" key="47" len="24" pan="0"/>
          <note pos="1092" vol="100" key="59" len="12" pan="0"/>
          <note pos="1104" vol="100" key="45" len="24" pan="0"/>
          <note pos="1128" vol="100" key="47" len="24" pan="0"/>
          <note pos="1152" vol="100" key="47" len="24" pan="0"/>
          <note pos="1176" vol="100" key="59" len="12" pan="0"/>
          <note pos="1188" vol="100" key="47" len="24" pan="0"/>
          <note pos="1212" vol="100" key="59" len="12" pan="0"/>
          <note pos="1224" vol="100" key="47" len="24" pan="0"/>
          <note pos="1248" vol="100" key="59" len="12" pan="0"/>
          <note pos="1260" vol="100" key="47" len="24" pan="0"/>
          <note pos="1284" vol="100" key="59" len="12" pan="0"/>
          <note pos="1296" vol="100" key="45" len="24" pan="0"/>
          <note pos="1320" vol="100" key="47" len="24" pan="0"/>
          <note pos="1344" vol="100" key="47" len="24" pan="0"/>
          <note pos="1368" vol="100" key="59" len="12" pan="0"/>
          <note pos="1380" vol="100" key="47" len="24" pan="0"/>
          <note pos="1404" vol="100" key="59" len="12" pan="0"/>
          <note pos="1416" vol="100" key="47" len="24" pan="0"/>
          <note pos="1440" vol="100" key="59" len="12" pan="0"/>
          <note pos="1452" vol="100" key="47" len="24" pan="0"/>
          <note pos="1476" vol="100" key="59" len="12" pan="0"/>
          <note pos="1488" vol="100" key="45" len="24" pan="0"/>
          <note pos="1512" vol="100" key="47" len="24" pan="0"/>
        </pattern>
        <pattern name="" muted="0" steps="16" pos="7680" type="1">
          <note pos="0" vol="100" key="47" len="24" pan="0"/>
          <note pos="24" vol="100" key="59" len="12" pan="0"/>
          <note pos="36" vol="100" key="47" len="24" pan="0"/>
          <note pos="60" vol="100" key="59" len="12" pan="0"/>
          <note pos="72" vol="100" key="47" len="24" pan="0"/>
          <note pos="96" vol="100" key="59" len="12" pan="0"/>
          <note pos="108" vol="100" key="47" len="24" pan="0"/>
          <note pos="132" vol="100" key="59" len="12" pan="0"/>
          <note pos="144" vol="100" key="45" len="24" pan="0"/>
          <note pos="168" vol="100" key="47" len="24" pan="0"/>
          <note pos="192" vol="100" key="47" len="24" pan="0"/>
          <note pos="216" vol="100" key="59" len="12" pan="0"/>
          <note pos="228" vol="100" key="47" len="24" pan="0"/>
          <note pos="252" vol="100" key="59" len="12" pan="0"/>
          <note pos="264" vol="100" key="47" len="24" pan="0"/>
          <note pos="288" vol="100" key="59" len="12" pan="0"/>
          <note pos="300" vol="100" key="47" len="24" pan="0"/>
          <note pos="324" vol="100" key="59" len="12" pan="0"/>
          <note pos="336" vol="100" key="45" len="24" pan="0"/>
          <note pos="360" vol="100" key="47" len="24" pan="0"/>
          <note pos="384" vol="100" key="47" len="24" pan="0"/>
          <note pos="408" vol="100" key="59" len="12" pan="0"/>
          <note pos="420" vol="100" key="47" len="24" pan="0"/>
          <note pos="444" vol="100" key="59" len="12" pan="0"/>
          <note pos="456" vol="100" key="47" len="24" pan="0"/>
          <note pos="480" vol="100" key="59" len="12" pan="0"/>
          <note pos="492" vol="100" key="47" len="24" pan="0"/>
          <note pos="516" vol="100" key="59" len="12" pan="0"/>
          <note pos="528" vol="100" key="45" len="24" pan="0"/>
          <note pos="552" vol="100" key="47" len="24" pan="0"/>
          <note pos="576" vol="100" key="47" len="24" pan="0"/>
          <note pos="600" vol="100" key="59" len="12" pan="0"/>
          <note pos="612" vol="100" key="47" len="24" pan="0"/>
          <note pos="636" vol="100" key="59" len="12" pan="0"/>
          <note pos="648" vol="100" key="47" len="24" pan="0"/>
          <note pos="672" vol="100" key="59" len="12" pan="0"/>
          <note pos="684" vol="100" key="47" len="24" pan="0"/>
          <note pos="708" vol="100" key="59" len="12" pan="0"/>
          <note pos="720" vol="100" key="45" len="24" pan="0"/>
          <note pos="744" vol="100" key="47" len="24" pan="0"/>
          <note pos="768" vol="100" key="47" len="24" pan="0"/>
          <note pos="792" vol="100" key="59" len="12" pan="0"/>
          <note pos="804" vol="100" key="47" len="24" pan="0"/>
          <note pos="828" vol="100" key="59" len="12" pan="0"/>
          <note pos="840" vol="100" key="47" len="24" pan="0"/>
          <note pos="864" vol="100" key="59" len="12" pan="0"/>
          <note pos="876" vol="100" key="47" len="24" pan="0"/>
          <note pos="900" vol="100" key="59" len="12" pan="0"/>
          <note pos="912" vol="100" key="45" len="24" pan="0"/>
          <note pos="936" vol="100" key="47" len="24" pan="0"/>
          <note pos="960" vol="100" key="47" len="24" pan="0"/>
          <note pos="984" vol="100" key="59" len="12" pan="0"/>
          <note pos="996" vol="100" key="47" len="24" pan="0"/>
          <note pos="1020" vol="100" key="59" len="12" pan="0"/>
          <note pos="1032" vol="100" key="47" len="24" pan="0"/>
          <note pos="1056" vol="100" key="59" len="12" pan="0"/>
          <note pos="1068" vol="100" key="47" len="24" pan="0"/>
          <note pos="1092" vol="100" key="59" len="12" pan="0"/>
          <note pos="1104" vol="100" key="45" len="24" pan="0"/>
          <note pos="1128" vol="100" key="47" len="24" pan="0"/>
          <note pos="1152" vol="100" key="47" len="24" pan="0"/>
          <note pos="1176" vol="100" key="59" len="12" pan="0"/>
          <note pos="1188" vol="100" key="47" len="24" pan="0"/>
          <note pos="1212" vol="100" key="59" len="12" pan="0"/>
          <note pos="1224" vol="100" key="47" len="24" pan="0"/>
          <note pos="1248" vol="100" key="59" len="12" pan="0"/>
          <note pos="1260" vol="100" key="47" len="24" pan="0"/>
          <note pos="1284" vol="100" key="59" len="12" pan="0"/>
          <note pos="1296" vol="100" key="45" len="24" pan="0"/>
          <note pos="1320" vol="100" key="47" len="24" pan="0"/>
          <note pos="1344" vol="100" key="47" len="24" pan="0"/>
          <note pos="1368" vol="100" key="59" len="12" pan="0"/>
          <note pos="1380" vol="100" key="47" len="24" pan="0"/>
          <note pos="1404" vol="100" key="59" len="12" pan="0"/>
          <note pos="1416" vol="100" key="47" len="24" pan="0"/>
          <note pos="1440" vol="100" key="59" len="12" pan="0"/>
          <note pos="1452" vol="100" key="47" len="24" pan="0"/>
          <note pos="1476" vol="100" key="59" len="12" pan="0"/>
          <note pos="1488" vol="100" key="45" len="24" pan="0"/>
          <note pos="1512" vol="100" key="47" len="24" pan="0"/>
        </pattern>
        <pattern name="" muted="0" steps="16" pos="9216" type="1">
          <note pos="0" vol="100" key="47" len="24" pan="0"/>
          <note pos="24" vol="100" key="59" len="12" pan="0"/>
          <note pos="36" vol="100" key="47" len="24" pan="0"/>
          <note pos="60" vol="100" key="59" len="12" pan="0"/>
          <note pos="72" vol="100" key="47" len="24" pan="0"/>
          <note pos="96" vol="100" key="59" len="12" pan="0"/>
          <note pos="108" vol="100" key="47" len="24" pan="0"/>
          <note pos="132" vol="100" key="59" len="12" pan="0"/>
          <note pos="144" vol="100" key="45" len="24" pan="0"/>
          <note pos="168" vol="100" key="47" len="24" pan="0"/>
          <note pos="192" vol="100" key="47" len="24" pan="0"/>
          <note pos="216" vol="100" key="59" len="12" pan="0"/>
          <note pos="228" vol="100" key="47" len="24" pan="0"/>
          <note pos="252" vol="100" key="59" len="12" pan="0"/>
          <note pos="264" vol="100" key="47" len="24" pan="0"/>
          <note pos="288" vol="100" key="59" len="12" pan="0"/>
          <note pos="300" vol="100" key="47" len="24" pan="0"/>
          <note pos="324" vol="100" key="59" len="12" pan="0"/>
          <note pos="336" vol="100" key="45" len="24" pan="0"/>
          <note pos="360" vol="100" key="47" len="24" pan="0"/>
          <note pos="384" vol="100" key="47" len="24" pan="0"/>
          <note pos="408" vol="100" key="59" len="12" pan="0"/>
          <note pos="420" vol="100" key="47" len="24" pan="0"/>
          <note pos="444" vol="100" key="59" len="12" pan="0"/>
          <note pos="456" vol="100" key="47" len="24" pan="0"/>
          <note pos="480" vol="100" key="59" len="12" pan="0"/>
          <note pos="492" vol="100" key="47" len="24" pan="0"/>
          <note pos="516" vol="100" key="59" len="12" pan="0"/>
          <note pos="528" vol="100" key="45" len="24" pan="0"/>
          <note pos="552" vol="100" key="47" len="24" pan="0"/>
          <note pos="576" vol="100" key="47" len="24" pan="0"/>
          <note pos="600" vol="100" key="59" len="12" pan="0"/>
          <note pos="612" vol="100" key="47" len="24" pan="0"/>
          <note pos="636" vol="100" key="59" len="12" pan="0"/>
          <note pos="648" vol="100" key="47" len="24" pan="0"/>
          <note pos="672" vol="100" key="59" len="12" pan="0"/>
          <note pos="684" vol="100" key="47" len="24" pan="0"/>
          <note pos="708" vol="100" key="59" len="12" pan="0"/>
          <note pos="720" vol="100" key="45" len="24" pan="0"/>
          <note pos="744" vol="100" key="47" len="24" pan="0"/>
          <note pos="768" vol="100" key="47" len="24" pan="0"/>
          <note pos="792" vol="100" key="59" len="12" pan="0"/>
          <note pos="804" vol="100" key="47" len="24" pan="0"/>
          <note pos="828" vol="100" key="59" len="12" pan="0"/>
          <note pos="840" vol="100" key="47" len="24" pan="0"/>
          <note pos="864" vol="100" key="59" len="12" pan="0"/>
          <note pos="876" vol="100" key="47" len="24" pan="0"/>
          <note pos="900" vol="100" key="59" len="12" pan="0"/>
          <note pos="912" vol="100" key="45" len="24" pan="0"/>
          <note pos="936" vol="100" key="47" len="24" pan="0"/>
          <note pos="960" vol="100" key="47" len="24" pan="0"/>
          <note pos="984" vol="100" key="59" len="12" pan="0"/>
          <note pos="996" vol="100" key="47" len="24" pan="0"/>
          <note pos="1020" vol="100" key="59" len="12" pan="0"/>
          <note pos="1032" vol="100" key="47" len="24" pan="0"/>
          <note pos="1056" vol="100" key="59" len="12" pan="0"/>
          <note pos="1068" vol="100" key="47" len="24" pan="0"/>
          <note pos="1092" vol="100" key="59" len="12" pan="0"/>
          <note pos="1104" vol="100" key="45" len="24" pan="0"/>
          <note pos="1128" vol="100" key="47" len="24" pan="0"/>
          <note pos="1152" vol="100" key="47" len="24" pan="0"/>
          <note pos="1176" vol="100" key="59" len="12" pan="0"/>
          <note pos="1188" vol="100" key="47" len="24" pan="0"/>
          <note pos="1212" vol="100" key="59" len="12" pan="0"/>
          <note pos="1224" vol="100" key="47" len="24" pan="0"/>
          <note pos="1248" vol="100" key="59" len="12" pan="0"/>
          <note pos="1260" vol="100" key="47" len="24" pan="0"/>
          <note pos="1284" vol="100" key="59" len="12" pan="0"/>
          <note pos="1296" vol="100" key="45" len="24" pan="0"/>
          <note pos="1320" vol="100" key="47" len="24" pan="0"/>
          <note pos="1344" vol="100" key="47" len="24" pan="0"/>
          <note pos="1368" vol="100" key="59" len="12" pan="0"/>
          <note pos="1380" vol="100" key="47" len="24" pan="0"/>
          <note pos="1404" vol="100" key="59" len="12" pan="0"/>
          <note pos="1416" vol="100" key="47" len="24" pan="0"/>
          <note pos="1440" vol="100" key="59" len="12" pan="0"/>
          <note pos="1452" vol="100" key="47" len="24" pan="0"/>
          <note pos="1476" vol="100" key="59" len="12" pan="0"/>
          <note pos="1488" vol="100" key="45" len="24" pan="0"/>
          <note pos="1512" vol="100" key="47" len="24" pan="0"/>
        </pattern>
        <pattern name="" muted="0" steps="16" pos="3072" type="1">
          <note pos="0" vol="100" key="47" len="24" pan="0"/>
          <note pos="24" vol="100" key="59" len="12" pan="0"/>
          <note pos="36" vol="100" key="47" len="24" pan="0"/>
          <note pos="60" vol="100" key="59" len="12" pan="0"/>
          <note pos="72" vol="100" key="47" len="24" pan="0"/>
          <note pos="96" vol="100" key="59" len="12" pan="0"/>
          <note pos="108" vol="100" key="47" len="24" pan="0"/>
          <note pos="132" vol="100" key="59" len="12" pan="0"/>
          <note pos="144" vol="100" key="45" len="24" pan="0"/>
          <note pos="168" vol="100" key="47" len="24" pan="0"/>
          <note pos="192" vol="100" key="47" len="24" pan="0"/>
          <note pos="216" vol="100" key="59" len="12" pan="0"/>
          <note pos="228" vol="100" key="47" len="24" pan="0"/>
          <note pos="252" vol="100" key="59" len="12" pan="0"/>
          <note pos="264" vol="100" key="47" len="24" pan="0"/>
          <note pos="288" vol="100" key="59" len="12" pan="0"/>
          <note pos="300" vol="100" key="47" len="24" pan="0"/>
          <note pos="324" vol="100" key="59" len="12" pan="0"/>
          <note pos="336" vol="100" key="45" len="24" pan="0"/>
          <note pos="360" vol="100" key="47" len="24" pan="0"/>
          <note pos="384" vol="100" key="47" len="24" pan="0"/>
          <note pos="408" vol="100" key="59" len="12" pan="0"/>
          <note pos="420" vol="100" key="47" len="24" pan="0"/>
          <note pos="444" vol="100" key="59" len="12" pan="0"/>
          <note pos="456" vol="100" key="47" len="24" pan="0"/>
          <note pos="480" vol="100" key="59" len="12" pan="0"/>
          <note pos="492" vol="100" key="47" len="24" pan="0"/>
          <note pos="516" vol="100" key="59" len="12" pan="0"/>
          <note pos="528" vol="100" key="45" len="24" pan="0"/>
          <note pos="552" vol="100" key="47" len="24" pan="0"/>
          <note pos="576" vol="100" key="47" len="24" pan="0"/>
          <note pos="600" vol="100" key="59" len="12" pan="0"/>
          <note pos="612" vol="100" key="47" len="24" pan="0"/>
          <note pos="636" vol="100" key="59" len="12" pan="0"/>
          <note pos="648" vol="100" key="47" len="24" pan="0"/>
          <note pos="672" vol="100" key="59" len="12" pan="0"/>
          <note pos="684" vol="100" key="47" len="24" pan="0"/>
          <note pos="708" vol="100" key="59" len="12" pan="0"/>
          <note pos="720" vol="100" key="45" len="24" pan="0"/>
          <note pos="744" vol="100" key="47" len="24" pan="0"/>
          <note pos="768" vol="100" key="47" len="24" pan="0"/>
          <note pos="792" vol="100" key="59" len="12" pan="0"/>
          <note pos="804" vol="100" key="47" len="24" pan="0"/>
          <note pos="828" vol="100" key="59" len="12" pan="0"/>
          <note pos="840" vol="100" key="47" len="24" pan="0"/>
          <note pos="864" vol="100" key="59" len="12" pan="0"/>
          <note pos="876" vol="100" key="47" len="24" pan="0"/>
          <note pos="900" vol="100" key="59" len="12" pan="0"/>
          <note pos="912" vol="100" key="45" len="24" pan="0"/>
          <note pos="936" vol="100" key="47" len="24" pan="0"/>
          <note pos="960" vol="100" key="47" len="24" pan="0"/>
          <note pos="984" vol="100" key="59" len="12" pan="0"/>
          <note pos="996" vol="100" key="47" len="24" pan="0"/>
          <note pos="1020" vol="100" key="59" len="12" pan="0"/>
          <note pos="1032" vol="100" key="47" len="24" pan="0"/>
          <note pos="1056" vol="100" key="59" len="12" pan="0"/>
          <note pos="1068" vol="100" key="47" len="24" pan="0"/>
          <note pos="1092" vol="100" key="59" len="12" pan="0"/>
          <note pos="1104" vol="100" key="45" len="24" pan="0"/>
          <note pos="1128" vol="100" key="47" len="24" pan="0"/>
          <note pos="1152" vol="100" key="47" len="24" pan="0"/>
          <note pos="1176" vol="100" key="59" len="12" pan="0"/>
          <note pos="1188" vol="100" key="47" len="24" pan="0"/>
          <note pos="1212" vol="100" key="59" len="12" pan="0"/>
          <note pos="1224" vol="100" key="47" len="24" pan="0"/>
          <note pos="1248" vol="100" key="59" len="12" pan="0"/>
          <note pos="1260" vol="100" key="47" len="24" pan="0"/>
          <note pos="1284" vol="100" key="59" len="12" pan="0"/>
          <note pos="1296" vol="100" key="45" len="24" pan="0"/>
          <note pos="1320" vol="100" key="47" len="24" pan="0"/>
          <note pos="1344" vol="100" key="47" len="24" pan="0"/>
          <note pos="1368" vol="100" key="59" len="12" pan="0"/>
          <note pos="1380" vol="100" key="47" len="24" pan="0"/>
          <note pos="1404" vol="100" key="59" len="12" pan="0"/>
          <note pos="1416" vol="100" key="47" len="24" pan="0"/>
          <note pos="1440" vol="100" key="59" len="12" pan="0"/>
          <note pos="1452" vol="100" key="47" len="24" pan="0"/>
          <note pos="1476" vol="100" key="59" len="12" pan="0"/>
          <note pos="1488" vol="100" key="45" len="24" pan="0"/>
          <note pos="1512" vol="100" key="47" len="24" pan="0"/>
        </pattern>
      </track>
      <track name="Dirty Reece" muted="0" type="0" solo="0">
        <instrumenttrack fxch="1" basenote="57" usemasterpitch="1" pitchrange="1" pan="5" pitch="0">
          <vol id="4289828" value="70" scale_type="linear"/>
          <instrument name="tripleoscillator">
            <tripleoscillator wavetype0="2" stphdetun0="0" coarse2="-12" pan2="0" userwavefile1="" modalgo3="2" vol0="33" coarse1="-24" pan1="0" phoffset0="0" pan0="0" userwavefile2="" wavetype1="2" finer1="-15" modalgo1="2" phoffset2="0" finer2="20" userwavefile0="" phoffset1="0" finer0="14" vol1="33" stphdetun1="0" modalgo2="2" finel1="-14" coarse0="-24" finel2="20" wavetype2="2" vol2="33" stphdetun2="0" finel0="15"/>
          </instrument>
          <eldata fwet="1" fcut="13720" fres="2" ftype="0">
            <elvol ctlenvamt="0" att="0" lspd_denominator="4" x100="0" lspd="0.1" dec="0.5" rel="0.148" lspd_numerator="4" hold="0.5" lpdel="0" amt="1" lshp="0" pdel="0" latt="0" sustain="0.5" userwavefile="" lamt="0" lspd_syncmode="0"/>
            <elcut ctlenvamt="0" att="0" lspd_denominator="4" x100="0" lspd="0.1" dec="0.5" rel="0.1" lspd_numerator="4" hold="0.5" lpdel="0" amt="0" lshp="0" pdel="0" latt="0" sustain="0.5" userwavefile="" lamt="0" lspd_syncmode="0"/>
            <elres ctlenvamt="0" att="0" lspd_denominator="4" x100="0" lspd="0.1" dec="0.5" rel="0.1" lspd_numerator="4" hold="0.5" lpdel="0" amt="1" lshp="0" pdel="0" latt="0" sustain="0.5" userwavefile="" lamt="0" lspd_syncmode="0"/>
          </eldata>
          <chordcreator chord-enabled="0" chord="0" chordrange="1"/>
          <arpeggiator arpskip="0" arptime="100" arpdir="0" arpmode="0" arp-enabled="0" arpmiss="0" arpcycle="0" arptime_syncmode="0" arpgate="100" arptime_numerator="4" arp="0" arprange="1" arptime_denominator="4"/>
          <midiport inputcontroller="0" fixedoutputnote="-1" outputcontroller="0" inputchannel="0" fixedinputvelocity="-1" writable="0" outputchannel="1" fixedoutputvelocity="-1" readable="0" outputprogram="1" basevelocity="127"/>
          <fxchain numofeffects="7" enabled="1">
            <effect name="ladspaeffect" on="1" autoquit_numerator="4" gate="0" autoquit="8000" wet="1" autoquit_syncmode="0" autoquit_denominator="4">
              <ladspacontrols ports="12">
                <port04 data="3.168"/>
                <port05 data="9.9989996"/>
                <port06 data="0.69964999"/>
                <port07 data="180"/>
                <port08 data="4"/>
                <port09 data="212.39999"/>
                <port010 data="2"/>
                <port011 data="1"/>
                <port012 data="99.949997"/>
                <port013 data="2998.5"/>
                <port014 data="0.125"/>
                <port015 data="0.38"/>
              </ladspacontrols>
              <key>
                <attribute name="file" value="calf"/>
                <attribute name="plugin" value="MultiChorus"/>
              </key>
            </effect>
            <effect name="ladspaeffect" on="0" autoquit_numerator="4" gate="0" autoquit="8000" wet="1" autoquit_syncmode="0" autoquit_denominator="4">
              <ladspacontrols ports="7">
                <port00 data="2.8"/>
                <port01 data="90"/>
                <port02 data="100"/>
                <port03 data="0"/>
                <port04 data="20"/>
                <port05 data="0"/>
                <port06 data="0"/>
              </ladspacontrols>
              <key>
                <attribute name="file" value="tap_chorusflanger"/>
                <attribute name="plugin" value="tap_chorusflanger"/>
              </key>
            </effect>
            <effect name="ladspaeffect" on="1" autoquit_numerator="4" gate="0" autoquit="8000" wet="1" autoquit_syncmode="0" autoquit_denominator="4">
              <ladspacontrols ports="6" link="1">
                <port00 link="1" data="-1.5"/>
                <port01 link="1" data="1"/>
                <port02 link="1" data="0"/>
                <port10 data="-1.5"/>
                <port11 data="1"/>
                <port12 data="0"/>
              </ladspacontrols>
              <key>
                <attribute name="file" value="hard_limiter_1413"/>
                <attribute name="plugin" value="hardLimiter"/>
              </key>
            </effect>
            <effect name="bitcrush" on="1" autoquit_numerator="4" gate="0" autoquit="1" wet="1" autoquit_syncmode="0" autoquit_denominator="4">
              <bitcrushcontrols rate="44100" levels="256" depthon="1" innoise="0" outgain="0" stereodiff="0" outclip="-5.9000001" rateon="1" ingain="3.5"/>
              <key/>
            </effect>
            <effect name="ladspaeffect" on="1" autoquit_numerator="4" gate="0" autoquit="1" wet="1" autoquit_syncmode="0" autoquit_denominator="4">
              <ladspacontrols ports="10">
                <port00 data="5"/>
                <port01 data="0"/>
                <port02 data="10"/>
                <port03 data="0"/>
                <port04 data="0"/>
                <port05 data="0"/>
                <port06 data="-5"/>
                <port07 data="1"/>
                <port08 data="0"/>
                <port09 data="0"/>
              </ladspacontrols>
              <key>
                <attribute name="file" value="tap_echo"/>
                <attribute name="plugin" value="tap_stereo_echo"/>
              </key>
            </effect>
            <effect name="multitapecho" on="1" autoquit_numerator="4" gate="0" autoquit="1" wet="1" autoquit_syncmode="0" autoquit_denominator="4">
              <multitapechocontrols ampsteps="n/R5we7uhsGBlZHBl7WiwZqZscGO47jBzAzBwezRy8Fmv9jBLB3lwQD76sFnZvLBAAD2wQAA/sFmZgbCAAAQwg==" steps="16" steplength_syncmode="0" drygain="0" lpsteps="rkcVQHsUEkAfRQ1AmSgIQBLaAkAnvf8/kgv5P1Vl7z/fCOU/qfXcP+xR0j9Lfsg/xpK/P+xRuD8pXK8/mpmZPw==" stages="1" steplength_denominator="4" steplength="116" swapinputs="0" steplength_numerator="4"/>
              <key/>
            </effect>
            <effect name="eq" on="1" autoquit_numerator="4" gate="0" autoquit="1" wet="1" autoquit_syncmode="0" autoquit_denominator="4">
              <Eq LP="0" AnalyseOut="1" Lowshelfgain="3.6000001" Peak4gain="0" HighShelfres="1.4" Peak3active="0" Peak3bw="0.30000001" LP24="0" Outputgain="-16" HighShelfgain="5.2200003" HP48="0" Peak4active="0" HP24="0" Lowshelfactive="1" HP12="1" Peak1bw="0.30000001" HPres="0.70700002" HP="0" LPres="0.70700002" Peak2gain="0" Peak2bw="0.30000001" HPactive="0" Highshelfactive="1" LowShelfres="1.4" AnalyseIn="1" Peak3gain="0" LPactive="1" LP48="0" Peak2active="0" Peak4bw="0.30000001" LP12="1" Peak1active="0">
                <Inputgain id="213718" value="0" scale_type="log"/>
                <Peak1gain id="5407454" value="0" scale_type="log"/>
                <HPfreq id="2810581" value="31.000004" scale_type="log"/>
                <LowShelffreq id="6317802" value="474.70471" scale_type="log"/>
                <Peak1freq id="4618400" value="119.99998" scale_type="log"/>
                <Peak2freq id="7927906" value="250.00009" scale_type="log"/>
                <Peak3freq id="4005545" value="1999.9996" scale_type="log"/>
                <Peak4freq id="6594114" value="4000.0029" scale_type="log"/>
                <Highshelffreq id="2655515" value="6800.084" scale_type="log"/>
                <LPfreq id="7618554" value="14743.677" scale_type="log"/>
              </Eq>
              <key/>
            </effect>
          </fxchain>
        </instrumenttrack>
        <pattern name="Dirty Reece" muted="0" steps="16" pos="6144" type="1">
          <note pos="0" vol="100" key="47" len="24" pan="0"/>
          <note pos="24" vol="100" key="59" len="12" pan="0"/>
          <note pos="36" vol="100" key="47" len="24" pan="0"/>
          <note pos="60" vol="100" key="59" len="12" pan="0"/>
          <note pos="72" vol="100" key="47" len="24" pan="0"/>
          <note pos="96" vol="100" key="47" len="24" pan="0"/>
          <note pos="384" vol="100" key="45" len="24" pan="0"/>
          <note pos="408" vol="100" key="57" len="12" pan="0"/>
          <note pos="420" vol="100" key="45" len="24" pan="0"/>
          <note pos="444" vol="100" key="57" len="12" pan="0"/>
          <note pos="456" vol="100" key="45" len="24" pan="0"/>
          <note pos="480" vol="100" key="45" len="24" pan="0"/>
          <note pos="768" vol="100" key="47" len="24" pan="0"/>
          <note pos="792" vol="100" key="59" len="12" pan="0"/>
          <note pos="804" vol="100" key="47" len="24" pan="0"/>
          <note pos="828" vol="100" key="59" len="12" pan="0"/>
          <note pos="840" vol="100" key="47" len="24" pan="0"/>
          <note pos="864" vol="100" key="47" len="24" pan="0"/>
          <note pos="1152" vol="100" key="45" len="24" pan="0"/>
          <note pos="1176" vol="100" key="57" len="12" pan="0"/>
          <note pos="1188" vol="100" key="45" len="24" pan="0"/>
          <note pos="1212" vol="100" key="57" len="12" pan="0"/>
          <note pos="1224" vol="100" key="45" len="24" pan="0"/>
          <note pos="1248" vol="100" key="45" len="24" pan="0"/>
        </pattern>
        <pattern name="Dirty Reece" muted="0" steps="16" pos="0" type="1">
          <note pos="0" vol="100" key="47" len="24" pan="0"/>
          <note pos="24" vol="100" key="59" len="12" pan="0"/>
          <note pos="36" vol="100" key="47" len="24" pan="0"/>
          <note pos="60" vol="100" key="59" len="12" pan="0"/>
          <note pos="72" vol="100" key="47" len="24" pan="0"/>
          <note pos="96" vol="100" key="59" len="12" pan="0"/>
          <note pos="108" vol="100" key="47" len="24" pan="0"/>
          <note pos="132" vol="100" key="59" len="12" pan="0"/>
          <note pos="144" vol="100" key="45" len="24" pan="0"/>
          <note pos="168" vol="100" key="47" len="24" pan="0"/>
          <note pos="192" vol="100" key="47" len="24" pan="0"/>
          <note pos="216" vol="100" key="59" len="12" pan="0"/>
          <note pos="228" vol="100" key="47" len="24" pan="0"/>
          <note pos="252" vol="100" key="59" len="12" pan="0"/>
          <note pos="264" vol="100" key="47" len="24" pan="0"/>
          <note pos="288" vol="100" key="59" len="12" pan="0"/>
          <note pos="300" vol="100" key="47" len="24" pan="0"/>
          <note pos="324" vol="100" key="59" len="12" pan="0"/>
          <note pos="336" vol="100" key="45" len="24" pan="0"/>
          <note pos="360" vol="100" key="47" len="24" pan="0"/>
          <note pos="384" vol="100" key="47" len="24" pan="0"/>
          <note pos="408" vol="100" key="59" len="12" pan="0"/>
          <note pos="420" vol="100" key="47" len="24" pan="0"/>
          <note pos="444" vol="100" key="59" len="12" pan="0"/>
          <note pos="456" vol="100" key="47" len="24" pan="0"/>
          <note pos="480" vol="100" key="59" len="12" pan="0"/>
          <note pos="492" vol="100" key="47" len="24" pan="0"/>
          <note pos="516" vol="100" key="59" len="12" pan="0"/>
          <note pos="528" vol="100" key="45" len="24" pan="0"/>
          <note pos="552" vol="100" key="47" len="24" pan="0"/>
          <note pos="576" vol="100" key="47" len="24" pan="0"/>
          <note pos="600" vol="100" key="59" len="12" pan="0"/>
          <note pos="612" vol="100" key="47" len="24" pan="0"/>
          <note pos="636" vol="100" key="59" len="12" pan="0"/>
          <note pos="648" vol="100" key="47" len="24" pan="0"/>
          <note pos="672" vol="100" key="59" len="12" pan="0"/>
          <note pos="684" vol="100" key="47" len="24" pan="0"/>
          <note pos="708" vol="100" key="59" len="12" pan="0"/>
          <note pos="720" vol="100" key="45" len="24" pan="0"/>
          <note pos="744" vol="100" key="47" len="24" pan="0"/>
          <note pos="768" vol="100" key="47" len="24" pan="0"/>
          <note pos="792" vol="100" key="59" len="12" pan="0"/>
          <note pos="804" vol="100" key="47" len="24" pan="0"/>
          <note pos="828" vol="100" key="59" len="12" pan="0"/>
          <note pos="840" vol="100" key="47" len="24" pan="0"/>
          <note pos="864" vol="100" key="59" len="12" pan="0"/>
          <note pos="876" vol="100" key="47" len="24" pan="0"/>
          <note pos="900" vol="100" key="59" len="12" pan="0"/>
          <note pos="912" vol="100" key="45" len="24" pan="0"/>
          <note pos="936" vol="100" key="47" len="24" pan="0"/>
          <note pos="960" vol="100" key="47" len="24" pan="0"/>
          <note pos="984" vol="100" key="59" len="12" pan="0"/>
          <note pos="996" vol="100" key="47" len="24" pan="0"/>
          <note pos="1020" vol="100" key="59" len="12" pan="0"/>
          <note pos="1032" vol="100" key="47" len="24" pan="0"/>
          <note pos="1056" vol="100" key="59" len="12" pan="0"/>
          <note pos="1068" vol="100" key="47" len="24" pan="0"/>
          <note pos="1092" vol="100" key="59" len="12" pan="0"/>
          <note pos="1104" vol="100" key="45" len="24" pan="0"/>
          <note pos="1128" vol="100" key="47" len="24" pan="0"/>
          <note pos="1152" vol="100" key="47" len="24" pan="0"/>
          <note pos="1176" vol="100" key="59" len="12" pan="0"/>
          <note pos="1188" vol="100" key="47" len="24" pan="0"/>
          <note pos="1212" vol="100" key="59" len="12" pan="0"/>
          <note pos="1224" vol="100" key="47" len="24" pan="0"/>
          <note pos="1248" vol="100" key="59" len="12" pan="0"/>
          <note pos="1260" vol="100" key="47" len="24" pan="0"/>
          <note pos="1284" vol="100" key="59" len="12" pan="0"/>
          <note pos="1296" vol="100" key="45" len="24" pan="0"/>
          <note pos="1320" vol="100" key="47" len="24" pan="0"/>
          <note pos="1344" vol="100" key="47" len="24" pan="0"/>
          <note pos="1368" vol="100" key="59" len="12" pan="0"/>
          <note pos="1380" vol="100" key="47" len="24" pan="0"/>
          <note pos="1404" vol="100" key="59" len="12" pan="0"/>
          <note pos="1416" vol="100" key="47" len="24" pan="0"/>
          <note pos="1440" vol="100" key="59" len="12" pan="0"/>
          <note pos="1452" vol="100" key="47" len="24" pan="0"/>
          <note pos="1476" vol="100" key="59" len="12" pan="0"/>
          <note pos="1488" vol="100" key="45" len="24" pan="0"/>
          <note pos="1512" vol="100" key="47" len="24" pan="0"/>
        </pattern>
        <pattern name="Dirty Reece" muted="0" steps="16" pos="1536" type="1">
          <note pos="0" vol="100" key="47" len="24" pan="0"/>
          <note pos="24" vol="100" key="59" len="12" pan="0"/>
          <note pos="36" vol="100" key="47" len="24" pan="0"/>
          <note pos="60" vol="100" key="59" len="12" pan="0"/>
          <note pos="72" vol="100" key="47" len="24" pan="0"/>
          <note pos="96" vol="100" key="59" len="12" pan="0"/>
          <note pos="108" vol="100" key="47" len="24" pan="0"/>
          <note pos="132" vol="100" key="59" len="12" pan="0"/>
          <note pos="144" vol="100" key="45" len="24" pan="0"/>
          <note pos="168" vol="100" key="47" len="24" pan="0"/>
          <note pos="192" vol="100" key="47" len="24" pan="0"/>
          <note pos="216" vol="100" key="59" len="12" pan="0"/>
          <note pos="228" vol="100" key="47" len="24" pan="0"/>
          <note pos="252" vol="100" key="59" len="12" pan="0"/>
          <note pos="264" vol="100" key="47" len="24" pan="0"/>
          <note pos="288" vol="100" key="59" len="12" pan="0"/>
          <note pos="300" vol="100" key="47" len="24" pan="0"/>
          <note pos="324" vol="100" key="59" len="12" pan="0"/>
          <note pos="336" vol="100" key="45" len="24" pan="0"/>
          <note pos="360" vol="100" key="47" len="24" pan="0"/>
          <note pos="384" vol="100" key="47" len="24" pan="0"/>
          <note pos="408" vol="100" key="59" len="12" pan="0"/>
          <note pos="420" vol="100" key="47" len="24" pan="0"/>
          <note pos="444" vol="100" key="59" len="12" pan="0"/>
          <note pos="456" vol="100" key="47" len="24" pan="0"/>
          <note pos="480" vol="100" key="59" len="12" pan="0"/>
          <note pos="492" vol="100" key="47" len="24" pan="0"/>
          <note pos="516" vol="100" key="59" len="12" pan="0"/>
          <note pos="528" vol="100" key="45" len="24" pan="0"/>
          <note pos="552" vol="100" key="47" len="24" pan="0"/>
          <note pos="576" vol="100" key="47" len="24" pan="0"/>
          <note pos="600" vol="100" key="59" len="12" pan="0"/>
          <note pos="612" vol="100" key="47" len="24" pan="0"/>
          <note pos="636" vol="100" key="59" len="12" pan="0"/>
          <note pos="648" vol="100" key="47" len="24" pan="0"/>
          <note pos="672" vol="100" key="59" len="12" pan="0"/>
          <note pos="684" vol="100" key="47" len="24" pan="0"/>
          <note pos="708" vol="100" key="59" len="12" pan="0"/>
          <note pos="720" vol="100" key="45" len="24" pan="0"/>
          <note pos="744" vol="100" key="47" len="24" pan="0"/>
          <note pos="768" vol="100" key="47" len="24" pan="0"/>
          <note pos="792" vol="100" key="59" len="12" pan="0"/>
          <note pos="804" vol="100" key="47" len="24" pan="0"/>
          <note pos="828" vol="100" key="59" len="12" pan="0"/>
          <note pos="840" vol="100" key="47" len="24" pan="0"/>
          <note pos="864" vol="100" key="59" len="12" pan="0"/>
          <note pos="876" vol="100" key="47" len="24" pan="0"/>
          <note pos="900" vol="100" key="59" len="12" pan="0"/>
          <note pos="912" vol="100" key="45" len="24" pan="0"/>
          <note pos="936" vol="100" key="47" len="24" pan="0"/>
          <note pos="960" vol="100" key="47" len="24" pan="0"/>
          <note pos="984" vol="100" key="59" len="12" pan="0"/>
          <note pos="996" vol="100" key="47" len="24" pan="0"/>
          <note pos="1020" vol="100" key="59" len="12" pan="0"/>
          <note pos="1032" vol="100" key="47" len="24" pan="0"/>
          <note pos="1056" vol="100" key="59" len="12" pan="0"/>
          <note pos="1068" vol="100" key="47" len="24" pan="0"/>
          <note pos="1092" vol="100" key="59" len="12" pan="0"/>
          <note pos="1104" vol="100" key="45" len="24" pan="0"/>
          <note pos="1128" vol="100" key="47" len="24" pan="0"/>
          <note pos="1152" vol="100" key="47" len="24" pan="0"/>
          <note pos="1176" vol="100" key="59" len="12" pan="0"/>
          <note pos="1188" vol="100" key="47" len="24" pan="0"/>
          <note pos="1212" vol="100" key="59" len="12" pan="0"/>
          <note pos="1224" vol="100" key="47" len="24" pan="0"/>
          <note pos="1248" vol="100" key="59" len="12" pan="0"/>
          <note pos="1260" vol="100" key="47" len="24" pan="0"/>
          <note pos="1284" vol="100" key="59" len="12" pan="0"/>
          <note pos="1296" vol="100" key="45" len="24" pan="0"/>
          <note pos="1320" vol="100" key="47" len="24" pan="0"/>
          <note pos="1344" vol="100" key="47" len="24" pan="0"/>
          <note pos="1368" vol="100" key="59" len="12" pan="0"/>
          <note pos="1380" vol="100" key="47" len="24" pan="0"/>
          <note pos="1404" vol="100" key="59" len="12" pan="0"/>
          <note pos="1416" vol="100" key="47" len="24" pan="0"/>
          <note pos="1440" vol="100" key="59" len="12" pan="0"/>
          <note pos="1452" vol="100" key="47" len="24" pan="0"/>
          <note pos="1476" vol="100" key="59" len="12" pan="0"/>
          <note pos="1488" vol="100" key="45" len="24" pan="0"/>
          <note pos="1512" vol="100" key="47" len="24" pan="0"/>
        </pattern>
        <pattern name="Dirty Reece" muted="0" steps="16" pos="7680" type="1">
          <note pos="0" vol="100" key="47" len="24" pan="0"/>
          <note pos="24" vol="100" key="59" len="12" pan="0"/>
          <note pos="36" vol="100" key="47" len="24" pan="0"/>
          <note pos="60" vol="100" key="59" len="12" pan="0"/>
          <note pos="72" vol="100" key="47" len="24" pan="0"/>
          <note pos="96" vol="100" key="59" len="12" pan="0"/>
          <note pos="108" vol="100" key="47" len="24" pan="0"/>
          <note pos="132" vol="100" key="59" len="12" pan="0"/>
          <note pos="144" vol="100" key="45" len="24" pan="0"/>
          <note pos="168" vol="100" key="47" len="24" pan="0"/>
          <note pos="192" vol="100" key="47" len="24" pan="0"/>
          <note pos="216" vol="100" key="59" len="12" pan="0"/>
          <note pos="228" vol="100" key="47" len="24" pan="0"/>
          <note pos="252" vol="100" key="59" len="12" pan="0"/>
          <note pos="264" vol="100" key="47" len="24" pan="0"/>
          <note pos="288" vol="100" key="59" len="12" pan="0"/>
          <note pos="300" vol="100" key="47" len="24" pan="0"/>
          <note pos="324" vol="100" key="59" len="12" pan="0"/>
          <note pos="336" vol="100" key="45" len="24" pan="0"/>
          <note pos="360" vol="100" key="47" len="24" pan="0"/>
          <note pos="384" vol="100" key="47" len="24" pan="0"/>
          <note pos="408" vol="100" key="59" len="12" pan="0"/>
          <note pos="420" vol="100" key="47" len="24" pan="0"/>
          <note pos="444" vol="100" key="59" len="12" pan="0"/>
          <note pos="456" vol="100" key="47" len="24" pan="0"/>
          <note pos="480" vol="100" key="59" len="12" pan="0"/>
          <note pos="492" vol="100" key="47" len="24" pan="0"/>
          <note pos="516" vol="100" key="59" len="12" pan="0"/>
          <note pos="528" vol="100" key="45" len="24" pan="0"/>
          <note pos="552" vol="100" key="47" len="24" pan="0"/>
          <note pos="576" vol="100" key="47" len="24" pan="0"/>
          <note pos="600" vol="100" key="59" len="12" pan="0"/>
          <note pos="612" vol="100" key="47" len="24" pan="0"/>
          <note pos="636" vol="100" key="59" len="12" pan="0"/>
          <note pos="648" vol="100" key="47" len="24" pan="0"/>
          <note pos="672" vol="100" key="59" len="12" pan="0"/>
          <note pos="684" vol="100" key="47" len="24" pan="0"/>
          <note pos="708" vol="100" key="59" len="12" pan="0"/>
          <note pos="720" vol="100" key="45" len="24" pan="0"/>
          <note pos="744" vol="100" key="47" len="24" pan="0"/>
          <note pos="768" vol="100" key="47" len="24" pan="0"/>
          <note pos="792" vol="100" key="59" len="12" pan="0"/>
          <note pos="804" vol="100" key="47" len="24" pan="0"/>
          <note pos="828" vol="100" key="59" len="12" pan="0"/>
          <note pos="840" vol="100" key="47" len="24" pan="0"/>
          <note pos="864" vol="100" key="59" len="12" pan="0"/>
          <note pos="876" vol="100" key="47" len="24" pan="0"/>
          <note pos="900" vol="100" key="59" len="12" pan="0"/>
          <note pos="912" vol="100" key="45" len="24" pan="0"/>
          <note pos="936" vol="100" key="47" len="24" pan="0"/>
          <note pos="960" vol="100" key="47" len="24" pan="0"/>
          <note pos="984" vol="100" key="59" len="12" pan="0"/>
          <note pos="996" vol="100" key="47" len="24" pan="0"/>
          <note pos="1020" vol="100" key="59" len="12" pan="0"/>
          <note pos="1032" vol="100" key="47" len="24" pan="0"/>
          <note pos="1056" vol="100" key="59" len="12" pan="0"/>
          <note pos="1068" vol="100" key="47" len="24" pan="0"/>
          <note pos="1092" vol="100" key="59" len="12" pan="0"/>
          <note pos="1104" vol="100" key="45" len="24" pan="0"/>
          <note pos="1128" vol="100" key="47" len="24" pan="0"/>
          <note pos="1152" vol="100" key="47" len="24" pan="0"/>
          <note pos="1176" vol="100" key="59" len="12" pan="0"/>
          <note pos="1188" vol="100" key="47" len="24" pan="0"/>
          <note pos="1212" vol="100" key="59" len="12" pan="0"/>
          <note pos="1224" vol="100" key="47" len="24" pan="0"/>
          <note pos="1248" vol="100" key="59" len="12" pan="0"/>
          <note pos="1260" vol="100" key="47" len="24" pan="0"/>
          <note pos="1284" vol="100" key="59" len="12" pan="0"/>
          <note pos="1296" vol="100" key="45" len="24" pan="0"/>
          <note pos="1320" vol="100" key="47" len="24" pan="0"/>
          <note pos="1344" vol="100" key="47" len="24" pan="0"/>
          <note pos="1368" vol="100" key="59" len="12" pan="0"/>
          <note pos="1380" vol="100" key="47" len="24" pan="0"/>
          <note pos="1404" vol="100" key="59" len="12" pan="0"/>
          <note pos="1416" vol="100" key="47" len="24" pan="0"/>
          <note pos="1440" vol="100" key="59" len="12" pan="0"/>
          <note pos="1452" vol="100" key="47" len="24" pan="0"/>
          <note pos="1476" vol="100" key="59" len="12" pan="0"/>
          <note pos="1488" vol="100" key="45" len="24" pan="0"/>
          <note pos="1512" vol="100" key="47" len="24" pan="0"/>
        </pattern>
        <pattern name="Dirty Reece" muted="0" steps="16" pos="9216" type="1">
          <note pos="0" vol="100" key="47" len="24" pan="0"/>
          <note pos="24" vol="100" key="59" len="12" pan="0"/>
          <note pos="36" vol="100" key="47" len="24" pan="0"/>
          <note pos="60" vol="100" key="59" len="12" pan="0"/>
          <note pos="72" vol="100" key="47" len="24" pan="0"/>
          <note pos="96" vol="100" key="59" len="12" pan="0"/>
          <note pos="108" vol="100" key="47" len="24" pan="0"/>
          <note pos="132" vol="100" key="59" len="12" pan="0"/>
          <note pos="144" vol="100" key="45" len="24" pan="0"/>
          <note pos="168" vol="100" key="47" len="24" pan="0"/>
          <note pos="192" vol="100" key="47" len="24" pan="0"/>
          <note pos="216" vol="100" key="59" len="12" pan="0"/>
          <note pos="228" vol="100" key="47" len="24" pan="0"/>
          <note pos="252" vol="100" key="59" len="12" pan="0"/>
          <note pos="264" vol="100" key="47" len="24" pan="0"/>
          <note pos="288" vol="100" key="59" len="12" pan="0"/>
          <note pos="300" vol="100" key="47" len="24" pan="0"/>
          <note pos="324" vol="100" key="59" len="12" pan="0"/>
          <note pos="336" vol="100" key="45" len="24" pan="0"/>
          <note pos="360" vol="100" key="47" len="24" pan="0"/>
          <note pos="384" vol="100" key="47" len="24" pan="0"/>
          <note pos="408" vol="100" key="59" len="12" pan="0"/>
          <note pos="420" vol="100" key="47" len="24" pan="0"/>
          <note pos="444" vol="100" key="59" len="12" pan="0"/>
          <note pos="456" vol="100" key="47" len="24" pan="0"/>
          <note pos="480" vol="100" key="59" len="12" pan="0"/>
          <note pos="492" vol="100" key="47" len="24" pan="0"/>
          <note pos="516" vol="100" key="59" len="12" pan="0"/>
          <note pos="528" vol="100" key="45" len="24" pan="0"/>
          <note pos="552" vol="100" key="47" len="24" pan="0"/>
          <note pos="576" vol="100" key="47" len="24" pan="0"/>
          <note pos="600" vol="100" key="59" len="12" pan="0"/>
          <note pos="612" vol="100" key="47" len="24" pan="0"/>
          <note pos="636" vol="100" key="59" len="12" pan="0"/>
          <note pos="648" vol="100" key="47" len="24" pan="0"/>
          <note pos="672" vol="100" key="59" len="12" pan="0"/>
          <note pos="684" vol="100" key="47" len="24" pan="0"/>
          <note pos="708" vol="100" key="59" len="12" pan="0"/>
          <note pos="720" vol="100" key="45" len="24" pan="0"/>
          <note pos="744" vol="100" key="47" len="24" pan="0"/>
          <note pos="768" vol="100" key="47" len="24" pan="0"/>
          <note pos="792" vol="100" key="59" len="12" pan="0"/>
          <note pos="804" vol="100" key="47" len="24" pan="0"/>
          <note pos="828" vol="100" key="59" len="12" pan="0"/>
          <note pos="840" vol="100" key="47" len="24" pan="0"/>
          <note pos="864" vol="100" key="59" len="12" pan="0"/>
          <note pos="876" vol="100" key="47" len="24" pan="0"/>
          <note pos="900" vol="100" key="59" len="12" pan="0"/>
          <note pos="912" vol="100" key="45" len="24" pan="0"/>
          <note pos="936" vol="100" key="47" len="24" pan="0"/>
          <note pos="960" vol="100" key="47" len="24" pan="0"/>
          <note pos="984" vol="100" key="59" len="12" pan="0"/>
          <note pos="996" vol="100" key="47" len="24" pan="0"/>
          <note pos="1020" vol="100" key="59" len="12" pan="0"/>
          <note pos="1032" vol="100" key="47" len="24" pan="0"/>
          <note pos="1056" vol="100" key="59" len="12" pan="0"/>
          <note pos="1068" vol="100" key="47" len="24" pan="0"/>
          <note pos="1092" vol="100" key="59" len="12" pan="0"/>
          <note pos="1104" vol="100" key="45" len="24" pan="0"/>
          <note pos="1128" vol="100" key="47" len="24" pan="0"/>
          <note pos="1152" vol="100" key="47" len="24" pan="0"/>
          <note pos="1176" vol="100" key="59" len="12" pan="0"/>
          <note pos="1188" vol="100" key="47" len="24" pan="0"/>
          <note pos="1212" vol="100" key="59" len="12" pan="0"/>
          <note pos="1224" vol="100" key="47" len="24" pan="0"/>
          <note pos="1248" vol="100" key="59" len="12" pan="0"/>
          <note pos="1260" vol="100" key="47" len="24" pan="0"/>
          <note pos="1284" vol="100" key="59" len="12" pan="0"/>
          <note pos="1296" vol="100" key="45" len="24" pan="0"/>
          <note pos="1320" vol="100" key="47" len="24" pan="0"/>
          <note pos="1344" vol="100" key="47" len="24" pan="0"/>
          <note pos="1368" vol="100" key="59" len="12" pan="0"/>
          <note pos="1380" vol="100" key="47" len="24" pan="0"/>
          <note pos="1404" vol="100" key="59" len="12" pan="0"/>
          <note pos="1416" vol="100" key="47" len="24" pan="0"/>
          <note pos="1440" vol="100" key="59" len="12" pan="0"/>
          <note pos="1452" vol="100" key="47" len="24" pan="0"/>
          <note pos="1476" vol="100" key="59" len="12" pan="0"/>
          <note pos="1488" vol="100" key="45" len="24" pan="0"/>
          <note pos="1512" vol="100" key="47" len="24" pan="0"/>
        </pattern>
        <pattern name="Dirty Reece" muted="0" steps="16" pos="11520" type="1">
          <note pos="0" vol="100" key="47" len="24" pan="0"/>
          <note pos="24" vol="100" key="59" len="12" pan="0"/>
          <note pos="36" vol="100" key="47" len="24" pan="0"/>
          <note pos="60" vol="100" key="59" len="12" pan="0"/>
          <note pos="72" vol="100" key="47" len="24" pan="0"/>
          <note pos="96" vol="100" key="59" len="12" pan="0"/>
          <note pos="108" vol="100" key="47" len="24" pan="0"/>
          <note pos="132" vol="100" key="59" len="12" pan="0"/>
          <note pos="144" vol="100" key="45" len="24" pan="0"/>
          <note pos="168" vol="100" key="47" len="24" pan="0"/>
          <note pos="192" vol="100" key="47" len="24" pan="0"/>
          <note pos="216" vol="100" key="59" len="12" pan="0"/>
          <note pos="228" vol="100" key="47" len="24" pan="0"/>
          <note pos="252" vol="100" key="59" len="12" pan="0"/>
          <note pos="264" vol="100" key="47" len="24" pan="0"/>
          <note pos="288" vol="100" key="59" len="12" pan="0"/>
          <note pos="300" vol="100" key="47" len="24" pan="0"/>
          <note pos="324" vol="100" key="59" len="12" pan="0"/>
          <note pos="336" vol="100" key="45" len="24" pan="0"/>
          <note pos="360" vol="100" key="47" len="24" pan="0"/>
          <note pos="384" vol="100" key="47" len="24" pan="0"/>
          <note pos="408" vol="100" key="59" len="12" pan="0"/>
          <note pos="420" vol="100" key="47" len="24" pan="0"/>
          <note pos="444" vol="100" key="59" len="12" pan="0"/>
          <note pos="456" vol="100" key="47" len="24" pan="0"/>
          <note pos="480" vol="100" key="59" len="12" pan="0"/>
          <note pos="492" vol="100" key="47" len="24" pan="0"/>
          <note pos="516" vol="100" key="59" len="12" pan="0"/>
          <note pos="528" vol="100" key="45" len="24" pan="0"/>
          <note pos="552" vol="100" key="47" len="24" pan="0"/>
          <note pos="576" vol="100" key="47" len="24" pan="0"/>
          <note pos="600" vol="100" key="59" len="12" pan="0"/>
          <note pos="612" vol="100" key="47" len="24" pan="0"/>
          <note pos="636" vol="100" key="59" len="12" pan="0"/>
          <note pos="648" vol="100" key="47" len="24" pan="0"/>
          <note pos="672" vol="100" key="59" len="12" pan="0"/>
          <note pos="684" vol="100" key="47" len="24" pan="0"/>
          <note pos="708" vol="100" key="59" len="12" pan="0"/>
          <note pos="720" vol="100" key="45" len="24" pan="0"/>
          <note pos="744" vol="100" key="47" len="24" pan="0"/>
        </pattern>
        <pattern name="Dirty Reece" muted="0" steps="16" pos="3072" type="1">
          <note pos="0" vol="100" key="47" len="24" pan="0"/>
          <note pos="24" vol="100" key="59" len="12" pan="0"/>
          <note pos="36" vol="100" key="47" len="24" pan="0"/>
          <note pos="60" vol="100" key="59" len="12" pan="0"/>
          <note pos="72" vol="100" key="47" len="24" pan="0"/>
          <note pos="96" vol="100" key="59" len="12" pan="0"/>
          <note pos="108" vol="100" key="47" len="24" pan="0"/>
          <note pos="132" vol="100" key="59" len="12" pan="0"/>
          <note pos="144" vol="100" key="45" len="24" pan="0"/>
          <note pos="168" vol="100" key="47" len="24" pan="0"/>
          <note pos="192" vol="100" key="47" len="24" pan="0"/>
          <note pos="216" vol="100" key="59" len="12" pan="0"/>
          <note pos="228" vol="100" key="47" len="24" pan="0"/>
          <note pos="252" vol="100" key="59" len="12" pan="0"/>
          <note pos="264" vol="100" key="47" len="24" pan="0"/>
          <note pos="288" vol="100" key="59" len="12" pan="0"/>
          <note pos="300" vol="100" key="47" len="24" pan="0"/>
          <note pos="324" vol="100" key="59" len="12" pan="0"/>
          <note pos="336" vol="100" key="45" len="24" pan="0"/>
          <note pos="360" vol="100" key="47" len="24" pan="0"/>
          <note pos="384" vol="100" key="47" len="24" pan="0"/>
          <note pos="408" vol="100" key="59" len="12" pan="0"/>
          <note pos="420" vol="100" key="47" len="24" pan="0"/>
          <note pos="444" vol="100" key="59" len="12" pan="0"/>
          <note pos="456" vol="100" key="47" len="24" pan="0"/>
          <note pos="480" vol="100" key="59" len="12" pan="0"/>
          <note pos="492" vol="100" key="47" len="24" pan="0"/>
          <note pos="516" vol="100" key="59" len="12" pan="0"/>
          <note pos="528" vol="100" key="45" len="24" pan="0"/>
          <note pos="552" vol="100" key="47" len="24" pan="0"/>
          <note pos="576" vol="100" key="47" len="24" pan="0"/>
          <note pos="600" vol="100" key="59" len="12" pan="0"/>
          <note pos="612" vol="100" key="47" len="24" pan="0"/>
          <note pos="636" vol="100" key="59" len="12" pan="0"/>
          <note pos="648" vol="100" key="47" len="24" pan="0"/>
          <note pos="672" vol="100" key="59" len="12" pan="0"/>
          <note pos="684" vol="100" key="47" len="24" pan="0"/>
          <note pos="708" vol="100" key="59" len="12" pan="0"/>
          <note pos="720" vol="100" key="45" len="24" pan="0"/>
          <note pos="744" vol="100" key="47" len="24" pan="0"/>
          <note pos="768" vol="100" key="47" len="24" pan="0"/>
          <note pos="792" vol="100" key="59" len="12" pan="0"/>
          <note pos="804" vol="100" key="47" len="24" pan="0"/>
          <note pos="828" vol="100" key="59" len="12" pan="0"/>
          <note pos="840" vol="100" key="47" len="24" pan="0"/>
          <note pos="864" vol="100" key="59" len="12" pan="0"/>
          <note pos="876" vol="100" key="47" len="24" pan="0"/>
          <note pos="900" vol="100" key="59" len="12" pan="0"/>
          <note pos="912" vol="100" key="45" len="24" pan="0"/>
          <note pos="936" vol="100" key="47" len="24" pan="0"/>
          <note pos="960" vol="100" key="47" len="24" pan="0"/>
          <note pos="984" vol="100" key="59" len="12" pan="0"/>
          <note pos="996" vol="100" key="47" len="24" pan="0"/>
          <note pos="1020" vol="100" key="59" len="12" pan="0"/>
          <note pos="1032" vol="100" key="47" len="24" pan="0"/>
          <note pos="1056" vol="100" key="59" len="12" pan="0"/>
          <note pos="1068" vol="100" key="47" len="24" pan="0"/>
          <note pos="1092" vol="100" key="59" len="12" pan="0"/>
          <note pos="1104" vol="100" key="45" len="24" pan="0"/>
          <note pos="1128" vol="100" key="47" len="24" pan="0"/>
          <note pos="1152" vol="100" key="47" len="24" pan="0"/>
          <note pos="1176" vol="100" key="59" len="12" pan="0"/>
          <note pos="1188" vol="100" key="47" len="24" pan="0"/>
          <note pos="1212" vol="100" key="59" len="12" pan="0"/>
          <note pos="1224" vol="100" key="47" len="24" pan="0"/>
          <note pos="1248" vol="100" key="59" len="12" pan="0"/>
          <note pos="1260" vol="100" key="47" len="24" pan="0"/>
          <note pos="1284" vol="100" key="59" len="12" pan="0"/>
          <note pos="1296" vol="100" key="45" len="24" pan="0"/>
          <note pos="1320" vol="100" key="47" len="24" pan="0"/>
          <note pos="1344" vol="100" key="47" len="24" pan="0"/>
          <note pos="1368" vol="100" key="59" len="12" pan="0"/>
          <note pos="1380" vol="100" key="47" len="24" pan="0"/>
          <note pos="1404" vol="100" key="59" len="12" pan="0"/>
          <note pos="1416" vol="100" key="47" len="24" pan="0"/>
          <note pos="1440" vol="100" key="59" len="12" pan="0"/>
          <note pos="1452" vol="100" key="47" len="24" pan="0"/>
          <note pos="1476" vol="100" key="59" len="12" pan="0"/>
          <note pos="1488" vol="100" key="45" len="24" pan="0"/>
          <note pos="1512" vol="100" key="47" len="24" pan="0"/>
        </pattern>
      </track>
      <track name="Fuzzy Analog Bass" muted="0" type="0" solo="0">
        <instrumenttrack fxch="2" vol="100" basenote="69" usemasterpitch="1" pitchrange="1" pan="0" pitch="0">
          <instrument name="tripleoscillator">
            <tripleoscillator wavetype0="5" stphdetun0="247" coarse2="0" pan2="0" userwavefile1="samples/empty.wav" modalgo3="0" vol0="100" coarse1="0" pan1="0" phoffset0="101" pan0="0" userwavefile2="samples/empty.wav" wavetype1="2" finer1="0" modalgo1="2" phoffset2="0" finer2="0" userwavefile0="samples/empty.wav" phoffset1="0" finer0="0" vol1="100" stphdetun1="0" modalgo2="2" finel1="0" coarse0="-12" finel2="0" wavetype2="4" vol2="100" stphdetun2="120" finel0="0"/>
          </instrument>
          <eldata fwet="1" fcut="2839" fres="0.5" ftype="0">
            <elvol ctlenvamt="0" att="0" lspd_denominator="1" x100="0" lspd="0.091700003" dec="0.28099999" rel="0.23899999" lspd_numerator="1" hold="0" lpdel="0" amt="1" lshp="0" pdel="0" latt="0" sustain="0.296" userwavefile="" lamt="0" lspd_syncmode="0"/>
            <elcut ctlenvamt="0" att="0" lspd_denominator="1" x100="0" lspd="0.7263" dec="0.16500001" rel="0.1" lspd_numerator="1" hold="0" lpdel="0" amt="1" lshp="0" pdel="0" latt="0" sustain="0" userwavefile="" lamt="0.82999998" lspd_syncmode="0"/>
            <elres ctlenvamt="0" att="0" lspd_denominator="1" x100="0" lspd="1" dec="0.5" rel="0.1" lspd_numerator="1" hold="0" lpdel="0" amt="0" lshp="1" pdel="0" latt="0" sustain="0.5" userwavefile="" lamt="0" lspd_syncmode="0"/>
          </eldata>
          <chordcreator chord-enabled="1" chord="0" chordrange="1"/>
          <arpeggiator arpskip="0" arptime="100" arpdir="0" arpmode="0" arp-enabled="0" arpmiss="0" arpcycle="0" arptime_syncmode="0" arpgate="100" arptime_numerator="1" arp="0" arprange="3" arptime_denominator="1"/>
          <midiport inputcontroller="0" fixedoutputnote="-1" outputcontroller="0" inputchannel="0" fixedinputvelocity="-1" writable="0" outputchannel="1" fixedoutputvelocity="-1" readable="0" outputprogram="1" basevelocity="127"/>
          <fxchain numofeffects="3" enabled="1">
            <effect name="eq" on="1" autoquit_numerator="4" gate="0" autoquit="1" wet="1" autoquit_syncmode="0" autoquit_denominator="4">
              <Eq LP="0" AnalyseOut="1" Lowshelfgain="0" Peak4gain="0" HighShelfres="1.4" Peak3active="0" Peak3bw="0.30000001" LP24="0" Outputgain="-5" HighShelfgain="0" HP48="0" Peak4active="0" HP24="0" Lowshelfactive="0" HP12="1" Peak1bw="0.30000001" HPres="0.70700002" HP="0" LPres="0.70700002" Peak2gain="0" Peak2bw="0.30000001" HPactive="0" Highshelfactive="0" LowShelfres="1.4" AnalyseIn="1" Peak3gain="0" LPactive="0" LP48="0" Peak2active="0" Peak4bw="0.30000001" LP12="1" Peak1active="0">
                <Inputgain id="5470521" value="0" scale_type="log"/>
                <Peak1gain id="1732391" value="0" scale_type="log"/>
                <HPfreq id="5951935" value="31" scale_type="log"/>
                <LowShelffreq id="3428633" value="80" scale_type="log"/>
                <Peak1freq id="4550624" value="120" scale_type="log"/>
                <Peak2freq id="5649628" value="250" scale_type="log"/>
                <Peak3freq id="6909359" value="2000" scale_type="log"/>
                <Peak4freq id="3697712" value="4000" scale_type="log"/>
                <Highshelffreq id="3760942" value="12000" scale_type="log"/>
                <LPfreq id="691002" value="18000" scale_type="log"/>
              </Eq>
              <key/>
            </effect>
            <effect name="ladspaeffect" on="1" autoquit_numerator="4" gate="0" autoquit="1" wet="1" autoquit_syncmode="0" autoquit_denominator="4">
              <ladspacontrols ports="4">
                <port02 data="0.50200003"/>
                <port03 data="0.37450001"/>
                <port04 data="0.250375"/>
                <port05 data="0.25"/>
              </ladspacontrols>
              <key>
                <attribute name="file" value="caps"/>
                <attribute name="plugin" value="Plate2x2"/>
              </key>
            </effect>
            <effect name="ladspaeffect" on="1" autoquit_numerator="4" gate="0" autoquit="1" wet="1" autoquit_syncmode="0" autoquit_denominator="4">
              <ladspacontrols ports="10">
                <port00 data="10"/>
                <port01 data="0"/>
                <port02 data="12"/>
                <port03 data="0"/>
                <port04 data="-6"/>
                <port05 data="-6"/>
                <port06 data="0"/>
                <port07 data="0"/>
                <port08 data="1"/>
                <port09 data="0"/>
              </ladspacontrols>
              <key>
                <attribute name="file" value="tap_echo"/>
                <attribute name="plugin" value="tap_stereo_echo"/>
              </key>
            </effect>
          </fxchain>
        </instrumenttrack>
        <pattern name="Fuzzy Analog Bass" muted="0" steps="16" pos="4608" type="1">
          <note pos="0" vol="100" key="47" len="24" pan="0"/>
          <note pos="24" vol="100" key="47" len="12" pan="0"/>
          <note pos="36" vol="100" key="47" len="24" pan="0"/>
          <note pos="60" vol="100" key="47" len="12" pan="0"/>
          <note pos="72" vol="100" key="47" len="24" pan="0"/>
          <note pos="96" vol="100" key="47" len="12" pan="0"/>
          <note pos="108" vol="100" key="47" len="24" pan="0"/>
          <note pos="132" vol="100" key="47" len="12" pan="0"/>
          <note pos="144" vol="100" key="45" len="24" pan="0"/>
          <note pos="168" vol="100" key="47" len="24" pan="0"/>
          <note pos="192" vol="100" key="47" len="24" pan="0"/>
          <note pos="216" vol="100" key="47" len="12" pan="0"/>
          <note pos="228" vol="100" key="47" len="24" pan="0"/>
          <note pos="252" vol="100" key="47" len="12" pan="0"/>
          <note pos="264" vol="100" key="47" len="24" pan="0"/>
          <note pos="288" vol="100" key="47" len="12" pan="0"/>
          <note pos="300" vol="100" key="47" len="24" pan="0"/>
          <note pos="324" vol="100" key="47" len="12" pan="0"/>
          <note pos="336" vol="100" key="45" len="24" pan="0"/>
          <note pos="360" vol="100" key="47" len="24" pan="0"/>
          <note pos="384" vol="100" key="47" len="24" pan="0"/>
          <note pos="408" vol="100" key="47" len="12" pan="0"/>
          <note pos="420" vol="100" key="47" len="24" pan="0"/>
          <note pos="444" vol="100" key="47" len="12" pan="0"/>
          <note pos="456" vol="100" key="47" len="24" pan="0"/>
          <note pos="480" vol="100" key="47" len="12" pan="0"/>
          <note pos="492" vol="100" key="47" len="24" pan="0"/>
          <note pos="516" vol="100" key="47" len="12" pan="0"/>
          <note pos="528" vol="100" key="45" len="24" pan="0"/>
          <note pos="552" vol="100" key="47" len="24" pan="0"/>
          <note pos="576" vol="100" key="47" len="24" pan="0"/>
          <note pos="600" vol="100" key="47" len="12" pan="0"/>
          <note pos="612" vol="100" key="47" len="24" pan="0"/>
          <note pos="636" vol="100" key="47" len="12" pan="0"/>
          <note pos="648" vol="100" key="47" len="24" pan="0"/>
          <note pos="672" vol="100" key="47" len="12" pan="0"/>
          <note pos="684" vol="100" key="47" len="24" pan="0"/>
          <note pos="708" vol="100" key="47" len="12" pan="0"/>
          <note pos="720" vol="100" key="45" len="24" pan="0"/>
          <note pos="744" vol="100" key="47" len="24" pan="0"/>
          <note pos="768" vol="100" key="47" len="24" pan="0"/>
          <note pos="792" vol="100" key="47" len="12" pan="0"/>
          <note pos="804" vol="100" key="47" len="24" pan="0"/>
          <note pos="828" vol="100" key="47" len="12" pan="0"/>
          <note pos="840" vol="100" key="47" len="24" pan="0"/>
          <note pos="864" vol="100" key="47" len="12" pan="0"/>
          <note pos="876" vol="100" key="47" len="24" pan="0"/>
          <note pos="900" vol="100" key="47" len="12" pan="0"/>
          <note pos="912" vol="100" key="45" len="24" pan="0"/>
          <note pos="936" vol="100" key="47" len="24" pan="0"/>
          <note pos="960" vol="100" key="47" len="24" pan="0"/>
          <note pos="984" vol="100" key="47" len="12" pan="0"/>
          <note pos="996" vol="100" key="47" len="24" pan="0"/>
          <note pos="1020" vol="100" key="47" len="12" pan="0"/>
          <note pos="1032" vol="100" key="47" len="24" pan="0"/>
          <note pos="1056" vol="100" key="47" len="12" pan="0"/>
          <note pos="1068" vol="100" key="47" len="24" pan="0"/>
          <note pos="1092" vol="100" key="47" len="12" pan="0"/>
          <note pos="1104" vol="100" key="45" len="24" pan="0"/>
          <note pos="1128" vol="100" key="47" len="24" pan="0"/>
          <note pos="1152" vol="100" key="47" len="24" pan="0"/>
          <note pos="1176" vol="100" key="47" len="12" pan="0"/>
          <note pos="1188" vol="100" key="47" len="24" pan="0"/>
          <note pos="1212" vol="100" key="47" len="12" pan="0"/>
          <note pos="1224" vol="100" key="47" len="24" pan="0"/>
          <note pos="1248" vol="100" key="47" len="12" pan="0"/>
          <note pos="1260" vol="100" key="47" len="24" pan="0"/>
          <note pos="1284" vol="100" key="47" len="12" pan="0"/>
          <note pos="1296" vol="100" key="45" len="24" pan="0"/>
          <note pos="1320" vol="100" key="47" len="24" pan="0"/>
          <note pos="1344" vol="100" key="47" len="24" pan="0"/>
          <note pos="1368" vol="100" key="47" len="12" pan="0"/>
          <note pos="1380" vol="100" key="47" len="24" pan="0"/>
          <note pos="1404" vol="100" key="47" len="12" pan="0"/>
          <note pos="1416" vol="100" key="47" len="24" pan="0"/>
          <note pos="1440" vol="100" key="47" len="12" pan="0"/>
          <note pos="1452" vol="100" key="47" len="24" pan="0"/>
          <note pos="1476" vol="100" key="47" len="12" pan="0"/>
          <note pos="1488" vol="100" key="45" len="24" pan="0"/>
          <note pos="1512" vol="100" key="47" len="24" pan="0"/>
        </pattern>
        <pattern name="Fuzzy Analog Bass" muted="0" steps="16" pos="6144" type="1">
          <note pos="0" vol="100" key="47" len="24" pan="0"/>
          <note pos="24" vol="100" key="47" len="12" pan="0"/>
          <note pos="36" vol="100" key="47" len="24" pan="0"/>
          <note pos="60" vol="100" key="47" len="12" pan="0"/>
          <note pos="72" vol="100" key="47" len="24" pan="0"/>
          <note pos="96" vol="100" key="47" len="12" pan="0"/>
          <note pos="108" vol="100" key="47" len="24" pan="0"/>
          <note pos="132" vol="100" key="47" len="12" pan="0"/>
          <note pos="144" vol="100" key="45" len="24" pan="0"/>
          <note pos="168" vol="100" key="47" len="24" pan="0"/>
          <note pos="192" vol="100" key="47" len="24" pan="0"/>
          <note pos="216" vol="100" key="47" len="12" pan="0"/>
          <note pos="228" vol="100" key="47" len="24" pan="0"/>
          <note pos="252" vol="100" key="47" len="12" pan="0"/>
          <note pos="264" vol="100" key="47" len="24" pan="0"/>
          <note pos="288" vol="100" key="47" len="12" pan="0"/>
          <note pos="300" vol="100" key="47" len="24" pan="0"/>
          <note pos="324" vol="100" key="47" len="12" pan="0"/>
          <note pos="336" vol="100" key="45" len="24" pan="0"/>
          <note pos="360" vol="100" key="47" len="24" pan="0"/>
          <note pos="384" vol="100" key="47" len="24" pan="0"/>
          <note pos="408" vol="100" key="47" len="12" pan="0"/>
          <note pos="420" vol="100" key="47" len="24" pan="0"/>
          <note pos="444" vol="100" key="47" len="12" pan="0"/>
          <note pos="456" vol="100" key="47" len="24" pan="0"/>
          <note pos="480" vol="100" key="47" len="12" pan="0"/>
          <note pos="492" vol="100" key="47" len="24" pan="0"/>
          <note pos="516" vol="100" key="47" len="12" pan="0"/>
          <note pos="528" vol="100" key="45" len="24" pan="0"/>
          <note pos="552" vol="100" key="47" len="24" pan="0"/>
          <note pos="576" vol="100" key="47" len="24" pan="0"/>
          <note pos="600" vol="100" key="47" len="12" pan="0"/>
          <note pos="612" vol="100" key="47" len="24" pan="0"/>
          <note pos="636" vol="100" key="47" len="12" pan="0"/>
          <note pos="648" vol="100" key="47" len="24" pan="0"/>
          <note pos="672" vol="100" key="47" len="12" pan="0"/>
          <note pos="684" vol="100" key="47" len="24" pan="0"/>
          <note pos="708" vol="100" key="47" len="12" pan="0"/>
          <note pos="720" vol="100" key="45" len="24" pan="0"/>
          <note pos="744" vol="100" key="47" len="24" pan="0"/>
          <note pos="768" vol="100" key="47" len="24" pan="0"/>
          <note pos="792" vol="100" key="47" len="12" pan="0"/>
          <note pos="804" vol="100" key="47" len="24" pan="0"/>
          <note pos="828" vol="100" key="47" len="12" pan="0"/>
          <note pos="840" vol="100" key="47" len="24" pan="0"/>
          <note pos="864" vol="100" key="47" len="12" pan="0"/>
          <note pos="876" vol="100" key="47" len="24" pan="0"/>
          <note pos="900" vol="100" key="47" len="12" pan="0"/>
          <note pos="912" vol="100" key="45" len="24" pan="0"/>
          <note pos="936" vol="100" key="47" len="24" pan="0"/>
          <note pos="960" vol="100" key="47" len="24" pan="0"/>
          <note pos="984" vol="100" key="47" len="12" pan="0"/>
          <note pos="996" vol="100" key="47" len="24" pan="0"/>
          <note pos="1020" vol="100" key="47" len="12" pan="0"/>
          <note pos="1032" vol="100" key="47" len="24" pan="0"/>
          <note pos="1056" vol="100" key="47" len="12" pan="0"/>
          <note pos="1068" vol="100" key="47" len="24" pan="0"/>
          <note pos="1092" vol="100" key="47" len="12" pan="0"/>
          <note pos="1104" vol="100" key="45" len="24" pan="0"/>
          <note pos="1128" vol="100" key="47" len="24" pan="0"/>
          <note pos="1152" vol="100" key="47" len="24" pan="0"/>
          <note pos="1176" vol="100" key="47" len="12" pan="0"/>
          <note pos="1188" vol="100" key="47" len="24" pan="0"/>
          <note pos="1212" vol="100" key="47" len="12" pan="0"/>
          <note pos="1224" vol="100" key="47" len="24" pan="0"/>
          <note pos="1248" vol="100" key="47" len="12" pan="0"/>
          <note pos="1260" vol="100" key="47" len="24" pan="0"/>
          <note pos="1284" vol="100" key="47" len="12" pan="0"/>
          <note pos="1296" vol="100" key="45" len="24" pan="0"/>
          <note pos="1320" vol="100" key="47" len="24" pan="0"/>
          <note pos="1344" vol="100" key="47" len="24" pan="0"/>
          <note pos="1368" vol="100" key="47" len="12" pan="0"/>
          <note pos="1380" vol="100" key="47" len="24" pan="0"/>
          <note pos="1404" vol="100" key="47" len="12" pan="0"/>
          <note pos="1416" vol="100" key="47" len="24" pan="0"/>
          <note pos="1440" vol="100" key="47" len="12" pan="0"/>
          <note pos="1452" vol="100" key="47" len="24" pan="0"/>
          <note pos="1476" vol="100" key="47" len="12" pan="0"/>
          <note pos="1488" vol="100" key="45" len="24" pan="0"/>
          <note pos="1512" vol="100" key="47" len="24" pan="0"/>
        </pattern>
        <pattern name="Fuzzy Analog Bass" muted="0" steps="16" pos="7680" type="1">
          <note pos="0" vol="100" key="47" len="24" pan="0"/>
          <note pos="24" vol="100" key="47" len="12" pan="0"/>
          <note pos="36" vol="100" key="47" len="24" pan="0"/>
          <note pos="60" vol="100" key="47" len="12" pan="0"/>
          <note pos="72" vol="100" key="47" len="24" pan="0"/>
          <note pos="96" vol="100" key="47" len="12" pan="0"/>
          <note pos="108" vol="100" key="47" len="24" pan="0"/>
          <note pos="132" vol="100" key="47" len="12" pan="0"/>
          <note pos="144" vol="100" key="45" len="24" pan="0"/>
          <note pos="168" vol="100" key="47" len="24" pan="0"/>
          <note pos="192" vol="100" key="47" len="24" pan="0"/>
          <note pos="216" vol="100" key="47" len="12" pan="0"/>
          <note pos="228" vol="100" key="47" len="24" pan="0"/>
          <note pos="252" vol="100" key="47" len="12" pan="0"/>
          <note pos="264" vol="100" key="47" len="24" pan="0"/>
          <note pos="288" vol="100" key="47" len="12" pan="0"/>
          <note pos="300" vol="100" key="47" len="24" pan="0"/>
          <note pos="324" vol="100" key="47" len="12" pan="0"/>
          <note pos="336" vol="100" key="45" len="24" pan="0"/>
          <note pos="360" vol="100" key="47" len="24" pan="0"/>
          <note pos="384" vol="100" key="47" len="24" pan="0"/>
          <note pos="408" vol="100" key="47" len="12" pan="0"/>
          <note pos="420" vol="100" key="47" len="24" pan="0"/>
          <note pos="444" vol="100" key="47" len="12" pan="0"/>
          <note pos="456" vol="100" key="47" len="24" pan="0"/>
          <note pos="480" vol="100" key="47" len="12" pan="0"/>
          <note pos="492" vol="100" key="47" len="24" pan="0"/>
          <note pos="516" vol="100" key="47" len="12" pan="0"/>
          <note pos="528" vol="100" key="45" len="24" pan="0"/>
          <note pos="552" vol="100" key="47" len="24" pan="0"/>
          <note pos="576" vol="100" key="47" len="24" pan="0"/>
          <note pos="600" vol="100" key="47" len="12" pan="0"/>
          <note pos="612" vol="100" key="47" len="24" pan="0"/>
          <note pos="636" vol="100" key="47" len="12" pan="0"/>
          <note pos="648" vol="100" key="47" len="24" pan="0"/>
          <note pos="672" vol="100" key="47" len="12" pan="0"/>
          <note pos="684" vol="100" key="47" len="24" pan="0"/>
          <note pos="708" vol="100" key="47" len="12" pan="0"/>
          <note pos="720" vol="100" key="45" len="24" pan="0"/>
          <note pos="744" vol="100" key="47" len="24" pan="0"/>
          <note pos="768" vol="100" key="47" len="24" pan="0"/>
          <note pos="792" vol="100" key="47" len="12" pan="0"/>
          <note pos="804" vol="100" key="47" len="24" pan="0"/>
          <note pos="828" vol="100" key="47" len="12" pan="0"/>
          <note pos="840" vol="100" key="47" len="24" pan="0"/>
          <note pos="864" vol="100" key="47" len="12" pan="0"/>
          <note pos="876" vol="100" key="47" len="24" pan="0"/>
          <note pos="900" vol="100" key="47" len="12" pan="0"/>
          <note pos="912" vol="100" key="45" len="24" pan="0"/>
          <note pos="936" vol="100" key="47" len="24" pan="0"/>
          <note pos="960" vol="100" key="47" len="24" pan="0"/>
          <note pos="984" vol="100" key="47" len="12" pan="0"/>
          <note pos="996" vol="100" key="47" len="24" pan="0"/>
          <note pos="1020" vol="100" key="47" len="12" pan="0"/>
          <note pos="1032" vol="100" key="47" len="24" pan="0"/>
          <note pos="1056" vol="100" key="47" len="12" pan="0"/>
          <note pos="1068" vol="100" key="47" len="24" pan="0"/>
          <note pos="1092" vol="100" key="47" len="12" pan="0"/>
          <note pos="1104" vol="100" key="45" len="24" pan="0"/>
          <note pos="1128" vol="100" key="47" len="24" pan="0"/>
          <note pos="1152" vol="100" key="47" len="24" pan="0"/>
          <note pos="1176" vol="100" key="47" len="12" pan="0"/>
          <note pos="1188" vol="100" key="47" len="24" pan="0"/>
          <note pos="1212" vol="100" key="47" len="12" pan="0"/>
          <note pos="1224" vol="100" key="47" len="24" pan="0"/>
          <note pos="1248" vol="100" key="47" len="12" pan="0"/>
          <note pos="1260" vol="100" key="47" len="24" pan="0"/>
          <note pos="1284" vol="100" key="47" len="12" pan="0"/>
          <note pos="1296" vol="100" key="45" len="24" pan="0"/>
          <note pos="1320" vol="100" key="47" len="24" pan="0"/>
          <note pos="1344" vol="100" key="47" len="24" pan="0"/>
          <note pos="1368" vol="100" key="47" len="12" pan="0"/>
          <note pos="1380" vol="100" key="47" len="24" pan="0"/>
          <note pos="1404" vol="100" key="47" len="12" pan="0"/>
          <note pos="1416" vol="100" key="47" len="24" pan="0"/>
          <note pos="1440" vol="100" key="47" len="12" pan="0"/>
          <note pos="1452" vol="100" key="47" len="24" pan="0"/>
          <note pos="1476" vol="100" key="47" len="12" pan="0"/>
          <note pos="1488" vol="100" key="45" len="24" pan="0"/>
          <note pos="1512" vol="100" key="47" len="24" pan="0"/>
        </pattern>
        <pattern name="Fuzzy Analog Bass" muted="0" steps="16" pos="9216" type="1">
          <note pos="0" vol="100" key="47" len="24" pan="0"/>
          <note pos="24" vol="100" key="47" len="12" pan="0"/>
          <note pos="36" vol="100" key="47" len="24" pan="0"/>
          <note pos="60" vol="100" key="47" len="12" pan="0"/>
          <note pos="72" vol="100" key="47" len="24" pan="0"/>
          <note pos="96" vol="100" key="47" len="12" pan="0"/>
          <note pos="108" vol="100" key="47" len="24" pan="0"/>
          <note pos="132" vol="100" key="47" len="12" pan="0"/>
          <note pos="144" vol="100" key="45" len="24" pan="0"/>
          <note pos="168" vol="100" key="47" len="24" pan="0"/>
          <note pos="192" vol="100" key="47" len="24" pan="0"/>
          <note pos="216" vol="100" key="47" len="12" pan="0"/>
          <note pos="228" vol="100" key="47" len="24" pan="0"/>
          <note pos="252" vol="100" key="47" len="12" pan="0"/>
          <note pos="264" vol="100" key="47" len="24" pan="0"/>
          <note pos="288" vol="100" key="47" len="12" pan="0"/>
          <note pos="300" vol="100" key="47" len="24" pan="0"/>
          <note pos="324" vol="100" key="47" len="12" pan="0"/>
          <note pos="336" vol="100" key="45" len="24" pan="0"/>
          <note pos="360" vol="100" key="47" len="24" pan="0"/>
          <note pos="384" vol="100" key="47" len="24" pan="0"/>
          <note pos="408" vol="100" key="47" len="12" pan="0"/>
          <note pos="420" vol="100" key="47" len="24" pan="0"/>
          <note pos="444" vol="100" key="47" len="12" pan="0"/>
          <note pos="456" vol="100" key="47" len="24" pan="0"/>
          <note pos="480" vol="100" key="47" len="12" pan="0"/>
          <note pos="492" vol="100" key="47" len="24" pan="0"/>
          <note pos="516" vol="100" key="47" len="12" pan="0"/>
          <note pos="528" vol="100" key="45" len="24" pan="0"/>
          <note pos="552" vol="100" key="47" len="24" pan="0"/>
          <note pos="576" vol="100" key="47" len="24" pan="0"/>
          <note pos="600" vol="100" key="47" len="12" pan="0"/>
          <note pos="612" vol="100" key="47" len="24" pan="0"/>
          <note pos="636" vol="100" key="47" len="12" pan="0"/>
          <note pos="648" vol="100" key="47" len="24" pan="0"/>
          <note pos="672" vol="100" key="47" len="12" pan="0"/>
          <note pos="684" vol="100" key="47" len="24" pan="0"/>
          <note pos="708" vol="100" key="47" len="12" pan="0"/>
          <note pos="720" vol="100" key="45" len="24" pan="0"/>
          <note pos="744" vol="100" key="47" len="24" pan="0"/>
          <note pos="768" vol="100" key="47" len="24" pan="0"/>
          <note pos="792" vol="100" key="47" len="12" pan="0"/>
          <note pos="804" vol="100" key="47" len="24" pan="0"/>
          <note pos="828" vol="100" key="47" len="12" pan="0"/>
          <note pos="840" vol="100" key="47" len="24" pan="0"/>
          <note pos="864" vol="100" key="47" len="12" pan="0"/>
          <note pos="876" vol="100" key="47" len="24" pan="0"/>
          <note pos="900" vol="100" key="47" len="12" pan="0"/>
          <note pos="912" vol="100" key="45" len="24" pan="0"/>
          <note pos="936" vol="100" key="47" len="24" pan="0"/>
          <note pos="960" vol="100" key="47" len="24" pan="0"/>
          <note pos="984" vol="100" key="47" len="12" pan="0"/>
          <note pos="996" vol="100" key="47" len="24" pan="0"/>
          <note pos="1020" vol="100" key="47" len="12" pan="0"/>
          <note pos="1032" vol="100" key="47" len="24" pan="0"/>
          <note pos="1056" vol="100" key="47" len="12" pan="0"/>
          <note pos="1068" vol="100" key="47" len="24" pan="0"/>
          <note pos="1092" vol="100" key="47" len="12" pan="0"/>
          <note pos="1104" vol="100" key="45" len="24" pan="0"/>
          <note pos="1128" vol="100" key="47" len="24" pan="0"/>
          <note pos="1152" vol="100" key="47" len="24" pan="0"/>
          <note pos="1176" vol="100" key="47" len="12" pan="0"/>
          <note pos="1188" vol="100" key="47" len="24" pan="0"/>
          <note pos="1212" vol="100" key="47" len="12" pan="0"/>
          <note pos="1224" vol="100" key="47" len="24" pan="0"/>
          <note pos="1248" vol="100" key="47" len="12" pan="0"/>
          <note pos="1260" vol="100" key="47" len="24" pan="0"/>
          <note pos="1284" vol="100" key="47" len="12" pan="0"/>
          <note pos="1296" vol="100" key="45" len="24" pan="0"/>
          <note pos="1320" vol="100" key="47" len="24" pan="0"/>
          <note pos="1344" vol="100" key="47" len="24" pan="0"/>
          <note pos="1368" vol="100" key="47" len="12" pan="0"/>
          <note pos="1380" vol="100" key="47" len="24" pan="0"/>
          <note pos="1404" vol="100" key="47" len="12" pan="0"/>
          <note pos="1416" vol="100" key="47" len="24" pan="0"/>
          <note pos="1440" vol="100" key="47" len="12" pan="0"/>
          <note pos="1452" vol="100" key="47" len="24" pan="0"/>
          <note pos="1476" vol="100" key="47" len="12" pan="0"/>
          <note pos="1488" vol="100" key="45" len="24" pan="0"/>
          <note pos="1512" vol="100" key="47" len="24" pan="0"/>
        </pattern>
        <pattern name="Fuzzy Analog Bass" muted="0" steps="16" pos="10752" type="1">
          <note pos="0" vol="100" key="47" len="24" pan="0"/>
          <note pos="24" vol="100" key="47" len="12" pan="0"/>
          <note pos="36" vol="100" key="47" len="24" pan="0"/>
          <note pos="60" vol="100" key="47" len="12" pan="0"/>
          <note pos="72" vol="100" key="47" len="24" pan="0"/>
          <note pos="96" vol="100" key="47" len="12" pan="0"/>
          <note pos="108" vol="100" key="47" len="24" pan="0"/>
          <note pos="132" vol="100" key="47" len="12" pan="0"/>
          <note pos="144" vol="100" key="45" len="24" pan="0"/>
          <note pos="168" vol="100" key="47" len="24" pan="0"/>
          <note pos="192" vol="100" key="47" len="24" pan="0"/>
          <note pos="216" vol="100" key="47" len="12" pan="0"/>
          <note pos="228" vol="100" key="47" len="24" pan="0"/>
          <note pos="252" vol="100" key="47" len="12" pan="0"/>
          <note pos="264" vol="100" key="47" len="24" pan="0"/>
          <note pos="288" vol="100" key="47" len="12" pan="0"/>
          <note pos="300" vol="100" key="47" len="24" pan="0"/>
          <note pos="324" vol="100" key="47" len="12" pan="0"/>
          <note pos="336" vol="100" key="45" len="24" pan="0"/>
          <note pos="360" vol="100" key="47" len="24" pan="0"/>
          <note pos="384" vol="100" key="47" len="24" pan="0"/>
          <note pos="408" vol="100" key="47" len="12" pan="0"/>
          <note pos="420" vol="100" key="47" len="24" pan="0"/>
          <note pos="444" vol="100" key="47" len="12" pan="0"/>
          <note pos="456" vol="100" key="47" len="24" pan="0"/>
          <note pos="480" vol="100" key="47" len="12" pan="0"/>
          <note pos="492" vol="100" key="47" len="24" pan="0"/>
          <note pos="516" vol="100" key="47" len="12" pan="0"/>
          <note pos="528" vol="100" key="45" len="24" pan="0"/>
          <note pos="552" vol="100" key="47" len="24" pan="0"/>
          <note pos="576" vol="100" key="47" len="24" pan="0"/>
          <note pos="600" vol="100" key="47" len="12" pan="0"/>
          <note pos="612" vol="100" key="47" len="24" pan="0"/>
          <note pos="636" vol="100" key="47" len="12" pan="0"/>
          <note pos="648" vol="100" key="47" len="24" pan="0"/>
          <note pos="672" vol="100" key="47" len="12" pan="0"/>
          <note pos="684" vol="100" key="47" len="24" pan="0"/>
          <note pos="708" vol="100" key="47" len="12" pan="0"/>
          <note pos="720" vol="100" key="45" len="24" pan="0"/>
          <note pos="744" vol="100" key="47" len="24" pan="0"/>
          <note pos="768" vol="100" key="47" len="24" pan="0"/>
          <note pos="792" vol="100" key="47" len="12" pan="0"/>
          <note pos="804" vol="100" key="47" len="24" pan="0"/>
          <note pos="828" vol="100" key="47" len="12" pan="0"/>
          <note pos="840" vol="100" key="47" len="24" pan="0"/>
          <note pos="864" vol="100" key="47" len="12" pan="0"/>
          <note pos="876" vol="100" key="47" len="24" pan="0"/>
          <note pos="900" vol="100" key="47" len="12" pan="0"/>
          <note pos="912" vol="100" key="45" len="24" pan="0"/>
          <note pos="936" vol="100" key="47" len="24" pan="0"/>
          <note pos="960" vol="100" key="47" len="24" pan="0"/>
          <note pos="984" vol="100" key="47" len="12" pan="0"/>
          <note pos="996" vol="100" key="47" len="24" pan="0"/>
          <note pos="1020" vol="100" key="47" len="12" pan="0"/>
          <note pos="1032" vol="100" key="47" len="24" pan="0"/>
          <note pos="1056" vol="100" key="47" len="12" pan="0"/>
          <note pos="1068" vol="100" key="47" len="24" pan="0"/>
          <note pos="1092" vol="100" key="47" len="12" pan="0"/>
          <note pos="1104" vol="100" key="45" len="24" pan="0"/>
          <note pos="1128" vol="100" key="47" len="24" pan="0"/>
          <note pos="1152" vol="100" key="47" len="24" pan="0"/>
          <note pos="1176" vol="100" key="47" len="12" pan="0"/>
          <note pos="1188" vol="100" key="47" len="24" pan="0"/>
          <note pos="1212" vol="100" key="47" len="12" pan="0"/>
          <note pos="1224" vol="100" key="47" len="24" pan="0"/>
          <note pos="1248" vol="100" key="47" len="12" pan="0"/>
          <note pos="1260" vol="100" key="47" len="24" pan="0"/>
          <note pos="1284" vol="100" key="47" len="12" pan="0"/>
          <note pos="1296" vol="100" key="45" len="24" pan="0"/>
          <note pos="1320" vol="100" key="47" len="24" pan="0"/>
          <note pos="1344" vol="100" key="47" len="24" pan="0"/>
          <note pos="1368" vol="100" key="47" len="12" pan="0"/>
          <note pos="1380" vol="100" key="47" len="24" pan="0"/>
          <note pos="1404" vol="100" key="47" len="12" pan="0"/>
          <note pos="1416" vol="100" key="47" len="24" pan="0"/>
          <note pos="1440" vol="100" key="47" len="12" pan="0"/>
          <note pos="1452" vol="100" key="47" len="24" pan="0"/>
          <note pos="1476" vol="100" key="47" len="12" pan="0"/>
          <note pos="1488" vol="100" key="45" len="24" pan="0"/>
          <note pos="1512" vol="100" key="47" len="24" pan="0"/>
        </pattern>
      </track>
      <track name="TINTN" muted="0" type="0" solo="0">
        <instrumenttrack fxch="3" vol="65" basenote="69" usemasterpitch="1" pitchrange="1" pan="0" pitch="0">
          <instrument name="tripleoscillator">
            <tripleoscillator wavetype0="4" stphdetun0="0" coarse2="0" pan2="0" userwavefile1="" modalgo3="2" vol0="33" coarse1="0" pan1="0" phoffset0="0" pan0="0" userwavefile2="" wavetype1="2" finer1="12" modalgo1="2" phoffset2="0" finer2="-5" userwavefile0="" phoffset1="0" finer0="0" vol1="33" stphdetun1="0" modalgo2="2" finel1="-5" coarse0="0" finel2="4" wavetype2="1" vol2="33" stphdetun2="0" finel0="0"/>
          </instrument>
          <eldata fwet="1" fcut="1" fres="0.5" ftype="4">
            <elvol ctlenvamt="0" att="0" lspd_denominator="4" x100="0" lspd="0.1" dec="1" rel="0.1" lspd_numerator="4" hold="0" lpdel="0" amt="1" lshp="0" pdel="0" latt="0" sustain="0.69999999" userwavefile="" lamt="0" lspd_syncmode="0"/>
            <elcut ctlenvamt="0" att="0.44" lspd_denominator="4" x100="0" lspd="0.1" dec="0.88" rel="0.1" lspd_numerator="4" hold="0" lpdel="0" amt="0.88" lshp="0" pdel="0" latt="0" sustain="0" userwavefile="" lamt="0" lspd_syncmode="0"/>
            <elres ctlenvamt="0" att="0" lspd_denominator="4" x100="0" lspd="0.1" dec="0.5" rel="0.1" lspd_numerator="4" hold="0.5" lpdel="0" amt="0" lshp="0" pdel="0" latt="0" sustain="0.5" userwavefile="" lamt="0" lspd_syncmode="0"/>
          </eldata>
          <chordcreator chord-enabled="0" chord="0" chordrange="1"/>
          <arpeggiator arpskip="0" arptime="100" arpdir="0" arpmode="0" arp-enabled="0" arpmiss="0" arpcycle="0" arptime_syncmode="0" arpgate="100" arptime_numerator="4" arp="0" arprange="1" arptime_denominator="4"/>
          <midiport inputcontroller="0" fixedoutputnote="-1" outputcontroller="0" inputchannel="0" fixedinputvelocity="127" writable="0" outputchannel="1" fixedoutputvelocity="-1" readable="0" outputprogram="1" basevelocity="127"/>
          <fxchain numofeffects="2" enabled="1">
            <effect name="ladspaeffect" on="1" autoquit_numerator="4" gate="0" autoquit="8000" wet="1" autoquit_syncmode="0" autoquit_denominator="4">
              <ladspacontrols ports="4">
                <port02 data="0.91944999"/>
                <port03 data="0.47936001"/>
                <port04 data="0.46976501"/>
                <port05 data="0.25"/>
              </ladspacontrols>
              <key>
                <attribute name="file" value="caps"/>
                <attribute name="plugin" value="Plate2x2"/>
              </key>
            </effect>
            <effect name="ladspaeffect" on="1" autoquit_numerator="4" gate="0" autoquit="8000" wet="1" autoquit_syncmode="0" autoquit_denominator="4">
              <ladspacontrols ports="10">
                <port02 data="-45.18"/>
                <port03 data="-48"/>
                <port04 data="-45.18"/>
                <port05 data="-48"/>
                <port06 data="0"/>
                <port07 data="0"/>
                <port08 data="0"/>
                <port09 data="0"/>
                <port010 data="0"/>
                <port011 data="0"/>
              </ladspacontrols>
              <key>
                <attribute name="file" value="caps"/>
                <attribute name="plugin" value="Eq2x2"/>
              </key>
            </effect>
          </fxchain>
        </instrumenttrack>
        <pattern name="TINTN" muted="0" steps="16" pos="9216" type="1">
          <note pos="0" vol="100" key="59" len="24" pan="0"/>
          <note pos="24" vol="100" key="59" len="12" pan="0"/>
          <note pos="36" vol="100" key="59" len="24" pan="0"/>
          <note pos="60" vol="100" key="59" len="12" pan="0"/>
          <note pos="72" vol="100" key="59" len="24" pan="0"/>
          <note pos="96" vol="100" key="59" len="12" pan="0"/>
          <note pos="108" vol="100" key="59" len="24" pan="0"/>
          <note pos="132" vol="100" key="59" len="12" pan="0"/>
          <note pos="144" vol="100" key="57" len="24" pan="0"/>
          <note pos="168" vol="100" key="59" len="24" pan="0"/>
          <note pos="192" vol="100" key="59" len="24" pan="0"/>
          <note pos="216" vol="100" key="59" len="12" pan="0"/>
          <note pos="228" vol="100" key="59" len="24" pan="0"/>
          <note pos="252" vol="100" key="59" len="12" pan="0"/>
          <note pos="264" vol="100" key="59" len="24" pan="0"/>
          <note pos="288" vol="100" key="59" len="12" pan="0"/>
          <note pos="300" vol="100" key="59" len="24" pan="0"/>
          <note pos="324" vol="100" key="59" len="12" pan="0"/>
          <note pos="336" vol="100" key="57" len="24" pan="0"/>
          <note pos="360" vol="100" key="59" len="24" pan="0"/>
          <note pos="384" vol="100" key="59" len="24" pan="0"/>
          <note pos="408" vol="100" key="59" len="12" pan="0"/>
          <note pos="420" vol="100" key="59" len="24" pan="0"/>
          <note pos="444" vol="100" key="59" len="12" pan="0"/>
          <note pos="456" vol="100" key="59" len="24" pan="0"/>
          <note pos="480" vol="100" key="59" len="12" pan="0"/>
          <note pos="492" vol="100" key="59" len="24" pan="0"/>
          <note pos="516" vol="100" key="59" len="12" pan="0"/>
          <note pos="528" vol="100" key="57" len="24" pan="0"/>
          <note pos="552" vol="100" key="59" len="24" pan="0"/>
          <note pos="576" vol="100" key="59" len="24" pan="0"/>
          <note pos="600" vol="100" key="59" len="12" pan="0"/>
          <note pos="612" vol="100" key="59" len="24" pan="0"/>
          <note pos="636" vol="100" key="59" len="12" pan="0"/>
          <note pos="648" vol="100" key="59" len="24" pan="0"/>
          <note pos="672" vol="100" key="59" len="12" pan="0"/>
          <note pos="684" vol="100" key="59" len="24" pan="0"/>
          <note pos="708" vol="100" key="59" len="12" pan="0"/>
          <note pos="720" vol="100" key="57" len="24" pan="0"/>
          <note pos="744" vol="100" key="59" len="24" pan="0"/>
          <note pos="768" vol="100" key="59" len="24" pan="0"/>
          <note pos="792" vol="100" key="59" len="12" pan="0"/>
          <note pos="804" vol="100" key="59" len="24" pan="0"/>
          <note pos="828" vol="100" key="59" len="12" pan="0"/>
          <note pos="840" vol="100" key="59" len="24" pan="0"/>
          <note pos="864" vol="100" key="59" len="12" pan="0"/>
          <note pos="876" vol="100" key="59" len="24" pan="0"/>
          <note pos="900" vol="100" key="59" len="12" pan="0"/>
          <note pos="912" vol="100" key="57" len="24" pan="0"/>
          <note pos="936" vol="100" key="59" len="24" pan="0"/>
          <note pos="960" vol="100" key="59" len="24" pan="0"/>
          <note pos="984" vol="100" key="59" len="12" pan="0"/>
          <note pos="996" vol="100" key="59" len="24" pan="0"/>
          <note pos="1020" vol="100" key="59" len="12" pan="0"/>
          <note pos="1032" vol="100" key="59" len="24" pan="0"/>
          <note pos="1056" vol="100" key="59" len="12" pan="0"/>
          <note pos="1068" vol="100" key="59" len="24" pan="0"/>
          <note pos="1092" vol="100" key="59" len="12" pan="0"/>
          <note pos="1104" vol="100" key="57" len="24" pan="0"/>
          <note pos="1128" vol="100" key="59" len="24" pan="0"/>
          <note pos="1152" vol="100" key="59" len="24" pan="0"/>
          <note pos="1176" vol="100" key="59" len="12" pan="0"/>
          <note pos="1188" vol="100" key="59" len="24" pan="0"/>
          <note pos="1212" vol="100" key="59" len="12" pan="0"/>
          <note pos="1224" vol="100" key="59" len="24" pan="0"/>
          <note pos="1248" vol="100" key="59" len="12" pan="0"/>
          <note pos="1260" vol="100" key="59" len="24" pan="0"/>
          <note pos="1284" vol="100" key="59" len="12" pan="0"/>
          <note pos="1296" vol="100" key="57" len="24" pan="0"/>
          <note pos="1320" vol="100" key="59" len="24" pan="0"/>
          <note pos="1344" vol="100" key="59" len="24" pan="0"/>
          <note pos="1368" vol="100" key="59" len="12" pan="0"/>
          <note pos="1380" vol="100" key="59" len="24" pan="0"/>
          <note pos="1404" vol="100" key="59" len="12" pan="0"/>
          <note pos="1416" vol="100" key="59" len="24" pan="0"/>
          <note pos="1440" vol="100" key="59" len="12" pan="0"/>
          <note pos="1452" vol="100" key="59" len="24" pan="0"/>
          <note pos="1476" vol="100" key="59" len="12" pan="0"/>
          <note pos="1488" vol="100" key="57" len="24" pan="0"/>
          <note pos="1512" vol="100" key="59" len="24" pan="0"/>
        </pattern>
      </track>
      <track name="12-bit_heavy_hitter.ds" muted="0" type="0" solo="0">
        <instrumenttrack fxch="4" vol="64" basenote="57" usemasterpitch="1" pitchrange="1" pan="-30" pitch="0">
          <instrument name="audiofileprocessor">
            <audiofileprocessor stutter="0" reversed="0" interp="1" src="drumsynth/misc/12-bit_heavy_hitter.ds" amp="100" looped="0" eframe="1" lframe="0" sframe="0"/>
          </instrument>
          <eldata fwet="0" fcut="14000" fres="0.5" ftype="0">
            <elvol ctlenvamt="0" att="0" lspd_denominator="4" x100="0" lspd="0.1" dec="0.5" rel="1.1880001" lspd_numerator="4" hold="0" lpdel="0" amt="1" lshp="0" pdel="0" latt="0" sustain="1" userwavefile="" lamt="0" lspd_syncmode="0"/>
            <elcut ctlenvamt="0" att="0" lspd_denominator="4" x100="0" lspd="0.1" dec="0.5" rel="0.1" lspd_numerator="4" hold="0.5" lpdel="0" amt="0" lshp="0" pdel="0" latt="0" sustain="0.5" userwavefile="" lamt="0" lspd_syncmode="0"/>
            <elres ctlenvamt="0" att="0" lspd_denominator="4" x100="0" lspd="0.1" dec="0.5" rel="0.1" lspd_numerator="4" hold="0.5" lpdel="0" amt="0" lshp="0" pdel="0" latt="0" sustain="0.5" userwavefile="" lamt="0" lspd_syncmode="0"/>
          </eldata>
          <chordcreator chord-enabled="0" chord="0" chordrange="1"/>
          <arpeggiator arpskip="0" arptime="200" arpdir="0" arpmode="0" arp-enabled="0" arpmiss="0" arpcycle="0" arptime_syncmode="0" arpgate="100" arptime_numerator="4" arp="0" arprange="1" arptime_denominator="4"/>
          <midiport inputcontroller="0" fixedoutputnote="-1" outputcontroller="0" inputchannel="0" fixedinputvelocity="-1" writable="0" outputchannel="1" fixedoutputvelocity="-1" readable="0" outputprogram="1" basevelocity="63"/>
          <fxchain numofeffects="4" enabled="1">
            <effect name="ladspaeffect" on="1" autoquit_numerator="4" gate="0" autoquit="1" wet="1" autoquit_syncmode="0" autoquit_denominator="4">
              <ladspacontrols ports="4">
                <port02 data="0.50200003"/>
                <port03 data="0.1"/>
                <port04 data="0.250375"/>
                <port05 data="0.25"/>
              </ladspacontrols>
              <key>
                <attribute name="file" value="caps"/>
                <attribute name="plugin" value="Plate2x2"/>
              </key>
            </effect>
            <effect name="multitapecho" on="1" autoquit_numerator="4" gate="0" autoquit="1" wet="1" autoquit_syncmode="0" autoquit_denominator="4">
              <multitapechocontrols ampsteps="AACQwfd1qMH1KMrBnAvgwd0w9sGrVQLCi/UJwt0fEMJmjh7CksQgwpqZKMLCeyvCZrstwhKlMcLcYzXCZmY2wg==" steps="16" steplength_syncmode="0" drygain="0" lpsteps="AisHQOLHAkAi5fc/GOXtPwyp3D9LQ84/LfW+P9ejtj9CYKc/U06eP6v7lz/T55E/u0mMP5VDiz/QIIc/XI+CPw==" stages="1" steplength_denominator="4" steplength="100" swapinputs="0" steplength_numerator="4"/>
              <key/>
            </effect>
            <effect name="bitcrush" on="1" autoquit_numerator="4" gate="0" autoquit="1" wet="1" autoquit_syncmode="0" autoquit_denominator="4">
              <bitcrushcontrols rate="44100" levels="256" depthon="1" innoise="0" outgain="0" stereodiff="0" outclip="-7.3000002" rateon="1" ingain="6.0999999"/>
              <key/>
            </effect>
            <effect name="eq" on="1" autoquit_numerator="4" gate="0" autoquit="1" wet="1" autoquit_syncmode="0" autoquit_denominator="4">
              <Eq LP="0" AnalyseOut="1" Lowshelfgain="0" Peak4gain="2.7" HighShelfres="1.4" Peak3active="1" Peak3bw="0.30000001" LP24="0" Outputgain="0" HighShelfgain="6.3000002" HP48="0" Peak4active="1" HP24="0" Lowshelfactive="0" HP12="1" Peak1bw="0.30000001" HPres="0.70700002" HP="0" LPres="0.70700002" Peak2gain="0" Peak2bw="0.30000001" HPactive="0" Highshelfactive="1" LowShelfres="1.4" AnalyseIn="1" Peak3gain="0.36000001" LPactive="0" LP48="0" Peak2active="0" Peak4bw="0.78600001" LP12="1" Peak1active="0">
                <Inputgain id="4899697" value="0" scale_type="log"/>
                <Peak1gain id="3314542" value="0" scale_type="log"/>
                <HPfreq id="3949899" value="31.000004" scale_type="log"/>
                <LowShelffreq id="2221655" value="80" scale_type="log"/>
                <Peak1freq id="1976121" value="119.99998" scale_type="log"/>
                <Peak2freq id="7630302" value="250.00009" scale_type="log"/>
                <Peak3freq id="6335443" value="1999.9996" scale_type="log"/>
                <Peak4freq id="6498727" value="4124.7119" scale_type="log"/>
                <Highshelffreq id="1834822" value="9679.3887" scale_type="log"/>
                <LPfreq id="4060518" value="17999.996" scale_type="log"/>
              </Eq>
              <key/>
            </effect>
          </fxchain>
        </instrumenttrack>
        <pattern name="12-bit_heavy_hitter.ds" muted="0" steps="16" pos="9216" type="1">
          <note pos="144" vol="74" key="57" len="48" pan="0"/>
        </pattern>
        <pattern name="12-bit_heavy_hitter.ds" muted="0" steps="16" pos="9600" type="1">
          <note pos="144" vol="74" key="57" len="48" pan="0"/>
        </pattern>
        <pattern name="12-bit_heavy_hitter.ds" muted="0" steps="16" pos="9984" type="1">
          <note pos="144" vol="74" key="57" len="48" pan="0"/>
        </pattern>
        <pattern name="12-bit_heavy_hitter.ds" muted="0" steps="16" pos="10368" type="1">
          <note pos="144" vol="74" key="57" len="48" pan="0"/>
        </pattern>
        <pattern name="12-bit_heavy_hitter.ds" muted="0" steps="16" pos="10752" type="1">
          <note pos="0" vol="74" key="57" len="48" pan="0"/>
        </pattern>
        <pattern name="12-bit_heavy_hitter.ds" muted="0" steps="16" pos="1536" type="1">
          <note pos="144" vol="74" key="57" len="48" pan="0"/>
        </pattern>
        <pattern name="12-bit_heavy_hitter.ds" muted="0" steps="16" pos="1920" type="1">
          <note pos="144" vol="74" key="57" len="48" pan="0"/>
        </pattern>
        <pattern name="12-bit_heavy_hitter.ds" muted="0" steps="16" pos="2304" type="1">
          <note pos="144" vol="74" key="57" len="48" pan="0"/>
        </pattern>
        <pattern name="12-bit_heavy_hitter.ds" muted="0" steps="16" pos="2688" type="1">
          <note pos="144" vol="74" key="57" len="48" pan="0"/>
        </pattern>
        <pattern name="12-bit_heavy_hitter.ds" muted="0" steps="16" pos="3072" type="1">
          <note pos="144" vol="74" key="57" len="48" pan="0"/>
        </pattern>
        <pattern name="12-bit_heavy_hitter.ds" muted="0" steps="16" pos="3456" type="1">
          <note pos="144" vol="74" key="57" len="48" pan="0"/>
        </pattern>
        <pattern name="12-bit_heavy_hitter.ds" muted="0" steps="16" pos="3840" type="1">
          <note pos="144" vol="74" key="57" len="48" pan="0"/>
        </pattern>
        <pattern name="12-bit_heavy_hitter.ds" muted="0" steps="16" pos="4224" type="1">
          <note pos="144" vol="74" key="57" len="48" pan="0"/>
        </pattern>
      </track>
      <track name="linn_tamb.ds" muted="0" type="0" solo="0">
        <instrumenttrack fxch="4" vol="130.40001" basenote="57" usemasterpitch="1" pitchrange="1" pan="30" pitch="0">
          <instrument name="audiofileprocessor">
            <audiofileprocessor stutter="0" reversed="0" interp="1" src="drumsynth/linn/linn_tamb.ds" amp="100" looped="0" eframe="1" lframe="0" sframe="0"/>
          </instrument>
          <eldata fwet="0" fcut="14000" fres="0.5" ftype="0">
            <elvol ctlenvamt="0" att="0" lspd_denominator="4" x100="0" lspd="0.1" dec="0.60000002" rel="0.1" lspd_numerator="4" hold="0" lpdel="0" amt="0" lshp="0" pdel="0" latt="0" sustain="0.54000002" userwavefile="" lamt="0" lspd_syncmode="0"/>
            <elcut ctlenvamt="0" att="0" lspd_denominator="4" x100="0" lspd="0.1" dec="0.5" rel="0.1" lspd_numerator="4" hold="0.5" lpdel="0" amt="0" lshp="0" pdel="0" latt="0" sustain="0.5" userwavefile="" lamt="0" lspd_syncmode="0"/>
            <elres ctlenvamt="0" att="0" lspd_denominator="4" x100="0" lspd="0.1" dec="0.5" rel="0.1" lspd_numerator="4" hold="0.5" lpdel="0" amt="0" lshp="0" pdel="0" latt="0" sustain="0.5" userwavefile="" lamt="0" lspd_syncmode="0"/>
          </eldata>
          <chordcreator chord-enabled="0" chord="0" chordrange="1"/>
          <arpeggiator arpskip="0" arptime="200" arpdir="0" arpmode="0" arp-enabled="0" arpmiss="0" arpcycle="0" arptime_syncmode="0" arpgate="100" arptime_numerator="4" arp="0" arprange="1" arptime_denominator="4"/>
          <midiport inputcontroller="0" fixedoutputnote="-1" outputcontroller="0" inputchannel="0" fixedinputvelocity="-1" writable="0" outputchannel="1" fixedoutputvelocity="-1" readable="0" outputprogram="1" basevelocity="63"/>
          <fxchain numofeffects="1" enabled="1">
            <effect name="ladspaeffect" on="1" autoquit_numerator="4" gate="0" autoquit="1" wet="1" autoquit_syncmode="0" autoquit_denominator="4">
              <ladspacontrols ports="4">
                <port02 data="0.50200003"/>
                <port03 data="0.37450001"/>
                <port04 data="0.250375"/>
                <port05 data="0.25"/>
              </ladspacontrols>
              <key>
                <attribute name="file" value="caps"/>
                <attribute name="plugin" value="Plate2x2"/>
              </key>
            </effect>
          </fxchain>
        </instrumenttrack>
        <pattern name="linn_tamb.ds" muted="0" steps="16" pos="1728" type="1">
          <note pos="144" vol="74" key="57" len="48" pan="0"/>
        </pattern>
        <pattern name="linn_tamb.ds" muted="0" steps="16" pos="2112" type="1">
          <note pos="144" vol="74" key="57" len="48" pan="0"/>
        </pattern>
        <pattern name="linn_tamb.ds" muted="0" steps="16" pos="2496" type="1">
          <note pos="144" vol="74" key="57" len="48" pan="0"/>
        </pattern>
        <pattern name="linn_tamb.ds" muted="0" steps="16" pos="2880" type="1">
          <note pos="144" vol="74" key="57" len="48" pan="0"/>
        </pattern>
        <pattern name="linn_tamb.ds" muted="0" steps="16" pos="3264" type="1">
          <note pos="144" vol="74" key="57" len="48" pan="0"/>
        </pattern>
        <pattern name="linn_tamb.ds" muted="0" steps="16" pos="3648" type="1">
          <note pos="144" vol="74" key="57" len="48" pan="0"/>
        </pattern>
        <pattern name="linn_tamb.ds" muted="0" steps="16" pos="4032" type="1">
          <note pos="144" vol="74" key="57" len="48" pan="0"/>
        </pattern>
        <pattern name="linn_tamb.ds" muted="0" steps="16" pos="4416" type="1">
          <note pos="144" vol="74" key="57" len="48" pan="0"/>
        </pattern>
        <pattern name="linn_tamb.ds" muted="0" steps="16" pos="9408" type="1">
          <note pos="144" vol="74" key="57" len="48" pan="0"/>
        </pattern>
        <pattern name="linn_tamb.ds" muted="0" steps="16" pos="9792" type="1">
          <note pos="144" vol="74" key="57" len="48" pan="0"/>
        </pattern>
        <pattern name="linn_tamb.ds" muted="0" steps="16" pos="10176" type="1">
          <note pos="144" vol="74" key="57" len="48" pan="0"/>
        </pattern>
        <pattern name="linn_tamb.ds" muted="0" steps="16" pos="10560" type="1">
          <note pos="144" vol="74" key="57" len="12" pan="0"/>
          <note pos="156" vol="34" key="57" len="12" pan="-100"/>
          <note pos="168" vol="25" key="57" len="12" pan="97"/>
          <note pos="180" vol="17" key="57" len="12" pan="-100"/>
        </pattern>
      </track>
      <track name="zipper.ds" muted="1" type="0" solo="0">
        <instrumenttrack fxch="4" vol="63.200001" basenote="57" usemasterpitch="1" pitchrange="1" pan="0" pitch="0">
          <instrument name="audiofileprocessor">
            <audiofileprocessor stutter="0" reversed="0" interp="1" src="drumsynth/misc_fx/zipper.ds" amp="100" looped="0" eframe="1" lframe="0" sframe="0"/>
          </instrument>
          <eldata fwet="0" fcut="14000" fres="0.5" ftype="0">
            <elvol ctlenvamt="0" att="0.12" lspd_denominator="4" x100="0" lspd="0.1" dec="0.5" rel="0.1" lspd_numerator="4" hold="0.5" lpdel="0" amt="1" lshp="0" pdel="0" latt="0" sustain="0.5" userwavefile="" lamt="0" lspd_syncmode="0"/>
            <elcut ctlenvamt="0" att="0" lspd_denominator="4" x100="0" lspd="0.1" dec="0.5" rel="0.1" lspd_numerator="4" hold="0.5" lpdel="0" amt="0" lshp="0" pdel="0" latt="0" sustain="0.5" userwavefile="" lamt="0" lspd_syncmode="0"/>
            <elres ctlenvamt="0" att="0" lspd_denominator="4" x100="0" lspd="0.1" dec="0.5" rel="0.1" lspd_numerator="4" hold="0.5" lpdel="0" amt="0" lshp="0" pdel="0" latt="0" sustain="0.5" userwavefile="" lamt="0" lspd_syncmode="0"/>
          </eldata>
          <chordcreator chord-enabled="0" chord="0" chordrange="1"/>
          <arpeggiator arpskip="0" arptime="200" arpdir="0" arpmode="0" arp-enabled="0" arpmiss="0" arpcycle="0" arptime_syncmode="0" arpgate="100" arptime_numerator="4" arp="0" arprange="1" arptime_denominator="4"/>
          <midiport inputcontroller="0" fixedoutputnote="-1" outputcontroller="0" inputchannel="0" fixedinputvelocity="-1" writable="0" outputchannel="1" fixedoutputvelocity="-1" readable="0" outputprogram="1" basevelocity="63"/>
          <fxchain numofeffects="0" enabled="0"/>
        </instrumenttrack>
        <pattern name="zipper.ds" muted="0" steps="16" pos="9024" type="1">
          <note pos="144" vol="85" key="57" len="96" pan="0"/>
        </pattern>
      </track>
      <track name="Tone1.ds" muted="0" type="0" solo="0">
        <instrumenttrack fxch="4" vol="40" basenote="57" usemasterpitch="1" pitchrange="1" pan="0" pitch="0">
          <instrument name="audiofileprocessor">
            <audiofileprocessor stutter="0" reversed="0" interp="1" src="drumsynth/magnetboy/Tone1.ds" amp="100" looped="0" eframe="1" lframe="0" sframe="0"/>
          </instrument>
          <eldata fwet="0" fcut="14000" fres="0.5" ftype="0">
            <elvol ctlenvamt="0" att="0" lspd_denominator="4" x100="0" lspd="0.1" dec="0.18000001" rel="0.1" lspd_numerator="4" hold="0" lpdel="0" amt="1" lshp="0" pdel="0" latt="0" sustain="0" userwavefile="" lamt="0" lspd_syncmode="0"/>
            <elcut ctlenvamt="0" att="0" lspd_denominator="4" x100="0" lspd="0.1" dec="0.5" rel="0.1" lspd_numerator="4" hold="0.5" lpdel="0" amt="0" lshp="0" pdel="0" latt="0" sustain="0.5" userwavefile="" lamt="0" lspd_syncmode="0"/>
            <elres ctlenvamt="0" att="0" lspd_denominator="4" x100="0" lspd="0.1" dec="0.5" rel="0.1" lspd_numerator="4" hold="0.5" lpdel="0" amt="0" lshp="0" pdel="0" latt="0" sustain="0.5" userwavefile="" lamt="0" lspd_syncmode="0"/>
          </eldata>
          <chordcreator chord-enabled="0" chord="0" chordrange="1"/>
          <arpeggiator arpskip="0" arptime="200" arpdir="0" arpmode="0" arp-enabled="0" arpmiss="0" arpcycle="0" arptime_syncmode="0" arpgate="100" arptime_numerator="4" arp="0" arprange="1" arptime_denominator="4"/>
          <midiport inputcontroller="0" fixedoutputnote="-1" outputcontroller="0" inputchannel="0" fixedinputvelocity="-1" writable="0" outputchannel="1" fixedoutputvelocity="-1" readable="0" outputprogram="1" basevelocity="63"/>
          <fxchain numofeffects="0" enabled="0"/>
        </instrumenttrack>
        <pattern name="" muted="0" steps="16" pos="10752" type="1">
          <note pos="0" vol="100" key="59" len="24" pan="0"/>
          <note pos="24" vol="100" key="59" len="12" pan="0"/>
          <note pos="36" vol="100" key="59" len="24" pan="0"/>
          <note pos="60" vol="100" key="59" len="12" pan="0"/>
          <note pos="72" vol="100" key="59" len="24" pan="0"/>
          <note pos="96" vol="100" key="59" len="12" pan="0"/>
          <note pos="108" vol="100" key="59" len="24" pan="0"/>
          <note pos="132" vol="100" key="59" len="12" pan="0"/>
          <note pos="144" vol="100" key="57" len="24" pan="0"/>
          <note pos="168" vol="100" key="59" len="24" pan="0"/>
          <note pos="192" vol="100" key="59" len="24" pan="0"/>
          <note pos="216" vol="100" key="59" len="12" pan="0"/>
          <note pos="228" vol="100" key="59" len="24" pan="0"/>
          <note pos="252" vol="100" key="59" len="12" pan="0"/>
          <note pos="264" vol="100" key="59" len="24" pan="0"/>
          <note pos="288" vol="100" key="59" len="12" pan="0"/>
          <note pos="300" vol="100" key="59" len="24" pan="0"/>
          <note pos="324" vol="100" key="59" len="12" pan="0"/>
          <note pos="336" vol="100" key="57" len="24" pan="0"/>
          <note pos="360" vol="100" key="59" len="24" pan="0"/>
          <note pos="384" vol="100" key="59" len="24" pan="0"/>
          <note pos="408" vol="100" key="59" len="12" pan="0"/>
          <note pos="420" vol="100" key="59" len="24" pan="0"/>
          <note pos="444" vol="100" key="59" len="12" pan="0"/>
          <note pos="456" vol="100" key="59" len="24" pan="0"/>
          <note pos="480" vol="100" key="59" len="12" pan="0"/>
          <note pos="492" vol="100" key="59" len="24" pan="0"/>
          <note pos="516" vol="100" key="59" len="12" pan="0"/>
          <note pos="528" vol="100" key="57" len="24" pan="0"/>
          <note pos="552" vol="100" key="59" len="24" pan="0"/>
          <note pos="576" vol="100" key="59" len="24" pan="0"/>
          <note pos="600" vol="100" key="59" len="12" pan="0"/>
          <note pos="612" vol="100" key="59" len="24" pan="0"/>
          <note pos="636" vol="100" key="59" len="12" pan="0"/>
          <note pos="648" vol="100" key="59" len="24" pan="0"/>
          <note pos="672" vol="100" key="59" len="12" pan="0"/>
          <note pos="684" vol="100" key="59" len="24" pan="0"/>
          <note pos="708" vol="100" key="59" len="12" pan="0"/>
          <note pos="720" vol="100" key="57" len="24" pan="0"/>
          <note pos="744" vol="100" key="59" len="24" pan="0"/>
          <note pos="768" vol="100" key="59" len="24" pan="0"/>
          <note pos="792" vol="100" key="59" len="12" pan="0"/>
          <note pos="804" vol="100" key="59" len="24" pan="0"/>
          <note pos="828" vol="100" key="59" len="12" pan="0"/>
          <note pos="840" vol="100" key="59" len="24" pan="0"/>
          <note pos="864" vol="100" key="59" len="12" pan="0"/>
          <note pos="876" vol="100" key="59" len="24" pan="0"/>
          <note pos="900" vol="100" key="59" len="12" pan="0"/>
          <note pos="912" vol="100" key="57" len="24" pan="0"/>
          <note pos="936" vol="100" key="59" len="24" pan="0"/>
          <note pos="960" vol="100" key="59" len="24" pan="0"/>
          <note pos="984" vol="100" key="59" len="12" pan="0"/>
          <note pos="996" vol="100" key="59" len="24" pan="0"/>
          <note pos="1020" vol="100" key="59" len="12" pan="0"/>
          <note pos="1032" vol="100" key="59" len="24" pan="0"/>
          <note pos="1056" vol="100" key="59" len="12" pan="0"/>
          <note pos="1068" vol="100" key="59" len="24" pan="0"/>
          <note pos="1092" vol="100" key="59" len="12" pan="0"/>
          <note pos="1104" vol="100" key="57" len="24" pan="0"/>
          <note pos="1128" vol="100" key="59" len="24" pan="0"/>
          <note pos="1152" vol="100" key="59" len="24" pan="0"/>
          <note pos="1176" vol="100" key="59" len="12" pan="0"/>
          <note pos="1188" vol="100" key="59" len="24" pan="0"/>
          <note pos="1212" vol="100" key="59" len="12" pan="0"/>
          <note pos="1224" vol="100" key="59" len="24" pan="0"/>
          <note pos="1248" vol="100" key="59" len="12" pan="0"/>
          <note pos="1260" vol="100" key="59" len="24" pan="0"/>
          <note pos="1284" vol="100" key="59" len="12" pan="0"/>
          <note pos="1296" vol="100" key="57" len="24" pan="0"/>
          <note pos="1320" vol="100" key="59" len="24" pan="0"/>
          <note pos="1344" vol="100" key="59" len="24" pan="0"/>
          <note pos="1368" vol="100" key="59" len="12" pan="0"/>
          <note pos="1380" vol="100" key="59" len="24" pan="0"/>
          <note pos="1404" vol="100" key="59" len="12" pan="0"/>
          <note pos="1416" vol="100" key="59" len="24" pan="0"/>
          <note pos="1440" vol="100" key="59" len="12" pan="0"/>
          <note pos="1452" vol="100" key="59" len="24" pan="0"/>
          <note pos="1476" vol="100" key="59" len="12" pan="0"/>
          <note pos="1488" vol="100" key="57" len="24" pan="0"/>
          <note pos="1512" vol="100" key="59" len="24" pan="0"/>
        </pattern>
      </track>
      <track name="Hi-Hat" muted="0" type="1" solo="0">
        <bbtrack>
          <trackcontainer y="662" height="218" x="1070" visible="0" type="bbtrackcontainer" width="700" maximized="0" minimized="0">
            <track name="Hihat.ds" muted="0" type="0" solo="0">
              <instrumenttrack fxch="0" vol="70" basenote="57" usemasterpitch="1" pitchrange="1" pitch="0">
                <pan id="4197735" value="-62.416664" scale_type="linear"/>
                <instrument name="audiofileprocessor">
                  <audiofileprocessor stutter="0" reversed="0" interp="1" src="drumsynth/cr78/Hihat.ds" amp="100" looped="0" eframe="1" lframe="0" sframe="0"/>
                </instrument>
                <eldata fwet="0" fcut="14000" fres="0.5" ftype="0">
                  <elvol ctlenvamt="0" att="0" lspd_denominator="4" x100="0" lspd="0.1" dec="0.5" rel="0.1" lspd_numerator="4" hold="0.5" lpdel="0" amt="0" lshp="0" pdel="0" latt="0" sustain="0.5" userwavefile="" lamt="0" lspd_syncmode="0"/>
                  <elcut ctlenvamt="0" att="0" lspd_denominator="4" x100="0" lspd="0.1" dec="0.5" rel="0.1" lspd_numerator="4" hold="0.5" lpdel="0" amt="0" lshp="0" pdel="0" latt="0" sustain="0.5" userwavefile="" lamt="0" lspd_syncmode="0"/>
                  <elres ctlenvamt="0" att="0" lspd_denominator="4" x100="0" lspd="0.1" dec="0.5" rel="0.1" lspd_numerator="4" hold="0.5" lpdel="0" amt="0" lshp="0" pdel="0" latt="0" sustain="0.5" userwavefile="" lamt="0" lspd_syncmode="0"/>
                </eldata>
                <chordcreator chord-enabled="0" chord="0" chordrange="1"/>
                <arpeggiator arpskip="0" arptime="200" arpdir="0" arpmode="0" arp-enabled="0" arpmiss="0" arpcycle="0" arptime_syncmode="0" arpgate="100" arptime_numerator="4" arp="0" arprange="1" arptime_denominator="4"/>
                <midiport inputcontroller="0" fixedoutputnote="-1" outputcontroller="0" inputchannel="0" fixedinputvelocity="-1" writable="0" outputchannel="1" fixedoutputvelocity="-1" readable="0" outputprogram="1" basevelocity="63"/>
                <fxchain numofeffects="0" enabled="0"/>
              </instrumenttrack>
              <pattern name="Hihat.ds" muted="0" steps="16" pos="0" type="1">
                <note pos="0" vol="74" key="59" len="12" pan="0"/>
                <note pos="12" vol="68" key="59" len="12" pan="0"/>
                <note pos="24" vol="68" key="59" len="12" pan="0"/>
                <note pos="36" vol="61" key="59" len="12" pan="0"/>
                <note pos="48" vol="61" key="59" len="12" pan="0"/>
                <note pos="60" vol="74" key="59" len="12" pan="0"/>
                <note pos="72" vol="63" key="59" len="12" pan="0"/>
                <note pos="84" vol="68" key="59" len="12" pan="0"/>
                <note pos="96" vol="74" key="59" len="12" pan="0"/>
                <note pos="108" vol="80" key="59" len="12" pan="0"/>
                <note pos="120" vol="74" key="59" len="12" pan="0"/>
                <note pos="132" vol="74" key="59" len="12" pan="0"/>
                <note pos="144" vol="63" key="59" len="12" pan="0"/>
                <note pos="156" vol="74" key="59" len="12" pan="0"/>
                <note pos="168" vol="85" key="59" len="12" pan="0"/>
                <note pos="180" vol="74" key="59" len="12" pan="0"/>
              </pattern>
              <pattern name="Hihat.ds" muted="0" steps="16" pos="192" type="0"/>
              <pattern name="Hihat.ds" muted="0" steps="16" pos="384" type="0"/>
            </track>
            <track name="Automation track" muted="0" type="5" solo="0">
              <automationtrack/>
              <automationpattern tens="1" name="Hihat.ds>Panning" prog="1" pos="0" len="192" mute="0">
                <time pos="0" value="0.5"/>
                <time pos="48" value="-75"/>
                <time pos="96" value="0.5"/>
                <time pos="144" value="75"/>
                <time pos="192" value="0.5"/>
                <object id="4197735"/>
              </automationpattern>
              <automationpattern tens="1" name="Drag a control while pressing &lt;Ctrl>" prog="0" pos="192" len="192" mute="0"/>
              <automationpattern tens="1" name="Drag a control while pressing &lt;Ctrl>" prog="0" pos="384" len="192" mute="0"/>
            </track>
            <track name="Amen Snare" muted="0" type="0" solo="0">
              <instrumenttrack fxch="5" vol="99.200005" basenote="57" usemasterpitch="1" pitchrange="1" pan="0" pitch="0">
                <instrument name="audiofileprocessor">
                  <audiofileprocessor stutter="0" reversed="0" interp="1" src="gig/breaks/Amen Break.wav" amp="100" looped="0" eframe="0.083999999" lframe="0.064000003" sframe="0.064000003"/>
                </instrument>
                <eldata fwet="0" fcut="14000" fres="0.5" ftype="0">
                  <elvol ctlenvamt="0" att="0" lspd_denominator="4" x100="0" lspd="0.1" dec="0.26800001" rel="0.1" lspd_numerator="4" hold="0" lpdel="0" amt="1" lshp="0" pdel="0" latt="0" sustain="0" userwavefile="" lamt="0" lspd_syncmode="0"/>
                  <elcut ctlenvamt="0" att="0" lspd_denominator="4" x100="0" lspd="0.1" dec="0.5" rel="0.1" lspd_numerator="4" hold="0.5" lpdel="0" amt="0" lshp="0" pdel="0" latt="0" sustain="0.5" userwavefile="" lamt="0" lspd_syncmode="0"/>
                  <elres ctlenvamt="0" att="0" lspd_denominator="4" x100="0" lspd="0.1" dec="0.5" rel="0.1" lspd_numerator="4" hold="0.5" lpdel="0" amt="0" lshp="0" pdel="0" latt="0" sustain="0.5" userwavefile="" lamt="0" lspd_syncmode="0"/>
                </eldata>
                <chordcreator chord-enabled="0" chord="0" chordrange="1"/>
                <arpeggiator arpskip="0" arptime="200" arpdir="0" arpmode="0" arp-enabled="0" arpmiss="0" arpcycle="0" arptime_syncmode="0" arpgate="100" arptime_numerator="4" arp="0" arprange="1" arptime_denominator="4"/>
                <midiport inputcontroller="0" fixedoutputnote="-1" outputcontroller="0" inputchannel="0" fixedinputvelocity="-1" writable="0" outputchannel="1" fixedoutputvelocity="-1" readable="0" outputprogram="1" basevelocity="63"/>
                <fxchain numofeffects="2" enabled="1">
                  <effect name="ladspaeffect" on="1" autoquit_numerator="4" gate="0" autoquit="1" wet="1" autoquit_syncmode="0" autoquit_denominator="4">
                    <ladspacontrols ports="10">
                      <port00 data="100"/>
                      <port01 data="0"/>
                      <port02 data="100"/>
                      <port03 data="0"/>
                      <port04 data="-20.9"/>
                      <port05 data="-20.1"/>
                      <port06 data="0"/>
                      <port07 data="0"/>
                      <port08 data="0"/>
                      <port09 data="0"/>
                    </ladspacontrols>
                    <key>
                      <attribute name="file" value="tap_echo"/>
                      <attribute name="plugin" value="tap_stereo_echo"/>
                    </key>
                  </effect>
                  <effect name="ladspaeffect" on="1" autoquit_numerator="4" gate="0" autoquit="1" wet="0.50999999" autoquit_syncmode="0" autoquit_denominator="4">
                    <ladspacontrols ports="10">
                      <port04 data="0.02"/>
                      <port05>
                        <data id="7680932" value="223.6068" scale_type="log"/>
                      </port05>
                      <port06 data="2.75"/>
                      <port07 data="2.75"/>
                      <port08>
                        <data id="139106" value="6000" scale_type="log"/>
                      </port08>
                      <port09>
                        <data id="2726299" value="159.05415" scale_type="log"/>
                      </port09>
                      <port010 data="0"/>
                      <port011>
                        <data id="7270263" value="2514.8672" scale_type="log"/>
                      </port011>
                      <port012 data="0"/>
                      <port013 data="0.5"/>
                    </ladspacontrols>
                    <key>
                      <attribute name="file" value="zita-reverbs"/>
                      <attribute name="plugin" value="zita-reverb"/>
                    </key>
                  </effect>
                </fxchain>
              </instrumenttrack>
              <pattern name="Amen Snare" muted="0" steps="16" pos="0" type="0"/>
              <pattern name="Amen Snare" muted="0" steps="16" pos="192" type="1">
                <note pos="48" vol="126" key="57" len="12" pan="0"/>
                <note pos="108" vol="126" key="57" len="12" pan="0"/>
                <note pos="144" vol="126" key="57" len="12" pan="0"/>
                <note pos="156" vol="57" key="57" len="12" pan="0"/>
                <note pos="240" vol="126" key="57" len="12" pan="0"/>
                <note pos="300" vol="126" key="57" len="12" pan="0"/>
                <note pos="336" vol="126" key="57" len="12" pan="0"/>
                <note pos="348" vol="57" key="57" len="12" pan="0"/>
                <note pos="360" vol="29" key="57" len="12" pan="0"/>
                <note pos="372" vol="21" key="57" len="12" pan="0"/>
              </pattern>
              <pattern name="Amen Snare" muted="0" steps="16" pos="384" type="1">
                <note pos="0" vol="100" key="57" len="12" pan="0"/>
                <note pos="12" vol="21" key="57" len="12" pan="0"/>
                <note pos="24" vol="100" key="57" len="12" pan="0"/>
                <note pos="36" vol="21" key="57" len="12" pan="0"/>
                <note pos="48" vol="100" key="60" len="12" pan="0"/>
                <note pos="60" vol="21" key="60" len="12" pan="0"/>
                <note pos="72" vol="100" key="57" len="12" pan="0"/>
                <note pos="84" vol="100" key="57" len="12" pan="0"/>
                <note pos="96" vol="21" key="57" len="12" pan="0"/>
                <note pos="108" vol="100" key="60" len="12" pan="0"/>
                <note pos="120" vol="100" key="57" len="12" pan="0"/>
                <note pos="132" vol="21" key="57" len="12" pan="0"/>
                <note pos="144" vol="100" key="60" len="12" pan="0"/>
                <note pos="156" vol="21" key="60" len="12" pan="0"/>
                <note pos="168" vol="100" key="57" len="12" pan="0"/>
                <note pos="180" vol="21" key="57" len="12" pan="0"/>
                <note pos="192" vol="100" key="57" len="12" pan="0"/>
                <note pos="204" vol="21" key="57" len="12" pan="0"/>
                <note pos="216" vol="100" key="57" len="12" pan="0"/>
                <note pos="228" vol="21" key="57" len="12" pan="0"/>
                <note pos="240" vol="100" key="60" len="12" pan="0"/>
                <note pos="252" vol="21" key="59" len="12" pan="0"/>
                <note pos="264" vol="100" key="57" len="12" pan="0"/>
                <note pos="276" vol="100" key="57" len="12" pan="0"/>
                <note pos="288" vol="21" key="57" len="12" pan="0"/>
                <note pos="300" vol="100" key="60" len="12" pan="0"/>
                <note pos="312" vol="100" key="57" len="12" pan="0"/>
                <note pos="324" vol="21" key="57" len="12" pan="0"/>
                <note pos="336" vol="104" key="60" len="12" pan="0"/>
                <note pos="348" vol="46" key="60" len="12" pan="0"/>
                <note pos="360" vol="21" key="60" len="12" pan="0"/>
                <note pos="372" vol="63" key="60" len="12" pan="0"/>
                <note pos="384" vol="100" key="57" len="12" pan="0"/>
                <note pos="396" vol="21" key="57" len="12" pan="0"/>
                <note pos="408" vol="100" key="57" len="12" pan="0"/>
                <note pos="420" vol="21" key="57" len="12" pan="0"/>
                <note pos="432" vol="100" key="60" len="12" pan="0"/>
                <note pos="444" vol="21" key="60" len="12" pan="0"/>
                <note pos="456" vol="100" key="57" len="12" pan="0"/>
                <note pos="468" vol="100" key="57" len="12" pan="0"/>
                <note pos="480" vol="21" key="57" len="12" pan="0"/>
                <note pos="492" vol="100" key="60" len="12" pan="0"/>
                <note pos="504" vol="100" key="57" len="12" pan="0"/>
                <note pos="516" vol="21" key="57" len="12" pan="0"/>
                <note pos="528" vol="100" key="60" len="12" pan="0"/>
                <note pos="540" vol="21" key="60" len="12" pan="0"/>
                <note pos="552" vol="21" key="60" len="12" pan="0"/>
                <note pos="564" vol="100" key="57" len="12" pan="0"/>
                <note pos="576" vol="21" key="57" len="12" pan="0"/>
                <note pos="588" vol="100" key="57" len="12" pan="0"/>
                <note pos="600" vol="21" key="57" len="12" pan="0"/>
                <note pos="612" vol="100" key="57" len="12" pan="0"/>
                <note pos="624" vol="100" key="60" len="12" pan="0"/>
                <note pos="636" vol="21" key="60" len="12" pan="0"/>
                <note pos="648" vol="21" key="60" len="12" pan="0"/>
                <note pos="660" vol="100" key="57" len="12" pan="0"/>
                <note pos="672" vol="100" key="57" len="12" pan="0"/>
                <note pos="684" vol="100" key="60" len="12" pan="0"/>
                <note pos="696" vol="100" key="57" len="12" pan="0"/>
                <note pos="708" vol="21" key="57" len="12" pan="0"/>
                <note pos="720" vol="104" key="60" len="12" pan="0"/>
                <note pos="732" vol="46" key="60" len="12" pan="0"/>
                <note pos="744" vol="21" key="60" len="12" pan="0"/>
                <note pos="756" vol="63" key="60" len="12" pan="0"/>
                <note pos="768" vol="100" key="57" len="12" pan="0"/>
                <note pos="780" vol="21" key="57" len="12" pan="0"/>
                <note pos="792" vol="100" key="57" len="12" pan="0"/>
                <note pos="804" vol="21" key="57" len="12" pan="0"/>
                <note pos="816" vol="100" key="60" len="12" pan="0"/>
                <note pos="828" vol="21" key="60" len="12" pan="0"/>
                <note pos="840" vol="100" key="57" len="12" pan="0"/>
                <note pos="852" vol="100" key="57" len="12" pan="0"/>
                <note pos="864" vol="21" key="57" len="12" pan="0"/>
                <note pos="876" vol="100" key="60" len="12" pan="0"/>
                <note pos="888" vol="100" key="57" len="12" pan="0"/>
                <note pos="900" vol="21" key="57" len="12" pan="0"/>
                <note pos="912" vol="100" key="60" len="12" pan="0"/>
                <note pos="924" vol="21" key="60" len="12" pan="0"/>
                <note pos="936" vol="100" key="57" len="12" pan="0"/>
                <note pos="948" vol="21" key="57" len="12" pan="0"/>
                <note pos="960" vol="100" key="57" len="12" pan="0"/>
                <note pos="972" vol="21" key="57" len="12" pan="0"/>
                <note pos="984" vol="100" key="57" len="12" pan="0"/>
                <note pos="996" vol="21" key="57" len="12" pan="0"/>
                <note pos="1008" vol="100" key="60" len="12" pan="0"/>
                <note pos="1020" vol="21" key="59" len="12" pan="0"/>
                <note pos="1032" vol="100" key="57" len="12" pan="0"/>
                <note pos="1044" vol="100" key="57" len="12" pan="0"/>
                <note pos="1056" vol="21" key="57" len="12" pan="0"/>
                <note pos="1068" vol="100" key="60" len="12" pan="0"/>
                <note pos="1080" vol="100" key="57" len="12" pan="0"/>
                <note pos="1092" vol="21" key="57" len="12" pan="0"/>
                <note pos="1104" vol="104" key="60" len="12" pan="0"/>
                <note pos="1116" vol="46" key="60" len="12" pan="0"/>
                <note pos="1128" vol="21" key="60" len="12" pan="0"/>
                <note pos="1140" vol="63" key="60" len="12" pan="0"/>
                <note pos="1152" vol="100" key="57" len="12" pan="0"/>
                <note pos="1164" vol="21" key="57" len="12" pan="0"/>
                <note pos="1176" vol="100" key="57" len="12" pan="0"/>
                <note pos="1188" vol="21" key="57" len="12" pan="0"/>
                <note pos="1200" vol="100" key="60" len="12" pan="0"/>
                <note pos="1212" vol="21" key="60" len="12" pan="0"/>
                <note pos="1224" vol="100" key="57" len="12" pan="0"/>
                <note pos="1236" vol="100" key="57" len="12" pan="0"/>
                <note pos="1248" vol="21" key="57" len="12" pan="0"/>
                <note pos="1260" vol="100" key="60" len="12" pan="0"/>
                <note pos="1272" vol="100" key="57" len="12" pan="0"/>
                <note pos="1284" vol="21" key="57" len="12" pan="0"/>
                <note pos="1296" vol="100" key="60" len="12" pan="0"/>
                <note pos="1308" vol="21" key="60" len="12" pan="0"/>
                <note pos="1320" vol="21" key="60" len="12" pan="0"/>
                <note pos="1332" vol="100" key="57" len="12" pan="0"/>
                <note pos="1344" vol="21" key="57" len="12" pan="0"/>
                <note pos="1356" vol="100" key="57" len="12" pan="0"/>
                <note pos="1368" vol="21" key="57" len="12" pan="0"/>
                <note pos="1380" vol="100" key="57" len="12" pan="0"/>
                <note pos="1392" vol="100" key="60" len="12" pan="0"/>
                <note pos="1404" vol="21" key="60" len="12" pan="0"/>
                <note pos="1416" vol="21" key="60" len="12" pan="0"/>
                <note pos="1428" vol="100" key="57" len="12" pan="0"/>
                <note pos="1440" vol="95" key="60" len="12" pan="0"/>
                <note pos="1452" vol="95" key="57" len="12" pan="0"/>
                <note pos="1464" vol="25" key="57" len="12" pan="0"/>
                <note pos="1476" vol="38" key="57" len="12" pan="0"/>
                <note pos="1488" vol="104" key="60" len="12" pan="0"/>
                <note pos="1500" vol="100" key="60" len="12" pan="0"/>
                <note pos="1512" vol="100" key="60" len="12" pan="0"/>
                <note pos="1524" vol="100" key="60" len="12" pan="0"/>
              </pattern>
            </track>
            <track name="Amen Kick" muted="0" type="0" solo="0">
              <instrumenttrack fxch="5" vol="100" basenote="57" usemasterpitch="1" pitchrange="1" pan="0" pitch="0">
                <instrument name="audiofileprocessor">
                  <audiofileprocessor stutter="0" reversed="0" interp="1" src="gig/breaks/Amen Break.wav" amp="100" looped="0" eframe="0.056000002" lframe="0.028000001" sframe="0.028000001"/>
                </instrument>
                <eldata fwet="1" fcut="5153" fres="0.5" ftype="0">
                  <elvol ctlenvamt="0" att="0" lspd_denominator="4" x100="0" lspd="0.1" dec="0.19600001" rel="0.1" lspd_numerator="4" hold="0" lpdel="0" amt="1" lshp="0" pdel="0" latt="0" sustain="0" userwavefile="" lamt="0" lspd_syncmode="0"/>
                  <elcut ctlenvamt="0" att="0" lspd_denominator="4" x100="0" lspd="0.1" dec="0.5" rel="0.1" lspd_numerator="4" hold="0.5" lpdel="0" amt="0" lshp="0" pdel="0" latt="0" sustain="0.5" userwavefile="" lamt="0" lspd_syncmode="0"/>
                  <elres ctlenvamt="0" att="0" lspd_denominator="4" x100="0" lspd="0.1" dec="0.5" rel="0.1" lspd_numerator="4" hold="0.5" lpdel="0" amt="0" lshp="0" pdel="0" latt="0" sustain="0.5" userwavefile="" lamt="0" lspd_syncmode="0"/>
                </eldata>
                <chordcreator chord-enabled="0" chord="0" chordrange="1"/>
                <arpeggiator arpskip="0" arptime="200" arpdir="0" arpmode="0" arp-enabled="0" arpmiss="0" arpcycle="0" arptime_syncmode="0" arpgate="100" arptime_numerator="4" arp="0" arprange="1" arptime_denominator="4"/>
                <midiport inputcontroller="0" fixedoutputnote="-1" outputcontroller="0" inputchannel="0" fixedinputvelocity="-1" writable="0" outputchannel="1" fixedoutputvelocity="-1" readable="0" outputprogram="1" basevelocity="63"/>
                <fxchain numofeffects="2" enabled="1">
                  <effect name="ladspaeffect" on="1" autoquit_numerator="4" gate="0" autoquit="1" wet="1" autoquit_syncmode="0" autoquit_denominator="4">
                    <ladspacontrols ports="12" link="1">
                      <port00 link="1" data="10" data_syncmode="0" data_denominator="4" data_numerator="4"/>
                      <port01 link="1" data_syncmode="0" data_denominator="4" data_numerator="4">
                        <data id="7332937" value="5" scale_type="log"/>
                      </port01>
                      <port02 link="1" data="1"/>
                      <port03 link="1" data="1"/>
                      <port04 link="1" data="1"/>
                      <port05 link="1" data="0.25"/>
                      <port10 data="10" data_syncmode="0" data_denominator="4" data_numerator="4"/>
                      <port11 data_syncmode="0" data_denominator="4" data_numerator="4">
                        <data id="5149146" value="5" scale_type="log"/>
                      </port11>
                      <port12 data="1"/>
                      <port13 data="1"/>
                      <port14 data="1"/>
                      <port15 data="0.25"/>
                    </ladspacontrols>
                    <key>
                      <attribute name="file" value="caps"/>
                      <attribute name="plugin" value="ChorusI"/>
                    </key>
                  </effect>
                  <effect name="ladspaeffect" on="1" autoquit_numerator="4" gate="0" autoquit="1" wet="0.77999997" autoquit_syncmode="0" autoquit_denominator="4">
                    <ladspacontrols ports="10">
                      <port04 data="0.02"/>
                      <port05>
                        <data id="7072879" value="223.6068" scale_type="log"/>
                      </port05>
                      <port06 data="2.75"/>
                      <port07 data="2.75"/>
                      <port08>
                        <data id="1169039" value="2219.0625" scale_type="log"/>
                      </port08>
                      <port09>
                        <data id="5340968" value="159.05415" scale_type="log"/>
                      </port09>
                      <port010 data="0"/>
                      <port011>
                        <data id="5924584" value="1713.12" scale_type="log"/>
                      </port011>
                      <port012 data="0"/>
                      <port013 data="0.5"/>
                    </ladspacontrols>
                    <key>
                      <attribute name="file" value="zita-reverbs"/>
                      <attribute name="plugin" value="zita-reverb"/>
                    </key>
                  </effect>
                </fxchain>
              </instrumenttrack>
              <pattern name="Amen Kick" muted="0" steps="16" pos="0" type="0"/>
              <pattern name="Amen Kick" muted="0" steps="16" pos="192" type="1">
                <note pos="0" vol="126" key="57" len="12" pan="0"/>
                <note pos="24" vol="126" key="57" len="12" pan="0"/>
                <note pos="72" vol="126" key="57" len="12" pan="0"/>
                <note pos="96" vol="126" key="57" len="12" pan="0"/>
                <note pos="120" vol="126" key="57" len="12" pan="0"/>
                <note pos="168" vol="126" key="57" len="12" pan="0"/>
                <note pos="192" vol="126" key="57" len="12" pan="0"/>
                <note pos="216" vol="126" key="57" len="12" pan="0"/>
                <note pos="264" vol="126" key="57" len="12" pan="0"/>
                <note pos="288" vol="126" key="57" len="12" pan="0"/>
                <note pos="312" vol="126" key="57" len="12" pan="0"/>
                <note pos="360" vol="126" key="57" len="12" pan="0"/>
              </pattern>
              <pattern name="Amen Kick" muted="0" steps="16" pos="384" type="0"/>
            </track>
          </trackcontainer>
        </bbtrack>
        <bbtco name="" muted="0" color="4286611584" pos="1536" len="3072" usestyle="1"/>
        <bbtco name="" muted="0" color="4286611584" pos="7680" len="3072" usestyle="1"/>
      </track>
      <track name="Amen Break Pattern" muted="0" type="1" solo="0">
        <bbtrack/>
        <bbtco name="" muted="0" color="4286611584" pos="3072" len="1536" usestyle="1"/>
      </track>
      <track name="Abreak Pattern #2" muted="0" type="1" solo="0">
        <bbtrack/>
        <bbtco name="" muted="0" color="4286611584" pos="6144" len="1536" usestyle="1"/>
      </track>
      <track name="Dirty Reece > Volume" muted="0" type="5" solo="0">
        <automationtrack/>
        <automationpattern tens="1" name="Dirty Reece>Volume" prog="1" pos="11520" len="768" mute="0">
          <time pos="0" value="0"/>
          <time pos="768" value="70"/>
          <object id="4289828"/>
        </automationpattern>
        <automationpattern tens="1" name="Dirty Reece>Volume" prog="0" pos="0" len="192" mute="0">
          <time pos="0" value="70"/>
          <object id="4289828"/>
        </automationpattern>
      </track>
      <track height="32" name="Phase bass" muted="0" type="0" solo="0">
        <instrumenttrack fxch="0" basenote="69" usemasterpitch="1" pitchrange="1" pan="0" pitch="0">
          <vol id="5723401" value="24.300001" scale_type="linear"/>
          <instrument name="watsyn">
            <watsyn a2_ltune="-1" envAmt="134" abmix="-84.300003" b2_mult="4" b1_pan="21.9" envDec_syncmode="0" a1_ltune="7" b2_ltune="-12" a1_mult="8" b1_wave="WLMevoAP3r4gpie/09hNv65bY78W7Gy/b3Rvv2aGbr/cU2y/EA1qvzIPaL/5PWa/r3Vkv2WtYr8c5WC/0hxfv4hUXb8/jFu/9cNZv6v7V79iM1a/GGtUv86iUr+F2lC/OxJPv/JJTb+ogUu/XrlJvxXxR7/LKEa/gWBEvziYQr/uz0C/pAc/v1s/Pb8Rdzu/yK45v37mN780Hja/61U0v6GNMr9XxTC/Dv0uv8Q0Lb96bCu/MaQpv+fbJ7+dEya/VEskvwqDIr/BuiC/d/Iev4/YG7/tGhK/v3H4vicgvr77LI++NDNtvlZVVb5cj0K+Y8kvvmoDHb4iIgq+N9DtvRSux716FKa9aQONve7udr0NdFq9iyU/vQrXI72IiAi9DHTavAjXo7wKdFq8BnTauwAAgDEWdNo7EnRaPAzXozwQdNo8iogIPdijID2NJR89MpacPI/C9bzhesy9PQovvpqZbb53d4++YCyhvpDCrb7sUbi+banCvl10zb6G0Ni+mM/jvnIi7b5Kq/S+cFj7vlDuAL9oMAS/gHIHv5i0Cr8E+Q2/7DYRv9wcFL8k/hW/umgWvxWuFb/iehS/MzMTv4XrEb/XoxC/KVwPv3sUDr/NzAy/H4ULv3E9Cr/D9Qi/Fa4Hv2ZmBr+4HgW/hsoDv1swAr9Y8v++9ij6vui0875ERO2+Cfjmvgu24L4OdNq+EDLUvhLwzb4Vrse+F2zBvhkqu74b6LS+HqauviBkqL4REaG+pHCTvs3MbL6X/Aq+9llRvK/G9T1UZ4E+VhbAPioL8D5+lgU/3BMLP/VDDT8B5Q4/DYYQPxknEj8lyBM/MWkVPz0KFz9Jqxg/VUwaP2LtGz9ujh0/ei8fP4bQID+ScSI/nhIkP6qzJT+2VCc/wvUoP8+WKj/bNyw/59gtP/N5Lz//GjE/C7wyPxddND8j/jU/L583PzxAOT9I4To/VII8P2AjPj9sxD8/eGVBP4QGQz+Qp0Q/nEhGP6jpRz+1ikk/wStLP83MTD/ZbU4/5Q5QP/GvUT/9UFM/CfJUPxWTVj8iNFg/LtVZPzp2Wz9GF10/UrheP15ZYD9q+mE/dptjP4I8ZT+P3WY/m35oP6cfaj9Bs2s/MwRtP03YbT9vMW4/PMJtP02vaj/mB2E/C4VLP1hSJT/wZ9k+OGQVPg==" a2_pan="-11.1" envHold_syncmode="0" envHold_denominator="4" a1_rtune="1" b2_rtune="0" a2_vol="134.60001" a1_wave="jfp2P4DMdz+N+nY/4Kp0P+c8cT+/Hm0/gKhoPwUPZD+Hal8/ccNaP+0bVj9ddFE/zcxMPz0lSD+sfUM/HNY+P4wuOj/7hjU/a98wP9s3LD9KkCc/uugiPypBHj+amRk/CfIUP3lKED/pogs/WPsGP8hTAj9wWPs+TwnyPi+66D4Oa98+3RvWPoDLzD6hcMM+QNu5PpZirz6WX6I+5NyPPriaaD74Xhs+6gFwPUBlIr1e/AG+rX1EvhYIbr6zLYK+BMeHvhLVir7awYy+V8KNviYzjb7yqom+MlSBvmwkZr4m6D++RjEXvurc6r0r58K9FC25vcQex72/GOO9ELoCvvUBFb7fkSe+ny46vs3MTL4Oa1++TwlyvshTgr7poou+CfKUvipBnr7sUTg/a9+wvowuur6sfcO+zczMvu0b1r4Oa9++L7rovk8J8r5wWPu+yFMCv1j7Br/pogu/eUoQvwnyFL+amRm/KkEev7roIr9KkCe/2zcsv2vfML/7hjW/jC46vxzWPr+sfUO/PSVIv83MTL9ddFG/7RtWv3HDWr+Hal+/BQ9kv4CoaL+/Hm2/5zxxv+CqdL+N+na/gMx3v436dr/gqnS/5zxxv78ebb+AqGi/BQ9kv4dqX79xw1q/7RtWv110Ub/NzEy/PSVIv6x9Q78c1j6/jC46v/uGNb9r3zC/2zcsv0qQJ7+66CK/KkEev5qZGb8J8hS/eUoQv+miC79Y+wa/yFMCv3BY+75PCfK+L7rovg5r377tG9a+zczMvqx9w76MLrq+a9+wvkqQp74qQZ6+CfKUvumii77IU4K+Twlyvg5rX77NzEy+jC46vizwIr61b+i9n8HQvArytD00GDo+iJpuPgrXgz4K14s+UriSPpqZmT7sUaA+exSmPlyPqj57FK4+pHCxPsP1tD7sUbg+Fa67Pj4Kvz6kcME+eGXBPhSuuz7FpK0+WsWcPlHTkz40GJY+KkGePkqQpz5r37A+jC66Pqx9wz7NzMw+7RvWPg5r3z4vuug+TwnyPnBY+z7IUwI/WPsGP+miCz95ShA/CfIUP5qZGT8qQR4/uugiP0qQJz/bNyw/a98wP/uGNT+MLjo/HNY+P6x9Qz89JUg/zcxMP110UT/tG1Y/ccNaP4dqXz8FD2Q/gKhoP78ebT/nPHE/4Kp0Pw==" xtalk="0" a1_vol="103.4" a1_pan="0" envAtt_denominator="4" envDec="145" envAtt_syncmode="0" b2_wave="XvhLv5WZRr97BkG/lTo7v5w0Nb/a9C6/U3wov07MIb8r5hq/WcsTv1V9DL+k/QS/tpv6viDf6r7VyNq+LFzKvpicub6Xjai+tjKXvpaPhb7ST2e+7f5Cvrw0Hr7B9/G9Ws6mvaB9Nr2ymf+7EL/mPIg/fz3dGb89GHf1PbOhED6onyE+zk8vPoYePD51gko+SDRcPp27cT68N4U+iGiSPpSHnz6qwas+pIW2Pi6Zvz5nFsc+iFbNPtDP0j7O79c+q/3cPiMO4j6wCuc+YsTrPpgI8D4gsvM+9rX2Pswq+T5/R/s+M1b9PhSg/z4iLgE/+NQCP0XKBD/9DAc/FJYJP9dXDD96Pg8/mTISP5MbFT8+4Bc/AWgaP0afHD/Ufh4/qhAgP5ZsIT92rCI/694jP4UBJT8+BiY/ReAmP5iPJz+tJCg/IrsoP2RvKT/PVCo/f3ArPyW6LD8WIS4/FZIvPyP7MD8MTTI/2nwzP7iGND86cTU/nU02P34yNz/CMjg/CVY5P66XOj9w7Ds/PEk9P12lPj+Q9z8/CDNBPxBKQj/ZNUM/q/1DP8i2RD9ne0U/X11GP05cRz8iZUg/MVtJP0AlSj8Ot0o/KhNLPwpGSz8lX0s/cmxLP7t5Sz/Zkks/t8VLP9EhTD+Ts0w/ZX1NP3NyTj/Zd08/6mxQP7k2UT96yFE/hCRSPwdXUj+EblI/qHVSPytvUj/cUVI//gJSP7pQUT8j8k8/vZNNP0/xST8F80Q/Vbs+P5iVNz+ewy8/UzgnP+pXHT8Z3BA/zPr/Pgrt0T7GmJU+GSIYPmyzQrz6lzO+/rSnvkVm6r4Y1A+/oyckv+KKM788nD+/ZbhJv0LAUr/NGlu/Cddiv1PVab9P6W+/5+90v+DaeL/ntHu/1p99v3PNfr/SdH+/xMd/vwnsf7/d+X+/Zf5/v6j/f7/v/3+//f9/vwAAgL8AAIC/AACAvwAAgL8AAIC/AACAvwAAgL8AAIC/AACAvwAAgL8AAIC/AACAvwAAgL8AAIC/AACAvwAAgL8AAIC/AACAvwAAgL8AAIC/AACAv/3/f7/4/3+/zv9/vyD/f7+j/H+/yfR/vzzff79Uq3+/pzx/v2Zqfr9ZBH2/h956v1/gd7+JEHS/7pVvvw2sar99j2W/BWxgv0dUW7+GRFa/QyxRvw==" b2_vol="146.3" a2_mult="4" b2_pan="0" envAtt="2" envDec_numerator="4" envHold_numerator="4" envAtt_numerator="4" a2_rtune="-11" bmod="3" b1_ltune="2" b1_mult="24" envHold="0" b1_vol="63.700001" amod="0" b1_rtune="-7" envDec_denominator="4" a2_wave="sTlbPzfpXj8yamI/6LtlP6XdaD/Dzms/pI5uP7cccT9xeHM/VaF1P/CWdz/YWHk/seZ6PyZAfD/wZH0/0lR+P5kPfz8elX8/RuV/PwAAgD9G5X8/HpV/P5kPfz/SVH4/8GR9PyZAfD+x5no/2Fh5P++Wdz9VoXU/cHhzP7YccT+kjm4/ws5rP6TdaD/nu2U/MmpiPzfpXj+xOVs/ZVxXPyFSUz+9G08/GbpKPyMuRj/MeEE/EJs8P/KVNz9/ajI/yxktP/OkJz8ZDSI/alMcPxd5Fj9ZfxA/b2cKP58yBD9qxPs+BO/uPrvn4T5HsdQ+ak7HPu/BuT6rDqw+czeePjo/kD7iKII+uu5nPkJbSz5VnS4+8roRPkN06T3jQa892NVpPS3u6Twuvbuzi+7pvAfWab37Qa+9WnTpvf66Eb5gnS6+TltLvsXuZ77oKIK+QD+Qvnk3nr6xDqy+9cG5vm9Ox75MsdS+wOfhvgrv7r5vxPu+ojIEv3JnCr9bfxC/GnkWv21THL8cDSK/9aQnv80ZLb+BajK/9JU3vxKbPL/OeEG/KC5Gvxu6Sr+/G0+/IFJTv2ZcV7+wOVu/OelevzJqYr/pu2W/pN1ov8POa7+kjm6/txxxv3B4c79VoXW/8ZZ3v9lYeb+y5nq/JkB8v/Fkfb/SVH6/mQ9/vx6Vf79G5X+/AACAv0blf78elX+/mA9/v9JUfr/wZH2/JkB8v7Dmer/ZWHm/75Z3v1Whdb9weHO/tBxxv6OObr/Azmu/pN1ov+W7Zb8yamK/NOlev7A5W79iXFe/IFJTv7obT78bukq/Ii5Gv854Qb8Pmzy/85U3v35qMr/NGS2/8qQnvxsNIr9pUxy/E3kWv1h/EL9qZwq/njIEv2HE+74C7+6+sefhvkSx1L5gTse+7MG5vqEOrL54N56+Nz+Qvucogr607me+TFtLvk+dLr78uhG+N3TpvfhBr73B1Wm9fu7pvAAAAABi7uk89tVpPfNBrz1VdOk9/LoRPl+dLj5NW0s+xe5nPugogj5BP5A+ejeePqoOrD7vwbk+ak7HPkex1D685+E+Be/uPmvE+z6gMgQ/cGcKP1p/ED8YeRY/a1McPxsNIj/1pCc/zRktP4BqMj/zlTc/EZs8P854QT8mLkY/G7pKP70bTz8gUlM/ZFxXPw=="/>
          </instrument>
          <eldata fwet="0" fcut="14000" fres="0.5" ftype="0">
            <elvol ctlenvamt="0" att="0" lspd_denominator="4" x100="0" lspd="0.1" dec="0.38000003" rel="0.289" lspd_numerator="4" hold="0.12800001" lpdel="0" amt="1" lshp="0" pdel="0" latt="0" sustain="0.47200003" userwavefile="" lamt="0" lspd_syncmode="0"/>
            <elcut ctlenvamt="0" att="0" lspd_denominator="4" x100="0" lspd="0.1" dec="0.5" rel="0.1" lspd_numerator="4" hold="0.5" lpdel="0" amt="0" lshp="0" pdel="0" latt="0" sustain="0.5" userwavefile="" lamt="0" lspd_syncmode="0"/>
            <elres ctlenvamt="0" att="0" lspd_denominator="4" x100="0" lspd="0.1" dec="0.5" rel="0.26300001" lspd_numerator="4" hold="0.116" lpdel="0" amt="0" lshp="0" pdel="0" latt="0" sustain="0.69199997" userwavefile="" lamt="0" lspd_syncmode="0"/>
          </eldata>
          <chordcreator chord-enabled="0" chord="0" chordrange="1"/>
          <arpeggiator arpskip="0" arptime="100" arpdir="0" arpmode="0" arp-enabled="0" arpmiss="0" arpcycle="0" arptime_syncmode="0" arpgate="100" arptime_numerator="4" arp="0" arprange="1" arptime_denominator="4"/>
          <midiport inputcontroller="0" fixedoutputnote="-1" outputcontroller="0" inputchannel="0" fixedinputvelocity="-1" writable="0" outputchannel="1" fixedoutputvelocity="-1" readable="0" outputprogram="1" basevelocity="63"/>
          <fxchain numofeffects="1" enabled="1">
            <effect name="ladspaeffect" on="1" autoquit_numerator="4" gate="0" autoquit="1" wet="-0.64999998" autoquit_syncmode="0" autoquit_denominator="4">
              <ladspacontrols ports="10">
                <port04 data="0.060000002"/>
                <port05>
                  <data id="1854623" value="223.6068" scale_type="log"/>
                </port05>
                <port06 data="2.75"/>
                <port07 data="2.75"/>
                <port08>
                  <data id="2889439" value="6000" scale_type="log"/>
                </port08>
                <port09>
                  <data id="2386683" value="159.05415" scale_type="log"/>
                </port09>
                <port010 data="0"/>
                <port011>
                  <data id="2312061" value="2514.8672" scale_type="log"/>
                </port011>
                <port012 data="0"/>
                <port013 data="0.5"/>
              </ladspacontrols>
              <key>
                <attribute name="file" value="zita-reverbs"/>
                <attribute name="plugin" value="zita-reverb"/>
              </key>
            </effect>
          </fxchain>
        </instrumenttrack>
        <pattern name="Phase bass" muted="0" steps="16" pos="6144" type="1">
          <note pos="0" vol="100" key="59" len="24" pan="0"/>
          <note pos="36" vol="100" key="59" len="24" pan="0"/>
          <note pos="72" vol="100" key="59" len="24" pan="0"/>
          <note pos="108" vol="100" key="59" len="24" pan="0"/>
          <note pos="144" vol="100" key="59" len="24" pan="0"/>
          <note pos="168" vol="100" key="59" len="24" pan="0"/>
          <note pos="192" vol="100" key="59" len="24" pan="0"/>
          <note pos="228" vol="100" key="59" len="24" pan="0"/>
          <note pos="264" vol="100" key="59" len="24" pan="0"/>
          <note pos="300" vol="100" key="59" len="24" pan="0"/>
          <note pos="336" vol="100" key="59" len="24" pan="0"/>
          <note pos="360" vol="100" key="59" len="24" pan="0"/>
          <note pos="384" vol="100" key="57" len="24" pan="0"/>
          <note pos="420" vol="100" key="57" len="24" pan="0"/>
          <note pos="456" vol="100" key="57" len="24" pan="0"/>
          <note pos="492" vol="100" key="57" len="24" pan="0"/>
          <note pos="528" vol="100" key="57" len="24" pan="0"/>
          <note pos="552" vol="100" key="57" len="24" pan="0"/>
          <note pos="576" vol="100" key="57" len="24" pan="0"/>
          <note pos="612" vol="100" key="57" len="24" pan="0"/>
          <note pos="648" vol="100" key="57" len="24" pan="0"/>
          <note pos="684" vol="100" key="57" len="24" pan="0"/>
          <note pos="720" vol="100" key="55" len="24" pan="0"/>
          <note pos="744" vol="100" key="55" len="24" pan="0"/>
          <note pos="768" vol="100" key="59" len="24" pan="0"/>
          <note pos="792" vol="100" key="47" len="24" pan="0"/>
          <note pos="804" vol="100" key="59" len="24" pan="0"/>
          <note pos="840" vol="100" key="59" len="24" pan="0"/>
          <note pos="864" vol="100" key="47" len="24" pan="0"/>
          <note pos="876" vol="100" key="59" len="24" pan="0"/>
          <note pos="912" vol="100" key="59" len="24" pan="0"/>
          <note pos="924" vol="100" key="47" len="24" pan="0"/>
          <note pos="936" vol="100" key="59" len="24" pan="0"/>
          <note pos="960" vol="100" key="59" len="24" pan="0"/>
          <note pos="984" vol="100" key="47" len="24" pan="0"/>
          <note pos="996" vol="100" key="59" len="24" pan="0"/>
          <note pos="1032" vol="100" key="59" len="24" pan="0"/>
          <note pos="1056" vol="100" key="47" len="24" pan="0"/>
          <note pos="1068" vol="100" key="59" len="24" pan="0"/>
          <note pos="1104" vol="100" key="59" len="24" pan="0"/>
          <note pos="1116" vol="100" key="47" len="24" pan="0"/>
          <note pos="1128" vol="100" key="59" len="24" pan="0"/>
          <note pos="1140" vol="100" key="47" len="24" pan="0"/>
          <note pos="1152" vol="100" key="57" len="24" pan="0"/>
          <note pos="1176" vol="100" key="45" len="24" pan="0"/>
          <note pos="1188" vol="100" key="57" len="24" pan="0"/>
          <note pos="1224" vol="100" key="57" len="24" pan="0"/>
          <note pos="1248" vol="100" key="45" len="24" pan="0"/>
          <note pos="1260" vol="100" key="57" len="24" pan="0"/>
          <note pos="1296" vol="100" key="57" len="24" pan="0"/>
          <note pos="1308" vol="100" key="45" len="24" pan="0"/>
          <note pos="1320" vol="100" key="57" len="24" pan="0"/>
          <note pos="1344" vol="100" key="57" len="24" pan="0"/>
          <note pos="1368" vol="100" key="45" len="24" pan="0"/>
          <note pos="1380" vol="100" key="57" len="24" pan="0"/>
          <note pos="1416" vol="100" key="57" len="24" pan="0"/>
          <note pos="1428" vol="100" key="45" len="24" pan="0"/>
          <note pos="1452" vol="100" key="57" len="24" pan="0"/>
          <note pos="1476" vol="100" key="45" len="24" pan="0"/>
          <note pos="1488" vol="100" key="55" len="24" pan="0"/>
          <note pos="1512" vol="100" key="55" len="24" pan="0"/>
        </pattern>
        <pattern name="Phase bass" muted="0" steps="16" pos="4608" type="1">
          <note pos="0" vol="53" key="59" len="24" pan="0"/>
          <note pos="36" vol="53" key="59" len="24" pan="0"/>
          <note pos="72" vol="53" key="59" len="24" pan="0"/>
          <note pos="108" vol="53" key="59" len="24" pan="0"/>
          <note pos="144" vol="53" key="59" len="24" pan="0"/>
          <note pos="168" vol="53" key="59" len="24" pan="0"/>
          <note pos="192" vol="53" key="59" len="24" pan="0"/>
          <note pos="228" vol="53" key="59" len="24" pan="0"/>
          <note pos="264" vol="53" key="59" len="24" pan="0"/>
          <note pos="300" vol="53" key="59" len="24" pan="0"/>
          <note pos="336" vol="53" key="59" len="24" pan="0"/>
          <note pos="360" vol="53" key="59" len="24" pan="0"/>
          <note pos="384" vol="53" key="59" len="24" pan="0"/>
          <note pos="420" vol="53" key="59" len="24" pan="0"/>
          <note pos="456" vol="53" key="59" len="24" pan="0"/>
          <note pos="492" vol="53" key="59" len="24" pan="0"/>
          <note pos="528" vol="53" key="59" len="24" pan="0"/>
          <note pos="552" vol="53" key="59" len="24" pan="0"/>
          <note pos="576" vol="53" key="59" len="24" pan="0"/>
          <note pos="612" vol="53" key="59" len="24" pan="0"/>
          <note pos="648" vol="53" key="59" len="24" pan="0"/>
          <note pos="684" vol="53" key="59" len="24" pan="0"/>
          <note pos="720" vol="53" key="59" len="24" pan="0"/>
          <note pos="744" vol="53" key="59" len="24" pan="0"/>
          <note pos="768" vol="53" key="59" len="24" pan="0"/>
          <note pos="804" vol="53" key="59" len="24" pan="0"/>
          <note pos="840" vol="53" key="59" len="24" pan="0"/>
          <note pos="876" vol="53" key="59" len="24" pan="0"/>
          <note pos="912" vol="53" key="59" len="24" pan="0"/>
          <note pos="936" vol="53" key="59" len="24" pan="0"/>
          <note pos="960" vol="53" key="59" len="24" pan="0"/>
          <note pos="996" vol="53" key="59" len="24" pan="0"/>
          <note pos="1032" vol="53" key="59" len="24" pan="0"/>
          <note pos="1068" vol="53" key="59" len="24" pan="0"/>
          <note pos="1104" vol="53" key="59" len="24" pan="0"/>
          <note pos="1128" vol="53" key="59" len="24" pan="0"/>
          <note pos="1152" vol="53" key="57" len="24" pan="0"/>
          <note pos="1188" vol="53" key="57" len="24" pan="0"/>
          <note pos="1224" vol="53" key="57" len="24" pan="0"/>
          <note pos="1260" vol="53" key="57" len="24" pan="0"/>
          <note pos="1296" vol="53" key="57" len="24" pan="0"/>
          <note pos="1320" vol="53" key="57" len="24" pan="0"/>
          <note pos="1344" vol="53" key="57" len="24" pan="0"/>
          <note pos="1380" vol="53" key="57" len="24" pan="0"/>
          <note pos="1416" vol="53" key="57" len="24" pan="0"/>
          <note pos="1452" vol="53" key="57" len="24" pan="0"/>
          <note pos="1488" vol="53" key="55" len="24" pan="0"/>
          <note pos="1512" vol="53" key="55" len="24" pan="0"/>
        </pattern>
        <pattern name="Phase bass" muted="0" steps="16" pos="7680" type="1">
          <note pos="0" vol="100" key="59" len="24" pan="0"/>
          <note pos="36" vol="68" key="59" len="24" pan="0"/>
          <note pos="72" vol="31" key="59" len="24" pan="0"/>
          <note pos="108" vol="12" key="59" len="24" pan="0"/>
          <note pos="144" vol="6" key="59" len="24" pan="0"/>
        </pattern>
      </track>
      <track name="Phase bass>Volume" muted="0" type="5" solo="0">
        <automationtrack/>
        <automationpattern tens="1" name="Phase bass>Volume" prog="1" pos="4608" len="768" mute="0">
          <time pos="0" value="33"/>
          <time pos="768" value="0"/>
          <object id="5723401"/>
        </automationpattern>
        <automationpattern tens="1" name="Phase bass>Volume" prog="1" pos="5376" len="768" mute="0">
          <time pos="0" value="24.300001"/>
          <object id="5723401"/>
        </automationpattern>
      </track>
    </trackcontainer>
    <track name="Automation track" muted="0" type="6" solo="0">
      <automationtrack/>
      <automationpattern tens="1" name="Numerator" prog="0" pos="0" len="192" mute="0"/>
      <automationpattern tens="1" name="Denominator" prog="0" pos="0" len="192" mute="0"/>
      <automationpattern tens="1" name="Tempo" prog="0" pos="0" len="192" mute="0"/>
      <automationpattern tens="1" name="Master volume" prog="0" pos="0" len="192" mute="0"/>
      <automationpattern tens="1" name="Master pitch" prog="0" pos="0" len="192" mute="0"/>
      <automationpattern tens="1" name="Numerator" prog="0" pos="0" len="192" mute="0"/>
      <automationpattern tens="1" name="Denominator" prog="0" pos="0" len="192" mute="0"/>
      <automationpattern tens="1" name="Tempo" prog="0" pos="0" len="192" mute="0"/>
      <automationpattern tens="1" name="Master volume" prog="0" pos="0" len="192" mute="0"/>
      <automationpattern tens="1" name="Master pitch" prog="0" pos="0" len="192" mute="0"/>
      <automationpattern tens="1" name="Phase bass>Volume" prog="1" pos="0" len="0" mute="0"/>
    </track>
    <fxmixer y="506" height="333" x="57" visible="0" width="561" maximized="0" minimized="0">
      <fxchannel volume="0.89999998" muted="0" name="Master" soloed="0" num="0">
        <fxchain numofeffects="0" enabled="0"/>
      </fxchannel>
      <fxchannel volume="0.83400005" muted="0" name="Lead Synths" soloed="0" num="1">
        <fxchain numofeffects="0" enabled="0"/>
        <send amount="1" channel="0"/>
      </fxchannel>
      <fxchannel volume="0.46000001" muted="0" name="Bass Synth" soloed="0" num="2">
        <fxchain numofeffects="0" enabled="0"/>
        <send amount="1" channel="0"/>
      </fxchannel>
      <fxchannel volume="0.78600001" muted="0" name="Solo Synth" soloed="0" num="3">
        <fxchain numofeffects="0" enabled="1"/>
        <send amount="1" channel="0"/>
      </fxchannel>
      <fxchannel volume="1" muted="0" name="SFX" soloed="0" num="4">
        <fxchain numofeffects="0" enabled="1"/>
        <send amount="1" channel="0"/>
      </fxchannel>
      <fxchannel volume="0.64999998" muted="0" name="Abreak Samples" soloed="0" num="5">
        <fxchain numofeffects="0" enabled="0"/>
        <send amount="1" channel="0"/>
      </fxchannel>
    </fxmixer>
    <ControllerRackView y="407" height="200" x="836" visible="0" width="350" maximized="0" minimized="0"/>
    <pianoroll y="379" height="480" x="471" visible="1" width="861" maximized="0" minimized="0"/>
    <automationeditor y="415" height="406" x="261" visible="0" width="938" maximized="0" minimized="0"/>
    <projectnotes y="513" height="400" x="780" visible="1" width="782" maximized="0" minimized="0"><![CDATA[<!DOCTYPE HTML PUBLIC "-//W3C//DTD HTML 4.0//EN" "http://www.w3.org/TR/REC-html40/strict.dtd">
<html><head><meta name="qrichtext" content="1" /><style type="text/css">
p, li { white-space: pre-wrap; }
</style></head><body style=" font-family:'Sans Serif'; font-size:9pt; font-weight:400; font-style:normal;">
<p style=" margin-top:0px; margin-bottom:0px; margin-left:0px; margin-right:0px; -qt-block-indent:0; text-indent:0px;"><span style=" font-family:'Cantarell'; font-size:11pt;">Double Shot</span></p>
<p style=" margin-top:0px; margin-bottom:0px; margin-left:0px; margin-right:0px; -qt-block-indent:0; text-indent:0px;"><span style=" font-family:'Cantarell'; font-size:11pt;">==========</span></p>
<p style="-qt-paragraph-type:empty; margin-top:0px; margin-bottom:0px; margin-left:0px; margin-right:0px; -qt-block-indent:0; text-indent:0px; font-family:'Cantarell'; font-size:11pt; color:#e0e0e0;"><br /></p>
<p style=" margin-top:0px; margin-bottom:0px; margin-left:0px; margin-right:0px; -qt-block-indent:0; text-indent:0px;"><span style=" font-family:'Cantarell'; font-size:11pt; color:#e0e0e0;">Requires the SGM SoundFont and an amen break sample.</span></p></body></html>]]></projectnotes>
    <timeline lp0pos="0" lpstate="1" lp1pos="12288"/>
    <controllers>
      <lfocontroller name="Controller 1" speed="2" multiplier="0" base="0.5" speed_denominator="4" type="1" speed_numerator="4" speed_syncmode="0" amount="1" phase="0" wave="0" userwavefile=""/>
    </controllers>
  </song>
</lmms-project>
