<?xml version="1.0"?>
<!DOCTYPE lmms-project>
<lmms-project type="song" creator="LMMS" version="1.0" creatorversion="1.2.2">
  <head timesig_denominator="4" timesig_numerator="4" masterpitch="0" bpm="140" mastervol="100"/>
  <song>
    <trackcontainer visible="1" minimized="0" type="song" y="19" width="1199" maximized="0" x="288" height="586">
      <track solo="0" type="0" name="Organic" muted="0">
        <instrumenttrack pan="0" pitch="0" vol="36" basenote="57" pitchrange="1" usemasterpitch="1" fxch="0">
          <instrument name="organic">
            <organic wavetype4="0" newharmonic2="2" num_osc="8" pan6="0" newharmonic5="5" pan3="0" pan5="0" wavetype2="0" wavetype5="0" pan7="0" vol5="100" wavetype1="0" wavetype0="0" newdetune1="0" vol7="100" vol2="100" vol1="100" pan4="0" newharmonic1="1" wavetype6="0" wavetype7="0" newdetune3="0" newdetune0="0" foldback="0" vol0="100" newdetune6="0" newharmonic3="3" newharmonic7="7" newdetune4="0" vol="100" newdetune5="0" vol4="100" pan1="0" newdetune7="0" wavetype3="0" newharmonic0="0" newharmonic6="6" vol3="100" pan2="0" newdetune2="0" newharmonic4="4" pan0="0" vol6="100"/>
          </instrument>
          <eldata fres="0.5" ftype="0" fwet="0" fcut="14000">
            <elvol lspd_syncmode="0" amt="1" hold="0.18400002" ctlenvamt="0" rel="0.1" x100="0" lspd_numerator="4" lspd_denominator="4" lpdel="0" lshp="0" sustain="0.5" lamt="0" latt="0" att="0.029999999" pdel="0" dec="0.5" userwavefile="" lspd="0.1"/>
            <elcut lspd_syncmode="0" amt="0" hold="0.5" ctlenvamt="0" rel="0.1" x100="0" lspd_numerator="4" lspd_denominator="4" lpdel="0" lshp="0" sustain="0.5" lamt="0" latt="0" att="0" pdel="0" dec="0.5" userwavefile="" lspd="0.1"/>
            <elres lspd_syncmode="0" amt="0" hold="0.5" ctlenvamt="0" rel="0.1" x100="0" lspd_numerator="4" lspd_denominator="4" lpdel="0" lshp="0" sustain="0.5" lamt="0" latt="0" att="0" pdel="0" dec="0.5" userwavefile="" lspd="0.1"/>
          </eldata>
          <chordcreator chord-enabled="0" chordrange="1" chord="0"/>
          <arpeggiator arp="0" arprange="1" arpmode="0" arpdir="0" arpskip="0" arptime="200" arptime_numerator="4" arp-enabled="0" arpgate="100" arpcycle="0" arptime_denominator="4" arpmiss="0" arptime_syncmode="0"/>
          <midiport fixedoutputvelocity="-1" inputcontroller="0" outputcontroller="0" basevelocity="63" writable="0" readable="0" fixedoutputnote="-1" outputchannel="1" outputprogram="1" inputchannel="0" fixedinputvelocity="-1"/>
          <fxchain numofeffects="0" enabled="0"/>
        </instrumenttrack>
        <pattern type="1" name="" pos="0" steps="16" muted="0">
          <note key="38" pan="0" pos="0" vol="46" len="36"/>
          <note key="38" pan="0" pos="48" vol="46" len="24"/>
          <note key="41" pan="0" pos="72" vol="100" len="24"/>
          <note key="38" pan="0" pos="96" vol="100" len="24"/>
          <note key="40" pan="0" pos="120" vol="100" len="24"/>
          <note key="40" pan="0" pos="144" vol="100" len="24"/>
          <note key="40" pan="0" pos="168" vol="100" len="24"/>
          <note key="38" pan="0" pos="192" vol="46" len="36"/>
          <note key="38" pan="0" pos="240" vol="46" len="24"/>
          <note key="41" pan="0" pos="264" vol="100" len="24"/>
          <note key="38" pan="0" pos="288" vol="100" len="24"/>
          <note key="40" pan="0" pos="312" vol="100" len="24"/>
          <note key="40" pan="0" pos="336" vol="100" len="24"/>
          <note key="40" pan="0" pos="360" vol="100" len="24"/>
          <note key="38" pan="0" pos="384" vol="46" len="36"/>
          <note key="38" pan="0" pos="432" vol="46" len="24"/>
          <note key="41" pan="0" pos="456" vol="100" len="24"/>
          <note key="38" pan="0" pos="480" vol="100" len="24"/>
          <note key="40" pan="0" pos="504" vol="100" len="24"/>
          <note key="40" pan="0" pos="528" vol="100" len="24"/>
          <note key="40" pan="0" pos="552" vol="100" len="24"/>
          <note key="38" pan="0" pos="576" vol="46" len="36"/>
          <note key="38" pan="0" pos="624" vol="46" len="24"/>
          <note key="41" pan="0" pos="648" vol="100" len="24"/>
          <note key="38" pan="0" pos="672" vol="100" len="24"/>
          <note key="40" pan="0" pos="696" vol="100" len="24"/>
          <note key="40" pan="0" pos="720" vol="100" len="24"/>
          <note key="40" pan="0" pos="744" vol="100" len="24"/>
        </pattern>
        <pattern type="1" name="" pos="768" steps="16" muted="0">
          <note key="62" pan="0" pos="0" vol="72" len="24"/>
          <note key="62" pan="0" pos="24" vol="44" len="24"/>
          <note key="65" pan="0" pos="48" vol="100" len="24"/>
          <note key="62" pan="0" pos="72" vol="100" len="24"/>
          <note key="64" pan="0" pos="96" vol="100" len="24"/>
          <note key="64" pan="0" pos="120" vol="100" len="24"/>
          <note key="64" pan="0" pos="144" vol="100" len="24"/>
          <note key="62" pan="0" pos="168" vol="100" len="24"/>
          <note key="62" pan="0" pos="192" vol="68" len="24"/>
          <note key="62" pan="0" pos="216" vol="44" len="24"/>
          <note key="65" pan="0" pos="240" vol="100" len="24"/>
          <note key="62" pan="0" pos="264" vol="100" len="24"/>
          <note key="64" pan="0" pos="288" vol="100" len="24"/>
          <note key="64" pan="0" pos="312" vol="100" len="24"/>
          <note key="64" pan="0" pos="336" vol="100" len="24"/>
          <note key="62" pan="0" pos="360" vol="100" len="24"/>
          <note key="62" pan="0" pos="384" vol="68" len="24"/>
          <note key="62" pan="0" pos="408" vol="44" len="24"/>
          <note key="65" pan="0" pos="432" vol="100" len="24"/>
          <note key="62" pan="0" pos="456" vol="100" len="24"/>
          <note key="64" pan="0" pos="480" vol="100" len="24"/>
          <note key="64" pan="0" pos="504" vol="100" len="24"/>
          <note key="64" pan="0" pos="528" vol="100" len="24"/>
          <note key="62" pan="0" pos="552" vol="100" len="24"/>
          <note key="62" pan="0" pos="576" vol="70" len="24"/>
          <note key="62" pan="0" pos="600" vol="38" len="24"/>
          <note key="65" pan="0" pos="624" vol="100" len="24"/>
          <note key="62" pan="0" pos="648" vol="100" len="24"/>
          <note key="64" pan="0" pos="672" vol="100" len="24"/>
          <note key="64" pan="0" pos="696" vol="100" len="24"/>
          <note key="64" pan="0" pos="720" vol="100" len="24"/>
          <note key="62" pan="0" pos="744" vol="100" len="24"/>
          <note key="62" pan="0" pos="768" vol="72" len="24"/>
          <note key="62" pan="0" pos="792" vol="44" len="24"/>
          <note key="65" pan="0" pos="816" vol="100" len="24"/>
          <note key="62" pan="0" pos="840" vol="100" len="24"/>
          <note key="64" pan="0" pos="864" vol="100" len="24"/>
          <note key="64" pan="0" pos="888" vol="100" len="24"/>
          <note key="64" pan="0" pos="912" vol="100" len="24"/>
          <note key="62" pan="0" pos="936" vol="100" len="24"/>
          <note key="62" pan="0" pos="960" vol="68" len="24"/>
          <note key="62" pan="0" pos="984" vol="44" len="24"/>
          <note key="65" pan="0" pos="1008" vol="100" len="24"/>
          <note key="62" pan="0" pos="1032" vol="100" len="24"/>
          <note key="64" pan="0" pos="1056" vol="100" len="24"/>
          <note key="64" pan="0" pos="1080" vol="100" len="24"/>
          <note key="64" pan="0" pos="1104" vol="100" len="24"/>
          <note key="62" pan="0" pos="1128" vol="100" len="24"/>
          <note key="62" pan="0" pos="1152" vol="68" len="24"/>
          <note key="62" pan="0" pos="1176" vol="44" len="24"/>
          <note key="65" pan="0" pos="1200" vol="100" len="24"/>
          <note key="62" pan="0" pos="1224" vol="100" len="24"/>
          <note key="64" pan="0" pos="1248" vol="100" len="24"/>
          <note key="64" pan="0" pos="1272" vol="100" len="24"/>
          <note key="64" pan="0" pos="1296" vol="100" len="24"/>
          <note key="62" pan="0" pos="1320" vol="100" len="24"/>
          <note key="62" pan="0" pos="1344" vol="70" len="24"/>
          <note key="62" pan="0" pos="1368" vol="38" len="24"/>
          <note key="65" pan="0" pos="1392" vol="100" len="24"/>
          <note key="62" pan="0" pos="1416" vol="100" len="24"/>
          <note key="64" pan="0" pos="1440" vol="100" len="24"/>
          <note key="64" pan="0" pos="1464" vol="100" len="24"/>
          <note key="64" pan="0" pos="1488" vol="100" len="24"/>
          <note key="62" pan="0" pos="1512" vol="100" len="24"/>
        </pattern>
        <pattern type="1" name="" pos="4608" steps="16" muted="0">
          <note key="62" pan="0" pos="0" vol="100" len="24"/>
          <note key="65" pan="0" pos="48" vol="100" len="24"/>
          <note key="62" pan="0" pos="72" vol="100" len="24"/>
          <note key="64" pan="0" pos="120" vol="100" len="12"/>
          <note key="64" pan="0" pos="132" vol="100" len="12"/>
          <note key="64" pan="0" pos="144" vol="100" len="24"/>
          <note key="62" pan="0" pos="168" vol="100" len="24"/>
          <note key="62" pan="0" pos="216" vol="100" len="24"/>
          <note key="65" pan="0" pos="240" vol="100" len="24"/>
          <note key="62" pan="0" pos="264" vol="100" len="24"/>
          <note key="64" pan="0" pos="288" vol="100" len="12"/>
          <note key="64" pan="0" pos="300" vol="100" len="12"/>
          <note key="64" pan="0" pos="312" vol="100" len="24"/>
          <note key="64" pan="0" pos="336" vol="100" len="24"/>
          <note key="64" pan="0" pos="360" vol="100" len="24"/>
          <note key="62" pan="0" pos="384" vol="100" len="24"/>
          <note key="65" pan="0" pos="432" vol="100" len="24"/>
          <note key="62" pan="0" pos="456" vol="100" len="24"/>
          <note key="64" pan="0" pos="504" vol="100" len="12"/>
          <note key="64" pan="0" pos="516" vol="100" len="12"/>
          <note key="64" pan="0" pos="528" vol="100" len="24"/>
          <note key="62" pan="0" pos="552" vol="100" len="24"/>
          <note key="62" pan="0" pos="600" vol="100" len="24"/>
          <note key="65" pan="0" pos="624" vol="100" len="24"/>
          <note key="62" pan="0" pos="648" vol="100" len="24"/>
          <note key="64" pan="0" pos="672" vol="100" len="24"/>
          <note key="64" pan="0" pos="696" vol="100" len="12"/>
          <note key="64" pan="0" pos="708" vol="100" len="36"/>
          <note key="64" pan="0" pos="744" vol="100" len="24"/>
          <note key="57" pan="0" pos="768" vol="100" len="24"/>
          <note key="60" pan="0" pos="816" vol="100" len="24"/>
          <note key="57" pan="0" pos="840" vol="100" len="24"/>
          <note key="59" pan="0" pos="888" vol="100" len="12"/>
          <note key="59" pan="0" pos="900" vol="100" len="12"/>
          <note key="59" pan="0" pos="912" vol="100" len="24"/>
          <note key="57" pan="0" pos="936" vol="100" len="24"/>
          <note key="57" pan="0" pos="984" vol="100" len="24"/>
          <note key="60" pan="0" pos="1008" vol="100" len="24"/>
          <note key="57" pan="0" pos="1032" vol="100" len="24"/>
          <note key="59" pan="0" pos="1056" vol="100" len="12"/>
          <note key="59" pan="0" pos="1068" vol="100" len="12"/>
          <note key="59" pan="0" pos="1080" vol="100" len="24"/>
          <note key="59" pan="0" pos="1104" vol="100" len="24"/>
          <note key="59" pan="0" pos="1128" vol="100" len="24"/>
          <note key="57" pan="0" pos="1152" vol="100" len="24"/>
          <note key="60" pan="0" pos="1200" vol="100" len="24"/>
          <note key="57" pan="0" pos="1224" vol="100" len="24"/>
          <note key="59" pan="0" pos="1272" vol="100" len="12"/>
          <note key="59" pan="0" pos="1284" vol="100" len="12"/>
          <note key="59" pan="0" pos="1296" vol="100" len="24"/>
          <note key="57" pan="0" pos="1320" vol="100" len="24"/>
          <note key="57" pan="0" pos="1368" vol="100" len="24"/>
          <note key="60" pan="0" pos="1392" vol="100" len="24"/>
          <note key="57" pan="0" pos="1416" vol="100" len="24"/>
          <note key="59" pan="0" pos="1440" vol="100" len="36"/>
          <note key="60" pan="0" pos="1476" vol="100" len="36"/>
          <note key="61" pan="0" pos="1512" vol="100" len="24"/>
        </pattern>
        <pattern type="1" name="" pos="6144" steps="16" muted="0">
          <note key="62" pan="0" pos="0" vol="100" len="24"/>
          <note key="65" pan="0" pos="48" vol="100" len="24"/>
          <note key="62" pan="0" pos="72" vol="100" len="24"/>
          <note key="64" pan="0" pos="120" vol="100" len="12"/>
          <note key="64" pan="0" pos="132" vol="100" len="12"/>
          <note key="64" pan="0" pos="144" vol="100" len="24"/>
          <note key="62" pan="0" pos="168" vol="100" len="24"/>
          <note key="62" pan="0" pos="216" vol="100" len="24"/>
          <note key="65" pan="0" pos="240" vol="100" len="24"/>
          <note key="62" pan="0" pos="264" vol="100" len="24"/>
          <note key="64" pan="0" pos="288" vol="100" len="12"/>
          <note key="64" pan="0" pos="300" vol="100" len="12"/>
          <note key="64" pan="0" pos="312" vol="100" len="24"/>
          <note key="64" pan="0" pos="336" vol="100" len="24"/>
          <note key="64" pan="0" pos="360" vol="100" len="24"/>
          <note key="62" pan="0" pos="384" vol="100" len="24"/>
          <note key="65" pan="0" pos="432" vol="100" len="24"/>
          <note key="62" pan="0" pos="456" vol="100" len="24"/>
          <note key="64" pan="0" pos="504" vol="100" len="12"/>
          <note key="64" pan="0" pos="516" vol="100" len="12"/>
          <note key="64" pan="0" pos="528" vol="100" len="24"/>
          <note key="62" pan="0" pos="552" vol="100" len="24"/>
          <note key="62" pan="0" pos="600" vol="100" len="24"/>
          <note key="65" pan="0" pos="624" vol="100" len="24"/>
          <note key="62" pan="0" pos="648" vol="100" len="24"/>
          <note key="64" pan="0" pos="672" vol="100" len="24"/>
          <note key="64" pan="0" pos="696" vol="100" len="12"/>
          <note key="64" pan="0" pos="708" vol="100" len="36"/>
          <note key="64" pan="0" pos="744" vol="100" len="24"/>
          <note key="57" pan="0" pos="768" vol="100" len="24"/>
          <note key="60" pan="0" pos="816" vol="100" len="24"/>
          <note key="57" pan="0" pos="840" vol="100" len="24"/>
          <note key="59" pan="0" pos="888" vol="100" len="12"/>
          <note key="59" pan="0" pos="900" vol="100" len="12"/>
          <note key="59" pan="0" pos="912" vol="100" len="24"/>
          <note key="57" pan="0" pos="936" vol="100" len="24"/>
          <note key="57" pan="0" pos="984" vol="100" len="24"/>
          <note key="60" pan="0" pos="1008" vol="100" len="24"/>
          <note key="57" pan="0" pos="1032" vol="100" len="24"/>
          <note key="59" pan="0" pos="1056" vol="100" len="12"/>
          <note key="59" pan="0" pos="1068" vol="100" len="12"/>
          <note key="59" pan="0" pos="1080" vol="100" len="24"/>
          <note key="59" pan="0" pos="1104" vol="100" len="24"/>
          <note key="59" pan="0" pos="1128" vol="100" len="24"/>
          <note key="57" pan="0" pos="1152" vol="100" len="24"/>
          <note key="60" pan="0" pos="1200" vol="100" len="24"/>
          <note key="57" pan="0" pos="1224" vol="100" len="24"/>
          <note key="59" pan="0" pos="1272" vol="100" len="12"/>
          <note key="59" pan="0" pos="1284" vol="100" len="12"/>
          <note key="59" pan="0" pos="1296" vol="100" len="24"/>
          <note key="57" pan="0" pos="1320" vol="100" len="24"/>
          <note key="57" pan="0" pos="1368" vol="100" len="24"/>
          <note key="60" pan="0" pos="1392" vol="100" len="24"/>
          <note key="57" pan="0" pos="1416" vol="100" len="24"/>
          <note key="59" pan="0" pos="1440" vol="100" len="36"/>
          <note key="60" pan="0" pos="1476" vol="100" len="36"/>
          <note key="61" pan="0" pos="1512" vol="100" len="24"/>
        </pattern>
        <pattern type="1" name="Organic" pos="7680" steps="16" muted="0">
          <note key="62" pan="10" pos="0" vol="106" len="384"/>
        </pattern>
        <pattern type="1" name="" pos="8064" steps="16" muted="0">
          <note key="62" pan="0" pos="0" vol="72" len="24"/>
          <note key="62" pan="0" pos="24" vol="44" len="24"/>
          <note key="65" pan="0" pos="48" vol="100" len="24"/>
          <note key="62" pan="0" pos="72" vol="100" len="24"/>
          <note key="64" pan="0" pos="96" vol="100" len="24"/>
          <note key="64" pan="0" pos="120" vol="100" len="24"/>
          <note key="64" pan="0" pos="144" vol="100" len="24"/>
          <note key="62" pan="0" pos="168" vol="100" len="24"/>
          <note key="62" pan="0" pos="192" vol="68" len="24"/>
          <note key="62" pan="0" pos="216" vol="44" len="24"/>
          <note key="65" pan="0" pos="240" vol="100" len="24"/>
          <note key="62" pan="0" pos="264" vol="100" len="24"/>
          <note key="64" pan="0" pos="288" vol="100" len="24"/>
          <note key="64" pan="0" pos="312" vol="100" len="24"/>
          <note key="64" pan="0" pos="336" vol="100" len="24"/>
          <note key="62" pan="0" pos="360" vol="100" len="24"/>
          <note key="62" pan="0" pos="384" vol="68" len="24"/>
          <note key="62" pan="0" pos="408" vol="44" len="24"/>
          <note key="65" pan="0" pos="432" vol="100" len="24"/>
          <note key="62" pan="0" pos="456" vol="100" len="24"/>
          <note key="64" pan="0" pos="480" vol="100" len="24"/>
          <note key="64" pan="0" pos="504" vol="100" len="24"/>
          <note key="64" pan="0" pos="528" vol="100" len="24"/>
          <note key="62" pan="0" pos="552" vol="100" len="24"/>
          <note key="62" pan="0" pos="576" vol="70" len="24"/>
          <note key="62" pan="0" pos="600" vol="38" len="24"/>
          <note key="65" pan="0" pos="624" vol="100" len="24"/>
          <note key="62" pan="0" pos="648" vol="100" len="24"/>
          <note key="64" pan="0" pos="672" vol="100" len="24"/>
          <note key="64" pan="0" pos="696" vol="100" len="24"/>
          <note key="64" pan="0" pos="720" vol="100" len="24"/>
          <note key="62" pan="0" pos="744" vol="100" len="24"/>
          <note key="62" pan="0" pos="768" vol="72" len="24"/>
          <note key="62" pan="0" pos="792" vol="44" len="24"/>
          <note key="65" pan="0" pos="816" vol="100" len="24"/>
          <note key="62" pan="0" pos="840" vol="100" len="24"/>
          <note key="64" pan="0" pos="864" vol="100" len="24"/>
          <note key="64" pan="0" pos="888" vol="100" len="24"/>
          <note key="64" pan="0" pos="912" vol="100" len="24"/>
          <note key="62" pan="0" pos="936" vol="100" len="24"/>
          <note key="62" pan="0" pos="960" vol="68" len="24"/>
          <note key="62" pan="0" pos="984" vol="44" len="24"/>
          <note key="65" pan="0" pos="1008" vol="100" len="24"/>
          <note key="62" pan="0" pos="1032" vol="100" len="24"/>
          <note key="64" pan="0" pos="1056" vol="100" len="24"/>
          <note key="64" pan="0" pos="1080" vol="100" len="24"/>
          <note key="64" pan="0" pos="1104" vol="100" len="24"/>
          <note key="62" pan="0" pos="1128" vol="100" len="24"/>
          <note key="62" pan="0" pos="1152" vol="68" len="24"/>
          <note key="62" pan="0" pos="1176" vol="44" len="24"/>
          <note key="65" pan="0" pos="1200" vol="100" len="24"/>
          <note key="62" pan="0" pos="1224" vol="100" len="24"/>
          <note key="64" pan="0" pos="1248" vol="100" len="24"/>
          <note key="64" pan="0" pos="1272" vol="100" len="24"/>
          <note key="64" pan="0" pos="1296" vol="100" len="24"/>
          <note key="62" pan="0" pos="1320" vol="100" len="24"/>
          <note key="62" pan="0" pos="1344" vol="70" len="24"/>
          <note key="62" pan="0" pos="1368" vol="38" len="24"/>
          <note key="65" pan="0" pos="1392" vol="100" len="24"/>
          <note key="62" pan="0" pos="1416" vol="100" len="24"/>
          <note key="64" pan="0" pos="1440" vol="100" len="24"/>
          <note key="64" pan="0" pos="1464" vol="100" len="24"/>
          <note key="64" pan="0" pos="1488" vol="100" len="24"/>
          <note key="62" pan="0" pos="1512" vol="100" len="24"/>
        </pattern>
        <pattern type="1" name="" pos="9600" steps="16" muted="0">
          <note key="62" pan="0" pos="0" vol="72" len="24"/>
          <note key="62" pan="0" pos="24" vol="44" len="24"/>
          <note key="65" pan="0" pos="48" vol="100" len="24"/>
          <note key="62" pan="0" pos="72" vol="100" len="24"/>
          <note key="64" pan="0" pos="96" vol="100" len="24"/>
          <note key="64" pan="0" pos="120" vol="100" len="24"/>
          <note key="64" pan="0" pos="144" vol="100" len="24"/>
          <note key="62" pan="0" pos="168" vol="100" len="24"/>
          <note key="62" pan="0" pos="192" vol="68" len="24"/>
          <note key="62" pan="0" pos="216" vol="44" len="24"/>
          <note key="65" pan="0" pos="240" vol="100" len="24"/>
          <note key="62" pan="0" pos="264" vol="100" len="24"/>
          <note key="64" pan="0" pos="288" vol="100" len="24"/>
          <note key="64" pan="0" pos="312" vol="100" len="24"/>
          <note key="64" pan="0" pos="336" vol="100" len="24"/>
          <note key="62" pan="0" pos="360" vol="100" len="24"/>
          <note key="62" pan="0" pos="384" vol="68" len="24"/>
          <note key="62" pan="0" pos="408" vol="44" len="24"/>
          <note key="65" pan="0" pos="432" vol="100" len="24"/>
          <note key="62" pan="0" pos="456" vol="100" len="24"/>
          <note key="64" pan="0" pos="480" vol="100" len="24"/>
          <note key="64" pan="0" pos="504" vol="100" len="24"/>
          <note key="64" pan="0" pos="528" vol="100" len="24"/>
          <note key="62" pan="0" pos="552" vol="100" len="24"/>
          <note key="62" pan="0" pos="576" vol="70" len="24"/>
          <note key="62" pan="0" pos="600" vol="38" len="24"/>
          <note key="65" pan="0" pos="624" vol="100" len="24"/>
          <note key="62" pan="0" pos="648" vol="100" len="24"/>
          <note key="64" pan="0" pos="672" vol="100" len="24"/>
          <note key="64" pan="0" pos="696" vol="100" len="24"/>
          <note key="64" pan="0" pos="720" vol="100" len="24"/>
          <note key="62" pan="0" pos="744" vol="100" len="24"/>
          <note key="62" pan="0" pos="768" vol="72" len="24"/>
          <note key="62" pan="0" pos="792" vol="44" len="24"/>
          <note key="65" pan="0" pos="816" vol="100" len="24"/>
          <note key="62" pan="0" pos="840" vol="100" len="24"/>
          <note key="64" pan="0" pos="864" vol="100" len="24"/>
          <note key="64" pan="0" pos="888" vol="100" len="24"/>
          <note key="64" pan="0" pos="912" vol="100" len="24"/>
          <note key="62" pan="0" pos="936" vol="100" len="24"/>
          <note key="62" pan="0" pos="960" vol="68" len="24"/>
          <note key="62" pan="0" pos="984" vol="44" len="24"/>
          <note key="65" pan="0" pos="1008" vol="100" len="24"/>
          <note key="62" pan="0" pos="1032" vol="100" len="24"/>
          <note key="64" pan="0" pos="1056" vol="100" len="24"/>
          <note key="64" pan="0" pos="1080" vol="100" len="24"/>
          <note key="64" pan="0" pos="1104" vol="100" len="24"/>
          <note key="62" pan="0" pos="1128" vol="100" len="24"/>
          <note key="62" pan="0" pos="1152" vol="68" len="24"/>
          <note key="62" pan="0" pos="1176" vol="44" len="24"/>
          <note key="65" pan="0" pos="1200" vol="100" len="24"/>
          <note key="62" pan="0" pos="1224" vol="100" len="24"/>
          <note key="64" pan="0" pos="1248" vol="100" len="24"/>
          <note key="64" pan="0" pos="1272" vol="100" len="24"/>
          <note key="64" pan="0" pos="1296" vol="100" len="24"/>
          <note key="62" pan="0" pos="1320" vol="100" len="24"/>
          <note key="62" pan="0" pos="1344" vol="70" len="24"/>
          <note key="62" pan="0" pos="1368" vol="38" len="24"/>
          <note key="65" pan="0" pos="1392" vol="100" len="24"/>
          <note key="62" pan="0" pos="1416" vol="100" len="24"/>
          <note key="64" pan="0" pos="1440" vol="100" len="24"/>
          <note key="64" pan="0" pos="1464" vol="100" len="24"/>
          <note key="64" pan="0" pos="1488" vol="100" len="24"/>
          <note key="62" pan="0" pos="1512" vol="100" len="24"/>
        </pattern>
      </track>
      <track solo="0" type="0" name="Organic" muted="0">
        <instrumenttrack pan="0" pitch="0" vol="36" basenote="57" pitchrange="1" usemasterpitch="1" fxch="0">
          <instrument name="organic">
            <organic wavetype4="4" newharmonic2="2" num_osc="8" pan6="0" newharmonic5="5" pan3="0" pan5="0" wavetype2="4" wavetype5="4" pan7="0" vol5="5" wavetype1="2" wavetype0="4" newdetune1="0" vol7="54" vol2="65" vol1="90" pan4="0" newharmonic1="1" wavetype6="3" wavetype7="1" newdetune3="4" newdetune0="-1" foldback="0" vol0="23" newdetune6="2" newharmonic3="3" newharmonic7="7" newdetune4="3" vol="100" newdetune5="-1" vol4="70" pan1="0" newdetune7="1" wavetype3="1" newharmonic0="0" newharmonic6="6" vol3="91" pan2="0" newdetune2="0" newharmonic4="4" pan0="0" vol6="74"/>
          </instrument>
          <eldata fres="0.5" ftype="0" fwet="0" fcut="14000">
            <elvol lspd_syncmode="0" amt="1" hold="0" ctlenvamt="0" rel="0.22800002" x100="0" lspd_numerator="4" lspd_denominator="4" lpdel="0" lshp="0" sustain="0.42400002" lamt="0" latt="0" att="0.040000003" pdel="0" dec="0.42800003" userwavefile="" lspd="0.1"/>
            <elcut lspd_syncmode="0" amt="0" hold="0.5" ctlenvamt="0" rel="0.1" x100="0" lspd_numerator="4" lspd_denominator="4" lpdel="0" lshp="0" sustain="0.5" lamt="0" latt="0" att="0" pdel="0" dec="0.5" userwavefile="" lspd="0.1"/>
            <elres lspd_syncmode="0" amt="0" hold="0.5" ctlenvamt="0" rel="0.1" x100="0" lspd_numerator="4" lspd_denominator="4" lpdel="0" lshp="0" sustain="0.5" lamt="0" latt="0" att="0" pdel="0" dec="0.5" userwavefile="" lspd="0.1"/>
          </eldata>
          <chordcreator chord-enabled="0" chordrange="1" chord="0"/>
          <arpeggiator arp="0" arprange="1" arpmode="0" arpdir="0" arpskip="0" arptime="200" arptime_numerator="4" arp-enabled="0" arpgate="100" arpcycle="0" arptime_denominator="4" arpmiss="0" arptime_syncmode="0"/>
          <midiport fixedoutputvelocity="-1" inputcontroller="0" outputcontroller="0" basevelocity="63" writable="0" readable="0" fixedoutputnote="-1" outputchannel="1" outputprogram="1" inputchannel="0" fixedinputvelocity="-1"/>
          <fxchain numofeffects="2" enabled="1">
            <effect autoquit_syncmode="0" autoquit_denominator="4" autoquit="1" wet="1" name="ladspaeffect" gate="0" autoquit_numerator="4" on="1">
              <ladspacontrols ports="8" link="1">
                <port00 link="1">
                  <data id="1266510" value="1" scale_type="log"/>
                </port00>
                <port01 data="0.63624996" link="1"/>
                <port02 data_syncmode="0" data="251.25" data_numerator="4" data_denominator="4" link="1"/>
                <port03 data_syncmode="0" data="100" data_numerator="4" data_denominator="4" link="1"/>
                <port10>
                  <data id="2329763" value="1" scale_type="log"/>
                </port10>
                <port11 data="0.63624996"/>
                <port12 data_syncmode="0" data="251.25" data_numerator="4" data_denominator="4"/>
                <port13 data_syncmode="0" data="100" data_numerator="4" data_denominator="4"/>
              </ladspacontrols>
              <key>
                <attribute name="file" value="cmt"/>
                <attribute name="plugin" value="compress_peak"/>
              </key>
            </effect>
            <effect autoquit_syncmode="0" autoquit_denominator="4" autoquit="1" wet="1" name="ladspaeffect" gate="0" autoquit_numerator="4" on="1">
              <ladspacontrols ports="10">
                <port00 data="10"/>
                <port01 data="0"/>
                <port02 data="8"/>
                <port03 data="0"/>
                <port04 data="0"/>
                <port05 data="0"/>
                <port06 data="0"/>
                <port07 data="0"/>
                <port08 data="1"/>
                <port09 data="0"/>
              </ladspacontrols>
              <key>
                <attribute name="file" value="tap_echo"/>
                <attribute name="plugin" value="tap_stereo_echo"/>
              </key>
            </effect>
          </fxchain>
        </instrumenttrack>
        <pattern type="1" name="Organic" pos="0" steps="16" muted="0">
          <note key="38" pan="0" pos="0" vol="100" len="36"/>
          <note key="38" pan="0" pos="48" vol="100" len="24"/>
          <note key="38" pan="0" pos="192" vol="100" len="36"/>
          <note key="38" pan="0" pos="240" vol="100" len="24"/>
          <note key="38" pan="0" pos="384" vol="100" len="36"/>
          <note key="38" pan="0" pos="432" vol="100" len="24"/>
          <note key="40" pan="0" pos="576" vol="100" len="36"/>
          <note key="40" pan="0" pos="624" vol="100" len="24"/>
        </pattern>
        <pattern type="1" name="Organic" pos="4608" steps="16" muted="0">
          <note key="50" pan="0" pos="0" vol="44" len="24"/>
          <note key="50" pan="0" pos="0" vol="44" len="24"/>
          <note key="50" pan="0" pos="0" vol="44" len="24"/>
          <note key="50" pan="0" pos="0" vol="44" len="24"/>
          <note key="50" pan="0" pos="24" vol="100" len="24"/>
          <note key="50" pan="0" pos="24" vol="100" len="24"/>
          <note key="50" pan="0" pos="24" vol="100" len="24"/>
          <note key="50" pan="0" pos="24" vol="100" len="24"/>
          <note key="50" pan="0" pos="48" vol="44" len="24"/>
          <note key="50" pan="0" pos="48" vol="44" len="24"/>
          <note key="50" pan="0" pos="48" vol="44" len="24"/>
          <note key="50" pan="0" pos="48" vol="44" len="24"/>
          <note key="50" pan="0" pos="72" vol="100" len="24"/>
          <note key="50" pan="0" pos="72" vol="100" len="24"/>
          <note key="50" pan="0" pos="72" vol="100" len="24"/>
          <note key="50" pan="0" pos="72" vol="100" len="24"/>
          <note key="50" pan="0" pos="96" vol="44" len="24"/>
          <note key="50" pan="0" pos="96" vol="44" len="24"/>
          <note key="50" pan="0" pos="96" vol="44" len="24"/>
          <note key="50" pan="0" pos="96" vol="44" len="24"/>
          <note key="50" pan="0" pos="120" vol="100" len="24"/>
          <note key="50" pan="0" pos="120" vol="100" len="24"/>
          <note key="50" pan="0" pos="120" vol="100" len="24"/>
          <note key="50" pan="0" pos="120" vol="100" len="24"/>
          <note key="50" pan="0" pos="144" vol="44" len="24"/>
          <note key="50" pan="0" pos="144" vol="44" len="24"/>
          <note key="50" pan="0" pos="144" vol="44" len="24"/>
          <note key="50" pan="0" pos="144" vol="44" len="24"/>
          <note key="50" pan="0" pos="168" vol="100" len="24"/>
          <note key="50" pan="0" pos="168" vol="100" len="24"/>
          <note key="50" pan="0" pos="168" vol="100" len="24"/>
          <note key="50" pan="0" pos="168" vol="100" len="24"/>
          <note key="50" pan="0" pos="192" vol="44" len="24"/>
          <note key="50" pan="0" pos="192" vol="44" len="24"/>
          <note key="50" pan="0" pos="192" vol="44" len="24"/>
          <note key="50" pan="0" pos="192" vol="44" len="24"/>
          <note key="50" pan="0" pos="216" vol="100" len="24"/>
          <note key="50" pan="0" pos="216" vol="100" len="24"/>
          <note key="50" pan="0" pos="216" vol="100" len="24"/>
          <note key="50" pan="0" pos="216" vol="100" len="24"/>
          <note key="50" pan="0" pos="240" vol="44" len="24"/>
          <note key="50" pan="0" pos="240" vol="44" len="24"/>
          <note key="50" pan="0" pos="240" vol="44" len="24"/>
          <note key="50" pan="0" pos="240" vol="44" len="24"/>
          <note key="50" pan="0" pos="264" vol="100" len="24"/>
          <note key="50" pan="0" pos="264" vol="100" len="24"/>
          <note key="50" pan="0" pos="264" vol="100" len="24"/>
          <note key="50" pan="0" pos="264" vol="100" len="24"/>
          <note key="50" pan="0" pos="288" vol="44" len="24"/>
          <note key="50" pan="0" pos="288" vol="44" len="24"/>
          <note key="50" pan="0" pos="288" vol="44" len="24"/>
          <note key="50" pan="0" pos="288" vol="44" len="24"/>
          <note key="50" pan="0" pos="312" vol="100" len="24"/>
          <note key="50" pan="0" pos="312" vol="100" len="24"/>
          <note key="50" pan="0" pos="312" vol="100" len="24"/>
          <note key="50" pan="0" pos="312" vol="100" len="24"/>
          <note key="50" pan="0" pos="336" vol="44" len="24"/>
          <note key="50" pan="0" pos="336" vol="44" len="24"/>
          <note key="50" pan="0" pos="336" vol="44" len="24"/>
          <note key="50" pan="0" pos="336" vol="44" len="24"/>
          <note key="50" pan="0" pos="360" vol="100" len="24"/>
          <note key="50" pan="0" pos="360" vol="100" len="24"/>
          <note key="50" pan="0" pos="360" vol="100" len="24"/>
          <note key="50" pan="0" pos="360" vol="100" len="24"/>
          <note key="50" pan="0" pos="384" vol="44" len="24"/>
          <note key="50" pan="0" pos="384" vol="44" len="24"/>
          <note key="50" pan="0" pos="384" vol="44" len="24"/>
          <note key="50" pan="0" pos="384" vol="44" len="24"/>
          <note key="50" pan="0" pos="408" vol="100" len="24"/>
          <note key="50" pan="0" pos="408" vol="100" len="24"/>
          <note key="50" pan="0" pos="408" vol="100" len="24"/>
          <note key="50" pan="0" pos="408" vol="100" len="24"/>
          <note key="50" pan="0" pos="432" vol="44" len="24"/>
          <note key="50" pan="0" pos="432" vol="44" len="24"/>
          <note key="50" pan="0" pos="432" vol="44" len="24"/>
          <note key="50" pan="0" pos="432" vol="44" len="24"/>
          <note key="50" pan="0" pos="456" vol="100" len="24"/>
          <note key="50" pan="0" pos="456" vol="100" len="24"/>
          <note key="50" pan="0" pos="456" vol="100" len="24"/>
          <note key="50" pan="0" pos="456" vol="100" len="24"/>
          <note key="50" pan="0" pos="480" vol="44" len="24"/>
          <note key="50" pan="0" pos="480" vol="44" len="24"/>
          <note key="50" pan="0" pos="480" vol="44" len="24"/>
          <note key="50" pan="0" pos="480" vol="44" len="24"/>
          <note key="50" pan="0" pos="504" vol="100" len="24"/>
          <note key="50" pan="0" pos="504" vol="100" len="24"/>
          <note key="50" pan="0" pos="504" vol="100" len="24"/>
          <note key="50" pan="0" pos="504" vol="100" len="24"/>
          <note key="50" pan="0" pos="528" vol="44" len="24"/>
          <note key="50" pan="0" pos="528" vol="44" len="24"/>
          <note key="50" pan="0" pos="528" vol="44" len="24"/>
          <note key="50" pan="0" pos="528" vol="44" len="24"/>
          <note key="50" pan="0" pos="552" vol="100" len="24"/>
          <note key="50" pan="0" pos="552" vol="100" len="24"/>
          <note key="50" pan="0" pos="552" vol="100" len="24"/>
          <note key="50" pan="0" pos="552" vol="100" len="24"/>
          <note key="50" pan="0" pos="576" vol="44" len="24"/>
          <note key="50" pan="0" pos="576" vol="44" len="24"/>
          <note key="50" pan="0" pos="576" vol="44" len="24"/>
          <note key="50" pan="0" pos="576" vol="44" len="24"/>
          <note key="50" pan="0" pos="600" vol="100" len="24"/>
          <note key="50" pan="0" pos="600" vol="100" len="24"/>
          <note key="50" pan="0" pos="600" vol="100" len="24"/>
          <note key="50" pan="0" pos="600" vol="100" len="24"/>
          <note key="50" pan="0" pos="624" vol="44" len="24"/>
          <note key="50" pan="0" pos="624" vol="44" len="24"/>
          <note key="50" pan="0" pos="624" vol="44" len="24"/>
          <note key="50" pan="0" pos="624" vol="44" len="24"/>
          <note key="50" pan="0" pos="648" vol="100" len="24"/>
          <note key="50" pan="0" pos="648" vol="100" len="24"/>
          <note key="50" pan="0" pos="648" vol="100" len="24"/>
          <note key="50" pan="0" pos="648" vol="100" len="24"/>
          <note key="50" pan="0" pos="672" vol="44" len="24"/>
          <note key="50" pan="0" pos="672" vol="44" len="24"/>
          <note key="50" pan="0" pos="672" vol="44" len="24"/>
          <note key="50" pan="0" pos="672" vol="44" len="24"/>
          <note key="50" pan="0" pos="696" vol="100" len="24"/>
          <note key="50" pan="0" pos="696" vol="100" len="24"/>
          <note key="50" pan="0" pos="696" vol="100" len="24"/>
          <note key="50" pan="0" pos="696" vol="100" len="24"/>
          <note key="50" pan="0" pos="720" vol="44" len="24"/>
          <note key="50" pan="0" pos="720" vol="44" len="24"/>
          <note key="50" pan="0" pos="720" vol="44" len="24"/>
          <note key="50" pan="0" pos="720" vol="44" len="24"/>
          <note key="50" pan="0" pos="744" vol="100" len="24"/>
          <note key="50" pan="0" pos="744" vol="100" len="24"/>
          <note key="50" pan="0" pos="744" vol="100" len="24"/>
          <note key="50" pan="0" pos="744" vol="100" len="24"/>
          <note key="45" pan="0" pos="768" vol="44" len="24"/>
          <note key="45" pan="0" pos="768" vol="44" len="24"/>
          <note key="45" pan="0" pos="768" vol="44" len="24"/>
          <note key="45" pan="0" pos="768" vol="44" len="24"/>
          <note key="45" pan="0" pos="792" vol="100" len="24"/>
          <note key="45" pan="0" pos="792" vol="100" len="24"/>
          <note key="45" pan="0" pos="792" vol="100" len="24"/>
          <note key="45" pan="0" pos="792" vol="100" len="24"/>
          <note key="45" pan="0" pos="816" vol="44" len="24"/>
          <note key="45" pan="0" pos="816" vol="44" len="24"/>
          <note key="45" pan="0" pos="816" vol="44" len="24"/>
          <note key="45" pan="0" pos="816" vol="44" len="24"/>
          <note key="45" pan="0" pos="840" vol="100" len="24"/>
          <note key="45" pan="0" pos="840" vol="100" len="24"/>
          <note key="45" pan="0" pos="840" vol="100" len="24"/>
          <note key="45" pan="0" pos="840" vol="100" len="24"/>
          <note key="45" pan="0" pos="864" vol="44" len="24"/>
          <note key="45" pan="0" pos="864" vol="44" len="24"/>
          <note key="45" pan="0" pos="864" vol="44" len="24"/>
          <note key="45" pan="0" pos="864" vol="44" len="24"/>
          <note key="45" pan="0" pos="888" vol="100" len="24"/>
          <note key="45" pan="0" pos="888" vol="100" len="24"/>
          <note key="45" pan="0" pos="888" vol="100" len="24"/>
          <note key="45" pan="0" pos="888" vol="100" len="24"/>
          <note key="45" pan="0" pos="912" vol="44" len="24"/>
          <note key="45" pan="0" pos="912" vol="44" len="24"/>
          <note key="45" pan="0" pos="912" vol="44" len="24"/>
          <note key="45" pan="0" pos="912" vol="44" len="24"/>
          <note key="45" pan="0" pos="936" vol="100" len="24"/>
          <note key="45" pan="0" pos="936" vol="100" len="24"/>
          <note key="45" pan="0" pos="936" vol="100" len="24"/>
          <note key="45" pan="0" pos="936" vol="100" len="24"/>
          <note key="45" pan="0" pos="960" vol="44" len="24"/>
          <note key="45" pan="0" pos="960" vol="44" len="24"/>
          <note key="45" pan="0" pos="960" vol="44" len="24"/>
          <note key="45" pan="0" pos="960" vol="44" len="24"/>
          <note key="45" pan="0" pos="984" vol="100" len="24"/>
          <note key="45" pan="0" pos="984" vol="100" len="24"/>
          <note key="45" pan="0" pos="984" vol="100" len="24"/>
          <note key="45" pan="0" pos="984" vol="100" len="24"/>
          <note key="45" pan="0" pos="1008" vol="44" len="24"/>
          <note key="45" pan="0" pos="1008" vol="44" len="24"/>
          <note key="45" pan="0" pos="1008" vol="44" len="24"/>
          <note key="45" pan="0" pos="1008" vol="44" len="24"/>
          <note key="45" pan="0" pos="1032" vol="100" len="24"/>
          <note key="45" pan="0" pos="1032" vol="100" len="24"/>
          <note key="45" pan="0" pos="1032" vol="100" len="24"/>
          <note key="45" pan="0" pos="1032" vol="100" len="24"/>
          <note key="45" pan="0" pos="1056" vol="44" len="24"/>
          <note key="45" pan="0" pos="1056" vol="44" len="24"/>
          <note key="45" pan="0" pos="1056" vol="44" len="24"/>
          <note key="45" pan="0" pos="1056" vol="44" len="24"/>
          <note key="45" pan="0" pos="1080" vol="100" len="24"/>
          <note key="45" pan="0" pos="1080" vol="100" len="24"/>
          <note key="45" pan="0" pos="1080" vol="100" len="24"/>
          <note key="45" pan="0" pos="1080" vol="100" len="24"/>
          <note key="45" pan="0" pos="1104" vol="44" len="24"/>
          <note key="45" pan="0" pos="1104" vol="44" len="24"/>
          <note key="45" pan="0" pos="1104" vol="44" len="24"/>
          <note key="45" pan="0" pos="1104" vol="44" len="24"/>
          <note key="45" pan="0" pos="1128" vol="100" len="24"/>
          <note key="45" pan="0" pos="1128" vol="100" len="24"/>
          <note key="45" pan="0" pos="1128" vol="100" len="24"/>
          <note key="45" pan="0" pos="1128" vol="100" len="24"/>
          <note key="45" pan="0" pos="1152" vol="44" len="24"/>
          <note key="45" pan="0" pos="1152" vol="44" len="24"/>
          <note key="45" pan="0" pos="1152" vol="44" len="24"/>
          <note key="45" pan="0" pos="1152" vol="44" len="24"/>
          <note key="45" pan="0" pos="1176" vol="100" len="24"/>
          <note key="45" pan="0" pos="1176" vol="100" len="24"/>
          <note key="45" pan="0" pos="1176" vol="100" len="24"/>
          <note key="45" pan="0" pos="1176" vol="100" len="24"/>
          <note key="45" pan="0" pos="1200" vol="44" len="24"/>
          <note key="45" pan="0" pos="1200" vol="44" len="24"/>
          <note key="45" pan="0" pos="1200" vol="44" len="24"/>
          <note key="45" pan="0" pos="1200" vol="44" len="24"/>
          <note key="45" pan="0" pos="1224" vol="100" len="24"/>
          <note key="45" pan="0" pos="1224" vol="100" len="24"/>
          <note key="45" pan="0" pos="1224" vol="100" len="24"/>
          <note key="45" pan="0" pos="1224" vol="100" len="24"/>
          <note key="45" pan="0" pos="1248" vol="44" len="24"/>
          <note key="45" pan="0" pos="1248" vol="44" len="24"/>
          <note key="45" pan="0" pos="1248" vol="44" len="24"/>
          <note key="45" pan="0" pos="1248" vol="44" len="24"/>
          <note key="45" pan="0" pos="1272" vol="100" len="24"/>
          <note key="45" pan="0" pos="1272" vol="100" len="24"/>
          <note key="45" pan="0" pos="1272" vol="100" len="24"/>
          <note key="45" pan="0" pos="1272" vol="100" len="24"/>
          <note key="45" pan="0" pos="1296" vol="44" len="24"/>
          <note key="45" pan="0" pos="1296" vol="44" len="24"/>
          <note key="45" pan="0" pos="1296" vol="44" len="24"/>
          <note key="45" pan="0" pos="1296" vol="44" len="24"/>
          <note key="45" pan="0" pos="1320" vol="100" len="24"/>
          <note key="45" pan="0" pos="1320" vol="100" len="24"/>
          <note key="45" pan="0" pos="1320" vol="100" len="24"/>
          <note key="45" pan="0" pos="1320" vol="100" len="24"/>
          <note key="45" pan="0" pos="1344" vol="44" len="24"/>
          <note key="45" pan="0" pos="1344" vol="44" len="24"/>
          <note key="45" pan="0" pos="1344" vol="44" len="24"/>
          <note key="45" pan="0" pos="1344" vol="44" len="24"/>
          <note key="45" pan="0" pos="1368" vol="100" len="24"/>
          <note key="45" pan="0" pos="1368" vol="100" len="24"/>
          <note key="45" pan="0" pos="1368" vol="100" len="24"/>
          <note key="45" pan="0" pos="1368" vol="100" len="24"/>
          <note key="45" pan="0" pos="1392" vol="44" len="24"/>
          <note key="45" pan="0" pos="1392" vol="44" len="24"/>
          <note key="45" pan="0" pos="1392" vol="44" len="24"/>
          <note key="45" pan="0" pos="1392" vol="44" len="24"/>
          <note key="45" pan="0" pos="1416" vol="100" len="24"/>
          <note key="45" pan="0" pos="1416" vol="100" len="24"/>
          <note key="45" pan="0" pos="1416" vol="100" len="24"/>
          <note key="45" pan="0" pos="1416" vol="100" len="24"/>
          <note key="45" pan="0" pos="1440" vol="44" len="24"/>
          <note key="45" pan="0" pos="1440" vol="44" len="24"/>
          <note key="45" pan="0" pos="1440" vol="44" len="24"/>
          <note key="45" pan="0" pos="1440" vol="44" len="24"/>
          <note key="45" pan="0" pos="1464" vol="100" len="24"/>
          <note key="45" pan="0" pos="1464" vol="100" len="24"/>
          <note key="45" pan="0" pos="1464" vol="100" len="24"/>
          <note key="45" pan="0" pos="1464" vol="100" len="24"/>
          <note key="45" pan="0" pos="1488" vol="44" len="24"/>
          <note key="45" pan="0" pos="1488" vol="44" len="24"/>
          <note key="45" pan="0" pos="1488" vol="44" len="24"/>
          <note key="45" pan="0" pos="1488" vol="44" len="24"/>
          <note key="45" pan="0" pos="1512" vol="100" len="24"/>
          <note key="45" pan="0" pos="1512" vol="100" len="24"/>
          <note key="45" pan="0" pos="1512" vol="100" len="24"/>
          <note key="45" pan="0" pos="1512" vol="100" len="24"/>
        </pattern>
        <pattern type="1" name="Organic" pos="8064" steps="16" muted="0">
          <note key="38" pan="0" pos="0" vol="106" len="24"/>
          <note key="38" pan="0" pos="24" vol="106" len="36"/>
          <note key="38" pan="0" pos="72" vol="100" len="24"/>
          <note key="38" pan="0" pos="120" vol="100" len="24"/>
          <note key="38" pan="0" pos="168" vol="106" len="24"/>
          <note key="38" pan="0" pos="192" vol="106" len="24"/>
          <note key="38" pan="0" pos="216" vol="106" len="36"/>
          <note key="38" pan="0" pos="264" vol="100" len="24"/>
          <note key="38" pan="0" pos="312" vol="100" len="24"/>
          <note key="38" pan="0" pos="360" vol="106" len="24"/>
          <note key="38" pan="0" pos="384" vol="106" len="24"/>
          <note key="38" pan="0" pos="408" vol="106" len="36"/>
          <note key="38" pan="0" pos="456" vol="100" len="24"/>
          <note key="38" pan="0" pos="504" vol="100" len="24"/>
          <note key="38" pan="0" pos="552" vol="106" len="24"/>
          <note key="38" pan="0" pos="576" vol="106" len="24"/>
          <note key="38" pan="0" pos="600" vol="106" len="36"/>
          <note key="38" pan="0" pos="648" vol="100" len="24"/>
          <note key="38" pan="0" pos="696" vol="100" len="24"/>
          <note key="38" pan="0" pos="744" vol="106" len="24"/>
          <note key="38" pan="0" pos="768" vol="106" len="24"/>
          <note key="38" pan="0" pos="792" vol="106" len="36"/>
          <note key="38" pan="0" pos="840" vol="100" len="24"/>
          <note key="38" pan="0" pos="888" vol="100" len="24"/>
          <note key="38" pan="0" pos="936" vol="106" len="24"/>
          <note key="38" pan="0" pos="960" vol="106" len="24"/>
          <note key="38" pan="0" pos="984" vol="106" len="36"/>
          <note key="38" pan="0" pos="1032" vol="100" len="24"/>
          <note key="38" pan="0" pos="1080" vol="100" len="24"/>
          <note key="38" pan="0" pos="1128" vol="106" len="24"/>
          <note key="38" pan="0" pos="1152" vol="106" len="24"/>
          <note key="38" pan="0" pos="1176" vol="106" len="36"/>
          <note key="38" pan="0" pos="1224" vol="100" len="24"/>
          <note key="38" pan="0" pos="1272" vol="100" len="24"/>
          <note key="38" pan="0" pos="1320" vol="106" len="24"/>
          <note key="38" pan="0" pos="1344" vol="106" len="24"/>
          <note key="38" pan="0" pos="1368" vol="106" len="36"/>
          <note key="38" pan="0" pos="1416" vol="100" len="24"/>
          <note key="38" pan="0" pos="1464" vol="100" len="24"/>
          <note key="38" pan="0" pos="1512" vol="106" len="24"/>
        </pattern>
        <pattern type="1" name="" pos="6144" steps="16" muted="0">
          <note key="50" pan="0" pos="0" vol="44" len="24"/>
          <note key="50" pan="0" pos="0" vol="44" len="24"/>
          <note key="50" pan="0" pos="0" vol="44" len="24"/>
          <note key="50" pan="0" pos="0" vol="44" len="24"/>
          <note key="50" pan="0" pos="24" vol="100" len="24"/>
          <note key="50" pan="0" pos="24" vol="100" len="24"/>
          <note key="50" pan="0" pos="24" vol="100" len="24"/>
          <note key="50" pan="0" pos="24" vol="100" len="24"/>
          <note key="50" pan="0" pos="48" vol="44" len="24"/>
          <note key="50" pan="0" pos="48" vol="44" len="24"/>
          <note key="50" pan="0" pos="48" vol="44" len="24"/>
          <note key="50" pan="0" pos="48" vol="44" len="24"/>
          <note key="50" pan="0" pos="72" vol="100" len="24"/>
          <note key="50" pan="0" pos="72" vol="100" len="24"/>
          <note key="50" pan="0" pos="72" vol="100" len="24"/>
          <note key="50" pan="0" pos="72" vol="100" len="24"/>
          <note key="50" pan="0" pos="96" vol="44" len="24"/>
          <note key="50" pan="0" pos="96" vol="44" len="24"/>
          <note key="50" pan="0" pos="96" vol="44" len="24"/>
          <note key="50" pan="0" pos="96" vol="44" len="24"/>
          <note key="50" pan="0" pos="120" vol="100" len="24"/>
          <note key="50" pan="0" pos="120" vol="100" len="24"/>
          <note key="50" pan="0" pos="120" vol="100" len="24"/>
          <note key="50" pan="0" pos="120" vol="100" len="24"/>
          <note key="50" pan="0" pos="144" vol="44" len="24"/>
          <note key="50" pan="0" pos="144" vol="44" len="24"/>
          <note key="50" pan="0" pos="144" vol="44" len="24"/>
          <note key="50" pan="0" pos="144" vol="44" len="24"/>
          <note key="50" pan="0" pos="168" vol="100" len="24"/>
          <note key="50" pan="0" pos="168" vol="100" len="24"/>
          <note key="50" pan="0" pos="168" vol="100" len="24"/>
          <note key="50" pan="0" pos="168" vol="100" len="24"/>
          <note key="50" pan="0" pos="192" vol="44" len="24"/>
          <note key="50" pan="0" pos="192" vol="44" len="24"/>
          <note key="50" pan="0" pos="192" vol="44" len="24"/>
          <note key="50" pan="0" pos="192" vol="44" len="24"/>
          <note key="50" pan="0" pos="216" vol="100" len="24"/>
          <note key="50" pan="0" pos="216" vol="100" len="24"/>
          <note key="50" pan="0" pos="216" vol="100" len="24"/>
          <note key="50" pan="0" pos="216" vol="100" len="24"/>
          <note key="50" pan="0" pos="240" vol="44" len="24"/>
          <note key="50" pan="0" pos="240" vol="44" len="24"/>
          <note key="50" pan="0" pos="240" vol="44" len="24"/>
          <note key="50" pan="0" pos="240" vol="44" len="24"/>
          <note key="50" pan="0" pos="264" vol="100" len="24"/>
          <note key="50" pan="0" pos="264" vol="100" len="24"/>
          <note key="50" pan="0" pos="264" vol="100" len="24"/>
          <note key="50" pan="0" pos="264" vol="100" len="24"/>
          <note key="50" pan="0" pos="288" vol="44" len="24"/>
          <note key="50" pan="0" pos="288" vol="44" len="24"/>
          <note key="50" pan="0" pos="288" vol="44" len="24"/>
          <note key="50" pan="0" pos="288" vol="44" len="24"/>
          <note key="50" pan="0" pos="312" vol="100" len="24"/>
          <note key="50" pan="0" pos="312" vol="100" len="24"/>
          <note key="50" pan="0" pos="312" vol="100" len="24"/>
          <note key="50" pan="0" pos="312" vol="100" len="24"/>
          <note key="50" pan="0" pos="336" vol="44" len="24"/>
          <note key="50" pan="0" pos="336" vol="44" len="24"/>
          <note key="50" pan="0" pos="336" vol="44" len="24"/>
          <note key="50" pan="0" pos="336" vol="44" len="24"/>
          <note key="50" pan="0" pos="360" vol="100" len="24"/>
          <note key="50" pan="0" pos="360" vol="100" len="24"/>
          <note key="50" pan="0" pos="360" vol="100" len="24"/>
          <note key="50" pan="0" pos="360" vol="100" len="24"/>
          <note key="50" pan="0" pos="384" vol="44" len="24"/>
          <note key="50" pan="0" pos="384" vol="44" len="24"/>
          <note key="50" pan="0" pos="384" vol="44" len="24"/>
          <note key="50" pan="0" pos="384" vol="44" len="24"/>
          <note key="50" pan="0" pos="408" vol="100" len="24"/>
          <note key="50" pan="0" pos="408" vol="100" len="24"/>
          <note key="50" pan="0" pos="408" vol="100" len="24"/>
          <note key="50" pan="0" pos="408" vol="100" len="24"/>
          <note key="50" pan="0" pos="432" vol="44" len="24"/>
          <note key="50" pan="0" pos="432" vol="44" len="24"/>
          <note key="50" pan="0" pos="432" vol="44" len="24"/>
          <note key="50" pan="0" pos="432" vol="44" len="24"/>
          <note key="50" pan="0" pos="456" vol="100" len="24"/>
          <note key="50" pan="0" pos="456" vol="100" len="24"/>
          <note key="50" pan="0" pos="456" vol="100" len="24"/>
          <note key="50" pan="0" pos="456" vol="100" len="24"/>
          <note key="50" pan="0" pos="480" vol="44" len="24"/>
          <note key="50" pan="0" pos="480" vol="44" len="24"/>
          <note key="50" pan="0" pos="480" vol="44" len="24"/>
          <note key="50" pan="0" pos="480" vol="44" len="24"/>
          <note key="50" pan="0" pos="504" vol="100" len="24"/>
          <note key="50" pan="0" pos="504" vol="100" len="24"/>
          <note key="50" pan="0" pos="504" vol="100" len="24"/>
          <note key="50" pan="0" pos="504" vol="100" len="24"/>
          <note key="50" pan="0" pos="528" vol="44" len="24"/>
          <note key="50" pan="0" pos="528" vol="44" len="24"/>
          <note key="50" pan="0" pos="528" vol="44" len="24"/>
          <note key="50" pan="0" pos="528" vol="44" len="24"/>
          <note key="50" pan="0" pos="552" vol="100" len="24"/>
          <note key="50" pan="0" pos="552" vol="100" len="24"/>
          <note key="50" pan="0" pos="552" vol="100" len="24"/>
          <note key="50" pan="0" pos="552" vol="100" len="24"/>
          <note key="50" pan="0" pos="576" vol="44" len="24"/>
          <note key="50" pan="0" pos="576" vol="44" len="24"/>
          <note key="50" pan="0" pos="576" vol="44" len="24"/>
          <note key="50" pan="0" pos="576" vol="44" len="24"/>
          <note key="50" pan="0" pos="600" vol="100" len="24"/>
          <note key="50" pan="0" pos="600" vol="100" len="24"/>
          <note key="50" pan="0" pos="600" vol="100" len="24"/>
          <note key="50" pan="0" pos="600" vol="100" len="24"/>
          <note key="50" pan="0" pos="624" vol="44" len="24"/>
          <note key="50" pan="0" pos="624" vol="44" len="24"/>
          <note key="50" pan="0" pos="624" vol="44" len="24"/>
          <note key="50" pan="0" pos="624" vol="44" len="24"/>
          <note key="50" pan="0" pos="648" vol="100" len="24"/>
          <note key="50" pan="0" pos="648" vol="100" len="24"/>
          <note key="50" pan="0" pos="648" vol="100" len="24"/>
          <note key="50" pan="0" pos="648" vol="100" len="24"/>
          <note key="50" pan="0" pos="672" vol="44" len="24"/>
          <note key="50" pan="0" pos="672" vol="44" len="24"/>
          <note key="50" pan="0" pos="672" vol="44" len="24"/>
          <note key="50" pan="0" pos="672" vol="44" len="24"/>
          <note key="50" pan="0" pos="696" vol="100" len="24"/>
          <note key="50" pan="0" pos="696" vol="100" len="24"/>
          <note key="50" pan="0" pos="696" vol="100" len="24"/>
          <note key="50" pan="0" pos="696" vol="100" len="24"/>
          <note key="50" pan="0" pos="720" vol="44" len="24"/>
          <note key="50" pan="0" pos="720" vol="44" len="24"/>
          <note key="50" pan="0" pos="720" vol="44" len="24"/>
          <note key="50" pan="0" pos="720" vol="44" len="24"/>
          <note key="50" pan="0" pos="744" vol="100" len="24"/>
          <note key="50" pan="0" pos="744" vol="100" len="24"/>
          <note key="50" pan="0" pos="744" vol="100" len="24"/>
          <note key="50" pan="0" pos="744" vol="100" len="24"/>
          <note key="45" pan="0" pos="768" vol="44" len="24"/>
          <note key="45" pan="0" pos="768" vol="44" len="24"/>
          <note key="45" pan="0" pos="768" vol="44" len="24"/>
          <note key="45" pan="0" pos="768" vol="44" len="24"/>
          <note key="45" pan="0" pos="792" vol="100" len="24"/>
          <note key="45" pan="0" pos="792" vol="100" len="24"/>
          <note key="45" pan="0" pos="792" vol="100" len="24"/>
          <note key="45" pan="0" pos="792" vol="100" len="24"/>
          <note key="45" pan="0" pos="816" vol="44" len="24"/>
          <note key="45" pan="0" pos="816" vol="44" len="24"/>
          <note key="45" pan="0" pos="816" vol="44" len="24"/>
          <note key="45" pan="0" pos="816" vol="44" len="24"/>
          <note key="45" pan="0" pos="840" vol="100" len="24"/>
          <note key="45" pan="0" pos="840" vol="100" len="24"/>
          <note key="45" pan="0" pos="840" vol="100" len="24"/>
          <note key="45" pan="0" pos="840" vol="100" len="24"/>
          <note key="45" pan="0" pos="864" vol="44" len="24"/>
          <note key="45" pan="0" pos="864" vol="44" len="24"/>
          <note key="45" pan="0" pos="864" vol="44" len="24"/>
          <note key="45" pan="0" pos="864" vol="44" len="24"/>
          <note key="45" pan="0" pos="888" vol="100" len="24"/>
          <note key="45" pan="0" pos="888" vol="100" len="24"/>
          <note key="45" pan="0" pos="888" vol="100" len="24"/>
          <note key="45" pan="0" pos="888" vol="100" len="24"/>
          <note key="45" pan="0" pos="912" vol="44" len="24"/>
          <note key="45" pan="0" pos="912" vol="44" len="24"/>
          <note key="45" pan="0" pos="912" vol="44" len="24"/>
          <note key="45" pan="0" pos="912" vol="44" len="24"/>
          <note key="45" pan="0" pos="936" vol="100" len="24"/>
          <note key="45" pan="0" pos="936" vol="100" len="24"/>
          <note key="45" pan="0" pos="936" vol="100" len="24"/>
          <note key="45" pan="0" pos="936" vol="100" len="24"/>
          <note key="45" pan="0" pos="960" vol="44" len="24"/>
          <note key="45" pan="0" pos="960" vol="44" len="24"/>
          <note key="45" pan="0" pos="960" vol="44" len="24"/>
          <note key="45" pan="0" pos="960" vol="44" len="24"/>
          <note key="45" pan="0" pos="984" vol="100" len="24"/>
          <note key="45" pan="0" pos="984" vol="100" len="24"/>
          <note key="45" pan="0" pos="984" vol="100" len="24"/>
          <note key="45" pan="0" pos="984" vol="100" len="24"/>
          <note key="45" pan="0" pos="1008" vol="44" len="24"/>
          <note key="45" pan="0" pos="1008" vol="44" len="24"/>
          <note key="45" pan="0" pos="1008" vol="44" len="24"/>
          <note key="45" pan="0" pos="1008" vol="44" len="24"/>
          <note key="45" pan="0" pos="1032" vol="100" len="24"/>
          <note key="45" pan="0" pos="1032" vol="100" len="24"/>
          <note key="45" pan="0" pos="1032" vol="100" len="24"/>
          <note key="45" pan="0" pos="1032" vol="100" len="24"/>
          <note key="45" pan="0" pos="1056" vol="44" len="24"/>
          <note key="45" pan="0" pos="1056" vol="44" len="24"/>
          <note key="45" pan="0" pos="1056" vol="44" len="24"/>
          <note key="45" pan="0" pos="1056" vol="44" len="24"/>
          <note key="45" pan="0" pos="1080" vol="100" len="24"/>
          <note key="45" pan="0" pos="1080" vol="100" len="24"/>
          <note key="45" pan="0" pos="1080" vol="100" len="24"/>
          <note key="45" pan="0" pos="1080" vol="100" len="24"/>
          <note key="45" pan="0" pos="1104" vol="44" len="24"/>
          <note key="45" pan="0" pos="1104" vol="44" len="24"/>
          <note key="45" pan="0" pos="1104" vol="44" len="24"/>
          <note key="45" pan="0" pos="1104" vol="44" len="24"/>
          <note key="45" pan="0" pos="1128" vol="100" len="24"/>
          <note key="45" pan="0" pos="1128" vol="100" len="24"/>
          <note key="45" pan="0" pos="1128" vol="100" len="24"/>
          <note key="45" pan="0" pos="1128" vol="100" len="24"/>
          <note key="45" pan="0" pos="1152" vol="44" len="24"/>
          <note key="45" pan="0" pos="1152" vol="44" len="24"/>
          <note key="45" pan="0" pos="1152" vol="44" len="24"/>
          <note key="45" pan="0" pos="1152" vol="44" len="24"/>
          <note key="45" pan="0" pos="1176" vol="100" len="24"/>
          <note key="45" pan="0" pos="1176" vol="100" len="24"/>
          <note key="45" pan="0" pos="1176" vol="100" len="24"/>
          <note key="45" pan="0" pos="1176" vol="100" len="24"/>
          <note key="45" pan="0" pos="1200" vol="44" len="24"/>
          <note key="45" pan="0" pos="1200" vol="44" len="24"/>
          <note key="45" pan="0" pos="1200" vol="44" len="24"/>
          <note key="45" pan="0" pos="1200" vol="44" len="24"/>
          <note key="45" pan="0" pos="1224" vol="100" len="24"/>
          <note key="45" pan="0" pos="1224" vol="100" len="24"/>
          <note key="45" pan="0" pos="1224" vol="100" len="24"/>
          <note key="45" pan="0" pos="1224" vol="100" len="24"/>
          <note key="45" pan="0" pos="1248" vol="44" len="24"/>
          <note key="45" pan="0" pos="1248" vol="44" len="24"/>
          <note key="45" pan="0" pos="1248" vol="44" len="24"/>
          <note key="45" pan="0" pos="1248" vol="44" len="24"/>
          <note key="45" pan="0" pos="1272" vol="100" len="24"/>
          <note key="45" pan="0" pos="1272" vol="100" len="24"/>
          <note key="45" pan="0" pos="1272" vol="100" len="24"/>
          <note key="45" pan="0" pos="1272" vol="100" len="24"/>
          <note key="45" pan="0" pos="1296" vol="44" len="24"/>
          <note key="45" pan="0" pos="1296" vol="44" len="24"/>
          <note key="45" pan="0" pos="1296" vol="44" len="24"/>
          <note key="45" pan="0" pos="1296" vol="44" len="24"/>
          <note key="45" pan="0" pos="1320" vol="100" len="24"/>
          <note key="45" pan="0" pos="1320" vol="100" len="24"/>
          <note key="45" pan="0" pos="1320" vol="100" len="24"/>
          <note key="45" pan="0" pos="1320" vol="100" len="24"/>
          <note key="45" pan="0" pos="1344" vol="44" len="24"/>
          <note key="45" pan="0" pos="1344" vol="44" len="24"/>
          <note key="45" pan="0" pos="1344" vol="44" len="24"/>
          <note key="45" pan="0" pos="1344" vol="44" len="24"/>
          <note key="45" pan="0" pos="1368" vol="100" len="24"/>
          <note key="45" pan="0" pos="1368" vol="100" len="24"/>
          <note key="45" pan="0" pos="1368" vol="100" len="24"/>
          <note key="45" pan="0" pos="1368" vol="100" len="24"/>
          <note key="45" pan="0" pos="1392" vol="44" len="24"/>
          <note key="45" pan="0" pos="1392" vol="44" len="24"/>
          <note key="45" pan="0" pos="1392" vol="44" len="24"/>
          <note key="45" pan="0" pos="1392" vol="44" len="24"/>
          <note key="45" pan="0" pos="1416" vol="100" len="24"/>
          <note key="45" pan="0" pos="1416" vol="100" len="24"/>
          <note key="45" pan="0" pos="1416" vol="100" len="24"/>
          <note key="45" pan="0" pos="1416" vol="100" len="24"/>
          <note key="45" pan="0" pos="1440" vol="44" len="24"/>
          <note key="45" pan="0" pos="1440" vol="44" len="24"/>
          <note key="45" pan="0" pos="1440" vol="44" len="24"/>
          <note key="45" pan="0" pos="1440" vol="44" len="24"/>
          <note key="45" pan="0" pos="1464" vol="100" len="24"/>
          <note key="45" pan="0" pos="1464" vol="100" len="24"/>
          <note key="45" pan="0" pos="1464" vol="100" len="24"/>
          <note key="45" pan="0" pos="1464" vol="100" len="24"/>
          <note key="45" pan="0" pos="1488" vol="44" len="24"/>
          <note key="45" pan="0" pos="1488" vol="44" len="24"/>
          <note key="45" pan="0" pos="1488" vol="44" len="24"/>
          <note key="45" pan="0" pos="1488" vol="44" len="24"/>
          <note key="45" pan="0" pos="1512" vol="100" len="24"/>
          <note key="45" pan="0" pos="1512" vol="100" len="24"/>
          <note key="45" pan="0" pos="1512" vol="100" len="24"/>
          <note key="45" pan="0" pos="1512" vol="100" len="24"/>
        </pattern>
        <pattern type="1" name="" pos="7680" steps="16" muted="0">
          <note key="62" pan="10" pos="0" vol="106" len="384"/>
        </pattern>
        <pattern type="1" name="" pos="768" steps="16" muted="0">
          <note key="38" pan="0" pos="0" vol="106" len="24"/>
          <note key="38" pan="0" pos="24" vol="106" len="36"/>
          <note key="38" pan="0" pos="72" vol="100" len="24"/>
          <note key="38" pan="0" pos="120" vol="100" len="24"/>
          <note key="38" pan="0" pos="168" vol="106" len="24"/>
          <note key="38" pan="0" pos="192" vol="106" len="24"/>
          <note key="38" pan="0" pos="216" vol="106" len="36"/>
          <note key="38" pan="0" pos="264" vol="100" len="24"/>
          <note key="38" pan="0" pos="312" vol="100" len="24"/>
          <note key="38" pan="0" pos="360" vol="106" len="24"/>
          <note key="38" pan="0" pos="384" vol="106" len="24"/>
          <note key="38" pan="0" pos="408" vol="106" len="36"/>
          <note key="38" pan="0" pos="456" vol="100" len="24"/>
          <note key="38" pan="0" pos="504" vol="100" len="24"/>
          <note key="38" pan="0" pos="552" vol="106" len="24"/>
          <note key="38" pan="0" pos="576" vol="106" len="24"/>
          <note key="38" pan="0" pos="600" vol="106" len="36"/>
          <note key="38" pan="0" pos="648" vol="100" len="24"/>
          <note key="38" pan="0" pos="696" vol="100" len="24"/>
          <note key="38" pan="0" pos="744" vol="106" len="24"/>
          <note key="38" pan="0" pos="768" vol="106" len="24"/>
          <note key="38" pan="0" pos="792" vol="106" len="36"/>
          <note key="38" pan="0" pos="840" vol="100" len="24"/>
          <note key="38" pan="0" pos="888" vol="100" len="24"/>
          <note key="38" pan="0" pos="936" vol="106" len="24"/>
          <note key="38" pan="0" pos="960" vol="106" len="24"/>
          <note key="38" pan="0" pos="984" vol="106" len="36"/>
          <note key="38" pan="0" pos="1032" vol="100" len="24"/>
          <note key="38" pan="0" pos="1080" vol="100" len="24"/>
          <note key="38" pan="0" pos="1128" vol="106" len="24"/>
          <note key="38" pan="0" pos="1152" vol="106" len="24"/>
          <note key="38" pan="0" pos="1176" vol="106" len="36"/>
          <note key="38" pan="0" pos="1224" vol="100" len="24"/>
          <note key="38" pan="0" pos="1272" vol="100" len="24"/>
          <note key="38" pan="0" pos="1320" vol="106" len="24"/>
          <note key="38" pan="0" pos="1344" vol="106" len="24"/>
          <note key="38" pan="0" pos="1368" vol="106" len="36"/>
          <note key="38" pan="0" pos="1416" vol="100" len="24"/>
          <note key="38" pan="0" pos="1464" vol="100" len="24"/>
          <note key="38" pan="0" pos="1512" vol="106" len="24"/>
        </pattern>
        <pattern type="1" name="" pos="9600" steps="16" muted="0">
          <note key="38" pan="0" pos="0" vol="106" len="24"/>
          <note key="38" pan="0" pos="24" vol="106" len="36"/>
          <note key="38" pan="0" pos="72" vol="100" len="24"/>
          <note key="38" pan="0" pos="120" vol="100" len="24"/>
          <note key="38" pan="0" pos="168" vol="106" len="24"/>
          <note key="38" pan="0" pos="192" vol="106" len="24"/>
          <note key="38" pan="0" pos="216" vol="106" len="36"/>
          <note key="38" pan="0" pos="264" vol="100" len="24"/>
          <note key="38" pan="0" pos="312" vol="100" len="24"/>
          <note key="38" pan="0" pos="360" vol="106" len="24"/>
          <note key="38" pan="0" pos="384" vol="106" len="24"/>
          <note key="38" pan="0" pos="408" vol="106" len="36"/>
          <note key="38" pan="0" pos="456" vol="100" len="24"/>
          <note key="38" pan="0" pos="504" vol="100" len="24"/>
          <note key="38" pan="0" pos="552" vol="106" len="24"/>
          <note key="38" pan="0" pos="576" vol="106" len="24"/>
          <note key="38" pan="0" pos="600" vol="106" len="36"/>
          <note key="38" pan="0" pos="648" vol="100" len="24"/>
          <note key="38" pan="0" pos="696" vol="100" len="24"/>
          <note key="38" pan="0" pos="744" vol="106" len="24"/>
          <note key="38" pan="0" pos="768" vol="106" len="24"/>
          <note key="38" pan="0" pos="792" vol="106" len="36"/>
          <note key="38" pan="0" pos="840" vol="100" len="24"/>
          <note key="38" pan="0" pos="888" vol="100" len="24"/>
          <note key="38" pan="0" pos="936" vol="106" len="24"/>
          <note key="38" pan="0" pos="960" vol="106" len="24"/>
          <note key="38" pan="0" pos="984" vol="106" len="36"/>
          <note key="38" pan="0" pos="1032" vol="100" len="24"/>
          <note key="38" pan="0" pos="1080" vol="100" len="24"/>
          <note key="38" pan="0" pos="1128" vol="106" len="24"/>
          <note key="38" pan="0" pos="1152" vol="106" len="24"/>
          <note key="38" pan="0" pos="1176" vol="106" len="36"/>
          <note key="38" pan="0" pos="1224" vol="100" len="24"/>
          <note key="38" pan="0" pos="1272" vol="100" len="24"/>
          <note key="38" pan="0" pos="1320" vol="106" len="24"/>
          <note key="38" pan="0" pos="1344" vol="106" len="24"/>
          <note key="38" pan="0" pos="1368" vol="106" len="36"/>
          <note key="38" pan="0" pos="1416" vol="100" len="24"/>
          <note key="38" pan="0" pos="1464" vol="100" len="24"/>
          <note key="38" pan="0" pos="1512" vol="106" len="24"/>
        </pattern>
      </track>
      <track solo="0" type="1" name="Beat/Bassline 0" muted="0">
        <bbtrack>
          <trackcontainer visible="0" minimized="0" type="bbtrackcontainer" y="11" width="700" maximized="0" x="839" height="300">
            <track solo="0" type="0" name="Carla Rack" muted="0">
              <instrumenttrack pan="0" pitch="0" vol="80.800003" basenote="57" pitchrange="1" usemasterpitch="1" fxch="0">
                <instrument name="carlarack">
                  <carlarack>
                    <CARLA-PROJECT VERSION="2.5">
                      <EngineSettings>
                        <ForceStereo>false</ForceStereo>
                        <PreferPluginBridges>false</PreferPluginBridges>
                        <PreferUiBridges>true</PreferUiBridges>
                        <UIsAlwaysOnTop>false</UIsAlwaysOnTop>
                        <MaxParameters>200</MaxParameters>
                        <UIBridgesTimeout>4000</UIBridgesTimeout>
                        <LADSPA_PATH>/app/extensions/Plugins/ladspa:/app/lib/ladspa</LADSPA_PATH>
                        <DSSI_PATH>/app/extensions/Plugins/dssi</DSSI_PATH>
                        <LV2_PATH>/var/home/pastthepixels/.lv2:/app/extensions/Plugins/lv2:/app/lib/lv2</LV2_PATH>
                        <VST2_PATH>/app/extensions/Plugins/vst</VST2_PATH>
                        <VST3_PATH>/app/extensions/Plugins/vst3</VST3_PATH>
                        <SF2_PATH>/var/home/pastthepixels/.sounds/sf2:/var/home/pastthepixels/.sounds/sf3:/usr/share/sounds/sf2:/usr/share/sounds/sf3:/usr/share/soundfonts</SF2_PATH>
                        <SFZ_PATH>/var/home/pastthepixels/.sounds/sfz:/usr/share/sounds/sfz</SFZ_PATH>
                        <JSFX_PATH/>
                      </EngineSettings>
                      <!-- Geonkick -->
                      <Plugin>
                        <Info>
                          <Type>LV2</Type>
                          <Name>Geonkick</Name>
                          <URI>http://geontime.com/geonkick</URI>
                        </Info>
                        <Data>
                          <Active>Yes</Active>
                          <ControlChannel>1</ControlChannel>
                          <Options>0x3f0</Options>
                          <CustomData>
                            <Type>http://lv2plug.in/ns/ext/atom#Chunk</Type>
                            <Key>http://geontime.com/geonkick#state</Key>
                            <Value>
eyJVaVNldHRpbmdzIjogCnsKIk1haW5WaWV3IjogMCwgCiJTYW1wbGVzQnJvd3NlciI6IHsgCiAgICAiY3VycmVudERpcmVjdG9yeSI6ICIvdmFyL2hvbWUvcGFzdHRoZXBpeGVscy8udmFyL2FwcC9pby5sbW1zLkxNTVMvZGF0YSIsCiAgICAicHJldmlld0ZpbGUiOiAiIiwKICAgICJwcmV2aWV3TGltaXRlciI6IDAuMDAwMDAsCiAgICAib3NjaWxsYXRvciI6IDAKfSwKInNldHRpbmdzIjogWwpbIkdFT05LSUNLX0NPTkZJRy9VU0VSX1BSRVNFVFNfUEFUSCIsICIvdmFyL2hvbWUvcGFzdHRoZXBpeGVscy8ubG9jYWwvc2hhcmUvZ2VvbmtpY2svcHJlc2V0cyJdLCBbIkdFT05LSUNLX0NPTkZJRy9VU0VSX0RBVEFfUEFUSCIsICIvdmFyL2hvbWUvcGFzdHRoZXBpeGVscy8ubG9jYWwvc2hhcmUvZ2VvbmtpY2siXSwgWyJHRU9OS0lDS19DT05GSUcvSE9NRV9QQVRIIiwgIi92YXIvaG9tZS9wYXN0dGhlcGl4ZWxzLy5sb2NhbC9zaGFyZSJdXQp9CiwgCiJLaXRTdGF0ZSI6IAp7CiJLaXRBcHBWZXJzaW9uIjogMTMzMzc4LAoibmFtZSI6ICJEZWZhdWx0IiwKImF1dGhvciI6ICJVbmtub3duIiwKInVybCI6ICIiLAoicGVyY3Vzc2lvbnMiOiBbCnsKIm9zYzgiOiB7CiJlbmFibGVkIjogZmFsc2UsIAoiaXNfZm0iOiBmYWxzZSwgCiJmdW5jdGlvbiI6IDQsCiJwaGFzZSI6IDAuMDAwMDAsIAoic2VlZCI6IDEwMCwgCiJhbXBsX2VudiI6IHsKImFtcGxpdHVkZSI6IDAuMjYwMDAsIAoicG9pbnRzIjogWwpbIDAuMDAwMDAgLCAxLjAwMDAwXSwgWyAxLjAwMDAwICwgMS4wMDAwMF1dCn0KLAoiZnJlcV9lbnYiOiB7CiJhbXBsaXR1ZGUiOiAxNTAuMDAwMDAsIAoicG9pbnRzIjogWwpdCn0KLAoicGl0Y2hzaGlmdF9lbnYiOiB7CiJhbXBsaXR1ZGUiOiAwLjAwMDAwLCAKInBvaW50cyI6IFsKXQp9CiwKImZpbHRlciI6IHsKImVuYWJsZWQiOiBmYWxzZSwgCiJ0eXBlIjogMCwgCiJjdXRvZmYiOiA4MDAuMDAwMDAsIAoiY3V0b2ZmX2VudiI6IFtbIDAuMDAwMDAgLCAxLjAwMDAwXSwgWyAxLjAwMDAwICwgMS4wMDAwMF1dLCAKImZhY3RvciI6IDEwLjAwMDAwCn0KfQosCiJvc2M3IjogewoiZW5hYmxlZCI6IGZhbHNlLCAKImlzX2ZtIjogZmFsc2UsIAoiZnVuY3Rpb24iOiAwLAoicGhhc2UiOiAwLjAwMDAwLCAKInNlZWQiOiAwLCAKImFtcGxfZW52IjogewoiYW1wbGl0dWRlIjogMC4yNjAwMCwgCiJwb2ludHMiOiBbClsgMC4wMDAwMCAsIDEuMDAwMDBdLCBbIDEuMDAwMDAgLCAxLjAwMDAwXV0KfQosCiJmcmVxX2VudiI6IHsKImFtcGxpdHVkZSI6IDgwMC4wMDAwMCwgCiJwb2ludHMiOiBbClsgMC4wMDAwMCAsIDEuMDAwMDBdLCBbIDEuMDAwMDAgLCAxLjAwMDAwXV0KfQosCiJwaXRjaHNoaWZ0X2VudiI6IHsKImFtcGxpdHVkZSI6IDEyLjAwMDAwLCAKInBvaW50cyI6IFsKWyAwLjAwMDAwICwgMC41MDAwMF0sIFsgMS4wMDAwMCAsIDAuNTAwMDBdXQp9CiwKImZpbHRlciI6IHsKImVuYWJsZWQiOiBmYWxzZSwgCiJ0eXBlIjogMCwgCiJjdXRvZmYiOiA4MDAuMDAwMDAsIAoiY3V0b2ZmX2VudiI6IFtbIDAuMDAwMDAgLCAxLjAwMDAwXSwgWyAxLjAwMDAwICwgMS4wMDAwMF1dLCAKImZhY3RvciI6IDEwLjAwMDAwCn0KfQosCiJvc2M2IjogewoiZW5hYmxlZCI6IHRydWUsIAoiaXNfZm0iOiBmYWxzZSwgCiJmdW5jdGlvbiI6IDAsCiJwaGFzZSI6IDAuMDAwMDAsIAoic2VlZCI6IDAsIAoiYW1wbF9lbnYiOiB7CiJhbXBsaXR1ZGUiOiAwLjI2MDAwLCAKInBvaW50cyI6IFsKWyAwLjAwMDAwICwgMS4wMDAwMF0sIFsgMS4wMDAwMCAsIDEuMDAwMDBdXQp9CiwKImZyZXFfZW52IjogewoiYW1wbGl0dWRlIjogODAwLjAwMDAwLCAKInBvaW50cyI6IFsKWyAwLjAwMDAwICwgMS4wMDAwMF0sIFsgMS4wMDAwMCAsIDEuMDAwMDBdXQp9CiwKInBpdGNoc2hpZnRfZW52IjogewoiYW1wbGl0dWRlIjogMTIuMDAwMDAsIAoicG9pbnRzIjogWwpbIDAuMDAwMDAgLCAwLjUwMDAwXSwgWyAxLjAwMDAwICwgMC41MDAwMF1dCn0KLAoiZmlsdGVyIjogewoiZW5hYmxlZCI6IGZhbHNlLCAKInR5cGUiOiAwLCAKImN1dG9mZiI6IDgwMC4wMDAwMCwgCiJjdXRvZmZfZW52IjogW1sgMC4wMDAwMCAsIDEuMDAwMDBdLCBbIDEuMDAwMDAgLCAxLjAwMDAwXV0sIAoiZmFjdG9yIjogMTAuMDAwMDAKfQp9CiwKIm9zYzUiOiB7CiJlbmFibGVkIjogZmFsc2UsIAoiaXNfZm0iOiBmYWxzZSwgCiJmdW5jdGlvbiI6IDQsCiJwaGFzZSI6IDAuMDAwMDAsIAoic2VlZCI6IDEwMCwgCiJhbXBsX2VudiI6IHsKImFtcGxpdHVkZSI6IDAuMjYwMDAsIAoicG9pbnRzIjogWwpbIDAuMDAwMDAgLCAxLjAwMDAwXSwgWyAxLjAwMDAwICwgMS4wMDAwMF1dCn0KLAoiZnJlcV9lbnYiOiB7CiJhbXBsaXR1ZGUiOiAxNTAuMDAwMDAsIAoicG9pbnRzIjogWwpdCn0KLAoicGl0Y2hzaGlmdF9lbnYiOiB7CiJhbXBsaXR1ZGUiOiAwLjAwMDAwLCAKInBvaW50cyI6IFsKXQp9CiwKImZpbHRlciI6IHsKImVuYWJsZWQiOiBmYWxzZSwgCiJ0eXBlIjogMCwgCiJjdXRvZmYiOiA4MDAuMDAwMDAsIAoiY3V0b2ZmX2VudiI6IFtbIDAuMDAwMDAgLCAxLjAwMDAwXSwgWyAxLjAwMDAwICwgMS4wMDAwMF1dLCAKImZhY3RvciI6IDEwLjAwMDAwCn0KfQosCiJvc2M0IjogewoiZW5hYmxlZCI6IGZhbHNlLCAKImlzX2ZtIjogZmFsc2UsIAoiZnVuY3Rpb24iOiAwLAoicGhhc2UiOiAwLjAwMDAwLCAKInNlZWQiOiAwLCAKImFtcGxfZW52IjogewoiYW1wbGl0dWRlIjogMC4yNjAwMCwgCiJwb2ludHMiOiBbClsgMC4wMDAwMCAsIDEuMDAwMDBdLCBbIDEuMDAwMDAgLCAxLjAwMDAwXV0KfQosCiJmcmVxX2VudiI6IHsKImFtcGxpdHVkZSI6IDgwMC4wMDAwMCwgCiJwb2ludHMiOiBbClsgMC4wMDAwMCAsIDEuMDAwMDBdLCBbIDEuMDAwMDAgLCAxLjAwMDAwXV0KfQosCiJwaXRjaHNoaWZ0X2VudiI6IHsKImFtcGxpdHVkZSI6IDEyLjAwMDAwLCAKInBvaW50cyI6IFsKWyAwLjAwMDAwICwgMC41MDAwMF0sIFsgMS4wMDAwMCAsIDAuNTAwMDBdXQp9CiwKImZpbHRlciI6IHsKImVuYWJsZWQiOiBmYWxzZSwgCiJ0eXBlIjogMCwgCiJjdXRvZmYiOiA4MDAuMDAwMDAsIAoiY3V0b2ZmX2VudiI6IFtbIDAuMDAwMDAgLCAxLjAwMDAwXSwgWyAxLjAwMDAwICwgMS4wMDAwMF1dLCAKImZhY3RvciI6IDEwLjAwMDAwCn0KfQosCiJvc2MzIjogewoiZW5hYmxlZCI6IHRydWUsIAoiaXNfZm0iOiBmYWxzZSwgCiJmdW5jdGlvbiI6IDAsCiJwaGFzZSI6IDAuMDAwMDAsIAoic2VlZCI6IDAsIAoiYW1wbF9lbnYiOiB7CiJhbXBsaXR1ZGUiOiAwLjI2MDAwLCAKInBvaW50cyI6IFsKWyAwLjAwMDAwICwgMS4wMDAwMF0sIFsgMS4wMDAwMCAsIDEuMDAwMDBdXQp9CiwKImZyZXFfZW52IjogewoiYW1wbGl0dWRlIjogODAwLjAwMDAwLCAKInBvaW50cyI6IFsKWyAwLjAwMDAwICwgMS4wMDAwMF0sIFsgMS4wMDAwMCAsIDEuMDAwMDBdXQp9CiwKInBpdGNoc2hpZnRfZW52IjogewoiYW1wbGl0dWRlIjogMTIuMDAwMDAsIAoicG9pbnRzIjogWwpbIDAuMDAwMDAgLCAwLjUwMDAwXSwgWyAxLjAwMDAwICwgMC41MDAwMF1dCn0KLAoiZmlsdGVyIjogewoiZW5hYmxlZCI6IGZhbHNlLCAKInR5cGUiOiAwLCAKImN1dG9mZiI6IDgwMC4wMDAwMCwgCiJjdXRvZmZfZW52IjogW1sgMC4wMDAwMCAsIDEuMDAwMDBdLCBbIDEuMDAwMDAgLCAxLjAwMDAwXV0sIAoiZmFjdG9yIjogMTAuMDAwMDAKfQp9CiwKIm9zYzIiOiB7CiJlbmFibGVkIjogZmFsc2UsIAoiaXNfZm0iOiBmYWxzZSwgCiJmdW5jdGlvbiI6IDQsCiJwaGFzZSI6IDAuMDAwMDAsIAoic2VlZCI6IDEwMCwgCiJhbXBsX2VudiI6IHsKImFtcGxpdHVkZSI6IDAuMjYwMDAsIAoicG9pbnRzIjogWwpbIDAuMDAwMDAgLCAxLjAwMDAwXSwgWyAxLjAwMDAwICwgMS4wMDAwMF1dCn0KLAoiZnJlcV9lbnYiOiB7CiJhbXBsaXR1ZGUiOiAxNTAuMDAwMDAsIAoicG9pbnRzIjogWwpdCn0KLAoicGl0Y2hzaGlmdF9lbnYiOiB7CiJhbXBsaXR1ZGUiOiAwLjAwMDAwLCAKInBvaW50cyI6IFsKXQp9CiwKImZpbHRlciI6IHsKImVuYWJsZWQiOiBmYWxzZSwgCiJ0eXBlIjogMCwgCiJjdXRvZmYiOiA4MDAuMDAwMDAsIAoiY3V0b2ZmX2VudiI6IFtbIDAuMDAwMDAgLCAxLjAwMDAwXSwgWyAxLjAwMDAwICwgMS4wMDAwMF1dLCAKImZhY3RvciI6IDEwLjAwMDAwCn0KfQosCiJvc2MxIjogewoiZW5hYmxlZCI6IGZhbHNlLCAKImlzX2ZtIjogZmFsc2UsIAoiZnVuY3Rpb24iOiAwLAoicGhhc2UiOiAwLjAwMDAwLCAKInNlZWQiOiAwLCAKImFtcGxfZW52IjogewoiYW1wbGl0dWRlIjogMC4yNjAwMCwgCiJwb2ludHMiOiBbClsgMC4wMDAwMCAsIDEuMDAwMDBdLCBbIDEuMDAwMDAgLCAxLjAwMDAwXV0KfQosCiJmcmVxX2VudiI6IHsKImFtcGxpdHVkZSI6IDgwMC4wMDAwMCwgCiJwb2ludHMiOiBbClsgMC4wMDAwMCAsIDEuMDAwMDBdLCBbIDEuMDAwMDAgLCAxLjAwMDAwXV0KfQosCiJwaXRjaHNoaWZ0X2VudiI6IHsKImFtcGxpdHVkZSI6IDEyLjAwMDAwLCAKInBvaW50cyI6IFsKWyAwLjAwMDAwICwgMC41MDAwMF0sIFsgMS4wMDAwMCAsIDAuNTAwMDBdXQp9CiwKImZpbHRlciI6IHsKImVuYWJsZWQiOiBmYWxzZSwgCiJ0eXBlIjogMCwgCiJjdXRvZmYiOiA4MDAuMDAwMDAsIAoiY3V0b2ZmX2VudiI6IFtbIDAuMDAwMDAgLCAxLjAwMDAwXSwgWyAxLjAwMDAwICwgMS4wMDAwMF1dLCAKImZhY3RvciI6IDEwLjAwMDAwCn0KfQosCiJvc2MwIjogewoiZW5hYmxlZCI6IHRydWUsIAoiaXNfZm0iOiBmYWxzZSwgCiJmdW5jdGlvbiI6IDAsCiJwaGFzZSI6IDAuMDAwMDAsIAoic2VlZCI6IDAsIAoiYW1wbF9lbnYiOiB7CiJhbXBsaXR1ZGUiOiAwLjcwMDAwLCAKInBvaW50cyI6IFsKWyAwLjAwMDAwICwgMS4wMDAwMF0sIFsgMS4wMDAwMCAsIDAuMDAwMDBdXQp9CiwKImZyZXFfZW52IjogewoiYW1wbGl0dWRlIjogNDE3Ljk3NTQwLCAKInBvaW50cyI6IFsKWyAwLjAwMDAwICwgMS4wMDAwMF0sIFsgMC4xNDk2OCAsIDAuMDY2NTFdLCBbIDEuMDAwMDAgLCAwLjAwMDAwXV0KfQosCiJwaXRjaHNoaWZ0X2VudiI6IHsKImFtcGxpdHVkZSI6IDEyLjAwMDAwLCAKInBvaW50cyI6IFsKWyAwLjAwMDAwICwgMC41MDAwMF0sIFsgMS4wMDAwMCAsIDAuNTAwMDBdXQp9CiwKImZpbHRlciI6IHsKImVuYWJsZWQiOiBmYWxzZSwgCiJ0eXBlIjogMCwgCiJjdXRvZmYiOiA4MDAuMDAwMDAsIAoiY3V0b2ZmX2VudiI6IFtbIDAuMDAwMDAgLCAxLjAwMDAwXSwgWyAxLjAwMDAwICwgMS4wMDAwMF1dLCAKImZhY3RvciI6IDEwLjAwMDAwCn0KfQosCiJraWNrIjogewoiUGVyY3Vzc2lvbkFwcFZlcnNpb24iOiAxMzMzNzgsCiJpZCI6IDAsCiJjaGFubmVsIjogMCwKIm11dGUiOiBmYWxzZSwKInNvbG8iOiBmYWxzZSwKIm5hbWUiOiAiRGVmYXVsdCIsCiJwbGF5aW5nX2tleSI6IC0xLAoibGF5ZXJzIjogWzBdLAoibGF5ZXJzX2FtcGxpdHVkZSI6IFsxLjAwMDAwLCAxLjAwMDAwLCAxLjAwMDAwXSwKImxpbWl0ZXIiOiAyLjEwMTc1LCAKInR1bmVkX291dHB1dCI6IGZhbHNlLCAKImFtcGxfZW52IjogewoiYW1wbGl0dWRlIjogMC44NzQwNywgCiJsZW5ndGgiOiAzMDAuMDAwMDAsIAoicG9pbnRzIjogW1sgMC4wMDAwMCAsIDEuMDAwMDBdLCBbIDEuMDAwMDAgLCAxLjAwMDAwXV19LCAKImZpbHRlciI6IHsKImVuYWJsZWQiOiBmYWxzZSwgCiJ0eXBlIjogMCwgCiJjdXRvZmYiOiAyMDAuMDAsIAoiZmFjdG9yIjogMTAuMDAsIAoiY3V0b2ZmX2VudiI6IFtbIDAuMDAwMDAgLCAxLjAwMDAwXSwgWyAxLjAwMDAwICwgMS4wMDAwMF1dCn0sIAoiY29tcHJlc3NvciI6IHsKImVuYWJsZWQiOiBmYWxzZSwgCiJhdHRhY2siOiAwLjAxMDAwLCAKInJlbGVhc2UiOiAwLjAxMDAwLCAKInRocmVzaG9sZCI6IDAuMDAwMDAsIAoicmF0aW8iOiAxLjAwMDAwLCAKImtuZWUiOiAwLjAwMDAwLCAKIm1ha2V1cCI6IDEuMDAwMDAKfSwgCiJkaXN0b3J0aW9uIjogewoiZW5hYmxlZCI6IGZhbHNlLCAKImluX2xpbWl0ZXIiOiAxLjAwMDAwLCAKInZvbHVtZSI6IDAuMTAwMDAsIAoiZHJpdmUiOiAxLjAwMDAwLCAKImRyaXZlX2VudiI6IFsKWyAwLjAwMDAwICwgMS4wMDAwMF0sIFsgMS4wMDAwMCAsIDEuMDAwMDBdXSwgCiJ2b2x1bWVfZW52IjogWwpbIDAuMDAwMDAgLCAxLjAwMDAwXSwgWyAxLjAwMDAwICwgMS4wMDAwMF1dCn0KfQp9Cl0KfQoKfQo=
    </Value>
                          </CustomData>
                        </Data>
                      </Plugin>
                    </CARLA-PROJECT>
                  </carlarack>
                </instrument>
                <eldata fres="0.5" ftype="0" fwet="0" fcut="14000">
                  <elvol lspd_syncmode="0" amt="0" hold="0.5" ctlenvamt="0" rel="0.1" x100="0" lspd_numerator="4" lspd_denominator="4" lpdel="0" lshp="0" sustain="0.5" lamt="0" latt="0" att="0" pdel="0" dec="0.5" userwavefile="" lspd="0.1"/>
                  <elcut lspd_syncmode="0" amt="0" hold="0.5" ctlenvamt="0" rel="0.1" x100="0" lspd_numerator="4" lspd_denominator="4" lpdel="0" lshp="0" sustain="0.5" lamt="0" latt="0" att="0" pdel="0" dec="0.5" userwavefile="" lspd="0.1"/>
                  <elres lspd_syncmode="0" amt="0" hold="0.5" ctlenvamt="0" rel="0.1" x100="0" lspd_numerator="4" lspd_denominator="4" lpdel="0" lshp="0" sustain="0.5" lamt="0" latt="0" att="0" pdel="0" dec="0.5" userwavefile="" lspd="0.1"/>
                </eldata>
                <chordcreator chord-enabled="0" chordrange="1" chord="0"/>
                <arpeggiator arp="0" arprange="1" arpmode="0" arpdir="0" arpskip="0" arptime="200" arptime_numerator="4" arp-enabled="0" arpgate="100" arpcycle="0" arptime_denominator="4" arpmiss="0" arptime_syncmode="0"/>
                <midiport fixedoutputvelocity="-1" inputcontroller="0" outputcontroller="0" basevelocity="63" writable="0" readable="0" fixedoutputnote="-1" outputchannel="1" outputprogram="1" inputchannel="0" fixedinputvelocity="-1"/>
                <fxchain numofeffects="0" enabled="0"/>
              </instrumenttrack>
              <pattern type="0" name="Carla Rack" pos="0" steps="16" muted="0">
                <note key="57" pan="0" pos="0" vol="100" len="-192"/>
                <note key="57" pan="0" pos="48" vol="100" len="-192"/>
                <note key="57" pan="0" pos="96" vol="100" len="-192"/>
                <note key="57" pan="0" pos="144" vol="100" len="-192"/>
              </pattern>
              <pattern type="0" name="Carla Rack" pos="192" steps="16" muted="0"/>
              <pattern type="0" name="Carla Rack" pos="384" steps="16" muted="0">
                <note key="57" pan="0" pos="96" vol="100" len="-192"/>
                <note key="57" pan="0" pos="132" vol="100" len="-192"/>
                <note key="57" pan="0" pos="168" vol="100" len="-192"/>
              </pattern>
            </track>
            <track solo="0" type="0" name="hihat_opened02.ogg" muted="0">
              <instrumenttrack pan="-8" pitch="0" vol="30.4" basenote="57" pitchrange="1" usemasterpitch="1" fxch="0">
                <instrument name="audiofileprocessor">
                  <audiofileprocessor src="drums/hihat_opened02.ogg" sframe="0" eframe="1" lframe="0" reversed="0" looped="0" stutter="0" interp="1" amp="100"/>
                </instrument>
                <eldata fres="0.5" ftype="0" fwet="0" fcut="14000">
                  <elvol lspd_syncmode="0" amt="0" hold="0.5" ctlenvamt="0" rel="0.1" x100="0" lspd_numerator="4" lspd_denominator="4" lpdel="0" lshp="0" sustain="0.5" lamt="0" latt="0" att="0" pdel="0" dec="0.5" userwavefile="" lspd="0.1"/>
                  <elcut lspd_syncmode="0" amt="0" hold="0.5" ctlenvamt="0" rel="0.1" x100="0" lspd_numerator="4" lspd_denominator="4" lpdel="0" lshp="0" sustain="0.5" lamt="0" latt="0" att="0" pdel="0" dec="0.5" userwavefile="" lspd="0.1"/>
                  <elres lspd_syncmode="0" amt="0" hold="0.5" ctlenvamt="0" rel="0.1" x100="0" lspd_numerator="4" lspd_denominator="4" lpdel="0" lshp="0" sustain="0.5" lamt="0" latt="0" att="0" pdel="0" dec="0.5" userwavefile="" lspd="0.1"/>
                </eldata>
                <chordcreator chord-enabled="0" chordrange="1" chord="0"/>
                <arpeggiator arp="0" arprange="1" arpmode="0" arpdir="0" arpskip="0" arptime="200" arptime_numerator="4" arp-enabled="0" arpgate="100" arpcycle="0" arptime_denominator="4" arpmiss="0" arptime_syncmode="0"/>
                <midiport fixedoutputvelocity="-1" inputcontroller="0" outputcontroller="0" basevelocity="63" writable="0" readable="0" fixedoutputnote="-1" outputchannel="1" outputprogram="1" inputchannel="0" fixedinputvelocity="-1"/>
                <fxchain numofeffects="1" enabled="1">
                  <effect autoquit_syncmode="0" autoquit_denominator="4" autoquit="1" wet="1" name="ladspaeffect" gate="0" autoquit_numerator="4" on="1">
                    <ladspacontrols ports="10">
                      <port00 data="4"/>
                      <port01 data="0"/>
                      <port02 data="8"/>
                      <port03 data="0"/>
                      <port04 data="0"/>
                      <port05 data="0"/>
                      <port06 data="0"/>
                      <port07 data="0"/>
                      <port08 data="1"/>
                      <port09 data="0"/>
                    </ladspacontrols>
                    <key>
                      <attribute name="file" value="tap_echo"/>
                      <attribute name="plugin" value="tap_stereo_echo"/>
                    </key>
                  </effect>
                </fxchain>
              </instrumenttrack>
              <pattern type="0" name="hihat_opened02.ogg" pos="0" steps="16" muted="0">
                <note key="57" pan="-60" pos="24" vol="100" len="-192"/>
                <note key="57" pan="0" pos="36" vol="5" len="-192"/>
                <note key="57" pan="60" pos="72" vol="100" len="-192"/>
                <note key="57" pan="0" pos="84" vol="5" len="-192"/>
                <note key="57" pan="-60" pos="120" vol="100" len="-192"/>
                <note key="57" pan="0" pos="132" vol="5" len="-192"/>
                <note key="57" pan="60" pos="168" vol="100" len="-192"/>
                <note key="57" pan="0" pos="180" vol="5" len="-192"/>
              </pattern>
              <pattern type="0" name="hihat_opened02.ogg" pos="192" steps="16" muted="0"/>
              <pattern type="0" name="hihat_opened02.ogg" pos="384" steps="16" muted="0">
                <note key="57" pan="0" pos="12" vol="0" len="-192"/>
                <note key="57" pan="0" pos="48" vol="15" len="-192"/>
                <note key="57" pan="0" pos="72" vol="45" len="-192"/>
                <note key="57" pan="0" pos="96" vol="55" len="-192"/>
                <note key="57" pan="0" pos="120" vol="85" len="-192"/>
                <note key="57" pan="0" pos="144" vol="100" len="-192"/>
                <note key="57" pan="0" pos="156" vol="95" len="-192"/>
                <note key="57" pan="0" pos="168" vol="100" len="-192"/>
                <note key="57" pan="0" pos="180" vol="100" len="-192"/>
              </pattern>
            </track>
            <track solo="0" type="0" name="clap04.ogg" muted="0">
              <instrumenttrack pan="0" pitch="0" vol="42.400002" basenote="66" pitchrange="1" usemasterpitch="1" fxch="0">
                <instrument name="audiofileprocessor">
                  <audiofileprocessor src="drums/clap04.ogg" sframe="0" eframe="1" lframe="0" reversed="0" looped="0" stutter="0" interp="0" amp="100"/>
                </instrument>
                <eldata fres="0.5" ftype="0" fwet="0" fcut="14000">
                  <elvol lspd_syncmode="0" amt="0" hold="0.5" ctlenvamt="0" rel="0.1" x100="0" lspd_numerator="4" lspd_denominator="4" lpdel="0" lshp="0" sustain="0.5" lamt="0" latt="0" att="0" pdel="0" dec="0.5" userwavefile="" lspd="0.1"/>
                  <elcut lspd_syncmode="0" amt="0" hold="0.5" ctlenvamt="0" rel="0.1" x100="0" lspd_numerator="4" lspd_denominator="4" lpdel="0" lshp="0" sustain="0.5" lamt="0" latt="0" att="0" pdel="0" dec="0.5" userwavefile="" lspd="0.1"/>
                  <elres lspd_syncmode="0" amt="0" hold="0.5" ctlenvamt="0" rel="0.1" x100="0" lspd_numerator="4" lspd_denominator="4" lpdel="0" lshp="0" sustain="0.5" lamt="0" latt="0" att="0" pdel="0" dec="0.5" userwavefile="" lspd="0.1"/>
                </eldata>
                <chordcreator chord-enabled="1" chordrange="2" chord="0"/>
                <arpeggiator arp="0" arprange="1" arpmode="0" arpdir="0" arpskip="0" arptime="200" arptime_numerator="4" arp-enabled="0" arpgate="100" arpcycle="0" arptime_denominator="4" arpmiss="0" arptime_syncmode="0"/>
                <midiport fixedoutputvelocity="-1" inputcontroller="0" outputcontroller="0" basevelocity="63" writable="0" readable="0" fixedoutputnote="-1" outputchannel="1" outputprogram="1" inputchannel="0" fixedinputvelocity="-1"/>
                <fxchain numofeffects="0" enabled="0"/>
              </instrumenttrack>
              <pattern type="0" name="clap04.ogg" pos="0" steps="16" muted="0">
                <note key="57" pan="0" pos="48" vol="100" len="-192"/>
                <note key="57" pan="0" pos="144" vol="100" len="-192"/>
              </pattern>
              <pattern type="0" name="clap04.ogg" pos="192" steps="16" muted="0"/>
              <pattern type="0" name="clap04.ogg" pos="384" steps="16" muted="0">
                <note key="57" pan="0" pos="24" vol="100" len="-192"/>
                <note key="57" pan="0" pos="48" vol="100" len="-192"/>
                <note key="57" pan="0" pos="84" vol="100" len="-192"/>
                <note key="57" pan="0" pos="120" vol="100" len="-192"/>
                <note key="57" pan="0" pos="156" vol="100" len="-192"/>
                <note key="57" pan="0" pos="180" vol="100" len="-192"/>
              </pattern>
            </track>
            <track solo="0" type="0" name="tom_hi01.ogg" muted="0">
              <instrumenttrack pan="0" pitch="0" vol="100" basenote="57" pitchrange="1" usemasterpitch="1" fxch="0">
                <instrument name="audiofileprocessor">
                  <audiofileprocessor src="drums/tom_hi01.ogg" sframe="0" eframe="1" lframe="0" reversed="0" looped="0" stutter="0" interp="1" amp="100"/>
                </instrument>
                <eldata fres="0.5" ftype="0" fwet="0" fcut="14000">
                  <elvol lspd_syncmode="0" amt="0" hold="0.5" ctlenvamt="0" rel="0.1" x100="0" lspd_numerator="4" lspd_denominator="4" lpdel="0" lshp="0" sustain="0.5" lamt="0" latt="0" att="0" pdel="0" dec="0.5" userwavefile="" lspd="0.1"/>
                  <elcut lspd_syncmode="0" amt="0" hold="0.5" ctlenvamt="0" rel="0.1" x100="0" lspd_numerator="4" lspd_denominator="4" lpdel="0" lshp="0" sustain="0.5" lamt="0" latt="0" att="0" pdel="0" dec="0.5" userwavefile="" lspd="0.1"/>
                  <elres lspd_syncmode="0" amt="0" hold="0.5" ctlenvamt="0" rel="0.1" x100="0" lspd_numerator="4" lspd_denominator="4" lpdel="0" lshp="0" sustain="0.5" lamt="0" latt="0" att="0" pdel="0" dec="0.5" userwavefile="" lspd="0.1"/>
                </eldata>
                <chordcreator chord-enabled="0" chordrange="1" chord="0"/>
                <arpeggiator arp="0" arprange="1" arpmode="0" arpdir="0" arpskip="0" arptime="200" arptime_numerator="4" arp-enabled="0" arpgate="100" arpcycle="0" arptime_denominator="4" arpmiss="0" arptime_syncmode="0"/>
                <midiport fixedoutputvelocity="-1" inputcontroller="0" outputcontroller="0" basevelocity="63" writable="0" readable="0" fixedoutputnote="-1" outputchannel="1" outputprogram="1" inputchannel="0" fixedinputvelocity="-1"/>
                <fxchain numofeffects="0" enabled="0"/>
              </instrumenttrack>
              <pattern type="0" name="tom_hi01.ogg" pos="0" steps="16" muted="0"/>
              <pattern type="0" name="tom_hi01.ogg" pos="192" steps="16" muted="0"/>
              <pattern type="0" name="tom_hi01.ogg" pos="384" steps="16" muted="0">
                <note key="57" pan="0" pos="24" vol="100" len="-192"/>
                <note key="57" pan="0" pos="72" vol="100" len="-192"/>
                <note key="57" pan="0" pos="84" vol="100" len="-192"/>
                <note key="57" pan="0" pos="108" vol="100" len="-192"/>
                <note key="57" pan="0" pos="132" vol="100" len="-192"/>
                <note key="57" pan="0" pos="144" vol="100" len="-192"/>
                <note key="57" pan="0" pos="156" vol="100" len="-192"/>
              </pattern>
            </track>
            <track solo="0" type="0" name="tom_low01.ogg" muted="0">
              <instrumenttrack pan="0" pitch="0" vol="100" basenote="57" pitchrange="1" usemasterpitch="1" fxch="0">
                <instrument name="audiofileprocessor">
                  <audiofileprocessor src="drums/tom_low01.ogg" sframe="0" eframe="1" lframe="0" reversed="0" looped="0" stutter="0" interp="1" amp="100"/>
                </instrument>
                <eldata fres="0.5" ftype="0" fwet="0" fcut="14000">
                  <elvol lspd_syncmode="0" amt="0" hold="0.5" ctlenvamt="0" rel="0.1" x100="0" lspd_numerator="4" lspd_denominator="4" lpdel="0" lshp="0" sustain="0.5" lamt="0" latt="0" att="0" pdel="0" dec="0.5" userwavefile="" lspd="0.1"/>
                  <elcut lspd_syncmode="0" amt="0" hold="0.5" ctlenvamt="0" rel="0.1" x100="0" lspd_numerator="4" lspd_denominator="4" lpdel="0" lshp="0" sustain="0.5" lamt="0" latt="0" att="0" pdel="0" dec="0.5" userwavefile="" lspd="0.1"/>
                  <elres lspd_syncmode="0" amt="0" hold="0.5" ctlenvamt="0" rel="0.1" x100="0" lspd_numerator="4" lspd_denominator="4" lpdel="0" lshp="0" sustain="0.5" lamt="0" latt="0" att="0" pdel="0" dec="0.5" userwavefile="" lspd="0.1"/>
                </eldata>
                <chordcreator chord-enabled="0" chordrange="1" chord="0"/>
                <arpeggiator arp="0" arprange="1" arpmode="0" arpdir="0" arpskip="0" arptime="200" arptime_numerator="4" arp-enabled="0" arpgate="100" arpcycle="0" arptime_denominator="4" arpmiss="0" arptime_syncmode="0"/>
                <midiport fixedoutputvelocity="-1" inputcontroller="0" outputcontroller="0" basevelocity="63" writable="0" readable="0" fixedoutputnote="-1" outputchannel="1" outputprogram="1" inputchannel="0" fixedinputvelocity="-1"/>
                <fxchain numofeffects="0" enabled="0"/>
              </instrumenttrack>
              <pattern type="0" name="tom_low01.ogg" pos="0" steps="16" muted="0"/>
              <pattern type="0" name="tom_low01.ogg" pos="192" steps="16" muted="0"/>
              <pattern type="0" name="tom_low01.ogg" pos="384" steps="16" muted="0">
                <note key="57" pan="0" pos="24" vol="100" len="-192"/>
                <note key="57" pan="0" pos="96" vol="100" len="-192"/>
                <note key="57" pan="0" pos="168" vol="100" len="-192"/>
                <note key="57" pan="0" pos="180" vol="100" len="-192"/>
              </pattern>
            </track>
            <track solo="0" type="0" name="Hat-o.ds" muted="0">
              <instrumenttrack pan="0" pitch="0" vol="51.200001" basenote="57" pitchrange="1" usemasterpitch="1" fxch="0">
                <instrument name="audiofileprocessor">
                  <audiofileprocessor src="drumsynth/tr909/Hat-o.ds" sframe="0" eframe="1" lframe="0" reversed="0" looped="0" stutter="0" interp="1" amp="100"/>
                </instrument>
                <eldata fres="0.5" ftype="0" fwet="0" fcut="14000">
                  <elvol lspd_syncmode="0" amt="1" hold="0.5" ctlenvamt="0" rel="0.1" x100="0" lspd_numerator="4" lspd_denominator="4" lpdel="0" lshp="0" sustain="0.5" lamt="0" latt="0" att="0" pdel="0" dec="0.5" userwavefile="" lspd="0.1"/>
                  <elcut lspd_syncmode="0" amt="0" hold="0.5" ctlenvamt="0" rel="0.1" x100="0" lspd_numerator="4" lspd_denominator="4" lpdel="0" lshp="0" sustain="0.5" lamt="0" latt="0" att="0" pdel="0" dec="0.5" userwavefile="" lspd="0.1"/>
                  <elres lspd_syncmode="0" amt="0" hold="0.5" ctlenvamt="0" rel="0.1" x100="0" lspd_numerator="4" lspd_denominator="4" lpdel="0" lshp="0" sustain="0.5" lamt="0" latt="0" att="0" pdel="0" dec="0.5" userwavefile="" lspd="0.1"/>
                </eldata>
                <chordcreator chord-enabled="0" chordrange="1" chord="0"/>
                <arpeggiator arp="0" arprange="1" arpmode="0" arpdir="0" arpskip="0" arptime="200" arptime_numerator="4" arp-enabled="0" arpgate="100" arpcycle="0" arptime_denominator="4" arpmiss="0" arptime_syncmode="0"/>
                <midiport fixedoutputvelocity="-1" inputcontroller="0" outputcontroller="0" basevelocity="63" writable="0" readable="0" fixedoutputnote="-1" outputchannel="1" outputprogram="1" inputchannel="0" fixedinputvelocity="-1"/>
                <fxchain numofeffects="2" enabled="1">
                  <effect autoquit_syncmode="0" autoquit_denominator="4" autoquit="1" wet="0.41" name="ladspaeffect" gate="0" autoquit_numerator="4" on="1">
                    <ladspacontrols ports="10">
                      <port04 data="0.060000002"/>
                      <port05>
                        <data id="2828434" value="223.6068" scale_type="log"/>
                      </port05>
                      <port06 data="2.75"/>
                      <port07 data="2.75"/>
                      <port08>
                        <data id="8342249" value="6000" scale_type="log"/>
                      </port08>
                      <port09>
                        <data id="6084458" value="159.05415" scale_type="log"/>
                      </port09>
                      <port010 data="0"/>
                      <port011>
                        <data id="276651" value="2514.8672" scale_type="log"/>
                      </port011>
                      <port012 data="0"/>
                      <port013 data="0.5"/>
                    </ladspacontrols>
                    <key>
                      <attribute name="file" value="zita-reverbs"/>
                      <attribute name="plugin" value="zita-reverb"/>
                    </key>
                  </effect>
                  <effect autoquit_syncmode="0" autoquit_denominator="4" autoquit="1" wet="1" name="ladspaeffect" gate="0" autoquit_numerator="4" on="1">
                    <ladspacontrols ports="10">
                      <port00 data="10"/>
                      <port01 data="0"/>
                      <port02 data="20"/>
                      <port03 data="0"/>
                      <port04 data="0"/>
                      <port05 data="0"/>
                      <port06 data="-13.5"/>
                      <port07 data="0"/>
                      <port08 data="0"/>
                      <port09 data="0"/>
                    </ladspacontrols>
                    <key>
                      <attribute name="file" value="tap_echo"/>
                      <attribute name="plugin" value="tap_stereo_echo"/>
                    </key>
                  </effect>
                </fxchain>
              </instrumenttrack>
              <pattern type="0" name="Hat-o.ds" pos="0" steps="16" muted="0"/>
              <pattern type="0" name="Hat-o.ds" pos="192" steps="16" muted="0">
                <note key="57" pan="0" pos="0" vol="100" len="-192"/>
                <note key="57" pan="0" pos="24" vol="25" len="-192"/>
                <note key="57" pan="0" pos="48" vol="100" len="-192"/>
                <note key="57" pan="0" pos="72" vol="20" len="-192"/>
                <note key="57" pan="0" pos="96" vol="100" len="-192"/>
                <note key="57" pan="0" pos="120" vol="15" len="-192"/>
                <note key="57" pan="0" pos="144" vol="100" len="-192"/>
                <note key="57" pan="0" pos="168" vol="30" len="-192"/>
              </pattern>
              <pattern type="0" name="Hat-o.ds" pos="384" steps="16" muted="0"/>
            </track>
          </trackcontainer>
        </bbtrack>
        <bbtco name="" pos="768" color="4286611584" len="5376" muted="0" usestyle="1"/>
        <bbtco name="" pos="6528" color="4286611584" len="1152" muted="0" usestyle="1"/>
        <bbtco name="" pos="8064" color="4286611584" len="3072" muted="0" usestyle="1"/>
      </track>
      <track solo="0" type="1" name="Beat/Bassline 2" muted="0">
        <bbtrack/>
        <bbtco name="" pos="8064" color="4286611584" len="3072" muted="0" usestyle="1"/>
      </track>
      <track solo="0" type="0" name="Good Old Times" muted="0">
        <instrumenttrack pan="0" pitch="0" vol="18" basenote="81" pitchrange="1" usemasterpitch="1" fxch="0">
          <instrument name="lb302">
            <lb302 vcf_dec="0.1" dead="0" slide="0" shape="0" vcf_mod="0.66000003" dist="0.11" db24="0" vcf_res="0.98500001" slide_dec="0.60000002">
              <vcf_cut id="3059579" value="0.13499999" scale_type="linear"/>
            </lb302>
          </instrument>
          <eldata fres="0.5" ftype="0" fwet="0" fcut="14000">
            <elvol lspd_syncmode="0" amt="0" hold="0.5" ctlenvamt="0" rel="0.1" x100="0" lspd_numerator="4" lspd_denominator="4" lpdel="0" lshp="0" sustain="0.5" lamt="0" latt="0" att="0" pdel="0" dec="0.5" userwavefile="" lspd="0.1"/>
            <elcut lspd_syncmode="0" amt="0" hold="0.5" ctlenvamt="0" rel="0.1" x100="0" lspd_numerator="4" lspd_denominator="4" lpdel="0" lshp="0" sustain="0.5" lamt="0" latt="0" att="0" pdel="0" dec="0.5" userwavefile="" lspd="0.1"/>
            <elres lspd_syncmode="0" amt="0" hold="0.5" ctlenvamt="0" rel="0.1" x100="0" lspd_numerator="4" lspd_denominator="4" lpdel="0" lshp="0" sustain="0.5" lamt="0" latt="0" att="0" pdel="0" dec="0.5" userwavefile="" lspd="0.1"/>
          </eldata>
          <chordcreator chord-enabled="0" chordrange="1" chord="0"/>
          <arpeggiator arp="0" arprange="1" arpmode="0" arpdir="0" arpskip="0" arptime="100" arptime_numerator="4" arp-enabled="0" arpgate="100" arpcycle="0" arptime_denominator="4" arpmiss="0" arptime_syncmode="0"/>
          <midiport fixedoutputvelocity="-1" inputcontroller="0" outputcontroller="0" basevelocity="127" writable="0" readable="0" fixedoutputnote="-1" outputchannel="1" outputprogram="1" inputchannel="0" fixedinputvelocity="-1"/>
          <fxchain numofeffects="0" enabled="0"/>
        </instrumenttrack>
        <pattern type="1" name="Good Old Times" pos="768" steps="16" muted="0">
          <note key="62" pan="0" pos="0" vol="46" len="24"/>
          <note key="62" pan="0" pos="24" vol="14" len="24"/>
          <note key="65" pan="0" pos="48" vol="100" len="24"/>
          <note key="62" pan="0" pos="72" vol="100" len="24"/>
          <note key="64" pan="0" pos="96" vol="100" len="24"/>
          <note key="64" pan="0" pos="120" vol="100" len="24"/>
          <note key="64" pan="0" pos="144" vol="100" len="24"/>
          <note key="62" pan="0" pos="168" vol="100" len="24"/>
          <note key="62" pan="0" pos="192" vol="46" len="24"/>
          <note key="62" pan="0" pos="216" vol="14" len="24"/>
          <note key="65" pan="0" pos="240" vol="100" len="24"/>
          <note key="62" pan="0" pos="264" vol="100" len="24"/>
          <note key="64" pan="0" pos="288" vol="100" len="24"/>
          <note key="64" pan="0" pos="312" vol="100" len="24"/>
          <note key="64" pan="0" pos="336" vol="100" len="24"/>
          <note key="62" pan="0" pos="360" vol="100" len="24"/>
          <note key="62" pan="0" pos="384" vol="46" len="24"/>
          <note key="62" pan="0" pos="408" vol="14" len="24"/>
          <note key="65" pan="0" pos="432" vol="100" len="24"/>
          <note key="62" pan="0" pos="456" vol="100" len="24"/>
          <note key="64" pan="0" pos="480" vol="100" len="24"/>
          <note key="64" pan="0" pos="504" vol="100" len="24"/>
          <note key="64" pan="0" pos="528" vol="100" len="24"/>
          <note key="62" pan="0" pos="552" vol="100" len="24"/>
          <note key="62" pan="0" pos="576" vol="46" len="24"/>
          <note key="62" pan="0" pos="600" vol="14" len="24"/>
          <note key="65" pan="0" pos="624" vol="100" len="24"/>
          <note key="62" pan="0" pos="648" vol="100" len="24"/>
          <note key="64" pan="0" pos="672" vol="100" len="24"/>
          <note key="64" pan="0" pos="696" vol="100" len="24"/>
          <note key="64" pan="0" pos="720" vol="100" len="24"/>
          <note key="62" pan="0" pos="744" vol="100" len="24"/>
          <note key="62" pan="0" pos="768" vol="46" len="24"/>
          <note key="62" pan="0" pos="792" vol="14" len="24"/>
          <note key="65" pan="0" pos="816" vol="100" len="24"/>
          <note key="62" pan="0" pos="840" vol="100" len="24"/>
          <note key="64" pan="0" pos="864" vol="100" len="24"/>
          <note key="64" pan="0" pos="888" vol="100" len="24"/>
          <note key="64" pan="0" pos="912" vol="100" len="24"/>
          <note key="62" pan="0" pos="936" vol="100" len="24"/>
          <note key="62" pan="0" pos="960" vol="46" len="24"/>
          <note key="62" pan="0" pos="984" vol="14" len="24"/>
          <note key="65" pan="0" pos="1008" vol="100" len="24"/>
          <note key="62" pan="0" pos="1032" vol="100" len="24"/>
          <note key="64" pan="0" pos="1056" vol="100" len="24"/>
          <note key="64" pan="0" pos="1080" vol="100" len="24"/>
          <note key="64" pan="0" pos="1104" vol="100" len="24"/>
          <note key="62" pan="0" pos="1128" vol="100" len="24"/>
          <note key="62" pan="0" pos="1152" vol="46" len="24"/>
          <note key="62" pan="0" pos="1176" vol="14" len="24"/>
          <note key="65" pan="0" pos="1200" vol="100" len="24"/>
          <note key="62" pan="0" pos="1224" vol="100" len="24"/>
          <note key="64" pan="0" pos="1248" vol="100" len="24"/>
          <note key="64" pan="0" pos="1272" vol="100" len="24"/>
          <note key="64" pan="0" pos="1296" vol="100" len="24"/>
          <note key="62" pan="0" pos="1320" vol="100" len="24"/>
          <note key="62" pan="0" pos="1344" vol="46" len="24"/>
          <note key="62" pan="0" pos="1368" vol="14" len="24"/>
          <note key="65" pan="0" pos="1392" vol="100" len="24"/>
          <note key="62" pan="0" pos="1416" vol="100" len="24"/>
          <note key="64" pan="0" pos="1440" vol="100" len="24"/>
          <note key="64" pan="0" pos="1464" vol="100" len="24"/>
          <note key="64" pan="0" pos="1488" vol="100" len="24"/>
          <note key="62" pan="0" pos="1512" vol="100" len="24"/>
        </pattern>
        <pattern type="1" name="Good Old Times" pos="2304" steps="16" muted="0">
          <note key="62" pan="0" pos="0" vol="100" len="24"/>
          <note key="65" pan="0" pos="48" vol="100" len="24"/>
          <note key="62" pan="0" pos="72" vol="100" len="24"/>
          <note key="64" pan="0" pos="120" vol="100" len="12"/>
          <note key="64" pan="0" pos="132" vol="100" len="12"/>
          <note key="64" pan="0" pos="144" vol="100" len="24"/>
          <note key="62" pan="0" pos="168" vol="100" len="24"/>
          <note key="62" pan="0" pos="216" vol="100" len="24"/>
          <note key="65" pan="0" pos="240" vol="100" len="24"/>
          <note key="62" pan="0" pos="264" vol="100" len="24"/>
          <note key="64" pan="0" pos="288" vol="100" len="12"/>
          <note key="64" pan="0" pos="300" vol="100" len="12"/>
          <note key="64" pan="0" pos="312" vol="100" len="24"/>
          <note key="64" pan="0" pos="336" vol="100" len="24"/>
          <note key="64" pan="0" pos="360" vol="100" len="24"/>
          <note key="62" pan="0" pos="384" vol="100" len="24"/>
          <note key="65" pan="0" pos="432" vol="100" len="24"/>
          <note key="62" pan="0" pos="456" vol="100" len="24"/>
          <note key="64" pan="0" pos="504" vol="100" len="12"/>
          <note key="64" pan="0" pos="516" vol="100" len="12"/>
          <note key="64" pan="0" pos="528" vol="100" len="24"/>
          <note key="62" pan="0" pos="552" vol="100" len="24"/>
          <note key="62" pan="0" pos="600" vol="100" len="24"/>
          <note key="65" pan="0" pos="624" vol="100" len="24"/>
          <note key="62" pan="0" pos="648" vol="100" len="24"/>
          <note key="64" pan="0" pos="672" vol="100" len="24"/>
          <note key="64" pan="0" pos="696" vol="100" len="12"/>
          <note key="64" pan="0" pos="708" vol="100" len="36"/>
          <note key="64" pan="0" pos="744" vol="100" len="24"/>
        </pattern>
        <pattern type="1" name="Good Old Times" pos="3072" steps="16" muted="0">
          <note key="62" pan="0" pos="0" vol="100" len="24"/>
          <note key="65" pan="0" pos="48" vol="100" len="24"/>
          <note key="62" pan="0" pos="72" vol="100" len="24"/>
          <note key="64" pan="0" pos="120" vol="100" len="12"/>
          <note key="64" pan="0" pos="132" vol="100" len="12"/>
          <note key="64" pan="0" pos="144" vol="100" len="24"/>
          <note key="62" pan="0" pos="168" vol="100" len="24"/>
          <note key="62" pan="0" pos="216" vol="100" len="24"/>
          <note key="65" pan="0" pos="240" vol="100" len="24"/>
          <note key="62" pan="0" pos="264" vol="100" len="24"/>
          <note key="64" pan="0" pos="288" vol="100" len="12"/>
          <note key="64" pan="0" pos="300" vol="100" len="12"/>
          <note key="64" pan="0" pos="312" vol="100" len="24"/>
          <note key="64" pan="0" pos="336" vol="100" len="24"/>
          <note key="64" pan="0" pos="360" vol="100" len="24"/>
          <note key="62" pan="0" pos="384" vol="100" len="24"/>
          <note key="65" pan="0" pos="432" vol="100" len="24"/>
          <note key="62" pan="0" pos="456" vol="100" len="24"/>
          <note key="64" pan="0" pos="504" vol="100" len="12"/>
          <note key="64" pan="0" pos="516" vol="100" len="12"/>
          <note key="64" pan="0" pos="528" vol="100" len="24"/>
          <note key="62" pan="0" pos="552" vol="100" len="24"/>
          <note key="62" pan="0" pos="600" vol="100" len="24"/>
          <note key="65" pan="0" pos="624" vol="100" len="24"/>
          <note key="62" pan="0" pos="648" vol="100" len="24"/>
          <note key="64" pan="0" pos="672" vol="100" len="24"/>
          <note key="64" pan="0" pos="696" vol="100" len="12"/>
          <note key="64" pan="0" pos="708" vol="100" len="36"/>
          <note key="64" pan="0" pos="744" vol="100" len="24"/>
          <note key="57" pan="0" pos="768" vol="100" len="24"/>
          <note key="60" pan="0" pos="816" vol="100" len="24"/>
          <note key="57" pan="0" pos="840" vol="100" len="24"/>
          <note key="59" pan="0" pos="888" vol="100" len="12"/>
          <note key="59" pan="0" pos="900" vol="100" len="12"/>
          <note key="59" pan="0" pos="912" vol="100" len="24"/>
          <note key="57" pan="0" pos="936" vol="100" len="24"/>
          <note key="57" pan="0" pos="984" vol="100" len="24"/>
          <note key="60" pan="0" pos="1008" vol="100" len="24"/>
          <note key="57" pan="0" pos="1032" vol="100" len="24"/>
          <note key="59" pan="0" pos="1056" vol="100" len="12"/>
          <note key="59" pan="0" pos="1068" vol="100" len="12"/>
          <note key="59" pan="0" pos="1080" vol="100" len="24"/>
          <note key="59" pan="0" pos="1104" vol="100" len="24"/>
          <note key="59" pan="0" pos="1128" vol="100" len="24"/>
          <note key="57" pan="0" pos="1152" vol="100" len="24"/>
          <note key="60" pan="0" pos="1200" vol="100" len="24"/>
          <note key="57" pan="0" pos="1224" vol="100" len="24"/>
          <note key="59" pan="0" pos="1272" vol="100" len="12"/>
          <note key="59" pan="0" pos="1284" vol="100" len="12"/>
          <note key="59" pan="0" pos="1296" vol="100" len="24"/>
          <note key="57" pan="0" pos="1320" vol="100" len="24"/>
          <note key="57" pan="0" pos="1368" vol="100" len="24"/>
          <note key="60" pan="0" pos="1392" vol="100" len="24"/>
          <note key="57" pan="0" pos="1416" vol="100" len="24"/>
          <note key="59" pan="0" pos="1440" vol="100" len="36"/>
          <note key="60" pan="0" pos="1476" vol="100" len="36"/>
          <note key="61" pan="0" pos="1512" vol="100" len="24"/>
        </pattern>
        <pattern type="1" name="Good Old Times" pos="4608" steps="16" muted="0">
          <note key="62" pan="0" pos="0" vol="100" len="24"/>
          <note key="65" pan="0" pos="48" vol="100" len="24"/>
          <note key="62" pan="0" pos="72" vol="100" len="24"/>
          <note key="64" pan="0" pos="120" vol="100" len="12"/>
          <note key="64" pan="0" pos="132" vol="100" len="12"/>
          <note key="64" pan="0" pos="144" vol="100" len="24"/>
          <note key="62" pan="0" pos="168" vol="100" len="24"/>
          <note key="62" pan="0" pos="216" vol="100" len="24"/>
          <note key="65" pan="0" pos="240" vol="100" len="24"/>
          <note key="62" pan="0" pos="264" vol="100" len="24"/>
          <note key="64" pan="0" pos="288" vol="100" len="12"/>
          <note key="64" pan="0" pos="300" vol="100" len="12"/>
          <note key="64" pan="0" pos="312" vol="100" len="24"/>
          <note key="64" pan="0" pos="336" vol="100" len="24"/>
          <note key="64" pan="0" pos="360" vol="100" len="24"/>
          <note key="62" pan="0" pos="384" vol="100" len="24"/>
          <note key="65" pan="0" pos="432" vol="100" len="24"/>
          <note key="62" pan="0" pos="456" vol="100" len="24"/>
          <note key="64" pan="0" pos="504" vol="100" len="12"/>
          <note key="64" pan="0" pos="516" vol="100" len="12"/>
          <note key="64" pan="0" pos="528" vol="100" len="24"/>
          <note key="62" pan="0" pos="552" vol="100" len="24"/>
          <note key="62" pan="0" pos="600" vol="100" len="24"/>
          <note key="65" pan="0" pos="624" vol="100" len="24"/>
          <note key="62" pan="0" pos="648" vol="100" len="24"/>
          <note key="64" pan="0" pos="672" vol="100" len="24"/>
          <note key="64" pan="0" pos="696" vol="100" len="12"/>
          <note key="64" pan="0" pos="708" vol="100" len="36"/>
          <note key="64" pan="0" pos="744" vol="100" len="24"/>
          <note key="57" pan="0" pos="768" vol="100" len="24"/>
          <note key="60" pan="0" pos="816" vol="100" len="24"/>
          <note key="57" pan="0" pos="840" vol="100" len="24"/>
          <note key="59" pan="0" pos="888" vol="100" len="12"/>
          <note key="59" pan="0" pos="900" vol="100" len="12"/>
          <note key="59" pan="0" pos="912" vol="100" len="24"/>
          <note key="57" pan="0" pos="936" vol="100" len="24"/>
          <note key="57" pan="0" pos="984" vol="100" len="24"/>
          <note key="60" pan="0" pos="1008" vol="100" len="24"/>
          <note key="57" pan="0" pos="1032" vol="100" len="24"/>
          <note key="59" pan="0" pos="1056" vol="100" len="12"/>
          <note key="59" pan="0" pos="1068" vol="100" len="12"/>
          <note key="59" pan="0" pos="1080" vol="100" len="24"/>
          <note key="59" pan="0" pos="1104" vol="100" len="24"/>
          <note key="59" pan="0" pos="1128" vol="100" len="24"/>
          <note key="57" pan="0" pos="1152" vol="100" len="24"/>
          <note key="60" pan="0" pos="1200" vol="100" len="24"/>
          <note key="57" pan="0" pos="1224" vol="100" len="24"/>
          <note key="59" pan="0" pos="1272" vol="100" len="12"/>
          <note key="59" pan="0" pos="1284" vol="100" len="12"/>
          <note key="59" pan="0" pos="1296" vol="100" len="24"/>
          <note key="57" pan="0" pos="1320" vol="100" len="24"/>
          <note key="57" pan="0" pos="1368" vol="100" len="24"/>
          <note key="60" pan="0" pos="1392" vol="100" len="24"/>
          <note key="57" pan="0" pos="1416" vol="100" len="24"/>
          <note key="59" pan="0" pos="1440" vol="100" len="36"/>
          <note key="60" pan="0" pos="1476" vol="100" len="36"/>
          <note key="61" pan="0" pos="1512" vol="100" len="24"/>
        </pattern>
        <pattern type="1" name="Good Old Times" pos="6144" steps="16" muted="0">
          <note key="62" pan="0" pos="0" vol="100" len="24"/>
          <note key="65" pan="0" pos="48" vol="100" len="24"/>
          <note key="62" pan="0" pos="72" vol="100" len="24"/>
          <note key="64" pan="0" pos="120" vol="100" len="12"/>
          <note key="64" pan="0" pos="132" vol="100" len="12"/>
          <note key="64" pan="0" pos="144" vol="100" len="24"/>
          <note key="62" pan="0" pos="168" vol="100" len="24"/>
          <note key="62" pan="0" pos="216" vol="100" len="24"/>
          <note key="65" pan="0" pos="240" vol="100" len="24"/>
          <note key="62" pan="0" pos="264" vol="100" len="24"/>
          <note key="64" pan="0" pos="288" vol="100" len="12"/>
          <note key="64" pan="0" pos="300" vol="100" len="12"/>
          <note key="64" pan="0" pos="312" vol="100" len="24"/>
          <note key="64" pan="0" pos="336" vol="100" len="24"/>
          <note key="64" pan="0" pos="360" vol="100" len="24"/>
          <note key="62" pan="0" pos="384" vol="100" len="24"/>
          <note key="65" pan="0" pos="432" vol="100" len="24"/>
          <note key="62" pan="0" pos="456" vol="100" len="24"/>
          <note key="64" pan="0" pos="504" vol="100" len="12"/>
          <note key="64" pan="0" pos="516" vol="100" len="12"/>
          <note key="64" pan="0" pos="528" vol="100" len="24"/>
          <note key="62" pan="0" pos="552" vol="100" len="24"/>
          <note key="62" pan="0" pos="600" vol="100" len="24"/>
          <note key="65" pan="0" pos="624" vol="100" len="24"/>
          <note key="62" pan="0" pos="648" vol="100" len="24"/>
          <note key="64" pan="0" pos="672" vol="100" len="24"/>
          <note key="64" pan="0" pos="696" vol="100" len="12"/>
          <note key="64" pan="0" pos="708" vol="100" len="36"/>
          <note key="64" pan="0" pos="744" vol="100" len="24"/>
          <note key="57" pan="0" pos="768" vol="100" len="24"/>
          <note key="60" pan="0" pos="816" vol="100" len="24"/>
          <note key="57" pan="0" pos="840" vol="100" len="24"/>
          <note key="59" pan="0" pos="888" vol="100" len="12"/>
          <note key="59" pan="0" pos="900" vol="100" len="12"/>
          <note key="59" pan="0" pos="912" vol="100" len="24"/>
          <note key="57" pan="0" pos="936" vol="100" len="24"/>
          <note key="57" pan="0" pos="984" vol="100" len="24"/>
          <note key="60" pan="0" pos="1008" vol="100" len="24"/>
          <note key="57" pan="0" pos="1032" vol="100" len="24"/>
          <note key="59" pan="0" pos="1056" vol="100" len="12"/>
          <note key="59" pan="0" pos="1068" vol="100" len="12"/>
          <note key="59" pan="0" pos="1080" vol="100" len="24"/>
          <note key="59" pan="0" pos="1104" vol="100" len="24"/>
          <note key="59" pan="0" pos="1128" vol="100" len="24"/>
          <note key="57" pan="0" pos="1152" vol="100" len="24"/>
          <note key="60" pan="0" pos="1200" vol="100" len="24"/>
          <note key="57" pan="0" pos="1224" vol="100" len="24"/>
          <note key="59" pan="0" pos="1272" vol="100" len="12"/>
          <note key="59" pan="0" pos="1284" vol="100" len="12"/>
          <note key="59" pan="0" pos="1296" vol="100" len="24"/>
          <note key="57" pan="0" pos="1320" vol="100" len="24"/>
          <note key="57" pan="0" pos="1368" vol="100" len="24"/>
          <note key="60" pan="0" pos="1392" vol="100" len="24"/>
          <note key="57" pan="0" pos="1416" vol="100" len="24"/>
          <note key="59" pan="0" pos="1440" vol="100" len="36"/>
          <note key="60" pan="0" pos="1476" vol="100" len="36"/>
          <note key="61" pan="0" pos="1512" vol="100" len="24"/>
        </pattern>
        <pattern type="1" name="Good Old Times" pos="7680" steps="16" muted="0">
          <note key="62" pan="10" pos="0" vol="106" len="384"/>
        </pattern>
        <pattern type="1" name="Good Old Times" pos="8064" steps="16" muted="0">
          <note key="62" pan="0" pos="0" vol="46" len="24"/>
          <note key="62" pan="0" pos="24" vol="14" len="24"/>
          <note key="65" pan="0" pos="48" vol="100" len="24"/>
          <note key="62" pan="0" pos="72" vol="100" len="24"/>
          <note key="64" pan="0" pos="96" vol="100" len="24"/>
          <note key="64" pan="0" pos="120" vol="100" len="24"/>
          <note key="64" pan="0" pos="144" vol="100" len="24"/>
          <note key="62" pan="0" pos="168" vol="100" len="24"/>
          <note key="62" pan="0" pos="192" vol="46" len="24"/>
          <note key="62" pan="0" pos="216" vol="14" len="24"/>
          <note key="65" pan="0" pos="240" vol="100" len="24"/>
          <note key="62" pan="0" pos="264" vol="100" len="24"/>
          <note key="64" pan="0" pos="288" vol="100" len="24"/>
          <note key="64" pan="0" pos="312" vol="100" len="24"/>
          <note key="64" pan="0" pos="336" vol="100" len="24"/>
          <note key="62" pan="0" pos="360" vol="100" len="24"/>
          <note key="62" pan="0" pos="384" vol="46" len="24"/>
          <note key="62" pan="0" pos="408" vol="14" len="24"/>
          <note key="65" pan="0" pos="432" vol="100" len="24"/>
          <note key="62" pan="0" pos="456" vol="100" len="24"/>
          <note key="64" pan="0" pos="480" vol="100" len="24"/>
          <note key="64" pan="0" pos="504" vol="100" len="24"/>
          <note key="64" pan="0" pos="528" vol="100" len="24"/>
          <note key="62" pan="0" pos="552" vol="100" len="24"/>
          <note key="62" pan="0" pos="576" vol="46" len="24"/>
          <note key="62" pan="0" pos="600" vol="14" len="24"/>
          <note key="65" pan="0" pos="624" vol="100" len="24"/>
          <note key="62" pan="0" pos="648" vol="100" len="24"/>
          <note key="64" pan="0" pos="672" vol="100" len="24"/>
          <note key="64" pan="0" pos="696" vol="100" len="24"/>
          <note key="64" pan="0" pos="720" vol="100" len="24"/>
          <note key="62" pan="0" pos="744" vol="100" len="24"/>
          <note key="62" pan="0" pos="768" vol="46" len="24"/>
          <note key="62" pan="0" pos="792" vol="14" len="24"/>
          <note key="65" pan="0" pos="816" vol="100" len="24"/>
          <note key="62" pan="0" pos="840" vol="100" len="24"/>
          <note key="64" pan="0" pos="864" vol="100" len="24"/>
          <note key="64" pan="0" pos="888" vol="100" len="24"/>
          <note key="64" pan="0" pos="912" vol="100" len="24"/>
          <note key="62" pan="0" pos="936" vol="100" len="24"/>
          <note key="62" pan="0" pos="960" vol="46" len="24"/>
          <note key="62" pan="0" pos="984" vol="14" len="24"/>
          <note key="65" pan="0" pos="1008" vol="100" len="24"/>
          <note key="62" pan="0" pos="1032" vol="100" len="24"/>
          <note key="64" pan="0" pos="1056" vol="100" len="24"/>
          <note key="64" pan="0" pos="1080" vol="100" len="24"/>
          <note key="64" pan="0" pos="1104" vol="100" len="24"/>
          <note key="62" pan="0" pos="1128" vol="100" len="24"/>
          <note key="62" pan="0" pos="1152" vol="46" len="24"/>
          <note key="62" pan="0" pos="1176" vol="14" len="24"/>
          <note key="65" pan="0" pos="1200" vol="100" len="24"/>
          <note key="62" pan="0" pos="1224" vol="100" len="24"/>
          <note key="64" pan="0" pos="1248" vol="100" len="24"/>
          <note key="64" pan="0" pos="1272" vol="100" len="24"/>
          <note key="64" pan="0" pos="1296" vol="100" len="24"/>
          <note key="62" pan="0" pos="1320" vol="100" len="24"/>
          <note key="62" pan="0" pos="1344" vol="46" len="24"/>
          <note key="62" pan="0" pos="1368" vol="14" len="24"/>
          <note key="65" pan="0" pos="1392" vol="100" len="24"/>
          <note key="62" pan="0" pos="1416" vol="100" len="24"/>
          <note key="64" pan="0" pos="1440" vol="100" len="24"/>
          <note key="64" pan="0" pos="1464" vol="100" len="24"/>
          <note key="64" pan="0" pos="1488" vol="100" len="24"/>
          <note key="62" pan="0" pos="1512" vol="100" len="24"/>
        </pattern>
        <pattern type="1" name="Good Old Times" pos="9600" steps="16" muted="0">
          <note key="62" pan="0" pos="0" vol="46" len="24"/>
          <note key="62" pan="0" pos="24" vol="14" len="24"/>
          <note key="65" pan="0" pos="48" vol="100" len="24"/>
          <note key="62" pan="0" pos="72" vol="100" len="24"/>
          <note key="64" pan="0" pos="96" vol="100" len="24"/>
          <note key="64" pan="0" pos="120" vol="100" len="24"/>
          <note key="64" pan="0" pos="144" vol="100" len="24"/>
          <note key="62" pan="0" pos="168" vol="100" len="24"/>
          <note key="62" pan="0" pos="192" vol="46" len="24"/>
          <note key="62" pan="0" pos="216" vol="14" len="24"/>
          <note key="65" pan="0" pos="240" vol="100" len="24"/>
          <note key="62" pan="0" pos="264" vol="100" len="24"/>
          <note key="64" pan="0" pos="288" vol="100" len="24"/>
          <note key="64" pan="0" pos="312" vol="100" len="24"/>
          <note key="64" pan="0" pos="336" vol="100" len="24"/>
          <note key="62" pan="0" pos="360" vol="100" len="24"/>
          <note key="62" pan="0" pos="384" vol="46" len="24"/>
          <note key="62" pan="0" pos="408" vol="14" len="24"/>
          <note key="65" pan="0" pos="432" vol="100" len="24"/>
          <note key="62" pan="0" pos="456" vol="100" len="24"/>
          <note key="64" pan="0" pos="480" vol="100" len="24"/>
          <note key="64" pan="0" pos="504" vol="100" len="24"/>
          <note key="64" pan="0" pos="528" vol="100" len="24"/>
          <note key="62" pan="0" pos="552" vol="100" len="24"/>
          <note key="62" pan="0" pos="576" vol="46" len="24"/>
          <note key="62" pan="0" pos="600" vol="14" len="24"/>
          <note key="65" pan="0" pos="624" vol="100" len="24"/>
          <note key="62" pan="0" pos="648" vol="100" len="24"/>
          <note key="64" pan="0" pos="672" vol="100" len="24"/>
          <note key="64" pan="0" pos="696" vol="100" len="24"/>
          <note key="64" pan="0" pos="720" vol="100" len="24"/>
          <note key="62" pan="0" pos="744" vol="100" len="24"/>
          <note key="62" pan="0" pos="768" vol="46" len="24"/>
          <note key="62" pan="0" pos="792" vol="14" len="24"/>
          <note key="65" pan="0" pos="816" vol="100" len="24"/>
          <note key="62" pan="0" pos="840" vol="100" len="24"/>
          <note key="64" pan="0" pos="864" vol="100" len="24"/>
          <note key="64" pan="0" pos="888" vol="100" len="24"/>
          <note key="64" pan="0" pos="912" vol="100" len="24"/>
          <note key="62" pan="0" pos="936" vol="100" len="24"/>
          <note key="62" pan="0" pos="960" vol="46" len="24"/>
          <note key="62" pan="0" pos="984" vol="14" len="24"/>
          <note key="65" pan="0" pos="1008" vol="100" len="24"/>
          <note key="62" pan="0" pos="1032" vol="100" len="24"/>
          <note key="64" pan="0" pos="1056" vol="100" len="24"/>
          <note key="64" pan="0" pos="1080" vol="100" len="24"/>
          <note key="64" pan="0" pos="1104" vol="100" len="24"/>
          <note key="62" pan="0" pos="1128" vol="100" len="24"/>
          <note key="62" pan="0" pos="1152" vol="46" len="24"/>
          <note key="62" pan="0" pos="1176" vol="14" len="24"/>
          <note key="65" pan="0" pos="1200" vol="100" len="24"/>
          <note key="62" pan="0" pos="1224" vol="100" len="24"/>
          <note key="64" pan="0" pos="1248" vol="100" len="24"/>
          <note key="64" pan="0" pos="1272" vol="100" len="24"/>
          <note key="64" pan="0" pos="1296" vol="100" len="24"/>
          <note key="62" pan="0" pos="1320" vol="100" len="24"/>
          <note key="62" pan="0" pos="1344" vol="46" len="24"/>
          <note key="62" pan="0" pos="1368" vol="14" len="24"/>
          <note key="65" pan="0" pos="1392" vol="100" len="24"/>
          <note key="62" pan="0" pos="1416" vol="100" len="24"/>
          <note key="64" pan="0" pos="1440" vol="100" len="24"/>
          <note key="64" pan="0" pos="1464" vol="100" len="24"/>
          <note key="64" pan="0" pos="1488" vol="100" len="24"/>
          <note key="62" pan="0" pos="1512" vol="100" len="24"/>
        </pattern>
      </track>
      <track solo="0" type="0" name="Good Old Times" muted="0">
        <instrumenttrack pan="0" pitch="0" vol="39.200001" basenote="81" pitchrange="1" usemasterpitch="1" fxch="0">
          <instrument name="lb302">
            <lb302 vcf_dec="0.029999999" dead="0" slide="0" shape="8" vcf_mod="0.66000003" dist="0.11" db24="0" vcf_res="0.60000002" slide_dec="0.53499997">
              <vcf_cut id="5939105" value="0.13499999" scale_type="linear"/>
            </lb302>
          </instrument>
          <eldata fres="0.5" ftype="0" fwet="0" fcut="14000">
            <elvol lspd_syncmode="0" amt="0" hold="0.5" ctlenvamt="0" rel="0.1" x100="0" lspd_numerator="4" lspd_denominator="4" lpdel="0" lshp="0" sustain="0.5" lamt="0" latt="0" att="0" pdel="0" dec="0.5" userwavefile="" lspd="0.1"/>
            <elcut lspd_syncmode="0" amt="0" hold="0.5" ctlenvamt="0" rel="0.1" x100="0" lspd_numerator="4" lspd_denominator="4" lpdel="0" lshp="0" sustain="0.5" lamt="0" latt="0" att="0" pdel="0" dec="0.5" userwavefile="" lspd="0.1"/>
            <elres lspd_syncmode="0" amt="0" hold="0.5" ctlenvamt="0" rel="0.1" x100="0" lspd_numerator="4" lspd_denominator="4" lpdel="0" lshp="0" sustain="0.5" lamt="0" latt="0" att="0" pdel="0" dec="0.5" userwavefile="" lspd="0.1"/>
          </eldata>
          <chordcreator chord-enabled="0" chordrange="1" chord="0"/>
          <arpeggiator arp="0" arprange="1" arpmode="0" arpdir="0" arpskip="0" arptime="100" arptime_numerator="4" arp-enabled="0" arpgate="100" arpcycle="0" arptime_denominator="4" arpmiss="0" arptime_syncmode="0"/>
          <midiport fixedoutputvelocity="-1" inputcontroller="0" outputcontroller="0" basevelocity="127" writable="0" readable="0" fixedoutputnote="-1" outputchannel="1" outputprogram="1" inputchannel="0" fixedinputvelocity="-1"/>
          <fxchain numofeffects="0" enabled="0"/>
        </instrumenttrack>
        <pattern type="1" name="Good Old Times" pos="3072" steps="16" muted="0">
          <note key="50" pan="0" pos="24" vol="100" len="24"/>
          <note key="50" pan="0" pos="24" vol="100" len="24"/>
          <note key="50" pan="0" pos="24" vol="100" len="24"/>
          <note key="50" pan="0" pos="24" vol="100" len="24"/>
          <note key="50" pan="0" pos="72" vol="100" len="24"/>
          <note key="50" pan="0" pos="72" vol="100" len="24"/>
          <note key="50" pan="0" pos="72" vol="100" len="24"/>
          <note key="50" pan="0" pos="72" vol="100" len="24"/>
          <note key="50" pan="0" pos="120" vol="100" len="24"/>
          <note key="50" pan="0" pos="120" vol="100" len="24"/>
          <note key="50" pan="0" pos="120" vol="100" len="24"/>
          <note key="50" pan="0" pos="120" vol="100" len="24"/>
          <note key="50" pan="0" pos="168" vol="100" len="24"/>
          <note key="50" pan="0" pos="168" vol="100" len="24"/>
          <note key="50" pan="0" pos="168" vol="100" len="24"/>
          <note key="50" pan="0" pos="168" vol="100" len="24"/>
          <note key="50" pan="0" pos="216" vol="100" len="24"/>
          <note key="50" pan="0" pos="216" vol="100" len="24"/>
          <note key="50" pan="0" pos="216" vol="100" len="24"/>
          <note key="50" pan="0" pos="216" vol="100" len="24"/>
          <note key="50" pan="0" pos="264" vol="100" len="24"/>
          <note key="50" pan="0" pos="264" vol="100" len="24"/>
          <note key="50" pan="0" pos="264" vol="100" len="24"/>
          <note key="50" pan="0" pos="264" vol="100" len="24"/>
          <note key="50" pan="0" pos="312" vol="100" len="24"/>
          <note key="50" pan="0" pos="312" vol="100" len="24"/>
          <note key="50" pan="0" pos="312" vol="100" len="24"/>
          <note key="50" pan="0" pos="312" vol="100" len="24"/>
          <note key="50" pan="0" pos="360" vol="100" len="24"/>
          <note key="50" pan="0" pos="360" vol="100" len="24"/>
          <note key="50" pan="0" pos="360" vol="100" len="24"/>
          <note key="50" pan="0" pos="360" vol="100" len="24"/>
          <note key="50" pan="0" pos="408" vol="100" len="24"/>
          <note key="50" pan="0" pos="408" vol="100" len="24"/>
          <note key="50" pan="0" pos="408" vol="100" len="24"/>
          <note key="50" pan="0" pos="408" vol="100" len="24"/>
          <note key="50" pan="0" pos="456" vol="100" len="24"/>
          <note key="50" pan="0" pos="456" vol="100" len="24"/>
          <note key="50" pan="0" pos="456" vol="100" len="24"/>
          <note key="50" pan="0" pos="456" vol="100" len="24"/>
          <note key="50" pan="0" pos="504" vol="100" len="24"/>
          <note key="50" pan="0" pos="504" vol="100" len="24"/>
          <note key="50" pan="0" pos="504" vol="100" len="24"/>
          <note key="50" pan="0" pos="504" vol="100" len="24"/>
          <note key="50" pan="0" pos="552" vol="100" len="24"/>
          <note key="50" pan="0" pos="552" vol="100" len="24"/>
          <note key="50" pan="0" pos="552" vol="100" len="24"/>
          <note key="50" pan="0" pos="552" vol="100" len="24"/>
          <note key="50" pan="0" pos="600" vol="100" len="24"/>
          <note key="50" pan="0" pos="600" vol="100" len="24"/>
          <note key="50" pan="0" pos="600" vol="100" len="24"/>
          <note key="50" pan="0" pos="600" vol="100" len="24"/>
          <note key="50" pan="0" pos="648" vol="100" len="24"/>
          <note key="50" pan="0" pos="648" vol="100" len="24"/>
          <note key="50" pan="0" pos="648" vol="100" len="24"/>
          <note key="50" pan="0" pos="648" vol="100" len="24"/>
          <note key="50" pan="0" pos="696" vol="100" len="24"/>
          <note key="50" pan="0" pos="696" vol="100" len="24"/>
          <note key="50" pan="0" pos="696" vol="100" len="24"/>
          <note key="50" pan="0" pos="696" vol="100" len="24"/>
          <note key="50" pan="0" pos="744" vol="100" len="24"/>
          <note key="50" pan="0" pos="744" vol="100" len="24"/>
          <note key="50" pan="0" pos="744" vol="100" len="24"/>
          <note key="50" pan="0" pos="744" vol="100" len="24"/>
          <note key="45" pan="0" pos="792" vol="100" len="24"/>
          <note key="45" pan="0" pos="792" vol="100" len="24"/>
          <note key="45" pan="0" pos="792" vol="100" len="24"/>
          <note key="45" pan="0" pos="792" vol="100" len="24"/>
          <note key="45" pan="0" pos="840" vol="100" len="24"/>
          <note key="45" pan="0" pos="840" vol="100" len="24"/>
          <note key="45" pan="0" pos="840" vol="100" len="24"/>
          <note key="45" pan="0" pos="840" vol="100" len="24"/>
          <note key="45" pan="0" pos="888" vol="100" len="24"/>
          <note key="45" pan="0" pos="888" vol="100" len="24"/>
          <note key="45" pan="0" pos="888" vol="100" len="24"/>
          <note key="45" pan="0" pos="888" vol="100" len="24"/>
          <note key="45" pan="0" pos="936" vol="100" len="24"/>
          <note key="45" pan="0" pos="936" vol="100" len="24"/>
          <note key="45" pan="0" pos="936" vol="100" len="24"/>
          <note key="45" pan="0" pos="936" vol="100" len="24"/>
          <note key="45" pan="0" pos="984" vol="100" len="24"/>
          <note key="45" pan="0" pos="984" vol="100" len="24"/>
          <note key="45" pan="0" pos="984" vol="100" len="24"/>
          <note key="45" pan="0" pos="984" vol="100" len="24"/>
          <note key="45" pan="0" pos="1032" vol="100" len="24"/>
          <note key="45" pan="0" pos="1032" vol="100" len="24"/>
          <note key="45" pan="0" pos="1032" vol="100" len="24"/>
          <note key="45" pan="0" pos="1032" vol="100" len="24"/>
          <note key="45" pan="0" pos="1080" vol="100" len="24"/>
          <note key="45" pan="0" pos="1080" vol="100" len="24"/>
          <note key="45" pan="0" pos="1080" vol="100" len="24"/>
          <note key="45" pan="0" pos="1080" vol="100" len="24"/>
          <note key="45" pan="0" pos="1128" vol="100" len="24"/>
          <note key="45" pan="0" pos="1128" vol="100" len="24"/>
          <note key="45" pan="0" pos="1128" vol="100" len="24"/>
          <note key="45" pan="0" pos="1128" vol="100" len="24"/>
          <note key="45" pan="0" pos="1176" vol="100" len="24"/>
          <note key="45" pan="0" pos="1176" vol="100" len="24"/>
          <note key="45" pan="0" pos="1176" vol="100" len="24"/>
          <note key="45" pan="0" pos="1176" vol="100" len="24"/>
          <note key="45" pan="0" pos="1224" vol="100" len="24"/>
          <note key="45" pan="0" pos="1224" vol="100" len="24"/>
          <note key="45" pan="0" pos="1224" vol="100" len="24"/>
          <note key="45" pan="0" pos="1224" vol="100" len="24"/>
          <note key="45" pan="0" pos="1272" vol="100" len="24"/>
          <note key="45" pan="0" pos="1272" vol="100" len="24"/>
          <note key="45" pan="0" pos="1272" vol="100" len="24"/>
          <note key="45" pan="0" pos="1272" vol="100" len="24"/>
          <note key="45" pan="0" pos="1320" vol="100" len="24"/>
          <note key="45" pan="0" pos="1320" vol="100" len="24"/>
          <note key="45" pan="0" pos="1320" vol="100" len="24"/>
          <note key="45" pan="0" pos="1320" vol="100" len="24"/>
          <note key="45" pan="0" pos="1368" vol="100" len="24"/>
          <note key="45" pan="0" pos="1368" vol="100" len="24"/>
          <note key="45" pan="0" pos="1368" vol="100" len="24"/>
          <note key="45" pan="0" pos="1368" vol="100" len="24"/>
          <note key="45" pan="0" pos="1416" vol="100" len="24"/>
          <note key="45" pan="0" pos="1416" vol="100" len="24"/>
          <note key="45" pan="0" pos="1416" vol="100" len="24"/>
          <note key="45" pan="0" pos="1416" vol="100" len="24"/>
          <note key="45" pan="0" pos="1464" vol="100" len="24"/>
          <note key="45" pan="0" pos="1464" vol="100" len="24"/>
          <note key="45" pan="0" pos="1464" vol="100" len="24"/>
          <note key="45" pan="0" pos="1464" vol="100" len="24"/>
          <note key="45" pan="0" pos="1512" vol="100" len="24"/>
          <note key="45" pan="0" pos="1512" vol="100" len="24"/>
          <note key="45" pan="0" pos="1512" vol="100" len="24"/>
          <note key="45" pan="0" pos="1512" vol="100" len="24"/>
        </pattern>
        <pattern type="1" name="Good Old Times" pos="4608" steps="16" muted="0">
          <note key="50" pan="0" pos="24" vol="100" len="24"/>
          <note key="50" pan="0" pos="24" vol="100" len="24"/>
          <note key="50" pan="0" pos="24" vol="100" len="24"/>
          <note key="50" pan="0" pos="24" vol="100" len="24"/>
          <note key="50" pan="0" pos="72" vol="100" len="24"/>
          <note key="50" pan="0" pos="72" vol="100" len="24"/>
          <note key="50" pan="0" pos="72" vol="100" len="24"/>
          <note key="50" pan="0" pos="72" vol="100" len="24"/>
          <note key="50" pan="0" pos="120" vol="100" len="24"/>
          <note key="50" pan="0" pos="120" vol="100" len="24"/>
          <note key="50" pan="0" pos="120" vol="100" len="24"/>
          <note key="50" pan="0" pos="120" vol="100" len="24"/>
          <note key="50" pan="0" pos="168" vol="100" len="24"/>
          <note key="50" pan="0" pos="168" vol="100" len="24"/>
          <note key="50" pan="0" pos="168" vol="100" len="24"/>
          <note key="50" pan="0" pos="168" vol="100" len="24"/>
          <note key="50" pan="0" pos="216" vol="100" len="24"/>
          <note key="50" pan="0" pos="216" vol="100" len="24"/>
          <note key="50" pan="0" pos="216" vol="100" len="24"/>
          <note key="50" pan="0" pos="216" vol="100" len="24"/>
          <note key="50" pan="0" pos="264" vol="100" len="24"/>
          <note key="50" pan="0" pos="264" vol="100" len="24"/>
          <note key="50" pan="0" pos="264" vol="100" len="24"/>
          <note key="50" pan="0" pos="264" vol="100" len="24"/>
          <note key="50" pan="0" pos="312" vol="100" len="24"/>
          <note key="50" pan="0" pos="312" vol="100" len="24"/>
          <note key="50" pan="0" pos="312" vol="100" len="24"/>
          <note key="50" pan="0" pos="312" vol="100" len="24"/>
          <note key="50" pan="0" pos="360" vol="100" len="24"/>
          <note key="50" pan="0" pos="360" vol="100" len="24"/>
          <note key="50" pan="0" pos="360" vol="100" len="24"/>
          <note key="50" pan="0" pos="360" vol="100" len="24"/>
          <note key="50" pan="0" pos="408" vol="100" len="24"/>
          <note key="50" pan="0" pos="408" vol="100" len="24"/>
          <note key="50" pan="0" pos="408" vol="100" len="24"/>
          <note key="50" pan="0" pos="408" vol="100" len="24"/>
          <note key="50" pan="0" pos="456" vol="100" len="24"/>
          <note key="50" pan="0" pos="456" vol="100" len="24"/>
          <note key="50" pan="0" pos="456" vol="100" len="24"/>
          <note key="50" pan="0" pos="456" vol="100" len="24"/>
          <note key="50" pan="0" pos="504" vol="100" len="24"/>
          <note key="50" pan="0" pos="504" vol="100" len="24"/>
          <note key="50" pan="0" pos="504" vol="100" len="24"/>
          <note key="50" pan="0" pos="504" vol="100" len="24"/>
          <note key="50" pan="0" pos="552" vol="100" len="24"/>
          <note key="50" pan="0" pos="552" vol="100" len="24"/>
          <note key="50" pan="0" pos="552" vol="100" len="24"/>
          <note key="50" pan="0" pos="552" vol="100" len="24"/>
          <note key="50" pan="0" pos="600" vol="100" len="24"/>
          <note key="50" pan="0" pos="600" vol="100" len="24"/>
          <note key="50" pan="0" pos="600" vol="100" len="24"/>
          <note key="50" pan="0" pos="600" vol="100" len="24"/>
          <note key="50" pan="0" pos="648" vol="100" len="24"/>
          <note key="50" pan="0" pos="648" vol="100" len="24"/>
          <note key="50" pan="0" pos="648" vol="100" len="24"/>
          <note key="50" pan="0" pos="648" vol="100" len="24"/>
          <note key="50" pan="0" pos="696" vol="100" len="24"/>
          <note key="50" pan="0" pos="696" vol="100" len="24"/>
          <note key="50" pan="0" pos="696" vol="100" len="24"/>
          <note key="50" pan="0" pos="696" vol="100" len="24"/>
          <note key="50" pan="0" pos="744" vol="100" len="24"/>
          <note key="50" pan="0" pos="744" vol="100" len="24"/>
          <note key="50" pan="0" pos="744" vol="100" len="24"/>
          <note key="50" pan="0" pos="744" vol="100" len="24"/>
          <note key="45" pan="0" pos="792" vol="100" len="24"/>
          <note key="45" pan="0" pos="792" vol="100" len="24"/>
          <note key="45" pan="0" pos="792" vol="100" len="24"/>
          <note key="45" pan="0" pos="792" vol="100" len="24"/>
          <note key="45" pan="0" pos="840" vol="100" len="24"/>
          <note key="45" pan="0" pos="840" vol="100" len="24"/>
          <note key="45" pan="0" pos="840" vol="100" len="24"/>
          <note key="45" pan="0" pos="840" vol="100" len="24"/>
          <note key="45" pan="0" pos="888" vol="100" len="24"/>
          <note key="45" pan="0" pos="888" vol="100" len="24"/>
          <note key="45" pan="0" pos="888" vol="100" len="24"/>
          <note key="45" pan="0" pos="888" vol="100" len="24"/>
          <note key="45" pan="0" pos="936" vol="100" len="24"/>
          <note key="45" pan="0" pos="936" vol="100" len="24"/>
          <note key="45" pan="0" pos="936" vol="100" len="24"/>
          <note key="45" pan="0" pos="936" vol="100" len="24"/>
          <note key="45" pan="0" pos="984" vol="100" len="24"/>
          <note key="45" pan="0" pos="984" vol="100" len="24"/>
          <note key="45" pan="0" pos="984" vol="100" len="24"/>
          <note key="45" pan="0" pos="984" vol="100" len="24"/>
          <note key="45" pan="0" pos="1032" vol="100" len="24"/>
          <note key="45" pan="0" pos="1032" vol="100" len="24"/>
          <note key="45" pan="0" pos="1032" vol="100" len="24"/>
          <note key="45" pan="0" pos="1032" vol="100" len="24"/>
          <note key="45" pan="0" pos="1080" vol="100" len="24"/>
          <note key="45" pan="0" pos="1080" vol="100" len="24"/>
          <note key="45" pan="0" pos="1080" vol="100" len="24"/>
          <note key="45" pan="0" pos="1080" vol="100" len="24"/>
          <note key="45" pan="0" pos="1128" vol="100" len="24"/>
          <note key="45" pan="0" pos="1128" vol="100" len="24"/>
          <note key="45" pan="0" pos="1128" vol="100" len="24"/>
          <note key="45" pan="0" pos="1128" vol="100" len="24"/>
          <note key="45" pan="0" pos="1176" vol="100" len="24"/>
          <note key="45" pan="0" pos="1176" vol="100" len="24"/>
          <note key="45" pan="0" pos="1176" vol="100" len="24"/>
          <note key="45" pan="0" pos="1176" vol="100" len="24"/>
          <note key="45" pan="0" pos="1224" vol="100" len="24"/>
          <note key="45" pan="0" pos="1224" vol="100" len="24"/>
          <note key="45" pan="0" pos="1224" vol="100" len="24"/>
          <note key="45" pan="0" pos="1224" vol="100" len="24"/>
          <note key="45" pan="0" pos="1272" vol="100" len="24"/>
          <note key="45" pan="0" pos="1272" vol="100" len="24"/>
          <note key="45" pan="0" pos="1272" vol="100" len="24"/>
          <note key="45" pan="0" pos="1272" vol="100" len="24"/>
          <note key="45" pan="0" pos="1320" vol="100" len="24"/>
          <note key="45" pan="0" pos="1320" vol="100" len="24"/>
          <note key="45" pan="0" pos="1320" vol="100" len="24"/>
          <note key="45" pan="0" pos="1320" vol="100" len="24"/>
          <note key="45" pan="0" pos="1368" vol="100" len="24"/>
          <note key="45" pan="0" pos="1368" vol="100" len="24"/>
          <note key="45" pan="0" pos="1368" vol="100" len="24"/>
          <note key="45" pan="0" pos="1368" vol="100" len="24"/>
          <note key="45" pan="0" pos="1416" vol="100" len="24"/>
          <note key="45" pan="0" pos="1416" vol="100" len="24"/>
          <note key="45" pan="0" pos="1416" vol="100" len="24"/>
          <note key="45" pan="0" pos="1416" vol="100" len="24"/>
          <note key="45" pan="0" pos="1464" vol="100" len="24"/>
          <note key="45" pan="0" pos="1464" vol="100" len="24"/>
          <note key="45" pan="0" pos="1464" vol="100" len="24"/>
          <note key="45" pan="0" pos="1464" vol="100" len="24"/>
          <note key="45" pan="0" pos="1512" vol="100" len="24"/>
          <note key="45" pan="0" pos="1512" vol="100" len="24"/>
          <note key="45" pan="0" pos="1512" vol="100" len="24"/>
          <note key="45" pan="0" pos="1512" vol="100" len="24"/>
        </pattern>
        <pattern type="1" name="Good Old Times" pos="6144" steps="16" muted="0">
          <note key="50" pan="0" pos="24" vol="100" len="24"/>
          <note key="50" pan="0" pos="24" vol="100" len="24"/>
          <note key="50" pan="0" pos="24" vol="100" len="24"/>
          <note key="50" pan="0" pos="24" vol="100" len="24"/>
          <note key="50" pan="0" pos="72" vol="100" len="24"/>
          <note key="50" pan="0" pos="72" vol="100" len="24"/>
          <note key="50" pan="0" pos="72" vol="100" len="24"/>
          <note key="50" pan="0" pos="72" vol="100" len="24"/>
          <note key="50" pan="0" pos="120" vol="100" len="24"/>
          <note key="50" pan="0" pos="120" vol="100" len="24"/>
          <note key="50" pan="0" pos="120" vol="100" len="24"/>
          <note key="50" pan="0" pos="120" vol="100" len="24"/>
          <note key="50" pan="0" pos="168" vol="100" len="24"/>
          <note key="50" pan="0" pos="168" vol="100" len="24"/>
          <note key="50" pan="0" pos="168" vol="100" len="24"/>
          <note key="50" pan="0" pos="168" vol="100" len="24"/>
          <note key="50" pan="0" pos="216" vol="100" len="24"/>
          <note key="50" pan="0" pos="216" vol="100" len="24"/>
          <note key="50" pan="0" pos="216" vol="100" len="24"/>
          <note key="50" pan="0" pos="216" vol="100" len="24"/>
          <note key="50" pan="0" pos="264" vol="100" len="24"/>
          <note key="50" pan="0" pos="264" vol="100" len="24"/>
          <note key="50" pan="0" pos="264" vol="100" len="24"/>
          <note key="50" pan="0" pos="264" vol="100" len="24"/>
          <note key="50" pan="0" pos="312" vol="100" len="24"/>
          <note key="50" pan="0" pos="312" vol="100" len="24"/>
          <note key="50" pan="0" pos="312" vol="100" len="24"/>
          <note key="50" pan="0" pos="312" vol="100" len="24"/>
          <note key="50" pan="0" pos="360" vol="100" len="24"/>
          <note key="50" pan="0" pos="360" vol="100" len="24"/>
          <note key="50" pan="0" pos="360" vol="100" len="24"/>
          <note key="50" pan="0" pos="360" vol="100" len="24"/>
          <note key="50" pan="0" pos="408" vol="100" len="24"/>
          <note key="50" pan="0" pos="408" vol="100" len="24"/>
          <note key="50" pan="0" pos="408" vol="100" len="24"/>
          <note key="50" pan="0" pos="408" vol="100" len="24"/>
          <note key="50" pan="0" pos="456" vol="100" len="24"/>
          <note key="50" pan="0" pos="456" vol="100" len="24"/>
          <note key="50" pan="0" pos="456" vol="100" len="24"/>
          <note key="50" pan="0" pos="456" vol="100" len="24"/>
          <note key="50" pan="0" pos="504" vol="100" len="24"/>
          <note key="50" pan="0" pos="504" vol="100" len="24"/>
          <note key="50" pan="0" pos="504" vol="100" len="24"/>
          <note key="50" pan="0" pos="504" vol="100" len="24"/>
          <note key="50" pan="0" pos="552" vol="100" len="24"/>
          <note key="50" pan="0" pos="552" vol="100" len="24"/>
          <note key="50" pan="0" pos="552" vol="100" len="24"/>
          <note key="50" pan="0" pos="552" vol="100" len="24"/>
          <note key="50" pan="0" pos="600" vol="100" len="24"/>
          <note key="50" pan="0" pos="600" vol="100" len="24"/>
          <note key="50" pan="0" pos="600" vol="100" len="24"/>
          <note key="50" pan="0" pos="600" vol="100" len="24"/>
          <note key="50" pan="0" pos="648" vol="100" len="24"/>
          <note key="50" pan="0" pos="648" vol="100" len="24"/>
          <note key="50" pan="0" pos="648" vol="100" len="24"/>
          <note key="50" pan="0" pos="648" vol="100" len="24"/>
          <note key="50" pan="0" pos="696" vol="100" len="24"/>
          <note key="50" pan="0" pos="696" vol="100" len="24"/>
          <note key="50" pan="0" pos="696" vol="100" len="24"/>
          <note key="50" pan="0" pos="696" vol="100" len="24"/>
          <note key="50" pan="0" pos="744" vol="100" len="24"/>
          <note key="50" pan="0" pos="744" vol="100" len="24"/>
          <note key="50" pan="0" pos="744" vol="100" len="24"/>
          <note key="50" pan="0" pos="744" vol="100" len="24"/>
          <note key="45" pan="0" pos="792" vol="100" len="24"/>
          <note key="45" pan="0" pos="792" vol="100" len="24"/>
          <note key="45" pan="0" pos="792" vol="100" len="24"/>
          <note key="45" pan="0" pos="792" vol="100" len="24"/>
          <note key="45" pan="0" pos="840" vol="100" len="24"/>
          <note key="45" pan="0" pos="840" vol="100" len="24"/>
          <note key="45" pan="0" pos="840" vol="100" len="24"/>
          <note key="45" pan="0" pos="840" vol="100" len="24"/>
          <note key="45" pan="0" pos="888" vol="100" len="24"/>
          <note key="45" pan="0" pos="888" vol="100" len="24"/>
          <note key="45" pan="0" pos="888" vol="100" len="24"/>
          <note key="45" pan="0" pos="888" vol="100" len="24"/>
          <note key="45" pan="0" pos="936" vol="100" len="24"/>
          <note key="45" pan="0" pos="936" vol="100" len="24"/>
          <note key="45" pan="0" pos="936" vol="100" len="24"/>
          <note key="45" pan="0" pos="936" vol="100" len="24"/>
          <note key="45" pan="0" pos="984" vol="100" len="24"/>
          <note key="45" pan="0" pos="984" vol="100" len="24"/>
          <note key="45" pan="0" pos="984" vol="100" len="24"/>
          <note key="45" pan="0" pos="984" vol="100" len="24"/>
          <note key="45" pan="0" pos="1032" vol="100" len="24"/>
          <note key="45" pan="0" pos="1032" vol="100" len="24"/>
          <note key="45" pan="0" pos="1032" vol="100" len="24"/>
          <note key="45" pan="0" pos="1032" vol="100" len="24"/>
          <note key="45" pan="0" pos="1080" vol="100" len="24"/>
          <note key="45" pan="0" pos="1080" vol="100" len="24"/>
          <note key="45" pan="0" pos="1080" vol="100" len="24"/>
          <note key="45" pan="0" pos="1080" vol="100" len="24"/>
          <note key="45" pan="0" pos="1128" vol="100" len="24"/>
          <note key="45" pan="0" pos="1128" vol="100" len="24"/>
          <note key="45" pan="0" pos="1128" vol="100" len="24"/>
          <note key="45" pan="0" pos="1128" vol="100" len="24"/>
          <note key="45" pan="0" pos="1176" vol="100" len="24"/>
          <note key="45" pan="0" pos="1176" vol="100" len="24"/>
          <note key="45" pan="0" pos="1176" vol="100" len="24"/>
          <note key="45" pan="0" pos="1176" vol="100" len="24"/>
          <note key="45" pan="0" pos="1224" vol="100" len="24"/>
          <note key="45" pan="0" pos="1224" vol="100" len="24"/>
          <note key="45" pan="0" pos="1224" vol="100" len="24"/>
          <note key="45" pan="0" pos="1224" vol="100" len="24"/>
          <note key="45" pan="0" pos="1272" vol="100" len="24"/>
          <note key="45" pan="0" pos="1272" vol="100" len="24"/>
          <note key="45" pan="0" pos="1272" vol="100" len="24"/>
          <note key="45" pan="0" pos="1272" vol="100" len="24"/>
          <note key="45" pan="0" pos="1320" vol="100" len="24"/>
          <note key="45" pan="0" pos="1320" vol="100" len="24"/>
          <note key="45" pan="0" pos="1320" vol="100" len="24"/>
          <note key="45" pan="0" pos="1320" vol="100" len="24"/>
          <note key="45" pan="0" pos="1368" vol="100" len="24"/>
          <note key="45" pan="0" pos="1368" vol="100" len="24"/>
          <note key="45" pan="0" pos="1368" vol="100" len="24"/>
          <note key="45" pan="0" pos="1368" vol="100" len="24"/>
          <note key="45" pan="0" pos="1416" vol="100" len="24"/>
          <note key="45" pan="0" pos="1416" vol="100" len="24"/>
          <note key="45" pan="0" pos="1416" vol="100" len="24"/>
          <note key="45" pan="0" pos="1416" vol="100" len="24"/>
          <note key="45" pan="0" pos="1464" vol="100" len="24"/>
          <note key="45" pan="0" pos="1464" vol="100" len="24"/>
          <note key="45" pan="0" pos="1464" vol="100" len="24"/>
          <note key="45" pan="0" pos="1464" vol="100" len="24"/>
          <note key="45" pan="0" pos="1512" vol="100" len="24"/>
          <note key="45" pan="0" pos="1512" vol="100" len="24"/>
          <note key="45" pan="0" pos="1512" vol="100" len="24"/>
          <note key="45" pan="0" pos="1512" vol="100" len="24"/>
        </pattern>
        <pattern type="1" name="Good Old Times" pos="7680" steps="16" muted="0">
          <note key="62" pan="10" pos="0" vol="106" len="384"/>
        </pattern>
        <pattern type="1" name="" pos="8064" steps="16" muted="0">
          <note key="50" pan="0" pos="24" vol="100" len="24"/>
          <note key="50" pan="0" pos="24" vol="100" len="24"/>
          <note key="50" pan="0" pos="24" vol="100" len="24"/>
          <note key="50" pan="0" pos="24" vol="100" len="24"/>
          <note key="50" pan="0" pos="72" vol="100" len="24"/>
          <note key="50" pan="0" pos="72" vol="100" len="24"/>
          <note key="50" pan="0" pos="72" vol="100" len="24"/>
          <note key="50" pan="0" pos="72" vol="100" len="24"/>
          <note key="50" pan="0" pos="120" vol="100" len="24"/>
          <note key="50" pan="0" pos="120" vol="100" len="24"/>
          <note key="50" pan="0" pos="120" vol="100" len="24"/>
          <note key="50" pan="0" pos="120" vol="100" len="24"/>
          <note key="50" pan="0" pos="168" vol="100" len="24"/>
          <note key="50" pan="0" pos="168" vol="100" len="24"/>
          <note key="50" pan="0" pos="168" vol="100" len="24"/>
          <note key="50" pan="0" pos="168" vol="100" len="24"/>
          <note key="50" pan="0" pos="216" vol="100" len="24"/>
          <note key="50" pan="0" pos="216" vol="100" len="24"/>
          <note key="50" pan="0" pos="216" vol="100" len="24"/>
          <note key="50" pan="0" pos="216" vol="100" len="24"/>
          <note key="50" pan="0" pos="264" vol="100" len="24"/>
          <note key="50" pan="0" pos="264" vol="100" len="24"/>
          <note key="50" pan="0" pos="264" vol="100" len="24"/>
          <note key="50" pan="0" pos="264" vol="100" len="24"/>
          <note key="50" pan="0" pos="312" vol="100" len="24"/>
          <note key="50" pan="0" pos="312" vol="100" len="24"/>
          <note key="50" pan="0" pos="312" vol="100" len="24"/>
          <note key="50" pan="0" pos="312" vol="100" len="24"/>
          <note key="50" pan="0" pos="360" vol="100" len="24"/>
          <note key="50" pan="0" pos="360" vol="100" len="24"/>
          <note key="50" pan="0" pos="360" vol="100" len="24"/>
          <note key="50" pan="0" pos="360" vol="100" len="24"/>
          <note key="50" pan="0" pos="408" vol="100" len="24"/>
          <note key="50" pan="0" pos="408" vol="100" len="24"/>
          <note key="50" pan="0" pos="408" vol="100" len="24"/>
          <note key="50" pan="0" pos="408" vol="100" len="24"/>
          <note key="50" pan="0" pos="456" vol="100" len="24"/>
          <note key="50" pan="0" pos="456" vol="100" len="24"/>
          <note key="50" pan="0" pos="456" vol="100" len="24"/>
          <note key="50" pan="0" pos="456" vol="100" len="24"/>
          <note key="50" pan="0" pos="504" vol="100" len="24"/>
          <note key="50" pan="0" pos="504" vol="100" len="24"/>
          <note key="50" pan="0" pos="504" vol="100" len="24"/>
          <note key="50" pan="0" pos="504" vol="100" len="24"/>
          <note key="50" pan="0" pos="552" vol="100" len="24"/>
          <note key="50" pan="0" pos="552" vol="100" len="24"/>
          <note key="50" pan="0" pos="552" vol="100" len="24"/>
          <note key="50" pan="0" pos="552" vol="100" len="24"/>
          <note key="50" pan="0" pos="600" vol="100" len="24"/>
          <note key="50" pan="0" pos="600" vol="100" len="24"/>
          <note key="50" pan="0" pos="600" vol="100" len="24"/>
          <note key="50" pan="0" pos="600" vol="100" len="24"/>
          <note key="50" pan="0" pos="648" vol="100" len="24"/>
          <note key="50" pan="0" pos="648" vol="100" len="24"/>
          <note key="50" pan="0" pos="648" vol="100" len="24"/>
          <note key="50" pan="0" pos="648" vol="100" len="24"/>
          <note key="50" pan="0" pos="696" vol="100" len="24"/>
          <note key="50" pan="0" pos="696" vol="100" len="24"/>
          <note key="50" pan="0" pos="696" vol="100" len="24"/>
          <note key="50" pan="0" pos="696" vol="100" len="24"/>
          <note key="50" pan="0" pos="744" vol="100" len="24"/>
          <note key="50" pan="0" pos="744" vol="100" len="24"/>
          <note key="50" pan="0" pos="744" vol="100" len="24"/>
          <note key="50" pan="0" pos="744" vol="100" len="24"/>
          <note key="45" pan="0" pos="792" vol="100" len="24"/>
          <note key="45" pan="0" pos="792" vol="100" len="24"/>
          <note key="45" pan="0" pos="792" vol="100" len="24"/>
          <note key="45" pan="0" pos="792" vol="100" len="24"/>
          <note key="45" pan="0" pos="840" vol="100" len="24"/>
          <note key="45" pan="0" pos="840" vol="100" len="24"/>
          <note key="45" pan="0" pos="840" vol="100" len="24"/>
          <note key="45" pan="0" pos="840" vol="100" len="24"/>
          <note key="45" pan="0" pos="888" vol="100" len="24"/>
          <note key="45" pan="0" pos="888" vol="100" len="24"/>
          <note key="45" pan="0" pos="888" vol="100" len="24"/>
          <note key="45" pan="0" pos="888" vol="100" len="24"/>
          <note key="45" pan="0" pos="936" vol="100" len="24"/>
          <note key="45" pan="0" pos="936" vol="100" len="24"/>
          <note key="45" pan="0" pos="936" vol="100" len="24"/>
          <note key="45" pan="0" pos="936" vol="100" len="24"/>
          <note key="45" pan="0" pos="984" vol="100" len="24"/>
          <note key="45" pan="0" pos="984" vol="100" len="24"/>
          <note key="45" pan="0" pos="984" vol="100" len="24"/>
          <note key="45" pan="0" pos="984" vol="100" len="24"/>
          <note key="45" pan="0" pos="1032" vol="100" len="24"/>
          <note key="45" pan="0" pos="1032" vol="100" len="24"/>
          <note key="45" pan="0" pos="1032" vol="100" len="24"/>
          <note key="45" pan="0" pos="1032" vol="100" len="24"/>
          <note key="45" pan="0" pos="1080" vol="100" len="24"/>
          <note key="45" pan="0" pos="1080" vol="100" len="24"/>
          <note key="45" pan="0" pos="1080" vol="100" len="24"/>
          <note key="45" pan="0" pos="1080" vol="100" len="24"/>
          <note key="45" pan="0" pos="1128" vol="100" len="24"/>
          <note key="45" pan="0" pos="1128" vol="100" len="24"/>
          <note key="45" pan="0" pos="1128" vol="100" len="24"/>
          <note key="45" pan="0" pos="1128" vol="100" len="24"/>
          <note key="45" pan="0" pos="1176" vol="100" len="24"/>
          <note key="45" pan="0" pos="1176" vol="100" len="24"/>
          <note key="45" pan="0" pos="1176" vol="100" len="24"/>
          <note key="45" pan="0" pos="1176" vol="100" len="24"/>
          <note key="45" pan="0" pos="1224" vol="100" len="24"/>
          <note key="45" pan="0" pos="1224" vol="100" len="24"/>
          <note key="45" pan="0" pos="1224" vol="100" len="24"/>
          <note key="45" pan="0" pos="1224" vol="100" len="24"/>
          <note key="45" pan="0" pos="1272" vol="100" len="24"/>
          <note key="45" pan="0" pos="1272" vol="100" len="24"/>
          <note key="45" pan="0" pos="1272" vol="100" len="24"/>
          <note key="45" pan="0" pos="1272" vol="100" len="24"/>
          <note key="45" pan="0" pos="1320" vol="100" len="24"/>
          <note key="45" pan="0" pos="1320" vol="100" len="24"/>
          <note key="45" pan="0" pos="1320" vol="100" len="24"/>
          <note key="45" pan="0" pos="1320" vol="100" len="24"/>
          <note key="45" pan="0" pos="1368" vol="100" len="24"/>
          <note key="45" pan="0" pos="1368" vol="100" len="24"/>
          <note key="45" pan="0" pos="1368" vol="100" len="24"/>
          <note key="45" pan="0" pos="1368" vol="100" len="24"/>
          <note key="45" pan="0" pos="1416" vol="100" len="24"/>
          <note key="45" pan="0" pos="1416" vol="100" len="24"/>
          <note key="45" pan="0" pos="1416" vol="100" len="24"/>
          <note key="45" pan="0" pos="1416" vol="100" len="24"/>
          <note key="45" pan="0" pos="1464" vol="100" len="24"/>
          <note key="45" pan="0" pos="1464" vol="100" len="24"/>
          <note key="45" pan="0" pos="1464" vol="100" len="24"/>
          <note key="45" pan="0" pos="1464" vol="100" len="24"/>
          <note key="45" pan="0" pos="1512" vol="100" len="24"/>
          <note key="45" pan="0" pos="1512" vol="100" len="24"/>
          <note key="45" pan="0" pos="1512" vol="100" len="24"/>
          <note key="45" pan="0" pos="1512" vol="100" len="24"/>
        </pattern>
        <pattern type="1" name="" pos="9600" steps="16" muted="0">
          <note key="50" pan="0" pos="24" vol="100" len="24"/>
          <note key="50" pan="0" pos="24" vol="100" len="24"/>
          <note key="50" pan="0" pos="24" vol="100" len="24"/>
          <note key="50" pan="0" pos="24" vol="100" len="24"/>
          <note key="50" pan="0" pos="72" vol="100" len="24"/>
          <note key="50" pan="0" pos="72" vol="100" len="24"/>
          <note key="50" pan="0" pos="72" vol="100" len="24"/>
          <note key="50" pan="0" pos="72" vol="100" len="24"/>
          <note key="50" pan="0" pos="120" vol="100" len="24"/>
          <note key="50" pan="0" pos="120" vol="100" len="24"/>
          <note key="50" pan="0" pos="120" vol="100" len="24"/>
          <note key="50" pan="0" pos="120" vol="100" len="24"/>
          <note key="50" pan="0" pos="168" vol="100" len="24"/>
          <note key="50" pan="0" pos="168" vol="100" len="24"/>
          <note key="50" pan="0" pos="168" vol="100" len="24"/>
          <note key="50" pan="0" pos="168" vol="100" len="24"/>
          <note key="50" pan="0" pos="216" vol="100" len="24"/>
          <note key="50" pan="0" pos="216" vol="100" len="24"/>
          <note key="50" pan="0" pos="216" vol="100" len="24"/>
          <note key="50" pan="0" pos="216" vol="100" len="24"/>
          <note key="50" pan="0" pos="264" vol="100" len="24"/>
          <note key="50" pan="0" pos="264" vol="100" len="24"/>
          <note key="50" pan="0" pos="264" vol="100" len="24"/>
          <note key="50" pan="0" pos="264" vol="100" len="24"/>
          <note key="50" pan="0" pos="312" vol="100" len="24"/>
          <note key="50" pan="0" pos="312" vol="100" len="24"/>
          <note key="50" pan="0" pos="312" vol="100" len="24"/>
          <note key="50" pan="0" pos="312" vol="100" len="24"/>
          <note key="50" pan="0" pos="360" vol="100" len="24"/>
          <note key="50" pan="0" pos="360" vol="100" len="24"/>
          <note key="50" pan="0" pos="360" vol="100" len="24"/>
          <note key="50" pan="0" pos="360" vol="100" len="24"/>
          <note key="50" pan="0" pos="408" vol="100" len="24"/>
          <note key="50" pan="0" pos="408" vol="100" len="24"/>
          <note key="50" pan="0" pos="408" vol="100" len="24"/>
          <note key="50" pan="0" pos="408" vol="100" len="24"/>
          <note key="50" pan="0" pos="456" vol="100" len="24"/>
          <note key="50" pan="0" pos="456" vol="100" len="24"/>
          <note key="50" pan="0" pos="456" vol="100" len="24"/>
          <note key="50" pan="0" pos="456" vol="100" len="24"/>
          <note key="50" pan="0" pos="504" vol="100" len="24"/>
          <note key="50" pan="0" pos="504" vol="100" len="24"/>
          <note key="50" pan="0" pos="504" vol="100" len="24"/>
          <note key="50" pan="0" pos="504" vol="100" len="24"/>
          <note key="50" pan="0" pos="552" vol="100" len="24"/>
          <note key="50" pan="0" pos="552" vol="100" len="24"/>
          <note key="50" pan="0" pos="552" vol="100" len="24"/>
          <note key="50" pan="0" pos="552" vol="100" len="24"/>
          <note key="50" pan="0" pos="600" vol="100" len="24"/>
          <note key="50" pan="0" pos="600" vol="100" len="24"/>
          <note key="50" pan="0" pos="600" vol="100" len="24"/>
          <note key="50" pan="0" pos="600" vol="100" len="24"/>
          <note key="50" pan="0" pos="648" vol="100" len="24"/>
          <note key="50" pan="0" pos="648" vol="100" len="24"/>
          <note key="50" pan="0" pos="648" vol="100" len="24"/>
          <note key="50" pan="0" pos="648" vol="100" len="24"/>
          <note key="50" pan="0" pos="696" vol="100" len="24"/>
          <note key="50" pan="0" pos="696" vol="100" len="24"/>
          <note key="50" pan="0" pos="696" vol="100" len="24"/>
          <note key="50" pan="0" pos="696" vol="100" len="24"/>
          <note key="50" pan="0" pos="744" vol="100" len="24"/>
          <note key="50" pan="0" pos="744" vol="100" len="24"/>
          <note key="50" pan="0" pos="744" vol="100" len="24"/>
          <note key="50" pan="0" pos="744" vol="100" len="24"/>
          <note key="45" pan="0" pos="792" vol="100" len="24"/>
          <note key="45" pan="0" pos="792" vol="100" len="24"/>
          <note key="45" pan="0" pos="792" vol="100" len="24"/>
          <note key="45" pan="0" pos="792" vol="100" len="24"/>
          <note key="45" pan="0" pos="840" vol="100" len="24"/>
          <note key="45" pan="0" pos="840" vol="100" len="24"/>
          <note key="45" pan="0" pos="840" vol="100" len="24"/>
          <note key="45" pan="0" pos="840" vol="100" len="24"/>
          <note key="45" pan="0" pos="888" vol="100" len="24"/>
          <note key="45" pan="0" pos="888" vol="100" len="24"/>
          <note key="45" pan="0" pos="888" vol="100" len="24"/>
          <note key="45" pan="0" pos="888" vol="100" len="24"/>
          <note key="45" pan="0" pos="936" vol="100" len="24"/>
          <note key="45" pan="0" pos="936" vol="100" len="24"/>
          <note key="45" pan="0" pos="936" vol="100" len="24"/>
          <note key="45" pan="0" pos="936" vol="100" len="24"/>
          <note key="45" pan="0" pos="984" vol="100" len="24"/>
          <note key="45" pan="0" pos="984" vol="100" len="24"/>
          <note key="45" pan="0" pos="984" vol="100" len="24"/>
          <note key="45" pan="0" pos="984" vol="100" len="24"/>
          <note key="45" pan="0" pos="1032" vol="100" len="24"/>
          <note key="45" pan="0" pos="1032" vol="100" len="24"/>
          <note key="45" pan="0" pos="1032" vol="100" len="24"/>
          <note key="45" pan="0" pos="1032" vol="100" len="24"/>
          <note key="45" pan="0" pos="1080" vol="100" len="24"/>
          <note key="45" pan="0" pos="1080" vol="100" len="24"/>
          <note key="45" pan="0" pos="1080" vol="100" len="24"/>
          <note key="45" pan="0" pos="1080" vol="100" len="24"/>
          <note key="45" pan="0" pos="1128" vol="100" len="24"/>
          <note key="45" pan="0" pos="1128" vol="100" len="24"/>
          <note key="45" pan="0" pos="1128" vol="100" len="24"/>
          <note key="45" pan="0" pos="1128" vol="100" len="24"/>
          <note key="45" pan="0" pos="1176" vol="100" len="24"/>
          <note key="45" pan="0" pos="1176" vol="100" len="24"/>
          <note key="45" pan="0" pos="1176" vol="100" len="24"/>
          <note key="45" pan="0" pos="1176" vol="100" len="24"/>
          <note key="45" pan="0" pos="1224" vol="100" len="24"/>
          <note key="45" pan="0" pos="1224" vol="100" len="24"/>
          <note key="45" pan="0" pos="1224" vol="100" len="24"/>
          <note key="45" pan="0" pos="1224" vol="100" len="24"/>
          <note key="45" pan="0" pos="1272" vol="100" len="24"/>
          <note key="45" pan="0" pos="1272" vol="100" len="24"/>
          <note key="45" pan="0" pos="1272" vol="100" len="24"/>
          <note key="45" pan="0" pos="1272" vol="100" len="24"/>
          <note key="45" pan="0" pos="1320" vol="100" len="24"/>
          <note key="45" pan="0" pos="1320" vol="100" len="24"/>
          <note key="45" pan="0" pos="1320" vol="100" len="24"/>
          <note key="45" pan="0" pos="1320" vol="100" len="24"/>
          <note key="45" pan="0" pos="1368" vol="100" len="24"/>
          <note key="45" pan="0" pos="1368" vol="100" len="24"/>
          <note key="45" pan="0" pos="1368" vol="100" len="24"/>
          <note key="45" pan="0" pos="1368" vol="100" len="24"/>
          <note key="45" pan="0" pos="1416" vol="100" len="24"/>
          <note key="45" pan="0" pos="1416" vol="100" len="24"/>
          <note key="45" pan="0" pos="1416" vol="100" len="24"/>
          <note key="45" pan="0" pos="1416" vol="100" len="24"/>
          <note key="45" pan="0" pos="1464" vol="100" len="24"/>
          <note key="45" pan="0" pos="1464" vol="100" len="24"/>
          <note key="45" pan="0" pos="1464" vol="100" len="24"/>
          <note key="45" pan="0" pos="1464" vol="100" len="24"/>
          <note key="45" pan="0" pos="1512" vol="100" len="24"/>
          <note key="45" pan="0" pos="1512" vol="100" len="24"/>
          <note key="45" pan="0" pos="1512" vol="100" len="24"/>
          <note key="45" pan="0" pos="1512" vol="100" len="24"/>
        </pattern>
      </track>
      <track solo="0" type="0" name="Bass" muted="0">
        <instrumenttrack pan="0" pitch="0" vol="30.200001" basenote="57" pitchrange="1" usemasterpitch="1" fxch="0">
          <instrument name="sid">
            <sid waveform0="2" waveform2="2" filterMode="2" ringmod1="0" chipModel="1" filtered1="0" volume="15" coarse1="0" release0="6" sync0="0" sustain0="6" pulsewidth1="2048" test1="1" decay1="8" test0="0" voice3Off="0" sync1="0" filterResonance="8" sync2="0" attack1="1" decay0="8" pulsewidth2="2048" coarse2="0" attack0="1" pulsewidth0="2048" sustain1="0" waveform1="1" coarse0="-12" ringmod2="0" attack2="0" release1="7" filtered0="0" sustain2="5" filterFC="1024" filtered2="0" decay2="0" test2="1" release2="5" ringmod0="0"/>
          </instrument>
          <eldata fres="0.5" ftype="0" fwet="0" fcut="14000">
            <elvol lspd_syncmode="0" amt="1" hold="0" ctlenvamt="0" rel="0.1" x100="0" lspd_numerator="4" lspd_denominator="4" lpdel="0" lshp="0" sustain="0.5" lamt="0" latt="0" att="0" pdel="0" dec="0.708" userwavefile="" lspd="0.1"/>
            <elcut lspd_syncmode="0" amt="0" hold="0.5" ctlenvamt="0" rel="0.1" x100="0" lspd_numerator="4" lspd_denominator="4" lpdel="0" lshp="0" sustain="0.5" lamt="0" latt="0" att="0" pdel="0" dec="0.5" userwavefile="" lspd="0.1"/>
            <elres lspd_syncmode="0" amt="0" hold="0.5" ctlenvamt="0" rel="0.1" x100="0" lspd_numerator="4" lspd_denominator="4" lpdel="0" lshp="0" sustain="0.5" lamt="0" latt="0" att="0" pdel="0" dec="0.5" userwavefile="" lspd="0.1"/>
          </eldata>
          <chordcreator chord-enabled="0" chordrange="1" chord="0"/>
          <arpeggiator arp="0" arprange="1" arpmode="0" arpdir="0" arpskip="0" arptime="100" arptime_numerator="4" arp-enabled="0" arpgate="100" arpcycle="0" arptime_denominator="4" arpmiss="0" arptime_syncmode="0"/>
          <midiport fixedoutputvelocity="-1" inputcontroller="0" outputcontroller="0" basevelocity="127" writable="0" readable="0" fixedoutputnote="-1" outputchannel="1" outputprogram="1" inputchannel="0" fixedinputvelocity="-1"/>
          <fxchain numofeffects="1" enabled="1">
            <effect autoquit_syncmode="0" autoquit_denominator="4" autoquit="1" wet="1" name="ladspaeffect" gate="0" autoquit_numerator="4" on="1">
              <ladspacontrols ports="10">
                <port00 data="10"/>
                <port01 data="0"/>
                <port02 data="50"/>
                <port03 data="0"/>
                <port04 data="0"/>
                <port05 data="0"/>
                <port06 data="0"/>
                <port07 data="0"/>
                <port08 data="1"/>
                <port09 data="0"/>
              </ladspacontrols>
              <key>
                <attribute name="file" value="tap_echo"/>
                <attribute name="plugin" value="tap_stereo_echo"/>
              </key>
            </effect>
          </fxchain>
        </instrumenttrack>
        <pattern type="1" name="Bass" pos="8064" steps="16" muted="0">
          <note key="50" pan="0" pos="0" vol="44" len="24"/>
          <note key="50" pan="0" pos="0" vol="44" len="24"/>
          <note key="50" pan="0" pos="0" vol="44" len="24"/>
          <note key="50" pan="0" pos="0" vol="44" len="24"/>
          <note key="50" pan="0" pos="24" vol="100" len="24"/>
          <note key="50" pan="0" pos="24" vol="100" len="24"/>
          <note key="50" pan="0" pos="24" vol="100" len="24"/>
          <note key="50" pan="0" pos="24" vol="100" len="24"/>
          <note key="50" pan="0" pos="48" vol="44" len="24"/>
          <note key="50" pan="0" pos="48" vol="44" len="24"/>
          <note key="50" pan="0" pos="48" vol="44" len="24"/>
          <note key="50" pan="0" pos="48" vol="44" len="24"/>
          <note key="50" pan="0" pos="72" vol="100" len="24"/>
          <note key="50" pan="0" pos="72" vol="100" len="24"/>
          <note key="50" pan="0" pos="72" vol="100" len="24"/>
          <note key="50" pan="0" pos="72" vol="100" len="24"/>
          <note key="50" pan="0" pos="96" vol="44" len="24"/>
          <note key="50" pan="0" pos="96" vol="44" len="24"/>
          <note key="50" pan="0" pos="96" vol="44" len="24"/>
          <note key="50" pan="0" pos="96" vol="44" len="24"/>
          <note key="50" pan="0" pos="120" vol="100" len="24"/>
          <note key="50" pan="0" pos="120" vol="100" len="24"/>
          <note key="50" pan="0" pos="120" vol="100" len="24"/>
          <note key="50" pan="0" pos="120" vol="100" len="24"/>
          <note key="50" pan="0" pos="144" vol="44" len="24"/>
          <note key="50" pan="0" pos="144" vol="44" len="24"/>
          <note key="50" pan="0" pos="144" vol="44" len="24"/>
          <note key="50" pan="0" pos="144" vol="44" len="24"/>
          <note key="50" pan="0" pos="168" vol="100" len="24"/>
          <note key="50" pan="0" pos="168" vol="100" len="24"/>
          <note key="50" pan="0" pos="168" vol="100" len="24"/>
          <note key="50" pan="0" pos="168" vol="100" len="24"/>
          <note key="50" pan="0" pos="192" vol="44" len="24"/>
          <note key="50" pan="0" pos="192" vol="44" len="24"/>
          <note key="50" pan="0" pos="192" vol="44" len="24"/>
          <note key="50" pan="0" pos="192" vol="44" len="24"/>
          <note key="50" pan="0" pos="216" vol="100" len="24"/>
          <note key="50" pan="0" pos="216" vol="100" len="24"/>
          <note key="50" pan="0" pos="216" vol="100" len="24"/>
          <note key="50" pan="0" pos="216" vol="100" len="24"/>
          <note key="50" pan="0" pos="240" vol="44" len="24"/>
          <note key="50" pan="0" pos="240" vol="44" len="24"/>
          <note key="50" pan="0" pos="240" vol="44" len="24"/>
          <note key="50" pan="0" pos="240" vol="44" len="24"/>
          <note key="50" pan="0" pos="264" vol="100" len="24"/>
          <note key="50" pan="0" pos="264" vol="100" len="24"/>
          <note key="50" pan="0" pos="264" vol="100" len="24"/>
          <note key="50" pan="0" pos="264" vol="100" len="24"/>
          <note key="50" pan="0" pos="288" vol="44" len="24"/>
          <note key="50" pan="0" pos="288" vol="44" len="24"/>
          <note key="50" pan="0" pos="288" vol="44" len="24"/>
          <note key="50" pan="0" pos="288" vol="44" len="24"/>
          <note key="50" pan="0" pos="312" vol="100" len="24"/>
          <note key="50" pan="0" pos="312" vol="100" len="24"/>
          <note key="50" pan="0" pos="312" vol="100" len="24"/>
          <note key="50" pan="0" pos="312" vol="100" len="24"/>
          <note key="50" pan="0" pos="336" vol="44" len="24"/>
          <note key="50" pan="0" pos="336" vol="44" len="24"/>
          <note key="50" pan="0" pos="336" vol="44" len="24"/>
          <note key="50" pan="0" pos="336" vol="44" len="24"/>
          <note key="50" pan="0" pos="360" vol="100" len="24"/>
          <note key="50" pan="0" pos="360" vol="100" len="24"/>
          <note key="50" pan="0" pos="360" vol="100" len="24"/>
          <note key="50" pan="0" pos="360" vol="100" len="24"/>
          <note key="50" pan="0" pos="384" vol="44" len="24"/>
          <note key="50" pan="0" pos="384" vol="44" len="24"/>
          <note key="50" pan="0" pos="384" vol="44" len="24"/>
          <note key="50" pan="0" pos="384" vol="44" len="24"/>
          <note key="50" pan="0" pos="408" vol="100" len="24"/>
          <note key="50" pan="0" pos="408" vol="100" len="24"/>
          <note key="50" pan="0" pos="408" vol="100" len="24"/>
          <note key="50" pan="0" pos="408" vol="100" len="24"/>
          <note key="50" pan="0" pos="432" vol="44" len="24"/>
          <note key="50" pan="0" pos="432" vol="44" len="24"/>
          <note key="50" pan="0" pos="432" vol="44" len="24"/>
          <note key="50" pan="0" pos="432" vol="44" len="24"/>
          <note key="50" pan="0" pos="456" vol="100" len="24"/>
          <note key="50" pan="0" pos="456" vol="100" len="24"/>
          <note key="50" pan="0" pos="456" vol="100" len="24"/>
          <note key="50" pan="0" pos="456" vol="100" len="24"/>
          <note key="50" pan="0" pos="480" vol="44" len="24"/>
          <note key="50" pan="0" pos="480" vol="44" len="24"/>
          <note key="50" pan="0" pos="480" vol="44" len="24"/>
          <note key="50" pan="0" pos="480" vol="44" len="24"/>
          <note key="50" pan="0" pos="504" vol="100" len="24"/>
          <note key="50" pan="0" pos="504" vol="100" len="24"/>
          <note key="50" pan="0" pos="504" vol="100" len="24"/>
          <note key="50" pan="0" pos="504" vol="100" len="24"/>
          <note key="50" pan="0" pos="528" vol="44" len="24"/>
          <note key="50" pan="0" pos="528" vol="44" len="24"/>
          <note key="50" pan="0" pos="528" vol="44" len="24"/>
          <note key="50" pan="0" pos="528" vol="44" len="24"/>
          <note key="50" pan="0" pos="552" vol="100" len="24"/>
          <note key="50" pan="0" pos="552" vol="100" len="24"/>
          <note key="50" pan="0" pos="552" vol="100" len="24"/>
          <note key="50" pan="0" pos="552" vol="100" len="24"/>
          <note key="50" pan="0" pos="576" vol="44" len="24"/>
          <note key="50" pan="0" pos="576" vol="44" len="24"/>
          <note key="50" pan="0" pos="576" vol="44" len="24"/>
          <note key="50" pan="0" pos="576" vol="44" len="24"/>
          <note key="50" pan="0" pos="600" vol="100" len="24"/>
          <note key="50" pan="0" pos="600" vol="100" len="24"/>
          <note key="50" pan="0" pos="600" vol="100" len="24"/>
          <note key="50" pan="0" pos="600" vol="100" len="24"/>
          <note key="50" pan="0" pos="624" vol="44" len="24"/>
          <note key="50" pan="0" pos="624" vol="44" len="24"/>
          <note key="50" pan="0" pos="624" vol="44" len="24"/>
          <note key="50" pan="0" pos="624" vol="44" len="24"/>
          <note key="50" pan="0" pos="648" vol="100" len="24"/>
          <note key="50" pan="0" pos="648" vol="100" len="24"/>
          <note key="50" pan="0" pos="648" vol="100" len="24"/>
          <note key="50" pan="0" pos="648" vol="100" len="24"/>
          <note key="50" pan="0" pos="672" vol="44" len="24"/>
          <note key="50" pan="0" pos="672" vol="44" len="24"/>
          <note key="50" pan="0" pos="672" vol="44" len="24"/>
          <note key="50" pan="0" pos="672" vol="44" len="24"/>
          <note key="50" pan="0" pos="696" vol="100" len="24"/>
          <note key="50" pan="0" pos="696" vol="100" len="24"/>
          <note key="50" pan="0" pos="696" vol="100" len="24"/>
          <note key="50" pan="0" pos="696" vol="100" len="24"/>
          <note key="50" pan="0" pos="720" vol="44" len="24"/>
          <note key="50" pan="0" pos="720" vol="44" len="24"/>
          <note key="50" pan="0" pos="720" vol="44" len="24"/>
          <note key="50" pan="0" pos="720" vol="44" len="24"/>
          <note key="50" pan="0" pos="744" vol="100" len="24"/>
          <note key="50" pan="0" pos="744" vol="100" len="24"/>
          <note key="50" pan="0" pos="744" vol="100" len="24"/>
          <note key="50" pan="0" pos="744" vol="100" len="24"/>
          <note key="45" pan="0" pos="768" vol="44" len="24"/>
          <note key="45" pan="0" pos="768" vol="44" len="24"/>
          <note key="45" pan="0" pos="768" vol="44" len="24"/>
          <note key="45" pan="0" pos="768" vol="44" len="24"/>
          <note key="45" pan="0" pos="792" vol="100" len="24"/>
          <note key="45" pan="0" pos="792" vol="100" len="24"/>
          <note key="45" pan="0" pos="792" vol="100" len="24"/>
          <note key="45" pan="0" pos="792" vol="100" len="24"/>
          <note key="45" pan="0" pos="816" vol="44" len="24"/>
          <note key="45" pan="0" pos="816" vol="44" len="24"/>
          <note key="45" pan="0" pos="816" vol="44" len="24"/>
          <note key="45" pan="0" pos="816" vol="44" len="24"/>
          <note key="45" pan="0" pos="840" vol="100" len="24"/>
          <note key="45" pan="0" pos="840" vol="100" len="24"/>
          <note key="45" pan="0" pos="840" vol="100" len="24"/>
          <note key="45" pan="0" pos="840" vol="100" len="24"/>
          <note key="45" pan="0" pos="864" vol="44" len="24"/>
          <note key="45" pan="0" pos="864" vol="44" len="24"/>
          <note key="45" pan="0" pos="864" vol="44" len="24"/>
          <note key="45" pan="0" pos="864" vol="44" len="24"/>
          <note key="45" pan="0" pos="888" vol="100" len="24"/>
          <note key="45" pan="0" pos="888" vol="100" len="24"/>
          <note key="45" pan="0" pos="888" vol="100" len="24"/>
          <note key="45" pan="0" pos="888" vol="100" len="24"/>
          <note key="45" pan="0" pos="912" vol="44" len="24"/>
          <note key="45" pan="0" pos="912" vol="44" len="24"/>
          <note key="45" pan="0" pos="912" vol="44" len="24"/>
          <note key="45" pan="0" pos="912" vol="44" len="24"/>
          <note key="45" pan="0" pos="936" vol="100" len="24"/>
          <note key="45" pan="0" pos="936" vol="100" len="24"/>
          <note key="45" pan="0" pos="936" vol="100" len="24"/>
          <note key="45" pan="0" pos="936" vol="100" len="24"/>
          <note key="45" pan="0" pos="960" vol="44" len="24"/>
          <note key="45" pan="0" pos="960" vol="44" len="24"/>
          <note key="45" pan="0" pos="960" vol="44" len="24"/>
          <note key="45" pan="0" pos="960" vol="44" len="24"/>
          <note key="45" pan="0" pos="984" vol="100" len="24"/>
          <note key="45" pan="0" pos="984" vol="100" len="24"/>
          <note key="45" pan="0" pos="984" vol="100" len="24"/>
          <note key="45" pan="0" pos="984" vol="100" len="24"/>
          <note key="45" pan="0" pos="1008" vol="44" len="24"/>
          <note key="45" pan="0" pos="1008" vol="44" len="24"/>
          <note key="45" pan="0" pos="1008" vol="44" len="24"/>
          <note key="45" pan="0" pos="1008" vol="44" len="24"/>
          <note key="45" pan="0" pos="1032" vol="100" len="24"/>
          <note key="45" pan="0" pos="1032" vol="100" len="24"/>
          <note key="45" pan="0" pos="1032" vol="100" len="24"/>
          <note key="45" pan="0" pos="1032" vol="100" len="24"/>
          <note key="45" pan="0" pos="1056" vol="44" len="24"/>
          <note key="45" pan="0" pos="1056" vol="44" len="24"/>
          <note key="45" pan="0" pos="1056" vol="44" len="24"/>
          <note key="45" pan="0" pos="1056" vol="44" len="24"/>
          <note key="45" pan="0" pos="1080" vol="100" len="24"/>
          <note key="45" pan="0" pos="1080" vol="100" len="24"/>
          <note key="45" pan="0" pos="1080" vol="100" len="24"/>
          <note key="45" pan="0" pos="1080" vol="100" len="24"/>
          <note key="45" pan="0" pos="1104" vol="44" len="24"/>
          <note key="45" pan="0" pos="1104" vol="44" len="24"/>
          <note key="45" pan="0" pos="1104" vol="44" len="24"/>
          <note key="45" pan="0" pos="1104" vol="44" len="24"/>
          <note key="45" pan="0" pos="1128" vol="100" len="24"/>
          <note key="45" pan="0" pos="1128" vol="100" len="24"/>
          <note key="45" pan="0" pos="1128" vol="100" len="24"/>
          <note key="45" pan="0" pos="1128" vol="100" len="24"/>
          <note key="45" pan="0" pos="1152" vol="44" len="24"/>
          <note key="45" pan="0" pos="1152" vol="44" len="24"/>
          <note key="45" pan="0" pos="1152" vol="44" len="24"/>
          <note key="45" pan="0" pos="1152" vol="44" len="24"/>
          <note key="45" pan="0" pos="1176" vol="100" len="24"/>
          <note key="45" pan="0" pos="1176" vol="100" len="24"/>
          <note key="45" pan="0" pos="1176" vol="100" len="24"/>
          <note key="45" pan="0" pos="1176" vol="100" len="24"/>
          <note key="45" pan="0" pos="1200" vol="44" len="24"/>
          <note key="45" pan="0" pos="1200" vol="44" len="24"/>
          <note key="45" pan="0" pos="1200" vol="44" len="24"/>
          <note key="45" pan="0" pos="1200" vol="44" len="24"/>
          <note key="45" pan="0" pos="1224" vol="100" len="24"/>
          <note key="45" pan="0" pos="1224" vol="100" len="24"/>
          <note key="45" pan="0" pos="1224" vol="100" len="24"/>
          <note key="45" pan="0" pos="1224" vol="100" len="24"/>
          <note key="45" pan="0" pos="1248" vol="44" len="24"/>
          <note key="45" pan="0" pos="1248" vol="44" len="24"/>
          <note key="45" pan="0" pos="1248" vol="44" len="24"/>
          <note key="45" pan="0" pos="1248" vol="44" len="24"/>
          <note key="45" pan="0" pos="1272" vol="100" len="24"/>
          <note key="45" pan="0" pos="1272" vol="100" len="24"/>
          <note key="45" pan="0" pos="1272" vol="100" len="24"/>
          <note key="45" pan="0" pos="1272" vol="100" len="24"/>
          <note key="45" pan="0" pos="1296" vol="44" len="24"/>
          <note key="45" pan="0" pos="1296" vol="44" len="24"/>
          <note key="45" pan="0" pos="1296" vol="44" len="24"/>
          <note key="45" pan="0" pos="1296" vol="44" len="24"/>
          <note key="45" pan="0" pos="1320" vol="100" len="24"/>
          <note key="45" pan="0" pos="1320" vol="100" len="24"/>
          <note key="45" pan="0" pos="1320" vol="100" len="24"/>
          <note key="45" pan="0" pos="1320" vol="100" len="24"/>
          <note key="45" pan="0" pos="1344" vol="44" len="24"/>
          <note key="45" pan="0" pos="1344" vol="44" len="24"/>
          <note key="45" pan="0" pos="1344" vol="44" len="24"/>
          <note key="45" pan="0" pos="1344" vol="44" len="24"/>
          <note key="45" pan="0" pos="1368" vol="100" len="24"/>
          <note key="45" pan="0" pos="1368" vol="100" len="24"/>
          <note key="45" pan="0" pos="1368" vol="100" len="24"/>
          <note key="45" pan="0" pos="1368" vol="100" len="24"/>
          <note key="45" pan="0" pos="1392" vol="44" len="24"/>
          <note key="45" pan="0" pos="1392" vol="44" len="24"/>
          <note key="45" pan="0" pos="1392" vol="44" len="24"/>
          <note key="45" pan="0" pos="1392" vol="44" len="24"/>
          <note key="45" pan="0" pos="1416" vol="100" len="24"/>
          <note key="45" pan="0" pos="1416" vol="100" len="24"/>
          <note key="45" pan="0" pos="1416" vol="100" len="24"/>
          <note key="45" pan="0" pos="1416" vol="100" len="24"/>
          <note key="45" pan="0" pos="1440" vol="44" len="24"/>
          <note key="45" pan="0" pos="1440" vol="44" len="24"/>
          <note key="45" pan="0" pos="1440" vol="44" len="24"/>
          <note key="45" pan="0" pos="1440" vol="44" len="24"/>
          <note key="45" pan="0" pos="1464" vol="100" len="24"/>
          <note key="45" pan="0" pos="1464" vol="100" len="24"/>
          <note key="45" pan="0" pos="1464" vol="100" len="24"/>
          <note key="45" pan="0" pos="1464" vol="100" len="24"/>
          <note key="45" pan="0" pos="1488" vol="44" len="24"/>
          <note key="45" pan="0" pos="1488" vol="44" len="24"/>
          <note key="45" pan="0" pos="1488" vol="44" len="24"/>
          <note key="45" pan="0" pos="1488" vol="44" len="24"/>
          <note key="45" pan="0" pos="1512" vol="100" len="24"/>
          <note key="45" pan="0" pos="1512" vol="100" len="24"/>
          <note key="45" pan="0" pos="1512" vol="100" len="24"/>
          <note key="45" pan="0" pos="1512" vol="100" len="24"/>
        </pattern>
        <pattern type="1" name="Bass" pos="9600" steps="16" muted="0">
          <note key="50" pan="0" pos="0" vol="44" len="24"/>
          <note key="50" pan="0" pos="0" vol="44" len="24"/>
          <note key="50" pan="0" pos="0" vol="44" len="24"/>
          <note key="50" pan="0" pos="0" vol="44" len="24"/>
          <note key="50" pan="0" pos="24" vol="100" len="24"/>
          <note key="50" pan="0" pos="24" vol="100" len="24"/>
          <note key="50" pan="0" pos="24" vol="100" len="24"/>
          <note key="50" pan="0" pos="24" vol="100" len="24"/>
          <note key="50" pan="0" pos="48" vol="44" len="24"/>
          <note key="50" pan="0" pos="48" vol="44" len="24"/>
          <note key="50" pan="0" pos="48" vol="44" len="24"/>
          <note key="50" pan="0" pos="48" vol="44" len="24"/>
          <note key="50" pan="0" pos="72" vol="100" len="24"/>
          <note key="50" pan="0" pos="72" vol="100" len="24"/>
          <note key="50" pan="0" pos="72" vol="100" len="24"/>
          <note key="50" pan="0" pos="72" vol="100" len="24"/>
          <note key="50" pan="0" pos="96" vol="44" len="24"/>
          <note key="50" pan="0" pos="96" vol="44" len="24"/>
          <note key="50" pan="0" pos="96" vol="44" len="24"/>
          <note key="50" pan="0" pos="96" vol="44" len="24"/>
          <note key="50" pan="0" pos="120" vol="100" len="24"/>
          <note key="50" pan="0" pos="120" vol="100" len="24"/>
          <note key="50" pan="0" pos="120" vol="100" len="24"/>
          <note key="50" pan="0" pos="120" vol="100" len="24"/>
          <note key="50" pan="0" pos="144" vol="44" len="24"/>
          <note key="50" pan="0" pos="144" vol="44" len="24"/>
          <note key="50" pan="0" pos="144" vol="44" len="24"/>
          <note key="50" pan="0" pos="144" vol="44" len="24"/>
          <note key="50" pan="0" pos="168" vol="100" len="24"/>
          <note key="50" pan="0" pos="168" vol="100" len="24"/>
          <note key="50" pan="0" pos="168" vol="100" len="24"/>
          <note key="50" pan="0" pos="168" vol="100" len="24"/>
          <note key="50" pan="0" pos="192" vol="44" len="24"/>
          <note key="50" pan="0" pos="192" vol="44" len="24"/>
          <note key="50" pan="0" pos="192" vol="44" len="24"/>
          <note key="50" pan="0" pos="192" vol="44" len="24"/>
          <note key="50" pan="0" pos="216" vol="100" len="24"/>
          <note key="50" pan="0" pos="216" vol="100" len="24"/>
          <note key="50" pan="0" pos="216" vol="100" len="24"/>
          <note key="50" pan="0" pos="216" vol="100" len="24"/>
          <note key="50" pan="0" pos="240" vol="44" len="24"/>
          <note key="50" pan="0" pos="240" vol="44" len="24"/>
          <note key="50" pan="0" pos="240" vol="44" len="24"/>
          <note key="50" pan="0" pos="240" vol="44" len="24"/>
          <note key="50" pan="0" pos="264" vol="100" len="24"/>
          <note key="50" pan="0" pos="264" vol="100" len="24"/>
          <note key="50" pan="0" pos="264" vol="100" len="24"/>
          <note key="50" pan="0" pos="264" vol="100" len="24"/>
          <note key="50" pan="0" pos="288" vol="44" len="24"/>
          <note key="50" pan="0" pos="288" vol="44" len="24"/>
          <note key="50" pan="0" pos="288" vol="44" len="24"/>
          <note key="50" pan="0" pos="288" vol="44" len="24"/>
          <note key="50" pan="0" pos="312" vol="100" len="24"/>
          <note key="50" pan="0" pos="312" vol="100" len="24"/>
          <note key="50" pan="0" pos="312" vol="100" len="24"/>
          <note key="50" pan="0" pos="312" vol="100" len="24"/>
          <note key="50" pan="0" pos="336" vol="44" len="24"/>
          <note key="50" pan="0" pos="336" vol="44" len="24"/>
          <note key="50" pan="0" pos="336" vol="44" len="24"/>
          <note key="50" pan="0" pos="336" vol="44" len="24"/>
          <note key="50" pan="0" pos="360" vol="100" len="24"/>
          <note key="50" pan="0" pos="360" vol="100" len="24"/>
          <note key="50" pan="0" pos="360" vol="100" len="24"/>
          <note key="50" pan="0" pos="360" vol="100" len="24"/>
          <note key="50" pan="0" pos="384" vol="44" len="24"/>
          <note key="50" pan="0" pos="384" vol="44" len="24"/>
          <note key="50" pan="0" pos="384" vol="44" len="24"/>
          <note key="50" pan="0" pos="384" vol="44" len="24"/>
          <note key="50" pan="0" pos="408" vol="100" len="24"/>
          <note key="50" pan="0" pos="408" vol="100" len="24"/>
          <note key="50" pan="0" pos="408" vol="100" len="24"/>
          <note key="50" pan="0" pos="408" vol="100" len="24"/>
          <note key="50" pan="0" pos="432" vol="44" len="24"/>
          <note key="50" pan="0" pos="432" vol="44" len="24"/>
          <note key="50" pan="0" pos="432" vol="44" len="24"/>
          <note key="50" pan="0" pos="432" vol="44" len="24"/>
          <note key="50" pan="0" pos="456" vol="100" len="24"/>
          <note key="50" pan="0" pos="456" vol="100" len="24"/>
          <note key="50" pan="0" pos="456" vol="100" len="24"/>
          <note key="50" pan="0" pos="456" vol="100" len="24"/>
          <note key="50" pan="0" pos="480" vol="44" len="24"/>
          <note key="50" pan="0" pos="480" vol="44" len="24"/>
          <note key="50" pan="0" pos="480" vol="44" len="24"/>
          <note key="50" pan="0" pos="480" vol="44" len="24"/>
          <note key="50" pan="0" pos="504" vol="100" len="24"/>
          <note key="50" pan="0" pos="504" vol="100" len="24"/>
          <note key="50" pan="0" pos="504" vol="100" len="24"/>
          <note key="50" pan="0" pos="504" vol="100" len="24"/>
          <note key="50" pan="0" pos="528" vol="44" len="24"/>
          <note key="50" pan="0" pos="528" vol="44" len="24"/>
          <note key="50" pan="0" pos="528" vol="44" len="24"/>
          <note key="50" pan="0" pos="528" vol="44" len="24"/>
          <note key="50" pan="0" pos="552" vol="100" len="24"/>
          <note key="50" pan="0" pos="552" vol="100" len="24"/>
          <note key="50" pan="0" pos="552" vol="100" len="24"/>
          <note key="50" pan="0" pos="552" vol="100" len="24"/>
          <note key="50" pan="0" pos="576" vol="44" len="24"/>
          <note key="50" pan="0" pos="576" vol="44" len="24"/>
          <note key="50" pan="0" pos="576" vol="44" len="24"/>
          <note key="50" pan="0" pos="576" vol="44" len="24"/>
          <note key="50" pan="0" pos="600" vol="100" len="24"/>
          <note key="50" pan="0" pos="600" vol="100" len="24"/>
          <note key="50" pan="0" pos="600" vol="100" len="24"/>
          <note key="50" pan="0" pos="600" vol="100" len="24"/>
          <note key="50" pan="0" pos="624" vol="44" len="24"/>
          <note key="50" pan="0" pos="624" vol="44" len="24"/>
          <note key="50" pan="0" pos="624" vol="44" len="24"/>
          <note key="50" pan="0" pos="624" vol="44" len="24"/>
          <note key="50" pan="0" pos="648" vol="100" len="24"/>
          <note key="50" pan="0" pos="648" vol="100" len="24"/>
          <note key="50" pan="0" pos="648" vol="100" len="24"/>
          <note key="50" pan="0" pos="648" vol="100" len="24"/>
          <note key="50" pan="0" pos="672" vol="44" len="24"/>
          <note key="50" pan="0" pos="672" vol="44" len="24"/>
          <note key="50" pan="0" pos="672" vol="44" len="24"/>
          <note key="50" pan="0" pos="672" vol="44" len="24"/>
          <note key="50" pan="0" pos="696" vol="100" len="24"/>
          <note key="50" pan="0" pos="696" vol="100" len="24"/>
          <note key="50" pan="0" pos="696" vol="100" len="24"/>
          <note key="50" pan="0" pos="696" vol="100" len="24"/>
          <note key="50" pan="0" pos="720" vol="44" len="24"/>
          <note key="50" pan="0" pos="720" vol="44" len="24"/>
          <note key="50" pan="0" pos="720" vol="44" len="24"/>
          <note key="50" pan="0" pos="720" vol="44" len="24"/>
          <note key="50" pan="0" pos="744" vol="100" len="24"/>
          <note key="50" pan="0" pos="744" vol="100" len="24"/>
          <note key="50" pan="0" pos="744" vol="100" len="24"/>
          <note key="50" pan="0" pos="744" vol="100" len="24"/>
          <note key="45" pan="0" pos="768" vol="44" len="24"/>
          <note key="45" pan="0" pos="768" vol="44" len="24"/>
          <note key="45" pan="0" pos="768" vol="44" len="24"/>
          <note key="45" pan="0" pos="768" vol="44" len="24"/>
          <note key="45" pan="0" pos="792" vol="100" len="24"/>
          <note key="45" pan="0" pos="792" vol="100" len="24"/>
          <note key="45" pan="0" pos="792" vol="100" len="24"/>
          <note key="45" pan="0" pos="792" vol="100" len="24"/>
          <note key="45" pan="0" pos="816" vol="44" len="24"/>
          <note key="45" pan="0" pos="816" vol="44" len="24"/>
          <note key="45" pan="0" pos="816" vol="44" len="24"/>
          <note key="45" pan="0" pos="816" vol="44" len="24"/>
          <note key="45" pan="0" pos="840" vol="100" len="24"/>
          <note key="45" pan="0" pos="840" vol="100" len="24"/>
          <note key="45" pan="0" pos="840" vol="100" len="24"/>
          <note key="45" pan="0" pos="840" vol="100" len="24"/>
          <note key="45" pan="0" pos="864" vol="44" len="24"/>
          <note key="45" pan="0" pos="864" vol="44" len="24"/>
          <note key="45" pan="0" pos="864" vol="44" len="24"/>
          <note key="45" pan="0" pos="864" vol="44" len="24"/>
          <note key="45" pan="0" pos="888" vol="100" len="24"/>
          <note key="45" pan="0" pos="888" vol="100" len="24"/>
          <note key="45" pan="0" pos="888" vol="100" len="24"/>
          <note key="45" pan="0" pos="888" vol="100" len="24"/>
          <note key="45" pan="0" pos="912" vol="44" len="24"/>
          <note key="45" pan="0" pos="912" vol="44" len="24"/>
          <note key="45" pan="0" pos="912" vol="44" len="24"/>
          <note key="45" pan="0" pos="912" vol="44" len="24"/>
          <note key="45" pan="0" pos="936" vol="100" len="24"/>
          <note key="45" pan="0" pos="936" vol="100" len="24"/>
          <note key="45" pan="0" pos="936" vol="100" len="24"/>
          <note key="45" pan="0" pos="936" vol="100" len="24"/>
          <note key="45" pan="0" pos="960" vol="44" len="24"/>
          <note key="45" pan="0" pos="960" vol="44" len="24"/>
          <note key="45" pan="0" pos="960" vol="44" len="24"/>
          <note key="45" pan="0" pos="960" vol="44" len="24"/>
          <note key="45" pan="0" pos="984" vol="100" len="24"/>
          <note key="45" pan="0" pos="984" vol="100" len="24"/>
          <note key="45" pan="0" pos="984" vol="100" len="24"/>
          <note key="45" pan="0" pos="984" vol="100" len="24"/>
          <note key="45" pan="0" pos="1008" vol="44" len="24"/>
          <note key="45" pan="0" pos="1008" vol="44" len="24"/>
          <note key="45" pan="0" pos="1008" vol="44" len="24"/>
          <note key="45" pan="0" pos="1008" vol="44" len="24"/>
          <note key="45" pan="0" pos="1032" vol="100" len="24"/>
          <note key="45" pan="0" pos="1032" vol="100" len="24"/>
          <note key="45" pan="0" pos="1032" vol="100" len="24"/>
          <note key="45" pan="0" pos="1032" vol="100" len="24"/>
          <note key="45" pan="0" pos="1056" vol="44" len="24"/>
          <note key="45" pan="0" pos="1056" vol="44" len="24"/>
          <note key="45" pan="0" pos="1056" vol="44" len="24"/>
          <note key="45" pan="0" pos="1056" vol="44" len="24"/>
          <note key="45" pan="0" pos="1080" vol="100" len="24"/>
          <note key="45" pan="0" pos="1080" vol="100" len="24"/>
          <note key="45" pan="0" pos="1080" vol="100" len="24"/>
          <note key="45" pan="0" pos="1080" vol="100" len="24"/>
          <note key="45" pan="0" pos="1104" vol="44" len="24"/>
          <note key="45" pan="0" pos="1104" vol="44" len="24"/>
          <note key="45" pan="0" pos="1104" vol="44" len="24"/>
          <note key="45" pan="0" pos="1104" vol="44" len="24"/>
          <note key="45" pan="0" pos="1128" vol="100" len="24"/>
          <note key="45" pan="0" pos="1128" vol="100" len="24"/>
          <note key="45" pan="0" pos="1128" vol="100" len="24"/>
          <note key="45" pan="0" pos="1128" vol="100" len="24"/>
          <note key="45" pan="0" pos="1152" vol="44" len="24"/>
          <note key="45" pan="0" pos="1152" vol="44" len="24"/>
          <note key="45" pan="0" pos="1152" vol="44" len="24"/>
          <note key="45" pan="0" pos="1152" vol="44" len="24"/>
          <note key="45" pan="0" pos="1176" vol="100" len="24"/>
          <note key="45" pan="0" pos="1176" vol="100" len="24"/>
          <note key="45" pan="0" pos="1176" vol="100" len="24"/>
          <note key="45" pan="0" pos="1176" vol="100" len="24"/>
          <note key="45" pan="0" pos="1200" vol="44" len="24"/>
          <note key="45" pan="0" pos="1200" vol="44" len="24"/>
          <note key="45" pan="0" pos="1200" vol="44" len="24"/>
          <note key="45" pan="0" pos="1200" vol="44" len="24"/>
          <note key="45" pan="0" pos="1224" vol="100" len="24"/>
          <note key="45" pan="0" pos="1224" vol="100" len="24"/>
          <note key="45" pan="0" pos="1224" vol="100" len="24"/>
          <note key="45" pan="0" pos="1224" vol="100" len="24"/>
          <note key="45" pan="0" pos="1248" vol="44" len="24"/>
          <note key="45" pan="0" pos="1248" vol="44" len="24"/>
          <note key="45" pan="0" pos="1248" vol="44" len="24"/>
          <note key="45" pan="0" pos="1248" vol="44" len="24"/>
          <note key="45" pan="0" pos="1272" vol="100" len="24"/>
          <note key="45" pan="0" pos="1272" vol="100" len="24"/>
          <note key="45" pan="0" pos="1272" vol="100" len="24"/>
          <note key="45" pan="0" pos="1272" vol="100" len="24"/>
          <note key="45" pan="0" pos="1296" vol="44" len="24"/>
          <note key="45" pan="0" pos="1296" vol="44" len="24"/>
          <note key="45" pan="0" pos="1296" vol="44" len="24"/>
          <note key="45" pan="0" pos="1296" vol="44" len="24"/>
          <note key="45" pan="0" pos="1320" vol="100" len="24"/>
          <note key="45" pan="0" pos="1320" vol="100" len="24"/>
          <note key="45" pan="0" pos="1320" vol="100" len="24"/>
          <note key="45" pan="0" pos="1320" vol="100" len="24"/>
          <note key="45" pan="0" pos="1344" vol="44" len="24"/>
          <note key="45" pan="0" pos="1344" vol="44" len="24"/>
          <note key="45" pan="0" pos="1344" vol="44" len="24"/>
          <note key="45" pan="0" pos="1344" vol="44" len="24"/>
          <note key="45" pan="0" pos="1368" vol="100" len="24"/>
          <note key="45" pan="0" pos="1368" vol="100" len="24"/>
          <note key="45" pan="0" pos="1368" vol="100" len="24"/>
          <note key="45" pan="0" pos="1368" vol="100" len="24"/>
          <note key="45" pan="0" pos="1392" vol="44" len="24"/>
          <note key="45" pan="0" pos="1392" vol="44" len="24"/>
          <note key="45" pan="0" pos="1392" vol="44" len="24"/>
          <note key="45" pan="0" pos="1392" vol="44" len="24"/>
          <note key="45" pan="0" pos="1416" vol="100" len="24"/>
          <note key="45" pan="0" pos="1416" vol="100" len="24"/>
          <note key="45" pan="0" pos="1416" vol="100" len="24"/>
          <note key="45" pan="0" pos="1416" vol="100" len="24"/>
          <note key="45" pan="0" pos="1440" vol="44" len="24"/>
          <note key="45" pan="0" pos="1440" vol="44" len="24"/>
          <note key="45" pan="0" pos="1440" vol="44" len="24"/>
          <note key="45" pan="0" pos="1440" vol="44" len="24"/>
          <note key="45" pan="0" pos="1464" vol="100" len="24"/>
          <note key="45" pan="0" pos="1464" vol="100" len="24"/>
          <note key="45" pan="0" pos="1464" vol="100" len="24"/>
          <note key="45" pan="0" pos="1464" vol="100" len="24"/>
          <note key="45" pan="0" pos="1488" vol="44" len="24"/>
          <note key="45" pan="0" pos="1488" vol="44" len="24"/>
          <note key="45" pan="0" pos="1488" vol="44" len="24"/>
          <note key="45" pan="0" pos="1488" vol="44" len="24"/>
          <note key="45" pan="0" pos="1512" vol="100" len="24"/>
          <note key="45" pan="0" pos="1512" vol="100" len="24"/>
          <note key="45" pan="0" pos="1512" vol="100" len="24"/>
          <note key="45" pan="0" pos="1512" vol="100" len="24"/>
        </pattern>
      </track>
      <track solo="0" type="5" name="Automation track" muted="0">
        <automationtrack/>
        <automationpattern tens="1" mute="0" name="Good Old Times>VCF Cutoff Frequency" prog="1" pos="768" len="768">
          <time pos="0" value="0.045000002"/>
          <time pos="384" value="0.59999996"/>
          <time pos="768" value="0.13499999"/>
          <object id="5939105"/>
          <object id="3059579"/>
        </automationpattern>
        <automationpattern tens="1" mute="0" name="Good Old Times>VCF Cutoff Frequency" prog="1" pos="1536" len="768">
          <time pos="0" value="0.045000002"/>
          <time pos="384" value="0.59999996"/>
          <time pos="768" value="0.13499999"/>
          <object id="5939105"/>
          <object id="3059579"/>
        </automationpattern>
        <automationpattern tens="1" mute="0" name="Good Old Times>VCF Cutoff Frequency" prog="1" pos="8064" len="768">
          <time pos="0" value="0.045000002"/>
          <time pos="384" value="0.59999996"/>
          <time pos="768" value="0.13499999"/>
          <object id="5939105"/>
          <object id="3059579"/>
        </automationpattern>
        <automationpattern tens="1" mute="0" name="Good Old Times>VCF Cutoff Frequency" prog="1" pos="8832" len="768">
          <time pos="0" value="0.045000002"/>
          <time pos="384" value="0.59999996"/>
          <time pos="768" value="0.13499999"/>
          <object id="5939105"/>
          <object id="3059579"/>
        </automationpattern>
        <automationpattern tens="1" mute="0" name="Good Old Times>VCF Cutoff Frequency" prog="1" pos="9600" len="768">
          <time pos="0" value="0.045000002"/>
          <time pos="384" value="0.59999996"/>
          <time pos="768" value="0.13499999"/>
          <object id="5939105"/>
          <object id="3059579"/>
        </automationpattern>
        <automationpattern tens="1" mute="0" name="Good Old Times>VCF Cutoff Frequency" prog="1" pos="10368" len="768">
          <time pos="0" value="0.045000002"/>
          <time pos="384" value="0.59999996"/>
          <time pos="768" value="0.13499999"/>
          <object id="5939105"/>
          <object id="3059579"/>
        </automationpattern>
      </track>
      <track solo="0" type="1" name="Beat/Bassline 1" muted="0">
        <bbtrack/>
        <bbtco name="" pos="7872" color="4286611584" len="192" muted="0" usestyle="1"/>
      </track>
      <track solo="0" type="0" name="crash02.ogg" muted="0">
        <instrumenttrack pan="0" pitch="0" vol="109.6" basenote="57" pitchrange="1" usemasterpitch="1" fxch="0">
          <instrument name="audiofileprocessor">
            <audiofileprocessor src="drums/crash02.ogg" sframe="0" eframe="1" lframe="0" reversed="0" looped="0" stutter="0" interp="1" amp="100"/>
          </instrument>
          <eldata fres="0.38" ftype="1" fwet="0" fcut="2632">
            <elvol lspd_syncmode="0" amt="0" hold="0.5" ctlenvamt="0" rel="0.1" x100="0" lspd_numerator="4" lspd_denominator="4" lpdel="0" lshp="0" sustain="0.5" lamt="0" latt="0" att="0" pdel="0" dec="0.5" userwavefile="" lspd="0.1"/>
            <elcut lspd_syncmode="0" amt="0" hold="0.5" ctlenvamt="0" rel="0.1" x100="0" lspd_numerator="4" lspd_denominator="4" lpdel="0" lshp="0" sustain="0.5" lamt="0" latt="0" att="0" pdel="0" dec="0.5" userwavefile="" lspd="0.1"/>
            <elres lspd_syncmode="0" amt="0" hold="0.5" ctlenvamt="0" rel="0.1" x100="0" lspd_numerator="4" lspd_denominator="4" lpdel="0" lshp="0" sustain="0.5" lamt="0" latt="0" att="0" pdel="0" dec="0.5" userwavefile="" lspd="0.1"/>
          </eldata>
          <chordcreator chord-enabled="0" chordrange="1" chord="0"/>
          <arpeggiator arp="0" arprange="1" arpmode="0" arpdir="0" arpskip="0" arptime="200" arptime_numerator="4" arp-enabled="0" arpgate="100" arpcycle="0" arptime_denominator="4" arpmiss="0" arptime_syncmode="0"/>
          <midiport fixedoutputvelocity="-1" inputcontroller="0" outputcontroller="0" basevelocity="63" writable="0" readable="0" fixedoutputnote="-1" outputchannel="1" outputprogram="1" inputchannel="0" fixedinputvelocity="-1"/>
          <fxchain numofeffects="0" enabled="0"/>
        </instrumenttrack>
        <pattern type="1" name="crash02.ogg" pos="8064" steps="16" muted="0">
          <note key="57" pan="0" pos="0" vol="100" len="192"/>
        </pattern>
      </track>
      <track solo="0" type="0" name="pad_rich" muted="0">
        <instrumenttrack pan="0" pitch="0" vol="24.800001" basenote="57" pitchrange="1" usemasterpitch="1" fxch="0">
          <instrument name="organic">
            <organic wavetype4="2" newharmonic2="2" num_osc="8" pan6="0" newharmonic5="5" pan3="0" pan5="0" wavetype2="5" wavetype5="5" pan7="0" vol5="100" wavetype1="2" wavetype0="4" newdetune1="0" vol7="0" vol2="100" vol1="100" pan4="0" newharmonic1="1" wavetype6="0" wavetype7="0" newdetune3="0" newdetune0="0" foldback="0.25999999" vol0="100" newdetune6="0" newharmonic3="3" newharmonic7="7" newdetune4="0" vol="100" newdetune5="0" vol4="100" pan1="0" newdetune7="0" wavetype3="1" newharmonic0="0" newharmonic6="6" vol3="100" pan2="0" newdetune2="0" newharmonic4="4" pan0="0" vol6="100"/>
          </instrument>
          <eldata fres="1.1900001" ftype="0" fwet="1" fcut="320">
            <elvol lspd_syncmode="0" amt="1" hold="0.49900001" ctlenvamt="0" rel="0.708" x100="0" lspd_numerator="4" lspd_denominator="4" lpdel="0" lshp="0" sustain="0.96100003" lamt="0" latt="0" att="0.36300001" pdel="0" dec="0.49900001" userwavefile="" lspd="0.1"/>
            <elcut lspd_syncmode="0" amt="1" hold="0.49900001" ctlenvamt="0" rel="0.69599998" x100="0" lspd_numerator="4" lspd_denominator="4" lpdel="0" lshp="0" sustain="0.94200003" lamt="0" latt="0" att="0.69499999" pdel="0" dec="0" userwavefile="" lspd="0.1"/>
            <elres lspd_syncmode="0" amt="0" hold="0.49900001" ctlenvamt="0" rel="0.1" x100="0" lspd_numerator="4" lspd_denominator="4" lpdel="0" lshp="0" sustain="0.50099999" lamt="0" latt="0" att="0" pdel="0" dec="0.49900001" userwavefile="" lspd="0.1"/>
          </eldata>
          <chordcreator chord-enabled="0" chordrange="1" chord="0"/>
          <arpeggiator arp="0" arprange="1" arpmode="0" arpdir="0" arpskip="0" arptime="100" arptime_numerator="4" arp-enabled="0" arpgate="100" arpcycle="0" arptime_denominator="4" arpmiss="0" arptime_syncmode="0"/>
          <midiport fixedoutputvelocity="-1" inputcontroller="0" outputcontroller="0" basevelocity="127" writable="0" readable="0" fixedoutputnote="-1" outputchannel="1" outputprogram="1" inputchannel="0" fixedinputvelocity="-1"/>
          <fxchain numofeffects="0" enabled="0"/>
        </instrumenttrack>
        <pattern type="1" name="pad_rich" pos="7680" steps="16" muted="0">
          <note key="62" pan="0" pos="0" vol="100" len="384"/>
        </pattern>
      </track>
      <track solo="0" type="0" name="Sweep Pad 2" muted="0">
        <instrumenttrack pan="30" pitch="0" vol="140" basenote="57" pitchrange="1" usemasterpitch="1" fxch="0">
          <instrument name="zynaddsubfx">
            <zynaddsubfx portamento="0" fmgain="127" rescenterfreq="64" modifiedcontrollers="74," resbandwidth="64" filterq="64" forwardmidicc="1" bandwidth="64" filterfreq="78">
              <ZynAddSubFX-data version-minor="4" ZynAddSubFX-author="Nasca Octavian Paul" version-major="2" version-revision="1">
                <INFORMATION>
                  <par_bool name="PADsynth_used" value="yes"/>
                </INFORMATION>
                <BASE_PARAMETERS>
                  <par name="max_midi_parts" value="16"/>
                  <par name="max_kit_items_per_instrument" value="16"/>
                  <par name="max_system_effects" value="4"/>
                  <par name="max_insertion_effects" value="8"/>
                  <par name="max_instrument_effects" value="3"/>
                  <par name="max_addsynth_voices" value="8"/>
                </BASE_PARAMETERS>
                <MASTER>
                  <par name="volume" value="80"/>
                  <par name="key_shift" value="64"/>
                  <par_bool name="nrpn_receive" value="yes"/>
                  <MICROTONAL>
                    <string name="name">12tET</string>
                    <string name="comment">Equal Temperament 12 notes per octave</string>
                    <par_bool name="invert_up_down" value="no"/>
                    <par name="invert_up_down_center" value="60"/>
                    <par_bool name="enabled" value="no"/>
                    <par name="global_fine_detune" value="64"/>
                    <par name="a_note" value="69"/>
                    <par_real name="a_freq" value="440.000000"/>
                  </MICROTONAL>
                  <PART id="0">
                    <par_bool name="enabled" value="yes"/>
                    <par name="volume" value="96"/>
                    <par name="panning" value="64"/>
                    <par name="min_key" value="0"/>
                    <par name="max_key" value="127"/>
                    <par name="key_shift" value="64"/>
                    <par name="rcv_chn" value="0"/>
                    <par name="velocity_sensing" value="64"/>
                    <par name="velocity_offset" value="64"/>
                    <par_bool name="note_on" value="yes"/>
                    <par_bool name="poly_mode" value="yes"/>
                    <par name="legato_mode" value="0"/>
                    <par name="key_limit" value="15"/>
                    <INSTRUMENT>
                      <INFO>
                        <string name="name">Sweep Pad 2</string>
                        <string name="author"/>
                        <string name="comments"/>
                        <par name="type" value="0"/>
                      </INFO>
                      <INSTRUMENT_KIT>
                        <par name="kit_mode" value="0"/>
                        <par_bool name="drum_mode" value="no"/>
                        <INSTRUMENT_KIT_ITEM id="0">
                          <par_bool name="enabled" value="yes"/>
                          <string name="name"/>
                          <par_bool name="muted" value="no"/>
                          <par name="min_key" value="0"/>
                          <par name="max_key" value="127"/>
                          <par name="send_to_instrument_effect" value="0"/>
                          <par_bool name="add_enabled" value="no"/>
                          <par_bool name="sub_enabled" value="no"/>
                          <par_bool name="pad_enabled" value="yes"/>
                          <PAD_SYNTH_PARAMETERS>
                            <par_bool name="stereo" value="yes"/>
                            <par name="mode" value="0"/>
                            <par name="bandwidth" value="645"/>
                            <par name="bandwidth_scale" value="0"/>
                            <HARMONIC_PROFILE>
                              <par name="base_type" value="0"/>
                              <par name="base_par1" value="80"/>
                              <par name="frequency_multiplier" value="0"/>
                              <par name="modulator_par1" value="60"/>
                              <par name="modulator_frequency" value="64"/>
                              <par name="width" value="127"/>
                              <par name="amplitude_multiplier_type" value="1"/>
                              <par name="amplitude_multiplier_mode" value="2"/>
                              <par name="amplitude_multiplier_par1" value="80"/>
                              <par name="amplitude_multiplier_par2" value="4"/>
                              <par_bool name="autoscale" value="no"/>
                              <par name="one_half" value="0"/>
                            </HARMONIC_PROFILE>
                            <OSCIL>
                              <par name="harmonic_mag_type" value="0"/>
                              <par name="base_function" value="4"/>
                              <par name="base_function_par" value="51"/>
                              <par name="base_function_modulation" value="0"/>
                              <par name="base_function_modulation_par1" value="64"/>
                              <par name="base_function_modulation_par2" value="64"/>
                              <par name="base_function_modulation_par3" value="32"/>
                              <par name="modulation" value="0"/>
                              <par name="modulation_par1" value="64"/>
                              <par name="modulation_par2" value="64"/>
                              <par name="modulation_par3" value="32"/>
                              <par name="wave_shaping" value="64"/>
                              <par name="wave_shaping_function" value="0"/>
                              <par name="filter_type" value="0"/>
                              <par name="filter_par1" value="64"/>
                              <par name="filter_par2" value="64"/>
                              <par name="filter_before_wave_shaping" value="0"/>
                              <par name="spectrum_adjust_type" value="0"/>
                              <par name="spectrum_adjust_par" value="64"/>
                              <par name="rand" value="64"/>
                              <par name="amp_rand_type" value="0"/>
                              <par name="amp_rand_power" value="64"/>
                              <par name="harmonic_shift" value="0"/>
                              <par_bool name="harmonic_shift_first" value="no"/>
                              <par name="adaptive_harmonics" value="0"/>
                              <par name="adaptive_harmonics_base_frequency" value="128"/>
                              <par name="adaptive_harmonics_power" value="100"/>
                              <HARMONICS>
                                <HARMONIC id="1">
                                  <par name="mag" value="127"/>
                                  <par name="phase" value="64"/>
                                </HARMONIC>
                                <HARMONIC id="2">
                                  <par name="mag" value="127"/>
                                  <par name="phase" value="64"/>
                                </HARMONIC>
                                <HARMONIC id="4">
                                  <par name="mag" value="111"/>
                                  <par name="phase" value="64"/>
                                </HARMONIC>
                              </HARMONICS>
                            </OSCIL>
                            <RESONANCE>
                              <par_bool name="enabled" value="no"/>
                            </RESONANCE>
                            <HARMONIC_POSITION>
                              <par name="type" value="0"/>
                              <par name="parameter1" value="255"/>
                              <par name="parameter2" value="64"/>
                              <par name="parameter3" value="0"/>
                            </HARMONIC_POSITION>
                            <SAMPLE_QUALITY>
                              <par name="samplesize" value="3"/>
                              <par name="basenote" value="4"/>
                              <par name="octaves" value="5"/>
                              <par name="samples_per_octave" value="2"/>
                            </SAMPLE_QUALITY>
                            <AMPLITUDE_PARAMETERS>
                              <par name="volume" value="90"/>
                              <par name="panning" value="64"/>
                              <par name="velocity_sensing" value="99"/>
                              <par name="punch_strength" value="0"/>
                              <par name="punch_time" value="60"/>
                              <par name="punch_stretch" value="64"/>
                              <par name="punch_velocity_sensing" value="72"/>
                              <AMPLITUDE_ENVELOPE>
                                <par_bool name="free_mode" value="no"/>
                                <par name="env_points" value="4"/>
                                <par name="env_sustain" value="2"/>
                                <par name="env_stretch" value="64"/>
                                <par_bool name="forced_release" value="yes"/>
                                <par_bool name="linear_envelope" value="no"/>
                                <par name="A_dt" value="31"/>
                                <par name="D_dt" value="40"/>
                                <par name="R_dt" value="88"/>
                                <par name="A_val" value="64"/>
                                <par name="D_val" value="64"/>
                                <par name="S_val" value="104"/>
                                <par name="R_val" value="64"/>
                              </AMPLITUDE_ENVELOPE>
                              <AMPLITUDE_LFO>
                                <par_real name="freq" value="0.629921"/>
                                <par name="intensity" value="0"/>
                                <par name="start_phase" value="64"/>
                                <par name="lfo_type" value="0"/>
                                <par name="randomness_amplitude" value="0"/>
                                <par name="randomness_frequency" value="0"/>
                                <par name="delay" value="0"/>
                                <par name="stretch" value="64"/>
                                <par_bool name="continous" value="no"/>
                              </AMPLITUDE_LFO>
                            </AMPLITUDE_PARAMETERS>
                            <FREQUENCY_PARAMETERS>
                              <par name="fixed_freq" value="0"/>
                              <par name="fixed_freq_et" value="0"/>
                              <par name="detune" value="8192"/>
                              <par name="coarse_detune" value="0"/>
                              <par name="detune_type" value="1"/>
                              <FREQUENCY_ENVELOPE>
                                <par_bool name="free_mode" value="no"/>
                                <par name="env_points" value="3"/>
                                <par name="env_sustain" value="1"/>
                                <par name="env_stretch" value="0"/>
                                <par_bool name="forced_release" value="no"/>
                                <par_bool name="linear_envelope" value="no"/>
                                <par name="A_dt" value="50"/>
                                <par name="D_dt" value="10"/>
                                <par name="R_dt" value="60"/>
                                <par name="A_val" value="64"/>
                                <par name="D_val" value="64"/>
                                <par name="S_val" value="64"/>
                                <par name="R_val" value="64"/>
                              </FREQUENCY_ENVELOPE>
                              <FREQUENCY_LFO>
                                <par_real name="freq" value="0.621181"/>
                                <par name="intensity" value="19"/>
                                <par name="start_phase" value="64"/>
                                <par name="lfo_type" value="0"/>
                                <par name="randomness_amplitude" value="0"/>
                                <par name="randomness_frequency" value="0"/>
                                <par name="delay" value="0"/>
                                <par name="stretch" value="64"/>
                                <par_bool name="continous" value="no"/>
                              </FREQUENCY_LFO>
                            </FREQUENCY_PARAMETERS>
                            <FILTER_PARAMETERS>
                              <par name="velocity_sensing_amplitude" value="25"/>
                              <par name="velocity_sensing" value="64"/>
                              <FILTER>
                                <par name="category" value="0"/>
                                <par name="type" value="2"/>
                                <par name="freq" value="85"/>
                                <par name="q" value="33"/>
                                <par name="stages" value="1"/>
                                <par name="freq_track" value="64"/>
                                <par name="gain" value="64"/>
                              </FILTER>
                              <FILTER_ENVELOPE>
                                <par_bool name="free_mode" value="no"/>
                                <par name="env_points" value="4"/>
                                <par name="env_sustain" value="2"/>
                                <par name="env_stretch" value="0"/>
                                <par_bool name="forced_release" value="yes"/>
                                <par_bool name="linear_envelope" value="no"/>
                                <par name="A_dt" value="88"/>
                                <par name="D_dt" value="70"/>
                                <par name="R_dt" value="98"/>
                                <par name="A_val" value="37"/>
                                <par name="D_val" value="64"/>
                                <par name="S_val" value="64"/>
                                <par name="R_val" value="43"/>
                              </FILTER_ENVELOPE>
                              <FILTER_LFO>
                                <par_real name="freq" value="0.629921"/>
                                <par name="intensity" value="0"/>
                                <par name="start_phase" value="64"/>
                                <par name="lfo_type" value="0"/>
                                <par name="randomness_amplitude" value="0"/>
                                <par name="randomness_frequency" value="0"/>
                                <par name="delay" value="0"/>
                                <par name="stretch" value="64"/>
                                <par_bool name="continous" value="no"/>
                              </FILTER_LFO>
                            </FILTER_PARAMETERS>
                          </PAD_SYNTH_PARAMETERS>
                        </INSTRUMENT_KIT_ITEM>
                        <INSTRUMENT_KIT_ITEM id="1">
                          <par_bool name="enabled" value="no"/>
                        </INSTRUMENT_KIT_ITEM>
                        <INSTRUMENT_KIT_ITEM id="2">
                          <par_bool name="enabled" value="no"/>
                        </INSTRUMENT_KIT_ITEM>
                        <INSTRUMENT_KIT_ITEM id="3">
                          <par_bool name="enabled" value="no"/>
                        </INSTRUMENT_KIT_ITEM>
                        <INSTRUMENT_KIT_ITEM id="4">
                          <par_bool name="enabled" value="no"/>
                        </INSTRUMENT_KIT_ITEM>
                        <INSTRUMENT_KIT_ITEM id="5">
                          <par_bool name="enabled" value="no"/>
                        </INSTRUMENT_KIT_ITEM>
                        <INSTRUMENT_KIT_ITEM id="6">
                          <par_bool name="enabled" value="no"/>
                        </INSTRUMENT_KIT_ITEM>
                        <INSTRUMENT_KIT_ITEM id="7">
                          <par_bool name="enabled" value="no"/>
                        </INSTRUMENT_KIT_ITEM>
                        <INSTRUMENT_KIT_ITEM id="8">
                          <par_bool name="enabled" value="no"/>
                        </INSTRUMENT_KIT_ITEM>
                        <INSTRUMENT_KIT_ITEM id="9">
                          <par_bool name="enabled" value="no"/>
                        </INSTRUMENT_KIT_ITEM>
                        <INSTRUMENT_KIT_ITEM id="10">
                          <par_bool name="enabled" value="no"/>
                        </INSTRUMENT_KIT_ITEM>
                        <INSTRUMENT_KIT_ITEM id="11">
                          <par_bool name="enabled" value="no"/>
                        </INSTRUMENT_KIT_ITEM>
                        <INSTRUMENT_KIT_ITEM id="12">
                          <par_bool name="enabled" value="no"/>
                        </INSTRUMENT_KIT_ITEM>
                        <INSTRUMENT_KIT_ITEM id="13">
                          <par_bool name="enabled" value="no"/>
                        </INSTRUMENT_KIT_ITEM>
                        <INSTRUMENT_KIT_ITEM id="14">
                          <par_bool name="enabled" value="no"/>
                        </INSTRUMENT_KIT_ITEM>
                        <INSTRUMENT_KIT_ITEM id="15">
                          <par_bool name="enabled" value="no"/>
                        </INSTRUMENT_KIT_ITEM>
                      </INSTRUMENT_KIT>
                      <INSTRUMENT_EFFECTS>
                        <INSTRUMENT_EFFECT id="0">
                          <EFFECT>
                            <par name="type" value="0"/>
                          </EFFECT>
                          <par name="route" value="0"/>
                          <par_bool name="bypass" value="no"/>
                        </INSTRUMENT_EFFECT>
                        <INSTRUMENT_EFFECT id="1">
                          <EFFECT>
                            <par name="type" value="0"/>
                          </EFFECT>
                          <par name="route" value="0"/>
                          <par_bool name="bypass" value="no"/>
                        </INSTRUMENT_EFFECT>
                        <INSTRUMENT_EFFECT id="2">
                          <EFFECT>
                            <par name="type" value="0"/>
                          </EFFECT>
                          <par name="route" value="0"/>
                          <par_bool name="bypass" value="no"/>
                        </INSTRUMENT_EFFECT>
                      </INSTRUMENT_EFFECTS>
                    </INSTRUMENT>
                    <CONTROLLER>
                      <par name="pitchwheel_bendrange" value="100"/>
                      <par_bool name="expression_receive" value="yes"/>
                      <par name="panning_depth" value="64"/>
                      <par name="filter_cutoff_depth" value="64"/>
                      <par name="filter_q_depth" value="64"/>
                      <par name="bandwidth_depth" value="64"/>
                      <par name="mod_wheel_depth" value="80"/>
                      <par_bool name="mod_wheel_exponential" value="no"/>
                      <par_bool name="fm_amp_receive" value="yes"/>
                      <par_bool name="volume_receive" value="yes"/>
                      <par_bool name="sustain_receive" value="yes"/>
                      <par_bool name="portamento_receive" value="yes"/>
                      <par name="portamento_time" value="64"/>
                      <par name="portamento_pitchthresh" value="3"/>
                      <par name="portamento_pitchthreshtype" value="1"/>
                      <par name="portamento_portamento" value="0"/>
                      <par name="portamento_updowntimestretch" value="64"/>
                      <par name="portamento_proportional" value="0"/>
                      <par name="portamento_proprate" value="80"/>
                      <par name="portamento_propdepth" value="90"/>
                      <par name="resonance_center_depth" value="64"/>
                      <par name="resonance_bandwidth_depth" value="64"/>
                    </CONTROLLER>
                  </PART>
                  <PART id="1">
                    <par_bool name="enabled" value="no"/>
                  </PART>
                  <PART id="2">
                    <par_bool name="enabled" value="no"/>
                  </PART>
                  <PART id="3">
                    <par_bool name="enabled" value="no"/>
                  </PART>
                  <PART id="4">
                    <par_bool name="enabled" value="no"/>
                  </PART>
                  <PART id="5">
                    <par_bool name="enabled" value="no"/>
                  </PART>
                  <PART id="6">
                    <par_bool name="enabled" value="no"/>
                  </PART>
                  <PART id="7">
                    <par_bool name="enabled" value="no"/>
                  </PART>
                  <PART id="8">
                    <par_bool name="enabled" value="no"/>
                  </PART>
                  <PART id="9">
                    <par_bool name="enabled" value="no"/>
                  </PART>
                  <PART id="10">
                    <par_bool name="enabled" value="no"/>
                  </PART>
                  <PART id="11">
                    <par_bool name="enabled" value="no"/>
                  </PART>
                  <PART id="12">
                    <par_bool name="enabled" value="no"/>
                  </PART>
                  <PART id="13">
                    <par_bool name="enabled" value="no"/>
                  </PART>
                  <PART id="14">
                    <par_bool name="enabled" value="no"/>
                  </PART>
                  <PART id="15">
                    <par_bool name="enabled" value="no"/>
                  </PART>
                  <SYSTEM_EFFECTS>
                    <SYSTEM_EFFECT id="0">
                      <EFFECT>
                        <par name="type" value="0"/>
                      </EFFECT>
                      <VOLUME id="0">
                        <par name="vol" value="0"/>
                      </VOLUME>
                      <VOLUME id="1">
                        <par name="vol" value="0"/>
                      </VOLUME>
                      <VOLUME id="2">
                        <par name="vol" value="0"/>
                      </VOLUME>
                      <VOLUME id="3">
                        <par name="vol" value="0"/>
                      </VOLUME>
                      <VOLUME id="4">
                        <par name="vol" value="0"/>
                      </VOLUME>
                      <VOLUME id="5">
                        <par name="vol" value="0"/>
                      </VOLUME>
                      <VOLUME id="6">
                        <par name="vol" value="0"/>
                      </VOLUME>
                      <VOLUME id="7">
                        <par name="vol" value="0"/>
                      </VOLUME>
                      <VOLUME id="8">
                        <par name="vol" value="0"/>
                      </VOLUME>
                      <VOLUME id="9">
                        <par name="vol" value="0"/>
                      </VOLUME>
                      <VOLUME id="10">
                        <par name="vol" value="0"/>
                      </VOLUME>
                      <VOLUME id="11">
                        <par name="vol" value="0"/>
                      </VOLUME>
                      <VOLUME id="12">
                        <par name="vol" value="0"/>
                      </VOLUME>
                      <VOLUME id="13">
                        <par name="vol" value="0"/>
                      </VOLUME>
                      <VOLUME id="14">
                        <par name="vol" value="0"/>
                      </VOLUME>
                      <VOLUME id="15">
                        <par name="vol" value="0"/>
                      </VOLUME>
                      <SENDTO id="1">
                        <par name="send_vol" value="0"/>
                      </SENDTO>
                      <SENDTO id="2">
                        <par name="send_vol" value="0"/>
                      </SENDTO>
                      <SENDTO id="3">
                        <par name="send_vol" value="0"/>
                      </SENDTO>
                    </SYSTEM_EFFECT>
                    <SYSTEM_EFFECT id="1">
                      <EFFECT>
                        <par name="type" value="0"/>
                      </EFFECT>
                      <VOLUME id="0">
                        <par name="vol" value="0"/>
                      </VOLUME>
                      <VOLUME id="1">
                        <par name="vol" value="0"/>
                      </VOLUME>
                      <VOLUME id="2">
                        <par name="vol" value="0"/>
                      </VOLUME>
                      <VOLUME id="3">
                        <par name="vol" value="0"/>
                      </VOLUME>
                      <VOLUME id="4">
                        <par name="vol" value="0"/>
                      </VOLUME>
                      <VOLUME id="5">
                        <par name="vol" value="0"/>
                      </VOLUME>
                      <VOLUME id="6">
                        <par name="vol" value="0"/>
                      </VOLUME>
                      <VOLUME id="7">
                        <par name="vol" value="0"/>
                      </VOLUME>
                      <VOLUME id="8">
                        <par name="vol" value="0"/>
                      </VOLUME>
                      <VOLUME id="9">
                        <par name="vol" value="0"/>
                      </VOLUME>
                      <VOLUME id="10">
                        <par name="vol" value="0"/>
                      </VOLUME>
                      <VOLUME id="11">
                        <par name="vol" value="0"/>
                      </VOLUME>
                      <VOLUME id="12">
                        <par name="vol" value="0"/>
                      </VOLUME>
                      <VOLUME id="13">
                        <par name="vol" value="0"/>
                      </VOLUME>
                      <VOLUME id="14">
                        <par name="vol" value="0"/>
                      </VOLUME>
                      <VOLUME id="15">
                        <par name="vol" value="0"/>
                      </VOLUME>
                      <SENDTO id="2">
                        <par name="send_vol" value="0"/>
                      </SENDTO>
                      <SENDTO id="3">
                        <par name="send_vol" value="0"/>
                      </SENDTO>
                    </SYSTEM_EFFECT>
                    <SYSTEM_EFFECT id="2">
                      <EFFECT>
                        <par name="type" value="0"/>
                      </EFFECT>
                      <VOLUME id="0">
                        <par name="vol" value="0"/>
                      </VOLUME>
                      <VOLUME id="1">
                        <par name="vol" value="0"/>
                      </VOLUME>
                      <VOLUME id="2">
                        <par name="vol" value="0"/>
                      </VOLUME>
                      <VOLUME id="3">
                        <par name="vol" value="0"/>
                      </VOLUME>
                      <VOLUME id="4">
                        <par name="vol" value="0"/>
                      </VOLUME>
                      <VOLUME id="5">
                        <par name="vol" value="0"/>
                      </VOLUME>
                      <VOLUME id="6">
                        <par name="vol" value="0"/>
                      </VOLUME>
                      <VOLUME id="7">
                        <par name="vol" value="0"/>
                      </VOLUME>
                      <VOLUME id="8">
                        <par name="vol" value="0"/>
                      </VOLUME>
                      <VOLUME id="9">
                        <par name="vol" value="0"/>
                      </VOLUME>
                      <VOLUME id="10">
                        <par name="vol" value="0"/>
                      </VOLUME>
                      <VOLUME id="11">
                        <par name="vol" value="0"/>
                      </VOLUME>
                      <VOLUME id="12">
                        <par name="vol" value="0"/>
                      </VOLUME>
                      <VOLUME id="13">
                        <par name="vol" value="0"/>
                      </VOLUME>
                      <VOLUME id="14">
                        <par name="vol" value="0"/>
                      </VOLUME>
                      <VOLUME id="15">
                        <par name="vol" value="0"/>
                      </VOLUME>
                      <SENDTO id="3">
                        <par name="send_vol" value="0"/>
                      </SENDTO>
                    </SYSTEM_EFFECT>
                    <SYSTEM_EFFECT id="3">
                      <EFFECT>
                        <par name="type" value="0"/>
                      </EFFECT>
                      <VOLUME id="0">
                        <par name="vol" value="0"/>
                      </VOLUME>
                      <VOLUME id="1">
                        <par name="vol" value="0"/>
                      </VOLUME>
                      <VOLUME id="2">
                        <par name="vol" value="0"/>
                      </VOLUME>
                      <VOLUME id="3">
                        <par name="vol" value="0"/>
                      </VOLUME>
                      <VOLUME id="4">
                        <par name="vol" value="0"/>
                      </VOLUME>
                      <VOLUME id="5">
                        <par name="vol" value="0"/>
                      </VOLUME>
                      <VOLUME id="6">
                        <par name="vol" value="0"/>
                      </VOLUME>
                      <VOLUME id="7">
                        <par name="vol" value="0"/>
                      </VOLUME>
                      <VOLUME id="8">
                        <par name="vol" value="0"/>
                      </VOLUME>
                      <VOLUME id="9">
                        <par name="vol" value="0"/>
                      </VOLUME>
                      <VOLUME id="10">
                        <par name="vol" value="0"/>
                      </VOLUME>
                      <VOLUME id="11">
                        <par name="vol" value="0"/>
                      </VOLUME>
                      <VOLUME id="12">
                        <par name="vol" value="0"/>
                      </VOLUME>
                      <VOLUME id="13">
                        <par name="vol" value="0"/>
                      </VOLUME>
                      <VOLUME id="14">
                        <par name="vol" value="0"/>
                      </VOLUME>
                      <VOLUME id="15">
                        <par name="vol" value="0"/>
                      </VOLUME>
                    </SYSTEM_EFFECT>
                  </SYSTEM_EFFECTS>
                  <INSERTION_EFFECTS>
                    <INSERTION_EFFECT id="0">
                      <par name="part" value="-1"/>
                      <EFFECT>
                        <par name="type" value="0"/>
                      </EFFECT>
                    </INSERTION_EFFECT>
                    <INSERTION_EFFECT id="1">
                      <par name="part" value="-1"/>
                      <EFFECT>
                        <par name="type" value="0"/>
                      </EFFECT>
                    </INSERTION_EFFECT>
                    <INSERTION_EFFECT id="2">
                      <par name="part" value="-1"/>
                      <EFFECT>
                        <par name="type" value="0"/>
                      </EFFECT>
                    </INSERTION_EFFECT>
                    <INSERTION_EFFECT id="3">
                      <par name="part" value="-1"/>
                      <EFFECT>
                        <par name="type" value="0"/>
                      </EFFECT>
                    </INSERTION_EFFECT>
                    <INSERTION_EFFECT id="4">
                      <par name="part" value="-1"/>
                      <EFFECT>
                        <par name="type" value="0"/>
                      </EFFECT>
                    </INSERTION_EFFECT>
                    <INSERTION_EFFECT id="5">
                      <par name="part" value="-1"/>
                      <EFFECT>
                        <par name="type" value="0"/>
                      </EFFECT>
                    </INSERTION_EFFECT>
                    <INSERTION_EFFECT id="6">
                      <par name="part" value="-1"/>
                      <EFFECT>
                        <par name="type" value="0"/>
                      </EFFECT>
                    </INSERTION_EFFECT>
                    <INSERTION_EFFECT id="7">
                      <par name="part" value="-1"/>
                      <EFFECT>
                        <par name="type" value="0"/>
                      </EFFECT>
                    </INSERTION_EFFECT>
                  </INSERTION_EFFECTS>
                </MASTER>
              </ZynAddSubFX-data>
            </zynaddsubfx>
          </instrument>
          <eldata fres="0.5" ftype="0" fwet="0" fcut="14000">
            <elvol lspd_syncmode="0" amt="0" hold="0.5" ctlenvamt="0" rel="0.1" x100="0" lspd_numerator="4" lspd_denominator="4" lpdel="0" lshp="0" sustain="0.5" lamt="0" latt="0" att="0" pdel="0" dec="0.5" userwavefile="" lspd="0.1"/>
            <elcut lspd_syncmode="0" amt="0" hold="0.5" ctlenvamt="0" rel="0.1" x100="0" lspd_numerator="4" lspd_denominator="4" lpdel="0" lshp="0" sustain="0.5" lamt="0" latt="0" att="0" pdel="0" dec="0.5" userwavefile="" lspd="0.1"/>
            <elres lspd_syncmode="0" amt="0" hold="0.5" ctlenvamt="0" rel="0.1" x100="0" lspd_numerator="4" lspd_denominator="4" lpdel="0" lshp="0" sustain="0.5" lamt="0" latt="0" att="0" pdel="0" dec="0.5" userwavefile="" lspd="0.1"/>
          </eldata>
          <chordcreator chord-enabled="0" chordrange="1" chord="0"/>
          <arpeggiator arp="0" arprange="1" arpmode="0" arpdir="0" arpskip="0" arptime="200" arptime_numerator="4" arp-enabled="0" arpgate="100" arpcycle="0" arptime_denominator="4" arpmiss="0" arptime_syncmode="0"/>
          <midiport fixedoutputvelocity="-1" inputcontroller="0" outputcontroller="0" basevelocity="63" writable="0" readable="0" fixedoutputnote="-1" outputchannel="1" outputprogram="1" inputchannel="0" fixedinputvelocity="-1"/>
          <fxchain numofeffects="2" enabled="1">
            <effect autoquit_syncmode="0" autoquit_denominator="4" autoquit="1" wet="1" name="ladspaeffect" gate="0" autoquit_numerator="4" on="1">
              <ladspacontrols ports="10">
                <port00 data="100"/>
                <port01 data="0"/>
                <port02 data="100"/>
                <port03 data="0"/>
                <port04 data="0"/>
                <port05 data="0"/>
                <port06 data="0"/>
                <port07 data="0"/>
                <port08 data="1"/>
                <port09 data="0"/>
              </ladspacontrols>
              <key>
                <attribute name="file" value="tap_echo"/>
                <attribute name="plugin" value="tap_stereo_echo"/>
              </key>
            </effect>
            <effect autoquit_syncmode="0" autoquit_denominator="4" autoquit="1" wet="1" name="eq" gate="0" autoquit_numerator="4" on="1">
              <Eq LowShelfres="1.4" LP="0" Peak4active="1" HP12="1" Outputgain="6" Peak1bw="0.36100003" Peak2bw="0.48500001" Peak1active="1" LP12="1" HPactive="0" Peak4bw="0.93200004" Lowshelfgain="5.4000001" AnalyseOut="1" HighShelfres="1.4" Peak3active="0" LPactive="0" Peak3gain="-0.18000001" AnalyseIn="1" HighShelfgain="3.4200001" Lowshelfactive="1" Peak3bw="0.45000002" HP="0" Highshelfactive="1" LPres="0.70700002" HPres="0.70700002" HP24="0" LP24="0" Peak2gain="5.2200003" Peak4gain="5.4000001" Peak2active="1" LP48="0" HP48="0">
                <Inputgain id="7072085" value="0" scale_type="log"/>
                <Peak1gain id="3385730" value="6.3000002" scale_type="log"/>
                <HPfreq id="8036110" value="33.47303" scale_type="log"/>
                <LowShelffreq id="7547194" value="169.72931" scale_type="log"/>
                <Peak1freq id="3339297" value="335.62006" scale_type="log"/>
                <Peak2freq id="7646910" value="853.63745" scale_type="log"/>
                <Peak3freq id="1733788" value="4178.5908" scale_type="log"/>
                <Peak4freq id="3554616" value="4663.6606" scale_type="log"/>
                <Highshelffreq id="1704043" value="9531.9395" scale_type="log"/>
                <LPfreq id="5134742" value="17999.996" scale_type="log"/>
              </Eq>
              <key/>
            </effect>
          </fxchain>
        </instrumenttrack>
        <pattern type="1" name="Sweep Pad 2" pos="0" steps="16" muted="0">
          <note key="21" pan="0" pos="0" vol="100" len="768"/>
        </pattern>
        <pattern type="1" name="Sweep Pad 2" pos="2304" steps="16" muted="0">
          <note key="26" pan="0" pos="0" vol="100" len="768"/>
        </pattern>
        <pattern type="1" name="Sweep Pad 2" pos="3072" steps="16" muted="0">
          <note key="26" pan="0" pos="0" vol="100" len="768"/>
          <note key="21" pan="0" pos="768" vol="100" len="768"/>
        </pattern>
        <pattern type="1" name="Sweep Pad 2" pos="7680" steps="16" muted="0">
          <note key="26" pan="0" pos="0" vol="100" len="384"/>
        </pattern>
        <pattern type="1" name="Sweep Pad 2" pos="4608" steps="16" muted="0">
          <note key="26" pan="0" pos="0" vol="100" len="768"/>
          <note key="21" pan="0" pos="768" vol="100" len="768"/>
        </pattern>
      </track>
      <track solo="0" type="0" name="Strings Pad1" muted="0">
        <instrumenttrack pan="0" pitch="0" vol="82" basenote="57" pitchrange="1" usemasterpitch="1" fxch="0">
          <instrument name="zynaddsubfx">
            <zynaddsubfx portamento="0" fmgain="127" rescenterfreq="64" modifiedcontrollers="" resbandwidth="64" filterq="64" forwardmidicc="1" bandwidth="64" filterfreq="64">
              <ZynAddSubFX-data version-minor="4" ZynAddSubFX-author="Nasca Octavian Paul" version-major="2" version-revision="1">
                <INFORMATION>
                  <par_bool name="PADsynth_used" value="yes"/>
                </INFORMATION>
                <BASE_PARAMETERS>
                  <par name="max_midi_parts" value="16"/>
                  <par name="max_kit_items_per_instrument" value="16"/>
                  <par name="max_system_effects" value="4"/>
                  <par name="max_insertion_effects" value="8"/>
                  <par name="max_instrument_effects" value="3"/>
                  <par name="max_addsynth_voices" value="8"/>
                </BASE_PARAMETERS>
                <MASTER>
                  <par name="volume" value="80"/>
                  <par name="key_shift" value="64"/>
                  <par_bool name="nrpn_receive" value="yes"/>
                  <MICROTONAL>
                    <string name="name">12tET</string>
                    <string name="comment">Equal Temperament 12 notes per octave</string>
                    <par_bool name="invert_up_down" value="no"/>
                    <par name="invert_up_down_center" value="60"/>
                    <par_bool name="enabled" value="no"/>
                    <par name="global_fine_detune" value="64"/>
                    <par name="a_note" value="69"/>
                    <par_real name="a_freq" value="440.000000"/>
                  </MICROTONAL>
                  <PART id="0">
                    <par_bool name="enabled" value="yes"/>
                    <par name="volume" value="96"/>
                    <par name="panning" value="64"/>
                    <par name="min_key" value="0"/>
                    <par name="max_key" value="127"/>
                    <par name="key_shift" value="64"/>
                    <par name="rcv_chn" value="0"/>
                    <par name="velocity_sensing" value="64"/>
                    <par name="velocity_offset" value="64"/>
                    <par_bool name="note_on" value="yes"/>
                    <par_bool name="poly_mode" value="yes"/>
                    <par name="legato_mode" value="0"/>
                    <par name="key_limit" value="15"/>
                    <INSTRUMENT>
                      <INFO>
                        <string name="name">Strings Pad1</string>
                        <string name="author"/>
                        <string name="comments"/>
                        <par name="type" value="0"/>
                      </INFO>
                      <INSTRUMENT_KIT>
                        <par name="kit_mode" value="0"/>
                        <par_bool name="drum_mode" value="no"/>
                        <INSTRUMENT_KIT_ITEM id="0">
                          <par_bool name="enabled" value="yes"/>
                          <string name="name"/>
                          <par_bool name="muted" value="no"/>
                          <par name="min_key" value="0"/>
                          <par name="max_key" value="127"/>
                          <par name="send_to_instrument_effect" value="0"/>
                          <par_bool name="add_enabled" value="no"/>
                          <par_bool name="sub_enabled" value="no"/>
                          <par_bool name="pad_enabled" value="yes"/>
                          <PAD_SYNTH_PARAMETERS>
                            <par_bool name="stereo" value="yes"/>
                            <par name="mode" value="0"/>
                            <par name="bandwidth" value="575"/>
                            <par name="bandwidth_scale" value="0"/>
                            <HARMONIC_PROFILE>
                              <par name="base_type" value="0"/>
                              <par name="base_par1" value="99"/>
                              <par name="frequency_multiplier" value="8"/>
                              <par name="modulator_par1" value="0"/>
                              <par name="modulator_frequency" value="55"/>
                              <par name="width" value="127"/>
                              <par name="amplitude_multiplier_type" value="0"/>
                              <par name="amplitude_multiplier_mode" value="2"/>
                              <par name="amplitude_multiplier_par1" value="80"/>
                              <par name="amplitude_multiplier_par2" value="4"/>
                              <par_bool name="autoscale" value="no"/>
                              <par name="one_half" value="0"/>
                            </HARMONIC_PROFILE>
                            <OSCIL>
                              <par name="harmonic_mag_type" value="0"/>
                              <par name="base_function" value="4"/>
                              <par name="base_function_par" value="77"/>
                              <par name="base_function_modulation" value="0"/>
                              <par name="base_function_modulation_par1" value="64"/>
                              <par name="base_function_modulation_par2" value="64"/>
                              <par name="base_function_modulation_par3" value="32"/>
                              <par name="modulation" value="0"/>
                              <par name="modulation_par1" value="64"/>
                              <par name="modulation_par2" value="64"/>
                              <par name="modulation_par3" value="32"/>
                              <par name="wave_shaping" value="64"/>
                              <par name="wave_shaping_function" value="0"/>
                              <par name="filter_type" value="0"/>
                              <par name="filter_par1" value="64"/>
                              <par name="filter_par2" value="64"/>
                              <par name="filter_before_wave_shaping" value="0"/>
                              <par name="spectrum_adjust_type" value="0"/>
                              <par name="spectrum_adjust_par" value="64"/>
                              <par name="rand" value="64"/>
                              <par name="amp_rand_type" value="0"/>
                              <par name="amp_rand_power" value="64"/>
                              <par name="harmonic_shift" value="0"/>
                              <par_bool name="harmonic_shift_first" value="no"/>
                              <par name="adaptive_harmonics" value="0"/>
                              <par name="adaptive_harmonics_base_frequency" value="128"/>
                              <par name="adaptive_harmonics_power" value="100"/>
                              <HARMONICS>
                                <HARMONIC id="1">
                                  <par name="mag" value="127"/>
                                  <par name="phase" value="64"/>
                                </HARMONIC>
                              </HARMONICS>
                            </OSCIL>
                            <RESONANCE>
                              <par_bool name="enabled" value="no"/>
                            </RESONANCE>
                            <HARMONIC_POSITION>
                              <par name="type" value="0"/>
                              <par name="parameter1" value="255"/>
                              <par name="parameter2" value="64"/>
                              <par name="parameter3" value="0"/>
                            </HARMONIC_POSITION>
                            <SAMPLE_QUALITY>
                              <par name="samplesize" value="3"/>
                              <par name="basenote" value="4"/>
                              <par name="octaves" value="2"/>
                              <par name="samples_per_octave" value="2"/>
                            </SAMPLE_QUALITY>
                            <AMPLITUDE_PARAMETERS>
                              <par name="volume" value="90"/>
                              <par name="panning" value="64"/>
                              <par name="velocity_sensing" value="99"/>
                              <par name="punch_strength" value="0"/>
                              <par name="punch_time" value="60"/>
                              <par name="punch_stretch" value="64"/>
                              <par name="punch_velocity_sensing" value="72"/>
                              <AMPLITUDE_ENVELOPE>
                                <par_bool name="free_mode" value="no"/>
                                <par name="env_points" value="4"/>
                                <par name="env_sustain" value="2"/>
                                <par name="env_stretch" value="27"/>
                                <par_bool name="forced_release" value="yes"/>
                                <par_bool name="linear_envelope" value="no"/>
                                <par name="A_dt" value="31"/>
                                <par name="D_dt" value="40"/>
                                <par name="R_dt" value="87"/>
                                <par name="A_val" value="64"/>
                                <par name="D_val" value="64"/>
                                <par name="S_val" value="127"/>
                                <par name="R_val" value="64"/>
                              </AMPLITUDE_ENVELOPE>
                              <AMPLITUDE_LFO>
                                <par_real name="freq" value="0.629921"/>
                                <par name="intensity" value="0"/>
                                <par name="start_phase" value="64"/>
                                <par name="lfo_type" value="0"/>
                                <par name="randomness_amplitude" value="0"/>
                                <par name="randomness_frequency" value="0"/>
                                <par name="delay" value="0"/>
                                <par name="stretch" value="64"/>
                                <par_bool name="continous" value="no"/>
                              </AMPLITUDE_LFO>
                            </AMPLITUDE_PARAMETERS>
                            <FREQUENCY_PARAMETERS>
                              <par name="fixed_freq" value="0"/>
                              <par name="fixed_freq_et" value="0"/>
                              <par name="detune" value="8192"/>
                              <par name="coarse_detune" value="0"/>
                              <par name="detune_type" value="1"/>
                              <FREQUENCY_ENVELOPE>
                                <par_bool name="free_mode" value="no"/>
                                <par name="env_points" value="3"/>
                                <par name="env_sustain" value="1"/>
                                <par name="env_stretch" value="0"/>
                                <par_bool name="forced_release" value="no"/>
                                <par_bool name="linear_envelope" value="no"/>
                                <par name="A_dt" value="50"/>
                                <par name="D_dt" value="10"/>
                                <par name="R_dt" value="60"/>
                                <par name="A_val" value="64"/>
                                <par name="D_val" value="64"/>
                                <par name="S_val" value="64"/>
                                <par name="R_val" value="64"/>
                              </FREQUENCY_ENVELOPE>
                              <FREQUENCY_LFO>
                                <par_real name="freq" value="0.621181"/>
                                <par name="intensity" value="19"/>
                                <par name="start_phase" value="64"/>
                                <par name="lfo_type" value="0"/>
                                <par name="randomness_amplitude" value="0"/>
                                <par name="randomness_frequency" value="0"/>
                                <par name="delay" value="0"/>
                                <par name="stretch" value="64"/>
                                <par_bool name="continous" value="no"/>
                              </FREQUENCY_LFO>
                            </FREQUENCY_PARAMETERS>
                            <FILTER_PARAMETERS>
                              <par name="velocity_sensing_amplitude" value="25"/>
                              <par name="velocity_sensing" value="64"/>
                              <FILTER>
                                <par name="category" value="0"/>
                                <par name="type" value="0"/>
                                <par name="freq" value="85"/>
                                <par name="q" value="33"/>
                                <par name="stages" value="1"/>
                                <par name="freq_track" value="64"/>
                                <par name="gain" value="64"/>
                              </FILTER>
                              <FILTER_ENVELOPE>
                                <par_bool name="free_mode" value="no"/>
                                <par name="env_points" value="4"/>
                                <par name="env_sustain" value="2"/>
                                <par name="env_stretch" value="0"/>
                                <par_bool name="forced_release" value="yes"/>
                                <par_bool name="linear_envelope" value="no"/>
                                <par name="A_dt" value="35"/>
                                <par name="D_dt" value="70"/>
                                <par name="R_dt" value="98"/>
                                <par name="A_val" value="37"/>
                                <par name="D_val" value="64"/>
                                <par name="S_val" value="64"/>
                                <par name="R_val" value="43"/>
                              </FILTER_ENVELOPE>
                              <FILTER_LFO>
                                <par_real name="freq" value="0.629921"/>
                                <par name="intensity" value="0"/>
                                <par name="start_phase" value="64"/>
                                <par name="lfo_type" value="0"/>
                                <par name="randomness_amplitude" value="0"/>
                                <par name="randomness_frequency" value="0"/>
                                <par name="delay" value="0"/>
                                <par name="stretch" value="64"/>
                                <par_bool name="continous" value="no"/>
                              </FILTER_LFO>
                            </FILTER_PARAMETERS>
                          </PAD_SYNTH_PARAMETERS>
                        </INSTRUMENT_KIT_ITEM>
                        <INSTRUMENT_KIT_ITEM id="1">
                          <par_bool name="enabled" value="no"/>
                        </INSTRUMENT_KIT_ITEM>
                        <INSTRUMENT_KIT_ITEM id="2">
                          <par_bool name="enabled" value="no"/>
                        </INSTRUMENT_KIT_ITEM>
                        <INSTRUMENT_KIT_ITEM id="3">
                          <par_bool name="enabled" value="no"/>
                        </INSTRUMENT_KIT_ITEM>
                        <INSTRUMENT_KIT_ITEM id="4">
                          <par_bool name="enabled" value="no"/>
                        </INSTRUMENT_KIT_ITEM>
                        <INSTRUMENT_KIT_ITEM id="5">
                          <par_bool name="enabled" value="no"/>
                        </INSTRUMENT_KIT_ITEM>
                        <INSTRUMENT_KIT_ITEM id="6">
                          <par_bool name="enabled" value="no"/>
                        </INSTRUMENT_KIT_ITEM>
                        <INSTRUMENT_KIT_ITEM id="7">
                          <par_bool name="enabled" value="no"/>
                        </INSTRUMENT_KIT_ITEM>
                        <INSTRUMENT_KIT_ITEM id="8">
                          <par_bool name="enabled" value="no"/>
                        </INSTRUMENT_KIT_ITEM>
                        <INSTRUMENT_KIT_ITEM id="9">
                          <par_bool name="enabled" value="no"/>
                        </INSTRUMENT_KIT_ITEM>
                        <INSTRUMENT_KIT_ITEM id="10">
                          <par_bool name="enabled" value="no"/>
                        </INSTRUMENT_KIT_ITEM>
                        <INSTRUMENT_KIT_ITEM id="11">
                          <par_bool name="enabled" value="no"/>
                        </INSTRUMENT_KIT_ITEM>
                        <INSTRUMENT_KIT_ITEM id="12">
                          <par_bool name="enabled" value="no"/>
                        </INSTRUMENT_KIT_ITEM>
                        <INSTRUMENT_KIT_ITEM id="13">
                          <par_bool name="enabled" value="no"/>
                        </INSTRUMENT_KIT_ITEM>
                        <INSTRUMENT_KIT_ITEM id="14">
                          <par_bool name="enabled" value="no"/>
                        </INSTRUMENT_KIT_ITEM>
                        <INSTRUMENT_KIT_ITEM id="15">
                          <par_bool name="enabled" value="no"/>
                        </INSTRUMENT_KIT_ITEM>
                      </INSTRUMENT_KIT>
                      <INSTRUMENT_EFFECTS>
                        <INSTRUMENT_EFFECT id="0">
                          <EFFECT>
                            <par name="type" value="0"/>
                          </EFFECT>
                          <par name="route" value="0"/>
                          <par_bool name="bypass" value="no"/>
                        </INSTRUMENT_EFFECT>
                        <INSTRUMENT_EFFECT id="1">
                          <EFFECT>
                            <par name="type" value="0"/>
                          </EFFECT>
                          <par name="route" value="0"/>
                          <par_bool name="bypass" value="no"/>
                        </INSTRUMENT_EFFECT>
                        <INSTRUMENT_EFFECT id="2">
                          <EFFECT>
                            <par name="type" value="0"/>
                          </EFFECT>
                          <par name="route" value="0"/>
                          <par_bool name="bypass" value="no"/>
                        </INSTRUMENT_EFFECT>
                      </INSTRUMENT_EFFECTS>
                    </INSTRUMENT>
                    <CONTROLLER>
                      <par name="pitchwheel_bendrange" value="100"/>
                      <par_bool name="expression_receive" value="yes"/>
                      <par name="panning_depth" value="64"/>
                      <par name="filter_cutoff_depth" value="64"/>
                      <par name="filter_q_depth" value="64"/>
                      <par name="bandwidth_depth" value="64"/>
                      <par name="mod_wheel_depth" value="80"/>
                      <par_bool name="mod_wheel_exponential" value="no"/>
                      <par_bool name="fm_amp_receive" value="yes"/>
                      <par_bool name="volume_receive" value="yes"/>
                      <par_bool name="sustain_receive" value="yes"/>
                      <par_bool name="portamento_receive" value="yes"/>
                      <par name="portamento_time" value="64"/>
                      <par name="portamento_pitchthresh" value="3"/>
                      <par name="portamento_pitchthreshtype" value="1"/>
                      <par name="portamento_portamento" value="0"/>
                      <par name="portamento_updowntimestretch" value="64"/>
                      <par name="portamento_proportional" value="0"/>
                      <par name="portamento_proprate" value="80"/>
                      <par name="portamento_propdepth" value="90"/>
                      <par name="resonance_center_depth" value="64"/>
                      <par name="resonance_bandwidth_depth" value="64"/>
                    </CONTROLLER>
                  </PART>
                  <PART id="1">
                    <par_bool name="enabled" value="no"/>
                  </PART>
                  <PART id="2">
                    <par_bool name="enabled" value="no"/>
                  </PART>
                  <PART id="3">
                    <par_bool name="enabled" value="no"/>
                  </PART>
                  <PART id="4">
                    <par_bool name="enabled" value="no"/>
                  </PART>
                  <PART id="5">
                    <par_bool name="enabled" value="no"/>
                  </PART>
                  <PART id="6">
                    <par_bool name="enabled" value="no"/>
                  </PART>
                  <PART id="7">
                    <par_bool name="enabled" value="no"/>
                  </PART>
                  <PART id="8">
                    <par_bool name="enabled" value="no"/>
                  </PART>
                  <PART id="9">
                    <par_bool name="enabled" value="no"/>
                  </PART>
                  <PART id="10">
                    <par_bool name="enabled" value="no"/>
                  </PART>
                  <PART id="11">
                    <par_bool name="enabled" value="no"/>
                  </PART>
                  <PART id="12">
                    <par_bool name="enabled" value="no"/>
                  </PART>
                  <PART id="13">
                    <par_bool name="enabled" value="no"/>
                  </PART>
                  <PART id="14">
                    <par_bool name="enabled" value="no"/>
                  </PART>
                  <PART id="15">
                    <par_bool name="enabled" value="no"/>
                  </PART>
                  <SYSTEM_EFFECTS>
                    <SYSTEM_EFFECT id="0">
                      <EFFECT>
                        <par name="type" value="0"/>
                      </EFFECT>
                      <VOLUME id="0">
                        <par name="vol" value="0"/>
                      </VOLUME>
                      <VOLUME id="1">
                        <par name="vol" value="0"/>
                      </VOLUME>
                      <VOLUME id="2">
                        <par name="vol" value="0"/>
                      </VOLUME>
                      <VOLUME id="3">
                        <par name="vol" value="0"/>
                      </VOLUME>
                      <VOLUME id="4">
                        <par name="vol" value="0"/>
                      </VOLUME>
                      <VOLUME id="5">
                        <par name="vol" value="0"/>
                      </VOLUME>
                      <VOLUME id="6">
                        <par name="vol" value="0"/>
                      </VOLUME>
                      <VOLUME id="7">
                        <par name="vol" value="0"/>
                      </VOLUME>
                      <VOLUME id="8">
                        <par name="vol" value="0"/>
                      </VOLUME>
                      <VOLUME id="9">
                        <par name="vol" value="0"/>
                      </VOLUME>
                      <VOLUME id="10">
                        <par name="vol" value="0"/>
                      </VOLUME>
                      <VOLUME id="11">
                        <par name="vol" value="0"/>
                      </VOLUME>
                      <VOLUME id="12">
                        <par name="vol" value="0"/>
                      </VOLUME>
                      <VOLUME id="13">
                        <par name="vol" value="0"/>
                      </VOLUME>
                      <VOLUME id="14">
                        <par name="vol" value="0"/>
                      </VOLUME>
                      <VOLUME id="15">
                        <par name="vol" value="0"/>
                      </VOLUME>
                      <SENDTO id="1">
                        <par name="send_vol" value="0"/>
                      </SENDTO>
                      <SENDTO id="2">
                        <par name="send_vol" value="0"/>
                      </SENDTO>
                      <SENDTO id="3">
                        <par name="send_vol" value="0"/>
                      </SENDTO>
                    </SYSTEM_EFFECT>
                    <SYSTEM_EFFECT id="1">
                      <EFFECT>
                        <par name="type" value="0"/>
                      </EFFECT>
                      <VOLUME id="0">
                        <par name="vol" value="0"/>
                      </VOLUME>
                      <VOLUME id="1">
                        <par name="vol" value="0"/>
                      </VOLUME>
                      <VOLUME id="2">
                        <par name="vol" value="0"/>
                      </VOLUME>
                      <VOLUME id="3">
                        <par name="vol" value="0"/>
                      </VOLUME>
                      <VOLUME id="4">
                        <par name="vol" value="0"/>
                      </VOLUME>
                      <VOLUME id="5">
                        <par name="vol" value="0"/>
                      </VOLUME>
                      <VOLUME id="6">
                        <par name="vol" value="0"/>
                      </VOLUME>
                      <VOLUME id="7">
                        <par name="vol" value="0"/>
                      </VOLUME>
                      <VOLUME id="8">
                        <par name="vol" value="0"/>
                      </VOLUME>
                      <VOLUME id="9">
                        <par name="vol" value="0"/>
                      </VOLUME>
                      <VOLUME id="10">
                        <par name="vol" value="0"/>
                      </VOLUME>
                      <VOLUME id="11">
                        <par name="vol" value="0"/>
                      </VOLUME>
                      <VOLUME id="12">
                        <par name="vol" value="0"/>
                      </VOLUME>
                      <VOLUME id="13">
                        <par name="vol" value="0"/>
                      </VOLUME>
                      <VOLUME id="14">
                        <par name="vol" value="0"/>
                      </VOLUME>
                      <VOLUME id="15">
                        <par name="vol" value="0"/>
                      </VOLUME>
                      <SENDTO id="2">
                        <par name="send_vol" value="0"/>
                      </SENDTO>
                      <SENDTO id="3">
                        <par name="send_vol" value="0"/>
                      </SENDTO>
                    </SYSTEM_EFFECT>
                    <SYSTEM_EFFECT id="2">
                      <EFFECT>
                        <par name="type" value="0"/>
                      </EFFECT>
                      <VOLUME id="0">
                        <par name="vol" value="0"/>
                      </VOLUME>
                      <VOLUME id="1">
                        <par name="vol" value="0"/>
                      </VOLUME>
                      <VOLUME id="2">
                        <par name="vol" value="0"/>
                      </VOLUME>
                      <VOLUME id="3">
                        <par name="vol" value="0"/>
                      </VOLUME>
                      <VOLUME id="4">
                        <par name="vol" value="0"/>
                      </VOLUME>
                      <VOLUME id="5">
                        <par name="vol" value="0"/>
                      </VOLUME>
                      <VOLUME id="6">
                        <par name="vol" value="0"/>
                      </VOLUME>
                      <VOLUME id="7">
                        <par name="vol" value="0"/>
                      </VOLUME>
                      <VOLUME id="8">
                        <par name="vol" value="0"/>
                      </VOLUME>
                      <VOLUME id="9">
                        <par name="vol" value="0"/>
                      </VOLUME>
                      <VOLUME id="10">
                        <par name="vol" value="0"/>
                      </VOLUME>
                      <VOLUME id="11">
                        <par name="vol" value="0"/>
                      </VOLUME>
                      <VOLUME id="12">
                        <par name="vol" value="0"/>
                      </VOLUME>
                      <VOLUME id="13">
                        <par name="vol" value="0"/>
                      </VOLUME>
                      <VOLUME id="14">
                        <par name="vol" value="0"/>
                      </VOLUME>
                      <VOLUME id="15">
                        <par name="vol" value="0"/>
                      </VOLUME>
                      <SENDTO id="3">
                        <par name="send_vol" value="0"/>
                      </SENDTO>
                    </SYSTEM_EFFECT>
                    <SYSTEM_EFFECT id="3">
                      <EFFECT>
                        <par name="type" value="0"/>
                      </EFFECT>
                      <VOLUME id="0">
                        <par name="vol" value="0"/>
                      </VOLUME>
                      <VOLUME id="1">
                        <par name="vol" value="0"/>
                      </VOLUME>
                      <VOLUME id="2">
                        <par name="vol" value="0"/>
                      </VOLUME>
                      <VOLUME id="3">
                        <par name="vol" value="0"/>
                      </VOLUME>
                      <VOLUME id="4">
                        <par name="vol" value="0"/>
                      </VOLUME>
                      <VOLUME id="5">
                        <par name="vol" value="0"/>
                      </VOLUME>
                      <VOLUME id="6">
                        <par name="vol" value="0"/>
                      </VOLUME>
                      <VOLUME id="7">
                        <par name="vol" value="0"/>
                      </VOLUME>
                      <VOLUME id="8">
                        <par name="vol" value="0"/>
                      </VOLUME>
                      <VOLUME id="9">
                        <par name="vol" value="0"/>
                      </VOLUME>
                      <VOLUME id="10">
                        <par name="vol" value="0"/>
                      </VOLUME>
                      <VOLUME id="11">
                        <par name="vol" value="0"/>
                      </VOLUME>
                      <VOLUME id="12">
                        <par name="vol" value="0"/>
                      </VOLUME>
                      <VOLUME id="13">
                        <par name="vol" value="0"/>
                      </VOLUME>
                      <VOLUME id="14">
                        <par name="vol" value="0"/>
                      </VOLUME>
                      <VOLUME id="15">
                        <par name="vol" value="0"/>
                      </VOLUME>
                    </SYSTEM_EFFECT>
                  </SYSTEM_EFFECTS>
                  <INSERTION_EFFECTS>
                    <INSERTION_EFFECT id="0">
                      <par name="part" value="-1"/>
                      <EFFECT>
                        <par name="type" value="0"/>
                      </EFFECT>
                    </INSERTION_EFFECT>
                    <INSERTION_EFFECT id="1">
                      <par name="part" value="-1"/>
                      <EFFECT>
                        <par name="type" value="0"/>
                      </EFFECT>
                    </INSERTION_EFFECT>
                    <INSERTION_EFFECT id="2">
                      <par name="part" value="-1"/>
                      <EFFECT>
                        <par name="type" value="0"/>
                      </EFFECT>
                    </INSERTION_EFFECT>
                    <INSERTION_EFFECT id="3">
                      <par name="part" value="-1"/>
                      <EFFECT>
                        <par name="type" value="0"/>
                      </EFFECT>
                    </INSERTION_EFFECT>
                    <INSERTION_EFFECT id="4">
                      <par name="part" value="-1"/>
                      <EFFECT>
                        <par name="type" value="0"/>
                      </EFFECT>
                    </INSERTION_EFFECT>
                    <INSERTION_EFFECT id="5">
                      <par name="part" value="-1"/>
                      <EFFECT>
                        <par name="type" value="0"/>
                      </EFFECT>
                    </INSERTION_EFFECT>
                    <INSERTION_EFFECT id="6">
                      <par name="part" value="-1"/>
                      <EFFECT>
                        <par name="type" value="0"/>
                      </EFFECT>
                    </INSERTION_EFFECT>
                    <INSERTION_EFFECT id="7">
                      <par name="part" value="-1"/>
                      <EFFECT>
                        <par name="type" value="0"/>
                      </EFFECT>
                    </INSERTION_EFFECT>
                  </INSERTION_EFFECTS>
                </MASTER>
              </ZynAddSubFX-data>
            </zynaddsubfx>
          </instrument>
          <eldata fres="0.5" ftype="0" fwet="0" fcut="14000">
            <elvol lspd_syncmode="0" amt="0" hold="0.5" ctlenvamt="0" rel="0.1" x100="0" lspd_numerator="4" lspd_denominator="4" lpdel="0" lshp="0" sustain="0.5" lamt="0" latt="0" att="0" pdel="0" dec="0.5" userwavefile="" lspd="0.1"/>
            <elcut lspd_syncmode="0" amt="0" hold="0.5" ctlenvamt="0" rel="0.1" x100="0" lspd_numerator="4" lspd_denominator="4" lpdel="0" lshp="0" sustain="0.5" lamt="0" latt="0" att="0" pdel="0" dec="0.5" userwavefile="" lspd="0.1"/>
            <elres lspd_syncmode="0" amt="0" hold="0.5" ctlenvamt="0" rel="0.1" x100="0" lspd_numerator="4" lspd_denominator="4" lpdel="0" lshp="0" sustain="0.5" lamt="0" latt="0" att="0" pdel="0" dec="0.5" userwavefile="" lspd="0.1"/>
          </eldata>
          <chordcreator chord-enabled="0" chordrange="1" chord="0"/>
          <arpeggiator arp="0" arprange="1" arpmode="0" arpdir="0" arpskip="0" arptime="200" arptime_numerator="4" arp-enabled="0" arpgate="100" arpcycle="0" arptime_denominator="4" arpmiss="0" arptime_syncmode="0"/>
          <midiport fixedoutputvelocity="-1" inputcontroller="0" outputcontroller="0" basevelocity="63" writable="0" readable="0" fixedoutputnote="-1" outputchannel="1" outputprogram="1" inputchannel="0" fixedinputvelocity="-1"/>
          <fxchain numofeffects="0" enabled="0"/>
        </instrumenttrack>
        <pattern type="1" name="" pos="768" steps="16" muted="0">
          <note key="57" pan="0" pos="0" vol="100" len="768"/>
          <note key="45" pan="0" pos="0" vol="100" len="768"/>
          <note key="57" pan="0" pos="768" vol="100" len="768"/>
          <note key="45" pan="0" pos="768" vol="100" len="768"/>
        </pattern>
        <pattern type="1" name="" pos="6144" steps="16" muted="0">
          <note key="62" pan="0" pos="0" vol="100" len="768"/>
          <note key="50" pan="0" pos="0" vol="100" len="768"/>
          <note key="57" pan="0" pos="768" vol="100" len="768"/>
          <note key="50" pan="0" pos="768" vol="100" len="768"/>
        </pattern>
      </track>
    </trackcontainer>
    <track solo="0" type="6" name="Automation track" muted="0">
      <automationtrack/>
      <automationpattern tens="1" mute="0" name="Numerator" prog="0" pos="0" len="192"/>
      <automationpattern tens="1" mute="0" name="Denominator" prog="0" pos="0" len="192"/>
      <automationpattern tens="1" mute="0" name="Tempo" prog="0" pos="0" len="192"/>
      <automationpattern tens="1" mute="0" name="Master volume" prog="0" pos="0" len="192"/>
      <automationpattern tens="1" mute="0" name="Master pitch" prog="0" pos="0" len="192"/>
      <automationpattern tens="1" mute="0" name="Numerator" prog="0" pos="0" len="192"/>
      <automationpattern tens="1" mute="0" name="Denominator" prog="0" pos="0" len="192"/>
      <automationpattern tens="1" mute="0" name="Tempo" prog="0" pos="0" len="192"/>
      <automationpattern tens="1" mute="0" name="Master volume" prog="0" pos="0" len="192"/>
      <automationpattern tens="1" mute="0" name="Master pitch" prog="0" pos="0" len="192"/>
    </track>
    <fxmixer visible="1" minimized="0" y="531" width="558" maximized="0" x="38" height="333">
      <fxchannel name="Master" volume="1" num="0" soloed="0" muted="0">
        <fxchain numofeffects="1" enabled="1">
          <effect autoquit_syncmode="0" autoquit_denominator="4" autoquit="1" wet="1" name="ladspaeffect" gate="0" autoquit_numerator="4" on="1">
            <ladspacontrols ports="8" link="1">
              <port00 data="-5.2125001" link="1"/>
              <port01 data_syncmode="0" data="426.24997" data_numerator="4" data_denominator="4" link="1"/>
              <port02 data="0.5" link="1"/>
              <port03 data="0.5" link="1"/>
              <port10 data="-5.2125001"/>
              <port11 data_syncmode="0" data="426.24997" data_numerator="4" data_denominator="4"/>
              <port12 data="0.5"/>
              <port13 data="0.5"/>
            </ladspacontrols>
            <key>
              <attribute name="file" value="dyson_compress_1403"/>
              <attribute name="plugin" value="dysonCompress"/>
            </key>
          </effect>
        </fxchain>
      </fxchannel>
    </fxmixer>
    <ControllerRackView visible="1" minimized="0" y="407" width="350" maximized="0" x="836" height="200"/>
    <pianoroll visible="0" minimized="0" y="361" width="860" maximized="0" x="536" height="478"/>
    <automationeditor visible="0" minimized="0" y="255" width="860" maximized="0" x="56" height="400"/>
    <projectnotes visible="1" minimized="0" y="487" width="771" maximized="0" x="1081" height="400"><![CDATA[<!DOCTYPE HTML PUBLIC "-//W3C//DTD HTML 4.0//EN" "http://www.w3.org/TR/REC-html40/strict.dtd">
<html><head><meta name="qrichtext" content="1" /><style type="text/css">
p, li { white-space: pre-wrap; }
</style></head><body style=" font-family:'Sans Serif'; font-size:9pt; font-weight:400; font-style:normal;">
<p style=" margin-top:0px; margin-bottom:0px; margin-left:0px; margin-right:0px; -qt-block-indent:0; text-indent:0px;"><span style=" color:#e0e0e0;">Transition</span></p>
<p style=" margin-top:0px; margin-bottom:0px; margin-left:0px; margin-right:0px; -qt-block-indent:0; text-indent:0px;"><span style=" color:#e0e0e0;">========</span></p></body></html>]]></projectnotes>
    <timeline lp0pos="768" lp1pos="1536" lpstate="0"/>
    <controllers/>
  </song>
</lmms-project>
