<?xml version="1.0"?>
<!DOCTYPE lmms-project>
<lmms-project creator="LMMS" type="song" version="1.0" creatorversion="1.2.2">
  <head bpm="140" timesig_denominator="4" timesig_numerator="4" masterpitch="0" mastervol="100"/>
  <song>
    <trackcontainer visible="1" type="song" y="27" x="23" width="1770" height="770" minimized="0" maximized="0">
      <track name="Organic" muted="0" type="0" solo="0">
        <instrumenttrack pitchrange="1" pan="-66" fxch="0" basenote="57" pitch="0" vol="80" usemasterpitch="1">
          <instrument name="organic">
            <organic newharmonic4="4" wavetype4="4" newharmonic0="0" pan2="0" wavetype5="0" newharmonic1="1" pan1="0" newdetune4="3" pan3="0" vol3="29" pan0="0" foldback="0" newharmonic3="3" newharmonic2="2" pan5="0" vol4="13" pan6="0" vol6="62" pan7="0" newharmonic6="6" pan4="0" newharmonic5="5" newdetune7="-3" vol1="47" newdetune3="0" newdetune5="-1" newdetune6="2" wavetype0="4" num_osc="8" wavetype7="1" wavetype2="4" wavetype1="4" newharmonic7="7" newdetune0="3" wavetype6="4" vol7="16" vol="100" newdetune2="1" wavetype3="2" vol2="4" vol0="91" newdetune1="1" vol5="27"/>
          </instrument>
          <eldata fcut="14000" ftype="0" fwet="0" fres="0.5">
            <elvol dec="0.5" ctlenvamt="0" latt="0" sustain="0.5" amt="1" lamt="0" pdel="0" rel="0.1" lshp="0" lpdel="0" hold="0.13600001" lspd_numerator="4" lspd_denominator="4" att="0.016000001" x100="0" lspd="0.1" lspd_syncmode="0" userwavefile=""/>
            <elcut dec="0.5" ctlenvamt="0" latt="0" sustain="0.5" amt="0" lamt="0" pdel="0" rel="0.1" lshp="0" lpdel="0" hold="0.5" lspd_numerator="4" lspd_denominator="4" att="0" x100="0" lspd="0.1" lspd_syncmode="0" userwavefile=""/>
            <elres dec="0.5" ctlenvamt="0" latt="0" sustain="0.5" amt="0" lamt="0" pdel="0" rel="0.1" lshp="0" lpdel="0" hold="0.5" lspd_numerator="4" lspd_denominator="4" att="0" x100="0" lspd="0.1" lspd_syncmode="0" userwavefile=""/>
          </eldata>
          <chordcreator chordrange="1" chord-enabled="0" chord="0"/>
          <arpeggiator arptime="200" arptime_syncmode="0" arpmode="0" arptime_numerator="4" arptime_denominator="4" arpdir="0" arpgate="100" arprange="1" arp-enabled="0" arpmiss="0" arp="0" arpcycle="0" arpskip="0"/>
          <midiport inputcontroller="0" fixedoutputnote="-1" writable="0" basevelocity="63" outputprogram="1" outputcontroller="0" fixedinputvelocity="-1" outputchannel="1" fixedoutputvelocity="-1" readable="0" inputchannel="0"/>
          <fxchain numofeffects="0" enabled="0"/>
        </instrumenttrack>
        <pattern name="Organic" pos="1536" muted="0" type="1" steps="16">
          <note key="40" pan="0" pos="0" len="24" vol="100"/>
          <note key="40" pan="0" pos="36" len="24" vol="100"/>
          <note key="40" pan="0" pos="72" len="24" vol="100"/>
          <note key="40" pan="0" pos="108" len="24" vol="100"/>
          <note key="40" pan="0" pos="144" len="12" vol="100"/>
          <note key="41" pan="0" pos="168" len="24" vol="136"/>
          <note key="40" pan="0" pos="192" len="24" vol="100"/>
          <note key="40" pan="0" pos="228" len="24" vol="100"/>
          <note key="40" pan="0" pos="264" len="24" vol="100"/>
          <note key="40" pan="0" pos="300" len="24" vol="100"/>
          <note key="40" pan="0" pos="336" len="12" vol="100"/>
          <note key="41" pan="0" pos="360" len="24" vol="136"/>
          <note key="40" pan="0" pos="384" len="24" vol="100"/>
          <note key="40" pan="0" pos="420" len="24" vol="100"/>
          <note key="40" pan="0" pos="456" len="24" vol="100"/>
          <note key="40" pan="0" pos="492" len="24" vol="100"/>
          <note key="40" pan="0" pos="528" len="12" vol="100"/>
          <note key="41" pan="0" pos="552" len="24" vol="138"/>
          <note key="40" pan="0" pos="576" len="24" vol="100"/>
          <note key="40" pan="0" pos="612" len="24" vol="100"/>
          <note key="40" pan="0" pos="648" len="24" vol="100"/>
          <note key="40" pan="0" pos="684" len="24" vol="100"/>
          <note key="40" pan="0" pos="720" len="12" vol="100"/>
          <note key="41" pan="0" pos="744" len="24" vol="136"/>
          <note key="40" pan="0" pos="768" len="24" vol="100"/>
          <note key="40" pan="0" pos="804" len="24" vol="100"/>
          <note key="40" pan="0" pos="840" len="24" vol="100"/>
          <note key="40" pan="0" pos="876" len="24" vol="100"/>
          <note key="40" pan="0" pos="912" len="12" vol="100"/>
          <note key="41" pan="0" pos="936" len="24" vol="136"/>
          <note key="40" pan="0" pos="960" len="24" vol="100"/>
          <note key="40" pan="0" pos="996" len="24" vol="100"/>
          <note key="40" pan="0" pos="1032" len="24" vol="100"/>
          <note key="40" pan="0" pos="1068" len="24" vol="100"/>
          <note key="40" pan="0" pos="1104" len="12" vol="100"/>
          <note key="41" pan="0" pos="1128" len="24" vol="136"/>
          <note key="40" pan="0" pos="1152" len="24" vol="100"/>
          <note key="40" pan="0" pos="1188" len="24" vol="100"/>
          <note key="40" pan="0" pos="1224" len="24" vol="100"/>
          <note key="40" pan="0" pos="1260" len="24" vol="100"/>
          <note key="40" pan="0" pos="1296" len="12" vol="100"/>
          <note key="41" pan="0" pos="1320" len="24" vol="138"/>
          <note key="40" pan="0" pos="1344" len="24" vol="100"/>
          <note key="40" pan="0" pos="1380" len="24" vol="100"/>
          <note key="40" pan="0" pos="1416" len="24" vol="100"/>
          <note key="40" pan="0" pos="1452" len="24" vol="100"/>
          <note key="40" pan="0" pos="1488" len="12" vol="100"/>
          <note key="41" pan="0" pos="1512" len="24" vol="136"/>
        </pattern>
        <pattern name="Organic" pos="0" muted="0" type="1" steps="16">
          <note key="40" pan="0" pos="0" len="24" vol="100"/>
          <note key="40" pan="0" pos="36" len="24" vol="100"/>
          <note key="40" pan="0" pos="72" len="24" vol="100"/>
          <note key="40" pan="0" pos="108" len="24" vol="100"/>
          <note key="40" pan="0" pos="144" len="12" vol="100"/>
          <note key="41" pan="0" pos="168" len="24" vol="136"/>
          <note key="40" pan="0" pos="192" len="24" vol="100"/>
          <note key="40" pan="0" pos="228" len="24" vol="100"/>
          <note key="40" pan="0" pos="264" len="24" vol="100"/>
          <note key="40" pan="0" pos="300" len="24" vol="100"/>
          <note key="40" pan="0" pos="336" len="12" vol="100"/>
          <note key="41" pan="0" pos="360" len="24" vol="136"/>
          <note key="40" pan="0" pos="384" len="24" vol="100"/>
          <note key="40" pan="0" pos="420" len="24" vol="100"/>
          <note key="40" pan="0" pos="456" len="24" vol="100"/>
          <note key="40" pan="0" pos="492" len="24" vol="100"/>
          <note key="40" pan="0" pos="528" len="12" vol="100"/>
          <note key="41" pan="0" pos="552" len="24" vol="138"/>
          <note key="40" pan="0" pos="576" len="24" vol="100"/>
          <note key="40" pan="0" pos="612" len="24" vol="100"/>
          <note key="40" pan="0" pos="648" len="24" vol="100"/>
          <note key="40" pan="0" pos="684" len="24" vol="100"/>
          <note key="40" pan="0" pos="720" len="12" vol="100"/>
          <note key="41" pan="0" pos="744" len="24" vol="136"/>
          <note key="40" pan="0" pos="768" len="24" vol="100"/>
          <note key="40" pan="0" pos="804" len="24" vol="100"/>
          <note key="40" pan="0" pos="840" len="24" vol="100"/>
          <note key="40" pan="0" pos="876" len="24" vol="100"/>
          <note key="40" pan="0" pos="912" len="12" vol="100"/>
          <note key="41" pan="0" pos="936" len="24" vol="136"/>
          <note key="40" pan="0" pos="960" len="24" vol="100"/>
          <note key="40" pan="0" pos="996" len="24" vol="100"/>
          <note key="40" pan="0" pos="1032" len="24" vol="100"/>
          <note key="40" pan="0" pos="1068" len="24" vol="100"/>
          <note key="40" pan="0" pos="1104" len="12" vol="100"/>
          <note key="41" pan="0" pos="1128" len="24" vol="136"/>
          <note key="40" pan="0" pos="1152" len="24" vol="100"/>
          <note key="40" pan="0" pos="1188" len="24" vol="100"/>
          <note key="40" pan="0" pos="1224" len="24" vol="100"/>
          <note key="40" pan="0" pos="1260" len="24" vol="100"/>
          <note key="40" pan="0" pos="1296" len="12" vol="100"/>
          <note key="41" pan="0" pos="1320" len="24" vol="138"/>
          <note key="40" pan="0" pos="1344" len="24" vol="100"/>
          <note key="40" pan="0" pos="1380" len="24" vol="100"/>
          <note key="40" pan="0" pos="1416" len="24" vol="100"/>
          <note key="40" pan="0" pos="1452" len="24" vol="100"/>
          <note key="40" pan="0" pos="1488" len="12" vol="100"/>
          <note key="41" pan="0" pos="1512" len="24" vol="136"/>
        </pattern>
        <pattern name="Organic" pos="3072" muted="0" type="1" steps="16">
          <note key="40" pan="0" pos="0" len="24" vol="100"/>
          <note key="40" pan="0" pos="36" len="24" vol="100"/>
          <note key="40" pan="0" pos="72" len="24" vol="100"/>
          <note key="40" pan="0" pos="108" len="24" vol="100"/>
          <note key="40" pan="0" pos="144" len="12" vol="100"/>
          <note key="41" pan="0" pos="168" len="24" vol="136"/>
          <note key="40" pan="0" pos="192" len="24" vol="100"/>
          <note key="40" pan="0" pos="228" len="24" vol="100"/>
          <note key="40" pan="0" pos="264" len="24" vol="100"/>
          <note key="40" pan="0" pos="300" len="24" vol="100"/>
          <note key="40" pan="0" pos="336" len="12" vol="100"/>
          <note key="41" pan="0" pos="360" len="24" vol="136"/>
          <note key="40" pan="0" pos="384" len="24" vol="100"/>
          <note key="40" pan="0" pos="420" len="24" vol="100"/>
          <note key="40" pan="0" pos="456" len="24" vol="100"/>
          <note key="40" pan="0" pos="492" len="24" vol="100"/>
          <note key="40" pan="0" pos="528" len="12" vol="100"/>
          <note key="41" pan="0" pos="552" len="24" vol="138"/>
          <note key="40" pan="0" pos="576" len="24" vol="100"/>
          <note key="40" pan="0" pos="612" len="24" vol="100"/>
          <note key="40" pan="0" pos="648" len="24" vol="100"/>
          <note key="40" pan="0" pos="684" len="24" vol="100"/>
          <note key="40" pan="0" pos="720" len="12" vol="100"/>
          <note key="41" pan="0" pos="744" len="24" vol="136"/>
          <note key="40" pan="0" pos="768" len="24" vol="100"/>
          <note key="40" pan="0" pos="804" len="24" vol="100"/>
          <note key="40" pan="0" pos="840" len="24" vol="100"/>
          <note key="40" pan="0" pos="876" len="24" vol="100"/>
          <note key="40" pan="0" pos="912" len="12" vol="100"/>
          <note key="41" pan="0" pos="936" len="24" vol="136"/>
          <note key="40" pan="0" pos="960" len="24" vol="100"/>
          <note key="40" pan="0" pos="996" len="24" vol="100"/>
          <note key="40" pan="0" pos="1032" len="24" vol="100"/>
          <note key="40" pan="0" pos="1068" len="24" vol="100"/>
          <note key="40" pan="0" pos="1104" len="12" vol="100"/>
          <note key="41" pan="0" pos="1128" len="24" vol="136"/>
          <note key="40" pan="0" pos="1152" len="24" vol="100"/>
          <note key="40" pan="0" pos="1188" len="24" vol="100"/>
          <note key="40" pan="0" pos="1224" len="24" vol="100"/>
          <note key="40" pan="0" pos="1260" len="24" vol="100"/>
          <note key="40" pan="0" pos="1296" len="12" vol="100"/>
          <note key="41" pan="0" pos="1320" len="24" vol="138"/>
          <note key="40" pan="0" pos="1344" len="24" vol="100"/>
          <note key="40" pan="0" pos="1380" len="24" vol="100"/>
          <note key="40" pan="0" pos="1416" len="24" vol="100"/>
          <note key="40" pan="0" pos="1452" len="24" vol="100"/>
          <note key="40" pan="0" pos="1488" len="12" vol="100"/>
          <note key="41" pan="0" pos="1512" len="24" vol="136"/>
        </pattern>
        <pattern name="Organic" pos="6144" muted="0" type="1" steps="16">
          <note key="40" pan="0" pos="0" len="24" vol="100"/>
          <note key="40" pan="0" pos="36" len="24" vol="100"/>
          <note key="40" pan="0" pos="72" len="24" vol="100"/>
          <note key="40" pan="0" pos="108" len="24" vol="100"/>
          <note key="40" pan="0" pos="144" len="12" vol="100"/>
          <note key="41" pan="0" pos="168" len="24" vol="136"/>
          <note key="40" pan="0" pos="192" len="24" vol="100"/>
          <note key="40" pan="0" pos="228" len="24" vol="100"/>
          <note key="40" pan="0" pos="264" len="24" vol="100"/>
          <note key="40" pan="0" pos="300" len="24" vol="100"/>
          <note key="40" pan="0" pos="336" len="12" vol="100"/>
          <note key="41" pan="0" pos="360" len="24" vol="136"/>
          <note key="40" pan="0" pos="384" len="24" vol="100"/>
          <note key="40" pan="0" pos="420" len="24" vol="100"/>
          <note key="40" pan="0" pos="456" len="24" vol="100"/>
          <note key="40" pan="0" pos="492" len="24" vol="100"/>
          <note key="40" pan="0" pos="528" len="12" vol="100"/>
          <note key="41" pan="0" pos="552" len="24" vol="138"/>
          <note key="40" pan="0" pos="576" len="24" vol="100"/>
          <note key="40" pan="0" pos="612" len="24" vol="100"/>
          <note key="40" pan="0" pos="648" len="24" vol="100"/>
          <note key="40" pan="0" pos="684" len="24" vol="100"/>
          <note key="40" pan="0" pos="720" len="12" vol="100"/>
          <note key="41" pan="0" pos="744" len="24" vol="136"/>
          <note key="40" pan="0" pos="768" len="24" vol="100"/>
          <note key="40" pan="0" pos="804" len="24" vol="100"/>
          <note key="40" pan="0" pos="840" len="24" vol="100"/>
          <note key="40" pan="0" pos="876" len="24" vol="100"/>
          <note key="40" pan="0" pos="912" len="12" vol="100"/>
          <note key="41" pan="0" pos="936" len="24" vol="136"/>
          <note key="40" pan="0" pos="960" len="24" vol="100"/>
          <note key="40" pan="0" pos="996" len="24" vol="100"/>
          <note key="40" pan="0" pos="1032" len="24" vol="100"/>
          <note key="40" pan="0" pos="1068" len="24" vol="100"/>
          <note key="40" pan="0" pos="1104" len="12" vol="100"/>
          <note key="41" pan="0" pos="1128" len="24" vol="136"/>
          <note key="40" pan="0" pos="1152" len="24" vol="100"/>
          <note key="40" pan="0" pos="1188" len="24" vol="100"/>
          <note key="40" pan="0" pos="1224" len="24" vol="100"/>
          <note key="40" pan="0" pos="1260" len="24" vol="100"/>
          <note key="40" pan="0" pos="1296" len="12" vol="100"/>
          <note key="41" pan="0" pos="1320" len="24" vol="138"/>
          <note key="40" pan="0" pos="1344" len="24" vol="100"/>
          <note key="40" pan="0" pos="1380" len="24" vol="100"/>
          <note key="40" pan="0" pos="1416" len="24" vol="100"/>
          <note key="40" pan="0" pos="1452" len="24" vol="100"/>
          <note key="41" pan="0" pos="1488" len="12" vol="100"/>
          <note key="41" pan="0" pos="1512" len="24" vol="136"/>
        </pattern>
        <pattern name="Organic" pos="9216" muted="0" type="1" steps="16">
          <note key="28" pan="0" pos="0" len="768" vol="100"/>
          <note key="24" pan="0" pos="768" len="768" vol="100"/>
        </pattern>
        <pattern name="Organic" pos="10752" muted="0" type="1" steps="16">
          <note key="28" pan="0" pos="0" len="768" vol="100"/>
          <note key="24" pan="0" pos="768" len="768" vol="100"/>
        </pattern>
        <pattern name="Organic" pos="12288" muted="0" type="1" steps="16">
          <note key="28" pan="0" pos="0" len="768" vol="100"/>
          <note key="24" pan="0" pos="768" len="768" vol="100"/>
        </pattern>
        <pattern name="Organic" pos="13824" muted="0" type="1" steps="16">
          <note key="40" pan="0" pos="0" len="24" vol="100"/>
          <note key="40" pan="0" pos="36" len="24" vol="100"/>
          <note key="40" pan="0" pos="72" len="24" vol="100"/>
          <note key="40" pan="0" pos="108" len="24" vol="100"/>
          <note key="40" pan="0" pos="144" len="12" vol="100"/>
          <note key="41" pan="0" pos="168" len="24" vol="136"/>
          <note key="40" pan="0" pos="192" len="24" vol="100"/>
          <note key="40" pan="0" pos="228" len="24" vol="100"/>
          <note key="40" pan="0" pos="264" len="24" vol="100"/>
          <note key="40" pan="0" pos="300" len="24" vol="100"/>
          <note key="40" pan="0" pos="336" len="12" vol="100"/>
          <note key="41" pan="0" pos="360" len="24" vol="136"/>
          <note key="40" pan="0" pos="384" len="24" vol="100"/>
          <note key="40" pan="0" pos="420" len="24" vol="100"/>
          <note key="40" pan="0" pos="456" len="24" vol="100"/>
          <note key="40" pan="0" pos="492" len="24" vol="100"/>
          <note key="40" pan="0" pos="528" len="12" vol="100"/>
          <note key="41" pan="0" pos="552" len="24" vol="138"/>
          <note key="40" pan="0" pos="576" len="24" vol="100"/>
          <note key="40" pan="0" pos="612" len="24" vol="100"/>
          <note key="40" pan="0" pos="648" len="24" vol="100"/>
          <note key="40" pan="0" pos="684" len="24" vol="100"/>
          <note key="40" pan="0" pos="720" len="12" vol="100"/>
          <note key="41" pan="0" pos="744" len="24" vol="136"/>
          <note key="40" pan="0" pos="768" len="24" vol="100"/>
          <note key="40" pan="0" pos="804" len="24" vol="100"/>
          <note key="40" pan="0" pos="840" len="24" vol="100"/>
          <note key="40" pan="0" pos="876" len="24" vol="100"/>
          <note key="40" pan="0" pos="912" len="12" vol="100"/>
          <note key="41" pan="0" pos="936" len="24" vol="136"/>
          <note key="40" pan="0" pos="960" len="24" vol="100"/>
          <note key="40" pan="0" pos="996" len="24" vol="100"/>
          <note key="40" pan="0" pos="1032" len="24" vol="100"/>
          <note key="40" pan="0" pos="1068" len="24" vol="100"/>
          <note key="40" pan="0" pos="1104" len="12" vol="100"/>
          <note key="41" pan="0" pos="1128" len="24" vol="136"/>
          <note key="40" pan="0" pos="1152" len="24" vol="100"/>
          <note key="40" pan="0" pos="1188" len="24" vol="100"/>
          <note key="40" pan="0" pos="1224" len="24" vol="100"/>
          <note key="40" pan="0" pos="1260" len="24" vol="100"/>
          <note key="40" pan="0" pos="1296" len="12" vol="100"/>
          <note key="41" pan="0" pos="1320" len="24" vol="138"/>
          <note key="40" pan="0" pos="1344" len="24" vol="100"/>
          <note key="40" pan="0" pos="1380" len="24" vol="100"/>
          <note key="40" pan="0" pos="1416" len="24" vol="100"/>
          <note key="40" pan="0" pos="1452" len="24" vol="100"/>
          <note key="40" pan="0" pos="1488" len="12" vol="100"/>
          <note key="41" pan="0" pos="1512" len="24" vol="136"/>
        </pattern>
        <pattern name="Organic" pos="15360" muted="0" type="1" steps="16">
          <note key="40" pan="0" pos="0" len="24" vol="100"/>
          <note key="40" pan="0" pos="36" len="24" vol="100"/>
          <note key="40" pan="0" pos="72" len="24" vol="100"/>
          <note key="40" pan="0" pos="108" len="24" vol="100"/>
          <note key="40" pan="0" pos="144" len="12" vol="100"/>
          <note key="41" pan="0" pos="168" len="24" vol="136"/>
          <note key="40" pan="0" pos="192" len="24" vol="100"/>
          <note key="40" pan="0" pos="228" len="24" vol="100"/>
          <note key="40" pan="0" pos="264" len="24" vol="100"/>
          <note key="40" pan="0" pos="300" len="24" vol="100"/>
          <note key="40" pan="0" pos="336" len="12" vol="100"/>
          <note key="41" pan="0" pos="360" len="24" vol="136"/>
          <note key="40" pan="0" pos="384" len="24" vol="100"/>
          <note key="40" pan="0" pos="420" len="24" vol="100"/>
          <note key="40" pan="0" pos="456" len="24" vol="100"/>
          <note key="40" pan="0" pos="492" len="24" vol="100"/>
          <note key="40" pan="0" pos="528" len="12" vol="100"/>
          <note key="41" pan="0" pos="552" len="24" vol="138"/>
          <note key="40" pan="0" pos="576" len="24" vol="100"/>
          <note key="40" pan="0" pos="612" len="24" vol="100"/>
          <note key="40" pan="0" pos="648" len="24" vol="100"/>
          <note key="40" pan="0" pos="684" len="24" vol="100"/>
          <note key="40" pan="0" pos="720" len="12" vol="100"/>
          <note key="41" pan="0" pos="744" len="24" vol="136"/>
          <note key="40" pan="0" pos="768" len="24" vol="100"/>
          <note key="40" pan="0" pos="804" len="24" vol="100"/>
          <note key="40" pan="0" pos="840" len="24" vol="100"/>
          <note key="40" pan="0" pos="876" len="24" vol="100"/>
          <note key="40" pan="0" pos="912" len="12" vol="100"/>
          <note key="41" pan="0" pos="936" len="24" vol="136"/>
          <note key="40" pan="0" pos="960" len="24" vol="100"/>
          <note key="40" pan="0" pos="996" len="24" vol="100"/>
          <note key="40" pan="0" pos="1032" len="24" vol="100"/>
          <note key="40" pan="0" pos="1068" len="24" vol="100"/>
          <note key="40" pan="0" pos="1104" len="12" vol="100"/>
          <note key="41" pan="0" pos="1128" len="24" vol="136"/>
          <note key="40" pan="0" pos="1152" len="24" vol="100"/>
          <note key="40" pan="0" pos="1188" len="24" vol="100"/>
          <note key="40" pan="0" pos="1224" len="24" vol="100"/>
          <note key="40" pan="0" pos="1260" len="24" vol="100"/>
          <note key="40" pan="0" pos="1296" len="12" vol="100"/>
          <note key="41" pan="0" pos="1320" len="24" vol="138"/>
          <note key="40" pan="0" pos="1344" len="24" vol="100"/>
          <note key="40" pan="0" pos="1380" len="24" vol="100"/>
          <note key="40" pan="0" pos="1416" len="24" vol="100"/>
          <note key="40" pan="0" pos="1452" len="24" vol="100"/>
          <note key="40" pan="0" pos="1488" len="12" vol="100"/>
          <note key="41" pan="0" pos="1512" len="24" vol="136"/>
        </pattern>
        <pattern name="Organic" pos="16896" muted="0" type="1" steps="16">
          <note key="40" pan="0" pos="0" len="24" vol="100"/>
          <note key="40" pan="0" pos="36" len="24" vol="100"/>
          <note key="40" pan="0" pos="72" len="24" vol="100"/>
          <note key="40" pan="0" pos="108" len="24" vol="100"/>
          <note key="40" pan="0" pos="144" len="12" vol="100"/>
          <note key="41" pan="0" pos="168" len="24" vol="136"/>
          <note key="40" pan="0" pos="192" len="24" vol="100"/>
          <note key="40" pan="0" pos="228" len="24" vol="100"/>
          <note key="40" pan="0" pos="264" len="24" vol="100"/>
          <note key="40" pan="0" pos="300" len="24" vol="100"/>
          <note key="40" pan="0" pos="336" len="12" vol="100"/>
          <note key="41" pan="0" pos="360" len="24" vol="136"/>
          <note key="40" pan="0" pos="384" len="24" vol="100"/>
          <note key="40" pan="0" pos="420" len="24" vol="100"/>
          <note key="40" pan="0" pos="456" len="24" vol="100"/>
          <note key="40" pan="0" pos="492" len="24" vol="100"/>
          <note key="40" pan="0" pos="528" len="12" vol="100"/>
          <note key="41" pan="0" pos="552" len="24" vol="138"/>
          <note key="40" pan="0" pos="576" len="24" vol="100"/>
          <note key="40" pan="0" pos="612" len="24" vol="100"/>
          <note key="40" pan="0" pos="648" len="24" vol="100"/>
          <note key="40" pan="0" pos="684" len="24" vol="100"/>
          <note key="40" pan="0" pos="720" len="12" vol="100"/>
          <note key="41" pan="0" pos="744" len="24" vol="136"/>
          <note key="40" pan="0" pos="768" len="24" vol="100"/>
          <note key="40" pan="0" pos="804" len="24" vol="100"/>
          <note key="40" pan="0" pos="840" len="24" vol="100"/>
          <note key="40" pan="0" pos="876" len="24" vol="100"/>
          <note key="40" pan="0" pos="912" len="12" vol="100"/>
          <note key="41" pan="0" pos="936" len="24" vol="136"/>
          <note key="40" pan="0" pos="960" len="24" vol="100"/>
          <note key="40" pan="0" pos="996" len="24" vol="100"/>
          <note key="40" pan="0" pos="1032" len="24" vol="100"/>
          <note key="40" pan="0" pos="1068" len="24" vol="100"/>
          <note key="40" pan="0" pos="1104" len="12" vol="100"/>
          <note key="41" pan="0" pos="1128" len="24" vol="136"/>
          <note key="40" pan="0" pos="1152" len="24" vol="100"/>
          <note key="40" pan="0" pos="1188" len="24" vol="100"/>
          <note key="40" pan="0" pos="1224" len="24" vol="100"/>
          <note key="40" pan="0" pos="1260" len="24" vol="100"/>
          <note key="40" pan="0" pos="1296" len="12" vol="100"/>
          <note key="41" pan="0" pos="1320" len="24" vol="138"/>
          <note key="40" pan="0" pos="1344" len="24" vol="100"/>
          <note key="40" pan="0" pos="1380" len="24" vol="100"/>
          <note key="40" pan="0" pos="1416" len="24" vol="100"/>
          <note key="40" pan="0" pos="1452" len="24" vol="100"/>
          <note key="40" pan="0" pos="1488" len="12" vol="100"/>
          <note key="41" pan="0" pos="1512" len="24" vol="136"/>
        </pattern>
        <pattern name="Organic" pos="18432" muted="0" type="1" steps="16">
          <note key="40" pan="0" pos="0" len="24" vol="100"/>
          <note key="40" pan="0" pos="36" len="24" vol="100"/>
          <note key="40" pan="0" pos="72" len="24" vol="100"/>
          <note key="40" pan="0" pos="108" len="24" vol="100"/>
          <note key="40" pan="0" pos="144" len="12" vol="100"/>
          <note key="41" pan="0" pos="168" len="24" vol="136"/>
          <note key="40" pan="0" pos="192" len="24" vol="100"/>
          <note key="40" pan="0" pos="228" len="24" vol="100"/>
          <note key="40" pan="0" pos="264" len="24" vol="100"/>
          <note key="40" pan="0" pos="300" len="24" vol="100"/>
          <note key="40" pan="0" pos="336" len="12" vol="100"/>
          <note key="41" pan="0" pos="360" len="24" vol="136"/>
          <note key="40" pan="0" pos="384" len="24" vol="100"/>
          <note key="40" pan="0" pos="420" len="24" vol="100"/>
          <note key="40" pan="0" pos="456" len="24" vol="100"/>
          <note key="40" pan="0" pos="492" len="24" vol="100"/>
          <note key="40" pan="0" pos="528" len="12" vol="100"/>
          <note key="41" pan="0" pos="552" len="24" vol="138"/>
          <note key="40" pan="0" pos="576" len="24" vol="100"/>
          <note key="40" pan="0" pos="612" len="24" vol="100"/>
          <note key="40" pan="0" pos="648" len="24" vol="100"/>
          <note key="40" pan="0" pos="684" len="24" vol="100"/>
          <note key="40" pan="0" pos="720" len="12" vol="100"/>
          <note key="41" pan="0" pos="744" len="24" vol="136"/>
          <note key="40" pan="0" pos="768" len="24" vol="100"/>
          <note key="40" pan="0" pos="804" len="24" vol="100"/>
          <note key="40" pan="0" pos="840" len="24" vol="100"/>
          <note key="40" pan="0" pos="876" len="24" vol="100"/>
          <note key="40" pan="0" pos="912" len="12" vol="100"/>
          <note key="41" pan="0" pos="936" len="24" vol="136"/>
          <note key="40" pan="0" pos="960" len="24" vol="100"/>
          <note key="40" pan="0" pos="996" len="24" vol="100"/>
          <note key="40" pan="0" pos="1032" len="24" vol="100"/>
          <note key="40" pan="0" pos="1068" len="24" vol="100"/>
          <note key="40" pan="0" pos="1104" len="12" vol="100"/>
          <note key="41" pan="0" pos="1128" len="24" vol="136"/>
          <note key="40" pan="0" pos="1152" len="24" vol="100"/>
          <note key="40" pan="0" pos="1188" len="24" vol="100"/>
          <note key="40" pan="0" pos="1224" len="24" vol="100"/>
          <note key="40" pan="0" pos="1260" len="24" vol="100"/>
          <note key="40" pan="0" pos="1296" len="12" vol="100"/>
          <note key="41" pan="0" pos="1320" len="24" vol="138"/>
          <note key="40" pan="0" pos="1344" len="24" vol="100"/>
          <note key="40" pan="0" pos="1380" len="24" vol="100"/>
          <note key="40" pan="0" pos="1416" len="24" vol="100"/>
          <note key="40" pan="0" pos="1452" len="24" vol="100"/>
          <note key="40" pan="0" pos="1488" len="12" vol="100"/>
          <note key="41" pan="0" pos="1512" len="24" vol="136"/>
        </pattern>
        <pattern name="Organic" pos="19968" muted="0" type="1" steps="16">
          <note key="40" pan="0" pos="0" len="192" vol="100"/>
        </pattern>
        <pattern name="Organic" pos="4608" muted="0" type="1" steps="16">
          <note key="40" pan="0" pos="0" len="24" vol="100"/>
          <note key="40" pan="0" pos="36" len="24" vol="100"/>
          <note key="40" pan="0" pos="72" len="24" vol="100"/>
          <note key="40" pan="0" pos="108" len="24" vol="100"/>
          <note key="40" pan="0" pos="144" len="12" vol="100"/>
          <note key="41" pan="0" pos="168" len="24" vol="136"/>
          <note key="40" pan="0" pos="192" len="24" vol="100"/>
          <note key="40" pan="0" pos="228" len="24" vol="100"/>
          <note key="40" pan="0" pos="264" len="24" vol="100"/>
          <note key="40" pan="0" pos="300" len="24" vol="100"/>
          <note key="40" pan="0" pos="336" len="12" vol="100"/>
          <note key="41" pan="0" pos="360" len="24" vol="136"/>
          <note key="40" pan="0" pos="384" len="24" vol="100"/>
          <note key="40" pan="0" pos="420" len="24" vol="100"/>
          <note key="40" pan="0" pos="456" len="24" vol="100"/>
          <note key="40" pan="0" pos="492" len="24" vol="100"/>
          <note key="40" pan="0" pos="528" len="12" vol="100"/>
          <note key="41" pan="0" pos="552" len="24" vol="138"/>
          <note key="40" pan="0" pos="576" len="24" vol="100"/>
          <note key="40" pan="0" pos="612" len="24" vol="100"/>
          <note key="40" pan="0" pos="648" len="24" vol="100"/>
          <note key="40" pan="0" pos="684" len="24" vol="100"/>
          <note key="40" pan="0" pos="720" len="12" vol="100"/>
          <note key="41" pan="0" pos="744" len="24" vol="136"/>
          <note key="40" pan="0" pos="768" len="24" vol="100"/>
          <note key="40" pan="0" pos="804" len="24" vol="100"/>
          <note key="40" pan="0" pos="840" len="24" vol="100"/>
          <note key="40" pan="0" pos="876" len="24" vol="100"/>
          <note key="40" pan="0" pos="912" len="12" vol="100"/>
          <note key="41" pan="0" pos="936" len="24" vol="136"/>
          <note key="40" pan="0" pos="960" len="24" vol="100"/>
          <note key="40" pan="0" pos="996" len="24" vol="100"/>
          <note key="40" pan="0" pos="1032" len="24" vol="100"/>
          <note key="40" pan="0" pos="1068" len="24" vol="100"/>
          <note key="40" pan="0" pos="1104" len="12" vol="100"/>
          <note key="41" pan="0" pos="1128" len="24" vol="136"/>
          <note key="40" pan="0" pos="1152" len="24" vol="100"/>
          <note key="40" pan="0" pos="1188" len="24" vol="100"/>
          <note key="40" pan="0" pos="1224" len="24" vol="100"/>
          <note key="40" pan="0" pos="1260" len="24" vol="100"/>
          <note key="40" pan="0" pos="1296" len="12" vol="100"/>
          <note key="41" pan="0" pos="1320" len="24" vol="138"/>
          <note key="40" pan="0" pos="1344" len="24" vol="100"/>
          <note key="40" pan="0" pos="1380" len="24" vol="100"/>
          <note key="40" pan="0" pos="1416" len="24" vol="100"/>
          <note key="40" pan="0" pos="1452" len="24" vol="100"/>
          <note key="40" pan="0" pos="1488" len="12" vol="100"/>
          <note key="41" pan="0" pos="1512" len="24" vol="136"/>
        </pattern>
      </track>
      <track name="Organic" muted="0" type="0" solo="0">
        <instrumenttrack pitchrange="1" pan="66" fxch="0" basenote="57" pitch="0" vol="80" usemasterpitch="1">
          <instrument name="organic">
            <organic newharmonic4="4" wavetype4="0" newharmonic0="0" pan2="0" wavetype5="1" newharmonic1="1" pan1="0" newdetune4="1" pan3="0" vol3="88" pan0="0" foldback="0" newharmonic3="3" newharmonic2="2" pan5="0" vol4="52" pan6="0" vol6="93" pan7="0" newharmonic6="6" pan4="0" newharmonic5="5" newdetune7="-1" vol1="43" newdetune3="-4" newdetune5="-4" newdetune6="-5" wavetype0="3" num_osc="8" wavetype7="3" wavetype2="1" wavetype1="3" newharmonic7="7" newdetune0="-4" wavetype6="4" vol7="59" vol="100" newdetune2="4" wavetype3="0" vol2="42" vol0="40" newdetune1="-2" vol5="24"/>
          </instrument>
          <eldata fcut="14000" ftype="0" fwet="0" fres="0.5">
            <elvol dec="0.5" ctlenvamt="0" latt="0" sustain="0.5" amt="1" lamt="0" pdel="0" rel="0.1" lshp="0" lpdel="0" hold="0.13600001" lspd_numerator="4" lspd_denominator="4" att="0.016000001" x100="0" lspd="0.1" lspd_syncmode="0" userwavefile=""/>
            <elcut dec="0.5" ctlenvamt="0" latt="0" sustain="0.5" amt="0" lamt="0" pdel="0" rel="0.1" lshp="0" lpdel="0" hold="0.5" lspd_numerator="4" lspd_denominator="4" att="0" x100="0" lspd="0.1" lspd_syncmode="0" userwavefile=""/>
            <elres dec="0.5" ctlenvamt="0" latt="0" sustain="0.5" amt="0" lamt="0" pdel="0" rel="0.1" lshp="0" lpdel="0" hold="0.5" lspd_numerator="4" lspd_denominator="4" att="0" x100="0" lspd="0.1" lspd_syncmode="0" userwavefile=""/>
          </eldata>
          <chordcreator chordrange="1" chord-enabled="0" chord="0"/>
          <arpeggiator arptime="200" arptime_syncmode="0" arpmode="0" arptime_numerator="4" arptime_denominator="4" arpdir="0" arpgate="100" arprange="1" arp-enabled="0" arpmiss="0" arp="0" arpcycle="0" arpskip="0"/>
          <midiport inputcontroller="0" fixedoutputnote="-1" writable="0" basevelocity="63" outputprogram="1" outputcontroller="0" fixedinputvelocity="-1" outputchannel="1" fixedoutputvelocity="-1" readable="0" inputchannel="0"/>
          <fxchain numofeffects="0" enabled="0"/>
        </instrumenttrack>
        <pattern name="Organic" pos="768" muted="0" type="1" steps="16">
          <note key="40" pan="0" pos="0" len="24" vol="100"/>
          <note key="40" pan="0" pos="36" len="24" vol="100"/>
          <note key="40" pan="0" pos="72" len="24" vol="100"/>
          <note key="40" pan="0" pos="108" len="24" vol="100"/>
          <note key="40" pan="0" pos="144" len="12" vol="100"/>
          <note key="41" pan="0" pos="168" len="24" vol="136"/>
          <note key="40" pan="0" pos="192" len="24" vol="100"/>
          <note key="40" pan="0" pos="228" len="24" vol="100"/>
          <note key="40" pan="0" pos="264" len="24" vol="100"/>
          <note key="40" pan="0" pos="300" len="24" vol="100"/>
          <note key="40" pan="0" pos="336" len="12" vol="100"/>
          <note key="41" pan="0" pos="360" len="24" vol="136"/>
          <note key="40" pan="0" pos="384" len="24" vol="100"/>
          <note key="40" pan="0" pos="420" len="24" vol="100"/>
          <note key="40" pan="0" pos="456" len="24" vol="100"/>
          <note key="40" pan="0" pos="492" len="24" vol="100"/>
          <note key="40" pan="0" pos="528" len="12" vol="100"/>
          <note key="41" pan="0" pos="552" len="24" vol="138"/>
          <note key="40" pan="0" pos="576" len="24" vol="100"/>
          <note key="40" pan="0" pos="612" len="24" vol="100"/>
          <note key="40" pan="0" pos="648" len="24" vol="100"/>
          <note key="40" pan="0" pos="684" len="24" vol="100"/>
          <note key="40" pan="0" pos="720" len="12" vol="100"/>
          <note key="41" pan="0" pos="744" len="24" vol="136"/>
        </pattern>
        <pattern name="" pos="1536" muted="0" type="1" steps="16">
          <note key="40" pan="0" pos="0" len="24" vol="100"/>
          <note key="40" pan="0" pos="36" len="24" vol="100"/>
          <note key="40" pan="0" pos="72" len="24" vol="100"/>
          <note key="40" pan="0" pos="108" len="24" vol="100"/>
          <note key="40" pan="0" pos="144" len="12" vol="100"/>
          <note key="41" pan="0" pos="168" len="24" vol="136"/>
          <note key="40" pan="0" pos="192" len="24" vol="100"/>
          <note key="40" pan="0" pos="228" len="24" vol="100"/>
          <note key="40" pan="0" pos="264" len="24" vol="100"/>
          <note key="40" pan="0" pos="300" len="24" vol="100"/>
          <note key="40" pan="0" pos="336" len="12" vol="100"/>
          <note key="41" pan="0" pos="360" len="24" vol="136"/>
          <note key="40" pan="0" pos="384" len="24" vol="100"/>
          <note key="40" pan="0" pos="420" len="24" vol="100"/>
          <note key="40" pan="0" pos="456" len="24" vol="100"/>
          <note key="40" pan="0" pos="492" len="24" vol="100"/>
          <note key="40" pan="0" pos="528" len="12" vol="100"/>
          <note key="41" pan="0" pos="552" len="24" vol="138"/>
          <note key="40" pan="0" pos="576" len="24" vol="100"/>
          <note key="40" pan="0" pos="612" len="24" vol="100"/>
          <note key="40" pan="0" pos="648" len="24" vol="100"/>
          <note key="40" pan="0" pos="684" len="24" vol="100"/>
          <note key="40" pan="0" pos="720" len="12" vol="100"/>
          <note key="41" pan="0" pos="744" len="24" vol="136"/>
          <note key="40" pan="0" pos="768" len="24" vol="100"/>
          <note key="40" pan="0" pos="804" len="24" vol="100"/>
          <note key="40" pan="0" pos="840" len="24" vol="100"/>
          <note key="40" pan="0" pos="876" len="24" vol="100"/>
          <note key="40" pan="0" pos="912" len="12" vol="100"/>
          <note key="41" pan="0" pos="936" len="24" vol="136"/>
          <note key="40" pan="0" pos="960" len="24" vol="100"/>
          <note key="40" pan="0" pos="996" len="24" vol="100"/>
          <note key="40" pan="0" pos="1032" len="24" vol="100"/>
          <note key="40" pan="0" pos="1068" len="24" vol="100"/>
          <note key="40" pan="0" pos="1104" len="12" vol="100"/>
          <note key="41" pan="0" pos="1128" len="24" vol="136"/>
          <note key="40" pan="0" pos="1152" len="24" vol="100"/>
          <note key="40" pan="0" pos="1188" len="24" vol="100"/>
          <note key="40" pan="0" pos="1224" len="24" vol="100"/>
          <note key="40" pan="0" pos="1260" len="24" vol="100"/>
          <note key="40" pan="0" pos="1296" len="12" vol="100"/>
          <note key="41" pan="0" pos="1320" len="24" vol="138"/>
          <note key="40" pan="0" pos="1344" len="24" vol="100"/>
          <note key="40" pan="0" pos="1380" len="24" vol="100"/>
          <note key="40" pan="0" pos="1416" len="24" vol="100"/>
          <note key="40" pan="0" pos="1452" len="24" vol="100"/>
          <note key="40" pan="0" pos="1488" len="12" vol="100"/>
          <note key="41" pan="0" pos="1512" len="24" vol="136"/>
        </pattern>
        <pattern name="" pos="3072" muted="0" type="1" steps="16">
          <note key="40" pan="0" pos="0" len="24" vol="100"/>
          <note key="40" pan="0" pos="36" len="24" vol="100"/>
          <note key="40" pan="0" pos="72" len="24" vol="100"/>
          <note key="40" pan="0" pos="108" len="24" vol="100"/>
          <note key="40" pan="0" pos="144" len="12" vol="100"/>
          <note key="41" pan="0" pos="168" len="24" vol="136"/>
          <note key="40" pan="0" pos="192" len="24" vol="100"/>
          <note key="40" pan="0" pos="228" len="24" vol="100"/>
          <note key="40" pan="0" pos="264" len="24" vol="100"/>
          <note key="40" pan="0" pos="300" len="24" vol="100"/>
          <note key="40" pan="0" pos="336" len="12" vol="100"/>
          <note key="41" pan="0" pos="360" len="24" vol="136"/>
          <note key="40" pan="0" pos="384" len="24" vol="100"/>
          <note key="40" pan="0" pos="420" len="24" vol="100"/>
          <note key="40" pan="0" pos="456" len="24" vol="100"/>
          <note key="40" pan="0" pos="492" len="24" vol="100"/>
          <note key="40" pan="0" pos="528" len="12" vol="100"/>
          <note key="41" pan="0" pos="552" len="24" vol="138"/>
          <note key="40" pan="0" pos="576" len="24" vol="100"/>
          <note key="40" pan="0" pos="612" len="24" vol="100"/>
          <note key="40" pan="0" pos="648" len="24" vol="100"/>
          <note key="40" pan="0" pos="684" len="24" vol="100"/>
          <note key="40" pan="0" pos="720" len="12" vol="100"/>
          <note key="41" pan="0" pos="744" len="24" vol="136"/>
          <note key="40" pan="0" pos="768" len="24" vol="100"/>
          <note key="40" pan="0" pos="804" len="24" vol="100"/>
          <note key="40" pan="0" pos="840" len="24" vol="100"/>
          <note key="40" pan="0" pos="876" len="24" vol="100"/>
          <note key="40" pan="0" pos="912" len="12" vol="100"/>
          <note key="41" pan="0" pos="936" len="24" vol="136"/>
          <note key="40" pan="0" pos="960" len="24" vol="100"/>
          <note key="40" pan="0" pos="996" len="24" vol="100"/>
          <note key="40" pan="0" pos="1032" len="24" vol="100"/>
          <note key="40" pan="0" pos="1068" len="24" vol="100"/>
          <note key="40" pan="0" pos="1104" len="12" vol="100"/>
          <note key="41" pan="0" pos="1128" len="24" vol="136"/>
          <note key="40" pan="0" pos="1152" len="24" vol="100"/>
          <note key="40" pan="0" pos="1188" len="24" vol="100"/>
          <note key="40" pan="0" pos="1224" len="24" vol="100"/>
          <note key="40" pan="0" pos="1260" len="24" vol="100"/>
          <note key="40" pan="0" pos="1296" len="12" vol="100"/>
          <note key="41" pan="0" pos="1320" len="24" vol="138"/>
          <note key="40" pan="0" pos="1344" len="24" vol="100"/>
          <note key="40" pan="0" pos="1380" len="24" vol="100"/>
          <note key="40" pan="0" pos="1416" len="24" vol="100"/>
          <note key="40" pan="0" pos="1452" len="24" vol="100"/>
          <note key="40" pan="0" pos="1488" len="12" vol="100"/>
          <note key="41" pan="0" pos="1512" len="24" vol="136"/>
        </pattern>
        <pattern name="" pos="4608" muted="0" type="1" steps="16">
          <note key="40" pan="0" pos="0" len="24" vol="100"/>
          <note key="40" pan="0" pos="36" len="24" vol="100"/>
          <note key="40" pan="0" pos="72" len="24" vol="100"/>
          <note key="40" pan="0" pos="108" len="24" vol="100"/>
          <note key="40" pan="0" pos="144" len="12" vol="100"/>
          <note key="41" pan="0" pos="168" len="24" vol="136"/>
          <note key="40" pan="0" pos="192" len="24" vol="100"/>
          <note key="40" pan="0" pos="228" len="24" vol="100"/>
          <note key="40" pan="0" pos="264" len="24" vol="100"/>
          <note key="40" pan="0" pos="300" len="24" vol="100"/>
          <note key="40" pan="0" pos="336" len="12" vol="100"/>
          <note key="41" pan="0" pos="360" len="24" vol="136"/>
          <note key="40" pan="0" pos="384" len="24" vol="100"/>
          <note key="40" pan="0" pos="420" len="24" vol="100"/>
          <note key="40" pan="0" pos="456" len="24" vol="100"/>
          <note key="40" pan="0" pos="492" len="24" vol="100"/>
          <note key="40" pan="0" pos="528" len="12" vol="100"/>
          <note key="41" pan="0" pos="552" len="24" vol="138"/>
          <note key="40" pan="0" pos="576" len="24" vol="100"/>
          <note key="40" pan="0" pos="612" len="24" vol="100"/>
          <note key="40" pan="0" pos="648" len="24" vol="100"/>
          <note key="40" pan="0" pos="684" len="24" vol="100"/>
          <note key="40" pan="0" pos="720" len="12" vol="100"/>
          <note key="41" pan="0" pos="744" len="24" vol="136"/>
          <note key="40" pan="0" pos="768" len="24" vol="100"/>
          <note key="40" pan="0" pos="804" len="24" vol="100"/>
          <note key="40" pan="0" pos="840" len="24" vol="100"/>
          <note key="40" pan="0" pos="876" len="24" vol="100"/>
          <note key="40" pan="0" pos="912" len="12" vol="100"/>
          <note key="41" pan="0" pos="936" len="24" vol="136"/>
          <note key="40" pan="0" pos="960" len="24" vol="100"/>
          <note key="40" pan="0" pos="996" len="24" vol="100"/>
          <note key="40" pan="0" pos="1032" len="24" vol="100"/>
          <note key="40" pan="0" pos="1068" len="24" vol="100"/>
          <note key="40" pan="0" pos="1104" len="12" vol="100"/>
          <note key="41" pan="0" pos="1128" len="24" vol="136"/>
          <note key="40" pan="0" pos="1152" len="24" vol="100"/>
          <note key="40" pan="0" pos="1188" len="24" vol="100"/>
          <note key="40" pan="0" pos="1224" len="24" vol="100"/>
          <note key="40" pan="0" pos="1260" len="24" vol="100"/>
          <note key="40" pan="0" pos="1296" len="12" vol="100"/>
          <note key="41" pan="0" pos="1320" len="24" vol="138"/>
          <note key="40" pan="0" pos="1344" len="24" vol="100"/>
          <note key="40" pan="0" pos="1380" len="24" vol="100"/>
          <note key="40" pan="0" pos="1416" len="24" vol="100"/>
          <note key="40" pan="0" pos="1452" len="24" vol="100"/>
          <note key="40" pan="0" pos="1488" len="12" vol="100"/>
          <note key="41" pan="0" pos="1512" len="24" vol="136"/>
        </pattern>
        <pattern name="" pos="6144" muted="0" type="1" steps="16">
          <note key="40" pan="0" pos="0" len="24" vol="100"/>
          <note key="40" pan="0" pos="36" len="24" vol="100"/>
          <note key="40" pan="0" pos="72" len="24" vol="100"/>
          <note key="40" pan="0" pos="108" len="24" vol="100"/>
          <note key="40" pan="0" pos="144" len="12" vol="100"/>
          <note key="41" pan="0" pos="168" len="24" vol="136"/>
          <note key="40" pan="0" pos="192" len="24" vol="100"/>
          <note key="40" pan="0" pos="228" len="24" vol="100"/>
          <note key="40" pan="0" pos="264" len="24" vol="100"/>
          <note key="40" pan="0" pos="300" len="24" vol="100"/>
          <note key="40" pan="0" pos="336" len="12" vol="100"/>
          <note key="41" pan="0" pos="360" len="24" vol="136"/>
          <note key="40" pan="0" pos="384" len="24" vol="100"/>
          <note key="40" pan="0" pos="420" len="24" vol="100"/>
          <note key="40" pan="0" pos="456" len="24" vol="100"/>
          <note key="40" pan="0" pos="492" len="24" vol="100"/>
          <note key="40" pan="0" pos="528" len="12" vol="100"/>
          <note key="41" pan="0" pos="552" len="24" vol="138"/>
          <note key="40" pan="0" pos="576" len="24" vol="100"/>
          <note key="40" pan="0" pos="612" len="24" vol="100"/>
          <note key="40" pan="0" pos="648" len="24" vol="100"/>
          <note key="40" pan="0" pos="684" len="24" vol="100"/>
          <note key="40" pan="0" pos="720" len="12" vol="100"/>
          <note key="41" pan="0" pos="744" len="24" vol="136"/>
          <note key="40" pan="0" pos="768" len="24" vol="100"/>
          <note key="40" pan="0" pos="804" len="24" vol="100"/>
          <note key="40" pan="0" pos="840" len="24" vol="100"/>
          <note key="40" pan="0" pos="876" len="24" vol="100"/>
          <note key="40" pan="0" pos="912" len="12" vol="100"/>
          <note key="41" pan="0" pos="936" len="24" vol="136"/>
          <note key="40" pan="0" pos="960" len="24" vol="100"/>
          <note key="40" pan="0" pos="996" len="24" vol="100"/>
          <note key="40" pan="0" pos="1032" len="24" vol="100"/>
          <note key="40" pan="0" pos="1068" len="24" vol="100"/>
          <note key="40" pan="0" pos="1104" len="12" vol="100"/>
          <note key="41" pan="0" pos="1128" len="24" vol="136"/>
          <note key="40" pan="0" pos="1152" len="24" vol="100"/>
          <note key="40" pan="0" pos="1188" len="24" vol="100"/>
          <note key="40" pan="0" pos="1224" len="24" vol="100"/>
          <note key="40" pan="0" pos="1260" len="24" vol="100"/>
          <note key="40" pan="0" pos="1296" len="12" vol="100"/>
          <note key="41" pan="0" pos="1320" len="24" vol="138"/>
          <note key="40" pan="0" pos="1344" len="24" vol="100"/>
          <note key="40" pan="0" pos="1380" len="24" vol="100"/>
          <note key="40" pan="0" pos="1416" len="24" vol="100"/>
          <note key="40" pan="0" pos="1452" len="24" vol="100"/>
          <note key="41" pan="0" pos="1488" len="12" vol="100"/>
          <note key="41" pan="0" pos="1512" len="24" vol="136"/>
        </pattern>
        <pattern name="" pos="9216" muted="0" type="1" steps="16">
          <note key="28" pan="0" pos="0" len="768" vol="100"/>
          <note key="24" pan="0" pos="768" len="768" vol="100"/>
        </pattern>
        <pattern name="" pos="10752" muted="0" type="1" steps="16">
          <note key="28" pan="0" pos="0" len="768" vol="100"/>
          <note key="24" pan="0" pos="768" len="768" vol="100"/>
        </pattern>
        <pattern name="" pos="12288" muted="0" type="1" steps="16">
          <note key="28" pan="0" pos="0" len="768" vol="100"/>
          <note key="24" pan="0" pos="768" len="768" vol="100"/>
        </pattern>
        <pattern name="" pos="13824" muted="0" type="1" steps="16">
          <note key="40" pan="0" pos="0" len="24" vol="100"/>
          <note key="40" pan="0" pos="36" len="24" vol="100"/>
          <note key="40" pan="0" pos="72" len="24" vol="100"/>
          <note key="40" pan="0" pos="108" len="24" vol="100"/>
          <note key="40" pan="0" pos="144" len="12" vol="100"/>
          <note key="41" pan="0" pos="168" len="24" vol="136"/>
          <note key="40" pan="0" pos="192" len="24" vol="100"/>
          <note key="40" pan="0" pos="228" len="24" vol="100"/>
          <note key="40" pan="0" pos="264" len="24" vol="100"/>
          <note key="40" pan="0" pos="300" len="24" vol="100"/>
          <note key="40" pan="0" pos="336" len="12" vol="100"/>
          <note key="41" pan="0" pos="360" len="24" vol="136"/>
          <note key="40" pan="0" pos="384" len="24" vol="100"/>
          <note key="40" pan="0" pos="420" len="24" vol="100"/>
          <note key="40" pan="0" pos="456" len="24" vol="100"/>
          <note key="40" pan="0" pos="492" len="24" vol="100"/>
          <note key="40" pan="0" pos="528" len="12" vol="100"/>
          <note key="41" pan="0" pos="552" len="24" vol="138"/>
          <note key="40" pan="0" pos="576" len="24" vol="100"/>
          <note key="40" pan="0" pos="612" len="24" vol="100"/>
          <note key="40" pan="0" pos="648" len="24" vol="100"/>
          <note key="40" pan="0" pos="684" len="24" vol="100"/>
          <note key="40" pan="0" pos="720" len="12" vol="100"/>
          <note key="41" pan="0" pos="744" len="24" vol="136"/>
          <note key="40" pan="0" pos="768" len="24" vol="100"/>
          <note key="40" pan="0" pos="804" len="24" vol="100"/>
          <note key="40" pan="0" pos="840" len="24" vol="100"/>
          <note key="40" pan="0" pos="876" len="24" vol="100"/>
          <note key="40" pan="0" pos="912" len="12" vol="100"/>
          <note key="41" pan="0" pos="936" len="24" vol="136"/>
          <note key="40" pan="0" pos="960" len="24" vol="100"/>
          <note key="40" pan="0" pos="996" len="24" vol="100"/>
          <note key="40" pan="0" pos="1032" len="24" vol="100"/>
          <note key="40" pan="0" pos="1068" len="24" vol="100"/>
          <note key="40" pan="0" pos="1104" len="12" vol="100"/>
          <note key="41" pan="0" pos="1128" len="24" vol="136"/>
          <note key="40" pan="0" pos="1152" len="24" vol="100"/>
          <note key="40" pan="0" pos="1188" len="24" vol="100"/>
          <note key="40" pan="0" pos="1224" len="24" vol="100"/>
          <note key="40" pan="0" pos="1260" len="24" vol="100"/>
          <note key="40" pan="0" pos="1296" len="12" vol="100"/>
          <note key="41" pan="0" pos="1320" len="24" vol="138"/>
          <note key="40" pan="0" pos="1344" len="24" vol="100"/>
          <note key="40" pan="0" pos="1380" len="24" vol="100"/>
          <note key="40" pan="0" pos="1416" len="24" vol="100"/>
          <note key="40" pan="0" pos="1452" len="24" vol="100"/>
          <note key="40" pan="0" pos="1488" len="12" vol="100"/>
          <note key="41" pan="0" pos="1512" len="24" vol="136"/>
        </pattern>
        <pattern name="" pos="15360" muted="0" type="1" steps="16">
          <note key="40" pan="0" pos="0" len="24" vol="100"/>
          <note key="40" pan="0" pos="36" len="24" vol="100"/>
          <note key="40" pan="0" pos="72" len="24" vol="100"/>
          <note key="40" pan="0" pos="108" len="24" vol="100"/>
          <note key="40" pan="0" pos="144" len="12" vol="100"/>
          <note key="41" pan="0" pos="168" len="24" vol="136"/>
          <note key="40" pan="0" pos="192" len="24" vol="100"/>
          <note key="40" pan="0" pos="228" len="24" vol="100"/>
          <note key="40" pan="0" pos="264" len="24" vol="100"/>
          <note key="40" pan="0" pos="300" len="24" vol="100"/>
          <note key="40" pan="0" pos="336" len="12" vol="100"/>
          <note key="41" pan="0" pos="360" len="24" vol="136"/>
          <note key="40" pan="0" pos="384" len="24" vol="100"/>
          <note key="40" pan="0" pos="420" len="24" vol="100"/>
          <note key="40" pan="0" pos="456" len="24" vol="100"/>
          <note key="40" pan="0" pos="492" len="24" vol="100"/>
          <note key="40" pan="0" pos="528" len="12" vol="100"/>
          <note key="41" pan="0" pos="552" len="24" vol="138"/>
          <note key="40" pan="0" pos="576" len="24" vol="100"/>
          <note key="40" pan="0" pos="612" len="24" vol="100"/>
          <note key="40" pan="0" pos="648" len="24" vol="100"/>
          <note key="40" pan="0" pos="684" len="24" vol="100"/>
          <note key="40" pan="0" pos="720" len="12" vol="100"/>
          <note key="41" pan="0" pos="744" len="24" vol="136"/>
          <note key="40" pan="0" pos="768" len="24" vol="100"/>
          <note key="40" pan="0" pos="804" len="24" vol="100"/>
          <note key="40" pan="0" pos="840" len="24" vol="100"/>
          <note key="40" pan="0" pos="876" len="24" vol="100"/>
          <note key="40" pan="0" pos="912" len="12" vol="100"/>
          <note key="41" pan="0" pos="936" len="24" vol="136"/>
          <note key="40" pan="0" pos="960" len="24" vol="100"/>
          <note key="40" pan="0" pos="996" len="24" vol="100"/>
          <note key="40" pan="0" pos="1032" len="24" vol="100"/>
          <note key="40" pan="0" pos="1068" len="24" vol="100"/>
          <note key="40" pan="0" pos="1104" len="12" vol="100"/>
          <note key="41" pan="0" pos="1128" len="24" vol="136"/>
          <note key="40" pan="0" pos="1152" len="24" vol="100"/>
          <note key="40" pan="0" pos="1188" len="24" vol="100"/>
          <note key="40" pan="0" pos="1224" len="24" vol="100"/>
          <note key="40" pan="0" pos="1260" len="24" vol="100"/>
          <note key="40" pan="0" pos="1296" len="12" vol="100"/>
          <note key="41" pan="0" pos="1320" len="24" vol="138"/>
          <note key="40" pan="0" pos="1344" len="24" vol="100"/>
          <note key="40" pan="0" pos="1380" len="24" vol="100"/>
          <note key="40" pan="0" pos="1416" len="24" vol="100"/>
          <note key="40" pan="0" pos="1452" len="24" vol="100"/>
          <note key="40" pan="0" pos="1488" len="12" vol="100"/>
          <note key="41" pan="0" pos="1512" len="24" vol="136"/>
        </pattern>
        <pattern name="" pos="16896" muted="0" type="1" steps="16">
          <note key="40" pan="0" pos="0" len="24" vol="100"/>
          <note key="40" pan="0" pos="36" len="24" vol="100"/>
          <note key="40" pan="0" pos="72" len="24" vol="100"/>
          <note key="40" pan="0" pos="108" len="24" vol="100"/>
          <note key="40" pan="0" pos="144" len="12" vol="100"/>
          <note key="41" pan="0" pos="168" len="24" vol="136"/>
          <note key="40" pan="0" pos="192" len="24" vol="100"/>
          <note key="40" pan="0" pos="228" len="24" vol="100"/>
          <note key="40" pan="0" pos="264" len="24" vol="100"/>
          <note key="40" pan="0" pos="300" len="24" vol="100"/>
          <note key="40" pan="0" pos="336" len="12" vol="100"/>
          <note key="41" pan="0" pos="360" len="24" vol="136"/>
          <note key="40" pan="0" pos="384" len="24" vol="100"/>
          <note key="40" pan="0" pos="420" len="24" vol="100"/>
          <note key="40" pan="0" pos="456" len="24" vol="100"/>
          <note key="40" pan="0" pos="492" len="24" vol="100"/>
          <note key="40" pan="0" pos="528" len="12" vol="100"/>
          <note key="41" pan="0" pos="552" len="24" vol="138"/>
          <note key="40" pan="0" pos="576" len="24" vol="100"/>
          <note key="40" pan="0" pos="612" len="24" vol="100"/>
          <note key="40" pan="0" pos="648" len="24" vol="100"/>
          <note key="40" pan="0" pos="684" len="24" vol="100"/>
          <note key="40" pan="0" pos="720" len="12" vol="100"/>
          <note key="41" pan="0" pos="744" len="24" vol="136"/>
          <note key="40" pan="0" pos="768" len="24" vol="100"/>
          <note key="40" pan="0" pos="804" len="24" vol="100"/>
          <note key="40" pan="0" pos="840" len="24" vol="100"/>
          <note key="40" pan="0" pos="876" len="24" vol="100"/>
          <note key="40" pan="0" pos="912" len="12" vol="100"/>
          <note key="41" pan="0" pos="936" len="24" vol="136"/>
          <note key="40" pan="0" pos="960" len="24" vol="100"/>
          <note key="40" pan="0" pos="996" len="24" vol="100"/>
          <note key="40" pan="0" pos="1032" len="24" vol="100"/>
          <note key="40" pan="0" pos="1068" len="24" vol="100"/>
          <note key="40" pan="0" pos="1104" len="12" vol="100"/>
          <note key="41" pan="0" pos="1128" len="24" vol="136"/>
          <note key="40" pan="0" pos="1152" len="24" vol="100"/>
          <note key="40" pan="0" pos="1188" len="24" vol="100"/>
          <note key="40" pan="0" pos="1224" len="24" vol="100"/>
          <note key="40" pan="0" pos="1260" len="24" vol="100"/>
          <note key="40" pan="0" pos="1296" len="12" vol="100"/>
          <note key="41" pan="0" pos="1320" len="24" vol="138"/>
          <note key="40" pan="0" pos="1344" len="24" vol="100"/>
          <note key="40" pan="0" pos="1380" len="24" vol="100"/>
          <note key="40" pan="0" pos="1416" len="24" vol="100"/>
          <note key="40" pan="0" pos="1452" len="24" vol="100"/>
          <note key="40" pan="0" pos="1488" len="12" vol="100"/>
          <note key="41" pan="0" pos="1512" len="24" vol="136"/>
        </pattern>
        <pattern name="" pos="18432" muted="0" type="1" steps="16">
          <note key="40" pan="0" pos="0" len="24" vol="100"/>
          <note key="40" pan="0" pos="36" len="24" vol="100"/>
          <note key="40" pan="0" pos="72" len="24" vol="100"/>
          <note key="40" pan="0" pos="108" len="24" vol="100"/>
          <note key="40" pan="0" pos="144" len="12" vol="100"/>
          <note key="41" pan="0" pos="168" len="24" vol="136"/>
          <note key="40" pan="0" pos="192" len="24" vol="100"/>
          <note key="40" pan="0" pos="228" len="24" vol="100"/>
          <note key="40" pan="0" pos="264" len="24" vol="100"/>
          <note key="40" pan="0" pos="300" len="24" vol="100"/>
          <note key="40" pan="0" pos="336" len="12" vol="100"/>
          <note key="41" pan="0" pos="360" len="24" vol="136"/>
          <note key="40" pan="0" pos="384" len="24" vol="100"/>
          <note key="40" pan="0" pos="420" len="24" vol="100"/>
          <note key="40" pan="0" pos="456" len="24" vol="100"/>
          <note key="40" pan="0" pos="492" len="24" vol="100"/>
          <note key="40" pan="0" pos="528" len="12" vol="100"/>
          <note key="41" pan="0" pos="552" len="24" vol="138"/>
          <note key="40" pan="0" pos="576" len="24" vol="100"/>
          <note key="40" pan="0" pos="612" len="24" vol="100"/>
          <note key="40" pan="0" pos="648" len="24" vol="100"/>
          <note key="40" pan="0" pos="684" len="24" vol="100"/>
          <note key="40" pan="0" pos="720" len="12" vol="100"/>
          <note key="41" pan="0" pos="744" len="24" vol="136"/>
          <note key="40" pan="0" pos="768" len="24" vol="100"/>
          <note key="40" pan="0" pos="804" len="24" vol="100"/>
          <note key="40" pan="0" pos="840" len="24" vol="100"/>
          <note key="40" pan="0" pos="876" len="24" vol="100"/>
          <note key="40" pan="0" pos="912" len="12" vol="100"/>
          <note key="41" pan="0" pos="936" len="24" vol="136"/>
          <note key="40" pan="0" pos="960" len="24" vol="100"/>
          <note key="40" pan="0" pos="996" len="24" vol="100"/>
          <note key="40" pan="0" pos="1032" len="24" vol="100"/>
          <note key="40" pan="0" pos="1068" len="24" vol="100"/>
          <note key="40" pan="0" pos="1104" len="12" vol="100"/>
          <note key="41" pan="0" pos="1128" len="24" vol="136"/>
          <note key="40" pan="0" pos="1152" len="24" vol="100"/>
          <note key="40" pan="0" pos="1188" len="24" vol="100"/>
          <note key="40" pan="0" pos="1224" len="24" vol="100"/>
          <note key="40" pan="0" pos="1260" len="24" vol="100"/>
          <note key="40" pan="0" pos="1296" len="12" vol="100"/>
          <note key="41" pan="0" pos="1320" len="24" vol="138"/>
          <note key="40" pan="0" pos="1344" len="24" vol="100"/>
          <note key="40" pan="0" pos="1380" len="24" vol="100"/>
          <note key="40" pan="0" pos="1416" len="24" vol="100"/>
          <note key="40" pan="0" pos="1452" len="24" vol="100"/>
          <note key="40" pan="0" pos="1488" len="12" vol="100"/>
          <note key="41" pan="0" pos="1512" len="24" vol="136"/>
        </pattern>
        <pattern name="" pos="19968" muted="0" type="1" steps="16">
          <note key="40" pan="0" pos="0" len="192" vol="100"/>
        </pattern>
      </track>
      <track name="gzdoom" muted="0" type="0" solo="0">
        <instrumenttrack pitchrange="1" pan="0" fxch="0" basenote="57" pitch="0" vol="166.8" usemasterpitch="1">
          <instrument name="sf2player">
            <sf2player reverbWidth="0.5" chorusOn="0" gain="1" chorusDepth="8" bank="0" reverbLevel="0.89999998" reverbRoomSize="0.2" patch="55" chorusSpeed="0.30000001" reverbOn="0" chorusNum="0.89999998" reverbDamping="0.2" chorusLevel="2" src="soundfonts/gzdoom.sf2"/>
          </instrument>
          <eldata fcut="14000" ftype="0" fwet="0" fres="0.5">
            <elvol dec="0.5" ctlenvamt="0" latt="0" sustain="0.5" amt="0" lamt="0" pdel="0" rel="0.1" lshp="0" lpdel="0" hold="0.5" lspd_numerator="4" lspd_denominator="4" att="0" x100="0" lspd="0.1" lspd_syncmode="0" userwavefile=""/>
            <elcut dec="0.5" ctlenvamt="0" latt="0" sustain="0.5" amt="0" lamt="0" pdel="0" rel="0.1" lshp="0" lpdel="0" hold="0.5" lspd_numerator="4" lspd_denominator="4" att="0" x100="0" lspd="0.1" lspd_syncmode="0" userwavefile=""/>
            <elres dec="0.5" ctlenvamt="0" latt="0" sustain="0.5" amt="0" lamt="0" pdel="0" rel="0.1" lshp="0" lpdel="0" hold="0.5" lspd_numerator="4" lspd_denominator="4" att="0" x100="0" lspd="0.1" lspd_syncmode="0" userwavefile=""/>
          </eldata>
          <chordcreator chordrange="1" chord-enabled="0" chord="0"/>
          <arpeggiator arptime="200" arptime_syncmode="0" arpmode="0" arptime_numerator="4" arptime_denominator="4" arpdir="0" arpgate="100" arprange="1" arp-enabled="0" arpmiss="0" arp="0" arpcycle="0" arpskip="0"/>
          <midiport inputcontroller="0" fixedoutputnote="-1" writable="0" basevelocity="63" outputprogram="1" outputcontroller="0" fixedinputvelocity="-1" outputchannel="1" fixedoutputvelocity="-1" readable="0" inputchannel="0"/>
          <fxchain numofeffects="2" enabled="1">
            <effect gate="0" on="1" autoquit_syncmode="0" autoquit="1" name="stereomatrix" autoquit_numerator="4" wet="1" autoquit_denominator="4">
              <stereomatrixcontrols l-r="0" r-l="0" r-r="1" l-l="1"/>
              <key/>
            </effect>
            <effect gate="0" on="1" autoquit_syncmode="0" autoquit="1" name="ladspaeffect" autoquit_numerator="4" wet="0.69999999" autoquit_denominator="4">
              <ladspacontrols ports="10">
                <port04 data="0.060000002"/>
                <port05>
                  <data value="223.6068" scale_type="log" id="5858449"/>
                </port05>
                <port06 data="2.75"/>
                <port07 data="2.75"/>
                <port08>
                  <data value="6000" scale_type="log" id="5002549"/>
                </port08>
                <port09>
                  <data value="159.05415" scale_type="log" id="2765241"/>
                </port09>
                <port010 data="0"/>
                <port011>
                  <data value="2514.8672" scale_type="log" id="5916111"/>
                </port011>
                <port012 data="0"/>
                <port013 data="0.5"/>
              </ladspacontrols>
              <key>
                <attribute value="zita-reverbs" name="file"/>
                <attribute value="zita-reverb" name="plugin"/>
              </key>
            </effect>
          </fxchain>
        </instrumenttrack>
        <pattern name="gzdoom" pos="6144" muted="0" type="1" steps="16">
          <note key="52" pan="-100" pos="0" len="12" vol="100"/>
          <note key="52" pan="-70" pos="12" len="12" vol="83"/>
          <note key="52" pan="91" pos="36" len="12" vol="100"/>
          <note key="52" pan="46" pos="48" len="12" vol="82"/>
          <note key="52" pan="-100" pos="72" len="12" vol="100"/>
          <note key="52" pan="-68" pos="84" len="12" vol="82"/>
          <note key="52" pan="97" pos="108" len="12" vol="100"/>
          <note key="52" pan="63" pos="120" len="12" vol="87"/>
          <note key="52" pan="-100" pos="144" len="12" vol="100"/>
          <note key="52" pan="-68" pos="156" len="12" vol="53"/>
          <note key="53" pan="0" pos="168" len="24" vol="136"/>
          <note key="52" pan="-100" pos="192" len="12" vol="100"/>
          <note key="52" pan="-70" pos="204" len="12" vol="83"/>
          <note key="52" pan="91" pos="228" len="12" vol="100"/>
          <note key="52" pan="46" pos="240" len="12" vol="82"/>
          <note key="52" pan="-100" pos="264" len="12" vol="100"/>
          <note key="52" pan="-68" pos="276" len="12" vol="82"/>
          <note key="52" pan="97" pos="300" len="12" vol="100"/>
          <note key="52" pan="63" pos="312" len="12" vol="87"/>
          <note key="52" pan="-100" pos="336" len="12" vol="100"/>
          <note key="52" pan="-68" pos="348" len="12" vol="53"/>
          <note key="53" pan="0" pos="360" len="24" vol="136"/>
          <note key="52" pan="-100" pos="384" len="12" vol="100"/>
          <note key="52" pan="-70" pos="396" len="12" vol="83"/>
          <note key="52" pan="91" pos="420" len="12" vol="100"/>
          <note key="52" pan="46" pos="432" len="12" vol="82"/>
          <note key="52" pan="-100" pos="456" len="12" vol="100"/>
          <note key="52" pan="-68" pos="468" len="12" vol="82"/>
          <note key="52" pan="97" pos="492" len="12" vol="100"/>
          <note key="52" pan="63" pos="504" len="12" vol="87"/>
          <note key="52" pan="-100" pos="528" len="12" vol="100"/>
          <note key="52" pan="-68" pos="540" len="12" vol="53"/>
          <note key="53" pan="0" pos="552" len="24" vol="136"/>
          <note key="52" pan="-100" pos="576" len="12" vol="100"/>
          <note key="52" pan="-70" pos="588" len="12" vol="83"/>
          <note key="52" pan="91" pos="612" len="12" vol="100"/>
          <note key="52" pan="46" pos="624" len="12" vol="82"/>
          <note key="52" pan="-100" pos="648" len="12" vol="100"/>
          <note key="52" pan="-68" pos="660" len="12" vol="82"/>
          <note key="52" pan="97" pos="684" len="12" vol="100"/>
          <note key="52" pan="63" pos="696" len="12" vol="87"/>
          <note key="52" pan="-100" pos="720" len="12" vol="100"/>
          <note key="52" pan="-68" pos="732" len="12" vol="53"/>
          <note key="51" pan="0" pos="744" len="24" vol="136"/>
          <note key="52" pan="-100" pos="768" len="12" vol="100"/>
          <note key="52" pan="-70" pos="780" len="12" vol="83"/>
          <note key="52" pan="91" pos="804" len="12" vol="100"/>
          <note key="52" pan="46" pos="816" len="12" vol="82"/>
          <note key="52" pan="-100" pos="840" len="12" vol="100"/>
          <note key="52" pan="-68" pos="852" len="12" vol="82"/>
          <note key="52" pan="97" pos="876" len="12" vol="100"/>
          <note key="52" pan="63" pos="888" len="12" vol="87"/>
          <note key="52" pan="-100" pos="912" len="12" vol="100"/>
          <note key="52" pan="-68" pos="924" len="12" vol="53"/>
          <note key="53" pan="0" pos="936" len="24" vol="136"/>
          <note key="52" pan="-100" pos="960" len="12" vol="100"/>
          <note key="52" pan="-70" pos="972" len="12" vol="83"/>
          <note key="52" pan="91" pos="996" len="12" vol="100"/>
          <note key="52" pan="46" pos="1008" len="12" vol="82"/>
          <note key="52" pan="-100" pos="1032" len="12" vol="100"/>
          <note key="52" pan="-68" pos="1044" len="12" vol="82"/>
          <note key="52" pan="97" pos="1068" len="12" vol="100"/>
          <note key="52" pan="63" pos="1080" len="12" vol="87"/>
          <note key="52" pan="-100" pos="1104" len="12" vol="100"/>
          <note key="52" pan="-68" pos="1116" len="12" vol="53"/>
          <note key="53" pan="0" pos="1128" len="24" vol="136"/>
          <note key="52" pan="-100" pos="1152" len="12" vol="100"/>
          <note key="52" pan="-70" pos="1164" len="12" vol="83"/>
          <note key="52" pan="91" pos="1188" len="12" vol="100"/>
          <note key="52" pan="46" pos="1200" len="12" vol="82"/>
          <note key="52" pan="-100" pos="1224" len="12" vol="100"/>
          <note key="52" pan="-68" pos="1236" len="12" vol="82"/>
          <note key="52" pan="97" pos="1260" len="12" vol="100"/>
          <note key="52" pan="63" pos="1272" len="12" vol="87"/>
          <note key="52" pan="-100" pos="1296" len="12" vol="100"/>
          <note key="52" pan="-68" pos="1308" len="12" vol="53"/>
          <note key="53" pan="0" pos="1320" len="24" vol="136"/>
          <note key="52" pan="-100" pos="1344" len="12" vol="100"/>
          <note key="52" pan="-70" pos="1356" len="12" vol="83"/>
          <note key="52" pan="91" pos="1380" len="12" vol="100"/>
          <note key="52" pan="46" pos="1392" len="12" vol="82"/>
          <note key="52" pan="-100" pos="1416" len="12" vol="100"/>
          <note key="52" pan="-68" pos="1428" len="12" vol="82"/>
          <note key="52" pan="97" pos="1452" len="12" vol="100"/>
          <note key="52" pan="63" pos="1464" len="12" vol="87"/>
          <note key="53" pan="-100" pos="1488" len="12" vol="100"/>
          <note key="53" pan="-68" pos="1500" len="12" vol="53"/>
          <note key="53" pan="0" pos="1512" len="12" vol="136"/>
          <note key="53" pan="0" pos="1524" len="12" vol="136"/>
        </pattern>
      </track>
      <track name="Gt. Harmonics" muted="0" type="0" solo="0">
        <instrumenttrack pitchrange="1" pan="0" fxch="0" basenote="57" pitch="0" vol="69.599998" usemasterpitch="1">
          <instrument name="sf2player">
            <sf2player reverbWidth="0.5" chorusOn="0" gain="1" chorusDepth="8" bank="0" reverbLevel="0.89999998" reverbRoomSize="0.2" patch="31" chorusSpeed="0.30000001" reverbOn="0" chorusNum="0.89999998" reverbDamping="0.2" chorusLevel="2" src="soundfonts/SGM-v2.01-HQ-v3.0.sf2"/>
          </instrument>
          <eldata fcut="14000" ftype="0" fwet="0" fres="0.5">
            <elvol dec="0.5" ctlenvamt="0" latt="0" sustain="0.5" amt="0" lamt="0" pdel="0" rel="0.1" lshp="0" lpdel="0" hold="0.5" lspd_numerator="4" lspd_denominator="4" att="0" x100="0" lspd="0.1" lspd_syncmode="0" userwavefile=""/>
            <elcut dec="0.5" ctlenvamt="0" latt="0" sustain="0.5" amt="0" lamt="0" pdel="0" rel="0.1" lshp="0" lpdel="0" hold="0.5" lspd_numerator="4" lspd_denominator="4" att="0" x100="0" lspd="0.1" lspd_syncmode="0" userwavefile=""/>
            <elres dec="0.5" ctlenvamt="0" latt="0" sustain="0.5" amt="0" lamt="0" pdel="0" rel="0.1" lshp="0" lpdel="0" hold="0.5" lspd_numerator="4" lspd_denominator="4" att="0" x100="0" lspd="0.1" lspd_syncmode="0" userwavefile=""/>
          </eldata>
          <chordcreator chordrange="1" chord-enabled="0" chord="0"/>
          <arpeggiator arptime="200" arptime_syncmode="0" arpmode="0" arptime_numerator="4" arptime_denominator="4" arpdir="0" arpgate="100" arprange="1" arp-enabled="0" arpmiss="0" arp="0" arpcycle="0" arpskip="0"/>
          <midiport inputcontroller="0" fixedoutputnote="-1" writable="0" basevelocity="63" outputprogram="1" outputcontroller="0" fixedinputvelocity="-1" outputchannel="1" fixedoutputvelocity="-1" readable="0" inputchannel="0"/>
          <fxchain numofeffects="0" enabled="0"/>
        </instrumenttrack>
        <pattern name="Sf2 Player" pos="10752" muted="0" type="1" steps="16">
          <note key="45" pan="0" pos="0" len="24" vol="100"/>
          <note key="44" pan="0" pos="24" len="24" vol="100"/>
          <note key="44" pan="0" pos="60" len="24" vol="100"/>
          <note key="44" pan="0" pos="96" len="24" vol="100"/>
          <note key="46" pan="0" pos="132" len="24" vol="100"/>
          <note key="47" pan="0" pos="168" len="24" vol="100"/>
          <note key="44" pan="0" pos="192" len="24" vol="100"/>
        </pattern>
        <pattern name="Gt. Harmonics" pos="11520" muted="0" type="1" steps="16">
          <note key="45" pan="0" pos="0" len="24" vol="100"/>
          <note key="44" pan="0" pos="24" len="24" vol="100"/>
          <note key="44" pan="0" pos="60" len="24" vol="100"/>
          <note key="44" pan="0" pos="96" len="24" vol="100"/>
          <note key="46" pan="0" pos="132" len="24" vol="100"/>
          <note key="47" pan="0" pos="168" len="24" vol="100"/>
          <note key="44" pan="0" pos="192" len="24" vol="100"/>
        </pattern>
        <pattern name="Gt. Harmonics" pos="12288" muted="0" type="1" steps="16">
          <note key="45" pan="0" pos="0" len="24" vol="100"/>
          <note key="44" pan="0" pos="24" len="24" vol="100"/>
          <note key="44" pan="0" pos="60" len="24" vol="100"/>
          <note key="44" pan="0" pos="96" len="24" vol="100"/>
          <note key="46" pan="0" pos="132" len="24" vol="100"/>
          <note key="47" pan="0" pos="168" len="24" vol="100"/>
          <note key="44" pan="0" pos="192" len="24" vol="100"/>
        </pattern>
        <pattern name="Gt. Harmonics" pos="13056" muted="0" type="1" steps="16">
          <note key="45" pan="0" pos="0" len="24" vol="100"/>
          <note key="44" pan="0" pos="24" len="24" vol="100"/>
          <note key="44" pan="0" pos="60" len="24" vol="100"/>
          <note key="44" pan="0" pos="96" len="24" vol="100"/>
          <note key="46" pan="0" pos="132" len="24" vol="100"/>
          <note key="47" pan="0" pos="168" len="24" vol="100"/>
          <note key="44" pan="0" pos="192" len="24" vol="100"/>
        </pattern>
      </track>
      <track name="Drums" muted="0" type="0" solo="0">
        <instrumenttrack pitchrange="1" pan="0" fxch="0" basenote="57" pitch="0" vol="200" usemasterpitch="1">
          <instrument name="sf2player">
            <sf2player reverbWidth="0.5" chorusOn="0" gain="1" chorusDepth="8" bank="128" reverbLevel="0.89999998" reverbRoomSize="0.2" patch="30" chorusSpeed="0.30000001" reverbOn="0" chorusNum="0.89999998" reverbDamping="0.2" chorusLevel="2" src="soundfonts/SGM-v2.01-HQ-v3.0.sf2"/>
          </instrument>
          <eldata fcut="14000" ftype="0" fwet="0" fres="0.5">
            <elvol dec="0.5" ctlenvamt="0" latt="0" sustain="0.5" amt="0" lamt="0" pdel="0" rel="0.1" lshp="0" lpdel="0" hold="0.5" lspd_numerator="4" lspd_denominator="4" att="0" x100="0" lspd="0.1" lspd_syncmode="0" userwavefile=""/>
            <elcut dec="0.5" ctlenvamt="0" latt="0" sustain="0.5" amt="0" lamt="0" pdel="0" rel="0.1" lshp="0" lpdel="0" hold="0.5" lspd_numerator="4" lspd_denominator="4" att="0" x100="0" lspd="0.1" lspd_syncmode="0" userwavefile=""/>
            <elres dec="0.5" ctlenvamt="0" latt="0" sustain="0.5" amt="0" lamt="0" pdel="0" rel="0.1" lshp="0" lpdel="0" hold="0.5" lspd_numerator="4" lspd_denominator="4" att="0" x100="0" lspd="0.1" lspd_syncmode="0" userwavefile=""/>
          </eldata>
          <chordcreator chordrange="1" chord-enabled="0" chord="0"/>
          <arpeggiator arptime="200" arptime_syncmode="0" arpmode="0" arptime_numerator="4" arptime_denominator="4" arpdir="0" arpgate="100" arprange="1" arp-enabled="0" arpmiss="0" arp="0" arpcycle="0" arpskip="0"/>
          <midiport inputcontroller="0" fixedoutputnote="-1" writable="0" basevelocity="63" outputprogram="1" outputcontroller="0" fixedinputvelocity="-1" outputchannel="1" fixedoutputvelocity="-1" readable="0" inputchannel="0"/>
          <fxchain numofeffects="1" enabled="1">
            <effect gate="0" on="1" autoquit_syncmode="0" autoquit="1" name="eq" autoquit_numerator="4" wet="1" autoquit_denominator="4">
              <Eq LPres="0.70700002" Peak3bw="1.0930001" HPres="0.70700002" HP12="1" HighShelfgain="4.3200002" Peak1active="1" HPactive="1" Peak3active="1" Peak2gain="5.9400001" Lowshelfactive="0" Peak2bw="0.30000001" Peak1bw="2.2820001" Highshelfactive="1" LP12="1" Peak4bw="0.30000001" Peak4gain="0" Peak4active="1" AnalyseIn="1" HP24="0" LP48="0" LowShelfres="1.4" LP="0" Peak2active="1" HP48="0" HighShelfres="1.4" Peak3gain="2.1600001" Outputgain="-0.1" LP24="0" Lowshelfgain="0" AnalyseOut="1" HP="0" LPactive="1">
                <Inputgain value="0" scale_type="log" id="6645496"/>
                <Peak1gain value="2.8800001" scale_type="log" id="2772380"/>
                <HPfreq value="31.000004" scale_type="log" id="750626"/>
                <LowShelffreq value="80" scale_type="log" id="7545230"/>
                <Peak1freq value="151.071" scale_type="log" id="1848493"/>
                <Peak2freq value="265.83173" scale_type="log" id="2382337"/>
                <Peak3freq value="1205.1195" scale_type="log" id="5470473"/>
                <Peak4freq value="4000.0029" scale_type="log" id="6222509"/>
                <Highshelffreq value="9102.9326" scale_type="log" id="6452059"/>
                <LPfreq value="17999.996" scale_type="log" id="5720908"/>
              </Eq>
              <key/>
            </effect>
          </fxchain>
        </instrumenttrack>
        <pattern name="Drums" pos="1536" muted="0" type="1" steps="16">
          <note key="39" pan="0" pos="0" len="12" vol="136"/>
          <note key="24" pan="0" pos="0" len="12" vol="148"/>
          <note key="39" pan="0" pos="24" len="12" vol="136"/>
          <note key="34" pan="0" pos="24" len="12" vol="136"/>
          <note key="24" pan="0" pos="36" len="12" vol="148"/>
          <note key="39" pan="0" pos="48" len="12" vol="136"/>
          <note key="28" pan="0" pos="48" len="12" vol="174"/>
          <note key="39" pan="0" pos="72" len="12" vol="136"/>
          <note key="34" pan="0" pos="72" len="12" vol="136"/>
          <note key="24" pan="0" pos="84" len="12" vol="148"/>
          <note key="39" pan="0" pos="96" len="12" vol="136"/>
          <note key="24" pan="0" pos="96" len="12" vol="148"/>
          <note key="39" pan="0" pos="120" len="12" vol="136"/>
          <note key="34" pan="0" pos="120" len="12" vol="136"/>
          <note key="24" pan="0" pos="132" len="12" vol="148"/>
          <note key="39" pan="0" pos="144" len="12" vol="136"/>
          <note key="28" pan="0" pos="144" len="12" vol="174"/>
          <note key="39" pan="0" pos="168" len="12" vol="136"/>
          <note key="34" pan="0" pos="168" len="12" vol="136"/>
          <note key="28" pan="0" pos="180" len="12" vol="174"/>
          <note key="24" pan="0" pos="180" len="12" vol="148"/>
          <note key="39" pan="0" pos="192" len="12" vol="136"/>
          <note key="24" pan="0" pos="192" len="12" vol="148"/>
          <note key="39" pan="0" pos="216" len="12" vol="136"/>
          <note key="34" pan="0" pos="216" len="12" vol="136"/>
          <note key="24" pan="0" pos="228" len="12" vol="148"/>
          <note key="39" pan="0" pos="240" len="12" vol="136"/>
          <note key="28" pan="0" pos="240" len="12" vol="174"/>
          <note key="39" pan="0" pos="264" len="12" vol="136"/>
          <note key="34" pan="0" pos="264" len="12" vol="136"/>
          <note key="24" pan="0" pos="276" len="12" vol="148"/>
          <note key="39" pan="0" pos="288" len="12" vol="136"/>
          <note key="24" pan="0" pos="288" len="12" vol="148"/>
          <note key="39" pan="0" pos="312" len="12" vol="136"/>
          <note key="34" pan="0" pos="312" len="12" vol="136"/>
          <note key="24" pan="0" pos="324" len="12" vol="148"/>
          <note key="39" pan="0" pos="336" len="12" vol="136"/>
          <note key="28" pan="0" pos="336" len="12" vol="174"/>
          <note key="39" pan="0" pos="360" len="12" vol="136"/>
          <note key="34" pan="0" pos="360" len="12" vol="136"/>
          <note key="28" pan="0" pos="372" len="12" vol="174"/>
          <note key="24" pan="0" pos="372" len="12" vol="148"/>
          <note key="39" pan="0" pos="384" len="12" vol="136"/>
          <note key="24" pan="0" pos="384" len="12" vol="148"/>
          <note key="39" pan="0" pos="408" len="12" vol="136"/>
          <note key="34" pan="0" pos="408" len="12" vol="136"/>
          <note key="24" pan="0" pos="420" len="12" vol="148"/>
          <note key="39" pan="0" pos="432" len="12" vol="136"/>
          <note key="28" pan="0" pos="432" len="12" vol="174"/>
          <note key="39" pan="0" pos="456" len="12" vol="136"/>
          <note key="34" pan="0" pos="456" len="12" vol="136"/>
          <note key="24" pan="0" pos="468" len="12" vol="148"/>
          <note key="39" pan="0" pos="480" len="12" vol="136"/>
          <note key="24" pan="0" pos="480" len="12" vol="148"/>
          <note key="39" pan="0" pos="504" len="12" vol="136"/>
          <note key="34" pan="0" pos="504" len="12" vol="136"/>
          <note key="24" pan="0" pos="516" len="12" vol="148"/>
          <note key="39" pan="0" pos="528" len="12" vol="136"/>
          <note key="28" pan="0" pos="528" len="12" vol="174"/>
          <note key="39" pan="0" pos="552" len="12" vol="136"/>
          <note key="34" pan="0" pos="552" len="12" vol="136"/>
          <note key="28" pan="0" pos="564" len="12" vol="174"/>
          <note key="24" pan="0" pos="564" len="12" vol="148"/>
          <note key="39" pan="0" pos="576" len="12" vol="136"/>
          <note key="24" pan="0" pos="576" len="12" vol="148"/>
          <note key="39" pan="0" pos="600" len="12" vol="136"/>
          <note key="34" pan="0" pos="600" len="12" vol="136"/>
          <note key="24" pan="0" pos="612" len="12" vol="148"/>
          <note key="39" pan="0" pos="624" len="12" vol="136"/>
          <note key="28" pan="0" pos="624" len="12" vol="174"/>
          <note key="39" pan="0" pos="648" len="12" vol="136"/>
          <note key="34" pan="0" pos="648" len="12" vol="136"/>
          <note key="24" pan="0" pos="660" len="12" vol="148"/>
          <note key="39" pan="0" pos="672" len="12" vol="136"/>
          <note key="24" pan="0" pos="672" len="12" vol="148"/>
          <note key="39" pan="0" pos="696" len="12" vol="136"/>
          <note key="34" pan="0" pos="696" len="12" vol="136"/>
          <note key="28" pan="0" pos="696" len="12" vol="174"/>
          <note key="24" pan="0" pos="708" len="12" vol="148"/>
          <note key="39" pan="0" pos="720" len="12" vol="136"/>
          <note key="28" pan="0" pos="720" len="12" vol="174"/>
          <note key="39" pan="0" pos="744" len="12" vol="136"/>
          <note key="34" pan="0" pos="744" len="12" vol="136"/>
          <note key="28" pan="0" pos="756" len="12" vol="174"/>
          <note key="24" pan="0" pos="756" len="12" vol="148"/>
          <note key="39" pan="0" pos="768" len="12" vol="136"/>
          <note key="37" pan="0" pos="768" len="12" vol="174"/>
          <note key="24" pan="0" pos="768" len="12" vol="148"/>
          <note key="39" pan="0" pos="792" len="12" vol="136"/>
          <note key="34" pan="0" pos="792" len="12" vol="136"/>
          <note key="24" pan="0" pos="804" len="12" vol="148"/>
          <note key="39" pan="0" pos="816" len="12" vol="136"/>
          <note key="28" pan="0" pos="816" len="12" vol="174"/>
          <note key="39" pan="0" pos="840" len="12" vol="136"/>
          <note key="34" pan="0" pos="840" len="12" vol="136"/>
          <note key="24" pan="0" pos="852" len="12" vol="148"/>
          <note key="39" pan="0" pos="864" len="12" vol="136"/>
          <note key="24" pan="0" pos="864" len="12" vol="148"/>
          <note key="39" pan="0" pos="888" len="12" vol="136"/>
          <note key="34" pan="0" pos="888" len="12" vol="136"/>
          <note key="24" pan="0" pos="900" len="12" vol="148"/>
          <note key="39" pan="0" pos="912" len="12" vol="136"/>
          <note key="28" pan="0" pos="912" len="12" vol="174"/>
          <note key="39" pan="0" pos="936" len="12" vol="136"/>
          <note key="34" pan="0" pos="936" len="12" vol="136"/>
          <note key="28" pan="0" pos="948" len="12" vol="174"/>
          <note key="24" pan="0" pos="948" len="12" vol="148"/>
          <note key="39" pan="0" pos="960" len="12" vol="136"/>
          <note key="24" pan="0" pos="960" len="12" vol="148"/>
          <note key="39" pan="0" pos="984" len="12" vol="136"/>
          <note key="34" pan="0" pos="984" len="12" vol="136"/>
          <note key="24" pan="0" pos="996" len="12" vol="148"/>
          <note key="39" pan="0" pos="1008" len="12" vol="136"/>
          <note key="28" pan="0" pos="1008" len="12" vol="174"/>
          <note key="39" pan="0" pos="1032" len="12" vol="136"/>
          <note key="34" pan="0" pos="1032" len="12" vol="136"/>
          <note key="24" pan="0" pos="1044" len="12" vol="148"/>
          <note key="39" pan="0" pos="1056" len="12" vol="136"/>
          <note key="24" pan="0" pos="1056" len="12" vol="148"/>
          <note key="39" pan="0" pos="1080" len="12" vol="136"/>
          <note key="34" pan="0" pos="1080" len="12" vol="136"/>
          <note key="24" pan="0" pos="1092" len="12" vol="148"/>
          <note key="39" pan="0" pos="1104" len="12" vol="136"/>
          <note key="28" pan="0" pos="1104" len="12" vol="174"/>
          <note key="39" pan="0" pos="1128" len="12" vol="136"/>
          <note key="34" pan="0" pos="1128" len="12" vol="136"/>
          <note key="28" pan="0" pos="1140" len="12" vol="174"/>
          <note key="24" pan="0" pos="1140" len="12" vol="148"/>
          <note key="39" pan="0" pos="1152" len="12" vol="136"/>
          <note key="24" pan="0" pos="1152" len="12" vol="148"/>
          <note key="39" pan="0" pos="1176" len="12" vol="136"/>
          <note key="34" pan="0" pos="1176" len="12" vol="136"/>
          <note key="24" pan="0" pos="1188" len="12" vol="148"/>
          <note key="39" pan="0" pos="1200" len="12" vol="136"/>
          <note key="28" pan="0" pos="1200" len="12" vol="174"/>
          <note key="39" pan="0" pos="1224" len="12" vol="136"/>
          <note key="34" pan="0" pos="1224" len="12" vol="136"/>
          <note key="24" pan="0" pos="1236" len="12" vol="148"/>
          <note key="39" pan="0" pos="1248" len="12" vol="136"/>
          <note key="24" pan="0" pos="1248" len="12" vol="148"/>
          <note key="39" pan="0" pos="1272" len="12" vol="136"/>
          <note key="34" pan="0" pos="1272" len="12" vol="136"/>
          <note key="24" pan="0" pos="1284" len="12" vol="148"/>
          <note key="39" pan="0" pos="1296" len="12" vol="136"/>
          <note key="28" pan="0" pos="1296" len="12" vol="174"/>
          <note key="39" pan="0" pos="1320" len="12" vol="136"/>
          <note key="34" pan="0" pos="1320" len="12" vol="136"/>
          <note key="28" pan="0" pos="1332" len="12" vol="174"/>
          <note key="24" pan="0" pos="1332" len="12" vol="148"/>
          <note key="39" pan="0" pos="1344" len="12" vol="136"/>
          <note key="24" pan="0" pos="1344" len="12" vol="148"/>
          <note key="39" pan="0" pos="1368" len="12" vol="136"/>
          <note key="34" pan="0" pos="1368" len="12" vol="136"/>
          <note key="24" pan="0" pos="1380" len="12" vol="148"/>
          <note key="39" pan="0" pos="1392" len="12" vol="136"/>
          <note key="28" pan="0" pos="1392" len="12" vol="174"/>
          <note key="39" pan="0" pos="1416" len="12" vol="136"/>
          <note key="34" pan="0" pos="1416" len="12" vol="136"/>
          <note key="24" pan="0" pos="1428" len="12" vol="148"/>
          <note key="39" pan="0" pos="1440" len="12" vol="136"/>
          <note key="24" pan="0" pos="1440" len="12" vol="148"/>
          <note key="39" pan="0" pos="1464" len="12" vol="136"/>
          <note key="34" pan="0" pos="1464" len="12" vol="136"/>
          <note key="28" pan="0" pos="1464" len="12" vol="174"/>
          <note key="24" pan="0" pos="1476" len="12" vol="148"/>
          <note key="39" pan="0" pos="1488" len="12" vol="136"/>
          <note key="28" pan="0" pos="1488" len="12" vol="174"/>
          <note key="39" pan="0" pos="1512" len="12" vol="136"/>
          <note key="34" pan="0" pos="1512" len="12" vol="136"/>
          <note key="28" pan="0" pos="1512" len="12" vol="174"/>
          <note key="28" pan="0" pos="1524" len="12" vol="174"/>
          <note key="24" pan="0" pos="1524" len="12" vol="148"/>
        </pattern>
        <pattern name="Drums" pos="3072" muted="0" type="1" steps="16">
          <note key="39" pan="0" pos="0" len="12" vol="136"/>
          <note key="37" pan="0" pos="0" len="12" vol="174"/>
          <note key="24" pan="0" pos="0" len="12" vol="148"/>
          <note key="39" pan="0" pos="24" len="12" vol="136"/>
          <note key="34" pan="0" pos="24" len="12" vol="136"/>
          <note key="24" pan="0" pos="36" len="12" vol="148"/>
          <note key="39" pan="0" pos="48" len="12" vol="136"/>
          <note key="28" pan="0" pos="48" len="12" vol="174"/>
          <note key="39" pan="0" pos="72" len="12" vol="136"/>
          <note key="34" pan="0" pos="72" len="12" vol="136"/>
          <note key="24" pan="0" pos="84" len="12" vol="148"/>
          <note key="39" pan="0" pos="96" len="12" vol="136"/>
          <note key="24" pan="0" pos="96" len="12" vol="148"/>
          <note key="39" pan="0" pos="120" len="12" vol="136"/>
          <note key="34" pan="0" pos="120" len="12" vol="136"/>
          <note key="24" pan="0" pos="132" len="12" vol="148"/>
          <note key="39" pan="0" pos="144" len="12" vol="136"/>
          <note key="28" pan="0" pos="144" len="12" vol="174"/>
          <note key="39" pan="0" pos="168" len="12" vol="136"/>
          <note key="34" pan="0" pos="168" len="12" vol="136"/>
          <note key="28" pan="0" pos="180" len="12" vol="174"/>
          <note key="24" pan="0" pos="180" len="12" vol="148"/>
          <note key="39" pan="0" pos="192" len="12" vol="136"/>
          <note key="24" pan="0" pos="192" len="12" vol="148"/>
          <note key="39" pan="0" pos="216" len="12" vol="136"/>
          <note key="34" pan="0" pos="216" len="12" vol="136"/>
          <note key="24" pan="0" pos="228" len="12" vol="148"/>
          <note key="39" pan="0" pos="240" len="12" vol="136"/>
          <note key="28" pan="0" pos="240" len="12" vol="174"/>
          <note key="39" pan="0" pos="264" len="12" vol="136"/>
          <note key="34" pan="0" pos="264" len="12" vol="136"/>
          <note key="24" pan="0" pos="276" len="12" vol="148"/>
          <note key="39" pan="0" pos="288" len="12" vol="136"/>
          <note key="24" pan="0" pos="288" len="12" vol="148"/>
          <note key="39" pan="0" pos="312" len="12" vol="136"/>
          <note key="34" pan="0" pos="312" len="12" vol="136"/>
          <note key="24" pan="0" pos="324" len="12" vol="148"/>
          <note key="39" pan="0" pos="336" len="12" vol="136"/>
          <note key="28" pan="0" pos="336" len="12" vol="174"/>
          <note key="39" pan="0" pos="360" len="12" vol="136"/>
          <note key="34" pan="0" pos="360" len="12" vol="136"/>
          <note key="28" pan="0" pos="372" len="12" vol="174"/>
          <note key="24" pan="0" pos="372" len="12" vol="148"/>
          <note key="39" pan="0" pos="384" len="12" vol="136"/>
          <note key="24" pan="0" pos="384" len="12" vol="148"/>
          <note key="39" pan="0" pos="408" len="12" vol="136"/>
          <note key="34" pan="0" pos="408" len="12" vol="136"/>
          <note key="24" pan="0" pos="420" len="12" vol="148"/>
          <note key="39" pan="0" pos="432" len="12" vol="136"/>
          <note key="28" pan="0" pos="432" len="12" vol="174"/>
          <note key="39" pan="0" pos="456" len="12" vol="136"/>
          <note key="34" pan="0" pos="456" len="12" vol="136"/>
          <note key="24" pan="0" pos="468" len="12" vol="148"/>
          <note key="39" pan="0" pos="480" len="12" vol="136"/>
          <note key="24" pan="0" pos="480" len="12" vol="148"/>
          <note key="39" pan="0" pos="504" len="12" vol="136"/>
          <note key="34" pan="0" pos="504" len="12" vol="136"/>
          <note key="24" pan="0" pos="516" len="12" vol="148"/>
          <note key="39" pan="0" pos="528" len="12" vol="136"/>
          <note key="28" pan="0" pos="528" len="12" vol="174"/>
          <note key="39" pan="0" pos="552" len="12" vol="136"/>
          <note key="34" pan="0" pos="552" len="12" vol="136"/>
          <note key="28" pan="0" pos="564" len="12" vol="174"/>
          <note key="24" pan="0" pos="564" len="12" vol="148"/>
          <note key="39" pan="0" pos="576" len="12" vol="136"/>
          <note key="24" pan="0" pos="576" len="12" vol="148"/>
          <note key="39" pan="0" pos="600" len="12" vol="136"/>
          <note key="34" pan="0" pos="600" len="12" vol="136"/>
          <note key="24" pan="0" pos="612" len="12" vol="148"/>
          <note key="39" pan="0" pos="624" len="12" vol="136"/>
          <note key="28" pan="0" pos="624" len="12" vol="174"/>
          <note key="39" pan="0" pos="648" len="12" vol="136"/>
          <note key="34" pan="0" pos="648" len="12" vol="136"/>
          <note key="24" pan="0" pos="660" len="12" vol="148"/>
          <note key="39" pan="0" pos="672" len="12" vol="136"/>
          <note key="24" pan="0" pos="672" len="12" vol="148"/>
          <note key="39" pan="0" pos="696" len="12" vol="136"/>
          <note key="34" pan="0" pos="696" len="12" vol="136"/>
          <note key="28" pan="0" pos="696" len="12" vol="174"/>
          <note key="24" pan="0" pos="708" len="12" vol="148"/>
          <note key="39" pan="0" pos="720" len="12" vol="136"/>
          <note key="28" pan="0" pos="720" len="12" vol="174"/>
          <note key="39" pan="0" pos="744" len="12" vol="136"/>
          <note key="34" pan="0" pos="744" len="12" vol="136"/>
          <note key="28" pan="0" pos="756" len="12" vol="174"/>
          <note key="24" pan="0" pos="756" len="12" vol="148"/>
          <note key="39" pan="0" pos="768" len="12" vol="136"/>
          <note key="37" pan="0" pos="768" len="12" vol="174"/>
          <note key="24" pan="0" pos="768" len="12" vol="148"/>
          <note key="39" pan="0" pos="792" len="12" vol="136"/>
          <note key="34" pan="0" pos="792" len="12" vol="136"/>
          <note key="24" pan="0" pos="804" len="12" vol="148"/>
          <note key="39" pan="0" pos="816" len="12" vol="136"/>
          <note key="28" pan="0" pos="816" len="12" vol="174"/>
          <note key="39" pan="0" pos="840" len="12" vol="136"/>
          <note key="34" pan="0" pos="840" len="12" vol="136"/>
          <note key="24" pan="0" pos="852" len="12" vol="148"/>
          <note key="39" pan="0" pos="864" len="12" vol="136"/>
          <note key="24" pan="0" pos="864" len="12" vol="148"/>
          <note key="39" pan="0" pos="888" len="12" vol="136"/>
          <note key="34" pan="0" pos="888" len="12" vol="136"/>
          <note key="24" pan="0" pos="900" len="12" vol="148"/>
          <note key="39" pan="0" pos="912" len="12" vol="136"/>
          <note key="28" pan="0" pos="912" len="12" vol="174"/>
          <note key="39" pan="0" pos="936" len="12" vol="136"/>
          <note key="34" pan="0" pos="936" len="12" vol="136"/>
          <note key="28" pan="0" pos="948" len="12" vol="174"/>
          <note key="24" pan="0" pos="948" len="12" vol="148"/>
          <note key="39" pan="0" pos="960" len="12" vol="136"/>
          <note key="24" pan="0" pos="960" len="12" vol="148"/>
          <note key="39" pan="0" pos="984" len="12" vol="136"/>
          <note key="34" pan="0" pos="984" len="12" vol="136"/>
          <note key="24" pan="0" pos="996" len="12" vol="148"/>
          <note key="39" pan="0" pos="1008" len="12" vol="136"/>
          <note key="28" pan="0" pos="1008" len="12" vol="174"/>
          <note key="39" pan="0" pos="1032" len="12" vol="136"/>
          <note key="34" pan="0" pos="1032" len="12" vol="136"/>
          <note key="24" pan="0" pos="1044" len="12" vol="148"/>
          <note key="39" pan="0" pos="1056" len="12" vol="136"/>
          <note key="24" pan="0" pos="1056" len="12" vol="148"/>
          <note key="39" pan="0" pos="1080" len="12" vol="136"/>
          <note key="34" pan="0" pos="1080" len="12" vol="136"/>
          <note key="24" pan="0" pos="1092" len="12" vol="148"/>
          <note key="39" pan="0" pos="1104" len="12" vol="136"/>
          <note key="28" pan="0" pos="1104" len="12" vol="174"/>
          <note key="39" pan="0" pos="1128" len="12" vol="136"/>
          <note key="34" pan="0" pos="1128" len="12" vol="136"/>
          <note key="28" pan="0" pos="1140" len="12" vol="174"/>
          <note key="24" pan="0" pos="1140" len="12" vol="148"/>
          <note key="39" pan="0" pos="1152" len="12" vol="136"/>
          <note key="24" pan="0" pos="1152" len="12" vol="148"/>
          <note key="39" pan="0" pos="1176" len="12" vol="136"/>
          <note key="34" pan="0" pos="1176" len="12" vol="136"/>
          <note key="24" pan="0" pos="1188" len="12" vol="148"/>
          <note key="39" pan="0" pos="1200" len="12" vol="136"/>
          <note key="28" pan="0" pos="1200" len="12" vol="174"/>
          <note key="39" pan="0" pos="1224" len="12" vol="136"/>
          <note key="34" pan="0" pos="1224" len="12" vol="136"/>
          <note key="24" pan="0" pos="1236" len="12" vol="148"/>
          <note key="39" pan="0" pos="1248" len="12" vol="136"/>
          <note key="24" pan="0" pos="1248" len="12" vol="148"/>
          <note key="39" pan="0" pos="1272" len="12" vol="136"/>
          <note key="34" pan="0" pos="1272" len="12" vol="136"/>
          <note key="24" pan="0" pos="1284" len="12" vol="148"/>
          <note key="39" pan="0" pos="1296" len="12" vol="136"/>
          <note key="28" pan="0" pos="1296" len="12" vol="174"/>
          <note key="39" pan="0" pos="1320" len="12" vol="136"/>
          <note key="34" pan="0" pos="1320" len="12" vol="136"/>
          <note key="28" pan="0" pos="1332" len="12" vol="174"/>
          <note key="24" pan="0" pos="1332" len="12" vol="148"/>
          <note key="39" pan="0" pos="1344" len="12" vol="136"/>
          <note key="24" pan="0" pos="1344" len="12" vol="148"/>
          <note key="39" pan="0" pos="1368" len="12" vol="136"/>
          <note key="34" pan="0" pos="1368" len="12" vol="136"/>
          <note key="24" pan="0" pos="1380" len="12" vol="148"/>
          <note key="39" pan="0" pos="1392" len="12" vol="136"/>
          <note key="28" pan="0" pos="1392" len="12" vol="174"/>
          <note key="39" pan="0" pos="1416" len="12" vol="136"/>
          <note key="34" pan="0" pos="1416" len="12" vol="136"/>
          <note key="24" pan="0" pos="1428" len="12" vol="148"/>
          <note key="39" pan="0" pos="1440" len="12" vol="136"/>
          <note key="24" pan="0" pos="1440" len="12" vol="148"/>
          <note key="39" pan="0" pos="1464" len="12" vol="136"/>
          <note key="34" pan="0" pos="1464" len="12" vol="136"/>
          <note key="28" pan="0" pos="1464" len="12" vol="174"/>
          <note key="24" pan="0" pos="1476" len="12" vol="148"/>
          <note key="39" pan="0" pos="1488" len="12" vol="136"/>
          <note key="28" pan="0" pos="1488" len="12" vol="174"/>
          <note key="39" pan="0" pos="1512" len="12" vol="136"/>
          <note key="34" pan="0" pos="1512" len="12" vol="136"/>
          <note key="28" pan="0" pos="1512" len="12" vol="174"/>
          <note key="28" pan="0" pos="1524" len="12" vol="174"/>
          <note key="24" pan="0" pos="1524" len="12" vol="148"/>
        </pattern>
        <pattern name="Drums" pos="4608" muted="0" type="1" steps="16">
          <note key="39" pan="0" pos="0" len="12" vol="136"/>
          <note key="37" pan="0" pos="0" len="12" vol="174"/>
          <note key="24" pan="0" pos="0" len="12" vol="148"/>
          <note key="39" pan="0" pos="24" len="12" vol="136"/>
          <note key="34" pan="0" pos="24" len="12" vol="136"/>
          <note key="24" pan="0" pos="36" len="12" vol="148"/>
          <note key="39" pan="0" pos="48" len="12" vol="136"/>
          <note key="28" pan="0" pos="48" len="12" vol="174"/>
          <note key="39" pan="0" pos="72" len="12" vol="136"/>
          <note key="34" pan="0" pos="72" len="12" vol="136"/>
          <note key="24" pan="0" pos="84" len="12" vol="148"/>
          <note key="39" pan="0" pos="96" len="12" vol="136"/>
          <note key="24" pan="0" pos="96" len="12" vol="148"/>
          <note key="39" pan="0" pos="120" len="12" vol="136"/>
          <note key="34" pan="0" pos="120" len="12" vol="136"/>
          <note key="24" pan="0" pos="132" len="12" vol="148"/>
          <note key="39" pan="0" pos="144" len="12" vol="136"/>
          <note key="28" pan="0" pos="144" len="12" vol="174"/>
          <note key="39" pan="0" pos="168" len="12" vol="136"/>
          <note key="34" pan="0" pos="168" len="12" vol="136"/>
          <note key="28" pan="0" pos="180" len="12" vol="174"/>
          <note key="24" pan="0" pos="180" len="12" vol="148"/>
          <note key="39" pan="0" pos="192" len="12" vol="136"/>
          <note key="24" pan="0" pos="192" len="12" vol="148"/>
          <note key="39" pan="0" pos="216" len="12" vol="136"/>
          <note key="34" pan="0" pos="216" len="12" vol="136"/>
          <note key="24" pan="0" pos="228" len="12" vol="148"/>
          <note key="39" pan="0" pos="240" len="12" vol="136"/>
          <note key="28" pan="0" pos="240" len="12" vol="174"/>
          <note key="39" pan="0" pos="264" len="12" vol="136"/>
          <note key="34" pan="0" pos="264" len="12" vol="136"/>
          <note key="24" pan="0" pos="276" len="12" vol="148"/>
          <note key="39" pan="0" pos="288" len="12" vol="136"/>
          <note key="24" pan="0" pos="288" len="12" vol="148"/>
          <note key="39" pan="0" pos="312" len="12" vol="136"/>
          <note key="34" pan="0" pos="312" len="12" vol="136"/>
          <note key="24" pan="0" pos="324" len="12" vol="148"/>
          <note key="39" pan="0" pos="336" len="12" vol="136"/>
          <note key="28" pan="0" pos="336" len="12" vol="174"/>
          <note key="39" pan="0" pos="360" len="12" vol="136"/>
          <note key="34" pan="0" pos="360" len="12" vol="136"/>
          <note key="28" pan="0" pos="372" len="12" vol="174"/>
          <note key="24" pan="0" pos="372" len="12" vol="148"/>
          <note key="39" pan="0" pos="384" len="12" vol="136"/>
          <note key="24" pan="0" pos="384" len="12" vol="148"/>
          <note key="39" pan="0" pos="408" len="12" vol="136"/>
          <note key="34" pan="0" pos="408" len="12" vol="136"/>
          <note key="24" pan="0" pos="420" len="12" vol="148"/>
          <note key="39" pan="0" pos="432" len="12" vol="136"/>
          <note key="28" pan="0" pos="432" len="12" vol="174"/>
          <note key="39" pan="0" pos="456" len="12" vol="136"/>
          <note key="34" pan="0" pos="456" len="12" vol="136"/>
          <note key="24" pan="0" pos="468" len="12" vol="148"/>
          <note key="39" pan="0" pos="480" len="12" vol="136"/>
          <note key="24" pan="0" pos="480" len="12" vol="148"/>
          <note key="39" pan="0" pos="504" len="12" vol="136"/>
          <note key="34" pan="0" pos="504" len="12" vol="136"/>
          <note key="24" pan="0" pos="516" len="12" vol="148"/>
          <note key="39" pan="0" pos="528" len="12" vol="136"/>
          <note key="28" pan="0" pos="528" len="12" vol="174"/>
          <note key="39" pan="0" pos="552" len="12" vol="136"/>
          <note key="34" pan="0" pos="552" len="12" vol="136"/>
          <note key="28" pan="0" pos="564" len="12" vol="174"/>
          <note key="24" pan="0" pos="564" len="12" vol="148"/>
          <note key="39" pan="0" pos="576" len="12" vol="136"/>
          <note key="24" pan="0" pos="576" len="12" vol="148"/>
          <note key="39" pan="0" pos="600" len="12" vol="136"/>
          <note key="34" pan="0" pos="600" len="12" vol="136"/>
          <note key="24" pan="0" pos="612" len="12" vol="148"/>
          <note key="39" pan="0" pos="624" len="12" vol="136"/>
          <note key="28" pan="0" pos="624" len="12" vol="174"/>
          <note key="39" pan="0" pos="648" len="12" vol="136"/>
          <note key="34" pan="0" pos="648" len="12" vol="136"/>
          <note key="24" pan="0" pos="660" len="12" vol="148"/>
          <note key="39" pan="0" pos="672" len="12" vol="136"/>
          <note key="24" pan="0" pos="672" len="12" vol="148"/>
          <note key="39" pan="0" pos="696" len="12" vol="136"/>
          <note key="34" pan="0" pos="696" len="12" vol="136"/>
          <note key="28" pan="0" pos="696" len="12" vol="174"/>
          <note key="24" pan="0" pos="708" len="12" vol="148"/>
          <note key="39" pan="0" pos="720" len="12" vol="136"/>
          <note key="28" pan="0" pos="720" len="12" vol="174"/>
          <note key="39" pan="0" pos="744" len="12" vol="136"/>
          <note key="34" pan="0" pos="744" len="12" vol="136"/>
          <note key="28" pan="0" pos="756" len="12" vol="174"/>
          <note key="24" pan="0" pos="756" len="12" vol="148"/>
          <note key="39" pan="0" pos="768" len="12" vol="136"/>
          <note key="37" pan="0" pos="768" len="12" vol="174"/>
          <note key="24" pan="0" pos="768" len="12" vol="148"/>
          <note key="39" pan="0" pos="792" len="12" vol="136"/>
          <note key="34" pan="0" pos="792" len="12" vol="136"/>
          <note key="24" pan="0" pos="804" len="12" vol="148"/>
          <note key="39" pan="0" pos="816" len="12" vol="136"/>
          <note key="28" pan="0" pos="816" len="12" vol="174"/>
          <note key="39" pan="0" pos="840" len="12" vol="136"/>
          <note key="34" pan="0" pos="840" len="12" vol="136"/>
          <note key="24" pan="0" pos="852" len="12" vol="148"/>
          <note key="39" pan="0" pos="864" len="12" vol="136"/>
          <note key="24" pan="0" pos="864" len="12" vol="148"/>
          <note key="39" pan="0" pos="888" len="12" vol="136"/>
          <note key="34" pan="0" pos="888" len="12" vol="136"/>
          <note key="24" pan="0" pos="900" len="12" vol="148"/>
          <note key="39" pan="0" pos="912" len="12" vol="136"/>
          <note key="28" pan="0" pos="912" len="12" vol="174"/>
          <note key="39" pan="0" pos="936" len="12" vol="136"/>
          <note key="34" pan="0" pos="936" len="12" vol="136"/>
          <note key="28" pan="0" pos="948" len="12" vol="174"/>
          <note key="24" pan="0" pos="948" len="12" vol="148"/>
          <note key="39" pan="0" pos="960" len="12" vol="136"/>
          <note key="24" pan="0" pos="960" len="12" vol="148"/>
          <note key="39" pan="0" pos="984" len="12" vol="136"/>
          <note key="34" pan="0" pos="984" len="12" vol="136"/>
          <note key="24" pan="0" pos="996" len="12" vol="148"/>
          <note key="39" pan="0" pos="1008" len="12" vol="136"/>
          <note key="28" pan="0" pos="1008" len="12" vol="174"/>
          <note key="39" pan="0" pos="1032" len="12" vol="136"/>
          <note key="34" pan="0" pos="1032" len="12" vol="136"/>
          <note key="24" pan="0" pos="1044" len="12" vol="148"/>
          <note key="39" pan="0" pos="1056" len="12" vol="136"/>
          <note key="24" pan="0" pos="1056" len="12" vol="148"/>
          <note key="39" pan="0" pos="1080" len="12" vol="136"/>
          <note key="34" pan="0" pos="1080" len="12" vol="136"/>
          <note key="24" pan="0" pos="1092" len="12" vol="148"/>
          <note key="39" pan="0" pos="1104" len="12" vol="136"/>
          <note key="28" pan="0" pos="1104" len="12" vol="174"/>
          <note key="39" pan="0" pos="1128" len="12" vol="136"/>
          <note key="34" pan="0" pos="1128" len="12" vol="136"/>
          <note key="28" pan="0" pos="1140" len="12" vol="174"/>
          <note key="24" pan="0" pos="1140" len="12" vol="148"/>
          <note key="39" pan="0" pos="1152" len="12" vol="136"/>
          <note key="24" pan="0" pos="1152" len="12" vol="148"/>
          <note key="39" pan="0" pos="1176" len="12" vol="136"/>
          <note key="34" pan="0" pos="1176" len="12" vol="136"/>
          <note key="24" pan="0" pos="1188" len="12" vol="148"/>
          <note key="39" pan="0" pos="1200" len="12" vol="136"/>
          <note key="28" pan="0" pos="1200" len="12" vol="174"/>
          <note key="39" pan="0" pos="1224" len="12" vol="136"/>
          <note key="34" pan="0" pos="1224" len="12" vol="136"/>
          <note key="24" pan="0" pos="1236" len="12" vol="148"/>
          <note key="39" pan="0" pos="1248" len="12" vol="136"/>
          <note key="24" pan="0" pos="1248" len="12" vol="148"/>
          <note key="39" pan="0" pos="1272" len="12" vol="136"/>
          <note key="34" pan="0" pos="1272" len="12" vol="136"/>
          <note key="24" pan="0" pos="1284" len="12" vol="148"/>
          <note key="39" pan="0" pos="1296" len="12" vol="136"/>
          <note key="28" pan="0" pos="1296" len="12" vol="174"/>
          <note key="39" pan="0" pos="1320" len="12" vol="136"/>
          <note key="34" pan="0" pos="1320" len="12" vol="136"/>
          <note key="28" pan="0" pos="1332" len="12" vol="174"/>
          <note key="24" pan="0" pos="1332" len="12" vol="148"/>
          <note key="39" pan="0" pos="1344" len="12" vol="136"/>
          <note key="24" pan="0" pos="1344" len="12" vol="148"/>
          <note key="39" pan="0" pos="1368" len="12" vol="136"/>
          <note key="34" pan="0" pos="1368" len="12" vol="136"/>
          <note key="24" pan="0" pos="1380" len="12" vol="148"/>
          <note key="39" pan="0" pos="1392" len="12" vol="136"/>
          <note key="28" pan="0" pos="1392" len="12" vol="174"/>
          <note key="39" pan="0" pos="1416" len="12" vol="136"/>
          <note key="34" pan="0" pos="1416" len="12" vol="136"/>
          <note key="24" pan="0" pos="1428" len="12" vol="148"/>
          <note key="39" pan="0" pos="1440" len="12" vol="136"/>
          <note key="24" pan="0" pos="1440" len="12" vol="148"/>
          <note key="39" pan="0" pos="1464" len="12" vol="136"/>
          <note key="34" pan="0" pos="1464" len="12" vol="136"/>
          <note key="28" pan="0" pos="1464" len="12" vol="174"/>
          <note key="24" pan="0" pos="1476" len="12" vol="148"/>
          <note key="39" pan="0" pos="1488" len="12" vol="136"/>
          <note key="28" pan="0" pos="1488" len="12" vol="174"/>
          <note key="39" pan="0" pos="1512" len="12" vol="136"/>
          <note key="34" pan="0" pos="1512" len="12" vol="136"/>
          <note key="28" pan="0" pos="1512" len="12" vol="174"/>
          <note key="28" pan="0" pos="1524" len="12" vol="174"/>
          <note key="24" pan="0" pos="1524" len="12" vol="148"/>
        </pattern>
        <pattern name="Drums" pos="6144" muted="0" type="1" steps="16">
          <note key="39" pan="0" pos="0" len="12" vol="136"/>
          <note key="37" pan="0" pos="0" len="12" vol="174"/>
          <note key="24" pan="0" pos="0" len="12" vol="148"/>
          <note key="39" pan="0" pos="24" len="12" vol="136"/>
          <note key="34" pan="0" pos="24" len="12" vol="136"/>
          <note key="24" pan="0" pos="36" len="12" vol="148"/>
          <note key="39" pan="0" pos="48" len="12" vol="136"/>
          <note key="28" pan="0" pos="48" len="12" vol="174"/>
          <note key="39" pan="0" pos="72" len="12" vol="136"/>
          <note key="34" pan="0" pos="72" len="12" vol="136"/>
          <note key="24" pan="0" pos="84" len="12" vol="148"/>
          <note key="39" pan="0" pos="96" len="12" vol="136"/>
          <note key="24" pan="0" pos="96" len="12" vol="148"/>
          <note key="39" pan="0" pos="120" len="12" vol="136"/>
          <note key="34" pan="0" pos="120" len="12" vol="136"/>
          <note key="24" pan="0" pos="132" len="12" vol="148"/>
          <note key="39" pan="0" pos="144" len="12" vol="136"/>
          <note key="28" pan="0" pos="144" len="12" vol="174"/>
          <note key="39" pan="0" pos="168" len="12" vol="136"/>
          <note key="34" pan="0" pos="168" len="12" vol="136"/>
          <note key="28" pan="0" pos="180" len="12" vol="174"/>
          <note key="24" pan="0" pos="180" len="12" vol="148"/>
          <note key="39" pan="0" pos="192" len="12" vol="136"/>
          <note key="24" pan="0" pos="192" len="12" vol="148"/>
          <note key="39" pan="0" pos="216" len="12" vol="136"/>
          <note key="34" pan="0" pos="216" len="12" vol="136"/>
          <note key="24" pan="0" pos="228" len="12" vol="148"/>
          <note key="39" pan="0" pos="240" len="12" vol="136"/>
          <note key="28" pan="0" pos="240" len="12" vol="174"/>
          <note key="39" pan="0" pos="264" len="12" vol="136"/>
          <note key="34" pan="0" pos="264" len="12" vol="136"/>
          <note key="24" pan="0" pos="276" len="12" vol="148"/>
          <note key="39" pan="0" pos="288" len="12" vol="136"/>
          <note key="24" pan="0" pos="288" len="12" vol="148"/>
          <note key="39" pan="0" pos="312" len="12" vol="136"/>
          <note key="34" pan="0" pos="312" len="12" vol="136"/>
          <note key="24" pan="0" pos="324" len="12" vol="148"/>
          <note key="39" pan="0" pos="336" len="12" vol="136"/>
          <note key="28" pan="0" pos="336" len="12" vol="174"/>
          <note key="39" pan="0" pos="360" len="12" vol="136"/>
          <note key="34" pan="0" pos="360" len="12" vol="136"/>
          <note key="28" pan="0" pos="372" len="12" vol="174"/>
          <note key="24" pan="0" pos="372" len="12" vol="148"/>
          <note key="39" pan="0" pos="384" len="12" vol="136"/>
          <note key="24" pan="0" pos="384" len="12" vol="148"/>
          <note key="39" pan="0" pos="408" len="12" vol="136"/>
          <note key="34" pan="0" pos="408" len="12" vol="136"/>
          <note key="24" pan="0" pos="420" len="12" vol="148"/>
          <note key="39" pan="0" pos="432" len="12" vol="136"/>
          <note key="28" pan="0" pos="432" len="12" vol="174"/>
          <note key="39" pan="0" pos="456" len="12" vol="136"/>
          <note key="34" pan="0" pos="456" len="12" vol="136"/>
          <note key="24" pan="0" pos="468" len="12" vol="148"/>
          <note key="39" pan="0" pos="480" len="12" vol="136"/>
          <note key="24" pan="0" pos="480" len="12" vol="148"/>
          <note key="39" pan="0" pos="504" len="12" vol="136"/>
          <note key="34" pan="0" pos="504" len="12" vol="136"/>
          <note key="24" pan="0" pos="516" len="12" vol="148"/>
          <note key="39" pan="0" pos="528" len="12" vol="136"/>
          <note key="28" pan="0" pos="528" len="12" vol="174"/>
          <note key="39" pan="0" pos="552" len="12" vol="136"/>
          <note key="34" pan="0" pos="552" len="12" vol="136"/>
          <note key="28" pan="0" pos="564" len="12" vol="174"/>
          <note key="24" pan="0" pos="564" len="12" vol="148"/>
          <note key="39" pan="0" pos="576" len="12" vol="136"/>
          <note key="24" pan="0" pos="576" len="12" vol="148"/>
          <note key="39" pan="0" pos="600" len="12" vol="136"/>
          <note key="34" pan="0" pos="600" len="12" vol="136"/>
          <note key="24" pan="0" pos="612" len="12" vol="148"/>
          <note key="39" pan="0" pos="624" len="12" vol="136"/>
          <note key="28" pan="0" pos="624" len="12" vol="174"/>
          <note key="39" pan="0" pos="648" len="12" vol="136"/>
          <note key="34" pan="0" pos="648" len="12" vol="136"/>
          <note key="24" pan="0" pos="660" len="12" vol="148"/>
          <note key="39" pan="0" pos="672" len="12" vol="136"/>
          <note key="24" pan="0" pos="672" len="12" vol="148"/>
          <note key="39" pan="0" pos="696" len="12" vol="136"/>
          <note key="34" pan="0" pos="696" len="12" vol="136"/>
          <note key="28" pan="0" pos="696" len="12" vol="174"/>
          <note key="24" pan="0" pos="708" len="12" vol="148"/>
          <note key="39" pan="0" pos="720" len="12" vol="136"/>
          <note key="28" pan="0" pos="720" len="12" vol="174"/>
          <note key="39" pan="0" pos="744" len="12" vol="136"/>
          <note key="34" pan="0" pos="744" len="12" vol="136"/>
          <note key="28" pan="0" pos="756" len="12" vol="174"/>
          <note key="24" pan="0" pos="756" len="12" vol="148"/>
          <note key="39" pan="0" pos="768" len="12" vol="136"/>
          <note key="37" pan="0" pos="768" len="12" vol="174"/>
          <note key="24" pan="0" pos="768" len="12" vol="148"/>
          <note key="39" pan="0" pos="792" len="12" vol="136"/>
          <note key="34" pan="0" pos="792" len="12" vol="136"/>
          <note key="24" pan="0" pos="804" len="12" vol="148"/>
          <note key="39" pan="0" pos="816" len="12" vol="136"/>
          <note key="28" pan="0" pos="816" len="12" vol="174"/>
          <note key="39" pan="0" pos="840" len="12" vol="136"/>
          <note key="34" pan="0" pos="840" len="12" vol="136"/>
          <note key="24" pan="0" pos="852" len="12" vol="148"/>
          <note key="39" pan="0" pos="864" len="12" vol="136"/>
          <note key="24" pan="0" pos="864" len="12" vol="148"/>
          <note key="39" pan="0" pos="888" len="12" vol="136"/>
          <note key="34" pan="0" pos="888" len="12" vol="136"/>
          <note key="24" pan="0" pos="900" len="12" vol="148"/>
          <note key="39" pan="0" pos="912" len="12" vol="136"/>
          <note key="28" pan="0" pos="912" len="12" vol="174"/>
          <note key="39" pan="0" pos="936" len="12" vol="136"/>
          <note key="34" pan="0" pos="936" len="12" vol="136"/>
          <note key="28" pan="0" pos="948" len="12" vol="174"/>
          <note key="24" pan="0" pos="948" len="12" vol="148"/>
          <note key="39" pan="0" pos="960" len="12" vol="136"/>
          <note key="24" pan="0" pos="960" len="12" vol="148"/>
          <note key="39" pan="0" pos="984" len="12" vol="136"/>
          <note key="34" pan="0" pos="984" len="12" vol="136"/>
          <note key="24" pan="0" pos="996" len="12" vol="148"/>
          <note key="39" pan="0" pos="1008" len="12" vol="136"/>
          <note key="28" pan="0" pos="1008" len="12" vol="174"/>
          <note key="39" pan="0" pos="1032" len="12" vol="136"/>
          <note key="34" pan="0" pos="1032" len="12" vol="136"/>
          <note key="24" pan="0" pos="1044" len="12" vol="148"/>
          <note key="39" pan="0" pos="1056" len="12" vol="136"/>
          <note key="24" pan="0" pos="1056" len="12" vol="148"/>
          <note key="39" pan="0" pos="1080" len="12" vol="136"/>
          <note key="34" pan="0" pos="1080" len="12" vol="136"/>
          <note key="24" pan="0" pos="1092" len="12" vol="148"/>
          <note key="39" pan="0" pos="1104" len="12" vol="136"/>
          <note key="28" pan="0" pos="1104" len="12" vol="174"/>
          <note key="39" pan="0" pos="1128" len="12" vol="136"/>
          <note key="34" pan="0" pos="1128" len="12" vol="136"/>
          <note key="28" pan="0" pos="1140" len="12" vol="174"/>
          <note key="24" pan="0" pos="1140" len="12" vol="148"/>
          <note key="39" pan="0" pos="1152" len="12" vol="136"/>
          <note key="24" pan="0" pos="1152" len="12" vol="148"/>
          <note key="39" pan="0" pos="1176" len="12" vol="136"/>
          <note key="34" pan="0" pos="1176" len="12" vol="136"/>
          <note key="24" pan="0" pos="1188" len="12" vol="148"/>
          <note key="39" pan="0" pos="1200" len="12" vol="136"/>
          <note key="28" pan="0" pos="1200" len="12" vol="174"/>
          <note key="39" pan="0" pos="1224" len="12" vol="136"/>
          <note key="34" pan="0" pos="1224" len="12" vol="136"/>
          <note key="24" pan="0" pos="1236" len="12" vol="148"/>
          <note key="39" pan="0" pos="1248" len="12" vol="136"/>
          <note key="24" pan="0" pos="1248" len="12" vol="148"/>
          <note key="39" pan="0" pos="1272" len="12" vol="136"/>
          <note key="34" pan="0" pos="1272" len="12" vol="136"/>
          <note key="24" pan="0" pos="1284" len="12" vol="148"/>
          <note key="39" pan="0" pos="1296" len="12" vol="136"/>
          <note key="28" pan="0" pos="1296" len="12" vol="174"/>
          <note key="39" pan="0" pos="1320" len="12" vol="136"/>
          <note key="34" pan="0" pos="1320" len="12" vol="136"/>
          <note key="28" pan="0" pos="1332" len="12" vol="174"/>
          <note key="24" pan="0" pos="1332" len="12" vol="148"/>
          <note key="39" pan="0" pos="1344" len="12" vol="136"/>
          <note key="24" pan="0" pos="1344" len="12" vol="148"/>
          <note key="39" pan="0" pos="1368" len="12" vol="136"/>
          <note key="34" pan="0" pos="1368" len="12" vol="136"/>
          <note key="24" pan="0" pos="1380" len="12" vol="148"/>
          <note key="39" pan="0" pos="1392" len="12" vol="136"/>
          <note key="28" pan="0" pos="1392" len="12" vol="174"/>
          <note key="39" pan="0" pos="1416" len="12" vol="136"/>
          <note key="34" pan="0" pos="1416" len="12" vol="136"/>
          <note key="24" pan="0" pos="1428" len="12" vol="148"/>
          <note key="39" pan="0" pos="1440" len="12" vol="136"/>
          <note key="24" pan="0" pos="1440" len="12" vol="148"/>
          <note key="39" pan="0" pos="1464" len="12" vol="136"/>
          <note key="34" pan="0" pos="1464" len="12" vol="136"/>
          <note key="28" pan="0" pos="1464" len="12" vol="174"/>
          <note key="24" pan="0" pos="1476" len="12" vol="148"/>
          <note key="39" pan="0" pos="1488" len="12" vol="136"/>
          <note key="34" pan="0" pos="1488" len="12" vol="100"/>
          <note key="28" pan="0" pos="1488" len="12" vol="174"/>
          <note key="34" pan="0" pos="1500" len="12" vol="159"/>
          <note key="28" pan="0" pos="1500" len="12" vol="159"/>
          <note key="39" pan="0" pos="1512" len="12" vol="159"/>
          <note key="34" pan="0" pos="1512" len="12" vol="159"/>
          <note key="28" pan="0" pos="1512" len="12" vol="159"/>
          <note key="34" pan="0" pos="1524" len="12" vol="170"/>
          <note key="28" pan="0" pos="1524" len="12" vol="174"/>
          <note key="24" pan="0" pos="1524" len="12" vol="148"/>
        </pattern>
        <pattern name="Drums" pos="7680" muted="0" type="1" steps="16">
          <note key="39" pan="0" pos="0" len="12" vol="136"/>
          <note key="37" pan="0" pos="0" len="12" vol="174"/>
          <note key="24" pan="0" pos="0" len="12" vol="148"/>
          <note key="39" pan="0" pos="24" len="12" vol="136"/>
          <note key="34" pan="0" pos="24" len="12" vol="136"/>
          <note key="24" pan="0" pos="36" len="12" vol="148"/>
          <note key="39" pan="0" pos="48" len="12" vol="136"/>
          <note key="28" pan="0" pos="48" len="12" vol="174"/>
          <note key="39" pan="0" pos="72" len="12" vol="136"/>
          <note key="34" pan="0" pos="72" len="12" vol="136"/>
          <note key="24" pan="0" pos="84" len="12" vol="148"/>
          <note key="39" pan="0" pos="96" len="12" vol="136"/>
          <note key="24" pan="0" pos="96" len="12" vol="148"/>
          <note key="39" pan="0" pos="120" len="12" vol="136"/>
          <note key="34" pan="0" pos="120" len="12" vol="136"/>
          <note key="24" pan="0" pos="132" len="12" vol="148"/>
          <note key="39" pan="0" pos="144" len="12" vol="136"/>
          <note key="28" pan="0" pos="144" len="12" vol="174"/>
          <note key="39" pan="0" pos="168" len="12" vol="136"/>
          <note key="34" pan="0" pos="168" len="12" vol="136"/>
          <note key="28" pan="0" pos="180" len="12" vol="174"/>
          <note key="24" pan="0" pos="180" len="12" vol="148"/>
          <note key="39" pan="0" pos="192" len="12" vol="136"/>
          <note key="24" pan="0" pos="192" len="12" vol="148"/>
          <note key="39" pan="0" pos="216" len="12" vol="136"/>
          <note key="34" pan="0" pos="216" len="12" vol="136"/>
          <note key="24" pan="0" pos="228" len="12" vol="148"/>
          <note key="39" pan="0" pos="240" len="12" vol="136"/>
          <note key="28" pan="0" pos="240" len="12" vol="174"/>
          <note key="39" pan="0" pos="264" len="12" vol="136"/>
          <note key="34" pan="0" pos="264" len="12" vol="136"/>
          <note key="24" pan="0" pos="276" len="12" vol="148"/>
          <note key="39" pan="0" pos="288" len="12" vol="136"/>
          <note key="24" pan="0" pos="288" len="12" vol="148"/>
          <note key="39" pan="0" pos="312" len="12" vol="136"/>
          <note key="34" pan="0" pos="312" len="12" vol="136"/>
          <note key="24" pan="0" pos="324" len="12" vol="148"/>
          <note key="39" pan="0" pos="336" len="12" vol="136"/>
          <note key="28" pan="0" pos="336" len="12" vol="174"/>
          <note key="39" pan="0" pos="360" len="12" vol="136"/>
          <note key="34" pan="0" pos="360" len="12" vol="136"/>
          <note key="28" pan="0" pos="372" len="12" vol="174"/>
          <note key="24" pan="0" pos="372" len="12" vol="148"/>
          <note key="39" pan="0" pos="384" len="12" vol="136"/>
          <note key="24" pan="0" pos="384" len="12" vol="148"/>
          <note key="39" pan="0" pos="408" len="12" vol="136"/>
          <note key="34" pan="0" pos="408" len="12" vol="136"/>
          <note key="24" pan="0" pos="420" len="12" vol="148"/>
          <note key="39" pan="0" pos="432" len="12" vol="136"/>
          <note key="28" pan="0" pos="432" len="12" vol="174"/>
          <note key="39" pan="0" pos="456" len="12" vol="136"/>
          <note key="34" pan="0" pos="456" len="12" vol="136"/>
          <note key="24" pan="0" pos="468" len="12" vol="148"/>
          <note key="39" pan="0" pos="480" len="12" vol="136"/>
          <note key="24" pan="0" pos="480" len="12" vol="148"/>
          <note key="39" pan="0" pos="504" len="12" vol="136"/>
          <note key="34" pan="0" pos="504" len="12" vol="136"/>
          <note key="24" pan="0" pos="516" len="12" vol="148"/>
          <note key="39" pan="0" pos="528" len="12" vol="136"/>
          <note key="28" pan="0" pos="528" len="12" vol="174"/>
          <note key="39" pan="0" pos="552" len="12" vol="136"/>
          <note key="34" pan="0" pos="552" len="12" vol="136"/>
          <note key="28" pan="0" pos="564" len="12" vol="174"/>
          <note key="24" pan="0" pos="564" len="12" vol="148"/>
          <note key="39" pan="0" pos="576" len="12" vol="136"/>
          <note key="24" pan="0" pos="576" len="12" vol="148"/>
          <note key="39" pan="0" pos="600" len="12" vol="136"/>
          <note key="34" pan="0" pos="600" len="12" vol="136"/>
          <note key="24" pan="0" pos="612" len="12" vol="148"/>
          <note key="39" pan="0" pos="624" len="12" vol="136"/>
          <note key="28" pan="0" pos="624" len="12" vol="174"/>
          <note key="39" pan="0" pos="648" len="12" vol="136"/>
          <note key="34" pan="0" pos="648" len="12" vol="136"/>
          <note key="24" pan="0" pos="660" len="12" vol="148"/>
          <note key="39" pan="0" pos="672" len="12" vol="136"/>
          <note key="24" pan="0" pos="672" len="12" vol="148"/>
          <note key="39" pan="0" pos="696" len="12" vol="136"/>
          <note key="34" pan="0" pos="696" len="12" vol="136"/>
          <note key="28" pan="0" pos="696" len="12" vol="174"/>
          <note key="24" pan="0" pos="708" len="12" vol="148"/>
          <note key="39" pan="0" pos="720" len="12" vol="136"/>
          <note key="28" pan="0" pos="720" len="12" vol="174"/>
          <note key="39" pan="0" pos="744" len="12" vol="136"/>
          <note key="34" pan="0" pos="744" len="12" vol="136"/>
          <note key="28" pan="0" pos="756" len="12" vol="174"/>
          <note key="24" pan="0" pos="756" len="12" vol="148"/>
          <note key="39" pan="0" pos="768" len="12" vol="136"/>
          <note key="37" pan="0" pos="768" len="12" vol="174"/>
          <note key="24" pan="0" pos="768" len="12" vol="148"/>
          <note key="39" pan="0" pos="792" len="12" vol="136"/>
          <note key="34" pan="0" pos="792" len="12" vol="136"/>
          <note key="24" pan="0" pos="804" len="12" vol="148"/>
          <note key="39" pan="0" pos="816" len="12" vol="136"/>
          <note key="28" pan="0" pos="816" len="12" vol="174"/>
          <note key="39" pan="0" pos="840" len="12" vol="136"/>
          <note key="34" pan="0" pos="840" len="12" vol="136"/>
          <note key="24" pan="0" pos="852" len="12" vol="148"/>
          <note key="39" pan="0" pos="864" len="12" vol="136"/>
          <note key="24" pan="0" pos="864" len="12" vol="148"/>
          <note key="39" pan="0" pos="888" len="12" vol="136"/>
          <note key="34" pan="0" pos="888" len="12" vol="136"/>
          <note key="24" pan="0" pos="900" len="12" vol="148"/>
          <note key="39" pan="0" pos="912" len="12" vol="136"/>
          <note key="28" pan="0" pos="912" len="12" vol="174"/>
          <note key="39" pan="0" pos="936" len="12" vol="136"/>
          <note key="34" pan="0" pos="936" len="12" vol="136"/>
          <note key="28" pan="0" pos="948" len="12" vol="174"/>
          <note key="24" pan="0" pos="948" len="12" vol="148"/>
          <note key="39" pan="0" pos="960" len="12" vol="136"/>
          <note key="24" pan="0" pos="960" len="12" vol="148"/>
          <note key="39" pan="0" pos="984" len="12" vol="136"/>
          <note key="34" pan="0" pos="984" len="12" vol="136"/>
          <note key="24" pan="0" pos="996" len="12" vol="148"/>
          <note key="39" pan="0" pos="1008" len="12" vol="136"/>
          <note key="28" pan="0" pos="1008" len="12" vol="174"/>
          <note key="39" pan="0" pos="1032" len="12" vol="136"/>
          <note key="34" pan="0" pos="1032" len="12" vol="136"/>
          <note key="24" pan="0" pos="1044" len="12" vol="148"/>
          <note key="39" pan="0" pos="1056" len="12" vol="136"/>
          <note key="24" pan="0" pos="1056" len="12" vol="148"/>
          <note key="39" pan="0" pos="1080" len="12" vol="136"/>
          <note key="34" pan="0" pos="1080" len="12" vol="136"/>
          <note key="24" pan="0" pos="1092" len="12" vol="148"/>
          <note key="39" pan="0" pos="1104" len="12" vol="136"/>
          <note key="28" pan="0" pos="1104" len="12" vol="174"/>
          <note key="39" pan="0" pos="1128" len="12" vol="136"/>
          <note key="34" pan="0" pos="1128" len="12" vol="136"/>
          <note key="28" pan="0" pos="1140" len="12" vol="174"/>
          <note key="24" pan="0" pos="1140" len="12" vol="148"/>
          <note key="39" pan="0" pos="1152" len="12" vol="136"/>
          <note key="24" pan="0" pos="1152" len="12" vol="148"/>
          <note key="39" pan="0" pos="1176" len="12" vol="136"/>
          <note key="34" pan="0" pos="1176" len="12" vol="136"/>
          <note key="24" pan="0" pos="1188" len="12" vol="148"/>
          <note key="39" pan="0" pos="1200" len="12" vol="136"/>
          <note key="28" pan="0" pos="1200" len="12" vol="174"/>
          <note key="39" pan="0" pos="1224" len="12" vol="136"/>
          <note key="34" pan="0" pos="1224" len="12" vol="136"/>
          <note key="24" pan="0" pos="1236" len="12" vol="148"/>
          <note key="39" pan="0" pos="1248" len="12" vol="136"/>
          <note key="24" pan="0" pos="1248" len="12" vol="148"/>
          <note key="39" pan="0" pos="1272" len="12" vol="136"/>
          <note key="34" pan="0" pos="1272" len="12" vol="136"/>
          <note key="24" pan="0" pos="1284" len="12" vol="148"/>
          <note key="39" pan="0" pos="1296" len="12" vol="136"/>
          <note key="28" pan="0" pos="1296" len="12" vol="174"/>
          <note key="39" pan="0" pos="1320" len="12" vol="136"/>
          <note key="34" pan="0" pos="1320" len="12" vol="136"/>
          <note key="28" pan="0" pos="1332" len="12" vol="174"/>
          <note key="24" pan="0" pos="1332" len="12" vol="148"/>
          <note key="39" pan="0" pos="1344" len="12" vol="136"/>
          <note key="24" pan="0" pos="1344" len="12" vol="148"/>
          <note key="39" pan="0" pos="1368" len="12" vol="136"/>
          <note key="34" pan="0" pos="1368" len="12" vol="136"/>
          <note key="24" pan="0" pos="1380" len="12" vol="148"/>
          <note key="39" pan="0" pos="1392" len="12" vol="136"/>
          <note key="28" pan="0" pos="1392" len="12" vol="174"/>
          <note key="39" pan="0" pos="1416" len="12" vol="136"/>
          <note key="34" pan="0" pos="1416" len="12" vol="136"/>
          <note key="24" pan="0" pos="1428" len="12" vol="148"/>
          <note key="39" pan="0" pos="1440" len="12" vol="136"/>
          <note key="24" pan="0" pos="1440" len="12" vol="148"/>
          <note key="39" pan="0" pos="1464" len="12" vol="136"/>
          <note key="34" pan="0" pos="1464" len="12" vol="136"/>
          <note key="28" pan="0" pos="1464" len="12" vol="174"/>
          <note key="24" pan="0" pos="1476" len="12" vol="148"/>
          <note key="39" pan="0" pos="1488" len="12" vol="136"/>
          <note key="28" pan="0" pos="1488" len="12" vol="174"/>
          <note key="39" pan="0" pos="1512" len="12" vol="136"/>
          <note key="34" pan="0" pos="1512" len="12" vol="136"/>
          <note key="28" pan="0" pos="1512" len="12" vol="174"/>
          <note key="28" pan="0" pos="1524" len="12" vol="174"/>
          <note key="24" pan="0" pos="1524" len="12" vol="148"/>
        </pattern>
        <pattern name="Drums" pos="9216" muted="0" type="1" steps="16">
          <note key="39" pan="0" pos="0" len="12" vol="136"/>
          <note key="37" pan="0" pos="0" len="12" vol="174"/>
          <note key="24" pan="0" pos="0" len="12" vol="148"/>
          <note key="39" pan="0" pos="24" len="12" vol="136"/>
          <note key="34" pan="0" pos="24" len="12" vol="136"/>
          <note key="24" pan="0" pos="36" len="12" vol="148"/>
          <note key="39" pan="0" pos="48" len="12" vol="136"/>
          <note key="28" pan="0" pos="48" len="12" vol="174"/>
          <note key="39" pan="0" pos="72" len="12" vol="136"/>
          <note key="34" pan="0" pos="72" len="12" vol="136"/>
          <note key="24" pan="0" pos="84" len="12" vol="148"/>
          <note key="39" pan="0" pos="96" len="12" vol="136"/>
          <note key="24" pan="0" pos="96" len="12" vol="148"/>
          <note key="39" pan="0" pos="120" len="12" vol="136"/>
          <note key="34" pan="0" pos="120" len="12" vol="136"/>
          <note key="24" pan="0" pos="132" len="12" vol="148"/>
          <note key="39" pan="0" pos="144" len="12" vol="136"/>
          <note key="28" pan="0" pos="144" len="12" vol="174"/>
          <note key="39" pan="0" pos="168" len="12" vol="136"/>
          <note key="34" pan="0" pos="168" len="12" vol="136"/>
          <note key="28" pan="0" pos="180" len="12" vol="174"/>
          <note key="24" pan="0" pos="180" len="12" vol="148"/>
          <note key="39" pan="0" pos="192" len="12" vol="136"/>
          <note key="24" pan="0" pos="192" len="12" vol="148"/>
          <note key="39" pan="0" pos="216" len="12" vol="136"/>
          <note key="34" pan="0" pos="216" len="12" vol="136"/>
          <note key="24" pan="0" pos="228" len="12" vol="148"/>
          <note key="39" pan="0" pos="240" len="12" vol="136"/>
          <note key="28" pan="0" pos="240" len="12" vol="174"/>
          <note key="39" pan="0" pos="264" len="12" vol="136"/>
          <note key="34" pan="0" pos="264" len="12" vol="136"/>
          <note key="24" pan="0" pos="276" len="12" vol="148"/>
          <note key="39" pan="0" pos="288" len="12" vol="136"/>
          <note key="24" pan="0" pos="288" len="12" vol="148"/>
          <note key="39" pan="0" pos="312" len="12" vol="136"/>
          <note key="34" pan="0" pos="312" len="12" vol="136"/>
          <note key="24" pan="0" pos="324" len="12" vol="148"/>
          <note key="39" pan="0" pos="336" len="12" vol="136"/>
          <note key="28" pan="0" pos="336" len="12" vol="174"/>
          <note key="39" pan="0" pos="360" len="12" vol="136"/>
          <note key="34" pan="0" pos="360" len="12" vol="136"/>
          <note key="28" pan="0" pos="372" len="12" vol="174"/>
          <note key="24" pan="0" pos="372" len="12" vol="148"/>
          <note key="39" pan="0" pos="384" len="12" vol="136"/>
          <note key="24" pan="0" pos="384" len="12" vol="148"/>
          <note key="39" pan="0" pos="408" len="12" vol="136"/>
          <note key="34" pan="0" pos="408" len="12" vol="136"/>
          <note key="24" pan="0" pos="420" len="12" vol="148"/>
          <note key="39" pan="0" pos="432" len="12" vol="136"/>
          <note key="28" pan="0" pos="432" len="12" vol="174"/>
          <note key="39" pan="0" pos="456" len="12" vol="136"/>
          <note key="34" pan="0" pos="456" len="12" vol="136"/>
          <note key="24" pan="0" pos="468" len="12" vol="148"/>
          <note key="39" pan="0" pos="480" len="12" vol="136"/>
          <note key="24" pan="0" pos="480" len="12" vol="148"/>
          <note key="39" pan="0" pos="504" len="12" vol="136"/>
          <note key="34" pan="0" pos="504" len="12" vol="136"/>
          <note key="24" pan="0" pos="516" len="12" vol="148"/>
          <note key="39" pan="0" pos="528" len="12" vol="136"/>
          <note key="28" pan="0" pos="528" len="12" vol="174"/>
          <note key="39" pan="0" pos="552" len="12" vol="136"/>
          <note key="34" pan="0" pos="552" len="12" vol="136"/>
          <note key="28" pan="0" pos="564" len="12" vol="174"/>
          <note key="24" pan="0" pos="564" len="12" vol="148"/>
          <note key="39" pan="0" pos="576" len="12" vol="136"/>
          <note key="24" pan="0" pos="576" len="12" vol="148"/>
          <note key="39" pan="0" pos="600" len="12" vol="136"/>
          <note key="34" pan="0" pos="600" len="12" vol="136"/>
          <note key="24" pan="0" pos="612" len="12" vol="148"/>
          <note key="39" pan="0" pos="624" len="12" vol="136"/>
          <note key="28" pan="0" pos="624" len="12" vol="174"/>
          <note key="39" pan="0" pos="648" len="12" vol="136"/>
          <note key="34" pan="0" pos="648" len="12" vol="136"/>
          <note key="24" pan="0" pos="660" len="12" vol="148"/>
          <note key="39" pan="0" pos="672" len="12" vol="136"/>
          <note key="24" pan="0" pos="672" len="12" vol="148"/>
          <note key="39" pan="0" pos="696" len="12" vol="136"/>
          <note key="34" pan="0" pos="696" len="12" vol="136"/>
          <note key="28" pan="0" pos="696" len="12" vol="174"/>
          <note key="24" pan="0" pos="708" len="12" vol="148"/>
          <note key="39" pan="0" pos="720" len="12" vol="136"/>
          <note key="28" pan="0" pos="720" len="12" vol="174"/>
          <note key="39" pan="0" pos="744" len="12" vol="136"/>
          <note key="34" pan="0" pos="744" len="12" vol="136"/>
          <note key="28" pan="0" pos="756" len="12" vol="174"/>
          <note key="24" pan="0" pos="756" len="12" vol="148"/>
          <note key="39" pan="0" pos="768" len="12" vol="136"/>
          <note key="37" pan="0" pos="768" len="12" vol="174"/>
          <note key="24" pan="0" pos="768" len="12" vol="148"/>
          <note key="39" pan="0" pos="792" len="12" vol="136"/>
          <note key="34" pan="0" pos="792" len="12" vol="136"/>
          <note key="24" pan="0" pos="804" len="12" vol="148"/>
          <note key="39" pan="0" pos="816" len="12" vol="136"/>
          <note key="28" pan="0" pos="816" len="12" vol="174"/>
          <note key="39" pan="0" pos="840" len="12" vol="136"/>
          <note key="34" pan="0" pos="840" len="12" vol="136"/>
          <note key="24" pan="0" pos="852" len="12" vol="148"/>
          <note key="39" pan="0" pos="864" len="12" vol="136"/>
          <note key="24" pan="0" pos="864" len="12" vol="148"/>
          <note key="39" pan="0" pos="888" len="12" vol="136"/>
          <note key="34" pan="0" pos="888" len="12" vol="136"/>
          <note key="24" pan="0" pos="900" len="12" vol="148"/>
          <note key="39" pan="0" pos="912" len="12" vol="136"/>
          <note key="28" pan="0" pos="912" len="12" vol="174"/>
          <note key="39" pan="0" pos="936" len="12" vol="136"/>
          <note key="34" pan="0" pos="936" len="12" vol="136"/>
          <note key="28" pan="0" pos="948" len="12" vol="174"/>
          <note key="24" pan="0" pos="948" len="12" vol="148"/>
          <note key="39" pan="0" pos="960" len="12" vol="136"/>
          <note key="24" pan="0" pos="960" len="12" vol="148"/>
          <note key="39" pan="0" pos="984" len="12" vol="136"/>
          <note key="34" pan="0" pos="984" len="12" vol="136"/>
          <note key="24" pan="0" pos="996" len="12" vol="148"/>
          <note key="39" pan="0" pos="1008" len="12" vol="136"/>
          <note key="28" pan="0" pos="1008" len="12" vol="174"/>
          <note key="39" pan="0" pos="1032" len="12" vol="136"/>
          <note key="34" pan="0" pos="1032" len="12" vol="136"/>
          <note key="24" pan="0" pos="1044" len="12" vol="148"/>
          <note key="39" pan="0" pos="1056" len="12" vol="136"/>
          <note key="24" pan="0" pos="1056" len="12" vol="148"/>
          <note key="39" pan="0" pos="1080" len="12" vol="136"/>
          <note key="34" pan="0" pos="1080" len="12" vol="136"/>
          <note key="24" pan="0" pos="1092" len="12" vol="148"/>
          <note key="39" pan="0" pos="1104" len="12" vol="136"/>
          <note key="28" pan="0" pos="1104" len="12" vol="174"/>
          <note key="39" pan="0" pos="1128" len="12" vol="136"/>
          <note key="34" pan="0" pos="1128" len="12" vol="136"/>
          <note key="28" pan="0" pos="1140" len="12" vol="174"/>
          <note key="24" pan="0" pos="1140" len="12" vol="148"/>
          <note key="39" pan="0" pos="1152" len="12" vol="136"/>
          <note key="24" pan="0" pos="1152" len="12" vol="148"/>
          <note key="39" pan="0" pos="1176" len="12" vol="136"/>
          <note key="34" pan="0" pos="1176" len="12" vol="136"/>
          <note key="24" pan="0" pos="1188" len="12" vol="148"/>
          <note key="39" pan="0" pos="1200" len="12" vol="136"/>
          <note key="28" pan="0" pos="1200" len="12" vol="174"/>
          <note key="39" pan="0" pos="1224" len="12" vol="136"/>
          <note key="34" pan="0" pos="1224" len="12" vol="136"/>
          <note key="24" pan="0" pos="1236" len="12" vol="148"/>
          <note key="39" pan="0" pos="1248" len="12" vol="136"/>
          <note key="24" pan="0" pos="1248" len="12" vol="148"/>
          <note key="39" pan="0" pos="1272" len="12" vol="136"/>
          <note key="34" pan="0" pos="1272" len="12" vol="136"/>
          <note key="24" pan="0" pos="1284" len="12" vol="148"/>
          <note key="39" pan="0" pos="1296" len="12" vol="136"/>
          <note key="28" pan="0" pos="1296" len="12" vol="174"/>
          <note key="39" pan="0" pos="1320" len="12" vol="136"/>
          <note key="34" pan="0" pos="1320" len="12" vol="136"/>
          <note key="28" pan="0" pos="1332" len="12" vol="174"/>
          <note key="24" pan="0" pos="1332" len="12" vol="148"/>
          <note key="39" pan="0" pos="1344" len="12" vol="136"/>
          <note key="24" pan="0" pos="1344" len="12" vol="148"/>
          <note key="39" pan="0" pos="1368" len="12" vol="136"/>
          <note key="34" pan="0" pos="1368" len="12" vol="136"/>
          <note key="24" pan="0" pos="1380" len="12" vol="148"/>
          <note key="39" pan="0" pos="1392" len="12" vol="136"/>
          <note key="28" pan="0" pos="1392" len="12" vol="174"/>
          <note key="39" pan="0" pos="1416" len="12" vol="136"/>
          <note key="34" pan="0" pos="1416" len="12" vol="136"/>
          <note key="24" pan="0" pos="1428" len="12" vol="148"/>
          <note key="39" pan="0" pos="1440" len="12" vol="136"/>
          <note key="24" pan="0" pos="1440" len="12" vol="148"/>
          <note key="39" pan="0" pos="1464" len="12" vol="136"/>
          <note key="34" pan="0" pos="1464" len="12" vol="136"/>
          <note key="28" pan="0" pos="1464" len="12" vol="174"/>
          <note key="24" pan="0" pos="1476" len="12" vol="148"/>
          <note key="39" pan="0" pos="1488" len="12" vol="136"/>
          <note key="28" pan="0" pos="1488" len="12" vol="174"/>
          <note key="39" pan="0" pos="1512" len="12" vol="136"/>
          <note key="34" pan="0" pos="1512" len="12" vol="136"/>
          <note key="28" pan="0" pos="1512" len="12" vol="174"/>
          <note key="28" pan="0" pos="1524" len="12" vol="174"/>
          <note key="24" pan="0" pos="1524" len="12" vol="148"/>
        </pattern>
        <pattern name="Drums" pos="10752" muted="0" type="1" steps="16">
          <note key="39" pan="0" pos="0" len="12" vol="136"/>
          <note key="37" pan="0" pos="0" len="12" vol="174"/>
          <note key="24" pan="0" pos="0" len="12" vol="148"/>
          <note key="39" pan="0" pos="24" len="12" vol="136"/>
          <note key="34" pan="0" pos="24" len="12" vol="136"/>
          <note key="24" pan="0" pos="36" len="12" vol="148"/>
          <note key="39" pan="0" pos="48" len="12" vol="136"/>
          <note key="28" pan="0" pos="48" len="12" vol="174"/>
          <note key="39" pan="0" pos="72" len="12" vol="136"/>
          <note key="34" pan="0" pos="72" len="12" vol="136"/>
          <note key="24" pan="0" pos="84" len="12" vol="148"/>
          <note key="39" pan="0" pos="96" len="12" vol="136"/>
          <note key="24" pan="0" pos="96" len="12" vol="148"/>
          <note key="39" pan="0" pos="120" len="12" vol="136"/>
          <note key="34" pan="0" pos="120" len="12" vol="136"/>
          <note key="24" pan="0" pos="132" len="12" vol="148"/>
          <note key="39" pan="0" pos="144" len="12" vol="136"/>
          <note key="28" pan="0" pos="144" len="12" vol="174"/>
          <note key="39" pan="0" pos="168" len="12" vol="136"/>
          <note key="34" pan="0" pos="168" len="12" vol="136"/>
          <note key="28" pan="0" pos="180" len="12" vol="174"/>
          <note key="24" pan="0" pos="180" len="12" vol="148"/>
          <note key="39" pan="0" pos="192" len="12" vol="136"/>
          <note key="24" pan="0" pos="192" len="12" vol="148"/>
          <note key="39" pan="0" pos="216" len="12" vol="136"/>
          <note key="34" pan="0" pos="216" len="12" vol="136"/>
          <note key="24" pan="0" pos="228" len="12" vol="148"/>
          <note key="39" pan="0" pos="240" len="12" vol="136"/>
          <note key="28" pan="0" pos="240" len="12" vol="174"/>
          <note key="39" pan="0" pos="264" len="12" vol="136"/>
          <note key="34" pan="0" pos="264" len="12" vol="136"/>
          <note key="24" pan="0" pos="276" len="12" vol="148"/>
          <note key="39" pan="0" pos="288" len="12" vol="136"/>
          <note key="24" pan="0" pos="288" len="12" vol="148"/>
          <note key="39" pan="0" pos="312" len="12" vol="136"/>
          <note key="34" pan="0" pos="312" len="12" vol="136"/>
          <note key="24" pan="0" pos="324" len="12" vol="148"/>
          <note key="39" pan="0" pos="336" len="12" vol="136"/>
          <note key="28" pan="0" pos="336" len="12" vol="174"/>
          <note key="39" pan="0" pos="360" len="12" vol="136"/>
          <note key="34" pan="0" pos="360" len="12" vol="136"/>
          <note key="28" pan="0" pos="372" len="12" vol="174"/>
          <note key="24" pan="0" pos="372" len="12" vol="148"/>
          <note key="39" pan="0" pos="384" len="12" vol="136"/>
          <note key="24" pan="0" pos="384" len="12" vol="148"/>
          <note key="39" pan="0" pos="408" len="12" vol="136"/>
          <note key="34" pan="0" pos="408" len="12" vol="136"/>
          <note key="24" pan="0" pos="420" len="12" vol="148"/>
          <note key="39" pan="0" pos="432" len="12" vol="136"/>
          <note key="28" pan="0" pos="432" len="12" vol="174"/>
          <note key="39" pan="0" pos="456" len="12" vol="136"/>
          <note key="34" pan="0" pos="456" len="12" vol="136"/>
          <note key="24" pan="0" pos="468" len="12" vol="148"/>
          <note key="39" pan="0" pos="480" len="12" vol="136"/>
          <note key="24" pan="0" pos="480" len="12" vol="148"/>
          <note key="39" pan="0" pos="504" len="12" vol="136"/>
          <note key="34" pan="0" pos="504" len="12" vol="136"/>
          <note key="24" pan="0" pos="516" len="12" vol="148"/>
          <note key="39" pan="0" pos="528" len="12" vol="136"/>
          <note key="28" pan="0" pos="528" len="12" vol="174"/>
          <note key="39" pan="0" pos="552" len="12" vol="136"/>
          <note key="34" pan="0" pos="552" len="12" vol="136"/>
          <note key="28" pan="0" pos="564" len="12" vol="174"/>
          <note key="24" pan="0" pos="564" len="12" vol="148"/>
          <note key="39" pan="0" pos="576" len="12" vol="136"/>
          <note key="24" pan="0" pos="576" len="12" vol="148"/>
          <note key="39" pan="0" pos="600" len="12" vol="136"/>
          <note key="34" pan="0" pos="600" len="12" vol="136"/>
          <note key="24" pan="0" pos="612" len="12" vol="148"/>
          <note key="39" pan="0" pos="624" len="12" vol="136"/>
          <note key="28" pan="0" pos="624" len="12" vol="174"/>
          <note key="39" pan="0" pos="648" len="12" vol="136"/>
          <note key="34" pan="0" pos="648" len="12" vol="136"/>
          <note key="24" pan="0" pos="660" len="12" vol="148"/>
          <note key="39" pan="0" pos="672" len="12" vol="136"/>
          <note key="24" pan="0" pos="672" len="12" vol="148"/>
          <note key="39" pan="0" pos="696" len="12" vol="136"/>
          <note key="34" pan="0" pos="696" len="12" vol="136"/>
          <note key="28" pan="0" pos="696" len="12" vol="174"/>
          <note key="24" pan="0" pos="708" len="12" vol="148"/>
          <note key="39" pan="0" pos="720" len="12" vol="136"/>
          <note key="28" pan="0" pos="720" len="12" vol="174"/>
          <note key="39" pan="0" pos="744" len="12" vol="136"/>
          <note key="34" pan="0" pos="744" len="12" vol="136"/>
          <note key="28" pan="0" pos="756" len="12" vol="174"/>
          <note key="24" pan="0" pos="756" len="12" vol="148"/>
          <note key="39" pan="0" pos="768" len="12" vol="136"/>
          <note key="37" pan="0" pos="768" len="12" vol="174"/>
          <note key="24" pan="0" pos="768" len="12" vol="148"/>
          <note key="39" pan="0" pos="792" len="12" vol="136"/>
          <note key="34" pan="0" pos="792" len="12" vol="136"/>
          <note key="24" pan="0" pos="804" len="12" vol="148"/>
          <note key="39" pan="0" pos="816" len="12" vol="136"/>
          <note key="28" pan="0" pos="816" len="12" vol="174"/>
          <note key="39" pan="0" pos="840" len="12" vol="136"/>
          <note key="34" pan="0" pos="840" len="12" vol="136"/>
          <note key="24" pan="0" pos="852" len="12" vol="148"/>
          <note key="39" pan="0" pos="864" len="12" vol="136"/>
          <note key="24" pan="0" pos="864" len="12" vol="148"/>
          <note key="39" pan="0" pos="888" len="12" vol="136"/>
          <note key="34" pan="0" pos="888" len="12" vol="136"/>
          <note key="24" pan="0" pos="900" len="12" vol="148"/>
          <note key="39" pan="0" pos="912" len="12" vol="136"/>
          <note key="28" pan="0" pos="912" len="12" vol="174"/>
          <note key="39" pan="0" pos="936" len="12" vol="136"/>
          <note key="34" pan="0" pos="936" len="12" vol="136"/>
          <note key="28" pan="0" pos="948" len="12" vol="174"/>
          <note key="24" pan="0" pos="948" len="12" vol="148"/>
          <note key="39" pan="0" pos="960" len="12" vol="136"/>
          <note key="24" pan="0" pos="960" len="12" vol="148"/>
          <note key="39" pan="0" pos="984" len="12" vol="136"/>
          <note key="34" pan="0" pos="984" len="12" vol="136"/>
          <note key="24" pan="0" pos="996" len="12" vol="148"/>
          <note key="39" pan="0" pos="1008" len="12" vol="136"/>
          <note key="28" pan="0" pos="1008" len="12" vol="174"/>
          <note key="39" pan="0" pos="1032" len="12" vol="136"/>
          <note key="34" pan="0" pos="1032" len="12" vol="136"/>
          <note key="24" pan="0" pos="1044" len="12" vol="148"/>
          <note key="39" pan="0" pos="1056" len="12" vol="136"/>
          <note key="24" pan="0" pos="1056" len="12" vol="148"/>
          <note key="39" pan="0" pos="1080" len="12" vol="136"/>
          <note key="34" pan="0" pos="1080" len="12" vol="136"/>
          <note key="24" pan="0" pos="1092" len="12" vol="148"/>
          <note key="39" pan="0" pos="1104" len="12" vol="136"/>
          <note key="28" pan="0" pos="1104" len="12" vol="174"/>
          <note key="39" pan="0" pos="1128" len="12" vol="136"/>
          <note key="34" pan="0" pos="1128" len="12" vol="136"/>
          <note key="28" pan="0" pos="1140" len="12" vol="174"/>
          <note key="24" pan="0" pos="1140" len="12" vol="148"/>
          <note key="39" pan="0" pos="1152" len="12" vol="136"/>
          <note key="24" pan="0" pos="1152" len="12" vol="148"/>
          <note key="39" pan="0" pos="1176" len="12" vol="136"/>
          <note key="34" pan="0" pos="1176" len="12" vol="136"/>
          <note key="24" pan="0" pos="1188" len="12" vol="148"/>
          <note key="39" pan="0" pos="1200" len="12" vol="136"/>
          <note key="28" pan="0" pos="1200" len="12" vol="174"/>
          <note key="39" pan="0" pos="1224" len="12" vol="136"/>
          <note key="34" pan="0" pos="1224" len="12" vol="136"/>
          <note key="24" pan="0" pos="1236" len="12" vol="148"/>
          <note key="39" pan="0" pos="1248" len="12" vol="136"/>
          <note key="24" pan="0" pos="1248" len="12" vol="148"/>
          <note key="39" pan="0" pos="1272" len="12" vol="136"/>
          <note key="34" pan="0" pos="1272" len="12" vol="136"/>
          <note key="24" pan="0" pos="1284" len="12" vol="148"/>
          <note key="39" pan="0" pos="1296" len="12" vol="136"/>
          <note key="28" pan="0" pos="1296" len="12" vol="174"/>
          <note key="39" pan="0" pos="1320" len="12" vol="136"/>
          <note key="34" pan="0" pos="1320" len="12" vol="136"/>
          <note key="28" pan="0" pos="1332" len="12" vol="174"/>
          <note key="24" pan="0" pos="1332" len="12" vol="148"/>
          <note key="39" pan="0" pos="1344" len="12" vol="136"/>
          <note key="24" pan="0" pos="1344" len="12" vol="148"/>
          <note key="39" pan="0" pos="1368" len="12" vol="136"/>
          <note key="34" pan="0" pos="1368" len="12" vol="136"/>
          <note key="24" pan="0" pos="1380" len="12" vol="148"/>
          <note key="39" pan="0" pos="1392" len="12" vol="136"/>
          <note key="28" pan="0" pos="1392" len="12" vol="174"/>
          <note key="39" pan="0" pos="1416" len="12" vol="136"/>
          <note key="34" pan="0" pos="1416" len="12" vol="136"/>
          <note key="24" pan="0" pos="1428" len="12" vol="148"/>
          <note key="39" pan="0" pos="1440" len="12" vol="136"/>
          <note key="24" pan="0" pos="1440" len="12" vol="148"/>
          <note key="39" pan="0" pos="1464" len="12" vol="136"/>
          <note key="34" pan="0" pos="1464" len="12" vol="136"/>
          <note key="28" pan="0" pos="1464" len="12" vol="174"/>
          <note key="24" pan="0" pos="1476" len="12" vol="148"/>
          <note key="39" pan="0" pos="1488" len="12" vol="136"/>
          <note key="28" pan="0" pos="1488" len="12" vol="174"/>
          <note key="39" pan="0" pos="1512" len="12" vol="136"/>
          <note key="34" pan="0" pos="1512" len="12" vol="136"/>
          <note key="28" pan="0" pos="1512" len="12" vol="174"/>
          <note key="28" pan="0" pos="1524" len="12" vol="174"/>
          <note key="24" pan="0" pos="1524" len="12" vol="148"/>
        </pattern>
        <pattern name="Drums" pos="12288" muted="0" type="1" steps="16">
          <note key="39" pan="0" pos="0" len="12" vol="136"/>
          <note key="37" pan="0" pos="0" len="12" vol="174"/>
          <note key="24" pan="0" pos="0" len="12" vol="148"/>
          <note key="39" pan="0" pos="24" len="12" vol="136"/>
          <note key="34" pan="0" pos="24" len="12" vol="136"/>
          <note key="24" pan="0" pos="36" len="12" vol="148"/>
          <note key="39" pan="0" pos="48" len="12" vol="136"/>
          <note key="28" pan="0" pos="48" len="12" vol="174"/>
          <note key="39" pan="0" pos="72" len="12" vol="136"/>
          <note key="34" pan="0" pos="72" len="12" vol="136"/>
          <note key="24" pan="0" pos="84" len="12" vol="148"/>
          <note key="39" pan="0" pos="96" len="12" vol="136"/>
          <note key="24" pan="0" pos="96" len="12" vol="148"/>
          <note key="39" pan="0" pos="120" len="12" vol="136"/>
          <note key="34" pan="0" pos="120" len="12" vol="136"/>
          <note key="24" pan="0" pos="132" len="12" vol="148"/>
          <note key="39" pan="0" pos="144" len="12" vol="136"/>
          <note key="28" pan="0" pos="144" len="12" vol="174"/>
          <note key="39" pan="0" pos="168" len="12" vol="136"/>
          <note key="34" pan="0" pos="168" len="12" vol="136"/>
          <note key="28" pan="0" pos="180" len="12" vol="174"/>
          <note key="24" pan="0" pos="180" len="12" vol="148"/>
          <note key="39" pan="0" pos="192" len="12" vol="136"/>
          <note key="24" pan="0" pos="192" len="12" vol="148"/>
          <note key="39" pan="0" pos="216" len="12" vol="136"/>
          <note key="34" pan="0" pos="216" len="12" vol="136"/>
          <note key="24" pan="0" pos="228" len="12" vol="148"/>
          <note key="39" pan="0" pos="240" len="12" vol="136"/>
          <note key="28" pan="0" pos="240" len="12" vol="174"/>
          <note key="39" pan="0" pos="264" len="12" vol="136"/>
          <note key="34" pan="0" pos="264" len="12" vol="136"/>
          <note key="24" pan="0" pos="276" len="12" vol="148"/>
          <note key="39" pan="0" pos="288" len="12" vol="136"/>
          <note key="24" pan="0" pos="288" len="12" vol="148"/>
          <note key="39" pan="0" pos="312" len="12" vol="136"/>
          <note key="34" pan="0" pos="312" len="12" vol="136"/>
          <note key="24" pan="0" pos="324" len="12" vol="148"/>
          <note key="39" pan="0" pos="336" len="12" vol="136"/>
          <note key="28" pan="0" pos="336" len="12" vol="174"/>
          <note key="39" pan="0" pos="360" len="12" vol="136"/>
          <note key="34" pan="0" pos="360" len="12" vol="136"/>
          <note key="28" pan="0" pos="372" len="12" vol="174"/>
          <note key="24" pan="0" pos="372" len="12" vol="148"/>
          <note key="39" pan="0" pos="384" len="12" vol="136"/>
          <note key="24" pan="0" pos="384" len="12" vol="148"/>
          <note key="39" pan="0" pos="408" len="12" vol="136"/>
          <note key="34" pan="0" pos="408" len="12" vol="136"/>
          <note key="24" pan="0" pos="420" len="12" vol="148"/>
          <note key="39" pan="0" pos="432" len="12" vol="136"/>
          <note key="28" pan="0" pos="432" len="12" vol="174"/>
          <note key="39" pan="0" pos="456" len="12" vol="136"/>
          <note key="34" pan="0" pos="456" len="12" vol="136"/>
          <note key="24" pan="0" pos="468" len="12" vol="148"/>
          <note key="39" pan="0" pos="480" len="12" vol="136"/>
          <note key="24" pan="0" pos="480" len="12" vol="148"/>
          <note key="39" pan="0" pos="504" len="12" vol="136"/>
          <note key="34" pan="0" pos="504" len="12" vol="136"/>
          <note key="24" pan="0" pos="516" len="12" vol="148"/>
          <note key="39" pan="0" pos="528" len="12" vol="136"/>
          <note key="28" pan="0" pos="528" len="12" vol="174"/>
          <note key="39" pan="0" pos="552" len="12" vol="136"/>
          <note key="34" pan="0" pos="552" len="12" vol="136"/>
          <note key="28" pan="0" pos="564" len="12" vol="174"/>
          <note key="24" pan="0" pos="564" len="12" vol="148"/>
          <note key="39" pan="0" pos="576" len="12" vol="136"/>
          <note key="24" pan="0" pos="576" len="12" vol="148"/>
          <note key="39" pan="0" pos="600" len="12" vol="136"/>
          <note key="34" pan="0" pos="600" len="12" vol="136"/>
          <note key="24" pan="0" pos="612" len="12" vol="148"/>
          <note key="39" pan="0" pos="624" len="12" vol="136"/>
          <note key="28" pan="0" pos="624" len="12" vol="174"/>
          <note key="39" pan="0" pos="648" len="12" vol="136"/>
          <note key="34" pan="0" pos="648" len="12" vol="136"/>
          <note key="24" pan="0" pos="660" len="12" vol="148"/>
          <note key="39" pan="0" pos="672" len="12" vol="136"/>
          <note key="24" pan="0" pos="672" len="12" vol="148"/>
          <note key="39" pan="0" pos="696" len="12" vol="136"/>
          <note key="34" pan="0" pos="696" len="12" vol="136"/>
          <note key="28" pan="0" pos="696" len="12" vol="174"/>
          <note key="24" pan="0" pos="708" len="12" vol="148"/>
          <note key="39" pan="0" pos="720" len="12" vol="136"/>
          <note key="28" pan="0" pos="720" len="12" vol="174"/>
          <note key="39" pan="0" pos="744" len="12" vol="136"/>
          <note key="34" pan="0" pos="744" len="12" vol="136"/>
          <note key="28" pan="0" pos="756" len="12" vol="174"/>
          <note key="24" pan="0" pos="756" len="12" vol="148"/>
          <note key="39" pan="0" pos="768" len="12" vol="136"/>
          <note key="37" pan="0" pos="768" len="12" vol="174"/>
          <note key="24" pan="0" pos="768" len="12" vol="148"/>
          <note key="39" pan="0" pos="792" len="12" vol="136"/>
          <note key="34" pan="0" pos="792" len="12" vol="136"/>
          <note key="24" pan="0" pos="804" len="12" vol="148"/>
          <note key="39" pan="0" pos="816" len="12" vol="136"/>
          <note key="28" pan="0" pos="816" len="12" vol="174"/>
          <note key="39" pan="0" pos="840" len="12" vol="136"/>
          <note key="34" pan="0" pos="840" len="12" vol="136"/>
          <note key="24" pan="0" pos="852" len="12" vol="148"/>
          <note key="39" pan="0" pos="864" len="12" vol="136"/>
          <note key="24" pan="0" pos="864" len="12" vol="148"/>
          <note key="39" pan="0" pos="888" len="12" vol="136"/>
          <note key="34" pan="0" pos="888" len="12" vol="136"/>
          <note key="24" pan="0" pos="900" len="12" vol="148"/>
          <note key="39" pan="0" pos="912" len="12" vol="136"/>
          <note key="28" pan="0" pos="912" len="12" vol="174"/>
          <note key="39" pan="0" pos="936" len="12" vol="136"/>
          <note key="34" pan="0" pos="936" len="12" vol="136"/>
          <note key="28" pan="0" pos="948" len="12" vol="174"/>
          <note key="24" pan="0" pos="948" len="12" vol="148"/>
          <note key="39" pan="0" pos="960" len="12" vol="136"/>
          <note key="24" pan="0" pos="960" len="12" vol="148"/>
          <note key="39" pan="0" pos="984" len="12" vol="136"/>
          <note key="34" pan="0" pos="984" len="12" vol="136"/>
          <note key="24" pan="0" pos="996" len="12" vol="148"/>
          <note key="39" pan="0" pos="1008" len="12" vol="136"/>
          <note key="28" pan="0" pos="1008" len="12" vol="174"/>
          <note key="39" pan="0" pos="1032" len="12" vol="136"/>
          <note key="34" pan="0" pos="1032" len="12" vol="136"/>
          <note key="24" pan="0" pos="1044" len="12" vol="148"/>
          <note key="39" pan="0" pos="1056" len="12" vol="136"/>
          <note key="24" pan="0" pos="1056" len="12" vol="148"/>
          <note key="39" pan="0" pos="1080" len="12" vol="136"/>
          <note key="34" pan="0" pos="1080" len="12" vol="136"/>
          <note key="24" pan="0" pos="1092" len="12" vol="148"/>
          <note key="39" pan="0" pos="1104" len="12" vol="136"/>
          <note key="28" pan="0" pos="1104" len="12" vol="174"/>
          <note key="39" pan="0" pos="1128" len="12" vol="136"/>
          <note key="34" pan="0" pos="1128" len="12" vol="136"/>
          <note key="28" pan="0" pos="1140" len="12" vol="174"/>
          <note key="24" pan="0" pos="1140" len="12" vol="148"/>
          <note key="39" pan="0" pos="1152" len="12" vol="136"/>
          <note key="24" pan="0" pos="1152" len="12" vol="148"/>
          <note key="39" pan="0" pos="1176" len="12" vol="136"/>
          <note key="34" pan="0" pos="1176" len="12" vol="136"/>
          <note key="24" pan="0" pos="1188" len="12" vol="148"/>
          <note key="39" pan="0" pos="1200" len="12" vol="136"/>
          <note key="28" pan="0" pos="1200" len="12" vol="174"/>
          <note key="39" pan="0" pos="1224" len="12" vol="136"/>
          <note key="34" pan="0" pos="1224" len="12" vol="136"/>
          <note key="24" pan="0" pos="1236" len="12" vol="148"/>
          <note key="39" pan="0" pos="1248" len="12" vol="136"/>
          <note key="24" pan="0" pos="1248" len="12" vol="148"/>
          <note key="39" pan="0" pos="1272" len="12" vol="136"/>
          <note key="34" pan="0" pos="1272" len="12" vol="136"/>
          <note key="24" pan="0" pos="1284" len="12" vol="148"/>
          <note key="39" pan="0" pos="1296" len="12" vol="136"/>
          <note key="28" pan="0" pos="1296" len="12" vol="174"/>
          <note key="39" pan="0" pos="1320" len="12" vol="136"/>
          <note key="34" pan="0" pos="1320" len="12" vol="136"/>
          <note key="28" pan="0" pos="1332" len="12" vol="174"/>
          <note key="24" pan="0" pos="1332" len="12" vol="148"/>
          <note key="39" pan="0" pos="1344" len="12" vol="136"/>
          <note key="24" pan="0" pos="1344" len="12" vol="148"/>
          <note key="39" pan="0" pos="1368" len="12" vol="136"/>
          <note key="34" pan="0" pos="1368" len="12" vol="136"/>
          <note key="24" pan="0" pos="1380" len="12" vol="148"/>
          <note key="39" pan="0" pos="1392" len="12" vol="136"/>
          <note key="28" pan="0" pos="1392" len="12" vol="174"/>
          <note key="39" pan="0" pos="1416" len="12" vol="136"/>
          <note key="34" pan="0" pos="1416" len="12" vol="136"/>
          <note key="24" pan="0" pos="1428" len="12" vol="148"/>
          <note key="39" pan="0" pos="1440" len="12" vol="136"/>
          <note key="24" pan="0" pos="1440" len="12" vol="148"/>
          <note key="39" pan="0" pos="1464" len="12" vol="136"/>
          <note key="34" pan="0" pos="1464" len="12" vol="136"/>
          <note key="28" pan="0" pos="1464" len="12" vol="174"/>
          <note key="24" pan="0" pos="1476" len="12" vol="148"/>
          <note key="39" pan="0" pos="1488" len="12" vol="136"/>
          <note key="28" pan="0" pos="1488" len="12" vol="174"/>
          <note key="39" pan="0" pos="1512" len="12" vol="136"/>
          <note key="34" pan="0" pos="1512" len="12" vol="136"/>
          <note key="28" pan="0" pos="1512" len="12" vol="174"/>
          <note key="28" pan="0" pos="1524" len="12" vol="174"/>
          <note key="24" pan="0" pos="1524" len="12" vol="148"/>
        </pattern>
        <pattern name="Drums" pos="13824" muted="0" type="1" steps="16">
          <note key="39" pan="0" pos="0" len="12" vol="136"/>
          <note key="37" pan="0" pos="0" len="12" vol="174"/>
          <note key="24" pan="0" pos="0" len="12" vol="148"/>
          <note key="39" pan="0" pos="24" len="12" vol="136"/>
          <note key="34" pan="0" pos="24" len="12" vol="136"/>
          <note key="24" pan="0" pos="36" len="12" vol="148"/>
          <note key="39" pan="0" pos="48" len="12" vol="136"/>
          <note key="28" pan="0" pos="48" len="12" vol="174"/>
          <note key="39" pan="0" pos="72" len="12" vol="136"/>
          <note key="34" pan="0" pos="72" len="12" vol="136"/>
          <note key="24" pan="0" pos="84" len="12" vol="148"/>
          <note key="39" pan="0" pos="96" len="12" vol="136"/>
          <note key="24" pan="0" pos="96" len="12" vol="148"/>
          <note key="39" pan="0" pos="120" len="12" vol="136"/>
          <note key="34" pan="0" pos="120" len="12" vol="136"/>
          <note key="24" pan="0" pos="132" len="12" vol="148"/>
          <note key="39" pan="0" pos="144" len="12" vol="136"/>
          <note key="28" pan="0" pos="144" len="12" vol="174"/>
          <note key="39" pan="0" pos="168" len="12" vol="136"/>
          <note key="34" pan="0" pos="168" len="12" vol="136"/>
          <note key="28" pan="0" pos="180" len="12" vol="174"/>
          <note key="24" pan="0" pos="180" len="12" vol="148"/>
          <note key="39" pan="0" pos="192" len="12" vol="136"/>
          <note key="24" pan="0" pos="192" len="12" vol="148"/>
          <note key="39" pan="0" pos="216" len="12" vol="136"/>
          <note key="34" pan="0" pos="216" len="12" vol="136"/>
          <note key="24" pan="0" pos="228" len="12" vol="148"/>
          <note key="39" pan="0" pos="240" len="12" vol="136"/>
          <note key="28" pan="0" pos="240" len="12" vol="174"/>
          <note key="39" pan="0" pos="264" len="12" vol="136"/>
          <note key="34" pan="0" pos="264" len="12" vol="136"/>
          <note key="24" pan="0" pos="276" len="12" vol="148"/>
          <note key="39" pan="0" pos="288" len="12" vol="136"/>
          <note key="24" pan="0" pos="288" len="12" vol="148"/>
          <note key="39" pan="0" pos="312" len="12" vol="136"/>
          <note key="34" pan="0" pos="312" len="12" vol="136"/>
          <note key="24" pan="0" pos="324" len="12" vol="148"/>
          <note key="39" pan="0" pos="336" len="12" vol="136"/>
          <note key="28" pan="0" pos="336" len="12" vol="174"/>
          <note key="39" pan="0" pos="360" len="12" vol="136"/>
          <note key="34" pan="0" pos="360" len="12" vol="136"/>
          <note key="28" pan="0" pos="372" len="12" vol="174"/>
          <note key="24" pan="0" pos="372" len="12" vol="148"/>
          <note key="39" pan="0" pos="384" len="12" vol="136"/>
          <note key="24" pan="0" pos="384" len="12" vol="148"/>
          <note key="39" pan="0" pos="408" len="12" vol="136"/>
          <note key="34" pan="0" pos="408" len="12" vol="136"/>
          <note key="24" pan="0" pos="420" len="12" vol="148"/>
          <note key="39" pan="0" pos="432" len="12" vol="136"/>
          <note key="28" pan="0" pos="432" len="12" vol="174"/>
          <note key="39" pan="0" pos="456" len="12" vol="136"/>
          <note key="34" pan="0" pos="456" len="12" vol="136"/>
          <note key="24" pan="0" pos="468" len="12" vol="148"/>
          <note key="39" pan="0" pos="480" len="12" vol="136"/>
          <note key="24" pan="0" pos="480" len="12" vol="148"/>
          <note key="39" pan="0" pos="504" len="12" vol="136"/>
          <note key="34" pan="0" pos="504" len="12" vol="136"/>
          <note key="24" pan="0" pos="516" len="12" vol="148"/>
          <note key="39" pan="0" pos="528" len="12" vol="136"/>
          <note key="28" pan="0" pos="528" len="12" vol="174"/>
          <note key="39" pan="0" pos="552" len="12" vol="136"/>
          <note key="34" pan="0" pos="552" len="12" vol="136"/>
          <note key="28" pan="0" pos="564" len="12" vol="174"/>
          <note key="24" pan="0" pos="564" len="12" vol="148"/>
          <note key="39" pan="0" pos="576" len="12" vol="136"/>
          <note key="24" pan="0" pos="576" len="12" vol="148"/>
          <note key="39" pan="0" pos="600" len="12" vol="136"/>
          <note key="34" pan="0" pos="600" len="12" vol="136"/>
          <note key="24" pan="0" pos="612" len="12" vol="148"/>
          <note key="39" pan="0" pos="624" len="12" vol="136"/>
          <note key="28" pan="0" pos="624" len="12" vol="174"/>
          <note key="39" pan="0" pos="648" len="12" vol="136"/>
          <note key="34" pan="0" pos="648" len="12" vol="136"/>
          <note key="24" pan="0" pos="660" len="12" vol="148"/>
          <note key="39" pan="0" pos="672" len="12" vol="136"/>
          <note key="24" pan="0" pos="672" len="12" vol="148"/>
          <note key="39" pan="0" pos="696" len="12" vol="136"/>
          <note key="34" pan="0" pos="696" len="12" vol="136"/>
          <note key="28" pan="0" pos="696" len="12" vol="174"/>
          <note key="24" pan="0" pos="708" len="12" vol="148"/>
          <note key="39" pan="0" pos="720" len="12" vol="136"/>
          <note key="28" pan="0" pos="720" len="12" vol="174"/>
          <note key="39" pan="0" pos="744" len="12" vol="136"/>
          <note key="34" pan="0" pos="744" len="12" vol="136"/>
          <note key="28" pan="0" pos="756" len="12" vol="174"/>
          <note key="24" pan="0" pos="756" len="12" vol="148"/>
          <note key="39" pan="0" pos="768" len="12" vol="136"/>
          <note key="37" pan="0" pos="768" len="12" vol="174"/>
          <note key="24" pan="0" pos="768" len="12" vol="148"/>
          <note key="39" pan="0" pos="792" len="12" vol="136"/>
          <note key="34" pan="0" pos="792" len="12" vol="136"/>
          <note key="24" pan="0" pos="804" len="12" vol="148"/>
          <note key="39" pan="0" pos="816" len="12" vol="136"/>
          <note key="28" pan="0" pos="816" len="12" vol="174"/>
          <note key="39" pan="0" pos="840" len="12" vol="136"/>
          <note key="34" pan="0" pos="840" len="12" vol="136"/>
          <note key="24" pan="0" pos="852" len="12" vol="148"/>
          <note key="39" pan="0" pos="864" len="12" vol="136"/>
          <note key="24" pan="0" pos="864" len="12" vol="148"/>
          <note key="39" pan="0" pos="888" len="12" vol="136"/>
          <note key="34" pan="0" pos="888" len="12" vol="136"/>
          <note key="24" pan="0" pos="900" len="12" vol="148"/>
          <note key="39" pan="0" pos="912" len="12" vol="136"/>
          <note key="28" pan="0" pos="912" len="12" vol="174"/>
          <note key="39" pan="0" pos="936" len="12" vol="136"/>
          <note key="34" pan="0" pos="936" len="12" vol="136"/>
          <note key="28" pan="0" pos="948" len="12" vol="174"/>
          <note key="24" pan="0" pos="948" len="12" vol="148"/>
          <note key="39" pan="0" pos="960" len="12" vol="136"/>
          <note key="24" pan="0" pos="960" len="12" vol="148"/>
          <note key="39" pan="0" pos="984" len="12" vol="136"/>
          <note key="34" pan="0" pos="984" len="12" vol="136"/>
          <note key="24" pan="0" pos="996" len="12" vol="148"/>
          <note key="39" pan="0" pos="1008" len="12" vol="136"/>
          <note key="28" pan="0" pos="1008" len="12" vol="174"/>
          <note key="39" pan="0" pos="1032" len="12" vol="136"/>
          <note key="34" pan="0" pos="1032" len="12" vol="136"/>
          <note key="24" pan="0" pos="1044" len="12" vol="148"/>
          <note key="39" pan="0" pos="1056" len="12" vol="136"/>
          <note key="24" pan="0" pos="1056" len="12" vol="148"/>
          <note key="39" pan="0" pos="1080" len="12" vol="136"/>
          <note key="34" pan="0" pos="1080" len="12" vol="136"/>
          <note key="24" pan="0" pos="1092" len="12" vol="148"/>
          <note key="39" pan="0" pos="1104" len="12" vol="136"/>
          <note key="28" pan="0" pos="1104" len="12" vol="174"/>
          <note key="39" pan="0" pos="1128" len="12" vol="136"/>
          <note key="34" pan="0" pos="1128" len="12" vol="136"/>
          <note key="28" pan="0" pos="1140" len="12" vol="174"/>
          <note key="24" pan="0" pos="1140" len="12" vol="148"/>
          <note key="39" pan="0" pos="1152" len="12" vol="136"/>
          <note key="24" pan="0" pos="1152" len="12" vol="148"/>
          <note key="39" pan="0" pos="1176" len="12" vol="136"/>
          <note key="34" pan="0" pos="1176" len="12" vol="136"/>
          <note key="24" pan="0" pos="1188" len="12" vol="148"/>
          <note key="39" pan="0" pos="1200" len="12" vol="136"/>
          <note key="28" pan="0" pos="1200" len="12" vol="174"/>
          <note key="39" pan="0" pos="1224" len="12" vol="136"/>
          <note key="34" pan="0" pos="1224" len="12" vol="136"/>
          <note key="24" pan="0" pos="1236" len="12" vol="148"/>
          <note key="39" pan="0" pos="1248" len="12" vol="136"/>
          <note key="24" pan="0" pos="1248" len="12" vol="148"/>
          <note key="39" pan="0" pos="1272" len="12" vol="136"/>
          <note key="34" pan="0" pos="1272" len="12" vol="136"/>
          <note key="24" pan="0" pos="1284" len="12" vol="148"/>
          <note key="39" pan="0" pos="1296" len="12" vol="136"/>
          <note key="28" pan="0" pos="1296" len="12" vol="174"/>
          <note key="39" pan="0" pos="1320" len="12" vol="136"/>
          <note key="34" pan="0" pos="1320" len="12" vol="136"/>
          <note key="28" pan="0" pos="1332" len="12" vol="174"/>
          <note key="24" pan="0" pos="1332" len="12" vol="148"/>
          <note key="39" pan="0" pos="1344" len="12" vol="136"/>
          <note key="24" pan="0" pos="1344" len="12" vol="148"/>
          <note key="39" pan="0" pos="1368" len="12" vol="136"/>
          <note key="34" pan="0" pos="1368" len="12" vol="136"/>
          <note key="24" pan="0" pos="1380" len="12" vol="148"/>
          <note key="39" pan="0" pos="1392" len="12" vol="136"/>
          <note key="28" pan="0" pos="1392" len="12" vol="174"/>
          <note key="39" pan="0" pos="1416" len="12" vol="136"/>
          <note key="34" pan="0" pos="1416" len="12" vol="136"/>
          <note key="24" pan="0" pos="1428" len="12" vol="148"/>
          <note key="39" pan="0" pos="1440" len="12" vol="136"/>
          <note key="24" pan="0" pos="1440" len="12" vol="148"/>
          <note key="39" pan="0" pos="1464" len="12" vol="136"/>
          <note key="34" pan="0" pos="1464" len="12" vol="136"/>
          <note key="28" pan="0" pos="1464" len="12" vol="174"/>
          <note key="24" pan="0" pos="1476" len="12" vol="148"/>
          <note key="39" pan="0" pos="1488" len="12" vol="136"/>
          <note key="28" pan="0" pos="1488" len="12" vol="174"/>
          <note key="39" pan="0" pos="1512" len="12" vol="136"/>
          <note key="34" pan="0" pos="1512" len="12" vol="136"/>
          <note key="28" pan="0" pos="1512" len="12" vol="174"/>
          <note key="28" pan="0" pos="1524" len="12" vol="174"/>
          <note key="24" pan="0" pos="1524" len="12" vol="148"/>
        </pattern>
        <pattern name="Drums" pos="15360" muted="0" type="1" steps="16">
          <note key="39" pan="0" pos="0" len="12" vol="136"/>
          <note key="37" pan="0" pos="0" len="12" vol="174"/>
          <note key="24" pan="0" pos="0" len="12" vol="148"/>
          <note key="39" pan="0" pos="24" len="12" vol="136"/>
          <note key="34" pan="0" pos="24" len="12" vol="136"/>
          <note key="24" pan="0" pos="36" len="12" vol="148"/>
          <note key="39" pan="0" pos="48" len="12" vol="136"/>
          <note key="28" pan="0" pos="48" len="12" vol="174"/>
          <note key="39" pan="0" pos="72" len="12" vol="136"/>
          <note key="34" pan="0" pos="72" len="12" vol="136"/>
          <note key="24" pan="0" pos="84" len="12" vol="148"/>
          <note key="39" pan="0" pos="96" len="12" vol="136"/>
          <note key="24" pan="0" pos="96" len="12" vol="148"/>
          <note key="39" pan="0" pos="120" len="12" vol="136"/>
          <note key="34" pan="0" pos="120" len="12" vol="136"/>
          <note key="24" pan="0" pos="132" len="12" vol="148"/>
          <note key="39" pan="0" pos="144" len="12" vol="136"/>
          <note key="28" pan="0" pos="144" len="12" vol="174"/>
          <note key="39" pan="0" pos="168" len="12" vol="136"/>
          <note key="34" pan="0" pos="168" len="12" vol="136"/>
          <note key="28" pan="0" pos="180" len="12" vol="174"/>
          <note key="24" pan="0" pos="180" len="12" vol="148"/>
          <note key="39" pan="0" pos="192" len="12" vol="136"/>
          <note key="24" pan="0" pos="192" len="12" vol="148"/>
          <note key="39" pan="0" pos="216" len="12" vol="136"/>
          <note key="34" pan="0" pos="216" len="12" vol="136"/>
          <note key="24" pan="0" pos="228" len="12" vol="148"/>
          <note key="39" pan="0" pos="240" len="12" vol="136"/>
          <note key="28" pan="0" pos="240" len="12" vol="174"/>
          <note key="39" pan="0" pos="264" len="12" vol="136"/>
          <note key="34" pan="0" pos="264" len="12" vol="136"/>
          <note key="24" pan="0" pos="276" len="12" vol="148"/>
          <note key="39" pan="0" pos="288" len="12" vol="136"/>
          <note key="24" pan="0" pos="288" len="12" vol="148"/>
          <note key="39" pan="0" pos="312" len="12" vol="136"/>
          <note key="34" pan="0" pos="312" len="12" vol="136"/>
          <note key="24" pan="0" pos="324" len="12" vol="148"/>
          <note key="39" pan="0" pos="336" len="12" vol="136"/>
          <note key="28" pan="0" pos="336" len="12" vol="174"/>
          <note key="39" pan="0" pos="360" len="12" vol="136"/>
          <note key="34" pan="0" pos="360" len="12" vol="136"/>
          <note key="28" pan="0" pos="372" len="12" vol="174"/>
          <note key="24" pan="0" pos="372" len="12" vol="148"/>
          <note key="39" pan="0" pos="384" len="12" vol="136"/>
          <note key="24" pan="0" pos="384" len="12" vol="148"/>
          <note key="39" pan="0" pos="408" len="12" vol="136"/>
          <note key="34" pan="0" pos="408" len="12" vol="136"/>
          <note key="24" pan="0" pos="420" len="12" vol="148"/>
          <note key="39" pan="0" pos="432" len="12" vol="136"/>
          <note key="28" pan="0" pos="432" len="12" vol="174"/>
          <note key="39" pan="0" pos="456" len="12" vol="136"/>
          <note key="34" pan="0" pos="456" len="12" vol="136"/>
          <note key="24" pan="0" pos="468" len="12" vol="148"/>
          <note key="39" pan="0" pos="480" len="12" vol="136"/>
          <note key="24" pan="0" pos="480" len="12" vol="148"/>
          <note key="39" pan="0" pos="504" len="12" vol="136"/>
          <note key="34" pan="0" pos="504" len="12" vol="136"/>
          <note key="24" pan="0" pos="516" len="12" vol="148"/>
          <note key="39" pan="0" pos="528" len="12" vol="136"/>
          <note key="28" pan="0" pos="528" len="12" vol="174"/>
          <note key="39" pan="0" pos="552" len="12" vol="136"/>
          <note key="34" pan="0" pos="552" len="12" vol="136"/>
          <note key="28" pan="0" pos="564" len="12" vol="174"/>
          <note key="24" pan="0" pos="564" len="12" vol="148"/>
          <note key="39" pan="0" pos="576" len="12" vol="136"/>
          <note key="24" pan="0" pos="576" len="12" vol="148"/>
          <note key="39" pan="0" pos="600" len="12" vol="136"/>
          <note key="34" pan="0" pos="600" len="12" vol="136"/>
          <note key="24" pan="0" pos="612" len="12" vol="148"/>
          <note key="39" pan="0" pos="624" len="12" vol="136"/>
          <note key="28" pan="0" pos="624" len="12" vol="174"/>
          <note key="39" pan="0" pos="648" len="12" vol="136"/>
          <note key="34" pan="0" pos="648" len="12" vol="136"/>
          <note key="24" pan="0" pos="660" len="12" vol="148"/>
          <note key="39" pan="0" pos="672" len="12" vol="136"/>
          <note key="24" pan="0" pos="672" len="12" vol="148"/>
          <note key="39" pan="0" pos="696" len="12" vol="136"/>
          <note key="34" pan="0" pos="696" len="12" vol="136"/>
          <note key="28" pan="0" pos="696" len="12" vol="174"/>
          <note key="24" pan="0" pos="708" len="12" vol="148"/>
          <note key="39" pan="0" pos="720" len="12" vol="136"/>
          <note key="28" pan="0" pos="720" len="12" vol="174"/>
          <note key="39" pan="0" pos="744" len="12" vol="136"/>
          <note key="34" pan="0" pos="744" len="12" vol="136"/>
          <note key="28" pan="0" pos="756" len="12" vol="174"/>
          <note key="24" pan="0" pos="756" len="12" vol="148"/>
          <note key="39" pan="0" pos="768" len="12" vol="136"/>
          <note key="37" pan="0" pos="768" len="12" vol="174"/>
          <note key="24" pan="0" pos="768" len="12" vol="148"/>
          <note key="39" pan="0" pos="792" len="12" vol="136"/>
          <note key="34" pan="0" pos="792" len="12" vol="136"/>
          <note key="24" pan="0" pos="804" len="12" vol="148"/>
          <note key="39" pan="0" pos="816" len="12" vol="136"/>
          <note key="28" pan="0" pos="816" len="12" vol="174"/>
          <note key="39" pan="0" pos="840" len="12" vol="136"/>
          <note key="34" pan="0" pos="840" len="12" vol="136"/>
          <note key="24" pan="0" pos="852" len="12" vol="148"/>
          <note key="39" pan="0" pos="864" len="12" vol="136"/>
          <note key="24" pan="0" pos="864" len="12" vol="148"/>
          <note key="39" pan="0" pos="888" len="12" vol="136"/>
          <note key="34" pan="0" pos="888" len="12" vol="136"/>
          <note key="24" pan="0" pos="900" len="12" vol="148"/>
          <note key="39" pan="0" pos="912" len="12" vol="136"/>
          <note key="28" pan="0" pos="912" len="12" vol="174"/>
          <note key="39" pan="0" pos="936" len="12" vol="136"/>
          <note key="34" pan="0" pos="936" len="12" vol="136"/>
          <note key="28" pan="0" pos="948" len="12" vol="174"/>
          <note key="24" pan="0" pos="948" len="12" vol="148"/>
          <note key="39" pan="0" pos="960" len="12" vol="136"/>
          <note key="24" pan="0" pos="960" len="12" vol="148"/>
          <note key="39" pan="0" pos="984" len="12" vol="136"/>
          <note key="34" pan="0" pos="984" len="12" vol="136"/>
          <note key="24" pan="0" pos="996" len="12" vol="148"/>
          <note key="39" pan="0" pos="1008" len="12" vol="136"/>
          <note key="28" pan="0" pos="1008" len="12" vol="174"/>
          <note key="39" pan="0" pos="1032" len="12" vol="136"/>
          <note key="34" pan="0" pos="1032" len="12" vol="136"/>
          <note key="24" pan="0" pos="1044" len="12" vol="148"/>
          <note key="39" pan="0" pos="1056" len="12" vol="136"/>
          <note key="24" pan="0" pos="1056" len="12" vol="148"/>
          <note key="39" pan="0" pos="1080" len="12" vol="136"/>
          <note key="34" pan="0" pos="1080" len="12" vol="136"/>
          <note key="24" pan="0" pos="1092" len="12" vol="148"/>
          <note key="39" pan="0" pos="1104" len="12" vol="136"/>
          <note key="28" pan="0" pos="1104" len="12" vol="174"/>
          <note key="39" pan="0" pos="1128" len="12" vol="136"/>
          <note key="34" pan="0" pos="1128" len="12" vol="136"/>
          <note key="28" pan="0" pos="1140" len="12" vol="174"/>
          <note key="24" pan="0" pos="1140" len="12" vol="148"/>
          <note key="39" pan="0" pos="1152" len="12" vol="136"/>
          <note key="24" pan="0" pos="1152" len="12" vol="148"/>
          <note key="39" pan="0" pos="1176" len="12" vol="136"/>
          <note key="34" pan="0" pos="1176" len="12" vol="136"/>
          <note key="24" pan="0" pos="1188" len="12" vol="148"/>
          <note key="39" pan="0" pos="1200" len="12" vol="136"/>
          <note key="28" pan="0" pos="1200" len="12" vol="174"/>
          <note key="39" pan="0" pos="1224" len="12" vol="136"/>
          <note key="34" pan="0" pos="1224" len="12" vol="136"/>
          <note key="24" pan="0" pos="1236" len="12" vol="148"/>
          <note key="39" pan="0" pos="1248" len="12" vol="136"/>
          <note key="24" pan="0" pos="1248" len="12" vol="148"/>
          <note key="39" pan="0" pos="1272" len="12" vol="136"/>
          <note key="34" pan="0" pos="1272" len="12" vol="136"/>
          <note key="24" pan="0" pos="1284" len="12" vol="148"/>
          <note key="39" pan="0" pos="1296" len="12" vol="136"/>
          <note key="28" pan="0" pos="1296" len="12" vol="174"/>
          <note key="39" pan="0" pos="1320" len="12" vol="136"/>
          <note key="34" pan="0" pos="1320" len="12" vol="136"/>
          <note key="28" pan="0" pos="1332" len="12" vol="174"/>
          <note key="24" pan="0" pos="1332" len="12" vol="148"/>
          <note key="39" pan="0" pos="1344" len="12" vol="136"/>
          <note key="24" pan="0" pos="1344" len="12" vol="148"/>
          <note key="39" pan="0" pos="1368" len="12" vol="136"/>
          <note key="34" pan="0" pos="1368" len="12" vol="136"/>
          <note key="24" pan="0" pos="1380" len="12" vol="148"/>
          <note key="39" pan="0" pos="1392" len="12" vol="136"/>
          <note key="28" pan="0" pos="1392" len="12" vol="174"/>
          <note key="39" pan="0" pos="1416" len="12" vol="136"/>
          <note key="34" pan="0" pos="1416" len="12" vol="136"/>
          <note key="24" pan="0" pos="1428" len="12" vol="148"/>
          <note key="39" pan="0" pos="1440" len="12" vol="136"/>
          <note key="24" pan="0" pos="1440" len="12" vol="148"/>
          <note key="39" pan="0" pos="1464" len="12" vol="136"/>
          <note key="34" pan="0" pos="1464" len="12" vol="136"/>
          <note key="28" pan="0" pos="1464" len="12" vol="174"/>
          <note key="24" pan="0" pos="1476" len="12" vol="148"/>
          <note key="39" pan="0" pos="1488" len="12" vol="136"/>
          <note key="28" pan="0" pos="1488" len="12" vol="174"/>
          <note key="39" pan="0" pos="1512" len="12" vol="136"/>
          <note key="34" pan="0" pos="1512" len="12" vol="136"/>
          <note key="28" pan="0" pos="1512" len="12" vol="174"/>
          <note key="28" pan="0" pos="1524" len="12" vol="174"/>
          <note key="24" pan="0" pos="1524" len="12" vol="148"/>
        </pattern>
        <pattern name="Drums" pos="16896" muted="0" type="1" steps="16">
          <note key="39" pan="0" pos="0" len="12" vol="136"/>
          <note key="37" pan="0" pos="0" len="12" vol="174"/>
          <note key="24" pan="0" pos="0" len="12" vol="148"/>
          <note key="39" pan="0" pos="24" len="12" vol="136"/>
          <note key="34" pan="0" pos="24" len="12" vol="136"/>
          <note key="24" pan="0" pos="36" len="12" vol="148"/>
          <note key="39" pan="0" pos="48" len="12" vol="136"/>
          <note key="28" pan="0" pos="48" len="12" vol="174"/>
          <note key="39" pan="0" pos="72" len="12" vol="136"/>
          <note key="34" pan="0" pos="72" len="12" vol="136"/>
          <note key="24" pan="0" pos="84" len="12" vol="148"/>
          <note key="39" pan="0" pos="96" len="12" vol="136"/>
          <note key="24" pan="0" pos="96" len="12" vol="148"/>
          <note key="39" pan="0" pos="120" len="12" vol="136"/>
          <note key="34" pan="0" pos="120" len="12" vol="136"/>
          <note key="24" pan="0" pos="132" len="12" vol="148"/>
          <note key="39" pan="0" pos="144" len="12" vol="136"/>
          <note key="28" pan="0" pos="144" len="12" vol="174"/>
          <note key="39" pan="0" pos="168" len="12" vol="136"/>
          <note key="34" pan="0" pos="168" len="12" vol="136"/>
          <note key="28" pan="0" pos="180" len="12" vol="174"/>
          <note key="24" pan="0" pos="180" len="12" vol="148"/>
          <note key="39" pan="0" pos="192" len="12" vol="136"/>
          <note key="24" pan="0" pos="192" len="12" vol="148"/>
          <note key="39" pan="0" pos="216" len="12" vol="136"/>
          <note key="34" pan="0" pos="216" len="12" vol="136"/>
          <note key="24" pan="0" pos="228" len="12" vol="148"/>
          <note key="39" pan="0" pos="240" len="12" vol="136"/>
          <note key="28" pan="0" pos="240" len="12" vol="174"/>
          <note key="39" pan="0" pos="264" len="12" vol="136"/>
          <note key="34" pan="0" pos="264" len="12" vol="136"/>
          <note key="24" pan="0" pos="276" len="12" vol="148"/>
          <note key="39" pan="0" pos="288" len="12" vol="136"/>
          <note key="24" pan="0" pos="288" len="12" vol="148"/>
          <note key="39" pan="0" pos="312" len="12" vol="136"/>
          <note key="34" pan="0" pos="312" len="12" vol="136"/>
          <note key="24" pan="0" pos="324" len="12" vol="148"/>
          <note key="39" pan="0" pos="336" len="12" vol="136"/>
          <note key="28" pan="0" pos="336" len="12" vol="174"/>
          <note key="39" pan="0" pos="360" len="12" vol="136"/>
          <note key="34" pan="0" pos="360" len="12" vol="136"/>
          <note key="28" pan="0" pos="372" len="12" vol="174"/>
          <note key="24" pan="0" pos="372" len="12" vol="148"/>
          <note key="39" pan="0" pos="384" len="12" vol="136"/>
          <note key="24" pan="0" pos="384" len="12" vol="148"/>
          <note key="39" pan="0" pos="408" len="12" vol="136"/>
          <note key="34" pan="0" pos="408" len="12" vol="136"/>
          <note key="24" pan="0" pos="420" len="12" vol="148"/>
          <note key="39" pan="0" pos="432" len="12" vol="136"/>
          <note key="28" pan="0" pos="432" len="12" vol="174"/>
          <note key="39" pan="0" pos="456" len="12" vol="136"/>
          <note key="34" pan="0" pos="456" len="12" vol="136"/>
          <note key="24" pan="0" pos="468" len="12" vol="148"/>
          <note key="39" pan="0" pos="480" len="12" vol="136"/>
          <note key="24" pan="0" pos="480" len="12" vol="148"/>
          <note key="39" pan="0" pos="504" len="12" vol="136"/>
          <note key="34" pan="0" pos="504" len="12" vol="136"/>
          <note key="24" pan="0" pos="516" len="12" vol="148"/>
          <note key="39" pan="0" pos="528" len="12" vol="136"/>
          <note key="28" pan="0" pos="528" len="12" vol="174"/>
          <note key="39" pan="0" pos="552" len="12" vol="136"/>
          <note key="34" pan="0" pos="552" len="12" vol="136"/>
          <note key="28" pan="0" pos="564" len="12" vol="174"/>
          <note key="24" pan="0" pos="564" len="12" vol="148"/>
          <note key="39" pan="0" pos="576" len="12" vol="136"/>
          <note key="24" pan="0" pos="576" len="12" vol="148"/>
          <note key="39" pan="0" pos="600" len="12" vol="136"/>
          <note key="34" pan="0" pos="600" len="12" vol="136"/>
          <note key="24" pan="0" pos="612" len="12" vol="148"/>
          <note key="39" pan="0" pos="624" len="12" vol="136"/>
          <note key="28" pan="0" pos="624" len="12" vol="174"/>
          <note key="39" pan="0" pos="648" len="12" vol="136"/>
          <note key="34" pan="0" pos="648" len="12" vol="136"/>
          <note key="24" pan="0" pos="660" len="12" vol="148"/>
          <note key="39" pan="0" pos="672" len="12" vol="136"/>
          <note key="24" pan="0" pos="672" len="12" vol="148"/>
          <note key="39" pan="0" pos="696" len="12" vol="136"/>
          <note key="34" pan="0" pos="696" len="12" vol="136"/>
          <note key="28" pan="0" pos="696" len="12" vol="174"/>
          <note key="24" pan="0" pos="708" len="12" vol="148"/>
          <note key="39" pan="0" pos="720" len="12" vol="136"/>
          <note key="28" pan="0" pos="720" len="12" vol="174"/>
          <note key="39" pan="0" pos="744" len="12" vol="136"/>
          <note key="34" pan="0" pos="744" len="12" vol="136"/>
          <note key="28" pan="0" pos="756" len="12" vol="174"/>
          <note key="24" pan="0" pos="756" len="12" vol="148"/>
          <note key="39" pan="0" pos="768" len="12" vol="136"/>
          <note key="37" pan="0" pos="768" len="12" vol="174"/>
          <note key="24" pan="0" pos="768" len="12" vol="148"/>
          <note key="39" pan="0" pos="792" len="12" vol="136"/>
          <note key="34" pan="0" pos="792" len="12" vol="136"/>
          <note key="24" pan="0" pos="804" len="12" vol="148"/>
          <note key="39" pan="0" pos="816" len="12" vol="136"/>
          <note key="28" pan="0" pos="816" len="12" vol="174"/>
          <note key="39" pan="0" pos="840" len="12" vol="136"/>
          <note key="34" pan="0" pos="840" len="12" vol="136"/>
          <note key="24" pan="0" pos="852" len="12" vol="148"/>
          <note key="39" pan="0" pos="864" len="12" vol="136"/>
          <note key="24" pan="0" pos="864" len="12" vol="148"/>
          <note key="39" pan="0" pos="888" len="12" vol="136"/>
          <note key="34" pan="0" pos="888" len="12" vol="136"/>
          <note key="24" pan="0" pos="900" len="12" vol="148"/>
          <note key="39" pan="0" pos="912" len="12" vol="136"/>
          <note key="28" pan="0" pos="912" len="12" vol="174"/>
          <note key="39" pan="0" pos="936" len="12" vol="136"/>
          <note key="34" pan="0" pos="936" len="12" vol="136"/>
          <note key="28" pan="0" pos="948" len="12" vol="174"/>
          <note key="24" pan="0" pos="948" len="12" vol="148"/>
          <note key="39" pan="0" pos="960" len="12" vol="136"/>
          <note key="24" pan="0" pos="960" len="12" vol="148"/>
          <note key="39" pan="0" pos="984" len="12" vol="136"/>
          <note key="34" pan="0" pos="984" len="12" vol="136"/>
          <note key="24" pan="0" pos="996" len="12" vol="148"/>
          <note key="39" pan="0" pos="1008" len="12" vol="136"/>
          <note key="28" pan="0" pos="1008" len="12" vol="174"/>
          <note key="39" pan="0" pos="1032" len="12" vol="136"/>
          <note key="34" pan="0" pos="1032" len="12" vol="136"/>
          <note key="24" pan="0" pos="1044" len="12" vol="148"/>
          <note key="39" pan="0" pos="1056" len="12" vol="136"/>
          <note key="24" pan="0" pos="1056" len="12" vol="148"/>
          <note key="39" pan="0" pos="1080" len="12" vol="136"/>
          <note key="34" pan="0" pos="1080" len="12" vol="136"/>
          <note key="24" pan="0" pos="1092" len="12" vol="148"/>
          <note key="39" pan="0" pos="1104" len="12" vol="136"/>
          <note key="28" pan="0" pos="1104" len="12" vol="174"/>
          <note key="39" pan="0" pos="1128" len="12" vol="136"/>
          <note key="34" pan="0" pos="1128" len="12" vol="136"/>
          <note key="28" pan="0" pos="1140" len="12" vol="174"/>
          <note key="24" pan="0" pos="1140" len="12" vol="148"/>
          <note key="39" pan="0" pos="1152" len="12" vol="136"/>
          <note key="24" pan="0" pos="1152" len="12" vol="148"/>
          <note key="39" pan="0" pos="1176" len="12" vol="136"/>
          <note key="34" pan="0" pos="1176" len="12" vol="136"/>
          <note key="24" pan="0" pos="1188" len="12" vol="148"/>
          <note key="39" pan="0" pos="1200" len="12" vol="136"/>
          <note key="28" pan="0" pos="1200" len="12" vol="174"/>
          <note key="39" pan="0" pos="1224" len="12" vol="136"/>
          <note key="34" pan="0" pos="1224" len="12" vol="136"/>
          <note key="24" pan="0" pos="1236" len="12" vol="148"/>
          <note key="39" pan="0" pos="1248" len="12" vol="136"/>
          <note key="24" pan="0" pos="1248" len="12" vol="148"/>
          <note key="39" pan="0" pos="1272" len="12" vol="136"/>
          <note key="34" pan="0" pos="1272" len="12" vol="136"/>
          <note key="24" pan="0" pos="1284" len="12" vol="148"/>
          <note key="39" pan="0" pos="1296" len="12" vol="136"/>
          <note key="28" pan="0" pos="1296" len="12" vol="174"/>
          <note key="39" pan="0" pos="1320" len="12" vol="136"/>
          <note key="34" pan="0" pos="1320" len="12" vol="136"/>
          <note key="28" pan="0" pos="1332" len="12" vol="174"/>
          <note key="24" pan="0" pos="1332" len="12" vol="148"/>
          <note key="39" pan="0" pos="1344" len="12" vol="136"/>
          <note key="24" pan="0" pos="1344" len="12" vol="148"/>
          <note key="39" pan="0" pos="1368" len="12" vol="136"/>
          <note key="34" pan="0" pos="1368" len="12" vol="136"/>
          <note key="24" pan="0" pos="1380" len="12" vol="148"/>
          <note key="39" pan="0" pos="1392" len="12" vol="136"/>
          <note key="28" pan="0" pos="1392" len="12" vol="174"/>
          <note key="39" pan="0" pos="1416" len="12" vol="136"/>
          <note key="34" pan="0" pos="1416" len="12" vol="136"/>
          <note key="24" pan="0" pos="1428" len="12" vol="148"/>
          <note key="39" pan="0" pos="1440" len="12" vol="136"/>
          <note key="24" pan="0" pos="1440" len="12" vol="148"/>
          <note key="39" pan="0" pos="1464" len="12" vol="136"/>
          <note key="34" pan="0" pos="1464" len="12" vol="136"/>
          <note key="28" pan="0" pos="1464" len="12" vol="174"/>
          <note key="24" pan="0" pos="1476" len="12" vol="148"/>
          <note key="39" pan="0" pos="1488" len="12" vol="136"/>
          <note key="28" pan="0" pos="1488" len="12" vol="174"/>
          <note key="39" pan="0" pos="1512" len="12" vol="136"/>
          <note key="34" pan="0" pos="1512" len="12" vol="136"/>
          <note key="28" pan="0" pos="1512" len="12" vol="174"/>
          <note key="28" pan="0" pos="1524" len="12" vol="174"/>
          <note key="24" pan="0" pos="1524" len="12" vol="148"/>
        </pattern>
        <pattern name="Drums" pos="18432" muted="0" type="1" steps="16">
          <note key="39" pan="0" pos="0" len="12" vol="136"/>
          <note key="37" pan="0" pos="0" len="12" vol="174"/>
          <note key="24" pan="0" pos="0" len="12" vol="148"/>
          <note key="39" pan="0" pos="24" len="12" vol="136"/>
          <note key="34" pan="0" pos="24" len="12" vol="136"/>
          <note key="24" pan="0" pos="36" len="12" vol="148"/>
          <note key="39" pan="0" pos="48" len="12" vol="136"/>
          <note key="28" pan="0" pos="48" len="12" vol="174"/>
          <note key="39" pan="0" pos="72" len="12" vol="136"/>
          <note key="34" pan="0" pos="72" len="12" vol="136"/>
          <note key="24" pan="0" pos="84" len="12" vol="148"/>
          <note key="39" pan="0" pos="96" len="12" vol="136"/>
          <note key="24" pan="0" pos="96" len="12" vol="148"/>
          <note key="39" pan="0" pos="120" len="12" vol="136"/>
          <note key="34" pan="0" pos="120" len="12" vol="136"/>
          <note key="24" pan="0" pos="132" len="12" vol="148"/>
          <note key="39" pan="0" pos="144" len="12" vol="136"/>
          <note key="28" pan="0" pos="144" len="12" vol="174"/>
          <note key="39" pan="0" pos="168" len="12" vol="136"/>
          <note key="34" pan="0" pos="168" len="12" vol="136"/>
          <note key="28" pan="0" pos="180" len="12" vol="174"/>
          <note key="24" pan="0" pos="180" len="12" vol="148"/>
          <note key="39" pan="0" pos="192" len="12" vol="136"/>
          <note key="24" pan="0" pos="192" len="12" vol="148"/>
          <note key="39" pan="0" pos="216" len="12" vol="136"/>
          <note key="34" pan="0" pos="216" len="12" vol="136"/>
          <note key="24" pan="0" pos="228" len="12" vol="148"/>
          <note key="39" pan="0" pos="240" len="12" vol="136"/>
          <note key="28" pan="0" pos="240" len="12" vol="174"/>
          <note key="39" pan="0" pos="264" len="12" vol="136"/>
          <note key="34" pan="0" pos="264" len="12" vol="136"/>
          <note key="24" pan="0" pos="276" len="12" vol="148"/>
          <note key="39" pan="0" pos="288" len="12" vol="136"/>
          <note key="24" pan="0" pos="288" len="12" vol="148"/>
          <note key="39" pan="0" pos="312" len="12" vol="136"/>
          <note key="34" pan="0" pos="312" len="12" vol="136"/>
          <note key="24" pan="0" pos="324" len="12" vol="148"/>
          <note key="39" pan="0" pos="336" len="12" vol="136"/>
          <note key="28" pan="0" pos="336" len="12" vol="174"/>
          <note key="39" pan="0" pos="360" len="12" vol="136"/>
          <note key="34" pan="0" pos="360" len="12" vol="136"/>
          <note key="28" pan="0" pos="372" len="12" vol="174"/>
          <note key="24" pan="0" pos="372" len="12" vol="148"/>
          <note key="39" pan="0" pos="384" len="12" vol="136"/>
          <note key="24" pan="0" pos="384" len="12" vol="148"/>
          <note key="39" pan="0" pos="408" len="12" vol="136"/>
          <note key="34" pan="0" pos="408" len="12" vol="136"/>
          <note key="24" pan="0" pos="420" len="12" vol="148"/>
          <note key="39" pan="0" pos="432" len="12" vol="136"/>
          <note key="28" pan="0" pos="432" len="12" vol="174"/>
          <note key="39" pan="0" pos="456" len="12" vol="136"/>
          <note key="34" pan="0" pos="456" len="12" vol="136"/>
          <note key="24" pan="0" pos="468" len="12" vol="148"/>
          <note key="39" pan="0" pos="480" len="12" vol="136"/>
          <note key="24" pan="0" pos="480" len="12" vol="148"/>
          <note key="39" pan="0" pos="504" len="12" vol="136"/>
          <note key="34" pan="0" pos="504" len="12" vol="136"/>
          <note key="24" pan="0" pos="516" len="12" vol="148"/>
          <note key="39" pan="0" pos="528" len="12" vol="136"/>
          <note key="28" pan="0" pos="528" len="12" vol="174"/>
          <note key="39" pan="0" pos="552" len="12" vol="136"/>
          <note key="34" pan="0" pos="552" len="12" vol="136"/>
          <note key="28" pan="0" pos="564" len="12" vol="174"/>
          <note key="24" pan="0" pos="564" len="12" vol="148"/>
          <note key="39" pan="0" pos="576" len="12" vol="136"/>
          <note key="24" pan="0" pos="576" len="12" vol="148"/>
          <note key="39" pan="0" pos="600" len="12" vol="136"/>
          <note key="34" pan="0" pos="600" len="12" vol="136"/>
          <note key="24" pan="0" pos="612" len="12" vol="148"/>
          <note key="39" pan="0" pos="624" len="12" vol="136"/>
          <note key="28" pan="0" pos="624" len="12" vol="174"/>
          <note key="39" pan="0" pos="648" len="12" vol="136"/>
          <note key="34" pan="0" pos="648" len="12" vol="136"/>
          <note key="24" pan="0" pos="660" len="12" vol="148"/>
          <note key="39" pan="0" pos="672" len="12" vol="136"/>
          <note key="24" pan="0" pos="672" len="12" vol="148"/>
          <note key="39" pan="0" pos="696" len="12" vol="136"/>
          <note key="34" pan="0" pos="696" len="12" vol="136"/>
          <note key="28" pan="0" pos="696" len="12" vol="174"/>
          <note key="24" pan="0" pos="708" len="12" vol="148"/>
          <note key="39" pan="0" pos="720" len="12" vol="136"/>
          <note key="28" pan="0" pos="720" len="12" vol="174"/>
          <note key="39" pan="0" pos="744" len="12" vol="136"/>
          <note key="34" pan="0" pos="744" len="12" vol="136"/>
          <note key="28" pan="0" pos="756" len="12" vol="174"/>
          <note key="24" pan="0" pos="756" len="12" vol="148"/>
          <note key="39" pan="0" pos="768" len="12" vol="136"/>
          <note key="37" pan="0" pos="768" len="12" vol="174"/>
          <note key="24" pan="0" pos="768" len="12" vol="148"/>
          <note key="39" pan="0" pos="792" len="12" vol="136"/>
          <note key="34" pan="0" pos="792" len="12" vol="136"/>
          <note key="24" pan="0" pos="804" len="12" vol="148"/>
          <note key="39" pan="0" pos="816" len="12" vol="136"/>
          <note key="28" pan="0" pos="816" len="12" vol="174"/>
          <note key="39" pan="0" pos="840" len="12" vol="136"/>
          <note key="34" pan="0" pos="840" len="12" vol="136"/>
          <note key="24" pan="0" pos="852" len="12" vol="148"/>
          <note key="39" pan="0" pos="864" len="12" vol="136"/>
          <note key="24" pan="0" pos="864" len="12" vol="148"/>
          <note key="39" pan="0" pos="888" len="12" vol="136"/>
          <note key="34" pan="0" pos="888" len="12" vol="136"/>
          <note key="24" pan="0" pos="900" len="12" vol="148"/>
          <note key="39" pan="0" pos="912" len="12" vol="136"/>
          <note key="28" pan="0" pos="912" len="12" vol="174"/>
          <note key="39" pan="0" pos="936" len="12" vol="136"/>
          <note key="34" pan="0" pos="936" len="12" vol="136"/>
          <note key="28" pan="0" pos="948" len="12" vol="174"/>
          <note key="24" pan="0" pos="948" len="12" vol="148"/>
          <note key="39" pan="0" pos="960" len="12" vol="136"/>
          <note key="24" pan="0" pos="960" len="12" vol="148"/>
          <note key="39" pan="0" pos="984" len="12" vol="136"/>
          <note key="34" pan="0" pos="984" len="12" vol="136"/>
          <note key="24" pan="0" pos="996" len="12" vol="148"/>
          <note key="39" pan="0" pos="1008" len="12" vol="136"/>
          <note key="28" pan="0" pos="1008" len="12" vol="174"/>
          <note key="39" pan="0" pos="1032" len="12" vol="136"/>
          <note key="34" pan="0" pos="1032" len="12" vol="136"/>
          <note key="24" pan="0" pos="1044" len="12" vol="148"/>
          <note key="39" pan="0" pos="1056" len="12" vol="136"/>
          <note key="24" pan="0" pos="1056" len="12" vol="148"/>
          <note key="39" pan="0" pos="1080" len="12" vol="136"/>
          <note key="34" pan="0" pos="1080" len="12" vol="136"/>
          <note key="24" pan="0" pos="1092" len="12" vol="148"/>
          <note key="39" pan="0" pos="1104" len="12" vol="136"/>
          <note key="28" pan="0" pos="1104" len="12" vol="174"/>
          <note key="39" pan="0" pos="1128" len="12" vol="136"/>
          <note key="34" pan="0" pos="1128" len="12" vol="136"/>
          <note key="28" pan="0" pos="1140" len="12" vol="174"/>
          <note key="24" pan="0" pos="1140" len="12" vol="148"/>
          <note key="39" pan="0" pos="1152" len="12" vol="136"/>
          <note key="24" pan="0" pos="1152" len="12" vol="148"/>
          <note key="39" pan="0" pos="1176" len="12" vol="136"/>
          <note key="34" pan="0" pos="1176" len="12" vol="136"/>
          <note key="24" pan="0" pos="1188" len="12" vol="148"/>
          <note key="39" pan="0" pos="1200" len="12" vol="136"/>
          <note key="28" pan="0" pos="1200" len="12" vol="174"/>
          <note key="39" pan="0" pos="1224" len="12" vol="136"/>
          <note key="34" pan="0" pos="1224" len="12" vol="136"/>
          <note key="24" pan="0" pos="1236" len="12" vol="148"/>
          <note key="39" pan="0" pos="1248" len="12" vol="136"/>
          <note key="24" pan="0" pos="1248" len="12" vol="148"/>
          <note key="39" pan="0" pos="1272" len="12" vol="136"/>
          <note key="34" pan="0" pos="1272" len="12" vol="136"/>
          <note key="24" pan="0" pos="1284" len="12" vol="148"/>
          <note key="39" pan="0" pos="1296" len="12" vol="136"/>
          <note key="28" pan="0" pos="1296" len="12" vol="174"/>
          <note key="39" pan="0" pos="1320" len="12" vol="136"/>
          <note key="34" pan="0" pos="1320" len="12" vol="136"/>
          <note key="28" pan="0" pos="1332" len="12" vol="174"/>
          <note key="24" pan="0" pos="1332" len="12" vol="148"/>
          <note key="39" pan="0" pos="1344" len="12" vol="136"/>
          <note key="24" pan="0" pos="1344" len="12" vol="148"/>
          <note key="39" pan="0" pos="1368" len="12" vol="136"/>
          <note key="34" pan="0" pos="1368" len="12" vol="136"/>
          <note key="24" pan="0" pos="1380" len="12" vol="148"/>
          <note key="39" pan="0" pos="1392" len="12" vol="136"/>
          <note key="28" pan="0" pos="1392" len="12" vol="174"/>
          <note key="39" pan="0" pos="1416" len="12" vol="136"/>
          <note key="34" pan="0" pos="1416" len="12" vol="136"/>
          <note key="24" pan="0" pos="1428" len="12" vol="148"/>
          <note key="39" pan="0" pos="1440" len="12" vol="136"/>
          <note key="24" pan="0" pos="1440" len="12" vol="148"/>
          <note key="39" pan="0" pos="1464" len="12" vol="136"/>
          <note key="34" pan="0" pos="1464" len="12" vol="136"/>
          <note key="28" pan="0" pos="1464" len="12" vol="174"/>
          <note key="24" pan="0" pos="1476" len="12" vol="148"/>
          <note key="39" pan="0" pos="1488" len="12" vol="136"/>
          <note key="28" pan="0" pos="1488" len="12" vol="174"/>
          <note key="39" pan="0" pos="1512" len="12" vol="136"/>
          <note key="34" pan="0" pos="1512" len="12" vol="136"/>
          <note key="28" pan="0" pos="1512" len="12" vol="174"/>
          <note key="28" pan="0" pos="1524" len="12" vol="174"/>
          <note key="24" pan="0" pos="1524" len="12" vol="148"/>
        </pattern>
        <pattern name="Drums" pos="19968" muted="0" type="1" steps="16">
          <note key="37" pan="0" pos="0" len="12" vol="148"/>
          <note key="26" pan="0" pos="168" len="12" vol="76"/>
          <note key="26" pan="0" pos="180" len="12" vol="93"/>
          <note key="26" pan="0" pos="192" len="12" vol="102"/>
          <note key="28" pan="0" pos="312" len="12" vol="161"/>
          <note key="24" pan="0" pos="312" len="12" vol="100"/>
          <note key="28" pan="0" pos="336" len="12" vol="161"/>
          <note key="24" pan="0" pos="336" len="12" vol="100"/>
          <note key="28" pan="0" pos="360" len="12" vol="161"/>
          <note key="24" pan="0" pos="360" len="12" vol="100"/>
          <note key="28" pan="0" pos="372" len="12" vol="161"/>
          <note key="24" pan="0" pos="372" len="12" vol="100"/>
        </pattern>
      </track>
      <track name="Carla Rack" muted="0" type="0" solo="0">
        <instrumenttrack pitchrange="1" pan="0" fxch="0" basenote="45" pitch="0" vol="165.60001" usemasterpitch="1">
          <instrument name="carlarack">
            <carlarack>
              <CARLA-PROJECT VERSION="2.5">
                <EngineSettings>
                  <ForceStereo>false</ForceStereo>
                  <PreferPluginBridges>false</PreferPluginBridges>
                  <PreferUiBridges>true</PreferUiBridges>
                  <UIsAlwaysOnTop>false</UIsAlwaysOnTop>
                  <MaxParameters>200</MaxParameters>
                  <UIBridgesTimeout>4000</UIBridgesTimeout>
                  <LADSPA_PATH>/usr/lib/ladspa:/usr/local/lib/ladspa:/var/home/pastthepixels/.ladspa</LADSPA_PATH>
                  <DSSI_PATH>/usr/lib/dssi:/usr/local/lib/dssi:/var/home/pastthepixels/.dssi</DSSI_PATH>
                  <LV2_PATH>/usr/lib/lv2:/usr/local/lib/lv2:/var/home/pastthepixels/.lv2</LV2_PATH>
                  <VST2_PATH>/usr/lib/lxvst:/usr/lib/vst:/usr/lib/vst3:/usr/local/lib/lxvst:/usr/local/lib/vst/var/home/pastthepixels/.lxvst:/var/home/pastthepixels/.vst</VST2_PATH>
                  <VST3_PATH>/usr/lib/vst3:/usr/local/lib/vst3:/var/home/pastthepixels/.vst3</VST3_PATH>
                  <SF2_PATH>/usr/share/soundfonts:/usr/share/sounds/sf2:/usr/share/sounds/sf3:/var/home/pastthepixels/.sounds/sf2:/var/home/pastthepixels/.sounds/sf3</SF2_PATH>
                  <SFZ_PATH>/usr/share/sounds/sfz:/var/home/pastthepixels/.sounds/sfz</SFZ_PATH>
                  <JSFX_PATH>/var/home/pastthepixels/.config/REAPER/Effects</JSFX_PATH>
                </EngineSettings>
                <!-- Blonde Bop Drumkit -->
                <Plugin>
                  <Info>
                    <Type>LV2</Type>
                    <Name>Blonde Bop Drumkit</Name>
                    <URI>http://gareus.org/oss/lv2/avldrums#BlondeBop</URI>
                  </Info>
                  <Data>
                    <Active>Yes</Active>
                    <ControlChannel>1</ControlChannel>
                    <Options>0x3f0</Options>
                  </Data>
                </Plugin>
              </CARLA-PROJECT>
            </carlarack>
          </instrument>
          <eldata fcut="14000" ftype="0" fwet="0" fres="0.5">
            <elvol dec="0.5" ctlenvamt="0" latt="0" sustain="0.5" amt="0" lamt="0" pdel="0" rel="0.1" lshp="0" lpdel="0" hold="0.5" lspd_numerator="4" lspd_denominator="4" att="0" x100="0" lspd="0.1" lspd_syncmode="0" userwavefile=""/>
            <elcut dec="0.5" ctlenvamt="0" latt="0" sustain="0.5" amt="0" lamt="0" pdel="0" rel="0.1" lshp="0" lpdel="0" hold="0.5" lspd_numerator="4" lspd_denominator="4" att="0" x100="0" lspd="0.1" lspd_syncmode="0" userwavefile=""/>
            <elres dec="0.5" ctlenvamt="0" latt="0" sustain="0.5" amt="0" lamt="0" pdel="0" rel="0.1" lshp="0" lpdel="0" hold="0.5" lspd_numerator="4" lspd_denominator="4" att="0" x100="0" lspd="0.1" lspd_syncmode="0" userwavefile=""/>
          </eldata>
          <chordcreator chordrange="1" chord-enabled="0" chord="0"/>
          <arpeggiator arptime="200" arptime_syncmode="0" arpmode="0" arptime_numerator="4" arptime_denominator="4" arpdir="0" arpgate="100" arprange="1" arp-enabled="0" arpmiss="0" arp="0" arpcycle="0" arpskip="0"/>
          <midiport inputcontroller="0" fixedoutputnote="-1" writable="0" basevelocity="63" outputprogram="1" outputcontroller="0" fixedinputvelocity="-1" outputchannel="1" fixedoutputvelocity="-1" readable="0" inputchannel="0"/>
          <fxchain numofeffects="1" enabled="1">
            <effect gate="0" on="1" autoquit_syncmode="0" autoquit="1" name="eq" autoquit_numerator="4" wet="1" autoquit_denominator="4">
              <Eq LPres="0.70700002" Peak3bw="1.0930001" HPres="0.70700002" HP12="1" HighShelfgain="7.2000003" Peak1active="1" HPactive="1" Peak3active="1" Peak2gain="3.24" Lowshelfactive="0" Peak2bw="0.30000001" Peak1bw="2.2820001" Highshelfactive="1" LP12="1" Peak4bw="0.30000001" Peak4gain="0" Peak4active="1" AnalyseIn="1" HP24="0" LP48="0" LowShelfres="1.4" LP="0" Peak2active="1" HP48="0" HighShelfres="1.4" Peak3gain="2.1600001" Outputgain="-0.1" LP24="0" Lowshelfgain="0" AnalyseOut="1" HP="0" LPactive="1">
                <Inputgain value="0" scale_type="log" id="1230790"/>
                <Peak1gain value="2.8800001" scale_type="log" id="4280922"/>
                <HPfreq value="31.000004" scale_type="log" id="183832"/>
                <LowShelffreq value="80" scale_type="log" id="4634925"/>
                <Peak1freq value="151.071" scale_type="log" id="6947722"/>
                <Peak2freq value="314.73138" scale_type="log" id="4580060"/>
                <Peak3freq value="1205.1195" scale_type="log" id="4586869"/>
                <Peak4freq value="4000.0029" scale_type="log" id="7138211"/>
                <Highshelffreq value="9386.7363" scale_type="log" id="1237276"/>
                <LPfreq value="17999.996" scale_type="log" id="1217443"/>
              </Eq>
              <key/>
            </effect>
          </fxchain>
        </instrumenttrack>
        <pattern name="Carla Rack" pos="1536" muted="0" type="1" steps="16">
          <note key="39" pan="0" pos="0" len="12" vol="136"/>
          <note key="24" pan="0" pos="0" len="12" vol="148"/>
          <note key="39" pan="0" pos="24" len="12" vol="136"/>
          <note key="34" pan="0" pos="24" len="12" vol="136"/>
          <note key="24" pan="0" pos="36" len="12" vol="148"/>
          <note key="39" pan="0" pos="48" len="12" vol="136"/>
          <note key="28" pan="0" pos="48" len="12" vol="174"/>
          <note key="39" pan="0" pos="72" len="12" vol="136"/>
          <note key="34" pan="0" pos="72" len="12" vol="136"/>
          <note key="24" pan="0" pos="84" len="12" vol="148"/>
          <note key="39" pan="0" pos="96" len="12" vol="136"/>
          <note key="24" pan="0" pos="96" len="12" vol="148"/>
          <note key="39" pan="0" pos="120" len="12" vol="136"/>
          <note key="34" pan="0" pos="120" len="12" vol="136"/>
          <note key="24" pan="0" pos="132" len="12" vol="148"/>
          <note key="39" pan="0" pos="144" len="12" vol="136"/>
          <note key="28" pan="0" pos="144" len="12" vol="174"/>
          <note key="39" pan="0" pos="168" len="12" vol="136"/>
          <note key="34" pan="0" pos="168" len="12" vol="136"/>
          <note key="28" pan="0" pos="180" len="12" vol="174"/>
          <note key="24" pan="0" pos="180" len="12" vol="148"/>
          <note key="39" pan="0" pos="192" len="12" vol="136"/>
          <note key="24" pan="0" pos="192" len="12" vol="148"/>
          <note key="39" pan="0" pos="216" len="12" vol="136"/>
          <note key="34" pan="0" pos="216" len="12" vol="136"/>
          <note key="24" pan="0" pos="228" len="12" vol="148"/>
          <note key="39" pan="0" pos="240" len="12" vol="136"/>
          <note key="28" pan="0" pos="240" len="12" vol="174"/>
          <note key="39" pan="0" pos="264" len="12" vol="136"/>
          <note key="34" pan="0" pos="264" len="12" vol="136"/>
          <note key="24" pan="0" pos="276" len="12" vol="148"/>
          <note key="39" pan="0" pos="288" len="12" vol="136"/>
          <note key="24" pan="0" pos="288" len="12" vol="148"/>
          <note key="39" pan="0" pos="312" len="12" vol="136"/>
          <note key="34" pan="0" pos="312" len="12" vol="136"/>
          <note key="24" pan="0" pos="324" len="12" vol="148"/>
          <note key="39" pan="0" pos="336" len="12" vol="136"/>
          <note key="28" pan="0" pos="336" len="12" vol="174"/>
          <note key="39" pan="0" pos="360" len="12" vol="136"/>
          <note key="34" pan="0" pos="360" len="12" vol="136"/>
          <note key="28" pan="0" pos="372" len="12" vol="174"/>
          <note key="24" pan="0" pos="372" len="12" vol="148"/>
          <note key="39" pan="0" pos="384" len="12" vol="136"/>
          <note key="24" pan="0" pos="384" len="12" vol="148"/>
          <note key="39" pan="0" pos="408" len="12" vol="136"/>
          <note key="34" pan="0" pos="408" len="12" vol="136"/>
          <note key="24" pan="0" pos="420" len="12" vol="148"/>
          <note key="39" pan="0" pos="432" len="12" vol="136"/>
          <note key="28" pan="0" pos="432" len="12" vol="174"/>
          <note key="39" pan="0" pos="456" len="12" vol="136"/>
          <note key="34" pan="0" pos="456" len="12" vol="136"/>
          <note key="24" pan="0" pos="468" len="12" vol="148"/>
          <note key="39" pan="0" pos="480" len="12" vol="136"/>
          <note key="24" pan="0" pos="480" len="12" vol="148"/>
          <note key="39" pan="0" pos="504" len="12" vol="136"/>
          <note key="34" pan="0" pos="504" len="12" vol="136"/>
          <note key="24" pan="0" pos="516" len="12" vol="148"/>
          <note key="39" pan="0" pos="528" len="12" vol="136"/>
          <note key="28" pan="0" pos="528" len="12" vol="174"/>
          <note key="39" pan="0" pos="552" len="12" vol="136"/>
          <note key="34" pan="0" pos="552" len="12" vol="136"/>
          <note key="28" pan="0" pos="564" len="12" vol="174"/>
          <note key="24" pan="0" pos="564" len="12" vol="148"/>
          <note key="39" pan="0" pos="576" len="12" vol="136"/>
          <note key="24" pan="0" pos="576" len="12" vol="148"/>
          <note key="39" pan="0" pos="600" len="12" vol="136"/>
          <note key="34" pan="0" pos="600" len="12" vol="136"/>
          <note key="24" pan="0" pos="612" len="12" vol="148"/>
          <note key="39" pan="0" pos="624" len="12" vol="136"/>
          <note key="28" pan="0" pos="624" len="12" vol="174"/>
          <note key="39" pan="0" pos="648" len="12" vol="136"/>
          <note key="34" pan="0" pos="648" len="12" vol="136"/>
          <note key="24" pan="0" pos="660" len="12" vol="148"/>
          <note key="39" pan="0" pos="672" len="12" vol="136"/>
          <note key="24" pan="0" pos="672" len="12" vol="148"/>
          <note key="39" pan="0" pos="696" len="12" vol="136"/>
          <note key="34" pan="0" pos="696" len="12" vol="136"/>
          <note key="28" pan="0" pos="696" len="12" vol="174"/>
          <note key="24" pan="0" pos="708" len="12" vol="148"/>
          <note key="39" pan="0" pos="720" len="12" vol="136"/>
          <note key="28" pan="0" pos="720" len="12" vol="174"/>
          <note key="39" pan="0" pos="744" len="12" vol="136"/>
          <note key="34" pan="0" pos="744" len="12" vol="136"/>
          <note key="28" pan="0" pos="756" len="12" vol="174"/>
          <note key="24" pan="0" pos="756" len="12" vol="148"/>
          <note key="39" pan="0" pos="768" len="12" vol="136"/>
          <note key="37" pan="0" pos="768" len="12" vol="174"/>
          <note key="24" pan="0" pos="768" len="12" vol="148"/>
          <note key="39" pan="0" pos="792" len="12" vol="136"/>
          <note key="34" pan="0" pos="792" len="12" vol="136"/>
          <note key="24" pan="0" pos="804" len="12" vol="148"/>
          <note key="39" pan="0" pos="816" len="12" vol="136"/>
          <note key="28" pan="0" pos="816" len="12" vol="174"/>
          <note key="39" pan="0" pos="840" len="12" vol="136"/>
          <note key="34" pan="0" pos="840" len="12" vol="136"/>
          <note key="24" pan="0" pos="852" len="12" vol="148"/>
          <note key="39" pan="0" pos="864" len="12" vol="136"/>
          <note key="24" pan="0" pos="864" len="12" vol="148"/>
          <note key="39" pan="0" pos="888" len="12" vol="136"/>
          <note key="34" pan="0" pos="888" len="12" vol="136"/>
          <note key="24" pan="0" pos="900" len="12" vol="148"/>
          <note key="39" pan="0" pos="912" len="12" vol="136"/>
          <note key="28" pan="0" pos="912" len="12" vol="174"/>
          <note key="39" pan="0" pos="936" len="12" vol="136"/>
          <note key="34" pan="0" pos="936" len="12" vol="136"/>
          <note key="28" pan="0" pos="948" len="12" vol="174"/>
          <note key="24" pan="0" pos="948" len="12" vol="148"/>
          <note key="39" pan="0" pos="960" len="12" vol="136"/>
          <note key="24" pan="0" pos="960" len="12" vol="148"/>
          <note key="39" pan="0" pos="984" len="12" vol="136"/>
          <note key="34" pan="0" pos="984" len="12" vol="136"/>
          <note key="24" pan="0" pos="996" len="12" vol="148"/>
          <note key="39" pan="0" pos="1008" len="12" vol="136"/>
          <note key="28" pan="0" pos="1008" len="12" vol="174"/>
          <note key="39" pan="0" pos="1032" len="12" vol="136"/>
          <note key="34" pan="0" pos="1032" len="12" vol="136"/>
          <note key="24" pan="0" pos="1044" len="12" vol="148"/>
          <note key="39" pan="0" pos="1056" len="12" vol="136"/>
          <note key="24" pan="0" pos="1056" len="12" vol="148"/>
          <note key="39" pan="0" pos="1080" len="12" vol="136"/>
          <note key="34" pan="0" pos="1080" len="12" vol="136"/>
          <note key="24" pan="0" pos="1092" len="12" vol="148"/>
          <note key="39" pan="0" pos="1104" len="12" vol="136"/>
          <note key="28" pan="0" pos="1104" len="12" vol="174"/>
          <note key="39" pan="0" pos="1128" len="12" vol="136"/>
          <note key="34" pan="0" pos="1128" len="12" vol="136"/>
          <note key="28" pan="0" pos="1140" len="12" vol="174"/>
          <note key="24" pan="0" pos="1140" len="12" vol="148"/>
          <note key="39" pan="0" pos="1152" len="12" vol="136"/>
          <note key="24" pan="0" pos="1152" len="12" vol="148"/>
          <note key="39" pan="0" pos="1176" len="12" vol="136"/>
          <note key="34" pan="0" pos="1176" len="12" vol="136"/>
          <note key="24" pan="0" pos="1188" len="12" vol="148"/>
          <note key="39" pan="0" pos="1200" len="12" vol="136"/>
          <note key="28" pan="0" pos="1200" len="12" vol="174"/>
          <note key="39" pan="0" pos="1224" len="12" vol="136"/>
          <note key="34" pan="0" pos="1224" len="12" vol="136"/>
          <note key="24" pan="0" pos="1236" len="12" vol="148"/>
          <note key="39" pan="0" pos="1248" len="12" vol="136"/>
          <note key="24" pan="0" pos="1248" len="12" vol="148"/>
          <note key="39" pan="0" pos="1272" len="12" vol="136"/>
          <note key="34" pan="0" pos="1272" len="12" vol="136"/>
          <note key="24" pan="0" pos="1284" len="12" vol="148"/>
          <note key="39" pan="0" pos="1296" len="12" vol="136"/>
          <note key="28" pan="0" pos="1296" len="12" vol="174"/>
          <note key="39" pan="0" pos="1320" len="12" vol="136"/>
          <note key="34" pan="0" pos="1320" len="12" vol="136"/>
          <note key="28" pan="0" pos="1332" len="12" vol="174"/>
          <note key="24" pan="0" pos="1332" len="12" vol="148"/>
          <note key="39" pan="0" pos="1344" len="12" vol="136"/>
          <note key="24" pan="0" pos="1344" len="12" vol="148"/>
          <note key="39" pan="0" pos="1368" len="12" vol="136"/>
          <note key="34" pan="0" pos="1368" len="12" vol="136"/>
          <note key="24" pan="0" pos="1380" len="12" vol="148"/>
          <note key="39" pan="0" pos="1392" len="12" vol="136"/>
          <note key="28" pan="0" pos="1392" len="12" vol="174"/>
          <note key="39" pan="0" pos="1416" len="12" vol="136"/>
          <note key="34" pan="0" pos="1416" len="12" vol="136"/>
          <note key="24" pan="0" pos="1428" len="12" vol="148"/>
          <note key="39" pan="0" pos="1440" len="12" vol="136"/>
          <note key="24" pan="0" pos="1440" len="12" vol="148"/>
          <note key="39" pan="0" pos="1464" len="12" vol="136"/>
          <note key="34" pan="0" pos="1464" len="12" vol="136"/>
          <note key="28" pan="0" pos="1464" len="12" vol="174"/>
          <note key="24" pan="0" pos="1476" len="12" vol="148"/>
          <note key="39" pan="0" pos="1488" len="12" vol="136"/>
          <note key="28" pan="0" pos="1488" len="12" vol="174"/>
          <note key="39" pan="0" pos="1512" len="12" vol="136"/>
          <note key="34" pan="0" pos="1512" len="12" vol="136"/>
          <note key="28" pan="0" pos="1512" len="12" vol="174"/>
          <note key="28" pan="0" pos="1524" len="12" vol="174"/>
          <note key="24" pan="0" pos="1524" len="12" vol="148"/>
        </pattern>
        <pattern name="Carla Rack" pos="3072" muted="0" type="1" steps="16">
          <note key="39" pan="0" pos="0" len="12" vol="136"/>
          <note key="37" pan="0" pos="0" len="12" vol="174"/>
          <note key="24" pan="0" pos="0" len="12" vol="148"/>
          <note key="39" pan="0" pos="24" len="12" vol="136"/>
          <note key="34" pan="0" pos="24" len="12" vol="136"/>
          <note key="24" pan="0" pos="36" len="12" vol="148"/>
          <note key="39" pan="0" pos="48" len="12" vol="136"/>
          <note key="28" pan="0" pos="48" len="12" vol="174"/>
          <note key="39" pan="0" pos="72" len="12" vol="136"/>
          <note key="34" pan="0" pos="72" len="12" vol="136"/>
          <note key="24" pan="0" pos="84" len="12" vol="148"/>
          <note key="39" pan="0" pos="96" len="12" vol="136"/>
          <note key="24" pan="0" pos="96" len="12" vol="148"/>
          <note key="39" pan="0" pos="120" len="12" vol="136"/>
          <note key="34" pan="0" pos="120" len="12" vol="136"/>
          <note key="24" pan="0" pos="132" len="12" vol="148"/>
          <note key="39" pan="0" pos="144" len="12" vol="136"/>
          <note key="28" pan="0" pos="144" len="12" vol="174"/>
          <note key="39" pan="0" pos="168" len="12" vol="136"/>
          <note key="34" pan="0" pos="168" len="12" vol="136"/>
          <note key="28" pan="0" pos="180" len="12" vol="174"/>
          <note key="24" pan="0" pos="180" len="12" vol="148"/>
          <note key="39" pan="0" pos="192" len="12" vol="136"/>
          <note key="24" pan="0" pos="192" len="12" vol="148"/>
          <note key="39" pan="0" pos="216" len="12" vol="136"/>
          <note key="34" pan="0" pos="216" len="12" vol="136"/>
          <note key="24" pan="0" pos="228" len="12" vol="148"/>
          <note key="39" pan="0" pos="240" len="12" vol="136"/>
          <note key="28" pan="0" pos="240" len="12" vol="174"/>
          <note key="39" pan="0" pos="264" len="12" vol="136"/>
          <note key="34" pan="0" pos="264" len="12" vol="136"/>
          <note key="24" pan="0" pos="276" len="12" vol="148"/>
          <note key="39" pan="0" pos="288" len="12" vol="136"/>
          <note key="24" pan="0" pos="288" len="12" vol="148"/>
          <note key="39" pan="0" pos="312" len="12" vol="136"/>
          <note key="34" pan="0" pos="312" len="12" vol="136"/>
          <note key="24" pan="0" pos="324" len="12" vol="148"/>
          <note key="39" pan="0" pos="336" len="12" vol="136"/>
          <note key="28" pan="0" pos="336" len="12" vol="174"/>
          <note key="39" pan="0" pos="360" len="12" vol="136"/>
          <note key="34" pan="0" pos="360" len="12" vol="136"/>
          <note key="28" pan="0" pos="372" len="12" vol="174"/>
          <note key="24" pan="0" pos="372" len="12" vol="148"/>
          <note key="39" pan="0" pos="384" len="12" vol="136"/>
          <note key="24" pan="0" pos="384" len="12" vol="148"/>
          <note key="39" pan="0" pos="408" len="12" vol="136"/>
          <note key="34" pan="0" pos="408" len="12" vol="136"/>
          <note key="24" pan="0" pos="420" len="12" vol="148"/>
          <note key="39" pan="0" pos="432" len="12" vol="136"/>
          <note key="28" pan="0" pos="432" len="12" vol="174"/>
          <note key="39" pan="0" pos="456" len="12" vol="136"/>
          <note key="34" pan="0" pos="456" len="12" vol="136"/>
          <note key="24" pan="0" pos="468" len="12" vol="148"/>
          <note key="39" pan="0" pos="480" len="12" vol="136"/>
          <note key="24" pan="0" pos="480" len="12" vol="148"/>
          <note key="39" pan="0" pos="504" len="12" vol="136"/>
          <note key="34" pan="0" pos="504" len="12" vol="136"/>
          <note key="24" pan="0" pos="516" len="12" vol="148"/>
          <note key="39" pan="0" pos="528" len="12" vol="136"/>
          <note key="28" pan="0" pos="528" len="12" vol="174"/>
          <note key="39" pan="0" pos="552" len="12" vol="136"/>
          <note key="34" pan="0" pos="552" len="12" vol="136"/>
          <note key="28" pan="0" pos="564" len="12" vol="174"/>
          <note key="24" pan="0" pos="564" len="12" vol="148"/>
          <note key="39" pan="0" pos="576" len="12" vol="136"/>
          <note key="24" pan="0" pos="576" len="12" vol="148"/>
          <note key="39" pan="0" pos="600" len="12" vol="136"/>
          <note key="34" pan="0" pos="600" len="12" vol="136"/>
          <note key="24" pan="0" pos="612" len="12" vol="148"/>
          <note key="39" pan="0" pos="624" len="12" vol="136"/>
          <note key="28" pan="0" pos="624" len="12" vol="174"/>
          <note key="39" pan="0" pos="648" len="12" vol="136"/>
          <note key="34" pan="0" pos="648" len="12" vol="136"/>
          <note key="24" pan="0" pos="660" len="12" vol="148"/>
          <note key="39" pan="0" pos="672" len="12" vol="136"/>
          <note key="24" pan="0" pos="672" len="12" vol="148"/>
          <note key="39" pan="0" pos="696" len="12" vol="136"/>
          <note key="34" pan="0" pos="696" len="12" vol="136"/>
          <note key="28" pan="0" pos="696" len="12" vol="174"/>
          <note key="24" pan="0" pos="708" len="12" vol="148"/>
          <note key="39" pan="0" pos="720" len="12" vol="136"/>
          <note key="28" pan="0" pos="720" len="12" vol="174"/>
          <note key="39" pan="0" pos="744" len="12" vol="136"/>
          <note key="34" pan="0" pos="744" len="12" vol="136"/>
          <note key="28" pan="0" pos="756" len="12" vol="174"/>
          <note key="24" pan="0" pos="756" len="12" vol="148"/>
          <note key="39" pan="0" pos="768" len="12" vol="136"/>
          <note key="37" pan="0" pos="768" len="12" vol="174"/>
          <note key="24" pan="0" pos="768" len="12" vol="148"/>
          <note key="39" pan="0" pos="792" len="12" vol="136"/>
          <note key="34" pan="0" pos="792" len="12" vol="136"/>
          <note key="24" pan="0" pos="804" len="12" vol="148"/>
          <note key="39" pan="0" pos="816" len="12" vol="136"/>
          <note key="28" pan="0" pos="816" len="12" vol="174"/>
          <note key="39" pan="0" pos="840" len="12" vol="136"/>
          <note key="34" pan="0" pos="840" len="12" vol="136"/>
          <note key="24" pan="0" pos="852" len="12" vol="148"/>
          <note key="39" pan="0" pos="864" len="12" vol="136"/>
          <note key="24" pan="0" pos="864" len="12" vol="148"/>
          <note key="39" pan="0" pos="888" len="12" vol="136"/>
          <note key="34" pan="0" pos="888" len="12" vol="136"/>
          <note key="24" pan="0" pos="900" len="12" vol="148"/>
          <note key="39" pan="0" pos="912" len="12" vol="136"/>
          <note key="28" pan="0" pos="912" len="12" vol="174"/>
          <note key="39" pan="0" pos="936" len="12" vol="136"/>
          <note key="34" pan="0" pos="936" len="12" vol="136"/>
          <note key="28" pan="0" pos="948" len="12" vol="174"/>
          <note key="24" pan="0" pos="948" len="12" vol="148"/>
          <note key="39" pan="0" pos="960" len="12" vol="136"/>
          <note key="24" pan="0" pos="960" len="12" vol="148"/>
          <note key="39" pan="0" pos="984" len="12" vol="136"/>
          <note key="34" pan="0" pos="984" len="12" vol="136"/>
          <note key="24" pan="0" pos="996" len="12" vol="148"/>
          <note key="39" pan="0" pos="1008" len="12" vol="136"/>
          <note key="28" pan="0" pos="1008" len="12" vol="174"/>
          <note key="39" pan="0" pos="1032" len="12" vol="136"/>
          <note key="34" pan="0" pos="1032" len="12" vol="136"/>
          <note key="24" pan="0" pos="1044" len="12" vol="148"/>
          <note key="39" pan="0" pos="1056" len="12" vol="136"/>
          <note key="24" pan="0" pos="1056" len="12" vol="148"/>
          <note key="39" pan="0" pos="1080" len="12" vol="136"/>
          <note key="34" pan="0" pos="1080" len="12" vol="136"/>
          <note key="24" pan="0" pos="1092" len="12" vol="148"/>
          <note key="39" pan="0" pos="1104" len="12" vol="136"/>
          <note key="28" pan="0" pos="1104" len="12" vol="174"/>
          <note key="39" pan="0" pos="1128" len="12" vol="136"/>
          <note key="34" pan="0" pos="1128" len="12" vol="136"/>
          <note key="28" pan="0" pos="1140" len="12" vol="174"/>
          <note key="24" pan="0" pos="1140" len="12" vol="148"/>
          <note key="39" pan="0" pos="1152" len="12" vol="136"/>
          <note key="24" pan="0" pos="1152" len="12" vol="148"/>
          <note key="39" pan="0" pos="1176" len="12" vol="136"/>
          <note key="34" pan="0" pos="1176" len="12" vol="136"/>
          <note key="24" pan="0" pos="1188" len="12" vol="148"/>
          <note key="39" pan="0" pos="1200" len="12" vol="136"/>
          <note key="28" pan="0" pos="1200" len="12" vol="174"/>
          <note key="39" pan="0" pos="1224" len="12" vol="136"/>
          <note key="34" pan="0" pos="1224" len="12" vol="136"/>
          <note key="24" pan="0" pos="1236" len="12" vol="148"/>
          <note key="39" pan="0" pos="1248" len="12" vol="136"/>
          <note key="24" pan="0" pos="1248" len="12" vol="148"/>
          <note key="39" pan="0" pos="1272" len="12" vol="136"/>
          <note key="34" pan="0" pos="1272" len="12" vol="136"/>
          <note key="24" pan="0" pos="1284" len="12" vol="148"/>
          <note key="39" pan="0" pos="1296" len="12" vol="136"/>
          <note key="28" pan="0" pos="1296" len="12" vol="174"/>
          <note key="39" pan="0" pos="1320" len="12" vol="136"/>
          <note key="34" pan="0" pos="1320" len="12" vol="136"/>
          <note key="28" pan="0" pos="1332" len="12" vol="174"/>
          <note key="24" pan="0" pos="1332" len="12" vol="148"/>
          <note key="39" pan="0" pos="1344" len="12" vol="136"/>
          <note key="24" pan="0" pos="1344" len="12" vol="148"/>
          <note key="39" pan="0" pos="1368" len="12" vol="136"/>
          <note key="34" pan="0" pos="1368" len="12" vol="136"/>
          <note key="24" pan="0" pos="1380" len="12" vol="148"/>
          <note key="39" pan="0" pos="1392" len="12" vol="136"/>
          <note key="28" pan="0" pos="1392" len="12" vol="174"/>
          <note key="39" pan="0" pos="1416" len="12" vol="136"/>
          <note key="34" pan="0" pos="1416" len="12" vol="136"/>
          <note key="24" pan="0" pos="1428" len="12" vol="148"/>
          <note key="39" pan="0" pos="1440" len="12" vol="136"/>
          <note key="24" pan="0" pos="1440" len="12" vol="148"/>
          <note key="39" pan="0" pos="1464" len="12" vol="136"/>
          <note key="34" pan="0" pos="1464" len="12" vol="136"/>
          <note key="28" pan="0" pos="1464" len="12" vol="174"/>
          <note key="24" pan="0" pos="1476" len="12" vol="148"/>
          <note key="39" pan="0" pos="1488" len="12" vol="136"/>
          <note key="28" pan="0" pos="1488" len="12" vol="174"/>
          <note key="39" pan="0" pos="1512" len="12" vol="136"/>
          <note key="34" pan="0" pos="1512" len="12" vol="136"/>
          <note key="28" pan="0" pos="1512" len="12" vol="174"/>
          <note key="28" pan="0" pos="1524" len="12" vol="174"/>
          <note key="24" pan="0" pos="1524" len="12" vol="148"/>
        </pattern>
        <pattern name="Carla Rack" pos="4608" muted="0" type="1" steps="16">
          <note key="39" pan="0" pos="0" len="12" vol="136"/>
          <note key="37" pan="0" pos="0" len="12" vol="174"/>
          <note key="24" pan="0" pos="0" len="12" vol="148"/>
          <note key="39" pan="0" pos="24" len="12" vol="136"/>
          <note key="34" pan="0" pos="24" len="12" vol="136"/>
          <note key="24" pan="0" pos="36" len="12" vol="148"/>
          <note key="39" pan="0" pos="48" len="12" vol="136"/>
          <note key="28" pan="0" pos="48" len="12" vol="174"/>
          <note key="39" pan="0" pos="72" len="12" vol="136"/>
          <note key="34" pan="0" pos="72" len="12" vol="136"/>
          <note key="24" pan="0" pos="84" len="12" vol="148"/>
          <note key="39" pan="0" pos="96" len="12" vol="136"/>
          <note key="24" pan="0" pos="96" len="12" vol="148"/>
          <note key="39" pan="0" pos="120" len="12" vol="136"/>
          <note key="34" pan="0" pos="120" len="12" vol="136"/>
          <note key="24" pan="0" pos="132" len="12" vol="148"/>
          <note key="39" pan="0" pos="144" len="12" vol="136"/>
          <note key="28" pan="0" pos="144" len="12" vol="174"/>
          <note key="39" pan="0" pos="168" len="12" vol="136"/>
          <note key="34" pan="0" pos="168" len="12" vol="136"/>
          <note key="28" pan="0" pos="180" len="12" vol="174"/>
          <note key="24" pan="0" pos="180" len="12" vol="148"/>
          <note key="39" pan="0" pos="192" len="12" vol="136"/>
          <note key="24" pan="0" pos="192" len="12" vol="148"/>
          <note key="39" pan="0" pos="216" len="12" vol="136"/>
          <note key="34" pan="0" pos="216" len="12" vol="136"/>
          <note key="24" pan="0" pos="228" len="12" vol="148"/>
          <note key="39" pan="0" pos="240" len="12" vol="136"/>
          <note key="28" pan="0" pos="240" len="12" vol="174"/>
          <note key="39" pan="0" pos="264" len="12" vol="136"/>
          <note key="34" pan="0" pos="264" len="12" vol="136"/>
          <note key="24" pan="0" pos="276" len="12" vol="148"/>
          <note key="39" pan="0" pos="288" len="12" vol="136"/>
          <note key="24" pan="0" pos="288" len="12" vol="148"/>
          <note key="39" pan="0" pos="312" len="12" vol="136"/>
          <note key="34" pan="0" pos="312" len="12" vol="136"/>
          <note key="24" pan="0" pos="324" len="12" vol="148"/>
          <note key="39" pan="0" pos="336" len="12" vol="136"/>
          <note key="28" pan="0" pos="336" len="12" vol="174"/>
          <note key="39" pan="0" pos="360" len="12" vol="136"/>
          <note key="34" pan="0" pos="360" len="12" vol="136"/>
          <note key="28" pan="0" pos="372" len="12" vol="174"/>
          <note key="24" pan="0" pos="372" len="12" vol="148"/>
          <note key="39" pan="0" pos="384" len="12" vol="136"/>
          <note key="24" pan="0" pos="384" len="12" vol="148"/>
          <note key="39" pan="0" pos="408" len="12" vol="136"/>
          <note key="34" pan="0" pos="408" len="12" vol="136"/>
          <note key="24" pan="0" pos="420" len="12" vol="148"/>
          <note key="39" pan="0" pos="432" len="12" vol="136"/>
          <note key="28" pan="0" pos="432" len="12" vol="174"/>
          <note key="39" pan="0" pos="456" len="12" vol="136"/>
          <note key="34" pan="0" pos="456" len="12" vol="136"/>
          <note key="24" pan="0" pos="468" len="12" vol="148"/>
          <note key="39" pan="0" pos="480" len="12" vol="136"/>
          <note key="24" pan="0" pos="480" len="12" vol="148"/>
          <note key="39" pan="0" pos="504" len="12" vol="136"/>
          <note key="34" pan="0" pos="504" len="12" vol="136"/>
          <note key="24" pan="0" pos="516" len="12" vol="148"/>
          <note key="39" pan="0" pos="528" len="12" vol="136"/>
          <note key="28" pan="0" pos="528" len="12" vol="174"/>
          <note key="39" pan="0" pos="552" len="12" vol="136"/>
          <note key="34" pan="0" pos="552" len="12" vol="136"/>
          <note key="28" pan="0" pos="564" len="12" vol="174"/>
          <note key="24" pan="0" pos="564" len="12" vol="148"/>
          <note key="39" pan="0" pos="576" len="12" vol="136"/>
          <note key="24" pan="0" pos="576" len="12" vol="148"/>
          <note key="39" pan="0" pos="600" len="12" vol="136"/>
          <note key="34" pan="0" pos="600" len="12" vol="136"/>
          <note key="24" pan="0" pos="612" len="12" vol="148"/>
          <note key="39" pan="0" pos="624" len="12" vol="136"/>
          <note key="28" pan="0" pos="624" len="12" vol="174"/>
          <note key="39" pan="0" pos="648" len="12" vol="136"/>
          <note key="34" pan="0" pos="648" len="12" vol="136"/>
          <note key="24" pan="0" pos="660" len="12" vol="148"/>
          <note key="39" pan="0" pos="672" len="12" vol="136"/>
          <note key="24" pan="0" pos="672" len="12" vol="148"/>
          <note key="39" pan="0" pos="696" len="12" vol="136"/>
          <note key="34" pan="0" pos="696" len="12" vol="136"/>
          <note key="28" pan="0" pos="696" len="12" vol="174"/>
          <note key="24" pan="0" pos="708" len="12" vol="148"/>
          <note key="39" pan="0" pos="720" len="12" vol="136"/>
          <note key="28" pan="0" pos="720" len="12" vol="174"/>
          <note key="39" pan="0" pos="744" len="12" vol="136"/>
          <note key="34" pan="0" pos="744" len="12" vol="136"/>
          <note key="28" pan="0" pos="756" len="12" vol="174"/>
          <note key="24" pan="0" pos="756" len="12" vol="148"/>
          <note key="39" pan="0" pos="768" len="12" vol="136"/>
          <note key="37" pan="0" pos="768" len="12" vol="174"/>
          <note key="24" pan="0" pos="768" len="12" vol="148"/>
          <note key="39" pan="0" pos="792" len="12" vol="136"/>
          <note key="34" pan="0" pos="792" len="12" vol="136"/>
          <note key="24" pan="0" pos="804" len="12" vol="148"/>
          <note key="39" pan="0" pos="816" len="12" vol="136"/>
          <note key="28" pan="0" pos="816" len="12" vol="174"/>
          <note key="39" pan="0" pos="840" len="12" vol="136"/>
          <note key="34" pan="0" pos="840" len="12" vol="136"/>
          <note key="24" pan="0" pos="852" len="12" vol="148"/>
          <note key="39" pan="0" pos="864" len="12" vol="136"/>
          <note key="24" pan="0" pos="864" len="12" vol="148"/>
          <note key="39" pan="0" pos="888" len="12" vol="136"/>
          <note key="34" pan="0" pos="888" len="12" vol="136"/>
          <note key="24" pan="0" pos="900" len="12" vol="148"/>
          <note key="39" pan="0" pos="912" len="12" vol="136"/>
          <note key="28" pan="0" pos="912" len="12" vol="174"/>
          <note key="39" pan="0" pos="936" len="12" vol="136"/>
          <note key="34" pan="0" pos="936" len="12" vol="136"/>
          <note key="28" pan="0" pos="948" len="12" vol="174"/>
          <note key="24" pan="0" pos="948" len="12" vol="148"/>
          <note key="39" pan="0" pos="960" len="12" vol="136"/>
          <note key="24" pan="0" pos="960" len="12" vol="148"/>
          <note key="39" pan="0" pos="984" len="12" vol="136"/>
          <note key="34" pan="0" pos="984" len="12" vol="136"/>
          <note key="24" pan="0" pos="996" len="12" vol="148"/>
          <note key="39" pan="0" pos="1008" len="12" vol="136"/>
          <note key="28" pan="0" pos="1008" len="12" vol="174"/>
          <note key="39" pan="0" pos="1032" len="12" vol="136"/>
          <note key="34" pan="0" pos="1032" len="12" vol="136"/>
          <note key="24" pan="0" pos="1044" len="12" vol="148"/>
          <note key="39" pan="0" pos="1056" len="12" vol="136"/>
          <note key="24" pan="0" pos="1056" len="12" vol="148"/>
          <note key="39" pan="0" pos="1080" len="12" vol="136"/>
          <note key="34" pan="0" pos="1080" len="12" vol="136"/>
          <note key="24" pan="0" pos="1092" len="12" vol="148"/>
          <note key="39" pan="0" pos="1104" len="12" vol="136"/>
          <note key="28" pan="0" pos="1104" len="12" vol="174"/>
          <note key="39" pan="0" pos="1128" len="12" vol="136"/>
          <note key="34" pan="0" pos="1128" len="12" vol="136"/>
          <note key="28" pan="0" pos="1140" len="12" vol="174"/>
          <note key="24" pan="0" pos="1140" len="12" vol="148"/>
          <note key="39" pan="0" pos="1152" len="12" vol="136"/>
          <note key="24" pan="0" pos="1152" len="12" vol="148"/>
          <note key="39" pan="0" pos="1176" len="12" vol="136"/>
          <note key="34" pan="0" pos="1176" len="12" vol="136"/>
          <note key="24" pan="0" pos="1188" len="12" vol="148"/>
          <note key="39" pan="0" pos="1200" len="12" vol="136"/>
          <note key="28" pan="0" pos="1200" len="12" vol="174"/>
          <note key="39" pan="0" pos="1224" len="12" vol="136"/>
          <note key="34" pan="0" pos="1224" len="12" vol="136"/>
          <note key="24" pan="0" pos="1236" len="12" vol="148"/>
          <note key="39" pan="0" pos="1248" len="12" vol="136"/>
          <note key="24" pan="0" pos="1248" len="12" vol="148"/>
          <note key="39" pan="0" pos="1272" len="12" vol="136"/>
          <note key="34" pan="0" pos="1272" len="12" vol="136"/>
          <note key="24" pan="0" pos="1284" len="12" vol="148"/>
          <note key="39" pan="0" pos="1296" len="12" vol="136"/>
          <note key="28" pan="0" pos="1296" len="12" vol="174"/>
          <note key="39" pan="0" pos="1320" len="12" vol="136"/>
          <note key="34" pan="0" pos="1320" len="12" vol="136"/>
          <note key="28" pan="0" pos="1332" len="12" vol="174"/>
          <note key="24" pan="0" pos="1332" len="12" vol="148"/>
          <note key="39" pan="0" pos="1344" len="12" vol="136"/>
          <note key="24" pan="0" pos="1344" len="12" vol="148"/>
          <note key="39" pan="0" pos="1368" len="12" vol="136"/>
          <note key="34" pan="0" pos="1368" len="12" vol="136"/>
          <note key="24" pan="0" pos="1380" len="12" vol="148"/>
          <note key="39" pan="0" pos="1392" len="12" vol="136"/>
          <note key="28" pan="0" pos="1392" len="12" vol="174"/>
          <note key="39" pan="0" pos="1416" len="12" vol="136"/>
          <note key="34" pan="0" pos="1416" len="12" vol="136"/>
          <note key="24" pan="0" pos="1428" len="12" vol="148"/>
          <note key="39" pan="0" pos="1440" len="12" vol="136"/>
          <note key="24" pan="0" pos="1440" len="12" vol="148"/>
          <note key="39" pan="0" pos="1464" len="12" vol="136"/>
          <note key="34" pan="0" pos="1464" len="12" vol="136"/>
          <note key="28" pan="0" pos="1464" len="12" vol="174"/>
          <note key="24" pan="0" pos="1476" len="12" vol="148"/>
          <note key="39" pan="0" pos="1488" len="12" vol="136"/>
          <note key="28" pan="0" pos="1488" len="12" vol="174"/>
          <note key="39" pan="0" pos="1512" len="12" vol="136"/>
          <note key="34" pan="0" pos="1512" len="12" vol="136"/>
          <note key="28" pan="0" pos="1512" len="12" vol="174"/>
          <note key="28" pan="0" pos="1524" len="12" vol="174"/>
          <note key="24" pan="0" pos="1524" len="12" vol="148"/>
        </pattern>
        <pattern name="Carla Rack" pos="6144" muted="0" type="1" steps="16">
          <note key="39" pan="0" pos="0" len="12" vol="155"/>
          <note key="37" pan="0" pos="0" len="12" vol="193"/>
          <note key="24" pan="0" pos="0" len="12" vol="167"/>
          <note key="39" pan="0" pos="24" len="12" vol="155"/>
          <note key="34" pan="0" pos="24" len="12" vol="155"/>
          <note key="24" pan="0" pos="36" len="12" vol="167"/>
          <note key="39" pan="0" pos="48" len="12" vol="155"/>
          <note key="28" pan="0" pos="48" len="12" vol="193"/>
          <note key="39" pan="0" pos="72" len="12" vol="155"/>
          <note key="34" pan="0" pos="72" len="12" vol="155"/>
          <note key="24" pan="0" pos="84" len="12" vol="167"/>
          <note key="39" pan="0" pos="96" len="12" vol="155"/>
          <note key="24" pan="0" pos="96" len="12" vol="167"/>
          <note key="39" pan="0" pos="120" len="12" vol="155"/>
          <note key="34" pan="0" pos="120" len="12" vol="155"/>
          <note key="24" pan="0" pos="132" len="12" vol="167"/>
          <note key="39" pan="0" pos="144" len="12" vol="155"/>
          <note key="28" pan="0" pos="144" len="12" vol="193"/>
          <note key="39" pan="0" pos="168" len="12" vol="155"/>
          <note key="34" pan="0" pos="168" len="12" vol="155"/>
          <note key="28" pan="0" pos="180" len="12" vol="193"/>
          <note key="24" pan="0" pos="180" len="12" vol="167"/>
          <note key="39" pan="0" pos="192" len="12" vol="155"/>
          <note key="24" pan="0" pos="192" len="12" vol="167"/>
          <note key="39" pan="0" pos="216" len="12" vol="155"/>
          <note key="34" pan="0" pos="216" len="12" vol="155"/>
          <note key="24" pan="0" pos="228" len="12" vol="167"/>
          <note key="39" pan="0" pos="240" len="12" vol="155"/>
          <note key="28" pan="0" pos="240" len="12" vol="193"/>
          <note key="39" pan="0" pos="264" len="12" vol="155"/>
          <note key="34" pan="0" pos="264" len="12" vol="155"/>
          <note key="24" pan="0" pos="276" len="12" vol="167"/>
          <note key="39" pan="0" pos="288" len="12" vol="155"/>
          <note key="24" pan="0" pos="288" len="12" vol="167"/>
          <note key="39" pan="0" pos="312" len="12" vol="155"/>
          <note key="34" pan="0" pos="312" len="12" vol="155"/>
          <note key="24" pan="0" pos="324" len="12" vol="167"/>
          <note key="39" pan="0" pos="336" len="12" vol="155"/>
          <note key="28" pan="0" pos="336" len="12" vol="193"/>
          <note key="39" pan="0" pos="360" len="12" vol="155"/>
          <note key="34" pan="0" pos="360" len="12" vol="155"/>
          <note key="28" pan="0" pos="372" len="12" vol="193"/>
          <note key="24" pan="0" pos="372" len="12" vol="167"/>
          <note key="39" pan="0" pos="384" len="12" vol="155"/>
          <note key="24" pan="0" pos="384" len="12" vol="167"/>
          <note key="39" pan="0" pos="408" len="12" vol="155"/>
          <note key="34" pan="0" pos="408" len="12" vol="155"/>
          <note key="24" pan="0" pos="420" len="12" vol="167"/>
          <note key="39" pan="0" pos="432" len="12" vol="155"/>
          <note key="28" pan="0" pos="432" len="12" vol="193"/>
          <note key="39" pan="0" pos="456" len="12" vol="155"/>
          <note key="34" pan="0" pos="456" len="12" vol="155"/>
          <note key="24" pan="0" pos="468" len="12" vol="167"/>
          <note key="39" pan="0" pos="480" len="12" vol="155"/>
          <note key="24" pan="0" pos="480" len="12" vol="167"/>
          <note key="39" pan="0" pos="504" len="12" vol="155"/>
          <note key="34" pan="0" pos="504" len="12" vol="155"/>
          <note key="24" pan="0" pos="516" len="12" vol="167"/>
          <note key="39" pan="0" pos="528" len="12" vol="155"/>
          <note key="28" pan="0" pos="528" len="12" vol="193"/>
          <note key="39" pan="0" pos="552" len="12" vol="155"/>
          <note key="34" pan="0" pos="552" len="12" vol="155"/>
          <note key="28" pan="0" pos="564" len="12" vol="193"/>
          <note key="24" pan="0" pos="564" len="12" vol="167"/>
          <note key="39" pan="0" pos="576" len="12" vol="155"/>
          <note key="24" pan="0" pos="576" len="12" vol="167"/>
          <note key="39" pan="0" pos="600" len="12" vol="155"/>
          <note key="34" pan="0" pos="600" len="12" vol="155"/>
          <note key="24" pan="0" pos="612" len="12" vol="167"/>
          <note key="39" pan="0" pos="624" len="12" vol="155"/>
          <note key="28" pan="0" pos="624" len="12" vol="193"/>
          <note key="39" pan="0" pos="648" len="12" vol="155"/>
          <note key="34" pan="0" pos="648" len="12" vol="155"/>
          <note key="24" pan="0" pos="660" len="12" vol="167"/>
          <note key="39" pan="0" pos="672" len="12" vol="155"/>
          <note key="24" pan="0" pos="672" len="12" vol="167"/>
          <note key="39" pan="0" pos="696" len="12" vol="155"/>
          <note key="34" pan="0" pos="696" len="12" vol="155"/>
          <note key="28" pan="0" pos="696" len="12" vol="193"/>
          <note key="24" pan="0" pos="708" len="12" vol="167"/>
          <note key="39" pan="0" pos="720" len="12" vol="155"/>
          <note key="28" pan="0" pos="720" len="12" vol="193"/>
          <note key="39" pan="0" pos="744" len="12" vol="155"/>
          <note key="34" pan="0" pos="744" len="12" vol="155"/>
          <note key="28" pan="0" pos="756" len="12" vol="193"/>
          <note key="24" pan="0" pos="756" len="12" vol="167"/>
          <note key="39" pan="0" pos="768" len="12" vol="155"/>
          <note key="37" pan="0" pos="768" len="12" vol="193"/>
          <note key="24" pan="0" pos="768" len="12" vol="167"/>
          <note key="39" pan="0" pos="792" len="12" vol="155"/>
          <note key="34" pan="0" pos="792" len="12" vol="155"/>
          <note key="24" pan="0" pos="804" len="12" vol="167"/>
          <note key="39" pan="0" pos="816" len="12" vol="155"/>
          <note key="28" pan="0" pos="816" len="12" vol="193"/>
          <note key="39" pan="0" pos="840" len="12" vol="155"/>
          <note key="34" pan="0" pos="840" len="12" vol="155"/>
          <note key="24" pan="0" pos="852" len="12" vol="167"/>
          <note key="39" pan="0" pos="864" len="12" vol="155"/>
          <note key="24" pan="0" pos="864" len="12" vol="167"/>
          <note key="39" pan="0" pos="888" len="12" vol="155"/>
          <note key="34" pan="0" pos="888" len="12" vol="155"/>
          <note key="24" pan="0" pos="900" len="12" vol="167"/>
          <note key="39" pan="0" pos="912" len="12" vol="155"/>
          <note key="28" pan="0" pos="912" len="12" vol="193"/>
          <note key="39" pan="0" pos="936" len="12" vol="155"/>
          <note key="34" pan="0" pos="936" len="12" vol="155"/>
          <note key="28" pan="0" pos="948" len="12" vol="193"/>
          <note key="24" pan="0" pos="948" len="12" vol="167"/>
          <note key="39" pan="0" pos="960" len="12" vol="155"/>
          <note key="24" pan="0" pos="960" len="12" vol="167"/>
          <note key="39" pan="0" pos="984" len="12" vol="155"/>
          <note key="34" pan="0" pos="984" len="12" vol="155"/>
          <note key="24" pan="0" pos="996" len="12" vol="167"/>
          <note key="39" pan="0" pos="1008" len="12" vol="155"/>
          <note key="28" pan="0" pos="1008" len="12" vol="193"/>
          <note key="39" pan="0" pos="1032" len="12" vol="155"/>
          <note key="34" pan="0" pos="1032" len="12" vol="155"/>
          <note key="24" pan="0" pos="1044" len="12" vol="167"/>
          <note key="39" pan="0" pos="1056" len="12" vol="155"/>
          <note key="24" pan="0" pos="1056" len="12" vol="167"/>
          <note key="39" pan="0" pos="1080" len="12" vol="155"/>
          <note key="34" pan="0" pos="1080" len="12" vol="155"/>
          <note key="24" pan="0" pos="1092" len="12" vol="167"/>
          <note key="39" pan="0" pos="1104" len="12" vol="155"/>
          <note key="28" pan="0" pos="1104" len="12" vol="193"/>
          <note key="39" pan="0" pos="1128" len="12" vol="155"/>
          <note key="34" pan="0" pos="1128" len="12" vol="155"/>
          <note key="28" pan="0" pos="1140" len="12" vol="193"/>
          <note key="24" pan="0" pos="1140" len="12" vol="167"/>
          <note key="39" pan="0" pos="1152" len="12" vol="155"/>
          <note key="24" pan="0" pos="1152" len="12" vol="167"/>
          <note key="39" pan="0" pos="1176" len="12" vol="155"/>
          <note key="34" pan="0" pos="1176" len="12" vol="155"/>
          <note key="24" pan="0" pos="1188" len="12" vol="167"/>
          <note key="39" pan="0" pos="1200" len="12" vol="155"/>
          <note key="28" pan="0" pos="1200" len="12" vol="193"/>
          <note key="39" pan="0" pos="1224" len="12" vol="155"/>
          <note key="34" pan="0" pos="1224" len="12" vol="155"/>
          <note key="24" pan="0" pos="1236" len="12" vol="167"/>
          <note key="39" pan="0" pos="1248" len="12" vol="155"/>
          <note key="24" pan="0" pos="1248" len="12" vol="167"/>
          <note key="39" pan="0" pos="1272" len="12" vol="155"/>
          <note key="34" pan="0" pos="1272" len="12" vol="155"/>
          <note key="24" pan="0" pos="1284" len="12" vol="167"/>
          <note key="39" pan="0" pos="1296" len="12" vol="155"/>
          <note key="28" pan="0" pos="1296" len="12" vol="193"/>
          <note key="39" pan="0" pos="1320" len="12" vol="155"/>
          <note key="34" pan="0" pos="1320" len="12" vol="155"/>
          <note key="28" pan="0" pos="1332" len="12" vol="193"/>
          <note key="24" pan="0" pos="1332" len="12" vol="167"/>
          <note key="39" pan="0" pos="1344" len="12" vol="155"/>
          <note key="24" pan="0" pos="1344" len="12" vol="167"/>
          <note key="39" pan="0" pos="1368" len="12" vol="155"/>
          <note key="34" pan="0" pos="1368" len="12" vol="155"/>
          <note key="24" pan="0" pos="1380" len="12" vol="167"/>
          <note key="39" pan="0" pos="1392" len="12" vol="155"/>
          <note key="28" pan="0" pos="1392" len="12" vol="193"/>
          <note key="39" pan="0" pos="1416" len="12" vol="155"/>
          <note key="34" pan="0" pos="1416" len="12" vol="155"/>
          <note key="24" pan="0" pos="1428" len="12" vol="167"/>
          <note key="39" pan="0" pos="1440" len="12" vol="155"/>
          <note key="24" pan="0" pos="1440" len="12" vol="167"/>
          <note key="39" pan="0" pos="1464" len="12" vol="155"/>
          <note key="34" pan="0" pos="1464" len="12" vol="155"/>
          <note key="28" pan="0" pos="1464" len="12" vol="193"/>
          <note key="24" pan="0" pos="1476" len="12" vol="167"/>
          <note key="39" pan="0" pos="1488" len="12" vol="155"/>
          <note key="34" pan="0" pos="1488" len="12" vol="119"/>
          <note key="28" pan="0" pos="1488" len="12" vol="193"/>
          <note key="34" pan="0" pos="1500" len="12" vol="178"/>
          <note key="28" pan="0" pos="1500" len="12" vol="178"/>
          <note key="39" pan="0" pos="1512" len="12" vol="178"/>
          <note key="34" pan="0" pos="1512" len="12" vol="178"/>
          <note key="28" pan="0" pos="1512" len="12" vol="178"/>
          <note key="34" pan="0" pos="1524" len="12" vol="189"/>
          <note key="28" pan="0" pos="1524" len="12" vol="193"/>
          <note key="24" pan="0" pos="1524" len="12" vol="167"/>
        </pattern>
        <pattern name="Carla Rack" pos="7680" muted="0" type="1" steps="16">
          <note key="39" pan="0" pos="0" len="12" vol="136"/>
          <note key="37" pan="0" pos="0" len="12" vol="174"/>
          <note key="24" pan="0" pos="0" len="12" vol="148"/>
          <note key="39" pan="0" pos="24" len="12" vol="136"/>
          <note key="34" pan="0" pos="24" len="12" vol="136"/>
          <note key="24" pan="0" pos="36" len="12" vol="148"/>
          <note key="39" pan="0" pos="48" len="12" vol="136"/>
          <note key="28" pan="0" pos="48" len="12" vol="174"/>
          <note key="39" pan="0" pos="72" len="12" vol="136"/>
          <note key="34" pan="0" pos="72" len="12" vol="136"/>
          <note key="24" pan="0" pos="84" len="12" vol="148"/>
          <note key="39" pan="0" pos="96" len="12" vol="136"/>
          <note key="24" pan="0" pos="96" len="12" vol="148"/>
          <note key="39" pan="0" pos="120" len="12" vol="136"/>
          <note key="34" pan="0" pos="120" len="12" vol="136"/>
          <note key="24" pan="0" pos="132" len="12" vol="148"/>
          <note key="39" pan="0" pos="144" len="12" vol="136"/>
          <note key="28" pan="0" pos="144" len="12" vol="174"/>
          <note key="39" pan="0" pos="168" len="12" vol="136"/>
          <note key="34" pan="0" pos="168" len="12" vol="136"/>
          <note key="28" pan="0" pos="180" len="12" vol="174"/>
          <note key="24" pan="0" pos="180" len="12" vol="148"/>
          <note key="39" pan="0" pos="192" len="12" vol="136"/>
          <note key="24" pan="0" pos="192" len="12" vol="148"/>
          <note key="39" pan="0" pos="216" len="12" vol="136"/>
          <note key="34" pan="0" pos="216" len="12" vol="136"/>
          <note key="24" pan="0" pos="228" len="12" vol="148"/>
          <note key="39" pan="0" pos="240" len="12" vol="136"/>
          <note key="28" pan="0" pos="240" len="12" vol="174"/>
          <note key="39" pan="0" pos="264" len="12" vol="136"/>
          <note key="34" pan="0" pos="264" len="12" vol="136"/>
          <note key="24" pan="0" pos="276" len="12" vol="148"/>
          <note key="39" pan="0" pos="288" len="12" vol="136"/>
          <note key="24" pan="0" pos="288" len="12" vol="148"/>
          <note key="39" pan="0" pos="312" len="12" vol="136"/>
          <note key="34" pan="0" pos="312" len="12" vol="136"/>
          <note key="24" pan="0" pos="324" len="12" vol="148"/>
          <note key="39" pan="0" pos="336" len="12" vol="136"/>
          <note key="28" pan="0" pos="336" len="12" vol="174"/>
          <note key="39" pan="0" pos="360" len="12" vol="136"/>
          <note key="34" pan="0" pos="360" len="12" vol="136"/>
          <note key="28" pan="0" pos="372" len="12" vol="174"/>
          <note key="24" pan="0" pos="372" len="12" vol="148"/>
          <note key="39" pan="0" pos="384" len="12" vol="136"/>
          <note key="24" pan="0" pos="384" len="12" vol="148"/>
          <note key="39" pan="0" pos="408" len="12" vol="136"/>
          <note key="34" pan="0" pos="408" len="12" vol="136"/>
          <note key="24" pan="0" pos="420" len="12" vol="148"/>
          <note key="39" pan="0" pos="432" len="12" vol="136"/>
          <note key="28" pan="0" pos="432" len="12" vol="174"/>
          <note key="39" pan="0" pos="456" len="12" vol="136"/>
          <note key="34" pan="0" pos="456" len="12" vol="136"/>
          <note key="24" pan="0" pos="468" len="12" vol="148"/>
          <note key="39" pan="0" pos="480" len="12" vol="136"/>
          <note key="24" pan="0" pos="480" len="12" vol="148"/>
          <note key="39" pan="0" pos="504" len="12" vol="136"/>
          <note key="34" pan="0" pos="504" len="12" vol="136"/>
          <note key="24" pan="0" pos="516" len="12" vol="148"/>
          <note key="39" pan="0" pos="528" len="12" vol="136"/>
          <note key="28" pan="0" pos="528" len="12" vol="174"/>
          <note key="39" pan="0" pos="552" len="12" vol="136"/>
          <note key="34" pan="0" pos="552" len="12" vol="136"/>
          <note key="28" pan="0" pos="564" len="12" vol="174"/>
          <note key="24" pan="0" pos="564" len="12" vol="148"/>
          <note key="39" pan="0" pos="576" len="12" vol="136"/>
          <note key="24" pan="0" pos="576" len="12" vol="148"/>
          <note key="39" pan="0" pos="600" len="12" vol="136"/>
          <note key="34" pan="0" pos="600" len="12" vol="136"/>
          <note key="24" pan="0" pos="612" len="12" vol="148"/>
          <note key="39" pan="0" pos="624" len="12" vol="136"/>
          <note key="28" pan="0" pos="624" len="12" vol="174"/>
          <note key="39" pan="0" pos="648" len="12" vol="136"/>
          <note key="34" pan="0" pos="648" len="12" vol="136"/>
          <note key="24" pan="0" pos="660" len="12" vol="148"/>
          <note key="39" pan="0" pos="672" len="12" vol="136"/>
          <note key="24" pan="0" pos="672" len="12" vol="148"/>
          <note key="39" pan="0" pos="696" len="12" vol="136"/>
          <note key="34" pan="0" pos="696" len="12" vol="136"/>
          <note key="28" pan="0" pos="696" len="12" vol="174"/>
          <note key="24" pan="0" pos="708" len="12" vol="148"/>
          <note key="39" pan="0" pos="720" len="12" vol="136"/>
          <note key="28" pan="0" pos="720" len="12" vol="174"/>
          <note key="39" pan="0" pos="744" len="12" vol="136"/>
          <note key="34" pan="0" pos="744" len="12" vol="136"/>
          <note key="28" pan="0" pos="756" len="12" vol="174"/>
          <note key="24" pan="0" pos="756" len="12" vol="148"/>
          <note key="39" pan="0" pos="768" len="12" vol="136"/>
          <note key="37" pan="0" pos="768" len="12" vol="174"/>
          <note key="24" pan="0" pos="768" len="12" vol="148"/>
          <note key="39" pan="0" pos="792" len="12" vol="136"/>
          <note key="34" pan="0" pos="792" len="12" vol="136"/>
          <note key="24" pan="0" pos="804" len="12" vol="148"/>
          <note key="39" pan="0" pos="816" len="12" vol="136"/>
          <note key="28" pan="0" pos="816" len="12" vol="174"/>
          <note key="39" pan="0" pos="840" len="12" vol="136"/>
          <note key="34" pan="0" pos="840" len="12" vol="136"/>
          <note key="24" pan="0" pos="852" len="12" vol="148"/>
          <note key="39" pan="0" pos="864" len="12" vol="136"/>
          <note key="24" pan="0" pos="864" len="12" vol="148"/>
          <note key="39" pan="0" pos="888" len="12" vol="136"/>
          <note key="34" pan="0" pos="888" len="12" vol="136"/>
          <note key="24" pan="0" pos="900" len="12" vol="148"/>
          <note key="39" pan="0" pos="912" len="12" vol="136"/>
          <note key="28" pan="0" pos="912" len="12" vol="174"/>
          <note key="39" pan="0" pos="936" len="12" vol="136"/>
          <note key="34" pan="0" pos="936" len="12" vol="136"/>
          <note key="28" pan="0" pos="948" len="12" vol="174"/>
          <note key="24" pan="0" pos="948" len="12" vol="148"/>
          <note key="39" pan="0" pos="960" len="12" vol="136"/>
          <note key="24" pan="0" pos="960" len="12" vol="148"/>
          <note key="39" pan="0" pos="984" len="12" vol="136"/>
          <note key="34" pan="0" pos="984" len="12" vol="136"/>
          <note key="24" pan="0" pos="996" len="12" vol="148"/>
          <note key="39" pan="0" pos="1008" len="12" vol="136"/>
          <note key="28" pan="0" pos="1008" len="12" vol="174"/>
          <note key="39" pan="0" pos="1032" len="12" vol="136"/>
          <note key="34" pan="0" pos="1032" len="12" vol="136"/>
          <note key="24" pan="0" pos="1044" len="12" vol="148"/>
          <note key="39" pan="0" pos="1056" len="12" vol="136"/>
          <note key="24" pan="0" pos="1056" len="12" vol="148"/>
          <note key="39" pan="0" pos="1080" len="12" vol="136"/>
          <note key="34" pan="0" pos="1080" len="12" vol="136"/>
          <note key="24" pan="0" pos="1092" len="12" vol="148"/>
          <note key="39" pan="0" pos="1104" len="12" vol="136"/>
          <note key="28" pan="0" pos="1104" len="12" vol="174"/>
          <note key="39" pan="0" pos="1128" len="12" vol="136"/>
          <note key="34" pan="0" pos="1128" len="12" vol="136"/>
          <note key="28" pan="0" pos="1140" len="12" vol="174"/>
          <note key="24" pan="0" pos="1140" len="12" vol="148"/>
          <note key="39" pan="0" pos="1152" len="12" vol="136"/>
          <note key="24" pan="0" pos="1152" len="12" vol="148"/>
          <note key="39" pan="0" pos="1176" len="12" vol="136"/>
          <note key="34" pan="0" pos="1176" len="12" vol="136"/>
          <note key="24" pan="0" pos="1188" len="12" vol="148"/>
          <note key="39" pan="0" pos="1200" len="12" vol="136"/>
          <note key="28" pan="0" pos="1200" len="12" vol="174"/>
          <note key="39" pan="0" pos="1224" len="12" vol="136"/>
          <note key="34" pan="0" pos="1224" len="12" vol="136"/>
          <note key="24" pan="0" pos="1236" len="12" vol="148"/>
          <note key="39" pan="0" pos="1248" len="12" vol="136"/>
          <note key="24" pan="0" pos="1248" len="12" vol="148"/>
          <note key="39" pan="0" pos="1272" len="12" vol="136"/>
          <note key="34" pan="0" pos="1272" len="12" vol="136"/>
          <note key="24" pan="0" pos="1284" len="12" vol="148"/>
          <note key="39" pan="0" pos="1296" len="12" vol="136"/>
          <note key="28" pan="0" pos="1296" len="12" vol="174"/>
          <note key="39" pan="0" pos="1320" len="12" vol="136"/>
          <note key="34" pan="0" pos="1320" len="12" vol="136"/>
          <note key="28" pan="0" pos="1332" len="12" vol="174"/>
          <note key="24" pan="0" pos="1332" len="12" vol="148"/>
          <note key="39" pan="0" pos="1344" len="12" vol="136"/>
          <note key="24" pan="0" pos="1344" len="12" vol="148"/>
          <note key="39" pan="0" pos="1368" len="12" vol="136"/>
          <note key="34" pan="0" pos="1368" len="12" vol="136"/>
          <note key="24" pan="0" pos="1380" len="12" vol="148"/>
          <note key="39" pan="0" pos="1392" len="12" vol="136"/>
          <note key="28" pan="0" pos="1392" len="12" vol="174"/>
          <note key="39" pan="0" pos="1416" len="12" vol="136"/>
          <note key="34" pan="0" pos="1416" len="12" vol="136"/>
          <note key="24" pan="0" pos="1428" len="12" vol="148"/>
          <note key="39" pan="0" pos="1440" len="12" vol="136"/>
          <note key="24" pan="0" pos="1440" len="12" vol="148"/>
          <note key="39" pan="0" pos="1464" len="12" vol="136"/>
          <note key="34" pan="0" pos="1464" len="12" vol="136"/>
          <note key="28" pan="0" pos="1464" len="12" vol="174"/>
          <note key="24" pan="0" pos="1476" len="12" vol="148"/>
          <note key="39" pan="0" pos="1488" len="12" vol="136"/>
          <note key="28" pan="0" pos="1488" len="12" vol="174"/>
          <note key="39" pan="0" pos="1512" len="12" vol="136"/>
          <note key="34" pan="0" pos="1512" len="12" vol="136"/>
          <note key="28" pan="0" pos="1512" len="12" vol="174"/>
          <note key="28" pan="0" pos="1524" len="12" vol="174"/>
          <note key="24" pan="0" pos="1524" len="12" vol="148"/>
        </pattern>
        <pattern name="Carla Rack" pos="9216" muted="0" type="1" steps="16">
          <note key="39" pan="0" pos="0" len="12" vol="136"/>
          <note key="37" pan="0" pos="0" len="12" vol="174"/>
          <note key="24" pan="0" pos="0" len="12" vol="148"/>
          <note key="39" pan="0" pos="24" len="12" vol="136"/>
          <note key="34" pan="0" pos="24" len="12" vol="136"/>
          <note key="24" pan="0" pos="36" len="12" vol="148"/>
          <note key="39" pan="0" pos="48" len="12" vol="136"/>
          <note key="28" pan="0" pos="48" len="12" vol="174"/>
          <note key="39" pan="0" pos="72" len="12" vol="136"/>
          <note key="34" pan="0" pos="72" len="12" vol="136"/>
          <note key="24" pan="0" pos="84" len="12" vol="148"/>
          <note key="39" pan="0" pos="96" len="12" vol="136"/>
          <note key="24" pan="0" pos="96" len="12" vol="148"/>
          <note key="39" pan="0" pos="120" len="12" vol="136"/>
          <note key="34" pan="0" pos="120" len="12" vol="136"/>
          <note key="24" pan="0" pos="132" len="12" vol="148"/>
          <note key="39" pan="0" pos="144" len="12" vol="136"/>
          <note key="28" pan="0" pos="144" len="12" vol="174"/>
          <note key="39" pan="0" pos="168" len="12" vol="136"/>
          <note key="34" pan="0" pos="168" len="12" vol="136"/>
          <note key="28" pan="0" pos="180" len="12" vol="174"/>
          <note key="24" pan="0" pos="180" len="12" vol="148"/>
          <note key="39" pan="0" pos="192" len="12" vol="136"/>
          <note key="24" pan="0" pos="192" len="12" vol="148"/>
          <note key="39" pan="0" pos="216" len="12" vol="136"/>
          <note key="34" pan="0" pos="216" len="12" vol="136"/>
          <note key="24" pan="0" pos="228" len="12" vol="148"/>
          <note key="39" pan="0" pos="240" len="12" vol="136"/>
          <note key="28" pan="0" pos="240" len="12" vol="174"/>
          <note key="39" pan="0" pos="264" len="12" vol="136"/>
          <note key="34" pan="0" pos="264" len="12" vol="136"/>
          <note key="24" pan="0" pos="276" len="12" vol="148"/>
          <note key="39" pan="0" pos="288" len="12" vol="136"/>
          <note key="24" pan="0" pos="288" len="12" vol="148"/>
          <note key="39" pan="0" pos="312" len="12" vol="136"/>
          <note key="34" pan="0" pos="312" len="12" vol="136"/>
          <note key="24" pan="0" pos="324" len="12" vol="148"/>
          <note key="39" pan="0" pos="336" len="12" vol="136"/>
          <note key="28" pan="0" pos="336" len="12" vol="174"/>
          <note key="39" pan="0" pos="360" len="12" vol="136"/>
          <note key="34" pan="0" pos="360" len="12" vol="136"/>
          <note key="28" pan="0" pos="372" len="12" vol="174"/>
          <note key="24" pan="0" pos="372" len="12" vol="148"/>
          <note key="39" pan="0" pos="384" len="12" vol="136"/>
          <note key="24" pan="0" pos="384" len="12" vol="148"/>
          <note key="39" pan="0" pos="408" len="12" vol="136"/>
          <note key="34" pan="0" pos="408" len="12" vol="136"/>
          <note key="24" pan="0" pos="420" len="12" vol="148"/>
          <note key="39" pan="0" pos="432" len="12" vol="136"/>
          <note key="28" pan="0" pos="432" len="12" vol="174"/>
          <note key="39" pan="0" pos="456" len="12" vol="136"/>
          <note key="34" pan="0" pos="456" len="12" vol="136"/>
          <note key="24" pan="0" pos="468" len="12" vol="148"/>
          <note key="39" pan="0" pos="480" len="12" vol="136"/>
          <note key="24" pan="0" pos="480" len="12" vol="148"/>
          <note key="39" pan="0" pos="504" len="12" vol="136"/>
          <note key="34" pan="0" pos="504" len="12" vol="136"/>
          <note key="24" pan="0" pos="516" len="12" vol="148"/>
          <note key="39" pan="0" pos="528" len="12" vol="136"/>
          <note key="28" pan="0" pos="528" len="12" vol="174"/>
          <note key="39" pan="0" pos="552" len="12" vol="136"/>
          <note key="34" pan="0" pos="552" len="12" vol="136"/>
          <note key="28" pan="0" pos="564" len="12" vol="174"/>
          <note key="24" pan="0" pos="564" len="12" vol="148"/>
          <note key="39" pan="0" pos="576" len="12" vol="136"/>
          <note key="24" pan="0" pos="576" len="12" vol="148"/>
          <note key="39" pan="0" pos="600" len="12" vol="136"/>
          <note key="34" pan="0" pos="600" len="12" vol="136"/>
          <note key="24" pan="0" pos="612" len="12" vol="148"/>
          <note key="39" pan="0" pos="624" len="12" vol="136"/>
          <note key="28" pan="0" pos="624" len="12" vol="174"/>
          <note key="39" pan="0" pos="648" len="12" vol="136"/>
          <note key="34" pan="0" pos="648" len="12" vol="136"/>
          <note key="24" pan="0" pos="660" len="12" vol="148"/>
          <note key="39" pan="0" pos="672" len="12" vol="136"/>
          <note key="24" pan="0" pos="672" len="12" vol="148"/>
          <note key="39" pan="0" pos="696" len="12" vol="136"/>
          <note key="34" pan="0" pos="696" len="12" vol="136"/>
          <note key="28" pan="0" pos="696" len="12" vol="174"/>
          <note key="24" pan="0" pos="708" len="12" vol="148"/>
          <note key="39" pan="0" pos="720" len="12" vol="136"/>
          <note key="28" pan="0" pos="720" len="12" vol="174"/>
          <note key="39" pan="0" pos="744" len="12" vol="136"/>
          <note key="34" pan="0" pos="744" len="12" vol="136"/>
          <note key="28" pan="0" pos="756" len="12" vol="174"/>
          <note key="24" pan="0" pos="756" len="12" vol="148"/>
          <note key="39" pan="0" pos="768" len="12" vol="136"/>
          <note key="37" pan="0" pos="768" len="12" vol="174"/>
          <note key="24" pan="0" pos="768" len="12" vol="148"/>
          <note key="39" pan="0" pos="792" len="12" vol="136"/>
          <note key="34" pan="0" pos="792" len="12" vol="136"/>
          <note key="24" pan="0" pos="804" len="12" vol="148"/>
          <note key="39" pan="0" pos="816" len="12" vol="136"/>
          <note key="28" pan="0" pos="816" len="12" vol="174"/>
          <note key="39" pan="0" pos="840" len="12" vol="136"/>
          <note key="34" pan="0" pos="840" len="12" vol="136"/>
          <note key="24" pan="0" pos="852" len="12" vol="148"/>
          <note key="39" pan="0" pos="864" len="12" vol="136"/>
          <note key="24" pan="0" pos="864" len="12" vol="148"/>
          <note key="39" pan="0" pos="888" len="12" vol="136"/>
          <note key="34" pan="0" pos="888" len="12" vol="136"/>
          <note key="24" pan="0" pos="900" len="12" vol="148"/>
          <note key="39" pan="0" pos="912" len="12" vol="136"/>
          <note key="28" pan="0" pos="912" len="12" vol="174"/>
          <note key="39" pan="0" pos="936" len="12" vol="136"/>
          <note key="34" pan="0" pos="936" len="12" vol="136"/>
          <note key="28" pan="0" pos="948" len="12" vol="174"/>
          <note key="24" pan="0" pos="948" len="12" vol="148"/>
          <note key="39" pan="0" pos="960" len="12" vol="136"/>
          <note key="24" pan="0" pos="960" len="12" vol="148"/>
          <note key="39" pan="0" pos="984" len="12" vol="136"/>
          <note key="34" pan="0" pos="984" len="12" vol="136"/>
          <note key="24" pan="0" pos="996" len="12" vol="148"/>
          <note key="39" pan="0" pos="1008" len="12" vol="136"/>
          <note key="28" pan="0" pos="1008" len="12" vol="174"/>
          <note key="39" pan="0" pos="1032" len="12" vol="136"/>
          <note key="34" pan="0" pos="1032" len="12" vol="136"/>
          <note key="24" pan="0" pos="1044" len="12" vol="148"/>
          <note key="39" pan="0" pos="1056" len="12" vol="136"/>
          <note key="24" pan="0" pos="1056" len="12" vol="148"/>
          <note key="39" pan="0" pos="1080" len="12" vol="136"/>
          <note key="34" pan="0" pos="1080" len="12" vol="136"/>
          <note key="24" pan="0" pos="1092" len="12" vol="148"/>
          <note key="39" pan="0" pos="1104" len="12" vol="136"/>
          <note key="28" pan="0" pos="1104" len="12" vol="174"/>
          <note key="39" pan="0" pos="1128" len="12" vol="136"/>
          <note key="34" pan="0" pos="1128" len="12" vol="136"/>
          <note key="28" pan="0" pos="1140" len="12" vol="174"/>
          <note key="24" pan="0" pos="1140" len="12" vol="148"/>
          <note key="39" pan="0" pos="1152" len="12" vol="136"/>
          <note key="24" pan="0" pos="1152" len="12" vol="148"/>
          <note key="39" pan="0" pos="1176" len="12" vol="136"/>
          <note key="34" pan="0" pos="1176" len="12" vol="136"/>
          <note key="24" pan="0" pos="1188" len="12" vol="148"/>
          <note key="39" pan="0" pos="1200" len="12" vol="136"/>
          <note key="28" pan="0" pos="1200" len="12" vol="174"/>
          <note key="39" pan="0" pos="1224" len="12" vol="136"/>
          <note key="34" pan="0" pos="1224" len="12" vol="136"/>
          <note key="24" pan="0" pos="1236" len="12" vol="148"/>
          <note key="39" pan="0" pos="1248" len="12" vol="136"/>
          <note key="24" pan="0" pos="1248" len="12" vol="148"/>
          <note key="39" pan="0" pos="1272" len="12" vol="136"/>
          <note key="34" pan="0" pos="1272" len="12" vol="136"/>
          <note key="24" pan="0" pos="1284" len="12" vol="148"/>
          <note key="39" pan="0" pos="1296" len="12" vol="136"/>
          <note key="28" pan="0" pos="1296" len="12" vol="174"/>
          <note key="39" pan="0" pos="1320" len="12" vol="136"/>
          <note key="34" pan="0" pos="1320" len="12" vol="136"/>
          <note key="28" pan="0" pos="1332" len="12" vol="174"/>
          <note key="24" pan="0" pos="1332" len="12" vol="148"/>
          <note key="39" pan="0" pos="1344" len="12" vol="136"/>
          <note key="24" pan="0" pos="1344" len="12" vol="148"/>
          <note key="39" pan="0" pos="1368" len="12" vol="136"/>
          <note key="34" pan="0" pos="1368" len="12" vol="136"/>
          <note key="24" pan="0" pos="1380" len="12" vol="148"/>
          <note key="39" pan="0" pos="1392" len="12" vol="136"/>
          <note key="28" pan="0" pos="1392" len="12" vol="174"/>
          <note key="39" pan="0" pos="1416" len="12" vol="136"/>
          <note key="34" pan="0" pos="1416" len="12" vol="136"/>
          <note key="24" pan="0" pos="1428" len="12" vol="148"/>
          <note key="39" pan="0" pos="1440" len="12" vol="136"/>
          <note key="24" pan="0" pos="1440" len="12" vol="148"/>
          <note key="39" pan="0" pos="1464" len="12" vol="136"/>
          <note key="34" pan="0" pos="1464" len="12" vol="136"/>
          <note key="28" pan="0" pos="1464" len="12" vol="174"/>
          <note key="24" pan="0" pos="1476" len="12" vol="148"/>
          <note key="39" pan="0" pos="1488" len="12" vol="136"/>
          <note key="28" pan="0" pos="1488" len="12" vol="174"/>
          <note key="39" pan="0" pos="1512" len="12" vol="136"/>
          <note key="34" pan="0" pos="1512" len="12" vol="136"/>
          <note key="28" pan="0" pos="1512" len="12" vol="174"/>
          <note key="28" pan="0" pos="1524" len="12" vol="174"/>
          <note key="24" pan="0" pos="1524" len="12" vol="148"/>
        </pattern>
        <pattern name="Carla Rack" pos="12288" muted="0" type="1" steps="16">
          <note key="39" pan="0" pos="0" len="12" vol="136"/>
          <note key="37" pan="0" pos="0" len="12" vol="174"/>
          <note key="24" pan="0" pos="0" len="12" vol="148"/>
          <note key="39" pan="0" pos="24" len="12" vol="136"/>
          <note key="34" pan="0" pos="24" len="12" vol="136"/>
          <note key="24" pan="0" pos="36" len="12" vol="148"/>
          <note key="39" pan="0" pos="48" len="12" vol="136"/>
          <note key="28" pan="0" pos="48" len="12" vol="174"/>
          <note key="39" pan="0" pos="72" len="12" vol="136"/>
          <note key="34" pan="0" pos="72" len="12" vol="136"/>
          <note key="24" pan="0" pos="84" len="12" vol="148"/>
          <note key="39" pan="0" pos="96" len="12" vol="136"/>
          <note key="24" pan="0" pos="96" len="12" vol="148"/>
          <note key="39" pan="0" pos="120" len="12" vol="136"/>
          <note key="34" pan="0" pos="120" len="12" vol="136"/>
          <note key="24" pan="0" pos="132" len="12" vol="148"/>
          <note key="39" pan="0" pos="144" len="12" vol="136"/>
          <note key="28" pan="0" pos="144" len="12" vol="174"/>
          <note key="39" pan="0" pos="168" len="12" vol="136"/>
          <note key="34" pan="0" pos="168" len="12" vol="136"/>
          <note key="28" pan="0" pos="180" len="12" vol="174"/>
          <note key="24" pan="0" pos="180" len="12" vol="148"/>
          <note key="39" pan="0" pos="192" len="12" vol="136"/>
          <note key="24" pan="0" pos="192" len="12" vol="148"/>
          <note key="39" pan="0" pos="216" len="12" vol="136"/>
          <note key="34" pan="0" pos="216" len="12" vol="136"/>
          <note key="24" pan="0" pos="228" len="12" vol="148"/>
          <note key="39" pan="0" pos="240" len="12" vol="136"/>
          <note key="28" pan="0" pos="240" len="12" vol="174"/>
          <note key="39" pan="0" pos="264" len="12" vol="136"/>
          <note key="34" pan="0" pos="264" len="12" vol="136"/>
          <note key="24" pan="0" pos="276" len="12" vol="148"/>
          <note key="39" pan="0" pos="288" len="12" vol="136"/>
          <note key="24" pan="0" pos="288" len="12" vol="148"/>
          <note key="39" pan="0" pos="312" len="12" vol="136"/>
          <note key="34" pan="0" pos="312" len="12" vol="136"/>
          <note key="24" pan="0" pos="324" len="12" vol="148"/>
          <note key="39" pan="0" pos="336" len="12" vol="136"/>
          <note key="28" pan="0" pos="336" len="12" vol="174"/>
          <note key="39" pan="0" pos="360" len="12" vol="136"/>
          <note key="34" pan="0" pos="360" len="12" vol="136"/>
          <note key="28" pan="0" pos="372" len="12" vol="174"/>
          <note key="24" pan="0" pos="372" len="12" vol="148"/>
          <note key="39" pan="0" pos="384" len="12" vol="136"/>
          <note key="24" pan="0" pos="384" len="12" vol="148"/>
          <note key="39" pan="0" pos="408" len="12" vol="136"/>
          <note key="34" pan="0" pos="408" len="12" vol="136"/>
          <note key="24" pan="0" pos="420" len="12" vol="148"/>
          <note key="39" pan="0" pos="432" len="12" vol="136"/>
          <note key="28" pan="0" pos="432" len="12" vol="174"/>
          <note key="39" pan="0" pos="456" len="12" vol="136"/>
          <note key="34" pan="0" pos="456" len="12" vol="136"/>
          <note key="24" pan="0" pos="468" len="12" vol="148"/>
          <note key="39" pan="0" pos="480" len="12" vol="136"/>
          <note key="24" pan="0" pos="480" len="12" vol="148"/>
          <note key="39" pan="0" pos="504" len="12" vol="136"/>
          <note key="34" pan="0" pos="504" len="12" vol="136"/>
          <note key="24" pan="0" pos="516" len="12" vol="148"/>
          <note key="39" pan="0" pos="528" len="12" vol="136"/>
          <note key="28" pan="0" pos="528" len="12" vol="174"/>
          <note key="39" pan="0" pos="552" len="12" vol="136"/>
          <note key="34" pan="0" pos="552" len="12" vol="136"/>
          <note key="28" pan="0" pos="564" len="12" vol="174"/>
          <note key="24" pan="0" pos="564" len="12" vol="148"/>
          <note key="39" pan="0" pos="576" len="12" vol="136"/>
          <note key="24" pan="0" pos="576" len="12" vol="148"/>
          <note key="39" pan="0" pos="600" len="12" vol="136"/>
          <note key="34" pan="0" pos="600" len="12" vol="136"/>
          <note key="24" pan="0" pos="612" len="12" vol="148"/>
          <note key="39" pan="0" pos="624" len="12" vol="136"/>
          <note key="28" pan="0" pos="624" len="12" vol="174"/>
          <note key="39" pan="0" pos="648" len="12" vol="136"/>
          <note key="34" pan="0" pos="648" len="12" vol="136"/>
          <note key="24" pan="0" pos="660" len="12" vol="148"/>
          <note key="39" pan="0" pos="672" len="12" vol="136"/>
          <note key="24" pan="0" pos="672" len="12" vol="148"/>
          <note key="39" pan="0" pos="696" len="12" vol="136"/>
          <note key="34" pan="0" pos="696" len="12" vol="136"/>
          <note key="28" pan="0" pos="696" len="12" vol="174"/>
          <note key="24" pan="0" pos="708" len="12" vol="148"/>
          <note key="39" pan="0" pos="720" len="12" vol="136"/>
          <note key="28" pan="0" pos="720" len="12" vol="174"/>
          <note key="39" pan="0" pos="744" len="12" vol="136"/>
          <note key="34" pan="0" pos="744" len="12" vol="136"/>
          <note key="28" pan="0" pos="756" len="12" vol="174"/>
          <note key="24" pan="0" pos="756" len="12" vol="148"/>
          <note key="39" pan="0" pos="768" len="12" vol="136"/>
          <note key="37" pan="0" pos="768" len="12" vol="174"/>
          <note key="24" pan="0" pos="768" len="12" vol="148"/>
          <note key="39" pan="0" pos="792" len="12" vol="136"/>
          <note key="34" pan="0" pos="792" len="12" vol="136"/>
          <note key="24" pan="0" pos="804" len="12" vol="148"/>
          <note key="39" pan="0" pos="816" len="12" vol="136"/>
          <note key="28" pan="0" pos="816" len="12" vol="174"/>
          <note key="39" pan="0" pos="840" len="12" vol="136"/>
          <note key="34" pan="0" pos="840" len="12" vol="136"/>
          <note key="24" pan="0" pos="852" len="12" vol="148"/>
          <note key="39" pan="0" pos="864" len="12" vol="136"/>
          <note key="24" pan="0" pos="864" len="12" vol="148"/>
          <note key="39" pan="0" pos="888" len="12" vol="136"/>
          <note key="34" pan="0" pos="888" len="12" vol="136"/>
          <note key="24" pan="0" pos="900" len="12" vol="148"/>
          <note key="39" pan="0" pos="912" len="12" vol="136"/>
          <note key="28" pan="0" pos="912" len="12" vol="174"/>
          <note key="39" pan="0" pos="936" len="12" vol="136"/>
          <note key="34" pan="0" pos="936" len="12" vol="136"/>
          <note key="28" pan="0" pos="948" len="12" vol="174"/>
          <note key="24" pan="0" pos="948" len="12" vol="148"/>
          <note key="39" pan="0" pos="960" len="12" vol="136"/>
          <note key="24" pan="0" pos="960" len="12" vol="148"/>
          <note key="39" pan="0" pos="984" len="12" vol="136"/>
          <note key="34" pan="0" pos="984" len="12" vol="136"/>
          <note key="24" pan="0" pos="996" len="12" vol="148"/>
          <note key="39" pan="0" pos="1008" len="12" vol="136"/>
          <note key="28" pan="0" pos="1008" len="12" vol="174"/>
          <note key="39" pan="0" pos="1032" len="12" vol="136"/>
          <note key="34" pan="0" pos="1032" len="12" vol="136"/>
          <note key="24" pan="0" pos="1044" len="12" vol="148"/>
          <note key="39" pan="0" pos="1056" len="12" vol="136"/>
          <note key="24" pan="0" pos="1056" len="12" vol="148"/>
          <note key="39" pan="0" pos="1080" len="12" vol="136"/>
          <note key="34" pan="0" pos="1080" len="12" vol="136"/>
          <note key="24" pan="0" pos="1092" len="12" vol="148"/>
          <note key="39" pan="0" pos="1104" len="12" vol="136"/>
          <note key="28" pan="0" pos="1104" len="12" vol="174"/>
          <note key="39" pan="0" pos="1128" len="12" vol="136"/>
          <note key="34" pan="0" pos="1128" len="12" vol="136"/>
          <note key="28" pan="0" pos="1140" len="12" vol="174"/>
          <note key="24" pan="0" pos="1140" len="12" vol="148"/>
          <note key="39" pan="0" pos="1152" len="12" vol="136"/>
          <note key="24" pan="0" pos="1152" len="12" vol="148"/>
          <note key="39" pan="0" pos="1176" len="12" vol="136"/>
          <note key="34" pan="0" pos="1176" len="12" vol="136"/>
          <note key="24" pan="0" pos="1188" len="12" vol="148"/>
          <note key="39" pan="0" pos="1200" len="12" vol="136"/>
          <note key="28" pan="0" pos="1200" len="12" vol="174"/>
          <note key="39" pan="0" pos="1224" len="12" vol="136"/>
          <note key="34" pan="0" pos="1224" len="12" vol="136"/>
          <note key="24" pan="0" pos="1236" len="12" vol="148"/>
          <note key="39" pan="0" pos="1248" len="12" vol="136"/>
          <note key="24" pan="0" pos="1248" len="12" vol="148"/>
          <note key="39" pan="0" pos="1272" len="12" vol="136"/>
          <note key="34" pan="0" pos="1272" len="12" vol="136"/>
          <note key="24" pan="0" pos="1284" len="12" vol="148"/>
          <note key="39" pan="0" pos="1296" len="12" vol="136"/>
          <note key="28" pan="0" pos="1296" len="12" vol="174"/>
          <note key="39" pan="0" pos="1320" len="12" vol="136"/>
          <note key="34" pan="0" pos="1320" len="12" vol="136"/>
          <note key="28" pan="0" pos="1332" len="12" vol="174"/>
          <note key="24" pan="0" pos="1332" len="12" vol="148"/>
          <note key="39" pan="0" pos="1344" len="12" vol="136"/>
          <note key="24" pan="0" pos="1344" len="12" vol="148"/>
          <note key="39" pan="0" pos="1368" len="12" vol="136"/>
          <note key="34" pan="0" pos="1368" len="12" vol="136"/>
          <note key="24" pan="0" pos="1380" len="12" vol="148"/>
          <note key="39" pan="0" pos="1392" len="12" vol="136"/>
          <note key="28" pan="0" pos="1392" len="12" vol="174"/>
          <note key="39" pan="0" pos="1416" len="12" vol="136"/>
          <note key="34" pan="0" pos="1416" len="12" vol="136"/>
          <note key="24" pan="0" pos="1428" len="12" vol="148"/>
          <note key="39" pan="0" pos="1440" len="12" vol="136"/>
          <note key="24" pan="0" pos="1440" len="12" vol="148"/>
          <note key="39" pan="0" pos="1464" len="12" vol="136"/>
          <note key="34" pan="0" pos="1464" len="12" vol="136"/>
          <note key="28" pan="0" pos="1464" len="12" vol="174"/>
          <note key="24" pan="0" pos="1476" len="12" vol="148"/>
          <note key="39" pan="0" pos="1488" len="12" vol="136"/>
          <note key="28" pan="0" pos="1488" len="12" vol="174"/>
          <note key="39" pan="0" pos="1512" len="12" vol="136"/>
          <note key="34" pan="0" pos="1512" len="12" vol="136"/>
          <note key="28" pan="0" pos="1512" len="12" vol="174"/>
          <note key="28" pan="0" pos="1524" len="12" vol="174"/>
          <note key="24" pan="0" pos="1524" len="12" vol="148"/>
        </pattern>
        <pattern name="Carla Rack" pos="13824" muted="0" type="1" steps="16">
          <note key="39" pan="0" pos="0" len="12" vol="136"/>
          <note key="37" pan="0" pos="0" len="12" vol="174"/>
          <note key="24" pan="0" pos="0" len="12" vol="148"/>
          <note key="39" pan="0" pos="24" len="12" vol="136"/>
          <note key="34" pan="0" pos="24" len="12" vol="136"/>
          <note key="24" pan="0" pos="36" len="12" vol="148"/>
          <note key="39" pan="0" pos="48" len="12" vol="136"/>
          <note key="28" pan="0" pos="48" len="12" vol="174"/>
          <note key="39" pan="0" pos="72" len="12" vol="136"/>
          <note key="34" pan="0" pos="72" len="12" vol="136"/>
          <note key="24" pan="0" pos="84" len="12" vol="148"/>
          <note key="39" pan="0" pos="96" len="12" vol="136"/>
          <note key="24" pan="0" pos="96" len="12" vol="148"/>
          <note key="39" pan="0" pos="120" len="12" vol="136"/>
          <note key="34" pan="0" pos="120" len="12" vol="136"/>
          <note key="24" pan="0" pos="132" len="12" vol="148"/>
          <note key="39" pan="0" pos="144" len="12" vol="136"/>
          <note key="28" pan="0" pos="144" len="12" vol="174"/>
          <note key="39" pan="0" pos="168" len="12" vol="136"/>
          <note key="34" pan="0" pos="168" len="12" vol="136"/>
          <note key="28" pan="0" pos="180" len="12" vol="174"/>
          <note key="24" pan="0" pos="180" len="12" vol="148"/>
          <note key="39" pan="0" pos="192" len="12" vol="136"/>
          <note key="24" pan="0" pos="192" len="12" vol="148"/>
          <note key="39" pan="0" pos="216" len="12" vol="136"/>
          <note key="34" pan="0" pos="216" len="12" vol="136"/>
          <note key="24" pan="0" pos="228" len="12" vol="148"/>
          <note key="39" pan="0" pos="240" len="12" vol="136"/>
          <note key="28" pan="0" pos="240" len="12" vol="174"/>
          <note key="39" pan="0" pos="264" len="12" vol="136"/>
          <note key="34" pan="0" pos="264" len="12" vol="136"/>
          <note key="24" pan="0" pos="276" len="12" vol="148"/>
          <note key="39" pan="0" pos="288" len="12" vol="136"/>
          <note key="24" pan="0" pos="288" len="12" vol="148"/>
          <note key="39" pan="0" pos="312" len="12" vol="136"/>
          <note key="34" pan="0" pos="312" len="12" vol="136"/>
          <note key="24" pan="0" pos="324" len="12" vol="148"/>
          <note key="39" pan="0" pos="336" len="12" vol="136"/>
          <note key="28" pan="0" pos="336" len="12" vol="174"/>
          <note key="39" pan="0" pos="360" len="12" vol="136"/>
          <note key="34" pan="0" pos="360" len="12" vol="136"/>
          <note key="28" pan="0" pos="372" len="12" vol="174"/>
          <note key="24" pan="0" pos="372" len="12" vol="148"/>
          <note key="39" pan="0" pos="384" len="12" vol="136"/>
          <note key="24" pan="0" pos="384" len="12" vol="148"/>
          <note key="39" pan="0" pos="408" len="12" vol="136"/>
          <note key="34" pan="0" pos="408" len="12" vol="136"/>
          <note key="24" pan="0" pos="420" len="12" vol="148"/>
          <note key="39" pan="0" pos="432" len="12" vol="136"/>
          <note key="28" pan="0" pos="432" len="12" vol="174"/>
          <note key="39" pan="0" pos="456" len="12" vol="136"/>
          <note key="34" pan="0" pos="456" len="12" vol="136"/>
          <note key="24" pan="0" pos="468" len="12" vol="148"/>
          <note key="39" pan="0" pos="480" len="12" vol="136"/>
          <note key="24" pan="0" pos="480" len="12" vol="148"/>
          <note key="39" pan="0" pos="504" len="12" vol="136"/>
          <note key="34" pan="0" pos="504" len="12" vol="136"/>
          <note key="24" pan="0" pos="516" len="12" vol="148"/>
          <note key="39" pan="0" pos="528" len="12" vol="136"/>
          <note key="28" pan="0" pos="528" len="12" vol="174"/>
          <note key="39" pan="0" pos="552" len="12" vol="136"/>
          <note key="34" pan="0" pos="552" len="12" vol="136"/>
          <note key="28" pan="0" pos="564" len="12" vol="174"/>
          <note key="24" pan="0" pos="564" len="12" vol="148"/>
          <note key="39" pan="0" pos="576" len="12" vol="136"/>
          <note key="24" pan="0" pos="576" len="12" vol="148"/>
          <note key="39" pan="0" pos="600" len="12" vol="136"/>
          <note key="34" pan="0" pos="600" len="12" vol="136"/>
          <note key="24" pan="0" pos="612" len="12" vol="148"/>
          <note key="39" pan="0" pos="624" len="12" vol="136"/>
          <note key="28" pan="0" pos="624" len="12" vol="174"/>
          <note key="39" pan="0" pos="648" len="12" vol="136"/>
          <note key="34" pan="0" pos="648" len="12" vol="136"/>
          <note key="24" pan="0" pos="660" len="12" vol="148"/>
          <note key="39" pan="0" pos="672" len="12" vol="136"/>
          <note key="24" pan="0" pos="672" len="12" vol="148"/>
          <note key="39" pan="0" pos="696" len="12" vol="136"/>
          <note key="34" pan="0" pos="696" len="12" vol="136"/>
          <note key="28" pan="0" pos="696" len="12" vol="174"/>
          <note key="24" pan="0" pos="708" len="12" vol="148"/>
          <note key="39" pan="0" pos="720" len="12" vol="136"/>
          <note key="28" pan="0" pos="720" len="12" vol="174"/>
          <note key="39" pan="0" pos="744" len="12" vol="136"/>
          <note key="34" pan="0" pos="744" len="12" vol="136"/>
          <note key="28" pan="0" pos="756" len="12" vol="174"/>
          <note key="24" pan="0" pos="756" len="12" vol="148"/>
          <note key="39" pan="0" pos="768" len="12" vol="136"/>
          <note key="37" pan="0" pos="768" len="12" vol="174"/>
          <note key="24" pan="0" pos="768" len="12" vol="148"/>
          <note key="39" pan="0" pos="792" len="12" vol="136"/>
          <note key="34" pan="0" pos="792" len="12" vol="136"/>
          <note key="24" pan="0" pos="804" len="12" vol="148"/>
          <note key="39" pan="0" pos="816" len="12" vol="136"/>
          <note key="28" pan="0" pos="816" len="12" vol="174"/>
          <note key="39" pan="0" pos="840" len="12" vol="136"/>
          <note key="34" pan="0" pos="840" len="12" vol="136"/>
          <note key="24" pan="0" pos="852" len="12" vol="148"/>
          <note key="39" pan="0" pos="864" len="12" vol="136"/>
          <note key="24" pan="0" pos="864" len="12" vol="148"/>
          <note key="39" pan="0" pos="888" len="12" vol="136"/>
          <note key="34" pan="0" pos="888" len="12" vol="136"/>
          <note key="24" pan="0" pos="900" len="12" vol="148"/>
          <note key="39" pan="0" pos="912" len="12" vol="136"/>
          <note key="28" pan="0" pos="912" len="12" vol="174"/>
          <note key="39" pan="0" pos="936" len="12" vol="136"/>
          <note key="34" pan="0" pos="936" len="12" vol="136"/>
          <note key="28" pan="0" pos="948" len="12" vol="174"/>
          <note key="24" pan="0" pos="948" len="12" vol="148"/>
          <note key="39" pan="0" pos="960" len="12" vol="136"/>
          <note key="24" pan="0" pos="960" len="12" vol="148"/>
          <note key="39" pan="0" pos="984" len="12" vol="136"/>
          <note key="34" pan="0" pos="984" len="12" vol="136"/>
          <note key="24" pan="0" pos="996" len="12" vol="148"/>
          <note key="39" pan="0" pos="1008" len="12" vol="136"/>
          <note key="28" pan="0" pos="1008" len="12" vol="174"/>
          <note key="39" pan="0" pos="1032" len="12" vol="136"/>
          <note key="34" pan="0" pos="1032" len="12" vol="136"/>
          <note key="24" pan="0" pos="1044" len="12" vol="148"/>
          <note key="39" pan="0" pos="1056" len="12" vol="136"/>
          <note key="24" pan="0" pos="1056" len="12" vol="148"/>
          <note key="39" pan="0" pos="1080" len="12" vol="136"/>
          <note key="34" pan="0" pos="1080" len="12" vol="136"/>
          <note key="24" pan="0" pos="1092" len="12" vol="148"/>
          <note key="39" pan="0" pos="1104" len="12" vol="136"/>
          <note key="28" pan="0" pos="1104" len="12" vol="174"/>
          <note key="39" pan="0" pos="1128" len="12" vol="136"/>
          <note key="34" pan="0" pos="1128" len="12" vol="136"/>
          <note key="28" pan="0" pos="1140" len="12" vol="174"/>
          <note key="24" pan="0" pos="1140" len="12" vol="148"/>
          <note key="39" pan="0" pos="1152" len="12" vol="136"/>
          <note key="24" pan="0" pos="1152" len="12" vol="148"/>
          <note key="39" pan="0" pos="1176" len="12" vol="136"/>
          <note key="34" pan="0" pos="1176" len="12" vol="136"/>
          <note key="24" pan="0" pos="1188" len="12" vol="148"/>
          <note key="39" pan="0" pos="1200" len="12" vol="136"/>
          <note key="28" pan="0" pos="1200" len="12" vol="174"/>
          <note key="39" pan="0" pos="1224" len="12" vol="136"/>
          <note key="34" pan="0" pos="1224" len="12" vol="136"/>
          <note key="24" pan="0" pos="1236" len="12" vol="148"/>
          <note key="39" pan="0" pos="1248" len="12" vol="136"/>
          <note key="24" pan="0" pos="1248" len="12" vol="148"/>
          <note key="39" pan="0" pos="1272" len="12" vol="136"/>
          <note key="34" pan="0" pos="1272" len="12" vol="136"/>
          <note key="24" pan="0" pos="1284" len="12" vol="148"/>
          <note key="39" pan="0" pos="1296" len="12" vol="136"/>
          <note key="28" pan="0" pos="1296" len="12" vol="174"/>
          <note key="39" pan="0" pos="1320" len="12" vol="136"/>
          <note key="34" pan="0" pos="1320" len="12" vol="136"/>
          <note key="28" pan="0" pos="1332" len="12" vol="174"/>
          <note key="24" pan="0" pos="1332" len="12" vol="148"/>
          <note key="39" pan="0" pos="1344" len="12" vol="136"/>
          <note key="24" pan="0" pos="1344" len="12" vol="148"/>
          <note key="39" pan="0" pos="1368" len="12" vol="136"/>
          <note key="34" pan="0" pos="1368" len="12" vol="136"/>
          <note key="24" pan="0" pos="1380" len="12" vol="148"/>
          <note key="39" pan="0" pos="1392" len="12" vol="136"/>
          <note key="28" pan="0" pos="1392" len="12" vol="174"/>
          <note key="39" pan="0" pos="1416" len="12" vol="136"/>
          <note key="34" pan="0" pos="1416" len="12" vol="136"/>
          <note key="24" pan="0" pos="1428" len="12" vol="148"/>
          <note key="39" pan="0" pos="1440" len="12" vol="136"/>
          <note key="24" pan="0" pos="1440" len="12" vol="148"/>
          <note key="39" pan="0" pos="1464" len="12" vol="136"/>
          <note key="34" pan="0" pos="1464" len="12" vol="136"/>
          <note key="28" pan="0" pos="1464" len="12" vol="174"/>
          <note key="24" pan="0" pos="1476" len="12" vol="148"/>
          <note key="39" pan="0" pos="1488" len="12" vol="136"/>
          <note key="28" pan="0" pos="1488" len="12" vol="174"/>
          <note key="39" pan="0" pos="1512" len="12" vol="136"/>
          <note key="34" pan="0" pos="1512" len="12" vol="136"/>
          <note key="28" pan="0" pos="1512" len="12" vol="174"/>
          <note key="28" pan="0" pos="1524" len="12" vol="174"/>
          <note key="24" pan="0" pos="1524" len="12" vol="148"/>
        </pattern>
        <pattern name="Carla Rack" pos="15360" muted="0" type="1" steps="16">
          <note key="39" pan="0" pos="0" len="12" vol="136"/>
          <note key="37" pan="0" pos="0" len="12" vol="174"/>
          <note key="24" pan="0" pos="0" len="12" vol="148"/>
          <note key="39" pan="0" pos="24" len="12" vol="136"/>
          <note key="34" pan="0" pos="24" len="12" vol="136"/>
          <note key="24" pan="0" pos="36" len="12" vol="148"/>
          <note key="39" pan="0" pos="48" len="12" vol="136"/>
          <note key="28" pan="0" pos="48" len="12" vol="174"/>
          <note key="39" pan="0" pos="72" len="12" vol="136"/>
          <note key="34" pan="0" pos="72" len="12" vol="136"/>
          <note key="24" pan="0" pos="84" len="12" vol="148"/>
          <note key="39" pan="0" pos="96" len="12" vol="136"/>
          <note key="24" pan="0" pos="96" len="12" vol="148"/>
          <note key="39" pan="0" pos="120" len="12" vol="136"/>
          <note key="34" pan="0" pos="120" len="12" vol="136"/>
          <note key="24" pan="0" pos="132" len="12" vol="148"/>
          <note key="39" pan="0" pos="144" len="12" vol="136"/>
          <note key="28" pan="0" pos="144" len="12" vol="174"/>
          <note key="39" pan="0" pos="168" len="12" vol="136"/>
          <note key="34" pan="0" pos="168" len="12" vol="136"/>
          <note key="28" pan="0" pos="180" len="12" vol="174"/>
          <note key="24" pan="0" pos="180" len="12" vol="148"/>
          <note key="39" pan="0" pos="192" len="12" vol="136"/>
          <note key="24" pan="0" pos="192" len="12" vol="148"/>
          <note key="39" pan="0" pos="216" len="12" vol="136"/>
          <note key="34" pan="0" pos="216" len="12" vol="136"/>
          <note key="24" pan="0" pos="228" len="12" vol="148"/>
          <note key="39" pan="0" pos="240" len="12" vol="136"/>
          <note key="28" pan="0" pos="240" len="12" vol="174"/>
          <note key="39" pan="0" pos="264" len="12" vol="136"/>
          <note key="34" pan="0" pos="264" len="12" vol="136"/>
          <note key="24" pan="0" pos="276" len="12" vol="148"/>
          <note key="39" pan="0" pos="288" len="12" vol="136"/>
          <note key="24" pan="0" pos="288" len="12" vol="148"/>
          <note key="39" pan="0" pos="312" len="12" vol="136"/>
          <note key="34" pan="0" pos="312" len="12" vol="136"/>
          <note key="24" pan="0" pos="324" len="12" vol="148"/>
          <note key="39" pan="0" pos="336" len="12" vol="136"/>
          <note key="28" pan="0" pos="336" len="12" vol="174"/>
          <note key="39" pan="0" pos="360" len="12" vol="136"/>
          <note key="34" pan="0" pos="360" len="12" vol="136"/>
          <note key="28" pan="0" pos="372" len="12" vol="174"/>
          <note key="24" pan="0" pos="372" len="12" vol="148"/>
          <note key="39" pan="0" pos="384" len="12" vol="136"/>
          <note key="24" pan="0" pos="384" len="12" vol="148"/>
          <note key="39" pan="0" pos="408" len="12" vol="136"/>
          <note key="34" pan="0" pos="408" len="12" vol="136"/>
          <note key="24" pan="0" pos="420" len="12" vol="148"/>
          <note key="39" pan="0" pos="432" len="12" vol="136"/>
          <note key="28" pan="0" pos="432" len="12" vol="174"/>
          <note key="39" pan="0" pos="456" len="12" vol="136"/>
          <note key="34" pan="0" pos="456" len="12" vol="136"/>
          <note key="24" pan="0" pos="468" len="12" vol="148"/>
          <note key="39" pan="0" pos="480" len="12" vol="136"/>
          <note key="24" pan="0" pos="480" len="12" vol="148"/>
          <note key="39" pan="0" pos="504" len="12" vol="136"/>
          <note key="34" pan="0" pos="504" len="12" vol="136"/>
          <note key="24" pan="0" pos="516" len="12" vol="148"/>
          <note key="39" pan="0" pos="528" len="12" vol="136"/>
          <note key="28" pan="0" pos="528" len="12" vol="174"/>
          <note key="39" pan="0" pos="552" len="12" vol="136"/>
          <note key="34" pan="0" pos="552" len="12" vol="136"/>
          <note key="28" pan="0" pos="564" len="12" vol="174"/>
          <note key="24" pan="0" pos="564" len="12" vol="148"/>
          <note key="39" pan="0" pos="576" len="12" vol="136"/>
          <note key="24" pan="0" pos="576" len="12" vol="148"/>
          <note key="39" pan="0" pos="600" len="12" vol="136"/>
          <note key="34" pan="0" pos="600" len="12" vol="136"/>
          <note key="24" pan="0" pos="612" len="12" vol="148"/>
          <note key="39" pan="0" pos="624" len="12" vol="136"/>
          <note key="28" pan="0" pos="624" len="12" vol="174"/>
          <note key="39" pan="0" pos="648" len="12" vol="136"/>
          <note key="34" pan="0" pos="648" len="12" vol="136"/>
          <note key="24" pan="0" pos="660" len="12" vol="148"/>
          <note key="39" pan="0" pos="672" len="12" vol="136"/>
          <note key="24" pan="0" pos="672" len="12" vol="148"/>
          <note key="39" pan="0" pos="696" len="12" vol="136"/>
          <note key="34" pan="0" pos="696" len="12" vol="136"/>
          <note key="28" pan="0" pos="696" len="12" vol="174"/>
          <note key="24" pan="0" pos="708" len="12" vol="148"/>
          <note key="39" pan="0" pos="720" len="12" vol="136"/>
          <note key="28" pan="0" pos="720" len="12" vol="174"/>
          <note key="39" pan="0" pos="744" len="12" vol="136"/>
          <note key="34" pan="0" pos="744" len="12" vol="136"/>
          <note key="28" pan="0" pos="756" len="12" vol="174"/>
          <note key="24" pan="0" pos="756" len="12" vol="148"/>
          <note key="39" pan="0" pos="768" len="12" vol="136"/>
          <note key="37" pan="0" pos="768" len="12" vol="174"/>
          <note key="24" pan="0" pos="768" len="12" vol="148"/>
          <note key="39" pan="0" pos="792" len="12" vol="136"/>
          <note key="34" pan="0" pos="792" len="12" vol="136"/>
          <note key="24" pan="0" pos="804" len="12" vol="148"/>
          <note key="39" pan="0" pos="816" len="12" vol="136"/>
          <note key="28" pan="0" pos="816" len="12" vol="174"/>
          <note key="39" pan="0" pos="840" len="12" vol="136"/>
          <note key="34" pan="0" pos="840" len="12" vol="136"/>
          <note key="24" pan="0" pos="852" len="12" vol="148"/>
          <note key="39" pan="0" pos="864" len="12" vol="136"/>
          <note key="24" pan="0" pos="864" len="12" vol="148"/>
          <note key="39" pan="0" pos="888" len="12" vol="136"/>
          <note key="34" pan="0" pos="888" len="12" vol="136"/>
          <note key="24" pan="0" pos="900" len="12" vol="148"/>
          <note key="39" pan="0" pos="912" len="12" vol="136"/>
          <note key="28" pan="0" pos="912" len="12" vol="174"/>
          <note key="39" pan="0" pos="936" len="12" vol="136"/>
          <note key="34" pan="0" pos="936" len="12" vol="136"/>
          <note key="28" pan="0" pos="948" len="12" vol="174"/>
          <note key="24" pan="0" pos="948" len="12" vol="148"/>
          <note key="39" pan="0" pos="960" len="12" vol="136"/>
          <note key="24" pan="0" pos="960" len="12" vol="148"/>
          <note key="39" pan="0" pos="984" len="12" vol="136"/>
          <note key="34" pan="0" pos="984" len="12" vol="136"/>
          <note key="24" pan="0" pos="996" len="12" vol="148"/>
          <note key="39" pan="0" pos="1008" len="12" vol="136"/>
          <note key="28" pan="0" pos="1008" len="12" vol="174"/>
          <note key="39" pan="0" pos="1032" len="12" vol="136"/>
          <note key="34" pan="0" pos="1032" len="12" vol="136"/>
          <note key="24" pan="0" pos="1044" len="12" vol="148"/>
          <note key="39" pan="0" pos="1056" len="12" vol="136"/>
          <note key="24" pan="0" pos="1056" len="12" vol="148"/>
          <note key="39" pan="0" pos="1080" len="12" vol="136"/>
          <note key="34" pan="0" pos="1080" len="12" vol="136"/>
          <note key="24" pan="0" pos="1092" len="12" vol="148"/>
          <note key="39" pan="0" pos="1104" len="12" vol="136"/>
          <note key="28" pan="0" pos="1104" len="12" vol="174"/>
          <note key="39" pan="0" pos="1128" len="12" vol="136"/>
          <note key="34" pan="0" pos="1128" len="12" vol="136"/>
          <note key="28" pan="0" pos="1140" len="12" vol="174"/>
          <note key="24" pan="0" pos="1140" len="12" vol="148"/>
          <note key="39" pan="0" pos="1152" len="12" vol="136"/>
          <note key="24" pan="0" pos="1152" len="12" vol="148"/>
          <note key="39" pan="0" pos="1176" len="12" vol="136"/>
          <note key="34" pan="0" pos="1176" len="12" vol="136"/>
          <note key="24" pan="0" pos="1188" len="12" vol="148"/>
          <note key="39" pan="0" pos="1200" len="12" vol="136"/>
          <note key="28" pan="0" pos="1200" len="12" vol="174"/>
          <note key="39" pan="0" pos="1224" len="12" vol="136"/>
          <note key="34" pan="0" pos="1224" len="12" vol="136"/>
          <note key="24" pan="0" pos="1236" len="12" vol="148"/>
          <note key="39" pan="0" pos="1248" len="12" vol="136"/>
          <note key="24" pan="0" pos="1248" len="12" vol="148"/>
          <note key="39" pan="0" pos="1272" len="12" vol="136"/>
          <note key="34" pan="0" pos="1272" len="12" vol="136"/>
          <note key="24" pan="0" pos="1284" len="12" vol="148"/>
          <note key="39" pan="0" pos="1296" len="12" vol="136"/>
          <note key="28" pan="0" pos="1296" len="12" vol="174"/>
          <note key="39" pan="0" pos="1320" len="12" vol="136"/>
          <note key="34" pan="0" pos="1320" len="12" vol="136"/>
          <note key="28" pan="0" pos="1332" len="12" vol="174"/>
          <note key="24" pan="0" pos="1332" len="12" vol="148"/>
          <note key="39" pan="0" pos="1344" len="12" vol="136"/>
          <note key="24" pan="0" pos="1344" len="12" vol="148"/>
          <note key="39" pan="0" pos="1368" len="12" vol="136"/>
          <note key="34" pan="0" pos="1368" len="12" vol="136"/>
          <note key="24" pan="0" pos="1380" len="12" vol="148"/>
          <note key="39" pan="0" pos="1392" len="12" vol="136"/>
          <note key="28" pan="0" pos="1392" len="12" vol="174"/>
          <note key="39" pan="0" pos="1416" len="12" vol="136"/>
          <note key="34" pan="0" pos="1416" len="12" vol="136"/>
          <note key="24" pan="0" pos="1428" len="12" vol="148"/>
          <note key="39" pan="0" pos="1440" len="12" vol="136"/>
          <note key="24" pan="0" pos="1440" len="12" vol="148"/>
          <note key="39" pan="0" pos="1464" len="12" vol="136"/>
          <note key="34" pan="0" pos="1464" len="12" vol="136"/>
          <note key="28" pan="0" pos="1464" len="12" vol="174"/>
          <note key="24" pan="0" pos="1476" len="12" vol="148"/>
          <note key="39" pan="0" pos="1488" len="12" vol="136"/>
          <note key="28" pan="0" pos="1488" len="12" vol="174"/>
          <note key="39" pan="0" pos="1512" len="12" vol="136"/>
          <note key="34" pan="0" pos="1512" len="12" vol="136"/>
          <note key="28" pan="0" pos="1512" len="12" vol="174"/>
          <note key="28" pan="0" pos="1524" len="12" vol="174"/>
          <note key="24" pan="0" pos="1524" len="12" vol="148"/>
        </pattern>
        <pattern name="Carla Rack" pos="16896" muted="0" type="1" steps="16">
          <note key="39" pan="0" pos="0" len="12" vol="136"/>
          <note key="37" pan="0" pos="0" len="12" vol="174"/>
          <note key="24" pan="0" pos="0" len="12" vol="148"/>
          <note key="39" pan="0" pos="24" len="12" vol="136"/>
          <note key="34" pan="0" pos="24" len="12" vol="136"/>
          <note key="24" pan="0" pos="36" len="12" vol="148"/>
          <note key="39" pan="0" pos="48" len="12" vol="136"/>
          <note key="28" pan="0" pos="48" len="12" vol="174"/>
          <note key="39" pan="0" pos="72" len="12" vol="136"/>
          <note key="34" pan="0" pos="72" len="12" vol="136"/>
          <note key="24" pan="0" pos="84" len="12" vol="148"/>
          <note key="39" pan="0" pos="96" len="12" vol="136"/>
          <note key="24" pan="0" pos="96" len="12" vol="148"/>
          <note key="39" pan="0" pos="120" len="12" vol="136"/>
          <note key="34" pan="0" pos="120" len="12" vol="136"/>
          <note key="24" pan="0" pos="132" len="12" vol="148"/>
          <note key="39" pan="0" pos="144" len="12" vol="136"/>
          <note key="28" pan="0" pos="144" len="12" vol="174"/>
          <note key="39" pan="0" pos="168" len="12" vol="136"/>
          <note key="34" pan="0" pos="168" len="12" vol="136"/>
          <note key="28" pan="0" pos="180" len="12" vol="174"/>
          <note key="24" pan="0" pos="180" len="12" vol="148"/>
          <note key="39" pan="0" pos="192" len="12" vol="136"/>
          <note key="24" pan="0" pos="192" len="12" vol="148"/>
          <note key="39" pan="0" pos="216" len="12" vol="136"/>
          <note key="34" pan="0" pos="216" len="12" vol="136"/>
          <note key="24" pan="0" pos="228" len="12" vol="148"/>
          <note key="39" pan="0" pos="240" len="12" vol="136"/>
          <note key="28" pan="0" pos="240" len="12" vol="174"/>
          <note key="39" pan="0" pos="264" len="12" vol="136"/>
          <note key="34" pan="0" pos="264" len="12" vol="136"/>
          <note key="24" pan="0" pos="276" len="12" vol="148"/>
          <note key="39" pan="0" pos="288" len="12" vol="136"/>
          <note key="24" pan="0" pos="288" len="12" vol="148"/>
          <note key="39" pan="0" pos="312" len="12" vol="136"/>
          <note key="34" pan="0" pos="312" len="12" vol="136"/>
          <note key="24" pan="0" pos="324" len="12" vol="148"/>
          <note key="39" pan="0" pos="336" len="12" vol="136"/>
          <note key="28" pan="0" pos="336" len="12" vol="174"/>
          <note key="39" pan="0" pos="360" len="12" vol="136"/>
          <note key="34" pan="0" pos="360" len="12" vol="136"/>
          <note key="28" pan="0" pos="372" len="12" vol="174"/>
          <note key="24" pan="0" pos="372" len="12" vol="148"/>
          <note key="39" pan="0" pos="384" len="12" vol="136"/>
          <note key="24" pan="0" pos="384" len="12" vol="148"/>
          <note key="39" pan="0" pos="408" len="12" vol="136"/>
          <note key="34" pan="0" pos="408" len="12" vol="136"/>
          <note key="24" pan="0" pos="420" len="12" vol="148"/>
          <note key="39" pan="0" pos="432" len="12" vol="136"/>
          <note key="28" pan="0" pos="432" len="12" vol="174"/>
          <note key="39" pan="0" pos="456" len="12" vol="136"/>
          <note key="34" pan="0" pos="456" len="12" vol="136"/>
          <note key="24" pan="0" pos="468" len="12" vol="148"/>
          <note key="39" pan="0" pos="480" len="12" vol="136"/>
          <note key="24" pan="0" pos="480" len="12" vol="148"/>
          <note key="39" pan="0" pos="504" len="12" vol="136"/>
          <note key="34" pan="0" pos="504" len="12" vol="136"/>
          <note key="24" pan="0" pos="516" len="12" vol="148"/>
          <note key="39" pan="0" pos="528" len="12" vol="136"/>
          <note key="28" pan="0" pos="528" len="12" vol="174"/>
          <note key="39" pan="0" pos="552" len="12" vol="136"/>
          <note key="34" pan="0" pos="552" len="12" vol="136"/>
          <note key="28" pan="0" pos="564" len="12" vol="174"/>
          <note key="24" pan="0" pos="564" len="12" vol="148"/>
          <note key="39" pan="0" pos="576" len="12" vol="136"/>
          <note key="24" pan="0" pos="576" len="12" vol="148"/>
          <note key="39" pan="0" pos="600" len="12" vol="136"/>
          <note key="34" pan="0" pos="600" len="12" vol="136"/>
          <note key="24" pan="0" pos="612" len="12" vol="148"/>
          <note key="39" pan="0" pos="624" len="12" vol="136"/>
          <note key="28" pan="0" pos="624" len="12" vol="174"/>
          <note key="39" pan="0" pos="648" len="12" vol="136"/>
          <note key="34" pan="0" pos="648" len="12" vol="136"/>
          <note key="24" pan="0" pos="660" len="12" vol="148"/>
          <note key="39" pan="0" pos="672" len="12" vol="136"/>
          <note key="24" pan="0" pos="672" len="12" vol="148"/>
          <note key="39" pan="0" pos="696" len="12" vol="136"/>
          <note key="34" pan="0" pos="696" len="12" vol="136"/>
          <note key="28" pan="0" pos="696" len="12" vol="174"/>
          <note key="24" pan="0" pos="708" len="12" vol="148"/>
          <note key="39" pan="0" pos="720" len="12" vol="136"/>
          <note key="28" pan="0" pos="720" len="12" vol="174"/>
          <note key="39" pan="0" pos="744" len="12" vol="136"/>
          <note key="34" pan="0" pos="744" len="12" vol="136"/>
          <note key="28" pan="0" pos="756" len="12" vol="174"/>
          <note key="24" pan="0" pos="756" len="12" vol="148"/>
          <note key="39" pan="0" pos="768" len="12" vol="136"/>
          <note key="37" pan="0" pos="768" len="12" vol="174"/>
          <note key="24" pan="0" pos="768" len="12" vol="148"/>
          <note key="39" pan="0" pos="792" len="12" vol="136"/>
          <note key="34" pan="0" pos="792" len="12" vol="136"/>
          <note key="24" pan="0" pos="804" len="12" vol="148"/>
          <note key="39" pan="0" pos="816" len="12" vol="136"/>
          <note key="28" pan="0" pos="816" len="12" vol="174"/>
          <note key="39" pan="0" pos="840" len="12" vol="136"/>
          <note key="34" pan="0" pos="840" len="12" vol="136"/>
          <note key="24" pan="0" pos="852" len="12" vol="148"/>
          <note key="39" pan="0" pos="864" len="12" vol="136"/>
          <note key="24" pan="0" pos="864" len="12" vol="148"/>
          <note key="39" pan="0" pos="888" len="12" vol="136"/>
          <note key="34" pan="0" pos="888" len="12" vol="136"/>
          <note key="24" pan="0" pos="900" len="12" vol="148"/>
          <note key="39" pan="0" pos="912" len="12" vol="136"/>
          <note key="28" pan="0" pos="912" len="12" vol="174"/>
          <note key="39" pan="0" pos="936" len="12" vol="136"/>
          <note key="34" pan="0" pos="936" len="12" vol="136"/>
          <note key="28" pan="0" pos="948" len="12" vol="174"/>
          <note key="24" pan="0" pos="948" len="12" vol="148"/>
          <note key="39" pan="0" pos="960" len="12" vol="136"/>
          <note key="24" pan="0" pos="960" len="12" vol="148"/>
          <note key="39" pan="0" pos="984" len="12" vol="136"/>
          <note key="34" pan="0" pos="984" len="12" vol="136"/>
          <note key="24" pan="0" pos="996" len="12" vol="148"/>
          <note key="39" pan="0" pos="1008" len="12" vol="136"/>
          <note key="28" pan="0" pos="1008" len="12" vol="174"/>
          <note key="39" pan="0" pos="1032" len="12" vol="136"/>
          <note key="34" pan="0" pos="1032" len="12" vol="136"/>
          <note key="24" pan="0" pos="1044" len="12" vol="148"/>
          <note key="39" pan="0" pos="1056" len="12" vol="136"/>
          <note key="24" pan="0" pos="1056" len="12" vol="148"/>
          <note key="39" pan="0" pos="1080" len="12" vol="136"/>
          <note key="34" pan="0" pos="1080" len="12" vol="136"/>
          <note key="24" pan="0" pos="1092" len="12" vol="148"/>
          <note key="39" pan="0" pos="1104" len="12" vol="136"/>
          <note key="28" pan="0" pos="1104" len="12" vol="174"/>
          <note key="39" pan="0" pos="1128" len="12" vol="136"/>
          <note key="34" pan="0" pos="1128" len="12" vol="136"/>
          <note key="28" pan="0" pos="1140" len="12" vol="174"/>
          <note key="24" pan="0" pos="1140" len="12" vol="148"/>
          <note key="39" pan="0" pos="1152" len="12" vol="136"/>
          <note key="24" pan="0" pos="1152" len="12" vol="148"/>
          <note key="39" pan="0" pos="1176" len="12" vol="136"/>
          <note key="34" pan="0" pos="1176" len="12" vol="136"/>
          <note key="24" pan="0" pos="1188" len="12" vol="148"/>
          <note key="39" pan="0" pos="1200" len="12" vol="136"/>
          <note key="28" pan="0" pos="1200" len="12" vol="174"/>
          <note key="39" pan="0" pos="1224" len="12" vol="136"/>
          <note key="34" pan="0" pos="1224" len="12" vol="136"/>
          <note key="24" pan="0" pos="1236" len="12" vol="148"/>
          <note key="39" pan="0" pos="1248" len="12" vol="136"/>
          <note key="24" pan="0" pos="1248" len="12" vol="148"/>
          <note key="39" pan="0" pos="1272" len="12" vol="136"/>
          <note key="34" pan="0" pos="1272" len="12" vol="136"/>
          <note key="24" pan="0" pos="1284" len="12" vol="148"/>
          <note key="39" pan="0" pos="1296" len="12" vol="136"/>
          <note key="28" pan="0" pos="1296" len="12" vol="174"/>
          <note key="39" pan="0" pos="1320" len="12" vol="136"/>
          <note key="34" pan="0" pos="1320" len="12" vol="136"/>
          <note key="28" pan="0" pos="1332" len="12" vol="174"/>
          <note key="24" pan="0" pos="1332" len="12" vol="148"/>
          <note key="39" pan="0" pos="1344" len="12" vol="136"/>
          <note key="24" pan="0" pos="1344" len="12" vol="148"/>
          <note key="39" pan="0" pos="1368" len="12" vol="136"/>
          <note key="34" pan="0" pos="1368" len="12" vol="136"/>
          <note key="24" pan="0" pos="1380" len="12" vol="148"/>
          <note key="39" pan="0" pos="1392" len="12" vol="136"/>
          <note key="28" pan="0" pos="1392" len="12" vol="174"/>
          <note key="39" pan="0" pos="1416" len="12" vol="136"/>
          <note key="34" pan="0" pos="1416" len="12" vol="136"/>
          <note key="24" pan="0" pos="1428" len="12" vol="148"/>
          <note key="39" pan="0" pos="1440" len="12" vol="136"/>
          <note key="24" pan="0" pos="1440" len="12" vol="148"/>
          <note key="39" pan="0" pos="1464" len="12" vol="136"/>
          <note key="34" pan="0" pos="1464" len="12" vol="136"/>
          <note key="28" pan="0" pos="1464" len="12" vol="174"/>
          <note key="24" pan="0" pos="1476" len="12" vol="148"/>
          <note key="39" pan="0" pos="1488" len="12" vol="136"/>
          <note key="28" pan="0" pos="1488" len="12" vol="174"/>
          <note key="39" pan="0" pos="1512" len="12" vol="136"/>
          <note key="34" pan="0" pos="1512" len="12" vol="136"/>
          <note key="28" pan="0" pos="1512" len="12" vol="174"/>
          <note key="28" pan="0" pos="1524" len="12" vol="174"/>
          <note key="24" pan="0" pos="1524" len="12" vol="148"/>
        </pattern>
        <pattern name="Carla Rack" pos="18432" muted="0" type="1" steps="16">
          <note key="39" pan="0" pos="0" len="12" vol="136"/>
          <note key="37" pan="0" pos="0" len="12" vol="174"/>
          <note key="24" pan="0" pos="0" len="12" vol="148"/>
          <note key="39" pan="0" pos="24" len="12" vol="136"/>
          <note key="34" pan="0" pos="24" len="12" vol="136"/>
          <note key="24" pan="0" pos="36" len="12" vol="148"/>
          <note key="39" pan="0" pos="48" len="12" vol="136"/>
          <note key="28" pan="0" pos="48" len="12" vol="174"/>
          <note key="39" pan="0" pos="72" len="12" vol="136"/>
          <note key="34" pan="0" pos="72" len="12" vol="136"/>
          <note key="24" pan="0" pos="84" len="12" vol="148"/>
          <note key="39" pan="0" pos="96" len="12" vol="136"/>
          <note key="24" pan="0" pos="96" len="12" vol="148"/>
          <note key="39" pan="0" pos="120" len="12" vol="136"/>
          <note key="34" pan="0" pos="120" len="12" vol="136"/>
          <note key="24" pan="0" pos="132" len="12" vol="148"/>
          <note key="39" pan="0" pos="144" len="12" vol="136"/>
          <note key="28" pan="0" pos="144" len="12" vol="174"/>
          <note key="39" pan="0" pos="168" len="12" vol="136"/>
          <note key="34" pan="0" pos="168" len="12" vol="136"/>
          <note key="28" pan="0" pos="180" len="12" vol="174"/>
          <note key="24" pan="0" pos="180" len="12" vol="148"/>
          <note key="39" pan="0" pos="192" len="12" vol="136"/>
          <note key="24" pan="0" pos="192" len="12" vol="148"/>
          <note key="39" pan="0" pos="216" len="12" vol="136"/>
          <note key="34" pan="0" pos="216" len="12" vol="136"/>
          <note key="24" pan="0" pos="228" len="12" vol="148"/>
          <note key="39" pan="0" pos="240" len="12" vol="136"/>
          <note key="28" pan="0" pos="240" len="12" vol="174"/>
          <note key="39" pan="0" pos="264" len="12" vol="136"/>
          <note key="34" pan="0" pos="264" len="12" vol="136"/>
          <note key="24" pan="0" pos="276" len="12" vol="148"/>
          <note key="39" pan="0" pos="288" len="12" vol="136"/>
          <note key="24" pan="0" pos="288" len="12" vol="148"/>
          <note key="39" pan="0" pos="312" len="12" vol="136"/>
          <note key="34" pan="0" pos="312" len="12" vol="136"/>
          <note key="24" pan="0" pos="324" len="12" vol="148"/>
          <note key="39" pan="0" pos="336" len="12" vol="136"/>
          <note key="28" pan="0" pos="336" len="12" vol="174"/>
          <note key="39" pan="0" pos="360" len="12" vol="136"/>
          <note key="34" pan="0" pos="360" len="12" vol="136"/>
          <note key="28" pan="0" pos="372" len="12" vol="174"/>
          <note key="24" pan="0" pos="372" len="12" vol="148"/>
          <note key="39" pan="0" pos="384" len="12" vol="136"/>
          <note key="24" pan="0" pos="384" len="12" vol="148"/>
          <note key="39" pan="0" pos="408" len="12" vol="136"/>
          <note key="34" pan="0" pos="408" len="12" vol="136"/>
          <note key="24" pan="0" pos="420" len="12" vol="148"/>
          <note key="39" pan="0" pos="432" len="12" vol="136"/>
          <note key="28" pan="0" pos="432" len="12" vol="174"/>
          <note key="39" pan="0" pos="456" len="12" vol="136"/>
          <note key="34" pan="0" pos="456" len="12" vol="136"/>
          <note key="24" pan="0" pos="468" len="12" vol="148"/>
          <note key="39" pan="0" pos="480" len="12" vol="136"/>
          <note key="24" pan="0" pos="480" len="12" vol="148"/>
          <note key="39" pan="0" pos="504" len="12" vol="136"/>
          <note key="34" pan="0" pos="504" len="12" vol="136"/>
          <note key="24" pan="0" pos="516" len="12" vol="148"/>
          <note key="39" pan="0" pos="528" len="12" vol="136"/>
          <note key="28" pan="0" pos="528" len="12" vol="174"/>
          <note key="39" pan="0" pos="552" len="12" vol="136"/>
          <note key="34" pan="0" pos="552" len="12" vol="136"/>
          <note key="28" pan="0" pos="564" len="12" vol="174"/>
          <note key="24" pan="0" pos="564" len="12" vol="148"/>
          <note key="39" pan="0" pos="576" len="12" vol="136"/>
          <note key="24" pan="0" pos="576" len="12" vol="148"/>
          <note key="39" pan="0" pos="600" len="12" vol="136"/>
          <note key="34" pan="0" pos="600" len="12" vol="136"/>
          <note key="24" pan="0" pos="612" len="12" vol="148"/>
          <note key="39" pan="0" pos="624" len="12" vol="136"/>
          <note key="28" pan="0" pos="624" len="12" vol="174"/>
          <note key="39" pan="0" pos="648" len="12" vol="136"/>
          <note key="34" pan="0" pos="648" len="12" vol="136"/>
          <note key="24" pan="0" pos="660" len="12" vol="148"/>
          <note key="39" pan="0" pos="672" len="12" vol="136"/>
          <note key="24" pan="0" pos="672" len="12" vol="148"/>
          <note key="39" pan="0" pos="696" len="12" vol="136"/>
          <note key="34" pan="0" pos="696" len="12" vol="136"/>
          <note key="28" pan="0" pos="696" len="12" vol="174"/>
          <note key="24" pan="0" pos="708" len="12" vol="148"/>
          <note key="39" pan="0" pos="720" len="12" vol="136"/>
          <note key="28" pan="0" pos="720" len="12" vol="174"/>
          <note key="39" pan="0" pos="744" len="12" vol="136"/>
          <note key="34" pan="0" pos="744" len="12" vol="136"/>
          <note key="28" pan="0" pos="756" len="12" vol="174"/>
          <note key="24" pan="0" pos="756" len="12" vol="148"/>
          <note key="39" pan="0" pos="768" len="12" vol="136"/>
          <note key="37" pan="0" pos="768" len="12" vol="174"/>
          <note key="24" pan="0" pos="768" len="12" vol="148"/>
          <note key="39" pan="0" pos="792" len="12" vol="136"/>
          <note key="34" pan="0" pos="792" len="12" vol="136"/>
          <note key="24" pan="0" pos="804" len="12" vol="148"/>
          <note key="39" pan="0" pos="816" len="12" vol="136"/>
          <note key="28" pan="0" pos="816" len="12" vol="174"/>
          <note key="39" pan="0" pos="840" len="12" vol="136"/>
          <note key="34" pan="0" pos="840" len="12" vol="136"/>
          <note key="24" pan="0" pos="852" len="12" vol="148"/>
          <note key="39" pan="0" pos="864" len="12" vol="136"/>
          <note key="24" pan="0" pos="864" len="12" vol="148"/>
          <note key="39" pan="0" pos="888" len="12" vol="136"/>
          <note key="34" pan="0" pos="888" len="12" vol="136"/>
          <note key="24" pan="0" pos="900" len="12" vol="148"/>
          <note key="39" pan="0" pos="912" len="12" vol="136"/>
          <note key="28" pan="0" pos="912" len="12" vol="174"/>
          <note key="39" pan="0" pos="936" len="12" vol="136"/>
          <note key="34" pan="0" pos="936" len="12" vol="136"/>
          <note key="28" pan="0" pos="948" len="12" vol="174"/>
          <note key="24" pan="0" pos="948" len="12" vol="148"/>
          <note key="39" pan="0" pos="960" len="12" vol="136"/>
          <note key="24" pan="0" pos="960" len="12" vol="148"/>
          <note key="39" pan="0" pos="984" len="12" vol="136"/>
          <note key="34" pan="0" pos="984" len="12" vol="136"/>
          <note key="24" pan="0" pos="996" len="12" vol="148"/>
          <note key="39" pan="0" pos="1008" len="12" vol="136"/>
          <note key="28" pan="0" pos="1008" len="12" vol="174"/>
          <note key="39" pan="0" pos="1032" len="12" vol="136"/>
          <note key="34" pan="0" pos="1032" len="12" vol="136"/>
          <note key="24" pan="0" pos="1044" len="12" vol="148"/>
          <note key="39" pan="0" pos="1056" len="12" vol="136"/>
          <note key="24" pan="0" pos="1056" len="12" vol="148"/>
          <note key="39" pan="0" pos="1080" len="12" vol="136"/>
          <note key="34" pan="0" pos="1080" len="12" vol="136"/>
          <note key="24" pan="0" pos="1092" len="12" vol="148"/>
          <note key="39" pan="0" pos="1104" len="12" vol="136"/>
          <note key="28" pan="0" pos="1104" len="12" vol="174"/>
          <note key="39" pan="0" pos="1128" len="12" vol="136"/>
          <note key="34" pan="0" pos="1128" len="12" vol="136"/>
          <note key="28" pan="0" pos="1140" len="12" vol="174"/>
          <note key="24" pan="0" pos="1140" len="12" vol="148"/>
          <note key="39" pan="0" pos="1152" len="12" vol="136"/>
          <note key="24" pan="0" pos="1152" len="12" vol="148"/>
          <note key="39" pan="0" pos="1176" len="12" vol="136"/>
          <note key="34" pan="0" pos="1176" len="12" vol="136"/>
          <note key="24" pan="0" pos="1188" len="12" vol="148"/>
          <note key="39" pan="0" pos="1200" len="12" vol="136"/>
          <note key="28" pan="0" pos="1200" len="12" vol="174"/>
          <note key="39" pan="0" pos="1224" len="12" vol="136"/>
          <note key="34" pan="0" pos="1224" len="12" vol="136"/>
          <note key="24" pan="0" pos="1236" len="12" vol="148"/>
          <note key="39" pan="0" pos="1248" len="12" vol="136"/>
          <note key="24" pan="0" pos="1248" len="12" vol="148"/>
          <note key="39" pan="0" pos="1272" len="12" vol="136"/>
          <note key="34" pan="0" pos="1272" len="12" vol="136"/>
          <note key="24" pan="0" pos="1284" len="12" vol="148"/>
          <note key="39" pan="0" pos="1296" len="12" vol="136"/>
          <note key="28" pan="0" pos="1296" len="12" vol="174"/>
          <note key="39" pan="0" pos="1320" len="12" vol="136"/>
          <note key="34" pan="0" pos="1320" len="12" vol="136"/>
          <note key="28" pan="0" pos="1332" len="12" vol="174"/>
          <note key="24" pan="0" pos="1332" len="12" vol="148"/>
          <note key="39" pan="0" pos="1344" len="12" vol="136"/>
          <note key="24" pan="0" pos="1344" len="12" vol="148"/>
          <note key="39" pan="0" pos="1368" len="12" vol="136"/>
          <note key="34" pan="0" pos="1368" len="12" vol="136"/>
          <note key="24" pan="0" pos="1380" len="12" vol="148"/>
          <note key="39" pan="0" pos="1392" len="12" vol="136"/>
          <note key="28" pan="0" pos="1392" len="12" vol="174"/>
          <note key="39" pan="0" pos="1416" len="12" vol="136"/>
          <note key="34" pan="0" pos="1416" len="12" vol="136"/>
          <note key="24" pan="0" pos="1428" len="12" vol="148"/>
          <note key="39" pan="0" pos="1440" len="12" vol="136"/>
          <note key="24" pan="0" pos="1440" len="12" vol="148"/>
          <note key="39" pan="0" pos="1464" len="12" vol="136"/>
          <note key="34" pan="0" pos="1464" len="12" vol="136"/>
          <note key="28" pan="0" pos="1464" len="12" vol="174"/>
          <note key="24" pan="0" pos="1476" len="12" vol="148"/>
          <note key="39" pan="0" pos="1488" len="12" vol="136"/>
          <note key="28" pan="0" pos="1488" len="12" vol="174"/>
          <note key="39" pan="0" pos="1512" len="12" vol="136"/>
          <note key="34" pan="0" pos="1512" len="12" vol="136"/>
          <note key="28" pan="0" pos="1512" len="12" vol="174"/>
          <note key="28" pan="0" pos="1524" len="12" vol="174"/>
          <note key="24" pan="0" pos="1524" len="12" vol="148"/>
        </pattern>
        <pattern name="Carla Rack" pos="19968" muted="0" type="1" steps="16">
          <note key="37" pan="0" pos="0" len="12" vol="148"/>
          <note key="26" pan="0" pos="168" len="12" vol="76"/>
          <note key="26" pan="0" pos="180" len="12" vol="93"/>
          <note key="26" pan="0" pos="192" len="12" vol="102"/>
          <note key="28" pan="0" pos="312" len="12" vol="161"/>
          <note key="24" pan="0" pos="312" len="12" vol="100"/>
          <note key="28" pan="0" pos="336" len="12" vol="161"/>
          <note key="24" pan="0" pos="336" len="12" vol="100"/>
          <note key="28" pan="0" pos="360" len="12" vol="161"/>
          <note key="24" pan="0" pos="360" len="12" vol="100"/>
          <note key="28" pan="0" pos="372" len="12" vol="161"/>
          <note key="24" pan="0" pos="372" len="12" vol="100"/>
        </pattern>
        <pattern name="" pos="10752" muted="0" type="1" steps="16">
          <note key="39" pan="0" pos="0" len="12" vol="136"/>
          <note key="37" pan="0" pos="0" len="12" vol="174"/>
          <note key="24" pan="0" pos="0" len="12" vol="148"/>
          <note key="39" pan="0" pos="24" len="12" vol="136"/>
          <note key="34" pan="0" pos="24" len="12" vol="136"/>
          <note key="24" pan="0" pos="36" len="12" vol="148"/>
          <note key="39" pan="0" pos="48" len="12" vol="136"/>
          <note key="28" pan="0" pos="48" len="12" vol="174"/>
          <note key="39" pan="0" pos="72" len="12" vol="136"/>
          <note key="34" pan="0" pos="72" len="12" vol="136"/>
          <note key="24" pan="0" pos="84" len="12" vol="148"/>
          <note key="39" pan="0" pos="96" len="12" vol="136"/>
          <note key="24" pan="0" pos="96" len="12" vol="148"/>
          <note key="39" pan="0" pos="120" len="12" vol="136"/>
          <note key="34" pan="0" pos="120" len="12" vol="136"/>
          <note key="24" pan="0" pos="132" len="12" vol="148"/>
          <note key="39" pan="0" pos="144" len="12" vol="136"/>
          <note key="28" pan="0" pos="144" len="12" vol="174"/>
          <note key="39" pan="0" pos="168" len="12" vol="136"/>
          <note key="34" pan="0" pos="168" len="12" vol="136"/>
          <note key="28" pan="0" pos="180" len="12" vol="174"/>
          <note key="24" pan="0" pos="180" len="12" vol="148"/>
          <note key="39" pan="0" pos="192" len="12" vol="136"/>
          <note key="24" pan="0" pos="192" len="12" vol="148"/>
          <note key="39" pan="0" pos="216" len="12" vol="136"/>
          <note key="34" pan="0" pos="216" len="12" vol="136"/>
          <note key="24" pan="0" pos="228" len="12" vol="148"/>
          <note key="39" pan="0" pos="240" len="12" vol="136"/>
          <note key="28" pan="0" pos="240" len="12" vol="174"/>
          <note key="39" pan="0" pos="264" len="12" vol="136"/>
          <note key="34" pan="0" pos="264" len="12" vol="136"/>
          <note key="24" pan="0" pos="276" len="12" vol="148"/>
          <note key="39" pan="0" pos="288" len="12" vol="136"/>
          <note key="24" pan="0" pos="288" len="12" vol="148"/>
          <note key="39" pan="0" pos="312" len="12" vol="136"/>
          <note key="34" pan="0" pos="312" len="12" vol="136"/>
          <note key="24" pan="0" pos="324" len="12" vol="148"/>
          <note key="39" pan="0" pos="336" len="12" vol="136"/>
          <note key="28" pan="0" pos="336" len="12" vol="174"/>
          <note key="39" pan="0" pos="360" len="12" vol="136"/>
          <note key="34" pan="0" pos="360" len="12" vol="136"/>
          <note key="28" pan="0" pos="372" len="12" vol="174"/>
          <note key="24" pan="0" pos="372" len="12" vol="148"/>
          <note key="39" pan="0" pos="384" len="12" vol="136"/>
          <note key="24" pan="0" pos="384" len="12" vol="148"/>
          <note key="39" pan="0" pos="408" len="12" vol="136"/>
          <note key="34" pan="0" pos="408" len="12" vol="136"/>
          <note key="24" pan="0" pos="420" len="12" vol="148"/>
          <note key="39" pan="0" pos="432" len="12" vol="136"/>
          <note key="28" pan="0" pos="432" len="12" vol="174"/>
          <note key="39" pan="0" pos="456" len="12" vol="136"/>
          <note key="34" pan="0" pos="456" len="12" vol="136"/>
          <note key="24" pan="0" pos="468" len="12" vol="148"/>
          <note key="39" pan="0" pos="480" len="12" vol="136"/>
          <note key="24" pan="0" pos="480" len="12" vol="148"/>
          <note key="39" pan="0" pos="504" len="12" vol="136"/>
          <note key="34" pan="0" pos="504" len="12" vol="136"/>
          <note key="24" pan="0" pos="516" len="12" vol="148"/>
          <note key="39" pan="0" pos="528" len="12" vol="136"/>
          <note key="28" pan="0" pos="528" len="12" vol="174"/>
          <note key="39" pan="0" pos="552" len="12" vol="136"/>
          <note key="34" pan="0" pos="552" len="12" vol="136"/>
          <note key="28" pan="0" pos="564" len="12" vol="174"/>
          <note key="24" pan="0" pos="564" len="12" vol="148"/>
          <note key="39" pan="0" pos="576" len="12" vol="136"/>
          <note key="24" pan="0" pos="576" len="12" vol="148"/>
          <note key="39" pan="0" pos="600" len="12" vol="136"/>
          <note key="34" pan="0" pos="600" len="12" vol="136"/>
          <note key="24" pan="0" pos="612" len="12" vol="148"/>
          <note key="39" pan="0" pos="624" len="12" vol="136"/>
          <note key="28" pan="0" pos="624" len="12" vol="174"/>
          <note key="39" pan="0" pos="648" len="12" vol="136"/>
          <note key="34" pan="0" pos="648" len="12" vol="136"/>
          <note key="24" pan="0" pos="660" len="12" vol="148"/>
          <note key="39" pan="0" pos="672" len="12" vol="136"/>
          <note key="24" pan="0" pos="672" len="12" vol="148"/>
          <note key="39" pan="0" pos="696" len="12" vol="136"/>
          <note key="34" pan="0" pos="696" len="12" vol="136"/>
          <note key="28" pan="0" pos="696" len="12" vol="174"/>
          <note key="24" pan="0" pos="708" len="12" vol="148"/>
          <note key="39" pan="0" pos="720" len="12" vol="136"/>
          <note key="28" pan="0" pos="720" len="12" vol="174"/>
          <note key="39" pan="0" pos="744" len="12" vol="136"/>
          <note key="34" pan="0" pos="744" len="12" vol="136"/>
          <note key="28" pan="0" pos="756" len="12" vol="174"/>
          <note key="24" pan="0" pos="756" len="12" vol="148"/>
          <note key="39" pan="0" pos="768" len="12" vol="136"/>
          <note key="37" pan="0" pos="768" len="12" vol="174"/>
          <note key="24" pan="0" pos="768" len="12" vol="148"/>
          <note key="39" pan="0" pos="792" len="12" vol="136"/>
          <note key="34" pan="0" pos="792" len="12" vol="136"/>
          <note key="24" pan="0" pos="804" len="12" vol="148"/>
          <note key="39" pan="0" pos="816" len="12" vol="136"/>
          <note key="28" pan="0" pos="816" len="12" vol="174"/>
          <note key="39" pan="0" pos="840" len="12" vol="136"/>
          <note key="34" pan="0" pos="840" len="12" vol="136"/>
          <note key="24" pan="0" pos="852" len="12" vol="148"/>
          <note key="39" pan="0" pos="864" len="12" vol="136"/>
          <note key="24" pan="0" pos="864" len="12" vol="148"/>
          <note key="39" pan="0" pos="888" len="12" vol="136"/>
          <note key="34" pan="0" pos="888" len="12" vol="136"/>
          <note key="24" pan="0" pos="900" len="12" vol="148"/>
          <note key="39" pan="0" pos="912" len="12" vol="136"/>
          <note key="28" pan="0" pos="912" len="12" vol="174"/>
          <note key="39" pan="0" pos="936" len="12" vol="136"/>
          <note key="34" pan="0" pos="936" len="12" vol="136"/>
          <note key="28" pan="0" pos="948" len="12" vol="174"/>
          <note key="24" pan="0" pos="948" len="12" vol="148"/>
          <note key="39" pan="0" pos="960" len="12" vol="136"/>
          <note key="24" pan="0" pos="960" len="12" vol="148"/>
          <note key="39" pan="0" pos="984" len="12" vol="136"/>
          <note key="34" pan="0" pos="984" len="12" vol="136"/>
          <note key="24" pan="0" pos="996" len="12" vol="148"/>
          <note key="39" pan="0" pos="1008" len="12" vol="136"/>
          <note key="28" pan="0" pos="1008" len="12" vol="174"/>
          <note key="39" pan="0" pos="1032" len="12" vol="136"/>
          <note key="34" pan="0" pos="1032" len="12" vol="136"/>
          <note key="24" pan="0" pos="1044" len="12" vol="148"/>
          <note key="39" pan="0" pos="1056" len="12" vol="136"/>
          <note key="24" pan="0" pos="1056" len="12" vol="148"/>
          <note key="39" pan="0" pos="1080" len="12" vol="136"/>
          <note key="34" pan="0" pos="1080" len="12" vol="136"/>
          <note key="24" pan="0" pos="1092" len="12" vol="148"/>
          <note key="39" pan="0" pos="1104" len="12" vol="136"/>
          <note key="28" pan="0" pos="1104" len="12" vol="174"/>
          <note key="39" pan="0" pos="1128" len="12" vol="136"/>
          <note key="34" pan="0" pos="1128" len="12" vol="136"/>
          <note key="28" pan="0" pos="1140" len="12" vol="174"/>
          <note key="24" pan="0" pos="1140" len="12" vol="148"/>
          <note key="39" pan="0" pos="1152" len="12" vol="136"/>
          <note key="24" pan="0" pos="1152" len="12" vol="148"/>
          <note key="39" pan="0" pos="1176" len="12" vol="136"/>
          <note key="34" pan="0" pos="1176" len="12" vol="136"/>
          <note key="24" pan="0" pos="1188" len="12" vol="148"/>
          <note key="39" pan="0" pos="1200" len="12" vol="136"/>
          <note key="28" pan="0" pos="1200" len="12" vol="174"/>
          <note key="39" pan="0" pos="1224" len="12" vol="136"/>
          <note key="34" pan="0" pos="1224" len="12" vol="136"/>
          <note key="24" pan="0" pos="1236" len="12" vol="148"/>
          <note key="39" pan="0" pos="1248" len="12" vol="136"/>
          <note key="24" pan="0" pos="1248" len="12" vol="148"/>
          <note key="39" pan="0" pos="1272" len="12" vol="136"/>
          <note key="34" pan="0" pos="1272" len="12" vol="136"/>
          <note key="24" pan="0" pos="1284" len="12" vol="148"/>
          <note key="39" pan="0" pos="1296" len="12" vol="136"/>
          <note key="28" pan="0" pos="1296" len="12" vol="174"/>
          <note key="39" pan="0" pos="1320" len="12" vol="136"/>
          <note key="34" pan="0" pos="1320" len="12" vol="136"/>
          <note key="28" pan="0" pos="1332" len="12" vol="174"/>
          <note key="24" pan="0" pos="1332" len="12" vol="148"/>
          <note key="39" pan="0" pos="1344" len="12" vol="136"/>
          <note key="24" pan="0" pos="1344" len="12" vol="148"/>
          <note key="39" pan="0" pos="1368" len="12" vol="136"/>
          <note key="34" pan="0" pos="1368" len="12" vol="136"/>
          <note key="24" pan="0" pos="1380" len="12" vol="148"/>
          <note key="39" pan="0" pos="1392" len="12" vol="136"/>
          <note key="28" pan="0" pos="1392" len="12" vol="174"/>
          <note key="39" pan="0" pos="1416" len="12" vol="136"/>
          <note key="34" pan="0" pos="1416" len="12" vol="136"/>
          <note key="24" pan="0" pos="1428" len="12" vol="148"/>
          <note key="39" pan="0" pos="1440" len="12" vol="136"/>
          <note key="24" pan="0" pos="1440" len="12" vol="148"/>
          <note key="39" pan="0" pos="1464" len="12" vol="136"/>
          <note key="34" pan="0" pos="1464" len="12" vol="136"/>
          <note key="28" pan="0" pos="1464" len="12" vol="174"/>
          <note key="24" pan="0" pos="1476" len="12" vol="148"/>
          <note key="39" pan="0" pos="1488" len="12" vol="136"/>
          <note key="28" pan="0" pos="1488" len="12" vol="174"/>
          <note key="39" pan="0" pos="1512" len="12" vol="136"/>
          <note key="34" pan="0" pos="1512" len="12" vol="136"/>
          <note key="28" pan="0" pos="1512" len="12" vol="174"/>
          <note key="28" pan="0" pos="1524" len="12" vol="174"/>
          <note key="24" pan="0" pos="1524" len="12" vol="148"/>
        </pattern>
      </track>
      <track name="Detuned Ghost" muted="0" type="0" solo="0">
        <instrumenttrack pitchrange="1" pan="0" fxch="0" basenote="57" pitch="0" vol="90" usemasterpitch="1">
          <instrument name="tripleoscillator">
            <tripleoscillator vol0="33" finel2="0" coarse0="0" coarse2="-24" stphdetun2="0" coarse1="-12" wavetype0="4" stphdetun1="0" finel1="0" pan0="0" userwavefile2="" userwavefile0="" wavetype1="1" vol2="33" phoffset2="0" phoffset0="0" finer0="0" pan1="0" pan2="0" wavetype2="0" finel0="0" phoffset1="0" modalgo1="3" stphdetun0="0" modalgo2="3" modalgo3="2" vol1="33" finer2="0" finer1="0" userwavefile1=""/>
          </instrument>
          <eldata fcut="12819" ftype="0" fwet="1" fres="0.5">
            <elvol dec="0.44499999" ctlenvamt="0" latt="0" sustain="0" amt="1" lamt="0" pdel="0" rel="0.14" lshp="0" lpdel="0" hold="0.079999998" lspd_numerator="4" lspd_denominator="4" att="0" x100="0" lspd="0.1" lspd_syncmode="0" userwavefile=""/>
            <elcut dec="0.14" ctlenvamt="0" latt="0" sustain="0" amt="0" lamt="0" pdel="0" rel="0.059999999" lshp="0" lpdel="0" hold="0" lspd_numerator="4" lspd_denominator="4" att="0.13" x100="1" lspd="0.1" lspd_syncmode="0" userwavefile=""/>
            <elres dec="0.5" ctlenvamt="0" latt="0" sustain="0.5" amt="0" lamt="0" pdel="0" rel="0.1" lshp="0" lpdel="0" hold="0.5" lspd_numerator="4" lspd_denominator="4" att="0" x100="0" lspd="0.1" lspd_syncmode="0" userwavefile=""/>
          </eldata>
          <chordcreator chordrange="1" chord-enabled="0" chord="0"/>
          <arpeggiator arptime="100" arptime_syncmode="0" arpmode="0" arptime_numerator="4" arptime_denominator="4" arpdir="0" arpgate="100" arprange="1" arp-enabled="0" arpmiss="0" arp="0" arpcycle="0" arpskip="0"/>
          <midiport inputcontroller="0" fixedoutputnote="-1" writable="0" basevelocity="63" outputprogram="1" outputcontroller="0" fixedinputvelocity="-1" outputchannel="1" fixedoutputvelocity="-1" readable="0" inputchannel="0"/>
          <fxchain numofeffects="1" enabled="1">
            <effect gate="0" on="1" autoquit_syncmode="0" autoquit="1" name="ladspaeffect" autoquit_numerator="4" wet="1" autoquit_denominator="4">
              <ladspacontrols ports="4">
                <port02 data="0.90454"/>
                <port03 data="0.44003752"/>
                <port04 data="0.00050000002"/>
                <port05 data="0.33124998"/>
              </ladspacontrols>
              <key>
                <attribute value="caps" name="file"/>
                <attribute value="Plate2x2" name="plugin"/>
              </key>
            </effect>
          </fxchain>
        </instrumenttrack>
        <pattern name="Detuned Ghost" pos="10752" muted="0" type="1" steps="16">
          <note key="52" pan="-100" pos="0" len="12" vol="100"/>
          <note key="52" pan="-70" pos="12" len="12" vol="83"/>
          <note key="52" pan="91" pos="36" len="12" vol="100"/>
          <note key="52" pan="46" pos="48" len="12" vol="82"/>
          <note key="52" pan="-100" pos="72" len="12" vol="100"/>
          <note key="52" pan="-68" pos="84" len="12" vol="82"/>
          <note key="52" pan="97" pos="108" len="12" vol="100"/>
          <note key="52" pan="63" pos="120" len="12" vol="87"/>
          <note key="52" pan="-100" pos="144" len="12" vol="100"/>
          <note key="52" pan="-68" pos="156" len="12" vol="53"/>
          <note key="53" pan="0" pos="168" len="24" vol="136"/>
          <note key="52" pan="-100" pos="192" len="12" vol="100"/>
          <note key="52" pan="-70" pos="204" len="12" vol="83"/>
          <note key="52" pan="91" pos="228" len="12" vol="100"/>
          <note key="52" pan="46" pos="240" len="12" vol="82"/>
          <note key="52" pan="-100" pos="264" len="12" vol="100"/>
          <note key="52" pan="-68" pos="276" len="12" vol="82"/>
          <note key="52" pan="97" pos="300" len="12" vol="100"/>
          <note key="52" pan="63" pos="312" len="12" vol="87"/>
          <note key="52" pan="-100" pos="336" len="12" vol="100"/>
          <note key="52" pan="-68" pos="348" len="12" vol="53"/>
          <note key="53" pan="0" pos="360" len="24" vol="136"/>
          <note key="52" pan="-100" pos="384" len="12" vol="100"/>
          <note key="52" pan="-70" pos="396" len="12" vol="83"/>
          <note key="52" pan="91" pos="420" len="12" vol="100"/>
          <note key="52" pan="46" pos="432" len="12" vol="82"/>
          <note key="52" pan="-100" pos="456" len="12" vol="100"/>
          <note key="52" pan="-68" pos="468" len="12" vol="82"/>
          <note key="52" pan="97" pos="492" len="12" vol="100"/>
          <note key="52" pan="63" pos="504" len="12" vol="87"/>
          <note key="52" pan="-100" pos="528" len="12" vol="100"/>
          <note key="52" pan="-68" pos="540" len="12" vol="53"/>
          <note key="53" pan="0" pos="552" len="24" vol="136"/>
          <note key="52" pan="-100" pos="576" len="12" vol="100"/>
          <note key="52" pan="-70" pos="588" len="12" vol="83"/>
          <note key="52" pan="91" pos="612" len="12" vol="100"/>
          <note key="52" pan="46" pos="624" len="12" vol="82"/>
          <note key="52" pan="-100" pos="648" len="12" vol="100"/>
          <note key="52" pan="-68" pos="660" len="12" vol="82"/>
          <note key="52" pan="97" pos="684" len="12" vol="100"/>
          <note key="52" pan="63" pos="696" len="12" vol="87"/>
          <note key="52" pan="-100" pos="720" len="12" vol="100"/>
          <note key="52" pan="-68" pos="732" len="12" vol="53"/>
          <note key="51" pan="0" pos="744" len="24" vol="136"/>
          <note key="52" pan="-100" pos="768" len="12" vol="100"/>
          <note key="52" pan="-70" pos="780" len="12" vol="83"/>
          <note key="52" pan="91" pos="804" len="12" vol="100"/>
          <note key="52" pan="46" pos="816" len="12" vol="82"/>
          <note key="52" pan="-100" pos="840" len="12" vol="100"/>
          <note key="52" pan="-68" pos="852" len="12" vol="82"/>
          <note key="52" pan="97" pos="876" len="12" vol="100"/>
          <note key="52" pan="63" pos="888" len="12" vol="87"/>
          <note key="52" pan="-100" pos="912" len="12" vol="100"/>
          <note key="52" pan="-68" pos="924" len="12" vol="53"/>
          <note key="53" pan="0" pos="936" len="24" vol="136"/>
          <note key="52" pan="-100" pos="960" len="12" vol="100"/>
          <note key="52" pan="-70" pos="972" len="12" vol="83"/>
          <note key="52" pan="91" pos="996" len="12" vol="100"/>
          <note key="52" pan="46" pos="1008" len="12" vol="82"/>
          <note key="52" pan="-100" pos="1032" len="12" vol="100"/>
          <note key="52" pan="-68" pos="1044" len="12" vol="82"/>
          <note key="52" pan="97" pos="1068" len="12" vol="100"/>
          <note key="52" pan="63" pos="1080" len="12" vol="87"/>
          <note key="52" pan="-100" pos="1104" len="12" vol="100"/>
          <note key="52" pan="-68" pos="1116" len="12" vol="53"/>
          <note key="53" pan="0" pos="1128" len="24" vol="136"/>
          <note key="52" pan="-100" pos="1152" len="12" vol="100"/>
          <note key="52" pan="-70" pos="1164" len="12" vol="83"/>
          <note key="52" pan="91" pos="1188" len="12" vol="100"/>
          <note key="52" pan="46" pos="1200" len="12" vol="82"/>
          <note key="52" pan="-100" pos="1224" len="12" vol="100"/>
          <note key="52" pan="-68" pos="1236" len="12" vol="82"/>
          <note key="52" pan="97" pos="1260" len="12" vol="100"/>
          <note key="52" pan="63" pos="1272" len="12" vol="87"/>
          <note key="52" pan="-100" pos="1296" len="12" vol="100"/>
          <note key="52" pan="-68" pos="1308" len="12" vol="53"/>
          <note key="53" pan="0" pos="1320" len="24" vol="136"/>
          <note key="52" pan="-100" pos="1344" len="12" vol="100"/>
          <note key="52" pan="-70" pos="1356" len="12" vol="83"/>
          <note key="52" pan="91" pos="1380" len="12" vol="100"/>
          <note key="52" pan="46" pos="1392" len="12" vol="82"/>
          <note key="52" pan="-100" pos="1416" len="12" vol="100"/>
          <note key="52" pan="-68" pos="1428" len="12" vol="82"/>
          <note key="52" pan="97" pos="1452" len="12" vol="100"/>
          <note key="52" pan="63" pos="1464" len="12" vol="87"/>
          <note key="52" pan="-100" pos="1488" len="12" vol="100"/>
          <note key="52" pan="-68" pos="1500" len="12" vol="53"/>
          <note key="53" pan="0" pos="1512" len="12" vol="136"/>
          <note key="53" pan="0" pos="1524" len="12" vol="136"/>
        </pattern>
        <pattern name="Detuned Ghost" pos="12288" muted="0" type="1" steps="16">
          <note key="52" pan="-100" pos="0" len="12" vol="100"/>
          <note key="52" pan="-70" pos="12" len="12" vol="83"/>
          <note key="52" pan="91" pos="36" len="12" vol="100"/>
          <note key="52" pan="46" pos="48" len="12" vol="82"/>
          <note key="52" pan="-100" pos="72" len="12" vol="100"/>
          <note key="52" pan="-68" pos="84" len="12" vol="82"/>
          <note key="52" pan="97" pos="108" len="12" vol="100"/>
          <note key="52" pan="63" pos="120" len="12" vol="87"/>
          <note key="52" pan="-100" pos="144" len="12" vol="100"/>
          <note key="52" pan="-68" pos="156" len="12" vol="53"/>
          <note key="53" pan="0" pos="168" len="24" vol="136"/>
          <note key="52" pan="-100" pos="192" len="12" vol="100"/>
          <note key="52" pan="-70" pos="204" len="12" vol="83"/>
          <note key="52" pan="91" pos="228" len="12" vol="100"/>
          <note key="52" pan="46" pos="240" len="12" vol="82"/>
          <note key="52" pan="-100" pos="264" len="12" vol="100"/>
          <note key="52" pan="-68" pos="276" len="12" vol="82"/>
          <note key="52" pan="97" pos="300" len="12" vol="100"/>
          <note key="52" pan="63" pos="312" len="12" vol="87"/>
          <note key="52" pan="-100" pos="336" len="12" vol="100"/>
          <note key="52" pan="-68" pos="348" len="12" vol="53"/>
          <note key="53" pan="0" pos="360" len="24" vol="136"/>
          <note key="52" pan="-100" pos="384" len="12" vol="100"/>
          <note key="52" pan="-70" pos="396" len="12" vol="83"/>
          <note key="52" pan="91" pos="420" len="12" vol="100"/>
          <note key="52" pan="46" pos="432" len="12" vol="82"/>
          <note key="52" pan="-100" pos="456" len="12" vol="100"/>
          <note key="52" pan="-68" pos="468" len="12" vol="82"/>
          <note key="52" pan="97" pos="492" len="12" vol="100"/>
          <note key="52" pan="63" pos="504" len="12" vol="87"/>
          <note key="52" pan="-100" pos="528" len="12" vol="100"/>
          <note key="52" pan="-68" pos="540" len="12" vol="53"/>
          <note key="53" pan="0" pos="552" len="24" vol="136"/>
          <note key="52" pan="-100" pos="576" len="12" vol="100"/>
          <note key="52" pan="-70" pos="588" len="12" vol="83"/>
          <note key="52" pan="91" pos="612" len="12" vol="100"/>
          <note key="52" pan="46" pos="624" len="12" vol="82"/>
          <note key="52" pan="-100" pos="648" len="12" vol="100"/>
          <note key="52" pan="-68" pos="660" len="12" vol="82"/>
          <note key="52" pan="97" pos="684" len="12" vol="100"/>
          <note key="52" pan="63" pos="696" len="12" vol="87"/>
          <note key="52" pan="-100" pos="720" len="12" vol="100"/>
          <note key="52" pan="-68" pos="732" len="12" vol="53"/>
          <note key="51" pan="0" pos="744" len="24" vol="136"/>
          <note key="52" pan="-100" pos="768" len="12" vol="100"/>
          <note key="52" pan="-70" pos="780" len="12" vol="83"/>
          <note key="52" pan="91" pos="804" len="12" vol="100"/>
          <note key="52" pan="46" pos="816" len="12" vol="82"/>
          <note key="52" pan="-100" pos="840" len="12" vol="100"/>
          <note key="52" pan="-68" pos="852" len="12" vol="82"/>
          <note key="52" pan="97" pos="876" len="12" vol="100"/>
          <note key="52" pan="63" pos="888" len="12" vol="87"/>
          <note key="52" pan="-100" pos="912" len="12" vol="100"/>
          <note key="52" pan="-68" pos="924" len="12" vol="53"/>
          <note key="53" pan="0" pos="936" len="24" vol="136"/>
          <note key="52" pan="-100" pos="960" len="12" vol="100"/>
          <note key="52" pan="-70" pos="972" len="12" vol="83"/>
          <note key="52" pan="91" pos="996" len="12" vol="100"/>
          <note key="52" pan="46" pos="1008" len="12" vol="82"/>
          <note key="52" pan="-100" pos="1032" len="12" vol="100"/>
          <note key="52" pan="-68" pos="1044" len="12" vol="82"/>
          <note key="52" pan="97" pos="1068" len="12" vol="100"/>
          <note key="52" pan="63" pos="1080" len="12" vol="87"/>
          <note key="52" pan="-100" pos="1104" len="12" vol="100"/>
          <note key="52" pan="-68" pos="1116" len="12" vol="53"/>
          <note key="53" pan="0" pos="1128" len="24" vol="136"/>
          <note key="52" pan="-100" pos="1152" len="12" vol="100"/>
          <note key="52" pan="-70" pos="1164" len="12" vol="83"/>
          <note key="52" pan="91" pos="1188" len="12" vol="100"/>
          <note key="52" pan="46" pos="1200" len="12" vol="82"/>
          <note key="52" pan="-100" pos="1224" len="12" vol="100"/>
          <note key="52" pan="-68" pos="1236" len="12" vol="82"/>
          <note key="52" pan="97" pos="1260" len="12" vol="100"/>
          <note key="52" pan="63" pos="1272" len="12" vol="87"/>
          <note key="52" pan="-100" pos="1296" len="12" vol="100"/>
          <note key="52" pan="-68" pos="1308" len="12" vol="53"/>
          <note key="53" pan="0" pos="1320" len="24" vol="136"/>
          <note key="52" pan="-100" pos="1344" len="12" vol="100"/>
          <note key="52" pan="-70" pos="1356" len="12" vol="83"/>
          <note key="52" pan="91" pos="1380" len="12" vol="100"/>
          <note key="52" pan="46" pos="1392" len="12" vol="82"/>
          <note key="52" pan="-100" pos="1416" len="12" vol="100"/>
          <note key="52" pan="-68" pos="1428" len="12" vol="82"/>
          <note key="52" pan="97" pos="1452" len="12" vol="100"/>
          <note key="52" pan="63" pos="1464" len="12" vol="87"/>
          <note key="52" pan="-100" pos="1488" len="12" vol="100"/>
          <note key="52" pan="-68" pos="1500" len="12" vol="53"/>
          <note key="53" pan="0" pos="1512" len="12" vol="136"/>
          <note key="53" pan="0" pos="1524" len="12" vol="136"/>
        </pattern>
      </track>
      <track name="Dirty Reece" muted="0" type="0" solo="0">
        <instrumenttrack pitchrange="1" pan="0" fxch="0" basenote="57" pitch="0" vol="50" usemasterpitch="1">
          <instrument name="tripleoscillator">
            <tripleoscillator vol0="33" finel2="20" coarse0="-24" coarse2="-12" stphdetun2="0" coarse1="-24" wavetype0="2" stphdetun1="0" finel1="-14" pan0="0" userwavefile2="" userwavefile0="" wavetype1="2" vol2="33" phoffset2="0" phoffset0="0" finer0="14" pan1="0" pan2="0" wavetype2="2" finel0="15" phoffset1="0" modalgo1="2" stphdetun0="0" modalgo2="2" modalgo3="2" vol1="33" finer2="20" finer1="-15" userwavefile1=""/>
          </instrument>
          <eldata fcut="13720" ftype="0" fwet="1" fres="2">
            <elvol dec="0.5" ctlenvamt="0" latt="0" sustain="0.5" amt="0" lamt="0" pdel="0" rel="0.1" lshp="0" lpdel="0" hold="0.5" lspd_numerator="4" lspd_denominator="4" att="0" x100="0" lspd="0.1" lspd_syncmode="0" userwavefile=""/>
            <elcut dec="0.5" ctlenvamt="0" latt="0" sustain="0.5" amt="0" lamt="0" pdel="0" rel="0.1" lshp="0" lpdel="0" hold="0.5" lspd_numerator="4" lspd_denominator="4" att="0" x100="0" lspd="0.1" lspd_syncmode="0" userwavefile=""/>
            <elres dec="0.5" ctlenvamt="0" latt="0" sustain="0.5" amt="1" lamt="0" pdel="0" rel="0.1" lshp="0" lpdel="0" hold="0.5" lspd_numerator="4" lspd_denominator="4" att="0" x100="0" lspd="0.1" lspd_syncmode="0" userwavefile=""/>
          </eldata>
          <chordcreator chordrange="1" chord-enabled="0" chord="0"/>
          <arpeggiator arptime="100" arptime_syncmode="0" arpmode="0" arptime_numerator="4" arptime_denominator="4" arpdir="0" arpgate="100" arprange="1" arp-enabled="0" arpmiss="0" arp="0" arpcycle="0" arpskip="0"/>
          <midiport inputcontroller="0" fixedoutputnote="-1" writable="0" basevelocity="127" outputprogram="1" outputcontroller="0" fixedinputvelocity="-1" outputchannel="1" fixedoutputvelocity="-1" readable="0" inputchannel="0"/>
          <fxchain numofeffects="5" enabled="1">
            <effect gate="0" on="1" autoquit_syncmode="0" autoquit="8000" name="ladspaeffect" autoquit_numerator="4" wet="1" autoquit_denominator="4">
              <ladspacontrols ports="12">
                <port04 data="3.168"/>
                <port05 data="9.9989996"/>
                <port06 data="0.69964999"/>
                <port07 data="180"/>
                <port08 data="4"/>
                <port09 data="212.39999"/>
                <port010 data="2"/>
                <port011 data="1"/>
                <port012 data="99.949997"/>
                <port013 data="2998.5"/>
                <port014 data="0.125"/>
                <port015 data="0.38"/>
              </ladspacontrols>
              <key>
                <attribute value="calf" name="file"/>
                <attribute value="MultiChorus" name="plugin"/>
              </key>
            </effect>
            <effect gate="0" on="0" autoquit_syncmode="0" autoquit="8000" name="ladspaeffect" autoquit_numerator="4" wet="1" autoquit_denominator="4">
              <ladspacontrols ports="7">
                <port00 data="2.8"/>
                <port01 data="90"/>
                <port02 data="100"/>
                <port03 data="0"/>
                <port04 data="20"/>
                <port05 data="0"/>
                <port06 data="0"/>
              </ladspacontrols>
              <key>
                <attribute value="tap_chorusflanger" name="file"/>
                <attribute value="tap_chorusflanger" name="plugin"/>
              </key>
            </effect>
            <effect gate="0" on="1" autoquit_syncmode="0" autoquit="8000" name="ladspaeffect" autoquit_numerator="4" wet="1" autoquit_denominator="4">
              <ladspacontrols ports="4">
                <port02 data="0.50196999"/>
                <port03 data="0.39509752"/>
                <port04 data="0.99949998"/>
                <port05 data="0.31375"/>
              </ladspacontrols>
              <key>
                <attribute value="caps" name="file"/>
                <attribute value="Plate2x2" name="plugin"/>
              </key>
            </effect>
            <effect gate="0" on="1" autoquit_syncmode="0" autoquit="8000" name="ladspaeffect" autoquit_numerator="4" wet="1" autoquit_denominator="4">
              <ladspacontrols ports="6" link="1">
                <port00 data="-3" link="1"/>
                <port01 data="1" link="1"/>
                <port02 data="0" link="1"/>
                <port10 data="-3"/>
                <port11 data="1"/>
                <port12 data="0"/>
              </ladspacontrols>
              <key>
                <attribute value="hard_limiter_1413" name="file"/>
                <attribute value="hardLimiter" name="plugin"/>
              </key>
            </effect>
            <effect gate="0" on="1" autoquit_syncmode="0" autoquit="1" name="eq" autoquit_numerator="4" wet="1" autoquit_denominator="4">
              <Eq LPres="0.70700002" Peak3bw="0.30000001" HPres="0.70700002" HP12="1" HighShelfgain="0" Peak1active="0" HPactive="0" Peak3active="0" Peak2gain="0" Lowshelfactive="0" Peak2bw="0.30000001" Peak1bw="0.30000001" Highshelfactive="0" LP12="1" Peak4bw="0.30000001" Peak4gain="0" Peak4active="0" AnalyseIn="1" HP24="0" LP48="0" LowShelfres="1.4" LP="0" Peak2active="0" HP48="0" HighShelfres="1.4" Peak3gain="0" Outputgain="-10" LP24="0" Lowshelfgain="0" AnalyseOut="1" HP="0" LPactive="0">
                <Inputgain value="0" scale_type="log" id="838693"/>
                <Peak1gain value="0" scale_type="log" id="2331855"/>
                <HPfreq value="31" scale_type="log" id="1480760"/>
                <LowShelffreq value="80" scale_type="log" id="3592618"/>
                <Peak1freq value="120" scale_type="log" id="6131638"/>
                <Peak2freq value="250" scale_type="log" id="3055781"/>
                <Peak3freq value="2000" scale_type="log" id="4466989"/>
                <Peak4freq value="4000" scale_type="log" id="5984849"/>
                <Highshelffreq value="12000" scale_type="log" id="4980026"/>
                <LPfreq value="18000" scale_type="log" id="5100366"/>
              </Eq>
              <key/>
            </effect>
          </fxchain>
        </instrumenttrack>
        <pattern name="Dirty Reece" pos="13824" muted="0" type="1" steps="16">
          <note key="52" pan="-100" pos="0" len="12" vol="100"/>
          <note key="52" pan="-70" pos="12" len="12" vol="83"/>
          <note key="52" pan="91" pos="36" len="12" vol="100"/>
          <note key="52" pan="46" pos="48" len="12" vol="82"/>
          <note key="52" pan="-100" pos="72" len="12" vol="100"/>
          <note key="52" pan="-68" pos="84" len="12" vol="82"/>
          <note key="52" pan="97" pos="108" len="12" vol="100"/>
          <note key="52" pan="63" pos="120" len="12" vol="87"/>
          <note key="52" pan="-100" pos="144" len="12" vol="100"/>
          <note key="52" pan="-68" pos="156" len="12" vol="53"/>
          <note key="53" pan="0" pos="168" len="24" vol="136"/>
          <note key="52" pan="-100" pos="192" len="12" vol="100"/>
          <note key="52" pan="-70" pos="204" len="12" vol="83"/>
          <note key="52" pan="91" pos="228" len="12" vol="100"/>
          <note key="52" pan="46" pos="240" len="12" vol="82"/>
          <note key="52" pan="-100" pos="264" len="12" vol="100"/>
          <note key="52" pan="-68" pos="276" len="12" vol="82"/>
          <note key="52" pan="97" pos="300" len="12" vol="100"/>
          <note key="52" pan="63" pos="312" len="12" vol="87"/>
          <note key="52" pan="-100" pos="336" len="12" vol="100"/>
          <note key="52" pan="-68" pos="348" len="12" vol="53"/>
          <note key="53" pan="0" pos="360" len="24" vol="136"/>
          <note key="52" pan="-100" pos="384" len="12" vol="100"/>
          <note key="52" pan="-70" pos="396" len="12" vol="83"/>
          <note key="52" pan="91" pos="420" len="12" vol="100"/>
          <note key="52" pan="46" pos="432" len="12" vol="82"/>
          <note key="52" pan="-100" pos="456" len="12" vol="100"/>
          <note key="52" pan="-68" pos="468" len="12" vol="82"/>
          <note key="52" pan="97" pos="492" len="12" vol="100"/>
          <note key="52" pan="63" pos="504" len="12" vol="87"/>
          <note key="52" pan="-100" pos="528" len="12" vol="100"/>
          <note key="52" pan="-68" pos="540" len="12" vol="53"/>
          <note key="53" pan="0" pos="552" len="24" vol="136"/>
          <note key="52" pan="-100" pos="576" len="12" vol="100"/>
          <note key="52" pan="-70" pos="588" len="12" vol="83"/>
          <note key="52" pan="91" pos="612" len="12" vol="100"/>
          <note key="52" pan="46" pos="624" len="12" vol="82"/>
          <note key="52" pan="-100" pos="648" len="12" vol="100"/>
          <note key="52" pan="-68" pos="660" len="12" vol="82"/>
          <note key="52" pan="97" pos="684" len="12" vol="100"/>
          <note key="52" pan="63" pos="696" len="12" vol="87"/>
          <note key="52" pan="-100" pos="720" len="12" vol="100"/>
          <note key="52" pan="-68" pos="732" len="12" vol="53"/>
          <note key="51" pan="0" pos="744" len="24" vol="136"/>
          <note key="52" pan="-100" pos="768" len="12" vol="100"/>
          <note key="52" pan="-70" pos="780" len="12" vol="83"/>
          <note key="52" pan="91" pos="804" len="12" vol="100"/>
          <note key="52" pan="46" pos="816" len="12" vol="82"/>
          <note key="52" pan="-100" pos="840" len="12" vol="100"/>
          <note key="52" pan="-68" pos="852" len="12" vol="82"/>
          <note key="52" pan="97" pos="876" len="12" vol="100"/>
          <note key="52" pan="63" pos="888" len="12" vol="87"/>
          <note key="52" pan="-100" pos="912" len="12" vol="100"/>
          <note key="52" pan="-68" pos="924" len="12" vol="53"/>
          <note key="53" pan="0" pos="936" len="24" vol="136"/>
          <note key="52" pan="-100" pos="960" len="12" vol="100"/>
          <note key="52" pan="-70" pos="972" len="12" vol="83"/>
          <note key="52" pan="91" pos="996" len="12" vol="100"/>
          <note key="52" pan="46" pos="1008" len="12" vol="82"/>
          <note key="52" pan="-100" pos="1032" len="12" vol="100"/>
          <note key="52" pan="-68" pos="1044" len="12" vol="82"/>
          <note key="52" pan="97" pos="1068" len="12" vol="100"/>
          <note key="52" pan="63" pos="1080" len="12" vol="87"/>
          <note key="52" pan="-100" pos="1104" len="12" vol="100"/>
          <note key="52" pan="-68" pos="1116" len="12" vol="53"/>
          <note key="53" pan="0" pos="1128" len="24" vol="136"/>
          <note key="52" pan="-100" pos="1152" len="12" vol="100"/>
          <note key="52" pan="-70" pos="1164" len="12" vol="83"/>
          <note key="52" pan="91" pos="1188" len="12" vol="100"/>
          <note key="52" pan="46" pos="1200" len="12" vol="82"/>
          <note key="52" pan="-100" pos="1224" len="12" vol="100"/>
          <note key="52" pan="-68" pos="1236" len="12" vol="82"/>
          <note key="52" pan="97" pos="1260" len="12" vol="100"/>
          <note key="52" pan="63" pos="1272" len="12" vol="87"/>
          <note key="52" pan="-100" pos="1296" len="12" vol="100"/>
          <note key="52" pan="-68" pos="1308" len="12" vol="53"/>
          <note key="53" pan="0" pos="1320" len="24" vol="136"/>
          <note key="52" pan="-100" pos="1344" len="12" vol="100"/>
          <note key="52" pan="-70" pos="1356" len="12" vol="83"/>
          <note key="52" pan="91" pos="1380" len="12" vol="100"/>
          <note key="52" pan="46" pos="1392" len="12" vol="82"/>
          <note key="52" pan="-100" pos="1416" len="12" vol="100"/>
          <note key="52" pan="-68" pos="1428" len="12" vol="82"/>
          <note key="52" pan="97" pos="1452" len="12" vol="100"/>
          <note key="52" pan="63" pos="1464" len="12" vol="87"/>
          <note key="52" pan="-100" pos="1488" len="12" vol="100"/>
          <note key="52" pan="-68" pos="1500" len="12" vol="53"/>
          <note key="53" pan="0" pos="1512" len="12" vol="136"/>
          <note key="53" pan="0" pos="1524" len="12" vol="136"/>
        </pattern>
        <pattern name="Dirty Reece" pos="15360" muted="0" type="1" steps="16">
          <note key="52" pan="-100" pos="0" len="12" vol="100"/>
          <note key="52" pan="-70" pos="12" len="12" vol="83"/>
          <note key="52" pan="91" pos="36" len="12" vol="100"/>
          <note key="52" pan="46" pos="48" len="12" vol="82"/>
          <note key="52" pan="-100" pos="72" len="12" vol="100"/>
          <note key="52" pan="-68" pos="84" len="12" vol="82"/>
          <note key="52" pan="97" pos="108" len="12" vol="100"/>
          <note key="52" pan="63" pos="120" len="12" vol="87"/>
          <note key="52" pan="-100" pos="144" len="12" vol="100"/>
          <note key="52" pan="-68" pos="156" len="12" vol="53"/>
          <note key="53" pan="0" pos="168" len="24" vol="136"/>
          <note key="52" pan="-100" pos="192" len="12" vol="100"/>
          <note key="52" pan="-70" pos="204" len="12" vol="83"/>
          <note key="52" pan="91" pos="228" len="12" vol="100"/>
          <note key="52" pan="46" pos="240" len="12" vol="82"/>
          <note key="52" pan="-100" pos="264" len="12" vol="100"/>
          <note key="52" pan="-68" pos="276" len="12" vol="82"/>
          <note key="52" pan="97" pos="300" len="12" vol="100"/>
          <note key="52" pan="63" pos="312" len="12" vol="87"/>
          <note key="52" pan="-100" pos="336" len="12" vol="100"/>
          <note key="52" pan="-68" pos="348" len="12" vol="53"/>
          <note key="53" pan="0" pos="360" len="24" vol="136"/>
          <note key="52" pan="-100" pos="384" len="12" vol="100"/>
          <note key="52" pan="-70" pos="396" len="12" vol="83"/>
          <note key="52" pan="91" pos="420" len="12" vol="100"/>
          <note key="52" pan="46" pos="432" len="12" vol="82"/>
          <note key="52" pan="-100" pos="456" len="12" vol="100"/>
          <note key="52" pan="-68" pos="468" len="12" vol="82"/>
          <note key="52" pan="97" pos="492" len="12" vol="100"/>
          <note key="52" pan="63" pos="504" len="12" vol="87"/>
          <note key="52" pan="-100" pos="528" len="12" vol="100"/>
          <note key="52" pan="-68" pos="540" len="12" vol="53"/>
          <note key="53" pan="0" pos="552" len="24" vol="136"/>
          <note key="52" pan="-100" pos="576" len="12" vol="100"/>
          <note key="52" pan="-70" pos="588" len="12" vol="83"/>
          <note key="52" pan="91" pos="612" len="12" vol="100"/>
          <note key="52" pan="46" pos="624" len="12" vol="82"/>
          <note key="52" pan="-100" pos="648" len="12" vol="100"/>
          <note key="52" pan="-68" pos="660" len="12" vol="82"/>
          <note key="52" pan="97" pos="684" len="12" vol="100"/>
          <note key="52" pan="63" pos="696" len="12" vol="87"/>
          <note key="52" pan="-100" pos="720" len="12" vol="100"/>
          <note key="52" pan="-68" pos="732" len="12" vol="53"/>
          <note key="51" pan="0" pos="744" len="24" vol="136"/>
          <note key="52" pan="-100" pos="768" len="12" vol="100"/>
          <note key="52" pan="-70" pos="780" len="12" vol="83"/>
          <note key="52" pan="91" pos="804" len="12" vol="100"/>
          <note key="52" pan="46" pos="816" len="12" vol="82"/>
          <note key="52" pan="-100" pos="840" len="12" vol="100"/>
          <note key="52" pan="-68" pos="852" len="12" vol="82"/>
          <note key="52" pan="97" pos="876" len="12" vol="100"/>
          <note key="52" pan="63" pos="888" len="12" vol="87"/>
          <note key="52" pan="-100" pos="912" len="12" vol="100"/>
          <note key="52" pan="-68" pos="924" len="12" vol="53"/>
          <note key="53" pan="0" pos="936" len="24" vol="136"/>
          <note key="52" pan="-100" pos="960" len="12" vol="100"/>
          <note key="52" pan="-70" pos="972" len="12" vol="83"/>
          <note key="52" pan="91" pos="996" len="12" vol="100"/>
          <note key="52" pan="46" pos="1008" len="12" vol="82"/>
          <note key="52" pan="-100" pos="1032" len="12" vol="100"/>
          <note key="52" pan="-68" pos="1044" len="12" vol="82"/>
          <note key="52" pan="97" pos="1068" len="12" vol="100"/>
          <note key="52" pan="63" pos="1080" len="12" vol="87"/>
          <note key="52" pan="-100" pos="1104" len="12" vol="100"/>
          <note key="52" pan="-68" pos="1116" len="12" vol="53"/>
          <note key="53" pan="0" pos="1128" len="24" vol="136"/>
          <note key="52" pan="-100" pos="1152" len="12" vol="100"/>
          <note key="52" pan="-70" pos="1164" len="12" vol="83"/>
          <note key="52" pan="91" pos="1188" len="12" vol="100"/>
          <note key="52" pan="46" pos="1200" len="12" vol="82"/>
          <note key="52" pan="-100" pos="1224" len="12" vol="100"/>
          <note key="52" pan="-68" pos="1236" len="12" vol="82"/>
          <note key="52" pan="97" pos="1260" len="12" vol="100"/>
          <note key="52" pan="63" pos="1272" len="12" vol="87"/>
          <note key="52" pan="-100" pos="1296" len="12" vol="100"/>
          <note key="52" pan="-68" pos="1308" len="12" vol="53"/>
          <note key="53" pan="0" pos="1320" len="24" vol="136"/>
          <note key="52" pan="-100" pos="1344" len="12" vol="100"/>
          <note key="52" pan="-70" pos="1356" len="12" vol="83"/>
          <note key="52" pan="91" pos="1380" len="12" vol="100"/>
          <note key="52" pan="46" pos="1392" len="12" vol="82"/>
          <note key="52" pan="-100" pos="1416" len="12" vol="100"/>
          <note key="52" pan="-68" pos="1428" len="12" vol="82"/>
          <note key="52" pan="97" pos="1452" len="12" vol="100"/>
          <note key="52" pan="63" pos="1464" len="12" vol="87"/>
          <note key="52" pan="-100" pos="1488" len="12" vol="100"/>
          <note key="52" pan="-68" pos="1500" len="12" vol="53"/>
          <note key="53" pan="0" pos="1512" len="12" vol="136"/>
          <note key="53" pan="0" pos="1524" len="12" vol="136"/>
        </pattern>
        <pattern name="Dirty Reece" pos="16896" muted="0" type="1" steps="16">
          <note key="52" pan="-100" pos="0" len="12" vol="100"/>
          <note key="52" pan="-70" pos="12" len="12" vol="83"/>
          <note key="52" pan="91" pos="36" len="12" vol="100"/>
          <note key="52" pan="46" pos="48" len="12" vol="82"/>
          <note key="52" pan="-100" pos="72" len="12" vol="100"/>
          <note key="52" pan="-68" pos="84" len="12" vol="82"/>
          <note key="52" pan="97" pos="108" len="12" vol="100"/>
          <note key="52" pan="63" pos="120" len="12" vol="87"/>
          <note key="52" pan="-100" pos="144" len="12" vol="100"/>
          <note key="52" pan="-68" pos="156" len="12" vol="53"/>
          <note key="53" pan="0" pos="168" len="24" vol="136"/>
          <note key="52" pan="-100" pos="192" len="12" vol="100"/>
          <note key="52" pan="-70" pos="204" len="12" vol="83"/>
          <note key="52" pan="91" pos="228" len="12" vol="100"/>
          <note key="52" pan="46" pos="240" len="12" vol="82"/>
          <note key="52" pan="-100" pos="264" len="12" vol="100"/>
          <note key="52" pan="-68" pos="276" len="12" vol="82"/>
          <note key="52" pan="97" pos="300" len="12" vol="100"/>
          <note key="52" pan="63" pos="312" len="12" vol="87"/>
          <note key="52" pan="-100" pos="336" len="12" vol="100"/>
          <note key="52" pan="-68" pos="348" len="12" vol="53"/>
          <note key="53" pan="0" pos="360" len="24" vol="136"/>
          <note key="52" pan="-100" pos="384" len="12" vol="100"/>
          <note key="52" pan="-70" pos="396" len="12" vol="83"/>
          <note key="52" pan="91" pos="420" len="12" vol="100"/>
          <note key="52" pan="46" pos="432" len="12" vol="82"/>
          <note key="52" pan="-100" pos="456" len="12" vol="100"/>
          <note key="52" pan="-68" pos="468" len="12" vol="82"/>
          <note key="52" pan="97" pos="492" len="12" vol="100"/>
          <note key="52" pan="63" pos="504" len="12" vol="87"/>
          <note key="52" pan="-100" pos="528" len="12" vol="100"/>
          <note key="52" pan="-68" pos="540" len="12" vol="53"/>
          <note key="53" pan="0" pos="552" len="24" vol="136"/>
          <note key="52" pan="-100" pos="576" len="12" vol="100"/>
          <note key="52" pan="-70" pos="588" len="12" vol="83"/>
          <note key="52" pan="91" pos="612" len="12" vol="100"/>
          <note key="52" pan="46" pos="624" len="12" vol="82"/>
          <note key="52" pan="-100" pos="648" len="12" vol="100"/>
          <note key="52" pan="-68" pos="660" len="12" vol="82"/>
          <note key="52" pan="97" pos="684" len="12" vol="100"/>
          <note key="52" pan="63" pos="696" len="12" vol="87"/>
          <note key="52" pan="-100" pos="720" len="12" vol="100"/>
          <note key="52" pan="-68" pos="732" len="12" vol="53"/>
          <note key="51" pan="0" pos="744" len="24" vol="136"/>
          <note key="52" pan="-100" pos="768" len="12" vol="100"/>
          <note key="52" pan="-70" pos="780" len="12" vol="83"/>
          <note key="52" pan="91" pos="804" len="12" vol="100"/>
          <note key="52" pan="46" pos="816" len="12" vol="82"/>
          <note key="52" pan="-100" pos="840" len="12" vol="100"/>
          <note key="52" pan="-68" pos="852" len="12" vol="82"/>
          <note key="52" pan="97" pos="876" len="12" vol="100"/>
          <note key="52" pan="63" pos="888" len="12" vol="87"/>
          <note key="52" pan="-100" pos="912" len="12" vol="100"/>
          <note key="52" pan="-68" pos="924" len="12" vol="53"/>
          <note key="53" pan="0" pos="936" len="24" vol="136"/>
          <note key="52" pan="-100" pos="960" len="12" vol="100"/>
          <note key="52" pan="-70" pos="972" len="12" vol="83"/>
          <note key="52" pan="91" pos="996" len="12" vol="100"/>
          <note key="52" pan="46" pos="1008" len="12" vol="82"/>
          <note key="52" pan="-100" pos="1032" len="12" vol="100"/>
          <note key="52" pan="-68" pos="1044" len="12" vol="82"/>
          <note key="52" pan="97" pos="1068" len="12" vol="100"/>
          <note key="52" pan="63" pos="1080" len="12" vol="87"/>
          <note key="52" pan="-100" pos="1104" len="12" vol="100"/>
          <note key="52" pan="-68" pos="1116" len="12" vol="53"/>
          <note key="53" pan="0" pos="1128" len="24" vol="136"/>
          <note key="52" pan="-100" pos="1152" len="12" vol="100"/>
          <note key="52" pan="-70" pos="1164" len="12" vol="83"/>
          <note key="52" pan="91" pos="1188" len="12" vol="100"/>
          <note key="52" pan="46" pos="1200" len="12" vol="82"/>
          <note key="52" pan="-100" pos="1224" len="12" vol="100"/>
          <note key="52" pan="-68" pos="1236" len="12" vol="82"/>
          <note key="52" pan="97" pos="1260" len="12" vol="100"/>
          <note key="52" pan="63" pos="1272" len="12" vol="87"/>
          <note key="52" pan="-100" pos="1296" len="12" vol="100"/>
          <note key="52" pan="-68" pos="1308" len="12" vol="53"/>
          <note key="53" pan="0" pos="1320" len="24" vol="136"/>
          <note key="52" pan="-100" pos="1344" len="12" vol="100"/>
          <note key="52" pan="-70" pos="1356" len="12" vol="83"/>
          <note key="52" pan="91" pos="1380" len="12" vol="100"/>
          <note key="52" pan="46" pos="1392" len="12" vol="82"/>
          <note key="52" pan="-100" pos="1416" len="12" vol="100"/>
          <note key="52" pan="-68" pos="1428" len="12" vol="82"/>
          <note key="52" pan="97" pos="1452" len="12" vol="100"/>
          <note key="52" pan="63" pos="1464" len="12" vol="87"/>
          <note key="52" pan="-100" pos="1488" len="12" vol="100"/>
          <note key="52" pan="-68" pos="1500" len="12" vol="53"/>
          <note key="53" pan="0" pos="1512" len="12" vol="136"/>
          <note key="53" pan="0" pos="1524" len="12" vol="136"/>
        </pattern>
        <pattern name="Dirty Reece" pos="18432" muted="0" type="1" steps="16">
          <note key="52" pan="-100" pos="0" len="12" vol="100"/>
          <note key="52" pan="-70" pos="12" len="12" vol="83"/>
          <note key="52" pan="91" pos="36" len="12" vol="100"/>
          <note key="52" pan="46" pos="48" len="12" vol="82"/>
          <note key="52" pan="-100" pos="72" len="12" vol="100"/>
          <note key="52" pan="-68" pos="84" len="12" vol="82"/>
          <note key="52" pan="97" pos="108" len="12" vol="100"/>
          <note key="52" pan="63" pos="120" len="12" vol="87"/>
          <note key="52" pan="-100" pos="144" len="12" vol="100"/>
          <note key="52" pan="-68" pos="156" len="12" vol="53"/>
          <note key="53" pan="0" pos="168" len="24" vol="136"/>
          <note key="52" pan="-100" pos="192" len="12" vol="100"/>
          <note key="52" pan="-70" pos="204" len="12" vol="83"/>
          <note key="52" pan="91" pos="228" len="12" vol="100"/>
          <note key="52" pan="46" pos="240" len="12" vol="82"/>
          <note key="52" pan="-100" pos="264" len="12" vol="100"/>
          <note key="52" pan="-68" pos="276" len="12" vol="82"/>
          <note key="52" pan="97" pos="300" len="12" vol="100"/>
          <note key="52" pan="63" pos="312" len="12" vol="87"/>
          <note key="52" pan="-100" pos="336" len="12" vol="100"/>
          <note key="52" pan="-68" pos="348" len="12" vol="53"/>
          <note key="53" pan="0" pos="360" len="24" vol="136"/>
          <note key="52" pan="-100" pos="384" len="12" vol="100"/>
          <note key="52" pan="-70" pos="396" len="12" vol="83"/>
          <note key="52" pan="91" pos="420" len="12" vol="100"/>
          <note key="52" pan="46" pos="432" len="12" vol="82"/>
          <note key="52" pan="-100" pos="456" len="12" vol="100"/>
          <note key="52" pan="-68" pos="468" len="12" vol="82"/>
          <note key="52" pan="97" pos="492" len="12" vol="100"/>
          <note key="52" pan="63" pos="504" len="12" vol="87"/>
          <note key="52" pan="-100" pos="528" len="12" vol="100"/>
          <note key="52" pan="-68" pos="540" len="12" vol="53"/>
          <note key="53" pan="0" pos="552" len="24" vol="136"/>
          <note key="52" pan="-100" pos="576" len="12" vol="100"/>
          <note key="52" pan="-70" pos="588" len="12" vol="83"/>
          <note key="52" pan="91" pos="612" len="12" vol="100"/>
          <note key="52" pan="46" pos="624" len="12" vol="82"/>
          <note key="52" pan="-100" pos="648" len="12" vol="100"/>
          <note key="52" pan="-68" pos="660" len="12" vol="82"/>
          <note key="52" pan="97" pos="684" len="12" vol="100"/>
          <note key="52" pan="63" pos="696" len="12" vol="87"/>
          <note key="52" pan="-100" pos="720" len="12" vol="100"/>
          <note key="52" pan="-68" pos="732" len="12" vol="53"/>
          <note key="51" pan="0" pos="744" len="24" vol="136"/>
          <note key="52" pan="-100" pos="768" len="12" vol="100"/>
          <note key="52" pan="-70" pos="780" len="12" vol="83"/>
          <note key="52" pan="91" pos="804" len="12" vol="100"/>
          <note key="52" pan="46" pos="816" len="12" vol="82"/>
          <note key="52" pan="-100" pos="840" len="12" vol="100"/>
          <note key="52" pan="-68" pos="852" len="12" vol="82"/>
          <note key="52" pan="97" pos="876" len="12" vol="100"/>
          <note key="52" pan="63" pos="888" len="12" vol="87"/>
          <note key="52" pan="-100" pos="912" len="12" vol="100"/>
          <note key="52" pan="-68" pos="924" len="12" vol="53"/>
          <note key="53" pan="0" pos="936" len="24" vol="136"/>
          <note key="52" pan="-100" pos="960" len="12" vol="100"/>
          <note key="52" pan="-70" pos="972" len="12" vol="83"/>
          <note key="52" pan="91" pos="996" len="12" vol="100"/>
          <note key="52" pan="46" pos="1008" len="12" vol="82"/>
          <note key="52" pan="-100" pos="1032" len="12" vol="100"/>
          <note key="52" pan="-68" pos="1044" len="12" vol="82"/>
          <note key="52" pan="97" pos="1068" len="12" vol="100"/>
          <note key="52" pan="63" pos="1080" len="12" vol="87"/>
          <note key="52" pan="-100" pos="1104" len="12" vol="100"/>
          <note key="52" pan="-68" pos="1116" len="12" vol="53"/>
          <note key="53" pan="0" pos="1128" len="24" vol="136"/>
          <note key="52" pan="-100" pos="1152" len="12" vol="100"/>
          <note key="52" pan="-70" pos="1164" len="12" vol="83"/>
          <note key="52" pan="91" pos="1188" len="12" vol="100"/>
          <note key="52" pan="46" pos="1200" len="12" vol="82"/>
          <note key="52" pan="-100" pos="1224" len="12" vol="100"/>
          <note key="52" pan="-68" pos="1236" len="12" vol="82"/>
          <note key="52" pan="97" pos="1260" len="12" vol="100"/>
          <note key="52" pan="63" pos="1272" len="12" vol="87"/>
          <note key="52" pan="-100" pos="1296" len="12" vol="100"/>
          <note key="52" pan="-68" pos="1308" len="12" vol="53"/>
          <note key="53" pan="0" pos="1320" len="24" vol="136"/>
          <note key="52" pan="-100" pos="1344" len="12" vol="100"/>
          <note key="52" pan="-70" pos="1356" len="12" vol="83"/>
          <note key="52" pan="91" pos="1380" len="12" vol="100"/>
          <note key="52" pan="46" pos="1392" len="12" vol="82"/>
          <note key="52" pan="-100" pos="1416" len="12" vol="100"/>
          <note key="52" pan="-68" pos="1428" len="12" vol="82"/>
          <note key="52" pan="97" pos="1452" len="12" vol="100"/>
          <note key="52" pan="63" pos="1464" len="12" vol="87"/>
          <note key="52" pan="-100" pos="1488" len="12" vol="100"/>
          <note key="52" pan="-68" pos="1500" len="12" vol="53"/>
          <note key="53" pan="0" pos="1512" len="12" vol="136"/>
          <note key="53" pan="0" pos="1524" len="12" vol="136"/>
        </pattern>
      </track>
      <track name="Bass 2" muted="0" type="0" solo="0">
        <instrumenttrack pitchrange="1" pan="0" fxch="0" basenote="57" pitch="0" vol="100" usemasterpitch="1">
          <instrument name="zynaddsubfx">
            <zynaddsubfx modifiedcontrollers="" portamento="0" filterfreq="64" resbandwidth="64" rescenterfreq="64" filterq="64" bandwidth="64" fmgain="127" forwardmidicc="1">
              <ZynAddSubFX-data version-revision="1" version-minor="4" version-major="2" ZynAddSubFX-author="Nasca Octavian Paul">
                <INFORMATION/>
                <BASE_PARAMETERS>
                  <par value="16" name="max_midi_parts"/>
                  <par value="16" name="max_kit_items_per_instrument"/>
                  <par value="4" name="max_system_effects"/>
                  <par value="8" name="max_insertion_effects"/>
                  <par value="3" name="max_instrument_effects"/>
                  <par value="8" name="max_addsynth_voices"/>
                </BASE_PARAMETERS>
                <MASTER>
                  <par value="80" name="volume"/>
                  <par value="64" name="key_shift"/>
                  <par_bool value="yes" name="nrpn_receive"/>
                  <MICROTONAL>
                    <string name="name">12tET</string>
                    <string name="comment">Equal Temperament 12 notes per octave</string>
                    <par_bool value="no" name="invert_up_down"/>
                    <par value="60" name="invert_up_down_center"/>
                    <par_bool value="no" name="enabled"/>
                    <par value="64" name="global_fine_detune"/>
                    <par value="69" name="a_note"/>
                    <par_real value="440.000000" name="a_freq"/>
                  </MICROTONAL>
                  <PART id="0">
                    <par_bool value="yes" name="enabled"/>
                    <par value="96" name="volume"/>
                    <par value="64" name="panning"/>
                    <par value="0" name="min_key"/>
                    <par value="127" name="max_key"/>
                    <par value="64" name="key_shift"/>
                    <par value="0" name="rcv_chn"/>
                    <par value="64" name="velocity_sensing"/>
                    <par value="64" name="velocity_offset"/>
                    <par_bool value="yes" name="note_on"/>
                    <par_bool value="yes" name="poly_mode"/>
                    <par value="0" name="legato_mode"/>
                    <par value="15" name="key_limit"/>
                    <INSTRUMENT>
                      <INFO>
                        <string name="name">Bass 2</string>
                        <string name="author"/>
                        <string name="comments"/>
                        <par value="0" name="type"/>
                      </INFO>
                      <INSTRUMENT_KIT>
                        <par value="0" name="kit_mode"/>
                        <par_bool value="no" name="drum_mode"/>
                        <INSTRUMENT_KIT_ITEM id="0">
                          <par_bool value="yes" name="enabled"/>
                          <string name="name">Bass 2</string>
                          <par_bool value="no" name="muted"/>
                          <par value="0" name="min_key"/>
                          <par value="127" name="max_key"/>
                          <par value="0" name="send_to_instrument_effect"/>
                          <par_bool value="yes" name="add_enabled"/>
                          <ADD_SYNTH_PARAMETERS>
                            <par_bool value="yes" name="stereo"/>
                            <AMPLITUDE_PARAMETERS>
                              <par value="97" name="volume"/>
                              <par value="64" name="panning"/>
                              <par value="114" name="velocity_sensing"/>
                              <par value="0" name="punch_strength"/>
                              <par value="60" name="punch_time"/>
                              <par value="64" name="punch_stretch"/>
                              <par value="72" name="punch_velocity_sensing"/>
                              <par value="0" name="harmonic_randomness_grouping"/>
                              <AMPLITUDE_ENVELOPE>
                                <par_bool value="no" name="free_mode"/>
                                <par value="4" name="env_points"/>
                                <par value="2" name="env_sustain"/>
                                <par value="55" name="env_stretch"/>
                                <par_bool value="yes" name="forced_release"/>
                                <par_bool value="no" name="linear_envelope"/>
                                <par value="1" name="A_dt"/>
                                <par value="75" name="D_dt"/>
                                <par value="51" name="R_dt"/>
                                <par value="64" name="A_val"/>
                                <par value="64" name="D_val"/>
                                <par value="0" name="S_val"/>
                                <par value="64" name="R_val"/>
                              </AMPLITUDE_ENVELOPE>
                              <AMPLITUDE_LFO>
                                <par_real value="0.629921" name="freq"/>
                                <par value="0" name="intensity"/>
                                <par value="64" name="start_phase"/>
                                <par value="0" name="lfo_type"/>
                                <par value="0" name="randomness_amplitude"/>
                                <par value="0" name="randomness_frequency"/>
                                <par value="0" name="delay"/>
                                <par value="64" name="stretch"/>
                                <par_bool value="no" name="continous"/>
                              </AMPLITUDE_LFO>
                            </AMPLITUDE_PARAMETERS>
                            <FREQUENCY_PARAMETERS>
                              <par value="8192" name="detune"/>
                              <par value="0" name="coarse_detune"/>
                              <par value="1" name="detune_type"/>
                              <par value="64" name="bandwidth"/>
                              <FREQUENCY_ENVELOPE>
                                <par_bool value="no" name="free_mode"/>
                                <par value="3" name="env_points"/>
                                <par value="1" name="env_sustain"/>
                                <par value="0" name="env_stretch"/>
                                <par_bool value="no" name="forced_release"/>
                                <par_bool value="no" name="linear_envelope"/>
                                <par value="50" name="A_dt"/>
                                <par value="10" name="D_dt"/>
                                <par value="60" name="R_dt"/>
                                <par value="64" name="A_val"/>
                                <par value="64" name="D_val"/>
                                <par value="64" name="S_val"/>
                                <par value="64" name="R_val"/>
                              </FREQUENCY_ENVELOPE>
                              <FREQUENCY_LFO>
                                <par_real value="0.551181" name="freq"/>
                                <par value="0" name="intensity"/>
                                <par value="64" name="start_phase"/>
                                <par value="0" name="lfo_type"/>
                                <par value="0" name="randomness_amplitude"/>
                                <par value="0" name="randomness_frequency"/>
                                <par value="0" name="delay"/>
                                <par value="64" name="stretch"/>
                                <par_bool value="no" name="continous"/>
                              </FREQUENCY_LFO>
                            </FREQUENCY_PARAMETERS>
                            <FILTER_PARAMETERS>
                              <par value="27" name="velocity_sensing_amplitude"/>
                              <par value="64" name="velocity_sensing"/>
                              <FILTER>
                                <par value="0" name="category"/>
                                <par value="2" name="type"/>
                                <par value="32" name="freq"/>
                                <par value="35" name="q"/>
                                <par value="0" name="stages"/>
                                <par value="64" name="freq_track"/>
                                <par value="64" name="gain"/>
                              </FILTER>
                              <FILTER_ENVELOPE>
                                <par_bool value="no" name="free_mode"/>
                                <par value="4" name="env_points"/>
                                <par value="2" name="env_sustain"/>
                                <par value="0" name="env_stretch"/>
                                <par_bool value="yes" name="forced_release"/>
                                <par_bool value="no" name="linear_envelope"/>
                                <par value="42" name="A_dt"/>
                                <par value="70" name="D_dt"/>
                                <par value="60" name="R_dt"/>
                                <par value="100" name="A_val"/>
                                <par value="64" name="D_val"/>
                                <par value="64" name="S_val"/>
                                <par value="64" name="R_val"/>
                              </FILTER_ENVELOPE>
                              <FILTER_LFO>
                                <par_real value="0.629921" name="freq"/>
                                <par value="0" name="intensity"/>
                                <par value="64" name="start_phase"/>
                                <par value="0" name="lfo_type"/>
                                <par value="0" name="randomness_amplitude"/>
                                <par value="0" name="randomness_frequency"/>
                                <par value="0" name="delay"/>
                                <par value="64" name="stretch"/>
                                <par_bool value="no" name="continous"/>
                              </FILTER_LFO>
                            </FILTER_PARAMETERS>
                            <RESONANCE>
                              <par_bool value="no" name="enabled"/>
                            </RESONANCE>
                            <VOICE id="0">
                              <par_bool value="yes" name="enabled"/>
                              <par value="0" name="type"/>
                              <par value="1" name="unison_size"/>
                              <par value="60" name="unison_frequency_spread"/>
                              <par value="64" name="unison_stereo_spread"/>
                              <par value="64" name="unison_vibratto"/>
                              <par value="64" name="unison_vibratto_speed"/>
                              <par value="0" name="unison_invert_phase"/>
                              <par value="127" name="unison_phase_randomness"/>
                              <par value="0" name="delay"/>
                              <par_bool value="yes" name="resonance"/>
                              <par value="-1" name="ext_oscil"/>
                              <par value="-1" name="ext_fm_oscil"/>
                              <par value="64" name="oscil_phase"/>
                              <par value="64" name="oscil_fm_phase"/>
                              <par_bool value="no" name="filter_enabled"/>
                              <par_bool value="no" name="filter_bypass"/>
                              <par value="0" name="fm_enabled"/>
                              <OSCIL>
                                <par value="0" name="harmonic_mag_type"/>
                                <par value="11" name="base_function"/>
                                <par value="44" name="base_function_par"/>
                                <par value="0" name="base_function_modulation"/>
                                <par value="64" name="base_function_modulation_par1"/>
                                <par value="64" name="base_function_modulation_par2"/>
                                <par value="32" name="base_function_modulation_par3"/>
                                <par value="0" name="modulation"/>
                                <par value="64" name="modulation_par1"/>
                                <par value="64" name="modulation_par2"/>
                                <par value="32" name="modulation_par3"/>
                                <par value="64" name="wave_shaping"/>
                                <par value="0" name="wave_shaping_function"/>
                                <par value="0" name="filter_type"/>
                                <par value="64" name="filter_par1"/>
                                <par value="64" name="filter_par2"/>
                                <par value="0" name="filter_before_wave_shaping"/>
                                <par value="0" name="spectrum_adjust_type"/>
                                <par value="64" name="spectrum_adjust_par"/>
                                <par value="127" name="rand"/>
                                <par value="0" name="amp_rand_type"/>
                                <par value="64" name="amp_rand_power"/>
                                <par value="0" name="harmonic_shift"/>
                                <par_bool value="no" name="harmonic_shift_first"/>
                                <par value="0" name="adaptive_harmonics"/>
                                <par value="128" name="adaptive_harmonics_base_frequency"/>
                                <par value="100" name="adaptive_harmonics_power"/>
                                <HARMONICS>
                                  <HARMONIC id="1">
                                    <par value="127" name="mag"/>
                                    <par value="64" name="phase"/>
                                  </HARMONIC>
                                  <HARMONIC id="2">
                                    <par value="113" name="mag"/>
                                    <par value="64" name="phase"/>
                                  </HARMONIC>
                                </HARMONICS>
                              </OSCIL>
                              <AMPLITUDE_PARAMETERS>
                                <par value="87" name="panning"/>
                                <par value="100" name="volume"/>
                                <par_bool value="no" name="volume_minus"/>
                                <par value="127" name="velocity_sensing"/>
                                <par_bool value="no" name="amp_envelope_enabled"/>
                                <par_bool value="no" name="amp_lfo_enabled"/>
                              </AMPLITUDE_PARAMETERS>
                              <FREQUENCY_PARAMETERS>
                                <par_bool value="no" name="fixed_freq"/>
                                <par value="0" name="fixed_freq_et"/>
                                <par value="9557" name="detune"/>
                                <par value="0" name="coarse_detune"/>
                                <par value="0" name="detune_type"/>
                                <par_bool value="no" name="freq_envelope_enabled"/>
                                <par_bool value="no" name="freq_lfo_enabled"/>
                              </FREQUENCY_PARAMETERS>
                            </VOICE>
                            <VOICE id="1">
                              <par_bool value="yes" name="enabled"/>
                              <par value="0" name="type"/>
                              <par value="1" name="unison_size"/>
                              <par value="60" name="unison_frequency_spread"/>
                              <par value="64" name="unison_stereo_spread"/>
                              <par value="64" name="unison_vibratto"/>
                              <par value="64" name="unison_vibratto_speed"/>
                              <par value="0" name="unison_invert_phase"/>
                              <par value="127" name="unison_phase_randomness"/>
                              <par value="0" name="delay"/>
                              <par_bool value="yes" name="resonance"/>
                              <par value="0" name="ext_oscil"/>
                              <par value="-1" name="ext_fm_oscil"/>
                              <par value="64" name="oscil_phase"/>
                              <par value="64" name="oscil_fm_phase"/>
                              <par_bool value="no" name="filter_enabled"/>
                              <par_bool value="no" name="filter_bypass"/>
                              <par value="0" name="fm_enabled"/>
                              <OSCIL>
                                <par value="0" name="harmonic_mag_type"/>
                                <par value="0" name="base_function"/>
                                <par value="64" name="base_function_par"/>
                                <par value="0" name="base_function_modulation"/>
                                <par value="64" name="base_function_modulation_par1"/>
                                <par value="64" name="base_function_modulation_par2"/>
                                <par value="32" name="base_function_modulation_par3"/>
                                <par value="0" name="modulation"/>
                                <par value="64" name="modulation_par1"/>
                                <par value="64" name="modulation_par2"/>
                                <par value="32" name="modulation_par3"/>
                                <par value="64" name="wave_shaping"/>
                                <par value="0" name="wave_shaping_function"/>
                                <par value="0" name="filter_type"/>
                                <par value="64" name="filter_par1"/>
                                <par value="64" name="filter_par2"/>
                                <par value="0" name="filter_before_wave_shaping"/>
                                <par value="0" name="spectrum_adjust_type"/>
                                <par value="64" name="spectrum_adjust_par"/>
                                <par value="64" name="rand"/>
                                <par value="0" name="amp_rand_type"/>
                                <par value="64" name="amp_rand_power"/>
                                <par value="0" name="harmonic_shift"/>
                                <par_bool value="no" name="harmonic_shift_first"/>
                                <par value="0" name="adaptive_harmonics"/>
                                <par value="128" name="adaptive_harmonics_base_frequency"/>
                                <par value="100" name="adaptive_harmonics_power"/>
                                <HARMONICS>
                                  <HARMONIC id="1">
                                    <par value="127" name="mag"/>
                                    <par value="64" name="phase"/>
                                  </HARMONIC>
                                </HARMONICS>
                              </OSCIL>
                              <AMPLITUDE_PARAMETERS>
                                <par value="39" name="panning"/>
                                <par value="100" name="volume"/>
                                <par_bool value="no" name="volume_minus"/>
                                <par value="127" name="velocity_sensing"/>
                                <par_bool value="no" name="amp_envelope_enabled"/>
                                <par_bool value="no" name="amp_lfo_enabled"/>
                              </AMPLITUDE_PARAMETERS>
                              <FREQUENCY_PARAMETERS>
                                <par_bool value="no" name="fixed_freq"/>
                                <par value="0" name="fixed_freq_et"/>
                                <par value="7099" name="detune"/>
                                <par value="0" name="coarse_detune"/>
                                <par value="0" name="detune_type"/>
                                <par_bool value="no" name="freq_envelope_enabled"/>
                                <par_bool value="no" name="freq_lfo_enabled"/>
                              </FREQUENCY_PARAMETERS>
                            </VOICE>
                            <VOICE id="2">
                              <par_bool value="no" name="enabled"/>
                            </VOICE>
                            <VOICE id="3">
                              <par_bool value="no" name="enabled"/>
                            </VOICE>
                            <VOICE id="4">
                              <par_bool value="no" name="enabled"/>
                            </VOICE>
                            <VOICE id="5">
                              <par_bool value="no" name="enabled"/>
                            </VOICE>
                            <VOICE id="6">
                              <par_bool value="no" name="enabled"/>
                            </VOICE>
                            <VOICE id="7">
                              <par_bool value="no" name="enabled"/>
                            </VOICE>
                          </ADD_SYNTH_PARAMETERS>
                          <par_bool value="no" name="sub_enabled"/>
                          <par_bool value="no" name="pad_enabled"/>
                        </INSTRUMENT_KIT_ITEM>
                        <INSTRUMENT_KIT_ITEM id="1">
                          <par_bool value="no" name="enabled"/>
                        </INSTRUMENT_KIT_ITEM>
                        <INSTRUMENT_KIT_ITEM id="2">
                          <par_bool value="no" name="enabled"/>
                        </INSTRUMENT_KIT_ITEM>
                        <INSTRUMENT_KIT_ITEM id="3">
                          <par_bool value="no" name="enabled"/>
                        </INSTRUMENT_KIT_ITEM>
                        <INSTRUMENT_KIT_ITEM id="4">
                          <par_bool value="no" name="enabled"/>
                        </INSTRUMENT_KIT_ITEM>
                        <INSTRUMENT_KIT_ITEM id="5">
                          <par_bool value="no" name="enabled"/>
                        </INSTRUMENT_KIT_ITEM>
                        <INSTRUMENT_KIT_ITEM id="6">
                          <par_bool value="no" name="enabled"/>
                        </INSTRUMENT_KIT_ITEM>
                        <INSTRUMENT_KIT_ITEM id="7">
                          <par_bool value="no" name="enabled"/>
                        </INSTRUMENT_KIT_ITEM>
                        <INSTRUMENT_KIT_ITEM id="8">
                          <par_bool value="no" name="enabled"/>
                        </INSTRUMENT_KIT_ITEM>
                        <INSTRUMENT_KIT_ITEM id="9">
                          <par_bool value="no" name="enabled"/>
                        </INSTRUMENT_KIT_ITEM>
                        <INSTRUMENT_KIT_ITEM id="10">
                          <par_bool value="no" name="enabled"/>
                        </INSTRUMENT_KIT_ITEM>
                        <INSTRUMENT_KIT_ITEM id="11">
                          <par_bool value="no" name="enabled"/>
                        </INSTRUMENT_KIT_ITEM>
                        <INSTRUMENT_KIT_ITEM id="12">
                          <par_bool value="no" name="enabled"/>
                        </INSTRUMENT_KIT_ITEM>
                        <INSTRUMENT_KIT_ITEM id="13">
                          <par_bool value="no" name="enabled"/>
                        </INSTRUMENT_KIT_ITEM>
                        <INSTRUMENT_KIT_ITEM id="14">
                          <par_bool value="no" name="enabled"/>
                        </INSTRUMENT_KIT_ITEM>
                        <INSTRUMENT_KIT_ITEM id="15">
                          <par_bool value="no" name="enabled"/>
                        </INSTRUMENT_KIT_ITEM>
                      </INSTRUMENT_KIT>
                      <INSTRUMENT_EFFECTS>
                        <INSTRUMENT_EFFECT id="0">
                          <EFFECT>
                            <par value="0" name="type"/>
                          </EFFECT>
                          <par value="0" name="route"/>
                          <par_bool value="no" name="bypass"/>
                        </INSTRUMENT_EFFECT>
                        <INSTRUMENT_EFFECT id="1">
                          <EFFECT>
                            <par value="0" name="type"/>
                          </EFFECT>
                          <par value="0" name="route"/>
                          <par_bool value="no" name="bypass"/>
                        </INSTRUMENT_EFFECT>
                        <INSTRUMENT_EFFECT id="2">
                          <EFFECT>
                            <par value="0" name="type"/>
                          </EFFECT>
                          <par value="0" name="route"/>
                          <par_bool value="no" name="bypass"/>
                        </INSTRUMENT_EFFECT>
                      </INSTRUMENT_EFFECTS>
                    </INSTRUMENT>
                    <CONTROLLER>
                      <par value="100" name="pitchwheel_bendrange"/>
                      <par_bool value="yes" name="expression_receive"/>
                      <par value="64" name="panning_depth"/>
                      <par value="64" name="filter_cutoff_depth"/>
                      <par value="64" name="filter_q_depth"/>
                      <par value="64" name="bandwidth_depth"/>
                      <par value="80" name="mod_wheel_depth"/>
                      <par_bool value="no" name="mod_wheel_exponential"/>
                      <par_bool value="yes" name="fm_amp_receive"/>
                      <par_bool value="yes" name="volume_receive"/>
                      <par_bool value="yes" name="sustain_receive"/>
                      <par_bool value="yes" name="portamento_receive"/>
                      <par value="64" name="portamento_time"/>
                      <par value="3" name="portamento_pitchthresh"/>
                      <par value="1" name="portamento_pitchthreshtype"/>
                      <par value="0" name="portamento_portamento"/>
                      <par value="64" name="portamento_updowntimestretch"/>
                      <par value="0" name="portamento_proportional"/>
                      <par value="80" name="portamento_proprate"/>
                      <par value="90" name="portamento_propdepth"/>
                      <par value="64" name="resonance_center_depth"/>
                      <par value="64" name="resonance_bandwidth_depth"/>
                    </CONTROLLER>
                  </PART>
                  <PART id="1">
                    <par_bool value="no" name="enabled"/>
                  </PART>
                  <PART id="2">
                    <par_bool value="no" name="enabled"/>
                  </PART>
                  <PART id="3">
                    <par_bool value="no" name="enabled"/>
                  </PART>
                  <PART id="4">
                    <par_bool value="no" name="enabled"/>
                  </PART>
                  <PART id="5">
                    <par_bool value="no" name="enabled"/>
                  </PART>
                  <PART id="6">
                    <par_bool value="no" name="enabled"/>
                  </PART>
                  <PART id="7">
                    <par_bool value="no" name="enabled"/>
                  </PART>
                  <PART id="8">
                    <par_bool value="no" name="enabled"/>
                  </PART>
                  <PART id="9">
                    <par_bool value="no" name="enabled"/>
                  </PART>
                  <PART id="10">
                    <par_bool value="no" name="enabled"/>
                  </PART>
                  <PART id="11">
                    <par_bool value="no" name="enabled"/>
                  </PART>
                  <PART id="12">
                    <par_bool value="no" name="enabled"/>
                  </PART>
                  <PART id="13">
                    <par_bool value="no" name="enabled"/>
                  </PART>
                  <PART id="14">
                    <par_bool value="no" name="enabled"/>
                  </PART>
                  <PART id="15">
                    <par_bool value="no" name="enabled"/>
                  </PART>
                  <SYSTEM_EFFECTS>
                    <SYSTEM_EFFECT id="0">
                      <EFFECT>
                        <par value="0" name="type"/>
                      </EFFECT>
                      <VOLUME id="0">
                        <par value="0" name="vol"/>
                      </VOLUME>
                      <VOLUME id="1">
                        <par value="0" name="vol"/>
                      </VOLUME>
                      <VOLUME id="2">
                        <par value="0" name="vol"/>
                      </VOLUME>
                      <VOLUME id="3">
                        <par value="0" name="vol"/>
                      </VOLUME>
                      <VOLUME id="4">
                        <par value="0" name="vol"/>
                      </VOLUME>
                      <VOLUME id="5">
                        <par value="0" name="vol"/>
                      </VOLUME>
                      <VOLUME id="6">
                        <par value="0" name="vol"/>
                      </VOLUME>
                      <VOLUME id="7">
                        <par value="0" name="vol"/>
                      </VOLUME>
                      <VOLUME id="8">
                        <par value="0" name="vol"/>
                      </VOLUME>
                      <VOLUME id="9">
                        <par value="0" name="vol"/>
                      </VOLUME>
                      <VOLUME id="10">
                        <par value="0" name="vol"/>
                      </VOLUME>
                      <VOLUME id="11">
                        <par value="0" name="vol"/>
                      </VOLUME>
                      <VOLUME id="12">
                        <par value="0" name="vol"/>
                      </VOLUME>
                      <VOLUME id="13">
                        <par value="0" name="vol"/>
                      </VOLUME>
                      <VOLUME id="14">
                        <par value="0" name="vol"/>
                      </VOLUME>
                      <VOLUME id="15">
                        <par value="0" name="vol"/>
                      </VOLUME>
                      <SENDTO id="1">
                        <par value="0" name="send_vol"/>
                      </SENDTO>
                      <SENDTO id="2">
                        <par value="0" name="send_vol"/>
                      </SENDTO>
                      <SENDTO id="3">
                        <par value="0" name="send_vol"/>
                      </SENDTO>
                    </SYSTEM_EFFECT>
                    <SYSTEM_EFFECT id="1">
                      <EFFECT>
                        <par value="0" name="type"/>
                      </EFFECT>
                      <VOLUME id="0">
                        <par value="0" name="vol"/>
                      </VOLUME>
                      <VOLUME id="1">
                        <par value="0" name="vol"/>
                      </VOLUME>
                      <VOLUME id="2">
                        <par value="0" name="vol"/>
                      </VOLUME>
                      <VOLUME id="3">
                        <par value="0" name="vol"/>
                      </VOLUME>
                      <VOLUME id="4">
                        <par value="0" name="vol"/>
                      </VOLUME>
                      <VOLUME id="5">
                        <par value="0" name="vol"/>
                      </VOLUME>
                      <VOLUME id="6">
                        <par value="0" name="vol"/>
                      </VOLUME>
                      <VOLUME id="7">
                        <par value="0" name="vol"/>
                      </VOLUME>
                      <VOLUME id="8">
                        <par value="0" name="vol"/>
                      </VOLUME>
                      <VOLUME id="9">
                        <par value="0" name="vol"/>
                      </VOLUME>
                      <VOLUME id="10">
                        <par value="0" name="vol"/>
                      </VOLUME>
                      <VOLUME id="11">
                        <par value="0" name="vol"/>
                      </VOLUME>
                      <VOLUME id="12">
                        <par value="0" name="vol"/>
                      </VOLUME>
                      <VOLUME id="13">
                        <par value="0" name="vol"/>
                      </VOLUME>
                      <VOLUME id="14">
                        <par value="0" name="vol"/>
                      </VOLUME>
                      <VOLUME id="15">
                        <par value="0" name="vol"/>
                      </VOLUME>
                      <SENDTO id="2">
                        <par value="0" name="send_vol"/>
                      </SENDTO>
                      <SENDTO id="3">
                        <par value="0" name="send_vol"/>
                      </SENDTO>
                    </SYSTEM_EFFECT>
                    <SYSTEM_EFFECT id="2">
                      <EFFECT>
                        <par value="0" name="type"/>
                      </EFFECT>
                      <VOLUME id="0">
                        <par value="0" name="vol"/>
                      </VOLUME>
                      <VOLUME id="1">
                        <par value="0" name="vol"/>
                      </VOLUME>
                      <VOLUME id="2">
                        <par value="0" name="vol"/>
                      </VOLUME>
                      <VOLUME id="3">
                        <par value="0" name="vol"/>
                      </VOLUME>
                      <VOLUME id="4">
                        <par value="0" name="vol"/>
                      </VOLUME>
                      <VOLUME id="5">
                        <par value="0" name="vol"/>
                      </VOLUME>
                      <VOLUME id="6">
                        <par value="0" name="vol"/>
                      </VOLUME>
                      <VOLUME id="7">
                        <par value="0" name="vol"/>
                      </VOLUME>
                      <VOLUME id="8">
                        <par value="0" name="vol"/>
                      </VOLUME>
                      <VOLUME id="9">
                        <par value="0" name="vol"/>
                      </VOLUME>
                      <VOLUME id="10">
                        <par value="0" name="vol"/>
                      </VOLUME>
                      <VOLUME id="11">
                        <par value="0" name="vol"/>
                      </VOLUME>
                      <VOLUME id="12">
                        <par value="0" name="vol"/>
                      </VOLUME>
                      <VOLUME id="13">
                        <par value="0" name="vol"/>
                      </VOLUME>
                      <VOLUME id="14">
                        <par value="0" name="vol"/>
                      </VOLUME>
                      <VOLUME id="15">
                        <par value="0" name="vol"/>
                      </VOLUME>
                      <SENDTO id="3">
                        <par value="0" name="send_vol"/>
                      </SENDTO>
                    </SYSTEM_EFFECT>
                    <SYSTEM_EFFECT id="3">
                      <EFFECT>
                        <par value="0" name="type"/>
                      </EFFECT>
                      <VOLUME id="0">
                        <par value="0" name="vol"/>
                      </VOLUME>
                      <VOLUME id="1">
                        <par value="0" name="vol"/>
                      </VOLUME>
                      <VOLUME id="2">
                        <par value="0" name="vol"/>
                      </VOLUME>
                      <VOLUME id="3">
                        <par value="0" name="vol"/>
                      </VOLUME>
                      <VOLUME id="4">
                        <par value="0" name="vol"/>
                      </VOLUME>
                      <VOLUME id="5">
                        <par value="0" name="vol"/>
                      </VOLUME>
                      <VOLUME id="6">
                        <par value="0" name="vol"/>
                      </VOLUME>
                      <VOLUME id="7">
                        <par value="0" name="vol"/>
                      </VOLUME>
                      <VOLUME id="8">
                        <par value="0" name="vol"/>
                      </VOLUME>
                      <VOLUME id="9">
                        <par value="0" name="vol"/>
                      </VOLUME>
                      <VOLUME id="10">
                        <par value="0" name="vol"/>
                      </VOLUME>
                      <VOLUME id="11">
                        <par value="0" name="vol"/>
                      </VOLUME>
                      <VOLUME id="12">
                        <par value="0" name="vol"/>
                      </VOLUME>
                      <VOLUME id="13">
                        <par value="0" name="vol"/>
                      </VOLUME>
                      <VOLUME id="14">
                        <par value="0" name="vol"/>
                      </VOLUME>
                      <VOLUME id="15">
                        <par value="0" name="vol"/>
                      </VOLUME>
                    </SYSTEM_EFFECT>
                  </SYSTEM_EFFECTS>
                  <INSERTION_EFFECTS>
                    <INSERTION_EFFECT id="0">
                      <par value="-1" name="part"/>
                      <EFFECT>
                        <par value="0" name="type"/>
                      </EFFECT>
                    </INSERTION_EFFECT>
                    <INSERTION_EFFECT id="1">
                      <par value="-1" name="part"/>
                      <EFFECT>
                        <par value="0" name="type"/>
                      </EFFECT>
                    </INSERTION_EFFECT>
                    <INSERTION_EFFECT id="2">
                      <par value="-1" name="part"/>
                      <EFFECT>
                        <par value="0" name="type"/>
                      </EFFECT>
                    </INSERTION_EFFECT>
                    <INSERTION_EFFECT id="3">
                      <par value="-1" name="part"/>
                      <EFFECT>
                        <par value="0" name="type"/>
                      </EFFECT>
                    </INSERTION_EFFECT>
                    <INSERTION_EFFECT id="4">
                      <par value="-1" name="part"/>
                      <EFFECT>
                        <par value="0" name="type"/>
                      </EFFECT>
                    </INSERTION_EFFECT>
                    <INSERTION_EFFECT id="5">
                      <par value="-1" name="part"/>
                      <EFFECT>
                        <par value="0" name="type"/>
                      </EFFECT>
                    </INSERTION_EFFECT>
                    <INSERTION_EFFECT id="6">
                      <par value="-1" name="part"/>
                      <EFFECT>
                        <par value="0" name="type"/>
                      </EFFECT>
                    </INSERTION_EFFECT>
                    <INSERTION_EFFECT id="7">
                      <par value="-1" name="part"/>
                      <EFFECT>
                        <par value="0" name="type"/>
                      </EFFECT>
                    </INSERTION_EFFECT>
                  </INSERTION_EFFECTS>
                </MASTER>
              </ZynAddSubFX-data>
            </zynaddsubfx>
          </instrument>
          <eldata fcut="14000" ftype="0" fwet="0" fres="0.5">
            <elvol dec="0.5" ctlenvamt="0" latt="0" sustain="0.5" amt="0" lamt="0" pdel="0" rel="0.1" lshp="0" lpdel="0" hold="0.5" lspd_numerator="4" lspd_denominator="4" att="0" x100="0" lspd="0.1" lspd_syncmode="0" userwavefile=""/>
            <elcut dec="0.5" ctlenvamt="0" latt="0" sustain="0.5" amt="0" lamt="0" pdel="0" rel="0.1" lshp="0" lpdel="0" hold="0.5" lspd_numerator="4" lspd_denominator="4" att="0" x100="0" lspd="0.1" lspd_syncmode="0" userwavefile=""/>
            <elres dec="0.5" ctlenvamt="0" latt="0" sustain="0.5" amt="0" lamt="0" pdel="0" rel="0.1" lshp="0" lpdel="0" hold="0.5" lspd_numerator="4" lspd_denominator="4" att="0" x100="0" lspd="0.1" lspd_syncmode="0" userwavefile=""/>
          </eldata>
          <chordcreator chordrange="1" chord-enabled="0" chord="0"/>
          <arpeggiator arptime="200" arptime_syncmode="0" arpmode="0" arptime_numerator="4" arptime_denominator="4" arpdir="0" arpgate="100" arprange="1" arp-enabled="0" arpmiss="0" arp="0" arpcycle="0" arpskip="0"/>
          <midiport inputcontroller="0" fixedoutputnote="-1" writable="0" basevelocity="63" outputprogram="1" outputcontroller="0" fixedinputvelocity="-1" outputchannel="1" fixedoutputvelocity="-1" readable="0" inputchannel="0"/>
          <fxchain numofeffects="0" enabled="0"/>
        </instrumenttrack>
        <pattern name="Bass 2" pos="3072" muted="0" type="1" steps="16">
          <note key="40" pan="0" pos="24" len="24" vol="100"/>
          <note key="40" pan="0" pos="60" len="24" vol="100"/>
          <note key="40" pan="0" pos="96" len="24" vol="100"/>
          <note key="40" pan="0" pos="132" len="24" vol="100"/>
          <note key="41" pan="0" pos="168" len="12" vol="100"/>
          <note key="40" pan="0" pos="216" len="24" vol="100"/>
          <note key="40" pan="0" pos="252" len="24" vol="100"/>
          <note key="40" pan="0" pos="288" len="24" vol="100"/>
          <note key="40" pan="0" pos="324" len="24" vol="100"/>
          <note key="41" pan="0" pos="360" len="12" vol="100"/>
          <note key="40" pan="0" pos="408" len="24" vol="100"/>
          <note key="40" pan="0" pos="444" len="24" vol="100"/>
          <note key="40" pan="0" pos="480" len="24" vol="100"/>
          <note key="40" pan="0" pos="516" len="24" vol="100"/>
          <note key="41" pan="0" pos="552" len="12" vol="100"/>
          <note key="40" pan="0" pos="576" len="24" vol="100"/>
          <note key="40" pan="0" pos="600" len="24" vol="100"/>
          <note key="40" pan="0" pos="636" len="24" vol="100"/>
          <note key="40" pan="0" pos="672" len="24" vol="100"/>
          <note key="40" pan="0" pos="708" len="24" vol="100"/>
          <note key="40" pan="0" pos="732" len="12" vol="100"/>
          <note key="41" pan="0" pos="744" len="24" vol="100"/>
          <note key="40" pan="0" pos="792" len="24" vol="100"/>
          <note key="40" pan="0" pos="828" len="24" vol="100"/>
          <note key="40" pan="0" pos="864" len="24" vol="100"/>
          <note key="40" pan="0" pos="900" len="24" vol="100"/>
          <note key="41" pan="0" pos="936" len="12" vol="100"/>
          <note key="40" pan="0" pos="984" len="24" vol="100"/>
          <note key="40" pan="0" pos="1020" len="24" vol="100"/>
          <note key="40" pan="0" pos="1056" len="24" vol="100"/>
          <note key="40" pan="0" pos="1092" len="24" vol="100"/>
          <note key="41" pan="0" pos="1128" len="12" vol="100"/>
          <note key="40" pan="0" pos="1176" len="24" vol="100"/>
          <note key="40" pan="0" pos="1212" len="24" vol="100"/>
          <note key="40" pan="0" pos="1248" len="24" vol="100"/>
          <note key="40" pan="0" pos="1284" len="24" vol="100"/>
          <note key="41" pan="0" pos="1320" len="12" vol="100"/>
          <note key="40" pan="0" pos="1344" len="24" vol="100"/>
          <note key="40" pan="0" pos="1368" len="24" vol="100"/>
          <note key="40" pan="0" pos="1404" len="24" vol="100"/>
          <note key="40" pan="0" pos="1440" len="24" vol="100"/>
          <note key="40" pan="0" pos="1476" len="24" vol="100"/>
          <note key="40" pan="0" pos="1500" len="12" vol="100"/>
          <note key="41" pan="0" pos="1512" len="24" vol="100"/>
        </pattern>
        <pattern name="Bass 2" pos="4608" muted="0" type="1" steps="16">
          <note key="40" pan="0" pos="24" len="24" vol="100"/>
          <note key="40" pan="0" pos="60" len="24" vol="100"/>
          <note key="40" pan="0" pos="96" len="24" vol="100"/>
          <note key="40" pan="0" pos="132" len="24" vol="100"/>
          <note key="41" pan="0" pos="168" len="12" vol="100"/>
          <note key="40" pan="0" pos="216" len="24" vol="100"/>
          <note key="40" pan="0" pos="252" len="24" vol="100"/>
          <note key="40" pan="0" pos="288" len="24" vol="100"/>
          <note key="40" pan="0" pos="324" len="24" vol="100"/>
          <note key="41" pan="0" pos="360" len="12" vol="100"/>
          <note key="40" pan="0" pos="408" len="24" vol="100"/>
          <note key="40" pan="0" pos="444" len="24" vol="100"/>
          <note key="40" pan="0" pos="480" len="24" vol="100"/>
          <note key="40" pan="0" pos="516" len="24" vol="100"/>
          <note key="41" pan="0" pos="552" len="12" vol="100"/>
          <note key="40" pan="0" pos="576" len="24" vol="100"/>
          <note key="40" pan="0" pos="600" len="24" vol="100"/>
          <note key="40" pan="0" pos="636" len="24" vol="100"/>
          <note key="40" pan="0" pos="672" len="24" vol="100"/>
          <note key="40" pan="0" pos="708" len="24" vol="100"/>
          <note key="40" pan="0" pos="732" len="12" vol="100"/>
          <note key="41" pan="0" pos="744" len="24" vol="100"/>
          <note key="40" pan="0" pos="792" len="24" vol="100"/>
          <note key="40" pan="0" pos="828" len="24" vol="100"/>
          <note key="40" pan="0" pos="864" len="24" vol="100"/>
          <note key="40" pan="0" pos="900" len="24" vol="100"/>
          <note key="41" pan="0" pos="936" len="12" vol="100"/>
          <note key="40" pan="0" pos="984" len="24" vol="100"/>
          <note key="40" pan="0" pos="1020" len="24" vol="100"/>
          <note key="40" pan="0" pos="1056" len="24" vol="100"/>
          <note key="40" pan="0" pos="1092" len="24" vol="100"/>
          <note key="41" pan="0" pos="1128" len="12" vol="100"/>
          <note key="40" pan="0" pos="1176" len="24" vol="100"/>
          <note key="40" pan="0" pos="1212" len="24" vol="100"/>
          <note key="40" pan="0" pos="1248" len="24" vol="100"/>
          <note key="40" pan="0" pos="1284" len="24" vol="100"/>
          <note key="41" pan="0" pos="1320" len="12" vol="100"/>
          <note key="40" pan="0" pos="1344" len="24" vol="100"/>
          <note key="40" pan="0" pos="1368" len="24" vol="100"/>
          <note key="40" pan="0" pos="1404" len="24" vol="100"/>
          <note key="40" pan="0" pos="1440" len="24" vol="100"/>
          <note key="40" pan="0" pos="1476" len="24" vol="100"/>
          <note key="40" pan="0" pos="1500" len="12" vol="100"/>
          <note key="41" pan="0" pos="1512" len="24" vol="100"/>
        </pattern>
        <pattern name="Bass 2" pos="6144" muted="0" type="1" steps="16">
          <note key="40" pan="0" pos="24" len="24" vol="100"/>
          <note key="40" pan="0" pos="60" len="24" vol="100"/>
          <note key="40" pan="0" pos="96" len="24" vol="100"/>
          <note key="40" pan="0" pos="132" len="24" vol="100"/>
          <note key="41" pan="0" pos="168" len="12" vol="100"/>
          <note key="40" pan="0" pos="216" len="24" vol="100"/>
          <note key="40" pan="0" pos="252" len="24" vol="100"/>
          <note key="40" pan="0" pos="288" len="24" vol="100"/>
          <note key="40" pan="0" pos="324" len="24" vol="100"/>
          <note key="41" pan="0" pos="360" len="12" vol="100"/>
          <note key="40" pan="0" pos="408" len="24" vol="100"/>
          <note key="40" pan="0" pos="444" len="24" vol="100"/>
          <note key="40" pan="0" pos="480" len="24" vol="100"/>
          <note key="40" pan="0" pos="516" len="24" vol="100"/>
          <note key="41" pan="0" pos="552" len="12" vol="100"/>
          <note key="40" pan="0" pos="576" len="24" vol="100"/>
          <note key="40" pan="0" pos="600" len="24" vol="100"/>
          <note key="40" pan="0" pos="636" len="24" vol="100"/>
          <note key="40" pan="0" pos="672" len="24" vol="100"/>
          <note key="40" pan="0" pos="708" len="24" vol="100"/>
          <note key="40" pan="0" pos="732" len="12" vol="100"/>
          <note key="41" pan="0" pos="744" len="24" vol="100"/>
          <note key="40" pan="0" pos="792" len="24" vol="100"/>
          <note key="40" pan="0" pos="828" len="24" vol="100"/>
          <note key="40" pan="0" pos="864" len="24" vol="100"/>
          <note key="40" pan="0" pos="900" len="24" vol="100"/>
          <note key="41" pan="0" pos="936" len="12" vol="100"/>
          <note key="40" pan="0" pos="984" len="24" vol="100"/>
          <note key="40" pan="0" pos="1020" len="24" vol="100"/>
          <note key="40" pan="0" pos="1056" len="24" vol="100"/>
          <note key="40" pan="0" pos="1092" len="24" vol="100"/>
          <note key="41" pan="0" pos="1128" len="12" vol="100"/>
          <note key="40" pan="0" pos="1176" len="24" vol="100"/>
          <note key="40" pan="0" pos="1212" len="24" vol="100"/>
          <note key="40" pan="0" pos="1248" len="24" vol="100"/>
          <note key="40" pan="0" pos="1284" len="24" vol="100"/>
          <note key="41" pan="0" pos="1320" len="12" vol="100"/>
          <note key="40" pan="0" pos="1344" len="24" vol="100"/>
          <note key="40" pan="0" pos="1368" len="24" vol="100"/>
          <note key="40" pan="0" pos="1404" len="24" vol="100"/>
          <note key="40" pan="0" pos="1440" len="24" vol="100"/>
          <note key="40" pan="0" pos="1476" len="24" vol="100"/>
          <note key="40" pan="0" pos="1500" len="12" vol="100"/>
          <note key="41" pan="0" pos="1512" len="24" vol="100"/>
        </pattern>
        <pattern name="Bass 2" pos="9216" muted="0" type="1" steps="16">
          <note key="40" pan="0" pos="24" len="24" vol="100"/>
          <note key="40" pan="0" pos="60" len="24" vol="100"/>
          <note key="40" pan="0" pos="96" len="24" vol="100"/>
          <note key="40" pan="0" pos="132" len="24" vol="100"/>
          <note key="41" pan="0" pos="168" len="12" vol="100"/>
          <note key="40" pan="0" pos="216" len="24" vol="100"/>
          <note key="40" pan="0" pos="252" len="24" vol="100"/>
          <note key="40" pan="0" pos="288" len="24" vol="100"/>
          <note key="40" pan="0" pos="324" len="24" vol="100"/>
          <note key="41" pan="0" pos="360" len="12" vol="100"/>
          <note key="40" pan="0" pos="408" len="24" vol="100"/>
          <note key="40" pan="0" pos="444" len="24" vol="100"/>
          <note key="40" pan="0" pos="480" len="24" vol="100"/>
          <note key="40" pan="0" pos="516" len="24" vol="100"/>
          <note key="41" pan="0" pos="552" len="12" vol="100"/>
          <note key="40" pan="0" pos="576" len="24" vol="100"/>
          <note key="40" pan="0" pos="600" len="24" vol="100"/>
          <note key="40" pan="0" pos="636" len="24" vol="100"/>
          <note key="40" pan="0" pos="672" len="24" vol="100"/>
          <note key="40" pan="0" pos="708" len="24" vol="100"/>
          <note key="40" pan="0" pos="732" len="12" vol="100"/>
          <note key="41" pan="0" pos="744" len="24" vol="100"/>
          <note key="40" pan="0" pos="792" len="24" vol="100"/>
          <note key="40" pan="0" pos="828" len="24" vol="100"/>
          <note key="40" pan="0" pos="864" len="24" vol="100"/>
          <note key="40" pan="0" pos="900" len="24" vol="100"/>
          <note key="41" pan="0" pos="936" len="12" vol="100"/>
          <note key="40" pan="0" pos="984" len="24" vol="100"/>
          <note key="40" pan="0" pos="1020" len="24" vol="100"/>
          <note key="40" pan="0" pos="1056" len="24" vol="100"/>
          <note key="40" pan="0" pos="1092" len="24" vol="100"/>
          <note key="41" pan="0" pos="1128" len="12" vol="100"/>
          <note key="40" pan="0" pos="1176" len="24" vol="100"/>
          <note key="40" pan="0" pos="1212" len="24" vol="100"/>
          <note key="40" pan="0" pos="1248" len="24" vol="100"/>
          <note key="40" pan="0" pos="1284" len="24" vol="100"/>
          <note key="41" pan="0" pos="1320" len="12" vol="100"/>
          <note key="40" pan="0" pos="1344" len="24" vol="100"/>
          <note key="40" pan="0" pos="1368" len="24" vol="100"/>
          <note key="40" pan="0" pos="1404" len="24" vol="100"/>
          <note key="40" pan="0" pos="1440" len="24" vol="100"/>
          <note key="40" pan="0" pos="1476" len="24" vol="100"/>
          <note key="40" pan="0" pos="1500" len="12" vol="100"/>
          <note key="41" pan="0" pos="1512" len="24" vol="100"/>
        </pattern>
        <pattern name="Bass 2" pos="10752" muted="0" type="1" steps="16">
          <note key="40" pan="0" pos="24" len="24" vol="100"/>
          <note key="40" pan="0" pos="60" len="24" vol="100"/>
          <note key="40" pan="0" pos="96" len="24" vol="100"/>
          <note key="40" pan="0" pos="132" len="24" vol="100"/>
          <note key="41" pan="0" pos="168" len="12" vol="100"/>
          <note key="40" pan="0" pos="216" len="24" vol="100"/>
          <note key="40" pan="0" pos="252" len="24" vol="100"/>
          <note key="40" pan="0" pos="288" len="24" vol="100"/>
          <note key="40" pan="0" pos="324" len="24" vol="100"/>
          <note key="41" pan="0" pos="360" len="12" vol="100"/>
          <note key="40" pan="0" pos="408" len="24" vol="100"/>
          <note key="40" pan="0" pos="444" len="24" vol="100"/>
          <note key="40" pan="0" pos="480" len="24" vol="100"/>
          <note key="40" pan="0" pos="516" len="24" vol="100"/>
          <note key="41" pan="0" pos="552" len="12" vol="100"/>
          <note key="40" pan="0" pos="576" len="24" vol="100"/>
          <note key="40" pan="0" pos="600" len="24" vol="100"/>
          <note key="40" pan="0" pos="636" len="24" vol="100"/>
          <note key="40" pan="0" pos="672" len="24" vol="100"/>
          <note key="40" pan="0" pos="708" len="24" vol="100"/>
          <note key="40" pan="0" pos="732" len="12" vol="100"/>
          <note key="41" pan="0" pos="744" len="24" vol="100"/>
          <note key="40" pan="0" pos="792" len="24" vol="100"/>
          <note key="40" pan="0" pos="828" len="24" vol="100"/>
          <note key="40" pan="0" pos="864" len="24" vol="100"/>
          <note key="40" pan="0" pos="900" len="24" vol="100"/>
          <note key="41" pan="0" pos="936" len="12" vol="100"/>
          <note key="40" pan="0" pos="984" len="24" vol="100"/>
          <note key="40" pan="0" pos="1020" len="24" vol="100"/>
          <note key="40" pan="0" pos="1056" len="24" vol="100"/>
          <note key="40" pan="0" pos="1092" len="24" vol="100"/>
          <note key="41" pan="0" pos="1128" len="12" vol="100"/>
          <note key="40" pan="0" pos="1176" len="24" vol="100"/>
          <note key="40" pan="0" pos="1212" len="24" vol="100"/>
          <note key="40" pan="0" pos="1248" len="24" vol="100"/>
          <note key="40" pan="0" pos="1284" len="24" vol="100"/>
          <note key="41" pan="0" pos="1320" len="12" vol="100"/>
          <note key="40" pan="0" pos="1344" len="24" vol="100"/>
          <note key="40" pan="0" pos="1368" len="24" vol="100"/>
          <note key="40" pan="0" pos="1404" len="24" vol="100"/>
          <note key="40" pan="0" pos="1440" len="24" vol="100"/>
          <note key="40" pan="0" pos="1476" len="24" vol="100"/>
          <note key="40" pan="0" pos="1500" len="12" vol="100"/>
          <note key="41" pan="0" pos="1512" len="24" vol="100"/>
        </pattern>
        <pattern name="Bass 2" pos="12288" muted="0" type="1" steps="16">
          <note key="40" pan="0" pos="24" len="24" vol="100"/>
          <note key="40" pan="0" pos="60" len="24" vol="100"/>
          <note key="40" pan="0" pos="96" len="24" vol="100"/>
          <note key="40" pan="0" pos="132" len="24" vol="100"/>
          <note key="41" pan="0" pos="168" len="12" vol="100"/>
          <note key="40" pan="0" pos="216" len="24" vol="100"/>
          <note key="40" pan="0" pos="252" len="24" vol="100"/>
          <note key="40" pan="0" pos="288" len="24" vol="100"/>
          <note key="40" pan="0" pos="324" len="24" vol="100"/>
          <note key="41" pan="0" pos="360" len="12" vol="100"/>
          <note key="40" pan="0" pos="408" len="24" vol="100"/>
          <note key="40" pan="0" pos="444" len="24" vol="100"/>
          <note key="40" pan="0" pos="480" len="24" vol="100"/>
          <note key="40" pan="0" pos="516" len="24" vol="100"/>
          <note key="41" pan="0" pos="552" len="12" vol="100"/>
          <note key="40" pan="0" pos="576" len="24" vol="100"/>
          <note key="40" pan="0" pos="600" len="24" vol="100"/>
          <note key="40" pan="0" pos="636" len="24" vol="100"/>
          <note key="40" pan="0" pos="672" len="24" vol="100"/>
          <note key="40" pan="0" pos="708" len="24" vol="100"/>
          <note key="40" pan="0" pos="732" len="12" vol="100"/>
          <note key="41" pan="0" pos="744" len="24" vol="100"/>
          <note key="40" pan="0" pos="792" len="24" vol="100"/>
          <note key="40" pan="0" pos="828" len="24" vol="100"/>
          <note key="40" pan="0" pos="864" len="24" vol="100"/>
          <note key="40" pan="0" pos="900" len="24" vol="100"/>
          <note key="41" pan="0" pos="936" len="12" vol="100"/>
          <note key="40" pan="0" pos="984" len="24" vol="100"/>
          <note key="40" pan="0" pos="1020" len="24" vol="100"/>
          <note key="40" pan="0" pos="1056" len="24" vol="100"/>
          <note key="40" pan="0" pos="1092" len="24" vol="100"/>
          <note key="41" pan="0" pos="1128" len="12" vol="100"/>
          <note key="40" pan="0" pos="1176" len="24" vol="100"/>
          <note key="40" pan="0" pos="1212" len="24" vol="100"/>
          <note key="40" pan="0" pos="1248" len="24" vol="100"/>
          <note key="40" pan="0" pos="1284" len="24" vol="100"/>
          <note key="41" pan="0" pos="1320" len="12" vol="100"/>
          <note key="40" pan="0" pos="1344" len="24" vol="100"/>
          <note key="40" pan="0" pos="1368" len="24" vol="100"/>
          <note key="40" pan="0" pos="1404" len="24" vol="100"/>
          <note key="40" pan="0" pos="1440" len="24" vol="100"/>
          <note key="40" pan="0" pos="1476" len="24" vol="100"/>
          <note key="40" pan="0" pos="1500" len="12" vol="100"/>
          <note key="41" pan="0" pos="1512" len="24" vol="100"/>
        </pattern>
        <pattern name="Bass 2" pos="13824" muted="0" type="1" steps="16">
          <note key="40" pan="0" pos="24" len="24" vol="100"/>
          <note key="40" pan="0" pos="60" len="24" vol="100"/>
          <note key="40" pan="0" pos="96" len="24" vol="100"/>
          <note key="40" pan="0" pos="132" len="24" vol="100"/>
          <note key="41" pan="0" pos="168" len="12" vol="100"/>
          <note key="40" pan="0" pos="216" len="24" vol="100"/>
          <note key="40" pan="0" pos="252" len="24" vol="100"/>
          <note key="40" pan="0" pos="288" len="24" vol="100"/>
          <note key="40" pan="0" pos="324" len="24" vol="100"/>
          <note key="41" pan="0" pos="360" len="12" vol="100"/>
          <note key="40" pan="0" pos="408" len="24" vol="100"/>
          <note key="40" pan="0" pos="444" len="24" vol="100"/>
          <note key="40" pan="0" pos="480" len="24" vol="100"/>
          <note key="40" pan="0" pos="516" len="24" vol="100"/>
          <note key="41" pan="0" pos="552" len="12" vol="100"/>
          <note key="40" pan="0" pos="576" len="24" vol="100"/>
          <note key="40" pan="0" pos="600" len="24" vol="100"/>
          <note key="40" pan="0" pos="636" len="24" vol="100"/>
          <note key="40" pan="0" pos="672" len="24" vol="100"/>
          <note key="40" pan="0" pos="708" len="24" vol="100"/>
          <note key="40" pan="0" pos="732" len="12" vol="100"/>
          <note key="41" pan="0" pos="744" len="24" vol="100"/>
          <note key="40" pan="0" pos="792" len="24" vol="100"/>
          <note key="40" pan="0" pos="828" len="24" vol="100"/>
          <note key="40" pan="0" pos="864" len="24" vol="100"/>
          <note key="40" pan="0" pos="900" len="24" vol="100"/>
          <note key="41" pan="0" pos="936" len="12" vol="100"/>
          <note key="40" pan="0" pos="984" len="24" vol="100"/>
          <note key="40" pan="0" pos="1020" len="24" vol="100"/>
          <note key="40" pan="0" pos="1056" len="24" vol="100"/>
          <note key="40" pan="0" pos="1092" len="24" vol="100"/>
          <note key="41" pan="0" pos="1128" len="12" vol="100"/>
          <note key="40" pan="0" pos="1176" len="24" vol="100"/>
          <note key="40" pan="0" pos="1212" len="24" vol="100"/>
          <note key="40" pan="0" pos="1248" len="24" vol="100"/>
          <note key="40" pan="0" pos="1284" len="24" vol="100"/>
          <note key="41" pan="0" pos="1320" len="12" vol="100"/>
          <note key="40" pan="0" pos="1344" len="24" vol="100"/>
          <note key="40" pan="0" pos="1368" len="24" vol="100"/>
          <note key="40" pan="0" pos="1404" len="24" vol="100"/>
          <note key="40" pan="0" pos="1440" len="24" vol="100"/>
          <note key="40" pan="0" pos="1476" len="24" vol="100"/>
          <note key="40" pan="0" pos="1500" len="12" vol="100"/>
          <note key="41" pan="0" pos="1512" len="24" vol="100"/>
        </pattern>
        <pattern name="Bass 2" pos="15360" muted="0" type="1" steps="16">
          <note key="40" pan="0" pos="24" len="24" vol="100"/>
          <note key="40" pan="0" pos="60" len="24" vol="100"/>
          <note key="40" pan="0" pos="96" len="24" vol="100"/>
          <note key="40" pan="0" pos="132" len="24" vol="100"/>
          <note key="41" pan="0" pos="168" len="12" vol="100"/>
          <note key="40" pan="0" pos="216" len="24" vol="100"/>
          <note key="40" pan="0" pos="252" len="24" vol="100"/>
          <note key="40" pan="0" pos="288" len="24" vol="100"/>
          <note key="40" pan="0" pos="324" len="24" vol="100"/>
          <note key="41" pan="0" pos="360" len="12" vol="100"/>
          <note key="40" pan="0" pos="408" len="24" vol="100"/>
          <note key="40" pan="0" pos="444" len="24" vol="100"/>
          <note key="40" pan="0" pos="480" len="24" vol="100"/>
          <note key="40" pan="0" pos="516" len="24" vol="100"/>
          <note key="41" pan="0" pos="552" len="12" vol="100"/>
          <note key="40" pan="0" pos="576" len="24" vol="100"/>
          <note key="40" pan="0" pos="600" len="24" vol="100"/>
          <note key="40" pan="0" pos="636" len="24" vol="100"/>
          <note key="40" pan="0" pos="672" len="24" vol="100"/>
          <note key="40" pan="0" pos="708" len="24" vol="100"/>
          <note key="40" pan="0" pos="732" len="12" vol="100"/>
          <note key="41" pan="0" pos="744" len="24" vol="100"/>
          <note key="40" pan="0" pos="792" len="24" vol="100"/>
          <note key="40" pan="0" pos="828" len="24" vol="100"/>
          <note key="40" pan="0" pos="864" len="24" vol="100"/>
          <note key="40" pan="0" pos="900" len="24" vol="100"/>
          <note key="41" pan="0" pos="936" len="12" vol="100"/>
          <note key="40" pan="0" pos="984" len="24" vol="100"/>
          <note key="40" pan="0" pos="1020" len="24" vol="100"/>
          <note key="40" pan="0" pos="1056" len="24" vol="100"/>
          <note key="40" pan="0" pos="1092" len="24" vol="100"/>
          <note key="41" pan="0" pos="1128" len="12" vol="100"/>
          <note key="40" pan="0" pos="1176" len="24" vol="100"/>
          <note key="40" pan="0" pos="1212" len="24" vol="100"/>
          <note key="40" pan="0" pos="1248" len="24" vol="100"/>
          <note key="40" pan="0" pos="1284" len="24" vol="100"/>
          <note key="41" pan="0" pos="1320" len="12" vol="100"/>
          <note key="40" pan="0" pos="1344" len="24" vol="100"/>
          <note key="40" pan="0" pos="1368" len="24" vol="100"/>
          <note key="40" pan="0" pos="1404" len="24" vol="100"/>
          <note key="40" pan="0" pos="1440" len="24" vol="100"/>
          <note key="40" pan="0" pos="1476" len="24" vol="100"/>
          <note key="40" pan="0" pos="1500" len="12" vol="100"/>
          <note key="41" pan="0" pos="1512" len="24" vol="100"/>
        </pattern>
        <pattern name="Bass 2" pos="16896" muted="0" type="1" steps="16">
          <note key="40" pan="0" pos="24" len="24" vol="100"/>
          <note key="40" pan="0" pos="60" len="24" vol="100"/>
          <note key="40" pan="0" pos="96" len="24" vol="100"/>
          <note key="40" pan="0" pos="132" len="24" vol="100"/>
          <note key="41" pan="0" pos="168" len="12" vol="100"/>
          <note key="40" pan="0" pos="216" len="24" vol="100"/>
          <note key="40" pan="0" pos="252" len="24" vol="100"/>
          <note key="40" pan="0" pos="288" len="24" vol="100"/>
          <note key="40" pan="0" pos="324" len="24" vol="100"/>
          <note key="41" pan="0" pos="360" len="12" vol="100"/>
          <note key="40" pan="0" pos="408" len="24" vol="100"/>
          <note key="40" pan="0" pos="444" len="24" vol="100"/>
          <note key="40" pan="0" pos="480" len="24" vol="100"/>
          <note key="40" pan="0" pos="516" len="24" vol="100"/>
          <note key="41" pan="0" pos="552" len="12" vol="100"/>
          <note key="40" pan="0" pos="576" len="24" vol="100"/>
          <note key="40" pan="0" pos="600" len="24" vol="100"/>
          <note key="40" pan="0" pos="636" len="24" vol="100"/>
          <note key="40" pan="0" pos="672" len="24" vol="100"/>
          <note key="40" pan="0" pos="708" len="24" vol="100"/>
          <note key="40" pan="0" pos="732" len="12" vol="100"/>
          <note key="41" pan="0" pos="744" len="24" vol="100"/>
          <note key="40" pan="0" pos="792" len="24" vol="100"/>
          <note key="40" pan="0" pos="828" len="24" vol="100"/>
          <note key="40" pan="0" pos="864" len="24" vol="100"/>
          <note key="40" pan="0" pos="900" len="24" vol="100"/>
          <note key="41" pan="0" pos="936" len="12" vol="100"/>
          <note key="40" pan="0" pos="984" len="24" vol="100"/>
          <note key="40" pan="0" pos="1020" len="24" vol="100"/>
          <note key="40" pan="0" pos="1056" len="24" vol="100"/>
          <note key="40" pan="0" pos="1092" len="24" vol="100"/>
          <note key="41" pan="0" pos="1128" len="12" vol="100"/>
          <note key="40" pan="0" pos="1176" len="24" vol="100"/>
          <note key="40" pan="0" pos="1212" len="24" vol="100"/>
          <note key="40" pan="0" pos="1248" len="24" vol="100"/>
          <note key="40" pan="0" pos="1284" len="24" vol="100"/>
          <note key="41" pan="0" pos="1320" len="12" vol="100"/>
          <note key="40" pan="0" pos="1344" len="24" vol="100"/>
          <note key="40" pan="0" pos="1368" len="24" vol="100"/>
          <note key="40" pan="0" pos="1404" len="24" vol="100"/>
          <note key="40" pan="0" pos="1440" len="24" vol="100"/>
          <note key="40" pan="0" pos="1476" len="24" vol="100"/>
          <note key="40" pan="0" pos="1500" len="12" vol="100"/>
          <note key="41" pan="0" pos="1512" len="24" vol="100"/>
        </pattern>
        <pattern name="Bass 2" pos="18432" muted="0" type="1" steps="16">
          <note key="40" pan="0" pos="24" len="24" vol="100"/>
          <note key="40" pan="0" pos="60" len="24" vol="100"/>
          <note key="40" pan="0" pos="96" len="24" vol="100"/>
          <note key="40" pan="0" pos="132" len="24" vol="100"/>
          <note key="41" pan="0" pos="168" len="12" vol="100"/>
          <note key="40" pan="0" pos="216" len="24" vol="100"/>
          <note key="40" pan="0" pos="252" len="24" vol="100"/>
          <note key="40" pan="0" pos="288" len="24" vol="100"/>
          <note key="40" pan="0" pos="324" len="24" vol="100"/>
          <note key="41" pan="0" pos="360" len="12" vol="100"/>
          <note key="40" pan="0" pos="408" len="24" vol="100"/>
          <note key="40" pan="0" pos="444" len="24" vol="100"/>
          <note key="40" pan="0" pos="480" len="24" vol="100"/>
          <note key="40" pan="0" pos="516" len="24" vol="100"/>
          <note key="41" pan="0" pos="552" len="12" vol="100"/>
          <note key="40" pan="0" pos="576" len="24" vol="100"/>
          <note key="40" pan="0" pos="600" len="24" vol="100"/>
          <note key="40" pan="0" pos="636" len="24" vol="100"/>
          <note key="40" pan="0" pos="672" len="24" vol="100"/>
          <note key="40" pan="0" pos="708" len="24" vol="100"/>
          <note key="40" pan="0" pos="732" len="12" vol="100"/>
          <note key="41" pan="0" pos="744" len="24" vol="100"/>
          <note key="40" pan="0" pos="792" len="24" vol="100"/>
          <note key="40" pan="0" pos="828" len="24" vol="100"/>
          <note key="40" pan="0" pos="864" len="24" vol="100"/>
          <note key="40" pan="0" pos="900" len="24" vol="100"/>
          <note key="41" pan="0" pos="936" len="12" vol="100"/>
          <note key="40" pan="0" pos="984" len="24" vol="100"/>
          <note key="40" pan="0" pos="1020" len="24" vol="100"/>
          <note key="40" pan="0" pos="1056" len="24" vol="100"/>
          <note key="40" pan="0" pos="1092" len="24" vol="100"/>
          <note key="41" pan="0" pos="1128" len="12" vol="100"/>
          <note key="40" pan="0" pos="1176" len="24" vol="100"/>
          <note key="40" pan="0" pos="1212" len="24" vol="100"/>
          <note key="40" pan="0" pos="1248" len="24" vol="100"/>
          <note key="40" pan="0" pos="1284" len="24" vol="100"/>
          <note key="41" pan="0" pos="1320" len="12" vol="100"/>
          <note key="40" pan="0" pos="1344" len="24" vol="100"/>
          <note key="40" pan="0" pos="1368" len="24" vol="100"/>
          <note key="40" pan="0" pos="1404" len="24" vol="100"/>
          <note key="40" pan="0" pos="1440" len="24" vol="100"/>
          <note key="40" pan="0" pos="1476" len="24" vol="100"/>
          <note key="40" pan="0" pos="1500" len="12" vol="100"/>
          <note key="41" pan="0" pos="1512" len="24" vol="100"/>
        </pattern>
        <pattern name="Bass 2" pos="19968" muted="0" type="1" steps="16">
          <note key="28" pan="0" pos="0" len="192" vol="100"/>
        </pattern>
      </track>
      <track name="Analogue Bass" muted="0" type="0" solo="0">
        <instrumenttrack pitchrange="1" pan="0" fxch="0" basenote="57" pitch="0" vol="140" usemasterpitch="1">
          <instrument name="zynaddsubfx">
            <zynaddsubfx modifiedcontrollers="" portamento="0" filterfreq="64" resbandwidth="64" rescenterfreq="64" filterq="64" bandwidth="64" fmgain="127" forwardmidicc="1">
              <ZynAddSubFX-data version-revision="1" version-minor="4" version-major="2" ZynAddSubFX-author="Nasca Octavian Paul">
                <INFORMATION/>
                <BASE_PARAMETERS>
                  <par value="16" name="max_midi_parts"/>
                  <par value="16" name="max_kit_items_per_instrument"/>
                  <par value="4" name="max_system_effects"/>
                  <par value="8" name="max_insertion_effects"/>
                  <par value="3" name="max_instrument_effects"/>
                  <par value="8" name="max_addsynth_voices"/>
                </BASE_PARAMETERS>
                <MASTER>
                  <par value="80" name="volume"/>
                  <par value="64" name="key_shift"/>
                  <par_bool value="yes" name="nrpn_receive"/>
                  <MICROTONAL>
                    <string name="name">12tET</string>
                    <string name="comment">Equal Temperament 12 notes per octave</string>
                    <par_bool value="no" name="invert_up_down"/>
                    <par value="60" name="invert_up_down_center"/>
                    <par_bool value="no" name="enabled"/>
                    <par value="64" name="global_fine_detune"/>
                    <par value="69" name="a_note"/>
                    <par_real value="440.000000" name="a_freq"/>
                  </MICROTONAL>
                  <PART id="0">
                    <par_bool value="yes" name="enabled"/>
                    <par value="96" name="volume"/>
                    <par value="64" name="panning"/>
                    <par value="0" name="min_key"/>
                    <par value="127" name="max_key"/>
                    <par value="64" name="key_shift"/>
                    <par value="0" name="rcv_chn"/>
                    <par value="64" name="velocity_sensing"/>
                    <par value="64" name="velocity_offset"/>
                    <par_bool value="yes" name="note_on"/>
                    <par_bool value="yes" name="poly_mode"/>
                    <par value="0" name="legato_mode"/>
                    <par value="15" name="key_limit"/>
                    <INSTRUMENT>
                      <INFO>
                        <string name="name">Analogue Bass</string>
                        <string name="author"/>
                        <string name="comments"/>
                        <par value="0" name="type"/>
                      </INFO>
                      <INSTRUMENT_KIT>
                        <par value="0" name="kit_mode"/>
                        <par_bool value="no" name="drum_mode"/>
                        <INSTRUMENT_KIT_ITEM id="0">
                          <par_bool value="yes" name="enabled"/>
                          <string name="name">Analogue Bass</string>
                          <par_bool value="no" name="muted"/>
                          <par value="0" name="min_key"/>
                          <par value="127" name="max_key"/>
                          <par value="0" name="send_to_instrument_effect"/>
                          <par_bool value="yes" name="add_enabled"/>
                          <ADD_SYNTH_PARAMETERS>
                            <par_bool value="yes" name="stereo"/>
                            <AMPLITUDE_PARAMETERS>
                              <par value="80" name="volume"/>
                              <par value="64" name="panning"/>
                              <par value="64" name="velocity_sensing"/>
                              <par value="0" name="punch_strength"/>
                              <par value="60" name="punch_time"/>
                              <par value="64" name="punch_stretch"/>
                              <par value="72" name="punch_velocity_sensing"/>
                              <par value="0" name="harmonic_randomness_grouping"/>
                              <AMPLITUDE_ENVELOPE>
                                <par_bool value="no" name="free_mode"/>
                                <par value="4" name="env_points"/>
                                <par value="2" name="env_sustain"/>
                                <par value="64" name="env_stretch"/>
                                <par_bool value="yes" name="forced_release"/>
                                <par_bool value="no" name="linear_envelope"/>
                                <par value="0" name="A_dt"/>
                                <par value="40" name="D_dt"/>
                                <par value="25" name="R_dt"/>
                                <par value="64" name="A_val"/>
                                <par value="64" name="D_val"/>
                                <par value="127" name="S_val"/>
                                <par value="64" name="R_val"/>
                              </AMPLITUDE_ENVELOPE>
                              <AMPLITUDE_LFO>
                                <par_real value="0.629921" name="freq"/>
                                <par value="0" name="intensity"/>
                                <par value="64" name="start_phase"/>
                                <par value="0" name="lfo_type"/>
                                <par value="0" name="randomness_amplitude"/>
                                <par value="0" name="randomness_frequency"/>
                                <par value="0" name="delay"/>
                                <par value="64" name="stretch"/>
                                <par_bool value="no" name="continous"/>
                              </AMPLITUDE_LFO>
                            </AMPLITUDE_PARAMETERS>
                            <FREQUENCY_PARAMETERS>
                              <par value="8192" name="detune"/>
                              <par value="15360" name="coarse_detune"/>
                              <par value="1" name="detune_type"/>
                              <par value="64" name="bandwidth"/>
                              <FREQUENCY_ENVELOPE>
                                <par_bool value="no" name="free_mode"/>
                                <par value="3" name="env_points"/>
                                <par value="1" name="env_sustain"/>
                                <par value="0" name="env_stretch"/>
                                <par_bool value="no" name="forced_release"/>
                                <par_bool value="no" name="linear_envelope"/>
                                <par value="50" name="A_dt"/>
                                <par value="10" name="D_dt"/>
                                <par value="60" name="R_dt"/>
                                <par value="64" name="A_val"/>
                                <par value="64" name="D_val"/>
                                <par value="64" name="S_val"/>
                                <par value="64" name="R_val"/>
                              </FREQUENCY_ENVELOPE>
                              <FREQUENCY_LFO>
                                <par_real value="0.551181" name="freq"/>
                                <par value="30" name="intensity"/>
                                <par value="64" name="start_phase"/>
                                <par value="0" name="lfo_type"/>
                                <par value="0" name="randomness_amplitude"/>
                                <par value="0" name="randomness_frequency"/>
                                <par value="0" name="delay"/>
                                <par value="64" name="stretch"/>
                                <par_bool value="no" name="continous"/>
                              </FREQUENCY_LFO>
                            </FREQUENCY_PARAMETERS>
                            <FILTER_PARAMETERS>
                              <par value="64" name="velocity_sensing_amplitude"/>
                              <par value="64" name="velocity_sensing"/>
                              <FILTER>
                                <par value="0" name="category"/>
                                <par value="2" name="type"/>
                                <par value="43" name="freq"/>
                                <par value="58" name="q"/>
                                <par value="2" name="stages"/>
                                <par value="90" name="freq_track"/>
                                <par value="64" name="gain"/>
                              </FILTER>
                              <FILTER_ENVELOPE>
                                <par_bool value="no" name="free_mode"/>
                                <par value="4" name="env_points"/>
                                <par value="2" name="env_sustain"/>
                                <par value="0" name="env_stretch"/>
                                <par_bool value="yes" name="forced_release"/>
                                <par_bool value="no" name="linear_envelope"/>
                                <par value="50" name="A_dt"/>
                                <par value="64" name="D_dt"/>
                                <par value="60" name="R_dt"/>
                                <par value="98" name="A_val"/>
                                <par value="77" name="D_val"/>
                                <par value="64" name="S_val"/>
                                <par value="64" name="R_val"/>
                              </FILTER_ENVELOPE>
                              <FILTER_LFO>
                                <par_real value="0.629921" name="freq"/>
                                <par value="0" name="intensity"/>
                                <par value="64" name="start_phase"/>
                                <par value="0" name="lfo_type"/>
                                <par value="0" name="randomness_amplitude"/>
                                <par value="0" name="randomness_frequency"/>
                                <par value="0" name="delay"/>
                                <par value="64" name="stretch"/>
                                <par_bool value="no" name="continous"/>
                              </FILTER_LFO>
                            </FILTER_PARAMETERS>
                            <RESONANCE>
                              <par_bool value="no" name="enabled"/>
                            </RESONANCE>
                            <VOICE id="0">
                              <par_bool value="yes" name="enabled"/>
                              <par value="0" name="type"/>
                              <par value="1" name="unison_size"/>
                              <par value="60" name="unison_frequency_spread"/>
                              <par value="64" name="unison_stereo_spread"/>
                              <par value="64" name="unison_vibratto"/>
                              <par value="64" name="unison_vibratto_speed"/>
                              <par value="0" name="unison_invert_phase"/>
                              <par value="127" name="unison_phase_randomness"/>
                              <par value="0" name="delay"/>
                              <par_bool value="yes" name="resonance"/>
                              <par value="-1" name="ext_oscil"/>
                              <par value="-1" name="ext_fm_oscil"/>
                              <par value="64" name="oscil_phase"/>
                              <par value="64" name="oscil_fm_phase"/>
                              <par_bool value="no" name="filter_enabled"/>
                              <par_bool value="no" name="filter_bypass"/>
                              <par value="0" name="fm_enabled"/>
                              <OSCIL>
                                <par value="0" name="harmonic_mag_type"/>
                                <par value="4" name="base_function"/>
                                <par value="75" name="base_function_par"/>
                                <par value="0" name="base_function_modulation"/>
                                <par value="64" name="base_function_modulation_par1"/>
                                <par value="64" name="base_function_modulation_par2"/>
                                <par value="32" name="base_function_modulation_par3"/>
                                <par value="0" name="modulation"/>
                                <par value="64" name="modulation_par1"/>
                                <par value="64" name="modulation_par2"/>
                                <par value="32" name="modulation_par3"/>
                                <par value="64" name="wave_shaping"/>
                                <par value="0" name="wave_shaping_function"/>
                                <par value="0" name="filter_type"/>
                                <par value="64" name="filter_par1"/>
                                <par value="64" name="filter_par2"/>
                                <par value="0" name="filter_before_wave_shaping"/>
                                <par value="0" name="spectrum_adjust_type"/>
                                <par value="64" name="spectrum_adjust_par"/>
                                <par value="27" name="rand"/>
                                <par value="0" name="amp_rand_type"/>
                                <par value="64" name="amp_rand_power"/>
                                <par value="0" name="harmonic_shift"/>
                                <par_bool value="no" name="harmonic_shift_first"/>
                                <par value="0" name="adaptive_harmonics"/>
                                <par value="128" name="adaptive_harmonics_base_frequency"/>
                                <par value="100" name="adaptive_harmonics_power"/>
                                <HARMONICS>
                                  <HARMONIC id="1">
                                    <par value="127" name="mag"/>
                                    <par value="64" name="phase"/>
                                  </HARMONIC>
                                  <HARMONIC id="2">
                                    <par value="127" name="mag"/>
                                    <par value="64" name="phase"/>
                                  </HARMONIC>
                                </HARMONICS>
                              </OSCIL>
                              <AMPLITUDE_PARAMETERS>
                                <par value="32" name="panning"/>
                                <par value="100" name="volume"/>
                                <par_bool value="no" name="volume_minus"/>
                                <par value="127" name="velocity_sensing"/>
                                <par_bool value="no" name="amp_envelope_enabled"/>
                                <par_bool value="no" name="amp_lfo_enabled"/>
                              </AMPLITUDE_PARAMETERS>
                              <FREQUENCY_PARAMETERS>
                                <par_bool value="no" name="fixed_freq"/>
                                <par value="0" name="fixed_freq_et"/>
                                <par value="7267" name="detune"/>
                                <par value="0" name="coarse_detune"/>
                                <par value="0" name="detune_type"/>
                                <par_bool value="no" name="freq_envelope_enabled"/>
                                <par_bool value="no" name="freq_lfo_enabled"/>
                              </FREQUENCY_PARAMETERS>
                            </VOICE>
                            <VOICE id="1">
                              <par_bool value="yes" name="enabled"/>
                              <par value="0" name="type"/>
                              <par value="1" name="unison_size"/>
                              <par value="60" name="unison_frequency_spread"/>
                              <par value="64" name="unison_stereo_spread"/>
                              <par value="64" name="unison_vibratto"/>
                              <par value="64" name="unison_vibratto_speed"/>
                              <par value="0" name="unison_invert_phase"/>
                              <par value="127" name="unison_phase_randomness"/>
                              <par value="0" name="delay"/>
                              <par_bool value="yes" name="resonance"/>
                              <par value="0" name="ext_oscil"/>
                              <par value="-1" name="ext_fm_oscil"/>
                              <par value="64" name="oscil_phase"/>
                              <par value="64" name="oscil_fm_phase"/>
                              <par_bool value="no" name="filter_enabled"/>
                              <par_bool value="no" name="filter_bypass"/>
                              <par value="0" name="fm_enabled"/>
                              <OSCIL>
                                <par value="0" name="harmonic_mag_type"/>
                                <par value="0" name="base_function"/>
                                <par value="64" name="base_function_par"/>
                                <par value="0" name="base_function_modulation"/>
                                <par value="64" name="base_function_modulation_par1"/>
                                <par value="64" name="base_function_modulation_par2"/>
                                <par value="32" name="base_function_modulation_par3"/>
                                <par value="0" name="modulation"/>
                                <par value="64" name="modulation_par1"/>
                                <par value="64" name="modulation_par2"/>
                                <par value="32" name="modulation_par3"/>
                                <par value="64" name="wave_shaping"/>
                                <par value="0" name="wave_shaping_function"/>
                                <par value="0" name="filter_type"/>
                                <par value="64" name="filter_par1"/>
                                <par value="64" name="filter_par2"/>
                                <par value="0" name="filter_before_wave_shaping"/>
                                <par value="0" name="spectrum_adjust_type"/>
                                <par value="64" name="spectrum_adjust_par"/>
                                <par value="64" name="rand"/>
                                <par value="0" name="amp_rand_type"/>
                                <par value="64" name="amp_rand_power"/>
                                <par value="0" name="harmonic_shift"/>
                                <par_bool value="no" name="harmonic_shift_first"/>
                                <par value="0" name="adaptive_harmonics"/>
                                <par value="128" name="adaptive_harmonics_base_frequency"/>
                                <par value="100" name="adaptive_harmonics_power"/>
                                <HARMONICS>
                                  <HARMONIC id="1">
                                    <par value="127" name="mag"/>
                                    <par value="64" name="phase"/>
                                  </HARMONIC>
                                </HARMONICS>
                              </OSCIL>
                              <AMPLITUDE_PARAMETERS>
                                <par value="95" name="panning"/>
                                <par value="100" name="volume"/>
                                <par_bool value="no" name="volume_minus"/>
                                <par value="127" name="velocity_sensing"/>
                                <par_bool value="no" name="amp_envelope_enabled"/>
                                <par_bool value="no" name="amp_lfo_enabled"/>
                              </AMPLITUDE_PARAMETERS>
                              <FREQUENCY_PARAMETERS>
                                <par_bool value="no" name="fixed_freq"/>
                                <par value="0" name="fixed_freq_et"/>
                                <par value="9030" name="detune"/>
                                <par value="0" name="coarse_detune"/>
                                <par value="0" name="detune_type"/>
                                <par_bool value="no" name="freq_envelope_enabled"/>
                                <par_bool value="no" name="freq_lfo_enabled"/>
                              </FREQUENCY_PARAMETERS>
                            </VOICE>
                            <VOICE id="2">
                              <par_bool value="no" name="enabled"/>
                            </VOICE>
                            <VOICE id="3">
                              <par_bool value="no" name="enabled"/>
                            </VOICE>
                            <VOICE id="4">
                              <par_bool value="no" name="enabled"/>
                            </VOICE>
                            <VOICE id="5">
                              <par_bool value="no" name="enabled"/>
                            </VOICE>
                            <VOICE id="6">
                              <par_bool value="no" name="enabled"/>
                            </VOICE>
                            <VOICE id="7">
                              <par_bool value="no" name="enabled"/>
                            </VOICE>
                          </ADD_SYNTH_PARAMETERS>
                          <par_bool value="no" name="sub_enabled"/>
                          <par_bool value="no" name="pad_enabled"/>
                        </INSTRUMENT_KIT_ITEM>
                        <INSTRUMENT_KIT_ITEM id="1">
                          <par_bool value="no" name="enabled"/>
                        </INSTRUMENT_KIT_ITEM>
                        <INSTRUMENT_KIT_ITEM id="2">
                          <par_bool value="no" name="enabled"/>
                        </INSTRUMENT_KIT_ITEM>
                        <INSTRUMENT_KIT_ITEM id="3">
                          <par_bool value="no" name="enabled"/>
                        </INSTRUMENT_KIT_ITEM>
                        <INSTRUMENT_KIT_ITEM id="4">
                          <par_bool value="no" name="enabled"/>
                        </INSTRUMENT_KIT_ITEM>
                        <INSTRUMENT_KIT_ITEM id="5">
                          <par_bool value="no" name="enabled"/>
                        </INSTRUMENT_KIT_ITEM>
                        <INSTRUMENT_KIT_ITEM id="6">
                          <par_bool value="no" name="enabled"/>
                        </INSTRUMENT_KIT_ITEM>
                        <INSTRUMENT_KIT_ITEM id="7">
                          <par_bool value="no" name="enabled"/>
                        </INSTRUMENT_KIT_ITEM>
                        <INSTRUMENT_KIT_ITEM id="8">
                          <par_bool value="no" name="enabled"/>
                        </INSTRUMENT_KIT_ITEM>
                        <INSTRUMENT_KIT_ITEM id="9">
                          <par_bool value="no" name="enabled"/>
                        </INSTRUMENT_KIT_ITEM>
                        <INSTRUMENT_KIT_ITEM id="10">
                          <par_bool value="no" name="enabled"/>
                        </INSTRUMENT_KIT_ITEM>
                        <INSTRUMENT_KIT_ITEM id="11">
                          <par_bool value="no" name="enabled"/>
                        </INSTRUMENT_KIT_ITEM>
                        <INSTRUMENT_KIT_ITEM id="12">
                          <par_bool value="no" name="enabled"/>
                        </INSTRUMENT_KIT_ITEM>
                        <INSTRUMENT_KIT_ITEM id="13">
                          <par_bool value="no" name="enabled"/>
                        </INSTRUMENT_KIT_ITEM>
                        <INSTRUMENT_KIT_ITEM id="14">
                          <par_bool value="no" name="enabled"/>
                        </INSTRUMENT_KIT_ITEM>
                        <INSTRUMENT_KIT_ITEM id="15">
                          <par_bool value="no" name="enabled"/>
                        </INSTRUMENT_KIT_ITEM>
                      </INSTRUMENT_KIT>
                      <INSTRUMENT_EFFECTS>
                        <INSTRUMENT_EFFECT id="0">
                          <EFFECT>
                            <par value="0" name="type"/>
                          </EFFECT>
                          <par value="0" name="route"/>
                          <par_bool value="no" name="bypass"/>
                        </INSTRUMENT_EFFECT>
                        <INSTRUMENT_EFFECT id="1">
                          <EFFECT>
                            <par value="0" name="type"/>
                          </EFFECT>
                          <par value="0" name="route"/>
                          <par_bool value="no" name="bypass"/>
                        </INSTRUMENT_EFFECT>
                        <INSTRUMENT_EFFECT id="2">
                          <EFFECT>
                            <par value="0" name="type"/>
                          </EFFECT>
                          <par value="0" name="route"/>
                          <par_bool value="no" name="bypass"/>
                        </INSTRUMENT_EFFECT>
                      </INSTRUMENT_EFFECTS>
                    </INSTRUMENT>
                    <CONTROLLER>
                      <par value="100" name="pitchwheel_bendrange"/>
                      <par_bool value="yes" name="expression_receive"/>
                      <par value="64" name="panning_depth"/>
                      <par value="64" name="filter_cutoff_depth"/>
                      <par value="64" name="filter_q_depth"/>
                      <par value="64" name="bandwidth_depth"/>
                      <par value="80" name="mod_wheel_depth"/>
                      <par_bool value="no" name="mod_wheel_exponential"/>
                      <par_bool value="yes" name="fm_amp_receive"/>
                      <par_bool value="yes" name="volume_receive"/>
                      <par_bool value="yes" name="sustain_receive"/>
                      <par_bool value="yes" name="portamento_receive"/>
                      <par value="64" name="portamento_time"/>
                      <par value="3" name="portamento_pitchthresh"/>
                      <par value="1" name="portamento_pitchthreshtype"/>
                      <par value="0" name="portamento_portamento"/>
                      <par value="64" name="portamento_updowntimestretch"/>
                      <par value="0" name="portamento_proportional"/>
                      <par value="80" name="portamento_proprate"/>
                      <par value="90" name="portamento_propdepth"/>
                      <par value="64" name="resonance_center_depth"/>
                      <par value="64" name="resonance_bandwidth_depth"/>
                    </CONTROLLER>
                  </PART>
                  <PART id="1">
                    <par_bool value="no" name="enabled"/>
                  </PART>
                  <PART id="2">
                    <par_bool value="no" name="enabled"/>
                  </PART>
                  <PART id="3">
                    <par_bool value="no" name="enabled"/>
                  </PART>
                  <PART id="4">
                    <par_bool value="no" name="enabled"/>
                  </PART>
                  <PART id="5">
                    <par_bool value="no" name="enabled"/>
                  </PART>
                  <PART id="6">
                    <par_bool value="no" name="enabled"/>
                  </PART>
                  <PART id="7">
                    <par_bool value="no" name="enabled"/>
                  </PART>
                  <PART id="8">
                    <par_bool value="no" name="enabled"/>
                  </PART>
                  <PART id="9">
                    <par_bool value="no" name="enabled"/>
                  </PART>
                  <PART id="10">
                    <par_bool value="no" name="enabled"/>
                  </PART>
                  <PART id="11">
                    <par_bool value="no" name="enabled"/>
                  </PART>
                  <PART id="12">
                    <par_bool value="no" name="enabled"/>
                  </PART>
                  <PART id="13">
                    <par_bool value="no" name="enabled"/>
                  </PART>
                  <PART id="14">
                    <par_bool value="no" name="enabled"/>
                  </PART>
                  <PART id="15">
                    <par_bool value="no" name="enabled"/>
                  </PART>
                  <SYSTEM_EFFECTS>
                    <SYSTEM_EFFECT id="0">
                      <EFFECT>
                        <par value="0" name="type"/>
                      </EFFECT>
                      <VOLUME id="0">
                        <par value="0" name="vol"/>
                      </VOLUME>
                      <VOLUME id="1">
                        <par value="0" name="vol"/>
                      </VOLUME>
                      <VOLUME id="2">
                        <par value="0" name="vol"/>
                      </VOLUME>
                      <VOLUME id="3">
                        <par value="0" name="vol"/>
                      </VOLUME>
                      <VOLUME id="4">
                        <par value="0" name="vol"/>
                      </VOLUME>
                      <VOLUME id="5">
                        <par value="0" name="vol"/>
                      </VOLUME>
                      <VOLUME id="6">
                        <par value="0" name="vol"/>
                      </VOLUME>
                      <VOLUME id="7">
                        <par value="0" name="vol"/>
                      </VOLUME>
                      <VOLUME id="8">
                        <par value="0" name="vol"/>
                      </VOLUME>
                      <VOLUME id="9">
                        <par value="0" name="vol"/>
                      </VOLUME>
                      <VOLUME id="10">
                        <par value="0" name="vol"/>
                      </VOLUME>
                      <VOLUME id="11">
                        <par value="0" name="vol"/>
                      </VOLUME>
                      <VOLUME id="12">
                        <par value="0" name="vol"/>
                      </VOLUME>
                      <VOLUME id="13">
                        <par value="0" name="vol"/>
                      </VOLUME>
                      <VOLUME id="14">
                        <par value="0" name="vol"/>
                      </VOLUME>
                      <VOLUME id="15">
                        <par value="0" name="vol"/>
                      </VOLUME>
                      <SENDTO id="1">
                        <par value="0" name="send_vol"/>
                      </SENDTO>
                      <SENDTO id="2">
                        <par value="0" name="send_vol"/>
                      </SENDTO>
                      <SENDTO id="3">
                        <par value="0" name="send_vol"/>
                      </SENDTO>
                    </SYSTEM_EFFECT>
                    <SYSTEM_EFFECT id="1">
                      <EFFECT>
                        <par value="0" name="type"/>
                      </EFFECT>
                      <VOLUME id="0">
                        <par value="0" name="vol"/>
                      </VOLUME>
                      <VOLUME id="1">
                        <par value="0" name="vol"/>
                      </VOLUME>
                      <VOLUME id="2">
                        <par value="0" name="vol"/>
                      </VOLUME>
                      <VOLUME id="3">
                        <par value="0" name="vol"/>
                      </VOLUME>
                      <VOLUME id="4">
                        <par value="0" name="vol"/>
                      </VOLUME>
                      <VOLUME id="5">
                        <par value="0" name="vol"/>
                      </VOLUME>
                      <VOLUME id="6">
                        <par value="0" name="vol"/>
                      </VOLUME>
                      <VOLUME id="7">
                        <par value="0" name="vol"/>
                      </VOLUME>
                      <VOLUME id="8">
                        <par value="0" name="vol"/>
                      </VOLUME>
                      <VOLUME id="9">
                        <par value="0" name="vol"/>
                      </VOLUME>
                      <VOLUME id="10">
                        <par value="0" name="vol"/>
                      </VOLUME>
                      <VOLUME id="11">
                        <par value="0" name="vol"/>
                      </VOLUME>
                      <VOLUME id="12">
                        <par value="0" name="vol"/>
                      </VOLUME>
                      <VOLUME id="13">
                        <par value="0" name="vol"/>
                      </VOLUME>
                      <VOLUME id="14">
                        <par value="0" name="vol"/>
                      </VOLUME>
                      <VOLUME id="15">
                        <par value="0" name="vol"/>
                      </VOLUME>
                      <SENDTO id="2">
                        <par value="0" name="send_vol"/>
                      </SENDTO>
                      <SENDTO id="3">
                        <par value="0" name="send_vol"/>
                      </SENDTO>
                    </SYSTEM_EFFECT>
                    <SYSTEM_EFFECT id="2">
                      <EFFECT>
                        <par value="0" name="type"/>
                      </EFFECT>
                      <VOLUME id="0">
                        <par value="0" name="vol"/>
                      </VOLUME>
                      <VOLUME id="1">
                        <par value="0" name="vol"/>
                      </VOLUME>
                      <VOLUME id="2">
                        <par value="0" name="vol"/>
                      </VOLUME>
                      <VOLUME id="3">
                        <par value="0" name="vol"/>
                      </VOLUME>
                      <VOLUME id="4">
                        <par value="0" name="vol"/>
                      </VOLUME>
                      <VOLUME id="5">
                        <par value="0" name="vol"/>
                      </VOLUME>
                      <VOLUME id="6">
                        <par value="0" name="vol"/>
                      </VOLUME>
                      <VOLUME id="7">
                        <par value="0" name="vol"/>
                      </VOLUME>
                      <VOLUME id="8">
                        <par value="0" name="vol"/>
                      </VOLUME>
                      <VOLUME id="9">
                        <par value="0" name="vol"/>
                      </VOLUME>
                      <VOLUME id="10">
                        <par value="0" name="vol"/>
                      </VOLUME>
                      <VOLUME id="11">
                        <par value="0" name="vol"/>
                      </VOLUME>
                      <VOLUME id="12">
                        <par value="0" name="vol"/>
                      </VOLUME>
                      <VOLUME id="13">
                        <par value="0" name="vol"/>
                      </VOLUME>
                      <VOLUME id="14">
                        <par value="0" name="vol"/>
                      </VOLUME>
                      <VOLUME id="15">
                        <par value="0" name="vol"/>
                      </VOLUME>
                      <SENDTO id="3">
                        <par value="0" name="send_vol"/>
                      </SENDTO>
                    </SYSTEM_EFFECT>
                    <SYSTEM_EFFECT id="3">
                      <EFFECT>
                        <par value="0" name="type"/>
                      </EFFECT>
                      <VOLUME id="0">
                        <par value="0" name="vol"/>
                      </VOLUME>
                      <VOLUME id="1">
                        <par value="0" name="vol"/>
                      </VOLUME>
                      <VOLUME id="2">
                        <par value="0" name="vol"/>
                      </VOLUME>
                      <VOLUME id="3">
                        <par value="0" name="vol"/>
                      </VOLUME>
                      <VOLUME id="4">
                        <par value="0" name="vol"/>
                      </VOLUME>
                      <VOLUME id="5">
                        <par value="0" name="vol"/>
                      </VOLUME>
                      <VOLUME id="6">
                        <par value="0" name="vol"/>
                      </VOLUME>
                      <VOLUME id="7">
                        <par value="0" name="vol"/>
                      </VOLUME>
                      <VOLUME id="8">
                        <par value="0" name="vol"/>
                      </VOLUME>
                      <VOLUME id="9">
                        <par value="0" name="vol"/>
                      </VOLUME>
                      <VOLUME id="10">
                        <par value="0" name="vol"/>
                      </VOLUME>
                      <VOLUME id="11">
                        <par value="0" name="vol"/>
                      </VOLUME>
                      <VOLUME id="12">
                        <par value="0" name="vol"/>
                      </VOLUME>
                      <VOLUME id="13">
                        <par value="0" name="vol"/>
                      </VOLUME>
                      <VOLUME id="14">
                        <par value="0" name="vol"/>
                      </VOLUME>
                      <VOLUME id="15">
                        <par value="0" name="vol"/>
                      </VOLUME>
                    </SYSTEM_EFFECT>
                  </SYSTEM_EFFECTS>
                  <INSERTION_EFFECTS>
                    <INSERTION_EFFECT id="0">
                      <par value="-1" name="part"/>
                      <EFFECT>
                        <par value="0" name="type"/>
                      </EFFECT>
                    </INSERTION_EFFECT>
                    <INSERTION_EFFECT id="1">
                      <par value="-1" name="part"/>
                      <EFFECT>
                        <par value="0" name="type"/>
                      </EFFECT>
                    </INSERTION_EFFECT>
                    <INSERTION_EFFECT id="2">
                      <par value="-1" name="part"/>
                      <EFFECT>
                        <par value="0" name="type"/>
                      </EFFECT>
                    </INSERTION_EFFECT>
                    <INSERTION_EFFECT id="3">
                      <par value="-1" name="part"/>
                      <EFFECT>
                        <par value="0" name="type"/>
                      </EFFECT>
                    </INSERTION_EFFECT>
                    <INSERTION_EFFECT id="4">
                      <par value="-1" name="part"/>
                      <EFFECT>
                        <par value="0" name="type"/>
                      </EFFECT>
                    </INSERTION_EFFECT>
                    <INSERTION_EFFECT id="5">
                      <par value="-1" name="part"/>
                      <EFFECT>
                        <par value="0" name="type"/>
                      </EFFECT>
                    </INSERTION_EFFECT>
                    <INSERTION_EFFECT id="6">
                      <par value="-1" name="part"/>
                      <EFFECT>
                        <par value="0" name="type"/>
                      </EFFECT>
                    </INSERTION_EFFECT>
                    <INSERTION_EFFECT id="7">
                      <par value="-1" name="part"/>
                      <EFFECT>
                        <par value="0" name="type"/>
                      </EFFECT>
                    </INSERTION_EFFECT>
                  </INSERTION_EFFECTS>
                </MASTER>
              </ZynAddSubFX-data>
            </zynaddsubfx>
          </instrument>
          <eldata fcut="14000" ftype="0" fwet="0" fres="0.5">
            <elvol dec="0.5" ctlenvamt="0" latt="0" sustain="0.5" amt="0" lamt="0" pdel="0" rel="0.1" lshp="0" lpdel="0" hold="0.5" lspd_numerator="4" lspd_denominator="4" att="0" x100="0" lspd="0.1" lspd_syncmode="0" userwavefile=""/>
            <elcut dec="0.5" ctlenvamt="0" latt="0" sustain="0.5" amt="0" lamt="0" pdel="0" rel="0.1" lshp="0" lpdel="0" hold="0.5" lspd_numerator="4" lspd_denominator="4" att="0" x100="0" lspd="0.1" lspd_syncmode="0" userwavefile=""/>
            <elres dec="0.5" ctlenvamt="0" latt="0" sustain="0.5" amt="0" lamt="0" pdel="0" rel="0.1" lshp="0" lpdel="0" hold="0.5" lspd_numerator="4" lspd_denominator="4" att="0" x100="0" lspd="0.1" lspd_syncmode="0" userwavefile=""/>
          </eldata>
          <chordcreator chordrange="1" chord-enabled="0" chord="0"/>
          <arpeggiator arptime="200" arptime_syncmode="0" arpmode="0" arptime_numerator="4" arptime_denominator="4" arpdir="0" arpgate="100" arprange="1" arp-enabled="0" arpmiss="0" arp="0" arpcycle="0" arpskip="0"/>
          <midiport inputcontroller="0" fixedoutputnote="-1" writable="0" basevelocity="63" outputprogram="1" outputcontroller="0" fixedinputvelocity="-1" outputchannel="1" fixedoutputvelocity="-1" readable="0" inputchannel="0"/>
          <fxchain numofeffects="0" enabled="0"/>
        </instrumenttrack>
        <pattern name="" pos="7680" muted="0" type="1" steps="16">
          <note key="40" pan="0" pos="0" len="24" vol="100"/>
          <note key="40" pan="0" pos="36" len="24" vol="100"/>
          <note key="40" pan="0" pos="72" len="24" vol="100"/>
          <note key="40" pan="0" pos="108" len="24" vol="100"/>
          <note key="40" pan="0" pos="144" len="12" vol="100"/>
          <note key="41" pan="0" pos="168" len="24" vol="136"/>
          <note key="40" pan="0" pos="192" len="24" vol="100"/>
          <note key="40" pan="0" pos="228" len="24" vol="100"/>
          <note key="40" pan="0" pos="264" len="24" vol="100"/>
          <note key="40" pan="0" pos="300" len="24" vol="100"/>
          <note key="40" pan="0" pos="336" len="12" vol="100"/>
          <note key="41" pan="0" pos="360" len="24" vol="136"/>
          <note key="40" pan="0" pos="384" len="24" vol="100"/>
          <note key="40" pan="0" pos="420" len="24" vol="100"/>
          <note key="40" pan="0" pos="456" len="24" vol="100"/>
          <note key="40" pan="0" pos="492" len="24" vol="100"/>
          <note key="40" pan="0" pos="528" len="12" vol="100"/>
          <note key="41" pan="0" pos="552" len="24" vol="138"/>
          <note key="40" pan="0" pos="576" len="24" vol="100"/>
          <note key="40" pan="0" pos="612" len="24" vol="100"/>
          <note key="40" pan="0" pos="648" len="24" vol="100"/>
          <note key="40" pan="0" pos="684" len="24" vol="100"/>
          <note key="40" pan="0" pos="720" len="12" vol="100"/>
          <note key="41" pan="0" pos="744" len="24" vol="136"/>
          <note key="40" pan="0" pos="768" len="24" vol="100"/>
          <note key="40" pan="0" pos="804" len="24" vol="100"/>
          <note key="40" pan="0" pos="840" len="24" vol="100"/>
          <note key="40" pan="0" pos="876" len="24" vol="100"/>
          <note key="40" pan="0" pos="912" len="12" vol="100"/>
          <note key="41" pan="0" pos="936" len="24" vol="136"/>
          <note key="40" pan="0" pos="960" len="24" vol="100"/>
          <note key="40" pan="0" pos="996" len="24" vol="100"/>
          <note key="40" pan="0" pos="1032" len="24" vol="100"/>
          <note key="40" pan="0" pos="1068" len="24" vol="100"/>
          <note key="40" pan="0" pos="1104" len="12" vol="100"/>
          <note key="41" pan="0" pos="1128" len="24" vol="136"/>
          <note key="40" pan="0" pos="1152" len="24" vol="100"/>
          <note key="40" pan="0" pos="1188" len="24" vol="100"/>
          <note key="40" pan="0" pos="1224" len="24" vol="100"/>
          <note key="40" pan="0" pos="1260" len="24" vol="100"/>
          <note key="40" pan="0" pos="1296" len="12" vol="100"/>
          <note key="41" pan="0" pos="1320" len="24" vol="138"/>
          <note key="40" pan="0" pos="1344" len="24" vol="100"/>
          <note key="40" pan="0" pos="1380" len="24" vol="100"/>
          <note key="40" pan="0" pos="1416" len="24" vol="100"/>
          <note key="40" pan="0" pos="1452" len="24" vol="100"/>
          <note key="40" pan="0" pos="1488" len="12" vol="100"/>
          <note key="41" pan="0" pos="1512" len="24" vol="136"/>
        </pattern>
        <pattern name="" pos="9216" muted="0" type="1" steps="16">
          <note key="40" pan="0" pos="0" len="24" vol="100"/>
          <note key="40" pan="0" pos="36" len="24" vol="100"/>
          <note key="40" pan="0" pos="72" len="24" vol="100"/>
          <note key="40" pan="0" pos="108" len="24" vol="100"/>
          <note key="40" pan="0" pos="144" len="12" vol="100"/>
          <note key="41" pan="0" pos="168" len="24" vol="136"/>
          <note key="40" pan="0" pos="192" len="24" vol="100"/>
          <note key="40" pan="0" pos="228" len="24" vol="100"/>
          <note key="40" pan="0" pos="264" len="24" vol="100"/>
          <note key="40" pan="0" pos="300" len="24" vol="100"/>
          <note key="40" pan="0" pos="336" len="12" vol="100"/>
          <note key="41" pan="0" pos="360" len="24" vol="136"/>
          <note key="40" pan="0" pos="384" len="24" vol="100"/>
          <note key="40" pan="0" pos="420" len="24" vol="100"/>
          <note key="40" pan="0" pos="456" len="24" vol="100"/>
          <note key="40" pan="0" pos="492" len="24" vol="100"/>
          <note key="40" pan="0" pos="528" len="12" vol="100"/>
          <note key="41" pan="0" pos="552" len="24" vol="138"/>
          <note key="40" pan="0" pos="576" len="24" vol="100"/>
          <note key="40" pan="0" pos="612" len="24" vol="100"/>
          <note key="40" pan="0" pos="648" len="24" vol="100"/>
          <note key="40" pan="0" pos="684" len="24" vol="100"/>
          <note key="40" pan="0" pos="720" len="12" vol="100"/>
          <note key="41" pan="0" pos="744" len="24" vol="136"/>
          <note key="40" pan="0" pos="768" len="24" vol="100"/>
          <note key="40" pan="0" pos="804" len="24" vol="100"/>
          <note key="40" pan="0" pos="840" len="24" vol="100"/>
          <note key="40" pan="0" pos="876" len="24" vol="100"/>
          <note key="40" pan="0" pos="912" len="12" vol="100"/>
          <note key="41" pan="0" pos="936" len="24" vol="136"/>
          <note key="40" pan="0" pos="960" len="24" vol="100"/>
          <note key="40" pan="0" pos="996" len="24" vol="100"/>
          <note key="40" pan="0" pos="1032" len="24" vol="100"/>
          <note key="40" pan="0" pos="1068" len="24" vol="100"/>
          <note key="40" pan="0" pos="1104" len="12" vol="100"/>
          <note key="41" pan="0" pos="1128" len="24" vol="136"/>
          <note key="40" pan="0" pos="1152" len="24" vol="100"/>
          <note key="40" pan="0" pos="1188" len="24" vol="100"/>
          <note key="40" pan="0" pos="1224" len="24" vol="100"/>
          <note key="40" pan="0" pos="1260" len="24" vol="100"/>
          <note key="40" pan="0" pos="1296" len="12" vol="100"/>
          <note key="41" pan="0" pos="1320" len="24" vol="138"/>
          <note key="40" pan="0" pos="1344" len="24" vol="100"/>
          <note key="40" pan="0" pos="1380" len="24" vol="100"/>
          <note key="40" pan="0" pos="1416" len="24" vol="100"/>
          <note key="40" pan="0" pos="1452" len="24" vol="100"/>
          <note key="40" pan="0" pos="1488" len="12" vol="100"/>
          <note key="41" pan="0" pos="1512" len="24" vol="136"/>
        </pattern>
        <pattern name="" pos="10752" muted="0" type="1" steps="16">
          <note key="40" pan="0" pos="0" len="24" vol="100"/>
          <note key="40" pan="0" pos="36" len="24" vol="100"/>
          <note key="40" pan="0" pos="72" len="24" vol="100"/>
          <note key="40" pan="0" pos="108" len="24" vol="100"/>
          <note key="40" pan="0" pos="144" len="12" vol="100"/>
          <note key="41" pan="0" pos="168" len="24" vol="136"/>
          <note key="40" pan="0" pos="192" len="24" vol="100"/>
          <note key="40" pan="0" pos="228" len="24" vol="100"/>
          <note key="40" pan="0" pos="264" len="24" vol="100"/>
          <note key="40" pan="0" pos="300" len="24" vol="100"/>
          <note key="40" pan="0" pos="336" len="12" vol="100"/>
          <note key="41" pan="0" pos="360" len="24" vol="136"/>
          <note key="40" pan="0" pos="384" len="24" vol="100"/>
          <note key="40" pan="0" pos="420" len="24" vol="100"/>
          <note key="40" pan="0" pos="456" len="24" vol="100"/>
          <note key="40" pan="0" pos="492" len="24" vol="100"/>
          <note key="40" pan="0" pos="528" len="12" vol="100"/>
          <note key="41" pan="0" pos="552" len="24" vol="138"/>
          <note key="40" pan="0" pos="576" len="24" vol="100"/>
          <note key="40" pan="0" pos="612" len="24" vol="100"/>
          <note key="40" pan="0" pos="648" len="24" vol="100"/>
          <note key="40" pan="0" pos="684" len="24" vol="100"/>
          <note key="40" pan="0" pos="720" len="12" vol="100"/>
          <note key="41" pan="0" pos="744" len="24" vol="136"/>
          <note key="40" pan="0" pos="768" len="24" vol="100"/>
          <note key="40" pan="0" pos="804" len="24" vol="100"/>
          <note key="40" pan="0" pos="840" len="24" vol="100"/>
          <note key="40" pan="0" pos="876" len="24" vol="100"/>
          <note key="40" pan="0" pos="912" len="12" vol="100"/>
          <note key="41" pan="0" pos="936" len="24" vol="136"/>
          <note key="40" pan="0" pos="960" len="24" vol="100"/>
          <note key="40" pan="0" pos="996" len="24" vol="100"/>
          <note key="40" pan="0" pos="1032" len="24" vol="100"/>
          <note key="40" pan="0" pos="1068" len="24" vol="100"/>
          <note key="40" pan="0" pos="1104" len="12" vol="100"/>
          <note key="41" pan="0" pos="1128" len="24" vol="136"/>
          <note key="40" pan="0" pos="1152" len="24" vol="100"/>
          <note key="40" pan="0" pos="1188" len="24" vol="100"/>
          <note key="40" pan="0" pos="1224" len="24" vol="100"/>
          <note key="40" pan="0" pos="1260" len="24" vol="100"/>
          <note key="40" pan="0" pos="1296" len="12" vol="100"/>
          <note key="41" pan="0" pos="1320" len="24" vol="138"/>
          <note key="40" pan="0" pos="1344" len="24" vol="100"/>
          <note key="40" pan="0" pos="1380" len="24" vol="100"/>
          <note key="40" pan="0" pos="1416" len="24" vol="100"/>
          <note key="40" pan="0" pos="1452" len="24" vol="100"/>
          <note key="40" pan="0" pos="1488" len="12" vol="100"/>
          <note key="41" pan="0" pos="1512" len="24" vol="136"/>
        </pattern>
        <pattern name="" pos="12288" muted="0" type="1" steps="16">
          <note key="40" pan="0" pos="0" len="24" vol="100"/>
          <note key="40" pan="0" pos="36" len="24" vol="100"/>
          <note key="40" pan="0" pos="72" len="24" vol="100"/>
          <note key="40" pan="0" pos="108" len="24" vol="100"/>
          <note key="40" pan="0" pos="144" len="12" vol="100"/>
          <note key="41" pan="0" pos="168" len="24" vol="136"/>
          <note key="40" pan="0" pos="192" len="24" vol="100"/>
          <note key="40" pan="0" pos="228" len="24" vol="100"/>
          <note key="40" pan="0" pos="264" len="24" vol="100"/>
          <note key="40" pan="0" pos="300" len="24" vol="100"/>
          <note key="40" pan="0" pos="336" len="12" vol="100"/>
          <note key="41" pan="0" pos="360" len="24" vol="136"/>
          <note key="40" pan="0" pos="384" len="24" vol="100"/>
          <note key="40" pan="0" pos="420" len="24" vol="100"/>
          <note key="40" pan="0" pos="456" len="24" vol="100"/>
          <note key="40" pan="0" pos="492" len="24" vol="100"/>
          <note key="40" pan="0" pos="528" len="12" vol="100"/>
          <note key="41" pan="0" pos="552" len="24" vol="138"/>
          <note key="40" pan="0" pos="576" len="24" vol="100"/>
          <note key="40" pan="0" pos="612" len="24" vol="100"/>
          <note key="40" pan="0" pos="648" len="24" vol="100"/>
          <note key="40" pan="0" pos="684" len="24" vol="100"/>
          <note key="40" pan="0" pos="720" len="12" vol="100"/>
          <note key="41" pan="0" pos="744" len="24" vol="136"/>
          <note key="40" pan="0" pos="768" len="24" vol="100"/>
          <note key="40" pan="0" pos="804" len="24" vol="100"/>
          <note key="40" pan="0" pos="840" len="24" vol="100"/>
          <note key="40" pan="0" pos="876" len="24" vol="100"/>
          <note key="40" pan="0" pos="912" len="12" vol="100"/>
          <note key="41" pan="0" pos="936" len="24" vol="136"/>
          <note key="40" pan="0" pos="960" len="24" vol="100"/>
          <note key="40" pan="0" pos="996" len="24" vol="100"/>
          <note key="40" pan="0" pos="1032" len="24" vol="100"/>
          <note key="40" pan="0" pos="1068" len="24" vol="100"/>
          <note key="40" pan="0" pos="1104" len="12" vol="100"/>
          <note key="41" pan="0" pos="1128" len="24" vol="136"/>
          <note key="40" pan="0" pos="1152" len="24" vol="100"/>
          <note key="40" pan="0" pos="1188" len="24" vol="100"/>
          <note key="40" pan="0" pos="1224" len="24" vol="100"/>
          <note key="40" pan="0" pos="1260" len="24" vol="100"/>
          <note key="40" pan="0" pos="1296" len="12" vol="100"/>
          <note key="41" pan="0" pos="1320" len="24" vol="138"/>
          <note key="40" pan="0" pos="1344" len="24" vol="100"/>
          <note key="40" pan="0" pos="1380" len="24" vol="100"/>
          <note key="40" pan="0" pos="1416" len="24" vol="100"/>
          <note key="40" pan="0" pos="1452" len="24" vol="100"/>
          <note key="40" pan="0" pos="1488" len="12" vol="100"/>
          <note key="41" pan="0" pos="1512" len="24" vol="136"/>
        </pattern>
        <pattern name="" pos="19968" muted="0" type="1" steps="16">
          <note key="28" pan="0" pos="0" len="192" vol="100"/>
        </pattern>
        <pattern name="" pos="18432" muted="0" type="1" steps="16">
          <note key="40" pan="0" pos="0" len="24" vol="100"/>
          <note key="40" pan="0" pos="36" len="24" vol="100"/>
          <note key="40" pan="0" pos="72" len="24" vol="100"/>
          <note key="40" pan="0" pos="108" len="24" vol="100"/>
          <note key="40" pan="0" pos="144" len="12" vol="100"/>
          <note key="41" pan="0" pos="168" len="24" vol="136"/>
          <note key="40" pan="0" pos="192" len="24" vol="100"/>
          <note key="40" pan="0" pos="228" len="24" vol="100"/>
          <note key="40" pan="0" pos="264" len="24" vol="100"/>
          <note key="40" pan="0" pos="300" len="24" vol="100"/>
          <note key="40" pan="0" pos="336" len="12" vol="100"/>
          <note key="41" pan="0" pos="360" len="24" vol="136"/>
          <note key="40" pan="0" pos="384" len="24" vol="100"/>
          <note key="40" pan="0" pos="420" len="24" vol="100"/>
          <note key="40" pan="0" pos="456" len="24" vol="100"/>
          <note key="40" pan="0" pos="492" len="24" vol="100"/>
          <note key="40" pan="0" pos="528" len="12" vol="100"/>
          <note key="41" pan="0" pos="552" len="24" vol="138"/>
          <note key="40" pan="0" pos="576" len="24" vol="100"/>
          <note key="40" pan="0" pos="612" len="24" vol="100"/>
          <note key="40" pan="0" pos="648" len="24" vol="100"/>
          <note key="40" pan="0" pos="684" len="24" vol="100"/>
          <note key="40" pan="0" pos="720" len="12" vol="100"/>
          <note key="41" pan="0" pos="744" len="24" vol="136"/>
          <note key="40" pan="0" pos="768" len="24" vol="100"/>
          <note key="40" pan="0" pos="804" len="24" vol="100"/>
          <note key="40" pan="0" pos="840" len="24" vol="100"/>
          <note key="40" pan="0" pos="876" len="24" vol="100"/>
          <note key="40" pan="0" pos="912" len="12" vol="100"/>
          <note key="41" pan="0" pos="936" len="24" vol="136"/>
          <note key="40" pan="0" pos="960" len="24" vol="100"/>
          <note key="40" pan="0" pos="996" len="24" vol="100"/>
          <note key="40" pan="0" pos="1032" len="24" vol="100"/>
          <note key="40" pan="0" pos="1068" len="24" vol="100"/>
          <note key="40" pan="0" pos="1104" len="12" vol="100"/>
          <note key="41" pan="0" pos="1128" len="24" vol="136"/>
          <note key="40" pan="0" pos="1152" len="24" vol="100"/>
          <note key="40" pan="0" pos="1188" len="24" vol="100"/>
          <note key="40" pan="0" pos="1224" len="24" vol="100"/>
          <note key="40" pan="0" pos="1260" len="24" vol="100"/>
          <note key="40" pan="0" pos="1296" len="12" vol="100"/>
          <note key="41" pan="0" pos="1320" len="24" vol="138"/>
          <note key="40" pan="0" pos="1344" len="24" vol="100"/>
          <note key="40" pan="0" pos="1380" len="24" vol="100"/>
          <note key="40" pan="0" pos="1416" len="24" vol="100"/>
          <note key="40" pan="0" pos="1452" len="24" vol="100"/>
          <note key="40" pan="0" pos="1488" len="12" vol="100"/>
          <note key="41" pan="0" pos="1512" len="24" vol="136"/>
        </pattern>
      </track>
      <track name="Wah Bass" muted="0" type="0" solo="0">
        <instrumenttrack pitchrange="1" pan="0" fxch="0" basenote="57" pitch="0" usemasterpitch="1">
          <vol value="65" scale_type="linear" id="1669098"/>
          <instrument name="zynaddsubfx">
            <zynaddsubfx modifiedcontrollers="74,76,77," portamento="0" resbandwidth="64" rescenterfreq="85" filterq="64" bandwidth="64" fmgain="117" forwardmidicc="1">
              <filterfreq value="118.42448" scale_type="linear" id="4735138"/>
              <ZynAddSubFX-data version-revision="1" version-minor="4" version-major="2" ZynAddSubFX-author="Nasca Octavian Paul">
                <INFORMATION/>
                <BASE_PARAMETERS>
                  <par value="16" name="max_midi_parts"/>
                  <par value="16" name="max_kit_items_per_instrument"/>
                  <par value="4" name="max_system_effects"/>
                  <par value="8" name="max_insertion_effects"/>
                  <par value="3" name="max_instrument_effects"/>
                  <par value="8" name="max_addsynth_voices"/>
                </BASE_PARAMETERS>
                <MASTER>
                  <par value="80" name="volume"/>
                  <par value="64" name="key_shift"/>
                  <par_bool value="yes" name="nrpn_receive"/>
                  <MICROTONAL>
                    <string name="name">12tET</string>
                    <string name="comment">Equal Temperament 12 notes per octave</string>
                    <par_bool value="no" name="invert_up_down"/>
                    <par value="60" name="invert_up_down_center"/>
                    <par_bool value="no" name="enabled"/>
                    <par value="64" name="global_fine_detune"/>
                    <par value="69" name="a_note"/>
                    <par_real value="440.000000" name="a_freq"/>
                  </MICROTONAL>
                  <PART id="0">
                    <par_bool value="yes" name="enabled"/>
                    <par value="96" name="volume"/>
                    <par value="64" name="panning"/>
                    <par value="0" name="min_key"/>
                    <par value="127" name="max_key"/>
                    <par value="64" name="key_shift"/>
                    <par value="0" name="rcv_chn"/>
                    <par value="64" name="velocity_sensing"/>
                    <par value="64" name="velocity_offset"/>
                    <par_bool value="yes" name="note_on"/>
                    <par_bool value="yes" name="poly_mode"/>
                    <par value="0" name="legato_mode"/>
                    <par value="15" name="key_limit"/>
                    <INSTRUMENT>
                      <INFO>
                        <string name="name">Wah Bass</string>
                        <string name="author"/>
                        <string name="comments"/>
                        <par value="0" name="type"/>
                      </INFO>
                      <INSTRUMENT_KIT>
                        <par value="0" name="kit_mode"/>
                        <par_bool value="no" name="drum_mode"/>
                        <INSTRUMENT_KIT_ITEM id="0">
                          <par_bool value="yes" name="enabled"/>
                          <string name="name">Wah Bass</string>
                          <par_bool value="no" name="muted"/>
                          <par value="0" name="min_key"/>
                          <par value="127" name="max_key"/>
                          <par value="0" name="send_to_instrument_effect"/>
                          <par_bool value="yes" name="add_enabled"/>
                          <ADD_SYNTH_PARAMETERS>
                            <par_bool value="yes" name="stereo"/>
                            <AMPLITUDE_PARAMETERS>
                              <par value="79" name="volume"/>
                              <par value="64" name="panning"/>
                              <par value="96" name="velocity_sensing"/>
                              <par value="0" name="punch_strength"/>
                              <par value="60" name="punch_time"/>
                              <par value="64" name="punch_stretch"/>
                              <par value="72" name="punch_velocity_sensing"/>
                              <par value="0" name="harmonic_randomness_grouping"/>
                              <AMPLITUDE_ENVELOPE>
                                <par_bool value="no" name="free_mode"/>
                                <par value="4" name="env_points"/>
                                <par value="2" name="env_sustain"/>
                                <par value="55" name="env_stretch"/>
                                <par_bool value="yes" name="forced_release"/>
                                <par_bool value="no" name="linear_envelope"/>
                                <par value="1" name="A_dt"/>
                                <par value="75" name="D_dt"/>
                                <par value="25" name="R_dt"/>
                                <par value="64" name="A_val"/>
                                <par value="64" name="D_val"/>
                                <par value="122" name="S_val"/>
                                <par value="64" name="R_val"/>
                              </AMPLITUDE_ENVELOPE>
                              <AMPLITUDE_LFO>
                                <par_real value="0.629921" name="freq"/>
                                <par value="0" name="intensity"/>
                                <par value="64" name="start_phase"/>
                                <par value="0" name="lfo_type"/>
                                <par value="0" name="randomness_amplitude"/>
                                <par value="0" name="randomness_frequency"/>
                                <par value="0" name="delay"/>
                                <par value="64" name="stretch"/>
                                <par_bool value="no" name="continous"/>
                              </AMPLITUDE_LFO>
                            </AMPLITUDE_PARAMETERS>
                            <FREQUENCY_PARAMETERS>
                              <par value="8192" name="detune"/>
                              <par value="0" name="coarse_detune"/>
                              <par value="1" name="detune_type"/>
                              <par value="64" name="bandwidth"/>
                              <FREQUENCY_ENVELOPE>
                                <par_bool value="no" name="free_mode"/>
                                <par value="3" name="env_points"/>
                                <par value="1" name="env_sustain"/>
                                <par value="0" name="env_stretch"/>
                                <par_bool value="no" name="forced_release"/>
                                <par_bool value="no" name="linear_envelope"/>
                                <par value="6" name="A_dt"/>
                                <par value="10" name="D_dt"/>
                                <par value="60" name="R_dt"/>
                                <par value="62" name="A_val"/>
                                <par value="64" name="D_val"/>
                                <par value="64" name="S_val"/>
                                <par value="64" name="R_val"/>
                              </FREQUENCY_ENVELOPE>
                              <FREQUENCY_LFO>
                                <par_real value="0.551181" name="freq"/>
                                <par value="0" name="intensity"/>
                                <par value="64" name="start_phase"/>
                                <par value="0" name="lfo_type"/>
                                <par value="0" name="randomness_amplitude"/>
                                <par value="0" name="randomness_frequency"/>
                                <par value="0" name="delay"/>
                                <par value="64" name="stretch"/>
                                <par_bool value="no" name="continous"/>
                              </FREQUENCY_LFO>
                            </FREQUENCY_PARAMETERS>
                            <FILTER_PARAMETERS>
                              <par value="27" name="velocity_sensing_amplitude"/>
                              <par value="64" name="velocity_sensing"/>
                              <FILTER>
                                <par value="0" name="category"/>
                                <par value="2" name="type"/>
                                <par value="44" name="freq"/>
                                <par value="69" name="q"/>
                                <par value="2" name="stages"/>
                                <par value="64" name="freq_track"/>
                                <par value="64" name="gain"/>
                              </FILTER>
                              <FILTER_ENVELOPE>
                                <par_bool value="no" name="free_mode"/>
                                <par value="4" name="env_points"/>
                                <par value="2" name="env_sustain"/>
                                <par value="0" name="env_stretch"/>
                                <par_bool value="yes" name="forced_release"/>
                                <par_bool value="no" name="linear_envelope"/>
                                <par value="38" name="A_dt"/>
                                <par value="60" name="D_dt"/>
                                <par value="60" name="R_dt"/>
                                <par value="50" name="A_val"/>
                                <par value="83" name="D_val"/>
                                <par value="64" name="S_val"/>
                                <par value="64" name="R_val"/>
                              </FILTER_ENVELOPE>
                              <FILTER_LFO>
                                <par_real value="0.629921" name="freq"/>
                                <par value="0" name="intensity"/>
                                <par value="64" name="start_phase"/>
                                <par value="0" name="lfo_type"/>
                                <par value="0" name="randomness_amplitude"/>
                                <par value="0" name="randomness_frequency"/>
                                <par value="0" name="delay"/>
                                <par value="64" name="stretch"/>
                                <par_bool value="no" name="continous"/>
                              </FILTER_LFO>
                            </FILTER_PARAMETERS>
                            <RESONANCE>
                              <par_bool value="no" name="enabled"/>
                            </RESONANCE>
                            <VOICE id="0">
                              <par_bool value="yes" name="enabled"/>
                              <par value="0" name="type"/>
                              <par value="1" name="unison_size"/>
                              <par value="60" name="unison_frequency_spread"/>
                              <par value="64" name="unison_stereo_spread"/>
                              <par value="64" name="unison_vibratto"/>
                              <par value="64" name="unison_vibratto_speed"/>
                              <par value="0" name="unison_invert_phase"/>
                              <par value="127" name="unison_phase_randomness"/>
                              <par value="0" name="delay"/>
                              <par_bool value="yes" name="resonance"/>
                              <par value="-1" name="ext_oscil"/>
                              <par value="-1" name="ext_fm_oscil"/>
                              <par value="64" name="oscil_phase"/>
                              <par value="64" name="oscil_fm_phase"/>
                              <par_bool value="no" name="filter_enabled"/>
                              <par_bool value="no" name="filter_bypass"/>
                              <par value="0" name="fm_enabled"/>
                              <OSCIL>
                                <par value="0" name="harmonic_mag_type"/>
                                <par value="4" name="base_function"/>
                                <par value="64" name="base_function_par"/>
                                <par value="0" name="base_function_modulation"/>
                                <par value="64" name="base_function_modulation_par1"/>
                                <par value="64" name="base_function_modulation_par2"/>
                                <par value="32" name="base_function_modulation_par3"/>
                                <par value="0" name="modulation"/>
                                <par value="64" name="modulation_par1"/>
                                <par value="64" name="modulation_par2"/>
                                <par value="32" name="modulation_par3"/>
                                <par value="64" name="wave_shaping"/>
                                <par value="0" name="wave_shaping_function"/>
                                <par value="0" name="filter_type"/>
                                <par value="64" name="filter_par1"/>
                                <par value="64" name="filter_par2"/>
                                <par value="0" name="filter_before_wave_shaping"/>
                                <par value="0" name="spectrum_adjust_type"/>
                                <par value="64" name="spectrum_adjust_par"/>
                                <par value="127" name="rand"/>
                                <par value="0" name="amp_rand_type"/>
                                <par value="64" name="amp_rand_power"/>
                                <par value="0" name="harmonic_shift"/>
                                <par_bool value="no" name="harmonic_shift_first"/>
                                <par value="0" name="adaptive_harmonics"/>
                                <par value="128" name="adaptive_harmonics_base_frequency"/>
                                <par value="100" name="adaptive_harmonics_power"/>
                                <HARMONICS>
                                  <HARMONIC id="1">
                                    <par value="127" name="mag"/>
                                    <par value="64" name="phase"/>
                                  </HARMONIC>
                                </HARMONICS>
                              </OSCIL>
                              <AMPLITUDE_PARAMETERS>
                                <par value="87" name="panning"/>
                                <par value="100" name="volume"/>
                                <par_bool value="no" name="volume_minus"/>
                                <par value="127" name="velocity_sensing"/>
                                <par_bool value="no" name="amp_envelope_enabled"/>
                                <par_bool value="no" name="amp_lfo_enabled"/>
                              </AMPLITUDE_PARAMETERS>
                              <FREQUENCY_PARAMETERS>
                                <par_bool value="no" name="fixed_freq"/>
                                <par value="0" name="fixed_freq_et"/>
                                <par value="9557" name="detune"/>
                                <par value="0" name="coarse_detune"/>
                                <par value="0" name="detune_type"/>
                                <par_bool value="no" name="freq_envelope_enabled"/>
                                <par_bool value="no" name="freq_lfo_enabled"/>
                              </FREQUENCY_PARAMETERS>
                            </VOICE>
                            <VOICE id="1">
                              <par_bool value="yes" name="enabled"/>
                              <par value="0" name="type"/>
                              <par value="1" name="unison_size"/>
                              <par value="60" name="unison_frequency_spread"/>
                              <par value="64" name="unison_stereo_spread"/>
                              <par value="64" name="unison_vibratto"/>
                              <par value="64" name="unison_vibratto_speed"/>
                              <par value="0" name="unison_invert_phase"/>
                              <par value="127" name="unison_phase_randomness"/>
                              <par value="0" name="delay"/>
                              <par_bool value="yes" name="resonance"/>
                              <par value="0" name="ext_oscil"/>
                              <par value="-1" name="ext_fm_oscil"/>
                              <par value="64" name="oscil_phase"/>
                              <par value="64" name="oscil_fm_phase"/>
                              <par_bool value="no" name="filter_enabled"/>
                              <par_bool value="no" name="filter_bypass"/>
                              <par value="0" name="fm_enabled"/>
                              <OSCIL>
                                <par value="0" name="harmonic_mag_type"/>
                                <par value="0" name="base_function"/>
                                <par value="64" name="base_function_par"/>
                                <par value="0" name="base_function_modulation"/>
                                <par value="64" name="base_function_modulation_par1"/>
                                <par value="64" name="base_function_modulation_par2"/>
                                <par value="32" name="base_function_modulation_par3"/>
                                <par value="0" name="modulation"/>
                                <par value="64" name="modulation_par1"/>
                                <par value="64" name="modulation_par2"/>
                                <par value="32" name="modulation_par3"/>
                                <par value="64" name="wave_shaping"/>
                                <par value="0" name="wave_shaping_function"/>
                                <par value="0" name="filter_type"/>
                                <par value="64" name="filter_par1"/>
                                <par value="64" name="filter_par2"/>
                                <par value="0" name="filter_before_wave_shaping"/>
                                <par value="0" name="spectrum_adjust_type"/>
                                <par value="64" name="spectrum_adjust_par"/>
                                <par value="64" name="rand"/>
                                <par value="0" name="amp_rand_type"/>
                                <par value="64" name="amp_rand_power"/>
                                <par value="0" name="harmonic_shift"/>
                                <par_bool value="no" name="harmonic_shift_first"/>
                                <par value="0" name="adaptive_harmonics"/>
                                <par value="128" name="adaptive_harmonics_base_frequency"/>
                                <par value="100" name="adaptive_harmonics_power"/>
                                <HARMONICS>
                                  <HARMONIC id="1">
                                    <par value="127" name="mag"/>
                                    <par value="64" name="phase"/>
                                  </HARMONIC>
                                </HARMONICS>
                              </OSCIL>
                              <AMPLITUDE_PARAMETERS>
                                <par value="39" name="panning"/>
                                <par value="100" name="volume"/>
                                <par_bool value="no" name="volume_minus"/>
                                <par value="127" name="velocity_sensing"/>
                                <par_bool value="no" name="amp_envelope_enabled"/>
                                <par_bool value="no" name="amp_lfo_enabled"/>
                              </AMPLITUDE_PARAMETERS>
                              <FREQUENCY_PARAMETERS>
                                <par_bool value="no" name="fixed_freq"/>
                                <par value="0" name="fixed_freq_et"/>
                                <par value="7099" name="detune"/>
                                <par value="0" name="coarse_detune"/>
                                <par value="0" name="detune_type"/>
                                <par_bool value="no" name="freq_envelope_enabled"/>
                                <par_bool value="no" name="freq_lfo_enabled"/>
                              </FREQUENCY_PARAMETERS>
                            </VOICE>
                            <VOICE id="2">
                              <par_bool value="no" name="enabled"/>
                            </VOICE>
                            <VOICE id="3">
                              <par_bool value="no" name="enabled"/>
                            </VOICE>
                            <VOICE id="4">
                              <par_bool value="no" name="enabled"/>
                            </VOICE>
                            <VOICE id="5">
                              <par_bool value="no" name="enabled"/>
                            </VOICE>
                            <VOICE id="6">
                              <par_bool value="no" name="enabled"/>
                            </VOICE>
                            <VOICE id="7">
                              <par_bool value="no" name="enabled"/>
                            </VOICE>
                          </ADD_SYNTH_PARAMETERS>
                          <par_bool value="no" name="sub_enabled"/>
                          <par_bool value="no" name="pad_enabled"/>
                        </INSTRUMENT_KIT_ITEM>
                        <INSTRUMENT_KIT_ITEM id="1">
                          <par_bool value="no" name="enabled"/>
                        </INSTRUMENT_KIT_ITEM>
                        <INSTRUMENT_KIT_ITEM id="2">
                          <par_bool value="no" name="enabled"/>
                        </INSTRUMENT_KIT_ITEM>
                        <INSTRUMENT_KIT_ITEM id="3">
                          <par_bool value="no" name="enabled"/>
                        </INSTRUMENT_KIT_ITEM>
                        <INSTRUMENT_KIT_ITEM id="4">
                          <par_bool value="no" name="enabled"/>
                        </INSTRUMENT_KIT_ITEM>
                        <INSTRUMENT_KIT_ITEM id="5">
                          <par_bool value="no" name="enabled"/>
                        </INSTRUMENT_KIT_ITEM>
                        <INSTRUMENT_KIT_ITEM id="6">
                          <par_bool value="no" name="enabled"/>
                        </INSTRUMENT_KIT_ITEM>
                        <INSTRUMENT_KIT_ITEM id="7">
                          <par_bool value="no" name="enabled"/>
                        </INSTRUMENT_KIT_ITEM>
                        <INSTRUMENT_KIT_ITEM id="8">
                          <par_bool value="no" name="enabled"/>
                        </INSTRUMENT_KIT_ITEM>
                        <INSTRUMENT_KIT_ITEM id="9">
                          <par_bool value="no" name="enabled"/>
                        </INSTRUMENT_KIT_ITEM>
                        <INSTRUMENT_KIT_ITEM id="10">
                          <par_bool value="no" name="enabled"/>
                        </INSTRUMENT_KIT_ITEM>
                        <INSTRUMENT_KIT_ITEM id="11">
                          <par_bool value="no" name="enabled"/>
                        </INSTRUMENT_KIT_ITEM>
                        <INSTRUMENT_KIT_ITEM id="12">
                          <par_bool value="no" name="enabled"/>
                        </INSTRUMENT_KIT_ITEM>
                        <INSTRUMENT_KIT_ITEM id="13">
                          <par_bool value="no" name="enabled"/>
                        </INSTRUMENT_KIT_ITEM>
                        <INSTRUMENT_KIT_ITEM id="14">
                          <par_bool value="no" name="enabled"/>
                        </INSTRUMENT_KIT_ITEM>
                        <INSTRUMENT_KIT_ITEM id="15">
                          <par_bool value="no" name="enabled"/>
                        </INSTRUMENT_KIT_ITEM>
                      </INSTRUMENT_KIT>
                      <INSTRUMENT_EFFECTS>
                        <INSTRUMENT_EFFECT id="0">
                          <EFFECT>
                            <par value="0" name="type"/>
                          </EFFECT>
                          <par value="0" name="route"/>
                          <par_bool value="no" name="bypass"/>
                        </INSTRUMENT_EFFECT>
                        <INSTRUMENT_EFFECT id="1">
                          <EFFECT>
                            <par value="0" name="type"/>
                          </EFFECT>
                          <par value="0" name="route"/>
                          <par_bool value="no" name="bypass"/>
                        </INSTRUMENT_EFFECT>
                        <INSTRUMENT_EFFECT id="2">
                          <EFFECT>
                            <par value="0" name="type"/>
                          </EFFECT>
                          <par value="0" name="route"/>
                          <par_bool value="no" name="bypass"/>
                        </INSTRUMENT_EFFECT>
                      </INSTRUMENT_EFFECTS>
                    </INSTRUMENT>
                    <CONTROLLER>
                      <par value="100" name="pitchwheel_bendrange"/>
                      <par_bool value="yes" name="expression_receive"/>
                      <par value="64" name="panning_depth"/>
                      <par value="64" name="filter_cutoff_depth"/>
                      <par value="64" name="filter_q_depth"/>
                      <par value="64" name="bandwidth_depth"/>
                      <par value="80" name="mod_wheel_depth"/>
                      <par_bool value="no" name="mod_wheel_exponential"/>
                      <par_bool value="yes" name="fm_amp_receive"/>
                      <par_bool value="yes" name="volume_receive"/>
                      <par_bool value="yes" name="sustain_receive"/>
                      <par_bool value="yes" name="portamento_receive"/>
                      <par value="64" name="portamento_time"/>
                      <par value="3" name="portamento_pitchthresh"/>
                      <par value="1" name="portamento_pitchthreshtype"/>
                      <par value="0" name="portamento_portamento"/>
                      <par value="64" name="portamento_updowntimestretch"/>
                      <par value="0" name="portamento_proportional"/>
                      <par value="80" name="portamento_proprate"/>
                      <par value="90" name="portamento_propdepth"/>
                      <par value="64" name="resonance_center_depth"/>
                      <par value="64" name="resonance_bandwidth_depth"/>
                    </CONTROLLER>
                  </PART>
                  <PART id="1">
                    <par_bool value="no" name="enabled"/>
                  </PART>
                  <PART id="2">
                    <par_bool value="no" name="enabled"/>
                  </PART>
                  <PART id="3">
                    <par_bool value="no" name="enabled"/>
                  </PART>
                  <PART id="4">
                    <par_bool value="no" name="enabled"/>
                  </PART>
                  <PART id="5">
                    <par_bool value="no" name="enabled"/>
                  </PART>
                  <PART id="6">
                    <par_bool value="no" name="enabled"/>
                  </PART>
                  <PART id="7">
                    <par_bool value="no" name="enabled"/>
                  </PART>
                  <PART id="8">
                    <par_bool value="no" name="enabled"/>
                  </PART>
                  <PART id="9">
                    <par_bool value="no" name="enabled"/>
                  </PART>
                  <PART id="10">
                    <par_bool value="no" name="enabled"/>
                  </PART>
                  <PART id="11">
                    <par_bool value="no" name="enabled"/>
                  </PART>
                  <PART id="12">
                    <par_bool value="no" name="enabled"/>
                  </PART>
                  <PART id="13">
                    <par_bool value="no" name="enabled"/>
                  </PART>
                  <PART id="14">
                    <par_bool value="no" name="enabled"/>
                  </PART>
                  <PART id="15">
                    <par_bool value="no" name="enabled"/>
                  </PART>
                  <SYSTEM_EFFECTS>
                    <SYSTEM_EFFECT id="0">
                      <EFFECT>
                        <par value="0" name="type"/>
                      </EFFECT>
                      <VOLUME id="0">
                        <par value="0" name="vol"/>
                      </VOLUME>
                      <VOLUME id="1">
                        <par value="0" name="vol"/>
                      </VOLUME>
                      <VOLUME id="2">
                        <par value="0" name="vol"/>
                      </VOLUME>
                      <VOLUME id="3">
                        <par value="0" name="vol"/>
                      </VOLUME>
                      <VOLUME id="4">
                        <par value="0" name="vol"/>
                      </VOLUME>
                      <VOLUME id="5">
                        <par value="0" name="vol"/>
                      </VOLUME>
                      <VOLUME id="6">
                        <par value="0" name="vol"/>
                      </VOLUME>
                      <VOLUME id="7">
                        <par value="0" name="vol"/>
                      </VOLUME>
                      <VOLUME id="8">
                        <par value="0" name="vol"/>
                      </VOLUME>
                      <VOLUME id="9">
                        <par value="0" name="vol"/>
                      </VOLUME>
                      <VOLUME id="10">
                        <par value="0" name="vol"/>
                      </VOLUME>
                      <VOLUME id="11">
                        <par value="0" name="vol"/>
                      </VOLUME>
                      <VOLUME id="12">
                        <par value="0" name="vol"/>
                      </VOLUME>
                      <VOLUME id="13">
                        <par value="0" name="vol"/>
                      </VOLUME>
                      <VOLUME id="14">
                        <par value="0" name="vol"/>
                      </VOLUME>
                      <VOLUME id="15">
                        <par value="0" name="vol"/>
                      </VOLUME>
                      <SENDTO id="1">
                        <par value="0" name="send_vol"/>
                      </SENDTO>
                      <SENDTO id="2">
                        <par value="0" name="send_vol"/>
                      </SENDTO>
                      <SENDTO id="3">
                        <par value="0" name="send_vol"/>
                      </SENDTO>
                    </SYSTEM_EFFECT>
                    <SYSTEM_EFFECT id="1">
                      <EFFECT>
                        <par value="0" name="type"/>
                      </EFFECT>
                      <VOLUME id="0">
                        <par value="0" name="vol"/>
                      </VOLUME>
                      <VOLUME id="1">
                        <par value="0" name="vol"/>
                      </VOLUME>
                      <VOLUME id="2">
                        <par value="0" name="vol"/>
                      </VOLUME>
                      <VOLUME id="3">
                        <par value="0" name="vol"/>
                      </VOLUME>
                      <VOLUME id="4">
                        <par value="0" name="vol"/>
                      </VOLUME>
                      <VOLUME id="5">
                        <par value="0" name="vol"/>
                      </VOLUME>
                      <VOLUME id="6">
                        <par value="0" name="vol"/>
                      </VOLUME>
                      <VOLUME id="7">
                        <par value="0" name="vol"/>
                      </VOLUME>
                      <VOLUME id="8">
                        <par value="0" name="vol"/>
                      </VOLUME>
                      <VOLUME id="9">
                        <par value="0" name="vol"/>
                      </VOLUME>
                      <VOLUME id="10">
                        <par value="0" name="vol"/>
                      </VOLUME>
                      <VOLUME id="11">
                        <par value="0" name="vol"/>
                      </VOLUME>
                      <VOLUME id="12">
                        <par value="0" name="vol"/>
                      </VOLUME>
                      <VOLUME id="13">
                        <par value="0" name="vol"/>
                      </VOLUME>
                      <VOLUME id="14">
                        <par value="0" name="vol"/>
                      </VOLUME>
                      <VOLUME id="15">
                        <par value="0" name="vol"/>
                      </VOLUME>
                      <SENDTO id="2">
                        <par value="0" name="send_vol"/>
                      </SENDTO>
                      <SENDTO id="3">
                        <par value="0" name="send_vol"/>
                      </SENDTO>
                    </SYSTEM_EFFECT>
                    <SYSTEM_EFFECT id="2">
                      <EFFECT>
                        <par value="0" name="type"/>
                      </EFFECT>
                      <VOLUME id="0">
                        <par value="0" name="vol"/>
                      </VOLUME>
                      <VOLUME id="1">
                        <par value="0" name="vol"/>
                      </VOLUME>
                      <VOLUME id="2">
                        <par value="0" name="vol"/>
                      </VOLUME>
                      <VOLUME id="3">
                        <par value="0" name="vol"/>
                      </VOLUME>
                      <VOLUME id="4">
                        <par value="0" name="vol"/>
                      </VOLUME>
                      <VOLUME id="5">
                        <par value="0" name="vol"/>
                      </VOLUME>
                      <VOLUME id="6">
                        <par value="0" name="vol"/>
                      </VOLUME>
                      <VOLUME id="7">
                        <par value="0" name="vol"/>
                      </VOLUME>
                      <VOLUME id="8">
                        <par value="0" name="vol"/>
                      </VOLUME>
                      <VOLUME id="9">
                        <par value="0" name="vol"/>
                      </VOLUME>
                      <VOLUME id="10">
                        <par value="0" name="vol"/>
                      </VOLUME>
                      <VOLUME id="11">
                        <par value="0" name="vol"/>
                      </VOLUME>
                      <VOLUME id="12">
                        <par value="0" name="vol"/>
                      </VOLUME>
                      <VOLUME id="13">
                        <par value="0" name="vol"/>
                      </VOLUME>
                      <VOLUME id="14">
                        <par value="0" name="vol"/>
                      </VOLUME>
                      <VOLUME id="15">
                        <par value="0" name="vol"/>
                      </VOLUME>
                      <SENDTO id="3">
                        <par value="0" name="send_vol"/>
                      </SENDTO>
                    </SYSTEM_EFFECT>
                    <SYSTEM_EFFECT id="3">
                      <EFFECT>
                        <par value="0" name="type"/>
                      </EFFECT>
                      <VOLUME id="0">
                        <par value="0" name="vol"/>
                      </VOLUME>
                      <VOLUME id="1">
                        <par value="0" name="vol"/>
                      </VOLUME>
                      <VOLUME id="2">
                        <par value="0" name="vol"/>
                      </VOLUME>
                      <VOLUME id="3">
                        <par value="0" name="vol"/>
                      </VOLUME>
                      <VOLUME id="4">
                        <par value="0" name="vol"/>
                      </VOLUME>
                      <VOLUME id="5">
                        <par value="0" name="vol"/>
                      </VOLUME>
                      <VOLUME id="6">
                        <par value="0" name="vol"/>
                      </VOLUME>
                      <VOLUME id="7">
                        <par value="0" name="vol"/>
                      </VOLUME>
                      <VOLUME id="8">
                        <par value="0" name="vol"/>
                      </VOLUME>
                      <VOLUME id="9">
                        <par value="0" name="vol"/>
                      </VOLUME>
                      <VOLUME id="10">
                        <par value="0" name="vol"/>
                      </VOLUME>
                      <VOLUME id="11">
                        <par value="0" name="vol"/>
                      </VOLUME>
                      <VOLUME id="12">
                        <par value="0" name="vol"/>
                      </VOLUME>
                      <VOLUME id="13">
                        <par value="0" name="vol"/>
                      </VOLUME>
                      <VOLUME id="14">
                        <par value="0" name="vol"/>
                      </VOLUME>
                      <VOLUME id="15">
                        <par value="0" name="vol"/>
                      </VOLUME>
                    </SYSTEM_EFFECT>
                  </SYSTEM_EFFECTS>
                  <INSERTION_EFFECTS>
                    <INSERTION_EFFECT id="0">
                      <par value="-1" name="part"/>
                      <EFFECT>
                        <par value="0" name="type"/>
                      </EFFECT>
                    </INSERTION_EFFECT>
                    <INSERTION_EFFECT id="1">
                      <par value="-1" name="part"/>
                      <EFFECT>
                        <par value="0" name="type"/>
                      </EFFECT>
                    </INSERTION_EFFECT>
                    <INSERTION_EFFECT id="2">
                      <par value="-1" name="part"/>
                      <EFFECT>
                        <par value="0" name="type"/>
                      </EFFECT>
                    </INSERTION_EFFECT>
                    <INSERTION_EFFECT id="3">
                      <par value="-1" name="part"/>
                      <EFFECT>
                        <par value="0" name="type"/>
                      </EFFECT>
                    </INSERTION_EFFECT>
                    <INSERTION_EFFECT id="4">
                      <par value="-1" name="part"/>
                      <EFFECT>
                        <par value="0" name="type"/>
                      </EFFECT>
                    </INSERTION_EFFECT>
                    <INSERTION_EFFECT id="5">
                      <par value="-1" name="part"/>
                      <EFFECT>
                        <par value="0" name="type"/>
                      </EFFECT>
                    </INSERTION_EFFECT>
                    <INSERTION_EFFECT id="6">
                      <par value="-1" name="part"/>
                      <EFFECT>
                        <par value="0" name="type"/>
                      </EFFECT>
                    </INSERTION_EFFECT>
                    <INSERTION_EFFECT id="7">
                      <par value="-1" name="part"/>
                      <EFFECT>
                        <par value="0" name="type"/>
                      </EFFECT>
                    </INSERTION_EFFECT>
                  </INSERTION_EFFECTS>
                </MASTER>
              </ZynAddSubFX-data>
            </zynaddsubfx>
          </instrument>
          <eldata fcut="14000" ftype="0" fwet="0" fres="0.5">
            <elvol dec="0.5" ctlenvamt="0" latt="0" sustain="0.5" amt="0" lamt="0" pdel="0" rel="0.1" lshp="0" lpdel="0" hold="0.5" lspd_numerator="4" lspd_denominator="4" att="0" x100="0" lspd="0.1" lspd_syncmode="0" userwavefile=""/>
            <elcut dec="0.5" ctlenvamt="0" latt="0" sustain="0.5" amt="0" lamt="0" pdel="0" rel="0.1" lshp="0" lpdel="0" hold="0.5" lspd_numerator="4" lspd_denominator="4" att="0" x100="0" lspd="0.1" lspd_syncmode="0" userwavefile=""/>
            <elres dec="0.5" ctlenvamt="0" latt="0" sustain="0.5" amt="0" lamt="0" pdel="0" rel="0.1" lshp="0" lpdel="0" hold="0.5" lspd_numerator="4" lspd_denominator="4" att="0" x100="0" lspd="0.1" lspd_syncmode="0" userwavefile=""/>
          </eldata>
          <chordcreator chordrange="1" chord-enabled="0" chord="0"/>
          <arpeggiator arptime="200" arptime_syncmode="0" arpmode="0" arptime_numerator="4" arptime_denominator="4" arpdir="0" arpgate="100" arprange="1" arp-enabled="0" arpmiss="0" arp="0" arpcycle="0" arpskip="0"/>
          <midiport inputcontroller="0" fixedoutputnote="-1" writable="0" basevelocity="63" outputprogram="1" outputcontroller="0" fixedinputvelocity="-1" outputchannel="1" fixedoutputvelocity="-1" readable="0" inputchannel="0"/>
          <fxchain numofeffects="2" enabled="1">
            <effect gate="0" on="1" autoquit_syncmode="0" autoquit="1" name="stereoenhancer" autoquit_numerator="4" wet="1" autoquit_denominator="4">
              <stereoenhancercontrols>
                <width value="87.578125" scale_type="linear" id="3196872"/>
              </stereoenhancercontrols>
              <key/>
            </effect>
            <effect gate="0" on="1" autoquit_syncmode="0" autoquit="1" name="ladspaeffect" autoquit_numerator="4" wet="1" autoquit_denominator="4">
              <ladspacontrols ports="10">
                <port00 data="10"/>
                <port01 data="0"/>
                <port02 data="20"/>
                <port03 data="0"/>
                <port04 data="0"/>
                <port05 data="0"/>
                <port06 data="0"/>
                <port07 data="0"/>
                <port08 data="1"/>
                <port09 data="0"/>
              </ladspacontrols>
              <key>
                <attribute value="tap_echo" name="file"/>
                <attribute value="tap_stereo_echo" name="plugin"/>
              </key>
            </effect>
          </fxchain>
        </instrumenttrack>
        <pattern name="Wah Bass" pos="15360" muted="0" type="1" steps="16">
          <note key="40" pan="0" pos="0" len="12" vol="100"/>
          <note key="43" pan="0" pos="12" len="12" vol="100"/>
          <note key="47" pan="0" pos="24" len="12" vol="100"/>
          <note key="40" pan="0" pos="36" len="12" vol="100"/>
          <note key="43" pan="0" pos="48" len="12" vol="100"/>
          <note key="47" pan="0" pos="60" len="12" vol="100"/>
          <note key="40" pan="0" pos="72" len="12" vol="100"/>
          <note key="43" pan="0" pos="84" len="12" vol="100"/>
          <note key="47" pan="0" pos="96" len="12" vol="100"/>
          <note key="40" pan="0" pos="108" len="12" vol="100"/>
          <note key="43" pan="0" pos="120" len="12" vol="100"/>
          <note key="47" pan="0" pos="132" len="12" vol="100"/>
          <note key="40" pan="0" pos="144" len="12" vol="100"/>
          <note key="43" pan="0" pos="156" len="12" vol="100"/>
          <note key="48" pan="0" pos="168" len="12" vol="100"/>
          <note key="43" pan="0" pos="180" len="12" vol="100"/>
          <note key="40" pan="0" pos="192" len="12" vol="100"/>
          <note key="43" pan="0" pos="204" len="12" vol="100"/>
          <note key="47" pan="0" pos="216" len="12" vol="100"/>
          <note key="40" pan="0" pos="228" len="12" vol="100"/>
          <note key="43" pan="0" pos="240" len="12" vol="100"/>
          <note key="47" pan="0" pos="252" len="12" vol="100"/>
          <note key="40" pan="0" pos="264" len="12" vol="100"/>
          <note key="43" pan="0" pos="276" len="12" vol="100"/>
          <note key="47" pan="0" pos="288" len="12" vol="100"/>
          <note key="40" pan="0" pos="300" len="12" vol="100"/>
          <note key="43" pan="0" pos="312" len="12" vol="100"/>
          <note key="47" pan="0" pos="324" len="12" vol="100"/>
          <note key="40" pan="0" pos="336" len="12" vol="100"/>
          <note key="43" pan="0" pos="348" len="12" vol="100"/>
          <note key="48" pan="0" pos="360" len="12" vol="100"/>
          <note key="43" pan="0" pos="372" len="12" vol="100"/>
          <note key="40" pan="0" pos="384" len="12" vol="100"/>
          <note key="43" pan="0" pos="396" len="12" vol="100"/>
          <note key="47" pan="0" pos="408" len="12" vol="100"/>
          <note key="40" pan="0" pos="420" len="12" vol="100"/>
          <note key="43" pan="0" pos="432" len="12" vol="100"/>
          <note key="47" pan="0" pos="444" len="12" vol="100"/>
          <note key="40" pan="0" pos="456" len="12" vol="100"/>
          <note key="43" pan="0" pos="468" len="12" vol="100"/>
          <note key="47" pan="0" pos="480" len="12" vol="100"/>
          <note key="40" pan="0" pos="492" len="12" vol="100"/>
          <note key="43" pan="0" pos="504" len="12" vol="100"/>
          <note key="47" pan="0" pos="516" len="12" vol="100"/>
          <note key="40" pan="0" pos="528" len="12" vol="100"/>
          <note key="43" pan="0" pos="540" len="12" vol="100"/>
          <note key="48" pan="0" pos="552" len="12" vol="100"/>
          <note key="43" pan="0" pos="564" len="12" vol="100"/>
          <note key="40" pan="0" pos="576" len="12" vol="100"/>
          <note key="43" pan="0" pos="588" len="12" vol="100"/>
          <note key="47" pan="0" pos="600" len="12" vol="100"/>
          <note key="40" pan="0" pos="612" len="12" vol="100"/>
          <note key="43" pan="0" pos="624" len="12" vol="100"/>
          <note key="47" pan="0" pos="636" len="12" vol="100"/>
          <note key="40" pan="0" pos="648" len="12" vol="100"/>
          <note key="43" pan="0" pos="660" len="12" vol="100"/>
          <note key="47" pan="0" pos="672" len="12" vol="100"/>
          <note key="40" pan="0" pos="684" len="12" vol="100"/>
          <note key="43" pan="0" pos="696" len="12" vol="100"/>
          <note key="47" pan="0" pos="708" len="12" vol="100"/>
          <note key="40" pan="0" pos="720" len="12" vol="100"/>
          <note key="43" pan="0" pos="732" len="12" vol="100"/>
          <note key="48" pan="0" pos="744" len="12" vol="100"/>
          <note key="43" pan="0" pos="756" len="12" vol="100"/>
          <note key="40" pan="0" pos="768" len="12" vol="100"/>
          <note key="43" pan="0" pos="780" len="12" vol="100"/>
          <note key="47" pan="0" pos="792" len="12" vol="100"/>
          <note key="40" pan="0" pos="804" len="12" vol="100"/>
          <note key="43" pan="0" pos="816" len="12" vol="100"/>
          <note key="47" pan="0" pos="828" len="12" vol="100"/>
          <note key="40" pan="0" pos="840" len="12" vol="100"/>
          <note key="43" pan="0" pos="852" len="12" vol="100"/>
          <note key="47" pan="0" pos="864" len="12" vol="100"/>
          <note key="40" pan="0" pos="876" len="12" vol="100"/>
          <note key="43" pan="0" pos="888" len="12" vol="100"/>
          <note key="47" pan="0" pos="900" len="12" vol="100"/>
          <note key="40" pan="0" pos="912" len="12" vol="100"/>
          <note key="43" pan="0" pos="924" len="12" vol="100"/>
          <note key="48" pan="0" pos="936" len="12" vol="100"/>
          <note key="43" pan="0" pos="948" len="12" vol="100"/>
          <note key="40" pan="0" pos="960" len="12" vol="100"/>
          <note key="43" pan="0" pos="972" len="12" vol="100"/>
          <note key="47" pan="0" pos="984" len="12" vol="100"/>
          <note key="40" pan="0" pos="996" len="12" vol="100"/>
          <note key="43" pan="0" pos="1008" len="12" vol="100"/>
          <note key="47" pan="0" pos="1020" len="12" vol="100"/>
          <note key="40" pan="0" pos="1032" len="12" vol="100"/>
          <note key="43" pan="0" pos="1044" len="12" vol="100"/>
          <note key="47" pan="0" pos="1056" len="12" vol="100"/>
          <note key="40" pan="0" pos="1068" len="12" vol="100"/>
          <note key="43" pan="0" pos="1080" len="12" vol="100"/>
          <note key="47" pan="0" pos="1092" len="12" vol="100"/>
          <note key="40" pan="0" pos="1104" len="12" vol="100"/>
          <note key="43" pan="0" pos="1116" len="12" vol="100"/>
          <note key="48" pan="0" pos="1128" len="12" vol="100"/>
          <note key="43" pan="0" pos="1140" len="12" vol="100"/>
          <note key="40" pan="0" pos="1152" len="12" vol="100"/>
          <note key="43" pan="0" pos="1164" len="12" vol="100"/>
          <note key="47" pan="0" pos="1176" len="12" vol="100"/>
          <note key="40" pan="0" pos="1188" len="12" vol="100"/>
          <note key="43" pan="0" pos="1200" len="12" vol="100"/>
          <note key="47" pan="0" pos="1212" len="12" vol="100"/>
          <note key="40" pan="0" pos="1224" len="12" vol="100"/>
          <note key="43" pan="0" pos="1236" len="12" vol="100"/>
          <note key="47" pan="0" pos="1248" len="12" vol="100"/>
          <note key="40" pan="0" pos="1260" len="12" vol="100"/>
          <note key="43" pan="0" pos="1272" len="12" vol="100"/>
          <note key="47" pan="0" pos="1284" len="12" vol="100"/>
          <note key="40" pan="0" pos="1296" len="12" vol="100"/>
          <note key="43" pan="0" pos="1308" len="12" vol="100"/>
          <note key="48" pan="0" pos="1320" len="12" vol="100"/>
          <note key="43" pan="0" pos="1332" len="12" vol="100"/>
          <note key="40" pan="0" pos="1344" len="12" vol="100"/>
          <note key="43" pan="0" pos="1356" len="12" vol="100"/>
          <note key="47" pan="0" pos="1368" len="12" vol="100"/>
          <note key="40" pan="0" pos="1380" len="12" vol="100"/>
          <note key="43" pan="0" pos="1392" len="12" vol="100"/>
          <note key="47" pan="0" pos="1404" len="12" vol="100"/>
          <note key="40" pan="0" pos="1416" len="12" vol="100"/>
          <note key="43" pan="0" pos="1428" len="12" vol="100"/>
          <note key="47" pan="0" pos="1440" len="12" vol="100"/>
          <note key="40" pan="0" pos="1452" len="12" vol="100"/>
          <note key="43" pan="0" pos="1464" len="12" vol="100"/>
          <note key="47" pan="0" pos="1476" len="12" vol="100"/>
          <note key="40" pan="0" pos="1488" len="12" vol="100"/>
          <note key="43" pan="0" pos="1500" len="12" vol="100"/>
          <note key="48" pan="0" pos="1512" len="12" vol="100"/>
          <note key="43" pan="0" pos="1524" len="12" vol="100"/>
        </pattern>
        <pattern name="Wah Bass" pos="16896" muted="0" type="1" steps="16">
          <note key="40" pan="0" pos="0" len="12" vol="100"/>
          <note key="43" pan="0" pos="12" len="12" vol="100"/>
          <note key="47" pan="0" pos="24" len="12" vol="100"/>
          <note key="40" pan="0" pos="36" len="12" vol="100"/>
          <note key="43" pan="0" pos="48" len="12" vol="100"/>
          <note key="47" pan="0" pos="60" len="12" vol="100"/>
          <note key="40" pan="0" pos="72" len="12" vol="100"/>
          <note key="43" pan="0" pos="84" len="12" vol="100"/>
          <note key="47" pan="0" pos="96" len="12" vol="100"/>
          <note key="40" pan="0" pos="108" len="12" vol="100"/>
          <note key="43" pan="0" pos="120" len="12" vol="100"/>
          <note key="47" pan="0" pos="132" len="12" vol="100"/>
          <note key="40" pan="0" pos="144" len="12" vol="100"/>
          <note key="43" pan="0" pos="156" len="12" vol="100"/>
          <note key="48" pan="0" pos="168" len="12" vol="100"/>
          <note key="43" pan="0" pos="180" len="12" vol="100"/>
          <note key="40" pan="0" pos="192" len="12" vol="100"/>
          <note key="43" pan="0" pos="204" len="12" vol="100"/>
          <note key="47" pan="0" pos="216" len="12" vol="100"/>
          <note key="40" pan="0" pos="228" len="12" vol="100"/>
          <note key="43" pan="0" pos="240" len="12" vol="100"/>
          <note key="47" pan="0" pos="252" len="12" vol="100"/>
          <note key="40" pan="0" pos="264" len="12" vol="100"/>
          <note key="43" pan="0" pos="276" len="12" vol="100"/>
          <note key="47" pan="0" pos="288" len="12" vol="100"/>
          <note key="40" pan="0" pos="300" len="12" vol="100"/>
          <note key="43" pan="0" pos="312" len="12" vol="100"/>
          <note key="47" pan="0" pos="324" len="12" vol="100"/>
          <note key="40" pan="0" pos="336" len="12" vol="100"/>
          <note key="43" pan="0" pos="348" len="12" vol="100"/>
          <note key="48" pan="0" pos="360" len="12" vol="100"/>
          <note key="43" pan="0" pos="372" len="12" vol="100"/>
          <note key="40" pan="0" pos="384" len="12" vol="100"/>
          <note key="43" pan="0" pos="396" len="12" vol="100"/>
          <note key="47" pan="0" pos="408" len="12" vol="100"/>
          <note key="40" pan="0" pos="420" len="12" vol="100"/>
          <note key="43" pan="0" pos="432" len="12" vol="100"/>
          <note key="47" pan="0" pos="444" len="12" vol="100"/>
          <note key="40" pan="0" pos="456" len="12" vol="100"/>
          <note key="43" pan="0" pos="468" len="12" vol="100"/>
          <note key="47" pan="0" pos="480" len="12" vol="100"/>
          <note key="40" pan="0" pos="492" len="12" vol="100"/>
          <note key="43" pan="0" pos="504" len="12" vol="100"/>
          <note key="47" pan="0" pos="516" len="12" vol="100"/>
          <note key="40" pan="0" pos="528" len="12" vol="100"/>
          <note key="43" pan="0" pos="540" len="12" vol="100"/>
          <note key="48" pan="0" pos="552" len="12" vol="100"/>
          <note key="43" pan="0" pos="564" len="12" vol="100"/>
          <note key="40" pan="0" pos="576" len="12" vol="100"/>
          <note key="43" pan="0" pos="588" len="12" vol="100"/>
          <note key="47" pan="0" pos="600" len="12" vol="100"/>
          <note key="40" pan="0" pos="612" len="12" vol="100"/>
          <note key="43" pan="0" pos="624" len="12" vol="100"/>
          <note key="47" pan="0" pos="636" len="12" vol="100"/>
          <note key="40" pan="0" pos="648" len="12" vol="100"/>
          <note key="43" pan="0" pos="660" len="12" vol="100"/>
          <note key="47" pan="0" pos="672" len="12" vol="100"/>
          <note key="40" pan="0" pos="684" len="12" vol="100"/>
          <note key="43" pan="0" pos="696" len="12" vol="100"/>
          <note key="47" pan="0" pos="708" len="12" vol="100"/>
          <note key="40" pan="0" pos="720" len="12" vol="100"/>
          <note key="43" pan="0" pos="732" len="12" vol="100"/>
          <note key="48" pan="0" pos="744" len="12" vol="100"/>
          <note key="43" pan="0" pos="756" len="12" vol="100"/>
          <note key="40" pan="0" pos="768" len="12" vol="100"/>
          <note key="43" pan="0" pos="780" len="12" vol="100"/>
          <note key="47" pan="0" pos="792" len="12" vol="100"/>
          <note key="40" pan="0" pos="804" len="12" vol="100"/>
          <note key="43" pan="0" pos="816" len="12" vol="100"/>
          <note key="47" pan="0" pos="828" len="12" vol="100"/>
          <note key="40" pan="0" pos="840" len="12" vol="100"/>
          <note key="43" pan="0" pos="852" len="12" vol="100"/>
          <note key="47" pan="0" pos="864" len="12" vol="100"/>
          <note key="40" pan="0" pos="876" len="12" vol="100"/>
          <note key="43" pan="0" pos="888" len="12" vol="100"/>
          <note key="47" pan="0" pos="900" len="12" vol="100"/>
          <note key="40" pan="0" pos="912" len="12" vol="100"/>
          <note key="43" pan="0" pos="924" len="12" vol="100"/>
          <note key="48" pan="0" pos="936" len="12" vol="100"/>
          <note key="43" pan="0" pos="948" len="12" vol="100"/>
          <note key="40" pan="0" pos="960" len="12" vol="100"/>
          <note key="43" pan="0" pos="972" len="12" vol="100"/>
          <note key="47" pan="0" pos="984" len="12" vol="100"/>
          <note key="40" pan="0" pos="996" len="12" vol="100"/>
          <note key="43" pan="0" pos="1008" len="12" vol="100"/>
          <note key="47" pan="0" pos="1020" len="12" vol="100"/>
          <note key="40" pan="0" pos="1032" len="12" vol="100"/>
          <note key="43" pan="0" pos="1044" len="12" vol="100"/>
          <note key="47" pan="0" pos="1056" len="12" vol="100"/>
          <note key="40" pan="0" pos="1068" len="12" vol="100"/>
          <note key="43" pan="0" pos="1080" len="12" vol="100"/>
          <note key="47" pan="0" pos="1092" len="12" vol="100"/>
          <note key="40" pan="0" pos="1104" len="12" vol="100"/>
          <note key="43" pan="0" pos="1116" len="12" vol="100"/>
          <note key="48" pan="0" pos="1128" len="12" vol="100"/>
          <note key="43" pan="0" pos="1140" len="12" vol="100"/>
          <note key="40" pan="0" pos="1152" len="12" vol="100"/>
          <note key="43" pan="0" pos="1164" len="12" vol="100"/>
          <note key="47" pan="0" pos="1176" len="12" vol="100"/>
          <note key="40" pan="0" pos="1188" len="12" vol="100"/>
          <note key="43" pan="0" pos="1200" len="12" vol="100"/>
          <note key="47" pan="0" pos="1212" len="12" vol="100"/>
          <note key="40" pan="0" pos="1224" len="12" vol="100"/>
          <note key="43" pan="0" pos="1236" len="12" vol="100"/>
          <note key="47" pan="0" pos="1248" len="12" vol="100"/>
          <note key="40" pan="0" pos="1260" len="12" vol="100"/>
          <note key="43" pan="0" pos="1272" len="12" vol="100"/>
          <note key="47" pan="0" pos="1284" len="12" vol="100"/>
          <note key="40" pan="0" pos="1296" len="12" vol="100"/>
          <note key="43" pan="0" pos="1308" len="12" vol="100"/>
          <note key="48" pan="0" pos="1320" len="12" vol="100"/>
          <note key="43" pan="0" pos="1332" len="12" vol="100"/>
          <note key="40" pan="0" pos="1344" len="12" vol="100"/>
          <note key="43" pan="0" pos="1356" len="12" vol="100"/>
          <note key="47" pan="0" pos="1368" len="12" vol="100"/>
          <note key="40" pan="0" pos="1380" len="12" vol="100"/>
          <note key="43" pan="0" pos="1392" len="12" vol="100"/>
          <note key="47" pan="0" pos="1404" len="12" vol="100"/>
          <note key="40" pan="0" pos="1416" len="12" vol="100"/>
          <note key="43" pan="0" pos="1428" len="12" vol="100"/>
          <note key="47" pan="0" pos="1440" len="12" vol="100"/>
          <note key="40" pan="0" pos="1452" len="12" vol="100"/>
          <note key="43" pan="0" pos="1464" len="12" vol="100"/>
          <note key="47" pan="0" pos="1476" len="12" vol="100"/>
          <note key="40" pan="0" pos="1488" len="12" vol="100"/>
          <note key="43" pan="0" pos="1500" len="12" vol="100"/>
          <note key="48" pan="0" pos="1512" len="12" vol="100"/>
          <note key="43" pan="0" pos="1524" len="12" vol="100"/>
        </pattern>
        <pattern name="Wah Bass" pos="18432" muted="0" type="1" steps="16">
          <note key="40" pan="0" pos="0" len="12" vol="100"/>
          <note key="43" pan="0" pos="12" len="12" vol="100"/>
          <note key="47" pan="0" pos="24" len="12" vol="100"/>
          <note key="40" pan="0" pos="36" len="12" vol="100"/>
          <note key="43" pan="0" pos="48" len="12" vol="100"/>
          <note key="47" pan="0" pos="60" len="12" vol="100"/>
          <note key="40" pan="0" pos="72" len="12" vol="100"/>
          <note key="43" pan="0" pos="84" len="12" vol="100"/>
          <note key="47" pan="0" pos="96" len="12" vol="100"/>
          <note key="40" pan="0" pos="108" len="12" vol="100"/>
          <note key="43" pan="0" pos="120" len="12" vol="100"/>
          <note key="47" pan="0" pos="132" len="12" vol="100"/>
          <note key="40" pan="0" pos="144" len="12" vol="100"/>
          <note key="43" pan="0" pos="156" len="12" vol="100"/>
          <note key="48" pan="0" pos="168" len="12" vol="100"/>
          <note key="43" pan="0" pos="180" len="12" vol="100"/>
          <note key="40" pan="0" pos="192" len="12" vol="100"/>
          <note key="43" pan="0" pos="204" len="12" vol="100"/>
          <note key="47" pan="0" pos="216" len="12" vol="100"/>
          <note key="40" pan="0" pos="228" len="12" vol="100"/>
          <note key="43" pan="0" pos="240" len="12" vol="100"/>
          <note key="47" pan="0" pos="252" len="12" vol="100"/>
          <note key="40" pan="0" pos="264" len="12" vol="100"/>
          <note key="43" pan="0" pos="276" len="12" vol="100"/>
          <note key="47" pan="0" pos="288" len="12" vol="100"/>
          <note key="40" pan="0" pos="300" len="12" vol="100"/>
          <note key="43" pan="0" pos="312" len="12" vol="100"/>
          <note key="47" pan="0" pos="324" len="12" vol="100"/>
          <note key="40" pan="0" pos="336" len="12" vol="100"/>
          <note key="43" pan="0" pos="348" len="12" vol="100"/>
          <note key="48" pan="0" pos="360" len="12" vol="100"/>
          <note key="43" pan="0" pos="372" len="12" vol="100"/>
          <note key="40" pan="0" pos="384" len="12" vol="100"/>
          <note key="43" pan="0" pos="396" len="12" vol="100"/>
          <note key="47" pan="0" pos="408" len="12" vol="100"/>
          <note key="40" pan="0" pos="420" len="12" vol="100"/>
          <note key="43" pan="0" pos="432" len="12" vol="100"/>
          <note key="47" pan="0" pos="444" len="12" vol="100"/>
          <note key="40" pan="0" pos="456" len="12" vol="100"/>
          <note key="43" pan="0" pos="468" len="12" vol="100"/>
          <note key="47" pan="0" pos="480" len="12" vol="100"/>
          <note key="40" pan="0" pos="492" len="12" vol="100"/>
          <note key="43" pan="0" pos="504" len="12" vol="100"/>
          <note key="47" pan="0" pos="516" len="12" vol="100"/>
          <note key="40" pan="0" pos="528" len="12" vol="100"/>
          <note key="43" pan="0" pos="540" len="12" vol="100"/>
          <note key="48" pan="0" pos="552" len="12" vol="100"/>
          <note key="43" pan="0" pos="564" len="12" vol="100"/>
          <note key="40" pan="0" pos="576" len="12" vol="100"/>
          <note key="43" pan="0" pos="588" len="12" vol="100"/>
          <note key="47" pan="0" pos="600" len="12" vol="100"/>
          <note key="40" pan="0" pos="612" len="12" vol="100"/>
          <note key="43" pan="0" pos="624" len="12" vol="100"/>
          <note key="47" pan="0" pos="636" len="12" vol="100"/>
          <note key="40" pan="0" pos="648" len="12" vol="100"/>
          <note key="43" pan="0" pos="660" len="12" vol="100"/>
          <note key="47" pan="0" pos="672" len="12" vol="100"/>
          <note key="40" pan="0" pos="684" len="12" vol="100"/>
          <note key="43" pan="0" pos="696" len="12" vol="100"/>
          <note key="47" pan="0" pos="708" len="12" vol="100"/>
          <note key="40" pan="0" pos="720" len="12" vol="100"/>
          <note key="43" pan="0" pos="732" len="12" vol="100"/>
          <note key="48" pan="0" pos="744" len="12" vol="100"/>
          <note key="43" pan="0" pos="756" len="12" vol="100"/>
          <note key="40" pan="0" pos="768" len="12" vol="100"/>
          <note key="43" pan="0" pos="780" len="12" vol="100"/>
          <note key="47" pan="0" pos="792" len="12" vol="100"/>
          <note key="40" pan="0" pos="804" len="12" vol="100"/>
          <note key="43" pan="0" pos="816" len="12" vol="100"/>
          <note key="47" pan="0" pos="828" len="12" vol="100"/>
          <note key="40" pan="0" pos="840" len="12" vol="100"/>
          <note key="43" pan="0" pos="852" len="12" vol="100"/>
          <note key="47" pan="0" pos="864" len="12" vol="100"/>
          <note key="40" pan="0" pos="876" len="12" vol="100"/>
          <note key="43" pan="0" pos="888" len="12" vol="100"/>
          <note key="47" pan="0" pos="900" len="12" vol="100"/>
          <note key="40" pan="0" pos="912" len="12" vol="100"/>
          <note key="43" pan="0" pos="924" len="12" vol="100"/>
          <note key="48" pan="0" pos="936" len="12" vol="100"/>
          <note key="43" pan="0" pos="948" len="12" vol="100"/>
          <note key="40" pan="0" pos="960" len="12" vol="100"/>
          <note key="43" pan="0" pos="972" len="12" vol="100"/>
          <note key="47" pan="0" pos="984" len="12" vol="100"/>
          <note key="40" pan="0" pos="996" len="12" vol="100"/>
          <note key="43" pan="0" pos="1008" len="12" vol="100"/>
          <note key="47" pan="0" pos="1020" len="12" vol="100"/>
          <note key="40" pan="0" pos="1032" len="12" vol="100"/>
          <note key="43" pan="0" pos="1044" len="12" vol="100"/>
          <note key="47" pan="0" pos="1056" len="12" vol="100"/>
          <note key="40" pan="0" pos="1068" len="12" vol="100"/>
          <note key="43" pan="0" pos="1080" len="12" vol="100"/>
          <note key="47" pan="0" pos="1092" len="12" vol="100"/>
          <note key="40" pan="0" pos="1104" len="12" vol="100"/>
          <note key="43" pan="0" pos="1116" len="12" vol="100"/>
          <note key="48" pan="0" pos="1128" len="12" vol="100"/>
          <note key="43" pan="0" pos="1140" len="12" vol="100"/>
          <note key="40" pan="0" pos="1152" len="12" vol="100"/>
          <note key="43" pan="0" pos="1164" len="12" vol="100"/>
          <note key="47" pan="0" pos="1176" len="12" vol="100"/>
          <note key="40" pan="0" pos="1188" len="12" vol="100"/>
          <note key="43" pan="0" pos="1200" len="12" vol="100"/>
          <note key="47" pan="0" pos="1212" len="12" vol="100"/>
          <note key="40" pan="0" pos="1224" len="12" vol="100"/>
          <note key="43" pan="0" pos="1236" len="12" vol="100"/>
          <note key="47" pan="0" pos="1248" len="12" vol="100"/>
          <note key="40" pan="0" pos="1260" len="12" vol="100"/>
          <note key="43" pan="0" pos="1272" len="12" vol="100"/>
          <note key="47" pan="0" pos="1284" len="12" vol="100"/>
          <note key="40" pan="0" pos="1296" len="12" vol="100"/>
          <note key="43" pan="0" pos="1308" len="12" vol="100"/>
          <note key="48" pan="0" pos="1320" len="12" vol="100"/>
          <note key="43" pan="0" pos="1332" len="12" vol="100"/>
          <note key="40" pan="0" pos="1344" len="12" vol="100"/>
          <note key="43" pan="0" pos="1356" len="12" vol="100"/>
          <note key="47" pan="0" pos="1368" len="12" vol="100"/>
          <note key="40" pan="0" pos="1380" len="12" vol="100"/>
          <note key="43" pan="0" pos="1392" len="12" vol="100"/>
          <note key="47" pan="0" pos="1404" len="12" vol="100"/>
          <note key="40" pan="0" pos="1416" len="12" vol="100"/>
          <note key="43" pan="0" pos="1428" len="12" vol="100"/>
          <note key="47" pan="0" pos="1440" len="12" vol="100"/>
          <note key="40" pan="0" pos="1452" len="12" vol="100"/>
          <note key="43" pan="0" pos="1464" len="12" vol="100"/>
          <note key="47" pan="0" pos="1476" len="12" vol="100"/>
          <note key="40" pan="0" pos="1488" len="12" vol="100"/>
          <note key="43" pan="0" pos="1500" len="12" vol="100"/>
          <note key="48" pan="0" pos="1512" len="12" vol="100"/>
          <note key="43" pan="0" pos="1524" len="12" vol="100"/>
        </pattern>
        <pattern name="Wah Bass" pos="19968" muted="0" type="1" steps="16">
          <note key="40" pan="0" pos="0" len="192" vol="100"/>
        </pattern>
        <pattern name="Wah Bass" pos="13824" muted="0" type="1" steps="16">
          <note key="40" pan="0" pos="0" len="12" vol="100"/>
          <note key="43" pan="0" pos="12" len="12" vol="100"/>
          <note key="47" pan="0" pos="24" len="12" vol="100"/>
          <note key="40" pan="0" pos="36" len="12" vol="100"/>
          <note key="43" pan="0" pos="48" len="12" vol="100"/>
          <note key="47" pan="0" pos="60" len="12" vol="100"/>
          <note key="40" pan="0" pos="72" len="12" vol="100"/>
          <note key="43" pan="0" pos="84" len="12" vol="100"/>
          <note key="47" pan="0" pos="96" len="12" vol="100"/>
          <note key="40" pan="0" pos="108" len="12" vol="100"/>
          <note key="43" pan="0" pos="120" len="12" vol="100"/>
          <note key="47" pan="0" pos="132" len="12" vol="100"/>
          <note key="40" pan="0" pos="144" len="12" vol="100"/>
          <note key="43" pan="0" pos="156" len="12" vol="100"/>
          <note key="48" pan="0" pos="168" len="12" vol="100"/>
          <note key="43" pan="0" pos="180" len="12" vol="100"/>
          <note key="40" pan="0" pos="192" len="12" vol="100"/>
          <note key="43" pan="0" pos="204" len="12" vol="100"/>
          <note key="47" pan="0" pos="216" len="12" vol="100"/>
          <note key="40" pan="0" pos="228" len="12" vol="100"/>
          <note key="43" pan="0" pos="240" len="12" vol="100"/>
          <note key="47" pan="0" pos="252" len="12" vol="100"/>
          <note key="40" pan="0" pos="264" len="12" vol="100"/>
          <note key="43" pan="0" pos="276" len="12" vol="100"/>
          <note key="47" pan="0" pos="288" len="12" vol="100"/>
          <note key="40" pan="0" pos="300" len="12" vol="100"/>
          <note key="43" pan="0" pos="312" len="12" vol="100"/>
          <note key="47" pan="0" pos="324" len="12" vol="100"/>
          <note key="40" pan="0" pos="336" len="12" vol="100"/>
          <note key="43" pan="0" pos="348" len="12" vol="100"/>
          <note key="48" pan="0" pos="360" len="12" vol="100"/>
          <note key="43" pan="0" pos="372" len="12" vol="100"/>
          <note key="40" pan="0" pos="384" len="12" vol="100"/>
          <note key="43" pan="0" pos="396" len="12" vol="100"/>
          <note key="47" pan="0" pos="408" len="12" vol="100"/>
          <note key="40" pan="0" pos="420" len="12" vol="100"/>
          <note key="43" pan="0" pos="432" len="12" vol="100"/>
          <note key="47" pan="0" pos="444" len="12" vol="100"/>
          <note key="40" pan="0" pos="456" len="12" vol="100"/>
          <note key="43" pan="0" pos="468" len="12" vol="100"/>
          <note key="47" pan="0" pos="480" len="12" vol="100"/>
          <note key="40" pan="0" pos="492" len="12" vol="100"/>
          <note key="43" pan="0" pos="504" len="12" vol="100"/>
          <note key="47" pan="0" pos="516" len="12" vol="100"/>
          <note key="40" pan="0" pos="528" len="12" vol="100"/>
          <note key="43" pan="0" pos="540" len="12" vol="100"/>
          <note key="48" pan="0" pos="552" len="12" vol="100"/>
          <note key="43" pan="0" pos="564" len="12" vol="100"/>
          <note key="40" pan="0" pos="576" len="12" vol="100"/>
          <note key="43" pan="0" pos="588" len="12" vol="100"/>
          <note key="47" pan="0" pos="600" len="12" vol="100"/>
          <note key="40" pan="0" pos="612" len="12" vol="100"/>
          <note key="43" pan="0" pos="624" len="12" vol="100"/>
          <note key="47" pan="0" pos="636" len="12" vol="100"/>
          <note key="40" pan="0" pos="648" len="12" vol="100"/>
          <note key="43" pan="0" pos="660" len="12" vol="100"/>
          <note key="47" pan="0" pos="672" len="12" vol="100"/>
          <note key="40" pan="0" pos="684" len="12" vol="100"/>
          <note key="43" pan="0" pos="696" len="12" vol="100"/>
          <note key="47" pan="0" pos="708" len="12" vol="100"/>
          <note key="40" pan="0" pos="720" len="12" vol="100"/>
          <note key="43" pan="0" pos="732" len="12" vol="100"/>
          <note key="48" pan="0" pos="744" len="12" vol="100"/>
          <note key="43" pan="0" pos="756" len="12" vol="100"/>
          <note key="40" pan="0" pos="768" len="12" vol="100"/>
          <note key="43" pan="0" pos="780" len="12" vol="100"/>
          <note key="47" pan="0" pos="792" len="12" vol="100"/>
          <note key="40" pan="0" pos="804" len="12" vol="100"/>
          <note key="43" pan="0" pos="816" len="12" vol="100"/>
          <note key="47" pan="0" pos="828" len="12" vol="100"/>
          <note key="40" pan="0" pos="840" len="12" vol="100"/>
          <note key="43" pan="0" pos="852" len="12" vol="100"/>
          <note key="47" pan="0" pos="864" len="12" vol="100"/>
          <note key="40" pan="0" pos="876" len="12" vol="100"/>
          <note key="43" pan="0" pos="888" len="12" vol="100"/>
          <note key="47" pan="0" pos="900" len="12" vol="100"/>
          <note key="40" pan="0" pos="912" len="12" vol="100"/>
          <note key="43" pan="0" pos="924" len="12" vol="100"/>
          <note key="48" pan="0" pos="936" len="12" vol="100"/>
          <note key="43" pan="0" pos="948" len="12" vol="100"/>
          <note key="40" pan="0" pos="960" len="12" vol="100"/>
          <note key="43" pan="0" pos="972" len="12" vol="100"/>
          <note key="47" pan="0" pos="984" len="12" vol="100"/>
          <note key="40" pan="0" pos="996" len="12" vol="100"/>
          <note key="43" pan="0" pos="1008" len="12" vol="100"/>
          <note key="47" pan="0" pos="1020" len="12" vol="100"/>
          <note key="40" pan="0" pos="1032" len="12" vol="100"/>
          <note key="43" pan="0" pos="1044" len="12" vol="100"/>
          <note key="47" pan="0" pos="1056" len="12" vol="100"/>
          <note key="40" pan="0" pos="1068" len="12" vol="100"/>
          <note key="43" pan="0" pos="1080" len="12" vol="100"/>
          <note key="47" pan="0" pos="1092" len="12" vol="100"/>
          <note key="40" pan="0" pos="1104" len="12" vol="100"/>
          <note key="43" pan="0" pos="1116" len="12" vol="100"/>
          <note key="48" pan="0" pos="1128" len="12" vol="100"/>
          <note key="43" pan="0" pos="1140" len="12" vol="100"/>
          <note key="40" pan="0" pos="1152" len="12" vol="100"/>
          <note key="43" pan="0" pos="1164" len="12" vol="100"/>
          <note key="47" pan="0" pos="1176" len="12" vol="100"/>
          <note key="40" pan="0" pos="1188" len="12" vol="100"/>
          <note key="43" pan="0" pos="1200" len="12" vol="100"/>
          <note key="47" pan="0" pos="1212" len="12" vol="100"/>
          <note key="40" pan="0" pos="1224" len="12" vol="100"/>
          <note key="43" pan="0" pos="1236" len="12" vol="100"/>
          <note key="47" pan="0" pos="1248" len="12" vol="100"/>
          <note key="40" pan="0" pos="1260" len="12" vol="100"/>
          <note key="43" pan="0" pos="1272" len="12" vol="100"/>
          <note key="47" pan="0" pos="1284" len="12" vol="100"/>
          <note key="40" pan="0" pos="1296" len="12" vol="100"/>
          <note key="43" pan="0" pos="1308" len="12" vol="100"/>
          <note key="48" pan="0" pos="1320" len="12" vol="100"/>
          <note key="43" pan="0" pos="1332" len="12" vol="100"/>
          <note key="40" pan="0" pos="1344" len="12" vol="100"/>
          <note key="43" pan="0" pos="1356" len="12" vol="100"/>
          <note key="47" pan="0" pos="1368" len="12" vol="100"/>
          <note key="40" pan="0" pos="1380" len="12" vol="100"/>
          <note key="43" pan="0" pos="1392" len="12" vol="100"/>
          <note key="47" pan="0" pos="1404" len="12" vol="100"/>
          <note key="40" pan="0" pos="1416" len="12" vol="100"/>
          <note key="43" pan="0" pos="1428" len="12" vol="100"/>
          <note key="47" pan="0" pos="1440" len="12" vol="100"/>
          <note key="40" pan="0" pos="1452" len="12" vol="100"/>
          <note key="43" pan="0" pos="1464" len="12" vol="100"/>
          <note key="47" pan="0" pos="1476" len="12" vol="100"/>
          <note key="40" pan="0" pos="1488" len="12" vol="100"/>
          <note key="43" pan="0" pos="1500" len="12" vol="100"/>
          <note key="48" pan="0" pos="1512" len="12" vol="100"/>
          <note key="43" pan="0" pos="1524" len="12" vol="100"/>
        </pattern>
      </track>
      <track name="bass" muted="0" type="0" solo="0">
        <instrumenttrack pitchrange="1" pan="0" fxch="0" basenote="57" pitch="0" vol="140" usemasterpitch="1">
          <instrument name="zynaddsubfx">
            <zynaddsubfx modifiedcontrollers="" portamento="0" filterfreq="127" resbandwidth="64" rescenterfreq="85" filterq="64" bandwidth="64" fmgain="117" forwardmidicc="1">
              <ZynAddSubFX-data version-revision="1" version-minor="4" version-major="2" ZynAddSubFX-author="Nasca Octavian Paul">
                <INFORMATION/>
                <BASE_PARAMETERS>
                  <par value="16" name="max_midi_parts"/>
                  <par value="16" name="max_kit_items_per_instrument"/>
                  <par value="4" name="max_system_effects"/>
                  <par value="8" name="max_insertion_effects"/>
                  <par value="3" name="max_instrument_effects"/>
                  <par value="8" name="max_addsynth_voices"/>
                </BASE_PARAMETERS>
                <MASTER>
                  <par value="80" name="volume"/>
                  <par value="64" name="key_shift"/>
                  <par_bool value="yes" name="nrpn_receive"/>
                  <MICROTONAL>
                    <string name="name">12tET</string>
                    <string name="comment">Equal Temperament 12 notes per octave</string>
                    <par_bool value="no" name="invert_up_down"/>
                    <par value="60" name="invert_up_down_center"/>
                    <par_bool value="no" name="enabled"/>
                    <par value="64" name="global_fine_detune"/>
                    <par value="69" name="a_note"/>
                    <par_real value="440.000000" name="a_freq"/>
                  </MICROTONAL>
                  <PART id="0">
                    <par_bool value="yes" name="enabled"/>
                    <par value="96" name="volume"/>
                    <par value="64" name="panning"/>
                    <par value="0" name="min_key"/>
                    <par value="127" name="max_key"/>
                    <par value="64" name="key_shift"/>
                    <par value="0" name="rcv_chn"/>
                    <par value="64" name="velocity_sensing"/>
                    <par value="64" name="velocity_offset"/>
                    <par_bool value="yes" name="note_on"/>
                    <par_bool value="yes" name="poly_mode"/>
                    <par value="0" name="legato_mode"/>
                    <par value="15" name="key_limit"/>
                    <INSTRUMENT>
                      <INFO>
                        <string name="name">bass</string>
                        <string name="author">2010 My?terious</string>
                        <string name="comments">un son de bass bien gras :)</string>
                        <par value="5" name="type"/>
                      </INFO>
                      <INSTRUMENT_KIT>
                        <par value="0" name="kit_mode"/>
                        <par_bool value="no" name="drum_mode"/>
                        <INSTRUMENT_KIT_ITEM id="0">
                          <par_bool value="yes" name="enabled"/>
                          <string name="name"/>
                          <par_bool value="no" name="muted"/>
                          <par value="0" name="min_key"/>
                          <par value="127" name="max_key"/>
                          <par value="0" name="send_to_instrument_effect"/>
                          <par_bool value="yes" name="add_enabled"/>
                          <ADD_SYNTH_PARAMETERS>
                            <par_bool value="yes" name="stereo"/>
                            <AMPLITUDE_PARAMETERS>
                              <par value="90" name="volume"/>
                              <par value="64" name="panning"/>
                              <par value="64" name="velocity_sensing"/>
                              <par value="0" name="punch_strength"/>
                              <par value="60" name="punch_time"/>
                              <par value="64" name="punch_stretch"/>
                              <par value="72" name="punch_velocity_sensing"/>
                              <par value="0" name="harmonic_randomness_grouping"/>
                              <AMPLITUDE_ENVELOPE>
                                <par_bool value="no" name="free_mode"/>
                                <par value="4" name="env_points"/>
                                <par value="2" name="env_sustain"/>
                                <par value="64" name="env_stretch"/>
                                <par_bool value="yes" name="forced_release"/>
                                <par_bool value="no" name="linear_envelope"/>
                                <par value="0" name="A_dt"/>
                                <par value="29" name="D_dt"/>
                                <par value="25" name="R_dt"/>
                                <par value="64" name="A_val"/>
                                <par value="64" name="D_val"/>
                                <par value="107" name="S_val"/>
                                <par value="64" name="R_val"/>
                              </AMPLITUDE_ENVELOPE>
                              <AMPLITUDE_LFO>
                                <par_real value="0.629921" name="freq"/>
                                <par value="0" name="intensity"/>
                                <par value="64" name="start_phase"/>
                                <par value="0" name="lfo_type"/>
                                <par value="0" name="randomness_amplitude"/>
                                <par value="0" name="randomness_frequency"/>
                                <par value="0" name="delay"/>
                                <par value="64" name="stretch"/>
                                <par_bool value="no" name="continous"/>
                              </AMPLITUDE_LFO>
                            </AMPLITUDE_PARAMETERS>
                            <FREQUENCY_PARAMETERS>
                              <par value="8192" name="detune"/>
                              <par value="0" name="coarse_detune"/>
                              <par value="1" name="detune_type"/>
                              <par value="64" name="bandwidth"/>
                              <FREQUENCY_ENVELOPE>
                                <par_bool value="no" name="free_mode"/>
                                <par value="3" name="env_points"/>
                                <par value="1" name="env_sustain"/>
                                <par value="0" name="env_stretch"/>
                                <par_bool value="no" name="forced_release"/>
                                <par_bool value="no" name="linear_envelope"/>
                                <par value="50" name="A_dt"/>
                                <par value="10" name="D_dt"/>
                                <par value="60" name="R_dt"/>
                                <par value="64" name="A_val"/>
                                <par value="64" name="D_val"/>
                                <par value="64" name="S_val"/>
                                <par value="64" name="R_val"/>
                              </FREQUENCY_ENVELOPE>
                              <FREQUENCY_LFO>
                                <par_real value="0.551181" name="freq"/>
                                <par value="0" name="intensity"/>
                                <par value="64" name="start_phase"/>
                                <par value="0" name="lfo_type"/>
                                <par value="0" name="randomness_amplitude"/>
                                <par value="0" name="randomness_frequency"/>
                                <par value="0" name="delay"/>
                                <par value="64" name="stretch"/>
                                <par_bool value="no" name="continous"/>
                              </FREQUENCY_LFO>
                            </FREQUENCY_PARAMETERS>
                            <FILTER_PARAMETERS>
                              <par value="64" name="velocity_sensing_amplitude"/>
                              <par value="64" name="velocity_sensing"/>
                              <FILTER>
                                <par value="0" name="category"/>
                                <par value="0" name="type"/>
                                <par value="127" name="freq"/>
                                <par value="40" name="q"/>
                                <par value="0" name="stages"/>
                                <par value="64" name="freq_track"/>
                                <par value="64" name="gain"/>
                              </FILTER>
                              <FILTER_ENVELOPE>
                                <par_bool value="no" name="free_mode"/>
                                <par value="4" name="env_points"/>
                                <par value="2" name="env_sustain"/>
                                <par value="0" name="env_stretch"/>
                                <par_bool value="yes" name="forced_release"/>
                                <par_bool value="no" name="linear_envelope"/>
                                <par value="40" name="A_dt"/>
                                <par value="70" name="D_dt"/>
                                <par value="0" name="R_dt"/>
                                <par value="64" name="A_val"/>
                                <par value="0" name="D_val"/>
                                <par value="64" name="S_val"/>
                                <par value="55" name="R_val"/>
                              </FILTER_ENVELOPE>
                              <FILTER_LFO>
                                <par_real value="0.414921" name="freq"/>
                                <par value="0" name="intensity"/>
                                <par value="64" name="start_phase"/>
                                <par value="0" name="lfo_type"/>
                                <par value="0" name="randomness_amplitude"/>
                                <par value="0" name="randomness_frequency"/>
                                <par value="0" name="delay"/>
                                <par value="64" name="stretch"/>
                                <par_bool value="no" name="continous"/>
                              </FILTER_LFO>
                            </FILTER_PARAMETERS>
                            <RESONANCE>
                              <par_bool value="no" name="enabled"/>
                            </RESONANCE>
                            <VOICE id="0">
                              <par_bool value="yes" name="enabled"/>
                              <par value="0" name="type"/>
                              <par value="3" name="unison_size"/>
                              <par value="33" name="unison_frequency_spread"/>
                              <par value="64" name="unison_stereo_spread"/>
                              <par value="64" name="unison_vibratto"/>
                              <par value="64" name="unison_vibratto_speed"/>
                              <par value="0" name="unison_invert_phase"/>
                              <par value="127" name="unison_phase_randomness"/>
                              <par value="0" name="delay"/>
                              <par_bool value="yes" name="resonance"/>
                              <par value="-1" name="ext_oscil"/>
                              <par value="-1" name="ext_fm_oscil"/>
                              <par value="64" name="oscil_phase"/>
                              <par value="64" name="oscil_fm_phase"/>
                              <par_bool value="no" name="filter_enabled"/>
                              <par_bool value="no" name="filter_bypass"/>
                              <par value="0" name="fm_enabled"/>
                              <OSCIL>
                                <par value="0" name="harmonic_mag_type"/>
                                <par value="4" name="base_function"/>
                                <par value="64" name="base_function_par"/>
                                <par value="0" name="base_function_modulation"/>
                                <par value="64" name="base_function_modulation_par1"/>
                                <par value="64" name="base_function_modulation_par2"/>
                                <par value="32" name="base_function_modulation_par3"/>
                                <par value="0" name="modulation"/>
                                <par value="64" name="modulation_par1"/>
                                <par value="64" name="modulation_par2"/>
                                <par value="32" name="modulation_par3"/>
                                <par value="64" name="wave_shaping"/>
                                <par value="0" name="wave_shaping_function"/>
                                <par value="0" name="filter_type"/>
                                <par value="64" name="filter_par1"/>
                                <par value="64" name="filter_par2"/>
                                <par value="0" name="filter_before_wave_shaping"/>
                                <par value="0" name="spectrum_adjust_type"/>
                                <par value="64" name="spectrum_adjust_par"/>
                                <par value="64" name="rand"/>
                                <par value="0" name="amp_rand_type"/>
                                <par value="64" name="amp_rand_power"/>
                                <par value="0" name="harmonic_shift"/>
                                <par_bool value="no" name="harmonic_shift_first"/>
                                <par value="0" name="adaptive_harmonics"/>
                                <par value="128" name="adaptive_harmonics_base_frequency"/>
                                <par value="100" name="adaptive_harmonics_power"/>
                                <HARMONICS>
                                  <HARMONIC id="1">
                                    <par value="127" name="mag"/>
                                    <par value="64" name="phase"/>
                                  </HARMONIC>
                                </HARMONICS>
                              </OSCIL>
                              <AMPLITUDE_PARAMETERS>
                                <par value="61" name="panning"/>
                                <par value="100" name="volume"/>
                                <par_bool value="no" name="volume_minus"/>
                                <par value="127" name="velocity_sensing"/>
                                <par_bool value="no" name="amp_envelope_enabled"/>
                                <par_bool value="no" name="amp_lfo_enabled"/>
                              </AMPLITUDE_PARAMETERS>
                              <FREQUENCY_PARAMETERS>
                                <par_bool value="no" name="fixed_freq"/>
                                <par value="0" name="fixed_freq_et"/>
                                <par value="8192" name="detune"/>
                                <par value="0" name="coarse_detune"/>
                                <par value="0" name="detune_type"/>
                                <par_bool value="no" name="freq_envelope_enabled"/>
                                <par_bool value="no" name="freq_lfo_enabled"/>
                              </FREQUENCY_PARAMETERS>
                            </VOICE>
                            <VOICE id="1">
                              <par_bool value="yes" name="enabled"/>
                              <par value="0" name="type"/>
                              <par value="1" name="unison_size"/>
                              <par value="60" name="unison_frequency_spread"/>
                              <par value="64" name="unison_stereo_spread"/>
                              <par value="64" name="unison_vibratto"/>
                              <par value="64" name="unison_vibratto_speed"/>
                              <par value="0" name="unison_invert_phase"/>
                              <par value="127" name="unison_phase_randomness"/>
                              <par value="0" name="delay"/>
                              <par_bool value="yes" name="resonance"/>
                              <par value="-1" name="ext_oscil"/>
                              <par value="-1" name="ext_fm_oscil"/>
                              <par value="64" name="oscil_phase"/>
                              <par value="64" name="oscil_fm_phase"/>
                              <par_bool value="no" name="filter_enabled"/>
                              <par_bool value="no" name="filter_bypass"/>
                              <par value="0" name="fm_enabled"/>
                              <OSCIL>
                                <par value="0" name="harmonic_mag_type"/>
                                <par value="4" name="base_function"/>
                                <par value="64" name="base_function_par"/>
                                <par value="0" name="base_function_modulation"/>
                                <par value="64" name="base_function_modulation_par1"/>
                                <par value="64" name="base_function_modulation_par2"/>
                                <par value="32" name="base_function_modulation_par3"/>
                                <par value="0" name="modulation"/>
                                <par value="64" name="modulation_par1"/>
                                <par value="64" name="modulation_par2"/>
                                <par value="32" name="modulation_par3"/>
                                <par value="64" name="wave_shaping"/>
                                <par value="0" name="wave_shaping_function"/>
                                <par value="0" name="filter_type"/>
                                <par value="64" name="filter_par1"/>
                                <par value="64" name="filter_par2"/>
                                <par value="0" name="filter_before_wave_shaping"/>
                                <par value="0" name="spectrum_adjust_type"/>
                                <par value="64" name="spectrum_adjust_par"/>
                                <par value="64" name="rand"/>
                                <par value="0" name="amp_rand_type"/>
                                <par value="64" name="amp_rand_power"/>
                                <par value="0" name="harmonic_shift"/>
                                <par_bool value="no" name="harmonic_shift_first"/>
                                <par value="0" name="adaptive_harmonics"/>
                                <par value="128" name="adaptive_harmonics_base_frequency"/>
                                <par value="100" name="adaptive_harmonics_power"/>
                                <HARMONICS>
                                  <HARMONIC id="1">
                                    <par value="127" name="mag"/>
                                    <par value="64" name="phase"/>
                                  </HARMONIC>
                                </HARMONICS>
                              </OSCIL>
                              <AMPLITUDE_PARAMETERS>
                                <par value="59" name="panning"/>
                                <par value="100" name="volume"/>
                                <par_bool value="no" name="volume_minus"/>
                                <par value="127" name="velocity_sensing"/>
                                <par_bool value="no" name="amp_envelope_enabled"/>
                                <par_bool value="no" name="amp_lfo_enabled"/>
                              </AMPLITUDE_PARAMETERS>
                              <FREQUENCY_PARAMETERS>
                                <par_bool value="no" name="fixed_freq"/>
                                <par value="0" name="fixed_freq_et"/>
                                <par value="11567" name="detune"/>
                                <par value="0" name="coarse_detune"/>
                                <par value="0" name="detune_type"/>
                                <par_bool value="no" name="freq_envelope_enabled"/>
                                <par_bool value="no" name="freq_lfo_enabled"/>
                              </FREQUENCY_PARAMETERS>
                            </VOICE>
                            <VOICE id="2">
                              <par_bool value="yes" name="enabled"/>
                              <par value="0" name="type"/>
                              <par value="1" name="unison_size"/>
                              <par value="60" name="unison_frequency_spread"/>
                              <par value="64" name="unison_stereo_spread"/>
                              <par value="64" name="unison_vibratto"/>
                              <par value="64" name="unison_vibratto_speed"/>
                              <par value="0" name="unison_invert_phase"/>
                              <par value="127" name="unison_phase_randomness"/>
                              <par value="0" name="delay"/>
                              <par_bool value="yes" name="resonance"/>
                              <par value="-1" name="ext_oscil"/>
                              <par value="-1" name="ext_fm_oscil"/>
                              <par value="64" name="oscil_phase"/>
                              <par value="64" name="oscil_fm_phase"/>
                              <par_bool value="no" name="filter_enabled"/>
                              <par_bool value="no" name="filter_bypass"/>
                              <par value="0" name="fm_enabled"/>
                              <OSCIL>
                                <par value="0" name="harmonic_mag_type"/>
                                <par value="0" name="base_function"/>
                                <par value="64" name="base_function_par"/>
                                <par value="0" name="base_function_modulation"/>
                                <par value="64" name="base_function_modulation_par1"/>
                                <par value="64" name="base_function_modulation_par2"/>
                                <par value="32" name="base_function_modulation_par3"/>
                                <par value="0" name="modulation"/>
                                <par value="64" name="modulation_par1"/>
                                <par value="64" name="modulation_par2"/>
                                <par value="32" name="modulation_par3"/>
                                <par value="64" name="wave_shaping"/>
                                <par value="0" name="wave_shaping_function"/>
                                <par value="0" name="filter_type"/>
                                <par value="64" name="filter_par1"/>
                                <par value="64" name="filter_par2"/>
                                <par value="0" name="filter_before_wave_shaping"/>
                                <par value="0" name="spectrum_adjust_type"/>
                                <par value="64" name="spectrum_adjust_par"/>
                                <par value="64" name="rand"/>
                                <par value="0" name="amp_rand_type"/>
                                <par value="64" name="amp_rand_power"/>
                                <par value="0" name="harmonic_shift"/>
                                <par_bool value="no" name="harmonic_shift_first"/>
                                <par value="0" name="adaptive_harmonics"/>
                                <par value="128" name="adaptive_harmonics_base_frequency"/>
                                <par value="100" name="adaptive_harmonics_power"/>
                                <HARMONICS>
                                  <HARMONIC id="1">
                                    <par value="127" name="mag"/>
                                    <par value="64" name="phase"/>
                                  </HARMONIC>
                                </HARMONICS>
                              </OSCIL>
                              <AMPLITUDE_PARAMETERS>
                                <par value="64" name="panning"/>
                                <par value="100" name="volume"/>
                                <par_bool value="no" name="volume_minus"/>
                                <par value="127" name="velocity_sensing"/>
                                <par_bool value="no" name="amp_envelope_enabled"/>
                                <par_bool value="no" name="amp_lfo_enabled"/>
                              </AMPLITUDE_PARAMETERS>
                              <FREQUENCY_PARAMETERS>
                                <par_bool value="no" name="fixed_freq"/>
                                <par value="0" name="fixed_freq_et"/>
                                <par value="8192" name="detune"/>
                                <par value="0" name="coarse_detune"/>
                                <par value="0" name="detune_type"/>
                                <par_bool value="no" name="freq_envelope_enabled"/>
                                <par_bool value="no" name="freq_lfo_enabled"/>
                              </FREQUENCY_PARAMETERS>
                            </VOICE>
                            <VOICE id="3">
                              <par_bool value="no" name="enabled"/>
                            </VOICE>
                            <VOICE id="4">
                              <par_bool value="no" name="enabled"/>
                            </VOICE>
                            <VOICE id="5">
                              <par_bool value="no" name="enabled"/>
                            </VOICE>
                            <VOICE id="6">
                              <par_bool value="no" name="enabled"/>
                            </VOICE>
                            <VOICE id="7">
                              <par_bool value="no" name="enabled"/>
                            </VOICE>
                          </ADD_SYNTH_PARAMETERS>
                          <par_bool value="no" name="sub_enabled"/>
                          <par_bool value="no" name="pad_enabled"/>
                        </INSTRUMENT_KIT_ITEM>
                        <INSTRUMENT_KIT_ITEM id="1">
                          <par_bool value="no" name="enabled"/>
                        </INSTRUMENT_KIT_ITEM>
                        <INSTRUMENT_KIT_ITEM id="2">
                          <par_bool value="no" name="enabled"/>
                        </INSTRUMENT_KIT_ITEM>
                        <INSTRUMENT_KIT_ITEM id="3">
                          <par_bool value="no" name="enabled"/>
                        </INSTRUMENT_KIT_ITEM>
                        <INSTRUMENT_KIT_ITEM id="4">
                          <par_bool value="no" name="enabled"/>
                        </INSTRUMENT_KIT_ITEM>
                        <INSTRUMENT_KIT_ITEM id="5">
                          <par_bool value="no" name="enabled"/>
                        </INSTRUMENT_KIT_ITEM>
                        <INSTRUMENT_KIT_ITEM id="6">
                          <par_bool value="no" name="enabled"/>
                        </INSTRUMENT_KIT_ITEM>
                        <INSTRUMENT_KIT_ITEM id="7">
                          <par_bool value="no" name="enabled"/>
                        </INSTRUMENT_KIT_ITEM>
                        <INSTRUMENT_KIT_ITEM id="8">
                          <par_bool value="no" name="enabled"/>
                        </INSTRUMENT_KIT_ITEM>
                        <INSTRUMENT_KIT_ITEM id="9">
                          <par_bool value="no" name="enabled"/>
                        </INSTRUMENT_KIT_ITEM>
                        <INSTRUMENT_KIT_ITEM id="10">
                          <par_bool value="no" name="enabled"/>
                        </INSTRUMENT_KIT_ITEM>
                        <INSTRUMENT_KIT_ITEM id="11">
                          <par_bool value="no" name="enabled"/>
                        </INSTRUMENT_KIT_ITEM>
                        <INSTRUMENT_KIT_ITEM id="12">
                          <par_bool value="no" name="enabled"/>
                        </INSTRUMENT_KIT_ITEM>
                        <INSTRUMENT_KIT_ITEM id="13">
                          <par_bool value="no" name="enabled"/>
                        </INSTRUMENT_KIT_ITEM>
                        <INSTRUMENT_KIT_ITEM id="14">
                          <par_bool value="no" name="enabled"/>
                        </INSTRUMENT_KIT_ITEM>
                        <INSTRUMENT_KIT_ITEM id="15">
                          <par_bool value="no" name="enabled"/>
                        </INSTRUMENT_KIT_ITEM>
                      </INSTRUMENT_KIT>
                      <INSTRUMENT_EFFECTS>
                        <INSTRUMENT_EFFECT id="0">
                          <EFFECT>
                            <par value="3" name="type"/>
                            <par value="9" name="preset"/>
                            <EFFECT_PARAMETERS>
                              <par_no id="0">
                                <par value="64" name="par"/>
                              </par_no>
                              <par_no id="1">
                                <par value="64" name="par"/>
                              </par_no>
                              <par_no id="2">
                                <par value="55" name="par"/>
                              </par_no>
                              <par_no id="3">
                                <par value="105" name="par"/>
                              </par_no>
                              <par_no id="5">
                                <par value="24" name="par"/>
                              </par_no>
                              <par_no id="6">
                                <par value="39" name="par"/>
                              </par_no>
                              <par_no id="7">
                                <par value="19" name="par"/>
                              </par_no>
                              <par_no id="8">
                                <par value="17" name="par"/>
                              </par_no>
                              <par_no id="11">
                                <par value="1" name="par"/>
                              </par_no>
                            </EFFECT_PARAMETERS>
                          </EFFECT>
                          <par value="0" name="route"/>
                          <par_bool value="no" name="bypass"/>
                        </INSTRUMENT_EFFECT>
                        <INSTRUMENT_EFFECT id="1">
                          <EFFECT>
                            <par value="0" name="type"/>
                          </EFFECT>
                          <par value="0" name="route"/>
                          <par_bool value="no" name="bypass"/>
                        </INSTRUMENT_EFFECT>
                        <INSTRUMENT_EFFECT id="2">
                          <EFFECT>
                            <par value="0" name="type"/>
                          </EFFECT>
                          <par value="0" name="route"/>
                          <par_bool value="no" name="bypass"/>
                        </INSTRUMENT_EFFECT>
                      </INSTRUMENT_EFFECTS>
                    </INSTRUMENT>
                    <CONTROLLER>
                      <par value="100" name="pitchwheel_bendrange"/>
                      <par_bool value="yes" name="expression_receive"/>
                      <par value="64" name="panning_depth"/>
                      <par value="64" name="filter_cutoff_depth"/>
                      <par value="64" name="filter_q_depth"/>
                      <par value="64" name="bandwidth_depth"/>
                      <par value="80" name="mod_wheel_depth"/>
                      <par_bool value="no" name="mod_wheel_exponential"/>
                      <par_bool value="yes" name="fm_amp_receive"/>
                      <par_bool value="yes" name="volume_receive"/>
                      <par_bool value="yes" name="sustain_receive"/>
                      <par_bool value="yes" name="portamento_receive"/>
                      <par value="64" name="portamento_time"/>
                      <par value="3" name="portamento_pitchthresh"/>
                      <par value="1" name="portamento_pitchthreshtype"/>
                      <par value="0" name="portamento_portamento"/>
                      <par value="64" name="portamento_updowntimestretch"/>
                      <par value="0" name="portamento_proportional"/>
                      <par value="80" name="portamento_proprate"/>
                      <par value="90" name="portamento_propdepth"/>
                      <par value="64" name="resonance_center_depth"/>
                      <par value="64" name="resonance_bandwidth_depth"/>
                    </CONTROLLER>
                  </PART>
                  <PART id="1">
                    <par_bool value="no" name="enabled"/>
                  </PART>
                  <PART id="2">
                    <par_bool value="no" name="enabled"/>
                  </PART>
                  <PART id="3">
                    <par_bool value="no" name="enabled"/>
                  </PART>
                  <PART id="4">
                    <par_bool value="no" name="enabled"/>
                  </PART>
                  <PART id="5">
                    <par_bool value="no" name="enabled"/>
                  </PART>
                  <PART id="6">
                    <par_bool value="no" name="enabled"/>
                  </PART>
                  <PART id="7">
                    <par_bool value="no" name="enabled"/>
                  </PART>
                  <PART id="8">
                    <par_bool value="no" name="enabled"/>
                  </PART>
                  <PART id="9">
                    <par_bool value="no" name="enabled"/>
                  </PART>
                  <PART id="10">
                    <par_bool value="no" name="enabled"/>
                  </PART>
                  <PART id="11">
                    <par_bool value="no" name="enabled"/>
                  </PART>
                  <PART id="12">
                    <par_bool value="no" name="enabled"/>
                  </PART>
                  <PART id="13">
                    <par_bool value="no" name="enabled"/>
                  </PART>
                  <PART id="14">
                    <par_bool value="no" name="enabled"/>
                  </PART>
                  <PART id="15">
                    <par_bool value="no" name="enabled"/>
                  </PART>
                  <SYSTEM_EFFECTS>
                    <SYSTEM_EFFECT id="0">
                      <EFFECT>
                        <par value="0" name="type"/>
                      </EFFECT>
                      <VOLUME id="0">
                        <par value="0" name="vol"/>
                      </VOLUME>
                      <VOLUME id="1">
                        <par value="0" name="vol"/>
                      </VOLUME>
                      <VOLUME id="2">
                        <par value="0" name="vol"/>
                      </VOLUME>
                      <VOLUME id="3">
                        <par value="0" name="vol"/>
                      </VOLUME>
                      <VOLUME id="4">
                        <par value="0" name="vol"/>
                      </VOLUME>
                      <VOLUME id="5">
                        <par value="0" name="vol"/>
                      </VOLUME>
                      <VOLUME id="6">
                        <par value="0" name="vol"/>
                      </VOLUME>
                      <VOLUME id="7">
                        <par value="0" name="vol"/>
                      </VOLUME>
                      <VOLUME id="8">
                        <par value="0" name="vol"/>
                      </VOLUME>
                      <VOLUME id="9">
                        <par value="0" name="vol"/>
                      </VOLUME>
                      <VOLUME id="10">
                        <par value="0" name="vol"/>
                      </VOLUME>
                      <VOLUME id="11">
                        <par value="0" name="vol"/>
                      </VOLUME>
                      <VOLUME id="12">
                        <par value="0" name="vol"/>
                      </VOLUME>
                      <VOLUME id="13">
                        <par value="0" name="vol"/>
                      </VOLUME>
                      <VOLUME id="14">
                        <par value="0" name="vol"/>
                      </VOLUME>
                      <VOLUME id="15">
                        <par value="0" name="vol"/>
                      </VOLUME>
                      <SENDTO id="1">
                        <par value="0" name="send_vol"/>
                      </SENDTO>
                      <SENDTO id="2">
                        <par value="0" name="send_vol"/>
                      </SENDTO>
                      <SENDTO id="3">
                        <par value="0" name="send_vol"/>
                      </SENDTO>
                    </SYSTEM_EFFECT>
                    <SYSTEM_EFFECT id="1">
                      <EFFECT>
                        <par value="0" name="type"/>
                      </EFFECT>
                      <VOLUME id="0">
                        <par value="0" name="vol"/>
                      </VOLUME>
                      <VOLUME id="1">
                        <par value="0" name="vol"/>
                      </VOLUME>
                      <VOLUME id="2">
                        <par value="0" name="vol"/>
                      </VOLUME>
                      <VOLUME id="3">
                        <par value="0" name="vol"/>
                      </VOLUME>
                      <VOLUME id="4">
                        <par value="0" name="vol"/>
                      </VOLUME>
                      <VOLUME id="5">
                        <par value="0" name="vol"/>
                      </VOLUME>
                      <VOLUME id="6">
                        <par value="0" name="vol"/>
                      </VOLUME>
                      <VOLUME id="7">
                        <par value="0" name="vol"/>
                      </VOLUME>
                      <VOLUME id="8">
                        <par value="0" name="vol"/>
                      </VOLUME>
                      <VOLUME id="9">
                        <par value="0" name="vol"/>
                      </VOLUME>
                      <VOLUME id="10">
                        <par value="0" name="vol"/>
                      </VOLUME>
                      <VOLUME id="11">
                        <par value="0" name="vol"/>
                      </VOLUME>
                      <VOLUME id="12">
                        <par value="0" name="vol"/>
                      </VOLUME>
                      <VOLUME id="13">
                        <par value="0" name="vol"/>
                      </VOLUME>
                      <VOLUME id="14">
                        <par value="0" name="vol"/>
                      </VOLUME>
                      <VOLUME id="15">
                        <par value="0" name="vol"/>
                      </VOLUME>
                      <SENDTO id="2">
                        <par value="0" name="send_vol"/>
                      </SENDTO>
                      <SENDTO id="3">
                        <par value="0" name="send_vol"/>
                      </SENDTO>
                    </SYSTEM_EFFECT>
                    <SYSTEM_EFFECT id="2">
                      <EFFECT>
                        <par value="0" name="type"/>
                      </EFFECT>
                      <VOLUME id="0">
                        <par value="0" name="vol"/>
                      </VOLUME>
                      <VOLUME id="1">
                        <par value="0" name="vol"/>
                      </VOLUME>
                      <VOLUME id="2">
                        <par value="0" name="vol"/>
                      </VOLUME>
                      <VOLUME id="3">
                        <par value="0" name="vol"/>
                      </VOLUME>
                      <VOLUME id="4">
                        <par value="0" name="vol"/>
                      </VOLUME>
                      <VOLUME id="5">
                        <par value="0" name="vol"/>
                      </VOLUME>
                      <VOLUME id="6">
                        <par value="0" name="vol"/>
                      </VOLUME>
                      <VOLUME id="7">
                        <par value="0" name="vol"/>
                      </VOLUME>
                      <VOLUME id="8">
                        <par value="0" name="vol"/>
                      </VOLUME>
                      <VOLUME id="9">
                        <par value="0" name="vol"/>
                      </VOLUME>
                      <VOLUME id="10">
                        <par value="0" name="vol"/>
                      </VOLUME>
                      <VOLUME id="11">
                        <par value="0" name="vol"/>
                      </VOLUME>
                      <VOLUME id="12">
                        <par value="0" name="vol"/>
                      </VOLUME>
                      <VOLUME id="13">
                        <par value="0" name="vol"/>
                      </VOLUME>
                      <VOLUME id="14">
                        <par value="0" name="vol"/>
                      </VOLUME>
                      <VOLUME id="15">
                        <par value="0" name="vol"/>
                      </VOLUME>
                      <SENDTO id="3">
                        <par value="0" name="send_vol"/>
                      </SENDTO>
                    </SYSTEM_EFFECT>
                    <SYSTEM_EFFECT id="3">
                      <EFFECT>
                        <par value="0" name="type"/>
                      </EFFECT>
                      <VOLUME id="0">
                        <par value="0" name="vol"/>
                      </VOLUME>
                      <VOLUME id="1">
                        <par value="0" name="vol"/>
                      </VOLUME>
                      <VOLUME id="2">
                        <par value="0" name="vol"/>
                      </VOLUME>
                      <VOLUME id="3">
                        <par value="0" name="vol"/>
                      </VOLUME>
                      <VOLUME id="4">
                        <par value="0" name="vol"/>
                      </VOLUME>
                      <VOLUME id="5">
                        <par value="0" name="vol"/>
                      </VOLUME>
                      <VOLUME id="6">
                        <par value="0" name="vol"/>
                      </VOLUME>
                      <VOLUME id="7">
                        <par value="0" name="vol"/>
                      </VOLUME>
                      <VOLUME id="8">
                        <par value="0" name="vol"/>
                      </VOLUME>
                      <VOLUME id="9">
                        <par value="0" name="vol"/>
                      </VOLUME>
                      <VOLUME id="10">
                        <par value="0" name="vol"/>
                      </VOLUME>
                      <VOLUME id="11">
                        <par value="0" name="vol"/>
                      </VOLUME>
                      <VOLUME id="12">
                        <par value="0" name="vol"/>
                      </VOLUME>
                      <VOLUME id="13">
                        <par value="0" name="vol"/>
                      </VOLUME>
                      <VOLUME id="14">
                        <par value="0" name="vol"/>
                      </VOLUME>
                      <VOLUME id="15">
                        <par value="0" name="vol"/>
                      </VOLUME>
                    </SYSTEM_EFFECT>
                  </SYSTEM_EFFECTS>
                  <INSERTION_EFFECTS>
                    <INSERTION_EFFECT id="0">
                      <par value="-1" name="part"/>
                      <EFFECT>
                        <par value="0" name="type"/>
                      </EFFECT>
                    </INSERTION_EFFECT>
                    <INSERTION_EFFECT id="1">
                      <par value="-1" name="part"/>
                      <EFFECT>
                        <par value="0" name="type"/>
                      </EFFECT>
                    </INSERTION_EFFECT>
                    <INSERTION_EFFECT id="2">
                      <par value="-1" name="part"/>
                      <EFFECT>
                        <par value="0" name="type"/>
                      </EFFECT>
                    </INSERTION_EFFECT>
                    <INSERTION_EFFECT id="3">
                      <par value="-1" name="part"/>
                      <EFFECT>
                        <par value="0" name="type"/>
                      </EFFECT>
                    </INSERTION_EFFECT>
                    <INSERTION_EFFECT id="4">
                      <par value="-1" name="part"/>
                      <EFFECT>
                        <par value="0" name="type"/>
                      </EFFECT>
                    </INSERTION_EFFECT>
                    <INSERTION_EFFECT id="5">
                      <par value="-1" name="part"/>
                      <EFFECT>
                        <par value="0" name="type"/>
                      </EFFECT>
                    </INSERTION_EFFECT>
                    <INSERTION_EFFECT id="6">
                      <par value="-1" name="part"/>
                      <EFFECT>
                        <par value="0" name="type"/>
                      </EFFECT>
                    </INSERTION_EFFECT>
                    <INSERTION_EFFECT id="7">
                      <par value="-1" name="part"/>
                      <EFFECT>
                        <par value="0" name="type"/>
                      </EFFECT>
                    </INSERTION_EFFECT>
                  </INSERTION_EFFECTS>
                </MASTER>
              </ZynAddSubFX-data>
            </zynaddsubfx>
          </instrument>
          <eldata fcut="14000" ftype="0" fwet="0" fres="0.5">
            <elvol dec="0.5" ctlenvamt="0" latt="0" sustain="0.5" amt="0" lamt="0" pdel="0" rel="0.1" lshp="0" lpdel="0" hold="0.5" lspd_numerator="4" lspd_denominator="4" att="0" x100="0" lspd="0.1" lspd_syncmode="0" userwavefile=""/>
            <elcut dec="0.5" ctlenvamt="0" latt="0" sustain="0.5" amt="0" lamt="0" pdel="0" rel="0.1" lshp="0" lpdel="0" hold="0.5" lspd_numerator="4" lspd_denominator="4" att="0" x100="0" lspd="0.1" lspd_syncmode="0" userwavefile=""/>
            <elres dec="0.5" ctlenvamt="0" latt="0" sustain="0.5" amt="0" lamt="0" pdel="0" rel="0.1" lshp="0" lpdel="0" hold="0.5" lspd_numerator="4" lspd_denominator="4" att="0" x100="0" lspd="0.1" lspd_syncmode="0" userwavefile=""/>
          </eldata>
          <chordcreator chordrange="1" chord-enabled="0" chord="0"/>
          <arpeggiator arptime="200" arptime_syncmode="0" arpmode="0" arptime_numerator="4" arptime_denominator="4" arpdir="0" arpgate="100" arprange="1" arp-enabled="0" arpmiss="0" arp="0" arpcycle="0" arpskip="0"/>
          <midiport inputcontroller="0" fixedoutputnote="-1" writable="0" basevelocity="63" outputprogram="1" outputcontroller="0" fixedinputvelocity="-1" outputchannel="1" fixedoutputvelocity="-1" readable="0" inputchannel="0"/>
          <fxchain numofeffects="1" enabled="1">
            <effect gate="0" on="1" autoquit_syncmode="0" autoquit="1" name="ladspaeffect" autoquit_numerator="4" wet="1" autoquit_denominator="4">
              <ladspacontrols ports="10">
                <port00 data="20"/>
                <port01 data="0"/>
                <port02 data="10"/>
                <port03 data="0"/>
                <port04 data="0"/>
                <port05 data="0"/>
                <port06 data="0"/>
                <port07 data="0"/>
                <port08 data="1"/>
                <port09 data="0"/>
              </ladspacontrols>
              <key>
                <attribute value="tap_echo" name="file"/>
                <attribute value="tap_stereo_echo" name="plugin"/>
              </key>
            </effect>
          </fxchain>
        </instrumenttrack>
        <pattern name="bass" pos="15360" muted="0" type="1" steps="16">
          <note key="40" pan="0" pos="0" len="12" vol="100"/>
          <note key="43" pan="0" pos="12" len="12" vol="100"/>
          <note key="47" pan="0" pos="24" len="12" vol="100"/>
          <note key="40" pan="0" pos="36" len="12" vol="100"/>
          <note key="43" pan="0" pos="48" len="12" vol="100"/>
          <note key="47" pan="0" pos="60" len="12" vol="100"/>
          <note key="40" pan="0" pos="72" len="12" vol="100"/>
          <note key="43" pan="0" pos="84" len="12" vol="100"/>
          <note key="47" pan="0" pos="96" len="12" vol="100"/>
          <note key="40" pan="0" pos="108" len="12" vol="100"/>
          <note key="43" pan="0" pos="120" len="12" vol="100"/>
          <note key="47" pan="0" pos="132" len="12" vol="100"/>
          <note key="40" pan="0" pos="144" len="12" vol="100"/>
          <note key="43" pan="0" pos="156" len="12" vol="100"/>
          <note key="48" pan="0" pos="168" len="12" vol="100"/>
          <note key="43" pan="0" pos="180" len="12" vol="100"/>
          <note key="40" pan="0" pos="192" len="12" vol="100"/>
          <note key="43" pan="0" pos="204" len="12" vol="100"/>
          <note key="47" pan="0" pos="216" len="12" vol="100"/>
          <note key="40" pan="0" pos="228" len="12" vol="100"/>
          <note key="43" pan="0" pos="240" len="12" vol="100"/>
          <note key="47" pan="0" pos="252" len="12" vol="100"/>
          <note key="40" pan="0" pos="264" len="12" vol="100"/>
          <note key="43" pan="0" pos="276" len="12" vol="100"/>
          <note key="47" pan="0" pos="288" len="12" vol="100"/>
          <note key="40" pan="0" pos="300" len="12" vol="100"/>
          <note key="43" pan="0" pos="312" len="12" vol="100"/>
          <note key="47" pan="0" pos="324" len="12" vol="100"/>
          <note key="40" pan="0" pos="336" len="12" vol="100"/>
          <note key="43" pan="0" pos="348" len="12" vol="100"/>
          <note key="48" pan="0" pos="360" len="12" vol="100"/>
          <note key="43" pan="0" pos="372" len="12" vol="100"/>
          <note key="40" pan="0" pos="384" len="12" vol="100"/>
          <note key="43" pan="0" pos="396" len="12" vol="100"/>
          <note key="47" pan="0" pos="408" len="12" vol="100"/>
          <note key="40" pan="0" pos="420" len="12" vol="100"/>
          <note key="43" pan="0" pos="432" len="12" vol="100"/>
          <note key="47" pan="0" pos="444" len="12" vol="100"/>
          <note key="40" pan="0" pos="456" len="12" vol="100"/>
          <note key="43" pan="0" pos="468" len="12" vol="100"/>
          <note key="47" pan="0" pos="480" len="12" vol="100"/>
          <note key="40" pan="0" pos="492" len="12" vol="100"/>
          <note key="43" pan="0" pos="504" len="12" vol="100"/>
          <note key="47" pan="0" pos="516" len="12" vol="100"/>
          <note key="40" pan="0" pos="528" len="12" vol="100"/>
          <note key="43" pan="0" pos="540" len="12" vol="100"/>
          <note key="48" pan="0" pos="552" len="12" vol="100"/>
          <note key="43" pan="0" pos="564" len="12" vol="100"/>
          <note key="40" pan="0" pos="576" len="12" vol="100"/>
          <note key="43" pan="0" pos="588" len="12" vol="100"/>
          <note key="47" pan="0" pos="600" len="12" vol="100"/>
          <note key="40" pan="0" pos="612" len="12" vol="100"/>
          <note key="43" pan="0" pos="624" len="12" vol="100"/>
          <note key="47" pan="0" pos="636" len="12" vol="100"/>
          <note key="40" pan="0" pos="648" len="12" vol="100"/>
          <note key="43" pan="0" pos="660" len="12" vol="100"/>
          <note key="47" pan="0" pos="672" len="12" vol="100"/>
          <note key="40" pan="0" pos="684" len="12" vol="100"/>
          <note key="43" pan="0" pos="696" len="12" vol="100"/>
          <note key="47" pan="0" pos="708" len="12" vol="100"/>
          <note key="40" pan="0" pos="720" len="12" vol="100"/>
          <note key="43" pan="0" pos="732" len="12" vol="100"/>
          <note key="48" pan="0" pos="744" len="12" vol="100"/>
          <note key="43" pan="0" pos="756" len="12" vol="100"/>
          <note key="40" pan="0" pos="768" len="12" vol="100"/>
          <note key="43" pan="0" pos="780" len="12" vol="100"/>
          <note key="47" pan="0" pos="792" len="12" vol="100"/>
          <note key="40" pan="0" pos="804" len="12" vol="100"/>
          <note key="43" pan="0" pos="816" len="12" vol="100"/>
          <note key="47" pan="0" pos="828" len="12" vol="100"/>
          <note key="40" pan="0" pos="840" len="12" vol="100"/>
          <note key="43" pan="0" pos="852" len="12" vol="100"/>
          <note key="47" pan="0" pos="864" len="12" vol="100"/>
          <note key="40" pan="0" pos="876" len="12" vol="100"/>
          <note key="43" pan="0" pos="888" len="12" vol="100"/>
          <note key="47" pan="0" pos="900" len="12" vol="100"/>
          <note key="40" pan="0" pos="912" len="12" vol="100"/>
          <note key="43" pan="0" pos="924" len="12" vol="100"/>
          <note key="48" pan="0" pos="936" len="12" vol="100"/>
          <note key="43" pan="0" pos="948" len="12" vol="100"/>
          <note key="40" pan="0" pos="960" len="12" vol="100"/>
          <note key="43" pan="0" pos="972" len="12" vol="100"/>
          <note key="47" pan="0" pos="984" len="12" vol="100"/>
          <note key="40" pan="0" pos="996" len="12" vol="100"/>
          <note key="43" pan="0" pos="1008" len="12" vol="100"/>
          <note key="47" pan="0" pos="1020" len="12" vol="100"/>
          <note key="40" pan="0" pos="1032" len="12" vol="100"/>
          <note key="43" pan="0" pos="1044" len="12" vol="100"/>
          <note key="47" pan="0" pos="1056" len="12" vol="100"/>
          <note key="40" pan="0" pos="1068" len="12" vol="100"/>
          <note key="43" pan="0" pos="1080" len="12" vol="100"/>
          <note key="47" pan="0" pos="1092" len="12" vol="100"/>
          <note key="40" pan="0" pos="1104" len="12" vol="100"/>
          <note key="43" pan="0" pos="1116" len="12" vol="100"/>
          <note key="48" pan="0" pos="1128" len="12" vol="100"/>
          <note key="43" pan="0" pos="1140" len="12" vol="100"/>
          <note key="40" pan="0" pos="1152" len="12" vol="100"/>
          <note key="43" pan="0" pos="1164" len="12" vol="100"/>
          <note key="47" pan="0" pos="1176" len="12" vol="100"/>
          <note key="40" pan="0" pos="1188" len="12" vol="100"/>
          <note key="43" pan="0" pos="1200" len="12" vol="100"/>
          <note key="47" pan="0" pos="1212" len="12" vol="100"/>
          <note key="40" pan="0" pos="1224" len="12" vol="100"/>
          <note key="43" pan="0" pos="1236" len="12" vol="100"/>
          <note key="47" pan="0" pos="1248" len="12" vol="100"/>
          <note key="40" pan="0" pos="1260" len="12" vol="100"/>
          <note key="43" pan="0" pos="1272" len="12" vol="100"/>
          <note key="47" pan="0" pos="1284" len="12" vol="100"/>
          <note key="40" pan="0" pos="1296" len="12" vol="100"/>
          <note key="43" pan="0" pos="1308" len="12" vol="100"/>
          <note key="48" pan="0" pos="1320" len="12" vol="100"/>
          <note key="43" pan="0" pos="1332" len="12" vol="100"/>
          <note key="40" pan="0" pos="1344" len="12" vol="100"/>
          <note key="43" pan="0" pos="1356" len="12" vol="100"/>
          <note key="47" pan="0" pos="1368" len="12" vol="100"/>
          <note key="40" pan="0" pos="1380" len="12" vol="100"/>
          <note key="43" pan="0" pos="1392" len="12" vol="100"/>
          <note key="47" pan="0" pos="1404" len="12" vol="100"/>
          <note key="40" pan="0" pos="1416" len="12" vol="100"/>
          <note key="43" pan="0" pos="1428" len="12" vol="100"/>
          <note key="47" pan="0" pos="1440" len="12" vol="100"/>
          <note key="40" pan="0" pos="1452" len="12" vol="100"/>
          <note key="43" pan="0" pos="1464" len="12" vol="100"/>
          <note key="47" pan="0" pos="1476" len="12" vol="100"/>
          <note key="40" pan="0" pos="1488" len="12" vol="100"/>
          <note key="43" pan="0" pos="1500" len="12" vol="100"/>
          <note key="48" pan="0" pos="1512" len="12" vol="100"/>
          <note key="43" pan="0" pos="1524" len="12" vol="100"/>
        </pattern>
        <pattern name="bass" pos="16896" muted="0" type="1" steps="16">
          <note key="40" pan="0" pos="0" len="12" vol="100"/>
          <note key="43" pan="0" pos="12" len="12" vol="100"/>
          <note key="47" pan="0" pos="24" len="12" vol="100"/>
          <note key="40" pan="0" pos="36" len="12" vol="100"/>
          <note key="43" pan="0" pos="48" len="12" vol="100"/>
          <note key="47" pan="0" pos="60" len="12" vol="100"/>
          <note key="40" pan="0" pos="72" len="12" vol="100"/>
          <note key="43" pan="0" pos="84" len="12" vol="100"/>
          <note key="47" pan="0" pos="96" len="12" vol="100"/>
          <note key="40" pan="0" pos="108" len="12" vol="100"/>
          <note key="43" pan="0" pos="120" len="12" vol="100"/>
          <note key="47" pan="0" pos="132" len="12" vol="100"/>
          <note key="40" pan="0" pos="144" len="12" vol="100"/>
          <note key="43" pan="0" pos="156" len="12" vol="100"/>
          <note key="48" pan="0" pos="168" len="12" vol="100"/>
          <note key="43" pan="0" pos="180" len="12" vol="100"/>
          <note key="40" pan="0" pos="192" len="12" vol="100"/>
          <note key="43" pan="0" pos="204" len="12" vol="100"/>
          <note key="47" pan="0" pos="216" len="12" vol="100"/>
          <note key="40" pan="0" pos="228" len="12" vol="100"/>
          <note key="43" pan="0" pos="240" len="12" vol="100"/>
          <note key="47" pan="0" pos="252" len="12" vol="100"/>
          <note key="40" pan="0" pos="264" len="12" vol="100"/>
          <note key="43" pan="0" pos="276" len="12" vol="100"/>
          <note key="47" pan="0" pos="288" len="12" vol="100"/>
          <note key="40" pan="0" pos="300" len="12" vol="100"/>
          <note key="43" pan="0" pos="312" len="12" vol="100"/>
          <note key="47" pan="0" pos="324" len="12" vol="100"/>
          <note key="40" pan="0" pos="336" len="12" vol="100"/>
          <note key="43" pan="0" pos="348" len="12" vol="100"/>
          <note key="48" pan="0" pos="360" len="12" vol="100"/>
          <note key="43" pan="0" pos="372" len="12" vol="100"/>
          <note key="40" pan="0" pos="384" len="12" vol="100"/>
          <note key="43" pan="0" pos="396" len="12" vol="100"/>
          <note key="47" pan="0" pos="408" len="12" vol="100"/>
          <note key="40" pan="0" pos="420" len="12" vol="100"/>
          <note key="43" pan="0" pos="432" len="12" vol="100"/>
          <note key="47" pan="0" pos="444" len="12" vol="100"/>
          <note key="40" pan="0" pos="456" len="12" vol="100"/>
          <note key="43" pan="0" pos="468" len="12" vol="100"/>
          <note key="47" pan="0" pos="480" len="12" vol="100"/>
          <note key="40" pan="0" pos="492" len="12" vol="100"/>
          <note key="43" pan="0" pos="504" len="12" vol="100"/>
          <note key="47" pan="0" pos="516" len="12" vol="100"/>
          <note key="40" pan="0" pos="528" len="12" vol="100"/>
          <note key="43" pan="0" pos="540" len="12" vol="100"/>
          <note key="48" pan="0" pos="552" len="12" vol="100"/>
          <note key="43" pan="0" pos="564" len="12" vol="100"/>
          <note key="40" pan="0" pos="576" len="12" vol="100"/>
          <note key="43" pan="0" pos="588" len="12" vol="100"/>
          <note key="47" pan="0" pos="600" len="12" vol="100"/>
          <note key="40" pan="0" pos="612" len="12" vol="100"/>
          <note key="43" pan="0" pos="624" len="12" vol="100"/>
          <note key="47" pan="0" pos="636" len="12" vol="100"/>
          <note key="40" pan="0" pos="648" len="12" vol="100"/>
          <note key="43" pan="0" pos="660" len="12" vol="100"/>
          <note key="47" pan="0" pos="672" len="12" vol="100"/>
          <note key="40" pan="0" pos="684" len="12" vol="100"/>
          <note key="43" pan="0" pos="696" len="12" vol="100"/>
          <note key="47" pan="0" pos="708" len="12" vol="100"/>
          <note key="40" pan="0" pos="720" len="12" vol="100"/>
          <note key="43" pan="0" pos="732" len="12" vol="100"/>
          <note key="48" pan="0" pos="744" len="12" vol="100"/>
          <note key="43" pan="0" pos="756" len="12" vol="100"/>
          <note key="40" pan="0" pos="768" len="12" vol="100"/>
          <note key="43" pan="0" pos="780" len="12" vol="100"/>
          <note key="47" pan="0" pos="792" len="12" vol="100"/>
          <note key="40" pan="0" pos="804" len="12" vol="100"/>
          <note key="43" pan="0" pos="816" len="12" vol="100"/>
          <note key="47" pan="0" pos="828" len="12" vol="100"/>
          <note key="40" pan="0" pos="840" len="12" vol="100"/>
          <note key="43" pan="0" pos="852" len="12" vol="100"/>
          <note key="47" pan="0" pos="864" len="12" vol="100"/>
          <note key="40" pan="0" pos="876" len="12" vol="100"/>
          <note key="43" pan="0" pos="888" len="12" vol="100"/>
          <note key="47" pan="0" pos="900" len="12" vol="100"/>
          <note key="40" pan="0" pos="912" len="12" vol="100"/>
          <note key="43" pan="0" pos="924" len="12" vol="100"/>
          <note key="48" pan="0" pos="936" len="12" vol="100"/>
          <note key="43" pan="0" pos="948" len="12" vol="100"/>
          <note key="40" pan="0" pos="960" len="12" vol="100"/>
          <note key="43" pan="0" pos="972" len="12" vol="100"/>
          <note key="47" pan="0" pos="984" len="12" vol="100"/>
          <note key="40" pan="0" pos="996" len="12" vol="100"/>
          <note key="43" pan="0" pos="1008" len="12" vol="100"/>
          <note key="47" pan="0" pos="1020" len="12" vol="100"/>
          <note key="40" pan="0" pos="1032" len="12" vol="100"/>
          <note key="43" pan="0" pos="1044" len="12" vol="100"/>
          <note key="47" pan="0" pos="1056" len="12" vol="100"/>
          <note key="40" pan="0" pos="1068" len="12" vol="100"/>
          <note key="43" pan="0" pos="1080" len="12" vol="100"/>
          <note key="47" pan="0" pos="1092" len="12" vol="100"/>
          <note key="40" pan="0" pos="1104" len="12" vol="100"/>
          <note key="43" pan="0" pos="1116" len="12" vol="100"/>
          <note key="48" pan="0" pos="1128" len="12" vol="100"/>
          <note key="43" pan="0" pos="1140" len="12" vol="100"/>
          <note key="40" pan="0" pos="1152" len="12" vol="100"/>
          <note key="43" pan="0" pos="1164" len="12" vol="100"/>
          <note key="47" pan="0" pos="1176" len="12" vol="100"/>
          <note key="40" pan="0" pos="1188" len="12" vol="100"/>
          <note key="43" pan="0" pos="1200" len="12" vol="100"/>
          <note key="47" pan="0" pos="1212" len="12" vol="100"/>
          <note key="40" pan="0" pos="1224" len="12" vol="100"/>
          <note key="43" pan="0" pos="1236" len="12" vol="100"/>
          <note key="47" pan="0" pos="1248" len="12" vol="100"/>
          <note key="40" pan="0" pos="1260" len="12" vol="100"/>
          <note key="43" pan="0" pos="1272" len="12" vol="100"/>
          <note key="47" pan="0" pos="1284" len="12" vol="100"/>
          <note key="40" pan="0" pos="1296" len="12" vol="100"/>
          <note key="43" pan="0" pos="1308" len="12" vol="100"/>
          <note key="48" pan="0" pos="1320" len="12" vol="100"/>
          <note key="43" pan="0" pos="1332" len="12" vol="100"/>
          <note key="40" pan="0" pos="1344" len="12" vol="100"/>
          <note key="43" pan="0" pos="1356" len="12" vol="100"/>
          <note key="47" pan="0" pos="1368" len="12" vol="100"/>
          <note key="40" pan="0" pos="1380" len="12" vol="100"/>
          <note key="43" pan="0" pos="1392" len="12" vol="100"/>
          <note key="47" pan="0" pos="1404" len="12" vol="100"/>
          <note key="40" pan="0" pos="1416" len="12" vol="100"/>
          <note key="43" pan="0" pos="1428" len="12" vol="100"/>
          <note key="47" pan="0" pos="1440" len="12" vol="100"/>
          <note key="40" pan="0" pos="1452" len="12" vol="100"/>
          <note key="43" pan="0" pos="1464" len="12" vol="100"/>
          <note key="47" pan="0" pos="1476" len="12" vol="100"/>
          <note key="40" pan="0" pos="1488" len="12" vol="100"/>
          <note key="43" pan="0" pos="1500" len="12" vol="100"/>
          <note key="48" pan="0" pos="1512" len="12" vol="100"/>
          <note key="43" pan="0" pos="1524" len="12" vol="100"/>
        </pattern>
        <pattern name="bass" pos="18432" muted="0" type="1" steps="16">
          <note key="40" pan="0" pos="0" len="12" vol="100"/>
          <note key="43" pan="0" pos="12" len="12" vol="100"/>
          <note key="47" pan="0" pos="24" len="12" vol="100"/>
          <note key="40" pan="0" pos="36" len="12" vol="100"/>
          <note key="43" pan="0" pos="48" len="12" vol="100"/>
          <note key="47" pan="0" pos="60" len="12" vol="100"/>
          <note key="40" pan="0" pos="72" len="12" vol="100"/>
          <note key="43" pan="0" pos="84" len="12" vol="100"/>
          <note key="47" pan="0" pos="96" len="12" vol="100"/>
          <note key="40" pan="0" pos="108" len="12" vol="100"/>
          <note key="43" pan="0" pos="120" len="12" vol="100"/>
          <note key="47" pan="0" pos="132" len="12" vol="100"/>
          <note key="40" pan="0" pos="144" len="12" vol="100"/>
          <note key="43" pan="0" pos="156" len="12" vol="100"/>
          <note key="48" pan="0" pos="168" len="12" vol="100"/>
          <note key="43" pan="0" pos="180" len="12" vol="100"/>
          <note key="40" pan="0" pos="192" len="12" vol="100"/>
          <note key="43" pan="0" pos="204" len="12" vol="100"/>
          <note key="47" pan="0" pos="216" len="12" vol="100"/>
          <note key="40" pan="0" pos="228" len="12" vol="100"/>
          <note key="43" pan="0" pos="240" len="12" vol="100"/>
          <note key="47" pan="0" pos="252" len="12" vol="100"/>
          <note key="40" pan="0" pos="264" len="12" vol="100"/>
          <note key="43" pan="0" pos="276" len="12" vol="100"/>
          <note key="47" pan="0" pos="288" len="12" vol="100"/>
          <note key="40" pan="0" pos="300" len="12" vol="100"/>
          <note key="43" pan="0" pos="312" len="12" vol="100"/>
          <note key="47" pan="0" pos="324" len="12" vol="100"/>
          <note key="40" pan="0" pos="336" len="12" vol="100"/>
          <note key="43" pan="0" pos="348" len="12" vol="100"/>
          <note key="48" pan="0" pos="360" len="12" vol="100"/>
          <note key="43" pan="0" pos="372" len="12" vol="100"/>
          <note key="40" pan="0" pos="384" len="12" vol="100"/>
          <note key="43" pan="0" pos="396" len="12" vol="100"/>
          <note key="47" pan="0" pos="408" len="12" vol="100"/>
          <note key="40" pan="0" pos="420" len="12" vol="100"/>
          <note key="43" pan="0" pos="432" len="12" vol="100"/>
          <note key="47" pan="0" pos="444" len="12" vol="100"/>
          <note key="40" pan="0" pos="456" len="12" vol="100"/>
          <note key="43" pan="0" pos="468" len="12" vol="100"/>
          <note key="47" pan="0" pos="480" len="12" vol="100"/>
          <note key="40" pan="0" pos="492" len="12" vol="100"/>
          <note key="43" pan="0" pos="504" len="12" vol="100"/>
          <note key="47" pan="0" pos="516" len="12" vol="100"/>
          <note key="40" pan="0" pos="528" len="12" vol="100"/>
          <note key="43" pan="0" pos="540" len="12" vol="100"/>
          <note key="48" pan="0" pos="552" len="12" vol="100"/>
          <note key="43" pan="0" pos="564" len="12" vol="100"/>
          <note key="40" pan="0" pos="576" len="12" vol="100"/>
          <note key="43" pan="0" pos="588" len="12" vol="100"/>
          <note key="47" pan="0" pos="600" len="12" vol="100"/>
          <note key="40" pan="0" pos="612" len="12" vol="100"/>
          <note key="43" pan="0" pos="624" len="12" vol="100"/>
          <note key="47" pan="0" pos="636" len="12" vol="100"/>
          <note key="40" pan="0" pos="648" len="12" vol="100"/>
          <note key="43" pan="0" pos="660" len="12" vol="100"/>
          <note key="47" pan="0" pos="672" len="12" vol="100"/>
          <note key="40" pan="0" pos="684" len="12" vol="100"/>
          <note key="43" pan="0" pos="696" len="12" vol="100"/>
          <note key="47" pan="0" pos="708" len="12" vol="100"/>
          <note key="40" pan="0" pos="720" len="12" vol="100"/>
          <note key="43" pan="0" pos="732" len="12" vol="100"/>
          <note key="48" pan="0" pos="744" len="12" vol="100"/>
          <note key="43" pan="0" pos="756" len="12" vol="100"/>
          <note key="40" pan="0" pos="768" len="12" vol="100"/>
          <note key="43" pan="0" pos="780" len="12" vol="100"/>
          <note key="47" pan="0" pos="792" len="12" vol="100"/>
          <note key="40" pan="0" pos="804" len="12" vol="100"/>
          <note key="43" pan="0" pos="816" len="12" vol="100"/>
          <note key="47" pan="0" pos="828" len="12" vol="100"/>
          <note key="40" pan="0" pos="840" len="12" vol="100"/>
          <note key="43" pan="0" pos="852" len="12" vol="100"/>
          <note key="47" pan="0" pos="864" len="12" vol="100"/>
          <note key="40" pan="0" pos="876" len="12" vol="100"/>
          <note key="43" pan="0" pos="888" len="12" vol="100"/>
          <note key="47" pan="0" pos="900" len="12" vol="100"/>
          <note key="40" pan="0" pos="912" len="12" vol="100"/>
          <note key="43" pan="0" pos="924" len="12" vol="100"/>
          <note key="48" pan="0" pos="936" len="12" vol="100"/>
          <note key="43" pan="0" pos="948" len="12" vol="100"/>
          <note key="40" pan="0" pos="960" len="12" vol="100"/>
          <note key="43" pan="0" pos="972" len="12" vol="100"/>
          <note key="47" pan="0" pos="984" len="12" vol="100"/>
          <note key="40" pan="0" pos="996" len="12" vol="100"/>
          <note key="43" pan="0" pos="1008" len="12" vol="100"/>
          <note key="47" pan="0" pos="1020" len="12" vol="100"/>
          <note key="40" pan="0" pos="1032" len="12" vol="100"/>
          <note key="43" pan="0" pos="1044" len="12" vol="100"/>
          <note key="47" pan="0" pos="1056" len="12" vol="100"/>
          <note key="40" pan="0" pos="1068" len="12" vol="100"/>
          <note key="43" pan="0" pos="1080" len="12" vol="100"/>
          <note key="47" pan="0" pos="1092" len="12" vol="100"/>
          <note key="40" pan="0" pos="1104" len="12" vol="100"/>
          <note key="43" pan="0" pos="1116" len="12" vol="100"/>
          <note key="48" pan="0" pos="1128" len="12" vol="100"/>
          <note key="43" pan="0" pos="1140" len="12" vol="100"/>
          <note key="40" pan="0" pos="1152" len="12" vol="100"/>
          <note key="43" pan="0" pos="1164" len="12" vol="100"/>
          <note key="47" pan="0" pos="1176" len="12" vol="100"/>
          <note key="40" pan="0" pos="1188" len="12" vol="100"/>
          <note key="43" pan="0" pos="1200" len="12" vol="100"/>
          <note key="47" pan="0" pos="1212" len="12" vol="100"/>
          <note key="40" pan="0" pos="1224" len="12" vol="100"/>
          <note key="43" pan="0" pos="1236" len="12" vol="100"/>
          <note key="47" pan="0" pos="1248" len="12" vol="100"/>
          <note key="40" pan="0" pos="1260" len="12" vol="100"/>
          <note key="43" pan="0" pos="1272" len="12" vol="100"/>
          <note key="47" pan="0" pos="1284" len="12" vol="100"/>
          <note key="40" pan="0" pos="1296" len="12" vol="100"/>
          <note key="43" pan="0" pos="1308" len="12" vol="100"/>
          <note key="48" pan="0" pos="1320" len="12" vol="100"/>
          <note key="43" pan="0" pos="1332" len="12" vol="100"/>
          <note key="40" pan="0" pos="1344" len="12" vol="100"/>
          <note key="43" pan="0" pos="1356" len="12" vol="100"/>
          <note key="47" pan="0" pos="1368" len="12" vol="100"/>
          <note key="40" pan="0" pos="1380" len="12" vol="100"/>
          <note key="43" pan="0" pos="1392" len="12" vol="100"/>
          <note key="47" pan="0" pos="1404" len="12" vol="100"/>
          <note key="40" pan="0" pos="1416" len="12" vol="100"/>
          <note key="43" pan="0" pos="1428" len="12" vol="100"/>
          <note key="47" pan="0" pos="1440" len="12" vol="100"/>
          <note key="40" pan="0" pos="1452" len="12" vol="100"/>
          <note key="43" pan="0" pos="1464" len="12" vol="100"/>
          <note key="47" pan="0" pos="1476" len="12" vol="100"/>
          <note key="40" pan="0" pos="1488" len="12" vol="100"/>
          <note key="43" pan="0" pos="1500" len="12" vol="100"/>
          <note key="48" pan="0" pos="1512" len="12" vol="100"/>
          <note key="43" pan="0" pos="1524" len="12" vol="100"/>
        </pattern>
        <pattern name="bass" pos="19968" muted="0" type="1" steps="16">
          <note key="40" pan="0" pos="0" len="192" vol="100"/>
        </pattern>
        <pattern name="bass" pos="13824" muted="0" type="1" steps="16">
          <note key="40" pan="0" pos="0" len="12" vol="100"/>
          <note key="43" pan="0" pos="12" len="12" vol="100"/>
          <note key="47" pan="0" pos="24" len="12" vol="100"/>
          <note key="40" pan="0" pos="36" len="12" vol="100"/>
          <note key="43" pan="0" pos="48" len="12" vol="100"/>
          <note key="47" pan="0" pos="60" len="12" vol="100"/>
          <note key="40" pan="0" pos="72" len="12" vol="100"/>
          <note key="43" pan="0" pos="84" len="12" vol="100"/>
          <note key="47" pan="0" pos="96" len="12" vol="100"/>
          <note key="40" pan="0" pos="108" len="12" vol="100"/>
          <note key="43" pan="0" pos="120" len="12" vol="100"/>
          <note key="47" pan="0" pos="132" len="12" vol="100"/>
          <note key="40" pan="0" pos="144" len="12" vol="100"/>
          <note key="43" pan="0" pos="156" len="12" vol="100"/>
          <note key="48" pan="0" pos="168" len="12" vol="100"/>
          <note key="43" pan="0" pos="180" len="12" vol="100"/>
          <note key="40" pan="0" pos="192" len="12" vol="100"/>
          <note key="43" pan="0" pos="204" len="12" vol="100"/>
          <note key="47" pan="0" pos="216" len="12" vol="100"/>
          <note key="40" pan="0" pos="228" len="12" vol="100"/>
          <note key="43" pan="0" pos="240" len="12" vol="100"/>
          <note key="47" pan="0" pos="252" len="12" vol="100"/>
          <note key="40" pan="0" pos="264" len="12" vol="100"/>
          <note key="43" pan="0" pos="276" len="12" vol="100"/>
          <note key="47" pan="0" pos="288" len="12" vol="100"/>
          <note key="40" pan="0" pos="300" len="12" vol="100"/>
          <note key="43" pan="0" pos="312" len="12" vol="100"/>
          <note key="47" pan="0" pos="324" len="12" vol="100"/>
          <note key="40" pan="0" pos="336" len="12" vol="100"/>
          <note key="43" pan="0" pos="348" len="12" vol="100"/>
          <note key="48" pan="0" pos="360" len="12" vol="100"/>
          <note key="43" pan="0" pos="372" len="12" vol="100"/>
          <note key="40" pan="0" pos="384" len="12" vol="100"/>
          <note key="43" pan="0" pos="396" len="12" vol="100"/>
          <note key="47" pan="0" pos="408" len="12" vol="100"/>
          <note key="40" pan="0" pos="420" len="12" vol="100"/>
          <note key="43" pan="0" pos="432" len="12" vol="100"/>
          <note key="47" pan="0" pos="444" len="12" vol="100"/>
          <note key="40" pan="0" pos="456" len="12" vol="100"/>
          <note key="43" pan="0" pos="468" len="12" vol="100"/>
          <note key="47" pan="0" pos="480" len="12" vol="100"/>
          <note key="40" pan="0" pos="492" len="12" vol="100"/>
          <note key="43" pan="0" pos="504" len="12" vol="100"/>
          <note key="47" pan="0" pos="516" len="12" vol="100"/>
          <note key="40" pan="0" pos="528" len="12" vol="100"/>
          <note key="43" pan="0" pos="540" len="12" vol="100"/>
          <note key="48" pan="0" pos="552" len="12" vol="100"/>
          <note key="43" pan="0" pos="564" len="12" vol="100"/>
          <note key="40" pan="0" pos="576" len="12" vol="100"/>
          <note key="43" pan="0" pos="588" len="12" vol="100"/>
          <note key="47" pan="0" pos="600" len="12" vol="100"/>
          <note key="40" pan="0" pos="612" len="12" vol="100"/>
          <note key="43" pan="0" pos="624" len="12" vol="100"/>
          <note key="47" pan="0" pos="636" len="12" vol="100"/>
          <note key="40" pan="0" pos="648" len="12" vol="100"/>
          <note key="43" pan="0" pos="660" len="12" vol="100"/>
          <note key="47" pan="0" pos="672" len="12" vol="100"/>
          <note key="40" pan="0" pos="684" len="12" vol="100"/>
          <note key="43" pan="0" pos="696" len="12" vol="100"/>
          <note key="47" pan="0" pos="708" len="12" vol="100"/>
          <note key="40" pan="0" pos="720" len="12" vol="100"/>
          <note key="43" pan="0" pos="732" len="12" vol="100"/>
          <note key="48" pan="0" pos="744" len="12" vol="100"/>
          <note key="43" pan="0" pos="756" len="12" vol="100"/>
          <note key="40" pan="0" pos="768" len="12" vol="100"/>
          <note key="43" pan="0" pos="780" len="12" vol="100"/>
          <note key="47" pan="0" pos="792" len="12" vol="100"/>
          <note key="40" pan="0" pos="804" len="12" vol="100"/>
          <note key="43" pan="0" pos="816" len="12" vol="100"/>
          <note key="47" pan="0" pos="828" len="12" vol="100"/>
          <note key="40" pan="0" pos="840" len="12" vol="100"/>
          <note key="43" pan="0" pos="852" len="12" vol="100"/>
          <note key="47" pan="0" pos="864" len="12" vol="100"/>
          <note key="40" pan="0" pos="876" len="12" vol="100"/>
          <note key="43" pan="0" pos="888" len="12" vol="100"/>
          <note key="47" pan="0" pos="900" len="12" vol="100"/>
          <note key="40" pan="0" pos="912" len="12" vol="100"/>
          <note key="43" pan="0" pos="924" len="12" vol="100"/>
          <note key="48" pan="0" pos="936" len="12" vol="100"/>
          <note key="43" pan="0" pos="948" len="12" vol="100"/>
          <note key="40" pan="0" pos="960" len="12" vol="100"/>
          <note key="43" pan="0" pos="972" len="12" vol="100"/>
          <note key="47" pan="0" pos="984" len="12" vol="100"/>
          <note key="40" pan="0" pos="996" len="12" vol="100"/>
          <note key="43" pan="0" pos="1008" len="12" vol="100"/>
          <note key="47" pan="0" pos="1020" len="12" vol="100"/>
          <note key="40" pan="0" pos="1032" len="12" vol="100"/>
          <note key="43" pan="0" pos="1044" len="12" vol="100"/>
          <note key="47" pan="0" pos="1056" len="12" vol="100"/>
          <note key="40" pan="0" pos="1068" len="12" vol="100"/>
          <note key="43" pan="0" pos="1080" len="12" vol="100"/>
          <note key="47" pan="0" pos="1092" len="12" vol="100"/>
          <note key="40" pan="0" pos="1104" len="12" vol="100"/>
          <note key="43" pan="0" pos="1116" len="12" vol="100"/>
          <note key="48" pan="0" pos="1128" len="12" vol="100"/>
          <note key="43" pan="0" pos="1140" len="12" vol="100"/>
          <note key="40" pan="0" pos="1152" len="12" vol="100"/>
          <note key="43" pan="0" pos="1164" len="12" vol="100"/>
          <note key="47" pan="0" pos="1176" len="12" vol="100"/>
          <note key="40" pan="0" pos="1188" len="12" vol="100"/>
          <note key="43" pan="0" pos="1200" len="12" vol="100"/>
          <note key="47" pan="0" pos="1212" len="12" vol="100"/>
          <note key="40" pan="0" pos="1224" len="12" vol="100"/>
          <note key="43" pan="0" pos="1236" len="12" vol="100"/>
          <note key="47" pan="0" pos="1248" len="12" vol="100"/>
          <note key="40" pan="0" pos="1260" len="12" vol="100"/>
          <note key="43" pan="0" pos="1272" len="12" vol="100"/>
          <note key="47" pan="0" pos="1284" len="12" vol="100"/>
          <note key="40" pan="0" pos="1296" len="12" vol="100"/>
          <note key="43" pan="0" pos="1308" len="12" vol="100"/>
          <note key="48" pan="0" pos="1320" len="12" vol="100"/>
          <note key="43" pan="0" pos="1332" len="12" vol="100"/>
          <note key="40" pan="0" pos="1344" len="12" vol="100"/>
          <note key="43" pan="0" pos="1356" len="12" vol="100"/>
          <note key="47" pan="0" pos="1368" len="12" vol="100"/>
          <note key="40" pan="0" pos="1380" len="12" vol="100"/>
          <note key="43" pan="0" pos="1392" len="12" vol="100"/>
          <note key="47" pan="0" pos="1404" len="12" vol="100"/>
          <note key="40" pan="0" pos="1416" len="12" vol="100"/>
          <note key="43" pan="0" pos="1428" len="12" vol="100"/>
          <note key="47" pan="0" pos="1440" len="12" vol="100"/>
          <note key="40" pan="0" pos="1452" len="12" vol="100"/>
          <note key="43" pan="0" pos="1464" len="12" vol="100"/>
          <note key="47" pan="0" pos="1476" len="12" vol="100"/>
          <note key="40" pan="0" pos="1488" len="12" vol="100"/>
          <note key="43" pan="0" pos="1500" len="12" vol="100"/>
          <note key="48" pan="0" pos="1512" len="12" vol="100"/>
          <note key="43" pan="0" pos="1524" len="12" vol="100"/>
        </pattern>
      </track>
      <track name="LB302" muted="0" type="0" solo="0">
        <instrumenttrack pitchrange="1" pan="-30" fxch="0" basenote="45" usemasterpitch="1">
          <vol value="10.2" scale_type="linear" id="2408211"/>
          <pitch value="-100" scale_type="linear" id="8129717"/>
          <instrument name="lb302">
            <lb302 vcf_cut="0.2" vcf_mod="0.27000001" dead="0" slide="0" vcf_dec="0.25999999" slide_dec="0.19" vcf_res="1.25" dist="1" shape="5" db24="0"/>
          </instrument>
          <eldata fcut="3360" ftype="7" fwet="0" fres="9.6000004">
            <elvol dec="0.5" ctlenvamt="0" latt="0" sustain="0.5" amt="0" lamt="0" pdel="0" rel="0.1" lshp="0" lpdel="0" hold="0.5" lspd_numerator="4" lspd_denominator="4" att="0" x100="0" lspd="0.1" lspd_syncmode="0" userwavefile=""/>
            <elcut dec="0.5" ctlenvamt="0" latt="0" sustain="0.5" amt="0" lamt="0" pdel="0" rel="0.1" lshp="0" lpdel="0" hold="0.5" lspd_numerator="4" lspd_denominator="4" att="0" x100="0" lspd="0.1" lspd_syncmode="0" userwavefile=""/>
            <elres dec="0.5" ctlenvamt="0" latt="0" sustain="0.5" amt="0" lamt="0" pdel="0" rel="0.1" lshp="0" lpdel="0" hold="0.5" lspd_numerator="4" lspd_denominator="4" att="0" x100="0" lspd="0.1" lspd_syncmode="0" userwavefile=""/>
          </eldata>
          <chordcreator chordrange="1" chord-enabled="0" chord="0"/>
          <arpeggiator arptime="100" arptime_syncmode="0" arpmode="0" arptime_numerator="4" arptime_denominator="4" arpdir="0" arpgate="100" arprange="1" arp-enabled="0" arpmiss="0" arp="0" arpcycle="0" arpskip="0"/>
          <midiport inputcontroller="0" fixedoutputnote="-1" writable="0" basevelocity="127" outputprogram="1" outputcontroller="0" fixedinputvelocity="-1" outputchannel="1" fixedoutputvelocity="-1" readable="0" inputchannel="0"/>
          <fxchain numofeffects="2" enabled="1">
            <effect gate="0" on="1" autoquit_syncmode="0" autoquit="8000" name="ladspaeffect" autoquit_numerator="4" wet="1" autoquit_denominator="4">
              <ladspacontrols ports="10">
                <port04 data="144.11301"/>
                <port05 data="16"/>
                <port06 data="8"/>
                <port07 data="8"/>
                <port08 data="0.5"/>
                <port09 data="0.38999999"/>
                <port010 data="2"/>
                <port011 data="1"/>
                <port012 data="1"/>
                <port013 data="1"/>
              </ladspacontrols>
              <key>
                <attribute value="calf" name="file"/>
                <attribute value="VintageDelay" name="plugin"/>
              </key>
            </effect>
            <effect gate="0" on="1" autoquit_syncmode="0" autoquit="1" name="eq" autoquit_numerator="4" wet="1" autoquit_denominator="4">
              <Eq LPres="0.70700002" Peak3bw="0.30000001" HPres="0.70700002" HP12="1" HighShelfgain="0" Peak1active="0" HPactive="0" Peak3active="0" Peak2gain="0" Lowshelfactive="0" Peak2bw="0.30000001" Peak1bw="0.30000001" Highshelfactive="0" LP12="1" Peak4bw="0.30000001" Peak4gain="0" Peak4active="0" AnalyseIn="1" HP24="0" LP48="0" LowShelfres="1.4" LP="0" Peak2active="0" HP48="0" HighShelfres="1.4" Peak3gain="0" Outputgain="-15" LP24="0" Lowshelfgain="0" AnalyseOut="1" HP="0" LPactive="0">
                <Inputgain value="0" scale_type="log" id="8063324"/>
                <Peak1gain value="0" scale_type="log" id="3151198"/>
                <HPfreq value="31" scale_type="log" id="4798224"/>
                <LowShelffreq value="80" scale_type="log" id="6138014"/>
                <Peak1freq value="120" scale_type="log" id="94958"/>
                <Peak2freq value="250" scale_type="log" id="6020806"/>
                <Peak3freq value="2000" scale_type="log" id="5137845"/>
                <Peak4freq value="4000" scale_type="log" id="2573000"/>
                <Highshelffreq value="12000" scale_type="log" id="7294293"/>
                <LPfreq value="18000" scale_type="log" id="3918225"/>
              </Eq>
              <key/>
            </effect>
          </fxchain>
        </instrumenttrack>
        <pattern name="LB302" pos="7680" muted="0" type="1" steps="16">
          <note key="57" pan="0" pos="0" len="384" vol="100"/>
        </pattern>
        <pattern name="LB302" pos="8448" muted="0" type="1" steps="16">
          <note key="57" pan="0" pos="0" len="384" vol="100"/>
        </pattern>
        <pattern name="LB302" pos="9216" muted="0" type="1" steps="16">
          <note key="57" pan="0" pos="0" len="384" vol="100"/>
        </pattern>
        <pattern name="LB302" pos="9984" muted="0" type="1" steps="16">
          <note key="57" pan="0" pos="0" len="384" vol="100"/>
        </pattern>
      </track>
      <track name="Noise" muted="0" type="0" solo="0">
        <instrumenttrack pitchrange="1" pan="0" fxch="0" basenote="57" pitch="0" vol="80" usemasterpitch="1">
          <instrument name="kicker">
            <kicker endnote="0" decay_denominator="4" gain="0.90000004" startnote="0" decay="2400" env="0.31500003" startfreq="150" decay_numerator="4" distend="0.80000001" click="0.1" version="1" slope="0.059999999" decay_syncmode="0" dist="0.80000001" endfreq="40" noise="1"/>
          </instrument>
          <eldata fcut="14000" ftype="0" fwet="0" fres="0.5">
            <elvol dec="0.5" ctlenvamt="0" latt="0" sustain="0.5" amt="0" lamt="0" pdel="0" rel="0.1" lshp="0" lpdel="0" hold="0.5" lspd_numerator="4" lspd_denominator="4" att="0" x100="0" lspd="0.1" lspd_syncmode="0" userwavefile=""/>
            <elcut dec="0.5" ctlenvamt="0" latt="0" sustain="0.5" amt="0" lamt="0" pdel="0" rel="0.1" lshp="0" lpdel="0" hold="0.5" lspd_numerator="4" lspd_denominator="4" att="0" x100="0" lspd="0.1" lspd_syncmode="0" userwavefile=""/>
            <elres dec="0.5" ctlenvamt="0" latt="0" sustain="0.5" amt="0" lamt="0" pdel="0" rel="0.1" lshp="0" lpdel="0" hold="0.5" lspd_numerator="4" lspd_denominator="4" att="0" x100="0" lspd="0.1" lspd_syncmode="0" userwavefile=""/>
          </eldata>
          <chordcreator chordrange="1" chord-enabled="0" chord="0"/>
          <arpeggiator arptime="200" arptime_syncmode="0" arpmode="0" arptime_numerator="4" arptime_denominator="4" arpdir="0" arpgate="100" arprange="1" arp-enabled="0" arpmiss="0" arp="0" arpcycle="0" arpskip="0"/>
          <midiport inputcontroller="0" fixedoutputnote="-1" writable="0" basevelocity="63" outputprogram="1" outputcontroller="0" fixedinputvelocity="-1" outputchannel="1" fixedoutputvelocity="-1" readable="0" inputchannel="0"/>
          <fxchain numofeffects="0" enabled="0"/>
        </instrumenttrack>
        <pattern name="Noise" pos="7680" muted="0" type="1" steps="16">
          <note key="57" pan="0" pos="0" len="192" vol="57"/>
        </pattern>
      </track>
      <track name="explode01.ogg" muted="0" type="0" solo="0">
        <instrumenttrack pitchrange="1" pan="-38.400002" fxch="1" basenote="38" pitch="0" vol="86.400002" usemasterpitch="1">
          <instrument name="audiofileprocessor">
            <audiofileprocessor sframe="0.116" lframe="0.152" looped="0" interp="1" reversed="0" amp="100" stutter="0" src="effects/explode01.ogg" eframe="1"/>
          </instrument>
          <eldata fcut="1" ftype="1" fwet="0" fres="0.5">
            <elvol dec="2" ctlenvamt="0" latt="0" sustain="0.72800004" amt="1" lamt="0" pdel="0" rel="0.60400003" lshp="0" lpdel="0" hold="0" lspd_numerator="4" lspd_denominator="4" att="0" x100="0" lspd="0.1" lspd_syncmode="0" userwavefile=""/>
            <elcut dec="0.5" ctlenvamt="0" latt="0" sustain="0.5" amt="0" lamt="0" pdel="0" rel="0.1" lshp="0" lpdel="0" hold="0.5" lspd_numerator="4" lspd_denominator="4" att="0" x100="0" lspd="0.1" lspd_syncmode="0" userwavefile=""/>
            <elres dec="0.5" ctlenvamt="0" latt="0" sustain="0.5" amt="0" lamt="0" pdel="0" rel="0.1" lshp="0" lpdel="0" hold="0.5" lspd_numerator="4" lspd_denominator="4" att="0" x100="0" lspd="0.1" lspd_syncmode="0" userwavefile=""/>
          </eldata>
          <chordcreator chordrange="3" chord-enabled="1" chord="0"/>
          <arpeggiator arptime="200" arptime_syncmode="0" arpmode="0" arptime_numerator="4" arptime_denominator="4" arpdir="0" arpgate="100" arprange="1" arp-enabled="0" arpmiss="0" arp="0" arpcycle="0" arpskip="0"/>
          <midiport inputcontroller="0" fixedoutputnote="-1" writable="0" basevelocity="63" outputprogram="1" outputcontroller="0" fixedinputvelocity="-1" outputchannel="1" fixedoutputvelocity="-1" readable="0" inputchannel="0"/>
          <fxchain numofeffects="4" enabled="1">
            <effect gate="0" on="1" autoquit_syncmode="0" autoquit="1" name="ladspaeffect" autoquit_numerator="4" wet="0.68000001" autoquit_denominator="4">
              <ladspacontrols ports="7">
                <port00 data="1.25"/>
                <port01 data="90"/>
                <port02 data="75"/>
                <port03 data="25"/>
                <port04 data="100"/>
                <port05 data="0"/>
                <port06 data="0"/>
              </ladspacontrols>
              <key>
                <attribute value="tap_chorusflanger" name="file"/>
                <attribute value="tap_chorusflanger" name="plugin"/>
              </key>
            </effect>
            <effect gate="0" on="1" autoquit_syncmode="0" autoquit="1" name="ladspaeffect" autoquit_numerator="4" wet="0.35999998" autoquit_denominator="4">
              <ladspacontrols ports="10">
                <port00 data="10"/>
                <port01 data="0"/>
                <port02 data="7"/>
                <port03 data="0"/>
                <port04 data="0"/>
                <port05 data="0"/>
                <port06 data="0"/>
                <port07 data="1"/>
                <port08 data="1"/>
                <port09 data="0"/>
              </ladspacontrols>
              <key>
                <attribute value="tap_echo" name="file"/>
                <attribute value="tap_stereo_echo" name="plugin"/>
              </key>
            </effect>
            <effect gate="0" on="1" autoquit_syncmode="0" autoquit="1" name="ladspaeffect" autoquit_numerator="4" wet="0.17" autoquit_denominator="4">
              <ladspacontrols ports="4">
                <port02 data="0.50200003"/>
                <port03 data="0.50370252"/>
                <port04 data="0.250375"/>
                <port05 data="0.1425"/>
              </ladspacontrols>
              <key>
                <attribute value="caps" name="file"/>
                <attribute value="Plate2x2" name="plugin"/>
              </key>
            </effect>
            <effect gate="0" on="0" autoquit_syncmode="0" autoquit="1" name="eq" autoquit_numerator="4" wet="1" autoquit_denominator="4">
              <Eq LPres="0.70700002" Peak3bw="0.30000001" HPres="0.70700002" HP12="1" HighShelfgain="5.5800004" Peak1active="0" HPactive="0" Peak3active="1" Peak2gain="1.8000001" Lowshelfactive="0" Peak2bw="2.2720001" Peak1bw="0.30000001" Highshelfactive="1" LP12="1" Peak4bw="0.30000001" Peak4gain="0" Peak4active="0" AnalyseIn="1" HP24="0" LP48="0" LowShelfres="1.4" LP="0" Peak2active="1" HP48="0" HighShelfres="1.4" Peak3gain="0" Outputgain="0" LP24="0" Lowshelfgain="0" AnalyseOut="1" HP="0" LPactive="0">
                <Inputgain value="0" scale_type="log" id="2878947"/>
                <Peak1gain value="0" scale_type="log" id="767383"/>
                <HPfreq value="31.000004" scale_type="log" id="1523075"/>
                <LowShelffreq value="80" scale_type="log" id="5156105"/>
                <Peak1freq value="119.99998" scale_type="log" id="994633"/>
                <Peak2freq value="563.99292" scale_type="log" id="877512"/>
                <Peak3freq value="1852.2362" scale_type="log" id="7662500"/>
                <Peak4freq value="4000.0029" scale_type="log" id="7989468"/>
                <Highshelffreq value="3736.9263" scale_type="log" id="7052256"/>
                <LPfreq value="17999.996" scale_type="log" id="5689884"/>
              </Eq>
              <key/>
            </effect>
          </fxchain>
        </instrumenttrack>
        <pattern name="explode01.ogg" pos="9408" muted="0" type="1" steps="16">
          <note key="57" pan="0" pos="168" len="24" vol="100"/>
          <note key="57" pan="0" pos="192" len="192" vol="100"/>
        </pattern>
        <pattern name="explode01.ogg" pos="10176" muted="0" type="1" steps="16">
          <note key="57" pan="0" pos="168" len="12" vol="100"/>
          <note key="57" pan="0" pos="180" len="12" vol="100"/>
          <note key="57" pan="0" pos="192" len="192" vol="100"/>
        </pattern>
      </track>
      <track name="Clap.ds" muted="0" type="0" solo="0">
        <instrumenttrack pitchrange="1" pan="50.400002" fxch="1" basenote="77" pitch="0" vol="12" usemasterpitch="1">
          <instrument name="audiofileprocessor">
            <audiofileprocessor sframe="0.116" lframe="0.152" looped="0" interp="1" reversed="0" amp="100" stutter="0" src="drumsynth/cr8000/Clap.ds" eframe="1"/>
          </instrument>
          <eldata fcut="4760" ftype="1" fwet="1" fres="2.9399998">
            <elvol dec="0.5" ctlenvamt="0" latt="0" sustain="0.5" amt="1" lamt="0" pdel="0" rel="0.47600001" lshp="0" lpdel="0" hold="0.5" lspd_numerator="4" lspd_denominator="4" att="0" x100="0" lspd="0.1" lspd_syncmode="0" userwavefile=""/>
            <elcut dec="0.5" ctlenvamt="0" latt="0" sustain="0.5" amt="0" lamt="0" pdel="0" rel="0.1" lshp="0" lpdel="0" hold="0.5" lspd_numerator="4" lspd_denominator="4" att="0" x100="0" lspd="0.1" lspd_syncmode="0" userwavefile=""/>
            <elres dec="0.5" ctlenvamt="0" latt="0" sustain="0.5" amt="0" lamt="0" pdel="0" rel="0.1" lshp="0" lpdel="0" hold="0.5" lspd_numerator="4" lspd_denominator="4" att="0" x100="0" lspd="0.1" lspd_syncmode="0" userwavefile=""/>
          </eldata>
          <chordcreator chordrange="2" chord-enabled="1" chord="0"/>
          <arpeggiator arptime="200" arptime_syncmode="0" arpmode="0" arptime_numerator="4" arptime_denominator="4" arpdir="0" arpgate="100" arprange="1" arp-enabled="0" arpmiss="0" arp="0" arpcycle="0" arpskip="0"/>
          <midiport inputcontroller="0" fixedoutputnote="-1" writable="0" basevelocity="63" outputprogram="1" outputcontroller="0" fixedinputvelocity="-1" outputchannel="1" fixedoutputvelocity="-1" readable="0" inputchannel="0"/>
          <fxchain numofeffects="4" enabled="1">
            <effect gate="0" on="1" autoquit_syncmode="0" autoquit="1" name="ladspaeffect" autoquit_numerator="4" wet="0.68000001" autoquit_denominator="4">
              <ladspacontrols ports="7">
                <port00 data="1.25"/>
                <port01 data="90"/>
                <port02 data="75"/>
                <port03 data="25"/>
                <port04 data="100"/>
                <port05 data="0"/>
                <port06 data="0"/>
              </ladspacontrols>
              <key>
                <attribute value="tap_chorusflanger" name="file"/>
                <attribute value="tap_chorusflanger" name="plugin"/>
              </key>
            </effect>
            <effect gate="0" on="1" autoquit_syncmode="0" autoquit="1" name="ladspaeffect" autoquit_numerator="4" wet="0.63999999" autoquit_denominator="4">
              <ladspacontrols ports="10">
                <port00 data="10"/>
                <port01 data="0"/>
                <port02 data="7"/>
                <port03 data="0"/>
                <port04 data="0"/>
                <port05 data="0"/>
                <port06 data="0"/>
                <port07 data="1"/>
                <port08 data="1"/>
                <port09 data="0"/>
              </ladspacontrols>
              <key>
                <attribute value="tap_echo" name="file"/>
                <attribute value="tap_stereo_echo" name="plugin"/>
              </key>
            </effect>
            <effect gate="0" on="1" autoquit_syncmode="0" autoquit="1" name="ladspaeffect" autoquit_numerator="4" wet="1" autoquit_denominator="4">
              <ladspacontrols ports="4">
                <port02 data="0.50200003"/>
                <port03 data="0.50370252"/>
                <port04 data="0.250375"/>
                <port05 data="0.1425"/>
              </ladspacontrols>
              <key>
                <attribute value="caps" name="file"/>
                <attribute value="Plate2x2" name="plugin"/>
              </key>
            </effect>
            <effect gate="0" on="1" autoquit_syncmode="0" autoquit="1" name="eq" autoquit_numerator="4" wet="1" autoquit_denominator="4">
              <Eq LPres="0.70700002" Peak3bw="0.30000001" HPres="0.70700002" HP12="1" HighShelfgain="3.6000001" Peak1active="0" HPactive="0" Peak3active="1" Peak2gain="1.8000001" Lowshelfactive="0" Peak2bw="2.2720001" Peak1bw="0.30000001" Highshelfactive="1" LP12="1" Peak4bw="0.30000001" Peak4gain="0" Peak4active="0" AnalyseIn="1" HP24="0" LP48="0" LowShelfres="1.4" LP="0" Peak2active="1" HP48="0" HighShelfres="1.4" Peak3gain="0" Outputgain="0" LP24="0" Lowshelfgain="0" AnalyseOut="1" HP="0" LPactive="0">
                <Inputgain value="0" scale_type="log" id="8134590"/>
                <Peak1gain value="0" scale_type="log" id="1472104"/>
                <HPfreq value="31.000004" scale_type="log" id="3534464"/>
                <LowShelffreq value="80" scale_type="log" id="3478160"/>
                <Peak1freq value="119.99998" scale_type="log" id="3166686"/>
                <Peak2freq value="563.99292" scale_type="log" id="5246156"/>
                <Peak3freq value="1852.2362" scale_type="log" id="1893526"/>
                <Peak4freq value="4000.0029" scale_type="log" id="6426318"/>
                <Highshelffreq value="9981.166" scale_type="log" id="6079102"/>
                <LPfreq value="17999.996" scale_type="log" id="731879"/>
              </Eq>
              <key/>
            </effect>
          </fxchain>
        </instrumenttrack>
        <pattern name="Clap.ds" pos="9408" muted="0" type="1" steps="16">
          <note key="57" pan="0" pos="168" len="24" vol="100"/>
          <note key="57" pan="0" pos="192" len="192" vol="100"/>
        </pattern>
        <pattern name="Clap.ds" pos="10176" muted="0" type="1" steps="16">
          <note key="57" pan="0" pos="168" len="12" vol="100"/>
          <note key="57" pan="0" pos="180" len="12" vol="100"/>
          <note key="57" pan="0" pos="192" len="192" vol="100"/>
        </pattern>
      </track>
      <track name="airbrush_bd.ds" muted="0" type="0" solo="0">
        <instrumenttrack pitchrange="1" pan="1.6" fxch="1" basenote="57" pitch="0" vol="100" usemasterpitch="1">
          <instrument name="audiofileprocessor">
            <audiofileprocessor sframe="0" lframe="0" looped="0" interp="1" reversed="0" amp="100" stutter="0" src="drumsynth/misc/airbrush_bd.ds" eframe="1"/>
          </instrument>
          <eldata fcut="14000" ftype="0" fwet="0" fres="0.5">
            <elvol dec="0.5" ctlenvamt="0" latt="0" sustain="0.5" amt="1" lamt="0" pdel="0" rel="0.1" lshp="0" lpdel="0" hold="0.5" lspd_numerator="4" lspd_denominator="4" att="0" x100="0" lspd="0.1" lspd_syncmode="0" userwavefile=""/>
            <elcut dec="0.5" ctlenvamt="0" latt="0" sustain="0.5" amt="0" lamt="0" pdel="0" rel="0.1" lshp="0" lpdel="0" hold="0.5" lspd_numerator="4" lspd_denominator="4" att="0" x100="0" lspd="0.1" lspd_syncmode="0" userwavefile=""/>
            <elres dec="0.5" ctlenvamt="0" latt="0" sustain="0.5" amt="0" lamt="0" pdel="0" rel="0.1" lshp="0" lpdel="0" hold="0.5" lspd_numerator="4" lspd_denominator="4" att="0" x100="0" lspd="0.1" lspd_syncmode="0" userwavefile=""/>
          </eldata>
          <chordcreator chordrange="1" chord-enabled="0" chord="0"/>
          <arpeggiator arptime="200" arptime_syncmode="0" arpmode="0" arptime_numerator="4" arptime_denominator="4" arpdir="0" arpgate="100" arprange="1" arp-enabled="0" arpmiss="0" arp="0" arpcycle="0" arpskip="0"/>
          <midiport inputcontroller="0" fixedoutputnote="-1" writable="0" basevelocity="63" outputprogram="1" outputcontroller="0" fixedinputvelocity="-1" outputchannel="1" fixedoutputvelocity="-1" readable="0" inputchannel="0"/>
          <fxchain numofeffects="2" enabled="1">
            <effect gate="0" on="1" autoquit_syncmode="0" autoquit="1" name="ladspaeffect" autoquit_numerator="4" wet="1" autoquit_denominator="4">
              <ladspacontrols ports="6">
                <port04 data="0"/>
                <port05 data="0.5"/>
                <port06>
                  <data value="0" scale_type="log" id="3497547"/>
                </port06>
                <port07>
                  <data value="0.068000004" scale_type="log" id="2493389"/>
                </port07>
                <port08>
                  <data value="1" scale_type="log" id="1946249"/>
                </port08>
                <port09 data="0.5"/>
              </ladspacontrols>
              <key>
                <attribute value="cmt" name="file"/>
                <attribute value="freeverb3" name="plugin"/>
              </key>
            </effect>
            <effect gate="0" on="1" autoquit_syncmode="0" autoquit="1" name="eq" autoquit_numerator="4" wet="1" autoquit_denominator="4">
              <Eq LPres="0.70700002" Peak3bw="0.30000001" HPres="0.70700002" HP12="1" HighShelfgain="0" Peak1active="0" HPactive="0" Peak3active="0" Peak2gain="0" Lowshelfactive="0" Peak2bw="0.30000001" Peak1bw="0.30000001" Highshelfactive="0" LP12="1" Peak4bw="0.30000001" Peak4gain="0" Peak4active="0" AnalyseIn="1" HP24="0" LP48="0" LowShelfres="1.4" LP="0" Peak2active="0" HP48="0" HighShelfres="1.4" Peak3gain="0" Outputgain="-14.38" LP24="0" Lowshelfgain="0" AnalyseOut="1" HP="0" LPactive="0">
                <Inputgain value="0" scale_type="log" id="1381458"/>
                <Peak1gain value="0" scale_type="log" id="7751845"/>
                <HPfreq value="31" scale_type="log" id="4502794"/>
                <LowShelffreq value="80" scale_type="log" id="2555996"/>
                <Peak1freq value="120" scale_type="log" id="2118944"/>
                <Peak2freq value="250" scale_type="log" id="6085726"/>
                <Peak3freq value="2000" scale_type="log" id="2287616"/>
                <Peak4freq value="4000" scale_type="log" id="369114"/>
                <Highshelffreq value="12000" scale_type="log" id="3764489"/>
                <LPfreq value="18000" scale_type="log" id="4315777"/>
              </Eq>
              <key/>
            </effect>
          </fxchain>
        </instrumenttrack>
        <pattern name="airbrush_bd.ds" pos="9408" muted="0" type="1" steps="16">
          <note key="57" pan="0" pos="168" len="24" vol="100"/>
          <note key="57" pan="0" pos="192" len="192" vol="100"/>
        </pattern>
        <pattern name="airbrush_bd.ds" pos="10176" muted="0" type="1" steps="16">
          <note key="57" pan="0" pos="168" len="12" vol="100"/>
          <note key="57" pan="0" pos="180" len="12" vol="100"/>
          <note key="57" pan="0" pos="192" len="192" vol="100"/>
        </pattern>
      </track>
      <track name="Wah Bass > Filter Freq" muted="0" type="5" solo="0">
        <automationtrack/>
        <automationpattern prog="0" mute="0" pos="19968" name="Wah Bass>Filter Frequency" len="192" tens="1">
          <time value="114" pos="0"/>
          <object id="4735138"/>
        </automationpattern>
        <automationpattern prog="1" mute="0" pos="13824" name="Wah Bass>Filter Frequency" len="1536" tens="1">
          <time value="90" pos="0"/>
          <time value="127" pos="768"/>
          <time value="90" pos="1536"/>
          <object id="4735138"/>
        </automationpattern>
        <automationpattern prog="1" mute="0" pos="15360" name="Wah Bass>Filter Frequency" len="1536" tens="1">
          <time value="90" pos="0"/>
          <time value="127" pos="768"/>
          <time value="90" pos="1536"/>
          <object id="4735138"/>
        </automationpattern>
        <automationpattern prog="1" mute="0" pos="16896" name="Wah Bass>Filter Frequency" len="1536" tens="1">
          <time value="90" pos="0"/>
          <time value="127" pos="768"/>
          <time value="90" pos="1536"/>
          <object id="4735138"/>
        </automationpattern>
        <automationpattern prog="1" mute="0" pos="18432" name="Wah Bass>Filter Frequency" len="1536" tens="1">
          <time value="90" pos="0"/>
          <time value="127" pos="768"/>
          <time value="90" pos="1536"/>
          <object id="4735138"/>
        </automationpattern>
      </track>
      <track name="Wah Bass > StereoEnhancer" muted="0" type="5" solo="0">
        <automationtrack/>
        <automationpattern prog="1" mute="0" pos="15360" name="StereoEnhancer Effect>>Width" len="1536" tens="1">
          <time value="0" pos="0"/>
          <time value="114" pos="768"/>
          <time value="0" pos="1536"/>
          <object id="3196872"/>
        </automationpattern>
        <automationpattern prog="1" mute="0" pos="16896" name="StereoEnhancer Effect>>Width" len="1536" tens="1">
          <time value="0" pos="0"/>
          <time value="114" pos="768"/>
          <time value="0" pos="1536"/>
          <object id="3196872"/>
        </automationpattern>
        <automationpattern prog="1" mute="0" pos="18432" name="StereoEnhancer Effect>>Width" len="1536" tens="1">
          <time value="0" pos="0"/>
          <time value="114" pos="768"/>
          <time value="0" pos="1536"/>
          <object id="3196872"/>
        </automationpattern>
        <automationpattern prog="1" mute="0" pos="13824" name="StereoEnhancer Effect>>Width" len="1536" tens="1">
          <time value="0" pos="0"/>
          <time value="114" pos="768"/>
          <time value="0" pos="1536"/>
          <object id="3196872"/>
        </automationpattern>
      </track>
      <track name="Wah Bass > Volume" muted="0" type="5" solo="0">
        <automationtrack/>
        <automationpattern prog="1" mute="0" pos="13824" name="Wah Bass>Volume" len="1536" tens="1">
          <time value="21.200001" pos="0"/>
          <time value="65" pos="1536"/>
          <object id="1669098"/>
        </automationpattern>
      </track>
      <track name="LB302 > Pitch" muted="0" type="5" solo="0">
        <automationtrack/>
        <automationpattern prog="1" mute="0" pos="7680" name="LB302>Pitch" len="384" tens="1">
          <time value="0" pos="0"/>
          <time value="2" pos="96"/>
          <time value="-100" pos="288"/>
          <time value="-100" pos="384"/>
          <object id="8129717"/>
        </automationpattern>
        <automationpattern prog="1" mute="0" pos="8448" name="Acid Lead>Pitch" len="384" tens="1">
          <time value="0" pos="0"/>
          <time value="2" pos="96"/>
          <time value="-100" pos="288"/>
          <time value="-100" pos="384"/>
          <object id="8129717"/>
        </automationpattern>
        <automationpattern prog="1" mute="0" pos="9216" name="Acid Lead>Pitch" len="384" tens="1">
          <time value="0" pos="0"/>
          <time value="2" pos="96"/>
          <time value="-100" pos="288"/>
          <time value="-100" pos="384"/>
          <object id="8129717"/>
        </automationpattern>
        <automationpattern prog="1" mute="0" pos="9984" name="Acid Lead>Pitch" len="384" tens="1">
          <time value="0" pos="0"/>
          <time value="2" pos="96"/>
          <time value="-100" pos="288"/>
          <time value="-100" pos="384"/>
          <object id="8129717"/>
        </automationpattern>
      </track>
      <track name="LB302 > Volume" muted="0" type="5" solo="0">
        <automationtrack/>
        <automationpattern prog="1" mute="0" pos="7680" name="LB302>Volume" len="384" tens="1">
          <time value="48.200001" pos="0"/>
          <time value="10.2" pos="384"/>
          <object id="2408211"/>
        </automationpattern>
        <automationpattern prog="1" mute="0" pos="8448" name="Acid Lead>Volume" len="384" tens="1">
          <time value="16.800001" pos="0"/>
          <time value="10.2" pos="384"/>
          <object id="2408211"/>
        </automationpattern>
        <automationpattern prog="1" mute="0" pos="9216" name="Acid Lead>Volume" len="384" tens="1">
          <time value="16.800001" pos="0"/>
          <time value="10.2" pos="384"/>
          <object id="2408211"/>
        </automationpattern>
        <automationpattern prog="1" mute="0" pos="9984" name="Acid Lead>Volume" len="384" tens="1">
          <time value="16.800001" pos="0"/>
          <time value="10.2" pos="384"/>
          <object id="2408211"/>
        </automationpattern>
      </track>
      <track name="LB302 > Pan" muted="0" type="5" solo="0">
        <automationtrack/>
      </track>
      <track name="Flashbang" muted="0" type="0" solo="0">
        <instrumenttrack pitchrange="1" pan="0" fxch="0" basenote="57" pitch="0" vol="100" usemasterpitch="1">
          <instrument name="audiofileprocessor">
            <audiofileprocessor sframe="0" lframe="0.70800102" looped="1" interp="1" reversed="0" amp="100" stutter="0" src="drumsynth/misc/hi_pic.ds" eframe="0.709001"/>
          </instrument>
          <eldata fcut="14000" ftype="0" fwet="0" fres="0.5">
            <elvol dec="0.80400002" ctlenvamt="0" latt="0" sustain="0.092000008" amt="1" lamt="0" pdel="0" rel="0.1" lshp="0" lpdel="0" hold="0.5" lspd_numerator="4" lspd_denominator="4" att="0" x100="0" lspd="0.1" lspd_syncmode="0" userwavefile=""/>
            <elcut dec="0.5" ctlenvamt="0" latt="0" sustain="0.5" amt="0" lamt="0" pdel="0" rel="0.1" lshp="0" lpdel="0" hold="0.5" lspd_numerator="4" lspd_denominator="4" att="0" x100="0" lspd="0.1" lspd_syncmode="0" userwavefile=""/>
            <elres dec="0.5" ctlenvamt="0" latt="0" sustain="0.5" amt="0" lamt="0" pdel="0" rel="0.1" lshp="0" lpdel="0" hold="0.5" lspd_numerator="4" lspd_denominator="4" att="0" x100="0" lspd="0.1" lspd_syncmode="0" userwavefile=""/>
          </eldata>
          <chordcreator chordrange="1" chord-enabled="0" chord="0"/>
          <arpeggiator arptime="200" arptime_syncmode="0" arpmode="0" arptime_numerator="4" arptime_denominator="4" arpdir="0" arpgate="100" arprange="1" arp-enabled="0" arpmiss="0" arp="0" arpcycle="0" arpskip="0"/>
          <midiport inputcontroller="0" fixedoutputnote="-1" writable="0" basevelocity="63" outputprogram="1" outputcontroller="0" fixedinputvelocity="-1" outputchannel="1" fixedoutputvelocity="-1" readable="0" inputchannel="0"/>
          <fxchain numofeffects="2" enabled="1">
            <effect gate="0" on="1" autoquit_syncmode="0" autoquit="1" name="ladspaeffect" autoquit_numerator="4" wet="1" autoquit_denominator="4">
              <ladspacontrols ports="6">
                <port04 data="0"/>
                <port05 data="0.5"/>
                <port06>
                  <data value="0" scale_type="log" id="3967440"/>
                </port06>
                <port07>
                  <data value="0.068000004" scale_type="log" id="2124078"/>
                </port07>
                <port08>
                  <data value="1" scale_type="log" id="1689862"/>
                </port08>
                <port09 data="0.5"/>
              </ladspacontrols>
              <key>
                <attribute value="cmt" name="file"/>
                <attribute value="freeverb3" name="plugin"/>
              </key>
            </effect>
            <effect gate="0" on="1" autoquit_syncmode="0" autoquit="1" name="eq" autoquit_numerator="4" wet="1" autoquit_denominator="4">
              <Eq LPres="0.70700002" Peak3bw="0.30000001" HPres="0.70700002" HP12="1" HighShelfgain="0" Peak1active="0" HPactive="0" Peak3active="0" Peak2gain="0" Lowshelfactive="0" Peak2bw="0.30000001" Peak1bw="0.30000001" Highshelfactive="0" LP12="1" Peak4bw="0.30000001" Peak4gain="0" Peak4active="0" AnalyseIn="1" HP24="0" LP48="0" LowShelfres="1.4" LP="0" Peak2active="0" HP48="0" HighShelfres="1.4" Peak3gain="0" Outputgain="-14.38" LP24="0" Lowshelfgain="0" AnalyseOut="1" HP="0" LPactive="0">
                <Inputgain value="0" scale_type="log" id="438770"/>
                <Peak1gain value="0" scale_type="log" id="4465497"/>
                <HPfreq value="31" scale_type="log" id="5959804"/>
                <LowShelffreq value="80" scale_type="log" id="6575913"/>
                <Peak1freq value="120" scale_type="log" id="6431532"/>
                <Peak2freq value="250" scale_type="log" id="1387967"/>
                <Peak3freq value="2000" scale_type="log" id="1090045"/>
                <Peak4freq value="4000" scale_type="log" id="4046905"/>
                <Highshelffreq value="12000" scale_type="log" id="6772088"/>
                <LPfreq value="18000" scale_type="log" id="5964403"/>
              </Eq>
              <key/>
            </effect>
          </fxchain>
        </instrumenttrack>
      </track>
      <track name="Clap.ds" muted="0" type="0" solo="0">
        <instrumenttrack pitchrange="1" pan="0" fxch="0" basenote="57" pitch="0" vol="100" usemasterpitch="1">
          <instrument name="audiofileprocessor">
            <audiofileprocessor sframe="0" lframe="0" looped="0" interp="1" reversed="0" amp="100" stutter="0" src="drumsynth/cr8000/Clap.ds" eframe="1"/>
          </instrument>
          <eldata fcut="14000" ftype="0" fwet="0" fres="0.5">
            <elvol dec="0.5" ctlenvamt="0" latt="0" sustain="0.5" amt="0" lamt="0" pdel="0" rel="0.1" lshp="0" lpdel="0" hold="0.5" lspd_numerator="4" lspd_denominator="4" att="0" x100="0" lspd="0.1" lspd_syncmode="0" userwavefile=""/>
            <elcut dec="0.5" ctlenvamt="0" latt="0" sustain="0.5" amt="0" lamt="0" pdel="0" rel="0.1" lshp="0" lpdel="0" hold="0.5" lspd_numerator="4" lspd_denominator="4" att="0" x100="0" lspd="0.1" lspd_syncmode="0" userwavefile=""/>
            <elres dec="0.5" ctlenvamt="0" latt="0" sustain="0.5" amt="0" lamt="0" pdel="0" rel="0.1" lshp="0" lpdel="0" hold="0.5" lspd_numerator="4" lspd_denominator="4" att="0" x100="0" lspd="0.1" lspd_syncmode="0" userwavefile=""/>
          </eldata>
          <chordcreator chordrange="1" chord-enabled="0" chord="0"/>
          <arpeggiator arptime="200" arptime_syncmode="0" arpmode="0" arptime_numerator="4" arptime_denominator="4" arpdir="0" arpgate="100" arprange="1" arp-enabled="0" arpmiss="0" arp="0" arpcycle="0" arpskip="0"/>
          <midiport inputcontroller="0" fixedoutputnote="-1" writable="0" basevelocity="63" outputprogram="1" outputcontroller="0" fixedinputvelocity="-1" outputchannel="1" fixedoutputvelocity="-1" readable="0" inputchannel="0"/>
          <fxchain numofeffects="0" enabled="0"/>
        </instrumenttrack>
      </track>
      <track name="Clave.ds" muted="0" type="0" solo="0">
        <instrumenttrack pitchrange="1" pan="0" fxch="0" basenote="57" pitch="0" vol="100" usemasterpitch="1">
          <instrument name="audiofileprocessor">
            <audiofileprocessor sframe="0" lframe="0" looped="0" interp="1" reversed="0" amp="100" stutter="0" src="drumsynth/cr8000/Clave.ds" eframe="1"/>
          </instrument>
          <eldata fcut="14000" ftype="0" fwet="0" fres="0.5">
            <elvol dec="0.5" ctlenvamt="0" latt="0" sustain="0.5" amt="0" lamt="0" pdel="0" rel="0.1" lshp="0" lpdel="0" hold="0.5" lspd_numerator="4" lspd_denominator="4" att="0" x100="0" lspd="0.1" lspd_syncmode="0" userwavefile=""/>
            <elcut dec="0.5" ctlenvamt="0" latt="0" sustain="0.5" amt="0" lamt="0" pdel="0" rel="0.1" lshp="0" lpdel="0" hold="0.5" lspd_numerator="4" lspd_denominator="4" att="0" x100="0" lspd="0.1" lspd_syncmode="0" userwavefile=""/>
            <elres dec="0.5" ctlenvamt="0" latt="0" sustain="0.5" amt="0" lamt="0" pdel="0" rel="0.1" lshp="0" lpdel="0" hold="0.5" lspd_numerator="4" lspd_denominator="4" att="0" x100="0" lspd="0.1" lspd_syncmode="0" userwavefile=""/>
          </eldata>
          <chordcreator chordrange="1" chord-enabled="0" chord="0"/>
          <arpeggiator arptime="200" arptime_syncmode="0" arpmode="0" arptime_numerator="4" arptime_denominator="4" arpdir="0" arpgate="100" arprange="1" arp-enabled="0" arpmiss="0" arp="0" arpcycle="0" arpskip="0"/>
          <midiport inputcontroller="0" fixedoutputnote="-1" writable="0" basevelocity="63" outputprogram="1" outputcontroller="0" fixedinputvelocity="-1" outputchannel="1" fixedoutputvelocity="-1" readable="0" inputchannel="0"/>
          <fxchain numofeffects="0" enabled="0"/>
        </instrumenttrack>
      </track>
      <track name="explode01.ogg" muted="0" type="0" solo="0">
        <instrumenttrack pitchrange="1" pan="0" fxch="0" basenote="57" pitch="0" vol="100" usemasterpitch="1">
          <instrument name="audiofileprocessor">
            <audiofileprocessor sframe="0" lframe="0" looped="0" interp="1" reversed="0" amp="100" stutter="0" src="effects/explode01.ogg" eframe="1"/>
          </instrument>
          <eldata fcut="14000" ftype="0" fwet="0" fres="0.5">
            <elvol dec="0.5" ctlenvamt="0" latt="0" sustain="0.5" amt="0" lamt="0" pdel="0" rel="0.1" lshp="0" lpdel="0" hold="0.5" lspd_numerator="4" lspd_denominator="4" att="0" x100="0" lspd="0.1" lspd_syncmode="0" userwavefile=""/>
            <elcut dec="0.5" ctlenvamt="0" latt="0" sustain="0.5" amt="0" lamt="0" pdel="0" rel="0.1" lshp="0" lpdel="0" hold="0.5" lspd_numerator="4" lspd_denominator="4" att="0" x100="0" lspd="0.1" lspd_syncmode="0" userwavefile=""/>
            <elres dec="0.5" ctlenvamt="0" latt="0" sustain="0.5" amt="0" lamt="0" pdel="0" rel="0.1" lshp="0" lpdel="0" hold="0.5" lspd_numerator="4" lspd_denominator="4" att="0" x100="0" lspd="0.1" lspd_syncmode="0" userwavefile=""/>
          </eldata>
          <chordcreator chordrange="1" chord-enabled="0" chord="0"/>
          <arpeggiator arptime="200" arptime_syncmode="0" arpmode="0" arptime_numerator="4" arptime_denominator="4" arpdir="0" arpgate="100" arprange="1" arp-enabled="0" arpmiss="0" arp="0" arpcycle="0" arpskip="0"/>
          <midiport inputcontroller="0" fixedoutputnote="-1" writable="0" basevelocity="63" outputprogram="1" outputcontroller="0" fixedinputvelocity="-1" outputchannel="1" fixedoutputvelocity="-1" readable="0" inputchannel="0"/>
          <fxchain numofeffects="0" enabled="0"/>
        </instrumenttrack>
      </track>
    </trackcontainer>
    <track name="Automation track" muted="0" type="6" solo="0">
      <automationtrack/>
      <automationpattern prog="0" mute="0" pos="0" name="Numerator" len="192" tens="1"/>
      <automationpattern prog="0" mute="0" pos="0" name="Denominator" len="192" tens="1"/>
      <automationpattern prog="0" mute="0" pos="0" name="Tempo" len="192" tens="1"/>
      <automationpattern prog="0" mute="0" pos="0" name="Master volume" len="192" tens="1"/>
      <automationpattern prog="0" mute="0" pos="0" name="Master pitch" len="192" tens="1"/>
      <automationpattern prog="0" mute="0" pos="0" name="Numerator" len="192" tens="1"/>
      <automationpattern prog="0" mute="0" pos="0" name="Denominator" len="192" tens="1"/>
      <automationpattern prog="0" mute="0" pos="0" name="Tempo" len="192" tens="1"/>
      <automationpattern prog="0" mute="0" pos="0" name="Master volume" len="192" tens="1"/>
      <automationpattern prog="0" mute="0" pos="0" name="Master pitch" len="192" tens="1"/>
    </track>
    <fxmixer visible="0" y="463" x="99" width="561" height="333" minimized="0" maximized="0">
      <fxchannel soloed="0" volume="1" muted="0" name="Master" num="0">
        <fxchain numofeffects="0" enabled="0"/>
      </fxchannel>
      <fxchannel soloed="0" volume="1" muted="0" name="explode01.ogg" num="1">
        <fxchain numofeffects="4" enabled="1">
          <effect gate="0" on="1" autoquit_syncmode="0" autoquit="1" name="eq" autoquit_numerator="4" wet="1" autoquit_denominator="4">
            <Eq LPres="0.70700002" Peak3bw="0.30000001" HPres="0.70700002" HP12="1" HighShelfgain="6.3000002" Peak1active="0" HPactive="0" Peak3active="0" Peak2gain="-6.8380003" Lowshelfactive="1" Peak2bw="0.30000001" Peak1bw="0.30000001" Highshelfactive="1" LP12="1" Peak4bw="0.30000001" Peak4gain="0" Peak4active="0" AnalyseIn="1" HP24="0" LP48="0" LowShelfres="1.4" LP="0" Peak2active="1" HP48="0" HighShelfres="1.4" Peak3gain="0" Outputgain="1.62" LP24="0" Lowshelfgain="1.8000001" AnalyseOut="1" HP="0" LPactive="0">
              <Inputgain value="0" scale_type="log" id="224716"/>
              <Peak1gain value="0" scale_type="log" id="6203534"/>
              <HPfreq value="31.000004" scale_type="log" id="1031134"/>
              <LowShelffreq value="157.18941" scale_type="log" id="4665255"/>
              <Peak1freq value="119.99998" scale_type="log" id="4102206"/>
              <Peak2freq value="538.60907" scale_type="log" id="6434474"/>
              <Peak3freq value="1999.9996" scale_type="log" id="6117810"/>
              <Peak4freq value="4000.0029" scale_type="log" id="7130981"/>
              <Highshelffreq value="10944.13" scale_type="log" id="984974"/>
              <LPfreq value="17999.996" scale_type="log" id="2403199"/>
            </Eq>
            <key/>
          </effect>
          <effect gate="0" on="1" autoquit_syncmode="0" autoquit="1" name="ladspaeffect" autoquit_numerator="4" wet="1" autoquit_denominator="4">
            <ladspacontrols ports="10">
              <port00 data="2"/>
              <port01 data="0"/>
              <port02 data="4"/>
              <port03 data="29.25"/>
              <port04 data="-8.8000002"/>
              <port05 data="-12.3"/>
              <port06 data="0"/>
              <port07 data="1"/>
              <port08 data="1"/>
              <port09 data="0"/>
            </ladspacontrols>
            <key>
              <attribute value="tap_echo" name="file"/>
              <attribute value="tap_stereo_echo" name="plugin"/>
            </key>
          </effect>
          <effect gate="0" on="1" autoquit_syncmode="0" autoquit="1" name="ladspaeffect" autoquit_numerator="4" wet="0.65999997" autoquit_denominator="4">
            <ladspacontrols ports="10">
              <port04 data="0.060000002"/>
              <port05>
                <data value="223.6068" scale_type="log" id="7883700"/>
              </port05>
              <port06 data="2.75"/>
              <port07 data="2.75"/>
              <port08>
                <data value="6000" scale_type="log" id="281911"/>
              </port08>
              <port09>
                <data value="159.05415" scale_type="log" id="7288859"/>
              </port09>
              <port010 data="0"/>
              <port011>
                <data value="2514.8672" scale_type="log" id="599564"/>
              </port011>
              <port012 data="0"/>
              <port013 data="0.5"/>
            </ladspacontrols>
            <key>
              <attribute value="zita-reverbs" name="file"/>
              <attribute value="zita-reverb" name="plugin"/>
            </key>
          </effect>
          <effect gate="0" on="1" autoquit_syncmode="0" autoquit="1" name="ladspaeffect" autoquit_numerator="4" wet="1" autoquit_denominator="4">
            <ladspacontrols ports="18">
              <port04 data="0"/>
              <port05 data="1"/>
              <port010 data="0.33717039"/>
              <port011 data="2.1612499"/>
              <port012>
                <data value="4.472136" scale_type="log" id="5642856"/>
              </port012>
              <port013>
                <data value="94.574165" scale_type="log" id="6823935"/>
              </port013>
              <port014 data="1"/>
              <port015 data="2.75"/>
              <port016 data="0"/>
              <port017 data="0"/>
              <port019 data="0"/>
              <port020>
                <data value="424.26407" scale_type="log" id="6391907"/>
              </port020>
              <port021>
                <data value="2763.468" scale_type="log" id="2341566"/>
              </port021>
              <port022 data="1"/>
              <port023 data="1"/>
              <port024 data="0"/>
              <port027 data="0"/>
              <port028 data="1"/>
            </ladspacontrols>
            <key>
              <attribute value="calf" name="file"/>
              <attribute value="Sidechaincompressor" name="plugin"/>
            </key>
          </effect>
        </fxchain>
        <send amount="1" channel="0"/>
      </fxchannel>
    </fxmixer>
    <ControllerRackView visible="0" y="407" x="836" width="350" height="200" minimized="0" maximized="0"/>
    <pianoroll visible="0" y="170" x="590" width="860" height="482" minimized="0" maximized="0"/>
    <automationeditor visible="0" y="383" x="54" width="860" height="400" minimized="0" maximized="0"/>
    <projectnotes visible="0" y="1" x="1" width="782" height="400" minimized="0" maximized="0"><![CDATA[<!DOCTYPE HTML PUBLIC "-//W3C//DTD HTML 4.0//EN" "http://www.w3.org/TR/REC-html40/strict.dtd">
<html><head><meta name="qrichtext" content="1" /><style type="text/css">
p, li { white-space: pre-wrap; }
</style></head><body style=" font-family:'Sans Serif'; font-size:9pt; font-weight:400; font-style:normal;">
<p style="-qt-paragraph-type:empty; margin-top:0px; margin-bottom:0px; margin-left:0px; margin-right:0px; -qt-block-indent:0; text-indent:0px; font-family:'Cantarell'; font-size:11pt;"><br /></p></body></html>]]></projectnotes>
    <timeline lp1pos="20352" lpstate="1" lp0pos="0"/>
    <controllers/>
  </song>
</lmms-project>
