<?xml version="1.0"?>
<!DOCTYPE lmms-project>
<lmms-project version="1.0" creatorversion="1.2.2" type="song" creator="LMMS">
  <head timesig_denominator="4" masterpitch="0" bpm="145" timesig_numerator="4">
    <mastervol scale_type="linear" id="3164199" value="75"/>
  </head>
  <song>
    <trackcontainer x="8" minimized="0" y="6" type="song" maximized="1" height="399" width="1041" visible="1">
      <track name="bassline" solo="0" type="1" muted="0">
        <bbtrack>
          <trackcontainer x="659" minimized="0" y="416" type="bbtrackcontainer" maximized="0" height="401" width="700" visible="1">
            <track name="kick01.ogg" solo="0" type="0" muted="0">
              <instrumenttrack basenote="57" fxch="2" pitch="0" usemasterpitch="1" vol="54.900002" pan="0" pitchrange="1">
                <instrument name="audiofileprocessor">
                  <audiofileprocessor amp="100" src="drums/kick01.ogg" looped="0" stutter="0" interp="1" reversed="0" sframe="0" eframe="1" lframe="0"/>
                </instrument>
                <eldata fres="0.5" ftype="0" fwet="0" fcut="14000">
                  <elvol hold="0.5" att="0" lspd="0.1" lamt="0" lspd_denominator="4" pdel="0" userwavefile="" lspd_numerator="4" ctlenvamt="0" lshp="0" lspd_syncmode="0" x100="0" latt="0" dec="0.5" rel="0.1" lpdel="0" amt="0" sustain="0.5"/>
                  <elcut hold="0.5" att="0" lspd="0.1" lamt="0" lspd_denominator="4" pdel="0" userwavefile="" lspd_numerator="4" ctlenvamt="0" lshp="0" lspd_syncmode="0" x100="0" latt="0" dec="0.5" rel="0.1" lpdel="0" amt="0" sustain="0.5"/>
                  <elres hold="0.5" att="0" lspd="0.1" lamt="0" lspd_denominator="4" pdel="0" userwavefile="" lspd_numerator="4" ctlenvamt="0" lshp="0" lspd_syncmode="0" x100="0" latt="0" dec="0.5" rel="0.1" lpdel="0" amt="0" sustain="0.5"/>
                </eldata>
                <chordcreator chordrange="1" chord="0" chord-enabled="0"/>
                <arpeggiator arpgate="100" arptime_numerator="4" arptime="200" arp-enabled="0" arpskip="0" arpdir="0" arpcycle="0" arptime_denominator="4" arp="0" arprange="1" arpmiss="0" arptime_syncmode="0" arpmode="0"/>
                <midiport fixedoutputnote="-1" outputchannel="1" outputprogram="1" outputcontroller="0" fixedinputvelocity="-1" inputcontroller="0" basevelocity="63" inputchannel="0" fixedoutputvelocity="-1" readable="0" writable="0"/>
                <fxchain numofeffects="0" enabled="0"/>
              </instrumenttrack>
              <pattern name="kick01.ogg" steps="16" type="0" muted="0" pos="0">
                <note key="57" len="-192" vol="100" pan="0" pos="0"/>
                <note key="57" len="-192" vol="5" pan="0" pos="24"/>
                <note key="57" len="-192" vol="10" pan="0" pos="36"/>
                <note key="57" len="-192" vol="70" pan="0" pos="48"/>
                <note key="57" len="-192" vol="5" pan="0" pos="72"/>
                <note key="57" len="-192" vol="35" pan="0" pos="84"/>
                <note key="57" len="-192" vol="100" pan="0" pos="96"/>
                <note key="57" len="-192" vol="5" pan="0" pos="120"/>
                <note key="57" len="-192" vol="25" pan="0" pos="132"/>
                <note key="57" len="-192" vol="75" pan="0" pos="144"/>
                <note key="57" len="-192" vol="10" pan="0" pos="168"/>
                <note key="57" len="-192" vol="35" pan="0" pos="180"/>
              </pattern>
              <pattern name="kick01.ogg" steps="16" type="0" muted="0" pos="192"/>
              <pattern name="kick01.ogg" steps="16" type="0" muted="0" pos="384"/>
            </track>
            <track name="clap01.ogg" solo="0" type="0" muted="0">
              <instrumenttrack basenote="57" fxch="3" pitch="0" usemasterpitch="1" vol="52" pan="0" pitchrange="1">
                <instrument name="audiofileprocessor">
                  <audiofileprocessor amp="100" src="drums/clap01.ogg" looped="0" stutter="0" interp="1" reversed="0" sframe="0" eframe="1" lframe="0"/>
                </instrument>
                <eldata fres="0.5" ftype="0" fwet="0" fcut="14000">
                  <elvol hold="0.5" att="0" lspd="0.1" lamt="0" lspd_denominator="4" pdel="0" userwavefile="" lspd_numerator="4" ctlenvamt="0" lshp="0" lspd_syncmode="0" x100="0" latt="0" dec="0.5" rel="0.1" lpdel="0" amt="0" sustain="0.5"/>
                  <elcut hold="0.5" att="0" lspd="0.1" lamt="0" lspd_denominator="4" pdel="0" userwavefile="" lspd_numerator="4" ctlenvamt="0" lshp="0" lspd_syncmode="0" x100="0" latt="0" dec="0.5" rel="0.1" lpdel="0" amt="0" sustain="0.5"/>
                  <elres hold="0.5" att="0" lspd="0.1" lamt="0" lspd_denominator="4" pdel="0" userwavefile="" lspd_numerator="4" ctlenvamt="0" lshp="0" lspd_syncmode="0" x100="0" latt="0" dec="0.5" rel="0.1" lpdel="0" amt="0" sustain="0.5"/>
                </eldata>
                <chordcreator chordrange="1" chord="0" chord-enabled="0"/>
                <arpeggiator arpgate="100" arptime_numerator="4" arptime="200" arp-enabled="0" arpskip="0" arpdir="0" arpcycle="0" arptime_denominator="4" arp="0" arprange="1" arpmiss="0" arptime_syncmode="0" arpmode="0"/>
                <midiport fixedoutputnote="-1" outputchannel="1" outputprogram="1" outputcontroller="0" fixedinputvelocity="-1" inputcontroller="0" basevelocity="63" inputchannel="0" fixedoutputvelocity="-1" readable="0" writable="0"/>
                <fxchain numofeffects="0" enabled="0"/>
              </instrumenttrack>
              <pattern name="clap01.ogg" steps="16" type="0" muted="0" pos="0"/>
              <pattern name="clap01.ogg" steps="16" type="0" muted="0" pos="192">
                <note key="57" len="-192" vol="100" pan="0" pos="48"/>
                <note key="57" len="-192" vol="100" pan="0" pos="144"/>
              </pattern>
              <pattern name="clap01.ogg" steps="16" type="0" muted="0" pos="384"/>
            </track>
            <track name="clap03.ogg" solo="0" type="0" muted="0">
              <instrumenttrack basenote="57" fxch="3" pitch="0" usemasterpitch="1" vol="26.800001" pan="0" pitchrange="1">
                <instrument name="audiofileprocessor">
                  <audiofileprocessor amp="100" src="drums/clap03.ogg" looped="0" stutter="0" interp="1" reversed="0" sframe="0" eframe="1" lframe="0"/>
                </instrument>
                <eldata fres="0.5" ftype="0" fwet="0" fcut="14000">
                  <elvol hold="0.5" att="0" lspd="0.1" lamt="0" lspd_denominator="4" pdel="0" userwavefile="" lspd_numerator="4" ctlenvamt="0" lshp="0" lspd_syncmode="0" x100="0" latt="0" dec="0.5" rel="0.1" lpdel="0" amt="0" sustain="0.5"/>
                  <elcut hold="0.5" att="0" lspd="0.1" lamt="0" lspd_denominator="4" pdel="0" userwavefile="" lspd_numerator="4" ctlenvamt="0" lshp="0" lspd_syncmode="0" x100="0" latt="0" dec="0.5" rel="0.1" lpdel="0" amt="0" sustain="0.5"/>
                  <elres hold="0.5" att="0" lspd="0.1" lamt="1" lspd_denominator="4" pdel="0" userwavefile="" lspd_numerator="4" ctlenvamt="0" lshp="0" lspd_syncmode="0" x100="0" latt="0" dec="0.5" rel="0.1" lpdel="0" amt="0" sustain="0.5"/>
                </eldata>
                <chordcreator chordrange="1" chord="2" chord-enabled="1"/>
                <arpeggiator arpgate="100" arptime_numerator="4" arptime="200" arp-enabled="0" arpskip="0" arpdir="0" arpcycle="0" arptime_denominator="4" arp="0" arprange="1" arpmiss="0" arptime_syncmode="0" arpmode="0"/>
                <midiport fixedoutputnote="-1" outputchannel="1" outputprogram="1" outputcontroller="0" fixedinputvelocity="-1" inputcontroller="0" basevelocity="63" inputchannel="0" fixedoutputvelocity="-1" readable="0" writable="0"/>
                <fxchain numofeffects="2" enabled="1">
                  <effect wet="1" name="ladspaeffect" autoquit_syncmode="0" autoquit_numerator="4" autoquit_denominator="4" gate="0" autoquit="1" on="0">
                    <ladspacontrols ports="7">
                      <port00 data="0.50625002"/>
                      <port01 data="26.099998"/>
                      <port02 data="36.375"/>
                      <port03 data="6.125"/>
                      <port04 data="100"/>
                      <port05 data="0"/>
                      <port06 data="0"/>
                    </ladspacontrols>
                    <key>
                      <attribute name="file" value="tap_chorusflanger"/>
                      <attribute name="plugin" value="tap_chorusflanger"/>
                    </key>
                  </effect>
                  <effect wet="1" name="ladspaeffect" autoquit_syncmode="0" autoquit_numerator="4" autoquit_denominator="4" gate="0" autoquit="1" on="1">
                    <ladspacontrols ports="10">
                      <port00 data="0"/>
                      <port01 data="0"/>
                      <port02 data="100"/>
                      <port03 data="0"/>
                      <port04 data="0"/>
                      <port05 data="0"/>
                      <port06 data="0"/>
                      <port07 data="0"/>
                      <port08 data="0"/>
                      <port09 data="0"/>
                    </ladspacontrols>
                    <key>
                      <attribute name="file" value="tap_echo"/>
                      <attribute name="plugin" value="tap_stereo_echo"/>
                    </key>
                  </effect>
                </fxchain>
              </instrumenttrack>
              <pattern name="clap03.ogg" steps="16" type="0" muted="0" pos="0"/>
              <pattern name="clap03.ogg" steps="16" type="0" muted="0" pos="192">
                <note key="57" len="-192" vol="75" pan="0" pos="24"/>
                <note key="57" len="-192" vol="100" pan="0" pos="36"/>
                <note key="57" len="-192" vol="75" pan="0" pos="72"/>
                <note key="57" len="-192" vol="100" pan="0" pos="84"/>
                <note key="57" len="-192" vol="80" pan="0" pos="120"/>
                <note key="57" len="-192" vol="100" pan="0" pos="132"/>
                <note key="57" len="-192" vol="100" pan="0" pos="168"/>
                <note key="57" len="-192" vol="100" pan="0" pos="180"/>
              </pattern>
              <pattern name="clap03.ogg" steps="16" type="0" muted="0" pos="384"/>
            </track>
            <track name="hihat_closed01.ogg" solo="0" type="0" muted="0">
              <instrumenttrack basenote="57" fxch="3" pitch="0" usemasterpitch="1" vol="80" pan="0" pitchrange="1">
                <instrument name="audiofileprocessor">
                  <audiofileprocessor amp="100" src="drums/hihat_closed01.ogg" looped="0" stutter="0" interp="1" reversed="0" sframe="0" eframe="1" lframe="0"/>
                </instrument>
                <eldata fres="0.5" ftype="0" fwet="0" fcut="14000">
                  <elvol hold="0.5" att="0" lspd="0.1" lamt="0" lspd_denominator="4" pdel="0" userwavefile="" lspd_numerator="4" ctlenvamt="0" lshp="0" lspd_syncmode="0" x100="0" latt="0" dec="0.5" rel="0.1" lpdel="0" amt="0" sustain="0.5"/>
                  <elcut hold="0.5" att="0" lspd="0.1" lamt="0" lspd_denominator="4" pdel="0" userwavefile="" lspd_numerator="4" ctlenvamt="0" lshp="0" lspd_syncmode="0" x100="0" latt="0" dec="0.5" rel="0.1" lpdel="0" amt="0" sustain="0.5"/>
                  <elres hold="0.5" att="0" lspd="0.1" lamt="0" lspd_denominator="4" pdel="0" userwavefile="" lspd_numerator="4" ctlenvamt="0" lshp="0" lspd_syncmode="0" x100="0" latt="0" dec="0.5" rel="0.1" lpdel="0" amt="0" sustain="0.5"/>
                </eldata>
                <chordcreator chordrange="1" chord="0" chord-enabled="0"/>
                <arpeggiator arpgate="100" arptime_numerator="4" arptime="200" arp-enabled="0" arpskip="0" arpdir="0" arpcycle="0" arptime_denominator="4" arp="0" arprange="1" arpmiss="0" arptime_syncmode="0" arpmode="0"/>
                <midiport fixedoutputnote="-1" outputchannel="1" outputprogram="1" outputcontroller="0" fixedinputvelocity="-1" inputcontroller="0" basevelocity="63" inputchannel="0" fixedoutputvelocity="-1" readable="0" writable="0"/>
                <fxchain numofeffects="0" enabled="0"/>
              </instrumenttrack>
              <pattern name="hihat_closed01.ogg" steps="16" type="0" muted="0" pos="0"/>
              <pattern name="hihat_closed01.ogg" steps="16" type="0" muted="0" pos="192">
                <note key="57" len="-192" vol="45" pan="0" pos="0"/>
                <note key="57" len="-192" vol="50" pan="0" pos="12"/>
                <note key="57" len="-192" vol="80" pan="0" pos="24"/>
                <note key="57" len="-192" vol="45" pan="0" pos="36"/>
                <note key="57" len="-192" vol="55" pan="0" pos="48"/>
                <note key="57" len="-192" vol="90" pan="0" pos="60"/>
                <note key="57" len="-192" vol="40" pan="0" pos="72"/>
                <note key="57" len="-192" vol="55" pan="0" pos="84"/>
                <note key="57" len="-192" vol="100" pan="0" pos="96"/>
                <note key="57" len="-192" vol="35" pan="0" pos="108"/>
                <note key="57" len="-192" vol="55" pan="0" pos="120"/>
                <note key="57" len="-192" vol="70" pan="0" pos="132"/>
                <note key="57" len="-192" vol="100" pan="0" pos="144"/>
                <note key="57" len="-192" vol="25" pan="0" pos="156"/>
                <note key="57" len="-192" vol="55" pan="0" pos="168"/>
                <note key="57" len="-192" vol="65" pan="0" pos="180"/>
              </pattern>
              <pattern name="hihat_closed01.ogg" steps="16" type="0" muted="0" pos="384"/>
            </track>
            <track name="metronome02.ogg" solo="0" type="0" muted="0">
              <instrumenttrack basenote="57" fxch="4" pitch="0" usemasterpitch="1" vol="100" pan="0" pitchrange="1">
                <instrument name="audiofileprocessor">
                  <audiofileprocessor amp="100" src="misc/metronome02.ogg" looped="0" stutter="0" interp="1" reversed="0" sframe="0" eframe="1" lframe="0"/>
                </instrument>
                <eldata fres="0.5" ftype="0" fwet="0" fcut="14000">
                  <elvol hold="0.5" att="0" lspd="0.1" lamt="0" lspd_denominator="4" pdel="0" userwavefile="" lspd_numerator="4" ctlenvamt="0" lshp="0" lspd_syncmode="0" x100="0" latt="0" dec="0.5" rel="0.1" lpdel="0" amt="0" sustain="0.5"/>
                  <elcut hold="0.5" att="0" lspd="0.1" lamt="0" lspd_denominator="4" pdel="0" userwavefile="" lspd_numerator="4" ctlenvamt="0" lshp="0" lspd_syncmode="0" x100="0" latt="0" dec="0.5" rel="0.1" lpdel="0" amt="0" sustain="0.5"/>
                  <elres hold="0.5" att="0" lspd="0.1" lamt="0" lspd_denominator="4" pdel="0" userwavefile="" lspd_numerator="4" ctlenvamt="0" lshp="0" lspd_syncmode="0" x100="0" latt="0" dec="0.5" rel="0.1" lpdel="0" amt="0" sustain="0.5"/>
                </eldata>
                <chordcreator chordrange="1" chord="0" chord-enabled="0"/>
                <arpeggiator arpgate="100" arptime_numerator="4" arptime="200" arp-enabled="0" arpskip="0" arpdir="0" arpcycle="0" arptime_denominator="4" arp="0" arprange="1" arpmiss="0" arptime_syncmode="0" arpmode="0"/>
                <midiport fixedoutputnote="-1" outputchannel="1" outputprogram="1" outputcontroller="0" fixedinputvelocity="-1" inputcontroller="0" basevelocity="63" inputchannel="0" fixedoutputvelocity="-1" readable="0" writable="0"/>
                <fxchain numofeffects="0" enabled="0"/>
              </instrumenttrack>
              <pattern name="metronome02.ogg" steps="16" type="0" muted="0" pos="0"/>
              <pattern name="metronome02.ogg" steps="16" type="0" muted="0" pos="192"/>
              <pattern name="metronome02.ogg" steps="16" type="0" muted="0" pos="384">
                <note key="57" len="-192" vol="100" pan="0" pos="0"/>
              </pattern>
            </track>
            <track name="metronome01.ogg" solo="0" type="0" muted="0">
              <instrumenttrack basenote="57" fxch="4" pitch="0" usemasterpitch="1" vol="100" pan="0" pitchrange="1">
                <instrument name="audiofileprocessor">
                  <audiofileprocessor amp="100" src="misc/metronome01.ogg" looped="0" stutter="0" interp="1" reversed="0" sframe="0" eframe="1" lframe="0"/>
                </instrument>
                <eldata fres="0.5" ftype="0" fwet="0" fcut="14000">
                  <elvol hold="0.5" att="0" lspd="0.1" lamt="0" lspd_denominator="4" pdel="0" userwavefile="" lspd_numerator="4" ctlenvamt="0" lshp="0" lspd_syncmode="0" x100="0" latt="0" dec="0.5" rel="0.1" lpdel="0" amt="0" sustain="0.5"/>
                  <elcut hold="0.5" att="0" lspd="0.1" lamt="0" lspd_denominator="4" pdel="0" userwavefile="" lspd_numerator="4" ctlenvamt="0" lshp="0" lspd_syncmode="0" x100="0" latt="0" dec="0.5" rel="0.1" lpdel="0" amt="0" sustain="0.5"/>
                  <elres hold="0.5" att="0" lspd="0.1" lamt="0" lspd_denominator="4" pdel="0" userwavefile="" lspd_numerator="4" ctlenvamt="0" lshp="0" lspd_syncmode="0" x100="0" latt="0" dec="0.5" rel="0.1" lpdel="0" amt="0" sustain="0.5"/>
                </eldata>
                <chordcreator chordrange="1" chord="0" chord-enabled="0"/>
                <arpeggiator arpgate="100" arptime_numerator="4" arptime="200" arp-enabled="0" arpskip="0" arpdir="0" arpcycle="0" arptime_denominator="4" arp="0" arprange="1" arpmiss="0" arptime_syncmode="0" arpmode="0"/>
                <midiport fixedoutputnote="-1" outputchannel="1" outputprogram="1" outputcontroller="0" fixedinputvelocity="-1" inputcontroller="0" basevelocity="63" inputchannel="0" fixedoutputvelocity="-1" readable="0" writable="0"/>
                <fxchain numofeffects="0" enabled="0"/>
              </instrumenttrack>
              <pattern name="metronome01.ogg" steps="16" type="0" muted="0" pos="0"/>
              <pattern name="metronome01.ogg" steps="16" type="0" muted="0" pos="192"/>
              <pattern name="metronome01.ogg" steps="16" type="0" muted="0" pos="384">
                <note key="57" len="-192" vol="5" pan="0" pos="12"/>
                <note key="57" len="-192" vol="10" pan="0" pos="24"/>
                <note key="57" len="-192" vol="25" pan="0" pos="36"/>
                <note key="57" len="-192" vol="100" pan="0" pos="48"/>
                <note key="57" len="-192" vol="5" pan="0" pos="60"/>
                <note key="57" len="-192" vol="15" pan="0" pos="72"/>
                <note key="57" len="-192" vol="30" pan="0" pos="84"/>
                <note key="57" len="-192" vol="100" pan="0" pos="96"/>
                <note key="57" len="-192" vol="5" pan="0" pos="108"/>
                <note key="57" len="-192" vol="10" pan="0" pos="120"/>
                <note key="57" len="-192" vol="20" pan="0" pos="132"/>
                <note key="57" len="-192" vol="100" pan="0" pos="144"/>
                <note key="57" len="-192" vol="5" pan="0" pos="156"/>
                <note key="57" len="-192" vol="10" pan="0" pos="168"/>
                <note key="57" len="-192" vol="25" pan="0" pos="180"/>
              </pattern>
            </track>
          </trackcontainer>
        </bbtrack>
        <bbtco usestyle="1" name="" len="7104" muted="0" color="4286611584" pos="576"/>
        <bbtco usestyle="1" name="" len="6336" muted="0" color="4286611584" pos="8064"/>
      </track>
      <track name="beat" solo="0" type="1" muted="0">
        <bbtrack/>
        <bbtco usestyle="1" name="" len="6912" muted="0" color="4286611584" pos="768"/>
        <bbtco usestyle="1" name="" len="6144" muted="0" color="4286611584" pos="8256"/>
      </track>
      <track name="Beat/Bassline 2" solo="0" type="1" muted="0">
        <bbtrack/>
        <bbtco usestyle="1" name="" len="4608" muted="0" color="4286611584" pos="9792"/>
      </track>
      <track name="Lead" solo="0" type="0" muted="0">
        <instrumenttrack basenote="57" fxch="1" pitch="0" usemasterpitch="1" vol="28" pan="0" pitchrange="1">
          <instrument name="organic">
            <organic newharmonic6="6" pan3="0" wavetype1="4" pan0="0" pan5="0" wavetype0="3" newharmonic0="0" newharmonic1="1" vol3="15" newharmonic3="3" vol4="23" pan1="0" vol7="82" pan7="0" newdetune4="-3" newharmonic2="2" vol5="97" vol="100" wavetype4="3" newdetune0="1" vol1="87" newdetune2="-4" vol6="40" newdetune1="-3" vol0="81" pan6="0" wavetype2="3" vol2="82" pan4="0" newharmonic5="5" newdetune7="-4" pan2="0" wavetype3="3" newdetune5="2" foldback="0" newharmonic7="7" newharmonic4="4" wavetype5="3" wavetype7="2" newdetune3="0" newdetune6="4" wavetype6="3" num_osc="8"/>
          </instrument>
          <eldata fres="2.98" ftype="4" fwet="1" fcut="2498">
            <elvol hold="0" att="0" lspd="0.020689655" lamt="0.72500002" lspd_denominator="4" pdel="0" userwavefile="" lspd_numerator="4" ctlenvamt="0" lshp="2" lspd_syncmode="4" x100="0" latt="0.215" dec="0.5" rel="0.1" lpdel="0" amt="1" sustain="0.5"/>
            <elcut hold="0.5" att="0" lspd="0.020689655" lamt="0" lspd_denominator="4" pdel="0" userwavefile="" lspd_numerator="4" ctlenvamt="0" lshp="2" lspd_syncmode="4" x100="0" latt="0.243" dec="0.5" rel="0.1" lpdel="0" amt="0" sustain="0.5"/>
            <elres hold="0.5" att="0" lspd="0.1" lamt="1" lspd_denominator="4" pdel="0" userwavefile="" lspd_numerator="4" ctlenvamt="0" lshp="0" lspd_syncmode="0" x100="0" latt="0" dec="0.5" rel="0.1" lpdel="0" amt="1" sustain="0.5"/>
          </eldata>
          <chordcreator chordrange="1" chord="3" chord-enabled="1"/>
          <arpeggiator arpgate="100" arptime_numerator="4" arptime="100" arp-enabled="0" arpskip="0" arpdir="0" arpcycle="0" arptime_denominator="4" arp="0" arprange="1" arpmiss="0" arptime_syncmode="0" arpmode="0"/>
          <midiport fixedoutputnote="-1" outputchannel="1" outputprogram="1" outputcontroller="0" fixedinputvelocity="-1" inputcontroller="0" basevelocity="127" inputchannel="0" fixedoutputvelocity="-1" readable="0" writable="0"/>
          <fxchain numofeffects="2" enabled="1">
            <effect wet="1" name="ladspaeffect" autoquit_syncmode="0" autoquit_numerator="4" gate="0" autoquit_denominator="4" autoquit="8000" on="1">
              <ladspacontrols ports="4">
                <port02 data="0.80017"/>
                <port03 data="0.37450001"/>
                <port04 data="0.24987499"/>
                <port05 data="0.2825"/>
              </ladspacontrols>
              <key>
                <attribute name="file" value="caps"/>
                <attribute name="plugin" value="Plate2x2"/>
              </key>
            </effect>
            <effect wet="1" name="ladspaeffect" autoquit_syncmode="0" autoquit_numerator="4" gate="0" autoquit_denominator="4" autoquit="1" on="1">
              <ladspacontrols link="1" ports="20">
                <port01 link="1" data="0"/>
                <port02 link="1" data="0"/>
                <port03 link="1" data="0"/>
                <port04 link="1" data="-1.26"/>
                <port05 link="1" data="5.8500004"/>
                <port06 link="1" data="0"/>
                <port07 link="1" data="7.5600004"/>
                <port08 link="1" data="0"/>
                <port09 link="1" data="8.46"/>
                <port010 link="1" data="0"/>
                <port11 data="0"/>
                <port12 data="0"/>
                <port13 data="0"/>
                <port14 data="-1.26"/>
                <port15 data="5.8500004"/>
                <port16 data="0"/>
                <port17 data="7.5600004"/>
                <port18 data="0"/>
                <port19 data="8.46"/>
                <port110 data="0"/>
              </ladspacontrols>
              <key>
                <attribute name="file" value="caps"/>
                <attribute name="plugin" value="Eq"/>
              </key>
            </effect>
          </fxchain>
        </instrumenttrack>
        <pattern name="Lead" steps="16" type="1" muted="0" pos="0">
          <note key="57" len="12" vol="100" pan="0" pos="0"/>
          <note key="57" len="12" vol="100" pan="0" pos="24"/>
          <note key="57" len="12" vol="100" pan="0" pos="48"/>
          <note key="57" len="12" vol="100" pan="0" pos="60"/>
          <note key="57" len="12" vol="100" pan="0" pos="84"/>
          <note key="57" len="12" vol="100" pan="0" pos="96"/>
          <note key="57" len="12" vol="100" pan="0" pos="120"/>
          <note key="57" len="12" vol="100" pan="0" pos="132"/>
          <note key="57" len="12" vol="100" pan="0" pos="156"/>
          <note key="57" len="36" vol="100" pan="0" pos="168"/>
          <note key="57" len="24" vol="100" pan="0" pos="216"/>
          <note key="57" len="24" vol="100" pan="0" pos="252"/>
          <note key="57" len="12" vol="100" pan="0" pos="288"/>
          <note key="57" len="12" vol="100" pan="0" pos="312"/>
          <note key="57" len="12" vol="100" pan="0" pos="324"/>
          <note key="57" len="12" vol="100" pan="0" pos="348"/>
          <note key="57" len="12" vol="100" pan="0" pos="360"/>
          <note key="57" len="12" vol="100" pan="0" pos="384"/>
          <note key="57" len="12" vol="100" pan="0" pos="408"/>
          <note key="57" len="12" vol="100" pan="0" pos="432"/>
          <note key="57" len="12" vol="100" pan="0" pos="444"/>
          <note key="57" len="12" vol="100" pan="0" pos="468"/>
          <note key="57" len="12" vol="100" pan="0" pos="480"/>
          <note key="57" len="12" vol="100" pan="0" pos="504"/>
          <note key="57" len="12" vol="100" pan="0" pos="516"/>
          <note key="57" len="12" vol="100" pan="0" pos="540"/>
          <note key="57" len="36" vol="100" pan="0" pos="552"/>
          <note key="53" len="12" vol="100" pan="0" pos="600"/>
          <note key="53" len="12" vol="100" pan="0" pos="624"/>
          <note key="53" len="12" vol="100" pan="0" pos="648"/>
          <note key="53" len="12" vol="100" pan="0" pos="660"/>
          <note key="57" len="24" vol="100" pan="0" pos="672"/>
          <note key="56" len="48" vol="100" pan="0" pos="696"/>
        </pattern>
        <pattern name="Lead" steps="16" type="1" muted="0" pos="1536">
          <note key="57" len="12" vol="100" pan="0" pos="0"/>
          <note key="57" len="12" vol="100" pan="0" pos="24"/>
          <note key="57" len="12" vol="100" pan="0" pos="48"/>
          <note key="57" len="12" vol="100" pan="0" pos="60"/>
          <note key="57" len="12" vol="100" pan="0" pos="84"/>
          <note key="57" len="12" vol="100" pan="0" pos="96"/>
          <note key="57" len="12" vol="100" pan="0" pos="120"/>
          <note key="57" len="12" vol="100" pan="0" pos="132"/>
          <note key="57" len="12" vol="100" pan="0" pos="156"/>
          <note key="57" len="36" vol="100" pan="0" pos="168"/>
          <note key="57" len="24" vol="100" pan="0" pos="216"/>
          <note key="57" len="24" vol="100" pan="0" pos="252"/>
          <note key="57" len="12" vol="100" pan="0" pos="288"/>
          <note key="57" len="12" vol="100" pan="0" pos="312"/>
          <note key="57" len="12" vol="100" pan="0" pos="324"/>
          <note key="57" len="12" vol="100" pan="0" pos="348"/>
          <note key="57" len="12" vol="100" pan="0" pos="360"/>
          <note key="57" len="12" vol="100" pan="0" pos="384"/>
          <note key="57" len="12" vol="100" pan="0" pos="408"/>
          <note key="57" len="12" vol="100" pan="0" pos="432"/>
          <note key="57" len="12" vol="100" pan="0" pos="444"/>
          <note key="57" len="12" vol="100" pan="0" pos="468"/>
          <note key="57" len="12" vol="100" pan="0" pos="480"/>
          <note key="57" len="12" vol="100" pan="0" pos="504"/>
          <note key="57" len="12" vol="100" pan="0" pos="516"/>
          <note key="57" len="12" vol="100" pan="0" pos="540"/>
          <note key="57" len="36" vol="100" pan="0" pos="552"/>
          <note key="53" len="12" vol="100" pan="0" pos="600"/>
          <note key="53" len="12" vol="100" pan="0" pos="624"/>
          <note key="53" len="12" vol="100" pan="0" pos="636"/>
          <note key="53" len="12" vol="100" pan="0" pos="660"/>
          <note key="52" len="48" vol="100" pan="0" pos="672"/>
        </pattern>
        <pattern name="Lead" steps="16" type="1" muted="0" pos="768">
          <note key="57" len="12" vol="100" pan="0" pos="0"/>
          <note key="57" len="12" vol="100" pan="0" pos="24"/>
          <note key="57" len="12" vol="100" pan="0" pos="48"/>
          <note key="57" len="12" vol="100" pan="0" pos="60"/>
          <note key="57" len="12" vol="100" pan="0" pos="84"/>
          <note key="57" len="12" vol="100" pan="0" pos="96"/>
          <note key="57" len="12" vol="100" pan="0" pos="120"/>
          <note key="57" len="12" vol="100" pan="0" pos="132"/>
          <note key="57" len="12" vol="100" pan="0" pos="156"/>
          <note key="57" len="36" vol="100" pan="0" pos="168"/>
          <note key="57" len="24" vol="100" pan="0" pos="216"/>
          <note key="57" len="24" vol="100" pan="0" pos="252"/>
          <note key="57" len="12" vol="100" pan="0" pos="288"/>
          <note key="57" len="12" vol="100" pan="0" pos="312"/>
          <note key="57" len="12" vol="100" pan="0" pos="324"/>
          <note key="57" len="12" vol="100" pan="0" pos="348"/>
          <note key="57" len="12" vol="100" pan="0" pos="360"/>
          <note key="57" len="12" vol="100" pan="0" pos="384"/>
          <note key="57" len="12" vol="100" pan="0" pos="408"/>
          <note key="57" len="12" vol="100" pan="0" pos="432"/>
          <note key="57" len="12" vol="100" pan="0" pos="444"/>
          <note key="57" len="12" vol="100" pan="0" pos="468"/>
          <note key="57" len="12" vol="100" pan="0" pos="480"/>
          <note key="57" len="12" vol="100" pan="0" pos="504"/>
          <note key="57" len="12" vol="100" pan="0" pos="516"/>
          <note key="57" len="12" vol="100" pan="0" pos="540"/>
          <note key="57" len="36" vol="100" pan="0" pos="552"/>
          <note key="53" len="12" vol="100" pan="0" pos="600"/>
          <note key="53" len="12" vol="100" pan="0" pos="624"/>
          <note key="53" len="12" vol="100" pan="0" pos="636"/>
          <note key="53" len="12" vol="100" pan="0" pos="660"/>
          <note key="57" len="24" vol="100" pan="0" pos="672"/>
          <note key="56" len="36" vol="100" pan="0" pos="696"/>
        </pattern>
        <pattern name="Lead" steps="16" type="1" muted="0" pos="2304">
          <note key="53" len="12" vol="100" pan="0" pos="0"/>
          <note key="53" len="12" vol="100" pan="0" pos="24"/>
          <note key="53" len="12" vol="100" pan="0" pos="48"/>
          <note key="53" len="12" vol="100" pan="0" pos="60"/>
          <note key="53" len="12" vol="100" pan="0" pos="84"/>
          <note key="53" len="12" vol="100" pan="0" pos="96"/>
          <note key="53" len="12" vol="100" pan="0" pos="120"/>
          <note key="53" len="12" vol="100" pan="0" pos="132"/>
          <note key="53" len="12" vol="100" pan="0" pos="156"/>
          <note key="53" len="24" vol="100" pan="0" pos="168"/>
          <note key="54" len="12" vol="100" pan="0" pos="192"/>
          <note key="54" len="12" vol="100" pan="0" pos="216"/>
          <note key="54" len="12" vol="100" pan="0" pos="240"/>
          <note key="54" len="12" vol="100" pan="0" pos="252"/>
          <note key="54" len="12" vol="100" pan="0" pos="276"/>
          <note key="54" len="12" vol="100" pan="0" pos="288"/>
          <note key="54" len="12" vol="100" pan="0" pos="312"/>
          <note key="54" len="12" vol="100" pan="0" pos="324"/>
          <note key="54" len="12" vol="100" pan="0" pos="348"/>
          <note key="54" len="24" vol="100" pan="0" pos="360"/>
        </pattern>
        <pattern name="Lead" steps="16" type="1" muted="0" pos="3072">
          <note key="57" len="12" vol="100" pan="0" pos="0"/>
          <note key="57" len="12" vol="100" pan="0" pos="24"/>
          <note key="57" len="12" vol="100" pan="0" pos="48"/>
          <note key="57" len="12" vol="100" pan="0" pos="60"/>
          <note key="57" len="12" vol="100" pan="0" pos="84"/>
          <note key="57" len="12" vol="100" pan="0" pos="96"/>
          <note key="57" len="12" vol="100" pan="0" pos="120"/>
          <note key="57" len="12" vol="100" pan="0" pos="132"/>
          <note key="57" len="12" vol="100" pan="0" pos="156"/>
          <note key="57" len="36" vol="100" pan="0" pos="168"/>
          <note key="57" len="24" vol="100" pan="0" pos="216"/>
          <note key="57" len="24" vol="100" pan="0" pos="252"/>
          <note key="57" len="12" vol="100" pan="0" pos="288"/>
          <note key="57" len="12" vol="100" pan="0" pos="312"/>
          <note key="57" len="12" vol="100" pan="0" pos="324"/>
          <note key="57" len="12" vol="100" pan="0" pos="348"/>
          <note key="57" len="12" vol="100" pan="0" pos="360"/>
          <note key="57" len="12" vol="100" pan="0" pos="384"/>
          <note key="57" len="12" vol="100" pan="0" pos="408"/>
          <note key="57" len="12" vol="100" pan="0" pos="432"/>
          <note key="57" len="12" vol="100" pan="0" pos="444"/>
          <note key="57" len="12" vol="100" pan="0" pos="468"/>
          <note key="57" len="12" vol="100" pan="0" pos="480"/>
          <note key="57" len="12" vol="100" pan="0" pos="504"/>
          <note key="57" len="12" vol="100" pan="0" pos="516"/>
          <note key="57" len="12" vol="100" pan="0" pos="540"/>
          <note key="57" len="36" vol="100" pan="0" pos="552"/>
          <note key="53" len="12" vol="100" pan="0" pos="600"/>
          <note key="53" len="12" vol="100" pan="0" pos="624"/>
          <note key="53" len="12" vol="100" pan="0" pos="636"/>
          <note key="53" len="12" vol="100" pan="0" pos="660"/>
          <note key="57" len="24" vol="100" pan="0" pos="672"/>
          <note key="56" len="36" vol="100" pan="0" pos="696"/>
        </pattern>
        <pattern name="Lead" steps="16" type="1" muted="0" pos="5376">
          <note key="57" len="12" vol="100" pan="0" pos="0"/>
          <note key="57" len="12" vol="100" pan="0" pos="24"/>
          <note key="57" len="12" vol="100" pan="0" pos="48"/>
          <note key="57" len="12" vol="100" pan="0" pos="60"/>
          <note key="57" len="12" vol="100" pan="0" pos="84"/>
          <note key="57" len="12" vol="100" pan="0" pos="96"/>
          <note key="57" len="12" vol="100" pan="0" pos="120"/>
          <note key="57" len="12" vol="100" pan="0" pos="132"/>
          <note key="57" len="12" vol="100" pan="0" pos="156"/>
          <note key="57" len="36" vol="100" pan="0" pos="168"/>
          <note key="57" len="24" vol="100" pan="0" pos="216"/>
          <note key="57" len="24" vol="100" pan="0" pos="252"/>
          <note key="57" len="12" vol="100" pan="0" pos="288"/>
          <note key="57" len="12" vol="100" pan="0" pos="312"/>
          <note key="57" len="12" vol="100" pan="0" pos="324"/>
          <note key="57" len="12" vol="100" pan="0" pos="348"/>
          <note key="57" len="12" vol="100" pan="0" pos="360"/>
          <note key="57" len="12" vol="100" pan="0" pos="384"/>
          <note key="57" len="12" vol="100" pan="0" pos="408"/>
          <note key="57" len="12" vol="100" pan="0" pos="432"/>
          <note key="57" len="12" vol="100" pan="0" pos="444"/>
          <note key="57" len="12" vol="100" pan="0" pos="468"/>
          <note key="57" len="12" vol="100" pan="0" pos="480"/>
          <note key="57" len="12" vol="100" pan="0" pos="504"/>
          <note key="57" len="12" vol="100" pan="0" pos="516"/>
          <note key="57" len="12" vol="100" pan="0" pos="540"/>
          <note key="57" len="36" vol="100" pan="0" pos="552"/>
          <note key="53" len="12" vol="100" pan="0" pos="600"/>
          <note key="53" len="12" vol="100" pan="0" pos="624"/>
          <note key="53" len="12" vol="100" pan="0" pos="636"/>
          <note key="53" len="12" vol="100" pan="0" pos="660"/>
          <note key="57" len="24" vol="100" pan="0" pos="672"/>
          <note key="56" len="36" vol="100" pan="0" pos="696"/>
        </pattern>
        <pattern name="Lead" steps="16" type="1" muted="0" pos="6912">
          <note key="57" len="12" vol="100" pan="0" pos="0"/>
          <note key="57" len="12" vol="100" pan="0" pos="24"/>
          <note key="57" len="12" vol="100" pan="0" pos="48"/>
          <note key="57" len="12" vol="100" pan="0" pos="60"/>
          <note key="57" len="12" vol="100" pan="0" pos="84"/>
          <note key="57" len="12" vol="100" pan="0" pos="96"/>
          <note key="57" len="12" vol="100" pan="0" pos="120"/>
          <note key="57" len="12" vol="100" pan="0" pos="132"/>
          <note key="57" len="12" vol="100" pan="0" pos="156"/>
          <note key="57" len="36" vol="100" pan="0" pos="168"/>
          <note key="57" len="24" vol="100" pan="0" pos="216"/>
          <note key="57" len="24" vol="100" pan="0" pos="252"/>
          <note key="57" len="12" vol="100" pan="0" pos="288"/>
          <note key="57" len="12" vol="100" pan="0" pos="312"/>
          <note key="57" len="12" vol="100" pan="0" pos="324"/>
          <note key="57" len="12" vol="100" pan="0" pos="348"/>
          <note key="57" len="12" vol="100" pan="0" pos="360"/>
          <note key="57" len="12" vol="100" pan="0" pos="384"/>
          <note key="57" len="12" vol="100" pan="0" pos="408"/>
          <note key="57" len="12" vol="100" pan="0" pos="432"/>
          <note key="57" len="12" vol="100" pan="0" pos="444"/>
          <note key="57" len="12" vol="100" pan="0" pos="468"/>
          <note key="57" len="12" vol="100" pan="0" pos="480"/>
          <note key="57" len="12" vol="100" pan="0" pos="504"/>
          <note key="57" len="12" vol="100" pan="0" pos="516"/>
          <note key="57" len="12" vol="100" pan="0" pos="540"/>
          <note key="57" len="36" vol="100" pan="0" pos="552"/>
          <note key="53" len="12" vol="100" pan="0" pos="600"/>
          <note key="53" len="12" vol="100" pan="0" pos="624"/>
          <note key="53" len="12" vol="100" pan="0" pos="636"/>
          <note key="53" len="12" vol="100" pan="0" pos="660"/>
          <note key="57" len="24" vol="100" pan="0" pos="672"/>
          <note key="56" len="36" vol="100" pan="0" pos="696"/>
        </pattern>
        <pattern name="Lead" steps="16" type="1" muted="0" pos="2688">
          <note key="53" len="12" vol="100" pan="0" pos="0"/>
          <note key="53" len="12" vol="100" pan="0" pos="24"/>
          <note key="53" len="12" vol="100" pan="0" pos="48"/>
          <note key="53" len="12" vol="100" pan="0" pos="60"/>
          <note key="53" len="12" vol="100" pan="0" pos="84"/>
          <note key="53" len="12" vol="100" pan="0" pos="96"/>
          <note key="53" len="12" vol="100" pan="0" pos="120"/>
          <note key="53" len="12" vol="100" pan="0" pos="132"/>
          <note key="53" len="12" vol="100" pan="0" pos="156"/>
          <note key="53" len="24" vol="100" pan="0" pos="168"/>
          <note key="55" len="12" vol="100" pan="0" pos="192"/>
          <note key="55" len="12" vol="100" pan="0" pos="216"/>
          <note key="55" len="12" vol="100" pan="0" pos="240"/>
          <note key="55" len="12" vol="100" pan="0" pos="252"/>
          <note key="55" len="12" vol="100" pan="0" pos="276"/>
          <note key="55" len="12" vol="100" pan="0" pos="288"/>
          <note key="55" len="12" vol="100" pan="0" pos="312"/>
          <note key="55" len="12" vol="100" pan="0" pos="324"/>
          <note key="55" len="12" vol="100" pan="0" pos="348"/>
          <note key="55" len="24" vol="100" pan="0" pos="360"/>
        </pattern>
        <pattern name="Lead" steps="16" type="1" muted="0" pos="4608">
          <note key="53" len="12" vol="100" pan="0" pos="0"/>
          <note key="53" len="12" vol="100" pan="0" pos="24"/>
          <note key="53" len="12" vol="100" pan="0" pos="48"/>
          <note key="53" len="12" vol="100" pan="0" pos="60"/>
          <note key="53" len="12" vol="100" pan="0" pos="84"/>
          <note key="53" len="12" vol="100" pan="0" pos="96"/>
          <note key="53" len="12" vol="100" pan="0" pos="120"/>
          <note key="53" len="12" vol="100" pan="0" pos="132"/>
          <note key="53" len="12" vol="100" pan="0" pos="156"/>
          <note key="53" len="24" vol="100" pan="0" pos="168"/>
          <note key="54" len="12" vol="100" pan="0" pos="192"/>
          <note key="54" len="12" vol="100" pan="0" pos="216"/>
          <note key="54" len="12" vol="100" pan="0" pos="240"/>
          <note key="54" len="12" vol="100" pan="0" pos="252"/>
          <note key="54" len="12" vol="100" pan="0" pos="276"/>
          <note key="54" len="12" vol="100" pan="0" pos="288"/>
          <note key="54" len="12" vol="100" pan="0" pos="312"/>
          <note key="54" len="12" vol="100" pan="0" pos="324"/>
          <note key="54" len="12" vol="100" pan="0" pos="348"/>
          <note key="54" len="24" vol="100" pan="0" pos="360"/>
        </pattern>
        <pattern name="Lead" steps="16" type="1" muted="0" pos="4992">
          <note key="53" len="12" vol="100" pan="0" pos="0"/>
          <note key="53" len="12" vol="100" pan="0" pos="24"/>
          <note key="53" len="12" vol="100" pan="0" pos="48"/>
          <note key="53" len="12" vol="100" pan="0" pos="60"/>
          <note key="53" len="12" vol="100" pan="0" pos="84"/>
          <note key="53" len="12" vol="100" pan="0" pos="96"/>
          <note key="53" len="12" vol="100" pan="0" pos="120"/>
          <note key="53" len="12" vol="100" pan="0" pos="132"/>
          <note key="53" len="12" vol="100" pan="0" pos="156"/>
          <note key="53" len="24" vol="100" pan="0" pos="168"/>
          <note key="55" len="12" vol="100" pan="0" pos="192"/>
          <note key="55" len="12" vol="100" pan="0" pos="216"/>
          <note key="55" len="12" vol="100" pan="0" pos="240"/>
          <note key="55" len="12" vol="100" pan="0" pos="252"/>
          <note key="55" len="12" vol="100" pan="0" pos="276"/>
          <note key="55" len="12" vol="100" pan="0" pos="288"/>
          <note key="55" len="12" vol="100" pan="0" pos="312"/>
          <note key="55" len="12" vol="100" pan="0" pos="324"/>
          <note key="55" len="12" vol="100" pan="0" pos="348"/>
          <note key="55" len="24" vol="100" pan="0" pos="360"/>
        </pattern>
        <pattern name="Lead" steps="16" type="1" muted="0" pos="3840">
          <note key="57" len="12" vol="100" pan="0" pos="0"/>
          <note key="57" len="12" vol="100" pan="0" pos="24"/>
          <note key="57" len="12" vol="100" pan="0" pos="48"/>
          <note key="57" len="12" vol="100" pan="0" pos="60"/>
          <note key="57" len="12" vol="100" pan="0" pos="84"/>
          <note key="57" len="12" vol="100" pan="0" pos="96"/>
          <note key="57" len="12" vol="100" pan="0" pos="120"/>
          <note key="57" len="12" vol="100" pan="0" pos="132"/>
          <note key="57" len="12" vol="100" pan="0" pos="156"/>
          <note key="57" len="36" vol="100" pan="0" pos="168"/>
          <note key="57" len="24" vol="100" pan="0" pos="216"/>
          <note key="57" len="24" vol="100" pan="0" pos="252"/>
          <note key="57" len="12" vol="100" pan="0" pos="288"/>
          <note key="57" len="12" vol="100" pan="0" pos="312"/>
          <note key="57" len="12" vol="100" pan="0" pos="324"/>
          <note key="57" len="12" vol="100" pan="0" pos="348"/>
          <note key="57" len="12" vol="100" pan="0" pos="360"/>
          <note key="57" len="12" vol="100" pan="0" pos="384"/>
          <note key="57" len="12" vol="100" pan="0" pos="408"/>
          <note key="57" len="12" vol="100" pan="0" pos="432"/>
          <note key="57" len="12" vol="100" pan="0" pos="444"/>
          <note key="57" len="12" vol="100" pan="0" pos="468"/>
          <note key="57" len="12" vol="100" pan="0" pos="480"/>
          <note key="57" len="12" vol="100" pan="0" pos="504"/>
          <note key="57" len="12" vol="100" pan="0" pos="516"/>
          <note key="57" len="12" vol="100" pan="0" pos="540"/>
          <note key="57" len="36" vol="100" pan="0" pos="552"/>
          <note key="53" len="12" vol="100" pan="0" pos="600"/>
          <note key="53" len="12" vol="100" pan="0" pos="624"/>
          <note key="53" len="12" vol="100" pan="0" pos="636"/>
          <note key="53" len="12" vol="100" pan="0" pos="660"/>
          <note key="52" len="48" vol="100" pan="0" pos="672"/>
        </pattern>
        <pattern name="Lead" steps="16" type="1" muted="0" pos="6144">
          <note key="57" len="12" vol="100" pan="0" pos="0"/>
          <note key="57" len="12" vol="100" pan="0" pos="24"/>
          <note key="57" len="12" vol="100" pan="0" pos="48"/>
          <note key="57" len="12" vol="100" pan="0" pos="60"/>
          <note key="57" len="12" vol="100" pan="0" pos="84"/>
          <note key="57" len="12" vol="100" pan="0" pos="96"/>
          <note key="57" len="12" vol="100" pan="0" pos="120"/>
          <note key="57" len="12" vol="100" pan="0" pos="132"/>
          <note key="57" len="12" vol="100" pan="0" pos="156"/>
          <note key="57" len="36" vol="100" pan="0" pos="168"/>
          <note key="57" len="24" vol="100" pan="0" pos="216"/>
          <note key="57" len="24" vol="100" pan="0" pos="252"/>
          <note key="57" len="12" vol="100" pan="0" pos="288"/>
          <note key="57" len="12" vol="100" pan="0" pos="312"/>
          <note key="57" len="12" vol="100" pan="0" pos="324"/>
          <note key="57" len="12" vol="100" pan="0" pos="348"/>
          <note key="57" len="12" vol="100" pan="0" pos="360"/>
          <note key="57" len="12" vol="100" pan="0" pos="384"/>
          <note key="57" len="12" vol="100" pan="0" pos="408"/>
          <note key="57" len="12" vol="100" pan="0" pos="432"/>
          <note key="57" len="12" vol="100" pan="0" pos="444"/>
          <note key="57" len="12" vol="100" pan="0" pos="468"/>
          <note key="57" len="12" vol="100" pan="0" pos="480"/>
          <note key="57" len="12" vol="100" pan="0" pos="504"/>
          <note key="57" len="12" vol="100" pan="0" pos="516"/>
          <note key="57" len="12" vol="100" pan="0" pos="540"/>
          <note key="57" len="36" vol="100" pan="0" pos="552"/>
          <note key="53" len="12" vol="100" pan="0" pos="600"/>
          <note key="53" len="12" vol="100" pan="0" pos="624"/>
          <note key="53" len="12" vol="100" pan="0" pos="636"/>
          <note key="53" len="12" vol="100" pan="0" pos="660"/>
          <note key="52" len="48" vol="100" pan="0" pos="672"/>
        </pattern>
        <pattern name="Lead" steps="16" type="1" muted="0" pos="9024">
          <note key="57" len="12" vol="100" pan="0" pos="0"/>
          <note key="57" len="12" vol="100" pan="0" pos="24"/>
          <note key="57" len="12" vol="100" pan="0" pos="48"/>
          <note key="57" len="12" vol="100" pan="0" pos="60"/>
          <note key="57" len="12" vol="100" pan="0" pos="84"/>
          <note key="57" len="12" vol="100" pan="0" pos="96"/>
          <note key="57" len="12" vol="100" pan="0" pos="120"/>
          <note key="57" len="12" vol="100" pan="0" pos="132"/>
          <note key="57" len="12" vol="100" pan="0" pos="156"/>
          <note key="57" len="36" vol="100" pan="0" pos="168"/>
          <note key="57" len="24" vol="100" pan="0" pos="216"/>
          <note key="57" len="24" vol="100" pan="0" pos="252"/>
          <note key="57" len="12" vol="100" pan="0" pos="288"/>
          <note key="57" len="12" vol="100" pan="0" pos="312"/>
          <note key="57" len="12" vol="100" pan="0" pos="324"/>
          <note key="57" len="12" vol="100" pan="0" pos="348"/>
          <note key="57" len="12" vol="100" pan="0" pos="360"/>
          <note key="57" len="12" vol="100" pan="0" pos="384"/>
          <note key="57" len="12" vol="100" pan="0" pos="408"/>
          <note key="57" len="12" vol="100" pan="0" pos="432"/>
          <note key="57" len="12" vol="100" pan="0" pos="444"/>
          <note key="57" len="12" vol="100" pan="0" pos="468"/>
          <note key="57" len="12" vol="100" pan="0" pos="480"/>
          <note key="57" len="12" vol="100" pan="0" pos="504"/>
          <note key="57" len="12" vol="100" pan="0" pos="516"/>
          <note key="57" len="12" vol="100" pan="0" pos="540"/>
          <note key="57" len="36" vol="100" pan="0" pos="552"/>
          <note key="53" len="12" vol="100" pan="0" pos="600"/>
          <note key="53" len="12" vol="100" pan="0" pos="624"/>
          <note key="53" len="12" vol="100" pan="0" pos="648"/>
          <note key="53" len="12" vol="100" pan="0" pos="660"/>
          <note key="57" len="24" vol="100" pan="0" pos="672"/>
          <note key="56" len="48" vol="100" pan="0" pos="696"/>
        </pattern>
        <pattern name="Lead" steps="16" type="1" muted="0" pos="9792">
          <note key="57" len="12" vol="100" pan="0" pos="0"/>
          <note key="57" len="12" vol="100" pan="0" pos="24"/>
          <note key="57" len="12" vol="100" pan="0" pos="48"/>
          <note key="57" len="12" vol="100" pan="0" pos="60"/>
          <note key="57" len="12" vol="100" pan="0" pos="84"/>
          <note key="57" len="12" vol="100" pan="0" pos="96"/>
          <note key="57" len="12" vol="100" pan="0" pos="120"/>
          <note key="57" len="12" vol="100" pan="0" pos="132"/>
          <note key="57" len="12" vol="100" pan="0" pos="156"/>
          <note key="57" len="36" vol="100" pan="0" pos="168"/>
          <note key="57" len="24" vol="100" pan="0" pos="216"/>
          <note key="57" len="24" vol="100" pan="0" pos="252"/>
          <note key="57" len="12" vol="100" pan="0" pos="288"/>
          <note key="57" len="12" vol="100" pan="0" pos="312"/>
          <note key="57" len="12" vol="100" pan="0" pos="324"/>
          <note key="57" len="12" vol="100" pan="0" pos="348"/>
          <note key="57" len="12" vol="100" pan="0" pos="360"/>
          <note key="57" len="12" vol="100" pan="0" pos="384"/>
          <note key="57" len="12" vol="100" pan="0" pos="408"/>
          <note key="57" len="12" vol="100" pan="0" pos="432"/>
          <note key="57" len="12" vol="100" pan="0" pos="444"/>
          <note key="57" len="12" vol="100" pan="0" pos="468"/>
          <note key="57" len="12" vol="100" pan="0" pos="480"/>
          <note key="57" len="12" vol="100" pan="0" pos="504"/>
          <note key="57" len="12" vol="100" pan="0" pos="516"/>
          <note key="57" len="12" vol="100" pan="0" pos="540"/>
          <note key="57" len="36" vol="100" pan="0" pos="552"/>
          <note key="53" len="12" vol="100" pan="0" pos="600"/>
          <note key="53" len="12" vol="100" pan="0" pos="624"/>
          <note key="53" len="12" vol="100" pan="0" pos="636"/>
          <note key="53" len="12" vol="100" pan="0" pos="660"/>
          <note key="57" len="24" vol="100" pan="0" pos="672"/>
          <note key="56" len="36" vol="100" pan="0" pos="696"/>
        </pattern>
        <pattern name="Lead" steps="16" type="1" muted="0" pos="10560">
          <note key="57" len="12" vol="100" pan="0" pos="0"/>
          <note key="57" len="12" vol="100" pan="0" pos="24"/>
          <note key="57" len="12" vol="100" pan="0" pos="48"/>
          <note key="57" len="12" vol="100" pan="0" pos="60"/>
          <note key="57" len="12" vol="100" pan="0" pos="84"/>
          <note key="57" len="12" vol="100" pan="0" pos="96"/>
          <note key="57" len="12" vol="100" pan="0" pos="120"/>
          <note key="57" len="12" vol="100" pan="0" pos="132"/>
          <note key="57" len="12" vol="100" pan="0" pos="156"/>
          <note key="57" len="36" vol="100" pan="0" pos="168"/>
          <note key="57" len="24" vol="100" pan="0" pos="216"/>
          <note key="57" len="24" vol="100" pan="0" pos="252"/>
          <note key="57" len="12" vol="100" pan="0" pos="288"/>
          <note key="57" len="12" vol="100" pan="0" pos="312"/>
          <note key="57" len="12" vol="100" pan="0" pos="324"/>
          <note key="57" len="12" vol="100" pan="0" pos="348"/>
          <note key="57" len="12" vol="100" pan="0" pos="360"/>
          <note key="57" len="12" vol="100" pan="0" pos="384"/>
          <note key="57" len="12" vol="100" pan="0" pos="408"/>
          <note key="57" len="12" vol="100" pan="0" pos="432"/>
          <note key="57" len="12" vol="100" pan="0" pos="444"/>
          <note key="57" len="12" vol="100" pan="0" pos="468"/>
          <note key="57" len="12" vol="100" pan="0" pos="480"/>
          <note key="57" len="12" vol="100" pan="0" pos="504"/>
          <note key="57" len="12" vol="100" pan="0" pos="516"/>
          <note key="57" len="12" vol="100" pan="0" pos="540"/>
          <note key="57" len="36" vol="100" pan="0" pos="552"/>
          <note key="53" len="12" vol="100" pan="0" pos="600"/>
          <note key="53" len="12" vol="100" pan="0" pos="624"/>
          <note key="53" len="12" vol="100" pan="0" pos="636"/>
          <note key="53" len="12" vol="100" pan="0" pos="660"/>
          <note key="52" len="48" vol="100" pan="0" pos="672"/>
        </pattern>
        <pattern name="Lead" steps="16" type="1" muted="0" pos="11328">
          <note key="57" len="12" vol="100" pan="0" pos="0"/>
          <note key="57" len="12" vol="100" pan="0" pos="24"/>
          <note key="57" len="12" vol="100" pan="0" pos="48"/>
          <note key="57" len="12" vol="100" pan="0" pos="60"/>
          <note key="57" len="12" vol="100" pan="0" pos="84"/>
          <note key="57" len="12" vol="100" pan="0" pos="96"/>
          <note key="57" len="12" vol="100" pan="0" pos="120"/>
          <note key="57" len="12" vol="100" pan="0" pos="132"/>
          <note key="57" len="12" vol="100" pan="0" pos="156"/>
          <note key="57" len="36" vol="100" pan="0" pos="168"/>
          <note key="57" len="24" vol="100" pan="0" pos="216"/>
          <note key="57" len="24" vol="100" pan="0" pos="252"/>
          <note key="57" len="12" vol="100" pan="0" pos="288"/>
          <note key="57" len="12" vol="100" pan="0" pos="312"/>
          <note key="57" len="12" vol="100" pan="0" pos="324"/>
          <note key="57" len="12" vol="100" pan="0" pos="348"/>
          <note key="57" len="12" vol="100" pan="0" pos="360"/>
          <note key="57" len="12" vol="100" pan="0" pos="384"/>
          <note key="57" len="12" vol="100" pan="0" pos="408"/>
          <note key="57" len="12" vol="100" pan="0" pos="432"/>
          <note key="57" len="12" vol="100" pan="0" pos="444"/>
          <note key="57" len="12" vol="100" pan="0" pos="468"/>
          <note key="57" len="12" vol="100" pan="0" pos="480"/>
          <note key="57" len="12" vol="100" pan="0" pos="504"/>
          <note key="57" len="12" vol="100" pan="0" pos="516"/>
          <note key="57" len="12" vol="100" pan="0" pos="540"/>
          <note key="57" len="36" vol="100" pan="0" pos="552"/>
          <note key="53" len="12" vol="100" pan="0" pos="600"/>
          <note key="53" len="12" vol="100" pan="0" pos="624"/>
          <note key="53" len="12" vol="100" pan="0" pos="636"/>
          <note key="53" len="12" vol="100" pan="0" pos="660"/>
          <note key="57" len="24" vol="100" pan="0" pos="672"/>
          <note key="56" len="36" vol="100" pan="0" pos="696"/>
        </pattern>
        <pattern name="Lead" steps="16" type="1" muted="0" pos="12096">
          <note key="59" len="12" vol="100" pan="0" pos="0"/>
          <note key="59" len="12" vol="100" pan="0" pos="24"/>
          <note key="59" len="12" vol="100" pan="0" pos="48"/>
          <note key="59" len="12" vol="100" pan="0" pos="60"/>
          <note key="59" len="12" vol="100" pan="0" pos="84"/>
          <note key="59" len="12" vol="100" pan="0" pos="96"/>
          <note key="59" len="12" vol="100" pan="0" pos="120"/>
          <note key="59" len="12" vol="100" pan="0" pos="132"/>
          <note key="59" len="12" vol="100" pan="0" pos="156"/>
          <note key="59" len="36" vol="100" pan="0" pos="168"/>
          <note key="59" len="24" vol="100" pan="0" pos="216"/>
          <note key="59" len="24" vol="100" pan="0" pos="252"/>
          <note key="59" len="12" vol="100" pan="0" pos="288"/>
          <note key="59" len="12" vol="100" pan="0" pos="312"/>
          <note key="59" len="12" vol="100" pan="0" pos="324"/>
          <note key="59" len="12" vol="100" pan="0" pos="348"/>
          <note key="59" len="12" vol="100" pan="0" pos="360"/>
          <note key="59" len="12" vol="100" pan="0" pos="384"/>
          <note key="59" len="12" vol="100" pan="0" pos="408"/>
          <note key="59" len="12" vol="100" pan="0" pos="432"/>
          <note key="59" len="12" vol="100" pan="0" pos="444"/>
          <note key="59" len="12" vol="100" pan="0" pos="468"/>
          <note key="59" len="12" vol="100" pan="0" pos="480"/>
          <note key="59" len="12" vol="100" pan="0" pos="504"/>
          <note key="59" len="12" vol="100" pan="0" pos="516"/>
          <note key="59" len="12" vol="100" pan="0" pos="540"/>
          <note key="59" len="36" vol="100" pan="0" pos="552"/>
          <note key="55" len="12" vol="100" pan="0" pos="600"/>
          <note key="55" len="12" vol="100" pan="0" pos="624"/>
          <note key="55" len="12" vol="100" pan="0" pos="636"/>
          <note key="55" len="12" vol="100" pan="0" pos="660"/>
          <note key="54" len="48" vol="100" pan="0" pos="672"/>
        </pattern>
        <pattern name="Lead" steps="16" type="1" muted="0" pos="12864">
          <note key="57" len="12" vol="100" pan="0" pos="0"/>
          <note key="57" len="12" vol="100" pan="0" pos="24"/>
          <note key="57" len="12" vol="100" pan="0" pos="48"/>
          <note key="57" len="12" vol="100" pan="0" pos="60"/>
          <note key="57" len="12" vol="100" pan="0" pos="84"/>
          <note key="57" len="12" vol="100" pan="0" pos="96"/>
          <note key="57" len="12" vol="100" pan="0" pos="120"/>
          <note key="57" len="12" vol="100" pan="0" pos="132"/>
          <note key="57" len="12" vol="100" pan="0" pos="156"/>
          <note key="57" len="36" vol="100" pan="0" pos="168"/>
          <note key="57" len="24" vol="100" pan="0" pos="216"/>
          <note key="57" len="24" vol="100" pan="0" pos="252"/>
          <note key="57" len="12" vol="100" pan="0" pos="288"/>
          <note key="57" len="12" vol="100" pan="0" pos="312"/>
          <note key="57" len="12" vol="100" pan="0" pos="324"/>
          <note key="57" len="12" vol="100" pan="0" pos="348"/>
          <note key="57" len="12" vol="100" pan="0" pos="360"/>
          <note key="57" len="12" vol="100" pan="0" pos="384"/>
          <note key="57" len="12" vol="100" pan="0" pos="408"/>
          <note key="57" len="12" vol="100" pan="0" pos="432"/>
          <note key="57" len="12" vol="100" pan="0" pos="444"/>
          <note key="57" len="12" vol="100" pan="0" pos="468"/>
          <note key="57" len="12" vol="100" pan="0" pos="480"/>
          <note key="57" len="12" vol="100" pan="0" pos="504"/>
          <note key="57" len="12" vol="100" pan="0" pos="516"/>
          <note key="57" len="12" vol="100" pan="0" pos="540"/>
          <note key="57" len="36" vol="100" pan="0" pos="552"/>
          <note key="53" len="12" vol="100" pan="0" pos="600"/>
          <note key="53" len="12" vol="100" pan="0" pos="624"/>
          <note key="53" len="12" vol="100" pan="0" pos="636"/>
          <note key="53" len="12" vol="100" pan="0" pos="660"/>
          <note key="57" len="24" vol="100" pan="0" pos="672"/>
          <note key="56" len="36" vol="100" pan="0" pos="696"/>
        </pattern>
        <pattern name="Lead" steps="16" type="1" muted="0" pos="13632">
          <note key="57" len="12" vol="100" pan="0" pos="0"/>
          <note key="57" len="12" vol="100" pan="0" pos="24"/>
          <note key="57" len="12" vol="100" pan="0" pos="48"/>
          <note key="57" len="12" vol="100" pan="0" pos="60"/>
          <note key="57" len="12" vol="100" pan="0" pos="84"/>
          <note key="57" len="12" vol="100" pan="0" pos="96"/>
          <note key="57" len="12" vol="100" pan="0" pos="120"/>
          <note key="57" len="12" vol="100" pan="0" pos="132"/>
          <note key="57" len="12" vol="100" pan="0" pos="156"/>
          <note key="57" len="36" vol="100" pan="0" pos="168"/>
          <note key="57" len="24" vol="100" pan="0" pos="216"/>
          <note key="57" len="24" vol="100" pan="0" pos="252"/>
          <note key="57" len="12" vol="100" pan="0" pos="288"/>
          <note key="57" len="12" vol="100" pan="0" pos="312"/>
          <note key="57" len="12" vol="100" pan="0" pos="324"/>
          <note key="57" len="12" vol="100" pan="0" pos="348"/>
          <note key="57" len="12" vol="100" pan="0" pos="360"/>
          <note key="57" len="12" vol="100" pan="0" pos="384"/>
          <note key="57" len="12" vol="100" pan="0" pos="408"/>
          <note key="57" len="12" vol="100" pan="0" pos="432"/>
          <note key="57" len="12" vol="100" pan="0" pos="444"/>
          <note key="57" len="12" vol="100" pan="0" pos="468"/>
          <note key="57" len="12" vol="100" pan="0" pos="480"/>
          <note key="57" len="12" vol="100" pan="0" pos="504"/>
          <note key="57" len="12" vol="100" pan="0" pos="516"/>
          <note key="57" len="12" vol="100" pan="0" pos="540"/>
          <note key="57" len="36" vol="100" pan="0" pos="552"/>
          <note key="53" len="12" vol="100" pan="0" pos="600"/>
          <note key="53" len="12" vol="100" pan="0" pos="624"/>
          <note key="53" len="12" vol="100" pan="0" pos="636"/>
          <note key="53" len="12" vol="100" pan="0" pos="660"/>
          <note key="52" len="48" vol="100" pan="0" pos="672"/>
        </pattern>
      </track>
      <track name="SuperSaw Lead" solo="0" type="0" muted="0">
        <instrumenttrack basenote="57" fxch="0" pitch="0" usemasterpitch="1" vol="30" pan="0" pitchrange="1">
          <instrument name="tripleoscillator">
            <tripleoscillator vol0="33" wavetype2="2" modalgo1="2" stphdetun2="0" stphdetun1="0" pan1="0" wavetype0="2" userwavefile1="" phoffset1="0" finer1="-25" pan2="0" coarse2="0" coarse1="0" vol2="33" phoffset2="0" userwavefile2="" coarse0="0" userwavefile0="" modalgo3="2" finer2="15" modalgo2="2" finel2="15" wavetype1="2" finel1="-25" vol1="33" stphdetun0="0" finel0="-1" pan0="0" finer0="0" phoffset0="0"/>
          </instrument>
          <eldata fres="1.86" ftype="0" fwet="1" fcut="442">
            <elvol hold="0" att="0.033" lspd="0.1" lamt="0" lspd_denominator="4" pdel="0" userwavefile="" lspd_numerator="4" ctlenvamt="0" lshp="0" lspd_syncmode="0" x100="0" latt="0" dec="2" rel="0.1" lpdel="0" amt="1" sustain="1"/>
            <elcut hold="0" att="0.037999999" lspd="0.1" lamt="0" lspd_denominator="4" pdel="0" userwavefile="" lspd_numerator="4" ctlenvamt="0" lshp="0" lspd_syncmode="0" x100="0" latt="0" dec="0.72500002" rel="0.162" lpdel="0" amt="1" sustain="0.059999999"/>
            <elres hold="0.5" att="0" lspd="0.1" lamt="0" lspd_denominator="4" pdel="0" userwavefile="" lspd_numerator="4" ctlenvamt="0" lshp="0" lspd_syncmode="0" x100="0" latt="0" dec="0.5" rel="0.1" lpdel="0" amt="0" sustain="0.5"/>
          </eldata>
          <chordcreator chordrange="1" chord="0" chord-enabled="0"/>
          <arpeggiator arpgate="100" arptime_numerator="4" arptime="100" arp-enabled="0" arpskip="0" arpdir="0" arpcycle="0" arptime_denominator="4" arp="0" arprange="1" arpmiss="0" arptime_syncmode="0" arpmode="0"/>
          <midiport fixedoutputnote="-1" outputchannel="1" outputprogram="1" outputcontroller="0" fixedinputvelocity="-1" inputcontroller="0" basevelocity="63" inputchannel="0" fixedoutputvelocity="-1" readable="0" writable="0"/>
          <fxchain numofeffects="2" enabled="1">
            <effect wet="1" name="ladspaeffect" autoquit_syncmode="0" autoquit_numerator="4" gate="0" autoquit_denominator="4" autoquit="8000" on="1">
              <ladspacontrols ports="10">
                <port04 data="174.825"/>
                <port05 data="8"/>
                <port06 data="8"/>
                <port07 data="8"/>
                <port08 data="0.5"/>
                <port09 data="0.47999999"/>
                <port010 data="2"/>
                <port011 data="1"/>
                <port012 data="0.86000001"/>
                <port013 data="1"/>
              </ladspacontrols>
              <key>
                <attribute name="file" value="calf"/>
                <attribute name="plugin" value="VintageDelay"/>
              </key>
            </effect>
            <effect wet="1" name="dualfilter" autoquit_syncmode="0" autoquit_numerator="4" autoquit_denominator="4" gate="0" autoquit="1" on="1">
              <DualFilterControls res1="0.0099999998" gain2="100" filter2="0" res2="0.5" gain1="100" mix="0" enabled2="0" cut2="7000" enabled1="1" cut1="10" filter1="1"/>
              <key/>
            </effect>
          </fxchain>
        </instrumenttrack>
        <pattern name="SuperSaw Lead" steps="16" type="1" muted="0" pos="1536">
          <note key="57" len="12" vol="100" pan="0" pos="0"/>
          <note key="57" len="12" vol="100" pan="0" pos="24"/>
          <note key="57" len="12" vol="100" pan="0" pos="48"/>
          <note key="57" len="12" vol="100" pan="0" pos="60"/>
          <note key="57" len="12" vol="100" pan="0" pos="84"/>
          <note key="57" len="12" vol="100" pan="0" pos="96"/>
          <note key="57" len="12" vol="100" pan="0" pos="120"/>
          <note key="57" len="12" vol="100" pan="0" pos="132"/>
          <note key="57" len="12" vol="100" pan="0" pos="156"/>
          <note key="57" len="12" vol="100" pan="0" pos="168"/>
          <note key="57" len="24" vol="100" pan="0" pos="216"/>
          <note key="57" len="24" vol="100" pan="0" pos="252"/>
          <note key="57" len="12" vol="100" pan="0" pos="288"/>
          <note key="57" len="12" vol="100" pan="0" pos="312"/>
          <note key="57" len="12" vol="100" pan="0" pos="324"/>
          <note key="57" len="12" vol="100" pan="0" pos="348"/>
          <note key="57" len="12" vol="100" pan="0" pos="360"/>
          <note key="57" len="12" vol="100" pan="0" pos="384"/>
          <note key="57" len="12" vol="100" pan="0" pos="408"/>
          <note key="57" len="12" vol="100" pan="0" pos="432"/>
          <note key="57" len="12" vol="100" pan="0" pos="444"/>
          <note key="57" len="12" vol="100" pan="0" pos="468"/>
          <note key="57" len="12" vol="100" pan="0" pos="480"/>
          <note key="57" len="12" vol="100" pan="0" pos="504"/>
          <note key="57" len="12" vol="100" pan="0" pos="516"/>
          <note key="57" len="12" vol="100" pan="0" pos="540"/>
          <note key="57" len="12" vol="100" pan="0" pos="552"/>
          <note key="57" len="24" vol="100" pan="0" pos="600"/>
          <note key="57" len="24" vol="100" pan="0" pos="636"/>
          <note key="56" len="12" vol="100" pan="0" pos="672"/>
          <note key="56" len="12" vol="100" pan="0" pos="696"/>
          <note key="56" len="12" vol="100" pan="0" pos="708"/>
          <note key="56" len="12" vol="100" pan="0" pos="732"/>
          <note key="56" len="12" vol="100" pan="0" pos="744"/>
        </pattern>
        <pattern name="SuperSaw Lead" steps="16" type="1" muted="0" pos="2304">
          <note key="55" len="12" vol="100" pan="0" pos="0"/>
          <note key="55" len="12" vol="100" pan="0" pos="24"/>
          <note key="55" len="12" vol="100" pan="0" pos="48"/>
          <note key="55" len="12" vol="100" pan="0" pos="60"/>
          <note key="55" len="12" vol="100" pan="0" pos="84"/>
          <note key="55" len="12" vol="100" pan="0" pos="96"/>
          <note key="55" len="12" vol="100" pan="0" pos="120"/>
          <note key="55" len="12" vol="100" pan="0" pos="132"/>
          <note key="55" len="12" vol="100" pan="0" pos="156"/>
          <note key="55" len="12" vol="100" pan="0" pos="168"/>
          <note key="56" len="12" vol="100" pan="0" pos="192"/>
          <note key="56" len="12" vol="100" pan="0" pos="216"/>
          <note key="56" len="12" vol="100" pan="0" pos="240"/>
          <note key="56" len="12" vol="100" pan="0" pos="252"/>
          <note key="56" len="12" vol="100" pan="0" pos="276"/>
          <note key="56" len="12" vol="100" pan="0" pos="288"/>
          <note key="56" len="12" vol="100" pan="0" pos="312"/>
          <note key="56" len="12" vol="100" pan="0" pos="324"/>
          <note key="56" len="12" vol="100" pan="0" pos="348"/>
          <note key="56" len="12" vol="100" pan="0" pos="360"/>
          <note key="55" len="12" vol="100" pan="0" pos="384"/>
          <note key="55" len="12" vol="100" pan="0" pos="408"/>
          <note key="55" len="12" vol="100" pan="0" pos="432"/>
          <note key="55" len="12" vol="100" pan="0" pos="444"/>
          <note key="55" len="12" vol="100" pan="0" pos="468"/>
          <note key="55" len="12" vol="100" pan="0" pos="480"/>
          <note key="55" len="12" vol="100" pan="0" pos="504"/>
          <note key="55" len="12" vol="100" pan="0" pos="516"/>
          <note key="55" len="12" vol="100" pan="0" pos="540"/>
          <note key="55" len="12" vol="100" pan="0" pos="552"/>
          <note key="56" len="12" vol="100" pan="0" pos="576"/>
          <note key="56" len="12" vol="100" pan="0" pos="600"/>
          <note key="56" len="12" vol="100" pan="0" pos="624"/>
          <note key="56" len="12" vol="100" pan="0" pos="636"/>
          <note key="56" len="12" vol="100" pan="0" pos="660"/>
          <note key="56" len="12" vol="100" pan="0" pos="672"/>
          <note key="56" len="12" vol="100" pan="0" pos="696"/>
          <note key="56" len="12" vol="100" pan="0" pos="708"/>
          <note key="56" len="12" vol="100" pan="0" pos="732"/>
          <note key="56" len="12" vol="100" pan="0" pos="744"/>
        </pattern>
        <pattern name="SuperSaw Lead" steps="16" type="1" muted="0" pos="3072">
          <note key="57" len="12" vol="100" pan="0" pos="0"/>
          <note key="57" len="12" vol="100" pan="0" pos="24"/>
          <note key="57" len="12" vol="100" pan="0" pos="48"/>
          <note key="57" len="12" vol="100" pan="0" pos="60"/>
          <note key="57" len="12" vol="100" pan="0" pos="84"/>
          <note key="57" len="12" vol="100" pan="0" pos="96"/>
          <note key="57" len="12" vol="100" pan="0" pos="120"/>
          <note key="57" len="12" vol="100" pan="0" pos="132"/>
          <note key="57" len="12" vol="100" pan="0" pos="156"/>
          <note key="57" len="12" vol="100" pan="0" pos="168"/>
          <note key="57" len="24" vol="100" pan="0" pos="216"/>
          <note key="57" len="24" vol="100" pan="0" pos="252"/>
          <note key="57" len="12" vol="100" pan="0" pos="288"/>
          <note key="57" len="12" vol="100" pan="0" pos="312"/>
          <note key="57" len="12" vol="100" pan="0" pos="324"/>
          <note key="57" len="12" vol="100" pan="0" pos="348"/>
          <note key="57" len="12" vol="100" pan="0" pos="360"/>
          <note key="57" len="12" vol="100" pan="0" pos="384"/>
          <note key="57" len="12" vol="100" pan="0" pos="408"/>
          <note key="57" len="12" vol="100" pan="0" pos="432"/>
          <note key="57" len="12" vol="100" pan="0" pos="444"/>
          <note key="57" len="12" vol="100" pan="0" pos="468"/>
          <note key="57" len="12" vol="100" pan="0" pos="480"/>
          <note key="57" len="12" vol="100" pan="0" pos="504"/>
          <note key="57" len="12" vol="100" pan="0" pos="516"/>
          <note key="57" len="12" vol="100" pan="0" pos="540"/>
          <note key="57" len="12" vol="100" pan="0" pos="552"/>
          <note key="57" len="24" vol="100" pan="0" pos="600"/>
          <note key="57" len="24" vol="100" pan="0" pos="636"/>
          <note key="56" len="12" vol="100" pan="0" pos="672"/>
          <note key="56" len="12" vol="100" pan="0" pos="696"/>
          <note key="56" len="12" vol="100" pan="0" pos="708"/>
          <note key="56" len="12" vol="100" pan="0" pos="732"/>
          <note key="56" len="12" vol="100" pan="0" pos="744"/>
        </pattern>
        <pattern name="SuperSaw Lead" steps="16" type="1" muted="0" pos="3840">
          <note key="57" len="12" vol="100" pan="0" pos="0"/>
          <note key="57" len="12" vol="100" pan="0" pos="24"/>
          <note key="57" len="12" vol="100" pan="0" pos="48"/>
          <note key="57" len="12" vol="100" pan="0" pos="60"/>
          <note key="57" len="12" vol="100" pan="0" pos="84"/>
          <note key="57" len="12" vol="100" pan="0" pos="96"/>
          <note key="57" len="12" vol="100" pan="0" pos="120"/>
          <note key="57" len="12" vol="100" pan="0" pos="132"/>
          <note key="57" len="12" vol="100" pan="0" pos="156"/>
          <note key="57" len="12" vol="100" pan="0" pos="168"/>
          <note key="57" len="24" vol="100" pan="0" pos="216"/>
          <note key="57" len="24" vol="100" pan="0" pos="252"/>
          <note key="57" len="12" vol="100" pan="0" pos="288"/>
          <note key="57" len="12" vol="100" pan="0" pos="312"/>
          <note key="57" len="12" vol="100" pan="0" pos="324"/>
          <note key="57" len="12" vol="100" pan="0" pos="348"/>
          <note key="57" len="12" vol="100" pan="0" pos="360"/>
          <note key="57" len="12" vol="100" pan="0" pos="384"/>
          <note key="57" len="12" vol="100" pan="0" pos="408"/>
          <note key="57" len="12" vol="100" pan="0" pos="432"/>
          <note key="57" len="12" vol="100" pan="0" pos="444"/>
          <note key="57" len="12" vol="100" pan="0" pos="468"/>
          <note key="57" len="12" vol="100" pan="0" pos="480"/>
          <note key="57" len="12" vol="100" pan="0" pos="504"/>
          <note key="57" len="12" vol="100" pan="0" pos="516"/>
          <note key="57" len="12" vol="100" pan="0" pos="540"/>
          <note key="57" len="12" vol="100" pan="0" pos="552"/>
          <note key="57" len="24" vol="100" pan="0" pos="600"/>
          <note key="57" len="24" vol="100" pan="0" pos="636"/>
          <note key="56" len="12" vol="100" pan="0" pos="672"/>
          <note key="56" len="12" vol="100" pan="0" pos="696"/>
          <note key="56" len="12" vol="100" pan="0" pos="708"/>
          <note key="56" len="12" vol="100" pan="0" pos="732"/>
          <note key="56" len="12" vol="100" pan="0" pos="744"/>
        </pattern>
        <pattern name="SuperSaw Lead" steps="16" type="1" muted="0" pos="5376">
          <note key="57" len="12" vol="100" pan="0" pos="0"/>
          <note key="57" len="12" vol="100" pan="0" pos="24"/>
          <note key="57" len="12" vol="100" pan="0" pos="48"/>
          <note key="57" len="12" vol="100" pan="0" pos="60"/>
          <note key="57" len="12" vol="100" pan="0" pos="84"/>
          <note key="57" len="12" vol="100" pan="0" pos="96"/>
          <note key="57" len="12" vol="100" pan="0" pos="120"/>
          <note key="57" len="12" vol="100" pan="0" pos="132"/>
          <note key="57" len="12" vol="100" pan="0" pos="156"/>
          <note key="57" len="12" vol="100" pan="0" pos="168"/>
          <note key="57" len="24" vol="100" pan="0" pos="216"/>
          <note key="57" len="24" vol="100" pan="0" pos="252"/>
          <note key="57" len="12" vol="100" pan="0" pos="288"/>
          <note key="57" len="12" vol="100" pan="0" pos="312"/>
          <note key="57" len="12" vol="100" pan="0" pos="324"/>
          <note key="57" len="12" vol="100" pan="0" pos="348"/>
          <note key="57" len="12" vol="100" pan="0" pos="360"/>
          <note key="57" len="12" vol="100" pan="0" pos="384"/>
          <note key="57" len="12" vol="100" pan="0" pos="408"/>
          <note key="57" len="12" vol="100" pan="0" pos="432"/>
          <note key="57" len="12" vol="100" pan="0" pos="444"/>
          <note key="57" len="12" vol="100" pan="0" pos="468"/>
          <note key="57" len="12" vol="100" pan="0" pos="480"/>
          <note key="57" len="12" vol="100" pan="0" pos="504"/>
          <note key="57" len="12" vol="100" pan="0" pos="516"/>
          <note key="57" len="12" vol="100" pan="0" pos="540"/>
          <note key="57" len="12" vol="100" pan="0" pos="552"/>
          <note key="57" len="24" vol="100" pan="0" pos="600"/>
          <note key="57" len="24" vol="100" pan="0" pos="636"/>
          <note key="56" len="12" vol="100" pan="0" pos="672"/>
          <note key="56" len="12" vol="100" pan="0" pos="696"/>
          <note key="56" len="12" vol="100" pan="0" pos="708"/>
          <note key="56" len="12" vol="100" pan="0" pos="732"/>
          <note key="56" len="12" vol="100" pan="0" pos="744"/>
        </pattern>
        <pattern name="SuperSaw Lead" steps="16" type="1" muted="0" pos="6144">
          <note key="57" len="12" vol="100" pan="0" pos="0"/>
          <note key="57" len="12" vol="100" pan="0" pos="24"/>
          <note key="57" len="12" vol="100" pan="0" pos="48"/>
          <note key="57" len="12" vol="100" pan="0" pos="60"/>
          <note key="57" len="12" vol="100" pan="0" pos="84"/>
          <note key="57" len="12" vol="100" pan="0" pos="96"/>
          <note key="57" len="12" vol="100" pan="0" pos="120"/>
          <note key="57" len="12" vol="100" pan="0" pos="132"/>
          <note key="57" len="12" vol="100" pan="0" pos="156"/>
          <note key="57" len="12" vol="100" pan="0" pos="168"/>
          <note key="57" len="24" vol="100" pan="0" pos="216"/>
          <note key="57" len="24" vol="100" pan="0" pos="252"/>
          <note key="57" len="12" vol="100" pan="0" pos="288"/>
          <note key="57" len="12" vol="100" pan="0" pos="312"/>
          <note key="57" len="12" vol="100" pan="0" pos="324"/>
          <note key="57" len="12" vol="100" pan="0" pos="348"/>
          <note key="57" len="12" vol="100" pan="0" pos="360"/>
          <note key="57" len="12" vol="100" pan="0" pos="384"/>
          <note key="57" len="12" vol="100" pan="0" pos="408"/>
          <note key="57" len="12" vol="100" pan="0" pos="432"/>
          <note key="57" len="12" vol="100" pan="0" pos="444"/>
          <note key="57" len="12" vol="100" pan="0" pos="468"/>
          <note key="57" len="12" vol="100" pan="0" pos="480"/>
          <note key="57" len="12" vol="100" pan="0" pos="504"/>
          <note key="57" len="12" vol="100" pan="0" pos="516"/>
          <note key="57" len="12" vol="100" pan="0" pos="540"/>
          <note key="57" len="12" vol="100" pan="0" pos="552"/>
          <note key="57" len="24" vol="100" pan="0" pos="600"/>
          <note key="57" len="24" vol="100" pan="0" pos="636"/>
          <note key="56" len="12" vol="100" pan="0" pos="672"/>
          <note key="56" len="12" vol="100" pan="0" pos="696"/>
          <note key="56" len="12" vol="100" pan="0" pos="708"/>
          <note key="56" len="12" vol="100" pan="0" pos="732"/>
          <note key="56" len="12" vol="100" pan="0" pos="744"/>
        </pattern>
        <pattern name="SuperSaw Lead" steps="16" type="1" muted="0" pos="6912">
          <note key="57" len="12" vol="100" pan="0" pos="0"/>
          <note key="57" len="12" vol="100" pan="0" pos="24"/>
          <note key="57" len="12" vol="100" pan="0" pos="48"/>
          <note key="57" len="12" vol="100" pan="0" pos="60"/>
          <note key="57" len="12" vol="100" pan="0" pos="84"/>
          <note key="57" len="12" vol="100" pan="0" pos="96"/>
          <note key="57" len="12" vol="100" pan="0" pos="120"/>
          <note key="57" len="12" vol="100" pan="0" pos="132"/>
          <note key="57" len="12" vol="100" pan="0" pos="156"/>
          <note key="57" len="12" vol="100" pan="0" pos="168"/>
          <note key="57" len="24" vol="100" pan="0" pos="216"/>
          <note key="57" len="24" vol="100" pan="0" pos="252"/>
          <note key="57" len="12" vol="100" pan="0" pos="288"/>
          <note key="57" len="12" vol="100" pan="0" pos="312"/>
          <note key="57" len="12" vol="100" pan="0" pos="324"/>
          <note key="57" len="12" vol="100" pan="0" pos="348"/>
          <note key="57" len="12" vol="100" pan="0" pos="360"/>
          <note key="57" len="12" vol="100" pan="0" pos="384"/>
          <note key="57" len="12" vol="100" pan="0" pos="408"/>
          <note key="57" len="12" vol="100" pan="0" pos="432"/>
          <note key="57" len="12" vol="100" pan="0" pos="444"/>
          <note key="57" len="12" vol="100" pan="0" pos="468"/>
          <note key="57" len="12" vol="100" pan="0" pos="480"/>
          <note key="57" len="12" vol="100" pan="0" pos="504"/>
          <note key="57" len="12" vol="100" pan="0" pos="516"/>
          <note key="57" len="12" vol="100" pan="0" pos="540"/>
          <note key="57" len="12" vol="100" pan="0" pos="552"/>
          <note key="57" len="24" vol="100" pan="0" pos="600"/>
          <note key="57" len="24" vol="100" pan="0" pos="636"/>
          <note key="56" len="12" vol="100" pan="0" pos="672"/>
          <note key="56" len="12" vol="100" pan="0" pos="696"/>
          <note key="56" len="12" vol="100" pan="0" pos="708"/>
          <note key="56" len="12" vol="100" pan="0" pos="732"/>
          <note key="56" len="12" vol="100" pan="0" pos="744"/>
        </pattern>
        <pattern name="SuperSaw Lead" steps="16" type="1" muted="0" pos="4608">
          <note key="55" len="12" vol="100" pan="0" pos="0"/>
          <note key="55" len="12" vol="100" pan="0" pos="24"/>
          <note key="55" len="12" vol="100" pan="0" pos="48"/>
          <note key="55" len="12" vol="100" pan="0" pos="60"/>
          <note key="55" len="12" vol="100" pan="0" pos="84"/>
          <note key="55" len="12" vol="100" pan="0" pos="96"/>
          <note key="55" len="12" vol="100" pan="0" pos="120"/>
          <note key="55" len="12" vol="100" pan="0" pos="132"/>
          <note key="55" len="12" vol="100" pan="0" pos="156"/>
          <note key="55" len="12" vol="100" pan="0" pos="168"/>
          <note key="56" len="12" vol="100" pan="0" pos="192"/>
          <note key="56" len="12" vol="100" pan="0" pos="216"/>
          <note key="56" len="12" vol="100" pan="0" pos="240"/>
          <note key="56" len="12" vol="100" pan="0" pos="252"/>
          <note key="56" len="12" vol="100" pan="0" pos="276"/>
          <note key="56" len="12" vol="100" pan="0" pos="288"/>
          <note key="56" len="12" vol="100" pan="0" pos="312"/>
          <note key="56" len="12" vol="100" pan="0" pos="324"/>
          <note key="56" len="12" vol="100" pan="0" pos="348"/>
          <note key="56" len="12" vol="100" pan="0" pos="360"/>
          <note key="55" len="12" vol="100" pan="0" pos="384"/>
          <note key="55" len="12" vol="100" pan="0" pos="408"/>
          <note key="55" len="12" vol="100" pan="0" pos="432"/>
          <note key="55" len="12" vol="100" pan="0" pos="444"/>
          <note key="55" len="12" vol="100" pan="0" pos="468"/>
          <note key="55" len="12" vol="100" pan="0" pos="480"/>
          <note key="55" len="12" vol="100" pan="0" pos="504"/>
          <note key="55" len="12" vol="100" pan="0" pos="516"/>
          <note key="55" len="12" vol="100" pan="0" pos="540"/>
          <note key="55" len="12" vol="100" pan="0" pos="552"/>
          <note key="56" len="12" vol="100" pan="0" pos="576"/>
          <note key="56" len="12" vol="100" pan="0" pos="600"/>
          <note key="56" len="12" vol="100" pan="0" pos="624"/>
          <note key="56" len="12" vol="100" pan="0" pos="636"/>
          <note key="56" len="12" vol="100" pan="0" pos="660"/>
          <note key="56" len="12" vol="100" pan="0" pos="672"/>
          <note key="56" len="12" vol="100" pan="0" pos="696"/>
          <note key="56" len="12" vol="100" pan="0" pos="708"/>
          <note key="56" len="12" vol="100" pan="0" pos="732"/>
          <note key="56" len="12" vol="100" pan="0" pos="744"/>
        </pattern>
        <pattern name="SuperSaw Lead" steps="16" type="1" muted="0" pos="9792">
          <note key="57" len="12" vol="100" pan="0" pos="0"/>
          <note key="57" len="12" vol="100" pan="0" pos="24"/>
          <note key="57" len="12" vol="100" pan="0" pos="48"/>
          <note key="57" len="12" vol="100" pan="0" pos="60"/>
          <note key="57" len="12" vol="100" pan="0" pos="84"/>
          <note key="57" len="12" vol="100" pan="0" pos="96"/>
          <note key="57" len="12" vol="100" pan="0" pos="120"/>
          <note key="57" len="12" vol="100" pan="0" pos="132"/>
          <note key="57" len="12" vol="100" pan="0" pos="156"/>
          <note key="57" len="12" vol="100" pan="0" pos="168"/>
          <note key="57" len="24" vol="100" pan="0" pos="216"/>
          <note key="57" len="24" vol="100" pan="0" pos="252"/>
          <note key="57" len="12" vol="100" pan="0" pos="288"/>
          <note key="57" len="12" vol="100" pan="0" pos="312"/>
          <note key="57" len="12" vol="100" pan="0" pos="324"/>
          <note key="57" len="12" vol="100" pan="0" pos="348"/>
          <note key="57" len="12" vol="100" pan="0" pos="360"/>
          <note key="57" len="12" vol="100" pan="0" pos="384"/>
          <note key="57" len="12" vol="100" pan="0" pos="408"/>
          <note key="57" len="12" vol="100" pan="0" pos="432"/>
          <note key="57" len="12" vol="100" pan="0" pos="444"/>
          <note key="57" len="12" vol="100" pan="0" pos="468"/>
          <note key="57" len="12" vol="100" pan="0" pos="480"/>
          <note key="57" len="12" vol="100" pan="0" pos="504"/>
          <note key="57" len="12" vol="100" pan="0" pos="516"/>
          <note key="57" len="12" vol="100" pan="0" pos="540"/>
          <note key="57" len="12" vol="100" pan="0" pos="552"/>
          <note key="57" len="24" vol="100" pan="0" pos="600"/>
          <note key="57" len="24" vol="100" pan="0" pos="636"/>
          <note key="56" len="12" vol="100" pan="0" pos="672"/>
          <note key="56" len="12" vol="100" pan="0" pos="696"/>
          <note key="56" len="12" vol="100" pan="0" pos="708"/>
          <note key="56" len="12" vol="100" pan="0" pos="732"/>
          <note key="56" len="12" vol="100" pan="0" pos="744"/>
        </pattern>
        <pattern name="SuperSaw Lead" steps="16" type="1" muted="0" pos="11328">
          <note key="57" len="12" vol="100" pan="0" pos="0"/>
          <note key="57" len="12" vol="100" pan="0" pos="24"/>
          <note key="57" len="12" vol="100" pan="0" pos="48"/>
          <note key="57" len="12" vol="100" pan="0" pos="60"/>
          <note key="57" len="12" vol="100" pan="0" pos="84"/>
          <note key="57" len="12" vol="100" pan="0" pos="96"/>
          <note key="57" len="12" vol="100" pan="0" pos="120"/>
          <note key="57" len="12" vol="100" pan="0" pos="132"/>
          <note key="57" len="12" vol="100" pan="0" pos="156"/>
          <note key="57" len="12" vol="100" pan="0" pos="168"/>
          <note key="57" len="24" vol="100" pan="0" pos="216"/>
          <note key="57" len="24" vol="100" pan="0" pos="252"/>
          <note key="57" len="12" vol="100" pan="0" pos="288"/>
          <note key="57" len="12" vol="100" pan="0" pos="312"/>
          <note key="57" len="12" vol="100" pan="0" pos="324"/>
          <note key="57" len="12" vol="100" pan="0" pos="348"/>
          <note key="57" len="12" vol="100" pan="0" pos="360"/>
          <note key="57" len="12" vol="100" pan="0" pos="384"/>
          <note key="57" len="12" vol="100" pan="0" pos="408"/>
          <note key="57" len="12" vol="100" pan="0" pos="432"/>
          <note key="57" len="12" vol="100" pan="0" pos="444"/>
          <note key="57" len="12" vol="100" pan="0" pos="468"/>
          <note key="57" len="12" vol="100" pan="0" pos="480"/>
          <note key="57" len="12" vol="100" pan="0" pos="504"/>
          <note key="57" len="12" vol="100" pan="0" pos="516"/>
          <note key="57" len="12" vol="100" pan="0" pos="540"/>
          <note key="57" len="12" vol="100" pan="0" pos="552"/>
          <note key="57" len="24" vol="100" pan="0" pos="600"/>
          <note key="57" len="24" vol="100" pan="0" pos="636"/>
          <note key="56" len="12" vol="100" pan="0" pos="672"/>
          <note key="56" len="12" vol="100" pan="0" pos="696"/>
          <note key="56" len="12" vol="100" pan="0" pos="708"/>
          <note key="56" len="12" vol="100" pan="0" pos="732"/>
          <note key="56" len="12" vol="100" pan="0" pos="744"/>
        </pattern>
        <pattern name="SuperSaw Lead" steps="16" type="1" muted="0" pos="12864">
          <note key="57" len="12" vol="100" pan="0" pos="0"/>
          <note key="57" len="12" vol="100" pan="0" pos="24"/>
          <note key="57" len="12" vol="100" pan="0" pos="48"/>
          <note key="57" len="12" vol="100" pan="0" pos="60"/>
          <note key="57" len="12" vol="100" pan="0" pos="84"/>
          <note key="57" len="12" vol="100" pan="0" pos="96"/>
          <note key="57" len="12" vol="100" pan="0" pos="120"/>
          <note key="57" len="12" vol="100" pan="0" pos="132"/>
          <note key="57" len="12" vol="100" pan="0" pos="156"/>
          <note key="57" len="12" vol="100" pan="0" pos="168"/>
          <note key="57" len="24" vol="100" pan="0" pos="216"/>
          <note key="57" len="24" vol="100" pan="0" pos="252"/>
          <note key="57" len="12" vol="100" pan="0" pos="288"/>
          <note key="57" len="12" vol="100" pan="0" pos="312"/>
          <note key="57" len="12" vol="100" pan="0" pos="324"/>
          <note key="57" len="12" vol="100" pan="0" pos="348"/>
          <note key="57" len="12" vol="100" pan="0" pos="360"/>
          <note key="57" len="12" vol="100" pan="0" pos="384"/>
          <note key="57" len="12" vol="100" pan="0" pos="408"/>
          <note key="57" len="12" vol="100" pan="0" pos="432"/>
          <note key="57" len="12" vol="100" pan="0" pos="444"/>
          <note key="57" len="12" vol="100" pan="0" pos="468"/>
          <note key="57" len="12" vol="100" pan="0" pos="480"/>
          <note key="57" len="12" vol="100" pan="0" pos="504"/>
          <note key="57" len="12" vol="100" pan="0" pos="516"/>
          <note key="57" len="12" vol="100" pan="0" pos="540"/>
          <note key="57" len="12" vol="100" pan="0" pos="552"/>
          <note key="57" len="24" vol="100" pan="0" pos="600"/>
          <note key="57" len="24" vol="100" pan="0" pos="636"/>
          <note key="56" len="12" vol="100" pan="0" pos="672"/>
          <note key="56" len="12" vol="100" pan="0" pos="696"/>
          <note key="56" len="12" vol="100" pan="0" pos="708"/>
          <note key="56" len="12" vol="100" pan="0" pos="732"/>
          <note key="56" len="12" vol="100" pan="0" pos="744"/>
        </pattern>
        <pattern name="SuperSaw Lead" steps="16" type="1" muted="0" pos="12096">
          <note key="56" len="12" vol="100" pan="0" pos="0"/>
          <note key="56" len="12" vol="100" pan="0" pos="24"/>
          <note key="56" len="12" vol="100" pan="0" pos="48"/>
          <note key="56" len="12" vol="100" pan="0" pos="60"/>
          <note key="56" len="12" vol="100" pan="0" pos="84"/>
          <note key="56" len="12" vol="100" pan="0" pos="96"/>
          <note key="56" len="12" vol="100" pan="0" pos="120"/>
          <note key="56" len="12" vol="100" pan="0" pos="132"/>
          <note key="56" len="12" vol="100" pan="0" pos="156"/>
          <note key="56" len="12" vol="100" pan="0" pos="168"/>
          <note key="56" len="24" vol="100" pan="0" pos="216"/>
          <note key="56" len="24" vol="100" pan="0" pos="252"/>
          <note key="56" len="12" vol="100" pan="0" pos="288"/>
          <note key="56" len="12" vol="100" pan="0" pos="312"/>
          <note key="56" len="12" vol="100" pan="0" pos="324"/>
          <note key="56" len="12" vol="100" pan="0" pos="348"/>
          <note key="56" len="12" vol="100" pan="0" pos="360"/>
          <note key="56" len="12" vol="100" pan="0" pos="384"/>
          <note key="56" len="12" vol="100" pan="0" pos="408"/>
          <note key="56" len="12" vol="100" pan="0" pos="432"/>
          <note key="56" len="12" vol="100" pan="0" pos="444"/>
          <note key="56" len="12" vol="100" pan="0" pos="468"/>
          <note key="56" len="12" vol="100" pan="0" pos="480"/>
          <note key="56" len="12" vol="100" pan="0" pos="504"/>
          <note key="56" len="12" vol="100" pan="0" pos="516"/>
          <note key="56" len="12" vol="100" pan="0" pos="540"/>
          <note key="56" len="12" vol="100" pan="0" pos="552"/>
          <note key="56" len="24" vol="100" pan="0" pos="600"/>
          <note key="56" len="24" vol="70" pan="0" pos="636"/>
          <note key="57" len="12" vol="70" pan="0" pos="672"/>
          <note key="57" len="12" vol="70" pan="0" pos="696"/>
          <note key="57" len="12" vol="70" pan="0" pos="708"/>
          <note key="57" len="12" vol="70" pan="0" pos="732"/>
          <note key="57" len="12" vol="70" pan="0" pos="744"/>
        </pattern>
        <pattern name="SuperSaw Lead" steps="16" type="1" muted="0" pos="13632">
          <note key="57" len="12" vol="100" pan="0" pos="0"/>
          <note key="57" len="12" vol="100" pan="0" pos="24"/>
          <note key="57" len="12" vol="100" pan="0" pos="48"/>
          <note key="57" len="12" vol="100" pan="0" pos="60"/>
          <note key="57" len="12" vol="100" pan="0" pos="84"/>
          <note key="57" len="12" vol="100" pan="0" pos="96"/>
          <note key="57" len="12" vol="100" pan="0" pos="120"/>
          <note key="57" len="12" vol="100" pan="0" pos="132"/>
          <note key="57" len="12" vol="100" pan="0" pos="156"/>
          <note key="57" len="12" vol="100" pan="0" pos="168"/>
          <note key="57" len="24" vol="100" pan="0" pos="216"/>
          <note key="57" len="24" vol="100" pan="0" pos="252"/>
          <note key="57" len="12" vol="100" pan="0" pos="288"/>
          <note key="57" len="12" vol="100" pan="0" pos="312"/>
          <note key="57" len="12" vol="100" pan="0" pos="324"/>
          <note key="57" len="12" vol="100" pan="0" pos="348"/>
          <note key="57" len="12" vol="100" pan="0" pos="360"/>
          <note key="57" len="12" vol="100" pan="0" pos="384"/>
          <note key="57" len="12" vol="100" pan="0" pos="408"/>
          <note key="57" len="12" vol="100" pan="0" pos="432"/>
          <note key="57" len="12" vol="100" pan="0" pos="444"/>
          <note key="57" len="12" vol="100" pan="0" pos="468"/>
          <note key="57" len="12" vol="100" pan="0" pos="480"/>
          <note key="57" len="12" vol="100" pan="0" pos="504"/>
          <note key="57" len="12" vol="100" pan="0" pos="516"/>
          <note key="57" len="12" vol="100" pan="0" pos="540"/>
          <note key="57" len="12" vol="100" pan="0" pos="552"/>
          <note key="57" len="24" vol="100" pan="0" pos="600"/>
          <note key="57" len="24" vol="100" pan="0" pos="636"/>
          <note key="56" len="12" vol="100" pan="0" pos="672"/>
          <note key="56" len="12" vol="100" pan="0" pos="696"/>
          <note key="56" len="12" vol="100" pan="0" pos="708"/>
          <note key="56" len="12" vol="100" pan="0" pos="732"/>
          <note key="56" len="12" vol="100" pan="0" pos="744"/>
        </pattern>
        <pattern name="SuperSaw Lead" steps="16" type="1" muted="0" pos="10560">
          <note key="57" len="12" vol="100" pan="0" pos="0"/>
          <note key="57" len="12" vol="100" pan="0" pos="24"/>
          <note key="57" len="12" vol="100" pan="0" pos="48"/>
          <note key="57" len="12" vol="100" pan="0" pos="60"/>
          <note key="57" len="12" vol="100" pan="0" pos="84"/>
          <note key="57" len="12" vol="100" pan="0" pos="96"/>
          <note key="57" len="12" vol="100" pan="0" pos="120"/>
          <note key="57" len="12" vol="100" pan="0" pos="132"/>
          <note key="57" len="12" vol="100" pan="0" pos="156"/>
          <note key="57" len="12" vol="100" pan="0" pos="168"/>
          <note key="57" len="24" vol="100" pan="0" pos="216"/>
          <note key="57" len="24" vol="100" pan="0" pos="252"/>
          <note key="57" len="12" vol="100" pan="0" pos="288"/>
          <note key="57" len="12" vol="100" pan="0" pos="312"/>
          <note key="57" len="12" vol="100" pan="0" pos="324"/>
          <note key="57" len="12" vol="100" pan="0" pos="348"/>
          <note key="57" len="12" vol="100" pan="0" pos="360"/>
          <note key="57" len="12" vol="100" pan="0" pos="384"/>
          <note key="57" len="12" vol="100" pan="0" pos="408"/>
          <note key="57" len="12" vol="100" pan="0" pos="432"/>
          <note key="57" len="12" vol="100" pan="0" pos="444"/>
          <note key="57" len="12" vol="100" pan="0" pos="468"/>
          <note key="57" len="12" vol="100" pan="0" pos="480"/>
          <note key="57" len="12" vol="100" pan="0" pos="504"/>
          <note key="57" len="12" vol="100" pan="0" pos="516"/>
          <note key="57" len="12" vol="100" pan="0" pos="540"/>
          <note key="57" len="12" vol="100" pan="0" pos="552"/>
          <note key="57" len="24" vol="100" pan="0" pos="600"/>
          <note key="57" len="24" vol="100" pan="0" pos="636"/>
          <note key="56" len="12" vol="100" pan="0" pos="672"/>
          <note key="56" len="12" vol="100" pan="0" pos="696"/>
          <note key="56" len="12" vol="100" pan="0" pos="708"/>
          <note key="56" len="12" vol="100" pan="0" pos="732"/>
          <note key="56" len="12" vol="100" pan="0" pos="744"/>
        </pattern>
      </track>
      <track name="Arpeggio 2" solo="0" type="0" muted="0">
        <instrumenttrack basenote="57" fxch="0" pitch="0" usemasterpitch="1" vol="40" pan="0" pitchrange="1">
          <instrument name="tripleoscillator">
            <tripleoscillator vol0="100" wavetype2="2" modalgo1="2" stphdetun2="109" stphdetun1="110" pan1="-20" wavetype0="2" userwavefile1="empty.wav" phoffset1="280" finer1="16" pan2="10" coarse2="12" coarse1="0" vol2="115" phoffset2="82" userwavefile2="empty.wav" coarse0="-12" userwavefile0="empty.wav" modalgo3="2" finer2="4" modalgo2="2" finel2="-2" wavetype1="3" finel1="10" vol1="100" stphdetun0="232" finel0="-10" pan0="9" finer0="13" phoffset0="87"/>
          </instrument>
          <eldata fres="0.46000001" ftype="4" fwet="1" fcut="1250">
            <elvol hold="0" att="0.048" lspd="0.1" lamt="0" lspd_denominator="4" pdel="0" userwavefile="" lspd_numerator="4" ctlenvamt="0" lshp="0" lspd_syncmode="0" x100="0" latt="0" dec="0.99900001" rel="0.167" lpdel="0" amt="1" sustain="1"/>
            <elcut hold="0.5" att="0.5" lspd="0.60939997" lamt="0" lspd_denominator="4" pdel="0" userwavefile="" lspd_numerator="4" ctlenvamt="0" lshp="1" lspd_syncmode="0" x100="0" latt="0" dec="0.5" rel="0.1" lpdel="0" amt="0" sustain="0.5"/>
            <elres hold="0.5" att="0.5" lspd="0.1" lamt="0" lspd_denominator="4" pdel="0" userwavefile="" lspd_numerator="4" ctlenvamt="0" lshp="0" lspd_syncmode="0" x100="0" latt="0" dec="0.5" rel="0" lpdel="0" amt="0" sustain="0.5"/>
          </eldata>
          <chordcreator chordrange="2" chord="3" chord-enabled="1"/>
          <arpeggiator arpgate="51" arptime_numerator="4" arptime="100" arp-enabled="0" arpskip="0" arpdir="0" arpcycle="0" arptime_denominator="4" arp="0" arprange="2" arpmiss="0" arptime_syncmode="0" arpmode="0"/>
          <midiport fixedoutputnote="-1" outputchannel="1" outputprogram="1" outputcontroller="0" fixedinputvelocity="-1" inputcontroller="0" basevelocity="63" inputchannel="0" fixedoutputvelocity="-1" readable="0" writable="0"/>
          <fxchain numofeffects="1" enabled="1">
            <effect wet="1" name="amplifier" autoquit_syncmode="0" autoquit_numerator="4" autoquit_denominator="4" gate="0" autoquit="1" on="1">
              <AmplifierControls volume="10" right="100" left="100" pan="0"/>
              <key/>
            </effect>
          </fxchain>
        </instrumenttrack>
        <pattern name="Arpeggio 2" steps="16" type="1" muted="0" pos="3840">
          <note key="57" len="12" vol="100" pan="0" pos="0"/>
          <note key="57" len="12" vol="100" pan="0" pos="24"/>
          <note key="57" len="12" vol="100" pan="0" pos="48"/>
          <note key="57" len="12" vol="100" pan="0" pos="60"/>
          <note key="57" len="12" vol="100" pan="0" pos="84"/>
          <note key="57" len="12" vol="100" pan="0" pos="108"/>
          <note key="57" len="12" vol="100" pan="0" pos="132"/>
          <note key="57" len="12" vol="100" pan="0" pos="144"/>
          <note key="57" len="12" vol="100" pan="0" pos="156"/>
          <note key="57" len="12" vol="100" pan="0" pos="168"/>
          <note key="57" len="12" vol="100" pan="0" pos="180"/>
          <note key="57" len="12" vol="100" pan="0" pos="192"/>
          <note key="57" len="12" vol="100" pan="0" pos="216"/>
          <note key="57" len="12" vol="100" pan="0" pos="240"/>
          <note key="57" len="12" vol="100" pan="0" pos="252"/>
          <note key="57" len="12" vol="100" pan="0" pos="276"/>
          <note key="57" len="12" vol="100" pan="0" pos="300"/>
          <note key="57" len="48" vol="100" pan="0" pos="324"/>
          <note key="57" len="12" vol="100" pan="0" pos="384"/>
          <note key="57" len="12" vol="100" pan="0" pos="408"/>
          <note key="57" len="12" vol="100" pan="0" pos="432"/>
          <note key="57" len="12" vol="100" pan="0" pos="444"/>
          <note key="57" len="12" vol="100" pan="0" pos="468"/>
          <note key="57" len="12" vol="100" pan="0" pos="492"/>
          <note key="57" len="12" vol="100" pan="0" pos="516"/>
          <note key="57" len="12" vol="100" pan="0" pos="528"/>
          <note key="57" len="12" vol="100" pan="0" pos="540"/>
          <note key="57" len="12" vol="100" pan="0" pos="552"/>
          <note key="57" len="12" vol="100" pan="0" pos="564"/>
          <note key="57" len="12" vol="100" pan="0" pos="576"/>
          <note key="57" len="12" vol="100" pan="0" pos="600"/>
          <note key="57" len="12" vol="100" pan="0" pos="624"/>
          <note key="57" len="12" vol="100" pan="0" pos="636"/>
          <note key="57" len="12" vol="100" pan="0" pos="660"/>
          <note key="57" len="12" vol="100" pan="0" pos="672"/>
          <note key="57" len="12" vol="100" pan="0" pos="684"/>
          <note key="56" len="12" vol="100" pan="0" pos="708"/>
          <note key="56" len="12" vol="100" pan="0" pos="720"/>
          <note key="56" len="12" vol="100" pan="0" pos="732"/>
          <note key="56" len="12" vol="100" pan="0" pos="744"/>
          <note key="56" len="12" vol="100" pan="0" pos="756"/>
        </pattern>
        <pattern name="Arpeggio 2" steps="16" type="1" muted="0" pos="4608">
          <note key="53" len="12" vol="100" pan="0" pos="0"/>
          <note key="53" len="12" vol="100" pan="0" pos="24"/>
          <note key="53" len="12" vol="100" pan="0" pos="48"/>
          <note key="53" len="12" vol="100" pan="0" pos="60"/>
          <note key="53" len="12" vol="100" pan="0" pos="84"/>
          <note key="53" len="12" vol="100" pan="0" pos="108"/>
          <note key="53" len="12" vol="100" pan="0" pos="132"/>
          <note key="53" len="12" vol="100" pan="0" pos="144"/>
          <note key="53" len="12" vol="100" pan="0" pos="156"/>
          <note key="53" len="12" vol="100" pan="0" pos="168"/>
          <note key="53" len="12" vol="100" pan="0" pos="180"/>
          <note key="53" len="12" vol="100" pan="0" pos="192"/>
          <note key="53" len="12" vol="100" pan="0" pos="216"/>
          <note key="53" len="12" vol="100" pan="0" pos="240"/>
          <note key="53" len="12" vol="100" pan="0" pos="252"/>
          <note key="53" len="12" vol="100" pan="0" pos="276"/>
          <note key="53" len="12" vol="100" pan="0" pos="300"/>
          <note key="53" len="48" vol="100" pan="0" pos="324"/>
          <note key="53" len="12" vol="100" pan="0" pos="384"/>
          <note key="53" len="12" vol="100" pan="0" pos="408"/>
          <note key="53" len="12" vol="100" pan="0" pos="432"/>
          <note key="53" len="12" vol="100" pan="0" pos="444"/>
          <note key="53" len="12" vol="100" pan="0" pos="468"/>
          <note key="53" len="12" vol="100" pan="0" pos="492"/>
          <note key="53" len="12" vol="100" pan="0" pos="516"/>
          <note key="53" len="12" vol="100" pan="0" pos="528"/>
          <note key="53" len="12" vol="100" pan="0" pos="540"/>
          <note key="53" len="12" vol="100" pan="0" pos="552"/>
          <note key="53" len="12" vol="100" pan="0" pos="564"/>
          <note key="53" len="12" vol="100" pan="0" pos="576"/>
          <note key="53" len="12" vol="100" pan="0" pos="600"/>
          <note key="53" len="12" vol="100" pan="0" pos="624"/>
          <note key="53" len="12" vol="100" pan="0" pos="636"/>
          <note key="53" len="12" vol="100" pan="0" pos="660"/>
          <note key="53" len="12" vol="100" pan="0" pos="684"/>
          <note key="54" len="48" vol="100" pan="0" pos="708"/>
        </pattern>
        <pattern name="Arpeggio 2" steps="16" type="1" muted="0" pos="6912">
          <note key="57" len="12" vol="100" pan="0" pos="0"/>
          <note key="57" len="12" vol="100" pan="0" pos="24"/>
          <note key="57" len="12" vol="100" pan="0" pos="48"/>
          <note key="57" len="12" vol="100" pan="0" pos="60"/>
          <note key="57" len="12" vol="100" pan="0" pos="84"/>
          <note key="57" len="12" vol="100" pan="0" pos="108"/>
          <note key="57" len="12" vol="100" pan="0" pos="132"/>
          <note key="57" len="12" vol="100" pan="0" pos="144"/>
          <note key="57" len="12" vol="100" pan="0" pos="156"/>
          <note key="57" len="12" vol="100" pan="0" pos="168"/>
          <note key="57" len="12" vol="100" pan="0" pos="180"/>
          <note key="57" len="12" vol="100" pan="0" pos="192"/>
          <note key="57" len="12" vol="100" pan="0" pos="216"/>
          <note key="57" len="12" vol="100" pan="0" pos="240"/>
          <note key="57" len="12" vol="100" pan="0" pos="252"/>
          <note key="57" len="12" vol="100" pan="0" pos="276"/>
          <note key="57" len="12" vol="100" pan="0" pos="300"/>
          <note key="57" len="48" vol="100" pan="0" pos="324"/>
          <note key="57" len="12" vol="100" pan="0" pos="384"/>
          <note key="57" len="12" vol="100" pan="0" pos="408"/>
          <note key="57" len="12" vol="100" pan="0" pos="432"/>
          <note key="57" len="12" vol="100" pan="0" pos="444"/>
          <note key="57" len="12" vol="100" pan="0" pos="468"/>
          <note key="57" len="12" vol="100" pan="0" pos="492"/>
          <note key="57" len="12" vol="100" pan="0" pos="516"/>
          <note key="57" len="12" vol="100" pan="0" pos="528"/>
          <note key="57" len="12" vol="100" pan="0" pos="540"/>
          <note key="57" len="12" vol="100" pan="0" pos="552"/>
          <note key="57" len="12" vol="100" pan="0" pos="564"/>
          <note key="57" len="12" vol="100" pan="0" pos="576"/>
          <note key="57" len="12" vol="100" pan="0" pos="600"/>
          <note key="57" len="12" vol="100" pan="0" pos="624"/>
          <note key="57" len="12" vol="100" pan="0" pos="636"/>
          <note key="57" len="12" vol="100" pan="0" pos="660"/>
          <note key="57" len="12" vol="100" pan="0" pos="684"/>
          <note key="56" len="48" vol="100" pan="0" pos="708"/>
        </pattern>
        <pattern name="Arpeggio 2" steps="16" type="1" muted="0" pos="5376">
          <note key="57" len="12" vol="100" pan="0" pos="0"/>
          <note key="57" len="12" vol="100" pan="0" pos="24"/>
          <note key="57" len="12" vol="100" pan="0" pos="48"/>
          <note key="57" len="12" vol="100" pan="0" pos="60"/>
          <note key="57" len="12" vol="100" pan="0" pos="84"/>
          <note key="57" len="12" vol="100" pan="0" pos="108"/>
          <note key="57" len="12" vol="100" pan="0" pos="132"/>
          <note key="57" len="12" vol="100" pan="0" pos="144"/>
          <note key="57" len="12" vol="100" pan="0" pos="156"/>
          <note key="57" len="12" vol="100" pan="0" pos="168"/>
          <note key="57" len="12" vol="100" pan="0" pos="180"/>
          <note key="57" len="12" vol="100" pan="0" pos="192"/>
          <note key="57" len="12" vol="100" pan="0" pos="216"/>
          <note key="57" len="12" vol="100" pan="0" pos="240"/>
          <note key="57" len="12" vol="100" pan="0" pos="252"/>
          <note key="57" len="12" vol="100" pan="0" pos="276"/>
          <note key="57" len="12" vol="100" pan="0" pos="300"/>
          <note key="57" len="48" vol="100" pan="0" pos="324"/>
          <note key="57" len="12" vol="100" pan="0" pos="384"/>
          <note key="57" len="12" vol="100" pan="0" pos="408"/>
          <note key="57" len="12" vol="100" pan="0" pos="432"/>
          <note key="57" len="12" vol="100" pan="0" pos="444"/>
          <note key="57" len="12" vol="100" pan="0" pos="468"/>
          <note key="57" len="12" vol="100" pan="0" pos="492"/>
          <note key="57" len="12" vol="100" pan="0" pos="516"/>
          <note key="57" len="12" vol="100" pan="0" pos="528"/>
          <note key="57" len="12" vol="100" pan="0" pos="540"/>
          <note key="57" len="12" vol="100" pan="0" pos="552"/>
          <note key="57" len="12" vol="100" pan="0" pos="564"/>
          <note key="57" len="12" vol="100" pan="0" pos="576"/>
          <note key="57" len="12" vol="100" pan="0" pos="600"/>
          <note key="57" len="12" vol="100" pan="0" pos="624"/>
          <note key="57" len="12" vol="100" pan="0" pos="636"/>
          <note key="57" len="12" vol="100" pan="0" pos="660"/>
          <note key="57" len="12" vol="100" pan="0" pos="684"/>
          <note key="56" len="12" vol="100" pan="0" pos="708"/>
          <note key="56" len="12" vol="100" pan="0" pos="720"/>
          <note key="56" len="12" vol="100" pan="0" pos="732"/>
          <note key="56" len="12" vol="100" pan="0" pos="744"/>
        </pattern>
        <pattern name="Arpeggio 2" steps="16" type="1" muted="0" pos="3072">
          <note key="57" len="12" vol="100" pan="0" pos="0"/>
          <note key="57" len="12" vol="100" pan="0" pos="24"/>
          <note key="57" len="12" vol="100" pan="0" pos="48"/>
          <note key="57" len="12" vol="100" pan="0" pos="60"/>
          <note key="57" len="12" vol="100" pan="0" pos="84"/>
          <note key="57" len="12" vol="100" pan="0" pos="108"/>
          <note key="57" len="12" vol="100" pan="0" pos="132"/>
          <note key="57" len="12" vol="100" pan="0" pos="144"/>
          <note key="57" len="12" vol="100" pan="0" pos="156"/>
          <note key="57" len="12" vol="100" pan="0" pos="168"/>
          <note key="57" len="12" vol="100" pan="0" pos="180"/>
          <note key="57" len="12" vol="100" pan="0" pos="192"/>
          <note key="57" len="12" vol="100" pan="0" pos="216"/>
          <note key="57" len="12" vol="100" pan="0" pos="240"/>
          <note key="57" len="12" vol="100" pan="0" pos="252"/>
          <note key="57" len="12" vol="100" pan="0" pos="276"/>
          <note key="57" len="12" vol="100" pan="0" pos="300"/>
          <note key="57" len="48" vol="100" pan="0" pos="324"/>
          <note key="57" len="12" vol="100" pan="0" pos="384"/>
          <note key="57" len="12" vol="100" pan="0" pos="408"/>
          <note key="57" len="12" vol="100" pan="0" pos="432"/>
          <note key="57" len="12" vol="100" pan="0" pos="444"/>
          <note key="57" len="12" vol="100" pan="0" pos="468"/>
          <note key="57" len="12" vol="100" pan="0" pos="492"/>
          <note key="57" len="12" vol="100" pan="0" pos="516"/>
          <note key="57" len="12" vol="100" pan="0" pos="528"/>
          <note key="57" len="12" vol="100" pan="0" pos="540"/>
          <note key="57" len="12" vol="100" pan="0" pos="552"/>
          <note key="57" len="12" vol="100" pan="0" pos="564"/>
          <note key="57" len="12" vol="100" pan="0" pos="576"/>
          <note key="57" len="12" vol="100" pan="0" pos="600"/>
          <note key="57" len="12" vol="100" pan="0" pos="624"/>
          <note key="57" len="12" vol="100" pan="0" pos="636"/>
          <note key="57" len="12" vol="100" pan="0" pos="660"/>
          <note key="57" len="12" vol="100" pan="0" pos="684"/>
          <note key="56" len="12" vol="100" pan="0" pos="708"/>
          <note key="56" len="12" vol="100" pan="0" pos="720"/>
          <note key="56" len="12" vol="100" pan="0" pos="732"/>
          <note key="56" len="12" vol="100" pan="0" pos="744"/>
        </pattern>
        <pattern name="Arpeggio 2" steps="16" type="1" muted="0" pos="6144">
          <note key="57" len="12" vol="100" pan="0" pos="0"/>
          <note key="57" len="12" vol="100" pan="0" pos="24"/>
          <note key="57" len="12" vol="100" pan="0" pos="48"/>
          <note key="57" len="12" vol="100" pan="0" pos="60"/>
          <note key="57" len="12" vol="100" pan="0" pos="84"/>
          <note key="57" len="12" vol="100" pan="0" pos="108"/>
          <note key="57" len="12" vol="100" pan="0" pos="132"/>
          <note key="57" len="12" vol="100" pan="0" pos="144"/>
          <note key="57" len="12" vol="100" pan="0" pos="156"/>
          <note key="57" len="12" vol="100" pan="0" pos="168"/>
          <note key="57" len="12" vol="100" pan="0" pos="180"/>
          <note key="57" len="12" vol="100" pan="0" pos="192"/>
          <note key="57" len="12" vol="100" pan="0" pos="216"/>
          <note key="57" len="12" vol="100" pan="0" pos="240"/>
          <note key="57" len="12" vol="100" pan="0" pos="252"/>
          <note key="57" len="12" vol="100" pan="0" pos="276"/>
          <note key="57" len="12" vol="100" pan="0" pos="300"/>
          <note key="57" len="48" vol="100" pan="0" pos="324"/>
          <note key="57" len="12" vol="100" pan="0" pos="384"/>
          <note key="57" len="12" vol="100" pan="0" pos="408"/>
          <note key="57" len="12" vol="100" pan="0" pos="432"/>
          <note key="57" len="12" vol="100" pan="0" pos="444"/>
          <note key="57" len="12" vol="100" pan="0" pos="468"/>
          <note key="57" len="12" vol="100" pan="0" pos="492"/>
          <note key="57" len="12" vol="100" pan="0" pos="516"/>
          <note key="57" len="12" vol="100" pan="0" pos="528"/>
          <note key="57" len="12" vol="100" pan="0" pos="540"/>
          <note key="57" len="12" vol="100" pan="0" pos="552"/>
          <note key="57" len="12" vol="100" pan="0" pos="564"/>
          <note key="57" len="12" vol="100" pan="0" pos="576"/>
          <note key="57" len="12" vol="100" pan="0" pos="600"/>
          <note key="57" len="12" vol="100" pan="0" pos="624"/>
          <note key="57" len="12" vol="100" pan="0" pos="636"/>
          <note key="57" len="12" vol="100" pan="0" pos="660"/>
          <note key="57" len="12" vol="100" pan="0" pos="672"/>
          <note key="57" len="12" vol="100" pan="0" pos="684"/>
          <note key="56" len="12" vol="100" pan="0" pos="708"/>
          <note key="56" len="12" vol="100" pan="0" pos="720"/>
          <note key="56" len="12" vol="100" pan="0" pos="732"/>
          <note key="56" len="12" vol="100" pan="0" pos="744"/>
          <note key="56" len="12" vol="100" pan="0" pos="756"/>
        </pattern>
        <pattern name="Arpeggio 2" steps="16" type="1" muted="0" pos="9792">
          <note key="57" len="12" vol="100" pan="0" pos="0"/>
          <note key="57" len="12" vol="100" pan="0" pos="24"/>
          <note key="57" len="12" vol="100" pan="0" pos="48"/>
          <note key="57" len="12" vol="100" pan="0" pos="60"/>
          <note key="57" len="12" vol="100" pan="0" pos="84"/>
          <note key="57" len="12" vol="100" pan="0" pos="108"/>
          <note key="57" len="12" vol="100" pan="0" pos="132"/>
          <note key="57" len="12" vol="100" pan="0" pos="144"/>
          <note key="57" len="12" vol="100" pan="0" pos="156"/>
          <note key="57" len="12" vol="100" pan="0" pos="168"/>
          <note key="57" len="12" vol="100" pan="0" pos="180"/>
          <note key="57" len="12" vol="100" pan="0" pos="192"/>
          <note key="57" len="12" vol="100" pan="0" pos="216"/>
          <note key="57" len="12" vol="100" pan="0" pos="240"/>
          <note key="57" len="12" vol="100" pan="0" pos="252"/>
          <note key="57" len="12" vol="100" pan="0" pos="276"/>
          <note key="57" len="12" vol="100" pan="0" pos="300"/>
          <note key="57" len="48" vol="100" pan="0" pos="324"/>
          <note key="57" len="12" vol="100" pan="0" pos="384"/>
          <note key="57" len="12" vol="100" pan="0" pos="408"/>
          <note key="57" len="12" vol="100" pan="0" pos="432"/>
          <note key="57" len="12" vol="100" pan="0" pos="444"/>
          <note key="57" len="12" vol="100" pan="0" pos="468"/>
          <note key="57" len="12" vol="100" pan="0" pos="492"/>
          <note key="57" len="12" vol="100" pan="0" pos="516"/>
          <note key="57" len="12" vol="100" pan="0" pos="528"/>
          <note key="57" len="12" vol="100" pan="0" pos="540"/>
          <note key="57" len="12" vol="100" pan="0" pos="552"/>
          <note key="57" len="12" vol="100" pan="0" pos="564"/>
          <note key="57" len="12" vol="100" pan="0" pos="576"/>
          <note key="57" len="12" vol="100" pan="0" pos="600"/>
          <note key="57" len="12" vol="100" pan="0" pos="624"/>
          <note key="57" len="12" vol="100" pan="0" pos="636"/>
          <note key="57" len="12" vol="100" pan="0" pos="660"/>
          <note key="57" len="12" vol="100" pan="0" pos="684"/>
          <note key="56" len="12" vol="100" pan="0" pos="708"/>
          <note key="56" len="12" vol="100" pan="0" pos="720"/>
          <note key="56" len="12" vol="100" pan="0" pos="732"/>
          <note key="56" len="12" vol="100" pan="0" pos="744"/>
        </pattern>
        <pattern name="Arpeggio 2" steps="16" type="1" muted="0" pos="10560">
          <note key="57" len="12" vol="100" pan="0" pos="0"/>
          <note key="57" len="12" vol="100" pan="0" pos="24"/>
          <note key="57" len="12" vol="100" pan="0" pos="48"/>
          <note key="57" len="12" vol="100" pan="0" pos="60"/>
          <note key="57" len="12" vol="100" pan="0" pos="84"/>
          <note key="57" len="12" vol="100" pan="0" pos="108"/>
          <note key="57" len="12" vol="100" pan="0" pos="132"/>
          <note key="57" len="12" vol="100" pan="0" pos="144"/>
          <note key="57" len="12" vol="100" pan="0" pos="156"/>
          <note key="57" len="12" vol="100" pan="0" pos="168"/>
          <note key="57" len="12" vol="100" pan="0" pos="180"/>
          <note key="57" len="12" vol="100" pan="0" pos="192"/>
          <note key="57" len="12" vol="100" pan="0" pos="216"/>
          <note key="57" len="12" vol="100" pan="0" pos="240"/>
          <note key="57" len="12" vol="100" pan="0" pos="252"/>
          <note key="57" len="12" vol="100" pan="0" pos="276"/>
          <note key="57" len="12" vol="100" pan="0" pos="300"/>
          <note key="57" len="48" vol="100" pan="0" pos="324"/>
          <note key="57" len="12" vol="100" pan="0" pos="384"/>
          <note key="57" len="12" vol="100" pan="0" pos="408"/>
          <note key="57" len="12" vol="100" pan="0" pos="432"/>
          <note key="57" len="12" vol="100" pan="0" pos="444"/>
          <note key="57" len="12" vol="100" pan="0" pos="468"/>
          <note key="57" len="12" vol="100" pan="0" pos="492"/>
          <note key="57" len="12" vol="100" pan="0" pos="516"/>
          <note key="57" len="12" vol="100" pan="0" pos="528"/>
          <note key="57" len="12" vol="100" pan="0" pos="540"/>
          <note key="57" len="12" vol="100" pan="0" pos="552"/>
          <note key="57" len="12" vol="100" pan="0" pos="564"/>
          <note key="57" len="12" vol="100" pan="0" pos="576"/>
          <note key="57" len="12" vol="100" pan="0" pos="600"/>
          <note key="57" len="12" vol="100" pan="0" pos="624"/>
          <note key="57" len="12" vol="100" pan="0" pos="636"/>
          <note key="57" len="12" vol="100" pan="0" pos="660"/>
          <note key="57" len="12" vol="100" pan="0" pos="672"/>
          <note key="57" len="12" vol="100" pan="0" pos="684"/>
          <note key="56" len="12" vol="100" pan="0" pos="708"/>
          <note key="56" len="12" vol="100" pan="0" pos="720"/>
          <note key="56" len="12" vol="100" pan="0" pos="732"/>
          <note key="56" len="12" vol="100" pan="0" pos="744"/>
          <note key="56" len="12" vol="100" pan="0" pos="756"/>
        </pattern>
        <pattern name="Arpeggio 2" steps="16" type="1" muted="0" pos="11328">
          <note key="57" len="12" vol="100" pan="0" pos="0"/>
          <note key="57" len="12" vol="100" pan="0" pos="24"/>
          <note key="57" len="12" vol="100" pan="0" pos="48"/>
          <note key="57" len="12" vol="100" pan="0" pos="60"/>
          <note key="57" len="12" vol="100" pan="0" pos="84"/>
          <note key="57" len="12" vol="100" pan="0" pos="108"/>
          <note key="57" len="12" vol="100" pan="0" pos="132"/>
          <note key="57" len="12" vol="100" pan="0" pos="144"/>
          <note key="57" len="12" vol="100" pan="0" pos="156"/>
          <note key="57" len="12" vol="100" pan="0" pos="168"/>
          <note key="57" len="12" vol="100" pan="0" pos="180"/>
          <note key="57" len="12" vol="100" pan="0" pos="192"/>
          <note key="57" len="12" vol="100" pan="0" pos="216"/>
          <note key="57" len="12" vol="100" pan="0" pos="240"/>
          <note key="57" len="12" vol="100" pan="0" pos="252"/>
          <note key="57" len="12" vol="100" pan="0" pos="276"/>
          <note key="57" len="12" vol="100" pan="0" pos="300"/>
          <note key="57" len="48" vol="100" pan="0" pos="324"/>
          <note key="57" len="12" vol="100" pan="0" pos="384"/>
          <note key="57" len="12" vol="100" pan="0" pos="408"/>
          <note key="57" len="12" vol="100" pan="0" pos="432"/>
          <note key="57" len="12" vol="100" pan="0" pos="444"/>
          <note key="57" len="12" vol="100" pan="0" pos="468"/>
          <note key="57" len="12" vol="100" pan="0" pos="492"/>
          <note key="57" len="12" vol="100" pan="0" pos="516"/>
          <note key="57" len="12" vol="100" pan="0" pos="528"/>
          <note key="57" len="12" vol="100" pan="0" pos="540"/>
          <note key="57" len="12" vol="100" pan="0" pos="552"/>
          <note key="57" len="12" vol="100" pan="0" pos="564"/>
          <note key="57" len="12" vol="100" pan="0" pos="576"/>
          <note key="57" len="12" vol="100" pan="0" pos="600"/>
          <note key="57" len="12" vol="100" pan="0" pos="624"/>
          <note key="57" len="12" vol="100" pan="0" pos="636"/>
          <note key="57" len="12" vol="100" pan="0" pos="660"/>
          <note key="58" len="12" vol="100" pan="0" pos="684"/>
          <note key="59" len="12" vol="100" pan="0" pos="708"/>
          <note key="59" len="12" vol="100" pan="0" pos="720"/>
          <note key="59" len="12" vol="100" pan="0" pos="732"/>
          <note key="59" len="12" vol="100" pan="0" pos="744"/>
        </pattern>
        <pattern name="Arpeggio 2" steps="16" type="1" muted="0" pos="12096">
          <note key="59" len="12" vol="100" pan="0" pos="0"/>
          <note key="59" len="12" vol="100" pan="0" pos="24"/>
          <note key="59" len="12" vol="100" pan="0" pos="48"/>
          <note key="59" len="12" vol="100" pan="0" pos="60"/>
          <note key="59" len="12" vol="100" pan="0" pos="84"/>
          <note key="59" len="12" vol="100" pan="0" pos="108"/>
          <note key="59" len="12" vol="100" pan="0" pos="132"/>
          <note key="59" len="12" vol="100" pan="0" pos="144"/>
          <note key="59" len="12" vol="100" pan="0" pos="156"/>
          <note key="59" len="12" vol="100" pan="0" pos="168"/>
          <note key="59" len="12" vol="100" pan="0" pos="180"/>
          <note key="59" len="12" vol="100" pan="0" pos="192"/>
          <note key="59" len="12" vol="100" pan="0" pos="216"/>
          <note key="59" len="12" vol="100" pan="0" pos="240"/>
          <note key="59" len="12" vol="100" pan="0" pos="252"/>
          <note key="59" len="12" vol="100" pan="0" pos="276"/>
          <note key="58" len="12" vol="100" pan="0" pos="300"/>
          <note key="57" len="48" vol="100" pan="0" pos="324"/>
          <note key="57" len="12" vol="100" pan="0" pos="384"/>
          <note key="57" len="12" vol="100" pan="0" pos="408"/>
          <note key="57" len="12" vol="100" pan="0" pos="432"/>
          <note key="57" len="12" vol="100" pan="0" pos="444"/>
          <note key="57" len="12" vol="100" pan="0" pos="468"/>
          <note key="57" len="12" vol="100" pan="0" pos="492"/>
          <note key="57" len="12" vol="100" pan="0" pos="516"/>
          <note key="57" len="12" vol="100" pan="0" pos="528"/>
          <note key="57" len="12" vol="100" pan="0" pos="540"/>
          <note key="57" len="12" vol="100" pan="0" pos="552"/>
          <note key="57" len="12" vol="100" pan="0" pos="564"/>
          <note key="57" len="12" vol="100" pan="0" pos="576"/>
          <note key="57" len="12" vol="100" pan="0" pos="600"/>
          <note key="57" len="12" vol="100" pan="0" pos="624"/>
          <note key="57" len="12" vol="100" pan="0" pos="636"/>
          <note key="57" len="12" vol="100" pan="0" pos="660"/>
          <note key="58" len="12" vol="100" pan="0" pos="684"/>
          <note key="56" len="12" vol="100" pan="0" pos="708"/>
          <note key="56" len="12" vol="100" pan="0" pos="720"/>
          <note key="56" len="12" vol="100" pan="0" pos="732"/>
          <note key="56" len="12" vol="100" pan="0" pos="744"/>
          <note key="56" len="12" vol="100" pan="0" pos="756"/>
        </pattern>
        <pattern name="Arpeggio 2" steps="16" type="1" muted="0" pos="12864">
          <note key="57" len="12" vol="100" pan="0" pos="0"/>
          <note key="57" len="12" vol="100" pan="0" pos="24"/>
          <note key="57" len="12" vol="100" pan="0" pos="48"/>
          <note key="57" len="12" vol="100" pan="0" pos="60"/>
          <note key="57" len="12" vol="100" pan="0" pos="84"/>
          <note key="57" len="12" vol="100" pan="0" pos="108"/>
          <note key="57" len="12" vol="100" pan="0" pos="132"/>
          <note key="57" len="12" vol="100" pan="0" pos="144"/>
          <note key="57" len="12" vol="100" pan="0" pos="156"/>
          <note key="57" len="12" vol="100" pan="0" pos="168"/>
          <note key="57" len="12" vol="100" pan="0" pos="180"/>
          <note key="57" len="12" vol="100" pan="0" pos="192"/>
          <note key="57" len="12" vol="100" pan="0" pos="216"/>
          <note key="57" len="12" vol="100" pan="0" pos="240"/>
          <note key="57" len="12" vol="100" pan="0" pos="252"/>
          <note key="57" len="12" vol="100" pan="0" pos="276"/>
          <note key="57" len="12" vol="100" pan="0" pos="300"/>
          <note key="57" len="48" vol="100" pan="0" pos="324"/>
          <note key="57" len="12" vol="100" pan="0" pos="384"/>
          <note key="57" len="12" vol="100" pan="0" pos="408"/>
          <note key="57" len="12" vol="100" pan="0" pos="432"/>
          <note key="57" len="12" vol="100" pan="0" pos="444"/>
          <note key="57" len="12" vol="100" pan="0" pos="468"/>
          <note key="57" len="12" vol="100" pan="0" pos="492"/>
          <note key="57" len="12" vol="100" pan="0" pos="516"/>
          <note key="57" len="12" vol="100" pan="0" pos="528"/>
          <note key="57" len="12" vol="100" pan="0" pos="540"/>
          <note key="57" len="12" vol="100" pan="0" pos="552"/>
          <note key="57" len="12" vol="100" pan="0" pos="564"/>
          <note key="57" len="12" vol="100" pan="0" pos="576"/>
          <note key="57" len="12" vol="100" pan="0" pos="600"/>
          <note key="57" len="12" vol="100" pan="0" pos="624"/>
          <note key="57" len="12" vol="100" pan="0" pos="636"/>
          <note key="57" len="12" vol="100" pan="0" pos="660"/>
          <note key="57" len="12" vol="100" pan="0" pos="684"/>
          <note key="56" len="12" vol="100" pan="0" pos="708"/>
          <note key="56" len="12" vol="100" pan="0" pos="720"/>
          <note key="56" len="12" vol="100" pan="0" pos="732"/>
          <note key="56" len="12" vol="100" pan="0" pos="744"/>
        </pattern>
        <pattern name="Arpeggio 2" steps="16" type="1" muted="0" pos="13632">
          <note key="57" len="12" vol="100" pan="0" pos="0"/>
          <note key="57" len="12" vol="100" pan="0" pos="24"/>
          <note key="57" len="12" vol="100" pan="0" pos="48"/>
          <note key="57" len="12" vol="100" pan="0" pos="60"/>
          <note key="57" len="12" vol="100" pan="0" pos="84"/>
          <note key="57" len="12" vol="100" pan="0" pos="108"/>
          <note key="57" len="12" vol="100" pan="0" pos="132"/>
          <note key="57" len="12" vol="100" pan="0" pos="144"/>
          <note key="57" len="12" vol="100" pan="0" pos="156"/>
          <note key="57" len="12" vol="100" pan="0" pos="168"/>
          <note key="57" len="12" vol="100" pan="0" pos="180"/>
          <note key="57" len="12" vol="100" pan="0" pos="192"/>
          <note key="57" len="12" vol="100" pan="0" pos="216"/>
          <note key="57" len="12" vol="100" pan="0" pos="240"/>
          <note key="57" len="12" vol="100" pan="0" pos="252"/>
          <note key="57" len="12" vol="100" pan="0" pos="276"/>
          <note key="57" len="12" vol="100" pan="0" pos="300"/>
          <note key="57" len="48" vol="100" pan="0" pos="324"/>
          <note key="57" len="12" vol="100" pan="0" pos="384"/>
          <note key="57" len="12" vol="100" pan="0" pos="408"/>
          <note key="57" len="12" vol="100" pan="0" pos="432"/>
          <note key="57" len="12" vol="100" pan="0" pos="444"/>
          <note key="57" len="12" vol="100" pan="0" pos="468"/>
          <note key="57" len="12" vol="100" pan="0" pos="492"/>
          <note key="57" len="12" vol="100" pan="0" pos="516"/>
          <note key="57" len="12" vol="100" pan="0" pos="528"/>
          <note key="57" len="12" vol="100" pan="0" pos="540"/>
          <note key="57" len="12" vol="100" pan="0" pos="552"/>
          <note key="57" len="12" vol="100" pan="0" pos="564"/>
          <note key="57" len="12" vol="100" pan="0" pos="576"/>
          <note key="57" len="12" vol="100" pan="0" pos="600"/>
          <note key="57" len="12" vol="100" pan="0" pos="624"/>
          <note key="57" len="12" vol="100" pan="0" pos="636"/>
          <note key="57" len="12" vol="100" pan="0" pos="660"/>
          <note key="57" len="12" vol="100" pan="0" pos="672"/>
          <note key="57" len="12" vol="100" pan="0" pos="684"/>
          <note key="56" len="12" vol="100" pan="0" pos="708"/>
          <note key="56" len="12" vol="100" pan="0" pos="720"/>
          <note key="56" len="12" vol="100" pan="0" pos="732"/>
          <note key="56" len="12" vol="100" pan="0" pos="744"/>
          <note key="56" len="12" vol="100" pan="0" pos="756"/>
        </pattern>
      </track>
      <track name="Automation track" solo="0" type="5" muted="0">
        <automationtrack/>
        <automationpattern name="Master volume" mute="0" prog="1" len="1728" tens="1" pos="8064">
          <time value="0" pos="0"/>
          <time value="75" pos="1728"/>
          <object id="3164199"/>
        </automationpattern>
        <automationpattern name="Master volume" mute="0" prog="1" len="192" tens="1" pos="0">
          <time value="75" pos="0"/>
          <object id="3164199"/>
        </automationpattern>
      </track>
    </trackcontainer>
    <track name="Automation track" solo="0" type="6" muted="0">
      <automationtrack/>
      <automationpattern name="Numerator" mute="0" prog="0" len="192" tens="1" pos="0"/>
      <automationpattern name="Denominator" mute="0" prog="0" len="192" tens="1" pos="0"/>
      <automationpattern name="Tempo" mute="0" prog="0" len="192" tens="1" pos="0"/>
      <automationpattern name="Master volume" mute="0" prog="0" len="192" tens="1" pos="0"/>
      <automationpattern name="Master pitch" mute="0" prog="0" len="192" tens="1" pos="0"/>
    </track>
    <fxmixer x="401" minimized="0" y="445" maximized="0" height="333" width="543" visible="0">
      <fxchannel volume="0.79999995" name="Master" soloed="0" muted="0" num="0">
        <fxchain numofeffects="0" enabled="0"/>
      </fxchannel>
      <fxchannel volume="1" name="Lead" soloed="0" muted="0" num="1">
        <fxchain numofeffects="0" enabled="0"/>
        <send amount="1" channel="0"/>
      </fxchannel>
      <fxchannel volume="0.79999995" name="Kick" soloed="0" muted="0" num="2">
        <fxchain numofeffects="0" enabled="0"/>
        <send amount="1" channel="0"/>
      </fxchannel>
      <fxchannel volume="0.60700005" name="Percussion" soloed="0" muted="0" num="3">
        <fxchain numofeffects="1" enabled="1">
          <effect wet="1" name="ladspaeffect" autoquit_syncmode="0" autoquit_numerator="4" gate="0" autoquit_denominator="4" autoquit="1" on="1">
            <ladspacontrols link="1" ports="20">
              <port01 link="1" data="0"/>
              <port02 link="1" data="0"/>
              <port03 link="1" data="0"/>
              <port04 link="1" data="0"/>
              <port05 link="1" data="-0.27000001"/>
              <port06 link="1" data="0"/>
              <port07 link="1" data="0"/>
              <port08 link="1" data="-6.4800005"/>
              <port09 link="1" data="0"/>
              <port010 link="1" data="0"/>
              <port11 data="0"/>
              <port12 data="0"/>
              <port13 data="0"/>
              <port14 data="0"/>
              <port15 data="-0.27000001"/>
              <port16 data="0"/>
              <port17 data="0"/>
              <port18 data="-6.4800005"/>
              <port19 data="0"/>
              <port110 data="0"/>
            </ladspacontrols>
            <key>
              <attribute name="file" value="caps"/>
              <attribute name="plugin" value="Eq"/>
            </key>
          </effect>
        </fxchain>
        <send amount="1" channel="0"/>
      </fxchannel>
      <fxchannel volume="0.79999995" name="Metrognome" soloed="0" muted="0" num="4">
        <fxchain numofeffects="0" enabled="0"/>
        <send amount="1" channel="0"/>
      </fxchannel>
    </fxmixer>
    <ControllerRackView x="605" minimized="0" y="395" maximized="0" height="200" width="350" visible="0"/>
    <pianoroll x="194" minimized="0" y="346" maximized="0" height="484" width="1020" visible="0"/>
    <automationeditor x="713" minimized="0" y="166" maximized="0" height="403" width="860" visible="0"/>
    <projectnotes x="700" minimized="0" y="10" maximized="0" height="400" width="860" visible="0"><![CDATA[<!DOCTYPE HTML PUBLIC "-//W3C//DTD HTML 4.0//EN" "http://www.w3.org/TR/REC-html40/strict.dtd">
<html><head><meta name="qrichtext" content="1" /><style type="text/css">
p, li { white-space: pre-wrap; }
</style></head><body style=" font-family:'Cantarell'; font-size:11pt; font-weight:400; font-style:normal;">
<p style="-qt-paragraph-type:empty; margin-top:0px; margin-bottom:0px; margin-left:0px; margin-right:0px; -qt-block-indent:0; text-indent:0px;"><br /></p></body></html>]]></projectnotes>
    <timeline lp1pos="15168" lpstate="0" lp0pos="0"/>
    <controllers/>
  </song>
</lmms-project>
