<?xml version="1.0"?>
<!DOCTYPE lmms-project>
<lmms-project creatorversion="1.2.2" type="song" version="1.0" creator="LMMS">
  <head mastervol="100" masterpitch="0" timesig_numerator="4" bpm="140" timesig_denominator="4"/>
  <song>
    <trackcontainer minimized="0" type="song" height="586" visible="1" maximized="0" width="1199" y="19" x="288">
      <track type="0" solo="0" muted="0" name="Organic">
        <instrumenttrack fxch="0" vol="48" pitchrange="1" pitch="0" pan="0" usemasterpitch="1" basenote="57">
          <instrument name="organic">
            <organic vol4="100" vol7="100" wavetype7="0" newharmonic7="7" pan5="0" vol="100" newdetune6="0" newdetune7="0" pan4="0" pan0="0" vol1="100" vol3="100" newdetune2="0" newharmonic5="5" newdetune3="0" wavetype3="0" wavetype1="0" wavetype5="0" pan7="0" newharmonic2="2" wavetype6="0" pan6="0" newharmonic3="3" wavetype4="0" wavetype0="0" wavetype2="0" vol0="100" foldback="0" vol6="100" newharmonic4="4" newdetune0="0" num_osc="8" newharmonic0="0" newharmonic6="6" newdetune4="0" vol5="100" pan1="0" vol2="100" newdetune5="0" newdetune1="0" pan3="0" newharmonic1="1" pan2="0"/>
          </instrument>
          <eldata fwet="0" fcut="14000" ftype="0" fres="0.5">
            <elvol userwavefile="" lspd_numerator="4" att="0.029999999" hold="0.18400002" lspd="0.1" amt="1" lpdel="0" pdel="0" lspd_syncmode="0" x100="0" latt="0" sustain="0.5" lamt="0" dec="0.5" ctlenvamt="0" lshp="0" rel="0.1" lspd_denominator="4"/>
            <elcut userwavefile="" lspd_numerator="4" att="0" hold="0.5" lspd="0.1" amt="0" lpdel="0" pdel="0" lspd_syncmode="0" x100="0" latt="0" sustain="0.5" lamt="0" dec="0.5" ctlenvamt="0" lshp="0" rel="0.1" lspd_denominator="4"/>
            <elres userwavefile="" lspd_numerator="4" att="0" hold="0.5" lspd="0.1" amt="0" lpdel="0" pdel="0" lspd_syncmode="0" x100="0" latt="0" sustain="0.5" lamt="0" dec="0.5" ctlenvamt="0" lshp="0" rel="0.1" lspd_denominator="4"/>
          </eldata>
          <chordcreator chord="0" chord-enabled="0" chordrange="1"/>
          <arpeggiator arprange="1" arpcycle="0" arpdir="0" arptime_numerator="4" arp-enabled="0" arpmode="0" arptime_denominator="4" arptime_syncmode="0" arptime="200" arpskip="0" arpmiss="0" arpgate="100" arp="0"/>
          <midiport inputchannel="0" fixedinputvelocity="-1" readable="0" fixedoutputnote="-1" fixedoutputvelocity="-1" outputchannel="1" basevelocity="63" writable="0" inputcontroller="0" outputcontroller="0" outputprogram="1"/>
          <fxchain enabled="0" numofeffects="0"/>
        </instrumenttrack>
        <pattern type="1" steps="16" muted="0" name="" pos="0">
          <note vol="46" pan="0" len="36" key="38" pos="0"/>
          <note vol="46" pan="0" len="24" key="38" pos="48"/>
          <note vol="100" pan="0" len="24" key="41" pos="72"/>
          <note vol="100" pan="0" len="24" key="38" pos="96"/>
          <note vol="100" pan="0" len="24" key="40" pos="120"/>
          <note vol="100" pan="0" len="24" key="40" pos="144"/>
          <note vol="100" pan="0" len="24" key="40" pos="168"/>
          <note vol="46" pan="0" len="36" key="38" pos="192"/>
          <note vol="46" pan="0" len="24" key="38" pos="240"/>
          <note vol="100" pan="0" len="24" key="41" pos="264"/>
          <note vol="100" pan="0" len="24" key="38" pos="288"/>
          <note vol="100" pan="0" len="24" key="40" pos="312"/>
          <note vol="100" pan="0" len="24" key="40" pos="336"/>
          <note vol="100" pan="0" len="24" key="40" pos="360"/>
          <note vol="46" pan="0" len="36" key="38" pos="384"/>
          <note vol="46" pan="0" len="24" key="38" pos="432"/>
          <note vol="100" pan="0" len="24" key="41" pos="456"/>
          <note vol="100" pan="0" len="24" key="38" pos="480"/>
          <note vol="100" pan="0" len="24" key="40" pos="504"/>
          <note vol="100" pan="0" len="24" key="40" pos="528"/>
          <note vol="100" pan="0" len="24" key="40" pos="552"/>
          <note vol="46" pan="0" len="36" key="38" pos="576"/>
          <note vol="46" pan="0" len="24" key="38" pos="624"/>
          <note vol="100" pan="0" len="24" key="41" pos="648"/>
          <note vol="100" pan="0" len="24" key="38" pos="672"/>
          <note vol="100" pan="0" len="24" key="40" pos="696"/>
          <note vol="100" pan="0" len="24" key="40" pos="720"/>
          <note vol="100" pan="0" len="24" key="40" pos="744"/>
        </pattern>
        <pattern type="1" steps="16" muted="0" name="" pos="768">
          <note vol="72" pan="0" len="24" key="62" pos="0"/>
          <note vol="44" pan="0" len="24" key="62" pos="24"/>
          <note vol="100" pan="0" len="24" key="65" pos="48"/>
          <note vol="100" pan="0" len="24" key="62" pos="72"/>
          <note vol="100" pan="0" len="24" key="64" pos="96"/>
          <note vol="100" pan="0" len="24" key="64" pos="120"/>
          <note vol="100" pan="0" len="24" key="64" pos="144"/>
          <note vol="100" pan="0" len="24" key="62" pos="168"/>
          <note vol="68" pan="0" len="24" key="62" pos="192"/>
          <note vol="44" pan="0" len="24" key="62" pos="216"/>
          <note vol="100" pan="0" len="24" key="65" pos="240"/>
          <note vol="100" pan="0" len="24" key="62" pos="264"/>
          <note vol="100" pan="0" len="24" key="64" pos="288"/>
          <note vol="100" pan="0" len="24" key="64" pos="312"/>
          <note vol="100" pan="0" len="24" key="64" pos="336"/>
          <note vol="100" pan="0" len="24" key="62" pos="360"/>
          <note vol="68" pan="0" len="24" key="62" pos="384"/>
          <note vol="44" pan="0" len="24" key="62" pos="408"/>
          <note vol="100" pan="0" len="24" key="65" pos="432"/>
          <note vol="100" pan="0" len="24" key="62" pos="456"/>
          <note vol="100" pan="0" len="24" key="64" pos="480"/>
          <note vol="100" pan="0" len="24" key="64" pos="504"/>
          <note vol="100" pan="0" len="24" key="64" pos="528"/>
          <note vol="100" pan="0" len="24" key="62" pos="552"/>
          <note vol="70" pan="0" len="24" key="62" pos="576"/>
          <note vol="38" pan="0" len="24" key="62" pos="600"/>
          <note vol="100" pan="0" len="24" key="65" pos="624"/>
          <note vol="100" pan="0" len="24" key="62" pos="648"/>
          <note vol="100" pan="0" len="24" key="64" pos="672"/>
          <note vol="100" pan="0" len="24" key="64" pos="696"/>
          <note vol="100" pan="0" len="24" key="64" pos="720"/>
          <note vol="100" pan="0" len="24" key="62" pos="744"/>
          <note vol="72" pan="0" len="24" key="62" pos="768"/>
          <note vol="44" pan="0" len="24" key="62" pos="792"/>
          <note vol="100" pan="0" len="24" key="65" pos="816"/>
          <note vol="100" pan="0" len="24" key="62" pos="840"/>
          <note vol="100" pan="0" len="24" key="64" pos="864"/>
          <note vol="100" pan="0" len="24" key="64" pos="888"/>
          <note vol="100" pan="0" len="24" key="64" pos="912"/>
          <note vol="100" pan="0" len="24" key="62" pos="936"/>
          <note vol="68" pan="0" len="24" key="62" pos="960"/>
          <note vol="44" pan="0" len="24" key="62" pos="984"/>
          <note vol="100" pan="0" len="24" key="65" pos="1008"/>
          <note vol="100" pan="0" len="24" key="62" pos="1032"/>
          <note vol="100" pan="0" len="24" key="64" pos="1056"/>
          <note vol="100" pan="0" len="24" key="64" pos="1080"/>
          <note vol="100" pan="0" len="24" key="64" pos="1104"/>
          <note vol="100" pan="0" len="24" key="62" pos="1128"/>
          <note vol="68" pan="0" len="24" key="62" pos="1152"/>
          <note vol="44" pan="0" len="24" key="62" pos="1176"/>
          <note vol="100" pan="0" len="24" key="65" pos="1200"/>
          <note vol="100" pan="0" len="24" key="62" pos="1224"/>
          <note vol="100" pan="0" len="24" key="64" pos="1248"/>
          <note vol="100" pan="0" len="24" key="64" pos="1272"/>
          <note vol="100" pan="0" len="24" key="64" pos="1296"/>
          <note vol="100" pan="0" len="24" key="62" pos="1320"/>
          <note vol="70" pan="0" len="24" key="62" pos="1344"/>
          <note vol="38" pan="0" len="24" key="62" pos="1368"/>
          <note vol="100" pan="0" len="24" key="65" pos="1392"/>
          <note vol="100" pan="0" len="24" key="62" pos="1416"/>
          <note vol="100" pan="0" len="24" key="64" pos="1440"/>
          <note vol="100" pan="0" len="24" key="64" pos="1464"/>
          <note vol="100" pan="0" len="24" key="64" pos="1488"/>
          <note vol="100" pan="0" len="24" key="62" pos="1512"/>
        </pattern>
        <pattern type="1" steps="16" muted="0" name="" pos="4608">
          <note vol="100" pan="0" len="24" key="62" pos="0"/>
          <note vol="100" pan="0" len="24" key="65" pos="48"/>
          <note vol="100" pan="0" len="24" key="62" pos="72"/>
          <note vol="100" pan="0" len="12" key="64" pos="120"/>
          <note vol="100" pan="0" len="12" key="64" pos="132"/>
          <note vol="100" pan="0" len="24" key="64" pos="144"/>
          <note vol="100" pan="0" len="24" key="62" pos="168"/>
          <note vol="100" pan="0" len="24" key="62" pos="216"/>
          <note vol="100" pan="0" len="24" key="65" pos="240"/>
          <note vol="100" pan="0" len="24" key="62" pos="264"/>
          <note vol="100" pan="0" len="12" key="64" pos="288"/>
          <note vol="100" pan="0" len="12" key="64" pos="300"/>
          <note vol="100" pan="0" len="24" key="64" pos="312"/>
          <note vol="100" pan="0" len="24" key="64" pos="336"/>
          <note vol="100" pan="0" len="24" key="64" pos="360"/>
          <note vol="100" pan="0" len="24" key="62" pos="384"/>
          <note vol="100" pan="0" len="24" key="65" pos="432"/>
          <note vol="100" pan="0" len="24" key="62" pos="456"/>
          <note vol="100" pan="0" len="12" key="64" pos="504"/>
          <note vol="100" pan="0" len="12" key="64" pos="516"/>
          <note vol="100" pan="0" len="24" key="64" pos="528"/>
          <note vol="100" pan="0" len="24" key="62" pos="552"/>
          <note vol="100" pan="0" len="24" key="62" pos="600"/>
          <note vol="100" pan="0" len="24" key="65" pos="624"/>
          <note vol="100" pan="0" len="24" key="62" pos="648"/>
          <note vol="100" pan="0" len="24" key="64" pos="672"/>
          <note vol="100" pan="0" len="12" key="64" pos="696"/>
          <note vol="100" pan="0" len="36" key="64" pos="708"/>
          <note vol="100" pan="0" len="24" key="64" pos="744"/>
          <note vol="100" pan="0" len="24" key="57" pos="768"/>
          <note vol="100" pan="0" len="24" key="60" pos="816"/>
          <note vol="100" pan="0" len="24" key="57" pos="840"/>
          <note vol="100" pan="0" len="12" key="59" pos="888"/>
          <note vol="100" pan="0" len="12" key="59" pos="900"/>
          <note vol="100" pan="0" len="24" key="59" pos="912"/>
          <note vol="100" pan="0" len="24" key="57" pos="936"/>
          <note vol="100" pan="0" len="24" key="57" pos="984"/>
          <note vol="100" pan="0" len="24" key="60" pos="1008"/>
          <note vol="100" pan="0" len="24" key="57" pos="1032"/>
          <note vol="100" pan="0" len="12" key="59" pos="1056"/>
          <note vol="100" pan="0" len="12" key="59" pos="1068"/>
          <note vol="100" pan="0" len="24" key="59" pos="1080"/>
          <note vol="100" pan="0" len="24" key="59" pos="1104"/>
          <note vol="100" pan="0" len="24" key="59" pos="1128"/>
          <note vol="100" pan="0" len="24" key="57" pos="1152"/>
          <note vol="100" pan="0" len="24" key="60" pos="1200"/>
          <note vol="100" pan="0" len="24" key="57" pos="1224"/>
          <note vol="100" pan="0" len="12" key="59" pos="1272"/>
          <note vol="100" pan="0" len="12" key="59" pos="1284"/>
          <note vol="100" pan="0" len="24" key="59" pos="1296"/>
          <note vol="100" pan="0" len="24" key="57" pos="1320"/>
          <note vol="100" pan="0" len="24" key="57" pos="1368"/>
          <note vol="100" pan="0" len="24" key="60" pos="1392"/>
          <note vol="100" pan="0" len="24" key="57" pos="1416"/>
          <note vol="100" pan="0" len="36" key="59" pos="1440"/>
          <note vol="100" pan="0" len="36" key="60" pos="1476"/>
          <note vol="100" pan="0" len="24" key="61" pos="1512"/>
        </pattern>
        <pattern type="1" steps="16" muted="0" name="" pos="6144">
          <note vol="100" pan="0" len="24" key="62" pos="0"/>
          <note vol="100" pan="0" len="24" key="65" pos="48"/>
          <note vol="100" pan="0" len="24" key="62" pos="72"/>
          <note vol="100" pan="0" len="12" key="64" pos="120"/>
          <note vol="100" pan="0" len="12" key="64" pos="132"/>
          <note vol="100" pan="0" len="24" key="64" pos="144"/>
          <note vol="100" pan="0" len="24" key="62" pos="168"/>
          <note vol="100" pan="0" len="24" key="62" pos="216"/>
          <note vol="100" pan="0" len="24" key="65" pos="240"/>
          <note vol="100" pan="0" len="24" key="62" pos="264"/>
          <note vol="100" pan="0" len="12" key="64" pos="288"/>
          <note vol="100" pan="0" len="12" key="64" pos="300"/>
          <note vol="100" pan="0" len="24" key="64" pos="312"/>
          <note vol="100" pan="0" len="24" key="64" pos="336"/>
          <note vol="100" pan="0" len="24" key="64" pos="360"/>
          <note vol="100" pan="0" len="24" key="62" pos="384"/>
          <note vol="100" pan="0" len="24" key="65" pos="432"/>
          <note vol="100" pan="0" len="24" key="62" pos="456"/>
          <note vol="100" pan="0" len="12" key="64" pos="504"/>
          <note vol="100" pan="0" len="12" key="64" pos="516"/>
          <note vol="100" pan="0" len="24" key="64" pos="528"/>
          <note vol="100" pan="0" len="24" key="62" pos="552"/>
          <note vol="100" pan="0" len="24" key="62" pos="600"/>
          <note vol="100" pan="0" len="24" key="65" pos="624"/>
          <note vol="100" pan="0" len="24" key="62" pos="648"/>
          <note vol="100" pan="0" len="24" key="64" pos="672"/>
          <note vol="100" pan="0" len="12" key="64" pos="696"/>
          <note vol="100" pan="0" len="36" key="64" pos="708"/>
          <note vol="100" pan="0" len="24" key="64" pos="744"/>
          <note vol="100" pan="0" len="24" key="57" pos="768"/>
          <note vol="100" pan="0" len="24" key="60" pos="816"/>
          <note vol="100" pan="0" len="24" key="57" pos="840"/>
          <note vol="100" pan="0" len="12" key="59" pos="888"/>
          <note vol="100" pan="0" len="12" key="59" pos="900"/>
          <note vol="100" pan="0" len="24" key="59" pos="912"/>
          <note vol="100" pan="0" len="24" key="57" pos="936"/>
          <note vol="100" pan="0" len="24" key="57" pos="984"/>
          <note vol="100" pan="0" len="24" key="60" pos="1008"/>
          <note vol="100" pan="0" len="24" key="57" pos="1032"/>
          <note vol="100" pan="0" len="12" key="59" pos="1056"/>
          <note vol="100" pan="0" len="12" key="59" pos="1068"/>
          <note vol="100" pan="0" len="24" key="59" pos="1080"/>
          <note vol="100" pan="0" len="24" key="59" pos="1104"/>
          <note vol="100" pan="0" len="24" key="59" pos="1128"/>
          <note vol="100" pan="0" len="24" key="57" pos="1152"/>
          <note vol="100" pan="0" len="24" key="60" pos="1200"/>
          <note vol="100" pan="0" len="24" key="57" pos="1224"/>
          <note vol="100" pan="0" len="12" key="59" pos="1272"/>
          <note vol="100" pan="0" len="12" key="59" pos="1284"/>
          <note vol="100" pan="0" len="24" key="59" pos="1296"/>
          <note vol="100" pan="0" len="24" key="57" pos="1320"/>
          <note vol="100" pan="0" len="24" key="57" pos="1368"/>
          <note vol="100" pan="0" len="24" key="60" pos="1392"/>
          <note vol="100" pan="0" len="24" key="57" pos="1416"/>
          <note vol="100" pan="0" len="36" key="59" pos="1440"/>
          <note vol="100" pan="0" len="36" key="60" pos="1476"/>
          <note vol="100" pan="0" len="24" key="61" pos="1512"/>
        </pattern>
        <pattern type="1" steps="16" muted="0" name="Organic" pos="7680">
          <note vol="106" pan="10" len="384" key="62" pos="0"/>
        </pattern>
        <pattern type="1" steps="16" muted="0" name="" pos="8064">
          <note vol="72" pan="0" len="24" key="62" pos="0"/>
          <note vol="44" pan="0" len="24" key="62" pos="24"/>
          <note vol="100" pan="0" len="24" key="65" pos="48"/>
          <note vol="100" pan="0" len="24" key="62" pos="72"/>
          <note vol="100" pan="0" len="24" key="64" pos="96"/>
          <note vol="100" pan="0" len="24" key="64" pos="120"/>
          <note vol="100" pan="0" len="24" key="64" pos="144"/>
          <note vol="100" pan="0" len="24" key="62" pos="168"/>
          <note vol="68" pan="0" len="24" key="62" pos="192"/>
          <note vol="44" pan="0" len="24" key="62" pos="216"/>
          <note vol="100" pan="0" len="24" key="65" pos="240"/>
          <note vol="100" pan="0" len="24" key="62" pos="264"/>
          <note vol="100" pan="0" len="24" key="64" pos="288"/>
          <note vol="100" pan="0" len="24" key="64" pos="312"/>
          <note vol="100" pan="0" len="24" key="64" pos="336"/>
          <note vol="100" pan="0" len="24" key="62" pos="360"/>
          <note vol="68" pan="0" len="24" key="62" pos="384"/>
          <note vol="44" pan="0" len="24" key="62" pos="408"/>
          <note vol="100" pan="0" len="24" key="65" pos="432"/>
          <note vol="100" pan="0" len="24" key="62" pos="456"/>
          <note vol="100" pan="0" len="24" key="64" pos="480"/>
          <note vol="100" pan="0" len="24" key="64" pos="504"/>
          <note vol="100" pan="0" len="24" key="64" pos="528"/>
          <note vol="100" pan="0" len="24" key="62" pos="552"/>
          <note vol="70" pan="0" len="24" key="62" pos="576"/>
          <note vol="38" pan="0" len="24" key="62" pos="600"/>
          <note vol="100" pan="0" len="24" key="65" pos="624"/>
          <note vol="100" pan="0" len="24" key="62" pos="648"/>
          <note vol="100" pan="0" len="24" key="64" pos="672"/>
          <note vol="100" pan="0" len="24" key="64" pos="696"/>
          <note vol="100" pan="0" len="24" key="64" pos="720"/>
          <note vol="100" pan="0" len="24" key="62" pos="744"/>
          <note vol="72" pan="0" len="24" key="62" pos="768"/>
          <note vol="44" pan="0" len="24" key="62" pos="792"/>
          <note vol="100" pan="0" len="24" key="65" pos="816"/>
          <note vol="100" pan="0" len="24" key="62" pos="840"/>
          <note vol="100" pan="0" len="24" key="64" pos="864"/>
          <note vol="100" pan="0" len="24" key="64" pos="888"/>
          <note vol="100" pan="0" len="24" key="64" pos="912"/>
          <note vol="100" pan="0" len="24" key="62" pos="936"/>
          <note vol="68" pan="0" len="24" key="62" pos="960"/>
          <note vol="44" pan="0" len="24" key="62" pos="984"/>
          <note vol="100" pan="0" len="24" key="65" pos="1008"/>
          <note vol="100" pan="0" len="24" key="62" pos="1032"/>
          <note vol="100" pan="0" len="24" key="64" pos="1056"/>
          <note vol="100" pan="0" len="24" key="64" pos="1080"/>
          <note vol="100" pan="0" len="24" key="64" pos="1104"/>
          <note vol="100" pan="0" len="24" key="62" pos="1128"/>
          <note vol="68" pan="0" len="24" key="62" pos="1152"/>
          <note vol="44" pan="0" len="24" key="62" pos="1176"/>
          <note vol="100" pan="0" len="24" key="65" pos="1200"/>
          <note vol="100" pan="0" len="24" key="62" pos="1224"/>
          <note vol="100" pan="0" len="24" key="64" pos="1248"/>
          <note vol="100" pan="0" len="24" key="64" pos="1272"/>
          <note vol="100" pan="0" len="24" key="64" pos="1296"/>
          <note vol="100" pan="0" len="24" key="62" pos="1320"/>
          <note vol="70" pan="0" len="24" key="62" pos="1344"/>
          <note vol="38" pan="0" len="24" key="62" pos="1368"/>
          <note vol="100" pan="0" len="24" key="65" pos="1392"/>
          <note vol="100" pan="0" len="24" key="62" pos="1416"/>
          <note vol="100" pan="0" len="24" key="64" pos="1440"/>
          <note vol="100" pan="0" len="24" key="64" pos="1464"/>
          <note vol="100" pan="0" len="24" key="64" pos="1488"/>
          <note vol="100" pan="0" len="24" key="62" pos="1512"/>
        </pattern>
        <pattern type="1" steps="16" muted="0" name="" pos="9600">
          <note vol="72" pan="0" len="24" key="62" pos="0"/>
          <note vol="44" pan="0" len="24" key="62" pos="24"/>
          <note vol="100" pan="0" len="24" key="65" pos="48"/>
          <note vol="100" pan="0" len="24" key="62" pos="72"/>
          <note vol="100" pan="0" len="24" key="64" pos="96"/>
          <note vol="100" pan="0" len="24" key="64" pos="120"/>
          <note vol="100" pan="0" len="24" key="64" pos="144"/>
          <note vol="100" pan="0" len="24" key="62" pos="168"/>
          <note vol="68" pan="0" len="24" key="62" pos="192"/>
          <note vol="44" pan="0" len="24" key="62" pos="216"/>
          <note vol="100" pan="0" len="24" key="65" pos="240"/>
          <note vol="100" pan="0" len="24" key="62" pos="264"/>
          <note vol="100" pan="0" len="24" key="64" pos="288"/>
          <note vol="100" pan="0" len="24" key="64" pos="312"/>
          <note vol="100" pan="0" len="24" key="64" pos="336"/>
          <note vol="100" pan="0" len="24" key="62" pos="360"/>
          <note vol="68" pan="0" len="24" key="62" pos="384"/>
          <note vol="44" pan="0" len="24" key="62" pos="408"/>
          <note vol="100" pan="0" len="24" key="65" pos="432"/>
          <note vol="100" pan="0" len="24" key="62" pos="456"/>
          <note vol="100" pan="0" len="24" key="64" pos="480"/>
          <note vol="100" pan="0" len="24" key="64" pos="504"/>
          <note vol="100" pan="0" len="24" key="64" pos="528"/>
          <note vol="100" pan="0" len="24" key="62" pos="552"/>
          <note vol="70" pan="0" len="24" key="62" pos="576"/>
          <note vol="38" pan="0" len="24" key="62" pos="600"/>
          <note vol="100" pan="0" len="24" key="65" pos="624"/>
          <note vol="100" pan="0" len="24" key="62" pos="648"/>
          <note vol="100" pan="0" len="24" key="64" pos="672"/>
          <note vol="100" pan="0" len="24" key="64" pos="696"/>
          <note vol="100" pan="0" len="24" key="64" pos="720"/>
          <note vol="100" pan="0" len="24" key="62" pos="744"/>
          <note vol="72" pan="0" len="24" key="62" pos="768"/>
          <note vol="44" pan="0" len="24" key="62" pos="792"/>
          <note vol="100" pan="0" len="24" key="65" pos="816"/>
          <note vol="100" pan="0" len="24" key="62" pos="840"/>
          <note vol="100" pan="0" len="24" key="64" pos="864"/>
          <note vol="100" pan="0" len="24" key="64" pos="888"/>
          <note vol="100" pan="0" len="24" key="64" pos="912"/>
          <note vol="100" pan="0" len="24" key="62" pos="936"/>
          <note vol="68" pan="0" len="24" key="62" pos="960"/>
          <note vol="44" pan="0" len="24" key="62" pos="984"/>
          <note vol="100" pan="0" len="24" key="65" pos="1008"/>
          <note vol="100" pan="0" len="24" key="62" pos="1032"/>
          <note vol="100" pan="0" len="24" key="64" pos="1056"/>
          <note vol="100" pan="0" len="24" key="64" pos="1080"/>
          <note vol="100" pan="0" len="24" key="64" pos="1104"/>
          <note vol="100" pan="0" len="24" key="62" pos="1128"/>
          <note vol="68" pan="0" len="24" key="62" pos="1152"/>
          <note vol="44" pan="0" len="24" key="62" pos="1176"/>
          <note vol="100" pan="0" len="24" key="65" pos="1200"/>
          <note vol="100" pan="0" len="24" key="62" pos="1224"/>
          <note vol="100" pan="0" len="24" key="64" pos="1248"/>
          <note vol="100" pan="0" len="24" key="64" pos="1272"/>
          <note vol="100" pan="0" len="24" key="64" pos="1296"/>
          <note vol="100" pan="0" len="24" key="62" pos="1320"/>
          <note vol="70" pan="0" len="24" key="62" pos="1344"/>
          <note vol="38" pan="0" len="24" key="62" pos="1368"/>
          <note vol="100" pan="0" len="24" key="65" pos="1392"/>
          <note vol="100" pan="0" len="24" key="62" pos="1416"/>
          <note vol="100" pan="0" len="24" key="64" pos="1440"/>
          <note vol="100" pan="0" len="24" key="64" pos="1464"/>
          <note vol="100" pan="0" len="24" key="64" pos="1488"/>
          <note vol="100" pan="0" len="24" key="62" pos="1512"/>
        </pattern>
      </track>
      <track type="0" solo="0" muted="0" name="Organic">
        <instrumenttrack fxch="0" vol="44.299999" pitchrange="1" pitch="0" pan="0" usemasterpitch="1" basenote="57">
          <instrument name="organic">
            <organic vol4="70" vol7="54" wavetype7="1" newharmonic7="7" pan5="0" vol="100" newdetune6="2" newdetune7="1" pan4="0" pan0="0" vol1="90" vol3="91" newdetune2="0" newharmonic5="5" newdetune3="4" wavetype3="1" wavetype1="2" wavetype5="4" pan7="0" newharmonic2="2" wavetype6="3" pan6="0" newharmonic3="3" wavetype4="4" wavetype0="4" wavetype2="4" vol0="23" foldback="0" vol6="74" newharmonic4="4" newdetune0="-1" num_osc="8" newharmonic0="0" newharmonic6="6" newdetune4="3" vol5="5" pan1="0" vol2="65" newdetune5="-1" newdetune1="0" pan3="0" newharmonic1="1" pan2="0"/>
          </instrument>
          <eldata fwet="0" fcut="14000" ftype="0" fres="0.5">
            <elvol userwavefile="" lspd_numerator="4" att="0.040000003" hold="0" lspd="0.1" amt="1" lpdel="0" pdel="0" lspd_syncmode="0" x100="0" latt="0" sustain="0.42400002" lamt="0" dec="0.42800003" ctlenvamt="0" lshp="0" rel="0.22800002" lspd_denominator="4"/>
            <elcut userwavefile="" lspd_numerator="4" att="0" hold="0.5" lspd="0.1" amt="0" lpdel="0" pdel="0" lspd_syncmode="0" x100="0" latt="0" sustain="0.5" lamt="0" dec="0.5" ctlenvamt="0" lshp="0" rel="0.1" lspd_denominator="4"/>
            <elres userwavefile="" lspd_numerator="4" att="0" hold="0.5" lspd="0.1" amt="0" lpdel="0" pdel="0" lspd_syncmode="0" x100="0" latt="0" sustain="0.5" lamt="0" dec="0.5" ctlenvamt="0" lshp="0" rel="0.1" lspd_denominator="4"/>
          </eldata>
          <chordcreator chord="0" chord-enabled="0" chordrange="1"/>
          <arpeggiator arprange="1" arpcycle="0" arpdir="0" arptime_numerator="4" arp-enabled="0" arpmode="0" arptime_denominator="4" arptime_syncmode="0" arptime="200" arpskip="0" arpmiss="0" arpgate="100" arp="0"/>
          <midiport inputchannel="0" fixedinputvelocity="-1" readable="0" fixedoutputnote="-1" fixedoutputvelocity="-1" outputchannel="1" basevelocity="63" writable="0" inputcontroller="0" outputcontroller="0" outputprogram="1"/>
          <fxchain enabled="1" numofeffects="2">
            <effect autoquit_numerator="4" wet="1" on="1" autoquit_syncmode="0" autoquit="1" name="ladspaeffect" gate="0" autoquit_denominator="4">
              <ladspacontrols link="1" ports="8">
                <port00 link="1">
                  <data value="1" scale_type="log" id="1266510"/>
                </port00>
                <port01 link="1" data="0.63624996"/>
                <port02 link="1" data_syncmode="0" data="251.25" data_denominator="4" data_numerator="4"/>
                <port03 link="1" data_syncmode="0" data="100" data_denominator="4" data_numerator="4"/>
                <port10>
                  <data value="1" scale_type="log" id="2329763"/>
                </port10>
                <port11 data="0.63624996"/>
                <port12 data_syncmode="0" data="251.25" data_denominator="4" data_numerator="4"/>
                <port13 data_syncmode="0" data="100" data_denominator="4" data_numerator="4"/>
              </ladspacontrols>
              <key>
                <attribute value="cmt" name="file"/>
                <attribute value="compress_peak" name="plugin"/>
              </key>
            </effect>
            <effect autoquit_numerator="4" wet="1" on="1" autoquit_syncmode="0" autoquit="1" name="ladspaeffect" gate="0" autoquit_denominator="4">
              <ladspacontrols ports="10">
                <port00 data="10"/>
                <port01 data="0"/>
                <port02 data="8"/>
                <port03 data="0"/>
                <port04 data="0"/>
                <port05 data="0"/>
                <port06 data="0"/>
                <port07 data="0"/>
                <port08 data="1"/>
                <port09 data="0"/>
              </ladspacontrols>
              <key>
                <attribute value="tap_echo" name="file"/>
                <attribute value="tap_stereo_echo" name="plugin"/>
              </key>
            </effect>
          </fxchain>
        </instrumenttrack>
        <pattern type="1" steps="16" muted="0" name="Organic" pos="0">
          <note vol="100" pan="0" len="36" key="38" pos="0"/>
          <note vol="100" pan="0" len="24" key="38" pos="48"/>
          <note vol="100" pan="0" len="36" key="38" pos="192"/>
          <note vol="100" pan="0" len="24" key="38" pos="240"/>
          <note vol="100" pan="0" len="36" key="38" pos="384"/>
          <note vol="100" pan="0" len="24" key="38" pos="432"/>
          <note vol="100" pan="0" len="36" key="40" pos="576"/>
          <note vol="100" pan="0" len="24" key="40" pos="624"/>
        </pattern>
        <pattern type="1" steps="16" muted="0" name="Organic" pos="4608">
          <note vol="44" pan="0" len="24" key="50" pos="0"/>
          <note vol="44" pan="0" len="24" key="50" pos="0"/>
          <note vol="44" pan="0" len="24" key="50" pos="0"/>
          <note vol="44" pan="0" len="24" key="50" pos="0"/>
          <note vol="100" pan="0" len="24" key="50" pos="24"/>
          <note vol="100" pan="0" len="24" key="50" pos="24"/>
          <note vol="100" pan="0" len="24" key="50" pos="24"/>
          <note vol="100" pan="0" len="24" key="50" pos="24"/>
          <note vol="44" pan="0" len="24" key="50" pos="48"/>
          <note vol="44" pan="0" len="24" key="50" pos="48"/>
          <note vol="44" pan="0" len="24" key="50" pos="48"/>
          <note vol="44" pan="0" len="24" key="50" pos="48"/>
          <note vol="100" pan="0" len="24" key="50" pos="72"/>
          <note vol="100" pan="0" len="24" key="50" pos="72"/>
          <note vol="100" pan="0" len="24" key="50" pos="72"/>
          <note vol="100" pan="0" len="24" key="50" pos="72"/>
          <note vol="44" pan="0" len="24" key="50" pos="96"/>
          <note vol="44" pan="0" len="24" key="50" pos="96"/>
          <note vol="44" pan="0" len="24" key="50" pos="96"/>
          <note vol="44" pan="0" len="24" key="50" pos="96"/>
          <note vol="100" pan="0" len="24" key="50" pos="120"/>
          <note vol="100" pan="0" len="24" key="50" pos="120"/>
          <note vol="100" pan="0" len="24" key="50" pos="120"/>
          <note vol="100" pan="0" len="24" key="50" pos="120"/>
          <note vol="44" pan="0" len="24" key="50" pos="144"/>
          <note vol="44" pan="0" len="24" key="50" pos="144"/>
          <note vol="44" pan="0" len="24" key="50" pos="144"/>
          <note vol="44" pan="0" len="24" key="50" pos="144"/>
          <note vol="100" pan="0" len="24" key="50" pos="168"/>
          <note vol="100" pan="0" len="24" key="50" pos="168"/>
          <note vol="100" pan="0" len="24" key="50" pos="168"/>
          <note vol="100" pan="0" len="24" key="50" pos="168"/>
          <note vol="44" pan="0" len="24" key="50" pos="192"/>
          <note vol="44" pan="0" len="24" key="50" pos="192"/>
          <note vol="44" pan="0" len="24" key="50" pos="192"/>
          <note vol="44" pan="0" len="24" key="50" pos="192"/>
          <note vol="100" pan="0" len="24" key="50" pos="216"/>
          <note vol="100" pan="0" len="24" key="50" pos="216"/>
          <note vol="100" pan="0" len="24" key="50" pos="216"/>
          <note vol="100" pan="0" len="24" key="50" pos="216"/>
          <note vol="44" pan="0" len="24" key="50" pos="240"/>
          <note vol="44" pan="0" len="24" key="50" pos="240"/>
          <note vol="44" pan="0" len="24" key="50" pos="240"/>
          <note vol="44" pan="0" len="24" key="50" pos="240"/>
          <note vol="100" pan="0" len="24" key="50" pos="264"/>
          <note vol="100" pan="0" len="24" key="50" pos="264"/>
          <note vol="100" pan="0" len="24" key="50" pos="264"/>
          <note vol="100" pan="0" len="24" key="50" pos="264"/>
          <note vol="44" pan="0" len="24" key="50" pos="288"/>
          <note vol="44" pan="0" len="24" key="50" pos="288"/>
          <note vol="44" pan="0" len="24" key="50" pos="288"/>
          <note vol="44" pan="0" len="24" key="50" pos="288"/>
          <note vol="100" pan="0" len="24" key="50" pos="312"/>
          <note vol="100" pan="0" len="24" key="50" pos="312"/>
          <note vol="100" pan="0" len="24" key="50" pos="312"/>
          <note vol="100" pan="0" len="24" key="50" pos="312"/>
          <note vol="44" pan="0" len="24" key="50" pos="336"/>
          <note vol="44" pan="0" len="24" key="50" pos="336"/>
          <note vol="44" pan="0" len="24" key="50" pos="336"/>
          <note vol="44" pan="0" len="24" key="50" pos="336"/>
          <note vol="100" pan="0" len="24" key="50" pos="360"/>
          <note vol="100" pan="0" len="24" key="50" pos="360"/>
          <note vol="100" pan="0" len="24" key="50" pos="360"/>
          <note vol="100" pan="0" len="24" key="50" pos="360"/>
          <note vol="44" pan="0" len="24" key="50" pos="384"/>
          <note vol="44" pan="0" len="24" key="50" pos="384"/>
          <note vol="44" pan="0" len="24" key="50" pos="384"/>
          <note vol="44" pan="0" len="24" key="50" pos="384"/>
          <note vol="100" pan="0" len="24" key="50" pos="408"/>
          <note vol="100" pan="0" len="24" key="50" pos="408"/>
          <note vol="100" pan="0" len="24" key="50" pos="408"/>
          <note vol="100" pan="0" len="24" key="50" pos="408"/>
          <note vol="44" pan="0" len="24" key="50" pos="432"/>
          <note vol="44" pan="0" len="24" key="50" pos="432"/>
          <note vol="44" pan="0" len="24" key="50" pos="432"/>
          <note vol="44" pan="0" len="24" key="50" pos="432"/>
          <note vol="100" pan="0" len="24" key="50" pos="456"/>
          <note vol="100" pan="0" len="24" key="50" pos="456"/>
          <note vol="100" pan="0" len="24" key="50" pos="456"/>
          <note vol="100" pan="0" len="24" key="50" pos="456"/>
          <note vol="44" pan="0" len="24" key="50" pos="480"/>
          <note vol="44" pan="0" len="24" key="50" pos="480"/>
          <note vol="44" pan="0" len="24" key="50" pos="480"/>
          <note vol="44" pan="0" len="24" key="50" pos="480"/>
          <note vol="100" pan="0" len="24" key="50" pos="504"/>
          <note vol="100" pan="0" len="24" key="50" pos="504"/>
          <note vol="100" pan="0" len="24" key="50" pos="504"/>
          <note vol="100" pan="0" len="24" key="50" pos="504"/>
          <note vol="44" pan="0" len="24" key="50" pos="528"/>
          <note vol="44" pan="0" len="24" key="50" pos="528"/>
          <note vol="44" pan="0" len="24" key="50" pos="528"/>
          <note vol="44" pan="0" len="24" key="50" pos="528"/>
          <note vol="100" pan="0" len="24" key="50" pos="552"/>
          <note vol="100" pan="0" len="24" key="50" pos="552"/>
          <note vol="100" pan="0" len="24" key="50" pos="552"/>
          <note vol="100" pan="0" len="24" key="50" pos="552"/>
          <note vol="44" pan="0" len="24" key="50" pos="576"/>
          <note vol="44" pan="0" len="24" key="50" pos="576"/>
          <note vol="44" pan="0" len="24" key="50" pos="576"/>
          <note vol="44" pan="0" len="24" key="50" pos="576"/>
          <note vol="100" pan="0" len="24" key="50" pos="600"/>
          <note vol="100" pan="0" len="24" key="50" pos="600"/>
          <note vol="100" pan="0" len="24" key="50" pos="600"/>
          <note vol="100" pan="0" len="24" key="50" pos="600"/>
          <note vol="44" pan="0" len="24" key="50" pos="624"/>
          <note vol="44" pan="0" len="24" key="50" pos="624"/>
          <note vol="44" pan="0" len="24" key="50" pos="624"/>
          <note vol="44" pan="0" len="24" key="50" pos="624"/>
          <note vol="100" pan="0" len="24" key="50" pos="648"/>
          <note vol="100" pan="0" len="24" key="50" pos="648"/>
          <note vol="100" pan="0" len="24" key="50" pos="648"/>
          <note vol="100" pan="0" len="24" key="50" pos="648"/>
          <note vol="44" pan="0" len="24" key="50" pos="672"/>
          <note vol="44" pan="0" len="24" key="50" pos="672"/>
          <note vol="44" pan="0" len="24" key="50" pos="672"/>
          <note vol="44" pan="0" len="24" key="50" pos="672"/>
          <note vol="100" pan="0" len="24" key="50" pos="696"/>
          <note vol="100" pan="0" len="24" key="50" pos="696"/>
          <note vol="100" pan="0" len="24" key="50" pos="696"/>
          <note vol="100" pan="0" len="24" key="50" pos="696"/>
          <note vol="44" pan="0" len="24" key="50" pos="720"/>
          <note vol="44" pan="0" len="24" key="50" pos="720"/>
          <note vol="44" pan="0" len="24" key="50" pos="720"/>
          <note vol="44" pan="0" len="24" key="50" pos="720"/>
          <note vol="100" pan="0" len="24" key="50" pos="744"/>
          <note vol="100" pan="0" len="24" key="50" pos="744"/>
          <note vol="100" pan="0" len="24" key="50" pos="744"/>
          <note vol="100" pan="0" len="24" key="50" pos="744"/>
          <note vol="44" pan="0" len="24" key="45" pos="768"/>
          <note vol="44" pan="0" len="24" key="45" pos="768"/>
          <note vol="44" pan="0" len="24" key="45" pos="768"/>
          <note vol="44" pan="0" len="24" key="45" pos="768"/>
          <note vol="100" pan="0" len="24" key="45" pos="792"/>
          <note vol="100" pan="0" len="24" key="45" pos="792"/>
          <note vol="100" pan="0" len="24" key="45" pos="792"/>
          <note vol="100" pan="0" len="24" key="45" pos="792"/>
          <note vol="44" pan="0" len="24" key="45" pos="816"/>
          <note vol="44" pan="0" len="24" key="45" pos="816"/>
          <note vol="44" pan="0" len="24" key="45" pos="816"/>
          <note vol="44" pan="0" len="24" key="45" pos="816"/>
          <note vol="100" pan="0" len="24" key="45" pos="840"/>
          <note vol="100" pan="0" len="24" key="45" pos="840"/>
          <note vol="100" pan="0" len="24" key="45" pos="840"/>
          <note vol="100" pan="0" len="24" key="45" pos="840"/>
          <note vol="44" pan="0" len="24" key="45" pos="864"/>
          <note vol="44" pan="0" len="24" key="45" pos="864"/>
          <note vol="44" pan="0" len="24" key="45" pos="864"/>
          <note vol="44" pan="0" len="24" key="45" pos="864"/>
          <note vol="100" pan="0" len="24" key="45" pos="888"/>
          <note vol="100" pan="0" len="24" key="45" pos="888"/>
          <note vol="100" pan="0" len="24" key="45" pos="888"/>
          <note vol="100" pan="0" len="24" key="45" pos="888"/>
          <note vol="44" pan="0" len="24" key="45" pos="912"/>
          <note vol="44" pan="0" len="24" key="45" pos="912"/>
          <note vol="44" pan="0" len="24" key="45" pos="912"/>
          <note vol="44" pan="0" len="24" key="45" pos="912"/>
          <note vol="100" pan="0" len="24" key="45" pos="936"/>
          <note vol="100" pan="0" len="24" key="45" pos="936"/>
          <note vol="100" pan="0" len="24" key="45" pos="936"/>
          <note vol="100" pan="0" len="24" key="45" pos="936"/>
          <note vol="44" pan="0" len="24" key="45" pos="960"/>
          <note vol="44" pan="0" len="24" key="45" pos="960"/>
          <note vol="44" pan="0" len="24" key="45" pos="960"/>
          <note vol="44" pan="0" len="24" key="45" pos="960"/>
          <note vol="100" pan="0" len="24" key="45" pos="984"/>
          <note vol="100" pan="0" len="24" key="45" pos="984"/>
          <note vol="100" pan="0" len="24" key="45" pos="984"/>
          <note vol="100" pan="0" len="24" key="45" pos="984"/>
          <note vol="44" pan="0" len="24" key="45" pos="1008"/>
          <note vol="44" pan="0" len="24" key="45" pos="1008"/>
          <note vol="44" pan="0" len="24" key="45" pos="1008"/>
          <note vol="44" pan="0" len="24" key="45" pos="1008"/>
          <note vol="100" pan="0" len="24" key="45" pos="1032"/>
          <note vol="100" pan="0" len="24" key="45" pos="1032"/>
          <note vol="100" pan="0" len="24" key="45" pos="1032"/>
          <note vol="100" pan="0" len="24" key="45" pos="1032"/>
          <note vol="44" pan="0" len="24" key="45" pos="1056"/>
          <note vol="44" pan="0" len="24" key="45" pos="1056"/>
          <note vol="44" pan="0" len="24" key="45" pos="1056"/>
          <note vol="44" pan="0" len="24" key="45" pos="1056"/>
          <note vol="100" pan="0" len="24" key="45" pos="1080"/>
          <note vol="100" pan="0" len="24" key="45" pos="1080"/>
          <note vol="100" pan="0" len="24" key="45" pos="1080"/>
          <note vol="100" pan="0" len="24" key="45" pos="1080"/>
          <note vol="44" pan="0" len="24" key="45" pos="1104"/>
          <note vol="44" pan="0" len="24" key="45" pos="1104"/>
          <note vol="44" pan="0" len="24" key="45" pos="1104"/>
          <note vol="44" pan="0" len="24" key="45" pos="1104"/>
          <note vol="100" pan="0" len="24" key="45" pos="1128"/>
          <note vol="100" pan="0" len="24" key="45" pos="1128"/>
          <note vol="100" pan="0" len="24" key="45" pos="1128"/>
          <note vol="100" pan="0" len="24" key="45" pos="1128"/>
          <note vol="44" pan="0" len="24" key="45" pos="1152"/>
          <note vol="44" pan="0" len="24" key="45" pos="1152"/>
          <note vol="44" pan="0" len="24" key="45" pos="1152"/>
          <note vol="44" pan="0" len="24" key="45" pos="1152"/>
          <note vol="100" pan="0" len="24" key="45" pos="1176"/>
          <note vol="100" pan="0" len="24" key="45" pos="1176"/>
          <note vol="100" pan="0" len="24" key="45" pos="1176"/>
          <note vol="100" pan="0" len="24" key="45" pos="1176"/>
          <note vol="44" pan="0" len="24" key="45" pos="1200"/>
          <note vol="44" pan="0" len="24" key="45" pos="1200"/>
          <note vol="44" pan="0" len="24" key="45" pos="1200"/>
          <note vol="44" pan="0" len="24" key="45" pos="1200"/>
          <note vol="100" pan="0" len="24" key="45" pos="1224"/>
          <note vol="100" pan="0" len="24" key="45" pos="1224"/>
          <note vol="100" pan="0" len="24" key="45" pos="1224"/>
          <note vol="100" pan="0" len="24" key="45" pos="1224"/>
          <note vol="44" pan="0" len="24" key="45" pos="1248"/>
          <note vol="44" pan="0" len="24" key="45" pos="1248"/>
          <note vol="44" pan="0" len="24" key="45" pos="1248"/>
          <note vol="44" pan="0" len="24" key="45" pos="1248"/>
          <note vol="100" pan="0" len="24" key="45" pos="1272"/>
          <note vol="100" pan="0" len="24" key="45" pos="1272"/>
          <note vol="100" pan="0" len="24" key="45" pos="1272"/>
          <note vol="100" pan="0" len="24" key="45" pos="1272"/>
          <note vol="44" pan="0" len="24" key="45" pos="1296"/>
          <note vol="44" pan="0" len="24" key="45" pos="1296"/>
          <note vol="44" pan="0" len="24" key="45" pos="1296"/>
          <note vol="44" pan="0" len="24" key="45" pos="1296"/>
          <note vol="100" pan="0" len="24" key="45" pos="1320"/>
          <note vol="100" pan="0" len="24" key="45" pos="1320"/>
          <note vol="100" pan="0" len="24" key="45" pos="1320"/>
          <note vol="100" pan="0" len="24" key="45" pos="1320"/>
          <note vol="44" pan="0" len="24" key="45" pos="1344"/>
          <note vol="44" pan="0" len="24" key="45" pos="1344"/>
          <note vol="44" pan="0" len="24" key="45" pos="1344"/>
          <note vol="44" pan="0" len="24" key="45" pos="1344"/>
          <note vol="100" pan="0" len="24" key="45" pos="1368"/>
          <note vol="100" pan="0" len="24" key="45" pos="1368"/>
          <note vol="100" pan="0" len="24" key="45" pos="1368"/>
          <note vol="100" pan="0" len="24" key="45" pos="1368"/>
          <note vol="44" pan="0" len="24" key="45" pos="1392"/>
          <note vol="44" pan="0" len="24" key="45" pos="1392"/>
          <note vol="44" pan="0" len="24" key="45" pos="1392"/>
          <note vol="44" pan="0" len="24" key="45" pos="1392"/>
          <note vol="100" pan="0" len="24" key="45" pos="1416"/>
          <note vol="100" pan="0" len="24" key="45" pos="1416"/>
          <note vol="100" pan="0" len="24" key="45" pos="1416"/>
          <note vol="100" pan="0" len="24" key="45" pos="1416"/>
          <note vol="44" pan="0" len="24" key="45" pos="1440"/>
          <note vol="44" pan="0" len="24" key="45" pos="1440"/>
          <note vol="44" pan="0" len="24" key="45" pos="1440"/>
          <note vol="44" pan="0" len="24" key="45" pos="1440"/>
          <note vol="100" pan="0" len="24" key="45" pos="1464"/>
          <note vol="100" pan="0" len="24" key="45" pos="1464"/>
          <note vol="100" pan="0" len="24" key="45" pos="1464"/>
          <note vol="100" pan="0" len="24" key="45" pos="1464"/>
          <note vol="44" pan="0" len="24" key="45" pos="1488"/>
          <note vol="44" pan="0" len="24" key="45" pos="1488"/>
          <note vol="44" pan="0" len="24" key="45" pos="1488"/>
          <note vol="44" pan="0" len="24" key="45" pos="1488"/>
          <note vol="100" pan="0" len="24" key="45" pos="1512"/>
          <note vol="100" pan="0" len="24" key="45" pos="1512"/>
          <note vol="100" pan="0" len="24" key="45" pos="1512"/>
          <note vol="100" pan="0" len="24" key="45" pos="1512"/>
        </pattern>
        <pattern type="1" steps="16" muted="0" name="Organic" pos="8064">
          <note vol="106" pan="0" len="24" key="38" pos="0"/>
          <note vol="106" pan="0" len="36" key="38" pos="24"/>
          <note vol="100" pan="0" len="24" key="38" pos="72"/>
          <note vol="100" pan="0" len="24" key="38" pos="120"/>
          <note vol="106" pan="0" len="24" key="38" pos="168"/>
          <note vol="106" pan="0" len="24" key="38" pos="192"/>
          <note vol="106" pan="0" len="36" key="38" pos="216"/>
          <note vol="100" pan="0" len="24" key="38" pos="264"/>
          <note vol="100" pan="0" len="24" key="38" pos="312"/>
          <note vol="106" pan="0" len="24" key="38" pos="360"/>
          <note vol="106" pan="0" len="24" key="38" pos="384"/>
          <note vol="106" pan="0" len="36" key="38" pos="408"/>
          <note vol="100" pan="0" len="24" key="38" pos="456"/>
          <note vol="100" pan="0" len="24" key="38" pos="504"/>
          <note vol="106" pan="0" len="24" key="38" pos="552"/>
          <note vol="106" pan="0" len="24" key="38" pos="576"/>
          <note vol="106" pan="0" len="36" key="38" pos="600"/>
          <note vol="100" pan="0" len="24" key="38" pos="648"/>
          <note vol="100" pan="0" len="24" key="38" pos="696"/>
          <note vol="106" pan="0" len="24" key="38" pos="744"/>
          <note vol="106" pan="0" len="24" key="38" pos="768"/>
          <note vol="106" pan="0" len="36" key="38" pos="792"/>
          <note vol="100" pan="0" len="24" key="38" pos="840"/>
          <note vol="100" pan="0" len="24" key="38" pos="888"/>
          <note vol="106" pan="0" len="24" key="38" pos="936"/>
          <note vol="106" pan="0" len="24" key="38" pos="960"/>
          <note vol="106" pan="0" len="36" key="38" pos="984"/>
          <note vol="100" pan="0" len="24" key="38" pos="1032"/>
          <note vol="100" pan="0" len="24" key="38" pos="1080"/>
          <note vol="106" pan="0" len="24" key="38" pos="1128"/>
          <note vol="106" pan="0" len="24" key="38" pos="1152"/>
          <note vol="106" pan="0" len="36" key="38" pos="1176"/>
          <note vol="100" pan="0" len="24" key="38" pos="1224"/>
          <note vol="100" pan="0" len="24" key="38" pos="1272"/>
          <note vol="106" pan="0" len="24" key="38" pos="1320"/>
          <note vol="106" pan="0" len="24" key="38" pos="1344"/>
          <note vol="106" pan="0" len="36" key="38" pos="1368"/>
          <note vol="100" pan="0" len="24" key="38" pos="1416"/>
          <note vol="100" pan="0" len="24" key="38" pos="1464"/>
          <note vol="106" pan="0" len="24" key="38" pos="1512"/>
        </pattern>
        <pattern type="1" steps="16" muted="0" name="" pos="6144">
          <note vol="44" pan="0" len="24" key="50" pos="0"/>
          <note vol="44" pan="0" len="24" key="50" pos="0"/>
          <note vol="44" pan="0" len="24" key="50" pos="0"/>
          <note vol="44" pan="0" len="24" key="50" pos="0"/>
          <note vol="100" pan="0" len="24" key="50" pos="24"/>
          <note vol="100" pan="0" len="24" key="50" pos="24"/>
          <note vol="100" pan="0" len="24" key="50" pos="24"/>
          <note vol="100" pan="0" len="24" key="50" pos="24"/>
          <note vol="44" pan="0" len="24" key="50" pos="48"/>
          <note vol="44" pan="0" len="24" key="50" pos="48"/>
          <note vol="44" pan="0" len="24" key="50" pos="48"/>
          <note vol="44" pan="0" len="24" key="50" pos="48"/>
          <note vol="100" pan="0" len="24" key="50" pos="72"/>
          <note vol="100" pan="0" len="24" key="50" pos="72"/>
          <note vol="100" pan="0" len="24" key="50" pos="72"/>
          <note vol="100" pan="0" len="24" key="50" pos="72"/>
          <note vol="44" pan="0" len="24" key="50" pos="96"/>
          <note vol="44" pan="0" len="24" key="50" pos="96"/>
          <note vol="44" pan="0" len="24" key="50" pos="96"/>
          <note vol="44" pan="0" len="24" key="50" pos="96"/>
          <note vol="100" pan="0" len="24" key="50" pos="120"/>
          <note vol="100" pan="0" len="24" key="50" pos="120"/>
          <note vol="100" pan="0" len="24" key="50" pos="120"/>
          <note vol="100" pan="0" len="24" key="50" pos="120"/>
          <note vol="44" pan="0" len="24" key="50" pos="144"/>
          <note vol="44" pan="0" len="24" key="50" pos="144"/>
          <note vol="44" pan="0" len="24" key="50" pos="144"/>
          <note vol="44" pan="0" len="24" key="50" pos="144"/>
          <note vol="100" pan="0" len="24" key="50" pos="168"/>
          <note vol="100" pan="0" len="24" key="50" pos="168"/>
          <note vol="100" pan="0" len="24" key="50" pos="168"/>
          <note vol="100" pan="0" len="24" key="50" pos="168"/>
          <note vol="44" pan="0" len="24" key="50" pos="192"/>
          <note vol="44" pan="0" len="24" key="50" pos="192"/>
          <note vol="44" pan="0" len="24" key="50" pos="192"/>
          <note vol="44" pan="0" len="24" key="50" pos="192"/>
          <note vol="100" pan="0" len="24" key="50" pos="216"/>
          <note vol="100" pan="0" len="24" key="50" pos="216"/>
          <note vol="100" pan="0" len="24" key="50" pos="216"/>
          <note vol="100" pan="0" len="24" key="50" pos="216"/>
          <note vol="44" pan="0" len="24" key="50" pos="240"/>
          <note vol="44" pan="0" len="24" key="50" pos="240"/>
          <note vol="44" pan="0" len="24" key="50" pos="240"/>
          <note vol="44" pan="0" len="24" key="50" pos="240"/>
          <note vol="100" pan="0" len="24" key="50" pos="264"/>
          <note vol="100" pan="0" len="24" key="50" pos="264"/>
          <note vol="100" pan="0" len="24" key="50" pos="264"/>
          <note vol="100" pan="0" len="24" key="50" pos="264"/>
          <note vol="44" pan="0" len="24" key="50" pos="288"/>
          <note vol="44" pan="0" len="24" key="50" pos="288"/>
          <note vol="44" pan="0" len="24" key="50" pos="288"/>
          <note vol="44" pan="0" len="24" key="50" pos="288"/>
          <note vol="100" pan="0" len="24" key="50" pos="312"/>
          <note vol="100" pan="0" len="24" key="50" pos="312"/>
          <note vol="100" pan="0" len="24" key="50" pos="312"/>
          <note vol="100" pan="0" len="24" key="50" pos="312"/>
          <note vol="44" pan="0" len="24" key="50" pos="336"/>
          <note vol="44" pan="0" len="24" key="50" pos="336"/>
          <note vol="44" pan="0" len="24" key="50" pos="336"/>
          <note vol="44" pan="0" len="24" key="50" pos="336"/>
          <note vol="100" pan="0" len="24" key="50" pos="360"/>
          <note vol="100" pan="0" len="24" key="50" pos="360"/>
          <note vol="100" pan="0" len="24" key="50" pos="360"/>
          <note vol="100" pan="0" len="24" key="50" pos="360"/>
          <note vol="44" pan="0" len="24" key="50" pos="384"/>
          <note vol="44" pan="0" len="24" key="50" pos="384"/>
          <note vol="44" pan="0" len="24" key="50" pos="384"/>
          <note vol="44" pan="0" len="24" key="50" pos="384"/>
          <note vol="100" pan="0" len="24" key="50" pos="408"/>
          <note vol="100" pan="0" len="24" key="50" pos="408"/>
          <note vol="100" pan="0" len="24" key="50" pos="408"/>
          <note vol="100" pan="0" len="24" key="50" pos="408"/>
          <note vol="44" pan="0" len="24" key="50" pos="432"/>
          <note vol="44" pan="0" len="24" key="50" pos="432"/>
          <note vol="44" pan="0" len="24" key="50" pos="432"/>
          <note vol="44" pan="0" len="24" key="50" pos="432"/>
          <note vol="100" pan="0" len="24" key="50" pos="456"/>
          <note vol="100" pan="0" len="24" key="50" pos="456"/>
          <note vol="100" pan="0" len="24" key="50" pos="456"/>
          <note vol="100" pan="0" len="24" key="50" pos="456"/>
          <note vol="44" pan="0" len="24" key="50" pos="480"/>
          <note vol="44" pan="0" len="24" key="50" pos="480"/>
          <note vol="44" pan="0" len="24" key="50" pos="480"/>
          <note vol="44" pan="0" len="24" key="50" pos="480"/>
          <note vol="100" pan="0" len="24" key="50" pos="504"/>
          <note vol="100" pan="0" len="24" key="50" pos="504"/>
          <note vol="100" pan="0" len="24" key="50" pos="504"/>
          <note vol="100" pan="0" len="24" key="50" pos="504"/>
          <note vol="44" pan="0" len="24" key="50" pos="528"/>
          <note vol="44" pan="0" len="24" key="50" pos="528"/>
          <note vol="44" pan="0" len="24" key="50" pos="528"/>
          <note vol="44" pan="0" len="24" key="50" pos="528"/>
          <note vol="100" pan="0" len="24" key="50" pos="552"/>
          <note vol="100" pan="0" len="24" key="50" pos="552"/>
          <note vol="100" pan="0" len="24" key="50" pos="552"/>
          <note vol="100" pan="0" len="24" key="50" pos="552"/>
          <note vol="44" pan="0" len="24" key="50" pos="576"/>
          <note vol="44" pan="0" len="24" key="50" pos="576"/>
          <note vol="44" pan="0" len="24" key="50" pos="576"/>
          <note vol="44" pan="0" len="24" key="50" pos="576"/>
          <note vol="100" pan="0" len="24" key="50" pos="600"/>
          <note vol="100" pan="0" len="24" key="50" pos="600"/>
          <note vol="100" pan="0" len="24" key="50" pos="600"/>
          <note vol="100" pan="0" len="24" key="50" pos="600"/>
          <note vol="44" pan="0" len="24" key="50" pos="624"/>
          <note vol="44" pan="0" len="24" key="50" pos="624"/>
          <note vol="44" pan="0" len="24" key="50" pos="624"/>
          <note vol="44" pan="0" len="24" key="50" pos="624"/>
          <note vol="100" pan="0" len="24" key="50" pos="648"/>
          <note vol="100" pan="0" len="24" key="50" pos="648"/>
          <note vol="100" pan="0" len="24" key="50" pos="648"/>
          <note vol="100" pan="0" len="24" key="50" pos="648"/>
          <note vol="44" pan="0" len="24" key="50" pos="672"/>
          <note vol="44" pan="0" len="24" key="50" pos="672"/>
          <note vol="44" pan="0" len="24" key="50" pos="672"/>
          <note vol="44" pan="0" len="24" key="50" pos="672"/>
          <note vol="100" pan="0" len="24" key="50" pos="696"/>
          <note vol="100" pan="0" len="24" key="50" pos="696"/>
          <note vol="100" pan="0" len="24" key="50" pos="696"/>
          <note vol="100" pan="0" len="24" key="50" pos="696"/>
          <note vol="44" pan="0" len="24" key="50" pos="720"/>
          <note vol="44" pan="0" len="24" key="50" pos="720"/>
          <note vol="44" pan="0" len="24" key="50" pos="720"/>
          <note vol="44" pan="0" len="24" key="50" pos="720"/>
          <note vol="100" pan="0" len="24" key="50" pos="744"/>
          <note vol="100" pan="0" len="24" key="50" pos="744"/>
          <note vol="100" pan="0" len="24" key="50" pos="744"/>
          <note vol="100" pan="0" len="24" key="50" pos="744"/>
          <note vol="44" pan="0" len="24" key="45" pos="768"/>
          <note vol="44" pan="0" len="24" key="45" pos="768"/>
          <note vol="44" pan="0" len="24" key="45" pos="768"/>
          <note vol="44" pan="0" len="24" key="45" pos="768"/>
          <note vol="100" pan="0" len="24" key="45" pos="792"/>
          <note vol="100" pan="0" len="24" key="45" pos="792"/>
          <note vol="100" pan="0" len="24" key="45" pos="792"/>
          <note vol="100" pan="0" len="24" key="45" pos="792"/>
          <note vol="44" pan="0" len="24" key="45" pos="816"/>
          <note vol="44" pan="0" len="24" key="45" pos="816"/>
          <note vol="44" pan="0" len="24" key="45" pos="816"/>
          <note vol="44" pan="0" len="24" key="45" pos="816"/>
          <note vol="100" pan="0" len="24" key="45" pos="840"/>
          <note vol="100" pan="0" len="24" key="45" pos="840"/>
          <note vol="100" pan="0" len="24" key="45" pos="840"/>
          <note vol="100" pan="0" len="24" key="45" pos="840"/>
          <note vol="44" pan="0" len="24" key="45" pos="864"/>
          <note vol="44" pan="0" len="24" key="45" pos="864"/>
          <note vol="44" pan="0" len="24" key="45" pos="864"/>
          <note vol="44" pan="0" len="24" key="45" pos="864"/>
          <note vol="100" pan="0" len="24" key="45" pos="888"/>
          <note vol="100" pan="0" len="24" key="45" pos="888"/>
          <note vol="100" pan="0" len="24" key="45" pos="888"/>
          <note vol="100" pan="0" len="24" key="45" pos="888"/>
          <note vol="44" pan="0" len="24" key="45" pos="912"/>
          <note vol="44" pan="0" len="24" key="45" pos="912"/>
          <note vol="44" pan="0" len="24" key="45" pos="912"/>
          <note vol="44" pan="0" len="24" key="45" pos="912"/>
          <note vol="100" pan="0" len="24" key="45" pos="936"/>
          <note vol="100" pan="0" len="24" key="45" pos="936"/>
          <note vol="100" pan="0" len="24" key="45" pos="936"/>
          <note vol="100" pan="0" len="24" key="45" pos="936"/>
          <note vol="44" pan="0" len="24" key="45" pos="960"/>
          <note vol="44" pan="0" len="24" key="45" pos="960"/>
          <note vol="44" pan="0" len="24" key="45" pos="960"/>
          <note vol="44" pan="0" len="24" key="45" pos="960"/>
          <note vol="100" pan="0" len="24" key="45" pos="984"/>
          <note vol="100" pan="0" len="24" key="45" pos="984"/>
          <note vol="100" pan="0" len="24" key="45" pos="984"/>
          <note vol="100" pan="0" len="24" key="45" pos="984"/>
          <note vol="44" pan="0" len="24" key="45" pos="1008"/>
          <note vol="44" pan="0" len="24" key="45" pos="1008"/>
          <note vol="44" pan="0" len="24" key="45" pos="1008"/>
          <note vol="44" pan="0" len="24" key="45" pos="1008"/>
          <note vol="100" pan="0" len="24" key="45" pos="1032"/>
          <note vol="100" pan="0" len="24" key="45" pos="1032"/>
          <note vol="100" pan="0" len="24" key="45" pos="1032"/>
          <note vol="100" pan="0" len="24" key="45" pos="1032"/>
          <note vol="44" pan="0" len="24" key="45" pos="1056"/>
          <note vol="44" pan="0" len="24" key="45" pos="1056"/>
          <note vol="44" pan="0" len="24" key="45" pos="1056"/>
          <note vol="44" pan="0" len="24" key="45" pos="1056"/>
          <note vol="100" pan="0" len="24" key="45" pos="1080"/>
          <note vol="100" pan="0" len="24" key="45" pos="1080"/>
          <note vol="100" pan="0" len="24" key="45" pos="1080"/>
          <note vol="100" pan="0" len="24" key="45" pos="1080"/>
          <note vol="44" pan="0" len="24" key="45" pos="1104"/>
          <note vol="44" pan="0" len="24" key="45" pos="1104"/>
          <note vol="44" pan="0" len="24" key="45" pos="1104"/>
          <note vol="44" pan="0" len="24" key="45" pos="1104"/>
          <note vol="100" pan="0" len="24" key="45" pos="1128"/>
          <note vol="100" pan="0" len="24" key="45" pos="1128"/>
          <note vol="100" pan="0" len="24" key="45" pos="1128"/>
          <note vol="100" pan="0" len="24" key="45" pos="1128"/>
          <note vol="44" pan="0" len="24" key="45" pos="1152"/>
          <note vol="44" pan="0" len="24" key="45" pos="1152"/>
          <note vol="44" pan="0" len="24" key="45" pos="1152"/>
          <note vol="44" pan="0" len="24" key="45" pos="1152"/>
          <note vol="100" pan="0" len="24" key="45" pos="1176"/>
          <note vol="100" pan="0" len="24" key="45" pos="1176"/>
          <note vol="100" pan="0" len="24" key="45" pos="1176"/>
          <note vol="100" pan="0" len="24" key="45" pos="1176"/>
          <note vol="44" pan="0" len="24" key="45" pos="1200"/>
          <note vol="44" pan="0" len="24" key="45" pos="1200"/>
          <note vol="44" pan="0" len="24" key="45" pos="1200"/>
          <note vol="44" pan="0" len="24" key="45" pos="1200"/>
          <note vol="100" pan="0" len="24" key="45" pos="1224"/>
          <note vol="100" pan="0" len="24" key="45" pos="1224"/>
          <note vol="100" pan="0" len="24" key="45" pos="1224"/>
          <note vol="100" pan="0" len="24" key="45" pos="1224"/>
          <note vol="44" pan="0" len="24" key="45" pos="1248"/>
          <note vol="44" pan="0" len="24" key="45" pos="1248"/>
          <note vol="44" pan="0" len="24" key="45" pos="1248"/>
          <note vol="44" pan="0" len="24" key="45" pos="1248"/>
          <note vol="100" pan="0" len="24" key="45" pos="1272"/>
          <note vol="100" pan="0" len="24" key="45" pos="1272"/>
          <note vol="100" pan="0" len="24" key="45" pos="1272"/>
          <note vol="100" pan="0" len="24" key="45" pos="1272"/>
          <note vol="44" pan="0" len="24" key="45" pos="1296"/>
          <note vol="44" pan="0" len="24" key="45" pos="1296"/>
          <note vol="44" pan="0" len="24" key="45" pos="1296"/>
          <note vol="44" pan="0" len="24" key="45" pos="1296"/>
          <note vol="100" pan="0" len="24" key="45" pos="1320"/>
          <note vol="100" pan="0" len="24" key="45" pos="1320"/>
          <note vol="100" pan="0" len="24" key="45" pos="1320"/>
          <note vol="100" pan="0" len="24" key="45" pos="1320"/>
          <note vol="44" pan="0" len="24" key="45" pos="1344"/>
          <note vol="44" pan="0" len="24" key="45" pos="1344"/>
          <note vol="44" pan="0" len="24" key="45" pos="1344"/>
          <note vol="44" pan="0" len="24" key="45" pos="1344"/>
          <note vol="100" pan="0" len="24" key="45" pos="1368"/>
          <note vol="100" pan="0" len="24" key="45" pos="1368"/>
          <note vol="100" pan="0" len="24" key="45" pos="1368"/>
          <note vol="100" pan="0" len="24" key="45" pos="1368"/>
          <note vol="44" pan="0" len="24" key="45" pos="1392"/>
          <note vol="44" pan="0" len="24" key="45" pos="1392"/>
          <note vol="44" pan="0" len="24" key="45" pos="1392"/>
          <note vol="44" pan="0" len="24" key="45" pos="1392"/>
          <note vol="100" pan="0" len="24" key="45" pos="1416"/>
          <note vol="100" pan="0" len="24" key="45" pos="1416"/>
          <note vol="100" pan="0" len="24" key="45" pos="1416"/>
          <note vol="100" pan="0" len="24" key="45" pos="1416"/>
          <note vol="44" pan="0" len="24" key="45" pos="1440"/>
          <note vol="44" pan="0" len="24" key="45" pos="1440"/>
          <note vol="44" pan="0" len="24" key="45" pos="1440"/>
          <note vol="44" pan="0" len="24" key="45" pos="1440"/>
          <note vol="100" pan="0" len="24" key="45" pos="1464"/>
          <note vol="100" pan="0" len="24" key="45" pos="1464"/>
          <note vol="100" pan="0" len="24" key="45" pos="1464"/>
          <note vol="100" pan="0" len="24" key="45" pos="1464"/>
          <note vol="44" pan="0" len="24" key="45" pos="1488"/>
          <note vol="44" pan="0" len="24" key="45" pos="1488"/>
          <note vol="44" pan="0" len="24" key="45" pos="1488"/>
          <note vol="44" pan="0" len="24" key="45" pos="1488"/>
          <note vol="100" pan="0" len="24" key="45" pos="1512"/>
          <note vol="100" pan="0" len="24" key="45" pos="1512"/>
          <note vol="100" pan="0" len="24" key="45" pos="1512"/>
          <note vol="100" pan="0" len="24" key="45" pos="1512"/>
        </pattern>
        <pattern type="1" steps="16" muted="0" name="" pos="7680">
          <note vol="106" pan="10" len="384" key="62" pos="0"/>
        </pattern>
        <pattern type="1" steps="16" muted="0" name="" pos="768">
          <note vol="106" pan="0" len="24" key="38" pos="0"/>
          <note vol="106" pan="0" len="36" key="38" pos="24"/>
          <note vol="100" pan="0" len="24" key="38" pos="72"/>
          <note vol="100" pan="0" len="24" key="38" pos="120"/>
          <note vol="106" pan="0" len="24" key="38" pos="168"/>
          <note vol="106" pan="0" len="24" key="38" pos="192"/>
          <note vol="106" pan="0" len="36" key="38" pos="216"/>
          <note vol="100" pan="0" len="24" key="38" pos="264"/>
          <note vol="100" pan="0" len="24" key="38" pos="312"/>
          <note vol="106" pan="0" len="24" key="38" pos="360"/>
          <note vol="106" pan="0" len="24" key="38" pos="384"/>
          <note vol="106" pan="0" len="36" key="38" pos="408"/>
          <note vol="100" pan="0" len="24" key="38" pos="456"/>
          <note vol="100" pan="0" len="24" key="38" pos="504"/>
          <note vol="106" pan="0" len="24" key="38" pos="552"/>
          <note vol="106" pan="0" len="24" key="38" pos="576"/>
          <note vol="106" pan="0" len="36" key="38" pos="600"/>
          <note vol="100" pan="0" len="24" key="38" pos="648"/>
          <note vol="100" pan="0" len="24" key="38" pos="696"/>
          <note vol="106" pan="0" len="24" key="38" pos="744"/>
          <note vol="106" pan="0" len="24" key="38" pos="768"/>
          <note vol="106" pan="0" len="36" key="38" pos="792"/>
          <note vol="100" pan="0" len="24" key="38" pos="840"/>
          <note vol="100" pan="0" len="24" key="38" pos="888"/>
          <note vol="106" pan="0" len="24" key="38" pos="936"/>
          <note vol="106" pan="0" len="24" key="38" pos="960"/>
          <note vol="106" pan="0" len="36" key="38" pos="984"/>
          <note vol="100" pan="0" len="24" key="38" pos="1032"/>
          <note vol="100" pan="0" len="24" key="38" pos="1080"/>
          <note vol="106" pan="0" len="24" key="38" pos="1128"/>
          <note vol="106" pan="0" len="24" key="38" pos="1152"/>
          <note vol="106" pan="0" len="36" key="38" pos="1176"/>
          <note vol="100" pan="0" len="24" key="38" pos="1224"/>
          <note vol="100" pan="0" len="24" key="38" pos="1272"/>
          <note vol="106" pan="0" len="24" key="38" pos="1320"/>
          <note vol="106" pan="0" len="24" key="38" pos="1344"/>
          <note vol="106" pan="0" len="36" key="38" pos="1368"/>
          <note vol="100" pan="0" len="24" key="38" pos="1416"/>
          <note vol="100" pan="0" len="24" key="38" pos="1464"/>
          <note vol="106" pan="0" len="24" key="38" pos="1512"/>
        </pattern>
        <pattern type="1" steps="16" muted="0" name="" pos="9600">
          <note vol="106" pan="0" len="24" key="38" pos="0"/>
          <note vol="106" pan="0" len="36" key="38" pos="24"/>
          <note vol="100" pan="0" len="24" key="38" pos="72"/>
          <note vol="100" pan="0" len="24" key="38" pos="120"/>
          <note vol="106" pan="0" len="24" key="38" pos="168"/>
          <note vol="106" pan="0" len="24" key="38" pos="192"/>
          <note vol="106" pan="0" len="36" key="38" pos="216"/>
          <note vol="100" pan="0" len="24" key="38" pos="264"/>
          <note vol="100" pan="0" len="24" key="38" pos="312"/>
          <note vol="106" pan="0" len="24" key="38" pos="360"/>
          <note vol="106" pan="0" len="24" key="38" pos="384"/>
          <note vol="106" pan="0" len="36" key="38" pos="408"/>
          <note vol="100" pan="0" len="24" key="38" pos="456"/>
          <note vol="100" pan="0" len="24" key="38" pos="504"/>
          <note vol="106" pan="0" len="24" key="38" pos="552"/>
          <note vol="106" pan="0" len="24" key="38" pos="576"/>
          <note vol="106" pan="0" len="36" key="38" pos="600"/>
          <note vol="100" pan="0" len="24" key="38" pos="648"/>
          <note vol="100" pan="0" len="24" key="38" pos="696"/>
          <note vol="106" pan="0" len="24" key="38" pos="744"/>
          <note vol="106" pan="0" len="24" key="38" pos="768"/>
          <note vol="106" pan="0" len="36" key="38" pos="792"/>
          <note vol="100" pan="0" len="24" key="38" pos="840"/>
          <note vol="100" pan="0" len="24" key="38" pos="888"/>
          <note vol="106" pan="0" len="24" key="38" pos="936"/>
          <note vol="106" pan="0" len="24" key="38" pos="960"/>
          <note vol="106" pan="0" len="36" key="38" pos="984"/>
          <note vol="100" pan="0" len="24" key="38" pos="1032"/>
          <note vol="100" pan="0" len="24" key="38" pos="1080"/>
          <note vol="106" pan="0" len="24" key="38" pos="1128"/>
          <note vol="106" pan="0" len="24" key="38" pos="1152"/>
          <note vol="106" pan="0" len="36" key="38" pos="1176"/>
          <note vol="100" pan="0" len="24" key="38" pos="1224"/>
          <note vol="100" pan="0" len="24" key="38" pos="1272"/>
          <note vol="106" pan="0" len="24" key="38" pos="1320"/>
          <note vol="106" pan="0" len="24" key="38" pos="1344"/>
          <note vol="106" pan="0" len="36" key="38" pos="1368"/>
          <note vol="100" pan="0" len="24" key="38" pos="1416"/>
          <note vol="100" pan="0" len="24" key="38" pos="1464"/>
          <note vol="106" pan="0" len="24" key="38" pos="1512"/>
        </pattern>
      </track>
      <track type="1" solo="0" muted="0" name="Beat/Bassline 0">
        <bbtrack>
          <trackcontainer minimized="0" type="bbtrackcontainer" height="300" visible="0" maximized="0" width="700" y="11" x="839">
            <track type="0" solo="0" muted="0" name="Carla Rack">
              <instrumenttrack fxch="0" vol="73.599998" pitchrange="1" pitch="0" pan="0" usemasterpitch="1" basenote="57">
                <instrument name="carlarack">
                  <carlarack>
                    <CARLA-PROJECT VERSION="2.4">
                      <EngineSettings>
                        <ForceStereo>false</ForceStereo>
                        <PreferPluginBridges>false</PreferPluginBridges>
                        <PreferUiBridges>true</PreferUiBridges>
                        <UIsAlwaysOnTop>false</UIsAlwaysOnTop>
                        <MaxParameters>200</MaxParameters>
                        <UIBridgesTimeout>4000</UIBridgesTimeout>
                        <LADSPA_PATH>/app/extensions/Plugins/ladspa:/app/lib/ladspa</LADSPA_PATH>
                        <DSSI_PATH>/app/extensions/Plugins/dssi</DSSI_PATH>
                        <LV2_PATH>/var/home/pastthepixels/.lv2:/app/extensions/Plugins/lv2:/app/lib/lv2</LV2_PATH>
                        <VST2_PATH>/app/extensions/Plugins/vst</VST2_PATH>
                        <VST3_PATH>/app/extensions/Plugins/vst3</VST3_PATH>
                        <SF2_PATH>/var/home/pastthepixels/.sounds/sf2:/var/home/pastthepixels/.sounds/sf3:/usr/share/sounds/sf2:/usr/share/sounds/sf3:/usr/share/soundfonts</SF2_PATH>
                        <SFZ_PATH>/var/home/pastthepixels/.sounds/sfz:/usr/share/sounds/sfz</SFZ_PATH>
                        <JSFX_PATH/>
                      </EngineSettings>
                      <!-- Geonkick -->
                      <Plugin>
                        <Info>
                          <Type>LV2</Type>
                          <Name>Geonkick</Name>
                          <URI>http://geontime.com/geonkick</URI>
                        </Info>
                        <Data>
                          <Active>Yes</Active>
                          <ControlChannel>1</ControlChannel>
                          <Options>0x3f0</Options>
                          <CustomData>
                            <Type>http://lv2plug.in/ns/ext/atom#Chunk</Type>
                            <Key>http://geontime.com/geonkick#state</Key>
                            <Value>
eyJVaVNldHRpbmdzIjogCnsKIk1haW5WaWV3IjogMCwgCiJTYW1wbGVzQnJvd3NlciI6IHsgCiAgICAiY3VycmVudERpcmVjdG9yeSI6ICIvdmFyL2hvbWUvcGFzdHRoZXBpeGVscy8udmFyL2FwcC9pby5sbW1zLkxNTVMvZGF0YSIsCiAgICAicHJldmlld0ZpbGUiOiAiIiwKICAgICJwcmV2aWV3TGltaXRlciI6IDAuMDAwMDAsCiAgICAib3NjaWxsYXRvciI6IDAKfSwKInNldHRpbmdzIjogWwpbIkdFT05LSUNLX0NPTkZJRy9VU0VSX1BSRVNFVFNfUEFUSCIsICIvdmFyL2hvbWUvcGFzdHRoZXBpeGVscy8udmFyL2FwcC9pby5sbW1zLkxNTVMvZGF0YS9nZW9ua2ljay9wcmVzZXRzIl0sIFsiR0VPTktJQ0tfQ09ORklHL1VTRVJfREFUQV9QQVRIIiwgIi92YXIvaG9tZS9wYXN0dGhlcGl4ZWxzLy52YXIvYXBwL2lvLmxtbXMuTE1NUy9kYXRhL2dlb25raWNrIl0sIFsiR0VPTktJQ0tfQ09ORklHL0hPTUVfUEFUSCIsICIvdmFyL2hvbWUvcGFzdHRoZXBpeGVscy8udmFyL2FwcC9pby5sbW1zLkxNTVMvZGF0YSJdXQp9CiwgCiJLaXRTdGF0ZSI6IAp7CiJLaXRBcHBWZXJzaW9uIjogMTMzMzc3LAoibmFtZSI6ICJEZWZhdWx0IiwKImF1dGhvciI6ICJVbmtub3duIiwKInVybCI6ICIiLAoicGVyY3Vzc2lvbnMiOiBbCnsKIm9zYzgiOiB7CiJlbmFibGVkIjogZmFsc2UsIAoiaXNfZm0iOiBmYWxzZSwgCiJmdW5jdGlvbiI6IDQsCiJwaGFzZSI6IDAuMDAwMDAsIAoic2VlZCI6IDEwMCwgCiJhbXBsX2VudiI6IHsKImFtcGxpdHVkZSI6IDAuMjYwMDAsIAoicG9pbnRzIjogWwpbIDAuMDAwMDAgLCAxLjAwMDAwXSwgWyAxLjAwMDAwICwgMS4wMDAwMF1dCn0KLAoiZnJlcV9lbnYiOiB7CiJhbXBsaXR1ZGUiOiAxNTAuMDAwMDAsIAoicG9pbnRzIjogWwpdCn0KLAoicGl0Y2hzaGlmdF9lbnYiOiB7CiJhbXBsaXR1ZGUiOiAwLjAwMDAwLCAKInBvaW50cyI6IFsKXQp9CiwKImZpbHRlciI6IHsKImVuYWJsZWQiOiBmYWxzZSwgCiJ0eXBlIjogMCwgCiJjdXRvZmYiOiA4MDAuMDAwMDAsIAoiY3V0b2ZmX2VudiI6IFtbIDAuMDAwMDAgLCAxLjAwMDAwXSwgWyAxLjAwMDAwICwgMS4wMDAwMF1dLCAKImZhY3RvciI6IDEwLjAwMDAwCn0KfQosCiJvc2M3IjogewoiZW5hYmxlZCI6IGZhbHNlLCAKImlzX2ZtIjogZmFsc2UsIAoiZnVuY3Rpb24iOiAwLAoicGhhc2UiOiAwLjAwMDAwLCAKInNlZWQiOiAwLCAKImFtcGxfZW52IjogewoiYW1wbGl0dWRlIjogMC4yNjAwMCwgCiJwb2ludHMiOiBbClsgMC4wMDAwMCAsIDEuMDAwMDBdLCBbIDEuMDAwMDAgLCAxLjAwMDAwXV0KfQosCiJmcmVxX2VudiI6IHsKImFtcGxpdHVkZSI6IDgwMC4wMDAwMCwgCiJwb2ludHMiOiBbClsgMC4wMDAwMCAsIDEuMDAwMDBdLCBbIDEuMDAwMDAgLCAxLjAwMDAwXV0KfQosCiJwaXRjaHNoaWZ0X2VudiI6IHsKImFtcGxpdHVkZSI6IDEyLjAwMDAwLCAKInBvaW50cyI6IFsKWyAwLjAwMDAwICwgMC41MDAwMF0sIFsgMS4wMDAwMCAsIDAuNTAwMDBdXQp9CiwKImZpbHRlciI6IHsKImVuYWJsZWQiOiBmYWxzZSwgCiJ0eXBlIjogMCwgCiJjdXRvZmYiOiA4MDAuMDAwMDAsIAoiY3V0b2ZmX2VudiI6IFtbIDAuMDAwMDAgLCAxLjAwMDAwXSwgWyAxLjAwMDAwICwgMS4wMDAwMF1dLCAKImZhY3RvciI6IDEwLjAwMDAwCn0KfQosCiJvc2M2IjogewoiZW5hYmxlZCI6IHRydWUsIAoiaXNfZm0iOiBmYWxzZSwgCiJmdW5jdGlvbiI6IDAsCiJwaGFzZSI6IDAuMDAwMDAsIAoic2VlZCI6IDAsIAoiYW1wbF9lbnYiOiB7CiJhbXBsaXR1ZGUiOiAwLjI2MDAwLCAKInBvaW50cyI6IFsKWyAwLjAwMDAwICwgMS4wMDAwMF0sIFsgMS4wMDAwMCAsIDEuMDAwMDBdXQp9CiwKImZyZXFfZW52IjogewoiYW1wbGl0dWRlIjogODAwLjAwMDAwLCAKInBvaW50cyI6IFsKWyAwLjAwMDAwICwgMS4wMDAwMF0sIFsgMS4wMDAwMCAsIDEuMDAwMDBdXQp9CiwKInBpdGNoc2hpZnRfZW52IjogewoiYW1wbGl0dWRlIjogMTIuMDAwMDAsIAoicG9pbnRzIjogWwpbIDAuMDAwMDAgLCAwLjUwMDAwXSwgWyAxLjAwMDAwICwgMC41MDAwMF1dCn0KLAoiZmlsdGVyIjogewoiZW5hYmxlZCI6IGZhbHNlLCAKInR5cGUiOiAwLCAKImN1dG9mZiI6IDgwMC4wMDAwMCwgCiJjdXRvZmZfZW52IjogW1sgMC4wMDAwMCAsIDEuMDAwMDBdLCBbIDEuMDAwMDAgLCAxLjAwMDAwXV0sIAoiZmFjdG9yIjogMTAuMDAwMDAKfQp9CiwKIm9zYzUiOiB7CiJlbmFibGVkIjogZmFsc2UsIAoiaXNfZm0iOiBmYWxzZSwgCiJmdW5jdGlvbiI6IDQsCiJwaGFzZSI6IDAuMDAwMDAsIAoic2VlZCI6IDEwMCwgCiJhbXBsX2VudiI6IHsKImFtcGxpdHVkZSI6IDAuMjYwMDAsIAoicG9pbnRzIjogWwpbIDAuMDAwMDAgLCAxLjAwMDAwXSwgWyAxLjAwMDAwICwgMS4wMDAwMF1dCn0KLAoiZnJlcV9lbnYiOiB7CiJhbXBsaXR1ZGUiOiAxNTAuMDAwMDAsIAoicG9pbnRzIjogWwpdCn0KLAoicGl0Y2hzaGlmdF9lbnYiOiB7CiJhbXBsaXR1ZGUiOiAwLjAwMDAwLCAKInBvaW50cyI6IFsKXQp9CiwKImZpbHRlciI6IHsKImVuYWJsZWQiOiBmYWxzZSwgCiJ0eXBlIjogMCwgCiJjdXRvZmYiOiA4MDAuMDAwMDAsIAoiY3V0b2ZmX2VudiI6IFtbIDAuMDAwMDAgLCAxLjAwMDAwXSwgWyAxLjAwMDAwICwgMS4wMDAwMF1dLCAKImZhY3RvciI6IDEwLjAwMDAwCn0KfQosCiJvc2M0IjogewoiZW5hYmxlZCI6IGZhbHNlLCAKImlzX2ZtIjogZmFsc2UsIAoiZnVuY3Rpb24iOiAwLAoicGhhc2UiOiAwLjAwMDAwLCAKInNlZWQiOiAwLCAKImFtcGxfZW52IjogewoiYW1wbGl0dWRlIjogMC4yNjAwMCwgCiJwb2ludHMiOiBbClsgMC4wMDAwMCAsIDEuMDAwMDBdLCBbIDEuMDAwMDAgLCAxLjAwMDAwXV0KfQosCiJmcmVxX2VudiI6IHsKImFtcGxpdHVkZSI6IDgwMC4wMDAwMCwgCiJwb2ludHMiOiBbClsgMC4wMDAwMCAsIDEuMDAwMDBdLCBbIDEuMDAwMDAgLCAxLjAwMDAwXV0KfQosCiJwaXRjaHNoaWZ0X2VudiI6IHsKImFtcGxpdHVkZSI6IDEyLjAwMDAwLCAKInBvaW50cyI6IFsKWyAwLjAwMDAwICwgMC41MDAwMF0sIFsgMS4wMDAwMCAsIDAuNTAwMDBdXQp9CiwKImZpbHRlciI6IHsKImVuYWJsZWQiOiBmYWxzZSwgCiJ0eXBlIjogMCwgCiJjdXRvZmYiOiA4MDAuMDAwMDAsIAoiY3V0b2ZmX2VudiI6IFtbIDAuMDAwMDAgLCAxLjAwMDAwXSwgWyAxLjAwMDAwICwgMS4wMDAwMF1dLCAKImZhY3RvciI6IDEwLjAwMDAwCn0KfQosCiJvc2MzIjogewoiZW5hYmxlZCI6IHRydWUsIAoiaXNfZm0iOiBmYWxzZSwgCiJmdW5jdGlvbiI6IDAsCiJwaGFzZSI6IDAuMDAwMDAsIAoic2VlZCI6IDAsIAoiYW1wbF9lbnYiOiB7CiJhbXBsaXR1ZGUiOiAwLjI2MDAwLCAKInBvaW50cyI6IFsKWyAwLjAwMDAwICwgMS4wMDAwMF0sIFsgMS4wMDAwMCAsIDEuMDAwMDBdXQp9CiwKImZyZXFfZW52IjogewoiYW1wbGl0dWRlIjogODAwLjAwMDAwLCAKInBvaW50cyI6IFsKWyAwLjAwMDAwICwgMS4wMDAwMF0sIFsgMS4wMDAwMCAsIDEuMDAwMDBdXQp9CiwKInBpdGNoc2hpZnRfZW52IjogewoiYW1wbGl0dWRlIjogMTIuMDAwMDAsIAoicG9pbnRzIjogWwpbIDAuMDAwMDAgLCAwLjUwMDAwXSwgWyAxLjAwMDAwICwgMC41MDAwMF1dCn0KLAoiZmlsdGVyIjogewoiZW5hYmxlZCI6IGZhbHNlLCAKInR5cGUiOiAwLCAKImN1dG9mZiI6IDgwMC4wMDAwMCwgCiJjdXRvZmZfZW52IjogW1sgMC4wMDAwMCAsIDEuMDAwMDBdLCBbIDEuMDAwMDAgLCAxLjAwMDAwXV0sIAoiZmFjdG9yIjogMTAuMDAwMDAKfQp9CiwKIm9zYzIiOiB7CiJlbmFibGVkIjogZmFsc2UsIAoiaXNfZm0iOiBmYWxzZSwgCiJmdW5jdGlvbiI6IDQsCiJwaGFzZSI6IDAuMDAwMDAsIAoic2VlZCI6IDEwMCwgCiJhbXBsX2VudiI6IHsKImFtcGxpdHVkZSI6IDAuMjYwMDAsIAoicG9pbnRzIjogWwpbIDAuMDAwMDAgLCAxLjAwMDAwXSwgWyAxLjAwMDAwICwgMS4wMDAwMF1dCn0KLAoiZnJlcV9lbnYiOiB7CiJhbXBsaXR1ZGUiOiAxNTAuMDAwMDAsIAoicG9pbnRzIjogWwpdCn0KLAoicGl0Y2hzaGlmdF9lbnYiOiB7CiJhbXBsaXR1ZGUiOiAwLjAwMDAwLCAKInBvaW50cyI6IFsKXQp9CiwKImZpbHRlciI6IHsKImVuYWJsZWQiOiBmYWxzZSwgCiJ0eXBlIjogMCwgCiJjdXRvZmYiOiA4MDAuMDAwMDAsIAoiY3V0b2ZmX2VudiI6IFtbIDAuMDAwMDAgLCAxLjAwMDAwXSwgWyAxLjAwMDAwICwgMS4wMDAwMF1dLCAKImZhY3RvciI6IDEwLjAwMDAwCn0KfQosCiJvc2MxIjogewoiZW5hYmxlZCI6IGZhbHNlLCAKImlzX2ZtIjogZmFsc2UsIAoiZnVuY3Rpb24iOiAwLAoicGhhc2UiOiAwLjAwMDAwLCAKInNlZWQiOiAwLCAKImFtcGxfZW52IjogewoiYW1wbGl0dWRlIjogMC4yNjAwMCwgCiJwb2ludHMiOiBbClsgMC4wMDAwMCAsIDEuMDAwMDBdLCBbIDEuMDAwMDAgLCAxLjAwMDAwXV0KfQosCiJmcmVxX2VudiI6IHsKImFtcGxpdHVkZSI6IDgwMC4wMDAwMCwgCiJwb2ludHMiOiBbClsgMC4wMDAwMCAsIDEuMDAwMDBdLCBbIDEuMDAwMDAgLCAxLjAwMDAwXV0KfQosCiJwaXRjaHNoaWZ0X2VudiI6IHsKImFtcGxpdHVkZSI6IDEyLjAwMDAwLCAKInBvaW50cyI6IFsKWyAwLjAwMDAwICwgMC41MDAwMF0sIFsgMS4wMDAwMCAsIDAuNTAwMDBdXQp9CiwKImZpbHRlciI6IHsKImVuYWJsZWQiOiBmYWxzZSwgCiJ0eXBlIjogMCwgCiJjdXRvZmYiOiA4MDAuMDAwMDAsIAoiY3V0b2ZmX2VudiI6IFtbIDAuMDAwMDAgLCAxLjAwMDAwXSwgWyAxLjAwMDAwICwgMS4wMDAwMF1dLCAKImZhY3RvciI6IDEwLjAwMDAwCn0KfQosCiJvc2MwIjogewoiZW5hYmxlZCI6IHRydWUsIAoiaXNfZm0iOiBmYWxzZSwgCiJmdW5jdGlvbiI6IDAsCiJwaGFzZSI6IDAuMDAwMDAsIAoic2VlZCI6IDAsIAoiYW1wbF9lbnYiOiB7CiJhbXBsaXR1ZGUiOiAwLjcwMDAwLCAKInBvaW50cyI6IFsKWyAwLjAwMDAwICwgMS4wMDAwMF0sIFsgMS4wMDAwMCAsIDAuMDAwMDBdXQp9CiwKImZyZXFfZW52IjogewoiYW1wbGl0dWRlIjogNDE3Ljk3NTQwLCAKInBvaW50cyI6IFsKWyAwLjAwMDAwICwgMS4wMDAwMF0sIFsgMC4xNDk2OCAsIDAuMDY2NTFdLCBbIDEuMDAwMDAgLCAwLjAwMDAwXV0KfQosCiJwaXRjaHNoaWZ0X2VudiI6IHsKImFtcGxpdHVkZSI6IDEyLjAwMDAwLCAKInBvaW50cyI6IFsKWyAwLjAwMDAwICwgMC41MDAwMF0sIFsgMS4wMDAwMCAsIDAuNTAwMDBdXQp9CiwKImZpbHRlciI6IHsKImVuYWJsZWQiOiBmYWxzZSwgCiJ0eXBlIjogMCwgCiJjdXRvZmYiOiA4MDAuMDAwMDAsIAoiY3V0b2ZmX2VudiI6IFtbIDAuMDAwMDAgLCAxLjAwMDAwXSwgWyAxLjAwMDAwICwgMS4wMDAwMF1dLCAKImZhY3RvciI6IDEwLjAwMDAwCn0KfQosCiJraWNrIjogewoiUGVyY3Vzc2lvbkFwcFZlcnNpb24iOiAxMzMzNzcsCiJpZCI6IDAsCiJjaGFubmVsIjogMCwKIm11dGUiOiBmYWxzZSwKInNvbG8iOiBmYWxzZSwKIm5hbWUiOiAiRGVmYXVsdCIsCiJwbGF5aW5nX2tleSI6IC0xLAoibGF5ZXJzIjogWzBdLAoibGF5ZXJzX2FtcGxpdHVkZSI6IFsxLjAwMDAwLCAxLjAwMDAwLCAxLjAwMDAwXSwKImxpbWl0ZXIiOiAyLjEwMTc1LCAKInR1bmVkX291dHB1dCI6IGZhbHNlLCAKImFtcGxfZW52IjogewoiYW1wbGl0dWRlIjogMC44NzQwNywgCiJsZW5ndGgiOiAzMDAuMDAwMDAsIAoicG9pbnRzIjogW1sgMC4wMDAwMCAsIDEuMDAwMDBdLCBbIDEuMDAwMDAgLCAxLjAwMDAwXV19LCAKImZpbHRlciI6IHsKImVuYWJsZWQiOiBmYWxzZSwgCiJ0eXBlIjogMCwgCiJjdXRvZmYiOiAyMDAuMDAsIAoiZmFjdG9yIjogMTAuMDAsIAoiY3V0b2ZmX2VudiI6IFtbIDAuMDAwMDAgLCAxLjAwMDAwXSwgWyAxLjAwMDAwICwgMS4wMDAwMF1dCn0sIAoiY29tcHJlc3NvciI6IHsKImVuYWJsZWQiOiBmYWxzZSwgCiJhdHRhY2siOiAwLjAxMDAwLCAKInJlbGVhc2UiOiAwLjAxMDAwLCAKInRocmVzaG9sZCI6IDAuMDAwMDAsIAoicmF0aW8iOiAxLjAwMDAwLCAKImtuZWUiOiAwLjAwMDAwLCAKIm1ha2V1cCI6IDEuMDAwMDAKfSwgCiJkaXN0b3J0aW9uIjogewoiZW5hYmxlZCI6IGZhbHNlLCAKImluX2xpbWl0ZXIiOiAxLjAwMDAwLCAKInZvbHVtZSI6IDAuMTAwMDAsIAoiZHJpdmUiOiAxLjAwMDAwLCAKImRyaXZlX2VudiI6IFsKWyAwLjAwMDAwICwgMS4wMDAwMF0sIFsgMS4wMDAwMCAsIDEuMDAwMDBdXSwgCiJ2b2x1bWVfZW52IjogWwpbIDAuMDAwMDAgLCAxLjAwMDAwXSwgWyAxLjAwMDAwICwgMS4wMDAwMF1dCn0KfQp9Cl0KfQoKfQo=
    </Value>
                          </CustomData>
                        </Data>
                      </Plugin>
                    </CARLA-PROJECT>
                  </carlarack>
                </instrument>
                <eldata fwet="0" fcut="14000" ftype="0" fres="0.5">
                  <elvol userwavefile="" lspd_numerator="4" att="0" hold="0.5" lspd="0.1" amt="0" lpdel="0" pdel="0" lspd_syncmode="0" x100="0" latt="0" sustain="0.5" lamt="0" dec="0.5" ctlenvamt="0" lshp="0" rel="0.1" lspd_denominator="4"/>
                  <elcut userwavefile="" lspd_numerator="4" att="0" hold="0.5" lspd="0.1" amt="0" lpdel="0" pdel="0" lspd_syncmode="0" x100="0" latt="0" sustain="0.5" lamt="0" dec="0.5" ctlenvamt="0" lshp="0" rel="0.1" lspd_denominator="4"/>
                  <elres userwavefile="" lspd_numerator="4" att="0" hold="0.5" lspd="0.1" amt="0" lpdel="0" pdel="0" lspd_syncmode="0" x100="0" latt="0" sustain="0.5" lamt="0" dec="0.5" ctlenvamt="0" lshp="0" rel="0.1" lspd_denominator="4"/>
                </eldata>
                <chordcreator chord="0" chord-enabled="0" chordrange="1"/>
                <arpeggiator arprange="1" arpcycle="0" arpdir="0" arptime_numerator="4" arp-enabled="0" arpmode="0" arptime_denominator="4" arptime_syncmode="0" arptime="200" arpskip="0" arpmiss="0" arpgate="100" arp="0"/>
                <midiport inputchannel="0" fixedinputvelocity="-1" readable="0" fixedoutputnote="-1" fixedoutputvelocity="-1" outputchannel="1" basevelocity="63" writable="0" inputcontroller="0" outputcontroller="0" outputprogram="1"/>
                <fxchain enabled="0" numofeffects="0"/>
              </instrumenttrack>
              <pattern type="0" steps="16" muted="0" name="Carla Rack" pos="0">
                <note vol="100" pan="0" len="-192" key="57" pos="0"/>
                <note vol="100" pan="0" len="-192" key="57" pos="48"/>
                <note vol="100" pan="0" len="-192" key="57" pos="96"/>
                <note vol="100" pan="0" len="-192" key="57" pos="144"/>
              </pattern>
              <pattern type="0" steps="16" muted="0" name="Carla Rack" pos="192">
                <note vol="100" pan="0" len="-192" key="57" pos="96"/>
                <note vol="100" pan="0" len="-192" key="57" pos="132"/>
                <note vol="100" pan="0" len="-192" key="57" pos="168"/>
              </pattern>
            </track>
            <track type="0" solo="0" muted="0" name="hihat_opened02.ogg">
              <instrumenttrack fxch="0" vol="59.200001" pitchrange="1" pitch="0" pan="-8" usemasterpitch="1" basenote="57">
                <instrument name="audiofileprocessor">
                  <audiofileprocessor sframe="0" src="drums/hihat_opened02.ogg" eframe="1" stutter="0" reversed="0" lframe="0" looped="0" amp="100" interp="1"/>
                </instrument>
                <eldata fwet="0" fcut="14000" ftype="0" fres="0.5">
                  <elvol userwavefile="" lspd_numerator="4" att="0" hold="0.5" lspd="0.1" amt="0" lpdel="0" pdel="0" lspd_syncmode="0" x100="0" latt="0" sustain="0.5" lamt="0" dec="0.5" ctlenvamt="0" lshp="0" rel="0.1" lspd_denominator="4"/>
                  <elcut userwavefile="" lspd_numerator="4" att="0" hold="0.5" lspd="0.1" amt="0" lpdel="0" pdel="0" lspd_syncmode="0" x100="0" latt="0" sustain="0.5" lamt="0" dec="0.5" ctlenvamt="0" lshp="0" rel="0.1" lspd_denominator="4"/>
                  <elres userwavefile="" lspd_numerator="4" att="0" hold="0.5" lspd="0.1" amt="0" lpdel="0" pdel="0" lspd_syncmode="0" x100="0" latt="0" sustain="0.5" lamt="0" dec="0.5" ctlenvamt="0" lshp="0" rel="0.1" lspd_denominator="4"/>
                </eldata>
                <chordcreator chord="0" chord-enabled="0" chordrange="1"/>
                <arpeggiator arprange="1" arpcycle="0" arpdir="0" arptime_numerator="4" arp-enabled="0" arpmode="0" arptime_denominator="4" arptime_syncmode="0" arptime="200" arpskip="0" arpmiss="0" arpgate="100" arp="0"/>
                <midiport inputchannel="0" fixedinputvelocity="-1" readable="0" fixedoutputnote="-1" fixedoutputvelocity="-1" outputchannel="1" basevelocity="63" writable="0" inputcontroller="0" outputcontroller="0" outputprogram="1"/>
                <fxchain enabled="1" numofeffects="1">
                  <effect autoquit_numerator="4" wet="1" on="1" autoquit_syncmode="0" autoquit="1" name="ladspaeffect" gate="0" autoquit_denominator="4">
                    <ladspacontrols ports="10">
                      <port00 data="4"/>
                      <port01 data="0"/>
                      <port02 data="8"/>
                      <port03 data="0"/>
                      <port04 data="0"/>
                      <port05 data="0"/>
                      <port06 data="0"/>
                      <port07 data="0"/>
                      <port08 data="1"/>
                      <port09 data="0"/>
                    </ladspacontrols>
                    <key>
                      <attribute value="tap_echo" name="file"/>
                      <attribute value="tap_stereo_echo" name="plugin"/>
                    </key>
                  </effect>
                </fxchain>
              </instrumenttrack>
              <pattern type="0" steps="16" muted="0" name="hihat_opened02.ogg" pos="0">
                <note vol="100" pan="-60" len="-192" key="57" pos="24"/>
                <note vol="5" pan="0" len="-192" key="57" pos="36"/>
                <note vol="100" pan="60" len="-192" key="57" pos="72"/>
                <note vol="5" pan="0" len="-192" key="57" pos="84"/>
                <note vol="100" pan="-60" len="-192" key="57" pos="120"/>
                <note vol="5" pan="0" len="-192" key="57" pos="132"/>
                <note vol="100" pan="60" len="-192" key="57" pos="168"/>
                <note vol="5" pan="0" len="-192" key="57" pos="180"/>
              </pattern>
              <pattern type="0" steps="16" muted="0" name="hihat_opened02.ogg" pos="192">
                <note vol="0" pan="0" len="-192" key="57" pos="12"/>
                <note vol="15" pan="0" len="-192" key="57" pos="48"/>
                <note vol="45" pan="0" len="-192" key="57" pos="72"/>
                <note vol="55" pan="0" len="-192" key="57" pos="96"/>
                <note vol="85" pan="0" len="-192" key="57" pos="120"/>
                <note vol="100" pan="0" len="-192" key="57" pos="144"/>
                <note vol="95" pan="0" len="-192" key="57" pos="156"/>
                <note vol="100" pan="0" len="-192" key="57" pos="168"/>
                <note vol="100" pan="0" len="-192" key="57" pos="180"/>
              </pattern>
            </track>
            <track type="0" solo="0" muted="0" name="clap04.ogg">
              <instrumenttrack fxch="0" vol="56.799999" pitchrange="1" pitch="0" pan="0" usemasterpitch="1" basenote="57">
                <instrument name="audiofileprocessor">
                  <audiofileprocessor sframe="0" src="drums/clap04.ogg" eframe="1" stutter="0" reversed="0" lframe="0" looped="0" amp="100" interp="1"/>
                </instrument>
                <eldata fwet="0" fcut="14000" ftype="0" fres="0.5">
                  <elvol userwavefile="" lspd_numerator="4" att="0" hold="0.5" lspd="0.1" amt="0" lpdel="0" pdel="0" lspd_syncmode="0" x100="0" latt="0" sustain="0.5" lamt="0" dec="0.5" ctlenvamt="0" lshp="0" rel="0.1" lspd_denominator="4"/>
                  <elcut userwavefile="" lspd_numerator="4" att="0" hold="0.5" lspd="0.1" amt="0" lpdel="0" pdel="0" lspd_syncmode="0" x100="0" latt="0" sustain="0.5" lamt="0" dec="0.5" ctlenvamt="0" lshp="0" rel="0.1" lspd_denominator="4"/>
                  <elres userwavefile="" lspd_numerator="4" att="0" hold="0.5" lspd="0.1" amt="0" lpdel="0" pdel="0" lspd_syncmode="0" x100="0" latt="0" sustain="0.5" lamt="0" dec="0.5" ctlenvamt="0" lshp="0" rel="0.1" lspd_denominator="4"/>
                </eldata>
                <chordcreator chord="0" chord-enabled="0" chordrange="1"/>
                <arpeggiator arprange="1" arpcycle="0" arpdir="0" arptime_numerator="4" arp-enabled="0" arpmode="0" arptime_denominator="4" arptime_syncmode="0" arptime="200" arpskip="0" arpmiss="0" arpgate="100" arp="0"/>
                <midiport inputchannel="0" fixedinputvelocity="-1" readable="0" fixedoutputnote="-1" fixedoutputvelocity="-1" outputchannel="1" basevelocity="63" writable="0" inputcontroller="0" outputcontroller="0" outputprogram="1"/>
                <fxchain enabled="0" numofeffects="0"/>
              </instrumenttrack>
              <pattern type="0" steps="16" muted="0" name="clap04.ogg" pos="0">
                <note vol="100" pan="0" len="-192" key="57" pos="48"/>
                <note vol="100" pan="0" len="-192" key="57" pos="144"/>
              </pattern>
              <pattern type="0" steps="16" muted="0" name="clap04.ogg" pos="192">
                <note vol="100" pan="0" len="-192" key="57" pos="24"/>
                <note vol="100" pan="0" len="-192" key="57" pos="48"/>
                <note vol="100" pan="0" len="-192" key="57" pos="84"/>
                <note vol="100" pan="0" len="-192" key="57" pos="120"/>
                <note vol="100" pan="0" len="-192" key="57" pos="156"/>
                <note vol="100" pan="0" len="-192" key="57" pos="180"/>
              </pattern>
            </track>
            <track type="0" solo="0" muted="0" name="tom_hi01.ogg">
              <instrumenttrack fxch="0" vol="100" pitchrange="1" pitch="0" pan="0" usemasterpitch="1" basenote="57">
                <instrument name="audiofileprocessor">
                  <audiofileprocessor sframe="0" src="drums/tom_hi01.ogg" eframe="1" stutter="0" reversed="0" lframe="0" looped="0" amp="100" interp="1"/>
                </instrument>
                <eldata fwet="0" fcut="14000" ftype="0" fres="0.5">
                  <elvol userwavefile="" lspd_numerator="4" att="0" hold="0.5" lspd="0.1" amt="0" lpdel="0" pdel="0" lspd_syncmode="0" x100="0" latt="0" sustain="0.5" lamt="0" dec="0.5" ctlenvamt="0" lshp="0" rel="0.1" lspd_denominator="4"/>
                  <elcut userwavefile="" lspd_numerator="4" att="0" hold="0.5" lspd="0.1" amt="0" lpdel="0" pdel="0" lspd_syncmode="0" x100="0" latt="0" sustain="0.5" lamt="0" dec="0.5" ctlenvamt="0" lshp="0" rel="0.1" lspd_denominator="4"/>
                  <elres userwavefile="" lspd_numerator="4" att="0" hold="0.5" lspd="0.1" amt="0" lpdel="0" pdel="0" lspd_syncmode="0" x100="0" latt="0" sustain="0.5" lamt="0" dec="0.5" ctlenvamt="0" lshp="0" rel="0.1" lspd_denominator="4"/>
                </eldata>
                <chordcreator chord="0" chord-enabled="0" chordrange="1"/>
                <arpeggiator arprange="1" arpcycle="0" arpdir="0" arptime_numerator="4" arp-enabled="0" arpmode="0" arptime_denominator="4" arptime_syncmode="0" arptime="200" arpskip="0" arpmiss="0" arpgate="100" arp="0"/>
                <midiport inputchannel="0" fixedinputvelocity="-1" readable="0" fixedoutputnote="-1" fixedoutputvelocity="-1" outputchannel="1" basevelocity="63" writable="0" inputcontroller="0" outputcontroller="0" outputprogram="1"/>
                <fxchain enabled="0" numofeffects="0"/>
              </instrumenttrack>
              <pattern type="0" steps="16" muted="0" name="tom_hi01.ogg" pos="0"/>
              <pattern type="0" steps="16" muted="0" name="tom_hi01.ogg" pos="192">
                <note vol="100" pan="0" len="-192" key="57" pos="24"/>
                <note vol="100" pan="0" len="-192" key="57" pos="72"/>
                <note vol="100" pan="0" len="-192" key="57" pos="84"/>
                <note vol="100" pan="0" len="-192" key="57" pos="108"/>
                <note vol="100" pan="0" len="-192" key="57" pos="132"/>
                <note vol="100" pan="0" len="-192" key="57" pos="144"/>
                <note vol="100" pan="0" len="-192" key="57" pos="156"/>
              </pattern>
            </track>
            <track type="0" solo="0" muted="0" name="tom_low01.ogg">
              <instrumenttrack fxch="0" vol="100" pitchrange="1" pitch="0" pan="0" usemasterpitch="1" basenote="57">
                <instrument name="audiofileprocessor">
                  <audiofileprocessor sframe="0" src="drums/tom_low01.ogg" eframe="1" stutter="0" reversed="0" lframe="0" looped="0" amp="100" interp="1"/>
                </instrument>
                <eldata fwet="0" fcut="14000" ftype="0" fres="0.5">
                  <elvol userwavefile="" lspd_numerator="4" att="0" hold="0.5" lspd="0.1" amt="0" lpdel="0" pdel="0" lspd_syncmode="0" x100="0" latt="0" sustain="0.5" lamt="0" dec="0.5" ctlenvamt="0" lshp="0" rel="0.1" lspd_denominator="4"/>
                  <elcut userwavefile="" lspd_numerator="4" att="0" hold="0.5" lspd="0.1" amt="0" lpdel="0" pdel="0" lspd_syncmode="0" x100="0" latt="0" sustain="0.5" lamt="0" dec="0.5" ctlenvamt="0" lshp="0" rel="0.1" lspd_denominator="4"/>
                  <elres userwavefile="" lspd_numerator="4" att="0" hold="0.5" lspd="0.1" amt="0" lpdel="0" pdel="0" lspd_syncmode="0" x100="0" latt="0" sustain="0.5" lamt="0" dec="0.5" ctlenvamt="0" lshp="0" rel="0.1" lspd_denominator="4"/>
                </eldata>
                <chordcreator chord="0" chord-enabled="0" chordrange="1"/>
                <arpeggiator arprange="1" arpcycle="0" arpdir="0" arptime_numerator="4" arp-enabled="0" arpmode="0" arptime_denominator="4" arptime_syncmode="0" arptime="200" arpskip="0" arpmiss="0" arpgate="100" arp="0"/>
                <midiport inputchannel="0" fixedinputvelocity="-1" readable="0" fixedoutputnote="-1" fixedoutputvelocity="-1" outputchannel="1" basevelocity="63" writable="0" inputcontroller="0" outputcontroller="0" outputprogram="1"/>
                <fxchain enabled="0" numofeffects="0"/>
              </instrumenttrack>
              <pattern type="0" steps="16" muted="0" name="tom_low01.ogg" pos="0"/>
              <pattern type="0" steps="16" muted="0" name="tom_low01.ogg" pos="192">
                <note vol="100" pan="0" len="-192" key="57" pos="24"/>
                <note vol="100" pan="0" len="-192" key="57" pos="96"/>
                <note vol="100" pan="0" len="-192" key="57" pos="168"/>
                <note vol="100" pan="0" len="-192" key="57" pos="180"/>
              </pattern>
            </track>
          </trackcontainer>
        </bbtrack>
        <bbtco color="4286611584" muted="0" name="" len="5376" usestyle="1" pos="768"/>
        <bbtco color="4286611584" muted="0" name="" len="1152" usestyle="1" pos="6528"/>
        <bbtco color="4286611584" muted="0" name="" len="3072" usestyle="1" pos="8064"/>
      </track>
      <track type="0" solo="0" muted="0" name="Good Old Times">
        <instrumenttrack fxch="0" vol="18" pitchrange="1" pitch="0" pan="0" usemasterpitch="1" basenote="81">
          <instrument name="lb302">
            <lb302 vcf_dec="0.1" vcf_mod="0.66000003" dead="0" dist="0.11" slide="0" vcf_res="0.98500001" db24="0" slide_dec="0.60000002" shape="0">
              <vcf_cut value="0.38320309" scale_type="linear" id="3059579"/>
            </lb302>
          </instrument>
          <eldata fwet="0" fcut="14000" ftype="0" fres="0.5">
            <elvol userwavefile="" lspd_numerator="4" att="0" hold="0.5" lspd="0.1" amt="0" lpdel="0" pdel="0" lspd_syncmode="0" x100="0" latt="0" sustain="0.5" lamt="0" dec="0.5" ctlenvamt="0" lshp="0" rel="0.1" lspd_denominator="4"/>
            <elcut userwavefile="" lspd_numerator="4" att="0" hold="0.5" lspd="0.1" amt="0" lpdel="0" pdel="0" lspd_syncmode="0" x100="0" latt="0" sustain="0.5" lamt="0" dec="0.5" ctlenvamt="0" lshp="0" rel="0.1" lspd_denominator="4"/>
            <elres userwavefile="" lspd_numerator="4" att="0" hold="0.5" lspd="0.1" amt="0" lpdel="0" pdel="0" lspd_syncmode="0" x100="0" latt="0" sustain="0.5" lamt="0" dec="0.5" ctlenvamt="0" lshp="0" rel="0.1" lspd_denominator="4"/>
          </eldata>
          <chordcreator chord="0" chord-enabled="0" chordrange="1"/>
          <arpeggiator arprange="1" arpcycle="0" arpdir="0" arptime_numerator="4" arp-enabled="0" arpmode="0" arptime_denominator="4" arptime_syncmode="0" arptime="100" arpskip="0" arpmiss="0" arpgate="100" arp="0"/>
          <midiport inputchannel="0" fixedinputvelocity="-1" readable="0" fixedoutputnote="-1" fixedoutputvelocity="-1" outputchannel="1" basevelocity="127" writable="0" inputcontroller="0" outputcontroller="0" outputprogram="1"/>
          <fxchain enabled="0" numofeffects="0"/>
        </instrumenttrack>
        <pattern type="1" steps="16" muted="0" name="Good Old Times" pos="768">
          <note vol="46" pan="0" len="24" key="62" pos="0"/>
          <note vol="14" pan="0" len="24" key="62" pos="24"/>
          <note vol="100" pan="0" len="24" key="65" pos="48"/>
          <note vol="100" pan="0" len="24" key="62" pos="72"/>
          <note vol="100" pan="0" len="24" key="64" pos="96"/>
          <note vol="100" pan="0" len="24" key="64" pos="120"/>
          <note vol="100" pan="0" len="24" key="64" pos="144"/>
          <note vol="100" pan="0" len="24" key="62" pos="168"/>
          <note vol="46" pan="0" len="24" key="62" pos="192"/>
          <note vol="14" pan="0" len="24" key="62" pos="216"/>
          <note vol="100" pan="0" len="24" key="65" pos="240"/>
          <note vol="100" pan="0" len="24" key="62" pos="264"/>
          <note vol="100" pan="0" len="24" key="64" pos="288"/>
          <note vol="100" pan="0" len="24" key="64" pos="312"/>
          <note vol="100" pan="0" len="24" key="64" pos="336"/>
          <note vol="100" pan="0" len="24" key="62" pos="360"/>
          <note vol="46" pan="0" len="24" key="62" pos="384"/>
          <note vol="14" pan="0" len="24" key="62" pos="408"/>
          <note vol="100" pan="0" len="24" key="65" pos="432"/>
          <note vol="100" pan="0" len="24" key="62" pos="456"/>
          <note vol="100" pan="0" len="24" key="64" pos="480"/>
          <note vol="100" pan="0" len="24" key="64" pos="504"/>
          <note vol="100" pan="0" len="24" key="64" pos="528"/>
          <note vol="100" pan="0" len="24" key="62" pos="552"/>
          <note vol="46" pan="0" len="24" key="62" pos="576"/>
          <note vol="14" pan="0" len="24" key="62" pos="600"/>
          <note vol="100" pan="0" len="24" key="65" pos="624"/>
          <note vol="100" pan="0" len="24" key="62" pos="648"/>
          <note vol="100" pan="0" len="24" key="64" pos="672"/>
          <note vol="100" pan="0" len="24" key="64" pos="696"/>
          <note vol="100" pan="0" len="24" key="64" pos="720"/>
          <note vol="100" pan="0" len="24" key="62" pos="744"/>
          <note vol="46" pan="0" len="24" key="62" pos="768"/>
          <note vol="14" pan="0" len="24" key="62" pos="792"/>
          <note vol="100" pan="0" len="24" key="65" pos="816"/>
          <note vol="100" pan="0" len="24" key="62" pos="840"/>
          <note vol="100" pan="0" len="24" key="64" pos="864"/>
          <note vol="100" pan="0" len="24" key="64" pos="888"/>
          <note vol="100" pan="0" len="24" key="64" pos="912"/>
          <note vol="100" pan="0" len="24" key="62" pos="936"/>
          <note vol="46" pan="0" len="24" key="62" pos="960"/>
          <note vol="14" pan="0" len="24" key="62" pos="984"/>
          <note vol="100" pan="0" len="24" key="65" pos="1008"/>
          <note vol="100" pan="0" len="24" key="62" pos="1032"/>
          <note vol="100" pan="0" len="24" key="64" pos="1056"/>
          <note vol="100" pan="0" len="24" key="64" pos="1080"/>
          <note vol="100" pan="0" len="24" key="64" pos="1104"/>
          <note vol="100" pan="0" len="24" key="62" pos="1128"/>
          <note vol="46" pan="0" len="24" key="62" pos="1152"/>
          <note vol="14" pan="0" len="24" key="62" pos="1176"/>
          <note vol="100" pan="0" len="24" key="65" pos="1200"/>
          <note vol="100" pan="0" len="24" key="62" pos="1224"/>
          <note vol="100" pan="0" len="24" key="64" pos="1248"/>
          <note vol="100" pan="0" len="24" key="64" pos="1272"/>
          <note vol="100" pan="0" len="24" key="64" pos="1296"/>
          <note vol="100" pan="0" len="24" key="62" pos="1320"/>
          <note vol="46" pan="0" len="24" key="62" pos="1344"/>
          <note vol="14" pan="0" len="24" key="62" pos="1368"/>
          <note vol="100" pan="0" len="24" key="65" pos="1392"/>
          <note vol="100" pan="0" len="24" key="62" pos="1416"/>
          <note vol="100" pan="0" len="24" key="64" pos="1440"/>
          <note vol="100" pan="0" len="24" key="64" pos="1464"/>
          <note vol="100" pan="0" len="24" key="64" pos="1488"/>
          <note vol="100" pan="0" len="24" key="62" pos="1512"/>
        </pattern>
        <pattern type="1" steps="16" muted="0" name="Good Old Times" pos="2304">
          <note vol="100" pan="0" len="24" key="62" pos="0"/>
          <note vol="100" pan="0" len="24" key="65" pos="48"/>
          <note vol="100" pan="0" len="24" key="62" pos="72"/>
          <note vol="100" pan="0" len="12" key="64" pos="120"/>
          <note vol="100" pan="0" len="12" key="64" pos="132"/>
          <note vol="100" pan="0" len="24" key="64" pos="144"/>
          <note vol="100" pan="0" len="24" key="62" pos="168"/>
          <note vol="100" pan="0" len="24" key="62" pos="216"/>
          <note vol="100" pan="0" len="24" key="65" pos="240"/>
          <note vol="100" pan="0" len="24" key="62" pos="264"/>
          <note vol="100" pan="0" len="12" key="64" pos="288"/>
          <note vol="100" pan="0" len="12" key="64" pos="300"/>
          <note vol="100" pan="0" len="24" key="64" pos="312"/>
          <note vol="100" pan="0" len="24" key="64" pos="336"/>
          <note vol="100" pan="0" len="24" key="64" pos="360"/>
          <note vol="100" pan="0" len="24" key="62" pos="384"/>
          <note vol="100" pan="0" len="24" key="65" pos="432"/>
          <note vol="100" pan="0" len="24" key="62" pos="456"/>
          <note vol="100" pan="0" len="12" key="64" pos="504"/>
          <note vol="100" pan="0" len="12" key="64" pos="516"/>
          <note vol="100" pan="0" len="24" key="64" pos="528"/>
          <note vol="100" pan="0" len="24" key="62" pos="552"/>
          <note vol="100" pan="0" len="24" key="62" pos="600"/>
          <note vol="100" pan="0" len="24" key="65" pos="624"/>
          <note vol="100" pan="0" len="24" key="62" pos="648"/>
          <note vol="100" pan="0" len="24" key="64" pos="672"/>
          <note vol="100" pan="0" len="12" key="64" pos="696"/>
          <note vol="100" pan="0" len="36" key="64" pos="708"/>
          <note vol="100" pan="0" len="24" key="64" pos="744"/>
        </pattern>
        <pattern type="1" steps="16" muted="0" name="Good Old Times" pos="3072">
          <note vol="100" pan="0" len="24" key="62" pos="0"/>
          <note vol="100" pan="0" len="24" key="65" pos="48"/>
          <note vol="100" pan="0" len="24" key="62" pos="72"/>
          <note vol="100" pan="0" len="12" key="64" pos="120"/>
          <note vol="100" pan="0" len="12" key="64" pos="132"/>
          <note vol="100" pan="0" len="24" key="64" pos="144"/>
          <note vol="100" pan="0" len="24" key="62" pos="168"/>
          <note vol="100" pan="0" len="24" key="62" pos="216"/>
          <note vol="100" pan="0" len="24" key="65" pos="240"/>
          <note vol="100" pan="0" len="24" key="62" pos="264"/>
          <note vol="100" pan="0" len="12" key="64" pos="288"/>
          <note vol="100" pan="0" len="12" key="64" pos="300"/>
          <note vol="100" pan="0" len="24" key="64" pos="312"/>
          <note vol="100" pan="0" len="24" key="64" pos="336"/>
          <note vol="100" pan="0" len="24" key="64" pos="360"/>
          <note vol="100" pan="0" len="24" key="62" pos="384"/>
          <note vol="100" pan="0" len="24" key="65" pos="432"/>
          <note vol="100" pan="0" len="24" key="62" pos="456"/>
          <note vol="100" pan="0" len="12" key="64" pos="504"/>
          <note vol="100" pan="0" len="12" key="64" pos="516"/>
          <note vol="100" pan="0" len="24" key="64" pos="528"/>
          <note vol="100" pan="0" len="24" key="62" pos="552"/>
          <note vol="100" pan="0" len="24" key="62" pos="600"/>
          <note vol="100" pan="0" len="24" key="65" pos="624"/>
          <note vol="100" pan="0" len="24" key="62" pos="648"/>
          <note vol="100" pan="0" len="24" key="64" pos="672"/>
          <note vol="100" pan="0" len="12" key="64" pos="696"/>
          <note vol="100" pan="0" len="36" key="64" pos="708"/>
          <note vol="100" pan="0" len="24" key="64" pos="744"/>
          <note vol="100" pan="0" len="24" key="57" pos="768"/>
          <note vol="100" pan="0" len="24" key="60" pos="816"/>
          <note vol="100" pan="0" len="24" key="57" pos="840"/>
          <note vol="100" pan="0" len="12" key="59" pos="888"/>
          <note vol="100" pan="0" len="12" key="59" pos="900"/>
          <note vol="100" pan="0" len="24" key="59" pos="912"/>
          <note vol="100" pan="0" len="24" key="57" pos="936"/>
          <note vol="100" pan="0" len="24" key="57" pos="984"/>
          <note vol="100" pan="0" len="24" key="60" pos="1008"/>
          <note vol="100" pan="0" len="24" key="57" pos="1032"/>
          <note vol="100" pan="0" len="12" key="59" pos="1056"/>
          <note vol="100" pan="0" len="12" key="59" pos="1068"/>
          <note vol="100" pan="0" len="24" key="59" pos="1080"/>
          <note vol="100" pan="0" len="24" key="59" pos="1104"/>
          <note vol="100" pan="0" len="24" key="59" pos="1128"/>
          <note vol="100" pan="0" len="24" key="57" pos="1152"/>
          <note vol="100" pan="0" len="24" key="60" pos="1200"/>
          <note vol="100" pan="0" len="24" key="57" pos="1224"/>
          <note vol="100" pan="0" len="12" key="59" pos="1272"/>
          <note vol="100" pan="0" len="12" key="59" pos="1284"/>
          <note vol="100" pan="0" len="24" key="59" pos="1296"/>
          <note vol="100" pan="0" len="24" key="57" pos="1320"/>
          <note vol="100" pan="0" len="24" key="57" pos="1368"/>
          <note vol="100" pan="0" len="24" key="60" pos="1392"/>
          <note vol="100" pan="0" len="24" key="57" pos="1416"/>
          <note vol="100" pan="0" len="36" key="59" pos="1440"/>
          <note vol="100" pan="0" len="36" key="60" pos="1476"/>
          <note vol="100" pan="0" len="24" key="61" pos="1512"/>
        </pattern>
        <pattern type="1" steps="16" muted="0" name="Good Old Times" pos="4608">
          <note vol="100" pan="0" len="24" key="62" pos="0"/>
          <note vol="100" pan="0" len="24" key="65" pos="48"/>
          <note vol="100" pan="0" len="24" key="62" pos="72"/>
          <note vol="100" pan="0" len="12" key="64" pos="120"/>
          <note vol="100" pan="0" len="12" key="64" pos="132"/>
          <note vol="100" pan="0" len="24" key="64" pos="144"/>
          <note vol="100" pan="0" len="24" key="62" pos="168"/>
          <note vol="100" pan="0" len="24" key="62" pos="216"/>
          <note vol="100" pan="0" len="24" key="65" pos="240"/>
          <note vol="100" pan="0" len="24" key="62" pos="264"/>
          <note vol="100" pan="0" len="12" key="64" pos="288"/>
          <note vol="100" pan="0" len="12" key="64" pos="300"/>
          <note vol="100" pan="0" len="24" key="64" pos="312"/>
          <note vol="100" pan="0" len="24" key="64" pos="336"/>
          <note vol="100" pan="0" len="24" key="64" pos="360"/>
          <note vol="100" pan="0" len="24" key="62" pos="384"/>
          <note vol="100" pan="0" len="24" key="65" pos="432"/>
          <note vol="100" pan="0" len="24" key="62" pos="456"/>
          <note vol="100" pan="0" len="12" key="64" pos="504"/>
          <note vol="100" pan="0" len="12" key="64" pos="516"/>
          <note vol="100" pan="0" len="24" key="64" pos="528"/>
          <note vol="100" pan="0" len="24" key="62" pos="552"/>
          <note vol="100" pan="0" len="24" key="62" pos="600"/>
          <note vol="100" pan="0" len="24" key="65" pos="624"/>
          <note vol="100" pan="0" len="24" key="62" pos="648"/>
          <note vol="100" pan="0" len="24" key="64" pos="672"/>
          <note vol="100" pan="0" len="12" key="64" pos="696"/>
          <note vol="100" pan="0" len="36" key="64" pos="708"/>
          <note vol="100" pan="0" len="24" key="64" pos="744"/>
          <note vol="100" pan="0" len="24" key="57" pos="768"/>
          <note vol="100" pan="0" len="24" key="60" pos="816"/>
          <note vol="100" pan="0" len="24" key="57" pos="840"/>
          <note vol="100" pan="0" len="12" key="59" pos="888"/>
          <note vol="100" pan="0" len="12" key="59" pos="900"/>
          <note vol="100" pan="0" len="24" key="59" pos="912"/>
          <note vol="100" pan="0" len="24" key="57" pos="936"/>
          <note vol="100" pan="0" len="24" key="57" pos="984"/>
          <note vol="100" pan="0" len="24" key="60" pos="1008"/>
          <note vol="100" pan="0" len="24" key="57" pos="1032"/>
          <note vol="100" pan="0" len="12" key="59" pos="1056"/>
          <note vol="100" pan="0" len="12" key="59" pos="1068"/>
          <note vol="100" pan="0" len="24" key="59" pos="1080"/>
          <note vol="100" pan="0" len="24" key="59" pos="1104"/>
          <note vol="100" pan="0" len="24" key="59" pos="1128"/>
          <note vol="100" pan="0" len="24" key="57" pos="1152"/>
          <note vol="100" pan="0" len="24" key="60" pos="1200"/>
          <note vol="100" pan="0" len="24" key="57" pos="1224"/>
          <note vol="100" pan="0" len="12" key="59" pos="1272"/>
          <note vol="100" pan="0" len="12" key="59" pos="1284"/>
          <note vol="100" pan="0" len="24" key="59" pos="1296"/>
          <note vol="100" pan="0" len="24" key="57" pos="1320"/>
          <note vol="100" pan="0" len="24" key="57" pos="1368"/>
          <note vol="100" pan="0" len="24" key="60" pos="1392"/>
          <note vol="100" pan="0" len="24" key="57" pos="1416"/>
          <note vol="100" pan="0" len="36" key="59" pos="1440"/>
          <note vol="100" pan="0" len="36" key="60" pos="1476"/>
          <note vol="100" pan="0" len="24" key="61" pos="1512"/>
        </pattern>
        <pattern type="1" steps="16" muted="0" name="Good Old Times" pos="6144">
          <note vol="100" pan="0" len="24" key="62" pos="0"/>
          <note vol="100" pan="0" len="24" key="65" pos="48"/>
          <note vol="100" pan="0" len="24" key="62" pos="72"/>
          <note vol="100" pan="0" len="12" key="64" pos="120"/>
          <note vol="100" pan="0" len="12" key="64" pos="132"/>
          <note vol="100" pan="0" len="24" key="64" pos="144"/>
          <note vol="100" pan="0" len="24" key="62" pos="168"/>
          <note vol="100" pan="0" len="24" key="62" pos="216"/>
          <note vol="100" pan="0" len="24" key="65" pos="240"/>
          <note vol="100" pan="0" len="24" key="62" pos="264"/>
          <note vol="100" pan="0" len="12" key="64" pos="288"/>
          <note vol="100" pan="0" len="12" key="64" pos="300"/>
          <note vol="100" pan="0" len="24" key="64" pos="312"/>
          <note vol="100" pan="0" len="24" key="64" pos="336"/>
          <note vol="100" pan="0" len="24" key="64" pos="360"/>
          <note vol="100" pan="0" len="24" key="62" pos="384"/>
          <note vol="100" pan="0" len="24" key="65" pos="432"/>
          <note vol="100" pan="0" len="24" key="62" pos="456"/>
          <note vol="100" pan="0" len="12" key="64" pos="504"/>
          <note vol="100" pan="0" len="12" key="64" pos="516"/>
          <note vol="100" pan="0" len="24" key="64" pos="528"/>
          <note vol="100" pan="0" len="24" key="62" pos="552"/>
          <note vol="100" pan="0" len="24" key="62" pos="600"/>
          <note vol="100" pan="0" len="24" key="65" pos="624"/>
          <note vol="100" pan="0" len="24" key="62" pos="648"/>
          <note vol="100" pan="0" len="24" key="64" pos="672"/>
          <note vol="100" pan="0" len="12" key="64" pos="696"/>
          <note vol="100" pan="0" len="36" key="64" pos="708"/>
          <note vol="100" pan="0" len="24" key="64" pos="744"/>
          <note vol="100" pan="0" len="24" key="57" pos="768"/>
          <note vol="100" pan="0" len="24" key="60" pos="816"/>
          <note vol="100" pan="0" len="24" key="57" pos="840"/>
          <note vol="100" pan="0" len="12" key="59" pos="888"/>
          <note vol="100" pan="0" len="12" key="59" pos="900"/>
          <note vol="100" pan="0" len="24" key="59" pos="912"/>
          <note vol="100" pan="0" len="24" key="57" pos="936"/>
          <note vol="100" pan="0" len="24" key="57" pos="984"/>
          <note vol="100" pan="0" len="24" key="60" pos="1008"/>
          <note vol="100" pan="0" len="24" key="57" pos="1032"/>
          <note vol="100" pan="0" len="12" key="59" pos="1056"/>
          <note vol="100" pan="0" len="12" key="59" pos="1068"/>
          <note vol="100" pan="0" len="24" key="59" pos="1080"/>
          <note vol="100" pan="0" len="24" key="59" pos="1104"/>
          <note vol="100" pan="0" len="24" key="59" pos="1128"/>
          <note vol="100" pan="0" len="24" key="57" pos="1152"/>
          <note vol="100" pan="0" len="24" key="60" pos="1200"/>
          <note vol="100" pan="0" len="24" key="57" pos="1224"/>
          <note vol="100" pan="0" len="12" key="59" pos="1272"/>
          <note vol="100" pan="0" len="12" key="59" pos="1284"/>
          <note vol="100" pan="0" len="24" key="59" pos="1296"/>
          <note vol="100" pan="0" len="24" key="57" pos="1320"/>
          <note vol="100" pan="0" len="24" key="57" pos="1368"/>
          <note vol="100" pan="0" len="24" key="60" pos="1392"/>
          <note vol="100" pan="0" len="24" key="57" pos="1416"/>
          <note vol="100" pan="0" len="36" key="59" pos="1440"/>
          <note vol="100" pan="0" len="36" key="60" pos="1476"/>
          <note vol="100" pan="0" len="24" key="61" pos="1512"/>
        </pattern>
        <pattern type="1" steps="16" muted="0" name="Good Old Times" pos="7680">
          <note vol="106" pan="10" len="384" key="62" pos="0"/>
        </pattern>
        <pattern type="1" steps="16" muted="0" name="Good Old Times" pos="8064">
          <note vol="46" pan="0" len="24" key="62" pos="0"/>
          <note vol="14" pan="0" len="24" key="62" pos="24"/>
          <note vol="100" pan="0" len="24" key="65" pos="48"/>
          <note vol="100" pan="0" len="24" key="62" pos="72"/>
          <note vol="100" pan="0" len="24" key="64" pos="96"/>
          <note vol="100" pan="0" len="24" key="64" pos="120"/>
          <note vol="100" pan="0" len="24" key="64" pos="144"/>
          <note vol="100" pan="0" len="24" key="62" pos="168"/>
          <note vol="46" pan="0" len="24" key="62" pos="192"/>
          <note vol="14" pan="0" len="24" key="62" pos="216"/>
          <note vol="100" pan="0" len="24" key="65" pos="240"/>
          <note vol="100" pan="0" len="24" key="62" pos="264"/>
          <note vol="100" pan="0" len="24" key="64" pos="288"/>
          <note vol="100" pan="0" len="24" key="64" pos="312"/>
          <note vol="100" pan="0" len="24" key="64" pos="336"/>
          <note vol="100" pan="0" len="24" key="62" pos="360"/>
          <note vol="46" pan="0" len="24" key="62" pos="384"/>
          <note vol="14" pan="0" len="24" key="62" pos="408"/>
          <note vol="100" pan="0" len="24" key="65" pos="432"/>
          <note vol="100" pan="0" len="24" key="62" pos="456"/>
          <note vol="100" pan="0" len="24" key="64" pos="480"/>
          <note vol="100" pan="0" len="24" key="64" pos="504"/>
          <note vol="100" pan="0" len="24" key="64" pos="528"/>
          <note vol="100" pan="0" len="24" key="62" pos="552"/>
          <note vol="46" pan="0" len="24" key="62" pos="576"/>
          <note vol="14" pan="0" len="24" key="62" pos="600"/>
          <note vol="100" pan="0" len="24" key="65" pos="624"/>
          <note vol="100" pan="0" len="24" key="62" pos="648"/>
          <note vol="100" pan="0" len="24" key="64" pos="672"/>
          <note vol="100" pan="0" len="24" key="64" pos="696"/>
          <note vol="100" pan="0" len="24" key="64" pos="720"/>
          <note vol="100" pan="0" len="24" key="62" pos="744"/>
          <note vol="46" pan="0" len="24" key="62" pos="768"/>
          <note vol="14" pan="0" len="24" key="62" pos="792"/>
          <note vol="100" pan="0" len="24" key="65" pos="816"/>
          <note vol="100" pan="0" len="24" key="62" pos="840"/>
          <note vol="100" pan="0" len="24" key="64" pos="864"/>
          <note vol="100" pan="0" len="24" key="64" pos="888"/>
          <note vol="100" pan="0" len="24" key="64" pos="912"/>
          <note vol="100" pan="0" len="24" key="62" pos="936"/>
          <note vol="46" pan="0" len="24" key="62" pos="960"/>
          <note vol="14" pan="0" len="24" key="62" pos="984"/>
          <note vol="100" pan="0" len="24" key="65" pos="1008"/>
          <note vol="100" pan="0" len="24" key="62" pos="1032"/>
          <note vol="100" pan="0" len="24" key="64" pos="1056"/>
          <note vol="100" pan="0" len="24" key="64" pos="1080"/>
          <note vol="100" pan="0" len="24" key="64" pos="1104"/>
          <note vol="100" pan="0" len="24" key="62" pos="1128"/>
          <note vol="46" pan="0" len="24" key="62" pos="1152"/>
          <note vol="14" pan="0" len="24" key="62" pos="1176"/>
          <note vol="100" pan="0" len="24" key="65" pos="1200"/>
          <note vol="100" pan="0" len="24" key="62" pos="1224"/>
          <note vol="100" pan="0" len="24" key="64" pos="1248"/>
          <note vol="100" pan="0" len="24" key="64" pos="1272"/>
          <note vol="100" pan="0" len="24" key="64" pos="1296"/>
          <note vol="100" pan="0" len="24" key="62" pos="1320"/>
          <note vol="46" pan="0" len="24" key="62" pos="1344"/>
          <note vol="14" pan="0" len="24" key="62" pos="1368"/>
          <note vol="100" pan="0" len="24" key="65" pos="1392"/>
          <note vol="100" pan="0" len="24" key="62" pos="1416"/>
          <note vol="100" pan="0" len="24" key="64" pos="1440"/>
          <note vol="100" pan="0" len="24" key="64" pos="1464"/>
          <note vol="100" pan="0" len="24" key="64" pos="1488"/>
          <note vol="100" pan="0" len="24" key="62" pos="1512"/>
        </pattern>
        <pattern type="1" steps="16" muted="0" name="Good Old Times" pos="9600">
          <note vol="46" pan="0" len="24" key="62" pos="0"/>
          <note vol="14" pan="0" len="24" key="62" pos="24"/>
          <note vol="100" pan="0" len="24" key="65" pos="48"/>
          <note vol="100" pan="0" len="24" key="62" pos="72"/>
          <note vol="100" pan="0" len="24" key="64" pos="96"/>
          <note vol="100" pan="0" len="24" key="64" pos="120"/>
          <note vol="100" pan="0" len="24" key="64" pos="144"/>
          <note vol="100" pan="0" len="24" key="62" pos="168"/>
          <note vol="46" pan="0" len="24" key="62" pos="192"/>
          <note vol="14" pan="0" len="24" key="62" pos="216"/>
          <note vol="100" pan="0" len="24" key="65" pos="240"/>
          <note vol="100" pan="0" len="24" key="62" pos="264"/>
          <note vol="100" pan="0" len="24" key="64" pos="288"/>
          <note vol="100" pan="0" len="24" key="64" pos="312"/>
          <note vol="100" pan="0" len="24" key="64" pos="336"/>
          <note vol="100" pan="0" len="24" key="62" pos="360"/>
          <note vol="46" pan="0" len="24" key="62" pos="384"/>
          <note vol="14" pan="0" len="24" key="62" pos="408"/>
          <note vol="100" pan="0" len="24" key="65" pos="432"/>
          <note vol="100" pan="0" len="24" key="62" pos="456"/>
          <note vol="100" pan="0" len="24" key="64" pos="480"/>
          <note vol="100" pan="0" len="24" key="64" pos="504"/>
          <note vol="100" pan="0" len="24" key="64" pos="528"/>
          <note vol="100" pan="0" len="24" key="62" pos="552"/>
          <note vol="46" pan="0" len="24" key="62" pos="576"/>
          <note vol="14" pan="0" len="24" key="62" pos="600"/>
          <note vol="100" pan="0" len="24" key="65" pos="624"/>
          <note vol="100" pan="0" len="24" key="62" pos="648"/>
          <note vol="100" pan="0" len="24" key="64" pos="672"/>
          <note vol="100" pan="0" len="24" key="64" pos="696"/>
          <note vol="100" pan="0" len="24" key="64" pos="720"/>
          <note vol="100" pan="0" len="24" key="62" pos="744"/>
          <note vol="46" pan="0" len="24" key="62" pos="768"/>
          <note vol="14" pan="0" len="24" key="62" pos="792"/>
          <note vol="100" pan="0" len="24" key="65" pos="816"/>
          <note vol="100" pan="0" len="24" key="62" pos="840"/>
          <note vol="100" pan="0" len="24" key="64" pos="864"/>
          <note vol="100" pan="0" len="24" key="64" pos="888"/>
          <note vol="100" pan="0" len="24" key="64" pos="912"/>
          <note vol="100" pan="0" len="24" key="62" pos="936"/>
          <note vol="46" pan="0" len="24" key="62" pos="960"/>
          <note vol="14" pan="0" len="24" key="62" pos="984"/>
          <note vol="100" pan="0" len="24" key="65" pos="1008"/>
          <note vol="100" pan="0" len="24" key="62" pos="1032"/>
          <note vol="100" pan="0" len="24" key="64" pos="1056"/>
          <note vol="100" pan="0" len="24" key="64" pos="1080"/>
          <note vol="100" pan="0" len="24" key="64" pos="1104"/>
          <note vol="100" pan="0" len="24" key="62" pos="1128"/>
          <note vol="46" pan="0" len="24" key="62" pos="1152"/>
          <note vol="14" pan="0" len="24" key="62" pos="1176"/>
          <note vol="100" pan="0" len="24" key="65" pos="1200"/>
          <note vol="100" pan="0" len="24" key="62" pos="1224"/>
          <note vol="100" pan="0" len="24" key="64" pos="1248"/>
          <note vol="100" pan="0" len="24" key="64" pos="1272"/>
          <note vol="100" pan="0" len="24" key="64" pos="1296"/>
          <note vol="100" pan="0" len="24" key="62" pos="1320"/>
          <note vol="46" pan="0" len="24" key="62" pos="1344"/>
          <note vol="14" pan="0" len="24" key="62" pos="1368"/>
          <note vol="100" pan="0" len="24" key="65" pos="1392"/>
          <note vol="100" pan="0" len="24" key="62" pos="1416"/>
          <note vol="100" pan="0" len="24" key="64" pos="1440"/>
          <note vol="100" pan="0" len="24" key="64" pos="1464"/>
          <note vol="100" pan="0" len="24" key="64" pos="1488"/>
          <note vol="100" pan="0" len="24" key="62" pos="1512"/>
        </pattern>
      </track>
      <track type="0" solo="0" muted="0" name="Good Old Times">
        <instrumenttrack fxch="0" vol="26.4" pitchrange="1" pitch="0" pan="0" usemasterpitch="1" basenote="81">
          <instrument name="lb302">
            <lb302 vcf_dec="0.029999999" vcf_mod="0.66000003" dead="0" dist="0.11" slide="0" vcf_res="0.60000002" db24="0" slide_dec="0.53499997" shape="8">
              <vcf_cut value="0.38320309" scale_type="linear" id="5939105"/>
            </lb302>
          </instrument>
          <eldata fwet="0" fcut="14000" ftype="0" fres="0.5">
            <elvol userwavefile="" lspd_numerator="4" att="0" hold="0.5" lspd="0.1" amt="0" lpdel="0" pdel="0" lspd_syncmode="0" x100="0" latt="0" sustain="0.5" lamt="0" dec="0.5" ctlenvamt="0" lshp="0" rel="0.1" lspd_denominator="4"/>
            <elcut userwavefile="" lspd_numerator="4" att="0" hold="0.5" lspd="0.1" amt="0" lpdel="0" pdel="0" lspd_syncmode="0" x100="0" latt="0" sustain="0.5" lamt="0" dec="0.5" ctlenvamt="0" lshp="0" rel="0.1" lspd_denominator="4"/>
            <elres userwavefile="" lspd_numerator="4" att="0" hold="0.5" lspd="0.1" amt="0" lpdel="0" pdel="0" lspd_syncmode="0" x100="0" latt="0" sustain="0.5" lamt="0" dec="0.5" ctlenvamt="0" lshp="0" rel="0.1" lspd_denominator="4"/>
          </eldata>
          <chordcreator chord="0" chord-enabled="0" chordrange="1"/>
          <arpeggiator arprange="1" arpcycle="0" arpdir="0" arptime_numerator="4" arp-enabled="0" arpmode="0" arptime_denominator="4" arptime_syncmode="0" arptime="100" arpskip="0" arpmiss="0" arpgate="100" arp="0"/>
          <midiport inputchannel="0" fixedinputvelocity="-1" readable="0" fixedoutputnote="-1" fixedoutputvelocity="-1" outputchannel="1" basevelocity="127" writable="0" inputcontroller="0" outputcontroller="0" outputprogram="1"/>
          <fxchain enabled="0" numofeffects="0"/>
        </instrumenttrack>
        <pattern type="1" steps="16" muted="0" name="Good Old Times" pos="3072">
          <note vol="100" pan="0" len="24" key="50" pos="24"/>
          <note vol="100" pan="0" len="24" key="50" pos="24"/>
          <note vol="100" pan="0" len="24" key="50" pos="24"/>
          <note vol="100" pan="0" len="24" key="50" pos="24"/>
          <note vol="100" pan="0" len="24" key="50" pos="72"/>
          <note vol="100" pan="0" len="24" key="50" pos="72"/>
          <note vol="100" pan="0" len="24" key="50" pos="72"/>
          <note vol="100" pan="0" len="24" key="50" pos="72"/>
          <note vol="100" pan="0" len="24" key="50" pos="120"/>
          <note vol="100" pan="0" len="24" key="50" pos="120"/>
          <note vol="100" pan="0" len="24" key="50" pos="120"/>
          <note vol="100" pan="0" len="24" key="50" pos="120"/>
          <note vol="100" pan="0" len="24" key="50" pos="168"/>
          <note vol="100" pan="0" len="24" key="50" pos="168"/>
          <note vol="100" pan="0" len="24" key="50" pos="168"/>
          <note vol="100" pan="0" len="24" key="50" pos="168"/>
          <note vol="100" pan="0" len="24" key="50" pos="216"/>
          <note vol="100" pan="0" len="24" key="50" pos="216"/>
          <note vol="100" pan="0" len="24" key="50" pos="216"/>
          <note vol="100" pan="0" len="24" key="50" pos="216"/>
          <note vol="100" pan="0" len="24" key="50" pos="264"/>
          <note vol="100" pan="0" len="24" key="50" pos="264"/>
          <note vol="100" pan="0" len="24" key="50" pos="264"/>
          <note vol="100" pan="0" len="24" key="50" pos="264"/>
          <note vol="100" pan="0" len="24" key="50" pos="312"/>
          <note vol="100" pan="0" len="24" key="50" pos="312"/>
          <note vol="100" pan="0" len="24" key="50" pos="312"/>
          <note vol="100" pan="0" len="24" key="50" pos="312"/>
          <note vol="100" pan="0" len="24" key="50" pos="360"/>
          <note vol="100" pan="0" len="24" key="50" pos="360"/>
          <note vol="100" pan="0" len="24" key="50" pos="360"/>
          <note vol="100" pan="0" len="24" key="50" pos="360"/>
          <note vol="100" pan="0" len="24" key="50" pos="408"/>
          <note vol="100" pan="0" len="24" key="50" pos="408"/>
          <note vol="100" pan="0" len="24" key="50" pos="408"/>
          <note vol="100" pan="0" len="24" key="50" pos="408"/>
          <note vol="100" pan="0" len="24" key="50" pos="456"/>
          <note vol="100" pan="0" len="24" key="50" pos="456"/>
          <note vol="100" pan="0" len="24" key="50" pos="456"/>
          <note vol="100" pan="0" len="24" key="50" pos="456"/>
          <note vol="100" pan="0" len="24" key="50" pos="504"/>
          <note vol="100" pan="0" len="24" key="50" pos="504"/>
          <note vol="100" pan="0" len="24" key="50" pos="504"/>
          <note vol="100" pan="0" len="24" key="50" pos="504"/>
          <note vol="100" pan="0" len="24" key="50" pos="552"/>
          <note vol="100" pan="0" len="24" key="50" pos="552"/>
          <note vol="100" pan="0" len="24" key="50" pos="552"/>
          <note vol="100" pan="0" len="24" key="50" pos="552"/>
          <note vol="100" pan="0" len="24" key="50" pos="600"/>
          <note vol="100" pan="0" len="24" key="50" pos="600"/>
          <note vol="100" pan="0" len="24" key="50" pos="600"/>
          <note vol="100" pan="0" len="24" key="50" pos="600"/>
          <note vol="100" pan="0" len="24" key="50" pos="648"/>
          <note vol="100" pan="0" len="24" key="50" pos="648"/>
          <note vol="100" pan="0" len="24" key="50" pos="648"/>
          <note vol="100" pan="0" len="24" key="50" pos="648"/>
          <note vol="100" pan="0" len="24" key="50" pos="696"/>
          <note vol="100" pan="0" len="24" key="50" pos="696"/>
          <note vol="100" pan="0" len="24" key="50" pos="696"/>
          <note vol="100" pan="0" len="24" key="50" pos="696"/>
          <note vol="100" pan="0" len="24" key="50" pos="744"/>
          <note vol="100" pan="0" len="24" key="50" pos="744"/>
          <note vol="100" pan="0" len="24" key="50" pos="744"/>
          <note vol="100" pan="0" len="24" key="50" pos="744"/>
          <note vol="100" pan="0" len="24" key="45" pos="792"/>
          <note vol="100" pan="0" len="24" key="45" pos="792"/>
          <note vol="100" pan="0" len="24" key="45" pos="792"/>
          <note vol="100" pan="0" len="24" key="45" pos="792"/>
          <note vol="100" pan="0" len="24" key="45" pos="840"/>
          <note vol="100" pan="0" len="24" key="45" pos="840"/>
          <note vol="100" pan="0" len="24" key="45" pos="840"/>
          <note vol="100" pan="0" len="24" key="45" pos="840"/>
          <note vol="100" pan="0" len="24" key="45" pos="888"/>
          <note vol="100" pan="0" len="24" key="45" pos="888"/>
          <note vol="100" pan="0" len="24" key="45" pos="888"/>
          <note vol="100" pan="0" len="24" key="45" pos="888"/>
          <note vol="100" pan="0" len="24" key="45" pos="936"/>
          <note vol="100" pan="0" len="24" key="45" pos="936"/>
          <note vol="100" pan="0" len="24" key="45" pos="936"/>
          <note vol="100" pan="0" len="24" key="45" pos="936"/>
          <note vol="100" pan="0" len="24" key="45" pos="984"/>
          <note vol="100" pan="0" len="24" key="45" pos="984"/>
          <note vol="100" pan="0" len="24" key="45" pos="984"/>
          <note vol="100" pan="0" len="24" key="45" pos="984"/>
          <note vol="100" pan="0" len="24" key="45" pos="1032"/>
          <note vol="100" pan="0" len="24" key="45" pos="1032"/>
          <note vol="100" pan="0" len="24" key="45" pos="1032"/>
          <note vol="100" pan="0" len="24" key="45" pos="1032"/>
          <note vol="100" pan="0" len="24" key="45" pos="1080"/>
          <note vol="100" pan="0" len="24" key="45" pos="1080"/>
          <note vol="100" pan="0" len="24" key="45" pos="1080"/>
          <note vol="100" pan="0" len="24" key="45" pos="1080"/>
          <note vol="100" pan="0" len="24" key="45" pos="1128"/>
          <note vol="100" pan="0" len="24" key="45" pos="1128"/>
          <note vol="100" pan="0" len="24" key="45" pos="1128"/>
          <note vol="100" pan="0" len="24" key="45" pos="1128"/>
          <note vol="100" pan="0" len="24" key="45" pos="1176"/>
          <note vol="100" pan="0" len="24" key="45" pos="1176"/>
          <note vol="100" pan="0" len="24" key="45" pos="1176"/>
          <note vol="100" pan="0" len="24" key="45" pos="1176"/>
          <note vol="100" pan="0" len="24" key="45" pos="1224"/>
          <note vol="100" pan="0" len="24" key="45" pos="1224"/>
          <note vol="100" pan="0" len="24" key="45" pos="1224"/>
          <note vol="100" pan="0" len="24" key="45" pos="1224"/>
          <note vol="100" pan="0" len="24" key="45" pos="1272"/>
          <note vol="100" pan="0" len="24" key="45" pos="1272"/>
          <note vol="100" pan="0" len="24" key="45" pos="1272"/>
          <note vol="100" pan="0" len="24" key="45" pos="1272"/>
          <note vol="100" pan="0" len="24" key="45" pos="1320"/>
          <note vol="100" pan="0" len="24" key="45" pos="1320"/>
          <note vol="100" pan="0" len="24" key="45" pos="1320"/>
          <note vol="100" pan="0" len="24" key="45" pos="1320"/>
          <note vol="100" pan="0" len="24" key="45" pos="1368"/>
          <note vol="100" pan="0" len="24" key="45" pos="1368"/>
          <note vol="100" pan="0" len="24" key="45" pos="1368"/>
          <note vol="100" pan="0" len="24" key="45" pos="1368"/>
          <note vol="100" pan="0" len="24" key="45" pos="1416"/>
          <note vol="100" pan="0" len="24" key="45" pos="1416"/>
          <note vol="100" pan="0" len="24" key="45" pos="1416"/>
          <note vol="100" pan="0" len="24" key="45" pos="1416"/>
          <note vol="100" pan="0" len="24" key="45" pos="1464"/>
          <note vol="100" pan="0" len="24" key="45" pos="1464"/>
          <note vol="100" pan="0" len="24" key="45" pos="1464"/>
          <note vol="100" pan="0" len="24" key="45" pos="1464"/>
          <note vol="100" pan="0" len="24" key="45" pos="1512"/>
          <note vol="100" pan="0" len="24" key="45" pos="1512"/>
          <note vol="100" pan="0" len="24" key="45" pos="1512"/>
          <note vol="100" pan="0" len="24" key="45" pos="1512"/>
        </pattern>
        <pattern type="1" steps="16" muted="0" name="Good Old Times" pos="4608">
          <note vol="100" pan="0" len="24" key="50" pos="24"/>
          <note vol="100" pan="0" len="24" key="50" pos="24"/>
          <note vol="100" pan="0" len="24" key="50" pos="24"/>
          <note vol="100" pan="0" len="24" key="50" pos="24"/>
          <note vol="100" pan="0" len="24" key="50" pos="72"/>
          <note vol="100" pan="0" len="24" key="50" pos="72"/>
          <note vol="100" pan="0" len="24" key="50" pos="72"/>
          <note vol="100" pan="0" len="24" key="50" pos="72"/>
          <note vol="100" pan="0" len="24" key="50" pos="120"/>
          <note vol="100" pan="0" len="24" key="50" pos="120"/>
          <note vol="100" pan="0" len="24" key="50" pos="120"/>
          <note vol="100" pan="0" len="24" key="50" pos="120"/>
          <note vol="100" pan="0" len="24" key="50" pos="168"/>
          <note vol="100" pan="0" len="24" key="50" pos="168"/>
          <note vol="100" pan="0" len="24" key="50" pos="168"/>
          <note vol="100" pan="0" len="24" key="50" pos="168"/>
          <note vol="100" pan="0" len="24" key="50" pos="216"/>
          <note vol="100" pan="0" len="24" key="50" pos="216"/>
          <note vol="100" pan="0" len="24" key="50" pos="216"/>
          <note vol="100" pan="0" len="24" key="50" pos="216"/>
          <note vol="100" pan="0" len="24" key="50" pos="264"/>
          <note vol="100" pan="0" len="24" key="50" pos="264"/>
          <note vol="100" pan="0" len="24" key="50" pos="264"/>
          <note vol="100" pan="0" len="24" key="50" pos="264"/>
          <note vol="100" pan="0" len="24" key="50" pos="312"/>
          <note vol="100" pan="0" len="24" key="50" pos="312"/>
          <note vol="100" pan="0" len="24" key="50" pos="312"/>
          <note vol="100" pan="0" len="24" key="50" pos="312"/>
          <note vol="100" pan="0" len="24" key="50" pos="360"/>
          <note vol="100" pan="0" len="24" key="50" pos="360"/>
          <note vol="100" pan="0" len="24" key="50" pos="360"/>
          <note vol="100" pan="0" len="24" key="50" pos="360"/>
          <note vol="100" pan="0" len="24" key="50" pos="408"/>
          <note vol="100" pan="0" len="24" key="50" pos="408"/>
          <note vol="100" pan="0" len="24" key="50" pos="408"/>
          <note vol="100" pan="0" len="24" key="50" pos="408"/>
          <note vol="100" pan="0" len="24" key="50" pos="456"/>
          <note vol="100" pan="0" len="24" key="50" pos="456"/>
          <note vol="100" pan="0" len="24" key="50" pos="456"/>
          <note vol="100" pan="0" len="24" key="50" pos="456"/>
          <note vol="100" pan="0" len="24" key="50" pos="504"/>
          <note vol="100" pan="0" len="24" key="50" pos="504"/>
          <note vol="100" pan="0" len="24" key="50" pos="504"/>
          <note vol="100" pan="0" len="24" key="50" pos="504"/>
          <note vol="100" pan="0" len="24" key="50" pos="552"/>
          <note vol="100" pan="0" len="24" key="50" pos="552"/>
          <note vol="100" pan="0" len="24" key="50" pos="552"/>
          <note vol="100" pan="0" len="24" key="50" pos="552"/>
          <note vol="100" pan="0" len="24" key="50" pos="600"/>
          <note vol="100" pan="0" len="24" key="50" pos="600"/>
          <note vol="100" pan="0" len="24" key="50" pos="600"/>
          <note vol="100" pan="0" len="24" key="50" pos="600"/>
          <note vol="100" pan="0" len="24" key="50" pos="648"/>
          <note vol="100" pan="0" len="24" key="50" pos="648"/>
          <note vol="100" pan="0" len="24" key="50" pos="648"/>
          <note vol="100" pan="0" len="24" key="50" pos="648"/>
          <note vol="100" pan="0" len="24" key="50" pos="696"/>
          <note vol="100" pan="0" len="24" key="50" pos="696"/>
          <note vol="100" pan="0" len="24" key="50" pos="696"/>
          <note vol="100" pan="0" len="24" key="50" pos="696"/>
          <note vol="100" pan="0" len="24" key="50" pos="744"/>
          <note vol="100" pan="0" len="24" key="50" pos="744"/>
          <note vol="100" pan="0" len="24" key="50" pos="744"/>
          <note vol="100" pan="0" len="24" key="50" pos="744"/>
          <note vol="100" pan="0" len="24" key="45" pos="792"/>
          <note vol="100" pan="0" len="24" key="45" pos="792"/>
          <note vol="100" pan="0" len="24" key="45" pos="792"/>
          <note vol="100" pan="0" len="24" key="45" pos="792"/>
          <note vol="100" pan="0" len="24" key="45" pos="840"/>
          <note vol="100" pan="0" len="24" key="45" pos="840"/>
          <note vol="100" pan="0" len="24" key="45" pos="840"/>
          <note vol="100" pan="0" len="24" key="45" pos="840"/>
          <note vol="100" pan="0" len="24" key="45" pos="888"/>
          <note vol="100" pan="0" len="24" key="45" pos="888"/>
          <note vol="100" pan="0" len="24" key="45" pos="888"/>
          <note vol="100" pan="0" len="24" key="45" pos="888"/>
          <note vol="100" pan="0" len="24" key="45" pos="936"/>
          <note vol="100" pan="0" len="24" key="45" pos="936"/>
          <note vol="100" pan="0" len="24" key="45" pos="936"/>
          <note vol="100" pan="0" len="24" key="45" pos="936"/>
          <note vol="100" pan="0" len="24" key="45" pos="984"/>
          <note vol="100" pan="0" len="24" key="45" pos="984"/>
          <note vol="100" pan="0" len="24" key="45" pos="984"/>
          <note vol="100" pan="0" len="24" key="45" pos="984"/>
          <note vol="100" pan="0" len="24" key="45" pos="1032"/>
          <note vol="100" pan="0" len="24" key="45" pos="1032"/>
          <note vol="100" pan="0" len="24" key="45" pos="1032"/>
          <note vol="100" pan="0" len="24" key="45" pos="1032"/>
          <note vol="100" pan="0" len="24" key="45" pos="1080"/>
          <note vol="100" pan="0" len="24" key="45" pos="1080"/>
          <note vol="100" pan="0" len="24" key="45" pos="1080"/>
          <note vol="100" pan="0" len="24" key="45" pos="1080"/>
          <note vol="100" pan="0" len="24" key="45" pos="1128"/>
          <note vol="100" pan="0" len="24" key="45" pos="1128"/>
          <note vol="100" pan="0" len="24" key="45" pos="1128"/>
          <note vol="100" pan="0" len="24" key="45" pos="1128"/>
          <note vol="100" pan="0" len="24" key="45" pos="1176"/>
          <note vol="100" pan="0" len="24" key="45" pos="1176"/>
          <note vol="100" pan="0" len="24" key="45" pos="1176"/>
          <note vol="100" pan="0" len="24" key="45" pos="1176"/>
          <note vol="100" pan="0" len="24" key="45" pos="1224"/>
          <note vol="100" pan="0" len="24" key="45" pos="1224"/>
          <note vol="100" pan="0" len="24" key="45" pos="1224"/>
          <note vol="100" pan="0" len="24" key="45" pos="1224"/>
          <note vol="100" pan="0" len="24" key="45" pos="1272"/>
          <note vol="100" pan="0" len="24" key="45" pos="1272"/>
          <note vol="100" pan="0" len="24" key="45" pos="1272"/>
          <note vol="100" pan="0" len="24" key="45" pos="1272"/>
          <note vol="100" pan="0" len="24" key="45" pos="1320"/>
          <note vol="100" pan="0" len="24" key="45" pos="1320"/>
          <note vol="100" pan="0" len="24" key="45" pos="1320"/>
          <note vol="100" pan="0" len="24" key="45" pos="1320"/>
          <note vol="100" pan="0" len="24" key="45" pos="1368"/>
          <note vol="100" pan="0" len="24" key="45" pos="1368"/>
          <note vol="100" pan="0" len="24" key="45" pos="1368"/>
          <note vol="100" pan="0" len="24" key="45" pos="1368"/>
          <note vol="100" pan="0" len="24" key="45" pos="1416"/>
          <note vol="100" pan="0" len="24" key="45" pos="1416"/>
          <note vol="100" pan="0" len="24" key="45" pos="1416"/>
          <note vol="100" pan="0" len="24" key="45" pos="1416"/>
          <note vol="100" pan="0" len="24" key="45" pos="1464"/>
          <note vol="100" pan="0" len="24" key="45" pos="1464"/>
          <note vol="100" pan="0" len="24" key="45" pos="1464"/>
          <note vol="100" pan="0" len="24" key="45" pos="1464"/>
          <note vol="100" pan="0" len="24" key="45" pos="1512"/>
          <note vol="100" pan="0" len="24" key="45" pos="1512"/>
          <note vol="100" pan="0" len="24" key="45" pos="1512"/>
          <note vol="100" pan="0" len="24" key="45" pos="1512"/>
        </pattern>
        <pattern type="1" steps="16" muted="0" name="Good Old Times" pos="6144">
          <note vol="100" pan="0" len="24" key="50" pos="24"/>
          <note vol="100" pan="0" len="24" key="50" pos="24"/>
          <note vol="100" pan="0" len="24" key="50" pos="24"/>
          <note vol="100" pan="0" len="24" key="50" pos="24"/>
          <note vol="100" pan="0" len="24" key="50" pos="72"/>
          <note vol="100" pan="0" len="24" key="50" pos="72"/>
          <note vol="100" pan="0" len="24" key="50" pos="72"/>
          <note vol="100" pan="0" len="24" key="50" pos="72"/>
          <note vol="100" pan="0" len="24" key="50" pos="120"/>
          <note vol="100" pan="0" len="24" key="50" pos="120"/>
          <note vol="100" pan="0" len="24" key="50" pos="120"/>
          <note vol="100" pan="0" len="24" key="50" pos="120"/>
          <note vol="100" pan="0" len="24" key="50" pos="168"/>
          <note vol="100" pan="0" len="24" key="50" pos="168"/>
          <note vol="100" pan="0" len="24" key="50" pos="168"/>
          <note vol="100" pan="0" len="24" key="50" pos="168"/>
          <note vol="100" pan="0" len="24" key="50" pos="216"/>
          <note vol="100" pan="0" len="24" key="50" pos="216"/>
          <note vol="100" pan="0" len="24" key="50" pos="216"/>
          <note vol="100" pan="0" len="24" key="50" pos="216"/>
          <note vol="100" pan="0" len="24" key="50" pos="264"/>
          <note vol="100" pan="0" len="24" key="50" pos="264"/>
          <note vol="100" pan="0" len="24" key="50" pos="264"/>
          <note vol="100" pan="0" len="24" key="50" pos="264"/>
          <note vol="100" pan="0" len="24" key="50" pos="312"/>
          <note vol="100" pan="0" len="24" key="50" pos="312"/>
          <note vol="100" pan="0" len="24" key="50" pos="312"/>
          <note vol="100" pan="0" len="24" key="50" pos="312"/>
          <note vol="100" pan="0" len="24" key="50" pos="360"/>
          <note vol="100" pan="0" len="24" key="50" pos="360"/>
          <note vol="100" pan="0" len="24" key="50" pos="360"/>
          <note vol="100" pan="0" len="24" key="50" pos="360"/>
          <note vol="100" pan="0" len="24" key="50" pos="408"/>
          <note vol="100" pan="0" len="24" key="50" pos="408"/>
          <note vol="100" pan="0" len="24" key="50" pos="408"/>
          <note vol="100" pan="0" len="24" key="50" pos="408"/>
          <note vol="100" pan="0" len="24" key="50" pos="456"/>
          <note vol="100" pan="0" len="24" key="50" pos="456"/>
          <note vol="100" pan="0" len="24" key="50" pos="456"/>
          <note vol="100" pan="0" len="24" key="50" pos="456"/>
          <note vol="100" pan="0" len="24" key="50" pos="504"/>
          <note vol="100" pan="0" len="24" key="50" pos="504"/>
          <note vol="100" pan="0" len="24" key="50" pos="504"/>
          <note vol="100" pan="0" len="24" key="50" pos="504"/>
          <note vol="100" pan="0" len="24" key="50" pos="552"/>
          <note vol="100" pan="0" len="24" key="50" pos="552"/>
          <note vol="100" pan="0" len="24" key="50" pos="552"/>
          <note vol="100" pan="0" len="24" key="50" pos="552"/>
          <note vol="100" pan="0" len="24" key="50" pos="600"/>
          <note vol="100" pan="0" len="24" key="50" pos="600"/>
          <note vol="100" pan="0" len="24" key="50" pos="600"/>
          <note vol="100" pan="0" len="24" key="50" pos="600"/>
          <note vol="100" pan="0" len="24" key="50" pos="648"/>
          <note vol="100" pan="0" len="24" key="50" pos="648"/>
          <note vol="100" pan="0" len="24" key="50" pos="648"/>
          <note vol="100" pan="0" len="24" key="50" pos="648"/>
          <note vol="100" pan="0" len="24" key="50" pos="696"/>
          <note vol="100" pan="0" len="24" key="50" pos="696"/>
          <note vol="100" pan="0" len="24" key="50" pos="696"/>
          <note vol="100" pan="0" len="24" key="50" pos="696"/>
          <note vol="100" pan="0" len="24" key="50" pos="744"/>
          <note vol="100" pan="0" len="24" key="50" pos="744"/>
          <note vol="100" pan="0" len="24" key="50" pos="744"/>
          <note vol="100" pan="0" len="24" key="50" pos="744"/>
          <note vol="100" pan="0" len="24" key="45" pos="792"/>
          <note vol="100" pan="0" len="24" key="45" pos="792"/>
          <note vol="100" pan="0" len="24" key="45" pos="792"/>
          <note vol="100" pan="0" len="24" key="45" pos="792"/>
          <note vol="100" pan="0" len="24" key="45" pos="840"/>
          <note vol="100" pan="0" len="24" key="45" pos="840"/>
          <note vol="100" pan="0" len="24" key="45" pos="840"/>
          <note vol="100" pan="0" len="24" key="45" pos="840"/>
          <note vol="100" pan="0" len="24" key="45" pos="888"/>
          <note vol="100" pan="0" len="24" key="45" pos="888"/>
          <note vol="100" pan="0" len="24" key="45" pos="888"/>
          <note vol="100" pan="0" len="24" key="45" pos="888"/>
          <note vol="100" pan="0" len="24" key="45" pos="936"/>
          <note vol="100" pan="0" len="24" key="45" pos="936"/>
          <note vol="100" pan="0" len="24" key="45" pos="936"/>
          <note vol="100" pan="0" len="24" key="45" pos="936"/>
          <note vol="100" pan="0" len="24" key="45" pos="984"/>
          <note vol="100" pan="0" len="24" key="45" pos="984"/>
          <note vol="100" pan="0" len="24" key="45" pos="984"/>
          <note vol="100" pan="0" len="24" key="45" pos="984"/>
          <note vol="100" pan="0" len="24" key="45" pos="1032"/>
          <note vol="100" pan="0" len="24" key="45" pos="1032"/>
          <note vol="100" pan="0" len="24" key="45" pos="1032"/>
          <note vol="100" pan="0" len="24" key="45" pos="1032"/>
          <note vol="100" pan="0" len="24" key="45" pos="1080"/>
          <note vol="100" pan="0" len="24" key="45" pos="1080"/>
          <note vol="100" pan="0" len="24" key="45" pos="1080"/>
          <note vol="100" pan="0" len="24" key="45" pos="1080"/>
          <note vol="100" pan="0" len="24" key="45" pos="1128"/>
          <note vol="100" pan="0" len="24" key="45" pos="1128"/>
          <note vol="100" pan="0" len="24" key="45" pos="1128"/>
          <note vol="100" pan="0" len="24" key="45" pos="1128"/>
          <note vol="100" pan="0" len="24" key="45" pos="1176"/>
          <note vol="100" pan="0" len="24" key="45" pos="1176"/>
          <note vol="100" pan="0" len="24" key="45" pos="1176"/>
          <note vol="100" pan="0" len="24" key="45" pos="1176"/>
          <note vol="100" pan="0" len="24" key="45" pos="1224"/>
          <note vol="100" pan="0" len="24" key="45" pos="1224"/>
          <note vol="100" pan="0" len="24" key="45" pos="1224"/>
          <note vol="100" pan="0" len="24" key="45" pos="1224"/>
          <note vol="100" pan="0" len="24" key="45" pos="1272"/>
          <note vol="100" pan="0" len="24" key="45" pos="1272"/>
          <note vol="100" pan="0" len="24" key="45" pos="1272"/>
          <note vol="100" pan="0" len="24" key="45" pos="1272"/>
          <note vol="100" pan="0" len="24" key="45" pos="1320"/>
          <note vol="100" pan="0" len="24" key="45" pos="1320"/>
          <note vol="100" pan="0" len="24" key="45" pos="1320"/>
          <note vol="100" pan="0" len="24" key="45" pos="1320"/>
          <note vol="100" pan="0" len="24" key="45" pos="1368"/>
          <note vol="100" pan="0" len="24" key="45" pos="1368"/>
          <note vol="100" pan="0" len="24" key="45" pos="1368"/>
          <note vol="100" pan="0" len="24" key="45" pos="1368"/>
          <note vol="100" pan="0" len="24" key="45" pos="1416"/>
          <note vol="100" pan="0" len="24" key="45" pos="1416"/>
          <note vol="100" pan="0" len="24" key="45" pos="1416"/>
          <note vol="100" pan="0" len="24" key="45" pos="1416"/>
          <note vol="100" pan="0" len="24" key="45" pos="1464"/>
          <note vol="100" pan="0" len="24" key="45" pos="1464"/>
          <note vol="100" pan="0" len="24" key="45" pos="1464"/>
          <note vol="100" pan="0" len="24" key="45" pos="1464"/>
          <note vol="100" pan="0" len="24" key="45" pos="1512"/>
          <note vol="100" pan="0" len="24" key="45" pos="1512"/>
          <note vol="100" pan="0" len="24" key="45" pos="1512"/>
          <note vol="100" pan="0" len="24" key="45" pos="1512"/>
        </pattern>
        <pattern type="1" steps="16" muted="0" name="Good Old Times" pos="7680">
          <note vol="106" pan="10" len="384" key="62" pos="0"/>
        </pattern>
        <pattern type="1" steps="16" muted="0" name="" pos="8064">
          <note vol="100" pan="0" len="24" key="50" pos="24"/>
          <note vol="100" pan="0" len="24" key="50" pos="24"/>
          <note vol="100" pan="0" len="24" key="50" pos="24"/>
          <note vol="100" pan="0" len="24" key="50" pos="24"/>
          <note vol="100" pan="0" len="24" key="50" pos="72"/>
          <note vol="100" pan="0" len="24" key="50" pos="72"/>
          <note vol="100" pan="0" len="24" key="50" pos="72"/>
          <note vol="100" pan="0" len="24" key="50" pos="72"/>
          <note vol="100" pan="0" len="24" key="50" pos="120"/>
          <note vol="100" pan="0" len="24" key="50" pos="120"/>
          <note vol="100" pan="0" len="24" key="50" pos="120"/>
          <note vol="100" pan="0" len="24" key="50" pos="120"/>
          <note vol="100" pan="0" len="24" key="50" pos="168"/>
          <note vol="100" pan="0" len="24" key="50" pos="168"/>
          <note vol="100" pan="0" len="24" key="50" pos="168"/>
          <note vol="100" pan="0" len="24" key="50" pos="168"/>
          <note vol="100" pan="0" len="24" key="50" pos="216"/>
          <note vol="100" pan="0" len="24" key="50" pos="216"/>
          <note vol="100" pan="0" len="24" key="50" pos="216"/>
          <note vol="100" pan="0" len="24" key="50" pos="216"/>
          <note vol="100" pan="0" len="24" key="50" pos="264"/>
          <note vol="100" pan="0" len="24" key="50" pos="264"/>
          <note vol="100" pan="0" len="24" key="50" pos="264"/>
          <note vol="100" pan="0" len="24" key="50" pos="264"/>
          <note vol="100" pan="0" len="24" key="50" pos="312"/>
          <note vol="100" pan="0" len="24" key="50" pos="312"/>
          <note vol="100" pan="0" len="24" key="50" pos="312"/>
          <note vol="100" pan="0" len="24" key="50" pos="312"/>
          <note vol="100" pan="0" len="24" key="50" pos="360"/>
          <note vol="100" pan="0" len="24" key="50" pos="360"/>
          <note vol="100" pan="0" len="24" key="50" pos="360"/>
          <note vol="100" pan="0" len="24" key="50" pos="360"/>
          <note vol="100" pan="0" len="24" key="50" pos="408"/>
          <note vol="100" pan="0" len="24" key="50" pos="408"/>
          <note vol="100" pan="0" len="24" key="50" pos="408"/>
          <note vol="100" pan="0" len="24" key="50" pos="408"/>
          <note vol="100" pan="0" len="24" key="50" pos="456"/>
          <note vol="100" pan="0" len="24" key="50" pos="456"/>
          <note vol="100" pan="0" len="24" key="50" pos="456"/>
          <note vol="100" pan="0" len="24" key="50" pos="456"/>
          <note vol="100" pan="0" len="24" key="50" pos="504"/>
          <note vol="100" pan="0" len="24" key="50" pos="504"/>
          <note vol="100" pan="0" len="24" key="50" pos="504"/>
          <note vol="100" pan="0" len="24" key="50" pos="504"/>
          <note vol="100" pan="0" len="24" key="50" pos="552"/>
          <note vol="100" pan="0" len="24" key="50" pos="552"/>
          <note vol="100" pan="0" len="24" key="50" pos="552"/>
          <note vol="100" pan="0" len="24" key="50" pos="552"/>
          <note vol="100" pan="0" len="24" key="50" pos="600"/>
          <note vol="100" pan="0" len="24" key="50" pos="600"/>
          <note vol="100" pan="0" len="24" key="50" pos="600"/>
          <note vol="100" pan="0" len="24" key="50" pos="600"/>
          <note vol="100" pan="0" len="24" key="50" pos="648"/>
          <note vol="100" pan="0" len="24" key="50" pos="648"/>
          <note vol="100" pan="0" len="24" key="50" pos="648"/>
          <note vol="100" pan="0" len="24" key="50" pos="648"/>
          <note vol="100" pan="0" len="24" key="50" pos="696"/>
          <note vol="100" pan="0" len="24" key="50" pos="696"/>
          <note vol="100" pan="0" len="24" key="50" pos="696"/>
          <note vol="100" pan="0" len="24" key="50" pos="696"/>
          <note vol="100" pan="0" len="24" key="50" pos="744"/>
          <note vol="100" pan="0" len="24" key="50" pos="744"/>
          <note vol="100" pan="0" len="24" key="50" pos="744"/>
          <note vol="100" pan="0" len="24" key="50" pos="744"/>
          <note vol="100" pan="0" len="24" key="45" pos="792"/>
          <note vol="100" pan="0" len="24" key="45" pos="792"/>
          <note vol="100" pan="0" len="24" key="45" pos="792"/>
          <note vol="100" pan="0" len="24" key="45" pos="792"/>
          <note vol="100" pan="0" len="24" key="45" pos="840"/>
          <note vol="100" pan="0" len="24" key="45" pos="840"/>
          <note vol="100" pan="0" len="24" key="45" pos="840"/>
          <note vol="100" pan="0" len="24" key="45" pos="840"/>
          <note vol="100" pan="0" len="24" key="45" pos="888"/>
          <note vol="100" pan="0" len="24" key="45" pos="888"/>
          <note vol="100" pan="0" len="24" key="45" pos="888"/>
          <note vol="100" pan="0" len="24" key="45" pos="888"/>
          <note vol="100" pan="0" len="24" key="45" pos="936"/>
          <note vol="100" pan="0" len="24" key="45" pos="936"/>
          <note vol="100" pan="0" len="24" key="45" pos="936"/>
          <note vol="100" pan="0" len="24" key="45" pos="936"/>
          <note vol="100" pan="0" len="24" key="45" pos="984"/>
          <note vol="100" pan="0" len="24" key="45" pos="984"/>
          <note vol="100" pan="0" len="24" key="45" pos="984"/>
          <note vol="100" pan="0" len="24" key="45" pos="984"/>
          <note vol="100" pan="0" len="24" key="45" pos="1032"/>
          <note vol="100" pan="0" len="24" key="45" pos="1032"/>
          <note vol="100" pan="0" len="24" key="45" pos="1032"/>
          <note vol="100" pan="0" len="24" key="45" pos="1032"/>
          <note vol="100" pan="0" len="24" key="45" pos="1080"/>
          <note vol="100" pan="0" len="24" key="45" pos="1080"/>
          <note vol="100" pan="0" len="24" key="45" pos="1080"/>
          <note vol="100" pan="0" len="24" key="45" pos="1080"/>
          <note vol="100" pan="0" len="24" key="45" pos="1128"/>
          <note vol="100" pan="0" len="24" key="45" pos="1128"/>
          <note vol="100" pan="0" len="24" key="45" pos="1128"/>
          <note vol="100" pan="0" len="24" key="45" pos="1128"/>
          <note vol="100" pan="0" len="24" key="45" pos="1176"/>
          <note vol="100" pan="0" len="24" key="45" pos="1176"/>
          <note vol="100" pan="0" len="24" key="45" pos="1176"/>
          <note vol="100" pan="0" len="24" key="45" pos="1176"/>
          <note vol="100" pan="0" len="24" key="45" pos="1224"/>
          <note vol="100" pan="0" len="24" key="45" pos="1224"/>
          <note vol="100" pan="0" len="24" key="45" pos="1224"/>
          <note vol="100" pan="0" len="24" key="45" pos="1224"/>
          <note vol="100" pan="0" len="24" key="45" pos="1272"/>
          <note vol="100" pan="0" len="24" key="45" pos="1272"/>
          <note vol="100" pan="0" len="24" key="45" pos="1272"/>
          <note vol="100" pan="0" len="24" key="45" pos="1272"/>
          <note vol="100" pan="0" len="24" key="45" pos="1320"/>
          <note vol="100" pan="0" len="24" key="45" pos="1320"/>
          <note vol="100" pan="0" len="24" key="45" pos="1320"/>
          <note vol="100" pan="0" len="24" key="45" pos="1320"/>
          <note vol="100" pan="0" len="24" key="45" pos="1368"/>
          <note vol="100" pan="0" len="24" key="45" pos="1368"/>
          <note vol="100" pan="0" len="24" key="45" pos="1368"/>
          <note vol="100" pan="0" len="24" key="45" pos="1368"/>
          <note vol="100" pan="0" len="24" key="45" pos="1416"/>
          <note vol="100" pan="0" len="24" key="45" pos="1416"/>
          <note vol="100" pan="0" len="24" key="45" pos="1416"/>
          <note vol="100" pan="0" len="24" key="45" pos="1416"/>
          <note vol="100" pan="0" len="24" key="45" pos="1464"/>
          <note vol="100" pan="0" len="24" key="45" pos="1464"/>
          <note vol="100" pan="0" len="24" key="45" pos="1464"/>
          <note vol="100" pan="0" len="24" key="45" pos="1464"/>
          <note vol="100" pan="0" len="24" key="45" pos="1512"/>
          <note vol="100" pan="0" len="24" key="45" pos="1512"/>
          <note vol="100" pan="0" len="24" key="45" pos="1512"/>
          <note vol="100" pan="0" len="24" key="45" pos="1512"/>
        </pattern>
        <pattern type="1" steps="16" muted="0" name="" pos="9600">
          <note vol="100" pan="0" len="24" key="50" pos="24"/>
          <note vol="100" pan="0" len="24" key="50" pos="24"/>
          <note vol="100" pan="0" len="24" key="50" pos="24"/>
          <note vol="100" pan="0" len="24" key="50" pos="24"/>
          <note vol="100" pan="0" len="24" key="50" pos="72"/>
          <note vol="100" pan="0" len="24" key="50" pos="72"/>
          <note vol="100" pan="0" len="24" key="50" pos="72"/>
          <note vol="100" pan="0" len="24" key="50" pos="72"/>
          <note vol="100" pan="0" len="24" key="50" pos="120"/>
          <note vol="100" pan="0" len="24" key="50" pos="120"/>
          <note vol="100" pan="0" len="24" key="50" pos="120"/>
          <note vol="100" pan="0" len="24" key="50" pos="120"/>
          <note vol="100" pan="0" len="24" key="50" pos="168"/>
          <note vol="100" pan="0" len="24" key="50" pos="168"/>
          <note vol="100" pan="0" len="24" key="50" pos="168"/>
          <note vol="100" pan="0" len="24" key="50" pos="168"/>
          <note vol="100" pan="0" len="24" key="50" pos="216"/>
          <note vol="100" pan="0" len="24" key="50" pos="216"/>
          <note vol="100" pan="0" len="24" key="50" pos="216"/>
          <note vol="100" pan="0" len="24" key="50" pos="216"/>
          <note vol="100" pan="0" len="24" key="50" pos="264"/>
          <note vol="100" pan="0" len="24" key="50" pos="264"/>
          <note vol="100" pan="0" len="24" key="50" pos="264"/>
          <note vol="100" pan="0" len="24" key="50" pos="264"/>
          <note vol="100" pan="0" len="24" key="50" pos="312"/>
          <note vol="100" pan="0" len="24" key="50" pos="312"/>
          <note vol="100" pan="0" len="24" key="50" pos="312"/>
          <note vol="100" pan="0" len="24" key="50" pos="312"/>
          <note vol="100" pan="0" len="24" key="50" pos="360"/>
          <note vol="100" pan="0" len="24" key="50" pos="360"/>
          <note vol="100" pan="0" len="24" key="50" pos="360"/>
          <note vol="100" pan="0" len="24" key="50" pos="360"/>
          <note vol="100" pan="0" len="24" key="50" pos="408"/>
          <note vol="100" pan="0" len="24" key="50" pos="408"/>
          <note vol="100" pan="0" len="24" key="50" pos="408"/>
          <note vol="100" pan="0" len="24" key="50" pos="408"/>
          <note vol="100" pan="0" len="24" key="50" pos="456"/>
          <note vol="100" pan="0" len="24" key="50" pos="456"/>
          <note vol="100" pan="0" len="24" key="50" pos="456"/>
          <note vol="100" pan="0" len="24" key="50" pos="456"/>
          <note vol="100" pan="0" len="24" key="50" pos="504"/>
          <note vol="100" pan="0" len="24" key="50" pos="504"/>
          <note vol="100" pan="0" len="24" key="50" pos="504"/>
          <note vol="100" pan="0" len="24" key="50" pos="504"/>
          <note vol="100" pan="0" len="24" key="50" pos="552"/>
          <note vol="100" pan="0" len="24" key="50" pos="552"/>
          <note vol="100" pan="0" len="24" key="50" pos="552"/>
          <note vol="100" pan="0" len="24" key="50" pos="552"/>
          <note vol="100" pan="0" len="24" key="50" pos="600"/>
          <note vol="100" pan="0" len="24" key="50" pos="600"/>
          <note vol="100" pan="0" len="24" key="50" pos="600"/>
          <note vol="100" pan="0" len="24" key="50" pos="600"/>
          <note vol="100" pan="0" len="24" key="50" pos="648"/>
          <note vol="100" pan="0" len="24" key="50" pos="648"/>
          <note vol="100" pan="0" len="24" key="50" pos="648"/>
          <note vol="100" pan="0" len="24" key="50" pos="648"/>
          <note vol="100" pan="0" len="24" key="50" pos="696"/>
          <note vol="100" pan="0" len="24" key="50" pos="696"/>
          <note vol="100" pan="0" len="24" key="50" pos="696"/>
          <note vol="100" pan="0" len="24" key="50" pos="696"/>
          <note vol="100" pan="0" len="24" key="50" pos="744"/>
          <note vol="100" pan="0" len="24" key="50" pos="744"/>
          <note vol="100" pan="0" len="24" key="50" pos="744"/>
          <note vol="100" pan="0" len="24" key="50" pos="744"/>
          <note vol="100" pan="0" len="24" key="45" pos="792"/>
          <note vol="100" pan="0" len="24" key="45" pos="792"/>
          <note vol="100" pan="0" len="24" key="45" pos="792"/>
          <note vol="100" pan="0" len="24" key="45" pos="792"/>
          <note vol="100" pan="0" len="24" key="45" pos="840"/>
          <note vol="100" pan="0" len="24" key="45" pos="840"/>
          <note vol="100" pan="0" len="24" key="45" pos="840"/>
          <note vol="100" pan="0" len="24" key="45" pos="840"/>
          <note vol="100" pan="0" len="24" key="45" pos="888"/>
          <note vol="100" pan="0" len="24" key="45" pos="888"/>
          <note vol="100" pan="0" len="24" key="45" pos="888"/>
          <note vol="100" pan="0" len="24" key="45" pos="888"/>
          <note vol="100" pan="0" len="24" key="45" pos="936"/>
          <note vol="100" pan="0" len="24" key="45" pos="936"/>
          <note vol="100" pan="0" len="24" key="45" pos="936"/>
          <note vol="100" pan="0" len="24" key="45" pos="936"/>
          <note vol="100" pan="0" len="24" key="45" pos="984"/>
          <note vol="100" pan="0" len="24" key="45" pos="984"/>
          <note vol="100" pan="0" len="24" key="45" pos="984"/>
          <note vol="100" pan="0" len="24" key="45" pos="984"/>
          <note vol="100" pan="0" len="24" key="45" pos="1032"/>
          <note vol="100" pan="0" len="24" key="45" pos="1032"/>
          <note vol="100" pan="0" len="24" key="45" pos="1032"/>
          <note vol="100" pan="0" len="24" key="45" pos="1032"/>
          <note vol="100" pan="0" len="24" key="45" pos="1080"/>
          <note vol="100" pan="0" len="24" key="45" pos="1080"/>
          <note vol="100" pan="0" len="24" key="45" pos="1080"/>
          <note vol="100" pan="0" len="24" key="45" pos="1080"/>
          <note vol="100" pan="0" len="24" key="45" pos="1128"/>
          <note vol="100" pan="0" len="24" key="45" pos="1128"/>
          <note vol="100" pan="0" len="24" key="45" pos="1128"/>
          <note vol="100" pan="0" len="24" key="45" pos="1128"/>
          <note vol="100" pan="0" len="24" key="45" pos="1176"/>
          <note vol="100" pan="0" len="24" key="45" pos="1176"/>
          <note vol="100" pan="0" len="24" key="45" pos="1176"/>
          <note vol="100" pan="0" len="24" key="45" pos="1176"/>
          <note vol="100" pan="0" len="24" key="45" pos="1224"/>
          <note vol="100" pan="0" len="24" key="45" pos="1224"/>
          <note vol="100" pan="0" len="24" key="45" pos="1224"/>
          <note vol="100" pan="0" len="24" key="45" pos="1224"/>
          <note vol="100" pan="0" len="24" key="45" pos="1272"/>
          <note vol="100" pan="0" len="24" key="45" pos="1272"/>
          <note vol="100" pan="0" len="24" key="45" pos="1272"/>
          <note vol="100" pan="0" len="24" key="45" pos="1272"/>
          <note vol="100" pan="0" len="24" key="45" pos="1320"/>
          <note vol="100" pan="0" len="24" key="45" pos="1320"/>
          <note vol="100" pan="0" len="24" key="45" pos="1320"/>
          <note vol="100" pan="0" len="24" key="45" pos="1320"/>
          <note vol="100" pan="0" len="24" key="45" pos="1368"/>
          <note vol="100" pan="0" len="24" key="45" pos="1368"/>
          <note vol="100" pan="0" len="24" key="45" pos="1368"/>
          <note vol="100" pan="0" len="24" key="45" pos="1368"/>
          <note vol="100" pan="0" len="24" key="45" pos="1416"/>
          <note vol="100" pan="0" len="24" key="45" pos="1416"/>
          <note vol="100" pan="0" len="24" key="45" pos="1416"/>
          <note vol="100" pan="0" len="24" key="45" pos="1416"/>
          <note vol="100" pan="0" len="24" key="45" pos="1464"/>
          <note vol="100" pan="0" len="24" key="45" pos="1464"/>
          <note vol="100" pan="0" len="24" key="45" pos="1464"/>
          <note vol="100" pan="0" len="24" key="45" pos="1464"/>
          <note vol="100" pan="0" len="24" key="45" pos="1512"/>
          <note vol="100" pan="0" len="24" key="45" pos="1512"/>
          <note vol="100" pan="0" len="24" key="45" pos="1512"/>
          <note vol="100" pan="0" len="24" key="45" pos="1512"/>
        </pattern>
      </track>
      <track type="0" solo="0" muted="0" name="Bass">
        <instrumenttrack fxch="0" vol="30.200001" pitchrange="1" pitch="0" pan="0" usemasterpitch="1" basenote="57">
          <instrument name="sid">
            <sid attack2="0" waveform2="2" pulsewidth2="2048" coarse2="0" ringmod2="0" waveform0="2" coarse1="0" sustain1="0" decay1="8" sustain2="5" waveform1="1" sync0="0" filtered0="0" release0="6" pulsewidth1="2048" attack1="1" volume="15" filterMode="2" coarse0="-12" ringmod1="0" decay0="8" filterFC="1024" release1="7" test1="1" test2="1" attack0="1" decay2="0" voice3Off="0" pulsewidth0="2048" test0="0" ringmod0="0" sustain0="6" filterResonance="8" filtered1="0" sync2="0" filtered2="0" sync1="0" release2="5" chipModel="1"/>
          </instrument>
          <eldata fwet="0" fcut="14000" ftype="0" fres="0.5">
            <elvol userwavefile="" lspd_numerator="4" att="0" hold="0" lspd="0.1" amt="1" lpdel="0" pdel="0" lspd_syncmode="0" x100="0" latt="0" sustain="0.5" lamt="0" dec="0.708" ctlenvamt="0" lshp="0" rel="0.1" lspd_denominator="4"/>
            <elcut userwavefile="" lspd_numerator="4" att="0" hold="0.5" lspd="0.1" amt="0" lpdel="0" pdel="0" lspd_syncmode="0" x100="0" latt="0" sustain="0.5" lamt="0" dec="0.5" ctlenvamt="0" lshp="0" rel="0.1" lspd_denominator="4"/>
            <elres userwavefile="" lspd_numerator="4" att="0" hold="0.5" lspd="0.1" amt="0" lpdel="0" pdel="0" lspd_syncmode="0" x100="0" latt="0" sustain="0.5" lamt="0" dec="0.5" ctlenvamt="0" lshp="0" rel="0.1" lspd_denominator="4"/>
          </eldata>
          <chordcreator chord="0" chord-enabled="0" chordrange="1"/>
          <arpeggiator arprange="1" arpcycle="0" arpdir="0" arptime_numerator="4" arp-enabled="0" arpmode="0" arptime_denominator="4" arptime_syncmode="0" arptime="100" arpskip="0" arpmiss="0" arpgate="100" arp="0"/>
          <midiport inputchannel="0" fixedinputvelocity="-1" readable="0" fixedoutputnote="-1" fixedoutputvelocity="-1" outputchannel="1" basevelocity="127" writable="0" inputcontroller="0" outputcontroller="0" outputprogram="1"/>
          <fxchain enabled="1" numofeffects="1">
            <effect autoquit_numerator="4" wet="1" on="1" autoquit_syncmode="0" autoquit="1" name="ladspaeffect" gate="0" autoquit_denominator="4">
              <ladspacontrols ports="10">
                <port00 data="10"/>
                <port01 data="0"/>
                <port02 data="50"/>
                <port03 data="0"/>
                <port04 data="0"/>
                <port05 data="0"/>
                <port06 data="0"/>
                <port07 data="0"/>
                <port08 data="1"/>
                <port09 data="0"/>
              </ladspacontrols>
              <key>
                <attribute value="tap_echo" name="file"/>
                <attribute value="tap_stereo_echo" name="plugin"/>
              </key>
            </effect>
          </fxchain>
        </instrumenttrack>
        <pattern type="1" steps="16" muted="0" name="Bass" pos="8064">
          <note vol="44" pan="0" len="24" key="50" pos="0"/>
          <note vol="44" pan="0" len="24" key="50" pos="0"/>
          <note vol="44" pan="0" len="24" key="50" pos="0"/>
          <note vol="44" pan="0" len="24" key="50" pos="0"/>
          <note vol="100" pan="0" len="24" key="50" pos="24"/>
          <note vol="100" pan="0" len="24" key="50" pos="24"/>
          <note vol="100" pan="0" len="24" key="50" pos="24"/>
          <note vol="100" pan="0" len="24" key="50" pos="24"/>
          <note vol="44" pan="0" len="24" key="50" pos="48"/>
          <note vol="44" pan="0" len="24" key="50" pos="48"/>
          <note vol="44" pan="0" len="24" key="50" pos="48"/>
          <note vol="44" pan="0" len="24" key="50" pos="48"/>
          <note vol="100" pan="0" len="24" key="50" pos="72"/>
          <note vol="100" pan="0" len="24" key="50" pos="72"/>
          <note vol="100" pan="0" len="24" key="50" pos="72"/>
          <note vol="100" pan="0" len="24" key="50" pos="72"/>
          <note vol="44" pan="0" len="24" key="50" pos="96"/>
          <note vol="44" pan="0" len="24" key="50" pos="96"/>
          <note vol="44" pan="0" len="24" key="50" pos="96"/>
          <note vol="44" pan="0" len="24" key="50" pos="96"/>
          <note vol="100" pan="0" len="24" key="50" pos="120"/>
          <note vol="100" pan="0" len="24" key="50" pos="120"/>
          <note vol="100" pan="0" len="24" key="50" pos="120"/>
          <note vol="100" pan="0" len="24" key="50" pos="120"/>
          <note vol="44" pan="0" len="24" key="50" pos="144"/>
          <note vol="44" pan="0" len="24" key="50" pos="144"/>
          <note vol="44" pan="0" len="24" key="50" pos="144"/>
          <note vol="44" pan="0" len="24" key="50" pos="144"/>
          <note vol="100" pan="0" len="24" key="50" pos="168"/>
          <note vol="100" pan="0" len="24" key="50" pos="168"/>
          <note vol="100" pan="0" len="24" key="50" pos="168"/>
          <note vol="100" pan="0" len="24" key="50" pos="168"/>
          <note vol="44" pan="0" len="24" key="50" pos="192"/>
          <note vol="44" pan="0" len="24" key="50" pos="192"/>
          <note vol="44" pan="0" len="24" key="50" pos="192"/>
          <note vol="44" pan="0" len="24" key="50" pos="192"/>
          <note vol="100" pan="0" len="24" key="50" pos="216"/>
          <note vol="100" pan="0" len="24" key="50" pos="216"/>
          <note vol="100" pan="0" len="24" key="50" pos="216"/>
          <note vol="100" pan="0" len="24" key="50" pos="216"/>
          <note vol="44" pan="0" len="24" key="50" pos="240"/>
          <note vol="44" pan="0" len="24" key="50" pos="240"/>
          <note vol="44" pan="0" len="24" key="50" pos="240"/>
          <note vol="44" pan="0" len="24" key="50" pos="240"/>
          <note vol="100" pan="0" len="24" key="50" pos="264"/>
          <note vol="100" pan="0" len="24" key="50" pos="264"/>
          <note vol="100" pan="0" len="24" key="50" pos="264"/>
          <note vol="100" pan="0" len="24" key="50" pos="264"/>
          <note vol="44" pan="0" len="24" key="50" pos="288"/>
          <note vol="44" pan="0" len="24" key="50" pos="288"/>
          <note vol="44" pan="0" len="24" key="50" pos="288"/>
          <note vol="44" pan="0" len="24" key="50" pos="288"/>
          <note vol="100" pan="0" len="24" key="50" pos="312"/>
          <note vol="100" pan="0" len="24" key="50" pos="312"/>
          <note vol="100" pan="0" len="24" key="50" pos="312"/>
          <note vol="100" pan="0" len="24" key="50" pos="312"/>
          <note vol="44" pan="0" len="24" key="50" pos="336"/>
          <note vol="44" pan="0" len="24" key="50" pos="336"/>
          <note vol="44" pan="0" len="24" key="50" pos="336"/>
          <note vol="44" pan="0" len="24" key="50" pos="336"/>
          <note vol="100" pan="0" len="24" key="50" pos="360"/>
          <note vol="100" pan="0" len="24" key="50" pos="360"/>
          <note vol="100" pan="0" len="24" key="50" pos="360"/>
          <note vol="100" pan="0" len="24" key="50" pos="360"/>
          <note vol="44" pan="0" len="24" key="50" pos="384"/>
          <note vol="44" pan="0" len="24" key="50" pos="384"/>
          <note vol="44" pan="0" len="24" key="50" pos="384"/>
          <note vol="44" pan="0" len="24" key="50" pos="384"/>
          <note vol="100" pan="0" len="24" key="50" pos="408"/>
          <note vol="100" pan="0" len="24" key="50" pos="408"/>
          <note vol="100" pan="0" len="24" key="50" pos="408"/>
          <note vol="100" pan="0" len="24" key="50" pos="408"/>
          <note vol="44" pan="0" len="24" key="50" pos="432"/>
          <note vol="44" pan="0" len="24" key="50" pos="432"/>
          <note vol="44" pan="0" len="24" key="50" pos="432"/>
          <note vol="44" pan="0" len="24" key="50" pos="432"/>
          <note vol="100" pan="0" len="24" key="50" pos="456"/>
          <note vol="100" pan="0" len="24" key="50" pos="456"/>
          <note vol="100" pan="0" len="24" key="50" pos="456"/>
          <note vol="100" pan="0" len="24" key="50" pos="456"/>
          <note vol="44" pan="0" len="24" key="50" pos="480"/>
          <note vol="44" pan="0" len="24" key="50" pos="480"/>
          <note vol="44" pan="0" len="24" key="50" pos="480"/>
          <note vol="44" pan="0" len="24" key="50" pos="480"/>
          <note vol="100" pan="0" len="24" key="50" pos="504"/>
          <note vol="100" pan="0" len="24" key="50" pos="504"/>
          <note vol="100" pan="0" len="24" key="50" pos="504"/>
          <note vol="100" pan="0" len="24" key="50" pos="504"/>
          <note vol="44" pan="0" len="24" key="50" pos="528"/>
          <note vol="44" pan="0" len="24" key="50" pos="528"/>
          <note vol="44" pan="0" len="24" key="50" pos="528"/>
          <note vol="44" pan="0" len="24" key="50" pos="528"/>
          <note vol="100" pan="0" len="24" key="50" pos="552"/>
          <note vol="100" pan="0" len="24" key="50" pos="552"/>
          <note vol="100" pan="0" len="24" key="50" pos="552"/>
          <note vol="100" pan="0" len="24" key="50" pos="552"/>
          <note vol="44" pan="0" len="24" key="50" pos="576"/>
          <note vol="44" pan="0" len="24" key="50" pos="576"/>
          <note vol="44" pan="0" len="24" key="50" pos="576"/>
          <note vol="44" pan="0" len="24" key="50" pos="576"/>
          <note vol="100" pan="0" len="24" key="50" pos="600"/>
          <note vol="100" pan="0" len="24" key="50" pos="600"/>
          <note vol="100" pan="0" len="24" key="50" pos="600"/>
          <note vol="100" pan="0" len="24" key="50" pos="600"/>
          <note vol="44" pan="0" len="24" key="50" pos="624"/>
          <note vol="44" pan="0" len="24" key="50" pos="624"/>
          <note vol="44" pan="0" len="24" key="50" pos="624"/>
          <note vol="44" pan="0" len="24" key="50" pos="624"/>
          <note vol="100" pan="0" len="24" key="50" pos="648"/>
          <note vol="100" pan="0" len="24" key="50" pos="648"/>
          <note vol="100" pan="0" len="24" key="50" pos="648"/>
          <note vol="100" pan="0" len="24" key="50" pos="648"/>
          <note vol="44" pan="0" len="24" key="50" pos="672"/>
          <note vol="44" pan="0" len="24" key="50" pos="672"/>
          <note vol="44" pan="0" len="24" key="50" pos="672"/>
          <note vol="44" pan="0" len="24" key="50" pos="672"/>
          <note vol="100" pan="0" len="24" key="50" pos="696"/>
          <note vol="100" pan="0" len="24" key="50" pos="696"/>
          <note vol="100" pan="0" len="24" key="50" pos="696"/>
          <note vol="100" pan="0" len="24" key="50" pos="696"/>
          <note vol="44" pan="0" len="24" key="50" pos="720"/>
          <note vol="44" pan="0" len="24" key="50" pos="720"/>
          <note vol="44" pan="0" len="24" key="50" pos="720"/>
          <note vol="44" pan="0" len="24" key="50" pos="720"/>
          <note vol="100" pan="0" len="24" key="50" pos="744"/>
          <note vol="100" pan="0" len="24" key="50" pos="744"/>
          <note vol="100" pan="0" len="24" key="50" pos="744"/>
          <note vol="100" pan="0" len="24" key="50" pos="744"/>
          <note vol="44" pan="0" len="24" key="45" pos="768"/>
          <note vol="44" pan="0" len="24" key="45" pos="768"/>
          <note vol="44" pan="0" len="24" key="45" pos="768"/>
          <note vol="44" pan="0" len="24" key="45" pos="768"/>
          <note vol="100" pan="0" len="24" key="45" pos="792"/>
          <note vol="100" pan="0" len="24" key="45" pos="792"/>
          <note vol="100" pan="0" len="24" key="45" pos="792"/>
          <note vol="100" pan="0" len="24" key="45" pos="792"/>
          <note vol="44" pan="0" len="24" key="45" pos="816"/>
          <note vol="44" pan="0" len="24" key="45" pos="816"/>
          <note vol="44" pan="0" len="24" key="45" pos="816"/>
          <note vol="44" pan="0" len="24" key="45" pos="816"/>
          <note vol="100" pan="0" len="24" key="45" pos="840"/>
          <note vol="100" pan="0" len="24" key="45" pos="840"/>
          <note vol="100" pan="0" len="24" key="45" pos="840"/>
          <note vol="100" pan="0" len="24" key="45" pos="840"/>
          <note vol="44" pan="0" len="24" key="45" pos="864"/>
          <note vol="44" pan="0" len="24" key="45" pos="864"/>
          <note vol="44" pan="0" len="24" key="45" pos="864"/>
          <note vol="44" pan="0" len="24" key="45" pos="864"/>
          <note vol="100" pan="0" len="24" key="45" pos="888"/>
          <note vol="100" pan="0" len="24" key="45" pos="888"/>
          <note vol="100" pan="0" len="24" key="45" pos="888"/>
          <note vol="100" pan="0" len="24" key="45" pos="888"/>
          <note vol="44" pan="0" len="24" key="45" pos="912"/>
          <note vol="44" pan="0" len="24" key="45" pos="912"/>
          <note vol="44" pan="0" len="24" key="45" pos="912"/>
          <note vol="44" pan="0" len="24" key="45" pos="912"/>
          <note vol="100" pan="0" len="24" key="45" pos="936"/>
          <note vol="100" pan="0" len="24" key="45" pos="936"/>
          <note vol="100" pan="0" len="24" key="45" pos="936"/>
          <note vol="100" pan="0" len="24" key="45" pos="936"/>
          <note vol="44" pan="0" len="24" key="45" pos="960"/>
          <note vol="44" pan="0" len="24" key="45" pos="960"/>
          <note vol="44" pan="0" len="24" key="45" pos="960"/>
          <note vol="44" pan="0" len="24" key="45" pos="960"/>
          <note vol="100" pan="0" len="24" key="45" pos="984"/>
          <note vol="100" pan="0" len="24" key="45" pos="984"/>
          <note vol="100" pan="0" len="24" key="45" pos="984"/>
          <note vol="100" pan="0" len="24" key="45" pos="984"/>
          <note vol="44" pan="0" len="24" key="45" pos="1008"/>
          <note vol="44" pan="0" len="24" key="45" pos="1008"/>
          <note vol="44" pan="0" len="24" key="45" pos="1008"/>
          <note vol="44" pan="0" len="24" key="45" pos="1008"/>
          <note vol="100" pan="0" len="24" key="45" pos="1032"/>
          <note vol="100" pan="0" len="24" key="45" pos="1032"/>
          <note vol="100" pan="0" len="24" key="45" pos="1032"/>
          <note vol="100" pan="0" len="24" key="45" pos="1032"/>
          <note vol="44" pan="0" len="24" key="45" pos="1056"/>
          <note vol="44" pan="0" len="24" key="45" pos="1056"/>
          <note vol="44" pan="0" len="24" key="45" pos="1056"/>
          <note vol="44" pan="0" len="24" key="45" pos="1056"/>
          <note vol="100" pan="0" len="24" key="45" pos="1080"/>
          <note vol="100" pan="0" len="24" key="45" pos="1080"/>
          <note vol="100" pan="0" len="24" key="45" pos="1080"/>
          <note vol="100" pan="0" len="24" key="45" pos="1080"/>
          <note vol="44" pan="0" len="24" key="45" pos="1104"/>
          <note vol="44" pan="0" len="24" key="45" pos="1104"/>
          <note vol="44" pan="0" len="24" key="45" pos="1104"/>
          <note vol="44" pan="0" len="24" key="45" pos="1104"/>
          <note vol="100" pan="0" len="24" key="45" pos="1128"/>
          <note vol="100" pan="0" len="24" key="45" pos="1128"/>
          <note vol="100" pan="0" len="24" key="45" pos="1128"/>
          <note vol="100" pan="0" len="24" key="45" pos="1128"/>
          <note vol="44" pan="0" len="24" key="45" pos="1152"/>
          <note vol="44" pan="0" len="24" key="45" pos="1152"/>
          <note vol="44" pan="0" len="24" key="45" pos="1152"/>
          <note vol="44" pan="0" len="24" key="45" pos="1152"/>
          <note vol="100" pan="0" len="24" key="45" pos="1176"/>
          <note vol="100" pan="0" len="24" key="45" pos="1176"/>
          <note vol="100" pan="0" len="24" key="45" pos="1176"/>
          <note vol="100" pan="0" len="24" key="45" pos="1176"/>
          <note vol="44" pan="0" len="24" key="45" pos="1200"/>
          <note vol="44" pan="0" len="24" key="45" pos="1200"/>
          <note vol="44" pan="0" len="24" key="45" pos="1200"/>
          <note vol="44" pan="0" len="24" key="45" pos="1200"/>
          <note vol="100" pan="0" len="24" key="45" pos="1224"/>
          <note vol="100" pan="0" len="24" key="45" pos="1224"/>
          <note vol="100" pan="0" len="24" key="45" pos="1224"/>
          <note vol="100" pan="0" len="24" key="45" pos="1224"/>
          <note vol="44" pan="0" len="24" key="45" pos="1248"/>
          <note vol="44" pan="0" len="24" key="45" pos="1248"/>
          <note vol="44" pan="0" len="24" key="45" pos="1248"/>
          <note vol="44" pan="0" len="24" key="45" pos="1248"/>
          <note vol="100" pan="0" len="24" key="45" pos="1272"/>
          <note vol="100" pan="0" len="24" key="45" pos="1272"/>
          <note vol="100" pan="0" len="24" key="45" pos="1272"/>
          <note vol="100" pan="0" len="24" key="45" pos="1272"/>
          <note vol="44" pan="0" len="24" key="45" pos="1296"/>
          <note vol="44" pan="0" len="24" key="45" pos="1296"/>
          <note vol="44" pan="0" len="24" key="45" pos="1296"/>
          <note vol="44" pan="0" len="24" key="45" pos="1296"/>
          <note vol="100" pan="0" len="24" key="45" pos="1320"/>
          <note vol="100" pan="0" len="24" key="45" pos="1320"/>
          <note vol="100" pan="0" len="24" key="45" pos="1320"/>
          <note vol="100" pan="0" len="24" key="45" pos="1320"/>
          <note vol="44" pan="0" len="24" key="45" pos="1344"/>
          <note vol="44" pan="0" len="24" key="45" pos="1344"/>
          <note vol="44" pan="0" len="24" key="45" pos="1344"/>
          <note vol="44" pan="0" len="24" key="45" pos="1344"/>
          <note vol="100" pan="0" len="24" key="45" pos="1368"/>
          <note vol="100" pan="0" len="24" key="45" pos="1368"/>
          <note vol="100" pan="0" len="24" key="45" pos="1368"/>
          <note vol="100" pan="0" len="24" key="45" pos="1368"/>
          <note vol="44" pan="0" len="24" key="45" pos="1392"/>
          <note vol="44" pan="0" len="24" key="45" pos="1392"/>
          <note vol="44" pan="0" len="24" key="45" pos="1392"/>
          <note vol="44" pan="0" len="24" key="45" pos="1392"/>
          <note vol="100" pan="0" len="24" key="45" pos="1416"/>
          <note vol="100" pan="0" len="24" key="45" pos="1416"/>
          <note vol="100" pan="0" len="24" key="45" pos="1416"/>
          <note vol="100" pan="0" len="24" key="45" pos="1416"/>
          <note vol="44" pan="0" len="24" key="45" pos="1440"/>
          <note vol="44" pan="0" len="24" key="45" pos="1440"/>
          <note vol="44" pan="0" len="24" key="45" pos="1440"/>
          <note vol="44" pan="0" len="24" key="45" pos="1440"/>
          <note vol="100" pan="0" len="24" key="45" pos="1464"/>
          <note vol="100" pan="0" len="24" key="45" pos="1464"/>
          <note vol="100" pan="0" len="24" key="45" pos="1464"/>
          <note vol="100" pan="0" len="24" key="45" pos="1464"/>
          <note vol="44" pan="0" len="24" key="45" pos="1488"/>
          <note vol="44" pan="0" len="24" key="45" pos="1488"/>
          <note vol="44" pan="0" len="24" key="45" pos="1488"/>
          <note vol="44" pan="0" len="24" key="45" pos="1488"/>
          <note vol="100" pan="0" len="24" key="45" pos="1512"/>
          <note vol="100" pan="0" len="24" key="45" pos="1512"/>
          <note vol="100" pan="0" len="24" key="45" pos="1512"/>
          <note vol="100" pan="0" len="24" key="45" pos="1512"/>
        </pattern>
        <pattern type="1" steps="16" muted="0" name="Bass" pos="9600">
          <note vol="44" pan="0" len="24" key="50" pos="0"/>
          <note vol="44" pan="0" len="24" key="50" pos="0"/>
          <note vol="44" pan="0" len="24" key="50" pos="0"/>
          <note vol="44" pan="0" len="24" key="50" pos="0"/>
          <note vol="100" pan="0" len="24" key="50" pos="24"/>
          <note vol="100" pan="0" len="24" key="50" pos="24"/>
          <note vol="100" pan="0" len="24" key="50" pos="24"/>
          <note vol="100" pan="0" len="24" key="50" pos="24"/>
          <note vol="44" pan="0" len="24" key="50" pos="48"/>
          <note vol="44" pan="0" len="24" key="50" pos="48"/>
          <note vol="44" pan="0" len="24" key="50" pos="48"/>
          <note vol="44" pan="0" len="24" key="50" pos="48"/>
          <note vol="100" pan="0" len="24" key="50" pos="72"/>
          <note vol="100" pan="0" len="24" key="50" pos="72"/>
          <note vol="100" pan="0" len="24" key="50" pos="72"/>
          <note vol="100" pan="0" len="24" key="50" pos="72"/>
          <note vol="44" pan="0" len="24" key="50" pos="96"/>
          <note vol="44" pan="0" len="24" key="50" pos="96"/>
          <note vol="44" pan="0" len="24" key="50" pos="96"/>
          <note vol="44" pan="0" len="24" key="50" pos="96"/>
          <note vol="100" pan="0" len="24" key="50" pos="120"/>
          <note vol="100" pan="0" len="24" key="50" pos="120"/>
          <note vol="100" pan="0" len="24" key="50" pos="120"/>
          <note vol="100" pan="0" len="24" key="50" pos="120"/>
          <note vol="44" pan="0" len="24" key="50" pos="144"/>
          <note vol="44" pan="0" len="24" key="50" pos="144"/>
          <note vol="44" pan="0" len="24" key="50" pos="144"/>
          <note vol="44" pan="0" len="24" key="50" pos="144"/>
          <note vol="100" pan="0" len="24" key="50" pos="168"/>
          <note vol="100" pan="0" len="24" key="50" pos="168"/>
          <note vol="100" pan="0" len="24" key="50" pos="168"/>
          <note vol="100" pan="0" len="24" key="50" pos="168"/>
          <note vol="44" pan="0" len="24" key="50" pos="192"/>
          <note vol="44" pan="0" len="24" key="50" pos="192"/>
          <note vol="44" pan="0" len="24" key="50" pos="192"/>
          <note vol="44" pan="0" len="24" key="50" pos="192"/>
          <note vol="100" pan="0" len="24" key="50" pos="216"/>
          <note vol="100" pan="0" len="24" key="50" pos="216"/>
          <note vol="100" pan="0" len="24" key="50" pos="216"/>
          <note vol="100" pan="0" len="24" key="50" pos="216"/>
          <note vol="44" pan="0" len="24" key="50" pos="240"/>
          <note vol="44" pan="0" len="24" key="50" pos="240"/>
          <note vol="44" pan="0" len="24" key="50" pos="240"/>
          <note vol="44" pan="0" len="24" key="50" pos="240"/>
          <note vol="100" pan="0" len="24" key="50" pos="264"/>
          <note vol="100" pan="0" len="24" key="50" pos="264"/>
          <note vol="100" pan="0" len="24" key="50" pos="264"/>
          <note vol="100" pan="0" len="24" key="50" pos="264"/>
          <note vol="44" pan="0" len="24" key="50" pos="288"/>
          <note vol="44" pan="0" len="24" key="50" pos="288"/>
          <note vol="44" pan="0" len="24" key="50" pos="288"/>
          <note vol="44" pan="0" len="24" key="50" pos="288"/>
          <note vol="100" pan="0" len="24" key="50" pos="312"/>
          <note vol="100" pan="0" len="24" key="50" pos="312"/>
          <note vol="100" pan="0" len="24" key="50" pos="312"/>
          <note vol="100" pan="0" len="24" key="50" pos="312"/>
          <note vol="44" pan="0" len="24" key="50" pos="336"/>
          <note vol="44" pan="0" len="24" key="50" pos="336"/>
          <note vol="44" pan="0" len="24" key="50" pos="336"/>
          <note vol="44" pan="0" len="24" key="50" pos="336"/>
          <note vol="100" pan="0" len="24" key="50" pos="360"/>
          <note vol="100" pan="0" len="24" key="50" pos="360"/>
          <note vol="100" pan="0" len="24" key="50" pos="360"/>
          <note vol="100" pan="0" len="24" key="50" pos="360"/>
          <note vol="44" pan="0" len="24" key="50" pos="384"/>
          <note vol="44" pan="0" len="24" key="50" pos="384"/>
          <note vol="44" pan="0" len="24" key="50" pos="384"/>
          <note vol="44" pan="0" len="24" key="50" pos="384"/>
          <note vol="100" pan="0" len="24" key="50" pos="408"/>
          <note vol="100" pan="0" len="24" key="50" pos="408"/>
          <note vol="100" pan="0" len="24" key="50" pos="408"/>
          <note vol="100" pan="0" len="24" key="50" pos="408"/>
          <note vol="44" pan="0" len="24" key="50" pos="432"/>
          <note vol="44" pan="0" len="24" key="50" pos="432"/>
          <note vol="44" pan="0" len="24" key="50" pos="432"/>
          <note vol="44" pan="0" len="24" key="50" pos="432"/>
          <note vol="100" pan="0" len="24" key="50" pos="456"/>
          <note vol="100" pan="0" len="24" key="50" pos="456"/>
          <note vol="100" pan="0" len="24" key="50" pos="456"/>
          <note vol="100" pan="0" len="24" key="50" pos="456"/>
          <note vol="44" pan="0" len="24" key="50" pos="480"/>
          <note vol="44" pan="0" len="24" key="50" pos="480"/>
          <note vol="44" pan="0" len="24" key="50" pos="480"/>
          <note vol="44" pan="0" len="24" key="50" pos="480"/>
          <note vol="100" pan="0" len="24" key="50" pos="504"/>
          <note vol="100" pan="0" len="24" key="50" pos="504"/>
          <note vol="100" pan="0" len="24" key="50" pos="504"/>
          <note vol="100" pan="0" len="24" key="50" pos="504"/>
          <note vol="44" pan="0" len="24" key="50" pos="528"/>
          <note vol="44" pan="0" len="24" key="50" pos="528"/>
          <note vol="44" pan="0" len="24" key="50" pos="528"/>
          <note vol="44" pan="0" len="24" key="50" pos="528"/>
          <note vol="100" pan="0" len="24" key="50" pos="552"/>
          <note vol="100" pan="0" len="24" key="50" pos="552"/>
          <note vol="100" pan="0" len="24" key="50" pos="552"/>
          <note vol="100" pan="0" len="24" key="50" pos="552"/>
          <note vol="44" pan="0" len="24" key="50" pos="576"/>
          <note vol="44" pan="0" len="24" key="50" pos="576"/>
          <note vol="44" pan="0" len="24" key="50" pos="576"/>
          <note vol="44" pan="0" len="24" key="50" pos="576"/>
          <note vol="100" pan="0" len="24" key="50" pos="600"/>
          <note vol="100" pan="0" len="24" key="50" pos="600"/>
          <note vol="100" pan="0" len="24" key="50" pos="600"/>
          <note vol="100" pan="0" len="24" key="50" pos="600"/>
          <note vol="44" pan="0" len="24" key="50" pos="624"/>
          <note vol="44" pan="0" len="24" key="50" pos="624"/>
          <note vol="44" pan="0" len="24" key="50" pos="624"/>
          <note vol="44" pan="0" len="24" key="50" pos="624"/>
          <note vol="100" pan="0" len="24" key="50" pos="648"/>
          <note vol="100" pan="0" len="24" key="50" pos="648"/>
          <note vol="100" pan="0" len="24" key="50" pos="648"/>
          <note vol="100" pan="0" len="24" key="50" pos="648"/>
          <note vol="44" pan="0" len="24" key="50" pos="672"/>
          <note vol="44" pan="0" len="24" key="50" pos="672"/>
          <note vol="44" pan="0" len="24" key="50" pos="672"/>
          <note vol="44" pan="0" len="24" key="50" pos="672"/>
          <note vol="100" pan="0" len="24" key="50" pos="696"/>
          <note vol="100" pan="0" len="24" key="50" pos="696"/>
          <note vol="100" pan="0" len="24" key="50" pos="696"/>
          <note vol="100" pan="0" len="24" key="50" pos="696"/>
          <note vol="44" pan="0" len="24" key="50" pos="720"/>
          <note vol="44" pan="0" len="24" key="50" pos="720"/>
          <note vol="44" pan="0" len="24" key="50" pos="720"/>
          <note vol="44" pan="0" len="24" key="50" pos="720"/>
          <note vol="100" pan="0" len="24" key="50" pos="744"/>
          <note vol="100" pan="0" len="24" key="50" pos="744"/>
          <note vol="100" pan="0" len="24" key="50" pos="744"/>
          <note vol="100" pan="0" len="24" key="50" pos="744"/>
          <note vol="44" pan="0" len="24" key="45" pos="768"/>
          <note vol="44" pan="0" len="24" key="45" pos="768"/>
          <note vol="44" pan="0" len="24" key="45" pos="768"/>
          <note vol="44" pan="0" len="24" key="45" pos="768"/>
          <note vol="100" pan="0" len="24" key="45" pos="792"/>
          <note vol="100" pan="0" len="24" key="45" pos="792"/>
          <note vol="100" pan="0" len="24" key="45" pos="792"/>
          <note vol="100" pan="0" len="24" key="45" pos="792"/>
          <note vol="44" pan="0" len="24" key="45" pos="816"/>
          <note vol="44" pan="0" len="24" key="45" pos="816"/>
          <note vol="44" pan="0" len="24" key="45" pos="816"/>
          <note vol="44" pan="0" len="24" key="45" pos="816"/>
          <note vol="100" pan="0" len="24" key="45" pos="840"/>
          <note vol="100" pan="0" len="24" key="45" pos="840"/>
          <note vol="100" pan="0" len="24" key="45" pos="840"/>
          <note vol="100" pan="0" len="24" key="45" pos="840"/>
          <note vol="44" pan="0" len="24" key="45" pos="864"/>
          <note vol="44" pan="0" len="24" key="45" pos="864"/>
          <note vol="44" pan="0" len="24" key="45" pos="864"/>
          <note vol="44" pan="0" len="24" key="45" pos="864"/>
          <note vol="100" pan="0" len="24" key="45" pos="888"/>
          <note vol="100" pan="0" len="24" key="45" pos="888"/>
          <note vol="100" pan="0" len="24" key="45" pos="888"/>
          <note vol="100" pan="0" len="24" key="45" pos="888"/>
          <note vol="44" pan="0" len="24" key="45" pos="912"/>
          <note vol="44" pan="0" len="24" key="45" pos="912"/>
          <note vol="44" pan="0" len="24" key="45" pos="912"/>
          <note vol="44" pan="0" len="24" key="45" pos="912"/>
          <note vol="100" pan="0" len="24" key="45" pos="936"/>
          <note vol="100" pan="0" len="24" key="45" pos="936"/>
          <note vol="100" pan="0" len="24" key="45" pos="936"/>
          <note vol="100" pan="0" len="24" key="45" pos="936"/>
          <note vol="44" pan="0" len="24" key="45" pos="960"/>
          <note vol="44" pan="0" len="24" key="45" pos="960"/>
          <note vol="44" pan="0" len="24" key="45" pos="960"/>
          <note vol="44" pan="0" len="24" key="45" pos="960"/>
          <note vol="100" pan="0" len="24" key="45" pos="984"/>
          <note vol="100" pan="0" len="24" key="45" pos="984"/>
          <note vol="100" pan="0" len="24" key="45" pos="984"/>
          <note vol="100" pan="0" len="24" key="45" pos="984"/>
          <note vol="44" pan="0" len="24" key="45" pos="1008"/>
          <note vol="44" pan="0" len="24" key="45" pos="1008"/>
          <note vol="44" pan="0" len="24" key="45" pos="1008"/>
          <note vol="44" pan="0" len="24" key="45" pos="1008"/>
          <note vol="100" pan="0" len="24" key="45" pos="1032"/>
          <note vol="100" pan="0" len="24" key="45" pos="1032"/>
          <note vol="100" pan="0" len="24" key="45" pos="1032"/>
          <note vol="100" pan="0" len="24" key="45" pos="1032"/>
          <note vol="44" pan="0" len="24" key="45" pos="1056"/>
          <note vol="44" pan="0" len="24" key="45" pos="1056"/>
          <note vol="44" pan="0" len="24" key="45" pos="1056"/>
          <note vol="44" pan="0" len="24" key="45" pos="1056"/>
          <note vol="100" pan="0" len="24" key="45" pos="1080"/>
          <note vol="100" pan="0" len="24" key="45" pos="1080"/>
          <note vol="100" pan="0" len="24" key="45" pos="1080"/>
          <note vol="100" pan="0" len="24" key="45" pos="1080"/>
          <note vol="44" pan="0" len="24" key="45" pos="1104"/>
          <note vol="44" pan="0" len="24" key="45" pos="1104"/>
          <note vol="44" pan="0" len="24" key="45" pos="1104"/>
          <note vol="44" pan="0" len="24" key="45" pos="1104"/>
          <note vol="100" pan="0" len="24" key="45" pos="1128"/>
          <note vol="100" pan="0" len="24" key="45" pos="1128"/>
          <note vol="100" pan="0" len="24" key="45" pos="1128"/>
          <note vol="100" pan="0" len="24" key="45" pos="1128"/>
          <note vol="44" pan="0" len="24" key="45" pos="1152"/>
          <note vol="44" pan="0" len="24" key="45" pos="1152"/>
          <note vol="44" pan="0" len="24" key="45" pos="1152"/>
          <note vol="44" pan="0" len="24" key="45" pos="1152"/>
          <note vol="100" pan="0" len="24" key="45" pos="1176"/>
          <note vol="100" pan="0" len="24" key="45" pos="1176"/>
          <note vol="100" pan="0" len="24" key="45" pos="1176"/>
          <note vol="100" pan="0" len="24" key="45" pos="1176"/>
          <note vol="44" pan="0" len="24" key="45" pos="1200"/>
          <note vol="44" pan="0" len="24" key="45" pos="1200"/>
          <note vol="44" pan="0" len="24" key="45" pos="1200"/>
          <note vol="44" pan="0" len="24" key="45" pos="1200"/>
          <note vol="100" pan="0" len="24" key="45" pos="1224"/>
          <note vol="100" pan="0" len="24" key="45" pos="1224"/>
          <note vol="100" pan="0" len="24" key="45" pos="1224"/>
          <note vol="100" pan="0" len="24" key="45" pos="1224"/>
          <note vol="44" pan="0" len="24" key="45" pos="1248"/>
          <note vol="44" pan="0" len="24" key="45" pos="1248"/>
          <note vol="44" pan="0" len="24" key="45" pos="1248"/>
          <note vol="44" pan="0" len="24" key="45" pos="1248"/>
          <note vol="100" pan="0" len="24" key="45" pos="1272"/>
          <note vol="100" pan="0" len="24" key="45" pos="1272"/>
          <note vol="100" pan="0" len="24" key="45" pos="1272"/>
          <note vol="100" pan="0" len="24" key="45" pos="1272"/>
          <note vol="44" pan="0" len="24" key="45" pos="1296"/>
          <note vol="44" pan="0" len="24" key="45" pos="1296"/>
          <note vol="44" pan="0" len="24" key="45" pos="1296"/>
          <note vol="44" pan="0" len="24" key="45" pos="1296"/>
          <note vol="100" pan="0" len="24" key="45" pos="1320"/>
          <note vol="100" pan="0" len="24" key="45" pos="1320"/>
          <note vol="100" pan="0" len="24" key="45" pos="1320"/>
          <note vol="100" pan="0" len="24" key="45" pos="1320"/>
          <note vol="44" pan="0" len="24" key="45" pos="1344"/>
          <note vol="44" pan="0" len="24" key="45" pos="1344"/>
          <note vol="44" pan="0" len="24" key="45" pos="1344"/>
          <note vol="44" pan="0" len="24" key="45" pos="1344"/>
          <note vol="100" pan="0" len="24" key="45" pos="1368"/>
          <note vol="100" pan="0" len="24" key="45" pos="1368"/>
          <note vol="100" pan="0" len="24" key="45" pos="1368"/>
          <note vol="100" pan="0" len="24" key="45" pos="1368"/>
          <note vol="44" pan="0" len="24" key="45" pos="1392"/>
          <note vol="44" pan="0" len="24" key="45" pos="1392"/>
          <note vol="44" pan="0" len="24" key="45" pos="1392"/>
          <note vol="44" pan="0" len="24" key="45" pos="1392"/>
          <note vol="100" pan="0" len="24" key="45" pos="1416"/>
          <note vol="100" pan="0" len="24" key="45" pos="1416"/>
          <note vol="100" pan="0" len="24" key="45" pos="1416"/>
          <note vol="100" pan="0" len="24" key="45" pos="1416"/>
          <note vol="44" pan="0" len="24" key="45" pos="1440"/>
          <note vol="44" pan="0" len="24" key="45" pos="1440"/>
          <note vol="44" pan="0" len="24" key="45" pos="1440"/>
          <note vol="44" pan="0" len="24" key="45" pos="1440"/>
          <note vol="100" pan="0" len="24" key="45" pos="1464"/>
          <note vol="100" pan="0" len="24" key="45" pos="1464"/>
          <note vol="100" pan="0" len="24" key="45" pos="1464"/>
          <note vol="100" pan="0" len="24" key="45" pos="1464"/>
          <note vol="44" pan="0" len="24" key="45" pos="1488"/>
          <note vol="44" pan="0" len="24" key="45" pos="1488"/>
          <note vol="44" pan="0" len="24" key="45" pos="1488"/>
          <note vol="44" pan="0" len="24" key="45" pos="1488"/>
          <note vol="100" pan="0" len="24" key="45" pos="1512"/>
          <note vol="100" pan="0" len="24" key="45" pos="1512"/>
          <note vol="100" pan="0" len="24" key="45" pos="1512"/>
          <note vol="100" pan="0" len="24" key="45" pos="1512"/>
        </pattern>
      </track>
      <track type="5" solo="0" muted="0" name="Automation track">
        <automationtrack/>
        <automationpattern tens="1" prog="1" len="768" name="Good Old Times>VCF Cutoff Frequency" pos="768" mute="0">
          <time value="0.045000002" pos="0"/>
          <time value="0.59999996" pos="384"/>
          <time value="0.13499999" pos="768"/>
          <object id="5939105"/>
          <object id="3059579"/>
        </automationpattern>
        <automationpattern tens="1" prog="1" len="768" name="Good Old Times>VCF Cutoff Frequency" pos="1536" mute="0">
          <time value="0.045000002" pos="0"/>
          <time value="0.59999996" pos="384"/>
          <time value="0.13499999" pos="768"/>
          <object id="5939105"/>
          <object id="3059579"/>
        </automationpattern>
        <automationpattern tens="1" prog="1" len="768" name="Good Old Times>VCF Cutoff Frequency" pos="8064" mute="0">
          <time value="0.045000002" pos="0"/>
          <time value="0.59999996" pos="384"/>
          <time value="0.13499999" pos="768"/>
          <object id="5939105"/>
          <object id="3059579"/>
        </automationpattern>
        <automationpattern tens="1" prog="1" len="768" name="Good Old Times>VCF Cutoff Frequency" pos="8832" mute="0">
          <time value="0.045000002" pos="0"/>
          <time value="0.59999996" pos="384"/>
          <time value="0.13499999" pos="768"/>
          <object id="5939105"/>
          <object id="3059579"/>
        </automationpattern>
        <automationpattern tens="1" prog="1" len="768" name="Good Old Times>VCF Cutoff Frequency" pos="9600" mute="0">
          <time value="0.045000002" pos="0"/>
          <time value="0.59999996" pos="384"/>
          <time value="0.13499999" pos="768"/>
          <object id="5939105"/>
          <object id="3059579"/>
        </automationpattern>
        <automationpattern tens="1" prog="1" len="768" name="Good Old Times>VCF Cutoff Frequency" pos="10368" mute="0">
          <time value="0.045000002" pos="0"/>
          <time value="0.59999996" pos="384"/>
          <time value="0.13499999" pos="768"/>
          <object id="5939105"/>
          <object id="3059579"/>
        </automationpattern>
      </track>
      <track type="1" solo="0" muted="0" name="Beat/Bassline 1">
        <bbtrack/>
        <bbtco color="4286611584" muted="0" name="" len="192" usestyle="1" pos="7872"/>
      </track>
      <track type="0" solo="0" muted="0" name="crash02.ogg">
        <instrumenttrack fxch="0" vol="109.6" pitchrange="1" pitch="0" pan="0" usemasterpitch="1" basenote="57">
          <instrument name="audiofileprocessor">
            <audiofileprocessor sframe="0" src="drums/crash02.ogg" eframe="1" stutter="0" reversed="0" lframe="0" looped="0" amp="100" interp="1"/>
          </instrument>
          <eldata fwet="0" fcut="2632" ftype="1" fres="0.38">
            <elvol userwavefile="" lspd_numerator="4" att="0" hold="0.5" lspd="0.1" amt="0" lpdel="0" pdel="0" lspd_syncmode="0" x100="0" latt="0" sustain="0.5" lamt="0" dec="0.5" ctlenvamt="0" lshp="0" rel="0.1" lspd_denominator="4"/>
            <elcut userwavefile="" lspd_numerator="4" att="0" hold="0.5" lspd="0.1" amt="0" lpdel="0" pdel="0" lspd_syncmode="0" x100="0" latt="0" sustain="0.5" lamt="0" dec="0.5" ctlenvamt="0" lshp="0" rel="0.1" lspd_denominator="4"/>
            <elres userwavefile="" lspd_numerator="4" att="0" hold="0.5" lspd="0.1" amt="0" lpdel="0" pdel="0" lspd_syncmode="0" x100="0" latt="0" sustain="0.5" lamt="0" dec="0.5" ctlenvamt="0" lshp="0" rel="0.1" lspd_denominator="4"/>
          </eldata>
          <chordcreator chord="0" chord-enabled="0" chordrange="1"/>
          <arpeggiator arprange="1" arpcycle="0" arpdir="0" arptime_numerator="4" arp-enabled="0" arpmode="0" arptime_denominator="4" arptime_syncmode="0" arptime="200" arpskip="0" arpmiss="0" arpgate="100" arp="0"/>
          <midiport inputchannel="0" fixedinputvelocity="-1" readable="0" fixedoutputnote="-1" fixedoutputvelocity="-1" outputchannel="1" basevelocity="63" writable="0" inputcontroller="0" outputcontroller="0" outputprogram="1"/>
          <fxchain enabled="0" numofeffects="0"/>
        </instrumenttrack>
        <pattern type="1" steps="16" muted="0" name="crash02.ogg" pos="8064">
          <note vol="100" pan="0" len="192" key="57" pos="0"/>
        </pattern>
      </track>
    </trackcontainer>
    <track type="6" solo="0" muted="0" name="Automation track">
      <automationtrack/>
      <automationpattern tens="1" prog="0" len="192" name="Numerator" pos="0" mute="0"/>
      <automationpattern tens="1" prog="0" len="192" name="Denominator" pos="0" mute="0"/>
      <automationpattern tens="1" prog="0" len="192" name="Tempo" pos="0" mute="0"/>
      <automationpattern tens="1" prog="0" len="192" name="Master volume" pos="0" mute="0"/>
      <automationpattern tens="1" prog="0" len="192" name="Master pitch" pos="0" mute="0"/>
      <automationpattern tens="1" prog="0" len="192" name="Numerator" pos="0" mute="0"/>
      <automationpattern tens="1" prog="0" len="192" name="Denominator" pos="0" mute="0"/>
      <automationpattern tens="1" prog="0" len="192" name="Tempo" pos="0" mute="0"/>
      <automationpattern tens="1" prog="0" len="192" name="Master volume" pos="0" mute="0"/>
      <automationpattern tens="1" prog="0" len="192" name="Master pitch" pos="0" mute="0"/>
    </track>
    <fxmixer minimized="0" height="333" visible="1" maximized="0" width="558" y="531" x="38">
      <fxchannel num="0" soloed="0" volume="1" muted="0" name="Master">
        <fxchain enabled="1" numofeffects="1">
          <effect autoquit_numerator="4" wet="1" on="1" autoquit_syncmode="0" autoquit="1" name="ladspaeffect" gate="0" autoquit_denominator="4">
            <ladspacontrols link="1" ports="8">
              <port00 link="1" data="-5.2125001"/>
              <port01 link="1" data_syncmode="0" data="426.24997" data_denominator="4" data_numerator="4"/>
              <port02 link="1" data="0.5"/>
              <port03 link="1" data="0.5"/>
              <port10 data="-5.2125001"/>
              <port11 data_syncmode="0" data="426.24997" data_denominator="4" data_numerator="4"/>
              <port12 data="0.5"/>
              <port13 data="0.5"/>
            </ladspacontrols>
            <key>
              <attribute value="dyson_compress_1403" name="file"/>
              <attribute value="dysonCompress" name="plugin"/>
            </key>
          </effect>
        </fxchain>
      </fxchannel>
    </fxmixer>
    <ControllerRackView minimized="0" height="200" visible="1" maximized="0" width="350" y="407" x="836"/>
    <pianoroll minimized="0" height="477" visible="0" maximized="0" width="860" y="387" x="617"/>
    <automationeditor minimized="0" height="400" visible="0" maximized="0" width="860" y="255" x="56"/>
    <projectnotes minimized="0" height="400" visible="0" maximized="0" width="771" y="1" x="1"><![CDATA[<!DOCTYPE HTML PUBLIC "-//W3C//DTD HTML 4.0//EN" "http://www.w3.org/TR/REC-html40/strict.dtd">
<html><head><meta name="qrichtext" content="1" /><style type="text/css">
p, li { white-space: pre-wrap; }
</style></head><body style=" font-family:'Noto Sans'; font-size:10pt; font-weight:400; font-style:normal;">
<p style="-qt-paragraph-type:empty; margin-top:0px; margin-bottom:0px; margin-left:0px; margin-right:0px; -qt-block-indent:0; text-indent:0px;"><br /></p></body></html>]]></projectnotes>
    <timeline lpstate="0" lp0pos="768" lp1pos="1536"/>
    <controllers/>
  </song>
</lmms-project>
