<?xml version="1.0"?>
<!DOCTYPE lmms-project>
<lmms-project creatorversion="1.2.2" type="song" version="1.0" creator="LMMS">
  <head mastervol="100" masterpitch="0" timesig_numerator="4" timesig_denominator="4" bpm="120"/>
  <song>
    <trackcontainer maximized="0" type="song" minimized="0" width="1619" visible="1" y="11" height="594" x="8">
      <track type="0" name="Drums" muted="0" solo="0">
        <instrumenttrack vol="130" pitch="0" pitchrange="1" usemasterpitch="1" pan="-2.4000001" fxch="0" basenote="57">
          <instrument name="sf2player">
            <sf2player patch="30" src="soundfonts/SGM-v2.01-HQ-v3.0.sf2" chorusOn="0" reverbLevel="0.89999998" reverbRoomSize="0.2" chorusSpeed="0.30000001" gain="1" reverbWidth="0.5" chorusNum="0.89999998" reverbDamping="0.2" bank="128" reverbOn="0" chorusLevel="2" chorusDepth="8"/>
          </instrument>
          <eldata fres="0.5" ftype="0" fcut="14000" fwet="0">
            <elvol lspd_denominator="4" amt="0" sustain="0.5" lshp="0" x100="0" lspd="0.1" hold="0.5" lpdel="0" dec="0.5" lamt="0" userwavefile="" att="0" ctlenvamt="0" latt="0" lspd_numerator="4" rel="0.1" lspd_syncmode="0" pdel="0"/>
            <elcut lspd_denominator="4" amt="0" sustain="0.5" lshp="0" x100="0" lspd="0.1" hold="0.5" lpdel="0" dec="0.5" lamt="0" userwavefile="" att="0" ctlenvamt="0" latt="0" lspd_numerator="4" rel="0.1" lspd_syncmode="0" pdel="0"/>
            <elres lspd_denominator="4" amt="0" sustain="0.5" lshp="0" x100="0" lspd="0.1" hold="0.5" lpdel="0" dec="0.5" lamt="0" userwavefile="" att="0" ctlenvamt="0" latt="0" lspd_numerator="4" rel="0.1" lspd_syncmode="0" pdel="0"/>
          </eldata>
          <chordcreator chord-enabled="0" chordrange="1" chord="0"/>
          <arpeggiator arptime_numerator="4" arpmiss="0" arpcycle="0" arpgate="100" arp="0" arpskip="0" arprange="1" arptime_denominator="4" arptime_syncmode="0" arpmode="0" arpdir="0" arp-enabled="0" arptime="200"/>
          <midiport fixedoutputnote="-1" outputchannel="1" basevelocity="63" outputcontroller="0" inputchannel="0" inputcontroller="0" outputprogram="1" fixedoutputvelocity="-1" readable="0" fixedinputvelocity="-1" writable="0"/>
          <fxchain enabled="1" numofeffects="1">
            <effect on="1" autoquit_numerator="4" gate="0" wet="1" autoquit_syncmode="0" autoquit="1" autoquit_denominator="4" name="amplifier">
              <AmplifierControls volume="200" pan="0" left="100" right="100"/>
              <key/>
            </effect>
          </fxchain>
        </instrumenttrack>
        <pattern type="1" pos="768" name="Drums" steps="16" muted="0">
          <note vol="126" pos="0" key="32" len="12" pan="0"/>
          <note vol="126" pos="0" key="24" len="12" pan="0"/>
          <note vol="89" pos="12" key="32" len="12" pan="0"/>
          <note vol="126" pos="24" key="32" len="12" pan="0"/>
          <note vol="94" pos="36" key="32" len="12" pan="0"/>
          <note vol="126" pos="36" key="24" len="12" pan="0"/>
          <note vol="126" pos="48" key="32" len="12" pan="0"/>
          <note vol="145" pos="48" key="28" len="12" pan="0"/>
          <note vol="102" pos="60" key="32" len="12" pan="0"/>
          <note vol="126" pos="72" key="32" len="12" pan="0"/>
          <note vol="126" pos="72" key="24" len="12" pan="0"/>
          <note vol="94" pos="84" key="32" len="12" pan="0"/>
          <note vol="126" pos="84" key="24" len="12" pan="0"/>
          <note vol="123" pos="96" key="32" len="12" pan="0"/>
          <note vol="91" pos="108" key="32" len="12" pan="0"/>
          <note vol="145" pos="108" key="28" len="12" pan="0"/>
          <note vol="117" pos="120" key="32" len="12" pan="0"/>
          <note vol="126" pos="120" key="24" len="12" pan="0"/>
          <note vol="85" pos="132" key="32" len="12" pan="0"/>
          <note vol="121" pos="144" key="32" len="12" pan="0"/>
          <note vol="145" pos="144" key="28" len="12" pan="0"/>
          <note vol="87" pos="156" key="32" len="12" pan="0"/>
          <note vol="123" pos="168" key="32" len="12" pan="0"/>
          <note vol="126" pos="168" key="24" len="12" pan="0"/>
          <note vol="94" pos="180" key="32" len="12" pan="0"/>
          <note vol="145" pos="180" key="28" len="12" pan="0"/>
          <note vol="126" pos="192" key="32" len="12" pan="0"/>
          <note vol="126" pos="192" key="24" len="12" pan="0"/>
          <note vol="102" pos="204" key="32" len="12" pan="0"/>
          <note vol="126" pos="216" key="32" len="12" pan="0"/>
          <note vol="94" pos="228" key="32" len="12" pan="0"/>
          <note vol="126" pos="228" key="24" len="12" pan="0"/>
          <note vol="126" pos="240" key="32" len="12" pan="0"/>
          <note vol="145" pos="240" key="28" len="12" pan="0"/>
          <note vol="102" pos="252" key="32" len="12" pan="0"/>
          <note vol="126" pos="264" key="32" len="12" pan="0"/>
          <note vol="126" pos="264" key="24" len="12" pan="0"/>
          <note vol="94" pos="276" key="32" len="12" pan="0"/>
          <note vol="126" pos="276" key="24" len="12" pan="0"/>
          <note vol="123" pos="288" key="32" len="12" pan="0"/>
          <note vol="91" pos="300" key="32" len="12" pan="0"/>
          <note vol="145" pos="300" key="28" len="12" pan="0"/>
          <note vol="117" pos="312" key="32" len="12" pan="0"/>
          <note vol="126" pos="312" key="24" len="12" pan="0"/>
          <note vol="85" pos="324" key="32" len="12" pan="0"/>
          <note vol="121" pos="336" key="32" len="12" pan="0"/>
          <note vol="145" pos="336" key="28" len="12" pan="0"/>
          <note vol="87" pos="348" key="32" len="12" pan="0"/>
          <note vol="123" pos="360" key="32" len="12" pan="0"/>
          <note vol="126" pos="360" key="24" len="12" pan="0"/>
          <note vol="94" pos="372" key="32" len="12" pan="0"/>
          <note vol="145" pos="372" key="28" len="12" pan="0"/>
          <note vol="126" pos="384" key="32" len="12" pan="0"/>
          <note vol="126" pos="384" key="24" len="12" pan="0"/>
          <note vol="102" pos="396" key="32" len="12" pan="0"/>
          <note vol="126" pos="408" key="32" len="12" pan="0"/>
          <note vol="94" pos="420" key="32" len="12" pan="0"/>
          <note vol="126" pos="420" key="24" len="12" pan="0"/>
          <note vol="126" pos="432" key="32" len="12" pan="0"/>
          <note vol="145" pos="432" key="28" len="12" pan="0"/>
          <note vol="102" pos="444" key="32" len="12" pan="0"/>
          <note vol="126" pos="456" key="32" len="12" pan="0"/>
          <note vol="126" pos="456" key="24" len="12" pan="0"/>
          <note vol="94" pos="468" key="32" len="12" pan="0"/>
          <note vol="126" pos="468" key="24" len="12" pan="0"/>
          <note vol="123" pos="480" key="32" len="12" pan="0"/>
          <note vol="91" pos="492" key="32" len="12" pan="0"/>
          <note vol="145" pos="492" key="28" len="12" pan="0"/>
          <note vol="117" pos="504" key="32" len="12" pan="0"/>
          <note vol="126" pos="504" key="24" len="12" pan="0"/>
          <note vol="85" pos="516" key="32" len="12" pan="0"/>
          <note vol="121" pos="528" key="32" len="12" pan="0"/>
          <note vol="145" pos="528" key="28" len="12" pan="0"/>
          <note vol="87" pos="540" key="32" len="12" pan="0"/>
          <note vol="123" pos="552" key="32" len="12" pan="0"/>
          <note vol="126" pos="552" key="24" len="12" pan="0"/>
          <note vol="94" pos="564" key="32" len="12" pan="0"/>
          <note vol="145" pos="564" key="28" len="12" pan="0"/>
          <note vol="126" pos="576" key="32" len="12" pan="0"/>
          <note vol="126" pos="576" key="24" len="12" pan="0"/>
          <note vol="102" pos="588" key="32" len="12" pan="0"/>
          <note vol="126" pos="600" key="32" len="12" pan="0"/>
          <note vol="94" pos="612" key="32" len="12" pan="0"/>
          <note vol="126" pos="612" key="24" len="12" pan="0"/>
          <note vol="126" pos="624" key="32" len="12" pan="0"/>
          <note vol="145" pos="624" key="28" len="12" pan="0"/>
          <note vol="102" pos="636" key="32" len="12" pan="0"/>
          <note vol="126" pos="648" key="32" len="12" pan="0"/>
          <note vol="126" pos="648" key="24" len="12" pan="0"/>
          <note vol="94" pos="660" key="32" len="12" pan="0"/>
          <note vol="126" pos="660" key="24" len="12" pan="0"/>
          <note vol="123" pos="672" key="32" len="12" pan="0"/>
          <note vol="91" pos="684" key="32" len="12" pan="0"/>
          <note vol="145" pos="684" key="28" len="12" pan="0"/>
          <note vol="117" pos="696" key="32" len="12" pan="0"/>
          <note vol="126" pos="696" key="24" len="12" pan="0"/>
          <note vol="89" pos="708" key="32" len="12" pan="0"/>
          <note vol="121" pos="720" key="32" len="12" pan="0"/>
          <note vol="145" pos="720" key="28" len="12" pan="0"/>
          <note vol="87" pos="732" key="32" len="12" pan="0"/>
          <note vol="145" pos="732" key="28" len="12" pan="0"/>
          <note vol="123" pos="744" key="32" len="12" pan="0"/>
          <note vol="126" pos="744" key="24" len="12" pan="0"/>
          <note vol="94" pos="756" key="32" len="12" pan="0"/>
          <note vol="145" pos="756" key="28" len="12" pan="0"/>
        </pattern>
        <pattern type="1" pos="1536" name="Drums" steps="16" muted="0">
          <note vol="126" pos="0" key="32" len="12" pan="0"/>
          <note vol="126" pos="0" key="24" len="12" pan="0"/>
          <note vol="89" pos="12" key="32" len="12" pan="0"/>
          <note vol="126" pos="24" key="32" len="12" pan="0"/>
          <note vol="94" pos="36" key="32" len="12" pan="0"/>
          <note vol="126" pos="36" key="24" len="12" pan="0"/>
          <note vol="126" pos="48" key="32" len="12" pan="0"/>
          <note vol="145" pos="48" key="28" len="12" pan="0"/>
          <note vol="102" pos="60" key="32" len="12" pan="0"/>
          <note vol="126" pos="72" key="32" len="12" pan="0"/>
          <note vol="126" pos="72" key="24" len="12" pan="0"/>
          <note vol="94" pos="84" key="32" len="12" pan="0"/>
          <note vol="126" pos="84" key="24" len="12" pan="0"/>
          <note vol="123" pos="96" key="32" len="12" pan="0"/>
          <note vol="91" pos="108" key="32" len="12" pan="0"/>
          <note vol="145" pos="108" key="28" len="12" pan="0"/>
          <note vol="117" pos="120" key="32" len="12" pan="0"/>
          <note vol="126" pos="120" key="24" len="12" pan="0"/>
          <note vol="85" pos="132" key="32" len="12" pan="0"/>
          <note vol="121" pos="144" key="32" len="12" pan="0"/>
          <note vol="145" pos="144" key="28" len="12" pan="0"/>
          <note vol="87" pos="156" key="32" len="12" pan="0"/>
          <note vol="123" pos="168" key="32" len="12" pan="0"/>
          <note vol="126" pos="168" key="24" len="12" pan="0"/>
          <note vol="94" pos="180" key="32" len="12" pan="0"/>
          <note vol="145" pos="180" key="28" len="12" pan="0"/>
          <note vol="126" pos="192" key="32" len="12" pan="0"/>
          <note vol="126" pos="192" key="24" len="12" pan="0"/>
          <note vol="102" pos="204" key="32" len="12" pan="0"/>
          <note vol="126" pos="216" key="32" len="12" pan="0"/>
          <note vol="94" pos="228" key="32" len="12" pan="0"/>
          <note vol="126" pos="228" key="24" len="12" pan="0"/>
          <note vol="126" pos="240" key="32" len="12" pan="0"/>
          <note vol="145" pos="240" key="28" len="12" pan="0"/>
          <note vol="102" pos="252" key="32" len="12" pan="0"/>
          <note vol="126" pos="264" key="32" len="12" pan="0"/>
          <note vol="126" pos="264" key="24" len="12" pan="0"/>
          <note vol="94" pos="276" key="32" len="12" pan="0"/>
          <note vol="126" pos="276" key="24" len="12" pan="0"/>
          <note vol="123" pos="288" key="32" len="12" pan="0"/>
          <note vol="91" pos="300" key="32" len="12" pan="0"/>
          <note vol="145" pos="300" key="28" len="12" pan="0"/>
          <note vol="117" pos="312" key="32" len="12" pan="0"/>
          <note vol="126" pos="312" key="24" len="12" pan="0"/>
          <note vol="85" pos="324" key="32" len="12" pan="0"/>
          <note vol="121" pos="336" key="32" len="12" pan="0"/>
          <note vol="145" pos="336" key="28" len="12" pan="0"/>
          <note vol="87" pos="348" key="32" len="12" pan="0"/>
          <note vol="123" pos="360" key="32" len="12" pan="0"/>
          <note vol="126" pos="360" key="24" len="12" pan="0"/>
          <note vol="94" pos="372" key="32" len="12" pan="0"/>
          <note vol="145" pos="372" key="28" len="12" pan="0"/>
          <note vol="126" pos="384" key="32" len="12" pan="0"/>
          <note vol="126" pos="384" key="24" len="12" pan="0"/>
          <note vol="102" pos="396" key="32" len="12" pan="0"/>
          <note vol="126" pos="408" key="32" len="12" pan="0"/>
          <note vol="94" pos="420" key="32" len="12" pan="0"/>
          <note vol="126" pos="420" key="24" len="12" pan="0"/>
          <note vol="126" pos="432" key="32" len="12" pan="0"/>
          <note vol="145" pos="432" key="28" len="12" pan="0"/>
          <note vol="102" pos="444" key="32" len="12" pan="0"/>
          <note vol="126" pos="456" key="32" len="12" pan="0"/>
          <note vol="126" pos="456" key="24" len="12" pan="0"/>
          <note vol="94" pos="468" key="32" len="12" pan="0"/>
          <note vol="126" pos="468" key="24" len="12" pan="0"/>
          <note vol="123" pos="480" key="32" len="12" pan="0"/>
          <note vol="91" pos="492" key="32" len="12" pan="0"/>
          <note vol="145" pos="492" key="28" len="12" pan="0"/>
          <note vol="117" pos="504" key="32" len="12" pan="0"/>
          <note vol="126" pos="504" key="24" len="12" pan="0"/>
          <note vol="85" pos="516" key="32" len="12" pan="0"/>
          <note vol="121" pos="528" key="32" len="12" pan="0"/>
          <note vol="145" pos="528" key="28" len="12" pan="0"/>
          <note vol="87" pos="540" key="32" len="12" pan="0"/>
          <note vol="123" pos="552" key="32" len="12" pan="0"/>
          <note vol="126" pos="552" key="24" len="12" pan="0"/>
          <note vol="94" pos="564" key="32" len="12" pan="0"/>
          <note vol="145" pos="564" key="28" len="12" pan="0"/>
          <note vol="126" pos="576" key="32" len="12" pan="0"/>
          <note vol="126" pos="576" key="24" len="12" pan="0"/>
          <note vol="102" pos="588" key="32" len="12" pan="0"/>
          <note vol="126" pos="600" key="32" len="12" pan="0"/>
          <note vol="94" pos="612" key="32" len="12" pan="0"/>
          <note vol="126" pos="612" key="24" len="12" pan="0"/>
          <note vol="126" pos="624" key="32" len="12" pan="0"/>
          <note vol="145" pos="624" key="28" len="12" pan="0"/>
          <note vol="102" pos="636" key="32" len="12" pan="0"/>
          <note vol="126" pos="648" key="32" len="12" pan="0"/>
          <note vol="126" pos="648" key="24" len="12" pan="0"/>
          <note vol="94" pos="660" key="32" len="12" pan="0"/>
          <note vol="126" pos="660" key="24" len="12" pan="0"/>
          <note vol="123" pos="672" key="32" len="12" pan="0"/>
          <note vol="91" pos="684" key="32" len="12" pan="0"/>
          <note vol="145" pos="684" key="28" len="12" pan="0"/>
          <note vol="117" pos="696" key="32" len="12" pan="0"/>
          <note vol="126" pos="696" key="24" len="12" pan="0"/>
          <note vol="89" pos="708" key="32" len="12" pan="0"/>
          <note vol="121" pos="720" key="32" len="12" pan="0"/>
          <note vol="145" pos="720" key="28" len="12" pan="0"/>
          <note vol="87" pos="732" key="32" len="12" pan="0"/>
          <note vol="145" pos="732" key="28" len="12" pan="0"/>
          <note vol="123" pos="744" key="32" len="12" pan="0"/>
          <note vol="126" pos="744" key="24" len="12" pan="0"/>
          <note vol="94" pos="756" key="32" len="12" pan="0"/>
          <note vol="145" pos="756" key="28" len="12" pan="0"/>
          <note vol="126" pos="768" key="32" len="12" pan="0"/>
          <note vol="126" pos="768" key="24" len="12" pan="0"/>
          <note vol="89" pos="780" key="32" len="12" pan="0"/>
          <note vol="126" pos="792" key="32" len="12" pan="0"/>
          <note vol="94" pos="804" key="32" len="12" pan="0"/>
          <note vol="126" pos="804" key="24" len="12" pan="0"/>
          <note vol="126" pos="816" key="32" len="12" pan="0"/>
          <note vol="145" pos="816" key="28" len="12" pan="0"/>
          <note vol="102" pos="828" key="32" len="12" pan="0"/>
          <note vol="126" pos="840" key="32" len="12" pan="0"/>
          <note vol="126" pos="840" key="24" len="12" pan="0"/>
          <note vol="94" pos="852" key="32" len="12" pan="0"/>
          <note vol="126" pos="852" key="24" len="12" pan="0"/>
          <note vol="123" pos="864" key="32" len="12" pan="0"/>
          <note vol="91" pos="876" key="32" len="12" pan="0"/>
          <note vol="145" pos="876" key="28" len="12" pan="0"/>
          <note vol="117" pos="888" key="32" len="12" pan="0"/>
          <note vol="126" pos="888" key="24" len="12" pan="0"/>
          <note vol="85" pos="900" key="32" len="12" pan="0"/>
          <note vol="121" pos="912" key="32" len="12" pan="0"/>
          <note vol="145" pos="912" key="28" len="12" pan="0"/>
          <note vol="87" pos="924" key="32" len="12" pan="0"/>
          <note vol="123" pos="936" key="32" len="12" pan="0"/>
          <note vol="126" pos="936" key="24" len="12" pan="0"/>
          <note vol="94" pos="948" key="32" len="12" pan="0"/>
          <note vol="145" pos="948" key="28" len="12" pan="0"/>
          <note vol="126" pos="960" key="32" len="12" pan="0"/>
          <note vol="126" pos="960" key="24" len="12" pan="0"/>
          <note vol="102" pos="972" key="32" len="12" pan="0"/>
          <note vol="126" pos="984" key="32" len="12" pan="0"/>
          <note vol="94" pos="996" key="32" len="12" pan="0"/>
          <note vol="126" pos="996" key="24" len="12" pan="0"/>
          <note vol="126" pos="1008" key="32" len="12" pan="0"/>
          <note vol="145" pos="1008" key="28" len="12" pan="0"/>
          <note vol="102" pos="1020" key="32" len="12" pan="0"/>
          <note vol="126" pos="1032" key="32" len="12" pan="0"/>
          <note vol="126" pos="1032" key="24" len="12" pan="0"/>
          <note vol="94" pos="1044" key="32" len="12" pan="0"/>
          <note vol="126" pos="1044" key="24" len="12" pan="0"/>
          <note vol="123" pos="1056" key="32" len="12" pan="0"/>
          <note vol="91" pos="1068" key="32" len="12" pan="0"/>
          <note vol="145" pos="1068" key="28" len="12" pan="0"/>
          <note vol="117" pos="1080" key="32" len="12" pan="0"/>
          <note vol="126" pos="1080" key="24" len="12" pan="0"/>
          <note vol="85" pos="1092" key="32" len="12" pan="0"/>
          <note vol="121" pos="1104" key="32" len="12" pan="0"/>
          <note vol="145" pos="1104" key="28" len="12" pan="0"/>
          <note vol="87" pos="1116" key="32" len="12" pan="0"/>
          <note vol="123" pos="1128" key="32" len="12" pan="0"/>
          <note vol="126" pos="1128" key="24" len="12" pan="0"/>
          <note vol="94" pos="1140" key="32" len="12" pan="0"/>
          <note vol="145" pos="1140" key="28" len="12" pan="0"/>
          <note vol="126" pos="1152" key="32" len="12" pan="0"/>
          <note vol="126" pos="1152" key="24" len="12" pan="0"/>
          <note vol="102" pos="1164" key="32" len="12" pan="0"/>
          <note vol="126" pos="1176" key="32" len="12" pan="0"/>
          <note vol="94" pos="1188" key="32" len="12" pan="0"/>
          <note vol="126" pos="1188" key="24" len="12" pan="0"/>
          <note vol="126" pos="1200" key="32" len="12" pan="0"/>
          <note vol="145" pos="1200" key="28" len="12" pan="0"/>
          <note vol="102" pos="1212" key="32" len="12" pan="0"/>
          <note vol="126" pos="1224" key="32" len="12" pan="0"/>
          <note vol="126" pos="1224" key="24" len="12" pan="0"/>
          <note vol="94" pos="1236" key="32" len="12" pan="0"/>
          <note vol="126" pos="1236" key="24" len="12" pan="0"/>
          <note vol="123" pos="1248" key="32" len="12" pan="0"/>
          <note vol="91" pos="1260" key="32" len="12" pan="0"/>
          <note vol="145" pos="1260" key="28" len="12" pan="0"/>
          <note vol="117" pos="1272" key="32" len="12" pan="0"/>
          <note vol="126" pos="1272" key="24" len="12" pan="0"/>
          <note vol="85" pos="1284" key="32" len="12" pan="0"/>
          <note vol="121" pos="1296" key="32" len="12" pan="0"/>
          <note vol="145" pos="1296" key="28" len="12" pan="0"/>
          <note vol="87" pos="1308" key="32" len="12" pan="0"/>
          <note vol="123" pos="1320" key="32" len="12" pan="0"/>
          <note vol="126" pos="1320" key="24" len="12" pan="0"/>
          <note vol="94" pos="1332" key="32" len="12" pan="0"/>
          <note vol="145" pos="1332" key="28" len="12" pan="0"/>
          <note vol="126" pos="1344" key="32" len="12" pan="0"/>
          <note vol="126" pos="1344" key="24" len="12" pan="0"/>
          <note vol="102" pos="1356" key="32" len="12" pan="0"/>
          <note vol="126" pos="1368" key="32" len="12" pan="0"/>
          <note vol="94" pos="1380" key="32" len="12" pan="0"/>
          <note vol="126" pos="1380" key="24" len="12" pan="0"/>
          <note vol="126" pos="1392" key="32" len="12" pan="0"/>
          <note vol="145" pos="1392" key="28" len="12" pan="0"/>
          <note vol="102" pos="1404" key="32" len="12" pan="0"/>
          <note vol="126" pos="1416" key="32" len="12" pan="0"/>
          <note vol="126" pos="1416" key="24" len="12" pan="0"/>
          <note vol="94" pos="1428" key="32" len="12" pan="0"/>
          <note vol="126" pos="1428" key="24" len="12" pan="0"/>
          <note vol="123" pos="1440" key="32" len="12" pan="0"/>
          <note vol="91" pos="1452" key="32" len="12" pan="0"/>
          <note vol="145" pos="1452" key="28" len="12" pan="0"/>
          <note vol="117" pos="1464" key="32" len="12" pan="0"/>
          <note vol="126" pos="1464" key="24" len="12" pan="0"/>
          <note vol="89" pos="1476" key="32" len="12" pan="0"/>
          <note vol="121" pos="1488" key="32" len="12" pan="0"/>
          <note vol="145" pos="1488" key="28" len="12" pan="0"/>
          <note vol="87" pos="1500" key="32" len="12" pan="0"/>
          <note vol="145" pos="1500" key="28" len="12" pan="0"/>
          <note vol="123" pos="1512" key="32" len="12" pan="0"/>
          <note vol="126" pos="1512" key="24" len="12" pan="0"/>
          <note vol="94" pos="1524" key="32" len="12" pan="0"/>
          <note vol="145" pos="1524" key="28" len="12" pan="0"/>
        </pattern>
        <pattern type="1" pos="576" name="Drums" steps="16" muted="0">
          <note vol="112" pos="96" key="28" len="12" pan="0"/>
          <note vol="112" pos="96" key="24" len="12" pan="0"/>
          <note vol="112" pos="108" key="28" len="12" pan="0"/>
          <note vol="112" pos="108" key="24" len="12" pan="0"/>
          <note vol="31" pos="120" key="28" len="12" pan="0"/>
          <note vol="112" pos="132" key="28" len="12" pan="0"/>
          <note vol="112" pos="132" key="24" len="12" pan="0"/>
          <note vol="112" pos="144" key="28" len="12" pan="0"/>
          <note vol="112" pos="144" key="24" len="12" pan="0"/>
          <note vol="31" pos="156" key="28" len="12" pan="0"/>
          <note vol="112" pos="168" key="28" len="12" pan="0"/>
          <note vol="112" pos="168" key="26" len="12" pan="0"/>
          <note vol="112" pos="168" key="24" len="12" pan="0"/>
          <note vol="100" pos="180" key="28" len="12" pan="0"/>
          <note vol="100" pos="180" key="24" len="12" pan="0"/>
        </pattern>
        <pattern type="1" pos="4608" name="" steps="16" muted="0">
          <note vol="126" pos="0" key="32" len="12" pan="0"/>
          <note vol="126" pos="0" key="24" len="12" pan="0"/>
          <note vol="89" pos="12" key="32" len="12" pan="0"/>
          <note vol="126" pos="24" key="32" len="12" pan="0"/>
          <note vol="94" pos="36" key="32" len="12" pan="0"/>
          <note vol="126" pos="36" key="24" len="12" pan="0"/>
          <note vol="126" pos="48" key="32" len="12" pan="0"/>
          <note vol="145" pos="48" key="28" len="12" pan="0"/>
          <note vol="102" pos="60" key="32" len="12" pan="0"/>
          <note vol="126" pos="72" key="32" len="12" pan="0"/>
          <note vol="126" pos="72" key="24" len="12" pan="0"/>
          <note vol="94" pos="84" key="32" len="12" pan="0"/>
          <note vol="126" pos="84" key="24" len="12" pan="0"/>
          <note vol="123" pos="96" key="32" len="12" pan="0"/>
          <note vol="91" pos="108" key="32" len="12" pan="0"/>
          <note vol="145" pos="108" key="28" len="12" pan="0"/>
          <note vol="117" pos="120" key="32" len="12" pan="0"/>
          <note vol="126" pos="120" key="24" len="12" pan="0"/>
          <note vol="85" pos="132" key="32" len="12" pan="0"/>
          <note vol="121" pos="144" key="32" len="12" pan="0"/>
          <note vol="145" pos="144" key="28" len="12" pan="0"/>
          <note vol="87" pos="156" key="32" len="12" pan="0"/>
          <note vol="123" pos="168" key="32" len="12" pan="0"/>
          <note vol="126" pos="168" key="24" len="12" pan="0"/>
          <note vol="94" pos="180" key="32" len="12" pan="0"/>
          <note vol="145" pos="180" key="28" len="12" pan="0"/>
          <note vol="126" pos="192" key="32" len="12" pan="0"/>
          <note vol="126" pos="192" key="24" len="12" pan="0"/>
          <note vol="102" pos="204" key="32" len="12" pan="0"/>
          <note vol="126" pos="216" key="32" len="12" pan="0"/>
          <note vol="94" pos="228" key="32" len="12" pan="0"/>
          <note vol="126" pos="228" key="24" len="12" pan="0"/>
          <note vol="126" pos="240" key="32" len="12" pan="0"/>
          <note vol="145" pos="240" key="28" len="12" pan="0"/>
          <note vol="102" pos="252" key="32" len="12" pan="0"/>
          <note vol="126" pos="264" key="32" len="12" pan="0"/>
          <note vol="126" pos="264" key="24" len="12" pan="0"/>
          <note vol="94" pos="276" key="32" len="12" pan="0"/>
          <note vol="126" pos="276" key="24" len="12" pan="0"/>
          <note vol="123" pos="288" key="32" len="12" pan="0"/>
          <note vol="91" pos="300" key="32" len="12" pan="0"/>
          <note vol="145" pos="300" key="28" len="12" pan="0"/>
          <note vol="117" pos="312" key="32" len="12" pan="0"/>
          <note vol="126" pos="312" key="24" len="12" pan="0"/>
          <note vol="85" pos="324" key="32" len="12" pan="0"/>
          <note vol="121" pos="336" key="32" len="12" pan="0"/>
          <note vol="145" pos="336" key="28" len="12" pan="0"/>
          <note vol="87" pos="348" key="32" len="12" pan="0"/>
          <note vol="123" pos="360" key="32" len="12" pan="0"/>
          <note vol="126" pos="360" key="24" len="12" pan="0"/>
          <note vol="94" pos="372" key="32" len="12" pan="0"/>
          <note vol="145" pos="372" key="28" len="12" pan="0"/>
          <note vol="126" pos="384" key="32" len="12" pan="0"/>
          <note vol="126" pos="384" key="24" len="12" pan="0"/>
          <note vol="102" pos="396" key="32" len="12" pan="0"/>
          <note vol="126" pos="408" key="32" len="12" pan="0"/>
          <note vol="94" pos="420" key="32" len="12" pan="0"/>
          <note vol="126" pos="420" key="24" len="12" pan="0"/>
          <note vol="126" pos="432" key="32" len="12" pan="0"/>
          <note vol="145" pos="432" key="28" len="12" pan="0"/>
          <note vol="102" pos="444" key="32" len="12" pan="0"/>
          <note vol="126" pos="456" key="32" len="12" pan="0"/>
          <note vol="126" pos="456" key="24" len="12" pan="0"/>
          <note vol="94" pos="468" key="32" len="12" pan="0"/>
          <note vol="126" pos="468" key="24" len="12" pan="0"/>
          <note vol="123" pos="480" key="32" len="12" pan="0"/>
          <note vol="91" pos="492" key="32" len="12" pan="0"/>
          <note vol="145" pos="492" key="28" len="12" pan="0"/>
          <note vol="117" pos="504" key="32" len="12" pan="0"/>
          <note vol="126" pos="504" key="24" len="12" pan="0"/>
          <note vol="85" pos="516" key="32" len="12" pan="0"/>
          <note vol="121" pos="528" key="32" len="12" pan="0"/>
          <note vol="145" pos="528" key="28" len="12" pan="0"/>
          <note vol="87" pos="540" key="32" len="12" pan="0"/>
          <note vol="123" pos="552" key="32" len="12" pan="0"/>
          <note vol="126" pos="552" key="24" len="12" pan="0"/>
          <note vol="94" pos="564" key="32" len="12" pan="0"/>
          <note vol="145" pos="564" key="28" len="12" pan="0"/>
          <note vol="126" pos="576" key="32" len="12" pan="0"/>
          <note vol="126" pos="576" key="24" len="12" pan="0"/>
          <note vol="102" pos="588" key="32" len="12" pan="0"/>
          <note vol="126" pos="600" key="32" len="12" pan="0"/>
          <note vol="94" pos="612" key="32" len="12" pan="0"/>
          <note vol="126" pos="612" key="24" len="12" pan="0"/>
          <note vol="126" pos="624" key="32" len="12" pan="0"/>
          <note vol="145" pos="624" key="28" len="12" pan="0"/>
          <note vol="102" pos="636" key="32" len="12" pan="0"/>
          <note vol="126" pos="648" key="32" len="12" pan="0"/>
          <note vol="126" pos="648" key="24" len="12" pan="0"/>
          <note vol="94" pos="660" key="32" len="12" pan="0"/>
          <note vol="126" pos="660" key="24" len="12" pan="0"/>
          <note vol="123" pos="672" key="32" len="12" pan="0"/>
          <note vol="91" pos="684" key="32" len="12" pan="0"/>
          <note vol="145" pos="684" key="28" len="12" pan="0"/>
          <note vol="117" pos="696" key="32" len="12" pan="0"/>
          <note vol="126" pos="696" key="24" len="12" pan="0"/>
          <note vol="89" pos="708" key="32" len="12" pan="0"/>
          <note vol="121" pos="720" key="32" len="12" pan="0"/>
          <note vol="145" pos="720" key="28" len="12" pan="0"/>
          <note vol="87" pos="732" key="32" len="12" pan="0"/>
          <note vol="145" pos="732" key="28" len="12" pan="0"/>
          <note vol="123" pos="744" key="32" len="12" pan="0"/>
          <note vol="126" pos="744" key="24" len="12" pan="0"/>
          <note vol="94" pos="756" key="32" len="12" pan="0"/>
          <note vol="145" pos="756" key="28" len="12" pan="0"/>
          <note vol="126" pos="768" key="32" len="12" pan="0"/>
          <note vol="126" pos="768" key="24" len="12" pan="0"/>
          <note vol="89" pos="780" key="32" len="12" pan="0"/>
          <note vol="126" pos="792" key="32" len="12" pan="0"/>
          <note vol="94" pos="804" key="32" len="12" pan="0"/>
          <note vol="126" pos="804" key="24" len="12" pan="0"/>
          <note vol="126" pos="816" key="32" len="12" pan="0"/>
          <note vol="145" pos="816" key="28" len="12" pan="0"/>
          <note vol="102" pos="828" key="32" len="12" pan="0"/>
          <note vol="126" pos="840" key="32" len="12" pan="0"/>
          <note vol="126" pos="840" key="24" len="12" pan="0"/>
          <note vol="94" pos="852" key="32" len="12" pan="0"/>
          <note vol="126" pos="852" key="24" len="12" pan="0"/>
          <note vol="123" pos="864" key="32" len="12" pan="0"/>
          <note vol="91" pos="876" key="32" len="12" pan="0"/>
          <note vol="145" pos="876" key="28" len="12" pan="0"/>
          <note vol="117" pos="888" key="32" len="12" pan="0"/>
          <note vol="126" pos="888" key="24" len="12" pan="0"/>
          <note vol="85" pos="900" key="32" len="12" pan="0"/>
          <note vol="121" pos="912" key="32" len="12" pan="0"/>
          <note vol="145" pos="912" key="28" len="12" pan="0"/>
          <note vol="87" pos="924" key="32" len="12" pan="0"/>
          <note vol="123" pos="936" key="32" len="12" pan="0"/>
          <note vol="126" pos="936" key="24" len="12" pan="0"/>
          <note vol="94" pos="948" key="32" len="12" pan="0"/>
          <note vol="145" pos="948" key="28" len="12" pan="0"/>
          <note vol="126" pos="960" key="32" len="12" pan="0"/>
          <note vol="126" pos="960" key="24" len="12" pan="0"/>
          <note vol="102" pos="972" key="32" len="12" pan="0"/>
          <note vol="126" pos="984" key="32" len="12" pan="0"/>
          <note vol="94" pos="996" key="32" len="12" pan="0"/>
          <note vol="126" pos="996" key="24" len="12" pan="0"/>
          <note vol="126" pos="1008" key="32" len="12" pan="0"/>
          <note vol="145" pos="1008" key="28" len="12" pan="0"/>
          <note vol="102" pos="1020" key="32" len="12" pan="0"/>
          <note vol="126" pos="1032" key="32" len="12" pan="0"/>
          <note vol="126" pos="1032" key="24" len="12" pan="0"/>
          <note vol="94" pos="1044" key="32" len="12" pan="0"/>
          <note vol="126" pos="1044" key="24" len="12" pan="0"/>
          <note vol="123" pos="1056" key="32" len="12" pan="0"/>
          <note vol="91" pos="1068" key="32" len="12" pan="0"/>
          <note vol="145" pos="1068" key="28" len="12" pan="0"/>
          <note vol="117" pos="1080" key="32" len="12" pan="0"/>
          <note vol="126" pos="1080" key="24" len="12" pan="0"/>
          <note vol="85" pos="1092" key="32" len="12" pan="0"/>
          <note vol="121" pos="1104" key="32" len="12" pan="0"/>
          <note vol="145" pos="1104" key="28" len="12" pan="0"/>
          <note vol="87" pos="1116" key="32" len="12" pan="0"/>
          <note vol="123" pos="1128" key="32" len="12" pan="0"/>
          <note vol="126" pos="1128" key="24" len="12" pan="0"/>
          <note vol="94" pos="1140" key="32" len="12" pan="0"/>
          <note vol="145" pos="1140" key="28" len="12" pan="0"/>
          <note vol="126" pos="1152" key="32" len="12" pan="0"/>
          <note vol="126" pos="1152" key="24" len="12" pan="0"/>
          <note vol="102" pos="1164" key="32" len="12" pan="0"/>
          <note vol="126" pos="1176" key="32" len="12" pan="0"/>
          <note vol="94" pos="1188" key="32" len="12" pan="0"/>
          <note vol="126" pos="1188" key="24" len="12" pan="0"/>
          <note vol="126" pos="1200" key="32" len="12" pan="0"/>
          <note vol="145" pos="1200" key="28" len="12" pan="0"/>
          <note vol="102" pos="1212" key="32" len="12" pan="0"/>
          <note vol="126" pos="1224" key="32" len="12" pan="0"/>
          <note vol="126" pos="1224" key="24" len="12" pan="0"/>
          <note vol="94" pos="1236" key="32" len="12" pan="0"/>
          <note vol="126" pos="1236" key="24" len="12" pan="0"/>
          <note vol="123" pos="1248" key="32" len="12" pan="0"/>
          <note vol="91" pos="1260" key="32" len="12" pan="0"/>
          <note vol="145" pos="1260" key="28" len="12" pan="0"/>
          <note vol="117" pos="1272" key="32" len="12" pan="0"/>
          <note vol="126" pos="1272" key="24" len="12" pan="0"/>
          <note vol="85" pos="1284" key="32" len="12" pan="0"/>
          <note vol="121" pos="1296" key="32" len="12" pan="0"/>
          <note vol="145" pos="1296" key="28" len="12" pan="0"/>
          <note vol="87" pos="1308" key="32" len="12" pan="0"/>
          <note vol="123" pos="1320" key="32" len="12" pan="0"/>
          <note vol="126" pos="1320" key="24" len="12" pan="0"/>
          <note vol="94" pos="1332" key="32" len="12" pan="0"/>
          <note vol="145" pos="1332" key="28" len="12" pan="0"/>
          <note vol="126" pos="1344" key="32" len="12" pan="0"/>
          <note vol="126" pos="1344" key="24" len="12" pan="0"/>
          <note vol="102" pos="1356" key="32" len="12" pan="0"/>
          <note vol="126" pos="1368" key="32" len="12" pan="0"/>
          <note vol="94" pos="1380" key="32" len="12" pan="0"/>
          <note vol="126" pos="1380" key="24" len="12" pan="0"/>
          <note vol="126" pos="1392" key="32" len="12" pan="0"/>
          <note vol="145" pos="1392" key="28" len="12" pan="0"/>
          <note vol="102" pos="1404" key="32" len="12" pan="0"/>
          <note vol="126" pos="1416" key="32" len="12" pan="0"/>
          <note vol="126" pos="1416" key="24" len="12" pan="0"/>
          <note vol="94" pos="1428" key="32" len="12" pan="0"/>
          <note vol="126" pos="1428" key="24" len="12" pan="0"/>
          <note vol="123" pos="1440" key="32" len="12" pan="0"/>
          <note vol="91" pos="1452" key="32" len="12" pan="0"/>
          <note vol="145" pos="1452" key="28" len="12" pan="0"/>
          <note vol="117" pos="1464" key="32" len="12" pan="0"/>
          <note vol="126" pos="1464" key="24" len="12" pan="0"/>
          <note vol="89" pos="1476" key="32" len="12" pan="0"/>
          <note vol="121" pos="1488" key="32" len="12" pan="0"/>
          <note vol="145" pos="1488" key="28" len="12" pan="0"/>
          <note vol="87" pos="1500" key="32" len="12" pan="0"/>
          <note vol="145" pos="1500" key="28" len="12" pan="0"/>
          <note vol="123" pos="1512" key="32" len="12" pan="0"/>
          <note vol="126" pos="1512" key="24" len="12" pan="0"/>
          <note vol="94" pos="1524" key="32" len="12" pan="0"/>
          <note vol="145" pos="1524" key="28" len="12" pan="0"/>
        </pattern>
        <pattern type="1" pos="9216" name="" steps="16" muted="0">
          <note vol="126" pos="0" key="32" len="12" pan="0"/>
          <note vol="126" pos="0" key="24" len="12" pan="0"/>
          <note vol="89" pos="12" key="32" len="12" pan="0"/>
          <note vol="126" pos="24" key="32" len="12" pan="0"/>
          <note vol="94" pos="36" key="32" len="12" pan="0"/>
          <note vol="126" pos="36" key="24" len="12" pan="0"/>
          <note vol="126" pos="48" key="32" len="12" pan="0"/>
          <note vol="145" pos="48" key="28" len="12" pan="0"/>
          <note vol="102" pos="60" key="32" len="12" pan="0"/>
          <note vol="126" pos="72" key="32" len="12" pan="0"/>
          <note vol="126" pos="72" key="24" len="12" pan="0"/>
          <note vol="94" pos="84" key="32" len="12" pan="0"/>
          <note vol="126" pos="84" key="24" len="12" pan="0"/>
          <note vol="123" pos="96" key="32" len="12" pan="0"/>
          <note vol="91" pos="108" key="32" len="12" pan="0"/>
          <note vol="145" pos="108" key="28" len="12" pan="0"/>
          <note vol="117" pos="120" key="32" len="12" pan="0"/>
          <note vol="126" pos="120" key="24" len="12" pan="0"/>
          <note vol="85" pos="132" key="32" len="12" pan="0"/>
          <note vol="121" pos="144" key="32" len="12" pan="0"/>
          <note vol="145" pos="144" key="28" len="12" pan="0"/>
          <note vol="87" pos="156" key="32" len="12" pan="0"/>
          <note vol="123" pos="168" key="32" len="12" pan="0"/>
          <note vol="126" pos="168" key="24" len="12" pan="0"/>
          <note vol="94" pos="180" key="32" len="12" pan="0"/>
          <note vol="145" pos="180" key="28" len="12" pan="0"/>
          <note vol="126" pos="192" key="32" len="12" pan="0"/>
          <note vol="126" pos="192" key="24" len="12" pan="0"/>
          <note vol="102" pos="204" key="32" len="12" pan="0"/>
          <note vol="126" pos="216" key="32" len="12" pan="0"/>
          <note vol="94" pos="228" key="32" len="12" pan="0"/>
          <note vol="126" pos="228" key="24" len="12" pan="0"/>
          <note vol="126" pos="240" key="32" len="12" pan="0"/>
          <note vol="145" pos="240" key="28" len="12" pan="0"/>
          <note vol="102" pos="252" key="32" len="12" pan="0"/>
          <note vol="126" pos="264" key="32" len="12" pan="0"/>
          <note vol="126" pos="264" key="24" len="12" pan="0"/>
          <note vol="94" pos="276" key="32" len="12" pan="0"/>
          <note vol="126" pos="276" key="24" len="12" pan="0"/>
          <note vol="123" pos="288" key="32" len="12" pan="0"/>
          <note vol="91" pos="300" key="32" len="12" pan="0"/>
          <note vol="145" pos="300" key="28" len="12" pan="0"/>
          <note vol="117" pos="312" key="32" len="12" pan="0"/>
          <note vol="126" pos="312" key="24" len="12" pan="0"/>
          <note vol="85" pos="324" key="32" len="12" pan="0"/>
          <note vol="121" pos="336" key="32" len="12" pan="0"/>
          <note vol="145" pos="336" key="28" len="12" pan="0"/>
          <note vol="87" pos="348" key="32" len="12" pan="0"/>
          <note vol="123" pos="360" key="32" len="12" pan="0"/>
          <note vol="126" pos="360" key="24" len="12" pan="0"/>
          <note vol="94" pos="372" key="32" len="12" pan="0"/>
          <note vol="145" pos="372" key="28" len="12" pan="0"/>
          <note vol="126" pos="384" key="32" len="12" pan="0"/>
          <note vol="126" pos="384" key="24" len="12" pan="0"/>
          <note vol="102" pos="396" key="32" len="12" pan="0"/>
          <note vol="126" pos="408" key="32" len="12" pan="0"/>
          <note vol="94" pos="420" key="32" len="12" pan="0"/>
          <note vol="126" pos="420" key="24" len="12" pan="0"/>
          <note vol="126" pos="432" key="32" len="12" pan="0"/>
          <note vol="145" pos="432" key="28" len="12" pan="0"/>
          <note vol="102" pos="444" key="32" len="12" pan="0"/>
          <note vol="126" pos="456" key="32" len="12" pan="0"/>
          <note vol="126" pos="456" key="24" len="12" pan="0"/>
          <note vol="94" pos="468" key="32" len="12" pan="0"/>
          <note vol="126" pos="468" key="24" len="12" pan="0"/>
          <note vol="123" pos="480" key="32" len="12" pan="0"/>
          <note vol="91" pos="492" key="32" len="12" pan="0"/>
          <note vol="145" pos="492" key="28" len="12" pan="0"/>
          <note vol="117" pos="504" key="32" len="12" pan="0"/>
          <note vol="126" pos="504" key="24" len="12" pan="0"/>
          <note vol="85" pos="516" key="32" len="12" pan="0"/>
          <note vol="121" pos="528" key="32" len="12" pan="0"/>
          <note vol="145" pos="528" key="28" len="12" pan="0"/>
          <note vol="87" pos="540" key="32" len="12" pan="0"/>
          <note vol="123" pos="552" key="32" len="12" pan="0"/>
          <note vol="126" pos="552" key="24" len="12" pan="0"/>
          <note vol="94" pos="564" key="32" len="12" pan="0"/>
          <note vol="145" pos="564" key="28" len="12" pan="0"/>
          <note vol="126" pos="576" key="32" len="12" pan="0"/>
          <note vol="126" pos="576" key="24" len="12" pan="0"/>
          <note vol="102" pos="588" key="32" len="12" pan="0"/>
          <note vol="126" pos="600" key="32" len="12" pan="0"/>
          <note vol="94" pos="612" key="32" len="12" pan="0"/>
          <note vol="126" pos="612" key="24" len="12" pan="0"/>
          <note vol="126" pos="624" key="32" len="12" pan="0"/>
          <note vol="145" pos="624" key="28" len="12" pan="0"/>
          <note vol="102" pos="636" key="32" len="12" pan="0"/>
          <note vol="126" pos="648" key="32" len="12" pan="0"/>
          <note vol="126" pos="648" key="24" len="12" pan="0"/>
          <note vol="94" pos="660" key="32" len="12" pan="0"/>
          <note vol="126" pos="660" key="24" len="12" pan="0"/>
          <note vol="123" pos="672" key="32" len="12" pan="0"/>
          <note vol="91" pos="684" key="32" len="12" pan="0"/>
          <note vol="145" pos="684" key="28" len="12" pan="0"/>
          <note vol="117" pos="696" key="32" len="12" pan="0"/>
          <note vol="126" pos="696" key="24" len="12" pan="0"/>
          <note vol="89" pos="708" key="32" len="12" pan="0"/>
          <note vol="121" pos="720" key="32" len="12" pan="0"/>
          <note vol="145" pos="720" key="28" len="12" pan="0"/>
          <note vol="87" pos="732" key="32" len="12" pan="0"/>
          <note vol="145" pos="732" key="28" len="12" pan="0"/>
          <note vol="123" pos="744" key="32" len="12" pan="0"/>
          <note vol="126" pos="744" key="24" len="12" pan="0"/>
          <note vol="94" pos="756" key="32" len="12" pan="0"/>
          <note vol="145" pos="756" key="28" len="12" pan="0"/>
          <note vol="126" pos="768" key="32" len="12" pan="0"/>
          <note vol="126" pos="768" key="24" len="12" pan="0"/>
          <note vol="89" pos="780" key="32" len="12" pan="0"/>
          <note vol="126" pos="792" key="32" len="12" pan="0"/>
          <note vol="94" pos="804" key="32" len="12" pan="0"/>
          <note vol="126" pos="804" key="24" len="12" pan="0"/>
          <note vol="126" pos="816" key="32" len="12" pan="0"/>
          <note vol="145" pos="816" key="28" len="12" pan="0"/>
          <note vol="102" pos="828" key="32" len="12" pan="0"/>
          <note vol="126" pos="840" key="32" len="12" pan="0"/>
          <note vol="126" pos="840" key="24" len="12" pan="0"/>
          <note vol="94" pos="852" key="32" len="12" pan="0"/>
          <note vol="126" pos="852" key="24" len="12" pan="0"/>
          <note vol="123" pos="864" key="32" len="12" pan="0"/>
          <note vol="91" pos="876" key="32" len="12" pan="0"/>
          <note vol="145" pos="876" key="28" len="12" pan="0"/>
          <note vol="117" pos="888" key="32" len="12" pan="0"/>
          <note vol="126" pos="888" key="24" len="12" pan="0"/>
          <note vol="85" pos="900" key="32" len="12" pan="0"/>
          <note vol="121" pos="912" key="32" len="12" pan="0"/>
          <note vol="145" pos="912" key="28" len="12" pan="0"/>
          <note vol="87" pos="924" key="32" len="12" pan="0"/>
          <note vol="123" pos="936" key="32" len="12" pan="0"/>
          <note vol="126" pos="936" key="24" len="12" pan="0"/>
          <note vol="94" pos="948" key="32" len="12" pan="0"/>
          <note vol="145" pos="948" key="28" len="12" pan="0"/>
          <note vol="126" pos="960" key="32" len="12" pan="0"/>
          <note vol="126" pos="960" key="24" len="12" pan="0"/>
          <note vol="102" pos="972" key="32" len="12" pan="0"/>
          <note vol="126" pos="984" key="32" len="12" pan="0"/>
          <note vol="94" pos="996" key="32" len="12" pan="0"/>
          <note vol="126" pos="996" key="24" len="12" pan="0"/>
          <note vol="126" pos="1008" key="32" len="12" pan="0"/>
          <note vol="145" pos="1008" key="28" len="12" pan="0"/>
          <note vol="102" pos="1020" key="32" len="12" pan="0"/>
          <note vol="126" pos="1032" key="32" len="12" pan="0"/>
          <note vol="126" pos="1032" key="24" len="12" pan="0"/>
          <note vol="94" pos="1044" key="32" len="12" pan="0"/>
          <note vol="126" pos="1044" key="24" len="12" pan="0"/>
          <note vol="123" pos="1056" key="32" len="12" pan="0"/>
          <note vol="91" pos="1068" key="32" len="12" pan="0"/>
          <note vol="145" pos="1068" key="28" len="12" pan="0"/>
          <note vol="117" pos="1080" key="32" len="12" pan="0"/>
          <note vol="126" pos="1080" key="24" len="12" pan="0"/>
          <note vol="85" pos="1092" key="32" len="12" pan="0"/>
          <note vol="121" pos="1104" key="32" len="12" pan="0"/>
          <note vol="145" pos="1104" key="28" len="12" pan="0"/>
          <note vol="87" pos="1116" key="32" len="12" pan="0"/>
          <note vol="123" pos="1128" key="32" len="12" pan="0"/>
          <note vol="126" pos="1128" key="24" len="12" pan="0"/>
          <note vol="94" pos="1140" key="32" len="12" pan="0"/>
          <note vol="145" pos="1140" key="28" len="12" pan="0"/>
          <note vol="126" pos="1152" key="32" len="12" pan="0"/>
          <note vol="126" pos="1152" key="24" len="12" pan="0"/>
          <note vol="102" pos="1164" key="32" len="12" pan="0"/>
          <note vol="126" pos="1176" key="32" len="12" pan="0"/>
          <note vol="94" pos="1188" key="32" len="12" pan="0"/>
          <note vol="126" pos="1188" key="24" len="12" pan="0"/>
          <note vol="126" pos="1200" key="32" len="12" pan="0"/>
          <note vol="145" pos="1200" key="28" len="12" pan="0"/>
          <note vol="102" pos="1212" key="32" len="12" pan="0"/>
          <note vol="126" pos="1224" key="32" len="12" pan="0"/>
          <note vol="126" pos="1224" key="24" len="12" pan="0"/>
          <note vol="94" pos="1236" key="32" len="12" pan="0"/>
          <note vol="126" pos="1236" key="24" len="12" pan="0"/>
          <note vol="123" pos="1248" key="32" len="12" pan="0"/>
          <note vol="91" pos="1260" key="32" len="12" pan="0"/>
          <note vol="145" pos="1260" key="28" len="12" pan="0"/>
          <note vol="117" pos="1272" key="32" len="12" pan="0"/>
          <note vol="126" pos="1272" key="24" len="12" pan="0"/>
          <note vol="85" pos="1284" key="32" len="12" pan="0"/>
          <note vol="121" pos="1296" key="32" len="12" pan="0"/>
          <note vol="145" pos="1296" key="28" len="12" pan="0"/>
          <note vol="87" pos="1308" key="32" len="12" pan="0"/>
          <note vol="123" pos="1320" key="32" len="12" pan="0"/>
          <note vol="126" pos="1320" key="24" len="12" pan="0"/>
          <note vol="94" pos="1332" key="32" len="12" pan="0"/>
          <note vol="145" pos="1332" key="28" len="12" pan="0"/>
          <note vol="126" pos="1344" key="32" len="12" pan="0"/>
          <note vol="126" pos="1344" key="24" len="12" pan="0"/>
          <note vol="102" pos="1356" key="32" len="12" pan="0"/>
          <note vol="126" pos="1368" key="32" len="12" pan="0"/>
          <note vol="94" pos="1380" key="32" len="12" pan="0"/>
          <note vol="126" pos="1380" key="24" len="12" pan="0"/>
          <note vol="126" pos="1392" key="32" len="12" pan="0"/>
          <note vol="145" pos="1392" key="28" len="12" pan="0"/>
          <note vol="102" pos="1404" key="32" len="12" pan="0"/>
          <note vol="126" pos="1416" key="32" len="12" pan="0"/>
          <note vol="126" pos="1416" key="24" len="12" pan="0"/>
          <note vol="94" pos="1428" key="32" len="12" pan="0"/>
          <note vol="126" pos="1428" key="24" len="12" pan="0"/>
          <note vol="123" pos="1440" key="32" len="12" pan="0"/>
          <note vol="91" pos="1452" key="32" len="12" pan="0"/>
          <note vol="145" pos="1452" key="28" len="12" pan="0"/>
          <note vol="117" pos="1464" key="32" len="12" pan="0"/>
          <note vol="126" pos="1464" key="24" len="12" pan="0"/>
          <note vol="89" pos="1476" key="32" len="12" pan="0"/>
          <note vol="121" pos="1488" key="32" len="12" pan="0"/>
          <note vol="145" pos="1488" key="28" len="12" pan="0"/>
          <note vol="87" pos="1500" key="32" len="12" pan="0"/>
          <note vol="145" pos="1500" key="28" len="12" pan="0"/>
          <note vol="123" pos="1512" key="32" len="12" pan="0"/>
          <note vol="126" pos="1512" key="24" len="12" pan="0"/>
          <note vol="94" pos="1524" key="32" len="12" pan="0"/>
          <note vol="145" pos="1524" key="28" len="12" pan="0"/>
        </pattern>
        <pattern type="1" pos="6144" name="" steps="16" muted="0">
          <note vol="126" pos="0" key="32" len="12" pan="0"/>
          <note vol="126" pos="0" key="24" len="12" pan="0"/>
          <note vol="89" pos="12" key="32" len="12" pan="0"/>
          <note vol="126" pos="24" key="32" len="12" pan="0"/>
          <note vol="94" pos="36" key="32" len="12" pan="0"/>
          <note vol="126" pos="36" key="24" len="12" pan="0"/>
          <note vol="126" pos="48" key="32" len="12" pan="0"/>
          <note vol="145" pos="48" key="28" len="12" pan="0"/>
          <note vol="102" pos="60" key="32" len="12" pan="0"/>
          <note vol="126" pos="72" key="32" len="12" pan="0"/>
          <note vol="126" pos="72" key="24" len="12" pan="0"/>
          <note vol="94" pos="84" key="32" len="12" pan="0"/>
          <note vol="126" pos="84" key="24" len="12" pan="0"/>
          <note vol="123" pos="96" key="32" len="12" pan="0"/>
          <note vol="91" pos="108" key="32" len="12" pan="0"/>
          <note vol="145" pos="108" key="28" len="12" pan="0"/>
          <note vol="117" pos="120" key="32" len="12" pan="0"/>
          <note vol="126" pos="120" key="24" len="12" pan="0"/>
          <note vol="85" pos="132" key="32" len="12" pan="0"/>
          <note vol="121" pos="144" key="32" len="12" pan="0"/>
          <note vol="145" pos="144" key="28" len="12" pan="0"/>
          <note vol="87" pos="156" key="32" len="12" pan="0"/>
          <note vol="123" pos="168" key="32" len="12" pan="0"/>
          <note vol="126" pos="168" key="24" len="12" pan="0"/>
          <note vol="94" pos="180" key="32" len="12" pan="0"/>
          <note vol="145" pos="180" key="28" len="12" pan="0"/>
          <note vol="126" pos="192" key="32" len="12" pan="0"/>
          <note vol="126" pos="192" key="24" len="12" pan="0"/>
          <note vol="102" pos="204" key="32" len="12" pan="0"/>
          <note vol="126" pos="216" key="32" len="12" pan="0"/>
          <note vol="94" pos="228" key="32" len="12" pan="0"/>
          <note vol="126" pos="228" key="24" len="12" pan="0"/>
          <note vol="126" pos="240" key="32" len="12" pan="0"/>
          <note vol="145" pos="240" key="28" len="12" pan="0"/>
          <note vol="102" pos="252" key="32" len="12" pan="0"/>
          <note vol="126" pos="264" key="32" len="12" pan="0"/>
          <note vol="126" pos="264" key="24" len="12" pan="0"/>
          <note vol="94" pos="276" key="32" len="12" pan="0"/>
          <note vol="126" pos="276" key="24" len="12" pan="0"/>
          <note vol="123" pos="288" key="32" len="12" pan="0"/>
          <note vol="91" pos="300" key="32" len="12" pan="0"/>
          <note vol="145" pos="300" key="28" len="12" pan="0"/>
          <note vol="117" pos="312" key="32" len="12" pan="0"/>
          <note vol="126" pos="312" key="24" len="12" pan="0"/>
          <note vol="85" pos="324" key="32" len="12" pan="0"/>
          <note vol="121" pos="336" key="32" len="12" pan="0"/>
          <note vol="145" pos="336" key="28" len="12" pan="0"/>
          <note vol="87" pos="348" key="32" len="12" pan="0"/>
          <note vol="123" pos="360" key="32" len="12" pan="0"/>
          <note vol="126" pos="360" key="24" len="12" pan="0"/>
          <note vol="94" pos="372" key="32" len="12" pan="0"/>
          <note vol="145" pos="372" key="28" len="12" pan="0"/>
          <note vol="126" pos="384" key="32" len="12" pan="0"/>
          <note vol="126" pos="384" key="24" len="12" pan="0"/>
          <note vol="102" pos="396" key="32" len="12" pan="0"/>
          <note vol="126" pos="408" key="32" len="12" pan="0"/>
          <note vol="94" pos="420" key="32" len="12" pan="0"/>
          <note vol="126" pos="420" key="24" len="12" pan="0"/>
          <note vol="126" pos="432" key="32" len="12" pan="0"/>
          <note vol="145" pos="432" key="28" len="12" pan="0"/>
          <note vol="102" pos="444" key="32" len="12" pan="0"/>
          <note vol="126" pos="456" key="32" len="12" pan="0"/>
          <note vol="126" pos="456" key="24" len="12" pan="0"/>
          <note vol="94" pos="468" key="32" len="12" pan="0"/>
          <note vol="126" pos="468" key="24" len="12" pan="0"/>
          <note vol="123" pos="480" key="32" len="12" pan="0"/>
          <note vol="91" pos="492" key="32" len="12" pan="0"/>
          <note vol="145" pos="492" key="28" len="12" pan="0"/>
          <note vol="117" pos="504" key="32" len="12" pan="0"/>
          <note vol="126" pos="504" key="24" len="12" pan="0"/>
          <note vol="85" pos="516" key="32" len="12" pan="0"/>
          <note vol="121" pos="528" key="32" len="12" pan="0"/>
          <note vol="145" pos="528" key="28" len="12" pan="0"/>
          <note vol="87" pos="540" key="32" len="12" pan="0"/>
          <note vol="123" pos="552" key="32" len="12" pan="0"/>
          <note vol="126" pos="552" key="24" len="12" pan="0"/>
          <note vol="94" pos="564" key="32" len="12" pan="0"/>
          <note vol="145" pos="564" key="28" len="12" pan="0"/>
          <note vol="126" pos="576" key="32" len="12" pan="0"/>
          <note vol="126" pos="576" key="24" len="12" pan="0"/>
          <note vol="102" pos="588" key="32" len="12" pan="0"/>
          <note vol="126" pos="600" key="32" len="12" pan="0"/>
          <note vol="94" pos="612" key="32" len="12" pan="0"/>
          <note vol="126" pos="612" key="24" len="12" pan="0"/>
          <note vol="126" pos="624" key="32" len="12" pan="0"/>
          <note vol="145" pos="624" key="28" len="12" pan="0"/>
          <note vol="102" pos="636" key="32" len="12" pan="0"/>
          <note vol="126" pos="648" key="32" len="12" pan="0"/>
          <note vol="126" pos="648" key="24" len="12" pan="0"/>
          <note vol="94" pos="660" key="32" len="12" pan="0"/>
          <note vol="126" pos="660" key="24" len="12" pan="0"/>
          <note vol="123" pos="672" key="32" len="12" pan="0"/>
          <note vol="91" pos="684" key="32" len="12" pan="0"/>
          <note vol="145" pos="684" key="28" len="12" pan="0"/>
          <note vol="117" pos="696" key="32" len="12" pan="0"/>
          <note vol="126" pos="696" key="24" len="12" pan="0"/>
          <note vol="89" pos="708" key="32" len="12" pan="0"/>
          <note vol="121" pos="720" key="32" len="12" pan="0"/>
          <note vol="145" pos="720" key="28" len="12" pan="0"/>
          <note vol="87" pos="732" key="32" len="12" pan="0"/>
          <note vol="145" pos="732" key="28" len="12" pan="0"/>
          <note vol="123" pos="744" key="32" len="12" pan="0"/>
          <note vol="126" pos="744" key="24" len="12" pan="0"/>
          <note vol="94" pos="756" key="32" len="12" pan="0"/>
          <note vol="145" pos="756" key="28" len="12" pan="0"/>
          <note vol="126" pos="768" key="32" len="12" pan="0"/>
          <note vol="126" pos="768" key="24" len="12" pan="0"/>
          <note vol="89" pos="780" key="32" len="12" pan="0"/>
          <note vol="126" pos="792" key="32" len="12" pan="0"/>
          <note vol="94" pos="804" key="32" len="12" pan="0"/>
          <note vol="126" pos="804" key="24" len="12" pan="0"/>
          <note vol="126" pos="816" key="32" len="12" pan="0"/>
          <note vol="145" pos="816" key="28" len="12" pan="0"/>
          <note vol="102" pos="828" key="32" len="12" pan="0"/>
          <note vol="126" pos="840" key="32" len="12" pan="0"/>
          <note vol="126" pos="840" key="24" len="12" pan="0"/>
          <note vol="94" pos="852" key="32" len="12" pan="0"/>
          <note vol="126" pos="852" key="24" len="12" pan="0"/>
          <note vol="123" pos="864" key="32" len="12" pan="0"/>
          <note vol="91" pos="876" key="32" len="12" pan="0"/>
          <note vol="145" pos="876" key="28" len="12" pan="0"/>
          <note vol="117" pos="888" key="32" len="12" pan="0"/>
          <note vol="126" pos="888" key="24" len="12" pan="0"/>
          <note vol="85" pos="900" key="32" len="12" pan="0"/>
          <note vol="121" pos="912" key="32" len="12" pan="0"/>
          <note vol="145" pos="912" key="28" len="12" pan="0"/>
          <note vol="87" pos="924" key="32" len="12" pan="0"/>
          <note vol="123" pos="936" key="32" len="12" pan="0"/>
          <note vol="126" pos="936" key="24" len="12" pan="0"/>
          <note vol="94" pos="948" key="32" len="12" pan="0"/>
          <note vol="145" pos="948" key="28" len="12" pan="0"/>
          <note vol="126" pos="960" key="32" len="12" pan="0"/>
          <note vol="126" pos="960" key="24" len="12" pan="0"/>
          <note vol="102" pos="972" key="32" len="12" pan="0"/>
          <note vol="126" pos="984" key="32" len="12" pan="0"/>
          <note vol="94" pos="996" key="32" len="12" pan="0"/>
          <note vol="126" pos="996" key="24" len="12" pan="0"/>
          <note vol="126" pos="1008" key="32" len="12" pan="0"/>
          <note vol="145" pos="1008" key="28" len="12" pan="0"/>
          <note vol="102" pos="1020" key="32" len="12" pan="0"/>
          <note vol="126" pos="1032" key="32" len="12" pan="0"/>
          <note vol="126" pos="1032" key="24" len="12" pan="0"/>
          <note vol="94" pos="1044" key="32" len="12" pan="0"/>
          <note vol="126" pos="1044" key="24" len="12" pan="0"/>
          <note vol="123" pos="1056" key="32" len="12" pan="0"/>
          <note vol="91" pos="1068" key="32" len="12" pan="0"/>
          <note vol="145" pos="1068" key="28" len="12" pan="0"/>
          <note vol="117" pos="1080" key="32" len="12" pan="0"/>
          <note vol="126" pos="1080" key="24" len="12" pan="0"/>
          <note vol="85" pos="1092" key="32" len="12" pan="0"/>
          <note vol="121" pos="1104" key="32" len="12" pan="0"/>
          <note vol="145" pos="1104" key="28" len="12" pan="0"/>
          <note vol="87" pos="1116" key="32" len="12" pan="0"/>
          <note vol="123" pos="1128" key="32" len="12" pan="0"/>
          <note vol="126" pos="1128" key="24" len="12" pan="0"/>
          <note vol="94" pos="1140" key="32" len="12" pan="0"/>
          <note vol="145" pos="1140" key="28" len="12" pan="0"/>
          <note vol="126" pos="1152" key="32" len="12" pan="0"/>
          <note vol="126" pos="1152" key="24" len="12" pan="0"/>
          <note vol="102" pos="1164" key="32" len="12" pan="0"/>
          <note vol="126" pos="1176" key="32" len="12" pan="0"/>
          <note vol="94" pos="1188" key="32" len="12" pan="0"/>
          <note vol="126" pos="1188" key="24" len="12" pan="0"/>
          <note vol="126" pos="1200" key="32" len="12" pan="0"/>
          <note vol="145" pos="1200" key="28" len="12" pan="0"/>
          <note vol="102" pos="1212" key="32" len="12" pan="0"/>
          <note vol="126" pos="1224" key="32" len="12" pan="0"/>
          <note vol="126" pos="1224" key="24" len="12" pan="0"/>
          <note vol="94" pos="1236" key="32" len="12" pan="0"/>
          <note vol="126" pos="1236" key="24" len="12" pan="0"/>
          <note vol="123" pos="1248" key="32" len="12" pan="0"/>
          <note vol="91" pos="1260" key="32" len="12" pan="0"/>
          <note vol="145" pos="1260" key="28" len="12" pan="0"/>
          <note vol="117" pos="1272" key="32" len="12" pan="0"/>
          <note vol="126" pos="1272" key="24" len="12" pan="0"/>
          <note vol="85" pos="1284" key="32" len="12" pan="0"/>
          <note vol="121" pos="1296" key="32" len="12" pan="0"/>
          <note vol="145" pos="1296" key="28" len="12" pan="0"/>
          <note vol="87" pos="1308" key="32" len="12" pan="0"/>
          <note vol="123" pos="1320" key="32" len="12" pan="0"/>
          <note vol="126" pos="1320" key="24" len="12" pan="0"/>
          <note vol="94" pos="1332" key="32" len="12" pan="0"/>
          <note vol="145" pos="1332" key="28" len="12" pan="0"/>
          <note vol="126" pos="1344" key="32" len="12" pan="0"/>
          <note vol="126" pos="1344" key="24" len="12" pan="0"/>
          <note vol="102" pos="1356" key="32" len="12" pan="0"/>
          <note vol="126" pos="1368" key="32" len="12" pan="0"/>
          <note vol="94" pos="1380" key="32" len="12" pan="0"/>
          <note vol="126" pos="1380" key="24" len="12" pan="0"/>
          <note vol="126" pos="1392" key="32" len="12" pan="0"/>
          <note vol="145" pos="1392" key="28" len="12" pan="0"/>
          <note vol="102" pos="1404" key="32" len="12" pan="0"/>
          <note vol="126" pos="1416" key="32" len="12" pan="0"/>
          <note vol="126" pos="1416" key="24" len="12" pan="0"/>
          <note vol="94" pos="1428" key="32" len="12" pan="0"/>
          <note vol="126" pos="1428" key="24" len="12" pan="0"/>
          <note vol="123" pos="1440" key="32" len="12" pan="0"/>
          <note vol="91" pos="1452" key="32" len="12" pan="0"/>
          <note vol="145" pos="1452" key="28" len="12" pan="0"/>
          <note vol="117" pos="1464" key="32" len="12" pan="0"/>
          <note vol="126" pos="1464" key="24" len="12" pan="0"/>
          <note vol="89" pos="1476" key="32" len="12" pan="0"/>
          <note vol="121" pos="1488" key="32" len="12" pan="0"/>
          <note vol="145" pos="1488" key="28" len="12" pan="0"/>
          <note vol="87" pos="1500" key="32" len="12" pan="0"/>
          <note vol="145" pos="1500" key="28" len="12" pan="0"/>
          <note vol="123" pos="1512" key="32" len="12" pan="0"/>
          <note vol="126" pos="1512" key="24" len="12" pan="0"/>
          <note vol="94" pos="1524" key="32" len="12" pan="0"/>
          <note vol="145" pos="1524" key="28" len="12" pan="0"/>
        </pattern>
        <pattern type="1" pos="7680" name="" steps="16" muted="0">
          <note vol="126" pos="0" key="32" len="12" pan="0"/>
          <note vol="126" pos="0" key="24" len="12" pan="0"/>
          <note vol="89" pos="12" key="32" len="12" pan="0"/>
          <note vol="126" pos="24" key="32" len="12" pan="0"/>
          <note vol="94" pos="36" key="32" len="12" pan="0"/>
          <note vol="126" pos="36" key="24" len="12" pan="0"/>
          <note vol="126" pos="48" key="32" len="12" pan="0"/>
          <note vol="145" pos="48" key="28" len="12" pan="0"/>
          <note vol="102" pos="60" key="32" len="12" pan="0"/>
          <note vol="126" pos="72" key="32" len="12" pan="0"/>
          <note vol="126" pos="72" key="24" len="12" pan="0"/>
          <note vol="94" pos="84" key="32" len="12" pan="0"/>
          <note vol="126" pos="84" key="24" len="12" pan="0"/>
          <note vol="123" pos="96" key="32" len="12" pan="0"/>
          <note vol="91" pos="108" key="32" len="12" pan="0"/>
          <note vol="145" pos="108" key="28" len="12" pan="0"/>
          <note vol="117" pos="120" key="32" len="12" pan="0"/>
          <note vol="126" pos="120" key="24" len="12" pan="0"/>
          <note vol="85" pos="132" key="32" len="12" pan="0"/>
          <note vol="121" pos="144" key="32" len="12" pan="0"/>
          <note vol="145" pos="144" key="28" len="12" pan="0"/>
          <note vol="87" pos="156" key="32" len="12" pan="0"/>
          <note vol="123" pos="168" key="32" len="12" pan="0"/>
          <note vol="126" pos="168" key="24" len="12" pan="0"/>
          <note vol="94" pos="180" key="32" len="12" pan="0"/>
          <note vol="145" pos="180" key="28" len="12" pan="0"/>
          <note vol="126" pos="192" key="32" len="12" pan="0"/>
          <note vol="126" pos="192" key="24" len="12" pan="0"/>
          <note vol="102" pos="204" key="32" len="12" pan="0"/>
          <note vol="126" pos="216" key="32" len="12" pan="0"/>
          <note vol="94" pos="228" key="32" len="12" pan="0"/>
          <note vol="126" pos="228" key="24" len="12" pan="0"/>
          <note vol="126" pos="240" key="32" len="12" pan="0"/>
          <note vol="145" pos="240" key="28" len="12" pan="0"/>
          <note vol="102" pos="252" key="32" len="12" pan="0"/>
          <note vol="126" pos="264" key="32" len="12" pan="0"/>
          <note vol="126" pos="264" key="24" len="12" pan="0"/>
          <note vol="94" pos="276" key="32" len="12" pan="0"/>
          <note vol="126" pos="276" key="24" len="12" pan="0"/>
          <note vol="123" pos="288" key="32" len="12" pan="0"/>
          <note vol="91" pos="300" key="32" len="12" pan="0"/>
          <note vol="145" pos="300" key="28" len="12" pan="0"/>
          <note vol="117" pos="312" key="32" len="12" pan="0"/>
          <note vol="126" pos="312" key="24" len="12" pan="0"/>
          <note vol="85" pos="324" key="32" len="12" pan="0"/>
          <note vol="121" pos="336" key="32" len="12" pan="0"/>
          <note vol="145" pos="336" key="28" len="12" pan="0"/>
          <note vol="87" pos="348" key="32" len="12" pan="0"/>
          <note vol="123" pos="360" key="32" len="12" pan="0"/>
          <note vol="126" pos="360" key="24" len="12" pan="0"/>
          <note vol="94" pos="372" key="32" len="12" pan="0"/>
          <note vol="145" pos="372" key="28" len="12" pan="0"/>
          <note vol="126" pos="384" key="32" len="12" pan="0"/>
          <note vol="126" pos="384" key="24" len="12" pan="0"/>
          <note vol="102" pos="396" key="32" len="12" pan="0"/>
          <note vol="126" pos="408" key="32" len="12" pan="0"/>
          <note vol="94" pos="420" key="32" len="12" pan="0"/>
          <note vol="126" pos="420" key="24" len="12" pan="0"/>
          <note vol="126" pos="432" key="32" len="12" pan="0"/>
          <note vol="145" pos="432" key="28" len="12" pan="0"/>
          <note vol="102" pos="444" key="32" len="12" pan="0"/>
          <note vol="126" pos="456" key="32" len="12" pan="0"/>
          <note vol="126" pos="456" key="24" len="12" pan="0"/>
          <note vol="94" pos="468" key="32" len="12" pan="0"/>
          <note vol="126" pos="468" key="24" len="12" pan="0"/>
          <note vol="123" pos="480" key="32" len="12" pan="0"/>
          <note vol="91" pos="492" key="32" len="12" pan="0"/>
          <note vol="145" pos="492" key="28" len="12" pan="0"/>
          <note vol="117" pos="504" key="32" len="12" pan="0"/>
          <note vol="126" pos="504" key="24" len="12" pan="0"/>
          <note vol="85" pos="516" key="32" len="12" pan="0"/>
          <note vol="121" pos="528" key="32" len="12" pan="0"/>
          <note vol="145" pos="528" key="28" len="12" pan="0"/>
          <note vol="87" pos="540" key="32" len="12" pan="0"/>
          <note vol="123" pos="552" key="32" len="12" pan="0"/>
          <note vol="126" pos="552" key="24" len="12" pan="0"/>
          <note vol="94" pos="564" key="32" len="12" pan="0"/>
          <note vol="145" pos="564" key="28" len="12" pan="0"/>
          <note vol="126" pos="576" key="32" len="12" pan="0"/>
          <note vol="126" pos="576" key="24" len="12" pan="0"/>
          <note vol="102" pos="588" key="32" len="12" pan="0"/>
          <note vol="126" pos="600" key="32" len="12" pan="0"/>
          <note vol="94" pos="612" key="32" len="12" pan="0"/>
          <note vol="126" pos="612" key="24" len="12" pan="0"/>
          <note vol="126" pos="624" key="32" len="12" pan="0"/>
          <note vol="145" pos="624" key="28" len="12" pan="0"/>
          <note vol="102" pos="636" key="32" len="12" pan="0"/>
          <note vol="126" pos="648" key="32" len="12" pan="0"/>
          <note vol="126" pos="648" key="24" len="12" pan="0"/>
          <note vol="94" pos="660" key="32" len="12" pan="0"/>
          <note vol="126" pos="660" key="24" len="12" pan="0"/>
          <note vol="123" pos="672" key="32" len="12" pan="0"/>
          <note vol="91" pos="684" key="32" len="12" pan="0"/>
          <note vol="145" pos="684" key="28" len="12" pan="0"/>
          <note vol="117" pos="696" key="32" len="12" pan="0"/>
          <note vol="126" pos="696" key="24" len="12" pan="0"/>
          <note vol="89" pos="708" key="32" len="12" pan="0"/>
          <note vol="121" pos="720" key="32" len="12" pan="0"/>
          <note vol="145" pos="720" key="28" len="12" pan="0"/>
          <note vol="87" pos="732" key="32" len="12" pan="0"/>
          <note vol="145" pos="732" key="28" len="12" pan="0"/>
          <note vol="123" pos="744" key="32" len="12" pan="0"/>
          <note vol="126" pos="744" key="24" len="12" pan="0"/>
          <note vol="94" pos="756" key="32" len="12" pan="0"/>
          <note vol="145" pos="756" key="28" len="12" pan="0"/>
          <note vol="126" pos="768" key="32" len="12" pan="0"/>
          <note vol="126" pos="768" key="24" len="12" pan="0"/>
          <note vol="89" pos="780" key="32" len="12" pan="0"/>
          <note vol="126" pos="792" key="32" len="12" pan="0"/>
          <note vol="94" pos="804" key="32" len="12" pan="0"/>
          <note vol="126" pos="804" key="24" len="12" pan="0"/>
          <note vol="126" pos="816" key="32" len="12" pan="0"/>
          <note vol="145" pos="816" key="28" len="12" pan="0"/>
          <note vol="102" pos="828" key="32" len="12" pan="0"/>
          <note vol="126" pos="840" key="32" len="12" pan="0"/>
          <note vol="126" pos="840" key="24" len="12" pan="0"/>
          <note vol="94" pos="852" key="32" len="12" pan="0"/>
          <note vol="126" pos="852" key="24" len="12" pan="0"/>
          <note vol="123" pos="864" key="32" len="12" pan="0"/>
          <note vol="91" pos="876" key="32" len="12" pan="0"/>
          <note vol="145" pos="876" key="28" len="12" pan="0"/>
          <note vol="117" pos="888" key="32" len="12" pan="0"/>
          <note vol="126" pos="888" key="24" len="12" pan="0"/>
          <note vol="85" pos="900" key="32" len="12" pan="0"/>
          <note vol="121" pos="912" key="32" len="12" pan="0"/>
          <note vol="145" pos="912" key="28" len="12" pan="0"/>
          <note vol="87" pos="924" key="32" len="12" pan="0"/>
          <note vol="123" pos="936" key="32" len="12" pan="0"/>
          <note vol="126" pos="936" key="24" len="12" pan="0"/>
          <note vol="94" pos="948" key="32" len="12" pan="0"/>
          <note vol="145" pos="948" key="28" len="12" pan="0"/>
          <note vol="126" pos="960" key="32" len="12" pan="0"/>
          <note vol="126" pos="960" key="24" len="12" pan="0"/>
          <note vol="102" pos="972" key="32" len="12" pan="0"/>
          <note vol="126" pos="984" key="32" len="12" pan="0"/>
          <note vol="94" pos="996" key="32" len="12" pan="0"/>
          <note vol="126" pos="996" key="24" len="12" pan="0"/>
          <note vol="126" pos="1008" key="32" len="12" pan="0"/>
          <note vol="145" pos="1008" key="28" len="12" pan="0"/>
          <note vol="102" pos="1020" key="32" len="12" pan="0"/>
          <note vol="126" pos="1032" key="32" len="12" pan="0"/>
          <note vol="126" pos="1032" key="24" len="12" pan="0"/>
          <note vol="94" pos="1044" key="32" len="12" pan="0"/>
          <note vol="126" pos="1044" key="24" len="12" pan="0"/>
          <note vol="123" pos="1056" key="32" len="12" pan="0"/>
          <note vol="91" pos="1068" key="32" len="12" pan="0"/>
          <note vol="145" pos="1068" key="28" len="12" pan="0"/>
          <note vol="117" pos="1080" key="32" len="12" pan="0"/>
          <note vol="126" pos="1080" key="24" len="12" pan="0"/>
          <note vol="85" pos="1092" key="32" len="12" pan="0"/>
          <note vol="121" pos="1104" key="32" len="12" pan="0"/>
          <note vol="145" pos="1104" key="28" len="12" pan="0"/>
          <note vol="87" pos="1116" key="32" len="12" pan="0"/>
          <note vol="123" pos="1128" key="32" len="12" pan="0"/>
          <note vol="126" pos="1128" key="24" len="12" pan="0"/>
          <note vol="94" pos="1140" key="32" len="12" pan="0"/>
          <note vol="145" pos="1140" key="28" len="12" pan="0"/>
          <note vol="126" pos="1152" key="32" len="12" pan="0"/>
          <note vol="126" pos="1152" key="24" len="12" pan="0"/>
          <note vol="102" pos="1164" key="32" len="12" pan="0"/>
          <note vol="126" pos="1176" key="32" len="12" pan="0"/>
          <note vol="94" pos="1188" key="32" len="12" pan="0"/>
          <note vol="126" pos="1188" key="24" len="12" pan="0"/>
          <note vol="126" pos="1200" key="32" len="12" pan="0"/>
          <note vol="145" pos="1200" key="28" len="12" pan="0"/>
          <note vol="102" pos="1212" key="32" len="12" pan="0"/>
          <note vol="126" pos="1224" key="32" len="12" pan="0"/>
          <note vol="126" pos="1224" key="24" len="12" pan="0"/>
          <note vol="94" pos="1236" key="32" len="12" pan="0"/>
          <note vol="126" pos="1236" key="24" len="12" pan="0"/>
          <note vol="123" pos="1248" key="32" len="12" pan="0"/>
          <note vol="91" pos="1260" key="32" len="12" pan="0"/>
          <note vol="145" pos="1260" key="28" len="12" pan="0"/>
          <note vol="117" pos="1272" key="32" len="12" pan="0"/>
          <note vol="126" pos="1272" key="24" len="12" pan="0"/>
          <note vol="85" pos="1284" key="32" len="12" pan="0"/>
          <note vol="121" pos="1296" key="32" len="12" pan="0"/>
          <note vol="145" pos="1296" key="28" len="12" pan="0"/>
          <note vol="87" pos="1308" key="32" len="12" pan="0"/>
          <note vol="123" pos="1320" key="32" len="12" pan="0"/>
          <note vol="126" pos="1320" key="24" len="12" pan="0"/>
          <note vol="94" pos="1332" key="32" len="12" pan="0"/>
          <note vol="145" pos="1332" key="28" len="12" pan="0"/>
          <note vol="126" pos="1344" key="32" len="12" pan="0"/>
          <note vol="126" pos="1344" key="24" len="12" pan="0"/>
          <note vol="102" pos="1356" key="32" len="12" pan="0"/>
          <note vol="126" pos="1368" key="32" len="12" pan="0"/>
          <note vol="94" pos="1380" key="32" len="12" pan="0"/>
          <note vol="126" pos="1380" key="24" len="12" pan="0"/>
          <note vol="126" pos="1392" key="32" len="12" pan="0"/>
          <note vol="145" pos="1392" key="28" len="12" pan="0"/>
          <note vol="102" pos="1404" key="32" len="12" pan="0"/>
          <note vol="126" pos="1416" key="32" len="12" pan="0"/>
          <note vol="126" pos="1416" key="24" len="12" pan="0"/>
          <note vol="94" pos="1428" key="32" len="12" pan="0"/>
          <note vol="126" pos="1428" key="24" len="12" pan="0"/>
          <note vol="123" pos="1440" key="32" len="12" pan="0"/>
          <note vol="91" pos="1452" key="32" len="12" pan="0"/>
          <note vol="145" pos="1452" key="28" len="12" pan="0"/>
          <note vol="117" pos="1464" key="32" len="12" pan="0"/>
          <note vol="126" pos="1464" key="24" len="12" pan="0"/>
          <note vol="89" pos="1476" key="32" len="12" pan="0"/>
          <note vol="121" pos="1488" key="32" len="12" pan="0"/>
          <note vol="145" pos="1488" key="28" len="12" pan="0"/>
          <note vol="87" pos="1500" key="32" len="12" pan="0"/>
          <note vol="145" pos="1500" key="28" len="12" pan="0"/>
          <note vol="123" pos="1512" key="32" len="12" pan="0"/>
          <note vol="126" pos="1512" key="24" len="12" pan="0"/>
          <note vol="94" pos="1524" key="32" len="12" pan="0"/>
          <note vol="145" pos="1524" key="28" len="12" pan="0"/>
        </pattern>
        <pattern type="1" pos="10752" name="" steps="16" muted="0">
          <note vol="126" pos="0" key="32" len="12" pan="0"/>
          <note vol="126" pos="0" key="24" len="12" pan="0"/>
          <note vol="89" pos="12" key="32" len="12" pan="0"/>
          <note vol="126" pos="24" key="32" len="12" pan="0"/>
          <note vol="94" pos="36" key="32" len="12" pan="0"/>
          <note vol="126" pos="36" key="24" len="12" pan="0"/>
          <note vol="126" pos="48" key="32" len="12" pan="0"/>
          <note vol="145" pos="48" key="28" len="12" pan="0"/>
          <note vol="102" pos="60" key="32" len="12" pan="0"/>
          <note vol="126" pos="72" key="32" len="12" pan="0"/>
          <note vol="126" pos="72" key="24" len="12" pan="0"/>
          <note vol="94" pos="84" key="32" len="12" pan="0"/>
          <note vol="126" pos="84" key="24" len="12" pan="0"/>
          <note vol="123" pos="96" key="32" len="12" pan="0"/>
          <note vol="91" pos="108" key="32" len="12" pan="0"/>
          <note vol="145" pos="108" key="28" len="12" pan="0"/>
          <note vol="117" pos="120" key="32" len="12" pan="0"/>
          <note vol="126" pos="120" key="24" len="12" pan="0"/>
          <note vol="85" pos="132" key="32" len="12" pan="0"/>
          <note vol="121" pos="144" key="32" len="12" pan="0"/>
          <note vol="145" pos="144" key="28" len="12" pan="0"/>
          <note vol="87" pos="156" key="32" len="12" pan="0"/>
          <note vol="123" pos="168" key="32" len="12" pan="0"/>
          <note vol="126" pos="168" key="24" len="12" pan="0"/>
          <note vol="94" pos="180" key="32" len="12" pan="0"/>
          <note vol="145" pos="180" key="28" len="12" pan="0"/>
          <note vol="126" pos="192" key="32" len="12" pan="0"/>
          <note vol="126" pos="192" key="24" len="12" pan="0"/>
          <note vol="102" pos="204" key="32" len="12" pan="0"/>
          <note vol="126" pos="216" key="32" len="12" pan="0"/>
          <note vol="94" pos="228" key="32" len="12" pan="0"/>
          <note vol="126" pos="228" key="24" len="12" pan="0"/>
          <note vol="126" pos="240" key="32" len="12" pan="0"/>
          <note vol="145" pos="240" key="28" len="12" pan="0"/>
          <note vol="102" pos="252" key="32" len="12" pan="0"/>
          <note vol="126" pos="264" key="32" len="12" pan="0"/>
          <note vol="126" pos="264" key="24" len="12" pan="0"/>
          <note vol="94" pos="276" key="32" len="12" pan="0"/>
          <note vol="126" pos="276" key="24" len="12" pan="0"/>
          <note vol="123" pos="288" key="32" len="12" pan="0"/>
          <note vol="91" pos="300" key="32" len="12" pan="0"/>
          <note vol="145" pos="300" key="28" len="12" pan="0"/>
          <note vol="117" pos="312" key="32" len="12" pan="0"/>
          <note vol="126" pos="312" key="24" len="12" pan="0"/>
          <note vol="85" pos="324" key="32" len="12" pan="0"/>
          <note vol="121" pos="336" key="32" len="12" pan="0"/>
          <note vol="145" pos="336" key="28" len="12" pan="0"/>
          <note vol="87" pos="348" key="32" len="12" pan="0"/>
          <note vol="123" pos="360" key="32" len="12" pan="0"/>
          <note vol="126" pos="360" key="24" len="12" pan="0"/>
          <note vol="94" pos="372" key="32" len="12" pan="0"/>
          <note vol="145" pos="372" key="28" len="12" pan="0"/>
          <note vol="126" pos="384" key="32" len="12" pan="0"/>
          <note vol="126" pos="384" key="24" len="12" pan="0"/>
          <note vol="102" pos="396" key="32" len="12" pan="0"/>
          <note vol="126" pos="408" key="32" len="12" pan="0"/>
          <note vol="94" pos="420" key="32" len="12" pan="0"/>
          <note vol="126" pos="420" key="24" len="12" pan="0"/>
          <note vol="126" pos="432" key="32" len="12" pan="0"/>
          <note vol="145" pos="432" key="28" len="12" pan="0"/>
          <note vol="102" pos="444" key="32" len="12" pan="0"/>
          <note vol="126" pos="456" key="32" len="12" pan="0"/>
          <note vol="126" pos="456" key="24" len="12" pan="0"/>
          <note vol="94" pos="468" key="32" len="12" pan="0"/>
          <note vol="126" pos="468" key="24" len="12" pan="0"/>
          <note vol="123" pos="480" key="32" len="12" pan="0"/>
          <note vol="91" pos="492" key="32" len="12" pan="0"/>
          <note vol="145" pos="492" key="28" len="12" pan="0"/>
          <note vol="117" pos="504" key="32" len="12" pan="0"/>
          <note vol="126" pos="504" key="24" len="12" pan="0"/>
          <note vol="85" pos="516" key="32" len="12" pan="0"/>
          <note vol="121" pos="528" key="32" len="12" pan="0"/>
          <note vol="145" pos="528" key="28" len="12" pan="0"/>
          <note vol="87" pos="540" key="32" len="12" pan="0"/>
          <note vol="123" pos="552" key="32" len="12" pan="0"/>
          <note vol="126" pos="552" key="24" len="12" pan="0"/>
          <note vol="94" pos="564" key="32" len="12" pan="0"/>
          <note vol="145" pos="564" key="28" len="12" pan="0"/>
          <note vol="126" pos="576" key="32" len="12" pan="0"/>
          <note vol="126" pos="576" key="24" len="12" pan="0"/>
          <note vol="102" pos="588" key="32" len="12" pan="0"/>
          <note vol="126" pos="600" key="32" len="12" pan="0"/>
          <note vol="94" pos="612" key="32" len="12" pan="0"/>
          <note vol="126" pos="612" key="24" len="12" pan="0"/>
          <note vol="126" pos="624" key="32" len="12" pan="0"/>
          <note vol="145" pos="624" key="28" len="12" pan="0"/>
          <note vol="102" pos="636" key="32" len="12" pan="0"/>
          <note vol="126" pos="648" key="32" len="12" pan="0"/>
          <note vol="126" pos="648" key="24" len="12" pan="0"/>
          <note vol="94" pos="660" key="32" len="12" pan="0"/>
          <note vol="126" pos="660" key="24" len="12" pan="0"/>
          <note vol="123" pos="672" key="32" len="12" pan="0"/>
          <note vol="91" pos="684" key="32" len="12" pan="0"/>
          <note vol="145" pos="684" key="28" len="12" pan="0"/>
          <note vol="117" pos="696" key="32" len="12" pan="0"/>
          <note vol="126" pos="696" key="24" len="12" pan="0"/>
          <note vol="89" pos="708" key="32" len="12" pan="0"/>
          <note vol="121" pos="720" key="32" len="12" pan="0"/>
          <note vol="145" pos="720" key="28" len="12" pan="0"/>
          <note vol="87" pos="732" key="32" len="12" pan="0"/>
          <note vol="145" pos="732" key="28" len="12" pan="0"/>
          <note vol="123" pos="744" key="32" len="12" pan="0"/>
          <note vol="126" pos="744" key="24" len="12" pan="0"/>
          <note vol="94" pos="756" key="32" len="12" pan="0"/>
          <note vol="145" pos="756" key="28" len="12" pan="0"/>
          <note vol="126" pos="768" key="32" len="12" pan="0"/>
          <note vol="126" pos="768" key="24" len="12" pan="0"/>
          <note vol="89" pos="780" key="32" len="12" pan="0"/>
          <note vol="126" pos="792" key="32" len="12" pan="0"/>
          <note vol="94" pos="804" key="32" len="12" pan="0"/>
          <note vol="126" pos="804" key="24" len="12" pan="0"/>
          <note vol="126" pos="816" key="32" len="12" pan="0"/>
          <note vol="145" pos="816" key="28" len="12" pan="0"/>
          <note vol="102" pos="828" key="32" len="12" pan="0"/>
          <note vol="126" pos="840" key="32" len="12" pan="0"/>
          <note vol="126" pos="840" key="24" len="12" pan="0"/>
          <note vol="94" pos="852" key="32" len="12" pan="0"/>
          <note vol="126" pos="852" key="24" len="12" pan="0"/>
          <note vol="123" pos="864" key="32" len="12" pan="0"/>
          <note vol="91" pos="876" key="32" len="12" pan="0"/>
          <note vol="145" pos="876" key="28" len="12" pan="0"/>
          <note vol="117" pos="888" key="32" len="12" pan="0"/>
          <note vol="126" pos="888" key="24" len="12" pan="0"/>
          <note vol="85" pos="900" key="32" len="12" pan="0"/>
          <note vol="121" pos="912" key="32" len="12" pan="0"/>
          <note vol="145" pos="912" key="28" len="12" pan="0"/>
          <note vol="87" pos="924" key="32" len="12" pan="0"/>
          <note vol="123" pos="936" key="32" len="12" pan="0"/>
          <note vol="126" pos="936" key="24" len="12" pan="0"/>
          <note vol="94" pos="948" key="32" len="12" pan="0"/>
          <note vol="145" pos="948" key="28" len="12" pan="0"/>
          <note vol="126" pos="960" key="32" len="12" pan="0"/>
          <note vol="126" pos="960" key="24" len="12" pan="0"/>
          <note vol="102" pos="972" key="32" len="12" pan="0"/>
          <note vol="126" pos="984" key="32" len="12" pan="0"/>
          <note vol="94" pos="996" key="32" len="12" pan="0"/>
          <note vol="126" pos="996" key="24" len="12" pan="0"/>
          <note vol="126" pos="1008" key="32" len="12" pan="0"/>
          <note vol="145" pos="1008" key="28" len="12" pan="0"/>
          <note vol="102" pos="1020" key="32" len="12" pan="0"/>
          <note vol="126" pos="1032" key="32" len="12" pan="0"/>
          <note vol="126" pos="1032" key="24" len="12" pan="0"/>
          <note vol="94" pos="1044" key="32" len="12" pan="0"/>
          <note vol="126" pos="1044" key="24" len="12" pan="0"/>
          <note vol="123" pos="1056" key="32" len="12" pan="0"/>
          <note vol="91" pos="1068" key="32" len="12" pan="0"/>
          <note vol="145" pos="1068" key="28" len="12" pan="0"/>
          <note vol="117" pos="1080" key="32" len="12" pan="0"/>
          <note vol="126" pos="1080" key="24" len="12" pan="0"/>
          <note vol="85" pos="1092" key="32" len="12" pan="0"/>
          <note vol="121" pos="1104" key="32" len="12" pan="0"/>
          <note vol="145" pos="1104" key="28" len="12" pan="0"/>
          <note vol="87" pos="1116" key="32" len="12" pan="0"/>
          <note vol="123" pos="1128" key="32" len="12" pan="0"/>
          <note vol="126" pos="1128" key="24" len="12" pan="0"/>
          <note vol="94" pos="1140" key="32" len="12" pan="0"/>
          <note vol="145" pos="1140" key="28" len="12" pan="0"/>
          <note vol="126" pos="1152" key="32" len="12" pan="0"/>
          <note vol="126" pos="1152" key="24" len="12" pan="0"/>
          <note vol="102" pos="1164" key="32" len="12" pan="0"/>
          <note vol="126" pos="1176" key="32" len="12" pan="0"/>
          <note vol="94" pos="1188" key="32" len="12" pan="0"/>
          <note vol="126" pos="1188" key="24" len="12" pan="0"/>
          <note vol="126" pos="1200" key="32" len="12" pan="0"/>
          <note vol="145" pos="1200" key="28" len="12" pan="0"/>
          <note vol="102" pos="1212" key="32" len="12" pan="0"/>
          <note vol="126" pos="1224" key="32" len="12" pan="0"/>
          <note vol="126" pos="1224" key="24" len="12" pan="0"/>
          <note vol="94" pos="1236" key="32" len="12" pan="0"/>
          <note vol="126" pos="1236" key="24" len="12" pan="0"/>
          <note vol="123" pos="1248" key="32" len="12" pan="0"/>
          <note vol="91" pos="1260" key="32" len="12" pan="0"/>
          <note vol="145" pos="1260" key="28" len="12" pan="0"/>
          <note vol="117" pos="1272" key="32" len="12" pan="0"/>
          <note vol="126" pos="1272" key="24" len="12" pan="0"/>
          <note vol="85" pos="1284" key="32" len="12" pan="0"/>
          <note vol="121" pos="1296" key="32" len="12" pan="0"/>
          <note vol="145" pos="1296" key="28" len="12" pan="0"/>
          <note vol="87" pos="1308" key="32" len="12" pan="0"/>
          <note vol="123" pos="1320" key="32" len="12" pan="0"/>
          <note vol="126" pos="1320" key="24" len="12" pan="0"/>
          <note vol="94" pos="1332" key="32" len="12" pan="0"/>
          <note vol="145" pos="1332" key="28" len="12" pan="0"/>
          <note vol="126" pos="1344" key="32" len="12" pan="0"/>
          <note vol="126" pos="1344" key="24" len="12" pan="0"/>
          <note vol="102" pos="1356" key="32" len="12" pan="0"/>
          <note vol="126" pos="1368" key="32" len="12" pan="0"/>
          <note vol="94" pos="1380" key="32" len="12" pan="0"/>
          <note vol="126" pos="1380" key="24" len="12" pan="0"/>
          <note vol="126" pos="1392" key="32" len="12" pan="0"/>
          <note vol="145" pos="1392" key="28" len="12" pan="0"/>
          <note vol="102" pos="1404" key="32" len="12" pan="0"/>
          <note vol="126" pos="1416" key="32" len="12" pan="0"/>
          <note vol="126" pos="1416" key="24" len="12" pan="0"/>
          <note vol="94" pos="1428" key="32" len="12" pan="0"/>
          <note vol="126" pos="1428" key="24" len="12" pan="0"/>
          <note vol="123" pos="1440" key="32" len="12" pan="0"/>
          <note vol="91" pos="1452" key="32" len="12" pan="0"/>
          <note vol="145" pos="1452" key="28" len="12" pan="0"/>
          <note vol="117" pos="1464" key="32" len="12" pan="0"/>
          <note vol="126" pos="1464" key="24" len="12" pan="0"/>
          <note vol="89" pos="1476" key="32" len="12" pan="0"/>
          <note vol="121" pos="1488" key="32" len="12" pan="0"/>
          <note vol="145" pos="1488" key="28" len="12" pan="0"/>
          <note vol="87" pos="1500" key="32" len="12" pan="0"/>
          <note vol="145" pos="1500" key="28" len="12" pan="0"/>
          <note vol="123" pos="1512" key="32" len="12" pan="0"/>
          <note vol="126" pos="1512" key="24" len="12" pan="0"/>
          <note vol="94" pos="1524" key="32" len="12" pan="0"/>
          <note vol="145" pos="1524" key="28" len="12" pan="0"/>
        </pattern>
        <pattern type="1" pos="3072" name="" steps="16" muted="0">
          <note vol="126" pos="0" key="32" len="12" pan="0"/>
          <note vol="126" pos="0" key="24" len="12" pan="0"/>
          <note vol="89" pos="12" key="32" len="12" pan="0"/>
          <note vol="126" pos="24" key="32" len="12" pan="0"/>
          <note vol="94" pos="36" key="32" len="12" pan="0"/>
          <note vol="126" pos="36" key="24" len="12" pan="0"/>
          <note vol="126" pos="48" key="32" len="12" pan="0"/>
          <note vol="145" pos="48" key="28" len="12" pan="0"/>
          <note vol="102" pos="60" key="32" len="12" pan="0"/>
          <note vol="126" pos="72" key="32" len="12" pan="0"/>
          <note vol="126" pos="72" key="24" len="12" pan="0"/>
          <note vol="94" pos="84" key="32" len="12" pan="0"/>
          <note vol="126" pos="84" key="24" len="12" pan="0"/>
          <note vol="123" pos="96" key="32" len="12" pan="0"/>
          <note vol="91" pos="108" key="32" len="12" pan="0"/>
          <note vol="145" pos="108" key="28" len="12" pan="0"/>
          <note vol="117" pos="120" key="32" len="12" pan="0"/>
          <note vol="126" pos="120" key="24" len="12" pan="0"/>
          <note vol="85" pos="132" key="32" len="12" pan="0"/>
          <note vol="121" pos="144" key="32" len="12" pan="0"/>
          <note vol="145" pos="144" key="28" len="12" pan="0"/>
          <note vol="87" pos="156" key="32" len="12" pan="0"/>
          <note vol="123" pos="168" key="32" len="12" pan="0"/>
          <note vol="126" pos="168" key="24" len="12" pan="0"/>
          <note vol="94" pos="180" key="32" len="12" pan="0"/>
          <note vol="145" pos="180" key="28" len="12" pan="0"/>
          <note vol="126" pos="192" key="32" len="12" pan="0"/>
          <note vol="126" pos="192" key="24" len="12" pan="0"/>
          <note vol="102" pos="204" key="32" len="12" pan="0"/>
          <note vol="126" pos="216" key="32" len="12" pan="0"/>
          <note vol="94" pos="228" key="32" len="12" pan="0"/>
          <note vol="126" pos="228" key="24" len="12" pan="0"/>
          <note vol="126" pos="240" key="32" len="12" pan="0"/>
          <note vol="145" pos="240" key="28" len="12" pan="0"/>
          <note vol="102" pos="252" key="32" len="12" pan="0"/>
          <note vol="126" pos="264" key="32" len="12" pan="0"/>
          <note vol="126" pos="264" key="24" len="12" pan="0"/>
          <note vol="94" pos="276" key="32" len="12" pan="0"/>
          <note vol="126" pos="276" key="24" len="12" pan="0"/>
          <note vol="123" pos="288" key="32" len="12" pan="0"/>
          <note vol="91" pos="300" key="32" len="12" pan="0"/>
          <note vol="145" pos="300" key="28" len="12" pan="0"/>
          <note vol="117" pos="312" key="32" len="12" pan="0"/>
          <note vol="126" pos="312" key="24" len="12" pan="0"/>
          <note vol="85" pos="324" key="32" len="12" pan="0"/>
          <note vol="121" pos="336" key="32" len="12" pan="0"/>
          <note vol="145" pos="336" key="28" len="12" pan="0"/>
          <note vol="87" pos="348" key="32" len="12" pan="0"/>
          <note vol="123" pos="360" key="32" len="12" pan="0"/>
          <note vol="126" pos="360" key="24" len="12" pan="0"/>
          <note vol="94" pos="372" key="32" len="12" pan="0"/>
          <note vol="145" pos="372" key="28" len="12" pan="0"/>
          <note vol="126" pos="384" key="32" len="12" pan="0"/>
          <note vol="126" pos="384" key="24" len="12" pan="0"/>
          <note vol="102" pos="396" key="32" len="12" pan="0"/>
          <note vol="126" pos="408" key="32" len="12" pan="0"/>
          <note vol="94" pos="420" key="32" len="12" pan="0"/>
          <note vol="126" pos="420" key="24" len="12" pan="0"/>
          <note vol="126" pos="432" key="32" len="12" pan="0"/>
          <note vol="145" pos="432" key="28" len="12" pan="0"/>
          <note vol="102" pos="444" key="32" len="12" pan="0"/>
          <note vol="126" pos="456" key="32" len="12" pan="0"/>
          <note vol="126" pos="456" key="24" len="12" pan="0"/>
          <note vol="94" pos="468" key="32" len="12" pan="0"/>
          <note vol="126" pos="468" key="24" len="12" pan="0"/>
          <note vol="123" pos="480" key="32" len="12" pan="0"/>
          <note vol="91" pos="492" key="32" len="12" pan="0"/>
          <note vol="145" pos="492" key="28" len="12" pan="0"/>
          <note vol="117" pos="504" key="32" len="12" pan="0"/>
          <note vol="126" pos="504" key="24" len="12" pan="0"/>
          <note vol="85" pos="516" key="32" len="12" pan="0"/>
          <note vol="121" pos="528" key="32" len="12" pan="0"/>
          <note vol="145" pos="528" key="28" len="12" pan="0"/>
          <note vol="87" pos="540" key="32" len="12" pan="0"/>
          <note vol="123" pos="552" key="32" len="12" pan="0"/>
          <note vol="126" pos="552" key="24" len="12" pan="0"/>
          <note vol="94" pos="564" key="32" len="12" pan="0"/>
          <note vol="145" pos="564" key="28" len="12" pan="0"/>
          <note vol="126" pos="576" key="32" len="12" pan="0"/>
          <note vol="126" pos="576" key="24" len="12" pan="0"/>
          <note vol="102" pos="588" key="32" len="12" pan="0"/>
          <note vol="126" pos="600" key="32" len="12" pan="0"/>
          <note vol="94" pos="612" key="32" len="12" pan="0"/>
          <note vol="126" pos="612" key="24" len="12" pan="0"/>
          <note vol="126" pos="624" key="32" len="12" pan="0"/>
          <note vol="145" pos="624" key="28" len="12" pan="0"/>
          <note vol="102" pos="636" key="32" len="12" pan="0"/>
          <note vol="126" pos="648" key="32" len="12" pan="0"/>
          <note vol="126" pos="648" key="24" len="12" pan="0"/>
          <note vol="94" pos="660" key="32" len="12" pan="0"/>
          <note vol="126" pos="660" key="24" len="12" pan="0"/>
          <note vol="123" pos="672" key="32" len="12" pan="0"/>
          <note vol="91" pos="684" key="32" len="12" pan="0"/>
          <note vol="145" pos="684" key="28" len="12" pan="0"/>
          <note vol="117" pos="696" key="32" len="12" pan="0"/>
          <note vol="126" pos="696" key="24" len="12" pan="0"/>
          <note vol="89" pos="708" key="32" len="12" pan="0"/>
          <note vol="121" pos="720" key="32" len="12" pan="0"/>
          <note vol="145" pos="720" key="28" len="12" pan="0"/>
          <note vol="87" pos="732" key="32" len="12" pan="0"/>
          <note vol="145" pos="732" key="28" len="12" pan="0"/>
          <note vol="123" pos="744" key="32" len="12" pan="0"/>
          <note vol="126" pos="744" key="24" len="12" pan="0"/>
          <note vol="94" pos="756" key="32" len="12" pan="0"/>
          <note vol="145" pos="756" key="28" len="12" pan="0"/>
          <note vol="126" pos="768" key="32" len="12" pan="0"/>
          <note vol="126" pos="768" key="24" len="12" pan="0"/>
          <note vol="89" pos="780" key="32" len="12" pan="0"/>
          <note vol="126" pos="792" key="32" len="12" pan="0"/>
          <note vol="94" pos="804" key="32" len="12" pan="0"/>
          <note vol="126" pos="804" key="24" len="12" pan="0"/>
          <note vol="126" pos="816" key="32" len="12" pan="0"/>
          <note vol="145" pos="816" key="28" len="12" pan="0"/>
          <note vol="102" pos="828" key="32" len="12" pan="0"/>
          <note vol="126" pos="840" key="32" len="12" pan="0"/>
          <note vol="126" pos="840" key="24" len="12" pan="0"/>
          <note vol="94" pos="852" key="32" len="12" pan="0"/>
          <note vol="126" pos="852" key="24" len="12" pan="0"/>
          <note vol="123" pos="864" key="32" len="12" pan="0"/>
          <note vol="91" pos="876" key="32" len="12" pan="0"/>
          <note vol="145" pos="876" key="28" len="12" pan="0"/>
          <note vol="117" pos="888" key="32" len="12" pan="0"/>
          <note vol="126" pos="888" key="24" len="12" pan="0"/>
          <note vol="85" pos="900" key="32" len="12" pan="0"/>
          <note vol="121" pos="912" key="32" len="12" pan="0"/>
          <note vol="145" pos="912" key="28" len="12" pan="0"/>
          <note vol="87" pos="924" key="32" len="12" pan="0"/>
          <note vol="123" pos="936" key="32" len="12" pan="0"/>
          <note vol="126" pos="936" key="24" len="12" pan="0"/>
          <note vol="94" pos="948" key="32" len="12" pan="0"/>
          <note vol="145" pos="948" key="28" len="12" pan="0"/>
          <note vol="126" pos="960" key="32" len="12" pan="0"/>
          <note vol="126" pos="960" key="24" len="12" pan="0"/>
          <note vol="102" pos="972" key="32" len="12" pan="0"/>
          <note vol="126" pos="984" key="32" len="12" pan="0"/>
          <note vol="94" pos="996" key="32" len="12" pan="0"/>
          <note vol="126" pos="996" key="24" len="12" pan="0"/>
          <note vol="126" pos="1008" key="32" len="12" pan="0"/>
          <note vol="145" pos="1008" key="28" len="12" pan="0"/>
          <note vol="102" pos="1020" key="32" len="12" pan="0"/>
          <note vol="126" pos="1032" key="32" len="12" pan="0"/>
          <note vol="126" pos="1032" key="24" len="12" pan="0"/>
          <note vol="94" pos="1044" key="32" len="12" pan="0"/>
          <note vol="126" pos="1044" key="24" len="12" pan="0"/>
          <note vol="123" pos="1056" key="32" len="12" pan="0"/>
          <note vol="91" pos="1068" key="32" len="12" pan="0"/>
          <note vol="145" pos="1068" key="28" len="12" pan="0"/>
          <note vol="117" pos="1080" key="32" len="12" pan="0"/>
          <note vol="126" pos="1080" key="24" len="12" pan="0"/>
          <note vol="85" pos="1092" key="32" len="12" pan="0"/>
          <note vol="121" pos="1104" key="32" len="12" pan="0"/>
          <note vol="145" pos="1104" key="28" len="12" pan="0"/>
          <note vol="87" pos="1116" key="32" len="12" pan="0"/>
          <note vol="123" pos="1128" key="32" len="12" pan="0"/>
          <note vol="126" pos="1128" key="24" len="12" pan="0"/>
          <note vol="94" pos="1140" key="32" len="12" pan="0"/>
          <note vol="145" pos="1140" key="28" len="12" pan="0"/>
          <note vol="126" pos="1152" key="32" len="12" pan="0"/>
          <note vol="126" pos="1152" key="24" len="12" pan="0"/>
          <note vol="102" pos="1164" key="32" len="12" pan="0"/>
          <note vol="126" pos="1176" key="32" len="12" pan="0"/>
          <note vol="94" pos="1188" key="32" len="12" pan="0"/>
          <note vol="126" pos="1188" key="24" len="12" pan="0"/>
          <note vol="126" pos="1200" key="32" len="12" pan="0"/>
          <note vol="145" pos="1200" key="28" len="12" pan="0"/>
          <note vol="102" pos="1212" key="32" len="12" pan="0"/>
          <note vol="126" pos="1224" key="32" len="12" pan="0"/>
          <note vol="126" pos="1224" key="24" len="12" pan="0"/>
          <note vol="94" pos="1236" key="32" len="12" pan="0"/>
          <note vol="126" pos="1236" key="24" len="12" pan="0"/>
          <note vol="123" pos="1248" key="32" len="12" pan="0"/>
          <note vol="91" pos="1260" key="32" len="12" pan="0"/>
          <note vol="145" pos="1260" key="28" len="12" pan="0"/>
          <note vol="117" pos="1272" key="32" len="12" pan="0"/>
          <note vol="126" pos="1272" key="24" len="12" pan="0"/>
          <note vol="85" pos="1284" key="32" len="12" pan="0"/>
          <note vol="121" pos="1296" key="32" len="12" pan="0"/>
          <note vol="145" pos="1296" key="28" len="12" pan="0"/>
          <note vol="87" pos="1308" key="32" len="12" pan="0"/>
          <note vol="123" pos="1320" key="32" len="12" pan="0"/>
          <note vol="126" pos="1320" key="24" len="12" pan="0"/>
          <note vol="94" pos="1332" key="32" len="12" pan="0"/>
          <note vol="145" pos="1332" key="28" len="12" pan="0"/>
          <note vol="126" pos="1344" key="32" len="12" pan="0"/>
          <note vol="126" pos="1344" key="24" len="12" pan="0"/>
          <note vol="102" pos="1356" key="32" len="12" pan="0"/>
          <note vol="126" pos="1368" key="32" len="12" pan="0"/>
          <note vol="94" pos="1380" key="32" len="12" pan="0"/>
          <note vol="126" pos="1380" key="24" len="12" pan="0"/>
          <note vol="126" pos="1392" key="32" len="12" pan="0"/>
          <note vol="145" pos="1392" key="28" len="12" pan="0"/>
          <note vol="102" pos="1404" key="32" len="12" pan="0"/>
          <note vol="126" pos="1416" key="32" len="12" pan="0"/>
          <note vol="126" pos="1416" key="24" len="12" pan="0"/>
          <note vol="94" pos="1428" key="32" len="12" pan="0"/>
          <note vol="126" pos="1428" key="24" len="12" pan="0"/>
          <note vol="123" pos="1440" key="32" len="12" pan="0"/>
          <note vol="91" pos="1452" key="32" len="12" pan="0"/>
          <note vol="145" pos="1452" key="28" len="12" pan="0"/>
          <note vol="117" pos="1464" key="32" len="12" pan="0"/>
          <note vol="126" pos="1464" key="24" len="12" pan="0"/>
          <note vol="89" pos="1476" key="32" len="12" pan="0"/>
          <note vol="121" pos="1488" key="32" len="12" pan="0"/>
          <note vol="145" pos="1488" key="28" len="12" pan="0"/>
          <note vol="87" pos="1500" key="32" len="12" pan="0"/>
          <note vol="145" pos="1500" key="28" len="12" pan="0"/>
          <note vol="123" pos="1512" key="32" len="12" pan="0"/>
          <note vol="126" pos="1512" key="24" len="12" pan="0"/>
          <note vol="94" pos="1524" key="32" len="12" pan="0"/>
          <note vol="145" pos="1524" key="28" len="12" pan="0"/>
        </pattern>
      </track>
      <track type="0" name="LB302" muted="0" solo="0">
        <instrumenttrack vol="50" pitch="0" pitchrange="1" usemasterpitch="1" pan="-5" fxch="1" basenote="57">
          <instrument name="lb302">
            <lb302 dist="0" slide_dec="0.60000002" vcf_cut="1.26" db24="0" vcf_dec="0.1" dead="0" shape="11" vcf_res="0.75" vcf_mod="0.1" slide="0"/>
          </instrument>
          <eldata fres="0.5" ftype="0" fcut="14000" fwet="0">
            <elvol lspd_denominator="4" amt="0" sustain="0.5" lshp="0" x100="0" lspd="0.1" hold="0.5" lpdel="0" dec="0.5" lamt="0" userwavefile="" att="0" ctlenvamt="0" latt="0" lspd_numerator="4" rel="0.1" lspd_syncmode="0" pdel="0"/>
            <elcut lspd_denominator="4" amt="0" sustain="0.5" lshp="0" x100="0" lspd="0.1" hold="0.5" lpdel="0" dec="0.5" lamt="0" userwavefile="" att="0" ctlenvamt="0" latt="0" lspd_numerator="4" rel="0.1" lspd_syncmode="0" pdel="0"/>
            <elres lspd_denominator="4" amt="0" sustain="0.5" lshp="0" x100="0" lspd="0.1" hold="0.5" lpdel="0" dec="0.5" lamt="0" userwavefile="" att="0" ctlenvamt="0" latt="0" lspd_numerator="4" rel="0.1" lspd_syncmode="0" pdel="0"/>
          </eldata>
          <chordcreator chord-enabled="0" chordrange="1" chord="0"/>
          <arpeggiator arptime_numerator="4" arpmiss="0" arpcycle="0" arpgate="100" arp="0" arpskip="0" arprange="1" arptime_denominator="4" arptime_syncmode="0" arpmode="0" arpdir="0" arp-enabled="0" arptime="200"/>
          <midiport fixedoutputnote="-1" outputchannel="1" basevelocity="63" outputcontroller="0" inputchannel="0" inputcontroller="0" outputprogram="1" fixedoutputvelocity="-1" readable="0" fixedinputvelocity="-1" writable="0"/>
          <fxchain enabled="1" numofeffects="1">
            <effect on="1" autoquit_numerator="4" gate="0" wet="1" autoquit_syncmode="0" autoquit="1" autoquit_denominator="4" name="bitcrush">
              <bitcrushcontrols innoise="0" outgain="-3" stereodiff="0" rate="44100" levels="256" ingain="7.2000003" rateon="1" depthon="1" outclip="-16.9"/>
              <key/>
            </effect>
          </fxchain>
        </instrumenttrack>
        <pattern type="1" pos="0" name="LB302" steps="16" muted="0">
          <note vol="100" pos="0" key="47" len="24" pan="0"/>
          <note vol="100" pos="24" key="59" len="12" pan="0"/>
          <note vol="100" pos="36" key="47" len="24" pan="0"/>
          <note vol="100" pos="60" key="59" len="12" pan="0"/>
          <note vol="100" pos="72" key="47" len="24" pan="0"/>
          <note vol="100" pos="96" key="59" len="12" pan="0"/>
          <note vol="100" pos="108" key="47" len="24" pan="0"/>
          <note vol="100" pos="132" key="59" len="12" pan="0"/>
          <note vol="100" pos="144" key="45" len="24" pan="0"/>
          <note vol="100" pos="168" key="47" len="24" pan="0"/>
          <note vol="100" pos="192" key="47" len="24" pan="0"/>
          <note vol="100" pos="216" key="59" len="12" pan="0"/>
          <note vol="100" pos="228" key="47" len="24" pan="0"/>
          <note vol="100" pos="252" key="59" len="12" pan="0"/>
          <note vol="100" pos="264" key="47" len="24" pan="0"/>
          <note vol="100" pos="288" key="59" len="12" pan="0"/>
          <note vol="100" pos="300" key="47" len="24" pan="0"/>
          <note vol="100" pos="324" key="59" len="12" pan="0"/>
          <note vol="100" pos="336" key="45" len="24" pan="0"/>
          <note vol="100" pos="360" key="47" len="24" pan="0"/>
          <note vol="100" pos="384" key="47" len="24" pan="0"/>
          <note vol="100" pos="408" key="59" len="12" pan="0"/>
          <note vol="100" pos="420" key="47" len="24" pan="0"/>
          <note vol="100" pos="444" key="59" len="12" pan="0"/>
          <note vol="100" pos="456" key="47" len="24" pan="0"/>
          <note vol="100" pos="480" key="59" len="12" pan="0"/>
          <note vol="100" pos="492" key="47" len="24" pan="0"/>
          <note vol="100" pos="516" key="59" len="12" pan="0"/>
          <note vol="100" pos="528" key="45" len="24" pan="0"/>
          <note vol="100" pos="552" key="47" len="24" pan="0"/>
          <note vol="100" pos="576" key="47" len="24" pan="0"/>
          <note vol="100" pos="600" key="59" len="12" pan="0"/>
          <note vol="100" pos="612" key="47" len="24" pan="0"/>
          <note vol="100" pos="636" key="59" len="12" pan="0"/>
          <note vol="100" pos="648" key="47" len="24" pan="0"/>
          <note vol="100" pos="672" key="59" len="12" pan="0"/>
          <note vol="100" pos="684" key="47" len="24" pan="0"/>
          <note vol="100" pos="708" key="59" len="12" pan="0"/>
          <note vol="100" pos="720" key="45" len="24" pan="0"/>
          <note vol="100" pos="744" key="47" len="24" pan="0"/>
          <note vol="100" pos="768" key="47" len="24" pan="0"/>
          <note vol="100" pos="792" key="59" len="12" pan="0"/>
          <note vol="100" pos="804" key="47" len="24" pan="0"/>
          <note vol="100" pos="828" key="59" len="12" pan="0"/>
          <note vol="100" pos="840" key="47" len="24" pan="0"/>
          <note vol="100" pos="864" key="59" len="12" pan="0"/>
          <note vol="100" pos="876" key="47" len="24" pan="0"/>
          <note vol="100" pos="900" key="59" len="12" pan="0"/>
          <note vol="100" pos="912" key="45" len="24" pan="0"/>
          <note vol="100" pos="936" key="47" len="24" pan="0"/>
          <note vol="100" pos="960" key="47" len="24" pan="0"/>
          <note vol="100" pos="984" key="59" len="12" pan="0"/>
          <note vol="100" pos="996" key="47" len="24" pan="0"/>
          <note vol="100" pos="1020" key="59" len="12" pan="0"/>
          <note vol="100" pos="1032" key="47" len="24" pan="0"/>
          <note vol="100" pos="1056" key="59" len="12" pan="0"/>
          <note vol="100" pos="1068" key="47" len="24" pan="0"/>
          <note vol="100" pos="1092" key="59" len="12" pan="0"/>
          <note vol="100" pos="1104" key="45" len="24" pan="0"/>
          <note vol="100" pos="1128" key="47" len="24" pan="0"/>
          <note vol="100" pos="1152" key="47" len="24" pan="0"/>
          <note vol="100" pos="1176" key="59" len="12" pan="0"/>
          <note vol="100" pos="1188" key="47" len="24" pan="0"/>
          <note vol="100" pos="1212" key="59" len="12" pan="0"/>
          <note vol="100" pos="1224" key="47" len="24" pan="0"/>
          <note vol="100" pos="1248" key="59" len="12" pan="0"/>
          <note vol="100" pos="1260" key="47" len="24" pan="0"/>
          <note vol="100" pos="1284" key="59" len="12" pan="0"/>
          <note vol="100" pos="1296" key="45" len="24" pan="0"/>
          <note vol="100" pos="1320" key="47" len="24" pan="0"/>
          <note vol="100" pos="1344" key="47" len="24" pan="0"/>
          <note vol="100" pos="1368" key="59" len="12" pan="0"/>
          <note vol="100" pos="1380" key="47" len="24" pan="0"/>
          <note vol="100" pos="1404" key="59" len="12" pan="0"/>
          <note vol="100" pos="1416" key="47" len="24" pan="0"/>
          <note vol="100" pos="1440" key="59" len="12" pan="0"/>
          <note vol="100" pos="1452" key="47" len="24" pan="0"/>
          <note vol="100" pos="1476" key="59" len="12" pan="0"/>
          <note vol="100" pos="1488" key="45" len="24" pan="0"/>
          <note vol="100" pos="1512" key="47" len="24" pan="0"/>
        </pattern>
        <pattern type="1" pos="5376" name="" steps="16" muted="0">
          <note vol="100" pos="0" key="47" len="24" pan="0"/>
          <note vol="100" pos="24" key="47" len="12" pan="0"/>
          <note vol="100" pos="36" key="47" len="24" pan="0"/>
          <note vol="100" pos="60" key="47" len="12" pan="0"/>
          <note vol="100" pos="72" key="47" len="24" pan="0"/>
          <note vol="100" pos="96" key="47" len="12" pan="0"/>
          <note vol="100" pos="108" key="47" len="24" pan="0"/>
          <note vol="100" pos="132" key="47" len="12" pan="0"/>
          <note vol="100" pos="144" key="45" len="24" pan="0"/>
          <note vol="100" pos="168" key="47" len="24" pan="0"/>
          <note vol="100" pos="192" key="47" len="24" pan="0"/>
          <note vol="100" pos="216" key="47" len="12" pan="0"/>
          <note vol="100" pos="228" key="47" len="24" pan="0"/>
          <note vol="100" pos="252" key="47" len="12" pan="0"/>
          <note vol="100" pos="264" key="47" len="24" pan="0"/>
          <note vol="100" pos="288" key="47" len="12" pan="0"/>
          <note vol="100" pos="300" key="47" len="24" pan="0"/>
          <note vol="100" pos="324" key="47" len="12" pan="0"/>
          <note vol="100" pos="336" key="45" len="24" pan="0"/>
          <note vol="100" pos="360" key="47" len="24" pan="0"/>
          <note vol="100" pos="384" key="47" len="24" pan="0"/>
          <note vol="100" pos="408" key="47" len="12" pan="0"/>
          <note vol="100" pos="420" key="47" len="24" pan="0"/>
          <note vol="100" pos="444" key="47" len="12" pan="0"/>
          <note vol="100" pos="456" key="47" len="24" pan="0"/>
          <note vol="100" pos="480" key="47" len="12" pan="0"/>
          <note vol="100" pos="492" key="47" len="24" pan="0"/>
          <note vol="100" pos="516" key="47" len="12" pan="0"/>
          <note vol="100" pos="528" key="45" len="24" pan="0"/>
          <note vol="100" pos="552" key="47" len="24" pan="0"/>
          <note vol="100" pos="576" key="47" len="24" pan="0"/>
          <note vol="100" pos="600" key="47" len="12" pan="0"/>
          <note vol="100" pos="612" key="47" len="24" pan="0"/>
          <note vol="100" pos="636" key="47" len="12" pan="0"/>
          <note vol="100" pos="648" key="47" len="24" pan="0"/>
          <note vol="100" pos="672" key="47" len="12" pan="0"/>
          <note vol="100" pos="684" key="47" len="24" pan="0"/>
          <note vol="100" pos="708" key="47" len="12" pan="0"/>
          <note vol="100" pos="720" key="45" len="24" pan="0"/>
          <note vol="100" pos="744" key="47" len="24" pan="0"/>
        </pattern>
        <pattern type="1" pos="6144" name="" steps="16" muted="0">
          <note vol="100" pos="0" key="47" len="24" pan="0"/>
          <note vol="100" pos="24" key="47" len="12" pan="0"/>
          <note vol="100" pos="36" key="47" len="24" pan="0"/>
          <note vol="100" pos="60" key="47" len="12" pan="0"/>
          <note vol="100" pos="72" key="47" len="24" pan="0"/>
          <note vol="100" pos="96" key="47" len="12" pan="0"/>
          <note vol="100" pos="108" key="47" len="24" pan="0"/>
          <note vol="100" pos="132" key="47" len="12" pan="0"/>
          <note vol="100" pos="144" key="45" len="24" pan="0"/>
          <note vol="100" pos="168" key="47" len="24" pan="0"/>
          <note vol="100" pos="192" key="47" len="24" pan="0"/>
          <note vol="100" pos="216" key="47" len="12" pan="0"/>
          <note vol="100" pos="228" key="47" len="24" pan="0"/>
          <note vol="100" pos="252" key="47" len="12" pan="0"/>
          <note vol="100" pos="264" key="47" len="24" pan="0"/>
          <note vol="100" pos="288" key="47" len="12" pan="0"/>
          <note vol="100" pos="300" key="47" len="24" pan="0"/>
          <note vol="100" pos="324" key="47" len="12" pan="0"/>
          <note vol="100" pos="336" key="45" len="24" pan="0"/>
          <note vol="100" pos="360" key="47" len="24" pan="0"/>
          <note vol="100" pos="384" key="47" len="24" pan="0"/>
          <note vol="100" pos="408" key="47" len="12" pan="0"/>
          <note vol="100" pos="420" key="47" len="24" pan="0"/>
          <note vol="100" pos="444" key="47" len="12" pan="0"/>
          <note vol="100" pos="456" key="47" len="24" pan="0"/>
          <note vol="100" pos="480" key="47" len="12" pan="0"/>
          <note vol="100" pos="492" key="47" len="24" pan="0"/>
          <note vol="100" pos="516" key="47" len="12" pan="0"/>
          <note vol="100" pos="528" key="45" len="24" pan="0"/>
          <note vol="100" pos="552" key="47" len="24" pan="0"/>
          <note vol="100" pos="576" key="47" len="24" pan="0"/>
          <note vol="100" pos="600" key="47" len="12" pan="0"/>
          <note vol="100" pos="612" key="47" len="24" pan="0"/>
          <note vol="100" pos="636" key="47" len="12" pan="0"/>
          <note vol="100" pos="648" key="47" len="24" pan="0"/>
          <note vol="100" pos="672" key="47" len="12" pan="0"/>
          <note vol="100" pos="684" key="47" len="24" pan="0"/>
          <note vol="100" pos="708" key="47" len="12" pan="0"/>
          <note vol="100" pos="720" key="45" len="24" pan="0"/>
          <note vol="100" pos="744" key="47" len="24" pan="0"/>
          <note vol="100" pos="768" key="47" len="24" pan="0"/>
          <note vol="100" pos="792" key="47" len="12" pan="0"/>
          <note vol="100" pos="804" key="47" len="24" pan="0"/>
          <note vol="100" pos="828" key="47" len="12" pan="0"/>
          <note vol="100" pos="840" key="47" len="24" pan="0"/>
          <note vol="100" pos="864" key="47" len="12" pan="0"/>
          <note vol="100" pos="876" key="47" len="24" pan="0"/>
          <note vol="100" pos="900" key="47" len="12" pan="0"/>
          <note vol="100" pos="912" key="45" len="24" pan="0"/>
          <note vol="100" pos="936" key="47" len="24" pan="0"/>
          <note vol="100" pos="960" key="47" len="24" pan="0"/>
          <note vol="100" pos="984" key="47" len="12" pan="0"/>
          <note vol="100" pos="996" key="47" len="24" pan="0"/>
          <note vol="100" pos="1020" key="47" len="12" pan="0"/>
          <note vol="100" pos="1032" key="47" len="24" pan="0"/>
          <note vol="100" pos="1056" key="47" len="12" pan="0"/>
          <note vol="100" pos="1068" key="47" len="24" pan="0"/>
          <note vol="100" pos="1092" key="47" len="12" pan="0"/>
          <note vol="100" pos="1104" key="45" len="24" pan="0"/>
          <note vol="100" pos="1128" key="47" len="24" pan="0"/>
          <note vol="100" pos="1152" key="47" len="24" pan="0"/>
          <note vol="100" pos="1176" key="47" len="12" pan="0"/>
          <note vol="100" pos="1188" key="47" len="24" pan="0"/>
          <note vol="100" pos="1212" key="47" len="12" pan="0"/>
          <note vol="100" pos="1224" key="47" len="24" pan="0"/>
          <note vol="100" pos="1248" key="47" len="12" pan="0"/>
          <note vol="100" pos="1260" key="47" len="24" pan="0"/>
          <note vol="100" pos="1284" key="47" len="12" pan="0"/>
          <note vol="100" pos="1296" key="45" len="24" pan="0"/>
          <note vol="100" pos="1320" key="47" len="24" pan="0"/>
          <note vol="100" pos="1344" key="47" len="24" pan="0"/>
          <note vol="100" pos="1368" key="47" len="12" pan="0"/>
          <note vol="100" pos="1380" key="47" len="24" pan="0"/>
          <note vol="100" pos="1404" key="47" len="12" pan="0"/>
          <note vol="100" pos="1416" key="47" len="24" pan="0"/>
          <note vol="100" pos="1440" key="47" len="12" pan="0"/>
          <note vol="100" pos="1452" key="47" len="24" pan="0"/>
          <note vol="100" pos="1476" key="47" len="12" pan="0"/>
          <note vol="100" pos="1488" key="45" len="24" pan="0"/>
          <note vol="100" pos="1512" key="47" len="24" pan="0"/>
        </pattern>
        <pattern type="1" pos="1536" name="" steps="16" muted="0">
          <note vol="100" pos="0" key="47" len="24" pan="0"/>
          <note vol="100" pos="24" key="59" len="12" pan="0"/>
          <note vol="100" pos="36" key="47" len="24" pan="0"/>
          <note vol="100" pos="60" key="59" len="12" pan="0"/>
          <note vol="100" pos="72" key="47" len="24" pan="0"/>
          <note vol="100" pos="96" key="59" len="12" pan="0"/>
          <note vol="100" pos="108" key="47" len="24" pan="0"/>
          <note vol="100" pos="132" key="59" len="12" pan="0"/>
          <note vol="100" pos="144" key="45" len="24" pan="0"/>
          <note vol="100" pos="168" key="47" len="24" pan="0"/>
          <note vol="100" pos="192" key="47" len="24" pan="0"/>
          <note vol="100" pos="216" key="59" len="12" pan="0"/>
          <note vol="100" pos="228" key="47" len="24" pan="0"/>
          <note vol="100" pos="252" key="59" len="12" pan="0"/>
          <note vol="100" pos="264" key="47" len="24" pan="0"/>
          <note vol="100" pos="288" key="59" len="12" pan="0"/>
          <note vol="100" pos="300" key="47" len="24" pan="0"/>
          <note vol="100" pos="324" key="59" len="12" pan="0"/>
          <note vol="100" pos="336" key="45" len="24" pan="0"/>
          <note vol="100" pos="360" key="47" len="24" pan="0"/>
          <note vol="100" pos="384" key="47" len="24" pan="0"/>
          <note vol="100" pos="408" key="59" len="12" pan="0"/>
          <note vol="100" pos="420" key="47" len="24" pan="0"/>
          <note vol="100" pos="444" key="59" len="12" pan="0"/>
          <note vol="100" pos="456" key="47" len="24" pan="0"/>
          <note vol="100" pos="480" key="59" len="12" pan="0"/>
          <note vol="100" pos="492" key="47" len="24" pan="0"/>
          <note vol="100" pos="516" key="59" len="12" pan="0"/>
          <note vol="100" pos="528" key="45" len="24" pan="0"/>
          <note vol="100" pos="552" key="47" len="24" pan="0"/>
          <note vol="100" pos="576" key="47" len="24" pan="0"/>
          <note vol="100" pos="600" key="59" len="12" pan="0"/>
          <note vol="100" pos="612" key="47" len="24" pan="0"/>
          <note vol="100" pos="636" key="59" len="12" pan="0"/>
          <note vol="100" pos="648" key="47" len="24" pan="0"/>
          <note vol="100" pos="672" key="59" len="12" pan="0"/>
          <note vol="100" pos="684" key="47" len="24" pan="0"/>
          <note vol="100" pos="708" key="59" len="12" pan="0"/>
          <note vol="100" pos="720" key="45" len="24" pan="0"/>
          <note vol="100" pos="744" key="47" len="24" pan="0"/>
          <note vol="100" pos="768" key="47" len="24" pan="0"/>
          <note vol="100" pos="792" key="59" len="12" pan="0"/>
          <note vol="100" pos="804" key="47" len="24" pan="0"/>
          <note vol="100" pos="828" key="59" len="12" pan="0"/>
          <note vol="100" pos="840" key="47" len="24" pan="0"/>
          <note vol="100" pos="864" key="59" len="12" pan="0"/>
          <note vol="100" pos="876" key="47" len="24" pan="0"/>
          <note vol="100" pos="900" key="59" len="12" pan="0"/>
          <note vol="100" pos="912" key="45" len="24" pan="0"/>
          <note vol="100" pos="936" key="47" len="24" pan="0"/>
          <note vol="100" pos="960" key="47" len="24" pan="0"/>
          <note vol="100" pos="984" key="59" len="12" pan="0"/>
          <note vol="100" pos="996" key="47" len="24" pan="0"/>
          <note vol="100" pos="1020" key="59" len="12" pan="0"/>
          <note vol="100" pos="1032" key="47" len="24" pan="0"/>
          <note vol="100" pos="1056" key="59" len="12" pan="0"/>
          <note vol="100" pos="1068" key="47" len="24" pan="0"/>
          <note vol="100" pos="1092" key="59" len="12" pan="0"/>
          <note vol="100" pos="1104" key="45" len="24" pan="0"/>
          <note vol="100" pos="1128" key="47" len="24" pan="0"/>
          <note vol="100" pos="1152" key="47" len="24" pan="0"/>
          <note vol="100" pos="1176" key="59" len="12" pan="0"/>
          <note vol="100" pos="1188" key="47" len="24" pan="0"/>
          <note vol="100" pos="1212" key="59" len="12" pan="0"/>
          <note vol="100" pos="1224" key="47" len="24" pan="0"/>
          <note vol="100" pos="1248" key="59" len="12" pan="0"/>
          <note vol="100" pos="1260" key="47" len="24" pan="0"/>
          <note vol="100" pos="1284" key="59" len="12" pan="0"/>
          <note vol="100" pos="1296" key="45" len="24" pan="0"/>
          <note vol="100" pos="1320" key="47" len="24" pan="0"/>
          <note vol="100" pos="1344" key="47" len="24" pan="0"/>
          <note vol="100" pos="1368" key="59" len="12" pan="0"/>
          <note vol="100" pos="1380" key="47" len="24" pan="0"/>
          <note vol="100" pos="1404" key="59" len="12" pan="0"/>
          <note vol="100" pos="1416" key="47" len="24" pan="0"/>
          <note vol="100" pos="1440" key="59" len="12" pan="0"/>
          <note vol="100" pos="1452" key="47" len="24" pan="0"/>
          <note vol="100" pos="1476" key="59" len="12" pan="0"/>
          <note vol="100" pos="1488" key="45" len="24" pan="0"/>
          <note vol="100" pos="1512" key="47" len="24" pan="0"/>
        </pattern>
        <pattern type="1" pos="7680" name="" steps="16" muted="0">
          <note vol="100" pos="0" key="47" len="24" pan="0"/>
          <note vol="100" pos="24" key="59" len="12" pan="0"/>
          <note vol="100" pos="36" key="47" len="24" pan="0"/>
          <note vol="100" pos="60" key="59" len="12" pan="0"/>
          <note vol="100" pos="72" key="47" len="24" pan="0"/>
          <note vol="100" pos="96" key="59" len="12" pan="0"/>
          <note vol="100" pos="108" key="47" len="24" pan="0"/>
          <note vol="100" pos="132" key="59" len="12" pan="0"/>
          <note vol="100" pos="144" key="45" len="24" pan="0"/>
          <note vol="100" pos="168" key="47" len="24" pan="0"/>
          <note vol="100" pos="192" key="47" len="24" pan="0"/>
          <note vol="100" pos="216" key="59" len="12" pan="0"/>
          <note vol="100" pos="228" key="47" len="24" pan="0"/>
          <note vol="100" pos="252" key="59" len="12" pan="0"/>
          <note vol="100" pos="264" key="47" len="24" pan="0"/>
          <note vol="100" pos="288" key="59" len="12" pan="0"/>
          <note vol="100" pos="300" key="47" len="24" pan="0"/>
          <note vol="100" pos="324" key="59" len="12" pan="0"/>
          <note vol="100" pos="336" key="45" len="24" pan="0"/>
          <note vol="100" pos="360" key="47" len="24" pan="0"/>
          <note vol="100" pos="384" key="47" len="24" pan="0"/>
          <note vol="100" pos="408" key="59" len="12" pan="0"/>
          <note vol="100" pos="420" key="47" len="24" pan="0"/>
          <note vol="100" pos="444" key="59" len="12" pan="0"/>
          <note vol="100" pos="456" key="47" len="24" pan="0"/>
          <note vol="100" pos="480" key="59" len="12" pan="0"/>
          <note vol="100" pos="492" key="47" len="24" pan="0"/>
          <note vol="100" pos="516" key="59" len="12" pan="0"/>
          <note vol="100" pos="528" key="45" len="24" pan="0"/>
          <note vol="100" pos="552" key="47" len="24" pan="0"/>
          <note vol="100" pos="576" key="47" len="24" pan="0"/>
          <note vol="100" pos="600" key="59" len="12" pan="0"/>
          <note vol="100" pos="612" key="47" len="24" pan="0"/>
          <note vol="100" pos="636" key="59" len="12" pan="0"/>
          <note vol="100" pos="648" key="47" len="24" pan="0"/>
          <note vol="100" pos="672" key="59" len="12" pan="0"/>
          <note vol="100" pos="684" key="47" len="24" pan="0"/>
          <note vol="100" pos="708" key="59" len="12" pan="0"/>
          <note vol="100" pos="720" key="45" len="24" pan="0"/>
          <note vol="100" pos="744" key="47" len="24" pan="0"/>
          <note vol="100" pos="768" key="47" len="24" pan="0"/>
          <note vol="100" pos="792" key="59" len="12" pan="0"/>
          <note vol="100" pos="804" key="47" len="24" pan="0"/>
          <note vol="100" pos="828" key="59" len="12" pan="0"/>
          <note vol="100" pos="840" key="47" len="24" pan="0"/>
          <note vol="100" pos="864" key="59" len="12" pan="0"/>
          <note vol="100" pos="876" key="47" len="24" pan="0"/>
          <note vol="100" pos="900" key="59" len="12" pan="0"/>
          <note vol="100" pos="912" key="45" len="24" pan="0"/>
          <note vol="100" pos="936" key="47" len="24" pan="0"/>
          <note vol="100" pos="960" key="47" len="24" pan="0"/>
          <note vol="100" pos="984" key="59" len="12" pan="0"/>
          <note vol="100" pos="996" key="47" len="24" pan="0"/>
          <note vol="100" pos="1020" key="59" len="12" pan="0"/>
          <note vol="100" pos="1032" key="47" len="24" pan="0"/>
          <note vol="100" pos="1056" key="59" len="12" pan="0"/>
          <note vol="100" pos="1068" key="47" len="24" pan="0"/>
          <note vol="100" pos="1092" key="59" len="12" pan="0"/>
          <note vol="100" pos="1104" key="45" len="24" pan="0"/>
          <note vol="100" pos="1128" key="47" len="24" pan="0"/>
          <note vol="100" pos="1152" key="47" len="24" pan="0"/>
          <note vol="100" pos="1176" key="59" len="12" pan="0"/>
          <note vol="100" pos="1188" key="47" len="24" pan="0"/>
          <note vol="100" pos="1212" key="59" len="12" pan="0"/>
          <note vol="100" pos="1224" key="47" len="24" pan="0"/>
          <note vol="100" pos="1248" key="59" len="12" pan="0"/>
          <note vol="100" pos="1260" key="47" len="24" pan="0"/>
          <note vol="100" pos="1284" key="59" len="12" pan="0"/>
          <note vol="100" pos="1296" key="45" len="24" pan="0"/>
          <note vol="100" pos="1320" key="47" len="24" pan="0"/>
          <note vol="100" pos="1344" key="47" len="24" pan="0"/>
          <note vol="100" pos="1368" key="59" len="12" pan="0"/>
          <note vol="100" pos="1380" key="47" len="24" pan="0"/>
          <note vol="100" pos="1404" key="59" len="12" pan="0"/>
          <note vol="100" pos="1416" key="47" len="24" pan="0"/>
          <note vol="100" pos="1440" key="59" len="12" pan="0"/>
          <note vol="100" pos="1452" key="47" len="24" pan="0"/>
          <note vol="100" pos="1476" key="59" len="12" pan="0"/>
          <note vol="100" pos="1488" key="45" len="24" pan="0"/>
          <note vol="100" pos="1512" key="47" len="24" pan="0"/>
        </pattern>
        <pattern type="1" pos="9216" name="" steps="16" muted="0">
          <note vol="100" pos="0" key="47" len="24" pan="0"/>
          <note vol="100" pos="24" key="59" len="12" pan="0"/>
          <note vol="100" pos="36" key="47" len="24" pan="0"/>
          <note vol="100" pos="60" key="59" len="12" pan="0"/>
          <note vol="100" pos="72" key="47" len="24" pan="0"/>
          <note vol="100" pos="96" key="59" len="12" pan="0"/>
          <note vol="100" pos="108" key="47" len="24" pan="0"/>
          <note vol="100" pos="132" key="59" len="12" pan="0"/>
          <note vol="100" pos="144" key="45" len="24" pan="0"/>
          <note vol="100" pos="168" key="47" len="24" pan="0"/>
          <note vol="100" pos="192" key="47" len="24" pan="0"/>
          <note vol="100" pos="216" key="59" len="12" pan="0"/>
          <note vol="100" pos="228" key="47" len="24" pan="0"/>
          <note vol="100" pos="252" key="59" len="12" pan="0"/>
          <note vol="100" pos="264" key="47" len="24" pan="0"/>
          <note vol="100" pos="288" key="59" len="12" pan="0"/>
          <note vol="100" pos="300" key="47" len="24" pan="0"/>
          <note vol="100" pos="324" key="59" len="12" pan="0"/>
          <note vol="100" pos="336" key="45" len="24" pan="0"/>
          <note vol="100" pos="360" key="47" len="24" pan="0"/>
          <note vol="100" pos="384" key="47" len="24" pan="0"/>
          <note vol="100" pos="408" key="59" len="12" pan="0"/>
          <note vol="100" pos="420" key="47" len="24" pan="0"/>
          <note vol="100" pos="444" key="59" len="12" pan="0"/>
          <note vol="100" pos="456" key="47" len="24" pan="0"/>
          <note vol="100" pos="480" key="59" len="12" pan="0"/>
          <note vol="100" pos="492" key="47" len="24" pan="0"/>
          <note vol="100" pos="516" key="59" len="12" pan="0"/>
          <note vol="100" pos="528" key="45" len="24" pan="0"/>
          <note vol="100" pos="552" key="47" len="24" pan="0"/>
          <note vol="100" pos="576" key="47" len="24" pan="0"/>
          <note vol="100" pos="600" key="59" len="12" pan="0"/>
          <note vol="100" pos="612" key="47" len="24" pan="0"/>
          <note vol="100" pos="636" key="59" len="12" pan="0"/>
          <note vol="100" pos="648" key="47" len="24" pan="0"/>
          <note vol="100" pos="672" key="59" len="12" pan="0"/>
          <note vol="100" pos="684" key="47" len="24" pan="0"/>
          <note vol="100" pos="708" key="59" len="12" pan="0"/>
          <note vol="100" pos="720" key="45" len="24" pan="0"/>
          <note vol="100" pos="744" key="47" len="24" pan="0"/>
          <note vol="100" pos="768" key="47" len="24" pan="0"/>
          <note vol="100" pos="792" key="59" len="12" pan="0"/>
          <note vol="100" pos="804" key="47" len="24" pan="0"/>
          <note vol="100" pos="828" key="59" len="12" pan="0"/>
          <note vol="100" pos="840" key="47" len="24" pan="0"/>
          <note vol="100" pos="864" key="59" len="12" pan="0"/>
          <note vol="100" pos="876" key="47" len="24" pan="0"/>
          <note vol="100" pos="900" key="59" len="12" pan="0"/>
          <note vol="100" pos="912" key="45" len="24" pan="0"/>
          <note vol="100" pos="936" key="47" len="24" pan="0"/>
          <note vol="100" pos="960" key="47" len="24" pan="0"/>
          <note vol="100" pos="984" key="59" len="12" pan="0"/>
          <note vol="100" pos="996" key="47" len="24" pan="0"/>
          <note vol="100" pos="1020" key="59" len="12" pan="0"/>
          <note vol="100" pos="1032" key="47" len="24" pan="0"/>
          <note vol="100" pos="1056" key="59" len="12" pan="0"/>
          <note vol="100" pos="1068" key="47" len="24" pan="0"/>
          <note vol="100" pos="1092" key="59" len="12" pan="0"/>
          <note vol="100" pos="1104" key="45" len="24" pan="0"/>
          <note vol="100" pos="1128" key="47" len="24" pan="0"/>
          <note vol="100" pos="1152" key="47" len="24" pan="0"/>
          <note vol="100" pos="1176" key="59" len="12" pan="0"/>
          <note vol="100" pos="1188" key="47" len="24" pan="0"/>
          <note vol="100" pos="1212" key="59" len="12" pan="0"/>
          <note vol="100" pos="1224" key="47" len="24" pan="0"/>
          <note vol="100" pos="1248" key="59" len="12" pan="0"/>
          <note vol="100" pos="1260" key="47" len="24" pan="0"/>
          <note vol="100" pos="1284" key="59" len="12" pan="0"/>
          <note vol="100" pos="1296" key="45" len="24" pan="0"/>
          <note vol="100" pos="1320" key="47" len="24" pan="0"/>
          <note vol="100" pos="1344" key="47" len="24" pan="0"/>
          <note vol="100" pos="1368" key="59" len="12" pan="0"/>
          <note vol="100" pos="1380" key="47" len="24" pan="0"/>
          <note vol="100" pos="1404" key="59" len="12" pan="0"/>
          <note vol="100" pos="1416" key="47" len="24" pan="0"/>
          <note vol="100" pos="1440" key="59" len="12" pan="0"/>
          <note vol="100" pos="1452" key="47" len="24" pan="0"/>
          <note vol="100" pos="1476" key="59" len="12" pan="0"/>
          <note vol="100" pos="1488" key="45" len="24" pan="0"/>
          <note vol="100" pos="1512" key="47" len="24" pan="0"/>
        </pattern>
        <pattern type="1" pos="3072" name="" steps="16" muted="0">
          <note vol="100" pos="0" key="47" len="24" pan="0"/>
          <note vol="100" pos="24" key="59" len="12" pan="0"/>
          <note vol="100" pos="36" key="47" len="24" pan="0"/>
          <note vol="100" pos="60" key="59" len="12" pan="0"/>
          <note vol="100" pos="72" key="47" len="24" pan="0"/>
          <note vol="100" pos="96" key="59" len="12" pan="0"/>
          <note vol="100" pos="108" key="47" len="24" pan="0"/>
          <note vol="100" pos="132" key="59" len="12" pan="0"/>
          <note vol="100" pos="144" key="45" len="24" pan="0"/>
          <note vol="100" pos="168" key="47" len="24" pan="0"/>
          <note vol="100" pos="192" key="47" len="24" pan="0"/>
          <note vol="100" pos="216" key="59" len="12" pan="0"/>
          <note vol="100" pos="228" key="47" len="24" pan="0"/>
          <note vol="100" pos="252" key="59" len="12" pan="0"/>
          <note vol="100" pos="264" key="47" len="24" pan="0"/>
          <note vol="100" pos="288" key="59" len="12" pan="0"/>
          <note vol="100" pos="300" key="47" len="24" pan="0"/>
          <note vol="100" pos="324" key="59" len="12" pan="0"/>
          <note vol="100" pos="336" key="45" len="24" pan="0"/>
          <note vol="100" pos="360" key="47" len="24" pan="0"/>
          <note vol="100" pos="384" key="47" len="24" pan="0"/>
          <note vol="100" pos="408" key="59" len="12" pan="0"/>
          <note vol="100" pos="420" key="47" len="24" pan="0"/>
          <note vol="100" pos="444" key="59" len="12" pan="0"/>
          <note vol="100" pos="456" key="47" len="24" pan="0"/>
          <note vol="100" pos="480" key="59" len="12" pan="0"/>
          <note vol="100" pos="492" key="47" len="24" pan="0"/>
          <note vol="100" pos="516" key="59" len="12" pan="0"/>
          <note vol="100" pos="528" key="45" len="24" pan="0"/>
          <note vol="100" pos="552" key="47" len="24" pan="0"/>
          <note vol="100" pos="576" key="47" len="24" pan="0"/>
          <note vol="100" pos="600" key="59" len="12" pan="0"/>
          <note vol="100" pos="612" key="47" len="24" pan="0"/>
          <note vol="100" pos="636" key="59" len="12" pan="0"/>
          <note vol="100" pos="648" key="47" len="24" pan="0"/>
          <note vol="100" pos="672" key="59" len="12" pan="0"/>
          <note vol="100" pos="684" key="47" len="24" pan="0"/>
          <note vol="100" pos="708" key="59" len="12" pan="0"/>
          <note vol="100" pos="720" key="45" len="24" pan="0"/>
          <note vol="100" pos="744" key="47" len="24" pan="0"/>
          <note vol="100" pos="768" key="47" len="24" pan="0"/>
          <note vol="100" pos="792" key="59" len="12" pan="0"/>
          <note vol="100" pos="804" key="47" len="24" pan="0"/>
          <note vol="100" pos="828" key="59" len="12" pan="0"/>
          <note vol="100" pos="840" key="47" len="24" pan="0"/>
          <note vol="100" pos="864" key="59" len="12" pan="0"/>
          <note vol="100" pos="876" key="47" len="24" pan="0"/>
          <note vol="100" pos="900" key="59" len="12" pan="0"/>
          <note vol="100" pos="912" key="45" len="24" pan="0"/>
          <note vol="100" pos="936" key="47" len="24" pan="0"/>
          <note vol="100" pos="960" key="47" len="24" pan="0"/>
          <note vol="100" pos="984" key="59" len="12" pan="0"/>
          <note vol="100" pos="996" key="47" len="24" pan="0"/>
          <note vol="100" pos="1020" key="59" len="12" pan="0"/>
          <note vol="100" pos="1032" key="47" len="24" pan="0"/>
          <note vol="100" pos="1056" key="59" len="12" pan="0"/>
          <note vol="100" pos="1068" key="47" len="24" pan="0"/>
          <note vol="100" pos="1092" key="59" len="12" pan="0"/>
          <note vol="100" pos="1104" key="45" len="24" pan="0"/>
          <note vol="100" pos="1128" key="47" len="24" pan="0"/>
          <note vol="100" pos="1152" key="47" len="24" pan="0"/>
          <note vol="100" pos="1176" key="59" len="12" pan="0"/>
          <note vol="100" pos="1188" key="47" len="24" pan="0"/>
          <note vol="100" pos="1212" key="59" len="12" pan="0"/>
          <note vol="100" pos="1224" key="47" len="24" pan="0"/>
          <note vol="100" pos="1248" key="59" len="12" pan="0"/>
          <note vol="100" pos="1260" key="47" len="24" pan="0"/>
          <note vol="100" pos="1284" key="59" len="12" pan="0"/>
          <note vol="100" pos="1296" key="45" len="24" pan="0"/>
          <note vol="100" pos="1320" key="47" len="24" pan="0"/>
          <note vol="100" pos="1344" key="47" len="24" pan="0"/>
          <note vol="100" pos="1368" key="59" len="12" pan="0"/>
          <note vol="100" pos="1380" key="47" len="24" pan="0"/>
          <note vol="100" pos="1404" key="59" len="12" pan="0"/>
          <note vol="100" pos="1416" key="47" len="24" pan="0"/>
          <note vol="100" pos="1440" key="59" len="12" pan="0"/>
          <note vol="100" pos="1452" key="47" len="24" pan="0"/>
          <note vol="100" pos="1476" key="59" len="12" pan="0"/>
          <note vol="100" pos="1488" key="45" len="24" pan="0"/>
          <note vol="100" pos="1512" key="47" len="24" pan="0"/>
        </pattern>
      </track>
      <track type="0" name="Dirty Reece" muted="0" solo="0">
        <instrumenttrack pitch="0" pitchrange="1" usemasterpitch="1" pan="5" fxch="1" basenote="57">
          <vol scale_type="linear" id="4289828" value="70"/>
          <instrument name="tripleoscillator">
            <tripleoscillator modalgo3="2" pan0="0" wavetype1="2" userwavefile0="" wavetype2="2" stphdetun1="0" userwavefile2="" coarse0="-24" modalgo2="2" pan2="0" finel0="15" phoffset0="0" stphdetun0="0" wavetype0="2" pan1="0" finel2="20" vol0="33" finer1="-15" stphdetun2="0" finel1="-14" finer2="20" finer0="14" coarse2="-12" vol2="33" modalgo1="2" vol1="33" phoffset1="0" userwavefile1="" phoffset2="0" coarse1="-24"/>
          </instrument>
          <eldata fres="2" ftype="0" fcut="13720" fwet="1">
            <elvol lspd_denominator="4" amt="1" sustain="0.5" lshp="0" x100="0" lspd="0.1" hold="0.5" lpdel="0" dec="0.5" lamt="0" userwavefile="" att="0" ctlenvamt="0" latt="0" lspd_numerator="4" rel="0.148" lspd_syncmode="0" pdel="0"/>
            <elcut lspd_denominator="4" amt="0" sustain="0.5" lshp="0" x100="0" lspd="0.1" hold="0.5" lpdel="0" dec="0.5" lamt="0" userwavefile="" att="0" ctlenvamt="0" latt="0" lspd_numerator="4" rel="0.1" lspd_syncmode="0" pdel="0"/>
            <elres lspd_denominator="4" amt="1" sustain="0.5" lshp="0" x100="0" lspd="0.1" hold="0.5" lpdel="0" dec="0.5" lamt="0" userwavefile="" att="0" ctlenvamt="0" latt="0" lspd_numerator="4" rel="0.1" lspd_syncmode="0" pdel="0"/>
          </eldata>
          <chordcreator chord-enabled="0" chordrange="1" chord="0"/>
          <arpeggiator arptime_numerator="4" arpmiss="0" arpcycle="0" arpgate="100" arp="0" arpskip="0" arprange="1" arptime_denominator="4" arptime_syncmode="0" arpmode="0" arpdir="0" arp-enabled="0" arptime="100"/>
          <midiport fixedoutputnote="-1" outputchannel="1" basevelocity="127" outputcontroller="0" inputchannel="0" inputcontroller="0" outputprogram="1" fixedoutputvelocity="-1" readable="0" fixedinputvelocity="-1" writable="0"/>
          <fxchain enabled="1" numofeffects="5">
            <effect on="1" autoquit_numerator="4" gate="0" wet="1" autoquit_syncmode="0" autoquit="8000" autoquit_denominator="4" name="ladspaeffect">
              <ladspacontrols ports="12">
                <port04 data="3.168"/>
                <port05 data="9.9989996"/>
                <port06 data="0.69964999"/>
                <port07 data="180"/>
                <port08 data="4"/>
                <port09 data="212.39999"/>
                <port010 data="2"/>
                <port011 data="1"/>
                <port012 data="99.949997"/>
                <port013 data="2998.5"/>
                <port014 data="0.125"/>
                <port015 data="0.38"/>
              </ladspacontrols>
              <key>
                <attribute value="calf" name="file"/>
                <attribute value="MultiChorus" name="plugin"/>
              </key>
            </effect>
            <effect on="0" autoquit_numerator="4" gate="0" wet="1" autoquit_syncmode="0" autoquit="8000" autoquit_denominator="4" name="ladspaeffect">
              <ladspacontrols ports="7">
                <port00 data="2.8"/>
                <port01 data="90"/>
                <port02 data="100"/>
                <port03 data="0"/>
                <port04 data="20"/>
                <port05 data="0"/>
                <port06 data="0"/>
              </ladspacontrols>
              <key>
                <attribute value="tap_chorusflanger" name="file"/>
                <attribute value="tap_chorusflanger" name="plugin"/>
              </key>
            </effect>
            <effect on="0" autoquit_numerator="4" gate="0" wet="1" autoquit_syncmode="0" autoquit="8000" autoquit_denominator="4" name="ladspaeffect">
              <ladspacontrols ports="4">
                <port02 data="0.50196999"/>
                <port03 data="0.37450001"/>
                <port04 data="0.99949998"/>
                <port05 data="0.25"/>
              </ladspacontrols>
              <key>
                <attribute value="caps" name="file"/>
                <attribute value="Plate2x2" name="plugin"/>
              </key>
            </effect>
            <effect on="1" autoquit_numerator="4" gate="0" wet="1" autoquit_syncmode="0" autoquit="8000" autoquit_denominator="4" name="ladspaeffect">
              <ladspacontrols ports="6" link="1">
                <port00 link="1" data="-1.5"/>
                <port01 link="1" data="1"/>
                <port02 link="1" data="0"/>
                <port10 data="-1.5"/>
                <port11 data="1"/>
                <port12 data="0"/>
              </ladspacontrols>
              <key>
                <attribute value="hard_limiter_1413" name="file"/>
                <attribute value="hardLimiter" name="plugin"/>
              </key>
            </effect>
            <effect on="1" autoquit_numerator="4" gate="0" wet="1" autoquit_syncmode="0" autoquit="1" autoquit_denominator="4" name="eq">
              <Eq LPactive="1" HPres="0.70700002" Outputgain="-16" HPactive="0" Peak2active="0" Highshelfactive="1" Peak2gain="0" Peak4gain="0" LowShelfres="1.4" HighShelfres="1.4" LPres="0.70700002" Peak4active="0" AnalyseOut="1" HP12="1" LP="0" Lowshelfactive="1" Peak1bw="0.30000001" Peak3gain="0" LP24="0" AnalyseIn="1" HighShelfgain="5.2200003" Peak3active="0" LP48="0" HP24="0" HP="0" LP12="1" Lowshelfgain="3.6000001" Peak2bw="0.30000001" Peak3bw="0.30000001" Peak1active="0" HP48="0" Peak4bw="0.30000001">
                <Inputgain scale_type="log" id="213718" value="0"/>
                <Peak1gain scale_type="log" id="5407454" value="0"/>
                <HPfreq scale_type="log" id="2810581" value="31.000004"/>
                <LowShelffreq scale_type="log" id="6317802" value="474.70471"/>
                <Peak1freq scale_type="log" id="4618400" value="119.99998"/>
                <Peak2freq scale_type="log" id="7927906" value="250.00009"/>
                <Peak3freq scale_type="log" id="4005545" value="1999.9996"/>
                <Peak4freq scale_type="log" id="6594114" value="4000.0029"/>
                <Highshelffreq scale_type="log" id="2655515" value="6800.084"/>
                <LPfreq scale_type="log" id="7618554" value="14743.677"/>
              </Eq>
              <key/>
            </effect>
          </fxchain>
        </instrumenttrack>
        <pattern type="1" pos="6144" name="Dirty Reece" steps="16" muted="0">
          <note vol="100" pos="0" key="47" len="24" pan="0"/>
          <note vol="100" pos="24" key="59" len="12" pan="0"/>
          <note vol="100" pos="36" key="47" len="24" pan="0"/>
          <note vol="100" pos="60" key="59" len="12" pan="0"/>
          <note vol="100" pos="72" key="47" len="24" pan="0"/>
          <note vol="100" pos="96" key="47" len="24" pan="0"/>
          <note vol="100" pos="384" key="45" len="24" pan="0"/>
          <note vol="100" pos="408" key="57" len="12" pan="0"/>
          <note vol="100" pos="420" key="45" len="24" pan="0"/>
          <note vol="100" pos="444" key="57" len="12" pan="0"/>
          <note vol="100" pos="456" key="45" len="24" pan="0"/>
          <note vol="100" pos="480" key="45" len="24" pan="0"/>
          <note vol="100" pos="768" key="47" len="24" pan="0"/>
          <note vol="100" pos="792" key="59" len="12" pan="0"/>
          <note vol="100" pos="804" key="47" len="24" pan="0"/>
          <note vol="100" pos="828" key="59" len="12" pan="0"/>
          <note vol="100" pos="840" key="47" len="24" pan="0"/>
          <note vol="100" pos="864" key="47" len="24" pan="0"/>
          <note vol="100" pos="1152" key="45" len="24" pan="0"/>
          <note vol="100" pos="1176" key="57" len="12" pan="0"/>
          <note vol="100" pos="1188" key="45" len="24" pan="0"/>
          <note vol="100" pos="1212" key="57" len="12" pan="0"/>
          <note vol="100" pos="1224" key="45" len="24" pan="0"/>
          <note vol="100" pos="1248" key="45" len="24" pan="0"/>
        </pattern>
        <pattern type="1" pos="0" name="Dirty Reece" steps="16" muted="0">
          <note vol="100" pos="0" key="47" len="24" pan="0"/>
          <note vol="100" pos="24" key="59" len="12" pan="0"/>
          <note vol="100" pos="36" key="47" len="24" pan="0"/>
          <note vol="100" pos="60" key="59" len="12" pan="0"/>
          <note vol="100" pos="72" key="47" len="24" pan="0"/>
          <note vol="100" pos="96" key="59" len="12" pan="0"/>
          <note vol="100" pos="108" key="47" len="24" pan="0"/>
          <note vol="100" pos="132" key="59" len="12" pan="0"/>
          <note vol="100" pos="144" key="45" len="24" pan="0"/>
          <note vol="100" pos="168" key="47" len="24" pan="0"/>
          <note vol="100" pos="192" key="47" len="24" pan="0"/>
          <note vol="100" pos="216" key="59" len="12" pan="0"/>
          <note vol="100" pos="228" key="47" len="24" pan="0"/>
          <note vol="100" pos="252" key="59" len="12" pan="0"/>
          <note vol="100" pos="264" key="47" len="24" pan="0"/>
          <note vol="100" pos="288" key="59" len="12" pan="0"/>
          <note vol="100" pos="300" key="47" len="24" pan="0"/>
          <note vol="100" pos="324" key="59" len="12" pan="0"/>
          <note vol="100" pos="336" key="45" len="24" pan="0"/>
          <note vol="100" pos="360" key="47" len="24" pan="0"/>
          <note vol="100" pos="384" key="47" len="24" pan="0"/>
          <note vol="100" pos="408" key="59" len="12" pan="0"/>
          <note vol="100" pos="420" key="47" len="24" pan="0"/>
          <note vol="100" pos="444" key="59" len="12" pan="0"/>
          <note vol="100" pos="456" key="47" len="24" pan="0"/>
          <note vol="100" pos="480" key="59" len="12" pan="0"/>
          <note vol="100" pos="492" key="47" len="24" pan="0"/>
          <note vol="100" pos="516" key="59" len="12" pan="0"/>
          <note vol="100" pos="528" key="45" len="24" pan="0"/>
          <note vol="100" pos="552" key="47" len="24" pan="0"/>
          <note vol="100" pos="576" key="47" len="24" pan="0"/>
          <note vol="100" pos="600" key="59" len="12" pan="0"/>
          <note vol="100" pos="612" key="47" len="24" pan="0"/>
          <note vol="100" pos="636" key="59" len="12" pan="0"/>
          <note vol="100" pos="648" key="47" len="24" pan="0"/>
          <note vol="100" pos="672" key="59" len="12" pan="0"/>
          <note vol="100" pos="684" key="47" len="24" pan="0"/>
          <note vol="100" pos="708" key="59" len="12" pan="0"/>
          <note vol="100" pos="720" key="45" len="24" pan="0"/>
          <note vol="100" pos="744" key="47" len="24" pan="0"/>
          <note vol="100" pos="768" key="47" len="24" pan="0"/>
          <note vol="100" pos="792" key="59" len="12" pan="0"/>
          <note vol="100" pos="804" key="47" len="24" pan="0"/>
          <note vol="100" pos="828" key="59" len="12" pan="0"/>
          <note vol="100" pos="840" key="47" len="24" pan="0"/>
          <note vol="100" pos="864" key="59" len="12" pan="0"/>
          <note vol="100" pos="876" key="47" len="24" pan="0"/>
          <note vol="100" pos="900" key="59" len="12" pan="0"/>
          <note vol="100" pos="912" key="45" len="24" pan="0"/>
          <note vol="100" pos="936" key="47" len="24" pan="0"/>
          <note vol="100" pos="960" key="47" len="24" pan="0"/>
          <note vol="100" pos="984" key="59" len="12" pan="0"/>
          <note vol="100" pos="996" key="47" len="24" pan="0"/>
          <note vol="100" pos="1020" key="59" len="12" pan="0"/>
          <note vol="100" pos="1032" key="47" len="24" pan="0"/>
          <note vol="100" pos="1056" key="59" len="12" pan="0"/>
          <note vol="100" pos="1068" key="47" len="24" pan="0"/>
          <note vol="100" pos="1092" key="59" len="12" pan="0"/>
          <note vol="100" pos="1104" key="45" len="24" pan="0"/>
          <note vol="100" pos="1128" key="47" len="24" pan="0"/>
          <note vol="100" pos="1152" key="47" len="24" pan="0"/>
          <note vol="100" pos="1176" key="59" len="12" pan="0"/>
          <note vol="100" pos="1188" key="47" len="24" pan="0"/>
          <note vol="100" pos="1212" key="59" len="12" pan="0"/>
          <note vol="100" pos="1224" key="47" len="24" pan="0"/>
          <note vol="100" pos="1248" key="59" len="12" pan="0"/>
          <note vol="100" pos="1260" key="47" len="24" pan="0"/>
          <note vol="100" pos="1284" key="59" len="12" pan="0"/>
          <note vol="100" pos="1296" key="45" len="24" pan="0"/>
          <note vol="100" pos="1320" key="47" len="24" pan="0"/>
          <note vol="100" pos="1344" key="47" len="24" pan="0"/>
          <note vol="100" pos="1368" key="59" len="12" pan="0"/>
          <note vol="100" pos="1380" key="47" len="24" pan="0"/>
          <note vol="100" pos="1404" key="59" len="12" pan="0"/>
          <note vol="100" pos="1416" key="47" len="24" pan="0"/>
          <note vol="100" pos="1440" key="59" len="12" pan="0"/>
          <note vol="100" pos="1452" key="47" len="24" pan="0"/>
          <note vol="100" pos="1476" key="59" len="12" pan="0"/>
          <note vol="100" pos="1488" key="45" len="24" pan="0"/>
          <note vol="100" pos="1512" key="47" len="24" pan="0"/>
        </pattern>
        <pattern type="1" pos="1536" name="Dirty Reece" steps="16" muted="0">
          <note vol="100" pos="0" key="47" len="24" pan="0"/>
          <note vol="100" pos="24" key="59" len="12" pan="0"/>
          <note vol="100" pos="36" key="47" len="24" pan="0"/>
          <note vol="100" pos="60" key="59" len="12" pan="0"/>
          <note vol="100" pos="72" key="47" len="24" pan="0"/>
          <note vol="100" pos="96" key="59" len="12" pan="0"/>
          <note vol="100" pos="108" key="47" len="24" pan="0"/>
          <note vol="100" pos="132" key="59" len="12" pan="0"/>
          <note vol="100" pos="144" key="45" len="24" pan="0"/>
          <note vol="100" pos="168" key="47" len="24" pan="0"/>
          <note vol="100" pos="192" key="47" len="24" pan="0"/>
          <note vol="100" pos="216" key="59" len="12" pan="0"/>
          <note vol="100" pos="228" key="47" len="24" pan="0"/>
          <note vol="100" pos="252" key="59" len="12" pan="0"/>
          <note vol="100" pos="264" key="47" len="24" pan="0"/>
          <note vol="100" pos="288" key="59" len="12" pan="0"/>
          <note vol="100" pos="300" key="47" len="24" pan="0"/>
          <note vol="100" pos="324" key="59" len="12" pan="0"/>
          <note vol="100" pos="336" key="45" len="24" pan="0"/>
          <note vol="100" pos="360" key="47" len="24" pan="0"/>
          <note vol="100" pos="384" key="47" len="24" pan="0"/>
          <note vol="100" pos="408" key="59" len="12" pan="0"/>
          <note vol="100" pos="420" key="47" len="24" pan="0"/>
          <note vol="100" pos="444" key="59" len="12" pan="0"/>
          <note vol="100" pos="456" key="47" len="24" pan="0"/>
          <note vol="100" pos="480" key="59" len="12" pan="0"/>
          <note vol="100" pos="492" key="47" len="24" pan="0"/>
          <note vol="100" pos="516" key="59" len="12" pan="0"/>
          <note vol="100" pos="528" key="45" len="24" pan="0"/>
          <note vol="100" pos="552" key="47" len="24" pan="0"/>
          <note vol="100" pos="576" key="47" len="24" pan="0"/>
          <note vol="100" pos="600" key="59" len="12" pan="0"/>
          <note vol="100" pos="612" key="47" len="24" pan="0"/>
          <note vol="100" pos="636" key="59" len="12" pan="0"/>
          <note vol="100" pos="648" key="47" len="24" pan="0"/>
          <note vol="100" pos="672" key="59" len="12" pan="0"/>
          <note vol="100" pos="684" key="47" len="24" pan="0"/>
          <note vol="100" pos="708" key="59" len="12" pan="0"/>
          <note vol="100" pos="720" key="45" len="24" pan="0"/>
          <note vol="100" pos="744" key="47" len="24" pan="0"/>
          <note vol="100" pos="768" key="47" len="24" pan="0"/>
          <note vol="100" pos="792" key="59" len="12" pan="0"/>
          <note vol="100" pos="804" key="47" len="24" pan="0"/>
          <note vol="100" pos="828" key="59" len="12" pan="0"/>
          <note vol="100" pos="840" key="47" len="24" pan="0"/>
          <note vol="100" pos="864" key="59" len="12" pan="0"/>
          <note vol="100" pos="876" key="47" len="24" pan="0"/>
          <note vol="100" pos="900" key="59" len="12" pan="0"/>
          <note vol="100" pos="912" key="45" len="24" pan="0"/>
          <note vol="100" pos="936" key="47" len="24" pan="0"/>
          <note vol="100" pos="960" key="47" len="24" pan="0"/>
          <note vol="100" pos="984" key="59" len="12" pan="0"/>
          <note vol="100" pos="996" key="47" len="24" pan="0"/>
          <note vol="100" pos="1020" key="59" len="12" pan="0"/>
          <note vol="100" pos="1032" key="47" len="24" pan="0"/>
          <note vol="100" pos="1056" key="59" len="12" pan="0"/>
          <note vol="100" pos="1068" key="47" len="24" pan="0"/>
          <note vol="100" pos="1092" key="59" len="12" pan="0"/>
          <note vol="100" pos="1104" key="45" len="24" pan="0"/>
          <note vol="100" pos="1128" key="47" len="24" pan="0"/>
          <note vol="100" pos="1152" key="47" len="24" pan="0"/>
          <note vol="100" pos="1176" key="59" len="12" pan="0"/>
          <note vol="100" pos="1188" key="47" len="24" pan="0"/>
          <note vol="100" pos="1212" key="59" len="12" pan="0"/>
          <note vol="100" pos="1224" key="47" len="24" pan="0"/>
          <note vol="100" pos="1248" key="59" len="12" pan="0"/>
          <note vol="100" pos="1260" key="47" len="24" pan="0"/>
          <note vol="100" pos="1284" key="59" len="12" pan="0"/>
          <note vol="100" pos="1296" key="45" len="24" pan="0"/>
          <note vol="100" pos="1320" key="47" len="24" pan="0"/>
          <note vol="100" pos="1344" key="47" len="24" pan="0"/>
          <note vol="100" pos="1368" key="59" len="12" pan="0"/>
          <note vol="100" pos="1380" key="47" len="24" pan="0"/>
          <note vol="100" pos="1404" key="59" len="12" pan="0"/>
          <note vol="100" pos="1416" key="47" len="24" pan="0"/>
          <note vol="100" pos="1440" key="59" len="12" pan="0"/>
          <note vol="100" pos="1452" key="47" len="24" pan="0"/>
          <note vol="100" pos="1476" key="59" len="12" pan="0"/>
          <note vol="100" pos="1488" key="45" len="24" pan="0"/>
          <note vol="100" pos="1512" key="47" len="24" pan="0"/>
        </pattern>
        <pattern type="1" pos="7680" name="Dirty Reece" steps="16" muted="0">
          <note vol="100" pos="0" key="47" len="24" pan="0"/>
          <note vol="100" pos="24" key="59" len="12" pan="0"/>
          <note vol="100" pos="36" key="47" len="24" pan="0"/>
          <note vol="100" pos="60" key="59" len="12" pan="0"/>
          <note vol="100" pos="72" key="47" len="24" pan="0"/>
          <note vol="100" pos="96" key="59" len="12" pan="0"/>
          <note vol="100" pos="108" key="47" len="24" pan="0"/>
          <note vol="100" pos="132" key="59" len="12" pan="0"/>
          <note vol="100" pos="144" key="45" len="24" pan="0"/>
          <note vol="100" pos="168" key="47" len="24" pan="0"/>
          <note vol="100" pos="192" key="47" len="24" pan="0"/>
          <note vol="100" pos="216" key="59" len="12" pan="0"/>
          <note vol="100" pos="228" key="47" len="24" pan="0"/>
          <note vol="100" pos="252" key="59" len="12" pan="0"/>
          <note vol="100" pos="264" key="47" len="24" pan="0"/>
          <note vol="100" pos="288" key="59" len="12" pan="0"/>
          <note vol="100" pos="300" key="47" len="24" pan="0"/>
          <note vol="100" pos="324" key="59" len="12" pan="0"/>
          <note vol="100" pos="336" key="45" len="24" pan="0"/>
          <note vol="100" pos="360" key="47" len="24" pan="0"/>
          <note vol="100" pos="384" key="47" len="24" pan="0"/>
          <note vol="100" pos="408" key="59" len="12" pan="0"/>
          <note vol="100" pos="420" key="47" len="24" pan="0"/>
          <note vol="100" pos="444" key="59" len="12" pan="0"/>
          <note vol="100" pos="456" key="47" len="24" pan="0"/>
          <note vol="100" pos="480" key="59" len="12" pan="0"/>
          <note vol="100" pos="492" key="47" len="24" pan="0"/>
          <note vol="100" pos="516" key="59" len="12" pan="0"/>
          <note vol="100" pos="528" key="45" len="24" pan="0"/>
          <note vol="100" pos="552" key="47" len="24" pan="0"/>
          <note vol="100" pos="576" key="47" len="24" pan="0"/>
          <note vol="100" pos="600" key="59" len="12" pan="0"/>
          <note vol="100" pos="612" key="47" len="24" pan="0"/>
          <note vol="100" pos="636" key="59" len="12" pan="0"/>
          <note vol="100" pos="648" key="47" len="24" pan="0"/>
          <note vol="100" pos="672" key="59" len="12" pan="0"/>
          <note vol="100" pos="684" key="47" len="24" pan="0"/>
          <note vol="100" pos="708" key="59" len="12" pan="0"/>
          <note vol="100" pos="720" key="45" len="24" pan="0"/>
          <note vol="100" pos="744" key="47" len="24" pan="0"/>
          <note vol="100" pos="768" key="47" len="24" pan="0"/>
          <note vol="100" pos="792" key="59" len="12" pan="0"/>
          <note vol="100" pos="804" key="47" len="24" pan="0"/>
          <note vol="100" pos="828" key="59" len="12" pan="0"/>
          <note vol="100" pos="840" key="47" len="24" pan="0"/>
          <note vol="100" pos="864" key="59" len="12" pan="0"/>
          <note vol="100" pos="876" key="47" len="24" pan="0"/>
          <note vol="100" pos="900" key="59" len="12" pan="0"/>
          <note vol="100" pos="912" key="45" len="24" pan="0"/>
          <note vol="100" pos="936" key="47" len="24" pan="0"/>
          <note vol="100" pos="960" key="47" len="24" pan="0"/>
          <note vol="100" pos="984" key="59" len="12" pan="0"/>
          <note vol="100" pos="996" key="47" len="24" pan="0"/>
          <note vol="100" pos="1020" key="59" len="12" pan="0"/>
          <note vol="100" pos="1032" key="47" len="24" pan="0"/>
          <note vol="100" pos="1056" key="59" len="12" pan="0"/>
          <note vol="100" pos="1068" key="47" len="24" pan="0"/>
          <note vol="100" pos="1092" key="59" len="12" pan="0"/>
          <note vol="100" pos="1104" key="45" len="24" pan="0"/>
          <note vol="100" pos="1128" key="47" len="24" pan="0"/>
          <note vol="100" pos="1152" key="47" len="24" pan="0"/>
          <note vol="100" pos="1176" key="59" len="12" pan="0"/>
          <note vol="100" pos="1188" key="47" len="24" pan="0"/>
          <note vol="100" pos="1212" key="59" len="12" pan="0"/>
          <note vol="100" pos="1224" key="47" len="24" pan="0"/>
          <note vol="100" pos="1248" key="59" len="12" pan="0"/>
          <note vol="100" pos="1260" key="47" len="24" pan="0"/>
          <note vol="100" pos="1284" key="59" len="12" pan="0"/>
          <note vol="100" pos="1296" key="45" len="24" pan="0"/>
          <note vol="100" pos="1320" key="47" len="24" pan="0"/>
          <note vol="100" pos="1344" key="47" len="24" pan="0"/>
          <note vol="100" pos="1368" key="59" len="12" pan="0"/>
          <note vol="100" pos="1380" key="47" len="24" pan="0"/>
          <note vol="100" pos="1404" key="59" len="12" pan="0"/>
          <note vol="100" pos="1416" key="47" len="24" pan="0"/>
          <note vol="100" pos="1440" key="59" len="12" pan="0"/>
          <note vol="100" pos="1452" key="47" len="24" pan="0"/>
          <note vol="100" pos="1476" key="59" len="12" pan="0"/>
          <note vol="100" pos="1488" key="45" len="24" pan="0"/>
          <note vol="100" pos="1512" key="47" len="24" pan="0"/>
        </pattern>
        <pattern type="1" pos="9216" name="Dirty Reece" steps="16" muted="0">
          <note vol="100" pos="0" key="47" len="24" pan="0"/>
          <note vol="100" pos="24" key="59" len="12" pan="0"/>
          <note vol="100" pos="36" key="47" len="24" pan="0"/>
          <note vol="100" pos="60" key="59" len="12" pan="0"/>
          <note vol="100" pos="72" key="47" len="24" pan="0"/>
          <note vol="100" pos="96" key="59" len="12" pan="0"/>
          <note vol="100" pos="108" key="47" len="24" pan="0"/>
          <note vol="100" pos="132" key="59" len="12" pan="0"/>
          <note vol="100" pos="144" key="45" len="24" pan="0"/>
          <note vol="100" pos="168" key="47" len="24" pan="0"/>
          <note vol="100" pos="192" key="47" len="24" pan="0"/>
          <note vol="100" pos="216" key="59" len="12" pan="0"/>
          <note vol="100" pos="228" key="47" len="24" pan="0"/>
          <note vol="100" pos="252" key="59" len="12" pan="0"/>
          <note vol="100" pos="264" key="47" len="24" pan="0"/>
          <note vol="100" pos="288" key="59" len="12" pan="0"/>
          <note vol="100" pos="300" key="47" len="24" pan="0"/>
          <note vol="100" pos="324" key="59" len="12" pan="0"/>
          <note vol="100" pos="336" key="45" len="24" pan="0"/>
          <note vol="100" pos="360" key="47" len="24" pan="0"/>
          <note vol="100" pos="384" key="47" len="24" pan="0"/>
          <note vol="100" pos="408" key="59" len="12" pan="0"/>
          <note vol="100" pos="420" key="47" len="24" pan="0"/>
          <note vol="100" pos="444" key="59" len="12" pan="0"/>
          <note vol="100" pos="456" key="47" len="24" pan="0"/>
          <note vol="100" pos="480" key="59" len="12" pan="0"/>
          <note vol="100" pos="492" key="47" len="24" pan="0"/>
          <note vol="100" pos="516" key="59" len="12" pan="0"/>
          <note vol="100" pos="528" key="45" len="24" pan="0"/>
          <note vol="100" pos="552" key="47" len="24" pan="0"/>
          <note vol="100" pos="576" key="47" len="24" pan="0"/>
          <note vol="100" pos="600" key="59" len="12" pan="0"/>
          <note vol="100" pos="612" key="47" len="24" pan="0"/>
          <note vol="100" pos="636" key="59" len="12" pan="0"/>
          <note vol="100" pos="648" key="47" len="24" pan="0"/>
          <note vol="100" pos="672" key="59" len="12" pan="0"/>
          <note vol="100" pos="684" key="47" len="24" pan="0"/>
          <note vol="100" pos="708" key="59" len="12" pan="0"/>
          <note vol="100" pos="720" key="45" len="24" pan="0"/>
          <note vol="100" pos="744" key="47" len="24" pan="0"/>
          <note vol="100" pos="768" key="47" len="24" pan="0"/>
          <note vol="100" pos="792" key="59" len="12" pan="0"/>
          <note vol="100" pos="804" key="47" len="24" pan="0"/>
          <note vol="100" pos="828" key="59" len="12" pan="0"/>
          <note vol="100" pos="840" key="47" len="24" pan="0"/>
          <note vol="100" pos="864" key="59" len="12" pan="0"/>
          <note vol="100" pos="876" key="47" len="24" pan="0"/>
          <note vol="100" pos="900" key="59" len="12" pan="0"/>
          <note vol="100" pos="912" key="45" len="24" pan="0"/>
          <note vol="100" pos="936" key="47" len="24" pan="0"/>
          <note vol="100" pos="960" key="47" len="24" pan="0"/>
          <note vol="100" pos="984" key="59" len="12" pan="0"/>
          <note vol="100" pos="996" key="47" len="24" pan="0"/>
          <note vol="100" pos="1020" key="59" len="12" pan="0"/>
          <note vol="100" pos="1032" key="47" len="24" pan="0"/>
          <note vol="100" pos="1056" key="59" len="12" pan="0"/>
          <note vol="100" pos="1068" key="47" len="24" pan="0"/>
          <note vol="100" pos="1092" key="59" len="12" pan="0"/>
          <note vol="100" pos="1104" key="45" len="24" pan="0"/>
          <note vol="100" pos="1128" key="47" len="24" pan="0"/>
          <note vol="100" pos="1152" key="47" len="24" pan="0"/>
          <note vol="100" pos="1176" key="59" len="12" pan="0"/>
          <note vol="100" pos="1188" key="47" len="24" pan="0"/>
          <note vol="100" pos="1212" key="59" len="12" pan="0"/>
          <note vol="100" pos="1224" key="47" len="24" pan="0"/>
          <note vol="100" pos="1248" key="59" len="12" pan="0"/>
          <note vol="100" pos="1260" key="47" len="24" pan="0"/>
          <note vol="100" pos="1284" key="59" len="12" pan="0"/>
          <note vol="100" pos="1296" key="45" len="24" pan="0"/>
          <note vol="100" pos="1320" key="47" len="24" pan="0"/>
          <note vol="100" pos="1344" key="47" len="24" pan="0"/>
          <note vol="100" pos="1368" key="59" len="12" pan="0"/>
          <note vol="100" pos="1380" key="47" len="24" pan="0"/>
          <note vol="100" pos="1404" key="59" len="12" pan="0"/>
          <note vol="100" pos="1416" key="47" len="24" pan="0"/>
          <note vol="100" pos="1440" key="59" len="12" pan="0"/>
          <note vol="100" pos="1452" key="47" len="24" pan="0"/>
          <note vol="100" pos="1476" key="59" len="12" pan="0"/>
          <note vol="100" pos="1488" key="45" len="24" pan="0"/>
          <note vol="100" pos="1512" key="47" len="24" pan="0"/>
        </pattern>
        <pattern type="1" pos="11520" name="Dirty Reece" steps="16" muted="0">
          <note vol="100" pos="0" key="47" len="24" pan="0"/>
          <note vol="100" pos="24" key="59" len="12" pan="0"/>
          <note vol="100" pos="36" key="47" len="24" pan="0"/>
          <note vol="100" pos="60" key="59" len="12" pan="0"/>
          <note vol="100" pos="72" key="47" len="24" pan="0"/>
          <note vol="100" pos="96" key="59" len="12" pan="0"/>
          <note vol="100" pos="108" key="47" len="24" pan="0"/>
          <note vol="100" pos="132" key="59" len="12" pan="0"/>
          <note vol="100" pos="144" key="45" len="24" pan="0"/>
          <note vol="100" pos="168" key="47" len="24" pan="0"/>
          <note vol="100" pos="192" key="47" len="24" pan="0"/>
          <note vol="100" pos="216" key="59" len="12" pan="0"/>
          <note vol="100" pos="228" key="47" len="24" pan="0"/>
          <note vol="100" pos="252" key="59" len="12" pan="0"/>
          <note vol="100" pos="264" key="47" len="24" pan="0"/>
          <note vol="100" pos="288" key="59" len="12" pan="0"/>
          <note vol="100" pos="300" key="47" len="24" pan="0"/>
          <note vol="100" pos="324" key="59" len="12" pan="0"/>
          <note vol="100" pos="336" key="45" len="24" pan="0"/>
          <note vol="100" pos="360" key="47" len="24" pan="0"/>
          <note vol="100" pos="384" key="47" len="24" pan="0"/>
          <note vol="100" pos="408" key="59" len="12" pan="0"/>
          <note vol="100" pos="420" key="47" len="24" pan="0"/>
          <note vol="100" pos="444" key="59" len="12" pan="0"/>
          <note vol="100" pos="456" key="47" len="24" pan="0"/>
          <note vol="100" pos="480" key="59" len="12" pan="0"/>
          <note vol="100" pos="492" key="47" len="24" pan="0"/>
          <note vol="100" pos="516" key="59" len="12" pan="0"/>
          <note vol="100" pos="528" key="45" len="24" pan="0"/>
          <note vol="100" pos="552" key="47" len="24" pan="0"/>
          <note vol="100" pos="576" key="47" len="24" pan="0"/>
          <note vol="100" pos="600" key="59" len="12" pan="0"/>
          <note vol="100" pos="612" key="47" len="24" pan="0"/>
          <note vol="100" pos="636" key="59" len="12" pan="0"/>
          <note vol="100" pos="648" key="47" len="24" pan="0"/>
          <note vol="100" pos="672" key="59" len="12" pan="0"/>
          <note vol="100" pos="684" key="47" len="24" pan="0"/>
          <note vol="100" pos="708" key="59" len="12" pan="0"/>
          <note vol="100" pos="720" key="45" len="24" pan="0"/>
          <note vol="100" pos="744" key="47" len="24" pan="0"/>
        </pattern>
        <pattern type="1" pos="3072" name="Dirty Reece" steps="16" muted="0">
          <note vol="100" pos="0" key="47" len="24" pan="0"/>
          <note vol="100" pos="24" key="59" len="12" pan="0"/>
          <note vol="100" pos="36" key="47" len="24" pan="0"/>
          <note vol="100" pos="60" key="59" len="12" pan="0"/>
          <note vol="100" pos="72" key="47" len="24" pan="0"/>
          <note vol="100" pos="96" key="59" len="12" pan="0"/>
          <note vol="100" pos="108" key="47" len="24" pan="0"/>
          <note vol="100" pos="132" key="59" len="12" pan="0"/>
          <note vol="100" pos="144" key="45" len="24" pan="0"/>
          <note vol="100" pos="168" key="47" len="24" pan="0"/>
          <note vol="100" pos="192" key="47" len="24" pan="0"/>
          <note vol="100" pos="216" key="59" len="12" pan="0"/>
          <note vol="100" pos="228" key="47" len="24" pan="0"/>
          <note vol="100" pos="252" key="59" len="12" pan="0"/>
          <note vol="100" pos="264" key="47" len="24" pan="0"/>
          <note vol="100" pos="288" key="59" len="12" pan="0"/>
          <note vol="100" pos="300" key="47" len="24" pan="0"/>
          <note vol="100" pos="324" key="59" len="12" pan="0"/>
          <note vol="100" pos="336" key="45" len="24" pan="0"/>
          <note vol="100" pos="360" key="47" len="24" pan="0"/>
          <note vol="100" pos="384" key="47" len="24" pan="0"/>
          <note vol="100" pos="408" key="59" len="12" pan="0"/>
          <note vol="100" pos="420" key="47" len="24" pan="0"/>
          <note vol="100" pos="444" key="59" len="12" pan="0"/>
          <note vol="100" pos="456" key="47" len="24" pan="0"/>
          <note vol="100" pos="480" key="59" len="12" pan="0"/>
          <note vol="100" pos="492" key="47" len="24" pan="0"/>
          <note vol="100" pos="516" key="59" len="12" pan="0"/>
          <note vol="100" pos="528" key="45" len="24" pan="0"/>
          <note vol="100" pos="552" key="47" len="24" pan="0"/>
          <note vol="100" pos="576" key="47" len="24" pan="0"/>
          <note vol="100" pos="600" key="59" len="12" pan="0"/>
          <note vol="100" pos="612" key="47" len="24" pan="0"/>
          <note vol="100" pos="636" key="59" len="12" pan="0"/>
          <note vol="100" pos="648" key="47" len="24" pan="0"/>
          <note vol="100" pos="672" key="59" len="12" pan="0"/>
          <note vol="100" pos="684" key="47" len="24" pan="0"/>
          <note vol="100" pos="708" key="59" len="12" pan="0"/>
          <note vol="100" pos="720" key="45" len="24" pan="0"/>
          <note vol="100" pos="744" key="47" len="24" pan="0"/>
          <note vol="100" pos="768" key="47" len="24" pan="0"/>
          <note vol="100" pos="792" key="59" len="12" pan="0"/>
          <note vol="100" pos="804" key="47" len="24" pan="0"/>
          <note vol="100" pos="828" key="59" len="12" pan="0"/>
          <note vol="100" pos="840" key="47" len="24" pan="0"/>
          <note vol="100" pos="864" key="59" len="12" pan="0"/>
          <note vol="100" pos="876" key="47" len="24" pan="0"/>
          <note vol="100" pos="900" key="59" len="12" pan="0"/>
          <note vol="100" pos="912" key="45" len="24" pan="0"/>
          <note vol="100" pos="936" key="47" len="24" pan="0"/>
          <note vol="100" pos="960" key="47" len="24" pan="0"/>
          <note vol="100" pos="984" key="59" len="12" pan="0"/>
          <note vol="100" pos="996" key="47" len="24" pan="0"/>
          <note vol="100" pos="1020" key="59" len="12" pan="0"/>
          <note vol="100" pos="1032" key="47" len="24" pan="0"/>
          <note vol="100" pos="1056" key="59" len="12" pan="0"/>
          <note vol="100" pos="1068" key="47" len="24" pan="0"/>
          <note vol="100" pos="1092" key="59" len="12" pan="0"/>
          <note vol="100" pos="1104" key="45" len="24" pan="0"/>
          <note vol="100" pos="1128" key="47" len="24" pan="0"/>
          <note vol="100" pos="1152" key="47" len="24" pan="0"/>
          <note vol="100" pos="1176" key="59" len="12" pan="0"/>
          <note vol="100" pos="1188" key="47" len="24" pan="0"/>
          <note vol="100" pos="1212" key="59" len="12" pan="0"/>
          <note vol="100" pos="1224" key="47" len="24" pan="0"/>
          <note vol="100" pos="1248" key="59" len="12" pan="0"/>
          <note vol="100" pos="1260" key="47" len="24" pan="0"/>
          <note vol="100" pos="1284" key="59" len="12" pan="0"/>
          <note vol="100" pos="1296" key="45" len="24" pan="0"/>
          <note vol="100" pos="1320" key="47" len="24" pan="0"/>
          <note vol="100" pos="1344" key="47" len="24" pan="0"/>
          <note vol="100" pos="1368" key="59" len="12" pan="0"/>
          <note vol="100" pos="1380" key="47" len="24" pan="0"/>
          <note vol="100" pos="1404" key="59" len="12" pan="0"/>
          <note vol="100" pos="1416" key="47" len="24" pan="0"/>
          <note vol="100" pos="1440" key="59" len="12" pan="0"/>
          <note vol="100" pos="1452" key="47" len="24" pan="0"/>
          <note vol="100" pos="1476" key="59" len="12" pan="0"/>
          <note vol="100" pos="1488" key="45" len="24" pan="0"/>
          <note vol="100" pos="1512" key="47" len="24" pan="0"/>
        </pattern>
      </track>
      <track type="0" name="Fuzzy Analog Bass" muted="0" solo="0">
        <instrumenttrack vol="100" pitch="0" pitchrange="1" usemasterpitch="1" pan="0" fxch="2" basenote="69">
          <instrument name="tripleoscillator">
            <tripleoscillator modalgo3="0" pan0="0" wavetype1="2" userwavefile0="samples/empty.wav" wavetype2="4" stphdetun1="0" userwavefile2="samples/empty.wav" coarse0="-12" modalgo2="2" pan2="0" finel0="0" phoffset0="101" stphdetun0="247" wavetype0="5" pan1="0" finel2="0" vol0="100" finer1="0" stphdetun2="120" finel1="0" finer2="0" finer0="0" coarse2="0" vol2="100" modalgo1="2" vol1="100" phoffset1="0" userwavefile1="samples/empty.wav" phoffset2="0" coarse1="0"/>
          </instrument>
          <eldata fres="0.5" ftype="0" fcut="2839" fwet="1">
            <elvol lspd_denominator="1" amt="1" sustain="0.296" lshp="0" x100="0" lspd="0.091700003" hold="0" lpdel="0" dec="0.28099999" lamt="0" userwavefile="" att="0" ctlenvamt="0" latt="0" lspd_numerator="1" rel="0.23899999" lspd_syncmode="0" pdel="0"/>
            <elcut lspd_denominator="1" amt="1" sustain="0" lshp="0" x100="0" lspd="0.7263" hold="0" lpdel="0" dec="0.16500001" lamt="0.82999998" userwavefile="" att="0" ctlenvamt="0" latt="0" lspd_numerator="1" rel="0.1" lspd_syncmode="0" pdel="0"/>
            <elres lspd_denominator="1" amt="0" sustain="0.5" lshp="1" x100="0" lspd="1" hold="0" lpdel="0" dec="0.5" lamt="0" userwavefile="" att="0" ctlenvamt="0" latt="0" lspd_numerator="1" rel="0.1" lspd_syncmode="0" pdel="0"/>
          </eldata>
          <chordcreator chord-enabled="1" chordrange="1" chord="0"/>
          <arpeggiator arptime_numerator="1" arpmiss="0" arpcycle="0" arpgate="100" arp="0" arpskip="0" arprange="3" arptime_denominator="1" arptime_syncmode="0" arpmode="0" arpdir="0" arp-enabled="0" arptime="100"/>
          <midiport fixedoutputnote="-1" outputchannel="1" basevelocity="127" outputcontroller="0" inputchannel="0" inputcontroller="0" outputprogram="1" fixedoutputvelocity="-1" readable="0" fixedinputvelocity="-1" writable="0"/>
          <fxchain enabled="1" numofeffects="3">
            <effect on="1" autoquit_numerator="4" gate="0" wet="1" autoquit_syncmode="0" autoquit="1" autoquit_denominator="4" name="eq">
              <Eq LPactive="0" HPres="0.70700002" Outputgain="-5" HPactive="0" Peak2active="0" Highshelfactive="0" Peak2gain="0" Peak4gain="0" LowShelfres="1.4" HighShelfres="1.4" LPres="0.70700002" Peak4active="0" AnalyseOut="1" HP12="1" LP="0" Lowshelfactive="0" Peak1bw="0.30000001" Peak3gain="0" LP24="0" AnalyseIn="1" HighShelfgain="0" Peak3active="0" LP48="0" HP24="0" HP="0" LP12="1" Lowshelfgain="0" Peak2bw="0.30000001" Peak3bw="0.30000001" Peak1active="0" HP48="0" Peak4bw="0.30000001">
                <Inputgain scale_type="log" id="5470521" value="0"/>
                <Peak1gain scale_type="log" id="1732391" value="0"/>
                <HPfreq scale_type="log" id="5951935" value="31"/>
                <LowShelffreq scale_type="log" id="3428633" value="80"/>
                <Peak1freq scale_type="log" id="4550624" value="120"/>
                <Peak2freq scale_type="log" id="5649628" value="250"/>
                <Peak3freq scale_type="log" id="6909359" value="2000"/>
                <Peak4freq scale_type="log" id="3697712" value="4000"/>
                <Highshelffreq scale_type="log" id="3760942" value="12000"/>
                <LPfreq scale_type="log" id="691002" value="18000"/>
              </Eq>
              <key/>
            </effect>
            <effect on="1" autoquit_numerator="4" gate="0" wet="1" autoquit_syncmode="0" autoquit="1" autoquit_denominator="4" name="ladspaeffect">
              <ladspacontrols ports="4">
                <port02 data="0.50200003"/>
                <port03 data="0.37450001"/>
                <port04 data="0.250375"/>
                <port05 data="0.25"/>
              </ladspacontrols>
              <key>
                <attribute value="caps" name="file"/>
                <attribute value="Plate2x2" name="plugin"/>
              </key>
            </effect>
            <effect on="1" autoquit_numerator="4" gate="0" wet="1" autoquit_syncmode="0" autoquit="1" autoquit_denominator="4" name="ladspaeffect">
              <ladspacontrols ports="10">
                <port00 data="10"/>
                <port01 data="0"/>
                <port02 data="12"/>
                <port03 data="0"/>
                <port04 data="-6"/>
                <port05 data="-6"/>
                <port06 data="0"/>
                <port07 data="0"/>
                <port08 data="1"/>
                <port09 data="0"/>
              </ladspacontrols>
              <key>
                <attribute value="tap_echo" name="file"/>
                <attribute value="tap_stereo_echo" name="plugin"/>
              </key>
            </effect>
          </fxchain>
        </instrumenttrack>
        <pattern type="1" pos="4608" name="Fuzzy Analog Bass" steps="16" muted="0">
          <note vol="100" pos="0" key="47" len="24" pan="0"/>
          <note vol="100" pos="24" key="47" len="12" pan="0"/>
          <note vol="100" pos="36" key="47" len="24" pan="0"/>
          <note vol="100" pos="60" key="47" len="12" pan="0"/>
          <note vol="100" pos="72" key="47" len="24" pan="0"/>
          <note vol="100" pos="96" key="47" len="12" pan="0"/>
          <note vol="100" pos="108" key="47" len="24" pan="0"/>
          <note vol="100" pos="132" key="47" len="12" pan="0"/>
          <note vol="100" pos="144" key="45" len="24" pan="0"/>
          <note vol="100" pos="168" key="47" len="24" pan="0"/>
          <note vol="100" pos="192" key="47" len="24" pan="0"/>
          <note vol="100" pos="216" key="47" len="12" pan="0"/>
          <note vol="100" pos="228" key="47" len="24" pan="0"/>
          <note vol="100" pos="252" key="47" len="12" pan="0"/>
          <note vol="100" pos="264" key="47" len="24" pan="0"/>
          <note vol="100" pos="288" key="47" len="12" pan="0"/>
          <note vol="100" pos="300" key="47" len="24" pan="0"/>
          <note vol="100" pos="324" key="47" len="12" pan="0"/>
          <note vol="100" pos="336" key="45" len="24" pan="0"/>
          <note vol="100" pos="360" key="47" len="24" pan="0"/>
          <note vol="100" pos="384" key="47" len="24" pan="0"/>
          <note vol="100" pos="408" key="47" len="12" pan="0"/>
          <note vol="100" pos="420" key="47" len="24" pan="0"/>
          <note vol="100" pos="444" key="47" len="12" pan="0"/>
          <note vol="100" pos="456" key="47" len="24" pan="0"/>
          <note vol="100" pos="480" key="47" len="12" pan="0"/>
          <note vol="100" pos="492" key="47" len="24" pan="0"/>
          <note vol="100" pos="516" key="47" len="12" pan="0"/>
          <note vol="100" pos="528" key="45" len="24" pan="0"/>
          <note vol="100" pos="552" key="47" len="24" pan="0"/>
          <note vol="100" pos="576" key="47" len="24" pan="0"/>
          <note vol="100" pos="600" key="47" len="12" pan="0"/>
          <note vol="100" pos="612" key="47" len="24" pan="0"/>
          <note vol="100" pos="636" key="47" len="12" pan="0"/>
          <note vol="100" pos="648" key="47" len="24" pan="0"/>
          <note vol="100" pos="672" key="47" len="12" pan="0"/>
          <note vol="100" pos="684" key="47" len="24" pan="0"/>
          <note vol="100" pos="708" key="47" len="12" pan="0"/>
          <note vol="100" pos="720" key="45" len="24" pan="0"/>
          <note vol="100" pos="744" key="47" len="24" pan="0"/>
          <note vol="100" pos="768" key="47" len="24" pan="0"/>
          <note vol="100" pos="792" key="47" len="12" pan="0"/>
          <note vol="100" pos="804" key="47" len="24" pan="0"/>
          <note vol="100" pos="828" key="47" len="12" pan="0"/>
          <note vol="100" pos="840" key="47" len="24" pan="0"/>
          <note vol="100" pos="864" key="47" len="12" pan="0"/>
          <note vol="100" pos="876" key="47" len="24" pan="0"/>
          <note vol="100" pos="900" key="47" len="12" pan="0"/>
          <note vol="100" pos="912" key="45" len="24" pan="0"/>
          <note vol="100" pos="936" key="47" len="24" pan="0"/>
          <note vol="100" pos="960" key="47" len="24" pan="0"/>
          <note vol="100" pos="984" key="47" len="12" pan="0"/>
          <note vol="100" pos="996" key="47" len="24" pan="0"/>
          <note vol="100" pos="1020" key="47" len="12" pan="0"/>
          <note vol="100" pos="1032" key="47" len="24" pan="0"/>
          <note vol="100" pos="1056" key="47" len="12" pan="0"/>
          <note vol="100" pos="1068" key="47" len="24" pan="0"/>
          <note vol="100" pos="1092" key="47" len="12" pan="0"/>
          <note vol="100" pos="1104" key="45" len="24" pan="0"/>
          <note vol="100" pos="1128" key="47" len="24" pan="0"/>
          <note vol="100" pos="1152" key="47" len="24" pan="0"/>
          <note vol="100" pos="1176" key="47" len="12" pan="0"/>
          <note vol="100" pos="1188" key="47" len="24" pan="0"/>
          <note vol="100" pos="1212" key="47" len="12" pan="0"/>
          <note vol="100" pos="1224" key="47" len="24" pan="0"/>
          <note vol="100" pos="1248" key="47" len="12" pan="0"/>
          <note vol="100" pos="1260" key="47" len="24" pan="0"/>
          <note vol="100" pos="1284" key="47" len="12" pan="0"/>
          <note vol="100" pos="1296" key="45" len="24" pan="0"/>
          <note vol="100" pos="1320" key="47" len="24" pan="0"/>
          <note vol="100" pos="1344" key="47" len="24" pan="0"/>
          <note vol="100" pos="1368" key="47" len="12" pan="0"/>
          <note vol="100" pos="1380" key="47" len="24" pan="0"/>
          <note vol="100" pos="1404" key="47" len="12" pan="0"/>
          <note vol="100" pos="1416" key="47" len="24" pan="0"/>
          <note vol="100" pos="1440" key="47" len="12" pan="0"/>
          <note vol="100" pos="1452" key="47" len="24" pan="0"/>
          <note vol="100" pos="1476" key="47" len="12" pan="0"/>
          <note vol="100" pos="1488" key="45" len="24" pan="0"/>
          <note vol="100" pos="1512" key="47" len="24" pan="0"/>
        </pattern>
        <pattern type="1" pos="6144" name="Fuzzy Analog Bass" steps="16" muted="0">
          <note vol="100" pos="0" key="47" len="24" pan="0"/>
          <note vol="100" pos="24" key="47" len="12" pan="0"/>
          <note vol="100" pos="36" key="47" len="24" pan="0"/>
          <note vol="100" pos="60" key="47" len="12" pan="0"/>
          <note vol="100" pos="72" key="47" len="24" pan="0"/>
          <note vol="100" pos="96" key="47" len="12" pan="0"/>
          <note vol="100" pos="108" key="47" len="24" pan="0"/>
          <note vol="100" pos="132" key="47" len="12" pan="0"/>
          <note vol="100" pos="144" key="45" len="24" pan="0"/>
          <note vol="100" pos="168" key="47" len="24" pan="0"/>
          <note vol="100" pos="192" key="47" len="24" pan="0"/>
          <note vol="100" pos="216" key="47" len="12" pan="0"/>
          <note vol="100" pos="228" key="47" len="24" pan="0"/>
          <note vol="100" pos="252" key="47" len="12" pan="0"/>
          <note vol="100" pos="264" key="47" len="24" pan="0"/>
          <note vol="100" pos="288" key="47" len="12" pan="0"/>
          <note vol="100" pos="300" key="47" len="24" pan="0"/>
          <note vol="100" pos="324" key="47" len="12" pan="0"/>
          <note vol="100" pos="336" key="45" len="24" pan="0"/>
          <note vol="100" pos="360" key="47" len="24" pan="0"/>
          <note vol="100" pos="384" key="47" len="24" pan="0"/>
          <note vol="100" pos="408" key="47" len="12" pan="0"/>
          <note vol="100" pos="420" key="47" len="24" pan="0"/>
          <note vol="100" pos="444" key="47" len="12" pan="0"/>
          <note vol="100" pos="456" key="47" len="24" pan="0"/>
          <note vol="100" pos="480" key="47" len="12" pan="0"/>
          <note vol="100" pos="492" key="47" len="24" pan="0"/>
          <note vol="100" pos="516" key="47" len="12" pan="0"/>
          <note vol="100" pos="528" key="45" len="24" pan="0"/>
          <note vol="100" pos="552" key="47" len="24" pan="0"/>
          <note vol="100" pos="576" key="47" len="24" pan="0"/>
          <note vol="100" pos="600" key="47" len="12" pan="0"/>
          <note vol="100" pos="612" key="47" len="24" pan="0"/>
          <note vol="100" pos="636" key="47" len="12" pan="0"/>
          <note vol="100" pos="648" key="47" len="24" pan="0"/>
          <note vol="100" pos="672" key="47" len="12" pan="0"/>
          <note vol="100" pos="684" key="47" len="24" pan="0"/>
          <note vol="100" pos="708" key="47" len="12" pan="0"/>
          <note vol="100" pos="720" key="45" len="24" pan="0"/>
          <note vol="100" pos="744" key="47" len="24" pan="0"/>
          <note vol="100" pos="768" key="47" len="24" pan="0"/>
          <note vol="100" pos="792" key="47" len="12" pan="0"/>
          <note vol="100" pos="804" key="47" len="24" pan="0"/>
          <note vol="100" pos="828" key="47" len="12" pan="0"/>
          <note vol="100" pos="840" key="47" len="24" pan="0"/>
          <note vol="100" pos="864" key="47" len="12" pan="0"/>
          <note vol="100" pos="876" key="47" len="24" pan="0"/>
          <note vol="100" pos="900" key="47" len="12" pan="0"/>
          <note vol="100" pos="912" key="45" len="24" pan="0"/>
          <note vol="100" pos="936" key="47" len="24" pan="0"/>
          <note vol="100" pos="960" key="47" len="24" pan="0"/>
          <note vol="100" pos="984" key="47" len="12" pan="0"/>
          <note vol="100" pos="996" key="47" len="24" pan="0"/>
          <note vol="100" pos="1020" key="47" len="12" pan="0"/>
          <note vol="100" pos="1032" key="47" len="24" pan="0"/>
          <note vol="100" pos="1056" key="47" len="12" pan="0"/>
          <note vol="100" pos="1068" key="47" len="24" pan="0"/>
          <note vol="100" pos="1092" key="47" len="12" pan="0"/>
          <note vol="100" pos="1104" key="45" len="24" pan="0"/>
          <note vol="100" pos="1128" key="47" len="24" pan="0"/>
          <note vol="100" pos="1152" key="47" len="24" pan="0"/>
          <note vol="100" pos="1176" key="47" len="12" pan="0"/>
          <note vol="100" pos="1188" key="47" len="24" pan="0"/>
          <note vol="100" pos="1212" key="47" len="12" pan="0"/>
          <note vol="100" pos="1224" key="47" len="24" pan="0"/>
          <note vol="100" pos="1248" key="47" len="12" pan="0"/>
          <note vol="100" pos="1260" key="47" len="24" pan="0"/>
          <note vol="100" pos="1284" key="47" len="12" pan="0"/>
          <note vol="100" pos="1296" key="45" len="24" pan="0"/>
          <note vol="100" pos="1320" key="47" len="24" pan="0"/>
          <note vol="100" pos="1344" key="47" len="24" pan="0"/>
          <note vol="100" pos="1368" key="47" len="12" pan="0"/>
          <note vol="100" pos="1380" key="47" len="24" pan="0"/>
          <note vol="100" pos="1404" key="47" len="12" pan="0"/>
          <note vol="100" pos="1416" key="47" len="24" pan="0"/>
          <note vol="100" pos="1440" key="47" len="12" pan="0"/>
          <note vol="100" pos="1452" key="47" len="24" pan="0"/>
          <note vol="100" pos="1476" key="47" len="12" pan="0"/>
          <note vol="100" pos="1488" key="45" len="24" pan="0"/>
          <note vol="100" pos="1512" key="47" len="24" pan="0"/>
        </pattern>
        <pattern type="1" pos="7680" name="Fuzzy Analog Bass" steps="16" muted="0">
          <note vol="100" pos="0" key="47" len="24" pan="0"/>
          <note vol="100" pos="24" key="47" len="12" pan="0"/>
          <note vol="100" pos="36" key="47" len="24" pan="0"/>
          <note vol="100" pos="60" key="47" len="12" pan="0"/>
          <note vol="100" pos="72" key="47" len="24" pan="0"/>
          <note vol="100" pos="96" key="47" len="12" pan="0"/>
          <note vol="100" pos="108" key="47" len="24" pan="0"/>
          <note vol="100" pos="132" key="47" len="12" pan="0"/>
          <note vol="100" pos="144" key="45" len="24" pan="0"/>
          <note vol="100" pos="168" key="47" len="24" pan="0"/>
          <note vol="100" pos="192" key="47" len="24" pan="0"/>
          <note vol="100" pos="216" key="47" len="12" pan="0"/>
          <note vol="100" pos="228" key="47" len="24" pan="0"/>
          <note vol="100" pos="252" key="47" len="12" pan="0"/>
          <note vol="100" pos="264" key="47" len="24" pan="0"/>
          <note vol="100" pos="288" key="47" len="12" pan="0"/>
          <note vol="100" pos="300" key="47" len="24" pan="0"/>
          <note vol="100" pos="324" key="47" len="12" pan="0"/>
          <note vol="100" pos="336" key="45" len="24" pan="0"/>
          <note vol="100" pos="360" key="47" len="24" pan="0"/>
          <note vol="100" pos="384" key="47" len="24" pan="0"/>
          <note vol="100" pos="408" key="47" len="12" pan="0"/>
          <note vol="100" pos="420" key="47" len="24" pan="0"/>
          <note vol="100" pos="444" key="47" len="12" pan="0"/>
          <note vol="100" pos="456" key="47" len="24" pan="0"/>
          <note vol="100" pos="480" key="47" len="12" pan="0"/>
          <note vol="100" pos="492" key="47" len="24" pan="0"/>
          <note vol="100" pos="516" key="47" len="12" pan="0"/>
          <note vol="100" pos="528" key="45" len="24" pan="0"/>
          <note vol="100" pos="552" key="47" len="24" pan="0"/>
          <note vol="100" pos="576" key="47" len="24" pan="0"/>
          <note vol="100" pos="600" key="47" len="12" pan="0"/>
          <note vol="100" pos="612" key="47" len="24" pan="0"/>
          <note vol="100" pos="636" key="47" len="12" pan="0"/>
          <note vol="100" pos="648" key="47" len="24" pan="0"/>
          <note vol="100" pos="672" key="47" len="12" pan="0"/>
          <note vol="100" pos="684" key="47" len="24" pan="0"/>
          <note vol="100" pos="708" key="47" len="12" pan="0"/>
          <note vol="100" pos="720" key="45" len="24" pan="0"/>
          <note vol="100" pos="744" key="47" len="24" pan="0"/>
          <note vol="100" pos="768" key="47" len="24" pan="0"/>
          <note vol="100" pos="792" key="47" len="12" pan="0"/>
          <note vol="100" pos="804" key="47" len="24" pan="0"/>
          <note vol="100" pos="828" key="47" len="12" pan="0"/>
          <note vol="100" pos="840" key="47" len="24" pan="0"/>
          <note vol="100" pos="864" key="47" len="12" pan="0"/>
          <note vol="100" pos="876" key="47" len="24" pan="0"/>
          <note vol="100" pos="900" key="47" len="12" pan="0"/>
          <note vol="100" pos="912" key="45" len="24" pan="0"/>
          <note vol="100" pos="936" key="47" len="24" pan="0"/>
          <note vol="100" pos="960" key="47" len="24" pan="0"/>
          <note vol="100" pos="984" key="47" len="12" pan="0"/>
          <note vol="100" pos="996" key="47" len="24" pan="0"/>
          <note vol="100" pos="1020" key="47" len="12" pan="0"/>
          <note vol="100" pos="1032" key="47" len="24" pan="0"/>
          <note vol="100" pos="1056" key="47" len="12" pan="0"/>
          <note vol="100" pos="1068" key="47" len="24" pan="0"/>
          <note vol="100" pos="1092" key="47" len="12" pan="0"/>
          <note vol="100" pos="1104" key="45" len="24" pan="0"/>
          <note vol="100" pos="1128" key="47" len="24" pan="0"/>
          <note vol="100" pos="1152" key="47" len="24" pan="0"/>
          <note vol="100" pos="1176" key="47" len="12" pan="0"/>
          <note vol="100" pos="1188" key="47" len="24" pan="0"/>
          <note vol="100" pos="1212" key="47" len="12" pan="0"/>
          <note vol="100" pos="1224" key="47" len="24" pan="0"/>
          <note vol="100" pos="1248" key="47" len="12" pan="0"/>
          <note vol="100" pos="1260" key="47" len="24" pan="0"/>
          <note vol="100" pos="1284" key="47" len="12" pan="0"/>
          <note vol="100" pos="1296" key="45" len="24" pan="0"/>
          <note vol="100" pos="1320" key="47" len="24" pan="0"/>
          <note vol="100" pos="1344" key="47" len="24" pan="0"/>
          <note vol="100" pos="1368" key="47" len="12" pan="0"/>
          <note vol="100" pos="1380" key="47" len="24" pan="0"/>
          <note vol="100" pos="1404" key="47" len="12" pan="0"/>
          <note vol="100" pos="1416" key="47" len="24" pan="0"/>
          <note vol="100" pos="1440" key="47" len="12" pan="0"/>
          <note vol="100" pos="1452" key="47" len="24" pan="0"/>
          <note vol="100" pos="1476" key="47" len="12" pan="0"/>
          <note vol="100" pos="1488" key="45" len="24" pan="0"/>
          <note vol="100" pos="1512" key="47" len="24" pan="0"/>
        </pattern>
        <pattern type="1" pos="9216" name="Fuzzy Analog Bass" steps="16" muted="0">
          <note vol="100" pos="0" key="47" len="24" pan="0"/>
          <note vol="100" pos="24" key="47" len="12" pan="0"/>
          <note vol="100" pos="36" key="47" len="24" pan="0"/>
          <note vol="100" pos="60" key="47" len="12" pan="0"/>
          <note vol="100" pos="72" key="47" len="24" pan="0"/>
          <note vol="100" pos="96" key="47" len="12" pan="0"/>
          <note vol="100" pos="108" key="47" len="24" pan="0"/>
          <note vol="100" pos="132" key="47" len="12" pan="0"/>
          <note vol="100" pos="144" key="45" len="24" pan="0"/>
          <note vol="100" pos="168" key="47" len="24" pan="0"/>
          <note vol="100" pos="192" key="47" len="24" pan="0"/>
          <note vol="100" pos="216" key="47" len="12" pan="0"/>
          <note vol="100" pos="228" key="47" len="24" pan="0"/>
          <note vol="100" pos="252" key="47" len="12" pan="0"/>
          <note vol="100" pos="264" key="47" len="24" pan="0"/>
          <note vol="100" pos="288" key="47" len="12" pan="0"/>
          <note vol="100" pos="300" key="47" len="24" pan="0"/>
          <note vol="100" pos="324" key="47" len="12" pan="0"/>
          <note vol="100" pos="336" key="45" len="24" pan="0"/>
          <note vol="100" pos="360" key="47" len="24" pan="0"/>
          <note vol="100" pos="384" key="47" len="24" pan="0"/>
          <note vol="100" pos="408" key="47" len="12" pan="0"/>
          <note vol="100" pos="420" key="47" len="24" pan="0"/>
          <note vol="100" pos="444" key="47" len="12" pan="0"/>
          <note vol="100" pos="456" key="47" len="24" pan="0"/>
          <note vol="100" pos="480" key="47" len="12" pan="0"/>
          <note vol="100" pos="492" key="47" len="24" pan="0"/>
          <note vol="100" pos="516" key="47" len="12" pan="0"/>
          <note vol="100" pos="528" key="45" len="24" pan="0"/>
          <note vol="100" pos="552" key="47" len="24" pan="0"/>
          <note vol="100" pos="576" key="47" len="24" pan="0"/>
          <note vol="100" pos="600" key="47" len="12" pan="0"/>
          <note vol="100" pos="612" key="47" len="24" pan="0"/>
          <note vol="100" pos="636" key="47" len="12" pan="0"/>
          <note vol="100" pos="648" key="47" len="24" pan="0"/>
          <note vol="100" pos="672" key="47" len="12" pan="0"/>
          <note vol="100" pos="684" key="47" len="24" pan="0"/>
          <note vol="100" pos="708" key="47" len="12" pan="0"/>
          <note vol="100" pos="720" key="45" len="24" pan="0"/>
          <note vol="100" pos="744" key="47" len="24" pan="0"/>
          <note vol="100" pos="768" key="47" len="24" pan="0"/>
          <note vol="100" pos="792" key="47" len="12" pan="0"/>
          <note vol="100" pos="804" key="47" len="24" pan="0"/>
          <note vol="100" pos="828" key="47" len="12" pan="0"/>
          <note vol="100" pos="840" key="47" len="24" pan="0"/>
          <note vol="100" pos="864" key="47" len="12" pan="0"/>
          <note vol="100" pos="876" key="47" len="24" pan="0"/>
          <note vol="100" pos="900" key="47" len="12" pan="0"/>
          <note vol="100" pos="912" key="45" len="24" pan="0"/>
          <note vol="100" pos="936" key="47" len="24" pan="0"/>
          <note vol="100" pos="960" key="47" len="24" pan="0"/>
          <note vol="100" pos="984" key="47" len="12" pan="0"/>
          <note vol="100" pos="996" key="47" len="24" pan="0"/>
          <note vol="100" pos="1020" key="47" len="12" pan="0"/>
          <note vol="100" pos="1032" key="47" len="24" pan="0"/>
          <note vol="100" pos="1056" key="47" len="12" pan="0"/>
          <note vol="100" pos="1068" key="47" len="24" pan="0"/>
          <note vol="100" pos="1092" key="47" len="12" pan="0"/>
          <note vol="100" pos="1104" key="45" len="24" pan="0"/>
          <note vol="100" pos="1128" key="47" len="24" pan="0"/>
          <note vol="100" pos="1152" key="47" len="24" pan="0"/>
          <note vol="100" pos="1176" key="47" len="12" pan="0"/>
          <note vol="100" pos="1188" key="47" len="24" pan="0"/>
          <note vol="100" pos="1212" key="47" len="12" pan="0"/>
          <note vol="100" pos="1224" key="47" len="24" pan="0"/>
          <note vol="100" pos="1248" key="47" len="12" pan="0"/>
          <note vol="100" pos="1260" key="47" len="24" pan="0"/>
          <note vol="100" pos="1284" key="47" len="12" pan="0"/>
          <note vol="100" pos="1296" key="45" len="24" pan="0"/>
          <note vol="100" pos="1320" key="47" len="24" pan="0"/>
          <note vol="100" pos="1344" key="47" len="24" pan="0"/>
          <note vol="100" pos="1368" key="47" len="12" pan="0"/>
          <note vol="100" pos="1380" key="47" len="24" pan="0"/>
          <note vol="100" pos="1404" key="47" len="12" pan="0"/>
          <note vol="100" pos="1416" key="47" len="24" pan="0"/>
          <note vol="100" pos="1440" key="47" len="12" pan="0"/>
          <note vol="100" pos="1452" key="47" len="24" pan="0"/>
          <note vol="100" pos="1476" key="47" len="12" pan="0"/>
          <note vol="100" pos="1488" key="45" len="24" pan="0"/>
          <note vol="100" pos="1512" key="47" len="24" pan="0"/>
        </pattern>
        <pattern type="1" pos="10752" name="Fuzzy Analog Bass" steps="16" muted="0">
          <note vol="100" pos="0" key="47" len="24" pan="0"/>
          <note vol="100" pos="24" key="47" len="12" pan="0"/>
          <note vol="100" pos="36" key="47" len="24" pan="0"/>
          <note vol="100" pos="60" key="47" len="12" pan="0"/>
          <note vol="100" pos="72" key="47" len="24" pan="0"/>
          <note vol="100" pos="96" key="47" len="12" pan="0"/>
          <note vol="100" pos="108" key="47" len="24" pan="0"/>
          <note vol="100" pos="132" key="47" len="12" pan="0"/>
          <note vol="100" pos="144" key="45" len="24" pan="0"/>
          <note vol="100" pos="168" key="47" len="24" pan="0"/>
          <note vol="100" pos="192" key="47" len="24" pan="0"/>
          <note vol="100" pos="216" key="47" len="12" pan="0"/>
          <note vol="100" pos="228" key="47" len="24" pan="0"/>
          <note vol="100" pos="252" key="47" len="12" pan="0"/>
          <note vol="100" pos="264" key="47" len="24" pan="0"/>
          <note vol="100" pos="288" key="47" len="12" pan="0"/>
          <note vol="100" pos="300" key="47" len="24" pan="0"/>
          <note vol="100" pos="324" key="47" len="12" pan="0"/>
          <note vol="100" pos="336" key="45" len="24" pan="0"/>
          <note vol="100" pos="360" key="47" len="24" pan="0"/>
          <note vol="100" pos="384" key="47" len="24" pan="0"/>
          <note vol="100" pos="408" key="47" len="12" pan="0"/>
          <note vol="100" pos="420" key="47" len="24" pan="0"/>
          <note vol="100" pos="444" key="47" len="12" pan="0"/>
          <note vol="100" pos="456" key="47" len="24" pan="0"/>
          <note vol="100" pos="480" key="47" len="12" pan="0"/>
          <note vol="100" pos="492" key="47" len="24" pan="0"/>
          <note vol="100" pos="516" key="47" len="12" pan="0"/>
          <note vol="100" pos="528" key="45" len="24" pan="0"/>
          <note vol="100" pos="552" key="47" len="24" pan="0"/>
          <note vol="100" pos="576" key="47" len="24" pan="0"/>
          <note vol="100" pos="600" key="47" len="12" pan="0"/>
          <note vol="100" pos="612" key="47" len="24" pan="0"/>
          <note vol="100" pos="636" key="47" len="12" pan="0"/>
          <note vol="100" pos="648" key="47" len="24" pan="0"/>
          <note vol="100" pos="672" key="47" len="12" pan="0"/>
          <note vol="100" pos="684" key="47" len="24" pan="0"/>
          <note vol="100" pos="708" key="47" len="12" pan="0"/>
          <note vol="100" pos="720" key="45" len="24" pan="0"/>
          <note vol="100" pos="744" key="47" len="24" pan="0"/>
          <note vol="100" pos="768" key="47" len="24" pan="0"/>
          <note vol="100" pos="792" key="47" len="12" pan="0"/>
          <note vol="100" pos="804" key="47" len="24" pan="0"/>
          <note vol="100" pos="828" key="47" len="12" pan="0"/>
          <note vol="100" pos="840" key="47" len="24" pan="0"/>
          <note vol="100" pos="864" key="47" len="12" pan="0"/>
          <note vol="100" pos="876" key="47" len="24" pan="0"/>
          <note vol="100" pos="900" key="47" len="12" pan="0"/>
          <note vol="100" pos="912" key="45" len="24" pan="0"/>
          <note vol="100" pos="936" key="47" len="24" pan="0"/>
          <note vol="100" pos="960" key="47" len="24" pan="0"/>
          <note vol="100" pos="984" key="47" len="12" pan="0"/>
          <note vol="100" pos="996" key="47" len="24" pan="0"/>
          <note vol="100" pos="1020" key="47" len="12" pan="0"/>
          <note vol="100" pos="1032" key="47" len="24" pan="0"/>
          <note vol="100" pos="1056" key="47" len="12" pan="0"/>
          <note vol="100" pos="1068" key="47" len="24" pan="0"/>
          <note vol="100" pos="1092" key="47" len="12" pan="0"/>
          <note vol="100" pos="1104" key="45" len="24" pan="0"/>
          <note vol="100" pos="1128" key="47" len="24" pan="0"/>
          <note vol="100" pos="1152" key="47" len="24" pan="0"/>
          <note vol="100" pos="1176" key="47" len="12" pan="0"/>
          <note vol="100" pos="1188" key="47" len="24" pan="0"/>
          <note vol="100" pos="1212" key="47" len="12" pan="0"/>
          <note vol="100" pos="1224" key="47" len="24" pan="0"/>
          <note vol="100" pos="1248" key="47" len="12" pan="0"/>
          <note vol="100" pos="1260" key="47" len="24" pan="0"/>
          <note vol="100" pos="1284" key="47" len="12" pan="0"/>
          <note vol="100" pos="1296" key="45" len="24" pan="0"/>
          <note vol="100" pos="1320" key="47" len="24" pan="0"/>
          <note vol="100" pos="1344" key="47" len="24" pan="0"/>
          <note vol="100" pos="1368" key="47" len="12" pan="0"/>
          <note vol="100" pos="1380" key="47" len="24" pan="0"/>
          <note vol="100" pos="1404" key="47" len="12" pan="0"/>
          <note vol="100" pos="1416" key="47" len="24" pan="0"/>
          <note vol="100" pos="1440" key="47" len="12" pan="0"/>
          <note vol="100" pos="1452" key="47" len="24" pan="0"/>
          <note vol="100" pos="1476" key="47" len="12" pan="0"/>
          <note vol="100" pos="1488" key="45" len="24" pan="0"/>
          <note vol="100" pos="1512" key="47" len="24" pan="0"/>
        </pattern>
      </track>
      <track type="0" name="TINTN" muted="0" solo="0">
        <instrumenttrack vol="65" pitch="0" pitchrange="1" usemasterpitch="1" pan="0" fxch="3" basenote="69">
          <instrument name="tripleoscillator">
            <tripleoscillator modalgo3="2" pan0="0" wavetype1="2" userwavefile0="" wavetype2="1" stphdetun1="0" userwavefile2="" coarse0="0" modalgo2="2" pan2="0" finel0="0" phoffset0="0" stphdetun0="0" wavetype0="4" pan1="0" finel2="4" vol0="33" finer1="12" stphdetun2="0" finel1="-5" finer2="-5" finer0="0" coarse2="0" vol2="33" modalgo1="2" vol1="33" phoffset1="0" userwavefile1="" phoffset2="0" coarse1="0"/>
          </instrument>
          <eldata fres="0.5" ftype="4" fcut="1" fwet="1">
            <elvol lspd_denominator="4" amt="1" sustain="0.69999999" lshp="0" x100="0" lspd="0.1" hold="0" lpdel="0" dec="1" lamt="0" userwavefile="" att="0" ctlenvamt="0" latt="0" lspd_numerator="4" rel="0.1" lspd_syncmode="0" pdel="0"/>
            <elcut lspd_denominator="4" amt="0.88" sustain="0" lshp="0" x100="0" lspd="0.1" hold="0" lpdel="0" dec="0.88" lamt="0" userwavefile="" att="0.44" ctlenvamt="0" latt="0" lspd_numerator="4" rel="0.1" lspd_syncmode="0" pdel="0"/>
            <elres lspd_denominator="4" amt="0" sustain="0.5" lshp="0" x100="0" lspd="0.1" hold="0.5" lpdel="0" dec="0.5" lamt="0" userwavefile="" att="0" ctlenvamt="0" latt="0" lspd_numerator="4" rel="0.1" lspd_syncmode="0" pdel="0"/>
          </eldata>
          <chordcreator chord-enabled="0" chordrange="1" chord="0"/>
          <arpeggiator arptime_numerator="4" arpmiss="0" arpcycle="0" arpgate="100" arp="0" arpskip="0" arprange="1" arptime_denominator="4" arptime_syncmode="0" arpmode="0" arpdir="0" arp-enabled="0" arptime="100"/>
          <midiport fixedoutputnote="-1" outputchannel="1" basevelocity="127" outputcontroller="0" inputchannel="0" inputcontroller="0" outputprogram="1" fixedoutputvelocity="-1" readable="0" fixedinputvelocity="127" writable="0"/>
          <fxchain enabled="1" numofeffects="2">
            <effect on="1" autoquit_numerator="4" gate="0" wet="1" autoquit_syncmode="0" autoquit="8000" autoquit_denominator="4" name="ladspaeffect">
              <ladspacontrols ports="4">
                <port02 data="0.91944999"/>
                <port03 data="0.47936001"/>
                <port04 data="0.46976501"/>
                <port05 data="0.25"/>
              </ladspacontrols>
              <key>
                <attribute value="caps" name="file"/>
                <attribute value="Plate2x2" name="plugin"/>
              </key>
            </effect>
            <effect on="1" autoquit_numerator="4" gate="0" wet="1" autoquit_syncmode="0" autoquit="8000" autoquit_denominator="4" name="ladspaeffect">
              <ladspacontrols ports="10">
                <port02 data="-45.18"/>
                <port03 data="-48"/>
                <port04 data="-45.18"/>
                <port05 data="-48"/>
                <port06 data="0"/>
                <port07 data="0"/>
                <port08 data="0"/>
                <port09 data="0"/>
                <port010 data="0"/>
                <port011 data="0"/>
              </ladspacontrols>
              <key>
                <attribute value="caps" name="file"/>
                <attribute value="Eq2x2" name="plugin"/>
              </key>
            </effect>
          </fxchain>
        </instrumenttrack>
        <pattern type="1" pos="9216" name="" steps="16" muted="0">
          <note vol="100" pos="0" key="59" len="24" pan="0"/>
          <note vol="100" pos="24" key="59" len="12" pan="0"/>
          <note vol="100" pos="36" key="59" len="24" pan="0"/>
          <note vol="100" pos="60" key="59" len="12" pan="0"/>
          <note vol="100" pos="72" key="59" len="24" pan="0"/>
          <note vol="100" pos="96" key="59" len="12" pan="0"/>
          <note vol="100" pos="108" key="59" len="24" pan="0"/>
          <note vol="100" pos="132" key="59" len="12" pan="0"/>
          <note vol="100" pos="144" key="57" len="24" pan="0"/>
          <note vol="100" pos="168" key="59" len="24" pan="0"/>
          <note vol="100" pos="192" key="59" len="24" pan="0"/>
          <note vol="100" pos="216" key="59" len="12" pan="0"/>
          <note vol="100" pos="228" key="59" len="24" pan="0"/>
          <note vol="100" pos="252" key="59" len="12" pan="0"/>
          <note vol="100" pos="264" key="59" len="24" pan="0"/>
          <note vol="100" pos="288" key="59" len="12" pan="0"/>
          <note vol="100" pos="300" key="59" len="24" pan="0"/>
          <note vol="100" pos="324" key="59" len="12" pan="0"/>
          <note vol="100" pos="336" key="57" len="24" pan="0"/>
          <note vol="100" pos="360" key="59" len="24" pan="0"/>
          <note vol="100" pos="384" key="59" len="24" pan="0"/>
          <note vol="100" pos="408" key="59" len="12" pan="0"/>
          <note vol="100" pos="420" key="59" len="24" pan="0"/>
          <note vol="100" pos="444" key="59" len="12" pan="0"/>
          <note vol="100" pos="456" key="59" len="24" pan="0"/>
          <note vol="100" pos="480" key="59" len="12" pan="0"/>
          <note vol="100" pos="492" key="59" len="24" pan="0"/>
          <note vol="100" pos="516" key="59" len="12" pan="0"/>
          <note vol="100" pos="528" key="57" len="24" pan="0"/>
          <note vol="100" pos="552" key="59" len="24" pan="0"/>
          <note vol="100" pos="576" key="59" len="24" pan="0"/>
          <note vol="100" pos="600" key="59" len="12" pan="0"/>
          <note vol="100" pos="612" key="59" len="24" pan="0"/>
          <note vol="100" pos="636" key="59" len="12" pan="0"/>
          <note vol="100" pos="648" key="59" len="24" pan="0"/>
          <note vol="100" pos="672" key="59" len="12" pan="0"/>
          <note vol="100" pos="684" key="59" len="24" pan="0"/>
          <note vol="100" pos="708" key="59" len="12" pan="0"/>
          <note vol="100" pos="720" key="57" len="24" pan="0"/>
          <note vol="100" pos="744" key="59" len="24" pan="0"/>
          <note vol="100" pos="768" key="59" len="24" pan="0"/>
          <note vol="100" pos="792" key="59" len="12" pan="0"/>
          <note vol="100" pos="804" key="59" len="24" pan="0"/>
          <note vol="100" pos="828" key="59" len="12" pan="0"/>
          <note vol="100" pos="840" key="59" len="24" pan="0"/>
          <note vol="100" pos="864" key="59" len="12" pan="0"/>
          <note vol="100" pos="876" key="59" len="24" pan="0"/>
          <note vol="100" pos="900" key="59" len="12" pan="0"/>
          <note vol="100" pos="912" key="57" len="24" pan="0"/>
          <note vol="100" pos="936" key="59" len="24" pan="0"/>
          <note vol="100" pos="960" key="59" len="24" pan="0"/>
          <note vol="100" pos="984" key="59" len="12" pan="0"/>
          <note vol="100" pos="996" key="59" len="24" pan="0"/>
          <note vol="100" pos="1020" key="59" len="12" pan="0"/>
          <note vol="100" pos="1032" key="59" len="24" pan="0"/>
          <note vol="100" pos="1056" key="59" len="12" pan="0"/>
          <note vol="100" pos="1068" key="59" len="24" pan="0"/>
          <note vol="100" pos="1092" key="59" len="12" pan="0"/>
          <note vol="100" pos="1104" key="57" len="24" pan="0"/>
          <note vol="100" pos="1128" key="59" len="24" pan="0"/>
          <note vol="100" pos="1152" key="59" len="24" pan="0"/>
          <note vol="100" pos="1176" key="59" len="12" pan="0"/>
          <note vol="100" pos="1188" key="59" len="24" pan="0"/>
          <note vol="100" pos="1212" key="59" len="12" pan="0"/>
          <note vol="100" pos="1224" key="59" len="24" pan="0"/>
          <note vol="100" pos="1248" key="59" len="12" pan="0"/>
          <note vol="100" pos="1260" key="59" len="24" pan="0"/>
          <note vol="100" pos="1284" key="59" len="12" pan="0"/>
          <note vol="100" pos="1296" key="57" len="24" pan="0"/>
          <note vol="100" pos="1320" key="59" len="24" pan="0"/>
          <note vol="100" pos="1344" key="59" len="24" pan="0"/>
          <note vol="100" pos="1368" key="59" len="12" pan="0"/>
          <note vol="100" pos="1380" key="59" len="24" pan="0"/>
          <note vol="100" pos="1404" key="59" len="12" pan="0"/>
          <note vol="100" pos="1416" key="59" len="24" pan="0"/>
          <note vol="100" pos="1440" key="59" len="12" pan="0"/>
          <note vol="100" pos="1452" key="59" len="24" pan="0"/>
          <note vol="100" pos="1476" key="59" len="12" pan="0"/>
          <note vol="100" pos="1488" key="57" len="24" pan="0"/>
          <note vol="100" pos="1512" key="59" len="24" pan="0"/>
        </pattern>
      </track>
      <track type="0" name="12-bit_heavy_hitter.ds" muted="0" solo="0">
        <instrumenttrack vol="64" pitch="0" pitchrange="1" usemasterpitch="1" pan="-30" fxch="4" basenote="57">
          <instrument name="audiofileprocessor">
            <audiofileprocessor interp="1" src="drumsynth/misc/12-bit_heavy_hitter.ds" reversed="0" sframe="0" lframe="0" eframe="1" stutter="0" looped="0" amp="100"/>
          </instrument>
          <eldata fres="0.5" ftype="0" fcut="14000" fwet="0">
            <elvol lspd_denominator="4" amt="0" sustain="0.5" lshp="0" x100="0" lspd="0.1" hold="0" lpdel="0" dec="0.5" lamt="0" userwavefile="" att="0" ctlenvamt="0" latt="0" lspd_numerator="4" rel="0.1" lspd_syncmode="0" pdel="0"/>
            <elcut lspd_denominator="4" amt="0" sustain="0.5" lshp="0" x100="0" lspd="0.1" hold="0.5" lpdel="0" dec="0.5" lamt="0" userwavefile="" att="0" ctlenvamt="0" latt="0" lspd_numerator="4" rel="0.1" lspd_syncmode="0" pdel="0"/>
            <elres lspd_denominator="4" amt="0" sustain="0.5" lshp="0" x100="0" lspd="0.1" hold="0.5" lpdel="0" dec="0.5" lamt="0" userwavefile="" att="0" ctlenvamt="0" latt="0" lspd_numerator="4" rel="0.1" lspd_syncmode="0" pdel="0"/>
          </eldata>
          <chordcreator chord-enabled="0" chordrange="1" chord="0"/>
          <arpeggiator arptime_numerator="4" arpmiss="0" arpcycle="0" arpgate="100" arp="0" arpskip="0" arprange="1" arptime_denominator="4" arptime_syncmode="0" arpmode="0" arpdir="0" arp-enabled="0" arptime="200"/>
          <midiport fixedoutputnote="-1" outputchannel="1" basevelocity="63" outputcontroller="0" inputchannel="0" inputcontroller="0" outputprogram="1" fixedoutputvelocity="-1" readable="0" fixedinputvelocity="-1" writable="0"/>
          <fxchain enabled="1" numofeffects="1">
            <effect on="1" autoquit_numerator="4" gate="0" wet="1" autoquit_syncmode="0" autoquit="1" autoquit_denominator="4" name="ladspaeffect">
              <ladspacontrols ports="4">
                <port02 data="0.50200003"/>
                <port03 data="0.1"/>
                <port04 data="0.250375"/>
                <port05 data="0.25"/>
              </ladspacontrols>
              <key>
                <attribute value="caps" name="file"/>
                <attribute value="Plate2x2" name="plugin"/>
              </key>
            </effect>
          </fxchain>
        </instrumenttrack>
        <pattern type="1" pos="9216" name="12-bit_heavy_hitter.ds" steps="16" muted="0">
          <note vol="74" pos="144" key="57" len="48" pan="0"/>
        </pattern>
        <pattern type="1" pos="9600" name="12-bit_heavy_hitter.ds" steps="16" muted="0">
          <note vol="74" pos="144" key="57" len="48" pan="0"/>
        </pattern>
        <pattern type="1" pos="9984" name="12-bit_heavy_hitter.ds" steps="16" muted="0">
          <note vol="74" pos="144" key="57" len="48" pan="0"/>
        </pattern>
        <pattern type="1" pos="10368" name="12-bit_heavy_hitter.ds" steps="16" muted="0">
          <note vol="74" pos="144" key="57" len="48" pan="0"/>
        </pattern>
        <pattern type="1" pos="10752" name="12-bit_heavy_hitter.ds" steps="16" muted="0">
          <note vol="74" pos="0" key="57" len="48" pan="0"/>
        </pattern>
        <pattern type="1" pos="1536" name="12-bit_heavy_hitter.ds" steps="16" muted="0">
          <note vol="74" pos="144" key="57" len="48" pan="0"/>
        </pattern>
        <pattern type="1" pos="1920" name="12-bit_heavy_hitter.ds" steps="16" muted="0">
          <note vol="74" pos="144" key="57" len="48" pan="0"/>
        </pattern>
        <pattern type="1" pos="2304" name="12-bit_heavy_hitter.ds" steps="16" muted="0">
          <note vol="74" pos="144" key="57" len="48" pan="0"/>
        </pattern>
        <pattern type="1" pos="2688" name="12-bit_heavy_hitter.ds" steps="16" muted="0">
          <note vol="74" pos="144" key="57" len="48" pan="0"/>
        </pattern>
        <pattern type="1" pos="3072" name="12-bit_heavy_hitter.ds" steps="16" muted="0">
          <note vol="74" pos="144" key="57" len="48" pan="0"/>
        </pattern>
        <pattern type="1" pos="3456" name="12-bit_heavy_hitter.ds" steps="16" muted="0">
          <note vol="74" pos="144" key="57" len="48" pan="0"/>
        </pattern>
        <pattern type="1" pos="3840" name="12-bit_heavy_hitter.ds" steps="16" muted="0">
          <note vol="74" pos="144" key="57" len="48" pan="0"/>
        </pattern>
        <pattern type="1" pos="4224" name="12-bit_heavy_hitter.ds" steps="16" muted="0">
          <note vol="74" pos="144" key="57" len="48" pan="0"/>
        </pattern>
      </track>
      <track type="0" name="linn_tamb.ds" muted="0" solo="0">
        <instrumenttrack vol="100" pitch="0" pitchrange="1" usemasterpitch="1" pan="30" fxch="4" basenote="57">
          <instrument name="audiofileprocessor">
            <audiofileprocessor interp="1" src="drumsynth/linn/linn_tamb.ds" reversed="0" sframe="0" lframe="0" eframe="1" stutter="0" looped="0" amp="100"/>
          </instrument>
          <eldata fres="0.5" ftype="0" fcut="14000" fwet="0">
            <elvol lspd_denominator="4" amt="0" sustain="0.54000002" lshp="0" x100="0" lspd="0.1" hold="0" lpdel="0" dec="0.60000002" lamt="0" userwavefile="" att="0" ctlenvamt="0" latt="0" lspd_numerator="4" rel="0.1" lspd_syncmode="0" pdel="0"/>
            <elcut lspd_denominator="4" amt="0" sustain="0.5" lshp="0" x100="0" lspd="0.1" hold="0.5" lpdel="0" dec="0.5" lamt="0" userwavefile="" att="0" ctlenvamt="0" latt="0" lspd_numerator="4" rel="0.1" lspd_syncmode="0" pdel="0"/>
            <elres lspd_denominator="4" amt="0" sustain="0.5" lshp="0" x100="0" lspd="0.1" hold="0.5" lpdel="0" dec="0.5" lamt="0" userwavefile="" att="0" ctlenvamt="0" latt="0" lspd_numerator="4" rel="0.1" lspd_syncmode="0" pdel="0"/>
          </eldata>
          <chordcreator chord-enabled="0" chordrange="1" chord="0"/>
          <arpeggiator arptime_numerator="4" arpmiss="0" arpcycle="0" arpgate="100" arp="0" arpskip="0" arprange="1" arptime_denominator="4" arptime_syncmode="0" arpmode="0" arpdir="0" arp-enabled="0" arptime="200"/>
          <midiport fixedoutputnote="-1" outputchannel="1" basevelocity="63" outputcontroller="0" inputchannel="0" inputcontroller="0" outputprogram="1" fixedoutputvelocity="-1" readable="0" fixedinputvelocity="-1" writable="0"/>
          <fxchain enabled="0" numofeffects="0"/>
        </instrumenttrack>
        <pattern type="1" pos="1728" name="linn_tamb.ds" steps="16" muted="0">
          <note vol="74" pos="144" key="57" len="48" pan="0"/>
        </pattern>
        <pattern type="1" pos="2112" name="linn_tamb.ds" steps="16" muted="0">
          <note vol="74" pos="144" key="57" len="48" pan="0"/>
        </pattern>
        <pattern type="1" pos="2496" name="linn_tamb.ds" steps="16" muted="0">
          <note vol="74" pos="144" key="57" len="48" pan="0"/>
        </pattern>
        <pattern type="1" pos="2880" name="linn_tamb.ds" steps="16" muted="0">
          <note vol="74" pos="144" key="57" len="48" pan="0"/>
        </pattern>
        <pattern type="1" pos="3264" name="linn_tamb.ds" steps="16" muted="0">
          <note vol="74" pos="144" key="57" len="48" pan="0"/>
        </pattern>
        <pattern type="1" pos="3648" name="linn_tamb.ds" steps="16" muted="0">
          <note vol="74" pos="144" key="57" len="48" pan="0"/>
        </pattern>
        <pattern type="1" pos="4032" name="linn_tamb.ds" steps="16" muted="0">
          <note vol="74" pos="144" key="57" len="48" pan="0"/>
        </pattern>
        <pattern type="1" pos="4416" name="linn_tamb.ds" steps="16" muted="0">
          <note vol="74" pos="144" key="57" len="48" pan="0"/>
        </pattern>
        <pattern type="1" pos="9408" name="linn_tamb.ds" steps="16" muted="0">
          <note vol="74" pos="144" key="57" len="48" pan="0"/>
        </pattern>
        <pattern type="1" pos="9792" name="linn_tamb.ds" steps="16" muted="0">
          <note vol="74" pos="144" key="57" len="48" pan="0"/>
        </pattern>
        <pattern type="1" pos="10176" name="linn_tamb.ds" steps="16" muted="0">
          <note vol="74" pos="144" key="57" len="48" pan="0"/>
        </pattern>
        <pattern type="1" pos="10560" name="linn_tamb.ds" steps="16" muted="0">
          <note vol="74" pos="144" key="57" len="12" pan="0"/>
          <note vol="34" pos="156" key="57" len="12" pan="-100"/>
          <note vol="25" pos="168" key="57" len="12" pan="97"/>
          <note vol="17" pos="180" key="57" len="12" pan="-100"/>
        </pattern>
      </track>
      <track type="0" name="zipper.ds" muted="1" solo="0">
        <instrumenttrack vol="63.200001" pitch="0" pitchrange="1" usemasterpitch="1" pan="0" fxch="4" basenote="57">
          <instrument name="audiofileprocessor">
            <audiofileprocessor interp="1" src="drumsynth/misc_fx/zipper.ds" reversed="0" sframe="0" lframe="0" eframe="1" stutter="0" looped="0" amp="100"/>
          </instrument>
          <eldata fres="0.5" ftype="0" fcut="14000" fwet="0">
            <elvol lspd_denominator="4" amt="1" sustain="0.5" lshp="0" x100="0" lspd="0.1" hold="0.5" lpdel="0" dec="0.5" lamt="0" userwavefile="" att="0.12" ctlenvamt="0" latt="0" lspd_numerator="4" rel="0.1" lspd_syncmode="0" pdel="0"/>
            <elcut lspd_denominator="4" amt="0" sustain="0.5" lshp="0" x100="0" lspd="0.1" hold="0.5" lpdel="0" dec="0.5" lamt="0" userwavefile="" att="0" ctlenvamt="0" latt="0" lspd_numerator="4" rel="0.1" lspd_syncmode="0" pdel="0"/>
            <elres lspd_denominator="4" amt="0" sustain="0.5" lshp="0" x100="0" lspd="0.1" hold="0.5" lpdel="0" dec="0.5" lamt="0" userwavefile="" att="0" ctlenvamt="0" latt="0" lspd_numerator="4" rel="0.1" lspd_syncmode="0" pdel="0"/>
          </eldata>
          <chordcreator chord-enabled="0" chordrange="1" chord="0"/>
          <arpeggiator arptime_numerator="4" arpmiss="0" arpcycle="0" arpgate="100" arp="0" arpskip="0" arprange="1" arptime_denominator="4" arptime_syncmode="0" arpmode="0" arpdir="0" arp-enabled="0" arptime="200"/>
          <midiport fixedoutputnote="-1" outputchannel="1" basevelocity="63" outputcontroller="0" inputchannel="0" inputcontroller="0" outputprogram="1" fixedoutputvelocity="-1" readable="0" fixedinputvelocity="-1" writable="0"/>
          <fxchain enabled="0" numofeffects="0"/>
        </instrumenttrack>
        <pattern type="1" pos="9024" name="zipper.ds" steps="16" muted="0">
          <note vol="85" pos="144" key="57" len="96" pan="0"/>
        </pattern>
      </track>
      <track type="0" name="Tone1.ds" muted="0" solo="0">
        <instrumenttrack vol="40" pitch="0" pitchrange="1" usemasterpitch="1" pan="0" fxch="4" basenote="57">
          <instrument name="audiofileprocessor">
            <audiofileprocessor interp="1" src="drumsynth/magnetboy/Tone1.ds" reversed="0" sframe="0" lframe="0" eframe="1" stutter="0" looped="0" amp="100"/>
          </instrument>
          <eldata fres="0.5" ftype="0" fcut="14000" fwet="0">
            <elvol lspd_denominator="4" amt="1" sustain="0" lshp="0" x100="0" lspd="0.1" hold="0" lpdel="0" dec="0.18000001" lamt="0" userwavefile="" att="0" ctlenvamt="0" latt="0" lspd_numerator="4" rel="0.1" lspd_syncmode="0" pdel="0"/>
            <elcut lspd_denominator="4" amt="0" sustain="0.5" lshp="0" x100="0" lspd="0.1" hold="0.5" lpdel="0" dec="0.5" lamt="0" userwavefile="" att="0" ctlenvamt="0" latt="0" lspd_numerator="4" rel="0.1" lspd_syncmode="0" pdel="0"/>
            <elres lspd_denominator="4" amt="0" sustain="0.5" lshp="0" x100="0" lspd="0.1" hold="0.5" lpdel="0" dec="0.5" lamt="0" userwavefile="" att="0" ctlenvamt="0" latt="0" lspd_numerator="4" rel="0.1" lspd_syncmode="0" pdel="0"/>
          </eldata>
          <chordcreator chord-enabled="0" chordrange="1" chord="0"/>
          <arpeggiator arptime_numerator="4" arpmiss="0" arpcycle="0" arpgate="100" arp="0" arpskip="0" arprange="1" arptime_denominator="4" arptime_syncmode="0" arpmode="0" arpdir="0" arp-enabled="0" arptime="200"/>
          <midiport fixedoutputnote="-1" outputchannel="1" basevelocity="63" outputcontroller="0" inputchannel="0" inputcontroller="0" outputprogram="1" fixedoutputvelocity="-1" readable="0" fixedinputvelocity="-1" writable="0"/>
          <fxchain enabled="0" numofeffects="0"/>
        </instrumenttrack>
        <pattern type="1" pos="10752" name="" steps="16" muted="0">
          <note vol="100" pos="0" key="59" len="24" pan="0"/>
          <note vol="100" pos="24" key="59" len="12" pan="0"/>
          <note vol="100" pos="36" key="59" len="24" pan="0"/>
          <note vol="100" pos="60" key="59" len="12" pan="0"/>
          <note vol="100" pos="72" key="59" len="24" pan="0"/>
          <note vol="100" pos="96" key="59" len="12" pan="0"/>
          <note vol="100" pos="108" key="59" len="24" pan="0"/>
          <note vol="100" pos="132" key="59" len="12" pan="0"/>
          <note vol="100" pos="144" key="57" len="24" pan="0"/>
          <note vol="100" pos="168" key="59" len="24" pan="0"/>
          <note vol="100" pos="192" key="59" len="24" pan="0"/>
          <note vol="100" pos="216" key="59" len="12" pan="0"/>
          <note vol="100" pos="228" key="59" len="24" pan="0"/>
          <note vol="100" pos="252" key="59" len="12" pan="0"/>
          <note vol="100" pos="264" key="59" len="24" pan="0"/>
          <note vol="100" pos="288" key="59" len="12" pan="0"/>
          <note vol="100" pos="300" key="59" len="24" pan="0"/>
          <note vol="100" pos="324" key="59" len="12" pan="0"/>
          <note vol="100" pos="336" key="57" len="24" pan="0"/>
          <note vol="100" pos="360" key="59" len="24" pan="0"/>
          <note vol="100" pos="384" key="59" len="24" pan="0"/>
          <note vol="100" pos="408" key="59" len="12" pan="0"/>
          <note vol="100" pos="420" key="59" len="24" pan="0"/>
          <note vol="100" pos="444" key="59" len="12" pan="0"/>
          <note vol="100" pos="456" key="59" len="24" pan="0"/>
          <note vol="100" pos="480" key="59" len="12" pan="0"/>
          <note vol="100" pos="492" key="59" len="24" pan="0"/>
          <note vol="100" pos="516" key="59" len="12" pan="0"/>
          <note vol="100" pos="528" key="57" len="24" pan="0"/>
          <note vol="100" pos="552" key="59" len="24" pan="0"/>
          <note vol="100" pos="576" key="59" len="24" pan="0"/>
          <note vol="100" pos="600" key="59" len="12" pan="0"/>
          <note vol="100" pos="612" key="59" len="24" pan="0"/>
          <note vol="100" pos="636" key="59" len="12" pan="0"/>
          <note vol="100" pos="648" key="59" len="24" pan="0"/>
          <note vol="100" pos="672" key="59" len="12" pan="0"/>
          <note vol="100" pos="684" key="59" len="24" pan="0"/>
          <note vol="100" pos="708" key="59" len="12" pan="0"/>
          <note vol="100" pos="720" key="57" len="24" pan="0"/>
          <note vol="100" pos="744" key="59" len="24" pan="0"/>
          <note vol="100" pos="768" key="59" len="24" pan="0"/>
          <note vol="100" pos="792" key="59" len="12" pan="0"/>
          <note vol="100" pos="804" key="59" len="24" pan="0"/>
          <note vol="100" pos="828" key="59" len="12" pan="0"/>
          <note vol="100" pos="840" key="59" len="24" pan="0"/>
          <note vol="100" pos="864" key="59" len="12" pan="0"/>
          <note vol="100" pos="876" key="59" len="24" pan="0"/>
          <note vol="100" pos="900" key="59" len="12" pan="0"/>
          <note vol="100" pos="912" key="57" len="24" pan="0"/>
          <note vol="100" pos="936" key="59" len="24" pan="0"/>
          <note vol="100" pos="960" key="59" len="24" pan="0"/>
          <note vol="100" pos="984" key="59" len="12" pan="0"/>
          <note vol="100" pos="996" key="59" len="24" pan="0"/>
          <note vol="100" pos="1020" key="59" len="12" pan="0"/>
          <note vol="100" pos="1032" key="59" len="24" pan="0"/>
          <note vol="100" pos="1056" key="59" len="12" pan="0"/>
          <note vol="100" pos="1068" key="59" len="24" pan="0"/>
          <note vol="100" pos="1092" key="59" len="12" pan="0"/>
          <note vol="100" pos="1104" key="57" len="24" pan="0"/>
          <note vol="100" pos="1128" key="59" len="24" pan="0"/>
          <note vol="100" pos="1152" key="59" len="24" pan="0"/>
          <note vol="100" pos="1176" key="59" len="12" pan="0"/>
          <note vol="100" pos="1188" key="59" len="24" pan="0"/>
          <note vol="100" pos="1212" key="59" len="12" pan="0"/>
          <note vol="100" pos="1224" key="59" len="24" pan="0"/>
          <note vol="100" pos="1248" key="59" len="12" pan="0"/>
          <note vol="100" pos="1260" key="59" len="24" pan="0"/>
          <note vol="100" pos="1284" key="59" len="12" pan="0"/>
          <note vol="100" pos="1296" key="57" len="24" pan="0"/>
          <note vol="100" pos="1320" key="59" len="24" pan="0"/>
          <note vol="100" pos="1344" key="59" len="24" pan="0"/>
          <note vol="100" pos="1368" key="59" len="12" pan="0"/>
          <note vol="100" pos="1380" key="59" len="24" pan="0"/>
          <note vol="100" pos="1404" key="59" len="12" pan="0"/>
          <note vol="100" pos="1416" key="59" len="24" pan="0"/>
          <note vol="100" pos="1440" key="59" len="12" pan="0"/>
          <note vol="100" pos="1452" key="59" len="24" pan="0"/>
          <note vol="100" pos="1476" key="59" len="12" pan="0"/>
          <note vol="100" pos="1488" key="57" len="24" pan="0"/>
          <note vol="100" pos="1512" key="59" len="24" pan="0"/>
        </pattern>
      </track>
      <track type="1" name="Hi-Hat" muted="0" solo="0">
        <bbtrack>
          <trackcontainer maximized="0" type="bbtrackcontainer" minimized="0" width="700" visible="0" y="618" height="400" x="752">
            <track type="0" name="Hihat.ds" muted="0" solo="0">
              <instrumenttrack vol="70" pitch="0" pitchrange="1" usemasterpitch="1" fxch="0" basenote="57">
                <pan scale_type="linear" id="4197735" value="62.583332"/>
                <instrument name="audiofileprocessor">
                  <audiofileprocessor interp="1" src="drumsynth/cr78/Hihat.ds" reversed="0" sframe="0" lframe="0" eframe="1" stutter="0" looped="0" amp="100"/>
                </instrument>
                <eldata fres="0.5" ftype="0" fcut="14000" fwet="0">
                  <elvol lspd_denominator="4" amt="0" sustain="0.5" lshp="0" x100="0" lspd="0.1" hold="0.5" lpdel="0" dec="0.5" lamt="0" userwavefile="" att="0" ctlenvamt="0" latt="0" lspd_numerator="4" rel="0.1" lspd_syncmode="0" pdel="0"/>
                  <elcut lspd_denominator="4" amt="0" sustain="0.5" lshp="0" x100="0" lspd="0.1" hold="0.5" lpdel="0" dec="0.5" lamt="0" userwavefile="" att="0" ctlenvamt="0" latt="0" lspd_numerator="4" rel="0.1" lspd_syncmode="0" pdel="0"/>
                  <elres lspd_denominator="4" amt="0" sustain="0.5" lshp="0" x100="0" lspd="0.1" hold="0.5" lpdel="0" dec="0.5" lamt="0" userwavefile="" att="0" ctlenvamt="0" latt="0" lspd_numerator="4" rel="0.1" lspd_syncmode="0" pdel="0"/>
                </eldata>
                <chordcreator chord-enabled="0" chordrange="1" chord="0"/>
                <arpeggiator arptime_numerator="4" arpmiss="0" arpcycle="0" arpgate="100" arp="0" arpskip="0" arprange="1" arptime_denominator="4" arptime_syncmode="0" arpmode="0" arpdir="0" arp-enabled="0" arptime="200"/>
                <midiport fixedoutputnote="-1" outputchannel="1" basevelocity="63" outputcontroller="0" inputchannel="0" inputcontroller="0" outputprogram="1" fixedoutputvelocity="-1" readable="0" fixedinputvelocity="-1" writable="0"/>
                <fxchain enabled="0" numofeffects="0"/>
              </instrumenttrack>
              <pattern type="1" pos="0" name="Hihat.ds" steps="16" muted="0">
                <note vol="74" pos="0" key="59" len="12" pan="0"/>
                <note vol="68" pos="12" key="59" len="12" pan="0"/>
                <note vol="68" pos="24" key="59" len="12" pan="0"/>
                <note vol="61" pos="36" key="59" len="12" pan="0"/>
                <note vol="61" pos="48" key="59" len="12" pan="0"/>
                <note vol="74" pos="60" key="59" len="12" pan="0"/>
                <note vol="63" pos="72" key="59" len="12" pan="0"/>
                <note vol="68" pos="84" key="59" len="12" pan="0"/>
                <note vol="74" pos="96" key="59" len="12" pan="0"/>
                <note vol="80" pos="108" key="59" len="12" pan="0"/>
                <note vol="74" pos="120" key="59" len="12" pan="0"/>
                <note vol="74" pos="132" key="59" len="12" pan="0"/>
                <note vol="63" pos="144" key="59" len="12" pan="0"/>
                <note vol="74" pos="156" key="59" len="12" pan="0"/>
                <note vol="85" pos="168" key="59" len="12" pan="0"/>
                <note vol="74" pos="180" key="59" len="12" pan="0"/>
              </pattern>
              <pattern type="0" pos="192" name="Hihat.ds" steps="16" muted="0"/>
              <pattern type="0" pos="384" name="Hihat.ds" steps="16" muted="0"/>
            </track>
            <track type="5" name="Automation track" muted="0" solo="0">
              <automationtrack/>
              <automationpattern tens="1" pos="0" mute="0" len="192" name="Hihat.ds>Panning" prog="1">
                <time pos="0" value="0.5"/>
                <time pos="48" value="-75"/>
                <time pos="96" value="0.5"/>
                <time pos="144" value="75"/>
                <time pos="192" value="0.5"/>
                <object id="4197735"/>
              </automationpattern>
              <automationpattern tens="1" pos="192" mute="0" len="192" name="Drag a control while pressing &lt;Ctrl>" prog="0"/>
              <automationpattern tens="1" pos="384" mute="0" len="192" name="Drag a control while pressing &lt;Ctrl>" prog="0"/>
            </track>
            <track type="0" name="Amen Snare" muted="0" solo="0">
              <instrumenttrack vol="99.200005" pitch="0" pitchrange="1" usemasterpitch="1" pan="0" fxch="5" basenote="57">
                <instrument name="audiofileprocessor">
                  <audiofileprocessor interp="1" src="gig/Amen Break.wav" reversed="0" sframe="0.064000003" lframe="0.064000003" eframe="0.083999999" stutter="0" looped="0" amp="100"/>
                </instrument>
                <eldata fres="0.5" ftype="0" fcut="14000" fwet="0">
                  <elvol lspd_denominator="4" amt="1" sustain="0" lshp="0" x100="0" lspd="0.1" hold="0" lpdel="0" dec="0.26800001" lamt="0" userwavefile="" att="0" ctlenvamt="0" latt="0" lspd_numerator="4" rel="0.1" lspd_syncmode="0" pdel="0"/>
                  <elcut lspd_denominator="4" amt="0" sustain="0.5" lshp="0" x100="0" lspd="0.1" hold="0.5" lpdel="0" dec="0.5" lamt="0" userwavefile="" att="0" ctlenvamt="0" latt="0" lspd_numerator="4" rel="0.1" lspd_syncmode="0" pdel="0"/>
                  <elres lspd_denominator="4" amt="0" sustain="0.5" lshp="0" x100="0" lspd="0.1" hold="0.5" lpdel="0" dec="0.5" lamt="0" userwavefile="" att="0" ctlenvamt="0" latt="0" lspd_numerator="4" rel="0.1" lspd_syncmode="0" pdel="0"/>
                </eldata>
                <chordcreator chord-enabled="0" chordrange="1" chord="0"/>
                <arpeggiator arptime_numerator="4" arpmiss="0" arpcycle="0" arpgate="100" arp="0" arpskip="0" arprange="1" arptime_denominator="4" arptime_syncmode="0" arpmode="0" arpdir="0" arp-enabled="0" arptime="200"/>
                <midiport fixedoutputnote="-1" outputchannel="1" basevelocity="63" outputcontroller="0" inputchannel="0" inputcontroller="0" outputprogram="1" fixedoutputvelocity="-1" readable="0" fixedinputvelocity="-1" writable="0"/>
                <fxchain enabled="1" numofeffects="2">
                  <effect on="1" autoquit_numerator="4" gate="0" wet="1" autoquit_syncmode="0" autoquit="1" autoquit_denominator="4" name="ladspaeffect">
                    <ladspacontrols ports="10">
                      <port00 data="100"/>
                      <port01 data="0"/>
                      <port02 data="100"/>
                      <port03 data="0"/>
                      <port04 data="-20.9"/>
                      <port05 data="-20.1"/>
                      <port06 data="0"/>
                      <port07 data="0"/>
                      <port08 data="0"/>
                      <port09 data="0"/>
                    </ladspacontrols>
                    <key>
                      <attribute value="tap_echo" name="file"/>
                      <attribute value="tap_stereo_echo" name="plugin"/>
                    </key>
                  </effect>
                  <effect on="1" autoquit_numerator="4" gate="0" wet="0.50999999" autoquit_syncmode="0" autoquit="1" autoquit_denominator="4" name="ladspaeffect">
                    <ladspacontrols ports="10">
                      <port04 data="0.02"/>
                      <port05>
                        <data scale_type="log" id="7680932" value="223.6068"/>
                      </port05>
                      <port06 data="2.75"/>
                      <port07 data="2.75"/>
                      <port08>
                        <data scale_type="log" id="139106" value="6000"/>
                      </port08>
                      <port09>
                        <data scale_type="log" id="2726299" value="159.05415"/>
                      </port09>
                      <port010 data="0"/>
                      <port011>
                        <data scale_type="log" id="7270263" value="2514.8672"/>
                      </port011>
                      <port012 data="0"/>
                      <port013 data="0.5"/>
                    </ladspacontrols>
                    <key>
                      <attribute value="zita-reverbs" name="file"/>
                      <attribute value="zita-reverb" name="plugin"/>
                    </key>
                  </effect>
                </fxchain>
              </instrumenttrack>
              <pattern type="0" pos="0" name="Amen Snare" steps="16" muted="0"/>
              <pattern type="1" pos="192" name="Amen Snare" steps="16" muted="0">
                <note vol="126" pos="48" key="57" len="12" pan="0"/>
                <note vol="126" pos="108" key="57" len="12" pan="0"/>
                <note vol="126" pos="144" key="57" len="12" pan="0"/>
                <note vol="57" pos="156" key="57" len="12" pan="0"/>
                <note vol="126" pos="240" key="57" len="12" pan="0"/>
                <note vol="126" pos="300" key="57" len="12" pan="0"/>
                <note vol="126" pos="336" key="57" len="12" pan="0"/>
                <note vol="57" pos="348" key="57" len="12" pan="0"/>
                <note vol="29" pos="360" key="57" len="12" pan="0"/>
                <note vol="21" pos="372" key="57" len="12" pan="0"/>
              </pattern>
              <pattern type="1" pos="384" name="Amen Snare" steps="16" muted="0">
                <note vol="100" pos="0" key="57" len="12" pan="0"/>
                <note vol="21" pos="12" key="57" len="12" pan="0"/>
                <note vol="100" pos="24" key="57" len="12" pan="0"/>
                <note vol="21" pos="36" key="57" len="12" pan="0"/>
                <note vol="100" pos="48" key="60" len="12" pan="0"/>
                <note vol="21" pos="60" key="60" len="12" pan="0"/>
                <note vol="100" pos="72" key="57" len="12" pan="0"/>
                <note vol="100" pos="84" key="57" len="12" pan="0"/>
                <note vol="21" pos="96" key="57" len="12" pan="0"/>
                <note vol="100" pos="108" key="60" len="12" pan="0"/>
                <note vol="100" pos="120" key="57" len="12" pan="0"/>
                <note vol="21" pos="132" key="57" len="12" pan="0"/>
                <note vol="100" pos="144" key="60" len="12" pan="0"/>
                <note vol="21" pos="156" key="60" len="12" pan="0"/>
                <note vol="100" pos="168" key="57" len="12" pan="0"/>
                <note vol="21" pos="180" key="57" len="12" pan="0"/>
                <note vol="100" pos="192" key="57" len="12" pan="0"/>
                <note vol="21" pos="204" key="57" len="12" pan="0"/>
                <note vol="100" pos="216" key="57" len="12" pan="0"/>
                <note vol="21" pos="228" key="57" len="12" pan="0"/>
                <note vol="100" pos="240" key="60" len="12" pan="0"/>
                <note vol="21" pos="252" key="59" len="12" pan="0"/>
                <note vol="100" pos="264" key="57" len="12" pan="0"/>
                <note vol="100" pos="276" key="57" len="12" pan="0"/>
                <note vol="21" pos="288" key="57" len="12" pan="0"/>
                <note vol="100" pos="300" key="60" len="12" pan="0"/>
                <note vol="100" pos="312" key="57" len="12" pan="0"/>
                <note vol="21" pos="324" key="57" len="12" pan="0"/>
                <note vol="104" pos="336" key="60" len="12" pan="0"/>
                <note vol="46" pos="348" key="60" len="12" pan="0"/>
                <note vol="21" pos="360" key="60" len="12" pan="0"/>
                <note vol="63" pos="372" key="60" len="12" pan="0"/>
                <note vol="100" pos="384" key="57" len="12" pan="0"/>
                <note vol="21" pos="396" key="57" len="12" pan="0"/>
                <note vol="100" pos="408" key="57" len="12" pan="0"/>
                <note vol="21" pos="420" key="57" len="12" pan="0"/>
                <note vol="100" pos="432" key="60" len="12" pan="0"/>
                <note vol="21" pos="444" key="60" len="12" pan="0"/>
                <note vol="100" pos="456" key="57" len="12" pan="0"/>
                <note vol="100" pos="468" key="57" len="12" pan="0"/>
                <note vol="21" pos="480" key="57" len="12" pan="0"/>
                <note vol="100" pos="492" key="60" len="12" pan="0"/>
                <note vol="100" pos="504" key="57" len="12" pan="0"/>
                <note vol="21" pos="516" key="57" len="12" pan="0"/>
                <note vol="100" pos="528" key="60" len="12" pan="0"/>
                <note vol="21" pos="540" key="60" len="12" pan="0"/>
                <note vol="21" pos="552" key="60" len="12" pan="0"/>
                <note vol="100" pos="564" key="57" len="12" pan="0"/>
                <note vol="21" pos="576" key="57" len="12" pan="0"/>
                <note vol="100" pos="588" key="57" len="12" pan="0"/>
                <note vol="21" pos="600" key="57" len="12" pan="0"/>
                <note vol="100" pos="612" key="57" len="12" pan="0"/>
                <note vol="100" pos="624" key="60" len="12" pan="0"/>
                <note vol="21" pos="636" key="60" len="12" pan="0"/>
                <note vol="21" pos="648" key="60" len="12" pan="0"/>
                <note vol="100" pos="660" key="57" len="12" pan="0"/>
                <note vol="100" pos="672" key="57" len="12" pan="0"/>
                <note vol="100" pos="684" key="60" len="12" pan="0"/>
                <note vol="100" pos="696" key="57" len="12" pan="0"/>
                <note vol="21" pos="708" key="57" len="12" pan="0"/>
                <note vol="104" pos="720" key="60" len="12" pan="0"/>
                <note vol="46" pos="732" key="60" len="12" pan="0"/>
                <note vol="21" pos="744" key="60" len="12" pan="0"/>
                <note vol="63" pos="756" key="60" len="12" pan="0"/>
                <note vol="100" pos="768" key="57" len="12" pan="0"/>
                <note vol="21" pos="780" key="57" len="12" pan="0"/>
                <note vol="100" pos="792" key="57" len="12" pan="0"/>
                <note vol="21" pos="804" key="57" len="12" pan="0"/>
                <note vol="100" pos="816" key="60" len="12" pan="0"/>
                <note vol="21" pos="828" key="60" len="12" pan="0"/>
                <note vol="100" pos="840" key="57" len="12" pan="0"/>
                <note vol="100" pos="852" key="57" len="12" pan="0"/>
                <note vol="21" pos="864" key="57" len="12" pan="0"/>
                <note vol="100" pos="876" key="60" len="12" pan="0"/>
                <note vol="100" pos="888" key="57" len="12" pan="0"/>
                <note vol="21" pos="900" key="57" len="12" pan="0"/>
                <note vol="100" pos="912" key="60" len="12" pan="0"/>
                <note vol="21" pos="924" key="60" len="12" pan="0"/>
                <note vol="100" pos="936" key="57" len="12" pan="0"/>
                <note vol="21" pos="948" key="57" len="12" pan="0"/>
                <note vol="100" pos="960" key="57" len="12" pan="0"/>
                <note vol="21" pos="972" key="57" len="12" pan="0"/>
                <note vol="100" pos="984" key="57" len="12" pan="0"/>
                <note vol="21" pos="996" key="57" len="12" pan="0"/>
                <note vol="100" pos="1008" key="60" len="12" pan="0"/>
                <note vol="21" pos="1020" key="59" len="12" pan="0"/>
                <note vol="100" pos="1032" key="57" len="12" pan="0"/>
                <note vol="100" pos="1044" key="57" len="12" pan="0"/>
                <note vol="21" pos="1056" key="57" len="12" pan="0"/>
                <note vol="100" pos="1068" key="60" len="12" pan="0"/>
                <note vol="100" pos="1080" key="57" len="12" pan="0"/>
                <note vol="21" pos="1092" key="57" len="12" pan="0"/>
                <note vol="104" pos="1104" key="60" len="12" pan="0"/>
                <note vol="46" pos="1116" key="60" len="12" pan="0"/>
                <note vol="21" pos="1128" key="60" len="12" pan="0"/>
                <note vol="63" pos="1140" key="60" len="12" pan="0"/>
                <note vol="100" pos="1152" key="57" len="12" pan="0"/>
                <note vol="21" pos="1164" key="57" len="12" pan="0"/>
                <note vol="100" pos="1176" key="57" len="12" pan="0"/>
                <note vol="21" pos="1188" key="57" len="12" pan="0"/>
                <note vol="100" pos="1200" key="60" len="12" pan="0"/>
                <note vol="21" pos="1212" key="60" len="12" pan="0"/>
                <note vol="100" pos="1224" key="57" len="12" pan="0"/>
                <note vol="100" pos="1236" key="57" len="12" pan="0"/>
                <note vol="21" pos="1248" key="57" len="12" pan="0"/>
                <note vol="100" pos="1260" key="60" len="12" pan="0"/>
                <note vol="100" pos="1272" key="57" len="12" pan="0"/>
                <note vol="21" pos="1284" key="57" len="12" pan="0"/>
                <note vol="100" pos="1296" key="60" len="12" pan="0"/>
                <note vol="21" pos="1308" key="60" len="12" pan="0"/>
                <note vol="21" pos="1320" key="60" len="12" pan="0"/>
                <note vol="100" pos="1332" key="57" len="12" pan="0"/>
                <note vol="21" pos="1344" key="57" len="12" pan="0"/>
                <note vol="100" pos="1356" key="57" len="12" pan="0"/>
                <note vol="21" pos="1368" key="57" len="12" pan="0"/>
                <note vol="100" pos="1380" key="57" len="12" pan="0"/>
                <note vol="100" pos="1392" key="60" len="12" pan="0"/>
                <note vol="21" pos="1404" key="60" len="12" pan="0"/>
                <note vol="21" pos="1416" key="60" len="12" pan="0"/>
                <note vol="100" pos="1428" key="57" len="12" pan="0"/>
                <note vol="95" pos="1440" key="60" len="12" pan="0"/>
                <note vol="95" pos="1452" key="57" len="12" pan="0"/>
                <note vol="25" pos="1464" key="57" len="12" pan="0"/>
                <note vol="38" pos="1476" key="57" len="12" pan="0"/>
                <note vol="104" pos="1488" key="60" len="12" pan="0"/>
                <note vol="100" pos="1500" key="60" len="12" pan="0"/>
                <note vol="100" pos="1512" key="60" len="12" pan="0"/>
                <note vol="100" pos="1524" key="60" len="12" pan="0"/>
              </pattern>
            </track>
            <track type="0" name="Amen Kick" muted="0" solo="0">
              <instrumenttrack vol="100" pitch="0" pitchrange="1" usemasterpitch="1" pan="0" fxch="5" basenote="57">
                <instrument name="audiofileprocessor">
                  <audiofileprocessor interp="1" src="gig/Amen Break.wav" reversed="0" sframe="0.028000001" lframe="0.028000001" eframe="0.056000002" stutter="0" looped="0" amp="100"/>
                </instrument>
                <eldata fres="0.5" ftype="0" fcut="5153" fwet="1">
                  <elvol lspd_denominator="4" amt="1" sustain="0" lshp="0" x100="0" lspd="0.1" hold="0" lpdel="0" dec="0.19600001" lamt="0" userwavefile="" att="0" ctlenvamt="0" latt="0" lspd_numerator="4" rel="0.1" lspd_syncmode="0" pdel="0"/>
                  <elcut lspd_denominator="4" amt="0" sustain="0.5" lshp="0" x100="0" lspd="0.1" hold="0.5" lpdel="0" dec="0.5" lamt="0" userwavefile="" att="0" ctlenvamt="0" latt="0" lspd_numerator="4" rel="0.1" lspd_syncmode="0" pdel="0"/>
                  <elres lspd_denominator="4" amt="0" sustain="0.5" lshp="0" x100="0" lspd="0.1" hold="0.5" lpdel="0" dec="0.5" lamt="0" userwavefile="" att="0" ctlenvamt="0" latt="0" lspd_numerator="4" rel="0.1" lspd_syncmode="0" pdel="0"/>
                </eldata>
                <chordcreator chord-enabled="0" chordrange="1" chord="0"/>
                <arpeggiator arptime_numerator="4" arpmiss="0" arpcycle="0" arpgate="100" arp="0" arpskip="0" arprange="1" arptime_denominator="4" arptime_syncmode="0" arpmode="0" arpdir="0" arp-enabled="0" arptime="200"/>
                <midiport fixedoutputnote="-1" outputchannel="1" basevelocity="63" outputcontroller="0" inputchannel="0" inputcontroller="0" outputprogram="1" fixedoutputvelocity="-1" readable="0" fixedinputvelocity="-1" writable="0"/>
                <fxchain enabled="1" numofeffects="2">
                  <effect on="1" autoquit_numerator="4" gate="0" wet="1" autoquit_syncmode="0" autoquit="1" autoquit_denominator="4" name="ladspaeffect">
                    <ladspacontrols ports="12" link="1">
                      <port00 link="1" data_denominator="4" data="10" data_numerator="4" data_syncmode="0"/>
                      <port01 link="1" data_denominator="4" data_numerator="4" data_syncmode="0">
                        <data scale_type="log" id="7332937" value="5"/>
                      </port01>
                      <port02 link="1" data="1"/>
                      <port03 link="1" data="1"/>
                      <port04 link="1" data="1"/>
                      <port05 link="1" data="0.25"/>
                      <port10 data_denominator="4" data="10" data_numerator="4" data_syncmode="0"/>
                      <port11 data_denominator="4" data_numerator="4" data_syncmode="0">
                        <data scale_type="log" id="5149146" value="5"/>
                      </port11>
                      <port12 data="1"/>
                      <port13 data="1"/>
                      <port14 data="1"/>
                      <port15 data="0.25"/>
                    </ladspacontrols>
                    <key>
                      <attribute value="caps" name="file"/>
                      <attribute value="ChorusI" name="plugin"/>
                    </key>
                  </effect>
                  <effect on="1" autoquit_numerator="4" gate="0" wet="0.77999997" autoquit_syncmode="0" autoquit="1" autoquit_denominator="4" name="ladspaeffect">
                    <ladspacontrols ports="10">
                      <port04 data="0.02"/>
                      <port05>
                        <data scale_type="log" id="7072879" value="223.6068"/>
                      </port05>
                      <port06 data="2.75"/>
                      <port07 data="2.75"/>
                      <port08>
                        <data scale_type="log" id="1169039" value="2219.0625"/>
                      </port08>
                      <port09>
                        <data scale_type="log" id="5340968" value="159.05415"/>
                      </port09>
                      <port010 data="0"/>
                      <port011>
                        <data scale_type="log" id="5924584" value="1713.12"/>
                      </port011>
                      <port012 data="0"/>
                      <port013 data="0.5"/>
                    </ladspacontrols>
                    <key>
                      <attribute value="zita-reverbs" name="file"/>
                      <attribute value="zita-reverb" name="plugin"/>
                    </key>
                  </effect>
                </fxchain>
              </instrumenttrack>
              <pattern type="0" pos="0" name="Amen Kick" steps="16" muted="0"/>
              <pattern type="1" pos="192" name="Amen Kick" steps="16" muted="0">
                <note vol="126" pos="0" key="57" len="12" pan="0"/>
                <note vol="126" pos="24" key="57" len="12" pan="0"/>
                <note vol="126" pos="72" key="57" len="12" pan="0"/>
                <note vol="126" pos="96" key="57" len="12" pan="0"/>
                <note vol="126" pos="120" key="57" len="12" pan="0"/>
                <note vol="126" pos="168" key="57" len="12" pan="0"/>
                <note vol="126" pos="192" key="57" len="12" pan="0"/>
                <note vol="126" pos="216" key="57" len="12" pan="0"/>
                <note vol="126" pos="264" key="57" len="12" pan="0"/>
                <note vol="126" pos="288" key="57" len="12" pan="0"/>
                <note vol="126" pos="312" key="57" len="12" pan="0"/>
                <note vol="126" pos="360" key="57" len="12" pan="0"/>
              </pattern>
              <pattern type="0" pos="384" name="Amen Kick" steps="16" muted="0"/>
            </track>
          </trackcontainer>
        </bbtrack>
        <bbtco pos="1536" color="4286611584" usestyle="1" len="3072" name="" muted="0"/>
        <bbtco pos="7680" color="4286611584" usestyle="1" len="3072" name="" muted="0"/>
      </track>
      <track type="1" name="Amen Break Pattern" muted="0" solo="0">
        <bbtrack/>
        <bbtco pos="3072" color="4286611584" usestyle="1" len="1536" name="" muted="0"/>
      </track>
      <track type="1" name="Abreak Pattern #2" muted="0" solo="0">
        <bbtrack/>
        <bbtco pos="6144" color="4286611584" usestyle="1" len="1536" name="" muted="0"/>
      </track>
      <track type="5" name="Dirty Reece > Volume" muted="0" solo="0">
        <automationtrack/>
        <automationpattern tens="1" pos="11520" mute="0" len="768" name="Dirty Reece>Volume" prog="1">
          <time pos="0" value="0"/>
          <time pos="768" value="70"/>
          <object id="4289828"/>
        </automationpattern>
        <automationpattern tens="1" pos="0" mute="0" len="192" name="Dirty Reece>Volume" prog="0">
          <time pos="0" value="70"/>
          <object id="4289828"/>
        </automationpattern>
        <automationpattern tens="1" pos="3456" mute="0" len="192" name="Drag a control while pressing &lt;Ctrl>" prog="0"/>
      </track>
    </trackcontainer>
    <track type="6" name="Automation track" muted="0" solo="0">
      <automationtrack/>
      <automationpattern tens="1" pos="0" mute="0" len="192" name="Numerator" prog="0"/>
      <automationpattern tens="1" pos="0" mute="0" len="192" name="Denominator" prog="0"/>
      <automationpattern tens="1" pos="0" mute="0" len="192" name="Tempo" prog="0"/>
      <automationpattern tens="1" pos="0" mute="0" len="192" name="Master volume" prog="0"/>
      <automationpattern tens="1" pos="0" mute="0" len="192" name="Master pitch" prog="0"/>
      <automationpattern tens="1" pos="0" mute="0" len="192" name="Numerator" prog="0"/>
      <automationpattern tens="1" pos="0" mute="0" len="192" name="Denominator" prog="0"/>
      <automationpattern tens="1" pos="0" mute="0" len="192" name="Tempo" prog="0"/>
      <automationpattern tens="1" pos="0" mute="0" len="192" name="Master volume" prog="0"/>
      <automationpattern tens="1" pos="0" mute="0" len="192" name="Master pitch" prog="0"/>
    </track>
    <fxmixer maximized="0" minimized="0" width="561" visible="0" y="506" height="333" x="57">
      <fxchannel soloed="0" num="0" volume="0.89999998" name="Master" muted="0">
        <fxchain enabled="0" numofeffects="0"/>
      </fxchannel>
      <fxchannel soloed="0" num="1" volume="0.83400005" name="Lead Synths" muted="0">
        <fxchain enabled="0" numofeffects="0"/>
        <send channel="0" amount="1"/>
      </fxchannel>
      <fxchannel soloed="0" num="2" volume="0.46000001" name="Bass Synth" muted="0">
        <fxchain enabled="0" numofeffects="0"/>
        <send channel="0" amount="1"/>
      </fxchannel>
      <fxchannel soloed="0" num="3" volume="0.78600001" name="Solo Synth" muted="0">
        <fxchain enabled="1" numofeffects="0"/>
        <send channel="0" amount="1"/>
      </fxchannel>
      <fxchannel soloed="0" num="4" volume="1" name="SFX" muted="0">
        <fxchain enabled="1" numofeffects="0"/>
        <send channel="0" amount="1"/>
      </fxchannel>
      <fxchannel soloed="0" num="5" volume="0.64999998" name="Abreak Samples" muted="0">
        <fxchain enabled="0" numofeffects="0"/>
        <send channel="0" amount="1"/>
      </fxchannel>
    </fxmixer>
    <ControllerRackView maximized="0" minimized="0" width="350" visible="0" y="407" height="200" x="836"/>
    <pianoroll maximized="0" minimized="0" width="861" visible="0" y="367" height="480" x="668"/>
    <automationeditor maximized="0" minimized="0" width="860" visible="0" y="249" height="406" x="56"/>
    <projectnotes maximized="0" minimized="0" width="756" visible="0" y="513" height="400" x="780"><![CDATA[<!DOCTYPE HTML PUBLIC "-//W3C//DTD HTML 4.0//EN" "http://www.w3.org/TR/REC-html40/strict.dtd">
<html><head><meta name="qrichtext" content="1" /><style type="text/css">
p, li { white-space: pre-wrap; }
</style></head><body style=" font-family:'Cantarell'; font-size:11pt; font-weight:400; font-style:normal;">
<p style=" margin-top:0px; margin-bottom:0px; margin-left:0px; margin-right:0px; -qt-block-indent:0; text-indent:0px;"><span style=" color:#e0e0e0;">Requires the SGM SoundFont and an amen break sample.</span></p></body></html>]]></projectnotes>
    <timeline lp0pos="0" lpstate="1" lp1pos="12288"/>
    <controllers>
      <lfocontroller type="1" multiplier="0" speed="2" phase="0" amount="1" name="Controller 1" speed_numerator="4" base="0.5" speed_denominator="4" userwavefile="" speed_syncmode="0" wave="0"/>
    </controllers>
  </song>
</lmms-project>
