<?xml version="1.0"?>
<!DOCTYPE lmms-project>
<lmms-project creatorversion="1.2.2" creator="LMMS" type="song" version="1.0">
  <head masterpitch="0" timesig_denominator="4" mastervol="100" bpm="110" timesig_numerator="4"/>
  <song>
    <trackcontainer maximized="1" width="941" height="500" x="32" type="song" visible="1" minimized="0" y="82">
      <track muted="0" type="0" solo="0" name="Bass">
        <instrumenttrack vol="100" basenote="64" pitch="0" fxch="2" pan="0" usemasterpitch="1" pitchrange="1">
          <instrument name="audiofileprocessor">
            <audiofileprocessor eframe="0.78000623" stutter="0" lframe="0.56402034" src="basses/bass_hard01.ogg" looped="2" amp="100" reversed="0" sframe="0" interp="2"/>
          </instrument>
          <eldata fcut="14000" ftype="0" fres="0.5" fwet="1">
            <elvol lspd_denominator="4" lshp="0" lamt="0" lpdel="0" rel="0.1" hold="0.5" lspd_syncmode="0" ctlenvamt="0" lspd="0.1" amt="1" x100="0" lspd_numerator="4" att="0" dec="0.5" userwavefile="" latt="0" pdel="0" sustain="0.5"/>
            <elcut lspd_denominator="4" lshp="0" lamt="0" lpdel="0" rel="0.1" hold="0.5" lspd_syncmode="0" ctlenvamt="0" lspd="0.1" amt="0" x100="0" lspd_numerator="4" att="0" dec="0.5" userwavefile="" latt="0" pdel="0" sustain="0.5"/>
            <elres lspd_denominator="4" lshp="0" lamt="0" lpdel="0" rel="0.1" hold="0.5" lspd_syncmode="0" ctlenvamt="0" lspd="0.1" amt="0" x100="0" lspd_numerator="4" att="0" dec="0.5" userwavefile="" latt="0" pdel="0" sustain="0.5"/>
          </eldata>
          <chordcreator chord="0" chord-enabled="0" chordrange="1"/>
          <arpeggiator arpcycle="0" arp-enabled="0" arptime_syncmode="0" arpmode="0" arpskip="0" arpgate="100" arprange="1" arptime_numerator="4" arptime="200" arpmiss="0" arpdir="0" arptime_denominator="4" arp="0"/>
          <midiport fixedoutputvelocity="-1" writable="0" inputcontroller="0" outputchannel="1" outputcontroller="0" fixedinputvelocity="-1" inputchannel="0" basevelocity="63" readable="0" fixedoutputnote="-1" outputprogram="1"/>
          <fxchain numofeffects="2" enabled="1">
            <effect on="1" autoquit_numerator="4" wet="1" autoquit="1" name="ladspaeffect" autoquit_syncmode="0" autoquit_denominator="4" gate="0">
              <ladspacontrols ports="9">
                <port04 data="0"/>
                <port05 data="1"/>
                <port06 data="1"/>
                <port015 data="0"/>
                <port016>
                  <data scale_type="log" id="3042195" value="1"/>
                </port016>
                <port017 data="0.60000002"/>
                <port018 data="0.5"/>
                <port019 data="0"/>
                <port020 data="0"/>
              </ladspacontrols>
              <key>
                <attribute value="calf" name="file"/>
                <attribute value="Pulsator" name="plugin"/>
              </key>
            </effect>
            <effect on="1" autoquit_numerator="4" wet="0.50999999" autoquit="1" name="ladspaeffect" autoquit_syncmode="0" autoquit_denominator="4" gate="0">
              <ladspacontrols ports="7">
                <port00 data="0.85000002"/>
                <port01 data="90"/>
                <port02 data="75"/>
                <port03 data="25"/>
                <port04 data="100"/>
                <port05 data="0"/>
                <port06 data="0"/>
              </ladspacontrols>
              <key>
                <attribute value="tap_chorusflanger" name="file"/>
                <attribute value="tap_chorusflanger" name="plugin"/>
              </key>
            </effect>
          </fxchain>
        </instrumenttrack>
        <pattern muted="0" pos="0" steps="16" type="1" name="Bass">
          <note vol="100" key="57" pos="0" pan="0" len="36"/>
          <note vol="100" key="57" pos="36" pan="0" len="36"/>
          <note vol="100" key="57" pos="72" pan="0" len="24"/>
          <note vol="100" key="57" pos="96" pan="0" len="12"/>
          <note vol="100" key="57" pos="108" pan="0" len="12"/>
          <note vol="100" key="57" pos="132" pan="0" len="60"/>
          <note vol="100" key="57" pos="192" pan="0" len="36"/>
          <note vol="100" key="57" pos="228" pan="0" len="36"/>
          <note vol="100" key="57" pos="264" pan="0" len="24"/>
          <note vol="100" key="57" pos="288" pan="0" len="12"/>
          <note vol="100" key="57" pos="300" pan="0" len="12"/>
          <note vol="100" key="57" pos="324" pan="0" len="60"/>
          <note vol="100" key="57" pos="384" pan="0" len="36"/>
          <note vol="100" key="57" pos="420" pan="0" len="36"/>
          <note vol="100" key="57" pos="456" pan="0" len="24"/>
          <note vol="100" key="57" pos="480" pan="0" len="12"/>
          <note vol="100" key="57" pos="492" pan="0" len="12"/>
          <note vol="100" key="58" pos="516" pan="0" len="60"/>
          <note vol="100" key="57" pos="576" pan="0" len="36"/>
          <note vol="100" key="57" pos="612" pan="0" len="36"/>
          <note vol="100" key="57" pos="648" pan="0" len="24"/>
          <note vol="100" key="57" pos="672" pan="0" len="12"/>
          <note vol="100" key="57" pos="684" pan="0" len="12"/>
          <note vol="100" key="57" pos="708" pan="0" len="60"/>
        </pattern>
        <pattern muted="0" pos="768" steps="16" type="1" name="Bass">
          <note vol="100" key="57" pos="0" pan="0" len="36"/>
          <note vol="100" key="57" pos="36" pan="0" len="36"/>
          <note vol="100" key="57" pos="72" pan="0" len="24"/>
          <note vol="100" key="57" pos="96" pan="0" len="12"/>
          <note vol="100" key="57" pos="108" pan="0" len="12"/>
          <note vol="100" key="57" pos="132" pan="0" len="60"/>
          <note vol="100" key="57" pos="192" pan="0" len="36"/>
          <note vol="100" key="57" pos="228" pan="0" len="36"/>
          <note vol="100" key="57" pos="264" pan="0" len="24"/>
          <note vol="100" key="57" pos="288" pan="0" len="12"/>
          <note vol="100" key="57" pos="300" pan="0" len="12"/>
          <note vol="100" key="57" pos="324" pan="0" len="60"/>
          <note vol="100" key="57" pos="384" pan="0" len="36"/>
          <note vol="100" key="57" pos="420" pan="0" len="36"/>
          <note vol="100" key="57" pos="456" pan="0" len="24"/>
          <note vol="100" key="57" pos="480" pan="0" len="12"/>
          <note vol="100" key="57" pos="492" pan="0" len="12"/>
          <note vol="100" key="58" pos="516" pan="0" len="60"/>
          <note vol="100" key="57" pos="576" pan="0" len="36"/>
          <note vol="100" key="57" pos="612" pan="0" len="36"/>
          <note vol="100" key="57" pos="648" pan="0" len="24"/>
          <note vol="100" key="57" pos="672" pan="0" len="12"/>
          <note vol="100" key="57" pos="684" pan="0" len="12"/>
          <note vol="100" key="57" pos="708" pan="0" len="60"/>
        </pattern>
        <pattern muted="0" pos="1536" steps="16" type="1" name="Bass">
          <note vol="100" key="57" pos="0" pan="0" len="36"/>
          <note vol="100" key="57" pos="36" pan="0" len="36"/>
          <note vol="100" key="57" pos="72" pan="0" len="24"/>
          <note vol="100" key="57" pos="96" pan="0" len="12"/>
          <note vol="100" key="57" pos="108" pan="0" len="12"/>
          <note vol="100" key="57" pos="132" pan="0" len="60"/>
          <note vol="100" key="57" pos="192" pan="0" len="36"/>
          <note vol="100" key="57" pos="228" pan="0" len="36"/>
          <note vol="100" key="57" pos="264" pan="0" len="24"/>
          <note vol="100" key="57" pos="288" pan="0" len="12"/>
          <note vol="100" key="57" pos="300" pan="0" len="12"/>
          <note vol="100" key="57" pos="324" pan="0" len="60"/>
          <note vol="100" key="57" pos="384" pan="0" len="36"/>
          <note vol="100" key="57" pos="420" pan="0" len="36"/>
          <note vol="100" key="57" pos="456" pan="0" len="24"/>
          <note vol="100" key="57" pos="480" pan="0" len="12"/>
          <note vol="100" key="57" pos="492" pan="0" len="12"/>
          <note vol="100" key="58" pos="516" pan="0" len="60"/>
          <note vol="100" key="57" pos="576" pan="0" len="36"/>
          <note vol="100" key="57" pos="612" pan="0" len="36"/>
          <note vol="100" key="57" pos="648" pan="0" len="24"/>
          <note vol="100" key="57" pos="672" pan="0" len="12"/>
          <note vol="100" key="57" pos="684" pan="0" len="12"/>
          <note vol="100" key="57" pos="708" pan="0" len="60"/>
        </pattern>
        <pattern muted="0" pos="2304" steps="16" type="1" name="Bass">
          <note vol="100" key="57" pos="0" pan="0" len="36"/>
          <note vol="100" key="57" pos="36" pan="0" len="36"/>
          <note vol="100" key="57" pos="72" pan="0" len="24"/>
          <note vol="100" key="57" pos="96" pan="0" len="12"/>
          <note vol="100" key="57" pos="108" pan="0" len="12"/>
          <note vol="100" key="57" pos="132" pan="0" len="60"/>
          <note vol="100" key="57" pos="192" pan="0" len="36"/>
          <note vol="100" key="57" pos="228" pan="0" len="36"/>
          <note vol="100" key="57" pos="264" pan="0" len="24"/>
          <note vol="100" key="57" pos="288" pan="0" len="12"/>
          <note vol="100" key="57" pos="300" pan="0" len="12"/>
          <note vol="100" key="57" pos="324" pan="0" len="60"/>
          <note vol="100" key="57" pos="384" pan="0" len="36"/>
          <note vol="100" key="57" pos="420" pan="0" len="36"/>
          <note vol="100" key="57" pos="456" pan="0" len="24"/>
          <note vol="100" key="57" pos="480" pan="0" len="12"/>
          <note vol="100" key="57" pos="492" pan="0" len="12"/>
          <note vol="100" key="58" pos="516" pan="0" len="60"/>
          <note vol="100" key="57" pos="576" pan="0" len="36"/>
          <note vol="100" key="57" pos="612" pan="0" len="36"/>
          <note vol="100" key="57" pos="648" pan="0" len="24"/>
          <note vol="100" key="57" pos="672" pan="0" len="12"/>
          <note vol="100" key="57" pos="684" pan="0" len="12"/>
          <note vol="100" key="57" pos="708" pan="0" len="60"/>
        </pattern>
        <pattern muted="0" pos="3072" steps="16" type="1" name="Bass">
          <note vol="100" key="57" pos="0" pan="0" len="36"/>
          <note vol="100" key="57" pos="36" pan="0" len="36"/>
          <note vol="100" key="57" pos="72" pan="0" len="24"/>
          <note vol="100" key="57" pos="96" pan="0" len="12"/>
          <note vol="100" key="57" pos="108" pan="0" len="12"/>
          <note vol="100" key="57" pos="132" pan="0" len="60"/>
          <note vol="100" key="57" pos="192" pan="0" len="36"/>
          <note vol="100" key="57" pos="228" pan="0" len="36"/>
          <note vol="100" key="57" pos="264" pan="0" len="24"/>
          <note vol="100" key="57" pos="288" pan="0" len="12"/>
          <note vol="100" key="57" pos="300" pan="0" len="12"/>
          <note vol="100" key="57" pos="324" pan="0" len="60"/>
          <note vol="100" key="57" pos="384" pan="0" len="36"/>
          <note vol="100" key="57" pos="420" pan="0" len="36"/>
          <note vol="100" key="57" pos="456" pan="0" len="24"/>
          <note vol="100" key="57" pos="480" pan="0" len="12"/>
          <note vol="100" key="57" pos="492" pan="0" len="12"/>
          <note vol="100" key="58" pos="516" pan="0" len="60"/>
          <note vol="100" key="57" pos="576" pan="0" len="36"/>
          <note vol="100" key="57" pos="612" pan="0" len="36"/>
          <note vol="100" key="57" pos="648" pan="0" len="24"/>
          <note vol="100" key="57" pos="672" pan="0" len="12"/>
          <note vol="100" key="57" pos="684" pan="0" len="12"/>
          <note vol="100" key="57" pos="708" pan="0" len="60"/>
        </pattern>
        <pattern muted="0" pos="3840" steps="16" type="1" name="Bass">
          <note vol="100" key="57" pos="0" pan="0" len="36"/>
          <note vol="100" key="57" pos="36" pan="0" len="36"/>
          <note vol="100" key="57" pos="72" pan="0" len="24"/>
          <note vol="100" key="57" pos="96" pan="0" len="12"/>
          <note vol="100" key="57" pos="108" pan="0" len="12"/>
          <note vol="100" key="57" pos="132" pan="0" len="60"/>
          <note vol="100" key="57" pos="192" pan="0" len="36"/>
          <note vol="100" key="57" pos="228" pan="0" len="36"/>
          <note vol="100" key="57" pos="264" pan="0" len="24"/>
          <note vol="100" key="57" pos="288" pan="0" len="12"/>
          <note vol="100" key="57" pos="300" pan="0" len="12"/>
          <note vol="100" key="57" pos="324" pan="0" len="60"/>
          <note vol="100" key="57" pos="384" pan="0" len="36"/>
          <note vol="100" key="57" pos="420" pan="0" len="36"/>
          <note vol="100" key="57" pos="456" pan="0" len="24"/>
          <note vol="100" key="57" pos="480" pan="0" len="12"/>
          <note vol="100" key="57" pos="492" pan="0" len="12"/>
          <note vol="100" key="58" pos="516" pan="0" len="60"/>
          <note vol="100" key="57" pos="576" pan="0" len="36"/>
          <note vol="100" key="57" pos="612" pan="0" len="36"/>
          <note vol="100" key="57" pos="648" pan="0" len="24"/>
          <note vol="100" key="57" pos="672" pan="0" len="12"/>
          <note vol="100" key="57" pos="684" pan="0" len="12"/>
          <note vol="100" key="57" pos="708" pan="0" len="60"/>
        </pattern>
        <pattern muted="0" pos="4608" steps="16" type="1" name="Bass">
          <note vol="100" key="57" pos="0" pan="0" len="36"/>
          <note vol="100" key="57" pos="36" pan="0" len="36"/>
          <note vol="100" key="57" pos="72" pan="0" len="24"/>
          <note vol="100" key="57" pos="96" pan="0" len="12"/>
          <note vol="100" key="57" pos="108" pan="0" len="12"/>
          <note vol="100" key="57" pos="132" pan="0" len="60"/>
          <note vol="100" key="57" pos="192" pan="0" len="36"/>
          <note vol="100" key="57" pos="228" pan="0" len="36"/>
          <note vol="100" key="57" pos="264" pan="0" len="24"/>
          <note vol="100" key="57" pos="288" pan="0" len="12"/>
          <note vol="100" key="57" pos="300" pan="0" len="12"/>
          <note vol="100" key="57" pos="324" pan="0" len="60"/>
          <note vol="100" key="57" pos="384" pan="0" len="36"/>
          <note vol="100" key="57" pos="420" pan="0" len="36"/>
          <note vol="100" key="57" pos="456" pan="0" len="24"/>
          <note vol="100" key="57" pos="480" pan="0" len="12"/>
          <note vol="100" key="57" pos="492" pan="0" len="12"/>
          <note vol="100" key="58" pos="516" pan="0" len="60"/>
          <note vol="100" key="57" pos="576" pan="0" len="36"/>
          <note vol="100" key="57" pos="612" pan="0" len="36"/>
          <note vol="100" key="57" pos="648" pan="0" len="24"/>
          <note vol="100" key="57" pos="672" pan="0" len="12"/>
          <note vol="100" key="57" pos="684" pan="0" len="12"/>
          <note vol="100" key="57" pos="708" pan="0" len="60"/>
        </pattern>
        <pattern muted="0" pos="5376" steps="16" type="1" name="Bass">
          <note vol="100" key="57" pos="0" pan="0" len="36"/>
          <note vol="100" key="57" pos="36" pan="0" len="36"/>
          <note vol="100" key="57" pos="72" pan="0" len="24"/>
          <note vol="100" key="57" pos="96" pan="0" len="12"/>
          <note vol="100" key="57" pos="108" pan="0" len="12"/>
          <note vol="100" key="57" pos="132" pan="0" len="60"/>
          <note vol="100" key="57" pos="192" pan="0" len="36"/>
          <note vol="100" key="57" pos="228" pan="0" len="36"/>
          <note vol="100" key="57" pos="264" pan="0" len="24"/>
          <note vol="100" key="57" pos="288" pan="0" len="12"/>
          <note vol="100" key="57" pos="300" pan="0" len="12"/>
          <note vol="100" key="57" pos="324" pan="0" len="60"/>
          <note vol="100" key="57" pos="384" pan="0" len="36"/>
          <note vol="100" key="57" pos="420" pan="0" len="36"/>
          <note vol="100" key="57" pos="456" pan="0" len="24"/>
          <note vol="100" key="57" pos="480" pan="0" len="12"/>
          <note vol="100" key="57" pos="492" pan="0" len="12"/>
          <note vol="100" key="58" pos="516" pan="0" len="60"/>
          <note vol="100" key="57" pos="576" pan="0" len="36"/>
          <note vol="100" key="57" pos="612" pan="0" len="36"/>
          <note vol="100" key="57" pos="648" pan="0" len="24"/>
          <note vol="100" key="57" pos="672" pan="0" len="12"/>
          <note vol="100" key="57" pos="684" pan="0" len="12"/>
          <note vol="100" key="57" pos="708" pan="0" len="60"/>
        </pattern>
        <pattern muted="0" pos="6144" steps="16" type="1" name="Bass">
          <note vol="100" key="57" pos="0" pan="0" len="36"/>
          <note vol="100" key="57" pos="36" pan="0" len="36"/>
          <note vol="100" key="57" pos="72" pan="0" len="24"/>
          <note vol="100" key="57" pos="96" pan="0" len="12"/>
          <note vol="100" key="57" pos="108" pan="0" len="12"/>
          <note vol="100" key="57" pos="132" pan="0" len="60"/>
          <note vol="100" key="57" pos="192" pan="0" len="36"/>
          <note vol="100" key="57" pos="228" pan="0" len="36"/>
          <note vol="100" key="57" pos="264" pan="0" len="24"/>
          <note vol="100" key="57" pos="288" pan="0" len="12"/>
          <note vol="100" key="57" pos="300" pan="0" len="12"/>
          <note vol="100" key="57" pos="324" pan="0" len="60"/>
          <note vol="100" key="57" pos="384" pan="0" len="36"/>
          <note vol="100" key="57" pos="420" pan="0" len="36"/>
          <note vol="100" key="57" pos="456" pan="0" len="24"/>
          <note vol="100" key="57" pos="480" pan="0" len="12"/>
          <note vol="100" key="57" pos="492" pan="0" len="12"/>
          <note vol="100" key="58" pos="516" pan="0" len="60"/>
          <note vol="100" key="57" pos="576" pan="0" len="36"/>
          <note vol="100" key="57" pos="612" pan="0" len="36"/>
          <note vol="100" key="57" pos="648" pan="0" len="24"/>
          <note vol="100" key="57" pos="672" pan="0" len="12"/>
          <note vol="100" key="57" pos="684" pan="0" len="12"/>
          <note vol="100" key="57" pos="708" pan="0" len="60"/>
        </pattern>
        <pattern muted="0" pos="6912" steps="16" type="1" name="Bass">
          <note vol="100" key="57" pos="0" pan="0" len="36"/>
          <note vol="100" key="57" pos="36" pan="0" len="36"/>
          <note vol="100" key="57" pos="72" pan="0" len="24"/>
          <note vol="100" key="57" pos="96" pan="0" len="12"/>
          <note vol="100" key="57" pos="108" pan="0" len="12"/>
          <note vol="100" key="57" pos="132" pan="0" len="60"/>
          <note vol="100" key="57" pos="192" pan="0" len="36"/>
          <note vol="100" key="57" pos="228" pan="0" len="36"/>
          <note vol="100" key="57" pos="264" pan="0" len="24"/>
          <note vol="100" key="57" pos="288" pan="0" len="12"/>
          <note vol="100" key="57" pos="300" pan="0" len="12"/>
          <note vol="100" key="57" pos="324" pan="0" len="60"/>
          <note vol="100" key="57" pos="384" pan="0" len="36"/>
          <note vol="100" key="57" pos="420" pan="0" len="36"/>
          <note vol="100" key="57" pos="456" pan="0" len="24"/>
          <note vol="100" key="57" pos="480" pan="0" len="12"/>
          <note vol="100" key="57" pos="492" pan="0" len="12"/>
          <note vol="100" key="58" pos="516" pan="0" len="60"/>
          <note vol="100" key="57" pos="576" pan="0" len="36"/>
          <note vol="100" key="57" pos="612" pan="0" len="36"/>
          <note vol="100" key="57" pos="648" pan="0" len="24"/>
          <note vol="100" key="57" pos="672" pan="0" len="12"/>
          <note vol="100" key="57" pos="684" pan="0" len="12"/>
          <note vol="100" key="57" pos="708" pan="0" len="60"/>
        </pattern>
        <pattern muted="0" pos="7680" steps="16" type="1" name="Bass">
          <note vol="100" key="57" pos="0" pan="0" len="36"/>
          <note vol="100" key="57" pos="36" pan="0" len="36"/>
          <note vol="100" key="57" pos="72" pan="0" len="24"/>
          <note vol="100" key="57" pos="96" pan="0" len="12"/>
          <note vol="100" key="57" pos="108" pan="0" len="12"/>
          <note vol="100" key="57" pos="132" pan="0" len="60"/>
          <note vol="100" key="57" pos="192" pan="0" len="36"/>
          <note vol="100" key="57" pos="228" pan="0" len="36"/>
          <note vol="100" key="57" pos="264" pan="0" len="24"/>
          <note vol="100" key="57" pos="288" pan="0" len="12"/>
          <note vol="100" key="57" pos="300" pan="0" len="12"/>
          <note vol="100" key="57" pos="324" pan="0" len="60"/>
          <note vol="100" key="57" pos="384" pan="0" len="36"/>
          <note vol="100" key="57" pos="420" pan="0" len="36"/>
          <note vol="100" key="57" pos="456" pan="0" len="24"/>
          <note vol="100" key="57" pos="480" pan="0" len="12"/>
          <note vol="100" key="57" pos="492" pan="0" len="12"/>
          <note vol="100" key="58" pos="516" pan="0" len="60"/>
          <note vol="100" key="57" pos="576" pan="0" len="36"/>
          <note vol="100" key="57" pos="612" pan="0" len="36"/>
          <note vol="100" key="57" pos="648" pan="0" len="24"/>
          <note vol="100" key="57" pos="672" pan="0" len="12"/>
          <note vol="100" key="57" pos="684" pan="0" len="12"/>
          <note vol="100" key="57" pos="708" pan="0" len="60"/>
        </pattern>
        <pattern muted="0" pos="8448" steps="16" type="1" name="Bass">
          <note vol="100" key="57" pos="0" pan="0" len="36"/>
          <note vol="100" key="57" pos="36" pan="0" len="36"/>
          <note vol="100" key="57" pos="72" pan="0" len="24"/>
          <note vol="100" key="57" pos="96" pan="0" len="12"/>
          <note vol="100" key="57" pos="108" pan="0" len="12"/>
          <note vol="100" key="57" pos="132" pan="0" len="60"/>
          <note vol="100" key="57" pos="192" pan="0" len="36"/>
          <note vol="100" key="57" pos="228" pan="0" len="36"/>
          <note vol="100" key="57" pos="264" pan="0" len="24"/>
          <note vol="100" key="57" pos="288" pan="0" len="12"/>
          <note vol="100" key="57" pos="300" pan="0" len="12"/>
          <note vol="100" key="57" pos="324" pan="0" len="60"/>
          <note vol="100" key="57" pos="384" pan="0" len="36"/>
          <note vol="100" key="57" pos="420" pan="0" len="36"/>
          <note vol="100" key="57" pos="456" pan="0" len="24"/>
          <note vol="100" key="57" pos="480" pan="0" len="12"/>
          <note vol="100" key="57" pos="492" pan="0" len="12"/>
          <note vol="100" key="58" pos="516" pan="0" len="60"/>
          <note vol="100" key="57" pos="576" pan="0" len="36"/>
          <note vol="100" key="57" pos="612" pan="0" len="36"/>
          <note vol="100" key="57" pos="648" pan="0" len="24"/>
          <note vol="100" key="57" pos="672" pan="0" len="12"/>
          <note vol="100" key="57" pos="684" pan="0" len="12"/>
          <note vol="100" key="57" pos="708" pan="0" len="60"/>
        </pattern>
        <pattern muted="0" pos="9216" steps="16" type="1" name="Bass">
          <note vol="100" key="57" pos="0" pan="0" len="36"/>
          <note vol="100" key="57" pos="36" pan="0" len="36"/>
          <note vol="100" key="57" pos="72" pan="0" len="24"/>
          <note vol="100" key="57" pos="96" pan="0" len="12"/>
          <note vol="100" key="57" pos="108" pan="0" len="12"/>
          <note vol="100" key="57" pos="132" pan="0" len="60"/>
          <note vol="100" key="57" pos="192" pan="0" len="36"/>
          <note vol="100" key="57" pos="228" pan="0" len="36"/>
          <note vol="100" key="57" pos="264" pan="0" len="24"/>
          <note vol="100" key="57" pos="288" pan="0" len="12"/>
          <note vol="100" key="57" pos="300" pan="0" len="12"/>
          <note vol="100" key="57" pos="324" pan="0" len="60"/>
          <note vol="100" key="57" pos="384" pan="0" len="36"/>
          <note vol="100" key="57" pos="420" pan="0" len="36"/>
          <note vol="100" key="57" pos="456" pan="0" len="24"/>
          <note vol="100" key="57" pos="480" pan="0" len="12"/>
          <note vol="100" key="57" pos="492" pan="0" len="12"/>
          <note vol="100" key="58" pos="516" pan="0" len="60"/>
          <note vol="100" key="57" pos="576" pan="0" len="36"/>
          <note vol="100" key="57" pos="612" pan="0" len="36"/>
          <note vol="100" key="57" pos="648" pan="0" len="24"/>
          <note vol="100" key="57" pos="672" pan="0" len="12"/>
          <note vol="100" key="57" pos="684" pan="0" len="12"/>
          <note vol="100" key="57" pos="708" pan="0" len="60"/>
        </pattern>
        <pattern muted="0" pos="9984" steps="16" type="1" name="Bass">
          <note vol="100" key="57" pos="0" pan="0" len="36"/>
          <note vol="100" key="57" pos="36" pan="0" len="36"/>
          <note vol="100" key="57" pos="72" pan="0" len="24"/>
          <note vol="100" key="57" pos="96" pan="0" len="12"/>
          <note vol="100" key="57" pos="108" pan="0" len="12"/>
          <note vol="100" key="57" pos="132" pan="0" len="60"/>
          <note vol="100" key="57" pos="192" pan="0" len="36"/>
          <note vol="100" key="57" pos="228" pan="0" len="36"/>
          <note vol="100" key="57" pos="264" pan="0" len="24"/>
          <note vol="100" key="57" pos="288" pan="0" len="12"/>
          <note vol="100" key="57" pos="300" pan="0" len="12"/>
          <note vol="100" key="57" pos="324" pan="0" len="60"/>
          <note vol="100" key="57" pos="384" pan="0" len="36"/>
          <note vol="100" key="57" pos="420" pan="0" len="36"/>
          <note vol="100" key="57" pos="456" pan="0" len="24"/>
          <note vol="100" key="57" pos="480" pan="0" len="12"/>
          <note vol="100" key="57" pos="492" pan="0" len="12"/>
          <note vol="100" key="58" pos="516" pan="0" len="60"/>
          <note vol="100" key="57" pos="576" pan="0" len="36"/>
          <note vol="100" key="57" pos="612" pan="0" len="36"/>
          <note vol="100" key="57" pos="648" pan="0" len="24"/>
          <note vol="100" key="57" pos="672" pan="0" len="12"/>
          <note vol="100" key="57" pos="684" pan="0" len="12"/>
          <note vol="100" key="57" pos="708" pan="0" len="60"/>
        </pattern>
        <pattern muted="0" pos="10752" steps="16" type="1" name="Bass">
          <note vol="100" key="57" pos="0" pan="0" len="36"/>
          <note vol="100" key="57" pos="36" pan="0" len="36"/>
          <note vol="100" key="57" pos="72" pan="0" len="24"/>
          <note vol="100" key="57" pos="96" pan="0" len="12"/>
          <note vol="100" key="57" pos="108" pan="0" len="12"/>
          <note vol="100" key="57" pos="132" pan="0" len="60"/>
          <note vol="100" key="57" pos="192" pan="0" len="36"/>
          <note vol="100" key="57" pos="228" pan="0" len="36"/>
          <note vol="100" key="57" pos="264" pan="0" len="24"/>
          <note vol="100" key="57" pos="288" pan="0" len="12"/>
          <note vol="100" key="57" pos="300" pan="0" len="12"/>
          <note vol="100" key="57" pos="324" pan="0" len="60"/>
          <note vol="100" key="57" pos="384" pan="0" len="36"/>
          <note vol="100" key="57" pos="420" pan="0" len="36"/>
          <note vol="100" key="57" pos="456" pan="0" len="24"/>
          <note vol="100" key="57" pos="480" pan="0" len="12"/>
          <note vol="100" key="57" pos="492" pan="0" len="12"/>
          <note vol="100" key="58" pos="516" pan="0" len="60"/>
          <note vol="100" key="57" pos="576" pan="0" len="36"/>
          <note vol="100" key="57" pos="612" pan="0" len="36"/>
          <note vol="100" key="57" pos="648" pan="0" len="24"/>
          <note vol="100" key="57" pos="672" pan="0" len="12"/>
          <note vol="100" key="57" pos="684" pan="0" len="12"/>
          <note vol="100" key="57" pos="708" pan="0" len="60"/>
        </pattern>
        <pattern muted="0" pos="11520" steps="16" type="1" name="Bass">
          <note vol="100" key="57" pos="0" pan="0" len="36"/>
          <note vol="100" key="57" pos="36" pan="0" len="36"/>
          <note vol="100" key="57" pos="72" pan="0" len="24"/>
          <note vol="100" key="57" pos="96" pan="0" len="12"/>
          <note vol="100" key="57" pos="108" pan="0" len="12"/>
          <note vol="100" key="57" pos="132" pan="0" len="60"/>
          <note vol="100" key="57" pos="192" pan="0" len="36"/>
          <note vol="100" key="57" pos="228" pan="0" len="36"/>
          <note vol="100" key="57" pos="264" pan="0" len="24"/>
          <note vol="100" key="57" pos="288" pan="0" len="12"/>
          <note vol="100" key="57" pos="300" pan="0" len="12"/>
          <note vol="100" key="57" pos="324" pan="0" len="60"/>
          <note vol="100" key="57" pos="384" pan="0" len="36"/>
          <note vol="100" key="57" pos="420" pan="0" len="36"/>
          <note vol="100" key="57" pos="456" pan="0" len="24"/>
          <note vol="100" key="57" pos="480" pan="0" len="12"/>
          <note vol="100" key="57" pos="492" pan="0" len="12"/>
          <note vol="100" key="58" pos="516" pan="0" len="60"/>
          <note vol="100" key="57" pos="576" pan="0" len="36"/>
          <note vol="100" key="57" pos="612" pan="0" len="36"/>
          <note vol="100" key="57" pos="648" pan="0" len="24"/>
          <note vol="100" key="57" pos="672" pan="0" len="12"/>
          <note vol="100" key="57" pos="684" pan="0" len="12"/>
          <note vol="100" key="57" pos="708" pan="0" len="60"/>
        </pattern>
        <pattern muted="0" pos="12288" steps="16" type="1" name="Bass">
          <note vol="100" key="57" pos="0" pan="0" len="36"/>
          <note vol="100" key="57" pos="36" pan="0" len="36"/>
          <note vol="100" key="57" pos="72" pan="0" len="24"/>
          <note vol="100" key="57" pos="96" pan="0" len="12"/>
          <note vol="100" key="57" pos="108" pan="0" len="12"/>
          <note vol="100" key="57" pos="132" pan="0" len="60"/>
          <note vol="100" key="57" pos="192" pan="0" len="36"/>
          <note vol="100" key="57" pos="228" pan="0" len="36"/>
          <note vol="100" key="57" pos="264" pan="0" len="24"/>
          <note vol="100" key="57" pos="288" pan="0" len="12"/>
          <note vol="100" key="57" pos="300" pan="0" len="12"/>
          <note vol="100" key="57" pos="324" pan="0" len="60"/>
          <note vol="100" key="57" pos="384" pan="0" len="36"/>
          <note vol="100" key="57" pos="420" pan="0" len="36"/>
          <note vol="100" key="57" pos="456" pan="0" len="24"/>
          <note vol="100" key="57" pos="480" pan="0" len="12"/>
          <note vol="100" key="57" pos="492" pan="0" len="12"/>
          <note vol="100" key="58" pos="516" pan="0" len="60"/>
          <note vol="100" key="57" pos="576" pan="0" len="36"/>
          <note vol="100" key="57" pos="612" pan="0" len="36"/>
          <note vol="100" key="57" pos="648" pan="0" len="24"/>
          <note vol="100" key="57" pos="672" pan="0" len="12"/>
          <note vol="100" key="57" pos="684" pan="0" len="12"/>
          <note vol="100" key="57" pos="708" pan="0" len="60"/>
        </pattern>
        <pattern muted="0" pos="16128" steps="16" type="1" name="Bass">
          <note vol="100" key="57" pos="0" pan="0" len="36"/>
          <note vol="100" key="57" pos="36" pan="0" len="36"/>
          <note vol="100" key="57" pos="72" pan="0" len="24"/>
          <note vol="100" key="57" pos="96" pan="0" len="12"/>
          <note vol="100" key="57" pos="108" pan="0" len="12"/>
          <note vol="100" key="57" pos="132" pan="0" len="60"/>
          <note vol="100" key="57" pos="192" pan="0" len="36"/>
          <note vol="100" key="57" pos="228" pan="0" len="36"/>
          <note vol="100" key="57" pos="264" pan="0" len="24"/>
          <note vol="100" key="57" pos="288" pan="0" len="12"/>
          <note vol="100" key="57" pos="300" pan="0" len="12"/>
          <note vol="100" key="57" pos="324" pan="0" len="60"/>
          <note vol="100" key="57" pos="384" pan="0" len="36"/>
          <note vol="100" key="57" pos="420" pan="0" len="36"/>
          <note vol="100" key="57" pos="456" pan="0" len="24"/>
          <note vol="100" key="57" pos="480" pan="0" len="12"/>
          <note vol="100" key="57" pos="492" pan="0" len="12"/>
          <note vol="100" key="58" pos="516" pan="0" len="60"/>
          <note vol="100" key="57" pos="576" pan="0" len="36"/>
          <note vol="100" key="57" pos="612" pan="0" len="36"/>
          <note vol="100" key="57" pos="648" pan="0" len="24"/>
          <note vol="100" key="57" pos="672" pan="0" len="12"/>
          <note vol="100" key="57" pos="684" pan="0" len="12"/>
          <note vol="100" key="57" pos="708" pan="0" len="60"/>
        </pattern>
        <pattern muted="0" pos="16896" steps="16" type="1" name="Bass">
          <note vol="100" key="57" pos="0" pan="0" len="36"/>
          <note vol="100" key="57" pos="36" pan="0" len="36"/>
          <note vol="100" key="57" pos="72" pan="0" len="24"/>
          <note vol="100" key="57" pos="96" pan="0" len="12"/>
          <note vol="100" key="57" pos="108" pan="0" len="12"/>
          <note vol="100" key="57" pos="132" pan="0" len="60"/>
          <note vol="100" key="57" pos="192" pan="0" len="36"/>
          <note vol="100" key="57" pos="228" pan="0" len="36"/>
          <note vol="100" key="57" pos="264" pan="0" len="24"/>
          <note vol="100" key="57" pos="288" pan="0" len="12"/>
          <note vol="100" key="57" pos="300" pan="0" len="12"/>
          <note vol="100" key="57" pos="324" pan="0" len="60"/>
          <note vol="100" key="57" pos="384" pan="0" len="36"/>
          <note vol="100" key="57" pos="420" pan="0" len="36"/>
          <note vol="100" key="57" pos="456" pan="0" len="24"/>
          <note vol="100" key="57" pos="480" pan="0" len="12"/>
          <note vol="100" key="57" pos="492" pan="0" len="12"/>
          <note vol="100" key="58" pos="516" pan="0" len="60"/>
          <note vol="100" key="57" pos="576" pan="0" len="36"/>
          <note vol="100" key="57" pos="612" pan="0" len="36"/>
          <note vol="100" key="57" pos="648" pan="0" len="24"/>
          <note vol="100" key="57" pos="672" pan="0" len="12"/>
          <note vol="100" key="57" pos="684" pan="0" len="12"/>
          <note vol="100" key="57" pos="708" pan="0" len="60"/>
        </pattern>
        <pattern muted="0" pos="17664" steps="16" type="1" name="Bass">
          <note vol="100" key="57" pos="0" pan="0" len="36"/>
          <note vol="100" key="57" pos="36" pan="0" len="36"/>
          <note vol="100" key="57" pos="72" pan="0" len="24"/>
          <note vol="100" key="57" pos="96" pan="0" len="12"/>
          <note vol="100" key="57" pos="108" pan="0" len="12"/>
          <note vol="100" key="57" pos="132" pan="0" len="60"/>
          <note vol="100" key="57" pos="192" pan="0" len="36"/>
          <note vol="100" key="57" pos="228" pan="0" len="36"/>
          <note vol="100" key="57" pos="264" pan="0" len="24"/>
          <note vol="100" key="57" pos="288" pan="0" len="12"/>
          <note vol="100" key="57" pos="300" pan="0" len="12"/>
          <note vol="100" key="57" pos="324" pan="0" len="60"/>
          <note vol="100" key="57" pos="384" pan="0" len="36"/>
          <note vol="100" key="57" pos="420" pan="0" len="36"/>
          <note vol="100" key="57" pos="456" pan="0" len="24"/>
          <note vol="100" key="57" pos="480" pan="0" len="12"/>
          <note vol="100" key="57" pos="492" pan="0" len="12"/>
          <note vol="100" key="58" pos="516" pan="0" len="60"/>
          <note vol="100" key="57" pos="576" pan="0" len="36"/>
          <note vol="100" key="57" pos="612" pan="0" len="36"/>
          <note vol="100" key="57" pos="648" pan="0" len="24"/>
          <note vol="100" key="57" pos="672" pan="0" len="12"/>
          <note vol="100" key="57" pos="684" pan="0" len="12"/>
          <note vol="100" key="57" pos="708" pan="0" len="60"/>
        </pattern>
        <pattern muted="0" pos="18432" steps="16" type="1" name="Bass">
          <note vol="100" key="57" pos="0" pan="0" len="36"/>
          <note vol="100" key="57" pos="36" pan="0" len="36"/>
          <note vol="100" key="57" pos="72" pan="0" len="24"/>
          <note vol="100" key="57" pos="96" pan="0" len="12"/>
          <note vol="100" key="57" pos="108" pan="0" len="12"/>
          <note vol="100" key="57" pos="132" pan="0" len="60"/>
          <note vol="100" key="57" pos="192" pan="0" len="36"/>
          <note vol="100" key="57" pos="228" pan="0" len="36"/>
          <note vol="100" key="57" pos="264" pan="0" len="24"/>
          <note vol="100" key="57" pos="288" pan="0" len="12"/>
          <note vol="100" key="57" pos="300" pan="0" len="12"/>
          <note vol="100" key="57" pos="324" pan="0" len="60"/>
          <note vol="100" key="57" pos="384" pan="0" len="36"/>
          <note vol="100" key="57" pos="420" pan="0" len="36"/>
          <note vol="100" key="57" pos="456" pan="0" len="24"/>
          <note vol="100" key="57" pos="480" pan="0" len="12"/>
          <note vol="100" key="57" pos="492" pan="0" len="12"/>
          <note vol="100" key="58" pos="516" pan="0" len="60"/>
          <note vol="100" key="57" pos="576" pan="0" len="36"/>
          <note vol="100" key="57" pos="612" pan="0" len="36"/>
          <note vol="100" key="57" pos="648" pan="0" len="24"/>
          <note vol="100" key="57" pos="672" pan="0" len="12"/>
          <note vol="100" key="57" pos="684" pan="0" len="12"/>
          <note vol="100" key="57" pos="708" pan="0" len="60"/>
        </pattern>
        <pattern muted="0" pos="19200" steps="16" type="1" name="Bass">
          <note vol="100" key="57" pos="0" pan="0" len="36"/>
          <note vol="100" key="57" pos="36" pan="0" len="36"/>
          <note vol="100" key="57" pos="72" pan="0" len="24"/>
          <note vol="100" key="57" pos="96" pan="0" len="12"/>
          <note vol="100" key="57" pos="108" pan="0" len="12"/>
          <note vol="100" key="57" pos="132" pan="0" len="60"/>
          <note vol="100" key="57" pos="192" pan="0" len="36"/>
          <note vol="100" key="57" pos="228" pan="0" len="36"/>
          <note vol="100" key="57" pos="264" pan="0" len="24"/>
          <note vol="100" key="57" pos="288" pan="0" len="12"/>
          <note vol="100" key="57" pos="300" pan="0" len="12"/>
          <note vol="100" key="57" pos="324" pan="0" len="60"/>
          <note vol="100" key="57" pos="384" pan="0" len="36"/>
          <note vol="100" key="57" pos="420" pan="0" len="36"/>
          <note vol="100" key="57" pos="456" pan="0" len="24"/>
          <note vol="100" key="57" pos="480" pan="0" len="12"/>
          <note vol="100" key="57" pos="492" pan="0" len="12"/>
          <note vol="100" key="58" pos="516" pan="0" len="60"/>
          <note vol="100" key="57" pos="576" pan="0" len="36"/>
          <note vol="100" key="57" pos="612" pan="0" len="36"/>
          <note vol="100" key="57" pos="648" pan="0" len="24"/>
          <note vol="100" key="57" pos="672" pan="0" len="12"/>
          <note vol="100" key="57" pos="684" pan="0" len="12"/>
          <note vol="100" key="57" pos="708" pan="0" len="60"/>
        </pattern>
        <pattern muted="0" pos="19968" steps="16" type="1" name="Bass">
          <note vol="100" key="57" pos="0" pan="0" len="36"/>
          <note vol="100" key="57" pos="36" pan="0" len="36"/>
          <note vol="100" key="57" pos="72" pan="0" len="24"/>
          <note vol="100" key="57" pos="96" pan="0" len="12"/>
          <note vol="100" key="57" pos="108" pan="0" len="12"/>
          <note vol="100" key="57" pos="132" pan="0" len="60"/>
          <note vol="100" key="57" pos="192" pan="0" len="36"/>
          <note vol="100" key="57" pos="228" pan="0" len="36"/>
          <note vol="100" key="57" pos="264" pan="0" len="24"/>
          <note vol="100" key="57" pos="288" pan="0" len="12"/>
          <note vol="100" key="57" pos="300" pan="0" len="12"/>
          <note vol="100" key="57" pos="324" pan="0" len="60"/>
          <note vol="100" key="57" pos="384" pan="0" len="36"/>
          <note vol="100" key="57" pos="420" pan="0" len="36"/>
          <note vol="100" key="57" pos="456" pan="0" len="24"/>
          <note vol="100" key="57" pos="480" pan="0" len="12"/>
          <note vol="100" key="57" pos="492" pan="0" len="12"/>
          <note vol="100" key="58" pos="516" pan="0" len="60"/>
          <note vol="100" key="57" pos="576" pan="0" len="36"/>
          <note vol="100" key="57" pos="612" pan="0" len="36"/>
          <note vol="100" key="57" pos="648" pan="0" len="24"/>
          <note vol="100" key="57" pos="672" pan="0" len="12"/>
          <note vol="100" key="57" pos="684" pan="0" len="12"/>
          <note vol="100" key="57" pos="708" pan="0" len="60"/>
        </pattern>
        <pattern muted="0" pos="20736" steps="16" type="1" name="Bass">
          <note vol="100" key="57" pos="0" pan="0" len="36"/>
          <note vol="100" key="57" pos="36" pan="0" len="36"/>
          <note vol="100" key="57" pos="72" pan="0" len="24"/>
          <note vol="100" key="57" pos="96" pan="0" len="12"/>
          <note vol="100" key="57" pos="108" pan="0" len="12"/>
          <note vol="100" key="57" pos="132" pan="0" len="60"/>
          <note vol="100" key="57" pos="192" pan="0" len="36"/>
          <note vol="100" key="57" pos="228" pan="0" len="36"/>
          <note vol="100" key="57" pos="264" pan="0" len="24"/>
          <note vol="100" key="57" pos="288" pan="0" len="12"/>
          <note vol="100" key="57" pos="300" pan="0" len="12"/>
          <note vol="100" key="57" pos="324" pan="0" len="60"/>
          <note vol="100" key="57" pos="384" pan="0" len="36"/>
          <note vol="100" key="57" pos="420" pan="0" len="36"/>
          <note vol="100" key="57" pos="456" pan="0" len="24"/>
          <note vol="100" key="57" pos="480" pan="0" len="12"/>
          <note vol="100" key="57" pos="492" pan="0" len="12"/>
          <note vol="100" key="58" pos="516" pan="0" len="60"/>
          <note vol="100" key="57" pos="576" pan="0" len="36"/>
          <note vol="100" key="57" pos="612" pan="0" len="36"/>
          <note vol="100" key="57" pos="648" pan="0" len="24"/>
          <note vol="100" key="57" pos="672" pan="0" len="12"/>
          <note vol="100" key="57" pos="684" pan="0" len="12"/>
          <note vol="100" key="57" pos="708" pan="0" len="60"/>
        </pattern>
        <pattern muted="0" pos="21504" steps="16" type="1" name="Bass">
          <note vol="100" key="57" pos="0" pan="0" len="36"/>
          <note vol="100" key="57" pos="36" pan="0" len="36"/>
          <note vol="100" key="57" pos="72" pan="0" len="24"/>
          <note vol="100" key="57" pos="96" pan="0" len="12"/>
          <note vol="100" key="57" pos="108" pan="0" len="12"/>
          <note vol="100" key="57" pos="132" pan="0" len="60"/>
          <note vol="100" key="57" pos="192" pan="0" len="36"/>
          <note vol="100" key="57" pos="228" pan="0" len="36"/>
          <note vol="100" key="57" pos="264" pan="0" len="24"/>
          <note vol="100" key="57" pos="288" pan="0" len="12"/>
          <note vol="100" key="57" pos="300" pan="0" len="12"/>
          <note vol="100" key="57" pos="324" pan="0" len="60"/>
          <note vol="100" key="57" pos="384" pan="0" len="36"/>
          <note vol="100" key="57" pos="420" pan="0" len="36"/>
          <note vol="100" key="57" pos="456" pan="0" len="24"/>
          <note vol="100" key="57" pos="480" pan="0" len="12"/>
          <note vol="100" key="57" pos="492" pan="0" len="12"/>
          <note vol="100" key="58" pos="516" pan="0" len="60"/>
          <note vol="100" key="57" pos="576" pan="0" len="36"/>
          <note vol="100" key="57" pos="612" pan="0" len="36"/>
          <note vol="100" key="57" pos="648" pan="0" len="24"/>
          <note vol="100" key="57" pos="672" pan="0" len="12"/>
          <note vol="100" key="57" pos="684" pan="0" len="12"/>
          <note vol="100" key="57" pos="708" pan="0" len="60"/>
        </pattern>
        <pattern muted="0" pos="22272" steps="16" type="1" name="Bass">
          <note vol="100" key="57" pos="0" pan="0" len="36"/>
          <note vol="100" key="57" pos="36" pan="0" len="36"/>
          <note vol="100" key="57" pos="72" pan="0" len="24"/>
          <note vol="100" key="57" pos="96" pan="0" len="12"/>
          <note vol="100" key="57" pos="108" pan="0" len="12"/>
          <note vol="100" key="57" pos="132" pan="0" len="60"/>
          <note vol="100" key="57" pos="192" pan="0" len="36"/>
          <note vol="100" key="57" pos="228" pan="0" len="36"/>
          <note vol="100" key="57" pos="264" pan="0" len="24"/>
          <note vol="100" key="57" pos="288" pan="0" len="12"/>
          <note vol="100" key="57" pos="300" pan="0" len="12"/>
          <note vol="100" key="57" pos="324" pan="0" len="60"/>
          <note vol="100" key="57" pos="384" pan="0" len="36"/>
          <note vol="100" key="57" pos="420" pan="0" len="36"/>
          <note vol="100" key="57" pos="456" pan="0" len="24"/>
          <note vol="100" key="57" pos="480" pan="0" len="12"/>
          <note vol="100" key="57" pos="492" pan="0" len="12"/>
          <note vol="100" key="58" pos="516" pan="0" len="60"/>
          <note vol="100" key="57" pos="576" pan="0" len="36"/>
          <note vol="100" key="57" pos="612" pan="0" len="36"/>
          <note vol="100" key="57" pos="648" pan="0" len="24"/>
          <note vol="100" key="57" pos="672" pan="0" len="12"/>
          <note vol="100" key="57" pos="684" pan="0" len="12"/>
          <note vol="100" key="57" pos="708" pan="0" len="60"/>
        </pattern>
        <pattern muted="0" pos="23040" steps="16" type="1" name="Bass">
          <note vol="100" key="57" pos="0" pan="0" len="36"/>
          <note vol="100" key="57" pos="36" pan="0" len="36"/>
          <note vol="100" key="57" pos="72" pan="0" len="24"/>
          <note vol="100" key="57" pos="96" pan="0" len="12"/>
          <note vol="100" key="57" pos="108" pan="0" len="12"/>
          <note vol="100" key="57" pos="132" pan="0" len="60"/>
          <note vol="100" key="57" pos="192" pan="0" len="36"/>
          <note vol="100" key="57" pos="228" pan="0" len="36"/>
          <note vol="100" key="57" pos="264" pan="0" len="24"/>
          <note vol="100" key="57" pos="288" pan="0" len="12"/>
          <note vol="100" key="57" pos="300" pan="0" len="12"/>
          <note vol="100" key="57" pos="324" pan="0" len="60"/>
          <note vol="100" key="57" pos="384" pan="0" len="36"/>
          <note vol="100" key="57" pos="420" pan="0" len="36"/>
          <note vol="100" key="57" pos="456" pan="0" len="24"/>
          <note vol="100" key="57" pos="480" pan="0" len="12"/>
          <note vol="100" key="57" pos="492" pan="0" len="12"/>
          <note vol="100" key="58" pos="516" pan="0" len="60"/>
          <note vol="100" key="57" pos="576" pan="0" len="36"/>
          <note vol="100" key="57" pos="612" pan="0" len="36"/>
          <note vol="100" key="57" pos="648" pan="0" len="24"/>
          <note vol="100" key="57" pos="672" pan="0" len="12"/>
          <note vol="100" key="57" pos="684" pan="0" len="12"/>
          <note vol="100" key="57" pos="708" pan="0" len="60"/>
        </pattern>
        <pattern muted="0" pos="23808" steps="16" type="1" name="Bass">
          <note vol="100" key="57" pos="0" pan="0" len="36"/>
          <note vol="100" key="57" pos="36" pan="0" len="36"/>
          <note vol="100" key="57" pos="72" pan="0" len="24"/>
          <note vol="100" key="57" pos="96" pan="0" len="12"/>
          <note vol="100" key="57" pos="108" pan="0" len="12"/>
          <note vol="100" key="57" pos="132" pan="0" len="60"/>
          <note vol="100" key="57" pos="192" pan="0" len="36"/>
          <note vol="100" key="57" pos="228" pan="0" len="36"/>
          <note vol="100" key="57" pos="264" pan="0" len="24"/>
          <note vol="100" key="57" pos="288" pan="0" len="12"/>
          <note vol="100" key="57" pos="300" pan="0" len="12"/>
          <note vol="100" key="57" pos="324" pan="0" len="60"/>
          <note vol="100" key="57" pos="384" pan="0" len="36"/>
          <note vol="100" key="57" pos="420" pan="0" len="36"/>
          <note vol="100" key="57" pos="456" pan="0" len="24"/>
          <note vol="100" key="57" pos="480" pan="0" len="12"/>
          <note vol="100" key="57" pos="492" pan="0" len="12"/>
          <note vol="100" key="58" pos="516" pan="0" len="60"/>
          <note vol="100" key="57" pos="576" pan="0" len="36"/>
          <note vol="100" key="57" pos="612" pan="0" len="36"/>
          <note vol="100" key="57" pos="648" pan="0" len="24"/>
          <note vol="100" key="57" pos="672" pan="0" len="12"/>
          <note vol="100" key="57" pos="684" pan="0" len="12"/>
          <note vol="100" key="57" pos="708" pan="0" len="60"/>
        </pattern>
      </track>
      <track muted="0" type="0" solo="0" name="Dirty Reece">
        <instrumenttrack vol="30" basenote="57" pitch="0" fxch="2" pan="0" usemasterpitch="1" pitchrange="1">
          <instrument name="tripleoscillator">
            <tripleoscillator modalgo2="2" userwavefile1="" stphdetun1="0" stphdetun2="0" userwavefile0="" pan1="0" modalgo1="2" vol0="33" finel2="20" vol1="33" pan0="0" coarse1="-24" finer1="-15" modalgo3="2" userwavefile2="" finer0="14" wavetype2="2" stphdetun0="0" coarse2="-12" phoffset0="0" finel0="15" wavetype1="2" pan2="0" coarse0="-24" phoffset2="0" phoffset1="0" finer2="20" vol2="33" wavetype0="2" finel1="-14"/>
          </instrument>
          <eldata fcut="13720" ftype="0" fres="2" fwet="1">
            <elvol lspd_denominator="4" lshp="0" lamt="0" lpdel="0" rel="0.1" hold="0.5" lspd_syncmode="0" ctlenvamt="0" lspd="0.1" amt="0" x100="0" lspd_numerator="4" att="0" dec="0.5" userwavefile="" latt="0" pdel="0" sustain="0.5"/>
            <elcut lspd_denominator="4" lshp="0" lamt="0" lpdel="0" rel="0.1" hold="0.5" lspd_syncmode="0" ctlenvamt="0" lspd="0.1" amt="0" x100="0" lspd_numerator="4" att="0" dec="0.5" userwavefile="" latt="0" pdel="0" sustain="0.5"/>
            <elres lspd_denominator="4" lshp="0" lamt="0" lpdel="0" rel="0.1" hold="0.5" lspd_syncmode="0" ctlenvamt="0" lspd="0.1" amt="1" x100="0" lspd_numerator="4" att="0" dec="0.5" userwavefile="" latt="0" pdel="0" sustain="0.5"/>
          </eldata>
          <chordcreator chord="0" chord-enabled="0" chordrange="1"/>
          <arpeggiator arpcycle="0" arp-enabled="0" arptime_syncmode="0" arpmode="0" arpskip="0" arpgate="100" arprange="1" arptime_numerator="4" arptime="100" arpmiss="0" arpdir="0" arptime_denominator="4" arp="0"/>
          <midiport fixedoutputvelocity="-1" writable="0" inputcontroller="0" outputchannel="1" outputcontroller="0" fixedinputvelocity="-1" inputchannel="0" basevelocity="63" readable="0" fixedoutputnote="-1" outputprogram="1"/>
          <fxchain numofeffects="5" enabled="1">
            <effect on="1" autoquit_numerator="4" wet="1" autoquit="8000" name="ladspaeffect" autoquit_syncmode="0" autoquit_denominator="4" gate="0">
              <ladspacontrols ports="12">
                <port04 data="3.168"/>
                <port05 data="9.9989996"/>
                <port06 data="0.69964999"/>
                <port07 data="180"/>
                <port08 data="4"/>
                <port09 data="212.39999"/>
                <port010 data="2"/>
                <port011 data="1"/>
                <port012 data="99.949997"/>
                <port013 data="2998.5"/>
                <port014 data="0.125"/>
                <port015 data="0.38"/>
              </ladspacontrols>
              <key>
                <attribute value="calf" name="file"/>
                <attribute value="MultiChorus" name="plugin"/>
              </key>
            </effect>
            <effect on="0" autoquit_numerator="4" wet="1" autoquit="8000" name="ladspaeffect" autoquit_syncmode="0" autoquit_denominator="4" gate="0">
              <ladspacontrols ports="7">
                <port00 data="2.8"/>
                <port01 data="90"/>
                <port02 data="100"/>
                <port03 data="0"/>
                <port04 data="20"/>
                <port05 data="0"/>
                <port06 data="0"/>
              </ladspacontrols>
              <key>
                <attribute value="tap_chorusflanger" name="file"/>
                <attribute value="tap_chorusflanger" name="plugin"/>
              </key>
            </effect>
            <effect on="0" autoquit_numerator="4" wet="1" autoquit="8000" name="ladspaeffect" autoquit_syncmode="0" autoquit_denominator="4" gate="0">
              <ladspacontrols ports="4">
                <port02 data="0.50196999"/>
                <port03 data="0.37450001"/>
                <port04 data="0.99949998"/>
                <port05 data="0.25"/>
              </ladspacontrols>
              <key>
                <attribute value="caps" name="file"/>
                <attribute value="Plate2x2" name="plugin"/>
              </key>
            </effect>
            <effect on="1" autoquit_numerator="4" wet="1" autoquit="8000" name="ladspaeffect" autoquit_syncmode="0" autoquit_denominator="4" gate="0">
              <ladspacontrols ports="6" link="1">
                <port00 link="1" data="-3"/>
                <port01 link="1" data="1"/>
                <port02 link="1" data="0"/>
                <port10 data="-3"/>
                <port11 data="1"/>
                <port12 data="0"/>
              </ladspacontrols>
              <key>
                <attribute value="hard_limiter_1413" name="file"/>
                <attribute value="hardLimiter" name="plugin"/>
              </key>
            </effect>
            <effect on="1" autoquit_numerator="4" wet="1" autoquit="1" name="ladspaeffect" autoquit_syncmode="0" autoquit_denominator="4" gate="0">
              <ladspacontrols ports="9">
                <port04 data="0"/>
                <port05 data="1"/>
                <port06 data="1"/>
                <port015 data="0"/>
                <port016>
                  <data scale_type="log" id="3370038" value="1"/>
                </port016>
                <port017 data="0.69999999"/>
                <port018 data="0.5"/>
                <port019 data="0"/>
                <port020 data="0"/>
              </ladspacontrols>
              <key>
                <attribute value="calf" name="file"/>
                <attribute value="Pulsator" name="plugin"/>
              </key>
            </effect>
          </fxchain>
        </instrumenttrack>
        <pattern muted="0" pos="13056" steps="16" type="1" name="">
          <note vol="100" key="57" pos="0" pan="0" len="36"/>
          <note vol="100" key="57" pos="36" pan="0" len="36"/>
          <note vol="100" key="57" pos="72" pan="0" len="24"/>
          <note vol="100" key="57" pos="96" pan="0" len="12"/>
          <note vol="100" key="57" pos="108" pan="0" len="12"/>
          <note vol="100" key="57" pos="132" pan="0" len="60"/>
          <note vol="100" key="57" pos="192" pan="0" len="36"/>
          <note vol="100" key="57" pos="228" pan="0" len="36"/>
          <note vol="100" key="57" pos="264" pan="0" len="24"/>
          <note vol="100" key="57" pos="288" pan="0" len="12"/>
          <note vol="100" key="57" pos="300" pan="0" len="12"/>
          <note vol="100" key="57" pos="324" pan="0" len="60"/>
          <note vol="100" key="57" pos="384" pan="0" len="36"/>
          <note vol="100" key="57" pos="420" pan="0" len="36"/>
          <note vol="100" key="57" pos="456" pan="0" len="24"/>
          <note vol="100" key="57" pos="480" pan="0" len="12"/>
          <note vol="100" key="57" pos="492" pan="0" len="12"/>
          <note vol="100" key="58" pos="516" pan="0" len="60"/>
          <note vol="100" key="57" pos="576" pan="0" len="36"/>
          <note vol="100" key="57" pos="612" pan="0" len="36"/>
          <note vol="100" key="57" pos="648" pan="0" len="24"/>
          <note vol="100" key="57" pos="672" pan="0" len="12"/>
          <note vol="100" key="57" pos="684" pan="0" len="12"/>
          <note vol="100" key="57" pos="708" pan="0" len="60"/>
        </pattern>
        <pattern muted="0" pos="13824" steps="16" type="1" name="">
          <note vol="100" key="57" pos="0" pan="0" len="36"/>
          <note vol="100" key="57" pos="36" pan="0" len="36"/>
          <note vol="100" key="57" pos="72" pan="0" len="24"/>
          <note vol="100" key="57" pos="96" pan="0" len="12"/>
          <note vol="100" key="57" pos="108" pan="0" len="12"/>
          <note vol="100" key="57" pos="132" pan="0" len="60"/>
          <note vol="100" key="57" pos="192" pan="0" len="36"/>
          <note vol="100" key="57" pos="228" pan="0" len="36"/>
          <note vol="100" key="57" pos="264" pan="0" len="24"/>
          <note vol="100" key="57" pos="288" pan="0" len="12"/>
          <note vol="100" key="57" pos="300" pan="0" len="12"/>
          <note vol="100" key="57" pos="324" pan="0" len="60"/>
          <note vol="100" key="57" pos="384" pan="0" len="36"/>
          <note vol="100" key="57" pos="420" pan="0" len="36"/>
          <note vol="100" key="57" pos="456" pan="0" len="24"/>
          <note vol="100" key="57" pos="480" pan="0" len="12"/>
          <note vol="100" key="57" pos="492" pan="0" len="12"/>
          <note vol="100" key="58" pos="516" pan="0" len="60"/>
          <note vol="100" key="57" pos="576" pan="0" len="36"/>
          <note vol="100" key="57" pos="612" pan="0" len="36"/>
          <note vol="100" key="57" pos="648" pan="0" len="24"/>
          <note vol="100" key="57" pos="672" pan="0" len="12"/>
          <note vol="100" key="57" pos="684" pan="0" len="12"/>
          <note vol="100" key="57" pos="708" pan="0" len="60"/>
        </pattern>
        <pattern muted="0" pos="14592" steps="16" type="1" name="">
          <note vol="100" key="57" pos="0" pan="0" len="36"/>
          <note vol="100" key="57" pos="36" pan="0" len="36"/>
          <note vol="100" key="57" pos="72" pan="0" len="24"/>
          <note vol="100" key="57" pos="96" pan="0" len="12"/>
          <note vol="100" key="57" pos="108" pan="0" len="12"/>
          <note vol="100" key="57" pos="132" pan="0" len="60"/>
          <note vol="100" key="57" pos="192" pan="0" len="36"/>
          <note vol="100" key="57" pos="228" pan="0" len="36"/>
          <note vol="100" key="57" pos="264" pan="0" len="24"/>
          <note vol="100" key="57" pos="288" pan="0" len="12"/>
          <note vol="100" key="57" pos="300" pan="0" len="12"/>
          <note vol="100" key="57" pos="324" pan="0" len="60"/>
          <note vol="100" key="57" pos="384" pan="0" len="36"/>
          <note vol="100" key="57" pos="420" pan="0" len="36"/>
          <note vol="100" key="57" pos="456" pan="0" len="24"/>
          <note vol="100" key="57" pos="480" pan="0" len="12"/>
          <note vol="100" key="57" pos="492" pan="0" len="12"/>
          <note vol="100" key="58" pos="516" pan="0" len="60"/>
          <note vol="100" key="57" pos="576" pan="0" len="36"/>
          <note vol="100" key="57" pos="612" pan="0" len="36"/>
          <note vol="100" key="57" pos="648" pan="0" len="24"/>
          <note vol="100" key="57" pos="672" pan="0" len="12"/>
          <note vol="100" key="57" pos="684" pan="0" len="12"/>
          <note vol="100" key="57" pos="708" pan="0" len="60"/>
        </pattern>
        <pattern muted="0" pos="15360" steps="16" type="1" name="">
          <note vol="100" key="57" pos="0" pan="0" len="36"/>
          <note vol="100" key="57" pos="36" pan="0" len="36"/>
          <note vol="100" key="57" pos="72" pan="0" len="24"/>
          <note vol="100" key="57" pos="96" pan="0" len="12"/>
          <note vol="100" key="57" pos="108" pan="0" len="12"/>
          <note vol="100" key="57" pos="132" pan="0" len="60"/>
          <note vol="100" key="57" pos="192" pan="0" len="36"/>
          <note vol="100" key="57" pos="228" pan="0" len="36"/>
          <note vol="100" key="57" pos="264" pan="0" len="24"/>
          <note vol="100" key="57" pos="288" pan="0" len="12"/>
          <note vol="100" key="57" pos="300" pan="0" len="12"/>
          <note vol="100" key="57" pos="324" pan="0" len="60"/>
          <note vol="100" key="57" pos="384" pan="0" len="36"/>
          <note vol="100" key="57" pos="420" pan="0" len="36"/>
          <note vol="100" key="57" pos="456" pan="0" len="24"/>
          <note vol="100" key="57" pos="480" pan="0" len="12"/>
          <note vol="100" key="57" pos="492" pan="0" len="12"/>
          <note vol="100" key="58" pos="516" pan="0" len="60"/>
          <note vol="100" key="57" pos="576" pan="0" len="36"/>
          <note vol="100" key="57" pos="612" pan="0" len="36"/>
          <note vol="100" key="57" pos="648" pan="0" len="24"/>
          <note vol="100" key="57" pos="672" pan="0" len="12"/>
          <note vol="100" key="57" pos="684" pan="0" len="12"/>
          <note vol="100" key="57" pos="708" pan="0" len="60"/>
        </pattern>
      </track>
      <track maximized="0" muted="0" width="262" height="466" x="0" type="0" solo="0" visible="1" name="PowerStrings" minimized="0" tab="3" y="457">
        <instrumenttrack vol="23.800001" basenote="66" pitch="0" fxch="3" pan="0" usemasterpitch="1" pitchrange="1">
          <instrument name="tripleoscillator">
            <tripleoscillator modalgo2="0" userwavefile1="" stphdetun1="259" stphdetun2="92" userwavefile0="" pan1="0" modalgo1="2" vol0="100" finel2="0" vol1="100" pan0="0" coarse1="0" finer1="13" modalgo3="2" userwavefile2="samples/shapes/smooth_inv_saw.ogg" finer0="0" wavetype2="3" stphdetun0="121" coarse2="12" phoffset0="0" finel0="0" wavetype1="2" pan2="0" coarse0="0" phoffset2="80" phoffset1="266" finer2="0" vol2="42" wavetype0="2" finel1="-16"/>
          </instrument>
          <eldata fcut="3224" ftype="7" fres="1.04" fwet="1">
            <elvol lspd_denominator="1" lshp="0" lamt="0" lpdel="0" rel="0.219" hold="0" lspd_syncmode="0" ctlenvamt="0" lspd="0.1" amt="1" x100="0" lspd_numerator="1" att="0" dec="0.79699999" userwavefile="" latt="0" pdel="0" sustain="1"/>
            <elcut lspd_denominator="1" lshp="1" lamt="0" lpdel="0" rel="0.016000001" hold="0" lspd_syncmode="0" ctlenvamt="0" lspd="0.6268" amt="1" x100="0" lspd_numerator="1" att="0" dec="0.336" userwavefile="" latt="0" pdel="0" sustain="0.0020000001"/>
            <elres lspd_denominator="1" lshp="0" lamt="0.43000001" lpdel="0" rel="0.1" hold="0.49900001" lspd_syncmode="0" ctlenvamt="0" lspd="0.6717" amt="0" x100="0" lspd_numerator="1" att="0" dec="0.49900001" userwavefile="" latt="0" pdel="0" sustain="0.50099999"/>
          </eldata>
          <chordcreator chord="0" chord-enabled="1" chordrange="1"/>
          <arpeggiator arpcycle="0" arp-enabled="0" arptime_syncmode="0" arpmode="0" arpskip="0" arpgate="100" arprange="2" arptime_numerator="1" arptime="158" arpmiss="0" arpdir="0" arptime_denominator="1" arp="0"/>
          <midiport fixedoutputvelocity="-1" writable="0" inputcontroller="0" outputchannel="1" outputcontroller="0" fixedinputvelocity="-1" inputchannel="0" basevelocity="127" readable="0" fixedoutputnote="-1" outputprogram="1"/>
          <fxchain numofeffects="4" enabled="1">
            <effect on="1" autoquit_numerator="4" wet="1" autoquit="1" name="bassbooster" autoquit_syncmode="0" autoquit_denominator="4" gate="0">
              <bassboostercontrols gain="1" freq="100" ratio="10"/>
              <key/>
            </effect>
            <effect on="1" autoquit_numerator="4" wet="1" autoquit="8000" name="ladspaeffect" autoquit_syncmode="0" autoquit_denominator="4" gate="0">
              <ladspacontrols ports="4">
                <port02 data="0.50196999"/>
                <port03 data="0.54676998"/>
                <port04 data="0.24987499"/>
                <port05 data="0.36000001"/>
              </ladspacontrols>
              <key>
                <attribute value="caps.so" name="file"/>
                <attribute value="Plate2x2" name="plugin"/>
              </key>
            </effect>
            <effect on="1" autoquit_numerator="4" wet="1" autoquit="1" name="ladspaeffect" autoquit_syncmode="0" autoquit_denominator="4" gate="0">
              <ladspacontrols ports="10">
                <port02 data="-48"/>
                <port03 data="-22.32"/>
                <port04 data="-7.9200001"/>
                <port05 data="0"/>
                <port06 data="0"/>
                <port07 data="0"/>
                <port08 data="0"/>
                <port09 data="1.4400001"/>
                <port010 data="1.98"/>
                <port011 data="4.6799998"/>
              </ladspacontrols>
              <key>
                <attribute value="caps" name="file"/>
                <attribute value="Eq2x2" name="plugin"/>
              </key>
            </effect>
            <effect on="1" autoquit_numerator="4" wet="1" autoquit="1" name="stereomatrix" autoquit_syncmode="0" autoquit_denominator="4" gate="0">
              <stereomatrixcontrols l-r="0" r-l="0" r-r="1" l-l="-1"/>
              <key/>
            </effect>
          </fxchain>
        </instrumenttrack>
        <pattern muted="0" pos="4608" steps="16" type="1" name="PowerStrings">
          <note vol="100" key="55" pos="0" pan="0" len="384"/>
          <note vol="100" key="53" pos="0" pan="0" len="384"/>
          <note vol="100" key="54" pos="384" pan="0" len="384"/>
          <note vol="100" key="53" pos="384" pan="0" len="384"/>
        </pattern>
        <pattern muted="0" pos="5376" steps="16" type="1" name="PowerStrings">
          <note vol="100" key="55" pos="0" pan="0" len="384"/>
          <note vol="100" key="53" pos="0" pan="0" len="384"/>
          <note vol="100" key="54" pos="384" pan="0" len="384"/>
          <note vol="100" key="53" pos="384" pan="0" len="384"/>
        </pattern>
        <pattern muted="0" pos="6144" steps="16" type="1" name="PowerStrings">
          <note vol="100" key="55" pos="0" pan="0" len="384"/>
          <note vol="100" key="53" pos="0" pan="0" len="384"/>
          <note vol="100" key="54" pos="384" pan="0" len="384"/>
          <note vol="100" key="53" pos="384" pan="0" len="384"/>
        </pattern>
        <pattern muted="0" pos="18432" steps="16" type="1" name="PowerStrings">
          <note vol="100" key="53" pos="0" pan="0" len="384"/>
        </pattern>
        <pattern muted="0" pos="19200" steps="16" type="1" name="PowerStrings">
          <note vol="100" key="53" pos="0" pan="0" len="384"/>
        </pattern>
        <pattern muted="0" pos="19968" steps="16" type="1" name="PowerStrings">
          <note vol="100" key="53" pos="0" pan="0" len="384"/>
        </pattern>
        <pattern muted="0" pos="13056" steps="16" type="1" name="">
          <note vol="61" key="49" pos="0" pan="0" len="768"/>
          <note vol="61" key="46" pos="0" pan="0" len="768"/>
          <note vol="61" key="43" pos="0" pan="0" len="768"/>
          <note vol="61" key="50" pos="768" pan="0" len="768"/>
          <note vol="61" key="46" pos="768" pan="0" len="768"/>
          <note vol="61" key="43" pos="768" pan="0" len="768"/>
          <note vol="61" key="57" pos="1536" pan="0" len="768"/>
          <note vol="61" key="50" pos="1536" pan="0" len="768"/>
          <note vol="61" key="46" pos="1536" pan="0" len="768"/>
          <note vol="61" key="58" pos="2304" pan="0" len="768"/>
          <note vol="61" key="50" pos="2304" pan="0" len="768"/>
          <note vol="61" key="46" pos="2304" pan="0" len="768"/>
        </pattern>
        <pattern muted="0" pos="16128" steps="16" type="1" name="">
          <note vol="70" key="57" pos="0" pan="0" len="768"/>
          <note vol="70" key="50" pos="0" pan="0" len="768"/>
          <note vol="70" key="46" pos="0" pan="0" len="768"/>
        </pattern>
        <pattern muted="0" pos="20736" steps="16" type="1" name="">
          <note vol="100" key="55" pos="0" pan="0" len="384"/>
          <note vol="100" key="54" pos="384" pan="0" len="384"/>
        </pattern>
        <pattern muted="0" pos="21504" steps="16" type="1" name="">
          <note vol="100" key="55" pos="0" pan="0" len="384"/>
          <note vol="100" key="54" pos="384" pan="0" len="384"/>
        </pattern>
        <pattern muted="0" pos="22272" steps="16" type="1" name="">
          <note vol="100" key="55" pos="0" pan="0" len="384"/>
          <note vol="100" key="54" pos="384" pan="0" len="384"/>
        </pattern>
      </track>
      <track muted="0" type="0" solo="0" name="Erazzor">
        <instrumenttrack vol="20" basenote="57" pitch="0" fxch="3" pan="0" usemasterpitch="1" pitchrange="1">
          <instrument name="tripleoscillator">
            <tripleoscillator modalgo2="0" userwavefile1="" stphdetun1="0" stphdetun2="0" userwavefile0="" pan1="0" modalgo1="1" vol0="33" finel2="-2" vol1="33" pan0="0" coarse1="0" finer1="2" modalgo3="2" userwavefile2="" finer0="-2" wavetype2="1" stphdetun0="0" coarse2="0" phoffset0="0" finel0="0" wavetype1="2" pan2="0" coarse0="0" phoffset2="0" phoffset1="0" finer2="0" vol2="33" wavetype0="2" finel1="-2"/>
          </instrument>
          <eldata fcut="1260" ftype="7" fres="1.8099999" fwet="1">
            <elvol lspd_denominator="4" lshp="0" lamt="0" lpdel="0" rel="0.14" hold="0" lspd_syncmode="0" ctlenvamt="0" lspd="0.1" amt="1" x100="0" lspd_numerator="4" att="0" dec="0.5" userwavefile="" latt="0" pdel="0" sustain="0.5"/>
            <elcut lspd_denominator="4" lshp="0" lamt="0.41499999" lpdel="0" rel="0.1" hold="0" lspd_syncmode="0" ctlenvamt="0" lspd="0.111" amt="0" x100="0" lspd_numerator="4" att="0.33000001" dec="0.23" userwavefile="" latt="0" pdel="0" sustain="0.15000001"/>
            <elres lspd_denominator="4" lshp="0" lamt="1" lpdel="0" rel="0.1" hold="0.5" lspd_syncmode="0" ctlenvamt="0" lspd="0.1" amt="0" x100="0" lspd_numerator="4" att="0" dec="0.5" userwavefile="" latt="0" pdel="0" sustain="0.5"/>
          </eldata>
          <chordcreator chord="0" chord-enabled="0" chordrange="1"/>
          <arpeggiator arpcycle="0" arp-enabled="0" arptime_syncmode="0" arpmode="0" arpskip="0" arpgate="100" arprange="1" arptime_numerator="4" arptime="100" arpmiss="0" arpdir="0" arptime_denominator="4" arp="0"/>
          <midiport fixedoutputvelocity="0" writable="0" inputcontroller="0" outputchannel="1" outputcontroller="0" fixedinputvelocity="-1" inputchannel="0" basevelocity="127" readable="0" fixedoutputnote="-1" outputprogram="1"/>
          <fxchain numofeffects="8" enabled="1">
            <effect on="1" autoquit_numerator="4" wet="1" autoquit="8000" name="ladspaeffect" autoquit_syncmode="0" autoquit_denominator="4" gate="0">
              <ladspacontrols ports="2" link="1">
                <port01 link="1" data="72"/>
                <port11 data="72"/>
              </ladspacontrols>
              <key>
                <attribute value="caps.so" name="file"/>
                <attribute value="Clip" name="plugin"/>
              </key>
            </effect>
            <effect on="1" autoquit_numerator="4" wet="1" autoquit="8000" name="ladspaeffect" autoquit_syncmode="0" autoquit_denominator="4" gate="0">
              <ladspacontrols ports="2" link="1">
                <port01 link="1" data="-10.08"/>
                <port11 data="-10.08"/>
              </ladspacontrols>
              <key>
                <attribute value="caps.so" name="file"/>
                <attribute value="Clip" name="plugin"/>
              </key>
            </effect>
            <effect on="1" autoquit_numerator="4" wet="0.5" autoquit="1" name="ladspaeffect" autoquit_syncmode="0" autoquit_denominator="4" gate="0">
              <ladspacontrols ports="20" link="1">
                <port01 link="1" data="-30.059999"/>
                <port02 link="1" data="0"/>
                <port03 link="1" data="0"/>
                <port04 link="1" data="0"/>
                <port05 link="1" data="0"/>
                <port06 link="1" data="0"/>
                <port07 link="1" data="0"/>
                <port08 link="1" data="-16.02"/>
                <port09 link="1" data="-32.040001"/>
                <port010 link="1" data="-48"/>
                <port11 data="-30.059999"/>
                <port12 data="0"/>
                <port13 data="0"/>
                <port14 data="0"/>
                <port15 data="0"/>
                <port16 data="0"/>
                <port17 data="0"/>
                <port18 data="-16.02"/>
                <port19 data="-32.040001"/>
                <port110 data="-48"/>
              </ladspacontrols>
              <key>
                <attribute value="caps.so" name="file"/>
                <attribute value="Eq" name="plugin"/>
              </key>
            </effect>
            <effect on="1" autoquit_numerator="4" wet="1" autoquit="8000" name="ladspaeffect" autoquit_syncmode="0" autoquit_denominator="4" gate="0">
              <ladspacontrols ports="10" link="1">
                <port00 link="1" data="0.25"/>
                <port01 link="1" data="0.25"/>
                <port02 link="1" data="0.75"/>
                <port03 link="1" data="0.392699"/>
                <port04 link="1" data="0.74924999"/>
                <port10 data="0.25"/>
                <port11 data="0.25"/>
                <port12 data="0.75"/>
                <port13 data="0.392699"/>
                <port14 data="0.74924999"/>
              </ladspacontrols>
              <key>
                <attribute value="caps.so" name="file"/>
                <attribute value="PhaserII" name="plugin"/>
              </key>
            </effect>
            <effect on="1" autoquit_numerator="4" wet="1" autoquit="8000" name="ladspaeffect" autoquit_syncmode="0" autoquit_denominator="4" gate="0">
              <ladspacontrols ports="4">
                <port02 data="0.50196999"/>
                <port03 data="0.74900001"/>
                <port04 data="0.24987499"/>
                <port05 data="0.25"/>
              </ladspacontrols>
              <key>
                <attribute value="caps.so" name="file"/>
                <attribute value="Plate2x2" name="plugin"/>
              </key>
            </effect>
            <effect on="1" autoquit_numerator="4" wet="-0.5" autoquit="8000" name="ladspaeffect" autoquit_syncmode="0" autoquit_denominator="4" gate="0">
              <ladspacontrols ports="10">
                <port00 data="320"/>
                <port01 data="50"/>
                <port02 data="430"/>
                <port03 data="50"/>
                <port04 data="0"/>
                <port05 data="0"/>
                <port06 data="-70"/>
                <port07 data="1"/>
                <port08 data="0"/>
                <port09 data="1"/>
              </ladspacontrols>
              <key>
                <attribute value="tap_echo.so" name="file"/>
                <attribute value="tap_stereo_echo" name="plugin"/>
              </key>
            </effect>
            <effect on="1" autoquit_numerator="4" wet="1" autoquit="1" name="stereomatrix" autoquit_syncmode="0" autoquit_denominator="4" gate="0">
              <stereomatrixcontrols l-r="0" r-l="0.33000001" r-r="0.5" l-l="0.66000003"/>
              <key/>
            </effect>
            <effect on="1" autoquit_numerator="4" wet="1" autoquit="1" name="amplifier" autoquit_syncmode="0" autoquit_denominator="4" gate="0">
              <AmplifierControls left="100" right="100" volume="45.600002" pan="0"/>
              <key/>
            </effect>
          </fxchain>
        </instrumenttrack>
        <pattern muted="0" pos="9216" steps="16" type="1" name="Erazzor">
          <note vol="100" key="55" pos="0" pan="0" len="384"/>
          <note vol="100" key="54" pos="384" pan="0" len="384"/>
        </pattern>
        <pattern muted="0" pos="9984" steps="16" type="1" name="Erazzor">
          <note vol="100" key="55" pos="0" pan="0" len="384"/>
          <note vol="100" key="54" pos="384" pan="0" len="384"/>
        </pattern>
        <pattern muted="0" pos="10752" steps="16" type="1" name="Erazzor">
          <note vol="100" key="55" pos="0" pan="0" len="384"/>
          <note vol="100" key="54" pos="384" pan="0" len="384"/>
        </pattern>
        <pattern muted="0" pos="20736" steps="16" type="1" name="Erazzor">
          <note vol="100" key="55" pos="0" pan="0" len="384"/>
          <note vol="100" key="54" pos="384" pan="0" len="384"/>
        </pattern>
        <pattern muted="0" pos="18432" steps="16" type="1" name="Erazzor">
          <note vol="100" key="55" pos="0" pan="0" len="384"/>
        </pattern>
        <pattern muted="0" pos="19200" steps="16" type="1" name="Erazzor">
          <note vol="100" key="55" pos="0" pan="0" len="384"/>
        </pattern>
        <pattern muted="0" pos="19968" steps="16" type="1" name="Erazzor">
          <note vol="100" key="55" pos="0" pan="0" len="384"/>
        </pattern>
        <pattern muted="0" pos="21504" steps="16" type="1" name="Erazzor">
          <note vol="100" key="55" pos="0" pan="0" len="384"/>
          <note vol="100" key="54" pos="384" pan="0" len="384"/>
        </pattern>
        <pattern muted="0" pos="22272" steps="16" type="1" name="Erazzor">
          <note vol="100" key="55" pos="0" pan="0" len="384"/>
          <note vol="100" key="54" pos="384" pan="0" len="384"/>
        </pattern>
      </track>
      <track muted="0" type="1" solo="0" name="Beat/Bassline 3">
        <bbtrack>
          <trackcontainer maximized="0" width="700" height="309" x="632" type="bbtrackcontainer" visible="1" minimized="0" y="553">
            <track muted="0" type="0" solo="0" name="kick01.ogg">
              <instrumenttrack vol="66.400002" basenote="57" pitch="0" fxch="1" pan="0" usemasterpitch="1" pitchrange="1">
                <instrument name="audiofileprocessor">
                  <audiofileprocessor eframe="0.99989301" stutter="0" lframe="0" src="drums/kick01.ogg" looped="0" amp="100" reversed="0" sframe="0" interp="1"/>
                </instrument>
                <eldata fcut="14000" ftype="0" fres="0.5" fwet="0">
                  <elvol lspd_denominator="4" lshp="0" lamt="0" lpdel="0" rel="0.1" hold="0.49900001" lspd_syncmode="0" ctlenvamt="0" lspd="0.1" amt="0" x100="0" lspd_numerator="4" att="0" dec="0.49900001" userwavefile="" latt="0" pdel="0" sustain="0.50099999"/>
                  <elcut lspd_denominator="4" lshp="0" lamt="0" lpdel="0" rel="0.1" hold="0.49900001" lspd_syncmode="0" ctlenvamt="0" lspd="0.1" amt="0" x100="0" lspd_numerator="4" att="0" dec="0.49900001" userwavefile="" latt="0" pdel="0" sustain="0.50099999"/>
                  <elres lspd_denominator="4" lshp="0" lamt="0" lpdel="0" rel="0.1" hold="0.49900001" lspd_syncmode="0" ctlenvamt="0" lspd="0.1" amt="0" x100="0" lspd_numerator="4" att="0" dec="0.49900001" userwavefile="" latt="0" pdel="0" sustain="0.50099999"/>
                </eldata>
                <chordcreator chord="0" chord-enabled="1" chordrange="1"/>
                <arpeggiator arpcycle="0" arp-enabled="0" arptime_syncmode="0" arpmode="0" arpskip="0" arpgate="100" arprange="1" arptime_numerator="4" arptime="100" arpmiss="0" arpdir="0" arptime_denominator="4" arp="0"/>
                <midiport fixedoutputvelocity="-1" writable="0" inputcontroller="0" outputchannel="1" outputcontroller="0" fixedinputvelocity="-1" inputchannel="0" basevelocity="127" readable="0" fixedoutputnote="-1" outputprogram="1"/>
                <fxchain numofeffects="0" enabled="0"/>
              </instrumenttrack>
              <pattern muted="0" pos="0" steps="64" type="0" name="kick01.ogg">
                <note vol="100" key="57" pos="0" pan="0" len="-192"/>
                <note vol="100" key="57" pos="36" pan="0" len="-192"/>
                <note vol="100" key="57" pos="72" pan="0" len="-192"/>
                <note vol="100" key="57" pos="120" pan="0" len="-192"/>
                <note vol="100" key="57" pos="168" pan="0" len="-192"/>
                <note vol="100" key="57" pos="192" pan="0" len="-192"/>
                <note vol="100" key="57" pos="228" pan="0" len="-192"/>
                <note vol="100" key="57" pos="264" pan="0" len="-192"/>
                <note vol="100" key="57" pos="312" pan="0" len="-192"/>
                <note vol="100" key="57" pos="360" pan="0" len="-192"/>
                <note vol="100" key="57" pos="384" pan="0" len="-192"/>
                <note vol="100" key="57" pos="420" pan="0" len="-192"/>
                <note vol="100" key="57" pos="456" pan="0" len="-192"/>
                <note vol="100" key="57" pos="504" pan="0" len="-192"/>
                <note vol="100" key="57" pos="552" pan="0" len="-192"/>
                <note vol="100" key="57" pos="576" pan="0" len="-192"/>
                <note vol="100" key="57" pos="612" pan="0" len="-192"/>
                <note vol="100" key="57" pos="648" pan="0" len="-192"/>
                <note vol="100" key="57" pos="696" pan="0" len="-192"/>
                <note vol="100" key="57" pos="744" pan="0" len="-192"/>
              </pattern>
              <pattern muted="0" pos="192" steps="32" type="0" name="kick01.ogg"/>
            </track>
            <track muted="0" type="0" solo="0" name="Snare">
              <instrumenttrack vol="56.400002" basenote="57" pitch="0" fxch="1" pan="0" usemasterpitch="1" pitchrange="1">
                <instrument name="tripleoscillator">
                  <tripleoscillator modalgo2="2" userwavefile1="" stphdetun1="0" stphdetun2="0" userwavefile0="" pan1="0" modalgo1="2" vol0="33" finel2="0" vol1="33" pan0="0" coarse1="-12" finer1="0" modalgo3="2" userwavefile2="" finer0="0" wavetype2="6" stphdetun0="0" coarse2="-24" phoffset0="0" finel0="0" wavetype1="6" pan2="0" coarse0="0" phoffset2="0" phoffset1="0" finer2="0" vol2="33" wavetype0="6" finel1="0"/>
                </instrument>
                <eldata fcut="200" ftype="10" fres="10" fwet="1">
                  <elvol lspd_denominator="4" lshp="0" lamt="0" lpdel="0" rel="0.1" hold="0" lspd_syncmode="0" ctlenvamt="0" lspd="0.1" amt="1" x100="0" lspd_numerator="4" att="0" dec="0.16599999" userwavefile="" latt="0" pdel="0" sustain="0"/>
                  <elcut lspd_denominator="4" lshp="0" lamt="0" lpdel="0" rel="0.198" hold="0.034000002" lspd_syncmode="0" ctlenvamt="0" lspd="0.1" amt="0.28" x100="0" lspd_numerator="4" att="0" dec="0.061999999" userwavefile="" latt="0" pdel="0" sustain="0"/>
                  <elres lspd_denominator="4" lshp="0" lamt="0" lpdel="0" rel="0.1" hold="0.5" lspd_syncmode="0" ctlenvamt="0" lspd="0.1" amt="0" x100="0" lspd_numerator="4" att="0" dec="0.5" userwavefile="" latt="0" pdel="0" sustain="0.5"/>
                </eldata>
                <chordcreator chord="0" chord-enabled="0" chordrange="1"/>
                <arpeggiator arpcycle="0" arp-enabled="0" arptime_syncmode="0" arpmode="0" arpskip="0" arpgate="100" arprange="1" arptime_numerator="4" arptime="100" arpmiss="0" arpdir="0" arptime_denominator="4" arp="0"/>
                <midiport fixedoutputvelocity="-1" writable="0" inputcontroller="0" outputchannel="1" outputcontroller="0" fixedinputvelocity="-1" inputchannel="0" basevelocity="63" readable="0" fixedoutputnote="-1" outputprogram="1"/>
                <fxchain numofeffects="0" enabled="1"/>
              </instrumenttrack>
              <pattern muted="0" pos="0" steps="64" type="0" name="Snare">
                <note vol="100" key="57" pos="48" pan="0" len="-192"/>
                <note vol="100" key="57" pos="84" pan="0" len="-192"/>
                <note vol="100" key="57" pos="144" pan="0" len="-192"/>
                <note vol="100" key="57" pos="180" pan="0" len="-192"/>
                <note vol="100" key="57" pos="240" pan="0" len="-192"/>
                <note vol="100" key="57" pos="276" pan="0" len="-192"/>
                <note vol="100" key="57" pos="336" pan="0" len="-192"/>
                <note vol="100" key="57" pos="372" pan="0" len="-192"/>
                <note vol="100" key="57" pos="432" pan="0" len="-192"/>
                <note vol="100" key="57" pos="468" pan="0" len="-192"/>
                <note vol="100" key="57" pos="528" pan="0" len="-192"/>
                <note vol="100" key="57" pos="564" pan="0" len="-192"/>
                <note vol="100" key="57" pos="624" pan="0" len="-192"/>
                <note vol="100" key="57" pos="660" pan="0" len="-192"/>
                <note vol="100" key="57" pos="720" pan="0" len="-192"/>
                <note vol="100" key="57" pos="756" pan="0" len="-192"/>
              </pattern>
              <pattern muted="0" pos="192" steps="32" type="0" name="Snare"/>
            </track>
            <track muted="0" type="0" solo="0" name="hihat_foot_pedal01.ogg">
              <instrumenttrack vol="65.599998" basenote="57" pitch="0" fxch="0" pan="0" usemasterpitch="1" pitchrange="1">
                <instrument name="audiofileprocessor">
                  <audiofileprocessor eframe="1" stutter="0" lframe="0" src="drums/hihat_foot_pedal01.ogg" looped="0" amp="100" reversed="0" sframe="0" interp="1"/>
                </instrument>
                <eldata fcut="14000" ftype="0" fres="0.5" fwet="0">
                  <elvol lspd_denominator="4" lshp="0" lamt="0" lpdel="0" rel="0.1" hold="0.5" lspd_syncmode="0" ctlenvamt="0" lspd="0.1" amt="0" x100="0" lspd_numerator="4" att="0" dec="0.5" userwavefile="" latt="0" pdel="0" sustain="0.5"/>
                  <elcut lspd_denominator="4" lshp="0" lamt="0" lpdel="0" rel="0.1" hold="0.5" lspd_syncmode="0" ctlenvamt="0" lspd="0.1" amt="0" x100="0" lspd_numerator="4" att="0" dec="0.5" userwavefile="" latt="0" pdel="0" sustain="0.5"/>
                  <elres lspd_denominator="4" lshp="0" lamt="0" lpdel="0" rel="0.1" hold="0.5" lspd_syncmode="0" ctlenvamt="0" lspd="0.1" amt="0" x100="0" lspd_numerator="4" att="0" dec="0.5" userwavefile="" latt="0" pdel="0" sustain="0.5"/>
                </eldata>
                <chordcreator chord="0" chord-enabled="0" chordrange="1"/>
                <arpeggiator arpcycle="0" arp-enabled="0" arptime_syncmode="0" arpmode="0" arpskip="0" arpgate="100" arprange="1" arptime_numerator="4" arptime="200" arpmiss="0" arpdir="0" arptime_denominator="4" arp="0"/>
                <midiport fixedoutputvelocity="-1" writable="0" inputcontroller="0" outputchannel="1" outputcontroller="0" fixedinputvelocity="-1" inputchannel="0" basevelocity="63" readable="0" fixedoutputnote="-1" outputprogram="1"/>
                <fxchain numofeffects="0" enabled="0"/>
              </instrumenttrack>
              <pattern muted="0" pos="0" steps="64" type="0" name="hihat_foot_pedal01.ogg">
                <note vol="100" key="57" pos="24" pan="0" len="-192"/>
                <note vol="75" key="57" pos="72" pan="0" len="-192"/>
                <note vol="100" key="57" pos="120" pan="0" len="-192"/>
                <note vol="60" key="57" pos="168" pan="0" len="-192"/>
                <note vol="100" key="57" pos="216" pan="0" len="-192"/>
                <note vol="75" key="57" pos="264" pan="0" len="-192"/>
                <note vol="100" key="57" pos="312" pan="0" len="-192"/>
                <note vol="60" key="57" pos="360" pan="0" len="-192"/>
                <note vol="100" key="57" pos="408" pan="0" len="-192"/>
                <note vol="75" key="57" pos="456" pan="0" len="-192"/>
                <note vol="100" key="57" pos="504" pan="0" len="-192"/>
                <note vol="60" key="57" pos="552" pan="0" len="-192"/>
                <note vol="100" key="57" pos="600" pan="0" len="-192"/>
                <note vol="75" key="57" pos="648" pan="0" len="-192"/>
                <note vol="100" key="57" pos="696" pan="0" len="-192"/>
                <note vol="60" key="57" pos="744" pan="0" len="-192"/>
              </pattern>
              <pattern muted="0" pos="192" steps="32" type="0" name="hihat_foot_pedal01.ogg"/>
            </track>
            <track muted="0" type="0" solo="0" name="snare06.ogg">
              <instrumenttrack vol="100" basenote="57" pitch="0" fxch="0" pan="0" usemasterpitch="1" pitchrange="1">
                <instrument name="audiofileprocessor">
                  <audiofileprocessor eframe="1" stutter="0" lframe="0" src="drums/snare06.ogg" looped="0" amp="100" reversed="0" sframe="0" interp="1"/>
                </instrument>
                <eldata fcut="14000" ftype="0" fres="0.5" fwet="0">
                  <elvol lspd_denominator="4" lshp="0" lamt="0" lpdel="0" rel="0.1" hold="0.5" lspd_syncmode="0" ctlenvamt="0" lspd="0.1" amt="0" x100="0" lspd_numerator="4" att="0" dec="0.5" userwavefile="" latt="0" pdel="0" sustain="0.5"/>
                  <elcut lspd_denominator="4" lshp="0" lamt="0" lpdel="0" rel="0.1" hold="0.5" lspd_syncmode="0" ctlenvamt="0" lspd="0.1" amt="0" x100="0" lspd_numerator="4" att="0" dec="0.5" userwavefile="" latt="0" pdel="0" sustain="0.5"/>
                  <elres lspd_denominator="4" lshp="0" lamt="0" lpdel="0" rel="0.1" hold="0.5" lspd_syncmode="0" ctlenvamt="0" lspd="0.1" amt="0" x100="0" lspd_numerator="4" att="0" dec="0.5" userwavefile="" latt="0" pdel="0" sustain="0.5"/>
                </eldata>
                <chordcreator chord="0" chord-enabled="0" chordrange="1"/>
                <arpeggiator arpcycle="0" arp-enabled="0" arptime_syncmode="0" arpmode="0" arpskip="0" arpgate="100" arprange="1" arptime_numerator="4" arptime="200" arpmiss="0" arpdir="0" arptime_denominator="4" arp="0"/>
                <midiport fixedoutputvelocity="-1" writable="0" inputcontroller="0" outputchannel="1" outputcontroller="0" fixedinputvelocity="-1" inputchannel="0" basevelocity="63" readable="0" fixedoutputnote="-1" outputprogram="1"/>
                <fxchain numofeffects="0" enabled="0"/>
              </instrumenttrack>
              <pattern muted="0" pos="0" steps="64" type="0" name="snare06.ogg">
                <note vol="100" key="57" pos="108" pan="0" len="-192"/>
                <note vol="100" key="57" pos="300" pan="0" len="-192"/>
                <note vol="100" key="57" pos="336" pan="0" len="-192"/>
                <note vol="100" key="57" pos="492" pan="0" len="-192"/>
                <note vol="100" key="57" pos="684" pan="0" len="-192"/>
                <note vol="100" key="57" pos="720" pan="0" len="-192"/>
              </pattern>
              <pattern muted="0" pos="192" steps="32" type="0" name="snare06.ogg"/>
            </track>
            <track muted="0" type="0" solo="0" name="Hat_o.ds">
              <instrumenttrack vol="8.8000002" basenote="57" pitch="0" fxch="0" pan="0" usemasterpitch="1" pitchrange="1">
                <instrument name="audiofileprocessor">
                  <audiofileprocessor eframe="1" stutter="0" lframe="0" src="drumsynth/cr8000/Hat_o.ds" looped="0" amp="100" reversed="0" sframe="0" interp="1"/>
                </instrument>
                <eldata fcut="14000" ftype="0" fres="0.5" fwet="0">
                  <elvol lspd_denominator="4" lshp="0" lamt="0" lpdel="0" rel="0.1" hold="0.5" lspd_syncmode="0" ctlenvamt="0" lspd="0.1" amt="0" x100="0" lspd_numerator="4" att="0" dec="0.5" userwavefile="" latt="0" pdel="0" sustain="0.5"/>
                  <elcut lspd_denominator="4" lshp="0" lamt="0" lpdel="0" rel="0.1" hold="0.5" lspd_syncmode="0" ctlenvamt="0" lspd="0.1" amt="0" x100="0" lspd_numerator="4" att="0" dec="0.5" userwavefile="" latt="0" pdel="0" sustain="0.5"/>
                  <elres lspd_denominator="4" lshp="0" lamt="0" lpdel="0" rel="0.1" hold="0.5" lspd_syncmode="0" ctlenvamt="0" lspd="0.1" amt="0" x100="0" lspd_numerator="4" att="0" dec="0.5" userwavefile="" latt="0" pdel="0" sustain="0.5"/>
                </eldata>
                <chordcreator chord="0" chord-enabled="0" chordrange="1"/>
                <arpeggiator arpcycle="0" arp-enabled="0" arptime_syncmode="0" arpmode="0" arpskip="0" arpgate="100" arprange="1" arptime_numerator="4" arptime="200" arpmiss="0" arpdir="0" arptime_denominator="4" arp="0"/>
                <midiport fixedoutputvelocity="-1" writable="0" inputcontroller="0" outputchannel="1" outputcontroller="0" fixedinputvelocity="-1" inputchannel="0" basevelocity="63" readable="0" fixedoutputnote="-1" outputprogram="1"/>
                <fxchain numofeffects="1" enabled="1">
                  <effect on="1" autoquit_numerator="4" wet="1" autoquit="1" name="stereomatrix" autoquit_syncmode="0" autoquit_denominator="4" gate="0">
                    <stereomatrixcontrols l-r="0" r-l="0" r-r="1" l-l="-1"/>
                    <key/>
                  </effect>
                </fxchain>
              </instrumenttrack>
              <pattern muted="0" pos="0" steps="64" type="0" name="Hat_o.ds">
                <note vol="100" key="57" pos="0" pan="0" len="-192"/>
                <note vol="100" key="57" pos="24" pan="0" len="-192"/>
                <note vol="100" key="57" pos="48" pan="0" len="-192"/>
                <note vol="100" key="57" pos="72" pan="0" len="-192"/>
                <note vol="100" key="57" pos="96" pan="0" len="-192"/>
                <note vol="100" key="57" pos="120" pan="0" len="-192"/>
                <note vol="100" key="57" pos="144" pan="0" len="-192"/>
                <note vol="100" key="57" pos="168" pan="0" len="-192"/>
                <note vol="100" key="57" pos="192" pan="0" len="-192"/>
                <note vol="100" key="57" pos="216" pan="0" len="-192"/>
                <note vol="100" key="57" pos="240" pan="0" len="-192"/>
                <note vol="100" key="57" pos="264" pan="0" len="-192"/>
                <note vol="100" key="57" pos="288" pan="0" len="-192"/>
                <note vol="100" key="57" pos="312" pan="0" len="-192"/>
                <note vol="100" key="57" pos="336" pan="0" len="-192"/>
                <note vol="100" key="57" pos="360" pan="0" len="-192"/>
                <note vol="100" key="57" pos="384" pan="0" len="-192"/>
                <note vol="100" key="57" pos="408" pan="0" len="-192"/>
                <note vol="100" key="57" pos="432" pan="0" len="-192"/>
                <note vol="100" key="57" pos="456" pan="0" len="-192"/>
                <note vol="100" key="57" pos="480" pan="0" len="-192"/>
                <note vol="100" key="57" pos="504" pan="0" len="-192"/>
                <note vol="100" key="57" pos="528" pan="0" len="-192"/>
                <note vol="100" key="57" pos="552" pan="0" len="-192"/>
                <note vol="100" key="57" pos="576" pan="0" len="-192"/>
                <note vol="100" key="57" pos="600" pan="0" len="-192"/>
                <note vol="100" key="57" pos="624" pan="0" len="-192"/>
                <note vol="100" key="57" pos="648" pan="0" len="-192"/>
                <note vol="100" key="57" pos="672" pan="0" len="-192"/>
                <note vol="100" key="57" pos="696" pan="0" len="-192"/>
                <note vol="100" key="57" pos="720" pan="0" len="-192"/>
                <note vol="100" key="57" pos="744" pan="0" len="-192"/>
              </pattern>
              <pattern muted="0" pos="192" steps="32" type="0" name="Hat_o.ds"/>
            </track>
            <track muted="0" type="0" solo="0" name="Reverse.ds">
              <instrumenttrack vol="100" basenote="57" pitch="0" fxch="0" pan="0" usemasterpitch="1" pitchrange="1">
                <instrument name="audiofileprocessor">
                  <audiofileprocessor eframe="1" stutter="0" lframe="0" src="drumsynth/effects/Reverse.ds" looped="0" amp="100" reversed="0" sframe="0" interp="1"/>
                </instrument>
                <eldata fcut="14000" ftype="0" fres="0.5" fwet="0">
                  <elvol lspd_denominator="4" lshp="0" lamt="0" lpdel="0" rel="0.1" hold="0.5" lspd_syncmode="0" ctlenvamt="0" lspd="0.1" amt="0" x100="0" lspd_numerator="4" att="0" dec="0.5" userwavefile="" latt="0" pdel="0" sustain="0.5"/>
                  <elcut lspd_denominator="4" lshp="0" lamt="0" lpdel="0" rel="0.1" hold="0.5" lspd_syncmode="0" ctlenvamt="0" lspd="0.1" amt="0" x100="0" lspd_numerator="4" att="0" dec="0.5" userwavefile="" latt="0" pdel="0" sustain="0.5"/>
                  <elres lspd_denominator="4" lshp="0" lamt="0" lpdel="0" rel="0.1" hold="0.5" lspd_syncmode="0" ctlenvamt="0" lspd="0.1" amt="0" x100="0" lspd_numerator="4" att="0" dec="0.5" userwavefile="" latt="0" pdel="0" sustain="0.5"/>
                </eldata>
                <chordcreator chord="0" chord-enabled="0" chordrange="1"/>
                <arpeggiator arpcycle="0" arp-enabled="0" arptime_syncmode="0" arpmode="0" arpskip="0" arpgate="100" arprange="1" arptime_numerator="4" arptime="200" arpmiss="0" arpdir="0" arptime_denominator="4" arp="0"/>
                <midiport fixedoutputvelocity="-1" writable="0" inputcontroller="0" outputchannel="1" outputcontroller="0" fixedinputvelocity="-1" inputchannel="0" basevelocity="63" readable="0" fixedoutputnote="-1" outputprogram="1"/>
                <fxchain numofeffects="1" enabled="1">
                  <effect on="1" autoquit_numerator="4" wet="-0.38" autoquit="1" name="ladspaeffect" autoquit_syncmode="0" autoquit_denominator="4" gate="0">
                    <ladspacontrols ports="10">
                      <port04 data="0.060000002"/>
                      <port05>
                        <data scale_type="log" id="6226524" value="223.6068"/>
                      </port05>
                      <port06 data="2.75"/>
                      <port07 data="2.75"/>
                      <port08>
                        <data scale_type="log" id="2840613" value="6000"/>
                      </port08>
                      <port09>
                        <data scale_type="log" id="5492665" value="159.05415"/>
                      </port09>
                      <port010 data="0"/>
                      <port011>
                        <data scale_type="log" id="1618253" value="2514.8672"/>
                      </port011>
                      <port012 data="0"/>
                      <port013 data="0.5"/>
                    </ladspacontrols>
                    <key>
                      <attribute value="zita-reverbs" name="file"/>
                      <attribute value="zita-reverb" name="plugin"/>
                    </key>
                  </effect>
                </fxchain>
              </instrumenttrack>
              <pattern muted="0" pos="0" steps="64" type="0" name="Reverse.ds">
                <note vol="100" key="57" pos="696" pan="0" len="-192"/>
              </pattern>
              <pattern muted="0" pos="192" steps="32" type="0" name="Reverse.ds"/>
            </track>
            <track muted="0" type="0" solo="0" name="clap01.ogg">
              <instrumenttrack vol="116.8" basenote="57" pitch="0" fxch="0" pan="0" usemasterpitch="1" pitchrange="1">
                <instrument name="audiofileprocessor">
                  <audiofileprocessor eframe="1" stutter="0" lframe="0" src="drums/clap01.ogg" looped="0" amp="100" reversed="0" sframe="0" interp="1"/>
                </instrument>
                <eldata fcut="14000" ftype="0" fres="0.5" fwet="0">
                  <elvol lspd_denominator="4" lshp="0" lamt="0" lpdel="0" rel="0.1" hold="0.5" lspd_syncmode="0" ctlenvamt="0" lspd="0.1" amt="0" x100="0" lspd_numerator="4" att="0" dec="0.5" userwavefile="" latt="0" pdel="0" sustain="0.5"/>
                  <elcut lspd_denominator="4" lshp="0" lamt="0" lpdel="0" rel="0.1" hold="0.5" lspd_syncmode="0" ctlenvamt="0" lspd="0.1" amt="0" x100="0" lspd_numerator="4" att="0" dec="0.5" userwavefile="" latt="0" pdel="0" sustain="0.5"/>
                  <elres lspd_denominator="4" lshp="0" lamt="0" lpdel="0" rel="0.1" hold="0.5" lspd_syncmode="0" ctlenvamt="0" lspd="0.1" amt="0" x100="0" lspd_numerator="4" att="0" dec="0.5" userwavefile="" latt="0" pdel="0" sustain="0.5"/>
                </eldata>
                <chordcreator chord="0" chord-enabled="0" chordrange="1"/>
                <arpeggiator arpcycle="0" arp-enabled="0" arptime_syncmode="0" arpmode="0" arpskip="0" arpgate="100" arprange="1" arptime_numerator="4" arptime="200" arpmiss="0" arpdir="0" arptime_denominator="4" arp="0"/>
                <midiport fixedoutputvelocity="-1" writable="0" inputcontroller="0" outputchannel="1" outputcontroller="0" fixedinputvelocity="-1" inputchannel="0" basevelocity="63" readable="0" fixedoutputnote="-1" outputprogram="1"/>
                <fxchain numofeffects="0" enabled="0"/>
              </instrumenttrack>
              <pattern muted="0" pos="0" steps="64" type="0" name="clap01.ogg">
                <note vol="100" key="57" pos="720" pan="0" len="-192"/>
              </pattern>
              <pattern muted="0" pos="192" steps="32" type="0" name="clap01.ogg"/>
            </track>
            <track muted="0" type="0" solo="0" name="Boom.ds">
              <instrumenttrack vol="148" basenote="57" pitch="0" fxch="0" pan="0" usemasterpitch="1" pitchrange="1">
                <instrument name="audiofileprocessor">
                  <audiofileprocessor eframe="1" stutter="0" lframe="0" src="drumsynth/electro/Boom.ds" looped="0" amp="100" reversed="0" sframe="0" interp="1"/>
                </instrument>
                <eldata fcut="14000" ftype="0" fres="0.5" fwet="0">
                  <elvol lspd_denominator="4" lshp="0" lamt="0" lpdel="0" rel="0.1" hold="0.5" lspd_syncmode="0" ctlenvamt="0" lspd="0.1" amt="0" x100="0" lspd_numerator="4" att="0" dec="0.5" userwavefile="" latt="0" pdel="0" sustain="0.5"/>
                  <elcut lspd_denominator="4" lshp="0" lamt="0" lpdel="0" rel="0.1" hold="0.5" lspd_syncmode="0" ctlenvamt="0" lspd="0.1" amt="0" x100="0" lspd_numerator="4" att="0" dec="0.5" userwavefile="" latt="0" pdel="0" sustain="0.5"/>
                  <elres lspd_denominator="4" lshp="0" lamt="0" lpdel="0" rel="0.1" hold="0.5" lspd_syncmode="0" ctlenvamt="0" lspd="0.1" amt="0" x100="0" lspd_numerator="4" att="0" dec="0.5" userwavefile="" latt="0" pdel="0" sustain="0.5"/>
                </eldata>
                <chordcreator chord="0" chord-enabled="0" chordrange="1"/>
                <arpeggiator arpcycle="0" arp-enabled="0" arptime_syncmode="0" arpmode="0" arpskip="0" arpgate="100" arprange="1" arptime_numerator="4" arptime="200" arpmiss="0" arpdir="0" arptime_denominator="4" arp="0"/>
                <midiport fixedoutputvelocity="-1" writable="0" inputcontroller="0" outputchannel="1" outputcontroller="0" fixedinputvelocity="-1" inputchannel="0" basevelocity="63" readable="0" fixedoutputnote="-1" outputprogram="1"/>
                <fxchain numofeffects="0" enabled="0"/>
              </instrumenttrack>
              <pattern muted="0" pos="0" steps="64" type="0" name="Boom.ds">
                <note vol="100" key="57" pos="312" pan="0" len="-192"/>
                <note vol="100" key="50" pos="384" pan="0" len="-192"/>
              </pattern>
              <pattern muted="0" pos="192" steps="32" type="0" name="Boom.ds"/>
            </track>
            <track muted="0" type="0" solo="0" name="Fisa_K_K.ds">
              <instrumenttrack vol="100" basenote="57" pitch="0" fxch="0" pan="0" usemasterpitch="1" pitchrange="1">
                <instrument name="audiofileprocessor">
                  <audiofileprocessor eframe="1" stutter="0" lframe="0" src="drumsynth/farfisa/Fisa_K_K.ds" looped="0" amp="100" reversed="0" sframe="0" interp="1"/>
                </instrument>
                <eldata fcut="14000" ftype="0" fres="0.5" fwet="0">
                  <elvol lspd_denominator="4" lshp="0" lamt="0" lpdel="0" rel="0.1" hold="0.5" lspd_syncmode="0" ctlenvamt="0" lspd="0.1" amt="0" x100="0" lspd_numerator="4" att="0" dec="0.5" userwavefile="" latt="0" pdel="0" sustain="0.5"/>
                  <elcut lspd_denominator="4" lshp="0" lamt="0" lpdel="0" rel="0.1" hold="0.5" lspd_syncmode="0" ctlenvamt="0" lspd="0.1" amt="0" x100="0" lspd_numerator="4" att="0" dec="0.5" userwavefile="" latt="0" pdel="0" sustain="0.5"/>
                  <elres lspd_denominator="4" lshp="0" lamt="0" lpdel="0" rel="0.1" hold="0.5" lspd_syncmode="0" ctlenvamt="0" lspd="0.1" amt="0" x100="0" lspd_numerator="4" att="0" dec="0.5" userwavefile="" latt="0" pdel="0" sustain="0.5"/>
                </eldata>
                <chordcreator chord="0" chord-enabled="0" chordrange="1"/>
                <arpeggiator arpcycle="0" arp-enabled="0" arptime_syncmode="0" arpmode="0" arpskip="0" arpgate="100" arprange="1" arptime_numerator="4" arptime="200" arpmiss="0" arpdir="0" arptime_denominator="4" arp="0"/>
                <midiport fixedoutputvelocity="-1" writable="0" inputcontroller="0" outputchannel="1" outputcontroller="0" fixedinputvelocity="-1" inputchannel="0" basevelocity="63" readable="0" fixedoutputnote="-1" outputprogram="1"/>
                <fxchain numofeffects="0" enabled="0"/>
              </instrumenttrack>
              <pattern muted="0" pos="0" steps="64" type="0" name="Fisa_K_K.ds">
                <note vol="15" key="57" pos="240" pan="0" len="-192"/>
                <note vol="25" key="57" pos="264" pan="0" len="-192"/>
                <note vol="50" key="57" pos="288" pan="0" len="-192"/>
                <note vol="80" key="57" pos="312" pan="0" len="-192"/>
                <note vol="70" key="57" pos="336" pan="0" len="-192"/>
                <note vol="100" key="57" pos="360" pan="0" len="-192"/>
              </pattern>
              <pattern muted="0" pos="192" steps="32" type="0" name="Fisa_K_K.ds"/>
            </track>
            <track muted="0" type="0" solo="0" name="clean_rock_bd.ds">
              <instrumenttrack vol="100" basenote="57" pitch="0" fxch="0" pan="0" usemasterpitch="1" pitchrange="1">
                <instrument name="audiofileprocessor">
                  <audiofileprocessor eframe="1" stutter="0" lframe="0" src="drumsynth/misc_electro/clean_rock_bd.ds" looped="0" amp="100" reversed="0" sframe="0" interp="1"/>
                </instrument>
                <eldata fcut="14000" ftype="0" fres="0.5" fwet="0">
                  <elvol lspd_denominator="4" lshp="0" lamt="0" lpdel="0" rel="0.1" hold="0.5" lspd_syncmode="0" ctlenvamt="0" lspd="0.1" amt="0" x100="0" lspd_numerator="4" att="0" dec="0.5" userwavefile="" latt="0" pdel="0" sustain="0.5"/>
                  <elcut lspd_denominator="4" lshp="0" lamt="0" lpdel="0" rel="0.1" hold="0.5" lspd_syncmode="0" ctlenvamt="0" lspd="0.1" amt="0" x100="0" lspd_numerator="4" att="0" dec="0.5" userwavefile="" latt="0" pdel="0" sustain="0.5"/>
                  <elres lspd_denominator="4" lshp="0" lamt="0" lpdel="0" rel="0.1" hold="0.5" lspd_syncmode="0" ctlenvamt="0" lspd="0.1" amt="0" x100="0" lspd_numerator="4" att="0" dec="0.5" userwavefile="" latt="0" pdel="0" sustain="0.5"/>
                </eldata>
                <chordcreator chord="0" chord-enabled="0" chordrange="1"/>
                <arpeggiator arpcycle="0" arp-enabled="0" arptime_syncmode="0" arpmode="0" arpskip="0" arpgate="100" arprange="1" arptime_numerator="4" arptime="200" arpmiss="0" arpdir="0" arptime_denominator="4" arp="0"/>
                <midiport fixedoutputvelocity="-1" writable="0" inputcontroller="0" outputchannel="1" outputcontroller="0" fixedinputvelocity="-1" inputchannel="0" basevelocity="63" readable="0" fixedoutputnote="-1" outputprogram="1"/>
                <fxchain numofeffects="2" enabled="1">
                  <effect on="1" autoquit_numerator="4" wet="0.16" autoquit="1" name="ladspaeffect" autoquit_syncmode="0" autoquit_denominator="4" gate="0">
                    <ladspacontrols ports="10">
                      <port04 data="0.060000002"/>
                      <port05>
                        <data scale_type="log" id="4139408" value="223.6068"/>
                      </port05>
                      <port06 data="2.75"/>
                      <port07 data="2.75"/>
                      <port08>
                        <data scale_type="log" id="6329026" value="6000"/>
                      </port08>
                      <port09>
                        <data scale_type="log" id="4247574" value="159.05415"/>
                      </port09>
                      <port010 data="0"/>
                      <port011>
                        <data scale_type="log" id="4024245" value="2514.8672"/>
                      </port011>
                      <port012 data="0"/>
                      <port013 data="0.5"/>
                    </ladspacontrols>
                    <key>
                      <attribute value="zita-reverbs" name="file"/>
                      <attribute value="zita-reverb" name="plugin"/>
                    </key>
                  </effect>
                  <effect on="1" autoquit_numerator="4" wet="1" autoquit="1" name="ladspaeffect" autoquit_syncmode="0" autoquit_denominator="4" gate="0">
                    <ladspacontrols ports="10">
                      <port00 data="130"/>
                      <port01 data="0"/>
                      <port02 data="350"/>
                      <port03 data="0"/>
                      <port04 data="-10.1"/>
                      <port05 data="-8.4000006"/>
                      <port06 data="0"/>
                      <port07 data="0"/>
                      <port08 data="0"/>
                      <port09 data="0"/>
                    </ladspacontrols>
                    <key>
                      <attribute value="tap_echo" name="file"/>
                      <attribute value="tap_stereo_echo" name="plugin"/>
                    </key>
                  </effect>
                </fxchain>
              </instrumenttrack>
              <pattern muted="0" pos="0" steps="64" type="0" name="clean_rock_bd.ds"/>
              <pattern muted="0" pos="192" steps="32" type="0" name="clean_rock_bd.ds">
                <note vol="100" key="57" pos="120" pan="0" len="-192"/>
                <note vol="100" key="59" pos="192" pan="0" len="-192"/>
              </pattern>
            </track>
          </trackcontainer>
        </bbtrack>
        <bbtco muted="0" pos="768" color="4286611584" name="" usestyle="1" len="3840"/>
        <bbtco muted="0" pos="5376" color="4286611584" name="" usestyle="1" len="1536"/>
        <bbtco muted="0" pos="7680" color="4286611584" name="" usestyle="1" len="3840"/>
        <bbtco muted="0" pos="14592" color="4286611584" name="" usestyle="1" len="1536"/>
        <bbtco muted="0" pos="16896" color="4286611584" name="" usestyle="1" len="7488"/>
      </track>
      <track muted="0" type="1" solo="0" name="Beat/Bassline 4">
        <bbtrack/>
        <bbtco muted="0" pos="2112" color="4286611584" name="" usestyle="1" len="384"/>
        <bbtco muted="0" pos="4416" color="4286611584" name="" usestyle="1" len="384"/>
        <bbtco muted="0" pos="9024" color="4286611584" name="" usestyle="1" len="384"/>
        <bbtco muted="0" pos="23616" color="4286611584" name="" usestyle="1" len="384"/>
      </track>
      <track maximized="0" muted="0" width="262" height="466" x="973" type="0" solo="0" visible="1" name="FM_Bass.ds" minimized="0" tab="1" y="1">
        <instrumenttrack vol="57.600002" basenote="57" pitch="0" fxch="0" pan="0" usemasterpitch="1" pitchrange="1">
          <instrument name="audiofileprocessor">
            <audiofileprocessor eframe="1" stutter="0" lframe="0" src="drumsynth/instrument/FM_Bass.ds" looped="0" amp="100" reversed="0" sframe="0" interp="1"/>
          </instrument>
          <eldata fcut="14000" ftype="0" fres="0.5" fwet="0">
            <elvol lspd_denominator="4" lshp="0" lamt="0" lpdel="0" rel="0.1" hold="0" lspd_syncmode="0" ctlenvamt="0" lspd="0.1" amt="1" x100="0" lspd_numerator="4" att="0" dec="0.5" userwavefile="" latt="0" pdel="0" sustain="0.5"/>
            <elcut lspd_denominator="4" lshp="0" lamt="0" lpdel="0" rel="0.1" hold="0.5" lspd_syncmode="0" ctlenvamt="0" lspd="0.1" amt="0" x100="0" lspd_numerator="4" att="0" dec="0.5" userwavefile="" latt="0" pdel="0" sustain="0.5"/>
            <elres lspd_denominator="4" lshp="0" lamt="0" lpdel="0" rel="0.1" hold="0.5" lspd_syncmode="0" ctlenvamt="0" lspd="0.1" amt="0" x100="0" lspd_numerator="4" att="0" dec="0.5" userwavefile="" latt="0" pdel="0" sustain="0.5"/>
          </eldata>
          <chordcreator chord="0" chord-enabled="0" chordrange="1"/>
          <arpeggiator arpcycle="0" arp-enabled="0" arptime_syncmode="0" arpmode="0" arpskip="0" arpgate="100" arprange="1" arptime_numerator="4" arptime="200" arpmiss="0" arpdir="0" arptime_denominator="4" arp="0"/>
          <midiport fixedoutputvelocity="-1" writable="0" inputcontroller="0" outputchannel="1" outputcontroller="0" fixedinputvelocity="-1" inputchannel="0" basevelocity="63" readable="0" fixedoutputnote="-1" outputprogram="1"/>
          <fxchain numofeffects="0" enabled="0"/>
        </instrumenttrack>
        <pattern muted="0" pos="7680" steps="16" type="1" name="FM_Bass.ds">
          <note vol="117" key="57" pos="0" pan="0" len="48"/>
          <note vol="117" key="55" pos="120" pan="0" len="36"/>
          <note vol="117" key="55" pos="156" pan="0" len="36"/>
          <note vol="117" key="57" pos="192" pan="0" len="48"/>
          <note vol="117" key="55" pos="312" pan="0" len="24"/>
          <note vol="117" key="59" pos="336" pan="0" len="12"/>
          <note vol="117" key="55" pos="348" pan="0" len="36"/>
          <note vol="117" key="57" pos="384" pan="0" len="48"/>
          <note vol="117" key="55" pos="504" pan="0" len="36"/>
          <note vol="117" key="55" pos="540" pan="0" len="36"/>
          <note vol="117" key="57" pos="576" pan="0" len="48"/>
          <note vol="117" key="55" pos="696" pan="0" len="12"/>
          <note vol="117" key="55" pos="708" pan="0" len="24"/>
          <note vol="117" key="59" pos="732" pan="0" len="12"/>
          <note vol="117" key="55" pos="744" pan="0" len="24"/>
        </pattern>
        <pattern muted="0" pos="7488" steps="16" type="1" name="FM_Bass.ds">
          <note vol="44" key="55" pos="120" pan="0" len="12"/>
          <note vol="72" key="55" pos="132" pan="0" len="12"/>
          <note vol="85" key="55" pos="144" pan="0" len="12"/>
          <note vol="100" key="55" pos="156" pan="0" len="12"/>
          <note vol="117" key="55" pos="168" pan="0" len="12"/>
          <note vol="131" key="55" pos="180" pan="0" len="12"/>
        </pattern>
        <pattern muted="0" pos="8448" steps="16" type="1" name="FM_Bass.ds">
          <note vol="117" key="57" pos="0" pan="0" len="48"/>
          <note vol="117" key="55" pos="120" pan="0" len="36"/>
          <note vol="117" key="55" pos="156" pan="0" len="36"/>
          <note vol="117" key="57" pos="192" pan="0" len="48"/>
          <note vol="117" key="55" pos="312" pan="0" len="24"/>
          <note vol="117" key="59" pos="336" pan="0" len="12"/>
          <note vol="117" key="55" pos="348" pan="0" len="36"/>
          <note vol="117" key="57" pos="384" pan="0" len="48"/>
          <note vol="117" key="55" pos="504" pan="0" len="36"/>
          <note vol="117" key="55" pos="540" pan="0" len="36"/>
          <note vol="117" key="57" pos="576" pan="0" len="48"/>
          <note vol="117" key="55" pos="696" pan="0" len="12"/>
          <note vol="117" key="55" pos="708" pan="0" len="24"/>
          <note vol="117" key="59" pos="732" pan="0" len="12"/>
          <note vol="117" key="55" pos="744" pan="0" len="24"/>
        </pattern>
        <pattern muted="0" pos="9216" steps="16" type="1" name="FM_Bass.ds">
          <note vol="117" key="57" pos="0" pan="0" len="48"/>
          <note vol="117" key="55" pos="120" pan="0" len="36"/>
          <note vol="117" key="55" pos="156" pan="0" len="36"/>
          <note vol="117" key="57" pos="192" pan="0" len="48"/>
          <note vol="117" key="55" pos="312" pan="0" len="24"/>
          <note vol="117" key="59" pos="336" pan="0" len="12"/>
          <note vol="117" key="55" pos="348" pan="0" len="36"/>
          <note vol="117" key="57" pos="384" pan="0" len="48"/>
          <note vol="117" key="55" pos="504" pan="0" len="36"/>
          <note vol="117" key="55" pos="540" pan="0" len="36"/>
          <note vol="117" key="57" pos="576" pan="0" len="48"/>
          <note vol="117" key="55" pos="696" pan="0" len="12"/>
          <note vol="117" key="55" pos="708" pan="0" len="24"/>
          <note vol="117" key="59" pos="732" pan="0" len="12"/>
          <note vol="117" key="55" pos="744" pan="0" len="24"/>
        </pattern>
        <pattern muted="0" pos="9984" steps="16" type="1" name="">
          <note vol="117" key="57" pos="0" pan="0" len="48"/>
          <note vol="117" key="55" pos="120" pan="0" len="36"/>
          <note vol="117" key="55" pos="156" pan="0" len="36"/>
          <note vol="117" key="57" pos="192" pan="0" len="48"/>
          <note vol="117" key="55" pos="312" pan="0" len="24"/>
          <note vol="117" key="59" pos="336" pan="0" len="12"/>
          <note vol="117" key="55" pos="348" pan="0" len="36"/>
          <note vol="117" key="57" pos="384" pan="0" len="48"/>
          <note vol="117" key="55" pos="504" pan="0" len="36"/>
          <note vol="117" key="55" pos="540" pan="0" len="36"/>
          <note vol="117" key="57" pos="576" pan="0" len="48"/>
          <note vol="117" key="55" pos="696" pan="0" len="12"/>
          <note vol="117" key="55" pos="708" pan="0" len="24"/>
          <note vol="117" key="59" pos="732" pan="0" len="12"/>
          <note vol="117" key="55" pos="744" pan="0" len="24"/>
        </pattern>
        <pattern muted="0" pos="10752" steps="16" type="1" name="">
          <note vol="117" key="57" pos="0" pan="0" len="48"/>
          <note vol="117" key="55" pos="120" pan="0" len="36"/>
          <note vol="117" key="55" pos="156" pan="0" len="36"/>
          <note vol="117" key="57" pos="192" pan="0" len="48"/>
          <note vol="117" key="55" pos="312" pan="0" len="24"/>
          <note vol="117" key="59" pos="336" pan="0" len="12"/>
          <note vol="117" key="55" pos="348" pan="0" len="36"/>
          <note vol="117" key="57" pos="384" pan="0" len="48"/>
          <note vol="117" key="55" pos="504" pan="0" len="36"/>
          <note vol="117" key="55" pos="540" pan="0" len="36"/>
          <note vol="117" key="57" pos="576" pan="0" len="48"/>
          <note vol="117" key="55" pos="696" pan="0" len="12"/>
          <note vol="117" key="55" pos="708" pan="0" len="24"/>
          <note vol="117" key="59" pos="732" pan="0" len="12"/>
          <note vol="117" key="55" pos="744" pan="0" len="24"/>
        </pattern>
        <pattern muted="0" pos="17664" steps="16" type="1" name="">
          <note vol="117" key="57" pos="0" pan="0" len="48"/>
          <note vol="117" key="55" pos="120" pan="0" len="36"/>
          <note vol="117" key="55" pos="156" pan="0" len="36"/>
          <note vol="117" key="57" pos="192" pan="0" len="48"/>
          <note vol="117" key="55" pos="312" pan="0" len="24"/>
          <note vol="117" key="59" pos="336" pan="0" len="12"/>
          <note vol="117" key="55" pos="348" pan="0" len="36"/>
          <note vol="117" key="57" pos="384" pan="0" len="48"/>
          <note vol="117" key="55" pos="504" pan="0" len="36"/>
          <note vol="117" key="55" pos="540" pan="0" len="36"/>
          <note vol="117" key="57" pos="576" pan="0" len="48"/>
          <note vol="117" key="55" pos="696" pan="0" len="12"/>
          <note vol="117" key="55" pos="708" pan="0" len="24"/>
          <note vol="117" key="59" pos="732" pan="0" len="12"/>
          <note vol="117" key="55" pos="744" pan="0" len="24"/>
        </pattern>
        <pattern muted="0" pos="18432" steps="16" type="1" name="">
          <note vol="117" key="57" pos="0" pan="0" len="48"/>
          <note vol="117" key="55" pos="120" pan="0" len="36"/>
          <note vol="117" key="55" pos="156" pan="0" len="36"/>
          <note vol="117" key="57" pos="192" pan="0" len="48"/>
          <note vol="117" key="55" pos="312" pan="0" len="24"/>
          <note vol="117" key="59" pos="336" pan="0" len="12"/>
          <note vol="117" key="55" pos="348" pan="0" len="36"/>
          <note vol="117" key="57" pos="384" pan="0" len="48"/>
          <note vol="117" key="55" pos="504" pan="0" len="36"/>
          <note vol="117" key="55" pos="540" pan="0" len="36"/>
          <note vol="117" key="57" pos="576" pan="0" len="48"/>
          <note vol="117" key="55" pos="696" pan="0" len="12"/>
          <note vol="117" key="55" pos="708" pan="0" len="24"/>
          <note vol="117" key="59" pos="732" pan="0" len="12"/>
          <note vol="117" key="55" pos="744" pan="0" len="24"/>
        </pattern>
        <pattern muted="0" pos="19200" steps="16" type="1" name="">
          <note vol="117" key="57" pos="0" pan="0" len="48"/>
          <note vol="117" key="55" pos="120" pan="0" len="36"/>
          <note vol="117" key="55" pos="156" pan="0" len="36"/>
          <note vol="117" key="57" pos="192" pan="0" len="48"/>
          <note vol="117" key="55" pos="312" pan="0" len="24"/>
          <note vol="117" key="59" pos="336" pan="0" len="12"/>
          <note vol="117" key="55" pos="348" pan="0" len="36"/>
          <note vol="117" key="57" pos="384" pan="0" len="48"/>
          <note vol="117" key="55" pos="504" pan="0" len="36"/>
          <note vol="117" key="55" pos="540" pan="0" len="36"/>
          <note vol="117" key="57" pos="576" pan="0" len="48"/>
          <note vol="117" key="55" pos="696" pan="0" len="12"/>
          <note vol="117" key="55" pos="708" pan="0" len="24"/>
          <note vol="117" key="59" pos="732" pan="0" len="12"/>
          <note vol="117" key="55" pos="744" pan="0" len="24"/>
        </pattern>
        <pattern muted="0" pos="19968" steps="16" type="1" name="">
          <note vol="117" key="57" pos="0" pan="0" len="48"/>
          <note vol="117" key="55" pos="120" pan="0" len="36"/>
          <note vol="117" key="55" pos="156" pan="0" len="36"/>
          <note vol="117" key="57" pos="192" pan="0" len="48"/>
          <note vol="117" key="55" pos="312" pan="0" len="24"/>
          <note vol="117" key="59" pos="336" pan="0" len="12"/>
          <note vol="117" key="55" pos="348" pan="0" len="36"/>
          <note vol="117" key="57" pos="384" pan="0" len="48"/>
          <note vol="117" key="55" pos="504" pan="0" len="36"/>
          <note vol="117" key="55" pos="540" pan="0" len="36"/>
          <note vol="117" key="57" pos="576" pan="0" len="48"/>
          <note vol="117" key="55" pos="696" pan="0" len="12"/>
          <note vol="117" key="55" pos="708" pan="0" len="24"/>
          <note vol="117" key="59" pos="732" pan="0" len="12"/>
          <note vol="117" key="55" pos="744" pan="0" len="24"/>
        </pattern>
        <pattern muted="0" pos="20736" steps="16" type="1" name="">
          <note vol="117" key="57" pos="0" pan="0" len="48"/>
          <note vol="117" key="55" pos="120" pan="0" len="36"/>
          <note vol="117" key="55" pos="156" pan="0" len="36"/>
          <note vol="117" key="57" pos="192" pan="0" len="48"/>
          <note vol="117" key="55" pos="312" pan="0" len="24"/>
          <note vol="117" key="59" pos="336" pan="0" len="12"/>
          <note vol="117" key="55" pos="348" pan="0" len="36"/>
          <note vol="117" key="57" pos="384" pan="0" len="48"/>
          <note vol="117" key="55" pos="504" pan="0" len="36"/>
          <note vol="117" key="55" pos="540" pan="0" len="36"/>
          <note vol="117" key="57" pos="576" pan="0" len="48"/>
          <note vol="117" key="55" pos="696" pan="0" len="12"/>
          <note vol="117" key="55" pos="708" pan="0" len="24"/>
          <note vol="117" key="59" pos="732" pan="0" len="12"/>
          <note vol="117" key="55" pos="744" pan="0" len="24"/>
        </pattern>
        <pattern muted="0" pos="17472" steps="16" type="1" name="">
          <note vol="44" key="55" pos="120" pan="0" len="12"/>
          <note vol="72" key="55" pos="132" pan="0" len="12"/>
          <note vol="85" key="55" pos="144" pan="0" len="12"/>
          <note vol="100" key="55" pos="156" pan="0" len="12"/>
          <note vol="117" key="55" pos="168" pan="0" len="12"/>
          <note vol="131" key="55" pos="180" pan="0" len="12"/>
        </pattern>
        <pattern muted="0" pos="21504" steps="16" type="1" name="">
          <note vol="117" key="57" pos="0" pan="0" len="48"/>
          <note vol="117" key="55" pos="120" pan="0" len="36"/>
          <note vol="117" key="55" pos="156" pan="0" len="36"/>
          <note vol="117" key="57" pos="192" pan="0" len="48"/>
          <note vol="117" key="55" pos="312" pan="0" len="24"/>
          <note vol="117" key="59" pos="336" pan="0" len="12"/>
          <note vol="117" key="55" pos="348" pan="0" len="36"/>
          <note vol="117" key="57" pos="384" pan="0" len="48"/>
          <note vol="117" key="55" pos="504" pan="0" len="36"/>
          <note vol="117" key="55" pos="540" pan="0" len="36"/>
          <note vol="117" key="57" pos="576" pan="0" len="48"/>
          <note vol="117" key="55" pos="696" pan="0" len="12"/>
          <note vol="117" key="55" pos="708" pan="0" len="24"/>
          <note vol="117" key="59" pos="732" pan="0" len="12"/>
          <note vol="117" key="55" pos="744" pan="0" len="24"/>
        </pattern>
        <pattern muted="0" pos="22272" steps="16" type="1" name="">
          <note vol="117" key="57" pos="0" pan="0" len="48"/>
          <note vol="117" key="55" pos="120" pan="0" len="36"/>
          <note vol="117" key="55" pos="156" pan="0" len="36"/>
          <note vol="117" key="57" pos="192" pan="0" len="48"/>
          <note vol="117" key="55" pos="312" pan="0" len="24"/>
          <note vol="117" key="59" pos="336" pan="0" len="12"/>
          <note vol="117" key="55" pos="348" pan="0" len="36"/>
          <note vol="117" key="57" pos="384" pan="0" len="48"/>
          <note vol="117" key="55" pos="504" pan="0" len="36"/>
          <note vol="117" key="55" pos="540" pan="0" len="36"/>
          <note vol="117" key="57" pos="576" pan="0" len="48"/>
          <note vol="117" key="55" pos="696" pan="0" len="12"/>
          <note vol="117" key="55" pos="708" pan="0" len="24"/>
          <note vol="117" key="59" pos="732" pan="0" len="12"/>
          <note vol="117" key="55" pos="744" pan="0" len="24"/>
        </pattern>
        <pattern muted="0" pos="23040" steps="16" type="1" name="">
          <note vol="117" key="57" pos="0" pan="0" len="48"/>
          <note vol="117" key="55" pos="120" pan="0" len="36"/>
          <note vol="117" key="55" pos="156" pan="0" len="36"/>
          <note vol="117" key="57" pos="192" pan="0" len="48"/>
          <note vol="117" key="55" pos="312" pan="0" len="24"/>
          <note vol="117" key="59" pos="336" pan="0" len="12"/>
          <note vol="117" key="55" pos="348" pan="0" len="36"/>
          <note vol="117" key="57" pos="384" pan="0" len="48"/>
          <note vol="117" key="55" pos="504" pan="0" len="36"/>
          <note vol="117" key="55" pos="540" pan="0" len="36"/>
          <note vol="117" key="57" pos="576" pan="0" len="48"/>
          <note vol="117" key="55" pos="696" pan="0" len="12"/>
          <note vol="117" key="55" pos="708" pan="0" len="24"/>
          <note vol="117" key="59" pos="732" pan="0" len="12"/>
          <note vol="117" key="55" pos="744" pan="0" len="24"/>
        </pattern>
      </track>
      <track muted="0" type="0" solo="0" name="mute_bass.ds">
        <instrumenttrack vol="84" basenote="57" pitch="0" fxch="0" pan="0" usemasterpitch="1" pitchrange="1">
          <instrument name="audiofileprocessor">
            <audiofileprocessor eframe="1" stutter="0" lframe="0" src="drumsynth/instrument/mute_bass.ds" looped="0" amp="100" reversed="0" sframe="0" interp="1"/>
          </instrument>
          <eldata fcut="14000" ftype="0" fres="0.5" fwet="0">
            <elvol lspd_denominator="4" lshp="0" lamt="0" lpdel="0" rel="0.1" hold="0.5" lspd_syncmode="0" ctlenvamt="0" lspd="0.1" amt="1" x100="0" lspd_numerator="4" att="0" dec="0.5" userwavefile="" latt="0" pdel="0" sustain="0.5"/>
            <elcut lspd_denominator="4" lshp="0" lamt="0" lpdel="0" rel="0.1" hold="0.5" lspd_syncmode="0" ctlenvamt="0" lspd="0.1" amt="0" x100="0" lspd_numerator="4" att="0" dec="0.5" userwavefile="" latt="0" pdel="0" sustain="0.5"/>
            <elres lspd_denominator="4" lshp="0" lamt="0" lpdel="0" rel="0.1" hold="0.5" lspd_syncmode="0" ctlenvamt="0" lspd="0.1" amt="0" x100="0" lspd_numerator="4" att="0" dec="0.5" userwavefile="" latt="0" pdel="0" sustain="0.5"/>
          </eldata>
          <chordcreator chord="0" chord-enabled="0" chordrange="1"/>
          <arpeggiator arpcycle="0" arp-enabled="0" arptime_syncmode="0" arpmode="0" arpskip="0" arpgate="100" arprange="1" arptime_numerator="4" arptime="200" arpmiss="0" arpdir="0" arptime_denominator="4" arp="0"/>
          <midiport fixedoutputvelocity="-1" writable="0" inputcontroller="0" outputchannel="1" outputcontroller="0" fixedinputvelocity="-1" inputchannel="0" basevelocity="63" readable="0" fixedoutputnote="-1" outputprogram="1"/>
          <fxchain numofeffects="0" enabled="0"/>
        </instrumenttrack>
        <pattern muted="0" pos="8448" steps="16" type="1" name="mute_bass.ds">
          <note vol="117" key="57" pos="0" pan="0" len="36"/>
          <note vol="117" key="57" pos="36" pan="0" len="36"/>
          <note vol="117" key="57" pos="72" pan="0" len="36"/>
          <note vol="117" key="55" pos="120" pan="0" len="36"/>
          <note vol="117" key="55" pos="156" pan="0" len="36"/>
          <note vol="117" key="57" pos="192" pan="0" len="36"/>
          <note vol="117" key="57" pos="228" pan="0" len="36"/>
          <note vol="117" key="57" pos="264" pan="0" len="36"/>
          <note vol="117" key="55" pos="312" pan="0" len="36"/>
          <note vol="117" key="55" pos="348" pan="0" len="36"/>
          <note vol="117" key="57" pos="384" pan="0" len="36"/>
          <note vol="117" key="57" pos="420" pan="0" len="36"/>
          <note vol="117" key="57" pos="456" pan="0" len="36"/>
          <note vol="117" key="55" pos="504" pan="0" len="36"/>
          <note vol="117" key="55" pos="540" pan="0" len="36"/>
          <note vol="117" key="57" pos="576" pan="0" len="36"/>
          <note vol="117" key="57" pos="612" pan="0" len="36"/>
          <note vol="117" key="57" pos="648" pan="0" len="36"/>
          <note vol="117" key="55" pos="696" pan="0" len="36"/>
          <note vol="117" key="55" pos="732" pan="0" len="36"/>
        </pattern>
        <pattern muted="0" pos="9216" steps="16" type="1" name="">
          <note vol="117" key="57" pos="0" pan="0" len="36"/>
          <note vol="117" key="57" pos="36" pan="0" len="36"/>
          <note vol="117" key="57" pos="72" pan="0" len="36"/>
          <note vol="117" key="55" pos="120" pan="0" len="36"/>
          <note vol="117" key="55" pos="156" pan="0" len="36"/>
          <note vol="117" key="57" pos="192" pan="0" len="36"/>
          <note vol="117" key="57" pos="228" pan="0" len="36"/>
          <note vol="117" key="57" pos="264" pan="0" len="36"/>
          <note vol="117" key="55" pos="312" pan="0" len="36"/>
          <note vol="117" key="55" pos="348" pan="0" len="36"/>
          <note vol="117" key="57" pos="384" pan="0" len="36"/>
          <note vol="117" key="57" pos="420" pan="0" len="36"/>
          <note vol="117" key="57" pos="456" pan="0" len="36"/>
          <note vol="117" key="55" pos="504" pan="0" len="36"/>
          <note vol="117" key="55" pos="540" pan="0" len="36"/>
          <note vol="117" key="57" pos="576" pan="0" len="36"/>
          <note vol="117" key="57" pos="612" pan="0" len="36"/>
          <note vol="117" key="57" pos="648" pan="0" len="36"/>
          <note vol="117" key="55" pos="696" pan="0" len="36"/>
          <note vol="117" key="55" pos="732" pan="0" len="36"/>
        </pattern>
        <pattern muted="0" pos="9984" steps="16" type="1" name="">
          <note vol="117" key="57" pos="0" pan="0" len="36"/>
          <note vol="117" key="57" pos="36" pan="0" len="36"/>
          <note vol="117" key="57" pos="72" pan="0" len="36"/>
          <note vol="117" key="55" pos="120" pan="0" len="36"/>
          <note vol="117" key="55" pos="156" pan="0" len="36"/>
          <note vol="117" key="57" pos="192" pan="0" len="36"/>
          <note vol="117" key="57" pos="228" pan="0" len="36"/>
          <note vol="117" key="57" pos="264" pan="0" len="36"/>
          <note vol="117" key="55" pos="312" pan="0" len="36"/>
          <note vol="117" key="55" pos="348" pan="0" len="36"/>
          <note vol="117" key="57" pos="384" pan="0" len="36"/>
          <note vol="117" key="57" pos="420" pan="0" len="36"/>
          <note vol="117" key="57" pos="456" pan="0" len="36"/>
          <note vol="117" key="55" pos="504" pan="0" len="36"/>
          <note vol="117" key="55" pos="540" pan="0" len="36"/>
          <note vol="117" key="57" pos="576" pan="0" len="36"/>
          <note vol="117" key="57" pos="612" pan="0" len="36"/>
          <note vol="117" key="57" pos="648" pan="0" len="36"/>
          <note vol="117" key="55" pos="696" pan="0" len="36"/>
          <note vol="117" key="55" pos="732" pan="0" len="36"/>
        </pattern>
        <pattern muted="0" pos="10752" steps="16" type="1" name="">
          <note vol="117" key="57" pos="0" pan="0" len="36"/>
          <note vol="117" key="57" pos="36" pan="0" len="36"/>
          <note vol="117" key="57" pos="72" pan="0" len="36"/>
          <note vol="117" key="55" pos="120" pan="0" len="36"/>
          <note vol="117" key="55" pos="156" pan="0" len="36"/>
          <note vol="117" key="57" pos="192" pan="0" len="36"/>
          <note vol="117" key="57" pos="228" pan="0" len="36"/>
          <note vol="117" key="57" pos="264" pan="0" len="36"/>
          <note vol="117" key="55" pos="312" pan="0" len="36"/>
          <note vol="117" key="55" pos="348" pan="0" len="36"/>
          <note vol="117" key="57" pos="384" pan="0" len="36"/>
          <note vol="117" key="57" pos="420" pan="0" len="36"/>
          <note vol="117" key="57" pos="456" pan="0" len="36"/>
          <note vol="117" key="55" pos="504" pan="0" len="36"/>
          <note vol="117" key="55" pos="540" pan="0" len="36"/>
          <note vol="117" key="57" pos="576" pan="0" len="36"/>
          <note vol="117" key="57" pos="612" pan="0" len="36"/>
          <note vol="117" key="57" pos="648" pan="0" len="36"/>
          <note vol="117" key="55" pos="696" pan="0" len="36"/>
          <note vol="117" key="55" pos="732" pan="0" len="36"/>
        </pattern>
        <pattern muted="0" pos="18432" steps="16" type="1" name="">
          <note vol="117" key="57" pos="0" pan="0" len="36"/>
          <note vol="117" key="57" pos="36" pan="0" len="36"/>
          <note vol="117" key="57" pos="72" pan="0" len="36"/>
          <note vol="117" key="55" pos="120" pan="0" len="36"/>
          <note vol="117" key="55" pos="156" pan="0" len="36"/>
          <note vol="117" key="57" pos="192" pan="0" len="36"/>
          <note vol="117" key="57" pos="228" pan="0" len="36"/>
          <note vol="117" key="57" pos="264" pan="0" len="36"/>
          <note vol="117" key="55" pos="312" pan="0" len="36"/>
          <note vol="117" key="55" pos="348" pan="0" len="36"/>
          <note vol="117" key="57" pos="384" pan="0" len="36"/>
          <note vol="117" key="57" pos="420" pan="0" len="36"/>
          <note vol="117" key="57" pos="456" pan="0" len="36"/>
          <note vol="117" key="55" pos="504" pan="0" len="36"/>
          <note vol="117" key="55" pos="540" pan="0" len="36"/>
          <note vol="117" key="57" pos="576" pan="0" len="36"/>
          <note vol="117" key="57" pos="612" pan="0" len="36"/>
          <note vol="117" key="57" pos="648" pan="0" len="36"/>
          <note vol="117" key="55" pos="696" pan="0" len="36"/>
          <note vol="117" key="55" pos="732" pan="0" len="36"/>
        </pattern>
        <pattern muted="0" pos="19200" steps="16" type="1" name="">
          <note vol="117" key="57" pos="0" pan="0" len="36"/>
          <note vol="117" key="57" pos="36" pan="0" len="36"/>
          <note vol="117" key="57" pos="72" pan="0" len="36"/>
          <note vol="117" key="55" pos="120" pan="0" len="36"/>
          <note vol="117" key="55" pos="156" pan="0" len="36"/>
          <note vol="117" key="57" pos="192" pan="0" len="36"/>
          <note vol="117" key="57" pos="228" pan="0" len="36"/>
          <note vol="117" key="57" pos="264" pan="0" len="36"/>
          <note vol="117" key="55" pos="312" pan="0" len="36"/>
          <note vol="117" key="55" pos="348" pan="0" len="36"/>
          <note vol="117" key="57" pos="384" pan="0" len="36"/>
          <note vol="117" key="57" pos="420" pan="0" len="36"/>
          <note vol="117" key="57" pos="456" pan="0" len="36"/>
          <note vol="117" key="55" pos="504" pan="0" len="36"/>
          <note vol="117" key="55" pos="540" pan="0" len="36"/>
          <note vol="117" key="57" pos="576" pan="0" len="36"/>
          <note vol="117" key="57" pos="612" pan="0" len="36"/>
          <note vol="117" key="57" pos="648" pan="0" len="36"/>
          <note vol="117" key="55" pos="696" pan="0" len="36"/>
          <note vol="117" key="55" pos="732" pan="0" len="36"/>
        </pattern>
        <pattern muted="0" pos="19968" steps="16" type="1" name="">
          <note vol="117" key="57" pos="0" pan="0" len="36"/>
          <note vol="117" key="57" pos="36" pan="0" len="36"/>
          <note vol="117" key="57" pos="72" pan="0" len="36"/>
          <note vol="117" key="55" pos="120" pan="0" len="36"/>
          <note vol="117" key="55" pos="156" pan="0" len="36"/>
          <note vol="117" key="57" pos="192" pan="0" len="36"/>
          <note vol="117" key="57" pos="228" pan="0" len="36"/>
          <note vol="117" key="57" pos="264" pan="0" len="36"/>
          <note vol="117" key="55" pos="312" pan="0" len="36"/>
          <note vol="117" key="55" pos="348" pan="0" len="36"/>
          <note vol="117" key="57" pos="384" pan="0" len="36"/>
          <note vol="117" key="57" pos="420" pan="0" len="36"/>
          <note vol="117" key="57" pos="456" pan="0" len="36"/>
          <note vol="117" key="55" pos="504" pan="0" len="36"/>
          <note vol="117" key="55" pos="540" pan="0" len="36"/>
          <note vol="117" key="57" pos="576" pan="0" len="36"/>
          <note vol="117" key="57" pos="612" pan="0" len="36"/>
          <note vol="117" key="57" pos="648" pan="0" len="36"/>
          <note vol="117" key="55" pos="696" pan="0" len="36"/>
          <note vol="117" key="55" pos="732" pan="0" len="36"/>
        </pattern>
        <pattern muted="0" pos="20736" steps="16" type="1" name="">
          <note vol="117" key="57" pos="0" pan="0" len="36"/>
          <note vol="117" key="57" pos="36" pan="0" len="36"/>
          <note vol="117" key="57" pos="72" pan="0" len="36"/>
          <note vol="117" key="55" pos="120" pan="0" len="36"/>
          <note vol="117" key="55" pos="156" pan="0" len="36"/>
          <note vol="117" key="57" pos="192" pan="0" len="36"/>
          <note vol="117" key="57" pos="228" pan="0" len="36"/>
          <note vol="117" key="57" pos="264" pan="0" len="36"/>
          <note vol="117" key="55" pos="312" pan="0" len="36"/>
          <note vol="117" key="55" pos="348" pan="0" len="36"/>
          <note vol="117" key="57" pos="384" pan="0" len="36"/>
          <note vol="117" key="57" pos="420" pan="0" len="36"/>
          <note vol="117" key="57" pos="456" pan="0" len="36"/>
          <note vol="117" key="55" pos="504" pan="0" len="36"/>
          <note vol="117" key="55" pos="540" pan="0" len="36"/>
          <note vol="117" key="57" pos="576" pan="0" len="36"/>
          <note vol="117" key="57" pos="612" pan="0" len="36"/>
          <note vol="117" key="57" pos="648" pan="0" len="36"/>
          <note vol="117" key="55" pos="696" pan="0" len="36"/>
          <note vol="117" key="55" pos="732" pan="0" len="36"/>
        </pattern>
        <pattern muted="0" pos="21504" steps="16" type="1" name="">
          <note vol="117" key="57" pos="0" pan="0" len="36"/>
          <note vol="117" key="57" pos="36" pan="0" len="36"/>
          <note vol="117" key="57" pos="72" pan="0" len="36"/>
          <note vol="117" key="55" pos="120" pan="0" len="36"/>
          <note vol="117" key="55" pos="156" pan="0" len="36"/>
          <note vol="117" key="57" pos="192" pan="0" len="36"/>
          <note vol="117" key="57" pos="228" pan="0" len="36"/>
          <note vol="117" key="57" pos="264" pan="0" len="36"/>
          <note vol="117" key="55" pos="312" pan="0" len="36"/>
          <note vol="117" key="55" pos="348" pan="0" len="36"/>
          <note vol="117" key="57" pos="384" pan="0" len="36"/>
          <note vol="117" key="57" pos="420" pan="0" len="36"/>
          <note vol="117" key="57" pos="456" pan="0" len="36"/>
          <note vol="117" key="55" pos="504" pan="0" len="36"/>
          <note vol="117" key="55" pos="540" pan="0" len="36"/>
          <note vol="117" key="57" pos="576" pan="0" len="36"/>
          <note vol="117" key="57" pos="612" pan="0" len="36"/>
          <note vol="117" key="57" pos="648" pan="0" len="36"/>
          <note vol="117" key="55" pos="696" pan="0" len="36"/>
          <note vol="117" key="55" pos="732" pan="0" len="36"/>
        </pattern>
        <pattern muted="0" pos="22272" steps="16" type="1" name="">
          <note vol="117" key="57" pos="0" pan="0" len="36"/>
          <note vol="117" key="57" pos="36" pan="0" len="36"/>
          <note vol="117" key="57" pos="72" pan="0" len="36"/>
          <note vol="117" key="55" pos="120" pan="0" len="36"/>
          <note vol="117" key="55" pos="156" pan="0" len="36"/>
          <note vol="117" key="57" pos="192" pan="0" len="36"/>
          <note vol="117" key="57" pos="228" pan="0" len="36"/>
          <note vol="117" key="57" pos="264" pan="0" len="36"/>
          <note vol="117" key="55" pos="312" pan="0" len="36"/>
          <note vol="117" key="55" pos="348" pan="0" len="36"/>
          <note vol="117" key="57" pos="384" pan="0" len="36"/>
          <note vol="117" key="57" pos="420" pan="0" len="36"/>
          <note vol="117" key="57" pos="456" pan="0" len="36"/>
          <note vol="117" key="55" pos="504" pan="0" len="36"/>
          <note vol="117" key="55" pos="540" pan="0" len="36"/>
          <note vol="117" key="57" pos="576" pan="0" len="36"/>
          <note vol="117" key="57" pos="612" pan="0" len="36"/>
          <note vol="117" key="57" pos="648" pan="0" len="36"/>
          <note vol="117" key="55" pos="696" pan="0" len="36"/>
          <note vol="117" key="55" pos="732" pan="0" len="36"/>
        </pattern>
        <pattern muted="0" pos="23040" steps="16" type="1" name="">
          <note vol="117" key="57" pos="0" pan="0" len="36"/>
          <note vol="117" key="57" pos="36" pan="0" len="36"/>
          <note vol="117" key="57" pos="72" pan="0" len="36"/>
          <note vol="117" key="55" pos="120" pan="0" len="36"/>
          <note vol="117" key="55" pos="156" pan="0" len="36"/>
          <note vol="117" key="57" pos="192" pan="0" len="36"/>
          <note vol="117" key="57" pos="228" pan="0" len="36"/>
          <note vol="117" key="57" pos="264" pan="0" len="36"/>
          <note vol="117" key="55" pos="312" pan="0" len="36"/>
          <note vol="117" key="55" pos="348" pan="0" len="36"/>
          <note vol="117" key="57" pos="384" pan="0" len="36"/>
          <note vol="117" key="57" pos="420" pan="0" len="36"/>
          <note vol="117" key="57" pos="456" pan="0" len="36"/>
          <note vol="117" key="55" pos="504" pan="0" len="36"/>
          <note vol="117" key="55" pos="540" pan="0" len="36"/>
          <note vol="117" key="57" pos="576" pan="0" len="36"/>
          <note vol="117" key="57" pos="612" pan="0" len="36"/>
          <note vol="117" key="57" pos="648" pan="0" len="36"/>
          <note vol="117" key="55" pos="696" pan="0" len="36"/>
          <note vol="117" key="55" pos="732" pan="0" len="36"/>
        </pattern>
      </track>
      <track muted="0" type="0" solo="0" name="bassslap02.ogg">
        <instrumenttrack vol="18.4" basenote="57" pitch="0" fxch="0" pan="0" usemasterpitch="1" pitchrange="1">
          <instrument name="audiofileprocessor">
            <audiofileprocessor eframe="1" stutter="0" lframe="0" src="instruments/bassslap02.ogg" looped="0" amp="100" reversed="0" sframe="0" interp="1"/>
          </instrument>
          <eldata fcut="14000" ftype="0" fres="0.5" fwet="0">
            <elvol lspd_denominator="4" lshp="0" lamt="0" lpdel="0" rel="0.1" hold="0.5" lspd_syncmode="0" ctlenvamt="0" lspd="0.1" amt="1" x100="0" lspd_numerator="4" att="0" dec="0.5" userwavefile="" latt="0" pdel="0" sustain="0.5"/>
            <elcut lspd_denominator="4" lshp="0" lamt="0" lpdel="0" rel="0.1" hold="0.5" lspd_syncmode="0" ctlenvamt="0" lspd="0.1" amt="0" x100="0" lspd_numerator="4" att="0" dec="0.5" userwavefile="" latt="0" pdel="0" sustain="0.5"/>
            <elres lspd_denominator="4" lshp="0" lamt="0" lpdel="0" rel="0.1" hold="0.5" lspd_syncmode="0" ctlenvamt="0" lspd="0.1" amt="0" x100="0" lspd_numerator="4" att="0" dec="0.5" userwavefile="" latt="0" pdel="0" sustain="0.5"/>
          </eldata>
          <chordcreator chord="0" chord-enabled="0" chordrange="1"/>
          <arpeggiator arpcycle="0" arp-enabled="0" arptime_syncmode="0" arpmode="0" arpskip="0" arpgate="100" arprange="1" arptime_numerator="4" arptime="200" arpmiss="0" arpdir="0" arptime_denominator="4" arp="0"/>
          <midiport fixedoutputvelocity="-1" writable="0" inputcontroller="0" outputchannel="1" outputcontroller="0" fixedinputvelocity="-1" inputchannel="0" basevelocity="63" readable="0" fixedoutputnote="-1" outputprogram="1"/>
          <fxchain numofeffects="0" enabled="0"/>
        </instrumenttrack>
        <pattern muted="0" pos="8448" steps="16" type="1" name="bassslap02.ogg">
          <note vol="117" key="55" pos="0" pan="0" len="12"/>
          <note vol="104" key="57" pos="12" pan="0" len="12"/>
          <note vol="102" key="57" pos="24" pan="0" len="12"/>
          <note vol="100" key="57" pos="36" pan="0" len="12"/>
          <note vol="114" key="57" pos="48" pan="0" len="12"/>
          <note vol="112" key="57" pos="60" pan="0" len="12"/>
          <note vol="121" key="57" pos="72" pan="0" len="12"/>
          <note vol="108" key="57" pos="84" pan="0" len="12"/>
          <note vol="131" key="57" pos="96" pan="0" len="12"/>
          <note vol="131" key="57" pos="108" pan="0" len="12"/>
          <note vol="112" key="57" pos="120" pan="0" len="12"/>
          <note vol="138" key="55" pos="132" pan="0" len="12"/>
          <note vol="138" key="55" pos="144" pan="0" len="12"/>
          <note vol="119" key="55" pos="156" pan="0" len="12"/>
          <note vol="102" key="55" pos="168" pan="0" len="12"/>
          <note vol="102" key="55" pos="180" pan="0" len="6"/>
          <note vol="44" key="55" pos="186" pan="0" len="6"/>
          <note vol="117" key="55" pos="192" pan="0" len="12"/>
          <note vol="104" key="57" pos="204" pan="0" len="12"/>
          <note vol="102" key="57" pos="216" pan="0" len="12"/>
          <note vol="100" key="57" pos="228" pan="0" len="12"/>
          <note vol="114" key="57" pos="240" pan="0" len="12"/>
          <note vol="112" key="57" pos="252" pan="0" len="12"/>
          <note vol="121" key="57" pos="264" pan="0" len="12"/>
          <note vol="108" key="57" pos="276" pan="0" len="12"/>
          <note vol="131" key="57" pos="288" pan="0" len="12"/>
          <note vol="131" key="57" pos="300" pan="0" len="12"/>
          <note vol="112" key="57" pos="312" pan="0" len="12"/>
          <note vol="138" key="55" pos="324" pan="0" len="12"/>
          <note vol="138" key="55" pos="336" pan="0" len="12"/>
          <note vol="119" key="55" pos="348" pan="0" len="12"/>
          <note vol="102" key="55" pos="360" pan="0" len="12"/>
          <note vol="102" key="55" pos="372" pan="0" len="6"/>
          <note vol="44" key="55" pos="378" pan="0" len="6"/>
          <note vol="117" key="55" pos="384" pan="0" len="12"/>
          <note vol="104" key="57" pos="396" pan="0" len="12"/>
          <note vol="102" key="57" pos="408" pan="0" len="12"/>
          <note vol="100" key="57" pos="420" pan="0" len="12"/>
          <note vol="114" key="57" pos="432" pan="0" len="12"/>
          <note vol="112" key="57" pos="444" pan="0" len="12"/>
          <note vol="121" key="57" pos="456" pan="0" len="12"/>
          <note vol="108" key="57" pos="468" pan="0" len="12"/>
          <note vol="131" key="57" pos="480" pan="0" len="12"/>
          <note vol="131" key="57" pos="492" pan="0" len="12"/>
          <note vol="112" key="57" pos="504" pan="0" len="12"/>
          <note vol="138" key="55" pos="516" pan="0" len="12"/>
          <note vol="138" key="55" pos="528" pan="0" len="12"/>
          <note vol="119" key="55" pos="540" pan="0" len="12"/>
          <note vol="102" key="55" pos="552" pan="0" len="12"/>
          <note vol="102" key="55" pos="564" pan="0" len="6"/>
          <note vol="44" key="55" pos="570" pan="0" len="6"/>
          <note vol="117" key="55" pos="576" pan="0" len="12"/>
          <note vol="104" key="57" pos="588" pan="0" len="12"/>
          <note vol="102" key="57" pos="600" pan="0" len="12"/>
          <note vol="100" key="57" pos="612" pan="0" len="12"/>
          <note vol="114" key="57" pos="624" pan="0" len="12"/>
          <note vol="112" key="57" pos="636" pan="0" len="12"/>
          <note vol="121" key="57" pos="648" pan="0" len="12"/>
          <note vol="108" key="57" pos="660" pan="0" len="12"/>
          <note vol="131" key="57" pos="672" pan="0" len="12"/>
          <note vol="131" key="57" pos="684" pan="0" len="12"/>
          <note vol="112" key="57" pos="696" pan="0" len="12"/>
          <note vol="138" key="55" pos="708" pan="0" len="12"/>
          <note vol="138" key="55" pos="720" pan="0" len="12"/>
          <note vol="119" key="55" pos="732" pan="0" len="12"/>
          <note vol="102" key="55" pos="744" pan="0" len="12"/>
          <note vol="102" key="55" pos="756" pan="0" len="6"/>
          <note vol="44" key="55" pos="762" pan="0" len="6"/>
        </pattern>
        <pattern muted="0" pos="9216" steps="16" type="1" name="">
          <note vol="117" key="55" pos="0" pan="0" len="12"/>
          <note vol="104" key="57" pos="12" pan="0" len="12"/>
          <note vol="102" key="57" pos="24" pan="0" len="12"/>
          <note vol="100" key="57" pos="36" pan="0" len="12"/>
          <note vol="114" key="57" pos="48" pan="0" len="12"/>
          <note vol="112" key="57" pos="60" pan="0" len="12"/>
          <note vol="121" key="57" pos="72" pan="0" len="12"/>
          <note vol="108" key="57" pos="84" pan="0" len="12"/>
          <note vol="131" key="57" pos="96" pan="0" len="12"/>
          <note vol="131" key="57" pos="108" pan="0" len="12"/>
          <note vol="112" key="57" pos="120" pan="0" len="12"/>
          <note vol="138" key="55" pos="132" pan="0" len="12"/>
          <note vol="138" key="55" pos="144" pan="0" len="12"/>
          <note vol="119" key="55" pos="156" pan="0" len="12"/>
          <note vol="102" key="55" pos="168" pan="0" len="12"/>
          <note vol="102" key="55" pos="180" pan="0" len="6"/>
          <note vol="44" key="55" pos="186" pan="0" len="6"/>
          <note vol="117" key="55" pos="192" pan="0" len="12"/>
          <note vol="104" key="57" pos="204" pan="0" len="12"/>
          <note vol="102" key="57" pos="216" pan="0" len="12"/>
          <note vol="100" key="57" pos="228" pan="0" len="12"/>
          <note vol="114" key="57" pos="240" pan="0" len="12"/>
          <note vol="112" key="57" pos="252" pan="0" len="12"/>
          <note vol="121" key="57" pos="264" pan="0" len="12"/>
          <note vol="108" key="57" pos="276" pan="0" len="12"/>
          <note vol="131" key="57" pos="288" pan="0" len="12"/>
          <note vol="131" key="57" pos="300" pan="0" len="12"/>
          <note vol="112" key="57" pos="312" pan="0" len="12"/>
          <note vol="138" key="55" pos="324" pan="0" len="12"/>
          <note vol="138" key="55" pos="336" pan="0" len="12"/>
          <note vol="119" key="55" pos="348" pan="0" len="12"/>
          <note vol="102" key="55" pos="360" pan="0" len="12"/>
          <note vol="102" key="55" pos="372" pan="0" len="6"/>
          <note vol="44" key="55" pos="378" pan="0" len="6"/>
          <note vol="117" key="55" pos="384" pan="0" len="12"/>
          <note vol="104" key="57" pos="396" pan="0" len="12"/>
          <note vol="102" key="57" pos="408" pan="0" len="12"/>
          <note vol="100" key="57" pos="420" pan="0" len="12"/>
          <note vol="114" key="57" pos="432" pan="0" len="12"/>
          <note vol="112" key="57" pos="444" pan="0" len="12"/>
          <note vol="121" key="57" pos="456" pan="0" len="12"/>
          <note vol="108" key="57" pos="468" pan="0" len="12"/>
          <note vol="131" key="57" pos="480" pan="0" len="12"/>
          <note vol="131" key="57" pos="492" pan="0" len="12"/>
          <note vol="112" key="57" pos="504" pan="0" len="12"/>
          <note vol="138" key="55" pos="516" pan="0" len="12"/>
          <note vol="138" key="55" pos="528" pan="0" len="12"/>
          <note vol="119" key="55" pos="540" pan="0" len="12"/>
          <note vol="102" key="55" pos="552" pan="0" len="12"/>
          <note vol="102" key="55" pos="564" pan="0" len="6"/>
          <note vol="44" key="55" pos="570" pan="0" len="6"/>
          <note vol="117" key="55" pos="576" pan="0" len="12"/>
          <note vol="104" key="57" pos="588" pan="0" len="12"/>
          <note vol="102" key="57" pos="600" pan="0" len="12"/>
          <note vol="100" key="57" pos="612" pan="0" len="12"/>
          <note vol="114" key="57" pos="624" pan="0" len="12"/>
          <note vol="112" key="57" pos="636" pan="0" len="12"/>
          <note vol="121" key="57" pos="648" pan="0" len="12"/>
          <note vol="108" key="57" pos="660" pan="0" len="12"/>
          <note vol="131" key="57" pos="672" pan="0" len="12"/>
          <note vol="131" key="57" pos="684" pan="0" len="12"/>
          <note vol="112" key="57" pos="696" pan="0" len="12"/>
          <note vol="138" key="55" pos="708" pan="0" len="12"/>
          <note vol="138" key="55" pos="720" pan="0" len="12"/>
          <note vol="119" key="55" pos="732" pan="0" len="12"/>
          <note vol="102" key="55" pos="744" pan="0" len="12"/>
          <note vol="102" key="55" pos="756" pan="0" len="6"/>
          <note vol="44" key="55" pos="762" pan="0" len="6"/>
        </pattern>
        <pattern muted="0" pos="9984" steps="16" type="1" name="">
          <note vol="117" key="55" pos="0" pan="0" len="12"/>
          <note vol="104" key="57" pos="12" pan="0" len="12"/>
          <note vol="102" key="57" pos="24" pan="0" len="12"/>
          <note vol="100" key="57" pos="36" pan="0" len="12"/>
          <note vol="114" key="57" pos="48" pan="0" len="12"/>
          <note vol="112" key="57" pos="60" pan="0" len="12"/>
          <note vol="121" key="57" pos="72" pan="0" len="12"/>
          <note vol="108" key="57" pos="84" pan="0" len="12"/>
          <note vol="131" key="57" pos="96" pan="0" len="12"/>
          <note vol="131" key="57" pos="108" pan="0" len="12"/>
          <note vol="112" key="57" pos="120" pan="0" len="12"/>
          <note vol="138" key="55" pos="132" pan="0" len="12"/>
          <note vol="138" key="55" pos="144" pan="0" len="12"/>
          <note vol="119" key="55" pos="156" pan="0" len="12"/>
          <note vol="102" key="55" pos="168" pan="0" len="12"/>
          <note vol="102" key="55" pos="180" pan="0" len="6"/>
          <note vol="44" key="55" pos="186" pan="0" len="6"/>
          <note vol="117" key="55" pos="192" pan="0" len="12"/>
          <note vol="104" key="57" pos="204" pan="0" len="12"/>
          <note vol="102" key="57" pos="216" pan="0" len="12"/>
          <note vol="100" key="57" pos="228" pan="0" len="12"/>
          <note vol="114" key="57" pos="240" pan="0" len="12"/>
          <note vol="112" key="57" pos="252" pan="0" len="12"/>
          <note vol="121" key="57" pos="264" pan="0" len="12"/>
          <note vol="108" key="57" pos="276" pan="0" len="12"/>
          <note vol="131" key="57" pos="288" pan="0" len="12"/>
          <note vol="131" key="57" pos="300" pan="0" len="12"/>
          <note vol="112" key="57" pos="312" pan="0" len="12"/>
          <note vol="138" key="55" pos="324" pan="0" len="12"/>
          <note vol="138" key="55" pos="336" pan="0" len="12"/>
          <note vol="119" key="55" pos="348" pan="0" len="12"/>
          <note vol="102" key="55" pos="360" pan="0" len="12"/>
          <note vol="102" key="55" pos="372" pan="0" len="6"/>
          <note vol="44" key="55" pos="378" pan="0" len="6"/>
          <note vol="117" key="55" pos="384" pan="0" len="12"/>
          <note vol="104" key="57" pos="396" pan="0" len="12"/>
          <note vol="102" key="57" pos="408" pan="0" len="12"/>
          <note vol="100" key="57" pos="420" pan="0" len="12"/>
          <note vol="114" key="57" pos="432" pan="0" len="12"/>
          <note vol="112" key="57" pos="444" pan="0" len="12"/>
          <note vol="121" key="57" pos="456" pan="0" len="12"/>
          <note vol="108" key="57" pos="468" pan="0" len="12"/>
          <note vol="131" key="57" pos="480" pan="0" len="12"/>
          <note vol="131" key="57" pos="492" pan="0" len="12"/>
          <note vol="112" key="57" pos="504" pan="0" len="12"/>
          <note vol="138" key="55" pos="516" pan="0" len="12"/>
          <note vol="138" key="55" pos="528" pan="0" len="12"/>
          <note vol="119" key="55" pos="540" pan="0" len="12"/>
          <note vol="102" key="55" pos="552" pan="0" len="12"/>
          <note vol="102" key="55" pos="564" pan="0" len="6"/>
          <note vol="44" key="55" pos="570" pan="0" len="6"/>
          <note vol="117" key="55" pos="576" pan="0" len="12"/>
          <note vol="104" key="57" pos="588" pan="0" len="12"/>
          <note vol="102" key="57" pos="600" pan="0" len="12"/>
          <note vol="100" key="57" pos="612" pan="0" len="12"/>
          <note vol="114" key="57" pos="624" pan="0" len="12"/>
          <note vol="112" key="57" pos="636" pan="0" len="12"/>
          <note vol="121" key="57" pos="648" pan="0" len="12"/>
          <note vol="108" key="57" pos="660" pan="0" len="12"/>
          <note vol="131" key="57" pos="672" pan="0" len="12"/>
          <note vol="131" key="57" pos="684" pan="0" len="12"/>
          <note vol="112" key="57" pos="696" pan="0" len="12"/>
          <note vol="138" key="55" pos="708" pan="0" len="12"/>
          <note vol="138" key="55" pos="720" pan="0" len="12"/>
          <note vol="119" key="55" pos="732" pan="0" len="12"/>
          <note vol="102" key="55" pos="744" pan="0" len="12"/>
          <note vol="102" key="55" pos="756" pan="0" len="6"/>
          <note vol="44" key="55" pos="762" pan="0" len="6"/>
        </pattern>
        <pattern muted="0" pos="10752" steps="16" type="1" name="">
          <note vol="117" key="55" pos="0" pan="0" len="12"/>
          <note vol="104" key="57" pos="12" pan="0" len="12"/>
          <note vol="102" key="57" pos="24" pan="0" len="12"/>
          <note vol="100" key="57" pos="36" pan="0" len="12"/>
          <note vol="114" key="57" pos="48" pan="0" len="12"/>
          <note vol="112" key="57" pos="60" pan="0" len="12"/>
          <note vol="121" key="57" pos="72" pan="0" len="12"/>
          <note vol="108" key="57" pos="84" pan="0" len="12"/>
          <note vol="131" key="57" pos="96" pan="0" len="12"/>
          <note vol="131" key="57" pos="108" pan="0" len="12"/>
          <note vol="112" key="57" pos="120" pan="0" len="12"/>
          <note vol="138" key="55" pos="132" pan="0" len="12"/>
          <note vol="138" key="55" pos="144" pan="0" len="12"/>
          <note vol="119" key="55" pos="156" pan="0" len="12"/>
          <note vol="102" key="55" pos="168" pan="0" len="12"/>
          <note vol="102" key="55" pos="180" pan="0" len="6"/>
          <note vol="44" key="55" pos="186" pan="0" len="6"/>
          <note vol="117" key="55" pos="192" pan="0" len="12"/>
          <note vol="104" key="57" pos="204" pan="0" len="12"/>
          <note vol="102" key="57" pos="216" pan="0" len="12"/>
          <note vol="100" key="57" pos="228" pan="0" len="12"/>
          <note vol="114" key="57" pos="240" pan="0" len="12"/>
          <note vol="112" key="57" pos="252" pan="0" len="12"/>
          <note vol="121" key="57" pos="264" pan="0" len="12"/>
          <note vol="108" key="57" pos="276" pan="0" len="12"/>
          <note vol="131" key="57" pos="288" pan="0" len="12"/>
          <note vol="131" key="57" pos="300" pan="0" len="12"/>
          <note vol="112" key="57" pos="312" pan="0" len="12"/>
          <note vol="138" key="55" pos="324" pan="0" len="12"/>
          <note vol="138" key="55" pos="336" pan="0" len="12"/>
          <note vol="119" key="55" pos="348" pan="0" len="12"/>
          <note vol="102" key="55" pos="360" pan="0" len="12"/>
          <note vol="102" key="55" pos="372" pan="0" len="6"/>
          <note vol="44" key="55" pos="378" pan="0" len="6"/>
          <note vol="117" key="55" pos="384" pan="0" len="12"/>
          <note vol="104" key="57" pos="396" pan="0" len="12"/>
          <note vol="102" key="57" pos="408" pan="0" len="12"/>
          <note vol="100" key="57" pos="420" pan="0" len="12"/>
          <note vol="114" key="57" pos="432" pan="0" len="12"/>
          <note vol="112" key="57" pos="444" pan="0" len="12"/>
          <note vol="121" key="57" pos="456" pan="0" len="12"/>
          <note vol="108" key="57" pos="468" pan="0" len="12"/>
          <note vol="131" key="57" pos="480" pan="0" len="12"/>
          <note vol="131" key="57" pos="492" pan="0" len="12"/>
          <note vol="112" key="57" pos="504" pan="0" len="12"/>
          <note vol="138" key="55" pos="516" pan="0" len="12"/>
          <note vol="138" key="55" pos="528" pan="0" len="12"/>
          <note vol="119" key="55" pos="540" pan="0" len="12"/>
          <note vol="102" key="55" pos="552" pan="0" len="12"/>
          <note vol="102" key="55" pos="564" pan="0" len="6"/>
          <note vol="44" key="55" pos="570" pan="0" len="6"/>
          <note vol="117" key="55" pos="576" pan="0" len="12"/>
          <note vol="104" key="57" pos="588" pan="0" len="12"/>
          <note vol="102" key="57" pos="600" pan="0" len="12"/>
          <note vol="100" key="57" pos="612" pan="0" len="12"/>
          <note vol="114" key="57" pos="624" pan="0" len="12"/>
          <note vol="112" key="57" pos="636" pan="0" len="12"/>
          <note vol="121" key="57" pos="648" pan="0" len="12"/>
          <note vol="108" key="57" pos="660" pan="0" len="12"/>
          <note vol="131" key="57" pos="672" pan="0" len="12"/>
          <note vol="131" key="57" pos="684" pan="0" len="12"/>
          <note vol="112" key="57" pos="696" pan="0" len="12"/>
          <note vol="138" key="55" pos="708" pan="0" len="12"/>
          <note vol="138" key="55" pos="720" pan="0" len="12"/>
          <note vol="119" key="55" pos="732" pan="0" len="12"/>
          <note vol="102" key="55" pos="744" pan="0" len="12"/>
          <note vol="102" key="55" pos="756" pan="0" len="6"/>
          <note vol="44" key="55" pos="762" pan="0" len="6"/>
        </pattern>
        <pattern muted="0" pos="18432" steps="16" type="1" name="">
          <note vol="117" key="55" pos="0" pan="0" len="12"/>
          <note vol="104" key="57" pos="12" pan="0" len="12"/>
          <note vol="102" key="57" pos="24" pan="0" len="12"/>
          <note vol="100" key="57" pos="36" pan="0" len="12"/>
          <note vol="114" key="57" pos="48" pan="0" len="12"/>
          <note vol="112" key="57" pos="60" pan="0" len="12"/>
          <note vol="121" key="57" pos="72" pan="0" len="12"/>
          <note vol="108" key="57" pos="84" pan="0" len="12"/>
          <note vol="131" key="57" pos="96" pan="0" len="12"/>
          <note vol="131" key="57" pos="108" pan="0" len="12"/>
          <note vol="112" key="57" pos="120" pan="0" len="12"/>
          <note vol="138" key="55" pos="132" pan="0" len="12"/>
          <note vol="138" key="55" pos="144" pan="0" len="12"/>
          <note vol="119" key="55" pos="156" pan="0" len="12"/>
          <note vol="102" key="55" pos="168" pan="0" len="12"/>
          <note vol="102" key="55" pos="180" pan="0" len="6"/>
          <note vol="44" key="55" pos="186" pan="0" len="6"/>
          <note vol="117" key="55" pos="192" pan="0" len="12"/>
          <note vol="104" key="57" pos="204" pan="0" len="12"/>
          <note vol="102" key="57" pos="216" pan="0" len="12"/>
          <note vol="100" key="57" pos="228" pan="0" len="12"/>
          <note vol="114" key="57" pos="240" pan="0" len="12"/>
          <note vol="112" key="57" pos="252" pan="0" len="12"/>
          <note vol="121" key="57" pos="264" pan="0" len="12"/>
          <note vol="108" key="57" pos="276" pan="0" len="12"/>
          <note vol="131" key="57" pos="288" pan="0" len="12"/>
          <note vol="131" key="57" pos="300" pan="0" len="12"/>
          <note vol="112" key="57" pos="312" pan="0" len="12"/>
          <note vol="138" key="55" pos="324" pan="0" len="12"/>
          <note vol="138" key="55" pos="336" pan="0" len="12"/>
          <note vol="119" key="55" pos="348" pan="0" len="12"/>
          <note vol="102" key="55" pos="360" pan="0" len="12"/>
          <note vol="102" key="55" pos="372" pan="0" len="6"/>
          <note vol="44" key="55" pos="378" pan="0" len="6"/>
          <note vol="117" key="55" pos="384" pan="0" len="12"/>
          <note vol="104" key="57" pos="396" pan="0" len="12"/>
          <note vol="102" key="57" pos="408" pan="0" len="12"/>
          <note vol="100" key="57" pos="420" pan="0" len="12"/>
          <note vol="114" key="57" pos="432" pan="0" len="12"/>
          <note vol="112" key="57" pos="444" pan="0" len="12"/>
          <note vol="121" key="57" pos="456" pan="0" len="12"/>
          <note vol="108" key="57" pos="468" pan="0" len="12"/>
          <note vol="131" key="57" pos="480" pan="0" len="12"/>
          <note vol="131" key="57" pos="492" pan="0" len="12"/>
          <note vol="112" key="57" pos="504" pan="0" len="12"/>
          <note vol="138" key="55" pos="516" pan="0" len="12"/>
          <note vol="138" key="55" pos="528" pan="0" len="12"/>
          <note vol="119" key="55" pos="540" pan="0" len="12"/>
          <note vol="102" key="55" pos="552" pan="0" len="12"/>
          <note vol="102" key="55" pos="564" pan="0" len="6"/>
          <note vol="44" key="55" pos="570" pan="0" len="6"/>
          <note vol="117" key="55" pos="576" pan="0" len="12"/>
          <note vol="104" key="57" pos="588" pan="0" len="12"/>
          <note vol="102" key="57" pos="600" pan="0" len="12"/>
          <note vol="100" key="57" pos="612" pan="0" len="12"/>
          <note vol="114" key="57" pos="624" pan="0" len="12"/>
          <note vol="112" key="57" pos="636" pan="0" len="12"/>
          <note vol="121" key="57" pos="648" pan="0" len="12"/>
          <note vol="108" key="57" pos="660" pan="0" len="12"/>
          <note vol="131" key="57" pos="672" pan="0" len="12"/>
          <note vol="131" key="57" pos="684" pan="0" len="12"/>
          <note vol="112" key="57" pos="696" pan="0" len="12"/>
          <note vol="138" key="55" pos="708" pan="0" len="12"/>
          <note vol="138" key="55" pos="720" pan="0" len="12"/>
          <note vol="119" key="55" pos="732" pan="0" len="12"/>
          <note vol="102" key="55" pos="744" pan="0" len="12"/>
          <note vol="102" key="55" pos="756" pan="0" len="6"/>
          <note vol="44" key="55" pos="762" pan="0" len="6"/>
        </pattern>
        <pattern muted="0" pos="19200" steps="16" type="1" name="">
          <note vol="117" key="55" pos="0" pan="0" len="12"/>
          <note vol="104" key="57" pos="12" pan="0" len="12"/>
          <note vol="102" key="57" pos="24" pan="0" len="12"/>
          <note vol="100" key="57" pos="36" pan="0" len="12"/>
          <note vol="114" key="57" pos="48" pan="0" len="12"/>
          <note vol="112" key="57" pos="60" pan="0" len="12"/>
          <note vol="121" key="57" pos="72" pan="0" len="12"/>
          <note vol="108" key="57" pos="84" pan="0" len="12"/>
          <note vol="131" key="57" pos="96" pan="0" len="12"/>
          <note vol="131" key="57" pos="108" pan="0" len="12"/>
          <note vol="112" key="57" pos="120" pan="0" len="12"/>
          <note vol="138" key="55" pos="132" pan="0" len="12"/>
          <note vol="138" key="55" pos="144" pan="0" len="12"/>
          <note vol="119" key="55" pos="156" pan="0" len="12"/>
          <note vol="102" key="55" pos="168" pan="0" len="12"/>
          <note vol="102" key="55" pos="180" pan="0" len="6"/>
          <note vol="44" key="55" pos="186" pan="0" len="6"/>
          <note vol="117" key="55" pos="192" pan="0" len="12"/>
          <note vol="104" key="57" pos="204" pan="0" len="12"/>
          <note vol="102" key="57" pos="216" pan="0" len="12"/>
          <note vol="100" key="57" pos="228" pan="0" len="12"/>
          <note vol="114" key="57" pos="240" pan="0" len="12"/>
          <note vol="112" key="57" pos="252" pan="0" len="12"/>
          <note vol="121" key="57" pos="264" pan="0" len="12"/>
          <note vol="108" key="57" pos="276" pan="0" len="12"/>
          <note vol="131" key="57" pos="288" pan="0" len="12"/>
          <note vol="131" key="57" pos="300" pan="0" len="12"/>
          <note vol="112" key="57" pos="312" pan="0" len="12"/>
          <note vol="138" key="55" pos="324" pan="0" len="12"/>
          <note vol="138" key="55" pos="336" pan="0" len="12"/>
          <note vol="119" key="55" pos="348" pan="0" len="12"/>
          <note vol="102" key="55" pos="360" pan="0" len="12"/>
          <note vol="102" key="55" pos="372" pan="0" len="6"/>
          <note vol="44" key="55" pos="378" pan="0" len="6"/>
          <note vol="117" key="55" pos="384" pan="0" len="12"/>
          <note vol="104" key="57" pos="396" pan="0" len="12"/>
          <note vol="102" key="57" pos="408" pan="0" len="12"/>
          <note vol="100" key="57" pos="420" pan="0" len="12"/>
          <note vol="114" key="57" pos="432" pan="0" len="12"/>
          <note vol="112" key="57" pos="444" pan="0" len="12"/>
          <note vol="121" key="57" pos="456" pan="0" len="12"/>
          <note vol="108" key="57" pos="468" pan="0" len="12"/>
          <note vol="131" key="57" pos="480" pan="0" len="12"/>
          <note vol="131" key="57" pos="492" pan="0" len="12"/>
          <note vol="112" key="57" pos="504" pan="0" len="12"/>
          <note vol="138" key="55" pos="516" pan="0" len="12"/>
          <note vol="138" key="55" pos="528" pan="0" len="12"/>
          <note vol="119" key="55" pos="540" pan="0" len="12"/>
          <note vol="102" key="55" pos="552" pan="0" len="12"/>
          <note vol="102" key="55" pos="564" pan="0" len="6"/>
          <note vol="44" key="55" pos="570" pan="0" len="6"/>
          <note vol="117" key="55" pos="576" pan="0" len="12"/>
          <note vol="104" key="57" pos="588" pan="0" len="12"/>
          <note vol="102" key="57" pos="600" pan="0" len="12"/>
          <note vol="100" key="57" pos="612" pan="0" len="12"/>
          <note vol="114" key="57" pos="624" pan="0" len="12"/>
          <note vol="112" key="57" pos="636" pan="0" len="12"/>
          <note vol="121" key="57" pos="648" pan="0" len="12"/>
          <note vol="108" key="57" pos="660" pan="0" len="12"/>
          <note vol="131" key="57" pos="672" pan="0" len="12"/>
          <note vol="131" key="57" pos="684" pan="0" len="12"/>
          <note vol="112" key="57" pos="696" pan="0" len="12"/>
          <note vol="138" key="55" pos="708" pan="0" len="12"/>
          <note vol="138" key="55" pos="720" pan="0" len="12"/>
          <note vol="119" key="55" pos="732" pan="0" len="12"/>
          <note vol="102" key="55" pos="744" pan="0" len="12"/>
          <note vol="102" key="55" pos="756" pan="0" len="6"/>
          <note vol="44" key="55" pos="762" pan="0" len="6"/>
        </pattern>
        <pattern muted="0" pos="19968" steps="16" type="1" name="">
          <note vol="117" key="55" pos="0" pan="0" len="12"/>
          <note vol="104" key="57" pos="12" pan="0" len="12"/>
          <note vol="102" key="57" pos="24" pan="0" len="12"/>
          <note vol="100" key="57" pos="36" pan="0" len="12"/>
          <note vol="114" key="57" pos="48" pan="0" len="12"/>
          <note vol="112" key="57" pos="60" pan="0" len="12"/>
          <note vol="121" key="57" pos="72" pan="0" len="12"/>
          <note vol="108" key="57" pos="84" pan="0" len="12"/>
          <note vol="131" key="57" pos="96" pan="0" len="12"/>
          <note vol="131" key="57" pos="108" pan="0" len="12"/>
          <note vol="112" key="57" pos="120" pan="0" len="12"/>
          <note vol="138" key="55" pos="132" pan="0" len="12"/>
          <note vol="138" key="55" pos="144" pan="0" len="12"/>
          <note vol="119" key="55" pos="156" pan="0" len="12"/>
          <note vol="102" key="55" pos="168" pan="0" len="12"/>
          <note vol="102" key="55" pos="180" pan="0" len="6"/>
          <note vol="44" key="55" pos="186" pan="0" len="6"/>
          <note vol="117" key="55" pos="192" pan="0" len="12"/>
          <note vol="104" key="57" pos="204" pan="0" len="12"/>
          <note vol="102" key="57" pos="216" pan="0" len="12"/>
          <note vol="100" key="57" pos="228" pan="0" len="12"/>
          <note vol="114" key="57" pos="240" pan="0" len="12"/>
          <note vol="112" key="57" pos="252" pan="0" len="12"/>
          <note vol="121" key="57" pos="264" pan="0" len="12"/>
          <note vol="108" key="57" pos="276" pan="0" len="12"/>
          <note vol="131" key="57" pos="288" pan="0" len="12"/>
          <note vol="131" key="57" pos="300" pan="0" len="12"/>
          <note vol="112" key="57" pos="312" pan="0" len="12"/>
          <note vol="138" key="55" pos="324" pan="0" len="12"/>
          <note vol="138" key="55" pos="336" pan="0" len="12"/>
          <note vol="119" key="55" pos="348" pan="0" len="12"/>
          <note vol="102" key="55" pos="360" pan="0" len="12"/>
          <note vol="102" key="55" pos="372" pan="0" len="6"/>
          <note vol="44" key="55" pos="378" pan="0" len="6"/>
          <note vol="117" key="55" pos="384" pan="0" len="12"/>
          <note vol="104" key="57" pos="396" pan="0" len="12"/>
          <note vol="102" key="57" pos="408" pan="0" len="12"/>
          <note vol="100" key="57" pos="420" pan="0" len="12"/>
          <note vol="114" key="57" pos="432" pan="0" len="12"/>
          <note vol="112" key="57" pos="444" pan="0" len="12"/>
          <note vol="121" key="57" pos="456" pan="0" len="12"/>
          <note vol="108" key="57" pos="468" pan="0" len="12"/>
          <note vol="131" key="57" pos="480" pan="0" len="12"/>
          <note vol="131" key="57" pos="492" pan="0" len="12"/>
          <note vol="112" key="57" pos="504" pan="0" len="12"/>
          <note vol="138" key="55" pos="516" pan="0" len="12"/>
          <note vol="138" key="55" pos="528" pan="0" len="12"/>
          <note vol="119" key="55" pos="540" pan="0" len="12"/>
          <note vol="102" key="55" pos="552" pan="0" len="12"/>
          <note vol="102" key="55" pos="564" pan="0" len="6"/>
          <note vol="44" key="55" pos="570" pan="0" len="6"/>
          <note vol="117" key="55" pos="576" pan="0" len="12"/>
          <note vol="104" key="57" pos="588" pan="0" len="12"/>
          <note vol="102" key="57" pos="600" pan="0" len="12"/>
          <note vol="100" key="57" pos="612" pan="0" len="12"/>
          <note vol="114" key="57" pos="624" pan="0" len="12"/>
          <note vol="112" key="57" pos="636" pan="0" len="12"/>
          <note vol="121" key="57" pos="648" pan="0" len="12"/>
          <note vol="108" key="57" pos="660" pan="0" len="12"/>
          <note vol="131" key="57" pos="672" pan="0" len="12"/>
          <note vol="131" key="57" pos="684" pan="0" len="12"/>
          <note vol="112" key="57" pos="696" pan="0" len="12"/>
          <note vol="138" key="55" pos="708" pan="0" len="12"/>
          <note vol="138" key="55" pos="720" pan="0" len="12"/>
          <note vol="119" key="55" pos="732" pan="0" len="12"/>
          <note vol="102" key="55" pos="744" pan="0" len="12"/>
          <note vol="102" key="55" pos="756" pan="0" len="6"/>
          <note vol="44" key="55" pos="762" pan="0" len="6"/>
        </pattern>
        <pattern muted="0" pos="20736" steps="16" type="1" name="">
          <note vol="117" key="55" pos="0" pan="0" len="12"/>
          <note vol="104" key="57" pos="12" pan="0" len="12"/>
          <note vol="102" key="57" pos="24" pan="0" len="12"/>
          <note vol="100" key="57" pos="36" pan="0" len="12"/>
          <note vol="114" key="57" pos="48" pan="0" len="12"/>
          <note vol="112" key="57" pos="60" pan="0" len="12"/>
          <note vol="121" key="57" pos="72" pan="0" len="12"/>
          <note vol="108" key="57" pos="84" pan="0" len="12"/>
          <note vol="131" key="57" pos="96" pan="0" len="12"/>
          <note vol="131" key="57" pos="108" pan="0" len="12"/>
          <note vol="112" key="57" pos="120" pan="0" len="12"/>
          <note vol="138" key="55" pos="132" pan="0" len="12"/>
          <note vol="138" key="55" pos="144" pan="0" len="12"/>
          <note vol="119" key="55" pos="156" pan="0" len="12"/>
          <note vol="102" key="55" pos="168" pan="0" len="12"/>
          <note vol="102" key="55" pos="180" pan="0" len="6"/>
          <note vol="44" key="55" pos="186" pan="0" len="6"/>
          <note vol="117" key="55" pos="192" pan="0" len="12"/>
          <note vol="104" key="57" pos="204" pan="0" len="12"/>
          <note vol="102" key="57" pos="216" pan="0" len="12"/>
          <note vol="100" key="57" pos="228" pan="0" len="12"/>
          <note vol="114" key="57" pos="240" pan="0" len="12"/>
          <note vol="112" key="57" pos="252" pan="0" len="12"/>
          <note vol="121" key="57" pos="264" pan="0" len="12"/>
          <note vol="108" key="57" pos="276" pan="0" len="12"/>
          <note vol="131" key="57" pos="288" pan="0" len="12"/>
          <note vol="131" key="57" pos="300" pan="0" len="12"/>
          <note vol="112" key="57" pos="312" pan="0" len="12"/>
          <note vol="138" key="55" pos="324" pan="0" len="12"/>
          <note vol="138" key="55" pos="336" pan="0" len="12"/>
          <note vol="119" key="55" pos="348" pan="0" len="12"/>
          <note vol="102" key="55" pos="360" pan="0" len="12"/>
          <note vol="102" key="55" pos="372" pan="0" len="6"/>
          <note vol="44" key="55" pos="378" pan="0" len="6"/>
          <note vol="117" key="55" pos="384" pan="0" len="12"/>
          <note vol="104" key="57" pos="396" pan="0" len="12"/>
          <note vol="102" key="57" pos="408" pan="0" len="12"/>
          <note vol="100" key="57" pos="420" pan="0" len="12"/>
          <note vol="114" key="57" pos="432" pan="0" len="12"/>
          <note vol="112" key="57" pos="444" pan="0" len="12"/>
          <note vol="121" key="57" pos="456" pan="0" len="12"/>
          <note vol="108" key="57" pos="468" pan="0" len="12"/>
          <note vol="131" key="57" pos="480" pan="0" len="12"/>
          <note vol="131" key="57" pos="492" pan="0" len="12"/>
          <note vol="112" key="57" pos="504" pan="0" len="12"/>
          <note vol="138" key="55" pos="516" pan="0" len="12"/>
          <note vol="138" key="55" pos="528" pan="0" len="12"/>
          <note vol="119" key="55" pos="540" pan="0" len="12"/>
          <note vol="102" key="55" pos="552" pan="0" len="12"/>
          <note vol="102" key="55" pos="564" pan="0" len="6"/>
          <note vol="44" key="55" pos="570" pan="0" len="6"/>
          <note vol="117" key="55" pos="576" pan="0" len="12"/>
          <note vol="104" key="57" pos="588" pan="0" len="12"/>
          <note vol="102" key="57" pos="600" pan="0" len="12"/>
          <note vol="100" key="57" pos="612" pan="0" len="12"/>
          <note vol="114" key="57" pos="624" pan="0" len="12"/>
          <note vol="112" key="57" pos="636" pan="0" len="12"/>
          <note vol="121" key="57" pos="648" pan="0" len="12"/>
          <note vol="108" key="57" pos="660" pan="0" len="12"/>
          <note vol="131" key="57" pos="672" pan="0" len="12"/>
          <note vol="131" key="57" pos="684" pan="0" len="12"/>
          <note vol="112" key="57" pos="696" pan="0" len="12"/>
          <note vol="138" key="55" pos="708" pan="0" len="12"/>
          <note vol="138" key="55" pos="720" pan="0" len="12"/>
          <note vol="119" key="55" pos="732" pan="0" len="12"/>
          <note vol="102" key="55" pos="744" pan="0" len="12"/>
          <note vol="102" key="55" pos="756" pan="0" len="6"/>
          <note vol="44" key="55" pos="762" pan="0" len="6"/>
        </pattern>
        <pattern muted="0" pos="21504" steps="16" type="1" name="">
          <note vol="117" key="55" pos="0" pan="0" len="12"/>
          <note vol="104" key="57" pos="12" pan="0" len="12"/>
          <note vol="102" key="57" pos="24" pan="0" len="12"/>
          <note vol="100" key="57" pos="36" pan="0" len="12"/>
          <note vol="114" key="57" pos="48" pan="0" len="12"/>
          <note vol="112" key="57" pos="60" pan="0" len="12"/>
          <note vol="121" key="57" pos="72" pan="0" len="12"/>
          <note vol="108" key="57" pos="84" pan="0" len="12"/>
          <note vol="131" key="57" pos="96" pan="0" len="12"/>
          <note vol="131" key="57" pos="108" pan="0" len="12"/>
          <note vol="112" key="57" pos="120" pan="0" len="12"/>
          <note vol="138" key="55" pos="132" pan="0" len="12"/>
          <note vol="138" key="55" pos="144" pan="0" len="12"/>
          <note vol="119" key="55" pos="156" pan="0" len="12"/>
          <note vol="102" key="55" pos="168" pan="0" len="12"/>
          <note vol="102" key="55" pos="180" pan="0" len="6"/>
          <note vol="44" key="55" pos="186" pan="0" len="6"/>
          <note vol="117" key="55" pos="192" pan="0" len="12"/>
          <note vol="104" key="57" pos="204" pan="0" len="12"/>
          <note vol="102" key="57" pos="216" pan="0" len="12"/>
          <note vol="100" key="57" pos="228" pan="0" len="12"/>
          <note vol="114" key="57" pos="240" pan="0" len="12"/>
          <note vol="112" key="57" pos="252" pan="0" len="12"/>
          <note vol="121" key="57" pos="264" pan="0" len="12"/>
          <note vol="108" key="57" pos="276" pan="0" len="12"/>
          <note vol="131" key="57" pos="288" pan="0" len="12"/>
          <note vol="131" key="57" pos="300" pan="0" len="12"/>
          <note vol="112" key="57" pos="312" pan="0" len="12"/>
          <note vol="138" key="55" pos="324" pan="0" len="12"/>
          <note vol="138" key="55" pos="336" pan="0" len="12"/>
          <note vol="119" key="55" pos="348" pan="0" len="12"/>
          <note vol="102" key="55" pos="360" pan="0" len="12"/>
          <note vol="102" key="55" pos="372" pan="0" len="6"/>
          <note vol="44" key="55" pos="378" pan="0" len="6"/>
          <note vol="117" key="55" pos="384" pan="0" len="12"/>
          <note vol="104" key="57" pos="396" pan="0" len="12"/>
          <note vol="102" key="57" pos="408" pan="0" len="12"/>
          <note vol="100" key="57" pos="420" pan="0" len="12"/>
          <note vol="114" key="57" pos="432" pan="0" len="12"/>
          <note vol="112" key="57" pos="444" pan="0" len="12"/>
          <note vol="121" key="57" pos="456" pan="0" len="12"/>
          <note vol="108" key="57" pos="468" pan="0" len="12"/>
          <note vol="131" key="57" pos="480" pan="0" len="12"/>
          <note vol="131" key="57" pos="492" pan="0" len="12"/>
          <note vol="112" key="57" pos="504" pan="0" len="12"/>
          <note vol="138" key="55" pos="516" pan="0" len="12"/>
          <note vol="138" key="55" pos="528" pan="0" len="12"/>
          <note vol="119" key="55" pos="540" pan="0" len="12"/>
          <note vol="102" key="55" pos="552" pan="0" len="12"/>
          <note vol="102" key="55" pos="564" pan="0" len="6"/>
          <note vol="44" key="55" pos="570" pan="0" len="6"/>
          <note vol="117" key="55" pos="576" pan="0" len="12"/>
          <note vol="104" key="57" pos="588" pan="0" len="12"/>
          <note vol="102" key="57" pos="600" pan="0" len="12"/>
          <note vol="100" key="57" pos="612" pan="0" len="12"/>
          <note vol="114" key="57" pos="624" pan="0" len="12"/>
          <note vol="112" key="57" pos="636" pan="0" len="12"/>
          <note vol="121" key="57" pos="648" pan="0" len="12"/>
          <note vol="108" key="57" pos="660" pan="0" len="12"/>
          <note vol="131" key="57" pos="672" pan="0" len="12"/>
          <note vol="131" key="57" pos="684" pan="0" len="12"/>
          <note vol="112" key="57" pos="696" pan="0" len="12"/>
          <note vol="138" key="55" pos="708" pan="0" len="12"/>
          <note vol="138" key="55" pos="720" pan="0" len="12"/>
          <note vol="119" key="55" pos="732" pan="0" len="12"/>
          <note vol="102" key="55" pos="744" pan="0" len="12"/>
          <note vol="102" key="55" pos="756" pan="0" len="6"/>
          <note vol="44" key="55" pos="762" pan="0" len="6"/>
        </pattern>
        <pattern muted="0" pos="22272" steps="16" type="1" name="">
          <note vol="117" key="55" pos="0" pan="0" len="12"/>
          <note vol="104" key="57" pos="12" pan="0" len="12"/>
          <note vol="102" key="57" pos="24" pan="0" len="12"/>
          <note vol="100" key="57" pos="36" pan="0" len="12"/>
          <note vol="114" key="57" pos="48" pan="0" len="12"/>
          <note vol="112" key="57" pos="60" pan="0" len="12"/>
          <note vol="121" key="57" pos="72" pan="0" len="12"/>
          <note vol="108" key="57" pos="84" pan="0" len="12"/>
          <note vol="131" key="57" pos="96" pan="0" len="12"/>
          <note vol="131" key="57" pos="108" pan="0" len="12"/>
          <note vol="112" key="57" pos="120" pan="0" len="12"/>
          <note vol="138" key="55" pos="132" pan="0" len="12"/>
          <note vol="138" key="55" pos="144" pan="0" len="12"/>
          <note vol="119" key="55" pos="156" pan="0" len="12"/>
          <note vol="102" key="55" pos="168" pan="0" len="12"/>
          <note vol="102" key="55" pos="180" pan="0" len="6"/>
          <note vol="44" key="55" pos="186" pan="0" len="6"/>
          <note vol="117" key="55" pos="192" pan="0" len="12"/>
          <note vol="104" key="57" pos="204" pan="0" len="12"/>
          <note vol="102" key="57" pos="216" pan="0" len="12"/>
          <note vol="100" key="57" pos="228" pan="0" len="12"/>
          <note vol="114" key="57" pos="240" pan="0" len="12"/>
          <note vol="112" key="57" pos="252" pan="0" len="12"/>
          <note vol="121" key="57" pos="264" pan="0" len="12"/>
          <note vol="108" key="57" pos="276" pan="0" len="12"/>
          <note vol="131" key="57" pos="288" pan="0" len="12"/>
          <note vol="131" key="57" pos="300" pan="0" len="12"/>
          <note vol="112" key="57" pos="312" pan="0" len="12"/>
          <note vol="138" key="55" pos="324" pan="0" len="12"/>
          <note vol="138" key="55" pos="336" pan="0" len="12"/>
          <note vol="119" key="55" pos="348" pan="0" len="12"/>
          <note vol="102" key="55" pos="360" pan="0" len="12"/>
          <note vol="102" key="55" pos="372" pan="0" len="6"/>
          <note vol="44" key="55" pos="378" pan="0" len="6"/>
          <note vol="117" key="55" pos="384" pan="0" len="12"/>
          <note vol="104" key="57" pos="396" pan="0" len="12"/>
          <note vol="102" key="57" pos="408" pan="0" len="12"/>
          <note vol="100" key="57" pos="420" pan="0" len="12"/>
          <note vol="114" key="57" pos="432" pan="0" len="12"/>
          <note vol="112" key="57" pos="444" pan="0" len="12"/>
          <note vol="121" key="57" pos="456" pan="0" len="12"/>
          <note vol="108" key="57" pos="468" pan="0" len="12"/>
          <note vol="131" key="57" pos="480" pan="0" len="12"/>
          <note vol="131" key="57" pos="492" pan="0" len="12"/>
          <note vol="112" key="57" pos="504" pan="0" len="12"/>
          <note vol="138" key="55" pos="516" pan="0" len="12"/>
          <note vol="138" key="55" pos="528" pan="0" len="12"/>
          <note vol="119" key="55" pos="540" pan="0" len="12"/>
          <note vol="102" key="55" pos="552" pan="0" len="12"/>
          <note vol="102" key="55" pos="564" pan="0" len="6"/>
          <note vol="44" key="55" pos="570" pan="0" len="6"/>
          <note vol="117" key="55" pos="576" pan="0" len="12"/>
          <note vol="104" key="57" pos="588" pan="0" len="12"/>
          <note vol="102" key="57" pos="600" pan="0" len="12"/>
          <note vol="100" key="57" pos="612" pan="0" len="12"/>
          <note vol="114" key="57" pos="624" pan="0" len="12"/>
          <note vol="112" key="57" pos="636" pan="0" len="12"/>
          <note vol="121" key="57" pos="648" pan="0" len="12"/>
          <note vol="108" key="57" pos="660" pan="0" len="12"/>
          <note vol="131" key="57" pos="672" pan="0" len="12"/>
          <note vol="131" key="57" pos="684" pan="0" len="12"/>
          <note vol="112" key="57" pos="696" pan="0" len="12"/>
          <note vol="138" key="55" pos="708" pan="0" len="12"/>
          <note vol="138" key="55" pos="720" pan="0" len="12"/>
          <note vol="119" key="55" pos="732" pan="0" len="12"/>
          <note vol="102" key="55" pos="744" pan="0" len="12"/>
          <note vol="102" key="55" pos="756" pan="0" len="6"/>
          <note vol="44" key="55" pos="762" pan="0" len="6"/>
        </pattern>
        <pattern muted="0" pos="23040" steps="16" type="1" name="">
          <note vol="117" key="55" pos="0" pan="0" len="12"/>
          <note vol="104" key="57" pos="12" pan="0" len="12"/>
          <note vol="102" key="57" pos="24" pan="0" len="12"/>
          <note vol="100" key="57" pos="36" pan="0" len="12"/>
          <note vol="114" key="57" pos="48" pan="0" len="12"/>
          <note vol="112" key="57" pos="60" pan="0" len="12"/>
          <note vol="121" key="57" pos="72" pan="0" len="12"/>
          <note vol="108" key="57" pos="84" pan="0" len="12"/>
          <note vol="131" key="57" pos="96" pan="0" len="12"/>
          <note vol="131" key="57" pos="108" pan="0" len="12"/>
          <note vol="112" key="57" pos="120" pan="0" len="12"/>
          <note vol="138" key="55" pos="132" pan="0" len="12"/>
          <note vol="138" key="55" pos="144" pan="0" len="12"/>
          <note vol="119" key="55" pos="156" pan="0" len="12"/>
          <note vol="102" key="55" pos="168" pan="0" len="12"/>
          <note vol="102" key="55" pos="180" pan="0" len="6"/>
          <note vol="44" key="55" pos="186" pan="0" len="6"/>
          <note vol="117" key="55" pos="192" pan="0" len="12"/>
          <note vol="104" key="57" pos="204" pan="0" len="12"/>
          <note vol="102" key="57" pos="216" pan="0" len="12"/>
          <note vol="100" key="57" pos="228" pan="0" len="12"/>
          <note vol="114" key="57" pos="240" pan="0" len="12"/>
          <note vol="112" key="57" pos="252" pan="0" len="12"/>
          <note vol="121" key="57" pos="264" pan="0" len="12"/>
          <note vol="108" key="57" pos="276" pan="0" len="12"/>
          <note vol="131" key="57" pos="288" pan="0" len="12"/>
          <note vol="131" key="57" pos="300" pan="0" len="12"/>
          <note vol="112" key="57" pos="312" pan="0" len="12"/>
          <note vol="138" key="55" pos="324" pan="0" len="12"/>
          <note vol="138" key="55" pos="336" pan="0" len="12"/>
          <note vol="119" key="55" pos="348" pan="0" len="12"/>
          <note vol="102" key="55" pos="360" pan="0" len="12"/>
          <note vol="102" key="55" pos="372" pan="0" len="6"/>
          <note vol="44" key="55" pos="378" pan="0" len="6"/>
          <note vol="117" key="55" pos="384" pan="0" len="12"/>
          <note vol="104" key="57" pos="396" pan="0" len="12"/>
          <note vol="102" key="57" pos="408" pan="0" len="12"/>
          <note vol="100" key="57" pos="420" pan="0" len="12"/>
          <note vol="114" key="57" pos="432" pan="0" len="12"/>
          <note vol="112" key="57" pos="444" pan="0" len="12"/>
          <note vol="121" key="57" pos="456" pan="0" len="12"/>
          <note vol="108" key="57" pos="468" pan="0" len="12"/>
          <note vol="131" key="57" pos="480" pan="0" len="12"/>
          <note vol="131" key="57" pos="492" pan="0" len="12"/>
          <note vol="112" key="57" pos="504" pan="0" len="12"/>
          <note vol="138" key="55" pos="516" pan="0" len="12"/>
          <note vol="138" key="55" pos="528" pan="0" len="12"/>
          <note vol="119" key="55" pos="540" pan="0" len="12"/>
          <note vol="102" key="55" pos="552" pan="0" len="12"/>
          <note vol="102" key="55" pos="564" pan="0" len="6"/>
          <note vol="44" key="55" pos="570" pan="0" len="6"/>
          <note vol="117" key="55" pos="576" pan="0" len="12"/>
          <note vol="104" key="57" pos="588" pan="0" len="12"/>
          <note vol="102" key="57" pos="600" pan="0" len="12"/>
          <note vol="100" key="57" pos="612" pan="0" len="12"/>
          <note vol="114" key="57" pos="624" pan="0" len="12"/>
          <note vol="112" key="57" pos="636" pan="0" len="12"/>
          <note vol="121" key="57" pos="648" pan="0" len="12"/>
          <note vol="108" key="57" pos="660" pan="0" len="12"/>
          <note vol="131" key="57" pos="672" pan="0" len="12"/>
          <note vol="131" key="57" pos="684" pan="0" len="12"/>
          <note vol="112" key="57" pos="696" pan="0" len="12"/>
          <note vol="138" key="55" pos="708" pan="0" len="12"/>
          <note vol="138" key="55" pos="720" pan="0" len="12"/>
          <note vol="119" key="55" pos="732" pan="0" len="12"/>
          <note vol="102" key="55" pos="744" pan="0" len="12"/>
          <note vol="102" key="55" pos="756" pan="0" len="6"/>
          <note vol="44" key="55" pos="762" pan="0" len="6"/>
        </pattern>
      </track>
      <track muted="0" type="0" solo="0" name="Voiced Saw">
        <instrumenttrack vol="100" basenote="57" pitch="0" fxch="0" pan="0" usemasterpitch="1" pitchrange="1">
          <instrument name="zynaddsubfx">
            <zynaddsubfx modifiedcontrollers="" filterfreq="64" rescenterfreq="64" portamento="0" filterq="64" bandwidth="64" resbandwidth="64" fmgain="127" forwardmidicc="1">
              <ZynAddSubFX-data version-minor="4" version-major="2" ZynAddSubFX-author="Nasca Octavian Paul" version-revision="1">
                <INFORMATION/>
                <BASE_PARAMETERS>
                  <par value="16" name="max_midi_parts"/>
                  <par value="16" name="max_kit_items_per_instrument"/>
                  <par value="4" name="max_system_effects"/>
                  <par value="8" name="max_insertion_effects"/>
                  <par value="3" name="max_instrument_effects"/>
                  <par value="8" name="max_addsynth_voices"/>
                </BASE_PARAMETERS>
                <MASTER>
                  <par value="80" name="volume"/>
                  <par value="64" name="key_shift"/>
                  <par_bool value="yes" name="nrpn_receive"/>
                  <MICROTONAL>
                    <string name="name">12tET</string>
                    <string name="comment">Equal Temperament 12 notes per octave</string>
                    <par_bool value="no" name="invert_up_down"/>
                    <par value="60" name="invert_up_down_center"/>
                    <par_bool value="no" name="enabled"/>
                    <par value="64" name="global_fine_detune"/>
                    <par value="69" name="a_note"/>
                    <par_real value="440.000000" name="a_freq"/>
                  </MICROTONAL>
                  <PART id="0">
                    <par_bool value="yes" name="enabled"/>
                    <par value="96" name="volume"/>
                    <par value="64" name="panning"/>
                    <par value="0" name="min_key"/>
                    <par value="127" name="max_key"/>
                    <par value="64" name="key_shift"/>
                    <par value="0" name="rcv_chn"/>
                    <par value="64" name="velocity_sensing"/>
                    <par value="64" name="velocity_offset"/>
                    <par_bool value="yes" name="note_on"/>
                    <par_bool value="yes" name="poly_mode"/>
                    <par value="0" name="legato_mode"/>
                    <par value="15" name="key_limit"/>
                    <INSTRUMENT>
                      <INFO>
                        <string name="name">Voiced Saw</string>
                        <string name="author">Will Godfrey
GPL V 2 or later</string>
                        <string name="comments"/>
                        <par value="11" name="type"/>
                      </INFO>
                      <INSTRUMENT_KIT>
                        <par value="0" name="kit_mode"/>
                        <par_bool value="no" name="drum_mode"/>
                        <INSTRUMENT_KIT_ITEM id="0">
                          <par_bool value="yes" name="enabled"/>
                          <string name="name"/>
                          <par_bool value="no" name="muted"/>
                          <par value="0" name="min_key"/>
                          <par value="127" name="max_key"/>
                          <par value="0" name="send_to_instrument_effect"/>
                          <par_bool value="yes" name="add_enabled"/>
                          <ADD_SYNTH_PARAMETERS>
                            <par_bool value="yes" name="stereo"/>
                            <AMPLITUDE_PARAMETERS>
                              <par value="83" name="volume"/>
                              <par value="64" name="panning"/>
                              <par value="70" name="velocity_sensing"/>
                              <par value="0" name="punch_strength"/>
                              <par value="60" name="punch_time"/>
                              <par value="64" name="punch_stretch"/>
                              <par value="72" name="punch_velocity_sensing"/>
                              <par value="0" name="harmonic_randomness_grouping"/>
                              <AMPLITUDE_ENVELOPE>
                                <par_bool value="no" name="free_mode"/>
                                <par value="4" name="env_points"/>
                                <par value="2" name="env_sustain"/>
                                <par value="64" name="env_stretch"/>
                                <par_bool value="yes" name="forced_release"/>
                                <par_bool value="no" name="linear_envelope"/>
                                <par value="0" name="A_dt"/>
                                <par value="40" name="D_dt"/>
                                <par value="25" name="R_dt"/>
                                <par value="64" name="A_val"/>
                                <par value="64" name="D_val"/>
                                <par value="127" name="S_val"/>
                                <par value="64" name="R_val"/>
                              </AMPLITUDE_ENVELOPE>
                              <AMPLITUDE_LFO>
                                <par_real value="0.629921" name="freq"/>
                                <par value="0" name="intensity"/>
                                <par value="64" name="start_phase"/>
                                <par value="0" name="lfo_type"/>
                                <par value="0" name="randomness_amplitude"/>
                                <par value="0" name="randomness_frequency"/>
                                <par value="0" name="delay"/>
                                <par value="64" name="stretch"/>
                                <par_bool value="no" name="continous"/>
                              </AMPLITUDE_LFO>
                            </AMPLITUDE_PARAMETERS>
                            <FREQUENCY_PARAMETERS>
                              <par value="8192" name="detune"/>
                              <par value="0" name="coarse_detune"/>
                              <par value="1" name="detune_type"/>
                              <par value="64" name="bandwidth"/>
                              <FREQUENCY_ENVELOPE>
                                <par_bool value="no" name="free_mode"/>
                                <par value="3" name="env_points"/>
                                <par value="1" name="env_sustain"/>
                                <par value="0" name="env_stretch"/>
                                <par_bool value="no" name="forced_release"/>
                                <par_bool value="no" name="linear_envelope"/>
                                <par value="50" name="A_dt"/>
                                <par value="10" name="D_dt"/>
                                <par value="60" name="R_dt"/>
                                <par value="64" name="A_val"/>
                                <par value="64" name="D_val"/>
                                <par value="64" name="S_val"/>
                                <par value="64" name="R_val"/>
                              </FREQUENCY_ENVELOPE>
                              <FREQUENCY_LFO>
                                <par_real value="0.551181" name="freq"/>
                                <par value="37" name="intensity"/>
                                <par value="64" name="start_phase"/>
                                <par value="0" name="lfo_type"/>
                                <par value="0" name="randomness_amplitude"/>
                                <par value="0" name="randomness_frequency"/>
                                <par value="31" name="delay"/>
                                <par value="64" name="stretch"/>
                                <par_bool value="no" name="continous"/>
                              </FREQUENCY_LFO>
                            </FREQUENCY_PARAMETERS>
                            <FILTER_PARAMETERS>
                              <par value="64" name="velocity_sensing_amplitude"/>
                              <par value="64" name="velocity_sensing"/>
                              <FILTER>
                                <par value="0" name="category"/>
                                <par value="0" name="type"/>
                                <par value="94" name="freq"/>
                                <par value="0" name="q"/>
                                <par value="0" name="stages"/>
                                <par value="64" name="freq_track"/>
                                <par value="64" name="gain"/>
                              </FILTER>
                              <FILTER_ENVELOPE>
                                <par_bool value="no" name="free_mode"/>
                                <par value="4" name="env_points"/>
                                <par value="2" name="env_sustain"/>
                                <par value="0" name="env_stretch"/>
                                <par_bool value="no" name="forced_release"/>
                                <par_bool value="no" name="linear_envelope"/>
                                <par value="40" name="A_dt"/>
                                <par value="70" name="D_dt"/>
                                <par value="60" name="R_dt"/>
                                <par value="64" name="A_val"/>
                                <par value="64" name="D_val"/>
                                <par value="64" name="S_val"/>
                                <par value="64" name="R_val"/>
                              </FILTER_ENVELOPE>
                              <FILTER_LFO>
                                <par_real value="0.629921" name="freq"/>
                                <par value="0" name="intensity"/>
                                <par value="64" name="start_phase"/>
                                <par value="0" name="lfo_type"/>
                                <par value="0" name="randomness_amplitude"/>
                                <par value="0" name="randomness_frequency"/>
                                <par value="0" name="delay"/>
                                <par value="64" name="stretch"/>
                                <par_bool value="no" name="continous"/>
                              </FILTER_LFO>
                            </FILTER_PARAMETERS>
                            <RESONANCE>
                              <par_bool value="no" name="enabled"/>
                            </RESONANCE>
                            <VOICE id="0">
                              <par_bool value="yes" name="enabled"/>
                              <par value="0" name="type"/>
                              <par value="1" name="unison_size"/>
                              <par value="60" name="unison_frequency_spread"/>
                              <par value="64" name="unison_stereo_spread"/>
                              <par value="64" name="unison_vibratto"/>
                              <par value="64" name="unison_vibratto_speed"/>
                              <par value="0" name="unison_invert_phase"/>
                              <par value="127" name="unison_phase_randomness"/>
                              <par value="0" name="delay"/>
                              <par_bool value="yes" name="resonance"/>
                              <par value="-1" name="ext_oscil"/>
                              <par value="-1" name="ext_fm_oscil"/>
                              <par value="64" name="oscil_phase"/>
                              <par value="64" name="oscil_fm_phase"/>
                              <par_bool value="yes" name="filter_enabled"/>
                              <par_bool value="no" name="filter_bypass"/>
                              <par value="0" name="fm_enabled"/>
                              <OSCIL>
                                <par value="0" name="harmonic_mag_type"/>
                                <par value="10" name="base_function"/>
                                <par value="64" name="base_function_par"/>
                                <par value="0" name="base_function_modulation"/>
                                <par value="64" name="base_function_modulation_par1"/>
                                <par value="64" name="base_function_modulation_par2"/>
                                <par value="32" name="base_function_modulation_par3"/>
                                <par value="0" name="modulation"/>
                                <par value="64" name="modulation_par1"/>
                                <par value="64" name="modulation_par2"/>
                                <par value="32" name="modulation_par3"/>
                                <par value="64" name="wave_shaping"/>
                                <par value="0" name="wave_shaping_function"/>
                                <par value="0" name="filter_type"/>
                                <par value="64" name="filter_par1"/>
                                <par value="64" name="filter_par2"/>
                                <par value="0" name="filter_before_wave_shaping"/>
                                <par value="0" name="spectrum_adjust_type"/>
                                <par value="64" name="spectrum_adjust_par"/>
                                <par value="64" name="rand"/>
                                <par value="0" name="amp_rand_type"/>
                                <par value="64" name="amp_rand_power"/>
                                <par value="0" name="harmonic_shift"/>
                                <par_bool value="no" name="harmonic_shift_first"/>
                                <par value="0" name="adaptive_harmonics"/>
                                <par value="128" name="adaptive_harmonics_base_frequency"/>
                                <par value="100" name="adaptive_harmonics_power"/>
                                <HARMONICS>
                                  <HARMONIC id="1">
                                    <par value="127" name="mag"/>
                                    <par value="64" name="phase"/>
                                  </HARMONIC>
                                </HARMONICS>
                              </OSCIL>
                              <AMPLITUDE_PARAMETERS>
                                <par value="0" name="panning"/>
                                <par value="114" name="volume"/>
                                <par_bool value="no" name="volume_minus"/>
                                <par value="127" name="velocity_sensing"/>
                                <par_bool value="yes" name="amp_envelope_enabled"/>
                                <AMPLITUDE_ENVELOPE>
                                  <par_bool value="no" name="free_mode"/>
                                  <par value="4" name="env_points"/>
                                  <par value="2" name="env_sustain"/>
                                  <par value="64" name="env_stretch"/>
                                  <par_bool value="yes" name="forced_release"/>
                                  <par_bool value="no" name="linear_envelope"/>
                                  <par value="64" name="A_dt"/>
                                  <par value="100" name="D_dt"/>
                                  <par value="100" name="R_dt"/>
                                  <par value="64" name="A_val"/>
                                  <par value="64" name="D_val"/>
                                  <par value="127" name="S_val"/>
                                  <par value="64" name="R_val"/>
                                </AMPLITUDE_ENVELOPE>
                                <par_bool value="no" name="amp_lfo_enabled"/>
                              </AMPLITUDE_PARAMETERS>
                              <FREQUENCY_PARAMETERS>
                                <par_bool value="no" name="fixed_freq"/>
                                <par value="0" name="fixed_freq_et"/>
                                <par value="8192" name="detune"/>
                                <par value="0" name="coarse_detune"/>
                                <par value="0" name="detune_type"/>
                                <par_bool value="no" name="freq_envelope_enabled"/>
                                <par_bool value="no" name="freq_lfo_enabled"/>
                              </FREQUENCY_PARAMETERS>
                              <FILTER_PARAMETERS>
                                <FILTER>
                                  <par value="0" name="category"/>
                                  <par value="0" name="type"/>
                                  <par value="50" name="freq"/>
                                  <par value="60" name="q"/>
                                  <par value="0" name="stages"/>
                                  <par value="64" name="freq_track"/>
                                  <par value="64" name="gain"/>
                                </FILTER>
                                <par_bool value="yes" name="filter_envelope_enabled"/>
                                <FILTER_ENVELOPE>
                                  <par_bool value="yes" name="free_mode"/>
                                  <par value="4" name="env_points"/>
                                  <par value="2" name="env_sustain"/>
                                  <par value="0" name="env_stretch"/>
                                  <par_bool value="no" name="forced_release"/>
                                  <par_bool value="no" name="linear_envelope"/>
                                  <par value="70" name="A_dt"/>
                                  <par value="70" name="D_dt"/>
                                  <par value="10" name="R_dt"/>
                                  <par value="90" name="A_val"/>
                                  <par value="40" name="D_val"/>
                                  <par value="64" name="S_val"/>
                                  <par value="40" name="R_val"/>
                                  <POINT id="0">
                                    <par value="35" name="val"/>
                                  </POINT>
                                  <POINT id="1">
                                    <par value="54" name="dt"/>
                                    <par value="107" name="val"/>
                                  </POINT>
                                  <POINT id="2">
                                    <par value="39" name="dt"/>
                                    <par value="66" name="val"/>
                                  </POINT>
                                  <POINT id="3">
                                    <par value="26" name="dt"/>
                                    <par value="65" name="val"/>
                                  </POINT>
                                </FILTER_ENVELOPE>
                                <par_bool value="no" name="filter_lfo_enabled"/>
                              </FILTER_PARAMETERS>
                            </VOICE>
                            <VOICE id="1">
                              <par_bool value="no" name="enabled"/>
                            </VOICE>
                            <VOICE id="2">
                              <par_bool value="no" name="enabled"/>
                            </VOICE>
                            <VOICE id="3">
                              <par_bool value="no" name="enabled"/>
                            </VOICE>
                            <VOICE id="4">
                              <par_bool value="no" name="enabled"/>
                            </VOICE>
                            <VOICE id="5">
                              <par_bool value="no" name="enabled"/>
                            </VOICE>
                            <VOICE id="6">
                              <par_bool value="no" name="enabled"/>
                            </VOICE>
                            <VOICE id="7">
                              <par_bool value="no" name="enabled"/>
                            </VOICE>
                          </ADD_SYNTH_PARAMETERS>
                          <par_bool value="yes" name="sub_enabled"/>
                          <SUB_SYNTH_PARAMETERS>
                            <par value="2" name="num_stages"/>
                            <par value="0" name="harmonic_mag_type"/>
                            <par value="1" name="start"/>
                            <HARMONICS>
                              <HARMONIC id="0">
                                <par value="127" name="mag"/>
                                <par value="64" name="relbw"/>
                              </HARMONIC>
                              <HARMONIC id="1">
                                <par value="37" name="mag"/>
                                <par value="64" name="relbw"/>
                              </HARMONIC>
                              <HARMONIC id="2">
                                <par value="27" name="mag"/>
                                <par value="64" name="relbw"/>
                              </HARMONIC>
                              <HARMONIC id="3">
                                <par value="48" name="mag"/>
                                <par value="64" name="relbw"/>
                              </HARMONIC>
                              <HARMONIC id="4">
                                <par value="73" name="mag"/>
                                <par value="64" name="relbw"/>
                              </HARMONIC>
                              <HARMONIC id="5">
                                <par value="59" name="mag"/>
                                <par value="64" name="relbw"/>
                              </HARMONIC>
                              <HARMONIC id="6">
                                <par value="47" name="mag"/>
                                <par value="64" name="relbw"/>
                              </HARMONIC>
                              <HARMONIC id="7">
                                <par value="22" name="mag"/>
                                <par value="64" name="relbw"/>
                              </HARMONIC>
                            </HARMONICS>
                            <AMPLITUDE_PARAMETERS>
                              <par_bool value="yes" name="stereo"/>
                              <par value="127" name="volume"/>
                              <par value="64" name="panning"/>
                              <par value="70" name="velocity_sensing"/>
                              <AMPLITUDE_ENVELOPE>
                                <par_bool value="no" name="free_mode"/>
                                <par value="4" name="env_points"/>
                                <par value="2" name="env_sustain"/>
                                <par value="64" name="env_stretch"/>
                                <par_bool value="yes" name="forced_release"/>
                                <par_bool value="no" name="linear_envelope"/>
                                <par value="24" name="A_dt"/>
                                <par value="40" name="D_dt"/>
                                <par value="25" name="R_dt"/>
                                <par value="64" name="A_val"/>
                                <par value="64" name="D_val"/>
                                <par value="127" name="S_val"/>
                                <par value="64" name="R_val"/>
                              </AMPLITUDE_ENVELOPE>
                            </AMPLITUDE_PARAMETERS>
                            <FREQUENCY_PARAMETERS>
                              <par_bool value="no" name="fixed_freq"/>
                              <par value="0" name="fixed_freq_et"/>
                              <par value="8192" name="detune"/>
                              <par value="0" name="coarse_detune"/>
                              <par value="0" name="overtone_spread_type"/>
                              <par value="0" name="overtone_spread_par1"/>
                              <par value="0" name="overtone_spread_par2"/>
                              <par value="0" name="overtone_spread_par3"/>
                              <par value="1" name="detune_type"/>
                              <par value="40" name="bandwidth"/>
                              <par value="64" name="bandwidth_scale"/>
                              <par_bool value="no" name="freq_envelope_enabled"/>
                              <par_bool value="no" name="band_width_envelope_enabled"/>
                            </FREQUENCY_PARAMETERS>
                            <FILTER_PARAMETERS>
                              <par_bool value="yes" name="enabled"/>
                              <FILTER>
                                <par value="0" name="category"/>
                                <par value="0" name="type"/>
                                <par value="60" name="freq"/>
                                <par value="40" name="q"/>
                                <par value="0" name="stages"/>
                                <par value="64" name="freq_track"/>
                                <par value="64" name="gain"/>
                              </FILTER>
                              <par value="64" name="filter_velocity_sensing"/>
                              <par value="64" name="filter_velocity_sensing_amplitude"/>
                              <FILTER_ENVELOPE>
                                <par_bool value="yes" name="free_mode"/>
                                <par value="4" name="env_points"/>
                                <par value="2" name="env_sustain"/>
                                <par value="0" name="env_stretch"/>
                                <par_bool value="yes" name="forced_release"/>
                                <par_bool value="no" name="linear_envelope"/>
                                <par value="59" name="A_dt"/>
                                <par value="70" name="D_dt"/>
                                <par value="60" name="R_dt"/>
                                <par value="32" name="A_val"/>
                                <par value="64" name="D_val"/>
                                <par value="64" name="S_val"/>
                                <par value="64" name="R_val"/>
                                <POINT id="0">
                                  <par value="127" name="val"/>
                                </POINT>
                                <POINT id="1">
                                  <par value="52" name="dt"/>
                                  <par value="60" name="val"/>
                                </POINT>
                                <POINT id="2">
                                  <par value="70" name="dt"/>
                                  <par value="20" name="val"/>
                                </POINT>
                                <POINT id="3">
                                  <par value="60" name="dt"/>
                                  <par value="26" name="val"/>
                                </POINT>
                              </FILTER_ENVELOPE>
                            </FILTER_PARAMETERS>
                          </SUB_SYNTH_PARAMETERS>
                          <par_bool value="no" name="pad_enabled"/>
                        </INSTRUMENT_KIT_ITEM>
                        <INSTRUMENT_KIT_ITEM id="1">
                          <par_bool value="no" name="enabled"/>
                        </INSTRUMENT_KIT_ITEM>
                        <INSTRUMENT_KIT_ITEM id="2">
                          <par_bool value="no" name="enabled"/>
                        </INSTRUMENT_KIT_ITEM>
                        <INSTRUMENT_KIT_ITEM id="3">
                          <par_bool value="no" name="enabled"/>
                        </INSTRUMENT_KIT_ITEM>
                        <INSTRUMENT_KIT_ITEM id="4">
                          <par_bool value="no" name="enabled"/>
                        </INSTRUMENT_KIT_ITEM>
                        <INSTRUMENT_KIT_ITEM id="5">
                          <par_bool value="no" name="enabled"/>
                        </INSTRUMENT_KIT_ITEM>
                        <INSTRUMENT_KIT_ITEM id="6">
                          <par_bool value="no" name="enabled"/>
                        </INSTRUMENT_KIT_ITEM>
                        <INSTRUMENT_KIT_ITEM id="7">
                          <par_bool value="no" name="enabled"/>
                        </INSTRUMENT_KIT_ITEM>
                        <INSTRUMENT_KIT_ITEM id="8">
                          <par_bool value="no" name="enabled"/>
                        </INSTRUMENT_KIT_ITEM>
                        <INSTRUMENT_KIT_ITEM id="9">
                          <par_bool value="no" name="enabled"/>
                        </INSTRUMENT_KIT_ITEM>
                        <INSTRUMENT_KIT_ITEM id="10">
                          <par_bool value="no" name="enabled"/>
                        </INSTRUMENT_KIT_ITEM>
                        <INSTRUMENT_KIT_ITEM id="11">
                          <par_bool value="no" name="enabled"/>
                        </INSTRUMENT_KIT_ITEM>
                        <INSTRUMENT_KIT_ITEM id="12">
                          <par_bool value="no" name="enabled"/>
                        </INSTRUMENT_KIT_ITEM>
                        <INSTRUMENT_KIT_ITEM id="13">
                          <par_bool value="no" name="enabled"/>
                        </INSTRUMENT_KIT_ITEM>
                        <INSTRUMENT_KIT_ITEM id="14">
                          <par_bool value="no" name="enabled"/>
                        </INSTRUMENT_KIT_ITEM>
                        <INSTRUMENT_KIT_ITEM id="15">
                          <par_bool value="no" name="enabled"/>
                        </INSTRUMENT_KIT_ITEM>
                      </INSTRUMENT_KIT>
                      <INSTRUMENT_EFFECTS>
                        <INSTRUMENT_EFFECT id="0">
                          <EFFECT>
                            <par value="3" name="type"/>
                            <par value="2" name="preset"/>
                            <EFFECT_PARAMETERS>
                              <par_no id="0">
                                <par value="64" name="par"/>
                              </par_no>
                              <par_no id="1">
                                <par value="64" name="par"/>
                              </par_no>
                              <par_no id="2">
                                <par value="29" name="par"/>
                              </par_no>
                              <par_no id="4">
                                <par value="1" name="par"/>
                              </par_no>
                              <par_no id="5">
                                <par value="42" name="par"/>
                              </par_no>
                              <par_no id="6">
                                <par value="97" name="par"/>
                              </par_no>
                              <par_no id="7">
                                <par value="95" name="par"/>
                              </par_no>
                              <par_no id="8">
                                <par value="90" name="par"/>
                              </par_no>
                              <par_no id="9">
                                <par value="127" name="par"/>
                              </par_no>
                            </EFFECT_PARAMETERS>
                          </EFFECT>
                          <par value="0" name="route"/>
                          <par_bool value="no" name="bypass"/>
                        </INSTRUMENT_EFFECT>
                        <INSTRUMENT_EFFECT id="1">
                          <EFFECT>
                            <par value="1" name="type"/>
                            <par value="2" name="preset"/>
                            <EFFECT_PARAMETERS>
                              <par_no id="0">
                                <par value="40" name="par"/>
                              </par_no>
                              <par_no id="1">
                                <par value="64" name="par"/>
                              </par_no>
                              <par_no id="2">
                                <par value="49" name="par"/>
                              </par_no>
                              <par_no id="3">
                                <par value="24" name="par"/>
                              </par_no>
                              <par_no id="7">
                                <par value="127" name="par"/>
                              </par_no>
                              <par_no id="8">
                                <par value="75" name="par"/>
                              </par_no>
                              <par_no id="9">
                                <par value="78" name="par"/>
                              </par_no>
                              <par_no id="10">
                                <par value="1" name="par"/>
                              </par_no>
                              <par_no id="11">
                                <par value="85" name="par"/>
                              </par_no>
                            </EFFECT_PARAMETERS>
                          </EFFECT>
                          <par value="0" name="route"/>
                          <par_bool value="no" name="bypass"/>
                        </INSTRUMENT_EFFECT>
                        <INSTRUMENT_EFFECT id="2">
                          <EFFECT>
                            <par value="0" name="type"/>
                          </EFFECT>
                          <par value="0" name="route"/>
                          <par_bool value="no" name="bypass"/>
                        </INSTRUMENT_EFFECT>
                      </INSTRUMENT_EFFECTS>
                    </INSTRUMENT>
                    <CONTROLLER>
                      <par value="100" name="pitchwheel_bendrange"/>
                      <par_bool value="yes" name="expression_receive"/>
                      <par value="64" name="panning_depth"/>
                      <par value="64" name="filter_cutoff_depth"/>
                      <par value="64" name="filter_q_depth"/>
                      <par value="64" name="bandwidth_depth"/>
                      <par value="80" name="mod_wheel_depth"/>
                      <par_bool value="no" name="mod_wheel_exponential"/>
                      <par_bool value="yes" name="fm_amp_receive"/>
                      <par_bool value="yes" name="volume_receive"/>
                      <par_bool value="yes" name="sustain_receive"/>
                      <par_bool value="yes" name="portamento_receive"/>
                      <par value="64" name="portamento_time"/>
                      <par value="3" name="portamento_pitchthresh"/>
                      <par value="1" name="portamento_pitchthreshtype"/>
                      <par value="0" name="portamento_portamento"/>
                      <par value="64" name="portamento_updowntimestretch"/>
                      <par value="0" name="portamento_proportional"/>
                      <par value="80" name="portamento_proprate"/>
                      <par value="90" name="portamento_propdepth"/>
                      <par value="64" name="resonance_center_depth"/>
                      <par value="64" name="resonance_bandwidth_depth"/>
                    </CONTROLLER>
                  </PART>
                  <PART id="1">
                    <par_bool value="no" name="enabled"/>
                  </PART>
                  <PART id="2">
                    <par_bool value="no" name="enabled"/>
                  </PART>
                  <PART id="3">
                    <par_bool value="no" name="enabled"/>
                  </PART>
                  <PART id="4">
                    <par_bool value="no" name="enabled"/>
                  </PART>
                  <PART id="5">
                    <par_bool value="no" name="enabled"/>
                  </PART>
                  <PART id="6">
                    <par_bool value="no" name="enabled"/>
                  </PART>
                  <PART id="7">
                    <par_bool value="no" name="enabled"/>
                  </PART>
                  <PART id="8">
                    <par_bool value="no" name="enabled"/>
                  </PART>
                  <PART id="9">
                    <par_bool value="no" name="enabled"/>
                  </PART>
                  <PART id="10">
                    <par_bool value="no" name="enabled"/>
                  </PART>
                  <PART id="11">
                    <par_bool value="no" name="enabled"/>
                  </PART>
                  <PART id="12">
                    <par_bool value="no" name="enabled"/>
                  </PART>
                  <PART id="13">
                    <par_bool value="no" name="enabled"/>
                  </PART>
                  <PART id="14">
                    <par_bool value="no" name="enabled"/>
                  </PART>
                  <PART id="15">
                    <par_bool value="no" name="enabled"/>
                  </PART>
                  <SYSTEM_EFFECTS>
                    <SYSTEM_EFFECT id="0">
                      <EFFECT>
                        <par value="0" name="type"/>
                      </EFFECT>
                      <VOLUME id="0">
                        <par value="0" name="vol"/>
                      </VOLUME>
                      <VOLUME id="1">
                        <par value="0" name="vol"/>
                      </VOLUME>
                      <VOLUME id="2">
                        <par value="0" name="vol"/>
                      </VOLUME>
                      <VOLUME id="3">
                        <par value="0" name="vol"/>
                      </VOLUME>
                      <VOLUME id="4">
                        <par value="0" name="vol"/>
                      </VOLUME>
                      <VOLUME id="5">
                        <par value="0" name="vol"/>
                      </VOLUME>
                      <VOLUME id="6">
                        <par value="0" name="vol"/>
                      </VOLUME>
                      <VOLUME id="7">
                        <par value="0" name="vol"/>
                      </VOLUME>
                      <VOLUME id="8">
                        <par value="0" name="vol"/>
                      </VOLUME>
                      <VOLUME id="9">
                        <par value="0" name="vol"/>
                      </VOLUME>
                      <VOLUME id="10">
                        <par value="0" name="vol"/>
                      </VOLUME>
                      <VOLUME id="11">
                        <par value="0" name="vol"/>
                      </VOLUME>
                      <VOLUME id="12">
                        <par value="0" name="vol"/>
                      </VOLUME>
                      <VOLUME id="13">
                        <par value="0" name="vol"/>
                      </VOLUME>
                      <VOLUME id="14">
                        <par value="0" name="vol"/>
                      </VOLUME>
                      <VOLUME id="15">
                        <par value="0" name="vol"/>
                      </VOLUME>
                      <SENDTO id="1">
                        <par value="0" name="send_vol"/>
                      </SENDTO>
                      <SENDTO id="2">
                        <par value="0" name="send_vol"/>
                      </SENDTO>
                      <SENDTO id="3">
                        <par value="0" name="send_vol"/>
                      </SENDTO>
                    </SYSTEM_EFFECT>
                    <SYSTEM_EFFECT id="1">
                      <EFFECT>
                        <par value="0" name="type"/>
                      </EFFECT>
                      <VOLUME id="0">
                        <par value="0" name="vol"/>
                      </VOLUME>
                      <VOLUME id="1">
                        <par value="0" name="vol"/>
                      </VOLUME>
                      <VOLUME id="2">
                        <par value="0" name="vol"/>
                      </VOLUME>
                      <VOLUME id="3">
                        <par value="0" name="vol"/>
                      </VOLUME>
                      <VOLUME id="4">
                        <par value="0" name="vol"/>
                      </VOLUME>
                      <VOLUME id="5">
                        <par value="0" name="vol"/>
                      </VOLUME>
                      <VOLUME id="6">
                        <par value="0" name="vol"/>
                      </VOLUME>
                      <VOLUME id="7">
                        <par value="0" name="vol"/>
                      </VOLUME>
                      <VOLUME id="8">
                        <par value="0" name="vol"/>
                      </VOLUME>
                      <VOLUME id="9">
                        <par value="0" name="vol"/>
                      </VOLUME>
                      <VOLUME id="10">
                        <par value="0" name="vol"/>
                      </VOLUME>
                      <VOLUME id="11">
                        <par value="0" name="vol"/>
                      </VOLUME>
                      <VOLUME id="12">
                        <par value="0" name="vol"/>
                      </VOLUME>
                      <VOLUME id="13">
                        <par value="0" name="vol"/>
                      </VOLUME>
                      <VOLUME id="14">
                        <par value="0" name="vol"/>
                      </VOLUME>
                      <VOLUME id="15">
                        <par value="0" name="vol"/>
                      </VOLUME>
                      <SENDTO id="2">
                        <par value="0" name="send_vol"/>
                      </SENDTO>
                      <SENDTO id="3">
                        <par value="0" name="send_vol"/>
                      </SENDTO>
                    </SYSTEM_EFFECT>
                    <SYSTEM_EFFECT id="2">
                      <EFFECT>
                        <par value="0" name="type"/>
                      </EFFECT>
                      <VOLUME id="0">
                        <par value="0" name="vol"/>
                      </VOLUME>
                      <VOLUME id="1">
                        <par value="0" name="vol"/>
                      </VOLUME>
                      <VOLUME id="2">
                        <par value="0" name="vol"/>
                      </VOLUME>
                      <VOLUME id="3">
                        <par value="0" name="vol"/>
                      </VOLUME>
                      <VOLUME id="4">
                        <par value="0" name="vol"/>
                      </VOLUME>
                      <VOLUME id="5">
                        <par value="0" name="vol"/>
                      </VOLUME>
                      <VOLUME id="6">
                        <par value="0" name="vol"/>
                      </VOLUME>
                      <VOLUME id="7">
                        <par value="0" name="vol"/>
                      </VOLUME>
                      <VOLUME id="8">
                        <par value="0" name="vol"/>
                      </VOLUME>
                      <VOLUME id="9">
                        <par value="0" name="vol"/>
                      </VOLUME>
                      <VOLUME id="10">
                        <par value="0" name="vol"/>
                      </VOLUME>
                      <VOLUME id="11">
                        <par value="0" name="vol"/>
                      </VOLUME>
                      <VOLUME id="12">
                        <par value="0" name="vol"/>
                      </VOLUME>
                      <VOLUME id="13">
                        <par value="0" name="vol"/>
                      </VOLUME>
                      <VOLUME id="14">
                        <par value="0" name="vol"/>
                      </VOLUME>
                      <VOLUME id="15">
                        <par value="0" name="vol"/>
                      </VOLUME>
                      <SENDTO id="3">
                        <par value="0" name="send_vol"/>
                      </SENDTO>
                    </SYSTEM_EFFECT>
                    <SYSTEM_EFFECT id="3">
                      <EFFECT>
                        <par value="0" name="type"/>
                      </EFFECT>
                      <VOLUME id="0">
                        <par value="0" name="vol"/>
                      </VOLUME>
                      <VOLUME id="1">
                        <par value="0" name="vol"/>
                      </VOLUME>
                      <VOLUME id="2">
                        <par value="0" name="vol"/>
                      </VOLUME>
                      <VOLUME id="3">
                        <par value="0" name="vol"/>
                      </VOLUME>
                      <VOLUME id="4">
                        <par value="0" name="vol"/>
                      </VOLUME>
                      <VOLUME id="5">
                        <par value="0" name="vol"/>
                      </VOLUME>
                      <VOLUME id="6">
                        <par value="0" name="vol"/>
                      </VOLUME>
                      <VOLUME id="7">
                        <par value="0" name="vol"/>
                      </VOLUME>
                      <VOLUME id="8">
                        <par value="0" name="vol"/>
                      </VOLUME>
                      <VOLUME id="9">
                        <par value="0" name="vol"/>
                      </VOLUME>
                      <VOLUME id="10">
                        <par value="0" name="vol"/>
                      </VOLUME>
                      <VOLUME id="11">
                        <par value="0" name="vol"/>
                      </VOLUME>
                      <VOLUME id="12">
                        <par value="0" name="vol"/>
                      </VOLUME>
                      <VOLUME id="13">
                        <par value="0" name="vol"/>
                      </VOLUME>
                      <VOLUME id="14">
                        <par value="0" name="vol"/>
                      </VOLUME>
                      <VOLUME id="15">
                        <par value="0" name="vol"/>
                      </VOLUME>
                    </SYSTEM_EFFECT>
                  </SYSTEM_EFFECTS>
                  <INSERTION_EFFECTS>
                    <INSERTION_EFFECT id="0">
                      <par value="-1" name="part"/>
                      <EFFECT>
                        <par value="0" name="type"/>
                      </EFFECT>
                    </INSERTION_EFFECT>
                    <INSERTION_EFFECT id="1">
                      <par value="-1" name="part"/>
                      <EFFECT>
                        <par value="0" name="type"/>
                      </EFFECT>
                    </INSERTION_EFFECT>
                    <INSERTION_EFFECT id="2">
                      <par value="-1" name="part"/>
                      <EFFECT>
                        <par value="0" name="type"/>
                      </EFFECT>
                    </INSERTION_EFFECT>
                    <INSERTION_EFFECT id="3">
                      <par value="-1" name="part"/>
                      <EFFECT>
                        <par value="0" name="type"/>
                      </EFFECT>
                    </INSERTION_EFFECT>
                    <INSERTION_EFFECT id="4">
                      <par value="-1" name="part"/>
                      <EFFECT>
                        <par value="0" name="type"/>
                      </EFFECT>
                    </INSERTION_EFFECT>
                    <INSERTION_EFFECT id="5">
                      <par value="-1" name="part"/>
                      <EFFECT>
                        <par value="0" name="type"/>
                      </EFFECT>
                    </INSERTION_EFFECT>
                    <INSERTION_EFFECT id="6">
                      <par value="-1" name="part"/>
                      <EFFECT>
                        <par value="0" name="type"/>
                      </EFFECT>
                    </INSERTION_EFFECT>
                    <INSERTION_EFFECT id="7">
                      <par value="-1" name="part"/>
                      <EFFECT>
                        <par value="0" name="type"/>
                      </EFFECT>
                    </INSERTION_EFFECT>
                  </INSERTION_EFFECTS>
                </MASTER>
              </ZynAddSubFX-data>
            </zynaddsubfx>
          </instrument>
          <eldata fcut="14000" ftype="0" fres="0.5" fwet="0">
            <elvol lspd_denominator="4" lshp="0" lamt="0" lpdel="0" rel="0.1" hold="0.5" lspd_syncmode="0" ctlenvamt="0" lspd="0.1" amt="0" x100="0" lspd_numerator="4" att="0" dec="0.5" userwavefile="" latt="0" pdel="0" sustain="0.5"/>
            <elcut lspd_denominator="4" lshp="0" lamt="0" lpdel="0" rel="0.1" hold="0.5" lspd_syncmode="0" ctlenvamt="0" lspd="0.1" amt="0" x100="0" lspd_numerator="4" att="0" dec="0.5" userwavefile="" latt="0" pdel="0" sustain="0.5"/>
            <elres lspd_denominator="4" lshp="0" lamt="0" lpdel="0" rel="0.1" hold="0.5" lspd_syncmode="0" ctlenvamt="0" lspd="0.1" amt="0" x100="0" lspd_numerator="4" att="0" dec="0.5" userwavefile="" latt="0" pdel="0" sustain="0.5"/>
          </eldata>
          <chordcreator chord="0" chord-enabled="0" chordrange="1"/>
          <arpeggiator arpcycle="0" arp-enabled="0" arptime_syncmode="0" arpmode="0" arpskip="0" arpgate="100" arprange="1" arptime_numerator="4" arptime="200" arpmiss="0" arpdir="0" arptime_denominator="4" arp="0"/>
          <midiport fixedoutputvelocity="-1" writable="0" inputcontroller="0" outputchannel="1" outputcontroller="0" fixedinputvelocity="-1" inputchannel="0" basevelocity="63" readable="0" fixedoutputnote="-1" outputprogram="1"/>
          <fxchain numofeffects="0" enabled="0"/>
        </instrumenttrack>
      </track>
      <track muted="0" type="5" solo="0" name="Automation track">
        <automationtrack/>
        <automationpattern prog="1" pos="18432" mute="0" tens="1" name="Amplifier>>Volume" len="384">
          <time pos="0" value="28.5"/>
          <time pos="384" value="165"/>
          <object id="390581"/>
        </automationpattern>
        <automationpattern prog="0" pos="0" mute="0" tens="1" name="Amplifier>Effect enabled" len="192">
          <time pos="0" value="0"/>
          <object id="6297938"/>
        </automationpattern>
        <automationpattern prog="0" pos="18048" mute="0" tens="1" name="Amplifier>Effect enabled" len="192">
          <time pos="0" value="1"/>
          <object id="6297938"/>
        </automationpattern>
        <automationpattern prog="1" pos="19200" mute="0" tens="1" name="Amplifier>>Volume" len="384">
          <time pos="0" value="28.5"/>
          <time pos="384" value="165"/>
          <object id="390581"/>
        </automationpattern>
        <automationpattern prog="1" pos="19968" mute="0" tens="1" name="Amplifier>>Volume" len="384">
          <time pos="0" value="28.5"/>
          <time pos="384" value="165"/>
          <object id="390581"/>
        </automationpattern>
        <automationpattern prog="0" pos="20736" mute="0" tens="1" name="Amplifier>Effect enabled" len="192">
          <time pos="0" value="0"/>
          <object id="6297938"/>
        </automationpattern>
      </track>
    </trackcontainer>
    <track muted="0" type="6" solo="0" name="Automation track">
      <automationtrack/>
      <automationpattern prog="0" pos="0" mute="0" tens="1" name="Numerator" len="192"/>
      <automationpattern prog="0" pos="0" mute="0" tens="1" name="Denominator" len="192"/>
      <automationpattern prog="0" pos="0" mute="0" tens="1" name="Tempo" len="192"/>
      <automationpattern prog="0" pos="0" mute="0" tens="1" name="Master volume" len="192"/>
      <automationpattern prog="0" pos="0" mute="0" tens="1" name="Master pitch" len="192"/>
      <automationpattern prog="0" pos="0" mute="0" tens="1" name="Numerator" len="192"/>
      <automationpattern prog="0" pos="0" mute="0" tens="1" name="Denominator" len="192"/>
      <automationpattern prog="0" pos="0" mute="0" tens="1" name="Tempo" len="192"/>
      <automationpattern prog="0" pos="0" mute="0" tens="1" name="Master volume" len="192"/>
      <automationpattern prog="0" pos="0" mute="0" tens="1" name="Master pitch" len="192"/>
      <automationpattern prog="0" pos="0" mute="0" tens="1" name="Numerator" len="192"/>
      <automationpattern prog="0" pos="0" mute="0" tens="1" name="Denominator" len="192"/>
      <automationpattern prog="0" pos="0" mute="0" tens="1" name="Tempo" len="192"/>
      <automationpattern prog="0" pos="0" mute="0" tens="1" name="Master volume" len="192"/>
      <automationpattern prog="0" pos="0" mute="0" tens="1" name="Master pitch" len="192"/>
    </track>
    <fxmixer maximized="0" width="561" height="333" x="502" visible="1" minimized="0" y="553">
      <fxchannel muted="0" num="0" soloed="0" name="Master" volume="1">
        <fxchain numofeffects="1" enabled="1">
          <effect on="1" autoquit_numerator="4" wet="0.78999996" autoquit="1" name="ladspaeffect" autoquit_syncmode="0" autoquit_denominator="4" gate="0">
            <ladspacontrols ports="18">
              <port04 data="0"/>
              <port05 data="1"/>
              <port010 data="0.1"/>
              <port011 data="1.45"/>
              <port012>
                <data scale_type="log" id="2659003" value="4.472136"/>
              </port012>
              <port013>
                <data scale_type="log" id="4270697" value="94.574165"/>
              </port013>
              <port014 data="1"/>
              <port015 data="2.75"/>
              <port016 data="0"/>
              <port017 data="0"/>
              <port019 data="0"/>
              <port020>
                <data scale_type="log" id="4339816" value="424.26407"/>
              </port020>
              <port021>
                <data scale_type="log" id="1330220" value="2763.468"/>
              </port021>
              <port022 data="1"/>
              <port023 data="1"/>
              <port024 data="0"/>
              <port027 data="0"/>
              <port028 data="1"/>
            </ladspacontrols>
            <key>
              <attribute value="calf" name="file"/>
              <attribute value="Sidechaincompressor" name="plugin"/>
            </key>
          </effect>
        </fxchain>
      </fxchannel>
      <fxchannel muted="0" num="1" soloed="0" name="Percussion" volume="0.88400006">
        <fxchain numofeffects="1" enabled="1">
          <effect on="1" autoquit_numerator="4" wet="1" autoquit="1" name="ladspaeffect" autoquit_syncmode="0" autoquit_denominator="4" gate="0">
            <ladspacontrols ports="20" link="1">
              <port01 link="1" data="-33.120003"/>
              <port02 link="1" data="-4.23"/>
              <port03 link="1" data="3.5100002"/>
              <port04 link="1" data="0"/>
              <port05 link="1" data="0"/>
              <port06 link="1" data="0"/>
              <port07 link="1" data="0"/>
              <port08 link="1" data="0"/>
              <port09 link="1" data="0"/>
              <port010 link="1" data="0"/>
              <port11 data="-33.120003"/>
              <port12 data="-4.23"/>
              <port13 data="3.5100002"/>
              <port14 data="0"/>
              <port15 data="0"/>
              <port16 data="0"/>
              <port17 data="0"/>
              <port18 data="0"/>
              <port19 data="0"/>
              <port110 data="0"/>
            </ladspacontrols>
            <key>
              <attribute value="caps" name="file"/>
              <attribute value="Eq" name="plugin"/>
            </key>
          </effect>
        </fxchain>
        <send channel="0" amount="1"/>
      </fxchannel>
      <fxchannel muted="0" num="2" soloed="0" name="Lead" volume="0.5">
        <fxchain numofeffects="1" enabled="1">
          <effect on="1" autoquit_numerator="4" wet="1" autoquit="1" name="ladspaeffect" autoquit_syncmode="0" autoquit_denominator="4" gate="0">
            <ladspacontrols ports="20" link="1">
              <port01 link="1" data="-28.800001"/>
              <port02 link="1" data="-26.730001"/>
              <port03 link="1" data="2.7900002"/>
              <port04 link="1" data="0"/>
              <port05 link="1" data="4.0500002"/>
              <port06 link="1" data="0"/>
              <port07 link="1" data="0"/>
              <port08 link="1" data="0"/>
              <port09 link="1" data="0"/>
              <port010 link="1" data="0"/>
              <port11 data="-28.800001"/>
              <port12 data="-26.730001"/>
              <port13 data="2.7900002"/>
              <port14 data="0"/>
              <port15 data="4.0500002"/>
              <port16 data="0"/>
              <port17 data="0"/>
              <port18 data="0"/>
              <port19 data="0"/>
              <port110 data="0"/>
            </ladspacontrols>
            <key>
              <attribute value="caps" name="file"/>
              <attribute value="Eq" name="plugin"/>
            </key>
          </effect>
        </fxchain>
        <send channel="0" amount="1"/>
      </fxchannel>
      <fxchannel muted="0" num="3" soloed="0" name="Strings" volume="0.39999998">
        <fxchain numofeffects="1" enabled="1">
          <effect autoquit_numerator="4" wet="1" autoquit="1" name="amplifier" autoquit_syncmode="0" autoquit_denominator="4" gate="0">
            <on scale_type="linear" id="6297938" value="0"/>
            <AmplifierControls left="100" right="100" pan="0">
              <volume scale_type="linear" id="390581" value="165"/>
            </AmplifierControls>
            <key/>
          </effect>
        </fxchain>
        <send channel="0" amount="1"/>
      </fxchannel>
    </fxmixer>
    <ControllerRackView maximized="0" width="350" height="200" x="608" visible="1" minimized="0" y="307"/>
    <pianoroll maximized="0" width="861" height="623" x="215" visible="1" minimized="0" y="195"/>
    <automationeditor maximized="0" width="860" height="400" x="660" visible="0" minimized="0" y="358"/>
    <projectnotes maximized="0" width="860" height="400" x="60" visible="0" minimized="0" y="177"><![CDATA[<!DOCTYPE HTML PUBLIC "-//W3C//DTD HTML 4.0//EN" "http://www.w3.org/TR/REC-html40/strict.dtd">
<html><head><meta name="qrichtext" content="1" /><style type="text/css">
p, li { white-space: pre-wrap; }
</style></head><body style=" font-family:'Cantarell'; font-size:11pt; font-weight:400; font-style:normal;">
<p style=" margin-top:12px; margin-bottom:12px; margin-left:0px; margin-right:0px; -qt-block-indent:0; text-indent:0px;"><span style=" font-family:'Bitstream Vera Sans'; font-weight:600;">Some drums for making music rocking the club!</span></p></body></html>]]></projectnotes>
    <timeline lpstate="1" lp1pos="24576" lp0pos="0"/>
    <controllers/>
  </song>
</lmms-project>
