<?xml version="1.0"?>
<!DOCTYPE lmms-project>
<lmms-project creator="LMMS" type="song" creatorversion="1.2.2" version="1.0">
  <head bpm="145" mastervol="100" timesig_denominator="4" masterpitch="0" timesig_numerator="4"/>
  <song>
    <trackcontainer minimized="0" x="6" maximized="1" type="song" y="5" height="392" visible="1" width="1257">
      <track type="0" solo="0" name="Organic" muted="0">
        <instrumenttrack usemasterpitch="1" pan="0" vol="20" basenote="57" pitchrange="1" fxch="3" pitch="0">
          <instrument name="organic">
            <organic wavetype0="0" newdetune3="0" pan3="42" newdetune4="0" vol3="100" pan1="-28" pan0="0" wavetype2="0" newharmonic5="5" pan2="17" wavetype6="0" vol="100" vol2="100" newharmonic4="4" pan5="-45" wavetype3="0" wavetype7="0" vol6="100" vol0="100" pan6="0" newdetune0="0" pan4="55" newdetune5="0" newharmonic0="0" newdetune7="0" vol4="100" newdetune2="0" newharmonic7="7" wavetype5="0" wavetype4="0" newharmonic1="1" vol5="100" wavetype1="0" vol7="100" newdetune6="0" vol1="100" newharmonic3="3" newharmonic6="6" pan7="25" foldback="0" num_osc="8" newharmonic2="2" newdetune1="0"/>
          </instrument>
          <eldata ftype="0" fwet="0" fcut="14000" fres="0.5">
            <elvol lspd_syncmode="0" x100="0" lpdel="0" lamt="0" lspd="0.1" att="0" lspd_denominator="4" sustain="0.5" pdel="0" latt="0" dec="0.5" hold="0.5" lshp="0" userwavefile="" ctlenvamt="0" amt="1" lspd_numerator="4" rel="0.1"/>
            <elcut lspd_syncmode="0" x100="0" lpdel="0" lamt="0" lspd="0.1" att="0" lspd_denominator="4" sustain="0.5" pdel="0" latt="0" dec="0.5" hold="0.5" lshp="0" userwavefile="" ctlenvamt="0" amt="0" lspd_numerator="4" rel="0.1"/>
            <elres lspd_syncmode="0" x100="0" lpdel="0" lamt="0" lspd="0.1" att="0" lspd_denominator="4" sustain="0.5" pdel="0" latt="0" dec="0.5" hold="0.5" lshp="0" userwavefile="" ctlenvamt="0" amt="0" lspd_numerator="4" rel="0.1"/>
          </eldata>
          <chordcreator chordrange="1" chord="0" chord-enabled="0"/>
          <arpeggiator arp="0" arprange="1" arpskip="0" arptime_denominator="4" arp-enabled="0" arptime="200" arpmode="0" arpmiss="0" arptime_numerator="4" arptime_syncmode="0" arpdir="0" arpcycle="0" arpgate="100"/>
          <midiport outputcontroller="0" fixedoutputvelocity="-1" inputchannel="0" outputchannel="1" outputprogram="1" readable="0" writable="0" fixedinputvelocity="-1" inputcontroller="0" basevelocity="63" fixedoutputnote="-1"/>
          <fxchain numofeffects="2" enabled="1">
            <effect gate="0" autoquit="1" on="1" autoquit_numerator="4" autoquit_syncmode="0" autoquit_denominator="4" name="stereoenhancer" wet="1">
              <stereoenhancercontrols width="100"/>
              <key/>
            </effect>
            <effect gate="0" autoquit="1" on="1" autoquit_numerator="4" autoquit_syncmode="0" autoquit_denominator="4" name="ladspaeffect" wet="1">
              <ladspacontrols ports="4">
                <port02 data="0.50200003"/>
                <port03 data="0.37450001"/>
                <port04 data="0.250375"/>
                <port05 data="0.1"/>
              </ladspacontrols>
              <key>
                <attribute name="file" value="caps"/>
                <attribute name="plugin" value="Plate2x2"/>
              </key>
            </effect>
          </fxchain>
        </instrumenttrack>
        <pattern pos="0" type="1" steps="16" name="Organic" muted="0">
          <note pos="0" pan="0" vol="100" len="24" key="57"/>
          <note pos="48" pan="0" vol="100" len="12" key="57"/>
          <note pos="72" pan="0" vol="100" len="24" key="60"/>
          <note pos="120" pan="0" vol="100" len="24" key="59"/>
          <note pos="168" pan="0" vol="100" len="24" key="55"/>
          <note pos="192" pan="0" vol="100" len="24" key="57"/>
          <note pos="240" pan="0" vol="100" len="12" key="57"/>
          <note pos="264" pan="0" vol="100" len="24" key="60"/>
          <note pos="312" pan="0" vol="100" len="24" key="59"/>
          <note pos="360" pan="0" vol="100" len="24" key="55"/>
          <note pos="384" pan="0" vol="100" len="24" key="57"/>
          <note pos="432" pan="0" vol="100" len="12" key="57"/>
          <note pos="456" pan="0" vol="100" len="24" key="60"/>
          <note pos="504" pan="0" vol="100" len="24" key="59"/>
          <note pos="552" pan="0" vol="100" len="24" key="55"/>
          <note pos="576" pan="0" vol="100" len="24" key="57"/>
          <note pos="624" pan="0" vol="100" len="24" key="57"/>
          <note pos="648" pan="0" vol="100" len="48" key="62"/>
          <note pos="696" pan="0" vol="100" len="48" key="60"/>
          <note pos="744" pan="0" vol="100" len="24" key="59"/>
        </pattern>
        <pattern pos="768" type="1" steps="16" name="Organic" muted="0">
          <note pos="0" pan="0" vol="100" len="24" key="57"/>
          <note pos="48" pan="0" vol="100" len="12" key="57"/>
          <note pos="72" pan="0" vol="100" len="24" key="60"/>
          <note pos="120" pan="0" vol="100" len="24" key="59"/>
          <note pos="168" pan="0" vol="100" len="24" key="55"/>
          <note pos="192" pan="0" vol="100" len="24" key="57"/>
          <note pos="240" pan="0" vol="100" len="12" key="57"/>
          <note pos="264" pan="0" vol="100" len="24" key="60"/>
          <note pos="312" pan="0" vol="100" len="24" key="59"/>
          <note pos="360" pan="0" vol="100" len="24" key="55"/>
          <note pos="384" pan="0" vol="100" len="24" key="57"/>
          <note pos="432" pan="0" vol="100" len="12" key="57"/>
          <note pos="456" pan="0" vol="100" len="24" key="60"/>
          <note pos="504" pan="0" vol="100" len="24" key="59"/>
          <note pos="552" pan="0" vol="100" len="24" key="55"/>
          <note pos="576" pan="0" vol="100" len="24" key="57"/>
          <note pos="624" pan="0" vol="100" len="24" key="57"/>
          <note pos="648" pan="0" vol="100" len="48" key="62"/>
          <note pos="696" pan="0" vol="100" len="48" key="60"/>
          <note pos="744" pan="0" vol="100" len="24" key="59"/>
        </pattern>
        <pattern pos="1536" type="1" steps="16" name="" muted="0">
          <note pos="0" pan="0" vol="100" len="24" key="57"/>
          <note pos="48" pan="0" vol="100" len="12" key="57"/>
          <note pos="72" pan="0" vol="100" len="24" key="60"/>
          <note pos="120" pan="0" vol="100" len="24" key="59"/>
          <note pos="168" pan="0" vol="100" len="24" key="55"/>
          <note pos="192" pan="0" vol="100" len="24" key="57"/>
          <note pos="240" pan="0" vol="100" len="12" key="57"/>
          <note pos="264" pan="0" vol="100" len="24" key="60"/>
          <note pos="312" pan="0" vol="100" len="24" key="59"/>
          <note pos="360" pan="0" vol="100" len="24" key="55"/>
          <note pos="384" pan="0" vol="100" len="24" key="57"/>
          <note pos="432" pan="0" vol="100" len="12" key="57"/>
          <note pos="456" pan="0" vol="100" len="24" key="60"/>
          <note pos="504" pan="0" vol="100" len="24" key="59"/>
          <note pos="552" pan="0" vol="100" len="24" key="55"/>
          <note pos="576" pan="0" vol="100" len="24" key="57"/>
          <note pos="624" pan="0" vol="100" len="24" key="57"/>
          <note pos="648" pan="0" vol="100" len="48" key="62"/>
          <note pos="696" pan="0" vol="100" len="48" key="60"/>
          <note pos="744" pan="0" vol="100" len="24" key="59"/>
        </pattern>
        <pattern pos="2304" type="1" steps="16" name="" muted="0">
          <note pos="0" pan="0" vol="100" len="24" key="57"/>
          <note pos="48" pan="0" vol="100" len="12" key="57"/>
          <note pos="72" pan="0" vol="100" len="24" key="60"/>
          <note pos="120" pan="0" vol="100" len="24" key="59"/>
          <note pos="168" pan="0" vol="100" len="24" key="55"/>
          <note pos="192" pan="0" vol="100" len="24" key="57"/>
          <note pos="240" pan="0" vol="100" len="12" key="57"/>
          <note pos="264" pan="0" vol="100" len="24" key="60"/>
          <note pos="312" pan="0" vol="100" len="24" key="59"/>
          <note pos="360" pan="0" vol="100" len="24" key="55"/>
          <note pos="384" pan="0" vol="100" len="24" key="57"/>
          <note pos="432" pan="0" vol="100" len="12" key="57"/>
          <note pos="456" pan="0" vol="100" len="24" key="60"/>
          <note pos="504" pan="0" vol="100" len="24" key="59"/>
          <note pos="552" pan="0" vol="100" len="24" key="55"/>
          <note pos="576" pan="0" vol="100" len="24" key="57"/>
          <note pos="624" pan="0" vol="100" len="24" key="57"/>
          <note pos="648" pan="0" vol="100" len="48" key="62"/>
          <note pos="696" pan="0" vol="100" len="48" key="60"/>
          <note pos="744" pan="0" vol="100" len="24" key="59"/>
        </pattern>
        <pattern pos="3072" type="1" steps="16" name="" muted="0">
          <note pos="0" pan="0" vol="100" len="24" key="57"/>
          <note pos="48" pan="0" vol="100" len="12" key="57"/>
          <note pos="72" pan="0" vol="100" len="24" key="60"/>
          <note pos="120" pan="0" vol="100" len="24" key="59"/>
          <note pos="168" pan="0" vol="100" len="24" key="55"/>
          <note pos="192" pan="0" vol="100" len="24" key="57"/>
          <note pos="240" pan="0" vol="100" len="12" key="57"/>
          <note pos="264" pan="0" vol="100" len="24" key="60"/>
          <note pos="312" pan="0" vol="100" len="24" key="59"/>
          <note pos="360" pan="0" vol="100" len="24" key="55"/>
          <note pos="384" pan="0" vol="100" len="24" key="57"/>
          <note pos="432" pan="0" vol="100" len="12" key="57"/>
          <note pos="456" pan="0" vol="100" len="24" key="60"/>
          <note pos="504" pan="0" vol="100" len="24" key="59"/>
          <note pos="552" pan="0" vol="100" len="24" key="55"/>
          <note pos="576" pan="0" vol="100" len="24" key="57"/>
          <note pos="624" pan="0" vol="100" len="24" key="57"/>
          <note pos="648" pan="0" vol="100" len="48" key="62"/>
          <note pos="696" pan="0" vol="100" len="48" key="60"/>
          <note pos="744" pan="0" vol="100" len="24" key="59"/>
        </pattern>
        <pattern pos="3840" type="1" steps="16" name="" muted="0">
          <note pos="0" pan="0" vol="100" len="24" key="57"/>
          <note pos="48" pan="0" vol="100" len="12" key="57"/>
          <note pos="72" pan="0" vol="100" len="24" key="60"/>
          <note pos="120" pan="0" vol="100" len="24" key="59"/>
          <note pos="168" pan="0" vol="100" len="24" key="55"/>
          <note pos="192" pan="0" vol="100" len="24" key="57"/>
          <note pos="240" pan="0" vol="100" len="12" key="57"/>
          <note pos="264" pan="0" vol="100" len="24" key="60"/>
          <note pos="312" pan="0" vol="100" len="24" key="59"/>
          <note pos="360" pan="0" vol="100" len="24" key="55"/>
          <note pos="384" pan="0" vol="100" len="24" key="57"/>
          <note pos="432" pan="0" vol="100" len="12" key="57"/>
          <note pos="456" pan="0" vol="100" len="24" key="60"/>
          <note pos="504" pan="0" vol="100" len="24" key="59"/>
          <note pos="552" pan="0" vol="100" len="24" key="55"/>
          <note pos="576" pan="0" vol="100" len="24" key="57"/>
          <note pos="624" pan="0" vol="100" len="24" key="57"/>
          <note pos="648" pan="0" vol="100" len="48" key="62"/>
          <note pos="696" pan="0" vol="100" len="48" key="60"/>
          <note pos="744" pan="0" vol="100" len="24" key="59"/>
        </pattern>
        <pattern pos="4608" type="1" steps="16" name="" muted="0">
          <note pos="0" pan="0" vol="100" len="24" key="57"/>
          <note pos="48" pan="0" vol="100" len="12" key="57"/>
          <note pos="72" pan="0" vol="100" len="24" key="60"/>
          <note pos="120" pan="0" vol="100" len="24" key="59"/>
          <note pos="168" pan="0" vol="100" len="24" key="55"/>
          <note pos="192" pan="0" vol="100" len="24" key="57"/>
          <note pos="240" pan="0" vol="100" len="12" key="57"/>
          <note pos="264" pan="0" vol="100" len="24" key="60"/>
          <note pos="312" pan="0" vol="100" len="24" key="59"/>
          <note pos="360" pan="0" vol="100" len="24" key="55"/>
          <note pos="384" pan="0" vol="100" len="24" key="57"/>
          <note pos="432" pan="0" vol="100" len="12" key="57"/>
          <note pos="456" pan="0" vol="100" len="24" key="60"/>
          <note pos="504" pan="0" vol="100" len="24" key="59"/>
          <note pos="552" pan="0" vol="100" len="24" key="55"/>
          <note pos="576" pan="0" vol="100" len="24" key="57"/>
          <note pos="624" pan="0" vol="100" len="24" key="57"/>
          <note pos="648" pan="0" vol="100" len="48" key="62"/>
          <note pos="696" pan="0" vol="100" len="48" key="60"/>
          <note pos="744" pan="0" vol="100" len="24" key="59"/>
        </pattern>
        <pattern pos="5376" type="1" steps="16" name="" muted="0">
          <note pos="0" pan="0" vol="100" len="24" key="57"/>
          <note pos="48" pan="0" vol="100" len="12" key="57"/>
          <note pos="72" pan="0" vol="100" len="24" key="60"/>
          <note pos="120" pan="0" vol="100" len="24" key="59"/>
          <note pos="168" pan="0" vol="100" len="24" key="55"/>
          <note pos="192" pan="0" vol="100" len="24" key="57"/>
          <note pos="240" pan="0" vol="100" len="12" key="57"/>
          <note pos="264" pan="0" vol="100" len="24" key="60"/>
          <note pos="312" pan="0" vol="100" len="24" key="59"/>
          <note pos="360" pan="0" vol="100" len="24" key="55"/>
          <note pos="384" pan="0" vol="100" len="24" key="57"/>
          <note pos="432" pan="0" vol="100" len="12" key="57"/>
          <note pos="456" pan="0" vol="100" len="24" key="60"/>
          <note pos="504" pan="0" vol="100" len="24" key="59"/>
          <note pos="552" pan="0" vol="100" len="24" key="55"/>
          <note pos="576" pan="0" vol="100" len="24" key="57"/>
          <note pos="624" pan="0" vol="100" len="24" key="57"/>
          <note pos="648" pan="0" vol="100" len="48" key="62"/>
          <note pos="696" pan="0" vol="100" len="48" key="60"/>
          <note pos="744" pan="0" vol="100" len="24" key="59"/>
        </pattern>
        <pattern pos="7680" type="1" steps="16" name="" muted="0">
          <note pos="0" pan="0" vol="100" len="24" key="57"/>
          <note pos="48" pan="0" vol="100" len="12" key="57"/>
          <note pos="72" pan="0" vol="100" len="24" key="60"/>
          <note pos="120" pan="0" vol="100" len="24" key="59"/>
          <note pos="168" pan="0" vol="100" len="24" key="55"/>
          <note pos="192" pan="0" vol="100" len="24" key="57"/>
          <note pos="240" pan="0" vol="100" len="12" key="57"/>
          <note pos="264" pan="0" vol="100" len="24" key="60"/>
          <note pos="312" pan="0" vol="100" len="24" key="59"/>
          <note pos="360" pan="0" vol="100" len="24" key="55"/>
          <note pos="384" pan="0" vol="100" len="24" key="57"/>
          <note pos="432" pan="0" vol="100" len="12" key="57"/>
          <note pos="456" pan="0" vol="100" len="24" key="60"/>
          <note pos="504" pan="0" vol="100" len="24" key="59"/>
          <note pos="552" pan="0" vol="100" len="24" key="55"/>
          <note pos="576" pan="0" vol="100" len="24" key="57"/>
          <note pos="624" pan="0" vol="100" len="24" key="57"/>
          <note pos="648" pan="0" vol="100" len="48" key="62"/>
          <note pos="696" pan="0" vol="100" len="48" key="60"/>
          <note pos="744" pan="0" vol="100" len="24" key="59"/>
        </pattern>
        <pattern pos="8448" type="1" steps="16" name="" muted="0">
          <note pos="0" pan="0" vol="100" len="24" key="57"/>
          <note pos="48" pan="0" vol="100" len="12" key="57"/>
          <note pos="72" pan="0" vol="100" len="24" key="60"/>
          <note pos="120" pan="0" vol="100" len="24" key="59"/>
          <note pos="168" pan="0" vol="100" len="24" key="55"/>
          <note pos="192" pan="0" vol="100" len="24" key="57"/>
          <note pos="240" pan="0" vol="100" len="12" key="57"/>
          <note pos="264" pan="0" vol="100" len="24" key="60"/>
          <note pos="312" pan="0" vol="100" len="24" key="59"/>
          <note pos="360" pan="0" vol="100" len="24" key="55"/>
          <note pos="384" pan="0" vol="100" len="24" key="57"/>
          <note pos="432" pan="0" vol="100" len="12" key="57"/>
          <note pos="456" pan="0" vol="100" len="24" key="60"/>
          <note pos="504" pan="0" vol="100" len="24" key="59"/>
          <note pos="552" pan="0" vol="100" len="24" key="55"/>
          <note pos="576" pan="0" vol="100" len="24" key="57"/>
          <note pos="624" pan="0" vol="100" len="24" key="57"/>
          <note pos="648" pan="0" vol="100" len="48" key="62"/>
          <note pos="696" pan="0" vol="100" len="48" key="60"/>
          <note pos="744" pan="0" vol="100" len="24" key="59"/>
        </pattern>
        <pattern pos="9216" type="1" steps="16" name="" muted="0">
          <note pos="0" pan="0" vol="100" len="24" key="57"/>
          <note pos="48" pan="0" vol="100" len="12" key="57"/>
          <note pos="72" pan="0" vol="100" len="24" key="60"/>
          <note pos="120" pan="0" vol="100" len="24" key="59"/>
          <note pos="168" pan="0" vol="100" len="24" key="55"/>
          <note pos="192" pan="0" vol="100" len="24" key="57"/>
          <note pos="240" pan="0" vol="100" len="12" key="57"/>
          <note pos="264" pan="0" vol="100" len="24" key="60"/>
          <note pos="312" pan="0" vol="100" len="24" key="59"/>
          <note pos="360" pan="0" vol="100" len="24" key="55"/>
          <note pos="384" pan="0" vol="100" len="24" key="57"/>
          <note pos="432" pan="0" vol="100" len="12" key="57"/>
          <note pos="456" pan="0" vol="100" len="24" key="60"/>
          <note pos="504" pan="0" vol="100" len="24" key="59"/>
          <note pos="552" pan="0" vol="100" len="24" key="55"/>
          <note pos="576" pan="0" vol="100" len="24" key="57"/>
          <note pos="624" pan="0" vol="100" len="24" key="57"/>
          <note pos="648" pan="0" vol="100" len="48" key="62"/>
          <note pos="696" pan="0" vol="100" len="48" key="60"/>
          <note pos="744" pan="0" vol="100" len="24" key="59"/>
        </pattern>
        <pattern pos="9984" type="1" steps="16" name="" muted="0">
          <note pos="0" pan="0" vol="100" len="24" key="57"/>
          <note pos="48" pan="0" vol="100" len="12" key="57"/>
          <note pos="72" pan="0" vol="100" len="24" key="60"/>
          <note pos="120" pan="0" vol="100" len="24" key="59"/>
          <note pos="168" pan="0" vol="100" len="24" key="55"/>
          <note pos="192" pan="0" vol="100" len="24" key="57"/>
          <note pos="240" pan="0" vol="100" len="12" key="57"/>
          <note pos="264" pan="0" vol="100" len="24" key="60"/>
          <note pos="312" pan="0" vol="100" len="24" key="59"/>
          <note pos="360" pan="0" vol="100" len="24" key="55"/>
          <note pos="384" pan="0" vol="100" len="24" key="57"/>
          <note pos="432" pan="0" vol="100" len="12" key="57"/>
          <note pos="456" pan="0" vol="100" len="24" key="60"/>
          <note pos="504" pan="0" vol="100" len="24" key="59"/>
          <note pos="552" pan="0" vol="100" len="24" key="55"/>
          <note pos="576" pan="0" vol="100" len="24" key="57"/>
          <note pos="624" pan="0" vol="100" len="24" key="57"/>
          <note pos="648" pan="0" vol="100" len="48" key="62"/>
          <note pos="696" pan="0" vol="100" len="48" key="60"/>
          <note pos="744" pan="0" vol="100" len="24" key="59"/>
        </pattern>
        <pattern pos="10752" type="1" steps="16" name="" muted="0">
          <note pos="0" pan="0" vol="100" len="24" key="57"/>
          <note pos="48" pan="0" vol="100" len="12" key="57"/>
          <note pos="72" pan="0" vol="100" len="24" key="60"/>
          <note pos="120" pan="0" vol="100" len="24" key="59"/>
          <note pos="168" pan="0" vol="100" len="24" key="55"/>
          <note pos="192" pan="0" vol="100" len="24" key="57"/>
          <note pos="240" pan="0" vol="100" len="12" key="57"/>
          <note pos="264" pan="0" vol="100" len="24" key="60"/>
          <note pos="312" pan="0" vol="100" len="24" key="59"/>
          <note pos="360" pan="0" vol="100" len="24" key="55"/>
          <note pos="384" pan="0" vol="100" len="24" key="57"/>
          <note pos="432" pan="0" vol="100" len="12" key="57"/>
          <note pos="456" pan="0" vol="100" len="24" key="60"/>
          <note pos="504" pan="0" vol="100" len="24" key="59"/>
          <note pos="552" pan="0" vol="100" len="24" key="55"/>
          <note pos="576" pan="0" vol="100" len="24" key="57"/>
          <note pos="624" pan="0" vol="100" len="24" key="57"/>
          <note pos="648" pan="0" vol="100" len="48" key="62"/>
          <note pos="696" pan="0" vol="100" len="48" key="60"/>
          <note pos="744" pan="0" vol="100" len="24" key="59"/>
        </pattern>
        <pattern pos="11520" type="1" steps="16" name="" muted="0">
          <note pos="0" pan="0" vol="100" len="24" key="57"/>
          <note pos="48" pan="0" vol="100" len="12" key="57"/>
          <note pos="72" pan="0" vol="100" len="24" key="60"/>
          <note pos="120" pan="0" vol="100" len="24" key="59"/>
          <note pos="168" pan="0" vol="100" len="24" key="55"/>
          <note pos="192" pan="0" vol="100" len="24" key="57"/>
          <note pos="240" pan="0" vol="100" len="12" key="57"/>
          <note pos="264" pan="0" vol="100" len="24" key="60"/>
          <note pos="312" pan="0" vol="100" len="24" key="59"/>
          <note pos="360" pan="0" vol="100" len="24" key="55"/>
          <note pos="384" pan="0" vol="100" len="24" key="57"/>
          <note pos="432" pan="0" vol="100" len="12" key="57"/>
          <note pos="456" pan="0" vol="100" len="24" key="60"/>
          <note pos="504" pan="0" vol="100" len="24" key="59"/>
          <note pos="552" pan="0" vol="100" len="24" key="55"/>
          <note pos="576" pan="0" vol="100" len="24" key="57"/>
          <note pos="624" pan="0" vol="100" len="24" key="57"/>
          <note pos="648" pan="0" vol="100" len="48" key="62"/>
          <note pos="696" pan="0" vol="100" len="48" key="60"/>
          <note pos="744" pan="0" vol="100" len="24" key="59"/>
        </pattern>
        <pattern pos="12288" type="1" steps="16" name="" muted="0">
          <note pos="0" pan="0" vol="100" len="24" key="57"/>
          <note pos="48" pan="0" vol="100" len="12" key="57"/>
          <note pos="72" pan="0" vol="100" len="24" key="60"/>
          <note pos="120" pan="0" vol="100" len="24" key="59"/>
          <note pos="168" pan="0" vol="100" len="24" key="55"/>
          <note pos="192" pan="0" vol="100" len="24" key="57"/>
          <note pos="240" pan="0" vol="100" len="12" key="57"/>
          <note pos="264" pan="0" vol="100" len="24" key="60"/>
          <note pos="312" pan="0" vol="100" len="24" key="59"/>
          <note pos="360" pan="0" vol="100" len="24" key="55"/>
          <note pos="384" pan="0" vol="100" len="24" key="57"/>
          <note pos="432" pan="0" vol="100" len="12" key="57"/>
          <note pos="456" pan="0" vol="100" len="24" key="60"/>
          <note pos="504" pan="0" vol="100" len="24" key="59"/>
          <note pos="552" pan="0" vol="100" len="24" key="55"/>
          <note pos="576" pan="0" vol="100" len="24" key="57"/>
          <note pos="624" pan="0" vol="100" len="24" key="57"/>
          <note pos="648" pan="0" vol="100" len="48" key="62"/>
          <note pos="696" pan="0" vol="100" len="48" key="60"/>
          <note pos="744" pan="0" vol="100" len="24" key="59"/>
        </pattern>
        <pattern pos="13056" type="1" steps="16" name="" muted="0">
          <note pos="0" pan="0" vol="100" len="24" key="57"/>
          <note pos="48" pan="0" vol="100" len="12" key="57"/>
          <note pos="72" pan="0" vol="100" len="24" key="60"/>
          <note pos="120" pan="0" vol="100" len="24" key="59"/>
          <note pos="168" pan="0" vol="100" len="24" key="55"/>
          <note pos="192" pan="0" vol="100" len="24" key="57"/>
          <note pos="240" pan="0" vol="100" len="12" key="57"/>
          <note pos="264" pan="0" vol="100" len="24" key="60"/>
          <note pos="312" pan="0" vol="100" len="24" key="59"/>
          <note pos="360" pan="0" vol="100" len="24" key="55"/>
          <note pos="384" pan="0" vol="100" len="24" key="57"/>
          <note pos="432" pan="0" vol="100" len="12" key="57"/>
          <note pos="456" pan="0" vol="100" len="24" key="60"/>
          <note pos="504" pan="0" vol="100" len="24" key="59"/>
          <note pos="552" pan="0" vol="100" len="24" key="55"/>
          <note pos="576" pan="0" vol="100" len="24" key="57"/>
          <note pos="624" pan="0" vol="100" len="24" key="57"/>
          <note pos="648" pan="0" vol="100" len="48" key="62"/>
          <note pos="696" pan="0" vol="100" len="48" key="60"/>
          <note pos="744" pan="0" vol="100" len="24" key="59"/>
        </pattern>
        <pattern pos="13824" type="1" steps="16" name="" muted="0">
          <note pos="0" pan="0" vol="100" len="24" key="57"/>
          <note pos="48" pan="0" vol="100" len="12" key="57"/>
          <note pos="72" pan="0" vol="100" len="24" key="60"/>
          <note pos="120" pan="0" vol="100" len="24" key="59"/>
          <note pos="168" pan="0" vol="100" len="24" key="55"/>
          <note pos="192" pan="0" vol="100" len="24" key="57"/>
          <note pos="240" pan="0" vol="100" len="12" key="57"/>
          <note pos="264" pan="0" vol="100" len="24" key="60"/>
          <note pos="312" pan="0" vol="100" len="24" key="59"/>
          <note pos="360" pan="0" vol="100" len="24" key="55"/>
          <note pos="384" pan="0" vol="100" len="24" key="57"/>
          <note pos="432" pan="0" vol="100" len="12" key="57"/>
          <note pos="456" pan="0" vol="100" len="24" key="60"/>
          <note pos="504" pan="0" vol="100" len="24" key="59"/>
          <note pos="552" pan="0" vol="100" len="24" key="55"/>
          <note pos="576" pan="0" vol="100" len="24" key="57"/>
          <note pos="624" pan="0" vol="100" len="24" key="57"/>
          <note pos="648" pan="0" vol="100" len="48" key="62"/>
          <note pos="696" pan="0" vol="100" len="48" key="60"/>
          <note pos="744" pan="0" vol="100" len="24" key="59"/>
        </pattern>
        <pattern pos="14592" type="1" steps="16" name="" muted="0">
          <note pos="0" pan="0" vol="100" len="24" key="57"/>
          <note pos="48" pan="0" vol="100" len="12" key="57"/>
          <note pos="72" pan="0" vol="100" len="24" key="60"/>
          <note pos="120" pan="0" vol="100" len="24" key="59"/>
          <note pos="168" pan="0" vol="100" len="24" key="55"/>
          <note pos="192" pan="0" vol="100" len="24" key="57"/>
          <note pos="240" pan="0" vol="100" len="12" key="57"/>
          <note pos="264" pan="0" vol="100" len="24" key="60"/>
          <note pos="312" pan="0" vol="100" len="24" key="59"/>
          <note pos="360" pan="0" vol="100" len="24" key="55"/>
          <note pos="384" pan="0" vol="100" len="24" key="57"/>
          <note pos="432" pan="0" vol="100" len="12" key="57"/>
          <note pos="456" pan="0" vol="100" len="24" key="60"/>
          <note pos="504" pan="0" vol="100" len="24" key="59"/>
          <note pos="552" pan="0" vol="100" len="24" key="55"/>
          <note pos="576" pan="0" vol="100" len="24" key="57"/>
          <note pos="624" pan="0" vol="100" len="24" key="57"/>
          <note pos="648" pan="0" vol="100" len="48" key="62"/>
          <note pos="696" pan="0" vol="100" len="48" key="60"/>
          <note pos="744" pan="0" vol="100" len="24" key="59"/>
        </pattern>
        <pattern pos="15360" type="1" steps="16" name="" muted="0">
          <note pos="0" pan="0" vol="100" len="24" key="57"/>
          <note pos="48" pan="0" vol="100" len="12" key="57"/>
          <note pos="72" pan="0" vol="100" len="24" key="60"/>
          <note pos="120" pan="0" vol="100" len="24" key="59"/>
          <note pos="168" pan="0" vol="100" len="24" key="55"/>
          <note pos="192" pan="0" vol="100" len="24" key="57"/>
          <note pos="240" pan="0" vol="100" len="12" key="57"/>
          <note pos="264" pan="0" vol="100" len="24" key="60"/>
          <note pos="312" pan="0" vol="100" len="24" key="59"/>
          <note pos="360" pan="0" vol="100" len="24" key="55"/>
          <note pos="384" pan="0" vol="100" len="24" key="57"/>
          <note pos="432" pan="0" vol="100" len="12" key="57"/>
          <note pos="456" pan="0" vol="100" len="24" key="60"/>
          <note pos="504" pan="0" vol="100" len="24" key="59"/>
          <note pos="552" pan="0" vol="100" len="24" key="55"/>
          <note pos="576" pan="0" vol="100" len="24" key="57"/>
          <note pos="624" pan="0" vol="100" len="24" key="57"/>
          <note pos="648" pan="0" vol="100" len="48" key="62"/>
          <note pos="696" pan="0" vol="100" len="48" key="60"/>
          <note pos="744" pan="0" vol="100" len="24" key="59"/>
        </pattern>
        <pattern pos="16128" type="1" steps="16" name="" muted="0">
          <note pos="0" pan="0" vol="100" len="24" key="57"/>
          <note pos="48" pan="0" vol="100" len="12" key="57"/>
          <note pos="72" pan="0" vol="100" len="24" key="60"/>
          <note pos="120" pan="0" vol="100" len="24" key="59"/>
          <note pos="168" pan="0" vol="100" len="24" key="55"/>
          <note pos="192" pan="0" vol="100" len="24" key="57"/>
          <note pos="240" pan="0" vol="100" len="12" key="57"/>
          <note pos="264" pan="0" vol="100" len="24" key="60"/>
          <note pos="312" pan="0" vol="100" len="24" key="59"/>
          <note pos="360" pan="0" vol="100" len="24" key="55"/>
          <note pos="384" pan="0" vol="100" len="24" key="57"/>
          <note pos="432" pan="0" vol="100" len="12" key="57"/>
          <note pos="456" pan="0" vol="100" len="24" key="60"/>
          <note pos="504" pan="0" vol="100" len="24" key="59"/>
          <note pos="552" pan="0" vol="100" len="24" key="55"/>
          <note pos="576" pan="0" vol="100" len="24" key="57"/>
          <note pos="624" pan="0" vol="100" len="24" key="57"/>
          <note pos="648" pan="0" vol="100" len="48" key="62"/>
          <note pos="696" pan="0" vol="100" len="48" key="60"/>
          <note pos="744" pan="0" vol="100" len="24" key="59"/>
        </pattern>
        <pattern pos="16896" type="1" steps="16" name="" muted="0">
          <note pos="0" pan="0" vol="100" len="24" key="57"/>
        </pattern>
        <pattern pos="6144" type="1" steps="16" name="" muted="0">
          <note pos="0" pan="0" vol="100" len="24" key="57"/>
          <note pos="48" pan="0" vol="100" len="12" key="57"/>
          <note pos="72" pan="0" vol="100" len="24" key="60"/>
          <note pos="120" pan="0" vol="100" len="24" key="59"/>
          <note pos="168" pan="0" vol="100" len="24" key="55"/>
          <note pos="192" pan="0" vol="100" len="24" key="57"/>
          <note pos="240" pan="0" vol="100" len="12" key="57"/>
          <note pos="264" pan="0" vol="100" len="24" key="60"/>
          <note pos="312" pan="0" vol="100" len="24" key="59"/>
          <note pos="360" pan="0" vol="100" len="24" key="55"/>
          <note pos="384" pan="0" vol="100" len="24" key="57"/>
          <note pos="432" pan="0" vol="100" len="12" key="57"/>
          <note pos="456" pan="0" vol="100" len="24" key="60"/>
          <note pos="504" pan="0" vol="100" len="24" key="59"/>
          <note pos="552" pan="0" vol="100" len="24" key="55"/>
          <note pos="576" pan="0" vol="100" len="24" key="57"/>
          <note pos="624" pan="0" vol="100" len="24" key="57"/>
          <note pos="648" pan="0" vol="100" len="48" key="62"/>
          <note pos="696" pan="0" vol="100" len="48" key="60"/>
          <note pos="744" pan="0" vol="100" len="24" key="59"/>
        </pattern>
        <pattern pos="6912" type="1" steps="16" name="" muted="0">
          <note pos="0" pan="0" vol="100" len="24" key="57"/>
          <note pos="48" pan="0" vol="100" len="12" key="57"/>
          <note pos="72" pan="0" vol="100" len="24" key="60"/>
          <note pos="120" pan="0" vol="100" len="24" key="59"/>
          <note pos="168" pan="0" vol="100" len="24" key="55"/>
          <note pos="192" pan="0" vol="100" len="24" key="57"/>
          <note pos="240" pan="0" vol="100" len="12" key="57"/>
          <note pos="264" pan="0" vol="100" len="24" key="60"/>
          <note pos="312" pan="0" vol="100" len="24" key="59"/>
          <note pos="360" pan="0" vol="100" len="24" key="55"/>
          <note pos="384" pan="0" vol="100" len="24" key="57"/>
          <note pos="432" pan="0" vol="100" len="12" key="57"/>
          <note pos="456" pan="0" vol="100" len="24" key="60"/>
          <note pos="504" pan="0" vol="100" len="24" key="59"/>
          <note pos="552" pan="0" vol="100" len="24" key="55"/>
          <note pos="576" pan="0" vol="100" len="24" key="57"/>
          <note pos="624" pan="0" vol="100" len="24" key="57"/>
          <note pos="648" pan="0" vol="100" len="48" key="62"/>
          <note pos="696" pan="0" vol="100" len="48" key="60"/>
          <note pos="744" pan="0" vol="100" len="24" key="59"/>
        </pattern>
      </track>
      <track type="0" solo="0" name="Organic" muted="0">
        <instrumenttrack usemasterpitch="1" pan="0" vol="40" basenote="57" pitchrange="1" fxch="3" pitch="0">
          <instrument name="organic">
            <organic wavetype0="0" newdetune3="4" pan3="0" newdetune4="2" vol3="86" pan1="0" pan0="0" wavetype2="3" newharmonic5="5" pan2="0" wavetype6="1" vol="100" vol2="43" newharmonic4="4" pan5="0" wavetype3="0" wavetype7="2" vol6="81" vol0="91" pan6="0" newdetune0="0" pan4="0" newdetune5="-4" newharmonic0="0" newdetune7="-5" vol4="2" newdetune2="0" newharmonic7="7" wavetype5="4" wavetype4="2" newharmonic1="1" vol5="59" wavetype1="1" vol7="87" newdetune6="4" vol1="31" newharmonic3="3" newharmonic6="6" pan7="0" foldback="0" num_osc="8" newharmonic2="2" newdetune1="-5"/>
          </instrument>
          <eldata ftype="0" fwet="0" fcut="14000" fres="0.5">
            <elvol lspd_syncmode="0" x100="0" lpdel="0" lamt="0" lspd="0.1" att="0" lspd_denominator="4" sustain="0.5" pdel="0" latt="0" dec="0.5" hold="0.5" lshp="0" userwavefile="" ctlenvamt="0" amt="1" lspd_numerator="4" rel="0.1"/>
            <elcut lspd_syncmode="0" x100="0" lpdel="0" lamt="0" lspd="0.1" att="0" lspd_denominator="4" sustain="0.5" pdel="0" latt="0" dec="0.5" hold="0.5" lshp="0" userwavefile="" ctlenvamt="0" amt="0" lspd_numerator="4" rel="0.1"/>
            <elres lspd_syncmode="0" x100="0" lpdel="0" lamt="0" lspd="0.1" att="0" lspd_denominator="4" sustain="0.5" pdel="0" latt="0" dec="0.5" hold="0.5" lshp="0" userwavefile="" ctlenvamt="0" amt="0" lspd_numerator="4" rel="0.1"/>
          </eldata>
          <chordcreator chordrange="2" chord="0" chord-enabled="1"/>
          <arpeggiator arp="0" arprange="1" arpskip="0" arptime_denominator="4" arp-enabled="0" arptime="200" arpmode="0" arpmiss="0" arptime_numerator="4" arptime_syncmode="0" arpdir="0" arpcycle="0" arpgate="100"/>
          <midiport outputcontroller="0" fixedoutputvelocity="-1" inputchannel="0" outputchannel="1" outputprogram="1" readable="0" writable="0" fixedinputvelocity="-1" inputcontroller="0" basevelocity="63" fixedoutputnote="-1"/>
          <fxchain numofeffects="2" enabled="1">
            <effect gate="0" autoquit="1" on="1" autoquit_numerator="4" autoquit_syncmode="0" autoquit_denominator="4" name="stereoenhancer" wet="1">
              <stereoenhancercontrols width="100"/>
              <key/>
            </effect>
            <effect gate="0" autoquit="1" on="1" autoquit_numerator="4" autoquit_syncmode="0" autoquit_denominator="4" name="ladspaeffect" wet="1">
              <ladspacontrols ports="4">
                <port02 data="0.50200003"/>
                <port03 data="0.37450001"/>
                <port04 data="0.250375"/>
                <port05 data="0.1"/>
              </ladspacontrols>
              <key>
                <attribute name="file" value="caps"/>
                <attribute name="plugin" value="Plate2x2"/>
              </key>
            </effect>
          </fxchain>
        </instrumenttrack>
        <pattern pos="1536" type="1" steps="16" name="Organic" muted="0">
          <note pos="0" pan="0" vol="100" len="24" key="57"/>
          <note pos="24" pan="0" vol="55" len="24" key="52"/>
          <note pos="48" pan="0" vol="100" len="12" key="57"/>
          <note pos="72" pan="0" vol="100" len="24" key="60"/>
          <note pos="120" pan="0" vol="100" len="24" key="59"/>
          <note pos="168" pan="0" vol="100" len="24" key="55"/>
          <note pos="192" pan="0" vol="100" len="24" key="57"/>
          <note pos="216" pan="0" vol="53" len="24" key="52"/>
          <note pos="240" pan="0" vol="100" len="12" key="57"/>
          <note pos="264" pan="0" vol="100" len="24" key="60"/>
          <note pos="312" pan="0" vol="100" len="24" key="59"/>
          <note pos="360" pan="0" vol="100" len="24" key="55"/>
          <note pos="384" pan="0" vol="100" len="24" key="57"/>
          <note pos="408" pan="0" vol="53" len="24" key="52"/>
          <note pos="432" pan="0" vol="100" len="12" key="57"/>
          <note pos="456" pan="0" vol="100" len="24" key="60"/>
          <note pos="504" pan="0" vol="100" len="24" key="59"/>
          <note pos="552" pan="0" vol="100" len="24" key="55"/>
          <note pos="576" pan="0" vol="100" len="24" key="57"/>
          <note pos="600" pan="0" vol="53" len="24" key="52"/>
          <note pos="624" pan="0" vol="100" len="24" key="57"/>
          <note pos="648" pan="0" vol="100" len="48" key="62"/>
          <note pos="696" pan="0" vol="100" len="48" key="60"/>
          <note pos="744" pan="0" vol="100" len="24" key="59"/>
        </pattern>
        <pattern pos="16896" type="1" steps="16" name="" muted="0">
          <note pos="0" pan="0" vol="100" len="24" key="57"/>
        </pattern>
        <pattern pos="2304" type="1" steps="16" name="" muted="0">
          <note pos="0" pan="0" vol="100" len="24" key="57"/>
          <note pos="24" pan="0" vol="55" len="24" key="52"/>
          <note pos="48" pan="0" vol="100" len="12" key="57"/>
          <note pos="72" pan="0" vol="100" len="24" key="60"/>
          <note pos="120" pan="0" vol="100" len="24" key="59"/>
          <note pos="168" pan="0" vol="100" len="24" key="55"/>
          <note pos="192" pan="0" vol="100" len="24" key="57"/>
          <note pos="216" pan="0" vol="53" len="24" key="52"/>
          <note pos="240" pan="0" vol="100" len="12" key="57"/>
          <note pos="264" pan="0" vol="100" len="24" key="60"/>
          <note pos="312" pan="0" vol="100" len="24" key="59"/>
          <note pos="360" pan="0" vol="100" len="24" key="55"/>
          <note pos="384" pan="0" vol="100" len="24" key="57"/>
          <note pos="408" pan="0" vol="53" len="24" key="52"/>
          <note pos="432" pan="0" vol="100" len="12" key="57"/>
          <note pos="456" pan="0" vol="100" len="24" key="60"/>
          <note pos="504" pan="0" vol="100" len="24" key="59"/>
          <note pos="552" pan="0" vol="100" len="24" key="55"/>
          <note pos="576" pan="0" vol="100" len="24" key="57"/>
          <note pos="600" pan="0" vol="53" len="24" key="52"/>
          <note pos="624" pan="0" vol="100" len="24" key="57"/>
          <note pos="648" pan="0" vol="100" len="48" key="62"/>
          <note pos="696" pan="0" vol="100" len="48" key="60"/>
          <note pos="744" pan="0" vol="100" len="24" key="59"/>
        </pattern>
        <pattern pos="3072" type="1" steps="16" name="" muted="0">
          <note pos="0" pan="0" vol="100" len="24" key="57"/>
          <note pos="24" pan="0" vol="55" len="24" key="52"/>
          <note pos="48" pan="0" vol="100" len="12" key="57"/>
          <note pos="72" pan="0" vol="100" len="24" key="60"/>
          <note pos="120" pan="0" vol="100" len="24" key="59"/>
          <note pos="168" pan="0" vol="100" len="24" key="55"/>
          <note pos="192" pan="0" vol="100" len="24" key="57"/>
          <note pos="216" pan="0" vol="53" len="24" key="52"/>
          <note pos="240" pan="0" vol="100" len="12" key="57"/>
          <note pos="264" pan="0" vol="100" len="24" key="60"/>
          <note pos="312" pan="0" vol="100" len="24" key="59"/>
          <note pos="360" pan="0" vol="100" len="24" key="55"/>
          <note pos="384" pan="0" vol="100" len="24" key="57"/>
          <note pos="408" pan="0" vol="53" len="24" key="52"/>
          <note pos="432" pan="0" vol="100" len="12" key="57"/>
          <note pos="456" pan="0" vol="100" len="24" key="60"/>
          <note pos="504" pan="0" vol="100" len="24" key="59"/>
          <note pos="552" pan="0" vol="100" len="24" key="55"/>
          <note pos="576" pan="0" vol="100" len="24" key="57"/>
          <note pos="600" pan="0" vol="53" len="24" key="52"/>
          <note pos="624" pan="0" vol="100" len="24" key="57"/>
          <note pos="648" pan="0" vol="100" len="48" key="62"/>
          <note pos="696" pan="0" vol="100" len="48" key="60"/>
          <note pos="744" pan="0" vol="100" len="24" key="59"/>
        </pattern>
        <pattern pos="3840" type="1" steps="16" name="" muted="0">
          <note pos="0" pan="0" vol="100" len="24" key="57"/>
          <note pos="24" pan="0" vol="55" len="24" key="52"/>
          <note pos="48" pan="0" vol="100" len="12" key="57"/>
          <note pos="72" pan="0" vol="100" len="24" key="60"/>
          <note pos="120" pan="0" vol="100" len="24" key="59"/>
          <note pos="168" pan="0" vol="100" len="24" key="55"/>
          <note pos="192" pan="0" vol="100" len="24" key="57"/>
          <note pos="216" pan="0" vol="53" len="24" key="52"/>
          <note pos="240" pan="0" vol="100" len="12" key="57"/>
          <note pos="264" pan="0" vol="100" len="24" key="60"/>
          <note pos="312" pan="0" vol="100" len="24" key="59"/>
          <note pos="360" pan="0" vol="100" len="24" key="55"/>
          <note pos="384" pan="0" vol="100" len="24" key="57"/>
          <note pos="408" pan="0" vol="53" len="24" key="52"/>
          <note pos="432" pan="0" vol="100" len="12" key="57"/>
          <note pos="456" pan="0" vol="100" len="24" key="60"/>
          <note pos="504" pan="0" vol="100" len="24" key="59"/>
          <note pos="552" pan="0" vol="100" len="24" key="55"/>
          <note pos="576" pan="0" vol="100" len="24" key="57"/>
          <note pos="600" pan="0" vol="53" len="24" key="52"/>
          <note pos="624" pan="0" vol="100" len="24" key="57"/>
          <note pos="648" pan="0" vol="100" len="48" key="62"/>
          <note pos="696" pan="0" vol="100" len="48" key="60"/>
          <note pos="744" pan="0" vol="100" len="24" key="59"/>
        </pattern>
        <pattern pos="4608" type="1" steps="16" name="" muted="0">
          <note pos="0" pan="0" vol="100" len="24" key="57"/>
          <note pos="24" pan="0" vol="55" len="24" key="52"/>
          <note pos="48" pan="0" vol="100" len="12" key="57"/>
          <note pos="72" pan="0" vol="100" len="24" key="60"/>
          <note pos="120" pan="0" vol="100" len="24" key="59"/>
          <note pos="168" pan="0" vol="100" len="24" key="55"/>
          <note pos="192" pan="0" vol="100" len="24" key="57"/>
          <note pos="216" pan="0" vol="53" len="24" key="52"/>
          <note pos="240" pan="0" vol="100" len="12" key="57"/>
          <note pos="264" pan="0" vol="100" len="24" key="60"/>
          <note pos="312" pan="0" vol="100" len="24" key="59"/>
          <note pos="360" pan="0" vol="100" len="24" key="55"/>
          <note pos="384" pan="0" vol="100" len="24" key="57"/>
          <note pos="408" pan="0" vol="53" len="24" key="52"/>
          <note pos="432" pan="0" vol="100" len="12" key="57"/>
          <note pos="456" pan="0" vol="100" len="24" key="60"/>
          <note pos="504" pan="0" vol="100" len="24" key="59"/>
          <note pos="552" pan="0" vol="100" len="24" key="55"/>
          <note pos="576" pan="0" vol="100" len="24" key="57"/>
          <note pos="600" pan="0" vol="53" len="24" key="52"/>
          <note pos="624" pan="0" vol="100" len="24" key="57"/>
          <note pos="648" pan="0" vol="100" len="48" key="62"/>
          <note pos="696" pan="0" vol="100" len="48" key="60"/>
          <note pos="744" pan="0" vol="100" len="24" key="59"/>
        </pattern>
        <pattern pos="5376" type="1" steps="16" name="" muted="0">
          <note pos="0" pan="0" vol="100" len="24" key="57"/>
          <note pos="24" pan="0" vol="55" len="24" key="52"/>
          <note pos="48" pan="0" vol="100" len="12" key="57"/>
          <note pos="72" pan="0" vol="100" len="24" key="60"/>
          <note pos="120" pan="0" vol="100" len="24" key="59"/>
          <note pos="168" pan="0" vol="100" len="24" key="55"/>
          <note pos="192" pan="0" vol="100" len="24" key="57"/>
          <note pos="216" pan="0" vol="53" len="24" key="52"/>
          <note pos="240" pan="0" vol="100" len="12" key="57"/>
          <note pos="264" pan="0" vol="100" len="24" key="60"/>
          <note pos="312" pan="0" vol="100" len="24" key="59"/>
          <note pos="360" pan="0" vol="100" len="24" key="55"/>
          <note pos="384" pan="0" vol="100" len="24" key="57"/>
          <note pos="408" pan="0" vol="53" len="24" key="52"/>
          <note pos="432" pan="0" vol="100" len="12" key="57"/>
          <note pos="456" pan="0" vol="100" len="24" key="60"/>
          <note pos="504" pan="0" vol="100" len="24" key="59"/>
          <note pos="552" pan="0" vol="100" len="24" key="55"/>
          <note pos="576" pan="0" vol="100" len="24" key="57"/>
          <note pos="600" pan="0" vol="53" len="24" key="52"/>
          <note pos="624" pan="0" vol="100" len="24" key="57"/>
          <note pos="648" pan="0" vol="100" len="48" key="62"/>
          <note pos="696" pan="0" vol="100" len="48" key="60"/>
          <note pos="744" pan="0" vol="100" len="24" key="59"/>
        </pattern>
        <pattern pos="7680" type="1" steps="16" name="" muted="0">
          <note pos="0" pan="0" vol="100" len="24" key="57"/>
          <note pos="24" pan="0" vol="55" len="24" key="52"/>
          <note pos="48" pan="0" vol="100" len="12" key="57"/>
          <note pos="72" pan="0" vol="100" len="24" key="60"/>
          <note pos="120" pan="0" vol="100" len="24" key="59"/>
          <note pos="168" pan="0" vol="100" len="24" key="55"/>
          <note pos="192" pan="0" vol="100" len="24" key="57"/>
          <note pos="216" pan="0" vol="53" len="24" key="52"/>
          <note pos="240" pan="0" vol="100" len="12" key="57"/>
          <note pos="264" pan="0" vol="100" len="24" key="60"/>
          <note pos="312" pan="0" vol="100" len="24" key="59"/>
          <note pos="360" pan="0" vol="100" len="24" key="55"/>
          <note pos="384" pan="0" vol="100" len="24" key="57"/>
          <note pos="408" pan="0" vol="53" len="24" key="52"/>
          <note pos="432" pan="0" vol="100" len="12" key="57"/>
          <note pos="456" pan="0" vol="100" len="24" key="60"/>
          <note pos="504" pan="0" vol="100" len="24" key="59"/>
          <note pos="552" pan="0" vol="100" len="24" key="55"/>
          <note pos="576" pan="0" vol="100" len="24" key="57"/>
          <note pos="600" pan="0" vol="53" len="24" key="52"/>
          <note pos="624" pan="0" vol="100" len="24" key="57"/>
          <note pos="648" pan="0" vol="100" len="48" key="62"/>
          <note pos="696" pan="0" vol="100" len="48" key="60"/>
          <note pos="744" pan="0" vol="100" len="24" key="59"/>
        </pattern>
        <pattern pos="8448" type="1" steps="16" name="" muted="0">
          <note pos="0" pan="0" vol="100" len="24" key="57"/>
          <note pos="24" pan="0" vol="55" len="24" key="52"/>
          <note pos="48" pan="0" vol="100" len="12" key="57"/>
          <note pos="72" pan="0" vol="100" len="24" key="60"/>
          <note pos="120" pan="0" vol="100" len="24" key="59"/>
          <note pos="168" pan="0" vol="100" len="24" key="55"/>
          <note pos="192" pan="0" vol="100" len="24" key="57"/>
          <note pos="216" pan="0" vol="53" len="24" key="52"/>
          <note pos="240" pan="0" vol="100" len="12" key="57"/>
          <note pos="264" pan="0" vol="100" len="24" key="60"/>
          <note pos="312" pan="0" vol="100" len="24" key="59"/>
          <note pos="360" pan="0" vol="100" len="24" key="55"/>
          <note pos="384" pan="0" vol="100" len="24" key="57"/>
          <note pos="408" pan="0" vol="53" len="24" key="52"/>
          <note pos="432" pan="0" vol="100" len="12" key="57"/>
          <note pos="456" pan="0" vol="100" len="24" key="60"/>
          <note pos="504" pan="0" vol="100" len="24" key="59"/>
          <note pos="552" pan="0" vol="100" len="24" key="55"/>
          <note pos="576" pan="0" vol="100" len="24" key="57"/>
          <note pos="600" pan="0" vol="53" len="24" key="52"/>
          <note pos="624" pan="0" vol="100" len="24" key="57"/>
          <note pos="648" pan="0" vol="100" len="48" key="62"/>
          <note pos="696" pan="0" vol="100" len="48" key="60"/>
          <note pos="744" pan="0" vol="100" len="24" key="59"/>
        </pattern>
        <pattern pos="9216" type="1" steps="16" name="" muted="0">
          <note pos="0" pan="0" vol="100" len="24" key="57"/>
          <note pos="24" pan="0" vol="55" len="24" key="52"/>
          <note pos="48" pan="0" vol="100" len="12" key="57"/>
          <note pos="72" pan="0" vol="100" len="24" key="60"/>
          <note pos="120" pan="0" vol="100" len="24" key="59"/>
          <note pos="168" pan="0" vol="100" len="24" key="55"/>
          <note pos="192" pan="0" vol="100" len="24" key="57"/>
          <note pos="216" pan="0" vol="53" len="24" key="52"/>
          <note pos="240" pan="0" vol="100" len="12" key="57"/>
          <note pos="264" pan="0" vol="100" len="24" key="60"/>
          <note pos="312" pan="0" vol="100" len="24" key="59"/>
          <note pos="360" pan="0" vol="100" len="24" key="55"/>
          <note pos="384" pan="0" vol="100" len="24" key="57"/>
          <note pos="408" pan="0" vol="53" len="24" key="52"/>
          <note pos="432" pan="0" vol="100" len="12" key="57"/>
          <note pos="456" pan="0" vol="100" len="24" key="60"/>
          <note pos="504" pan="0" vol="100" len="24" key="59"/>
          <note pos="552" pan="0" vol="100" len="24" key="55"/>
          <note pos="576" pan="0" vol="100" len="24" key="57"/>
          <note pos="600" pan="0" vol="53" len="24" key="52"/>
          <note pos="624" pan="0" vol="100" len="24" key="57"/>
          <note pos="648" pan="0" vol="100" len="48" key="62"/>
          <note pos="696" pan="0" vol="100" len="48" key="60"/>
          <note pos="744" pan="0" vol="100" len="24" key="59"/>
        </pattern>
        <pattern pos="9984" type="1" steps="16" name="" muted="0">
          <note pos="0" pan="0" vol="100" len="24" key="57"/>
          <note pos="24" pan="0" vol="55" len="24" key="52"/>
          <note pos="48" pan="0" vol="100" len="12" key="57"/>
          <note pos="72" pan="0" vol="100" len="24" key="60"/>
          <note pos="120" pan="0" vol="100" len="24" key="59"/>
          <note pos="168" pan="0" vol="100" len="24" key="55"/>
          <note pos="192" pan="0" vol="100" len="24" key="57"/>
          <note pos="216" pan="0" vol="53" len="24" key="52"/>
          <note pos="240" pan="0" vol="100" len="12" key="57"/>
          <note pos="264" pan="0" vol="100" len="24" key="60"/>
          <note pos="312" pan="0" vol="100" len="24" key="59"/>
          <note pos="360" pan="0" vol="100" len="24" key="55"/>
          <note pos="384" pan="0" vol="100" len="24" key="57"/>
          <note pos="408" pan="0" vol="53" len="24" key="52"/>
          <note pos="432" pan="0" vol="100" len="12" key="57"/>
          <note pos="456" pan="0" vol="100" len="24" key="60"/>
          <note pos="504" pan="0" vol="100" len="24" key="59"/>
          <note pos="552" pan="0" vol="100" len="24" key="55"/>
          <note pos="576" pan="0" vol="100" len="24" key="57"/>
          <note pos="600" pan="0" vol="53" len="24" key="52"/>
          <note pos="624" pan="0" vol="100" len="24" key="57"/>
          <note pos="648" pan="0" vol="100" len="48" key="62"/>
          <note pos="696" pan="0" vol="100" len="48" key="60"/>
          <note pos="744" pan="0" vol="100" len="24" key="59"/>
        </pattern>
        <pattern pos="10752" type="1" steps="16" name="" muted="0">
          <note pos="0" pan="0" vol="100" len="24" key="57"/>
          <note pos="24" pan="0" vol="55" len="24" key="52"/>
          <note pos="48" pan="0" vol="100" len="12" key="57"/>
          <note pos="72" pan="0" vol="100" len="24" key="60"/>
          <note pos="120" pan="0" vol="100" len="24" key="59"/>
          <note pos="168" pan="0" vol="100" len="24" key="55"/>
          <note pos="192" pan="0" vol="100" len="24" key="57"/>
          <note pos="216" pan="0" vol="53" len="24" key="52"/>
          <note pos="240" pan="0" vol="100" len="12" key="57"/>
          <note pos="264" pan="0" vol="100" len="24" key="60"/>
          <note pos="312" pan="0" vol="100" len="24" key="59"/>
          <note pos="360" pan="0" vol="100" len="24" key="55"/>
          <note pos="384" pan="0" vol="100" len="24" key="57"/>
          <note pos="408" pan="0" vol="53" len="24" key="52"/>
          <note pos="432" pan="0" vol="100" len="12" key="57"/>
          <note pos="456" pan="0" vol="100" len="24" key="60"/>
          <note pos="504" pan="0" vol="100" len="24" key="59"/>
          <note pos="552" pan="0" vol="100" len="24" key="55"/>
          <note pos="576" pan="0" vol="100" len="24" key="57"/>
          <note pos="600" pan="0" vol="53" len="24" key="52"/>
          <note pos="624" pan="0" vol="100" len="24" key="57"/>
          <note pos="648" pan="0" vol="100" len="48" key="62"/>
          <note pos="696" pan="0" vol="100" len="48" key="60"/>
          <note pos="744" pan="0" vol="100" len="24" key="59"/>
        </pattern>
        <pattern pos="11520" type="1" steps="16" name="" muted="0">
          <note pos="0" pan="0" vol="100" len="24" key="57"/>
          <note pos="24" pan="0" vol="55" len="24" key="52"/>
          <note pos="48" pan="0" vol="100" len="12" key="57"/>
          <note pos="72" pan="0" vol="100" len="24" key="60"/>
          <note pos="120" pan="0" vol="100" len="24" key="59"/>
          <note pos="168" pan="0" vol="100" len="24" key="55"/>
          <note pos="192" pan="0" vol="100" len="24" key="57"/>
          <note pos="216" pan="0" vol="53" len="24" key="52"/>
          <note pos="240" pan="0" vol="100" len="12" key="57"/>
          <note pos="264" pan="0" vol="100" len="24" key="60"/>
          <note pos="312" pan="0" vol="100" len="24" key="59"/>
          <note pos="360" pan="0" vol="100" len="24" key="55"/>
          <note pos="384" pan="0" vol="100" len="24" key="57"/>
          <note pos="408" pan="0" vol="53" len="24" key="52"/>
          <note pos="432" pan="0" vol="100" len="12" key="57"/>
          <note pos="456" pan="0" vol="100" len="24" key="60"/>
          <note pos="504" pan="0" vol="100" len="24" key="59"/>
          <note pos="552" pan="0" vol="100" len="24" key="55"/>
          <note pos="576" pan="0" vol="100" len="24" key="57"/>
          <note pos="600" pan="0" vol="53" len="24" key="52"/>
          <note pos="624" pan="0" vol="100" len="24" key="57"/>
          <note pos="648" pan="0" vol="100" len="48" key="62"/>
          <note pos="696" pan="0" vol="100" len="48" key="60"/>
          <note pos="744" pan="0" vol="100" len="24" key="59"/>
        </pattern>
        <pattern pos="12288" type="1" steps="16" name="" muted="0">
          <note pos="0" pan="0" vol="100" len="24" key="57"/>
          <note pos="24" pan="0" vol="55" len="24" key="52"/>
          <note pos="48" pan="0" vol="100" len="12" key="57"/>
          <note pos="72" pan="0" vol="100" len="24" key="60"/>
          <note pos="120" pan="0" vol="100" len="24" key="59"/>
          <note pos="168" pan="0" vol="100" len="24" key="55"/>
          <note pos="192" pan="0" vol="100" len="24" key="57"/>
          <note pos="216" pan="0" vol="53" len="24" key="52"/>
          <note pos="240" pan="0" vol="100" len="12" key="57"/>
          <note pos="264" pan="0" vol="100" len="24" key="60"/>
          <note pos="312" pan="0" vol="100" len="24" key="59"/>
          <note pos="360" pan="0" vol="100" len="24" key="55"/>
          <note pos="384" pan="0" vol="100" len="24" key="57"/>
          <note pos="408" pan="0" vol="53" len="24" key="52"/>
          <note pos="432" pan="0" vol="100" len="12" key="57"/>
          <note pos="456" pan="0" vol="100" len="24" key="60"/>
          <note pos="504" pan="0" vol="100" len="24" key="59"/>
          <note pos="552" pan="0" vol="100" len="24" key="55"/>
          <note pos="576" pan="0" vol="100" len="24" key="57"/>
          <note pos="600" pan="0" vol="53" len="24" key="52"/>
          <note pos="624" pan="0" vol="100" len="24" key="57"/>
          <note pos="648" pan="0" vol="100" len="48" key="62"/>
          <note pos="696" pan="0" vol="100" len="48" key="60"/>
          <note pos="744" pan="0" vol="100" len="24" key="59"/>
        </pattern>
        <pattern pos="13056" type="1" steps="16" name="" muted="0">
          <note pos="0" pan="0" vol="100" len="24" key="57"/>
          <note pos="24" pan="0" vol="55" len="24" key="52"/>
          <note pos="48" pan="0" vol="100" len="12" key="57"/>
          <note pos="72" pan="0" vol="100" len="24" key="60"/>
          <note pos="120" pan="0" vol="100" len="24" key="59"/>
          <note pos="168" pan="0" vol="100" len="24" key="55"/>
          <note pos="192" pan="0" vol="100" len="24" key="57"/>
          <note pos="216" pan="0" vol="53" len="24" key="52"/>
          <note pos="240" pan="0" vol="100" len="12" key="57"/>
          <note pos="264" pan="0" vol="100" len="24" key="60"/>
          <note pos="312" pan="0" vol="100" len="24" key="59"/>
          <note pos="360" pan="0" vol="100" len="24" key="55"/>
          <note pos="384" pan="0" vol="100" len="24" key="57"/>
          <note pos="408" pan="0" vol="53" len="24" key="52"/>
          <note pos="432" pan="0" vol="100" len="12" key="57"/>
          <note pos="456" pan="0" vol="100" len="24" key="60"/>
          <note pos="504" pan="0" vol="100" len="24" key="59"/>
          <note pos="552" pan="0" vol="100" len="24" key="55"/>
          <note pos="576" pan="0" vol="100" len="24" key="57"/>
          <note pos="600" pan="0" vol="53" len="24" key="52"/>
          <note pos="624" pan="0" vol="100" len="24" key="57"/>
          <note pos="648" pan="0" vol="100" len="48" key="62"/>
          <note pos="696" pan="0" vol="100" len="48" key="60"/>
          <note pos="744" pan="0" vol="100" len="24" key="59"/>
        </pattern>
        <pattern pos="13824" type="1" steps="16" name="" muted="0">
          <note pos="0" pan="0" vol="100" len="24" key="57"/>
          <note pos="24" pan="0" vol="55" len="24" key="52"/>
          <note pos="48" pan="0" vol="100" len="12" key="57"/>
          <note pos="72" pan="0" vol="100" len="24" key="60"/>
          <note pos="120" pan="0" vol="100" len="24" key="59"/>
          <note pos="168" pan="0" vol="100" len="24" key="55"/>
          <note pos="192" pan="0" vol="100" len="24" key="57"/>
          <note pos="216" pan="0" vol="53" len="24" key="52"/>
          <note pos="240" pan="0" vol="100" len="12" key="57"/>
          <note pos="264" pan="0" vol="100" len="24" key="60"/>
          <note pos="312" pan="0" vol="100" len="24" key="59"/>
          <note pos="360" pan="0" vol="100" len="24" key="55"/>
          <note pos="384" pan="0" vol="100" len="24" key="57"/>
          <note pos="408" pan="0" vol="53" len="24" key="52"/>
          <note pos="432" pan="0" vol="100" len="12" key="57"/>
          <note pos="456" pan="0" vol="100" len="24" key="60"/>
          <note pos="504" pan="0" vol="100" len="24" key="59"/>
          <note pos="552" pan="0" vol="100" len="24" key="55"/>
          <note pos="576" pan="0" vol="100" len="24" key="57"/>
          <note pos="600" pan="0" vol="53" len="24" key="52"/>
          <note pos="624" pan="0" vol="100" len="24" key="57"/>
          <note pos="648" pan="0" vol="100" len="48" key="62"/>
          <note pos="696" pan="0" vol="100" len="48" key="60"/>
          <note pos="744" pan="0" vol="100" len="24" key="59"/>
        </pattern>
        <pattern pos="14592" type="1" steps="16" name="" muted="0">
          <note pos="0" pan="0" vol="100" len="24" key="57"/>
          <note pos="24" pan="0" vol="55" len="24" key="52"/>
          <note pos="48" pan="0" vol="100" len="12" key="57"/>
          <note pos="72" pan="0" vol="100" len="24" key="60"/>
          <note pos="120" pan="0" vol="100" len="24" key="59"/>
          <note pos="168" pan="0" vol="100" len="24" key="55"/>
          <note pos="192" pan="0" vol="100" len="24" key="57"/>
          <note pos="216" pan="0" vol="53" len="24" key="52"/>
          <note pos="240" pan="0" vol="100" len="12" key="57"/>
          <note pos="264" pan="0" vol="100" len="24" key="60"/>
          <note pos="312" pan="0" vol="100" len="24" key="59"/>
          <note pos="360" pan="0" vol="100" len="24" key="55"/>
          <note pos="384" pan="0" vol="100" len="24" key="57"/>
          <note pos="408" pan="0" vol="53" len="24" key="52"/>
          <note pos="432" pan="0" vol="100" len="12" key="57"/>
          <note pos="456" pan="0" vol="100" len="24" key="60"/>
          <note pos="504" pan="0" vol="100" len="24" key="59"/>
          <note pos="552" pan="0" vol="100" len="24" key="55"/>
          <note pos="576" pan="0" vol="100" len="24" key="57"/>
          <note pos="600" pan="0" vol="53" len="24" key="52"/>
          <note pos="624" pan="0" vol="100" len="24" key="57"/>
          <note pos="648" pan="0" vol="100" len="48" key="62"/>
          <note pos="696" pan="0" vol="100" len="48" key="60"/>
          <note pos="744" pan="0" vol="100" len="24" key="59"/>
        </pattern>
        <pattern pos="15360" type="1" steps="16" name="" muted="0">
          <note pos="0" pan="0" vol="100" len="24" key="57"/>
          <note pos="24" pan="0" vol="55" len="24" key="52"/>
          <note pos="48" pan="0" vol="100" len="12" key="57"/>
          <note pos="72" pan="0" vol="100" len="24" key="60"/>
          <note pos="120" pan="0" vol="100" len="24" key="59"/>
          <note pos="168" pan="0" vol="100" len="24" key="55"/>
          <note pos="192" pan="0" vol="100" len="24" key="57"/>
          <note pos="216" pan="0" vol="53" len="24" key="52"/>
          <note pos="240" pan="0" vol="100" len="12" key="57"/>
          <note pos="264" pan="0" vol="100" len="24" key="60"/>
          <note pos="312" pan="0" vol="100" len="24" key="59"/>
          <note pos="360" pan="0" vol="100" len="24" key="55"/>
          <note pos="384" pan="0" vol="100" len="24" key="57"/>
          <note pos="408" pan="0" vol="53" len="24" key="52"/>
          <note pos="432" pan="0" vol="100" len="12" key="57"/>
          <note pos="456" pan="0" vol="100" len="24" key="60"/>
          <note pos="504" pan="0" vol="100" len="24" key="59"/>
          <note pos="552" pan="0" vol="100" len="24" key="55"/>
          <note pos="576" pan="0" vol="100" len="24" key="57"/>
          <note pos="600" pan="0" vol="53" len="24" key="52"/>
          <note pos="624" pan="0" vol="100" len="24" key="57"/>
          <note pos="648" pan="0" vol="100" len="48" key="62"/>
          <note pos="696" pan="0" vol="100" len="48" key="60"/>
          <note pos="744" pan="0" vol="100" len="24" key="59"/>
        </pattern>
        <pattern pos="16128" type="1" steps="16" name="" muted="0">
          <note pos="0" pan="0" vol="100" len="24" key="57"/>
          <note pos="24" pan="0" vol="55" len="24" key="52"/>
          <note pos="48" pan="0" vol="100" len="12" key="57"/>
          <note pos="72" pan="0" vol="100" len="24" key="60"/>
          <note pos="120" pan="0" vol="100" len="24" key="59"/>
          <note pos="168" pan="0" vol="100" len="24" key="55"/>
          <note pos="192" pan="0" vol="100" len="24" key="57"/>
          <note pos="216" pan="0" vol="53" len="24" key="52"/>
          <note pos="240" pan="0" vol="100" len="12" key="57"/>
          <note pos="264" pan="0" vol="100" len="24" key="60"/>
          <note pos="312" pan="0" vol="100" len="24" key="59"/>
          <note pos="360" pan="0" vol="100" len="24" key="55"/>
          <note pos="384" pan="0" vol="100" len="24" key="57"/>
          <note pos="408" pan="0" vol="53" len="24" key="52"/>
          <note pos="432" pan="0" vol="100" len="12" key="57"/>
          <note pos="456" pan="0" vol="100" len="24" key="60"/>
          <note pos="504" pan="0" vol="100" len="24" key="59"/>
          <note pos="552" pan="0" vol="100" len="24" key="55"/>
          <note pos="576" pan="0" vol="100" len="24" key="57"/>
          <note pos="600" pan="0" vol="53" len="24" key="52"/>
          <note pos="624" pan="0" vol="100" len="24" key="57"/>
          <note pos="648" pan="0" vol="100" len="48" key="62"/>
          <note pos="696" pan="0" vol="100" len="48" key="60"/>
          <note pos="744" pan="0" vol="100" len="24" key="59"/>
        </pattern>
        <pattern pos="6144" type="1" steps="16" name="" muted="0">
          <note pos="0" pan="0" vol="100" len="24" key="57"/>
          <note pos="24" pan="0" vol="55" len="24" key="52"/>
          <note pos="48" pan="0" vol="100" len="12" key="57"/>
          <note pos="72" pan="0" vol="100" len="24" key="60"/>
          <note pos="120" pan="0" vol="100" len="24" key="59"/>
          <note pos="168" pan="0" vol="100" len="24" key="55"/>
          <note pos="192" pan="0" vol="100" len="24" key="57"/>
          <note pos="216" pan="0" vol="53" len="24" key="52"/>
          <note pos="240" pan="0" vol="100" len="12" key="57"/>
          <note pos="264" pan="0" vol="100" len="24" key="60"/>
          <note pos="312" pan="0" vol="100" len="24" key="59"/>
          <note pos="360" pan="0" vol="100" len="24" key="55"/>
          <note pos="384" pan="0" vol="100" len="24" key="57"/>
          <note pos="408" pan="0" vol="53" len="24" key="52"/>
          <note pos="432" pan="0" vol="100" len="12" key="57"/>
          <note pos="456" pan="0" vol="100" len="24" key="60"/>
          <note pos="504" pan="0" vol="100" len="24" key="59"/>
          <note pos="552" pan="0" vol="100" len="24" key="55"/>
          <note pos="576" pan="0" vol="100" len="24" key="57"/>
          <note pos="600" pan="0" vol="53" len="24" key="52"/>
          <note pos="624" pan="0" vol="100" len="24" key="57"/>
          <note pos="648" pan="0" vol="100" len="48" key="62"/>
          <note pos="696" pan="0" vol="100" len="48" key="60"/>
          <note pos="744" pan="0" vol="100" len="24" key="59"/>
        </pattern>
        <pattern pos="6912" type="1" steps="16" name="" muted="0">
          <note pos="0" pan="0" vol="100" len="24" key="57"/>
          <note pos="24" pan="0" vol="55" len="24" key="52"/>
          <note pos="48" pan="0" vol="100" len="12" key="57"/>
          <note pos="72" pan="0" vol="100" len="24" key="60"/>
          <note pos="120" pan="0" vol="100" len="24" key="59"/>
          <note pos="168" pan="0" vol="100" len="24" key="55"/>
          <note pos="192" pan="0" vol="100" len="24" key="57"/>
          <note pos="216" pan="0" vol="53" len="24" key="52"/>
          <note pos="240" pan="0" vol="100" len="12" key="57"/>
          <note pos="264" pan="0" vol="100" len="24" key="60"/>
          <note pos="312" pan="0" vol="100" len="24" key="59"/>
          <note pos="360" pan="0" vol="100" len="24" key="55"/>
          <note pos="384" pan="0" vol="100" len="24" key="57"/>
          <note pos="408" pan="0" vol="53" len="24" key="52"/>
          <note pos="432" pan="0" vol="100" len="12" key="57"/>
          <note pos="456" pan="0" vol="100" len="24" key="60"/>
          <note pos="504" pan="0" vol="100" len="24" key="59"/>
          <note pos="552" pan="0" vol="100" len="24" key="55"/>
          <note pos="576" pan="0" vol="100" len="24" key="57"/>
          <note pos="600" pan="0" vol="53" len="24" key="52"/>
          <note pos="624" pan="0" vol="100" len="24" key="57"/>
          <note pos="648" pan="0" vol="100" len="48" key="62"/>
          <note pos="696" pan="0" vol="100" len="48" key="60"/>
          <note pos="744" pan="0" vol="100" len="24" key="59"/>
        </pattern>
      </track>
      <track type="0" solo="0" name="BitInvader" muted="0">
        <instrumenttrack usemasterpitch="1" pan="0" vol="18.800001" basenote="57" pitchrange="1" fxch="4" pitch="0">
          <instrument name="bitinvader">
            <bitinvader normalize="0" sampleShape="AACAvwAAfL8AAHi/AAB0vwAAcL8AAGy/AABovwAAZL8AAGC/AABcvwAAWL8AAFS/AABQvwAATL8AAEi/AABEvwAAQL8AADy/AAA4vwAANL8AADC/AAAsvwAAKL8AACS/AAAgvwAAHL8AABi/AAAUvwAAEL8AAAy/AAAIvwAABL8AAAC/AAD4vgAA8L4AAOi+AADgvgAA2L4AANC+AADIvgAAwL4AALi+AACwvgAAqL4AAKC+AACYvgAAkL4AAIi+AACAvgAAcL4AAGC+AABQvgAAQL4AADC+AAAgvgAAEL4AAAC+AADgvQAAwL0AAKC9AACAvQAAQL0AAAC9AACAvAAAAAAAAIA8AAAAPQAAQD0AAIA9AACgPQAAwD0AAOA9AAAAPgAAED4AACA+AAAwPgAAQD4AAFA+AABgPgAAcD4AAIA+AACIPgAAkD4AAJg+AACgPgAAqD4AALA+AAC4PgAAwD4AAMg+AADQPgAA2D4AAOA+AADoPgAA8D4AAPg+AAAAPwAABD8AAAg/AAAMPwAAED8AABQ/AAAYPwAAHD8AACA/AAAkPwAAKD8AACw/AAAwPwAAND8AADg/AAA8PwAAQD8AAEQ/AABIPwAATD8AAFA/AABUPwAAWD8AAFw/AABgPwAAZD8AAGg/AABsPwAAcD8AAHQ/AAB4PwAAfD8=" sampleLength="128" interpolation="0" version="0.1"/>
          </instrument>
          <eldata ftype="0" fwet="0" fcut="14000" fres="0.5">
            <elvol lspd_syncmode="0" x100="0" lpdel="0" lamt="0" lspd="0.1" att="0" lspd_denominator="4" sustain="0.5" pdel="0" latt="0" dec="0.5" hold="0.5" lshp="0" userwavefile="" ctlenvamt="0" amt="1" lspd_numerator="4" rel="0.1"/>
            <elcut lspd_syncmode="0" x100="0" lpdel="0" lamt="0" lspd="0.1" att="0" lspd_denominator="4" sustain="0.5" pdel="0" latt="0" dec="0.5" hold="0.5" lshp="0" userwavefile="" ctlenvamt="0" amt="0" lspd_numerator="4" rel="0.1"/>
            <elres lspd_syncmode="0" x100="0" lpdel="0" lamt="0" lspd="0.1" att="0" lspd_denominator="4" sustain="0.5" pdel="0" latt="0" dec="0.5" hold="0.5" lshp="0" userwavefile="" ctlenvamt="0" amt="0" lspd_numerator="4" rel="0.1"/>
          </eldata>
          <chordcreator chordrange="1" chord="0" chord-enabled="0"/>
          <arpeggiator arp="0" arprange="1" arpskip="0" arptime_denominator="4" arp-enabled="0" arptime="200" arpmode="0" arpmiss="0" arptime_numerator="4" arptime_syncmode="0" arpdir="0" arpcycle="0" arpgate="100"/>
          <midiport outputcontroller="0" fixedoutputvelocity="-1" inputchannel="0" outputchannel="1" outputprogram="1" readable="0" writable="0" fixedinputvelocity="-1" inputcontroller="0" basevelocity="63" fixedoutputnote="-1"/>
          <fxchain numofeffects="2" enabled="1">
            <effect gate="0" autoquit="1" on="1" autoquit_numerator="4" autoquit_syncmode="0" autoquit_denominator="4" name="stereoenhancer" wet="1">
              <stereoenhancercontrols width="100"/>
              <key/>
            </effect>
            <effect gate="0" autoquit="1" on="1" autoquit_numerator="4" autoquit_syncmode="0" autoquit_denominator="4" name="ladspaeffect" wet="1">
              <ladspacontrols ports="4">
                <port02 data="0.50200003"/>
                <port03 data="0.37450001"/>
                <port04 data="0.250375"/>
                <port05 data="0.1"/>
              </ladspacontrols>
              <key>
                <attribute name="file" value="caps"/>
                <attribute name="plugin" value="Plate2x2"/>
              </key>
            </effect>
          </fxchain>
        </instrumenttrack>
        <pattern pos="12288" type="1" steps="16" name="BitInvader" muted="0">
          <note pos="0" pan="0" vol="100" len="24" key="57"/>
          <note pos="48" pan="0" vol="100" len="12" key="57"/>
          <note pos="72" pan="0" vol="100" len="24" key="60"/>
          <note pos="120" pan="0" vol="100" len="24" key="59"/>
          <note pos="168" pan="0" vol="100" len="24" key="55"/>
          <note pos="192" pan="0" vol="100" len="24" key="57"/>
          <note pos="240" pan="0" vol="100" len="12" key="57"/>
          <note pos="264" pan="0" vol="100" len="24" key="60"/>
          <note pos="312" pan="0" vol="100" len="24" key="59"/>
          <note pos="360" pan="0" vol="100" len="24" key="55"/>
          <note pos="384" pan="0" vol="100" len="24" key="57"/>
          <note pos="432" pan="0" vol="100" len="12" key="57"/>
          <note pos="456" pan="0" vol="100" len="24" key="60"/>
          <note pos="504" pan="0" vol="100" len="24" key="59"/>
          <note pos="552" pan="0" vol="100" len="24" key="55"/>
          <note pos="576" pan="0" vol="100" len="24" key="57"/>
          <note pos="624" pan="0" vol="100" len="24" key="57"/>
          <note pos="648" pan="0" vol="100" len="48" key="62"/>
          <note pos="696" pan="0" vol="100" len="48" key="60"/>
          <note pos="744" pan="0" vol="100" len="24" key="59"/>
        </pattern>
        <pattern pos="13056" type="1" steps="16" name="BitInvader" muted="0">
          <note pos="0" pan="0" vol="100" len="24" key="57"/>
          <note pos="48" pan="0" vol="100" len="12" key="57"/>
          <note pos="72" pan="0" vol="100" len="24" key="60"/>
          <note pos="120" pan="0" vol="100" len="24" key="59"/>
          <note pos="168" pan="0" vol="100" len="24" key="55"/>
          <note pos="192" pan="0" vol="100" len="24" key="57"/>
          <note pos="240" pan="0" vol="100" len="12" key="57"/>
          <note pos="264" pan="0" vol="100" len="24" key="60"/>
          <note pos="312" pan="0" vol="100" len="24" key="59"/>
          <note pos="360" pan="0" vol="100" len="24" key="55"/>
          <note pos="384" pan="0" vol="100" len="24" key="57"/>
          <note pos="432" pan="0" vol="100" len="12" key="57"/>
          <note pos="456" pan="0" vol="100" len="24" key="60"/>
          <note pos="504" pan="0" vol="100" len="24" key="59"/>
          <note pos="552" pan="0" vol="100" len="24" key="55"/>
          <note pos="576" pan="0" vol="100" len="24" key="57"/>
          <note pos="624" pan="0" vol="100" len="24" key="57"/>
          <note pos="648" pan="0" vol="100" len="48" key="62"/>
          <note pos="696" pan="0" vol="100" len="48" key="60"/>
          <note pos="744" pan="0" vol="100" len="24" key="59"/>
        </pattern>
        <pattern pos="13824" type="1" steps="16" name="BitInvader" muted="0">
          <note pos="0" pan="0" vol="100" len="24" key="57"/>
          <note pos="48" pan="0" vol="100" len="12" key="57"/>
          <note pos="72" pan="0" vol="100" len="24" key="60"/>
          <note pos="120" pan="0" vol="100" len="24" key="59"/>
          <note pos="168" pan="0" vol="100" len="24" key="55"/>
          <note pos="192" pan="0" vol="100" len="24" key="57"/>
          <note pos="240" pan="0" vol="100" len="12" key="57"/>
          <note pos="264" pan="0" vol="100" len="24" key="60"/>
          <note pos="312" pan="0" vol="100" len="24" key="59"/>
          <note pos="360" pan="0" vol="100" len="24" key="55"/>
          <note pos="384" pan="0" vol="100" len="24" key="57"/>
          <note pos="432" pan="0" vol="100" len="12" key="57"/>
          <note pos="456" pan="0" vol="100" len="24" key="60"/>
          <note pos="504" pan="0" vol="100" len="24" key="59"/>
          <note pos="552" pan="0" vol="100" len="24" key="55"/>
          <note pos="576" pan="0" vol="100" len="24" key="57"/>
          <note pos="624" pan="0" vol="100" len="24" key="57"/>
          <note pos="648" pan="0" vol="100" len="48" key="62"/>
          <note pos="696" pan="0" vol="100" len="48" key="60"/>
          <note pos="744" pan="0" vol="100" len="24" key="59"/>
        </pattern>
        <pattern pos="14592" type="1" steps="16" name="BitInvader" muted="0">
          <note pos="0" pan="0" vol="100" len="24" key="57"/>
          <note pos="48" pan="0" vol="100" len="12" key="57"/>
          <note pos="72" pan="0" vol="100" len="24" key="60"/>
          <note pos="120" pan="0" vol="100" len="24" key="59"/>
          <note pos="168" pan="0" vol="100" len="24" key="55"/>
          <note pos="192" pan="0" vol="100" len="24" key="57"/>
          <note pos="240" pan="0" vol="100" len="12" key="57"/>
          <note pos="264" pan="0" vol="100" len="24" key="60"/>
          <note pos="312" pan="0" vol="100" len="24" key="59"/>
          <note pos="360" pan="0" vol="100" len="24" key="55"/>
          <note pos="384" pan="0" vol="100" len="24" key="57"/>
          <note pos="432" pan="0" vol="100" len="12" key="57"/>
          <note pos="456" pan="0" vol="100" len="24" key="60"/>
          <note pos="504" pan="0" vol="100" len="24" key="59"/>
          <note pos="552" pan="0" vol="100" len="24" key="55"/>
          <note pos="576" pan="0" vol="100" len="24" key="57"/>
          <note pos="624" pan="0" vol="100" len="24" key="57"/>
          <note pos="648" pan="0" vol="100" len="48" key="62"/>
          <note pos="696" pan="0" vol="100" len="48" key="60"/>
          <note pos="744" pan="0" vol="100" len="24" key="59"/>
        </pattern>
        <pattern pos="15360" type="1" steps="16" name="BitInvader" muted="0">
          <note pos="0" pan="0" vol="100" len="24" key="57"/>
          <note pos="48" pan="0" vol="100" len="12" key="57"/>
          <note pos="72" pan="0" vol="100" len="24" key="60"/>
          <note pos="120" pan="0" vol="100" len="24" key="59"/>
          <note pos="168" pan="0" vol="100" len="24" key="55"/>
          <note pos="192" pan="0" vol="100" len="24" key="57"/>
          <note pos="240" pan="0" vol="100" len="12" key="57"/>
          <note pos="264" pan="0" vol="100" len="24" key="60"/>
          <note pos="312" pan="0" vol="100" len="24" key="59"/>
          <note pos="360" pan="0" vol="100" len="24" key="55"/>
          <note pos="384" pan="0" vol="100" len="24" key="57"/>
          <note pos="432" pan="0" vol="100" len="12" key="57"/>
          <note pos="456" pan="0" vol="100" len="24" key="60"/>
          <note pos="504" pan="0" vol="100" len="24" key="59"/>
          <note pos="552" pan="0" vol="100" len="24" key="55"/>
          <note pos="576" pan="0" vol="100" len="24" key="57"/>
          <note pos="624" pan="0" vol="100" len="24" key="57"/>
          <note pos="648" pan="0" vol="100" len="48" key="62"/>
          <note pos="696" pan="0" vol="100" len="48" key="60"/>
          <note pos="744" pan="0" vol="100" len="24" key="59"/>
        </pattern>
        <pattern pos="16128" type="1" steps="16" name="" muted="0">
          <note pos="0" pan="0" vol="100" len="24" key="57"/>
          <note pos="48" pan="0" vol="100" len="12" key="57"/>
          <note pos="72" pan="0" vol="100" len="24" key="60"/>
          <note pos="120" pan="0" vol="100" len="24" key="59"/>
          <note pos="168" pan="0" vol="100" len="24" key="55"/>
          <note pos="192" pan="0" vol="100" len="24" key="57"/>
          <note pos="240" pan="0" vol="100" len="12" key="57"/>
          <note pos="264" pan="0" vol="100" len="24" key="60"/>
          <note pos="312" pan="0" vol="100" len="24" key="59"/>
          <note pos="360" pan="0" vol="100" len="24" key="55"/>
          <note pos="384" pan="0" vol="100" len="24" key="57"/>
          <note pos="432" pan="0" vol="100" len="12" key="57"/>
          <note pos="456" pan="0" vol="100" len="24" key="60"/>
          <note pos="504" pan="0" vol="100" len="24" key="59"/>
          <note pos="552" pan="0" vol="100" len="24" key="55"/>
          <note pos="576" pan="0" vol="100" len="24" key="57"/>
          <note pos="624" pan="0" vol="100" len="24" key="57"/>
          <note pos="648" pan="0" vol="100" len="48" key="62"/>
          <note pos="696" pan="0" vol="100" len="48" key="60"/>
          <note pos="744" pan="0" vol="100" len="24" key="59"/>
        </pattern>
        <pattern pos="16896" type="1" steps="16" name="" muted="0">
          <note pos="0" pan="0" vol="100" len="24" key="57"/>
        </pattern>
      </track>
      <track type="0" solo="0" name="BitInvader" muted="0">
        <instrumenttrack usemasterpitch="1" pan="0" vol="18.800001" basenote="57" pitchrange="1" fxch="4" pitch="0">
          <instrument name="bitinvader">
            <bitinvader normalize="0" sampleShape="AACAvwAAfL8AAHi/AAB0vwAAcL8AAGy/AABovwAAZL8AAGC/AABcvwAAWL8AAFS/AABQvwAATL8AAEi/AABEvwAAQL8AADy/AAA4vwAANL8AADC/AAAsvwAAKL8AACS/AAAgvwAAHL8AABi/AAAUvwAAEL8AAAy/AAAIvwAABL8AAAC/AAD4vgAA8L4AAOi+AADgvgAA2L4AANC+AADIvgAAwL4AALi+AACwvgAAqL4AAKC+AACYvgAAkL4AAIi+AACAvgAAcL4AAGC+AABQvgAAQL4AADC+AAAgvgAAEL4AAAC+AADgvQAAwL0AAKC9AACAvQAAQL0AAAC9AACAvAAAAAAAAIA8AAAAPQAAQD0AAIA9AACgPQAAwD0AAOA9AAAAPgAAED4AACA+AAAwPgAAQD4AAFA+AABgPgAAcD4AAIA+AACIPgAAkD4AAJg+AACgPgAAqD4AALA+AAC4PgAAwD4AAMg+AADQPgAA2D4AAOA+AADoPgAA8D4AAPg+AAAAPwAABD8AAAg/AAAMPwAAED8AABQ/AAAYPwAAHD8AACA/AAAkPwAAKD8AACw/AAAwPwAAND8AADg/AAA8PwAAQD8AAEQ/AABIPwAATD8AAFA/AABUPwAAWD8AAFw/AABgPwAAZD8AAGg/AABsPwAAcD8AAHQ/AAB4PwAAfD8=" sampleLength="128" interpolation="0" version="0.1"/>
          </instrument>
          <eldata ftype="0" fwet="0" fcut="14000" fres="0.5">
            <elvol lspd_syncmode="0" x100="0" lpdel="0" lamt="0" lspd="0.1" att="0" lspd_denominator="4" sustain="0.5" pdel="0" latt="0" dec="0.5" hold="0.5" lshp="0" userwavefile="" ctlenvamt="0" amt="0" lspd_numerator="4" rel="0.1"/>
            <elcut lspd_syncmode="0" x100="0" lpdel="0" lamt="0" lspd="0.1" att="0" lspd_denominator="4" sustain="0.5" pdel="0" latt="0" dec="0.5" hold="0.5" lshp="0" userwavefile="" ctlenvamt="0" amt="0" lspd_numerator="4" rel="0.1"/>
            <elres lspd_syncmode="0" x100="0" lpdel="0" lamt="0" lspd="0.1" att="0" lspd_denominator="4" sustain="0.5" pdel="0" latt="0" dec="0.5" hold="0.5" lshp="0" userwavefile="" ctlenvamt="0" amt="0" lspd_numerator="4" rel="0.1"/>
          </eldata>
          <chordcreator chordrange="1" chord="0" chord-enabled="0"/>
          <arpeggiator arp="0" arprange="1" arpskip="0" arptime_denominator="4" arp-enabled="0" arptime="200" arpmode="0" arpmiss="0" arptime_numerator="4" arptime_syncmode="0" arpdir="0" arpcycle="0" arpgate="100"/>
          <midiport outputcontroller="0" fixedoutputvelocity="-1" inputchannel="0" outputchannel="1" outputprogram="1" readable="0" writable="0" fixedinputvelocity="-1" inputcontroller="0" basevelocity="63" fixedoutputnote="-1"/>
          <fxchain numofeffects="3" enabled="1">
            <effect gate="0" autoquit="1" on="1" autoquit_numerator="4" autoquit_syncmode="0" autoquit_denominator="4" name="ladspaeffect" wet="1">
              <ladspacontrols ports="7">
                <port00 data="1.25"/>
                <port01 data="90"/>
                <port02 data="75"/>
                <port03 data="25"/>
                <port04 data="100"/>
                <port05 data="0"/>
                <port06 data="0"/>
              </ladspacontrols>
              <key>
                <attribute name="file" value="tap_chorusflanger"/>
                <attribute name="plugin" value="tap_chorusflanger"/>
              </key>
            </effect>
            <effect gate="0" autoquit="1" on="1" autoquit_numerator="4" autoquit_syncmode="0" autoquit_denominator="4" name="ladspaeffect" wet="1">
              <ladspacontrols ports="4">
                <port02 data="0.50200003"/>
                <port03 data="0.37450001"/>
                <port04 data="0.250375"/>
                <port05 data="0.1"/>
              </ladspacontrols>
              <key>
                <attribute name="file" value="caps"/>
                <attribute name="plugin" value="Plate2x2"/>
              </key>
            </effect>
            <effect gate="0" autoquit="1" on="1" autoquit_numerator="4" autoquit_syncmode="0" autoquit_denominator="4" name="ladspaeffect" wet="1">
              <ladspacontrols ports="10">
                <port04 data="0.073100001"/>
                <port05>
                  <data scale_type="log" id="6714609" value="223.6068"/>
                </port05>
                <port06 data="2.75"/>
                <port07 data="2.75"/>
                <port08>
                  <data scale_type="log" id="6458393" value="6000"/>
                </port08>
                <port09>
                  <data scale_type="log" id="7773828" value="159.05415"/>
                </port09>
                <port010 data="0"/>
                <port011>
                  <data scale_type="log" id="6196783" value="2514.8672"/>
                </port011>
                <port012 data="0"/>
                <port013 data="0.5"/>
              </ladspacontrols>
              <key>
                <attribute name="file" value="zita-reverbs"/>
                <attribute name="plugin" value="zita-reverb"/>
              </key>
            </effect>
          </fxchain>
        </instrumenttrack>
        <pattern pos="12288" type="1" steps="16" name="BitInvader" muted="0">
          <note pos="0" pan="0" vol="100" len="288" key="57"/>
          <note pos="288" pan="0" vol="100" len="48" key="60"/>
          <note pos="336" pan="0" vol="100" len="48" key="59"/>
          <note pos="384" pan="0" vol="100" len="288" key="55"/>
          <note pos="672" pan="0" vol="100" len="48" key="60"/>
          <note pos="720" pan="0" vol="100" len="48" key="59"/>
          <note pos="768" pan="0" vol="100" len="288" key="57"/>
          <note pos="1056" pan="0" vol="100" len="48" key="60"/>
          <note pos="1104" pan="0" vol="100" len="48" key="59"/>
          <note pos="1152" pan="0" vol="100" len="288" key="62"/>
          <note pos="1440" pan="0" vol="100" len="48" key="60"/>
          <note pos="1488" pan="0" vol="100" len="48" key="59"/>
        </pattern>
        <pattern pos="13824" type="1" steps="16" name="BitInvader" muted="0">
          <note pos="0" pan="0" vol="100" len="288" key="57"/>
          <note pos="288" pan="0" vol="100" len="48" key="60"/>
          <note pos="336" pan="0" vol="100" len="48" key="59"/>
          <note pos="384" pan="0" vol="100" len="288" key="55"/>
          <note pos="672" pan="0" vol="100" len="48" key="60"/>
          <note pos="720" pan="0" vol="100" len="48" key="59"/>
          <note pos="768" pan="0" vol="100" len="288" key="57"/>
          <note pos="1056" pan="0" vol="100" len="48" key="60"/>
          <note pos="1104" pan="0" vol="100" len="48" key="59"/>
          <note pos="1152" pan="0" vol="100" len="288" key="62"/>
          <note pos="1440" pan="0" vol="100" len="48" key="60"/>
          <note pos="1488" pan="0" vol="100" len="48" key="59"/>
        </pattern>
      </track>
      <track type="0" solo="0" name="SBass" muted="0">
        <instrumenttrack usemasterpitch="1" pan="0" vol="200" basenote="81" pitchrange="1" fxch="2" pitch="0">
          <instrument name="tripleoscillator">
            <tripleoscillator finer0="0" finel0="0" wavetype2="5" pan1="0" modalgo2="0" stphdetun1="0" stphdetun2="0" wavetype0="3" modalgo3="2" phoffset0="0" modalgo1="0" phoffset1="0" vol0="33" pan2="0" finer1="-4" userwavefile0="" stphdetun0="0" userwavefile2="" pan0="0" finel2="-2" coarse2="0" vol2="33" coarse0="0" vol1="33" phoffset2="0" userwavefile1="" finer2="2" coarse1="0" finel1="4" wavetype1="5"/>
          </instrument>
          <eldata ftype="7" fwet="1" fcut="1" fres="0.5">
            <elvol lspd_syncmode="0" x100="0" lpdel="0" lamt="0" lspd="0.1" att="0" lspd_denominator="4" sustain="0.5" pdel="0" latt="0" dec="0.13" hold="0" lshp="0" userwavefile="" ctlenvamt="0" amt="1" lspd_numerator="4" rel="0.050000001"/>
            <elcut lspd_syncmode="8" x100="0" lpdel="0" lamt="0" lspd="0.015517241" att="0" lspd_denominator="4" sustain="0.5" pdel="0" latt="0.23999999" dec="0.5" hold="0" lshp="1" userwavefile="" ctlenvamt="0" amt="1" lspd_numerator="3" rel="0.1"/>
            <elres lspd_syncmode="3" x100="0" lpdel="0" lamt="0" lspd="0.04137931" att="0" lspd_denominator="4" sustain="0.5" pdel="0" latt="0" dec="0.5" hold="0.5" lshp="3" userwavefile="" ctlenvamt="0" amt="0" lspd_numerator="4" rel="0.1"/>
          </eldata>
          <chordcreator chordrange="1" chord="0" chord-enabled="0"/>
          <arpeggiator arp="0" arprange="3" arpskip="0" arptime_denominator="4" arp-enabled="0" arptime="206.89656" arpmode="0" arpmiss="0" arptime_numerator="4" arptime_syncmode="5" arpdir="1" arpcycle="0" arpgate="100"/>
          <midiport outputcontroller="0" fixedoutputvelocity="-1" inputchannel="0" outputchannel="1" outputprogram="1" readable="0" writable="0" fixedinputvelocity="-1" inputcontroller="0" basevelocity="63" fixedoutputnote="-1"/>
          <fxchain numofeffects="5" enabled="1">
            <effect gate="0" autoquit="1" on="1" autoquit_numerator="4" autoquit_syncmode="0" autoquit_denominator="4" name="stereomatrix" wet="0.38">
              <stereomatrixcontrols l-l="-0.5" l-r="-0.5" r-r="-0.5" r-l="-0.5"/>
              <key/>
            </effect>
            <effect gate="0" autoquit="8000" on="1" autoquit_numerator="4" autoquit_syncmode="0" autoquit_denominator="4" name="ladspaeffect" wet="1">
              <ladspacontrols link="0" ports="10">
                <port00 link="1" data="0.25"/>
                <port01 link="0" data="0.1"/>
                <port02 link="1" data="1"/>
                <port03 link="1" data="1"/>
                <port04 link="1" data="0"/>
                <port10 data="0.25"/>
                <port11 data="0.15000001"/>
                <port12 data="1"/>
                <port13 data="1"/>
                <port14 data="0"/>
              </ladspacontrols>
              <key>
                <attribute name="file" value="caps"/>
                <attribute name="plugin" value="PhaserII"/>
              </key>
            </effect>
            <effect gate="0" autoquit="1" on="1" autoquit_numerator="4" autoquit_syncmode="0" autoquit_denominator="4" name="ladspaeffect" wet="0.75">
              <ladspacontrols link="1" ports="8">
                <port00 link="1" data="0"/>
                <port01 link="1" data="0"/>
                <port02 link="1" data="0.5"/>
                <port03 link="1" data="0.5"/>
                <port10 data="0"/>
                <port11 data="0"/>
                <port12 data="0.5"/>
                <port13 data="0.5"/>
              </ladspacontrols>
              <key>
                <attribute name="file" value="caps"/>
                <attribute name="plugin" value="ToneStack"/>
              </key>
            </effect>
            <effect gate="0" autoquit="8000" on="1" autoquit_numerator="4" autoquit_syncmode="0" autoquit_denominator="4" name="ladspaeffect" wet="1">
              <ladspacontrols link="1" ports="2">
                <port01 link="1" data="14.04"/>
                <port11 data="14.04"/>
              </ladspacontrols>
              <key>
                <attribute name="file" value="caps"/>
                <attribute name="plugin" value="Clip"/>
              </key>
            </effect>
            <effect gate="0" autoquit="1" on="1" autoquit_numerator="4" autoquit_syncmode="0" autoquit_denominator="4" name="ladspaeffect" wet="1">
              <ladspacontrols link="1" ports="0"/>
              <key>
                <attribute name="file" value="dc_remove_1207"/>
                <attribute name="plugin" value="dcRemove"/>
              </key>
            </effect>
          </fxchain>
        </instrumenttrack>
        <pattern pos="4608" type="1" steps="16" name="SBass" muted="0">
          <note pos="0" pan="0" vol="100" len="24" key="57"/>
          <note pos="48" pan="0" vol="100" len="12" key="57"/>
          <note pos="72" pan="0" vol="100" len="24" key="60"/>
          <note pos="120" pan="0" vol="100" len="24" key="59"/>
          <note pos="168" pan="0" vol="100" len="24" key="55"/>
          <note pos="192" pan="0" vol="100" len="24" key="57"/>
          <note pos="240" pan="0" vol="100" len="12" key="57"/>
          <note pos="264" pan="0" vol="100" len="24" key="60"/>
          <note pos="312" pan="0" vol="100" len="24" key="59"/>
          <note pos="360" pan="0" vol="100" len="24" key="55"/>
          <note pos="384" pan="0" vol="100" len="24" key="57"/>
          <note pos="432" pan="0" vol="100" len="12" key="57"/>
          <note pos="456" pan="0" vol="100" len="24" key="60"/>
          <note pos="504" pan="0" vol="100" len="24" key="59"/>
          <note pos="552" pan="0" vol="100" len="24" key="55"/>
          <note pos="576" pan="0" vol="100" len="24" key="57"/>
          <note pos="624" pan="0" vol="100" len="24" key="57"/>
          <note pos="648" pan="0" vol="100" len="48" key="62"/>
          <note pos="696" pan="0" vol="100" len="48" key="60"/>
          <note pos="744" pan="0" vol="100" len="24" key="59"/>
        </pattern>
        <pattern pos="5376" type="1" steps="16" name="SBass" muted="0">
          <note pos="0" pan="0" vol="100" len="24" key="57"/>
          <note pos="48" pan="0" vol="100" len="12" key="57"/>
          <note pos="72" pan="0" vol="100" len="24" key="60"/>
          <note pos="120" pan="0" vol="100" len="24" key="59"/>
          <note pos="168" pan="0" vol="100" len="24" key="55"/>
          <note pos="192" pan="0" vol="100" len="24" key="57"/>
          <note pos="240" pan="0" vol="100" len="12" key="57"/>
          <note pos="264" pan="0" vol="100" len="24" key="60"/>
          <note pos="312" pan="0" vol="100" len="24" key="59"/>
          <note pos="360" pan="0" vol="100" len="24" key="55"/>
          <note pos="384" pan="0" vol="100" len="24" key="57"/>
          <note pos="432" pan="0" vol="100" len="12" key="57"/>
          <note pos="456" pan="0" vol="100" len="24" key="60"/>
          <note pos="504" pan="0" vol="100" len="24" key="59"/>
          <note pos="552" pan="0" vol="100" len="24" key="55"/>
          <note pos="576" pan="0" vol="100" len="24" key="57"/>
          <note pos="624" pan="0" vol="100" len="24" key="57"/>
          <note pos="648" pan="0" vol="100" len="48" key="62"/>
          <note pos="696" pan="0" vol="100" len="48" key="60"/>
          <note pos="744" pan="0" vol="100" len="24" key="59"/>
        </pattern>
        <pattern pos="7680" type="1" steps="16" name="SBass" muted="0">
          <note pos="0" pan="0" vol="100" len="24" key="57"/>
          <note pos="48" pan="0" vol="100" len="12" key="57"/>
          <note pos="72" pan="0" vol="100" len="24" key="60"/>
          <note pos="120" pan="0" vol="100" len="24" key="59"/>
          <note pos="168" pan="0" vol="100" len="24" key="55"/>
          <note pos="192" pan="0" vol="100" len="24" key="57"/>
          <note pos="240" pan="0" vol="100" len="12" key="57"/>
          <note pos="264" pan="0" vol="100" len="24" key="60"/>
          <note pos="312" pan="0" vol="100" len="24" key="59"/>
          <note pos="360" pan="0" vol="100" len="24" key="55"/>
          <note pos="384" pan="0" vol="100" len="24" key="57"/>
          <note pos="432" pan="0" vol="100" len="12" key="57"/>
          <note pos="456" pan="0" vol="100" len="24" key="60"/>
          <note pos="504" pan="0" vol="100" len="24" key="59"/>
          <note pos="552" pan="0" vol="100" len="24" key="55"/>
          <note pos="576" pan="0" vol="100" len="24" key="57"/>
          <note pos="624" pan="0" vol="100" len="24" key="57"/>
          <note pos="648" pan="0" vol="100" len="48" key="62"/>
          <note pos="696" pan="0" vol="100" len="48" key="60"/>
          <note pos="744" pan="0" vol="100" len="24" key="59"/>
        </pattern>
        <pattern pos="8448" type="1" steps="16" name="SBass" muted="0">
          <note pos="0" pan="0" vol="100" len="24" key="57"/>
          <note pos="48" pan="0" vol="100" len="12" key="57"/>
          <note pos="72" pan="0" vol="100" len="24" key="60"/>
          <note pos="120" pan="0" vol="100" len="24" key="59"/>
          <note pos="168" pan="0" vol="100" len="24" key="55"/>
          <note pos="192" pan="0" vol="100" len="24" key="57"/>
          <note pos="240" pan="0" vol="100" len="12" key="57"/>
          <note pos="264" pan="0" vol="100" len="24" key="60"/>
          <note pos="312" pan="0" vol="100" len="24" key="59"/>
          <note pos="360" pan="0" vol="100" len="24" key="55"/>
          <note pos="384" pan="0" vol="100" len="24" key="57"/>
          <note pos="432" pan="0" vol="100" len="12" key="57"/>
          <note pos="456" pan="0" vol="100" len="24" key="60"/>
          <note pos="504" pan="0" vol="100" len="24" key="59"/>
          <note pos="552" pan="0" vol="100" len="24" key="55"/>
          <note pos="576" pan="0" vol="100" len="24" key="57"/>
          <note pos="624" pan="0" vol="100" len="24" key="57"/>
          <note pos="648" pan="0" vol="100" len="48" key="62"/>
          <note pos="696" pan="0" vol="100" len="48" key="60"/>
          <note pos="744" pan="0" vol="100" len="24" key="59"/>
        </pattern>
        <pattern pos="12288" type="1" steps="16" name="SBass" muted="0">
          <note pos="0" pan="0" vol="100" len="24" key="57"/>
          <note pos="48" pan="0" vol="100" len="12" key="57"/>
          <note pos="72" pan="0" vol="100" len="24" key="60"/>
          <note pos="120" pan="0" vol="100" len="24" key="59"/>
          <note pos="168" pan="0" vol="100" len="24" key="55"/>
          <note pos="192" pan="0" vol="100" len="24" key="57"/>
          <note pos="240" pan="0" vol="100" len="12" key="57"/>
          <note pos="264" pan="0" vol="100" len="24" key="60"/>
          <note pos="312" pan="0" vol="100" len="24" key="59"/>
          <note pos="360" pan="0" vol="100" len="24" key="55"/>
          <note pos="384" pan="0" vol="100" len="24" key="57"/>
          <note pos="432" pan="0" vol="100" len="12" key="57"/>
          <note pos="456" pan="0" vol="100" len="24" key="60"/>
          <note pos="504" pan="0" vol="100" len="24" key="59"/>
          <note pos="552" pan="0" vol="100" len="24" key="55"/>
          <note pos="576" pan="0" vol="100" len="24" key="57"/>
          <note pos="624" pan="0" vol="100" len="24" key="57"/>
          <note pos="648" pan="0" vol="100" len="48" key="62"/>
          <note pos="696" pan="0" vol="100" len="48" key="60"/>
          <note pos="744" pan="0" vol="100" len="24" key="59"/>
        </pattern>
        <pattern pos="13056" type="1" steps="16" name="SBass" muted="0">
          <note pos="0" pan="0" vol="100" len="24" key="57"/>
          <note pos="48" pan="0" vol="100" len="12" key="57"/>
          <note pos="72" pan="0" vol="100" len="24" key="60"/>
          <note pos="120" pan="0" vol="100" len="24" key="59"/>
          <note pos="168" pan="0" vol="100" len="24" key="55"/>
          <note pos="192" pan="0" vol="100" len="24" key="57"/>
          <note pos="240" pan="0" vol="100" len="12" key="57"/>
          <note pos="264" pan="0" vol="100" len="24" key="60"/>
          <note pos="312" pan="0" vol="100" len="24" key="59"/>
          <note pos="360" pan="0" vol="100" len="24" key="55"/>
          <note pos="384" pan="0" vol="100" len="24" key="57"/>
          <note pos="432" pan="0" vol="100" len="12" key="57"/>
          <note pos="456" pan="0" vol="100" len="24" key="60"/>
          <note pos="504" pan="0" vol="100" len="24" key="59"/>
          <note pos="552" pan="0" vol="100" len="24" key="55"/>
          <note pos="576" pan="0" vol="100" len="24" key="57"/>
          <note pos="624" pan="0" vol="100" len="24" key="57"/>
          <note pos="648" pan="0" vol="100" len="48" key="62"/>
          <note pos="696" pan="0" vol="100" len="48" key="60"/>
          <note pos="744" pan="0" vol="100" len="24" key="59"/>
        </pattern>
        <pattern pos="13824" type="1" steps="16" name="SBass" muted="0">
          <note pos="0" pan="0" vol="100" len="24" key="57"/>
          <note pos="48" pan="0" vol="100" len="12" key="57"/>
          <note pos="72" pan="0" vol="100" len="24" key="60"/>
          <note pos="120" pan="0" vol="100" len="24" key="59"/>
          <note pos="168" pan="0" vol="100" len="24" key="55"/>
          <note pos="192" pan="0" vol="100" len="24" key="57"/>
          <note pos="240" pan="0" vol="100" len="12" key="57"/>
          <note pos="264" pan="0" vol="100" len="24" key="60"/>
          <note pos="312" pan="0" vol="100" len="24" key="59"/>
          <note pos="360" pan="0" vol="100" len="24" key="55"/>
          <note pos="384" pan="0" vol="100" len="24" key="57"/>
          <note pos="432" pan="0" vol="100" len="12" key="57"/>
          <note pos="456" pan="0" vol="100" len="24" key="60"/>
          <note pos="504" pan="0" vol="100" len="24" key="59"/>
          <note pos="552" pan="0" vol="100" len="24" key="55"/>
          <note pos="576" pan="0" vol="100" len="24" key="57"/>
          <note pos="624" pan="0" vol="100" len="24" key="57"/>
          <note pos="648" pan="0" vol="100" len="48" key="62"/>
          <note pos="696" pan="0" vol="100" len="48" key="60"/>
          <note pos="744" pan="0" vol="100" len="24" key="59"/>
        </pattern>
        <pattern pos="14592" type="1" steps="16" name="SBass" muted="0">
          <note pos="0" pan="0" vol="100" len="24" key="57"/>
          <note pos="48" pan="0" vol="100" len="12" key="57"/>
          <note pos="72" pan="0" vol="100" len="24" key="60"/>
          <note pos="120" pan="0" vol="100" len="24" key="59"/>
          <note pos="168" pan="0" vol="100" len="24" key="55"/>
          <note pos="192" pan="0" vol="100" len="24" key="57"/>
          <note pos="240" pan="0" vol="100" len="12" key="57"/>
          <note pos="264" pan="0" vol="100" len="24" key="60"/>
          <note pos="312" pan="0" vol="100" len="24" key="59"/>
          <note pos="360" pan="0" vol="100" len="24" key="55"/>
          <note pos="384" pan="0" vol="100" len="24" key="57"/>
          <note pos="432" pan="0" vol="100" len="12" key="57"/>
          <note pos="456" pan="0" vol="100" len="24" key="60"/>
          <note pos="504" pan="0" vol="100" len="24" key="59"/>
          <note pos="552" pan="0" vol="100" len="24" key="55"/>
          <note pos="576" pan="0" vol="100" len="24" key="57"/>
          <note pos="624" pan="0" vol="100" len="24" key="57"/>
          <note pos="648" pan="0" vol="100" len="48" key="62"/>
          <note pos="696" pan="0" vol="100" len="48" key="60"/>
          <note pos="744" pan="0" vol="100" len="24" key="59"/>
        </pattern>
        <pattern pos="15360" type="1" steps="16" name="SBass" muted="0">
          <note pos="0" pan="0" vol="100" len="24" key="57"/>
          <note pos="48" pan="0" vol="100" len="12" key="57"/>
          <note pos="72" pan="0" vol="100" len="24" key="60"/>
          <note pos="120" pan="0" vol="100" len="24" key="59"/>
          <note pos="168" pan="0" vol="100" len="24" key="55"/>
          <note pos="192" pan="0" vol="100" len="24" key="57"/>
          <note pos="240" pan="0" vol="100" len="12" key="57"/>
          <note pos="264" pan="0" vol="100" len="24" key="60"/>
          <note pos="312" pan="0" vol="100" len="24" key="59"/>
          <note pos="360" pan="0" vol="100" len="24" key="55"/>
          <note pos="384" pan="0" vol="100" len="24" key="57"/>
          <note pos="432" pan="0" vol="100" len="12" key="57"/>
          <note pos="456" pan="0" vol="100" len="24" key="60"/>
          <note pos="504" pan="0" vol="100" len="24" key="59"/>
          <note pos="552" pan="0" vol="100" len="24" key="55"/>
          <note pos="576" pan="0" vol="100" len="24" key="57"/>
          <note pos="624" pan="0" vol="100" len="24" key="57"/>
          <note pos="648" pan="0" vol="100" len="48" key="62"/>
          <note pos="696" pan="0" vol="100" len="48" key="60"/>
          <note pos="744" pan="0" vol="100" len="24" key="59"/>
        </pattern>
        <pattern pos="9216" type="1" steps="16" name="" muted="0">
          <note pos="0" pan="0" vol="100" len="24" key="57"/>
          <note pos="48" pan="0" vol="100" len="12" key="57"/>
          <note pos="72" pan="0" vol="100" len="24" key="60"/>
          <note pos="120" pan="0" vol="100" len="24" key="59"/>
          <note pos="168" pan="0" vol="100" len="24" key="55"/>
          <note pos="192" pan="0" vol="100" len="24" key="57"/>
          <note pos="240" pan="0" vol="100" len="12" key="57"/>
          <note pos="264" pan="0" vol="100" len="24" key="60"/>
          <note pos="312" pan="0" vol="100" len="24" key="59"/>
          <note pos="360" pan="0" vol="100" len="24" key="55"/>
          <note pos="384" pan="0" vol="100" len="24" key="57"/>
          <note pos="432" pan="0" vol="100" len="12" key="57"/>
          <note pos="456" pan="0" vol="100" len="24" key="60"/>
          <note pos="504" pan="0" vol="100" len="24" key="59"/>
          <note pos="552" pan="0" vol="100" len="24" key="55"/>
          <note pos="576" pan="0" vol="100" len="24" key="57"/>
          <note pos="624" pan="0" vol="100" len="24" key="57"/>
          <note pos="648" pan="0" vol="100" len="48" key="62"/>
          <note pos="696" pan="0" vol="100" len="48" key="60"/>
          <note pos="744" pan="0" vol="100" len="24" key="59"/>
        </pattern>
        <pattern pos="9984" type="1" steps="16" name="" muted="0">
          <note pos="0" pan="0" vol="100" len="24" key="57"/>
          <note pos="48" pan="0" vol="100" len="12" key="57"/>
          <note pos="72" pan="0" vol="100" len="24" key="60"/>
          <note pos="120" pan="0" vol="100" len="24" key="59"/>
          <note pos="168" pan="0" vol="100" len="24" key="55"/>
          <note pos="192" pan="0" vol="100" len="24" key="57"/>
          <note pos="240" pan="0" vol="100" len="12" key="57"/>
          <note pos="264" pan="0" vol="100" len="24" key="60"/>
          <note pos="312" pan="0" vol="100" len="24" key="59"/>
          <note pos="360" pan="0" vol="100" len="24" key="55"/>
          <note pos="384" pan="0" vol="100" len="24" key="57"/>
          <note pos="432" pan="0" vol="100" len="12" key="57"/>
          <note pos="456" pan="0" vol="100" len="24" key="60"/>
          <note pos="504" pan="0" vol="100" len="24" key="59"/>
          <note pos="552" pan="0" vol="100" len="24" key="55"/>
          <note pos="576" pan="0" vol="100" len="24" key="57"/>
          <note pos="624" pan="0" vol="100" len="24" key="57"/>
          <note pos="648" pan="0" vol="100" len="48" key="62"/>
          <note pos="696" pan="0" vol="100" len="48" key="60"/>
          <note pos="744" pan="0" vol="100" len="24" key="59"/>
        </pattern>
        <pattern pos="10752" type="1" steps="16" name="" muted="0">
          <note pos="0" pan="0" vol="100" len="24" key="57"/>
          <note pos="48" pan="0" vol="100" len="12" key="57"/>
          <note pos="72" pan="0" vol="100" len="24" key="60"/>
          <note pos="120" pan="0" vol="100" len="24" key="59"/>
          <note pos="168" pan="0" vol="100" len="24" key="55"/>
          <note pos="192" pan="0" vol="100" len="24" key="57"/>
          <note pos="240" pan="0" vol="100" len="12" key="57"/>
          <note pos="264" pan="0" vol="100" len="24" key="60"/>
          <note pos="312" pan="0" vol="100" len="24" key="59"/>
          <note pos="360" pan="0" vol="100" len="24" key="55"/>
          <note pos="384" pan="0" vol="100" len="24" key="57"/>
          <note pos="432" pan="0" vol="100" len="12" key="57"/>
          <note pos="456" pan="0" vol="100" len="24" key="60"/>
          <note pos="504" pan="0" vol="100" len="24" key="59"/>
          <note pos="552" pan="0" vol="100" len="24" key="55"/>
          <note pos="576" pan="0" vol="100" len="24" key="57"/>
          <note pos="624" pan="0" vol="100" len="24" key="57"/>
          <note pos="648" pan="0" vol="100" len="48" key="62"/>
          <note pos="696" pan="0" vol="100" len="48" key="60"/>
          <note pos="744" pan="0" vol="100" len="24" key="59"/>
        </pattern>
        <pattern pos="11520" type="1" steps="16" name="" muted="0">
          <note pos="0" pan="0" vol="100" len="24" key="57"/>
          <note pos="48" pan="0" vol="100" len="12" key="57"/>
          <note pos="72" pan="0" vol="100" len="24" key="60"/>
          <note pos="120" pan="0" vol="100" len="24" key="59"/>
          <note pos="168" pan="0" vol="100" len="24" key="55"/>
          <note pos="192" pan="0" vol="100" len="24" key="57"/>
          <note pos="240" pan="0" vol="100" len="12" key="57"/>
          <note pos="264" pan="0" vol="100" len="24" key="60"/>
          <note pos="312" pan="0" vol="100" len="24" key="59"/>
          <note pos="360" pan="0" vol="100" len="24" key="55"/>
          <note pos="384" pan="0" vol="100" len="24" key="57"/>
          <note pos="432" pan="0" vol="100" len="12" key="57"/>
          <note pos="456" pan="0" vol="100" len="24" key="60"/>
          <note pos="504" pan="0" vol="100" len="24" key="59"/>
          <note pos="552" pan="0" vol="100" len="24" key="55"/>
          <note pos="576" pan="0" vol="100" len="24" key="57"/>
          <note pos="624" pan="0" vol="100" len="24" key="57"/>
          <note pos="648" pan="0" vol="100" len="48" key="62"/>
          <note pos="696" pan="0" vol="100" len="48" key="60"/>
          <note pos="744" pan="0" vol="100" len="24" key="59"/>
        </pattern>
        <pattern pos="16128" type="1" steps="16" name="" muted="0">
          <note pos="0" pan="0" vol="100" len="24" key="57"/>
          <note pos="48" pan="0" vol="100" len="12" key="57"/>
          <note pos="72" pan="0" vol="100" len="24" key="60"/>
          <note pos="120" pan="0" vol="100" len="24" key="59"/>
          <note pos="168" pan="0" vol="100" len="24" key="55"/>
          <note pos="192" pan="0" vol="100" len="24" key="57"/>
          <note pos="240" pan="0" vol="100" len="12" key="57"/>
          <note pos="264" pan="0" vol="100" len="24" key="60"/>
          <note pos="312" pan="0" vol="100" len="24" key="59"/>
          <note pos="360" pan="0" vol="100" len="24" key="55"/>
          <note pos="384" pan="0" vol="100" len="24" key="57"/>
          <note pos="432" pan="0" vol="100" len="12" key="57"/>
          <note pos="456" pan="0" vol="100" len="24" key="60"/>
          <note pos="504" pan="0" vol="100" len="24" key="59"/>
          <note pos="552" pan="0" vol="100" len="24" key="55"/>
          <note pos="576" pan="0" vol="100" len="24" key="57"/>
          <note pos="624" pan="0" vol="100" len="24" key="57"/>
          <note pos="648" pan="0" vol="100" len="48" key="62"/>
          <note pos="696" pan="0" vol="100" len="48" key="60"/>
          <note pos="744" pan="0" vol="100" len="24" key="59"/>
        </pattern>
        <pattern pos="16896" type="1" steps="16" name="" muted="0">
          <note pos="0" pan="0" vol="100" len="24" key="57"/>
        </pattern>
        <pattern pos="6144" type="1" steps="16" name="" muted="0">
          <note pos="0" pan="0" vol="100" len="24" key="57"/>
          <note pos="48" pan="0" vol="100" len="12" key="57"/>
          <note pos="72" pan="0" vol="100" len="24" key="60"/>
          <note pos="120" pan="0" vol="100" len="24" key="59"/>
          <note pos="168" pan="0" vol="100" len="24" key="55"/>
          <note pos="192" pan="0" vol="100" len="24" key="57"/>
          <note pos="240" pan="0" vol="100" len="12" key="57"/>
          <note pos="264" pan="0" vol="100" len="24" key="60"/>
          <note pos="312" pan="0" vol="100" len="24" key="59"/>
          <note pos="360" pan="0" vol="100" len="24" key="55"/>
          <note pos="384" pan="0" vol="100" len="24" key="57"/>
          <note pos="432" pan="0" vol="100" len="12" key="57"/>
          <note pos="456" pan="0" vol="100" len="24" key="60"/>
          <note pos="504" pan="0" vol="100" len="24" key="59"/>
          <note pos="552" pan="0" vol="100" len="24" key="55"/>
          <note pos="576" pan="0" vol="100" len="24" key="57"/>
          <note pos="624" pan="0" vol="100" len="24" key="57"/>
          <note pos="648" pan="0" vol="100" len="48" key="62"/>
          <note pos="696" pan="0" vol="100" len="48" key="60"/>
          <note pos="744" pan="0" vol="100" len="24" key="59"/>
        </pattern>
        <pattern pos="6912" type="1" steps="16" name="" muted="0">
          <note pos="0" pan="0" vol="100" len="24" key="57"/>
          <note pos="48" pan="0" vol="100" len="12" key="57"/>
          <note pos="72" pan="0" vol="100" len="24" key="60"/>
          <note pos="120" pan="0" vol="100" len="24" key="59"/>
          <note pos="168" pan="0" vol="100" len="24" key="55"/>
          <note pos="192" pan="0" vol="100" len="24" key="57"/>
          <note pos="240" pan="0" vol="100" len="12" key="57"/>
          <note pos="264" pan="0" vol="100" len="24" key="60"/>
          <note pos="312" pan="0" vol="100" len="24" key="59"/>
          <note pos="360" pan="0" vol="100" len="24" key="55"/>
          <note pos="384" pan="0" vol="100" len="24" key="57"/>
          <note pos="432" pan="0" vol="100" len="12" key="57"/>
          <note pos="456" pan="0" vol="100" len="24" key="60"/>
          <note pos="504" pan="0" vol="100" len="24" key="59"/>
          <note pos="552" pan="0" vol="100" len="24" key="55"/>
          <note pos="576" pan="0" vol="100" len="24" key="57"/>
          <note pos="624" pan="0" vol="100" len="24" key="57"/>
          <note pos="648" pan="0" vol="100" len="48" key="62"/>
          <note pos="696" pan="0" vol="100" len="48" key="60"/>
          <note pos="744" pan="0" vol="100" len="24" key="59"/>
        </pattern>
      </track>
      <track type="0" solo="0" name="SBass" muted="0">
        <instrumenttrack usemasterpitch="1" pan="0" vol="200" basenote="81" pitchrange="1" fxch="2" pitch="0">
          <instrument name="tripleoscillator">
            <tripleoscillator finer0="0" finel0="0" wavetype2="5" pan1="0" modalgo2="0" stphdetun1="0" stphdetun2="0" wavetype0="3" modalgo3="2" phoffset0="0" modalgo1="0" phoffset1="0" vol0="33" pan2="0" finer1="-4" userwavefile0="" stphdetun0="0" userwavefile2="" pan0="0" finel2="-2" coarse2="0" vol2="33" coarse0="0" vol1="33" phoffset2="0" userwavefile1="" finer2="2" coarse1="0" finel1="4" wavetype1="5"/>
          </instrument>
          <eldata ftype="7" fwet="1" fcut="1" fres="0.5">
            <elvol lspd_syncmode="0" x100="0" lpdel="0" lamt="0" lspd="0.1" att="0" lspd_denominator="4" sustain="0.5" pdel="0" latt="0" dec="0.13" hold="0" lshp="0" userwavefile="" ctlenvamt="0" amt="1" lspd_numerator="4" rel="0.050000001"/>
            <elcut lspd_syncmode="8" x100="0" lpdel="0" lamt="0" lspd="0.015517241" att="0" lspd_denominator="4" sustain="0.5" pdel="0" latt="0.23999999" dec="0.5" hold="0" lshp="1" userwavefile="" ctlenvamt="0" amt="1" lspd_numerator="3" rel="0.1"/>
            <elres lspd_syncmode="3" x100="0" lpdel="0" lamt="0" lspd="0.04137931" att="0" lspd_denominator="4" sustain="0.5" pdel="0" latt="0" dec="0.5" hold="0.5" lshp="3" userwavefile="" ctlenvamt="0" amt="0" lspd_numerator="4" rel="0.1"/>
          </eldata>
          <chordcreator chordrange="1" chord="0" chord-enabled="0"/>
          <arpeggiator arp="0" arprange="3" arpskip="0" arptime_denominator="4" arp-enabled="0" arptime="206.89656" arpmode="0" arpmiss="0" arptime_numerator="4" arptime_syncmode="5" arpdir="1" arpcycle="0" arpgate="100"/>
          <midiport outputcontroller="0" fixedoutputvelocity="-1" inputchannel="0" outputchannel="1" outputprogram="1" readable="0" writable="0" fixedinputvelocity="-1" inputcontroller="0" basevelocity="127" fixedoutputnote="-1"/>
          <fxchain numofeffects="5" enabled="1">
            <effect gate="0" autoquit="1" on="1" autoquit_numerator="4" autoquit_syncmode="0" autoquit_denominator="4" name="stereomatrix" wet="0.38">
              <stereomatrixcontrols l-l="-0.5" l-r="-0.5" r-r="-0.5" r-l="-0.5"/>
              <key/>
            </effect>
            <effect gate="0" autoquit="8000" on="1" autoquit_numerator="4" autoquit_syncmode="0" autoquit_denominator="4" name="ladspaeffect" wet="1">
              <ladspacontrols link="0" ports="10">
                <port00 link="1" data="0.25"/>
                <port01 link="0" data="0.1"/>
                <port02 link="1" data="1"/>
                <port03 link="1" data="1"/>
                <port04 link="1" data="0"/>
                <port10 data="0.25"/>
                <port11 data="0.15000001"/>
                <port12 data="1"/>
                <port13 data="1"/>
                <port14 data="0"/>
              </ladspacontrols>
              <key>
                <attribute name="file" value="caps"/>
                <attribute name="plugin" value="PhaserII"/>
              </key>
            </effect>
            <effect gate="0" autoquit="1" on="1" autoquit_numerator="4" autoquit_syncmode="0" autoquit_denominator="4" name="ladspaeffect" wet="0.75">
              <ladspacontrols link="1" ports="8">
                <port00 link="1" data="0"/>
                <port01 link="1" data="0"/>
                <port02 link="1" data="0.5"/>
                <port03 link="1" data="0.5"/>
                <port10 data="0"/>
                <port11 data="0"/>
                <port12 data="0.5"/>
                <port13 data="0.5"/>
              </ladspacontrols>
              <key>
                <attribute name="file" value="caps"/>
                <attribute name="plugin" value="ToneStack"/>
              </key>
            </effect>
            <effect gate="0" autoquit="8000" on="1" autoquit_numerator="4" autoquit_syncmode="0" autoquit_denominator="4" name="ladspaeffect" wet="1">
              <ladspacontrols link="1" ports="2">
                <port01 link="1" data="14.04"/>
                <port11 data="14.04"/>
              </ladspacontrols>
              <key>
                <attribute name="file" value="caps"/>
                <attribute name="plugin" value="Clip"/>
              </key>
            </effect>
            <effect gate="0" autoquit="1" on="1" autoquit_numerator="4" autoquit_syncmode="0" autoquit_denominator="4" name="ladspaeffect" wet="1">
              <ladspacontrols link="1" ports="0"/>
              <key>
                <attribute name="file" value="dc_remove_1207"/>
                <attribute name="plugin" value="dcRemove"/>
              </key>
            </effect>
          </fxchain>
        </instrumenttrack>
        <pattern pos="4608" type="1" steps="16" name="SBass" muted="0">
          <note pos="0" pan="0" vol="100" len="24" key="57"/>
          <note pos="72" pan="0" vol="100" len="24" key="57"/>
          <note pos="120" pan="0" vol="100" len="24" key="57"/>
          <note pos="168" pan="0" vol="100" len="24" key="55"/>
          <note pos="192" pan="0" vol="100" len="24" key="57"/>
          <note pos="264" pan="0" vol="100" len="24" key="57"/>
          <note pos="312" pan="0" vol="100" len="24" key="57"/>
          <note pos="360" pan="0" vol="100" len="24" key="55"/>
          <note pos="384" pan="0" vol="100" len="24" key="57"/>
          <note pos="456" pan="0" vol="100" len="24" key="57"/>
          <note pos="504" pan="0" vol="100" len="24" key="57"/>
          <note pos="552" pan="0" vol="100" len="24" key="55"/>
          <note pos="576" pan="0" vol="100" len="24" key="57"/>
          <note pos="648" pan="0" vol="100" len="24" key="62"/>
          <note pos="696" pan="0" vol="100" len="24" key="60"/>
          <note pos="744" pan="0" vol="100" len="24" key="55"/>
        </pattern>
        <pattern pos="5376" type="1" steps="16" name="" muted="0">
          <note pos="0" pan="0" vol="100" len="24" key="57"/>
          <note pos="72" pan="0" vol="100" len="24" key="57"/>
          <note pos="120" pan="0" vol="100" len="24" key="57"/>
          <note pos="168" pan="0" vol="100" len="24" key="55"/>
          <note pos="192" pan="0" vol="100" len="24" key="57"/>
          <note pos="264" pan="0" vol="100" len="24" key="57"/>
          <note pos="312" pan="0" vol="100" len="24" key="57"/>
          <note pos="360" pan="0" vol="100" len="24" key="55"/>
          <note pos="384" pan="0" vol="100" len="24" key="57"/>
          <note pos="456" pan="0" vol="100" len="24" key="57"/>
          <note pos="504" pan="0" vol="100" len="24" key="57"/>
          <note pos="552" pan="0" vol="100" len="24" key="55"/>
          <note pos="576" pan="0" vol="100" len="24" key="57"/>
          <note pos="648" pan="0" vol="100" len="24" key="62"/>
          <note pos="696" pan="0" vol="100" len="24" key="60"/>
          <note pos="744" pan="0" vol="100" len="24" key="55"/>
        </pattern>
        <pattern pos="7680" type="1" steps="16" name="" muted="0">
          <note pos="0" pan="0" vol="100" len="24" key="57"/>
          <note pos="72" pan="0" vol="100" len="24" key="57"/>
          <note pos="120" pan="0" vol="100" len="24" key="57"/>
          <note pos="168" pan="0" vol="100" len="24" key="55"/>
          <note pos="192" pan="0" vol="100" len="24" key="57"/>
          <note pos="264" pan="0" vol="100" len="24" key="57"/>
          <note pos="312" pan="0" vol="100" len="24" key="57"/>
          <note pos="360" pan="0" vol="100" len="24" key="55"/>
          <note pos="384" pan="0" vol="100" len="24" key="57"/>
          <note pos="456" pan="0" vol="100" len="24" key="57"/>
          <note pos="504" pan="0" vol="100" len="24" key="57"/>
          <note pos="552" pan="0" vol="100" len="24" key="55"/>
          <note pos="576" pan="0" vol="100" len="24" key="57"/>
          <note pos="648" pan="0" vol="100" len="24" key="62"/>
          <note pos="696" pan="0" vol="100" len="24" key="60"/>
          <note pos="744" pan="0" vol="100" len="24" key="55"/>
        </pattern>
        <pattern pos="8448" type="1" steps="16" name="" muted="0">
          <note pos="0" pan="0" vol="100" len="24" key="57"/>
          <note pos="72" pan="0" vol="100" len="24" key="57"/>
          <note pos="120" pan="0" vol="100" len="24" key="57"/>
          <note pos="168" pan="0" vol="100" len="24" key="55"/>
          <note pos="192" pan="0" vol="100" len="24" key="57"/>
          <note pos="264" pan="0" vol="100" len="24" key="57"/>
          <note pos="312" pan="0" vol="100" len="24" key="57"/>
          <note pos="360" pan="0" vol="100" len="24" key="55"/>
          <note pos="384" pan="0" vol="100" len="24" key="57"/>
          <note pos="456" pan="0" vol="100" len="24" key="57"/>
          <note pos="504" pan="0" vol="100" len="24" key="57"/>
          <note pos="552" pan="0" vol="100" len="24" key="55"/>
          <note pos="576" pan="0" vol="100" len="24" key="57"/>
          <note pos="648" pan="0" vol="100" len="24" key="62"/>
          <note pos="696" pan="0" vol="100" len="24" key="60"/>
          <note pos="744" pan="0" vol="100" len="24" key="55"/>
        </pattern>
        <pattern pos="12288" type="1" steps="16" name="" muted="0">
          <note pos="0" pan="0" vol="100" len="24" key="57"/>
          <note pos="72" pan="0" vol="100" len="24" key="57"/>
          <note pos="120" pan="0" vol="100" len="24" key="57"/>
          <note pos="168" pan="0" vol="100" len="24" key="55"/>
          <note pos="192" pan="0" vol="100" len="24" key="57"/>
          <note pos="264" pan="0" vol="100" len="24" key="57"/>
          <note pos="312" pan="0" vol="100" len="24" key="57"/>
          <note pos="360" pan="0" vol="100" len="24" key="55"/>
          <note pos="384" pan="0" vol="100" len="24" key="57"/>
          <note pos="456" pan="0" vol="100" len="24" key="57"/>
          <note pos="504" pan="0" vol="100" len="24" key="57"/>
          <note pos="552" pan="0" vol="100" len="24" key="55"/>
          <note pos="576" pan="0" vol="100" len="24" key="57"/>
          <note pos="648" pan="0" vol="100" len="24" key="62"/>
          <note pos="696" pan="0" vol="100" len="24" key="60"/>
          <note pos="744" pan="0" vol="100" len="24" key="55"/>
        </pattern>
        <pattern pos="13056" type="1" steps="16" name="" muted="0">
          <note pos="0" pan="0" vol="100" len="24" key="57"/>
          <note pos="72" pan="0" vol="100" len="24" key="57"/>
          <note pos="120" pan="0" vol="100" len="24" key="57"/>
          <note pos="168" pan="0" vol="100" len="24" key="55"/>
          <note pos="192" pan="0" vol="100" len="24" key="57"/>
          <note pos="264" pan="0" vol="100" len="24" key="57"/>
          <note pos="312" pan="0" vol="100" len="24" key="57"/>
          <note pos="360" pan="0" vol="100" len="24" key="55"/>
          <note pos="384" pan="0" vol="100" len="24" key="57"/>
          <note pos="456" pan="0" vol="100" len="24" key="57"/>
          <note pos="504" pan="0" vol="100" len="24" key="57"/>
          <note pos="552" pan="0" vol="100" len="24" key="55"/>
          <note pos="576" pan="0" vol="100" len="24" key="57"/>
          <note pos="648" pan="0" vol="100" len="24" key="62"/>
          <note pos="696" pan="0" vol="100" len="24" key="60"/>
          <note pos="744" pan="0" vol="100" len="24" key="55"/>
        </pattern>
        <pattern pos="13824" type="1" steps="16" name="" muted="0">
          <note pos="0" pan="0" vol="100" len="24" key="57"/>
          <note pos="72" pan="0" vol="100" len="24" key="57"/>
          <note pos="120" pan="0" vol="100" len="24" key="57"/>
          <note pos="168" pan="0" vol="100" len="24" key="55"/>
          <note pos="192" pan="0" vol="100" len="24" key="57"/>
          <note pos="264" pan="0" vol="100" len="24" key="57"/>
          <note pos="312" pan="0" vol="100" len="24" key="57"/>
          <note pos="360" pan="0" vol="100" len="24" key="55"/>
          <note pos="384" pan="0" vol="100" len="24" key="57"/>
          <note pos="456" pan="0" vol="100" len="24" key="57"/>
          <note pos="504" pan="0" vol="100" len="24" key="57"/>
          <note pos="552" pan="0" vol="100" len="24" key="55"/>
          <note pos="576" pan="0" vol="100" len="24" key="57"/>
          <note pos="648" pan="0" vol="100" len="24" key="62"/>
          <note pos="696" pan="0" vol="100" len="24" key="60"/>
          <note pos="744" pan="0" vol="100" len="24" key="55"/>
        </pattern>
        <pattern pos="14592" type="1" steps="16" name="" muted="0">
          <note pos="0" pan="0" vol="100" len="24" key="57"/>
          <note pos="72" pan="0" vol="100" len="24" key="57"/>
          <note pos="120" pan="0" vol="100" len="24" key="57"/>
          <note pos="168" pan="0" vol="100" len="24" key="55"/>
          <note pos="192" pan="0" vol="100" len="24" key="57"/>
          <note pos="264" pan="0" vol="100" len="24" key="57"/>
          <note pos="312" pan="0" vol="100" len="24" key="57"/>
          <note pos="360" pan="0" vol="100" len="24" key="55"/>
          <note pos="384" pan="0" vol="100" len="24" key="57"/>
          <note pos="456" pan="0" vol="100" len="24" key="57"/>
          <note pos="504" pan="0" vol="100" len="24" key="57"/>
          <note pos="552" pan="0" vol="100" len="24" key="55"/>
          <note pos="576" pan="0" vol="100" len="24" key="57"/>
          <note pos="648" pan="0" vol="100" len="24" key="62"/>
          <note pos="696" pan="0" vol="100" len="24" key="60"/>
          <note pos="744" pan="0" vol="100" len="24" key="55"/>
        </pattern>
        <pattern pos="15360" type="1" steps="16" name="" muted="0">
          <note pos="0" pan="0" vol="100" len="24" key="57"/>
          <note pos="72" pan="0" vol="100" len="24" key="57"/>
          <note pos="120" pan="0" vol="100" len="24" key="57"/>
          <note pos="168" pan="0" vol="100" len="24" key="55"/>
          <note pos="192" pan="0" vol="100" len="24" key="57"/>
          <note pos="264" pan="0" vol="100" len="24" key="57"/>
          <note pos="312" pan="0" vol="100" len="24" key="57"/>
          <note pos="360" pan="0" vol="100" len="24" key="55"/>
          <note pos="384" pan="0" vol="100" len="24" key="57"/>
          <note pos="456" pan="0" vol="100" len="24" key="57"/>
          <note pos="504" pan="0" vol="100" len="24" key="57"/>
          <note pos="552" pan="0" vol="100" len="24" key="55"/>
          <note pos="576" pan="0" vol="100" len="24" key="57"/>
          <note pos="648" pan="0" vol="100" len="24" key="62"/>
          <note pos="696" pan="0" vol="100" len="24" key="60"/>
          <note pos="744" pan="0" vol="100" len="24" key="55"/>
        </pattern>
        <pattern pos="9216" type="1" steps="16" name="" muted="0">
          <note pos="0" pan="0" vol="100" len="24" key="57"/>
          <note pos="72" pan="0" vol="100" len="24" key="57"/>
          <note pos="120" pan="0" vol="100" len="24" key="57"/>
          <note pos="168" pan="0" vol="100" len="24" key="55"/>
          <note pos="192" pan="0" vol="100" len="24" key="57"/>
          <note pos="264" pan="0" vol="100" len="24" key="57"/>
          <note pos="312" pan="0" vol="100" len="24" key="57"/>
          <note pos="360" pan="0" vol="100" len="24" key="55"/>
          <note pos="384" pan="0" vol="100" len="24" key="57"/>
          <note pos="456" pan="0" vol="100" len="24" key="57"/>
          <note pos="504" pan="0" vol="100" len="24" key="57"/>
          <note pos="552" pan="0" vol="100" len="24" key="55"/>
          <note pos="576" pan="0" vol="100" len="24" key="57"/>
          <note pos="648" pan="0" vol="100" len="24" key="62"/>
          <note pos="696" pan="0" vol="100" len="24" key="60"/>
          <note pos="744" pan="0" vol="100" len="24" key="55"/>
        </pattern>
        <pattern pos="9984" type="1" steps="16" name="" muted="0">
          <note pos="0" pan="0" vol="100" len="24" key="57"/>
          <note pos="72" pan="0" vol="100" len="24" key="57"/>
          <note pos="120" pan="0" vol="100" len="24" key="57"/>
          <note pos="168" pan="0" vol="100" len="24" key="55"/>
          <note pos="192" pan="0" vol="100" len="24" key="57"/>
          <note pos="264" pan="0" vol="100" len="24" key="57"/>
          <note pos="312" pan="0" vol="100" len="24" key="57"/>
          <note pos="360" pan="0" vol="100" len="24" key="55"/>
          <note pos="384" pan="0" vol="100" len="24" key="57"/>
          <note pos="456" pan="0" vol="100" len="24" key="57"/>
          <note pos="504" pan="0" vol="100" len="24" key="57"/>
          <note pos="552" pan="0" vol="100" len="24" key="55"/>
          <note pos="576" pan="0" vol="100" len="24" key="57"/>
          <note pos="648" pan="0" vol="100" len="24" key="62"/>
          <note pos="696" pan="0" vol="100" len="24" key="60"/>
          <note pos="744" pan="0" vol="100" len="24" key="55"/>
        </pattern>
        <pattern pos="10752" type="1" steps="16" name="" muted="0">
          <note pos="0" pan="0" vol="100" len="24" key="57"/>
          <note pos="72" pan="0" vol="100" len="24" key="57"/>
          <note pos="120" pan="0" vol="100" len="24" key="57"/>
          <note pos="168" pan="0" vol="100" len="24" key="55"/>
          <note pos="192" pan="0" vol="100" len="24" key="57"/>
          <note pos="264" pan="0" vol="100" len="24" key="57"/>
          <note pos="312" pan="0" vol="100" len="24" key="57"/>
          <note pos="360" pan="0" vol="100" len="24" key="55"/>
          <note pos="384" pan="0" vol="100" len="24" key="57"/>
          <note pos="456" pan="0" vol="100" len="24" key="57"/>
          <note pos="504" pan="0" vol="100" len="24" key="57"/>
          <note pos="552" pan="0" vol="100" len="24" key="55"/>
          <note pos="576" pan="0" vol="100" len="24" key="57"/>
          <note pos="648" pan="0" vol="100" len="24" key="62"/>
          <note pos="696" pan="0" vol="100" len="24" key="60"/>
          <note pos="744" pan="0" vol="100" len="24" key="55"/>
        </pattern>
        <pattern pos="11520" type="1" steps="16" name="" muted="0">
          <note pos="0" pan="0" vol="100" len="24" key="57"/>
          <note pos="72" pan="0" vol="100" len="24" key="57"/>
          <note pos="120" pan="0" vol="100" len="24" key="57"/>
          <note pos="168" pan="0" vol="100" len="24" key="55"/>
          <note pos="192" pan="0" vol="100" len="24" key="57"/>
          <note pos="264" pan="0" vol="100" len="24" key="57"/>
          <note pos="312" pan="0" vol="100" len="24" key="57"/>
          <note pos="360" pan="0" vol="100" len="24" key="55"/>
          <note pos="384" pan="0" vol="100" len="24" key="57"/>
          <note pos="456" pan="0" vol="100" len="24" key="57"/>
          <note pos="504" pan="0" vol="100" len="24" key="57"/>
          <note pos="552" pan="0" vol="100" len="24" key="55"/>
          <note pos="576" pan="0" vol="100" len="24" key="57"/>
          <note pos="648" pan="0" vol="100" len="24" key="62"/>
          <note pos="696" pan="0" vol="100" len="24" key="60"/>
          <note pos="744" pan="0" vol="100" len="24" key="55"/>
        </pattern>
        <pattern pos="16128" type="1" steps="16" name="" muted="0">
          <note pos="0" pan="0" vol="100" len="24" key="57"/>
          <note pos="72" pan="0" vol="100" len="24" key="57"/>
          <note pos="120" pan="0" vol="100" len="24" key="57"/>
          <note pos="168" pan="0" vol="100" len="24" key="55"/>
          <note pos="192" pan="0" vol="100" len="24" key="57"/>
          <note pos="264" pan="0" vol="100" len="24" key="57"/>
          <note pos="312" pan="0" vol="100" len="24" key="57"/>
          <note pos="360" pan="0" vol="100" len="24" key="55"/>
          <note pos="384" pan="0" vol="100" len="24" key="57"/>
          <note pos="456" pan="0" vol="100" len="24" key="57"/>
          <note pos="504" pan="0" vol="100" len="24" key="57"/>
          <note pos="552" pan="0" vol="100" len="24" key="55"/>
          <note pos="576" pan="0" vol="100" len="24" key="57"/>
          <note pos="648" pan="0" vol="100" len="24" key="62"/>
          <note pos="696" pan="0" vol="100" len="24" key="60"/>
          <note pos="744" pan="0" vol="100" len="24" key="55"/>
        </pattern>
        <pattern pos="16896" type="1" steps="16" name="" muted="0">
          <note pos="0" pan="0" vol="100" len="24" key="57"/>
        </pattern>
        <pattern pos="6144" type="1" steps="16" name="" muted="0">
          <note pos="0" pan="0" vol="100" len="24" key="57"/>
          <note pos="72" pan="0" vol="100" len="24" key="57"/>
          <note pos="120" pan="0" vol="100" len="24" key="57"/>
          <note pos="168" pan="0" vol="100" len="24" key="55"/>
          <note pos="192" pan="0" vol="100" len="24" key="57"/>
          <note pos="264" pan="0" vol="100" len="24" key="57"/>
          <note pos="312" pan="0" vol="100" len="24" key="57"/>
          <note pos="360" pan="0" vol="100" len="24" key="55"/>
          <note pos="384" pan="0" vol="100" len="24" key="57"/>
          <note pos="456" pan="0" vol="100" len="24" key="57"/>
          <note pos="504" pan="0" vol="100" len="24" key="57"/>
          <note pos="552" pan="0" vol="100" len="24" key="55"/>
          <note pos="576" pan="0" vol="100" len="24" key="57"/>
          <note pos="648" pan="0" vol="100" len="24" key="62"/>
          <note pos="696" pan="0" vol="100" len="24" key="60"/>
          <note pos="744" pan="0" vol="100" len="24" key="55"/>
        </pattern>
        <pattern pos="6912" type="1" steps="16" name="" muted="0">
          <note pos="0" pan="0" vol="100" len="24" key="57"/>
          <note pos="72" pan="0" vol="100" len="24" key="57"/>
          <note pos="120" pan="0" vol="100" len="24" key="57"/>
          <note pos="168" pan="0" vol="100" len="24" key="55"/>
          <note pos="192" pan="0" vol="100" len="24" key="57"/>
          <note pos="264" pan="0" vol="100" len="24" key="57"/>
          <note pos="312" pan="0" vol="100" len="24" key="57"/>
          <note pos="360" pan="0" vol="100" len="24" key="55"/>
          <note pos="384" pan="0" vol="100" len="24" key="57"/>
          <note pos="456" pan="0" vol="100" len="24" key="57"/>
          <note pos="504" pan="0" vol="100" len="24" key="57"/>
          <note pos="552" pan="0" vol="100" len="24" key="55"/>
          <note pos="576" pan="0" vol="100" len="24" key="57"/>
          <note pos="648" pan="0" vol="100" len="24" key="62"/>
          <note pos="696" pan="0" vol="100" len="24" key="60"/>
          <note pos="744" pan="0" vol="100" len="24" key="55"/>
        </pattern>
      </track>
      <track type="0" solo="0" name="Erazzor" muted="0">
        <instrumenttrack usemasterpitch="1" pan="0" vol="29.6" basenote="57" pitchrange="1" fxch="0" pitch="0">
          <instrument name="tripleoscillator">
            <tripleoscillator finer0="-2" finel0="0" wavetype2="1" pan1="0" modalgo2="0" stphdetun1="0" stphdetun2="0" wavetype0="2" modalgo3="2" phoffset0="0" modalgo1="1" phoffset1="0" vol0="33" pan2="0" finer1="2" userwavefile0="" stphdetun0="0" userwavefile2="" pan0="0" finel2="-2" coarse2="0" vol2="33" coarse0="0" vol1="33" phoffset2="0" userwavefile1="" finer2="0" coarse1="0" finel1="-2" wavetype1="2"/>
          </instrument>
          <eldata ftype="7" fwet="1" fcut="1260" fres="1.8099999">
            <elvol lspd_syncmode="0" x100="0" lpdel="0" lamt="0" lspd="0.1" att="0" lspd_denominator="4" sustain="0.45600003" pdel="0" latt="0" dec="1.1720001" hold="0" lshp="0" userwavefile="" ctlenvamt="0" amt="1" lspd_numerator="4" rel="0.14"/>
            <elcut lspd_syncmode="0" x100="0" lpdel="0" lamt="0.125" lspd="0.111" att="0.33000001" lspd_denominator="4" sustain="0.15000001" pdel="0" latt="0" dec="0.23" hold="0" lshp="0" userwavefile="" ctlenvamt="0" amt="0" lspd_numerator="4" rel="0.1"/>
            <elres lspd_syncmode="0" x100="0" lpdel="0" lamt="0" lspd="0.1" att="0" lspd_denominator="4" sustain="0.5" pdel="0" latt="0" dec="0.5" hold="0.5" lshp="0" userwavefile="" ctlenvamt="0" amt="0" lspd_numerator="4" rel="0.1"/>
          </eldata>
          <chordcreator chordrange="1" chord="0" chord-enabled="0"/>
          <arpeggiator arp="0" arprange="1" arpskip="0" arptime_denominator="4" arp-enabled="0" arptime="100" arpmode="0" arpmiss="0" arptime_numerator="4" arptime_syncmode="0" arpdir="0" arpcycle="0" arpgate="100"/>
          <midiport outputcontroller="0" fixedoutputvelocity="0" inputchannel="0" outputchannel="1" outputprogram="1" readable="0" writable="0" fixedinputvelocity="-1" inputcontroller="0" basevelocity="127" fixedoutputnote="-1"/>
          <fxchain numofeffects="8" enabled="1">
            <effect gate="0" autoquit="8000" on="1" autoquit_numerator="4" autoquit_syncmode="0" autoquit_denominator="4" name="ladspaeffect" wet="1">
              <ladspacontrols link="1" ports="2">
                <port01 link="1" data="72"/>
                <port11 data="72"/>
              </ladspacontrols>
              <key>
                <attribute name="file" value="caps.so"/>
                <attribute name="plugin" value="Clip"/>
              </key>
            </effect>
            <effect gate="0" autoquit="8000" on="1" autoquit_numerator="4" autoquit_syncmode="0" autoquit_denominator="4" name="ladspaeffect" wet="1">
              <ladspacontrols link="1" ports="2">
                <port01 link="1" data="-10.08"/>
                <port11 data="-10.08"/>
              </ladspacontrols>
              <key>
                <attribute name="file" value="caps.so"/>
                <attribute name="plugin" value="Clip"/>
              </key>
            </effect>
            <effect gate="0" autoquit="1" on="1" autoquit_numerator="4" autoquit_syncmode="0" autoquit_denominator="4" name="ladspaeffect" wet="0.5">
              <ladspacontrols link="1" ports="20">
                <port01 link="1" data="-30.059999"/>
                <port02 link="1" data="0"/>
                <port03 link="1" data="0"/>
                <port04 link="1" data="0"/>
                <port05 link="1" data="0"/>
                <port06 link="1" data="0"/>
                <port07 link="1" data="0"/>
                <port08 link="1" data="-16.02"/>
                <port09 link="1" data="-32.040001"/>
                <port010 link="1" data="-48"/>
                <port11 data="-30.059999"/>
                <port12 data="0"/>
                <port13 data="0"/>
                <port14 data="0"/>
                <port15 data="0"/>
                <port16 data="0"/>
                <port17 data="0"/>
                <port18 data="-16.02"/>
                <port19 data="-32.040001"/>
                <port110 data="-48"/>
              </ladspacontrols>
              <key>
                <attribute name="file" value="caps.so"/>
                <attribute name="plugin" value="Eq"/>
              </key>
            </effect>
            <effect gate="0" autoquit="8000" on="1" autoquit_numerator="4" autoquit_syncmode="0" autoquit_denominator="4" name="ladspaeffect" wet="1">
              <ladspacontrols link="1" ports="10">
                <port00 link="1" data="0.11625"/>
                <port01 link="1" data="0.25"/>
                <port02 link="1" data="0.75"/>
                <port03 link="1" data="0.47999999"/>
                <port04 link="1" data="0.74924999"/>
                <port10 data="0.11625"/>
                <port11 data="0.25"/>
                <port12 data="0.75"/>
                <port13 data="0.47999999"/>
                <port14 data="0.74924999"/>
              </ladspacontrols>
              <key>
                <attribute name="file" value="caps.so"/>
                <attribute name="plugin" value="PhaserII"/>
              </key>
            </effect>
            <effect gate="0" autoquit="8000" on="1" autoquit_numerator="4" autoquit_syncmode="0" autoquit_denominator="4" name="ladspaeffect" wet="1">
              <ladspacontrols ports="4">
                <port02 data="0.50196999"/>
                <port03 data="0.74900001"/>
                <port04 data="0.24987499"/>
                <port05 data="0.25"/>
              </ladspacontrols>
              <key>
                <attribute name="file" value="caps.so"/>
                <attribute name="plugin" value="Plate2x2"/>
              </key>
            </effect>
            <effect gate="0" autoquit="8000" on="1" autoquit_numerator="4" autoquit_syncmode="0" autoquit_denominator="4" name="ladspaeffect" wet="-0.5">
              <ladspacontrols ports="10">
                <port00 data="320"/>
                <port01 data="50"/>
                <port02 data="430"/>
                <port03 data="50"/>
                <port04 data="0"/>
                <port05 data="0"/>
                <port06 data="-70"/>
                <port07 data="1"/>
                <port08 data="0"/>
                <port09 data="1"/>
              </ladspacontrols>
              <key>
                <attribute name="file" value="tap_echo.so"/>
                <attribute name="plugin" value="tap_stereo_echo"/>
              </key>
            </effect>
            <effect gate="0" autoquit="1" on="1" autoquit_numerator="4" autoquit_syncmode="0" autoquit_denominator="4" name="stereomatrix" wet="1">
              <stereomatrixcontrols l-l="0.66000003" l-r="0" r-r="0.5" r-l="0.33000001"/>
              <key/>
            </effect>
            <effect gate="0" autoquit="1" on="1" autoquit_numerator="4" autoquit_syncmode="0" autoquit_denominator="4" name="ladspaeffect" wet="0.50999999">
              <ladspacontrols ports="10">
                <port04 data="0.060000002"/>
                <port05>
                  <data scale_type="log" id="5073240" value="223.6068"/>
                </port05>
                <port06 data="2.75"/>
                <port07 data="2.75"/>
                <port08>
                  <data scale_type="log" id="3422700" value="6000"/>
                </port08>
                <port09>
                  <data scale_type="log" id="4053440" value="159.05415"/>
                </port09>
                <port010 data="0"/>
                <port011>
                  <data scale_type="log" id="1963302" value="2514.8672"/>
                </port011>
                <port012 data="0"/>
                <port013 data="0.5"/>
              </ladspacontrols>
              <key>
                <attribute name="file" value="zita-reverbs"/>
                <attribute name="plugin" value="zita-reverb"/>
              </key>
            </effect>
          </fxchain>
        </instrumenttrack>
        <pattern pos="1536" type="1" steps="16" name="Erazzor" muted="0">
          <note pos="0" pan="0" vol="100" len="576" key="57"/>
        </pattern>
        <pattern pos="2304" type="1" steps="16" name="Erazzor" muted="0">
          <note pos="0" pan="0" vol="100" len="576" key="57"/>
        </pattern>
        <pattern pos="3072" type="1" steps="16" name="Erazzor" muted="0">
          <note pos="0" pan="0" vol="100" len="576" key="57"/>
        </pattern>
        <pattern pos="3840" type="1" steps="16" name="Erazzor" muted="0">
          <note pos="0" pan="0" vol="100" len="576" key="57"/>
        </pattern>
        <pattern pos="4608" type="1" steps="16" name="Erazzor" muted="0">
          <note pos="0" pan="0" vol="80" len="384" key="40"/>
          <note pos="0" pan="0" vol="80" len="384" key="33"/>
          <note pos="384" pan="0" vol="80" len="384" key="43"/>
          <note pos="384" pan="0" vol="80" len="384" key="36"/>
          <note pos="768" pan="0" vol="80" len="384" key="42"/>
          <note pos="768" pan="0" vol="80" len="336" key="35"/>
          <note pos="1104" pan="0" vol="80" len="48" key="31"/>
          <note pos="1152" pan="0" vol="80" len="384" key="40"/>
          <note pos="1152" pan="0" vol="80" len="384" key="33"/>
        </pattern>
        <pattern pos="7680" type="1" steps="16" name="Erazzor" muted="0">
          <note pos="0" pan="0" vol="80" len="384" key="40"/>
          <note pos="0" pan="0" vol="80" len="384" key="33"/>
          <note pos="384" pan="0" vol="80" len="384" key="43"/>
          <note pos="384" pan="0" vol="80" len="384" key="36"/>
          <note pos="768" pan="0" vol="80" len="384" key="42"/>
          <note pos="768" pan="0" vol="80" len="336" key="35"/>
          <note pos="1104" pan="0" vol="80" len="48" key="31"/>
          <note pos="1152" pan="0" vol="80" len="384" key="40"/>
          <note pos="1152" pan="0" vol="80" len="384" key="33"/>
        </pattern>
        <pattern pos="9216" type="1" steps="16" name="Erazzor" muted="0">
          <note pos="0" pan="0" vol="80" len="384" key="40"/>
          <note pos="0" pan="0" vol="80" len="384" key="33"/>
          <note pos="384" pan="0" vol="80" len="384" key="43"/>
          <note pos="384" pan="0" vol="80" len="384" key="36"/>
          <note pos="768" pan="0" vol="80" len="384" key="42"/>
          <note pos="768" pan="0" vol="80" len="336" key="35"/>
          <note pos="1104" pan="0" vol="80" len="48" key="31"/>
          <note pos="1152" pan="0" vol="80" len="384" key="40"/>
          <note pos="1152" pan="0" vol="80" len="384" key="33"/>
        </pattern>
        <pattern pos="13824" type="1" steps="16" name="Erazzor" muted="0">
          <note pos="0" pan="0" vol="100" len="288" key="45"/>
          <note pos="288" pan="0" vol="100" len="48" key="48"/>
          <note pos="336" pan="0" vol="100" len="48" key="47"/>
          <note pos="384" pan="0" vol="100" len="288" key="43"/>
          <note pos="672" pan="0" vol="100" len="48" key="48"/>
          <note pos="720" pan="0" vol="100" len="48" key="47"/>
          <note pos="768" pan="0" vol="100" len="288" key="45"/>
          <note pos="1056" pan="0" vol="100" len="48" key="48"/>
          <note pos="1104" pan="0" vol="100" len="48" key="47"/>
          <note pos="1152" pan="0" vol="100" len="288" key="50"/>
          <note pos="1440" pan="0" vol="100" len="48" key="48"/>
          <note pos="1488" pan="0" vol="100" len="48" key="47"/>
        </pattern>
        <pattern pos="6144" type="1" steps="16" name="" muted="0">
          <note pos="0" pan="0" vol="80" len="384" key="40"/>
          <note pos="0" pan="0" vol="80" len="384" key="33"/>
          <note pos="384" pan="0" vol="80" len="384" key="43"/>
          <note pos="384" pan="0" vol="80" len="384" key="36"/>
          <note pos="768" pan="0" vol="80" len="384" key="42"/>
          <note pos="768" pan="0" vol="80" len="336" key="35"/>
          <note pos="1104" pan="0" vol="80" len="48" key="31"/>
          <note pos="1152" pan="0" vol="80" len="384" key="40"/>
          <note pos="1152" pan="0" vol="80" len="384" key="33"/>
        </pattern>
        <pattern pos="15360" type="1" steps="16" name="Erazzor" muted="0">
          <note pos="0" pan="0" vol="100" len="24" key="45"/>
        </pattern>
      </track>
      <track type="0" solo="0" name="Analog Dreamz" muted="0">
        <instrumenttrack usemasterpitch="1" pan="0" vol="45.600002" basenote="57" pitchrange="1" fxch="0" pitch="0">
          <instrument name="tripleoscillator">
            <tripleoscillator finer0="15" finel0="-18" wavetype2="2" pan1="0" modalgo2="2" stphdetun1="0" stphdetun2="0" wavetype0="2" modalgo3="2" phoffset0="0" modalgo1="2" phoffset1="0" vol0="33" pan2="0" finer1="-5" userwavefile0="" stphdetun0="0" userwavefile2="" pan0="0" finel2="0" coarse2="-24" vol2="33" coarse0="-12" vol1="33" phoffset2="0" userwavefile1="" finer2="0" coarse1="-12" finel1="14" wavetype1="2"/>
          </instrument>
          <eldata ftype="1" fwet="1" fcut="100" fres="2">
            <elvol lspd_syncmode="0" x100="0" lpdel="0" lamt="0" lspd="0.1" att="0" lspd_denominator="4" sustain="1" pdel="0" latt="0" dec="0.59200001" hold="0" lshp="0" userwavefile="" ctlenvamt="0" amt="1" lspd_numerator="4" rel="0.278"/>
            <elcut lspd_syncmode="0" x100="0" lpdel="0" lamt="0" lspd="0.1" att="0" lspd_denominator="4" sustain="0.178" pdel="0" latt="0" dec="0.62900001" hold="0" lshp="0" userwavefile="" ctlenvamt="0" amt="0.83499998" lspd_numerator="4" rel="1.409"/>
            <elres lspd_syncmode="0" x100="0" lpdel="0" lamt="0" lspd="0.1" att="0" lspd_denominator="4" sustain="0.5" pdel="0" latt="0" dec="0.5" hold="0.5" lshp="0" userwavefile="" ctlenvamt="0" amt="0" lspd_numerator="4" rel="0.1"/>
          </eldata>
          <chordcreator chordrange="1" chord="0" chord-enabled="1"/>
          <arpeggiator arp="0" arprange="1" arpskip="0" arptime_denominator="4" arp-enabled="0" arptime="100" arpmode="0" arpmiss="0" arptime_numerator="4" arptime_syncmode="0" arpdir="0" arpcycle="0" arpgate="100"/>
          <midiport outputcontroller="0" fixedoutputvelocity="-1" inputchannel="0" outputchannel="1" outputprogram="1" readable="0" writable="0" fixedinputvelocity="-1" inputcontroller="0" basevelocity="63" fixedoutputnote="-1"/>
          <fxchain numofeffects="2" enabled="1">
            <effect gate="0" autoquit="1" on="1" autoquit_numerator="4" autoquit_syncmode="0" autoquit_denominator="4" name="stereomatrix" wet="1">
              <stereomatrixcontrols l-l="-1" l-r="0" r-r="1" r-l="0"/>
              <key/>
            </effect>
            <effect gate="0" autoquit="1" on="1" autoquit_numerator="4" autoquit_syncmode="0" autoquit_denominator="4" name="ladspaeffect" wet="1">
              <ladspacontrols ports="10">
                <port04 data="0.060000002"/>
                <port05>
                  <data scale_type="log" id="5629282" value="223.6068"/>
                </port05>
                <port06 data="2.75"/>
                <port07 data="2.75"/>
                <port08>
                  <data scale_type="log" id="5159186" value="6000"/>
                </port08>
                <port09>
                  <data scale_type="log" id="6639332" value="159.05415"/>
                </port09>
                <port010 data="0"/>
                <port011>
                  <data scale_type="log" id="7905490" value="2514.8672"/>
                </port011>
                <port012 data="0"/>
                <port013 data="0.5"/>
              </ladspacontrols>
              <key>
                <attribute name="file" value="zita-reverbs"/>
                <attribute name="plugin" value="zita-reverb"/>
              </key>
            </effect>
          </fxchain>
        </instrumenttrack>
        <pattern pos="7680" type="1" steps="16" name="Analog Dreamz" muted="0">
          <note pos="0" pan="0" vol="80" len="384" key="64"/>
          <note pos="0" pan="0" vol="80" len="384" key="57"/>
          <note pos="384" pan="0" vol="80" len="384" key="67"/>
          <note pos="384" pan="0" vol="80" len="384" key="60"/>
          <note pos="768" pan="0" vol="80" len="384" key="66"/>
          <note pos="768" pan="0" vol="80" len="336" key="59"/>
          <note pos="1104" pan="0" vol="80" len="48" key="55"/>
          <note pos="1152" pan="0" vol="80" len="384" key="64"/>
          <note pos="1152" pan="0" vol="80" len="384" key="57"/>
        </pattern>
        <pattern pos="9216" type="1" steps="16" name="" muted="0">
          <note pos="0" pan="0" vol="80" len="384" key="64"/>
          <note pos="0" pan="0" vol="80" len="384" key="57"/>
          <note pos="384" pan="0" vol="80" len="384" key="67"/>
          <note pos="384" pan="0" vol="80" len="384" key="60"/>
          <note pos="768" pan="0" vol="80" len="384" key="66"/>
          <note pos="768" pan="0" vol="80" len="336" key="59"/>
          <note pos="1104" pan="0" vol="80" len="48" key="55"/>
          <note pos="1152" pan="0" vol="80" len="384" key="64"/>
          <note pos="1152" pan="0" vol="80" len="384" key="57"/>
        </pattern>
        <pattern pos="12288" type="1" steps="16" name="" muted="0">
          <note pos="0" pan="0" vol="46" len="384" key="64"/>
          <note pos="0" pan="0" vol="46" len="384" key="57"/>
          <note pos="384" pan="0" vol="46" len="384" key="67"/>
          <note pos="384" pan="0" vol="46" len="384" key="60"/>
          <note pos="768" pan="0" vol="46" len="384" key="66"/>
          <note pos="768" pan="0" vol="46" len="336" key="59"/>
          <note pos="1104" pan="0" vol="46" len="48" key="55"/>
          <note pos="1152" pan="0" vol="46" len="384" key="64"/>
          <note pos="1152" pan="0" vol="46" len="384" key="57"/>
        </pattern>
        <pattern pos="13824" type="1" steps="16" name="" muted="0">
          <note pos="0" pan="0" vol="46" len="384" key="64"/>
          <note pos="0" pan="0" vol="46" len="384" key="57"/>
          <note pos="384" pan="0" vol="46" len="384" key="67"/>
          <note pos="384" pan="0" vol="46" len="384" key="60"/>
          <note pos="768" pan="0" vol="46" len="384" key="66"/>
          <note pos="768" pan="0" vol="46" len="336" key="59"/>
          <note pos="1104" pan="0" vol="46" len="48" key="55"/>
          <note pos="1152" pan="0" vol="46" len="384" key="64"/>
          <note pos="1152" pan="0" vol="46" len="384" key="57"/>
        </pattern>
      </track>
      <track type="1" solo="0" name="Beat/Bassline 4" muted="0">
        <bbtrack>
          <trackcontainer minimized="0" x="309" maximized="0" type="bbtrackcontainer" y="243" height="575" visible="0" width="941">
            <track type="0" solo="0" name="kick01.ogg" muted="0">
              <instrumenttrack usemasterpitch="1" pan="0" vol="100" basenote="57" pitchrange="1" fxch="1" pitch="0">
                <instrument name="audiofileprocessor">
                  <audiofileprocessor src="drums/kick01.ogg" reversed="0" looped="0" stutter="0" amp="100" lframe="0" interp="1" sframe="0" eframe="1"/>
                </instrument>
                <eldata ftype="0" fwet="0" fcut="14000" fres="0.5">
                  <elvol lspd_syncmode="0" x100="0" lpdel="0" lamt="0" lspd="0.1" att="0" lspd_denominator="4" sustain="0.5" pdel="0" latt="0" dec="0.5" hold="0.5" lshp="0" userwavefile="" ctlenvamt="0" amt="0" lspd_numerator="4" rel="0.1"/>
                  <elcut lspd_syncmode="0" x100="0" lpdel="0" lamt="0" lspd="0.1" att="0" lspd_denominator="4" sustain="0.5" pdel="0" latt="0" dec="0.5" hold="0.5" lshp="0" userwavefile="" ctlenvamt="0" amt="0" lspd_numerator="4" rel="0.1"/>
                  <elres lspd_syncmode="0" x100="0" lpdel="0" lamt="0" lspd="0.1" att="0" lspd_denominator="4" sustain="0.5" pdel="0" latt="0" dec="0.5" hold="0.5" lshp="0" userwavefile="" ctlenvamt="0" amt="0" lspd_numerator="4" rel="0.1"/>
                </eldata>
                <chordcreator chordrange="1" chord="0" chord-enabled="0"/>
                <arpeggiator arp="0" arprange="1" arpskip="0" arptime_denominator="4" arp-enabled="0" arptime="200" arpmode="0" arpmiss="0" arptime_numerator="4" arptime_syncmode="0" arpdir="0" arpcycle="0" arpgate="100"/>
                <midiport outputcontroller="0" fixedoutputvelocity="-1" inputchannel="0" outputchannel="1" outputprogram="1" readable="0" writable="0" fixedinputvelocity="-1" inputcontroller="0" basevelocity="63" fixedoutputnote="-1"/>
                <fxchain numofeffects="0" enabled="0"/>
              </instrumenttrack>
              <pattern pos="0" type="0" steps="64" name="kick01.ogg" muted="0">
                <note pos="0" pan="0" vol="100" len="-192" key="57"/>
                <note pos="36" pan="0" vol="100" len="-192" key="57"/>
                <note pos="84" pan="0" vol="100" len="-192" key="57"/>
                <note pos="108" pan="0" vol="100" len="-192" key="57"/>
                <note pos="120" pan="0" vol="100" len="-192" key="57"/>
                <note pos="192" pan="0" vol="100" len="-192" key="57"/>
                <note pos="228" pan="0" vol="100" len="-192" key="57"/>
                <note pos="276" pan="0" vol="100" len="-192" key="57"/>
                <note pos="300" pan="0" vol="100" len="-192" key="57"/>
                <note pos="312" pan="0" vol="100" len="-192" key="57"/>
                <note pos="384" pan="0" vol="100" len="-192" key="57"/>
                <note pos="420" pan="0" vol="100" len="-192" key="57"/>
                <note pos="468" pan="0" vol="100" len="-192" key="57"/>
                <note pos="492" pan="0" vol="100" len="-192" key="57"/>
                <note pos="504" pan="0" vol="100" len="-192" key="57"/>
                <note pos="576" pan="0" vol="100" len="-192" key="57"/>
                <note pos="612" pan="0" vol="100" len="-192" key="57"/>
                <note pos="660" pan="0" vol="100" len="-192" key="57"/>
                <note pos="684" pan="0" vol="100" len="-192" key="57"/>
                <note pos="696" pan="0" vol="100" len="-192" key="57"/>
                <note pos="756" pan="0" vol="30" len="-192" key="57"/>
              </pattern>
              <pattern pos="192" type="0" steps="64" name="kick01.ogg" muted="0">
                <note pos="0" pan="0" vol="100" len="-192" key="57"/>
                <note pos="36" pan="0" vol="100" len="-192" key="57"/>
                <note pos="84" pan="0" vol="100" len="-192" key="57"/>
                <note pos="108" pan="0" vol="100" len="-192" key="57"/>
                <note pos="120" pan="0" vol="100" len="-192" key="57"/>
                <note pos="192" pan="0" vol="100" len="-192" key="57"/>
                <note pos="228" pan="0" vol="100" len="-192" key="57"/>
                <note pos="276" pan="0" vol="100" len="-192" key="57"/>
                <note pos="300" pan="0" vol="100" len="-192" key="57"/>
                <note pos="312" pan="0" vol="100" len="-192" key="57"/>
                <note pos="384" pan="0" vol="100" len="-192" key="57"/>
                <note pos="420" pan="0" vol="100" len="-192" key="57"/>
                <note pos="468" pan="0" vol="100" len="-192" key="57"/>
                <note pos="492" pan="0" vol="100" len="-192" key="57"/>
                <note pos="504" pan="0" vol="100" len="-192" key="57"/>
                <note pos="576" pan="0" vol="100" len="-192" key="57"/>
                <note pos="612" pan="0" vol="100" len="-192" key="57"/>
                <note pos="660" pan="0" vol="100" len="-192" key="57"/>
                <note pos="684" pan="0" vol="100" len="-192" key="57"/>
                <note pos="696" pan="0" vol="100" len="-192" key="57"/>
                <note pos="756" pan="0" vol="30" len="-192" key="57"/>
              </pattern>
              <pattern pos="384" type="0" steps="64" name="kick01.ogg" muted="0"/>
              <pattern pos="576" type="0" steps="16" name="kick01.ogg" muted="0"/>
              <pattern pos="768" type="0" steps="16" name="kick01.ogg" muted="0"/>
            </track>
            <track type="0" solo="0" name="Hat_o.ds" muted="0">
              <instrumenttrack usemasterpitch="1" pan="0" vol="106.8" basenote="57" pitchrange="1" fxch="1" pitch="0">
                <instrument name="audiofileprocessor">
                  <audiofileprocessor src="drumsynth/cr8000/Hat_o.ds" reversed="0" looped="0" stutter="0" amp="100" lframe="0" interp="1" sframe="0" eframe="1"/>
                </instrument>
                <eldata ftype="0" fwet="0" fcut="14000" fres="0.5">
                  <elvol lspd_syncmode="0" x100="0" lpdel="0" lamt="0" lspd="0.1" att="0" lspd_denominator="4" sustain="0.5" pdel="0" latt="0" dec="0.5" hold="0.5" lshp="0" userwavefile="" ctlenvamt="0" amt="0" lspd_numerator="4" rel="0.1"/>
                  <elcut lspd_syncmode="0" x100="0" lpdel="0" lamt="0" lspd="0.1" att="0" lspd_denominator="4" sustain="0.5" pdel="0" latt="0" dec="0.5" hold="0.5" lshp="0" userwavefile="" ctlenvamt="0" amt="0" lspd_numerator="4" rel="0.1"/>
                  <elres lspd_syncmode="0" x100="0" lpdel="0" lamt="0" lspd="0.1" att="0" lspd_denominator="4" sustain="0.5" pdel="0" latt="0" dec="0.5" hold="0.5" lshp="0" userwavefile="" ctlenvamt="0" amt="0" lspd_numerator="4" rel="0.1"/>
                </eldata>
                <chordcreator chordrange="1" chord="0" chord-enabled="0"/>
                <arpeggiator arp="0" arprange="1" arpskip="0" arptime_denominator="4" arp-enabled="0" arptime="200" arpmode="0" arpmiss="0" arptime_numerator="4" arptime_syncmode="0" arpdir="0" arpcycle="0" arpgate="100"/>
                <midiport outputcontroller="0" fixedoutputvelocity="-1" inputchannel="0" outputchannel="1" outputprogram="1" readable="0" writable="0" fixedinputvelocity="-1" inputcontroller="0" basevelocity="63" fixedoutputnote="-1"/>
                <fxchain numofeffects="0" enabled="0"/>
              </instrumenttrack>
              <pattern pos="0" type="0" steps="64" name="Hat_o.ds" muted="0">
                <note pos="24" pan="0" vol="100" len="-192" key="57"/>
                <note pos="120" pan="0" vol="100" len="-192" key="57"/>
                <note pos="216" pan="0" vol="100" len="-192" key="57"/>
                <note pos="312" pan="0" vol="100" len="-192" key="57"/>
                <note pos="408" pan="0" vol="100" len="-192" key="57"/>
                <note pos="504" pan="0" vol="100" len="-192" key="57"/>
                <note pos="600" pan="0" vol="100" len="-192" key="57"/>
                <note pos="696" pan="0" vol="100" len="-192" key="57"/>
              </pattern>
              <pattern pos="192" type="0" steps="64" name="Hat_o.ds" muted="0">
                <note pos="24" pan="0" vol="100" len="-192" key="57"/>
                <note pos="120" pan="0" vol="100" len="-192" key="57"/>
                <note pos="216" pan="0" vol="100" len="-192" key="57"/>
                <note pos="312" pan="0" vol="100" len="-192" key="57"/>
                <note pos="408" pan="0" vol="100" len="-192" key="57"/>
                <note pos="504" pan="0" vol="100" len="-192" key="57"/>
                <note pos="600" pan="0" vol="100" len="-192" key="57"/>
                <note pos="696" pan="0" vol="100" len="-192" key="57"/>
              </pattern>
              <pattern pos="384" type="0" steps="64" name="Hat_o.ds" muted="0"/>
              <pattern pos="576" type="0" steps="16" name="Hat_o.ds" muted="0"/>
              <pattern pos="768" type="0" steps="16" name="Hat_o.ds" muted="0"/>
            </track>
            <track type="0" solo="0" name="clap01.ogg" muted="0">
              <instrumenttrack usemasterpitch="1" pan="0" vol="200" basenote="57" pitchrange="1" fxch="1" pitch="0">
                <instrument name="audiofileprocessor">
                  <audiofileprocessor src="drums/clap01.ogg" reversed="0" looped="0" stutter="0" amp="100" lframe="0" interp="1" sframe="0" eframe="1"/>
                </instrument>
                <eldata ftype="0" fwet="0" fcut="14000" fres="0.5">
                  <elvol lspd_syncmode="0" x100="0" lpdel="0" lamt="0" lspd="0.1" att="0" lspd_denominator="4" sustain="0.5" pdel="0" latt="0" dec="0.5" hold="0.5" lshp="0" userwavefile="" ctlenvamt="0" amt="0" lspd_numerator="4" rel="0.1"/>
                  <elcut lspd_syncmode="0" x100="0" lpdel="0" lamt="0" lspd="0.1" att="0" lspd_denominator="4" sustain="0.5" pdel="0" latt="0" dec="0.5" hold="0.5" lshp="0" userwavefile="" ctlenvamt="0" amt="0" lspd_numerator="4" rel="0.1"/>
                  <elres lspd_syncmode="0" x100="0" lpdel="0" lamt="0" lspd="0.1" att="0" lspd_denominator="4" sustain="0.5" pdel="0" latt="0" dec="0.5" hold="0.5" lshp="0" userwavefile="" ctlenvamt="0" amt="0" lspd_numerator="4" rel="0.1"/>
                </eldata>
                <chordcreator chordrange="1" chord="0" chord-enabled="0"/>
                <arpeggiator arp="0" arprange="1" arpskip="0" arptime_denominator="4" arp-enabled="0" arptime="200" arpmode="0" arpmiss="0" arptime_numerator="4" arptime_syncmode="0" arpdir="0" arpcycle="0" arpgate="100"/>
                <midiport outputcontroller="0" fixedoutputvelocity="-1" inputchannel="0" outputchannel="1" outputprogram="1" readable="0" writable="0" fixedinputvelocity="-1" inputcontroller="0" basevelocity="63" fixedoutputnote="-1"/>
                <fxchain numofeffects="3" enabled="1">
                  <effect gate="0" autoquit="1" on="1" autoquit_numerator="4" autoquit_syncmode="0" autoquit_denominator="4" name="bitcrush" wet="1">
                    <bitcrushcontrols outgain="0" outclip="-13.3" depthon="1" innoise="0" rate="44100" levels="256" ingain="10.400001" stereodiff="0" rateon="1"/>
                    <key/>
                  </effect>
                  <effect gate="0" autoquit="1" on="1" autoquit_numerator="4" autoquit_syncmode="0" autoquit_denominator="4" name="amplifier" wet="1">
                    <AmplifierControls pan="0" volume="140.8" left="100" right="100"/>
                    <key/>
                  </effect>
                  <effect gate="0" autoquit="1" on="1" autoquit_numerator="4" autoquit_syncmode="0" autoquit_denominator="4" name="ladspaeffect" wet="0.23999999">
                    <ladspacontrols ports="10">
                      <port04 data="0.0414"/>
                      <port05>
                        <data scale_type="log" id="4055869" value="223.6068"/>
                      </port05>
                      <port06 data="2.75"/>
                      <port07 data="2.75"/>
                      <port08>
                        <data scale_type="log" id="981116" value="6000"/>
                      </port08>
                      <port09>
                        <data scale_type="log" id="5613614" value="159.05415"/>
                      </port09>
                      <port010 data="0"/>
                      <port011>
                        <data scale_type="log" id="5753918" value="2514.8672"/>
                      </port011>
                      <port012 data="0"/>
                      <port013 data="0.5"/>
                    </ladspacontrols>
                    <key>
                      <attribute name="file" value="zita-reverbs"/>
                      <attribute name="plugin" value="zita-reverb"/>
                    </key>
                  </effect>
                </fxchain>
              </instrumenttrack>
              <pattern pos="0" type="0" steps="64" name="clap01.ogg" muted="0"/>
              <pattern pos="192" type="0" steps="64" name="clap01.ogg" muted="0"/>
              <pattern pos="384" type="0" steps="64" name="clap01.ogg" muted="0">
                <note pos="144" pan="0" vol="100" len="-192" key="57"/>
                <note pos="336" pan="0" vol="100" len="-192" key="57"/>
                <note pos="528" pan="0" vol="100" len="-192" key="57"/>
              </pattern>
              <pattern pos="576" type="0" steps="16" name="clap01.ogg" muted="0"/>
              <pattern pos="768" type="0" steps="16" name="clap01.ogg" muted="0"/>
            </track>
            <track type="0" solo="0" name="bright_808_hat_2.ds" muted="0">
              <instrumenttrack usemasterpitch="1" pan="0" vol="100" basenote="57" pitchrange="1" fxch="0" pitch="0">
                <instrument name="audiofileprocessor">
                  <audiofileprocessor src="drumsynth/misc_hats/bright_808_hat_2.ds" reversed="0" looped="0" stutter="0" amp="100" lframe="0" interp="1" sframe="0" eframe="1"/>
                </instrument>
                <eldata ftype="0" fwet="0" fcut="14000" fres="0.5">
                  <elvol lspd_syncmode="0" x100="0" lpdel="0" lamt="0" lspd="0.1" att="0" lspd_denominator="4" sustain="0.5" pdel="0" latt="0" dec="0.5" hold="0.5" lshp="0" userwavefile="" ctlenvamt="0" amt="0" lspd_numerator="4" rel="0.1"/>
                  <elcut lspd_syncmode="0" x100="0" lpdel="0" lamt="0" lspd="0.1" att="0" lspd_denominator="4" sustain="0.5" pdel="0" latt="0" dec="0.5" hold="0.5" lshp="0" userwavefile="" ctlenvamt="0" amt="0" lspd_numerator="4" rel="0.1"/>
                  <elres lspd_syncmode="0" x100="0" lpdel="0" lamt="0" lspd="0.1" att="0" lspd_denominator="4" sustain="0.5" pdel="0" latt="0" dec="0.5" hold="0.5" lshp="0" userwavefile="" ctlenvamt="0" amt="0" lspd_numerator="4" rel="0.1"/>
                </eldata>
                <chordcreator chordrange="1" chord="0" chord-enabled="0"/>
                <arpeggiator arp="0" arprange="1" arpskip="0" arptime_denominator="4" arp-enabled="0" arptime="200" arpmode="0" arpmiss="0" arptime_numerator="4" arptime_syncmode="0" arpdir="0" arpcycle="0" arpgate="100"/>
                <midiport outputcontroller="0" fixedoutputvelocity="-1" inputchannel="0" outputchannel="1" outputprogram="1" readable="0" writable="0" fixedinputvelocity="-1" inputcontroller="0" basevelocity="63" fixedoutputnote="-1"/>
                <fxchain numofeffects="0" enabled="0"/>
              </instrumenttrack>
              <pattern pos="0" type="0" steps="64" name="bright_808_hat_2.ds" muted="0">
                <note pos="0" pan="0" vol="100" len="-192" key="57"/>
                <note pos="24" pan="0" vol="100" len="-192" key="57"/>
                <note pos="48" pan="0" vol="100" len="-192" key="57"/>
                <note pos="72" pan="0" vol="100" len="-192" key="57"/>
                <note pos="96" pan="0" vol="100" len="-192" key="57"/>
                <note pos="120" pan="0" vol="100" len="-192" key="57"/>
                <note pos="144" pan="0" vol="100" len="-192" key="57"/>
                <note pos="168" pan="0" vol="100" len="-192" key="57"/>
                <note pos="192" pan="0" vol="100" len="-192" key="57"/>
                <note pos="216" pan="0" vol="100" len="-192" key="57"/>
                <note pos="240" pan="0" vol="100" len="-192" key="57"/>
                <note pos="264" pan="0" vol="100" len="-192" key="57"/>
                <note pos="288" pan="0" vol="100" len="-192" key="57"/>
                <note pos="312" pan="0" vol="100" len="-192" key="57"/>
                <note pos="336" pan="0" vol="100" len="-192" key="57"/>
                <note pos="360" pan="0" vol="100" len="-192" key="57"/>
                <note pos="384" pan="0" vol="100" len="-192" key="57"/>
                <note pos="408" pan="0" vol="100" len="-192" key="57"/>
                <note pos="432" pan="0" vol="100" len="-192" key="57"/>
                <note pos="456" pan="0" vol="100" len="-192" key="57"/>
                <note pos="480" pan="0" vol="100" len="-192" key="57"/>
                <note pos="504" pan="0" vol="100" len="-192" key="57"/>
                <note pos="528" pan="0" vol="100" len="-192" key="57"/>
                <note pos="552" pan="0" vol="100" len="-192" key="57"/>
                <note pos="576" pan="0" vol="100" len="-192" key="57"/>
                <note pos="600" pan="0" vol="100" len="-192" key="57"/>
                <note pos="624" pan="0" vol="100" len="-192" key="57"/>
                <note pos="648" pan="0" vol="100" len="-192" key="57"/>
                <note pos="672" pan="0" vol="100" len="-192" key="57"/>
                <note pos="696" pan="0" vol="100" len="-192" key="57"/>
                <note pos="720" pan="0" vol="100" len="-192" key="57"/>
                <note pos="744" pan="0" vol="100" len="-192" key="57"/>
              </pattern>
              <pattern pos="192" type="0" steps="64" name="bright_808_hat_2.ds" muted="0">
                <note pos="0" pan="0" vol="100" len="-192" key="57"/>
                <note pos="24" pan="0" vol="100" len="-192" key="57"/>
                <note pos="48" pan="0" vol="100" len="-192" key="57"/>
                <note pos="72" pan="0" vol="100" len="-192" key="57"/>
                <note pos="96" pan="0" vol="100" len="-192" key="57"/>
                <note pos="120" pan="0" vol="100" len="-192" key="57"/>
                <note pos="144" pan="0" vol="100" len="-192" key="57"/>
                <note pos="168" pan="0" vol="100" len="-192" key="57"/>
                <note pos="192" pan="0" vol="100" len="-192" key="57"/>
                <note pos="216" pan="0" vol="100" len="-192" key="57"/>
                <note pos="240" pan="0" vol="100" len="-192" key="57"/>
                <note pos="264" pan="0" vol="100" len="-192" key="57"/>
                <note pos="288" pan="0" vol="100" len="-192" key="57"/>
                <note pos="312" pan="0" vol="100" len="-192" key="57"/>
                <note pos="336" pan="0" vol="100" len="-192" key="57"/>
                <note pos="360" pan="0" vol="100" len="-192" key="57"/>
                <note pos="384" pan="0" vol="100" len="-192" key="57"/>
                <note pos="408" pan="0" vol="100" len="-192" key="57"/>
                <note pos="432" pan="0" vol="100" len="-192" key="57"/>
                <note pos="456" pan="0" vol="100" len="-192" key="57"/>
                <note pos="480" pan="0" vol="100" len="-192" key="57"/>
                <note pos="504" pan="0" vol="100" len="-192" key="57"/>
                <note pos="528" pan="0" vol="100" len="-192" key="57"/>
                <note pos="552" pan="0" vol="100" len="-192" key="57"/>
                <note pos="576" pan="0" vol="100" len="-192" key="57"/>
                <note pos="600" pan="0" vol="100" len="-192" key="57"/>
                <note pos="624" pan="0" vol="100" len="-192" key="57"/>
                <note pos="648" pan="0" vol="100" len="-192" key="57"/>
                <note pos="672" pan="0" vol="100" len="-192" key="57"/>
                <note pos="696" pan="0" vol="100" len="-192" key="57"/>
                <note pos="720" pan="0" vol="100" len="-192" key="57"/>
                <note pos="744" pan="0" vol="100" len="-192" key="57"/>
              </pattern>
              <pattern pos="384" type="0" steps="64" name="bright_808_hat_2.ds" muted="0"/>
              <pattern pos="576" type="0" steps="16" name="bright_808_hat_2.ds" muted="0"/>
              <pattern pos="768" type="0" steps="16" name="bright_808_hat_2.ds" muted="0"/>
            </track>
            <track type="0" solo="0" name="snare04.ogg" muted="0">
              <instrumenttrack usemasterpitch="1" pan="0" vol="100" basenote="57" pitchrange="1" fxch="0" pitch="0">
                <instrument name="audiofileprocessor">
                  <audiofileprocessor src="drums/snare04.ogg" reversed="0" looped="0" stutter="0" amp="100" lframe="0" interp="1" sframe="0" eframe="1"/>
                </instrument>
                <eldata ftype="0" fwet="0" fcut="14000" fres="0.5">
                  <elvol lspd_syncmode="0" x100="0" lpdel="0" lamt="0" lspd="0.1" att="0" lspd_denominator="4" sustain="0.5" pdel="0" latt="0" dec="0.5" hold="0.5" lshp="0" userwavefile="" ctlenvamt="0" amt="0" lspd_numerator="4" rel="0.1"/>
                  <elcut lspd_syncmode="0" x100="0" lpdel="0" lamt="0" lspd="0.1" att="0" lspd_denominator="4" sustain="0.5" pdel="0" latt="0" dec="0.5" hold="0.5" lshp="0" userwavefile="" ctlenvamt="0" amt="0" lspd_numerator="4" rel="0.1"/>
                  <elres lspd_syncmode="0" x100="0" lpdel="0" lamt="0" lspd="0.1" att="0" lspd_denominator="4" sustain="0.5" pdel="0" latt="0" dec="0.5" hold="0.5" lshp="0" userwavefile="" ctlenvamt="0" amt="0" lspd_numerator="4" rel="0.1"/>
                </eldata>
                <chordcreator chordrange="1" chord="0" chord-enabled="0"/>
                <arpeggiator arp="0" arprange="1" arpskip="0" arptime_denominator="4" arp-enabled="0" arptime="200" arpmode="0" arpmiss="0" arptime_numerator="4" arptime_syncmode="0" arpdir="0" arpcycle="0" arpgate="100"/>
                <midiport outputcontroller="0" fixedoutputvelocity="-1" inputchannel="0" outputchannel="1" outputprogram="1" readable="0" writable="0" fixedinputvelocity="-1" inputcontroller="0" basevelocity="63" fixedoutputnote="-1"/>
                <fxchain numofeffects="0" enabled="0"/>
              </instrumenttrack>
              <pattern pos="0" type="0" steps="64" name="snare04.ogg" muted="0">
                <note pos="48" pan="0" vol="100" len="-192" key="57"/>
                <note pos="144" pan="0" vol="100" len="-192" key="57"/>
                <note pos="240" pan="0" vol="100" len="-192" key="57"/>
                <note pos="336" pan="0" vol="100" len="-192" key="57"/>
                <note pos="432" pan="0" vol="100" len="-192" key="57"/>
                <note pos="528" pan="0" vol="100" len="-192" key="57"/>
                <note pos="624" pan="0" vol="100" len="-192" key="57"/>
                <note pos="720" pan="0" vol="100" len="-192" key="57"/>
              </pattern>
              <pattern pos="192" type="0" steps="64" name="snare04.ogg" muted="0">
                <note pos="48" pan="0" vol="55" len="-192" key="57"/>
                <note pos="144" pan="0" vol="55" len="-192" key="57"/>
                <note pos="240" pan="0" vol="55" len="-192" key="57"/>
                <note pos="336" pan="0" vol="75" len="-192" key="57"/>
                <note pos="432" pan="0" vol="55" len="-192" key="57"/>
                <note pos="528" pan="0" vol="55" len="-192" key="57"/>
                <note pos="624" pan="0" vol="60" len="-192" key="57"/>
                <note pos="720" pan="0" vol="75" len="-192" key="57"/>
              </pattern>
              <pattern pos="384" type="0" steps="64" name="snare04.ogg" muted="0"/>
              <pattern pos="576" type="0" steps="16" name="snare04.ogg" muted="0"/>
              <pattern pos="768" type="0" steps="16" name="snare04.ogg" muted="0"/>
            </track>
            <track type="0" solo="0" name="close_ride.ds" muted="0">
              <instrumenttrack usemasterpitch="1" pan="0" vol="59.200001" basenote="57" pitchrange="1" fxch="0" pitch="0">
                <instrument name="audiofileprocessor">
                  <audiofileprocessor src="drumsynth/misc_hats/close_ride.ds" reversed="0" looped="0" stutter="0" amp="100" lframe="0" interp="1" sframe="0" eframe="1"/>
                </instrument>
                <eldata ftype="0" fwet="0" fcut="14000" fres="0.5">
                  <elvol lspd_syncmode="0" x100="0" lpdel="0" lamt="0" lspd="0.1" att="0" lspd_denominator="4" sustain="0.5" pdel="0" latt="0" dec="0.5" hold="0.5" lshp="0" userwavefile="" ctlenvamt="0" amt="0" lspd_numerator="4" rel="0.1"/>
                  <elcut lspd_syncmode="0" x100="0" lpdel="0" lamt="0" lspd="0.1" att="0" lspd_denominator="4" sustain="0.5" pdel="0" latt="0" dec="0.5" hold="0.5" lshp="0" userwavefile="" ctlenvamt="0" amt="0" lspd_numerator="4" rel="0.1"/>
                  <elres lspd_syncmode="0" x100="0" lpdel="0" lamt="0" lspd="0.1" att="0" lspd_denominator="4" sustain="0.5" pdel="0" latt="0" dec="0.5" hold="0.5" lshp="0" userwavefile="" ctlenvamt="0" amt="0" lspd_numerator="4" rel="0.1"/>
                </eldata>
                <chordcreator chordrange="1" chord="0" chord-enabled="0"/>
                <arpeggiator arp="0" arprange="1" arpskip="0" arptime_denominator="4" arp-enabled="0" arptime="200" arpmode="0" arpmiss="0" arptime_numerator="4" arptime_syncmode="0" arpdir="0" arpcycle="0" arpgate="100"/>
                <midiport outputcontroller="0" fixedoutputvelocity="-1" inputchannel="0" outputchannel="1" outputprogram="1" readable="0" writable="0" fixedinputvelocity="-1" inputcontroller="0" basevelocity="63" fixedoutputnote="-1"/>
                <fxchain numofeffects="1" enabled="1">
                  <effect gate="0" autoquit="1" on="1" autoquit_numerator="4" autoquit_syncmode="0" autoquit_denominator="4" name="ladspaeffect" wet="0.41">
                    <ladspacontrols ports="10">
                      <port04 data="0.040599998"/>
                      <port05>
                        <data scale_type="log" id="7364936" value="223.6068"/>
                      </port05>
                      <port06 data="2.75"/>
                      <port07 data="2.75"/>
                      <port08>
                        <data scale_type="log" id="1255802" value="6000"/>
                      </port08>
                      <port09>
                        <data scale_type="log" id="190211" value="159.05415"/>
                      </port09>
                      <port010 data="0"/>
                      <port011>
                        <data scale_type="log" id="8156417" value="2514.8672"/>
                      </port011>
                      <port012 data="0"/>
                      <port013 data="0.5"/>
                    </ladspacontrols>
                    <key>
                      <attribute name="file" value="zita-reverbs"/>
                      <attribute name="plugin" value="zita-reverb"/>
                    </key>
                  </effect>
                </fxchain>
              </instrumenttrack>
              <pattern pos="0" type="0" steps="64" name="close_ride.ds" muted="0"/>
              <pattern pos="192" type="0" steps="64" name="close_ride.ds" muted="0"/>
              <pattern pos="384" type="0" steps="64" name="close_ride.ds" muted="0"/>
              <pattern pos="576" type="0" steps="16" name="close_ride.ds" muted="0">
                <note pos="0" pan="0" vol="100" len="-192" key="57"/>
                <note pos="24" pan="0" vol="50" len="-192" key="57"/>
                <note pos="48" pan="0" vol="100" len="-192" key="57"/>
                <note pos="72" pan="0" vol="40" len="-192" key="57"/>
                <note pos="96" pan="0" vol="100" len="-192" key="57"/>
                <note pos="120" pan="0" vol="35" len="-192" key="57"/>
                <note pos="144" pan="0" vol="100" len="-192" key="57"/>
                <note pos="168" pan="0" vol="45" len="-192" key="57"/>
              </pattern>
              <pattern pos="768" type="0" steps="16" name="close_ride.ds" muted="0"/>
            </track>
            <track type="0" solo="0" name="tom_mid01.ogg" muted="0">
              <instrumenttrack usemasterpitch="1" pan="30" vol="52" basenote="57" pitchrange="1" fxch="0" pitch="0">
                <instrument name="audiofileprocessor">
                  <audiofileprocessor src="drums/tom_mid01.ogg" reversed="0" looped="0" stutter="0" amp="100" lframe="0" interp="1" sframe="0" eframe="1"/>
                </instrument>
                <eldata ftype="0" fwet="0" fcut="14000" fres="0.5">
                  <elvol lspd_syncmode="0" x100="0" lpdel="0" lamt="0" lspd="0.1" att="0" lspd_denominator="4" sustain="0.5" pdel="0" latt="0" dec="0.5" hold="0.5" lshp="0" userwavefile="" ctlenvamt="0" amt="0" lspd_numerator="4" rel="0.1"/>
                  <elcut lspd_syncmode="0" x100="0" lpdel="0" lamt="0" lspd="0.1" att="0" lspd_denominator="4" sustain="0.5" pdel="0" latt="0" dec="0.5" hold="0.5" lshp="0" userwavefile="" ctlenvamt="0" amt="0" lspd_numerator="4" rel="0.1"/>
                  <elres lspd_syncmode="0" x100="0" lpdel="0" lamt="0" lspd="0.1" att="0" lspd_denominator="4" sustain="0.5" pdel="0" latt="0" dec="0.5" hold="0.5" lshp="0" userwavefile="" ctlenvamt="0" amt="0" lspd_numerator="4" rel="0.1"/>
                </eldata>
                <chordcreator chordrange="1" chord="0" chord-enabled="0"/>
                <arpeggiator arp="0" arprange="1" arpskip="0" arptime_denominator="4" arp-enabled="0" arptime="200" arpmode="0" arpmiss="0" arptime_numerator="4" arptime_syncmode="0" arpdir="0" arpcycle="0" arpgate="100"/>
                <midiport outputcontroller="0" fixedoutputvelocity="-1" inputchannel="0" outputchannel="1" outputprogram="1" readable="0" writable="0" fixedinputvelocity="-1" inputcontroller="0" basevelocity="63" fixedoutputnote="-1"/>
                <fxchain numofeffects="0" enabled="0"/>
              </instrumenttrack>
              <pattern pos="0" type="0" steps="64" name="tom_mid01.ogg" muted="0"/>
              <pattern pos="192" type="0" steps="64" name="tom_mid01.ogg" muted="0"/>
              <pattern pos="384" type="0" steps="64" name="tom_mid01.ogg" muted="0"/>
              <pattern pos="576" type="0" steps="16" name="tom_mid01.ogg" muted="0"/>
              <pattern pos="768" type="0" steps="16" name="tom_mid01.ogg" muted="0">
                <note pos="120" pan="0" vol="30" len="-192" key="57"/>
                <note pos="132" pan="0" vol="55" len="-192" key="57"/>
                <note pos="144" pan="0" vol="100" len="-192" key="57"/>
                <note pos="156" pan="0" vol="100" len="-192" key="57"/>
              </pattern>
            </track>
            <track type="0" solo="0" name="tom_low01.ogg" muted="0">
              <instrumenttrack usemasterpitch="1" pan="30" vol="49.600002" basenote="57" pitchrange="1" fxch="0" pitch="0">
                <instrument name="audiofileprocessor">
                  <audiofileprocessor src="drums/tom_low01.ogg" reversed="0" looped="0" stutter="0" amp="100" lframe="0" interp="1" sframe="0" eframe="1"/>
                </instrument>
                <eldata ftype="0" fwet="0" fcut="14000" fres="0.5">
                  <elvol lspd_syncmode="0" x100="0" lpdel="0" lamt="0" lspd="0.1" att="0" lspd_denominator="4" sustain="0.5" pdel="0" latt="0" dec="0.5" hold="0.5" lshp="0" userwavefile="" ctlenvamt="0" amt="0" lspd_numerator="4" rel="0.1"/>
                  <elcut lspd_syncmode="0" x100="0" lpdel="0" lamt="0" lspd="0.1" att="0" lspd_denominator="4" sustain="0.5" pdel="0" latt="0" dec="0.5" hold="0.5" lshp="0" userwavefile="" ctlenvamt="0" amt="0" lspd_numerator="4" rel="0.1"/>
                  <elres lspd_syncmode="0" x100="0" lpdel="0" lamt="0" lspd="0.1" att="0" lspd_denominator="4" sustain="0.5" pdel="0" latt="0" dec="0.5" hold="0.5" lshp="0" userwavefile="" ctlenvamt="0" amt="0" lspd_numerator="4" rel="0.1"/>
                </eldata>
                <chordcreator chordrange="1" chord="0" chord-enabled="0"/>
                <arpeggiator arp="0" arprange="1" arpskip="0" arptime_denominator="4" arp-enabled="0" arptime="200" arpmode="0" arpmiss="0" arptime_numerator="4" arptime_syncmode="0" arpdir="0" arpcycle="0" arpgate="100"/>
                <midiport outputcontroller="0" fixedoutputvelocity="-1" inputchannel="0" outputchannel="1" outputprogram="1" readable="0" writable="0" fixedinputvelocity="-1" inputcontroller="0" basevelocity="63" fixedoutputnote="-1"/>
                <fxchain numofeffects="0" enabled="0"/>
              </instrumenttrack>
              <pattern pos="0" type="0" steps="64" name="tom_low01.ogg" muted="0"/>
              <pattern pos="192" type="0" steps="64" name="tom_low01.ogg" muted="0"/>
              <pattern pos="384" type="0" steps="64" name="tom_low01.ogg" muted="0"/>
              <pattern pos="576" type="0" steps="16" name="tom_low01.ogg" muted="0"/>
              <pattern pos="768" type="0" steps="16" name="tom_low01.ogg" muted="0">
                <note pos="168" pan="0" vol="100" len="-192" key="57"/>
                <note pos="180" pan="0" vol="100" len="-192" key="57"/>
              </pattern>
            </track>
            <track type="0" solo="0" name="kick_hard01.ogg" muted="0">
              <instrumenttrack usemasterpitch="1" pan="0" vol="80" basenote="57" pitchrange="1" fxch="0" pitch="0">
                <instrument name="audiofileprocessor">
                  <audiofileprocessor src="drums/kick_hard01.ogg" reversed="0" looped="0" stutter="0" amp="100" lframe="0" interp="1" sframe="0" eframe="1"/>
                </instrument>
                <eldata ftype="0" fwet="0" fcut="14000" fres="0.5">
                  <elvol lspd_syncmode="0" x100="0" lpdel="0" lamt="0" lspd="0.1" att="0" lspd_denominator="4" sustain="0.5" pdel="0" latt="0" dec="0.5" hold="0.5" lshp="0" userwavefile="" ctlenvamt="0" amt="0" lspd_numerator="4" rel="0.1"/>
                  <elcut lspd_syncmode="0" x100="0" lpdel="0" lamt="0" lspd="0.1" att="0" lspd_denominator="4" sustain="0.5" pdel="0" latt="0" dec="0.5" hold="0.5" lshp="0" userwavefile="" ctlenvamt="0" amt="0" lspd_numerator="4" rel="0.1"/>
                  <elres lspd_syncmode="0" x100="0" lpdel="0" lamt="0" lspd="0.1" att="0" lspd_denominator="4" sustain="0.5" pdel="0" latt="0" dec="0.5" hold="0.5" lshp="0" userwavefile="" ctlenvamt="0" amt="0" lspd_numerator="4" rel="0.1"/>
                </eldata>
                <chordcreator chordrange="1" chord="0" chord-enabled="0"/>
                <arpeggiator arp="0" arprange="1" arpskip="0" arptime_denominator="4" arp-enabled="0" arptime="200" arpmode="0" arpmiss="0" arptime_numerator="4" arptime_syncmode="0" arpdir="0" arpcycle="0" arpgate="100"/>
                <midiport outputcontroller="0" fixedoutputvelocity="-1" inputchannel="0" outputchannel="1" outputprogram="1" readable="0" writable="0" fixedinputvelocity="-1" inputcontroller="0" basevelocity="63" fixedoutputnote="-1"/>
                <fxchain numofeffects="0" enabled="0"/>
              </instrumenttrack>
              <pattern pos="0" type="0" steps="64" name="kick_hard01.ogg" muted="0"/>
              <pattern pos="192" type="0" steps="64" name="kick_hard01.ogg" muted="0">
                <note pos="0" pan="0" vol="100" len="-192" key="57"/>
                <note pos="36" pan="0" vol="100" len="-192" key="57"/>
                <note pos="84" pan="0" vol="100" len="-192" key="57"/>
                <note pos="108" pan="0" vol="100" len="-192" key="57"/>
                <note pos="120" pan="0" vol="100" len="-192" key="57"/>
                <note pos="192" pan="0" vol="100" len="-192" key="57"/>
                <note pos="228" pan="0" vol="100" len="-192" key="57"/>
                <note pos="276" pan="0" vol="100" len="-192" key="57"/>
                <note pos="300" pan="0" vol="100" len="-192" key="57"/>
                <note pos="312" pan="0" vol="100" len="-192" key="57"/>
                <note pos="384" pan="0" vol="100" len="-192" key="57"/>
                <note pos="420" pan="0" vol="100" len="-192" key="57"/>
                <note pos="468" pan="0" vol="100" len="-192" key="57"/>
                <note pos="492" pan="0" vol="100" len="-192" key="57"/>
                <note pos="504" pan="0" vol="100" len="-192" key="57"/>
                <note pos="576" pan="0" vol="100" len="-192" key="57"/>
                <note pos="612" pan="0" vol="100" len="-192" key="57"/>
                <note pos="660" pan="0" vol="100" len="-192" key="57"/>
                <note pos="684" pan="0" vol="100" len="-192" key="57"/>
                <note pos="696" pan="0" vol="100" len="-192" key="57"/>
              </pattern>
              <pattern pos="384" type="0" steps="64" name="kick_hard01.ogg" muted="0"/>
              <pattern pos="576" type="0" steps="16" name="kick_hard01.ogg" muted="0"/>
              <pattern pos="768" type="0" steps="16" name="kick_hard01.ogg" muted="0"/>
            </track>
            <track minimized="0" x="783" maximized="0" type="0" y="317" height="466" visible="1" solo="0" name="nasty_snare01.ogg" muted="0" tab="3" width="262">
              <instrumenttrack usemasterpitch="1" pan="0" vol="58.400002" basenote="57" pitchrange="1" fxch="0" pitch="0">
                <instrument name="audiofileprocessor">
                  <audiofileprocessor src="drums/nasty_snare01.ogg" reversed="0" looped="0" stutter="0" amp="100" lframe="0" interp="1" sframe="0" eframe="1"/>
                </instrument>
                <eldata ftype="0" fwet="0" fcut="14000" fres="0.5">
                  <elvol lspd_syncmode="0" x100="0" lpdel="0" lamt="0" lspd="0.1" att="0" lspd_denominator="4" sustain="0.5" pdel="0" latt="0" dec="0.5" hold="0.5" lshp="0" userwavefile="" ctlenvamt="0" amt="0" lspd_numerator="4" rel="0.1"/>
                  <elcut lspd_syncmode="0" x100="0" lpdel="0" lamt="0" lspd="0.1" att="0" lspd_denominator="4" sustain="0.5" pdel="0" latt="0" dec="0.5" hold="0.5" lshp="0" userwavefile="" ctlenvamt="0" amt="0" lspd_numerator="4" rel="0.1"/>
                  <elres lspd_syncmode="0" x100="0" lpdel="0" lamt="0" lspd="0.1" att="0" lspd_denominator="4" sustain="0.5" pdel="0" latt="0" dec="0.5" hold="0.5" lshp="0" userwavefile="" ctlenvamt="0" amt="0" lspd_numerator="4" rel="0.1"/>
                </eldata>
                <chordcreator chordrange="1" chord="0" chord-enabled="0"/>
                <arpeggiator arp="0" arprange="1" arpskip="0" arptime_denominator="4" arp-enabled="0" arptime="200" arpmode="0" arpmiss="0" arptime_numerator="4" arptime_syncmode="0" arpdir="0" arpcycle="0" arpgate="100"/>
                <midiport outputcontroller="0" fixedoutputvelocity="-1" inputchannel="0" outputchannel="1" outputprogram="1" readable="0" writable="0" fixedinputvelocity="-1" inputcontroller="0" basevelocity="63" fixedoutputnote="-1"/>
                <fxchain numofeffects="2" enabled="1">
                  <effect gate="0" autoquit="1" on="1" autoquit_numerator="4" autoquit_syncmode="0" autoquit_denominator="4" name="stereomatrix" wet="1">
                    <stereomatrixcontrols l-l="-1" l-r="0" r-r="1" r-l="0"/>
                    <key/>
                  </effect>
                  <effect gate="0" autoquit="1" on="1" autoquit_numerator="4" autoquit_syncmode="0" autoquit_denominator="4" name="ladspaeffect" wet="0.14">
                    <ladspacontrols ports="10">
                      <port04 data="0.060000002"/>
                      <port05>
                        <data scale_type="log" id="4116232" value="223.6068"/>
                      </port05>
                      <port06 data="2.75"/>
                      <port07 data="2.75"/>
                      <port08>
                        <data scale_type="log" id="8037257" value="6000"/>
                      </port08>
                      <port09>
                        <data scale_type="log" id="7820810" value="159.05415"/>
                      </port09>
                      <port010 data="0"/>
                      <port011>
                        <data scale_type="log" id="4428122" value="2514.8672"/>
                      </port011>
                      <port012 data="0"/>
                      <port013 data="0.5"/>
                    </ladspacontrols>
                    <key>
                      <attribute name="file" value="zita-reverbs"/>
                      <attribute name="plugin" value="zita-reverb"/>
                    </key>
                  </effect>
                </fxchain>
              </instrumenttrack>
              <pattern pos="0" type="0" steps="64" name="nasty_snare01.ogg" muted="0"/>
              <pattern pos="192" type="0" steps="64" name="nasty_snare01.ogg" muted="0">
                <note pos="48" pan="0" vol="100" len="-192" key="57"/>
                <note pos="144" pan="0" vol="100" len="-192" key="57"/>
                <note pos="240" pan="0" vol="100" len="-192" key="57"/>
                <note pos="336" pan="0" vol="100" len="-192" key="57"/>
                <note pos="432" pan="0" vol="100" len="-192" key="57"/>
                <note pos="528" pan="0" vol="100" len="-192" key="57"/>
                <note pos="624" pan="0" vol="100" len="-192" key="57"/>
                <note pos="720" pan="0" vol="100" len="-192" key="57"/>
              </pattern>
              <pattern pos="384" type="0" steps="64" name="nasty_snare01.ogg" muted="0"/>
              <pattern pos="576" type="0" steps="16" name="nasty_snare01.ogg" muted="0"/>
              <pattern pos="768" type="0" steps="16" name="nasty_snare01.ogg" muted="0"/>
            </track>
            <track type="0" solo="0" name="amen_ride.ds" muted="0">
              <instrumenttrack usemasterpitch="1" pan="0" vol="47.200001" basenote="57" pitchrange="1" fxch="0" pitch="0">
                <instrument name="audiofileprocessor">
                  <audiofileprocessor src="drumsynth/misc_hats/amen_ride.ds" reversed="0" looped="0" stutter="0" amp="100" lframe="0" interp="1" sframe="0" eframe="1"/>
                </instrument>
                <eldata ftype="0" fwet="0" fcut="14000" fres="0.5">
                  <elvol lspd_syncmode="0" x100="0" lpdel="0" lamt="0" lspd="0.1" att="0" lspd_denominator="4" sustain="0.5" pdel="0" latt="0" dec="0.5" hold="0.5" lshp="0" userwavefile="" ctlenvamt="0" amt="0" lspd_numerator="4" rel="0.1"/>
                  <elcut lspd_syncmode="0" x100="0" lpdel="0" lamt="0" lspd="0.1" att="0" lspd_denominator="4" sustain="0.5" pdel="0" latt="0" dec="0.5" hold="0.5" lshp="0" userwavefile="" ctlenvamt="0" amt="0" lspd_numerator="4" rel="0.1"/>
                  <elres lspd_syncmode="0" x100="0" lpdel="0" lamt="0" lspd="0.1" att="0" lspd_denominator="4" sustain="0.5" pdel="0" latt="0" dec="0.5" hold="0.5" lshp="0" userwavefile="" ctlenvamt="0" amt="0" lspd_numerator="4" rel="0.1"/>
                </eldata>
                <chordcreator chordrange="1" chord="0" chord-enabled="0"/>
                <arpeggiator arp="0" arprange="1" arpskip="0" arptime_denominator="4" arp-enabled="0" arptime="200" arpmode="0" arpmiss="0" arptime_numerator="4" arptime_syncmode="0" arpdir="0" arpcycle="0" arpgate="100"/>
                <midiport outputcontroller="0" fixedoutputvelocity="-1" inputchannel="0" outputchannel="1" outputprogram="1" readable="0" writable="0" fixedinputvelocity="-1" inputcontroller="0" basevelocity="63" fixedoutputnote="-1"/>
                <fxchain numofeffects="0" enabled="0"/>
              </instrumenttrack>
              <pattern pos="0" type="0" steps="64" name="amen_ride.ds" muted="0"/>
              <pattern pos="192" type="0" steps="64" name="amen_ride.ds" muted="0">
                <note pos="48" pan="0" vol="100" len="-192" key="57"/>
                <note pos="144" pan="0" vol="100" len="-192" key="57"/>
                <note pos="240" pan="0" vol="100" len="-192" key="57"/>
                <note pos="336" pan="0" vol="100" len="-192" key="57"/>
                <note pos="432" pan="0" vol="100" len="-192" key="57"/>
                <note pos="528" pan="0" vol="100" len="-192" key="57"/>
                <note pos="624" pan="0" vol="100" len="-192" key="57"/>
                <note pos="720" pan="0" vol="100" len="-192" key="57"/>
              </pattern>
              <pattern pos="384" type="0" steps="64" name="amen_ride.ds" muted="0"/>
              <pattern pos="576" type="0" steps="16" name="amen_ride.ds" muted="0"/>
              <pattern pos="768" type="0" steps="16" name="amen_ride.ds" muted="0"/>
            </track>
            <track type="0" solo="0" name="crash01.ogg" muted="0">
              <instrumenttrack usemasterpitch="1" pan="0" vol="20" basenote="45" pitchrange="1" fxch="0" pitch="0">
                <instrument name="audiofileprocessor">
                  <audiofileprocessor src="drums/crash01.ogg" reversed="0" looped="0" stutter="0" amp="100" lframe="0" interp="1" sframe="0" eframe="1"/>
                </instrument>
                <eldata ftype="1" fwet="1" fcut="1793" fres="0.5">
                  <elvol lspd_syncmode="0" x100="0" lpdel="0" lamt="0" lspd="0.1" att="0" lspd_denominator="4" sustain="0.5" pdel="0" latt="0" dec="0.5" hold="0.5" lshp="0" userwavefile="" ctlenvamt="0" amt="0" lspd_numerator="4" rel="0.1"/>
                  <elcut lspd_syncmode="0" x100="0" lpdel="0" lamt="0" lspd="0.1" att="0" lspd_denominator="4" sustain="0.5" pdel="0" latt="0" dec="0.5" hold="0.5" lshp="0" userwavefile="" ctlenvamt="0" amt="0" lspd_numerator="4" rel="0.1"/>
                  <elres lspd_syncmode="0" x100="0" lpdel="0" lamt="0" lspd="0.1" att="0" lspd_denominator="4" sustain="0.5" pdel="0" latt="0" dec="0.5" hold="0.5" lshp="0" userwavefile="" ctlenvamt="0" amt="0" lspd_numerator="4" rel="0.1"/>
                </eldata>
                <chordcreator chordrange="1" chord="0" chord-enabled="0"/>
                <arpeggiator arp="0" arprange="1" arpskip="0" arptime_denominator="4" arp-enabled="0" arptime="200" arpmode="0" arpmiss="0" arptime_numerator="4" arptime_syncmode="0" arpdir="0" arpcycle="0" arpgate="100"/>
                <midiport outputcontroller="0" fixedoutputvelocity="-1" inputchannel="0" outputchannel="1" outputprogram="1" readable="0" writable="0" fixedinputvelocity="-1" inputcontroller="0" basevelocity="63" fixedoutputnote="-1"/>
                <fxchain numofeffects="0" enabled="0"/>
              </instrumenttrack>
              <pattern pos="0" type="0" steps="64" name="crash01.ogg" muted="0"/>
              <pattern pos="192" type="0" steps="64" name="crash01.ogg" muted="0">
                <note pos="24" pan="0" vol="100" len="-192" key="57"/>
                <note pos="48" pan="0" vol="100" len="-192" key="57"/>
                <note pos="72" pan="0" vol="100" len="-192" key="57"/>
                <note pos="96" pan="0" vol="100" len="-192" key="57"/>
                <note pos="120" pan="0" vol="100" len="-192" key="57"/>
                <note pos="144" pan="0" vol="100" len="-192" key="57"/>
                <note pos="168" pan="0" vol="100" len="-192" key="57"/>
                <note pos="216" pan="0" vol="100" len="-192" key="57"/>
                <note pos="240" pan="0" vol="100" len="-192" key="57"/>
                <note pos="264" pan="0" vol="100" len="-192" key="57"/>
                <note pos="288" pan="0" vol="100" len="-192" key="57"/>
                <note pos="312" pan="0" vol="100" len="-192" key="57"/>
                <note pos="336" pan="0" vol="100" len="-192" key="57"/>
                <note pos="360" pan="0" vol="100" len="-192" key="57"/>
                <note pos="408" pan="0" vol="100" len="-192" key="57"/>
                <note pos="432" pan="0" vol="100" len="-192" key="57"/>
                <note pos="456" pan="0" vol="100" len="-192" key="57"/>
                <note pos="480" pan="0" vol="100" len="-192" key="57"/>
                <note pos="504" pan="0" vol="100" len="-192" key="57"/>
                <note pos="528" pan="0" vol="100" len="-192" key="57"/>
                <note pos="552" pan="0" vol="100" len="-192" key="57"/>
                <note pos="576" pan="0" vol="100" len="-192" key="57"/>
                <note pos="600" pan="0" vol="100" len="-192" key="57"/>
                <note pos="624" pan="0" vol="100" len="-192" key="57"/>
                <note pos="648" pan="0" vol="100" len="-192" key="57"/>
                <note pos="672" pan="0" vol="100" len="-192" key="57"/>
                <note pos="696" pan="0" vol="100" len="-192" key="57"/>
                <note pos="720" pan="0" vol="100" len="-192" key="57"/>
              </pattern>
              <pattern pos="384" type="0" steps="64" name="crash01.ogg" muted="0"/>
              <pattern pos="576" type="0" steps="16" name="crash01.ogg" muted="0"/>
              <pattern pos="768" type="0" steps="16" name="crash01.ogg" muted="0"/>
            </track>
          </trackcontainer>
        </bbtrack>
        <bbtco pos="768" usestyle="1" len="6912" color="4286611584" name="" muted="0"/>
        <bbtco pos="10752" usestyle="1" len="6144" color="4286611584" name="" muted="0"/>
      </track>
      <track type="1" solo="0" name="Clone of Beat/Bassline 4" muted="0">
        <bbtrack/>
        <bbtco pos="7680" usestyle="1" len="3072" color="4286611584" name="" muted="0"/>
      </track>
      <track type="1" solo="0" name="Beat/Bassline 2" muted="0">
        <bbtrack/>
        <bbtco pos="9216" usestyle="1" len="7680" color="4286611584" name="" muted="0"/>
      </track>
      <track type="1" solo="0" name="Beat/Bassline 2" muted="0">
        <bbtrack/>
        <bbtco pos="7680" usestyle="1" len="3072" color="4286611584" name="" muted="0"/>
        <bbtco pos="12288" usestyle="1" len="4608" color="4286611584" name="" muted="0"/>
      </track>
      <track type="1" solo="0" name="Beat/Bassline 3" muted="0">
        <bbtrack/>
        <bbtco pos="11328" usestyle="1" len="192" color="4286611584" name="" muted="0"/>
        <bbtco pos="7488" usestyle="1" len="192" color="4286611584" name="" muted="0"/>
      </track>
    </trackcontainer>
    <track type="6" solo="0" name="Automation track" muted="0">
      <automationtrack/>
      <automationpattern pos="0" mute="0" tens="1" len="192" prog="0" name="Numerator"/>
      <automationpattern pos="0" mute="0" tens="1" len="192" prog="0" name="Denominator"/>
      <automationpattern pos="0" mute="0" tens="1" len="192" prog="0" name="Tempo"/>
      <automationpattern pos="0" mute="0" tens="1" len="192" prog="0" name="Master volume"/>
      <automationpattern pos="0" mute="0" tens="1" len="192" prog="0" name="Master pitch"/>
      <automationpattern pos="0" mute="0" tens="1" len="192" prog="0" name="Numerator"/>
      <automationpattern pos="0" mute="0" tens="1" len="192" prog="0" name="Denominator"/>
      <automationpattern pos="0" mute="0" tens="1" len="192" prog="0" name="Tempo"/>
      <automationpattern pos="0" mute="0" tens="1" len="192" prog="0" name="Master volume"/>
      <automationpattern pos="0" mute="0" tens="1" len="192" prog="0" name="Master pitch"/>
    </track>
    <fxmixer minimized="0" x="101" maximized="0" y="450" height="333" visible="0" width="561">
      <fxchannel volume="0.55300003" num="0" soloed="0" muted="0" name="Master">
        <fxchain numofeffects="0" enabled="1"/>
      </fxchannel>
      <fxchannel volume="0.44999999" num="1" soloed="0" muted="0" name="Percussion">
        <fxchain numofeffects="0" enabled="0"/>
        <send amount="1" channel="0"/>
      </fxchannel>
      <fxchannel volume="0.45300001" num="2" soloed="0" muted="0" name="SBass">
        <fxchain numofeffects="1" enabled="1">
          <effect gate="0" autoquit="1" on="1" autoquit_numerator="4" autoquit_syncmode="0" autoquit_denominator="4" name="ladspaeffect" wet="1">
            <ladspacontrols ports="4">
              <port02 data="0.50200003"/>
              <port03 data="0.16290751"/>
              <port04 data="0.250375"/>
              <port05 data="0.25"/>
            </ladspacontrols>
            <key>
              <attribute name="file" value="caps"/>
              <attribute name="plugin" value="Plate2x2"/>
            </key>
          </effect>
        </fxchain>
        <send amount="1" channel="0"/>
      </fxchannel>
      <fxchannel volume="0.69999999" num="3" soloed="0" muted="0" name="Organic">
        <fxchain numofeffects="0" enabled="0"/>
        <send amount="1" channel="0"/>
      </fxchannel>
      <fxchannel volume="0.79999995" num="4" soloed="0" muted="0" name="BitInvader">
        <fxchain numofeffects="0" enabled="0"/>
        <send amount="1" channel="0"/>
      </fxchannel>
    </fxmixer>
    <ControllerRackView minimized="0" x="836" maximized="0" y="407" height="200" visible="0" width="350"/>
    <pianoroll minimized="0" x="737" maximized="0" y="394" height="487" visible="0" width="860"/>
    <automationeditor minimized="0" x="56" maximized="0" y="255" height="400" visible="0" width="860"/>
    <projectnotes minimized="0" x="1" maximized="0" y="1" height="400" visible="0" width="860"><![CDATA[<!DOCTYPE HTML PUBLIC "-//W3C//DTD HTML 4.0//EN" "http://www.w3.org/TR/REC-html40/strict.dtd">
<html><head><meta name="qrichtext" content="1" /><style type="text/css">
p, li { white-space: pre-wrap; }
</style></head><body style=" font-family:'Cantarell'; font-size:11pt; font-weight:400; font-style:normal;">
<p style="-qt-paragraph-type:empty; margin-top:0px; margin-bottom:0px; margin-left:0px; margin-right:0px; -qt-block-indent:0; text-indent:0px;"><br /></p></body></html>]]></projectnotes>
    <timeline lp1pos="17088" lp0pos="0" lpstate="1"/>
    <controllers/>
  </song>
</lmms-project>
