<?xml version="1.0"?>
<!DOCTYPE lmms-project>
<lmms-project version="1.0" creator="LMMS" creatorversion="1.2.2" type="song">
  <head timesig_numerator="4" timesig_denominator="4" mastervol="100" masterpitch="0">
    <bpm value="124" id="4555788" scale_type="linear"/>
  </head>
  <song>
    <trackcontainer type="song" minimized="0" width="935" height="498" maximized="1" visible="1" x="304" y="97">
      <track type="0" name="Phase bass" solo="0" muted="0">
        <instrumenttrack usemasterpitch="1" pitchrange="1" fxch="1" pan="0" basenote="69" vol="15" pitch="0">
          <instrument name="watsyn">
            <watsyn envHold_denominator="4" b1_mult="24" envAtt_denominator="4" abmix="-84.300003" a1_pan="0" a2_pan="-11.1" a1_ltune="7" a2_wave="sTlbPzfpXj8yamI/6LtlP6XdaD/Dzms/pI5uP7cccT9xeHM/VaF1P/CWdz/YWHk/seZ6PyZAfD/wZH0/0lR+P5kPfz8elX8/RuV/PwAAgD9G5X8/HpV/P5kPfz/SVH4/8GR9PyZAfD+x5no/2Fh5P++Wdz9VoXU/cHhzP7YccT+kjm4/ws5rP6TdaD/nu2U/MmpiPzfpXj+xOVs/ZVxXPyFSUz+9G08/GbpKPyMuRj/MeEE/EJs8P/KVNz9/ajI/yxktP/OkJz8ZDSI/alMcPxd5Fj9ZfxA/b2cKP58yBD9qxPs+BO/uPrvn4T5HsdQ+ak7HPu/BuT6rDqw+czeePjo/kD7iKII+uu5nPkJbSz5VnS4+8roRPkN06T3jQa892NVpPS3u6Twuvbuzi+7pvAfWab37Qa+9WnTpvf66Eb5gnS6+TltLvsXuZ77oKIK+QD+Qvnk3nr6xDqy+9cG5vm9Ox75MsdS+wOfhvgrv7r5vxPu+ojIEv3JnCr9bfxC/GnkWv21THL8cDSK/9aQnv80ZLb+BajK/9JU3vxKbPL/OeEG/KC5Gvxu6Sr+/G0+/IFJTv2ZcV7+wOVu/OelevzJqYr/pu2W/pN1ov8POa7+kjm6/txxxv3B4c79VoXW/8ZZ3v9lYeb+y5nq/JkB8v/Fkfb/SVH6/mQ9/vx6Vf79G5X+/AACAv0blf78elX+/mA9/v9JUfr/wZH2/JkB8v7Dmer/ZWHm/75Z3v1Whdb9weHO/tBxxv6OObr/Azmu/pN1ov+W7Zb8yamK/NOlev7A5W79iXFe/IFJTv7obT78bukq/Ii5Gv854Qb8Pmzy/85U3v35qMr/NGS2/8qQnvxsNIr9pUxy/E3kWv1h/EL9qZwq/njIEv2HE+74C7+6+sefhvkSx1L5gTse+7MG5vqEOrL54N56+Nz+Qvucogr607me+TFtLvk+dLr78uhG+N3TpvfhBr73B1Wm9fu7pvAAAAABi7uk89tVpPfNBrz1VdOk9/LoRPl+dLj5NW0s+xe5nPugogj5BP5A+ejeePqoOrD7vwbk+ak7HPkex1D685+E+Be/uPmvE+z6gMgQ/cGcKP1p/ED8YeRY/a1McPxsNIj/1pCc/zRktP4BqMj/zlTc/EZs8P854QT8mLkY/G7pKP70bTz8gUlM/ZFxXPw==" a2_rtune="-11" a2_vol="134.60001" b1_pan="21.9" b2_pan="0" b2_rtune="0" envHold="0" envAtt_syncmode="0" b2_vol="146.3" envAtt="2" a2_ltune="-1" b1_ltune="2" a1_rtune="1" b2_wave="XvhLv5WZRr97BkG/lTo7v5w0Nb/a9C6/U3wov07MIb8r5hq/WcsTv1V9DL+k/QS/tpv6viDf6r7VyNq+LFzKvpicub6Xjai+tjKXvpaPhb7ST2e+7f5Cvrw0Hr7B9/G9Ws6mvaB9Nr2ymf+7EL/mPIg/fz3dGb89GHf1PbOhED6onyE+zk8vPoYePD51gko+SDRcPp27cT68N4U+iGiSPpSHnz6qwas+pIW2Pi6Zvz5nFsc+iFbNPtDP0j7O79c+q/3cPiMO4j6wCuc+YsTrPpgI8D4gsvM+9rX2Pswq+T5/R/s+M1b9PhSg/z4iLgE/+NQCP0XKBD/9DAc/FJYJP9dXDD96Pg8/mTISP5MbFT8+4Bc/AWgaP0afHD/Ufh4/qhAgP5ZsIT92rCI/694jP4UBJT8+BiY/ReAmP5iPJz+tJCg/IrsoP2RvKT/PVCo/f3ArPyW6LD8WIS4/FZIvPyP7MD8MTTI/2nwzP7iGND86cTU/nU02P34yNz/CMjg/CVY5P66XOj9w7Ds/PEk9P12lPj+Q9z8/CDNBPxBKQj/ZNUM/q/1DP8i2RD9ne0U/X11GP05cRz8iZUg/MVtJP0AlSj8Ot0o/KhNLPwpGSz8lX0s/cmxLP7t5Sz/Zkks/t8VLP9EhTD+Ts0w/ZX1NP3NyTj/Zd08/6mxQP7k2UT96yFE/hCRSPwdXUj+EblI/qHVSPytvUj/cUVI//gJSP7pQUT8j8k8/vZNNP0/xST8F80Q/Vbs+P5iVNz+ewy8/UzgnP+pXHT8Z3BA/zPr/Pgrt0T7GmJU+GSIYPmyzQrz6lzO+/rSnvkVm6r4Y1A+/oyckv+KKM788nD+/ZbhJv0LAUr/NGlu/Cddiv1PVab9P6W+/5+90v+DaeL/ntHu/1p99v3PNfr/SdH+/xMd/vwnsf7/d+X+/Zf5/v6j/f7/v/3+//f9/vwAAgL8AAIC/AACAvwAAgL8AAIC/AACAvwAAgL8AAIC/AACAvwAAgL8AAIC/AACAvwAAgL8AAIC/AACAvwAAgL8AAIC/AACAvwAAgL8AAIC/AACAv/3/f7/4/3+/zv9/vyD/f7+j/H+/yfR/vzzff79Uq3+/pzx/v2Zqfr9ZBH2/h956v1/gd7+JEHS/7pVvvw2sar99j2W/BWxgv0dUW7+GRFa/QyxRvw==" envHold_numerator="4" a1_wave="DaxxP4gqcj8NrHE/VTlwP8zqbT/o42o/+kxnP01NYz/CBl8/r5NaP58GVj+Ea1E/ZMlMPwQkSD9GfUM//NU+P4IuOj/4hjU/at8wP9o3LD9KkCc/uugiPypBHj+amRk/CPIUP3RKED/Togs/AvsGP5tSAj/uUPs+aPPxPn5/6D4T2t4+qNDUPoIOyj5ZFL4+JjmwPgi7nz6K5Is+f4RoPpa2MT70Xuk9wghQPfxrTbyoO5S9qYwAvjzlLb6mLFG+KIZqvuHKer5siIG+IymCvsxRf77gunS+oWRlvm6QUr4EAT6+K9kpvu9JGL6eLQu+fbQDvmg/Ar5PcAa+smMPviz6G76AGSu+hNY7vjOFTb5KtV++4iRyvnxYgr5gpIu+dPKUvkVBnr5RkKe+bN+wvowuur6sfcO+zszMvu4b1r4Oa9++L7rovk8J8r5wWPu+yFMCv1j7Br/pogu/ekoQvwryFL+amRm/KkEev7roIr9KkCe/2jcsv2rfML/6hjW/hC46v/zVPr9GfUO/BSRIv2TJTL+Fa1G/oQZWv7CTWr/FBl+/T01jv/xMZ7/q42q/zuptv1U5cL8NrHG/iCpyvw2scb9VOXC/zOptv+jjar/6TGe/TU1jv8IGX7+vk1q/nwZWv4RrUb9kyUy/BCRIv0Z9Q7/81T6/gi46v/iGNb9q3zC/2jcsv0qQJ7+66CK/KkEev5qZGb8J8hS/eUoQv+miC79Y+wa/yFMCv3BY+75QCfK+Lrrovg1r377tG9a+yszMvp99w75CLrq+GN6wvgyLp77yLp6+87mUvqwIi7451oC+0FxrvrbSUb7aeTO+ndcOvpoxxr3IeEK95MbXO9yDfz0JQO49Ly8pPqjkUz7einY+7NiIPgRXkz46hZs+thGiPs58pz5bF6w+CAmwPtpVsz7H4bU+XHe3PrrXtz461rY+rnm0PuIVsT5qTq0+HPupPjb1pz664Kc+TgiqPpFYrj4qeLQ+5u27PsJDxD5JHM0+pzjWPlZ03z7YvOg++wnyPpRY+z7LUwI/WPsGP+miCz96ShA/CvIUP5qZGT8qQR4/uugiP0qQJz/aNyw/at8wP/qGNT+ELjo//NU+P0Z9Qz8FJEg/ZMlMP4VrUT+hBlY/sJNaP8UGXz9PTWM//ExnP+rjaj/O6m0/VTlwPw==" envDec="145" envDec_syncmode="0" envDec_numerator="4" envDec_denominator="4" envAmt="134" b1_wave="WLMevoAP3r4gpie/09hNv65bY78W7Gy/b3Rvv2aGbr/cU2y/EA1qvzIPaL/5PWa/r3Vkv2WtYr8c5WC/0hxfv4hUXb8/jFu/9cNZv6v7V79iM1a/GGtUv86iUr+F2lC/OxJPv/JJTb+ogUu/XrlJvxXxR7/LKEa/gWBEvziYQr/uz0C/pAc/v1s/Pb8Rdzu/yK45v37mN780Hja/61U0v6GNMr9XxTC/Dv0uv8Q0Lb96bCu/MaQpv+fbJ7+dEya/VEskvwqDIr/BuiC/d/Iev4/YG7/tGhK/v3H4vicgvr77LI++NDNtvlZVVb5cj0K+Y8kvvmoDHb4iIgq+N9DtvRSux716FKa9aQONve7udr0NdFq9iyU/vQrXI72IiAi9DHTavAjXo7wKdFq8BnTauwAAgDEWdNo7EnRaPAzXozwQdNo8iogIPdijID2NJR89MpacPI/C9bzhesy9PQovvpqZbb53d4++YCyhvpDCrb7sUbi+banCvl10zb6G0Ni+mM/jvnIi7b5Kq/S+cFj7vlDuAL9oMAS/gHIHv5i0Cr8E+Q2/7DYRv9wcFL8k/hW/umgWvxWuFb/iehS/MzMTv4XrEb/XoxC/KVwPv3sUDr/NzAy/H4ULv3E9Cr/D9Qi/Fa4Hv2ZmBr+4HgW/hsoDv1swAr9Y8v++9ij6vui0875ERO2+Cfjmvgu24L4OdNq+EDLUvhLwzb4Vrse+F2zBvhkqu74b6LS+HqauviBkqL4REaG+pHCTvs3MbL6X/Aq+9llRvK/G9T1UZ4E+VhbAPioL8D5+lgU/3BMLP/VDDT8B5Q4/DYYQPxknEj8lyBM/MWkVPz0KFz9Jqxg/VUwaP2LtGz9ujh0/ei8fP4bQID+ScSI/nhIkP6qzJT+2VCc/wvUoP8+WKj/bNyw/59gtP/N5Lz//GjE/C7wyPxddND8j/jU/L583PzxAOT9I4To/VII8P2AjPj9sxD8/eGVBP4QGQz+Qp0Q/nEhGP6jpRz+1ikk/wStLP83MTD/ZbU4/5Q5QP/GvUT/9UFM/CfJUPxWTVj8iNFg/LtVZPzp2Wz9GF10/UrheP15ZYD9q+mE/dptjP4I8ZT+P3WY/m35oP6cfaj9Bs2s/MwRtP03YbT9vMW4/PMJtP02vaj/mB2E/C4VLP1hSJT/wZ9k+OGQVPg==" amod="0" bmod="3" a1_mult="8" b2_mult="4" envHold_syncmode="0" a1_vol="103.4" b1_rtune="-7" b2_ltune="-12" a2_mult="4" b1_vol="63.700001" xtalk="0" envAtt_numerator="4"/>
          </instrument>
          <eldata fcut="14000" fwet="0" ftype="0" fres="0.5">
            <elvol rel="0.121" amt="1" lspd="0.1" lamt="0" sustain="0.90399998" userwavefile="" x100="0" ctlenvamt="0" lpdel="0" att="0" dec="0.5" pdel="0" lspd_numerator="4" lshp="0" latt="0" lspd_denominator="4" hold="0.13" lspd_syncmode="0"/>
            <elcut rel="0.1" amt="0" lspd="0.1" lamt="0" sustain="0.5" userwavefile="" x100="0" ctlenvamt="0" lpdel="0" att="0" dec="0.5" pdel="0" lspd_numerator="4" lshp="0" latt="0" lspd_denominator="4" hold="0.5" lspd_syncmode="0"/>
            <elres rel="0.26300001" amt="0" lspd="0.1" lamt="0" sustain="0.69199997" userwavefile="" x100="0" ctlenvamt="0" lpdel="0" att="0" dec="0.5" pdel="0" lspd_numerator="4" lshp="0" latt="0" lspd_denominator="4" hold="0.116" lspd_syncmode="0"/>
          </eldata>
          <chordcreator chordrange="1" chord="0" chord-enabled="0"/>
          <arpeggiator arpskip="0" arptime_syncmode="0" arpcycle="0" arp="0" arpmiss="0" arptime_denominator="4" arp-enabled="0" arptime_numerator="4" arpdir="0" arprange="1" arptime="100" arpgate="100" arpmode="0"/>
          <midiport outputprogram="1" readable="0" fixedoutputnote="-1" inputchannel="0" inputcontroller="0" basevelocity="63" outputchannel="1" writable="0" fixedoutputvelocity="-1" outputcontroller="0" fixedinputvelocity="-1"/>
          <fxchain numofeffects="4" enabled="1">
            <effect autoquit="1" name="ladspaeffect" on="1" autoquit_syncmode="0" autoquit_denominator="4" gate="0" wet="1" autoquit_numerator="4">
              <ladspacontrols link="1" ports="4">
                <port00 link="1" data="30"/>
                <port01 link="1" data="-14.174999"/>
                <port10 data="30"/>
                <port11 data="-14.174999"/>
              </ladspacontrols>
              <key>
                <attribute value="satan_maximiser_1408" name="file"/>
                <attribute value="satanMaximiser" name="plugin"/>
              </key>
            </effect>
            <effect autoquit="1" name="ladspaeffect" on="1" autoquit_syncmode="0" autoquit_denominator="4" gate="0" wet="0.65999997" autoquit_numerator="4">
              <ladspacontrols ports="7">
                <port00 data="1.25"/>
                <port01 data="90"/>
                <port02 data="75"/>
                <port03 data="25"/>
                <port04 data="100"/>
                <port05 data="0"/>
                <port06 data="0"/>
              </ladspacontrols>
              <key>
                <attribute value="tap_chorusflanger" name="file"/>
                <attribute value="tap_chorusflanger" name="plugin"/>
              </key>
            </effect>
            <effect autoquit="1" name="ladspaeffect" on="1" autoquit_syncmode="0" autoquit_denominator="4" gate="0" wet="1" autoquit_numerator="4">
              <ladspacontrols ports="4">
                <port02 data="0.50200003"/>
                <port03 data="0.050000001"/>
                <port04 data="0.250375"/>
                <port05 data="0.25"/>
              </ladspacontrols>
              <key>
                <attribute value="caps" name="file"/>
                <attribute value="Plate2x2" name="plugin"/>
              </key>
            </effect>
            <effect autoquit="1" name="ladspaeffect" on="1" autoquit_syncmode="0" autoquit_denominator="4" gate="0" wet="1" autoquit_numerator="4">
              <ladspacontrols ports="10">
                <port04 data="140"/>
                <port05 data="11"/>
                <port06 data="8"/>
                <port07 data="8"/>
                <port08 data="0.5"/>
                <port09 data="0"/>
                <port010 data="1"/>
                <port011 data="2"/>
                <port012 data="1"/>
                <port013 data="1"/>
              </ladspacontrols>
              <key>
                <attribute value="calf" name="file"/>
                <attribute value="VintageDelay" name="plugin"/>
              </key>
            </effect>
          </fxchain>
        </instrumenttrack>
        <pattern type="1" name="Regular" steps="16" pos="0" muted="0">
          <note key="50" pan="0" vol="100" len="12" pos="0"/>
          <note key="60" pan="0" vol="100" len="12" pos="12"/>
          <note key="60" pan="0" vol="100" len="24" pos="36"/>
          <note key="59" pan="0" vol="100" len="12" pos="60"/>
          <note key="57" pan="0" vol="100" len="12" pos="72"/>
          <note key="48" pan="0" vol="100" len="12" pos="72"/>
          <note key="59" pan="0" vol="100" len="12" pos="84"/>
          <note key="50" pan="0" vol="100" len="12" pos="96"/>
          <note key="60" pan="0" vol="100" len="12" pos="108"/>
          <note key="60" pan="0" vol="100" len="24" pos="132"/>
          <note key="59" pan="0" vol="100" len="12" pos="156"/>
          <note key="57" pan="0" vol="100" len="12" pos="168"/>
          <note key="48" pan="0" vol="100" len="12" pos="168"/>
          <note key="59" pan="0" vol="100" len="12" pos="180"/>
          <note key="50" pan="0" vol="100" len="12" pos="192"/>
          <note key="60" pan="0" vol="100" len="12" pos="204"/>
          <note key="60" pan="0" vol="100" len="24" pos="228"/>
          <note key="59" pan="0" vol="100" len="12" pos="252"/>
          <note key="57" pan="0" vol="100" len="12" pos="264"/>
          <note key="48" pan="0" vol="100" len="12" pos="264"/>
          <note key="59" pan="0" vol="100" len="12" pos="276"/>
          <note key="50" pan="0" vol="100" len="12" pos="288"/>
          <note key="60" pan="0" vol="100" len="12" pos="300"/>
          <note key="48" pan="0" vol="100" len="12" pos="300"/>
          <note key="48" pan="0" vol="100" len="12" pos="312"/>
          <note key="50" pan="0" vol="100" len="12" pos="324"/>
          <note key="51" pan="0" vol="100" len="12" pos="336"/>
          <note key="53" pan="0" vol="100" len="12" pos="348"/>
          <note key="53" pan="0" vol="100" len="12" pos="360"/>
          <note key="51" pan="0" vol="100" len="12" pos="372"/>
          <note key="50" pan="0" vol="100" len="12" pos="384"/>
          <note key="60" pan="0" vol="100" len="12" pos="396"/>
          <note key="60" pan="0" vol="100" len="24" pos="420"/>
          <note key="59" pan="0" vol="100" len="12" pos="444"/>
          <note key="57" pan="0" vol="100" len="12" pos="456"/>
          <note key="48" pan="0" vol="100" len="12" pos="456"/>
          <note key="59" pan="0" vol="100" len="12" pos="468"/>
          <note key="50" pan="0" vol="100" len="12" pos="480"/>
          <note key="60" pan="0" vol="100" len="12" pos="492"/>
          <note key="60" pan="0" vol="100" len="24" pos="516"/>
          <note key="59" pan="0" vol="100" len="12" pos="540"/>
          <note key="57" pan="0" vol="100" len="12" pos="552"/>
          <note key="48" pan="0" vol="100" len="12" pos="552"/>
          <note key="59" pan="0" vol="100" len="12" pos="564"/>
          <note key="50" pan="0" vol="100" len="12" pos="576"/>
          <note key="60" pan="0" vol="100" len="12" pos="588"/>
          <note key="60" pan="0" vol="100" len="24" pos="612"/>
          <note key="59" pan="0" vol="100" len="12" pos="636"/>
          <note key="57" pan="0" vol="100" len="12" pos="648"/>
          <note key="48" pan="0" vol="100" len="12" pos="648"/>
          <note key="59" pan="0" vol="100" len="12" pos="660"/>
          <note key="50" pan="0" vol="100" len="12" pos="672"/>
          <note key="60" pan="0" vol="100" len="12" pos="684"/>
          <note key="48" pan="0" vol="100" len="12" pos="684"/>
          <note key="48" pan="0" vol="100" len="12" pos="696"/>
          <note key="50" pan="0" vol="100" len="12" pos="708"/>
          <note key="51" pan="0" vol="100" len="12" pos="720"/>
          <note key="53" pan="0" vol="100" len="12" pos="732"/>
          <note key="53" pan="0" vol="100" len="12" pos="744"/>
          <note key="51" pan="0" vol="100" len="12" pos="756"/>
          <note key="50" pan="0" vol="100" len="12" pos="768"/>
          <note key="53" pan="0" vol="100" len="12" pos="780"/>
          <note key="53" pan="0" vol="100" len="24" pos="804"/>
          <note key="52" pan="0" vol="100" len="12" pos="828"/>
          <note key="52" pan="0" vol="100" len="12" pos="840"/>
          <note key="50" pan="0" vol="100" len="12" pos="852"/>
          <note key="50" pan="0" vol="100" len="12" pos="864"/>
          <note key="53" pan="0" vol="100" len="12" pos="876"/>
          <note key="53" pan="0" vol="100" len="24" pos="900"/>
          <note key="52" pan="0" vol="100" len="12" pos="924"/>
          <note key="52" pan="0" vol="100" len="12" pos="936"/>
          <note key="50" pan="0" vol="100" len="12" pos="948"/>
          <note key="50" pan="0" vol="100" len="12" pos="960"/>
          <note key="53" pan="0" vol="100" len="12" pos="972"/>
          <note key="53" pan="0" vol="100" len="24" pos="996"/>
          <note key="52" pan="0" vol="100" len="12" pos="1020"/>
          <note key="52" pan="0" vol="100" len="12" pos="1032"/>
          <note key="50" pan="0" vol="100" len="12" pos="1044"/>
          <note key="50" pan="0" vol="100" len="12" pos="1056"/>
          <note key="53" pan="0" vol="100" len="12" pos="1068"/>
          <note key="50" pan="0" vol="100" len="12" pos="1080"/>
          <note key="52" pan="0" vol="100" len="12" pos="1092"/>
          <note key="53" pan="0" vol="100" len="12" pos="1104"/>
          <note key="53" pan="0" vol="100" len="12" pos="1116"/>
          <note key="52" pan="0" vol="100" len="12" pos="1128"/>
          <note key="51" pan="0" vol="100" len="12" pos="1140"/>
          <note key="50" pan="0" vol="100" len="12" pos="1152"/>
          <note key="53" pan="0" vol="100" len="12" pos="1164"/>
          <note key="53" pan="0" vol="100" len="24" pos="1188"/>
          <note key="52" pan="0" vol="100" len="12" pos="1212"/>
          <note key="52" pan="0" vol="100" len="12" pos="1224"/>
          <note key="50" pan="0" vol="100" len="12" pos="1236"/>
          <note key="50" pan="0" vol="100" len="12" pos="1248"/>
          <note key="53" pan="0" vol="100" len="12" pos="1260"/>
          <note key="53" pan="0" vol="100" len="24" pos="1284"/>
          <note key="52" pan="0" vol="100" len="12" pos="1308"/>
          <note key="52" pan="0" vol="100" len="12" pos="1320"/>
          <note key="50" pan="0" vol="100" len="12" pos="1332"/>
          <note key="50" pan="0" vol="100" len="12" pos="1344"/>
          <note key="53" pan="0" vol="100" len="12" pos="1356"/>
          <note key="53" pan="0" vol="100" len="24" pos="1380"/>
          <note key="52" pan="0" vol="100" len="12" pos="1404"/>
          <note key="52" pan="0" vol="100" len="12" pos="1416"/>
          <note key="50" pan="0" vol="100" len="12" pos="1428"/>
          <note key="50" pan="0" vol="100" len="12" pos="1440"/>
          <note key="53" pan="0" vol="100" len="12" pos="1452"/>
          <note key="50" pan="0" vol="100" len="12" pos="1464"/>
          <note key="52" pan="0" vol="100" len="12" pos="1476"/>
          <note key="53" pan="0" vol="100" len="12" pos="1488"/>
          <note key="53" pan="0" vol="100" len="12" pos="1500"/>
          <note key="52" pan="0" vol="100" len="12" pos="1512"/>
          <note key="51" pan="0" vol="100" len="12" pos="1524"/>
        </pattern>
        <pattern type="1" name="Phase bass" steps="16" pos="1536" muted="0">
          <note key="50" pan="0" vol="100" len="12" pos="0"/>
          <note key="60" pan="0" vol="100" len="12" pos="12"/>
          <note key="60" pan="0" vol="100" len="24" pos="36"/>
          <note key="59" pan="0" vol="100" len="12" pos="60"/>
          <note key="57" pan="0" vol="100" len="12" pos="72"/>
          <note key="48" pan="0" vol="100" len="12" pos="72"/>
          <note key="59" pan="0" vol="100" len="12" pos="84"/>
          <note key="50" pan="0" vol="100" len="12" pos="96"/>
          <note key="60" pan="0" vol="100" len="12" pos="108"/>
          <note key="60" pan="0" vol="100" len="24" pos="132"/>
          <note key="59" pan="0" vol="100" len="12" pos="156"/>
          <note key="57" pan="0" vol="100" len="12" pos="168"/>
          <note key="48" pan="0" vol="100" len="12" pos="168"/>
          <note key="59" pan="0" vol="100" len="12" pos="180"/>
          <note key="50" pan="0" vol="100" len="12" pos="192"/>
          <note key="60" pan="0" vol="100" len="12" pos="204"/>
          <note key="60" pan="0" vol="100" len="24" pos="228"/>
          <note key="59" pan="0" vol="100" len="12" pos="252"/>
          <note key="57" pan="0" vol="100" len="12" pos="264"/>
          <note key="48" pan="0" vol="100" len="12" pos="264"/>
          <note key="59" pan="0" vol="100" len="12" pos="276"/>
          <note key="50" pan="0" vol="100" len="12" pos="288"/>
          <note key="60" pan="0" vol="100" len="12" pos="300"/>
          <note key="48" pan="0" vol="100" len="12" pos="300"/>
          <note key="48" pan="0" vol="100" len="12" pos="312"/>
          <note key="50" pan="0" vol="100" len="12" pos="324"/>
          <note key="51" pan="0" vol="100" len="12" pos="336"/>
          <note key="53" pan="0" vol="100" len="12" pos="348"/>
          <note key="53" pan="0" vol="100" len="12" pos="360"/>
          <note key="51" pan="0" vol="100" len="12" pos="372"/>
          <note key="50" pan="0" vol="100" len="12" pos="384"/>
          <note key="60" pan="0" vol="100" len="12" pos="396"/>
          <note key="60" pan="0" vol="100" len="24" pos="420"/>
          <note key="59" pan="0" vol="100" len="12" pos="444"/>
          <note key="57" pan="0" vol="100" len="12" pos="456"/>
          <note key="48" pan="0" vol="100" len="12" pos="456"/>
          <note key="59" pan="0" vol="100" len="12" pos="468"/>
          <note key="50" pan="0" vol="100" len="12" pos="480"/>
          <note key="60" pan="0" vol="100" len="12" pos="492"/>
          <note key="60" pan="0" vol="100" len="24" pos="516"/>
          <note key="59" pan="0" vol="100" len="12" pos="540"/>
          <note key="57" pan="0" vol="100" len="12" pos="552"/>
          <note key="48" pan="0" vol="100" len="12" pos="552"/>
          <note key="59" pan="0" vol="100" len="12" pos="564"/>
          <note key="50" pan="0" vol="100" len="12" pos="576"/>
          <note key="60" pan="0" vol="100" len="12" pos="588"/>
          <note key="60" pan="0" vol="100" len="24" pos="612"/>
          <note key="59" pan="0" vol="100" len="12" pos="636"/>
          <note key="57" pan="0" vol="100" len="12" pos="648"/>
          <note key="48" pan="0" vol="100" len="12" pos="648"/>
          <note key="59" pan="0" vol="100" len="12" pos="660"/>
          <note key="50" pan="0" vol="100" len="12" pos="672"/>
          <note key="60" pan="0" vol="100" len="12" pos="684"/>
          <note key="48" pan="0" vol="100" len="12" pos="684"/>
          <note key="48" pan="0" vol="100" len="12" pos="696"/>
          <note key="50" pan="0" vol="100" len="12" pos="708"/>
          <note key="51" pan="0" vol="100" len="12" pos="720"/>
          <note key="53" pan="0" vol="100" len="12" pos="732"/>
          <note key="53" pan="0" vol="100" len="12" pos="744"/>
          <note key="51" pan="0" vol="100" len="12" pos="756"/>
          <note key="49" pan="0" vol="100" len="12" pos="768"/>
          <note key="52" pan="0" vol="100" len="12" pos="780"/>
          <note key="52" pan="0" vol="100" len="24" pos="804"/>
          <note key="51" pan="0" vol="100" len="12" pos="828"/>
          <note key="51" pan="0" vol="100" len="12" pos="840"/>
          <note key="49" pan="0" vol="100" len="12" pos="852"/>
          <note key="49" pan="0" vol="100" len="12" pos="864"/>
          <note key="52" pan="0" vol="100" len="12" pos="876"/>
          <note key="52" pan="0" vol="100" len="24" pos="900"/>
          <note key="51" pan="0" vol="100" len="12" pos="924"/>
          <note key="51" pan="0" vol="100" len="12" pos="936"/>
          <note key="49" pan="0" vol="100" len="12" pos="948"/>
          <note key="49" pan="0" vol="100" len="12" pos="960"/>
          <note key="52" pan="0" vol="100" len="12" pos="972"/>
          <note key="52" pan="0" vol="100" len="24" pos="996"/>
          <note key="51" pan="0" vol="100" len="12" pos="1020"/>
          <note key="51" pan="0" vol="100" len="12" pos="1032"/>
          <note key="49" pan="0" vol="100" len="12" pos="1044"/>
          <note key="49" pan="0" vol="100" len="12" pos="1056"/>
          <note key="52" pan="0" vol="100" len="12" pos="1068"/>
          <note key="49" pan="0" vol="100" len="12" pos="1080"/>
          <note key="51" pan="0" vol="100" len="12" pos="1092"/>
          <note key="52" pan="0" vol="100" len="12" pos="1104"/>
          <note key="52" pan="0" vol="100" len="12" pos="1116"/>
          <note key="51" pan="0" vol="100" len="12" pos="1128"/>
          <note key="50" pan="0" vol="100" len="12" pos="1140"/>
          <note key="49" pan="0" vol="100" len="12" pos="1152"/>
          <note key="52" pan="0" vol="100" len="12" pos="1164"/>
          <note key="52" pan="0" vol="100" len="24" pos="1188"/>
          <note key="51" pan="0" vol="100" len="12" pos="1212"/>
          <note key="51" pan="0" vol="100" len="12" pos="1224"/>
          <note key="49" pan="0" vol="100" len="12" pos="1236"/>
          <note key="49" pan="0" vol="100" len="12" pos="1248"/>
          <note key="52" pan="0" vol="100" len="12" pos="1260"/>
          <note key="52" pan="0" vol="100" len="24" pos="1284"/>
          <note key="51" pan="0" vol="100" len="12" pos="1308"/>
          <note key="51" pan="0" vol="100" len="12" pos="1320"/>
          <note key="49" pan="0" vol="100" len="12" pos="1332"/>
          <note key="49" pan="0" vol="100" len="12" pos="1344"/>
          <note key="52" pan="0" vol="100" len="12" pos="1356"/>
          <note key="52" pan="0" vol="100" len="24" pos="1380"/>
          <note key="51" pan="0" vol="100" len="12" pos="1404"/>
          <note key="51" pan="0" vol="100" len="12" pos="1416"/>
          <note key="49" pan="0" vol="100" len="12" pos="1428"/>
          <note key="49" pan="0" vol="100" len="12" pos="1440"/>
          <note key="52" pan="0" vol="100" len="12" pos="1452"/>
          <note key="49" pan="0" vol="100" len="12" pos="1464"/>
          <note key="51" pan="0" vol="100" len="12" pos="1476"/>
          <note key="52" pan="0" vol="100" len="12" pos="1488"/>
          <note key="52" pan="0" vol="100" len="12" pos="1500"/>
          <note key="51" pan="0" vol="100" len="12" pos="1512"/>
          <note key="50" pan="0" vol="100" len="12" pos="1524"/>
        </pattern>
        <pattern type="1" name="" steps="16" pos="3072" muted="0">
          <note key="50" pan="0" vol="100" len="12" pos="0"/>
          <note key="60" pan="0" vol="100" len="12" pos="12"/>
          <note key="60" pan="0" vol="100" len="24" pos="36"/>
          <note key="59" pan="0" vol="100" len="12" pos="60"/>
          <note key="57" pan="0" vol="100" len="12" pos="72"/>
          <note key="48" pan="0" vol="100" len="12" pos="72"/>
          <note key="59" pan="0" vol="100" len="12" pos="84"/>
          <note key="50" pan="0" vol="100" len="12" pos="96"/>
          <note key="60" pan="0" vol="100" len="12" pos="108"/>
          <note key="60" pan="0" vol="100" len="24" pos="132"/>
          <note key="59" pan="0" vol="100" len="12" pos="156"/>
          <note key="57" pan="0" vol="100" len="12" pos="168"/>
          <note key="48" pan="0" vol="100" len="12" pos="168"/>
          <note key="59" pan="0" vol="100" len="12" pos="180"/>
          <note key="50" pan="0" vol="100" len="12" pos="192"/>
          <note key="60" pan="0" vol="100" len="12" pos="204"/>
          <note key="60" pan="0" vol="100" len="24" pos="228"/>
          <note key="59" pan="0" vol="100" len="12" pos="252"/>
          <note key="57" pan="0" vol="100" len="12" pos="264"/>
          <note key="48" pan="0" vol="100" len="12" pos="264"/>
          <note key="59" pan="0" vol="100" len="12" pos="276"/>
          <note key="50" pan="0" vol="100" len="12" pos="288"/>
          <note key="60" pan="0" vol="100" len="12" pos="300"/>
          <note key="48" pan="0" vol="100" len="12" pos="300"/>
          <note key="48" pan="0" vol="100" len="12" pos="312"/>
          <note key="50" pan="0" vol="100" len="12" pos="324"/>
          <note key="51" pan="0" vol="100" len="12" pos="336"/>
          <note key="53" pan="0" vol="100" len="12" pos="348"/>
          <note key="53" pan="0" vol="100" len="12" pos="360"/>
          <note key="51" pan="0" vol="100" len="12" pos="372"/>
          <note key="50" pan="0" vol="100" len="12" pos="384"/>
          <note key="60" pan="0" vol="100" len="12" pos="396"/>
          <note key="60" pan="0" vol="100" len="24" pos="420"/>
          <note key="59" pan="0" vol="100" len="12" pos="444"/>
          <note key="57" pan="0" vol="100" len="12" pos="456"/>
          <note key="48" pan="0" vol="100" len="12" pos="456"/>
          <note key="59" pan="0" vol="100" len="12" pos="468"/>
          <note key="50" pan="0" vol="100" len="12" pos="480"/>
          <note key="60" pan="0" vol="100" len="12" pos="492"/>
          <note key="60" pan="0" vol="100" len="24" pos="516"/>
          <note key="59" pan="0" vol="100" len="12" pos="540"/>
          <note key="57" pan="0" vol="100" len="12" pos="552"/>
          <note key="48" pan="0" vol="100" len="12" pos="552"/>
          <note key="59" pan="0" vol="100" len="12" pos="564"/>
          <note key="50" pan="0" vol="100" len="12" pos="576"/>
          <note key="60" pan="0" vol="100" len="12" pos="588"/>
          <note key="60" pan="0" vol="100" len="24" pos="612"/>
          <note key="59" pan="0" vol="100" len="12" pos="636"/>
          <note key="57" pan="0" vol="100" len="12" pos="648"/>
          <note key="48" pan="0" vol="100" len="12" pos="648"/>
          <note key="59" pan="0" vol="100" len="12" pos="660"/>
          <note key="50" pan="0" vol="100" len="12" pos="672"/>
          <note key="60" pan="0" vol="100" len="12" pos="684"/>
          <note key="48" pan="0" vol="100" len="12" pos="684"/>
          <note key="48" pan="0" vol="100" len="12" pos="696"/>
          <note key="50" pan="0" vol="100" len="12" pos="708"/>
          <note key="51" pan="0" vol="100" len="12" pos="720"/>
          <note key="53" pan="0" vol="100" len="12" pos="732"/>
          <note key="53" pan="0" vol="100" len="12" pos="744"/>
          <note key="51" pan="0" vol="100" len="12" pos="756"/>
          <note key="49" pan="0" vol="100" len="12" pos="768"/>
          <note key="52" pan="0" vol="100" len="12" pos="780"/>
          <note key="52" pan="0" vol="100" len="24" pos="804"/>
          <note key="51" pan="0" vol="100" len="12" pos="828"/>
          <note key="51" pan="0" vol="100" len="12" pos="840"/>
          <note key="49" pan="0" vol="100" len="12" pos="852"/>
          <note key="49" pan="0" vol="100" len="12" pos="864"/>
          <note key="52" pan="0" vol="100" len="12" pos="876"/>
          <note key="52" pan="0" vol="100" len="24" pos="900"/>
          <note key="51" pan="0" vol="100" len="12" pos="924"/>
          <note key="51" pan="0" vol="100" len="12" pos="936"/>
          <note key="49" pan="0" vol="100" len="12" pos="948"/>
          <note key="49" pan="0" vol="100" len="12" pos="960"/>
          <note key="52" pan="0" vol="100" len="12" pos="972"/>
          <note key="52" pan="0" vol="100" len="24" pos="996"/>
          <note key="51" pan="0" vol="100" len="12" pos="1020"/>
          <note key="51" pan="0" vol="100" len="12" pos="1032"/>
          <note key="49" pan="0" vol="100" len="12" pos="1044"/>
          <note key="49" pan="0" vol="100" len="12" pos="1056"/>
          <note key="52" pan="0" vol="100" len="12" pos="1068"/>
          <note key="49" pan="0" vol="100" len="12" pos="1080"/>
          <note key="51" pan="0" vol="100" len="12" pos="1092"/>
          <note key="52" pan="0" vol="100" len="12" pos="1104"/>
          <note key="52" pan="0" vol="100" len="12" pos="1116"/>
          <note key="51" pan="0" vol="100" len="12" pos="1128"/>
          <note key="50" pan="0" vol="100" len="12" pos="1140"/>
          <note key="49" pan="0" vol="100" len="12" pos="1152"/>
          <note key="52" pan="0" vol="100" len="12" pos="1164"/>
          <note key="52" pan="0" vol="100" len="24" pos="1188"/>
          <note key="51" pan="0" vol="100" len="12" pos="1212"/>
          <note key="51" pan="0" vol="100" len="12" pos="1224"/>
          <note key="49" pan="0" vol="100" len="12" pos="1236"/>
          <note key="49" pan="0" vol="100" len="12" pos="1248"/>
          <note key="52" pan="0" vol="100" len="12" pos="1260"/>
          <note key="52" pan="0" vol="100" len="24" pos="1284"/>
          <note key="51" pan="0" vol="100" len="12" pos="1308"/>
          <note key="51" pan="0" vol="100" len="12" pos="1320"/>
          <note key="49" pan="0" vol="100" len="12" pos="1332"/>
          <note key="49" pan="0" vol="100" len="12" pos="1344"/>
          <note key="52" pan="0" vol="100" len="12" pos="1356"/>
          <note key="52" pan="0" vol="100" len="24" pos="1380"/>
          <note key="51" pan="0" vol="100" len="12" pos="1404"/>
          <note key="51" pan="0" vol="100" len="12" pos="1416"/>
          <note key="49" pan="0" vol="100" len="12" pos="1428"/>
          <note key="49" pan="0" vol="100" len="12" pos="1440"/>
          <note key="52" pan="0" vol="100" len="12" pos="1452"/>
          <note key="49" pan="0" vol="100" len="12" pos="1464"/>
          <note key="51" pan="0" vol="100" len="12" pos="1476"/>
          <note key="52" pan="0" vol="100" len="12" pos="1488"/>
          <note key="52" pan="0" vol="100" len="12" pos="1500"/>
          <note key="51" pan="0" vol="100" len="12" pos="1512"/>
          <note key="50" pan="0" vol="100" len="12" pos="1524"/>
        </pattern>
        <pattern type="1" name="" steps="16" pos="4608" muted="0">
          <note key="50" pan="0" vol="100" len="12" pos="0"/>
          <note key="60" pan="0" vol="100" len="12" pos="12"/>
          <note key="60" pan="0" vol="100" len="24" pos="36"/>
          <note key="59" pan="0" vol="100" len="12" pos="60"/>
          <note key="57" pan="0" vol="100" len="12" pos="72"/>
          <note key="48" pan="0" vol="100" len="12" pos="72"/>
          <note key="59" pan="0" vol="100" len="12" pos="84"/>
          <note key="50" pan="0" vol="100" len="12" pos="96"/>
          <note key="60" pan="0" vol="100" len="12" pos="108"/>
          <note key="60" pan="0" vol="100" len="24" pos="132"/>
          <note key="59" pan="0" vol="100" len="12" pos="156"/>
          <note key="57" pan="0" vol="100" len="12" pos="168"/>
          <note key="48" pan="0" vol="100" len="12" pos="168"/>
          <note key="59" pan="0" vol="100" len="12" pos="180"/>
          <note key="50" pan="0" vol="100" len="12" pos="192"/>
          <note key="60" pan="0" vol="100" len="12" pos="204"/>
          <note key="60" pan="0" vol="100" len="24" pos="228"/>
          <note key="59" pan="0" vol="100" len="12" pos="252"/>
          <note key="57" pan="0" vol="100" len="12" pos="264"/>
          <note key="48" pan="0" vol="100" len="12" pos="264"/>
          <note key="59" pan="0" vol="100" len="12" pos="276"/>
          <note key="50" pan="0" vol="100" len="12" pos="288"/>
          <note key="60" pan="0" vol="100" len="12" pos="300"/>
          <note key="48" pan="0" vol="100" len="12" pos="300"/>
          <note key="48" pan="0" vol="100" len="12" pos="312"/>
          <note key="50" pan="0" vol="100" len="12" pos="324"/>
          <note key="51" pan="0" vol="100" len="12" pos="336"/>
          <note key="53" pan="0" vol="100" len="12" pos="348"/>
          <note key="53" pan="0" vol="100" len="12" pos="360"/>
          <note key="51" pan="0" vol="100" len="12" pos="372"/>
          <note key="50" pan="0" vol="100" len="12" pos="384"/>
          <note key="60" pan="0" vol="100" len="12" pos="396"/>
          <note key="60" pan="0" vol="100" len="24" pos="420"/>
          <note key="59" pan="0" vol="100" len="12" pos="444"/>
          <note key="57" pan="0" vol="100" len="12" pos="456"/>
          <note key="48" pan="0" vol="100" len="12" pos="456"/>
          <note key="59" pan="0" vol="100" len="12" pos="468"/>
          <note key="50" pan="0" vol="100" len="12" pos="480"/>
          <note key="60" pan="0" vol="100" len="12" pos="492"/>
          <note key="60" pan="0" vol="100" len="24" pos="516"/>
          <note key="59" pan="0" vol="100" len="12" pos="540"/>
          <note key="57" pan="0" vol="100" len="12" pos="552"/>
          <note key="48" pan="0" vol="100" len="12" pos="552"/>
          <note key="59" pan="0" vol="100" len="12" pos="564"/>
          <note key="50" pan="0" vol="100" len="12" pos="576"/>
          <note key="60" pan="0" vol="100" len="12" pos="588"/>
          <note key="60" pan="0" vol="100" len="24" pos="612"/>
          <note key="59" pan="0" vol="100" len="12" pos="636"/>
          <note key="57" pan="0" vol="100" len="12" pos="648"/>
          <note key="48" pan="0" vol="100" len="12" pos="648"/>
          <note key="59" pan="0" vol="100" len="12" pos="660"/>
          <note key="50" pan="0" vol="100" len="12" pos="672"/>
          <note key="60" pan="0" vol="100" len="12" pos="684"/>
          <note key="48" pan="0" vol="100" len="12" pos="684"/>
          <note key="48" pan="0" vol="100" len="12" pos="696"/>
          <note key="50" pan="0" vol="100" len="12" pos="708"/>
          <note key="51" pan="0" vol="100" len="12" pos="720"/>
          <note key="53" pan="0" vol="100" len="12" pos="732"/>
          <note key="53" pan="0" vol="100" len="12" pos="744"/>
          <note key="51" pan="0" vol="100" len="12" pos="756"/>
          <note key="49" pan="0" vol="100" len="12" pos="768"/>
          <note key="52" pan="0" vol="100" len="12" pos="780"/>
          <note key="52" pan="0" vol="100" len="24" pos="804"/>
          <note key="51" pan="0" vol="100" len="12" pos="828"/>
          <note key="51" pan="0" vol="100" len="12" pos="840"/>
          <note key="49" pan="0" vol="100" len="12" pos="852"/>
          <note key="49" pan="0" vol="100" len="12" pos="864"/>
          <note key="52" pan="0" vol="100" len="12" pos="876"/>
          <note key="52" pan="0" vol="100" len="24" pos="900"/>
          <note key="51" pan="0" vol="100" len="12" pos="924"/>
          <note key="51" pan="0" vol="100" len="12" pos="936"/>
          <note key="49" pan="0" vol="100" len="12" pos="948"/>
          <note key="49" pan="0" vol="100" len="12" pos="960"/>
          <note key="52" pan="0" vol="100" len="12" pos="972"/>
          <note key="52" pan="0" vol="100" len="24" pos="996"/>
          <note key="51" pan="0" vol="100" len="12" pos="1020"/>
          <note key="51" pan="0" vol="100" len="12" pos="1032"/>
          <note key="49" pan="0" vol="100" len="12" pos="1044"/>
          <note key="49" pan="0" vol="100" len="12" pos="1056"/>
          <note key="52" pan="0" vol="100" len="12" pos="1068"/>
          <note key="49" pan="0" vol="100" len="12" pos="1080"/>
          <note key="51" pan="0" vol="100" len="12" pos="1092"/>
          <note key="52" pan="0" vol="100" len="12" pos="1104"/>
          <note key="52" pan="0" vol="100" len="12" pos="1116"/>
          <note key="51" pan="0" vol="100" len="12" pos="1128"/>
          <note key="50" pan="0" vol="100" len="12" pos="1140"/>
          <note key="49" pan="0" vol="100" len="12" pos="1152"/>
          <note key="52" pan="0" vol="100" len="12" pos="1164"/>
          <note key="52" pan="0" vol="100" len="24" pos="1188"/>
          <note key="51" pan="0" vol="100" len="12" pos="1212"/>
          <note key="51" pan="0" vol="100" len="12" pos="1224"/>
          <note key="49" pan="0" vol="100" len="12" pos="1236"/>
          <note key="49" pan="0" vol="100" len="12" pos="1248"/>
          <note key="52" pan="0" vol="100" len="12" pos="1260"/>
          <note key="52" pan="0" vol="100" len="24" pos="1284"/>
          <note key="51" pan="0" vol="100" len="12" pos="1308"/>
          <note key="51" pan="0" vol="100" len="12" pos="1320"/>
          <note key="49" pan="0" vol="100" len="12" pos="1332"/>
          <note key="49" pan="0" vol="100" len="12" pos="1344"/>
          <note key="52" pan="0" vol="100" len="12" pos="1356"/>
          <note key="52" pan="0" vol="100" len="24" pos="1380"/>
          <note key="51" pan="0" vol="100" len="12" pos="1404"/>
          <note key="51" pan="0" vol="100" len="12" pos="1416"/>
          <note key="49" pan="0" vol="100" len="12" pos="1428"/>
          <note key="49" pan="0" vol="100" len="12" pos="1440"/>
          <note key="52" pan="0" vol="100" len="12" pos="1452"/>
          <note key="49" pan="0" vol="100" len="12" pos="1464"/>
          <note key="51" pan="0" vol="100" len="12" pos="1476"/>
          <note key="52" pan="0" vol="100" len="12" pos="1488"/>
          <note key="52" pan="0" vol="100" len="12" pos="1500"/>
          <note key="51" pan="0" vol="100" len="12" pos="1512"/>
          <note key="50" pan="0" vol="100" len="12" pos="1524"/>
        </pattern>
        <pattern type="1" name="" steps="16" pos="12288" muted="0">
          <note key="50" pan="0" vol="100" len="12" pos="0"/>
          <note key="60" pan="0" vol="100" len="12" pos="12"/>
          <note key="60" pan="0" vol="100" len="24" pos="36"/>
          <note key="59" pan="0" vol="100" len="12" pos="60"/>
          <note key="57" pan="0" vol="100" len="12" pos="72"/>
          <note key="48" pan="0" vol="100" len="12" pos="72"/>
          <note key="59" pan="0" vol="100" len="12" pos="84"/>
          <note key="50" pan="0" vol="100" len="12" pos="96"/>
          <note key="60" pan="0" vol="100" len="12" pos="108"/>
          <note key="60" pan="0" vol="100" len="24" pos="132"/>
          <note key="59" pan="0" vol="100" len="12" pos="156"/>
          <note key="57" pan="0" vol="100" len="12" pos="168"/>
          <note key="48" pan="0" vol="100" len="12" pos="168"/>
          <note key="59" pan="0" vol="100" len="12" pos="180"/>
          <note key="50" pan="0" vol="100" len="12" pos="192"/>
          <note key="60" pan="0" vol="100" len="12" pos="204"/>
          <note key="60" pan="0" vol="100" len="24" pos="228"/>
          <note key="59" pan="0" vol="100" len="12" pos="252"/>
          <note key="57" pan="0" vol="100" len="12" pos="264"/>
          <note key="48" pan="0" vol="100" len="12" pos="264"/>
          <note key="59" pan="0" vol="100" len="12" pos="276"/>
          <note key="50" pan="0" vol="100" len="12" pos="288"/>
          <note key="60" pan="0" vol="100" len="12" pos="300"/>
          <note key="48" pan="0" vol="100" len="12" pos="300"/>
          <note key="48" pan="0" vol="100" len="12" pos="312"/>
          <note key="50" pan="0" vol="100" len="12" pos="324"/>
          <note key="51" pan="0" vol="100" len="12" pos="336"/>
          <note key="53" pan="0" vol="100" len="12" pos="348"/>
          <note key="53" pan="0" vol="100" len="12" pos="360"/>
          <note key="51" pan="0" vol="100" len="12" pos="372"/>
          <note key="50" pan="0" vol="100" len="12" pos="384"/>
          <note key="60" pan="0" vol="100" len="12" pos="396"/>
          <note key="60" pan="0" vol="100" len="24" pos="420"/>
          <note key="59" pan="0" vol="100" len="12" pos="444"/>
          <note key="57" pan="0" vol="100" len="12" pos="456"/>
          <note key="48" pan="0" vol="100" len="12" pos="456"/>
          <note key="59" pan="0" vol="100" len="12" pos="468"/>
          <note key="50" pan="0" vol="100" len="12" pos="480"/>
          <note key="60" pan="0" vol="100" len="12" pos="492"/>
          <note key="60" pan="0" vol="100" len="24" pos="516"/>
          <note key="59" pan="0" vol="100" len="12" pos="540"/>
          <note key="57" pan="0" vol="100" len="12" pos="552"/>
          <note key="48" pan="0" vol="100" len="12" pos="552"/>
          <note key="59" pan="0" vol="100" len="12" pos="564"/>
          <note key="50" pan="0" vol="100" len="12" pos="576"/>
          <note key="60" pan="0" vol="100" len="12" pos="588"/>
          <note key="60" pan="0" vol="100" len="24" pos="612"/>
          <note key="59" pan="0" vol="100" len="12" pos="636"/>
          <note key="57" pan="0" vol="100" len="12" pos="648"/>
          <note key="48" pan="0" vol="100" len="12" pos="648"/>
          <note key="59" pan="0" vol="100" len="12" pos="660"/>
          <note key="50" pan="0" vol="100" len="12" pos="672"/>
          <note key="60" pan="0" vol="100" len="12" pos="684"/>
          <note key="48" pan="0" vol="100" len="12" pos="684"/>
          <note key="48" pan="0" vol="100" len="12" pos="696"/>
          <note key="50" pan="0" vol="100" len="12" pos="708"/>
          <note key="51" pan="0" vol="100" len="12" pos="720"/>
          <note key="53" pan="0" vol="100" len="12" pos="732"/>
          <note key="53" pan="0" vol="100" len="12" pos="744"/>
          <note key="51" pan="0" vol="100" len="12" pos="756"/>
          <note key="49" pan="0" vol="100" len="12" pos="768"/>
          <note key="52" pan="0" vol="100" len="12" pos="780"/>
          <note key="52" pan="0" vol="100" len="24" pos="804"/>
          <note key="51" pan="0" vol="100" len="12" pos="828"/>
          <note key="51" pan="0" vol="100" len="12" pos="840"/>
          <note key="49" pan="0" vol="100" len="12" pos="852"/>
          <note key="49" pan="0" vol="100" len="12" pos="864"/>
          <note key="52" pan="0" vol="100" len="12" pos="876"/>
          <note key="52" pan="0" vol="100" len="24" pos="900"/>
          <note key="51" pan="0" vol="100" len="12" pos="924"/>
          <note key="51" pan="0" vol="100" len="12" pos="936"/>
          <note key="49" pan="0" vol="100" len="12" pos="948"/>
          <note key="49" pan="0" vol="100" len="12" pos="960"/>
          <note key="52" pan="0" vol="100" len="12" pos="972"/>
          <note key="52" pan="0" vol="100" len="24" pos="996"/>
          <note key="51" pan="0" vol="100" len="12" pos="1020"/>
          <note key="51" pan="0" vol="100" len="12" pos="1032"/>
          <note key="49" pan="0" vol="100" len="12" pos="1044"/>
          <note key="49" pan="0" vol="100" len="12" pos="1056"/>
          <note key="52" pan="0" vol="100" len="12" pos="1068"/>
          <note key="49" pan="0" vol="100" len="12" pos="1080"/>
          <note key="51" pan="0" vol="100" len="12" pos="1092"/>
          <note key="52" pan="0" vol="100" len="12" pos="1104"/>
          <note key="52" pan="0" vol="100" len="12" pos="1116"/>
          <note key="51" pan="0" vol="100" len="12" pos="1128"/>
          <note key="50" pan="0" vol="100" len="12" pos="1140"/>
          <note key="49" pan="0" vol="100" len="12" pos="1152"/>
          <note key="52" pan="0" vol="100" len="12" pos="1164"/>
          <note key="52" pan="0" vol="100" len="24" pos="1188"/>
          <note key="51" pan="0" vol="100" len="12" pos="1212"/>
          <note key="51" pan="0" vol="100" len="12" pos="1224"/>
          <note key="49" pan="0" vol="100" len="12" pos="1236"/>
          <note key="49" pan="0" vol="100" len="12" pos="1248"/>
          <note key="52" pan="0" vol="100" len="12" pos="1260"/>
          <note key="52" pan="0" vol="100" len="24" pos="1284"/>
          <note key="51" pan="0" vol="100" len="12" pos="1308"/>
          <note key="51" pan="0" vol="100" len="12" pos="1320"/>
          <note key="49" pan="0" vol="100" len="12" pos="1332"/>
          <note key="49" pan="0" vol="100" len="12" pos="1344"/>
          <note key="52" pan="0" vol="100" len="12" pos="1356"/>
          <note key="52" pan="0" vol="100" len="24" pos="1380"/>
          <note key="51" pan="0" vol="100" len="12" pos="1404"/>
          <note key="51" pan="0" vol="100" len="12" pos="1416"/>
          <note key="49" pan="0" vol="100" len="12" pos="1428"/>
          <note key="49" pan="0" vol="100" len="12" pos="1440"/>
          <note key="52" pan="0" vol="100" len="12" pos="1452"/>
          <note key="49" pan="0" vol="100" len="12" pos="1464"/>
          <note key="51" pan="0" vol="100" len="12" pos="1476"/>
          <note key="52" pan="0" vol="100" len="12" pos="1488"/>
          <note key="52" pan="0" vol="100" len="12" pos="1500"/>
          <note key="51" pan="0" vol="100" len="12" pos="1512"/>
          <note key="50" pan="0" vol="100" len="12" pos="1524"/>
        </pattern>
        <pattern type="1" name="" steps="16" pos="13824" muted="0">
          <note key="50" pan="0" vol="100" len="12" pos="0"/>
          <note key="60" pan="0" vol="100" len="12" pos="12"/>
          <note key="60" pan="0" vol="100" len="24" pos="36"/>
          <note key="59" pan="0" vol="100" len="12" pos="60"/>
          <note key="57" pan="0" vol="100" len="12" pos="72"/>
          <note key="48" pan="0" vol="100" len="12" pos="72"/>
          <note key="59" pan="0" vol="100" len="12" pos="84"/>
          <note key="50" pan="0" vol="100" len="12" pos="96"/>
          <note key="60" pan="0" vol="100" len="12" pos="108"/>
          <note key="60" pan="0" vol="100" len="24" pos="132"/>
          <note key="59" pan="0" vol="100" len="12" pos="156"/>
          <note key="57" pan="0" vol="100" len="12" pos="168"/>
          <note key="48" pan="0" vol="100" len="12" pos="168"/>
          <note key="59" pan="0" vol="100" len="12" pos="180"/>
          <note key="50" pan="0" vol="100" len="12" pos="192"/>
          <note key="60" pan="0" vol="100" len="12" pos="204"/>
          <note key="60" pan="0" vol="100" len="24" pos="228"/>
          <note key="59" pan="0" vol="100" len="12" pos="252"/>
          <note key="57" pan="0" vol="100" len="12" pos="264"/>
          <note key="48" pan="0" vol="100" len="12" pos="264"/>
          <note key="59" pan="0" vol="100" len="12" pos="276"/>
          <note key="50" pan="0" vol="100" len="12" pos="288"/>
          <note key="60" pan="0" vol="100" len="12" pos="300"/>
          <note key="48" pan="0" vol="100" len="12" pos="300"/>
          <note key="48" pan="0" vol="100" len="12" pos="312"/>
          <note key="50" pan="0" vol="100" len="12" pos="324"/>
          <note key="51" pan="0" vol="100" len="12" pos="336"/>
          <note key="53" pan="0" vol="100" len="12" pos="348"/>
          <note key="53" pan="0" vol="100" len="12" pos="360"/>
          <note key="51" pan="0" vol="100" len="12" pos="372"/>
          <note key="50" pan="0" vol="100" len="12" pos="384"/>
          <note key="60" pan="0" vol="100" len="12" pos="396"/>
          <note key="60" pan="0" vol="100" len="24" pos="420"/>
          <note key="59" pan="0" vol="100" len="12" pos="444"/>
          <note key="57" pan="0" vol="100" len="12" pos="456"/>
          <note key="48" pan="0" vol="100" len="12" pos="456"/>
          <note key="59" pan="0" vol="100" len="12" pos="468"/>
          <note key="50" pan="0" vol="100" len="12" pos="480"/>
          <note key="60" pan="0" vol="100" len="12" pos="492"/>
          <note key="60" pan="0" vol="100" len="24" pos="516"/>
          <note key="59" pan="0" vol="100" len="12" pos="540"/>
          <note key="57" pan="0" vol="100" len="12" pos="552"/>
          <note key="48" pan="0" vol="100" len="12" pos="552"/>
          <note key="59" pan="0" vol="100" len="12" pos="564"/>
          <note key="50" pan="0" vol="100" len="12" pos="576"/>
          <note key="60" pan="0" vol="100" len="12" pos="588"/>
          <note key="60" pan="0" vol="100" len="24" pos="612"/>
          <note key="59" pan="0" vol="100" len="12" pos="636"/>
          <note key="57" pan="0" vol="100" len="12" pos="648"/>
          <note key="48" pan="0" vol="100" len="12" pos="648"/>
          <note key="59" pan="0" vol="100" len="12" pos="660"/>
          <note key="50" pan="0" vol="100" len="12" pos="672"/>
          <note key="60" pan="0" vol="100" len="12" pos="684"/>
          <note key="48" pan="0" vol="100" len="12" pos="684"/>
          <note key="48" pan="0" vol="100" len="12" pos="696"/>
          <note key="50" pan="0" vol="100" len="12" pos="708"/>
          <note key="51" pan="0" vol="100" len="12" pos="720"/>
          <note key="53" pan="0" vol="100" len="12" pos="732"/>
          <note key="53" pan="0" vol="100" len="12" pos="744"/>
          <note key="51" pan="0" vol="100" len="12" pos="756"/>
          <note key="49" pan="0" vol="100" len="12" pos="768"/>
          <note key="52" pan="0" vol="100" len="12" pos="780"/>
          <note key="52" pan="0" vol="100" len="24" pos="804"/>
          <note key="51" pan="0" vol="100" len="12" pos="828"/>
          <note key="51" pan="0" vol="100" len="12" pos="840"/>
          <note key="49" pan="0" vol="100" len="12" pos="852"/>
          <note key="49" pan="0" vol="100" len="12" pos="864"/>
          <note key="52" pan="0" vol="100" len="12" pos="876"/>
          <note key="52" pan="0" vol="100" len="24" pos="900"/>
          <note key="51" pan="0" vol="100" len="12" pos="924"/>
          <note key="51" pan="0" vol="100" len="12" pos="936"/>
          <note key="49" pan="0" vol="100" len="12" pos="948"/>
          <note key="49" pan="0" vol="100" len="12" pos="960"/>
          <note key="52" pan="0" vol="100" len="12" pos="972"/>
          <note key="52" pan="0" vol="100" len="24" pos="996"/>
          <note key="51" pan="0" vol="100" len="12" pos="1020"/>
          <note key="51" pan="0" vol="100" len="12" pos="1032"/>
          <note key="49" pan="0" vol="100" len="12" pos="1044"/>
          <note key="49" pan="0" vol="100" len="12" pos="1056"/>
          <note key="52" pan="0" vol="100" len="12" pos="1068"/>
          <note key="49" pan="0" vol="100" len="12" pos="1080"/>
          <note key="51" pan="0" vol="100" len="12" pos="1092"/>
          <note key="52" pan="0" vol="100" len="12" pos="1104"/>
          <note key="52" pan="0" vol="100" len="12" pos="1116"/>
          <note key="51" pan="0" vol="100" len="12" pos="1128"/>
          <note key="50" pan="0" vol="100" len="12" pos="1140"/>
          <note key="49" pan="0" vol="100" len="12" pos="1152"/>
          <note key="52" pan="0" vol="100" len="12" pos="1164"/>
          <note key="52" pan="0" vol="100" len="24" pos="1188"/>
          <note key="51" pan="0" vol="100" len="12" pos="1212"/>
          <note key="51" pan="0" vol="100" len="12" pos="1224"/>
          <note key="49" pan="0" vol="100" len="12" pos="1236"/>
          <note key="49" pan="0" vol="100" len="12" pos="1248"/>
          <note key="52" pan="0" vol="100" len="12" pos="1260"/>
          <note key="52" pan="0" vol="100" len="24" pos="1284"/>
          <note key="51" pan="0" vol="100" len="12" pos="1308"/>
          <note key="51" pan="0" vol="100" len="12" pos="1320"/>
          <note key="49" pan="0" vol="100" len="12" pos="1332"/>
          <note key="49" pan="0" vol="100" len="12" pos="1344"/>
          <note key="52" pan="0" vol="100" len="12" pos="1356"/>
          <note key="52" pan="0" vol="100" len="24" pos="1380"/>
          <note key="51" pan="0" vol="100" len="12" pos="1404"/>
          <note key="51" pan="0" vol="100" len="12" pos="1416"/>
          <note key="49" pan="0" vol="100" len="12" pos="1428"/>
          <note key="49" pan="0" vol="100" len="12" pos="1440"/>
          <note key="52" pan="0" vol="100" len="12" pos="1452"/>
          <note key="49" pan="0" vol="100" len="12" pos="1464"/>
          <note key="51" pan="0" vol="100" len="12" pos="1476"/>
          <note key="52" pan="0" vol="100" len="12" pos="1488"/>
          <note key="52" pan="0" vol="100" len="12" pos="1500"/>
          <note key="51" pan="0" vol="100" len="12" pos="1512"/>
          <note key="50" pan="0" vol="100" len="12" pos="1524"/>
        </pattern>
        <pattern type="1" name="" steps="16" pos="15360" muted="0">
          <note key="50" pan="0" vol="100" len="12" pos="0"/>
          <note key="60" pan="0" vol="100" len="12" pos="12"/>
          <note key="60" pan="0" vol="100" len="24" pos="36"/>
          <note key="59" pan="0" vol="100" len="12" pos="60"/>
          <note key="57" pan="0" vol="100" len="12" pos="72"/>
          <note key="48" pan="0" vol="100" len="12" pos="72"/>
          <note key="59" pan="0" vol="100" len="12" pos="84"/>
          <note key="50" pan="0" vol="100" len="12" pos="96"/>
          <note key="60" pan="0" vol="100" len="12" pos="108"/>
          <note key="60" pan="0" vol="100" len="24" pos="132"/>
          <note key="59" pan="0" vol="100" len="12" pos="156"/>
          <note key="57" pan="0" vol="100" len="12" pos="168"/>
          <note key="48" pan="0" vol="100" len="12" pos="168"/>
          <note key="59" pan="0" vol="100" len="12" pos="180"/>
          <note key="50" pan="0" vol="100" len="12" pos="192"/>
          <note key="60" pan="0" vol="100" len="12" pos="204"/>
          <note key="60" pan="0" vol="100" len="24" pos="228"/>
          <note key="59" pan="0" vol="100" len="12" pos="252"/>
          <note key="57" pan="0" vol="100" len="12" pos="264"/>
          <note key="48" pan="0" vol="100" len="12" pos="264"/>
          <note key="59" pan="0" vol="100" len="12" pos="276"/>
          <note key="50" pan="0" vol="100" len="12" pos="288"/>
          <note key="60" pan="0" vol="100" len="12" pos="300"/>
          <note key="48" pan="0" vol="100" len="12" pos="300"/>
          <note key="48" pan="0" vol="100" len="12" pos="312"/>
          <note key="50" pan="0" vol="100" len="12" pos="324"/>
          <note key="51" pan="0" vol="100" len="12" pos="336"/>
          <note key="53" pan="0" vol="100" len="12" pos="348"/>
          <note key="53" pan="0" vol="100" len="12" pos="360"/>
          <note key="51" pan="0" vol="100" len="12" pos="372"/>
          <note key="50" pan="0" vol="100" len="12" pos="384"/>
          <note key="60" pan="0" vol="100" len="12" pos="396"/>
          <note key="60" pan="0" vol="100" len="24" pos="420"/>
          <note key="59" pan="0" vol="100" len="12" pos="444"/>
          <note key="57" pan="0" vol="100" len="12" pos="456"/>
          <note key="48" pan="0" vol="100" len="12" pos="456"/>
          <note key="59" pan="0" vol="100" len="12" pos="468"/>
          <note key="50" pan="0" vol="100" len="12" pos="480"/>
          <note key="60" pan="0" vol="100" len="12" pos="492"/>
          <note key="60" pan="0" vol="100" len="24" pos="516"/>
          <note key="59" pan="0" vol="100" len="12" pos="540"/>
          <note key="57" pan="0" vol="100" len="12" pos="552"/>
          <note key="48" pan="0" vol="100" len="12" pos="552"/>
          <note key="59" pan="0" vol="100" len="12" pos="564"/>
          <note key="50" pan="0" vol="100" len="12" pos="576"/>
          <note key="60" pan="0" vol="100" len="12" pos="588"/>
          <note key="60" pan="0" vol="100" len="24" pos="612"/>
          <note key="59" pan="0" vol="100" len="12" pos="636"/>
          <note key="57" pan="0" vol="100" len="12" pos="648"/>
          <note key="48" pan="0" vol="100" len="12" pos="648"/>
          <note key="59" pan="0" vol="100" len="12" pos="660"/>
          <note key="50" pan="0" vol="100" len="12" pos="672"/>
          <note key="60" pan="0" vol="100" len="12" pos="684"/>
          <note key="48" pan="0" vol="100" len="12" pos="684"/>
          <note key="48" pan="0" vol="100" len="12" pos="696"/>
          <note key="50" pan="0" vol="100" len="12" pos="708"/>
          <note key="51" pan="0" vol="100" len="12" pos="720"/>
          <note key="53" pan="0" vol="100" len="12" pos="732"/>
          <note key="53" pan="0" vol="100" len="12" pos="744"/>
          <note key="51" pan="0" vol="100" len="12" pos="756"/>
          <note key="49" pan="0" vol="100" len="12" pos="768"/>
          <note key="52" pan="0" vol="100" len="12" pos="780"/>
          <note key="52" pan="0" vol="100" len="24" pos="804"/>
          <note key="51" pan="0" vol="100" len="12" pos="828"/>
          <note key="51" pan="0" vol="100" len="12" pos="840"/>
          <note key="49" pan="0" vol="100" len="12" pos="852"/>
          <note key="49" pan="0" vol="100" len="12" pos="864"/>
          <note key="52" pan="0" vol="100" len="12" pos="876"/>
          <note key="52" pan="0" vol="100" len="24" pos="900"/>
          <note key="51" pan="0" vol="100" len="12" pos="924"/>
          <note key="51" pan="0" vol="100" len="12" pos="936"/>
          <note key="49" pan="0" vol="100" len="12" pos="948"/>
          <note key="49" pan="0" vol="100" len="12" pos="960"/>
          <note key="52" pan="0" vol="100" len="12" pos="972"/>
          <note key="52" pan="0" vol="100" len="24" pos="996"/>
          <note key="51" pan="0" vol="100" len="12" pos="1020"/>
          <note key="51" pan="0" vol="100" len="12" pos="1032"/>
          <note key="49" pan="0" vol="100" len="12" pos="1044"/>
          <note key="49" pan="0" vol="100" len="12" pos="1056"/>
          <note key="52" pan="0" vol="100" len="12" pos="1068"/>
          <note key="49" pan="0" vol="100" len="12" pos="1080"/>
          <note key="51" pan="0" vol="100" len="12" pos="1092"/>
          <note key="52" pan="0" vol="100" len="12" pos="1104"/>
          <note key="52" pan="0" vol="100" len="12" pos="1116"/>
          <note key="51" pan="0" vol="100" len="12" pos="1128"/>
          <note key="50" pan="0" vol="100" len="12" pos="1140"/>
          <note key="49" pan="0" vol="100" len="12" pos="1152"/>
          <note key="52" pan="0" vol="100" len="12" pos="1164"/>
          <note key="52" pan="0" vol="100" len="24" pos="1188"/>
          <note key="51" pan="0" vol="100" len="12" pos="1212"/>
          <note key="51" pan="0" vol="100" len="12" pos="1224"/>
          <note key="49" pan="0" vol="100" len="12" pos="1236"/>
          <note key="49" pan="0" vol="100" len="12" pos="1248"/>
          <note key="52" pan="0" vol="100" len="12" pos="1260"/>
          <note key="52" pan="0" vol="100" len="24" pos="1284"/>
          <note key="51" pan="0" vol="100" len="12" pos="1308"/>
          <note key="51" pan="0" vol="100" len="12" pos="1320"/>
          <note key="49" pan="0" vol="100" len="12" pos="1332"/>
          <note key="49" pan="0" vol="100" len="12" pos="1344"/>
          <note key="52" pan="0" vol="100" len="12" pos="1356"/>
          <note key="52" pan="0" vol="100" len="24" pos="1380"/>
          <note key="51" pan="0" vol="100" len="12" pos="1404"/>
          <note key="51" pan="0" vol="100" len="12" pos="1416"/>
          <note key="49" pan="0" vol="100" len="12" pos="1428"/>
          <note key="49" pan="0" vol="100" len="12" pos="1440"/>
          <note key="52" pan="0" vol="100" len="12" pos="1452"/>
          <note key="49" pan="0" vol="100" len="12" pos="1464"/>
          <note key="51" pan="0" vol="100" len="12" pos="1476"/>
          <note key="52" pan="0" vol="100" len="12" pos="1488"/>
          <note key="52" pan="0" vol="100" len="12" pos="1500"/>
          <note key="51" pan="0" vol="100" len="12" pos="1512"/>
          <note key="50" pan="0" vol="100" len="12" pos="1524"/>
        </pattern>
        <pattern type="1" name="" steps="16" pos="16896" muted="0">
          <note key="50" pan="0" vol="100" len="12" pos="0"/>
          <note key="60" pan="0" vol="100" len="12" pos="12"/>
          <note key="60" pan="0" vol="100" len="24" pos="36"/>
          <note key="59" pan="0" vol="100" len="12" pos="60"/>
          <note key="57" pan="0" vol="100" len="12" pos="72"/>
          <note key="48" pan="0" vol="100" len="12" pos="72"/>
          <note key="59" pan="0" vol="100" len="12" pos="84"/>
          <note key="50" pan="0" vol="100" len="12" pos="96"/>
          <note key="60" pan="0" vol="100" len="12" pos="108"/>
          <note key="60" pan="0" vol="100" len="24" pos="132"/>
          <note key="59" pan="0" vol="100" len="12" pos="156"/>
          <note key="57" pan="0" vol="100" len="12" pos="168"/>
          <note key="48" pan="0" vol="100" len="12" pos="168"/>
          <note key="59" pan="0" vol="100" len="12" pos="180"/>
          <note key="50" pan="0" vol="100" len="12" pos="192"/>
          <note key="60" pan="0" vol="100" len="12" pos="204"/>
          <note key="60" pan="0" vol="100" len="24" pos="228"/>
          <note key="59" pan="0" vol="100" len="12" pos="252"/>
          <note key="57" pan="0" vol="100" len="12" pos="264"/>
          <note key="48" pan="0" vol="100" len="12" pos="264"/>
          <note key="59" pan="0" vol="100" len="12" pos="276"/>
          <note key="50" pan="0" vol="100" len="12" pos="288"/>
          <note key="60" pan="0" vol="100" len="12" pos="300"/>
          <note key="48" pan="0" vol="100" len="12" pos="300"/>
          <note key="48" pan="0" vol="100" len="12" pos="312"/>
          <note key="50" pan="0" vol="100" len="12" pos="324"/>
          <note key="51" pan="0" vol="100" len="12" pos="336"/>
          <note key="53" pan="0" vol="100" len="12" pos="348"/>
          <note key="53" pan="0" vol="100" len="12" pos="360"/>
          <note key="51" pan="0" vol="100" len="12" pos="372"/>
          <note key="50" pan="0" vol="100" len="12" pos="384"/>
          <note key="60" pan="0" vol="100" len="12" pos="396"/>
          <note key="60" pan="0" vol="100" len="24" pos="420"/>
          <note key="59" pan="0" vol="100" len="12" pos="444"/>
          <note key="57" pan="0" vol="100" len="12" pos="456"/>
          <note key="48" pan="0" vol="100" len="12" pos="456"/>
          <note key="59" pan="0" vol="100" len="12" pos="468"/>
          <note key="50" pan="0" vol="100" len="12" pos="480"/>
          <note key="60" pan="0" vol="100" len="12" pos="492"/>
          <note key="60" pan="0" vol="100" len="24" pos="516"/>
          <note key="59" pan="0" vol="100" len="12" pos="540"/>
          <note key="57" pan="0" vol="100" len="12" pos="552"/>
          <note key="48" pan="0" vol="100" len="12" pos="552"/>
          <note key="59" pan="0" vol="100" len="12" pos="564"/>
          <note key="50" pan="0" vol="100" len="12" pos="576"/>
          <note key="60" pan="0" vol="100" len="12" pos="588"/>
          <note key="60" pan="0" vol="100" len="24" pos="612"/>
          <note key="59" pan="0" vol="100" len="12" pos="636"/>
          <note key="57" pan="0" vol="100" len="12" pos="648"/>
          <note key="48" pan="0" vol="100" len="12" pos="648"/>
          <note key="59" pan="0" vol="100" len="12" pos="660"/>
          <note key="50" pan="0" vol="100" len="12" pos="672"/>
          <note key="60" pan="0" vol="100" len="12" pos="684"/>
          <note key="48" pan="0" vol="100" len="12" pos="684"/>
          <note key="48" pan="0" vol="100" len="12" pos="696"/>
          <note key="50" pan="0" vol="100" len="12" pos="708"/>
          <note key="51" pan="0" vol="100" len="12" pos="720"/>
          <note key="53" pan="0" vol="100" len="12" pos="732"/>
          <note key="53" pan="0" vol="100" len="12" pos="744"/>
          <note key="51" pan="0" vol="100" len="12" pos="756"/>
          <note key="49" pan="0" vol="100" len="12" pos="768"/>
          <note key="52" pan="0" vol="100" len="12" pos="780"/>
          <note key="52" pan="0" vol="100" len="24" pos="804"/>
          <note key="51" pan="0" vol="100" len="12" pos="828"/>
          <note key="51" pan="0" vol="100" len="12" pos="840"/>
          <note key="49" pan="0" vol="100" len="12" pos="852"/>
          <note key="49" pan="0" vol="100" len="12" pos="864"/>
          <note key="52" pan="0" vol="100" len="12" pos="876"/>
          <note key="52" pan="0" vol="100" len="24" pos="900"/>
          <note key="51" pan="0" vol="100" len="12" pos="924"/>
          <note key="51" pan="0" vol="100" len="12" pos="936"/>
          <note key="49" pan="0" vol="100" len="12" pos="948"/>
          <note key="49" pan="0" vol="100" len="12" pos="960"/>
          <note key="52" pan="0" vol="100" len="12" pos="972"/>
          <note key="52" pan="0" vol="100" len="24" pos="996"/>
          <note key="51" pan="0" vol="100" len="12" pos="1020"/>
          <note key="51" pan="0" vol="100" len="12" pos="1032"/>
          <note key="49" pan="0" vol="100" len="12" pos="1044"/>
          <note key="49" pan="0" vol="100" len="12" pos="1056"/>
          <note key="52" pan="0" vol="100" len="12" pos="1068"/>
          <note key="49" pan="0" vol="100" len="12" pos="1080"/>
          <note key="51" pan="0" vol="100" len="12" pos="1092"/>
          <note key="52" pan="0" vol="100" len="12" pos="1104"/>
          <note key="52" pan="0" vol="100" len="12" pos="1116"/>
          <note key="51" pan="0" vol="100" len="12" pos="1128"/>
          <note key="50" pan="0" vol="100" len="12" pos="1140"/>
          <note key="49" pan="0" vol="100" len="12" pos="1152"/>
          <note key="52" pan="0" vol="100" len="12" pos="1164"/>
          <note key="52" pan="0" vol="100" len="24" pos="1188"/>
          <note key="51" pan="0" vol="100" len="12" pos="1212"/>
          <note key="51" pan="0" vol="100" len="12" pos="1224"/>
          <note key="49" pan="0" vol="100" len="12" pos="1236"/>
          <note key="49" pan="0" vol="100" len="12" pos="1248"/>
          <note key="52" pan="0" vol="100" len="12" pos="1260"/>
          <note key="52" pan="0" vol="100" len="24" pos="1284"/>
          <note key="51" pan="0" vol="100" len="12" pos="1308"/>
          <note key="51" pan="0" vol="100" len="12" pos="1320"/>
          <note key="49" pan="0" vol="100" len="12" pos="1332"/>
          <note key="49" pan="0" vol="100" len="12" pos="1344"/>
          <note key="52" pan="0" vol="100" len="12" pos="1356"/>
          <note key="52" pan="0" vol="100" len="24" pos="1380"/>
          <note key="51" pan="0" vol="100" len="12" pos="1404"/>
          <note key="51" pan="0" vol="100" len="12" pos="1416"/>
          <note key="49" pan="0" vol="100" len="12" pos="1428"/>
          <note key="49" pan="0" vol="100" len="12" pos="1440"/>
          <note key="52" pan="0" vol="100" len="12" pos="1452"/>
          <note key="49" pan="0" vol="100" len="12" pos="1464"/>
          <note key="51" pan="0" vol="100" len="12" pos="1476"/>
          <note key="52" pan="0" vol="100" len="12" pos="1488"/>
          <note key="52" pan="0" vol="100" len="12" pos="1500"/>
          <note key="51" pan="0" vol="100" len="12" pos="1512"/>
          <note key="50" pan="0" vol="100" len="12" pos="1524"/>
        </pattern>
      </track>
      <track type="0" name="DoublePadBass" solo="0" muted="0">
        <instrumenttrack usemasterpitch="1" pitchrange="1" fxch="2" pan="0" basenote="57" vol="60" pitch="0">
          <instrument name="zynaddsubfx">
            <zynaddsubfx filterq="64" bandwidth="64" portamento="0" filterfreq="64" modifiedcontrollers="" resbandwidth="64" rescenterfreq="64" forwardmidicc="1" fmgain="127">
              <ZynAddSubFX-data ZynAddSubFX-author="Nasca Octavian Paul" version-revision="1" version-major="2" version-minor="4">
                <INFORMATION>
                  <par_bool value="yes" name="PADsynth_used"/>
                  <par_bool value="yes" name="PADsynth_used"/>
                </INFORMATION>
                <BASE_PARAMETERS>
                  <par value="16" name="max_midi_parts"/>
                  <par value="16" name="max_kit_items_per_instrument"/>
                  <par value="4" name="max_system_effects"/>
                  <par value="8" name="max_insertion_effects"/>
                  <par value="3" name="max_instrument_effects"/>
                  <par value="8" name="max_addsynth_voices"/>
                </BASE_PARAMETERS>
                <MASTER>
                  <par value="80" name="volume"/>
                  <par value="64" name="key_shift"/>
                  <par_bool value="yes" name="nrpn_receive"/>
                  <MICROTONAL>
                    <string name="name">12tET</string>
                    <string name="comment">Equal Temperament 12 notes per octave</string>
                    <par_bool value="no" name="invert_up_down"/>
                    <par value="60" name="invert_up_down_center"/>
                    <par_bool value="no" name="enabled"/>
                    <par value="64" name="global_fine_detune"/>
                    <par value="69" name="a_note"/>
                    <par_real value="440.000000" name="a_freq"/>
                  </MICROTONAL>
                  <PART id="0">
                    <par_bool value="yes" name="enabled"/>
                    <par value="96" name="volume"/>
                    <par value="64" name="panning"/>
                    <par value="0" name="min_key"/>
                    <par value="127" name="max_key"/>
                    <par value="64" name="key_shift"/>
                    <par value="0" name="rcv_chn"/>
                    <par value="64" name="velocity_sensing"/>
                    <par value="64" name="velocity_offset"/>
                    <par_bool value="yes" name="note_on"/>
                    <par_bool value="yes" name="poly_mode"/>
                    <par value="0" name="legato_mode"/>
                    <par value="15" name="key_limit"/>
                    <INSTRUMENT>
                      <INFO>
                        <string name="name">DoublePadBass</string>
                        <string name="author">laba170</string>
                        <string name="comments">Fat bass, made with two pad-synths.
(kit-edit)</string>
                        <par value="0" name="type"/>
                      </INFO>
                      <INSTRUMENT_KIT>
                        <par value="1" name="kit_mode"/>
                        <par_bool value="no" name="drum_mode"/>
                        <INSTRUMENT_KIT_ITEM id="0">
                          <par_bool value="yes" name="enabled"/>
                          <string name="name"/>
                          <par_bool value="no" name="muted"/>
                          <par value="0" name="min_key"/>
                          <par value="127" name="max_key"/>
                          <par value="0" name="send_to_instrument_effect"/>
                          <par_bool value="no" name="add_enabled"/>
                          <par_bool value="no" name="sub_enabled"/>
                          <par_bool value="yes" name="pad_enabled"/>
                          <PAD_SYNTH_PARAMETERS>
                            <par_bool value="yes" name="stereo"/>
                            <par value="0" name="mode"/>
                            <par value="0" name="bandwidth"/>
                            <par value="0" name="bandwidth_scale"/>
                            <HARMONIC_PROFILE>
                              <par value="1" name="base_type"/>
                              <par value="4" name="base_par1"/>
                              <par value="17" name="frequency_multiplier"/>
                              <par value="0" name="modulator_par1"/>
                              <par value="30" name="modulator_frequency"/>
                              <par value="127" name="width"/>
                              <par value="2" name="amplitude_multiplier_type"/>
                              <par value="0" name="amplitude_multiplier_mode"/>
                              <par value="34" name="amplitude_multiplier_par1"/>
                              <par value="64" name="amplitude_multiplier_par2"/>
                              <par_bool value="yes" name="autoscale"/>
                              <par value="0" name="one_half"/>
                            </HARMONIC_PROFILE>
                            <OSCIL>
                              <par value="0" name="harmonic_mag_type"/>
                              <par value="2" name="base_function"/>
                              <par value="64" name="base_function_par"/>
                              <par value="0" name="base_function_modulation"/>
                              <par value="64" name="base_function_modulation_par1"/>
                              <par value="64" name="base_function_modulation_par2"/>
                              <par value="32" name="base_function_modulation_par3"/>
                              <par value="0" name="modulation"/>
                              <par value="64" name="modulation_par1"/>
                              <par value="64" name="modulation_par2"/>
                              <par value="32" name="modulation_par3"/>
                              <par value="64" name="wave_shaping"/>
                              <par value="0" name="wave_shaping_function"/>
                              <par value="1" name="filter_type"/>
                              <par value="104" name="filter_par1"/>
                              <par value="64" name="filter_par2"/>
                              <par value="0" name="filter_before_wave_shaping"/>
                              <par value="0" name="spectrum_adjust_type"/>
                              <par value="64" name="spectrum_adjust_par"/>
                              <par value="127" name="rand"/>
                              <par value="0" name="amp_rand_type"/>
                              <par value="64" name="amp_rand_power"/>
                              <par value="0" name="harmonic_shift"/>
                              <par_bool value="no" name="harmonic_shift_first"/>
                              <par value="0" name="adaptive_harmonics"/>
                              <par value="128" name="adaptive_harmonics_base_frequency"/>
                              <par value="100" name="adaptive_harmonics_power"/>
                              <HARMONICS>
                                <HARMONIC id="1">
                                  <par value="127" name="mag"/>
                                  <par value="64" name="phase"/>
                                </HARMONIC>
                                <HARMONIC id="2">
                                  <par value="107" name="mag"/>
                                  <par value="64" name="phase"/>
                                </HARMONIC>
                              </HARMONICS>
                            </OSCIL>
                            <RESONANCE>
                              <par_bool value="no" name="enabled"/>
                            </RESONANCE>
                            <HARMONIC_POSITION>
                              <par value="0" name="type"/>
                              <par value="64" name="parameter1"/>
                              <par value="64" name="parameter2"/>
                              <par value="0" name="parameter3"/>
                            </HARMONIC_POSITION>
                            <SAMPLE_QUALITY>
                              <par value="3" name="samplesize"/>
                              <par value="6" name="basenote"/>
                              <par value="3" name="octaves"/>
                              <par value="2" name="samples_per_octave"/>
                            </SAMPLE_QUALITY>
                            <AMPLITUDE_PARAMETERS>
                              <par value="110" name="volume"/>
                              <par value="64" name="panning"/>
                              <par value="64" name="velocity_sensing"/>
                              <par value="0" name="punch_strength"/>
                              <par value="60" name="punch_time"/>
                              <par value="64" name="punch_stretch"/>
                              <par value="72" name="punch_velocity_sensing"/>
                              <AMPLITUDE_ENVELOPE>
                                <par_bool value="no" name="free_mode"/>
                                <par value="4" name="env_points"/>
                                <par value="2" name="env_sustain"/>
                                <par value="0" name="env_stretch"/>
                                <par_bool value="yes" name="forced_release"/>
                                <par_bool value="no" name="linear_envelope"/>
                                <par value="10" name="A_dt"/>
                                <par value="70" name="D_dt"/>
                                <par value="0" name="R_dt"/>
                                <par value="64" name="A_val"/>
                                <par value="64" name="D_val"/>
                                <par value="103" name="S_val"/>
                                <par value="64" name="R_val"/>
                              </AMPLITUDE_ENVELOPE>
                              <AMPLITUDE_LFO>
                                <par_real value="0.629921" name="freq"/>
                                <par value="0" name="intensity"/>
                                <par value="64" name="start_phase"/>
                                <par value="0" name="lfo_type"/>
                                <par value="0" name="randomness_amplitude"/>
                                <par value="0" name="randomness_frequency"/>
                                <par value="0" name="delay"/>
                                <par value="64" name="stretch"/>
                                <par_bool value="no" name="continous"/>
                              </AMPLITUDE_LFO>
                            </AMPLITUDE_PARAMETERS>
                            <FREQUENCY_PARAMETERS>
                              <par value="0" name="fixed_freq"/>
                              <par value="0" name="fixed_freq_et"/>
                              <par value="8192" name="detune"/>
                              <par value="15360" name="coarse_detune"/>
                              <par value="1" name="detune_type"/>
                              <FREQUENCY_ENVELOPE>
                                <par_bool value="no" name="free_mode"/>
                                <par value="3" name="env_points"/>
                                <par value="1" name="env_sustain"/>
                                <par value="0" name="env_stretch"/>
                                <par_bool value="no" name="forced_release"/>
                                <par_bool value="no" name="linear_envelope"/>
                                <par value="50" name="A_dt"/>
                                <par value="10" name="D_dt"/>
                                <par value="60" name="R_dt"/>
                                <par value="64" name="A_val"/>
                                <par value="64" name="D_val"/>
                                <par value="64" name="S_val"/>
                                <par value="64" name="R_val"/>
                              </FREQUENCY_ENVELOPE>
                              <FREQUENCY_LFO>
                                <par_real value="0.711181" name="freq"/>
                                <par value="20" name="intensity"/>
                                <par value="64" name="start_phase"/>
                                <par value="0" name="lfo_type"/>
                                <par value="0" name="randomness_amplitude"/>
                                <par value="0" name="randomness_frequency"/>
                                <par value="0" name="delay"/>
                                <par value="64" name="stretch"/>
                                <par_bool value="no" name="continous"/>
                              </FREQUENCY_LFO>
                            </FREQUENCY_PARAMETERS>
                            <FILTER_PARAMETERS>
                              <par value="64" name="velocity_sensing_amplitude"/>
                              <par value="64" name="velocity_sensing"/>
                              <FILTER>
                                <par value="0" name="category"/>
                                <par value="2" name="type"/>
                                <par value="12" name="freq"/>
                                <par value="45" name="q"/>
                                <par value="0" name="stages"/>
                                <par value="64" name="freq_track"/>
                                <par value="64" name="gain"/>
                              </FILTER>
                              <FILTER_ENVELOPE>
                                <par_bool value="no" name="free_mode"/>
                                <par value="4" name="env_points"/>
                                <par value="2" name="env_sustain"/>
                                <par value="0" name="env_stretch"/>
                                <par_bool value="yes" name="forced_release"/>
                                <par_bool value="no" name="linear_envelope"/>
                                <par value="50" name="A_dt"/>
                                <par value="70" name="D_dt"/>
                                <par value="60" name="R_dt"/>
                                <par value="103" name="A_val"/>
                                <par value="76" name="D_val"/>
                                <par value="64" name="S_val"/>
                                <par value="64" name="R_val"/>
                              </FILTER_ENVELOPE>
                              <FILTER_LFO>
                                <par_real value="0.629921" name="freq"/>
                                <par value="0" name="intensity"/>
                                <par value="64" name="start_phase"/>
                                <par value="0" name="lfo_type"/>
                                <par value="0" name="randomness_amplitude"/>
                                <par value="0" name="randomness_frequency"/>
                                <par value="0" name="delay"/>
                                <par value="64" name="stretch"/>
                                <par_bool value="no" name="continous"/>
                              </FILTER_LFO>
                            </FILTER_PARAMETERS>
                          </PAD_SYNTH_PARAMETERS>
                        </INSTRUMENT_KIT_ITEM>
                        <INSTRUMENT_KIT_ITEM id="1">
                          <par_bool value="yes" name="enabled"/>
                          <string name="name"/>
                          <par_bool value="no" name="muted"/>
                          <par value="0" name="min_key"/>
                          <par value="127" name="max_key"/>
                          <par value="0" name="send_to_instrument_effect"/>
                          <par_bool value="no" name="add_enabled"/>
                          <par_bool value="no" name="sub_enabled"/>
                          <par_bool value="yes" name="pad_enabled"/>
                          <PAD_SYNTH_PARAMETERS>
                            <par_bool value="yes" name="stereo"/>
                            <par value="0" name="mode"/>
                            <par value="500" name="bandwidth"/>
                            <par value="0" name="bandwidth_scale"/>
                            <HARMONIC_PROFILE>
                              <par value="0" name="base_type"/>
                              <par value="84" name="base_par1"/>
                              <par value="0" name="frequency_multiplier"/>
                              <par value="0" name="modulator_par1"/>
                              <par value="30" name="modulator_frequency"/>
                              <par value="127" name="width"/>
                              <par value="0" name="amplitude_multiplier_type"/>
                              <par value="0" name="amplitude_multiplier_mode"/>
                              <par value="80" name="amplitude_multiplier_par1"/>
                              <par value="64" name="amplitude_multiplier_par2"/>
                              <par_bool value="no" name="autoscale"/>
                              <par value="0" name="one_half"/>
                            </HARMONIC_PROFILE>
                            <OSCIL>
                              <par value="0" name="harmonic_mag_type"/>
                              <par value="0" name="base_function"/>
                              <par value="64" name="base_function_par"/>
                              <par value="0" name="base_function_modulation"/>
                              <par value="64" name="base_function_modulation_par1"/>
                              <par value="64" name="base_function_modulation_par2"/>
                              <par value="32" name="base_function_modulation_par3"/>
                              <par value="0" name="modulation"/>
                              <par value="64" name="modulation_par1"/>
                              <par value="64" name="modulation_par2"/>
                              <par value="32" name="modulation_par3"/>
                              <par value="64" name="wave_shaping"/>
                              <par value="0" name="wave_shaping_function"/>
                              <par value="0" name="filter_type"/>
                              <par value="64" name="filter_par1"/>
                              <par value="64" name="filter_par2"/>
                              <par value="0" name="filter_before_wave_shaping"/>
                              <par value="0" name="spectrum_adjust_type"/>
                              <par value="64" name="spectrum_adjust_par"/>
                              <par value="127" name="rand"/>
                              <par value="0" name="amp_rand_type"/>
                              <par value="64" name="amp_rand_power"/>
                              <par value="0" name="harmonic_shift"/>
                              <par_bool value="no" name="harmonic_shift_first"/>
                              <par value="0" name="adaptive_harmonics"/>
                              <par value="128" name="adaptive_harmonics_base_frequency"/>
                              <par value="100" name="adaptive_harmonics_power"/>
                              <HARMONICS>
                                <HARMONIC id="1">
                                  <par value="127" name="mag"/>
                                  <par value="64" name="phase"/>
                                </HARMONIC>
                              </HARMONICS>
                            </OSCIL>
                            <RESONANCE>
                              <par_bool value="no" name="enabled"/>
                            </RESONANCE>
                            <HARMONIC_POSITION>
                              <par value="0" name="type"/>
                              <par value="64" name="parameter1"/>
                              <par value="64" name="parameter2"/>
                              <par value="0" name="parameter3"/>
                            </HARMONIC_POSITION>
                            <SAMPLE_QUALITY>
                              <par value="3" name="samplesize"/>
                              <par value="4" name="basenote"/>
                              <par value="3" name="octaves"/>
                              <par value="2" name="samples_per_octave"/>
                            </SAMPLE_QUALITY>
                            <AMPLITUDE_PARAMETERS>
                              <par value="99" name="volume"/>
                              <par value="64" name="panning"/>
                              <par value="64" name="velocity_sensing"/>
                              <par value="0" name="punch_strength"/>
                              <par value="60" name="punch_time"/>
                              <par value="64" name="punch_stretch"/>
                              <par value="72" name="punch_velocity_sensing"/>
                              <AMPLITUDE_ENVELOPE>
                                <par_bool value="no" name="free_mode"/>
                                <par value="4" name="env_points"/>
                                <par value="2" name="env_sustain"/>
                                <par value="64" name="env_stretch"/>
                                <par_bool value="yes" name="forced_release"/>
                                <par_bool value="no" name="linear_envelope"/>
                                <par value="0" name="A_dt"/>
                                <par value="40" name="D_dt"/>
                                <par value="25" name="R_dt"/>
                                <par value="64" name="A_val"/>
                                <par value="64" name="D_val"/>
                                <par value="127" name="S_val"/>
                                <par value="64" name="R_val"/>
                              </AMPLITUDE_ENVELOPE>
                              <AMPLITUDE_LFO>
                                <par_real value="0.629921" name="freq"/>
                                <par value="0" name="intensity"/>
                                <par value="64" name="start_phase"/>
                                <par value="0" name="lfo_type"/>
                                <par value="0" name="randomness_amplitude"/>
                                <par value="0" name="randomness_frequency"/>
                                <par value="0" name="delay"/>
                                <par value="64" name="stretch"/>
                                <par_bool value="no" name="continous"/>
                              </AMPLITUDE_LFO>
                            </AMPLITUDE_PARAMETERS>
                            <FREQUENCY_PARAMETERS>
                              <par value="0" name="fixed_freq"/>
                              <par value="0" name="fixed_freq_et"/>
                              <par value="8192" name="detune"/>
                              <par value="15360" name="coarse_detune"/>
                              <par value="1" name="detune_type"/>
                              <FREQUENCY_ENVELOPE>
                                <par_bool value="no" name="free_mode"/>
                                <par value="3" name="env_points"/>
                                <par value="1" name="env_sustain"/>
                                <par value="0" name="env_stretch"/>
                                <par_bool value="no" name="forced_release"/>
                                <par_bool value="no" name="linear_envelope"/>
                                <par value="50" name="A_dt"/>
                                <par value="10" name="D_dt"/>
                                <par value="60" name="R_dt"/>
                                <par value="64" name="A_val"/>
                                <par value="64" name="D_val"/>
                                <par value="64" name="S_val"/>
                                <par value="64" name="R_val"/>
                              </FREQUENCY_ENVELOPE>
                              <FREQUENCY_LFO>
                                <par_real value="0.551181" name="freq"/>
                                <par value="0" name="intensity"/>
                                <par value="64" name="start_phase"/>
                                <par value="0" name="lfo_type"/>
                                <par value="0" name="randomness_amplitude"/>
                                <par value="0" name="randomness_frequency"/>
                                <par value="0" name="delay"/>
                                <par value="64" name="stretch"/>
                                <par_bool value="no" name="continous"/>
                              </FREQUENCY_LFO>
                            </FREQUENCY_PARAMETERS>
                            <FILTER_PARAMETERS>
                              <par value="64" name="velocity_sensing_amplitude"/>
                              <par value="64" name="velocity_sensing"/>
                              <FILTER>
                                <par value="0" name="category"/>
                                <par value="2" name="type"/>
                                <par value="61" name="freq"/>
                                <par value="40" name="q"/>
                                <par value="0" name="stages"/>
                                <par value="64" name="freq_track"/>
                                <par value="64" name="gain"/>
                              </FILTER>
                              <FILTER_ENVELOPE>
                                <par_bool value="no" name="free_mode"/>
                                <par value="4" name="env_points"/>
                                <par value="2" name="env_sustain"/>
                                <par value="0" name="env_stretch"/>
                                <par_bool value="yes" name="forced_release"/>
                                <par_bool value="no" name="linear_envelope"/>
                                <par value="40" name="A_dt"/>
                                <par value="70" name="D_dt"/>
                                <par value="60" name="R_dt"/>
                                <par value="99" name="A_val"/>
                                <par value="64" name="D_val"/>
                                <par value="64" name="S_val"/>
                                <par value="64" name="R_val"/>
                              </FILTER_ENVELOPE>
                              <FILTER_LFO>
                                <par_real value="0.629921" name="freq"/>
                                <par value="0" name="intensity"/>
                                <par value="64" name="start_phase"/>
                                <par value="0" name="lfo_type"/>
                                <par value="0" name="randomness_amplitude"/>
                                <par value="0" name="randomness_frequency"/>
                                <par value="0" name="delay"/>
                                <par value="64" name="stretch"/>
                                <par_bool value="no" name="continous"/>
                              </FILTER_LFO>
                            </FILTER_PARAMETERS>
                          </PAD_SYNTH_PARAMETERS>
                        </INSTRUMENT_KIT_ITEM>
                        <INSTRUMENT_KIT_ITEM id="2">
                          <par_bool value="no" name="enabled"/>
                        </INSTRUMENT_KIT_ITEM>
                        <INSTRUMENT_KIT_ITEM id="3">
                          <par_bool value="no" name="enabled"/>
                        </INSTRUMENT_KIT_ITEM>
                        <INSTRUMENT_KIT_ITEM id="4">
                          <par_bool value="no" name="enabled"/>
                        </INSTRUMENT_KIT_ITEM>
                        <INSTRUMENT_KIT_ITEM id="5">
                          <par_bool value="no" name="enabled"/>
                        </INSTRUMENT_KIT_ITEM>
                        <INSTRUMENT_KIT_ITEM id="6">
                          <par_bool value="no" name="enabled"/>
                        </INSTRUMENT_KIT_ITEM>
                        <INSTRUMENT_KIT_ITEM id="7">
                          <par_bool value="no" name="enabled"/>
                        </INSTRUMENT_KIT_ITEM>
                        <INSTRUMENT_KIT_ITEM id="8">
                          <par_bool value="no" name="enabled"/>
                        </INSTRUMENT_KIT_ITEM>
                        <INSTRUMENT_KIT_ITEM id="9">
                          <par_bool value="no" name="enabled"/>
                        </INSTRUMENT_KIT_ITEM>
                        <INSTRUMENT_KIT_ITEM id="10">
                          <par_bool value="no" name="enabled"/>
                        </INSTRUMENT_KIT_ITEM>
                        <INSTRUMENT_KIT_ITEM id="11">
                          <par_bool value="no" name="enabled"/>
                        </INSTRUMENT_KIT_ITEM>
                        <INSTRUMENT_KIT_ITEM id="12">
                          <par_bool value="no" name="enabled"/>
                        </INSTRUMENT_KIT_ITEM>
                        <INSTRUMENT_KIT_ITEM id="13">
                          <par_bool value="no" name="enabled"/>
                        </INSTRUMENT_KIT_ITEM>
                        <INSTRUMENT_KIT_ITEM id="14">
                          <par_bool value="no" name="enabled"/>
                        </INSTRUMENT_KIT_ITEM>
                        <INSTRUMENT_KIT_ITEM id="15">
                          <par_bool value="no" name="enabled"/>
                        </INSTRUMENT_KIT_ITEM>
                      </INSTRUMENT_KIT>
                      <INSTRUMENT_EFFECTS>
                        <INSTRUMENT_EFFECT id="0">
                          <EFFECT>
                            <par value="7" name="type"/>
                            <par value="0" name="preset"/>
                            <EFFECT_PARAMETERS>
                              <par_no id="0">
                                <par value="89" name="par"/>
                              </par_no>
                              <par_no id="10">
                                <par value="1" name="par"/>
                              </par_no>
                              <par_no id="11">
                                <par value="127" name="par"/>
                              </par_no>
                              <par_no id="12">
                                <par value="64" name="par"/>
                              </par_no>
                              <par_no id="13">
                                <par value="104" name="par"/>
                              </par_no>
                              <par_no id="14">
                                <par value="4" name="par"/>
                              </par_no>
                              <par_no id="15">
                                <par value="2" name="par"/>
                              </par_no>
                              <par_no id="17">
                                <par value="64" name="par"/>
                              </par_no>
                              <par_no id="18">
                                <par value="62" name="par"/>
                              </par_no>
                              <par_no id="20">
                                <par value="2" name="par"/>
                              </par_no>
                              <par_no id="22">
                                <par value="64" name="par"/>
                              </par_no>
                              <par_no id="23">
                                <par value="127" name="par"/>
                              </par_no>
                              <par_no id="24">
                                <par value="4" name="par"/>
                              </par_no>
                              <par_no id="25">
                                <par value="1" name="par"/>
                              </par_no>
                              <par_no id="26">
                                <par value="73" name="par"/>
                              </par_no>
                              <par_no id="27">
                                <par value="64" name="par"/>
                              </par_no>
                              <par_no id="28">
                                <par value="8" name="par"/>
                              </par_no>
                              <par_no id="30">
                                <par value="9" name="par"/>
                              </par_no>
                              <par_no id="31">
                                <par value="77" name="par"/>
                              </par_no>
                              <par_no id="32">
                                <par value="39" name="par"/>
                              </par_no>
                              <par_no id="34">
                                <par value="4" name="par"/>
                              </par_no>
                              <par_no id="36">
                                <par value="127" name="par"/>
                              </par_no>
                              <par_no id="37">
                                <par value="64" name="par"/>
                              </par_no>
                              <par_no id="38">
                                <par value="64" name="par"/>
                              </par_no>
                              <par_no id="41">
                                <par value="64" name="par"/>
                              </par_no>
                              <par_no id="42">
                                <par value="64" name="par"/>
                              </par_no>
                              <par_no id="43">
                                <par value="64" name="par"/>
                              </par_no>
                              <par_no id="46">
                                <par value="64" name="par"/>
                              </par_no>
                              <par_no id="47">
                                <par value="64" name="par"/>
                              </par_no>
                              <par_no id="48">
                                <par value="64" name="par"/>
                              </par_no>
                            </EFFECT_PARAMETERS>
                          </EFFECT>
                          <par value="0" name="route"/>
                          <par_bool value="no" name="bypass"/>
                        </INSTRUMENT_EFFECT>
                        <INSTRUMENT_EFFECT id="1">
                          <EFFECT>
                            <par value="0" name="type"/>
                          </EFFECT>
                          <par value="0" name="route"/>
                          <par_bool value="no" name="bypass"/>
                        </INSTRUMENT_EFFECT>
                        <INSTRUMENT_EFFECT id="2">
                          <EFFECT>
                            <par value="0" name="type"/>
                          </EFFECT>
                          <par value="0" name="route"/>
                          <par_bool value="no" name="bypass"/>
                        </INSTRUMENT_EFFECT>
                      </INSTRUMENT_EFFECTS>
                    </INSTRUMENT>
                    <CONTROLLER>
                      <par value="100" name="pitchwheel_bendrange"/>
                      <par_bool value="yes" name="expression_receive"/>
                      <par value="64" name="panning_depth"/>
                      <par value="64" name="filter_cutoff_depth"/>
                      <par value="64" name="filter_q_depth"/>
                      <par value="64" name="bandwidth_depth"/>
                      <par value="80" name="mod_wheel_depth"/>
                      <par_bool value="no" name="mod_wheel_exponential"/>
                      <par_bool value="yes" name="fm_amp_receive"/>
                      <par_bool value="yes" name="volume_receive"/>
                      <par_bool value="yes" name="sustain_receive"/>
                      <par_bool value="yes" name="portamento_receive"/>
                      <par value="64" name="portamento_time"/>
                      <par value="3" name="portamento_pitchthresh"/>
                      <par value="1" name="portamento_pitchthreshtype"/>
                      <par value="0" name="portamento_portamento"/>
                      <par value="64" name="portamento_updowntimestretch"/>
                      <par value="0" name="portamento_proportional"/>
                      <par value="80" name="portamento_proprate"/>
                      <par value="90" name="portamento_propdepth"/>
                      <par value="64" name="resonance_center_depth"/>
                      <par value="64" name="resonance_bandwidth_depth"/>
                    </CONTROLLER>
                  </PART>
                  <PART id="1">
                    <par_bool value="no" name="enabled"/>
                  </PART>
                  <PART id="2">
                    <par_bool value="no" name="enabled"/>
                  </PART>
                  <PART id="3">
                    <par_bool value="no" name="enabled"/>
                  </PART>
                  <PART id="4">
                    <par_bool value="no" name="enabled"/>
                  </PART>
                  <PART id="5">
                    <par_bool value="no" name="enabled"/>
                  </PART>
                  <PART id="6">
                    <par_bool value="no" name="enabled"/>
                  </PART>
                  <PART id="7">
                    <par_bool value="no" name="enabled"/>
                  </PART>
                  <PART id="8">
                    <par_bool value="no" name="enabled"/>
                  </PART>
                  <PART id="9">
                    <par_bool value="no" name="enabled"/>
                  </PART>
                  <PART id="10">
                    <par_bool value="no" name="enabled"/>
                  </PART>
                  <PART id="11">
                    <par_bool value="no" name="enabled"/>
                  </PART>
                  <PART id="12">
                    <par_bool value="no" name="enabled"/>
                  </PART>
                  <PART id="13">
                    <par_bool value="no" name="enabled"/>
                  </PART>
                  <PART id="14">
                    <par_bool value="no" name="enabled"/>
                  </PART>
                  <PART id="15">
                    <par_bool value="no" name="enabled"/>
                  </PART>
                  <SYSTEM_EFFECTS>
                    <SYSTEM_EFFECT id="0">
                      <EFFECT>
                        <par value="0" name="type"/>
                      </EFFECT>
                      <VOLUME id="0">
                        <par value="0" name="vol"/>
                      </VOLUME>
                      <VOLUME id="1">
                        <par value="0" name="vol"/>
                      </VOLUME>
                      <VOLUME id="2">
                        <par value="0" name="vol"/>
                      </VOLUME>
                      <VOLUME id="3">
                        <par value="0" name="vol"/>
                      </VOLUME>
                      <VOLUME id="4">
                        <par value="0" name="vol"/>
                      </VOLUME>
                      <VOLUME id="5">
                        <par value="0" name="vol"/>
                      </VOLUME>
                      <VOLUME id="6">
                        <par value="0" name="vol"/>
                      </VOLUME>
                      <VOLUME id="7">
                        <par value="0" name="vol"/>
                      </VOLUME>
                      <VOLUME id="8">
                        <par value="0" name="vol"/>
                      </VOLUME>
                      <VOLUME id="9">
                        <par value="0" name="vol"/>
                      </VOLUME>
                      <VOLUME id="10">
                        <par value="0" name="vol"/>
                      </VOLUME>
                      <VOLUME id="11">
                        <par value="0" name="vol"/>
                      </VOLUME>
                      <VOLUME id="12">
                        <par value="0" name="vol"/>
                      </VOLUME>
                      <VOLUME id="13">
                        <par value="0" name="vol"/>
                      </VOLUME>
                      <VOLUME id="14">
                        <par value="0" name="vol"/>
                      </VOLUME>
                      <VOLUME id="15">
                        <par value="0" name="vol"/>
                      </VOLUME>
                      <SENDTO id="1">
                        <par value="0" name="send_vol"/>
                      </SENDTO>
                      <SENDTO id="2">
                        <par value="0" name="send_vol"/>
                      </SENDTO>
                      <SENDTO id="3">
                        <par value="0" name="send_vol"/>
                      </SENDTO>
                    </SYSTEM_EFFECT>
                    <SYSTEM_EFFECT id="1">
                      <EFFECT>
                        <par value="0" name="type"/>
                      </EFFECT>
                      <VOLUME id="0">
                        <par value="0" name="vol"/>
                      </VOLUME>
                      <VOLUME id="1">
                        <par value="0" name="vol"/>
                      </VOLUME>
                      <VOLUME id="2">
                        <par value="0" name="vol"/>
                      </VOLUME>
                      <VOLUME id="3">
                        <par value="0" name="vol"/>
                      </VOLUME>
                      <VOLUME id="4">
                        <par value="0" name="vol"/>
                      </VOLUME>
                      <VOLUME id="5">
                        <par value="0" name="vol"/>
                      </VOLUME>
                      <VOLUME id="6">
                        <par value="0" name="vol"/>
                      </VOLUME>
                      <VOLUME id="7">
                        <par value="0" name="vol"/>
                      </VOLUME>
                      <VOLUME id="8">
                        <par value="0" name="vol"/>
                      </VOLUME>
                      <VOLUME id="9">
                        <par value="0" name="vol"/>
                      </VOLUME>
                      <VOLUME id="10">
                        <par value="0" name="vol"/>
                      </VOLUME>
                      <VOLUME id="11">
                        <par value="0" name="vol"/>
                      </VOLUME>
                      <VOLUME id="12">
                        <par value="0" name="vol"/>
                      </VOLUME>
                      <VOLUME id="13">
                        <par value="0" name="vol"/>
                      </VOLUME>
                      <VOLUME id="14">
                        <par value="0" name="vol"/>
                      </VOLUME>
                      <VOLUME id="15">
                        <par value="0" name="vol"/>
                      </VOLUME>
                      <SENDTO id="2">
                        <par value="0" name="send_vol"/>
                      </SENDTO>
                      <SENDTO id="3">
                        <par value="0" name="send_vol"/>
                      </SENDTO>
                    </SYSTEM_EFFECT>
                    <SYSTEM_EFFECT id="2">
                      <EFFECT>
                        <par value="0" name="type"/>
                      </EFFECT>
                      <VOLUME id="0">
                        <par value="0" name="vol"/>
                      </VOLUME>
                      <VOLUME id="1">
                        <par value="0" name="vol"/>
                      </VOLUME>
                      <VOLUME id="2">
                        <par value="0" name="vol"/>
                      </VOLUME>
                      <VOLUME id="3">
                        <par value="0" name="vol"/>
                      </VOLUME>
                      <VOLUME id="4">
                        <par value="0" name="vol"/>
                      </VOLUME>
                      <VOLUME id="5">
                        <par value="0" name="vol"/>
                      </VOLUME>
                      <VOLUME id="6">
                        <par value="0" name="vol"/>
                      </VOLUME>
                      <VOLUME id="7">
                        <par value="0" name="vol"/>
                      </VOLUME>
                      <VOLUME id="8">
                        <par value="0" name="vol"/>
                      </VOLUME>
                      <VOLUME id="9">
                        <par value="0" name="vol"/>
                      </VOLUME>
                      <VOLUME id="10">
                        <par value="0" name="vol"/>
                      </VOLUME>
                      <VOLUME id="11">
                        <par value="0" name="vol"/>
                      </VOLUME>
                      <VOLUME id="12">
                        <par value="0" name="vol"/>
                      </VOLUME>
                      <VOLUME id="13">
                        <par value="0" name="vol"/>
                      </VOLUME>
                      <VOLUME id="14">
                        <par value="0" name="vol"/>
                      </VOLUME>
                      <VOLUME id="15">
                        <par value="0" name="vol"/>
                      </VOLUME>
                      <SENDTO id="3">
                        <par value="0" name="send_vol"/>
                      </SENDTO>
                    </SYSTEM_EFFECT>
                    <SYSTEM_EFFECT id="3">
                      <EFFECT>
                        <par value="0" name="type"/>
                      </EFFECT>
                      <VOLUME id="0">
                        <par value="0" name="vol"/>
                      </VOLUME>
                      <VOLUME id="1">
                        <par value="0" name="vol"/>
                      </VOLUME>
                      <VOLUME id="2">
                        <par value="0" name="vol"/>
                      </VOLUME>
                      <VOLUME id="3">
                        <par value="0" name="vol"/>
                      </VOLUME>
                      <VOLUME id="4">
                        <par value="0" name="vol"/>
                      </VOLUME>
                      <VOLUME id="5">
                        <par value="0" name="vol"/>
                      </VOLUME>
                      <VOLUME id="6">
                        <par value="0" name="vol"/>
                      </VOLUME>
                      <VOLUME id="7">
                        <par value="0" name="vol"/>
                      </VOLUME>
                      <VOLUME id="8">
                        <par value="0" name="vol"/>
                      </VOLUME>
                      <VOLUME id="9">
                        <par value="0" name="vol"/>
                      </VOLUME>
                      <VOLUME id="10">
                        <par value="0" name="vol"/>
                      </VOLUME>
                      <VOLUME id="11">
                        <par value="0" name="vol"/>
                      </VOLUME>
                      <VOLUME id="12">
                        <par value="0" name="vol"/>
                      </VOLUME>
                      <VOLUME id="13">
                        <par value="0" name="vol"/>
                      </VOLUME>
                      <VOLUME id="14">
                        <par value="0" name="vol"/>
                      </VOLUME>
                      <VOLUME id="15">
                        <par value="0" name="vol"/>
                      </VOLUME>
                    </SYSTEM_EFFECT>
                  </SYSTEM_EFFECTS>
                  <INSERTION_EFFECTS>
                    <INSERTION_EFFECT id="0">
                      <par value="-1" name="part"/>
                      <EFFECT>
                        <par value="0" name="type"/>
                      </EFFECT>
                    </INSERTION_EFFECT>
                    <INSERTION_EFFECT id="1">
                      <par value="-1" name="part"/>
                      <EFFECT>
                        <par value="0" name="type"/>
                      </EFFECT>
                    </INSERTION_EFFECT>
                    <INSERTION_EFFECT id="2">
                      <par value="-1" name="part"/>
                      <EFFECT>
                        <par value="0" name="type"/>
                      </EFFECT>
                    </INSERTION_EFFECT>
                    <INSERTION_EFFECT id="3">
                      <par value="-1" name="part"/>
                      <EFFECT>
                        <par value="0" name="type"/>
                      </EFFECT>
                    </INSERTION_EFFECT>
                    <INSERTION_EFFECT id="4">
                      <par value="-1" name="part"/>
                      <EFFECT>
                        <par value="0" name="type"/>
                      </EFFECT>
                    </INSERTION_EFFECT>
                    <INSERTION_EFFECT id="5">
                      <par value="-1" name="part"/>
                      <EFFECT>
                        <par value="0" name="type"/>
                      </EFFECT>
                    </INSERTION_EFFECT>
                    <INSERTION_EFFECT id="6">
                      <par value="-1" name="part"/>
                      <EFFECT>
                        <par value="0" name="type"/>
                      </EFFECT>
                    </INSERTION_EFFECT>
                    <INSERTION_EFFECT id="7">
                      <par value="-1" name="part"/>
                      <EFFECT>
                        <par value="0" name="type"/>
                      </EFFECT>
                    </INSERTION_EFFECT>
                  </INSERTION_EFFECTS>
                </MASTER>
              </ZynAddSubFX-data>
            </zynaddsubfx>
          </instrument>
          <eldata fcut="686" fwet="0" ftype="6" fres="0.88">
            <elvol rel="0.34599999" amt="1" lspd="0.091700003" lamt="0" sustain="0.26200002" userwavefile="" x100="0" ctlenvamt="0" lpdel="0" att="0" dec="0.29699999" pdel="0" lspd_numerator="4" lshp="0" latt="0" lspd_denominator="4" hold="0" lspd_syncmode="0"/>
            <elcut rel="0" amt="0" lspd="0.76700002" lamt="0" sustain="0.00099998713" userwavefile="" x100="0" ctlenvamt="0" lpdel="0" att="0" dec="0.223" pdel="0" lspd_numerator="4" lshp="1" latt="0" lspd_denominator="4" hold="0" lspd_syncmode="0"/>
            <elres rel="0.1" amt="0" lspd="0.0099999998" lamt="-0.0059999502" sustain="0.5" userwavefile="" x100="0" ctlenvamt="0" lpdel="0" att="0" dec="0.5" pdel="0" lspd_numerator="4" lshp="1" latt="0" lspd_denominator="4" hold="0" lspd_syncmode="0"/>
          </eldata>
          <chordcreator chordrange="2" chord="0" chord-enabled="1"/>
          <arpeggiator arpskip="0" arptime_syncmode="0" arpcycle="0" arp="0" arpmiss="0" arptime_denominator="4" arp-enabled="0" arptime_numerator="4" arpdir="0" arprange="2" arptime="158" arpgate="150" arpmode="0"/>
          <midiport outputprogram="1" readable="0" fixedoutputnote="-1" inputchannel="0" inputcontroller="0" basevelocity="127" outputchannel="1" writable="0" fixedoutputvelocity="-1" outputcontroller="0" fixedinputvelocity="-1"/>
          <fxchain numofeffects="0" enabled="0"/>
        </instrumenttrack>
        <pattern type="1" name="DoublePadBass" steps="16" pos="1536" muted="0">
          <note key="38" pan="0" vol="100" len="12" pos="0"/>
          <note key="36" pan="0" vol="100" len="12" pos="72"/>
          <note key="38" pan="0" vol="100" len="12" pos="96"/>
          <note key="36" pan="0" vol="100" len="12" pos="168"/>
          <note key="38" pan="0" vol="100" len="12" pos="192"/>
          <note key="36" pan="0" vol="100" len="12" pos="264"/>
          <note key="38" pan="0" vol="100" len="12" pos="288"/>
          <note key="36" pan="0" vol="100" len="12" pos="300"/>
          <note key="36" pan="0" vol="100" len="12" pos="312"/>
          <note key="38" pan="0" vol="100" len="12" pos="324"/>
          <note key="39" pan="0" vol="100" len="12" pos="336"/>
          <note key="41" pan="0" vol="100" len="12" pos="348"/>
          <note key="41" pan="0" vol="100" len="12" pos="360"/>
          <note key="39" pan="0" vol="100" len="12" pos="372"/>
          <note key="38" pan="0" vol="100" len="12" pos="384"/>
          <note key="36" pan="0" vol="100" len="12" pos="456"/>
          <note key="38" pan="0" vol="100" len="12" pos="480"/>
          <note key="36" pan="0" vol="100" len="12" pos="552"/>
          <note key="38" pan="0" vol="100" len="12" pos="576"/>
          <note key="36" pan="0" vol="100" len="12" pos="648"/>
          <note key="38" pan="0" vol="100" len="12" pos="672"/>
          <note key="36" pan="0" vol="100" len="12" pos="684"/>
          <note key="36" pan="0" vol="100" len="12" pos="696"/>
          <note key="38" pan="0" vol="100" len="12" pos="708"/>
          <note key="39" pan="0" vol="100" len="12" pos="720"/>
          <note key="41" pan="0" vol="100" len="12" pos="732"/>
          <note key="41" pan="0" vol="100" len="12" pos="744"/>
          <note key="39" pan="0" vol="100" len="12" pos="756"/>
          <note key="37" pan="0" vol="100" len="12" pos="768"/>
          <note key="37" pan="0" vol="100" len="12" pos="828"/>
          <note key="37" pan="0" vol="100" len="12" pos="840"/>
          <note key="37" pan="0" vol="100" len="12" pos="852"/>
          <note key="37" pan="0" vol="100" len="12" pos="864"/>
          <note key="37" pan="0" vol="100" len="12" pos="924"/>
          <note key="37" pan="0" vol="100" len="12" pos="936"/>
          <note key="37" pan="0" vol="100" len="12" pos="948"/>
          <note key="37" pan="0" vol="100" len="12" pos="960"/>
          <note key="37" pan="0" vol="100" len="12" pos="1020"/>
          <note key="37" pan="0" vol="100" len="12" pos="1032"/>
          <note key="37" pan="0" vol="100" len="12" pos="1044"/>
          <note key="37" pan="0" vol="100" len="12" pos="1056"/>
          <note key="37" pan="0" vol="100" len="12" pos="1080"/>
          <note key="39" pan="0" vol="100" len="12" pos="1092"/>
          <note key="39" pan="0" vol="100" len="12" pos="1128"/>
          <note key="37" pan="0" vol="100" len="12" pos="1152"/>
          <note key="37" pan="0" vol="100" len="12" pos="1212"/>
          <note key="37" pan="0" vol="100" len="12" pos="1224"/>
          <note key="37" pan="0" vol="100" len="12" pos="1236"/>
          <note key="37" pan="0" vol="100" len="12" pos="1248"/>
          <note key="37" pan="0" vol="100" len="12" pos="1308"/>
          <note key="37" pan="0" vol="100" len="12" pos="1320"/>
          <note key="37" pan="0" vol="100" len="12" pos="1332"/>
          <note key="37" pan="0" vol="100" len="12" pos="1344"/>
          <note key="37" pan="0" vol="100" len="12" pos="1404"/>
          <note key="37" pan="0" vol="100" len="12" pos="1416"/>
          <note key="37" pan="0" vol="100" len="12" pos="1428"/>
          <note key="37" pan="0" vol="100" len="12" pos="1440"/>
          <note key="37" pan="0" vol="100" len="12" pos="1464"/>
          <note key="39" pan="0" vol="100" len="12" pos="1476"/>
          <note key="39" pan="0" vol="100" len="12" pos="1512"/>
        </pattern>
        <pattern type="1" name="" steps="16" pos="3072" muted="0">
          <note key="38" pan="0" vol="100" len="12" pos="0"/>
          <note key="36" pan="0" vol="100" len="12" pos="72"/>
          <note key="38" pan="0" vol="100" len="12" pos="96"/>
          <note key="36" pan="0" vol="100" len="12" pos="168"/>
          <note key="38" pan="0" vol="100" len="12" pos="192"/>
          <note key="36" pan="0" vol="100" len="12" pos="264"/>
          <note key="38" pan="0" vol="100" len="12" pos="288"/>
          <note key="36" pan="0" vol="100" len="12" pos="300"/>
          <note key="36" pan="0" vol="100" len="12" pos="312"/>
          <note key="38" pan="0" vol="100" len="12" pos="324"/>
          <note key="39" pan="0" vol="100" len="12" pos="336"/>
          <note key="41" pan="0" vol="100" len="12" pos="348"/>
          <note key="41" pan="0" vol="100" len="12" pos="360"/>
          <note key="39" pan="0" vol="100" len="12" pos="372"/>
          <note key="38" pan="0" vol="100" len="12" pos="384"/>
          <note key="36" pan="0" vol="100" len="12" pos="456"/>
          <note key="38" pan="0" vol="100" len="12" pos="480"/>
          <note key="36" pan="0" vol="100" len="12" pos="552"/>
          <note key="38" pan="0" vol="100" len="12" pos="576"/>
          <note key="36" pan="0" vol="100" len="12" pos="648"/>
          <note key="38" pan="0" vol="100" len="12" pos="672"/>
          <note key="36" pan="0" vol="100" len="12" pos="684"/>
          <note key="36" pan="0" vol="100" len="12" pos="696"/>
          <note key="38" pan="0" vol="100" len="12" pos="708"/>
          <note key="39" pan="0" vol="100" len="12" pos="720"/>
          <note key="41" pan="0" vol="100" len="12" pos="732"/>
          <note key="41" pan="0" vol="100" len="12" pos="744"/>
          <note key="39" pan="0" vol="100" len="12" pos="756"/>
          <note key="37" pan="0" vol="100" len="12" pos="768"/>
          <note key="37" pan="0" vol="100" len="12" pos="828"/>
          <note key="37" pan="0" vol="100" len="12" pos="840"/>
          <note key="37" pan="0" vol="100" len="12" pos="852"/>
          <note key="37" pan="0" vol="100" len="12" pos="864"/>
          <note key="37" pan="0" vol="100" len="12" pos="924"/>
          <note key="37" pan="0" vol="100" len="12" pos="936"/>
          <note key="37" pan="0" vol="100" len="12" pos="948"/>
          <note key="37" pan="0" vol="100" len="12" pos="960"/>
          <note key="37" pan="0" vol="100" len="12" pos="1020"/>
          <note key="37" pan="0" vol="100" len="12" pos="1032"/>
          <note key="37" pan="0" vol="100" len="12" pos="1044"/>
          <note key="37" pan="0" vol="100" len="12" pos="1056"/>
          <note key="37" pan="0" vol="100" len="12" pos="1080"/>
          <note key="39" pan="0" vol="100" len="12" pos="1092"/>
          <note key="39" pan="0" vol="100" len="12" pos="1128"/>
          <note key="37" pan="0" vol="100" len="12" pos="1152"/>
          <note key="37" pan="0" vol="100" len="12" pos="1212"/>
          <note key="37" pan="0" vol="100" len="12" pos="1224"/>
          <note key="37" pan="0" vol="100" len="12" pos="1236"/>
          <note key="37" pan="0" vol="100" len="12" pos="1248"/>
          <note key="37" pan="0" vol="100" len="12" pos="1308"/>
          <note key="37" pan="0" vol="100" len="12" pos="1320"/>
          <note key="37" pan="0" vol="100" len="12" pos="1332"/>
          <note key="37" pan="0" vol="100" len="12" pos="1344"/>
          <note key="37" pan="0" vol="100" len="12" pos="1404"/>
          <note key="37" pan="0" vol="100" len="12" pos="1416"/>
          <note key="37" pan="0" vol="100" len="12" pos="1428"/>
          <note key="37" pan="0" vol="100" len="12" pos="1440"/>
          <note key="37" pan="0" vol="100" len="12" pos="1464"/>
          <note key="39" pan="0" vol="100" len="12" pos="1476"/>
          <note key="39" pan="0" vol="100" len="12" pos="1512"/>
        </pattern>
        <pattern type="1" name="" steps="16" pos="4608" muted="0">
          <note key="38" pan="0" vol="100" len="12" pos="0"/>
          <note key="36" pan="0" vol="100" len="12" pos="72"/>
          <note key="38" pan="0" vol="100" len="12" pos="96"/>
          <note key="36" pan="0" vol="100" len="12" pos="168"/>
          <note key="38" pan="0" vol="100" len="12" pos="192"/>
          <note key="36" pan="0" vol="100" len="12" pos="264"/>
          <note key="38" pan="0" vol="100" len="12" pos="288"/>
          <note key="36" pan="0" vol="100" len="12" pos="300"/>
          <note key="36" pan="0" vol="100" len="12" pos="312"/>
          <note key="38" pan="0" vol="100" len="12" pos="324"/>
          <note key="39" pan="0" vol="100" len="12" pos="336"/>
          <note key="41" pan="0" vol="100" len="12" pos="348"/>
          <note key="41" pan="0" vol="100" len="12" pos="360"/>
          <note key="39" pan="0" vol="100" len="12" pos="372"/>
          <note key="38" pan="0" vol="100" len="12" pos="384"/>
          <note key="36" pan="0" vol="100" len="12" pos="456"/>
          <note key="38" pan="0" vol="100" len="12" pos="480"/>
          <note key="36" pan="0" vol="100" len="12" pos="552"/>
          <note key="38" pan="0" vol="100" len="12" pos="576"/>
          <note key="36" pan="0" vol="100" len="12" pos="648"/>
          <note key="38" pan="0" vol="100" len="12" pos="672"/>
          <note key="36" pan="0" vol="100" len="12" pos="684"/>
          <note key="36" pan="0" vol="100" len="12" pos="696"/>
          <note key="38" pan="0" vol="100" len="12" pos="708"/>
          <note key="39" pan="0" vol="100" len="12" pos="720"/>
          <note key="41" pan="0" vol="100" len="12" pos="732"/>
          <note key="41" pan="0" vol="100" len="12" pos="744"/>
          <note key="39" pan="0" vol="100" len="12" pos="756"/>
          <note key="37" pan="0" vol="100" len="12" pos="768"/>
          <note key="37" pan="0" vol="100" len="12" pos="828"/>
          <note key="37" pan="0" vol="100" len="12" pos="840"/>
          <note key="37" pan="0" vol="100" len="12" pos="852"/>
          <note key="37" pan="0" vol="100" len="12" pos="864"/>
          <note key="37" pan="0" vol="100" len="12" pos="924"/>
          <note key="37" pan="0" vol="100" len="12" pos="936"/>
          <note key="37" pan="0" vol="100" len="12" pos="948"/>
          <note key="37" pan="0" vol="100" len="12" pos="960"/>
          <note key="37" pan="0" vol="100" len="12" pos="1020"/>
          <note key="37" pan="0" vol="100" len="12" pos="1032"/>
          <note key="37" pan="0" vol="100" len="12" pos="1044"/>
          <note key="37" pan="0" vol="100" len="12" pos="1056"/>
          <note key="37" pan="0" vol="100" len="12" pos="1080"/>
          <note key="39" pan="0" vol="100" len="12" pos="1092"/>
          <note key="39" pan="0" vol="100" len="12" pos="1128"/>
          <note key="37" pan="0" vol="100" len="12" pos="1152"/>
          <note key="37" pan="0" vol="100" len="12" pos="1212"/>
          <note key="37" pan="0" vol="100" len="12" pos="1224"/>
          <note key="37" pan="0" vol="100" len="12" pos="1236"/>
          <note key="37" pan="0" vol="100" len="12" pos="1248"/>
          <note key="37" pan="0" vol="100" len="12" pos="1308"/>
          <note key="37" pan="0" vol="100" len="12" pos="1320"/>
          <note key="37" pan="0" vol="100" len="12" pos="1332"/>
          <note key="37" pan="0" vol="100" len="12" pos="1344"/>
          <note key="37" pan="0" vol="100" len="12" pos="1404"/>
          <note key="37" pan="0" vol="100" len="12" pos="1416"/>
          <note key="37" pan="0" vol="100" len="12" pos="1428"/>
          <note key="37" pan="0" vol="100" len="12" pos="1440"/>
          <note key="37" pan="0" vol="100" len="12" pos="1464"/>
          <note key="39" pan="0" vol="100" len="12" pos="1476"/>
          <note key="39" pan="0" vol="100" len="12" pos="1512"/>
        </pattern>
      </track>
      <track type="0" name="warp01.ogg" solo="0" muted="0">
        <instrumenttrack usemasterpitch="1" pitchrange="1" fxch="0" pan="0" basenote="57" vol="100" pitch="0">
          <instrument name="audiofileprocessor">
            <audiofileprocessor interp="1" lframe="0" stutter="0" amp="100" src="effects/warp01.ogg" sframe="0" eframe="1" looped="0" reversed="0"/>
          </instrument>
          <eldata fcut="14000" fwet="0" ftype="0" fres="0.5">
            <elvol rel="0.1" amt="1" lspd="0.1" lamt="0" sustain="0.5" userwavefile="" x100="0" ctlenvamt="0" lpdel="0" att="0" dec="0.62" pdel="0" lspd_numerator="4" lshp="0" latt="0" lspd_denominator="4" hold="0.23600002" lspd_syncmode="0"/>
            <elcut rel="0.1" amt="0" lspd="0.1" lamt="0" sustain="0.5" userwavefile="" x100="0" ctlenvamt="0" lpdel="0" att="0" dec="0.5" pdel="0" lspd_numerator="4" lshp="0" latt="0" lspd_denominator="4" hold="0.5" lspd_syncmode="0"/>
            <elres rel="0.1" amt="1" lspd="0.1" lamt="0" sustain="0.5" userwavefile="" x100="0" ctlenvamt="0" lpdel="0" att="0" dec="0.5" pdel="0" lspd_numerator="4" lshp="0" latt="0" lspd_denominator="4" hold="0.5" lspd_syncmode="0"/>
          </eldata>
          <chordcreator chordrange="1" chord="0" chord-enabled="1"/>
          <arpeggiator arpskip="0" arptime_syncmode="0" arpcycle="0" arp="0" arpmiss="0" arptime_denominator="4" arp-enabled="0" arptime_numerator="4" arpdir="0" arprange="1" arptime="200" arpgate="100" arpmode="0"/>
          <midiport outputprogram="1" readable="0" fixedoutputnote="-1" inputchannel="0" inputcontroller="0" basevelocity="63" outputchannel="1" writable="0" fixedoutputvelocity="-1" outputcontroller="0" fixedinputvelocity="-1"/>
          <fxchain numofeffects="2" enabled="1">
            <effect autoquit="1" name="ladspaeffect" on="1" autoquit_syncmode="0" autoquit_denominator="4" gate="0" wet="1" autoquit_numerator="4">
              <ladspacontrols ports="10">
                <port00 data="280"/>
                <port01 data="0"/>
                <port02 data="107.5"/>
                <port03 data="0"/>
                <port04 data="0"/>
                <port05 data="0"/>
                <port06 data="0"/>
                <port07 data="0"/>
                <port08 data="0"/>
                <port09 data="0"/>
              </ladspacontrols>
              <key>
                <attribute value="tap_echo" name="file"/>
                <attribute value="tap_stereo_echo" name="plugin"/>
              </key>
            </effect>
            <effect autoquit="1" name="ladspaeffect" on="1" autoquit_syncmode="0" autoquit_denominator="4" gate="0" wet="1" autoquit_numerator="4">
              <ladspacontrols ports="9">
                <port07>
                  <data value="0.98984641" id="4639240" scale_type="log"/>
                </port07>
                <port08>
                  <data value="6324.5552" id="6416635" scale_type="log"/>
                </port08>
                <port09 data="1"/>
                <port010 data="0.5"/>
                <port011 data="0.5"/>
                <port012 data="1"/>
                <port013 data="0"/>
                <port014>
                  <data value="632.45551" id="5187421" scale_type="log"/>
                </port014>
                <port015>
                  <data value="3556.5579" id="2831938" scale_type="log"/>
                </port015>
              </ladspacontrols>
              <key>
                <attribute value="calf" name="file"/>
                <attribute value="Reverb" name="plugin"/>
              </key>
            </effect>
          </fxchain>
        </instrumenttrack>
        <pattern type="1" name="warp01.ogg" steps="16" pos="10560" muted="0">
          <note key="57" pan="0" vol="100" len="624" pos="144"/>
        </pattern>
        <pattern type="1" name="" steps="16" pos="15168" muted="0">
          <note key="57" pan="0" vol="100" len="624" pos="144"/>
        </pattern>
      </track>
      <track type="0" name="Choir" solo="0" muted="0">
        <instrumenttrack usemasterpitch="1" pitchrange="1" fxch="4" pan="0" basenote="57" vol="111.2" pitch="0">
          <instrument name="zynaddsubfx">
            <zynaddsubfx filterq="64" bandwidth="64" portamento="0" filterfreq="64" modifiedcontrollers="" resbandwidth="64" rescenterfreq="64" forwardmidicc="1" fmgain="127">
              <ZynAddSubFX-data ZynAddSubFX-author="Nasca Octavian Paul" version-revision="1" version-major="2" version-minor="4">
                <INFORMATION/>
                <BASE_PARAMETERS>
                  <par value="16" name="max_midi_parts"/>
                  <par value="16" name="max_kit_items_per_instrument"/>
                  <par value="4" name="max_system_effects"/>
                  <par value="8" name="max_insertion_effects"/>
                  <par value="3" name="max_instrument_effects"/>
                  <par value="8" name="max_addsynth_voices"/>
                </BASE_PARAMETERS>
                <MASTER>
                  <par value="80" name="volume"/>
                  <par value="64" name="key_shift"/>
                  <par_bool value="yes" name="nrpn_receive"/>
                  <MICROTONAL>
                    <string name="name">12tET</string>
                    <string name="comment">Equal Temperament 12 notes per octave</string>
                    <par_bool value="no" name="invert_up_down"/>
                    <par value="60" name="invert_up_down_center"/>
                    <par_bool value="no" name="enabled"/>
                    <par value="64" name="global_fine_detune"/>
                    <par value="69" name="a_note"/>
                    <par_real value="440.000000" name="a_freq"/>
                  </MICROTONAL>
                  <PART id="0">
                    <par_bool value="yes" name="enabled"/>
                    <par value="96" name="volume"/>
                    <par value="64" name="panning"/>
                    <par value="0" name="min_key"/>
                    <par value="127" name="max_key"/>
                    <par value="64" name="key_shift"/>
                    <par value="0" name="rcv_chn"/>
                    <par value="64" name="velocity_sensing"/>
                    <par value="64" name="velocity_offset"/>
                    <par_bool value="yes" name="note_on"/>
                    <par_bool value="yes" name="poly_mode"/>
                    <par value="0" name="legato_mode"/>
                    <par value="15" name="key_limit"/>
                    <INSTRUMENT>
                      <INFO>
                        <string name="name">Choir</string>
                        <string name="author"/>
                        <string name="comments"/>
                        <par value="0" name="type"/>
                      </INFO>
                      <INSTRUMENT_KIT>
                        <par value="0" name="kit_mode"/>
                        <par_bool value="no" name="drum_mode"/>
                        <INSTRUMENT_KIT_ITEM id="0">
                          <par_bool value="yes" name="enabled"/>
                          <string name="name">Choir</string>
                          <par_bool value="no" name="muted"/>
                          <par value="0" name="min_key"/>
                          <par value="127" name="max_key"/>
                          <par value="0" name="send_to_instrument_effect"/>
                          <par_bool value="no" name="add_enabled"/>
                          <par_bool value="yes" name="sub_enabled"/>
                          <SUB_SYNTH_PARAMETERS>
                            <par value="2" name="num_stages"/>
                            <par value="0" name="harmonic_mag_type"/>
                            <par value="2" name="start"/>
                            <HARMONICS>
                              <HARMONIC id="0">
                                <par value="65" name="mag"/>
                                <par value="64" name="relbw"/>
                              </HARMONIC>
                              <HARMONIC id="1">
                                <par value="122" name="mag"/>
                                <par value="64" name="relbw"/>
                              </HARMONIC>
                              <HARMONIC id="2">
                                <par value="94" name="mag"/>
                                <par value="64" name="relbw"/>
                              </HARMONIC>
                              <HARMONIC id="3">
                                <par value="126" name="mag"/>
                                <par value="64" name="relbw"/>
                              </HARMONIC>
                              <HARMONIC id="9">
                                <par value="15" name="mag"/>
                                <par value="104" name="relbw"/>
                              </HARMONIC>
                              <HARMONIC id="20">
                                <par value="12" name="mag"/>
                                <par value="92" name="relbw"/>
                              </HARMONIC>
                            </HARMONICS>
                            <AMPLITUDE_PARAMETERS>
                              <par_bool value="yes" name="stereo"/>
                              <par value="109" name="volume"/>
                              <par value="64" name="panning"/>
                              <par value="90" name="velocity_sensing"/>
                              <AMPLITUDE_ENVELOPE>
                                <par_bool value="no" name="free_mode"/>
                                <par value="4" name="env_points"/>
                                <par value="2" name="env_sustain"/>
                                <par value="5" name="env_stretch"/>
                                <par_bool value="yes" name="forced_release"/>
                                <par_bool value="no" name="linear_envelope"/>
                                <par value="19" name="A_dt"/>
                                <par value="40" name="D_dt"/>
                                <par value="49" name="R_dt"/>
                                <par value="64" name="A_val"/>
                                <par value="64" name="D_val"/>
                                <par value="127" name="S_val"/>
                                <par value="64" name="R_val"/>
                              </AMPLITUDE_ENVELOPE>
                            </AMPLITUDE_PARAMETERS>
                            <FREQUENCY_PARAMETERS>
                              <par_bool value="no" name="fixed_freq"/>
                              <par value="0" name="fixed_freq_et"/>
                              <par value="8192" name="detune"/>
                              <par value="0" name="coarse_detune"/>
                              <par value="0" name="overtone_spread_type"/>
                              <par value="0" name="overtone_spread_par1"/>
                              <par value="0" name="overtone_spread_par2"/>
                              <par value="0" name="overtone_spread_par3"/>
                              <par value="1" name="detune_type"/>
                              <par value="69" name="bandwidth"/>
                              <par value="64" name="bandwidth_scale"/>
                              <par_bool value="no" name="freq_envelope_enabled"/>
                              <par_bool value="no" name="band_width_envelope_enabled"/>
                            </FREQUENCY_PARAMETERS>
                            <FILTER_PARAMETERS>
                              <par_bool value="no" name="enabled"/>
                            </FILTER_PARAMETERS>
                          </SUB_SYNTH_PARAMETERS>
                          <par_bool value="no" name="pad_enabled"/>
                        </INSTRUMENT_KIT_ITEM>
                        <INSTRUMENT_KIT_ITEM id="1">
                          <par_bool value="no" name="enabled"/>
                        </INSTRUMENT_KIT_ITEM>
                        <INSTRUMENT_KIT_ITEM id="2">
                          <par_bool value="no" name="enabled"/>
                        </INSTRUMENT_KIT_ITEM>
                        <INSTRUMENT_KIT_ITEM id="3">
                          <par_bool value="no" name="enabled"/>
                        </INSTRUMENT_KIT_ITEM>
                        <INSTRUMENT_KIT_ITEM id="4">
                          <par_bool value="no" name="enabled"/>
                        </INSTRUMENT_KIT_ITEM>
                        <INSTRUMENT_KIT_ITEM id="5">
                          <par_bool value="no" name="enabled"/>
                        </INSTRUMENT_KIT_ITEM>
                        <INSTRUMENT_KIT_ITEM id="6">
                          <par_bool value="no" name="enabled"/>
                        </INSTRUMENT_KIT_ITEM>
                        <INSTRUMENT_KIT_ITEM id="7">
                          <par_bool value="no" name="enabled"/>
                        </INSTRUMENT_KIT_ITEM>
                        <INSTRUMENT_KIT_ITEM id="8">
                          <par_bool value="no" name="enabled"/>
                        </INSTRUMENT_KIT_ITEM>
                        <INSTRUMENT_KIT_ITEM id="9">
                          <par_bool value="no" name="enabled"/>
                        </INSTRUMENT_KIT_ITEM>
                        <INSTRUMENT_KIT_ITEM id="10">
                          <par_bool value="no" name="enabled"/>
                        </INSTRUMENT_KIT_ITEM>
                        <INSTRUMENT_KIT_ITEM id="11">
                          <par_bool value="no" name="enabled"/>
                        </INSTRUMENT_KIT_ITEM>
                        <INSTRUMENT_KIT_ITEM id="12">
                          <par_bool value="no" name="enabled"/>
                        </INSTRUMENT_KIT_ITEM>
                        <INSTRUMENT_KIT_ITEM id="13">
                          <par_bool value="no" name="enabled"/>
                        </INSTRUMENT_KIT_ITEM>
                        <INSTRUMENT_KIT_ITEM id="14">
                          <par_bool value="no" name="enabled"/>
                        </INSTRUMENT_KIT_ITEM>
                        <INSTRUMENT_KIT_ITEM id="15">
                          <par_bool value="no" name="enabled"/>
                        </INSTRUMENT_KIT_ITEM>
                      </INSTRUMENT_KIT>
                      <INSTRUMENT_EFFECTS>
                        <INSTRUMENT_EFFECT id="0">
                          <EFFECT>
                            <par value="0" name="type"/>
                          </EFFECT>
                          <par value="0" name="route"/>
                          <par_bool value="no" name="bypass"/>
                        </INSTRUMENT_EFFECT>
                        <INSTRUMENT_EFFECT id="1">
                          <EFFECT>
                            <par value="0" name="type"/>
                          </EFFECT>
                          <par value="0" name="route"/>
                          <par_bool value="no" name="bypass"/>
                        </INSTRUMENT_EFFECT>
                        <INSTRUMENT_EFFECT id="2">
                          <EFFECT>
                            <par value="0" name="type"/>
                          </EFFECT>
                          <par value="0" name="route"/>
                          <par_bool value="no" name="bypass"/>
                        </INSTRUMENT_EFFECT>
                      </INSTRUMENT_EFFECTS>
                    </INSTRUMENT>
                    <CONTROLLER>
                      <par value="100" name="pitchwheel_bendrange"/>
                      <par_bool value="yes" name="expression_receive"/>
                      <par value="64" name="panning_depth"/>
                      <par value="64" name="filter_cutoff_depth"/>
                      <par value="64" name="filter_q_depth"/>
                      <par value="64" name="bandwidth_depth"/>
                      <par value="80" name="mod_wheel_depth"/>
                      <par_bool value="no" name="mod_wheel_exponential"/>
                      <par_bool value="yes" name="fm_amp_receive"/>
                      <par_bool value="yes" name="volume_receive"/>
                      <par_bool value="yes" name="sustain_receive"/>
                      <par_bool value="yes" name="portamento_receive"/>
                      <par value="64" name="portamento_time"/>
                      <par value="3" name="portamento_pitchthresh"/>
                      <par value="1" name="portamento_pitchthreshtype"/>
                      <par value="0" name="portamento_portamento"/>
                      <par value="64" name="portamento_updowntimestretch"/>
                      <par value="0" name="portamento_proportional"/>
                      <par value="80" name="portamento_proprate"/>
                      <par value="90" name="portamento_propdepth"/>
                      <par value="64" name="resonance_center_depth"/>
                      <par value="64" name="resonance_bandwidth_depth"/>
                    </CONTROLLER>
                  </PART>
                  <PART id="1">
                    <par_bool value="no" name="enabled"/>
                  </PART>
                  <PART id="2">
                    <par_bool value="no" name="enabled"/>
                  </PART>
                  <PART id="3">
                    <par_bool value="no" name="enabled"/>
                  </PART>
                  <PART id="4">
                    <par_bool value="no" name="enabled"/>
                  </PART>
                  <PART id="5">
                    <par_bool value="no" name="enabled"/>
                  </PART>
                  <PART id="6">
                    <par_bool value="no" name="enabled"/>
                  </PART>
                  <PART id="7">
                    <par_bool value="no" name="enabled"/>
                  </PART>
                  <PART id="8">
                    <par_bool value="no" name="enabled"/>
                  </PART>
                  <PART id="9">
                    <par_bool value="no" name="enabled"/>
                  </PART>
                  <PART id="10">
                    <par_bool value="no" name="enabled"/>
                  </PART>
                  <PART id="11">
                    <par_bool value="no" name="enabled"/>
                  </PART>
                  <PART id="12">
                    <par_bool value="no" name="enabled"/>
                  </PART>
                  <PART id="13">
                    <par_bool value="no" name="enabled"/>
                  </PART>
                  <PART id="14">
                    <par_bool value="no" name="enabled"/>
                  </PART>
                  <PART id="15">
                    <par_bool value="no" name="enabled"/>
                  </PART>
                  <SYSTEM_EFFECTS>
                    <SYSTEM_EFFECT id="0">
                      <EFFECT>
                        <par value="0" name="type"/>
                      </EFFECT>
                      <VOLUME id="0">
                        <par value="0" name="vol"/>
                      </VOLUME>
                      <VOLUME id="1">
                        <par value="0" name="vol"/>
                      </VOLUME>
                      <VOLUME id="2">
                        <par value="0" name="vol"/>
                      </VOLUME>
                      <VOLUME id="3">
                        <par value="0" name="vol"/>
                      </VOLUME>
                      <VOLUME id="4">
                        <par value="0" name="vol"/>
                      </VOLUME>
                      <VOLUME id="5">
                        <par value="0" name="vol"/>
                      </VOLUME>
                      <VOLUME id="6">
                        <par value="0" name="vol"/>
                      </VOLUME>
                      <VOLUME id="7">
                        <par value="0" name="vol"/>
                      </VOLUME>
                      <VOLUME id="8">
                        <par value="0" name="vol"/>
                      </VOLUME>
                      <VOLUME id="9">
                        <par value="0" name="vol"/>
                      </VOLUME>
                      <VOLUME id="10">
                        <par value="0" name="vol"/>
                      </VOLUME>
                      <VOLUME id="11">
                        <par value="0" name="vol"/>
                      </VOLUME>
                      <VOLUME id="12">
                        <par value="0" name="vol"/>
                      </VOLUME>
                      <VOLUME id="13">
                        <par value="0" name="vol"/>
                      </VOLUME>
                      <VOLUME id="14">
                        <par value="0" name="vol"/>
                      </VOLUME>
                      <VOLUME id="15">
                        <par value="0" name="vol"/>
                      </VOLUME>
                      <SENDTO id="1">
                        <par value="0" name="send_vol"/>
                      </SENDTO>
                      <SENDTO id="2">
                        <par value="0" name="send_vol"/>
                      </SENDTO>
                      <SENDTO id="3">
                        <par value="0" name="send_vol"/>
                      </SENDTO>
                    </SYSTEM_EFFECT>
                    <SYSTEM_EFFECT id="1">
                      <EFFECT>
                        <par value="0" name="type"/>
                      </EFFECT>
                      <VOLUME id="0">
                        <par value="0" name="vol"/>
                      </VOLUME>
                      <VOLUME id="1">
                        <par value="0" name="vol"/>
                      </VOLUME>
                      <VOLUME id="2">
                        <par value="0" name="vol"/>
                      </VOLUME>
                      <VOLUME id="3">
                        <par value="0" name="vol"/>
                      </VOLUME>
                      <VOLUME id="4">
                        <par value="0" name="vol"/>
                      </VOLUME>
                      <VOLUME id="5">
                        <par value="0" name="vol"/>
                      </VOLUME>
                      <VOLUME id="6">
                        <par value="0" name="vol"/>
                      </VOLUME>
                      <VOLUME id="7">
                        <par value="0" name="vol"/>
                      </VOLUME>
                      <VOLUME id="8">
                        <par value="0" name="vol"/>
                      </VOLUME>
                      <VOLUME id="9">
                        <par value="0" name="vol"/>
                      </VOLUME>
                      <VOLUME id="10">
                        <par value="0" name="vol"/>
                      </VOLUME>
                      <VOLUME id="11">
                        <par value="0" name="vol"/>
                      </VOLUME>
                      <VOLUME id="12">
                        <par value="0" name="vol"/>
                      </VOLUME>
                      <VOLUME id="13">
                        <par value="0" name="vol"/>
                      </VOLUME>
                      <VOLUME id="14">
                        <par value="0" name="vol"/>
                      </VOLUME>
                      <VOLUME id="15">
                        <par value="0" name="vol"/>
                      </VOLUME>
                      <SENDTO id="2">
                        <par value="0" name="send_vol"/>
                      </SENDTO>
                      <SENDTO id="3">
                        <par value="0" name="send_vol"/>
                      </SENDTO>
                    </SYSTEM_EFFECT>
                    <SYSTEM_EFFECT id="2">
                      <EFFECT>
                        <par value="0" name="type"/>
                      </EFFECT>
                      <VOLUME id="0">
                        <par value="0" name="vol"/>
                      </VOLUME>
                      <VOLUME id="1">
                        <par value="0" name="vol"/>
                      </VOLUME>
                      <VOLUME id="2">
                        <par value="0" name="vol"/>
                      </VOLUME>
                      <VOLUME id="3">
                        <par value="0" name="vol"/>
                      </VOLUME>
                      <VOLUME id="4">
                        <par value="0" name="vol"/>
                      </VOLUME>
                      <VOLUME id="5">
                        <par value="0" name="vol"/>
                      </VOLUME>
                      <VOLUME id="6">
                        <par value="0" name="vol"/>
                      </VOLUME>
                      <VOLUME id="7">
                        <par value="0" name="vol"/>
                      </VOLUME>
                      <VOLUME id="8">
                        <par value="0" name="vol"/>
                      </VOLUME>
                      <VOLUME id="9">
                        <par value="0" name="vol"/>
                      </VOLUME>
                      <VOLUME id="10">
                        <par value="0" name="vol"/>
                      </VOLUME>
                      <VOLUME id="11">
                        <par value="0" name="vol"/>
                      </VOLUME>
                      <VOLUME id="12">
                        <par value="0" name="vol"/>
                      </VOLUME>
                      <VOLUME id="13">
                        <par value="0" name="vol"/>
                      </VOLUME>
                      <VOLUME id="14">
                        <par value="0" name="vol"/>
                      </VOLUME>
                      <VOLUME id="15">
                        <par value="0" name="vol"/>
                      </VOLUME>
                      <SENDTO id="3">
                        <par value="0" name="send_vol"/>
                      </SENDTO>
                    </SYSTEM_EFFECT>
                    <SYSTEM_EFFECT id="3">
                      <EFFECT>
                        <par value="0" name="type"/>
                      </EFFECT>
                      <VOLUME id="0">
                        <par value="0" name="vol"/>
                      </VOLUME>
                      <VOLUME id="1">
                        <par value="0" name="vol"/>
                      </VOLUME>
                      <VOLUME id="2">
                        <par value="0" name="vol"/>
                      </VOLUME>
                      <VOLUME id="3">
                        <par value="0" name="vol"/>
                      </VOLUME>
                      <VOLUME id="4">
                        <par value="0" name="vol"/>
                      </VOLUME>
                      <VOLUME id="5">
                        <par value="0" name="vol"/>
                      </VOLUME>
                      <VOLUME id="6">
                        <par value="0" name="vol"/>
                      </VOLUME>
                      <VOLUME id="7">
                        <par value="0" name="vol"/>
                      </VOLUME>
                      <VOLUME id="8">
                        <par value="0" name="vol"/>
                      </VOLUME>
                      <VOLUME id="9">
                        <par value="0" name="vol"/>
                      </VOLUME>
                      <VOLUME id="10">
                        <par value="0" name="vol"/>
                      </VOLUME>
                      <VOLUME id="11">
                        <par value="0" name="vol"/>
                      </VOLUME>
                      <VOLUME id="12">
                        <par value="0" name="vol"/>
                      </VOLUME>
                      <VOLUME id="13">
                        <par value="0" name="vol"/>
                      </VOLUME>
                      <VOLUME id="14">
                        <par value="0" name="vol"/>
                      </VOLUME>
                      <VOLUME id="15">
                        <par value="0" name="vol"/>
                      </VOLUME>
                    </SYSTEM_EFFECT>
                  </SYSTEM_EFFECTS>
                  <INSERTION_EFFECTS>
                    <INSERTION_EFFECT id="0">
                      <par value="-1" name="part"/>
                      <EFFECT>
                        <par value="0" name="type"/>
                      </EFFECT>
                    </INSERTION_EFFECT>
                    <INSERTION_EFFECT id="1">
                      <par value="-1" name="part"/>
                      <EFFECT>
                        <par value="0" name="type"/>
                      </EFFECT>
                    </INSERTION_EFFECT>
                    <INSERTION_EFFECT id="2">
                      <par value="-1" name="part"/>
                      <EFFECT>
                        <par value="0" name="type"/>
                      </EFFECT>
                    </INSERTION_EFFECT>
                    <INSERTION_EFFECT id="3">
                      <par value="-1" name="part"/>
                      <EFFECT>
                        <par value="0" name="type"/>
                      </EFFECT>
                    </INSERTION_EFFECT>
                    <INSERTION_EFFECT id="4">
                      <par value="-1" name="part"/>
                      <EFFECT>
                        <par value="0" name="type"/>
                      </EFFECT>
                    </INSERTION_EFFECT>
                    <INSERTION_EFFECT id="5">
                      <par value="-1" name="part"/>
                      <EFFECT>
                        <par value="0" name="type"/>
                      </EFFECT>
                    </INSERTION_EFFECT>
                    <INSERTION_EFFECT id="6">
                      <par value="-1" name="part"/>
                      <EFFECT>
                        <par value="0" name="type"/>
                      </EFFECT>
                    </INSERTION_EFFECT>
                    <INSERTION_EFFECT id="7">
                      <par value="-1" name="part"/>
                      <EFFECT>
                        <par value="0" name="type"/>
                      </EFFECT>
                    </INSERTION_EFFECT>
                  </INSERTION_EFFECTS>
                </MASTER>
              </ZynAddSubFX-data>
            </zynaddsubfx>
          </instrument>
          <eldata fcut="14000" fwet="0" ftype="0" fres="0.5">
            <elvol rel="0.1" amt="0" lspd="0.1" lamt="0" sustain="0.5" userwavefile="" x100="0" ctlenvamt="0" lpdel="0" att="0" dec="0.5" pdel="0" lspd_numerator="4" lshp="0" latt="0" lspd_denominator="4" hold="0.5" lspd_syncmode="0"/>
            <elcut rel="0.1" amt="0" lspd="0.1" lamt="0" sustain="0.5" userwavefile="" x100="0" ctlenvamt="0" lpdel="0" att="0" dec="0.5" pdel="0" lspd_numerator="4" lshp="0" latt="0" lspd_denominator="4" hold="0.5" lspd_syncmode="0"/>
            <elres rel="0.1" amt="0" lspd="0.1" lamt="0" sustain="0.5" userwavefile="" x100="0" ctlenvamt="0" lpdel="0" att="0" dec="0.5" pdel="0" lspd_numerator="4" lshp="0" latt="0" lspd_denominator="4" hold="0.5" lspd_syncmode="0"/>
          </eldata>
          <chordcreator chordrange="1" chord="0" chord-enabled="0"/>
          <arpeggiator arpskip="0" arptime_syncmode="0" arpcycle="0" arp="0" arpmiss="0" arptime_denominator="4" arp-enabled="0" arptime_numerator="4" arpdir="0" arprange="1" arptime="200" arpgate="100" arpmode="0"/>
          <midiport outputprogram="1" readable="0" fixedoutputnote="-1" inputchannel="0" inputcontroller="0" basevelocity="63" outputchannel="1" writable="0" fixedoutputvelocity="-1" outputcontroller="0" fixedinputvelocity="-1"/>
          <fxchain numofeffects="0" enabled="0"/>
        </instrumenttrack>
        <pattern type="1" name="Simple and quiet" steps="16" pos="1536" muted="0">
          <note key="64" pan="0" vol="27" len="768" pos="0"/>
          <note key="60" pan="0" vol="27" len="768" pos="0"/>
          <note key="57" pan="0" vol="27" len="768" pos="0"/>
          <note key="63" pan="0" vol="27" len="768" pos="768"/>
          <note key="59" pan="0" vol="27" len="768" pos="768"/>
          <note key="56" pan="0" vol="27" len="768" pos="768"/>
        </pattern>
        <pattern type="1" name="Simple and quiet" steps="16" pos="3072" muted="0">
          <note key="64" pan="0" vol="27" len="768" pos="0"/>
          <note key="60" pan="0" vol="27" len="768" pos="0"/>
          <note key="57" pan="0" vol="27" len="768" pos="0"/>
          <note key="63" pan="0" vol="27" len="768" pos="768"/>
          <note key="59" pan="0" vol="27" len="768" pos="768"/>
          <note key="56" pan="0" vol="27" len="768" pos="768"/>
        </pattern>
        <pattern type="1" name="" steps="16" pos="6144" muted="0">
          <note key="64" pan="0" vol="97" len="768" pos="0"/>
          <note key="60" pan="0" vol="97" len="768" pos="0"/>
          <note key="57" pan="0" vol="97" len="768" pos="0"/>
          <note key="67" pan="0" vol="97" len="384" pos="384"/>
          <note key="66" pan="0" vol="97" len="384" pos="768"/>
          <note key="63" pan="0" vol="97" len="768" pos="768"/>
          <note key="59" pan="0" vol="97" len="768" pos="768"/>
          <note key="56" pan="0" vol="97" len="768" pos="768"/>
        </pattern>
        <pattern type="1" name="" steps="16" pos="9216" muted="0">
          <note key="64" pan="0" vol="97" len="768" pos="0"/>
          <note key="60" pan="0" vol="97" len="768" pos="0"/>
          <note key="57" pan="0" vol="97" len="768" pos="0"/>
          <note key="67" pan="0" vol="97" len="384" pos="384"/>
          <note key="66" pan="0" vol="97" len="384" pos="768"/>
          <note key="63" pan="0" vol="97" len="768" pos="768"/>
          <note key="59" pan="0" vol="97" len="768" pos="768"/>
          <note key="56" pan="0" vol="97" len="768" pos="768"/>
        </pattern>
        <pattern type="1" name="" steps="16" pos="7680" muted="0">
          <note key="64" pan="0" vol="97" len="768" pos="0"/>
          <note key="60" pan="0" vol="97" len="768" pos="0"/>
          <note key="57" pan="0" vol="97" len="768" pos="0"/>
          <note key="67" pan="0" vol="97" len="384" pos="384"/>
          <note key="66" pan="0" vol="97" len="384" pos="768"/>
          <note key="63" pan="0" vol="97" len="768" pos="768"/>
          <note key="59" pan="0" vol="97" len="768" pos="768"/>
          <note key="56" pan="0" vol="97" len="768" pos="768"/>
        </pattern>
        <pattern type="1" name="" steps="16" pos="10752" muted="0">
          <note key="64" pan="0" vol="97" len="768" pos="0"/>
          <note key="60" pan="0" vol="97" len="768" pos="0"/>
          <note key="57" pan="0" vol="97" len="768" pos="0"/>
          <note key="67" pan="0" vol="97" len="384" pos="384"/>
          <note key="66" pan="0" vol="97" len="384" pos="768"/>
          <note key="63" pan="0" vol="97" len="768" pos="768"/>
          <note key="59" pan="0" vol="97" len="768" pos="768"/>
          <note key="56" pan="0" vol="97" len="768" pos="768"/>
        </pattern>
        <pattern type="1" name="Simple and quiet" steps="16" pos="4608" muted="0">
          <note key="64" pan="0" vol="27" len="768" pos="0"/>
          <note key="60" pan="0" vol="27" len="768" pos="0"/>
          <note key="57" pan="0" vol="27" len="768" pos="0"/>
          <note key="63" pan="0" vol="27" len="768" pos="768"/>
          <note key="59" pan="0" vol="27" len="768" pos="768"/>
          <note key="56" pan="0" vol="27" len="768" pos="768"/>
        </pattern>
        <pattern type="1" name="" steps="16" pos="12288" muted="0">
          <note key="64" pan="0" vol="97" len="768" pos="0"/>
          <note key="60" pan="0" vol="97" len="768" pos="0"/>
          <note key="57" pan="0" vol="97" len="768" pos="0"/>
          <note key="67" pan="0" vol="97" len="384" pos="384"/>
          <note key="66" pan="0" vol="97" len="384" pos="768"/>
          <note key="63" pan="0" vol="97" len="768" pos="768"/>
          <note key="59" pan="0" vol="97" len="768" pos="768"/>
          <note key="56" pan="0" vol="97" len="768" pos="768"/>
        </pattern>
        <pattern type="1" name="" steps="16" pos="13824" muted="0">
          <note key="64" pan="0" vol="97" len="768" pos="0"/>
          <note key="60" pan="0" vol="97" len="768" pos="0"/>
          <note key="57" pan="0" vol="97" len="768" pos="0"/>
          <note key="67" pan="0" vol="97" len="384" pos="384"/>
          <note key="68" pan="0" vol="97" len="384" pos="768"/>
          <note key="63" pan="0" vol="97" len="384" pos="768"/>
          <note key="59" pan="0" vol="97" len="768" pos="768"/>
          <note key="56" pan="0" vol="97" len="768" pos="768"/>
          <note key="63" pan="0" vol="140" len="384" pos="1152"/>
        </pattern>
        <pattern type="1" name="" steps="16" pos="15360" muted="0">
          <note key="64" pan="0" vol="97" len="768" pos="0"/>
          <note key="60" pan="0" vol="97" len="768" pos="0"/>
          <note key="57" pan="0" vol="97" len="768" pos="0"/>
          <note key="67" pan="0" vol="97" len="384" pos="384"/>
          <note key="66" pan="0" vol="97" len="384" pos="768"/>
          <note key="63" pan="0" vol="97" len="768" pos="768"/>
          <note key="59" pan="0" vol="97" len="768" pos="768"/>
          <note key="56" pan="0" vol="97" len="768" pos="768"/>
        </pattern>
        <pattern type="1" name="" steps="16" pos="16896" muted="0">
          <note key="64" pan="0" vol="97" len="768" pos="0"/>
          <note key="60" pan="0" vol="97" len="768" pos="0"/>
          <note key="57" pan="0" vol="97" len="768" pos="0"/>
          <note key="67" pan="0" vol="97" len="384" pos="384"/>
          <note key="66" pan="0" vol="97" len="384" pos="768"/>
          <note key="63" pan="0" vol="97" len="768" pos="768"/>
          <note key="59" pan="0" vol="97" len="768" pos="768"/>
          <note key="56" pan="0" vol="97" len="768" pos="768"/>
        </pattern>
      </track>
      <track type="1" name="Beat/Bassline 2" solo="0" muted="0">
        <bbtrack>
          <trackcontainer type="bbtrackcontainer" minimized="0" width="701" height="400" maximized="0" visible="0" x="75" y="394">
            <track type="0" name="kick01.ogg" solo="0" muted="0">
              <instrumenttrack usemasterpitch="1" pitchrange="1" fxch="3" pan="-12" basenote="56" vol="30" pitch="0">
                <instrument name="audiofileprocessor">
                  <audiofileprocessor interp="1" lframe="0" stutter="0" amp="100" src="drums/kick01.ogg" sframe="0" eframe="1" looped="0" reversed="0"/>
                </instrument>
                <eldata fcut="14000" fwet="1" ftype="0" fres="0.5">
                  <elvol rel="0.1" amt="1" lspd="0.1" lamt="0" sustain="0.5" userwavefile="" x100="0" ctlenvamt="0" lpdel="0" att="0" dec="0.5" pdel="0" lspd_numerator="4" lshp="0" latt="0" lspd_denominator="4" hold="0.2" lspd_syncmode="0"/>
                  <elcut rel="0.1" amt="0" lspd="0.1" lamt="0" sustain="0.5" userwavefile="" x100="0" ctlenvamt="0" lpdel="0" att="0" dec="0.5" pdel="0" lspd_numerator="4" lshp="0" latt="0" lspd_denominator="4" hold="0.5" lspd_syncmode="0"/>
                  <elres rel="0.1" amt="0" lspd="0.1" lamt="0" sustain="0.5" userwavefile="" x100="0" ctlenvamt="0" lpdel="0" att="0" dec="0.5" pdel="0" lspd_numerator="4" lshp="0" latt="0" lspd_denominator="4" hold="0.5" lspd_syncmode="0"/>
                </eldata>
                <chordcreator chordrange="1" chord="0" chord-enabled="0"/>
                <arpeggiator arpskip="0" arptime_syncmode="0" arpcycle="0" arp="0" arpmiss="0" arptime_denominator="4" arp-enabled="0" arptime_numerator="4" arpdir="0" arprange="1" arptime="100" arpgate="100" arpmode="0"/>
                <midiport outputprogram="1" readable="0" fixedoutputnote="-1" inputchannel="0" inputcontroller="0" basevelocity="63" outputchannel="1" writable="0" fixedoutputvelocity="-1" outputcontroller="0" fixedinputvelocity="-1"/>
                <fxchain numofeffects="1" enabled="1">
                  <effect autoquit="1" name="ladspaeffect" on="1" autoquit_syncmode="0" autoquit_denominator="4" gate="0" wet="1" autoquit_numerator="4">
                    <ladspacontrols link="1" ports="4">
                      <port00 link="1" data="30"/>
                      <port01 link="1" data="-5"/>
                      <port10 data="30"/>
                      <port11 data="-5"/>
                    </ladspacontrols>
                    <key>
                      <attribute value="satan_maximiser_1408" name="file"/>
                      <attribute value="satanMaximiser" name="plugin"/>
                    </key>
                  </effect>
                </fxchain>
              </instrumenttrack>
              <pattern type="0" name="kick01.ogg" steps="64" pos="0" muted="0">
                <note key="57" pan="0" vol="100" len="-192" pos="0"/>
                <note key="57" pan="0" vol="5" len="-192" pos="12"/>
                <note key="57" pan="0" vol="5" len="-192" pos="24"/>
                <note key="57" pan="0" vol="100" len="-192" pos="36"/>
                <note key="57" pan="0" vol="5" len="-192" pos="60"/>
                <note key="57" pan="0" vol="5" len="-192" pos="72"/>
                <note key="57" pan="0" vol="20" len="-192" pos="84"/>
                <note key="57" pan="0" vol="100" len="-192" pos="96"/>
                <note key="57" pan="0" vol="5" len="-192" pos="108"/>
                <note key="57" pan="0" vol="5" len="-192" pos="120"/>
                <note key="57" pan="0" vol="100" len="-192" pos="132"/>
                <note key="57" pan="0" vol="5" len="-192" pos="156"/>
                <note key="57" pan="0" vol="5" len="-192" pos="168"/>
                <note key="57" pan="0" vol="20" len="-192" pos="180"/>
                <note key="57" pan="0" vol="100" len="-192" pos="192"/>
                <note key="57" pan="0" vol="5" len="-192" pos="204"/>
                <note key="57" pan="0" vol="5" len="-192" pos="216"/>
                <note key="57" pan="0" vol="100" len="-192" pos="228"/>
                <note key="57" pan="0" vol="5" len="-192" pos="252"/>
                <note key="57" pan="0" vol="5" len="-192" pos="264"/>
                <note key="57" pan="0" vol="20" len="-192" pos="276"/>
                <note key="57" pan="0" vol="100" len="-192" pos="288"/>
                <note key="57" pan="0" vol="5" len="-192" pos="300"/>
                <note key="57" pan="0" vol="5" len="-192" pos="312"/>
                <note key="57" pan="0" vol="100" len="-192" pos="324"/>
                <note key="57" pan="0" vol="5" len="-192" pos="348"/>
                <note key="57" pan="0" vol="100" len="-192" pos="360"/>
                <note key="57" pan="0" vol="100" len="-192" pos="384"/>
                <note key="57" pan="0" vol="5" len="-192" pos="396"/>
                <note key="57" pan="0" vol="5" len="-192" pos="408"/>
                <note key="57" pan="0" vol="100" len="-192" pos="420"/>
                <note key="57" pan="0" vol="5" len="-192" pos="444"/>
                <note key="57" pan="0" vol="5" len="-192" pos="456"/>
                <note key="57" pan="0" vol="20" len="-192" pos="468"/>
                <note key="57" pan="0" vol="100" len="-192" pos="480"/>
                <note key="57" pan="0" vol="5" len="-192" pos="492"/>
                <note key="57" pan="0" vol="5" len="-192" pos="504"/>
                <note key="57" pan="0" vol="100" len="-192" pos="516"/>
                <note key="57" pan="0" vol="5" len="-192" pos="540"/>
                <note key="57" pan="0" vol="5" len="-192" pos="552"/>
                <note key="57" pan="0" vol="20" len="-192" pos="564"/>
                <note key="57" pan="0" vol="100" len="-192" pos="576"/>
                <note key="57" pan="0" vol="5" len="-192" pos="588"/>
                <note key="57" pan="0" vol="5" len="-192" pos="600"/>
                <note key="57" pan="0" vol="100" len="-192" pos="612"/>
                <note key="57" pan="0" vol="5" len="-192" pos="636"/>
                <note key="57" pan="0" vol="5" len="-192" pos="648"/>
                <note key="57" pan="0" vol="20" len="-192" pos="660"/>
                <note key="57" pan="0" vol="100" len="-192" pos="672"/>
                <note key="57" pan="0" vol="5" len="-192" pos="684"/>
                <note key="57" pan="0" vol="5" len="-192" pos="696"/>
                <note key="57" pan="0" vol="100" len="-192" pos="708"/>
                <note key="57" pan="0" vol="5" len="-192" pos="732"/>
                <note key="57" pan="0" vol="100" len="-192" pos="744"/>
              </pattern>
              <pattern type="0" name="kick01.ogg" steps="16" pos="192" muted="0"/>
              <pattern type="0" name="kick01.ogg" steps="16" pos="384" muted="0"/>
            </track>
            <track type="0" name="Dubstep snare (short decay).wav" solo="0" muted="0">
              <instrumenttrack usemasterpitch="1" pitchrange="1" fxch="3" pan="0" basenote="57" vol="32.799999" pitch="0">
                <instrument name="audiofileprocessor">
                  <audiofileprocessor interp="1" lframe="0" stutter="0" amp="100" src="gig/Dubstep snare (short decay).wav" sframe="0" eframe="1" looped="0" reversed="0"/>
                </instrument>
                <eldata fcut="200" fwet="0" ftype="10" fres="10">
                  <elvol rel="0.1" amt="1" lspd="0.1" lamt="0" sustain="0" userwavefile="" x100="0" ctlenvamt="0" lpdel="0" att="0" dec="0.35000002" pdel="0" lspd_numerator="4" lshp="0" latt="0" lspd_denominator="4" hold="0" lspd_syncmode="0"/>
                  <elcut rel="0.198" amt="0" lspd="0.1" lamt="0" sustain="0" userwavefile="" x100="0" ctlenvamt="0" lpdel="0" att="0" dec="0.061999999" pdel="0" lspd_numerator="4" lshp="0" latt="0" lspd_denominator="4" hold="0.034000002" lspd_syncmode="0"/>
                  <elres rel="0.1" amt="0" lspd="0.1" lamt="0" sustain="0.5" userwavefile="" x100="0" ctlenvamt="0" lpdel="0" att="0" dec="0.5" pdel="0" lspd_numerator="4" lshp="0" latt="0" lspd_denominator="4" hold="0.5" lspd_syncmode="0"/>
                </eldata>
                <chordcreator chordrange="1" chord="0" chord-enabled="0"/>
                <arpeggiator arpskip="0" arptime_syncmode="0" arpcycle="0" arp="0" arpmiss="0" arptime_denominator="4" arp-enabled="0" arptime_numerator="4" arpdir="0" arprange="1" arptime="100" arpgate="100" arpmode="0"/>
                <midiport outputprogram="1" readable="0" fixedoutputnote="-1" inputchannel="0" inputcontroller="0" basevelocity="63" outputchannel="1" writable="0" fixedoutputvelocity="-1" outputcontroller="0" fixedinputvelocity="-1"/>
                <fxchain numofeffects="2" enabled="1">
                  <effect autoquit="1" name="ladspaeffect" on="0" autoquit_syncmode="0" autoquit_denominator="4" gate="0" wet="1" autoquit_numerator="4">
                    <ladspacontrols ports="7">
                      <port00 data="1.25"/>
                      <port01 data="90"/>
                      <port02 data="75"/>
                      <port03 data="25"/>
                      <port04 data="100"/>
                      <port05 data="0"/>
                      <port06 data="0"/>
                    </ladspacontrols>
                    <key>
                      <attribute value="tap_chorusflanger" name="file"/>
                      <attribute value="tap_chorusflanger" name="plugin"/>
                    </key>
                  </effect>
                  <effect autoquit="1" name="ladspaeffect" on="0" autoquit_syncmode="0" autoquit_denominator="4" gate="0" wet="1" autoquit_numerator="4">
                    <ladspacontrols ports="13">
                      <port04 data="0"/>
                      <port05 data="1"/>
                      <port06 data="1"/>
                      <port07 data="1"/>
                      <port012 data="5.0500002"/>
                      <port013 data="10"/>
                      <port015>
                        <data value="20000" id="3101030" scale_type="log"/>
                      </port015>
                      <port016>
                        <data value="10" id="692951" scale_type="log"/>
                      </port016>
                      <port017>
                        <data value="20000" id="2353953" scale_type="log"/>
                      </port017>
                      <port018>
                        <data value="10" id="5956240" scale_type="log"/>
                      </port018>
                      <port019>
                        <data value="2529.8223" id="5928465" scale_type="log"/>
                      </port019>
                      <port020 data="1"/>
                      <port021>
                        <data value="1" id="6397583" scale_type="log"/>
                      </port021>
                    </ladspacontrols>
                    <key>
                      <attribute value="calf" name="file"/>
                      <attribute value="Saturator" name="plugin"/>
                    </key>
                  </effect>
                </fxchain>
              </instrumenttrack>
              <pattern type="0" name="Dubstep snare (short decay).wav" steps="64" pos="0" muted="0">
                <note key="57" pan="0" vol="100" len="-192" pos="48"/>
                <note key="57" pan="0" vol="100" len="-192" pos="144"/>
                <note key="57" pan="0" vol="100" len="-192" pos="240"/>
                <note key="57" pan="0" vol="100" len="-192" pos="336"/>
                <note key="57" pan="0" vol="100" len="-192" pos="372"/>
                <note key="57" pan="0" vol="100" len="-192" pos="432"/>
                <note key="57" pan="0" vol="100" len="-192" pos="528"/>
                <note key="57" pan="0" vol="100" len="-192" pos="624"/>
                <note key="57" pan="0" vol="100" len="-192" pos="720"/>
                <note key="57" pan="0" vol="100" len="-192" pos="732"/>
                <note key="57" pan="0" vol="100" len="-192" pos="756"/>
              </pattern>
              <pattern type="0" name="Dubstep snare (short decay).wav" steps="16" pos="192" muted="0"/>
              <pattern type="0" name="Dubstep snare (short decay).wav" steps="16" pos="384" muted="0"/>
            </track>
            <track type="0" name="snaph01.ogg" solo="0" muted="0">
              <instrumenttrack usemasterpitch="1" pitchrange="1" fxch="0" pan="0" basenote="57" vol="100" pitch="0">
                <instrument name="audiofileprocessor">
                  <audiofileprocessor interp="1" lframe="0" stutter="0" amp="100" src="misc/snaph01.ogg" sframe="0" eframe="1" looped="0" reversed="0"/>
                </instrument>
                <eldata fcut="14000" fwet="0" ftype="0" fres="0.5">
                  <elvol rel="0.1" amt="0" lspd="0.1" lamt="0" sustain="0.5" userwavefile="" x100="0" ctlenvamt="0" lpdel="0" att="0" dec="0.5" pdel="0" lspd_numerator="4" lshp="0" latt="0" lspd_denominator="4" hold="0.5" lspd_syncmode="0"/>
                  <elcut rel="0.1" amt="0" lspd="0.1" lamt="0" sustain="0.5" userwavefile="" x100="0" ctlenvamt="0" lpdel="0" att="0" dec="0.5" pdel="0" lspd_numerator="4" lshp="0" latt="0" lspd_denominator="4" hold="0.5" lspd_syncmode="0"/>
                  <elres rel="0.1" amt="0" lspd="0.1" lamt="0" sustain="0.5" userwavefile="" x100="0" ctlenvamt="0" lpdel="0" att="0" dec="0.5" pdel="0" lspd_numerator="4" lshp="0" latt="0" lspd_denominator="4" hold="0.5" lspd_syncmode="0"/>
                </eldata>
                <chordcreator chordrange="1" chord="0" chord-enabled="0"/>
                <arpeggiator arpskip="0" arptime_syncmode="0" arpcycle="0" arp="0" arpmiss="0" arptime_denominator="4" arp-enabled="0" arptime_numerator="4" arpdir="0" arprange="1" arptime="200" arpgate="100" arpmode="0"/>
                <midiport outputprogram="1" readable="0" fixedoutputnote="-1" inputchannel="0" inputcontroller="0" basevelocity="63" outputchannel="1" writable="0" fixedoutputvelocity="-1" outputcontroller="0" fixedinputvelocity="-1"/>
                <fxchain numofeffects="0" enabled="0"/>
              </instrumenttrack>
              <pattern type="0" name="snaph01.ogg" steps="64" pos="0" muted="0"/>
              <pattern type="0" name="snaph01.ogg" steps="16" pos="192" muted="0">
                <note key="57" pan="0" vol="100" len="-192" pos="144"/>
              </pattern>
              <pattern type="0" name="snaph01.ogg" steps="16" pos="384" muted="0"/>
            </track>
            <track type="0" name="ride01.ogg" solo="0" muted="0">
              <instrumenttrack usemasterpitch="1" pitchrange="1" fxch="0" basenote="57" vol="53.600002" pitch="0">
                <pan value="-100" id="3444656" scale_type="linear"/>
                <instrument name="audiofileprocessor">
                  <audiofileprocessor interp="1" lframe="0" stutter="0" amp="100" src="drums/ride01.ogg" sframe="0" eframe="1" looped="0" reversed="0"/>
                </instrument>
                <eldata fcut="14000" fwet="0" ftype="0" fres="0.5">
                  <elvol rel="0.40000001" amt="1" lspd="0.1" lamt="0" sustain="0.5" userwavefile="" x100="0" ctlenvamt="0" lpdel="0" att="0" dec="0.41200003" pdel="0" lspd_numerator="4" lshp="0" latt="0" lspd_denominator="4" hold="0" lspd_syncmode="0"/>
                  <elcut rel="0.1" amt="0" lspd="0.1" lamt="0" sustain="0.5" userwavefile="" x100="0" ctlenvamt="0" lpdel="0" att="0" dec="0.5" pdel="0" lspd_numerator="4" lshp="0" latt="0" lspd_denominator="4" hold="0.5" lspd_syncmode="0"/>
                  <elres rel="0.1" amt="0" lspd="0.1" lamt="0" sustain="0.5" userwavefile="" x100="0" ctlenvamt="0" lpdel="0" att="0" dec="0.5" pdel="0" lspd_numerator="4" lshp="0" latt="0" lspd_denominator="4" hold="0.5" lspd_syncmode="0"/>
                </eldata>
                <chordcreator chordrange="1" chord="0" chord-enabled="0"/>
                <arpeggiator arpskip="0" arptime_syncmode="0" arpcycle="0" arp="0" arpmiss="0" arptime_denominator="4" arp-enabled="0" arptime_numerator="4" arpdir="0" arprange="1" arptime="200" arpgate="100" arpmode="0"/>
                <midiport outputprogram="1" readable="0" fixedoutputnote="-1" inputchannel="0" inputcontroller="0" basevelocity="63" outputchannel="1" writable="0" fixedoutputvelocity="-1" outputcontroller="0" fixedinputvelocity="-1"/>
                <fxchain numofeffects="0" enabled="0"/>
              </instrumenttrack>
              <pattern type="0" name="ride01.ogg" steps="64" pos="0" muted="0"/>
              <pattern type="0" name="ride01.ogg" steps="16" pos="192" muted="0"/>
              <pattern type="0" name="ride01.ogg" steps="16" pos="384" muted="0">
                <note key="57" pan="0" vol="100" len="-192" pos="0"/>
                <note key="57" pan="0" vol="100" len="-192" pos="24"/>
                <note key="57" pan="0" vol="100" len="-192" pos="48"/>
                <note key="57" pan="0" vol="100" len="-192" pos="72"/>
                <note key="57" pan="0" vol="100" len="-192" pos="96"/>
                <note key="57" pan="0" vol="100" len="-192" pos="120"/>
                <note key="57" pan="0" vol="100" len="-192" pos="144"/>
                <note key="57" pan="0" vol="100" len="-192" pos="168"/>
              </pattern>
            </track>
            <track type="0" name="amen_ride.ds" solo="0" muted="0">
              <instrumenttrack usemasterpitch="1" pitchrange="1" fxch="0" pan="0" basenote="57" vol="10.400001" pitch="0">
                <instrument name="audiofileprocessor">
                  <audiofileprocessor interp="1" lframe="0" stutter="0" amp="100" src="drumsynth/misc_hats/amen_ride.ds" sframe="0" eframe="1" looped="0" reversed="0"/>
                </instrument>
                <eldata fcut="14000" fwet="0" ftype="0" fres="0.5">
                  <elvol rel="0.46000001" amt="1" lspd="0.1" lamt="0" sustain="0.46000001" userwavefile="" x100="0" ctlenvamt="0" lpdel="0" att="0" dec="0.65600002" pdel="0" lspd_numerator="4" lshp="0" latt="0" lspd_denominator="4" hold="0" lspd_syncmode="0"/>
                  <elcut rel="0.1" amt="0" lspd="0.1" lamt="0" sustain="0.5" userwavefile="" x100="0" ctlenvamt="0" lpdel="0" att="0" dec="0.5" pdel="0" lspd_numerator="4" lshp="0" latt="0" lspd_denominator="4" hold="0.5" lspd_syncmode="0"/>
                  <elres rel="0.1" amt="0" lspd="0.1" lamt="0" sustain="0.5" userwavefile="" x100="0" ctlenvamt="0" lpdel="0" att="0" dec="0.5" pdel="0" lspd_numerator="4" lshp="0" latt="0" lspd_denominator="4" hold="0.5" lspd_syncmode="0"/>
                </eldata>
                <chordcreator chordrange="1" chord="0" chord-enabled="0"/>
                <arpeggiator arpskip="0" arptime_syncmode="0" arpcycle="0" arp="0" arpmiss="0" arptime_denominator="4" arp-enabled="0" arptime_numerator="4" arpdir="0" arprange="1" arptime="200" arpgate="100" arpmode="0"/>
                <midiport outputprogram="1" readable="0" fixedoutputnote="-1" inputchannel="0" inputcontroller="0" basevelocity="63" outputchannel="1" writable="0" fixedoutputvelocity="-1" outputcontroller="0" fixedinputvelocity="-1"/>
                <fxchain numofeffects="0" enabled="0"/>
              </instrumenttrack>
              <pattern type="0" name="amen_ride.ds" steps="64" pos="0" muted="0"/>
              <pattern type="0" name="amen_ride.ds" steps="16" pos="192" muted="0"/>
              <pattern type="0" name="amen_ride.ds" steps="16" pos="384" muted="0">
                <note key="57" pan="0" vol="100" len="-192" pos="0"/>
                <note key="57" pan="0" vol="100" len="-192" pos="48"/>
                <note key="57" pan="0" vol="100" len="-192" pos="96"/>
                <note key="57" pan="0" vol="100" len="-192" pos="144"/>
              </pattern>
            </track>
          </trackcontainer>
        </bbtrack>
        <bbtco name="" len="1536" color="4286611584" pos="0" usestyle="1" muted="0"/>
        <bbtco name="" len="768" color="4286611584" pos="7680" usestyle="1" muted="0"/>
        <bbtco name="" len="3072" color="4286611584" pos="15360" usestyle="1" muted="0"/>
        <bbtco name="" len="768" color="4286611584" pos="1536" usestyle="1" muted="0"/>
        <bbtco name="" len="768" color="4286611584" pos="18816" usestyle="1" muted="0"/>
      </track>
      <track type="0" name="202537__gowers__140-bpm-amen-break-original-processed.wav" solo="0" muted="0">
        <instrumenttrack usemasterpitch="1" pitchrange="1" fxch="0" pan="0" basenote="57" vol="49.600002" pitch="0">
          <instrument name="audiofileprocessor">
            <audiofileprocessor interp="1" lframe="0" stutter="0" amp="100" src="gig/202537__gowers__140-bpm-amen-break-original-processed.wav" sframe="0" eframe="1" looped="0" reversed="0"/>
          </instrument>
          <eldata fcut="14000" fwet="0" ftype="0" fres="0.5">
            <elvol rel="0.1" amt="0" lspd="0.1" lamt="0" sustain="0.5" userwavefile="" x100="0" ctlenvamt="0" lpdel="0" att="0" dec="0.5" pdel="0" lspd_numerator="4" lshp="0" latt="0" lspd_denominator="4" hold="0.5" lspd_syncmode="0"/>
            <elcut rel="0.1" amt="0" lspd="0.1" lamt="0" sustain="0.5" userwavefile="" x100="0" ctlenvamt="0" lpdel="0" att="0" dec="0.5" pdel="0" lspd_numerator="4" lshp="0" latt="0" lspd_denominator="4" hold="0.5" lspd_syncmode="0"/>
            <elres rel="0.1" amt="0" lspd="0.1" lamt="0" sustain="0.5" userwavefile="" x100="0" ctlenvamt="0" lpdel="0" att="0" dec="0.5" pdel="0" lspd_numerator="4" lshp="0" latt="0" lspd_denominator="4" hold="0.5" lspd_syncmode="0"/>
          </eldata>
          <chordcreator chordrange="1" chord="0" chord-enabled="0"/>
          <arpeggiator arpskip="0" arptime_syncmode="0" arpcycle="0" arp="0" arpmiss="0" arptime_denominator="4" arp-enabled="0" arptime_numerator="4" arpdir="0" arprange="1" arptime="200" arpgate="100" arpmode="0"/>
          <midiport outputprogram="1" readable="0" fixedoutputnote="-1" inputchannel="0" inputcontroller="0" basevelocity="63" outputchannel="1" writable="0" fixedoutputvelocity="-1" outputcontroller="0" fixedinputvelocity="-1"/>
          <fxchain numofeffects="1" enabled="1">
            <effect autoquit="1" name="eq" on="1" autoquit_syncmode="0" autoquit_denominator="4" gate="0" wet="1" autoquit_numerator="4">
              <Eq LPres="0.70700002" HP48="0" Peak2active="0" AnalyseIn="1" AnalyseOut="1" Peak3bw="2.6520002" Peak4gain="0" Peak4active="0" Highshelfactive="1" Peak2gain="0" Peak3active="1" LPactive="1" Lowshelfactive="1" HPactive="1" LP12="1" HighShelfres="1.4" LP24="0" HP="0" HP12="1" HP24="0" Lowshelfgain="1.8000001" LowShelfres="1.4" Peak2bw="0.30000001" HPres="0.70700002" Peak1active="0" LP48="0" Peak3gain="-6.8400002" Peak1bw="0.30000001" LP="0" Outputgain="0" Peak4bw="0.30000001" HighShelfgain="3.0600002">
                <Inputgain value="0" id="1228934" scale_type="log"/>
                <Peak1gain value="0" id="157423" scale_type="log"/>
                <HPfreq value="37.846737" id="6129609" scale_type="log"/>
                <LowShelffreq value="162.09015" id="3002531" scale_type="log"/>
                <Peak1freq value="119.99998" id="1456125" scale_type="log"/>
                <Peak2freq value="250.00009" id="226041" scale_type="log"/>
                <Peak3freq value="760.37854" id="4426189" scale_type="log"/>
                <Peak4freq value="4000.0029" id="4593094" scale_type="log"/>
                <Highshelffreq value="7456.1436" id="7046699" scale_type="log"/>
                <LPfreq value="13039.833" id="5732777" scale_type="log"/>
              </Eq>
              <key/>
            </effect>
          </fxchain>
        </instrumenttrack>
        <pattern type="1" name="202537__gowers__140-bpm-amen-break-original-processed.wav" steps="16" pos="1536" muted="0">
          <note key="57" pan="0" vol="100" len="96" pos="0"/>
          <note key="57" pan="0" vol="100" len="96" pos="96"/>
          <note key="57" pan="0" vol="100" len="96" pos="192"/>
          <note key="57" pan="0" vol="100" len="36" pos="288"/>
          <note key="57" pan="0" vol="100" len="36" pos="324"/>
          <note key="57" pan="0" vol="100" len="24" pos="360"/>
          <note key="57" pan="0" vol="100" len="96" pos="384"/>
          <note key="57" pan="0" vol="100" len="96" pos="480"/>
          <note key="57" pan="0" vol="100" len="96" pos="576"/>
          <note key="57" pan="0" vol="100" len="36" pos="672"/>
          <note key="57" pan="0" vol="100" len="60" pos="708"/>
          <note key="57" pan="0" vol="100" len="96" pos="768"/>
          <note key="57" pan="0" vol="100" len="96" pos="864"/>
          <note key="57" pan="0" vol="100" len="96" pos="960"/>
          <note key="57" pan="0" vol="100" len="36" pos="1056"/>
          <note key="57" pan="0" vol="100" len="36" pos="1092"/>
          <note key="57" pan="0" vol="100" len="24" pos="1128"/>
          <note key="57" pan="0" vol="100" len="96" pos="1152"/>
          <note key="57" pan="0" vol="100" len="96" pos="1248"/>
          <note key="57" pan="0" vol="100" len="96" pos="1344"/>
          <note key="57" pan="0" vol="100" len="36" pos="1440"/>
          <note key="57" pan="0" vol="100" len="60" pos="1476"/>
        </pattern>
        <pattern type="1" name="202537__gowers__140-bpm-amen-break-original-processed.wav" steps="16" pos="768" muted="0">
          <note key="57" pan="0" vol="100" len="36" pos="0"/>
          <note key="57" pan="0" vol="100" len="12" pos="36"/>
          <note key="57" pan="0" vol="100" len="48" pos="48"/>
          <note key="57" pan="0" vol="100" len="36" pos="96"/>
          <note key="57" pan="0" vol="100" len="12" pos="132"/>
          <note key="57" pan="0" vol="100" len="48" pos="144"/>
          <note key="57" pan="0" vol="100" len="132" pos="192"/>
          <note key="57" pan="0" vol="100" len="12" pos="324"/>
          <note key="57" pan="0" vol="100" len="48" pos="336"/>
          <note key="57" pan="0" vol="100" len="36" pos="384"/>
          <note key="57" pan="0" vol="100" len="12" pos="420"/>
          <note key="57" pan="0" vol="100" len="48" pos="432"/>
          <note key="57" pan="0" vol="100" len="36" pos="480"/>
          <note key="57" pan="0" vol="100" len="12" pos="516"/>
          <note key="57" pan="0" vol="100" len="48" pos="528"/>
          <note key="57" pan="0" vol="100" len="192" pos="576"/>
        </pattern>
        <pattern type="1" name="202537__gowers__140-bpm-amen-break-original-processed.wav" steps="16" pos="3072" muted="0">
          <note key="57" pan="0" vol="100" len="96" pos="0"/>
          <note key="57" pan="0" vol="100" len="96" pos="96"/>
          <note key="57" pan="0" vol="100" len="96" pos="192"/>
          <note key="57" pan="0" vol="100" len="36" pos="288"/>
          <note key="57" pan="0" vol="100" len="36" pos="324"/>
          <note key="57" pan="0" vol="100" len="24" pos="360"/>
          <note key="57" pan="0" vol="100" len="96" pos="384"/>
          <note key="57" pan="0" vol="100" len="96" pos="480"/>
          <note key="57" pan="0" vol="100" len="96" pos="576"/>
          <note key="57" pan="0" vol="100" len="36" pos="672"/>
          <note key="57" pan="0" vol="100" len="60" pos="708"/>
          <note key="57" pan="0" vol="100" len="96" pos="768"/>
          <note key="57" pan="0" vol="100" len="96" pos="864"/>
          <note key="57" pan="0" vol="100" len="96" pos="960"/>
          <note key="57" pan="0" vol="100" len="36" pos="1056"/>
          <note key="57" pan="0" vol="100" len="36" pos="1092"/>
          <note key="57" pan="0" vol="100" len="24" pos="1128"/>
          <note key="57" pan="0" vol="100" len="96" pos="1152"/>
          <note key="57" pan="0" vol="100" len="96" pos="1248"/>
          <note key="57" pan="0" vol="100" len="96" pos="1344"/>
          <note key="57" pan="0" vol="100" len="36" pos="1440"/>
          <note key="57" pan="0" vol="100" len="60" pos="1476"/>
        </pattern>
        <pattern type="1" name="202537__gowers__140-bpm-amen-break-original-processed.wav" steps="16" pos="4608" muted="0">
          <note key="57" pan="0" vol="100" len="96" pos="0"/>
          <note key="57" pan="0" vol="100" len="96" pos="96"/>
          <note key="57" pan="0" vol="100" len="96" pos="192"/>
          <note key="57" pan="0" vol="100" len="36" pos="288"/>
          <note key="57" pan="0" vol="100" len="36" pos="324"/>
          <note key="57" pan="0" vol="100" len="24" pos="360"/>
          <note key="57" pan="0" vol="100" len="96" pos="384"/>
          <note key="57" pan="0" vol="100" len="96" pos="480"/>
          <note key="57" pan="0" vol="100" len="96" pos="576"/>
          <note key="57" pan="0" vol="100" len="36" pos="672"/>
          <note key="57" pan="0" vol="100" len="60" pos="708"/>
          <note key="57" pan="0" vol="100" len="96" pos="768"/>
          <note key="57" pan="0" vol="100" len="96" pos="864"/>
          <note key="57" pan="0" vol="100" len="96" pos="960"/>
          <note key="57" pan="0" vol="100" len="36" pos="1056"/>
          <note key="57" pan="0" vol="100" len="36" pos="1092"/>
          <note key="57" pan="0" vol="100" len="24" pos="1128"/>
          <note key="57" pan="0" vol="100" len="96" pos="1152"/>
          <note key="57" pan="0" vol="100" len="96" pos="1248"/>
          <note key="57" pan="0" vol="100" len="96" pos="1344"/>
          <note key="57" pan="0" vol="100" len="36" pos="1440"/>
          <note key="57" pan="0" vol="100" len="60" pos="1476"/>
        </pattern>
        <pattern type="1" name="202537__gowers__140-bpm-amen-break-original-processed.wav" steps="16" pos="9216" muted="0">
          <note key="57" pan="0" vol="100" len="96" pos="0"/>
          <note key="57" pan="0" vol="100" len="96" pos="96"/>
          <note key="57" pan="0" vol="100" len="96" pos="192"/>
          <note key="57" pan="0" vol="100" len="36" pos="288"/>
          <note key="57" pan="0" vol="100" len="36" pos="324"/>
          <note key="57" pan="0" vol="100" len="24" pos="360"/>
          <note key="57" pan="0" vol="100" len="96" pos="384"/>
          <note key="57" pan="0" vol="100" len="96" pos="480"/>
          <note key="57" pan="0" vol="100" len="96" pos="576"/>
          <note key="57" pan="0" vol="100" len="36" pos="672"/>
          <note key="57" pan="0" vol="100" len="60" pos="708"/>
          <note key="57" pan="0" vol="100" len="96" pos="768"/>
          <note key="57" pan="0" vol="100" len="96" pos="864"/>
          <note key="57" pan="0" vol="100" len="96" pos="960"/>
          <note key="57" pan="0" vol="100" len="36" pos="1056"/>
          <note key="57" pan="0" vol="100" len="36" pos="1092"/>
          <note key="57" pan="0" vol="100" len="24" pos="1128"/>
          <note key="57" pan="0" vol="100" len="96" pos="1152"/>
          <note key="57" pan="0" vol="100" len="96" pos="1248"/>
          <note key="57" pan="0" vol="100" len="96" pos="1344"/>
          <note key="57" pan="0" vol="100" len="36" pos="1440"/>
          <note key="57" pan="0" vol="100" len="60" pos="1476"/>
        </pattern>
        <pattern type="1" name="202537__gowers__140-bpm-amen-break-original-processed.wav" steps="16" pos="8448" muted="0">
          <note key="57" pan="0" vol="100" len="36" pos="0"/>
          <note key="57" pan="0" vol="100" len="12" pos="36"/>
          <note key="57" pan="0" vol="100" len="48" pos="48"/>
          <note key="57" pan="0" vol="100" len="36" pos="96"/>
          <note key="57" pan="0" vol="100" len="12" pos="132"/>
          <note key="57" pan="0" vol="100" len="48" pos="144"/>
          <note key="57" pan="0" vol="100" len="132" pos="192"/>
          <note key="57" pan="0" vol="100" len="12" pos="324"/>
          <note key="57" pan="0" vol="100" len="48" pos="336"/>
          <note key="57" pan="0" vol="100" len="36" pos="384"/>
          <note key="57" pan="0" vol="100" len="12" pos="420"/>
          <note key="57" pan="0" vol="100" len="48" pos="432"/>
          <note key="57" pan="0" vol="100" len="36" pos="480"/>
          <note key="57" pan="0" vol="100" len="12" pos="516"/>
          <note key="57" pan="0" vol="100" len="48" pos="528"/>
          <note key="57" pan="0" vol="100" len="192" pos="576"/>
        </pattern>
        <pattern type="1" name="202537__gowers__140-bpm-amen-break-original-processed.wav" steps="16" pos="10752" muted="0">
          <note key="57" pan="0" vol="100" len="96" pos="0"/>
          <note key="57" pan="0" vol="100" len="96" pos="96"/>
          <note key="57" pan="0" vol="100" len="96" pos="192"/>
          <note key="57" pan="0" vol="100" len="36" pos="288"/>
          <note key="57" pan="0" vol="100" len="36" pos="324"/>
          <note key="57" pan="0" vol="100" len="24" pos="360"/>
          <note key="57" pan="0" vol="100" len="96" pos="384"/>
          <note key="57" pan="0" vol="100" len="96" pos="480"/>
          <note key="57" pan="0" vol="100" len="96" pos="576"/>
          <note key="57" pan="0" vol="100" len="36" pos="672"/>
          <note key="57" pan="0" vol="100" len="60" pos="708"/>
          <note key="57" pan="0" vol="100" len="96" pos="768"/>
          <note key="57" pan="0" vol="100" len="96" pos="864"/>
          <note key="57" pan="0" vol="100" len="96" pos="960"/>
          <note key="57" pan="0" vol="100" len="36" pos="1056"/>
          <note key="57" pan="0" vol="100" len="36" pos="1092"/>
          <note key="57" pan="0" vol="100" len="24" pos="1128"/>
          <note key="57" pan="0" vol="100" len="96" pos="1152"/>
          <note key="57" pan="0" vol="100" len="96" pos="1248"/>
          <note key="57" pan="0" vol="100" len="96" pos="1344"/>
          <note key="57" pan="0" vol="100" len="36" pos="1440"/>
          <note key="57" pan="0" vol="100" len="60" pos="1476"/>
        </pattern>
        <pattern type="1" name="202537__gowers__140-bpm-amen-break-original-processed.wav" steps="16" pos="12288" muted="0">
          <note key="57" pan="0" vol="100" len="96" pos="0"/>
          <note key="57" pan="0" vol="100" len="96" pos="96"/>
          <note key="57" pan="0" vol="100" len="96" pos="192"/>
          <note key="57" pan="0" vol="100" len="36" pos="288"/>
          <note key="57" pan="0" vol="100" len="36" pos="324"/>
          <note key="57" pan="0" vol="100" len="24" pos="360"/>
          <note key="57" pan="0" vol="100" len="96" pos="384"/>
          <note key="57" pan="0" vol="100" len="96" pos="480"/>
          <note key="57" pan="0" vol="100" len="96" pos="576"/>
          <note key="57" pan="0" vol="100" len="36" pos="672"/>
          <note key="57" pan="0" vol="100" len="60" pos="708"/>
          <note key="57" pan="0" vol="100" len="96" pos="768"/>
          <note key="57" pan="0" vol="100" len="96" pos="864"/>
          <note key="57" pan="0" vol="100" len="96" pos="960"/>
          <note key="57" pan="0" vol="100" len="36" pos="1056"/>
          <note key="57" pan="0" vol="100" len="36" pos="1092"/>
          <note key="57" pan="0" vol="100" len="24" pos="1128"/>
          <note key="57" pan="0" vol="100" len="96" pos="1152"/>
          <note key="57" pan="0" vol="100" len="96" pos="1248"/>
          <note key="57" pan="0" vol="100" len="96" pos="1344"/>
          <note key="57" pan="0" vol="100" len="36" pos="1440"/>
          <note key="57" pan="0" vol="100" len="60" pos="1476"/>
        </pattern>
        <pattern type="1" name="202537__gowers__140-bpm-amen-break-original-processed.wav" steps="16" pos="13824" muted="0">
          <note key="57" pan="0" vol="100" len="96" pos="0"/>
          <note key="57" pan="0" vol="100" len="96" pos="96"/>
          <note key="57" pan="0" vol="100" len="96" pos="192"/>
          <note key="57" pan="0" vol="100" len="36" pos="288"/>
          <note key="57" pan="0" vol="100" len="36" pos="324"/>
          <note key="57" pan="0" vol="100" len="24" pos="360"/>
          <note key="57" pan="0" vol="100" len="96" pos="384"/>
          <note key="57" pan="0" vol="100" len="96" pos="480"/>
          <note key="57" pan="0" vol="100" len="96" pos="576"/>
          <note key="57" pan="0" vol="100" len="36" pos="672"/>
          <note key="57" pan="0" vol="100" len="60" pos="708"/>
          <note key="57" pan="0" vol="100" len="96" pos="768"/>
          <note key="57" pan="0" vol="100" len="96" pos="864"/>
          <note key="57" pan="0" vol="100" len="96" pos="960"/>
          <note key="57" pan="0" vol="100" len="36" pos="1056"/>
          <note key="57" pan="0" vol="100" len="36" pos="1092"/>
          <note key="57" pan="0" vol="100" len="24" pos="1128"/>
          <note key="57" pan="0" vol="100" len="96" pos="1152"/>
          <note key="57" pan="0" vol="100" len="96" pos="1248"/>
          <note key="57" pan="0" vol="100" len="96" pos="1344"/>
          <note key="57" pan="0" vol="100" len="36" pos="1440"/>
          <note key="57" pan="0" vol="100" len="60" pos="1476"/>
        </pattern>
        <pattern type="1" name="202537__gowers__140-bpm-amen-break-original-processed.wav" steps="16" pos="20736" muted="0">
          <note key="55" pan="0" vol="100" len="768" pos="0"/>
          <note key="55" pan="0" vol="40" len="12" pos="720"/>
          <note key="55" pan="0" vol="51" len="12" pos="732"/>
          <note key="55" pan="0" vol="48" len="12" pos="744"/>
          <note key="55" pan="0" vol="42" len="12" pos="756"/>
        </pattern>
      </track>
      <track type="0" name="hit02.ogg" solo="0" muted="0">
        <instrumenttrack usemasterpitch="1" pitchrange="1" fxch="0" pan="0" basenote="57" vol="78.400002" pitch="0">
          <instrument name="audiofileprocessor">
            <audiofileprocessor interp="1" lframe="0" stutter="0" amp="100" src="misc/hit02.ogg" sframe="0" eframe="1" looped="0" reversed="0"/>
          </instrument>
          <eldata fcut="14000" fwet="0" ftype="0" fres="0.5">
            <elvol rel="0.34" amt="1" lspd="0.1" lamt="0" sustain="0.5" userwavefile="" x100="0" ctlenvamt="0" lpdel="0" att="0" dec="0.58000004" pdel="0" lspd_numerator="4" lshp="0" latt="0" lspd_denominator="4" hold="0.21600001" lspd_syncmode="0"/>
            <elcut rel="0.1" amt="0" lspd="0.1" lamt="0" sustain="0.5" userwavefile="" x100="0" ctlenvamt="0" lpdel="0" att="0" dec="0.5" pdel="0" lspd_numerator="4" lshp="0" latt="0" lspd_denominator="4" hold="0.5" lspd_syncmode="0"/>
            <elres rel="0.1" amt="0" lspd="0.1" lamt="0" sustain="0.5" userwavefile="" x100="0" ctlenvamt="0" lpdel="0" att="0" dec="0.5" pdel="0" lspd_numerator="4" lshp="0" latt="0" lspd_denominator="4" hold="0.5" lspd_syncmode="0"/>
          </eldata>
          <chordcreator chordrange="1" chord="3" chord-enabled="0"/>
          <arpeggiator arpskip="0" arptime_syncmode="0" arpcycle="0" arp="0" arpmiss="0" arptime_denominator="4" arp-enabled="0" arptime_numerator="4" arpdir="0" arprange="1" arptime="200" arpgate="100" arpmode="0"/>
          <midiport outputprogram="1" readable="0" fixedoutputnote="-1" inputchannel="0" inputcontroller="0" basevelocity="63" outputchannel="1" writable="0" fixedoutputvelocity="-1" outputcontroller="0" fixedinputvelocity="-1"/>
          <fxchain numofeffects="2" enabled="1">
            <effect autoquit="1" name="ladspaeffect" on="1" autoquit_syncmode="0" autoquit_denominator="4" gate="0" wet="0.23999999" autoquit_numerator="4">
              <ladspacontrols ports="7">
                <port00 data="0.61875004"/>
                <port01 data="90"/>
                <port02 data="75"/>
                <port03 data="25"/>
                <port04 data="100"/>
                <port05 data="0"/>
                <port06 data="0"/>
              </ladspacontrols>
              <key>
                <attribute value="tap_chorusflanger" name="file"/>
                <attribute value="tap_chorusflanger" name="plugin"/>
              </key>
            </effect>
            <effect autoquit="1" name="ladspaeffect" on="1" autoquit_syncmode="0" autoquit_denominator="4" gate="0" wet="1" autoquit_numerator="4">
              <ladspacontrols ports="10">
                <port04 data="0.060000002"/>
                <port05>
                  <data value="223.6068" id="111456" scale_type="log"/>
                </port05>
                <port06 data="2.75"/>
                <port07 data="2.75"/>
                <port08>
                  <data value="6000" id="3817476" scale_type="log"/>
                </port08>
                <port09>
                  <data value="159.05415" id="7191495" scale_type="log"/>
                </port09>
                <port010 data="0"/>
                <port011>
                  <data value="2514.8672" id="1185484" scale_type="log"/>
                </port011>
                <port012 data="0"/>
                <port013 data="0.5"/>
              </ladspacontrols>
              <key>
                <attribute value="zita-reverbs" name="file"/>
                <attribute value="zita-reverb" name="plugin"/>
              </key>
            </effect>
          </fxchain>
        </instrumenttrack>
        <pattern type="1" name="hit02.ogg" steps="16" pos="1536" muted="0">
          <note key="57" pan="0" vol="100" len="24" pos="0"/>
          <note key="57" pan="0" vol="100" len="24" pos="36"/>
          <note key="55" pan="0" vol="100" len="24" pos="72"/>
          <note key="55" pan="0" vol="100" len="24" pos="108"/>
          <note key="55" pan="0" vol="100" len="24" pos="144"/>
          <note key="58" pan="0" vol="100" len="24" pos="168"/>
          <note key="57" pan="0" vol="100" len="24" pos="192"/>
          <note key="57" pan="0" vol="100" len="24" pos="228"/>
          <note key="55" pan="0" vol="100" len="24" pos="264"/>
          <note key="55" pan="0" vol="100" len="24" pos="300"/>
          <note key="55" pan="0" vol="100" len="24" pos="336"/>
          <note key="52" pan="0" vol="100" len="24" pos="360"/>
          <note key="57" pan="0" vol="100" len="24" pos="384"/>
          <note key="57" pan="0" vol="100" len="24" pos="420"/>
          <note key="55" pan="0" vol="100" len="24" pos="456"/>
          <note key="55" pan="0" vol="100" len="24" pos="492"/>
          <note key="55" pan="0" vol="100" len="24" pos="528"/>
          <note key="58" pan="0" vol="100" len="24" pos="552"/>
          <note key="57" pan="0" vol="100" len="24" pos="576"/>
          <note key="57" pan="0" vol="100" len="24" pos="612"/>
          <note key="55" pan="0" vol="100" len="12" pos="648"/>
          <note key="55" pan="0" vol="100" len="12" pos="660"/>
          <note key="55" pan="0" vol="100" len="12" pos="684"/>
          <note key="55" pan="0" vol="100" len="12" pos="696"/>
          <note key="55" pan="0" vol="100" len="24" pos="720"/>
          <note key="52" pan="0" vol="100" len="24" pos="744"/>
          <note key="56" pan="0" vol="100" len="24" pos="768"/>
          <note key="56" pan="0" vol="100" len="24" pos="804"/>
          <note key="54" pan="0" vol="100" len="24" pos="840"/>
          <note key="54" pan="0" vol="100" len="24" pos="876"/>
          <note key="54" pan="0" vol="100" len="24" pos="912"/>
          <note key="57" pan="0" vol="100" len="24" pos="936"/>
          <note key="56" pan="0" vol="100" len="24" pos="960"/>
          <note key="56" pan="0" vol="100" len="24" pos="996"/>
          <note key="54" pan="0" vol="100" len="24" pos="1032"/>
          <note key="54" pan="0" vol="100" len="24" pos="1068"/>
          <note key="54" pan="0" vol="100" len="24" pos="1104"/>
          <note key="51" pan="0" vol="100" len="24" pos="1128"/>
          <note key="56" pan="0" vol="100" len="24" pos="1152"/>
          <note key="56" pan="0" vol="100" len="24" pos="1188"/>
          <note key="54" pan="0" vol="100" len="24" pos="1224"/>
          <note key="54" pan="0" vol="100" len="24" pos="1260"/>
          <note key="54" pan="0" vol="100" len="24" pos="1296"/>
          <note key="57" pan="0" vol="100" len="24" pos="1320"/>
          <note key="56" pan="0" vol="100" len="24" pos="1344"/>
          <note key="56" pan="0" vol="100" len="24" pos="1380"/>
          <note key="54" pan="0" vol="100" len="24" pos="1416"/>
          <note key="54" pan="0" vol="100" len="24" pos="1452"/>
          <note key="54" pan="0" vol="100" len="24" pos="1488"/>
          <note key="52" pan="0" vol="100" len="24" pos="1512"/>
        </pattern>
        <pattern type="1" name="" steps="16" pos="3072" muted="0">
          <note key="57" pan="0" vol="100" len="24" pos="0"/>
          <note key="57" pan="0" vol="100" len="24" pos="36"/>
          <note key="55" pan="0" vol="100" len="24" pos="72"/>
          <note key="55" pan="0" vol="100" len="24" pos="108"/>
          <note key="55" pan="0" vol="100" len="24" pos="144"/>
          <note key="58" pan="0" vol="100" len="24" pos="168"/>
          <note key="57" pan="0" vol="100" len="24" pos="192"/>
          <note key="57" pan="0" vol="100" len="24" pos="228"/>
          <note key="55" pan="0" vol="100" len="24" pos="264"/>
          <note key="55" pan="0" vol="100" len="24" pos="300"/>
          <note key="55" pan="0" vol="100" len="24" pos="336"/>
          <note key="52" pan="0" vol="100" len="24" pos="360"/>
          <note key="57" pan="0" vol="100" len="24" pos="384"/>
          <note key="57" pan="0" vol="100" len="24" pos="420"/>
          <note key="55" pan="0" vol="100" len="24" pos="456"/>
          <note key="55" pan="0" vol="100" len="24" pos="492"/>
          <note key="55" pan="0" vol="100" len="24" pos="528"/>
          <note key="58" pan="0" vol="100" len="24" pos="552"/>
          <note key="57" pan="0" vol="100" len="24" pos="576"/>
          <note key="57" pan="0" vol="100" len="24" pos="612"/>
          <note key="55" pan="0" vol="100" len="12" pos="648"/>
          <note key="55" pan="0" vol="100" len="12" pos="660"/>
          <note key="55" pan="0" vol="100" len="12" pos="684"/>
          <note key="55" pan="0" vol="100" len="12" pos="696"/>
          <note key="55" pan="0" vol="100" len="24" pos="720"/>
          <note key="52" pan="0" vol="100" len="24" pos="744"/>
          <note key="56" pan="0" vol="100" len="24" pos="768"/>
          <note key="56" pan="0" vol="100" len="24" pos="804"/>
          <note key="54" pan="0" vol="100" len="24" pos="840"/>
          <note key="54" pan="0" vol="100" len="24" pos="876"/>
          <note key="54" pan="0" vol="100" len="24" pos="912"/>
          <note key="57" pan="0" vol="100" len="24" pos="936"/>
          <note key="56" pan="0" vol="100" len="24" pos="960"/>
          <note key="56" pan="0" vol="100" len="24" pos="996"/>
          <note key="54" pan="0" vol="100" len="24" pos="1032"/>
          <note key="54" pan="0" vol="100" len="24" pos="1068"/>
          <note key="54" pan="0" vol="100" len="24" pos="1104"/>
          <note key="51" pan="0" vol="100" len="24" pos="1128"/>
          <note key="56" pan="0" vol="100" len="24" pos="1152"/>
          <note key="56" pan="0" vol="100" len="24" pos="1188"/>
          <note key="54" pan="0" vol="100" len="24" pos="1224"/>
          <note key="54" pan="0" vol="100" len="24" pos="1260"/>
          <note key="54" pan="0" vol="100" len="24" pos="1296"/>
          <note key="57" pan="0" vol="100" len="24" pos="1320"/>
          <note key="56" pan="0" vol="100" len="24" pos="1344"/>
          <note key="56" pan="0" vol="100" len="24" pos="1380"/>
          <note key="54" pan="0" vol="100" len="24" pos="1416"/>
          <note key="54" pan="0" vol="100" len="24" pos="1452"/>
          <note key="54" pan="0" vol="100" len="24" pos="1488"/>
          <note key="52" pan="0" vol="100" len="24" pos="1512"/>
        </pattern>
        <pattern type="1" name="" steps="16" pos="4608" muted="0">
          <note key="57" pan="0" vol="100" len="24" pos="0"/>
          <note key="57" pan="0" vol="100" len="24" pos="36"/>
          <note key="55" pan="0" vol="100" len="24" pos="72"/>
          <note key="55" pan="0" vol="100" len="24" pos="108"/>
          <note key="55" pan="0" vol="100" len="24" pos="144"/>
          <note key="58" pan="0" vol="100" len="24" pos="168"/>
          <note key="57" pan="0" vol="100" len="24" pos="192"/>
          <note key="57" pan="0" vol="100" len="24" pos="228"/>
          <note key="55" pan="0" vol="100" len="24" pos="264"/>
          <note key="55" pan="0" vol="100" len="24" pos="300"/>
          <note key="55" pan="0" vol="100" len="24" pos="336"/>
          <note key="52" pan="0" vol="100" len="24" pos="360"/>
          <note key="57" pan="0" vol="100" len="24" pos="384"/>
          <note key="57" pan="0" vol="100" len="24" pos="420"/>
          <note key="55" pan="0" vol="100" len="24" pos="456"/>
          <note key="55" pan="0" vol="100" len="24" pos="492"/>
          <note key="55" pan="0" vol="100" len="24" pos="528"/>
          <note key="58" pan="0" vol="100" len="24" pos="552"/>
          <note key="57" pan="0" vol="100" len="24" pos="576"/>
          <note key="57" pan="0" vol="100" len="24" pos="612"/>
          <note key="55" pan="0" vol="100" len="12" pos="648"/>
          <note key="55" pan="0" vol="100" len="12" pos="660"/>
          <note key="55" pan="0" vol="100" len="12" pos="684"/>
          <note key="55" pan="0" vol="100" len="12" pos="696"/>
          <note key="55" pan="0" vol="100" len="24" pos="720"/>
          <note key="52" pan="0" vol="100" len="24" pos="744"/>
          <note key="56" pan="0" vol="100" len="24" pos="768"/>
          <note key="56" pan="0" vol="100" len="24" pos="804"/>
          <note key="54" pan="0" vol="100" len="24" pos="840"/>
          <note key="54" pan="0" vol="100" len="24" pos="876"/>
          <note key="54" pan="0" vol="100" len="24" pos="912"/>
          <note key="57" pan="0" vol="100" len="24" pos="936"/>
          <note key="56" pan="0" vol="100" len="24" pos="960"/>
          <note key="56" pan="0" vol="100" len="24" pos="996"/>
          <note key="54" pan="0" vol="100" len="24" pos="1032"/>
          <note key="54" pan="0" vol="100" len="24" pos="1068"/>
          <note key="54" pan="0" vol="100" len="24" pos="1104"/>
          <note key="51" pan="0" vol="100" len="24" pos="1128"/>
          <note key="56" pan="0" vol="100" len="24" pos="1152"/>
          <note key="56" pan="0" vol="100" len="24" pos="1188"/>
          <note key="54" pan="0" vol="100" len="24" pos="1224"/>
          <note key="54" pan="0" vol="100" len="24" pos="1260"/>
          <note key="54" pan="0" vol="100" len="24" pos="1296"/>
          <note key="57" pan="0" vol="100" len="24" pos="1320"/>
          <note key="56" pan="0" vol="100" len="24" pos="1344"/>
          <note key="56" pan="0" vol="100" len="24" pos="1380"/>
          <note key="54" pan="0" vol="100" len="24" pos="1416"/>
          <note key="54" pan="0" vol="100" len="24" pos="1452"/>
          <note key="54" pan="0" vol="100" len="24" pos="1488"/>
          <note key="52" pan="0" vol="100" len="24" pos="1512"/>
        </pattern>
        <pattern type="1" name="" steps="16" pos="9216" muted="0">
          <note key="57" pan="0" vol="100" len="24" pos="0"/>
          <note key="57" pan="0" vol="100" len="24" pos="36"/>
          <note key="55" pan="0" vol="100" len="24" pos="72"/>
          <note key="55" pan="0" vol="100" len="24" pos="108"/>
          <note key="55" pan="0" vol="100" len="24" pos="144"/>
          <note key="58" pan="0" vol="100" len="24" pos="168"/>
          <note key="57" pan="0" vol="100" len="24" pos="192"/>
          <note key="57" pan="0" vol="100" len="24" pos="228"/>
          <note key="55" pan="0" vol="100" len="24" pos="264"/>
          <note key="55" pan="0" vol="100" len="24" pos="300"/>
          <note key="55" pan="0" vol="100" len="24" pos="336"/>
          <note key="52" pan="0" vol="100" len="24" pos="360"/>
          <note key="57" pan="0" vol="100" len="24" pos="384"/>
          <note key="57" pan="0" vol="100" len="24" pos="420"/>
          <note key="55" pan="0" vol="100" len="24" pos="456"/>
          <note key="55" pan="0" vol="100" len="24" pos="492"/>
          <note key="55" pan="0" vol="100" len="24" pos="528"/>
          <note key="58" pan="0" vol="100" len="24" pos="552"/>
          <note key="57" pan="0" vol="100" len="24" pos="576"/>
          <note key="57" pan="0" vol="100" len="24" pos="612"/>
          <note key="55" pan="0" vol="100" len="12" pos="648"/>
          <note key="55" pan="0" vol="100" len="12" pos="660"/>
          <note key="55" pan="0" vol="100" len="12" pos="684"/>
          <note key="55" pan="0" vol="100" len="12" pos="696"/>
          <note key="55" pan="0" vol="100" len="24" pos="720"/>
          <note key="52" pan="0" vol="100" len="24" pos="744"/>
          <note key="56" pan="0" vol="100" len="24" pos="768"/>
          <note key="56" pan="0" vol="100" len="24" pos="804"/>
          <note key="54" pan="0" vol="100" len="24" pos="840"/>
          <note key="54" pan="0" vol="100" len="24" pos="876"/>
          <note key="54" pan="0" vol="100" len="24" pos="912"/>
          <note key="57" pan="0" vol="100" len="24" pos="936"/>
          <note key="56" pan="0" vol="100" len="24" pos="960"/>
          <note key="56" pan="0" vol="100" len="24" pos="996"/>
          <note key="54" pan="0" vol="100" len="24" pos="1032"/>
          <note key="54" pan="0" vol="100" len="24" pos="1068"/>
          <note key="54" pan="0" vol="100" len="24" pos="1104"/>
          <note key="51" pan="0" vol="100" len="24" pos="1128"/>
          <note key="56" pan="0" vol="100" len="24" pos="1152"/>
          <note key="56" pan="0" vol="100" len="24" pos="1188"/>
          <note key="54" pan="0" vol="100" len="24" pos="1224"/>
          <note key="54" pan="0" vol="100" len="24" pos="1260"/>
          <note key="54" pan="0" vol="100" len="24" pos="1296"/>
          <note key="57" pan="0" vol="100" len="24" pos="1320"/>
          <note key="56" pan="0" vol="100" len="24" pos="1344"/>
          <note key="56" pan="0" vol="100" len="24" pos="1380"/>
          <note key="54" pan="0" vol="100" len="24" pos="1416"/>
          <note key="54" pan="0" vol="100" len="24" pos="1452"/>
          <note key="54" pan="0" vol="100" len="24" pos="1488"/>
          <note key="52" pan="0" vol="100" len="24" pos="1512"/>
        </pattern>
        <pattern type="1" name="" steps="16" pos="10752" muted="0">
          <note key="57" pan="0" vol="100" len="24" pos="0"/>
          <note key="57" pan="0" vol="100" len="24" pos="36"/>
          <note key="55" pan="0" vol="100" len="24" pos="72"/>
          <note key="55" pan="0" vol="100" len="24" pos="108"/>
          <note key="55" pan="0" vol="100" len="24" pos="144"/>
          <note key="58" pan="0" vol="100" len="24" pos="168"/>
          <note key="57" pan="0" vol="100" len="24" pos="192"/>
          <note key="57" pan="0" vol="100" len="24" pos="228"/>
          <note key="55" pan="0" vol="100" len="24" pos="264"/>
          <note key="55" pan="0" vol="100" len="24" pos="300"/>
          <note key="55" pan="0" vol="100" len="24" pos="336"/>
          <note key="52" pan="0" vol="100" len="24" pos="360"/>
          <note key="57" pan="0" vol="100" len="24" pos="384"/>
          <note key="57" pan="0" vol="100" len="24" pos="420"/>
          <note key="55" pan="0" vol="100" len="24" pos="456"/>
          <note key="55" pan="0" vol="100" len="24" pos="492"/>
          <note key="55" pan="0" vol="100" len="24" pos="528"/>
          <note key="58" pan="0" vol="100" len="24" pos="552"/>
          <note key="57" pan="0" vol="100" len="24" pos="576"/>
          <note key="57" pan="0" vol="100" len="24" pos="612"/>
          <note key="55" pan="0" vol="100" len="12" pos="648"/>
          <note key="55" pan="0" vol="100" len="12" pos="660"/>
          <note key="55" pan="0" vol="100" len="12" pos="684"/>
          <note key="55" pan="0" vol="100" len="12" pos="696"/>
          <note key="55" pan="0" vol="100" len="24" pos="720"/>
          <note key="52" pan="0" vol="100" len="24" pos="744"/>
          <note key="56" pan="0" vol="100" len="24" pos="768"/>
          <note key="56" pan="0" vol="100" len="24" pos="804"/>
          <note key="54" pan="0" vol="100" len="24" pos="840"/>
          <note key="54" pan="0" vol="100" len="24" pos="876"/>
          <note key="54" pan="0" vol="100" len="24" pos="912"/>
          <note key="57" pan="0" vol="100" len="24" pos="936"/>
          <note key="56" pan="0" vol="100" len="24" pos="960"/>
          <note key="56" pan="0" vol="100" len="24" pos="996"/>
          <note key="54" pan="0" vol="100" len="24" pos="1032"/>
          <note key="54" pan="0" vol="100" len="24" pos="1068"/>
          <note key="54" pan="0" vol="100" len="24" pos="1104"/>
          <note key="51" pan="0" vol="100" len="24" pos="1128"/>
          <note key="56" pan="0" vol="100" len="24" pos="1152"/>
          <note key="56" pan="0" vol="100" len="24" pos="1188"/>
          <note key="54" pan="0" vol="100" len="24" pos="1224"/>
          <note key="54" pan="0" vol="100" len="24" pos="1260"/>
          <note key="54" pan="0" vol="100" len="24" pos="1296"/>
          <note key="57" pan="0" vol="100" len="24" pos="1320"/>
          <note key="56" pan="0" vol="100" len="24" pos="1344"/>
          <note key="56" pan="0" vol="100" len="24" pos="1380"/>
          <note key="54" pan="0" vol="100" len="24" pos="1416"/>
          <note key="54" pan="0" vol="100" len="24" pos="1452"/>
          <note key="54" pan="0" vol="100" len="24" pos="1488"/>
          <note key="52" pan="0" vol="100" len="24" pos="1512"/>
        </pattern>
        <pattern type="1" name="" steps="16" pos="12288" muted="0">
          <note key="57" pan="0" vol="100" len="24" pos="0"/>
          <note key="57" pan="0" vol="100" len="24" pos="36"/>
          <note key="55" pan="0" vol="100" len="24" pos="72"/>
          <note key="55" pan="0" vol="100" len="24" pos="108"/>
          <note key="55" pan="0" vol="100" len="24" pos="144"/>
          <note key="58" pan="0" vol="100" len="24" pos="168"/>
          <note key="57" pan="0" vol="100" len="24" pos="192"/>
          <note key="57" pan="0" vol="100" len="24" pos="228"/>
          <note key="55" pan="0" vol="100" len="24" pos="264"/>
          <note key="55" pan="0" vol="100" len="24" pos="300"/>
          <note key="55" pan="0" vol="100" len="24" pos="336"/>
          <note key="52" pan="0" vol="100" len="24" pos="360"/>
          <note key="57" pan="0" vol="100" len="24" pos="384"/>
          <note key="57" pan="0" vol="100" len="24" pos="420"/>
          <note key="55" pan="0" vol="100" len="24" pos="456"/>
          <note key="55" pan="0" vol="100" len="24" pos="492"/>
          <note key="55" pan="0" vol="100" len="24" pos="528"/>
          <note key="58" pan="0" vol="100" len="24" pos="552"/>
          <note key="57" pan="0" vol="100" len="24" pos="576"/>
          <note key="57" pan="0" vol="100" len="24" pos="612"/>
          <note key="55" pan="0" vol="100" len="12" pos="648"/>
          <note key="55" pan="0" vol="100" len="12" pos="660"/>
          <note key="55" pan="0" vol="100" len="12" pos="684"/>
          <note key="55" pan="0" vol="100" len="12" pos="696"/>
          <note key="55" pan="0" vol="100" len="24" pos="720"/>
          <note key="52" pan="0" vol="100" len="24" pos="744"/>
          <note key="56" pan="0" vol="100" len="24" pos="768"/>
          <note key="56" pan="0" vol="100" len="24" pos="804"/>
          <note key="54" pan="0" vol="100" len="24" pos="840"/>
          <note key="54" pan="0" vol="100" len="24" pos="876"/>
          <note key="54" pan="0" vol="100" len="24" pos="912"/>
          <note key="57" pan="0" vol="100" len="24" pos="936"/>
          <note key="56" pan="0" vol="100" len="24" pos="960"/>
          <note key="56" pan="0" vol="100" len="24" pos="996"/>
          <note key="54" pan="0" vol="100" len="24" pos="1032"/>
          <note key="54" pan="0" vol="100" len="24" pos="1068"/>
          <note key="54" pan="0" vol="100" len="24" pos="1104"/>
          <note key="51" pan="0" vol="100" len="24" pos="1128"/>
          <note key="56" pan="0" vol="100" len="24" pos="1152"/>
          <note key="56" pan="0" vol="100" len="24" pos="1188"/>
          <note key="54" pan="0" vol="100" len="24" pos="1224"/>
          <note key="54" pan="0" vol="100" len="24" pos="1260"/>
          <note key="54" pan="0" vol="100" len="24" pos="1296"/>
          <note key="57" pan="0" vol="100" len="24" pos="1320"/>
          <note key="56" pan="0" vol="100" len="24" pos="1344"/>
          <note key="56" pan="0" vol="100" len="24" pos="1380"/>
          <note key="54" pan="0" vol="100" len="24" pos="1416"/>
          <note key="54" pan="0" vol="100" len="24" pos="1452"/>
          <note key="54" pan="0" vol="100" len="24" pos="1488"/>
          <note key="52" pan="0" vol="100" len="24" pos="1512"/>
        </pattern>
        <pattern type="1" name="" steps="16" pos="13824" muted="0">
          <note key="57" pan="0" vol="100" len="24" pos="0"/>
          <note key="57" pan="0" vol="100" len="24" pos="36"/>
          <note key="55" pan="0" vol="100" len="24" pos="72"/>
          <note key="55" pan="0" vol="100" len="24" pos="108"/>
          <note key="55" pan="0" vol="100" len="24" pos="144"/>
          <note key="58" pan="0" vol="100" len="24" pos="168"/>
          <note key="57" pan="0" vol="100" len="24" pos="192"/>
          <note key="57" pan="0" vol="100" len="24" pos="228"/>
          <note key="55" pan="0" vol="100" len="24" pos="264"/>
          <note key="55" pan="0" vol="100" len="24" pos="300"/>
          <note key="55" pan="0" vol="100" len="24" pos="336"/>
          <note key="52" pan="0" vol="100" len="24" pos="360"/>
          <note key="57" pan="0" vol="100" len="24" pos="384"/>
          <note key="57" pan="0" vol="100" len="24" pos="420"/>
          <note key="55" pan="0" vol="100" len="24" pos="456"/>
          <note key="55" pan="0" vol="100" len="24" pos="492"/>
          <note key="55" pan="0" vol="100" len="24" pos="528"/>
          <note key="58" pan="0" vol="100" len="24" pos="552"/>
          <note key="57" pan="0" vol="100" len="24" pos="576"/>
          <note key="57" pan="0" vol="100" len="24" pos="612"/>
          <note key="55" pan="0" vol="100" len="12" pos="648"/>
          <note key="55" pan="0" vol="100" len="12" pos="660"/>
          <note key="55" pan="0" vol="100" len="12" pos="684"/>
          <note key="55" pan="0" vol="100" len="12" pos="696"/>
          <note key="55" pan="0" vol="100" len="24" pos="720"/>
          <note key="52" pan="0" vol="100" len="24" pos="744"/>
          <note key="56" pan="0" vol="100" len="24" pos="768"/>
          <note key="56" pan="0" vol="100" len="24" pos="804"/>
          <note key="54" pan="0" vol="100" len="24" pos="840"/>
          <note key="54" pan="0" vol="100" len="24" pos="876"/>
          <note key="54" pan="0" vol="100" len="24" pos="912"/>
          <note key="57" pan="0" vol="100" len="24" pos="936"/>
          <note key="56" pan="0" vol="100" len="24" pos="960"/>
          <note key="56" pan="0" vol="100" len="24" pos="996"/>
          <note key="54" pan="0" vol="100" len="24" pos="1032"/>
          <note key="54" pan="0" vol="100" len="24" pos="1068"/>
          <note key="54" pan="0" vol="100" len="24" pos="1104"/>
          <note key="51" pan="0" vol="100" len="24" pos="1128"/>
          <note key="56" pan="0" vol="100" len="24" pos="1152"/>
          <note key="56" pan="0" vol="100" len="24" pos="1188"/>
          <note key="54" pan="0" vol="100" len="24" pos="1224"/>
          <note key="54" pan="0" vol="100" len="24" pos="1260"/>
          <note key="54" pan="0" vol="100" len="24" pos="1296"/>
          <note key="57" pan="0" vol="100" len="24" pos="1320"/>
          <note key="56" pan="0" vol="100" len="24" pos="1344"/>
          <note key="56" pan="0" vol="100" len="24" pos="1380"/>
          <note key="54" pan="0" vol="100" len="24" pos="1416"/>
          <note key="54" pan="0" vol="100" len="24" pos="1452"/>
          <note key="54" pan="0" vol="100" len="24" pos="1488"/>
          <note key="52" pan="0" vol="100" len="24" pos="1512"/>
        </pattern>
        <pattern type="1" name="hit02.ogg" steps="16" pos="18816" muted="0">
          <note key="59" pan="0" vol="100" len="12" pos="0"/>
          <note key="59" pan="0" vol="100" len="12" pos="48"/>
          <note key="47" pan="0" vol="100" len="12" pos="84"/>
          <note key="59" pan="0" vol="100" len="12" pos="96"/>
          <note key="47" pan="0" vol="100" len="12" pos="120"/>
          <note key="59" pan="0" vol="100" len="12" pos="132"/>
          <note key="47" pan="0" vol="100" len="12" pos="156"/>
          <note key="60" pan="0" vol="100" len="12" pos="168"/>
          <note key="59" pan="0" vol="100" len="12" pos="192"/>
          <note key="59" pan="0" vol="100" len="12" pos="240"/>
          <note key="47" pan="0" vol="100" len="12" pos="276"/>
          <note key="59" pan="0" vol="100" len="12" pos="288"/>
          <note key="47" pan="0" vol="100" len="12" pos="312"/>
          <note key="59" pan="0" vol="100" len="12" pos="324"/>
          <note key="47" pan="0" vol="100" len="12" pos="348"/>
          <note key="60" pan="0" vol="100" len="12" pos="360"/>
          <note key="59" pan="0" vol="100" len="12" pos="384"/>
          <note key="59" pan="0" vol="100" len="12" pos="432"/>
          <note key="47" pan="0" vol="100" len="12" pos="468"/>
          <note key="59" pan="0" vol="100" len="12" pos="480"/>
          <note key="47" pan="0" vol="100" len="12" pos="504"/>
          <note key="59" pan="0" vol="100" len="12" pos="516"/>
          <note key="47" pan="0" vol="100" len="12" pos="540"/>
          <note key="60" pan="0" vol="100" len="12" pos="552"/>
          <note key="57" pan="0" vol="100" len="12" pos="576"/>
          <note key="57" pan="0" vol="100" len="12" pos="624"/>
          <note key="47" pan="0" vol="100" len="12" pos="660"/>
          <note key="57" pan="0" vol="100" len="12" pos="672"/>
          <note key="47" pan="0" vol="100" len="12" pos="696"/>
          <note key="57" pan="0" vol="100" len="12" pos="708"/>
          <note key="47" pan="0" vol="100" len="12" pos="732"/>
          <note key="57" pan="0" vol="100" len="12" pos="744"/>
        </pattern>
        <pattern type="1" name="hit02.ogg" steps="16" pos="20736" muted="0">
          <note key="48" pan="0" vol="100" len="12" pos="0"/>
          <note key="36" pan="0" vol="42" len="12" pos="0"/>
          <note key="45" pan="0" vol="100" len="12" pos="24"/>
          <note key="48" pan="0" vol="100" len="12" pos="48"/>
          <note key="36" pan="0" vol="42" len="12" pos="48"/>
          <note key="45" pan="0" vol="100" len="12" pos="60"/>
          <note key="48" pan="0" vol="100" len="12" pos="84"/>
          <note key="50" pan="0" vol="100" len="12" pos="96"/>
          <note key="38" pan="0" vol="42" len="12" pos="96"/>
          <note key="45" pan="0" vol="100" len="12" pos="120"/>
          <note key="50" pan="0" vol="100" len="12" pos="132"/>
          <note key="38" pan="0" vol="42" len="12" pos="132"/>
          <note key="45" pan="0" vol="100" len="12" pos="156"/>
          <note key="50" pan="0" vol="100" len="12" pos="168"/>
          <note key="38" pan="0" vol="42" len="12" pos="168"/>
          <note key="48" pan="0" vol="100" len="12" pos="192"/>
          <note key="36" pan="0" vol="42" len="12" pos="192"/>
          <note key="45" pan="0" vol="100" len="12" pos="216"/>
          <note key="48" pan="0" vol="100" len="12" pos="240"/>
          <note key="36" pan="0" vol="42" len="12" pos="240"/>
          <note key="45" pan="0" vol="100" len="12" pos="252"/>
          <note key="48" pan="0" vol="100" len="12" pos="276"/>
          <note key="50" pan="0" vol="100" len="12" pos="288"/>
          <note key="38" pan="0" vol="42" len="12" pos="288"/>
          <note key="45" pan="0" vol="100" len="12" pos="312"/>
          <note key="50" pan="0" vol="100" len="12" pos="324"/>
          <note key="38" pan="0" vol="42" len="12" pos="324"/>
          <note key="45" pan="0" vol="100" len="12" pos="348"/>
          <note key="50" pan="0" vol="100" len="12" pos="360"/>
          <note key="38" pan="0" vol="42" len="12" pos="360"/>
          <note key="48" pan="0" vol="100" len="12" pos="384"/>
          <note key="36" pan="0" vol="42" len="12" pos="384"/>
          <note key="45" pan="0" vol="100" len="12" pos="408"/>
          <note key="48" pan="0" vol="100" len="12" pos="432"/>
          <note key="36" pan="0" vol="42" len="12" pos="432"/>
          <note key="45" pan="0" vol="100" len="12" pos="444"/>
          <note key="48" pan="0" vol="100" len="12" pos="468"/>
          <note key="50" pan="0" vol="100" len="12" pos="480"/>
          <note key="38" pan="0" vol="42" len="12" pos="480"/>
          <note key="45" pan="0" vol="100" len="12" pos="504"/>
          <note key="50" pan="0" vol="100" len="12" pos="516"/>
          <note key="38" pan="0" vol="42" len="12" pos="516"/>
          <note key="45" pan="0" vol="100" len="12" pos="540"/>
          <note key="50" pan="0" vol="100" len="12" pos="552"/>
          <note key="38" pan="0" vol="42" len="12" pos="552"/>
          <note key="48" pan="0" vol="100" len="12" pos="576"/>
          <note key="36" pan="0" vol="42" len="12" pos="576"/>
          <note key="45" pan="0" vol="100" len="12" pos="600"/>
          <note key="48" pan="0" vol="100" len="12" pos="624"/>
          <note key="36" pan="0" vol="42" len="12" pos="624"/>
          <note key="45" pan="0" vol="100" len="12" pos="636"/>
          <note key="48" pan="0" vol="100" len="12" pos="660"/>
          <note key="50" pan="0" vol="100" len="12" pos="672"/>
          <note key="38" pan="0" vol="42" len="12" pos="672"/>
          <note key="38" pan="0" vol="65" len="12" pos="696"/>
          <note key="38" pan="0" vol="65" len="12" pos="720"/>
          <note key="38" pan="0" vol="31" len="12" pos="732"/>
          <note key="38" pan="0" vol="68" len="12" pos="744"/>
          <note key="38" pan="0" vol="44" len="12" pos="756"/>
        </pattern>
      </track>
      <track type="0" name="undefined01.ogg" solo="0" muted="0">
        <instrumenttrack usemasterpitch="1" pitchrange="1" fxch="0" pan="0" basenote="57" vol="100" pitch="0">
          <instrument name="audiofileprocessor">
            <audiofileprocessor interp="1" lframe="0" stutter="0" amp="100" src="misc/undefined01.ogg" sframe="0" eframe="1" looped="0" reversed="0"/>
          </instrument>
          <eldata fcut="14000" fwet="0" ftype="0" fres="0.5">
            <elvol rel="0.1" amt="1" lspd="0.1" lamt="0" sustain="0.5" userwavefile="" x100="0" ctlenvamt="0" lpdel="0" att="0" dec="0.5" pdel="0" lspd_numerator="4" lshp="0" latt="0" lspd_denominator="4" hold="0.5" lspd_syncmode="0"/>
            <elcut rel="0.1" amt="0" lspd="0.1" lamt="0" sustain="0.5" userwavefile="" x100="0" ctlenvamt="0" lpdel="0" att="0" dec="0.5" pdel="0" lspd_numerator="4" lshp="0" latt="0" lspd_denominator="4" hold="0.5" lspd_syncmode="0"/>
            <elres rel="0.1" amt="0" lspd="0.1" lamt="0" sustain="0.5" userwavefile="" x100="0" ctlenvamt="0" lpdel="0" att="0" dec="0.5" pdel="0" lspd_numerator="4" lshp="0" latt="0" lspd_denominator="4" hold="0.5" lspd_syncmode="0"/>
          </eldata>
          <chordcreator chordrange="1" chord="0" chord-enabled="0"/>
          <arpeggiator arpskip="0" arptime_syncmode="0" arpcycle="0" arp="0" arpmiss="0" arptime_denominator="4" arp-enabled="0" arptime_numerator="4" arpdir="0" arprange="1" arptime="200" arpgate="100" arpmode="0"/>
          <midiport outputprogram="1" readable="0" fixedoutputnote="-1" inputchannel="0" inputcontroller="0" basevelocity="63" outputchannel="1" writable="0" fixedoutputvelocity="-1" outputcontroller="0" fixedinputvelocity="-1"/>
          <fxchain numofeffects="0" enabled="0"/>
        </instrumenttrack>
        <pattern type="1" name="undefined01.ogg" steps="16" pos="2880" muted="0">
          <note key="57" pan="0" vol="21" len="24" pos="0"/>
          <note key="57" pan="0" vol="40" len="24" pos="36"/>
          <note key="57" pan="0" vol="65" len="24" pos="72"/>
          <note key="57" pan="0" vol="82" len="24" pos="108"/>
          <note key="57" pan="0" vol="100" len="48" pos="144"/>
        </pattern>
      </track>
      <track type="0" name="electric_ping01.ogg" solo="0" muted="0">
        <instrumenttrack usemasterpitch="1" pitchrange="1" fxch="0" pan="0" basenote="57" vol="44.799999" pitch="0">
          <instrument name="audiofileprocessor">
            <audiofileprocessor interp="1" lframe="0" stutter="0" amp="100" src="misc/electric_ping01.ogg" sframe="0" eframe="1" looped="0" reversed="0"/>
          </instrument>
          <eldata fcut="14000" fwet="0" ftype="0" fres="0.5">
            <elvol rel="0.1" amt="1" lspd="0.1" lamt="0" sustain="0.5" userwavefile="" x100="0" ctlenvamt="0" lpdel="0" att="0" dec="0.5" pdel="0" lspd_numerator="4" lshp="0" latt="0" lspd_denominator="4" hold="0.5" lspd_syncmode="0"/>
            <elcut rel="0.1" amt="0" lspd="0.1" lamt="0" sustain="0.5" userwavefile="" x100="0" ctlenvamt="0" lpdel="0" att="0" dec="0.5" pdel="0" lspd_numerator="4" lshp="0" latt="0" lspd_denominator="4" hold="0.5" lspd_syncmode="0"/>
            <elres rel="0.1" amt="0" lspd="0.1" lamt="0" sustain="0.5" userwavefile="" x100="0" ctlenvamt="0" lpdel="0" att="0" dec="0.5" pdel="0" lspd_numerator="4" lshp="0" latt="0" lspd_denominator="4" hold="0.5" lspd_syncmode="0"/>
          </eldata>
          <chordcreator chordrange="2" chord="0" chord-enabled="1"/>
          <arpeggiator arpskip="0" arptime_syncmode="0" arpcycle="0" arp="0" arpmiss="0" arptime_denominator="4" arp-enabled="0" arptime_numerator="4" arpdir="0" arprange="1" arptime="200" arpgate="100" arpmode="0"/>
          <midiport outputprogram="1" readable="0" fixedoutputnote="-1" inputchannel="0" inputcontroller="0" basevelocity="63" outputchannel="1" writable="0" fixedoutputvelocity="-1" outputcontroller="0" fixedinputvelocity="-1"/>
          <fxchain numofeffects="3" enabled="1">
            <effect autoquit="1" name="stereomatrix" on="1" autoquit_syncmode="0" autoquit_denominator="4" gate="0" wet="1" autoquit_numerator="4">
              <stereomatrixcontrols r-l="0" l-r="0" r-r="1" l-l="-1"/>
              <key/>
            </effect>
            <effect autoquit="1" name="ladspaeffect" on="1" autoquit_syncmode="0" autoquit_denominator="4" gate="0" wet="0.63999999" autoquit_numerator="4">
              <ladspacontrols ports="10">
                <port04 data="0.024499999"/>
                <port05>
                  <data value="223.6068" id="1781583" scale_type="log"/>
                </port05>
                <port06 data="2.75"/>
                <port07 data="2.75"/>
                <port08>
                  <data value="6000" id="8201415" scale_type="log"/>
                </port08>
                <port09>
                  <data value="159.05415" id="5197898" scale_type="log"/>
                </port09>
                <port010 data="0"/>
                <port011>
                  <data value="2514.8672" id="4221565" scale_type="log"/>
                </port011>
                <port012 data="0"/>
                <port013 data="0.5"/>
              </ladspacontrols>
              <key>
                <attribute value="zita-reverbs" name="file"/>
                <attribute value="zita-reverb" name="plugin"/>
              </key>
            </effect>
            <effect autoquit="1" name="ladspaeffect" on="1" autoquit_syncmode="0" autoquit_denominator="4" gate="0" wet="1" autoquit_numerator="4">
              <ladspacontrols ports="10">
                <port00 data="100"/>
                <port01 data="0"/>
                <port02 data="0"/>
                <port03 data="0"/>
                <port04 data="-2"/>
                <port05 data="-2.5"/>
                <port06 data="0"/>
                <port07 data="1"/>
                <port08 data="1"/>
                <port09 data="1"/>
              </ladspacontrols>
              <key>
                <attribute value="tap_echo" name="file"/>
                <attribute value="tap_stereo_echo" name="plugin"/>
              </key>
            </effect>
          </fxchain>
        </instrumenttrack>
        <pattern type="1" name="electric_ping01.ogg" steps="16" pos="3072" muted="0">
          <note key="45" pan="0" vol="100" len="24" pos="0"/>
          <note key="45" pan="0" vol="100" len="24" pos="36"/>
          <note key="43" pan="0" vol="100" len="24" pos="72"/>
          <note key="43" pan="0" vol="100" len="24" pos="108"/>
          <note key="43" pan="0" vol="100" len="24" pos="144"/>
          <note key="46" pan="0" vol="100" len="24" pos="168"/>
          <note key="45" pan="0" vol="100" len="24" pos="192"/>
          <note key="45" pan="0" vol="100" len="24" pos="228"/>
          <note key="43" pan="0" vol="100" len="24" pos="264"/>
          <note key="43" pan="0" vol="100" len="24" pos="300"/>
          <note key="43" pan="0" vol="100" len="24" pos="336"/>
          <note key="40" pan="0" vol="100" len="24" pos="360"/>
          <note key="45" pan="0" vol="100" len="24" pos="384"/>
          <note key="45" pan="0" vol="100" len="24" pos="420"/>
          <note key="43" pan="0" vol="100" len="24" pos="456"/>
          <note key="43" pan="0" vol="100" len="24" pos="492"/>
          <note key="43" pan="0" vol="100" len="24" pos="528"/>
          <note key="46" pan="0" vol="100" len="24" pos="552"/>
          <note key="45" pan="0" vol="100" len="24" pos="576"/>
          <note key="45" pan="0" vol="100" len="24" pos="612"/>
          <note key="43" pan="0" vol="100" len="12" pos="648"/>
          <note key="43" pan="0" vol="100" len="12" pos="660"/>
          <note key="43" pan="0" vol="100" len="12" pos="684"/>
          <note key="43" pan="0" vol="100" len="12" pos="696"/>
          <note key="43" pan="0" vol="100" len="12" pos="720"/>
          <note key="43" pan="0" vol="100" len="12" pos="732"/>
          <note key="40" pan="0" vol="100" len="12" pos="744"/>
          <note key="40" pan="0" vol="100" len="12" pos="756"/>
          <note key="44" pan="0" vol="100" len="24" pos="768"/>
          <note key="44" pan="0" vol="100" len="24" pos="804"/>
          <note key="42" pan="0" vol="100" len="24" pos="840"/>
          <note key="42" pan="0" vol="100" len="24" pos="876"/>
          <note key="42" pan="0" vol="100" len="24" pos="912"/>
          <note key="45" pan="0" vol="100" len="24" pos="936"/>
          <note key="44" pan="0" vol="100" len="24" pos="960"/>
          <note key="44" pan="0" vol="100" len="24" pos="996"/>
          <note key="42" pan="0" vol="100" len="24" pos="1032"/>
          <note key="42" pan="0" vol="100" len="24" pos="1068"/>
          <note key="42" pan="0" vol="100" len="24" pos="1104"/>
          <note key="39" pan="0" vol="100" len="24" pos="1128"/>
          <note key="44" pan="0" vol="100" len="24" pos="1152"/>
          <note key="44" pan="0" vol="100" len="24" pos="1188"/>
          <note key="42" pan="0" vol="100" len="24" pos="1224"/>
          <note key="42" pan="0" vol="100" len="24" pos="1260"/>
          <note key="42" pan="0" vol="100" len="24" pos="1296"/>
          <note key="45" pan="0" vol="100" len="24" pos="1320"/>
          <note key="44" pan="0" vol="100" len="24" pos="1344"/>
          <note key="44" pan="0" vol="100" len="24" pos="1380"/>
          <note key="42" pan="0" vol="100" len="24" pos="1416"/>
          <note key="42" pan="0" vol="100" len="24" pos="1452"/>
          <note key="42" pan="0" vol="100" len="24" pos="1488"/>
          <note key="40" pan="0" vol="100" len="24" pos="1512"/>
        </pattern>
        <pattern type="1" name="electric_ping01.ogg" steps="16" pos="4608" muted="0">
          <note key="45" pan="0" vol="100" len="24" pos="0"/>
          <note key="45" pan="0" vol="100" len="24" pos="36"/>
          <note key="43" pan="0" vol="100" len="24" pos="72"/>
          <note key="43" pan="0" vol="100" len="24" pos="108"/>
          <note key="43" pan="0" vol="100" len="24" pos="144"/>
          <note key="46" pan="0" vol="100" len="24" pos="168"/>
          <note key="45" pan="0" vol="100" len="24" pos="192"/>
          <note key="45" pan="0" vol="100" len="24" pos="228"/>
          <note key="43" pan="0" vol="100" len="24" pos="264"/>
          <note key="43" pan="0" vol="100" len="24" pos="300"/>
          <note key="43" pan="0" vol="100" len="24" pos="336"/>
          <note key="40" pan="0" vol="100" len="24" pos="360"/>
          <note key="45" pan="0" vol="100" len="24" pos="384"/>
          <note key="45" pan="0" vol="100" len="24" pos="420"/>
          <note key="43" pan="0" vol="100" len="24" pos="456"/>
          <note key="43" pan="0" vol="100" len="24" pos="492"/>
          <note key="43" pan="0" vol="100" len="24" pos="528"/>
          <note key="46" pan="0" vol="100" len="24" pos="552"/>
          <note key="45" pan="0" vol="100" len="24" pos="576"/>
          <note key="45" pan="0" vol="100" len="24" pos="612"/>
          <note key="43" pan="0" vol="100" len="12" pos="648"/>
          <note key="43" pan="0" vol="100" len="12" pos="660"/>
          <note key="43" pan="0" vol="100" len="12" pos="684"/>
          <note key="43" pan="0" vol="100" len="12" pos="696"/>
          <note key="43" pan="0" vol="100" len="24" pos="720"/>
          <note key="40" pan="0" vol="100" len="24" pos="744"/>
          <note key="44" pan="0" vol="100" len="24" pos="768"/>
          <note key="44" pan="0" vol="100" len="24" pos="804"/>
          <note key="42" pan="0" vol="100" len="24" pos="840"/>
          <note key="42" pan="0" vol="100" len="24" pos="876"/>
          <note key="42" pan="0" vol="100" len="24" pos="912"/>
          <note key="45" pan="0" vol="100" len="24" pos="936"/>
          <note key="44" pan="0" vol="100" len="24" pos="960"/>
          <note key="44" pan="0" vol="100" len="24" pos="996"/>
          <note key="42" pan="0" vol="100" len="24" pos="1032"/>
          <note key="42" pan="0" vol="100" len="24" pos="1068"/>
          <note key="42" pan="0" vol="100" len="24" pos="1104"/>
          <note key="39" pan="0" vol="100" len="24" pos="1128"/>
          <note key="44" pan="0" vol="100" len="24" pos="1152"/>
          <note key="44" pan="0" vol="100" len="24" pos="1188"/>
          <note key="42" pan="0" vol="100" len="24" pos="1224"/>
          <note key="42" pan="0" vol="100" len="24" pos="1260"/>
          <note key="42" pan="0" vol="100" len="24" pos="1296"/>
          <note key="45" pan="0" vol="100" len="24" pos="1320"/>
          <note key="44" pan="0" vol="100" len="24" pos="1344"/>
          <note key="44" pan="0" vol="100" len="24" pos="1380"/>
          <note key="42" pan="0" vol="100" len="24" pos="1416"/>
          <note key="42" pan="0" vol="100" len="24" pos="1452"/>
          <note key="42" pan="0" vol="100" len="24" pos="1488"/>
          <note key="40" pan="0" vol="100" len="24" pos="1512"/>
        </pattern>
        <pattern type="1" name="electric_ping01.ogg" steps="16" pos="9216" muted="0">
          <note key="45" pan="0" vol="100" len="24" pos="0"/>
          <note key="45" pan="0" vol="100" len="24" pos="36"/>
          <note key="43" pan="0" vol="100" len="24" pos="72"/>
          <note key="43" pan="0" vol="100" len="24" pos="108"/>
          <note key="43" pan="0" vol="100" len="24" pos="144"/>
          <note key="46" pan="0" vol="100" len="24" pos="168"/>
          <note key="45" pan="0" vol="100" len="24" pos="192"/>
          <note key="45" pan="0" vol="100" len="24" pos="228"/>
          <note key="43" pan="0" vol="100" len="24" pos="264"/>
          <note key="43" pan="0" vol="100" len="24" pos="300"/>
          <note key="43" pan="0" vol="100" len="24" pos="336"/>
          <note key="40" pan="0" vol="100" len="24" pos="360"/>
          <note key="45" pan="0" vol="100" len="24" pos="384"/>
          <note key="45" pan="0" vol="100" len="24" pos="420"/>
          <note key="43" pan="0" vol="100" len="24" pos="456"/>
          <note key="43" pan="0" vol="100" len="24" pos="492"/>
          <note key="43" pan="0" vol="100" len="24" pos="528"/>
          <note key="46" pan="0" vol="100" len="24" pos="552"/>
          <note key="45" pan="0" vol="100" len="24" pos="576"/>
          <note key="45" pan="0" vol="100" len="24" pos="612"/>
          <note key="43" pan="0" vol="100" len="12" pos="648"/>
          <note key="43" pan="0" vol="100" len="12" pos="660"/>
          <note key="43" pan="0" vol="100" len="12" pos="684"/>
          <note key="43" pan="0" vol="100" len="12" pos="696"/>
          <note key="43" pan="0" vol="100" len="24" pos="720"/>
          <note key="40" pan="0" vol="100" len="24" pos="744"/>
          <note key="44" pan="0" vol="100" len="24" pos="768"/>
          <note key="44" pan="0" vol="100" len="24" pos="804"/>
          <note key="42" pan="0" vol="100" len="24" pos="840"/>
          <note key="42" pan="0" vol="100" len="24" pos="876"/>
          <note key="42" pan="0" vol="100" len="24" pos="912"/>
          <note key="45" pan="0" vol="100" len="24" pos="936"/>
          <note key="44" pan="0" vol="100" len="24" pos="960"/>
          <note key="44" pan="0" vol="100" len="24" pos="996"/>
          <note key="42" pan="0" vol="100" len="24" pos="1032"/>
          <note key="42" pan="0" vol="100" len="24" pos="1068"/>
          <note key="42" pan="0" vol="100" len="24" pos="1104"/>
          <note key="39" pan="0" vol="100" len="24" pos="1128"/>
          <note key="44" pan="0" vol="100" len="24" pos="1152"/>
          <note key="44" pan="0" vol="100" len="24" pos="1188"/>
          <note key="42" pan="0" vol="100" len="24" pos="1224"/>
          <note key="42" pan="0" vol="100" len="24" pos="1260"/>
          <note key="42" pan="0" vol="100" len="24" pos="1296"/>
          <note key="45" pan="0" vol="100" len="24" pos="1320"/>
          <note key="44" pan="0" vol="100" len="24" pos="1344"/>
          <note key="44" pan="0" vol="100" len="24" pos="1380"/>
          <note key="42" pan="0" vol="100" len="24" pos="1416"/>
          <note key="42" pan="0" vol="100" len="24" pos="1452"/>
          <note key="42" pan="0" vol="100" len="24" pos="1488"/>
          <note key="40" pan="0" vol="100" len="24" pos="1512"/>
        </pattern>
        <pattern type="1" name="electric_ping01.ogg" steps="16" pos="10752" muted="0">
          <note key="45" pan="0" vol="100" len="24" pos="0"/>
          <note key="45" pan="0" vol="100" len="24" pos="36"/>
          <note key="43" pan="0" vol="100" len="24" pos="72"/>
          <note key="43" pan="0" vol="100" len="24" pos="108"/>
          <note key="43" pan="0" vol="100" len="24" pos="144"/>
          <note key="46" pan="0" vol="100" len="24" pos="168"/>
          <note key="45" pan="0" vol="100" len="24" pos="192"/>
          <note key="45" pan="0" vol="100" len="24" pos="228"/>
          <note key="43" pan="0" vol="100" len="24" pos="264"/>
          <note key="43" pan="0" vol="100" len="24" pos="300"/>
          <note key="43" pan="0" vol="100" len="24" pos="336"/>
          <note key="40" pan="0" vol="100" len="24" pos="360"/>
          <note key="45" pan="0" vol="100" len="24" pos="384"/>
          <note key="45" pan="0" vol="100" len="24" pos="420"/>
          <note key="43" pan="0" vol="100" len="24" pos="456"/>
          <note key="43" pan="0" vol="100" len="24" pos="492"/>
          <note key="43" pan="0" vol="100" len="24" pos="528"/>
          <note key="46" pan="0" vol="100" len="24" pos="552"/>
          <note key="45" pan="0" vol="100" len="24" pos="576"/>
          <note key="45" pan="0" vol="100" len="24" pos="612"/>
          <note key="43" pan="0" vol="100" len="12" pos="648"/>
          <note key="43" pan="0" vol="100" len="12" pos="660"/>
          <note key="43" pan="0" vol="100" len="12" pos="684"/>
          <note key="43" pan="0" vol="100" len="12" pos="696"/>
          <note key="43" pan="0" vol="100" len="24" pos="720"/>
          <note key="40" pan="0" vol="100" len="24" pos="744"/>
          <note key="44" pan="0" vol="100" len="24" pos="768"/>
          <note key="44" pan="0" vol="100" len="24" pos="804"/>
          <note key="42" pan="0" vol="100" len="24" pos="840"/>
          <note key="42" pan="0" vol="100" len="24" pos="876"/>
          <note key="42" pan="0" vol="100" len="24" pos="912"/>
          <note key="45" pan="0" vol="100" len="24" pos="936"/>
          <note key="44" pan="0" vol="100" len="24" pos="960"/>
          <note key="44" pan="0" vol="100" len="24" pos="996"/>
          <note key="42" pan="0" vol="100" len="24" pos="1032"/>
          <note key="42" pan="0" vol="100" len="24" pos="1068"/>
          <note key="42" pan="0" vol="100" len="24" pos="1104"/>
          <note key="39" pan="0" vol="100" len="24" pos="1128"/>
          <note key="44" pan="0" vol="100" len="24" pos="1152"/>
          <note key="44" pan="0" vol="100" len="24" pos="1188"/>
          <note key="42" pan="0" vol="100" len="24" pos="1224"/>
          <note key="42" pan="0" vol="100" len="24" pos="1260"/>
          <note key="42" pan="0" vol="100" len="24" pos="1296"/>
          <note key="45" pan="0" vol="100" len="24" pos="1320"/>
          <note key="44" pan="0" vol="100" len="24" pos="1344"/>
          <note key="44" pan="0" vol="100" len="24" pos="1380"/>
          <note key="42" pan="0" vol="100" len="24" pos="1416"/>
          <note key="42" pan="0" vol="100" len="24" pos="1452"/>
          <note key="42" pan="0" vol="100" len="24" pos="1488"/>
          <note key="40" pan="0" vol="100" len="24" pos="1512"/>
        </pattern>
        <pattern type="1" name="electric_ping01.ogg" steps="16" pos="13824" muted="0">
          <note key="45" pan="0" vol="100" len="24" pos="0"/>
          <note key="45" pan="0" vol="100" len="24" pos="36"/>
          <note key="43" pan="0" vol="100" len="24" pos="72"/>
          <note key="43" pan="0" vol="100" len="24" pos="108"/>
          <note key="43" pan="0" vol="100" len="24" pos="144"/>
          <note key="46" pan="0" vol="100" len="24" pos="168"/>
          <note key="45" pan="0" vol="100" len="24" pos="192"/>
          <note key="45" pan="0" vol="100" len="24" pos="228"/>
          <note key="43" pan="0" vol="100" len="24" pos="264"/>
          <note key="43" pan="0" vol="100" len="24" pos="300"/>
          <note key="43" pan="0" vol="100" len="24" pos="336"/>
          <note key="40" pan="0" vol="100" len="24" pos="360"/>
          <note key="45" pan="0" vol="100" len="24" pos="384"/>
          <note key="45" pan="0" vol="100" len="24" pos="420"/>
          <note key="43" pan="0" vol="100" len="24" pos="456"/>
          <note key="43" pan="0" vol="100" len="24" pos="492"/>
          <note key="43" pan="0" vol="100" len="24" pos="528"/>
          <note key="46" pan="0" vol="100" len="24" pos="552"/>
          <note key="45" pan="0" vol="100" len="24" pos="576"/>
          <note key="45" pan="0" vol="100" len="24" pos="612"/>
          <note key="43" pan="0" vol="100" len="12" pos="648"/>
          <note key="43" pan="0" vol="100" len="12" pos="660"/>
          <note key="43" pan="0" vol="100" len="12" pos="684"/>
          <note key="43" pan="0" vol="100" len="12" pos="696"/>
          <note key="43" pan="0" vol="100" len="24" pos="720"/>
          <note key="40" pan="0" vol="100" len="24" pos="744"/>
          <note key="44" pan="0" vol="100" len="24" pos="768"/>
          <note key="44" pan="0" vol="100" len="24" pos="804"/>
          <note key="42" pan="0" vol="100" len="24" pos="840"/>
          <note key="42" pan="0" vol="100" len="24" pos="876"/>
          <note key="42" pan="0" vol="100" len="24" pos="912"/>
          <note key="45" pan="0" vol="100" len="24" pos="936"/>
          <note key="44" pan="0" vol="100" len="24" pos="960"/>
          <note key="44" pan="0" vol="100" len="24" pos="996"/>
          <note key="42" pan="0" vol="100" len="24" pos="1032"/>
          <note key="42" pan="0" vol="100" len="24" pos="1068"/>
          <note key="42" pan="0" vol="100" len="24" pos="1104"/>
          <note key="39" pan="0" vol="100" len="24" pos="1128"/>
          <note key="44" pan="0" vol="100" len="24" pos="1152"/>
          <note key="44" pan="0" vol="100" len="24" pos="1188"/>
          <note key="42" pan="0" vol="100" len="24" pos="1224"/>
          <note key="42" pan="0" vol="100" len="24" pos="1260"/>
          <note key="42" pan="0" vol="100" len="24" pos="1296"/>
          <note key="45" pan="0" vol="100" len="24" pos="1320"/>
          <note key="44" pan="0" vol="100" len="24" pos="1344"/>
          <note key="44" pan="0" vol="100" len="24" pos="1380"/>
          <note key="42" pan="0" vol="100" len="24" pos="1416"/>
          <note key="42" pan="0" vol="100" len="24" pos="1452"/>
          <note key="42" pan="0" vol="100" len="24" pos="1488"/>
          <note key="40" pan="0" vol="100" len="24" pos="1512"/>
        </pattern>
        <pattern type="1" name="electric_ping01.ogg" steps="16" pos="12288" muted="0">
          <note key="45" pan="0" vol="100" len="24" pos="0"/>
          <note key="45" pan="0" vol="100" len="24" pos="36"/>
          <note key="43" pan="0" vol="100" len="24" pos="72"/>
          <note key="43" pan="0" vol="100" len="24" pos="108"/>
          <note key="43" pan="0" vol="100" len="24" pos="144"/>
          <note key="46" pan="0" vol="100" len="24" pos="168"/>
          <note key="45" pan="0" vol="100" len="24" pos="192"/>
          <note key="45" pan="0" vol="100" len="24" pos="228"/>
          <note key="43" pan="0" vol="100" len="24" pos="264"/>
          <note key="43" pan="0" vol="100" len="24" pos="300"/>
          <note key="43" pan="0" vol="100" len="24" pos="336"/>
          <note key="40" pan="0" vol="100" len="24" pos="360"/>
          <note key="45" pan="0" vol="100" len="24" pos="384"/>
          <note key="45" pan="0" vol="100" len="24" pos="420"/>
          <note key="43" pan="0" vol="100" len="24" pos="456"/>
          <note key="43" pan="0" vol="100" len="24" pos="492"/>
          <note key="43" pan="0" vol="100" len="24" pos="528"/>
          <note key="46" pan="0" vol="100" len="24" pos="552"/>
          <note key="45" pan="0" vol="100" len="24" pos="576"/>
          <note key="45" pan="0" vol="100" len="24" pos="612"/>
          <note key="43" pan="0" vol="100" len="12" pos="648"/>
          <note key="43" pan="0" vol="100" len="12" pos="660"/>
          <note key="43" pan="0" vol="100" len="12" pos="684"/>
          <note key="43" pan="0" vol="100" len="12" pos="696"/>
          <note key="43" pan="0" vol="100" len="12" pos="720"/>
          <note key="43" pan="0" vol="100" len="12" pos="732"/>
          <note key="40" pan="0" vol="100" len="12" pos="744"/>
          <note key="40" pan="0" vol="100" len="12" pos="756"/>
          <note key="44" pan="0" vol="100" len="24" pos="768"/>
          <note key="44" pan="0" vol="100" len="24" pos="804"/>
          <note key="42" pan="0" vol="100" len="24" pos="840"/>
          <note key="42" pan="0" vol="100" len="24" pos="876"/>
          <note key="42" pan="0" vol="100" len="24" pos="912"/>
          <note key="45" pan="0" vol="100" len="24" pos="936"/>
          <note key="44" pan="0" vol="100" len="24" pos="960"/>
          <note key="44" pan="0" vol="100" len="24" pos="996"/>
          <note key="42" pan="0" vol="100" len="24" pos="1032"/>
          <note key="42" pan="0" vol="100" len="24" pos="1068"/>
          <note key="42" pan="0" vol="100" len="24" pos="1104"/>
          <note key="39" pan="0" vol="100" len="24" pos="1128"/>
          <note key="44" pan="0" vol="100" len="24" pos="1152"/>
          <note key="44" pan="0" vol="100" len="24" pos="1188"/>
          <note key="42" pan="0" vol="100" len="24" pos="1224"/>
          <note key="42" pan="0" vol="100" len="24" pos="1260"/>
          <note key="42" pan="0" vol="100" len="24" pos="1296"/>
          <note key="45" pan="0" vol="100" len="24" pos="1320"/>
          <note key="44" pan="0" vol="100" len="24" pos="1344"/>
          <note key="44" pan="0" vol="100" len="24" pos="1380"/>
          <note key="42" pan="0" vol="100" len="24" pos="1416"/>
          <note key="42" pan="0" vol="100" len="24" pos="1452"/>
          <note key="42" pan="0" vol="100" len="24" pos="1488"/>
          <note key="40" pan="0" vol="100" len="24" pos="1512"/>
        </pattern>
      </track>
      <track type="1" name="Beat/Bassline 1" solo="0" muted="0">
        <bbtrack/>
        <bbtco name="" len="1536" color="4286611584" pos="4608" usestyle="1" muted="0"/>
      </track>
      <track type="0" name="hit01.ogg" solo="0" muted="0">
        <instrumenttrack usemasterpitch="1" pitchrange="1" fxch="0" pan="0" basenote="57" vol="100" pitch="0">
          <instrument name="audiofileprocessor">
            <audiofileprocessor interp="1" lframe="0" stutter="0" amp="100" src="misc/hit01.ogg" sframe="0" eframe="1" looped="0" reversed="0"/>
          </instrument>
          <eldata fcut="14000" fwet="0" ftype="0" fres="0.5">
            <elvol rel="0.1" amt="0" lspd="0.1" lamt="0" sustain="0.5" userwavefile="" x100="0" ctlenvamt="0" lpdel="0" att="0" dec="0.5" pdel="0" lspd_numerator="4" lshp="0" latt="0" lspd_denominator="4" hold="0.5" lspd_syncmode="0"/>
            <elcut rel="0.1" amt="0" lspd="0.1" lamt="0" sustain="0.5" userwavefile="" x100="0" ctlenvamt="0" lpdel="0" att="0" dec="0.5" pdel="0" lspd_numerator="4" lshp="0" latt="0" lspd_denominator="4" hold="0.5" lspd_syncmode="0"/>
            <elres rel="0.1" amt="0" lspd="0.1" lamt="0" sustain="0.5" userwavefile="" x100="0" ctlenvamt="0" lpdel="0" att="0" dec="0.5" pdel="0" lspd_numerator="4" lshp="0" latt="0" lspd_denominator="4" hold="0.5" lspd_syncmode="0"/>
          </eldata>
          <chordcreator chordrange="1" chord="0" chord-enabled="0"/>
          <arpeggiator arpskip="0" arptime_syncmode="0" arpcycle="0" arp="0" arpmiss="0" arptime_denominator="4" arp-enabled="0" arptime_numerator="4" arpdir="0" arprange="1" arptime="200" arpgate="100" arpmode="0"/>
          <midiport outputprogram="1" readable="0" fixedoutputnote="-1" inputchannel="0" inputcontroller="0" basevelocity="63" outputchannel="1" writable="0" fixedoutputvelocity="-1" outputcontroller="0" fixedinputvelocity="-1"/>
          <fxchain numofeffects="0" enabled="0"/>
        </instrumenttrack>
        <pattern type="1" name="hit01.ogg" steps="16" pos="5952" muted="0">
          <note key="57" pan="0" vol="19" len="48" pos="0"/>
          <note key="57" pan="0" vol="65" len="48" pos="48"/>
          <note key="57" pan="0" vol="97" len="48" pos="96"/>
          <note key="57" pan="0" vol="134" len="96" pos="144"/>
        </pattern>
        <pattern type="1" name="" steps="16" pos="15168" muted="0">
          <note key="57" pan="0" vol="19" len="48" pos="0"/>
          <note key="57" pan="0" vol="65" len="48" pos="48"/>
          <note key="57" pan="0" vol="97" len="48" pos="96"/>
          <note key="57" pan="0" vol="134" len="96" pos="144"/>
        </pattern>
      </track>
      <track type="0" name="bassslap02.ogg" solo="0" muted="0">
        <instrumenttrack usemasterpitch="1" pitchrange="1" fxch="0" pan="0" basenote="57" vol="100" pitch="0">
          <instrument name="audiofileprocessor">
            <audiofileprocessor interp="1" lframe="0" stutter="0" amp="100" src="instruments/bassslap02.ogg" sframe="0" eframe="1" looped="0" reversed="0"/>
          </instrument>
          <eldata fcut="14000" fwet="0" ftype="0" fres="0.5">
            <elvol rel="0.31600001" amt="1" lspd="0.1" lamt="0" sustain="0.5" userwavefile="" x100="0" ctlenvamt="0" lpdel="0" att="0" dec="0.74000001" pdel="0" lspd_numerator="4" lshp="0" latt="0" lspd_denominator="4" hold="0" lspd_syncmode="0"/>
            <elcut rel="0.1" amt="0" lspd="0.1" lamt="0" sustain="0.5" userwavefile="" x100="0" ctlenvamt="0" lpdel="0" att="0" dec="0.5" pdel="0" lspd_numerator="4" lshp="0" latt="0" lspd_denominator="4" hold="0.5" lspd_syncmode="0"/>
            <elres rel="0.1" amt="0" lspd="0.1" lamt="0" sustain="0.5" userwavefile="" x100="0" ctlenvamt="0" lpdel="0" att="0" dec="0.5" pdel="0" lspd_numerator="4" lshp="0" latt="0" lspd_denominator="4" hold="0.5" lspd_syncmode="0"/>
          </eldata>
          <chordcreator chordrange="1" chord="0" chord-enabled="0"/>
          <arpeggiator arpskip="0" arptime_syncmode="0" arpcycle="0" arp="0" arpmiss="0" arptime_denominator="4" arp-enabled="0" arptime_numerator="4" arpdir="0" arprange="1" arptime="200" arpgate="100" arpmode="0"/>
          <midiport outputprogram="1" readable="0" fixedoutputnote="-1" inputchannel="0" inputcontroller="0" basevelocity="63" outputchannel="1" writable="0" fixedoutputvelocity="-1" outputcontroller="0" fixedinputvelocity="-1"/>
          <fxchain numofeffects="0" enabled="0"/>
        </instrumenttrack>
        <pattern type="1" name="bassslap02.ogg" steps="16" pos="6144" muted="0">
          <note key="69" pan="0" vol="100" len="24" pos="0"/>
          <note key="69" pan="0" vol="100" len="24" pos="36"/>
          <note key="67" pan="0" vol="100" len="24" pos="72"/>
          <note key="67" pan="0" vol="100" len="24" pos="108"/>
          <note key="64" pan="0" vol="100" len="24" pos="132"/>
          <note key="67" pan="0" vol="100" len="24" pos="144"/>
          <note key="70" pan="0" vol="100" len="24" pos="168"/>
          <note key="69" pan="0" vol="100" len="24" pos="192"/>
          <note key="69" pan="0" vol="100" len="24" pos="228"/>
          <note key="67" pan="0" vol="100" len="24" pos="264"/>
          <note key="67" pan="0" vol="100" len="24" pos="300"/>
          <note key="64" pan="0" vol="100" len="24" pos="324"/>
          <note key="67" pan="0" vol="100" len="24" pos="336"/>
          <note key="64" pan="0" vol="100" len="24" pos="360"/>
          <note key="69" pan="0" vol="100" len="24" pos="384"/>
          <note key="69" pan="0" vol="100" len="24" pos="420"/>
          <note key="67" pan="0" vol="100" len="24" pos="456"/>
          <note key="67" pan="0" vol="100" len="24" pos="492"/>
          <note key="67" pan="0" vol="100" len="12" pos="516"/>
          <note key="67" pan="0" vol="100" len="24" pos="528"/>
          <note key="70" pan="0" vol="100" len="24" pos="552"/>
          <note key="69" pan="0" vol="100" len="24" pos="576"/>
          <note key="69" pan="0" vol="100" len="24" pos="612"/>
          <note key="67" pan="0" vol="100" len="24" pos="648"/>
          <note key="67" pan="0" vol="100" len="24" pos="684"/>
          <note key="67" pan="0" vol="100" len="24" pos="720"/>
          <note key="64" pan="0" vol="100" len="24" pos="744"/>
          <note key="68" pan="0" vol="100" len="24" pos="768"/>
          <note key="68" pan="0" vol="100" len="24" pos="804"/>
          <note key="66" pan="0" vol="100" len="24" pos="840"/>
          <note key="66" pan="0" vol="100" len="24" pos="876"/>
          <note key="66" pan="0" vol="100" len="24" pos="912"/>
          <note key="69" pan="0" vol="100" len="24" pos="936"/>
          <note key="68" pan="0" vol="100" len="24" pos="960"/>
          <note key="68" pan="0" vol="100" len="24" pos="996"/>
          <note key="66" pan="0" vol="100" len="24" pos="1032"/>
          <note key="66" pan="0" vol="100" len="24" pos="1068"/>
          <note key="66" pan="0" vol="100" len="24" pos="1104"/>
          <note key="63" pan="0" vol="100" len="24" pos="1128"/>
          <note key="68" pan="0" vol="100" len="24" pos="1152"/>
          <note key="68" pan="0" vol="100" len="24" pos="1188"/>
          <note key="66" pan="0" vol="100" len="24" pos="1224"/>
          <note key="66" pan="0" vol="100" len="24" pos="1260"/>
          <note key="66" pan="0" vol="100" len="24" pos="1296"/>
          <note key="69" pan="0" vol="100" len="24" pos="1320"/>
          <note key="68" pan="0" vol="100" len="24" pos="1344"/>
          <note key="68" pan="0" vol="100" len="24" pos="1380"/>
          <note key="66" pan="0" vol="100" len="24" pos="1416"/>
          <note key="66" pan="0" vol="100" len="24" pos="1452"/>
          <note key="66" pan="0" vol="100" len="24" pos="1488"/>
          <note key="64" pan="0" vol="100" len="24" pos="1512"/>
        </pattern>
        <pattern type="1" name="" steps="16" pos="7680" muted="0">
          <note key="69" pan="0" vol="100" len="24" pos="0"/>
          <note key="69" pan="0" vol="100" len="24" pos="36"/>
          <note key="67" pan="0" vol="100" len="24" pos="72"/>
          <note key="67" pan="0" vol="100" len="24" pos="108"/>
          <note key="64" pan="0" vol="100" len="24" pos="132"/>
          <note key="67" pan="0" vol="100" len="24" pos="144"/>
          <note key="70" pan="0" vol="100" len="24" pos="168"/>
          <note key="69" pan="0" vol="100" len="24" pos="192"/>
          <note key="69" pan="0" vol="100" len="24" pos="228"/>
          <note key="67" pan="0" vol="100" len="24" pos="264"/>
          <note key="67" pan="0" vol="100" len="24" pos="300"/>
          <note key="64" pan="0" vol="100" len="24" pos="324"/>
          <note key="67" pan="0" vol="100" len="24" pos="336"/>
          <note key="64" pan="0" vol="100" len="24" pos="360"/>
          <note key="69" pan="0" vol="100" len="24" pos="384"/>
          <note key="69" pan="0" vol="100" len="24" pos="420"/>
          <note key="67" pan="0" vol="100" len="24" pos="456"/>
          <note key="67" pan="0" vol="100" len="24" pos="492"/>
          <note key="67" pan="0" vol="100" len="12" pos="516"/>
          <note key="67" pan="0" vol="100" len="24" pos="528"/>
          <note key="70" pan="0" vol="100" len="24" pos="552"/>
          <note key="69" pan="0" vol="100" len="24" pos="576"/>
          <note key="69" pan="0" vol="100" len="24" pos="612"/>
          <note key="67" pan="0" vol="100" len="24" pos="648"/>
          <note key="67" pan="0" vol="100" len="24" pos="684"/>
          <note key="67" pan="0" vol="100" len="24" pos="720"/>
          <note key="64" pan="0" vol="100" len="24" pos="744"/>
          <note key="68" pan="0" vol="100" len="24" pos="768"/>
          <note key="68" pan="0" vol="100" len="24" pos="804"/>
          <note key="66" pan="0" vol="100" len="24" pos="840"/>
          <note key="66" pan="0" vol="100" len="24" pos="876"/>
          <note key="66" pan="0" vol="100" len="24" pos="912"/>
          <note key="69" pan="0" vol="100" len="24" pos="936"/>
          <note key="68" pan="0" vol="100" len="24" pos="960"/>
          <note key="68" pan="0" vol="100" len="24" pos="996"/>
          <note key="66" pan="0" vol="100" len="24" pos="1032"/>
          <note key="66" pan="0" vol="100" len="24" pos="1068"/>
          <note key="66" pan="0" vol="100" len="24" pos="1104"/>
          <note key="63" pan="0" vol="100" len="24" pos="1128"/>
          <note key="68" pan="0" vol="100" len="24" pos="1152"/>
          <note key="68" pan="0" vol="100" len="24" pos="1188"/>
          <note key="66" pan="0" vol="100" len="24" pos="1224"/>
          <note key="66" pan="0" vol="100" len="24" pos="1260"/>
          <note key="66" pan="0" vol="100" len="24" pos="1296"/>
          <note key="69" pan="0" vol="100" len="24" pos="1320"/>
          <note key="68" pan="0" vol="100" len="24" pos="1344"/>
          <note key="68" pan="0" vol="100" len="24" pos="1380"/>
          <note key="66" pan="0" vol="100" len="24" pos="1416"/>
          <note key="66" pan="0" vol="100" len="24" pos="1452"/>
          <note key="66" pan="0" vol="100" len="24" pos="1488"/>
          <note key="64" pan="0" vol="100" len="24" pos="1512"/>
        </pattern>
        <pattern type="1" name="" steps="16" pos="10752" muted="0">
          <note key="69" pan="0" vol="100" len="24" pos="0"/>
          <note key="69" pan="0" vol="100" len="24" pos="36"/>
          <note key="67" pan="0" vol="100" len="24" pos="72"/>
          <note key="67" pan="0" vol="100" len="24" pos="108"/>
          <note key="64" pan="0" vol="100" len="24" pos="132"/>
          <note key="67" pan="0" vol="100" len="24" pos="144"/>
          <note key="70" pan="0" vol="100" len="24" pos="168"/>
          <note key="69" pan="0" vol="100" len="24" pos="192"/>
          <note key="69" pan="0" vol="100" len="24" pos="228"/>
          <note key="67" pan="0" vol="100" len="24" pos="264"/>
          <note key="67" pan="0" vol="100" len="24" pos="300"/>
          <note key="64" pan="0" vol="100" len="24" pos="324"/>
          <note key="67" pan="0" vol="100" len="24" pos="336"/>
          <note key="64" pan="0" vol="100" len="24" pos="360"/>
          <note key="69" pan="0" vol="100" len="24" pos="384"/>
          <note key="69" pan="0" vol="100" len="24" pos="420"/>
          <note key="67" pan="0" vol="100" len="24" pos="456"/>
          <note key="67" pan="0" vol="100" len="24" pos="492"/>
          <note key="67" pan="0" vol="100" len="12" pos="516"/>
          <note key="67" pan="0" vol="100" len="24" pos="528"/>
          <note key="70" pan="0" vol="100" len="24" pos="552"/>
          <note key="69" pan="0" vol="100" len="24" pos="576"/>
          <note key="69" pan="0" vol="100" len="24" pos="612"/>
          <note key="67" pan="0" vol="100" len="24" pos="648"/>
          <note key="67" pan="0" vol="100" len="24" pos="684"/>
          <note key="67" pan="0" vol="100" len="24" pos="720"/>
          <note key="64" pan="0" vol="100" len="24" pos="744"/>
          <note key="68" pan="0" vol="100" len="24" pos="768"/>
          <note key="68" pan="0" vol="100" len="24" pos="804"/>
          <note key="66" pan="0" vol="100" len="24" pos="840"/>
          <note key="66" pan="0" vol="100" len="24" pos="876"/>
          <note key="66" pan="0" vol="100" len="24" pos="912"/>
          <note key="69" pan="0" vol="100" len="24" pos="936"/>
          <note key="68" pan="0" vol="100" len="24" pos="960"/>
          <note key="68" pan="0" vol="100" len="24" pos="996"/>
          <note key="66" pan="0" vol="100" len="24" pos="1032"/>
          <note key="66" pan="0" vol="100" len="24" pos="1068"/>
          <note key="66" pan="0" vol="100" len="24" pos="1104"/>
          <note key="63" pan="0" vol="100" len="24" pos="1128"/>
          <note key="68" pan="0" vol="100" len="24" pos="1152"/>
          <note key="68" pan="0" vol="100" len="24" pos="1188"/>
          <note key="66" pan="0" vol="100" len="24" pos="1224"/>
          <note key="66" pan="0" vol="100" len="24" pos="1260"/>
          <note key="66" pan="0" vol="100" len="24" pos="1296"/>
          <note key="69" pan="0" vol="100" len="24" pos="1320"/>
          <note key="68" pan="0" vol="100" len="24" pos="1344"/>
          <note key="68" pan="0" vol="100" len="24" pos="1380"/>
          <note key="66" pan="0" vol="100" len="24" pos="1416"/>
          <note key="66" pan="0" vol="100" len="24" pos="1452"/>
          <note key="66" pan="0" vol="100" len="24" pos="1488"/>
          <note key="64" pan="0" vol="100" len="24" pos="1512"/>
        </pattern>
        <pattern type="1" name="hit02.ogg" steps="16" pos="9216" muted="0">
          <note key="69" pan="0" vol="100" len="24" pos="0"/>
          <note key="69" pan="0" vol="100" len="24" pos="36"/>
          <note key="67" pan="0" vol="100" len="24" pos="72"/>
          <note key="67" pan="0" vol="100" len="24" pos="108"/>
          <note key="67" pan="0" vol="100" len="24" pos="144"/>
          <note key="70" pan="0" vol="100" len="24" pos="168"/>
          <note key="69" pan="0" vol="100" len="24" pos="192"/>
          <note key="69" pan="0" vol="100" len="24" pos="228"/>
          <note key="67" pan="0" vol="100" len="24" pos="264"/>
          <note key="67" pan="0" vol="100" len="24" pos="300"/>
          <note key="67" pan="0" vol="100" len="24" pos="336"/>
          <note key="64" pan="0" vol="100" len="24" pos="360"/>
          <note key="69" pan="0" vol="100" len="24" pos="384"/>
          <note key="69" pan="0" vol="100" len="24" pos="420"/>
          <note key="67" pan="0" vol="100" len="24" pos="456"/>
          <note key="67" pan="0" vol="100" len="24" pos="492"/>
          <note key="67" pan="0" vol="100" len="24" pos="528"/>
          <note key="70" pan="0" vol="100" len="24" pos="552"/>
          <note key="69" pan="0" vol="100" len="24" pos="576"/>
          <note key="69" pan="0" vol="100" len="24" pos="612"/>
          <note key="67" pan="0" vol="100" len="12" pos="648"/>
          <note key="67" pan="0" vol="100" len="12" pos="660"/>
          <note key="67" pan="0" vol="100" len="12" pos="684"/>
          <note key="67" pan="0" vol="100" len="12" pos="696"/>
          <note key="67" pan="0" vol="100" len="24" pos="720"/>
          <note key="64" pan="0" vol="100" len="24" pos="744"/>
          <note key="68" pan="0" vol="100" len="24" pos="768"/>
          <note key="68" pan="0" vol="100" len="24" pos="804"/>
          <note key="66" pan="0" vol="100" len="24" pos="840"/>
          <note key="66" pan="0" vol="100" len="24" pos="876"/>
          <note key="66" pan="0" vol="100" len="24" pos="912"/>
          <note key="69" pan="0" vol="100" len="24" pos="936"/>
          <note key="68" pan="0" vol="100" len="24" pos="960"/>
          <note key="68" pan="0" vol="100" len="24" pos="996"/>
          <note key="66" pan="0" vol="100" len="24" pos="1032"/>
          <note key="66" pan="0" vol="100" len="24" pos="1068"/>
          <note key="66" pan="0" vol="100" len="24" pos="1104"/>
          <note key="63" pan="0" vol="100" len="24" pos="1128"/>
          <note key="68" pan="0" vol="100" len="24" pos="1152"/>
          <note key="68" pan="0" vol="100" len="24" pos="1188"/>
          <note key="66" pan="0" vol="100" len="24" pos="1224"/>
          <note key="66" pan="0" vol="100" len="24" pos="1260"/>
          <note key="66" pan="0" vol="100" len="24" pos="1296"/>
          <note key="69" pan="0" vol="100" len="24" pos="1320"/>
          <note key="68" pan="0" vol="100" len="24" pos="1344"/>
          <note key="68" pan="0" vol="100" len="24" pos="1380"/>
          <note key="66" pan="0" vol="100" len="24" pos="1416"/>
          <note key="66" pan="0" vol="100" len="24" pos="1452"/>
          <note key="66" pan="0" vol="100" len="24" pos="1488"/>
          <note key="64" pan="0" vol="100" len="24" pos="1512"/>
        </pattern>
        <pattern type="1" name="hit02.ogg" steps="16" pos="12288" muted="0">
          <note key="57" pan="0" vol="100" len="24" pos="0"/>
          <note key="57" pan="0" vol="100" len="24" pos="36"/>
          <note key="55" pan="0" vol="100" len="24" pos="72"/>
          <note key="55" pan="0" vol="100" len="24" pos="108"/>
          <note key="55" pan="0" vol="100" len="24" pos="144"/>
          <note key="58" pan="0" vol="100" len="24" pos="168"/>
          <note key="57" pan="0" vol="100" len="24" pos="192"/>
          <note key="57" pan="0" vol="100" len="24" pos="228"/>
          <note key="55" pan="0" vol="100" len="24" pos="264"/>
          <note key="55" pan="0" vol="100" len="24" pos="300"/>
          <note key="55" pan="0" vol="100" len="24" pos="336"/>
          <note key="52" pan="0" vol="100" len="24" pos="360"/>
          <note key="57" pan="0" vol="100" len="24" pos="384"/>
          <note key="57" pan="0" vol="100" len="24" pos="420"/>
          <note key="55" pan="0" vol="100" len="24" pos="456"/>
          <note key="55" pan="0" vol="100" len="24" pos="492"/>
          <note key="55" pan="0" vol="100" len="24" pos="528"/>
          <note key="58" pan="0" vol="100" len="24" pos="552"/>
          <note key="57" pan="0" vol="100" len="24" pos="576"/>
          <note key="57" pan="0" vol="100" len="24" pos="612"/>
          <note key="55" pan="0" vol="100" len="12" pos="648"/>
          <note key="55" pan="0" vol="100" len="12" pos="660"/>
          <note key="55" pan="0" vol="100" len="12" pos="684"/>
          <note key="55" pan="0" vol="100" len="12" pos="696"/>
          <note key="55" pan="0" vol="100" len="24" pos="720"/>
          <note key="52" pan="0" vol="100" len="24" pos="744"/>
          <note key="56" pan="0" vol="100" len="24" pos="768"/>
          <note key="56" pan="0" vol="100" len="24" pos="804"/>
          <note key="54" pan="0" vol="100" len="24" pos="840"/>
          <note key="54" pan="0" vol="100" len="24" pos="876"/>
          <note key="54" pan="0" vol="100" len="24" pos="912"/>
          <note key="57" pan="0" vol="100" len="24" pos="936"/>
          <note key="56" pan="0" vol="100" len="24" pos="960"/>
          <note key="56" pan="0" vol="100" len="24" pos="996"/>
          <note key="54" pan="0" vol="100" len="24" pos="1032"/>
          <note key="54" pan="0" vol="100" len="24" pos="1068"/>
          <note key="54" pan="0" vol="100" len="24" pos="1104"/>
          <note key="51" pan="0" vol="100" len="24" pos="1128"/>
          <note key="56" pan="0" vol="100" len="24" pos="1152"/>
          <note key="56" pan="0" vol="100" len="24" pos="1188"/>
          <note key="54" pan="0" vol="100" len="24" pos="1224"/>
          <note key="54" pan="0" vol="100" len="24" pos="1260"/>
          <note key="54" pan="0" vol="100" len="24" pos="1296"/>
          <note key="57" pan="0" vol="100" len="24" pos="1320"/>
          <note key="56" pan="0" vol="100" len="24" pos="1344"/>
          <note key="56" pan="0" vol="100" len="24" pos="1380"/>
          <note key="54" pan="0" vol="100" len="24" pos="1416"/>
          <note key="54" pan="0" vol="100" len="24" pos="1452"/>
          <note key="54" pan="0" vol="100" len="24" pos="1488"/>
          <note key="52" pan="0" vol="100" len="24" pos="1512"/>
        </pattern>
        <pattern type="1" name="hit02.ogg" steps="16" pos="13824" muted="0">
          <note key="57" pan="0" vol="100" len="24" pos="0"/>
          <note key="57" pan="0" vol="100" len="24" pos="36"/>
          <note key="55" pan="0" vol="100" len="24" pos="72"/>
          <note key="55" pan="0" vol="100" len="24" pos="108"/>
          <note key="55" pan="0" vol="100" len="24" pos="144"/>
          <note key="58" pan="0" vol="100" len="24" pos="168"/>
          <note key="57" pan="0" vol="100" len="24" pos="192"/>
          <note key="57" pan="0" vol="100" len="24" pos="228"/>
          <note key="55" pan="0" vol="100" len="24" pos="264"/>
          <note key="55" pan="0" vol="100" len="24" pos="300"/>
          <note key="55" pan="0" vol="100" len="24" pos="336"/>
          <note key="52" pan="0" vol="100" len="24" pos="360"/>
          <note key="57" pan="0" vol="100" len="24" pos="384"/>
          <note key="57" pan="0" vol="100" len="24" pos="420"/>
          <note key="55" pan="0" vol="100" len="24" pos="456"/>
          <note key="55" pan="0" vol="100" len="24" pos="492"/>
          <note key="55" pan="0" vol="100" len="24" pos="528"/>
          <note key="58" pan="0" vol="100" len="24" pos="552"/>
          <note key="57" pan="0" vol="100" len="24" pos="576"/>
          <note key="57" pan="0" vol="100" len="24" pos="612"/>
          <note key="55" pan="0" vol="100" len="12" pos="648"/>
          <note key="55" pan="0" vol="100" len="12" pos="660"/>
          <note key="55" pan="0" vol="100" len="12" pos="684"/>
          <note key="55" pan="0" vol="100" len="12" pos="696"/>
          <note key="55" pan="0" vol="100" len="24" pos="720"/>
          <note key="52" pan="0" vol="100" len="24" pos="744"/>
          <note key="56" pan="0" vol="100" len="24" pos="768"/>
          <note key="56" pan="0" vol="100" len="24" pos="804"/>
          <note key="54" pan="0" vol="100" len="24" pos="840"/>
          <note key="54" pan="0" vol="100" len="24" pos="876"/>
          <note key="54" pan="0" vol="100" len="24" pos="912"/>
          <note key="57" pan="0" vol="100" len="24" pos="936"/>
          <note key="56" pan="0" vol="100" len="24" pos="960"/>
          <note key="56" pan="0" vol="100" len="24" pos="996"/>
          <note key="54" pan="0" vol="100" len="24" pos="1032"/>
          <note key="54" pan="0" vol="100" len="24" pos="1068"/>
          <note key="54" pan="0" vol="100" len="24" pos="1104"/>
          <note key="51" pan="0" vol="100" len="24" pos="1128"/>
          <note key="56" pan="0" vol="100" len="24" pos="1152"/>
          <note key="56" pan="0" vol="100" len="24" pos="1188"/>
          <note key="54" pan="0" vol="100" len="24" pos="1224"/>
          <note key="54" pan="0" vol="100" len="24" pos="1260"/>
          <note key="54" pan="0" vol="100" len="24" pos="1296"/>
          <note key="57" pan="0" vol="100" len="24" pos="1320"/>
          <note key="56" pan="0" vol="100" len="24" pos="1344"/>
          <note key="56" pan="0" vol="100" len="24" pos="1380"/>
          <note key="54" pan="0" vol="100" len="24" pos="1416"/>
          <note key="54" pan="0" vol="100" len="24" pos="1452"/>
          <note key="54" pan="0" vol="100" len="24" pos="1488"/>
          <note key="52" pan="0" vol="100" len="24" pos="1512"/>
        </pattern>
      </track>
      <track type="0" name="crash02.ogg" solo="0" muted="0">
        <instrumenttrack usemasterpitch="1" pitchrange="1" fxch="0" pan="0" basenote="57" vol="100" pitch="0">
          <instrument name="audiofileprocessor">
            <audiofileprocessor interp="1" lframe="0" stutter="0" amp="100" src="drums/crash02.ogg" sframe="0" eframe="1" looped="0" reversed="0"/>
          </instrument>
          <eldata fcut="14000" fwet="0" ftype="0" fres="0.5">
            <elvol rel="0.1" amt="1" lspd="0.1" lamt="0" sustain="0.5" userwavefile="" x100="0" ctlenvamt="0" lpdel="0" att="0" dec="0.5" pdel="0" lspd_numerator="4" lshp="0" latt="0" lspd_denominator="4" hold="0" lspd_syncmode="0"/>
            <elcut rel="0.1" amt="0" lspd="0.1" lamt="0" sustain="0.5" userwavefile="" x100="0" ctlenvamt="0" lpdel="0" att="0" dec="0.5" pdel="0" lspd_numerator="4" lshp="0" latt="0" lspd_denominator="4" hold="0.5" lspd_syncmode="0"/>
            <elres rel="0.1" amt="0" lspd="0.1" lamt="0" sustain="0.5" userwavefile="" x100="0" ctlenvamt="0" lpdel="0" att="0" dec="0.5" pdel="0" lspd_numerator="4" lshp="0" latt="0" lspd_denominator="4" hold="0.5" lspd_syncmode="0"/>
          </eldata>
          <chordcreator chordrange="1" chord="0" chord-enabled="0"/>
          <arpeggiator arpskip="0" arptime_syncmode="0" arpcycle="0" arp="0" arpmiss="0" arptime_denominator="4" arp-enabled="0" arptime_numerator="4" arpdir="0" arprange="1" arptime="200" arpgate="100" arpmode="0"/>
          <midiport outputprogram="1" readable="0" fixedoutputnote="-1" inputchannel="0" inputcontroller="0" basevelocity="63" outputchannel="1" writable="0" fixedoutputvelocity="-1" outputcontroller="0" fixedinputvelocity="-1"/>
          <fxchain numofeffects="0" enabled="0"/>
        </instrumenttrack>
        <pattern type="1" name="crash02.ogg" steps="16" pos="6144" muted="0">
          <note key="57" pan="0" vol="100" len="384" pos="0"/>
        </pattern>
      </track>
      <track type="1" name="Beat/Bassline 2" solo="0" muted="0">
        <bbtrack/>
        <bbtco name="" len="6144" color="4286611584" pos="9216" usestyle="1" muted="0"/>
        <bbtco name="" len="768" color="4286611584" pos="18816" usestyle="1" muted="0"/>
        <bbtco name="" len="4608" color="4286611584" pos="1536" usestyle="1" muted="1"/>
      </track>
      <track type="5" name="Automation track" solo="0" muted="0">
        <automationtrack/>
        <automationpattern name="ride01.ogg>Panning" mute="0" prog="1" tens="1" len="3072" pos="9216">
          <time value="-100" pos="0"/>
          <time value="0.69999999" pos="768"/>
          <time value="100" pos="1536"/>
          <time value="0" pos="2112"/>
          <time value="-100" pos="2880"/>
          <object id="3444656"/>
        </automationpattern>
        <automationpattern name="ride01.ogg>Panning" mute="0" prog="1" tens="1" len="3072" pos="12288">
          <time value="-100" pos="0"/>
          <time value="0.69999999" pos="768"/>
          <time value="100" pos="1536"/>
          <time value="0" pos="2112"/>
          <time value="-100" pos="2880"/>
          <object id="3444656"/>
        </automationpattern>
        <automationpattern name="Tempo" mute="0" prog="0" tens="1" len="192" pos="0">
          <time value="140" pos="0"/>
          <object id="4555788"/>
        </automationpattern>
        <automationpattern name="Tempo" mute="0" prog="0" tens="1" len="192" pos="18816">
          <time value="124" pos="0"/>
          <object id="4555788"/>
        </automationpattern>
        <automationpattern name="ride01.ogg>Panning" mute="0" prog="1" tens="1" len="3072" pos="1536">
          <time value="-100" pos="0"/>
          <time value="0.69999999" pos="768"/>
          <time value="100" pos="1536"/>
          <time value="0" pos="2112"/>
          <time value="-100" pos="2880"/>
          <object id="3444656"/>
        </automationpattern>
        <automationpattern name="ride01.ogg>Panning" mute="0" prog="1" tens="1" len="1536" pos="4608">
          <time value="-100" pos="0"/>
          <time value="0.69999999" pos="768"/>
          <time value="100" pos="1536"/>
          <time value="-100" pos="2880"/>
          <object id="3444656"/>
        </automationpattern>
      </track>
    </trackcontainer>
    <track type="6" name="Automation track" solo="0" muted="0">
      <automationtrack/>
      <automationpattern name="Numerator" mute="0" prog="0" tens="1" len="192" pos="0"/>
      <automationpattern name="Denominator" mute="0" prog="0" tens="1" len="192" pos="0"/>
      <automationpattern name="Tempo" mute="0" prog="0" tens="1" len="192" pos="0"/>
      <automationpattern name="Master volume" mute="0" prog="0" tens="1" len="192" pos="0"/>
      <automationpattern name="Master pitch" mute="0" prog="0" tens="1" len="192" pos="0"/>
      <automationpattern name="Numerator" mute="0" prog="0" tens="1" len="192" pos="0"/>
      <automationpattern name="Denominator" mute="0" prog="0" tens="1" len="192" pos="0"/>
      <automationpattern name="Tempo" mute="0" prog="0" tens="1" len="192" pos="0"/>
      <automationpattern name="Master volume" mute="0" prog="0" tens="1" len="192" pos="0"/>
      <automationpattern name="Master pitch" mute="0" prog="0" tens="1" len="192" pos="0"/>
    </track>
    <fxmixer minimized="0" width="561" height="333" maximized="0" visible="0" x="61" y="477">
      <fxchannel name="Master" soloed="0" num="0" volume="0.85300004" muted="0">
        <fxchain numofeffects="1" enabled="1">
          <effect autoquit="1" name="bitcrush" on="0" autoquit_syncmode="0" autoquit_denominator="4" gate="0" wet="1" autoquit_numerator="4">
            <bitcrushcontrols outclip="7.3000002" rateon="1" rate="44100" depthon="1" innoise="0" levels="256" ingain="1.4" outgain="0" stereodiff="0"/>
            <key/>
          </effect>
        </fxchain>
      </fxchannel>
      <fxchannel name="Leads" soloed="0" num="1" volume="0.39999998" muted="0">
        <fxchain numofeffects="0" enabled="0"/>
        <send channel="0" amount="1"/>
      </fxchannel>
      <fxchannel name="DoublePadBass" soloed="0" num="2" volume="0.5" muted="0">
        <fxchain numofeffects="1" enabled="1">
          <effect autoquit="1" name="ladspaeffect" on="1" autoquit_syncmode="0" autoquit_denominator="4" gate="0" wet="1" autoquit_numerator="4">
            <ladspacontrols link="1" ports="20">
              <port01 link="1" data="0"/>
              <port02 link="1" data="-13.05"/>
              <port03 link="1" data="-6.0300002"/>
              <port04 link="1" data="0"/>
              <port05 link="1" data="6.4800005"/>
              <port06 link="1" data="0"/>
              <port07 link="1" data="0"/>
              <port08 link="1" data="0"/>
              <port09 link="1" data="0"/>
              <port010 link="1" data="0"/>
              <port11 data="0"/>
              <port12 data="-13.05"/>
              <port13 data="-6.0300002"/>
              <port14 data="0"/>
              <port15 data="6.4800005"/>
              <port16 data="0"/>
              <port17 data="0"/>
              <port18 data="0"/>
              <port19 data="0"/>
              <port110 data="0"/>
            </ladspacontrols>
            <key>
              <attribute value="caps" name="file"/>
              <attribute value="Eq" name="plugin"/>
            </key>
          </effect>
        </fxchain>
        <send channel="0" amount="1"/>
      </fxchannel>
      <fxchannel name="Percussion" soloed="0" num="3" volume="0.39999998" muted="0">
        <fxchain numofeffects="1" enabled="1">
          <effect autoquit="1" name="ladspaeffect" on="1" autoquit_syncmode="0" autoquit_denominator="4" gate="0" wet="1" autoquit_numerator="4">
            <ladspacontrols link="1" ports="20">
              <port01 link="1" data="-15.93"/>
              <port02 link="1" data="-10.440001"/>
              <port03 link="1" data="-3.7800002"/>
              <port04 link="1" data="4"/>
              <port05 link="1" data="4.9500003"/>
              <port06 link="1" data="0"/>
              <port07 link="1" data="0"/>
              <port08 link="1" data="0"/>
              <port09 link="1" data="0"/>
              <port010 link="1" data="0"/>
              <port11 data="-15.93"/>
              <port12 data="-10.440001"/>
              <port13 data="-3.7800002"/>
              <port14 data="4"/>
              <port15 data="4.9500003"/>
              <port16 data="0"/>
              <port17 data="0"/>
              <port18 data="0"/>
              <port19 data="0"/>
              <port110 data="0"/>
            </ladspacontrols>
            <key>
              <attribute value="caps" name="file"/>
              <attribute value="Eq" name="plugin"/>
            </key>
          </effect>
        </fxchain>
        <send channel="0" amount="1"/>
      </fxchannel>
      <fxchannel name="Choir" soloed="0" num="4" volume="0.76800001" muted="0">
        <fxchain numofeffects="0" enabled="0"/>
        <send channel="0" amount="1"/>
      </fxchannel>
    </fxmixer>
    <ControllerRackView minimized="0" width="350" height="200" maximized="0" visible="0" x="836" y="407"/>
    <pianoroll minimized="0" width="860" height="476" maximized="0" visible="1" x="609" y="387"/>
    <automationeditor minimized="0" width="860" height="400" maximized="0" visible="0" x="56" y="255"/>
    <projectnotes minimized="0" width="860" height="400" maximized="0" visible="0" x="1" y="1"><![CDATA[<!DOCTYPE HTML PUBLIC "-//W3C//DTD HTML 4.0//EN" "http://www.w3.org/TR/REC-html40/strict.dtd">
<html><head><meta name="qrichtext" content="1" /><style type="text/css">
p, li { white-space: pre-wrap; }
</style></head><body style=" font-family:'Cantarell'; font-size:11pt; font-weight:400; font-style:normal;">
<p style="-qt-paragraph-type:empty; margin-top:0px; margin-bottom:0px; margin-left:0px; margin-right:0px; -qt-block-indent:0; text-indent:0px;"><br /></p></body></html>]]></projectnotes>
    <timeline lpstate="0" lp0pos="0" lp1pos="18432"/>
    <controllers/>
  </song>
</lmms-project>
