<?xml version="1.0"?>
<!DOCTYPE lmms-project>
<lmms-project type="song" version="1.0" creatorversion="1.2.2" creator="LMMS">
  <head mastervol="100" bpm="140" timesig_denominator="4" timesig_numerator="4" masterpitch="0"/>
  <song>
    <trackcontainer type="song" width="1771" minimized="0" height="533" visible="1" maximized="0" x="22" y="27">
      <track type="0" solo="0" name="Organic" muted="0">
        <instrumenttrack fxch="0" vol="65" pitchrange="1" usemasterpitch="1" basenote="57" pan="-66" pitch="0">
          <instrument name="organic">
            <organic newdetune0="3" pan0="0" pan1="0" newharmonic7="7" newharmonic4="4" vol4="13" newdetune1="1" wavetype0="4" wavetype6="4" vol1="47" newharmonic0="0" pan4="0" newdetune2="1" pan6="0" vol2="4" vol3="29" wavetype1="4" wavetype5="0" pan5="0" vol6="62" vol5="27" newharmonic1="1" wavetype3="2" newharmonic2="2" foldback="0" wavetype2="4" wavetype7="1" newdetune6="2" vol="100" num_osc="8" newdetune4="3" pan7="0" newharmonic5="5" vol7="16" pan2="0" newharmonic6="6" newdetune3="0" newdetune5="-1" wavetype4="4" newharmonic3="3" pan3="0" vol0="91" newdetune7="-3"/>
          </instrument>
          <eldata fres="0.5" fcut="14000" ftype="0" fwet="0">
            <elvol lspd_denominator="4" lamt="0" lshp="0" x100="0" lspd="0.1" rel="0.1" dec="0.5" sustain="0.5" lspd_numerator="4" att="0.016000001" amt="1" ctlenvamt="0" hold="0.13600001" lspd_syncmode="0" lpdel="0" latt="0" pdel="0" userwavefile=""/>
            <elcut lspd_denominator="4" lamt="0" lshp="0" x100="0" lspd="0.1" rel="0.1" dec="0.5" sustain="0.5" lspd_numerator="4" att="0" amt="0" ctlenvamt="0" hold="0.5" lspd_syncmode="0" lpdel="0" latt="0" pdel="0" userwavefile=""/>
            <elres lspd_denominator="4" lamt="0" lshp="0" x100="0" lspd="0.1" rel="0.1" dec="0.5" sustain="0.5" lspd_numerator="4" att="0" amt="0" ctlenvamt="0" hold="0.5" lspd_syncmode="0" lpdel="0" latt="0" pdel="0" userwavefile=""/>
          </eldata>
          <chordcreator chord="0" chord-enabled="0" chordrange="1"/>
          <arpeggiator arpmode="0" arptime_numerator="4" arptime="200" arpgate="100" arprange="1" arp="0" arpcycle="0" arpskip="0" arp-enabled="0" arptime_denominator="4" arpmiss="0" arpdir="0" arptime_syncmode="0"/>
          <midiport outputcontroller="0" readable="0" outputchannel="1" inputcontroller="0" fixedoutputvelocity="-1" outputprogram="1" writable="0" fixedoutputnote="-1" basevelocity="63" inputchannel="0" fixedinputvelocity="-1"/>
          <fxchain enabled="0" numofeffects="0"/>
        </instrumenttrack>
        <pattern type="1" name="Organic" muted="0" pos="1536" steps="16">
          <note pos="0" vol="100" key="40" len="24" pan="0"/>
          <note pos="36" vol="100" key="40" len="24" pan="0"/>
          <note pos="72" vol="100" key="40" len="24" pan="0"/>
          <note pos="108" vol="100" key="40" len="24" pan="0"/>
          <note pos="144" vol="100" key="40" len="12" pan="0"/>
          <note pos="168" vol="136" key="41" len="24" pan="0"/>
          <note pos="192" vol="100" key="40" len="24" pan="0"/>
          <note pos="228" vol="100" key="40" len="24" pan="0"/>
          <note pos="264" vol="100" key="40" len="24" pan="0"/>
          <note pos="300" vol="100" key="40" len="24" pan="0"/>
          <note pos="336" vol="100" key="40" len="12" pan="0"/>
          <note pos="360" vol="136" key="41" len="24" pan="0"/>
          <note pos="384" vol="100" key="40" len="24" pan="0"/>
          <note pos="420" vol="100" key="40" len="24" pan="0"/>
          <note pos="456" vol="100" key="40" len="24" pan="0"/>
          <note pos="492" vol="100" key="40" len="24" pan="0"/>
          <note pos="528" vol="100" key="40" len="12" pan="0"/>
          <note pos="552" vol="138" key="41" len="24" pan="0"/>
          <note pos="576" vol="100" key="40" len="24" pan="0"/>
          <note pos="612" vol="100" key="40" len="24" pan="0"/>
          <note pos="648" vol="100" key="40" len="24" pan="0"/>
          <note pos="684" vol="100" key="40" len="24" pan="0"/>
          <note pos="720" vol="100" key="40" len="12" pan="0"/>
          <note pos="744" vol="136" key="41" len="24" pan="0"/>
          <note pos="768" vol="100" key="40" len="24" pan="0"/>
          <note pos="804" vol="100" key="40" len="24" pan="0"/>
          <note pos="840" vol="100" key="40" len="24" pan="0"/>
          <note pos="876" vol="100" key="40" len="24" pan="0"/>
          <note pos="912" vol="100" key="40" len="12" pan="0"/>
          <note pos="936" vol="136" key="41" len="24" pan="0"/>
          <note pos="960" vol="100" key="40" len="24" pan="0"/>
          <note pos="996" vol="100" key="40" len="24" pan="0"/>
          <note pos="1032" vol="100" key="40" len="24" pan="0"/>
          <note pos="1068" vol="100" key="40" len="24" pan="0"/>
          <note pos="1104" vol="100" key="40" len="12" pan="0"/>
          <note pos="1128" vol="136" key="41" len="24" pan="0"/>
          <note pos="1152" vol="100" key="40" len="24" pan="0"/>
          <note pos="1188" vol="100" key="40" len="24" pan="0"/>
          <note pos="1224" vol="100" key="40" len="24" pan="0"/>
          <note pos="1260" vol="100" key="40" len="24" pan="0"/>
          <note pos="1296" vol="100" key="40" len="12" pan="0"/>
          <note pos="1320" vol="138" key="41" len="24" pan="0"/>
          <note pos="1344" vol="100" key="40" len="24" pan="0"/>
          <note pos="1380" vol="100" key="40" len="24" pan="0"/>
          <note pos="1416" vol="100" key="40" len="24" pan="0"/>
          <note pos="1452" vol="100" key="40" len="24" pan="0"/>
          <note pos="1488" vol="100" key="40" len="12" pan="0"/>
          <note pos="1512" vol="136" key="41" len="24" pan="0"/>
        </pattern>
        <pattern type="1" name="Organic" muted="0" pos="0" steps="16">
          <note pos="0" vol="100" key="40" len="24" pan="0"/>
          <note pos="36" vol="100" key="40" len="24" pan="0"/>
          <note pos="72" vol="100" key="40" len="24" pan="0"/>
          <note pos="108" vol="100" key="40" len="24" pan="0"/>
          <note pos="144" vol="100" key="40" len="12" pan="0"/>
          <note pos="168" vol="136" key="41" len="24" pan="0"/>
          <note pos="192" vol="100" key="40" len="24" pan="0"/>
          <note pos="228" vol="100" key="40" len="24" pan="0"/>
          <note pos="264" vol="100" key="40" len="24" pan="0"/>
          <note pos="300" vol="100" key="40" len="24" pan="0"/>
          <note pos="336" vol="100" key="40" len="12" pan="0"/>
          <note pos="360" vol="136" key="41" len="24" pan="0"/>
          <note pos="384" vol="100" key="40" len="24" pan="0"/>
          <note pos="420" vol="100" key="40" len="24" pan="0"/>
          <note pos="456" vol="100" key="40" len="24" pan="0"/>
          <note pos="492" vol="100" key="40" len="24" pan="0"/>
          <note pos="528" vol="100" key="40" len="12" pan="0"/>
          <note pos="552" vol="138" key="41" len="24" pan="0"/>
          <note pos="576" vol="100" key="40" len="24" pan="0"/>
          <note pos="612" vol="100" key="40" len="24" pan="0"/>
          <note pos="648" vol="100" key="40" len="24" pan="0"/>
          <note pos="684" vol="100" key="40" len="24" pan="0"/>
          <note pos="720" vol="100" key="40" len="12" pan="0"/>
          <note pos="744" vol="136" key="41" len="24" pan="0"/>
          <note pos="768" vol="100" key="40" len="24" pan="0"/>
          <note pos="804" vol="100" key="40" len="24" pan="0"/>
          <note pos="840" vol="100" key="40" len="24" pan="0"/>
          <note pos="876" vol="100" key="40" len="24" pan="0"/>
          <note pos="912" vol="100" key="40" len="12" pan="0"/>
          <note pos="936" vol="136" key="41" len="24" pan="0"/>
          <note pos="960" vol="100" key="40" len="24" pan="0"/>
          <note pos="996" vol="100" key="40" len="24" pan="0"/>
          <note pos="1032" vol="100" key="40" len="24" pan="0"/>
          <note pos="1068" vol="100" key="40" len="24" pan="0"/>
          <note pos="1104" vol="100" key="40" len="12" pan="0"/>
          <note pos="1128" vol="136" key="41" len="24" pan="0"/>
          <note pos="1152" vol="100" key="40" len="24" pan="0"/>
          <note pos="1188" vol="100" key="40" len="24" pan="0"/>
          <note pos="1224" vol="100" key="40" len="24" pan="0"/>
          <note pos="1260" vol="100" key="40" len="24" pan="0"/>
          <note pos="1296" vol="100" key="40" len="12" pan="0"/>
          <note pos="1320" vol="138" key="41" len="24" pan="0"/>
          <note pos="1344" vol="100" key="40" len="24" pan="0"/>
          <note pos="1380" vol="100" key="40" len="24" pan="0"/>
          <note pos="1416" vol="100" key="40" len="24" pan="0"/>
          <note pos="1452" vol="100" key="40" len="24" pan="0"/>
          <note pos="1488" vol="100" key="40" len="12" pan="0"/>
          <note pos="1512" vol="136" key="41" len="24" pan="0"/>
        </pattern>
        <pattern type="1" name="Organic" muted="0" pos="3072" steps="16">
          <note pos="0" vol="100" key="40" len="24" pan="0"/>
          <note pos="36" vol="100" key="40" len="24" pan="0"/>
          <note pos="72" vol="100" key="40" len="24" pan="0"/>
          <note pos="108" vol="100" key="40" len="24" pan="0"/>
          <note pos="144" vol="100" key="40" len="12" pan="0"/>
          <note pos="168" vol="136" key="41" len="24" pan="0"/>
          <note pos="192" vol="100" key="40" len="24" pan="0"/>
          <note pos="228" vol="100" key="40" len="24" pan="0"/>
          <note pos="264" vol="100" key="40" len="24" pan="0"/>
          <note pos="300" vol="100" key="40" len="24" pan="0"/>
          <note pos="336" vol="100" key="40" len="12" pan="0"/>
          <note pos="360" vol="136" key="41" len="24" pan="0"/>
          <note pos="384" vol="100" key="40" len="24" pan="0"/>
          <note pos="420" vol="100" key="40" len="24" pan="0"/>
          <note pos="456" vol="100" key="40" len="24" pan="0"/>
          <note pos="492" vol="100" key="40" len="24" pan="0"/>
          <note pos="528" vol="100" key="40" len="12" pan="0"/>
          <note pos="552" vol="138" key="41" len="24" pan="0"/>
          <note pos="576" vol="100" key="40" len="24" pan="0"/>
          <note pos="612" vol="100" key="40" len="24" pan="0"/>
          <note pos="648" vol="100" key="40" len="24" pan="0"/>
          <note pos="684" vol="100" key="40" len="24" pan="0"/>
          <note pos="720" vol="100" key="40" len="12" pan="0"/>
          <note pos="744" vol="136" key="41" len="24" pan="0"/>
          <note pos="768" vol="100" key="40" len="24" pan="0"/>
          <note pos="804" vol="100" key="40" len="24" pan="0"/>
          <note pos="840" vol="100" key="40" len="24" pan="0"/>
          <note pos="876" vol="100" key="40" len="24" pan="0"/>
          <note pos="912" vol="100" key="40" len="12" pan="0"/>
          <note pos="936" vol="136" key="41" len="24" pan="0"/>
          <note pos="960" vol="100" key="40" len="24" pan="0"/>
          <note pos="996" vol="100" key="40" len="24" pan="0"/>
          <note pos="1032" vol="100" key="40" len="24" pan="0"/>
          <note pos="1068" vol="100" key="40" len="24" pan="0"/>
          <note pos="1104" vol="100" key="40" len="12" pan="0"/>
          <note pos="1128" vol="136" key="41" len="24" pan="0"/>
          <note pos="1152" vol="100" key="40" len="24" pan="0"/>
          <note pos="1188" vol="100" key="40" len="24" pan="0"/>
          <note pos="1224" vol="100" key="40" len="24" pan="0"/>
          <note pos="1260" vol="100" key="40" len="24" pan="0"/>
          <note pos="1296" vol="100" key="40" len="12" pan="0"/>
          <note pos="1320" vol="138" key="41" len="24" pan="0"/>
          <note pos="1344" vol="100" key="40" len="24" pan="0"/>
          <note pos="1380" vol="100" key="40" len="24" pan="0"/>
          <note pos="1416" vol="100" key="40" len="24" pan="0"/>
          <note pos="1452" vol="100" key="40" len="24" pan="0"/>
          <note pos="1488" vol="100" key="40" len="12" pan="0"/>
          <note pos="1512" vol="136" key="41" len="24" pan="0"/>
        </pattern>
        <pattern type="1" name="Organic" muted="0" pos="6144" steps="16">
          <note pos="0" vol="100" key="40" len="24" pan="0"/>
          <note pos="36" vol="100" key="40" len="24" pan="0"/>
          <note pos="72" vol="100" key="40" len="24" pan="0"/>
          <note pos="108" vol="100" key="40" len="24" pan="0"/>
          <note pos="144" vol="100" key="40" len="12" pan="0"/>
          <note pos="168" vol="136" key="41" len="24" pan="0"/>
          <note pos="192" vol="100" key="40" len="24" pan="0"/>
          <note pos="228" vol="100" key="40" len="24" pan="0"/>
          <note pos="264" vol="100" key="40" len="24" pan="0"/>
          <note pos="300" vol="100" key="40" len="24" pan="0"/>
          <note pos="336" vol="100" key="40" len="12" pan="0"/>
          <note pos="360" vol="136" key="41" len="24" pan="0"/>
          <note pos="384" vol="100" key="40" len="24" pan="0"/>
          <note pos="420" vol="100" key="40" len="24" pan="0"/>
          <note pos="456" vol="100" key="40" len="24" pan="0"/>
          <note pos="492" vol="100" key="40" len="24" pan="0"/>
          <note pos="528" vol="100" key="40" len="12" pan="0"/>
          <note pos="552" vol="138" key="41" len="24" pan="0"/>
          <note pos="576" vol="100" key="40" len="24" pan="0"/>
          <note pos="612" vol="100" key="40" len="24" pan="0"/>
          <note pos="648" vol="100" key="40" len="24" pan="0"/>
          <note pos="684" vol="100" key="40" len="24" pan="0"/>
          <note pos="720" vol="100" key="40" len="12" pan="0"/>
          <note pos="744" vol="136" key="41" len="24" pan="0"/>
          <note pos="768" vol="100" key="40" len="24" pan="0"/>
          <note pos="804" vol="100" key="40" len="24" pan="0"/>
          <note pos="840" vol="100" key="40" len="24" pan="0"/>
          <note pos="876" vol="100" key="40" len="24" pan="0"/>
          <note pos="912" vol="100" key="40" len="12" pan="0"/>
          <note pos="936" vol="136" key="41" len="24" pan="0"/>
          <note pos="960" vol="100" key="40" len="24" pan="0"/>
          <note pos="996" vol="100" key="40" len="24" pan="0"/>
          <note pos="1032" vol="100" key="40" len="24" pan="0"/>
          <note pos="1068" vol="100" key="40" len="24" pan="0"/>
          <note pos="1104" vol="100" key="40" len="12" pan="0"/>
          <note pos="1128" vol="136" key="41" len="24" pan="0"/>
          <note pos="1152" vol="100" key="40" len="24" pan="0"/>
          <note pos="1188" vol="100" key="40" len="24" pan="0"/>
          <note pos="1224" vol="100" key="40" len="24" pan="0"/>
          <note pos="1260" vol="100" key="40" len="24" pan="0"/>
          <note pos="1296" vol="100" key="40" len="12" pan="0"/>
          <note pos="1320" vol="138" key="41" len="24" pan="0"/>
          <note pos="1344" vol="100" key="40" len="24" pan="0"/>
          <note pos="1380" vol="100" key="40" len="24" pan="0"/>
          <note pos="1416" vol="100" key="40" len="24" pan="0"/>
          <note pos="1452" vol="100" key="40" len="24" pan="0"/>
          <note pos="1488" vol="100" key="40" len="12" pan="0"/>
          <note pos="1512" vol="136" key="41" len="24" pan="0"/>
        </pattern>
        <pattern type="1" name="Organic" muted="0" pos="9216" steps="16">
          <note pos="0" vol="100" key="28" len="768" pan="0"/>
          <note pos="768" vol="100" key="24" len="768" pan="0"/>
        </pattern>
        <pattern type="1" name="Organic" muted="0" pos="10752" steps="16">
          <note pos="0" vol="100" key="28" len="768" pan="0"/>
          <note pos="768" vol="100" key="24" len="768" pan="0"/>
        </pattern>
        <pattern type="1" name="Organic" muted="0" pos="12288" steps="16">
          <note pos="0" vol="100" key="28" len="768" pan="0"/>
          <note pos="768" vol="100" key="24" len="768" pan="0"/>
        </pattern>
        <pattern type="1" name="Organic" muted="0" pos="13824" steps="16">
          <note pos="0" vol="100" key="40" len="24" pan="0"/>
          <note pos="36" vol="100" key="40" len="24" pan="0"/>
          <note pos="72" vol="100" key="40" len="24" pan="0"/>
          <note pos="108" vol="100" key="40" len="24" pan="0"/>
          <note pos="144" vol="100" key="40" len="12" pan="0"/>
          <note pos="168" vol="136" key="41" len="24" pan="0"/>
          <note pos="192" vol="100" key="40" len="24" pan="0"/>
          <note pos="228" vol="100" key="40" len="24" pan="0"/>
          <note pos="264" vol="100" key="40" len="24" pan="0"/>
          <note pos="300" vol="100" key="40" len="24" pan="0"/>
          <note pos="336" vol="100" key="40" len="12" pan="0"/>
          <note pos="360" vol="136" key="41" len="24" pan="0"/>
          <note pos="384" vol="100" key="40" len="24" pan="0"/>
          <note pos="420" vol="100" key="40" len="24" pan="0"/>
          <note pos="456" vol="100" key="40" len="24" pan="0"/>
          <note pos="492" vol="100" key="40" len="24" pan="0"/>
          <note pos="528" vol="100" key="40" len="12" pan="0"/>
          <note pos="552" vol="138" key="41" len="24" pan="0"/>
          <note pos="576" vol="100" key="40" len="24" pan="0"/>
          <note pos="612" vol="100" key="40" len="24" pan="0"/>
          <note pos="648" vol="100" key="40" len="24" pan="0"/>
          <note pos="684" vol="100" key="40" len="24" pan="0"/>
          <note pos="720" vol="100" key="40" len="12" pan="0"/>
          <note pos="744" vol="136" key="41" len="24" pan="0"/>
          <note pos="768" vol="100" key="40" len="24" pan="0"/>
          <note pos="804" vol="100" key="40" len="24" pan="0"/>
          <note pos="840" vol="100" key="40" len="24" pan="0"/>
          <note pos="876" vol="100" key="40" len="24" pan="0"/>
          <note pos="912" vol="100" key="40" len="12" pan="0"/>
          <note pos="936" vol="136" key="41" len="24" pan="0"/>
          <note pos="960" vol="100" key="40" len="24" pan="0"/>
          <note pos="996" vol="100" key="40" len="24" pan="0"/>
          <note pos="1032" vol="100" key="40" len="24" pan="0"/>
          <note pos="1068" vol="100" key="40" len="24" pan="0"/>
          <note pos="1104" vol="100" key="40" len="12" pan="0"/>
          <note pos="1128" vol="136" key="41" len="24" pan="0"/>
          <note pos="1152" vol="100" key="40" len="24" pan="0"/>
          <note pos="1188" vol="100" key="40" len="24" pan="0"/>
          <note pos="1224" vol="100" key="40" len="24" pan="0"/>
          <note pos="1260" vol="100" key="40" len="24" pan="0"/>
          <note pos="1296" vol="100" key="40" len="12" pan="0"/>
          <note pos="1320" vol="138" key="41" len="24" pan="0"/>
          <note pos="1344" vol="100" key="40" len="24" pan="0"/>
          <note pos="1380" vol="100" key="40" len="24" pan="0"/>
          <note pos="1416" vol="100" key="40" len="24" pan="0"/>
          <note pos="1452" vol="100" key="40" len="24" pan="0"/>
          <note pos="1488" vol="100" key="40" len="12" pan="0"/>
          <note pos="1512" vol="136" key="41" len="24" pan="0"/>
        </pattern>
        <pattern type="1" name="Organic" muted="0" pos="15360" steps="16">
          <note pos="0" vol="100" key="40" len="24" pan="0"/>
          <note pos="36" vol="100" key="40" len="24" pan="0"/>
          <note pos="72" vol="100" key="40" len="24" pan="0"/>
          <note pos="108" vol="100" key="40" len="24" pan="0"/>
          <note pos="144" vol="100" key="40" len="12" pan="0"/>
          <note pos="168" vol="136" key="41" len="24" pan="0"/>
          <note pos="192" vol="100" key="40" len="24" pan="0"/>
          <note pos="228" vol="100" key="40" len="24" pan="0"/>
          <note pos="264" vol="100" key="40" len="24" pan="0"/>
          <note pos="300" vol="100" key="40" len="24" pan="0"/>
          <note pos="336" vol="100" key="40" len="12" pan="0"/>
          <note pos="360" vol="136" key="41" len="24" pan="0"/>
          <note pos="384" vol="100" key="40" len="24" pan="0"/>
          <note pos="420" vol="100" key="40" len="24" pan="0"/>
          <note pos="456" vol="100" key="40" len="24" pan="0"/>
          <note pos="492" vol="100" key="40" len="24" pan="0"/>
          <note pos="528" vol="100" key="40" len="12" pan="0"/>
          <note pos="552" vol="138" key="41" len="24" pan="0"/>
          <note pos="576" vol="100" key="40" len="24" pan="0"/>
          <note pos="612" vol="100" key="40" len="24" pan="0"/>
          <note pos="648" vol="100" key="40" len="24" pan="0"/>
          <note pos="684" vol="100" key="40" len="24" pan="0"/>
          <note pos="720" vol="100" key="40" len="12" pan="0"/>
          <note pos="744" vol="136" key="41" len="24" pan="0"/>
          <note pos="768" vol="100" key="40" len="24" pan="0"/>
          <note pos="804" vol="100" key="40" len="24" pan="0"/>
          <note pos="840" vol="100" key="40" len="24" pan="0"/>
          <note pos="876" vol="100" key="40" len="24" pan="0"/>
          <note pos="912" vol="100" key="40" len="12" pan="0"/>
          <note pos="936" vol="136" key="41" len="24" pan="0"/>
          <note pos="960" vol="100" key="40" len="24" pan="0"/>
          <note pos="996" vol="100" key="40" len="24" pan="0"/>
          <note pos="1032" vol="100" key="40" len="24" pan="0"/>
          <note pos="1068" vol="100" key="40" len="24" pan="0"/>
          <note pos="1104" vol="100" key="40" len="12" pan="0"/>
          <note pos="1128" vol="136" key="41" len="24" pan="0"/>
          <note pos="1152" vol="100" key="40" len="24" pan="0"/>
          <note pos="1188" vol="100" key="40" len="24" pan="0"/>
          <note pos="1224" vol="100" key="40" len="24" pan="0"/>
          <note pos="1260" vol="100" key="40" len="24" pan="0"/>
          <note pos="1296" vol="100" key="40" len="12" pan="0"/>
          <note pos="1320" vol="138" key="41" len="24" pan="0"/>
          <note pos="1344" vol="100" key="40" len="24" pan="0"/>
          <note pos="1380" vol="100" key="40" len="24" pan="0"/>
          <note pos="1416" vol="100" key="40" len="24" pan="0"/>
          <note pos="1452" vol="100" key="40" len="24" pan="0"/>
          <note pos="1488" vol="100" key="40" len="12" pan="0"/>
          <note pos="1512" vol="136" key="41" len="24" pan="0"/>
        </pattern>
        <pattern type="1" name="Organic" muted="0" pos="16896" steps="16">
          <note pos="0" vol="100" key="40" len="24" pan="0"/>
          <note pos="36" vol="100" key="40" len="24" pan="0"/>
          <note pos="72" vol="100" key="40" len="24" pan="0"/>
          <note pos="108" vol="100" key="40" len="24" pan="0"/>
          <note pos="144" vol="100" key="40" len="12" pan="0"/>
          <note pos="168" vol="136" key="41" len="24" pan="0"/>
          <note pos="192" vol="100" key="40" len="24" pan="0"/>
          <note pos="228" vol="100" key="40" len="24" pan="0"/>
          <note pos="264" vol="100" key="40" len="24" pan="0"/>
          <note pos="300" vol="100" key="40" len="24" pan="0"/>
          <note pos="336" vol="100" key="40" len="12" pan="0"/>
          <note pos="360" vol="136" key="41" len="24" pan="0"/>
          <note pos="384" vol="100" key="40" len="24" pan="0"/>
          <note pos="420" vol="100" key="40" len="24" pan="0"/>
          <note pos="456" vol="100" key="40" len="24" pan="0"/>
          <note pos="492" vol="100" key="40" len="24" pan="0"/>
          <note pos="528" vol="100" key="40" len="12" pan="0"/>
          <note pos="552" vol="138" key="41" len="24" pan="0"/>
          <note pos="576" vol="100" key="40" len="24" pan="0"/>
          <note pos="612" vol="100" key="40" len="24" pan="0"/>
          <note pos="648" vol="100" key="40" len="24" pan="0"/>
          <note pos="684" vol="100" key="40" len="24" pan="0"/>
          <note pos="720" vol="100" key="40" len="12" pan="0"/>
          <note pos="744" vol="136" key="41" len="24" pan="0"/>
          <note pos="768" vol="100" key="40" len="24" pan="0"/>
          <note pos="804" vol="100" key="40" len="24" pan="0"/>
          <note pos="840" vol="100" key="40" len="24" pan="0"/>
          <note pos="876" vol="100" key="40" len="24" pan="0"/>
          <note pos="912" vol="100" key="40" len="12" pan="0"/>
          <note pos="936" vol="136" key="41" len="24" pan="0"/>
          <note pos="960" vol="100" key="40" len="24" pan="0"/>
          <note pos="996" vol="100" key="40" len="24" pan="0"/>
          <note pos="1032" vol="100" key="40" len="24" pan="0"/>
          <note pos="1068" vol="100" key="40" len="24" pan="0"/>
          <note pos="1104" vol="100" key="40" len="12" pan="0"/>
          <note pos="1128" vol="136" key="41" len="24" pan="0"/>
          <note pos="1152" vol="100" key="40" len="24" pan="0"/>
          <note pos="1188" vol="100" key="40" len="24" pan="0"/>
          <note pos="1224" vol="100" key="40" len="24" pan="0"/>
          <note pos="1260" vol="100" key="40" len="24" pan="0"/>
          <note pos="1296" vol="100" key="40" len="12" pan="0"/>
          <note pos="1320" vol="138" key="41" len="24" pan="0"/>
          <note pos="1344" vol="100" key="40" len="24" pan="0"/>
          <note pos="1380" vol="100" key="40" len="24" pan="0"/>
          <note pos="1416" vol="100" key="40" len="24" pan="0"/>
          <note pos="1452" vol="100" key="40" len="24" pan="0"/>
          <note pos="1488" vol="100" key="40" len="12" pan="0"/>
          <note pos="1512" vol="136" key="41" len="24" pan="0"/>
        </pattern>
        <pattern type="1" name="Organic" muted="0" pos="18432" steps="16">
          <note pos="0" vol="100" key="40" len="24" pan="0"/>
          <note pos="36" vol="100" key="40" len="24" pan="0"/>
          <note pos="72" vol="100" key="40" len="24" pan="0"/>
          <note pos="108" vol="100" key="40" len="24" pan="0"/>
          <note pos="144" vol="100" key="40" len="12" pan="0"/>
          <note pos="168" vol="136" key="41" len="24" pan="0"/>
          <note pos="192" vol="100" key="40" len="24" pan="0"/>
          <note pos="228" vol="100" key="40" len="24" pan="0"/>
          <note pos="264" vol="100" key="40" len="24" pan="0"/>
          <note pos="300" vol="100" key="40" len="24" pan="0"/>
          <note pos="336" vol="100" key="40" len="12" pan="0"/>
          <note pos="360" vol="136" key="41" len="24" pan="0"/>
          <note pos="384" vol="100" key="40" len="24" pan="0"/>
          <note pos="420" vol="100" key="40" len="24" pan="0"/>
          <note pos="456" vol="100" key="40" len="24" pan="0"/>
          <note pos="492" vol="100" key="40" len="24" pan="0"/>
          <note pos="528" vol="100" key="40" len="12" pan="0"/>
          <note pos="552" vol="138" key="41" len="24" pan="0"/>
          <note pos="576" vol="100" key="40" len="24" pan="0"/>
          <note pos="612" vol="100" key="40" len="24" pan="0"/>
          <note pos="648" vol="100" key="40" len="24" pan="0"/>
          <note pos="684" vol="100" key="40" len="24" pan="0"/>
          <note pos="720" vol="100" key="40" len="12" pan="0"/>
          <note pos="744" vol="136" key="41" len="24" pan="0"/>
          <note pos="768" vol="100" key="40" len="24" pan="0"/>
          <note pos="804" vol="100" key="40" len="24" pan="0"/>
          <note pos="840" vol="100" key="40" len="24" pan="0"/>
          <note pos="876" vol="100" key="40" len="24" pan="0"/>
          <note pos="912" vol="100" key="40" len="12" pan="0"/>
          <note pos="936" vol="136" key="41" len="24" pan="0"/>
          <note pos="960" vol="100" key="40" len="24" pan="0"/>
          <note pos="996" vol="100" key="40" len="24" pan="0"/>
          <note pos="1032" vol="100" key="40" len="24" pan="0"/>
          <note pos="1068" vol="100" key="40" len="24" pan="0"/>
          <note pos="1104" vol="100" key="40" len="12" pan="0"/>
          <note pos="1128" vol="136" key="41" len="24" pan="0"/>
          <note pos="1152" vol="100" key="40" len="24" pan="0"/>
          <note pos="1188" vol="100" key="40" len="24" pan="0"/>
          <note pos="1224" vol="100" key="40" len="24" pan="0"/>
          <note pos="1260" vol="100" key="40" len="24" pan="0"/>
          <note pos="1296" vol="100" key="40" len="12" pan="0"/>
          <note pos="1320" vol="138" key="41" len="24" pan="0"/>
          <note pos="1344" vol="100" key="40" len="24" pan="0"/>
          <note pos="1380" vol="100" key="40" len="24" pan="0"/>
          <note pos="1416" vol="100" key="40" len="24" pan="0"/>
          <note pos="1452" vol="100" key="40" len="24" pan="0"/>
          <note pos="1488" vol="100" key="40" len="12" pan="0"/>
          <note pos="1512" vol="136" key="41" len="24" pan="0"/>
        </pattern>
        <pattern type="1" name="Organic" muted="0" pos="19968" steps="16">
          <note pos="0" vol="100" key="40" len="192" pan="0"/>
        </pattern>
        <pattern type="1" name="Organic" muted="0" pos="4608" steps="16">
          <note pos="0" vol="100" key="40" len="24" pan="0"/>
          <note pos="36" vol="100" key="40" len="24" pan="0"/>
          <note pos="72" vol="100" key="40" len="24" pan="0"/>
          <note pos="108" vol="100" key="40" len="24" pan="0"/>
          <note pos="144" vol="100" key="40" len="12" pan="0"/>
          <note pos="168" vol="136" key="41" len="24" pan="0"/>
          <note pos="192" vol="100" key="40" len="24" pan="0"/>
          <note pos="228" vol="100" key="40" len="24" pan="0"/>
          <note pos="264" vol="100" key="40" len="24" pan="0"/>
          <note pos="300" vol="100" key="40" len="24" pan="0"/>
          <note pos="336" vol="100" key="40" len="12" pan="0"/>
          <note pos="360" vol="136" key="41" len="24" pan="0"/>
          <note pos="384" vol="100" key="40" len="24" pan="0"/>
          <note pos="420" vol="100" key="40" len="24" pan="0"/>
          <note pos="456" vol="100" key="40" len="24" pan="0"/>
          <note pos="492" vol="100" key="40" len="24" pan="0"/>
          <note pos="528" vol="100" key="40" len="12" pan="0"/>
          <note pos="552" vol="138" key="41" len="24" pan="0"/>
          <note pos="576" vol="100" key="40" len="24" pan="0"/>
          <note pos="612" vol="100" key="40" len="24" pan="0"/>
          <note pos="648" vol="100" key="40" len="24" pan="0"/>
          <note pos="684" vol="100" key="40" len="24" pan="0"/>
          <note pos="720" vol="100" key="40" len="12" pan="0"/>
          <note pos="744" vol="136" key="41" len="24" pan="0"/>
          <note pos="768" vol="100" key="40" len="24" pan="0"/>
          <note pos="804" vol="100" key="40" len="24" pan="0"/>
          <note pos="840" vol="100" key="40" len="24" pan="0"/>
          <note pos="876" vol="100" key="40" len="24" pan="0"/>
          <note pos="912" vol="100" key="40" len="12" pan="0"/>
          <note pos="936" vol="136" key="41" len="24" pan="0"/>
          <note pos="960" vol="100" key="40" len="24" pan="0"/>
          <note pos="996" vol="100" key="40" len="24" pan="0"/>
          <note pos="1032" vol="100" key="40" len="24" pan="0"/>
          <note pos="1068" vol="100" key="40" len="24" pan="0"/>
          <note pos="1104" vol="100" key="40" len="12" pan="0"/>
          <note pos="1128" vol="136" key="41" len="24" pan="0"/>
          <note pos="1152" vol="100" key="40" len="24" pan="0"/>
          <note pos="1188" vol="100" key="40" len="24" pan="0"/>
          <note pos="1224" vol="100" key="40" len="24" pan="0"/>
          <note pos="1260" vol="100" key="40" len="24" pan="0"/>
          <note pos="1296" vol="100" key="40" len="12" pan="0"/>
          <note pos="1320" vol="138" key="41" len="24" pan="0"/>
          <note pos="1344" vol="100" key="40" len="24" pan="0"/>
          <note pos="1380" vol="100" key="40" len="24" pan="0"/>
          <note pos="1416" vol="100" key="40" len="24" pan="0"/>
          <note pos="1452" vol="100" key="40" len="24" pan="0"/>
          <note pos="1488" vol="100" key="40" len="12" pan="0"/>
          <note pos="1512" vol="136" key="41" len="24" pan="0"/>
        </pattern>
      </track>
      <track type="0" solo="0" name="Organic" muted="0">
        <instrumenttrack fxch="0" vol="65" pitchrange="1" usemasterpitch="1" basenote="57" pan="66" pitch="0">
          <instrument name="organic">
            <organic newdetune0="-4" pan0="0" pan1="0" newharmonic7="7" newharmonic4="4" vol4="52" newdetune1="-2" wavetype0="3" wavetype6="4" vol1="43" newharmonic0="0" pan4="0" newdetune2="4" pan6="0" vol2="42" vol3="88" wavetype1="3" wavetype5="1" pan5="0" vol6="93" vol5="24" newharmonic1="1" wavetype3="0" newharmonic2="2" foldback="0" wavetype2="1" wavetype7="3" newdetune6="-5" vol="100" num_osc="8" newdetune4="1" pan7="0" newharmonic5="5" vol7="59" pan2="0" newharmonic6="6" newdetune3="-4" newdetune5="-4" wavetype4="0" newharmonic3="3" pan3="0" vol0="40" newdetune7="-1"/>
          </instrument>
          <eldata fres="0.5" fcut="14000" ftype="0" fwet="0">
            <elvol lspd_denominator="4" lamt="0" lshp="0" x100="0" lspd="0.1" rel="0.1" dec="0.5" sustain="0.5" lspd_numerator="4" att="0.016000001" amt="1" ctlenvamt="0" hold="0.13600001" lspd_syncmode="0" lpdel="0" latt="0" pdel="0" userwavefile=""/>
            <elcut lspd_denominator="4" lamt="0" lshp="0" x100="0" lspd="0.1" rel="0.1" dec="0.5" sustain="0.5" lspd_numerator="4" att="0" amt="0" ctlenvamt="0" hold="0.5" lspd_syncmode="0" lpdel="0" latt="0" pdel="0" userwavefile=""/>
            <elres lspd_denominator="4" lamt="0" lshp="0" x100="0" lspd="0.1" rel="0.1" dec="0.5" sustain="0.5" lspd_numerator="4" att="0" amt="0" ctlenvamt="0" hold="0.5" lspd_syncmode="0" lpdel="0" latt="0" pdel="0" userwavefile=""/>
          </eldata>
          <chordcreator chord="0" chord-enabled="0" chordrange="1"/>
          <arpeggiator arpmode="0" arptime_numerator="4" arptime="200" arpgate="100" arprange="1" arp="0" arpcycle="0" arpskip="0" arp-enabled="0" arptime_denominator="4" arpmiss="0" arpdir="0" arptime_syncmode="0"/>
          <midiport outputcontroller="0" readable="0" outputchannel="1" inputcontroller="0" fixedoutputvelocity="-1" outputprogram="1" writable="0" fixedoutputnote="-1" basevelocity="63" inputchannel="0" fixedinputvelocity="-1"/>
          <fxchain enabled="0" numofeffects="0"/>
        </instrumenttrack>
        <pattern type="1" name="Organic" muted="0" pos="768" steps="16">
          <note pos="0" vol="100" key="40" len="24" pan="0"/>
          <note pos="36" vol="100" key="40" len="24" pan="0"/>
          <note pos="72" vol="100" key="40" len="24" pan="0"/>
          <note pos="108" vol="100" key="40" len="24" pan="0"/>
          <note pos="144" vol="100" key="40" len="12" pan="0"/>
          <note pos="168" vol="136" key="41" len="24" pan="0"/>
          <note pos="192" vol="100" key="40" len="24" pan="0"/>
          <note pos="228" vol="100" key="40" len="24" pan="0"/>
          <note pos="264" vol="100" key="40" len="24" pan="0"/>
          <note pos="300" vol="100" key="40" len="24" pan="0"/>
          <note pos="336" vol="100" key="40" len="12" pan="0"/>
          <note pos="360" vol="136" key="41" len="24" pan="0"/>
          <note pos="384" vol="100" key="40" len="24" pan="0"/>
          <note pos="420" vol="100" key="40" len="24" pan="0"/>
          <note pos="456" vol="100" key="40" len="24" pan="0"/>
          <note pos="492" vol="100" key="40" len="24" pan="0"/>
          <note pos="528" vol="100" key="40" len="12" pan="0"/>
          <note pos="552" vol="138" key="41" len="24" pan="0"/>
          <note pos="576" vol="100" key="40" len="24" pan="0"/>
          <note pos="612" vol="100" key="40" len="24" pan="0"/>
          <note pos="648" vol="100" key="40" len="24" pan="0"/>
          <note pos="684" vol="100" key="40" len="24" pan="0"/>
          <note pos="720" vol="100" key="40" len="12" pan="0"/>
          <note pos="744" vol="136" key="41" len="24" pan="0"/>
        </pattern>
        <pattern type="1" name="" muted="0" pos="1536" steps="16">
          <note pos="0" vol="100" key="40" len="24" pan="0"/>
          <note pos="36" vol="100" key="40" len="24" pan="0"/>
          <note pos="72" vol="100" key="40" len="24" pan="0"/>
          <note pos="108" vol="100" key="40" len="24" pan="0"/>
          <note pos="144" vol="100" key="40" len="12" pan="0"/>
          <note pos="168" vol="136" key="41" len="24" pan="0"/>
          <note pos="192" vol="100" key="40" len="24" pan="0"/>
          <note pos="228" vol="100" key="40" len="24" pan="0"/>
          <note pos="264" vol="100" key="40" len="24" pan="0"/>
          <note pos="300" vol="100" key="40" len="24" pan="0"/>
          <note pos="336" vol="100" key="40" len="12" pan="0"/>
          <note pos="360" vol="136" key="41" len="24" pan="0"/>
          <note pos="384" vol="100" key="40" len="24" pan="0"/>
          <note pos="420" vol="100" key="40" len="24" pan="0"/>
          <note pos="456" vol="100" key="40" len="24" pan="0"/>
          <note pos="492" vol="100" key="40" len="24" pan="0"/>
          <note pos="528" vol="100" key="40" len="12" pan="0"/>
          <note pos="552" vol="138" key="41" len="24" pan="0"/>
          <note pos="576" vol="100" key="40" len="24" pan="0"/>
          <note pos="612" vol="100" key="40" len="24" pan="0"/>
          <note pos="648" vol="100" key="40" len="24" pan="0"/>
          <note pos="684" vol="100" key="40" len="24" pan="0"/>
          <note pos="720" vol="100" key="40" len="12" pan="0"/>
          <note pos="744" vol="136" key="41" len="24" pan="0"/>
          <note pos="768" vol="100" key="40" len="24" pan="0"/>
          <note pos="804" vol="100" key="40" len="24" pan="0"/>
          <note pos="840" vol="100" key="40" len="24" pan="0"/>
          <note pos="876" vol="100" key="40" len="24" pan="0"/>
          <note pos="912" vol="100" key="40" len="12" pan="0"/>
          <note pos="936" vol="136" key="41" len="24" pan="0"/>
          <note pos="960" vol="100" key="40" len="24" pan="0"/>
          <note pos="996" vol="100" key="40" len="24" pan="0"/>
          <note pos="1032" vol="100" key="40" len="24" pan="0"/>
          <note pos="1068" vol="100" key="40" len="24" pan="0"/>
          <note pos="1104" vol="100" key="40" len="12" pan="0"/>
          <note pos="1128" vol="136" key="41" len="24" pan="0"/>
          <note pos="1152" vol="100" key="40" len="24" pan="0"/>
          <note pos="1188" vol="100" key="40" len="24" pan="0"/>
          <note pos="1224" vol="100" key="40" len="24" pan="0"/>
          <note pos="1260" vol="100" key="40" len="24" pan="0"/>
          <note pos="1296" vol="100" key="40" len="12" pan="0"/>
          <note pos="1320" vol="138" key="41" len="24" pan="0"/>
          <note pos="1344" vol="100" key="40" len="24" pan="0"/>
          <note pos="1380" vol="100" key="40" len="24" pan="0"/>
          <note pos="1416" vol="100" key="40" len="24" pan="0"/>
          <note pos="1452" vol="100" key="40" len="24" pan="0"/>
          <note pos="1488" vol="100" key="40" len="12" pan="0"/>
          <note pos="1512" vol="136" key="41" len="24" pan="0"/>
        </pattern>
        <pattern type="1" name="" muted="0" pos="3072" steps="16">
          <note pos="0" vol="100" key="40" len="24" pan="0"/>
          <note pos="36" vol="100" key="40" len="24" pan="0"/>
          <note pos="72" vol="100" key="40" len="24" pan="0"/>
          <note pos="108" vol="100" key="40" len="24" pan="0"/>
          <note pos="144" vol="100" key="40" len="12" pan="0"/>
          <note pos="168" vol="136" key="41" len="24" pan="0"/>
          <note pos="192" vol="100" key="40" len="24" pan="0"/>
          <note pos="228" vol="100" key="40" len="24" pan="0"/>
          <note pos="264" vol="100" key="40" len="24" pan="0"/>
          <note pos="300" vol="100" key="40" len="24" pan="0"/>
          <note pos="336" vol="100" key="40" len="12" pan="0"/>
          <note pos="360" vol="136" key="41" len="24" pan="0"/>
          <note pos="384" vol="100" key="40" len="24" pan="0"/>
          <note pos="420" vol="100" key="40" len="24" pan="0"/>
          <note pos="456" vol="100" key="40" len="24" pan="0"/>
          <note pos="492" vol="100" key="40" len="24" pan="0"/>
          <note pos="528" vol="100" key="40" len="12" pan="0"/>
          <note pos="552" vol="138" key="41" len="24" pan="0"/>
          <note pos="576" vol="100" key="40" len="24" pan="0"/>
          <note pos="612" vol="100" key="40" len="24" pan="0"/>
          <note pos="648" vol="100" key="40" len="24" pan="0"/>
          <note pos="684" vol="100" key="40" len="24" pan="0"/>
          <note pos="720" vol="100" key="40" len="12" pan="0"/>
          <note pos="744" vol="136" key="41" len="24" pan="0"/>
          <note pos="768" vol="100" key="40" len="24" pan="0"/>
          <note pos="804" vol="100" key="40" len="24" pan="0"/>
          <note pos="840" vol="100" key="40" len="24" pan="0"/>
          <note pos="876" vol="100" key="40" len="24" pan="0"/>
          <note pos="912" vol="100" key="40" len="12" pan="0"/>
          <note pos="936" vol="136" key="41" len="24" pan="0"/>
          <note pos="960" vol="100" key="40" len="24" pan="0"/>
          <note pos="996" vol="100" key="40" len="24" pan="0"/>
          <note pos="1032" vol="100" key="40" len="24" pan="0"/>
          <note pos="1068" vol="100" key="40" len="24" pan="0"/>
          <note pos="1104" vol="100" key="40" len="12" pan="0"/>
          <note pos="1128" vol="136" key="41" len="24" pan="0"/>
          <note pos="1152" vol="100" key="40" len="24" pan="0"/>
          <note pos="1188" vol="100" key="40" len="24" pan="0"/>
          <note pos="1224" vol="100" key="40" len="24" pan="0"/>
          <note pos="1260" vol="100" key="40" len="24" pan="0"/>
          <note pos="1296" vol="100" key="40" len="12" pan="0"/>
          <note pos="1320" vol="138" key="41" len="24" pan="0"/>
          <note pos="1344" vol="100" key="40" len="24" pan="0"/>
          <note pos="1380" vol="100" key="40" len="24" pan="0"/>
          <note pos="1416" vol="100" key="40" len="24" pan="0"/>
          <note pos="1452" vol="100" key="40" len="24" pan="0"/>
          <note pos="1488" vol="100" key="40" len="12" pan="0"/>
          <note pos="1512" vol="136" key="41" len="24" pan="0"/>
        </pattern>
        <pattern type="1" name="" muted="0" pos="4608" steps="16">
          <note pos="0" vol="100" key="40" len="24" pan="0"/>
          <note pos="36" vol="100" key="40" len="24" pan="0"/>
          <note pos="72" vol="100" key="40" len="24" pan="0"/>
          <note pos="108" vol="100" key="40" len="24" pan="0"/>
          <note pos="144" vol="100" key="40" len="12" pan="0"/>
          <note pos="168" vol="136" key="41" len="24" pan="0"/>
          <note pos="192" vol="100" key="40" len="24" pan="0"/>
          <note pos="228" vol="100" key="40" len="24" pan="0"/>
          <note pos="264" vol="100" key="40" len="24" pan="0"/>
          <note pos="300" vol="100" key="40" len="24" pan="0"/>
          <note pos="336" vol="100" key="40" len="12" pan="0"/>
          <note pos="360" vol="136" key="41" len="24" pan="0"/>
          <note pos="384" vol="100" key="40" len="24" pan="0"/>
          <note pos="420" vol="100" key="40" len="24" pan="0"/>
          <note pos="456" vol="100" key="40" len="24" pan="0"/>
          <note pos="492" vol="100" key="40" len="24" pan="0"/>
          <note pos="528" vol="100" key="40" len="12" pan="0"/>
          <note pos="552" vol="138" key="41" len="24" pan="0"/>
          <note pos="576" vol="100" key="40" len="24" pan="0"/>
          <note pos="612" vol="100" key="40" len="24" pan="0"/>
          <note pos="648" vol="100" key="40" len="24" pan="0"/>
          <note pos="684" vol="100" key="40" len="24" pan="0"/>
          <note pos="720" vol="100" key="40" len="12" pan="0"/>
          <note pos="744" vol="136" key="41" len="24" pan="0"/>
          <note pos="768" vol="100" key="40" len="24" pan="0"/>
          <note pos="804" vol="100" key="40" len="24" pan="0"/>
          <note pos="840" vol="100" key="40" len="24" pan="0"/>
          <note pos="876" vol="100" key="40" len="24" pan="0"/>
          <note pos="912" vol="100" key="40" len="12" pan="0"/>
          <note pos="936" vol="136" key="41" len="24" pan="0"/>
          <note pos="960" vol="100" key="40" len="24" pan="0"/>
          <note pos="996" vol="100" key="40" len="24" pan="0"/>
          <note pos="1032" vol="100" key="40" len="24" pan="0"/>
          <note pos="1068" vol="100" key="40" len="24" pan="0"/>
          <note pos="1104" vol="100" key="40" len="12" pan="0"/>
          <note pos="1128" vol="136" key="41" len="24" pan="0"/>
          <note pos="1152" vol="100" key="40" len="24" pan="0"/>
          <note pos="1188" vol="100" key="40" len="24" pan="0"/>
          <note pos="1224" vol="100" key="40" len="24" pan="0"/>
          <note pos="1260" vol="100" key="40" len="24" pan="0"/>
          <note pos="1296" vol="100" key="40" len="12" pan="0"/>
          <note pos="1320" vol="138" key="41" len="24" pan="0"/>
          <note pos="1344" vol="100" key="40" len="24" pan="0"/>
          <note pos="1380" vol="100" key="40" len="24" pan="0"/>
          <note pos="1416" vol="100" key="40" len="24" pan="0"/>
          <note pos="1452" vol="100" key="40" len="24" pan="0"/>
          <note pos="1488" vol="100" key="40" len="12" pan="0"/>
          <note pos="1512" vol="136" key="41" len="24" pan="0"/>
        </pattern>
        <pattern type="1" name="" muted="0" pos="6144" steps="16">
          <note pos="0" vol="100" key="40" len="24" pan="0"/>
          <note pos="36" vol="100" key="40" len="24" pan="0"/>
          <note pos="72" vol="100" key="40" len="24" pan="0"/>
          <note pos="108" vol="100" key="40" len="24" pan="0"/>
          <note pos="144" vol="100" key="40" len="12" pan="0"/>
          <note pos="168" vol="136" key="41" len="24" pan="0"/>
          <note pos="192" vol="100" key="40" len="24" pan="0"/>
          <note pos="228" vol="100" key="40" len="24" pan="0"/>
          <note pos="264" vol="100" key="40" len="24" pan="0"/>
          <note pos="300" vol="100" key="40" len="24" pan="0"/>
          <note pos="336" vol="100" key="40" len="12" pan="0"/>
          <note pos="360" vol="136" key="41" len="24" pan="0"/>
          <note pos="384" vol="100" key="40" len="24" pan="0"/>
          <note pos="420" vol="100" key="40" len="24" pan="0"/>
          <note pos="456" vol="100" key="40" len="24" pan="0"/>
          <note pos="492" vol="100" key="40" len="24" pan="0"/>
          <note pos="528" vol="100" key="40" len="12" pan="0"/>
          <note pos="552" vol="138" key="41" len="24" pan="0"/>
          <note pos="576" vol="100" key="40" len="24" pan="0"/>
          <note pos="612" vol="100" key="40" len="24" pan="0"/>
          <note pos="648" vol="100" key="40" len="24" pan="0"/>
          <note pos="684" vol="100" key="40" len="24" pan="0"/>
          <note pos="720" vol="100" key="40" len="12" pan="0"/>
          <note pos="744" vol="136" key="41" len="24" pan="0"/>
          <note pos="768" vol="100" key="40" len="24" pan="0"/>
          <note pos="804" vol="100" key="40" len="24" pan="0"/>
          <note pos="840" vol="100" key="40" len="24" pan="0"/>
          <note pos="876" vol="100" key="40" len="24" pan="0"/>
          <note pos="912" vol="100" key="40" len="12" pan="0"/>
          <note pos="936" vol="136" key="41" len="24" pan="0"/>
          <note pos="960" vol="100" key="40" len="24" pan="0"/>
          <note pos="996" vol="100" key="40" len="24" pan="0"/>
          <note pos="1032" vol="100" key="40" len="24" pan="0"/>
          <note pos="1068" vol="100" key="40" len="24" pan="0"/>
          <note pos="1104" vol="100" key="40" len="12" pan="0"/>
          <note pos="1128" vol="136" key="41" len="24" pan="0"/>
          <note pos="1152" vol="100" key="40" len="24" pan="0"/>
          <note pos="1188" vol="100" key="40" len="24" pan="0"/>
          <note pos="1224" vol="100" key="40" len="24" pan="0"/>
          <note pos="1260" vol="100" key="40" len="24" pan="0"/>
          <note pos="1296" vol="100" key="40" len="12" pan="0"/>
          <note pos="1320" vol="138" key="41" len="24" pan="0"/>
          <note pos="1344" vol="100" key="40" len="24" pan="0"/>
          <note pos="1380" vol="100" key="40" len="24" pan="0"/>
          <note pos="1416" vol="100" key="40" len="24" pan="0"/>
          <note pos="1452" vol="100" key="40" len="24" pan="0"/>
          <note pos="1488" vol="100" key="40" len="12" pan="0"/>
          <note pos="1512" vol="136" key="41" len="24" pan="0"/>
        </pattern>
        <pattern type="1" name="" muted="0" pos="9216" steps="16">
          <note pos="0" vol="100" key="28" len="768" pan="0"/>
          <note pos="768" vol="100" key="24" len="768" pan="0"/>
        </pattern>
        <pattern type="1" name="" muted="0" pos="10752" steps="16">
          <note pos="0" vol="100" key="28" len="768" pan="0"/>
          <note pos="768" vol="100" key="24" len="768" pan="0"/>
        </pattern>
        <pattern type="1" name="" muted="0" pos="12288" steps="16">
          <note pos="0" vol="100" key="28" len="768" pan="0"/>
          <note pos="768" vol="100" key="24" len="768" pan="0"/>
        </pattern>
        <pattern type="1" name="" muted="0" pos="13824" steps="16">
          <note pos="0" vol="100" key="40" len="24" pan="0"/>
          <note pos="36" vol="100" key="40" len="24" pan="0"/>
          <note pos="72" vol="100" key="40" len="24" pan="0"/>
          <note pos="108" vol="100" key="40" len="24" pan="0"/>
          <note pos="144" vol="100" key="40" len="12" pan="0"/>
          <note pos="168" vol="136" key="41" len="24" pan="0"/>
          <note pos="192" vol="100" key="40" len="24" pan="0"/>
          <note pos="228" vol="100" key="40" len="24" pan="0"/>
          <note pos="264" vol="100" key="40" len="24" pan="0"/>
          <note pos="300" vol="100" key="40" len="24" pan="0"/>
          <note pos="336" vol="100" key="40" len="12" pan="0"/>
          <note pos="360" vol="136" key="41" len="24" pan="0"/>
          <note pos="384" vol="100" key="40" len="24" pan="0"/>
          <note pos="420" vol="100" key="40" len="24" pan="0"/>
          <note pos="456" vol="100" key="40" len="24" pan="0"/>
          <note pos="492" vol="100" key="40" len="24" pan="0"/>
          <note pos="528" vol="100" key="40" len="12" pan="0"/>
          <note pos="552" vol="138" key="41" len="24" pan="0"/>
          <note pos="576" vol="100" key="40" len="24" pan="0"/>
          <note pos="612" vol="100" key="40" len="24" pan="0"/>
          <note pos="648" vol="100" key="40" len="24" pan="0"/>
          <note pos="684" vol="100" key="40" len="24" pan="0"/>
          <note pos="720" vol="100" key="40" len="12" pan="0"/>
          <note pos="744" vol="136" key="41" len="24" pan="0"/>
          <note pos="768" vol="100" key="40" len="24" pan="0"/>
          <note pos="804" vol="100" key="40" len="24" pan="0"/>
          <note pos="840" vol="100" key="40" len="24" pan="0"/>
          <note pos="876" vol="100" key="40" len="24" pan="0"/>
          <note pos="912" vol="100" key="40" len="12" pan="0"/>
          <note pos="936" vol="136" key="41" len="24" pan="0"/>
          <note pos="960" vol="100" key="40" len="24" pan="0"/>
          <note pos="996" vol="100" key="40" len="24" pan="0"/>
          <note pos="1032" vol="100" key="40" len="24" pan="0"/>
          <note pos="1068" vol="100" key="40" len="24" pan="0"/>
          <note pos="1104" vol="100" key="40" len="12" pan="0"/>
          <note pos="1128" vol="136" key="41" len="24" pan="0"/>
          <note pos="1152" vol="100" key="40" len="24" pan="0"/>
          <note pos="1188" vol="100" key="40" len="24" pan="0"/>
          <note pos="1224" vol="100" key="40" len="24" pan="0"/>
          <note pos="1260" vol="100" key="40" len="24" pan="0"/>
          <note pos="1296" vol="100" key="40" len="12" pan="0"/>
          <note pos="1320" vol="138" key="41" len="24" pan="0"/>
          <note pos="1344" vol="100" key="40" len="24" pan="0"/>
          <note pos="1380" vol="100" key="40" len="24" pan="0"/>
          <note pos="1416" vol="100" key="40" len="24" pan="0"/>
          <note pos="1452" vol="100" key="40" len="24" pan="0"/>
          <note pos="1488" vol="100" key="40" len="12" pan="0"/>
          <note pos="1512" vol="136" key="41" len="24" pan="0"/>
        </pattern>
        <pattern type="1" name="" muted="0" pos="15360" steps="16">
          <note pos="0" vol="100" key="40" len="24" pan="0"/>
          <note pos="36" vol="100" key="40" len="24" pan="0"/>
          <note pos="72" vol="100" key="40" len="24" pan="0"/>
          <note pos="108" vol="100" key="40" len="24" pan="0"/>
          <note pos="144" vol="100" key="40" len="12" pan="0"/>
          <note pos="168" vol="136" key="41" len="24" pan="0"/>
          <note pos="192" vol="100" key="40" len="24" pan="0"/>
          <note pos="228" vol="100" key="40" len="24" pan="0"/>
          <note pos="264" vol="100" key="40" len="24" pan="0"/>
          <note pos="300" vol="100" key="40" len="24" pan="0"/>
          <note pos="336" vol="100" key="40" len="12" pan="0"/>
          <note pos="360" vol="136" key="41" len="24" pan="0"/>
          <note pos="384" vol="100" key="40" len="24" pan="0"/>
          <note pos="420" vol="100" key="40" len="24" pan="0"/>
          <note pos="456" vol="100" key="40" len="24" pan="0"/>
          <note pos="492" vol="100" key="40" len="24" pan="0"/>
          <note pos="528" vol="100" key="40" len="12" pan="0"/>
          <note pos="552" vol="138" key="41" len="24" pan="0"/>
          <note pos="576" vol="100" key="40" len="24" pan="0"/>
          <note pos="612" vol="100" key="40" len="24" pan="0"/>
          <note pos="648" vol="100" key="40" len="24" pan="0"/>
          <note pos="684" vol="100" key="40" len="24" pan="0"/>
          <note pos="720" vol="100" key="40" len="12" pan="0"/>
          <note pos="744" vol="136" key="41" len="24" pan="0"/>
          <note pos="768" vol="100" key="40" len="24" pan="0"/>
          <note pos="804" vol="100" key="40" len="24" pan="0"/>
          <note pos="840" vol="100" key="40" len="24" pan="0"/>
          <note pos="876" vol="100" key="40" len="24" pan="0"/>
          <note pos="912" vol="100" key="40" len="12" pan="0"/>
          <note pos="936" vol="136" key="41" len="24" pan="0"/>
          <note pos="960" vol="100" key="40" len="24" pan="0"/>
          <note pos="996" vol="100" key="40" len="24" pan="0"/>
          <note pos="1032" vol="100" key="40" len="24" pan="0"/>
          <note pos="1068" vol="100" key="40" len="24" pan="0"/>
          <note pos="1104" vol="100" key="40" len="12" pan="0"/>
          <note pos="1128" vol="136" key="41" len="24" pan="0"/>
          <note pos="1152" vol="100" key="40" len="24" pan="0"/>
          <note pos="1188" vol="100" key="40" len="24" pan="0"/>
          <note pos="1224" vol="100" key="40" len="24" pan="0"/>
          <note pos="1260" vol="100" key="40" len="24" pan="0"/>
          <note pos="1296" vol="100" key="40" len="12" pan="0"/>
          <note pos="1320" vol="138" key="41" len="24" pan="0"/>
          <note pos="1344" vol="100" key="40" len="24" pan="0"/>
          <note pos="1380" vol="100" key="40" len="24" pan="0"/>
          <note pos="1416" vol="100" key="40" len="24" pan="0"/>
          <note pos="1452" vol="100" key="40" len="24" pan="0"/>
          <note pos="1488" vol="100" key="40" len="12" pan="0"/>
          <note pos="1512" vol="136" key="41" len="24" pan="0"/>
        </pattern>
        <pattern type="1" name="" muted="0" pos="16896" steps="16">
          <note pos="0" vol="100" key="40" len="24" pan="0"/>
          <note pos="36" vol="100" key="40" len="24" pan="0"/>
          <note pos="72" vol="100" key="40" len="24" pan="0"/>
          <note pos="108" vol="100" key="40" len="24" pan="0"/>
          <note pos="144" vol="100" key="40" len="12" pan="0"/>
          <note pos="168" vol="136" key="41" len="24" pan="0"/>
          <note pos="192" vol="100" key="40" len="24" pan="0"/>
          <note pos="228" vol="100" key="40" len="24" pan="0"/>
          <note pos="264" vol="100" key="40" len="24" pan="0"/>
          <note pos="300" vol="100" key="40" len="24" pan="0"/>
          <note pos="336" vol="100" key="40" len="12" pan="0"/>
          <note pos="360" vol="136" key="41" len="24" pan="0"/>
          <note pos="384" vol="100" key="40" len="24" pan="0"/>
          <note pos="420" vol="100" key="40" len="24" pan="0"/>
          <note pos="456" vol="100" key="40" len="24" pan="0"/>
          <note pos="492" vol="100" key="40" len="24" pan="0"/>
          <note pos="528" vol="100" key="40" len="12" pan="0"/>
          <note pos="552" vol="138" key="41" len="24" pan="0"/>
          <note pos="576" vol="100" key="40" len="24" pan="0"/>
          <note pos="612" vol="100" key="40" len="24" pan="0"/>
          <note pos="648" vol="100" key="40" len="24" pan="0"/>
          <note pos="684" vol="100" key="40" len="24" pan="0"/>
          <note pos="720" vol="100" key="40" len="12" pan="0"/>
          <note pos="744" vol="136" key="41" len="24" pan="0"/>
          <note pos="768" vol="100" key="40" len="24" pan="0"/>
          <note pos="804" vol="100" key="40" len="24" pan="0"/>
          <note pos="840" vol="100" key="40" len="24" pan="0"/>
          <note pos="876" vol="100" key="40" len="24" pan="0"/>
          <note pos="912" vol="100" key="40" len="12" pan="0"/>
          <note pos="936" vol="136" key="41" len="24" pan="0"/>
          <note pos="960" vol="100" key="40" len="24" pan="0"/>
          <note pos="996" vol="100" key="40" len="24" pan="0"/>
          <note pos="1032" vol="100" key="40" len="24" pan="0"/>
          <note pos="1068" vol="100" key="40" len="24" pan="0"/>
          <note pos="1104" vol="100" key="40" len="12" pan="0"/>
          <note pos="1128" vol="136" key="41" len="24" pan="0"/>
          <note pos="1152" vol="100" key="40" len="24" pan="0"/>
          <note pos="1188" vol="100" key="40" len="24" pan="0"/>
          <note pos="1224" vol="100" key="40" len="24" pan="0"/>
          <note pos="1260" vol="100" key="40" len="24" pan="0"/>
          <note pos="1296" vol="100" key="40" len="12" pan="0"/>
          <note pos="1320" vol="138" key="41" len="24" pan="0"/>
          <note pos="1344" vol="100" key="40" len="24" pan="0"/>
          <note pos="1380" vol="100" key="40" len="24" pan="0"/>
          <note pos="1416" vol="100" key="40" len="24" pan="0"/>
          <note pos="1452" vol="100" key="40" len="24" pan="0"/>
          <note pos="1488" vol="100" key="40" len="12" pan="0"/>
          <note pos="1512" vol="136" key="41" len="24" pan="0"/>
        </pattern>
        <pattern type="1" name="" muted="0" pos="18432" steps="16">
          <note pos="0" vol="100" key="40" len="24" pan="0"/>
          <note pos="36" vol="100" key="40" len="24" pan="0"/>
          <note pos="72" vol="100" key="40" len="24" pan="0"/>
          <note pos="108" vol="100" key="40" len="24" pan="0"/>
          <note pos="144" vol="100" key="40" len="12" pan="0"/>
          <note pos="168" vol="136" key="41" len="24" pan="0"/>
          <note pos="192" vol="100" key="40" len="24" pan="0"/>
          <note pos="228" vol="100" key="40" len="24" pan="0"/>
          <note pos="264" vol="100" key="40" len="24" pan="0"/>
          <note pos="300" vol="100" key="40" len="24" pan="0"/>
          <note pos="336" vol="100" key="40" len="12" pan="0"/>
          <note pos="360" vol="136" key="41" len="24" pan="0"/>
          <note pos="384" vol="100" key="40" len="24" pan="0"/>
          <note pos="420" vol="100" key="40" len="24" pan="0"/>
          <note pos="456" vol="100" key="40" len="24" pan="0"/>
          <note pos="492" vol="100" key="40" len="24" pan="0"/>
          <note pos="528" vol="100" key="40" len="12" pan="0"/>
          <note pos="552" vol="138" key="41" len="24" pan="0"/>
          <note pos="576" vol="100" key="40" len="24" pan="0"/>
          <note pos="612" vol="100" key="40" len="24" pan="0"/>
          <note pos="648" vol="100" key="40" len="24" pan="0"/>
          <note pos="684" vol="100" key="40" len="24" pan="0"/>
          <note pos="720" vol="100" key="40" len="12" pan="0"/>
          <note pos="744" vol="136" key="41" len="24" pan="0"/>
          <note pos="768" vol="100" key="40" len="24" pan="0"/>
          <note pos="804" vol="100" key="40" len="24" pan="0"/>
          <note pos="840" vol="100" key="40" len="24" pan="0"/>
          <note pos="876" vol="100" key="40" len="24" pan="0"/>
          <note pos="912" vol="100" key="40" len="12" pan="0"/>
          <note pos="936" vol="136" key="41" len="24" pan="0"/>
          <note pos="960" vol="100" key="40" len="24" pan="0"/>
          <note pos="996" vol="100" key="40" len="24" pan="0"/>
          <note pos="1032" vol="100" key="40" len="24" pan="0"/>
          <note pos="1068" vol="100" key="40" len="24" pan="0"/>
          <note pos="1104" vol="100" key="40" len="12" pan="0"/>
          <note pos="1128" vol="136" key="41" len="24" pan="0"/>
          <note pos="1152" vol="100" key="40" len="24" pan="0"/>
          <note pos="1188" vol="100" key="40" len="24" pan="0"/>
          <note pos="1224" vol="100" key="40" len="24" pan="0"/>
          <note pos="1260" vol="100" key="40" len="24" pan="0"/>
          <note pos="1296" vol="100" key="40" len="12" pan="0"/>
          <note pos="1320" vol="138" key="41" len="24" pan="0"/>
          <note pos="1344" vol="100" key="40" len="24" pan="0"/>
          <note pos="1380" vol="100" key="40" len="24" pan="0"/>
          <note pos="1416" vol="100" key="40" len="24" pan="0"/>
          <note pos="1452" vol="100" key="40" len="24" pan="0"/>
          <note pos="1488" vol="100" key="40" len="12" pan="0"/>
          <note pos="1512" vol="136" key="41" len="24" pan="0"/>
        </pattern>
        <pattern type="1" name="" muted="0" pos="19968" steps="16">
          <note pos="0" vol="100" key="40" len="192" pan="0"/>
        </pattern>
      </track>
      <track type="0" solo="0" name="Orchestra Hit" muted="0">
        <instrumenttrack fxch="0" vol="150" pitchrange="1" usemasterpitch="1" basenote="57" pan="0" pitch="0">
          <instrument name="sf2player">
            <sf2player reverbDamping="0.2" chorusNum="0.89999998" reverbLevel="0.89999998" bank="0" chorusDepth="8" src="soundfonts/gzdoom.sf2" reverbOn="0" reverbWidth="0.5" patch="55" reverbRoomSize="0.2" chorusLevel="2" chorusSpeed="0.30000001" gain="1" chorusOn="0"/>
          </instrument>
          <eldata fres="0.5" fcut="14000" ftype="0" fwet="0">
            <elvol lspd_denominator="4" lamt="0" lshp="0" x100="0" lspd="0.1" rel="0.1" dec="0.5" sustain="0.5" lspd_numerator="4" att="0" amt="0" ctlenvamt="0" hold="0.5" lspd_syncmode="0" lpdel="0" latt="0" pdel="0" userwavefile=""/>
            <elcut lspd_denominator="4" lamt="0" lshp="0" x100="0" lspd="0.1" rel="0.1" dec="0.5" sustain="0.5" lspd_numerator="4" att="0" amt="0" ctlenvamt="0" hold="0.5" lspd_syncmode="0" lpdel="0" latt="0" pdel="0" userwavefile=""/>
            <elres lspd_denominator="4" lamt="0" lshp="0" x100="0" lspd="0.1" rel="0.1" dec="0.5" sustain="0.5" lspd_numerator="4" att="0" amt="0" ctlenvamt="0" hold="0.5" lspd_syncmode="0" lpdel="0" latt="0" pdel="0" userwavefile=""/>
          </eldata>
          <chordcreator chord="0" chord-enabled="0" chordrange="1"/>
          <arpeggiator arpmode="0" arptime_numerator="4" arptime="200" arpgate="100" arprange="1" arp="0" arpcycle="0" arpskip="0" arp-enabled="0" arptime_denominator="4" arpmiss="0" arpdir="0" arptime_syncmode="0"/>
          <midiport outputcontroller="0" readable="0" outputchannel="1" inputcontroller="0" fixedoutputvelocity="-1" outputprogram="1" writable="0" fixedoutputnote="-1" basevelocity="63" inputchannel="0" fixedinputvelocity="-1"/>
          <fxchain enabled="0" numofeffects="0"/>
        </instrumenttrack>
        <pattern type="1" name="Orchestra Hit" muted="0" pos="6144" steps="16">
          <note pos="0" vol="100" key="52" len="24" pan="0"/>
          <note pos="36" vol="100" key="52" len="24" pan="0"/>
          <note pos="72" vol="100" key="52" len="24" pan="0"/>
          <note pos="108" vol="100" key="52" len="24" pan="0"/>
          <note pos="144" vol="100" key="52" len="12" pan="0"/>
          <note pos="168" vol="136" key="53" len="24" pan="0"/>
          <note pos="192" vol="100" key="52" len="24" pan="0"/>
          <note pos="228" vol="100" key="52" len="24" pan="0"/>
          <note pos="264" vol="100" key="52" len="24" pan="0"/>
          <note pos="300" vol="100" key="52" len="24" pan="0"/>
          <note pos="336" vol="100" key="52" len="12" pan="0"/>
          <note pos="360" vol="136" key="53" len="24" pan="0"/>
          <note pos="384" vol="100" key="52" len="24" pan="0"/>
          <note pos="420" vol="100" key="52" len="24" pan="0"/>
          <note pos="456" vol="100" key="52" len="24" pan="0"/>
          <note pos="492" vol="100" key="52" len="24" pan="0"/>
          <note pos="528" vol="100" key="52" len="12" pan="0"/>
          <note pos="552" vol="138" key="53" len="24" pan="0"/>
          <note pos="576" vol="100" key="52" len="24" pan="0"/>
          <note pos="612" vol="100" key="52" len="24" pan="0"/>
          <note pos="648" vol="100" key="52" len="24" pan="0"/>
          <note pos="684" vol="100" key="52" len="24" pan="0"/>
          <note pos="720" vol="100" key="53" len="12" pan="0"/>
          <note pos="744" vol="136" key="51" len="24" pan="0"/>
          <note pos="768" vol="100" key="52" len="24" pan="0"/>
          <note pos="804" vol="100" key="52" len="24" pan="0"/>
          <note pos="840" vol="100" key="52" len="24" pan="0"/>
          <note pos="876" vol="100" key="52" len="24" pan="0"/>
          <note pos="912" vol="100" key="52" len="12" pan="0"/>
          <note pos="936" vol="136" key="53" len="24" pan="0"/>
          <note pos="960" vol="100" key="52" len="24" pan="0"/>
          <note pos="996" vol="100" key="52" len="24" pan="0"/>
          <note pos="1032" vol="100" key="52" len="24" pan="0"/>
          <note pos="1068" vol="100" key="52" len="24" pan="0"/>
          <note pos="1104" vol="100" key="52" len="12" pan="0"/>
          <note pos="1128" vol="136" key="53" len="24" pan="0"/>
          <note pos="1152" vol="100" key="52" len="24" pan="0"/>
          <note pos="1188" vol="100" key="52" len="24" pan="0"/>
          <note pos="1224" vol="100" key="52" len="24" pan="0"/>
          <note pos="1260" vol="100" key="52" len="24" pan="0"/>
          <note pos="1296" vol="100" key="52" len="12" pan="0"/>
          <note pos="1320" vol="138" key="53" len="24" pan="0"/>
          <note pos="1344" vol="100" key="52" len="24" pan="0"/>
          <note pos="1380" vol="100" key="52" len="24" pan="0"/>
          <note pos="1416" vol="100" key="52" len="24" pan="0"/>
          <note pos="1452" vol="100" key="52" len="24" pan="0"/>
          <note pos="1488" vol="100" key="52" len="12" pan="0"/>
          <note pos="1512" vol="136" key="53" len="12" pan="0"/>
          <note pos="1524" vol="136" key="53" len="12" pan="0"/>
        </pattern>
      </track>
      <track type="0" solo="0" name="Bass 2" muted="0">
        <instrumenttrack fxch="0" vol="100" pitchrange="1" usemasterpitch="1" basenote="57" pan="0" pitch="0">
          <instrument name="zynaddsubfx">
            <zynaddsubfx filterfreq="64" fmgain="127" forwardmidicc="1" resbandwidth="64" bandwidth="64" portamento="0" filterq="64" modifiedcontrollers="" rescenterfreq="64">
              <ZynAddSubFX-data version-minor="4" ZynAddSubFX-author="Nasca Octavian Paul" version-revision="1" version-major="2">
                <INFORMATION/>
                <BASE_PARAMETERS>
                  <par value="16" name="max_midi_parts"/>
                  <par value="16" name="max_kit_items_per_instrument"/>
                  <par value="4" name="max_system_effects"/>
                  <par value="8" name="max_insertion_effects"/>
                  <par value="3" name="max_instrument_effects"/>
                  <par value="8" name="max_addsynth_voices"/>
                </BASE_PARAMETERS>
                <MASTER>
                  <par value="80" name="volume"/>
                  <par value="64" name="key_shift"/>
                  <par_bool value="yes" name="nrpn_receive"/>
                  <MICROTONAL>
                    <string name="name">12tET</string>
                    <string name="comment">Equal Temperament 12 notes per octave</string>
                    <par_bool value="no" name="invert_up_down"/>
                    <par value="60" name="invert_up_down_center"/>
                    <par_bool value="no" name="enabled"/>
                    <par value="64" name="global_fine_detune"/>
                    <par value="69" name="a_note"/>
                    <par_real value="440.000000" name="a_freq"/>
                  </MICROTONAL>
                  <PART id="0">
                    <par_bool value="yes" name="enabled"/>
                    <par value="96" name="volume"/>
                    <par value="64" name="panning"/>
                    <par value="0" name="min_key"/>
                    <par value="127" name="max_key"/>
                    <par value="64" name="key_shift"/>
                    <par value="0" name="rcv_chn"/>
                    <par value="64" name="velocity_sensing"/>
                    <par value="64" name="velocity_offset"/>
                    <par_bool value="yes" name="note_on"/>
                    <par_bool value="yes" name="poly_mode"/>
                    <par value="0" name="legato_mode"/>
                    <par value="15" name="key_limit"/>
                    <INSTRUMENT>
                      <INFO>
                        <string name="name">Bass 2</string>
                        <string name="author"/>
                        <string name="comments"/>
                        <par value="0" name="type"/>
                      </INFO>
                      <INSTRUMENT_KIT>
                        <par value="0" name="kit_mode"/>
                        <par_bool value="no" name="drum_mode"/>
                        <INSTRUMENT_KIT_ITEM id="0">
                          <par_bool value="yes" name="enabled"/>
                          <string name="name">Bass 2</string>
                          <par_bool value="no" name="muted"/>
                          <par value="0" name="min_key"/>
                          <par value="127" name="max_key"/>
                          <par value="0" name="send_to_instrument_effect"/>
                          <par_bool value="yes" name="add_enabled"/>
                          <ADD_SYNTH_PARAMETERS>
                            <par_bool value="yes" name="stereo"/>
                            <AMPLITUDE_PARAMETERS>
                              <par value="97" name="volume"/>
                              <par value="64" name="panning"/>
                              <par value="114" name="velocity_sensing"/>
                              <par value="0" name="punch_strength"/>
                              <par value="60" name="punch_time"/>
                              <par value="64" name="punch_stretch"/>
                              <par value="72" name="punch_velocity_sensing"/>
                              <par value="0" name="harmonic_randomness_grouping"/>
                              <AMPLITUDE_ENVELOPE>
                                <par_bool value="no" name="free_mode"/>
                                <par value="4" name="env_points"/>
                                <par value="2" name="env_sustain"/>
                                <par value="55" name="env_stretch"/>
                                <par_bool value="yes" name="forced_release"/>
                                <par_bool value="no" name="linear_envelope"/>
                                <par value="1" name="A_dt"/>
                                <par value="75" name="D_dt"/>
                                <par value="51" name="R_dt"/>
                                <par value="64" name="A_val"/>
                                <par value="64" name="D_val"/>
                                <par value="0" name="S_val"/>
                                <par value="64" name="R_val"/>
                              </AMPLITUDE_ENVELOPE>
                              <AMPLITUDE_LFO>
                                <par_real value="0.629921" name="freq"/>
                                <par value="0" name="intensity"/>
                                <par value="64" name="start_phase"/>
                                <par value="0" name="lfo_type"/>
                                <par value="0" name="randomness_amplitude"/>
                                <par value="0" name="randomness_frequency"/>
                                <par value="0" name="delay"/>
                                <par value="64" name="stretch"/>
                                <par_bool value="no" name="continous"/>
                              </AMPLITUDE_LFO>
                            </AMPLITUDE_PARAMETERS>
                            <FREQUENCY_PARAMETERS>
                              <par value="8192" name="detune"/>
                              <par value="0" name="coarse_detune"/>
                              <par value="1" name="detune_type"/>
                              <par value="64" name="bandwidth"/>
                              <FREQUENCY_ENVELOPE>
                                <par_bool value="no" name="free_mode"/>
                                <par value="3" name="env_points"/>
                                <par value="1" name="env_sustain"/>
                                <par value="0" name="env_stretch"/>
                                <par_bool value="no" name="forced_release"/>
                                <par_bool value="no" name="linear_envelope"/>
                                <par value="50" name="A_dt"/>
                                <par value="10" name="D_dt"/>
                                <par value="60" name="R_dt"/>
                                <par value="64" name="A_val"/>
                                <par value="64" name="D_val"/>
                                <par value="64" name="S_val"/>
                                <par value="64" name="R_val"/>
                              </FREQUENCY_ENVELOPE>
                              <FREQUENCY_LFO>
                                <par_real value="0.551181" name="freq"/>
                                <par value="0" name="intensity"/>
                                <par value="64" name="start_phase"/>
                                <par value="0" name="lfo_type"/>
                                <par value="0" name="randomness_amplitude"/>
                                <par value="0" name="randomness_frequency"/>
                                <par value="0" name="delay"/>
                                <par value="64" name="stretch"/>
                                <par_bool value="no" name="continous"/>
                              </FREQUENCY_LFO>
                            </FREQUENCY_PARAMETERS>
                            <FILTER_PARAMETERS>
                              <par value="27" name="velocity_sensing_amplitude"/>
                              <par value="64" name="velocity_sensing"/>
                              <FILTER>
                                <par value="0" name="category"/>
                                <par value="2" name="type"/>
                                <par value="32" name="freq"/>
                                <par value="35" name="q"/>
                                <par value="0" name="stages"/>
                                <par value="64" name="freq_track"/>
                                <par value="64" name="gain"/>
                              </FILTER>
                              <FILTER_ENVELOPE>
                                <par_bool value="no" name="free_mode"/>
                                <par value="4" name="env_points"/>
                                <par value="2" name="env_sustain"/>
                                <par value="0" name="env_stretch"/>
                                <par_bool value="yes" name="forced_release"/>
                                <par_bool value="no" name="linear_envelope"/>
                                <par value="42" name="A_dt"/>
                                <par value="70" name="D_dt"/>
                                <par value="60" name="R_dt"/>
                                <par value="100" name="A_val"/>
                                <par value="64" name="D_val"/>
                                <par value="64" name="S_val"/>
                                <par value="64" name="R_val"/>
                              </FILTER_ENVELOPE>
                              <FILTER_LFO>
                                <par_real value="0.629921" name="freq"/>
                                <par value="0" name="intensity"/>
                                <par value="64" name="start_phase"/>
                                <par value="0" name="lfo_type"/>
                                <par value="0" name="randomness_amplitude"/>
                                <par value="0" name="randomness_frequency"/>
                                <par value="0" name="delay"/>
                                <par value="64" name="stretch"/>
                                <par_bool value="no" name="continous"/>
                              </FILTER_LFO>
                            </FILTER_PARAMETERS>
                            <RESONANCE>
                              <par_bool value="no" name="enabled"/>
                            </RESONANCE>
                            <VOICE id="0">
                              <par_bool value="yes" name="enabled"/>
                              <par value="0" name="type"/>
                              <par value="1" name="unison_size"/>
                              <par value="60" name="unison_frequency_spread"/>
                              <par value="64" name="unison_stereo_spread"/>
                              <par value="64" name="unison_vibratto"/>
                              <par value="64" name="unison_vibratto_speed"/>
                              <par value="0" name="unison_invert_phase"/>
                              <par value="127" name="unison_phase_randomness"/>
                              <par value="0" name="delay"/>
                              <par_bool value="yes" name="resonance"/>
                              <par value="-1" name="ext_oscil"/>
                              <par value="-1" name="ext_fm_oscil"/>
                              <par value="64" name="oscil_phase"/>
                              <par value="64" name="oscil_fm_phase"/>
                              <par_bool value="no" name="filter_enabled"/>
                              <par_bool value="no" name="filter_bypass"/>
                              <par value="0" name="fm_enabled"/>
                              <OSCIL>
                                <par value="0" name="harmonic_mag_type"/>
                                <par value="11" name="base_function"/>
                                <par value="44" name="base_function_par"/>
                                <par value="0" name="base_function_modulation"/>
                                <par value="64" name="base_function_modulation_par1"/>
                                <par value="64" name="base_function_modulation_par2"/>
                                <par value="32" name="base_function_modulation_par3"/>
                                <par value="0" name="modulation"/>
                                <par value="64" name="modulation_par1"/>
                                <par value="64" name="modulation_par2"/>
                                <par value="32" name="modulation_par3"/>
                                <par value="64" name="wave_shaping"/>
                                <par value="0" name="wave_shaping_function"/>
                                <par value="0" name="filter_type"/>
                                <par value="64" name="filter_par1"/>
                                <par value="64" name="filter_par2"/>
                                <par value="0" name="filter_before_wave_shaping"/>
                                <par value="0" name="spectrum_adjust_type"/>
                                <par value="64" name="spectrum_adjust_par"/>
                                <par value="127" name="rand"/>
                                <par value="0" name="amp_rand_type"/>
                                <par value="64" name="amp_rand_power"/>
                                <par value="0" name="harmonic_shift"/>
                                <par_bool value="no" name="harmonic_shift_first"/>
                                <par value="0" name="adaptive_harmonics"/>
                                <par value="128" name="adaptive_harmonics_base_frequency"/>
                                <par value="100" name="adaptive_harmonics_power"/>
                                <HARMONICS>
                                  <HARMONIC id="1">
                                    <par value="127" name="mag"/>
                                    <par value="64" name="phase"/>
                                  </HARMONIC>
                                  <HARMONIC id="2">
                                    <par value="113" name="mag"/>
                                    <par value="64" name="phase"/>
                                  </HARMONIC>
                                </HARMONICS>
                              </OSCIL>
                              <AMPLITUDE_PARAMETERS>
                                <par value="87" name="panning"/>
                                <par value="100" name="volume"/>
                                <par_bool value="no" name="volume_minus"/>
                                <par value="127" name="velocity_sensing"/>
                                <par_bool value="no" name="amp_envelope_enabled"/>
                                <par_bool value="no" name="amp_lfo_enabled"/>
                              </AMPLITUDE_PARAMETERS>
                              <FREQUENCY_PARAMETERS>
                                <par_bool value="no" name="fixed_freq"/>
                                <par value="0" name="fixed_freq_et"/>
                                <par value="9557" name="detune"/>
                                <par value="0" name="coarse_detune"/>
                                <par value="0" name="detune_type"/>
                                <par_bool value="no" name="freq_envelope_enabled"/>
                                <par_bool value="no" name="freq_lfo_enabled"/>
                              </FREQUENCY_PARAMETERS>
                            </VOICE>
                            <VOICE id="1">
                              <par_bool value="yes" name="enabled"/>
                              <par value="0" name="type"/>
                              <par value="1" name="unison_size"/>
                              <par value="60" name="unison_frequency_spread"/>
                              <par value="64" name="unison_stereo_spread"/>
                              <par value="64" name="unison_vibratto"/>
                              <par value="64" name="unison_vibratto_speed"/>
                              <par value="0" name="unison_invert_phase"/>
                              <par value="127" name="unison_phase_randomness"/>
                              <par value="0" name="delay"/>
                              <par_bool value="yes" name="resonance"/>
                              <par value="0" name="ext_oscil"/>
                              <par value="-1" name="ext_fm_oscil"/>
                              <par value="64" name="oscil_phase"/>
                              <par value="64" name="oscil_fm_phase"/>
                              <par_bool value="no" name="filter_enabled"/>
                              <par_bool value="no" name="filter_bypass"/>
                              <par value="0" name="fm_enabled"/>
                              <OSCIL>
                                <par value="0" name="harmonic_mag_type"/>
                                <par value="0" name="base_function"/>
                                <par value="64" name="base_function_par"/>
                                <par value="0" name="base_function_modulation"/>
                                <par value="64" name="base_function_modulation_par1"/>
                                <par value="64" name="base_function_modulation_par2"/>
                                <par value="32" name="base_function_modulation_par3"/>
                                <par value="0" name="modulation"/>
                                <par value="64" name="modulation_par1"/>
                                <par value="64" name="modulation_par2"/>
                                <par value="32" name="modulation_par3"/>
                                <par value="64" name="wave_shaping"/>
                                <par value="0" name="wave_shaping_function"/>
                                <par value="0" name="filter_type"/>
                                <par value="64" name="filter_par1"/>
                                <par value="64" name="filter_par2"/>
                                <par value="0" name="filter_before_wave_shaping"/>
                                <par value="0" name="spectrum_adjust_type"/>
                                <par value="64" name="spectrum_adjust_par"/>
                                <par value="64" name="rand"/>
                                <par value="0" name="amp_rand_type"/>
                                <par value="64" name="amp_rand_power"/>
                                <par value="0" name="harmonic_shift"/>
                                <par_bool value="no" name="harmonic_shift_first"/>
                                <par value="0" name="adaptive_harmonics"/>
                                <par value="128" name="adaptive_harmonics_base_frequency"/>
                                <par value="100" name="adaptive_harmonics_power"/>
                                <HARMONICS>
                                  <HARMONIC id="1">
                                    <par value="127" name="mag"/>
                                    <par value="64" name="phase"/>
                                  </HARMONIC>
                                </HARMONICS>
                              </OSCIL>
                              <AMPLITUDE_PARAMETERS>
                                <par value="39" name="panning"/>
                                <par value="100" name="volume"/>
                                <par_bool value="no" name="volume_minus"/>
                                <par value="127" name="velocity_sensing"/>
                                <par_bool value="no" name="amp_envelope_enabled"/>
                                <par_bool value="no" name="amp_lfo_enabled"/>
                              </AMPLITUDE_PARAMETERS>
                              <FREQUENCY_PARAMETERS>
                                <par_bool value="no" name="fixed_freq"/>
                                <par value="0" name="fixed_freq_et"/>
                                <par value="7099" name="detune"/>
                                <par value="0" name="coarse_detune"/>
                                <par value="0" name="detune_type"/>
                                <par_bool value="no" name="freq_envelope_enabled"/>
                                <par_bool value="no" name="freq_lfo_enabled"/>
                              </FREQUENCY_PARAMETERS>
                            </VOICE>
                            <VOICE id="2">
                              <par_bool value="no" name="enabled"/>
                            </VOICE>
                            <VOICE id="3">
                              <par_bool value="no" name="enabled"/>
                            </VOICE>
                            <VOICE id="4">
                              <par_bool value="no" name="enabled"/>
                            </VOICE>
                            <VOICE id="5">
                              <par_bool value="no" name="enabled"/>
                            </VOICE>
                            <VOICE id="6">
                              <par_bool value="no" name="enabled"/>
                            </VOICE>
                            <VOICE id="7">
                              <par_bool value="no" name="enabled"/>
                            </VOICE>
                          </ADD_SYNTH_PARAMETERS>
                          <par_bool value="no" name="sub_enabled"/>
                          <par_bool value="no" name="pad_enabled"/>
                        </INSTRUMENT_KIT_ITEM>
                        <INSTRUMENT_KIT_ITEM id="1">
                          <par_bool value="no" name="enabled"/>
                        </INSTRUMENT_KIT_ITEM>
                        <INSTRUMENT_KIT_ITEM id="2">
                          <par_bool value="no" name="enabled"/>
                        </INSTRUMENT_KIT_ITEM>
                        <INSTRUMENT_KIT_ITEM id="3">
                          <par_bool value="no" name="enabled"/>
                        </INSTRUMENT_KIT_ITEM>
                        <INSTRUMENT_KIT_ITEM id="4">
                          <par_bool value="no" name="enabled"/>
                        </INSTRUMENT_KIT_ITEM>
                        <INSTRUMENT_KIT_ITEM id="5">
                          <par_bool value="no" name="enabled"/>
                        </INSTRUMENT_KIT_ITEM>
                        <INSTRUMENT_KIT_ITEM id="6">
                          <par_bool value="no" name="enabled"/>
                        </INSTRUMENT_KIT_ITEM>
                        <INSTRUMENT_KIT_ITEM id="7">
                          <par_bool value="no" name="enabled"/>
                        </INSTRUMENT_KIT_ITEM>
                        <INSTRUMENT_KIT_ITEM id="8">
                          <par_bool value="no" name="enabled"/>
                        </INSTRUMENT_KIT_ITEM>
                        <INSTRUMENT_KIT_ITEM id="9">
                          <par_bool value="no" name="enabled"/>
                        </INSTRUMENT_KIT_ITEM>
                        <INSTRUMENT_KIT_ITEM id="10">
                          <par_bool value="no" name="enabled"/>
                        </INSTRUMENT_KIT_ITEM>
                        <INSTRUMENT_KIT_ITEM id="11">
                          <par_bool value="no" name="enabled"/>
                        </INSTRUMENT_KIT_ITEM>
                        <INSTRUMENT_KIT_ITEM id="12">
                          <par_bool value="no" name="enabled"/>
                        </INSTRUMENT_KIT_ITEM>
                        <INSTRUMENT_KIT_ITEM id="13">
                          <par_bool value="no" name="enabled"/>
                        </INSTRUMENT_KIT_ITEM>
                        <INSTRUMENT_KIT_ITEM id="14">
                          <par_bool value="no" name="enabled"/>
                        </INSTRUMENT_KIT_ITEM>
                        <INSTRUMENT_KIT_ITEM id="15">
                          <par_bool value="no" name="enabled"/>
                        </INSTRUMENT_KIT_ITEM>
                      </INSTRUMENT_KIT>
                      <INSTRUMENT_EFFECTS>
                        <INSTRUMENT_EFFECT id="0">
                          <EFFECT>
                            <par value="0" name="type"/>
                          </EFFECT>
                          <par value="0" name="route"/>
                          <par_bool value="no" name="bypass"/>
                        </INSTRUMENT_EFFECT>
                        <INSTRUMENT_EFFECT id="1">
                          <EFFECT>
                            <par value="0" name="type"/>
                          </EFFECT>
                          <par value="0" name="route"/>
                          <par_bool value="no" name="bypass"/>
                        </INSTRUMENT_EFFECT>
                        <INSTRUMENT_EFFECT id="2">
                          <EFFECT>
                            <par value="0" name="type"/>
                          </EFFECT>
                          <par value="0" name="route"/>
                          <par_bool value="no" name="bypass"/>
                        </INSTRUMENT_EFFECT>
                      </INSTRUMENT_EFFECTS>
                    </INSTRUMENT>
                    <CONTROLLER>
                      <par value="100" name="pitchwheel_bendrange"/>
                      <par_bool value="yes" name="expression_receive"/>
                      <par value="64" name="panning_depth"/>
                      <par value="64" name="filter_cutoff_depth"/>
                      <par value="64" name="filter_q_depth"/>
                      <par value="64" name="bandwidth_depth"/>
                      <par value="80" name="mod_wheel_depth"/>
                      <par_bool value="no" name="mod_wheel_exponential"/>
                      <par_bool value="yes" name="fm_amp_receive"/>
                      <par_bool value="yes" name="volume_receive"/>
                      <par_bool value="yes" name="sustain_receive"/>
                      <par_bool value="yes" name="portamento_receive"/>
                      <par value="64" name="portamento_time"/>
                      <par value="3" name="portamento_pitchthresh"/>
                      <par value="1" name="portamento_pitchthreshtype"/>
                      <par value="0" name="portamento_portamento"/>
                      <par value="64" name="portamento_updowntimestretch"/>
                      <par value="0" name="portamento_proportional"/>
                      <par value="80" name="portamento_proprate"/>
                      <par value="90" name="portamento_propdepth"/>
                      <par value="64" name="resonance_center_depth"/>
                      <par value="64" name="resonance_bandwidth_depth"/>
                    </CONTROLLER>
                  </PART>
                  <PART id="1">
                    <par_bool value="no" name="enabled"/>
                  </PART>
                  <PART id="2">
                    <par_bool value="no" name="enabled"/>
                  </PART>
                  <PART id="3">
                    <par_bool value="no" name="enabled"/>
                  </PART>
                  <PART id="4">
                    <par_bool value="no" name="enabled"/>
                  </PART>
                  <PART id="5">
                    <par_bool value="no" name="enabled"/>
                  </PART>
                  <PART id="6">
                    <par_bool value="no" name="enabled"/>
                  </PART>
                  <PART id="7">
                    <par_bool value="no" name="enabled"/>
                  </PART>
                  <PART id="8">
                    <par_bool value="no" name="enabled"/>
                  </PART>
                  <PART id="9">
                    <par_bool value="no" name="enabled"/>
                  </PART>
                  <PART id="10">
                    <par_bool value="no" name="enabled"/>
                  </PART>
                  <PART id="11">
                    <par_bool value="no" name="enabled"/>
                  </PART>
                  <PART id="12">
                    <par_bool value="no" name="enabled"/>
                  </PART>
                  <PART id="13">
                    <par_bool value="no" name="enabled"/>
                  </PART>
                  <PART id="14">
                    <par_bool value="no" name="enabled"/>
                  </PART>
                  <PART id="15">
                    <par_bool value="no" name="enabled"/>
                  </PART>
                  <SYSTEM_EFFECTS>
                    <SYSTEM_EFFECT id="0">
                      <EFFECT>
                        <par value="0" name="type"/>
                      </EFFECT>
                      <VOLUME id="0">
                        <par value="0" name="vol"/>
                      </VOLUME>
                      <VOLUME id="1">
                        <par value="0" name="vol"/>
                      </VOLUME>
                      <VOLUME id="2">
                        <par value="0" name="vol"/>
                      </VOLUME>
                      <VOLUME id="3">
                        <par value="0" name="vol"/>
                      </VOLUME>
                      <VOLUME id="4">
                        <par value="0" name="vol"/>
                      </VOLUME>
                      <VOLUME id="5">
                        <par value="0" name="vol"/>
                      </VOLUME>
                      <VOLUME id="6">
                        <par value="0" name="vol"/>
                      </VOLUME>
                      <VOLUME id="7">
                        <par value="0" name="vol"/>
                      </VOLUME>
                      <VOLUME id="8">
                        <par value="0" name="vol"/>
                      </VOLUME>
                      <VOLUME id="9">
                        <par value="0" name="vol"/>
                      </VOLUME>
                      <VOLUME id="10">
                        <par value="0" name="vol"/>
                      </VOLUME>
                      <VOLUME id="11">
                        <par value="0" name="vol"/>
                      </VOLUME>
                      <VOLUME id="12">
                        <par value="0" name="vol"/>
                      </VOLUME>
                      <VOLUME id="13">
                        <par value="0" name="vol"/>
                      </VOLUME>
                      <VOLUME id="14">
                        <par value="0" name="vol"/>
                      </VOLUME>
                      <VOLUME id="15">
                        <par value="0" name="vol"/>
                      </VOLUME>
                      <SENDTO id="1">
                        <par value="0" name="send_vol"/>
                      </SENDTO>
                      <SENDTO id="2">
                        <par value="0" name="send_vol"/>
                      </SENDTO>
                      <SENDTO id="3">
                        <par value="0" name="send_vol"/>
                      </SENDTO>
                    </SYSTEM_EFFECT>
                    <SYSTEM_EFFECT id="1">
                      <EFFECT>
                        <par value="0" name="type"/>
                      </EFFECT>
                      <VOLUME id="0">
                        <par value="0" name="vol"/>
                      </VOLUME>
                      <VOLUME id="1">
                        <par value="0" name="vol"/>
                      </VOLUME>
                      <VOLUME id="2">
                        <par value="0" name="vol"/>
                      </VOLUME>
                      <VOLUME id="3">
                        <par value="0" name="vol"/>
                      </VOLUME>
                      <VOLUME id="4">
                        <par value="0" name="vol"/>
                      </VOLUME>
                      <VOLUME id="5">
                        <par value="0" name="vol"/>
                      </VOLUME>
                      <VOLUME id="6">
                        <par value="0" name="vol"/>
                      </VOLUME>
                      <VOLUME id="7">
                        <par value="0" name="vol"/>
                      </VOLUME>
                      <VOLUME id="8">
                        <par value="0" name="vol"/>
                      </VOLUME>
                      <VOLUME id="9">
                        <par value="0" name="vol"/>
                      </VOLUME>
                      <VOLUME id="10">
                        <par value="0" name="vol"/>
                      </VOLUME>
                      <VOLUME id="11">
                        <par value="0" name="vol"/>
                      </VOLUME>
                      <VOLUME id="12">
                        <par value="0" name="vol"/>
                      </VOLUME>
                      <VOLUME id="13">
                        <par value="0" name="vol"/>
                      </VOLUME>
                      <VOLUME id="14">
                        <par value="0" name="vol"/>
                      </VOLUME>
                      <VOLUME id="15">
                        <par value="0" name="vol"/>
                      </VOLUME>
                      <SENDTO id="2">
                        <par value="0" name="send_vol"/>
                      </SENDTO>
                      <SENDTO id="3">
                        <par value="0" name="send_vol"/>
                      </SENDTO>
                    </SYSTEM_EFFECT>
                    <SYSTEM_EFFECT id="2">
                      <EFFECT>
                        <par value="0" name="type"/>
                      </EFFECT>
                      <VOLUME id="0">
                        <par value="0" name="vol"/>
                      </VOLUME>
                      <VOLUME id="1">
                        <par value="0" name="vol"/>
                      </VOLUME>
                      <VOLUME id="2">
                        <par value="0" name="vol"/>
                      </VOLUME>
                      <VOLUME id="3">
                        <par value="0" name="vol"/>
                      </VOLUME>
                      <VOLUME id="4">
                        <par value="0" name="vol"/>
                      </VOLUME>
                      <VOLUME id="5">
                        <par value="0" name="vol"/>
                      </VOLUME>
                      <VOLUME id="6">
                        <par value="0" name="vol"/>
                      </VOLUME>
                      <VOLUME id="7">
                        <par value="0" name="vol"/>
                      </VOLUME>
                      <VOLUME id="8">
                        <par value="0" name="vol"/>
                      </VOLUME>
                      <VOLUME id="9">
                        <par value="0" name="vol"/>
                      </VOLUME>
                      <VOLUME id="10">
                        <par value="0" name="vol"/>
                      </VOLUME>
                      <VOLUME id="11">
                        <par value="0" name="vol"/>
                      </VOLUME>
                      <VOLUME id="12">
                        <par value="0" name="vol"/>
                      </VOLUME>
                      <VOLUME id="13">
                        <par value="0" name="vol"/>
                      </VOLUME>
                      <VOLUME id="14">
                        <par value="0" name="vol"/>
                      </VOLUME>
                      <VOLUME id="15">
                        <par value="0" name="vol"/>
                      </VOLUME>
                      <SENDTO id="3">
                        <par value="0" name="send_vol"/>
                      </SENDTO>
                    </SYSTEM_EFFECT>
                    <SYSTEM_EFFECT id="3">
                      <EFFECT>
                        <par value="0" name="type"/>
                      </EFFECT>
                      <VOLUME id="0">
                        <par value="0" name="vol"/>
                      </VOLUME>
                      <VOLUME id="1">
                        <par value="0" name="vol"/>
                      </VOLUME>
                      <VOLUME id="2">
                        <par value="0" name="vol"/>
                      </VOLUME>
                      <VOLUME id="3">
                        <par value="0" name="vol"/>
                      </VOLUME>
                      <VOLUME id="4">
                        <par value="0" name="vol"/>
                      </VOLUME>
                      <VOLUME id="5">
                        <par value="0" name="vol"/>
                      </VOLUME>
                      <VOLUME id="6">
                        <par value="0" name="vol"/>
                      </VOLUME>
                      <VOLUME id="7">
                        <par value="0" name="vol"/>
                      </VOLUME>
                      <VOLUME id="8">
                        <par value="0" name="vol"/>
                      </VOLUME>
                      <VOLUME id="9">
                        <par value="0" name="vol"/>
                      </VOLUME>
                      <VOLUME id="10">
                        <par value="0" name="vol"/>
                      </VOLUME>
                      <VOLUME id="11">
                        <par value="0" name="vol"/>
                      </VOLUME>
                      <VOLUME id="12">
                        <par value="0" name="vol"/>
                      </VOLUME>
                      <VOLUME id="13">
                        <par value="0" name="vol"/>
                      </VOLUME>
                      <VOLUME id="14">
                        <par value="0" name="vol"/>
                      </VOLUME>
                      <VOLUME id="15">
                        <par value="0" name="vol"/>
                      </VOLUME>
                    </SYSTEM_EFFECT>
                  </SYSTEM_EFFECTS>
                  <INSERTION_EFFECTS>
                    <INSERTION_EFFECT id="0">
                      <par value="-1" name="part"/>
                      <EFFECT>
                        <par value="0" name="type"/>
                      </EFFECT>
                    </INSERTION_EFFECT>
                    <INSERTION_EFFECT id="1">
                      <par value="-1" name="part"/>
                      <EFFECT>
                        <par value="0" name="type"/>
                      </EFFECT>
                    </INSERTION_EFFECT>
                    <INSERTION_EFFECT id="2">
                      <par value="-1" name="part"/>
                      <EFFECT>
                        <par value="0" name="type"/>
                      </EFFECT>
                    </INSERTION_EFFECT>
                    <INSERTION_EFFECT id="3">
                      <par value="-1" name="part"/>
                      <EFFECT>
                        <par value="0" name="type"/>
                      </EFFECT>
                    </INSERTION_EFFECT>
                    <INSERTION_EFFECT id="4">
                      <par value="-1" name="part"/>
                      <EFFECT>
                        <par value="0" name="type"/>
                      </EFFECT>
                    </INSERTION_EFFECT>
                    <INSERTION_EFFECT id="5">
                      <par value="-1" name="part"/>
                      <EFFECT>
                        <par value="0" name="type"/>
                      </EFFECT>
                    </INSERTION_EFFECT>
                    <INSERTION_EFFECT id="6">
                      <par value="-1" name="part"/>
                      <EFFECT>
                        <par value="0" name="type"/>
                      </EFFECT>
                    </INSERTION_EFFECT>
                    <INSERTION_EFFECT id="7">
                      <par value="-1" name="part"/>
                      <EFFECT>
                        <par value="0" name="type"/>
                      </EFFECT>
                    </INSERTION_EFFECT>
                  </INSERTION_EFFECTS>
                </MASTER>
              </ZynAddSubFX-data>
            </zynaddsubfx>
          </instrument>
          <eldata fres="0.5" fcut="14000" ftype="0" fwet="0">
            <elvol lspd_denominator="4" lamt="0" lshp="0" x100="0" lspd="0.1" rel="0.1" dec="0.5" sustain="0.5" lspd_numerator="4" att="0" amt="0" ctlenvamt="0" hold="0.5" lspd_syncmode="0" lpdel="0" latt="0" pdel="0" userwavefile=""/>
            <elcut lspd_denominator="4" lamt="0" lshp="0" x100="0" lspd="0.1" rel="0.1" dec="0.5" sustain="0.5" lspd_numerator="4" att="0" amt="0" ctlenvamt="0" hold="0.5" lspd_syncmode="0" lpdel="0" latt="0" pdel="0" userwavefile=""/>
            <elres lspd_denominator="4" lamt="0" lshp="0" x100="0" lspd="0.1" rel="0.1" dec="0.5" sustain="0.5" lspd_numerator="4" att="0" amt="0" ctlenvamt="0" hold="0.5" lspd_syncmode="0" lpdel="0" latt="0" pdel="0" userwavefile=""/>
          </eldata>
          <chordcreator chord="0" chord-enabled="0" chordrange="1"/>
          <arpeggiator arpmode="0" arptime_numerator="4" arptime="200" arpgate="100" arprange="1" arp="0" arpcycle="0" arpskip="0" arp-enabled="0" arptime_denominator="4" arpmiss="0" arpdir="0" arptime_syncmode="0"/>
          <midiport outputcontroller="0" readable="0" outputchannel="1" inputcontroller="0" fixedoutputvelocity="-1" outputprogram="1" writable="0" fixedoutputnote="-1" basevelocity="63" inputchannel="0" fixedinputvelocity="-1"/>
          <fxchain enabled="0" numofeffects="0"/>
        </instrumenttrack>
        <pattern type="1" name="Bass 2" muted="0" pos="3072" steps="16">
          <note pos="24" vol="100" key="40" len="24" pan="0"/>
          <note pos="60" vol="100" key="40" len="24" pan="0"/>
          <note pos="96" vol="100" key="40" len="24" pan="0"/>
          <note pos="132" vol="100" key="40" len="24" pan="0"/>
          <note pos="168" vol="100" key="41" len="12" pan="0"/>
          <note pos="216" vol="100" key="40" len="24" pan="0"/>
          <note pos="252" vol="100" key="40" len="24" pan="0"/>
          <note pos="288" vol="100" key="40" len="24" pan="0"/>
          <note pos="324" vol="100" key="40" len="24" pan="0"/>
          <note pos="360" vol="100" key="41" len="12" pan="0"/>
          <note pos="408" vol="100" key="40" len="24" pan="0"/>
          <note pos="444" vol="100" key="40" len="24" pan="0"/>
          <note pos="480" vol="100" key="40" len="24" pan="0"/>
          <note pos="516" vol="100" key="40" len="24" pan="0"/>
          <note pos="552" vol="100" key="41" len="12" pan="0"/>
          <note pos="576" vol="100" key="40" len="24" pan="0"/>
          <note pos="600" vol="100" key="40" len="24" pan="0"/>
          <note pos="636" vol="100" key="40" len="24" pan="0"/>
          <note pos="672" vol="100" key="40" len="24" pan="0"/>
          <note pos="708" vol="100" key="40" len="24" pan="0"/>
          <note pos="732" vol="100" key="40" len="12" pan="0"/>
          <note pos="744" vol="100" key="41" len="24" pan="0"/>
          <note pos="792" vol="100" key="40" len="24" pan="0"/>
          <note pos="828" vol="100" key="40" len="24" pan="0"/>
          <note pos="864" vol="100" key="40" len="24" pan="0"/>
          <note pos="900" vol="100" key="40" len="24" pan="0"/>
          <note pos="936" vol="100" key="41" len="12" pan="0"/>
          <note pos="984" vol="100" key="40" len="24" pan="0"/>
          <note pos="1020" vol="100" key="40" len="24" pan="0"/>
          <note pos="1056" vol="100" key="40" len="24" pan="0"/>
          <note pos="1092" vol="100" key="40" len="24" pan="0"/>
          <note pos="1128" vol="100" key="41" len="12" pan="0"/>
          <note pos="1176" vol="100" key="40" len="24" pan="0"/>
          <note pos="1212" vol="100" key="40" len="24" pan="0"/>
          <note pos="1248" vol="100" key="40" len="24" pan="0"/>
          <note pos="1284" vol="100" key="40" len="24" pan="0"/>
          <note pos="1320" vol="100" key="41" len="12" pan="0"/>
          <note pos="1344" vol="100" key="40" len="24" pan="0"/>
          <note pos="1368" vol="100" key="40" len="24" pan="0"/>
          <note pos="1404" vol="100" key="40" len="24" pan="0"/>
          <note pos="1440" vol="100" key="40" len="24" pan="0"/>
          <note pos="1476" vol="100" key="40" len="24" pan="0"/>
          <note pos="1500" vol="100" key="40" len="12" pan="0"/>
          <note pos="1512" vol="100" key="41" len="24" pan="0"/>
        </pattern>
        <pattern type="1" name="" muted="0" pos="4608" steps="16">
          <note pos="24" vol="100" key="40" len="24" pan="0"/>
          <note pos="60" vol="100" key="40" len="24" pan="0"/>
          <note pos="96" vol="100" key="40" len="24" pan="0"/>
          <note pos="132" vol="100" key="40" len="24" pan="0"/>
          <note pos="168" vol="100" key="41" len="12" pan="0"/>
          <note pos="216" vol="100" key="40" len="24" pan="0"/>
          <note pos="252" vol="100" key="40" len="24" pan="0"/>
          <note pos="288" vol="100" key="40" len="24" pan="0"/>
          <note pos="324" vol="100" key="40" len="24" pan="0"/>
          <note pos="360" vol="100" key="41" len="12" pan="0"/>
          <note pos="408" vol="100" key="40" len="24" pan="0"/>
          <note pos="444" vol="100" key="40" len="24" pan="0"/>
          <note pos="480" vol="100" key="40" len="24" pan="0"/>
          <note pos="516" vol="100" key="40" len="24" pan="0"/>
          <note pos="552" vol="100" key="41" len="12" pan="0"/>
          <note pos="576" vol="100" key="40" len="24" pan="0"/>
          <note pos="600" vol="100" key="40" len="24" pan="0"/>
          <note pos="636" vol="100" key="40" len="24" pan="0"/>
          <note pos="672" vol="100" key="40" len="24" pan="0"/>
          <note pos="708" vol="100" key="40" len="24" pan="0"/>
          <note pos="732" vol="100" key="40" len="12" pan="0"/>
          <note pos="744" vol="100" key="41" len="24" pan="0"/>
          <note pos="792" vol="100" key="40" len="24" pan="0"/>
          <note pos="828" vol="100" key="40" len="24" pan="0"/>
          <note pos="864" vol="100" key="40" len="24" pan="0"/>
          <note pos="900" vol="100" key="40" len="24" pan="0"/>
          <note pos="936" vol="100" key="41" len="12" pan="0"/>
          <note pos="984" vol="100" key="40" len="24" pan="0"/>
          <note pos="1020" vol="100" key="40" len="24" pan="0"/>
          <note pos="1056" vol="100" key="40" len="24" pan="0"/>
          <note pos="1092" vol="100" key="40" len="24" pan="0"/>
          <note pos="1128" vol="100" key="41" len="12" pan="0"/>
          <note pos="1176" vol="100" key="40" len="24" pan="0"/>
          <note pos="1212" vol="100" key="40" len="24" pan="0"/>
          <note pos="1248" vol="100" key="40" len="24" pan="0"/>
          <note pos="1284" vol="100" key="40" len="24" pan="0"/>
          <note pos="1320" vol="100" key="41" len="12" pan="0"/>
          <note pos="1344" vol="100" key="40" len="24" pan="0"/>
          <note pos="1368" vol="100" key="40" len="24" pan="0"/>
          <note pos="1404" vol="100" key="40" len="24" pan="0"/>
          <note pos="1440" vol="100" key="40" len="24" pan="0"/>
          <note pos="1476" vol="100" key="40" len="24" pan="0"/>
          <note pos="1500" vol="100" key="40" len="12" pan="0"/>
          <note pos="1512" vol="100" key="41" len="24" pan="0"/>
        </pattern>
        <pattern type="1" name="" muted="0" pos="6144" steps="16">
          <note pos="24" vol="100" key="40" len="24" pan="0"/>
          <note pos="60" vol="100" key="40" len="24" pan="0"/>
          <note pos="96" vol="100" key="40" len="24" pan="0"/>
          <note pos="132" vol="100" key="40" len="24" pan="0"/>
          <note pos="168" vol="100" key="41" len="12" pan="0"/>
          <note pos="216" vol="100" key="40" len="24" pan="0"/>
          <note pos="252" vol="100" key="40" len="24" pan="0"/>
          <note pos="288" vol="100" key="40" len="24" pan="0"/>
          <note pos="324" vol="100" key="40" len="24" pan="0"/>
          <note pos="360" vol="100" key="41" len="12" pan="0"/>
          <note pos="408" vol="100" key="40" len="24" pan="0"/>
          <note pos="444" vol="100" key="40" len="24" pan="0"/>
          <note pos="480" vol="100" key="40" len="24" pan="0"/>
          <note pos="516" vol="100" key="40" len="24" pan="0"/>
          <note pos="552" vol="100" key="41" len="12" pan="0"/>
          <note pos="576" vol="100" key="40" len="24" pan="0"/>
          <note pos="600" vol="100" key="40" len="24" pan="0"/>
          <note pos="636" vol="100" key="40" len="24" pan="0"/>
          <note pos="672" vol="100" key="40" len="24" pan="0"/>
          <note pos="708" vol="100" key="40" len="24" pan="0"/>
          <note pos="732" vol="100" key="40" len="12" pan="0"/>
          <note pos="744" vol="100" key="41" len="24" pan="0"/>
          <note pos="792" vol="100" key="40" len="24" pan="0"/>
          <note pos="828" vol="100" key="40" len="24" pan="0"/>
          <note pos="864" vol="100" key="40" len="24" pan="0"/>
          <note pos="900" vol="100" key="40" len="24" pan="0"/>
          <note pos="936" vol="100" key="41" len="12" pan="0"/>
          <note pos="984" vol="100" key="40" len="24" pan="0"/>
          <note pos="1020" vol="100" key="40" len="24" pan="0"/>
          <note pos="1056" vol="100" key="40" len="24" pan="0"/>
          <note pos="1092" vol="100" key="40" len="24" pan="0"/>
          <note pos="1128" vol="100" key="41" len="12" pan="0"/>
          <note pos="1176" vol="100" key="40" len="24" pan="0"/>
          <note pos="1212" vol="100" key="40" len="24" pan="0"/>
          <note pos="1248" vol="100" key="40" len="24" pan="0"/>
          <note pos="1284" vol="100" key="40" len="24" pan="0"/>
          <note pos="1320" vol="100" key="41" len="12" pan="0"/>
          <note pos="1344" vol="100" key="40" len="24" pan="0"/>
          <note pos="1368" vol="100" key="40" len="24" pan="0"/>
          <note pos="1404" vol="100" key="40" len="24" pan="0"/>
          <note pos="1440" vol="100" key="40" len="24" pan="0"/>
          <note pos="1476" vol="100" key="40" len="24" pan="0"/>
          <note pos="1500" vol="100" key="40" len="12" pan="0"/>
          <note pos="1512" vol="100" key="41" len="24" pan="0"/>
        </pattern>
        <pattern type="1" name="" muted="0" pos="9216" steps="16">
          <note pos="24" vol="100" key="40" len="24" pan="0"/>
          <note pos="60" vol="100" key="40" len="24" pan="0"/>
          <note pos="96" vol="100" key="40" len="24" pan="0"/>
          <note pos="132" vol="100" key="40" len="24" pan="0"/>
          <note pos="168" vol="100" key="41" len="12" pan="0"/>
          <note pos="216" vol="100" key="40" len="24" pan="0"/>
          <note pos="252" vol="100" key="40" len="24" pan="0"/>
          <note pos="288" vol="100" key="40" len="24" pan="0"/>
          <note pos="324" vol="100" key="40" len="24" pan="0"/>
          <note pos="360" vol="100" key="41" len="12" pan="0"/>
          <note pos="408" vol="100" key="40" len="24" pan="0"/>
          <note pos="444" vol="100" key="40" len="24" pan="0"/>
          <note pos="480" vol="100" key="40" len="24" pan="0"/>
          <note pos="516" vol="100" key="40" len="24" pan="0"/>
          <note pos="552" vol="100" key="41" len="12" pan="0"/>
          <note pos="576" vol="100" key="40" len="24" pan="0"/>
          <note pos="600" vol="100" key="40" len="24" pan="0"/>
          <note pos="636" vol="100" key="40" len="24" pan="0"/>
          <note pos="672" vol="100" key="40" len="24" pan="0"/>
          <note pos="708" vol="100" key="40" len="24" pan="0"/>
          <note pos="732" vol="100" key="40" len="12" pan="0"/>
          <note pos="744" vol="100" key="41" len="24" pan="0"/>
          <note pos="792" vol="100" key="40" len="24" pan="0"/>
          <note pos="828" vol="100" key="40" len="24" pan="0"/>
          <note pos="864" vol="100" key="40" len="24" pan="0"/>
          <note pos="900" vol="100" key="40" len="24" pan="0"/>
          <note pos="936" vol="100" key="41" len="12" pan="0"/>
          <note pos="984" vol="100" key="40" len="24" pan="0"/>
          <note pos="1020" vol="100" key="40" len="24" pan="0"/>
          <note pos="1056" vol="100" key="40" len="24" pan="0"/>
          <note pos="1092" vol="100" key="40" len="24" pan="0"/>
          <note pos="1128" vol="100" key="41" len="12" pan="0"/>
          <note pos="1176" vol="100" key="40" len="24" pan="0"/>
          <note pos="1212" vol="100" key="40" len="24" pan="0"/>
          <note pos="1248" vol="100" key="40" len="24" pan="0"/>
          <note pos="1284" vol="100" key="40" len="24" pan="0"/>
          <note pos="1320" vol="100" key="41" len="12" pan="0"/>
          <note pos="1344" vol="100" key="40" len="24" pan="0"/>
          <note pos="1368" vol="100" key="40" len="24" pan="0"/>
          <note pos="1404" vol="100" key="40" len="24" pan="0"/>
          <note pos="1440" vol="100" key="40" len="24" pan="0"/>
          <note pos="1476" vol="100" key="40" len="24" pan="0"/>
          <note pos="1500" vol="100" key="40" len="12" pan="0"/>
          <note pos="1512" vol="100" key="41" len="24" pan="0"/>
        </pattern>
        <pattern type="1" name="" muted="0" pos="10752" steps="16">
          <note pos="24" vol="100" key="40" len="24" pan="0"/>
          <note pos="60" vol="100" key="40" len="24" pan="0"/>
          <note pos="96" vol="100" key="40" len="24" pan="0"/>
          <note pos="132" vol="100" key="40" len="24" pan="0"/>
          <note pos="168" vol="100" key="41" len="12" pan="0"/>
          <note pos="216" vol="100" key="40" len="24" pan="0"/>
          <note pos="252" vol="100" key="40" len="24" pan="0"/>
          <note pos="288" vol="100" key="40" len="24" pan="0"/>
          <note pos="324" vol="100" key="40" len="24" pan="0"/>
          <note pos="360" vol="100" key="41" len="12" pan="0"/>
          <note pos="408" vol="100" key="40" len="24" pan="0"/>
          <note pos="444" vol="100" key="40" len="24" pan="0"/>
          <note pos="480" vol="100" key="40" len="24" pan="0"/>
          <note pos="516" vol="100" key="40" len="24" pan="0"/>
          <note pos="552" vol="100" key="41" len="12" pan="0"/>
          <note pos="576" vol="100" key="40" len="24" pan="0"/>
          <note pos="600" vol="100" key="40" len="24" pan="0"/>
          <note pos="636" vol="100" key="40" len="24" pan="0"/>
          <note pos="672" vol="100" key="40" len="24" pan="0"/>
          <note pos="708" vol="100" key="40" len="24" pan="0"/>
          <note pos="732" vol="100" key="40" len="12" pan="0"/>
          <note pos="744" vol="100" key="41" len="24" pan="0"/>
          <note pos="792" vol="100" key="40" len="24" pan="0"/>
          <note pos="828" vol="100" key="40" len="24" pan="0"/>
          <note pos="864" vol="100" key="40" len="24" pan="0"/>
          <note pos="900" vol="100" key="40" len="24" pan="0"/>
          <note pos="936" vol="100" key="41" len="12" pan="0"/>
          <note pos="984" vol="100" key="40" len="24" pan="0"/>
          <note pos="1020" vol="100" key="40" len="24" pan="0"/>
          <note pos="1056" vol="100" key="40" len="24" pan="0"/>
          <note pos="1092" vol="100" key="40" len="24" pan="0"/>
          <note pos="1128" vol="100" key="41" len="12" pan="0"/>
          <note pos="1176" vol="100" key="40" len="24" pan="0"/>
          <note pos="1212" vol="100" key="40" len="24" pan="0"/>
          <note pos="1248" vol="100" key="40" len="24" pan="0"/>
          <note pos="1284" vol="100" key="40" len="24" pan="0"/>
          <note pos="1320" vol="100" key="41" len="12" pan="0"/>
          <note pos="1344" vol="100" key="40" len="24" pan="0"/>
          <note pos="1368" vol="100" key="40" len="24" pan="0"/>
          <note pos="1404" vol="100" key="40" len="24" pan="0"/>
          <note pos="1440" vol="100" key="40" len="24" pan="0"/>
          <note pos="1476" vol="100" key="40" len="24" pan="0"/>
          <note pos="1500" vol="100" key="40" len="12" pan="0"/>
          <note pos="1512" vol="100" key="41" len="24" pan="0"/>
        </pattern>
        <pattern type="1" name="" muted="0" pos="12288" steps="16">
          <note pos="24" vol="100" key="40" len="24" pan="0"/>
          <note pos="60" vol="100" key="40" len="24" pan="0"/>
          <note pos="96" vol="100" key="40" len="24" pan="0"/>
          <note pos="132" vol="100" key="40" len="24" pan="0"/>
          <note pos="168" vol="100" key="41" len="12" pan="0"/>
          <note pos="216" vol="100" key="40" len="24" pan="0"/>
          <note pos="252" vol="100" key="40" len="24" pan="0"/>
          <note pos="288" vol="100" key="40" len="24" pan="0"/>
          <note pos="324" vol="100" key="40" len="24" pan="0"/>
          <note pos="360" vol="100" key="41" len="12" pan="0"/>
          <note pos="408" vol="100" key="40" len="24" pan="0"/>
          <note pos="444" vol="100" key="40" len="24" pan="0"/>
          <note pos="480" vol="100" key="40" len="24" pan="0"/>
          <note pos="516" vol="100" key="40" len="24" pan="0"/>
          <note pos="552" vol="100" key="41" len="12" pan="0"/>
          <note pos="576" vol="100" key="40" len="24" pan="0"/>
          <note pos="600" vol="100" key="40" len="24" pan="0"/>
          <note pos="636" vol="100" key="40" len="24" pan="0"/>
          <note pos="672" vol="100" key="40" len="24" pan="0"/>
          <note pos="708" vol="100" key="40" len="24" pan="0"/>
          <note pos="732" vol="100" key="40" len="12" pan="0"/>
          <note pos="744" vol="100" key="41" len="24" pan="0"/>
          <note pos="792" vol="100" key="40" len="24" pan="0"/>
          <note pos="828" vol="100" key="40" len="24" pan="0"/>
          <note pos="864" vol="100" key="40" len="24" pan="0"/>
          <note pos="900" vol="100" key="40" len="24" pan="0"/>
          <note pos="936" vol="100" key="41" len="12" pan="0"/>
          <note pos="984" vol="100" key="40" len="24" pan="0"/>
          <note pos="1020" vol="100" key="40" len="24" pan="0"/>
          <note pos="1056" vol="100" key="40" len="24" pan="0"/>
          <note pos="1092" vol="100" key="40" len="24" pan="0"/>
          <note pos="1128" vol="100" key="41" len="12" pan="0"/>
          <note pos="1176" vol="100" key="40" len="24" pan="0"/>
          <note pos="1212" vol="100" key="40" len="24" pan="0"/>
          <note pos="1248" vol="100" key="40" len="24" pan="0"/>
          <note pos="1284" vol="100" key="40" len="24" pan="0"/>
          <note pos="1320" vol="100" key="41" len="12" pan="0"/>
          <note pos="1344" vol="100" key="40" len="24" pan="0"/>
          <note pos="1368" vol="100" key="40" len="24" pan="0"/>
          <note pos="1404" vol="100" key="40" len="24" pan="0"/>
          <note pos="1440" vol="100" key="40" len="24" pan="0"/>
          <note pos="1476" vol="100" key="40" len="24" pan="0"/>
          <note pos="1500" vol="100" key="40" len="12" pan="0"/>
          <note pos="1512" vol="100" key="41" len="24" pan="0"/>
        </pattern>
        <pattern type="1" name="" muted="0" pos="13824" steps="16">
          <note pos="24" vol="100" key="40" len="24" pan="0"/>
          <note pos="60" vol="100" key="40" len="24" pan="0"/>
          <note pos="96" vol="100" key="40" len="24" pan="0"/>
          <note pos="132" vol="100" key="40" len="24" pan="0"/>
          <note pos="168" vol="100" key="41" len="12" pan="0"/>
          <note pos="216" vol="100" key="40" len="24" pan="0"/>
          <note pos="252" vol="100" key="40" len="24" pan="0"/>
          <note pos="288" vol="100" key="40" len="24" pan="0"/>
          <note pos="324" vol="100" key="40" len="24" pan="0"/>
          <note pos="360" vol="100" key="41" len="12" pan="0"/>
          <note pos="408" vol="100" key="40" len="24" pan="0"/>
          <note pos="444" vol="100" key="40" len="24" pan="0"/>
          <note pos="480" vol="100" key="40" len="24" pan="0"/>
          <note pos="516" vol="100" key="40" len="24" pan="0"/>
          <note pos="552" vol="100" key="41" len="12" pan="0"/>
          <note pos="576" vol="100" key="40" len="24" pan="0"/>
          <note pos="600" vol="100" key="40" len="24" pan="0"/>
          <note pos="636" vol="100" key="40" len="24" pan="0"/>
          <note pos="672" vol="100" key="40" len="24" pan="0"/>
          <note pos="708" vol="100" key="40" len="24" pan="0"/>
          <note pos="732" vol="100" key="40" len="12" pan="0"/>
          <note pos="744" vol="100" key="41" len="24" pan="0"/>
          <note pos="792" vol="100" key="40" len="24" pan="0"/>
          <note pos="828" vol="100" key="40" len="24" pan="0"/>
          <note pos="864" vol="100" key="40" len="24" pan="0"/>
          <note pos="900" vol="100" key="40" len="24" pan="0"/>
          <note pos="936" vol="100" key="41" len="12" pan="0"/>
          <note pos="984" vol="100" key="40" len="24" pan="0"/>
          <note pos="1020" vol="100" key="40" len="24" pan="0"/>
          <note pos="1056" vol="100" key="40" len="24" pan="0"/>
          <note pos="1092" vol="100" key="40" len="24" pan="0"/>
          <note pos="1128" vol="100" key="41" len="12" pan="0"/>
          <note pos="1176" vol="100" key="40" len="24" pan="0"/>
          <note pos="1212" vol="100" key="40" len="24" pan="0"/>
          <note pos="1248" vol="100" key="40" len="24" pan="0"/>
          <note pos="1284" vol="100" key="40" len="24" pan="0"/>
          <note pos="1320" vol="100" key="41" len="12" pan="0"/>
          <note pos="1344" vol="100" key="40" len="24" pan="0"/>
          <note pos="1368" vol="100" key="40" len="24" pan="0"/>
          <note pos="1404" vol="100" key="40" len="24" pan="0"/>
          <note pos="1440" vol="100" key="40" len="24" pan="0"/>
          <note pos="1476" vol="100" key="40" len="24" pan="0"/>
          <note pos="1500" vol="100" key="40" len="12" pan="0"/>
          <note pos="1512" vol="100" key="41" len="24" pan="0"/>
        </pattern>
        <pattern type="1" name="" muted="0" pos="15360" steps="16">
          <note pos="24" vol="100" key="40" len="24" pan="0"/>
          <note pos="60" vol="100" key="40" len="24" pan="0"/>
          <note pos="96" vol="100" key="40" len="24" pan="0"/>
          <note pos="132" vol="100" key="40" len="24" pan="0"/>
          <note pos="168" vol="100" key="41" len="12" pan="0"/>
          <note pos="216" vol="100" key="40" len="24" pan="0"/>
          <note pos="252" vol="100" key="40" len="24" pan="0"/>
          <note pos="288" vol="100" key="40" len="24" pan="0"/>
          <note pos="324" vol="100" key="40" len="24" pan="0"/>
          <note pos="360" vol="100" key="41" len="12" pan="0"/>
          <note pos="408" vol="100" key="40" len="24" pan="0"/>
          <note pos="444" vol="100" key="40" len="24" pan="0"/>
          <note pos="480" vol="100" key="40" len="24" pan="0"/>
          <note pos="516" vol="100" key="40" len="24" pan="0"/>
          <note pos="552" vol="100" key="41" len="12" pan="0"/>
          <note pos="576" vol="100" key="40" len="24" pan="0"/>
          <note pos="600" vol="100" key="40" len="24" pan="0"/>
          <note pos="636" vol="100" key="40" len="24" pan="0"/>
          <note pos="672" vol="100" key="40" len="24" pan="0"/>
          <note pos="708" vol="100" key="40" len="24" pan="0"/>
          <note pos="732" vol="100" key="40" len="12" pan="0"/>
          <note pos="744" vol="100" key="41" len="24" pan="0"/>
          <note pos="792" vol="100" key="40" len="24" pan="0"/>
          <note pos="828" vol="100" key="40" len="24" pan="0"/>
          <note pos="864" vol="100" key="40" len="24" pan="0"/>
          <note pos="900" vol="100" key="40" len="24" pan="0"/>
          <note pos="936" vol="100" key="41" len="12" pan="0"/>
          <note pos="984" vol="100" key="40" len="24" pan="0"/>
          <note pos="1020" vol="100" key="40" len="24" pan="0"/>
          <note pos="1056" vol="100" key="40" len="24" pan="0"/>
          <note pos="1092" vol="100" key="40" len="24" pan="0"/>
          <note pos="1128" vol="100" key="41" len="12" pan="0"/>
          <note pos="1176" vol="100" key="40" len="24" pan="0"/>
          <note pos="1212" vol="100" key="40" len="24" pan="0"/>
          <note pos="1248" vol="100" key="40" len="24" pan="0"/>
          <note pos="1284" vol="100" key="40" len="24" pan="0"/>
          <note pos="1320" vol="100" key="41" len="12" pan="0"/>
          <note pos="1344" vol="100" key="40" len="24" pan="0"/>
          <note pos="1368" vol="100" key="40" len="24" pan="0"/>
          <note pos="1404" vol="100" key="40" len="24" pan="0"/>
          <note pos="1440" vol="100" key="40" len="24" pan="0"/>
          <note pos="1476" vol="100" key="40" len="24" pan="0"/>
          <note pos="1500" vol="100" key="40" len="12" pan="0"/>
          <note pos="1512" vol="100" key="41" len="24" pan="0"/>
        </pattern>
        <pattern type="1" name="" muted="0" pos="16896" steps="16">
          <note pos="24" vol="100" key="40" len="24" pan="0"/>
          <note pos="60" vol="100" key="40" len="24" pan="0"/>
          <note pos="96" vol="100" key="40" len="24" pan="0"/>
          <note pos="132" vol="100" key="40" len="24" pan="0"/>
          <note pos="168" vol="100" key="41" len="12" pan="0"/>
          <note pos="216" vol="100" key="40" len="24" pan="0"/>
          <note pos="252" vol="100" key="40" len="24" pan="0"/>
          <note pos="288" vol="100" key="40" len="24" pan="0"/>
          <note pos="324" vol="100" key="40" len="24" pan="0"/>
          <note pos="360" vol="100" key="41" len="12" pan="0"/>
          <note pos="408" vol="100" key="40" len="24" pan="0"/>
          <note pos="444" vol="100" key="40" len="24" pan="0"/>
          <note pos="480" vol="100" key="40" len="24" pan="0"/>
          <note pos="516" vol="100" key="40" len="24" pan="0"/>
          <note pos="552" vol="100" key="41" len="12" pan="0"/>
          <note pos="576" vol="100" key="40" len="24" pan="0"/>
          <note pos="600" vol="100" key="40" len="24" pan="0"/>
          <note pos="636" vol="100" key="40" len="24" pan="0"/>
          <note pos="672" vol="100" key="40" len="24" pan="0"/>
          <note pos="708" vol="100" key="40" len="24" pan="0"/>
          <note pos="732" vol="100" key="40" len="12" pan="0"/>
          <note pos="744" vol="100" key="41" len="24" pan="0"/>
          <note pos="792" vol="100" key="40" len="24" pan="0"/>
          <note pos="828" vol="100" key="40" len="24" pan="0"/>
          <note pos="864" vol="100" key="40" len="24" pan="0"/>
          <note pos="900" vol="100" key="40" len="24" pan="0"/>
          <note pos="936" vol="100" key="41" len="12" pan="0"/>
          <note pos="984" vol="100" key="40" len="24" pan="0"/>
          <note pos="1020" vol="100" key="40" len="24" pan="0"/>
          <note pos="1056" vol="100" key="40" len="24" pan="0"/>
          <note pos="1092" vol="100" key="40" len="24" pan="0"/>
          <note pos="1128" vol="100" key="41" len="12" pan="0"/>
          <note pos="1176" vol="100" key="40" len="24" pan="0"/>
          <note pos="1212" vol="100" key="40" len="24" pan="0"/>
          <note pos="1248" vol="100" key="40" len="24" pan="0"/>
          <note pos="1284" vol="100" key="40" len="24" pan="0"/>
          <note pos="1320" vol="100" key="41" len="12" pan="0"/>
          <note pos="1344" vol="100" key="40" len="24" pan="0"/>
          <note pos="1368" vol="100" key="40" len="24" pan="0"/>
          <note pos="1404" vol="100" key="40" len="24" pan="0"/>
          <note pos="1440" vol="100" key="40" len="24" pan="0"/>
          <note pos="1476" vol="100" key="40" len="24" pan="0"/>
          <note pos="1500" vol="100" key="40" len="12" pan="0"/>
          <note pos="1512" vol="100" key="41" len="24" pan="0"/>
        </pattern>
        <pattern type="1" name="" muted="0" pos="18432" steps="16">
          <note pos="24" vol="100" key="40" len="24" pan="0"/>
          <note pos="60" vol="100" key="40" len="24" pan="0"/>
          <note pos="96" vol="100" key="40" len="24" pan="0"/>
          <note pos="132" vol="100" key="40" len="24" pan="0"/>
          <note pos="168" vol="100" key="41" len="12" pan="0"/>
          <note pos="216" vol="100" key="40" len="24" pan="0"/>
          <note pos="252" vol="100" key="40" len="24" pan="0"/>
          <note pos="288" vol="100" key="40" len="24" pan="0"/>
          <note pos="324" vol="100" key="40" len="24" pan="0"/>
          <note pos="360" vol="100" key="41" len="12" pan="0"/>
          <note pos="408" vol="100" key="40" len="24" pan="0"/>
          <note pos="444" vol="100" key="40" len="24" pan="0"/>
          <note pos="480" vol="100" key="40" len="24" pan="0"/>
          <note pos="516" vol="100" key="40" len="24" pan="0"/>
          <note pos="552" vol="100" key="41" len="12" pan="0"/>
          <note pos="576" vol="100" key="40" len="24" pan="0"/>
          <note pos="600" vol="100" key="40" len="24" pan="0"/>
          <note pos="636" vol="100" key="40" len="24" pan="0"/>
          <note pos="672" vol="100" key="40" len="24" pan="0"/>
          <note pos="708" vol="100" key="40" len="24" pan="0"/>
          <note pos="732" vol="100" key="40" len="12" pan="0"/>
          <note pos="744" vol="100" key="41" len="24" pan="0"/>
          <note pos="792" vol="100" key="40" len="24" pan="0"/>
          <note pos="828" vol="100" key="40" len="24" pan="0"/>
          <note pos="864" vol="100" key="40" len="24" pan="0"/>
          <note pos="900" vol="100" key="40" len="24" pan="0"/>
          <note pos="936" vol="100" key="41" len="12" pan="0"/>
          <note pos="984" vol="100" key="40" len="24" pan="0"/>
          <note pos="1020" vol="100" key="40" len="24" pan="0"/>
          <note pos="1056" vol="100" key="40" len="24" pan="0"/>
          <note pos="1092" vol="100" key="40" len="24" pan="0"/>
          <note pos="1128" vol="100" key="41" len="12" pan="0"/>
          <note pos="1176" vol="100" key="40" len="24" pan="0"/>
          <note pos="1212" vol="100" key="40" len="24" pan="0"/>
          <note pos="1248" vol="100" key="40" len="24" pan="0"/>
          <note pos="1284" vol="100" key="40" len="24" pan="0"/>
          <note pos="1320" vol="100" key="41" len="12" pan="0"/>
          <note pos="1344" vol="100" key="40" len="24" pan="0"/>
          <note pos="1368" vol="100" key="40" len="24" pan="0"/>
          <note pos="1404" vol="100" key="40" len="24" pan="0"/>
          <note pos="1440" vol="100" key="40" len="24" pan="0"/>
          <note pos="1476" vol="100" key="40" len="24" pan="0"/>
          <note pos="1500" vol="100" key="40" len="12" pan="0"/>
          <note pos="1512" vol="100" key="41" len="24" pan="0"/>
        </pattern>
        <pattern type="1" name="" muted="0" pos="19968" steps="16">
          <note pos="0" vol="100" key="28" len="192" pan="0"/>
        </pattern>
      </track>
      <track type="0" solo="0" name="Analogue Bass" muted="0">
        <instrumenttrack fxch="0" vol="140" pitchrange="1" usemasterpitch="1" basenote="57" pan="0" pitch="0">
          <instrument name="zynaddsubfx">
            <zynaddsubfx filterfreq="64" fmgain="127" forwardmidicc="1" resbandwidth="64" bandwidth="64" portamento="0" filterq="64" modifiedcontrollers="" rescenterfreq="64">
              <ZynAddSubFX-data version-minor="4" ZynAddSubFX-author="Nasca Octavian Paul" version-revision="1" version-major="2">
                <INFORMATION/>
                <BASE_PARAMETERS>
                  <par value="16" name="max_midi_parts"/>
                  <par value="16" name="max_kit_items_per_instrument"/>
                  <par value="4" name="max_system_effects"/>
                  <par value="8" name="max_insertion_effects"/>
                  <par value="3" name="max_instrument_effects"/>
                  <par value="8" name="max_addsynth_voices"/>
                </BASE_PARAMETERS>
                <MASTER>
                  <par value="80" name="volume"/>
                  <par value="64" name="key_shift"/>
                  <par_bool value="yes" name="nrpn_receive"/>
                  <MICROTONAL>
                    <string name="name">12tET</string>
                    <string name="comment">Equal Temperament 12 notes per octave</string>
                    <par_bool value="no" name="invert_up_down"/>
                    <par value="60" name="invert_up_down_center"/>
                    <par_bool value="no" name="enabled"/>
                    <par value="64" name="global_fine_detune"/>
                    <par value="69" name="a_note"/>
                    <par_real value="440.000000" name="a_freq"/>
                  </MICROTONAL>
                  <PART id="0">
                    <par_bool value="yes" name="enabled"/>
                    <par value="96" name="volume"/>
                    <par value="64" name="panning"/>
                    <par value="0" name="min_key"/>
                    <par value="127" name="max_key"/>
                    <par value="64" name="key_shift"/>
                    <par value="0" name="rcv_chn"/>
                    <par value="64" name="velocity_sensing"/>
                    <par value="64" name="velocity_offset"/>
                    <par_bool value="yes" name="note_on"/>
                    <par_bool value="yes" name="poly_mode"/>
                    <par value="0" name="legato_mode"/>
                    <par value="15" name="key_limit"/>
                    <INSTRUMENT>
                      <INFO>
                        <string name="name">Analogue Bass</string>
                        <string name="author"/>
                        <string name="comments"/>
                        <par value="0" name="type"/>
                      </INFO>
                      <INSTRUMENT_KIT>
                        <par value="0" name="kit_mode"/>
                        <par_bool value="no" name="drum_mode"/>
                        <INSTRUMENT_KIT_ITEM id="0">
                          <par_bool value="yes" name="enabled"/>
                          <string name="name">Analogue Bass</string>
                          <par_bool value="no" name="muted"/>
                          <par value="0" name="min_key"/>
                          <par value="127" name="max_key"/>
                          <par value="0" name="send_to_instrument_effect"/>
                          <par_bool value="yes" name="add_enabled"/>
                          <ADD_SYNTH_PARAMETERS>
                            <par_bool value="yes" name="stereo"/>
                            <AMPLITUDE_PARAMETERS>
                              <par value="80" name="volume"/>
                              <par value="64" name="panning"/>
                              <par value="64" name="velocity_sensing"/>
                              <par value="0" name="punch_strength"/>
                              <par value="60" name="punch_time"/>
                              <par value="64" name="punch_stretch"/>
                              <par value="72" name="punch_velocity_sensing"/>
                              <par value="0" name="harmonic_randomness_grouping"/>
                              <AMPLITUDE_ENVELOPE>
                                <par_bool value="no" name="free_mode"/>
                                <par value="4" name="env_points"/>
                                <par value="2" name="env_sustain"/>
                                <par value="64" name="env_stretch"/>
                                <par_bool value="yes" name="forced_release"/>
                                <par_bool value="no" name="linear_envelope"/>
                                <par value="0" name="A_dt"/>
                                <par value="40" name="D_dt"/>
                                <par value="25" name="R_dt"/>
                                <par value="64" name="A_val"/>
                                <par value="64" name="D_val"/>
                                <par value="127" name="S_val"/>
                                <par value="64" name="R_val"/>
                              </AMPLITUDE_ENVELOPE>
                              <AMPLITUDE_LFO>
                                <par_real value="0.629921" name="freq"/>
                                <par value="0" name="intensity"/>
                                <par value="64" name="start_phase"/>
                                <par value="0" name="lfo_type"/>
                                <par value="0" name="randomness_amplitude"/>
                                <par value="0" name="randomness_frequency"/>
                                <par value="0" name="delay"/>
                                <par value="64" name="stretch"/>
                                <par_bool value="no" name="continous"/>
                              </AMPLITUDE_LFO>
                            </AMPLITUDE_PARAMETERS>
                            <FREQUENCY_PARAMETERS>
                              <par value="8192" name="detune"/>
                              <par value="15360" name="coarse_detune"/>
                              <par value="1" name="detune_type"/>
                              <par value="64" name="bandwidth"/>
                              <FREQUENCY_ENVELOPE>
                                <par_bool value="no" name="free_mode"/>
                                <par value="3" name="env_points"/>
                                <par value="1" name="env_sustain"/>
                                <par value="0" name="env_stretch"/>
                                <par_bool value="no" name="forced_release"/>
                                <par_bool value="no" name="linear_envelope"/>
                                <par value="50" name="A_dt"/>
                                <par value="10" name="D_dt"/>
                                <par value="60" name="R_dt"/>
                                <par value="64" name="A_val"/>
                                <par value="64" name="D_val"/>
                                <par value="64" name="S_val"/>
                                <par value="64" name="R_val"/>
                              </FREQUENCY_ENVELOPE>
                              <FREQUENCY_LFO>
                                <par_real value="0.551181" name="freq"/>
                                <par value="30" name="intensity"/>
                                <par value="64" name="start_phase"/>
                                <par value="0" name="lfo_type"/>
                                <par value="0" name="randomness_amplitude"/>
                                <par value="0" name="randomness_frequency"/>
                                <par value="0" name="delay"/>
                                <par value="64" name="stretch"/>
                                <par_bool value="no" name="continous"/>
                              </FREQUENCY_LFO>
                            </FREQUENCY_PARAMETERS>
                            <FILTER_PARAMETERS>
                              <par value="64" name="velocity_sensing_amplitude"/>
                              <par value="64" name="velocity_sensing"/>
                              <FILTER>
                                <par value="0" name="category"/>
                                <par value="2" name="type"/>
                                <par value="43" name="freq"/>
                                <par value="58" name="q"/>
                                <par value="2" name="stages"/>
                                <par value="90" name="freq_track"/>
                                <par value="64" name="gain"/>
                              </FILTER>
                              <FILTER_ENVELOPE>
                                <par_bool value="no" name="free_mode"/>
                                <par value="4" name="env_points"/>
                                <par value="2" name="env_sustain"/>
                                <par value="0" name="env_stretch"/>
                                <par_bool value="yes" name="forced_release"/>
                                <par_bool value="no" name="linear_envelope"/>
                                <par value="50" name="A_dt"/>
                                <par value="64" name="D_dt"/>
                                <par value="60" name="R_dt"/>
                                <par value="98" name="A_val"/>
                                <par value="77" name="D_val"/>
                                <par value="64" name="S_val"/>
                                <par value="64" name="R_val"/>
                              </FILTER_ENVELOPE>
                              <FILTER_LFO>
                                <par_real value="0.629921" name="freq"/>
                                <par value="0" name="intensity"/>
                                <par value="64" name="start_phase"/>
                                <par value="0" name="lfo_type"/>
                                <par value="0" name="randomness_amplitude"/>
                                <par value="0" name="randomness_frequency"/>
                                <par value="0" name="delay"/>
                                <par value="64" name="stretch"/>
                                <par_bool value="no" name="continous"/>
                              </FILTER_LFO>
                            </FILTER_PARAMETERS>
                            <RESONANCE>
                              <par_bool value="no" name="enabled"/>
                            </RESONANCE>
                            <VOICE id="0">
                              <par_bool value="yes" name="enabled"/>
                              <par value="0" name="type"/>
                              <par value="1" name="unison_size"/>
                              <par value="60" name="unison_frequency_spread"/>
                              <par value="64" name="unison_stereo_spread"/>
                              <par value="64" name="unison_vibratto"/>
                              <par value="64" name="unison_vibratto_speed"/>
                              <par value="0" name="unison_invert_phase"/>
                              <par value="127" name="unison_phase_randomness"/>
                              <par value="0" name="delay"/>
                              <par_bool value="yes" name="resonance"/>
                              <par value="-1" name="ext_oscil"/>
                              <par value="-1" name="ext_fm_oscil"/>
                              <par value="64" name="oscil_phase"/>
                              <par value="64" name="oscil_fm_phase"/>
                              <par_bool value="no" name="filter_enabled"/>
                              <par_bool value="no" name="filter_bypass"/>
                              <par value="0" name="fm_enabled"/>
                              <OSCIL>
                                <par value="0" name="harmonic_mag_type"/>
                                <par value="4" name="base_function"/>
                                <par value="75" name="base_function_par"/>
                                <par value="0" name="base_function_modulation"/>
                                <par value="64" name="base_function_modulation_par1"/>
                                <par value="64" name="base_function_modulation_par2"/>
                                <par value="32" name="base_function_modulation_par3"/>
                                <par value="0" name="modulation"/>
                                <par value="64" name="modulation_par1"/>
                                <par value="64" name="modulation_par2"/>
                                <par value="32" name="modulation_par3"/>
                                <par value="64" name="wave_shaping"/>
                                <par value="0" name="wave_shaping_function"/>
                                <par value="0" name="filter_type"/>
                                <par value="64" name="filter_par1"/>
                                <par value="64" name="filter_par2"/>
                                <par value="0" name="filter_before_wave_shaping"/>
                                <par value="0" name="spectrum_adjust_type"/>
                                <par value="64" name="spectrum_adjust_par"/>
                                <par value="27" name="rand"/>
                                <par value="0" name="amp_rand_type"/>
                                <par value="64" name="amp_rand_power"/>
                                <par value="0" name="harmonic_shift"/>
                                <par_bool value="no" name="harmonic_shift_first"/>
                                <par value="0" name="adaptive_harmonics"/>
                                <par value="128" name="adaptive_harmonics_base_frequency"/>
                                <par value="100" name="adaptive_harmonics_power"/>
                                <HARMONICS>
                                  <HARMONIC id="1">
                                    <par value="127" name="mag"/>
                                    <par value="64" name="phase"/>
                                  </HARMONIC>
                                  <HARMONIC id="2">
                                    <par value="127" name="mag"/>
                                    <par value="64" name="phase"/>
                                  </HARMONIC>
                                </HARMONICS>
                              </OSCIL>
                              <AMPLITUDE_PARAMETERS>
                                <par value="32" name="panning"/>
                                <par value="100" name="volume"/>
                                <par_bool value="no" name="volume_minus"/>
                                <par value="127" name="velocity_sensing"/>
                                <par_bool value="no" name="amp_envelope_enabled"/>
                                <par_bool value="no" name="amp_lfo_enabled"/>
                              </AMPLITUDE_PARAMETERS>
                              <FREQUENCY_PARAMETERS>
                                <par_bool value="no" name="fixed_freq"/>
                                <par value="0" name="fixed_freq_et"/>
                                <par value="7267" name="detune"/>
                                <par value="0" name="coarse_detune"/>
                                <par value="0" name="detune_type"/>
                                <par_bool value="no" name="freq_envelope_enabled"/>
                                <par_bool value="no" name="freq_lfo_enabled"/>
                              </FREQUENCY_PARAMETERS>
                            </VOICE>
                            <VOICE id="1">
                              <par_bool value="yes" name="enabled"/>
                              <par value="0" name="type"/>
                              <par value="1" name="unison_size"/>
                              <par value="60" name="unison_frequency_spread"/>
                              <par value="64" name="unison_stereo_spread"/>
                              <par value="64" name="unison_vibratto"/>
                              <par value="64" name="unison_vibratto_speed"/>
                              <par value="0" name="unison_invert_phase"/>
                              <par value="127" name="unison_phase_randomness"/>
                              <par value="0" name="delay"/>
                              <par_bool value="yes" name="resonance"/>
                              <par value="0" name="ext_oscil"/>
                              <par value="-1" name="ext_fm_oscil"/>
                              <par value="64" name="oscil_phase"/>
                              <par value="64" name="oscil_fm_phase"/>
                              <par_bool value="no" name="filter_enabled"/>
                              <par_bool value="no" name="filter_bypass"/>
                              <par value="0" name="fm_enabled"/>
                              <OSCIL>
                                <par value="0" name="harmonic_mag_type"/>
                                <par value="0" name="base_function"/>
                                <par value="64" name="base_function_par"/>
                                <par value="0" name="base_function_modulation"/>
                                <par value="64" name="base_function_modulation_par1"/>
                                <par value="64" name="base_function_modulation_par2"/>
                                <par value="32" name="base_function_modulation_par3"/>
                                <par value="0" name="modulation"/>
                                <par value="64" name="modulation_par1"/>
                                <par value="64" name="modulation_par2"/>
                                <par value="32" name="modulation_par3"/>
                                <par value="64" name="wave_shaping"/>
                                <par value="0" name="wave_shaping_function"/>
                                <par value="0" name="filter_type"/>
                                <par value="64" name="filter_par1"/>
                                <par value="64" name="filter_par2"/>
                                <par value="0" name="filter_before_wave_shaping"/>
                                <par value="0" name="spectrum_adjust_type"/>
                                <par value="64" name="spectrum_adjust_par"/>
                                <par value="64" name="rand"/>
                                <par value="0" name="amp_rand_type"/>
                                <par value="64" name="amp_rand_power"/>
                                <par value="0" name="harmonic_shift"/>
                                <par_bool value="no" name="harmonic_shift_first"/>
                                <par value="0" name="adaptive_harmonics"/>
                                <par value="128" name="adaptive_harmonics_base_frequency"/>
                                <par value="100" name="adaptive_harmonics_power"/>
                                <HARMONICS>
                                  <HARMONIC id="1">
                                    <par value="127" name="mag"/>
                                    <par value="64" name="phase"/>
                                  </HARMONIC>
                                </HARMONICS>
                              </OSCIL>
                              <AMPLITUDE_PARAMETERS>
                                <par value="95" name="panning"/>
                                <par value="100" name="volume"/>
                                <par_bool value="no" name="volume_minus"/>
                                <par value="127" name="velocity_sensing"/>
                                <par_bool value="no" name="amp_envelope_enabled"/>
                                <par_bool value="no" name="amp_lfo_enabled"/>
                              </AMPLITUDE_PARAMETERS>
                              <FREQUENCY_PARAMETERS>
                                <par_bool value="no" name="fixed_freq"/>
                                <par value="0" name="fixed_freq_et"/>
                                <par value="9030" name="detune"/>
                                <par value="0" name="coarse_detune"/>
                                <par value="0" name="detune_type"/>
                                <par_bool value="no" name="freq_envelope_enabled"/>
                                <par_bool value="no" name="freq_lfo_enabled"/>
                              </FREQUENCY_PARAMETERS>
                            </VOICE>
                            <VOICE id="2">
                              <par_bool value="no" name="enabled"/>
                            </VOICE>
                            <VOICE id="3">
                              <par_bool value="no" name="enabled"/>
                            </VOICE>
                            <VOICE id="4">
                              <par_bool value="no" name="enabled"/>
                            </VOICE>
                            <VOICE id="5">
                              <par_bool value="no" name="enabled"/>
                            </VOICE>
                            <VOICE id="6">
                              <par_bool value="no" name="enabled"/>
                            </VOICE>
                            <VOICE id="7">
                              <par_bool value="no" name="enabled"/>
                            </VOICE>
                          </ADD_SYNTH_PARAMETERS>
                          <par_bool value="no" name="sub_enabled"/>
                          <par_bool value="no" name="pad_enabled"/>
                        </INSTRUMENT_KIT_ITEM>
                        <INSTRUMENT_KIT_ITEM id="1">
                          <par_bool value="no" name="enabled"/>
                        </INSTRUMENT_KIT_ITEM>
                        <INSTRUMENT_KIT_ITEM id="2">
                          <par_bool value="no" name="enabled"/>
                        </INSTRUMENT_KIT_ITEM>
                        <INSTRUMENT_KIT_ITEM id="3">
                          <par_bool value="no" name="enabled"/>
                        </INSTRUMENT_KIT_ITEM>
                        <INSTRUMENT_KIT_ITEM id="4">
                          <par_bool value="no" name="enabled"/>
                        </INSTRUMENT_KIT_ITEM>
                        <INSTRUMENT_KIT_ITEM id="5">
                          <par_bool value="no" name="enabled"/>
                        </INSTRUMENT_KIT_ITEM>
                        <INSTRUMENT_KIT_ITEM id="6">
                          <par_bool value="no" name="enabled"/>
                        </INSTRUMENT_KIT_ITEM>
                        <INSTRUMENT_KIT_ITEM id="7">
                          <par_bool value="no" name="enabled"/>
                        </INSTRUMENT_KIT_ITEM>
                        <INSTRUMENT_KIT_ITEM id="8">
                          <par_bool value="no" name="enabled"/>
                        </INSTRUMENT_KIT_ITEM>
                        <INSTRUMENT_KIT_ITEM id="9">
                          <par_bool value="no" name="enabled"/>
                        </INSTRUMENT_KIT_ITEM>
                        <INSTRUMENT_KIT_ITEM id="10">
                          <par_bool value="no" name="enabled"/>
                        </INSTRUMENT_KIT_ITEM>
                        <INSTRUMENT_KIT_ITEM id="11">
                          <par_bool value="no" name="enabled"/>
                        </INSTRUMENT_KIT_ITEM>
                        <INSTRUMENT_KIT_ITEM id="12">
                          <par_bool value="no" name="enabled"/>
                        </INSTRUMENT_KIT_ITEM>
                        <INSTRUMENT_KIT_ITEM id="13">
                          <par_bool value="no" name="enabled"/>
                        </INSTRUMENT_KIT_ITEM>
                        <INSTRUMENT_KIT_ITEM id="14">
                          <par_bool value="no" name="enabled"/>
                        </INSTRUMENT_KIT_ITEM>
                        <INSTRUMENT_KIT_ITEM id="15">
                          <par_bool value="no" name="enabled"/>
                        </INSTRUMENT_KIT_ITEM>
                      </INSTRUMENT_KIT>
                      <INSTRUMENT_EFFECTS>
                        <INSTRUMENT_EFFECT id="0">
                          <EFFECT>
                            <par value="0" name="type"/>
                          </EFFECT>
                          <par value="0" name="route"/>
                          <par_bool value="no" name="bypass"/>
                        </INSTRUMENT_EFFECT>
                        <INSTRUMENT_EFFECT id="1">
                          <EFFECT>
                            <par value="0" name="type"/>
                          </EFFECT>
                          <par value="0" name="route"/>
                          <par_bool value="no" name="bypass"/>
                        </INSTRUMENT_EFFECT>
                        <INSTRUMENT_EFFECT id="2">
                          <EFFECT>
                            <par value="0" name="type"/>
                          </EFFECT>
                          <par value="0" name="route"/>
                          <par_bool value="no" name="bypass"/>
                        </INSTRUMENT_EFFECT>
                      </INSTRUMENT_EFFECTS>
                    </INSTRUMENT>
                    <CONTROLLER>
                      <par value="100" name="pitchwheel_bendrange"/>
                      <par_bool value="yes" name="expression_receive"/>
                      <par value="64" name="panning_depth"/>
                      <par value="64" name="filter_cutoff_depth"/>
                      <par value="64" name="filter_q_depth"/>
                      <par value="64" name="bandwidth_depth"/>
                      <par value="80" name="mod_wheel_depth"/>
                      <par_bool value="no" name="mod_wheel_exponential"/>
                      <par_bool value="yes" name="fm_amp_receive"/>
                      <par_bool value="yes" name="volume_receive"/>
                      <par_bool value="yes" name="sustain_receive"/>
                      <par_bool value="yes" name="portamento_receive"/>
                      <par value="64" name="portamento_time"/>
                      <par value="3" name="portamento_pitchthresh"/>
                      <par value="1" name="portamento_pitchthreshtype"/>
                      <par value="0" name="portamento_portamento"/>
                      <par value="64" name="portamento_updowntimestretch"/>
                      <par value="0" name="portamento_proportional"/>
                      <par value="80" name="portamento_proprate"/>
                      <par value="90" name="portamento_propdepth"/>
                      <par value="64" name="resonance_center_depth"/>
                      <par value="64" name="resonance_bandwidth_depth"/>
                    </CONTROLLER>
                  </PART>
                  <PART id="1">
                    <par_bool value="no" name="enabled"/>
                  </PART>
                  <PART id="2">
                    <par_bool value="no" name="enabled"/>
                  </PART>
                  <PART id="3">
                    <par_bool value="no" name="enabled"/>
                  </PART>
                  <PART id="4">
                    <par_bool value="no" name="enabled"/>
                  </PART>
                  <PART id="5">
                    <par_bool value="no" name="enabled"/>
                  </PART>
                  <PART id="6">
                    <par_bool value="no" name="enabled"/>
                  </PART>
                  <PART id="7">
                    <par_bool value="no" name="enabled"/>
                  </PART>
                  <PART id="8">
                    <par_bool value="no" name="enabled"/>
                  </PART>
                  <PART id="9">
                    <par_bool value="no" name="enabled"/>
                  </PART>
                  <PART id="10">
                    <par_bool value="no" name="enabled"/>
                  </PART>
                  <PART id="11">
                    <par_bool value="no" name="enabled"/>
                  </PART>
                  <PART id="12">
                    <par_bool value="no" name="enabled"/>
                  </PART>
                  <PART id="13">
                    <par_bool value="no" name="enabled"/>
                  </PART>
                  <PART id="14">
                    <par_bool value="no" name="enabled"/>
                  </PART>
                  <PART id="15">
                    <par_bool value="no" name="enabled"/>
                  </PART>
                  <SYSTEM_EFFECTS>
                    <SYSTEM_EFFECT id="0">
                      <EFFECT>
                        <par value="0" name="type"/>
                      </EFFECT>
                      <VOLUME id="0">
                        <par value="0" name="vol"/>
                      </VOLUME>
                      <VOLUME id="1">
                        <par value="0" name="vol"/>
                      </VOLUME>
                      <VOLUME id="2">
                        <par value="0" name="vol"/>
                      </VOLUME>
                      <VOLUME id="3">
                        <par value="0" name="vol"/>
                      </VOLUME>
                      <VOLUME id="4">
                        <par value="0" name="vol"/>
                      </VOLUME>
                      <VOLUME id="5">
                        <par value="0" name="vol"/>
                      </VOLUME>
                      <VOLUME id="6">
                        <par value="0" name="vol"/>
                      </VOLUME>
                      <VOLUME id="7">
                        <par value="0" name="vol"/>
                      </VOLUME>
                      <VOLUME id="8">
                        <par value="0" name="vol"/>
                      </VOLUME>
                      <VOLUME id="9">
                        <par value="0" name="vol"/>
                      </VOLUME>
                      <VOLUME id="10">
                        <par value="0" name="vol"/>
                      </VOLUME>
                      <VOLUME id="11">
                        <par value="0" name="vol"/>
                      </VOLUME>
                      <VOLUME id="12">
                        <par value="0" name="vol"/>
                      </VOLUME>
                      <VOLUME id="13">
                        <par value="0" name="vol"/>
                      </VOLUME>
                      <VOLUME id="14">
                        <par value="0" name="vol"/>
                      </VOLUME>
                      <VOLUME id="15">
                        <par value="0" name="vol"/>
                      </VOLUME>
                      <SENDTO id="1">
                        <par value="0" name="send_vol"/>
                      </SENDTO>
                      <SENDTO id="2">
                        <par value="0" name="send_vol"/>
                      </SENDTO>
                      <SENDTO id="3">
                        <par value="0" name="send_vol"/>
                      </SENDTO>
                    </SYSTEM_EFFECT>
                    <SYSTEM_EFFECT id="1">
                      <EFFECT>
                        <par value="0" name="type"/>
                      </EFFECT>
                      <VOLUME id="0">
                        <par value="0" name="vol"/>
                      </VOLUME>
                      <VOLUME id="1">
                        <par value="0" name="vol"/>
                      </VOLUME>
                      <VOLUME id="2">
                        <par value="0" name="vol"/>
                      </VOLUME>
                      <VOLUME id="3">
                        <par value="0" name="vol"/>
                      </VOLUME>
                      <VOLUME id="4">
                        <par value="0" name="vol"/>
                      </VOLUME>
                      <VOLUME id="5">
                        <par value="0" name="vol"/>
                      </VOLUME>
                      <VOLUME id="6">
                        <par value="0" name="vol"/>
                      </VOLUME>
                      <VOLUME id="7">
                        <par value="0" name="vol"/>
                      </VOLUME>
                      <VOLUME id="8">
                        <par value="0" name="vol"/>
                      </VOLUME>
                      <VOLUME id="9">
                        <par value="0" name="vol"/>
                      </VOLUME>
                      <VOLUME id="10">
                        <par value="0" name="vol"/>
                      </VOLUME>
                      <VOLUME id="11">
                        <par value="0" name="vol"/>
                      </VOLUME>
                      <VOLUME id="12">
                        <par value="0" name="vol"/>
                      </VOLUME>
                      <VOLUME id="13">
                        <par value="0" name="vol"/>
                      </VOLUME>
                      <VOLUME id="14">
                        <par value="0" name="vol"/>
                      </VOLUME>
                      <VOLUME id="15">
                        <par value="0" name="vol"/>
                      </VOLUME>
                      <SENDTO id="2">
                        <par value="0" name="send_vol"/>
                      </SENDTO>
                      <SENDTO id="3">
                        <par value="0" name="send_vol"/>
                      </SENDTO>
                    </SYSTEM_EFFECT>
                    <SYSTEM_EFFECT id="2">
                      <EFFECT>
                        <par value="0" name="type"/>
                      </EFFECT>
                      <VOLUME id="0">
                        <par value="0" name="vol"/>
                      </VOLUME>
                      <VOLUME id="1">
                        <par value="0" name="vol"/>
                      </VOLUME>
                      <VOLUME id="2">
                        <par value="0" name="vol"/>
                      </VOLUME>
                      <VOLUME id="3">
                        <par value="0" name="vol"/>
                      </VOLUME>
                      <VOLUME id="4">
                        <par value="0" name="vol"/>
                      </VOLUME>
                      <VOLUME id="5">
                        <par value="0" name="vol"/>
                      </VOLUME>
                      <VOLUME id="6">
                        <par value="0" name="vol"/>
                      </VOLUME>
                      <VOLUME id="7">
                        <par value="0" name="vol"/>
                      </VOLUME>
                      <VOLUME id="8">
                        <par value="0" name="vol"/>
                      </VOLUME>
                      <VOLUME id="9">
                        <par value="0" name="vol"/>
                      </VOLUME>
                      <VOLUME id="10">
                        <par value="0" name="vol"/>
                      </VOLUME>
                      <VOLUME id="11">
                        <par value="0" name="vol"/>
                      </VOLUME>
                      <VOLUME id="12">
                        <par value="0" name="vol"/>
                      </VOLUME>
                      <VOLUME id="13">
                        <par value="0" name="vol"/>
                      </VOLUME>
                      <VOLUME id="14">
                        <par value="0" name="vol"/>
                      </VOLUME>
                      <VOLUME id="15">
                        <par value="0" name="vol"/>
                      </VOLUME>
                      <SENDTO id="3">
                        <par value="0" name="send_vol"/>
                      </SENDTO>
                    </SYSTEM_EFFECT>
                    <SYSTEM_EFFECT id="3">
                      <EFFECT>
                        <par value="0" name="type"/>
                      </EFFECT>
                      <VOLUME id="0">
                        <par value="0" name="vol"/>
                      </VOLUME>
                      <VOLUME id="1">
                        <par value="0" name="vol"/>
                      </VOLUME>
                      <VOLUME id="2">
                        <par value="0" name="vol"/>
                      </VOLUME>
                      <VOLUME id="3">
                        <par value="0" name="vol"/>
                      </VOLUME>
                      <VOLUME id="4">
                        <par value="0" name="vol"/>
                      </VOLUME>
                      <VOLUME id="5">
                        <par value="0" name="vol"/>
                      </VOLUME>
                      <VOLUME id="6">
                        <par value="0" name="vol"/>
                      </VOLUME>
                      <VOLUME id="7">
                        <par value="0" name="vol"/>
                      </VOLUME>
                      <VOLUME id="8">
                        <par value="0" name="vol"/>
                      </VOLUME>
                      <VOLUME id="9">
                        <par value="0" name="vol"/>
                      </VOLUME>
                      <VOLUME id="10">
                        <par value="0" name="vol"/>
                      </VOLUME>
                      <VOLUME id="11">
                        <par value="0" name="vol"/>
                      </VOLUME>
                      <VOLUME id="12">
                        <par value="0" name="vol"/>
                      </VOLUME>
                      <VOLUME id="13">
                        <par value="0" name="vol"/>
                      </VOLUME>
                      <VOLUME id="14">
                        <par value="0" name="vol"/>
                      </VOLUME>
                      <VOLUME id="15">
                        <par value="0" name="vol"/>
                      </VOLUME>
                    </SYSTEM_EFFECT>
                  </SYSTEM_EFFECTS>
                  <INSERTION_EFFECTS>
                    <INSERTION_EFFECT id="0">
                      <par value="-1" name="part"/>
                      <EFFECT>
                        <par value="0" name="type"/>
                      </EFFECT>
                    </INSERTION_EFFECT>
                    <INSERTION_EFFECT id="1">
                      <par value="-1" name="part"/>
                      <EFFECT>
                        <par value="0" name="type"/>
                      </EFFECT>
                    </INSERTION_EFFECT>
                    <INSERTION_EFFECT id="2">
                      <par value="-1" name="part"/>
                      <EFFECT>
                        <par value="0" name="type"/>
                      </EFFECT>
                    </INSERTION_EFFECT>
                    <INSERTION_EFFECT id="3">
                      <par value="-1" name="part"/>
                      <EFFECT>
                        <par value="0" name="type"/>
                      </EFFECT>
                    </INSERTION_EFFECT>
                    <INSERTION_EFFECT id="4">
                      <par value="-1" name="part"/>
                      <EFFECT>
                        <par value="0" name="type"/>
                      </EFFECT>
                    </INSERTION_EFFECT>
                    <INSERTION_EFFECT id="5">
                      <par value="-1" name="part"/>
                      <EFFECT>
                        <par value="0" name="type"/>
                      </EFFECT>
                    </INSERTION_EFFECT>
                    <INSERTION_EFFECT id="6">
                      <par value="-1" name="part"/>
                      <EFFECT>
                        <par value="0" name="type"/>
                      </EFFECT>
                    </INSERTION_EFFECT>
                    <INSERTION_EFFECT id="7">
                      <par value="-1" name="part"/>
                      <EFFECT>
                        <par value="0" name="type"/>
                      </EFFECT>
                    </INSERTION_EFFECT>
                  </INSERTION_EFFECTS>
                </MASTER>
              </ZynAddSubFX-data>
            </zynaddsubfx>
          </instrument>
          <eldata fres="0.5" fcut="14000" ftype="0" fwet="0">
            <elvol lspd_denominator="4" lamt="0" lshp="0" x100="0" lspd="0.1" rel="0.1" dec="0.5" sustain="0.5" lspd_numerator="4" att="0" amt="0" ctlenvamt="0" hold="0.5" lspd_syncmode="0" lpdel="0" latt="0" pdel="0" userwavefile=""/>
            <elcut lspd_denominator="4" lamt="0" lshp="0" x100="0" lspd="0.1" rel="0.1" dec="0.5" sustain="0.5" lspd_numerator="4" att="0" amt="0" ctlenvamt="0" hold="0.5" lspd_syncmode="0" lpdel="0" latt="0" pdel="0" userwavefile=""/>
            <elres lspd_denominator="4" lamt="0" lshp="0" x100="0" lspd="0.1" rel="0.1" dec="0.5" sustain="0.5" lspd_numerator="4" att="0" amt="0" ctlenvamt="0" hold="0.5" lspd_syncmode="0" lpdel="0" latt="0" pdel="0" userwavefile=""/>
          </eldata>
          <chordcreator chord="0" chord-enabled="0" chordrange="1"/>
          <arpeggiator arpmode="0" arptime_numerator="4" arptime="200" arpgate="100" arprange="1" arp="0" arpcycle="0" arpskip="0" arp-enabled="0" arptime_denominator="4" arpmiss="0" arpdir="0" arptime_syncmode="0"/>
          <midiport outputcontroller="0" readable="0" outputchannel="1" inputcontroller="0" fixedoutputvelocity="-1" outputprogram="1" writable="0" fixedoutputnote="-1" basevelocity="63" inputchannel="0" fixedinputvelocity="-1"/>
          <fxchain enabled="0" numofeffects="0"/>
        </instrumenttrack>
        <pattern type="1" name="" muted="0" pos="7680" steps="16">
          <note pos="0" vol="100" key="40" len="24" pan="0"/>
          <note pos="36" vol="100" key="40" len="24" pan="0"/>
          <note pos="72" vol="100" key="40" len="24" pan="0"/>
          <note pos="108" vol="100" key="40" len="24" pan="0"/>
          <note pos="144" vol="100" key="40" len="12" pan="0"/>
          <note pos="168" vol="136" key="41" len="24" pan="0"/>
          <note pos="192" vol="100" key="40" len="24" pan="0"/>
          <note pos="228" vol="100" key="40" len="24" pan="0"/>
          <note pos="264" vol="100" key="40" len="24" pan="0"/>
          <note pos="300" vol="100" key="40" len="24" pan="0"/>
          <note pos="336" vol="100" key="40" len="12" pan="0"/>
          <note pos="360" vol="136" key="41" len="24" pan="0"/>
          <note pos="384" vol="100" key="40" len="24" pan="0"/>
          <note pos="420" vol="100" key="40" len="24" pan="0"/>
          <note pos="456" vol="100" key="40" len="24" pan="0"/>
          <note pos="492" vol="100" key="40" len="24" pan="0"/>
          <note pos="528" vol="100" key="40" len="12" pan="0"/>
          <note pos="552" vol="138" key="41" len="24" pan="0"/>
          <note pos="576" vol="100" key="40" len="24" pan="0"/>
          <note pos="612" vol="100" key="40" len="24" pan="0"/>
          <note pos="648" vol="100" key="40" len="24" pan="0"/>
          <note pos="684" vol="100" key="40" len="24" pan="0"/>
          <note pos="720" vol="100" key="40" len="12" pan="0"/>
          <note pos="744" vol="136" key="41" len="24" pan="0"/>
          <note pos="768" vol="100" key="40" len="24" pan="0"/>
          <note pos="804" vol="100" key="40" len="24" pan="0"/>
          <note pos="840" vol="100" key="40" len="24" pan="0"/>
          <note pos="876" vol="100" key="40" len="24" pan="0"/>
          <note pos="912" vol="100" key="40" len="12" pan="0"/>
          <note pos="936" vol="136" key="41" len="24" pan="0"/>
          <note pos="960" vol="100" key="40" len="24" pan="0"/>
          <note pos="996" vol="100" key="40" len="24" pan="0"/>
          <note pos="1032" vol="100" key="40" len="24" pan="0"/>
          <note pos="1068" vol="100" key="40" len="24" pan="0"/>
          <note pos="1104" vol="100" key="40" len="12" pan="0"/>
          <note pos="1128" vol="136" key="41" len="24" pan="0"/>
          <note pos="1152" vol="100" key="40" len="24" pan="0"/>
          <note pos="1188" vol="100" key="40" len="24" pan="0"/>
          <note pos="1224" vol="100" key="40" len="24" pan="0"/>
          <note pos="1260" vol="100" key="40" len="24" pan="0"/>
          <note pos="1296" vol="100" key="40" len="12" pan="0"/>
          <note pos="1320" vol="138" key="41" len="24" pan="0"/>
          <note pos="1344" vol="100" key="40" len="24" pan="0"/>
          <note pos="1380" vol="100" key="40" len="24" pan="0"/>
          <note pos="1416" vol="100" key="40" len="24" pan="0"/>
          <note pos="1452" vol="100" key="40" len="24" pan="0"/>
          <note pos="1488" vol="100" key="40" len="12" pan="0"/>
          <note pos="1512" vol="136" key="41" len="24" pan="0"/>
        </pattern>
        <pattern type="1" name="" muted="0" pos="9216" steps="16">
          <note pos="0" vol="100" key="40" len="24" pan="0"/>
          <note pos="36" vol="100" key="40" len="24" pan="0"/>
          <note pos="72" vol="100" key="40" len="24" pan="0"/>
          <note pos="108" vol="100" key="40" len="24" pan="0"/>
          <note pos="144" vol="100" key="40" len="12" pan="0"/>
          <note pos="168" vol="136" key="41" len="24" pan="0"/>
          <note pos="192" vol="100" key="40" len="24" pan="0"/>
          <note pos="228" vol="100" key="40" len="24" pan="0"/>
          <note pos="264" vol="100" key="40" len="24" pan="0"/>
          <note pos="300" vol="100" key="40" len="24" pan="0"/>
          <note pos="336" vol="100" key="40" len="12" pan="0"/>
          <note pos="360" vol="136" key="41" len="24" pan="0"/>
          <note pos="384" vol="100" key="40" len="24" pan="0"/>
          <note pos="420" vol="100" key="40" len="24" pan="0"/>
          <note pos="456" vol="100" key="40" len="24" pan="0"/>
          <note pos="492" vol="100" key="40" len="24" pan="0"/>
          <note pos="528" vol="100" key="40" len="12" pan="0"/>
          <note pos="552" vol="138" key="41" len="24" pan="0"/>
          <note pos="576" vol="100" key="40" len="24" pan="0"/>
          <note pos="612" vol="100" key="40" len="24" pan="0"/>
          <note pos="648" vol="100" key="40" len="24" pan="0"/>
          <note pos="684" vol="100" key="40" len="24" pan="0"/>
          <note pos="720" vol="100" key="40" len="12" pan="0"/>
          <note pos="744" vol="136" key="41" len="24" pan="0"/>
          <note pos="768" vol="100" key="40" len="24" pan="0"/>
          <note pos="804" vol="100" key="40" len="24" pan="0"/>
          <note pos="840" vol="100" key="40" len="24" pan="0"/>
          <note pos="876" vol="100" key="40" len="24" pan="0"/>
          <note pos="912" vol="100" key="40" len="12" pan="0"/>
          <note pos="936" vol="136" key="41" len="24" pan="0"/>
          <note pos="960" vol="100" key="40" len="24" pan="0"/>
          <note pos="996" vol="100" key="40" len="24" pan="0"/>
          <note pos="1032" vol="100" key="40" len="24" pan="0"/>
          <note pos="1068" vol="100" key="40" len="24" pan="0"/>
          <note pos="1104" vol="100" key="40" len="12" pan="0"/>
          <note pos="1128" vol="136" key="41" len="24" pan="0"/>
          <note pos="1152" vol="100" key="40" len="24" pan="0"/>
          <note pos="1188" vol="100" key="40" len="24" pan="0"/>
          <note pos="1224" vol="100" key="40" len="24" pan="0"/>
          <note pos="1260" vol="100" key="40" len="24" pan="0"/>
          <note pos="1296" vol="100" key="40" len="12" pan="0"/>
          <note pos="1320" vol="138" key="41" len="24" pan="0"/>
          <note pos="1344" vol="100" key="40" len="24" pan="0"/>
          <note pos="1380" vol="100" key="40" len="24" pan="0"/>
          <note pos="1416" vol="100" key="40" len="24" pan="0"/>
          <note pos="1452" vol="100" key="40" len="24" pan="0"/>
          <note pos="1488" vol="100" key="40" len="12" pan="0"/>
          <note pos="1512" vol="136" key="41" len="24" pan="0"/>
        </pattern>
        <pattern type="1" name="" muted="0" pos="10752" steps="16">
          <note pos="0" vol="100" key="40" len="24" pan="0"/>
          <note pos="36" vol="100" key="40" len="24" pan="0"/>
          <note pos="72" vol="100" key="40" len="24" pan="0"/>
          <note pos="108" vol="100" key="40" len="24" pan="0"/>
          <note pos="144" vol="100" key="40" len="12" pan="0"/>
          <note pos="168" vol="136" key="41" len="24" pan="0"/>
          <note pos="192" vol="100" key="40" len="24" pan="0"/>
          <note pos="228" vol="100" key="40" len="24" pan="0"/>
          <note pos="264" vol="100" key="40" len="24" pan="0"/>
          <note pos="300" vol="100" key="40" len="24" pan="0"/>
          <note pos="336" vol="100" key="40" len="12" pan="0"/>
          <note pos="360" vol="136" key="41" len="24" pan="0"/>
          <note pos="384" vol="100" key="40" len="24" pan="0"/>
          <note pos="420" vol="100" key="40" len="24" pan="0"/>
          <note pos="456" vol="100" key="40" len="24" pan="0"/>
          <note pos="492" vol="100" key="40" len="24" pan="0"/>
          <note pos="528" vol="100" key="40" len="12" pan="0"/>
          <note pos="552" vol="138" key="41" len="24" pan="0"/>
          <note pos="576" vol="100" key="40" len="24" pan="0"/>
          <note pos="612" vol="100" key="40" len="24" pan="0"/>
          <note pos="648" vol="100" key="40" len="24" pan="0"/>
          <note pos="684" vol="100" key="40" len="24" pan="0"/>
          <note pos="720" vol="100" key="40" len="12" pan="0"/>
          <note pos="744" vol="136" key="41" len="24" pan="0"/>
          <note pos="768" vol="100" key="40" len="24" pan="0"/>
          <note pos="804" vol="100" key="40" len="24" pan="0"/>
          <note pos="840" vol="100" key="40" len="24" pan="0"/>
          <note pos="876" vol="100" key="40" len="24" pan="0"/>
          <note pos="912" vol="100" key="40" len="12" pan="0"/>
          <note pos="936" vol="136" key="41" len="24" pan="0"/>
          <note pos="960" vol="100" key="40" len="24" pan="0"/>
          <note pos="996" vol="100" key="40" len="24" pan="0"/>
          <note pos="1032" vol="100" key="40" len="24" pan="0"/>
          <note pos="1068" vol="100" key="40" len="24" pan="0"/>
          <note pos="1104" vol="100" key="40" len="12" pan="0"/>
          <note pos="1128" vol="136" key="41" len="24" pan="0"/>
          <note pos="1152" vol="100" key="40" len="24" pan="0"/>
          <note pos="1188" vol="100" key="40" len="24" pan="0"/>
          <note pos="1224" vol="100" key="40" len="24" pan="0"/>
          <note pos="1260" vol="100" key="40" len="24" pan="0"/>
          <note pos="1296" vol="100" key="40" len="12" pan="0"/>
          <note pos="1320" vol="138" key="41" len="24" pan="0"/>
          <note pos="1344" vol="100" key="40" len="24" pan="0"/>
          <note pos="1380" vol="100" key="40" len="24" pan="0"/>
          <note pos="1416" vol="100" key="40" len="24" pan="0"/>
          <note pos="1452" vol="100" key="40" len="24" pan="0"/>
          <note pos="1488" vol="100" key="40" len="12" pan="0"/>
          <note pos="1512" vol="136" key="41" len="24" pan="0"/>
        </pattern>
        <pattern type="1" name="" muted="0" pos="12288" steps="16">
          <note pos="0" vol="100" key="40" len="24" pan="0"/>
          <note pos="36" vol="100" key="40" len="24" pan="0"/>
          <note pos="72" vol="100" key="40" len="24" pan="0"/>
          <note pos="108" vol="100" key="40" len="24" pan="0"/>
          <note pos="144" vol="100" key="40" len="12" pan="0"/>
          <note pos="168" vol="136" key="41" len="24" pan="0"/>
          <note pos="192" vol="100" key="40" len="24" pan="0"/>
          <note pos="228" vol="100" key="40" len="24" pan="0"/>
          <note pos="264" vol="100" key="40" len="24" pan="0"/>
          <note pos="300" vol="100" key="40" len="24" pan="0"/>
          <note pos="336" vol="100" key="40" len="12" pan="0"/>
          <note pos="360" vol="136" key="41" len="24" pan="0"/>
          <note pos="384" vol="100" key="40" len="24" pan="0"/>
          <note pos="420" vol="100" key="40" len="24" pan="0"/>
          <note pos="456" vol="100" key="40" len="24" pan="0"/>
          <note pos="492" vol="100" key="40" len="24" pan="0"/>
          <note pos="528" vol="100" key="40" len="12" pan="0"/>
          <note pos="552" vol="138" key="41" len="24" pan="0"/>
          <note pos="576" vol="100" key="40" len="24" pan="0"/>
          <note pos="612" vol="100" key="40" len="24" pan="0"/>
          <note pos="648" vol="100" key="40" len="24" pan="0"/>
          <note pos="684" vol="100" key="40" len="24" pan="0"/>
          <note pos="720" vol="100" key="40" len="12" pan="0"/>
          <note pos="744" vol="136" key="41" len="24" pan="0"/>
          <note pos="768" vol="100" key="40" len="24" pan="0"/>
          <note pos="804" vol="100" key="40" len="24" pan="0"/>
          <note pos="840" vol="100" key="40" len="24" pan="0"/>
          <note pos="876" vol="100" key="40" len="24" pan="0"/>
          <note pos="912" vol="100" key="40" len="12" pan="0"/>
          <note pos="936" vol="136" key="41" len="24" pan="0"/>
          <note pos="960" vol="100" key="40" len="24" pan="0"/>
          <note pos="996" vol="100" key="40" len="24" pan="0"/>
          <note pos="1032" vol="100" key="40" len="24" pan="0"/>
          <note pos="1068" vol="100" key="40" len="24" pan="0"/>
          <note pos="1104" vol="100" key="40" len="12" pan="0"/>
          <note pos="1128" vol="136" key="41" len="24" pan="0"/>
          <note pos="1152" vol="100" key="40" len="24" pan="0"/>
          <note pos="1188" vol="100" key="40" len="24" pan="0"/>
          <note pos="1224" vol="100" key="40" len="24" pan="0"/>
          <note pos="1260" vol="100" key="40" len="24" pan="0"/>
          <note pos="1296" vol="100" key="40" len="12" pan="0"/>
          <note pos="1320" vol="138" key="41" len="24" pan="0"/>
          <note pos="1344" vol="100" key="40" len="24" pan="0"/>
          <note pos="1380" vol="100" key="40" len="24" pan="0"/>
          <note pos="1416" vol="100" key="40" len="24" pan="0"/>
          <note pos="1452" vol="100" key="40" len="24" pan="0"/>
          <note pos="1488" vol="100" key="40" len="12" pan="0"/>
          <note pos="1512" vol="136" key="41" len="24" pan="0"/>
        </pattern>
        <pattern type="1" name="" muted="0" pos="19968" steps="16">
          <note pos="0" vol="100" key="28" len="192" pan="0"/>
        </pattern>
        <pattern type="1" name="" muted="0" pos="18432" steps="16">
          <note pos="0" vol="100" key="40" len="24" pan="0"/>
          <note pos="36" vol="100" key="40" len="24" pan="0"/>
          <note pos="72" vol="100" key="40" len="24" pan="0"/>
          <note pos="108" vol="100" key="40" len="24" pan="0"/>
          <note pos="144" vol="100" key="40" len="12" pan="0"/>
          <note pos="168" vol="136" key="41" len="24" pan="0"/>
          <note pos="192" vol="100" key="40" len="24" pan="0"/>
          <note pos="228" vol="100" key="40" len="24" pan="0"/>
          <note pos="264" vol="100" key="40" len="24" pan="0"/>
          <note pos="300" vol="100" key="40" len="24" pan="0"/>
          <note pos="336" vol="100" key="40" len="12" pan="0"/>
          <note pos="360" vol="136" key="41" len="24" pan="0"/>
          <note pos="384" vol="100" key="40" len="24" pan="0"/>
          <note pos="420" vol="100" key="40" len="24" pan="0"/>
          <note pos="456" vol="100" key="40" len="24" pan="0"/>
          <note pos="492" vol="100" key="40" len="24" pan="0"/>
          <note pos="528" vol="100" key="40" len="12" pan="0"/>
          <note pos="552" vol="138" key="41" len="24" pan="0"/>
          <note pos="576" vol="100" key="40" len="24" pan="0"/>
          <note pos="612" vol="100" key="40" len="24" pan="0"/>
          <note pos="648" vol="100" key="40" len="24" pan="0"/>
          <note pos="684" vol="100" key="40" len="24" pan="0"/>
          <note pos="720" vol="100" key="40" len="12" pan="0"/>
          <note pos="744" vol="136" key="41" len="24" pan="0"/>
          <note pos="768" vol="100" key="40" len="24" pan="0"/>
          <note pos="804" vol="100" key="40" len="24" pan="0"/>
          <note pos="840" vol="100" key="40" len="24" pan="0"/>
          <note pos="876" vol="100" key="40" len="24" pan="0"/>
          <note pos="912" vol="100" key="40" len="12" pan="0"/>
          <note pos="936" vol="136" key="41" len="24" pan="0"/>
          <note pos="960" vol="100" key="40" len="24" pan="0"/>
          <note pos="996" vol="100" key="40" len="24" pan="0"/>
          <note pos="1032" vol="100" key="40" len="24" pan="0"/>
          <note pos="1068" vol="100" key="40" len="24" pan="0"/>
          <note pos="1104" vol="100" key="40" len="12" pan="0"/>
          <note pos="1128" vol="136" key="41" len="24" pan="0"/>
          <note pos="1152" vol="100" key="40" len="24" pan="0"/>
          <note pos="1188" vol="100" key="40" len="24" pan="0"/>
          <note pos="1224" vol="100" key="40" len="24" pan="0"/>
          <note pos="1260" vol="100" key="40" len="24" pan="0"/>
          <note pos="1296" vol="100" key="40" len="12" pan="0"/>
          <note pos="1320" vol="138" key="41" len="24" pan="0"/>
          <note pos="1344" vol="100" key="40" len="24" pan="0"/>
          <note pos="1380" vol="100" key="40" len="24" pan="0"/>
          <note pos="1416" vol="100" key="40" len="24" pan="0"/>
          <note pos="1452" vol="100" key="40" len="24" pan="0"/>
          <note pos="1488" vol="100" key="40" len="12" pan="0"/>
          <note pos="1512" vol="136" key="41" len="24" pan="0"/>
        </pattern>
      </track>
      <track type="0" solo="0" name="Wah Bass" muted="0">
        <instrumenttrack fxch="0" pitchrange="1" usemasterpitch="1" basenote="57" pan="0" pitch="0">
          <vol value="65" id="1669098" scale_type="linear"/>
          <instrument name="zynaddsubfx">
            <zynaddsubfx fmgain="117" forwardmidicc="1" resbandwidth="64" bandwidth="64" portamento="0" filterq="64" modifiedcontrollers="74,76,77," rescenterfreq="85">
              <filterfreq value="115.67838" id="4735138" scale_type="linear"/>
              <ZynAddSubFX-data version-minor="4" ZynAddSubFX-author="Nasca Octavian Paul" version-revision="1" version-major="2">
                <INFORMATION/>
                <BASE_PARAMETERS>
                  <par value="16" name="max_midi_parts"/>
                  <par value="16" name="max_kit_items_per_instrument"/>
                  <par value="4" name="max_system_effects"/>
                  <par value="8" name="max_insertion_effects"/>
                  <par value="3" name="max_instrument_effects"/>
                  <par value="8" name="max_addsynth_voices"/>
                </BASE_PARAMETERS>
                <MASTER>
                  <par value="80" name="volume"/>
                  <par value="64" name="key_shift"/>
                  <par_bool value="yes" name="nrpn_receive"/>
                  <MICROTONAL>
                    <string name="name">12tET</string>
                    <string name="comment">Equal Temperament 12 notes per octave</string>
                    <par_bool value="no" name="invert_up_down"/>
                    <par value="60" name="invert_up_down_center"/>
                    <par_bool value="no" name="enabled"/>
                    <par value="64" name="global_fine_detune"/>
                    <par value="69" name="a_note"/>
                    <par_real value="440.000000" name="a_freq"/>
                  </MICROTONAL>
                  <PART id="0">
                    <par_bool value="yes" name="enabled"/>
                    <par value="96" name="volume"/>
                    <par value="64" name="panning"/>
                    <par value="0" name="min_key"/>
                    <par value="127" name="max_key"/>
                    <par value="64" name="key_shift"/>
                    <par value="0" name="rcv_chn"/>
                    <par value="64" name="velocity_sensing"/>
                    <par value="64" name="velocity_offset"/>
                    <par_bool value="yes" name="note_on"/>
                    <par_bool value="yes" name="poly_mode"/>
                    <par value="0" name="legato_mode"/>
                    <par value="15" name="key_limit"/>
                    <INSTRUMENT>
                      <INFO>
                        <string name="name">Wah Bass</string>
                        <string name="author"/>
                        <string name="comments"/>
                        <par value="0" name="type"/>
                      </INFO>
                      <INSTRUMENT_KIT>
                        <par value="0" name="kit_mode"/>
                        <par_bool value="no" name="drum_mode"/>
                        <INSTRUMENT_KIT_ITEM id="0">
                          <par_bool value="yes" name="enabled"/>
                          <string name="name">Wah Bass</string>
                          <par_bool value="no" name="muted"/>
                          <par value="0" name="min_key"/>
                          <par value="127" name="max_key"/>
                          <par value="0" name="send_to_instrument_effect"/>
                          <par_bool value="yes" name="add_enabled"/>
                          <ADD_SYNTH_PARAMETERS>
                            <par_bool value="yes" name="stereo"/>
                            <AMPLITUDE_PARAMETERS>
                              <par value="79" name="volume"/>
                              <par value="64" name="panning"/>
                              <par value="96" name="velocity_sensing"/>
                              <par value="0" name="punch_strength"/>
                              <par value="60" name="punch_time"/>
                              <par value="64" name="punch_stretch"/>
                              <par value="72" name="punch_velocity_sensing"/>
                              <par value="0" name="harmonic_randomness_grouping"/>
                              <AMPLITUDE_ENVELOPE>
                                <par_bool value="no" name="free_mode"/>
                                <par value="4" name="env_points"/>
                                <par value="2" name="env_sustain"/>
                                <par value="55" name="env_stretch"/>
                                <par_bool value="yes" name="forced_release"/>
                                <par_bool value="no" name="linear_envelope"/>
                                <par value="1" name="A_dt"/>
                                <par value="75" name="D_dt"/>
                                <par value="25" name="R_dt"/>
                                <par value="64" name="A_val"/>
                                <par value="64" name="D_val"/>
                                <par value="122" name="S_val"/>
                                <par value="64" name="R_val"/>
                              </AMPLITUDE_ENVELOPE>
                              <AMPLITUDE_LFO>
                                <par_real value="0.629921" name="freq"/>
                                <par value="0" name="intensity"/>
                                <par value="64" name="start_phase"/>
                                <par value="0" name="lfo_type"/>
                                <par value="0" name="randomness_amplitude"/>
                                <par value="0" name="randomness_frequency"/>
                                <par value="0" name="delay"/>
                                <par value="64" name="stretch"/>
                                <par_bool value="no" name="continous"/>
                              </AMPLITUDE_LFO>
                            </AMPLITUDE_PARAMETERS>
                            <FREQUENCY_PARAMETERS>
                              <par value="8192" name="detune"/>
                              <par value="0" name="coarse_detune"/>
                              <par value="1" name="detune_type"/>
                              <par value="64" name="bandwidth"/>
                              <FREQUENCY_ENVELOPE>
                                <par_bool value="no" name="free_mode"/>
                                <par value="3" name="env_points"/>
                                <par value="1" name="env_sustain"/>
                                <par value="0" name="env_stretch"/>
                                <par_bool value="no" name="forced_release"/>
                                <par_bool value="no" name="linear_envelope"/>
                                <par value="6" name="A_dt"/>
                                <par value="10" name="D_dt"/>
                                <par value="60" name="R_dt"/>
                                <par value="62" name="A_val"/>
                                <par value="64" name="D_val"/>
                                <par value="64" name="S_val"/>
                                <par value="64" name="R_val"/>
                              </FREQUENCY_ENVELOPE>
                              <FREQUENCY_LFO>
                                <par_real value="0.551181" name="freq"/>
                                <par value="0" name="intensity"/>
                                <par value="64" name="start_phase"/>
                                <par value="0" name="lfo_type"/>
                                <par value="0" name="randomness_amplitude"/>
                                <par value="0" name="randomness_frequency"/>
                                <par value="0" name="delay"/>
                                <par value="64" name="stretch"/>
                                <par_bool value="no" name="continous"/>
                              </FREQUENCY_LFO>
                            </FREQUENCY_PARAMETERS>
                            <FILTER_PARAMETERS>
                              <par value="27" name="velocity_sensing_amplitude"/>
                              <par value="64" name="velocity_sensing"/>
                              <FILTER>
                                <par value="0" name="category"/>
                                <par value="2" name="type"/>
                                <par value="44" name="freq"/>
                                <par value="69" name="q"/>
                                <par value="2" name="stages"/>
                                <par value="64" name="freq_track"/>
                                <par value="64" name="gain"/>
                              </FILTER>
                              <FILTER_ENVELOPE>
                                <par_bool value="no" name="free_mode"/>
                                <par value="4" name="env_points"/>
                                <par value="2" name="env_sustain"/>
                                <par value="0" name="env_stretch"/>
                                <par_bool value="yes" name="forced_release"/>
                                <par_bool value="no" name="linear_envelope"/>
                                <par value="38" name="A_dt"/>
                                <par value="60" name="D_dt"/>
                                <par value="60" name="R_dt"/>
                                <par value="50" name="A_val"/>
                                <par value="83" name="D_val"/>
                                <par value="64" name="S_val"/>
                                <par value="64" name="R_val"/>
                              </FILTER_ENVELOPE>
                              <FILTER_LFO>
                                <par_real value="0.629921" name="freq"/>
                                <par value="0" name="intensity"/>
                                <par value="64" name="start_phase"/>
                                <par value="0" name="lfo_type"/>
                                <par value="0" name="randomness_amplitude"/>
                                <par value="0" name="randomness_frequency"/>
                                <par value="0" name="delay"/>
                                <par value="64" name="stretch"/>
                                <par_bool value="no" name="continous"/>
                              </FILTER_LFO>
                            </FILTER_PARAMETERS>
                            <RESONANCE>
                              <par_bool value="no" name="enabled"/>
                            </RESONANCE>
                            <VOICE id="0">
                              <par_bool value="yes" name="enabled"/>
                              <par value="0" name="type"/>
                              <par value="1" name="unison_size"/>
                              <par value="60" name="unison_frequency_spread"/>
                              <par value="64" name="unison_stereo_spread"/>
                              <par value="64" name="unison_vibratto"/>
                              <par value="64" name="unison_vibratto_speed"/>
                              <par value="0" name="unison_invert_phase"/>
                              <par value="127" name="unison_phase_randomness"/>
                              <par value="0" name="delay"/>
                              <par_bool value="yes" name="resonance"/>
                              <par value="-1" name="ext_oscil"/>
                              <par value="-1" name="ext_fm_oscil"/>
                              <par value="64" name="oscil_phase"/>
                              <par value="64" name="oscil_fm_phase"/>
                              <par_bool value="no" name="filter_enabled"/>
                              <par_bool value="no" name="filter_bypass"/>
                              <par value="0" name="fm_enabled"/>
                              <OSCIL>
                                <par value="0" name="harmonic_mag_type"/>
                                <par value="4" name="base_function"/>
                                <par value="64" name="base_function_par"/>
                                <par value="0" name="base_function_modulation"/>
                                <par value="64" name="base_function_modulation_par1"/>
                                <par value="64" name="base_function_modulation_par2"/>
                                <par value="32" name="base_function_modulation_par3"/>
                                <par value="0" name="modulation"/>
                                <par value="64" name="modulation_par1"/>
                                <par value="64" name="modulation_par2"/>
                                <par value="32" name="modulation_par3"/>
                                <par value="64" name="wave_shaping"/>
                                <par value="0" name="wave_shaping_function"/>
                                <par value="0" name="filter_type"/>
                                <par value="64" name="filter_par1"/>
                                <par value="64" name="filter_par2"/>
                                <par value="0" name="filter_before_wave_shaping"/>
                                <par value="0" name="spectrum_adjust_type"/>
                                <par value="64" name="spectrum_adjust_par"/>
                                <par value="127" name="rand"/>
                                <par value="0" name="amp_rand_type"/>
                                <par value="64" name="amp_rand_power"/>
                                <par value="0" name="harmonic_shift"/>
                                <par_bool value="no" name="harmonic_shift_first"/>
                                <par value="0" name="adaptive_harmonics"/>
                                <par value="128" name="adaptive_harmonics_base_frequency"/>
                                <par value="100" name="adaptive_harmonics_power"/>
                                <HARMONICS>
                                  <HARMONIC id="1">
                                    <par value="127" name="mag"/>
                                    <par value="64" name="phase"/>
                                  </HARMONIC>
                                </HARMONICS>
                              </OSCIL>
                              <AMPLITUDE_PARAMETERS>
                                <par value="87" name="panning"/>
                                <par value="100" name="volume"/>
                                <par_bool value="no" name="volume_minus"/>
                                <par value="127" name="velocity_sensing"/>
                                <par_bool value="no" name="amp_envelope_enabled"/>
                                <par_bool value="no" name="amp_lfo_enabled"/>
                              </AMPLITUDE_PARAMETERS>
                              <FREQUENCY_PARAMETERS>
                                <par_bool value="no" name="fixed_freq"/>
                                <par value="0" name="fixed_freq_et"/>
                                <par value="9557" name="detune"/>
                                <par value="0" name="coarse_detune"/>
                                <par value="0" name="detune_type"/>
                                <par_bool value="no" name="freq_envelope_enabled"/>
                                <par_bool value="no" name="freq_lfo_enabled"/>
                              </FREQUENCY_PARAMETERS>
                            </VOICE>
                            <VOICE id="1">
                              <par_bool value="yes" name="enabled"/>
                              <par value="0" name="type"/>
                              <par value="1" name="unison_size"/>
                              <par value="60" name="unison_frequency_spread"/>
                              <par value="64" name="unison_stereo_spread"/>
                              <par value="64" name="unison_vibratto"/>
                              <par value="64" name="unison_vibratto_speed"/>
                              <par value="0" name="unison_invert_phase"/>
                              <par value="127" name="unison_phase_randomness"/>
                              <par value="0" name="delay"/>
                              <par_bool value="yes" name="resonance"/>
                              <par value="0" name="ext_oscil"/>
                              <par value="-1" name="ext_fm_oscil"/>
                              <par value="64" name="oscil_phase"/>
                              <par value="64" name="oscil_fm_phase"/>
                              <par_bool value="no" name="filter_enabled"/>
                              <par_bool value="no" name="filter_bypass"/>
                              <par value="0" name="fm_enabled"/>
                              <OSCIL>
                                <par value="0" name="harmonic_mag_type"/>
                                <par value="0" name="base_function"/>
                                <par value="64" name="base_function_par"/>
                                <par value="0" name="base_function_modulation"/>
                                <par value="64" name="base_function_modulation_par1"/>
                                <par value="64" name="base_function_modulation_par2"/>
                                <par value="32" name="base_function_modulation_par3"/>
                                <par value="0" name="modulation"/>
                                <par value="64" name="modulation_par1"/>
                                <par value="64" name="modulation_par2"/>
                                <par value="32" name="modulation_par3"/>
                                <par value="64" name="wave_shaping"/>
                                <par value="0" name="wave_shaping_function"/>
                                <par value="0" name="filter_type"/>
                                <par value="64" name="filter_par1"/>
                                <par value="64" name="filter_par2"/>
                                <par value="0" name="filter_before_wave_shaping"/>
                                <par value="0" name="spectrum_adjust_type"/>
                                <par value="64" name="spectrum_adjust_par"/>
                                <par value="64" name="rand"/>
                                <par value="0" name="amp_rand_type"/>
                                <par value="64" name="amp_rand_power"/>
                                <par value="0" name="harmonic_shift"/>
                                <par_bool value="no" name="harmonic_shift_first"/>
                                <par value="0" name="adaptive_harmonics"/>
                                <par value="128" name="adaptive_harmonics_base_frequency"/>
                                <par value="100" name="adaptive_harmonics_power"/>
                                <HARMONICS>
                                  <HARMONIC id="1">
                                    <par value="127" name="mag"/>
                                    <par value="64" name="phase"/>
                                  </HARMONIC>
                                </HARMONICS>
                              </OSCIL>
                              <AMPLITUDE_PARAMETERS>
                                <par value="39" name="panning"/>
                                <par value="100" name="volume"/>
                                <par_bool value="no" name="volume_minus"/>
                                <par value="127" name="velocity_sensing"/>
                                <par_bool value="no" name="amp_envelope_enabled"/>
                                <par_bool value="no" name="amp_lfo_enabled"/>
                              </AMPLITUDE_PARAMETERS>
                              <FREQUENCY_PARAMETERS>
                                <par_bool value="no" name="fixed_freq"/>
                                <par value="0" name="fixed_freq_et"/>
                                <par value="7099" name="detune"/>
                                <par value="0" name="coarse_detune"/>
                                <par value="0" name="detune_type"/>
                                <par_bool value="no" name="freq_envelope_enabled"/>
                                <par_bool value="no" name="freq_lfo_enabled"/>
                              </FREQUENCY_PARAMETERS>
                            </VOICE>
                            <VOICE id="2">
                              <par_bool value="no" name="enabled"/>
                            </VOICE>
                            <VOICE id="3">
                              <par_bool value="no" name="enabled"/>
                            </VOICE>
                            <VOICE id="4">
                              <par_bool value="no" name="enabled"/>
                            </VOICE>
                            <VOICE id="5">
                              <par_bool value="no" name="enabled"/>
                            </VOICE>
                            <VOICE id="6">
                              <par_bool value="no" name="enabled"/>
                            </VOICE>
                            <VOICE id="7">
                              <par_bool value="no" name="enabled"/>
                            </VOICE>
                          </ADD_SYNTH_PARAMETERS>
                          <par_bool value="no" name="sub_enabled"/>
                          <par_bool value="no" name="pad_enabled"/>
                        </INSTRUMENT_KIT_ITEM>
                        <INSTRUMENT_KIT_ITEM id="1">
                          <par_bool value="no" name="enabled"/>
                        </INSTRUMENT_KIT_ITEM>
                        <INSTRUMENT_KIT_ITEM id="2">
                          <par_bool value="no" name="enabled"/>
                        </INSTRUMENT_KIT_ITEM>
                        <INSTRUMENT_KIT_ITEM id="3">
                          <par_bool value="no" name="enabled"/>
                        </INSTRUMENT_KIT_ITEM>
                        <INSTRUMENT_KIT_ITEM id="4">
                          <par_bool value="no" name="enabled"/>
                        </INSTRUMENT_KIT_ITEM>
                        <INSTRUMENT_KIT_ITEM id="5">
                          <par_bool value="no" name="enabled"/>
                        </INSTRUMENT_KIT_ITEM>
                        <INSTRUMENT_KIT_ITEM id="6">
                          <par_bool value="no" name="enabled"/>
                        </INSTRUMENT_KIT_ITEM>
                        <INSTRUMENT_KIT_ITEM id="7">
                          <par_bool value="no" name="enabled"/>
                        </INSTRUMENT_KIT_ITEM>
                        <INSTRUMENT_KIT_ITEM id="8">
                          <par_bool value="no" name="enabled"/>
                        </INSTRUMENT_KIT_ITEM>
                        <INSTRUMENT_KIT_ITEM id="9">
                          <par_bool value="no" name="enabled"/>
                        </INSTRUMENT_KIT_ITEM>
                        <INSTRUMENT_KIT_ITEM id="10">
                          <par_bool value="no" name="enabled"/>
                        </INSTRUMENT_KIT_ITEM>
                        <INSTRUMENT_KIT_ITEM id="11">
                          <par_bool value="no" name="enabled"/>
                        </INSTRUMENT_KIT_ITEM>
                        <INSTRUMENT_KIT_ITEM id="12">
                          <par_bool value="no" name="enabled"/>
                        </INSTRUMENT_KIT_ITEM>
                        <INSTRUMENT_KIT_ITEM id="13">
                          <par_bool value="no" name="enabled"/>
                        </INSTRUMENT_KIT_ITEM>
                        <INSTRUMENT_KIT_ITEM id="14">
                          <par_bool value="no" name="enabled"/>
                        </INSTRUMENT_KIT_ITEM>
                        <INSTRUMENT_KIT_ITEM id="15">
                          <par_bool value="no" name="enabled"/>
                        </INSTRUMENT_KIT_ITEM>
                      </INSTRUMENT_KIT>
                      <INSTRUMENT_EFFECTS>
                        <INSTRUMENT_EFFECT id="0">
                          <EFFECT>
                            <par value="0" name="type"/>
                          </EFFECT>
                          <par value="0" name="route"/>
                          <par_bool value="no" name="bypass"/>
                        </INSTRUMENT_EFFECT>
                        <INSTRUMENT_EFFECT id="1">
                          <EFFECT>
                            <par value="0" name="type"/>
                          </EFFECT>
                          <par value="0" name="route"/>
                          <par_bool value="no" name="bypass"/>
                        </INSTRUMENT_EFFECT>
                        <INSTRUMENT_EFFECT id="2">
                          <EFFECT>
                            <par value="0" name="type"/>
                          </EFFECT>
                          <par value="0" name="route"/>
                          <par_bool value="no" name="bypass"/>
                        </INSTRUMENT_EFFECT>
                      </INSTRUMENT_EFFECTS>
                    </INSTRUMENT>
                    <CONTROLLER>
                      <par value="100" name="pitchwheel_bendrange"/>
                      <par_bool value="yes" name="expression_receive"/>
                      <par value="64" name="panning_depth"/>
                      <par value="64" name="filter_cutoff_depth"/>
                      <par value="64" name="filter_q_depth"/>
                      <par value="64" name="bandwidth_depth"/>
                      <par value="80" name="mod_wheel_depth"/>
                      <par_bool value="no" name="mod_wheel_exponential"/>
                      <par_bool value="yes" name="fm_amp_receive"/>
                      <par_bool value="yes" name="volume_receive"/>
                      <par_bool value="yes" name="sustain_receive"/>
                      <par_bool value="yes" name="portamento_receive"/>
                      <par value="64" name="portamento_time"/>
                      <par value="3" name="portamento_pitchthresh"/>
                      <par value="1" name="portamento_pitchthreshtype"/>
                      <par value="0" name="portamento_portamento"/>
                      <par value="64" name="portamento_updowntimestretch"/>
                      <par value="0" name="portamento_proportional"/>
                      <par value="80" name="portamento_proprate"/>
                      <par value="90" name="portamento_propdepth"/>
                      <par value="64" name="resonance_center_depth"/>
                      <par value="64" name="resonance_bandwidth_depth"/>
                    </CONTROLLER>
                  </PART>
                  <PART id="1">
                    <par_bool value="no" name="enabled"/>
                  </PART>
                  <PART id="2">
                    <par_bool value="no" name="enabled"/>
                  </PART>
                  <PART id="3">
                    <par_bool value="no" name="enabled"/>
                  </PART>
                  <PART id="4">
                    <par_bool value="no" name="enabled"/>
                  </PART>
                  <PART id="5">
                    <par_bool value="no" name="enabled"/>
                  </PART>
                  <PART id="6">
                    <par_bool value="no" name="enabled"/>
                  </PART>
                  <PART id="7">
                    <par_bool value="no" name="enabled"/>
                  </PART>
                  <PART id="8">
                    <par_bool value="no" name="enabled"/>
                  </PART>
                  <PART id="9">
                    <par_bool value="no" name="enabled"/>
                  </PART>
                  <PART id="10">
                    <par_bool value="no" name="enabled"/>
                  </PART>
                  <PART id="11">
                    <par_bool value="no" name="enabled"/>
                  </PART>
                  <PART id="12">
                    <par_bool value="no" name="enabled"/>
                  </PART>
                  <PART id="13">
                    <par_bool value="no" name="enabled"/>
                  </PART>
                  <PART id="14">
                    <par_bool value="no" name="enabled"/>
                  </PART>
                  <PART id="15">
                    <par_bool value="no" name="enabled"/>
                  </PART>
                  <SYSTEM_EFFECTS>
                    <SYSTEM_EFFECT id="0">
                      <EFFECT>
                        <par value="0" name="type"/>
                      </EFFECT>
                      <VOLUME id="0">
                        <par value="0" name="vol"/>
                      </VOLUME>
                      <VOLUME id="1">
                        <par value="0" name="vol"/>
                      </VOLUME>
                      <VOLUME id="2">
                        <par value="0" name="vol"/>
                      </VOLUME>
                      <VOLUME id="3">
                        <par value="0" name="vol"/>
                      </VOLUME>
                      <VOLUME id="4">
                        <par value="0" name="vol"/>
                      </VOLUME>
                      <VOLUME id="5">
                        <par value="0" name="vol"/>
                      </VOLUME>
                      <VOLUME id="6">
                        <par value="0" name="vol"/>
                      </VOLUME>
                      <VOLUME id="7">
                        <par value="0" name="vol"/>
                      </VOLUME>
                      <VOLUME id="8">
                        <par value="0" name="vol"/>
                      </VOLUME>
                      <VOLUME id="9">
                        <par value="0" name="vol"/>
                      </VOLUME>
                      <VOLUME id="10">
                        <par value="0" name="vol"/>
                      </VOLUME>
                      <VOLUME id="11">
                        <par value="0" name="vol"/>
                      </VOLUME>
                      <VOLUME id="12">
                        <par value="0" name="vol"/>
                      </VOLUME>
                      <VOLUME id="13">
                        <par value="0" name="vol"/>
                      </VOLUME>
                      <VOLUME id="14">
                        <par value="0" name="vol"/>
                      </VOLUME>
                      <VOLUME id="15">
                        <par value="0" name="vol"/>
                      </VOLUME>
                      <SENDTO id="1">
                        <par value="0" name="send_vol"/>
                      </SENDTO>
                      <SENDTO id="2">
                        <par value="0" name="send_vol"/>
                      </SENDTO>
                      <SENDTO id="3">
                        <par value="0" name="send_vol"/>
                      </SENDTO>
                    </SYSTEM_EFFECT>
                    <SYSTEM_EFFECT id="1">
                      <EFFECT>
                        <par value="0" name="type"/>
                      </EFFECT>
                      <VOLUME id="0">
                        <par value="0" name="vol"/>
                      </VOLUME>
                      <VOLUME id="1">
                        <par value="0" name="vol"/>
                      </VOLUME>
                      <VOLUME id="2">
                        <par value="0" name="vol"/>
                      </VOLUME>
                      <VOLUME id="3">
                        <par value="0" name="vol"/>
                      </VOLUME>
                      <VOLUME id="4">
                        <par value="0" name="vol"/>
                      </VOLUME>
                      <VOLUME id="5">
                        <par value="0" name="vol"/>
                      </VOLUME>
                      <VOLUME id="6">
                        <par value="0" name="vol"/>
                      </VOLUME>
                      <VOLUME id="7">
                        <par value="0" name="vol"/>
                      </VOLUME>
                      <VOLUME id="8">
                        <par value="0" name="vol"/>
                      </VOLUME>
                      <VOLUME id="9">
                        <par value="0" name="vol"/>
                      </VOLUME>
                      <VOLUME id="10">
                        <par value="0" name="vol"/>
                      </VOLUME>
                      <VOLUME id="11">
                        <par value="0" name="vol"/>
                      </VOLUME>
                      <VOLUME id="12">
                        <par value="0" name="vol"/>
                      </VOLUME>
                      <VOLUME id="13">
                        <par value="0" name="vol"/>
                      </VOLUME>
                      <VOLUME id="14">
                        <par value="0" name="vol"/>
                      </VOLUME>
                      <VOLUME id="15">
                        <par value="0" name="vol"/>
                      </VOLUME>
                      <SENDTO id="2">
                        <par value="0" name="send_vol"/>
                      </SENDTO>
                      <SENDTO id="3">
                        <par value="0" name="send_vol"/>
                      </SENDTO>
                    </SYSTEM_EFFECT>
                    <SYSTEM_EFFECT id="2">
                      <EFFECT>
                        <par value="0" name="type"/>
                      </EFFECT>
                      <VOLUME id="0">
                        <par value="0" name="vol"/>
                      </VOLUME>
                      <VOLUME id="1">
                        <par value="0" name="vol"/>
                      </VOLUME>
                      <VOLUME id="2">
                        <par value="0" name="vol"/>
                      </VOLUME>
                      <VOLUME id="3">
                        <par value="0" name="vol"/>
                      </VOLUME>
                      <VOLUME id="4">
                        <par value="0" name="vol"/>
                      </VOLUME>
                      <VOLUME id="5">
                        <par value="0" name="vol"/>
                      </VOLUME>
                      <VOLUME id="6">
                        <par value="0" name="vol"/>
                      </VOLUME>
                      <VOLUME id="7">
                        <par value="0" name="vol"/>
                      </VOLUME>
                      <VOLUME id="8">
                        <par value="0" name="vol"/>
                      </VOLUME>
                      <VOLUME id="9">
                        <par value="0" name="vol"/>
                      </VOLUME>
                      <VOLUME id="10">
                        <par value="0" name="vol"/>
                      </VOLUME>
                      <VOLUME id="11">
                        <par value="0" name="vol"/>
                      </VOLUME>
                      <VOLUME id="12">
                        <par value="0" name="vol"/>
                      </VOLUME>
                      <VOLUME id="13">
                        <par value="0" name="vol"/>
                      </VOLUME>
                      <VOLUME id="14">
                        <par value="0" name="vol"/>
                      </VOLUME>
                      <VOLUME id="15">
                        <par value="0" name="vol"/>
                      </VOLUME>
                      <SENDTO id="3">
                        <par value="0" name="send_vol"/>
                      </SENDTO>
                    </SYSTEM_EFFECT>
                    <SYSTEM_EFFECT id="3">
                      <EFFECT>
                        <par value="0" name="type"/>
                      </EFFECT>
                      <VOLUME id="0">
                        <par value="0" name="vol"/>
                      </VOLUME>
                      <VOLUME id="1">
                        <par value="0" name="vol"/>
                      </VOLUME>
                      <VOLUME id="2">
                        <par value="0" name="vol"/>
                      </VOLUME>
                      <VOLUME id="3">
                        <par value="0" name="vol"/>
                      </VOLUME>
                      <VOLUME id="4">
                        <par value="0" name="vol"/>
                      </VOLUME>
                      <VOLUME id="5">
                        <par value="0" name="vol"/>
                      </VOLUME>
                      <VOLUME id="6">
                        <par value="0" name="vol"/>
                      </VOLUME>
                      <VOLUME id="7">
                        <par value="0" name="vol"/>
                      </VOLUME>
                      <VOLUME id="8">
                        <par value="0" name="vol"/>
                      </VOLUME>
                      <VOLUME id="9">
                        <par value="0" name="vol"/>
                      </VOLUME>
                      <VOLUME id="10">
                        <par value="0" name="vol"/>
                      </VOLUME>
                      <VOLUME id="11">
                        <par value="0" name="vol"/>
                      </VOLUME>
                      <VOLUME id="12">
                        <par value="0" name="vol"/>
                      </VOLUME>
                      <VOLUME id="13">
                        <par value="0" name="vol"/>
                      </VOLUME>
                      <VOLUME id="14">
                        <par value="0" name="vol"/>
                      </VOLUME>
                      <VOLUME id="15">
                        <par value="0" name="vol"/>
                      </VOLUME>
                    </SYSTEM_EFFECT>
                  </SYSTEM_EFFECTS>
                  <INSERTION_EFFECTS>
                    <INSERTION_EFFECT id="0">
                      <par value="-1" name="part"/>
                      <EFFECT>
                        <par value="0" name="type"/>
                      </EFFECT>
                    </INSERTION_EFFECT>
                    <INSERTION_EFFECT id="1">
                      <par value="-1" name="part"/>
                      <EFFECT>
                        <par value="0" name="type"/>
                      </EFFECT>
                    </INSERTION_EFFECT>
                    <INSERTION_EFFECT id="2">
                      <par value="-1" name="part"/>
                      <EFFECT>
                        <par value="0" name="type"/>
                      </EFFECT>
                    </INSERTION_EFFECT>
                    <INSERTION_EFFECT id="3">
                      <par value="-1" name="part"/>
                      <EFFECT>
                        <par value="0" name="type"/>
                      </EFFECT>
                    </INSERTION_EFFECT>
                    <INSERTION_EFFECT id="4">
                      <par value="-1" name="part"/>
                      <EFFECT>
                        <par value="0" name="type"/>
                      </EFFECT>
                    </INSERTION_EFFECT>
                    <INSERTION_EFFECT id="5">
                      <par value="-1" name="part"/>
                      <EFFECT>
                        <par value="0" name="type"/>
                      </EFFECT>
                    </INSERTION_EFFECT>
                    <INSERTION_EFFECT id="6">
                      <par value="-1" name="part"/>
                      <EFFECT>
                        <par value="0" name="type"/>
                      </EFFECT>
                    </INSERTION_EFFECT>
                    <INSERTION_EFFECT id="7">
                      <par value="-1" name="part"/>
                      <EFFECT>
                        <par value="0" name="type"/>
                      </EFFECT>
                    </INSERTION_EFFECT>
                  </INSERTION_EFFECTS>
                </MASTER>
              </ZynAddSubFX-data>
            </zynaddsubfx>
          </instrument>
          <eldata fres="0.5" fcut="14000" ftype="0" fwet="0">
            <elvol lspd_denominator="4" lamt="0" lshp="0" x100="0" lspd="0.1" rel="0.1" dec="0.5" sustain="0.5" lspd_numerator="4" att="0" amt="0" ctlenvamt="0" hold="0.5" lspd_syncmode="0" lpdel="0" latt="0" pdel="0" userwavefile=""/>
            <elcut lspd_denominator="4" lamt="0" lshp="0" x100="0" lspd="0.1" rel="0.1" dec="0.5" sustain="0.5" lspd_numerator="4" att="0" amt="0" ctlenvamt="0" hold="0.5" lspd_syncmode="0" lpdel="0" latt="0" pdel="0" userwavefile=""/>
            <elres lspd_denominator="4" lamt="0" lshp="0" x100="0" lspd="0.1" rel="0.1" dec="0.5" sustain="0.5" lspd_numerator="4" att="0" amt="0" ctlenvamt="0" hold="0.5" lspd_syncmode="0" lpdel="0" latt="0" pdel="0" userwavefile=""/>
          </eldata>
          <chordcreator chord="0" chord-enabled="0" chordrange="1"/>
          <arpeggiator arpmode="0" arptime_numerator="4" arptime="200" arpgate="100" arprange="1" arp="0" arpcycle="0" arpskip="0" arp-enabled="0" arptime_denominator="4" arpmiss="0" arpdir="0" arptime_syncmode="0"/>
          <midiport outputcontroller="0" readable="0" outputchannel="1" inputcontroller="0" fixedoutputvelocity="-1" outputprogram="1" writable="0" fixedoutputnote="-1" basevelocity="63" inputchannel="0" fixedinputvelocity="-1"/>
          <fxchain enabled="1" numofeffects="1">
            <effect wet="1" autoquit_syncmode="0" autoquit="1" name="stereoenhancer" on="1" gate="0" autoquit_numerator="4" autoquit_denominator="4">
              <stereoenhancercontrols>
                <width value="79.117188" id="3196872" scale_type="linear"/>
              </stereoenhancercontrols>
              <key/>
            </effect>
          </fxchain>
        </instrumenttrack>
        <pattern type="1" name="Wah Bass" muted="0" pos="15360" steps="16">
          <note pos="0" vol="100" key="40" len="12" pan="0"/>
          <note pos="12" vol="100" key="43" len="12" pan="0"/>
          <note pos="24" vol="100" key="47" len="12" pan="0"/>
          <note pos="36" vol="100" key="40" len="12" pan="0"/>
          <note pos="48" vol="100" key="43" len="12" pan="0"/>
          <note pos="60" vol="100" key="47" len="12" pan="0"/>
          <note pos="72" vol="100" key="40" len="12" pan="0"/>
          <note pos="84" vol="100" key="43" len="12" pan="0"/>
          <note pos="96" vol="100" key="47" len="12" pan="0"/>
          <note pos="108" vol="100" key="40" len="12" pan="0"/>
          <note pos="120" vol="100" key="43" len="12" pan="0"/>
          <note pos="132" vol="100" key="47" len="12" pan="0"/>
          <note pos="144" vol="100" key="40" len="12" pan="0"/>
          <note pos="156" vol="100" key="43" len="12" pan="0"/>
          <note pos="168" vol="100" key="48" len="12" pan="0"/>
          <note pos="180" vol="100" key="43" len="12" pan="0"/>
          <note pos="192" vol="100" key="40" len="12" pan="0"/>
          <note pos="204" vol="100" key="43" len="12" pan="0"/>
          <note pos="216" vol="100" key="47" len="12" pan="0"/>
          <note pos="228" vol="100" key="40" len="12" pan="0"/>
          <note pos="240" vol="100" key="43" len="12" pan="0"/>
          <note pos="252" vol="100" key="47" len="12" pan="0"/>
          <note pos="264" vol="100" key="40" len="12" pan="0"/>
          <note pos="276" vol="100" key="43" len="12" pan="0"/>
          <note pos="288" vol="100" key="47" len="12" pan="0"/>
          <note pos="300" vol="100" key="40" len="12" pan="0"/>
          <note pos="312" vol="100" key="43" len="12" pan="0"/>
          <note pos="324" vol="100" key="47" len="12" pan="0"/>
          <note pos="336" vol="100" key="40" len="12" pan="0"/>
          <note pos="348" vol="100" key="43" len="12" pan="0"/>
          <note pos="360" vol="100" key="48" len="12" pan="0"/>
          <note pos="372" vol="100" key="43" len="12" pan="0"/>
          <note pos="384" vol="100" key="40" len="12" pan="0"/>
          <note pos="396" vol="100" key="43" len="12" pan="0"/>
          <note pos="408" vol="100" key="47" len="12" pan="0"/>
          <note pos="420" vol="100" key="40" len="12" pan="0"/>
          <note pos="432" vol="100" key="43" len="12" pan="0"/>
          <note pos="444" vol="100" key="47" len="12" pan="0"/>
          <note pos="456" vol="100" key="40" len="12" pan="0"/>
          <note pos="468" vol="100" key="43" len="12" pan="0"/>
          <note pos="480" vol="100" key="47" len="12" pan="0"/>
          <note pos="492" vol="100" key="40" len="12" pan="0"/>
          <note pos="504" vol="100" key="43" len="12" pan="0"/>
          <note pos="516" vol="100" key="47" len="12" pan="0"/>
          <note pos="528" vol="100" key="40" len="12" pan="0"/>
          <note pos="540" vol="100" key="43" len="12" pan="0"/>
          <note pos="552" vol="100" key="48" len="12" pan="0"/>
          <note pos="564" vol="100" key="43" len="12" pan="0"/>
          <note pos="576" vol="100" key="40" len="12" pan="0"/>
          <note pos="588" vol="100" key="43" len="12" pan="0"/>
          <note pos="600" vol="100" key="47" len="12" pan="0"/>
          <note pos="612" vol="100" key="40" len="12" pan="0"/>
          <note pos="624" vol="100" key="43" len="12" pan="0"/>
          <note pos="636" vol="100" key="47" len="12" pan="0"/>
          <note pos="648" vol="100" key="40" len="12" pan="0"/>
          <note pos="660" vol="100" key="43" len="12" pan="0"/>
          <note pos="672" vol="100" key="47" len="12" pan="0"/>
          <note pos="684" vol="100" key="40" len="12" pan="0"/>
          <note pos="696" vol="100" key="43" len="12" pan="0"/>
          <note pos="708" vol="100" key="47" len="12" pan="0"/>
          <note pos="720" vol="100" key="40" len="12" pan="0"/>
          <note pos="732" vol="100" key="43" len="12" pan="0"/>
          <note pos="744" vol="100" key="48" len="12" pan="0"/>
          <note pos="756" vol="100" key="43" len="12" pan="0"/>
          <note pos="768" vol="100" key="40" len="12" pan="0"/>
          <note pos="780" vol="100" key="43" len="12" pan="0"/>
          <note pos="792" vol="100" key="47" len="12" pan="0"/>
          <note pos="804" vol="100" key="40" len="12" pan="0"/>
          <note pos="816" vol="100" key="43" len="12" pan="0"/>
          <note pos="828" vol="100" key="47" len="12" pan="0"/>
          <note pos="840" vol="100" key="40" len="12" pan="0"/>
          <note pos="852" vol="100" key="43" len="12" pan="0"/>
          <note pos="864" vol="100" key="47" len="12" pan="0"/>
          <note pos="876" vol="100" key="40" len="12" pan="0"/>
          <note pos="888" vol="100" key="43" len="12" pan="0"/>
          <note pos="900" vol="100" key="47" len="12" pan="0"/>
          <note pos="912" vol="100" key="40" len="12" pan="0"/>
          <note pos="924" vol="100" key="43" len="12" pan="0"/>
          <note pos="936" vol="100" key="48" len="12" pan="0"/>
          <note pos="948" vol="100" key="43" len="12" pan="0"/>
          <note pos="960" vol="100" key="40" len="12" pan="0"/>
          <note pos="972" vol="100" key="43" len="12" pan="0"/>
          <note pos="984" vol="100" key="47" len="12" pan="0"/>
          <note pos="996" vol="100" key="40" len="12" pan="0"/>
          <note pos="1008" vol="100" key="43" len="12" pan="0"/>
          <note pos="1020" vol="100" key="47" len="12" pan="0"/>
          <note pos="1032" vol="100" key="40" len="12" pan="0"/>
          <note pos="1044" vol="100" key="43" len="12" pan="0"/>
          <note pos="1056" vol="100" key="47" len="12" pan="0"/>
          <note pos="1068" vol="100" key="40" len="12" pan="0"/>
          <note pos="1080" vol="100" key="43" len="12" pan="0"/>
          <note pos="1092" vol="100" key="47" len="12" pan="0"/>
          <note pos="1104" vol="100" key="40" len="12" pan="0"/>
          <note pos="1116" vol="100" key="43" len="12" pan="0"/>
          <note pos="1128" vol="100" key="48" len="12" pan="0"/>
          <note pos="1140" vol="100" key="43" len="12" pan="0"/>
          <note pos="1152" vol="100" key="40" len="12" pan="0"/>
          <note pos="1164" vol="100" key="43" len="12" pan="0"/>
          <note pos="1176" vol="100" key="47" len="12" pan="0"/>
          <note pos="1188" vol="100" key="40" len="12" pan="0"/>
          <note pos="1200" vol="100" key="43" len="12" pan="0"/>
          <note pos="1212" vol="100" key="47" len="12" pan="0"/>
          <note pos="1224" vol="100" key="40" len="12" pan="0"/>
          <note pos="1236" vol="100" key="43" len="12" pan="0"/>
          <note pos="1248" vol="100" key="47" len="12" pan="0"/>
          <note pos="1260" vol="100" key="40" len="12" pan="0"/>
          <note pos="1272" vol="100" key="43" len="12" pan="0"/>
          <note pos="1284" vol="100" key="47" len="12" pan="0"/>
          <note pos="1296" vol="100" key="40" len="12" pan="0"/>
          <note pos="1308" vol="100" key="43" len="12" pan="0"/>
          <note pos="1320" vol="100" key="48" len="12" pan="0"/>
          <note pos="1332" vol="100" key="43" len="12" pan="0"/>
          <note pos="1344" vol="100" key="40" len="12" pan="0"/>
          <note pos="1356" vol="100" key="43" len="12" pan="0"/>
          <note pos="1368" vol="100" key="47" len="12" pan="0"/>
          <note pos="1380" vol="100" key="40" len="12" pan="0"/>
          <note pos="1392" vol="100" key="43" len="12" pan="0"/>
          <note pos="1404" vol="100" key="47" len="12" pan="0"/>
          <note pos="1416" vol="100" key="40" len="12" pan="0"/>
          <note pos="1428" vol="100" key="43" len="12" pan="0"/>
          <note pos="1440" vol="100" key="47" len="12" pan="0"/>
          <note pos="1452" vol="100" key="40" len="12" pan="0"/>
          <note pos="1464" vol="100" key="43" len="12" pan="0"/>
          <note pos="1476" vol="100" key="47" len="12" pan="0"/>
          <note pos="1488" vol="100" key="40" len="12" pan="0"/>
          <note pos="1500" vol="100" key="43" len="12" pan="0"/>
          <note pos="1512" vol="100" key="48" len="12" pan="0"/>
          <note pos="1524" vol="100" key="43" len="12" pan="0"/>
        </pattern>
        <pattern type="1" name="Wah Bass" muted="0" pos="16896" steps="16">
          <note pos="0" vol="100" key="40" len="12" pan="0"/>
          <note pos="12" vol="100" key="43" len="12" pan="0"/>
          <note pos="24" vol="100" key="47" len="12" pan="0"/>
          <note pos="36" vol="100" key="40" len="12" pan="0"/>
          <note pos="48" vol="100" key="43" len="12" pan="0"/>
          <note pos="60" vol="100" key="47" len="12" pan="0"/>
          <note pos="72" vol="100" key="40" len="12" pan="0"/>
          <note pos="84" vol="100" key="43" len="12" pan="0"/>
          <note pos="96" vol="100" key="47" len="12" pan="0"/>
          <note pos="108" vol="100" key="40" len="12" pan="0"/>
          <note pos="120" vol="100" key="43" len="12" pan="0"/>
          <note pos="132" vol="100" key="47" len="12" pan="0"/>
          <note pos="144" vol="100" key="40" len="12" pan="0"/>
          <note pos="156" vol="100" key="43" len="12" pan="0"/>
          <note pos="168" vol="100" key="48" len="12" pan="0"/>
          <note pos="180" vol="100" key="43" len="12" pan="0"/>
          <note pos="192" vol="100" key="40" len="12" pan="0"/>
          <note pos="204" vol="100" key="43" len="12" pan="0"/>
          <note pos="216" vol="100" key="47" len="12" pan="0"/>
          <note pos="228" vol="100" key="40" len="12" pan="0"/>
          <note pos="240" vol="100" key="43" len="12" pan="0"/>
          <note pos="252" vol="100" key="47" len="12" pan="0"/>
          <note pos="264" vol="100" key="40" len="12" pan="0"/>
          <note pos="276" vol="100" key="43" len="12" pan="0"/>
          <note pos="288" vol="100" key="47" len="12" pan="0"/>
          <note pos="300" vol="100" key="40" len="12" pan="0"/>
          <note pos="312" vol="100" key="43" len="12" pan="0"/>
          <note pos="324" vol="100" key="47" len="12" pan="0"/>
          <note pos="336" vol="100" key="40" len="12" pan="0"/>
          <note pos="348" vol="100" key="43" len="12" pan="0"/>
          <note pos="360" vol="100" key="48" len="12" pan="0"/>
          <note pos="372" vol="100" key="43" len="12" pan="0"/>
          <note pos="384" vol="100" key="40" len="12" pan="0"/>
          <note pos="396" vol="100" key="43" len="12" pan="0"/>
          <note pos="408" vol="100" key="47" len="12" pan="0"/>
          <note pos="420" vol="100" key="40" len="12" pan="0"/>
          <note pos="432" vol="100" key="43" len="12" pan="0"/>
          <note pos="444" vol="100" key="47" len="12" pan="0"/>
          <note pos="456" vol="100" key="40" len="12" pan="0"/>
          <note pos="468" vol="100" key="43" len="12" pan="0"/>
          <note pos="480" vol="100" key="47" len="12" pan="0"/>
          <note pos="492" vol="100" key="40" len="12" pan="0"/>
          <note pos="504" vol="100" key="43" len="12" pan="0"/>
          <note pos="516" vol="100" key="47" len="12" pan="0"/>
          <note pos="528" vol="100" key="40" len="12" pan="0"/>
          <note pos="540" vol="100" key="43" len="12" pan="0"/>
          <note pos="552" vol="100" key="48" len="12" pan="0"/>
          <note pos="564" vol="100" key="43" len="12" pan="0"/>
          <note pos="576" vol="100" key="40" len="12" pan="0"/>
          <note pos="588" vol="100" key="43" len="12" pan="0"/>
          <note pos="600" vol="100" key="47" len="12" pan="0"/>
          <note pos="612" vol="100" key="40" len="12" pan="0"/>
          <note pos="624" vol="100" key="43" len="12" pan="0"/>
          <note pos="636" vol="100" key="47" len="12" pan="0"/>
          <note pos="648" vol="100" key="40" len="12" pan="0"/>
          <note pos="660" vol="100" key="43" len="12" pan="0"/>
          <note pos="672" vol="100" key="47" len="12" pan="0"/>
          <note pos="684" vol="100" key="40" len="12" pan="0"/>
          <note pos="696" vol="100" key="43" len="12" pan="0"/>
          <note pos="708" vol="100" key="47" len="12" pan="0"/>
          <note pos="720" vol="100" key="40" len="12" pan="0"/>
          <note pos="732" vol="100" key="43" len="12" pan="0"/>
          <note pos="744" vol="100" key="48" len="12" pan="0"/>
          <note pos="756" vol="100" key="43" len="12" pan="0"/>
          <note pos="768" vol="100" key="40" len="12" pan="0"/>
          <note pos="780" vol="100" key="43" len="12" pan="0"/>
          <note pos="792" vol="100" key="47" len="12" pan="0"/>
          <note pos="804" vol="100" key="40" len="12" pan="0"/>
          <note pos="816" vol="100" key="43" len="12" pan="0"/>
          <note pos="828" vol="100" key="47" len="12" pan="0"/>
          <note pos="840" vol="100" key="40" len="12" pan="0"/>
          <note pos="852" vol="100" key="43" len="12" pan="0"/>
          <note pos="864" vol="100" key="47" len="12" pan="0"/>
          <note pos="876" vol="100" key="40" len="12" pan="0"/>
          <note pos="888" vol="100" key="43" len="12" pan="0"/>
          <note pos="900" vol="100" key="47" len="12" pan="0"/>
          <note pos="912" vol="100" key="40" len="12" pan="0"/>
          <note pos="924" vol="100" key="43" len="12" pan="0"/>
          <note pos="936" vol="100" key="48" len="12" pan="0"/>
          <note pos="948" vol="100" key="43" len="12" pan="0"/>
          <note pos="960" vol="100" key="40" len="12" pan="0"/>
          <note pos="972" vol="100" key="43" len="12" pan="0"/>
          <note pos="984" vol="100" key="47" len="12" pan="0"/>
          <note pos="996" vol="100" key="40" len="12" pan="0"/>
          <note pos="1008" vol="100" key="43" len="12" pan="0"/>
          <note pos="1020" vol="100" key="47" len="12" pan="0"/>
          <note pos="1032" vol="100" key="40" len="12" pan="0"/>
          <note pos="1044" vol="100" key="43" len="12" pan="0"/>
          <note pos="1056" vol="100" key="47" len="12" pan="0"/>
          <note pos="1068" vol="100" key="40" len="12" pan="0"/>
          <note pos="1080" vol="100" key="43" len="12" pan="0"/>
          <note pos="1092" vol="100" key="47" len="12" pan="0"/>
          <note pos="1104" vol="100" key="40" len="12" pan="0"/>
          <note pos="1116" vol="100" key="43" len="12" pan="0"/>
          <note pos="1128" vol="100" key="48" len="12" pan="0"/>
          <note pos="1140" vol="100" key="43" len="12" pan="0"/>
          <note pos="1152" vol="100" key="40" len="12" pan="0"/>
          <note pos="1164" vol="100" key="43" len="12" pan="0"/>
          <note pos="1176" vol="100" key="47" len="12" pan="0"/>
          <note pos="1188" vol="100" key="40" len="12" pan="0"/>
          <note pos="1200" vol="100" key="43" len="12" pan="0"/>
          <note pos="1212" vol="100" key="47" len="12" pan="0"/>
          <note pos="1224" vol="100" key="40" len="12" pan="0"/>
          <note pos="1236" vol="100" key="43" len="12" pan="0"/>
          <note pos="1248" vol="100" key="47" len="12" pan="0"/>
          <note pos="1260" vol="100" key="40" len="12" pan="0"/>
          <note pos="1272" vol="100" key="43" len="12" pan="0"/>
          <note pos="1284" vol="100" key="47" len="12" pan="0"/>
          <note pos="1296" vol="100" key="40" len="12" pan="0"/>
          <note pos="1308" vol="100" key="43" len="12" pan="0"/>
          <note pos="1320" vol="100" key="48" len="12" pan="0"/>
          <note pos="1332" vol="100" key="43" len="12" pan="0"/>
          <note pos="1344" vol="100" key="40" len="12" pan="0"/>
          <note pos="1356" vol="100" key="43" len="12" pan="0"/>
          <note pos="1368" vol="100" key="47" len="12" pan="0"/>
          <note pos="1380" vol="100" key="40" len="12" pan="0"/>
          <note pos="1392" vol="100" key="43" len="12" pan="0"/>
          <note pos="1404" vol="100" key="47" len="12" pan="0"/>
          <note pos="1416" vol="100" key="40" len="12" pan="0"/>
          <note pos="1428" vol="100" key="43" len="12" pan="0"/>
          <note pos="1440" vol="100" key="47" len="12" pan="0"/>
          <note pos="1452" vol="100" key="40" len="12" pan="0"/>
          <note pos="1464" vol="100" key="43" len="12" pan="0"/>
          <note pos="1476" vol="100" key="47" len="12" pan="0"/>
          <note pos="1488" vol="100" key="40" len="12" pan="0"/>
          <note pos="1500" vol="100" key="43" len="12" pan="0"/>
          <note pos="1512" vol="100" key="48" len="12" pan="0"/>
          <note pos="1524" vol="100" key="43" len="12" pan="0"/>
        </pattern>
        <pattern type="1" name="Wah Bass" muted="0" pos="18432" steps="16">
          <note pos="0" vol="100" key="40" len="12" pan="0"/>
          <note pos="12" vol="100" key="43" len="12" pan="0"/>
          <note pos="24" vol="100" key="47" len="12" pan="0"/>
          <note pos="36" vol="100" key="40" len="12" pan="0"/>
          <note pos="48" vol="100" key="43" len="12" pan="0"/>
          <note pos="60" vol="100" key="47" len="12" pan="0"/>
          <note pos="72" vol="100" key="40" len="12" pan="0"/>
          <note pos="84" vol="100" key="43" len="12" pan="0"/>
          <note pos="96" vol="100" key="47" len="12" pan="0"/>
          <note pos="108" vol="100" key="40" len="12" pan="0"/>
          <note pos="120" vol="100" key="43" len="12" pan="0"/>
          <note pos="132" vol="100" key="47" len="12" pan="0"/>
          <note pos="144" vol="100" key="40" len="12" pan="0"/>
          <note pos="156" vol="100" key="43" len="12" pan="0"/>
          <note pos="168" vol="100" key="48" len="12" pan="0"/>
          <note pos="180" vol="100" key="43" len="12" pan="0"/>
          <note pos="192" vol="100" key="40" len="12" pan="0"/>
          <note pos="204" vol="100" key="43" len="12" pan="0"/>
          <note pos="216" vol="100" key="47" len="12" pan="0"/>
          <note pos="228" vol="100" key="40" len="12" pan="0"/>
          <note pos="240" vol="100" key="43" len="12" pan="0"/>
          <note pos="252" vol="100" key="47" len="12" pan="0"/>
          <note pos="264" vol="100" key="40" len="12" pan="0"/>
          <note pos="276" vol="100" key="43" len="12" pan="0"/>
          <note pos="288" vol="100" key="47" len="12" pan="0"/>
          <note pos="300" vol="100" key="40" len="12" pan="0"/>
          <note pos="312" vol="100" key="43" len="12" pan="0"/>
          <note pos="324" vol="100" key="47" len="12" pan="0"/>
          <note pos="336" vol="100" key="40" len="12" pan="0"/>
          <note pos="348" vol="100" key="43" len="12" pan="0"/>
          <note pos="360" vol="100" key="48" len="12" pan="0"/>
          <note pos="372" vol="100" key="43" len="12" pan="0"/>
          <note pos="384" vol="100" key="40" len="12" pan="0"/>
          <note pos="396" vol="100" key="43" len="12" pan="0"/>
          <note pos="408" vol="100" key="47" len="12" pan="0"/>
          <note pos="420" vol="100" key="40" len="12" pan="0"/>
          <note pos="432" vol="100" key="43" len="12" pan="0"/>
          <note pos="444" vol="100" key="47" len="12" pan="0"/>
          <note pos="456" vol="100" key="40" len="12" pan="0"/>
          <note pos="468" vol="100" key="43" len="12" pan="0"/>
          <note pos="480" vol="100" key="47" len="12" pan="0"/>
          <note pos="492" vol="100" key="40" len="12" pan="0"/>
          <note pos="504" vol="100" key="43" len="12" pan="0"/>
          <note pos="516" vol="100" key="47" len="12" pan="0"/>
          <note pos="528" vol="100" key="40" len="12" pan="0"/>
          <note pos="540" vol="100" key="43" len="12" pan="0"/>
          <note pos="552" vol="100" key="48" len="12" pan="0"/>
          <note pos="564" vol="100" key="43" len="12" pan="0"/>
          <note pos="576" vol="100" key="40" len="12" pan="0"/>
          <note pos="588" vol="100" key="43" len="12" pan="0"/>
          <note pos="600" vol="100" key="47" len="12" pan="0"/>
          <note pos="612" vol="100" key="40" len="12" pan="0"/>
          <note pos="624" vol="100" key="43" len="12" pan="0"/>
          <note pos="636" vol="100" key="47" len="12" pan="0"/>
          <note pos="648" vol="100" key="40" len="12" pan="0"/>
          <note pos="660" vol="100" key="43" len="12" pan="0"/>
          <note pos="672" vol="100" key="47" len="12" pan="0"/>
          <note pos="684" vol="100" key="40" len="12" pan="0"/>
          <note pos="696" vol="100" key="43" len="12" pan="0"/>
          <note pos="708" vol="100" key="47" len="12" pan="0"/>
          <note pos="720" vol="100" key="40" len="12" pan="0"/>
          <note pos="732" vol="100" key="43" len="12" pan="0"/>
          <note pos="744" vol="100" key="48" len="12" pan="0"/>
          <note pos="756" vol="100" key="43" len="12" pan="0"/>
          <note pos="768" vol="100" key="40" len="12" pan="0"/>
          <note pos="780" vol="100" key="43" len="12" pan="0"/>
          <note pos="792" vol="100" key="47" len="12" pan="0"/>
          <note pos="804" vol="100" key="40" len="12" pan="0"/>
          <note pos="816" vol="100" key="43" len="12" pan="0"/>
          <note pos="828" vol="100" key="47" len="12" pan="0"/>
          <note pos="840" vol="100" key="40" len="12" pan="0"/>
          <note pos="852" vol="100" key="43" len="12" pan="0"/>
          <note pos="864" vol="100" key="47" len="12" pan="0"/>
          <note pos="876" vol="100" key="40" len="12" pan="0"/>
          <note pos="888" vol="100" key="43" len="12" pan="0"/>
          <note pos="900" vol="100" key="47" len="12" pan="0"/>
          <note pos="912" vol="100" key="40" len="12" pan="0"/>
          <note pos="924" vol="100" key="43" len="12" pan="0"/>
          <note pos="936" vol="100" key="48" len="12" pan="0"/>
          <note pos="948" vol="100" key="43" len="12" pan="0"/>
          <note pos="960" vol="100" key="40" len="12" pan="0"/>
          <note pos="972" vol="100" key="43" len="12" pan="0"/>
          <note pos="984" vol="100" key="47" len="12" pan="0"/>
          <note pos="996" vol="100" key="40" len="12" pan="0"/>
          <note pos="1008" vol="100" key="43" len="12" pan="0"/>
          <note pos="1020" vol="100" key="47" len="12" pan="0"/>
          <note pos="1032" vol="100" key="40" len="12" pan="0"/>
          <note pos="1044" vol="100" key="43" len="12" pan="0"/>
          <note pos="1056" vol="100" key="47" len="12" pan="0"/>
          <note pos="1068" vol="100" key="40" len="12" pan="0"/>
          <note pos="1080" vol="100" key="43" len="12" pan="0"/>
          <note pos="1092" vol="100" key="47" len="12" pan="0"/>
          <note pos="1104" vol="100" key="40" len="12" pan="0"/>
          <note pos="1116" vol="100" key="43" len="12" pan="0"/>
          <note pos="1128" vol="100" key="48" len="12" pan="0"/>
          <note pos="1140" vol="100" key="43" len="12" pan="0"/>
          <note pos="1152" vol="100" key="40" len="12" pan="0"/>
          <note pos="1164" vol="100" key="43" len="12" pan="0"/>
          <note pos="1176" vol="100" key="47" len="12" pan="0"/>
          <note pos="1188" vol="100" key="40" len="12" pan="0"/>
          <note pos="1200" vol="100" key="43" len="12" pan="0"/>
          <note pos="1212" vol="100" key="47" len="12" pan="0"/>
          <note pos="1224" vol="100" key="40" len="12" pan="0"/>
          <note pos="1236" vol="100" key="43" len="12" pan="0"/>
          <note pos="1248" vol="100" key="47" len="12" pan="0"/>
          <note pos="1260" vol="100" key="40" len="12" pan="0"/>
          <note pos="1272" vol="100" key="43" len="12" pan="0"/>
          <note pos="1284" vol="100" key="47" len="12" pan="0"/>
          <note pos="1296" vol="100" key="40" len="12" pan="0"/>
          <note pos="1308" vol="100" key="43" len="12" pan="0"/>
          <note pos="1320" vol="100" key="48" len="12" pan="0"/>
          <note pos="1332" vol="100" key="43" len="12" pan="0"/>
          <note pos="1344" vol="100" key="40" len="12" pan="0"/>
          <note pos="1356" vol="100" key="43" len="12" pan="0"/>
          <note pos="1368" vol="100" key="47" len="12" pan="0"/>
          <note pos="1380" vol="100" key="40" len="12" pan="0"/>
          <note pos="1392" vol="100" key="43" len="12" pan="0"/>
          <note pos="1404" vol="100" key="47" len="12" pan="0"/>
          <note pos="1416" vol="100" key="40" len="12" pan="0"/>
          <note pos="1428" vol="100" key="43" len="12" pan="0"/>
          <note pos="1440" vol="100" key="47" len="12" pan="0"/>
          <note pos="1452" vol="100" key="40" len="12" pan="0"/>
          <note pos="1464" vol="100" key="43" len="12" pan="0"/>
          <note pos="1476" vol="100" key="47" len="12" pan="0"/>
          <note pos="1488" vol="100" key="40" len="12" pan="0"/>
          <note pos="1500" vol="100" key="43" len="12" pan="0"/>
          <note pos="1512" vol="100" key="48" len="12" pan="0"/>
          <note pos="1524" vol="100" key="43" len="12" pan="0"/>
        </pattern>
        <pattern type="1" name="Wah Bass" muted="0" pos="19968" steps="16">
          <note pos="0" vol="100" key="40" len="192" pan="0"/>
        </pattern>
        <pattern type="1" name="Wah Bass" muted="0" pos="13824" steps="16">
          <note pos="0" vol="100" key="40" len="12" pan="0"/>
          <note pos="12" vol="100" key="43" len="12" pan="0"/>
          <note pos="24" vol="100" key="47" len="12" pan="0"/>
          <note pos="36" vol="100" key="40" len="12" pan="0"/>
          <note pos="48" vol="100" key="43" len="12" pan="0"/>
          <note pos="60" vol="100" key="47" len="12" pan="0"/>
          <note pos="72" vol="100" key="40" len="12" pan="0"/>
          <note pos="84" vol="100" key="43" len="12" pan="0"/>
          <note pos="96" vol="100" key="47" len="12" pan="0"/>
          <note pos="108" vol="100" key="40" len="12" pan="0"/>
          <note pos="120" vol="100" key="43" len="12" pan="0"/>
          <note pos="132" vol="100" key="47" len="12" pan="0"/>
          <note pos="144" vol="100" key="40" len="12" pan="0"/>
          <note pos="156" vol="100" key="43" len="12" pan="0"/>
          <note pos="168" vol="100" key="48" len="12" pan="0"/>
          <note pos="180" vol="100" key="43" len="12" pan="0"/>
          <note pos="192" vol="100" key="40" len="12" pan="0"/>
          <note pos="204" vol="100" key="43" len="12" pan="0"/>
          <note pos="216" vol="100" key="47" len="12" pan="0"/>
          <note pos="228" vol="100" key="40" len="12" pan="0"/>
          <note pos="240" vol="100" key="43" len="12" pan="0"/>
          <note pos="252" vol="100" key="47" len="12" pan="0"/>
          <note pos="264" vol="100" key="40" len="12" pan="0"/>
          <note pos="276" vol="100" key="43" len="12" pan="0"/>
          <note pos="288" vol="100" key="47" len="12" pan="0"/>
          <note pos="300" vol="100" key="40" len="12" pan="0"/>
          <note pos="312" vol="100" key="43" len="12" pan="0"/>
          <note pos="324" vol="100" key="47" len="12" pan="0"/>
          <note pos="336" vol="100" key="40" len="12" pan="0"/>
          <note pos="348" vol="100" key="43" len="12" pan="0"/>
          <note pos="360" vol="100" key="48" len="12" pan="0"/>
          <note pos="372" vol="100" key="43" len="12" pan="0"/>
          <note pos="384" vol="100" key="40" len="12" pan="0"/>
          <note pos="396" vol="100" key="43" len="12" pan="0"/>
          <note pos="408" vol="100" key="47" len="12" pan="0"/>
          <note pos="420" vol="100" key="40" len="12" pan="0"/>
          <note pos="432" vol="100" key="43" len="12" pan="0"/>
          <note pos="444" vol="100" key="47" len="12" pan="0"/>
          <note pos="456" vol="100" key="40" len="12" pan="0"/>
          <note pos="468" vol="100" key="43" len="12" pan="0"/>
          <note pos="480" vol="100" key="47" len="12" pan="0"/>
          <note pos="492" vol="100" key="40" len="12" pan="0"/>
          <note pos="504" vol="100" key="43" len="12" pan="0"/>
          <note pos="516" vol="100" key="47" len="12" pan="0"/>
          <note pos="528" vol="100" key="40" len="12" pan="0"/>
          <note pos="540" vol="100" key="43" len="12" pan="0"/>
          <note pos="552" vol="100" key="48" len="12" pan="0"/>
          <note pos="564" vol="100" key="43" len="12" pan="0"/>
          <note pos="576" vol="100" key="40" len="12" pan="0"/>
          <note pos="588" vol="100" key="43" len="12" pan="0"/>
          <note pos="600" vol="100" key="47" len="12" pan="0"/>
          <note pos="612" vol="100" key="40" len="12" pan="0"/>
          <note pos="624" vol="100" key="43" len="12" pan="0"/>
          <note pos="636" vol="100" key="47" len="12" pan="0"/>
          <note pos="648" vol="100" key="40" len="12" pan="0"/>
          <note pos="660" vol="100" key="43" len="12" pan="0"/>
          <note pos="672" vol="100" key="47" len="12" pan="0"/>
          <note pos="684" vol="100" key="40" len="12" pan="0"/>
          <note pos="696" vol="100" key="43" len="12" pan="0"/>
          <note pos="708" vol="100" key="47" len="12" pan="0"/>
          <note pos="720" vol="100" key="40" len="12" pan="0"/>
          <note pos="732" vol="100" key="43" len="12" pan="0"/>
          <note pos="744" vol="100" key="48" len="12" pan="0"/>
          <note pos="756" vol="100" key="43" len="12" pan="0"/>
          <note pos="768" vol="100" key="40" len="12" pan="0"/>
          <note pos="780" vol="100" key="43" len="12" pan="0"/>
          <note pos="792" vol="100" key="47" len="12" pan="0"/>
          <note pos="804" vol="100" key="40" len="12" pan="0"/>
          <note pos="816" vol="100" key="43" len="12" pan="0"/>
          <note pos="828" vol="100" key="47" len="12" pan="0"/>
          <note pos="840" vol="100" key="40" len="12" pan="0"/>
          <note pos="852" vol="100" key="43" len="12" pan="0"/>
          <note pos="864" vol="100" key="47" len="12" pan="0"/>
          <note pos="876" vol="100" key="40" len="12" pan="0"/>
          <note pos="888" vol="100" key="43" len="12" pan="0"/>
          <note pos="900" vol="100" key="47" len="12" pan="0"/>
          <note pos="912" vol="100" key="40" len="12" pan="0"/>
          <note pos="924" vol="100" key="43" len="12" pan="0"/>
          <note pos="936" vol="100" key="48" len="12" pan="0"/>
          <note pos="948" vol="100" key="43" len="12" pan="0"/>
          <note pos="960" vol="100" key="40" len="12" pan="0"/>
          <note pos="972" vol="100" key="43" len="12" pan="0"/>
          <note pos="984" vol="100" key="47" len="12" pan="0"/>
          <note pos="996" vol="100" key="40" len="12" pan="0"/>
          <note pos="1008" vol="100" key="43" len="12" pan="0"/>
          <note pos="1020" vol="100" key="47" len="12" pan="0"/>
          <note pos="1032" vol="100" key="40" len="12" pan="0"/>
          <note pos="1044" vol="100" key="43" len="12" pan="0"/>
          <note pos="1056" vol="100" key="47" len="12" pan="0"/>
          <note pos="1068" vol="100" key="40" len="12" pan="0"/>
          <note pos="1080" vol="100" key="43" len="12" pan="0"/>
          <note pos="1092" vol="100" key="47" len="12" pan="0"/>
          <note pos="1104" vol="100" key="40" len="12" pan="0"/>
          <note pos="1116" vol="100" key="43" len="12" pan="0"/>
          <note pos="1128" vol="100" key="48" len="12" pan="0"/>
          <note pos="1140" vol="100" key="43" len="12" pan="0"/>
          <note pos="1152" vol="100" key="40" len="12" pan="0"/>
          <note pos="1164" vol="100" key="43" len="12" pan="0"/>
          <note pos="1176" vol="100" key="47" len="12" pan="0"/>
          <note pos="1188" vol="100" key="40" len="12" pan="0"/>
          <note pos="1200" vol="100" key="43" len="12" pan="0"/>
          <note pos="1212" vol="100" key="47" len="12" pan="0"/>
          <note pos="1224" vol="100" key="40" len="12" pan="0"/>
          <note pos="1236" vol="100" key="43" len="12" pan="0"/>
          <note pos="1248" vol="100" key="47" len="12" pan="0"/>
          <note pos="1260" vol="100" key="40" len="12" pan="0"/>
          <note pos="1272" vol="100" key="43" len="12" pan="0"/>
          <note pos="1284" vol="100" key="47" len="12" pan="0"/>
          <note pos="1296" vol="100" key="40" len="12" pan="0"/>
          <note pos="1308" vol="100" key="43" len="12" pan="0"/>
          <note pos="1320" vol="100" key="48" len="12" pan="0"/>
          <note pos="1332" vol="100" key="43" len="12" pan="0"/>
          <note pos="1344" vol="100" key="40" len="12" pan="0"/>
          <note pos="1356" vol="100" key="43" len="12" pan="0"/>
          <note pos="1368" vol="100" key="47" len="12" pan="0"/>
          <note pos="1380" vol="100" key="40" len="12" pan="0"/>
          <note pos="1392" vol="100" key="43" len="12" pan="0"/>
          <note pos="1404" vol="100" key="47" len="12" pan="0"/>
          <note pos="1416" vol="100" key="40" len="12" pan="0"/>
          <note pos="1428" vol="100" key="43" len="12" pan="0"/>
          <note pos="1440" vol="100" key="47" len="12" pan="0"/>
          <note pos="1452" vol="100" key="40" len="12" pan="0"/>
          <note pos="1464" vol="100" key="43" len="12" pan="0"/>
          <note pos="1476" vol="100" key="47" len="12" pan="0"/>
          <note pos="1488" vol="100" key="40" len="12" pan="0"/>
          <note pos="1500" vol="100" key="43" len="12" pan="0"/>
          <note pos="1512" vol="100" key="48" len="12" pan="0"/>
          <note pos="1524" vol="100" key="43" len="12" pan="0"/>
        </pattern>
      </track>
      <track type="0" solo="0" name="bass" muted="0">
        <instrumenttrack fxch="0" vol="140" pitchrange="1" usemasterpitch="1" basenote="57" pan="0" pitch="0">
          <instrument name="zynaddsubfx">
            <zynaddsubfx filterfreq="127" fmgain="117" forwardmidicc="1" resbandwidth="64" bandwidth="64" portamento="0" filterq="64" modifiedcontrollers="" rescenterfreq="85">
              <ZynAddSubFX-data version-minor="4" ZynAddSubFX-author="Nasca Octavian Paul" version-revision="1" version-major="2">
                <INFORMATION/>
                <BASE_PARAMETERS>
                  <par value="16" name="max_midi_parts"/>
                  <par value="16" name="max_kit_items_per_instrument"/>
                  <par value="4" name="max_system_effects"/>
                  <par value="8" name="max_insertion_effects"/>
                  <par value="3" name="max_instrument_effects"/>
                  <par value="8" name="max_addsynth_voices"/>
                </BASE_PARAMETERS>
                <MASTER>
                  <par value="80" name="volume"/>
                  <par value="64" name="key_shift"/>
                  <par_bool value="yes" name="nrpn_receive"/>
                  <MICROTONAL>
                    <string name="name">12tET</string>
                    <string name="comment">Equal Temperament 12 notes per octave</string>
                    <par_bool value="no" name="invert_up_down"/>
                    <par value="60" name="invert_up_down_center"/>
                    <par_bool value="no" name="enabled"/>
                    <par value="64" name="global_fine_detune"/>
                    <par value="69" name="a_note"/>
                    <par_real value="440.000000" name="a_freq"/>
                  </MICROTONAL>
                  <PART id="0">
                    <par_bool value="yes" name="enabled"/>
                    <par value="96" name="volume"/>
                    <par value="64" name="panning"/>
                    <par value="0" name="min_key"/>
                    <par value="127" name="max_key"/>
                    <par value="64" name="key_shift"/>
                    <par value="0" name="rcv_chn"/>
                    <par value="64" name="velocity_sensing"/>
                    <par value="64" name="velocity_offset"/>
                    <par_bool value="yes" name="note_on"/>
                    <par_bool value="yes" name="poly_mode"/>
                    <par value="0" name="legato_mode"/>
                    <par value="15" name="key_limit"/>
                    <INSTRUMENT>
                      <INFO>
                        <string name="name">bass</string>
                        <string name="author">2010 My?terious</string>
                        <string name="comments">un son de bass bien gras :)</string>
                        <par value="5" name="type"/>
                      </INFO>
                      <INSTRUMENT_KIT>
                        <par value="0" name="kit_mode"/>
                        <par_bool value="no" name="drum_mode"/>
                        <INSTRUMENT_KIT_ITEM id="0">
                          <par_bool value="yes" name="enabled"/>
                          <string name="name"/>
                          <par_bool value="no" name="muted"/>
                          <par value="0" name="min_key"/>
                          <par value="127" name="max_key"/>
                          <par value="0" name="send_to_instrument_effect"/>
                          <par_bool value="yes" name="add_enabled"/>
                          <ADD_SYNTH_PARAMETERS>
                            <par_bool value="yes" name="stereo"/>
                            <AMPLITUDE_PARAMETERS>
                              <par value="90" name="volume"/>
                              <par value="64" name="panning"/>
                              <par value="64" name="velocity_sensing"/>
                              <par value="0" name="punch_strength"/>
                              <par value="60" name="punch_time"/>
                              <par value="64" name="punch_stretch"/>
                              <par value="72" name="punch_velocity_sensing"/>
                              <par value="0" name="harmonic_randomness_grouping"/>
                              <AMPLITUDE_ENVELOPE>
                                <par_bool value="no" name="free_mode"/>
                                <par value="4" name="env_points"/>
                                <par value="2" name="env_sustain"/>
                                <par value="64" name="env_stretch"/>
                                <par_bool value="yes" name="forced_release"/>
                                <par_bool value="no" name="linear_envelope"/>
                                <par value="0" name="A_dt"/>
                                <par value="29" name="D_dt"/>
                                <par value="25" name="R_dt"/>
                                <par value="64" name="A_val"/>
                                <par value="64" name="D_val"/>
                                <par value="107" name="S_val"/>
                                <par value="64" name="R_val"/>
                              </AMPLITUDE_ENVELOPE>
                              <AMPLITUDE_LFO>
                                <par_real value="0.629921" name="freq"/>
                                <par value="0" name="intensity"/>
                                <par value="64" name="start_phase"/>
                                <par value="0" name="lfo_type"/>
                                <par value="0" name="randomness_amplitude"/>
                                <par value="0" name="randomness_frequency"/>
                                <par value="0" name="delay"/>
                                <par value="64" name="stretch"/>
                                <par_bool value="no" name="continous"/>
                              </AMPLITUDE_LFO>
                            </AMPLITUDE_PARAMETERS>
                            <FREQUENCY_PARAMETERS>
                              <par value="8192" name="detune"/>
                              <par value="0" name="coarse_detune"/>
                              <par value="1" name="detune_type"/>
                              <par value="64" name="bandwidth"/>
                              <FREQUENCY_ENVELOPE>
                                <par_bool value="no" name="free_mode"/>
                                <par value="3" name="env_points"/>
                                <par value="1" name="env_sustain"/>
                                <par value="0" name="env_stretch"/>
                                <par_bool value="no" name="forced_release"/>
                                <par_bool value="no" name="linear_envelope"/>
                                <par value="50" name="A_dt"/>
                                <par value="10" name="D_dt"/>
                                <par value="60" name="R_dt"/>
                                <par value="64" name="A_val"/>
                                <par value="64" name="D_val"/>
                                <par value="64" name="S_val"/>
                                <par value="64" name="R_val"/>
                              </FREQUENCY_ENVELOPE>
                              <FREQUENCY_LFO>
                                <par_real value="0.551181" name="freq"/>
                                <par value="0" name="intensity"/>
                                <par value="64" name="start_phase"/>
                                <par value="0" name="lfo_type"/>
                                <par value="0" name="randomness_amplitude"/>
                                <par value="0" name="randomness_frequency"/>
                                <par value="0" name="delay"/>
                                <par value="64" name="stretch"/>
                                <par_bool value="no" name="continous"/>
                              </FREQUENCY_LFO>
                            </FREQUENCY_PARAMETERS>
                            <FILTER_PARAMETERS>
                              <par value="64" name="velocity_sensing_amplitude"/>
                              <par value="64" name="velocity_sensing"/>
                              <FILTER>
                                <par value="0" name="category"/>
                                <par value="0" name="type"/>
                                <par value="127" name="freq"/>
                                <par value="40" name="q"/>
                                <par value="0" name="stages"/>
                                <par value="64" name="freq_track"/>
                                <par value="64" name="gain"/>
                              </FILTER>
                              <FILTER_ENVELOPE>
                                <par_bool value="no" name="free_mode"/>
                                <par value="4" name="env_points"/>
                                <par value="2" name="env_sustain"/>
                                <par value="0" name="env_stretch"/>
                                <par_bool value="yes" name="forced_release"/>
                                <par_bool value="no" name="linear_envelope"/>
                                <par value="40" name="A_dt"/>
                                <par value="70" name="D_dt"/>
                                <par value="0" name="R_dt"/>
                                <par value="64" name="A_val"/>
                                <par value="0" name="D_val"/>
                                <par value="64" name="S_val"/>
                                <par value="55" name="R_val"/>
                              </FILTER_ENVELOPE>
                              <FILTER_LFO>
                                <par_real value="0.414921" name="freq"/>
                                <par value="0" name="intensity"/>
                                <par value="64" name="start_phase"/>
                                <par value="0" name="lfo_type"/>
                                <par value="0" name="randomness_amplitude"/>
                                <par value="0" name="randomness_frequency"/>
                                <par value="0" name="delay"/>
                                <par value="64" name="stretch"/>
                                <par_bool value="no" name="continous"/>
                              </FILTER_LFO>
                            </FILTER_PARAMETERS>
                            <RESONANCE>
                              <par_bool value="no" name="enabled"/>
                            </RESONANCE>
                            <VOICE id="0">
                              <par_bool value="yes" name="enabled"/>
                              <par value="0" name="type"/>
                              <par value="3" name="unison_size"/>
                              <par value="33" name="unison_frequency_spread"/>
                              <par value="64" name="unison_stereo_spread"/>
                              <par value="64" name="unison_vibratto"/>
                              <par value="64" name="unison_vibratto_speed"/>
                              <par value="0" name="unison_invert_phase"/>
                              <par value="127" name="unison_phase_randomness"/>
                              <par value="0" name="delay"/>
                              <par_bool value="yes" name="resonance"/>
                              <par value="-1" name="ext_oscil"/>
                              <par value="-1" name="ext_fm_oscil"/>
                              <par value="64" name="oscil_phase"/>
                              <par value="64" name="oscil_fm_phase"/>
                              <par_bool value="no" name="filter_enabled"/>
                              <par_bool value="no" name="filter_bypass"/>
                              <par value="0" name="fm_enabled"/>
                              <OSCIL>
                                <par value="0" name="harmonic_mag_type"/>
                                <par value="4" name="base_function"/>
                                <par value="64" name="base_function_par"/>
                                <par value="0" name="base_function_modulation"/>
                                <par value="64" name="base_function_modulation_par1"/>
                                <par value="64" name="base_function_modulation_par2"/>
                                <par value="32" name="base_function_modulation_par3"/>
                                <par value="0" name="modulation"/>
                                <par value="64" name="modulation_par1"/>
                                <par value="64" name="modulation_par2"/>
                                <par value="32" name="modulation_par3"/>
                                <par value="64" name="wave_shaping"/>
                                <par value="0" name="wave_shaping_function"/>
                                <par value="0" name="filter_type"/>
                                <par value="64" name="filter_par1"/>
                                <par value="64" name="filter_par2"/>
                                <par value="0" name="filter_before_wave_shaping"/>
                                <par value="0" name="spectrum_adjust_type"/>
                                <par value="64" name="spectrum_adjust_par"/>
                                <par value="64" name="rand"/>
                                <par value="0" name="amp_rand_type"/>
                                <par value="64" name="amp_rand_power"/>
                                <par value="0" name="harmonic_shift"/>
                                <par_bool value="no" name="harmonic_shift_first"/>
                                <par value="0" name="adaptive_harmonics"/>
                                <par value="128" name="adaptive_harmonics_base_frequency"/>
                                <par value="100" name="adaptive_harmonics_power"/>
                                <HARMONICS>
                                  <HARMONIC id="1">
                                    <par value="127" name="mag"/>
                                    <par value="64" name="phase"/>
                                  </HARMONIC>
                                </HARMONICS>
                              </OSCIL>
                              <AMPLITUDE_PARAMETERS>
                                <par value="61" name="panning"/>
                                <par value="100" name="volume"/>
                                <par_bool value="no" name="volume_minus"/>
                                <par value="127" name="velocity_sensing"/>
                                <par_bool value="no" name="amp_envelope_enabled"/>
                                <par_bool value="no" name="amp_lfo_enabled"/>
                              </AMPLITUDE_PARAMETERS>
                              <FREQUENCY_PARAMETERS>
                                <par_bool value="no" name="fixed_freq"/>
                                <par value="0" name="fixed_freq_et"/>
                                <par value="8192" name="detune"/>
                                <par value="0" name="coarse_detune"/>
                                <par value="0" name="detune_type"/>
                                <par_bool value="no" name="freq_envelope_enabled"/>
                                <par_bool value="no" name="freq_lfo_enabled"/>
                              </FREQUENCY_PARAMETERS>
                            </VOICE>
                            <VOICE id="1">
                              <par_bool value="yes" name="enabled"/>
                              <par value="0" name="type"/>
                              <par value="1" name="unison_size"/>
                              <par value="60" name="unison_frequency_spread"/>
                              <par value="64" name="unison_stereo_spread"/>
                              <par value="64" name="unison_vibratto"/>
                              <par value="64" name="unison_vibratto_speed"/>
                              <par value="0" name="unison_invert_phase"/>
                              <par value="127" name="unison_phase_randomness"/>
                              <par value="0" name="delay"/>
                              <par_bool value="yes" name="resonance"/>
                              <par value="-1" name="ext_oscil"/>
                              <par value="-1" name="ext_fm_oscil"/>
                              <par value="64" name="oscil_phase"/>
                              <par value="64" name="oscil_fm_phase"/>
                              <par_bool value="no" name="filter_enabled"/>
                              <par_bool value="no" name="filter_bypass"/>
                              <par value="0" name="fm_enabled"/>
                              <OSCIL>
                                <par value="0" name="harmonic_mag_type"/>
                                <par value="4" name="base_function"/>
                                <par value="64" name="base_function_par"/>
                                <par value="0" name="base_function_modulation"/>
                                <par value="64" name="base_function_modulation_par1"/>
                                <par value="64" name="base_function_modulation_par2"/>
                                <par value="32" name="base_function_modulation_par3"/>
                                <par value="0" name="modulation"/>
                                <par value="64" name="modulation_par1"/>
                                <par value="64" name="modulation_par2"/>
                                <par value="32" name="modulation_par3"/>
                                <par value="64" name="wave_shaping"/>
                                <par value="0" name="wave_shaping_function"/>
                                <par value="0" name="filter_type"/>
                                <par value="64" name="filter_par1"/>
                                <par value="64" name="filter_par2"/>
                                <par value="0" name="filter_before_wave_shaping"/>
                                <par value="0" name="spectrum_adjust_type"/>
                                <par value="64" name="spectrum_adjust_par"/>
                                <par value="64" name="rand"/>
                                <par value="0" name="amp_rand_type"/>
                                <par value="64" name="amp_rand_power"/>
                                <par value="0" name="harmonic_shift"/>
                                <par_bool value="no" name="harmonic_shift_first"/>
                                <par value="0" name="adaptive_harmonics"/>
                                <par value="128" name="adaptive_harmonics_base_frequency"/>
                                <par value="100" name="adaptive_harmonics_power"/>
                                <HARMONICS>
                                  <HARMONIC id="1">
                                    <par value="127" name="mag"/>
                                    <par value="64" name="phase"/>
                                  </HARMONIC>
                                </HARMONICS>
                              </OSCIL>
                              <AMPLITUDE_PARAMETERS>
                                <par value="59" name="panning"/>
                                <par value="100" name="volume"/>
                                <par_bool value="no" name="volume_minus"/>
                                <par value="127" name="velocity_sensing"/>
                                <par_bool value="no" name="amp_envelope_enabled"/>
                                <par_bool value="no" name="amp_lfo_enabled"/>
                              </AMPLITUDE_PARAMETERS>
                              <FREQUENCY_PARAMETERS>
                                <par_bool value="no" name="fixed_freq"/>
                                <par value="0" name="fixed_freq_et"/>
                                <par value="11567" name="detune"/>
                                <par value="0" name="coarse_detune"/>
                                <par value="0" name="detune_type"/>
                                <par_bool value="no" name="freq_envelope_enabled"/>
                                <par_bool value="no" name="freq_lfo_enabled"/>
                              </FREQUENCY_PARAMETERS>
                            </VOICE>
                            <VOICE id="2">
                              <par_bool value="yes" name="enabled"/>
                              <par value="0" name="type"/>
                              <par value="1" name="unison_size"/>
                              <par value="60" name="unison_frequency_spread"/>
                              <par value="64" name="unison_stereo_spread"/>
                              <par value="64" name="unison_vibratto"/>
                              <par value="64" name="unison_vibratto_speed"/>
                              <par value="0" name="unison_invert_phase"/>
                              <par value="127" name="unison_phase_randomness"/>
                              <par value="0" name="delay"/>
                              <par_bool value="yes" name="resonance"/>
                              <par value="-1" name="ext_oscil"/>
                              <par value="-1" name="ext_fm_oscil"/>
                              <par value="64" name="oscil_phase"/>
                              <par value="64" name="oscil_fm_phase"/>
                              <par_bool value="no" name="filter_enabled"/>
                              <par_bool value="no" name="filter_bypass"/>
                              <par value="0" name="fm_enabled"/>
                              <OSCIL>
                                <par value="0" name="harmonic_mag_type"/>
                                <par value="0" name="base_function"/>
                                <par value="64" name="base_function_par"/>
                                <par value="0" name="base_function_modulation"/>
                                <par value="64" name="base_function_modulation_par1"/>
                                <par value="64" name="base_function_modulation_par2"/>
                                <par value="32" name="base_function_modulation_par3"/>
                                <par value="0" name="modulation"/>
                                <par value="64" name="modulation_par1"/>
                                <par value="64" name="modulation_par2"/>
                                <par value="32" name="modulation_par3"/>
                                <par value="64" name="wave_shaping"/>
                                <par value="0" name="wave_shaping_function"/>
                                <par value="0" name="filter_type"/>
                                <par value="64" name="filter_par1"/>
                                <par value="64" name="filter_par2"/>
                                <par value="0" name="filter_before_wave_shaping"/>
                                <par value="0" name="spectrum_adjust_type"/>
                                <par value="64" name="spectrum_adjust_par"/>
                                <par value="64" name="rand"/>
                                <par value="0" name="amp_rand_type"/>
                                <par value="64" name="amp_rand_power"/>
                                <par value="0" name="harmonic_shift"/>
                                <par_bool value="no" name="harmonic_shift_first"/>
                                <par value="0" name="adaptive_harmonics"/>
                                <par value="128" name="adaptive_harmonics_base_frequency"/>
                                <par value="100" name="adaptive_harmonics_power"/>
                                <HARMONICS>
                                  <HARMONIC id="1">
                                    <par value="127" name="mag"/>
                                    <par value="64" name="phase"/>
                                  </HARMONIC>
                                </HARMONICS>
                              </OSCIL>
                              <AMPLITUDE_PARAMETERS>
                                <par value="64" name="panning"/>
                                <par value="100" name="volume"/>
                                <par_bool value="no" name="volume_minus"/>
                                <par value="127" name="velocity_sensing"/>
                                <par_bool value="no" name="amp_envelope_enabled"/>
                                <par_bool value="no" name="amp_lfo_enabled"/>
                              </AMPLITUDE_PARAMETERS>
                              <FREQUENCY_PARAMETERS>
                                <par_bool value="no" name="fixed_freq"/>
                                <par value="0" name="fixed_freq_et"/>
                                <par value="8192" name="detune"/>
                                <par value="0" name="coarse_detune"/>
                                <par value="0" name="detune_type"/>
                                <par_bool value="no" name="freq_envelope_enabled"/>
                                <par_bool value="no" name="freq_lfo_enabled"/>
                              </FREQUENCY_PARAMETERS>
                            </VOICE>
                            <VOICE id="3">
                              <par_bool value="no" name="enabled"/>
                            </VOICE>
                            <VOICE id="4">
                              <par_bool value="no" name="enabled"/>
                            </VOICE>
                            <VOICE id="5">
                              <par_bool value="no" name="enabled"/>
                            </VOICE>
                            <VOICE id="6">
                              <par_bool value="no" name="enabled"/>
                            </VOICE>
                            <VOICE id="7">
                              <par_bool value="no" name="enabled"/>
                            </VOICE>
                          </ADD_SYNTH_PARAMETERS>
                          <par_bool value="no" name="sub_enabled"/>
                          <par_bool value="no" name="pad_enabled"/>
                        </INSTRUMENT_KIT_ITEM>
                        <INSTRUMENT_KIT_ITEM id="1">
                          <par_bool value="no" name="enabled"/>
                        </INSTRUMENT_KIT_ITEM>
                        <INSTRUMENT_KIT_ITEM id="2">
                          <par_bool value="no" name="enabled"/>
                        </INSTRUMENT_KIT_ITEM>
                        <INSTRUMENT_KIT_ITEM id="3">
                          <par_bool value="no" name="enabled"/>
                        </INSTRUMENT_KIT_ITEM>
                        <INSTRUMENT_KIT_ITEM id="4">
                          <par_bool value="no" name="enabled"/>
                        </INSTRUMENT_KIT_ITEM>
                        <INSTRUMENT_KIT_ITEM id="5">
                          <par_bool value="no" name="enabled"/>
                        </INSTRUMENT_KIT_ITEM>
                        <INSTRUMENT_KIT_ITEM id="6">
                          <par_bool value="no" name="enabled"/>
                        </INSTRUMENT_KIT_ITEM>
                        <INSTRUMENT_KIT_ITEM id="7">
                          <par_bool value="no" name="enabled"/>
                        </INSTRUMENT_KIT_ITEM>
                        <INSTRUMENT_KIT_ITEM id="8">
                          <par_bool value="no" name="enabled"/>
                        </INSTRUMENT_KIT_ITEM>
                        <INSTRUMENT_KIT_ITEM id="9">
                          <par_bool value="no" name="enabled"/>
                        </INSTRUMENT_KIT_ITEM>
                        <INSTRUMENT_KIT_ITEM id="10">
                          <par_bool value="no" name="enabled"/>
                        </INSTRUMENT_KIT_ITEM>
                        <INSTRUMENT_KIT_ITEM id="11">
                          <par_bool value="no" name="enabled"/>
                        </INSTRUMENT_KIT_ITEM>
                        <INSTRUMENT_KIT_ITEM id="12">
                          <par_bool value="no" name="enabled"/>
                        </INSTRUMENT_KIT_ITEM>
                        <INSTRUMENT_KIT_ITEM id="13">
                          <par_bool value="no" name="enabled"/>
                        </INSTRUMENT_KIT_ITEM>
                        <INSTRUMENT_KIT_ITEM id="14">
                          <par_bool value="no" name="enabled"/>
                        </INSTRUMENT_KIT_ITEM>
                        <INSTRUMENT_KIT_ITEM id="15">
                          <par_bool value="no" name="enabled"/>
                        </INSTRUMENT_KIT_ITEM>
                      </INSTRUMENT_KIT>
                      <INSTRUMENT_EFFECTS>
                        <INSTRUMENT_EFFECT id="0">
                          <EFFECT>
                            <par value="3" name="type"/>
                            <par value="9" name="preset"/>
                            <EFFECT_PARAMETERS>
                              <par_no id="0">
                                <par value="64" name="par"/>
                              </par_no>
                              <par_no id="1">
                                <par value="64" name="par"/>
                              </par_no>
                              <par_no id="2">
                                <par value="55" name="par"/>
                              </par_no>
                              <par_no id="3">
                                <par value="105" name="par"/>
                              </par_no>
                              <par_no id="5">
                                <par value="24" name="par"/>
                              </par_no>
                              <par_no id="6">
                                <par value="39" name="par"/>
                              </par_no>
                              <par_no id="7">
                                <par value="19" name="par"/>
                              </par_no>
                              <par_no id="8">
                                <par value="17" name="par"/>
                              </par_no>
                              <par_no id="11">
                                <par value="1" name="par"/>
                              </par_no>
                            </EFFECT_PARAMETERS>
                          </EFFECT>
                          <par value="0" name="route"/>
                          <par_bool value="no" name="bypass"/>
                        </INSTRUMENT_EFFECT>
                        <INSTRUMENT_EFFECT id="1">
                          <EFFECT>
                            <par value="0" name="type"/>
                          </EFFECT>
                          <par value="0" name="route"/>
                          <par_bool value="no" name="bypass"/>
                        </INSTRUMENT_EFFECT>
                        <INSTRUMENT_EFFECT id="2">
                          <EFFECT>
                            <par value="0" name="type"/>
                          </EFFECT>
                          <par value="0" name="route"/>
                          <par_bool value="no" name="bypass"/>
                        </INSTRUMENT_EFFECT>
                      </INSTRUMENT_EFFECTS>
                    </INSTRUMENT>
                    <CONTROLLER>
                      <par value="100" name="pitchwheel_bendrange"/>
                      <par_bool value="yes" name="expression_receive"/>
                      <par value="64" name="panning_depth"/>
                      <par value="64" name="filter_cutoff_depth"/>
                      <par value="64" name="filter_q_depth"/>
                      <par value="64" name="bandwidth_depth"/>
                      <par value="80" name="mod_wheel_depth"/>
                      <par_bool value="no" name="mod_wheel_exponential"/>
                      <par_bool value="yes" name="fm_amp_receive"/>
                      <par_bool value="yes" name="volume_receive"/>
                      <par_bool value="yes" name="sustain_receive"/>
                      <par_bool value="yes" name="portamento_receive"/>
                      <par value="64" name="portamento_time"/>
                      <par value="3" name="portamento_pitchthresh"/>
                      <par value="1" name="portamento_pitchthreshtype"/>
                      <par value="0" name="portamento_portamento"/>
                      <par value="64" name="portamento_updowntimestretch"/>
                      <par value="0" name="portamento_proportional"/>
                      <par value="80" name="portamento_proprate"/>
                      <par value="90" name="portamento_propdepth"/>
                      <par value="64" name="resonance_center_depth"/>
                      <par value="64" name="resonance_bandwidth_depth"/>
                    </CONTROLLER>
                  </PART>
                  <PART id="1">
                    <par_bool value="no" name="enabled"/>
                  </PART>
                  <PART id="2">
                    <par_bool value="no" name="enabled"/>
                  </PART>
                  <PART id="3">
                    <par_bool value="no" name="enabled"/>
                  </PART>
                  <PART id="4">
                    <par_bool value="no" name="enabled"/>
                  </PART>
                  <PART id="5">
                    <par_bool value="no" name="enabled"/>
                  </PART>
                  <PART id="6">
                    <par_bool value="no" name="enabled"/>
                  </PART>
                  <PART id="7">
                    <par_bool value="no" name="enabled"/>
                  </PART>
                  <PART id="8">
                    <par_bool value="no" name="enabled"/>
                  </PART>
                  <PART id="9">
                    <par_bool value="no" name="enabled"/>
                  </PART>
                  <PART id="10">
                    <par_bool value="no" name="enabled"/>
                  </PART>
                  <PART id="11">
                    <par_bool value="no" name="enabled"/>
                  </PART>
                  <PART id="12">
                    <par_bool value="no" name="enabled"/>
                  </PART>
                  <PART id="13">
                    <par_bool value="no" name="enabled"/>
                  </PART>
                  <PART id="14">
                    <par_bool value="no" name="enabled"/>
                  </PART>
                  <PART id="15">
                    <par_bool value="no" name="enabled"/>
                  </PART>
                  <SYSTEM_EFFECTS>
                    <SYSTEM_EFFECT id="0">
                      <EFFECT>
                        <par value="0" name="type"/>
                      </EFFECT>
                      <VOLUME id="0">
                        <par value="0" name="vol"/>
                      </VOLUME>
                      <VOLUME id="1">
                        <par value="0" name="vol"/>
                      </VOLUME>
                      <VOLUME id="2">
                        <par value="0" name="vol"/>
                      </VOLUME>
                      <VOLUME id="3">
                        <par value="0" name="vol"/>
                      </VOLUME>
                      <VOLUME id="4">
                        <par value="0" name="vol"/>
                      </VOLUME>
                      <VOLUME id="5">
                        <par value="0" name="vol"/>
                      </VOLUME>
                      <VOLUME id="6">
                        <par value="0" name="vol"/>
                      </VOLUME>
                      <VOLUME id="7">
                        <par value="0" name="vol"/>
                      </VOLUME>
                      <VOLUME id="8">
                        <par value="0" name="vol"/>
                      </VOLUME>
                      <VOLUME id="9">
                        <par value="0" name="vol"/>
                      </VOLUME>
                      <VOLUME id="10">
                        <par value="0" name="vol"/>
                      </VOLUME>
                      <VOLUME id="11">
                        <par value="0" name="vol"/>
                      </VOLUME>
                      <VOLUME id="12">
                        <par value="0" name="vol"/>
                      </VOLUME>
                      <VOLUME id="13">
                        <par value="0" name="vol"/>
                      </VOLUME>
                      <VOLUME id="14">
                        <par value="0" name="vol"/>
                      </VOLUME>
                      <VOLUME id="15">
                        <par value="0" name="vol"/>
                      </VOLUME>
                      <SENDTO id="1">
                        <par value="0" name="send_vol"/>
                      </SENDTO>
                      <SENDTO id="2">
                        <par value="0" name="send_vol"/>
                      </SENDTO>
                      <SENDTO id="3">
                        <par value="0" name="send_vol"/>
                      </SENDTO>
                    </SYSTEM_EFFECT>
                    <SYSTEM_EFFECT id="1">
                      <EFFECT>
                        <par value="0" name="type"/>
                      </EFFECT>
                      <VOLUME id="0">
                        <par value="0" name="vol"/>
                      </VOLUME>
                      <VOLUME id="1">
                        <par value="0" name="vol"/>
                      </VOLUME>
                      <VOLUME id="2">
                        <par value="0" name="vol"/>
                      </VOLUME>
                      <VOLUME id="3">
                        <par value="0" name="vol"/>
                      </VOLUME>
                      <VOLUME id="4">
                        <par value="0" name="vol"/>
                      </VOLUME>
                      <VOLUME id="5">
                        <par value="0" name="vol"/>
                      </VOLUME>
                      <VOLUME id="6">
                        <par value="0" name="vol"/>
                      </VOLUME>
                      <VOLUME id="7">
                        <par value="0" name="vol"/>
                      </VOLUME>
                      <VOLUME id="8">
                        <par value="0" name="vol"/>
                      </VOLUME>
                      <VOLUME id="9">
                        <par value="0" name="vol"/>
                      </VOLUME>
                      <VOLUME id="10">
                        <par value="0" name="vol"/>
                      </VOLUME>
                      <VOLUME id="11">
                        <par value="0" name="vol"/>
                      </VOLUME>
                      <VOLUME id="12">
                        <par value="0" name="vol"/>
                      </VOLUME>
                      <VOLUME id="13">
                        <par value="0" name="vol"/>
                      </VOLUME>
                      <VOLUME id="14">
                        <par value="0" name="vol"/>
                      </VOLUME>
                      <VOLUME id="15">
                        <par value="0" name="vol"/>
                      </VOLUME>
                      <SENDTO id="2">
                        <par value="0" name="send_vol"/>
                      </SENDTO>
                      <SENDTO id="3">
                        <par value="0" name="send_vol"/>
                      </SENDTO>
                    </SYSTEM_EFFECT>
                    <SYSTEM_EFFECT id="2">
                      <EFFECT>
                        <par value="0" name="type"/>
                      </EFFECT>
                      <VOLUME id="0">
                        <par value="0" name="vol"/>
                      </VOLUME>
                      <VOLUME id="1">
                        <par value="0" name="vol"/>
                      </VOLUME>
                      <VOLUME id="2">
                        <par value="0" name="vol"/>
                      </VOLUME>
                      <VOLUME id="3">
                        <par value="0" name="vol"/>
                      </VOLUME>
                      <VOLUME id="4">
                        <par value="0" name="vol"/>
                      </VOLUME>
                      <VOLUME id="5">
                        <par value="0" name="vol"/>
                      </VOLUME>
                      <VOLUME id="6">
                        <par value="0" name="vol"/>
                      </VOLUME>
                      <VOLUME id="7">
                        <par value="0" name="vol"/>
                      </VOLUME>
                      <VOLUME id="8">
                        <par value="0" name="vol"/>
                      </VOLUME>
                      <VOLUME id="9">
                        <par value="0" name="vol"/>
                      </VOLUME>
                      <VOLUME id="10">
                        <par value="0" name="vol"/>
                      </VOLUME>
                      <VOLUME id="11">
                        <par value="0" name="vol"/>
                      </VOLUME>
                      <VOLUME id="12">
                        <par value="0" name="vol"/>
                      </VOLUME>
                      <VOLUME id="13">
                        <par value="0" name="vol"/>
                      </VOLUME>
                      <VOLUME id="14">
                        <par value="0" name="vol"/>
                      </VOLUME>
                      <VOLUME id="15">
                        <par value="0" name="vol"/>
                      </VOLUME>
                      <SENDTO id="3">
                        <par value="0" name="send_vol"/>
                      </SENDTO>
                    </SYSTEM_EFFECT>
                    <SYSTEM_EFFECT id="3">
                      <EFFECT>
                        <par value="0" name="type"/>
                      </EFFECT>
                      <VOLUME id="0">
                        <par value="0" name="vol"/>
                      </VOLUME>
                      <VOLUME id="1">
                        <par value="0" name="vol"/>
                      </VOLUME>
                      <VOLUME id="2">
                        <par value="0" name="vol"/>
                      </VOLUME>
                      <VOLUME id="3">
                        <par value="0" name="vol"/>
                      </VOLUME>
                      <VOLUME id="4">
                        <par value="0" name="vol"/>
                      </VOLUME>
                      <VOLUME id="5">
                        <par value="0" name="vol"/>
                      </VOLUME>
                      <VOLUME id="6">
                        <par value="0" name="vol"/>
                      </VOLUME>
                      <VOLUME id="7">
                        <par value="0" name="vol"/>
                      </VOLUME>
                      <VOLUME id="8">
                        <par value="0" name="vol"/>
                      </VOLUME>
                      <VOLUME id="9">
                        <par value="0" name="vol"/>
                      </VOLUME>
                      <VOLUME id="10">
                        <par value="0" name="vol"/>
                      </VOLUME>
                      <VOLUME id="11">
                        <par value="0" name="vol"/>
                      </VOLUME>
                      <VOLUME id="12">
                        <par value="0" name="vol"/>
                      </VOLUME>
                      <VOLUME id="13">
                        <par value="0" name="vol"/>
                      </VOLUME>
                      <VOLUME id="14">
                        <par value="0" name="vol"/>
                      </VOLUME>
                      <VOLUME id="15">
                        <par value="0" name="vol"/>
                      </VOLUME>
                    </SYSTEM_EFFECT>
                  </SYSTEM_EFFECTS>
                  <INSERTION_EFFECTS>
                    <INSERTION_EFFECT id="0">
                      <par value="-1" name="part"/>
                      <EFFECT>
                        <par value="0" name="type"/>
                      </EFFECT>
                    </INSERTION_EFFECT>
                    <INSERTION_EFFECT id="1">
                      <par value="-1" name="part"/>
                      <EFFECT>
                        <par value="0" name="type"/>
                      </EFFECT>
                    </INSERTION_EFFECT>
                    <INSERTION_EFFECT id="2">
                      <par value="-1" name="part"/>
                      <EFFECT>
                        <par value="0" name="type"/>
                      </EFFECT>
                    </INSERTION_EFFECT>
                    <INSERTION_EFFECT id="3">
                      <par value="-1" name="part"/>
                      <EFFECT>
                        <par value="0" name="type"/>
                      </EFFECT>
                    </INSERTION_EFFECT>
                    <INSERTION_EFFECT id="4">
                      <par value="-1" name="part"/>
                      <EFFECT>
                        <par value="0" name="type"/>
                      </EFFECT>
                    </INSERTION_EFFECT>
                    <INSERTION_EFFECT id="5">
                      <par value="-1" name="part"/>
                      <EFFECT>
                        <par value="0" name="type"/>
                      </EFFECT>
                    </INSERTION_EFFECT>
                    <INSERTION_EFFECT id="6">
                      <par value="-1" name="part"/>
                      <EFFECT>
                        <par value="0" name="type"/>
                      </EFFECT>
                    </INSERTION_EFFECT>
                    <INSERTION_EFFECT id="7">
                      <par value="-1" name="part"/>
                      <EFFECT>
                        <par value="0" name="type"/>
                      </EFFECT>
                    </INSERTION_EFFECT>
                  </INSERTION_EFFECTS>
                </MASTER>
              </ZynAddSubFX-data>
            </zynaddsubfx>
          </instrument>
          <eldata fres="0.5" fcut="14000" ftype="0" fwet="0">
            <elvol lspd_denominator="4" lamt="0" lshp="0" x100="0" lspd="0.1" rel="0.1" dec="0.5" sustain="0.5" lspd_numerator="4" att="0" amt="0" ctlenvamt="0" hold="0.5" lspd_syncmode="0" lpdel="0" latt="0" pdel="0" userwavefile=""/>
            <elcut lspd_denominator="4" lamt="0" lshp="0" x100="0" lspd="0.1" rel="0.1" dec="0.5" sustain="0.5" lspd_numerator="4" att="0" amt="0" ctlenvamt="0" hold="0.5" lspd_syncmode="0" lpdel="0" latt="0" pdel="0" userwavefile=""/>
            <elres lspd_denominator="4" lamt="0" lshp="0" x100="0" lspd="0.1" rel="0.1" dec="0.5" sustain="0.5" lspd_numerator="4" att="0" amt="0" ctlenvamt="0" hold="0.5" lspd_syncmode="0" lpdel="0" latt="0" pdel="0" userwavefile=""/>
          </eldata>
          <chordcreator chord="0" chord-enabled="0" chordrange="1"/>
          <arpeggiator arpmode="0" arptime_numerator="4" arptime="200" arpgate="100" arprange="1" arp="0" arpcycle="0" arpskip="0" arp-enabled="0" arptime_denominator="4" arpmiss="0" arpdir="0" arptime_syncmode="0"/>
          <midiport outputcontroller="0" readable="0" outputchannel="1" inputcontroller="0" fixedoutputvelocity="-1" outputprogram="1" writable="0" fixedoutputnote="-1" basevelocity="63" inputchannel="0" fixedinputvelocity="-1"/>
          <fxchain enabled="1" numofeffects="1">
            <effect wet="1" autoquit_syncmode="0" autoquit="1" name="stereoenhancer" on="1" gate="0" autoquit_numerator="4" autoquit_denominator="4">
              <stereoenhancercontrols width="77.929688"/>
              <key/>
            </effect>
          </fxchain>
        </instrumenttrack>
        <pattern type="1" name="bass" muted="0" pos="15360" steps="16">
          <note pos="0" vol="100" key="40" len="12" pan="0"/>
          <note pos="12" vol="100" key="43" len="12" pan="0"/>
          <note pos="24" vol="100" key="47" len="12" pan="0"/>
          <note pos="36" vol="100" key="40" len="12" pan="0"/>
          <note pos="48" vol="100" key="43" len="12" pan="0"/>
          <note pos="60" vol="100" key="47" len="12" pan="0"/>
          <note pos="72" vol="100" key="40" len="12" pan="0"/>
          <note pos="84" vol="100" key="43" len="12" pan="0"/>
          <note pos="96" vol="100" key="47" len="12" pan="0"/>
          <note pos="108" vol="100" key="40" len="12" pan="0"/>
          <note pos="120" vol="100" key="43" len="12" pan="0"/>
          <note pos="132" vol="100" key="47" len="12" pan="0"/>
          <note pos="144" vol="100" key="40" len="12" pan="0"/>
          <note pos="156" vol="100" key="43" len="12" pan="0"/>
          <note pos="168" vol="100" key="48" len="12" pan="0"/>
          <note pos="180" vol="100" key="43" len="12" pan="0"/>
          <note pos="192" vol="100" key="40" len="12" pan="0"/>
          <note pos="204" vol="100" key="43" len="12" pan="0"/>
          <note pos="216" vol="100" key="47" len="12" pan="0"/>
          <note pos="228" vol="100" key="40" len="12" pan="0"/>
          <note pos="240" vol="100" key="43" len="12" pan="0"/>
          <note pos="252" vol="100" key="47" len="12" pan="0"/>
          <note pos="264" vol="100" key="40" len="12" pan="0"/>
          <note pos="276" vol="100" key="43" len="12" pan="0"/>
          <note pos="288" vol="100" key="47" len="12" pan="0"/>
          <note pos="300" vol="100" key="40" len="12" pan="0"/>
          <note pos="312" vol="100" key="43" len="12" pan="0"/>
          <note pos="324" vol="100" key="47" len="12" pan="0"/>
          <note pos="336" vol="100" key="40" len="12" pan="0"/>
          <note pos="348" vol="100" key="43" len="12" pan="0"/>
          <note pos="360" vol="100" key="48" len="12" pan="0"/>
          <note pos="372" vol="100" key="43" len="12" pan="0"/>
          <note pos="384" vol="100" key="40" len="12" pan="0"/>
          <note pos="396" vol="100" key="43" len="12" pan="0"/>
          <note pos="408" vol="100" key="47" len="12" pan="0"/>
          <note pos="420" vol="100" key="40" len="12" pan="0"/>
          <note pos="432" vol="100" key="43" len="12" pan="0"/>
          <note pos="444" vol="100" key="47" len="12" pan="0"/>
          <note pos="456" vol="100" key="40" len="12" pan="0"/>
          <note pos="468" vol="100" key="43" len="12" pan="0"/>
          <note pos="480" vol="100" key="47" len="12" pan="0"/>
          <note pos="492" vol="100" key="40" len="12" pan="0"/>
          <note pos="504" vol="100" key="43" len="12" pan="0"/>
          <note pos="516" vol="100" key="47" len="12" pan="0"/>
          <note pos="528" vol="100" key="40" len="12" pan="0"/>
          <note pos="540" vol="100" key="43" len="12" pan="0"/>
          <note pos="552" vol="100" key="48" len="12" pan="0"/>
          <note pos="564" vol="100" key="43" len="12" pan="0"/>
          <note pos="576" vol="100" key="40" len="12" pan="0"/>
          <note pos="588" vol="100" key="43" len="12" pan="0"/>
          <note pos="600" vol="100" key="47" len="12" pan="0"/>
          <note pos="612" vol="100" key="40" len="12" pan="0"/>
          <note pos="624" vol="100" key="43" len="12" pan="0"/>
          <note pos="636" vol="100" key="47" len="12" pan="0"/>
          <note pos="648" vol="100" key="40" len="12" pan="0"/>
          <note pos="660" vol="100" key="43" len="12" pan="0"/>
          <note pos="672" vol="100" key="47" len="12" pan="0"/>
          <note pos="684" vol="100" key="40" len="12" pan="0"/>
          <note pos="696" vol="100" key="43" len="12" pan="0"/>
          <note pos="708" vol="100" key="47" len="12" pan="0"/>
          <note pos="720" vol="100" key="40" len="12" pan="0"/>
          <note pos="732" vol="100" key="43" len="12" pan="0"/>
          <note pos="744" vol="100" key="48" len="12" pan="0"/>
          <note pos="756" vol="100" key="43" len="12" pan="0"/>
          <note pos="768" vol="100" key="40" len="12" pan="0"/>
          <note pos="780" vol="100" key="43" len="12" pan="0"/>
          <note pos="792" vol="100" key="47" len="12" pan="0"/>
          <note pos="804" vol="100" key="40" len="12" pan="0"/>
          <note pos="816" vol="100" key="43" len="12" pan="0"/>
          <note pos="828" vol="100" key="47" len="12" pan="0"/>
          <note pos="840" vol="100" key="40" len="12" pan="0"/>
          <note pos="852" vol="100" key="43" len="12" pan="0"/>
          <note pos="864" vol="100" key="47" len="12" pan="0"/>
          <note pos="876" vol="100" key="40" len="12" pan="0"/>
          <note pos="888" vol="100" key="43" len="12" pan="0"/>
          <note pos="900" vol="100" key="47" len="12" pan="0"/>
          <note pos="912" vol="100" key="40" len="12" pan="0"/>
          <note pos="924" vol="100" key="43" len="12" pan="0"/>
          <note pos="936" vol="100" key="48" len="12" pan="0"/>
          <note pos="948" vol="100" key="43" len="12" pan="0"/>
          <note pos="960" vol="100" key="40" len="12" pan="0"/>
          <note pos="972" vol="100" key="43" len="12" pan="0"/>
          <note pos="984" vol="100" key="47" len="12" pan="0"/>
          <note pos="996" vol="100" key="40" len="12" pan="0"/>
          <note pos="1008" vol="100" key="43" len="12" pan="0"/>
          <note pos="1020" vol="100" key="47" len="12" pan="0"/>
          <note pos="1032" vol="100" key="40" len="12" pan="0"/>
          <note pos="1044" vol="100" key="43" len="12" pan="0"/>
          <note pos="1056" vol="100" key="47" len="12" pan="0"/>
          <note pos="1068" vol="100" key="40" len="12" pan="0"/>
          <note pos="1080" vol="100" key="43" len="12" pan="0"/>
          <note pos="1092" vol="100" key="47" len="12" pan="0"/>
          <note pos="1104" vol="100" key="40" len="12" pan="0"/>
          <note pos="1116" vol="100" key="43" len="12" pan="0"/>
          <note pos="1128" vol="100" key="48" len="12" pan="0"/>
          <note pos="1140" vol="100" key="43" len="12" pan="0"/>
          <note pos="1152" vol="100" key="40" len="12" pan="0"/>
          <note pos="1164" vol="100" key="43" len="12" pan="0"/>
          <note pos="1176" vol="100" key="47" len="12" pan="0"/>
          <note pos="1188" vol="100" key="40" len="12" pan="0"/>
          <note pos="1200" vol="100" key="43" len="12" pan="0"/>
          <note pos="1212" vol="100" key="47" len="12" pan="0"/>
          <note pos="1224" vol="100" key="40" len="12" pan="0"/>
          <note pos="1236" vol="100" key="43" len="12" pan="0"/>
          <note pos="1248" vol="100" key="47" len="12" pan="0"/>
          <note pos="1260" vol="100" key="40" len="12" pan="0"/>
          <note pos="1272" vol="100" key="43" len="12" pan="0"/>
          <note pos="1284" vol="100" key="47" len="12" pan="0"/>
          <note pos="1296" vol="100" key="40" len="12" pan="0"/>
          <note pos="1308" vol="100" key="43" len="12" pan="0"/>
          <note pos="1320" vol="100" key="48" len="12" pan="0"/>
          <note pos="1332" vol="100" key="43" len="12" pan="0"/>
          <note pos="1344" vol="100" key="40" len="12" pan="0"/>
          <note pos="1356" vol="100" key="43" len="12" pan="0"/>
          <note pos="1368" vol="100" key="47" len="12" pan="0"/>
          <note pos="1380" vol="100" key="40" len="12" pan="0"/>
          <note pos="1392" vol="100" key="43" len="12" pan="0"/>
          <note pos="1404" vol="100" key="47" len="12" pan="0"/>
          <note pos="1416" vol="100" key="40" len="12" pan="0"/>
          <note pos="1428" vol="100" key="43" len="12" pan="0"/>
          <note pos="1440" vol="100" key="47" len="12" pan="0"/>
          <note pos="1452" vol="100" key="40" len="12" pan="0"/>
          <note pos="1464" vol="100" key="43" len="12" pan="0"/>
          <note pos="1476" vol="100" key="47" len="12" pan="0"/>
          <note pos="1488" vol="100" key="40" len="12" pan="0"/>
          <note pos="1500" vol="100" key="43" len="12" pan="0"/>
          <note pos="1512" vol="100" key="48" len="12" pan="0"/>
          <note pos="1524" vol="100" key="43" len="12" pan="0"/>
        </pattern>
        <pattern type="1" name="bass" muted="0" pos="16896" steps="16">
          <note pos="0" vol="100" key="40" len="12" pan="0"/>
          <note pos="12" vol="100" key="43" len="12" pan="0"/>
          <note pos="24" vol="100" key="47" len="12" pan="0"/>
          <note pos="36" vol="100" key="40" len="12" pan="0"/>
          <note pos="48" vol="100" key="43" len="12" pan="0"/>
          <note pos="60" vol="100" key="47" len="12" pan="0"/>
          <note pos="72" vol="100" key="40" len="12" pan="0"/>
          <note pos="84" vol="100" key="43" len="12" pan="0"/>
          <note pos="96" vol="100" key="47" len="12" pan="0"/>
          <note pos="108" vol="100" key="40" len="12" pan="0"/>
          <note pos="120" vol="100" key="43" len="12" pan="0"/>
          <note pos="132" vol="100" key="47" len="12" pan="0"/>
          <note pos="144" vol="100" key="40" len="12" pan="0"/>
          <note pos="156" vol="100" key="43" len="12" pan="0"/>
          <note pos="168" vol="100" key="48" len="12" pan="0"/>
          <note pos="180" vol="100" key="43" len="12" pan="0"/>
          <note pos="192" vol="100" key="40" len="12" pan="0"/>
          <note pos="204" vol="100" key="43" len="12" pan="0"/>
          <note pos="216" vol="100" key="47" len="12" pan="0"/>
          <note pos="228" vol="100" key="40" len="12" pan="0"/>
          <note pos="240" vol="100" key="43" len="12" pan="0"/>
          <note pos="252" vol="100" key="47" len="12" pan="0"/>
          <note pos="264" vol="100" key="40" len="12" pan="0"/>
          <note pos="276" vol="100" key="43" len="12" pan="0"/>
          <note pos="288" vol="100" key="47" len="12" pan="0"/>
          <note pos="300" vol="100" key="40" len="12" pan="0"/>
          <note pos="312" vol="100" key="43" len="12" pan="0"/>
          <note pos="324" vol="100" key="47" len="12" pan="0"/>
          <note pos="336" vol="100" key="40" len="12" pan="0"/>
          <note pos="348" vol="100" key="43" len="12" pan="0"/>
          <note pos="360" vol="100" key="48" len="12" pan="0"/>
          <note pos="372" vol="100" key="43" len="12" pan="0"/>
          <note pos="384" vol="100" key="40" len="12" pan="0"/>
          <note pos="396" vol="100" key="43" len="12" pan="0"/>
          <note pos="408" vol="100" key="47" len="12" pan="0"/>
          <note pos="420" vol="100" key="40" len="12" pan="0"/>
          <note pos="432" vol="100" key="43" len="12" pan="0"/>
          <note pos="444" vol="100" key="47" len="12" pan="0"/>
          <note pos="456" vol="100" key="40" len="12" pan="0"/>
          <note pos="468" vol="100" key="43" len="12" pan="0"/>
          <note pos="480" vol="100" key="47" len="12" pan="0"/>
          <note pos="492" vol="100" key="40" len="12" pan="0"/>
          <note pos="504" vol="100" key="43" len="12" pan="0"/>
          <note pos="516" vol="100" key="47" len="12" pan="0"/>
          <note pos="528" vol="100" key="40" len="12" pan="0"/>
          <note pos="540" vol="100" key="43" len="12" pan="0"/>
          <note pos="552" vol="100" key="48" len="12" pan="0"/>
          <note pos="564" vol="100" key="43" len="12" pan="0"/>
          <note pos="576" vol="100" key="40" len="12" pan="0"/>
          <note pos="588" vol="100" key="43" len="12" pan="0"/>
          <note pos="600" vol="100" key="47" len="12" pan="0"/>
          <note pos="612" vol="100" key="40" len="12" pan="0"/>
          <note pos="624" vol="100" key="43" len="12" pan="0"/>
          <note pos="636" vol="100" key="47" len="12" pan="0"/>
          <note pos="648" vol="100" key="40" len="12" pan="0"/>
          <note pos="660" vol="100" key="43" len="12" pan="0"/>
          <note pos="672" vol="100" key="47" len="12" pan="0"/>
          <note pos="684" vol="100" key="40" len="12" pan="0"/>
          <note pos="696" vol="100" key="43" len="12" pan="0"/>
          <note pos="708" vol="100" key="47" len="12" pan="0"/>
          <note pos="720" vol="100" key="40" len="12" pan="0"/>
          <note pos="732" vol="100" key="43" len="12" pan="0"/>
          <note pos="744" vol="100" key="48" len="12" pan="0"/>
          <note pos="756" vol="100" key="43" len="12" pan="0"/>
          <note pos="768" vol="100" key="40" len="12" pan="0"/>
          <note pos="780" vol="100" key="43" len="12" pan="0"/>
          <note pos="792" vol="100" key="47" len="12" pan="0"/>
          <note pos="804" vol="100" key="40" len="12" pan="0"/>
          <note pos="816" vol="100" key="43" len="12" pan="0"/>
          <note pos="828" vol="100" key="47" len="12" pan="0"/>
          <note pos="840" vol="100" key="40" len="12" pan="0"/>
          <note pos="852" vol="100" key="43" len="12" pan="0"/>
          <note pos="864" vol="100" key="47" len="12" pan="0"/>
          <note pos="876" vol="100" key="40" len="12" pan="0"/>
          <note pos="888" vol="100" key="43" len="12" pan="0"/>
          <note pos="900" vol="100" key="47" len="12" pan="0"/>
          <note pos="912" vol="100" key="40" len="12" pan="0"/>
          <note pos="924" vol="100" key="43" len="12" pan="0"/>
          <note pos="936" vol="100" key="48" len="12" pan="0"/>
          <note pos="948" vol="100" key="43" len="12" pan="0"/>
          <note pos="960" vol="100" key="40" len="12" pan="0"/>
          <note pos="972" vol="100" key="43" len="12" pan="0"/>
          <note pos="984" vol="100" key="47" len="12" pan="0"/>
          <note pos="996" vol="100" key="40" len="12" pan="0"/>
          <note pos="1008" vol="100" key="43" len="12" pan="0"/>
          <note pos="1020" vol="100" key="47" len="12" pan="0"/>
          <note pos="1032" vol="100" key="40" len="12" pan="0"/>
          <note pos="1044" vol="100" key="43" len="12" pan="0"/>
          <note pos="1056" vol="100" key="47" len="12" pan="0"/>
          <note pos="1068" vol="100" key="40" len="12" pan="0"/>
          <note pos="1080" vol="100" key="43" len="12" pan="0"/>
          <note pos="1092" vol="100" key="47" len="12" pan="0"/>
          <note pos="1104" vol="100" key="40" len="12" pan="0"/>
          <note pos="1116" vol="100" key="43" len="12" pan="0"/>
          <note pos="1128" vol="100" key="48" len="12" pan="0"/>
          <note pos="1140" vol="100" key="43" len="12" pan="0"/>
          <note pos="1152" vol="100" key="40" len="12" pan="0"/>
          <note pos="1164" vol="100" key="43" len="12" pan="0"/>
          <note pos="1176" vol="100" key="47" len="12" pan="0"/>
          <note pos="1188" vol="100" key="40" len="12" pan="0"/>
          <note pos="1200" vol="100" key="43" len="12" pan="0"/>
          <note pos="1212" vol="100" key="47" len="12" pan="0"/>
          <note pos="1224" vol="100" key="40" len="12" pan="0"/>
          <note pos="1236" vol="100" key="43" len="12" pan="0"/>
          <note pos="1248" vol="100" key="47" len="12" pan="0"/>
          <note pos="1260" vol="100" key="40" len="12" pan="0"/>
          <note pos="1272" vol="100" key="43" len="12" pan="0"/>
          <note pos="1284" vol="100" key="47" len="12" pan="0"/>
          <note pos="1296" vol="100" key="40" len="12" pan="0"/>
          <note pos="1308" vol="100" key="43" len="12" pan="0"/>
          <note pos="1320" vol="100" key="48" len="12" pan="0"/>
          <note pos="1332" vol="100" key="43" len="12" pan="0"/>
          <note pos="1344" vol="100" key="40" len="12" pan="0"/>
          <note pos="1356" vol="100" key="43" len="12" pan="0"/>
          <note pos="1368" vol="100" key="47" len="12" pan="0"/>
          <note pos="1380" vol="100" key="40" len="12" pan="0"/>
          <note pos="1392" vol="100" key="43" len="12" pan="0"/>
          <note pos="1404" vol="100" key="47" len="12" pan="0"/>
          <note pos="1416" vol="100" key="40" len="12" pan="0"/>
          <note pos="1428" vol="100" key="43" len="12" pan="0"/>
          <note pos="1440" vol="100" key="47" len="12" pan="0"/>
          <note pos="1452" vol="100" key="40" len="12" pan="0"/>
          <note pos="1464" vol="100" key="43" len="12" pan="0"/>
          <note pos="1476" vol="100" key="47" len="12" pan="0"/>
          <note pos="1488" vol="100" key="40" len="12" pan="0"/>
          <note pos="1500" vol="100" key="43" len="12" pan="0"/>
          <note pos="1512" vol="100" key="48" len="12" pan="0"/>
          <note pos="1524" vol="100" key="43" len="12" pan="0"/>
        </pattern>
        <pattern type="1" name="bass" muted="0" pos="18432" steps="16">
          <note pos="0" vol="100" key="40" len="12" pan="0"/>
          <note pos="12" vol="100" key="43" len="12" pan="0"/>
          <note pos="24" vol="100" key="47" len="12" pan="0"/>
          <note pos="36" vol="100" key="40" len="12" pan="0"/>
          <note pos="48" vol="100" key="43" len="12" pan="0"/>
          <note pos="60" vol="100" key="47" len="12" pan="0"/>
          <note pos="72" vol="100" key="40" len="12" pan="0"/>
          <note pos="84" vol="100" key="43" len="12" pan="0"/>
          <note pos="96" vol="100" key="47" len="12" pan="0"/>
          <note pos="108" vol="100" key="40" len="12" pan="0"/>
          <note pos="120" vol="100" key="43" len="12" pan="0"/>
          <note pos="132" vol="100" key="47" len="12" pan="0"/>
          <note pos="144" vol="100" key="40" len="12" pan="0"/>
          <note pos="156" vol="100" key="43" len="12" pan="0"/>
          <note pos="168" vol="100" key="48" len="12" pan="0"/>
          <note pos="180" vol="100" key="43" len="12" pan="0"/>
          <note pos="192" vol="100" key="40" len="12" pan="0"/>
          <note pos="204" vol="100" key="43" len="12" pan="0"/>
          <note pos="216" vol="100" key="47" len="12" pan="0"/>
          <note pos="228" vol="100" key="40" len="12" pan="0"/>
          <note pos="240" vol="100" key="43" len="12" pan="0"/>
          <note pos="252" vol="100" key="47" len="12" pan="0"/>
          <note pos="264" vol="100" key="40" len="12" pan="0"/>
          <note pos="276" vol="100" key="43" len="12" pan="0"/>
          <note pos="288" vol="100" key="47" len="12" pan="0"/>
          <note pos="300" vol="100" key="40" len="12" pan="0"/>
          <note pos="312" vol="100" key="43" len="12" pan="0"/>
          <note pos="324" vol="100" key="47" len="12" pan="0"/>
          <note pos="336" vol="100" key="40" len="12" pan="0"/>
          <note pos="348" vol="100" key="43" len="12" pan="0"/>
          <note pos="360" vol="100" key="48" len="12" pan="0"/>
          <note pos="372" vol="100" key="43" len="12" pan="0"/>
          <note pos="384" vol="100" key="40" len="12" pan="0"/>
          <note pos="396" vol="100" key="43" len="12" pan="0"/>
          <note pos="408" vol="100" key="47" len="12" pan="0"/>
          <note pos="420" vol="100" key="40" len="12" pan="0"/>
          <note pos="432" vol="100" key="43" len="12" pan="0"/>
          <note pos="444" vol="100" key="47" len="12" pan="0"/>
          <note pos="456" vol="100" key="40" len="12" pan="0"/>
          <note pos="468" vol="100" key="43" len="12" pan="0"/>
          <note pos="480" vol="100" key="47" len="12" pan="0"/>
          <note pos="492" vol="100" key="40" len="12" pan="0"/>
          <note pos="504" vol="100" key="43" len="12" pan="0"/>
          <note pos="516" vol="100" key="47" len="12" pan="0"/>
          <note pos="528" vol="100" key="40" len="12" pan="0"/>
          <note pos="540" vol="100" key="43" len="12" pan="0"/>
          <note pos="552" vol="100" key="48" len="12" pan="0"/>
          <note pos="564" vol="100" key="43" len="12" pan="0"/>
          <note pos="576" vol="100" key="40" len="12" pan="0"/>
          <note pos="588" vol="100" key="43" len="12" pan="0"/>
          <note pos="600" vol="100" key="47" len="12" pan="0"/>
          <note pos="612" vol="100" key="40" len="12" pan="0"/>
          <note pos="624" vol="100" key="43" len="12" pan="0"/>
          <note pos="636" vol="100" key="47" len="12" pan="0"/>
          <note pos="648" vol="100" key="40" len="12" pan="0"/>
          <note pos="660" vol="100" key="43" len="12" pan="0"/>
          <note pos="672" vol="100" key="47" len="12" pan="0"/>
          <note pos="684" vol="100" key="40" len="12" pan="0"/>
          <note pos="696" vol="100" key="43" len="12" pan="0"/>
          <note pos="708" vol="100" key="47" len="12" pan="0"/>
          <note pos="720" vol="100" key="40" len="12" pan="0"/>
          <note pos="732" vol="100" key="43" len="12" pan="0"/>
          <note pos="744" vol="100" key="48" len="12" pan="0"/>
          <note pos="756" vol="100" key="43" len="12" pan="0"/>
          <note pos="768" vol="100" key="40" len="12" pan="0"/>
          <note pos="780" vol="100" key="43" len="12" pan="0"/>
          <note pos="792" vol="100" key="47" len="12" pan="0"/>
          <note pos="804" vol="100" key="40" len="12" pan="0"/>
          <note pos="816" vol="100" key="43" len="12" pan="0"/>
          <note pos="828" vol="100" key="47" len="12" pan="0"/>
          <note pos="840" vol="100" key="40" len="12" pan="0"/>
          <note pos="852" vol="100" key="43" len="12" pan="0"/>
          <note pos="864" vol="100" key="47" len="12" pan="0"/>
          <note pos="876" vol="100" key="40" len="12" pan="0"/>
          <note pos="888" vol="100" key="43" len="12" pan="0"/>
          <note pos="900" vol="100" key="47" len="12" pan="0"/>
          <note pos="912" vol="100" key="40" len="12" pan="0"/>
          <note pos="924" vol="100" key="43" len="12" pan="0"/>
          <note pos="936" vol="100" key="48" len="12" pan="0"/>
          <note pos="948" vol="100" key="43" len="12" pan="0"/>
          <note pos="960" vol="100" key="40" len="12" pan="0"/>
          <note pos="972" vol="100" key="43" len="12" pan="0"/>
          <note pos="984" vol="100" key="47" len="12" pan="0"/>
          <note pos="996" vol="100" key="40" len="12" pan="0"/>
          <note pos="1008" vol="100" key="43" len="12" pan="0"/>
          <note pos="1020" vol="100" key="47" len="12" pan="0"/>
          <note pos="1032" vol="100" key="40" len="12" pan="0"/>
          <note pos="1044" vol="100" key="43" len="12" pan="0"/>
          <note pos="1056" vol="100" key="47" len="12" pan="0"/>
          <note pos="1068" vol="100" key="40" len="12" pan="0"/>
          <note pos="1080" vol="100" key="43" len="12" pan="0"/>
          <note pos="1092" vol="100" key="47" len="12" pan="0"/>
          <note pos="1104" vol="100" key="40" len="12" pan="0"/>
          <note pos="1116" vol="100" key="43" len="12" pan="0"/>
          <note pos="1128" vol="100" key="48" len="12" pan="0"/>
          <note pos="1140" vol="100" key="43" len="12" pan="0"/>
          <note pos="1152" vol="100" key="40" len="12" pan="0"/>
          <note pos="1164" vol="100" key="43" len="12" pan="0"/>
          <note pos="1176" vol="100" key="47" len="12" pan="0"/>
          <note pos="1188" vol="100" key="40" len="12" pan="0"/>
          <note pos="1200" vol="100" key="43" len="12" pan="0"/>
          <note pos="1212" vol="100" key="47" len="12" pan="0"/>
          <note pos="1224" vol="100" key="40" len="12" pan="0"/>
          <note pos="1236" vol="100" key="43" len="12" pan="0"/>
          <note pos="1248" vol="100" key="47" len="12" pan="0"/>
          <note pos="1260" vol="100" key="40" len="12" pan="0"/>
          <note pos="1272" vol="100" key="43" len="12" pan="0"/>
          <note pos="1284" vol="100" key="47" len="12" pan="0"/>
          <note pos="1296" vol="100" key="40" len="12" pan="0"/>
          <note pos="1308" vol="100" key="43" len="12" pan="0"/>
          <note pos="1320" vol="100" key="48" len="12" pan="0"/>
          <note pos="1332" vol="100" key="43" len="12" pan="0"/>
          <note pos="1344" vol="100" key="40" len="12" pan="0"/>
          <note pos="1356" vol="100" key="43" len="12" pan="0"/>
          <note pos="1368" vol="100" key="47" len="12" pan="0"/>
          <note pos="1380" vol="100" key="40" len="12" pan="0"/>
          <note pos="1392" vol="100" key="43" len="12" pan="0"/>
          <note pos="1404" vol="100" key="47" len="12" pan="0"/>
          <note pos="1416" vol="100" key="40" len="12" pan="0"/>
          <note pos="1428" vol="100" key="43" len="12" pan="0"/>
          <note pos="1440" vol="100" key="47" len="12" pan="0"/>
          <note pos="1452" vol="100" key="40" len="12" pan="0"/>
          <note pos="1464" vol="100" key="43" len="12" pan="0"/>
          <note pos="1476" vol="100" key="47" len="12" pan="0"/>
          <note pos="1488" vol="100" key="40" len="12" pan="0"/>
          <note pos="1500" vol="100" key="43" len="12" pan="0"/>
          <note pos="1512" vol="100" key="48" len="12" pan="0"/>
          <note pos="1524" vol="100" key="43" len="12" pan="0"/>
        </pattern>
        <pattern type="1" name="bass" muted="0" pos="19968" steps="16">
          <note pos="0" vol="100" key="40" len="192" pan="0"/>
        </pattern>
        <pattern type="1" name="bass" muted="0" pos="13824" steps="16">
          <note pos="0" vol="100" key="40" len="12" pan="0"/>
          <note pos="12" vol="100" key="43" len="12" pan="0"/>
          <note pos="24" vol="100" key="47" len="12" pan="0"/>
          <note pos="36" vol="100" key="40" len="12" pan="0"/>
          <note pos="48" vol="100" key="43" len="12" pan="0"/>
          <note pos="60" vol="100" key="47" len="12" pan="0"/>
          <note pos="72" vol="100" key="40" len="12" pan="0"/>
          <note pos="84" vol="100" key="43" len="12" pan="0"/>
          <note pos="96" vol="100" key="47" len="12" pan="0"/>
          <note pos="108" vol="100" key="40" len="12" pan="0"/>
          <note pos="120" vol="100" key="43" len="12" pan="0"/>
          <note pos="132" vol="100" key="47" len="12" pan="0"/>
          <note pos="144" vol="100" key="40" len="12" pan="0"/>
          <note pos="156" vol="100" key="43" len="12" pan="0"/>
          <note pos="168" vol="100" key="48" len="12" pan="0"/>
          <note pos="180" vol="100" key="43" len="12" pan="0"/>
          <note pos="192" vol="100" key="40" len="12" pan="0"/>
          <note pos="204" vol="100" key="43" len="12" pan="0"/>
          <note pos="216" vol="100" key="47" len="12" pan="0"/>
          <note pos="228" vol="100" key="40" len="12" pan="0"/>
          <note pos="240" vol="100" key="43" len="12" pan="0"/>
          <note pos="252" vol="100" key="47" len="12" pan="0"/>
          <note pos="264" vol="100" key="40" len="12" pan="0"/>
          <note pos="276" vol="100" key="43" len="12" pan="0"/>
          <note pos="288" vol="100" key="47" len="12" pan="0"/>
          <note pos="300" vol="100" key="40" len="12" pan="0"/>
          <note pos="312" vol="100" key="43" len="12" pan="0"/>
          <note pos="324" vol="100" key="47" len="12" pan="0"/>
          <note pos="336" vol="100" key="40" len="12" pan="0"/>
          <note pos="348" vol="100" key="43" len="12" pan="0"/>
          <note pos="360" vol="100" key="48" len="12" pan="0"/>
          <note pos="372" vol="100" key="43" len="12" pan="0"/>
          <note pos="384" vol="100" key="40" len="12" pan="0"/>
          <note pos="396" vol="100" key="43" len="12" pan="0"/>
          <note pos="408" vol="100" key="47" len="12" pan="0"/>
          <note pos="420" vol="100" key="40" len="12" pan="0"/>
          <note pos="432" vol="100" key="43" len="12" pan="0"/>
          <note pos="444" vol="100" key="47" len="12" pan="0"/>
          <note pos="456" vol="100" key="40" len="12" pan="0"/>
          <note pos="468" vol="100" key="43" len="12" pan="0"/>
          <note pos="480" vol="100" key="47" len="12" pan="0"/>
          <note pos="492" vol="100" key="40" len="12" pan="0"/>
          <note pos="504" vol="100" key="43" len="12" pan="0"/>
          <note pos="516" vol="100" key="47" len="12" pan="0"/>
          <note pos="528" vol="100" key="40" len="12" pan="0"/>
          <note pos="540" vol="100" key="43" len="12" pan="0"/>
          <note pos="552" vol="100" key="48" len="12" pan="0"/>
          <note pos="564" vol="100" key="43" len="12" pan="0"/>
          <note pos="576" vol="100" key="40" len="12" pan="0"/>
          <note pos="588" vol="100" key="43" len="12" pan="0"/>
          <note pos="600" vol="100" key="47" len="12" pan="0"/>
          <note pos="612" vol="100" key="40" len="12" pan="0"/>
          <note pos="624" vol="100" key="43" len="12" pan="0"/>
          <note pos="636" vol="100" key="47" len="12" pan="0"/>
          <note pos="648" vol="100" key="40" len="12" pan="0"/>
          <note pos="660" vol="100" key="43" len="12" pan="0"/>
          <note pos="672" vol="100" key="47" len="12" pan="0"/>
          <note pos="684" vol="100" key="40" len="12" pan="0"/>
          <note pos="696" vol="100" key="43" len="12" pan="0"/>
          <note pos="708" vol="100" key="47" len="12" pan="0"/>
          <note pos="720" vol="100" key="40" len="12" pan="0"/>
          <note pos="732" vol="100" key="43" len="12" pan="0"/>
          <note pos="744" vol="100" key="48" len="12" pan="0"/>
          <note pos="756" vol="100" key="43" len="12" pan="0"/>
          <note pos="768" vol="100" key="40" len="12" pan="0"/>
          <note pos="780" vol="100" key="43" len="12" pan="0"/>
          <note pos="792" vol="100" key="47" len="12" pan="0"/>
          <note pos="804" vol="100" key="40" len="12" pan="0"/>
          <note pos="816" vol="100" key="43" len="12" pan="0"/>
          <note pos="828" vol="100" key="47" len="12" pan="0"/>
          <note pos="840" vol="100" key="40" len="12" pan="0"/>
          <note pos="852" vol="100" key="43" len="12" pan="0"/>
          <note pos="864" vol="100" key="47" len="12" pan="0"/>
          <note pos="876" vol="100" key="40" len="12" pan="0"/>
          <note pos="888" vol="100" key="43" len="12" pan="0"/>
          <note pos="900" vol="100" key="47" len="12" pan="0"/>
          <note pos="912" vol="100" key="40" len="12" pan="0"/>
          <note pos="924" vol="100" key="43" len="12" pan="0"/>
          <note pos="936" vol="100" key="48" len="12" pan="0"/>
          <note pos="948" vol="100" key="43" len="12" pan="0"/>
          <note pos="960" vol="100" key="40" len="12" pan="0"/>
          <note pos="972" vol="100" key="43" len="12" pan="0"/>
          <note pos="984" vol="100" key="47" len="12" pan="0"/>
          <note pos="996" vol="100" key="40" len="12" pan="0"/>
          <note pos="1008" vol="100" key="43" len="12" pan="0"/>
          <note pos="1020" vol="100" key="47" len="12" pan="0"/>
          <note pos="1032" vol="100" key="40" len="12" pan="0"/>
          <note pos="1044" vol="100" key="43" len="12" pan="0"/>
          <note pos="1056" vol="100" key="47" len="12" pan="0"/>
          <note pos="1068" vol="100" key="40" len="12" pan="0"/>
          <note pos="1080" vol="100" key="43" len="12" pan="0"/>
          <note pos="1092" vol="100" key="47" len="12" pan="0"/>
          <note pos="1104" vol="100" key="40" len="12" pan="0"/>
          <note pos="1116" vol="100" key="43" len="12" pan="0"/>
          <note pos="1128" vol="100" key="48" len="12" pan="0"/>
          <note pos="1140" vol="100" key="43" len="12" pan="0"/>
          <note pos="1152" vol="100" key="40" len="12" pan="0"/>
          <note pos="1164" vol="100" key="43" len="12" pan="0"/>
          <note pos="1176" vol="100" key="47" len="12" pan="0"/>
          <note pos="1188" vol="100" key="40" len="12" pan="0"/>
          <note pos="1200" vol="100" key="43" len="12" pan="0"/>
          <note pos="1212" vol="100" key="47" len="12" pan="0"/>
          <note pos="1224" vol="100" key="40" len="12" pan="0"/>
          <note pos="1236" vol="100" key="43" len="12" pan="0"/>
          <note pos="1248" vol="100" key="47" len="12" pan="0"/>
          <note pos="1260" vol="100" key="40" len="12" pan="0"/>
          <note pos="1272" vol="100" key="43" len="12" pan="0"/>
          <note pos="1284" vol="100" key="47" len="12" pan="0"/>
          <note pos="1296" vol="100" key="40" len="12" pan="0"/>
          <note pos="1308" vol="100" key="43" len="12" pan="0"/>
          <note pos="1320" vol="100" key="48" len="12" pan="0"/>
          <note pos="1332" vol="100" key="43" len="12" pan="0"/>
          <note pos="1344" vol="100" key="40" len="12" pan="0"/>
          <note pos="1356" vol="100" key="43" len="12" pan="0"/>
          <note pos="1368" vol="100" key="47" len="12" pan="0"/>
          <note pos="1380" vol="100" key="40" len="12" pan="0"/>
          <note pos="1392" vol="100" key="43" len="12" pan="0"/>
          <note pos="1404" vol="100" key="47" len="12" pan="0"/>
          <note pos="1416" vol="100" key="40" len="12" pan="0"/>
          <note pos="1428" vol="100" key="43" len="12" pan="0"/>
          <note pos="1440" vol="100" key="47" len="12" pan="0"/>
          <note pos="1452" vol="100" key="40" len="12" pan="0"/>
          <note pos="1464" vol="100" key="43" len="12" pan="0"/>
          <note pos="1476" vol="100" key="47" len="12" pan="0"/>
          <note pos="1488" vol="100" key="40" len="12" pan="0"/>
          <note pos="1500" vol="100" key="43" len="12" pan="0"/>
          <note pos="1512" vol="100" key="48" len="12" pan="0"/>
          <note pos="1524" vol="100" key="43" len="12" pan="0"/>
        </pattern>
      </track>
      <track type="5" solo="0" name="Wah Bass > Filter Freq" muted="0">
        <automationtrack/>
        <automationpattern name="Wah Bass>Filter Frequency" pos="19968" tens="1" prog="0" len="192" mute="0">
          <time value="114" pos="0"/>
          <object id="4735138"/>
        </automationpattern>
        <automationpattern name="Wah Bass>Filter Frequency" pos="13824" tens="1" prog="1" len="1536" mute="0">
          <time value="90" pos="0"/>
          <time value="127" pos="768"/>
          <time value="90" pos="1536"/>
          <object id="4735138"/>
        </automationpattern>
        <automationpattern name="Wah Bass>Filter Frequency" pos="15360" tens="1" prog="1" len="1536" mute="0">
          <time value="90" pos="0"/>
          <time value="127" pos="768"/>
          <time value="90" pos="1536"/>
          <object id="4735138"/>
        </automationpattern>
        <automationpattern name="Wah Bass>Filter Frequency" pos="16896" tens="1" prog="1" len="1536" mute="0">
          <time value="90" pos="0"/>
          <time value="127" pos="768"/>
          <time value="90" pos="1536"/>
          <object id="4735138"/>
        </automationpattern>
        <automationpattern name="Wah Bass>Filter Frequency" pos="18432" tens="1" prog="1" len="1536" mute="0">
          <time value="90" pos="0"/>
          <time value="127" pos="768"/>
          <time value="90" pos="1536"/>
          <object id="4735138"/>
        </automationpattern>
      </track>
      <track type="5" solo="0" name="Wah Bass > StereoEnhancer" muted="0">
        <automationtrack/>
        <automationpattern name="StereoEnhancer Effect>>Width" pos="15360" tens="1" prog="1" len="1536" mute="0">
          <time value="0" pos="0"/>
          <time value="114" pos="768"/>
          <time value="0" pos="1536"/>
          <object id="3196872"/>
        </automationpattern>
        <automationpattern name="StereoEnhancer Effect>>Width" pos="16896" tens="1" prog="1" len="1536" mute="0">
          <time value="0" pos="0"/>
          <time value="114" pos="768"/>
          <time value="0" pos="1536"/>
          <object id="3196872"/>
        </automationpattern>
        <automationpattern name="StereoEnhancer Effect>>Width" pos="18432" tens="1" prog="1" len="1536" mute="0">
          <time value="0" pos="0"/>
          <time value="114" pos="768"/>
          <time value="0" pos="1536"/>
          <object id="3196872"/>
        </automationpattern>
        <automationpattern name="StereoEnhancer Effect>>Width" pos="13824" tens="1" prog="1" len="1536" mute="0">
          <time value="0" pos="0"/>
          <time value="114" pos="768"/>
          <time value="0" pos="1536"/>
          <object id="3196872"/>
        </automationpattern>
      </track>
      <track type="5" solo="0" name="Wah Bass > Volume" muted="0">
        <automationtrack/>
        <automationpattern name="Wah Bass>Volume" pos="13824" tens="1" prog="1" len="1536" mute="0">
          <time value="21.200001" pos="0"/>
          <time value="65" pos="1536"/>
          <object id="1669098"/>
        </automationpattern>
      </track>
      <track tab="0" type="0" width="262" solo="0" minimized="0" name="Sf2 Player" height="466" muted="0" visible="1" maximized="0" x="0" y="457">
        <instrumenttrack fxch="0" vol="40" pitchrange="1" usemasterpitch="1" basenote="57" pan="0" pitch="0">
          <instrument name="sf2player">
            <sf2player reverbDamping="0.2" chorusNum="0.89999998" reverbLevel="0.89999998" bank="0" chorusDepth="8" src="soundfonts/SGM-v2.01-HQ-v3.0.sf2" reverbOn="0" reverbWidth="0.5" patch="31" reverbRoomSize="0.2" chorusLevel="2" chorusSpeed="0.30000001" gain="1" chorusOn="0"/>
          </instrument>
          <eldata fres="0.5" fcut="14000" ftype="0" fwet="0">
            <elvol lspd_denominator="4" lamt="0" lshp="0" x100="0" lspd="0.1" rel="0.1" dec="0.5" sustain="0.5" lspd_numerator="4" att="0" amt="0" ctlenvamt="0" hold="0.5" lspd_syncmode="0" lpdel="0" latt="0" pdel="0" userwavefile=""/>
            <elcut lspd_denominator="4" lamt="0" lshp="0" x100="0" lspd="0.1" rel="0.1" dec="0.5" sustain="0.5" lspd_numerator="4" att="0" amt="0" ctlenvamt="0" hold="0.5" lspd_syncmode="0" lpdel="0" latt="0" pdel="0" userwavefile=""/>
            <elres lspd_denominator="4" lamt="0" lshp="0" x100="0" lspd="0.1" rel="0.1" dec="0.5" sustain="0.5" lspd_numerator="4" att="0" amt="0" ctlenvamt="0" hold="0.5" lspd_syncmode="0" lpdel="0" latt="0" pdel="0" userwavefile=""/>
          </eldata>
          <chordcreator chord="0" chord-enabled="0" chordrange="1"/>
          <arpeggiator arpmode="0" arptime_numerator="4" arptime="200" arpgate="100" arprange="1" arp="0" arpcycle="0" arpskip="0" arp-enabled="0" arptime_denominator="4" arpmiss="0" arpdir="0" arptime_syncmode="0"/>
          <midiport outputcontroller="0" readable="0" outputchannel="1" inputcontroller="0" fixedoutputvelocity="-1" outputprogram="1" writable="0" fixedoutputnote="-1" basevelocity="63" inputchannel="0" fixedinputvelocity="-1"/>
          <fxchain enabled="0" numofeffects="0"/>
        </instrumenttrack>
        <pattern type="1" name="Sf2 Player" muted="0" pos="10752" steps="16">
          <note pos="0" vol="100" key="45" len="24" pan="0"/>
          <note pos="24" vol="100" key="44" len="24" pan="0"/>
          <note pos="60" vol="100" key="44" len="24" pan="0"/>
          <note pos="96" vol="100" key="44" len="24" pan="0"/>
          <note pos="132" vol="100" key="46" len="24" pan="0"/>
          <note pos="168" vol="100" key="47" len="24" pan="0"/>
          <note pos="192" vol="100" key="44" len="24" pan="0"/>
        </pattern>
        <pattern type="1" name="" muted="0" pos="11520" steps="16">
          <note pos="0" vol="100" key="45" len="24" pan="0"/>
          <note pos="24" vol="100" key="44" len="24" pan="0"/>
          <note pos="60" vol="100" key="44" len="24" pan="0"/>
          <note pos="96" vol="100" key="44" len="24" pan="0"/>
          <note pos="132" vol="100" key="46" len="24" pan="0"/>
          <note pos="168" vol="100" key="47" len="24" pan="0"/>
          <note pos="192" vol="100" key="44" len="24" pan="0"/>
        </pattern>
        <pattern type="1" name="" muted="0" pos="12288" steps="16">
          <note pos="0" vol="100" key="45" len="24" pan="0"/>
          <note pos="24" vol="100" key="44" len="24" pan="0"/>
          <note pos="60" vol="100" key="44" len="24" pan="0"/>
          <note pos="96" vol="100" key="44" len="24" pan="0"/>
          <note pos="132" vol="100" key="46" len="24" pan="0"/>
          <note pos="168" vol="100" key="47" len="24" pan="0"/>
          <note pos="192" vol="100" key="44" len="24" pan="0"/>
        </pattern>
        <pattern type="1" name="" muted="0" pos="13056" steps="16">
          <note pos="0" vol="100" key="45" len="24" pan="0"/>
          <note pos="24" vol="100" key="44" len="24" pan="0"/>
          <note pos="60" vol="100" key="44" len="24" pan="0"/>
          <note pos="96" vol="100" key="44" len="24" pan="0"/>
          <note pos="132" vol="100" key="46" len="24" pan="0"/>
          <note pos="168" vol="100" key="47" len="24" pan="0"/>
          <note pos="192" vol="100" key="44" len="24" pan="0"/>
        </pattern>
      </track>
      <track type="0" solo="0" name="Drums" muted="0">
        <instrumenttrack fxch="0" vol="100" pitchrange="1" usemasterpitch="1" basenote="57" pan="0" pitch="0">
          <instrument name="sf2player">
            <sf2player reverbDamping="0.2" chorusNum="0.89999998" reverbLevel="0.89999998" bank="128" chorusDepth="8" src="soundfonts/SGM-v2.01-HQ-v3.0.sf2" reverbOn="0" reverbWidth="0.5" patch="30" reverbRoomSize="0.2" chorusLevel="2" chorusSpeed="0.30000001" gain="1" chorusOn="0"/>
          </instrument>
          <eldata fres="0.5" fcut="14000" ftype="0" fwet="0">
            <elvol lspd_denominator="4" lamt="0" lshp="0" x100="0" lspd="0.1" rel="0.1" dec="0.5" sustain="0.5" lspd_numerator="4" att="0" amt="0" ctlenvamt="0" hold="0.5" lspd_syncmode="0" lpdel="0" latt="0" pdel="0" userwavefile=""/>
            <elcut lspd_denominator="4" lamt="0" lshp="0" x100="0" lspd="0.1" rel="0.1" dec="0.5" sustain="0.5" lspd_numerator="4" att="0" amt="0" ctlenvamt="0" hold="0.5" lspd_syncmode="0" lpdel="0" latt="0" pdel="0" userwavefile=""/>
            <elres lspd_denominator="4" lamt="0" lshp="0" x100="0" lspd="0.1" rel="0.1" dec="0.5" sustain="0.5" lspd_numerator="4" att="0" amt="0" ctlenvamt="0" hold="0.5" lspd_syncmode="0" lpdel="0" latt="0" pdel="0" userwavefile=""/>
          </eldata>
          <chordcreator chord="0" chord-enabled="0" chordrange="1"/>
          <arpeggiator arpmode="0" arptime_numerator="4" arptime="200" arpgate="100" arprange="1" arp="0" arpcycle="0" arpskip="0" arp-enabled="0" arptime_denominator="4" arpmiss="0" arpdir="0" arptime_syncmode="0"/>
          <midiport outputcontroller="0" readable="0" outputchannel="1" inputcontroller="0" fixedoutputvelocity="-1" outputprogram="1" writable="0" fixedoutputnote="-1" basevelocity="63" inputchannel="0" fixedinputvelocity="-1"/>
          <fxchain enabled="0" numofeffects="0"/>
        </instrumenttrack>
        <pattern type="1" name="Drums" muted="0" pos="1536" steps="16">
          <note pos="0" vol="136" key="39" len="12" pan="0"/>
          <note pos="0" vol="148" key="24" len="12" pan="0"/>
          <note pos="24" vol="136" key="39" len="12" pan="0"/>
          <note pos="24" vol="136" key="34" len="12" pan="0"/>
          <note pos="36" vol="148" key="24" len="12" pan="0"/>
          <note pos="48" vol="136" key="39" len="12" pan="0"/>
          <note pos="48" vol="174" key="28" len="12" pan="0"/>
          <note pos="72" vol="136" key="39" len="12" pan="0"/>
          <note pos="72" vol="136" key="34" len="12" pan="0"/>
          <note pos="84" vol="148" key="24" len="12" pan="0"/>
          <note pos="96" vol="136" key="39" len="12" pan="0"/>
          <note pos="96" vol="148" key="24" len="12" pan="0"/>
          <note pos="120" vol="136" key="39" len="12" pan="0"/>
          <note pos="120" vol="136" key="34" len="12" pan="0"/>
          <note pos="132" vol="148" key="24" len="12" pan="0"/>
          <note pos="144" vol="136" key="39" len="12" pan="0"/>
          <note pos="144" vol="174" key="28" len="12" pan="0"/>
          <note pos="168" vol="136" key="39" len="12" pan="0"/>
          <note pos="168" vol="136" key="34" len="12" pan="0"/>
          <note pos="180" vol="174" key="28" len="12" pan="0"/>
          <note pos="180" vol="148" key="24" len="12" pan="0"/>
          <note pos="192" vol="136" key="39" len="12" pan="0"/>
          <note pos="192" vol="148" key="24" len="12" pan="0"/>
          <note pos="216" vol="136" key="39" len="12" pan="0"/>
          <note pos="216" vol="136" key="34" len="12" pan="0"/>
          <note pos="228" vol="148" key="24" len="12" pan="0"/>
          <note pos="240" vol="136" key="39" len="12" pan="0"/>
          <note pos="240" vol="174" key="28" len="12" pan="0"/>
          <note pos="264" vol="136" key="39" len="12" pan="0"/>
          <note pos="264" vol="136" key="34" len="12" pan="0"/>
          <note pos="276" vol="148" key="24" len="12" pan="0"/>
          <note pos="288" vol="136" key="39" len="12" pan="0"/>
          <note pos="288" vol="148" key="24" len="12" pan="0"/>
          <note pos="312" vol="136" key="39" len="12" pan="0"/>
          <note pos="312" vol="136" key="34" len="12" pan="0"/>
          <note pos="324" vol="148" key="24" len="12" pan="0"/>
          <note pos="336" vol="136" key="39" len="12" pan="0"/>
          <note pos="336" vol="174" key="28" len="12" pan="0"/>
          <note pos="360" vol="136" key="39" len="12" pan="0"/>
          <note pos="360" vol="136" key="34" len="12" pan="0"/>
          <note pos="372" vol="174" key="28" len="12" pan="0"/>
          <note pos="372" vol="148" key="24" len="12" pan="0"/>
          <note pos="384" vol="136" key="39" len="12" pan="0"/>
          <note pos="384" vol="148" key="24" len="12" pan="0"/>
          <note pos="408" vol="136" key="39" len="12" pan="0"/>
          <note pos="408" vol="136" key="34" len="12" pan="0"/>
          <note pos="420" vol="148" key="24" len="12" pan="0"/>
          <note pos="432" vol="136" key="39" len="12" pan="0"/>
          <note pos="432" vol="174" key="28" len="12" pan="0"/>
          <note pos="456" vol="136" key="39" len="12" pan="0"/>
          <note pos="456" vol="136" key="34" len="12" pan="0"/>
          <note pos="468" vol="148" key="24" len="12" pan="0"/>
          <note pos="480" vol="136" key="39" len="12" pan="0"/>
          <note pos="480" vol="148" key="24" len="12" pan="0"/>
          <note pos="504" vol="136" key="39" len="12" pan="0"/>
          <note pos="504" vol="136" key="34" len="12" pan="0"/>
          <note pos="516" vol="148" key="24" len="12" pan="0"/>
          <note pos="528" vol="136" key="39" len="12" pan="0"/>
          <note pos="528" vol="174" key="28" len="12" pan="0"/>
          <note pos="552" vol="136" key="39" len="12" pan="0"/>
          <note pos="552" vol="136" key="34" len="12" pan="0"/>
          <note pos="564" vol="174" key="28" len="12" pan="0"/>
          <note pos="564" vol="148" key="24" len="12" pan="0"/>
          <note pos="576" vol="136" key="39" len="12" pan="0"/>
          <note pos="576" vol="148" key="24" len="12" pan="0"/>
          <note pos="600" vol="136" key="39" len="12" pan="0"/>
          <note pos="600" vol="136" key="34" len="12" pan="0"/>
          <note pos="612" vol="148" key="24" len="12" pan="0"/>
          <note pos="624" vol="136" key="39" len="12" pan="0"/>
          <note pos="624" vol="174" key="28" len="12" pan="0"/>
          <note pos="648" vol="136" key="39" len="12" pan="0"/>
          <note pos="648" vol="136" key="34" len="12" pan="0"/>
          <note pos="660" vol="148" key="24" len="12" pan="0"/>
          <note pos="672" vol="136" key="39" len="12" pan="0"/>
          <note pos="672" vol="148" key="24" len="12" pan="0"/>
          <note pos="696" vol="136" key="39" len="12" pan="0"/>
          <note pos="696" vol="136" key="34" len="12" pan="0"/>
          <note pos="696" vol="174" key="28" len="12" pan="0"/>
          <note pos="708" vol="148" key="24" len="12" pan="0"/>
          <note pos="720" vol="136" key="39" len="12" pan="0"/>
          <note pos="720" vol="174" key="28" len="12" pan="0"/>
          <note pos="744" vol="136" key="39" len="12" pan="0"/>
          <note pos="744" vol="136" key="34" len="12" pan="0"/>
          <note pos="756" vol="174" key="28" len="12" pan="0"/>
          <note pos="756" vol="148" key="24" len="12" pan="0"/>
          <note pos="768" vol="136" key="39" len="12" pan="0"/>
          <note pos="768" vol="174" key="37" len="12" pan="0"/>
          <note pos="768" vol="148" key="24" len="12" pan="0"/>
          <note pos="792" vol="136" key="39" len="12" pan="0"/>
          <note pos="792" vol="136" key="34" len="12" pan="0"/>
          <note pos="804" vol="148" key="24" len="12" pan="0"/>
          <note pos="816" vol="136" key="39" len="12" pan="0"/>
          <note pos="816" vol="174" key="28" len="12" pan="0"/>
          <note pos="840" vol="136" key="39" len="12" pan="0"/>
          <note pos="840" vol="136" key="34" len="12" pan="0"/>
          <note pos="852" vol="148" key="24" len="12" pan="0"/>
          <note pos="864" vol="136" key="39" len="12" pan="0"/>
          <note pos="864" vol="148" key="24" len="12" pan="0"/>
          <note pos="888" vol="136" key="39" len="12" pan="0"/>
          <note pos="888" vol="136" key="34" len="12" pan="0"/>
          <note pos="900" vol="148" key="24" len="12" pan="0"/>
          <note pos="912" vol="136" key="39" len="12" pan="0"/>
          <note pos="912" vol="174" key="28" len="12" pan="0"/>
          <note pos="936" vol="136" key="39" len="12" pan="0"/>
          <note pos="936" vol="136" key="34" len="12" pan="0"/>
          <note pos="948" vol="174" key="28" len="12" pan="0"/>
          <note pos="948" vol="148" key="24" len="12" pan="0"/>
          <note pos="960" vol="136" key="39" len="12" pan="0"/>
          <note pos="960" vol="148" key="24" len="12" pan="0"/>
          <note pos="984" vol="136" key="39" len="12" pan="0"/>
          <note pos="984" vol="136" key="34" len="12" pan="0"/>
          <note pos="996" vol="148" key="24" len="12" pan="0"/>
          <note pos="1008" vol="136" key="39" len="12" pan="0"/>
          <note pos="1008" vol="174" key="28" len="12" pan="0"/>
          <note pos="1032" vol="136" key="39" len="12" pan="0"/>
          <note pos="1032" vol="136" key="34" len="12" pan="0"/>
          <note pos="1044" vol="148" key="24" len="12" pan="0"/>
          <note pos="1056" vol="136" key="39" len="12" pan="0"/>
          <note pos="1056" vol="148" key="24" len="12" pan="0"/>
          <note pos="1080" vol="136" key="39" len="12" pan="0"/>
          <note pos="1080" vol="136" key="34" len="12" pan="0"/>
          <note pos="1092" vol="148" key="24" len="12" pan="0"/>
          <note pos="1104" vol="136" key="39" len="12" pan="0"/>
          <note pos="1104" vol="174" key="28" len="12" pan="0"/>
          <note pos="1128" vol="136" key="39" len="12" pan="0"/>
          <note pos="1128" vol="136" key="34" len="12" pan="0"/>
          <note pos="1140" vol="174" key="28" len="12" pan="0"/>
          <note pos="1140" vol="148" key="24" len="12" pan="0"/>
          <note pos="1152" vol="136" key="39" len="12" pan="0"/>
          <note pos="1152" vol="148" key="24" len="12" pan="0"/>
          <note pos="1176" vol="136" key="39" len="12" pan="0"/>
          <note pos="1176" vol="136" key="34" len="12" pan="0"/>
          <note pos="1188" vol="148" key="24" len="12" pan="0"/>
          <note pos="1200" vol="136" key="39" len="12" pan="0"/>
          <note pos="1200" vol="174" key="28" len="12" pan="0"/>
          <note pos="1224" vol="136" key="39" len="12" pan="0"/>
          <note pos="1224" vol="136" key="34" len="12" pan="0"/>
          <note pos="1236" vol="148" key="24" len="12" pan="0"/>
          <note pos="1248" vol="136" key="39" len="12" pan="0"/>
          <note pos="1248" vol="148" key="24" len="12" pan="0"/>
          <note pos="1272" vol="136" key="39" len="12" pan="0"/>
          <note pos="1272" vol="136" key="34" len="12" pan="0"/>
          <note pos="1284" vol="148" key="24" len="12" pan="0"/>
          <note pos="1296" vol="136" key="39" len="12" pan="0"/>
          <note pos="1296" vol="174" key="28" len="12" pan="0"/>
          <note pos="1320" vol="136" key="39" len="12" pan="0"/>
          <note pos="1320" vol="136" key="34" len="12" pan="0"/>
          <note pos="1332" vol="174" key="28" len="12" pan="0"/>
          <note pos="1332" vol="148" key="24" len="12" pan="0"/>
          <note pos="1344" vol="136" key="39" len="12" pan="0"/>
          <note pos="1344" vol="148" key="24" len="12" pan="0"/>
          <note pos="1368" vol="136" key="39" len="12" pan="0"/>
          <note pos="1368" vol="136" key="34" len="12" pan="0"/>
          <note pos="1380" vol="148" key="24" len="12" pan="0"/>
          <note pos="1392" vol="136" key="39" len="12" pan="0"/>
          <note pos="1392" vol="174" key="28" len="12" pan="0"/>
          <note pos="1416" vol="136" key="39" len="12" pan="0"/>
          <note pos="1416" vol="136" key="34" len="12" pan="0"/>
          <note pos="1428" vol="148" key="24" len="12" pan="0"/>
          <note pos="1440" vol="136" key="39" len="12" pan="0"/>
          <note pos="1440" vol="148" key="24" len="12" pan="0"/>
          <note pos="1464" vol="136" key="39" len="12" pan="0"/>
          <note pos="1464" vol="136" key="34" len="12" pan="0"/>
          <note pos="1464" vol="174" key="28" len="12" pan="0"/>
          <note pos="1476" vol="148" key="24" len="12" pan="0"/>
          <note pos="1488" vol="136" key="39" len="12" pan="0"/>
          <note pos="1488" vol="174" key="28" len="12" pan="0"/>
          <note pos="1512" vol="136" key="39" len="12" pan="0"/>
          <note pos="1512" vol="136" key="34" len="12" pan="0"/>
          <note pos="1512" vol="174" key="28" len="12" pan="0"/>
          <note pos="1524" vol="174" key="28" len="12" pan="0"/>
          <note pos="1524" vol="148" key="24" len="12" pan="0"/>
        </pattern>
        <pattern type="1" name="Drums" muted="0" pos="3072" steps="16">
          <note pos="0" vol="136" key="39" len="12" pan="0"/>
          <note pos="0" vol="174" key="37" len="12" pan="0"/>
          <note pos="0" vol="148" key="24" len="12" pan="0"/>
          <note pos="24" vol="136" key="39" len="12" pan="0"/>
          <note pos="24" vol="136" key="34" len="12" pan="0"/>
          <note pos="36" vol="148" key="24" len="12" pan="0"/>
          <note pos="48" vol="136" key="39" len="12" pan="0"/>
          <note pos="48" vol="174" key="28" len="12" pan="0"/>
          <note pos="72" vol="136" key="39" len="12" pan="0"/>
          <note pos="72" vol="136" key="34" len="12" pan="0"/>
          <note pos="84" vol="148" key="24" len="12" pan="0"/>
          <note pos="96" vol="136" key="39" len="12" pan="0"/>
          <note pos="96" vol="148" key="24" len="12" pan="0"/>
          <note pos="120" vol="136" key="39" len="12" pan="0"/>
          <note pos="120" vol="136" key="34" len="12" pan="0"/>
          <note pos="132" vol="148" key="24" len="12" pan="0"/>
          <note pos="144" vol="136" key="39" len="12" pan="0"/>
          <note pos="144" vol="174" key="28" len="12" pan="0"/>
          <note pos="168" vol="136" key="39" len="12" pan="0"/>
          <note pos="168" vol="136" key="34" len="12" pan="0"/>
          <note pos="180" vol="174" key="28" len="12" pan="0"/>
          <note pos="180" vol="148" key="24" len="12" pan="0"/>
          <note pos="192" vol="136" key="39" len="12" pan="0"/>
          <note pos="192" vol="148" key="24" len="12" pan="0"/>
          <note pos="216" vol="136" key="39" len="12" pan="0"/>
          <note pos="216" vol="136" key="34" len="12" pan="0"/>
          <note pos="228" vol="148" key="24" len="12" pan="0"/>
          <note pos="240" vol="136" key="39" len="12" pan="0"/>
          <note pos="240" vol="174" key="28" len="12" pan="0"/>
          <note pos="264" vol="136" key="39" len="12" pan="0"/>
          <note pos="264" vol="136" key="34" len="12" pan="0"/>
          <note pos="276" vol="148" key="24" len="12" pan="0"/>
          <note pos="288" vol="136" key="39" len="12" pan="0"/>
          <note pos="288" vol="148" key="24" len="12" pan="0"/>
          <note pos="312" vol="136" key="39" len="12" pan="0"/>
          <note pos="312" vol="136" key="34" len="12" pan="0"/>
          <note pos="324" vol="148" key="24" len="12" pan="0"/>
          <note pos="336" vol="136" key="39" len="12" pan="0"/>
          <note pos="336" vol="174" key="28" len="12" pan="0"/>
          <note pos="360" vol="136" key="39" len="12" pan="0"/>
          <note pos="360" vol="136" key="34" len="12" pan="0"/>
          <note pos="372" vol="174" key="28" len="12" pan="0"/>
          <note pos="372" vol="148" key="24" len="12" pan="0"/>
          <note pos="384" vol="136" key="39" len="12" pan="0"/>
          <note pos="384" vol="148" key="24" len="12" pan="0"/>
          <note pos="408" vol="136" key="39" len="12" pan="0"/>
          <note pos="408" vol="136" key="34" len="12" pan="0"/>
          <note pos="420" vol="148" key="24" len="12" pan="0"/>
          <note pos="432" vol="136" key="39" len="12" pan="0"/>
          <note pos="432" vol="174" key="28" len="12" pan="0"/>
          <note pos="456" vol="136" key="39" len="12" pan="0"/>
          <note pos="456" vol="136" key="34" len="12" pan="0"/>
          <note pos="468" vol="148" key="24" len="12" pan="0"/>
          <note pos="480" vol="136" key="39" len="12" pan="0"/>
          <note pos="480" vol="148" key="24" len="12" pan="0"/>
          <note pos="504" vol="136" key="39" len="12" pan="0"/>
          <note pos="504" vol="136" key="34" len="12" pan="0"/>
          <note pos="516" vol="148" key="24" len="12" pan="0"/>
          <note pos="528" vol="136" key="39" len="12" pan="0"/>
          <note pos="528" vol="174" key="28" len="12" pan="0"/>
          <note pos="552" vol="136" key="39" len="12" pan="0"/>
          <note pos="552" vol="136" key="34" len="12" pan="0"/>
          <note pos="564" vol="174" key="28" len="12" pan="0"/>
          <note pos="564" vol="148" key="24" len="12" pan="0"/>
          <note pos="576" vol="136" key="39" len="12" pan="0"/>
          <note pos="576" vol="148" key="24" len="12" pan="0"/>
          <note pos="600" vol="136" key="39" len="12" pan="0"/>
          <note pos="600" vol="136" key="34" len="12" pan="0"/>
          <note pos="612" vol="148" key="24" len="12" pan="0"/>
          <note pos="624" vol="136" key="39" len="12" pan="0"/>
          <note pos="624" vol="174" key="28" len="12" pan="0"/>
          <note pos="648" vol="136" key="39" len="12" pan="0"/>
          <note pos="648" vol="136" key="34" len="12" pan="0"/>
          <note pos="660" vol="148" key="24" len="12" pan="0"/>
          <note pos="672" vol="136" key="39" len="12" pan="0"/>
          <note pos="672" vol="148" key="24" len="12" pan="0"/>
          <note pos="696" vol="136" key="39" len="12" pan="0"/>
          <note pos="696" vol="136" key="34" len="12" pan="0"/>
          <note pos="696" vol="174" key="28" len="12" pan="0"/>
          <note pos="708" vol="148" key="24" len="12" pan="0"/>
          <note pos="720" vol="136" key="39" len="12" pan="0"/>
          <note pos="720" vol="174" key="28" len="12" pan="0"/>
          <note pos="744" vol="136" key="39" len="12" pan="0"/>
          <note pos="744" vol="136" key="34" len="12" pan="0"/>
          <note pos="756" vol="174" key="28" len="12" pan="0"/>
          <note pos="756" vol="148" key="24" len="12" pan="0"/>
          <note pos="768" vol="136" key="39" len="12" pan="0"/>
          <note pos="768" vol="174" key="37" len="12" pan="0"/>
          <note pos="768" vol="148" key="24" len="12" pan="0"/>
          <note pos="792" vol="136" key="39" len="12" pan="0"/>
          <note pos="792" vol="136" key="34" len="12" pan="0"/>
          <note pos="804" vol="148" key="24" len="12" pan="0"/>
          <note pos="816" vol="136" key="39" len="12" pan="0"/>
          <note pos="816" vol="174" key="28" len="12" pan="0"/>
          <note pos="840" vol="136" key="39" len="12" pan="0"/>
          <note pos="840" vol="136" key="34" len="12" pan="0"/>
          <note pos="852" vol="148" key="24" len="12" pan="0"/>
          <note pos="864" vol="136" key="39" len="12" pan="0"/>
          <note pos="864" vol="148" key="24" len="12" pan="0"/>
          <note pos="888" vol="136" key="39" len="12" pan="0"/>
          <note pos="888" vol="136" key="34" len="12" pan="0"/>
          <note pos="900" vol="148" key="24" len="12" pan="0"/>
          <note pos="912" vol="136" key="39" len="12" pan="0"/>
          <note pos="912" vol="174" key="28" len="12" pan="0"/>
          <note pos="936" vol="136" key="39" len="12" pan="0"/>
          <note pos="936" vol="136" key="34" len="12" pan="0"/>
          <note pos="948" vol="174" key="28" len="12" pan="0"/>
          <note pos="948" vol="148" key="24" len="12" pan="0"/>
          <note pos="960" vol="136" key="39" len="12" pan="0"/>
          <note pos="960" vol="148" key="24" len="12" pan="0"/>
          <note pos="984" vol="136" key="39" len="12" pan="0"/>
          <note pos="984" vol="136" key="34" len="12" pan="0"/>
          <note pos="996" vol="148" key="24" len="12" pan="0"/>
          <note pos="1008" vol="136" key="39" len="12" pan="0"/>
          <note pos="1008" vol="174" key="28" len="12" pan="0"/>
          <note pos="1032" vol="136" key="39" len="12" pan="0"/>
          <note pos="1032" vol="136" key="34" len="12" pan="0"/>
          <note pos="1044" vol="148" key="24" len="12" pan="0"/>
          <note pos="1056" vol="136" key="39" len="12" pan="0"/>
          <note pos="1056" vol="148" key="24" len="12" pan="0"/>
          <note pos="1080" vol="136" key="39" len="12" pan="0"/>
          <note pos="1080" vol="136" key="34" len="12" pan="0"/>
          <note pos="1092" vol="148" key="24" len="12" pan="0"/>
          <note pos="1104" vol="136" key="39" len="12" pan="0"/>
          <note pos="1104" vol="174" key="28" len="12" pan="0"/>
          <note pos="1128" vol="136" key="39" len="12" pan="0"/>
          <note pos="1128" vol="136" key="34" len="12" pan="0"/>
          <note pos="1140" vol="174" key="28" len="12" pan="0"/>
          <note pos="1140" vol="148" key="24" len="12" pan="0"/>
          <note pos="1152" vol="136" key="39" len="12" pan="0"/>
          <note pos="1152" vol="148" key="24" len="12" pan="0"/>
          <note pos="1176" vol="136" key="39" len="12" pan="0"/>
          <note pos="1176" vol="136" key="34" len="12" pan="0"/>
          <note pos="1188" vol="148" key="24" len="12" pan="0"/>
          <note pos="1200" vol="136" key="39" len="12" pan="0"/>
          <note pos="1200" vol="174" key="28" len="12" pan="0"/>
          <note pos="1224" vol="136" key="39" len="12" pan="0"/>
          <note pos="1224" vol="136" key="34" len="12" pan="0"/>
          <note pos="1236" vol="148" key="24" len="12" pan="0"/>
          <note pos="1248" vol="136" key="39" len="12" pan="0"/>
          <note pos="1248" vol="148" key="24" len="12" pan="0"/>
          <note pos="1272" vol="136" key="39" len="12" pan="0"/>
          <note pos="1272" vol="136" key="34" len="12" pan="0"/>
          <note pos="1284" vol="148" key="24" len="12" pan="0"/>
          <note pos="1296" vol="136" key="39" len="12" pan="0"/>
          <note pos="1296" vol="174" key="28" len="12" pan="0"/>
          <note pos="1320" vol="136" key="39" len="12" pan="0"/>
          <note pos="1320" vol="136" key="34" len="12" pan="0"/>
          <note pos="1332" vol="174" key="28" len="12" pan="0"/>
          <note pos="1332" vol="148" key="24" len="12" pan="0"/>
          <note pos="1344" vol="136" key="39" len="12" pan="0"/>
          <note pos="1344" vol="148" key="24" len="12" pan="0"/>
          <note pos="1368" vol="136" key="39" len="12" pan="0"/>
          <note pos="1368" vol="136" key="34" len="12" pan="0"/>
          <note pos="1380" vol="148" key="24" len="12" pan="0"/>
          <note pos="1392" vol="136" key="39" len="12" pan="0"/>
          <note pos="1392" vol="174" key="28" len="12" pan="0"/>
          <note pos="1416" vol="136" key="39" len="12" pan="0"/>
          <note pos="1416" vol="136" key="34" len="12" pan="0"/>
          <note pos="1428" vol="148" key="24" len="12" pan="0"/>
          <note pos="1440" vol="136" key="39" len="12" pan="0"/>
          <note pos="1440" vol="148" key="24" len="12" pan="0"/>
          <note pos="1464" vol="136" key="39" len="12" pan="0"/>
          <note pos="1464" vol="136" key="34" len="12" pan="0"/>
          <note pos="1464" vol="174" key="28" len="12" pan="0"/>
          <note pos="1476" vol="148" key="24" len="12" pan="0"/>
          <note pos="1488" vol="136" key="39" len="12" pan="0"/>
          <note pos="1488" vol="174" key="28" len="12" pan="0"/>
          <note pos="1512" vol="136" key="39" len="12" pan="0"/>
          <note pos="1512" vol="136" key="34" len="12" pan="0"/>
          <note pos="1512" vol="174" key="28" len="12" pan="0"/>
          <note pos="1524" vol="174" key="28" len="12" pan="0"/>
          <note pos="1524" vol="148" key="24" len="12" pan="0"/>
        </pattern>
        <pattern type="1" name="" muted="0" pos="4608" steps="16">
          <note pos="0" vol="136" key="39" len="12" pan="0"/>
          <note pos="0" vol="174" key="37" len="12" pan="0"/>
          <note pos="0" vol="148" key="24" len="12" pan="0"/>
          <note pos="24" vol="136" key="39" len="12" pan="0"/>
          <note pos="24" vol="136" key="34" len="12" pan="0"/>
          <note pos="36" vol="148" key="24" len="12" pan="0"/>
          <note pos="48" vol="136" key="39" len="12" pan="0"/>
          <note pos="48" vol="174" key="28" len="12" pan="0"/>
          <note pos="72" vol="136" key="39" len="12" pan="0"/>
          <note pos="72" vol="136" key="34" len="12" pan="0"/>
          <note pos="84" vol="148" key="24" len="12" pan="0"/>
          <note pos="96" vol="136" key="39" len="12" pan="0"/>
          <note pos="96" vol="148" key="24" len="12" pan="0"/>
          <note pos="120" vol="136" key="39" len="12" pan="0"/>
          <note pos="120" vol="136" key="34" len="12" pan="0"/>
          <note pos="132" vol="148" key="24" len="12" pan="0"/>
          <note pos="144" vol="136" key="39" len="12" pan="0"/>
          <note pos="144" vol="174" key="28" len="12" pan="0"/>
          <note pos="168" vol="136" key="39" len="12" pan="0"/>
          <note pos="168" vol="136" key="34" len="12" pan="0"/>
          <note pos="180" vol="174" key="28" len="12" pan="0"/>
          <note pos="180" vol="148" key="24" len="12" pan="0"/>
          <note pos="192" vol="136" key="39" len="12" pan="0"/>
          <note pos="192" vol="148" key="24" len="12" pan="0"/>
          <note pos="216" vol="136" key="39" len="12" pan="0"/>
          <note pos="216" vol="136" key="34" len="12" pan="0"/>
          <note pos="228" vol="148" key="24" len="12" pan="0"/>
          <note pos="240" vol="136" key="39" len="12" pan="0"/>
          <note pos="240" vol="174" key="28" len="12" pan="0"/>
          <note pos="264" vol="136" key="39" len="12" pan="0"/>
          <note pos="264" vol="136" key="34" len="12" pan="0"/>
          <note pos="276" vol="148" key="24" len="12" pan="0"/>
          <note pos="288" vol="136" key="39" len="12" pan="0"/>
          <note pos="288" vol="148" key="24" len="12" pan="0"/>
          <note pos="312" vol="136" key="39" len="12" pan="0"/>
          <note pos="312" vol="136" key="34" len="12" pan="0"/>
          <note pos="324" vol="148" key="24" len="12" pan="0"/>
          <note pos="336" vol="136" key="39" len="12" pan="0"/>
          <note pos="336" vol="174" key="28" len="12" pan="0"/>
          <note pos="360" vol="136" key="39" len="12" pan="0"/>
          <note pos="360" vol="136" key="34" len="12" pan="0"/>
          <note pos="372" vol="174" key="28" len="12" pan="0"/>
          <note pos="372" vol="148" key="24" len="12" pan="0"/>
          <note pos="384" vol="136" key="39" len="12" pan="0"/>
          <note pos="384" vol="148" key="24" len="12" pan="0"/>
          <note pos="408" vol="136" key="39" len="12" pan="0"/>
          <note pos="408" vol="136" key="34" len="12" pan="0"/>
          <note pos="420" vol="148" key="24" len="12" pan="0"/>
          <note pos="432" vol="136" key="39" len="12" pan="0"/>
          <note pos="432" vol="174" key="28" len="12" pan="0"/>
          <note pos="456" vol="136" key="39" len="12" pan="0"/>
          <note pos="456" vol="136" key="34" len="12" pan="0"/>
          <note pos="468" vol="148" key="24" len="12" pan="0"/>
          <note pos="480" vol="136" key="39" len="12" pan="0"/>
          <note pos="480" vol="148" key="24" len="12" pan="0"/>
          <note pos="504" vol="136" key="39" len="12" pan="0"/>
          <note pos="504" vol="136" key="34" len="12" pan="0"/>
          <note pos="516" vol="148" key="24" len="12" pan="0"/>
          <note pos="528" vol="136" key="39" len="12" pan="0"/>
          <note pos="528" vol="174" key="28" len="12" pan="0"/>
          <note pos="552" vol="136" key="39" len="12" pan="0"/>
          <note pos="552" vol="136" key="34" len="12" pan="0"/>
          <note pos="564" vol="174" key="28" len="12" pan="0"/>
          <note pos="564" vol="148" key="24" len="12" pan="0"/>
          <note pos="576" vol="136" key="39" len="12" pan="0"/>
          <note pos="576" vol="148" key="24" len="12" pan="0"/>
          <note pos="600" vol="136" key="39" len="12" pan="0"/>
          <note pos="600" vol="136" key="34" len="12" pan="0"/>
          <note pos="612" vol="148" key="24" len="12" pan="0"/>
          <note pos="624" vol="136" key="39" len="12" pan="0"/>
          <note pos="624" vol="174" key="28" len="12" pan="0"/>
          <note pos="648" vol="136" key="39" len="12" pan="0"/>
          <note pos="648" vol="136" key="34" len="12" pan="0"/>
          <note pos="660" vol="148" key="24" len="12" pan="0"/>
          <note pos="672" vol="136" key="39" len="12" pan="0"/>
          <note pos="672" vol="148" key="24" len="12" pan="0"/>
          <note pos="696" vol="136" key="39" len="12" pan="0"/>
          <note pos="696" vol="136" key="34" len="12" pan="0"/>
          <note pos="696" vol="174" key="28" len="12" pan="0"/>
          <note pos="708" vol="148" key="24" len="12" pan="0"/>
          <note pos="720" vol="136" key="39" len="12" pan="0"/>
          <note pos="720" vol="174" key="28" len="12" pan="0"/>
          <note pos="744" vol="136" key="39" len="12" pan="0"/>
          <note pos="744" vol="136" key="34" len="12" pan="0"/>
          <note pos="756" vol="174" key="28" len="12" pan="0"/>
          <note pos="756" vol="148" key="24" len="12" pan="0"/>
          <note pos="768" vol="136" key="39" len="12" pan="0"/>
          <note pos="768" vol="174" key="37" len="12" pan="0"/>
          <note pos="768" vol="148" key="24" len="12" pan="0"/>
          <note pos="792" vol="136" key="39" len="12" pan="0"/>
          <note pos="792" vol="136" key="34" len="12" pan="0"/>
          <note pos="804" vol="148" key="24" len="12" pan="0"/>
          <note pos="816" vol="136" key="39" len="12" pan="0"/>
          <note pos="816" vol="174" key="28" len="12" pan="0"/>
          <note pos="840" vol="136" key="39" len="12" pan="0"/>
          <note pos="840" vol="136" key="34" len="12" pan="0"/>
          <note pos="852" vol="148" key="24" len="12" pan="0"/>
          <note pos="864" vol="136" key="39" len="12" pan="0"/>
          <note pos="864" vol="148" key="24" len="12" pan="0"/>
          <note pos="888" vol="136" key="39" len="12" pan="0"/>
          <note pos="888" vol="136" key="34" len="12" pan="0"/>
          <note pos="900" vol="148" key="24" len="12" pan="0"/>
          <note pos="912" vol="136" key="39" len="12" pan="0"/>
          <note pos="912" vol="174" key="28" len="12" pan="0"/>
          <note pos="936" vol="136" key="39" len="12" pan="0"/>
          <note pos="936" vol="136" key="34" len="12" pan="0"/>
          <note pos="948" vol="174" key="28" len="12" pan="0"/>
          <note pos="948" vol="148" key="24" len="12" pan="0"/>
          <note pos="960" vol="136" key="39" len="12" pan="0"/>
          <note pos="960" vol="148" key="24" len="12" pan="0"/>
          <note pos="984" vol="136" key="39" len="12" pan="0"/>
          <note pos="984" vol="136" key="34" len="12" pan="0"/>
          <note pos="996" vol="148" key="24" len="12" pan="0"/>
          <note pos="1008" vol="136" key="39" len="12" pan="0"/>
          <note pos="1008" vol="174" key="28" len="12" pan="0"/>
          <note pos="1032" vol="136" key="39" len="12" pan="0"/>
          <note pos="1032" vol="136" key="34" len="12" pan="0"/>
          <note pos="1044" vol="148" key="24" len="12" pan="0"/>
          <note pos="1056" vol="136" key="39" len="12" pan="0"/>
          <note pos="1056" vol="148" key="24" len="12" pan="0"/>
          <note pos="1080" vol="136" key="39" len="12" pan="0"/>
          <note pos="1080" vol="136" key="34" len="12" pan="0"/>
          <note pos="1092" vol="148" key="24" len="12" pan="0"/>
          <note pos="1104" vol="136" key="39" len="12" pan="0"/>
          <note pos="1104" vol="174" key="28" len="12" pan="0"/>
          <note pos="1128" vol="136" key="39" len="12" pan="0"/>
          <note pos="1128" vol="136" key="34" len="12" pan="0"/>
          <note pos="1140" vol="174" key="28" len="12" pan="0"/>
          <note pos="1140" vol="148" key="24" len="12" pan="0"/>
          <note pos="1152" vol="136" key="39" len="12" pan="0"/>
          <note pos="1152" vol="148" key="24" len="12" pan="0"/>
          <note pos="1176" vol="136" key="39" len="12" pan="0"/>
          <note pos="1176" vol="136" key="34" len="12" pan="0"/>
          <note pos="1188" vol="148" key="24" len="12" pan="0"/>
          <note pos="1200" vol="136" key="39" len="12" pan="0"/>
          <note pos="1200" vol="174" key="28" len="12" pan="0"/>
          <note pos="1224" vol="136" key="39" len="12" pan="0"/>
          <note pos="1224" vol="136" key="34" len="12" pan="0"/>
          <note pos="1236" vol="148" key="24" len="12" pan="0"/>
          <note pos="1248" vol="136" key="39" len="12" pan="0"/>
          <note pos="1248" vol="148" key="24" len="12" pan="0"/>
          <note pos="1272" vol="136" key="39" len="12" pan="0"/>
          <note pos="1272" vol="136" key="34" len="12" pan="0"/>
          <note pos="1284" vol="148" key="24" len="12" pan="0"/>
          <note pos="1296" vol="136" key="39" len="12" pan="0"/>
          <note pos="1296" vol="174" key="28" len="12" pan="0"/>
          <note pos="1320" vol="136" key="39" len="12" pan="0"/>
          <note pos="1320" vol="136" key="34" len="12" pan="0"/>
          <note pos="1332" vol="174" key="28" len="12" pan="0"/>
          <note pos="1332" vol="148" key="24" len="12" pan="0"/>
          <note pos="1344" vol="136" key="39" len="12" pan="0"/>
          <note pos="1344" vol="148" key="24" len="12" pan="0"/>
          <note pos="1368" vol="136" key="39" len="12" pan="0"/>
          <note pos="1368" vol="136" key="34" len="12" pan="0"/>
          <note pos="1380" vol="148" key="24" len="12" pan="0"/>
          <note pos="1392" vol="136" key="39" len="12" pan="0"/>
          <note pos="1392" vol="174" key="28" len="12" pan="0"/>
          <note pos="1416" vol="136" key="39" len="12" pan="0"/>
          <note pos="1416" vol="136" key="34" len="12" pan="0"/>
          <note pos="1428" vol="148" key="24" len="12" pan="0"/>
          <note pos="1440" vol="136" key="39" len="12" pan="0"/>
          <note pos="1440" vol="148" key="24" len="12" pan="0"/>
          <note pos="1464" vol="136" key="39" len="12" pan="0"/>
          <note pos="1464" vol="136" key="34" len="12" pan="0"/>
          <note pos="1464" vol="174" key="28" len="12" pan="0"/>
          <note pos="1476" vol="148" key="24" len="12" pan="0"/>
          <note pos="1488" vol="136" key="39" len="12" pan="0"/>
          <note pos="1488" vol="174" key="28" len="12" pan="0"/>
          <note pos="1512" vol="136" key="39" len="12" pan="0"/>
          <note pos="1512" vol="136" key="34" len="12" pan="0"/>
          <note pos="1512" vol="174" key="28" len="12" pan="0"/>
          <note pos="1524" vol="174" key="28" len="12" pan="0"/>
          <note pos="1524" vol="148" key="24" len="12" pan="0"/>
        </pattern>
        <pattern type="1" name="" muted="0" pos="6144" steps="16">
          <note pos="0" vol="136" key="39" len="12" pan="0"/>
          <note pos="0" vol="174" key="37" len="12" pan="0"/>
          <note pos="0" vol="148" key="24" len="12" pan="0"/>
          <note pos="24" vol="136" key="39" len="12" pan="0"/>
          <note pos="24" vol="136" key="34" len="12" pan="0"/>
          <note pos="36" vol="148" key="24" len="12" pan="0"/>
          <note pos="48" vol="136" key="39" len="12" pan="0"/>
          <note pos="48" vol="174" key="28" len="12" pan="0"/>
          <note pos="72" vol="136" key="39" len="12" pan="0"/>
          <note pos="72" vol="136" key="34" len="12" pan="0"/>
          <note pos="84" vol="148" key="24" len="12" pan="0"/>
          <note pos="96" vol="136" key="39" len="12" pan="0"/>
          <note pos="96" vol="148" key="24" len="12" pan="0"/>
          <note pos="120" vol="136" key="39" len="12" pan="0"/>
          <note pos="120" vol="136" key="34" len="12" pan="0"/>
          <note pos="132" vol="148" key="24" len="12" pan="0"/>
          <note pos="144" vol="136" key="39" len="12" pan="0"/>
          <note pos="144" vol="174" key="28" len="12" pan="0"/>
          <note pos="168" vol="136" key="39" len="12" pan="0"/>
          <note pos="168" vol="136" key="34" len="12" pan="0"/>
          <note pos="180" vol="174" key="28" len="12" pan="0"/>
          <note pos="180" vol="148" key="24" len="12" pan="0"/>
          <note pos="192" vol="136" key="39" len="12" pan="0"/>
          <note pos="192" vol="148" key="24" len="12" pan="0"/>
          <note pos="216" vol="136" key="39" len="12" pan="0"/>
          <note pos="216" vol="136" key="34" len="12" pan="0"/>
          <note pos="228" vol="148" key="24" len="12" pan="0"/>
          <note pos="240" vol="136" key="39" len="12" pan="0"/>
          <note pos="240" vol="174" key="28" len="12" pan="0"/>
          <note pos="264" vol="136" key="39" len="12" pan="0"/>
          <note pos="264" vol="136" key="34" len="12" pan="0"/>
          <note pos="276" vol="148" key="24" len="12" pan="0"/>
          <note pos="288" vol="136" key="39" len="12" pan="0"/>
          <note pos="288" vol="148" key="24" len="12" pan="0"/>
          <note pos="312" vol="136" key="39" len="12" pan="0"/>
          <note pos="312" vol="136" key="34" len="12" pan="0"/>
          <note pos="324" vol="148" key="24" len="12" pan="0"/>
          <note pos="336" vol="136" key="39" len="12" pan="0"/>
          <note pos="336" vol="174" key="28" len="12" pan="0"/>
          <note pos="360" vol="136" key="39" len="12" pan="0"/>
          <note pos="360" vol="136" key="34" len="12" pan="0"/>
          <note pos="372" vol="174" key="28" len="12" pan="0"/>
          <note pos="372" vol="148" key="24" len="12" pan="0"/>
          <note pos="384" vol="136" key="39" len="12" pan="0"/>
          <note pos="384" vol="148" key="24" len="12" pan="0"/>
          <note pos="408" vol="136" key="39" len="12" pan="0"/>
          <note pos="408" vol="136" key="34" len="12" pan="0"/>
          <note pos="420" vol="148" key="24" len="12" pan="0"/>
          <note pos="432" vol="136" key="39" len="12" pan="0"/>
          <note pos="432" vol="174" key="28" len="12" pan="0"/>
          <note pos="456" vol="136" key="39" len="12" pan="0"/>
          <note pos="456" vol="136" key="34" len="12" pan="0"/>
          <note pos="468" vol="148" key="24" len="12" pan="0"/>
          <note pos="480" vol="136" key="39" len="12" pan="0"/>
          <note pos="480" vol="148" key="24" len="12" pan="0"/>
          <note pos="504" vol="136" key="39" len="12" pan="0"/>
          <note pos="504" vol="136" key="34" len="12" pan="0"/>
          <note pos="516" vol="148" key="24" len="12" pan="0"/>
          <note pos="528" vol="136" key="39" len="12" pan="0"/>
          <note pos="528" vol="174" key="28" len="12" pan="0"/>
          <note pos="552" vol="136" key="39" len="12" pan="0"/>
          <note pos="552" vol="136" key="34" len="12" pan="0"/>
          <note pos="564" vol="174" key="28" len="12" pan="0"/>
          <note pos="564" vol="148" key="24" len="12" pan="0"/>
          <note pos="576" vol="136" key="39" len="12" pan="0"/>
          <note pos="576" vol="148" key="24" len="12" pan="0"/>
          <note pos="600" vol="136" key="39" len="12" pan="0"/>
          <note pos="600" vol="136" key="34" len="12" pan="0"/>
          <note pos="612" vol="148" key="24" len="12" pan="0"/>
          <note pos="624" vol="136" key="39" len="12" pan="0"/>
          <note pos="624" vol="174" key="28" len="12" pan="0"/>
          <note pos="648" vol="136" key="39" len="12" pan="0"/>
          <note pos="648" vol="136" key="34" len="12" pan="0"/>
          <note pos="660" vol="148" key="24" len="12" pan="0"/>
          <note pos="672" vol="136" key="39" len="12" pan="0"/>
          <note pos="672" vol="148" key="24" len="12" pan="0"/>
          <note pos="696" vol="136" key="39" len="12" pan="0"/>
          <note pos="696" vol="136" key="34" len="12" pan="0"/>
          <note pos="696" vol="174" key="28" len="12" pan="0"/>
          <note pos="708" vol="148" key="24" len="12" pan="0"/>
          <note pos="720" vol="136" key="39" len="12" pan="0"/>
          <note pos="720" vol="174" key="28" len="12" pan="0"/>
          <note pos="744" vol="136" key="39" len="12" pan="0"/>
          <note pos="744" vol="136" key="34" len="12" pan="0"/>
          <note pos="756" vol="174" key="28" len="12" pan="0"/>
          <note pos="756" vol="148" key="24" len="12" pan="0"/>
          <note pos="768" vol="136" key="39" len="12" pan="0"/>
          <note pos="768" vol="174" key="37" len="12" pan="0"/>
          <note pos="768" vol="148" key="24" len="12" pan="0"/>
          <note pos="792" vol="136" key="39" len="12" pan="0"/>
          <note pos="792" vol="136" key="34" len="12" pan="0"/>
          <note pos="804" vol="148" key="24" len="12" pan="0"/>
          <note pos="816" vol="136" key="39" len="12" pan="0"/>
          <note pos="816" vol="174" key="28" len="12" pan="0"/>
          <note pos="840" vol="136" key="39" len="12" pan="0"/>
          <note pos="840" vol="136" key="34" len="12" pan="0"/>
          <note pos="852" vol="148" key="24" len="12" pan="0"/>
          <note pos="864" vol="136" key="39" len="12" pan="0"/>
          <note pos="864" vol="148" key="24" len="12" pan="0"/>
          <note pos="888" vol="136" key="39" len="12" pan="0"/>
          <note pos="888" vol="136" key="34" len="12" pan="0"/>
          <note pos="900" vol="148" key="24" len="12" pan="0"/>
          <note pos="912" vol="136" key="39" len="12" pan="0"/>
          <note pos="912" vol="174" key="28" len="12" pan="0"/>
          <note pos="936" vol="136" key="39" len="12" pan="0"/>
          <note pos="936" vol="136" key="34" len="12" pan="0"/>
          <note pos="948" vol="174" key="28" len="12" pan="0"/>
          <note pos="948" vol="148" key="24" len="12" pan="0"/>
          <note pos="960" vol="136" key="39" len="12" pan="0"/>
          <note pos="960" vol="148" key="24" len="12" pan="0"/>
          <note pos="984" vol="136" key="39" len="12" pan="0"/>
          <note pos="984" vol="136" key="34" len="12" pan="0"/>
          <note pos="996" vol="148" key="24" len="12" pan="0"/>
          <note pos="1008" vol="136" key="39" len="12" pan="0"/>
          <note pos="1008" vol="174" key="28" len="12" pan="0"/>
          <note pos="1032" vol="136" key="39" len="12" pan="0"/>
          <note pos="1032" vol="136" key="34" len="12" pan="0"/>
          <note pos="1044" vol="148" key="24" len="12" pan="0"/>
          <note pos="1056" vol="136" key="39" len="12" pan="0"/>
          <note pos="1056" vol="148" key="24" len="12" pan="0"/>
          <note pos="1080" vol="136" key="39" len="12" pan="0"/>
          <note pos="1080" vol="136" key="34" len="12" pan="0"/>
          <note pos="1092" vol="148" key="24" len="12" pan="0"/>
          <note pos="1104" vol="136" key="39" len="12" pan="0"/>
          <note pos="1104" vol="174" key="28" len="12" pan="0"/>
          <note pos="1128" vol="136" key="39" len="12" pan="0"/>
          <note pos="1128" vol="136" key="34" len="12" pan="0"/>
          <note pos="1140" vol="174" key="28" len="12" pan="0"/>
          <note pos="1140" vol="148" key="24" len="12" pan="0"/>
          <note pos="1152" vol="136" key="39" len="12" pan="0"/>
          <note pos="1152" vol="148" key="24" len="12" pan="0"/>
          <note pos="1176" vol="136" key="39" len="12" pan="0"/>
          <note pos="1176" vol="136" key="34" len="12" pan="0"/>
          <note pos="1188" vol="148" key="24" len="12" pan="0"/>
          <note pos="1200" vol="136" key="39" len="12" pan="0"/>
          <note pos="1200" vol="174" key="28" len="12" pan="0"/>
          <note pos="1224" vol="136" key="39" len="12" pan="0"/>
          <note pos="1224" vol="136" key="34" len="12" pan="0"/>
          <note pos="1236" vol="148" key="24" len="12" pan="0"/>
          <note pos="1248" vol="136" key="39" len="12" pan="0"/>
          <note pos="1248" vol="148" key="24" len="12" pan="0"/>
          <note pos="1272" vol="136" key="39" len="12" pan="0"/>
          <note pos="1272" vol="136" key="34" len="12" pan="0"/>
          <note pos="1284" vol="148" key="24" len="12" pan="0"/>
          <note pos="1296" vol="136" key="39" len="12" pan="0"/>
          <note pos="1296" vol="174" key="28" len="12" pan="0"/>
          <note pos="1320" vol="136" key="39" len="12" pan="0"/>
          <note pos="1320" vol="136" key="34" len="12" pan="0"/>
          <note pos="1332" vol="174" key="28" len="12" pan="0"/>
          <note pos="1332" vol="148" key="24" len="12" pan="0"/>
          <note pos="1344" vol="136" key="39" len="12" pan="0"/>
          <note pos="1344" vol="148" key="24" len="12" pan="0"/>
          <note pos="1368" vol="136" key="39" len="12" pan="0"/>
          <note pos="1368" vol="136" key="34" len="12" pan="0"/>
          <note pos="1380" vol="148" key="24" len="12" pan="0"/>
          <note pos="1392" vol="136" key="39" len="12" pan="0"/>
          <note pos="1392" vol="174" key="28" len="12" pan="0"/>
          <note pos="1416" vol="136" key="39" len="12" pan="0"/>
          <note pos="1416" vol="136" key="34" len="12" pan="0"/>
          <note pos="1428" vol="148" key="24" len="12" pan="0"/>
          <note pos="1440" vol="136" key="39" len="12" pan="0"/>
          <note pos="1440" vol="148" key="24" len="12" pan="0"/>
          <note pos="1464" vol="136" key="39" len="12" pan="0"/>
          <note pos="1464" vol="136" key="34" len="12" pan="0"/>
          <note pos="1464" vol="174" key="28" len="12" pan="0"/>
          <note pos="1476" vol="148" key="24" len="12" pan="0"/>
          <note pos="1488" vol="136" key="39" len="12" pan="0"/>
          <note pos="1488" vol="174" key="28" len="12" pan="0"/>
          <note pos="1512" vol="136" key="39" len="12" pan="0"/>
          <note pos="1512" vol="136" key="34" len="12" pan="0"/>
          <note pos="1512" vol="174" key="28" len="12" pan="0"/>
          <note pos="1524" vol="174" key="28" len="12" pan="0"/>
          <note pos="1524" vol="148" key="24" len="12" pan="0"/>
        </pattern>
        <pattern type="1" name="" muted="0" pos="7680" steps="16">
          <note pos="0" vol="136" key="39" len="12" pan="0"/>
          <note pos="0" vol="174" key="37" len="12" pan="0"/>
          <note pos="0" vol="148" key="24" len="12" pan="0"/>
          <note pos="24" vol="136" key="39" len="12" pan="0"/>
          <note pos="24" vol="136" key="34" len="12" pan="0"/>
          <note pos="36" vol="148" key="24" len="12" pan="0"/>
          <note pos="48" vol="136" key="39" len="12" pan="0"/>
          <note pos="48" vol="174" key="28" len="12" pan="0"/>
          <note pos="72" vol="136" key="39" len="12" pan="0"/>
          <note pos="72" vol="136" key="34" len="12" pan="0"/>
          <note pos="84" vol="148" key="24" len="12" pan="0"/>
          <note pos="96" vol="136" key="39" len="12" pan="0"/>
          <note pos="96" vol="148" key="24" len="12" pan="0"/>
          <note pos="120" vol="136" key="39" len="12" pan="0"/>
          <note pos="120" vol="136" key="34" len="12" pan="0"/>
          <note pos="132" vol="148" key="24" len="12" pan="0"/>
          <note pos="144" vol="136" key="39" len="12" pan="0"/>
          <note pos="144" vol="174" key="28" len="12" pan="0"/>
          <note pos="168" vol="136" key="39" len="12" pan="0"/>
          <note pos="168" vol="136" key="34" len="12" pan="0"/>
          <note pos="180" vol="174" key="28" len="12" pan="0"/>
          <note pos="180" vol="148" key="24" len="12" pan="0"/>
          <note pos="192" vol="136" key="39" len="12" pan="0"/>
          <note pos="192" vol="148" key="24" len="12" pan="0"/>
          <note pos="216" vol="136" key="39" len="12" pan="0"/>
          <note pos="216" vol="136" key="34" len="12" pan="0"/>
          <note pos="228" vol="148" key="24" len="12" pan="0"/>
          <note pos="240" vol="136" key="39" len="12" pan="0"/>
          <note pos="240" vol="174" key="28" len="12" pan="0"/>
          <note pos="264" vol="136" key="39" len="12" pan="0"/>
          <note pos="264" vol="136" key="34" len="12" pan="0"/>
          <note pos="276" vol="148" key="24" len="12" pan="0"/>
          <note pos="288" vol="136" key="39" len="12" pan="0"/>
          <note pos="288" vol="148" key="24" len="12" pan="0"/>
          <note pos="312" vol="136" key="39" len="12" pan="0"/>
          <note pos="312" vol="136" key="34" len="12" pan="0"/>
          <note pos="324" vol="148" key="24" len="12" pan="0"/>
          <note pos="336" vol="136" key="39" len="12" pan="0"/>
          <note pos="336" vol="174" key="28" len="12" pan="0"/>
          <note pos="360" vol="136" key="39" len="12" pan="0"/>
          <note pos="360" vol="136" key="34" len="12" pan="0"/>
          <note pos="372" vol="174" key="28" len="12" pan="0"/>
          <note pos="372" vol="148" key="24" len="12" pan="0"/>
          <note pos="384" vol="136" key="39" len="12" pan="0"/>
          <note pos="384" vol="148" key="24" len="12" pan="0"/>
          <note pos="408" vol="136" key="39" len="12" pan="0"/>
          <note pos="408" vol="136" key="34" len="12" pan="0"/>
          <note pos="420" vol="148" key="24" len="12" pan="0"/>
          <note pos="432" vol="136" key="39" len="12" pan="0"/>
          <note pos="432" vol="174" key="28" len="12" pan="0"/>
          <note pos="456" vol="136" key="39" len="12" pan="0"/>
          <note pos="456" vol="136" key="34" len="12" pan="0"/>
          <note pos="468" vol="148" key="24" len="12" pan="0"/>
          <note pos="480" vol="136" key="39" len="12" pan="0"/>
          <note pos="480" vol="148" key="24" len="12" pan="0"/>
          <note pos="504" vol="136" key="39" len="12" pan="0"/>
          <note pos="504" vol="136" key="34" len="12" pan="0"/>
          <note pos="516" vol="148" key="24" len="12" pan="0"/>
          <note pos="528" vol="136" key="39" len="12" pan="0"/>
          <note pos="528" vol="174" key="28" len="12" pan="0"/>
          <note pos="552" vol="136" key="39" len="12" pan="0"/>
          <note pos="552" vol="136" key="34" len="12" pan="0"/>
          <note pos="564" vol="174" key="28" len="12" pan="0"/>
          <note pos="564" vol="148" key="24" len="12" pan="0"/>
          <note pos="576" vol="136" key="39" len="12" pan="0"/>
          <note pos="576" vol="148" key="24" len="12" pan="0"/>
          <note pos="600" vol="136" key="39" len="12" pan="0"/>
          <note pos="600" vol="136" key="34" len="12" pan="0"/>
          <note pos="612" vol="148" key="24" len="12" pan="0"/>
          <note pos="624" vol="136" key="39" len="12" pan="0"/>
          <note pos="624" vol="174" key="28" len="12" pan="0"/>
          <note pos="648" vol="136" key="39" len="12" pan="0"/>
          <note pos="648" vol="136" key="34" len="12" pan="0"/>
          <note pos="660" vol="148" key="24" len="12" pan="0"/>
          <note pos="672" vol="136" key="39" len="12" pan="0"/>
          <note pos="672" vol="148" key="24" len="12" pan="0"/>
          <note pos="696" vol="136" key="39" len="12" pan="0"/>
          <note pos="696" vol="136" key="34" len="12" pan="0"/>
          <note pos="696" vol="174" key="28" len="12" pan="0"/>
          <note pos="708" vol="148" key="24" len="12" pan="0"/>
          <note pos="720" vol="136" key="39" len="12" pan="0"/>
          <note pos="720" vol="174" key="28" len="12" pan="0"/>
          <note pos="744" vol="136" key="39" len="12" pan="0"/>
          <note pos="744" vol="136" key="34" len="12" pan="0"/>
          <note pos="756" vol="174" key="28" len="12" pan="0"/>
          <note pos="756" vol="148" key="24" len="12" pan="0"/>
          <note pos="768" vol="136" key="39" len="12" pan="0"/>
          <note pos="768" vol="174" key="37" len="12" pan="0"/>
          <note pos="768" vol="148" key="24" len="12" pan="0"/>
          <note pos="792" vol="136" key="39" len="12" pan="0"/>
          <note pos="792" vol="136" key="34" len="12" pan="0"/>
          <note pos="804" vol="148" key="24" len="12" pan="0"/>
          <note pos="816" vol="136" key="39" len="12" pan="0"/>
          <note pos="816" vol="174" key="28" len="12" pan="0"/>
          <note pos="840" vol="136" key="39" len="12" pan="0"/>
          <note pos="840" vol="136" key="34" len="12" pan="0"/>
          <note pos="852" vol="148" key="24" len="12" pan="0"/>
          <note pos="864" vol="136" key="39" len="12" pan="0"/>
          <note pos="864" vol="148" key="24" len="12" pan="0"/>
          <note pos="888" vol="136" key="39" len="12" pan="0"/>
          <note pos="888" vol="136" key="34" len="12" pan="0"/>
          <note pos="900" vol="148" key="24" len="12" pan="0"/>
          <note pos="912" vol="136" key="39" len="12" pan="0"/>
          <note pos="912" vol="174" key="28" len="12" pan="0"/>
          <note pos="936" vol="136" key="39" len="12" pan="0"/>
          <note pos="936" vol="136" key="34" len="12" pan="0"/>
          <note pos="948" vol="174" key="28" len="12" pan="0"/>
          <note pos="948" vol="148" key="24" len="12" pan="0"/>
          <note pos="960" vol="136" key="39" len="12" pan="0"/>
          <note pos="960" vol="148" key="24" len="12" pan="0"/>
          <note pos="984" vol="136" key="39" len="12" pan="0"/>
          <note pos="984" vol="136" key="34" len="12" pan="0"/>
          <note pos="996" vol="148" key="24" len="12" pan="0"/>
          <note pos="1008" vol="136" key="39" len="12" pan="0"/>
          <note pos="1008" vol="174" key="28" len="12" pan="0"/>
          <note pos="1032" vol="136" key="39" len="12" pan="0"/>
          <note pos="1032" vol="136" key="34" len="12" pan="0"/>
          <note pos="1044" vol="148" key="24" len="12" pan="0"/>
          <note pos="1056" vol="136" key="39" len="12" pan="0"/>
          <note pos="1056" vol="148" key="24" len="12" pan="0"/>
          <note pos="1080" vol="136" key="39" len="12" pan="0"/>
          <note pos="1080" vol="136" key="34" len="12" pan="0"/>
          <note pos="1092" vol="148" key="24" len="12" pan="0"/>
          <note pos="1104" vol="136" key="39" len="12" pan="0"/>
          <note pos="1104" vol="174" key="28" len="12" pan="0"/>
          <note pos="1128" vol="136" key="39" len="12" pan="0"/>
          <note pos="1128" vol="136" key="34" len="12" pan="0"/>
          <note pos="1140" vol="174" key="28" len="12" pan="0"/>
          <note pos="1140" vol="148" key="24" len="12" pan="0"/>
          <note pos="1152" vol="136" key="39" len="12" pan="0"/>
          <note pos="1152" vol="148" key="24" len="12" pan="0"/>
          <note pos="1176" vol="136" key="39" len="12" pan="0"/>
          <note pos="1176" vol="136" key="34" len="12" pan="0"/>
          <note pos="1188" vol="148" key="24" len="12" pan="0"/>
          <note pos="1200" vol="136" key="39" len="12" pan="0"/>
          <note pos="1200" vol="174" key="28" len="12" pan="0"/>
          <note pos="1224" vol="136" key="39" len="12" pan="0"/>
          <note pos="1224" vol="136" key="34" len="12" pan="0"/>
          <note pos="1236" vol="148" key="24" len="12" pan="0"/>
          <note pos="1248" vol="136" key="39" len="12" pan="0"/>
          <note pos="1248" vol="148" key="24" len="12" pan="0"/>
          <note pos="1272" vol="136" key="39" len="12" pan="0"/>
          <note pos="1272" vol="136" key="34" len="12" pan="0"/>
          <note pos="1284" vol="148" key="24" len="12" pan="0"/>
          <note pos="1296" vol="136" key="39" len="12" pan="0"/>
          <note pos="1296" vol="174" key="28" len="12" pan="0"/>
          <note pos="1320" vol="136" key="39" len="12" pan="0"/>
          <note pos="1320" vol="136" key="34" len="12" pan="0"/>
          <note pos="1332" vol="174" key="28" len="12" pan="0"/>
          <note pos="1332" vol="148" key="24" len="12" pan="0"/>
          <note pos="1344" vol="136" key="39" len="12" pan="0"/>
          <note pos="1344" vol="148" key="24" len="12" pan="0"/>
          <note pos="1368" vol="136" key="39" len="12" pan="0"/>
          <note pos="1368" vol="136" key="34" len="12" pan="0"/>
          <note pos="1380" vol="148" key="24" len="12" pan="0"/>
          <note pos="1392" vol="136" key="39" len="12" pan="0"/>
          <note pos="1392" vol="174" key="28" len="12" pan="0"/>
          <note pos="1416" vol="136" key="39" len="12" pan="0"/>
          <note pos="1416" vol="136" key="34" len="12" pan="0"/>
          <note pos="1428" vol="148" key="24" len="12" pan="0"/>
          <note pos="1440" vol="136" key="39" len="12" pan="0"/>
          <note pos="1440" vol="148" key="24" len="12" pan="0"/>
          <note pos="1464" vol="136" key="39" len="12" pan="0"/>
          <note pos="1464" vol="136" key="34" len="12" pan="0"/>
          <note pos="1464" vol="174" key="28" len="12" pan="0"/>
          <note pos="1476" vol="148" key="24" len="12" pan="0"/>
          <note pos="1488" vol="136" key="39" len="12" pan="0"/>
          <note pos="1488" vol="174" key="28" len="12" pan="0"/>
          <note pos="1512" vol="136" key="39" len="12" pan="0"/>
          <note pos="1512" vol="136" key="34" len="12" pan="0"/>
          <note pos="1512" vol="174" key="28" len="12" pan="0"/>
          <note pos="1524" vol="174" key="28" len="12" pan="0"/>
          <note pos="1524" vol="148" key="24" len="12" pan="0"/>
        </pattern>
        <pattern type="1" name="" muted="0" pos="9216" steps="16">
          <note pos="0" vol="136" key="39" len="12" pan="0"/>
          <note pos="0" vol="174" key="37" len="12" pan="0"/>
          <note pos="0" vol="148" key="24" len="12" pan="0"/>
          <note pos="24" vol="136" key="39" len="12" pan="0"/>
          <note pos="24" vol="136" key="34" len="12" pan="0"/>
          <note pos="36" vol="148" key="24" len="12" pan="0"/>
          <note pos="48" vol="136" key="39" len="12" pan="0"/>
          <note pos="48" vol="174" key="28" len="12" pan="0"/>
          <note pos="72" vol="136" key="39" len="12" pan="0"/>
          <note pos="72" vol="136" key="34" len="12" pan="0"/>
          <note pos="84" vol="148" key="24" len="12" pan="0"/>
          <note pos="96" vol="136" key="39" len="12" pan="0"/>
          <note pos="96" vol="148" key="24" len="12" pan="0"/>
          <note pos="120" vol="136" key="39" len="12" pan="0"/>
          <note pos="120" vol="136" key="34" len="12" pan="0"/>
          <note pos="132" vol="148" key="24" len="12" pan="0"/>
          <note pos="144" vol="136" key="39" len="12" pan="0"/>
          <note pos="144" vol="174" key="28" len="12" pan="0"/>
          <note pos="168" vol="136" key="39" len="12" pan="0"/>
          <note pos="168" vol="136" key="34" len="12" pan="0"/>
          <note pos="180" vol="174" key="28" len="12" pan="0"/>
          <note pos="180" vol="148" key="24" len="12" pan="0"/>
          <note pos="192" vol="136" key="39" len="12" pan="0"/>
          <note pos="192" vol="148" key="24" len="12" pan="0"/>
          <note pos="216" vol="136" key="39" len="12" pan="0"/>
          <note pos="216" vol="136" key="34" len="12" pan="0"/>
          <note pos="228" vol="148" key="24" len="12" pan="0"/>
          <note pos="240" vol="136" key="39" len="12" pan="0"/>
          <note pos="240" vol="174" key="28" len="12" pan="0"/>
          <note pos="264" vol="136" key="39" len="12" pan="0"/>
          <note pos="264" vol="136" key="34" len="12" pan="0"/>
          <note pos="276" vol="148" key="24" len="12" pan="0"/>
          <note pos="288" vol="136" key="39" len="12" pan="0"/>
          <note pos="288" vol="148" key="24" len="12" pan="0"/>
          <note pos="312" vol="136" key="39" len="12" pan="0"/>
          <note pos="312" vol="136" key="34" len="12" pan="0"/>
          <note pos="324" vol="148" key="24" len="12" pan="0"/>
          <note pos="336" vol="136" key="39" len="12" pan="0"/>
          <note pos="336" vol="174" key="28" len="12" pan="0"/>
          <note pos="360" vol="136" key="39" len="12" pan="0"/>
          <note pos="360" vol="136" key="34" len="12" pan="0"/>
          <note pos="372" vol="174" key="28" len="12" pan="0"/>
          <note pos="372" vol="148" key="24" len="12" pan="0"/>
          <note pos="384" vol="136" key="39" len="12" pan="0"/>
          <note pos="384" vol="148" key="24" len="12" pan="0"/>
          <note pos="408" vol="136" key="39" len="12" pan="0"/>
          <note pos="408" vol="136" key="34" len="12" pan="0"/>
          <note pos="420" vol="148" key="24" len="12" pan="0"/>
          <note pos="432" vol="136" key="39" len="12" pan="0"/>
          <note pos="432" vol="174" key="28" len="12" pan="0"/>
          <note pos="456" vol="136" key="39" len="12" pan="0"/>
          <note pos="456" vol="136" key="34" len="12" pan="0"/>
          <note pos="468" vol="148" key="24" len="12" pan="0"/>
          <note pos="480" vol="136" key="39" len="12" pan="0"/>
          <note pos="480" vol="148" key="24" len="12" pan="0"/>
          <note pos="504" vol="136" key="39" len="12" pan="0"/>
          <note pos="504" vol="136" key="34" len="12" pan="0"/>
          <note pos="516" vol="148" key="24" len="12" pan="0"/>
          <note pos="528" vol="136" key="39" len="12" pan="0"/>
          <note pos="528" vol="174" key="28" len="12" pan="0"/>
          <note pos="552" vol="136" key="39" len="12" pan="0"/>
          <note pos="552" vol="136" key="34" len="12" pan="0"/>
          <note pos="564" vol="174" key="28" len="12" pan="0"/>
          <note pos="564" vol="148" key="24" len="12" pan="0"/>
          <note pos="576" vol="136" key="39" len="12" pan="0"/>
          <note pos="576" vol="148" key="24" len="12" pan="0"/>
          <note pos="600" vol="136" key="39" len="12" pan="0"/>
          <note pos="600" vol="136" key="34" len="12" pan="0"/>
          <note pos="612" vol="148" key="24" len="12" pan="0"/>
          <note pos="624" vol="136" key="39" len="12" pan="0"/>
          <note pos="624" vol="174" key="28" len="12" pan="0"/>
          <note pos="648" vol="136" key="39" len="12" pan="0"/>
          <note pos="648" vol="136" key="34" len="12" pan="0"/>
          <note pos="660" vol="148" key="24" len="12" pan="0"/>
          <note pos="672" vol="136" key="39" len="12" pan="0"/>
          <note pos="672" vol="148" key="24" len="12" pan="0"/>
          <note pos="696" vol="136" key="39" len="12" pan="0"/>
          <note pos="696" vol="136" key="34" len="12" pan="0"/>
          <note pos="696" vol="174" key="28" len="12" pan="0"/>
          <note pos="708" vol="148" key="24" len="12" pan="0"/>
          <note pos="720" vol="136" key="39" len="12" pan="0"/>
          <note pos="720" vol="174" key="28" len="12" pan="0"/>
          <note pos="744" vol="136" key="39" len="12" pan="0"/>
          <note pos="744" vol="136" key="34" len="12" pan="0"/>
          <note pos="756" vol="174" key="28" len="12" pan="0"/>
          <note pos="756" vol="148" key="24" len="12" pan="0"/>
          <note pos="768" vol="136" key="39" len="12" pan="0"/>
          <note pos="768" vol="174" key="37" len="12" pan="0"/>
          <note pos="768" vol="148" key="24" len="12" pan="0"/>
          <note pos="792" vol="136" key="39" len="12" pan="0"/>
          <note pos="792" vol="136" key="34" len="12" pan="0"/>
          <note pos="804" vol="148" key="24" len="12" pan="0"/>
          <note pos="816" vol="136" key="39" len="12" pan="0"/>
          <note pos="816" vol="174" key="28" len="12" pan="0"/>
          <note pos="840" vol="136" key="39" len="12" pan="0"/>
          <note pos="840" vol="136" key="34" len="12" pan="0"/>
          <note pos="852" vol="148" key="24" len="12" pan="0"/>
          <note pos="864" vol="136" key="39" len="12" pan="0"/>
          <note pos="864" vol="148" key="24" len="12" pan="0"/>
          <note pos="888" vol="136" key="39" len="12" pan="0"/>
          <note pos="888" vol="136" key="34" len="12" pan="0"/>
          <note pos="900" vol="148" key="24" len="12" pan="0"/>
          <note pos="912" vol="136" key="39" len="12" pan="0"/>
          <note pos="912" vol="174" key="28" len="12" pan="0"/>
          <note pos="936" vol="136" key="39" len="12" pan="0"/>
          <note pos="936" vol="136" key="34" len="12" pan="0"/>
          <note pos="948" vol="174" key="28" len="12" pan="0"/>
          <note pos="948" vol="148" key="24" len="12" pan="0"/>
          <note pos="960" vol="136" key="39" len="12" pan="0"/>
          <note pos="960" vol="148" key="24" len="12" pan="0"/>
          <note pos="984" vol="136" key="39" len="12" pan="0"/>
          <note pos="984" vol="136" key="34" len="12" pan="0"/>
          <note pos="996" vol="148" key="24" len="12" pan="0"/>
          <note pos="1008" vol="136" key="39" len="12" pan="0"/>
          <note pos="1008" vol="174" key="28" len="12" pan="0"/>
          <note pos="1032" vol="136" key="39" len="12" pan="0"/>
          <note pos="1032" vol="136" key="34" len="12" pan="0"/>
          <note pos="1044" vol="148" key="24" len="12" pan="0"/>
          <note pos="1056" vol="136" key="39" len="12" pan="0"/>
          <note pos="1056" vol="148" key="24" len="12" pan="0"/>
          <note pos="1080" vol="136" key="39" len="12" pan="0"/>
          <note pos="1080" vol="136" key="34" len="12" pan="0"/>
          <note pos="1092" vol="148" key="24" len="12" pan="0"/>
          <note pos="1104" vol="136" key="39" len="12" pan="0"/>
          <note pos="1104" vol="174" key="28" len="12" pan="0"/>
          <note pos="1128" vol="136" key="39" len="12" pan="0"/>
          <note pos="1128" vol="136" key="34" len="12" pan="0"/>
          <note pos="1140" vol="174" key="28" len="12" pan="0"/>
          <note pos="1140" vol="148" key="24" len="12" pan="0"/>
          <note pos="1152" vol="136" key="39" len="12" pan="0"/>
          <note pos="1152" vol="148" key="24" len="12" pan="0"/>
          <note pos="1176" vol="136" key="39" len="12" pan="0"/>
          <note pos="1176" vol="136" key="34" len="12" pan="0"/>
          <note pos="1188" vol="148" key="24" len="12" pan="0"/>
          <note pos="1200" vol="136" key="39" len="12" pan="0"/>
          <note pos="1200" vol="174" key="28" len="12" pan="0"/>
          <note pos="1224" vol="136" key="39" len="12" pan="0"/>
          <note pos="1224" vol="136" key="34" len="12" pan="0"/>
          <note pos="1236" vol="148" key="24" len="12" pan="0"/>
          <note pos="1248" vol="136" key="39" len="12" pan="0"/>
          <note pos="1248" vol="148" key="24" len="12" pan="0"/>
          <note pos="1272" vol="136" key="39" len="12" pan="0"/>
          <note pos="1272" vol="136" key="34" len="12" pan="0"/>
          <note pos="1284" vol="148" key="24" len="12" pan="0"/>
          <note pos="1296" vol="136" key="39" len="12" pan="0"/>
          <note pos="1296" vol="174" key="28" len="12" pan="0"/>
          <note pos="1320" vol="136" key="39" len="12" pan="0"/>
          <note pos="1320" vol="136" key="34" len="12" pan="0"/>
          <note pos="1332" vol="174" key="28" len="12" pan="0"/>
          <note pos="1332" vol="148" key="24" len="12" pan="0"/>
          <note pos="1344" vol="136" key="39" len="12" pan="0"/>
          <note pos="1344" vol="148" key="24" len="12" pan="0"/>
          <note pos="1368" vol="136" key="39" len="12" pan="0"/>
          <note pos="1368" vol="136" key="34" len="12" pan="0"/>
          <note pos="1380" vol="148" key="24" len="12" pan="0"/>
          <note pos="1392" vol="136" key="39" len="12" pan="0"/>
          <note pos="1392" vol="174" key="28" len="12" pan="0"/>
          <note pos="1416" vol="136" key="39" len="12" pan="0"/>
          <note pos="1416" vol="136" key="34" len="12" pan="0"/>
          <note pos="1428" vol="148" key="24" len="12" pan="0"/>
          <note pos="1440" vol="136" key="39" len="12" pan="0"/>
          <note pos="1440" vol="148" key="24" len="12" pan="0"/>
          <note pos="1464" vol="136" key="39" len="12" pan="0"/>
          <note pos="1464" vol="136" key="34" len="12" pan="0"/>
          <note pos="1464" vol="174" key="28" len="12" pan="0"/>
          <note pos="1476" vol="148" key="24" len="12" pan="0"/>
          <note pos="1488" vol="136" key="39" len="12" pan="0"/>
          <note pos="1488" vol="174" key="28" len="12" pan="0"/>
          <note pos="1512" vol="136" key="39" len="12" pan="0"/>
          <note pos="1512" vol="136" key="34" len="12" pan="0"/>
          <note pos="1512" vol="174" key="28" len="12" pan="0"/>
          <note pos="1524" vol="174" key="28" len="12" pan="0"/>
          <note pos="1524" vol="148" key="24" len="12" pan="0"/>
        </pattern>
        <pattern type="1" name="" muted="0" pos="10752" steps="16">
          <note pos="0" vol="136" key="39" len="12" pan="0"/>
          <note pos="0" vol="174" key="37" len="12" pan="0"/>
          <note pos="0" vol="148" key="24" len="12" pan="0"/>
          <note pos="24" vol="136" key="39" len="12" pan="0"/>
          <note pos="24" vol="136" key="34" len="12" pan="0"/>
          <note pos="36" vol="148" key="24" len="12" pan="0"/>
          <note pos="48" vol="136" key="39" len="12" pan="0"/>
          <note pos="48" vol="174" key="28" len="12" pan="0"/>
          <note pos="72" vol="136" key="39" len="12" pan="0"/>
          <note pos="72" vol="136" key="34" len="12" pan="0"/>
          <note pos="84" vol="148" key="24" len="12" pan="0"/>
          <note pos="96" vol="136" key="39" len="12" pan="0"/>
          <note pos="96" vol="148" key="24" len="12" pan="0"/>
          <note pos="120" vol="136" key="39" len="12" pan="0"/>
          <note pos="120" vol="136" key="34" len="12" pan="0"/>
          <note pos="132" vol="148" key="24" len="12" pan="0"/>
          <note pos="144" vol="136" key="39" len="12" pan="0"/>
          <note pos="144" vol="174" key="28" len="12" pan="0"/>
          <note pos="168" vol="136" key="39" len="12" pan="0"/>
          <note pos="168" vol="136" key="34" len="12" pan="0"/>
          <note pos="180" vol="174" key="28" len="12" pan="0"/>
          <note pos="180" vol="148" key="24" len="12" pan="0"/>
          <note pos="192" vol="136" key="39" len="12" pan="0"/>
          <note pos="192" vol="148" key="24" len="12" pan="0"/>
          <note pos="216" vol="136" key="39" len="12" pan="0"/>
          <note pos="216" vol="136" key="34" len="12" pan="0"/>
          <note pos="228" vol="148" key="24" len="12" pan="0"/>
          <note pos="240" vol="136" key="39" len="12" pan="0"/>
          <note pos="240" vol="174" key="28" len="12" pan="0"/>
          <note pos="264" vol="136" key="39" len="12" pan="0"/>
          <note pos="264" vol="136" key="34" len="12" pan="0"/>
          <note pos="276" vol="148" key="24" len="12" pan="0"/>
          <note pos="288" vol="136" key="39" len="12" pan="0"/>
          <note pos="288" vol="148" key="24" len="12" pan="0"/>
          <note pos="312" vol="136" key="39" len="12" pan="0"/>
          <note pos="312" vol="136" key="34" len="12" pan="0"/>
          <note pos="324" vol="148" key="24" len="12" pan="0"/>
          <note pos="336" vol="136" key="39" len="12" pan="0"/>
          <note pos="336" vol="174" key="28" len="12" pan="0"/>
          <note pos="360" vol="136" key="39" len="12" pan="0"/>
          <note pos="360" vol="136" key="34" len="12" pan="0"/>
          <note pos="372" vol="174" key="28" len="12" pan="0"/>
          <note pos="372" vol="148" key="24" len="12" pan="0"/>
          <note pos="384" vol="136" key="39" len="12" pan="0"/>
          <note pos="384" vol="148" key="24" len="12" pan="0"/>
          <note pos="408" vol="136" key="39" len="12" pan="0"/>
          <note pos="408" vol="136" key="34" len="12" pan="0"/>
          <note pos="420" vol="148" key="24" len="12" pan="0"/>
          <note pos="432" vol="136" key="39" len="12" pan="0"/>
          <note pos="432" vol="174" key="28" len="12" pan="0"/>
          <note pos="456" vol="136" key="39" len="12" pan="0"/>
          <note pos="456" vol="136" key="34" len="12" pan="0"/>
          <note pos="468" vol="148" key="24" len="12" pan="0"/>
          <note pos="480" vol="136" key="39" len="12" pan="0"/>
          <note pos="480" vol="148" key="24" len="12" pan="0"/>
          <note pos="504" vol="136" key="39" len="12" pan="0"/>
          <note pos="504" vol="136" key="34" len="12" pan="0"/>
          <note pos="516" vol="148" key="24" len="12" pan="0"/>
          <note pos="528" vol="136" key="39" len="12" pan="0"/>
          <note pos="528" vol="174" key="28" len="12" pan="0"/>
          <note pos="552" vol="136" key="39" len="12" pan="0"/>
          <note pos="552" vol="136" key="34" len="12" pan="0"/>
          <note pos="564" vol="174" key="28" len="12" pan="0"/>
          <note pos="564" vol="148" key="24" len="12" pan="0"/>
          <note pos="576" vol="136" key="39" len="12" pan="0"/>
          <note pos="576" vol="148" key="24" len="12" pan="0"/>
          <note pos="600" vol="136" key="39" len="12" pan="0"/>
          <note pos="600" vol="136" key="34" len="12" pan="0"/>
          <note pos="612" vol="148" key="24" len="12" pan="0"/>
          <note pos="624" vol="136" key="39" len="12" pan="0"/>
          <note pos="624" vol="174" key="28" len="12" pan="0"/>
          <note pos="648" vol="136" key="39" len="12" pan="0"/>
          <note pos="648" vol="136" key="34" len="12" pan="0"/>
          <note pos="660" vol="148" key="24" len="12" pan="0"/>
          <note pos="672" vol="136" key="39" len="12" pan="0"/>
          <note pos="672" vol="148" key="24" len="12" pan="0"/>
          <note pos="696" vol="136" key="39" len="12" pan="0"/>
          <note pos="696" vol="136" key="34" len="12" pan="0"/>
          <note pos="696" vol="174" key="28" len="12" pan="0"/>
          <note pos="708" vol="148" key="24" len="12" pan="0"/>
          <note pos="720" vol="136" key="39" len="12" pan="0"/>
          <note pos="720" vol="174" key="28" len="12" pan="0"/>
          <note pos="744" vol="136" key="39" len="12" pan="0"/>
          <note pos="744" vol="136" key="34" len="12" pan="0"/>
          <note pos="756" vol="174" key="28" len="12" pan="0"/>
          <note pos="756" vol="148" key="24" len="12" pan="0"/>
          <note pos="768" vol="136" key="39" len="12" pan="0"/>
          <note pos="768" vol="174" key="37" len="12" pan="0"/>
          <note pos="768" vol="148" key="24" len="12" pan="0"/>
          <note pos="792" vol="136" key="39" len="12" pan="0"/>
          <note pos="792" vol="136" key="34" len="12" pan="0"/>
          <note pos="804" vol="148" key="24" len="12" pan="0"/>
          <note pos="816" vol="136" key="39" len="12" pan="0"/>
          <note pos="816" vol="174" key="28" len="12" pan="0"/>
          <note pos="840" vol="136" key="39" len="12" pan="0"/>
          <note pos="840" vol="136" key="34" len="12" pan="0"/>
          <note pos="852" vol="148" key="24" len="12" pan="0"/>
          <note pos="864" vol="136" key="39" len="12" pan="0"/>
          <note pos="864" vol="148" key="24" len="12" pan="0"/>
          <note pos="888" vol="136" key="39" len="12" pan="0"/>
          <note pos="888" vol="136" key="34" len="12" pan="0"/>
          <note pos="900" vol="148" key="24" len="12" pan="0"/>
          <note pos="912" vol="136" key="39" len="12" pan="0"/>
          <note pos="912" vol="174" key="28" len="12" pan="0"/>
          <note pos="936" vol="136" key="39" len="12" pan="0"/>
          <note pos="936" vol="136" key="34" len="12" pan="0"/>
          <note pos="948" vol="174" key="28" len="12" pan="0"/>
          <note pos="948" vol="148" key="24" len="12" pan="0"/>
          <note pos="960" vol="136" key="39" len="12" pan="0"/>
          <note pos="960" vol="148" key="24" len="12" pan="0"/>
          <note pos="984" vol="136" key="39" len="12" pan="0"/>
          <note pos="984" vol="136" key="34" len="12" pan="0"/>
          <note pos="996" vol="148" key="24" len="12" pan="0"/>
          <note pos="1008" vol="136" key="39" len="12" pan="0"/>
          <note pos="1008" vol="174" key="28" len="12" pan="0"/>
          <note pos="1032" vol="136" key="39" len="12" pan="0"/>
          <note pos="1032" vol="136" key="34" len="12" pan="0"/>
          <note pos="1044" vol="148" key="24" len="12" pan="0"/>
          <note pos="1056" vol="136" key="39" len="12" pan="0"/>
          <note pos="1056" vol="148" key="24" len="12" pan="0"/>
          <note pos="1080" vol="136" key="39" len="12" pan="0"/>
          <note pos="1080" vol="136" key="34" len="12" pan="0"/>
          <note pos="1092" vol="148" key="24" len="12" pan="0"/>
          <note pos="1104" vol="136" key="39" len="12" pan="0"/>
          <note pos="1104" vol="174" key="28" len="12" pan="0"/>
          <note pos="1128" vol="136" key="39" len="12" pan="0"/>
          <note pos="1128" vol="136" key="34" len="12" pan="0"/>
          <note pos="1140" vol="174" key="28" len="12" pan="0"/>
          <note pos="1140" vol="148" key="24" len="12" pan="0"/>
          <note pos="1152" vol="136" key="39" len="12" pan="0"/>
          <note pos="1152" vol="148" key="24" len="12" pan="0"/>
          <note pos="1176" vol="136" key="39" len="12" pan="0"/>
          <note pos="1176" vol="136" key="34" len="12" pan="0"/>
          <note pos="1188" vol="148" key="24" len="12" pan="0"/>
          <note pos="1200" vol="136" key="39" len="12" pan="0"/>
          <note pos="1200" vol="174" key="28" len="12" pan="0"/>
          <note pos="1224" vol="136" key="39" len="12" pan="0"/>
          <note pos="1224" vol="136" key="34" len="12" pan="0"/>
          <note pos="1236" vol="148" key="24" len="12" pan="0"/>
          <note pos="1248" vol="136" key="39" len="12" pan="0"/>
          <note pos="1248" vol="148" key="24" len="12" pan="0"/>
          <note pos="1272" vol="136" key="39" len="12" pan="0"/>
          <note pos="1272" vol="136" key="34" len="12" pan="0"/>
          <note pos="1284" vol="148" key="24" len="12" pan="0"/>
          <note pos="1296" vol="136" key="39" len="12" pan="0"/>
          <note pos="1296" vol="174" key="28" len="12" pan="0"/>
          <note pos="1320" vol="136" key="39" len="12" pan="0"/>
          <note pos="1320" vol="136" key="34" len="12" pan="0"/>
          <note pos="1332" vol="174" key="28" len="12" pan="0"/>
          <note pos="1332" vol="148" key="24" len="12" pan="0"/>
          <note pos="1344" vol="136" key="39" len="12" pan="0"/>
          <note pos="1344" vol="148" key="24" len="12" pan="0"/>
          <note pos="1368" vol="136" key="39" len="12" pan="0"/>
          <note pos="1368" vol="136" key="34" len="12" pan="0"/>
          <note pos="1380" vol="148" key="24" len="12" pan="0"/>
          <note pos="1392" vol="136" key="39" len="12" pan="0"/>
          <note pos="1392" vol="174" key="28" len="12" pan="0"/>
          <note pos="1416" vol="136" key="39" len="12" pan="0"/>
          <note pos="1416" vol="136" key="34" len="12" pan="0"/>
          <note pos="1428" vol="148" key="24" len="12" pan="0"/>
          <note pos="1440" vol="136" key="39" len="12" pan="0"/>
          <note pos="1440" vol="148" key="24" len="12" pan="0"/>
          <note pos="1464" vol="136" key="39" len="12" pan="0"/>
          <note pos="1464" vol="136" key="34" len="12" pan="0"/>
          <note pos="1464" vol="174" key="28" len="12" pan="0"/>
          <note pos="1476" vol="148" key="24" len="12" pan="0"/>
          <note pos="1488" vol="136" key="39" len="12" pan="0"/>
          <note pos="1488" vol="174" key="28" len="12" pan="0"/>
          <note pos="1512" vol="136" key="39" len="12" pan="0"/>
          <note pos="1512" vol="136" key="34" len="12" pan="0"/>
          <note pos="1512" vol="174" key="28" len="12" pan="0"/>
          <note pos="1524" vol="174" key="28" len="12" pan="0"/>
          <note pos="1524" vol="148" key="24" len="12" pan="0"/>
        </pattern>
        <pattern type="1" name="" muted="0" pos="12288" steps="16">
          <note pos="0" vol="136" key="39" len="12" pan="0"/>
          <note pos="0" vol="174" key="37" len="12" pan="0"/>
          <note pos="0" vol="148" key="24" len="12" pan="0"/>
          <note pos="24" vol="136" key="39" len="12" pan="0"/>
          <note pos="24" vol="136" key="34" len="12" pan="0"/>
          <note pos="36" vol="148" key="24" len="12" pan="0"/>
          <note pos="48" vol="136" key="39" len="12" pan="0"/>
          <note pos="48" vol="174" key="28" len="12" pan="0"/>
          <note pos="72" vol="136" key="39" len="12" pan="0"/>
          <note pos="72" vol="136" key="34" len="12" pan="0"/>
          <note pos="84" vol="148" key="24" len="12" pan="0"/>
          <note pos="96" vol="136" key="39" len="12" pan="0"/>
          <note pos="96" vol="148" key="24" len="12" pan="0"/>
          <note pos="120" vol="136" key="39" len="12" pan="0"/>
          <note pos="120" vol="136" key="34" len="12" pan="0"/>
          <note pos="132" vol="148" key="24" len="12" pan="0"/>
          <note pos="144" vol="136" key="39" len="12" pan="0"/>
          <note pos="144" vol="174" key="28" len="12" pan="0"/>
          <note pos="168" vol="136" key="39" len="12" pan="0"/>
          <note pos="168" vol="136" key="34" len="12" pan="0"/>
          <note pos="180" vol="174" key="28" len="12" pan="0"/>
          <note pos="180" vol="148" key="24" len="12" pan="0"/>
          <note pos="192" vol="136" key="39" len="12" pan="0"/>
          <note pos="192" vol="148" key="24" len="12" pan="0"/>
          <note pos="216" vol="136" key="39" len="12" pan="0"/>
          <note pos="216" vol="136" key="34" len="12" pan="0"/>
          <note pos="228" vol="148" key="24" len="12" pan="0"/>
          <note pos="240" vol="136" key="39" len="12" pan="0"/>
          <note pos="240" vol="174" key="28" len="12" pan="0"/>
          <note pos="264" vol="136" key="39" len="12" pan="0"/>
          <note pos="264" vol="136" key="34" len="12" pan="0"/>
          <note pos="276" vol="148" key="24" len="12" pan="0"/>
          <note pos="288" vol="136" key="39" len="12" pan="0"/>
          <note pos="288" vol="148" key="24" len="12" pan="0"/>
          <note pos="312" vol="136" key="39" len="12" pan="0"/>
          <note pos="312" vol="136" key="34" len="12" pan="0"/>
          <note pos="324" vol="148" key="24" len="12" pan="0"/>
          <note pos="336" vol="136" key="39" len="12" pan="0"/>
          <note pos="336" vol="174" key="28" len="12" pan="0"/>
          <note pos="360" vol="136" key="39" len="12" pan="0"/>
          <note pos="360" vol="136" key="34" len="12" pan="0"/>
          <note pos="372" vol="174" key="28" len="12" pan="0"/>
          <note pos="372" vol="148" key="24" len="12" pan="0"/>
          <note pos="384" vol="136" key="39" len="12" pan="0"/>
          <note pos="384" vol="148" key="24" len="12" pan="0"/>
          <note pos="408" vol="136" key="39" len="12" pan="0"/>
          <note pos="408" vol="136" key="34" len="12" pan="0"/>
          <note pos="420" vol="148" key="24" len="12" pan="0"/>
          <note pos="432" vol="136" key="39" len="12" pan="0"/>
          <note pos="432" vol="174" key="28" len="12" pan="0"/>
          <note pos="456" vol="136" key="39" len="12" pan="0"/>
          <note pos="456" vol="136" key="34" len="12" pan="0"/>
          <note pos="468" vol="148" key="24" len="12" pan="0"/>
          <note pos="480" vol="136" key="39" len="12" pan="0"/>
          <note pos="480" vol="148" key="24" len="12" pan="0"/>
          <note pos="504" vol="136" key="39" len="12" pan="0"/>
          <note pos="504" vol="136" key="34" len="12" pan="0"/>
          <note pos="516" vol="148" key="24" len="12" pan="0"/>
          <note pos="528" vol="136" key="39" len="12" pan="0"/>
          <note pos="528" vol="174" key="28" len="12" pan="0"/>
          <note pos="552" vol="136" key="39" len="12" pan="0"/>
          <note pos="552" vol="136" key="34" len="12" pan="0"/>
          <note pos="564" vol="174" key="28" len="12" pan="0"/>
          <note pos="564" vol="148" key="24" len="12" pan="0"/>
          <note pos="576" vol="136" key="39" len="12" pan="0"/>
          <note pos="576" vol="148" key="24" len="12" pan="0"/>
          <note pos="600" vol="136" key="39" len="12" pan="0"/>
          <note pos="600" vol="136" key="34" len="12" pan="0"/>
          <note pos="612" vol="148" key="24" len="12" pan="0"/>
          <note pos="624" vol="136" key="39" len="12" pan="0"/>
          <note pos="624" vol="174" key="28" len="12" pan="0"/>
          <note pos="648" vol="136" key="39" len="12" pan="0"/>
          <note pos="648" vol="136" key="34" len="12" pan="0"/>
          <note pos="660" vol="148" key="24" len="12" pan="0"/>
          <note pos="672" vol="136" key="39" len="12" pan="0"/>
          <note pos="672" vol="148" key="24" len="12" pan="0"/>
          <note pos="696" vol="136" key="39" len="12" pan="0"/>
          <note pos="696" vol="136" key="34" len="12" pan="0"/>
          <note pos="696" vol="174" key="28" len="12" pan="0"/>
          <note pos="708" vol="148" key="24" len="12" pan="0"/>
          <note pos="720" vol="136" key="39" len="12" pan="0"/>
          <note pos="720" vol="174" key="28" len="12" pan="0"/>
          <note pos="744" vol="136" key="39" len="12" pan="0"/>
          <note pos="744" vol="136" key="34" len="12" pan="0"/>
          <note pos="756" vol="174" key="28" len="12" pan="0"/>
          <note pos="756" vol="148" key="24" len="12" pan="0"/>
          <note pos="768" vol="136" key="39" len="12" pan="0"/>
          <note pos="768" vol="174" key="37" len="12" pan="0"/>
          <note pos="768" vol="148" key="24" len="12" pan="0"/>
          <note pos="792" vol="136" key="39" len="12" pan="0"/>
          <note pos="792" vol="136" key="34" len="12" pan="0"/>
          <note pos="804" vol="148" key="24" len="12" pan="0"/>
          <note pos="816" vol="136" key="39" len="12" pan="0"/>
          <note pos="816" vol="174" key="28" len="12" pan="0"/>
          <note pos="840" vol="136" key="39" len="12" pan="0"/>
          <note pos="840" vol="136" key="34" len="12" pan="0"/>
          <note pos="852" vol="148" key="24" len="12" pan="0"/>
          <note pos="864" vol="136" key="39" len="12" pan="0"/>
          <note pos="864" vol="148" key="24" len="12" pan="0"/>
          <note pos="888" vol="136" key="39" len="12" pan="0"/>
          <note pos="888" vol="136" key="34" len="12" pan="0"/>
          <note pos="900" vol="148" key="24" len="12" pan="0"/>
          <note pos="912" vol="136" key="39" len="12" pan="0"/>
          <note pos="912" vol="174" key="28" len="12" pan="0"/>
          <note pos="936" vol="136" key="39" len="12" pan="0"/>
          <note pos="936" vol="136" key="34" len="12" pan="0"/>
          <note pos="948" vol="174" key="28" len="12" pan="0"/>
          <note pos="948" vol="148" key="24" len="12" pan="0"/>
          <note pos="960" vol="136" key="39" len="12" pan="0"/>
          <note pos="960" vol="148" key="24" len="12" pan="0"/>
          <note pos="984" vol="136" key="39" len="12" pan="0"/>
          <note pos="984" vol="136" key="34" len="12" pan="0"/>
          <note pos="996" vol="148" key="24" len="12" pan="0"/>
          <note pos="1008" vol="136" key="39" len="12" pan="0"/>
          <note pos="1008" vol="174" key="28" len="12" pan="0"/>
          <note pos="1032" vol="136" key="39" len="12" pan="0"/>
          <note pos="1032" vol="136" key="34" len="12" pan="0"/>
          <note pos="1044" vol="148" key="24" len="12" pan="0"/>
          <note pos="1056" vol="136" key="39" len="12" pan="0"/>
          <note pos="1056" vol="148" key="24" len="12" pan="0"/>
          <note pos="1080" vol="136" key="39" len="12" pan="0"/>
          <note pos="1080" vol="136" key="34" len="12" pan="0"/>
          <note pos="1092" vol="148" key="24" len="12" pan="0"/>
          <note pos="1104" vol="136" key="39" len="12" pan="0"/>
          <note pos="1104" vol="174" key="28" len="12" pan="0"/>
          <note pos="1128" vol="136" key="39" len="12" pan="0"/>
          <note pos="1128" vol="136" key="34" len="12" pan="0"/>
          <note pos="1140" vol="174" key="28" len="12" pan="0"/>
          <note pos="1140" vol="148" key="24" len="12" pan="0"/>
          <note pos="1152" vol="136" key="39" len="12" pan="0"/>
          <note pos="1152" vol="148" key="24" len="12" pan="0"/>
          <note pos="1176" vol="136" key="39" len="12" pan="0"/>
          <note pos="1176" vol="136" key="34" len="12" pan="0"/>
          <note pos="1188" vol="148" key="24" len="12" pan="0"/>
          <note pos="1200" vol="136" key="39" len="12" pan="0"/>
          <note pos="1200" vol="174" key="28" len="12" pan="0"/>
          <note pos="1224" vol="136" key="39" len="12" pan="0"/>
          <note pos="1224" vol="136" key="34" len="12" pan="0"/>
          <note pos="1236" vol="148" key="24" len="12" pan="0"/>
          <note pos="1248" vol="136" key="39" len="12" pan="0"/>
          <note pos="1248" vol="148" key="24" len="12" pan="0"/>
          <note pos="1272" vol="136" key="39" len="12" pan="0"/>
          <note pos="1272" vol="136" key="34" len="12" pan="0"/>
          <note pos="1284" vol="148" key="24" len="12" pan="0"/>
          <note pos="1296" vol="136" key="39" len="12" pan="0"/>
          <note pos="1296" vol="174" key="28" len="12" pan="0"/>
          <note pos="1320" vol="136" key="39" len="12" pan="0"/>
          <note pos="1320" vol="136" key="34" len="12" pan="0"/>
          <note pos="1332" vol="174" key="28" len="12" pan="0"/>
          <note pos="1332" vol="148" key="24" len="12" pan="0"/>
          <note pos="1344" vol="136" key="39" len="12" pan="0"/>
          <note pos="1344" vol="148" key="24" len="12" pan="0"/>
          <note pos="1368" vol="136" key="39" len="12" pan="0"/>
          <note pos="1368" vol="136" key="34" len="12" pan="0"/>
          <note pos="1380" vol="148" key="24" len="12" pan="0"/>
          <note pos="1392" vol="136" key="39" len="12" pan="0"/>
          <note pos="1392" vol="174" key="28" len="12" pan="0"/>
          <note pos="1416" vol="136" key="39" len="12" pan="0"/>
          <note pos="1416" vol="136" key="34" len="12" pan="0"/>
          <note pos="1428" vol="148" key="24" len="12" pan="0"/>
          <note pos="1440" vol="136" key="39" len="12" pan="0"/>
          <note pos="1440" vol="148" key="24" len="12" pan="0"/>
          <note pos="1464" vol="136" key="39" len="12" pan="0"/>
          <note pos="1464" vol="136" key="34" len="12" pan="0"/>
          <note pos="1464" vol="174" key="28" len="12" pan="0"/>
          <note pos="1476" vol="148" key="24" len="12" pan="0"/>
          <note pos="1488" vol="136" key="39" len="12" pan="0"/>
          <note pos="1488" vol="174" key="28" len="12" pan="0"/>
          <note pos="1512" vol="136" key="39" len="12" pan="0"/>
          <note pos="1512" vol="136" key="34" len="12" pan="0"/>
          <note pos="1512" vol="174" key="28" len="12" pan="0"/>
          <note pos="1524" vol="174" key="28" len="12" pan="0"/>
          <note pos="1524" vol="148" key="24" len="12" pan="0"/>
        </pattern>
        <pattern type="1" name="" muted="0" pos="13824" steps="16">
          <note pos="0" vol="136" key="39" len="12" pan="0"/>
          <note pos="0" vol="174" key="37" len="12" pan="0"/>
          <note pos="0" vol="148" key="24" len="12" pan="0"/>
          <note pos="24" vol="136" key="39" len="12" pan="0"/>
          <note pos="24" vol="136" key="34" len="12" pan="0"/>
          <note pos="36" vol="148" key="24" len="12" pan="0"/>
          <note pos="48" vol="136" key="39" len="12" pan="0"/>
          <note pos="48" vol="174" key="28" len="12" pan="0"/>
          <note pos="72" vol="136" key="39" len="12" pan="0"/>
          <note pos="72" vol="136" key="34" len="12" pan="0"/>
          <note pos="84" vol="148" key="24" len="12" pan="0"/>
          <note pos="96" vol="136" key="39" len="12" pan="0"/>
          <note pos="96" vol="148" key="24" len="12" pan="0"/>
          <note pos="120" vol="136" key="39" len="12" pan="0"/>
          <note pos="120" vol="136" key="34" len="12" pan="0"/>
          <note pos="132" vol="148" key="24" len="12" pan="0"/>
          <note pos="144" vol="136" key="39" len="12" pan="0"/>
          <note pos="144" vol="174" key="28" len="12" pan="0"/>
          <note pos="168" vol="136" key="39" len="12" pan="0"/>
          <note pos="168" vol="136" key="34" len="12" pan="0"/>
          <note pos="180" vol="174" key="28" len="12" pan="0"/>
          <note pos="180" vol="148" key="24" len="12" pan="0"/>
          <note pos="192" vol="136" key="39" len="12" pan="0"/>
          <note pos="192" vol="148" key="24" len="12" pan="0"/>
          <note pos="216" vol="136" key="39" len="12" pan="0"/>
          <note pos="216" vol="136" key="34" len="12" pan="0"/>
          <note pos="228" vol="148" key="24" len="12" pan="0"/>
          <note pos="240" vol="136" key="39" len="12" pan="0"/>
          <note pos="240" vol="174" key="28" len="12" pan="0"/>
          <note pos="264" vol="136" key="39" len="12" pan="0"/>
          <note pos="264" vol="136" key="34" len="12" pan="0"/>
          <note pos="276" vol="148" key="24" len="12" pan="0"/>
          <note pos="288" vol="136" key="39" len="12" pan="0"/>
          <note pos="288" vol="148" key="24" len="12" pan="0"/>
          <note pos="312" vol="136" key="39" len="12" pan="0"/>
          <note pos="312" vol="136" key="34" len="12" pan="0"/>
          <note pos="324" vol="148" key="24" len="12" pan="0"/>
          <note pos="336" vol="136" key="39" len="12" pan="0"/>
          <note pos="336" vol="174" key="28" len="12" pan="0"/>
          <note pos="360" vol="136" key="39" len="12" pan="0"/>
          <note pos="360" vol="136" key="34" len="12" pan="0"/>
          <note pos="372" vol="174" key="28" len="12" pan="0"/>
          <note pos="372" vol="148" key="24" len="12" pan="0"/>
          <note pos="384" vol="136" key="39" len="12" pan="0"/>
          <note pos="384" vol="148" key="24" len="12" pan="0"/>
          <note pos="408" vol="136" key="39" len="12" pan="0"/>
          <note pos="408" vol="136" key="34" len="12" pan="0"/>
          <note pos="420" vol="148" key="24" len="12" pan="0"/>
          <note pos="432" vol="136" key="39" len="12" pan="0"/>
          <note pos="432" vol="174" key="28" len="12" pan="0"/>
          <note pos="456" vol="136" key="39" len="12" pan="0"/>
          <note pos="456" vol="136" key="34" len="12" pan="0"/>
          <note pos="468" vol="148" key="24" len="12" pan="0"/>
          <note pos="480" vol="136" key="39" len="12" pan="0"/>
          <note pos="480" vol="148" key="24" len="12" pan="0"/>
          <note pos="504" vol="136" key="39" len="12" pan="0"/>
          <note pos="504" vol="136" key="34" len="12" pan="0"/>
          <note pos="516" vol="148" key="24" len="12" pan="0"/>
          <note pos="528" vol="136" key="39" len="12" pan="0"/>
          <note pos="528" vol="174" key="28" len="12" pan="0"/>
          <note pos="552" vol="136" key="39" len="12" pan="0"/>
          <note pos="552" vol="136" key="34" len="12" pan="0"/>
          <note pos="564" vol="174" key="28" len="12" pan="0"/>
          <note pos="564" vol="148" key="24" len="12" pan="0"/>
          <note pos="576" vol="136" key="39" len="12" pan="0"/>
          <note pos="576" vol="148" key="24" len="12" pan="0"/>
          <note pos="600" vol="136" key="39" len="12" pan="0"/>
          <note pos="600" vol="136" key="34" len="12" pan="0"/>
          <note pos="612" vol="148" key="24" len="12" pan="0"/>
          <note pos="624" vol="136" key="39" len="12" pan="0"/>
          <note pos="624" vol="174" key="28" len="12" pan="0"/>
          <note pos="648" vol="136" key="39" len="12" pan="0"/>
          <note pos="648" vol="136" key="34" len="12" pan="0"/>
          <note pos="660" vol="148" key="24" len="12" pan="0"/>
          <note pos="672" vol="136" key="39" len="12" pan="0"/>
          <note pos="672" vol="148" key="24" len="12" pan="0"/>
          <note pos="696" vol="136" key="39" len="12" pan="0"/>
          <note pos="696" vol="136" key="34" len="12" pan="0"/>
          <note pos="696" vol="174" key="28" len="12" pan="0"/>
          <note pos="708" vol="148" key="24" len="12" pan="0"/>
          <note pos="720" vol="136" key="39" len="12" pan="0"/>
          <note pos="720" vol="174" key="28" len="12" pan="0"/>
          <note pos="744" vol="136" key="39" len="12" pan="0"/>
          <note pos="744" vol="136" key="34" len="12" pan="0"/>
          <note pos="756" vol="174" key="28" len="12" pan="0"/>
          <note pos="756" vol="148" key="24" len="12" pan="0"/>
          <note pos="768" vol="136" key="39" len="12" pan="0"/>
          <note pos="768" vol="174" key="37" len="12" pan="0"/>
          <note pos="768" vol="148" key="24" len="12" pan="0"/>
          <note pos="792" vol="136" key="39" len="12" pan="0"/>
          <note pos="792" vol="136" key="34" len="12" pan="0"/>
          <note pos="804" vol="148" key="24" len="12" pan="0"/>
          <note pos="816" vol="136" key="39" len="12" pan="0"/>
          <note pos="816" vol="174" key="28" len="12" pan="0"/>
          <note pos="840" vol="136" key="39" len="12" pan="0"/>
          <note pos="840" vol="136" key="34" len="12" pan="0"/>
          <note pos="852" vol="148" key="24" len="12" pan="0"/>
          <note pos="864" vol="136" key="39" len="12" pan="0"/>
          <note pos="864" vol="148" key="24" len="12" pan="0"/>
          <note pos="888" vol="136" key="39" len="12" pan="0"/>
          <note pos="888" vol="136" key="34" len="12" pan="0"/>
          <note pos="900" vol="148" key="24" len="12" pan="0"/>
          <note pos="912" vol="136" key="39" len="12" pan="0"/>
          <note pos="912" vol="174" key="28" len="12" pan="0"/>
          <note pos="936" vol="136" key="39" len="12" pan="0"/>
          <note pos="936" vol="136" key="34" len="12" pan="0"/>
          <note pos="948" vol="174" key="28" len="12" pan="0"/>
          <note pos="948" vol="148" key="24" len="12" pan="0"/>
          <note pos="960" vol="136" key="39" len="12" pan="0"/>
          <note pos="960" vol="148" key="24" len="12" pan="0"/>
          <note pos="984" vol="136" key="39" len="12" pan="0"/>
          <note pos="984" vol="136" key="34" len="12" pan="0"/>
          <note pos="996" vol="148" key="24" len="12" pan="0"/>
          <note pos="1008" vol="136" key="39" len="12" pan="0"/>
          <note pos="1008" vol="174" key="28" len="12" pan="0"/>
          <note pos="1032" vol="136" key="39" len="12" pan="0"/>
          <note pos="1032" vol="136" key="34" len="12" pan="0"/>
          <note pos="1044" vol="148" key="24" len="12" pan="0"/>
          <note pos="1056" vol="136" key="39" len="12" pan="0"/>
          <note pos="1056" vol="148" key="24" len="12" pan="0"/>
          <note pos="1080" vol="136" key="39" len="12" pan="0"/>
          <note pos="1080" vol="136" key="34" len="12" pan="0"/>
          <note pos="1092" vol="148" key="24" len="12" pan="0"/>
          <note pos="1104" vol="136" key="39" len="12" pan="0"/>
          <note pos="1104" vol="174" key="28" len="12" pan="0"/>
          <note pos="1128" vol="136" key="39" len="12" pan="0"/>
          <note pos="1128" vol="136" key="34" len="12" pan="0"/>
          <note pos="1140" vol="174" key="28" len="12" pan="0"/>
          <note pos="1140" vol="148" key="24" len="12" pan="0"/>
          <note pos="1152" vol="136" key="39" len="12" pan="0"/>
          <note pos="1152" vol="148" key="24" len="12" pan="0"/>
          <note pos="1176" vol="136" key="39" len="12" pan="0"/>
          <note pos="1176" vol="136" key="34" len="12" pan="0"/>
          <note pos="1188" vol="148" key="24" len="12" pan="0"/>
          <note pos="1200" vol="136" key="39" len="12" pan="0"/>
          <note pos="1200" vol="174" key="28" len="12" pan="0"/>
          <note pos="1224" vol="136" key="39" len="12" pan="0"/>
          <note pos="1224" vol="136" key="34" len="12" pan="0"/>
          <note pos="1236" vol="148" key="24" len="12" pan="0"/>
          <note pos="1248" vol="136" key="39" len="12" pan="0"/>
          <note pos="1248" vol="148" key="24" len="12" pan="0"/>
          <note pos="1272" vol="136" key="39" len="12" pan="0"/>
          <note pos="1272" vol="136" key="34" len="12" pan="0"/>
          <note pos="1284" vol="148" key="24" len="12" pan="0"/>
          <note pos="1296" vol="136" key="39" len="12" pan="0"/>
          <note pos="1296" vol="174" key="28" len="12" pan="0"/>
          <note pos="1320" vol="136" key="39" len="12" pan="0"/>
          <note pos="1320" vol="136" key="34" len="12" pan="0"/>
          <note pos="1332" vol="174" key="28" len="12" pan="0"/>
          <note pos="1332" vol="148" key="24" len="12" pan="0"/>
          <note pos="1344" vol="136" key="39" len="12" pan="0"/>
          <note pos="1344" vol="148" key="24" len="12" pan="0"/>
          <note pos="1368" vol="136" key="39" len="12" pan="0"/>
          <note pos="1368" vol="136" key="34" len="12" pan="0"/>
          <note pos="1380" vol="148" key="24" len="12" pan="0"/>
          <note pos="1392" vol="136" key="39" len="12" pan="0"/>
          <note pos="1392" vol="174" key="28" len="12" pan="0"/>
          <note pos="1416" vol="136" key="39" len="12" pan="0"/>
          <note pos="1416" vol="136" key="34" len="12" pan="0"/>
          <note pos="1428" vol="148" key="24" len="12" pan="0"/>
          <note pos="1440" vol="136" key="39" len="12" pan="0"/>
          <note pos="1440" vol="148" key="24" len="12" pan="0"/>
          <note pos="1464" vol="136" key="39" len="12" pan="0"/>
          <note pos="1464" vol="136" key="34" len="12" pan="0"/>
          <note pos="1464" vol="174" key="28" len="12" pan="0"/>
          <note pos="1476" vol="148" key="24" len="12" pan="0"/>
          <note pos="1488" vol="136" key="39" len="12" pan="0"/>
          <note pos="1488" vol="174" key="28" len="12" pan="0"/>
          <note pos="1512" vol="136" key="39" len="12" pan="0"/>
          <note pos="1512" vol="136" key="34" len="12" pan="0"/>
          <note pos="1512" vol="174" key="28" len="12" pan="0"/>
          <note pos="1524" vol="174" key="28" len="12" pan="0"/>
          <note pos="1524" vol="148" key="24" len="12" pan="0"/>
        </pattern>
        <pattern type="1" name="" muted="0" pos="15360" steps="16">
          <note pos="0" vol="136" key="39" len="12" pan="0"/>
          <note pos="0" vol="174" key="37" len="12" pan="0"/>
          <note pos="0" vol="148" key="24" len="12" pan="0"/>
          <note pos="24" vol="136" key="39" len="12" pan="0"/>
          <note pos="24" vol="136" key="34" len="12" pan="0"/>
          <note pos="36" vol="148" key="24" len="12" pan="0"/>
          <note pos="48" vol="136" key="39" len="12" pan="0"/>
          <note pos="48" vol="174" key="28" len="12" pan="0"/>
          <note pos="72" vol="136" key="39" len="12" pan="0"/>
          <note pos="72" vol="136" key="34" len="12" pan="0"/>
          <note pos="84" vol="148" key="24" len="12" pan="0"/>
          <note pos="96" vol="136" key="39" len="12" pan="0"/>
          <note pos="96" vol="148" key="24" len="12" pan="0"/>
          <note pos="120" vol="136" key="39" len="12" pan="0"/>
          <note pos="120" vol="136" key="34" len="12" pan="0"/>
          <note pos="132" vol="148" key="24" len="12" pan="0"/>
          <note pos="144" vol="136" key="39" len="12" pan="0"/>
          <note pos="144" vol="174" key="28" len="12" pan="0"/>
          <note pos="168" vol="136" key="39" len="12" pan="0"/>
          <note pos="168" vol="136" key="34" len="12" pan="0"/>
          <note pos="180" vol="174" key="28" len="12" pan="0"/>
          <note pos="180" vol="148" key="24" len="12" pan="0"/>
          <note pos="192" vol="136" key="39" len="12" pan="0"/>
          <note pos="192" vol="148" key="24" len="12" pan="0"/>
          <note pos="216" vol="136" key="39" len="12" pan="0"/>
          <note pos="216" vol="136" key="34" len="12" pan="0"/>
          <note pos="228" vol="148" key="24" len="12" pan="0"/>
          <note pos="240" vol="136" key="39" len="12" pan="0"/>
          <note pos="240" vol="174" key="28" len="12" pan="0"/>
          <note pos="264" vol="136" key="39" len="12" pan="0"/>
          <note pos="264" vol="136" key="34" len="12" pan="0"/>
          <note pos="276" vol="148" key="24" len="12" pan="0"/>
          <note pos="288" vol="136" key="39" len="12" pan="0"/>
          <note pos="288" vol="148" key="24" len="12" pan="0"/>
          <note pos="312" vol="136" key="39" len="12" pan="0"/>
          <note pos="312" vol="136" key="34" len="12" pan="0"/>
          <note pos="324" vol="148" key="24" len="12" pan="0"/>
          <note pos="336" vol="136" key="39" len="12" pan="0"/>
          <note pos="336" vol="174" key="28" len="12" pan="0"/>
          <note pos="360" vol="136" key="39" len="12" pan="0"/>
          <note pos="360" vol="136" key="34" len="12" pan="0"/>
          <note pos="372" vol="174" key="28" len="12" pan="0"/>
          <note pos="372" vol="148" key="24" len="12" pan="0"/>
          <note pos="384" vol="136" key="39" len="12" pan="0"/>
          <note pos="384" vol="148" key="24" len="12" pan="0"/>
          <note pos="408" vol="136" key="39" len="12" pan="0"/>
          <note pos="408" vol="136" key="34" len="12" pan="0"/>
          <note pos="420" vol="148" key="24" len="12" pan="0"/>
          <note pos="432" vol="136" key="39" len="12" pan="0"/>
          <note pos="432" vol="174" key="28" len="12" pan="0"/>
          <note pos="456" vol="136" key="39" len="12" pan="0"/>
          <note pos="456" vol="136" key="34" len="12" pan="0"/>
          <note pos="468" vol="148" key="24" len="12" pan="0"/>
          <note pos="480" vol="136" key="39" len="12" pan="0"/>
          <note pos="480" vol="148" key="24" len="12" pan="0"/>
          <note pos="504" vol="136" key="39" len="12" pan="0"/>
          <note pos="504" vol="136" key="34" len="12" pan="0"/>
          <note pos="516" vol="148" key="24" len="12" pan="0"/>
          <note pos="528" vol="136" key="39" len="12" pan="0"/>
          <note pos="528" vol="174" key="28" len="12" pan="0"/>
          <note pos="552" vol="136" key="39" len="12" pan="0"/>
          <note pos="552" vol="136" key="34" len="12" pan="0"/>
          <note pos="564" vol="174" key="28" len="12" pan="0"/>
          <note pos="564" vol="148" key="24" len="12" pan="0"/>
          <note pos="576" vol="136" key="39" len="12" pan="0"/>
          <note pos="576" vol="148" key="24" len="12" pan="0"/>
          <note pos="600" vol="136" key="39" len="12" pan="0"/>
          <note pos="600" vol="136" key="34" len="12" pan="0"/>
          <note pos="612" vol="148" key="24" len="12" pan="0"/>
          <note pos="624" vol="136" key="39" len="12" pan="0"/>
          <note pos="624" vol="174" key="28" len="12" pan="0"/>
          <note pos="648" vol="136" key="39" len="12" pan="0"/>
          <note pos="648" vol="136" key="34" len="12" pan="0"/>
          <note pos="660" vol="148" key="24" len="12" pan="0"/>
          <note pos="672" vol="136" key="39" len="12" pan="0"/>
          <note pos="672" vol="148" key="24" len="12" pan="0"/>
          <note pos="696" vol="136" key="39" len="12" pan="0"/>
          <note pos="696" vol="136" key="34" len="12" pan="0"/>
          <note pos="696" vol="174" key="28" len="12" pan="0"/>
          <note pos="708" vol="148" key="24" len="12" pan="0"/>
          <note pos="720" vol="136" key="39" len="12" pan="0"/>
          <note pos="720" vol="174" key="28" len="12" pan="0"/>
          <note pos="744" vol="136" key="39" len="12" pan="0"/>
          <note pos="744" vol="136" key="34" len="12" pan="0"/>
          <note pos="756" vol="174" key="28" len="12" pan="0"/>
          <note pos="756" vol="148" key="24" len="12" pan="0"/>
          <note pos="768" vol="136" key="39" len="12" pan="0"/>
          <note pos="768" vol="174" key="37" len="12" pan="0"/>
          <note pos="768" vol="148" key="24" len="12" pan="0"/>
          <note pos="792" vol="136" key="39" len="12" pan="0"/>
          <note pos="792" vol="136" key="34" len="12" pan="0"/>
          <note pos="804" vol="148" key="24" len="12" pan="0"/>
          <note pos="816" vol="136" key="39" len="12" pan="0"/>
          <note pos="816" vol="174" key="28" len="12" pan="0"/>
          <note pos="840" vol="136" key="39" len="12" pan="0"/>
          <note pos="840" vol="136" key="34" len="12" pan="0"/>
          <note pos="852" vol="148" key="24" len="12" pan="0"/>
          <note pos="864" vol="136" key="39" len="12" pan="0"/>
          <note pos="864" vol="148" key="24" len="12" pan="0"/>
          <note pos="888" vol="136" key="39" len="12" pan="0"/>
          <note pos="888" vol="136" key="34" len="12" pan="0"/>
          <note pos="900" vol="148" key="24" len="12" pan="0"/>
          <note pos="912" vol="136" key="39" len="12" pan="0"/>
          <note pos="912" vol="174" key="28" len="12" pan="0"/>
          <note pos="936" vol="136" key="39" len="12" pan="0"/>
          <note pos="936" vol="136" key="34" len="12" pan="0"/>
          <note pos="948" vol="174" key="28" len="12" pan="0"/>
          <note pos="948" vol="148" key="24" len="12" pan="0"/>
          <note pos="960" vol="136" key="39" len="12" pan="0"/>
          <note pos="960" vol="148" key="24" len="12" pan="0"/>
          <note pos="984" vol="136" key="39" len="12" pan="0"/>
          <note pos="984" vol="136" key="34" len="12" pan="0"/>
          <note pos="996" vol="148" key="24" len="12" pan="0"/>
          <note pos="1008" vol="136" key="39" len="12" pan="0"/>
          <note pos="1008" vol="174" key="28" len="12" pan="0"/>
          <note pos="1032" vol="136" key="39" len="12" pan="0"/>
          <note pos="1032" vol="136" key="34" len="12" pan="0"/>
          <note pos="1044" vol="148" key="24" len="12" pan="0"/>
          <note pos="1056" vol="136" key="39" len="12" pan="0"/>
          <note pos="1056" vol="148" key="24" len="12" pan="0"/>
          <note pos="1080" vol="136" key="39" len="12" pan="0"/>
          <note pos="1080" vol="136" key="34" len="12" pan="0"/>
          <note pos="1092" vol="148" key="24" len="12" pan="0"/>
          <note pos="1104" vol="136" key="39" len="12" pan="0"/>
          <note pos="1104" vol="174" key="28" len="12" pan="0"/>
          <note pos="1128" vol="136" key="39" len="12" pan="0"/>
          <note pos="1128" vol="136" key="34" len="12" pan="0"/>
          <note pos="1140" vol="174" key="28" len="12" pan="0"/>
          <note pos="1140" vol="148" key="24" len="12" pan="0"/>
          <note pos="1152" vol="136" key="39" len="12" pan="0"/>
          <note pos="1152" vol="148" key="24" len="12" pan="0"/>
          <note pos="1176" vol="136" key="39" len="12" pan="0"/>
          <note pos="1176" vol="136" key="34" len="12" pan="0"/>
          <note pos="1188" vol="148" key="24" len="12" pan="0"/>
          <note pos="1200" vol="136" key="39" len="12" pan="0"/>
          <note pos="1200" vol="174" key="28" len="12" pan="0"/>
          <note pos="1224" vol="136" key="39" len="12" pan="0"/>
          <note pos="1224" vol="136" key="34" len="12" pan="0"/>
          <note pos="1236" vol="148" key="24" len="12" pan="0"/>
          <note pos="1248" vol="136" key="39" len="12" pan="0"/>
          <note pos="1248" vol="148" key="24" len="12" pan="0"/>
          <note pos="1272" vol="136" key="39" len="12" pan="0"/>
          <note pos="1272" vol="136" key="34" len="12" pan="0"/>
          <note pos="1284" vol="148" key="24" len="12" pan="0"/>
          <note pos="1296" vol="136" key="39" len="12" pan="0"/>
          <note pos="1296" vol="174" key="28" len="12" pan="0"/>
          <note pos="1320" vol="136" key="39" len="12" pan="0"/>
          <note pos="1320" vol="136" key="34" len="12" pan="0"/>
          <note pos="1332" vol="174" key="28" len="12" pan="0"/>
          <note pos="1332" vol="148" key="24" len="12" pan="0"/>
          <note pos="1344" vol="136" key="39" len="12" pan="0"/>
          <note pos="1344" vol="148" key="24" len="12" pan="0"/>
          <note pos="1368" vol="136" key="39" len="12" pan="0"/>
          <note pos="1368" vol="136" key="34" len="12" pan="0"/>
          <note pos="1380" vol="148" key="24" len="12" pan="0"/>
          <note pos="1392" vol="136" key="39" len="12" pan="0"/>
          <note pos="1392" vol="174" key="28" len="12" pan="0"/>
          <note pos="1416" vol="136" key="39" len="12" pan="0"/>
          <note pos="1416" vol="136" key="34" len="12" pan="0"/>
          <note pos="1428" vol="148" key="24" len="12" pan="0"/>
          <note pos="1440" vol="136" key="39" len="12" pan="0"/>
          <note pos="1440" vol="148" key="24" len="12" pan="0"/>
          <note pos="1464" vol="136" key="39" len="12" pan="0"/>
          <note pos="1464" vol="136" key="34" len="12" pan="0"/>
          <note pos="1464" vol="174" key="28" len="12" pan="0"/>
          <note pos="1476" vol="148" key="24" len="12" pan="0"/>
          <note pos="1488" vol="136" key="39" len="12" pan="0"/>
          <note pos="1488" vol="174" key="28" len="12" pan="0"/>
          <note pos="1512" vol="136" key="39" len="12" pan="0"/>
          <note pos="1512" vol="136" key="34" len="12" pan="0"/>
          <note pos="1512" vol="174" key="28" len="12" pan="0"/>
          <note pos="1524" vol="174" key="28" len="12" pan="0"/>
          <note pos="1524" vol="148" key="24" len="12" pan="0"/>
        </pattern>
        <pattern type="1" name="" muted="0" pos="16896" steps="16">
          <note pos="0" vol="136" key="39" len="12" pan="0"/>
          <note pos="0" vol="174" key="37" len="12" pan="0"/>
          <note pos="0" vol="148" key="24" len="12" pan="0"/>
          <note pos="24" vol="136" key="39" len="12" pan="0"/>
          <note pos="24" vol="136" key="34" len="12" pan="0"/>
          <note pos="36" vol="148" key="24" len="12" pan="0"/>
          <note pos="48" vol="136" key="39" len="12" pan="0"/>
          <note pos="48" vol="174" key="28" len="12" pan="0"/>
          <note pos="72" vol="136" key="39" len="12" pan="0"/>
          <note pos="72" vol="136" key="34" len="12" pan="0"/>
          <note pos="84" vol="148" key="24" len="12" pan="0"/>
          <note pos="96" vol="136" key="39" len="12" pan="0"/>
          <note pos="96" vol="148" key="24" len="12" pan="0"/>
          <note pos="120" vol="136" key="39" len="12" pan="0"/>
          <note pos="120" vol="136" key="34" len="12" pan="0"/>
          <note pos="132" vol="148" key="24" len="12" pan="0"/>
          <note pos="144" vol="136" key="39" len="12" pan="0"/>
          <note pos="144" vol="174" key="28" len="12" pan="0"/>
          <note pos="168" vol="136" key="39" len="12" pan="0"/>
          <note pos="168" vol="136" key="34" len="12" pan="0"/>
          <note pos="180" vol="174" key="28" len="12" pan="0"/>
          <note pos="180" vol="148" key="24" len="12" pan="0"/>
          <note pos="192" vol="136" key="39" len="12" pan="0"/>
          <note pos="192" vol="148" key="24" len="12" pan="0"/>
          <note pos="216" vol="136" key="39" len="12" pan="0"/>
          <note pos="216" vol="136" key="34" len="12" pan="0"/>
          <note pos="228" vol="148" key="24" len="12" pan="0"/>
          <note pos="240" vol="136" key="39" len="12" pan="0"/>
          <note pos="240" vol="174" key="28" len="12" pan="0"/>
          <note pos="264" vol="136" key="39" len="12" pan="0"/>
          <note pos="264" vol="136" key="34" len="12" pan="0"/>
          <note pos="276" vol="148" key="24" len="12" pan="0"/>
          <note pos="288" vol="136" key="39" len="12" pan="0"/>
          <note pos="288" vol="148" key="24" len="12" pan="0"/>
          <note pos="312" vol="136" key="39" len="12" pan="0"/>
          <note pos="312" vol="136" key="34" len="12" pan="0"/>
          <note pos="324" vol="148" key="24" len="12" pan="0"/>
          <note pos="336" vol="136" key="39" len="12" pan="0"/>
          <note pos="336" vol="174" key="28" len="12" pan="0"/>
          <note pos="360" vol="136" key="39" len="12" pan="0"/>
          <note pos="360" vol="136" key="34" len="12" pan="0"/>
          <note pos="372" vol="174" key="28" len="12" pan="0"/>
          <note pos="372" vol="148" key="24" len="12" pan="0"/>
          <note pos="384" vol="136" key="39" len="12" pan="0"/>
          <note pos="384" vol="148" key="24" len="12" pan="0"/>
          <note pos="408" vol="136" key="39" len="12" pan="0"/>
          <note pos="408" vol="136" key="34" len="12" pan="0"/>
          <note pos="420" vol="148" key="24" len="12" pan="0"/>
          <note pos="432" vol="136" key="39" len="12" pan="0"/>
          <note pos="432" vol="174" key="28" len="12" pan="0"/>
          <note pos="456" vol="136" key="39" len="12" pan="0"/>
          <note pos="456" vol="136" key="34" len="12" pan="0"/>
          <note pos="468" vol="148" key="24" len="12" pan="0"/>
          <note pos="480" vol="136" key="39" len="12" pan="0"/>
          <note pos="480" vol="148" key="24" len="12" pan="0"/>
          <note pos="504" vol="136" key="39" len="12" pan="0"/>
          <note pos="504" vol="136" key="34" len="12" pan="0"/>
          <note pos="516" vol="148" key="24" len="12" pan="0"/>
          <note pos="528" vol="136" key="39" len="12" pan="0"/>
          <note pos="528" vol="174" key="28" len="12" pan="0"/>
          <note pos="552" vol="136" key="39" len="12" pan="0"/>
          <note pos="552" vol="136" key="34" len="12" pan="0"/>
          <note pos="564" vol="174" key="28" len="12" pan="0"/>
          <note pos="564" vol="148" key="24" len="12" pan="0"/>
          <note pos="576" vol="136" key="39" len="12" pan="0"/>
          <note pos="576" vol="148" key="24" len="12" pan="0"/>
          <note pos="600" vol="136" key="39" len="12" pan="0"/>
          <note pos="600" vol="136" key="34" len="12" pan="0"/>
          <note pos="612" vol="148" key="24" len="12" pan="0"/>
          <note pos="624" vol="136" key="39" len="12" pan="0"/>
          <note pos="624" vol="174" key="28" len="12" pan="0"/>
          <note pos="648" vol="136" key="39" len="12" pan="0"/>
          <note pos="648" vol="136" key="34" len="12" pan="0"/>
          <note pos="660" vol="148" key="24" len="12" pan="0"/>
          <note pos="672" vol="136" key="39" len="12" pan="0"/>
          <note pos="672" vol="148" key="24" len="12" pan="0"/>
          <note pos="696" vol="136" key="39" len="12" pan="0"/>
          <note pos="696" vol="136" key="34" len="12" pan="0"/>
          <note pos="696" vol="174" key="28" len="12" pan="0"/>
          <note pos="708" vol="148" key="24" len="12" pan="0"/>
          <note pos="720" vol="136" key="39" len="12" pan="0"/>
          <note pos="720" vol="174" key="28" len="12" pan="0"/>
          <note pos="744" vol="136" key="39" len="12" pan="0"/>
          <note pos="744" vol="136" key="34" len="12" pan="0"/>
          <note pos="756" vol="174" key="28" len="12" pan="0"/>
          <note pos="756" vol="148" key="24" len="12" pan="0"/>
          <note pos="768" vol="136" key="39" len="12" pan="0"/>
          <note pos="768" vol="174" key="37" len="12" pan="0"/>
          <note pos="768" vol="148" key="24" len="12" pan="0"/>
          <note pos="792" vol="136" key="39" len="12" pan="0"/>
          <note pos="792" vol="136" key="34" len="12" pan="0"/>
          <note pos="804" vol="148" key="24" len="12" pan="0"/>
          <note pos="816" vol="136" key="39" len="12" pan="0"/>
          <note pos="816" vol="174" key="28" len="12" pan="0"/>
          <note pos="840" vol="136" key="39" len="12" pan="0"/>
          <note pos="840" vol="136" key="34" len="12" pan="0"/>
          <note pos="852" vol="148" key="24" len="12" pan="0"/>
          <note pos="864" vol="136" key="39" len="12" pan="0"/>
          <note pos="864" vol="148" key="24" len="12" pan="0"/>
          <note pos="888" vol="136" key="39" len="12" pan="0"/>
          <note pos="888" vol="136" key="34" len="12" pan="0"/>
          <note pos="900" vol="148" key="24" len="12" pan="0"/>
          <note pos="912" vol="136" key="39" len="12" pan="0"/>
          <note pos="912" vol="174" key="28" len="12" pan="0"/>
          <note pos="936" vol="136" key="39" len="12" pan="0"/>
          <note pos="936" vol="136" key="34" len="12" pan="0"/>
          <note pos="948" vol="174" key="28" len="12" pan="0"/>
          <note pos="948" vol="148" key="24" len="12" pan="0"/>
          <note pos="960" vol="136" key="39" len="12" pan="0"/>
          <note pos="960" vol="148" key="24" len="12" pan="0"/>
          <note pos="984" vol="136" key="39" len="12" pan="0"/>
          <note pos="984" vol="136" key="34" len="12" pan="0"/>
          <note pos="996" vol="148" key="24" len="12" pan="0"/>
          <note pos="1008" vol="136" key="39" len="12" pan="0"/>
          <note pos="1008" vol="174" key="28" len="12" pan="0"/>
          <note pos="1032" vol="136" key="39" len="12" pan="0"/>
          <note pos="1032" vol="136" key="34" len="12" pan="0"/>
          <note pos="1044" vol="148" key="24" len="12" pan="0"/>
          <note pos="1056" vol="136" key="39" len="12" pan="0"/>
          <note pos="1056" vol="148" key="24" len="12" pan="0"/>
          <note pos="1080" vol="136" key="39" len="12" pan="0"/>
          <note pos="1080" vol="136" key="34" len="12" pan="0"/>
          <note pos="1092" vol="148" key="24" len="12" pan="0"/>
          <note pos="1104" vol="136" key="39" len="12" pan="0"/>
          <note pos="1104" vol="174" key="28" len="12" pan="0"/>
          <note pos="1128" vol="136" key="39" len="12" pan="0"/>
          <note pos="1128" vol="136" key="34" len="12" pan="0"/>
          <note pos="1140" vol="174" key="28" len="12" pan="0"/>
          <note pos="1140" vol="148" key="24" len="12" pan="0"/>
          <note pos="1152" vol="136" key="39" len="12" pan="0"/>
          <note pos="1152" vol="148" key="24" len="12" pan="0"/>
          <note pos="1176" vol="136" key="39" len="12" pan="0"/>
          <note pos="1176" vol="136" key="34" len="12" pan="0"/>
          <note pos="1188" vol="148" key="24" len="12" pan="0"/>
          <note pos="1200" vol="136" key="39" len="12" pan="0"/>
          <note pos="1200" vol="174" key="28" len="12" pan="0"/>
          <note pos="1224" vol="136" key="39" len="12" pan="0"/>
          <note pos="1224" vol="136" key="34" len="12" pan="0"/>
          <note pos="1236" vol="148" key="24" len="12" pan="0"/>
          <note pos="1248" vol="136" key="39" len="12" pan="0"/>
          <note pos="1248" vol="148" key="24" len="12" pan="0"/>
          <note pos="1272" vol="136" key="39" len="12" pan="0"/>
          <note pos="1272" vol="136" key="34" len="12" pan="0"/>
          <note pos="1284" vol="148" key="24" len="12" pan="0"/>
          <note pos="1296" vol="136" key="39" len="12" pan="0"/>
          <note pos="1296" vol="174" key="28" len="12" pan="0"/>
          <note pos="1320" vol="136" key="39" len="12" pan="0"/>
          <note pos="1320" vol="136" key="34" len="12" pan="0"/>
          <note pos="1332" vol="174" key="28" len="12" pan="0"/>
          <note pos="1332" vol="148" key="24" len="12" pan="0"/>
          <note pos="1344" vol="136" key="39" len="12" pan="0"/>
          <note pos="1344" vol="148" key="24" len="12" pan="0"/>
          <note pos="1368" vol="136" key="39" len="12" pan="0"/>
          <note pos="1368" vol="136" key="34" len="12" pan="0"/>
          <note pos="1380" vol="148" key="24" len="12" pan="0"/>
          <note pos="1392" vol="136" key="39" len="12" pan="0"/>
          <note pos="1392" vol="174" key="28" len="12" pan="0"/>
          <note pos="1416" vol="136" key="39" len="12" pan="0"/>
          <note pos="1416" vol="136" key="34" len="12" pan="0"/>
          <note pos="1428" vol="148" key="24" len="12" pan="0"/>
          <note pos="1440" vol="136" key="39" len="12" pan="0"/>
          <note pos="1440" vol="148" key="24" len="12" pan="0"/>
          <note pos="1464" vol="136" key="39" len="12" pan="0"/>
          <note pos="1464" vol="136" key="34" len="12" pan="0"/>
          <note pos="1464" vol="174" key="28" len="12" pan="0"/>
          <note pos="1476" vol="148" key="24" len="12" pan="0"/>
          <note pos="1488" vol="136" key="39" len="12" pan="0"/>
          <note pos="1488" vol="174" key="28" len="12" pan="0"/>
          <note pos="1512" vol="136" key="39" len="12" pan="0"/>
          <note pos="1512" vol="136" key="34" len="12" pan="0"/>
          <note pos="1512" vol="174" key="28" len="12" pan="0"/>
          <note pos="1524" vol="174" key="28" len="12" pan="0"/>
          <note pos="1524" vol="148" key="24" len="12" pan="0"/>
        </pattern>
        <pattern type="1" name="" muted="0" pos="18432" steps="16">
          <note pos="0" vol="136" key="39" len="12" pan="0"/>
          <note pos="0" vol="174" key="37" len="12" pan="0"/>
          <note pos="0" vol="148" key="24" len="12" pan="0"/>
          <note pos="24" vol="136" key="39" len="12" pan="0"/>
          <note pos="24" vol="136" key="34" len="12" pan="0"/>
          <note pos="36" vol="148" key="24" len="12" pan="0"/>
          <note pos="48" vol="136" key="39" len="12" pan="0"/>
          <note pos="48" vol="174" key="28" len="12" pan="0"/>
          <note pos="72" vol="136" key="39" len="12" pan="0"/>
          <note pos="72" vol="136" key="34" len="12" pan="0"/>
          <note pos="84" vol="148" key="24" len="12" pan="0"/>
          <note pos="96" vol="136" key="39" len="12" pan="0"/>
          <note pos="96" vol="148" key="24" len="12" pan="0"/>
          <note pos="120" vol="136" key="39" len="12" pan="0"/>
          <note pos="120" vol="136" key="34" len="12" pan="0"/>
          <note pos="132" vol="148" key="24" len="12" pan="0"/>
          <note pos="144" vol="136" key="39" len="12" pan="0"/>
          <note pos="144" vol="174" key="28" len="12" pan="0"/>
          <note pos="168" vol="136" key="39" len="12" pan="0"/>
          <note pos="168" vol="136" key="34" len="12" pan="0"/>
          <note pos="180" vol="174" key="28" len="12" pan="0"/>
          <note pos="180" vol="148" key="24" len="12" pan="0"/>
          <note pos="192" vol="136" key="39" len="12" pan="0"/>
          <note pos="192" vol="148" key="24" len="12" pan="0"/>
          <note pos="216" vol="136" key="39" len="12" pan="0"/>
          <note pos="216" vol="136" key="34" len="12" pan="0"/>
          <note pos="228" vol="148" key="24" len="12" pan="0"/>
          <note pos="240" vol="136" key="39" len="12" pan="0"/>
          <note pos="240" vol="174" key="28" len="12" pan="0"/>
          <note pos="264" vol="136" key="39" len="12" pan="0"/>
          <note pos="264" vol="136" key="34" len="12" pan="0"/>
          <note pos="276" vol="148" key="24" len="12" pan="0"/>
          <note pos="288" vol="136" key="39" len="12" pan="0"/>
          <note pos="288" vol="148" key="24" len="12" pan="0"/>
          <note pos="312" vol="136" key="39" len="12" pan="0"/>
          <note pos="312" vol="136" key="34" len="12" pan="0"/>
          <note pos="324" vol="148" key="24" len="12" pan="0"/>
          <note pos="336" vol="136" key="39" len="12" pan="0"/>
          <note pos="336" vol="174" key="28" len="12" pan="0"/>
          <note pos="360" vol="136" key="39" len="12" pan="0"/>
          <note pos="360" vol="136" key="34" len="12" pan="0"/>
          <note pos="372" vol="174" key="28" len="12" pan="0"/>
          <note pos="372" vol="148" key="24" len="12" pan="0"/>
          <note pos="384" vol="136" key="39" len="12" pan="0"/>
          <note pos="384" vol="148" key="24" len="12" pan="0"/>
          <note pos="408" vol="136" key="39" len="12" pan="0"/>
          <note pos="408" vol="136" key="34" len="12" pan="0"/>
          <note pos="420" vol="148" key="24" len="12" pan="0"/>
          <note pos="432" vol="136" key="39" len="12" pan="0"/>
          <note pos="432" vol="174" key="28" len="12" pan="0"/>
          <note pos="456" vol="136" key="39" len="12" pan="0"/>
          <note pos="456" vol="136" key="34" len="12" pan="0"/>
          <note pos="468" vol="148" key="24" len="12" pan="0"/>
          <note pos="480" vol="136" key="39" len="12" pan="0"/>
          <note pos="480" vol="148" key="24" len="12" pan="0"/>
          <note pos="504" vol="136" key="39" len="12" pan="0"/>
          <note pos="504" vol="136" key="34" len="12" pan="0"/>
          <note pos="516" vol="148" key="24" len="12" pan="0"/>
          <note pos="528" vol="136" key="39" len="12" pan="0"/>
          <note pos="528" vol="174" key="28" len="12" pan="0"/>
          <note pos="552" vol="136" key="39" len="12" pan="0"/>
          <note pos="552" vol="136" key="34" len="12" pan="0"/>
          <note pos="564" vol="174" key="28" len="12" pan="0"/>
          <note pos="564" vol="148" key="24" len="12" pan="0"/>
          <note pos="576" vol="136" key="39" len="12" pan="0"/>
          <note pos="576" vol="148" key="24" len="12" pan="0"/>
          <note pos="600" vol="136" key="39" len="12" pan="0"/>
          <note pos="600" vol="136" key="34" len="12" pan="0"/>
          <note pos="612" vol="148" key="24" len="12" pan="0"/>
          <note pos="624" vol="136" key="39" len="12" pan="0"/>
          <note pos="624" vol="174" key="28" len="12" pan="0"/>
          <note pos="648" vol="136" key="39" len="12" pan="0"/>
          <note pos="648" vol="136" key="34" len="12" pan="0"/>
          <note pos="660" vol="148" key="24" len="12" pan="0"/>
          <note pos="672" vol="136" key="39" len="12" pan="0"/>
          <note pos="672" vol="148" key="24" len="12" pan="0"/>
          <note pos="696" vol="136" key="39" len="12" pan="0"/>
          <note pos="696" vol="136" key="34" len="12" pan="0"/>
          <note pos="696" vol="174" key="28" len="12" pan="0"/>
          <note pos="708" vol="148" key="24" len="12" pan="0"/>
          <note pos="720" vol="136" key="39" len="12" pan="0"/>
          <note pos="720" vol="174" key="28" len="12" pan="0"/>
          <note pos="744" vol="136" key="39" len="12" pan="0"/>
          <note pos="744" vol="136" key="34" len="12" pan="0"/>
          <note pos="756" vol="174" key="28" len="12" pan="0"/>
          <note pos="756" vol="148" key="24" len="12" pan="0"/>
          <note pos="768" vol="136" key="39" len="12" pan="0"/>
          <note pos="768" vol="174" key="37" len="12" pan="0"/>
          <note pos="768" vol="148" key="24" len="12" pan="0"/>
          <note pos="792" vol="136" key="39" len="12" pan="0"/>
          <note pos="792" vol="136" key="34" len="12" pan="0"/>
          <note pos="804" vol="148" key="24" len="12" pan="0"/>
          <note pos="816" vol="136" key="39" len="12" pan="0"/>
          <note pos="816" vol="174" key="28" len="12" pan="0"/>
          <note pos="840" vol="136" key="39" len="12" pan="0"/>
          <note pos="840" vol="136" key="34" len="12" pan="0"/>
          <note pos="852" vol="148" key="24" len="12" pan="0"/>
          <note pos="864" vol="136" key="39" len="12" pan="0"/>
          <note pos="864" vol="148" key="24" len="12" pan="0"/>
          <note pos="888" vol="136" key="39" len="12" pan="0"/>
          <note pos="888" vol="136" key="34" len="12" pan="0"/>
          <note pos="900" vol="148" key="24" len="12" pan="0"/>
          <note pos="912" vol="136" key="39" len="12" pan="0"/>
          <note pos="912" vol="174" key="28" len="12" pan="0"/>
          <note pos="936" vol="136" key="39" len="12" pan="0"/>
          <note pos="936" vol="136" key="34" len="12" pan="0"/>
          <note pos="948" vol="174" key="28" len="12" pan="0"/>
          <note pos="948" vol="148" key="24" len="12" pan="0"/>
          <note pos="960" vol="136" key="39" len="12" pan="0"/>
          <note pos="960" vol="148" key="24" len="12" pan="0"/>
          <note pos="984" vol="136" key="39" len="12" pan="0"/>
          <note pos="984" vol="136" key="34" len="12" pan="0"/>
          <note pos="996" vol="148" key="24" len="12" pan="0"/>
          <note pos="1008" vol="136" key="39" len="12" pan="0"/>
          <note pos="1008" vol="174" key="28" len="12" pan="0"/>
          <note pos="1032" vol="136" key="39" len="12" pan="0"/>
          <note pos="1032" vol="136" key="34" len="12" pan="0"/>
          <note pos="1044" vol="148" key="24" len="12" pan="0"/>
          <note pos="1056" vol="136" key="39" len="12" pan="0"/>
          <note pos="1056" vol="148" key="24" len="12" pan="0"/>
          <note pos="1080" vol="136" key="39" len="12" pan="0"/>
          <note pos="1080" vol="136" key="34" len="12" pan="0"/>
          <note pos="1092" vol="148" key="24" len="12" pan="0"/>
          <note pos="1104" vol="136" key="39" len="12" pan="0"/>
          <note pos="1104" vol="174" key="28" len="12" pan="0"/>
          <note pos="1128" vol="136" key="39" len="12" pan="0"/>
          <note pos="1128" vol="136" key="34" len="12" pan="0"/>
          <note pos="1140" vol="174" key="28" len="12" pan="0"/>
          <note pos="1140" vol="148" key="24" len="12" pan="0"/>
          <note pos="1152" vol="136" key="39" len="12" pan="0"/>
          <note pos="1152" vol="148" key="24" len="12" pan="0"/>
          <note pos="1176" vol="136" key="39" len="12" pan="0"/>
          <note pos="1176" vol="136" key="34" len="12" pan="0"/>
          <note pos="1188" vol="148" key="24" len="12" pan="0"/>
          <note pos="1200" vol="136" key="39" len="12" pan="0"/>
          <note pos="1200" vol="174" key="28" len="12" pan="0"/>
          <note pos="1224" vol="136" key="39" len="12" pan="0"/>
          <note pos="1224" vol="136" key="34" len="12" pan="0"/>
          <note pos="1236" vol="148" key="24" len="12" pan="0"/>
          <note pos="1248" vol="136" key="39" len="12" pan="0"/>
          <note pos="1248" vol="148" key="24" len="12" pan="0"/>
          <note pos="1272" vol="136" key="39" len="12" pan="0"/>
          <note pos="1272" vol="136" key="34" len="12" pan="0"/>
          <note pos="1284" vol="148" key="24" len="12" pan="0"/>
          <note pos="1296" vol="136" key="39" len="12" pan="0"/>
          <note pos="1296" vol="174" key="28" len="12" pan="0"/>
          <note pos="1320" vol="136" key="39" len="12" pan="0"/>
          <note pos="1320" vol="136" key="34" len="12" pan="0"/>
          <note pos="1332" vol="174" key="28" len="12" pan="0"/>
          <note pos="1332" vol="148" key="24" len="12" pan="0"/>
          <note pos="1344" vol="136" key="39" len="12" pan="0"/>
          <note pos="1344" vol="148" key="24" len="12" pan="0"/>
          <note pos="1368" vol="136" key="39" len="12" pan="0"/>
          <note pos="1368" vol="136" key="34" len="12" pan="0"/>
          <note pos="1380" vol="148" key="24" len="12" pan="0"/>
          <note pos="1392" vol="136" key="39" len="12" pan="0"/>
          <note pos="1392" vol="174" key="28" len="12" pan="0"/>
          <note pos="1416" vol="136" key="39" len="12" pan="0"/>
          <note pos="1416" vol="136" key="34" len="12" pan="0"/>
          <note pos="1428" vol="148" key="24" len="12" pan="0"/>
          <note pos="1440" vol="136" key="39" len="12" pan="0"/>
          <note pos="1440" vol="148" key="24" len="12" pan="0"/>
          <note pos="1464" vol="136" key="39" len="12" pan="0"/>
          <note pos="1464" vol="136" key="34" len="12" pan="0"/>
          <note pos="1464" vol="174" key="28" len="12" pan="0"/>
          <note pos="1476" vol="148" key="24" len="12" pan="0"/>
          <note pos="1488" vol="136" key="39" len="12" pan="0"/>
          <note pos="1488" vol="174" key="28" len="12" pan="0"/>
          <note pos="1512" vol="136" key="39" len="12" pan="0"/>
          <note pos="1512" vol="136" key="34" len="12" pan="0"/>
          <note pos="1512" vol="174" key="28" len="12" pan="0"/>
          <note pos="1524" vol="174" key="28" len="12" pan="0"/>
          <note pos="1524" vol="148" key="24" len="12" pan="0"/>
        </pattern>
        <pattern type="1" name="Drums" muted="0" pos="19968" steps="16">
          <note pos="0" vol="148" key="37" len="12" pan="0"/>
          <note pos="168" vol="76" key="26" len="12" pan="0"/>
          <note pos="180" vol="93" key="26" len="12" pan="0"/>
          <note pos="192" vol="102" key="26" len="12" pan="0"/>
          <note pos="312" vol="161" key="28" len="12" pan="0"/>
          <note pos="312" vol="100" key="24" len="12" pan="0"/>
          <note pos="336" vol="161" key="28" len="12" pan="0"/>
          <note pos="336" vol="100" key="24" len="12" pan="0"/>
          <note pos="360" vol="161" key="28" len="12" pan="0"/>
          <note pos="360" vol="100" key="24" len="12" pan="0"/>
          <note pos="372" vol="161" key="28" len="12" pan="0"/>
          <note pos="372" vol="100" key="24" len="12" pan="0"/>
        </pattern>
      </track>
    </trackcontainer>
    <track type="6" solo="0" name="Automation track" muted="0">
      <automationtrack/>
      <automationpattern name="Numerator" pos="0" tens="1" prog="0" len="192" mute="0"/>
      <automationpattern name="Denominator" pos="0" tens="1" prog="0" len="192" mute="0"/>
      <automationpattern name="Tempo" pos="0" tens="1" prog="0" len="192" mute="0"/>
      <automationpattern name="Master volume" pos="0" tens="1" prog="0" len="192" mute="0"/>
      <automationpattern name="Master pitch" pos="0" tens="1" prog="0" len="192" mute="0"/>
      <automationpattern name="Numerator" pos="0" tens="1" prog="0" len="192" mute="0"/>
      <automationpattern name="Denominator" pos="0" tens="1" prog="0" len="192" mute="0"/>
      <automationpattern name="Tempo" pos="0" tens="1" prog="0" len="192" mute="0"/>
      <automationpattern name="Master volume" pos="0" tens="1" prog="0" len="192" mute="0"/>
      <automationpattern name="Master pitch" pos="0" tens="1" prog="0" len="192" mute="0"/>
    </track>
    <fxmixer width="561" minimized="0" height="333" visible="0" maximized="0" x="20" y="321">
      <fxchannel soloed="0" num="0" name="Master" muted="0" volume="1">
        <fxchain enabled="0" numofeffects="0"/>
      </fxchannel>
    </fxmixer>
    <ControllerRackView width="350" minimized="0" height="200" visible="0" maximized="0" x="836" y="407"/>
    <pianoroll width="860" minimized="0" height="482" visible="1" maximized="0" x="544" y="453"/>
    <automationeditor width="860" minimized="0" height="400" visible="0" maximized="0" x="483" y="448"/>
    <projectnotes width="744" minimized="0" height="400" visible="0" maximized="0" x="1" y="1"><![CDATA[<!DOCTYPE HTML PUBLIC "-//W3C//DTD HTML 4.0//EN" "http://www.w3.org/TR/REC-html40/strict.dtd">
<html><head><meta name="qrichtext" content="1" /><style type="text/css">
p, li { white-space: pre-wrap; }
</style></head><body style=" font-family:'Cantarell'; font-size:11pt; font-weight:400; font-style:normal;">
<p style="-qt-paragraph-type:empty; margin-top:0px; margin-bottom:0px; margin-left:0px; margin-right:0px; -qt-block-indent:0; text-indent:0px;"><br /></p></body></html>]]></projectnotes>
    <timeline lpstate="1" lp1pos="20352" lp0pos="0"/>
    <controllers/>
  </song>
</lmms-project>
