<?xml version="1.0"?>
<!DOCTYPE lmms-project>
<lmms-project creator="LMMS" version="1.0" type="song" creatorversion="1.2.2">
  <head timesig_denominator="4" bpm="100" masterpitch="0" mastervol="100" timesig_numerator="4"/>
  <song>
    <trackcontainer width="1118" minimized="0" maximized="0" visible="1" height="408" x="69" y="21" type="song">
      <track solo="0" muted="0" type="0" name="Bass">
        <instrumenttrack pitchrange="1" vol="100" pitch="0" usemasterpitch="1" pan="0" fxch="2" basenote="57">
          <instrument name="sf2player">
            <sf2player src="soundfonts/GeneralUser GS v1.471.sf2" reverbOn="0" reverbLevel="0.89999998" bank="0" reverbWidth="0.5" chorusOn="0" gain="1" patch="32" reverbRoomSize="0.2" chorusLevel="2" chorusSpeed="0.30000001" reverbDamping="0.2" chorusNum="0.89999998" chorusDepth="8"/>
          </instrument>
          <eldata fres="0.5" fcut="14000" ftype="0" fwet="0">
            <elvol lshp="0" latt="0" lspd_denominator="4" amt="0" pdel="0" hold="0.5" sustain="0.5" lspd_numerator="4" lspd_syncmode="0" att="0" lspd="0.1" x100="0" dec="0.5" lamt="0" ctlenvamt="0" lpdel="0" userwavefile="" rel="0.1"/>
            <elcut lshp="0" latt="0" lspd_denominator="4" amt="0" pdel="0" hold="0.5" sustain="0.5" lspd_numerator="4" lspd_syncmode="0" att="0" lspd="0.1" x100="0" dec="0.5" lamt="0" ctlenvamt="0" lpdel="0" userwavefile="" rel="0.1"/>
            <elres lshp="0" latt="0" lspd_denominator="4" amt="0" pdel="0" hold="0.5" sustain="0.5" lspd_numerator="4" lspd_syncmode="0" att="0" lspd="0.1" x100="0" dec="0.5" lamt="0" ctlenvamt="0" lpdel="0" userwavefile="" rel="0.1"/>
          </eldata>
          <chordcreator chord-enabled="0" chordrange="1" chord="0"/>
          <arpeggiator arpskip="0" arpdir="0" arptime_syncmode="0" arp="0" arpmode="0" arptime_numerator="4" arpgate="100" arpcycle="0" arprange="1" arp-enabled="0" arptime="200" arpmiss="0" arptime_denominator="4"/>
          <midiport inputcontroller="0" outputcontroller="0" outputprogram="1" fixedinputvelocity="-1" writable="0" inputchannel="0" basevelocity="63" fixedoutputvelocity="-1" readable="0" fixedoutputnote="-1" outputchannel="1"/>
          <fxchain numofeffects="0" enabled="0"/>
        </instrumenttrack>
        <pattern pos="0" steps="16" muted="0" type="1" name="Bass">
          <note vol="100" pos="0" len="36" pan="0" key="24"/>
          <note vol="100" pos="36" len="12" pan="0" key="19"/>
          <note vol="100" pos="48" len="36" pan="0" key="19"/>
          <note vol="100" pos="84" len="12" pan="0" key="24"/>
          <note vol="100" pos="96" len="36" pan="0" key="24"/>
          <note vol="100" pos="132" len="12" pan="0" key="19"/>
          <note vol="100" pos="144" len="12" pan="0" key="19"/>
          <note vol="100" pos="168" len="12" pan="0" key="19"/>
        </pattern>
        <pattern pos="192" steps="16" muted="0" type="1" name="Bass">
          <note vol="100" pos="0" len="36" pan="0" key="24"/>
          <note vol="100" pos="36" len="12" pan="0" key="19"/>
          <note vol="100" pos="48" len="36" pan="0" key="19"/>
          <note vol="100" pos="84" len="12" pan="0" key="24"/>
          <note vol="100" pos="96" len="36" pan="0" key="24"/>
          <note vol="100" pos="132" len="12" pan="0" key="19"/>
          <note vol="100" pos="144" len="12" pan="0" key="19"/>
          <note vol="100" pos="168" len="12" pan="0" key="19"/>
        </pattern>
        <pattern pos="384" steps="16" muted="0" type="1" name="Bass">
          <note vol="100" pos="0" len="36" pan="0" key="24"/>
          <note vol="100" pos="36" len="12" pan="0" key="19"/>
          <note vol="100" pos="48" len="36" pan="0" key="19"/>
          <note vol="100" pos="84" len="12" pan="0" key="24"/>
          <note vol="100" pos="96" len="36" pan="0" key="24"/>
          <note vol="100" pos="132" len="12" pan="0" key="19"/>
          <note vol="100" pos="144" len="12" pan="0" key="19"/>
          <note vol="100" pos="168" len="12" pan="0" key="19"/>
        </pattern>
        <pattern pos="576" steps="16" muted="0" type="1" name="Bass">
          <note vol="100" pos="0" len="36" pan="0" key="24"/>
          <note vol="100" pos="36" len="12" pan="0" key="19"/>
          <note vol="100" pos="48" len="36" pan="0" key="19"/>
          <note vol="100" pos="84" len="12" pan="0" key="24"/>
          <note vol="100" pos="96" len="36" pan="0" key="24"/>
          <note vol="100" pos="132" len="12" pan="0" key="19"/>
          <note vol="100" pos="144" len="12" pan="0" key="19"/>
          <note vol="100" pos="168" len="12" pan="0" key="19"/>
        </pattern>
        <pattern pos="768" steps="16" muted="0" type="1" name="Bass">
          <note vol="100" pos="0" len="36" pan="0" key="24"/>
          <note vol="100" pos="36" len="12" pan="0" key="19"/>
          <note vol="100" pos="48" len="36" pan="0" key="19"/>
          <note vol="100" pos="84" len="12" pan="0" key="24"/>
          <note vol="100" pos="96" len="36" pan="0" key="24"/>
          <note vol="100" pos="132" len="12" pan="0" key="19"/>
          <note vol="100" pos="144" len="12" pan="0" key="19"/>
          <note vol="100" pos="168" len="12" pan="0" key="19"/>
        </pattern>
        <pattern pos="960" steps="16" muted="0" type="1" name="Bass">
          <note vol="100" pos="0" len="36" pan="0" key="24"/>
          <note vol="100" pos="36" len="12" pan="0" key="19"/>
          <note vol="100" pos="48" len="36" pan="0" key="19"/>
          <note vol="100" pos="84" len="12" pan="0" key="24"/>
          <note vol="100" pos="96" len="36" pan="0" key="24"/>
          <note vol="100" pos="132" len="12" pan="0" key="19"/>
          <note vol="100" pos="144" len="12" pan="0" key="19"/>
          <note vol="100" pos="168" len="12" pan="0" key="19"/>
        </pattern>
        <pattern pos="1152" steps="16" muted="0" type="1" name="Bass">
          <note vol="100" pos="0" len="36" pan="0" key="24"/>
          <note vol="100" pos="36" len="12" pan="0" key="19"/>
          <note vol="100" pos="48" len="36" pan="0" key="19"/>
          <note vol="100" pos="84" len="12" pan="0" key="24"/>
          <note vol="100" pos="96" len="36" pan="0" key="24"/>
          <note vol="100" pos="132" len="12" pan="0" key="19"/>
          <note vol="100" pos="144" len="12" pan="0" key="19"/>
          <note vol="100" pos="168" len="12" pan="0" key="19"/>
        </pattern>
        <pattern pos="1344" steps="16" muted="0" type="1" name="Bass">
          <note vol="100" pos="0" len="36" pan="0" key="24"/>
          <note vol="100" pos="36" len="12" pan="0" key="19"/>
          <note vol="100" pos="48" len="36" pan="0" key="19"/>
          <note vol="100" pos="84" len="12" pan="0" key="24"/>
          <note vol="100" pos="96" len="36" pan="0" key="24"/>
          <note vol="100" pos="132" len="12" pan="0" key="19"/>
          <note vol="100" pos="144" len="12" pan="0" key="19"/>
          <note vol="100" pos="168" len="12" pan="0" key="19"/>
        </pattern>
        <pattern pos="1536" steps="16" muted="0" type="1" name="Bass">
          <note vol="100" pos="0" len="36" pan="0" key="24"/>
          <note vol="100" pos="36" len="12" pan="0" key="19"/>
          <note vol="100" pos="48" len="36" pan="0" key="19"/>
          <note vol="100" pos="84" len="12" pan="0" key="24"/>
          <note vol="100" pos="96" len="36" pan="0" key="24"/>
          <note vol="100" pos="132" len="12" pan="0" key="19"/>
          <note vol="100" pos="144" len="12" pan="0" key="19"/>
          <note vol="100" pos="168" len="12" pan="0" key="19"/>
        </pattern>
        <pattern pos="1920" steps="16" muted="0" type="1" name="Bass">
          <note vol="100" pos="0" len="36" pan="0" key="24"/>
          <note vol="100" pos="36" len="12" pan="0" key="19"/>
          <note vol="100" pos="48" len="36" pan="0" key="19"/>
          <note vol="100" pos="84" len="12" pan="0" key="24"/>
          <note vol="100" pos="96" len="36" pan="0" key="24"/>
          <note vol="100" pos="132" len="12" pan="0" key="19"/>
          <note vol="100" pos="144" len="12" pan="0" key="19"/>
          <note vol="100" pos="168" len="12" pan="0" key="19"/>
        </pattern>
        <pattern pos="1728" steps="16" muted="0" type="1" name="Bass">
          <note vol="100" pos="0" len="36" pan="0" key="24"/>
          <note vol="100" pos="36" len="12" pan="0" key="19"/>
          <note vol="100" pos="48" len="36" pan="0" key="19"/>
          <note vol="100" pos="84" len="12" pan="0" key="24"/>
          <note vol="100" pos="96" len="36" pan="0" key="24"/>
          <note vol="100" pos="132" len="12" pan="0" key="19"/>
          <note vol="100" pos="144" len="12" pan="0" key="19"/>
          <note vol="100" pos="168" len="12" pan="0" key="19"/>
        </pattern>
        <pattern pos="2112" steps="16" muted="0" type="1" name="Bass">
          <note vol="100" pos="0" len="36" pan="0" key="24"/>
          <note vol="100" pos="36" len="12" pan="0" key="19"/>
          <note vol="100" pos="48" len="36" pan="0" key="19"/>
          <note vol="100" pos="84" len="12" pan="0" key="24"/>
          <note vol="100" pos="96" len="36" pan="0" key="24"/>
          <note vol="100" pos="132" len="12" pan="0" key="19"/>
          <note vol="100" pos="144" len="12" pan="0" key="19"/>
          <note vol="100" pos="168" len="12" pan="0" key="19"/>
        </pattern>
        <pattern pos="2304" steps="16" muted="0" type="1" name="Bass">
          <note vol="100" pos="0" len="36" pan="0" key="24"/>
          <note vol="100" pos="36" len="12" pan="0" key="19"/>
          <note vol="100" pos="48" len="36" pan="0" key="19"/>
          <note vol="100" pos="84" len="12" pan="0" key="24"/>
          <note vol="100" pos="96" len="36" pan="0" key="24"/>
          <note vol="100" pos="132" len="12" pan="0" key="19"/>
          <note vol="100" pos="144" len="12" pan="0" key="19"/>
          <note vol="100" pos="168" len="12" pan="0" key="19"/>
        </pattern>
        <pattern pos="2496" steps="16" muted="0" type="1" name="Bass">
          <note vol="100" pos="0" len="36" pan="0" key="24"/>
          <note vol="100" pos="36" len="12" pan="0" key="19"/>
          <note vol="100" pos="48" len="36" pan="0" key="19"/>
          <note vol="100" pos="84" len="12" pan="0" key="24"/>
          <note vol="100" pos="96" len="36" pan="0" key="24"/>
          <note vol="100" pos="132" len="12" pan="0" key="19"/>
          <note vol="100" pos="144" len="12" pan="0" key="19"/>
          <note vol="100" pos="168" len="12" pan="0" key="19"/>
        </pattern>
        <pattern pos="2688" steps="16" muted="0" type="1" name="Bass">
          <note vol="100" pos="0" len="36" pan="0" key="24"/>
          <note vol="100" pos="36" len="12" pan="0" key="19"/>
          <note vol="100" pos="48" len="36" pan="0" key="19"/>
          <note vol="100" pos="84" len="12" pan="0" key="24"/>
          <note vol="100" pos="96" len="36" pan="0" key="24"/>
          <note vol="100" pos="132" len="12" pan="0" key="19"/>
          <note vol="100" pos="144" len="12" pan="0" key="19"/>
          <note vol="100" pos="168" len="12" pan="0" key="19"/>
        </pattern>
        <pattern pos="2880" steps="16" muted="0" type="1" name="Bass">
          <note vol="100" pos="0" len="36" pan="0" key="24"/>
          <note vol="100" pos="36" len="12" pan="0" key="19"/>
          <note vol="100" pos="48" len="36" pan="0" key="19"/>
          <note vol="100" pos="84" len="12" pan="0" key="24"/>
          <note vol="100" pos="96" len="36" pan="0" key="24"/>
          <note vol="100" pos="132" len="12" pan="0" key="19"/>
          <note vol="100" pos="144" len="12" pan="0" key="19"/>
          <note vol="100" pos="168" len="12" pan="0" key="19"/>
        </pattern>
        <pattern pos="3072" steps="16" muted="0" type="1" name="Bass">
          <note vol="100" pos="0" len="36" pan="0" key="24"/>
          <note vol="100" pos="36" len="12" pan="0" key="19"/>
          <note vol="100" pos="48" len="36" pan="0" key="19"/>
          <note vol="100" pos="84" len="12" pan="0" key="24"/>
          <note vol="100" pos="96" len="36" pan="0" key="24"/>
          <note vol="100" pos="132" len="12" pan="0" key="19"/>
          <note vol="100" pos="144" len="12" pan="0" key="19"/>
          <note vol="100" pos="168" len="12" pan="0" key="19"/>
        </pattern>
        <pattern pos="3264" steps="16" muted="0" type="1" name="Bass">
          <note vol="100" pos="0" len="36" pan="0" key="24"/>
          <note vol="100" pos="36" len="12" pan="0" key="19"/>
          <note vol="100" pos="48" len="36" pan="0" key="19"/>
          <note vol="100" pos="84" len="12" pan="0" key="24"/>
          <note vol="100" pos="96" len="36" pan="0" key="24"/>
          <note vol="100" pos="132" len="12" pan="0" key="19"/>
          <note vol="100" pos="144" len="12" pan="0" key="19"/>
          <note vol="100" pos="168" len="12" pan="0" key="19"/>
        </pattern>
        <pattern pos="3456" steps="16" muted="0" type="1" name="Bass">
          <note vol="100" pos="0" len="36" pan="0" key="24"/>
          <note vol="100" pos="36" len="12" pan="0" key="19"/>
          <note vol="100" pos="48" len="36" pan="0" key="19"/>
          <note vol="100" pos="84" len="12" pan="0" key="24"/>
          <note vol="100" pos="96" len="36" pan="0" key="24"/>
          <note vol="100" pos="132" len="12" pan="0" key="19"/>
          <note vol="100" pos="144" len="12" pan="0" key="19"/>
          <note vol="100" pos="168" len="12" pan="0" key="19"/>
        </pattern>
        <pattern pos="3648" steps="16" muted="0" type="1" name="Bass">
          <note vol="100" pos="0" len="36" pan="0" key="24"/>
          <note vol="100" pos="36" len="12" pan="0" key="19"/>
          <note vol="100" pos="48" len="36" pan="0" key="19"/>
          <note vol="100" pos="84" len="12" pan="0" key="24"/>
          <note vol="100" pos="96" len="36" pan="0" key="24"/>
          <note vol="100" pos="132" len="12" pan="0" key="19"/>
          <note vol="100" pos="144" len="12" pan="0" key="19"/>
          <note vol="100" pos="168" len="12" pan="0" key="19"/>
        </pattern>
        <pattern pos="3840" steps="16" muted="0" type="1" name="Bass">
          <note vol="100" pos="0" len="36" pan="0" key="24"/>
          <note vol="100" pos="36" len="12" pan="0" key="19"/>
          <note vol="100" pos="48" len="36" pan="0" key="19"/>
          <note vol="100" pos="84" len="12" pan="0" key="24"/>
          <note vol="100" pos="96" len="36" pan="0" key="24"/>
          <note vol="100" pos="132" len="12" pan="0" key="19"/>
          <note vol="100" pos="144" len="12" pan="0" key="19"/>
          <note vol="100" pos="168" len="12" pan="0" key="19"/>
        </pattern>
        <pattern pos="4224" steps="16" muted="0" type="1" name="Bass">
          <note vol="100" pos="0" len="36" pan="0" key="24"/>
          <note vol="100" pos="36" len="12" pan="0" key="19"/>
          <note vol="100" pos="48" len="36" pan="0" key="19"/>
          <note vol="100" pos="84" len="12" pan="0" key="24"/>
          <note vol="100" pos="96" len="36" pan="0" key="24"/>
          <note vol="100" pos="132" len="12" pan="0" key="19"/>
          <note vol="100" pos="144" len="12" pan="0" key="19"/>
          <note vol="100" pos="168" len="12" pan="0" key="19"/>
        </pattern>
        <pattern pos="4032" steps="16" muted="0" type="1" name="Bass">
          <note vol="100" pos="0" len="36" pan="0" key="24"/>
          <note vol="100" pos="36" len="12" pan="0" key="19"/>
          <note vol="100" pos="48" len="36" pan="0" key="19"/>
          <note vol="100" pos="84" len="12" pan="0" key="24"/>
          <note vol="100" pos="96" len="36" pan="0" key="24"/>
          <note vol="100" pos="132" len="12" pan="0" key="19"/>
          <note vol="100" pos="144" len="12" pan="0" key="19"/>
          <note vol="100" pos="168" len="12" pan="0" key="19"/>
        </pattern>
        <pattern pos="4416" steps="16" muted="0" type="1" name="Bass">
          <note vol="100" pos="0" len="36" pan="0" key="24"/>
          <note vol="100" pos="36" len="12" pan="0" key="19"/>
          <note vol="100" pos="48" len="36" pan="0" key="19"/>
          <note vol="100" pos="84" len="12" pan="0" key="24"/>
          <note vol="100" pos="96" len="36" pan="0" key="24"/>
          <note vol="100" pos="132" len="12" pan="0" key="19"/>
          <note vol="100" pos="144" len="12" pan="0" key="19"/>
          <note vol="100" pos="168" len="12" pan="0" key="19"/>
        </pattern>
        <pattern pos="4608" steps="16" muted="0" type="1" name="Bass">
          <note vol="100" pos="0" len="36" pan="0" key="24"/>
          <note vol="100" pos="36" len="12" pan="0" key="19"/>
          <note vol="100" pos="48" len="36" pan="0" key="19"/>
          <note vol="100" pos="84" len="12" pan="0" key="24"/>
          <note vol="100" pos="96" len="36" pan="0" key="24"/>
          <note vol="100" pos="132" len="12" pan="0" key="19"/>
          <note vol="100" pos="144" len="12" pan="0" key="19"/>
          <note vol="100" pos="168" len="12" pan="0" key="19"/>
        </pattern>
        <pattern pos="4800" steps="16" muted="0" type="1" name="Bass">
          <note vol="100" pos="0" len="36" pan="0" key="24"/>
          <note vol="100" pos="36" len="12" pan="0" key="19"/>
          <note vol="100" pos="48" len="36" pan="0" key="19"/>
          <note vol="100" pos="84" len="12" pan="0" key="24"/>
          <note vol="100" pos="96" len="36" pan="0" key="24"/>
          <note vol="100" pos="132" len="12" pan="0" key="19"/>
          <note vol="100" pos="144" len="12" pan="0" key="19"/>
          <note vol="100" pos="168" len="12" pan="0" key="19"/>
        </pattern>
        <pattern pos="4992" steps="16" muted="0" type="1" name="Bass">
          <note vol="100" pos="0" len="36" pan="0" key="24"/>
          <note vol="100" pos="36" len="12" pan="0" key="19"/>
          <note vol="100" pos="48" len="36" pan="0" key="19"/>
          <note vol="100" pos="84" len="12" pan="0" key="24"/>
          <note vol="100" pos="96" len="36" pan="0" key="24"/>
          <note vol="100" pos="132" len="12" pan="0" key="19"/>
          <note vol="100" pos="144" len="12" pan="0" key="19"/>
          <note vol="100" pos="168" len="12" pan="0" key="19"/>
        </pattern>
        <pattern pos="5184" steps="16" muted="0" type="1" name="Bass">
          <note vol="100" pos="0" len="36" pan="0" key="24"/>
          <note vol="100" pos="36" len="12" pan="0" key="19"/>
          <note vol="100" pos="48" len="36" pan="0" key="19"/>
          <note vol="100" pos="84" len="12" pan="0" key="24"/>
          <note vol="100" pos="96" len="36" pan="0" key="24"/>
          <note vol="100" pos="132" len="12" pan="0" key="19"/>
          <note vol="100" pos="144" len="12" pan="0" key="19"/>
          <note vol="100" pos="168" len="12" pan="0" key="19"/>
        </pattern>
        <pattern pos="5376" steps="16" muted="0" type="1" name="Bass">
          <note vol="100" pos="0" len="36" pan="0" key="24"/>
          <note vol="100" pos="36" len="12" pan="0" key="19"/>
          <note vol="100" pos="48" len="36" pan="0" key="19"/>
          <note vol="100" pos="84" len="12" pan="0" key="24"/>
          <note vol="100" pos="96" len="36" pan="0" key="24"/>
          <note vol="100" pos="132" len="12" pan="0" key="19"/>
          <note vol="100" pos="144" len="12" pan="0" key="19"/>
          <note vol="100" pos="168" len="12" pan="0" key="19"/>
        </pattern>
        <pattern pos="5568" steps="16" muted="0" type="1" name="Bass">
          <note vol="100" pos="0" len="36" pan="0" key="24"/>
          <note vol="100" pos="36" len="12" pan="0" key="19"/>
          <note vol="100" pos="48" len="36" pan="0" key="19"/>
          <note vol="100" pos="84" len="12" pan="0" key="24"/>
          <note vol="100" pos="96" len="36" pan="0" key="24"/>
          <note vol="100" pos="132" len="12" pan="0" key="19"/>
          <note vol="100" pos="144" len="12" pan="0" key="19"/>
          <note vol="100" pos="168" len="12" pan="0" key="19"/>
        </pattern>
        <pattern pos="5760" steps="16" muted="0" type="1" name="Bass">
          <note vol="100" pos="0" len="36" pan="0" key="24"/>
          <note vol="100" pos="36" len="12" pan="0" key="19"/>
          <note vol="100" pos="48" len="36" pan="0" key="19"/>
          <note vol="100" pos="84" len="12" pan="0" key="24"/>
          <note vol="100" pos="96" len="36" pan="0" key="24"/>
          <note vol="100" pos="132" len="12" pan="0" key="19"/>
          <note vol="100" pos="144" len="12" pan="0" key="19"/>
          <note vol="100" pos="168" len="12" pan="0" key="19"/>
        </pattern>
        <pattern pos="5952" steps="16" muted="0" type="1" name="Bass">
          <note vol="100" pos="0" len="36" pan="0" key="24"/>
          <note vol="100" pos="36" len="12" pan="0" key="19"/>
          <note vol="100" pos="48" len="36" pan="0" key="19"/>
          <note vol="100" pos="84" len="12" pan="0" key="24"/>
          <note vol="100" pos="96" len="36" pan="0" key="24"/>
          <note vol="100" pos="132" len="12" pan="0" key="19"/>
          <note vol="100" pos="144" len="12" pan="0" key="19"/>
          <note vol="100" pos="168" len="12" pan="0" key="19"/>
        </pattern>
        <pattern pos="6144" steps="16" muted="0" type="1" name="Bass">
          <note vol="100" pos="0" len="36" pan="0" key="24"/>
          <note vol="100" pos="36" len="12" pan="0" key="19"/>
          <note vol="100" pos="48" len="36" pan="0" key="19"/>
          <note vol="100" pos="84" len="12" pan="0" key="24"/>
          <note vol="100" pos="96" len="36" pan="0" key="24"/>
          <note vol="100" pos="132" len="12" pan="0" key="19"/>
          <note vol="100" pos="144" len="12" pan="0" key="19"/>
          <note vol="100" pos="168" len="12" pan="0" key="19"/>
        </pattern>
        <pattern pos="6528" steps="16" muted="0" type="1" name="Bass">
          <note vol="100" pos="0" len="36" pan="0" key="24"/>
          <note vol="100" pos="36" len="12" pan="0" key="19"/>
          <note vol="100" pos="48" len="36" pan="0" key="19"/>
          <note vol="100" pos="84" len="12" pan="0" key="24"/>
          <note vol="100" pos="96" len="36" pan="0" key="24"/>
          <note vol="100" pos="132" len="12" pan="0" key="19"/>
          <note vol="100" pos="144" len="12" pan="0" key="19"/>
          <note vol="100" pos="168" len="12" pan="0" key="19"/>
        </pattern>
        <pattern pos="6336" steps="16" muted="0" type="1" name="Bass">
          <note vol="100" pos="0" len="36" pan="0" key="24"/>
          <note vol="100" pos="36" len="12" pan="0" key="19"/>
          <note vol="100" pos="48" len="36" pan="0" key="19"/>
          <note vol="100" pos="84" len="12" pan="0" key="24"/>
          <note vol="100" pos="96" len="36" pan="0" key="24"/>
          <note vol="100" pos="132" len="12" pan="0" key="19"/>
          <note vol="100" pos="144" len="12" pan="0" key="19"/>
          <note vol="100" pos="168" len="12" pan="0" key="19"/>
        </pattern>
        <pattern pos="6720" steps="16" muted="0" type="1" name="Bass">
          <note vol="100" pos="0" len="36" pan="0" key="24"/>
          <note vol="100" pos="36" len="12" pan="0" key="19"/>
          <note vol="100" pos="48" len="36" pan="0" key="19"/>
          <note vol="100" pos="84" len="12" pan="0" key="24"/>
          <note vol="100" pos="96" len="36" pan="0" key="24"/>
          <note vol="100" pos="132" len="12" pan="0" key="19"/>
          <note vol="100" pos="144" len="12" pan="0" key="19"/>
          <note vol="100" pos="168" len="12" pan="0" key="19"/>
        </pattern>
        <pattern pos="6912" steps="16" muted="0" type="1" name="Bass">
          <note vol="100" pos="0" len="36" pan="0" key="24"/>
          <note vol="100" pos="36" len="12" pan="0" key="19"/>
          <note vol="100" pos="48" len="36" pan="0" key="19"/>
          <note vol="100" pos="84" len="12" pan="0" key="24"/>
          <note vol="100" pos="96" len="36" pan="0" key="24"/>
          <note vol="100" pos="132" len="12" pan="0" key="19"/>
          <note vol="100" pos="144" len="12" pan="0" key="19"/>
          <note vol="100" pos="168" len="12" pan="0" key="19"/>
        </pattern>
        <pattern pos="7104" steps="16" muted="0" type="1" name="Bass">
          <note vol="100" pos="0" len="36" pan="0" key="24"/>
          <note vol="100" pos="36" len="12" pan="0" key="19"/>
          <note vol="100" pos="48" len="36" pan="0" key="19"/>
          <note vol="100" pos="84" len="12" pan="0" key="24"/>
          <note vol="100" pos="96" len="36" pan="0" key="24"/>
          <note vol="100" pos="132" len="12" pan="0" key="19"/>
          <note vol="100" pos="144" len="12" pan="0" key="19"/>
          <note vol="100" pos="168" len="12" pan="0" key="19"/>
        </pattern>
        <pattern pos="7296" steps="16" muted="0" type="1" name="Bass">
          <note vol="100" pos="0" len="36" pan="0" key="24"/>
          <note vol="100" pos="36" len="12" pan="0" key="19"/>
          <note vol="100" pos="48" len="36" pan="0" key="19"/>
          <note vol="100" pos="84" len="12" pan="0" key="24"/>
          <note vol="100" pos="96" len="36" pan="0" key="24"/>
          <note vol="100" pos="132" len="12" pan="0" key="19"/>
          <note vol="100" pos="144" len="12" pan="0" key="19"/>
          <note vol="100" pos="168" len="12" pan="0" key="19"/>
        </pattern>
        <pattern pos="7488" steps="16" muted="0" type="1" name="Bass">
          <note vol="100" pos="0" len="36" pan="0" key="24"/>
          <note vol="100" pos="36" len="12" pan="0" key="19"/>
          <note vol="100" pos="48" len="36" pan="0" key="19"/>
          <note vol="100" pos="84" len="12" pan="0" key="24"/>
          <note vol="100" pos="96" len="36" pan="0" key="24"/>
          <note vol="100" pos="132" len="12" pan="0" key="19"/>
          <note vol="100" pos="144" len="12" pan="0" key="19"/>
          <note vol="100" pos="168" len="12" pan="0" key="19"/>
        </pattern>
        <pattern pos="7680" steps="16" muted="0" type="1" name="Bass">
          <note vol="100" pos="0" len="36" pan="0" key="24"/>
          <note vol="100" pos="36" len="12" pan="0" key="19"/>
          <note vol="100" pos="48" len="36" pan="0" key="19"/>
          <note vol="100" pos="84" len="12" pan="0" key="24"/>
          <note vol="100" pos="96" len="36" pan="0" key="24"/>
          <note vol="100" pos="132" len="12" pan="0" key="19"/>
          <note vol="100" pos="144" len="12" pan="0" key="19"/>
          <note vol="100" pos="168" len="12" pan="0" key="19"/>
        </pattern>
        <pattern pos="7872" steps="16" muted="0" type="1" name="Bass">
          <note vol="100" pos="0" len="36" pan="0" key="24"/>
          <note vol="100" pos="36" len="12" pan="0" key="19"/>
          <note vol="100" pos="48" len="36" pan="0" key="19"/>
          <note vol="100" pos="84" len="12" pan="0" key="24"/>
          <note vol="100" pos="96" len="36" pan="0" key="24"/>
          <note vol="100" pos="132" len="12" pan="0" key="19"/>
          <note vol="100" pos="144" len="12" pan="0" key="19"/>
          <note vol="100" pos="168" len="12" pan="0" key="19"/>
        </pattern>
        <pattern pos="8064" steps="16" muted="0" type="1" name="">
          <note vol="100" pos="0" len="36" pan="0" key="24"/>
          <note vol="100" pos="36" len="12" pan="0" key="19"/>
          <note vol="100" pos="48" len="36" pan="0" key="19"/>
          <note vol="100" pos="84" len="12" pan="0" key="24"/>
          <note vol="100" pos="96" len="36" pan="0" key="24"/>
          <note vol="100" pos="132" len="12" pan="0" key="19"/>
          <note vol="100" pos="144" len="12" pan="0" key="19"/>
          <note vol="100" pos="168" len="12" pan="0" key="19"/>
        </pattern>
        <pattern pos="8256" steps="16" muted="0" type="1" name="">
          <note vol="100" pos="0" len="36" pan="0" key="24"/>
          <note vol="100" pos="36" len="12" pan="0" key="19"/>
          <note vol="100" pos="48" len="36" pan="0" key="19"/>
          <note vol="100" pos="84" len="12" pan="0" key="24"/>
          <note vol="100" pos="96" len="36" pan="0" key="24"/>
          <note vol="100" pos="132" len="12" pan="0" key="19"/>
          <note vol="100" pos="144" len="12" pan="0" key="19"/>
          <note vol="100" pos="168" len="12" pan="0" key="19"/>
        </pattern>
        <pattern pos="8448" steps="16" muted="0" type="1" name="">
          <note vol="100" pos="0" len="36" pan="0" key="24"/>
          <note vol="100" pos="36" len="12" pan="0" key="19"/>
          <note vol="100" pos="48" len="36" pan="0" key="19"/>
          <note vol="100" pos="84" len="12" pan="0" key="24"/>
          <note vol="100" pos="96" len="36" pan="0" key="24"/>
          <note vol="100" pos="132" len="12" pan="0" key="19"/>
          <note vol="100" pos="144" len="12" pan="0" key="19"/>
          <note vol="100" pos="168" len="12" pan="0" key="19"/>
        </pattern>
        <pattern pos="8640" steps="16" muted="0" type="1" name="">
          <note vol="100" pos="0" len="36" pan="0" key="24"/>
          <note vol="100" pos="36" len="12" pan="0" key="19"/>
          <note vol="100" pos="48" len="36" pan="0" key="19"/>
          <note vol="100" pos="84" len="12" pan="0" key="24"/>
          <note vol="100" pos="96" len="36" pan="0" key="24"/>
          <note vol="100" pos="132" len="12" pan="0" key="19"/>
          <note vol="100" pos="144" len="12" pan="0" key="19"/>
          <note vol="100" pos="168" len="12" pan="0" key="19"/>
        </pattern>
        <pattern pos="8832" steps="16" muted="0" type="1" name="">
          <note vol="100" pos="0" len="36" pan="0" key="24"/>
          <note vol="100" pos="36" len="12" pan="0" key="19"/>
          <note vol="100" pos="48" len="36" pan="0" key="19"/>
          <note vol="100" pos="84" len="12" pan="0" key="24"/>
          <note vol="100" pos="96" len="36" pan="0" key="24"/>
          <note vol="100" pos="132" len="12" pan="0" key="19"/>
          <note vol="100" pos="144" len="12" pan="0" key="19"/>
          <note vol="100" pos="168" len="12" pan="0" key="19"/>
        </pattern>
        <pattern pos="9024" steps="16" muted="0" type="1" name="">
          <note vol="100" pos="0" len="36" pan="0" key="24"/>
          <note vol="100" pos="36" len="12" pan="0" key="19"/>
          <note vol="100" pos="48" len="36" pan="0" key="19"/>
          <note vol="100" pos="84" len="12" pan="0" key="24"/>
          <note vol="100" pos="96" len="36" pan="0" key="24"/>
          <note vol="100" pos="132" len="12" pan="0" key="19"/>
          <note vol="100" pos="144" len="12" pan="0" key="19"/>
          <note vol="100" pos="168" len="12" pan="0" key="19"/>
        </pattern>
      </track>
      <track solo="0" muted="0" type="0" name="Jazz Drums 2">
        <instrumenttrack pitchrange="1" vol="85.599998" pitch="0" usemasterpitch="1" pan="0" fxch="1" basenote="57">
          <instrument name="sf2player">
            <sf2player src="soundfonts/GeneralUser GS v1.471.sf2" reverbOn="0" reverbLevel="0.89999998" bank="128" reverbWidth="0.5" chorusOn="0" gain="1" patch="32" reverbRoomSize="0.2" chorusLevel="2" chorusSpeed="0.30000001" reverbDamping="0.2" chorusNum="0.89999998" chorusDepth="8"/>
          </instrument>
          <eldata fres="0.5" fcut="14000" ftype="0" fwet="0">
            <elvol lshp="0" latt="0" lspd_denominator="4" amt="0" pdel="0" hold="0.5" sustain="0.5" lspd_numerator="4" lspd_syncmode="0" att="0" lspd="0.1" x100="0" dec="0.5" lamt="0" ctlenvamt="0" lpdel="0" userwavefile="" rel="0.1"/>
            <elcut lshp="0" latt="0" lspd_denominator="4" amt="0" pdel="0" hold="0.5" sustain="0.5" lspd_numerator="4" lspd_syncmode="0" att="0" lspd="0.1" x100="0" dec="0.5" lamt="0" ctlenvamt="0" lpdel="0" userwavefile="" rel="0.1"/>
            <elres lshp="0" latt="0" lspd_denominator="4" amt="0" pdel="0" hold="0.5" sustain="0.5" lspd_numerator="4" lspd_syncmode="0" att="0" lspd="0.1" x100="0" dec="0.5" lamt="0" ctlenvamt="0" lpdel="0" userwavefile="" rel="0.1"/>
          </eldata>
          <chordcreator chord-enabled="0" chordrange="1" chord="0"/>
          <arpeggiator arpskip="0" arpdir="0" arptime_syncmode="0" arp="0" arpmode="0" arptime_numerator="4" arpgate="100" arpcycle="0" arprange="1" arp-enabled="0" arptime="200" arpmiss="0" arptime_denominator="4"/>
          <midiport inputcontroller="0" outputcontroller="0" outputprogram="1" fixedinputvelocity="-1" writable="0" inputchannel="0" basevelocity="63" fixedoutputvelocity="-1" readable="0" fixedoutputnote="-1" outputchannel="1"/>
          <fxchain numofeffects="0" enabled="0"/>
        </instrumenttrack>
        <pattern pos="384" steps="16" muted="0" type="1" name="Jazz Drums 2">
          <note vol="55" pos="0" len="12" pan="0" key="64"/>
          <note vol="100" pos="0" len="12" pan="0" key="62"/>
          <note vol="100" pos="0" len="12" pan="0" key="51"/>
          <note vol="100" pos="12" len="12" pan="0" key="65"/>
          <note vol="100" pos="24" len="12" pan="0" key="73"/>
          <note vol="100" pos="24" len="12" pan="0" key="70"/>
          <note vol="100" pos="36" len="12" pan="0" key="65"/>
          <note vol="100" pos="36" len="12" pan="0" key="51"/>
          <note vol="55" pos="48" len="12" pan="0" key="64"/>
          <note vol="100" pos="48" len="12" pan="0" key="62"/>
          <note vol="100" pos="48" len="12" pan="0" key="52"/>
          <note vol="100" pos="60" len="12" pan="0" key="65"/>
          <note vol="100" pos="72" len="12" pan="0" key="73"/>
          <note vol="100" pos="72" len="12" pan="0" key="70"/>
          <note vol="100" pos="84" len="12" pan="0" key="65"/>
          <note vol="100" pos="84" len="12" pan="0" key="52"/>
          <note vol="55" pos="96" len="12" pan="0" key="64"/>
          <note vol="100" pos="96" len="12" pan="0" key="62"/>
          <note vol="100" pos="96" len="12" pan="0" key="51"/>
          <note vol="100" pos="108" len="12" pan="0" key="73"/>
          <note vol="100" pos="108" len="12" pan="0" key="65"/>
          <note vol="100" pos="120" len="12" pan="0" key="73"/>
          <note vol="100" pos="132" len="12" pan="0" key="73"/>
          <note vol="100" pos="132" len="12" pan="0" key="70"/>
          <note vol="55" pos="132" len="12" pan="0" key="64"/>
          <note vol="100" pos="132" len="12" pan="0" key="51"/>
          <note vol="100" pos="144" len="12" pan="0" key="73"/>
          <note vol="55" pos="144" len="12" pan="0" key="64"/>
          <note vol="100" pos="144" len="12" pan="0" key="62"/>
          <note vol="100" pos="144" len="12" pan="0" key="52"/>
          <note vol="100" pos="156" len="12" pan="0" key="65"/>
          <note vol="100" pos="168" len="12" pan="0" key="73"/>
          <note vol="100" pos="168" len="12" pan="0" key="70"/>
          <note vol="55" pos="168" len="12" pan="0" key="64"/>
          <note vol="100" pos="168" len="12" pan="0" key="52"/>
          <note vol="100" pos="180" len="12" pan="0" key="65"/>
          <note vol="55" pos="192" len="12" pan="0" key="64"/>
          <note vol="100" pos="192" len="12" pan="0" key="62"/>
          <note vol="100" pos="192" len="12" pan="0" key="51"/>
          <note vol="100" pos="204" len="12" pan="0" key="65"/>
          <note vol="100" pos="216" len="12" pan="0" key="73"/>
          <note vol="100" pos="216" len="12" pan="0" key="70"/>
          <note vol="100" pos="228" len="12" pan="0" key="65"/>
          <note vol="100" pos="228" len="12" pan="0" key="51"/>
          <note vol="55" pos="240" len="12" pan="0" key="64"/>
          <note vol="100" pos="240" len="12" pan="0" key="62"/>
          <note vol="100" pos="240" len="12" pan="0" key="52"/>
          <note vol="100" pos="252" len="12" pan="0" key="65"/>
          <note vol="100" pos="264" len="12" pan="0" key="73"/>
          <note vol="100" pos="264" len="12" pan="0" key="70"/>
          <note vol="100" pos="276" len="12" pan="0" key="65"/>
          <note vol="100" pos="276" len="12" pan="0" key="52"/>
          <note vol="55" pos="288" len="12" pan="0" key="64"/>
          <note vol="100" pos="288" len="12" pan="0" key="62"/>
          <note vol="100" pos="288" len="12" pan="0" key="51"/>
          <note vol="100" pos="300" len="12" pan="0" key="73"/>
          <note vol="100" pos="300" len="12" pan="0" key="65"/>
          <note vol="100" pos="312" len="12" pan="0" key="73"/>
          <note vol="100" pos="324" len="12" pan="0" key="73"/>
          <note vol="100" pos="324" len="12" pan="0" key="70"/>
          <note vol="55" pos="324" len="12" pan="0" key="64"/>
          <note vol="100" pos="324" len="12" pan="0" key="51"/>
          <note vol="100" pos="336" len="12" pan="0" key="73"/>
          <note vol="55" pos="336" len="12" pan="0" key="64"/>
          <note vol="100" pos="336" len="12" pan="0" key="62"/>
          <note vol="100" pos="336" len="12" pan="0" key="52"/>
          <note vol="100" pos="348" len="12" pan="0" key="65"/>
          <note vol="100" pos="360" len="12" pan="0" key="73"/>
          <note vol="100" pos="360" len="12" pan="0" key="70"/>
          <note vol="55" pos="360" len="12" pan="0" key="64"/>
          <note vol="100" pos="360" len="12" pan="0" key="52"/>
          <note vol="100" pos="372" len="12" pan="0" key="65"/>
          <note vol="55" pos="384" len="12" pan="0" key="64"/>
          <note vol="100" pos="384" len="12" pan="0" key="62"/>
          <note vol="100" pos="384" len="12" pan="0" key="51"/>
          <note vol="100" pos="396" len="12" pan="0" key="65"/>
          <note vol="100" pos="408" len="12" pan="0" key="73"/>
          <note vol="100" pos="408" len="12" pan="0" key="70"/>
          <note vol="100" pos="420" len="12" pan="0" key="65"/>
          <note vol="100" pos="420" len="12" pan="0" key="51"/>
          <note vol="55" pos="432" len="12" pan="0" key="64"/>
          <note vol="100" pos="432" len="12" pan="0" key="62"/>
          <note vol="100" pos="432" len="12" pan="0" key="52"/>
          <note vol="100" pos="444" len="12" pan="0" key="65"/>
          <note vol="100" pos="456" len="12" pan="0" key="73"/>
          <note vol="100" pos="456" len="12" pan="0" key="70"/>
          <note vol="100" pos="468" len="12" pan="0" key="65"/>
          <note vol="100" pos="468" len="12" pan="0" key="52"/>
          <note vol="55" pos="480" len="12" pan="0" key="64"/>
          <note vol="100" pos="480" len="12" pan="0" key="62"/>
          <note vol="100" pos="480" len="12" pan="0" key="51"/>
          <note vol="100" pos="492" len="12" pan="0" key="73"/>
          <note vol="100" pos="492" len="12" pan="0" key="65"/>
          <note vol="100" pos="504" len="12" pan="0" key="73"/>
          <note vol="100" pos="516" len="12" pan="0" key="73"/>
          <note vol="100" pos="516" len="12" pan="0" key="70"/>
          <note vol="55" pos="516" len="12" pan="0" key="64"/>
          <note vol="100" pos="516" len="12" pan="0" key="51"/>
          <note vol="100" pos="528" len="12" pan="0" key="73"/>
          <note vol="55" pos="528" len="12" pan="0" key="64"/>
          <note vol="100" pos="528" len="12" pan="0" key="62"/>
          <note vol="100" pos="528" len="12" pan="0" key="52"/>
          <note vol="100" pos="540" len="12" pan="0" key="65"/>
          <note vol="100" pos="552" len="12" pan="0" key="73"/>
          <note vol="100" pos="552" len="12" pan="0" key="70"/>
          <note vol="55" pos="552" len="12" pan="0" key="64"/>
          <note vol="100" pos="552" len="12" pan="0" key="52"/>
          <note vol="100" pos="564" len="12" pan="0" key="65"/>
          <note vol="55" pos="576" len="12" pan="0" key="64"/>
          <note vol="100" pos="576" len="12" pan="0" key="62"/>
          <note vol="100" pos="576" len="12" pan="0" key="51"/>
          <note vol="100" pos="588" len="12" pan="0" key="65"/>
          <note vol="100" pos="600" len="12" pan="0" key="73"/>
          <note vol="100" pos="600" len="12" pan="0" key="70"/>
          <note vol="100" pos="612" len="12" pan="0" key="65"/>
          <note vol="100" pos="612" len="12" pan="0" key="51"/>
          <note vol="55" pos="624" len="12" pan="0" key="64"/>
          <note vol="100" pos="624" len="12" pan="0" key="62"/>
          <note vol="100" pos="624" len="12" pan="0" key="52"/>
          <note vol="100" pos="636" len="12" pan="0" key="65"/>
          <note vol="100" pos="648" len="12" pan="0" key="73"/>
          <note vol="100" pos="648" len="12" pan="0" key="70"/>
          <note vol="100" pos="660" len="12" pan="0" key="65"/>
          <note vol="100" pos="660" len="12" pan="0" key="52"/>
          <note vol="55" pos="672" len="12" pan="0" key="64"/>
          <note vol="100" pos="672" len="12" pan="0" key="62"/>
          <note vol="100" pos="672" len="12" pan="0" key="51"/>
          <note vol="100" pos="684" len="12" pan="0" key="73"/>
          <note vol="100" pos="684" len="12" pan="0" key="65"/>
          <note vol="100" pos="696" len="12" pan="0" key="73"/>
          <note vol="100" pos="708" len="12" pan="0" key="73"/>
          <note vol="100" pos="708" len="12" pan="0" key="70"/>
          <note vol="55" pos="708" len="12" pan="0" key="64"/>
          <note vol="100" pos="708" len="12" pan="0" key="51"/>
          <note vol="100" pos="720" len="12" pan="0" key="73"/>
          <note vol="55" pos="720" len="12" pan="0" key="64"/>
          <note vol="100" pos="720" len="12" pan="0" key="62"/>
          <note vol="100" pos="720" len="12" pan="0" key="52"/>
          <note vol="100" pos="732" len="12" pan="0" key="65"/>
          <note vol="100" pos="744" len="12" pan="0" key="73"/>
          <note vol="100" pos="744" len="12" pan="0" key="70"/>
          <note vol="55" pos="744" len="12" pan="0" key="64"/>
          <note vol="100" pos="744" len="12" pan="0" key="52"/>
          <note vol="100" pos="756" len="12" pan="0" key="65"/>
        </pattern>
        <pattern pos="1152" steps="16" muted="0" type="1" name="Jazz Drums 2">
          <note vol="100" pos="0" len="12" pan="0" key="64"/>
          <note vol="100" pos="0" len="12" pan="0" key="62"/>
          <note vol="100" pos="0" len="12" pan="0" key="51"/>
          <note vol="100" pos="12" len="12" pan="0" key="65"/>
          <note vol="100" pos="24" len="12" pan="0" key="73"/>
          <note vol="100" pos="24" len="12" pan="0" key="70"/>
          <note vol="100" pos="36" len="12" pan="0" key="65"/>
          <note vol="100" pos="36" len="12" pan="0" key="51"/>
          <note vol="100" pos="48" len="12" pan="0" key="64"/>
          <note vol="100" pos="48" len="12" pan="0" key="62"/>
          <note vol="100" pos="48" len="12" pan="0" key="52"/>
          <note vol="100" pos="60" len="12" pan="0" key="65"/>
          <note vol="100" pos="72" len="12" pan="0" key="73"/>
          <note vol="100" pos="72" len="12" pan="0" key="70"/>
          <note vol="100" pos="84" len="12" pan="0" key="65"/>
          <note vol="100" pos="84" len="12" pan="0" key="52"/>
          <note vol="100" pos="96" len="12" pan="0" key="64"/>
          <note vol="100" pos="96" len="12" pan="0" key="62"/>
          <note vol="100" pos="96" len="12" pan="0" key="51"/>
          <note vol="100" pos="108" len="12" pan="0" key="73"/>
          <note vol="100" pos="108" len="12" pan="0" key="65"/>
          <note vol="100" pos="120" len="12" pan="0" key="73"/>
          <note vol="100" pos="132" len="12" pan="0" key="73"/>
          <note vol="100" pos="132" len="12" pan="0" key="70"/>
          <note vol="100" pos="132" len="12" pan="0" key="64"/>
          <note vol="100" pos="132" len="12" pan="0" key="51"/>
          <note vol="100" pos="144" len="12" pan="0" key="73"/>
          <note vol="100" pos="144" len="12" pan="0" key="64"/>
          <note vol="100" pos="144" len="12" pan="0" key="62"/>
          <note vol="100" pos="144" len="12" pan="0" key="52"/>
          <note vol="100" pos="156" len="12" pan="0" key="65"/>
          <note vol="100" pos="168" len="12" pan="0" key="73"/>
          <note vol="100" pos="168" len="12" pan="0" key="70"/>
          <note vol="100" pos="168" len="12" pan="0" key="64"/>
          <note vol="100" pos="168" len="12" pan="0" key="52"/>
          <note vol="100" pos="180" len="12" pan="0" key="65"/>
          <note vol="100" pos="192" len="12" pan="0" key="64"/>
          <note vol="100" pos="192" len="12" pan="0" key="62"/>
          <note vol="100" pos="192" len="12" pan="0" key="51"/>
          <note vol="100" pos="204" len="12" pan="0" key="65"/>
          <note vol="100" pos="216" len="12" pan="0" key="73"/>
          <note vol="100" pos="216" len="12" pan="0" key="70"/>
          <note vol="100" pos="228" len="12" pan="0" key="65"/>
          <note vol="100" pos="228" len="12" pan="0" key="51"/>
          <note vol="100" pos="240" len="12" pan="0" key="64"/>
          <note vol="100" pos="240" len="12" pan="0" key="62"/>
          <note vol="100" pos="240" len="12" pan="0" key="52"/>
          <note vol="100" pos="252" len="12" pan="0" key="65"/>
          <note vol="100" pos="264" len="12" pan="0" key="73"/>
          <note vol="100" pos="264" len="12" pan="0" key="70"/>
          <note vol="100" pos="276" len="12" pan="0" key="65"/>
          <note vol="100" pos="276" len="12" pan="0" key="52"/>
          <note vol="100" pos="288" len="12" pan="0" key="64"/>
          <note vol="100" pos="288" len="12" pan="0" key="62"/>
          <note vol="100" pos="288" len="12" pan="0" key="51"/>
          <note vol="100" pos="300" len="12" pan="0" key="73"/>
          <note vol="100" pos="300" len="12" pan="0" key="65"/>
          <note vol="100" pos="312" len="12" pan="0" key="73"/>
          <note vol="100" pos="324" len="12" pan="0" key="73"/>
          <note vol="100" pos="324" len="12" pan="0" key="70"/>
          <note vol="100" pos="324" len="12" pan="0" key="64"/>
          <note vol="100" pos="324" len="12" pan="0" key="51"/>
          <note vol="100" pos="336" len="12" pan="0" key="73"/>
          <note vol="100" pos="336" len="12" pan="0" key="64"/>
          <note vol="100" pos="336" len="12" pan="0" key="62"/>
          <note vol="100" pos="336" len="12" pan="0" key="52"/>
          <note vol="100" pos="348" len="12" pan="0" key="65"/>
          <note vol="100" pos="360" len="12" pan="0" key="73"/>
          <note vol="100" pos="360" len="12" pan="0" key="70"/>
          <note vol="100" pos="360" len="12" pan="0" key="64"/>
          <note vol="100" pos="360" len="12" pan="0" key="52"/>
          <note vol="100" pos="372" len="12" pan="0" key="65"/>
          <note vol="100" pos="384" len="12" pan="0" key="64"/>
          <note vol="100" pos="384" len="12" pan="0" key="62"/>
          <note vol="100" pos="384" len="12" pan="0" key="51"/>
          <note vol="100" pos="396" len="12" pan="0" key="65"/>
          <note vol="100" pos="408" len="12" pan="0" key="73"/>
          <note vol="100" pos="408" len="12" pan="0" key="70"/>
          <note vol="100" pos="420" len="12" pan="0" key="65"/>
          <note vol="100" pos="420" len="12" pan="0" key="51"/>
          <note vol="100" pos="432" len="12" pan="0" key="64"/>
          <note vol="100" pos="432" len="12" pan="0" key="62"/>
          <note vol="100" pos="432" len="12" pan="0" key="52"/>
          <note vol="100" pos="444" len="12" pan="0" key="65"/>
          <note vol="100" pos="456" len="12" pan="0" key="73"/>
          <note vol="100" pos="456" len="12" pan="0" key="70"/>
          <note vol="100" pos="468" len="12" pan="0" key="65"/>
          <note vol="100" pos="468" len="12" pan="0" key="52"/>
          <note vol="100" pos="480" len="12" pan="0" key="64"/>
          <note vol="100" pos="480" len="12" pan="0" key="62"/>
          <note vol="100" pos="480" len="12" pan="0" key="51"/>
          <note vol="100" pos="492" len="12" pan="0" key="73"/>
          <note vol="100" pos="492" len="12" pan="0" key="65"/>
          <note vol="100" pos="504" len="12" pan="0" key="73"/>
          <note vol="100" pos="516" len="12" pan="0" key="73"/>
          <note vol="100" pos="516" len="12" pan="0" key="70"/>
          <note vol="100" pos="516" len="12" pan="0" key="64"/>
          <note vol="100" pos="516" len="12" pan="0" key="51"/>
          <note vol="100" pos="528" len="12" pan="0" key="73"/>
          <note vol="100" pos="528" len="12" pan="0" key="64"/>
          <note vol="100" pos="528" len="12" pan="0" key="62"/>
          <note vol="100" pos="528" len="12" pan="0" key="52"/>
          <note vol="100" pos="540" len="12" pan="0" key="65"/>
          <note vol="100" pos="552" len="12" pan="0" key="73"/>
          <note vol="100" pos="552" len="12" pan="0" key="70"/>
          <note vol="100" pos="552" len="12" pan="0" key="64"/>
          <note vol="100" pos="552" len="12" pan="0" key="52"/>
          <note vol="100" pos="564" len="12" pan="0" key="65"/>
          <note vol="100" pos="576" len="12" pan="0" key="64"/>
          <note vol="100" pos="576" len="12" pan="0" key="62"/>
          <note vol="100" pos="576" len="12" pan="0" key="51"/>
          <note vol="100" pos="588" len="12" pan="0" key="65"/>
          <note vol="100" pos="600" len="12" pan="0" key="73"/>
          <note vol="100" pos="600" len="12" pan="0" key="70"/>
          <note vol="100" pos="612" len="12" pan="0" key="65"/>
          <note vol="100" pos="612" len="12" pan="0" key="51"/>
          <note vol="100" pos="624" len="12" pan="0" key="64"/>
          <note vol="100" pos="624" len="12" pan="0" key="62"/>
          <note vol="100" pos="624" len="12" pan="0" key="52"/>
          <note vol="100" pos="636" len="12" pan="0" key="65"/>
          <note vol="100" pos="648" len="12" pan="0" key="73"/>
          <note vol="100" pos="648" len="12" pan="0" key="70"/>
          <note vol="100" pos="660" len="12" pan="0" key="65"/>
          <note vol="100" pos="660" len="12" pan="0" key="52"/>
          <note vol="100" pos="672" len="12" pan="0" key="64"/>
          <note vol="100" pos="672" len="12" pan="0" key="62"/>
          <note vol="100" pos="672" len="12" pan="0" key="51"/>
          <note vol="100" pos="684" len="12" pan="0" key="73"/>
          <note vol="100" pos="684" len="12" pan="0" key="65"/>
          <note vol="100" pos="696" len="12" pan="0" key="73"/>
          <note vol="100" pos="708" len="12" pan="0" key="73"/>
          <note vol="100" pos="708" len="12" pan="0" key="70"/>
          <note vol="100" pos="708" len="12" pan="0" key="64"/>
          <note vol="100" pos="708" len="12" pan="0" key="51"/>
          <note vol="100" pos="720" len="12" pan="0" key="73"/>
          <note vol="100" pos="720" len="12" pan="0" key="64"/>
          <note vol="100" pos="720" len="12" pan="0" key="62"/>
          <note vol="100" pos="720" len="12" pan="0" key="52"/>
          <note vol="100" pos="732" len="12" pan="0" key="65"/>
          <note vol="100" pos="744" len="12" pan="0" key="73"/>
          <note vol="100" pos="744" len="12" pan="0" key="70"/>
          <note vol="100" pos="744" len="12" pan="0" key="64"/>
          <note vol="100" pos="744" len="12" pan="0" key="52"/>
          <note vol="100" pos="756" len="12" pan="0" key="65"/>
        </pattern>
        <pattern pos="1920" steps="16" muted="0" type="1" name="Jazz Drums 2">
          <note vol="100" pos="0" len="12" pan="0" key="64"/>
          <note vol="100" pos="0" len="12" pan="0" key="62"/>
          <note vol="100" pos="0" len="12" pan="0" key="51"/>
          <note vol="100" pos="12" len="12" pan="0" key="65"/>
          <note vol="100" pos="24" len="12" pan="0" key="73"/>
          <note vol="100" pos="24" len="12" pan="0" key="70"/>
          <note vol="100" pos="36" len="12" pan="0" key="65"/>
          <note vol="100" pos="36" len="12" pan="0" key="51"/>
          <note vol="100" pos="48" len="12" pan="0" key="64"/>
          <note vol="100" pos="48" len="12" pan="0" key="62"/>
          <note vol="100" pos="48" len="12" pan="0" key="52"/>
          <note vol="100" pos="60" len="12" pan="0" key="65"/>
          <note vol="100" pos="72" len="12" pan="0" key="73"/>
          <note vol="100" pos="72" len="12" pan="0" key="70"/>
          <note vol="100" pos="84" len="12" pan="0" key="65"/>
          <note vol="100" pos="84" len="12" pan="0" key="52"/>
          <note vol="100" pos="96" len="12" pan="0" key="64"/>
          <note vol="100" pos="96" len="12" pan="0" key="62"/>
          <note vol="100" pos="96" len="12" pan="0" key="51"/>
          <note vol="100" pos="108" len="12" pan="0" key="73"/>
          <note vol="100" pos="108" len="12" pan="0" key="65"/>
          <note vol="100" pos="120" len="12" pan="0" key="73"/>
          <note vol="100" pos="132" len="12" pan="0" key="73"/>
          <note vol="100" pos="132" len="12" pan="0" key="70"/>
          <note vol="100" pos="132" len="12" pan="0" key="64"/>
          <note vol="100" pos="132" len="12" pan="0" key="51"/>
          <note vol="100" pos="144" len="12" pan="0" key="73"/>
          <note vol="100" pos="144" len="12" pan="0" key="64"/>
          <note vol="100" pos="144" len="12" pan="0" key="62"/>
          <note vol="100" pos="144" len="12" pan="0" key="52"/>
          <note vol="100" pos="156" len="12" pan="0" key="65"/>
          <note vol="100" pos="168" len="12" pan="0" key="73"/>
          <note vol="100" pos="168" len="12" pan="0" key="70"/>
          <note vol="100" pos="168" len="12" pan="0" key="64"/>
          <note vol="100" pos="168" len="12" pan="0" key="52"/>
          <note vol="100" pos="180" len="12" pan="0" key="65"/>
          <note vol="100" pos="192" len="12" pan="0" key="64"/>
          <note vol="100" pos="192" len="12" pan="0" key="62"/>
          <note vol="100" pos="192" len="12" pan="0" key="51"/>
          <note vol="100" pos="204" len="12" pan="0" key="65"/>
          <note vol="100" pos="216" len="12" pan="0" key="73"/>
          <note vol="100" pos="216" len="12" pan="0" key="70"/>
          <note vol="100" pos="228" len="12" pan="0" key="65"/>
          <note vol="100" pos="228" len="12" pan="0" key="51"/>
          <note vol="100" pos="240" len="12" pan="0" key="64"/>
          <note vol="100" pos="240" len="12" pan="0" key="62"/>
          <note vol="100" pos="240" len="12" pan="0" key="52"/>
          <note vol="100" pos="252" len="12" pan="0" key="65"/>
          <note vol="100" pos="264" len="12" pan="0" key="73"/>
          <note vol="100" pos="264" len="12" pan="0" key="70"/>
          <note vol="100" pos="276" len="12" pan="0" key="65"/>
          <note vol="100" pos="276" len="12" pan="0" key="52"/>
          <note vol="100" pos="288" len="12" pan="0" key="64"/>
          <note vol="100" pos="288" len="12" pan="0" key="62"/>
          <note vol="100" pos="288" len="12" pan="0" key="51"/>
          <note vol="100" pos="300" len="12" pan="0" key="73"/>
          <note vol="100" pos="300" len="12" pan="0" key="65"/>
          <note vol="100" pos="312" len="12" pan="0" key="73"/>
          <note vol="100" pos="324" len="12" pan="0" key="73"/>
          <note vol="100" pos="324" len="12" pan="0" key="70"/>
          <note vol="100" pos="324" len="12" pan="0" key="64"/>
          <note vol="100" pos="324" len="12" pan="0" key="51"/>
          <note vol="100" pos="336" len="12" pan="0" key="73"/>
          <note vol="100" pos="336" len="12" pan="0" key="64"/>
          <note vol="100" pos="336" len="12" pan="0" key="62"/>
          <note vol="100" pos="336" len="12" pan="0" key="52"/>
          <note vol="100" pos="348" len="12" pan="0" key="65"/>
          <note vol="100" pos="360" len="12" pan="0" key="73"/>
          <note vol="100" pos="360" len="12" pan="0" key="70"/>
          <note vol="100" pos="360" len="12" pan="0" key="64"/>
          <note vol="100" pos="360" len="12" pan="0" key="52"/>
          <note vol="100" pos="372" len="12" pan="0" key="65"/>
          <note vol="100" pos="384" len="12" pan="0" key="64"/>
          <note vol="100" pos="384" len="12" pan="0" key="62"/>
          <note vol="100" pos="384" len="12" pan="0" key="51"/>
          <note vol="100" pos="396" len="12" pan="0" key="65"/>
          <note vol="100" pos="408" len="12" pan="0" key="73"/>
          <note vol="100" pos="408" len="12" pan="0" key="70"/>
          <note vol="100" pos="420" len="12" pan="0" key="65"/>
          <note vol="100" pos="420" len="12" pan="0" key="51"/>
          <note vol="100" pos="432" len="12" pan="0" key="64"/>
          <note vol="100" pos="432" len="12" pan="0" key="62"/>
          <note vol="100" pos="432" len="12" pan="0" key="52"/>
          <note vol="100" pos="444" len="12" pan="0" key="65"/>
          <note vol="100" pos="456" len="12" pan="0" key="73"/>
          <note vol="100" pos="456" len="12" pan="0" key="70"/>
          <note vol="100" pos="468" len="12" pan="0" key="65"/>
          <note vol="100" pos="468" len="12" pan="0" key="52"/>
          <note vol="100" pos="480" len="12" pan="0" key="64"/>
          <note vol="100" pos="480" len="12" pan="0" key="62"/>
          <note vol="100" pos="480" len="12" pan="0" key="51"/>
          <note vol="100" pos="492" len="12" pan="0" key="73"/>
          <note vol="100" pos="492" len="12" pan="0" key="65"/>
          <note vol="100" pos="504" len="12" pan="0" key="73"/>
          <note vol="100" pos="516" len="12" pan="0" key="73"/>
          <note vol="100" pos="516" len="12" pan="0" key="70"/>
          <note vol="100" pos="516" len="12" pan="0" key="64"/>
          <note vol="100" pos="516" len="12" pan="0" key="51"/>
          <note vol="100" pos="528" len="12" pan="0" key="73"/>
          <note vol="100" pos="528" len="12" pan="0" key="64"/>
          <note vol="100" pos="528" len="12" pan="0" key="62"/>
          <note vol="100" pos="528" len="12" pan="0" key="52"/>
          <note vol="100" pos="540" len="12" pan="0" key="65"/>
          <note vol="100" pos="552" len="12" pan="0" key="73"/>
          <note vol="100" pos="552" len="12" pan="0" key="70"/>
          <note vol="100" pos="552" len="12" pan="0" key="64"/>
          <note vol="100" pos="552" len="12" pan="0" key="52"/>
          <note vol="100" pos="564" len="12" pan="0" key="65"/>
          <note vol="100" pos="576" len="12" pan="0" key="64"/>
          <note vol="100" pos="576" len="12" pan="0" key="62"/>
          <note vol="100" pos="576" len="12" pan="0" key="51"/>
          <note vol="100" pos="588" len="12" pan="0" key="65"/>
          <note vol="100" pos="600" len="12" pan="0" key="73"/>
          <note vol="100" pos="600" len="12" pan="0" key="70"/>
          <note vol="100" pos="612" len="12" pan="0" key="65"/>
          <note vol="100" pos="612" len="12" pan="0" key="51"/>
          <note vol="100" pos="624" len="12" pan="0" key="64"/>
          <note vol="100" pos="624" len="12" pan="0" key="62"/>
          <note vol="100" pos="624" len="12" pan="0" key="52"/>
          <note vol="100" pos="636" len="12" pan="0" key="65"/>
          <note vol="100" pos="648" len="12" pan="0" key="73"/>
          <note vol="100" pos="648" len="12" pan="0" key="70"/>
          <note vol="100" pos="660" len="12" pan="0" key="65"/>
          <note vol="100" pos="660" len="12" pan="0" key="52"/>
          <note vol="100" pos="672" len="12" pan="0" key="64"/>
          <note vol="100" pos="672" len="12" pan="0" key="62"/>
          <note vol="100" pos="672" len="12" pan="0" key="51"/>
          <note vol="100" pos="684" len="12" pan="0" key="73"/>
          <note vol="100" pos="684" len="12" pan="0" key="65"/>
          <note vol="100" pos="696" len="12" pan="0" key="73"/>
          <note vol="100" pos="708" len="12" pan="0" key="73"/>
          <note vol="100" pos="708" len="12" pan="0" key="70"/>
          <note vol="100" pos="708" len="12" pan="0" key="64"/>
          <note vol="100" pos="708" len="12" pan="0" key="51"/>
          <note vol="100" pos="720" len="12" pan="0" key="73"/>
          <note vol="100" pos="720" len="12" pan="0" key="64"/>
          <note vol="100" pos="720" len="12" pan="0" key="62"/>
          <note vol="100" pos="720" len="12" pan="0" key="52"/>
          <note vol="100" pos="732" len="12" pan="0" key="65"/>
          <note vol="100" pos="744" len="12" pan="0" key="73"/>
          <note vol="100" pos="744" len="12" pan="0" key="70"/>
          <note vol="100" pos="744" len="12" pan="0" key="64"/>
          <note vol="100" pos="744" len="12" pan="0" key="52"/>
          <note vol="100" pos="756" len="12" pan="0" key="65"/>
        </pattern>
        <pattern pos="2688" steps="16" muted="0" type="1" name="Jazz Drums 2">
          <note vol="100" pos="0" len="12" pan="0" key="64"/>
          <note vol="100" pos="0" len="12" pan="0" key="62"/>
          <note vol="100" pos="0" len="12" pan="0" key="51"/>
          <note vol="100" pos="12" len="12" pan="0" key="65"/>
          <note vol="100" pos="24" len="12" pan="0" key="73"/>
          <note vol="100" pos="24" len="12" pan="0" key="70"/>
          <note vol="100" pos="36" len="12" pan="0" key="65"/>
          <note vol="100" pos="36" len="12" pan="0" key="51"/>
          <note vol="100" pos="48" len="12" pan="0" key="64"/>
          <note vol="100" pos="48" len="12" pan="0" key="62"/>
          <note vol="100" pos="48" len="12" pan="0" key="52"/>
          <note vol="100" pos="60" len="12" pan="0" key="65"/>
          <note vol="100" pos="72" len="12" pan="0" key="73"/>
          <note vol="100" pos="72" len="12" pan="0" key="70"/>
          <note vol="100" pos="84" len="12" pan="0" key="65"/>
          <note vol="100" pos="84" len="12" pan="0" key="52"/>
          <note vol="100" pos="96" len="12" pan="0" key="64"/>
          <note vol="100" pos="96" len="12" pan="0" key="62"/>
          <note vol="100" pos="96" len="12" pan="0" key="51"/>
          <note vol="100" pos="108" len="12" pan="0" key="73"/>
          <note vol="100" pos="108" len="12" pan="0" key="65"/>
          <note vol="100" pos="120" len="12" pan="0" key="73"/>
          <note vol="100" pos="132" len="12" pan="0" key="73"/>
          <note vol="100" pos="132" len="12" pan="0" key="70"/>
          <note vol="100" pos="132" len="12" pan="0" key="64"/>
          <note vol="100" pos="132" len="12" pan="0" key="51"/>
          <note vol="100" pos="144" len="12" pan="0" key="73"/>
          <note vol="100" pos="144" len="12" pan="0" key="64"/>
          <note vol="100" pos="144" len="12" pan="0" key="62"/>
          <note vol="100" pos="144" len="12" pan="0" key="52"/>
          <note vol="100" pos="156" len="12" pan="0" key="65"/>
          <note vol="100" pos="168" len="12" pan="0" key="73"/>
          <note vol="100" pos="168" len="12" pan="0" key="70"/>
          <note vol="100" pos="168" len="12" pan="0" key="64"/>
          <note vol="100" pos="168" len="12" pan="0" key="52"/>
          <note vol="100" pos="180" len="12" pan="0" key="65"/>
          <note vol="100" pos="192" len="12" pan="0" key="64"/>
          <note vol="100" pos="192" len="12" pan="0" key="62"/>
          <note vol="100" pos="192" len="12" pan="0" key="51"/>
          <note vol="100" pos="204" len="12" pan="0" key="65"/>
          <note vol="100" pos="216" len="12" pan="0" key="73"/>
          <note vol="100" pos="216" len="12" pan="0" key="70"/>
          <note vol="100" pos="228" len="12" pan="0" key="65"/>
          <note vol="100" pos="228" len="12" pan="0" key="51"/>
          <note vol="100" pos="240" len="12" pan="0" key="64"/>
          <note vol="100" pos="240" len="12" pan="0" key="62"/>
          <note vol="100" pos="240" len="12" pan="0" key="52"/>
          <note vol="100" pos="252" len="12" pan="0" key="65"/>
          <note vol="100" pos="264" len="12" pan="0" key="73"/>
          <note vol="100" pos="264" len="12" pan="0" key="70"/>
          <note vol="100" pos="276" len="12" pan="0" key="65"/>
          <note vol="100" pos="276" len="12" pan="0" key="52"/>
          <note vol="100" pos="288" len="12" pan="0" key="64"/>
          <note vol="100" pos="288" len="12" pan="0" key="62"/>
          <note vol="100" pos="288" len="12" pan="0" key="51"/>
          <note vol="100" pos="300" len="12" pan="0" key="73"/>
          <note vol="100" pos="300" len="12" pan="0" key="65"/>
          <note vol="100" pos="312" len="12" pan="0" key="73"/>
          <note vol="100" pos="324" len="12" pan="0" key="73"/>
          <note vol="100" pos="324" len="12" pan="0" key="70"/>
          <note vol="100" pos="324" len="12" pan="0" key="64"/>
          <note vol="100" pos="324" len="12" pan="0" key="51"/>
          <note vol="100" pos="336" len="12" pan="0" key="73"/>
          <note vol="100" pos="336" len="12" pan="0" key="64"/>
          <note vol="100" pos="336" len="12" pan="0" key="62"/>
          <note vol="100" pos="336" len="12" pan="0" key="52"/>
          <note vol="100" pos="348" len="12" pan="0" key="65"/>
          <note vol="100" pos="360" len="12" pan="0" key="73"/>
          <note vol="100" pos="360" len="12" pan="0" key="70"/>
          <note vol="100" pos="360" len="12" pan="0" key="64"/>
          <note vol="100" pos="360" len="12" pan="0" key="52"/>
          <note vol="100" pos="372" len="12" pan="0" key="65"/>
          <note vol="100" pos="384" len="12" pan="0" key="64"/>
          <note vol="100" pos="384" len="12" pan="0" key="62"/>
          <note vol="100" pos="384" len="12" pan="0" key="51"/>
          <note vol="100" pos="396" len="12" pan="0" key="65"/>
          <note vol="100" pos="408" len="12" pan="0" key="73"/>
          <note vol="100" pos="408" len="12" pan="0" key="70"/>
          <note vol="100" pos="420" len="12" pan="0" key="65"/>
          <note vol="100" pos="420" len="12" pan="0" key="51"/>
          <note vol="100" pos="432" len="12" pan="0" key="64"/>
          <note vol="100" pos="432" len="12" pan="0" key="62"/>
          <note vol="100" pos="432" len="12" pan="0" key="52"/>
          <note vol="100" pos="444" len="12" pan="0" key="65"/>
          <note vol="100" pos="456" len="12" pan="0" key="73"/>
          <note vol="100" pos="456" len="12" pan="0" key="70"/>
          <note vol="100" pos="468" len="12" pan="0" key="65"/>
          <note vol="100" pos="468" len="12" pan="0" key="52"/>
          <note vol="100" pos="480" len="12" pan="0" key="64"/>
          <note vol="100" pos="480" len="12" pan="0" key="62"/>
          <note vol="100" pos="480" len="12" pan="0" key="51"/>
          <note vol="100" pos="492" len="12" pan="0" key="73"/>
          <note vol="100" pos="492" len="12" pan="0" key="65"/>
          <note vol="100" pos="504" len="12" pan="0" key="73"/>
          <note vol="100" pos="516" len="12" pan="0" key="73"/>
          <note vol="100" pos="516" len="12" pan="0" key="70"/>
          <note vol="100" pos="516" len="12" pan="0" key="64"/>
          <note vol="100" pos="516" len="12" pan="0" key="51"/>
          <note vol="100" pos="528" len="12" pan="0" key="73"/>
          <note vol="100" pos="528" len="12" pan="0" key="64"/>
          <note vol="100" pos="528" len="12" pan="0" key="62"/>
          <note vol="100" pos="528" len="12" pan="0" key="52"/>
          <note vol="100" pos="540" len="12" pan="0" key="65"/>
          <note vol="100" pos="552" len="12" pan="0" key="73"/>
          <note vol="100" pos="552" len="12" pan="0" key="70"/>
          <note vol="100" pos="552" len="12" pan="0" key="64"/>
          <note vol="100" pos="552" len="12" pan="0" key="52"/>
          <note vol="100" pos="564" len="12" pan="0" key="65"/>
          <note vol="100" pos="576" len="12" pan="0" key="64"/>
          <note vol="100" pos="576" len="12" pan="0" key="62"/>
          <note vol="100" pos="576" len="12" pan="0" key="51"/>
          <note vol="100" pos="588" len="12" pan="0" key="65"/>
          <note vol="100" pos="600" len="12" pan="0" key="73"/>
          <note vol="100" pos="600" len="12" pan="0" key="70"/>
          <note vol="100" pos="612" len="12" pan="0" key="65"/>
          <note vol="100" pos="612" len="12" pan="0" key="51"/>
          <note vol="100" pos="624" len="12" pan="0" key="64"/>
          <note vol="100" pos="624" len="12" pan="0" key="62"/>
          <note vol="100" pos="624" len="12" pan="0" key="52"/>
          <note vol="100" pos="636" len="12" pan="0" key="65"/>
          <note vol="100" pos="648" len="12" pan="0" key="73"/>
          <note vol="100" pos="648" len="12" pan="0" key="70"/>
          <note vol="100" pos="660" len="12" pan="0" key="65"/>
          <note vol="100" pos="660" len="12" pan="0" key="52"/>
          <note vol="100" pos="672" len="12" pan="0" key="64"/>
          <note vol="100" pos="672" len="12" pan="0" key="62"/>
          <note vol="100" pos="672" len="12" pan="0" key="51"/>
          <note vol="100" pos="684" len="12" pan="0" key="73"/>
          <note vol="100" pos="684" len="12" pan="0" key="65"/>
          <note vol="100" pos="696" len="12" pan="0" key="73"/>
          <note vol="100" pos="708" len="12" pan="0" key="73"/>
          <note vol="100" pos="708" len="12" pan="0" key="70"/>
          <note vol="100" pos="708" len="12" pan="0" key="64"/>
          <note vol="100" pos="708" len="12" pan="0" key="51"/>
          <note vol="100" pos="720" len="12" pan="0" key="73"/>
          <note vol="100" pos="720" len="12" pan="0" key="64"/>
          <note vol="100" pos="720" len="12" pan="0" key="62"/>
          <note vol="100" pos="720" len="12" pan="0" key="52"/>
          <note vol="100" pos="732" len="12" pan="0" key="65"/>
          <note vol="100" pos="744" len="12" pan="0" key="73"/>
          <note vol="100" pos="744" len="12" pan="0" key="70"/>
          <note vol="100" pos="744" len="12" pan="0" key="64"/>
          <note vol="100" pos="744" len="12" pan="0" key="52"/>
          <note vol="100" pos="756" len="12" pan="0" key="65"/>
        </pattern>
        <pattern pos="3456" steps="16" muted="0" type="1" name="Jazz Drums 2">
          <note vol="100" pos="0" len="12" pan="0" key="64"/>
          <note vol="100" pos="0" len="12" pan="0" key="62"/>
          <note vol="100" pos="0" len="12" pan="0" key="51"/>
          <note vol="100" pos="12" len="12" pan="0" key="65"/>
          <note vol="100" pos="24" len="12" pan="0" key="73"/>
          <note vol="100" pos="24" len="12" pan="0" key="70"/>
          <note vol="100" pos="36" len="12" pan="0" key="65"/>
          <note vol="100" pos="36" len="12" pan="0" key="51"/>
          <note vol="100" pos="48" len="12" pan="0" key="64"/>
          <note vol="100" pos="48" len="12" pan="0" key="62"/>
          <note vol="100" pos="48" len="12" pan="0" key="52"/>
          <note vol="100" pos="60" len="12" pan="0" key="65"/>
          <note vol="100" pos="72" len="12" pan="0" key="73"/>
          <note vol="100" pos="72" len="12" pan="0" key="70"/>
          <note vol="100" pos="84" len="12" pan="0" key="65"/>
          <note vol="100" pos="84" len="12" pan="0" key="52"/>
          <note vol="100" pos="96" len="12" pan="0" key="64"/>
          <note vol="100" pos="96" len="12" pan="0" key="62"/>
          <note vol="100" pos="96" len="12" pan="0" key="51"/>
          <note vol="100" pos="108" len="12" pan="0" key="73"/>
          <note vol="100" pos="108" len="12" pan="0" key="65"/>
          <note vol="100" pos="120" len="12" pan="0" key="73"/>
          <note vol="100" pos="132" len="12" pan="0" key="73"/>
          <note vol="100" pos="132" len="12" pan="0" key="70"/>
          <note vol="100" pos="132" len="12" pan="0" key="64"/>
          <note vol="100" pos="132" len="12" pan="0" key="51"/>
          <note vol="100" pos="144" len="12" pan="0" key="73"/>
          <note vol="100" pos="144" len="12" pan="0" key="64"/>
          <note vol="100" pos="144" len="12" pan="0" key="62"/>
          <note vol="100" pos="144" len="12" pan="0" key="52"/>
          <note vol="100" pos="156" len="12" pan="0" key="65"/>
          <note vol="100" pos="168" len="12" pan="0" key="73"/>
          <note vol="100" pos="168" len="12" pan="0" key="70"/>
          <note vol="100" pos="168" len="12" pan="0" key="64"/>
          <note vol="100" pos="168" len="12" pan="0" key="52"/>
          <note vol="100" pos="180" len="12" pan="0" key="65"/>
          <note vol="100" pos="192" len="12" pan="0" key="64"/>
          <note vol="100" pos="192" len="12" pan="0" key="62"/>
          <note vol="100" pos="192" len="12" pan="0" key="51"/>
          <note vol="100" pos="204" len="12" pan="0" key="65"/>
          <note vol="100" pos="216" len="12" pan="0" key="73"/>
          <note vol="100" pos="216" len="12" pan="0" key="70"/>
          <note vol="100" pos="228" len="12" pan="0" key="65"/>
          <note vol="100" pos="228" len="12" pan="0" key="51"/>
          <note vol="100" pos="240" len="12" pan="0" key="64"/>
          <note vol="100" pos="240" len="12" pan="0" key="62"/>
          <note vol="100" pos="240" len="12" pan="0" key="52"/>
          <note vol="100" pos="252" len="12" pan="0" key="65"/>
          <note vol="100" pos="264" len="12" pan="0" key="73"/>
          <note vol="100" pos="264" len="12" pan="0" key="70"/>
          <note vol="100" pos="276" len="12" pan="0" key="65"/>
          <note vol="100" pos="276" len="12" pan="0" key="52"/>
          <note vol="100" pos="288" len="12" pan="0" key="64"/>
          <note vol="100" pos="288" len="12" pan="0" key="62"/>
          <note vol="100" pos="288" len="12" pan="0" key="51"/>
          <note vol="100" pos="300" len="12" pan="0" key="73"/>
          <note vol="100" pos="300" len="12" pan="0" key="65"/>
          <note vol="100" pos="312" len="12" pan="0" key="73"/>
          <note vol="100" pos="324" len="12" pan="0" key="73"/>
          <note vol="100" pos="324" len="12" pan="0" key="70"/>
          <note vol="100" pos="324" len="12" pan="0" key="64"/>
          <note vol="100" pos="324" len="12" pan="0" key="51"/>
          <note vol="100" pos="336" len="12" pan="0" key="73"/>
          <note vol="100" pos="336" len="12" pan="0" key="64"/>
          <note vol="100" pos="336" len="12" pan="0" key="62"/>
          <note vol="100" pos="336" len="12" pan="0" key="52"/>
          <note vol="100" pos="348" len="12" pan="0" key="65"/>
          <note vol="100" pos="360" len="12" pan="0" key="73"/>
          <note vol="100" pos="360" len="12" pan="0" key="70"/>
          <note vol="100" pos="360" len="12" pan="0" key="64"/>
          <note vol="100" pos="360" len="12" pan="0" key="52"/>
          <note vol="100" pos="372" len="12" pan="0" key="65"/>
          <note vol="100" pos="384" len="12" pan="0" key="64"/>
          <note vol="100" pos="384" len="12" pan="0" key="62"/>
          <note vol="100" pos="384" len="12" pan="0" key="51"/>
          <note vol="100" pos="396" len="12" pan="0" key="65"/>
          <note vol="100" pos="408" len="12" pan="0" key="73"/>
          <note vol="100" pos="408" len="12" pan="0" key="70"/>
          <note vol="100" pos="420" len="12" pan="0" key="65"/>
          <note vol="100" pos="420" len="12" pan="0" key="51"/>
          <note vol="100" pos="432" len="12" pan="0" key="64"/>
          <note vol="100" pos="432" len="12" pan="0" key="62"/>
          <note vol="100" pos="432" len="12" pan="0" key="52"/>
          <note vol="100" pos="444" len="12" pan="0" key="65"/>
          <note vol="100" pos="456" len="12" pan="0" key="73"/>
          <note vol="100" pos="456" len="12" pan="0" key="70"/>
          <note vol="100" pos="468" len="12" pan="0" key="65"/>
          <note vol="100" pos="468" len="12" pan="0" key="52"/>
          <note vol="100" pos="480" len="12" pan="0" key="64"/>
          <note vol="100" pos="480" len="12" pan="0" key="62"/>
          <note vol="100" pos="480" len="12" pan="0" key="51"/>
          <note vol="100" pos="492" len="12" pan="0" key="73"/>
          <note vol="100" pos="492" len="12" pan="0" key="65"/>
          <note vol="100" pos="504" len="12" pan="0" key="73"/>
          <note vol="100" pos="516" len="12" pan="0" key="73"/>
          <note vol="100" pos="516" len="12" pan="0" key="70"/>
          <note vol="100" pos="516" len="12" pan="0" key="64"/>
          <note vol="100" pos="516" len="12" pan="0" key="51"/>
          <note vol="100" pos="528" len="12" pan="0" key="73"/>
          <note vol="100" pos="528" len="12" pan="0" key="64"/>
          <note vol="100" pos="528" len="12" pan="0" key="62"/>
          <note vol="100" pos="528" len="12" pan="0" key="52"/>
          <note vol="100" pos="540" len="12" pan="0" key="65"/>
          <note vol="100" pos="552" len="12" pan="0" key="73"/>
          <note vol="100" pos="552" len="12" pan="0" key="70"/>
          <note vol="100" pos="552" len="12" pan="0" key="64"/>
          <note vol="100" pos="552" len="12" pan="0" key="52"/>
          <note vol="100" pos="564" len="12" pan="0" key="65"/>
          <note vol="100" pos="576" len="12" pan="0" key="64"/>
          <note vol="100" pos="576" len="12" pan="0" key="62"/>
          <note vol="100" pos="576" len="12" pan="0" key="51"/>
          <note vol="100" pos="588" len="12" pan="0" key="65"/>
          <note vol="100" pos="600" len="12" pan="0" key="73"/>
          <note vol="100" pos="600" len="12" pan="0" key="70"/>
          <note vol="100" pos="612" len="12" pan="0" key="65"/>
          <note vol="100" pos="612" len="12" pan="0" key="51"/>
          <note vol="100" pos="624" len="12" pan="0" key="64"/>
          <note vol="100" pos="624" len="12" pan="0" key="62"/>
          <note vol="100" pos="624" len="12" pan="0" key="52"/>
          <note vol="100" pos="636" len="12" pan="0" key="65"/>
          <note vol="100" pos="648" len="12" pan="0" key="73"/>
          <note vol="100" pos="648" len="12" pan="0" key="70"/>
          <note vol="100" pos="660" len="12" pan="0" key="65"/>
          <note vol="100" pos="660" len="12" pan="0" key="52"/>
          <note vol="100" pos="672" len="12" pan="0" key="64"/>
          <note vol="100" pos="672" len="12" pan="0" key="62"/>
          <note vol="100" pos="672" len="12" pan="0" key="51"/>
          <note vol="100" pos="684" len="12" pan="0" key="73"/>
          <note vol="100" pos="684" len="12" pan="0" key="65"/>
          <note vol="100" pos="696" len="12" pan="0" key="73"/>
          <note vol="100" pos="708" len="12" pan="0" key="73"/>
          <note vol="100" pos="708" len="12" pan="0" key="70"/>
          <note vol="100" pos="708" len="12" pan="0" key="64"/>
          <note vol="100" pos="708" len="12" pan="0" key="51"/>
          <note vol="100" pos="720" len="12" pan="0" key="73"/>
          <note vol="100" pos="720" len="12" pan="0" key="64"/>
          <note vol="100" pos="720" len="12" pan="0" key="62"/>
          <note vol="100" pos="720" len="12" pan="0" key="52"/>
          <note vol="100" pos="732" len="12" pan="0" key="65"/>
          <note vol="100" pos="744" len="12" pan="0" key="73"/>
          <note vol="100" pos="744" len="12" pan="0" key="70"/>
          <note vol="100" pos="744" len="12" pan="0" key="64"/>
          <note vol="100" pos="744" len="12" pan="0" key="52"/>
          <note vol="100" pos="756" len="12" pan="0" key="65"/>
        </pattern>
        <pattern pos="4224" steps="16" muted="0" type="1" name="Jazz Drums 2">
          <note vol="100" pos="0" len="12" pan="0" key="64"/>
          <note vol="100" pos="0" len="12" pan="0" key="62"/>
          <note vol="100" pos="0" len="12" pan="0" key="51"/>
          <note vol="100" pos="12" len="12" pan="0" key="65"/>
          <note vol="100" pos="24" len="12" pan="0" key="73"/>
          <note vol="100" pos="24" len="12" pan="0" key="70"/>
          <note vol="100" pos="36" len="12" pan="0" key="65"/>
          <note vol="100" pos="36" len="12" pan="0" key="51"/>
          <note vol="100" pos="48" len="12" pan="0" key="64"/>
          <note vol="100" pos="48" len="12" pan="0" key="62"/>
          <note vol="100" pos="48" len="12" pan="0" key="52"/>
          <note vol="100" pos="60" len="12" pan="0" key="65"/>
          <note vol="100" pos="72" len="12" pan="0" key="73"/>
          <note vol="100" pos="72" len="12" pan="0" key="70"/>
          <note vol="100" pos="84" len="12" pan="0" key="65"/>
          <note vol="100" pos="84" len="12" pan="0" key="52"/>
          <note vol="100" pos="96" len="12" pan="0" key="64"/>
          <note vol="100" pos="96" len="12" pan="0" key="62"/>
          <note vol="100" pos="96" len="12" pan="0" key="51"/>
          <note vol="100" pos="108" len="12" pan="0" key="73"/>
          <note vol="100" pos="108" len="12" pan="0" key="65"/>
          <note vol="100" pos="120" len="12" pan="0" key="73"/>
          <note vol="100" pos="132" len="12" pan="0" key="73"/>
          <note vol="100" pos="132" len="12" pan="0" key="70"/>
          <note vol="100" pos="132" len="12" pan="0" key="64"/>
          <note vol="100" pos="132" len="12" pan="0" key="51"/>
          <note vol="100" pos="144" len="12" pan="0" key="73"/>
          <note vol="100" pos="144" len="12" pan="0" key="64"/>
          <note vol="100" pos="144" len="12" pan="0" key="62"/>
          <note vol="100" pos="144" len="12" pan="0" key="52"/>
          <note vol="100" pos="156" len="12" pan="0" key="65"/>
          <note vol="100" pos="168" len="12" pan="0" key="73"/>
          <note vol="100" pos="168" len="12" pan="0" key="70"/>
          <note vol="100" pos="168" len="12" pan="0" key="64"/>
          <note vol="100" pos="168" len="12" pan="0" key="52"/>
          <note vol="100" pos="180" len="12" pan="0" key="65"/>
          <note vol="100" pos="192" len="12" pan="0" key="64"/>
          <note vol="100" pos="192" len="12" pan="0" key="62"/>
          <note vol="100" pos="192" len="12" pan="0" key="51"/>
          <note vol="100" pos="204" len="12" pan="0" key="65"/>
          <note vol="100" pos="216" len="12" pan="0" key="73"/>
          <note vol="100" pos="216" len="12" pan="0" key="70"/>
          <note vol="100" pos="228" len="12" pan="0" key="65"/>
          <note vol="100" pos="228" len="12" pan="0" key="51"/>
          <note vol="100" pos="240" len="12" pan="0" key="64"/>
          <note vol="100" pos="240" len="12" pan="0" key="62"/>
          <note vol="100" pos="240" len="12" pan="0" key="52"/>
          <note vol="100" pos="252" len="12" pan="0" key="65"/>
          <note vol="100" pos="264" len="12" pan="0" key="73"/>
          <note vol="100" pos="264" len="12" pan="0" key="70"/>
          <note vol="100" pos="276" len="12" pan="0" key="65"/>
          <note vol="100" pos="276" len="12" pan="0" key="52"/>
          <note vol="100" pos="288" len="12" pan="0" key="64"/>
          <note vol="100" pos="288" len="12" pan="0" key="62"/>
          <note vol="100" pos="288" len="12" pan="0" key="51"/>
          <note vol="100" pos="300" len="12" pan="0" key="73"/>
          <note vol="100" pos="300" len="12" pan="0" key="65"/>
          <note vol="100" pos="312" len="12" pan="0" key="73"/>
          <note vol="100" pos="324" len="12" pan="0" key="73"/>
          <note vol="100" pos="324" len="12" pan="0" key="70"/>
          <note vol="100" pos="324" len="12" pan="0" key="64"/>
          <note vol="100" pos="324" len="12" pan="0" key="51"/>
          <note vol="100" pos="336" len="12" pan="0" key="73"/>
          <note vol="100" pos="336" len="12" pan="0" key="64"/>
          <note vol="100" pos="336" len="12" pan="0" key="62"/>
          <note vol="100" pos="336" len="12" pan="0" key="52"/>
          <note vol="100" pos="348" len="12" pan="0" key="65"/>
          <note vol="100" pos="360" len="12" pan="0" key="73"/>
          <note vol="100" pos="360" len="12" pan="0" key="70"/>
          <note vol="100" pos="360" len="12" pan="0" key="64"/>
          <note vol="100" pos="360" len="12" pan="0" key="52"/>
          <note vol="100" pos="372" len="12" pan="0" key="65"/>
          <note vol="100" pos="384" len="12" pan="0" key="64"/>
          <note vol="100" pos="384" len="12" pan="0" key="62"/>
          <note vol="100" pos="384" len="12" pan="0" key="51"/>
          <note vol="100" pos="396" len="12" pan="0" key="65"/>
          <note vol="100" pos="408" len="12" pan="0" key="73"/>
          <note vol="100" pos="408" len="12" pan="0" key="70"/>
          <note vol="100" pos="420" len="12" pan="0" key="65"/>
          <note vol="100" pos="420" len="12" pan="0" key="51"/>
          <note vol="100" pos="432" len="12" pan="0" key="64"/>
          <note vol="100" pos="432" len="12" pan="0" key="62"/>
          <note vol="100" pos="432" len="12" pan="0" key="52"/>
          <note vol="100" pos="444" len="12" pan="0" key="65"/>
          <note vol="100" pos="456" len="12" pan="0" key="73"/>
          <note vol="100" pos="456" len="12" pan="0" key="70"/>
          <note vol="100" pos="468" len="12" pan="0" key="65"/>
          <note vol="100" pos="468" len="12" pan="0" key="52"/>
          <note vol="100" pos="480" len="12" pan="0" key="64"/>
          <note vol="100" pos="480" len="12" pan="0" key="62"/>
          <note vol="100" pos="480" len="12" pan="0" key="51"/>
          <note vol="100" pos="492" len="12" pan="0" key="73"/>
          <note vol="100" pos="492" len="12" pan="0" key="65"/>
          <note vol="100" pos="504" len="12" pan="0" key="73"/>
          <note vol="100" pos="516" len="12" pan="0" key="73"/>
          <note vol="100" pos="516" len="12" pan="0" key="70"/>
          <note vol="100" pos="516" len="12" pan="0" key="64"/>
          <note vol="100" pos="516" len="12" pan="0" key="51"/>
          <note vol="100" pos="528" len="12" pan="0" key="73"/>
          <note vol="100" pos="528" len="12" pan="0" key="64"/>
          <note vol="100" pos="528" len="12" pan="0" key="62"/>
          <note vol="100" pos="528" len="12" pan="0" key="52"/>
          <note vol="100" pos="540" len="12" pan="0" key="65"/>
          <note vol="100" pos="552" len="12" pan="0" key="73"/>
          <note vol="100" pos="552" len="12" pan="0" key="70"/>
          <note vol="100" pos="552" len="12" pan="0" key="64"/>
          <note vol="100" pos="552" len="12" pan="0" key="52"/>
          <note vol="100" pos="564" len="12" pan="0" key="65"/>
          <note vol="100" pos="576" len="12" pan="0" key="64"/>
          <note vol="100" pos="576" len="12" pan="0" key="62"/>
          <note vol="100" pos="576" len="12" pan="0" key="51"/>
          <note vol="100" pos="588" len="12" pan="0" key="65"/>
          <note vol="100" pos="600" len="12" pan="0" key="73"/>
          <note vol="100" pos="600" len="12" pan="0" key="70"/>
          <note vol="100" pos="612" len="12" pan="0" key="65"/>
          <note vol="100" pos="612" len="12" pan="0" key="51"/>
          <note vol="100" pos="624" len="12" pan="0" key="64"/>
          <note vol="100" pos="624" len="12" pan="0" key="62"/>
          <note vol="100" pos="624" len="12" pan="0" key="52"/>
          <note vol="100" pos="636" len="12" pan="0" key="65"/>
          <note vol="100" pos="648" len="12" pan="0" key="73"/>
          <note vol="100" pos="648" len="12" pan="0" key="70"/>
          <note vol="100" pos="660" len="12" pan="0" key="65"/>
          <note vol="100" pos="660" len="12" pan="0" key="52"/>
          <note vol="100" pos="672" len="12" pan="0" key="64"/>
          <note vol="100" pos="672" len="12" pan="0" key="62"/>
          <note vol="100" pos="672" len="12" pan="0" key="51"/>
          <note vol="100" pos="684" len="12" pan="0" key="73"/>
          <note vol="100" pos="684" len="12" pan="0" key="65"/>
          <note vol="100" pos="696" len="12" pan="0" key="73"/>
          <note vol="100" pos="708" len="12" pan="0" key="73"/>
          <note vol="100" pos="708" len="12" pan="0" key="70"/>
          <note vol="100" pos="708" len="12" pan="0" key="64"/>
          <note vol="100" pos="708" len="12" pan="0" key="51"/>
          <note vol="100" pos="720" len="12" pan="0" key="73"/>
          <note vol="100" pos="720" len="12" pan="0" key="64"/>
          <note vol="100" pos="720" len="12" pan="0" key="62"/>
          <note vol="100" pos="720" len="12" pan="0" key="52"/>
          <note vol="100" pos="732" len="12" pan="0" key="65"/>
          <note vol="100" pos="744" len="12" pan="0" key="73"/>
          <note vol="100" pos="744" len="12" pan="0" key="70"/>
          <note vol="100" pos="744" len="12" pan="0" key="64"/>
          <note vol="100" pos="744" len="12" pan="0" key="52"/>
          <note vol="100" pos="756" len="12" pan="0" key="65"/>
        </pattern>
        <pattern pos="4992" steps="16" muted="0" type="1" name="Jazz Drums 2">
          <note vol="100" pos="0" len="12" pan="0" key="64"/>
          <note vol="100" pos="0" len="12" pan="0" key="62"/>
          <note vol="100" pos="0" len="12" pan="0" key="51"/>
          <note vol="100" pos="12" len="12" pan="0" key="65"/>
          <note vol="100" pos="24" len="12" pan="0" key="73"/>
          <note vol="100" pos="24" len="12" pan="0" key="70"/>
          <note vol="100" pos="36" len="12" pan="0" key="65"/>
          <note vol="100" pos="36" len="12" pan="0" key="51"/>
          <note vol="100" pos="48" len="12" pan="0" key="64"/>
          <note vol="100" pos="48" len="12" pan="0" key="62"/>
          <note vol="100" pos="48" len="12" pan="0" key="52"/>
          <note vol="100" pos="60" len="12" pan="0" key="65"/>
          <note vol="100" pos="72" len="12" pan="0" key="73"/>
          <note vol="100" pos="72" len="12" pan="0" key="70"/>
          <note vol="100" pos="84" len="12" pan="0" key="65"/>
          <note vol="100" pos="84" len="12" pan="0" key="52"/>
          <note vol="100" pos="96" len="12" pan="0" key="64"/>
          <note vol="100" pos="96" len="12" pan="0" key="62"/>
          <note vol="100" pos="96" len="12" pan="0" key="51"/>
          <note vol="100" pos="108" len="12" pan="0" key="73"/>
          <note vol="100" pos="108" len="12" pan="0" key="65"/>
          <note vol="100" pos="120" len="12" pan="0" key="73"/>
          <note vol="100" pos="132" len="12" pan="0" key="73"/>
          <note vol="100" pos="132" len="12" pan="0" key="70"/>
          <note vol="100" pos="132" len="12" pan="0" key="64"/>
          <note vol="100" pos="132" len="12" pan="0" key="51"/>
          <note vol="100" pos="144" len="12" pan="0" key="73"/>
          <note vol="100" pos="144" len="12" pan="0" key="64"/>
          <note vol="100" pos="144" len="12" pan="0" key="62"/>
          <note vol="100" pos="144" len="12" pan="0" key="52"/>
          <note vol="100" pos="156" len="12" pan="0" key="65"/>
          <note vol="100" pos="168" len="12" pan="0" key="73"/>
          <note vol="100" pos="168" len="12" pan="0" key="70"/>
          <note vol="100" pos="168" len="12" pan="0" key="64"/>
          <note vol="100" pos="168" len="12" pan="0" key="52"/>
          <note vol="100" pos="180" len="12" pan="0" key="65"/>
          <note vol="100" pos="192" len="12" pan="0" key="64"/>
          <note vol="100" pos="192" len="12" pan="0" key="62"/>
          <note vol="100" pos="192" len="12" pan="0" key="51"/>
          <note vol="100" pos="204" len="12" pan="0" key="65"/>
          <note vol="100" pos="216" len="12" pan="0" key="73"/>
          <note vol="100" pos="216" len="12" pan="0" key="70"/>
          <note vol="100" pos="228" len="12" pan="0" key="65"/>
          <note vol="100" pos="228" len="12" pan="0" key="51"/>
          <note vol="100" pos="240" len="12" pan="0" key="64"/>
          <note vol="100" pos="240" len="12" pan="0" key="62"/>
          <note vol="100" pos="240" len="12" pan="0" key="52"/>
          <note vol="100" pos="252" len="12" pan="0" key="65"/>
          <note vol="100" pos="264" len="12" pan="0" key="73"/>
          <note vol="100" pos="264" len="12" pan="0" key="70"/>
          <note vol="100" pos="276" len="12" pan="0" key="65"/>
          <note vol="100" pos="276" len="12" pan="0" key="52"/>
          <note vol="100" pos="288" len="12" pan="0" key="64"/>
          <note vol="100" pos="288" len="12" pan="0" key="62"/>
          <note vol="100" pos="288" len="12" pan="0" key="51"/>
          <note vol="100" pos="300" len="12" pan="0" key="73"/>
          <note vol="100" pos="300" len="12" pan="0" key="65"/>
          <note vol="100" pos="312" len="12" pan="0" key="73"/>
          <note vol="100" pos="324" len="12" pan="0" key="73"/>
          <note vol="100" pos="324" len="12" pan="0" key="70"/>
          <note vol="100" pos="324" len="12" pan="0" key="64"/>
          <note vol="100" pos="324" len="12" pan="0" key="51"/>
          <note vol="100" pos="336" len="12" pan="0" key="73"/>
          <note vol="100" pos="336" len="12" pan="0" key="64"/>
          <note vol="100" pos="336" len="12" pan="0" key="62"/>
          <note vol="100" pos="336" len="12" pan="0" key="52"/>
          <note vol="100" pos="348" len="12" pan="0" key="65"/>
          <note vol="100" pos="360" len="12" pan="0" key="73"/>
          <note vol="100" pos="360" len="12" pan="0" key="70"/>
          <note vol="100" pos="360" len="12" pan="0" key="64"/>
          <note vol="100" pos="360" len="12" pan="0" key="52"/>
          <note vol="100" pos="372" len="12" pan="0" key="65"/>
          <note vol="100" pos="384" len="12" pan="0" key="64"/>
          <note vol="100" pos="384" len="12" pan="0" key="62"/>
          <note vol="100" pos="384" len="12" pan="0" key="51"/>
          <note vol="100" pos="396" len="12" pan="0" key="65"/>
          <note vol="100" pos="408" len="12" pan="0" key="73"/>
          <note vol="100" pos="408" len="12" pan="0" key="70"/>
          <note vol="100" pos="420" len="12" pan="0" key="65"/>
          <note vol="100" pos="420" len="12" pan="0" key="51"/>
          <note vol="100" pos="432" len="12" pan="0" key="64"/>
          <note vol="100" pos="432" len="12" pan="0" key="62"/>
          <note vol="100" pos="432" len="12" pan="0" key="52"/>
          <note vol="100" pos="444" len="12" pan="0" key="65"/>
          <note vol="100" pos="456" len="12" pan="0" key="73"/>
          <note vol="100" pos="456" len="12" pan="0" key="70"/>
          <note vol="100" pos="468" len="12" pan="0" key="65"/>
          <note vol="100" pos="468" len="12" pan="0" key="52"/>
          <note vol="100" pos="480" len="12" pan="0" key="64"/>
          <note vol="100" pos="480" len="12" pan="0" key="62"/>
          <note vol="100" pos="480" len="12" pan="0" key="51"/>
          <note vol="100" pos="492" len="12" pan="0" key="73"/>
          <note vol="100" pos="492" len="12" pan="0" key="65"/>
          <note vol="100" pos="504" len="12" pan="0" key="73"/>
          <note vol="100" pos="516" len="12" pan="0" key="73"/>
          <note vol="100" pos="516" len="12" pan="0" key="70"/>
          <note vol="100" pos="516" len="12" pan="0" key="64"/>
          <note vol="100" pos="516" len="12" pan="0" key="51"/>
          <note vol="100" pos="528" len="12" pan="0" key="73"/>
          <note vol="100" pos="528" len="12" pan="0" key="64"/>
          <note vol="100" pos="528" len="12" pan="0" key="62"/>
          <note vol="100" pos="528" len="12" pan="0" key="52"/>
          <note vol="100" pos="540" len="12" pan="0" key="65"/>
          <note vol="100" pos="552" len="12" pan="0" key="73"/>
          <note vol="100" pos="552" len="12" pan="0" key="70"/>
          <note vol="100" pos="552" len="12" pan="0" key="64"/>
          <note vol="100" pos="552" len="12" pan="0" key="52"/>
          <note vol="100" pos="564" len="12" pan="0" key="65"/>
          <note vol="100" pos="576" len="12" pan="0" key="64"/>
          <note vol="100" pos="576" len="12" pan="0" key="62"/>
          <note vol="100" pos="576" len="12" pan="0" key="51"/>
          <note vol="100" pos="588" len="12" pan="0" key="65"/>
          <note vol="100" pos="600" len="12" pan="0" key="73"/>
          <note vol="100" pos="600" len="12" pan="0" key="70"/>
          <note vol="100" pos="612" len="12" pan="0" key="65"/>
          <note vol="100" pos="612" len="12" pan="0" key="51"/>
          <note vol="100" pos="624" len="12" pan="0" key="64"/>
          <note vol="100" pos="624" len="12" pan="0" key="62"/>
          <note vol="100" pos="624" len="12" pan="0" key="52"/>
          <note vol="100" pos="636" len="12" pan="0" key="65"/>
          <note vol="100" pos="648" len="12" pan="0" key="73"/>
          <note vol="100" pos="648" len="12" pan="0" key="70"/>
          <note vol="100" pos="660" len="12" pan="0" key="65"/>
          <note vol="100" pos="660" len="12" pan="0" key="52"/>
          <note vol="100" pos="672" len="12" pan="0" key="64"/>
          <note vol="100" pos="672" len="12" pan="0" key="62"/>
          <note vol="100" pos="672" len="12" pan="0" key="51"/>
          <note vol="100" pos="684" len="12" pan="0" key="73"/>
          <note vol="100" pos="684" len="12" pan="0" key="65"/>
          <note vol="100" pos="696" len="12" pan="0" key="73"/>
          <note vol="100" pos="708" len="12" pan="0" key="73"/>
          <note vol="100" pos="708" len="12" pan="0" key="70"/>
          <note vol="100" pos="708" len="12" pan="0" key="64"/>
          <note vol="100" pos="708" len="12" pan="0" key="51"/>
          <note vol="100" pos="720" len="12" pan="0" key="73"/>
          <note vol="100" pos="720" len="12" pan="0" key="64"/>
          <note vol="100" pos="720" len="12" pan="0" key="62"/>
          <note vol="100" pos="720" len="12" pan="0" key="52"/>
          <note vol="100" pos="732" len="12" pan="0" key="65"/>
          <note vol="100" pos="744" len="12" pan="0" key="73"/>
          <note vol="100" pos="744" len="12" pan="0" key="70"/>
          <note vol="100" pos="744" len="12" pan="0" key="64"/>
          <note vol="100" pos="744" len="12" pan="0" key="52"/>
          <note vol="100" pos="756" len="12" pan="0" key="65"/>
        </pattern>
        <pattern pos="5760" steps="16" muted="0" type="1" name="Jazz Drums 2">
          <note vol="100" pos="0" len="12" pan="0" key="64"/>
          <note vol="100" pos="0" len="12" pan="0" key="62"/>
          <note vol="100" pos="0" len="12" pan="0" key="51"/>
          <note vol="100" pos="12" len="12" pan="0" key="65"/>
          <note vol="100" pos="24" len="12" pan="0" key="73"/>
          <note vol="100" pos="24" len="12" pan="0" key="70"/>
          <note vol="100" pos="36" len="12" pan="0" key="65"/>
          <note vol="100" pos="36" len="12" pan="0" key="51"/>
          <note vol="100" pos="48" len="12" pan="0" key="64"/>
          <note vol="100" pos="48" len="12" pan="0" key="62"/>
          <note vol="100" pos="48" len="12" pan="0" key="52"/>
          <note vol="100" pos="60" len="12" pan="0" key="65"/>
          <note vol="100" pos="72" len="12" pan="0" key="73"/>
          <note vol="100" pos="72" len="12" pan="0" key="70"/>
          <note vol="100" pos="84" len="12" pan="0" key="65"/>
          <note vol="100" pos="84" len="12" pan="0" key="52"/>
          <note vol="100" pos="96" len="12" pan="0" key="64"/>
          <note vol="100" pos="96" len="12" pan="0" key="62"/>
          <note vol="100" pos="96" len="12" pan="0" key="51"/>
          <note vol="100" pos="108" len="12" pan="0" key="73"/>
          <note vol="100" pos="108" len="12" pan="0" key="65"/>
          <note vol="100" pos="120" len="12" pan="0" key="73"/>
          <note vol="100" pos="132" len="12" pan="0" key="73"/>
          <note vol="100" pos="132" len="12" pan="0" key="70"/>
          <note vol="100" pos="132" len="12" pan="0" key="64"/>
          <note vol="100" pos="132" len="12" pan="0" key="51"/>
          <note vol="100" pos="144" len="12" pan="0" key="73"/>
          <note vol="100" pos="144" len="12" pan="0" key="64"/>
          <note vol="100" pos="144" len="12" pan="0" key="62"/>
          <note vol="100" pos="144" len="12" pan="0" key="52"/>
          <note vol="100" pos="156" len="12" pan="0" key="65"/>
          <note vol="100" pos="168" len="12" pan="0" key="73"/>
          <note vol="100" pos="168" len="12" pan="0" key="70"/>
          <note vol="100" pos="168" len="12" pan="0" key="64"/>
          <note vol="100" pos="168" len="12" pan="0" key="52"/>
          <note vol="100" pos="180" len="12" pan="0" key="65"/>
          <note vol="100" pos="192" len="12" pan="0" key="64"/>
          <note vol="100" pos="192" len="12" pan="0" key="62"/>
          <note vol="100" pos="192" len="12" pan="0" key="51"/>
          <note vol="100" pos="204" len="12" pan="0" key="65"/>
          <note vol="100" pos="216" len="12" pan="0" key="73"/>
          <note vol="100" pos="216" len="12" pan="0" key="70"/>
          <note vol="100" pos="228" len="12" pan="0" key="65"/>
          <note vol="100" pos="228" len="12" pan="0" key="51"/>
          <note vol="100" pos="240" len="12" pan="0" key="64"/>
          <note vol="100" pos="240" len="12" pan="0" key="62"/>
          <note vol="100" pos="240" len="12" pan="0" key="52"/>
          <note vol="100" pos="252" len="12" pan="0" key="65"/>
          <note vol="100" pos="264" len="12" pan="0" key="73"/>
          <note vol="100" pos="264" len="12" pan="0" key="70"/>
          <note vol="100" pos="276" len="12" pan="0" key="65"/>
          <note vol="100" pos="276" len="12" pan="0" key="52"/>
          <note vol="100" pos="288" len="12" pan="0" key="64"/>
          <note vol="100" pos="288" len="12" pan="0" key="62"/>
          <note vol="100" pos="288" len="12" pan="0" key="51"/>
          <note vol="100" pos="300" len="12" pan="0" key="73"/>
          <note vol="100" pos="300" len="12" pan="0" key="65"/>
          <note vol="100" pos="312" len="12" pan="0" key="73"/>
          <note vol="100" pos="324" len="12" pan="0" key="73"/>
          <note vol="100" pos="324" len="12" pan="0" key="70"/>
          <note vol="100" pos="324" len="12" pan="0" key="64"/>
          <note vol="100" pos="324" len="12" pan="0" key="51"/>
          <note vol="100" pos="336" len="12" pan="0" key="73"/>
          <note vol="100" pos="336" len="12" pan="0" key="64"/>
          <note vol="100" pos="336" len="12" pan="0" key="62"/>
          <note vol="100" pos="336" len="12" pan="0" key="52"/>
          <note vol="100" pos="348" len="12" pan="0" key="65"/>
          <note vol="100" pos="360" len="12" pan="0" key="73"/>
          <note vol="100" pos="360" len="12" pan="0" key="70"/>
          <note vol="100" pos="360" len="12" pan="0" key="64"/>
          <note vol="100" pos="360" len="12" pan="0" key="52"/>
          <note vol="100" pos="372" len="12" pan="0" key="65"/>
          <note vol="100" pos="384" len="12" pan="0" key="64"/>
          <note vol="100" pos="384" len="12" pan="0" key="62"/>
          <note vol="100" pos="384" len="12" pan="0" key="51"/>
          <note vol="100" pos="396" len="12" pan="0" key="65"/>
          <note vol="100" pos="408" len="12" pan="0" key="73"/>
          <note vol="100" pos="408" len="12" pan="0" key="70"/>
          <note vol="100" pos="420" len="12" pan="0" key="65"/>
          <note vol="100" pos="420" len="12" pan="0" key="51"/>
          <note vol="100" pos="432" len="12" pan="0" key="64"/>
          <note vol="100" pos="432" len="12" pan="0" key="62"/>
          <note vol="100" pos="432" len="12" pan="0" key="52"/>
          <note vol="100" pos="444" len="12" pan="0" key="65"/>
          <note vol="100" pos="456" len="12" pan="0" key="73"/>
          <note vol="100" pos="456" len="12" pan="0" key="70"/>
          <note vol="100" pos="468" len="12" pan="0" key="65"/>
          <note vol="100" pos="468" len="12" pan="0" key="52"/>
          <note vol="100" pos="480" len="12" pan="0" key="64"/>
          <note vol="100" pos="480" len="12" pan="0" key="62"/>
          <note vol="100" pos="480" len="12" pan="0" key="51"/>
          <note vol="100" pos="492" len="12" pan="0" key="73"/>
          <note vol="100" pos="492" len="12" pan="0" key="65"/>
          <note vol="100" pos="504" len="12" pan="0" key="73"/>
          <note vol="100" pos="516" len="12" pan="0" key="73"/>
          <note vol="100" pos="516" len="12" pan="0" key="70"/>
          <note vol="100" pos="516" len="12" pan="0" key="64"/>
          <note vol="100" pos="516" len="12" pan="0" key="51"/>
          <note vol="100" pos="528" len="12" pan="0" key="73"/>
          <note vol="100" pos="528" len="12" pan="0" key="64"/>
          <note vol="100" pos="528" len="12" pan="0" key="62"/>
          <note vol="100" pos="528" len="12" pan="0" key="52"/>
          <note vol="100" pos="540" len="12" pan="0" key="65"/>
          <note vol="100" pos="552" len="12" pan="0" key="73"/>
          <note vol="100" pos="552" len="12" pan="0" key="70"/>
          <note vol="100" pos="552" len="12" pan="0" key="64"/>
          <note vol="100" pos="552" len="12" pan="0" key="52"/>
          <note vol="100" pos="564" len="12" pan="0" key="65"/>
          <note vol="100" pos="576" len="12" pan="0" key="64"/>
          <note vol="100" pos="576" len="12" pan="0" key="62"/>
          <note vol="100" pos="576" len="12" pan="0" key="51"/>
          <note vol="100" pos="588" len="12" pan="0" key="65"/>
          <note vol="100" pos="600" len="12" pan="0" key="73"/>
          <note vol="100" pos="600" len="12" pan="0" key="70"/>
          <note vol="100" pos="612" len="12" pan="0" key="65"/>
          <note vol="100" pos="612" len="12" pan="0" key="51"/>
          <note vol="100" pos="624" len="12" pan="0" key="64"/>
          <note vol="100" pos="624" len="12" pan="0" key="62"/>
          <note vol="100" pos="624" len="12" pan="0" key="52"/>
          <note vol="100" pos="636" len="12" pan="0" key="65"/>
          <note vol="100" pos="648" len="12" pan="0" key="73"/>
          <note vol="100" pos="648" len="12" pan="0" key="70"/>
          <note vol="100" pos="660" len="12" pan="0" key="65"/>
          <note vol="100" pos="660" len="12" pan="0" key="52"/>
          <note vol="100" pos="672" len="12" pan="0" key="64"/>
          <note vol="100" pos="672" len="12" pan="0" key="62"/>
          <note vol="100" pos="672" len="12" pan="0" key="51"/>
          <note vol="100" pos="684" len="12" pan="0" key="73"/>
          <note vol="100" pos="684" len="12" pan="0" key="65"/>
          <note vol="100" pos="696" len="12" pan="0" key="73"/>
          <note vol="100" pos="708" len="12" pan="0" key="73"/>
          <note vol="100" pos="708" len="12" pan="0" key="70"/>
          <note vol="100" pos="708" len="12" pan="0" key="64"/>
          <note vol="100" pos="708" len="12" pan="0" key="51"/>
          <note vol="100" pos="720" len="12" pan="0" key="73"/>
          <note vol="100" pos="720" len="12" pan="0" key="64"/>
          <note vol="100" pos="720" len="12" pan="0" key="62"/>
          <note vol="100" pos="720" len="12" pan="0" key="52"/>
          <note vol="100" pos="732" len="12" pan="0" key="65"/>
          <note vol="100" pos="744" len="12" pan="0" key="73"/>
          <note vol="100" pos="744" len="12" pan="0" key="70"/>
          <note vol="100" pos="744" len="12" pan="0" key="64"/>
          <note vol="100" pos="744" len="12" pan="0" key="52"/>
          <note vol="100" pos="756" len="12" pan="0" key="65"/>
        </pattern>
        <pattern pos="6528" steps="16" muted="0" type="1" name="Jazz Drums 2">
          <note vol="100" pos="0" len="12" pan="0" key="64"/>
          <note vol="100" pos="0" len="12" pan="0" key="62"/>
          <note vol="100" pos="0" len="12" pan="0" key="51"/>
          <note vol="100" pos="12" len="12" pan="0" key="65"/>
          <note vol="100" pos="24" len="12" pan="0" key="73"/>
          <note vol="100" pos="24" len="12" pan="0" key="70"/>
          <note vol="100" pos="36" len="12" pan="0" key="65"/>
          <note vol="100" pos="36" len="12" pan="0" key="51"/>
          <note vol="100" pos="48" len="12" pan="0" key="64"/>
          <note vol="100" pos="48" len="12" pan="0" key="62"/>
          <note vol="100" pos="48" len="12" pan="0" key="52"/>
          <note vol="100" pos="60" len="12" pan="0" key="65"/>
          <note vol="100" pos="72" len="12" pan="0" key="73"/>
          <note vol="100" pos="72" len="12" pan="0" key="70"/>
          <note vol="100" pos="84" len="12" pan="0" key="65"/>
          <note vol="100" pos="84" len="12" pan="0" key="52"/>
          <note vol="100" pos="96" len="12" pan="0" key="64"/>
          <note vol="100" pos="96" len="12" pan="0" key="62"/>
          <note vol="100" pos="96" len="12" pan="0" key="51"/>
          <note vol="100" pos="108" len="12" pan="0" key="73"/>
          <note vol="100" pos="108" len="12" pan="0" key="65"/>
          <note vol="100" pos="120" len="12" pan="0" key="73"/>
          <note vol="100" pos="132" len="12" pan="0" key="73"/>
          <note vol="100" pos="132" len="12" pan="0" key="70"/>
          <note vol="100" pos="132" len="12" pan="0" key="64"/>
          <note vol="100" pos="132" len="12" pan="0" key="51"/>
          <note vol="100" pos="144" len="12" pan="0" key="73"/>
          <note vol="100" pos="144" len="12" pan="0" key="64"/>
          <note vol="100" pos="144" len="12" pan="0" key="62"/>
          <note vol="100" pos="144" len="12" pan="0" key="52"/>
          <note vol="100" pos="156" len="12" pan="0" key="65"/>
          <note vol="100" pos="168" len="12" pan="0" key="73"/>
          <note vol="100" pos="168" len="12" pan="0" key="70"/>
          <note vol="100" pos="168" len="12" pan="0" key="64"/>
          <note vol="100" pos="168" len="12" pan="0" key="52"/>
          <note vol="100" pos="180" len="12" pan="0" key="65"/>
          <note vol="100" pos="192" len="12" pan="0" key="64"/>
          <note vol="100" pos="192" len="12" pan="0" key="62"/>
          <note vol="100" pos="192" len="12" pan="0" key="51"/>
          <note vol="100" pos="204" len="12" pan="0" key="65"/>
          <note vol="100" pos="216" len="12" pan="0" key="73"/>
          <note vol="100" pos="216" len="12" pan="0" key="70"/>
          <note vol="100" pos="228" len="12" pan="0" key="65"/>
          <note vol="100" pos="228" len="12" pan="0" key="51"/>
          <note vol="100" pos="240" len="12" pan="0" key="64"/>
          <note vol="100" pos="240" len="12" pan="0" key="62"/>
          <note vol="100" pos="240" len="12" pan="0" key="52"/>
          <note vol="100" pos="252" len="12" pan="0" key="65"/>
          <note vol="100" pos="264" len="12" pan="0" key="73"/>
          <note vol="100" pos="264" len="12" pan="0" key="70"/>
          <note vol="100" pos="276" len="12" pan="0" key="65"/>
          <note vol="100" pos="276" len="12" pan="0" key="52"/>
          <note vol="100" pos="288" len="12" pan="0" key="64"/>
          <note vol="100" pos="288" len="12" pan="0" key="62"/>
          <note vol="100" pos="288" len="12" pan="0" key="51"/>
          <note vol="100" pos="300" len="12" pan="0" key="73"/>
          <note vol="100" pos="300" len="12" pan="0" key="65"/>
          <note vol="100" pos="312" len="12" pan="0" key="73"/>
          <note vol="100" pos="324" len="12" pan="0" key="73"/>
          <note vol="100" pos="324" len="12" pan="0" key="70"/>
          <note vol="100" pos="324" len="12" pan="0" key="64"/>
          <note vol="100" pos="324" len="12" pan="0" key="51"/>
          <note vol="100" pos="336" len="12" pan="0" key="73"/>
          <note vol="100" pos="336" len="12" pan="0" key="64"/>
          <note vol="100" pos="336" len="12" pan="0" key="62"/>
          <note vol="100" pos="336" len="12" pan="0" key="52"/>
          <note vol="100" pos="348" len="12" pan="0" key="65"/>
          <note vol="100" pos="360" len="12" pan="0" key="73"/>
          <note vol="100" pos="360" len="12" pan="0" key="70"/>
          <note vol="100" pos="360" len="12" pan="0" key="64"/>
          <note vol="100" pos="360" len="12" pan="0" key="52"/>
          <note vol="100" pos="372" len="12" pan="0" key="65"/>
          <note vol="100" pos="384" len="12" pan="0" key="64"/>
          <note vol="100" pos="384" len="12" pan="0" key="62"/>
          <note vol="100" pos="384" len="12" pan="0" key="51"/>
          <note vol="100" pos="396" len="12" pan="0" key="65"/>
          <note vol="100" pos="408" len="12" pan="0" key="73"/>
          <note vol="100" pos="408" len="12" pan="0" key="70"/>
          <note vol="100" pos="420" len="12" pan="0" key="65"/>
          <note vol="100" pos="420" len="12" pan="0" key="51"/>
          <note vol="100" pos="432" len="12" pan="0" key="64"/>
          <note vol="100" pos="432" len="12" pan="0" key="62"/>
          <note vol="100" pos="432" len="12" pan="0" key="52"/>
          <note vol="100" pos="444" len="12" pan="0" key="65"/>
          <note vol="100" pos="456" len="12" pan="0" key="73"/>
          <note vol="100" pos="456" len="12" pan="0" key="70"/>
          <note vol="100" pos="468" len="12" pan="0" key="65"/>
          <note vol="100" pos="468" len="12" pan="0" key="52"/>
          <note vol="100" pos="480" len="12" pan="0" key="64"/>
          <note vol="100" pos="480" len="12" pan="0" key="62"/>
          <note vol="100" pos="480" len="12" pan="0" key="51"/>
          <note vol="100" pos="492" len="12" pan="0" key="73"/>
          <note vol="100" pos="492" len="12" pan="0" key="65"/>
          <note vol="100" pos="504" len="12" pan="0" key="73"/>
          <note vol="100" pos="516" len="12" pan="0" key="73"/>
          <note vol="100" pos="516" len="12" pan="0" key="70"/>
          <note vol="100" pos="516" len="12" pan="0" key="64"/>
          <note vol="100" pos="516" len="12" pan="0" key="51"/>
          <note vol="100" pos="528" len="12" pan="0" key="73"/>
          <note vol="100" pos="528" len="12" pan="0" key="64"/>
          <note vol="100" pos="528" len="12" pan="0" key="62"/>
          <note vol="100" pos="528" len="12" pan="0" key="52"/>
          <note vol="100" pos="540" len="12" pan="0" key="65"/>
          <note vol="100" pos="552" len="12" pan="0" key="73"/>
          <note vol="100" pos="552" len="12" pan="0" key="70"/>
          <note vol="100" pos="552" len="12" pan="0" key="64"/>
          <note vol="100" pos="552" len="12" pan="0" key="52"/>
          <note vol="100" pos="564" len="12" pan="0" key="65"/>
          <note vol="100" pos="576" len="12" pan="0" key="64"/>
          <note vol="100" pos="576" len="12" pan="0" key="62"/>
          <note vol="100" pos="576" len="12" pan="0" key="51"/>
          <note vol="100" pos="588" len="12" pan="0" key="65"/>
          <note vol="100" pos="600" len="12" pan="0" key="73"/>
          <note vol="100" pos="600" len="12" pan="0" key="70"/>
          <note vol="100" pos="612" len="12" pan="0" key="65"/>
          <note vol="100" pos="612" len="12" pan="0" key="51"/>
          <note vol="100" pos="624" len="12" pan="0" key="64"/>
          <note vol="100" pos="624" len="12" pan="0" key="62"/>
          <note vol="100" pos="624" len="12" pan="0" key="52"/>
          <note vol="100" pos="636" len="12" pan="0" key="65"/>
          <note vol="100" pos="648" len="12" pan="0" key="73"/>
          <note vol="100" pos="648" len="12" pan="0" key="70"/>
          <note vol="100" pos="660" len="12" pan="0" key="65"/>
          <note vol="100" pos="660" len="12" pan="0" key="52"/>
          <note vol="100" pos="672" len="12" pan="0" key="64"/>
          <note vol="100" pos="672" len="12" pan="0" key="62"/>
          <note vol="100" pos="672" len="12" pan="0" key="51"/>
          <note vol="100" pos="684" len="12" pan="0" key="73"/>
          <note vol="100" pos="684" len="12" pan="0" key="65"/>
          <note vol="100" pos="696" len="12" pan="0" key="73"/>
          <note vol="100" pos="708" len="12" pan="0" key="73"/>
          <note vol="100" pos="708" len="12" pan="0" key="70"/>
          <note vol="100" pos="708" len="12" pan="0" key="64"/>
          <note vol="100" pos="708" len="12" pan="0" key="51"/>
          <note vol="100" pos="720" len="12" pan="0" key="73"/>
          <note vol="100" pos="720" len="12" pan="0" key="64"/>
          <note vol="100" pos="720" len="12" pan="0" key="62"/>
          <note vol="100" pos="720" len="12" pan="0" key="52"/>
          <note vol="100" pos="732" len="12" pan="0" key="65"/>
          <note vol="100" pos="744" len="12" pan="0" key="73"/>
          <note vol="100" pos="744" len="12" pan="0" key="70"/>
          <note vol="100" pos="744" len="12" pan="0" key="64"/>
          <note vol="100" pos="744" len="12" pan="0" key="52"/>
          <note vol="100" pos="756" len="12" pan="0" key="65"/>
        </pattern>
        <pattern pos="7296" steps="16" muted="0" type="1" name="Jazz Drums 2">
          <note vol="100" pos="0" len="12" pan="0" key="64"/>
          <note vol="100" pos="0" len="12" pan="0" key="62"/>
          <note vol="100" pos="0" len="12" pan="0" key="51"/>
          <note vol="100" pos="12" len="12" pan="0" key="65"/>
          <note vol="100" pos="24" len="12" pan="0" key="73"/>
          <note vol="100" pos="24" len="12" pan="0" key="70"/>
          <note vol="100" pos="36" len="12" pan="0" key="65"/>
          <note vol="100" pos="36" len="12" pan="0" key="51"/>
          <note vol="100" pos="48" len="12" pan="0" key="64"/>
          <note vol="100" pos="48" len="12" pan="0" key="62"/>
          <note vol="100" pos="48" len="12" pan="0" key="52"/>
          <note vol="100" pos="60" len="12" pan="0" key="65"/>
          <note vol="100" pos="72" len="12" pan="0" key="73"/>
          <note vol="100" pos="72" len="12" pan="0" key="70"/>
          <note vol="100" pos="84" len="12" pan="0" key="65"/>
          <note vol="100" pos="84" len="12" pan="0" key="52"/>
          <note vol="100" pos="96" len="12" pan="0" key="64"/>
          <note vol="100" pos="96" len="12" pan="0" key="62"/>
          <note vol="100" pos="96" len="12" pan="0" key="51"/>
          <note vol="100" pos="108" len="12" pan="0" key="73"/>
          <note vol="100" pos="108" len="12" pan="0" key="65"/>
          <note vol="100" pos="120" len="12" pan="0" key="73"/>
          <note vol="100" pos="132" len="12" pan="0" key="73"/>
          <note vol="100" pos="132" len="12" pan="0" key="70"/>
          <note vol="100" pos="132" len="12" pan="0" key="64"/>
          <note vol="100" pos="132" len="12" pan="0" key="51"/>
          <note vol="100" pos="144" len="12" pan="0" key="73"/>
          <note vol="100" pos="144" len="12" pan="0" key="64"/>
          <note vol="100" pos="144" len="12" pan="0" key="62"/>
          <note vol="100" pos="144" len="12" pan="0" key="52"/>
          <note vol="100" pos="156" len="12" pan="0" key="65"/>
          <note vol="100" pos="168" len="12" pan="0" key="73"/>
          <note vol="100" pos="168" len="12" pan="0" key="70"/>
          <note vol="100" pos="168" len="12" pan="0" key="64"/>
          <note vol="100" pos="168" len="12" pan="0" key="52"/>
          <note vol="100" pos="180" len="12" pan="0" key="65"/>
          <note vol="100" pos="192" len="12" pan="0" key="64"/>
          <note vol="100" pos="192" len="12" pan="0" key="62"/>
          <note vol="100" pos="192" len="12" pan="0" key="51"/>
          <note vol="100" pos="204" len="12" pan="0" key="65"/>
          <note vol="100" pos="216" len="12" pan="0" key="73"/>
          <note vol="100" pos="216" len="12" pan="0" key="70"/>
          <note vol="100" pos="228" len="12" pan="0" key="65"/>
          <note vol="100" pos="228" len="12" pan="0" key="51"/>
          <note vol="100" pos="240" len="12" pan="0" key="64"/>
          <note vol="100" pos="240" len="12" pan="0" key="62"/>
          <note vol="100" pos="240" len="12" pan="0" key="52"/>
          <note vol="100" pos="252" len="12" pan="0" key="65"/>
          <note vol="100" pos="264" len="12" pan="0" key="73"/>
          <note vol="100" pos="264" len="12" pan="0" key="70"/>
          <note vol="100" pos="276" len="12" pan="0" key="65"/>
          <note vol="100" pos="276" len="12" pan="0" key="52"/>
          <note vol="100" pos="288" len="12" pan="0" key="64"/>
          <note vol="100" pos="288" len="12" pan="0" key="62"/>
          <note vol="100" pos="288" len="12" pan="0" key="51"/>
          <note vol="100" pos="300" len="12" pan="0" key="73"/>
          <note vol="100" pos="300" len="12" pan="0" key="65"/>
          <note vol="100" pos="312" len="12" pan="0" key="73"/>
          <note vol="100" pos="324" len="12" pan="0" key="73"/>
          <note vol="100" pos="324" len="12" pan="0" key="70"/>
          <note vol="100" pos="324" len="12" pan="0" key="64"/>
          <note vol="100" pos="324" len="12" pan="0" key="51"/>
          <note vol="100" pos="336" len="12" pan="0" key="73"/>
          <note vol="100" pos="336" len="12" pan="0" key="64"/>
          <note vol="100" pos="336" len="12" pan="0" key="62"/>
          <note vol="100" pos="336" len="12" pan="0" key="52"/>
          <note vol="100" pos="348" len="12" pan="0" key="65"/>
          <note vol="100" pos="360" len="12" pan="0" key="73"/>
          <note vol="100" pos="360" len="12" pan="0" key="70"/>
          <note vol="100" pos="360" len="12" pan="0" key="64"/>
          <note vol="100" pos="360" len="12" pan="0" key="52"/>
          <note vol="100" pos="372" len="12" pan="0" key="65"/>
          <note vol="100" pos="384" len="12" pan="0" key="64"/>
          <note vol="100" pos="384" len="12" pan="0" key="62"/>
          <note vol="100" pos="384" len="12" pan="0" key="51"/>
          <note vol="100" pos="396" len="12" pan="0" key="65"/>
          <note vol="100" pos="408" len="12" pan="0" key="73"/>
          <note vol="100" pos="408" len="12" pan="0" key="70"/>
          <note vol="100" pos="420" len="12" pan="0" key="65"/>
          <note vol="100" pos="420" len="12" pan="0" key="51"/>
          <note vol="100" pos="432" len="12" pan="0" key="64"/>
          <note vol="100" pos="432" len="12" pan="0" key="62"/>
          <note vol="100" pos="432" len="12" pan="0" key="52"/>
          <note vol="100" pos="444" len="12" pan="0" key="65"/>
          <note vol="100" pos="456" len="12" pan="0" key="73"/>
          <note vol="100" pos="456" len="12" pan="0" key="70"/>
          <note vol="100" pos="468" len="12" pan="0" key="65"/>
          <note vol="100" pos="468" len="12" pan="0" key="52"/>
          <note vol="100" pos="480" len="12" pan="0" key="64"/>
          <note vol="100" pos="480" len="12" pan="0" key="62"/>
          <note vol="100" pos="480" len="12" pan="0" key="51"/>
          <note vol="100" pos="492" len="12" pan="0" key="73"/>
          <note vol="100" pos="492" len="12" pan="0" key="65"/>
          <note vol="100" pos="504" len="12" pan="0" key="73"/>
          <note vol="100" pos="516" len="12" pan="0" key="73"/>
          <note vol="100" pos="516" len="12" pan="0" key="70"/>
          <note vol="100" pos="516" len="12" pan="0" key="64"/>
          <note vol="100" pos="516" len="12" pan="0" key="51"/>
          <note vol="100" pos="528" len="12" pan="0" key="73"/>
          <note vol="100" pos="528" len="12" pan="0" key="64"/>
          <note vol="100" pos="528" len="12" pan="0" key="62"/>
          <note vol="100" pos="528" len="12" pan="0" key="52"/>
          <note vol="100" pos="540" len="12" pan="0" key="65"/>
          <note vol="100" pos="552" len="12" pan="0" key="73"/>
          <note vol="100" pos="552" len="12" pan="0" key="70"/>
          <note vol="100" pos="552" len="12" pan="0" key="64"/>
          <note vol="100" pos="552" len="12" pan="0" key="52"/>
          <note vol="100" pos="564" len="12" pan="0" key="65"/>
          <note vol="100" pos="576" len="12" pan="0" key="64"/>
          <note vol="100" pos="576" len="12" pan="0" key="62"/>
          <note vol="100" pos="576" len="12" pan="0" key="51"/>
          <note vol="100" pos="588" len="12" pan="0" key="65"/>
          <note vol="100" pos="600" len="12" pan="0" key="73"/>
          <note vol="100" pos="600" len="12" pan="0" key="70"/>
          <note vol="100" pos="612" len="12" pan="0" key="65"/>
          <note vol="100" pos="612" len="12" pan="0" key="51"/>
          <note vol="100" pos="624" len="12" pan="0" key="64"/>
          <note vol="100" pos="624" len="12" pan="0" key="62"/>
          <note vol="100" pos="624" len="12" pan="0" key="52"/>
          <note vol="100" pos="636" len="12" pan="0" key="65"/>
          <note vol="100" pos="648" len="12" pan="0" key="73"/>
          <note vol="100" pos="648" len="12" pan="0" key="70"/>
          <note vol="100" pos="660" len="12" pan="0" key="65"/>
          <note vol="100" pos="660" len="12" pan="0" key="52"/>
          <note vol="100" pos="672" len="12" pan="0" key="64"/>
          <note vol="100" pos="672" len="12" pan="0" key="62"/>
          <note vol="100" pos="672" len="12" pan="0" key="51"/>
          <note vol="100" pos="684" len="12" pan="0" key="73"/>
          <note vol="100" pos="684" len="12" pan="0" key="65"/>
          <note vol="100" pos="696" len="12" pan="0" key="73"/>
          <note vol="100" pos="708" len="12" pan="0" key="73"/>
          <note vol="100" pos="708" len="12" pan="0" key="70"/>
          <note vol="100" pos="708" len="12" pan="0" key="64"/>
          <note vol="100" pos="708" len="12" pan="0" key="51"/>
          <note vol="100" pos="720" len="12" pan="0" key="73"/>
          <note vol="100" pos="720" len="12" pan="0" key="64"/>
          <note vol="100" pos="720" len="12" pan="0" key="62"/>
          <note vol="100" pos="720" len="12" pan="0" key="52"/>
          <note vol="100" pos="732" len="12" pan="0" key="65"/>
          <note vol="100" pos="744" len="12" pan="0" key="73"/>
          <note vol="100" pos="744" len="12" pan="0" key="70"/>
          <note vol="100" pos="744" len="12" pan="0" key="64"/>
          <note vol="100" pos="744" len="12" pan="0" key="52"/>
          <note vol="100" pos="756" len="12" pan="0" key="65"/>
        </pattern>
        <pattern pos="0" steps="16" muted="0" type="1" name="Jazz Drums 2">
          <note vol="68" pos="0" len="12" pan="0" key="65"/>
          <note vol="68" pos="36" len="12" pan="0" key="65"/>
          <note vol="68" pos="48" len="12" pan="0" key="65"/>
          <note vol="68" pos="84" len="12" pan="0" key="65"/>
          <note vol="68" pos="96" len="12" pan="0" key="65"/>
          <note vol="68" pos="132" len="12" pan="0" key="65"/>
          <note vol="68" pos="156" len="12" pan="0" key="65"/>
          <note vol="68" pos="180" len="12" pan="0" key="65"/>
          <note vol="68" pos="192" len="12" pan="0" key="65"/>
          <note vol="68" pos="228" len="12" pan="0" key="65"/>
          <note vol="68" pos="240" len="12" pan="0" key="65"/>
          <note vol="68" pos="276" len="12" pan="0" key="65"/>
          <note vol="68" pos="288" len="12" pan="0" key="65"/>
          <note vol="68" pos="324" len="12" pan="0" key="65"/>
          <note vol="68" pos="348" len="12" pan="0" key="65"/>
          <note vol="68" pos="372" len="12" pan="0" key="65"/>
        </pattern>
        <pattern pos="8064" steps="16" muted="0" type="1" name="">
          <note vol="100" pos="0" len="12" pan="0" key="64"/>
          <note vol="100" pos="0" len="12" pan="0" key="62"/>
          <note vol="100" pos="0" len="12" pan="0" key="51"/>
          <note vol="100" pos="12" len="12" pan="0" key="65"/>
          <note vol="100" pos="24" len="12" pan="0" key="73"/>
          <note vol="100" pos="24" len="12" pan="0" key="70"/>
          <note vol="100" pos="36" len="12" pan="0" key="65"/>
          <note vol="100" pos="36" len="12" pan="0" key="51"/>
          <note vol="100" pos="48" len="12" pan="0" key="64"/>
          <note vol="100" pos="48" len="12" pan="0" key="62"/>
          <note vol="100" pos="48" len="12" pan="0" key="52"/>
          <note vol="100" pos="60" len="12" pan="0" key="65"/>
          <note vol="100" pos="72" len="12" pan="0" key="73"/>
          <note vol="100" pos="72" len="12" pan="0" key="70"/>
          <note vol="100" pos="84" len="12" pan="0" key="65"/>
          <note vol="100" pos="84" len="12" pan="0" key="52"/>
          <note vol="100" pos="96" len="12" pan="0" key="64"/>
          <note vol="100" pos="96" len="12" pan="0" key="62"/>
          <note vol="100" pos="96" len="12" pan="0" key="51"/>
          <note vol="100" pos="108" len="12" pan="0" key="73"/>
          <note vol="100" pos="108" len="12" pan="0" key="65"/>
          <note vol="100" pos="120" len="12" pan="0" key="73"/>
          <note vol="100" pos="132" len="12" pan="0" key="73"/>
          <note vol="100" pos="132" len="12" pan="0" key="70"/>
          <note vol="100" pos="132" len="12" pan="0" key="64"/>
          <note vol="100" pos="132" len="12" pan="0" key="51"/>
          <note vol="100" pos="144" len="12" pan="0" key="73"/>
          <note vol="100" pos="144" len="12" pan="0" key="64"/>
          <note vol="100" pos="144" len="12" pan="0" key="62"/>
          <note vol="100" pos="144" len="12" pan="0" key="52"/>
          <note vol="100" pos="156" len="12" pan="0" key="65"/>
          <note vol="100" pos="168" len="12" pan="0" key="73"/>
          <note vol="100" pos="168" len="12" pan="0" key="70"/>
          <note vol="100" pos="168" len="12" pan="0" key="64"/>
          <note vol="100" pos="168" len="12" pan="0" key="52"/>
          <note vol="100" pos="180" len="12" pan="0" key="65"/>
          <note vol="100" pos="192" len="12" pan="0" key="64"/>
          <note vol="100" pos="192" len="12" pan="0" key="62"/>
          <note vol="100" pos="192" len="12" pan="0" key="51"/>
          <note vol="100" pos="204" len="12" pan="0" key="65"/>
          <note vol="100" pos="216" len="12" pan="0" key="73"/>
          <note vol="100" pos="216" len="12" pan="0" key="70"/>
          <note vol="100" pos="228" len="12" pan="0" key="65"/>
          <note vol="100" pos="228" len="12" pan="0" key="51"/>
          <note vol="100" pos="240" len="12" pan="0" key="64"/>
          <note vol="100" pos="240" len="12" pan="0" key="62"/>
          <note vol="100" pos="240" len="12" pan="0" key="52"/>
          <note vol="100" pos="252" len="12" pan="0" key="65"/>
          <note vol="100" pos="264" len="12" pan="0" key="73"/>
          <note vol="100" pos="264" len="12" pan="0" key="70"/>
          <note vol="100" pos="276" len="12" pan="0" key="65"/>
          <note vol="100" pos="276" len="12" pan="0" key="52"/>
          <note vol="100" pos="288" len="12" pan="0" key="64"/>
          <note vol="100" pos="288" len="12" pan="0" key="62"/>
          <note vol="100" pos="288" len="12" pan="0" key="51"/>
          <note vol="100" pos="300" len="12" pan="0" key="73"/>
          <note vol="100" pos="300" len="12" pan="0" key="65"/>
          <note vol="100" pos="312" len="12" pan="0" key="73"/>
          <note vol="100" pos="324" len="12" pan="0" key="73"/>
          <note vol="100" pos="324" len="12" pan="0" key="70"/>
          <note vol="100" pos="324" len="12" pan="0" key="64"/>
          <note vol="100" pos="324" len="12" pan="0" key="51"/>
          <note vol="100" pos="336" len="12" pan="0" key="73"/>
          <note vol="100" pos="336" len="12" pan="0" key="64"/>
          <note vol="100" pos="336" len="12" pan="0" key="62"/>
          <note vol="100" pos="336" len="12" pan="0" key="52"/>
          <note vol="100" pos="348" len="12" pan="0" key="65"/>
          <note vol="100" pos="360" len="12" pan="0" key="73"/>
          <note vol="100" pos="360" len="12" pan="0" key="70"/>
          <note vol="100" pos="360" len="12" pan="0" key="64"/>
          <note vol="100" pos="360" len="12" pan="0" key="52"/>
          <note vol="100" pos="372" len="12" pan="0" key="65"/>
          <note vol="100" pos="384" len="12" pan="0" key="64"/>
          <note vol="100" pos="384" len="12" pan="0" key="62"/>
          <note vol="100" pos="384" len="12" pan="0" key="51"/>
          <note vol="100" pos="396" len="12" pan="0" key="65"/>
          <note vol="100" pos="408" len="12" pan="0" key="73"/>
          <note vol="100" pos="408" len="12" pan="0" key="70"/>
          <note vol="100" pos="420" len="12" pan="0" key="65"/>
          <note vol="100" pos="420" len="12" pan="0" key="51"/>
          <note vol="100" pos="432" len="12" pan="0" key="64"/>
          <note vol="100" pos="432" len="12" pan="0" key="62"/>
          <note vol="100" pos="432" len="12" pan="0" key="52"/>
          <note vol="100" pos="444" len="12" pan="0" key="65"/>
          <note vol="100" pos="456" len="12" pan="0" key="73"/>
          <note vol="100" pos="456" len="12" pan="0" key="70"/>
          <note vol="100" pos="468" len="12" pan="0" key="65"/>
          <note vol="100" pos="468" len="12" pan="0" key="52"/>
          <note vol="100" pos="480" len="12" pan="0" key="64"/>
          <note vol="100" pos="480" len="12" pan="0" key="62"/>
          <note vol="100" pos="480" len="12" pan="0" key="51"/>
          <note vol="100" pos="492" len="12" pan="0" key="73"/>
          <note vol="100" pos="492" len="12" pan="0" key="65"/>
          <note vol="100" pos="504" len="12" pan="0" key="73"/>
          <note vol="100" pos="516" len="12" pan="0" key="73"/>
          <note vol="100" pos="516" len="12" pan="0" key="70"/>
          <note vol="100" pos="516" len="12" pan="0" key="64"/>
          <note vol="100" pos="516" len="12" pan="0" key="51"/>
          <note vol="100" pos="528" len="12" pan="0" key="73"/>
          <note vol="100" pos="528" len="12" pan="0" key="64"/>
          <note vol="100" pos="528" len="12" pan="0" key="62"/>
          <note vol="100" pos="528" len="12" pan="0" key="52"/>
          <note vol="100" pos="540" len="12" pan="0" key="65"/>
          <note vol="100" pos="552" len="12" pan="0" key="73"/>
          <note vol="100" pos="552" len="12" pan="0" key="70"/>
          <note vol="100" pos="552" len="12" pan="0" key="64"/>
          <note vol="100" pos="552" len="12" pan="0" key="52"/>
          <note vol="100" pos="564" len="12" pan="0" key="65"/>
          <note vol="100" pos="576" len="12" pan="0" key="64"/>
          <note vol="100" pos="576" len="12" pan="0" key="62"/>
          <note vol="100" pos="576" len="12" pan="0" key="51"/>
          <note vol="100" pos="588" len="12" pan="0" key="65"/>
          <note vol="100" pos="600" len="12" pan="0" key="73"/>
          <note vol="100" pos="600" len="12" pan="0" key="70"/>
          <note vol="100" pos="612" len="12" pan="0" key="65"/>
          <note vol="100" pos="612" len="12" pan="0" key="51"/>
          <note vol="100" pos="624" len="12" pan="0" key="64"/>
          <note vol="100" pos="624" len="12" pan="0" key="62"/>
          <note vol="100" pos="624" len="12" pan="0" key="52"/>
          <note vol="100" pos="636" len="12" pan="0" key="65"/>
          <note vol="100" pos="648" len="12" pan="0" key="73"/>
          <note vol="100" pos="648" len="12" pan="0" key="70"/>
          <note vol="100" pos="660" len="12" pan="0" key="65"/>
          <note vol="100" pos="660" len="12" pan="0" key="52"/>
          <note vol="100" pos="672" len="12" pan="0" key="64"/>
          <note vol="100" pos="672" len="12" pan="0" key="62"/>
          <note vol="100" pos="672" len="12" pan="0" key="51"/>
          <note vol="100" pos="684" len="12" pan="0" key="73"/>
          <note vol="100" pos="684" len="12" pan="0" key="65"/>
          <note vol="100" pos="696" len="12" pan="0" key="73"/>
          <note vol="100" pos="708" len="12" pan="0" key="73"/>
          <note vol="100" pos="708" len="12" pan="0" key="70"/>
          <note vol="100" pos="708" len="12" pan="0" key="64"/>
          <note vol="100" pos="708" len="12" pan="0" key="51"/>
          <note vol="100" pos="720" len="12" pan="0" key="73"/>
          <note vol="100" pos="720" len="12" pan="0" key="64"/>
          <note vol="100" pos="720" len="12" pan="0" key="62"/>
          <note vol="100" pos="720" len="12" pan="0" key="52"/>
          <note vol="100" pos="732" len="12" pan="0" key="65"/>
          <note vol="100" pos="744" len="12" pan="0" key="73"/>
          <note vol="100" pos="744" len="12" pan="0" key="70"/>
          <note vol="100" pos="744" len="12" pan="0" key="64"/>
          <note vol="100" pos="744" len="12" pan="0" key="52"/>
          <note vol="100" pos="756" len="12" pan="0" key="65"/>
        </pattern>
      </track>
      <track solo="0" muted="0" type="0" name="Jazz Drums 3">
        <instrumenttrack pitchrange="1" vol="80.800003" pitch="0" usemasterpitch="1" pan="0" fxch="1" basenote="57">
          <instrument name="sf2player">
            <sf2player src="soundfonts/GeneralUser GS v1.471.sf2" reverbOn="0" reverbLevel="0.89999998" bank="128" reverbWidth="0.5" chorusOn="0" gain="1" patch="32" reverbRoomSize="0.2" chorusLevel="2" chorusSpeed="0.30000001" reverbDamping="0.2" chorusNum="0.89999998" chorusDepth="8"/>
          </instrument>
          <eldata fres="0.5" fcut="14000" ftype="0" fwet="0">
            <elvol lshp="0" latt="0" lspd_denominator="4" amt="0" pdel="0" hold="0.5" sustain="0.5" lspd_numerator="4" lspd_syncmode="0" att="0" lspd="0.1" x100="0" dec="0.5" lamt="0" ctlenvamt="0" lpdel="0" userwavefile="" rel="0.1"/>
            <elcut lshp="0" latt="0" lspd_denominator="4" amt="0" pdel="0" hold="0.5" sustain="0.5" lspd_numerator="4" lspd_syncmode="0" att="0" lspd="0.1" x100="0" dec="0.5" lamt="0" ctlenvamt="0" lpdel="0" userwavefile="" rel="0.1"/>
            <elres lshp="0" latt="0" lspd_denominator="4" amt="0" pdel="0" hold="0.5" sustain="0.5" lspd_numerator="4" lspd_syncmode="0" att="0" lspd="0.1" x100="0" dec="0.5" lamt="0" ctlenvamt="0" lpdel="0" userwavefile="" rel="0.1"/>
          </eldata>
          <chordcreator chord-enabled="0" chordrange="1" chord="0"/>
          <arpeggiator arpskip="0" arpdir="0" arptime_syncmode="0" arp="0" arpmode="0" arptime_numerator="4" arpgate="100" arpcycle="0" arprange="1" arp-enabled="0" arptime="200" arpmiss="0" arptime_denominator="4"/>
          <midiport inputcontroller="0" outputcontroller="0" outputprogram="1" fixedinputvelocity="-1" writable="0" inputchannel="0" basevelocity="63" fixedoutputvelocity="-1" readable="0" fixedoutputnote="-1" outputchannel="1"/>
          <fxchain numofeffects="0" enabled="0"/>
        </instrumenttrack>
        <pattern pos="768" steps="16" muted="0" type="1" name="w/ crash">
          <note vol="100" pos="0" len="12" pan="0" key="39"/>
          <note vol="100" pos="0" len="12" pan="0" key="38"/>
          <note vol="100" pos="0" len="12" pan="0" key="33"/>
          <note vol="100" pos="0" len="12" pan="0" key="32"/>
          <note vol="112" pos="0" len="12" pan="0" key="24"/>
          <note vol="100" pos="12" len="12" pan="0" key="32"/>
          <note vol="100" pos="24" len="12" pan="0" key="39"/>
          <note vol="100" pos="24" len="12" pan="0" key="32"/>
          <note vol="100" pos="36" len="12" pan="0" key="39"/>
          <note vol="100" pos="36" len="12" pan="0" key="38"/>
          <note vol="100" pos="36" len="12" pan="0" key="33"/>
          <note vol="100" pos="36" len="12" pan="0" key="32"/>
          <note vol="100" pos="48" len="12" pan="0" key="39"/>
          <note vol="100" pos="48" len="12" pan="0" key="35"/>
          <note vol="100" pos="48" len="12" pan="0" key="32"/>
          <note vol="112" pos="48" len="12" pan="0" key="24"/>
          <note vol="100" pos="60" len="12" pan="0" key="32"/>
          <note vol="100" pos="72" len="12" pan="0" key="39"/>
          <note vol="100" pos="72" len="12" pan="0" key="32"/>
          <note vol="100" pos="84" len="12" pan="0" key="39"/>
          <note vol="100" pos="84" len="12" pan="0" key="35"/>
          <note vol="100" pos="84" len="12" pan="0" key="33"/>
          <note vol="100" pos="84" len="12" pan="0" key="32"/>
          <note vol="100" pos="96" len="12" pan="0" key="39"/>
          <note vol="100" pos="96" len="12" pan="0" key="38"/>
          <note vol="100" pos="96" len="12" pan="0" key="33"/>
          <note vol="100" pos="96" len="12" pan="0" key="32"/>
          <note vol="112" pos="96" len="12" pan="0" key="24"/>
          <note vol="100" pos="108" len="12" pan="0" key="32"/>
          <note vol="100" pos="120" len="12" pan="0" key="39"/>
          <note vol="100" pos="120" len="12" pan="0" key="38"/>
          <note vol="100" pos="120" len="12" pan="0" key="33"/>
          <note vol="100" pos="120" len="12" pan="0" key="32"/>
          <note vol="100" pos="132" len="12" pan="0" key="39"/>
          <note vol="100" pos="132" len="12" pan="0" key="35"/>
          <note vol="100" pos="132" len="12" pan="0" key="33"/>
          <note vol="100" pos="132" len="12" pan="0" key="32"/>
          <note vol="112" pos="132" len="12" pan="0" key="24"/>
          <note vol="100" pos="144" len="12" pan="0" key="39"/>
          <note vol="100" pos="144" len="12" pan="0" key="32"/>
          <note vol="100" pos="156" len="12" pan="0" key="32"/>
          <note vol="102" pos="168" len="12" pan="0" key="43"/>
          <note vol="100" pos="168" len="12" pan="0" key="39"/>
          <note vol="100" pos="168" len="12" pan="0" key="35"/>
          <note vol="100" pos="168" len="12" pan="0" key="33"/>
          <note vol="100" pos="168" len="12" pan="0" key="32"/>
          <note vol="129" pos="168" len="12" pan="0" key="28"/>
          <note vol="129" pos="168" len="12" pan="0" key="26"/>
          <note vol="100" pos="180" len="12" pan="0" key="32"/>
          <note vol="100" pos="192" len="12" pan="0" key="39"/>
          <note vol="100" pos="192" len="12" pan="0" key="38"/>
          <note vol="100" pos="192" len="12" pan="0" key="33"/>
          <note vol="100" pos="192" len="12" pan="0" key="32"/>
          <note vol="112" pos="192" len="12" pan="0" key="24"/>
          <note vol="100" pos="204" len="12" pan="0" key="32"/>
          <note vol="100" pos="216" len="12" pan="0" key="39"/>
          <note vol="100" pos="216" len="12" pan="0" key="32"/>
          <note vol="100" pos="228" len="12" pan="0" key="39"/>
          <note vol="100" pos="228" len="12" pan="0" key="38"/>
          <note vol="100" pos="228" len="12" pan="0" key="33"/>
          <note vol="100" pos="228" len="12" pan="0" key="32"/>
          <note vol="100" pos="240" len="12" pan="0" key="39"/>
          <note vol="100" pos="240" len="12" pan="0" key="35"/>
          <note vol="100" pos="240" len="12" pan="0" key="32"/>
          <note vol="112" pos="240" len="12" pan="0" key="24"/>
          <note vol="100" pos="252" len="12" pan="0" key="32"/>
          <note vol="100" pos="264" len="12" pan="0" key="39"/>
          <note vol="100" pos="264" len="12" pan="0" key="32"/>
          <note vol="100" pos="276" len="12" pan="0" key="39"/>
          <note vol="100" pos="276" len="12" pan="0" key="35"/>
          <note vol="100" pos="276" len="12" pan="0" key="33"/>
          <note vol="100" pos="276" len="12" pan="0" key="32"/>
          <note vol="100" pos="288" len="12" pan="0" key="39"/>
          <note vol="100" pos="288" len="12" pan="0" key="38"/>
          <note vol="100" pos="288" len="12" pan="0" key="33"/>
          <note vol="100" pos="288" len="12" pan="0" key="32"/>
          <note vol="112" pos="288" len="12" pan="0" key="24"/>
          <note vol="100" pos="300" len="12" pan="0" key="32"/>
          <note vol="100" pos="312" len="12" pan="0" key="39"/>
          <note vol="100" pos="312" len="12" pan="0" key="38"/>
          <note vol="100" pos="312" len="12" pan="0" key="33"/>
          <note vol="100" pos="312" len="12" pan="0" key="32"/>
          <note vol="100" pos="324" len="12" pan="0" key="39"/>
          <note vol="100" pos="324" len="12" pan="0" key="35"/>
          <note vol="100" pos="324" len="12" pan="0" key="33"/>
          <note vol="100" pos="324" len="12" pan="0" key="32"/>
          <note vol="112" pos="324" len="12" pan="0" key="24"/>
          <note vol="100" pos="336" len="12" pan="0" key="39"/>
          <note vol="100" pos="336" len="12" pan="0" key="32"/>
          <note vol="100" pos="348" len="12" pan="0" key="32"/>
          <note vol="96" pos="360" len="12" pan="0" key="43"/>
          <note vol="100" pos="360" len="12" pan="0" key="39"/>
          <note vol="100" pos="360" len="12" pan="0" key="35"/>
          <note vol="100" pos="360" len="12" pan="0" key="33"/>
          <note vol="100" pos="360" len="12" pan="0" key="32"/>
          <note vol="123" pos="360" len="12" pan="0" key="28"/>
          <note vol="123" pos="360" len="12" pan="0" key="26"/>
          <note vol="100" pos="372" len="12" pan="0" key="32"/>
          <note vol="100" pos="384" len="12" pan="0" key="39"/>
          <note vol="100" pos="384" len="12" pan="0" key="38"/>
          <note vol="100" pos="384" len="12" pan="0" key="33"/>
          <note vol="100" pos="384" len="12" pan="0" key="32"/>
          <note vol="112" pos="384" len="12" pan="0" key="24"/>
          <note vol="100" pos="396" len="12" pan="0" key="32"/>
          <note vol="100" pos="408" len="12" pan="0" key="39"/>
          <note vol="100" pos="408" len="12" pan="0" key="32"/>
          <note vol="100" pos="420" len="12" pan="0" key="39"/>
          <note vol="100" pos="420" len="12" pan="0" key="38"/>
          <note vol="100" pos="420" len="12" pan="0" key="33"/>
          <note vol="100" pos="420" len="12" pan="0" key="32"/>
          <note vol="100" pos="432" len="12" pan="0" key="39"/>
          <note vol="100" pos="432" len="12" pan="0" key="35"/>
          <note vol="100" pos="432" len="12" pan="0" key="32"/>
          <note vol="112" pos="432" len="12" pan="0" key="24"/>
          <note vol="100" pos="444" len="12" pan="0" key="32"/>
          <note vol="100" pos="456" len="12" pan="0" key="39"/>
          <note vol="100" pos="456" len="12" pan="0" key="32"/>
          <note vol="100" pos="468" len="12" pan="0" key="39"/>
          <note vol="100" pos="468" len="12" pan="0" key="35"/>
          <note vol="100" pos="468" len="12" pan="0" key="33"/>
          <note vol="100" pos="468" len="12" pan="0" key="32"/>
          <note vol="100" pos="480" len="12" pan="0" key="39"/>
          <note vol="100" pos="480" len="12" pan="0" key="38"/>
          <note vol="100" pos="480" len="12" pan="0" key="33"/>
          <note vol="100" pos="480" len="12" pan="0" key="32"/>
          <note vol="112" pos="480" len="12" pan="0" key="24"/>
          <note vol="100" pos="492" len="12" pan="0" key="32"/>
          <note vol="100" pos="504" len="12" pan="0" key="39"/>
          <note vol="100" pos="504" len="12" pan="0" key="38"/>
          <note vol="100" pos="504" len="12" pan="0" key="33"/>
          <note vol="100" pos="504" len="12" pan="0" key="32"/>
          <note vol="100" pos="516" len="12" pan="0" key="39"/>
          <note vol="100" pos="516" len="12" pan="0" key="35"/>
          <note vol="100" pos="516" len="12" pan="0" key="33"/>
          <note vol="100" pos="516" len="12" pan="0" key="32"/>
          <note vol="112" pos="516" len="12" pan="0" key="24"/>
          <note vol="100" pos="528" len="12" pan="0" key="39"/>
          <note vol="100" pos="528" len="12" pan="0" key="32"/>
          <note vol="100" pos="540" len="12" pan="0" key="32"/>
          <note vol="83" pos="552" len="12" pan="0" key="43"/>
          <note vol="100" pos="552" len="12" pan="0" key="39"/>
          <note vol="100" pos="552" len="12" pan="0" key="35"/>
          <note vol="100" pos="552" len="12" pan="0" key="33"/>
          <note vol="100" pos="552" len="12" pan="0" key="32"/>
          <note vol="110" pos="552" len="12" pan="0" key="28"/>
          <note vol="110" pos="552" len="12" pan="0" key="26"/>
          <note vol="117" pos="564" len="12" pan="0" key="32"/>
          <note vol="100" pos="576" len="12" pan="0" key="39"/>
          <note vol="100" pos="576" len="12" pan="0" key="38"/>
          <note vol="100" pos="576" len="12" pan="0" key="33"/>
          <note vol="100" pos="576" len="12" pan="0" key="32"/>
          <note vol="112" pos="576" len="12" pan="0" key="24"/>
          <note vol="100" pos="588" len="12" pan="0" key="32"/>
          <note vol="100" pos="600" len="12" pan="0" key="39"/>
          <note vol="100" pos="600" len="12" pan="0" key="32"/>
          <note vol="100" pos="612" len="12" pan="0" key="39"/>
          <note vol="100" pos="612" len="12" pan="0" key="38"/>
          <note vol="100" pos="612" len="12" pan="0" key="33"/>
          <note vol="100" pos="612" len="12" pan="0" key="32"/>
          <note vol="100" pos="624" len="12" pan="0" key="39"/>
          <note vol="100" pos="624" len="12" pan="0" key="35"/>
          <note vol="100" pos="624" len="12" pan="0" key="32"/>
          <note vol="112" pos="624" len="12" pan="0" key="24"/>
          <note vol="100" pos="636" len="12" pan="0" key="32"/>
          <note vol="100" pos="648" len="12" pan="0" key="39"/>
          <note vol="100" pos="648" len="12" pan="0" key="32"/>
          <note vol="100" pos="660" len="12" pan="0" key="39"/>
          <note vol="100" pos="660" len="12" pan="0" key="35"/>
          <note vol="100" pos="660" len="12" pan="0" key="33"/>
          <note vol="100" pos="660" len="12" pan="0" key="32"/>
          <note vol="81" pos="672" len="12" pan="0" key="39"/>
          <note vol="81" pos="672" len="12" pan="0" key="38"/>
          <note vol="81" pos="672" len="12" pan="0" key="33"/>
          <note vol="81" pos="672" len="12" pan="0" key="32"/>
          <note vol="93" pos="672" len="12" pan="0" key="24"/>
          <note vol="100" pos="684" len="12" pan="0" key="32"/>
          <note vol="100" pos="696" len="12" pan="0" key="39"/>
          <note vol="100" pos="696" len="12" pan="0" key="38"/>
          <note vol="100" pos="696" len="12" pan="0" key="33"/>
          <note vol="100" pos="696" len="12" pan="0" key="32"/>
          <note vol="100" pos="708" len="12" pan="0" key="39"/>
          <note vol="100" pos="708" len="12" pan="0" key="35"/>
          <note vol="100" pos="708" len="12" pan="0" key="33"/>
          <note vol="100" pos="708" len="12" pan="0" key="32"/>
          <note vol="112" pos="708" len="12" pan="0" key="24"/>
          <note vol="100" pos="720" len="12" pan="0" key="39"/>
          <note vol="100" pos="720" len="12" pan="0" key="32"/>
          <note vol="100" pos="732" len="12" pan="0" key="32"/>
          <note vol="102" pos="744" len="12" pan="0" key="43"/>
          <note vol="100" pos="744" len="12" pan="0" key="39"/>
          <note vol="100" pos="744" len="12" pan="0" key="35"/>
          <note vol="100" pos="744" len="12" pan="0" key="33"/>
          <note vol="100" pos="744" len="12" pan="0" key="32"/>
          <note vol="129" pos="744" len="12" pan="0" key="28"/>
          <note vol="129" pos="744" len="12" pan="0" key="26"/>
          <note vol="100" pos="756" len="12" pan="0" key="32"/>
        </pattern>
        <pattern pos="1536" steps="16" muted="0" type="1" name="">
          <note vol="100" pos="0" len="12" pan="0" key="39"/>
          <note vol="100" pos="0" len="12" pan="0" key="38"/>
          <note vol="100" pos="0" len="12" pan="0" key="33"/>
          <note vol="100" pos="0" len="12" pan="0" key="32"/>
          <note vol="112" pos="0" len="12" pan="0" key="24"/>
          <note vol="100" pos="12" len="12" pan="0" key="32"/>
          <note vol="100" pos="24" len="12" pan="0" key="39"/>
          <note vol="100" pos="24" len="12" pan="0" key="32"/>
          <note vol="100" pos="36" len="12" pan="0" key="39"/>
          <note vol="100" pos="36" len="12" pan="0" key="38"/>
          <note vol="100" pos="36" len="12" pan="0" key="33"/>
          <note vol="100" pos="36" len="12" pan="0" key="32"/>
          <note vol="100" pos="48" len="12" pan="0" key="39"/>
          <note vol="100" pos="48" len="12" pan="0" key="35"/>
          <note vol="100" pos="48" len="12" pan="0" key="32"/>
          <note vol="112" pos="48" len="12" pan="0" key="24"/>
          <note vol="100" pos="60" len="12" pan="0" key="32"/>
          <note vol="100" pos="72" len="12" pan="0" key="39"/>
          <note vol="100" pos="72" len="12" pan="0" key="32"/>
          <note vol="100" pos="84" len="12" pan="0" key="39"/>
          <note vol="100" pos="84" len="12" pan="0" key="35"/>
          <note vol="100" pos="84" len="12" pan="0" key="33"/>
          <note vol="100" pos="84" len="12" pan="0" key="32"/>
          <note vol="100" pos="96" len="12" pan="0" key="39"/>
          <note vol="100" pos="96" len="12" pan="0" key="38"/>
          <note vol="100" pos="96" len="12" pan="0" key="33"/>
          <note vol="100" pos="96" len="12" pan="0" key="32"/>
          <note vol="112" pos="96" len="12" pan="0" key="24"/>
          <note vol="100" pos="108" len="12" pan="0" key="32"/>
          <note vol="100" pos="120" len="12" pan="0" key="39"/>
          <note vol="100" pos="120" len="12" pan="0" key="38"/>
          <note vol="100" pos="120" len="12" pan="0" key="33"/>
          <note vol="100" pos="120" len="12" pan="0" key="32"/>
          <note vol="100" pos="132" len="12" pan="0" key="39"/>
          <note vol="100" pos="132" len="12" pan="0" key="35"/>
          <note vol="100" pos="132" len="12" pan="0" key="33"/>
          <note vol="100" pos="132" len="12" pan="0" key="32"/>
          <note vol="112" pos="132" len="12" pan="0" key="24"/>
          <note vol="100" pos="144" len="12" pan="0" key="39"/>
          <note vol="100" pos="144" len="12" pan="0" key="32"/>
          <note vol="100" pos="156" len="12" pan="0" key="32"/>
          <note vol="100" pos="168" len="12" pan="0" key="39"/>
          <note vol="100" pos="168" len="12" pan="0" key="35"/>
          <note vol="100" pos="168" len="12" pan="0" key="33"/>
          <note vol="100" pos="168" len="12" pan="0" key="32"/>
          <note vol="129" pos="168" len="12" pan="0" key="29"/>
          <note vol="129" pos="168" len="12" pan="0" key="26"/>
          <note vol="100" pos="180" len="12" pan="0" key="32"/>
          <note vol="100" pos="192" len="12" pan="0" key="39"/>
          <note vol="100" pos="192" len="12" pan="0" key="38"/>
          <note vol="100" pos="192" len="12" pan="0" key="33"/>
          <note vol="100" pos="192" len="12" pan="0" key="32"/>
          <note vol="112" pos="192" len="12" pan="0" key="24"/>
          <note vol="100" pos="204" len="12" pan="0" key="32"/>
          <note vol="100" pos="216" len="12" pan="0" key="39"/>
          <note vol="100" pos="216" len="12" pan="0" key="32"/>
          <note vol="100" pos="228" len="12" pan="0" key="39"/>
          <note vol="100" pos="228" len="12" pan="0" key="38"/>
          <note vol="100" pos="228" len="12" pan="0" key="33"/>
          <note vol="100" pos="228" len="12" pan="0" key="32"/>
          <note vol="100" pos="240" len="12" pan="0" key="39"/>
          <note vol="100" pos="240" len="12" pan="0" key="35"/>
          <note vol="100" pos="240" len="12" pan="0" key="32"/>
          <note vol="112" pos="240" len="12" pan="0" key="24"/>
          <note vol="100" pos="252" len="12" pan="0" key="32"/>
          <note vol="100" pos="264" len="12" pan="0" key="39"/>
          <note vol="100" pos="264" len="12" pan="0" key="32"/>
          <note vol="100" pos="276" len="12" pan="0" key="39"/>
          <note vol="100" pos="276" len="12" pan="0" key="35"/>
          <note vol="100" pos="276" len="12" pan="0" key="33"/>
          <note vol="100" pos="276" len="12" pan="0" key="32"/>
          <note vol="100" pos="288" len="12" pan="0" key="39"/>
          <note vol="100" pos="288" len="12" pan="0" key="38"/>
          <note vol="100" pos="288" len="12" pan="0" key="33"/>
          <note vol="100" pos="288" len="12" pan="0" key="32"/>
          <note vol="112" pos="288" len="12" pan="0" key="24"/>
          <note vol="100" pos="300" len="12" pan="0" key="32"/>
          <note vol="100" pos="312" len="12" pan="0" key="39"/>
          <note vol="100" pos="312" len="12" pan="0" key="38"/>
          <note vol="100" pos="312" len="12" pan="0" key="33"/>
          <note vol="100" pos="312" len="12" pan="0" key="32"/>
          <note vol="100" pos="324" len="12" pan="0" key="39"/>
          <note vol="100" pos="324" len="12" pan="0" key="35"/>
          <note vol="100" pos="324" len="12" pan="0" key="33"/>
          <note vol="100" pos="324" len="12" pan="0" key="32"/>
          <note vol="112" pos="324" len="12" pan="0" key="24"/>
          <note vol="100" pos="336" len="12" pan="0" key="39"/>
          <note vol="100" pos="336" len="12" pan="0" key="32"/>
          <note vol="100" pos="348" len="12" pan="0" key="32"/>
          <note vol="100" pos="360" len="12" pan="0" key="39"/>
          <note vol="100" pos="360" len="12" pan="0" key="35"/>
          <note vol="100" pos="360" len="12" pan="0" key="33"/>
          <note vol="100" pos="360" len="12" pan="0" key="32"/>
          <note vol="123" pos="360" len="12" pan="0" key="29"/>
          <note vol="123" pos="360" len="12" pan="0" key="26"/>
          <note vol="100" pos="372" len="12" pan="0" key="32"/>
          <note vol="100" pos="384" len="12" pan="0" key="39"/>
          <note vol="100" pos="384" len="12" pan="0" key="38"/>
          <note vol="100" pos="384" len="12" pan="0" key="33"/>
          <note vol="100" pos="384" len="12" pan="0" key="32"/>
          <note vol="112" pos="384" len="12" pan="0" key="24"/>
          <note vol="100" pos="396" len="12" pan="0" key="32"/>
          <note vol="100" pos="408" len="12" pan="0" key="39"/>
          <note vol="100" pos="408" len="12" pan="0" key="32"/>
          <note vol="100" pos="420" len="12" pan="0" key="39"/>
          <note vol="100" pos="420" len="12" pan="0" key="38"/>
          <note vol="100" pos="420" len="12" pan="0" key="33"/>
          <note vol="100" pos="420" len="12" pan="0" key="32"/>
          <note vol="100" pos="432" len="12" pan="0" key="39"/>
          <note vol="100" pos="432" len="12" pan="0" key="35"/>
          <note vol="100" pos="432" len="12" pan="0" key="32"/>
          <note vol="112" pos="432" len="12" pan="0" key="24"/>
          <note vol="100" pos="444" len="12" pan="0" key="32"/>
          <note vol="100" pos="456" len="12" pan="0" key="39"/>
          <note vol="100" pos="456" len="12" pan="0" key="32"/>
          <note vol="100" pos="468" len="12" pan="0" key="39"/>
          <note vol="100" pos="468" len="12" pan="0" key="35"/>
          <note vol="100" pos="468" len="12" pan="0" key="33"/>
          <note vol="100" pos="468" len="12" pan="0" key="32"/>
          <note vol="100" pos="480" len="12" pan="0" key="39"/>
          <note vol="100" pos="480" len="12" pan="0" key="38"/>
          <note vol="100" pos="480" len="12" pan="0" key="33"/>
          <note vol="100" pos="480" len="12" pan="0" key="32"/>
          <note vol="112" pos="480" len="12" pan="0" key="24"/>
          <note vol="100" pos="492" len="12" pan="0" key="32"/>
          <note vol="100" pos="504" len="12" pan="0" key="39"/>
          <note vol="100" pos="504" len="12" pan="0" key="38"/>
          <note vol="100" pos="504" len="12" pan="0" key="33"/>
          <note vol="100" pos="504" len="12" pan="0" key="32"/>
          <note vol="100" pos="516" len="12" pan="0" key="39"/>
          <note vol="100" pos="516" len="12" pan="0" key="35"/>
          <note vol="100" pos="516" len="12" pan="0" key="33"/>
          <note vol="100" pos="516" len="12" pan="0" key="32"/>
          <note vol="112" pos="516" len="12" pan="0" key="24"/>
          <note vol="100" pos="528" len="12" pan="0" key="39"/>
          <note vol="100" pos="528" len="12" pan="0" key="32"/>
          <note vol="100" pos="540" len="12" pan="0" key="32"/>
          <note vol="100" pos="552" len="12" pan="0" key="39"/>
          <note vol="100" pos="552" len="12" pan="0" key="35"/>
          <note vol="100" pos="552" len="12" pan="0" key="33"/>
          <note vol="100" pos="552" len="12" pan="0" key="32"/>
          <note vol="110" pos="552" len="12" pan="0" key="29"/>
          <note vol="110" pos="552" len="12" pan="0" key="26"/>
          <note vol="117" pos="564" len="12" pan="0" key="32"/>
          <note vol="100" pos="576" len="12" pan="0" key="39"/>
          <note vol="100" pos="576" len="12" pan="0" key="38"/>
          <note vol="100" pos="576" len="12" pan="0" key="33"/>
          <note vol="100" pos="576" len="12" pan="0" key="32"/>
          <note vol="112" pos="576" len="12" pan="0" key="24"/>
          <note vol="100" pos="588" len="12" pan="0" key="32"/>
          <note vol="100" pos="600" len="12" pan="0" key="39"/>
          <note vol="100" pos="600" len="12" pan="0" key="32"/>
          <note vol="100" pos="612" len="12" pan="0" key="39"/>
          <note vol="100" pos="612" len="12" pan="0" key="38"/>
          <note vol="100" pos="612" len="12" pan="0" key="33"/>
          <note vol="100" pos="612" len="12" pan="0" key="32"/>
          <note vol="100" pos="624" len="12" pan="0" key="39"/>
          <note vol="100" pos="624" len="12" pan="0" key="35"/>
          <note vol="100" pos="624" len="12" pan="0" key="32"/>
          <note vol="112" pos="624" len="12" pan="0" key="24"/>
          <note vol="100" pos="636" len="12" pan="0" key="32"/>
          <note vol="100" pos="648" len="12" pan="0" key="39"/>
          <note vol="100" pos="648" len="12" pan="0" key="32"/>
          <note vol="100" pos="660" len="12" pan="0" key="39"/>
          <note vol="100" pos="660" len="12" pan="0" key="35"/>
          <note vol="100" pos="660" len="12" pan="0" key="33"/>
          <note vol="100" pos="660" len="12" pan="0" key="32"/>
          <note vol="81" pos="672" len="12" pan="0" key="39"/>
          <note vol="81" pos="672" len="12" pan="0" key="38"/>
          <note vol="81" pos="672" len="12" pan="0" key="33"/>
          <note vol="81" pos="672" len="12" pan="0" key="32"/>
          <note vol="93" pos="672" len="12" pan="0" key="24"/>
          <note vol="100" pos="684" len="12" pan="0" key="32"/>
          <note vol="100" pos="696" len="12" pan="0" key="39"/>
          <note vol="100" pos="696" len="12" pan="0" key="38"/>
          <note vol="100" pos="696" len="12" pan="0" key="33"/>
          <note vol="100" pos="696" len="12" pan="0" key="32"/>
          <note vol="100" pos="708" len="12" pan="0" key="39"/>
          <note vol="100" pos="708" len="12" pan="0" key="35"/>
          <note vol="100" pos="708" len="12" pan="0" key="33"/>
          <note vol="100" pos="708" len="12" pan="0" key="32"/>
          <note vol="112" pos="708" len="12" pan="0" key="24"/>
          <note vol="100" pos="720" len="12" pan="0" key="39"/>
          <note vol="100" pos="720" len="12" pan="0" key="32"/>
          <note vol="100" pos="732" len="12" pan="0" key="32"/>
          <note vol="100" pos="744" len="12" pan="0" key="39"/>
          <note vol="100" pos="744" len="12" pan="0" key="35"/>
          <note vol="100" pos="744" len="12" pan="0" key="33"/>
          <note vol="100" pos="744" len="12" pan="0" key="32"/>
          <note vol="129" pos="744" len="12" pan="0" key="29"/>
          <note vol="129" pos="744" len="12" pan="0" key="26"/>
          <note vol="100" pos="756" len="12" pan="0" key="32"/>
        </pattern>
        <pattern pos="2304" steps="16" muted="0" type="1" name="">
          <note vol="100" pos="0" len="12" pan="0" key="39"/>
          <note vol="100" pos="0" len="12" pan="0" key="38"/>
          <note vol="100" pos="0" len="12" pan="0" key="33"/>
          <note vol="100" pos="0" len="12" pan="0" key="32"/>
          <note vol="112" pos="0" len="12" pan="0" key="24"/>
          <note vol="100" pos="12" len="12" pan="0" key="32"/>
          <note vol="100" pos="24" len="12" pan="0" key="39"/>
          <note vol="100" pos="24" len="12" pan="0" key="32"/>
          <note vol="100" pos="36" len="12" pan="0" key="39"/>
          <note vol="100" pos="36" len="12" pan="0" key="38"/>
          <note vol="100" pos="36" len="12" pan="0" key="33"/>
          <note vol="100" pos="36" len="12" pan="0" key="32"/>
          <note vol="100" pos="48" len="12" pan="0" key="39"/>
          <note vol="100" pos="48" len="12" pan="0" key="35"/>
          <note vol="100" pos="48" len="12" pan="0" key="32"/>
          <note vol="112" pos="48" len="12" pan="0" key="24"/>
          <note vol="100" pos="60" len="12" pan="0" key="32"/>
          <note vol="100" pos="72" len="12" pan="0" key="39"/>
          <note vol="100" pos="72" len="12" pan="0" key="32"/>
          <note vol="100" pos="84" len="12" pan="0" key="39"/>
          <note vol="100" pos="84" len="12" pan="0" key="35"/>
          <note vol="100" pos="84" len="12" pan="0" key="33"/>
          <note vol="100" pos="84" len="12" pan="0" key="32"/>
          <note vol="100" pos="96" len="12" pan="0" key="39"/>
          <note vol="100" pos="96" len="12" pan="0" key="38"/>
          <note vol="100" pos="96" len="12" pan="0" key="33"/>
          <note vol="100" pos="96" len="12" pan="0" key="32"/>
          <note vol="112" pos="96" len="12" pan="0" key="24"/>
          <note vol="100" pos="108" len="12" pan="0" key="32"/>
          <note vol="100" pos="120" len="12" pan="0" key="39"/>
          <note vol="100" pos="120" len="12" pan="0" key="38"/>
          <note vol="100" pos="120" len="12" pan="0" key="33"/>
          <note vol="100" pos="120" len="12" pan="0" key="32"/>
          <note vol="100" pos="132" len="12" pan="0" key="39"/>
          <note vol="100" pos="132" len="12" pan="0" key="35"/>
          <note vol="100" pos="132" len="12" pan="0" key="33"/>
          <note vol="100" pos="132" len="12" pan="0" key="32"/>
          <note vol="112" pos="132" len="12" pan="0" key="24"/>
          <note vol="100" pos="144" len="12" pan="0" key="39"/>
          <note vol="100" pos="144" len="12" pan="0" key="32"/>
          <note vol="100" pos="156" len="12" pan="0" key="32"/>
          <note vol="100" pos="168" len="12" pan="0" key="39"/>
          <note vol="100" pos="168" len="12" pan="0" key="35"/>
          <note vol="100" pos="168" len="12" pan="0" key="33"/>
          <note vol="100" pos="168" len="12" pan="0" key="32"/>
          <note vol="129" pos="168" len="12" pan="0" key="29"/>
          <note vol="129" pos="168" len="12" pan="0" key="26"/>
          <note vol="100" pos="180" len="12" pan="0" key="32"/>
          <note vol="100" pos="192" len="12" pan="0" key="39"/>
          <note vol="100" pos="192" len="12" pan="0" key="38"/>
          <note vol="100" pos="192" len="12" pan="0" key="33"/>
          <note vol="100" pos="192" len="12" pan="0" key="32"/>
          <note vol="112" pos="192" len="12" pan="0" key="24"/>
          <note vol="100" pos="204" len="12" pan="0" key="32"/>
          <note vol="100" pos="216" len="12" pan="0" key="39"/>
          <note vol="100" pos="216" len="12" pan="0" key="32"/>
          <note vol="100" pos="228" len="12" pan="0" key="39"/>
          <note vol="100" pos="228" len="12" pan="0" key="38"/>
          <note vol="100" pos="228" len="12" pan="0" key="33"/>
          <note vol="100" pos="228" len="12" pan="0" key="32"/>
          <note vol="100" pos="240" len="12" pan="0" key="39"/>
          <note vol="100" pos="240" len="12" pan="0" key="35"/>
          <note vol="100" pos="240" len="12" pan="0" key="32"/>
          <note vol="112" pos="240" len="12" pan="0" key="24"/>
          <note vol="100" pos="252" len="12" pan="0" key="32"/>
          <note vol="100" pos="264" len="12" pan="0" key="39"/>
          <note vol="100" pos="264" len="12" pan="0" key="32"/>
          <note vol="100" pos="276" len="12" pan="0" key="39"/>
          <note vol="100" pos="276" len="12" pan="0" key="35"/>
          <note vol="100" pos="276" len="12" pan="0" key="33"/>
          <note vol="100" pos="276" len="12" pan="0" key="32"/>
          <note vol="100" pos="288" len="12" pan="0" key="39"/>
          <note vol="100" pos="288" len="12" pan="0" key="38"/>
          <note vol="100" pos="288" len="12" pan="0" key="33"/>
          <note vol="100" pos="288" len="12" pan="0" key="32"/>
          <note vol="112" pos="288" len="12" pan="0" key="24"/>
          <note vol="100" pos="300" len="12" pan="0" key="32"/>
          <note vol="100" pos="312" len="12" pan="0" key="39"/>
          <note vol="100" pos="312" len="12" pan="0" key="38"/>
          <note vol="100" pos="312" len="12" pan="0" key="33"/>
          <note vol="100" pos="312" len="12" pan="0" key="32"/>
          <note vol="100" pos="324" len="12" pan="0" key="39"/>
          <note vol="100" pos="324" len="12" pan="0" key="35"/>
          <note vol="100" pos="324" len="12" pan="0" key="33"/>
          <note vol="100" pos="324" len="12" pan="0" key="32"/>
          <note vol="112" pos="324" len="12" pan="0" key="24"/>
          <note vol="100" pos="336" len="12" pan="0" key="39"/>
          <note vol="100" pos="336" len="12" pan="0" key="32"/>
          <note vol="100" pos="348" len="12" pan="0" key="32"/>
          <note vol="100" pos="360" len="12" pan="0" key="39"/>
          <note vol="100" pos="360" len="12" pan="0" key="35"/>
          <note vol="100" pos="360" len="12" pan="0" key="33"/>
          <note vol="100" pos="360" len="12" pan="0" key="32"/>
          <note vol="123" pos="360" len="12" pan="0" key="29"/>
          <note vol="123" pos="360" len="12" pan="0" key="26"/>
          <note vol="100" pos="372" len="12" pan="0" key="32"/>
          <note vol="100" pos="384" len="12" pan="0" key="39"/>
          <note vol="100" pos="384" len="12" pan="0" key="38"/>
          <note vol="100" pos="384" len="12" pan="0" key="33"/>
          <note vol="100" pos="384" len="12" pan="0" key="32"/>
          <note vol="112" pos="384" len="12" pan="0" key="24"/>
          <note vol="100" pos="396" len="12" pan="0" key="32"/>
          <note vol="100" pos="408" len="12" pan="0" key="39"/>
          <note vol="100" pos="408" len="12" pan="0" key="32"/>
          <note vol="100" pos="420" len="12" pan="0" key="39"/>
          <note vol="100" pos="420" len="12" pan="0" key="38"/>
          <note vol="100" pos="420" len="12" pan="0" key="33"/>
          <note vol="100" pos="420" len="12" pan="0" key="32"/>
          <note vol="100" pos="432" len="12" pan="0" key="39"/>
          <note vol="100" pos="432" len="12" pan="0" key="35"/>
          <note vol="100" pos="432" len="12" pan="0" key="32"/>
          <note vol="112" pos="432" len="12" pan="0" key="24"/>
          <note vol="100" pos="444" len="12" pan="0" key="32"/>
          <note vol="100" pos="456" len="12" pan="0" key="39"/>
          <note vol="100" pos="456" len="12" pan="0" key="32"/>
          <note vol="100" pos="468" len="12" pan="0" key="39"/>
          <note vol="100" pos="468" len="12" pan="0" key="35"/>
          <note vol="100" pos="468" len="12" pan="0" key="33"/>
          <note vol="100" pos="468" len="12" pan="0" key="32"/>
          <note vol="100" pos="480" len="12" pan="0" key="39"/>
          <note vol="100" pos="480" len="12" pan="0" key="38"/>
          <note vol="100" pos="480" len="12" pan="0" key="33"/>
          <note vol="100" pos="480" len="12" pan="0" key="32"/>
          <note vol="112" pos="480" len="12" pan="0" key="24"/>
          <note vol="100" pos="492" len="12" pan="0" key="32"/>
          <note vol="100" pos="504" len="12" pan="0" key="39"/>
          <note vol="100" pos="504" len="12" pan="0" key="38"/>
          <note vol="100" pos="504" len="12" pan="0" key="33"/>
          <note vol="100" pos="504" len="12" pan="0" key="32"/>
          <note vol="100" pos="516" len="12" pan="0" key="39"/>
          <note vol="100" pos="516" len="12" pan="0" key="35"/>
          <note vol="100" pos="516" len="12" pan="0" key="33"/>
          <note vol="100" pos="516" len="12" pan="0" key="32"/>
          <note vol="112" pos="516" len="12" pan="0" key="24"/>
          <note vol="100" pos="528" len="12" pan="0" key="39"/>
          <note vol="100" pos="528" len="12" pan="0" key="32"/>
          <note vol="100" pos="540" len="12" pan="0" key="32"/>
          <note vol="100" pos="552" len="12" pan="0" key="39"/>
          <note vol="100" pos="552" len="12" pan="0" key="35"/>
          <note vol="100" pos="552" len="12" pan="0" key="33"/>
          <note vol="100" pos="552" len="12" pan="0" key="32"/>
          <note vol="110" pos="552" len="12" pan="0" key="29"/>
          <note vol="110" pos="552" len="12" pan="0" key="26"/>
          <note vol="117" pos="564" len="12" pan="0" key="32"/>
          <note vol="100" pos="576" len="12" pan="0" key="39"/>
          <note vol="100" pos="576" len="12" pan="0" key="38"/>
          <note vol="100" pos="576" len="12" pan="0" key="33"/>
          <note vol="100" pos="576" len="12" pan="0" key="32"/>
          <note vol="112" pos="576" len="12" pan="0" key="24"/>
          <note vol="100" pos="588" len="12" pan="0" key="32"/>
          <note vol="100" pos="600" len="12" pan="0" key="39"/>
          <note vol="100" pos="600" len="12" pan="0" key="32"/>
          <note vol="100" pos="612" len="12" pan="0" key="39"/>
          <note vol="100" pos="612" len="12" pan="0" key="38"/>
          <note vol="100" pos="612" len="12" pan="0" key="33"/>
          <note vol="100" pos="612" len="12" pan="0" key="32"/>
          <note vol="100" pos="624" len="12" pan="0" key="39"/>
          <note vol="100" pos="624" len="12" pan="0" key="35"/>
          <note vol="100" pos="624" len="12" pan="0" key="32"/>
          <note vol="112" pos="624" len="12" pan="0" key="24"/>
          <note vol="100" pos="636" len="12" pan="0" key="32"/>
          <note vol="100" pos="648" len="12" pan="0" key="39"/>
          <note vol="100" pos="648" len="12" pan="0" key="32"/>
          <note vol="100" pos="660" len="12" pan="0" key="39"/>
          <note vol="100" pos="660" len="12" pan="0" key="35"/>
          <note vol="100" pos="660" len="12" pan="0" key="33"/>
          <note vol="100" pos="660" len="12" pan="0" key="32"/>
          <note vol="81" pos="672" len="12" pan="0" key="39"/>
          <note vol="81" pos="672" len="12" pan="0" key="38"/>
          <note vol="81" pos="672" len="12" pan="0" key="33"/>
          <note vol="81" pos="672" len="12" pan="0" key="32"/>
          <note vol="93" pos="672" len="12" pan="0" key="24"/>
          <note vol="100" pos="684" len="12" pan="0" key="32"/>
          <note vol="100" pos="696" len="12" pan="0" key="39"/>
          <note vol="100" pos="696" len="12" pan="0" key="38"/>
          <note vol="100" pos="696" len="12" pan="0" key="33"/>
          <note vol="100" pos="696" len="12" pan="0" key="32"/>
          <note vol="100" pos="708" len="12" pan="0" key="39"/>
          <note vol="100" pos="708" len="12" pan="0" key="35"/>
          <note vol="100" pos="708" len="12" pan="0" key="33"/>
          <note vol="100" pos="708" len="12" pan="0" key="32"/>
          <note vol="112" pos="708" len="12" pan="0" key="24"/>
          <note vol="100" pos="720" len="12" pan="0" key="39"/>
          <note vol="100" pos="720" len="12" pan="0" key="32"/>
          <note vol="100" pos="732" len="12" pan="0" key="32"/>
          <note vol="100" pos="744" len="12" pan="0" key="39"/>
          <note vol="100" pos="744" len="12" pan="0" key="35"/>
          <note vol="100" pos="744" len="12" pan="0" key="33"/>
          <note vol="100" pos="744" len="12" pan="0" key="32"/>
          <note vol="129" pos="744" len="12" pan="0" key="29"/>
          <note vol="129" pos="744" len="12" pan="0" key="26"/>
          <note vol="100" pos="756" len="12" pan="0" key="32"/>
        </pattern>
        <pattern pos="3072" steps="16" muted="0" type="1" name="">
          <note vol="100" pos="0" len="12" pan="0" key="39"/>
          <note vol="100" pos="0" len="12" pan="0" key="38"/>
          <note vol="100" pos="0" len="12" pan="0" key="33"/>
          <note vol="100" pos="0" len="12" pan="0" key="32"/>
          <note vol="112" pos="0" len="12" pan="0" key="24"/>
          <note vol="100" pos="12" len="12" pan="0" key="32"/>
          <note vol="100" pos="24" len="12" pan="0" key="39"/>
          <note vol="100" pos="24" len="12" pan="0" key="32"/>
          <note vol="100" pos="36" len="12" pan="0" key="39"/>
          <note vol="100" pos="36" len="12" pan="0" key="38"/>
          <note vol="100" pos="36" len="12" pan="0" key="33"/>
          <note vol="100" pos="36" len="12" pan="0" key="32"/>
          <note vol="100" pos="48" len="12" pan="0" key="39"/>
          <note vol="100" pos="48" len="12" pan="0" key="35"/>
          <note vol="100" pos="48" len="12" pan="0" key="32"/>
          <note vol="112" pos="48" len="12" pan="0" key="24"/>
          <note vol="100" pos="60" len="12" pan="0" key="32"/>
          <note vol="100" pos="72" len="12" pan="0" key="39"/>
          <note vol="100" pos="72" len="12" pan="0" key="32"/>
          <note vol="100" pos="84" len="12" pan="0" key="39"/>
          <note vol="100" pos="84" len="12" pan="0" key="35"/>
          <note vol="100" pos="84" len="12" pan="0" key="33"/>
          <note vol="100" pos="84" len="12" pan="0" key="32"/>
          <note vol="100" pos="96" len="12" pan="0" key="39"/>
          <note vol="100" pos="96" len="12" pan="0" key="38"/>
          <note vol="100" pos="96" len="12" pan="0" key="33"/>
          <note vol="100" pos="96" len="12" pan="0" key="32"/>
          <note vol="112" pos="96" len="12" pan="0" key="24"/>
          <note vol="100" pos="108" len="12" pan="0" key="32"/>
          <note vol="100" pos="120" len="12" pan="0" key="39"/>
          <note vol="100" pos="120" len="12" pan="0" key="38"/>
          <note vol="100" pos="120" len="12" pan="0" key="33"/>
          <note vol="100" pos="120" len="12" pan="0" key="32"/>
          <note vol="100" pos="132" len="12" pan="0" key="39"/>
          <note vol="100" pos="132" len="12" pan="0" key="35"/>
          <note vol="100" pos="132" len="12" pan="0" key="33"/>
          <note vol="100" pos="132" len="12" pan="0" key="32"/>
          <note vol="112" pos="132" len="12" pan="0" key="24"/>
          <note vol="100" pos="144" len="12" pan="0" key="39"/>
          <note vol="100" pos="144" len="12" pan="0" key="32"/>
          <note vol="100" pos="156" len="12" pan="0" key="32"/>
          <note vol="100" pos="168" len="12" pan="0" key="39"/>
          <note vol="100" pos="168" len="12" pan="0" key="35"/>
          <note vol="100" pos="168" len="12" pan="0" key="33"/>
          <note vol="100" pos="168" len="12" pan="0" key="32"/>
          <note vol="129" pos="168" len="12" pan="0" key="29"/>
          <note vol="129" pos="168" len="12" pan="0" key="26"/>
          <note vol="100" pos="180" len="12" pan="0" key="32"/>
          <note vol="100" pos="192" len="12" pan="0" key="39"/>
          <note vol="100" pos="192" len="12" pan="0" key="38"/>
          <note vol="100" pos="192" len="12" pan="0" key="33"/>
          <note vol="100" pos="192" len="12" pan="0" key="32"/>
          <note vol="112" pos="192" len="12" pan="0" key="24"/>
          <note vol="100" pos="204" len="12" pan="0" key="32"/>
          <note vol="100" pos="216" len="12" pan="0" key="39"/>
          <note vol="100" pos="216" len="12" pan="0" key="32"/>
          <note vol="100" pos="228" len="12" pan="0" key="39"/>
          <note vol="100" pos="228" len="12" pan="0" key="38"/>
          <note vol="100" pos="228" len="12" pan="0" key="33"/>
          <note vol="100" pos="228" len="12" pan="0" key="32"/>
          <note vol="100" pos="240" len="12" pan="0" key="39"/>
          <note vol="100" pos="240" len="12" pan="0" key="35"/>
          <note vol="100" pos="240" len="12" pan="0" key="32"/>
          <note vol="112" pos="240" len="12" pan="0" key="24"/>
          <note vol="100" pos="252" len="12" pan="0" key="32"/>
          <note vol="100" pos="264" len="12" pan="0" key="39"/>
          <note vol="100" pos="264" len="12" pan="0" key="32"/>
          <note vol="100" pos="276" len="12" pan="0" key="39"/>
          <note vol="100" pos="276" len="12" pan="0" key="35"/>
          <note vol="100" pos="276" len="12" pan="0" key="33"/>
          <note vol="100" pos="276" len="12" pan="0" key="32"/>
          <note vol="100" pos="288" len="12" pan="0" key="39"/>
          <note vol="100" pos="288" len="12" pan="0" key="38"/>
          <note vol="100" pos="288" len="12" pan="0" key="33"/>
          <note vol="100" pos="288" len="12" pan="0" key="32"/>
          <note vol="112" pos="288" len="12" pan="0" key="24"/>
          <note vol="100" pos="300" len="12" pan="0" key="32"/>
          <note vol="100" pos="312" len="12" pan="0" key="39"/>
          <note vol="100" pos="312" len="12" pan="0" key="38"/>
          <note vol="100" pos="312" len="12" pan="0" key="33"/>
          <note vol="100" pos="312" len="12" pan="0" key="32"/>
          <note vol="100" pos="324" len="12" pan="0" key="39"/>
          <note vol="100" pos="324" len="12" pan="0" key="35"/>
          <note vol="100" pos="324" len="12" pan="0" key="33"/>
          <note vol="100" pos="324" len="12" pan="0" key="32"/>
          <note vol="112" pos="324" len="12" pan="0" key="24"/>
          <note vol="100" pos="336" len="12" pan="0" key="39"/>
          <note vol="100" pos="336" len="12" pan="0" key="32"/>
          <note vol="100" pos="348" len="12" pan="0" key="32"/>
          <note vol="100" pos="360" len="12" pan="0" key="39"/>
          <note vol="100" pos="360" len="12" pan="0" key="35"/>
          <note vol="100" pos="360" len="12" pan="0" key="33"/>
          <note vol="100" pos="360" len="12" pan="0" key="32"/>
          <note vol="123" pos="360" len="12" pan="0" key="29"/>
          <note vol="123" pos="360" len="12" pan="0" key="26"/>
          <note vol="100" pos="372" len="12" pan="0" key="32"/>
          <note vol="100" pos="384" len="12" pan="0" key="39"/>
          <note vol="100" pos="384" len="12" pan="0" key="38"/>
          <note vol="100" pos="384" len="12" pan="0" key="33"/>
          <note vol="100" pos="384" len="12" pan="0" key="32"/>
          <note vol="112" pos="384" len="12" pan="0" key="24"/>
          <note vol="100" pos="396" len="12" pan="0" key="32"/>
          <note vol="100" pos="408" len="12" pan="0" key="39"/>
          <note vol="100" pos="408" len="12" pan="0" key="32"/>
          <note vol="100" pos="420" len="12" pan="0" key="39"/>
          <note vol="100" pos="420" len="12" pan="0" key="38"/>
          <note vol="100" pos="420" len="12" pan="0" key="33"/>
          <note vol="100" pos="420" len="12" pan="0" key="32"/>
          <note vol="100" pos="432" len="12" pan="0" key="39"/>
          <note vol="100" pos="432" len="12" pan="0" key="35"/>
          <note vol="100" pos="432" len="12" pan="0" key="32"/>
          <note vol="112" pos="432" len="12" pan="0" key="24"/>
          <note vol="100" pos="444" len="12" pan="0" key="32"/>
          <note vol="100" pos="456" len="12" pan="0" key="39"/>
          <note vol="100" pos="456" len="12" pan="0" key="32"/>
          <note vol="100" pos="468" len="12" pan="0" key="39"/>
          <note vol="100" pos="468" len="12" pan="0" key="35"/>
          <note vol="100" pos="468" len="12" pan="0" key="33"/>
          <note vol="100" pos="468" len="12" pan="0" key="32"/>
          <note vol="100" pos="480" len="12" pan="0" key="39"/>
          <note vol="100" pos="480" len="12" pan="0" key="38"/>
          <note vol="100" pos="480" len="12" pan="0" key="33"/>
          <note vol="100" pos="480" len="12" pan="0" key="32"/>
          <note vol="112" pos="480" len="12" pan="0" key="24"/>
          <note vol="100" pos="492" len="12" pan="0" key="32"/>
          <note vol="100" pos="504" len="12" pan="0" key="39"/>
          <note vol="100" pos="504" len="12" pan="0" key="38"/>
          <note vol="100" pos="504" len="12" pan="0" key="33"/>
          <note vol="100" pos="504" len="12" pan="0" key="32"/>
          <note vol="100" pos="516" len="12" pan="0" key="39"/>
          <note vol="100" pos="516" len="12" pan="0" key="35"/>
          <note vol="100" pos="516" len="12" pan="0" key="33"/>
          <note vol="100" pos="516" len="12" pan="0" key="32"/>
          <note vol="112" pos="516" len="12" pan="0" key="24"/>
          <note vol="100" pos="528" len="12" pan="0" key="39"/>
          <note vol="100" pos="528" len="12" pan="0" key="32"/>
          <note vol="100" pos="540" len="12" pan="0" key="32"/>
          <note vol="100" pos="552" len="12" pan="0" key="39"/>
          <note vol="100" pos="552" len="12" pan="0" key="35"/>
          <note vol="100" pos="552" len="12" pan="0" key="33"/>
          <note vol="100" pos="552" len="12" pan="0" key="32"/>
          <note vol="110" pos="552" len="12" pan="0" key="29"/>
          <note vol="110" pos="552" len="12" pan="0" key="26"/>
          <note vol="117" pos="564" len="12" pan="0" key="32"/>
          <note vol="100" pos="576" len="12" pan="0" key="39"/>
          <note vol="100" pos="576" len="12" pan="0" key="38"/>
          <note vol="100" pos="576" len="12" pan="0" key="33"/>
          <note vol="100" pos="576" len="12" pan="0" key="32"/>
          <note vol="112" pos="576" len="12" pan="0" key="24"/>
          <note vol="100" pos="588" len="12" pan="0" key="32"/>
          <note vol="100" pos="600" len="12" pan="0" key="39"/>
          <note vol="100" pos="600" len="12" pan="0" key="32"/>
          <note vol="100" pos="612" len="12" pan="0" key="39"/>
          <note vol="100" pos="612" len="12" pan="0" key="38"/>
          <note vol="100" pos="612" len="12" pan="0" key="33"/>
          <note vol="100" pos="612" len="12" pan="0" key="32"/>
          <note vol="100" pos="624" len="12" pan="0" key="39"/>
          <note vol="100" pos="624" len="12" pan="0" key="35"/>
          <note vol="100" pos="624" len="12" pan="0" key="32"/>
          <note vol="112" pos="624" len="12" pan="0" key="24"/>
          <note vol="100" pos="636" len="12" pan="0" key="32"/>
          <note vol="100" pos="648" len="12" pan="0" key="39"/>
          <note vol="100" pos="648" len="12" pan="0" key="32"/>
          <note vol="100" pos="660" len="12" pan="0" key="39"/>
          <note vol="100" pos="660" len="12" pan="0" key="35"/>
          <note vol="100" pos="660" len="12" pan="0" key="33"/>
          <note vol="100" pos="660" len="12" pan="0" key="32"/>
          <note vol="81" pos="672" len="12" pan="0" key="39"/>
          <note vol="81" pos="672" len="12" pan="0" key="38"/>
          <note vol="81" pos="672" len="12" pan="0" key="33"/>
          <note vol="81" pos="672" len="12" pan="0" key="32"/>
          <note vol="93" pos="672" len="12" pan="0" key="24"/>
          <note vol="100" pos="684" len="12" pan="0" key="32"/>
          <note vol="100" pos="696" len="12" pan="0" key="39"/>
          <note vol="100" pos="696" len="12" pan="0" key="38"/>
          <note vol="100" pos="696" len="12" pan="0" key="33"/>
          <note vol="100" pos="696" len="12" pan="0" key="32"/>
          <note vol="100" pos="708" len="12" pan="0" key="39"/>
          <note vol="100" pos="708" len="12" pan="0" key="35"/>
          <note vol="100" pos="708" len="12" pan="0" key="33"/>
          <note vol="100" pos="708" len="12" pan="0" key="32"/>
          <note vol="112" pos="708" len="12" pan="0" key="24"/>
          <note vol="100" pos="720" len="12" pan="0" key="39"/>
          <note vol="100" pos="720" len="12" pan="0" key="32"/>
          <note vol="100" pos="732" len="12" pan="0" key="32"/>
          <note vol="100" pos="744" len="12" pan="0" key="39"/>
          <note vol="100" pos="744" len="12" pan="0" key="35"/>
          <note vol="100" pos="744" len="12" pan="0" key="33"/>
          <note vol="100" pos="744" len="12" pan="0" key="32"/>
          <note vol="129" pos="744" len="12" pan="0" key="29"/>
          <note vol="129" pos="744" len="12" pan="0" key="26"/>
          <note vol="100" pos="756" len="12" pan="0" key="32"/>
        </pattern>
        <pattern pos="3840" steps="16" muted="0" type="1" name="">
          <note vol="100" pos="0" len="12" pan="0" key="39"/>
          <note vol="100" pos="0" len="12" pan="0" key="38"/>
          <note vol="100" pos="0" len="12" pan="0" key="33"/>
          <note vol="100" pos="0" len="12" pan="0" key="32"/>
          <note vol="112" pos="0" len="12" pan="0" key="24"/>
          <note vol="100" pos="12" len="12" pan="0" key="32"/>
          <note vol="100" pos="24" len="12" pan="0" key="39"/>
          <note vol="100" pos="24" len="12" pan="0" key="32"/>
          <note vol="100" pos="36" len="12" pan="0" key="39"/>
          <note vol="100" pos="36" len="12" pan="0" key="38"/>
          <note vol="100" pos="36" len="12" pan="0" key="33"/>
          <note vol="100" pos="36" len="12" pan="0" key="32"/>
          <note vol="100" pos="48" len="12" pan="0" key="39"/>
          <note vol="100" pos="48" len="12" pan="0" key="35"/>
          <note vol="100" pos="48" len="12" pan="0" key="32"/>
          <note vol="112" pos="48" len="12" pan="0" key="24"/>
          <note vol="100" pos="60" len="12" pan="0" key="32"/>
          <note vol="100" pos="72" len="12" pan="0" key="39"/>
          <note vol="100" pos="72" len="12" pan="0" key="32"/>
          <note vol="100" pos="84" len="12" pan="0" key="39"/>
          <note vol="100" pos="84" len="12" pan="0" key="35"/>
          <note vol="100" pos="84" len="12" pan="0" key="33"/>
          <note vol="100" pos="84" len="12" pan="0" key="32"/>
          <note vol="100" pos="96" len="12" pan="0" key="39"/>
          <note vol="100" pos="96" len="12" pan="0" key="38"/>
          <note vol="100" pos="96" len="12" pan="0" key="33"/>
          <note vol="100" pos="96" len="12" pan="0" key="32"/>
          <note vol="112" pos="96" len="12" pan="0" key="24"/>
          <note vol="100" pos="108" len="12" pan="0" key="32"/>
          <note vol="100" pos="120" len="12" pan="0" key="39"/>
          <note vol="100" pos="120" len="12" pan="0" key="38"/>
          <note vol="100" pos="120" len="12" pan="0" key="33"/>
          <note vol="100" pos="120" len="12" pan="0" key="32"/>
          <note vol="100" pos="132" len="12" pan="0" key="39"/>
          <note vol="100" pos="132" len="12" pan="0" key="35"/>
          <note vol="100" pos="132" len="12" pan="0" key="33"/>
          <note vol="100" pos="132" len="12" pan="0" key="32"/>
          <note vol="112" pos="132" len="12" pan="0" key="24"/>
          <note vol="100" pos="144" len="12" pan="0" key="39"/>
          <note vol="100" pos="144" len="12" pan="0" key="32"/>
          <note vol="100" pos="156" len="12" pan="0" key="32"/>
          <note vol="100" pos="168" len="12" pan="0" key="39"/>
          <note vol="100" pos="168" len="12" pan="0" key="35"/>
          <note vol="100" pos="168" len="12" pan="0" key="33"/>
          <note vol="100" pos="168" len="12" pan="0" key="32"/>
          <note vol="129" pos="168" len="12" pan="0" key="29"/>
          <note vol="129" pos="168" len="12" pan="0" key="26"/>
          <note vol="100" pos="180" len="12" pan="0" key="32"/>
          <note vol="100" pos="192" len="12" pan="0" key="39"/>
          <note vol="100" pos="192" len="12" pan="0" key="38"/>
          <note vol="100" pos="192" len="12" pan="0" key="33"/>
          <note vol="100" pos="192" len="12" pan="0" key="32"/>
          <note vol="112" pos="192" len="12" pan="0" key="24"/>
          <note vol="100" pos="204" len="12" pan="0" key="32"/>
          <note vol="100" pos="216" len="12" pan="0" key="39"/>
          <note vol="100" pos="216" len="12" pan="0" key="32"/>
          <note vol="100" pos="228" len="12" pan="0" key="39"/>
          <note vol="100" pos="228" len="12" pan="0" key="38"/>
          <note vol="100" pos="228" len="12" pan="0" key="33"/>
          <note vol="100" pos="228" len="12" pan="0" key="32"/>
          <note vol="100" pos="240" len="12" pan="0" key="39"/>
          <note vol="100" pos="240" len="12" pan="0" key="35"/>
          <note vol="100" pos="240" len="12" pan="0" key="32"/>
          <note vol="112" pos="240" len="12" pan="0" key="24"/>
          <note vol="100" pos="252" len="12" pan="0" key="32"/>
          <note vol="100" pos="264" len="12" pan="0" key="39"/>
          <note vol="100" pos="264" len="12" pan="0" key="32"/>
          <note vol="100" pos="276" len="12" pan="0" key="39"/>
          <note vol="100" pos="276" len="12" pan="0" key="35"/>
          <note vol="100" pos="276" len="12" pan="0" key="33"/>
          <note vol="100" pos="276" len="12" pan="0" key="32"/>
          <note vol="100" pos="288" len="12" pan="0" key="39"/>
          <note vol="100" pos="288" len="12" pan="0" key="38"/>
          <note vol="100" pos="288" len="12" pan="0" key="33"/>
          <note vol="100" pos="288" len="12" pan="0" key="32"/>
          <note vol="112" pos="288" len="12" pan="0" key="24"/>
          <note vol="100" pos="300" len="12" pan="0" key="32"/>
          <note vol="100" pos="312" len="12" pan="0" key="39"/>
          <note vol="100" pos="312" len="12" pan="0" key="38"/>
          <note vol="100" pos="312" len="12" pan="0" key="33"/>
          <note vol="100" pos="312" len="12" pan="0" key="32"/>
          <note vol="100" pos="324" len="12" pan="0" key="39"/>
          <note vol="100" pos="324" len="12" pan="0" key="35"/>
          <note vol="100" pos="324" len="12" pan="0" key="33"/>
          <note vol="100" pos="324" len="12" pan="0" key="32"/>
          <note vol="112" pos="324" len="12" pan="0" key="24"/>
          <note vol="100" pos="336" len="12" pan="0" key="39"/>
          <note vol="100" pos="336" len="12" pan="0" key="32"/>
          <note vol="100" pos="348" len="12" pan="0" key="32"/>
          <note vol="100" pos="360" len="12" pan="0" key="39"/>
          <note vol="100" pos="360" len="12" pan="0" key="35"/>
          <note vol="100" pos="360" len="12" pan="0" key="33"/>
          <note vol="100" pos="360" len="12" pan="0" key="32"/>
          <note vol="123" pos="360" len="12" pan="0" key="29"/>
          <note vol="123" pos="360" len="12" pan="0" key="26"/>
          <note vol="100" pos="372" len="12" pan="0" key="32"/>
          <note vol="100" pos="384" len="12" pan="0" key="39"/>
          <note vol="100" pos="384" len="12" pan="0" key="38"/>
          <note vol="100" pos="384" len="12" pan="0" key="33"/>
          <note vol="100" pos="384" len="12" pan="0" key="32"/>
          <note vol="112" pos="384" len="12" pan="0" key="24"/>
          <note vol="100" pos="396" len="12" pan="0" key="32"/>
          <note vol="100" pos="408" len="12" pan="0" key="39"/>
          <note vol="100" pos="408" len="12" pan="0" key="32"/>
          <note vol="100" pos="420" len="12" pan="0" key="39"/>
          <note vol="100" pos="420" len="12" pan="0" key="38"/>
          <note vol="100" pos="420" len="12" pan="0" key="33"/>
          <note vol="100" pos="420" len="12" pan="0" key="32"/>
          <note vol="100" pos="432" len="12" pan="0" key="39"/>
          <note vol="100" pos="432" len="12" pan="0" key="35"/>
          <note vol="100" pos="432" len="12" pan="0" key="32"/>
          <note vol="112" pos="432" len="12" pan="0" key="24"/>
          <note vol="100" pos="444" len="12" pan="0" key="32"/>
          <note vol="100" pos="456" len="12" pan="0" key="39"/>
          <note vol="100" pos="456" len="12" pan="0" key="32"/>
          <note vol="100" pos="468" len="12" pan="0" key="39"/>
          <note vol="100" pos="468" len="12" pan="0" key="35"/>
          <note vol="100" pos="468" len="12" pan="0" key="33"/>
          <note vol="100" pos="468" len="12" pan="0" key="32"/>
          <note vol="100" pos="480" len="12" pan="0" key="39"/>
          <note vol="100" pos="480" len="12" pan="0" key="38"/>
          <note vol="100" pos="480" len="12" pan="0" key="33"/>
          <note vol="100" pos="480" len="12" pan="0" key="32"/>
          <note vol="112" pos="480" len="12" pan="0" key="24"/>
          <note vol="100" pos="492" len="12" pan="0" key="32"/>
          <note vol="100" pos="504" len="12" pan="0" key="39"/>
          <note vol="100" pos="504" len="12" pan="0" key="38"/>
          <note vol="100" pos="504" len="12" pan="0" key="33"/>
          <note vol="100" pos="504" len="12" pan="0" key="32"/>
          <note vol="100" pos="516" len="12" pan="0" key="39"/>
          <note vol="100" pos="516" len="12" pan="0" key="35"/>
          <note vol="100" pos="516" len="12" pan="0" key="33"/>
          <note vol="100" pos="516" len="12" pan="0" key="32"/>
          <note vol="112" pos="516" len="12" pan="0" key="24"/>
          <note vol="100" pos="528" len="12" pan="0" key="39"/>
          <note vol="100" pos="528" len="12" pan="0" key="32"/>
          <note vol="100" pos="540" len="12" pan="0" key="32"/>
          <note vol="100" pos="552" len="12" pan="0" key="39"/>
          <note vol="100" pos="552" len="12" pan="0" key="35"/>
          <note vol="100" pos="552" len="12" pan="0" key="33"/>
          <note vol="100" pos="552" len="12" pan="0" key="32"/>
          <note vol="110" pos="552" len="12" pan="0" key="29"/>
          <note vol="110" pos="552" len="12" pan="0" key="26"/>
          <note vol="117" pos="564" len="12" pan="0" key="32"/>
          <note vol="100" pos="576" len="12" pan="0" key="39"/>
          <note vol="100" pos="576" len="12" pan="0" key="38"/>
          <note vol="100" pos="576" len="12" pan="0" key="33"/>
          <note vol="100" pos="576" len="12" pan="0" key="32"/>
          <note vol="112" pos="576" len="12" pan="0" key="24"/>
          <note vol="100" pos="588" len="12" pan="0" key="32"/>
          <note vol="100" pos="600" len="12" pan="0" key="39"/>
          <note vol="100" pos="600" len="12" pan="0" key="32"/>
          <note vol="100" pos="612" len="12" pan="0" key="39"/>
          <note vol="100" pos="612" len="12" pan="0" key="38"/>
          <note vol="100" pos="612" len="12" pan="0" key="33"/>
          <note vol="100" pos="612" len="12" pan="0" key="32"/>
          <note vol="100" pos="624" len="12" pan="0" key="39"/>
          <note vol="100" pos="624" len="12" pan="0" key="35"/>
          <note vol="100" pos="624" len="12" pan="0" key="32"/>
          <note vol="112" pos="624" len="12" pan="0" key="24"/>
          <note vol="100" pos="636" len="12" pan="0" key="32"/>
          <note vol="100" pos="648" len="12" pan="0" key="39"/>
          <note vol="100" pos="648" len="12" pan="0" key="32"/>
          <note vol="100" pos="660" len="12" pan="0" key="39"/>
          <note vol="100" pos="660" len="12" pan="0" key="35"/>
          <note vol="100" pos="660" len="12" pan="0" key="33"/>
          <note vol="100" pos="660" len="12" pan="0" key="32"/>
          <note vol="81" pos="672" len="12" pan="0" key="39"/>
          <note vol="81" pos="672" len="12" pan="0" key="38"/>
          <note vol="81" pos="672" len="12" pan="0" key="33"/>
          <note vol="81" pos="672" len="12" pan="0" key="32"/>
          <note vol="93" pos="672" len="12" pan="0" key="24"/>
          <note vol="100" pos="684" len="12" pan="0" key="32"/>
          <note vol="100" pos="696" len="12" pan="0" key="39"/>
          <note vol="100" pos="696" len="12" pan="0" key="38"/>
          <note vol="100" pos="696" len="12" pan="0" key="33"/>
          <note vol="100" pos="696" len="12" pan="0" key="32"/>
          <note vol="100" pos="708" len="12" pan="0" key="39"/>
          <note vol="100" pos="708" len="12" pan="0" key="35"/>
          <note vol="100" pos="708" len="12" pan="0" key="33"/>
          <note vol="100" pos="708" len="12" pan="0" key="32"/>
          <note vol="112" pos="708" len="12" pan="0" key="24"/>
          <note vol="100" pos="720" len="12" pan="0" key="39"/>
          <note vol="100" pos="720" len="12" pan="0" key="32"/>
          <note vol="100" pos="732" len="12" pan="0" key="32"/>
          <note vol="100" pos="744" len="12" pan="0" key="39"/>
          <note vol="100" pos="744" len="12" pan="0" key="35"/>
          <note vol="100" pos="744" len="12" pan="0" key="33"/>
          <note vol="100" pos="744" len="12" pan="0" key="32"/>
          <note vol="129" pos="744" len="12" pan="0" key="29"/>
          <note vol="129" pos="744" len="12" pan="0" key="26"/>
          <note vol="100" pos="756" len="12" pan="0" key="32"/>
        </pattern>
        <pattern pos="4608" steps="16" muted="0" type="1" name="">
          <note vol="100" pos="0" len="12" pan="0" key="39"/>
          <note vol="100" pos="0" len="12" pan="0" key="38"/>
          <note vol="100" pos="0" len="12" pan="0" key="33"/>
          <note vol="100" pos="0" len="12" pan="0" key="32"/>
          <note vol="112" pos="0" len="12" pan="0" key="24"/>
          <note vol="100" pos="12" len="12" pan="0" key="32"/>
          <note vol="100" pos="24" len="12" pan="0" key="39"/>
          <note vol="100" pos="24" len="12" pan="0" key="32"/>
          <note vol="100" pos="36" len="12" pan="0" key="39"/>
          <note vol="100" pos="36" len="12" pan="0" key="38"/>
          <note vol="100" pos="36" len="12" pan="0" key="33"/>
          <note vol="100" pos="36" len="12" pan="0" key="32"/>
          <note vol="100" pos="48" len="12" pan="0" key="39"/>
          <note vol="100" pos="48" len="12" pan="0" key="35"/>
          <note vol="100" pos="48" len="12" pan="0" key="32"/>
          <note vol="112" pos="48" len="12" pan="0" key="24"/>
          <note vol="100" pos="60" len="12" pan="0" key="32"/>
          <note vol="100" pos="72" len="12" pan="0" key="39"/>
          <note vol="100" pos="72" len="12" pan="0" key="32"/>
          <note vol="100" pos="84" len="12" pan="0" key="39"/>
          <note vol="100" pos="84" len="12" pan="0" key="35"/>
          <note vol="100" pos="84" len="12" pan="0" key="33"/>
          <note vol="100" pos="84" len="12" pan="0" key="32"/>
          <note vol="100" pos="96" len="12" pan="0" key="39"/>
          <note vol="100" pos="96" len="12" pan="0" key="38"/>
          <note vol="100" pos="96" len="12" pan="0" key="33"/>
          <note vol="100" pos="96" len="12" pan="0" key="32"/>
          <note vol="112" pos="96" len="12" pan="0" key="24"/>
          <note vol="100" pos="108" len="12" pan="0" key="32"/>
          <note vol="100" pos="120" len="12" pan="0" key="39"/>
          <note vol="100" pos="120" len="12" pan="0" key="38"/>
          <note vol="100" pos="120" len="12" pan="0" key="33"/>
          <note vol="100" pos="120" len="12" pan="0" key="32"/>
          <note vol="100" pos="132" len="12" pan="0" key="39"/>
          <note vol="100" pos="132" len="12" pan="0" key="35"/>
          <note vol="100" pos="132" len="12" pan="0" key="33"/>
          <note vol="100" pos="132" len="12" pan="0" key="32"/>
          <note vol="112" pos="132" len="12" pan="0" key="24"/>
          <note vol="100" pos="144" len="12" pan="0" key="39"/>
          <note vol="100" pos="144" len="12" pan="0" key="32"/>
          <note vol="100" pos="156" len="12" pan="0" key="32"/>
          <note vol="100" pos="168" len="12" pan="0" key="39"/>
          <note vol="100" pos="168" len="12" pan="0" key="35"/>
          <note vol="100" pos="168" len="12" pan="0" key="33"/>
          <note vol="100" pos="168" len="12" pan="0" key="32"/>
          <note vol="129" pos="168" len="12" pan="0" key="29"/>
          <note vol="129" pos="168" len="12" pan="0" key="26"/>
          <note vol="100" pos="180" len="12" pan="0" key="32"/>
          <note vol="100" pos="192" len="12" pan="0" key="39"/>
          <note vol="100" pos="192" len="12" pan="0" key="38"/>
          <note vol="100" pos="192" len="12" pan="0" key="33"/>
          <note vol="100" pos="192" len="12" pan="0" key="32"/>
          <note vol="112" pos="192" len="12" pan="0" key="24"/>
          <note vol="100" pos="204" len="12" pan="0" key="32"/>
          <note vol="100" pos="216" len="12" pan="0" key="39"/>
          <note vol="100" pos="216" len="12" pan="0" key="32"/>
          <note vol="100" pos="228" len="12" pan="0" key="39"/>
          <note vol="100" pos="228" len="12" pan="0" key="38"/>
          <note vol="100" pos="228" len="12" pan="0" key="33"/>
          <note vol="100" pos="228" len="12" pan="0" key="32"/>
          <note vol="100" pos="240" len="12" pan="0" key="39"/>
          <note vol="100" pos="240" len="12" pan="0" key="35"/>
          <note vol="100" pos="240" len="12" pan="0" key="32"/>
          <note vol="112" pos="240" len="12" pan="0" key="24"/>
          <note vol="100" pos="252" len="12" pan="0" key="32"/>
          <note vol="100" pos="264" len="12" pan="0" key="39"/>
          <note vol="100" pos="264" len="12" pan="0" key="32"/>
          <note vol="100" pos="276" len="12" pan="0" key="39"/>
          <note vol="100" pos="276" len="12" pan="0" key="35"/>
          <note vol="100" pos="276" len="12" pan="0" key="33"/>
          <note vol="100" pos="276" len="12" pan="0" key="32"/>
          <note vol="100" pos="288" len="12" pan="0" key="39"/>
          <note vol="100" pos="288" len="12" pan="0" key="38"/>
          <note vol="100" pos="288" len="12" pan="0" key="33"/>
          <note vol="100" pos="288" len="12" pan="0" key="32"/>
          <note vol="112" pos="288" len="12" pan="0" key="24"/>
          <note vol="100" pos="300" len="12" pan="0" key="32"/>
          <note vol="100" pos="312" len="12" pan="0" key="39"/>
          <note vol="100" pos="312" len="12" pan="0" key="38"/>
          <note vol="100" pos="312" len="12" pan="0" key="33"/>
          <note vol="100" pos="312" len="12" pan="0" key="32"/>
          <note vol="100" pos="324" len="12" pan="0" key="39"/>
          <note vol="100" pos="324" len="12" pan="0" key="35"/>
          <note vol="100" pos="324" len="12" pan="0" key="33"/>
          <note vol="100" pos="324" len="12" pan="0" key="32"/>
          <note vol="112" pos="324" len="12" pan="0" key="24"/>
          <note vol="100" pos="336" len="12" pan="0" key="39"/>
          <note vol="100" pos="336" len="12" pan="0" key="32"/>
          <note vol="100" pos="348" len="12" pan="0" key="32"/>
          <note vol="100" pos="360" len="12" pan="0" key="39"/>
          <note vol="100" pos="360" len="12" pan="0" key="35"/>
          <note vol="100" pos="360" len="12" pan="0" key="33"/>
          <note vol="100" pos="360" len="12" pan="0" key="32"/>
          <note vol="123" pos="360" len="12" pan="0" key="29"/>
          <note vol="123" pos="360" len="12" pan="0" key="26"/>
          <note vol="100" pos="372" len="12" pan="0" key="32"/>
          <note vol="100" pos="384" len="12" pan="0" key="39"/>
          <note vol="100" pos="384" len="12" pan="0" key="38"/>
          <note vol="100" pos="384" len="12" pan="0" key="33"/>
          <note vol="100" pos="384" len="12" pan="0" key="32"/>
          <note vol="112" pos="384" len="12" pan="0" key="24"/>
          <note vol="100" pos="396" len="12" pan="0" key="32"/>
          <note vol="100" pos="408" len="12" pan="0" key="39"/>
          <note vol="100" pos="408" len="12" pan="0" key="32"/>
          <note vol="100" pos="420" len="12" pan="0" key="39"/>
          <note vol="100" pos="420" len="12" pan="0" key="38"/>
          <note vol="100" pos="420" len="12" pan="0" key="33"/>
          <note vol="100" pos="420" len="12" pan="0" key="32"/>
          <note vol="100" pos="432" len="12" pan="0" key="39"/>
          <note vol="100" pos="432" len="12" pan="0" key="35"/>
          <note vol="100" pos="432" len="12" pan="0" key="32"/>
          <note vol="112" pos="432" len="12" pan="0" key="24"/>
          <note vol="100" pos="444" len="12" pan="0" key="32"/>
          <note vol="100" pos="456" len="12" pan="0" key="39"/>
          <note vol="100" pos="456" len="12" pan="0" key="32"/>
          <note vol="100" pos="468" len="12" pan="0" key="39"/>
          <note vol="100" pos="468" len="12" pan="0" key="35"/>
          <note vol="100" pos="468" len="12" pan="0" key="33"/>
          <note vol="100" pos="468" len="12" pan="0" key="32"/>
          <note vol="100" pos="480" len="12" pan="0" key="39"/>
          <note vol="100" pos="480" len="12" pan="0" key="38"/>
          <note vol="100" pos="480" len="12" pan="0" key="33"/>
          <note vol="100" pos="480" len="12" pan="0" key="32"/>
          <note vol="112" pos="480" len="12" pan="0" key="24"/>
          <note vol="100" pos="492" len="12" pan="0" key="32"/>
          <note vol="100" pos="504" len="12" pan="0" key="39"/>
          <note vol="100" pos="504" len="12" pan="0" key="38"/>
          <note vol="100" pos="504" len="12" pan="0" key="33"/>
          <note vol="100" pos="504" len="12" pan="0" key="32"/>
          <note vol="100" pos="516" len="12" pan="0" key="39"/>
          <note vol="100" pos="516" len="12" pan="0" key="35"/>
          <note vol="100" pos="516" len="12" pan="0" key="33"/>
          <note vol="100" pos="516" len="12" pan="0" key="32"/>
          <note vol="112" pos="516" len="12" pan="0" key="24"/>
          <note vol="100" pos="528" len="12" pan="0" key="39"/>
          <note vol="100" pos="528" len="12" pan="0" key="32"/>
          <note vol="100" pos="540" len="12" pan="0" key="32"/>
          <note vol="100" pos="552" len="12" pan="0" key="39"/>
          <note vol="100" pos="552" len="12" pan="0" key="35"/>
          <note vol="100" pos="552" len="12" pan="0" key="33"/>
          <note vol="100" pos="552" len="12" pan="0" key="32"/>
          <note vol="110" pos="552" len="12" pan="0" key="29"/>
          <note vol="110" pos="552" len="12" pan="0" key="26"/>
          <note vol="117" pos="564" len="12" pan="0" key="32"/>
          <note vol="100" pos="576" len="12" pan="0" key="39"/>
          <note vol="100" pos="576" len="12" pan="0" key="38"/>
          <note vol="100" pos="576" len="12" pan="0" key="33"/>
          <note vol="100" pos="576" len="12" pan="0" key="32"/>
          <note vol="112" pos="576" len="12" pan="0" key="24"/>
          <note vol="100" pos="588" len="12" pan="0" key="32"/>
          <note vol="100" pos="600" len="12" pan="0" key="39"/>
          <note vol="100" pos="600" len="12" pan="0" key="32"/>
          <note vol="100" pos="612" len="12" pan="0" key="39"/>
          <note vol="100" pos="612" len="12" pan="0" key="38"/>
          <note vol="100" pos="612" len="12" pan="0" key="33"/>
          <note vol="100" pos="612" len="12" pan="0" key="32"/>
          <note vol="100" pos="624" len="12" pan="0" key="39"/>
          <note vol="100" pos="624" len="12" pan="0" key="35"/>
          <note vol="100" pos="624" len="12" pan="0" key="32"/>
          <note vol="112" pos="624" len="12" pan="0" key="24"/>
          <note vol="100" pos="636" len="12" pan="0" key="32"/>
          <note vol="100" pos="648" len="12" pan="0" key="39"/>
          <note vol="100" pos="648" len="12" pan="0" key="32"/>
          <note vol="100" pos="660" len="12" pan="0" key="39"/>
          <note vol="100" pos="660" len="12" pan="0" key="35"/>
          <note vol="100" pos="660" len="12" pan="0" key="33"/>
          <note vol="100" pos="660" len="12" pan="0" key="32"/>
          <note vol="81" pos="672" len="12" pan="0" key="39"/>
          <note vol="81" pos="672" len="12" pan="0" key="38"/>
          <note vol="81" pos="672" len="12" pan="0" key="33"/>
          <note vol="81" pos="672" len="12" pan="0" key="32"/>
          <note vol="93" pos="672" len="12" pan="0" key="24"/>
          <note vol="100" pos="684" len="12" pan="0" key="32"/>
          <note vol="100" pos="696" len="12" pan="0" key="39"/>
          <note vol="100" pos="696" len="12" pan="0" key="38"/>
          <note vol="100" pos="696" len="12" pan="0" key="33"/>
          <note vol="100" pos="696" len="12" pan="0" key="32"/>
          <note vol="100" pos="708" len="12" pan="0" key="39"/>
          <note vol="100" pos="708" len="12" pan="0" key="35"/>
          <note vol="100" pos="708" len="12" pan="0" key="33"/>
          <note vol="100" pos="708" len="12" pan="0" key="32"/>
          <note vol="112" pos="708" len="12" pan="0" key="24"/>
          <note vol="100" pos="720" len="12" pan="0" key="39"/>
          <note vol="100" pos="720" len="12" pan="0" key="32"/>
          <note vol="100" pos="732" len="12" pan="0" key="32"/>
          <note vol="100" pos="744" len="12" pan="0" key="39"/>
          <note vol="100" pos="744" len="12" pan="0" key="35"/>
          <note vol="100" pos="744" len="12" pan="0" key="33"/>
          <note vol="100" pos="744" len="12" pan="0" key="32"/>
          <note vol="129" pos="744" len="12" pan="0" key="29"/>
          <note vol="129" pos="744" len="12" pan="0" key="26"/>
          <note vol="100" pos="756" len="12" pan="0" key="32"/>
        </pattern>
        <pattern pos="5376" steps="16" muted="0" type="1" name="">
          <note vol="100" pos="0" len="12" pan="0" key="39"/>
          <note vol="100" pos="0" len="12" pan="0" key="38"/>
          <note vol="100" pos="0" len="12" pan="0" key="33"/>
          <note vol="100" pos="0" len="12" pan="0" key="32"/>
          <note vol="112" pos="0" len="12" pan="0" key="24"/>
          <note vol="100" pos="12" len="12" pan="0" key="32"/>
          <note vol="100" pos="24" len="12" pan="0" key="39"/>
          <note vol="100" pos="24" len="12" pan="0" key="32"/>
          <note vol="100" pos="36" len="12" pan="0" key="39"/>
          <note vol="100" pos="36" len="12" pan="0" key="38"/>
          <note vol="100" pos="36" len="12" pan="0" key="33"/>
          <note vol="100" pos="36" len="12" pan="0" key="32"/>
          <note vol="100" pos="48" len="12" pan="0" key="39"/>
          <note vol="100" pos="48" len="12" pan="0" key="35"/>
          <note vol="100" pos="48" len="12" pan="0" key="32"/>
          <note vol="112" pos="48" len="12" pan="0" key="24"/>
          <note vol="100" pos="60" len="12" pan="0" key="32"/>
          <note vol="100" pos="72" len="12" pan="0" key="39"/>
          <note vol="100" pos="72" len="12" pan="0" key="32"/>
          <note vol="100" pos="84" len="12" pan="0" key="39"/>
          <note vol="100" pos="84" len="12" pan="0" key="35"/>
          <note vol="100" pos="84" len="12" pan="0" key="33"/>
          <note vol="100" pos="84" len="12" pan="0" key="32"/>
          <note vol="100" pos="96" len="12" pan="0" key="39"/>
          <note vol="100" pos="96" len="12" pan="0" key="38"/>
          <note vol="100" pos="96" len="12" pan="0" key="33"/>
          <note vol="100" pos="96" len="12" pan="0" key="32"/>
          <note vol="112" pos="96" len="12" pan="0" key="24"/>
          <note vol="100" pos="108" len="12" pan="0" key="32"/>
          <note vol="100" pos="120" len="12" pan="0" key="39"/>
          <note vol="100" pos="120" len="12" pan="0" key="38"/>
          <note vol="100" pos="120" len="12" pan="0" key="33"/>
          <note vol="100" pos="120" len="12" pan="0" key="32"/>
          <note vol="100" pos="132" len="12" pan="0" key="39"/>
          <note vol="100" pos="132" len="12" pan="0" key="35"/>
          <note vol="100" pos="132" len="12" pan="0" key="33"/>
          <note vol="100" pos="132" len="12" pan="0" key="32"/>
          <note vol="112" pos="132" len="12" pan="0" key="24"/>
          <note vol="100" pos="144" len="12" pan="0" key="39"/>
          <note vol="100" pos="144" len="12" pan="0" key="32"/>
          <note vol="100" pos="156" len="12" pan="0" key="32"/>
          <note vol="100" pos="168" len="12" pan="0" key="39"/>
          <note vol="100" pos="168" len="12" pan="0" key="35"/>
          <note vol="100" pos="168" len="12" pan="0" key="33"/>
          <note vol="100" pos="168" len="12" pan="0" key="32"/>
          <note vol="129" pos="168" len="12" pan="0" key="29"/>
          <note vol="129" pos="168" len="12" pan="0" key="26"/>
          <note vol="100" pos="180" len="12" pan="0" key="32"/>
          <note vol="100" pos="192" len="12" pan="0" key="39"/>
          <note vol="100" pos="192" len="12" pan="0" key="38"/>
          <note vol="100" pos="192" len="12" pan="0" key="33"/>
          <note vol="100" pos="192" len="12" pan="0" key="32"/>
          <note vol="112" pos="192" len="12" pan="0" key="24"/>
          <note vol="100" pos="204" len="12" pan="0" key="32"/>
          <note vol="100" pos="216" len="12" pan="0" key="39"/>
          <note vol="100" pos="216" len="12" pan="0" key="32"/>
          <note vol="100" pos="228" len="12" pan="0" key="39"/>
          <note vol="100" pos="228" len="12" pan="0" key="38"/>
          <note vol="100" pos="228" len="12" pan="0" key="33"/>
          <note vol="100" pos="228" len="12" pan="0" key="32"/>
          <note vol="100" pos="240" len="12" pan="0" key="39"/>
          <note vol="100" pos="240" len="12" pan="0" key="35"/>
          <note vol="100" pos="240" len="12" pan="0" key="32"/>
          <note vol="112" pos="240" len="12" pan="0" key="24"/>
          <note vol="100" pos="252" len="12" pan="0" key="32"/>
          <note vol="100" pos="264" len="12" pan="0" key="39"/>
          <note vol="100" pos="264" len="12" pan="0" key="32"/>
          <note vol="100" pos="276" len="12" pan="0" key="39"/>
          <note vol="100" pos="276" len="12" pan="0" key="35"/>
          <note vol="100" pos="276" len="12" pan="0" key="33"/>
          <note vol="100" pos="276" len="12" pan="0" key="32"/>
          <note vol="100" pos="288" len="12" pan="0" key="39"/>
          <note vol="100" pos="288" len="12" pan="0" key="38"/>
          <note vol="100" pos="288" len="12" pan="0" key="33"/>
          <note vol="100" pos="288" len="12" pan="0" key="32"/>
          <note vol="112" pos="288" len="12" pan="0" key="24"/>
          <note vol="100" pos="300" len="12" pan="0" key="32"/>
          <note vol="100" pos="312" len="12" pan="0" key="39"/>
          <note vol="100" pos="312" len="12" pan="0" key="38"/>
          <note vol="100" pos="312" len="12" pan="0" key="33"/>
          <note vol="100" pos="312" len="12" pan="0" key="32"/>
          <note vol="100" pos="324" len="12" pan="0" key="39"/>
          <note vol="100" pos="324" len="12" pan="0" key="35"/>
          <note vol="100" pos="324" len="12" pan="0" key="33"/>
          <note vol="100" pos="324" len="12" pan="0" key="32"/>
          <note vol="112" pos="324" len="12" pan="0" key="24"/>
          <note vol="100" pos="336" len="12" pan="0" key="39"/>
          <note vol="100" pos="336" len="12" pan="0" key="32"/>
          <note vol="100" pos="348" len="12" pan="0" key="32"/>
          <note vol="100" pos="360" len="12" pan="0" key="39"/>
          <note vol="100" pos="360" len="12" pan="0" key="35"/>
          <note vol="100" pos="360" len="12" pan="0" key="33"/>
          <note vol="100" pos="360" len="12" pan="0" key="32"/>
          <note vol="123" pos="360" len="12" pan="0" key="29"/>
          <note vol="123" pos="360" len="12" pan="0" key="26"/>
          <note vol="100" pos="372" len="12" pan="0" key="32"/>
          <note vol="100" pos="384" len="12" pan="0" key="39"/>
          <note vol="100" pos="384" len="12" pan="0" key="38"/>
          <note vol="100" pos="384" len="12" pan="0" key="33"/>
          <note vol="100" pos="384" len="12" pan="0" key="32"/>
          <note vol="112" pos="384" len="12" pan="0" key="24"/>
          <note vol="100" pos="396" len="12" pan="0" key="32"/>
          <note vol="100" pos="408" len="12" pan="0" key="39"/>
          <note vol="100" pos="408" len="12" pan="0" key="32"/>
          <note vol="100" pos="420" len="12" pan="0" key="39"/>
          <note vol="100" pos="420" len="12" pan="0" key="38"/>
          <note vol="100" pos="420" len="12" pan="0" key="33"/>
          <note vol="100" pos="420" len="12" pan="0" key="32"/>
          <note vol="100" pos="432" len="12" pan="0" key="39"/>
          <note vol="100" pos="432" len="12" pan="0" key="35"/>
          <note vol="100" pos="432" len="12" pan="0" key="32"/>
          <note vol="112" pos="432" len="12" pan="0" key="24"/>
          <note vol="100" pos="444" len="12" pan="0" key="32"/>
          <note vol="100" pos="456" len="12" pan="0" key="39"/>
          <note vol="100" pos="456" len="12" pan="0" key="32"/>
          <note vol="100" pos="468" len="12" pan="0" key="39"/>
          <note vol="100" pos="468" len="12" pan="0" key="35"/>
          <note vol="100" pos="468" len="12" pan="0" key="33"/>
          <note vol="100" pos="468" len="12" pan="0" key="32"/>
          <note vol="100" pos="480" len="12" pan="0" key="39"/>
          <note vol="100" pos="480" len="12" pan="0" key="38"/>
          <note vol="100" pos="480" len="12" pan="0" key="33"/>
          <note vol="100" pos="480" len="12" pan="0" key="32"/>
          <note vol="112" pos="480" len="12" pan="0" key="24"/>
          <note vol="100" pos="492" len="12" pan="0" key="32"/>
          <note vol="100" pos="504" len="12" pan="0" key="39"/>
          <note vol="100" pos="504" len="12" pan="0" key="38"/>
          <note vol="100" pos="504" len="12" pan="0" key="33"/>
          <note vol="100" pos="504" len="12" pan="0" key="32"/>
          <note vol="100" pos="516" len="12" pan="0" key="39"/>
          <note vol="100" pos="516" len="12" pan="0" key="35"/>
          <note vol="100" pos="516" len="12" pan="0" key="33"/>
          <note vol="100" pos="516" len="12" pan="0" key="32"/>
          <note vol="112" pos="516" len="12" pan="0" key="24"/>
          <note vol="100" pos="528" len="12" pan="0" key="39"/>
          <note vol="100" pos="528" len="12" pan="0" key="32"/>
          <note vol="100" pos="540" len="12" pan="0" key="32"/>
          <note vol="100" pos="552" len="12" pan="0" key="39"/>
          <note vol="100" pos="552" len="12" pan="0" key="35"/>
          <note vol="100" pos="552" len="12" pan="0" key="33"/>
          <note vol="100" pos="552" len="12" pan="0" key="32"/>
          <note vol="110" pos="552" len="12" pan="0" key="29"/>
          <note vol="110" pos="552" len="12" pan="0" key="26"/>
          <note vol="117" pos="564" len="12" pan="0" key="32"/>
          <note vol="100" pos="576" len="12" pan="0" key="39"/>
          <note vol="100" pos="576" len="12" pan="0" key="38"/>
          <note vol="100" pos="576" len="12" pan="0" key="33"/>
          <note vol="100" pos="576" len="12" pan="0" key="32"/>
          <note vol="112" pos="576" len="12" pan="0" key="24"/>
          <note vol="100" pos="588" len="12" pan="0" key="32"/>
          <note vol="100" pos="600" len="12" pan="0" key="39"/>
          <note vol="100" pos="600" len="12" pan="0" key="32"/>
          <note vol="100" pos="612" len="12" pan="0" key="39"/>
          <note vol="100" pos="612" len="12" pan="0" key="38"/>
          <note vol="100" pos="612" len="12" pan="0" key="33"/>
          <note vol="100" pos="612" len="12" pan="0" key="32"/>
          <note vol="100" pos="624" len="12" pan="0" key="39"/>
          <note vol="100" pos="624" len="12" pan="0" key="35"/>
          <note vol="100" pos="624" len="12" pan="0" key="32"/>
          <note vol="112" pos="624" len="12" pan="0" key="24"/>
          <note vol="100" pos="636" len="12" pan="0" key="32"/>
          <note vol="100" pos="648" len="12" pan="0" key="39"/>
          <note vol="100" pos="648" len="12" pan="0" key="32"/>
          <note vol="100" pos="660" len="12" pan="0" key="39"/>
          <note vol="100" pos="660" len="12" pan="0" key="35"/>
          <note vol="100" pos="660" len="12" pan="0" key="33"/>
          <note vol="100" pos="660" len="12" pan="0" key="32"/>
          <note vol="81" pos="672" len="12" pan="0" key="39"/>
          <note vol="81" pos="672" len="12" pan="0" key="38"/>
          <note vol="81" pos="672" len="12" pan="0" key="33"/>
          <note vol="81" pos="672" len="12" pan="0" key="32"/>
          <note vol="93" pos="672" len="12" pan="0" key="24"/>
          <note vol="100" pos="684" len="12" pan="0" key="32"/>
          <note vol="100" pos="696" len="12" pan="0" key="39"/>
          <note vol="100" pos="696" len="12" pan="0" key="38"/>
          <note vol="100" pos="696" len="12" pan="0" key="33"/>
          <note vol="100" pos="696" len="12" pan="0" key="32"/>
          <note vol="100" pos="708" len="12" pan="0" key="39"/>
          <note vol="100" pos="708" len="12" pan="0" key="35"/>
          <note vol="100" pos="708" len="12" pan="0" key="33"/>
          <note vol="100" pos="708" len="12" pan="0" key="32"/>
          <note vol="112" pos="708" len="12" pan="0" key="24"/>
          <note vol="100" pos="720" len="12" pan="0" key="39"/>
          <note vol="100" pos="720" len="12" pan="0" key="32"/>
          <note vol="100" pos="732" len="12" pan="0" key="32"/>
          <note vol="100" pos="744" len="12" pan="0" key="39"/>
          <note vol="100" pos="744" len="12" pan="0" key="35"/>
          <note vol="100" pos="744" len="12" pan="0" key="33"/>
          <note vol="100" pos="744" len="12" pan="0" key="32"/>
          <note vol="129" pos="744" len="12" pan="0" key="29"/>
          <note vol="129" pos="744" len="12" pan="0" key="26"/>
          <note vol="100" pos="756" len="12" pan="0" key="32"/>
        </pattern>
        <pattern pos="6144" steps="16" muted="0" type="1" name="">
          <note vol="100" pos="0" len="12" pan="0" key="39"/>
          <note vol="100" pos="0" len="12" pan="0" key="38"/>
          <note vol="100" pos="0" len="12" pan="0" key="33"/>
          <note vol="100" pos="0" len="12" pan="0" key="32"/>
          <note vol="112" pos="0" len="12" pan="0" key="24"/>
          <note vol="100" pos="12" len="12" pan="0" key="32"/>
          <note vol="100" pos="24" len="12" pan="0" key="39"/>
          <note vol="100" pos="24" len="12" pan="0" key="32"/>
          <note vol="100" pos="36" len="12" pan="0" key="39"/>
          <note vol="100" pos="36" len="12" pan="0" key="38"/>
          <note vol="100" pos="36" len="12" pan="0" key="33"/>
          <note vol="100" pos="36" len="12" pan="0" key="32"/>
          <note vol="100" pos="48" len="12" pan="0" key="39"/>
          <note vol="100" pos="48" len="12" pan="0" key="35"/>
          <note vol="100" pos="48" len="12" pan="0" key="32"/>
          <note vol="112" pos="48" len="12" pan="0" key="24"/>
          <note vol="100" pos="60" len="12" pan="0" key="32"/>
          <note vol="100" pos="72" len="12" pan="0" key="39"/>
          <note vol="100" pos="72" len="12" pan="0" key="32"/>
          <note vol="100" pos="84" len="12" pan="0" key="39"/>
          <note vol="100" pos="84" len="12" pan="0" key="35"/>
          <note vol="100" pos="84" len="12" pan="0" key="33"/>
          <note vol="100" pos="84" len="12" pan="0" key="32"/>
          <note vol="100" pos="96" len="12" pan="0" key="39"/>
          <note vol="100" pos="96" len="12" pan="0" key="38"/>
          <note vol="100" pos="96" len="12" pan="0" key="33"/>
          <note vol="100" pos="96" len="12" pan="0" key="32"/>
          <note vol="112" pos="96" len="12" pan="0" key="24"/>
          <note vol="100" pos="108" len="12" pan="0" key="32"/>
          <note vol="100" pos="120" len="12" pan="0" key="39"/>
          <note vol="100" pos="120" len="12" pan="0" key="38"/>
          <note vol="100" pos="120" len="12" pan="0" key="33"/>
          <note vol="100" pos="120" len="12" pan="0" key="32"/>
          <note vol="100" pos="132" len="12" pan="0" key="39"/>
          <note vol="100" pos="132" len="12" pan="0" key="35"/>
          <note vol="100" pos="132" len="12" pan="0" key="33"/>
          <note vol="100" pos="132" len="12" pan="0" key="32"/>
          <note vol="112" pos="132" len="12" pan="0" key="24"/>
          <note vol="100" pos="144" len="12" pan="0" key="39"/>
          <note vol="100" pos="144" len="12" pan="0" key="32"/>
          <note vol="100" pos="156" len="12" pan="0" key="32"/>
          <note vol="100" pos="168" len="12" pan="0" key="39"/>
          <note vol="100" pos="168" len="12" pan="0" key="35"/>
          <note vol="100" pos="168" len="12" pan="0" key="33"/>
          <note vol="100" pos="168" len="12" pan="0" key="32"/>
          <note vol="129" pos="168" len="12" pan="0" key="29"/>
          <note vol="129" pos="168" len="12" pan="0" key="26"/>
          <note vol="100" pos="180" len="12" pan="0" key="32"/>
          <note vol="100" pos="192" len="12" pan="0" key="39"/>
          <note vol="100" pos="192" len="12" pan="0" key="38"/>
          <note vol="100" pos="192" len="12" pan="0" key="33"/>
          <note vol="100" pos="192" len="12" pan="0" key="32"/>
          <note vol="112" pos="192" len="12" pan="0" key="24"/>
          <note vol="100" pos="204" len="12" pan="0" key="32"/>
          <note vol="100" pos="216" len="12" pan="0" key="39"/>
          <note vol="100" pos="216" len="12" pan="0" key="32"/>
          <note vol="100" pos="228" len="12" pan="0" key="39"/>
          <note vol="100" pos="228" len="12" pan="0" key="38"/>
          <note vol="100" pos="228" len="12" pan="0" key="33"/>
          <note vol="100" pos="228" len="12" pan="0" key="32"/>
          <note vol="100" pos="240" len="12" pan="0" key="39"/>
          <note vol="100" pos="240" len="12" pan="0" key="35"/>
          <note vol="100" pos="240" len="12" pan="0" key="32"/>
          <note vol="112" pos="240" len="12" pan="0" key="24"/>
          <note vol="100" pos="252" len="12" pan="0" key="32"/>
          <note vol="100" pos="264" len="12" pan="0" key="39"/>
          <note vol="100" pos="264" len="12" pan="0" key="32"/>
          <note vol="100" pos="276" len="12" pan="0" key="39"/>
          <note vol="100" pos="276" len="12" pan="0" key="35"/>
          <note vol="100" pos="276" len="12" pan="0" key="33"/>
          <note vol="100" pos="276" len="12" pan="0" key="32"/>
          <note vol="100" pos="288" len="12" pan="0" key="39"/>
          <note vol="100" pos="288" len="12" pan="0" key="38"/>
          <note vol="100" pos="288" len="12" pan="0" key="33"/>
          <note vol="100" pos="288" len="12" pan="0" key="32"/>
          <note vol="112" pos="288" len="12" pan="0" key="24"/>
          <note vol="100" pos="300" len="12" pan="0" key="32"/>
          <note vol="100" pos="312" len="12" pan="0" key="39"/>
          <note vol="100" pos="312" len="12" pan="0" key="38"/>
          <note vol="100" pos="312" len="12" pan="0" key="33"/>
          <note vol="100" pos="312" len="12" pan="0" key="32"/>
          <note vol="100" pos="324" len="12" pan="0" key="39"/>
          <note vol="100" pos="324" len="12" pan="0" key="35"/>
          <note vol="100" pos="324" len="12" pan="0" key="33"/>
          <note vol="100" pos="324" len="12" pan="0" key="32"/>
          <note vol="112" pos="324" len="12" pan="0" key="24"/>
          <note vol="100" pos="336" len="12" pan="0" key="39"/>
          <note vol="100" pos="336" len="12" pan="0" key="32"/>
          <note vol="100" pos="348" len="12" pan="0" key="32"/>
          <note vol="100" pos="360" len="12" pan="0" key="39"/>
          <note vol="100" pos="360" len="12" pan="0" key="35"/>
          <note vol="100" pos="360" len="12" pan="0" key="33"/>
          <note vol="100" pos="360" len="12" pan="0" key="32"/>
          <note vol="123" pos="360" len="12" pan="0" key="29"/>
          <note vol="123" pos="360" len="12" pan="0" key="26"/>
          <note vol="100" pos="372" len="12" pan="0" key="32"/>
          <note vol="100" pos="384" len="12" pan="0" key="39"/>
          <note vol="100" pos="384" len="12" pan="0" key="38"/>
          <note vol="100" pos="384" len="12" pan="0" key="33"/>
          <note vol="100" pos="384" len="12" pan="0" key="32"/>
          <note vol="112" pos="384" len="12" pan="0" key="24"/>
          <note vol="100" pos="396" len="12" pan="0" key="32"/>
          <note vol="100" pos="408" len="12" pan="0" key="39"/>
          <note vol="100" pos="408" len="12" pan="0" key="32"/>
          <note vol="100" pos="420" len="12" pan="0" key="39"/>
          <note vol="100" pos="420" len="12" pan="0" key="38"/>
          <note vol="100" pos="420" len="12" pan="0" key="33"/>
          <note vol="100" pos="420" len="12" pan="0" key="32"/>
          <note vol="100" pos="432" len="12" pan="0" key="39"/>
          <note vol="100" pos="432" len="12" pan="0" key="35"/>
          <note vol="100" pos="432" len="12" pan="0" key="32"/>
          <note vol="112" pos="432" len="12" pan="0" key="24"/>
          <note vol="100" pos="444" len="12" pan="0" key="32"/>
          <note vol="100" pos="456" len="12" pan="0" key="39"/>
          <note vol="100" pos="456" len="12" pan="0" key="32"/>
          <note vol="100" pos="468" len="12" pan="0" key="39"/>
          <note vol="100" pos="468" len="12" pan="0" key="35"/>
          <note vol="100" pos="468" len="12" pan="0" key="33"/>
          <note vol="100" pos="468" len="12" pan="0" key="32"/>
          <note vol="100" pos="480" len="12" pan="0" key="39"/>
          <note vol="100" pos="480" len="12" pan="0" key="38"/>
          <note vol="100" pos="480" len="12" pan="0" key="33"/>
          <note vol="100" pos="480" len="12" pan="0" key="32"/>
          <note vol="112" pos="480" len="12" pan="0" key="24"/>
          <note vol="100" pos="492" len="12" pan="0" key="32"/>
          <note vol="100" pos="504" len="12" pan="0" key="39"/>
          <note vol="100" pos="504" len="12" pan="0" key="38"/>
          <note vol="100" pos="504" len="12" pan="0" key="33"/>
          <note vol="100" pos="504" len="12" pan="0" key="32"/>
          <note vol="100" pos="516" len="12" pan="0" key="39"/>
          <note vol="100" pos="516" len="12" pan="0" key="35"/>
          <note vol="100" pos="516" len="12" pan="0" key="33"/>
          <note vol="100" pos="516" len="12" pan="0" key="32"/>
          <note vol="112" pos="516" len="12" pan="0" key="24"/>
          <note vol="100" pos="528" len="12" pan="0" key="39"/>
          <note vol="100" pos="528" len="12" pan="0" key="32"/>
          <note vol="100" pos="540" len="12" pan="0" key="32"/>
          <note vol="100" pos="552" len="12" pan="0" key="39"/>
          <note vol="100" pos="552" len="12" pan="0" key="35"/>
          <note vol="100" pos="552" len="12" pan="0" key="33"/>
          <note vol="100" pos="552" len="12" pan="0" key="32"/>
          <note vol="110" pos="552" len="12" pan="0" key="29"/>
          <note vol="110" pos="552" len="12" pan="0" key="26"/>
          <note vol="117" pos="564" len="12" pan="0" key="32"/>
          <note vol="100" pos="576" len="12" pan="0" key="39"/>
          <note vol="100" pos="576" len="12" pan="0" key="38"/>
          <note vol="100" pos="576" len="12" pan="0" key="33"/>
          <note vol="100" pos="576" len="12" pan="0" key="32"/>
          <note vol="112" pos="576" len="12" pan="0" key="24"/>
          <note vol="100" pos="588" len="12" pan="0" key="32"/>
          <note vol="100" pos="600" len="12" pan="0" key="39"/>
          <note vol="100" pos="600" len="12" pan="0" key="32"/>
          <note vol="100" pos="612" len="12" pan="0" key="39"/>
          <note vol="100" pos="612" len="12" pan="0" key="38"/>
          <note vol="100" pos="612" len="12" pan="0" key="33"/>
          <note vol="100" pos="612" len="12" pan="0" key="32"/>
          <note vol="100" pos="624" len="12" pan="0" key="39"/>
          <note vol="100" pos="624" len="12" pan="0" key="35"/>
          <note vol="100" pos="624" len="12" pan="0" key="32"/>
          <note vol="112" pos="624" len="12" pan="0" key="24"/>
          <note vol="100" pos="636" len="12" pan="0" key="32"/>
          <note vol="100" pos="648" len="12" pan="0" key="39"/>
          <note vol="100" pos="648" len="12" pan="0" key="32"/>
          <note vol="100" pos="660" len="12" pan="0" key="39"/>
          <note vol="100" pos="660" len="12" pan="0" key="35"/>
          <note vol="100" pos="660" len="12" pan="0" key="33"/>
          <note vol="100" pos="660" len="12" pan="0" key="32"/>
          <note vol="81" pos="672" len="12" pan="0" key="39"/>
          <note vol="81" pos="672" len="12" pan="0" key="38"/>
          <note vol="81" pos="672" len="12" pan="0" key="33"/>
          <note vol="81" pos="672" len="12" pan="0" key="32"/>
          <note vol="93" pos="672" len="12" pan="0" key="24"/>
          <note vol="100" pos="684" len="12" pan="0" key="32"/>
          <note vol="100" pos="696" len="12" pan="0" key="39"/>
          <note vol="100" pos="696" len="12" pan="0" key="38"/>
          <note vol="100" pos="696" len="12" pan="0" key="33"/>
          <note vol="100" pos="696" len="12" pan="0" key="32"/>
          <note vol="100" pos="708" len="12" pan="0" key="39"/>
          <note vol="100" pos="708" len="12" pan="0" key="35"/>
          <note vol="100" pos="708" len="12" pan="0" key="33"/>
          <note vol="100" pos="708" len="12" pan="0" key="32"/>
          <note vol="112" pos="708" len="12" pan="0" key="24"/>
          <note vol="100" pos="720" len="12" pan="0" key="39"/>
          <note vol="100" pos="720" len="12" pan="0" key="32"/>
          <note vol="100" pos="732" len="12" pan="0" key="32"/>
          <note vol="100" pos="744" len="12" pan="0" key="39"/>
          <note vol="100" pos="744" len="12" pan="0" key="35"/>
          <note vol="100" pos="744" len="12" pan="0" key="33"/>
          <note vol="100" pos="744" len="12" pan="0" key="32"/>
          <note vol="129" pos="744" len="12" pan="0" key="29"/>
          <note vol="129" pos="744" len="12" pan="0" key="26"/>
          <note vol="100" pos="756" len="12" pan="0" key="32"/>
        </pattern>
        <pattern pos="6912" steps="16" muted="0" type="1" name="">
          <note vol="100" pos="0" len="12" pan="0" key="39"/>
          <note vol="100" pos="0" len="12" pan="0" key="38"/>
          <note vol="100" pos="0" len="12" pan="0" key="33"/>
          <note vol="100" pos="0" len="12" pan="0" key="32"/>
          <note vol="112" pos="0" len="12" pan="0" key="24"/>
          <note vol="100" pos="12" len="12" pan="0" key="32"/>
          <note vol="100" pos="24" len="12" pan="0" key="39"/>
          <note vol="100" pos="24" len="12" pan="0" key="32"/>
          <note vol="100" pos="36" len="12" pan="0" key="39"/>
          <note vol="100" pos="36" len="12" pan="0" key="38"/>
          <note vol="100" pos="36" len="12" pan="0" key="33"/>
          <note vol="100" pos="36" len="12" pan="0" key="32"/>
          <note vol="100" pos="48" len="12" pan="0" key="39"/>
          <note vol="100" pos="48" len="12" pan="0" key="35"/>
          <note vol="100" pos="48" len="12" pan="0" key="32"/>
          <note vol="112" pos="48" len="12" pan="0" key="24"/>
          <note vol="100" pos="60" len="12" pan="0" key="32"/>
          <note vol="100" pos="72" len="12" pan="0" key="39"/>
          <note vol="100" pos="72" len="12" pan="0" key="32"/>
          <note vol="100" pos="84" len="12" pan="0" key="39"/>
          <note vol="100" pos="84" len="12" pan="0" key="35"/>
          <note vol="100" pos="84" len="12" pan="0" key="33"/>
          <note vol="100" pos="84" len="12" pan="0" key="32"/>
          <note vol="100" pos="96" len="12" pan="0" key="39"/>
          <note vol="100" pos="96" len="12" pan="0" key="38"/>
          <note vol="100" pos="96" len="12" pan="0" key="33"/>
          <note vol="100" pos="96" len="12" pan="0" key="32"/>
          <note vol="112" pos="96" len="12" pan="0" key="24"/>
          <note vol="100" pos="108" len="12" pan="0" key="32"/>
          <note vol="100" pos="120" len="12" pan="0" key="39"/>
          <note vol="100" pos="120" len="12" pan="0" key="38"/>
          <note vol="100" pos="120" len="12" pan="0" key="33"/>
          <note vol="100" pos="120" len="12" pan="0" key="32"/>
          <note vol="100" pos="132" len="12" pan="0" key="39"/>
          <note vol="100" pos="132" len="12" pan="0" key="35"/>
          <note vol="100" pos="132" len="12" pan="0" key="33"/>
          <note vol="100" pos="132" len="12" pan="0" key="32"/>
          <note vol="112" pos="132" len="12" pan="0" key="24"/>
          <note vol="100" pos="144" len="12" pan="0" key="39"/>
          <note vol="100" pos="144" len="12" pan="0" key="32"/>
          <note vol="100" pos="156" len="12" pan="0" key="32"/>
          <note vol="100" pos="168" len="12" pan="0" key="39"/>
          <note vol="100" pos="168" len="12" pan="0" key="35"/>
          <note vol="100" pos="168" len="12" pan="0" key="33"/>
          <note vol="100" pos="168" len="12" pan="0" key="32"/>
          <note vol="129" pos="168" len="12" pan="0" key="29"/>
          <note vol="129" pos="168" len="12" pan="0" key="26"/>
          <note vol="100" pos="180" len="12" pan="0" key="32"/>
          <note vol="100" pos="192" len="12" pan="0" key="39"/>
          <note vol="100" pos="192" len="12" pan="0" key="38"/>
          <note vol="100" pos="192" len="12" pan="0" key="33"/>
          <note vol="100" pos="192" len="12" pan="0" key="32"/>
          <note vol="112" pos="192" len="12" pan="0" key="24"/>
          <note vol="100" pos="204" len="12" pan="0" key="32"/>
          <note vol="100" pos="216" len="12" pan="0" key="39"/>
          <note vol="100" pos="216" len="12" pan="0" key="32"/>
          <note vol="100" pos="228" len="12" pan="0" key="39"/>
          <note vol="100" pos="228" len="12" pan="0" key="38"/>
          <note vol="100" pos="228" len="12" pan="0" key="33"/>
          <note vol="100" pos="228" len="12" pan="0" key="32"/>
          <note vol="100" pos="240" len="12" pan="0" key="39"/>
          <note vol="100" pos="240" len="12" pan="0" key="35"/>
          <note vol="100" pos="240" len="12" pan="0" key="32"/>
          <note vol="112" pos="240" len="12" pan="0" key="24"/>
          <note vol="100" pos="252" len="12" pan="0" key="32"/>
          <note vol="100" pos="264" len="12" pan="0" key="39"/>
          <note vol="100" pos="264" len="12" pan="0" key="32"/>
          <note vol="100" pos="276" len="12" pan="0" key="39"/>
          <note vol="100" pos="276" len="12" pan="0" key="35"/>
          <note vol="100" pos="276" len="12" pan="0" key="33"/>
          <note vol="100" pos="276" len="12" pan="0" key="32"/>
          <note vol="100" pos="288" len="12" pan="0" key="39"/>
          <note vol="100" pos="288" len="12" pan="0" key="38"/>
          <note vol="100" pos="288" len="12" pan="0" key="33"/>
          <note vol="100" pos="288" len="12" pan="0" key="32"/>
          <note vol="112" pos="288" len="12" pan="0" key="24"/>
          <note vol="100" pos="300" len="12" pan="0" key="32"/>
          <note vol="100" pos="312" len="12" pan="0" key="39"/>
          <note vol="100" pos="312" len="12" pan="0" key="38"/>
          <note vol="100" pos="312" len="12" pan="0" key="33"/>
          <note vol="100" pos="312" len="12" pan="0" key="32"/>
          <note vol="100" pos="324" len="12" pan="0" key="39"/>
          <note vol="100" pos="324" len="12" pan="0" key="35"/>
          <note vol="100" pos="324" len="12" pan="0" key="33"/>
          <note vol="100" pos="324" len="12" pan="0" key="32"/>
          <note vol="112" pos="324" len="12" pan="0" key="24"/>
          <note vol="100" pos="336" len="12" pan="0" key="39"/>
          <note vol="100" pos="336" len="12" pan="0" key="32"/>
          <note vol="100" pos="348" len="12" pan="0" key="32"/>
          <note vol="100" pos="360" len="12" pan="0" key="39"/>
          <note vol="100" pos="360" len="12" pan="0" key="35"/>
          <note vol="100" pos="360" len="12" pan="0" key="33"/>
          <note vol="100" pos="360" len="12" pan="0" key="32"/>
          <note vol="123" pos="360" len="12" pan="0" key="29"/>
          <note vol="123" pos="360" len="12" pan="0" key="26"/>
          <note vol="100" pos="372" len="12" pan="0" key="32"/>
          <note vol="100" pos="384" len="12" pan="0" key="39"/>
          <note vol="100" pos="384" len="12" pan="0" key="38"/>
          <note vol="100" pos="384" len="12" pan="0" key="33"/>
          <note vol="100" pos="384" len="12" pan="0" key="32"/>
          <note vol="112" pos="384" len="12" pan="0" key="24"/>
          <note vol="100" pos="396" len="12" pan="0" key="32"/>
          <note vol="100" pos="408" len="12" pan="0" key="39"/>
          <note vol="100" pos="408" len="12" pan="0" key="32"/>
          <note vol="100" pos="420" len="12" pan="0" key="39"/>
          <note vol="100" pos="420" len="12" pan="0" key="38"/>
          <note vol="100" pos="420" len="12" pan="0" key="33"/>
          <note vol="100" pos="420" len="12" pan="0" key="32"/>
          <note vol="100" pos="432" len="12" pan="0" key="39"/>
          <note vol="100" pos="432" len="12" pan="0" key="35"/>
          <note vol="100" pos="432" len="12" pan="0" key="32"/>
          <note vol="112" pos="432" len="12" pan="0" key="24"/>
          <note vol="100" pos="444" len="12" pan="0" key="32"/>
          <note vol="100" pos="456" len="12" pan="0" key="39"/>
          <note vol="100" pos="456" len="12" pan="0" key="32"/>
          <note vol="100" pos="468" len="12" pan="0" key="39"/>
          <note vol="100" pos="468" len="12" pan="0" key="35"/>
          <note vol="100" pos="468" len="12" pan="0" key="33"/>
          <note vol="100" pos="468" len="12" pan="0" key="32"/>
          <note vol="100" pos="480" len="12" pan="0" key="39"/>
          <note vol="100" pos="480" len="12" pan="0" key="38"/>
          <note vol="100" pos="480" len="12" pan="0" key="33"/>
          <note vol="100" pos="480" len="12" pan="0" key="32"/>
          <note vol="112" pos="480" len="12" pan="0" key="24"/>
          <note vol="100" pos="492" len="12" pan="0" key="32"/>
          <note vol="100" pos="504" len="12" pan="0" key="39"/>
          <note vol="100" pos="504" len="12" pan="0" key="38"/>
          <note vol="100" pos="504" len="12" pan="0" key="33"/>
          <note vol="100" pos="504" len="12" pan="0" key="32"/>
          <note vol="100" pos="516" len="12" pan="0" key="39"/>
          <note vol="100" pos="516" len="12" pan="0" key="35"/>
          <note vol="100" pos="516" len="12" pan="0" key="33"/>
          <note vol="100" pos="516" len="12" pan="0" key="32"/>
          <note vol="112" pos="516" len="12" pan="0" key="24"/>
          <note vol="100" pos="528" len="12" pan="0" key="39"/>
          <note vol="100" pos="528" len="12" pan="0" key="32"/>
          <note vol="100" pos="540" len="12" pan="0" key="32"/>
          <note vol="100" pos="552" len="12" pan="0" key="39"/>
          <note vol="100" pos="552" len="12" pan="0" key="35"/>
          <note vol="100" pos="552" len="12" pan="0" key="33"/>
          <note vol="100" pos="552" len="12" pan="0" key="32"/>
          <note vol="110" pos="552" len="12" pan="0" key="29"/>
          <note vol="110" pos="552" len="12" pan="0" key="26"/>
          <note vol="117" pos="564" len="12" pan="0" key="32"/>
          <note vol="100" pos="576" len="12" pan="0" key="39"/>
          <note vol="100" pos="576" len="12" pan="0" key="38"/>
          <note vol="100" pos="576" len="12" pan="0" key="33"/>
          <note vol="100" pos="576" len="12" pan="0" key="32"/>
          <note vol="112" pos="576" len="12" pan="0" key="24"/>
          <note vol="100" pos="588" len="12" pan="0" key="32"/>
          <note vol="100" pos="600" len="12" pan="0" key="39"/>
          <note vol="100" pos="600" len="12" pan="0" key="32"/>
          <note vol="100" pos="612" len="12" pan="0" key="39"/>
          <note vol="100" pos="612" len="12" pan="0" key="38"/>
          <note vol="100" pos="612" len="12" pan="0" key="33"/>
          <note vol="100" pos="612" len="12" pan="0" key="32"/>
          <note vol="100" pos="624" len="12" pan="0" key="39"/>
          <note vol="100" pos="624" len="12" pan="0" key="35"/>
          <note vol="100" pos="624" len="12" pan="0" key="32"/>
          <note vol="112" pos="624" len="12" pan="0" key="24"/>
          <note vol="100" pos="636" len="12" pan="0" key="32"/>
          <note vol="100" pos="648" len="12" pan="0" key="39"/>
          <note vol="100" pos="648" len="12" pan="0" key="32"/>
          <note vol="100" pos="660" len="12" pan="0" key="39"/>
          <note vol="100" pos="660" len="12" pan="0" key="35"/>
          <note vol="100" pos="660" len="12" pan="0" key="33"/>
          <note vol="100" pos="660" len="12" pan="0" key="32"/>
          <note vol="81" pos="672" len="12" pan="0" key="39"/>
          <note vol="81" pos="672" len="12" pan="0" key="38"/>
          <note vol="81" pos="672" len="12" pan="0" key="33"/>
          <note vol="81" pos="672" len="12" pan="0" key="32"/>
          <note vol="93" pos="672" len="12" pan="0" key="24"/>
          <note vol="100" pos="684" len="12" pan="0" key="32"/>
          <note vol="100" pos="696" len="12" pan="0" key="39"/>
          <note vol="100" pos="696" len="12" pan="0" key="38"/>
          <note vol="100" pos="696" len="12" pan="0" key="33"/>
          <note vol="100" pos="696" len="12" pan="0" key="32"/>
          <note vol="100" pos="708" len="12" pan="0" key="39"/>
          <note vol="100" pos="708" len="12" pan="0" key="35"/>
          <note vol="100" pos="708" len="12" pan="0" key="33"/>
          <note vol="100" pos="708" len="12" pan="0" key="32"/>
          <note vol="112" pos="708" len="12" pan="0" key="24"/>
          <note vol="100" pos="720" len="12" pan="0" key="39"/>
          <note vol="100" pos="720" len="12" pan="0" key="32"/>
          <note vol="100" pos="732" len="12" pan="0" key="32"/>
          <note vol="100" pos="744" len="12" pan="0" key="39"/>
          <note vol="100" pos="744" len="12" pan="0" key="35"/>
          <note vol="100" pos="744" len="12" pan="0" key="33"/>
          <note vol="100" pos="744" len="12" pan="0" key="32"/>
          <note vol="129" pos="744" len="12" pan="0" key="29"/>
          <note vol="129" pos="744" len="12" pan="0" key="26"/>
          <note vol="100" pos="756" len="12" pan="0" key="32"/>
        </pattern>
        <pattern pos="7680" steps="16" muted="0" type="1" name="">
          <note vol="100" pos="0" len="12" pan="0" key="39"/>
          <note vol="100" pos="0" len="12" pan="0" key="38"/>
          <note vol="100" pos="0" len="12" pan="0" key="33"/>
          <note vol="100" pos="0" len="12" pan="0" key="32"/>
          <note vol="112" pos="0" len="12" pan="0" key="24"/>
          <note vol="100" pos="12" len="12" pan="0" key="32"/>
          <note vol="100" pos="24" len="12" pan="0" key="39"/>
          <note vol="100" pos="24" len="12" pan="0" key="32"/>
          <note vol="100" pos="36" len="12" pan="0" key="39"/>
          <note vol="100" pos="36" len="12" pan="0" key="38"/>
          <note vol="100" pos="36" len="12" pan="0" key="33"/>
          <note vol="100" pos="36" len="12" pan="0" key="32"/>
          <note vol="100" pos="48" len="12" pan="0" key="39"/>
          <note vol="100" pos="48" len="12" pan="0" key="35"/>
          <note vol="100" pos="48" len="12" pan="0" key="32"/>
          <note vol="112" pos="48" len="12" pan="0" key="24"/>
          <note vol="100" pos="60" len="12" pan="0" key="32"/>
          <note vol="100" pos="72" len="12" pan="0" key="39"/>
          <note vol="100" pos="72" len="12" pan="0" key="32"/>
          <note vol="100" pos="84" len="12" pan="0" key="39"/>
          <note vol="100" pos="84" len="12" pan="0" key="35"/>
          <note vol="100" pos="84" len="12" pan="0" key="33"/>
          <note vol="100" pos="84" len="12" pan="0" key="32"/>
          <note vol="100" pos="96" len="12" pan="0" key="39"/>
          <note vol="100" pos="96" len="12" pan="0" key="38"/>
          <note vol="100" pos="96" len="12" pan="0" key="33"/>
          <note vol="100" pos="96" len="12" pan="0" key="32"/>
          <note vol="112" pos="96" len="12" pan="0" key="24"/>
          <note vol="100" pos="108" len="12" pan="0" key="32"/>
          <note vol="100" pos="120" len="12" pan="0" key="39"/>
          <note vol="100" pos="120" len="12" pan="0" key="38"/>
          <note vol="100" pos="120" len="12" pan="0" key="33"/>
          <note vol="100" pos="120" len="12" pan="0" key="32"/>
          <note vol="100" pos="132" len="12" pan="0" key="39"/>
          <note vol="100" pos="132" len="12" pan="0" key="35"/>
          <note vol="100" pos="132" len="12" pan="0" key="33"/>
          <note vol="100" pos="132" len="12" pan="0" key="32"/>
          <note vol="112" pos="132" len="12" pan="0" key="24"/>
          <note vol="100" pos="144" len="12" pan="0" key="39"/>
          <note vol="100" pos="144" len="12" pan="0" key="32"/>
          <note vol="100" pos="156" len="12" pan="0" key="32"/>
          <note vol="100" pos="168" len="12" pan="0" key="39"/>
          <note vol="100" pos="168" len="12" pan="0" key="35"/>
          <note vol="100" pos="168" len="12" pan="0" key="33"/>
          <note vol="100" pos="168" len="12" pan="0" key="32"/>
          <note vol="129" pos="168" len="12" pan="0" key="29"/>
          <note vol="129" pos="168" len="12" pan="0" key="26"/>
          <note vol="100" pos="180" len="12" pan="0" key="32"/>
          <note vol="100" pos="192" len="12" pan="0" key="39"/>
          <note vol="100" pos="192" len="12" pan="0" key="38"/>
          <note vol="100" pos="192" len="12" pan="0" key="33"/>
          <note vol="100" pos="192" len="12" pan="0" key="32"/>
          <note vol="112" pos="192" len="12" pan="0" key="24"/>
          <note vol="100" pos="204" len="12" pan="0" key="32"/>
          <note vol="100" pos="216" len="12" pan="0" key="39"/>
          <note vol="100" pos="216" len="12" pan="0" key="32"/>
          <note vol="100" pos="228" len="12" pan="0" key="39"/>
          <note vol="100" pos="228" len="12" pan="0" key="38"/>
          <note vol="100" pos="228" len="12" pan="0" key="33"/>
          <note vol="100" pos="228" len="12" pan="0" key="32"/>
          <note vol="100" pos="240" len="12" pan="0" key="39"/>
          <note vol="100" pos="240" len="12" pan="0" key="35"/>
          <note vol="100" pos="240" len="12" pan="0" key="32"/>
          <note vol="112" pos="240" len="12" pan="0" key="24"/>
          <note vol="100" pos="252" len="12" pan="0" key="32"/>
          <note vol="100" pos="264" len="12" pan="0" key="39"/>
          <note vol="100" pos="264" len="12" pan="0" key="32"/>
          <note vol="100" pos="276" len="12" pan="0" key="39"/>
          <note vol="100" pos="276" len="12" pan="0" key="35"/>
          <note vol="100" pos="276" len="12" pan="0" key="33"/>
          <note vol="100" pos="276" len="12" pan="0" key="32"/>
          <note vol="100" pos="288" len="12" pan="0" key="39"/>
          <note vol="100" pos="288" len="12" pan="0" key="38"/>
          <note vol="100" pos="288" len="12" pan="0" key="33"/>
          <note vol="100" pos="288" len="12" pan="0" key="32"/>
          <note vol="112" pos="288" len="12" pan="0" key="24"/>
          <note vol="100" pos="300" len="12" pan="0" key="32"/>
          <note vol="100" pos="312" len="12" pan="0" key="39"/>
          <note vol="100" pos="312" len="12" pan="0" key="38"/>
          <note vol="100" pos="312" len="12" pan="0" key="33"/>
          <note vol="100" pos="312" len="12" pan="0" key="32"/>
          <note vol="100" pos="324" len="12" pan="0" key="39"/>
          <note vol="100" pos="324" len="12" pan="0" key="35"/>
          <note vol="100" pos="324" len="12" pan="0" key="33"/>
          <note vol="100" pos="324" len="12" pan="0" key="32"/>
          <note vol="112" pos="324" len="12" pan="0" key="24"/>
          <note vol="100" pos="336" len="12" pan="0" key="39"/>
          <note vol="100" pos="336" len="12" pan="0" key="32"/>
          <note vol="100" pos="348" len="12" pan="0" key="32"/>
          <note vol="100" pos="360" len="12" pan="0" key="39"/>
          <note vol="100" pos="360" len="12" pan="0" key="35"/>
          <note vol="100" pos="360" len="12" pan="0" key="33"/>
          <note vol="100" pos="360" len="12" pan="0" key="32"/>
          <note vol="123" pos="360" len="12" pan="0" key="29"/>
          <note vol="123" pos="360" len="12" pan="0" key="26"/>
          <note vol="100" pos="372" len="12" pan="0" key="32"/>
          <note vol="100" pos="384" len="12" pan="0" key="39"/>
          <note vol="100" pos="384" len="12" pan="0" key="38"/>
          <note vol="100" pos="384" len="12" pan="0" key="33"/>
          <note vol="100" pos="384" len="12" pan="0" key="32"/>
          <note vol="112" pos="384" len="12" pan="0" key="24"/>
          <note vol="100" pos="396" len="12" pan="0" key="32"/>
          <note vol="100" pos="408" len="12" pan="0" key="39"/>
          <note vol="100" pos="408" len="12" pan="0" key="32"/>
          <note vol="100" pos="420" len="12" pan="0" key="39"/>
          <note vol="100" pos="420" len="12" pan="0" key="38"/>
          <note vol="100" pos="420" len="12" pan="0" key="33"/>
          <note vol="100" pos="420" len="12" pan="0" key="32"/>
          <note vol="100" pos="432" len="12" pan="0" key="39"/>
          <note vol="100" pos="432" len="12" pan="0" key="35"/>
          <note vol="100" pos="432" len="12" pan="0" key="32"/>
          <note vol="112" pos="432" len="12" pan="0" key="24"/>
          <note vol="100" pos="444" len="12" pan="0" key="32"/>
          <note vol="100" pos="456" len="12" pan="0" key="39"/>
          <note vol="100" pos="456" len="12" pan="0" key="32"/>
          <note vol="100" pos="468" len="12" pan="0" key="39"/>
          <note vol="100" pos="468" len="12" pan="0" key="35"/>
          <note vol="100" pos="468" len="12" pan="0" key="33"/>
          <note vol="100" pos="468" len="12" pan="0" key="32"/>
          <note vol="100" pos="480" len="12" pan="0" key="39"/>
          <note vol="100" pos="480" len="12" pan="0" key="38"/>
          <note vol="100" pos="480" len="12" pan="0" key="33"/>
          <note vol="100" pos="480" len="12" pan="0" key="32"/>
          <note vol="112" pos="480" len="12" pan="0" key="24"/>
          <note vol="100" pos="492" len="12" pan="0" key="32"/>
          <note vol="100" pos="504" len="12" pan="0" key="39"/>
          <note vol="100" pos="504" len="12" pan="0" key="38"/>
          <note vol="100" pos="504" len="12" pan="0" key="33"/>
          <note vol="100" pos="504" len="12" pan="0" key="32"/>
          <note vol="100" pos="516" len="12" pan="0" key="39"/>
          <note vol="100" pos="516" len="12" pan="0" key="35"/>
          <note vol="100" pos="516" len="12" pan="0" key="33"/>
          <note vol="100" pos="516" len="12" pan="0" key="32"/>
          <note vol="112" pos="516" len="12" pan="0" key="24"/>
          <note vol="100" pos="528" len="12" pan="0" key="39"/>
          <note vol="100" pos="528" len="12" pan="0" key="32"/>
          <note vol="100" pos="540" len="12" pan="0" key="32"/>
          <note vol="100" pos="552" len="12" pan="0" key="39"/>
          <note vol="100" pos="552" len="12" pan="0" key="35"/>
          <note vol="100" pos="552" len="12" pan="0" key="33"/>
          <note vol="100" pos="552" len="12" pan="0" key="32"/>
          <note vol="110" pos="552" len="12" pan="0" key="29"/>
          <note vol="110" pos="552" len="12" pan="0" key="26"/>
          <note vol="117" pos="564" len="12" pan="0" key="32"/>
          <note vol="100" pos="576" len="12" pan="0" key="39"/>
          <note vol="100" pos="576" len="12" pan="0" key="38"/>
          <note vol="100" pos="576" len="12" pan="0" key="33"/>
          <note vol="100" pos="576" len="12" pan="0" key="32"/>
          <note vol="112" pos="576" len="12" pan="0" key="24"/>
          <note vol="100" pos="588" len="12" pan="0" key="32"/>
          <note vol="100" pos="600" len="12" pan="0" key="39"/>
          <note vol="100" pos="600" len="12" pan="0" key="32"/>
          <note vol="100" pos="612" len="12" pan="0" key="39"/>
          <note vol="100" pos="612" len="12" pan="0" key="38"/>
          <note vol="100" pos="612" len="12" pan="0" key="33"/>
          <note vol="100" pos="612" len="12" pan="0" key="32"/>
          <note vol="100" pos="624" len="12" pan="0" key="39"/>
          <note vol="100" pos="624" len="12" pan="0" key="35"/>
          <note vol="100" pos="624" len="12" pan="0" key="32"/>
          <note vol="112" pos="624" len="12" pan="0" key="24"/>
          <note vol="100" pos="636" len="12" pan="0" key="32"/>
          <note vol="100" pos="648" len="12" pan="0" key="39"/>
          <note vol="100" pos="648" len="12" pan="0" key="32"/>
          <note vol="100" pos="660" len="12" pan="0" key="39"/>
          <note vol="100" pos="660" len="12" pan="0" key="35"/>
          <note vol="100" pos="660" len="12" pan="0" key="33"/>
          <note vol="100" pos="660" len="12" pan="0" key="32"/>
          <note vol="81" pos="672" len="12" pan="0" key="39"/>
          <note vol="81" pos="672" len="12" pan="0" key="38"/>
          <note vol="81" pos="672" len="12" pan="0" key="33"/>
          <note vol="81" pos="672" len="12" pan="0" key="32"/>
          <note vol="93" pos="672" len="12" pan="0" key="24"/>
          <note vol="100" pos="684" len="12" pan="0" key="32"/>
          <note vol="100" pos="696" len="12" pan="0" key="39"/>
          <note vol="100" pos="696" len="12" pan="0" key="38"/>
          <note vol="100" pos="696" len="12" pan="0" key="33"/>
          <note vol="100" pos="696" len="12" pan="0" key="32"/>
          <note vol="100" pos="708" len="12" pan="0" key="39"/>
          <note vol="100" pos="708" len="12" pan="0" key="35"/>
          <note vol="100" pos="708" len="12" pan="0" key="33"/>
          <note vol="100" pos="708" len="12" pan="0" key="32"/>
          <note vol="112" pos="708" len="12" pan="0" key="24"/>
          <note vol="100" pos="720" len="12" pan="0" key="39"/>
          <note vol="100" pos="720" len="12" pan="0" key="32"/>
          <note vol="100" pos="732" len="12" pan="0" key="32"/>
          <note vol="100" pos="744" len="12" pan="0" key="39"/>
          <note vol="100" pos="744" len="12" pan="0" key="35"/>
          <note vol="100" pos="744" len="12" pan="0" key="33"/>
          <note vol="100" pos="744" len="12" pan="0" key="32"/>
          <note vol="129" pos="744" len="12" pan="0" key="29"/>
          <note vol="129" pos="744" len="12" pan="0" key="26"/>
          <note vol="100" pos="756" len="12" pan="0" key="32"/>
        </pattern>
      </track>
      <track width="262" solo="0" minimized="0" maximized="0" tab="0" visible="1" height="466" muted="0" x="1629" y="457" type="0" name="Piano">
        <instrumenttrack pitchrange="1" vol="92.800003" pitch="0" usemasterpitch="1" pan="0" fxch="0" basenote="57">
          <instrument name="sf2player">
            <sf2player src="soundfonts/GeneralUser GS v1.471.sf2" reverbOn="0" reverbLevel="0.89999998" bank="0" reverbWidth="0.5" chorusOn="0" gain="1" patch="3" reverbRoomSize="0.2" chorusLevel="2" chorusSpeed="0.30000001" reverbDamping="0.2" chorusNum="0.89999998" chorusDepth="8"/>
          </instrument>
          <eldata fres="0.5" fcut="14000" ftype="0" fwet="0">
            <elvol lshp="0" latt="0" lspd_denominator="4" amt="0" pdel="0" hold="0.5" sustain="0.5" lspd_numerator="4" lspd_syncmode="0" att="0" lspd="0.1" x100="0" dec="0.5" lamt="0" ctlenvamt="0" lpdel="0" userwavefile="" rel="0.1"/>
            <elcut lshp="0" latt="0" lspd_denominator="4" amt="0" pdel="0" hold="0.5" sustain="0.5" lspd_numerator="4" lspd_syncmode="0" att="0" lspd="0.1" x100="0" dec="0.5" lamt="0" ctlenvamt="0" lpdel="0" userwavefile="" rel="0.1"/>
            <elres lshp="0" latt="0" lspd_denominator="4" amt="0" pdel="0" hold="0.5" sustain="0.5" lspd_numerator="4" lspd_syncmode="0" att="0" lspd="0.1" x100="0" dec="0.5" lamt="0" ctlenvamt="0" lpdel="0" userwavefile="" rel="0.1"/>
          </eldata>
          <chordcreator chord-enabled="1" chordrange="1" chord="0"/>
          <arpeggiator arpskip="0" arpdir="0" arptime_syncmode="0" arp="0" arpmode="0" arptime_numerator="4" arpgate="100" arpcycle="0" arprange="1" arp-enabled="0" arptime="200" arpmiss="0" arptime_denominator="4"/>
          <midiport inputcontroller="0" outputcontroller="0" outputprogram="1" fixedinputvelocity="-1" writable="0" inputchannel="0" basevelocity="63" fixedoutputvelocity="-1" readable="0" fixedoutputnote="-1" outputchannel="1"/>
          <fxchain numofeffects="0" enabled="0"/>
        </instrumenttrack>
        <pattern pos="1536" steps="16" muted="0" type="1" name="Piano">
          <note vol="119" pos="0" len="12" pan="0" key="48"/>
          <note vol="100" pos="24" len="12" pan="0" key="48"/>
          <note vol="114" pos="48" len="12" pan="0" key="43"/>
          <note vol="100" pos="60" len="12" pan="0" key="43"/>
          <note vol="114" pos="84" len="12" pan="0" key="48"/>
          <note vol="100" pos="108" len="12" pan="0" key="48"/>
          <note vol="114" pos="132" len="12" pan="0" key="48"/>
          <note vol="100" pos="144" len="12" pan="0" key="43"/>
          <note vol="100" pos="156" len="12" pan="0" key="43"/>
          <note vol="114" pos="168" len="12" pan="0" key="49"/>
          <note vol="100" pos="180" len="12" pan="0" key="47"/>
          <note vol="119" pos="192" len="12" pan="0" key="48"/>
          <note vol="100" pos="216" len="12" pan="0" key="48"/>
          <note vol="100" pos="240" len="12" pan="0" key="43"/>
          <note vol="104" pos="252" len="12" pan="0" key="43"/>
          <note vol="112" pos="276" len="12" pan="0" key="48"/>
          <note vol="100" pos="300" len="12" pan="0" key="48"/>
          <note vol="114" pos="324" len="12" pan="0" key="48"/>
          <note vol="100" pos="336" len="12" pan="0" key="43"/>
          <note vol="110" pos="360" len="12" pan="0" key="43"/>
          <note vol="112" pos="384" len="12" pan="0" key="47"/>
          <note vol="100" pos="408" len="12" pan="0" key="47"/>
          <note vol="112" pos="432" len="12" pan="0" key="42"/>
          <note vol="100" pos="444" len="12" pan="0" key="42"/>
          <note vol="119" pos="468" len="12" pan="0" key="47"/>
          <note vol="100" pos="492" len="12" pan="0" key="47"/>
          <note vol="117" pos="516" len="12" pan="0" key="47"/>
          <note vol="112" pos="528" len="12" pan="0" key="42"/>
          <note vol="100" pos="540" len="12" pan="0" key="42"/>
          <note vol="100" pos="552" len="12" pan="0" key="48"/>
          <note vol="108" pos="564" len="12" pan="0" key="46"/>
          <note vol="114" pos="576" len="12" pan="0" key="47"/>
          <note vol="100" pos="600" len="12" pan="0" key="47"/>
          <note vol="100" pos="624" len="12" pan="0" key="42"/>
          <note vol="117" pos="636" len="12" pan="0" key="42"/>
          <note vol="110" pos="660" len="12" pan="0" key="47"/>
          <note vol="100" pos="684" len="12" pan="0" key="47"/>
          <note vol="110" pos="708" len="12" pan="0" key="47"/>
          <note vol="91" pos="720" len="12" pan="0" key="42"/>
          <note vol="100" pos="732" len="12" pan="0" key="44"/>
          <note vol="108" pos="744" len="12" pan="0" key="46"/>
          <note vol="102" pos="756" len="12" pan="0" key="47"/>
        </pattern>
        <pattern pos="6144" steps="16" muted="0" type="1" name="Piano">
          <note vol="104" pos="0" len="576" pan="0" key="48"/>
        </pattern>
        <pattern pos="2304" steps="16" muted="0" type="1" name="Piano">
          <note vol="119" pos="0" len="12" pan="0" key="48"/>
          <note vol="100" pos="24" len="12" pan="0" key="48"/>
          <note vol="114" pos="48" len="12" pan="0" key="43"/>
          <note vol="100" pos="60" len="12" pan="0" key="43"/>
          <note vol="114" pos="84" len="12" pan="0" key="48"/>
          <note vol="100" pos="108" len="12" pan="0" key="48"/>
          <note vol="114" pos="132" len="12" pan="0" key="48"/>
          <note vol="100" pos="144" len="12" pan="0" key="43"/>
          <note vol="100" pos="156" len="12" pan="0" key="43"/>
          <note vol="114" pos="168" len="12" pan="0" key="49"/>
          <note vol="100" pos="180" len="12" pan="0" key="47"/>
          <note vol="119" pos="192" len="12" pan="0" key="48"/>
          <note vol="100" pos="216" len="12" pan="0" key="48"/>
          <note vol="100" pos="240" len="12" pan="0" key="43"/>
          <note vol="104" pos="252" len="12" pan="0" key="43"/>
          <note vol="112" pos="276" len="12" pan="0" key="48"/>
          <note vol="100" pos="300" len="12" pan="0" key="48"/>
          <note vol="114" pos="324" len="12" pan="0" key="48"/>
          <note vol="100" pos="336" len="12" pan="0" key="43"/>
          <note vol="110" pos="360" len="12" pan="0" key="43"/>
          <note vol="112" pos="384" len="12" pan="0" key="47"/>
          <note vol="100" pos="408" len="12" pan="0" key="47"/>
          <note vol="112" pos="432" len="12" pan="0" key="42"/>
          <note vol="100" pos="444" len="12" pan="0" key="42"/>
          <note vol="119" pos="468" len="12" pan="0" key="47"/>
          <note vol="100" pos="492" len="12" pan="0" key="47"/>
          <note vol="117" pos="516" len="12" pan="0" key="47"/>
          <note vol="112" pos="528" len="12" pan="0" key="42"/>
          <note vol="100" pos="540" len="12" pan="0" key="42"/>
          <note vol="100" pos="552" len="12" pan="0" key="48"/>
          <note vol="108" pos="564" len="12" pan="0" key="46"/>
          <note vol="114" pos="576" len="12" pan="0" key="47"/>
          <note vol="100" pos="600" len="12" pan="0" key="47"/>
          <note vol="100" pos="624" len="12" pan="0" key="42"/>
          <note vol="117" pos="636" len="12" pan="0" key="42"/>
          <note vol="110" pos="660" len="12" pan="0" key="47"/>
          <note vol="100" pos="684" len="12" pan="0" key="47"/>
          <note vol="110" pos="708" len="12" pan="0" key="47"/>
          <note vol="91" pos="720" len="12" pan="0" key="42"/>
          <note vol="100" pos="732" len="12" pan="0" key="44"/>
          <note vol="108" pos="744" len="12" pan="0" key="46"/>
          <note vol="102" pos="756" len="12" pan="0" key="47"/>
        </pattern>
        <pattern pos="3072" steps="16" muted="0" type="1" name="Piano">
          <note vol="119" pos="0" len="12" pan="0" key="48"/>
          <note vol="100" pos="24" len="12" pan="0" key="48"/>
          <note vol="114" pos="48" len="12" pan="0" key="43"/>
          <note vol="100" pos="60" len="12" pan="0" key="43"/>
          <note vol="114" pos="84" len="12" pan="0" key="48"/>
          <note vol="100" pos="108" len="12" pan="0" key="48"/>
          <note vol="114" pos="132" len="12" pan="0" key="48"/>
          <note vol="100" pos="144" len="12" pan="0" key="43"/>
          <note vol="100" pos="156" len="12" pan="0" key="43"/>
          <note vol="114" pos="168" len="12" pan="0" key="49"/>
          <note vol="100" pos="180" len="12" pan="0" key="47"/>
          <note vol="119" pos="192" len="12" pan="0" key="48"/>
          <note vol="100" pos="216" len="12" pan="0" key="48"/>
          <note vol="100" pos="240" len="12" pan="0" key="43"/>
          <note vol="104" pos="252" len="12" pan="0" key="43"/>
          <note vol="112" pos="276" len="12" pan="0" key="48"/>
          <note vol="100" pos="300" len="12" pan="0" key="48"/>
          <note vol="114" pos="324" len="12" pan="0" key="48"/>
          <note vol="100" pos="336" len="12" pan="0" key="43"/>
          <note vol="110" pos="360" len="12" pan="0" key="43"/>
          <note vol="112" pos="384" len="12" pan="0" key="47"/>
          <note vol="100" pos="408" len="12" pan="0" key="47"/>
          <note vol="112" pos="432" len="12" pan="0" key="42"/>
          <note vol="100" pos="444" len="12" pan="0" key="42"/>
          <note vol="119" pos="468" len="12" pan="0" key="47"/>
          <note vol="100" pos="492" len="12" pan="0" key="47"/>
          <note vol="117" pos="516" len="12" pan="0" key="47"/>
          <note vol="112" pos="528" len="12" pan="0" key="42"/>
          <note vol="100" pos="540" len="12" pan="0" key="42"/>
          <note vol="100" pos="552" len="12" pan="0" key="48"/>
          <note vol="108" pos="564" len="12" pan="0" key="46"/>
          <note vol="114" pos="576" len="12" pan="0" key="47"/>
          <note vol="100" pos="600" len="12" pan="0" key="47"/>
          <note vol="100" pos="624" len="12" pan="0" key="42"/>
          <note vol="117" pos="636" len="12" pan="0" key="42"/>
          <note vol="110" pos="660" len="12" pan="0" key="47"/>
          <note vol="100" pos="684" len="12" pan="0" key="47"/>
          <note vol="110" pos="708" len="12" pan="0" key="47"/>
          <note vol="91" pos="720" len="12" pan="0" key="42"/>
          <note vol="100" pos="732" len="12" pan="0" key="44"/>
          <note vol="108" pos="744" len="12" pan="0" key="46"/>
          <note vol="102" pos="756" len="12" pan="0" key="47"/>
        </pattern>
        <pattern pos="3840" steps="16" muted="0" type="1" name="Piano">
          <note vol="119" pos="0" len="12" pan="0" key="48"/>
          <note vol="100" pos="24" len="12" pan="0" key="48"/>
          <note vol="114" pos="48" len="12" pan="0" key="43"/>
          <note vol="100" pos="60" len="12" pan="0" key="43"/>
          <note vol="114" pos="84" len="12" pan="0" key="48"/>
          <note vol="100" pos="108" len="12" pan="0" key="48"/>
          <note vol="114" pos="132" len="12" pan="0" key="48"/>
          <note vol="100" pos="144" len="12" pan="0" key="43"/>
          <note vol="100" pos="156" len="12" pan="0" key="43"/>
          <note vol="114" pos="168" len="12" pan="0" key="49"/>
          <note vol="100" pos="180" len="12" pan="0" key="47"/>
          <note vol="119" pos="192" len="12" pan="0" key="48"/>
          <note vol="100" pos="216" len="12" pan="0" key="48"/>
          <note vol="100" pos="240" len="12" pan="0" key="43"/>
          <note vol="104" pos="252" len="12" pan="0" key="43"/>
          <note vol="112" pos="276" len="12" pan="0" key="48"/>
          <note vol="100" pos="300" len="12" pan="0" key="48"/>
          <note vol="114" pos="324" len="12" pan="0" key="48"/>
          <note vol="100" pos="336" len="12" pan="0" key="43"/>
          <note vol="110" pos="360" len="12" pan="0" key="43"/>
          <note vol="112" pos="384" len="12" pan="0" key="47"/>
          <note vol="100" pos="408" len="12" pan="0" key="47"/>
          <note vol="112" pos="432" len="12" pan="0" key="42"/>
          <note vol="100" pos="444" len="12" pan="0" key="42"/>
          <note vol="119" pos="468" len="12" pan="0" key="47"/>
          <note vol="100" pos="492" len="12" pan="0" key="47"/>
          <note vol="117" pos="516" len="12" pan="0" key="47"/>
          <note vol="112" pos="528" len="12" pan="0" key="42"/>
          <note vol="100" pos="540" len="12" pan="0" key="42"/>
          <note vol="100" pos="552" len="12" pan="0" key="48"/>
          <note vol="108" pos="564" len="12" pan="0" key="46"/>
          <note vol="114" pos="576" len="12" pan="0" key="47"/>
          <note vol="100" pos="600" len="12" pan="0" key="47"/>
          <note vol="100" pos="624" len="12" pan="0" key="42"/>
          <note vol="117" pos="636" len="12" pan="0" key="42"/>
          <note vol="110" pos="660" len="12" pan="0" key="47"/>
          <note vol="100" pos="684" len="12" pan="0" key="47"/>
          <note vol="110" pos="708" len="12" pan="0" key="47"/>
          <note vol="91" pos="720" len="12" pan="0" key="42"/>
          <note vol="100" pos="732" len="12" pan="0" key="44"/>
          <note vol="108" pos="744" len="12" pan="0" key="46"/>
          <note vol="102" pos="756" len="12" pan="0" key="47"/>
        </pattern>
        <pattern pos="4608" steps="16" muted="0" type="1" name="Piano">
          <note vol="119" pos="0" len="12" pan="0" key="48"/>
          <note vol="100" pos="24" len="12" pan="0" key="48"/>
          <note vol="114" pos="48" len="12" pan="0" key="43"/>
          <note vol="100" pos="60" len="12" pan="0" key="43"/>
          <note vol="114" pos="84" len="12" pan="0" key="48"/>
          <note vol="100" pos="108" len="12" pan="0" key="48"/>
          <note vol="114" pos="132" len="12" pan="0" key="48"/>
          <note vol="100" pos="144" len="12" pan="0" key="43"/>
          <note vol="100" pos="156" len="12" pan="0" key="43"/>
          <note vol="114" pos="168" len="12" pan="0" key="49"/>
          <note vol="100" pos="180" len="12" pan="0" key="47"/>
          <note vol="119" pos="192" len="12" pan="0" key="48"/>
          <note vol="100" pos="216" len="12" pan="0" key="48"/>
          <note vol="100" pos="240" len="12" pan="0" key="43"/>
          <note vol="104" pos="252" len="12" pan="0" key="43"/>
          <note vol="112" pos="276" len="12" pan="0" key="48"/>
          <note vol="100" pos="300" len="12" pan="0" key="48"/>
          <note vol="114" pos="324" len="12" pan="0" key="48"/>
          <note vol="100" pos="336" len="12" pan="0" key="43"/>
          <note vol="110" pos="360" len="12" pan="0" key="43"/>
          <note vol="112" pos="384" len="12" pan="0" key="47"/>
          <note vol="100" pos="408" len="12" pan="0" key="47"/>
          <note vol="112" pos="432" len="12" pan="0" key="42"/>
          <note vol="100" pos="444" len="12" pan="0" key="42"/>
          <note vol="119" pos="468" len="12" pan="0" key="47"/>
          <note vol="100" pos="492" len="12" pan="0" key="47"/>
          <note vol="117" pos="516" len="12" pan="0" key="47"/>
          <note vol="112" pos="528" len="12" pan="0" key="42"/>
          <note vol="100" pos="540" len="12" pan="0" key="42"/>
          <note vol="100" pos="552" len="12" pan="0" key="48"/>
          <note vol="108" pos="564" len="12" pan="0" key="46"/>
          <note vol="114" pos="576" len="12" pan="0" key="47"/>
          <note vol="100" pos="600" len="12" pan="0" key="47"/>
          <note vol="100" pos="624" len="12" pan="0" key="42"/>
          <note vol="117" pos="636" len="12" pan="0" key="42"/>
          <note vol="110" pos="660" len="12" pan="0" key="47"/>
          <note vol="100" pos="684" len="12" pan="0" key="47"/>
          <note vol="110" pos="708" len="12" pan="0" key="47"/>
          <note vol="91" pos="720" len="12" pan="0" key="42"/>
          <note vol="100" pos="732" len="12" pan="0" key="44"/>
          <note vol="108" pos="744" len="12" pan="0" key="46"/>
          <note vol="102" pos="756" len="12" pan="0" key="47"/>
        </pattern>
        <pattern pos="5376" steps="16" muted="0" type="1" name="Piano">
          <note vol="119" pos="0" len="12" pan="0" key="48"/>
          <note vol="100" pos="24" len="12" pan="0" key="48"/>
          <note vol="114" pos="48" len="12" pan="0" key="43"/>
          <note vol="100" pos="60" len="12" pan="0" key="43"/>
          <note vol="114" pos="84" len="12" pan="0" key="48"/>
          <note vol="100" pos="108" len="12" pan="0" key="48"/>
          <note vol="114" pos="132" len="12" pan="0" key="48"/>
          <note vol="100" pos="144" len="12" pan="0" key="43"/>
          <note vol="100" pos="156" len="12" pan="0" key="43"/>
          <note vol="114" pos="168" len="12" pan="0" key="49"/>
          <note vol="100" pos="180" len="12" pan="0" key="47"/>
          <note vol="119" pos="192" len="12" pan="0" key="48"/>
          <note vol="100" pos="216" len="12" pan="0" key="48"/>
          <note vol="100" pos="240" len="12" pan="0" key="43"/>
          <note vol="104" pos="252" len="12" pan="0" key="43"/>
          <note vol="112" pos="276" len="12" pan="0" key="48"/>
          <note vol="100" pos="300" len="12" pan="0" key="48"/>
          <note vol="114" pos="324" len="12" pan="0" key="48"/>
          <note vol="100" pos="336" len="12" pan="0" key="43"/>
          <note vol="110" pos="360" len="12" pan="0" key="43"/>
          <note vol="112" pos="384" len="12" pan="0" key="47"/>
          <note vol="100" pos="408" len="12" pan="0" key="47"/>
          <note vol="112" pos="432" len="12" pan="0" key="42"/>
          <note vol="100" pos="444" len="12" pan="0" key="42"/>
          <note vol="119" pos="468" len="12" pan="0" key="47"/>
          <note vol="100" pos="492" len="12" pan="0" key="47"/>
          <note vol="117" pos="516" len="12" pan="0" key="47"/>
          <note vol="112" pos="528" len="12" pan="0" key="42"/>
          <note vol="100" pos="540" len="12" pan="0" key="42"/>
          <note vol="100" pos="552" len="12" pan="0" key="48"/>
          <note vol="108" pos="564" len="12" pan="0" key="46"/>
          <note vol="114" pos="576" len="12" pan="0" key="47"/>
          <note vol="100" pos="600" len="12" pan="0" key="47"/>
          <note vol="100" pos="624" len="12" pan="0" key="42"/>
          <note vol="117" pos="636" len="12" pan="0" key="42"/>
          <note vol="110" pos="660" len="12" pan="0" key="47"/>
          <note vol="100" pos="684" len="12" pan="0" key="47"/>
          <note vol="110" pos="708" len="12" pan="0" key="47"/>
          <note vol="91" pos="720" len="12" pan="0" key="42"/>
          <note vol="100" pos="732" len="12" pan="0" key="44"/>
          <note vol="108" pos="744" len="12" pan="0" key="46"/>
          <note vol="102" pos="756" len="12" pan="0" key="47"/>
        </pattern>
      </track>
      <track width="262" solo="0" minimized="0" maximized="0" tab="0" visible="1" height="466" muted="0" x="1187" y="0" type="0" name="Vibes">
        <instrumenttrack pitchrange="1" vol="70" pitch="0" usemasterpitch="1" pan="0" fxch="0" basenote="57">
          <instrument name="sf2player">
            <sf2player src="soundfonts/GeneralUser GS v1.471.sf2" reverbOn="0" reverbLevel="0.89999998" bank="0" reverbWidth="0.5" chorusOn="0" gain="1" patch="11" reverbRoomSize="0.2" chorusLevel="2" chorusSpeed="0.30000001" reverbDamping="0.2" chorusNum="0.89999998" chorusDepth="8"/>
          </instrument>
          <eldata fres="0.5" fcut="14000" ftype="0" fwet="0">
            <elvol lshp="0" latt="0" lspd_denominator="4" amt="0" pdel="0" hold="0.5" sustain="0.5" lspd_numerator="4" lspd_syncmode="0" att="0" lspd="0.1" x100="0" dec="0.5" lamt="0" ctlenvamt="0" lpdel="0" userwavefile="" rel="0.1"/>
            <elcut lshp="0" latt="0" lspd_denominator="4" amt="0" pdel="0" hold="0.5" sustain="0.5" lspd_numerator="4" lspd_syncmode="0" att="0" lspd="0.1" x100="0" dec="0.5" lamt="0" ctlenvamt="0" lpdel="0" userwavefile="" rel="0.1"/>
            <elres lshp="0" latt="0" lspd_denominator="4" amt="0" pdel="0" hold="0.5" sustain="0.5" lspd_numerator="4" lspd_syncmode="0" att="0" lspd="0.1" x100="0" dec="0.5" lamt="0" ctlenvamt="0" lpdel="0" userwavefile="" rel="0.1"/>
          </eldata>
          <chordcreator chord-enabled="1" chordrange="1" chord="0"/>
          <arpeggiator arpskip="0" arpdir="0" arptime_syncmode="0" arp="0" arpmode="0" arptime_numerator="4" arpgate="100" arpcycle="0" arprange="1" arp-enabled="0" arptime="200" arpmiss="0" arptime_denominator="4"/>
          <midiport inputcontroller="0" outputcontroller="0" outputprogram="1" fixedinputvelocity="-1" writable="0" inputchannel="0" basevelocity="63" fixedoutputvelocity="-1" readable="0" fixedoutputnote="-1" outputchannel="1"/>
          <fxchain numofeffects="0" enabled="0"/>
        </instrumenttrack>
        <pattern pos="1536" steps="16" muted="0" type="1" name="Vibes">
          <note vol="119" pos="0" len="12" pan="0" key="48"/>
          <note vol="100" pos="24" len="12" pan="0" key="48"/>
          <note vol="114" pos="48" len="12" pan="0" key="43"/>
          <note vol="100" pos="60" len="12" pan="0" key="43"/>
          <note vol="114" pos="84" len="12" pan="0" key="48"/>
          <note vol="100" pos="108" len="12" pan="0" key="48"/>
          <note vol="114" pos="132" len="12" pan="0" key="48"/>
          <note vol="100" pos="144" len="12" pan="0" key="43"/>
          <note vol="100" pos="156" len="12" pan="0" key="43"/>
          <note vol="114" pos="168" len="12" pan="0" key="49"/>
          <note vol="100" pos="180" len="12" pan="0" key="47"/>
          <note vol="119" pos="192" len="12" pan="0" key="48"/>
          <note vol="100" pos="216" len="12" pan="0" key="48"/>
          <note vol="100" pos="240" len="12" pan="0" key="43"/>
          <note vol="104" pos="252" len="12" pan="0" key="43"/>
          <note vol="112" pos="276" len="12" pan="0" key="48"/>
          <note vol="100" pos="300" len="12" pan="0" key="48"/>
          <note vol="114" pos="324" len="12" pan="0" key="48"/>
          <note vol="100" pos="336" len="12" pan="0" key="43"/>
          <note vol="110" pos="360" len="12" pan="0" key="43"/>
          <note vol="112" pos="384" len="12" pan="0" key="47"/>
          <note vol="100" pos="408" len="12" pan="0" key="47"/>
          <note vol="112" pos="432" len="12" pan="0" key="42"/>
          <note vol="100" pos="444" len="12" pan="0" key="42"/>
          <note vol="119" pos="468" len="12" pan="0" key="47"/>
          <note vol="100" pos="492" len="12" pan="0" key="47"/>
          <note vol="117" pos="516" len="12" pan="0" key="47"/>
          <note vol="112" pos="528" len="12" pan="0" key="42"/>
          <note vol="100" pos="540" len="12" pan="0" key="42"/>
          <note vol="100" pos="552" len="12" pan="0" key="48"/>
          <note vol="108" pos="564" len="12" pan="0" key="46"/>
          <note vol="114" pos="576" len="12" pan="0" key="47"/>
          <note vol="100" pos="600" len="12" pan="0" key="47"/>
          <note vol="100" pos="624" len="12" pan="0" key="42"/>
          <note vol="117" pos="636" len="12" pan="0" key="42"/>
          <note vol="110" pos="660" len="12" pan="0" key="47"/>
          <note vol="100" pos="684" len="12" pan="0" key="47"/>
          <note vol="110" pos="708" len="12" pan="0" key="47"/>
          <note vol="91" pos="720" len="12" pan="0" key="42"/>
          <note vol="100" pos="732" len="12" pan="0" key="44"/>
          <note vol="108" pos="744" len="12" pan="0" key="46"/>
          <note vol="102" pos="756" len="12" pan="0" key="47"/>
        </pattern>
        <pattern pos="6144" steps="16" muted="0" type="1" name="Vibes">
          <note vol="104" pos="0" len="576" pan="0" key="48"/>
        </pattern>
        <pattern pos="2304" steps="16" muted="0" type="1" name="Vibes">
          <note vol="119" pos="0" len="12" pan="0" key="48"/>
          <note vol="100" pos="24" len="12" pan="0" key="48"/>
          <note vol="114" pos="48" len="12" pan="0" key="43"/>
          <note vol="100" pos="60" len="12" pan="0" key="43"/>
          <note vol="114" pos="84" len="12" pan="0" key="48"/>
          <note vol="100" pos="108" len="12" pan="0" key="48"/>
          <note vol="114" pos="132" len="12" pan="0" key="48"/>
          <note vol="100" pos="144" len="12" pan="0" key="43"/>
          <note vol="100" pos="156" len="12" pan="0" key="43"/>
          <note vol="114" pos="168" len="12" pan="0" key="49"/>
          <note vol="100" pos="180" len="12" pan="0" key="47"/>
          <note vol="119" pos="192" len="12" pan="0" key="48"/>
          <note vol="100" pos="216" len="12" pan="0" key="48"/>
          <note vol="100" pos="240" len="12" pan="0" key="43"/>
          <note vol="104" pos="252" len="12" pan="0" key="43"/>
          <note vol="112" pos="276" len="12" pan="0" key="48"/>
          <note vol="100" pos="300" len="12" pan="0" key="48"/>
          <note vol="114" pos="324" len="12" pan="0" key="48"/>
          <note vol="100" pos="336" len="12" pan="0" key="43"/>
          <note vol="110" pos="360" len="12" pan="0" key="43"/>
          <note vol="112" pos="384" len="12" pan="0" key="47"/>
          <note vol="100" pos="408" len="12" pan="0" key="47"/>
          <note vol="112" pos="432" len="12" pan="0" key="42"/>
          <note vol="100" pos="444" len="12" pan="0" key="42"/>
          <note vol="119" pos="468" len="12" pan="0" key="47"/>
          <note vol="100" pos="492" len="12" pan="0" key="47"/>
          <note vol="117" pos="516" len="12" pan="0" key="47"/>
          <note vol="112" pos="528" len="12" pan="0" key="42"/>
          <note vol="100" pos="540" len="12" pan="0" key="42"/>
          <note vol="100" pos="552" len="12" pan="0" key="48"/>
          <note vol="108" pos="564" len="12" pan="0" key="46"/>
          <note vol="114" pos="576" len="12" pan="0" key="47"/>
          <note vol="100" pos="600" len="12" pan="0" key="47"/>
          <note vol="100" pos="624" len="12" pan="0" key="42"/>
          <note vol="117" pos="636" len="12" pan="0" key="42"/>
          <note vol="110" pos="660" len="12" pan="0" key="47"/>
          <note vol="100" pos="684" len="12" pan="0" key="47"/>
          <note vol="110" pos="708" len="12" pan="0" key="47"/>
          <note vol="91" pos="720" len="12" pan="0" key="42"/>
          <note vol="100" pos="732" len="12" pan="0" key="44"/>
          <note vol="108" pos="744" len="12" pan="0" key="46"/>
          <note vol="102" pos="756" len="12" pan="0" key="47"/>
        </pattern>
        <pattern pos="3072" steps="16" muted="0" type="1" name="Vibes">
          <note vol="119" pos="0" len="12" pan="0" key="48"/>
          <note vol="100" pos="24" len="12" pan="0" key="48"/>
          <note vol="114" pos="48" len="12" pan="0" key="43"/>
          <note vol="100" pos="60" len="12" pan="0" key="43"/>
          <note vol="114" pos="84" len="12" pan="0" key="48"/>
          <note vol="100" pos="108" len="12" pan="0" key="48"/>
          <note vol="114" pos="132" len="12" pan="0" key="48"/>
          <note vol="100" pos="144" len="12" pan="0" key="43"/>
          <note vol="100" pos="156" len="12" pan="0" key="43"/>
          <note vol="114" pos="168" len="12" pan="0" key="49"/>
          <note vol="100" pos="180" len="12" pan="0" key="47"/>
          <note vol="119" pos="192" len="12" pan="0" key="48"/>
          <note vol="100" pos="216" len="12" pan="0" key="48"/>
          <note vol="100" pos="240" len="12" pan="0" key="43"/>
          <note vol="104" pos="252" len="12" pan="0" key="43"/>
          <note vol="112" pos="276" len="12" pan="0" key="48"/>
          <note vol="100" pos="300" len="12" pan="0" key="48"/>
          <note vol="114" pos="324" len="12" pan="0" key="48"/>
          <note vol="100" pos="336" len="12" pan="0" key="43"/>
          <note vol="110" pos="360" len="12" pan="0" key="43"/>
          <note vol="112" pos="384" len="12" pan="0" key="47"/>
          <note vol="100" pos="408" len="12" pan="0" key="47"/>
          <note vol="112" pos="432" len="12" pan="0" key="42"/>
          <note vol="100" pos="444" len="12" pan="0" key="42"/>
          <note vol="119" pos="468" len="12" pan="0" key="47"/>
          <note vol="100" pos="492" len="12" pan="0" key="47"/>
          <note vol="117" pos="516" len="12" pan="0" key="47"/>
          <note vol="112" pos="528" len="12" pan="0" key="42"/>
          <note vol="100" pos="540" len="12" pan="0" key="42"/>
          <note vol="100" pos="552" len="12" pan="0" key="48"/>
          <note vol="108" pos="564" len="12" pan="0" key="46"/>
          <note vol="114" pos="576" len="12" pan="0" key="47"/>
          <note vol="100" pos="600" len="12" pan="0" key="47"/>
          <note vol="100" pos="624" len="12" pan="0" key="42"/>
          <note vol="117" pos="636" len="12" pan="0" key="42"/>
          <note vol="110" pos="660" len="12" pan="0" key="47"/>
          <note vol="100" pos="684" len="12" pan="0" key="47"/>
          <note vol="110" pos="708" len="12" pan="0" key="47"/>
          <note vol="91" pos="720" len="12" pan="0" key="42"/>
          <note vol="100" pos="732" len="12" pan="0" key="44"/>
          <note vol="108" pos="744" len="12" pan="0" key="46"/>
          <note vol="102" pos="756" len="12" pan="0" key="47"/>
        </pattern>
        <pattern pos="3840" steps="16" muted="0" type="1" name="Vibes">
          <note vol="119" pos="0" len="12" pan="0" key="48"/>
          <note vol="100" pos="24" len="12" pan="0" key="48"/>
          <note vol="114" pos="48" len="12" pan="0" key="43"/>
          <note vol="100" pos="60" len="12" pan="0" key="43"/>
          <note vol="114" pos="84" len="12" pan="0" key="48"/>
          <note vol="100" pos="108" len="12" pan="0" key="48"/>
          <note vol="114" pos="132" len="12" pan="0" key="48"/>
          <note vol="100" pos="144" len="12" pan="0" key="43"/>
          <note vol="100" pos="156" len="12" pan="0" key="43"/>
          <note vol="114" pos="168" len="12" pan="0" key="49"/>
          <note vol="100" pos="180" len="12" pan="0" key="47"/>
          <note vol="119" pos="192" len="12" pan="0" key="48"/>
          <note vol="100" pos="216" len="12" pan="0" key="48"/>
          <note vol="100" pos="240" len="12" pan="0" key="43"/>
          <note vol="104" pos="252" len="12" pan="0" key="43"/>
          <note vol="112" pos="276" len="12" pan="0" key="48"/>
          <note vol="100" pos="300" len="12" pan="0" key="48"/>
          <note vol="114" pos="324" len="12" pan="0" key="48"/>
          <note vol="100" pos="336" len="12" pan="0" key="43"/>
          <note vol="110" pos="360" len="12" pan="0" key="43"/>
          <note vol="112" pos="384" len="12" pan="0" key="47"/>
          <note vol="100" pos="408" len="12" pan="0" key="47"/>
          <note vol="112" pos="432" len="12" pan="0" key="42"/>
          <note vol="100" pos="444" len="12" pan="0" key="42"/>
          <note vol="119" pos="468" len="12" pan="0" key="47"/>
          <note vol="100" pos="492" len="12" pan="0" key="47"/>
          <note vol="117" pos="516" len="12" pan="0" key="47"/>
          <note vol="112" pos="528" len="12" pan="0" key="42"/>
          <note vol="100" pos="540" len="12" pan="0" key="42"/>
          <note vol="100" pos="552" len="12" pan="0" key="48"/>
          <note vol="108" pos="564" len="12" pan="0" key="46"/>
          <note vol="114" pos="576" len="12" pan="0" key="47"/>
          <note vol="100" pos="600" len="12" pan="0" key="47"/>
          <note vol="100" pos="624" len="12" pan="0" key="42"/>
          <note vol="117" pos="636" len="12" pan="0" key="42"/>
          <note vol="110" pos="660" len="12" pan="0" key="47"/>
          <note vol="100" pos="684" len="12" pan="0" key="47"/>
          <note vol="110" pos="708" len="12" pan="0" key="47"/>
          <note vol="91" pos="720" len="12" pan="0" key="42"/>
          <note vol="100" pos="732" len="12" pan="0" key="44"/>
          <note vol="108" pos="744" len="12" pan="0" key="46"/>
          <note vol="102" pos="756" len="12" pan="0" key="47"/>
        </pattern>
        <pattern pos="4608" steps="16" muted="0" type="1" name="Vibes">
          <note vol="119" pos="0" len="12" pan="0" key="48"/>
          <note vol="100" pos="24" len="12" pan="0" key="48"/>
          <note vol="114" pos="48" len="12" pan="0" key="43"/>
          <note vol="100" pos="60" len="12" pan="0" key="43"/>
          <note vol="114" pos="84" len="12" pan="0" key="48"/>
          <note vol="100" pos="108" len="12" pan="0" key="48"/>
          <note vol="114" pos="132" len="12" pan="0" key="48"/>
          <note vol="100" pos="144" len="12" pan="0" key="43"/>
          <note vol="100" pos="156" len="12" pan="0" key="43"/>
          <note vol="114" pos="168" len="12" pan="0" key="49"/>
          <note vol="100" pos="180" len="12" pan="0" key="47"/>
          <note vol="119" pos="192" len="12" pan="0" key="48"/>
          <note vol="100" pos="216" len="12" pan="0" key="48"/>
          <note vol="100" pos="240" len="12" pan="0" key="43"/>
          <note vol="104" pos="252" len="12" pan="0" key="43"/>
          <note vol="112" pos="276" len="12" pan="0" key="48"/>
          <note vol="100" pos="300" len="12" pan="0" key="48"/>
          <note vol="114" pos="324" len="12" pan="0" key="48"/>
          <note vol="100" pos="336" len="12" pan="0" key="43"/>
          <note vol="110" pos="360" len="12" pan="0" key="43"/>
          <note vol="112" pos="384" len="12" pan="0" key="47"/>
          <note vol="100" pos="408" len="12" pan="0" key="47"/>
          <note vol="112" pos="432" len="12" pan="0" key="42"/>
          <note vol="100" pos="444" len="12" pan="0" key="42"/>
          <note vol="119" pos="468" len="12" pan="0" key="47"/>
          <note vol="100" pos="492" len="12" pan="0" key="47"/>
          <note vol="117" pos="516" len="12" pan="0" key="47"/>
          <note vol="112" pos="528" len="12" pan="0" key="42"/>
          <note vol="100" pos="540" len="12" pan="0" key="42"/>
          <note vol="100" pos="552" len="12" pan="0" key="48"/>
          <note vol="108" pos="564" len="12" pan="0" key="46"/>
          <note vol="114" pos="576" len="12" pan="0" key="47"/>
          <note vol="100" pos="600" len="12" pan="0" key="47"/>
          <note vol="100" pos="624" len="12" pan="0" key="42"/>
          <note vol="117" pos="636" len="12" pan="0" key="42"/>
          <note vol="110" pos="660" len="12" pan="0" key="47"/>
          <note vol="100" pos="684" len="12" pan="0" key="47"/>
          <note vol="110" pos="708" len="12" pan="0" key="47"/>
          <note vol="91" pos="720" len="12" pan="0" key="42"/>
          <note vol="100" pos="732" len="12" pan="0" key="44"/>
          <note vol="108" pos="744" len="12" pan="0" key="46"/>
          <note vol="102" pos="756" len="12" pan="0" key="47"/>
        </pattern>
        <pattern pos="5376" steps="16" muted="0" type="1" name="Vibes">
          <note vol="119" pos="0" len="12" pan="0" key="48"/>
          <note vol="100" pos="24" len="12" pan="0" key="48"/>
          <note vol="114" pos="48" len="12" pan="0" key="43"/>
          <note vol="100" pos="60" len="12" pan="0" key="43"/>
          <note vol="114" pos="84" len="12" pan="0" key="48"/>
          <note vol="100" pos="108" len="12" pan="0" key="48"/>
          <note vol="114" pos="132" len="12" pan="0" key="48"/>
          <note vol="100" pos="144" len="12" pan="0" key="43"/>
          <note vol="100" pos="156" len="12" pan="0" key="43"/>
          <note vol="114" pos="168" len="12" pan="0" key="49"/>
          <note vol="100" pos="180" len="12" pan="0" key="47"/>
          <note vol="119" pos="192" len="12" pan="0" key="48"/>
          <note vol="100" pos="216" len="12" pan="0" key="48"/>
          <note vol="100" pos="240" len="12" pan="0" key="43"/>
          <note vol="104" pos="252" len="12" pan="0" key="43"/>
          <note vol="112" pos="276" len="12" pan="0" key="48"/>
          <note vol="100" pos="300" len="12" pan="0" key="48"/>
          <note vol="114" pos="324" len="12" pan="0" key="48"/>
          <note vol="100" pos="336" len="12" pan="0" key="43"/>
          <note vol="110" pos="360" len="12" pan="0" key="43"/>
          <note vol="112" pos="384" len="12" pan="0" key="47"/>
          <note vol="100" pos="408" len="12" pan="0" key="47"/>
          <note vol="112" pos="432" len="12" pan="0" key="42"/>
          <note vol="100" pos="444" len="12" pan="0" key="42"/>
          <note vol="119" pos="468" len="12" pan="0" key="47"/>
          <note vol="100" pos="492" len="12" pan="0" key="47"/>
          <note vol="117" pos="516" len="12" pan="0" key="47"/>
          <note vol="112" pos="528" len="12" pan="0" key="42"/>
          <note vol="100" pos="540" len="12" pan="0" key="42"/>
          <note vol="100" pos="552" len="12" pan="0" key="48"/>
          <note vol="108" pos="564" len="12" pan="0" key="46"/>
          <note vol="114" pos="576" len="12" pan="0" key="47"/>
          <note vol="100" pos="600" len="12" pan="0" key="47"/>
          <note vol="100" pos="624" len="12" pan="0" key="42"/>
          <note vol="117" pos="636" len="12" pan="0" key="42"/>
          <note vol="110" pos="660" len="12" pan="0" key="47"/>
          <note vol="100" pos="684" len="12" pan="0" key="47"/>
          <note vol="110" pos="708" len="12" pan="0" key="47"/>
          <note vol="91" pos="720" len="12" pan="0" key="42"/>
          <note vol="100" pos="732" len="12" pan="0" key="44"/>
          <note vol="108" pos="744" len="12" pan="0" key="46"/>
          <note vol="102" pos="756" len="12" pan="0" key="47"/>
        </pattern>
      </track>
      <track width="262" solo="0" minimized="0" maximized="0" tab="0" visible="1" height="466" muted="0" x="1449" y="0" type="0" name="French Horn">
        <instrumenttrack pitchrange="1" pitch="0" usemasterpitch="1" pan="0" fxch="0" basenote="57">
          <vol scale_type="linear" id="3247962" value="53.993057"/>
          <instrument name="sf2player">
            <sf2player src="soundfonts/GeneralUser GS v1.471.sf2" reverbOn="0" reverbLevel="0.89999998" bank="0" reverbWidth="0.5" chorusOn="0" gain="1" patch="60" reverbRoomSize="0.2" chorusLevel="2" chorusSpeed="0.30000001" reverbDamping="0.2" chorusNum="0.89999998" chorusDepth="8"/>
          </instrument>
          <eldata fres="0.5" fcut="14000" ftype="0" fwet="0">
            <elvol lshp="0" latt="0" lspd_denominator="4" amt="0" pdel="0" hold="0.5" sustain="0.5" lspd_numerator="4" lspd_syncmode="0" att="0" lspd="0.1" x100="0" dec="0.5" lamt="0" ctlenvamt="0" lpdel="0" userwavefile="" rel="0.1"/>
            <elcut lshp="0" latt="0" lspd_denominator="4" amt="0" pdel="0" hold="0.5" sustain="0.5" lspd_numerator="4" lspd_syncmode="0" att="0" lspd="0.1" x100="0" dec="0.5" lamt="0" ctlenvamt="0" lpdel="0" userwavefile="" rel="0.1"/>
            <elres lshp="0" latt="0" lspd_denominator="4" amt="0" pdel="0" hold="0.5" sustain="0.5" lspd_numerator="4" lspd_syncmode="0" att="0" lspd="0.1" x100="0" dec="0.5" lamt="0" ctlenvamt="0" lpdel="0" userwavefile="" rel="0.1"/>
          </eldata>
          <chordcreator chord-enabled="1" chordrange="1" chord="0"/>
          <arpeggiator arpskip="0" arpdir="0" arptime_syncmode="0" arp="0" arpmode="0" arptime_numerator="4" arpgate="100" arpcycle="0" arprange="1" arp-enabled="0" arptime="200" arpmiss="0" arptime_denominator="4"/>
          <midiport inputcontroller="0" outputcontroller="0" outputprogram="1" fixedinputvelocity="-1" writable="0" inputchannel="0" basevelocity="63" fixedoutputvelocity="-1" readable="0" fixedoutputnote="-1" outputchannel="1"/>
          <fxchain numofeffects="1" enabled="1">
            <effect autoquit_denominator="4" on="1" wet="1" autoquit_syncmode="0" autoquit="1" gate="0" autoquit_numerator="4" name="ladspaeffect">
              <ladspacontrols link="1" ports="20">
                <port01 link="1" data="0"/>
                <port02 link="1" data="0"/>
                <port03 link="1" data="0"/>
                <port04 link="1" data="0"/>
                <port05 link="1" data="7.2900004"/>
                <port06 link="1" data="0"/>
                <port07 link="1" data="7.2000003"/>
                <port08 link="1" data="8.1000004"/>
                <port09 link="1" data="0"/>
                <port010 link="1" data="5.8500004"/>
                <port11 data="0"/>
                <port12 data="0"/>
                <port13 data="0"/>
                <port14 data="0"/>
                <port15 data="7.2900004"/>
                <port16 data="0"/>
                <port17 data="7.2000003"/>
                <port18 data="8.1000004"/>
                <port19 data="0"/>
                <port110 data="5.8500004"/>
              </ladspacontrols>
              <key>
                <attribute name="file" value="caps"/>
                <attribute name="plugin" value="Eq"/>
              </key>
            </effect>
          </fxchain>
        </instrumenttrack>
        <pattern pos="5184" steps="16" muted="0" type="1" name="French Horn">
          <note vol="72" pos="96" len="36" pan="0" key="53"/>
          <note vol="82" pos="132" len="36" pan="0" key="57"/>
          <note vol="83" pos="168" len="24" pan="0" key="53"/>
          <note vol="104" pos="192" len="288" pan="0" key="55"/>
          <note vol="70" pos="480" len="36" pan="0" key="53"/>
          <note vol="82" pos="516" len="36" pan="0" key="57"/>
          <note vol="81" pos="552" len="24" pan="0" key="53"/>
          <note vol="95" pos="576" len="72" pan="0" key="55"/>
          <note vol="71" pos="648" len="12" pan="0" key="53"/>
          <note vol="79" pos="660" len="12" pan="0" key="52"/>
          <note vol="92" pos="672" len="180" pan="0" key="51"/>
          <note vol="71" pos="852" len="13" pan="0" key="57"/>
          <note vol="71" pos="876" len="25" pan="0" key="57"/>
          <note vol="71" pos="900" len="13" pan="0" key="57"/>
          <note vol="71" pos="912" len="13" pan="0" key="57"/>
          <note vol="71" pos="936" len="25" pan="0" key="57"/>
          <note vol="49" pos="960" len="576" pan="0" key="56"/>
        </pattern>
        <pattern pos="2880" steps="16" muted="0" type="1" name="French Horn">
          <note vol="72" pos="96" len="36" pan="0" key="53"/>
          <note vol="82" pos="132" len="36" pan="0" key="57"/>
          <note vol="83" pos="168" len="24" pan="0" key="53"/>
          <note vol="104" pos="192" len="288" pan="0" key="55"/>
          <note vol="70" pos="480" len="36" pan="0" key="53"/>
          <note vol="82" pos="516" len="36" pan="0" key="57"/>
          <note vol="81" pos="552" len="24" pan="0" key="53"/>
          <note vol="95" pos="576" len="72" pan="0" key="55"/>
          <note vol="71" pos="648" len="12" pan="0" key="53"/>
          <note vol="79" pos="660" len="12" pan="0" key="52"/>
          <note vol="92" pos="672" len="180" pan="0" key="51"/>
          <note vol="71" pos="852" len="13" pan="0" key="57"/>
          <note vol="71" pos="876" len="25" pan="0" key="57"/>
          <note vol="71" pos="900" len="13" pan="0" key="57"/>
          <note vol="71" pos="912" len="13" pan="0" key="57"/>
          <note vol="71" pos="936" len="25" pan="0" key="57"/>
        </pattern>
      </track>
      <track solo="0" muted="0" type="0" name="Trumpet">
        <instrumenttrack pitchrange="1" pitch="0" usemasterpitch="1" pan="0" fxch="0" basenote="57">
          <vol scale_type="linear" id="4220126" value="100"/>
          <instrument name="sf2player">
            <sf2player src="soundfonts/GeneralUser GS v1.471.sf2" reverbOn="0" reverbLevel="0.89999998" bank="0" reverbWidth="0.5" chorusOn="0" gain="1" patch="56" reverbRoomSize="0.2" chorusLevel="2" chorusSpeed="0.30000001" reverbDamping="0.2" chorusNum="1" chorusDepth="8"/>
          </instrument>
          <eldata fres="0.5" fcut="14000" ftype="0" fwet="0">
            <elvol lshp="0" latt="0" lspd_denominator="4" amt="0" pdel="0" hold="0.5" sustain="0.5" lspd_numerator="4" lspd_syncmode="0" att="0" lspd="0.1" x100="0" dec="0.5" lamt="0" ctlenvamt="0" lpdel="0" userwavefile="" rel="0.1"/>
            <elcut lshp="0" latt="0" lspd_denominator="4" amt="0" pdel="0" hold="0.5" sustain="0.5" lspd_numerator="4" lspd_syncmode="0" att="0" lspd="0.1" x100="0" dec="0.5" lamt="0" ctlenvamt="0" lpdel="0" userwavefile="" rel="0.1"/>
            <elres lshp="0" latt="0" lspd_denominator="4" amt="0" pdel="0" hold="0.5" sustain="0.5" lspd_numerator="4" lspd_syncmode="0" att="0" lspd="0.1" x100="0" dec="0.5" lamt="0" ctlenvamt="0" lpdel="0" userwavefile="" rel="0.1"/>
          </eldata>
          <chordcreator chord-enabled="0" chordrange="1" chord="0"/>
          <arpeggiator arpskip="0" arpdir="0" arptime_syncmode="0" arp="0" arpmode="0" arptime_numerator="4" arpgate="100" arpcycle="0" arprange="1" arp-enabled="0" arptime="200" arpmiss="0" arptime_denominator="4"/>
          <midiport inputcontroller="0" outputcontroller="0" outputprogram="1" fixedinputvelocity="-1" writable="0" inputchannel="0" basevelocity="63" fixedoutputvelocity="-1" readable="0" fixedoutputnote="-1" outputchannel="1"/>
          <fxchain numofeffects="1" enabled="1">
            <effect autoquit_denominator="4" on="1" wet="1" autoquit_syncmode="0" autoquit="1" gate="0" autoquit_numerator="4" name="ladspaeffect">
              <ladspacontrols link="1" ports="20">
                <port01 link="1" data="0"/>
                <port02 link="1" data="0"/>
                <port03 link="1" data="0"/>
                <port04 link="1" data="0"/>
                <port05 link="1" data="9.1800003"/>
                <port06 link="1" data="-0.99000001"/>
                <port07 link="1" data="0"/>
                <port08 link="1" data="-4.0500002"/>
                <port09 link="1" data="9"/>
                <port010 link="1" data="0"/>
                <port11 data="0"/>
                <port12 data="0"/>
                <port13 data="0"/>
                <port14 data="0"/>
                <port15 data="9.1800003"/>
                <port16 data="-0.99000001"/>
                <port17 data="0"/>
                <port18 data="-4.0500002"/>
                <port19 data="9"/>
                <port110 data="0"/>
              </ladspacontrols>
              <key>
                <attribute name="file" value="caps"/>
                <attribute name="plugin" value="Eq"/>
              </key>
            </effect>
          </fxchain>
        </instrumenttrack>
        <pattern pos="6144" steps="16" muted="0" type="1" name="Trumpet">
          <note vol="119" pos="108" len="12" pan="0" key="59"/>
          <note vol="87" pos="120" len="12" pan="0" key="48"/>
          <note vol="93" pos="132" len="12" pan="0" key="50"/>
          <note vol="100" pos="144" len="12" pan="0" key="52"/>
          <note vol="108" pos="156" len="12" pan="0" key="53"/>
          <note vol="114" pos="168" len="12" pan="0" key="55"/>
          <note vol="125" pos="180" len="12" pan="0" key="57"/>
          <note vol="134" pos="192" len="168" pan="0" key="59"/>
          <note vol="100" pos="360" len="24" pan="0" key="55"/>
          <note vol="121" pos="384" len="72" pan="0" key="59"/>
          <note vol="100" pos="456" len="24" pan="0" key="55"/>
          <note vol="114" pos="480" len="36" pan="0" key="59"/>
          <note vol="104" pos="516" len="36" pan="0" key="60"/>
          <note vol="104" pos="552" len="24" pan="0" key="59"/>
          <note vol="100" pos="576" len="36" pan="0" key="59"/>
          <note vol="112" pos="612" len="132" pan="0" key="57"/>
          <note vol="100" pos="744" len="24" pan="0" key="55"/>
          <note vol="108" pos="768" len="192" pan="0" key="57"/>
          <note vol="100" pos="960" len="168" pan="0" key="57"/>
          <note vol="100" pos="1128" len="24" pan="0" key="55"/>
          <note vol="110" pos="1152" len="72" pan="0" key="57"/>
          <note vol="100" pos="1224" len="24" pan="0" key="55"/>
          <note vol="100" pos="1248" len="36" pan="0" key="57"/>
          <note vol="117" pos="1284" len="36" pan="0" key="59"/>
          <note vol="106" pos="1320" len="24" pan="0" key="57"/>
          <note vol="100" pos="1344" len="36" pan="0" key="57"/>
          <note vol="110" pos="1380" len="132" pan="0" key="55"/>
          <note vol="91" pos="1512" len="12" pan="0" key="59"/>
          <note vol="91" pos="1524" len="12" pan="0" key="60"/>
          <note vol="104" pos="1536" len="384" pan="0" key="60"/>
        </pattern>
      </track>
      <track solo="0" muted="0" type="5" name="Trumpet > Volume">
        <automationtrack/>
        <automationpattern pos="6144" len="192" prog="0" tens="1" mute="0" name="Trumpet>Volume">
          <time pos="0" value="100"/>
          <object id="4220126"/>
        </automationpattern>
        <automationpattern pos="7680" len="384" prog="1" tens="1" mute="0" name="Trumpet>Volume">
          <time pos="0" value="100"/>
          <time pos="96" value="99.300003"/>
          <time pos="384" value="0"/>
          <object id="4220126"/>
        </automationpattern>
      </track>
      <track solo="0" muted="0" type="5" name="French Horn > Volume">
        <automationtrack/>
        <automationpattern pos="2880" len="192" prog="0" tens="1" mute="0" name="French Horn>Volume">
          <time pos="0" value="100"/>
          <object id="3247962"/>
        </automationpattern>
        <automationpattern pos="5184" len="192" prog="0" tens="1" mute="0" name="French Horn>Volume">
          <time pos="0" value="100"/>
          <object id="3247962"/>
        </automationpattern>
        <automationpattern pos="6144" len="576" prog="1" tens="1" mute="0" name="French Horn>Volume">
          <time pos="0" value="100"/>
          <time pos="576" value="0"/>
          <object id="3247962"/>
        </automationpattern>
      </track>
    </trackcontainer>
    <track solo="0" muted="0" type="6" name="Automation track">
      <automationtrack/>
      <automationpattern pos="0" len="192" prog="0" tens="1" mute="0" name="Numerator"/>
      <automationpattern pos="0" len="192" prog="0" tens="1" mute="0" name="Denominator"/>
      <automationpattern pos="0" len="192" prog="0" tens="1" mute="0" name="Tempo"/>
      <automationpattern pos="0" len="192" prog="0" tens="1" mute="0" name="Master volume"/>
      <automationpattern pos="0" len="192" prog="0" tens="1" mute="0" name="Master pitch"/>
    </track>
    <fxmixer width="543" minimized="0" maximized="0" visible="1" height="333" x="1134" y="474">
      <fxchannel soloed="0" num="0" volume="1" muted="0" name="Master">
        <fxchain numofeffects="0" enabled="0"/>
      </fxchannel>
      <fxchannel soloed="0" num="1" volume="0.69999999" muted="0" name="Jazz Drums">
        <fxchain numofeffects="0" enabled="0"/>
        <send amount="1" channel="0"/>
      </fxchannel>
      <fxchannel soloed="0" num="2" volume="1" muted="0" name="Bass">
        <fxchain numofeffects="0" enabled="0"/>
        <send amount="1" channel="0"/>
      </fxchannel>
    </fxmixer>
    <ControllerRackView width="350" minimized="0" maximized="0" visible="0" height="200" x="667" y="374"/>
    <pianoroll width="860" minimized="0" maximized="0" visible="1" height="479" x="169" y="419"/>
    <automationeditor width="860" minimized="0" maximized="0" visible="1" height="400" x="1" y="1"/>
    <projectnotes width="860" minimized="0" maximized="0" visible="0" height="400" x="700" y="10"><![CDATA[<!DOCTYPE HTML PUBLIC "-//W3C//DTD HTML 4.0//EN" "http://www.w3.org/TR/REC-html40/strict.dtd">
<html><head><meta name="qrichtext" content="1" /><style type="text/css">
p, li { white-space: pre-wrap; }
</style></head><body style=" font-family:'Cantarell'; font-size:11pt; font-weight:400; font-style:normal;">
<p style="-qt-paragraph-type:empty; margin-top:0px; margin-bottom:0px; margin-left:0px; margin-right:0px; -qt-block-indent:0; text-indent:0px; font-family:'Noto Sans'; font-size:10pt;"><br /></p></body></html>]]></projectnotes>
    <timeline lp1pos="9216" lpstate="1" lp0pos="0"/>
    <controllers/>
  </song>
</lmms-project>
