<?xml version="1.0"?>
<!DOCTYPE lmms-project>
<lmms-project creatorversion="1.2.2" type="song" version="1.0" creator="LMMS">
  <head timesig_denominator="4" masterpitch="0" timesig_numerator="4" bpm="110">
    <mastervol id="3742775" value="100" scale_type="linear"/>
  </head>
  <song>
    <trackcontainer visible="1" type="song" y="9" height="803" x="54" maximized="1" width="1500" minimized="0">
      <track name="Muted Dis. Gt" type="0" muted="0" solo="0">
        <instrumenttrack pan="-60" pitch="0" usemasterpitch="1" fxch="5" basenote="57" pitchrange="1">
          <vol id="4620640" value="40.799999" scale_type="linear"/>
          <instrument name="sf2player">
            <sf2player gain="1" reverbRoomSize="0.2" patch="28" reverbWidth="0.5" chorusLevel="2" src="soundfonts/SGM-v2.01-HQ-v3.0.sf2" reverbLevel="0.89999998" chorusSpeed="0.30000001" bank="1" chorusOn="0" reverbDamping="0.2" chorusNum="0.89999998" reverbOn="0" chorusDepth="8"/>
          </instrument>
          <eldata ftype="0" fres="0.5" fwet="0" fcut="14000">
            <elvol lamt="0" sustain="0.5" pdel="0" latt="0" dec="0.5" lspd_numerator="4" amt="0" userwavefile="" rel="0.1" lspd_denominator="4" lpdel="0" lspd="0.1" lshp="0" hold="0.5" att="0" ctlenvamt="0" lspd_syncmode="0" x100="0"/>
            <elcut lamt="0" sustain="0.5" pdel="0" latt="0" dec="0.5" lspd_numerator="4" amt="0" userwavefile="" rel="0.1" lspd_denominator="4" lpdel="0" lspd="0.1" lshp="0" hold="0.5" att="0" ctlenvamt="0" lspd_syncmode="0" x100="0"/>
            <elres lamt="0" sustain="0.5" pdel="0" latt="0" dec="0.5" lspd_numerator="4" amt="0" userwavefile="" rel="0.1" lspd_denominator="4" lpdel="0" lspd="0.1" lshp="0" hold="0.5" att="0" ctlenvamt="0" lspd_syncmode="0" x100="0"/>
          </eldata>
          <chordcreator chordrange="1" chord-enabled="0" chord="0"/>
          <arpeggiator arpmiss="0" arptime_numerator="4" arptime_syncmode="0" arpgate="100" arptime="200" arpcycle="0" arptime_denominator="4" arp="0" arpmode="0" arprange="1" arp-enabled="0" arpskip="0" arpdir="0"/>
          <midiport outputchannel="1" fixedoutputnote="-1" writable="0" inputchannel="0" inputcontroller="0" outputcontroller="0" fixedinputvelocity="-1" outputprogram="1" readable="0" basevelocity="63" fixedoutputvelocity="-1"/>
          <fxchain numofeffects="3" enabled="1">
            <effect wet="1" autoquit_numerator="4" name="ladspaeffect" autoquit_syncmode="0" on="1" autoquit="1" gate="0" autoquit_denominator="4">
              <ladspacontrols link="1" ports="26">
                <port02 data="20" link="1"/>
                <port03 data="0" link="1"/>
                <port04 data="1" link="1"/>
                <port05 data="0.0037499999" link="1"/>
                <port06 data="0" link="1"/>
                <port07 data="110.36" link="1"/>
                <port08 data="1226.25" link="1"/>
                <port09 data="1" link="1"/>
                <port010 data="4263.75" link="1"/>
                <port011 data="8" link="1"/>
                <port012 data="1" link="1"/>
                <port013 data="1" link="1"/>
                <port014 data="1" link="1"/>
                <port12 data="20"/>
                <port13 data="0"/>
                <port14 data="1"/>
                <port15 data="0.0037499999"/>
                <port16 data="0"/>
                <port17 data="110.36"/>
                <port18 data="1226.25"/>
                <port19 data="1"/>
                <port110 data="4263.75"/>
                <port111 data="8"/>
                <port112 data="1"/>
                <port113 data="1"/>
                <port114 data="1"/>
              </ladspacontrols>
              <key>
                <attribute name="file" value="guitarix_distortion"/>
                <attribute name="plugin" value="guitarix-distortion"/>
              </key>
            </effect>
            <effect wet="1" autoquit_numerator="4" name="bitcrush" autoquit_syncmode="0" on="0" autoquit="1" gate="0" autoquit_denominator="4">
              <bitcrushcontrols outclip="-14.2" depthon="1" levels="256" outgain="0.5" ingain="20" rate="43218" stereodiff="29.6" rateon="1" innoise="0"/>
              <key/>
            </effect>
            <effect wet="1" autoquit_numerator="4" name="eq" autoquit_syncmode="0" on="1" autoquit="1" gate="0" autoquit_denominator="4">
              <Eq LP24="0" Peak2gain="0" HighShelfres="1.4" AnalyseIn="1" LPres="0.70700002" Peak4active="0" LPactive="0" LP="0" LP12="1" Peak4gain="0" Peak2bw="0.30000001" HPactive="0" AnalyseOut="1" Lowshelfactive="0" Peak3gain="0" LowShelfres="1.4" Peak4bw="0.30000001" LP48="0" HP="0" Peak3bw="0.30000001" Lowshelfgain="0" Peak1bw="0.30000001" HP48="0" Peak2active="0" Peak3active="0" HP12="1" HighShelfgain="0" HPres="0.70700002" Highshelfactive="0" HP24="0" Peak1active="0" Outputgain="8">
                <Inputgain id="6437650" value="0" scale_type="log"/>
                <Peak1gain id="5950494" value="0" scale_type="log"/>
                <HPfreq id="5569239" value="31" scale_type="log"/>
                <LowShelffreq id="3505643" value="80" scale_type="log"/>
                <Peak1freq id="1845483" value="120" scale_type="log"/>
                <Peak2freq id="6008670" value="250" scale_type="log"/>
                <Peak3freq id="8035849" value="2000" scale_type="log"/>
                <Peak4freq id="437259" value="4000" scale_type="log"/>
                <Highshelffreq id="5755038" value="12000" scale_type="log"/>
                <LPfreq id="1081437" value="18000" scale_type="log"/>
              </Eq>
              <key/>
            </effect>
          </fxchain>
        </instrumenttrack>
        <pattern name="Muted Dis. Gt" pos="384" type="1" muted="0" steps="16">
          <note key="35" vol="100" pan="0" pos="0" len="12"/>
          <note key="35" vol="61" pan="0" pos="12" len="12"/>
          <note key="35" vol="61" pan="0" pos="24" len="12"/>
          <note key="35" vol="100" pan="0" pos="36" len="12"/>
          <note key="35" vol="61" pan="0" pos="48" len="12"/>
          <note key="35" vol="61" pan="0" pos="60" len="12"/>
          <note key="35" vol="93" pan="0" pos="72" len="12"/>
          <note key="35" vol="55" pan="0" pos="84" len="12"/>
          <note key="35" vol="61" pan="0" pos="96" len="12"/>
          <note key="35" vol="87" pan="0" pos="108" len="12"/>
          <note key="35" vol="48" pan="0" pos="120" len="12"/>
          <note key="35" vol="87" pan="0" pos="132" len="12"/>
          <note key="33" vol="87" pan="0" pos="144" len="12"/>
          <note key="33" vol="36" pan="0" pos="156" len="12"/>
          <note key="35" vol="87" pan="0" pos="168" len="12"/>
          <note key="35" vol="87" pan="0" pos="180" len="6"/>
          <note key="35" vol="87" pan="0" pos="186" len="6"/>
          <note key="35" vol="100" pan="0" pos="192" len="12"/>
          <note key="35" vol="61" pan="0" pos="204" len="12"/>
          <note key="35" vol="61" pan="0" pos="216" len="12"/>
          <note key="35" vol="100" pan="0" pos="228" len="12"/>
          <note key="35" vol="61" pan="0" pos="240" len="12"/>
          <note key="35" vol="61" pan="0" pos="252" len="12"/>
          <note key="35" vol="93" pan="0" pos="264" len="12"/>
          <note key="35" vol="55" pan="0" pos="276" len="12"/>
          <note key="35" vol="61" pan="0" pos="288" len="12"/>
          <note key="35" vol="87" pan="0" pos="300" len="12"/>
          <note key="35" vol="48" pan="0" pos="312" len="12"/>
          <note key="35" vol="87" pan="0" pos="324" len="12"/>
          <note key="33" vol="87" pan="0" pos="336" len="12"/>
          <note key="33" vol="36" pan="0" pos="348" len="12"/>
          <note key="35" vol="87" pan="0" pos="360" len="24"/>
        </pattern>
        <pattern name="Muted Dis. Gt" pos="768" type="1" muted="0" steps="16">
          <note key="35" vol="100" pan="0" pos="0" len="12"/>
          <note key="35" vol="61" pan="0" pos="12" len="12"/>
          <note key="35" vol="61" pan="0" pos="24" len="12"/>
          <note key="35" vol="100" pan="0" pos="36" len="12"/>
          <note key="35" vol="61" pan="0" pos="48" len="12"/>
          <note key="35" vol="61" pan="0" pos="60" len="12"/>
          <note key="35" vol="93" pan="0" pos="72" len="12"/>
          <note key="35" vol="55" pan="0" pos="84" len="12"/>
          <note key="35" vol="61" pan="0" pos="96" len="12"/>
          <note key="35" vol="87" pan="0" pos="108" len="12"/>
          <note key="35" vol="48" pan="0" pos="120" len="12"/>
          <note key="35" vol="87" pan="0" pos="132" len="12"/>
          <note key="36" vol="100" pan="0" pos="144" len="24"/>
          <note key="35" vol="87" pan="0" pos="168" len="12"/>
          <note key="35" vol="87" pan="0" pos="180" len="6"/>
          <note key="35" vol="87" pan="0" pos="186" len="6"/>
          <note key="35" vol="100" pan="0" pos="192" len="12"/>
          <note key="35" vol="61" pan="0" pos="204" len="12"/>
          <note key="35" vol="61" pan="0" pos="216" len="12"/>
          <note key="35" vol="100" pan="0" pos="228" len="12"/>
          <note key="35" vol="61" pan="0" pos="240" len="12"/>
          <note key="35" vol="61" pan="0" pos="252" len="12"/>
          <note key="35" vol="93" pan="0" pos="264" len="12"/>
          <note key="35" vol="55" pan="0" pos="276" len="12"/>
          <note key="35" vol="61" pan="0" pos="288" len="12"/>
          <note key="35" vol="87" pan="0" pos="300" len="12"/>
          <note key="35" vol="48" pan="0" pos="312" len="12"/>
          <note key="35" vol="87" pan="0" pos="324" len="12"/>
          <note key="33" vol="87" pan="0" pos="336" len="12"/>
          <note key="33" vol="36" pan="0" pos="348" len="12"/>
          <note key="35" vol="87" pan="0" pos="360" len="24"/>
          <note key="35" vol="100" pan="0" pos="384" len="12"/>
          <note key="35" vol="61" pan="0" pos="396" len="12"/>
          <note key="35" vol="61" pan="0" pos="408" len="12"/>
          <note key="35" vol="100" pan="0" pos="420" len="12"/>
          <note key="35" vol="61" pan="0" pos="432" len="12"/>
          <note key="35" vol="61" pan="0" pos="444" len="12"/>
          <note key="35" vol="93" pan="0" pos="456" len="12"/>
          <note key="35" vol="55" pan="0" pos="468" len="12"/>
          <note key="35" vol="61" pan="0" pos="480" len="12"/>
          <note key="35" vol="87" pan="0" pos="492" len="12"/>
          <note key="35" vol="48" pan="0" pos="504" len="12"/>
          <note key="35" vol="87" pan="0" pos="516" len="12"/>
          <note key="36" vol="100" pan="0" pos="528" len="24"/>
          <note key="35" vol="87" pan="0" pos="552" len="12"/>
          <note key="35" vol="87" pan="0" pos="564" len="6"/>
          <note key="35" vol="87" pan="0" pos="570" len="6"/>
          <note key="35" vol="100" pan="0" pos="576" len="12"/>
          <note key="35" vol="61" pan="0" pos="588" len="12"/>
          <note key="35" vol="61" pan="0" pos="600" len="12"/>
          <note key="35" vol="100" pan="0" pos="612" len="12"/>
          <note key="35" vol="61" pan="0" pos="624" len="12"/>
          <note key="35" vol="61" pan="0" pos="636" len="12"/>
          <note key="35" vol="93" pan="0" pos="648" len="12"/>
          <note key="35" vol="55" pan="0" pos="660" len="12"/>
          <note key="35" vol="61" pan="0" pos="672" len="12"/>
          <note key="35" vol="87" pan="0" pos="684" len="12"/>
          <note key="35" vol="48" pan="0" pos="696" len="12"/>
          <note key="35" vol="87" pan="0" pos="708" len="12"/>
          <note key="33" vol="87" pan="0" pos="720" len="12"/>
          <note key="33" vol="36" pan="0" pos="732" len="12"/>
          <note key="35" vol="87" pan="0" pos="744" len="24"/>
        </pattern>
        <pattern name="Muted Dis. Gt" pos="2304" type="1" muted="0" steps="16">
          <note key="35" vol="100" pan="0" pos="0" len="12"/>
          <note key="35" vol="61" pan="0" pos="12" len="12"/>
          <note key="35" vol="61" pan="0" pos="24" len="12"/>
          <note key="35" vol="100" pan="0" pos="36" len="12"/>
          <note key="35" vol="61" pan="0" pos="48" len="12"/>
          <note key="35" vol="61" pan="0" pos="60" len="12"/>
          <note key="35" vol="93" pan="0" pos="72" len="12"/>
          <note key="35" vol="55" pan="0" pos="84" len="12"/>
          <note key="35" vol="61" pan="0" pos="96" len="12"/>
          <note key="35" vol="87" pan="0" pos="108" len="12"/>
          <note key="35" vol="48" pan="0" pos="120" len="12"/>
          <note key="35" vol="87" pan="0" pos="132" len="12"/>
          <note key="36" vol="100" pan="0" pos="144" len="24"/>
          <note key="35" vol="87" pan="0" pos="168" len="12"/>
          <note key="35" vol="87" pan="0" pos="180" len="6"/>
          <note key="35" vol="87" pan="0" pos="186" len="6"/>
          <note key="35" vol="100" pan="0" pos="192" len="12"/>
          <note key="35" vol="61" pan="0" pos="204" len="12"/>
          <note key="35" vol="61" pan="0" pos="216" len="12"/>
          <note key="35" vol="100" pan="0" pos="228" len="12"/>
          <note key="35" vol="61" pan="0" pos="240" len="12"/>
          <note key="35" vol="61" pan="0" pos="252" len="12"/>
          <note key="35" vol="93" pan="0" pos="264" len="12"/>
          <note key="35" vol="55" pan="0" pos="276" len="12"/>
          <note key="35" vol="61" pan="0" pos="288" len="12"/>
          <note key="35" vol="87" pan="0" pos="300" len="12"/>
          <note key="35" vol="48" pan="0" pos="312" len="12"/>
          <note key="35" vol="42" pan="0" pos="324" len="12"/>
          <note key="35" vol="87" pan="0" pos="336" len="48"/>
        </pattern>
        <pattern name="Muted Dis. Gt" pos="2688" type="1" muted="0" steps="16">
          <note key="35" vol="100" pan="0" pos="0" len="12"/>
          <note key="35" vol="61" pan="0" pos="12" len="12"/>
          <note key="35" vol="61" pan="0" pos="24" len="12"/>
          <note key="35" vol="100" pan="0" pos="36" len="12"/>
          <note key="35" vol="61" pan="0" pos="48" len="12"/>
          <note key="35" vol="61" pan="0" pos="60" len="12"/>
          <note key="35" vol="93" pan="0" pos="72" len="12"/>
          <note key="35" vol="55" pan="0" pos="84" len="12"/>
          <note key="35" vol="61" pan="0" pos="96" len="12"/>
          <note key="35" vol="87" pan="0" pos="108" len="12"/>
          <note key="35" vol="48" pan="0" pos="120" len="12"/>
          <note key="35" vol="87" pan="0" pos="132" len="12"/>
          <note key="36" vol="100" pan="0" pos="144" len="24"/>
          <note key="35" vol="87" pan="0" pos="168" len="12"/>
          <note key="35" vol="87" pan="0" pos="180" len="6"/>
          <note key="35" vol="87" pan="0" pos="186" len="6"/>
          <note key="35" vol="100" pan="0" pos="192" len="12"/>
          <note key="35" vol="61" pan="0" pos="204" len="12"/>
          <note key="35" vol="61" pan="0" pos="216" len="12"/>
          <note key="35" vol="100" pan="0" pos="228" len="12"/>
          <note key="35" vol="61" pan="0" pos="240" len="12"/>
          <note key="35" vol="61" pan="0" pos="252" len="12"/>
          <note key="35" vol="93" pan="0" pos="264" len="12"/>
          <note key="35" vol="55" pan="0" pos="276" len="12"/>
          <note key="35" vol="61" pan="0" pos="288" len="12"/>
          <note key="35" vol="87" pan="0" pos="300" len="12"/>
          <note key="35" vol="48" pan="0" pos="312" len="12"/>
          <note key="35" vol="87" pan="0" pos="324" len="12"/>
          <note key="33" vol="87" pan="0" pos="336" len="24"/>
          <note key="35" vol="87" pan="0" pos="360" len="24"/>
          <note key="35" vol="100" pan="0" pos="384" len="12"/>
          <note key="35" vol="61" pan="0" pos="396" len="12"/>
          <note key="35" vol="61" pan="0" pos="408" len="12"/>
          <note key="35" vol="100" pan="0" pos="420" len="12"/>
          <note key="35" vol="61" pan="0" pos="432" len="12"/>
          <note key="35" vol="61" pan="0" pos="444" len="12"/>
          <note key="35" vol="93" pan="0" pos="456" len="12"/>
          <note key="35" vol="55" pan="0" pos="468" len="12"/>
          <note key="35" vol="61" pan="0" pos="480" len="12"/>
          <note key="35" vol="87" pan="0" pos="492" len="12"/>
          <note key="35" vol="48" pan="0" pos="504" len="12"/>
          <note key="35" vol="87" pan="0" pos="516" len="12"/>
          <note key="36" vol="100" pan="0" pos="528" len="24"/>
          <note key="35" vol="87" pan="0" pos="552" len="12"/>
          <note key="35" vol="87" pan="0" pos="564" len="6"/>
          <note key="35" vol="87" pan="0" pos="570" len="6"/>
          <note key="35" vol="100" pan="0" pos="576" len="12"/>
          <note key="35" vol="61" pan="0" pos="588" len="12"/>
          <note key="35" vol="61" pan="0" pos="600" len="12"/>
          <note key="35" vol="100" pan="0" pos="612" len="12"/>
          <note key="35" vol="61" pan="0" pos="624" len="12"/>
          <note key="35" vol="61" pan="0" pos="636" len="12"/>
          <note key="35" vol="93" pan="0" pos="648" len="12"/>
          <note key="35" vol="55" pan="0" pos="660" len="12"/>
          <note key="35" vol="61" pan="0" pos="672" len="12"/>
          <note key="35" vol="87" pan="0" pos="684" len="12"/>
          <note key="35" vol="48" pan="0" pos="696" len="12"/>
          <note key="35" vol="87" pan="0" pos="708" len="12"/>
          <note key="33" vol="87" pan="0" pos="720" len="24"/>
          <note key="35" vol="87" pan="0" pos="744" len="24"/>
        </pattern>
        <pattern name="Muted Dis. Gt" pos="3456" type="1" muted="0" steps="16">
          <note key="35" vol="100" pan="0" pos="0" len="12"/>
          <note key="35" vol="61" pan="0" pos="12" len="12"/>
          <note key="35" vol="61" pan="0" pos="24" len="12"/>
          <note key="35" vol="100" pan="0" pos="36" len="12"/>
          <note key="35" vol="61" pan="0" pos="48" len="12"/>
          <note key="35" vol="61" pan="0" pos="60" len="12"/>
          <note key="35" vol="93" pan="0" pos="72" len="12"/>
          <note key="35" vol="55" pan="0" pos="84" len="12"/>
          <note key="35" vol="61" pan="0" pos="96" len="12"/>
          <note key="35" vol="87" pan="0" pos="108" len="12"/>
          <note key="35" vol="48" pan="0" pos="120" len="12"/>
          <note key="35" vol="87" pan="0" pos="132" len="12"/>
          <note key="36" vol="100" pan="0" pos="144" len="24"/>
          <note key="35" vol="87" pan="0" pos="168" len="12"/>
          <note key="35" vol="87" pan="0" pos="180" len="6"/>
          <note key="35" vol="87" pan="0" pos="186" len="6"/>
          <note key="35" vol="100" pan="0" pos="192" len="12"/>
          <note key="35" vol="61" pan="0" pos="204" len="12"/>
          <note key="35" vol="61" pan="0" pos="216" len="12"/>
          <note key="35" vol="100" pan="0" pos="228" len="12"/>
          <note key="35" vol="61" pan="0" pos="240" len="12"/>
          <note key="35" vol="61" pan="0" pos="252" len="12"/>
          <note key="35" vol="93" pan="0" pos="264" len="12"/>
          <note key="35" vol="55" pan="0" pos="276" len="12"/>
          <note key="35" vol="61" pan="0" pos="288" len="12"/>
          <note key="35" vol="87" pan="0" pos="300" len="12"/>
          <note key="35" vol="48" pan="0" pos="312" len="12"/>
          <note key="35" vol="87" pan="0" pos="324" len="12"/>
          <note key="33" vol="87" pan="0" pos="336" len="24"/>
          <note key="35" vol="87" pan="0" pos="360" len="24"/>
          <note key="35" vol="100" pan="0" pos="384" len="12"/>
          <note key="35" vol="61" pan="0" pos="396" len="12"/>
          <note key="35" vol="61" pan="0" pos="408" len="12"/>
          <note key="35" vol="100" pan="0" pos="420" len="12"/>
          <note key="35" vol="61" pan="0" pos="432" len="12"/>
          <note key="35" vol="61" pan="0" pos="444" len="12"/>
          <note key="35" vol="93" pan="0" pos="456" len="12"/>
          <note key="35" vol="55" pan="0" pos="468" len="12"/>
          <note key="35" vol="61" pan="0" pos="480" len="12"/>
          <note key="35" vol="87" pan="0" pos="492" len="12"/>
          <note key="35" vol="48" pan="0" pos="504" len="12"/>
          <note key="35" vol="87" pan="0" pos="516" len="12"/>
          <note key="36" vol="100" pan="0" pos="528" len="24"/>
          <note key="35" vol="87" pan="0" pos="552" len="12"/>
          <note key="35" vol="87" pan="0" pos="564" len="6"/>
          <note key="35" vol="87" pan="0" pos="570" len="6"/>
          <note key="35" vol="100" pan="0" pos="576" len="12"/>
          <note key="35" vol="61" pan="0" pos="588" len="12"/>
          <note key="35" vol="61" pan="0" pos="600" len="12"/>
          <note key="35" vol="100" pan="0" pos="612" len="12"/>
          <note key="35" vol="61" pan="0" pos="624" len="12"/>
          <note key="35" vol="61" pan="0" pos="636" len="12"/>
          <note key="35" vol="93" pan="0" pos="648" len="12"/>
          <note key="35" vol="55" pan="0" pos="660" len="12"/>
          <note key="35" vol="61" pan="0" pos="672" len="12"/>
          <note key="35" vol="87" pan="0" pos="684" len="12"/>
          <note key="35" vol="48" pan="0" pos="696" len="12"/>
          <note key="35" vol="87" pan="0" pos="708" len="12"/>
          <note key="33" vol="87" pan="0" pos="720" len="24"/>
          <note key="35" vol="87" pan="0" pos="744" len="24"/>
        </pattern>
        <pattern name="Muted Dis. Gt" pos="4224" type="1" muted="0" steps="16">
          <note key="33" vol="100" pan="0" pos="0" len="24"/>
          <note key="32" vol="100" pan="0" pos="24" len="24"/>
          <note key="32" vol="100" pan="0" pos="96" len="24"/>
          <note key="31" vol="100" pan="0" pos="144" len="240"/>
          <note key="33" vol="100" pan="0" pos="384" len="24"/>
          <note key="32" vol="100" pan="0" pos="408" len="24"/>
          <note key="32" vol="100" pan="0" pos="480" len="24"/>
          <note key="31" vol="100" pan="0" pos="528" len="240"/>
        </pattern>
        <pattern name="Muted Dis. Gt" pos="4992" type="1" muted="0" steps="16">
          <note key="33" vol="100" pan="0" pos="0" len="24"/>
          <note key="32" vol="100" pan="0" pos="24" len="24"/>
          <note key="32" vol="100" pan="0" pos="96" len="24"/>
          <note key="31" vol="100" pan="0" pos="144" len="240"/>
          <note key="33" vol="100" pan="0" pos="384" len="24"/>
          <note key="32" vol="100" pan="0" pos="408" len="24"/>
          <note key="32" vol="100" pan="0" pos="480" len="24"/>
          <note key="31" vol="100" pan="0" pos="528" len="240"/>
        </pattern>
        <pattern name="Muted Dis. Gt" pos="5760" type="1" muted="0" steps="16">
          <note key="35" vol="78" pan="0" pos="0" len="12"/>
          <note key="35" vol="39" pan="0" pos="12" len="12"/>
          <note key="35" vol="39" pan="0" pos="24" len="12"/>
          <note key="35" vol="78" pan="0" pos="36" len="12"/>
          <note key="35" vol="39" pan="0" pos="48" len="12"/>
          <note key="35" vol="39" pan="0" pos="60" len="12"/>
          <note key="35" vol="71" pan="0" pos="72" len="12"/>
          <note key="35" vol="33" pan="0" pos="84" len="12"/>
          <note key="35" vol="39" pan="0" pos="96" len="12"/>
          <note key="35" vol="65" pan="0" pos="108" len="12"/>
          <note key="35" vol="26" pan="0" pos="120" len="12"/>
          <note key="35" vol="65" pan="0" pos="132" len="12"/>
          <note key="33" vol="65" pan="0" pos="144" len="12"/>
          <note key="33" vol="14" pan="0" pos="156" len="12"/>
          <note key="35" vol="65" pan="0" pos="168" len="12"/>
          <note key="35" vol="65" pan="0" pos="180" len="6"/>
          <note key="35" vol="65" pan="0" pos="186" len="6"/>
          <note key="35" vol="78" pan="0" pos="192" len="12"/>
          <note key="35" vol="39" pan="0" pos="204" len="12"/>
          <note key="35" vol="39" pan="0" pos="216" len="12"/>
          <note key="35" vol="78" pan="0" pos="228" len="12"/>
          <note key="35" vol="39" pan="0" pos="240" len="12"/>
          <note key="35" vol="39" pan="0" pos="252" len="12"/>
          <note key="35" vol="71" pan="0" pos="264" len="12"/>
          <note key="35" vol="33" pan="0" pos="276" len="12"/>
          <note key="35" vol="39" pan="0" pos="288" len="12"/>
          <note key="35" vol="65" pan="0" pos="300" len="12"/>
          <note key="35" vol="26" pan="0" pos="312" len="12"/>
          <note key="35" vol="65" pan="0" pos="324" len="12"/>
          <note key="33" vol="65" pan="0" pos="336" len="12"/>
          <note key="33" vol="14" pan="0" pos="348" len="12"/>
          <note key="35" vol="65" pan="0" pos="360" len="24"/>
          <note key="35" vol="78" pan="0" pos="384" len="12"/>
          <note key="35" vol="39" pan="0" pos="396" len="12"/>
          <note key="35" vol="39" pan="0" pos="408" len="12"/>
          <note key="35" vol="78" pan="0" pos="420" len="12"/>
          <note key="35" vol="39" pan="0" pos="432" len="12"/>
          <note key="35" vol="39" pan="0" pos="444" len="12"/>
          <note key="35" vol="71" pan="0" pos="456" len="12"/>
          <note key="35" vol="33" pan="0" pos="468" len="12"/>
          <note key="35" vol="39" pan="0" pos="480" len="12"/>
          <note key="35" vol="65" pan="0" pos="492" len="12"/>
          <note key="35" vol="26" pan="0" pos="504" len="12"/>
          <note key="35" vol="65" pan="0" pos="516" len="12"/>
          <note key="33" vol="65" pan="0" pos="528" len="12"/>
          <note key="33" vol="14" pan="0" pos="540" len="12"/>
          <note key="35" vol="65" pan="0" pos="552" len="12"/>
          <note key="35" vol="65" pan="0" pos="564" len="6"/>
          <note key="35" vol="65" pan="0" pos="570" len="6"/>
          <note key="35" vol="78" pan="0" pos="576" len="12"/>
          <note key="35" vol="39" pan="0" pos="588" len="12"/>
          <note key="35" vol="39" pan="0" pos="600" len="12"/>
          <note key="35" vol="78" pan="0" pos="612" len="12"/>
          <note key="35" vol="39" pan="0" pos="624" len="12"/>
          <note key="35" vol="39" pan="0" pos="636" len="12"/>
          <note key="35" vol="71" pan="0" pos="648" len="12"/>
          <note key="35" vol="33" pan="0" pos="660" len="12"/>
          <note key="35" vol="39" pan="0" pos="672" len="12"/>
          <note key="35" vol="65" pan="0" pos="684" len="12"/>
          <note key="35" vol="26" pan="0" pos="696" len="12"/>
          <note key="35" vol="65" pan="0" pos="708" len="12"/>
          <note key="33" vol="65" pan="0" pos="720" len="12"/>
          <note key="33" vol="14" pan="0" pos="732" len="12"/>
          <note key="35" vol="65" pan="0" pos="744" len="24"/>
        </pattern>
        <pattern name="Muted Dis. Gt" pos="6528" type="1" muted="0" steps="16">
          <note key="35" vol="78" pan="0" pos="0" len="12"/>
          <note key="35" vol="39" pan="0" pos="12" len="12"/>
          <note key="35" vol="39" pan="0" pos="24" len="12"/>
          <note key="35" vol="78" pan="0" pos="36" len="12"/>
          <note key="35" vol="39" pan="0" pos="48" len="12"/>
          <note key="35" vol="39" pan="0" pos="60" len="12"/>
          <note key="35" vol="71" pan="0" pos="72" len="12"/>
          <note key="35" vol="33" pan="0" pos="84" len="12"/>
          <note key="35" vol="39" pan="0" pos="96" len="12"/>
          <note key="35" vol="65" pan="0" pos="108" len="12"/>
          <note key="35" vol="26" pan="0" pos="120" len="12"/>
          <note key="35" vol="65" pan="0" pos="132" len="12"/>
          <note key="33" vol="65" pan="0" pos="144" len="12"/>
          <note key="33" vol="14" pan="0" pos="156" len="12"/>
          <note key="35" vol="65" pan="0" pos="168" len="12"/>
          <note key="35" vol="65" pan="0" pos="180" len="6"/>
          <note key="35" vol="65" pan="0" pos="186" len="6"/>
          <note key="35" vol="78" pan="0" pos="192" len="12"/>
          <note key="35" vol="39" pan="0" pos="204" len="12"/>
          <note key="35" vol="39" pan="0" pos="216" len="12"/>
          <note key="35" vol="78" pan="0" pos="228" len="12"/>
          <note key="35" vol="39" pan="0" pos="240" len="12"/>
          <note key="35" vol="39" pan="0" pos="252" len="12"/>
          <note key="35" vol="71" pan="0" pos="264" len="12"/>
          <note key="35" vol="33" pan="0" pos="276" len="12"/>
          <note key="35" vol="39" pan="0" pos="288" len="12"/>
          <note key="35" vol="65" pan="0" pos="300" len="12"/>
          <note key="35" vol="26" pan="0" pos="312" len="12"/>
          <note key="35" vol="65" pan="0" pos="324" len="12"/>
          <note key="33" vol="65" pan="0" pos="336" len="12"/>
          <note key="33" vol="14" pan="0" pos="348" len="12"/>
          <note key="35" vol="65" pan="0" pos="360" len="24"/>
          <note key="35" vol="78" pan="0" pos="384" len="12"/>
          <note key="35" vol="39" pan="0" pos="396" len="12"/>
          <note key="35" vol="39" pan="0" pos="408" len="12"/>
          <note key="35" vol="78" pan="0" pos="420" len="12"/>
          <note key="35" vol="39" pan="0" pos="432" len="12"/>
          <note key="35" vol="39" pan="0" pos="444" len="12"/>
          <note key="35" vol="71" pan="0" pos="456" len="12"/>
          <note key="35" vol="33" pan="0" pos="468" len="12"/>
          <note key="35" vol="39" pan="0" pos="480" len="12"/>
          <note key="35" vol="65" pan="0" pos="492" len="12"/>
          <note key="35" vol="26" pan="0" pos="504" len="12"/>
          <note key="35" vol="65" pan="0" pos="516" len="12"/>
          <note key="33" vol="65" pan="0" pos="528" len="12"/>
          <note key="33" vol="14" pan="0" pos="540" len="12"/>
          <note key="35" vol="65" pan="0" pos="552" len="12"/>
          <note key="35" vol="65" pan="0" pos="564" len="6"/>
          <note key="35" vol="65" pan="0" pos="570" len="6"/>
          <note key="35" vol="78" pan="0" pos="576" len="12"/>
          <note key="35" vol="39" pan="0" pos="588" len="12"/>
          <note key="35" vol="39" pan="0" pos="600" len="12"/>
          <note key="35" vol="78" pan="0" pos="612" len="12"/>
          <note key="35" vol="39" pan="0" pos="624" len="12"/>
          <note key="35" vol="39" pan="0" pos="636" len="12"/>
          <note key="35" vol="71" pan="0" pos="648" len="12"/>
          <note key="35" vol="33" pan="0" pos="660" len="12"/>
          <note key="35" vol="39" pan="0" pos="672" len="12"/>
          <note key="35" vol="65" pan="0" pos="684" len="12"/>
          <note key="35" vol="26" pan="0" pos="696" len="12"/>
          <note key="35" vol="65" pan="0" pos="708" len="12"/>
          <note key="33" vol="65" pan="0" pos="720" len="12"/>
          <note key="33" vol="14" pan="0" pos="732" len="12"/>
          <note key="35" vol="65" pan="0" pos="744" len="24"/>
        </pattern>
        <pattern name="Muted Dis. Gt" pos="7296" type="1" muted="0" steps="16">
          <note key="35" vol="78" pan="0" pos="0" len="12"/>
          <note key="35" vol="39" pan="0" pos="12" len="12"/>
          <note key="35" vol="39" pan="0" pos="24" len="12"/>
          <note key="35" vol="78" pan="0" pos="36" len="12"/>
          <note key="35" vol="39" pan="0" pos="48" len="12"/>
          <note key="35" vol="39" pan="0" pos="60" len="12"/>
          <note key="35" vol="71" pan="0" pos="72" len="12"/>
          <note key="35" vol="33" pan="0" pos="84" len="12"/>
          <note key="35" vol="39" pan="0" pos="96" len="12"/>
          <note key="35" vol="65" pan="0" pos="108" len="12"/>
          <note key="35" vol="26" pan="0" pos="120" len="12"/>
          <note key="35" vol="65" pan="0" pos="132" len="12"/>
          <note key="33" vol="65" pan="0" pos="144" len="12"/>
          <note key="33" vol="14" pan="0" pos="156" len="12"/>
          <note key="35" vol="65" pan="0" pos="168" len="12"/>
          <note key="35" vol="65" pan="0" pos="180" len="6"/>
          <note key="35" vol="65" pan="0" pos="186" len="6"/>
          <note key="35" vol="78" pan="0" pos="192" len="12"/>
          <note key="35" vol="39" pan="0" pos="204" len="12"/>
          <note key="35" vol="39" pan="0" pos="216" len="12"/>
          <note key="35" vol="78" pan="0" pos="228" len="12"/>
          <note key="35" vol="39" pan="0" pos="240" len="12"/>
          <note key="35" vol="39" pan="0" pos="252" len="12"/>
          <note key="35" vol="71" pan="0" pos="264" len="12"/>
          <note key="35" vol="33" pan="0" pos="276" len="12"/>
          <note key="35" vol="39" pan="0" pos="288" len="12"/>
          <note key="35" vol="65" pan="0" pos="300" len="12"/>
          <note key="35" vol="26" pan="0" pos="312" len="12"/>
          <note key="35" vol="65" pan="0" pos="324" len="12"/>
          <note key="33" vol="65" pan="0" pos="336" len="12"/>
          <note key="33" vol="14" pan="0" pos="348" len="12"/>
          <note key="35" vol="65" pan="0" pos="360" len="24"/>
          <note key="35" vol="78" pan="0" pos="384" len="12"/>
          <note key="35" vol="39" pan="0" pos="396" len="12"/>
          <note key="35" vol="39" pan="0" pos="408" len="12"/>
          <note key="35" vol="78" pan="0" pos="420" len="12"/>
          <note key="35" vol="39" pan="0" pos="432" len="12"/>
          <note key="35" vol="39" pan="0" pos="444" len="12"/>
          <note key="35" vol="71" pan="0" pos="456" len="12"/>
          <note key="35" vol="33" pan="0" pos="468" len="12"/>
          <note key="35" vol="39" pan="0" pos="480" len="12"/>
          <note key="35" vol="65" pan="0" pos="492" len="12"/>
          <note key="35" vol="26" pan="0" pos="504" len="12"/>
          <note key="35" vol="65" pan="0" pos="516" len="12"/>
          <note key="33" vol="65" pan="0" pos="528" len="12"/>
          <note key="33" vol="14" pan="0" pos="540" len="12"/>
          <note key="35" vol="65" pan="0" pos="552" len="12"/>
          <note key="35" vol="65" pan="0" pos="564" len="6"/>
          <note key="35" vol="65" pan="0" pos="570" len="6"/>
          <note key="35" vol="78" pan="0" pos="576" len="12"/>
          <note key="35" vol="39" pan="0" pos="588" len="12"/>
          <note key="35" vol="39" pan="0" pos="600" len="12"/>
          <note key="35" vol="78" pan="0" pos="612" len="12"/>
          <note key="35" vol="39" pan="0" pos="624" len="12"/>
          <note key="35" vol="39" pan="0" pos="636" len="12"/>
          <note key="35" vol="71" pan="0" pos="648" len="12"/>
          <note key="35" vol="33" pan="0" pos="660" len="12"/>
          <note key="35" vol="39" pan="0" pos="672" len="12"/>
          <note key="35" vol="65" pan="0" pos="684" len="12"/>
          <note key="35" vol="26" pan="0" pos="696" len="12"/>
          <note key="35" vol="65" pan="0" pos="708" len="12"/>
          <note key="33" vol="65" pan="0" pos="720" len="12"/>
          <note key="33" vol="14" pan="0" pos="732" len="12"/>
          <note key="35" vol="65" pan="0" pos="744" len="24"/>
        </pattern>
        <pattern name="Muted Dis. Gt" pos="8064" type="1" muted="0" steps="16">
          <note key="35" vol="78" pan="0" pos="0" len="12"/>
          <note key="35" vol="39" pan="0" pos="12" len="12"/>
          <note key="35" vol="39" pan="0" pos="24" len="12"/>
          <note key="35" vol="78" pan="0" pos="36" len="12"/>
          <note key="35" vol="39" pan="0" pos="48" len="12"/>
          <note key="35" vol="39" pan="0" pos="60" len="12"/>
          <note key="35" vol="71" pan="0" pos="72" len="12"/>
          <note key="35" vol="33" pan="0" pos="84" len="12"/>
          <note key="35" vol="39" pan="0" pos="96" len="12"/>
          <note key="35" vol="65" pan="0" pos="108" len="12"/>
          <note key="35" vol="26" pan="0" pos="120" len="12"/>
          <note key="35" vol="65" pan="0" pos="132" len="12"/>
          <note key="33" vol="65" pan="0" pos="144" len="12"/>
          <note key="33" vol="14" pan="0" pos="156" len="12"/>
          <note key="35" vol="65" pan="0" pos="168" len="12"/>
          <note key="35" vol="65" pan="0" pos="180" len="6"/>
          <note key="35" vol="65" pan="0" pos="186" len="6"/>
          <note key="35" vol="78" pan="0" pos="192" len="12"/>
          <note key="35" vol="39" pan="0" pos="204" len="12"/>
          <note key="35" vol="39" pan="0" pos="216" len="12"/>
          <note key="35" vol="78" pan="0" pos="228" len="12"/>
          <note key="35" vol="39" pan="0" pos="240" len="12"/>
          <note key="35" vol="39" pan="0" pos="252" len="12"/>
          <note key="35" vol="71" pan="0" pos="264" len="12"/>
          <note key="35" vol="33" pan="0" pos="276" len="12"/>
          <note key="35" vol="39" pan="0" pos="288" len="12"/>
          <note key="35" vol="65" pan="0" pos="300" len="12"/>
          <note key="35" vol="26" pan="0" pos="312" len="12"/>
          <note key="35" vol="65" pan="0" pos="324" len="12"/>
          <note key="33" vol="65" pan="0" pos="336" len="12"/>
          <note key="33" vol="14" pan="0" pos="348" len="12"/>
          <note key="35" vol="65" pan="0" pos="360" len="24"/>
          <note key="35" vol="78" pan="0" pos="384" len="12"/>
          <note key="35" vol="39" pan="0" pos="396" len="12"/>
          <note key="35" vol="39" pan="0" pos="408" len="12"/>
          <note key="35" vol="78" pan="0" pos="420" len="12"/>
          <note key="35" vol="39" pan="0" pos="432" len="12"/>
          <note key="35" vol="39" pan="0" pos="444" len="12"/>
          <note key="35" vol="71" pan="0" pos="456" len="12"/>
          <note key="35" vol="33" pan="0" pos="468" len="12"/>
          <note key="35" vol="39" pan="0" pos="480" len="12"/>
          <note key="35" vol="65" pan="0" pos="492" len="12"/>
          <note key="35" vol="26" pan="0" pos="504" len="12"/>
          <note key="35" vol="65" pan="0" pos="516" len="12"/>
          <note key="33" vol="65" pan="0" pos="528" len="12"/>
          <note key="33" vol="14" pan="0" pos="540" len="12"/>
          <note key="35" vol="65" pan="0" pos="552" len="12"/>
          <note key="35" vol="65" pan="0" pos="564" len="6"/>
          <note key="35" vol="65" pan="0" pos="570" len="6"/>
          <note key="35" vol="78" pan="0" pos="576" len="12"/>
          <note key="35" vol="39" pan="0" pos="588" len="12"/>
          <note key="35" vol="39" pan="0" pos="600" len="12"/>
          <note key="35" vol="78" pan="0" pos="612" len="12"/>
          <note key="35" vol="39" pan="0" pos="624" len="12"/>
          <note key="35" vol="39" pan="0" pos="636" len="12"/>
          <note key="35" vol="71" pan="0" pos="648" len="12"/>
          <note key="35" vol="33" pan="0" pos="660" len="12"/>
          <note key="35" vol="39" pan="0" pos="672" len="12"/>
          <note key="35" vol="65" pan="0" pos="684" len="12"/>
          <note key="35" vol="26" pan="0" pos="696" len="12"/>
          <note key="35" vol="65" pan="0" pos="708" len="12"/>
          <note key="33" vol="65" pan="0" pos="720" len="12"/>
          <note key="33" vol="14" pan="0" pos="732" len="12"/>
          <note key="35" vol="65" pan="0" pos="744" len="24"/>
        </pattern>
        <pattern name="Muted Dis. Gt" pos="9600" type="1" muted="0" steps="16">
          <note key="35" vol="100" pan="0" pos="0" len="12"/>
          <note key="35" vol="61" pan="0" pos="12" len="12"/>
          <note key="35" vol="61" pan="0" pos="24" len="12"/>
          <note key="35" vol="100" pan="0" pos="36" len="12"/>
          <note key="35" vol="61" pan="0" pos="48" len="12"/>
          <note key="35" vol="61" pan="0" pos="60" len="12"/>
          <note key="35" vol="93" pan="0" pos="72" len="12"/>
          <note key="35" vol="55" pan="0" pos="84" len="12"/>
          <note key="35" vol="61" pan="0" pos="96" len="12"/>
          <note key="35" vol="87" pan="0" pos="108" len="12"/>
          <note key="35" vol="48" pan="0" pos="120" len="12"/>
          <note key="35" vol="87" pan="0" pos="132" len="12"/>
          <note key="36" vol="100" pan="0" pos="144" len="24"/>
          <note key="35" vol="87" pan="0" pos="168" len="12"/>
          <note key="35" vol="87" pan="0" pos="180" len="6"/>
          <note key="35" vol="87" pan="0" pos="186" len="6"/>
          <note key="35" vol="100" pan="0" pos="192" len="12"/>
          <note key="35" vol="61" pan="0" pos="204" len="12"/>
          <note key="35" vol="61" pan="0" pos="216" len="12"/>
          <note key="35" vol="100" pan="0" pos="228" len="12"/>
          <note key="35" vol="61" pan="0" pos="240" len="12"/>
          <note key="35" vol="61" pan="0" pos="252" len="12"/>
          <note key="35" vol="93" pan="0" pos="264" len="12"/>
          <note key="35" vol="55" pan="0" pos="276" len="12"/>
          <note key="35" vol="61" pan="0" pos="288" len="12"/>
          <note key="35" vol="87" pan="0" pos="300" len="12"/>
          <note key="35" vol="48" pan="0" pos="312" len="12"/>
          <note key="35" vol="87" pan="0" pos="324" len="12"/>
          <note key="33" vol="87" pan="0" pos="336" len="24"/>
          <note key="35" vol="87" pan="0" pos="360" len="24"/>
          <note key="35" vol="100" pan="0" pos="384" len="12"/>
          <note key="35" vol="61" pan="0" pos="396" len="12"/>
          <note key="35" vol="61" pan="0" pos="408" len="12"/>
          <note key="35" vol="100" pan="0" pos="420" len="12"/>
          <note key="35" vol="61" pan="0" pos="432" len="12"/>
          <note key="35" vol="61" pan="0" pos="444" len="12"/>
          <note key="35" vol="93" pan="0" pos="456" len="12"/>
          <note key="35" vol="55" pan="0" pos="468" len="12"/>
          <note key="35" vol="61" pan="0" pos="480" len="12"/>
          <note key="35" vol="87" pan="0" pos="492" len="12"/>
          <note key="35" vol="48" pan="0" pos="504" len="12"/>
          <note key="35" vol="87" pan="0" pos="516" len="12"/>
          <note key="36" vol="100" pan="0" pos="528" len="24"/>
          <note key="35" vol="87" pan="0" pos="552" len="12"/>
          <note key="35" vol="87" pan="0" pos="564" len="6"/>
          <note key="35" vol="87" pan="0" pos="570" len="6"/>
          <note key="35" vol="100" pan="0" pos="576" len="12"/>
          <note key="35" vol="61" pan="0" pos="588" len="12"/>
          <note key="35" vol="61" pan="0" pos="600" len="12"/>
          <note key="35" vol="100" pan="0" pos="612" len="12"/>
          <note key="35" vol="61" pan="0" pos="624" len="12"/>
          <note key="35" vol="61" pan="0" pos="636" len="12"/>
          <note key="35" vol="93" pan="0" pos="648" len="12"/>
          <note key="35" vol="55" pan="0" pos="660" len="12"/>
          <note key="35" vol="61" pan="0" pos="672" len="12"/>
          <note key="35" vol="87" pan="0" pos="684" len="12"/>
          <note key="35" vol="48" pan="0" pos="696" len="12"/>
          <note key="35" vol="87" pan="0" pos="708" len="12"/>
          <note key="33" vol="87" pan="0" pos="720" len="24"/>
          <note key="35" vol="87" pan="0" pos="744" len="24"/>
        </pattern>
        <pattern name="Muted Dis. Gt" pos="10368" type="1" muted="0" steps="16">
          <note key="35" vol="100" pan="0" pos="0" len="12"/>
          <note key="35" vol="61" pan="0" pos="12" len="12"/>
          <note key="35" vol="61" pan="0" pos="24" len="12"/>
          <note key="35" vol="100" pan="0" pos="36" len="12"/>
          <note key="35" vol="61" pan="0" pos="48" len="12"/>
          <note key="35" vol="61" pan="0" pos="60" len="12"/>
          <note key="35" vol="93" pan="0" pos="72" len="12"/>
          <note key="35" vol="55" pan="0" pos="84" len="12"/>
          <note key="35" vol="61" pan="0" pos="96" len="12"/>
          <note key="35" vol="87" pan="0" pos="108" len="12"/>
          <note key="35" vol="48" pan="0" pos="120" len="12"/>
          <note key="35" vol="87" pan="0" pos="132" len="12"/>
          <note key="36" vol="100" pan="0" pos="144" len="24"/>
          <note key="35" vol="87" pan="0" pos="168" len="12"/>
          <note key="35" vol="87" pan="0" pos="180" len="6"/>
          <note key="35" vol="87" pan="0" pos="186" len="6"/>
          <note key="35" vol="100" pan="0" pos="192" len="12"/>
          <note key="35" vol="61" pan="0" pos="204" len="12"/>
          <note key="35" vol="61" pan="0" pos="216" len="12"/>
          <note key="35" vol="100" pan="0" pos="228" len="12"/>
          <note key="35" vol="61" pan="0" pos="240" len="12"/>
          <note key="35" vol="61" pan="0" pos="252" len="12"/>
          <note key="35" vol="93" pan="0" pos="264" len="12"/>
          <note key="35" vol="55" pan="0" pos="276" len="12"/>
          <note key="35" vol="61" pan="0" pos="288" len="12"/>
          <note key="35" vol="87" pan="0" pos="300" len="12"/>
          <note key="35" vol="48" pan="0" pos="312" len="12"/>
          <note key="35" vol="87" pan="0" pos="324" len="12"/>
          <note key="33" vol="87" pan="0" pos="336" len="24"/>
          <note key="35" vol="87" pan="0" pos="360" len="24"/>
          <note key="35" vol="100" pan="0" pos="384" len="12"/>
          <note key="35" vol="61" pan="0" pos="396" len="12"/>
          <note key="35" vol="61" pan="0" pos="408" len="12"/>
          <note key="35" vol="100" pan="0" pos="420" len="12"/>
          <note key="35" vol="61" pan="0" pos="432" len="12"/>
          <note key="35" vol="61" pan="0" pos="444" len="12"/>
          <note key="35" vol="93" pan="0" pos="456" len="12"/>
          <note key="35" vol="55" pan="0" pos="468" len="12"/>
          <note key="35" vol="61" pan="0" pos="480" len="12"/>
          <note key="35" vol="87" pan="0" pos="492" len="12"/>
          <note key="35" vol="48" pan="0" pos="504" len="12"/>
          <note key="35" vol="87" pan="0" pos="516" len="12"/>
          <note key="36" vol="100" pan="0" pos="528" len="24"/>
          <note key="35" vol="87" pan="0" pos="552" len="12"/>
          <note key="35" vol="87" pan="0" pos="564" len="6"/>
          <note key="35" vol="87" pan="0" pos="570" len="6"/>
          <note key="35" vol="100" pan="0" pos="576" len="12"/>
          <note key="35" vol="61" pan="0" pos="588" len="12"/>
          <note key="35" vol="61" pan="0" pos="600" len="12"/>
          <note key="35" vol="100" pan="0" pos="612" len="12"/>
          <note key="35" vol="61" pan="0" pos="624" len="12"/>
          <note key="35" vol="61" pan="0" pos="636" len="12"/>
          <note key="35" vol="93" pan="0" pos="648" len="12"/>
          <note key="35" vol="55" pan="0" pos="660" len="12"/>
          <note key="35" vol="61" pan="0" pos="672" len="12"/>
          <note key="35" vol="87" pan="0" pos="684" len="12"/>
          <note key="35" vol="48" pan="0" pos="696" len="12"/>
          <note key="35" vol="87" pan="0" pos="708" len="12"/>
          <note key="33" vol="87" pan="0" pos="720" len="24"/>
          <note key="35" vol="87" pan="0" pos="744" len="24"/>
        </pattern>
        <pattern name="Muted Dis. Gt" pos="9216" type="1" muted="0" steps="16">
          <note key="35" vol="100" pan="0" pos="0" len="12"/>
          <note key="35" vol="61" pan="0" pos="12" len="12"/>
          <note key="35" vol="61" pan="0" pos="24" len="12"/>
          <note key="35" vol="100" pan="0" pos="36" len="12"/>
          <note key="35" vol="61" pan="0" pos="48" len="12"/>
          <note key="35" vol="61" pan="0" pos="60" len="12"/>
          <note key="35" vol="93" pan="0" pos="72" len="12"/>
          <note key="35" vol="55" pan="0" pos="84" len="12"/>
          <note key="35" vol="61" pan="0" pos="96" len="12"/>
          <note key="35" vol="87" pan="0" pos="108" len="12"/>
          <note key="35" vol="48" pan="0" pos="120" len="12"/>
          <note key="35" vol="87" pan="0" pos="132" len="12"/>
          <note key="36" vol="100" pan="0" pos="144" len="24"/>
          <note key="35" vol="87" pan="0" pos="168" len="12"/>
          <note key="35" vol="87" pan="0" pos="180" len="6"/>
          <note key="35" vol="87" pan="0" pos="186" len="6"/>
          <note key="35" vol="100" pan="0" pos="192" len="12"/>
          <note key="35" vol="61" pan="0" pos="204" len="12"/>
          <note key="35" vol="61" pan="0" pos="216" len="12"/>
          <note key="35" vol="100" pan="0" pos="228" len="12"/>
          <note key="35" vol="61" pan="0" pos="240" len="12"/>
          <note key="35" vol="61" pan="0" pos="252" len="12"/>
          <note key="35" vol="93" pan="0" pos="264" len="12"/>
          <note key="35" vol="55" pan="0" pos="276" len="12"/>
          <note key="35" vol="61" pan="0" pos="288" len="12"/>
          <note key="35" vol="87" pan="0" pos="300" len="12"/>
          <note key="35" vol="48" pan="0" pos="312" len="12"/>
          <note key="35" vol="42" pan="0" pos="324" len="12"/>
          <note key="35" vol="87" pan="0" pos="336" len="48"/>
        </pattern>
        <pattern name="Muted Dis. Gt" pos="11136" type="1" muted="0" steps="16">
          <note key="35" vol="100" pan="0" pos="0" len="12"/>
          <note key="35" vol="61" pan="0" pos="12" len="12"/>
          <note key="35" vol="61" pan="0" pos="24" len="12"/>
          <note key="35" vol="100" pan="0" pos="36" len="12"/>
          <note key="35" vol="61" pan="0" pos="48" len="12"/>
          <note key="35" vol="61" pan="0" pos="60" len="12"/>
          <note key="35" vol="93" pan="0" pos="72" len="12"/>
          <note key="35" vol="55" pan="0" pos="84" len="12"/>
          <note key="35" vol="61" pan="0" pos="96" len="12"/>
          <note key="35" vol="87" pan="0" pos="108" len="12"/>
          <note key="35" vol="48" pan="0" pos="120" len="12"/>
          <note key="35" vol="87" pan="0" pos="132" len="12"/>
          <note key="36" vol="100" pan="0" pos="144" len="24"/>
          <note key="35" vol="87" pan="0" pos="168" len="12"/>
          <note key="35" vol="87" pan="0" pos="180" len="6"/>
          <note key="35" vol="87" pan="0" pos="186" len="6"/>
          <note key="35" vol="100" pan="0" pos="192" len="12"/>
          <note key="35" vol="61" pan="0" pos="204" len="12"/>
          <note key="35" vol="61" pan="0" pos="216" len="12"/>
          <note key="35" vol="100" pan="0" pos="228" len="12"/>
          <note key="35" vol="61" pan="0" pos="240" len="12"/>
          <note key="35" vol="61" pan="0" pos="252" len="12"/>
          <note key="35" vol="93" pan="0" pos="264" len="12"/>
          <note key="35" vol="55" pan="0" pos="276" len="12"/>
          <note key="35" vol="61" pan="0" pos="288" len="12"/>
          <note key="35" vol="87" pan="0" pos="300" len="12"/>
          <note key="35" vol="48" pan="0" pos="312" len="12"/>
          <note key="35" vol="87" pan="0" pos="324" len="12"/>
          <note key="33" vol="87" pan="0" pos="336" len="24"/>
          <note key="35" vol="87" pan="0" pos="360" len="24"/>
          <note key="35" vol="100" pan="0" pos="384" len="12"/>
          <note key="35" vol="61" pan="0" pos="396" len="12"/>
          <note key="35" vol="61" pan="0" pos="408" len="12"/>
          <note key="35" vol="100" pan="0" pos="420" len="12"/>
          <note key="35" vol="61" pan="0" pos="432" len="12"/>
          <note key="35" vol="61" pan="0" pos="444" len="12"/>
          <note key="35" vol="93" pan="0" pos="456" len="12"/>
          <note key="35" vol="55" pan="0" pos="468" len="12"/>
          <note key="35" vol="61" pan="0" pos="480" len="12"/>
          <note key="35" vol="87" pan="0" pos="492" len="12"/>
          <note key="35" vol="48" pan="0" pos="504" len="12"/>
          <note key="35" vol="87" pan="0" pos="516" len="12"/>
          <note key="36" vol="100" pan="0" pos="528" len="24"/>
          <note key="35" vol="87" pan="0" pos="552" len="12"/>
          <note key="35" vol="87" pan="0" pos="564" len="6"/>
          <note key="35" vol="87" pan="0" pos="570" len="6"/>
          <note key="35" vol="100" pan="0" pos="576" len="12"/>
          <note key="35" vol="61" pan="0" pos="588" len="12"/>
          <note key="35" vol="61" pan="0" pos="600" len="12"/>
          <note key="35" vol="100" pan="0" pos="612" len="12"/>
          <note key="35" vol="61" pan="0" pos="624" len="12"/>
          <note key="35" vol="61" pan="0" pos="636" len="12"/>
          <note key="35" vol="93" pan="0" pos="648" len="12"/>
          <note key="35" vol="55" pan="0" pos="660" len="12"/>
          <note key="35" vol="61" pan="0" pos="672" len="12"/>
          <note key="35" vol="87" pan="0" pos="684" len="12"/>
          <note key="35" vol="48" pan="0" pos="696" len="12"/>
          <note key="35" vol="87" pan="0" pos="708" len="12"/>
          <note key="33" vol="87" pan="0" pos="720" len="24"/>
          <note key="35" vol="87" pan="0" pos="744" len="24"/>
        </pattern>
        <pattern name="Muted Dis. Gt" pos="11904" type="1" muted="0" steps="16">
          <note key="35" vol="100" pan="0" pos="0" len="12"/>
          <note key="35" vol="61" pan="0" pos="12" len="12"/>
          <note key="35" vol="61" pan="0" pos="24" len="12"/>
          <note key="35" vol="100" pan="0" pos="36" len="12"/>
          <note key="35" vol="61" pan="0" pos="48" len="12"/>
          <note key="35" vol="61" pan="0" pos="60" len="12"/>
          <note key="35" vol="93" pan="0" pos="72" len="12"/>
          <note key="35" vol="55" pan="0" pos="84" len="12"/>
          <note key="35" vol="61" pan="0" pos="96" len="12"/>
          <note key="35" vol="87" pan="0" pos="108" len="12"/>
          <note key="35" vol="48" pan="0" pos="120" len="12"/>
          <note key="35" vol="87" pan="0" pos="132" len="12"/>
          <note key="36" vol="100" pan="0" pos="144" len="24"/>
          <note key="35" vol="87" pan="0" pos="168" len="12"/>
          <note key="35" vol="87" pan="0" pos="180" len="6"/>
          <note key="35" vol="87" pan="0" pos="186" len="6"/>
          <note key="35" vol="100" pan="0" pos="192" len="12"/>
          <note key="35" vol="61" pan="0" pos="204" len="12"/>
          <note key="35" vol="61" pan="0" pos="216" len="12"/>
          <note key="35" vol="100" pan="0" pos="228" len="12"/>
          <note key="35" vol="61" pan="0" pos="240" len="12"/>
          <note key="35" vol="61" pan="0" pos="252" len="12"/>
          <note key="35" vol="93" pan="0" pos="264" len="12"/>
          <note key="35" vol="55" pan="0" pos="276" len="12"/>
          <note key="35" vol="61" pan="0" pos="288" len="12"/>
          <note key="35" vol="87" pan="0" pos="300" len="12"/>
          <note key="35" vol="48" pan="0" pos="312" len="12"/>
          <note key="35" vol="87" pan="0" pos="324" len="12"/>
          <note key="33" vol="87" pan="0" pos="336" len="24"/>
          <note key="35" vol="87" pan="0" pos="360" len="24"/>
          <note key="35" vol="100" pan="0" pos="384" len="12"/>
          <note key="35" vol="61" pan="0" pos="396" len="12"/>
          <note key="35" vol="61" pan="0" pos="408" len="12"/>
          <note key="35" vol="100" pan="0" pos="420" len="12"/>
          <note key="35" vol="61" pan="0" pos="432" len="12"/>
          <note key="35" vol="61" pan="0" pos="444" len="12"/>
          <note key="35" vol="93" pan="0" pos="456" len="12"/>
          <note key="35" vol="55" pan="0" pos="468" len="12"/>
          <note key="35" vol="61" pan="0" pos="480" len="12"/>
          <note key="35" vol="87" pan="0" pos="492" len="12"/>
          <note key="35" vol="48" pan="0" pos="504" len="12"/>
          <note key="35" vol="87" pan="0" pos="516" len="12"/>
          <note key="36" vol="100" pan="0" pos="528" len="24"/>
          <note key="35" vol="87" pan="0" pos="552" len="12"/>
          <note key="35" vol="87" pan="0" pos="564" len="6"/>
          <note key="35" vol="87" pan="0" pos="570" len="6"/>
          <note key="35" vol="100" pan="0" pos="576" len="12"/>
          <note key="35" vol="61" pan="0" pos="588" len="12"/>
          <note key="35" vol="61" pan="0" pos="600" len="12"/>
          <note key="35" vol="100" pan="0" pos="612" len="12"/>
          <note key="35" vol="61" pan="0" pos="624" len="12"/>
          <note key="35" vol="61" pan="0" pos="636" len="12"/>
          <note key="35" vol="93" pan="0" pos="648" len="12"/>
          <note key="35" vol="55" pan="0" pos="660" len="12"/>
          <note key="35" vol="61" pan="0" pos="672" len="12"/>
          <note key="35" vol="87" pan="0" pos="684" len="12"/>
          <note key="35" vol="48" pan="0" pos="696" len="12"/>
          <note key="35" vol="87" pan="0" pos="708" len="12"/>
          <note key="33" vol="87" pan="0" pos="720" len="24"/>
          <note key="35" vol="87" pan="0" pos="744" len="24"/>
        </pattern>
        <pattern name="Muted Dis. Gt" pos="12672" type="1" muted="0" steps="16">
          <note key="33" vol="100" pan="0" pos="0" len="24"/>
          <note key="32" vol="100" pan="0" pos="24" len="24"/>
          <note key="32" vol="100" pan="0" pos="96" len="24"/>
          <note key="31" vol="100" pan="0" pos="144" len="240"/>
          <note key="33" vol="100" pan="0" pos="384" len="24"/>
          <note key="32" vol="100" pan="0" pos="408" len="24"/>
          <note key="32" vol="100" pan="0" pos="480" len="24"/>
          <note key="31" vol="100" pan="0" pos="528" len="240"/>
        </pattern>
        <pattern name="Muted Dis. Gt" pos="13440" type="1" muted="0" steps="16">
          <note key="33" vol="100" pan="0" pos="0" len="24"/>
          <note key="32" vol="100" pan="0" pos="24" len="24"/>
          <note key="32" vol="100" pan="0" pos="96" len="24"/>
          <note key="31" vol="100" pan="0" pos="144" len="240"/>
          <note key="33" vol="100" pan="0" pos="384" len="24"/>
          <note key="32" vol="100" pan="0" pos="408" len="24"/>
          <note key="32" vol="100" pan="0" pos="480" len="24"/>
          <note key="31" vol="100" pan="0" pos="528" len="240"/>
        </pattern>
        <pattern name="Muted Dis. Gt" pos="14208" type="1" muted="0" steps="16">
          <note key="33" vol="100" pan="0" pos="0" len="24"/>
          <note key="32" vol="100" pan="0" pos="24" len="24"/>
          <note key="32" vol="100" pan="0" pos="96" len="24"/>
          <note key="31" vol="100" pan="0" pos="144" len="240"/>
          <note key="33" vol="100" pan="0" pos="384" len="24"/>
          <note key="32" vol="100" pan="0" pos="408" len="24"/>
          <note key="32" vol="100" pan="0" pos="480" len="24"/>
          <note key="31" vol="100" pan="0" pos="528" len="240"/>
        </pattern>
        <pattern name="Muted Dis. Gt" pos="14976" type="1" muted="0" steps="16">
          <note key="33" vol="100" pan="0" pos="0" len="24"/>
          <note key="32" vol="100" pan="0" pos="24" len="24"/>
          <note key="32" vol="100" pan="0" pos="96" len="24"/>
          <note key="31" vol="100" pan="0" pos="144" len="240"/>
          <note key="33" vol="100" pan="0" pos="384" len="24"/>
          <note key="32" vol="100" pan="0" pos="408" len="24"/>
          <note key="39" vol="100" pan="0" pos="480" len="24"/>
          <note key="23" vol="100" pan="0" pos="528" len="624"/>
        </pattern>
        <pattern name="" pos="1536" type="1" muted="0" steps="16">
          <note key="35" vol="100" pan="0" pos="0" len="12"/>
          <note key="35" vol="61" pan="0" pos="12" len="12"/>
          <note key="35" vol="61" pan="0" pos="24" len="12"/>
          <note key="35" vol="100" pan="0" pos="36" len="12"/>
          <note key="35" vol="61" pan="0" pos="48" len="12"/>
          <note key="35" vol="61" pan="0" pos="60" len="12"/>
          <note key="35" vol="93" pan="0" pos="72" len="12"/>
          <note key="35" vol="55" pan="0" pos="84" len="12"/>
          <note key="35" vol="61" pan="0" pos="96" len="12"/>
          <note key="35" vol="87" pan="0" pos="108" len="12"/>
          <note key="35" vol="48" pan="0" pos="120" len="12"/>
          <note key="35" vol="87" pan="0" pos="132" len="12"/>
          <note key="36" vol="100" pan="0" pos="144" len="24"/>
          <note key="35" vol="87" pan="0" pos="168" len="12"/>
          <note key="35" vol="87" pan="0" pos="180" len="6"/>
          <note key="35" vol="87" pan="0" pos="186" len="6"/>
          <note key="35" vol="100" pan="0" pos="192" len="12"/>
          <note key="35" vol="61" pan="0" pos="204" len="12"/>
          <note key="35" vol="61" pan="0" pos="216" len="12"/>
          <note key="35" vol="100" pan="0" pos="228" len="12"/>
          <note key="35" vol="61" pan="0" pos="240" len="12"/>
          <note key="35" vol="61" pan="0" pos="252" len="12"/>
          <note key="35" vol="93" pan="0" pos="264" len="12"/>
          <note key="35" vol="55" pan="0" pos="276" len="12"/>
          <note key="35" vol="61" pan="0" pos="288" len="12"/>
          <note key="35" vol="87" pan="0" pos="300" len="12"/>
          <note key="35" vol="48" pan="0" pos="312" len="12"/>
          <note key="35" vol="87" pan="0" pos="324" len="12"/>
          <note key="33" vol="87" pan="0" pos="336" len="12"/>
          <note key="33" vol="36" pan="0" pos="348" len="12"/>
          <note key="35" vol="87" pan="0" pos="360" len="24"/>
          <note key="35" vol="100" pan="0" pos="384" len="12"/>
          <note key="35" vol="61" pan="0" pos="396" len="12"/>
          <note key="35" vol="61" pan="0" pos="408" len="12"/>
          <note key="35" vol="100" pan="0" pos="420" len="12"/>
          <note key="35" vol="61" pan="0" pos="432" len="12"/>
          <note key="35" vol="61" pan="0" pos="444" len="12"/>
          <note key="35" vol="93" pan="0" pos="456" len="12"/>
          <note key="35" vol="55" pan="0" pos="468" len="12"/>
          <note key="35" vol="61" pan="0" pos="480" len="12"/>
          <note key="35" vol="87" pan="0" pos="492" len="12"/>
          <note key="35" vol="48" pan="0" pos="504" len="12"/>
          <note key="35" vol="87" pan="0" pos="516" len="12"/>
          <note key="36" vol="100" pan="0" pos="528" len="24"/>
          <note key="35" vol="87" pan="0" pos="552" len="12"/>
          <note key="35" vol="87" pan="0" pos="564" len="6"/>
          <note key="35" vol="87" pan="0" pos="570" len="6"/>
          <note key="35" vol="100" pan="0" pos="576" len="12"/>
          <note key="35" vol="61" pan="0" pos="588" len="12"/>
          <note key="35" vol="61" pan="0" pos="600" len="12"/>
          <note key="35" vol="100" pan="0" pos="612" len="12"/>
          <note key="35" vol="61" pan="0" pos="624" len="12"/>
          <note key="35" vol="61" pan="0" pos="636" len="12"/>
          <note key="35" vol="93" pan="0" pos="648" len="12"/>
          <note key="35" vol="55" pan="0" pos="660" len="12"/>
          <note key="35" vol="61" pan="0" pos="672" len="12"/>
          <note key="35" vol="87" pan="0" pos="684" len="12"/>
          <note key="35" vol="48" pan="0" pos="696" len="12"/>
          <note key="35" vol="87" pan="0" pos="708" len="12"/>
          <note key="33" vol="87" pan="0" pos="720" len="12"/>
          <note key="33" vol="36" pan="0" pos="732" len="12"/>
          <note key="35" vol="87" pan="0" pos="744" len="24"/>
        </pattern>
      </track>
      <track name="Distortion Guitar" type="0" muted="0" solo="0">
        <instrumenttrack vol="38.400002" pan="60" pitch="0" usemasterpitch="1" fxch="5" basenote="57" pitchrange="1">
          <instrument name="sf2player">
            <sf2player gain="1" reverbRoomSize="0.2" patch="30" reverbWidth="0.5" chorusLevel="2" src="soundfonts/SGM-v2.01-HQ-v3.0.sf2" reverbLevel="0.89999998" chorusSpeed="0.30000001" bank="0" chorusOn="0" reverbDamping="0.2" chorusNum="0.89999998" reverbOn="0" chorusDepth="8"/>
          </instrument>
          <eldata ftype="0" fres="0.5" fwet="0" fcut="14000">
            <elvol lamt="0" sustain="0.5" pdel="0" latt="0" dec="0.5" lspd_numerator="4" amt="0" userwavefile="" rel="0.1" lspd_denominator="4" lpdel="0" lspd="0.1" lshp="0" hold="0.5" att="0" ctlenvamt="0" lspd_syncmode="0" x100="0"/>
            <elcut lamt="0" sustain="0.5" pdel="0" latt="0" dec="0.5" lspd_numerator="4" amt="0" userwavefile="" rel="0.1" lspd_denominator="4" lpdel="0" lspd="0.1" lshp="0" hold="0.5" att="0" ctlenvamt="0" lspd_syncmode="0" x100="0"/>
            <elres lamt="0" sustain="0.5" pdel="0" latt="0" dec="0.5" lspd_numerator="4" amt="0" userwavefile="" rel="0.1" lspd_denominator="4" lpdel="0" lspd="0.1" lshp="0" hold="0.5" att="0" ctlenvamt="0" lspd_syncmode="0" x100="0"/>
          </eldata>
          <chordcreator chordrange="1" chord-enabled="0" chord="0"/>
          <arpeggiator arpmiss="0" arptime_numerator="4" arptime_syncmode="0" arpgate="100" arptime="200" arpcycle="0" arptime_denominator="4" arp="0" arpmode="0" arprange="1" arp-enabled="0" arpskip="0" arpdir="0"/>
          <midiport outputchannel="1" fixedoutputnote="-1" writable="0" inputchannel="0" inputcontroller="0" outputcontroller="0" fixedinputvelocity="-1" outputprogram="1" readable="0" basevelocity="63" fixedoutputvelocity="-1"/>
          <fxchain numofeffects="3" enabled="1">
            <effect wet="1" autoquit_numerator="4" name="ladspaeffect" autoquit_syncmode="0" on="1" autoquit="1" gate="0" autoquit_denominator="4">
              <ladspacontrols link="1" ports="26">
                <port02 data="20" link="1"/>
                <port03 data="0" link="1"/>
                <port04 data="1" link="1"/>
                <port05 data="0.0037499999" link="1"/>
                <port06 data="0" link="1"/>
                <port07 data="110.36" link="1"/>
                <port08 data="1226.25" link="1"/>
                <port09 data="1" link="1"/>
                <port010 data="4263.75" link="1"/>
                <port011 data="8" link="1"/>
                <port012 data="1" link="1"/>
                <port013 data="1" link="1"/>
                <port014 data="1" link="1"/>
                <port12 data="20"/>
                <port13 data="0"/>
                <port14 data="1"/>
                <port15 data="0.0037499999"/>
                <port16 data="0"/>
                <port17 data="110.36"/>
                <port18 data="1226.25"/>
                <port19 data="1"/>
                <port110 data="4263.75"/>
                <port111 data="8"/>
                <port112 data="1"/>
                <port113 data="1"/>
                <port114 data="1"/>
              </ladspacontrols>
              <key>
                <attribute name="file" value="guitarix_distortion"/>
                <attribute name="plugin" value="guitarix-distortion"/>
              </key>
            </effect>
            <effect wet="1" autoquit_numerator="4" name="bitcrush" autoquit_syncmode="0" on="0" autoquit="1" gate="0" autoquit_denominator="4">
              <bitcrushcontrols outclip="-14.2" depthon="1" levels="256" outgain="0.5" ingain="20" rate="43218" stereodiff="29.6" rateon="1" innoise="0"/>
              <key/>
            </effect>
            <effect wet="1" autoquit_numerator="4" name="eq" autoquit_syncmode="0" on="1" autoquit="1" gate="0" autoquit_denominator="4">
              <Eq LP24="0" Peak2gain="0" HighShelfres="1.4" AnalyseIn="1" LPres="0.70700002" Peak4active="0" LPactive="0" LP="0" LP12="1" Peak4gain="0" Peak2bw="0.30000001" HPactive="0" AnalyseOut="1" Lowshelfactive="0" Peak3gain="0" LowShelfres="1.4" Peak4bw="0.30000001" LP48="0" HP="0" Peak3bw="0.30000001" Lowshelfgain="0" Peak1bw="0.30000001" HP48="0" Peak2active="0" Peak3active="0" HP12="1" HighShelfgain="0" HPres="0.70700002" Highshelfactive="0" HP24="0" Peak1active="0" Outputgain="8">
                <Inputgain id="6858149" value="0" scale_type="log"/>
                <Peak1gain id="6305912" value="0" scale_type="log"/>
                <HPfreq id="5382347" value="31" scale_type="log"/>
                <LowShelffreq id="3337229" value="80" scale_type="log"/>
                <Peak1freq id="7318955" value="120" scale_type="log"/>
                <Peak2freq id="2364784" value="250" scale_type="log"/>
                <Peak3freq id="1944339" value="2000" scale_type="log"/>
                <Peak4freq id="8183012" value="4000" scale_type="log"/>
                <Highshelffreq id="5892599" value="12000" scale_type="log"/>
                <LPfreq id="1539496" value="18000" scale_type="log"/>
              </Eq>
              <key/>
            </effect>
          </fxchain>
        </instrumenttrack>
        <pattern name="Distortion Guitar" pos="0" type="1" muted="0" steps="16">
          <note key="23" vol="100" pan="0" pos="0" len="12"/>
          <note key="23" vol="61" pan="0" pos="12" len="12"/>
          <note key="23" vol="61" pan="0" pos="24" len="12"/>
          <note key="23" vol="100" pan="0" pos="36" len="12"/>
          <note key="23" vol="61" pan="0" pos="48" len="12"/>
          <note key="23" vol="61" pan="0" pos="60" len="12"/>
          <note key="23" vol="93" pan="0" pos="72" len="12"/>
          <note key="23" vol="55" pan="0" pos="84" len="12"/>
          <note key="23" vol="61" pan="0" pos="96" len="12"/>
          <note key="23" vol="87" pan="0" pos="108" len="12"/>
          <note key="23" vol="48" pan="0" pos="120" len="12"/>
          <note key="23" vol="87" pan="0" pos="132" len="12"/>
          <note key="21" vol="87" pan="0" pos="144" len="12"/>
          <note key="21" vol="36" pan="0" pos="156" len="12"/>
          <note key="23" vol="87" pan="0" pos="168" len="12"/>
          <note key="23" vol="87" pan="0" pos="180" len="6"/>
          <note key="23" vol="87" pan="0" pos="186" len="6"/>
          <note key="23" vol="100" pan="0" pos="192" len="12"/>
          <note key="23" vol="61" pan="0" pos="204" len="12"/>
          <note key="23" vol="61" pan="0" pos="216" len="12"/>
          <note key="23" vol="100" pan="0" pos="228" len="12"/>
          <note key="23" vol="61" pan="0" pos="240" len="12"/>
          <note key="23" vol="61" pan="0" pos="252" len="12"/>
          <note key="23" vol="93" pan="0" pos="264" len="12"/>
          <note key="23" vol="55" pan="0" pos="276" len="12"/>
          <note key="23" vol="61" pan="0" pos="288" len="12"/>
          <note key="23" vol="87" pan="0" pos="300" len="12"/>
          <note key="23" vol="48" pan="0" pos="312" len="12"/>
          <note key="23" vol="87" pan="0" pos="324" len="12"/>
          <note key="21" vol="87" pan="0" pos="336" len="12"/>
          <note key="21" vol="36" pan="0" pos="348" len="12"/>
          <note key="23" vol="87" pan="0" pos="360" len="24"/>
          <note key="23" vol="100" pan="0" pos="384" len="12"/>
          <note key="23" vol="61" pan="0" pos="396" len="12"/>
          <note key="23" vol="61" pan="0" pos="408" len="12"/>
          <note key="23" vol="100" pan="0" pos="420" len="12"/>
          <note key="23" vol="61" pan="0" pos="432" len="12"/>
          <note key="23" vol="61" pan="0" pos="444" len="12"/>
          <note key="23" vol="93" pan="0" pos="456" len="12"/>
          <note key="23" vol="55" pan="0" pos="468" len="12"/>
          <note key="23" vol="61" pan="0" pos="480" len="12"/>
          <note key="23" vol="87" pan="0" pos="492" len="12"/>
          <note key="23" vol="48" pan="0" pos="504" len="12"/>
          <note key="23" vol="87" pan="0" pos="516" len="12"/>
          <note key="21" vol="87" pan="0" pos="528" len="12"/>
          <note key="21" vol="36" pan="0" pos="540" len="12"/>
          <note key="23" vol="87" pan="0" pos="552" len="12"/>
          <note key="23" vol="87" pan="0" pos="564" len="6"/>
          <note key="23" vol="87" pan="0" pos="570" len="6"/>
          <note key="23" vol="100" pan="0" pos="576" len="12"/>
          <note key="23" vol="61" pan="0" pos="588" len="12"/>
          <note key="23" vol="61" pan="0" pos="600" len="12"/>
          <note key="23" vol="100" pan="0" pos="612" len="12"/>
          <note key="23" vol="61" pan="0" pos="624" len="12"/>
          <note key="23" vol="61" pan="0" pos="636" len="12"/>
          <note key="23" vol="93" pan="0" pos="648" len="12"/>
          <note key="23" vol="55" pan="0" pos="660" len="12"/>
          <note key="23" vol="61" pan="0" pos="672" len="12"/>
          <note key="23" vol="87" pan="0" pos="684" len="12"/>
          <note key="23" vol="48" pan="0" pos="696" len="12"/>
          <note key="23" vol="87" pan="0" pos="708" len="12"/>
          <note key="21" vol="87" pan="0" pos="720" len="12"/>
          <note key="21" vol="36" pan="0" pos="732" len="12"/>
          <note key="23" vol="87" pan="0" pos="744" len="24"/>
        </pattern>
        <pattern name="Distortion Guitar" pos="768" type="1" muted="0" steps="16">
          <note key="23" vol="100" pan="0" pos="0" len="12"/>
          <note key="23" vol="61" pan="0" pos="12" len="12"/>
          <note key="23" vol="61" pan="0" pos="24" len="12"/>
          <note key="23" vol="100" pan="0" pos="36" len="12"/>
          <note key="23" vol="61" pan="0" pos="48" len="12"/>
          <note key="23" vol="61" pan="0" pos="60" len="12"/>
          <note key="23" vol="93" pan="0" pos="72" len="12"/>
          <note key="23" vol="55" pan="0" pos="84" len="12"/>
          <note key="23" vol="61" pan="0" pos="96" len="12"/>
          <note key="23" vol="87" pan="0" pos="108" len="12"/>
          <note key="23" vol="48" pan="0" pos="120" len="12"/>
          <note key="23" vol="87" pan="0" pos="132" len="12"/>
          <note key="24" vol="100" pan="0" pos="144" len="24"/>
          <note key="23" vol="87" pan="0" pos="168" len="12"/>
          <note key="23" vol="87" pan="0" pos="180" len="6"/>
          <note key="23" vol="87" pan="0" pos="186" len="6"/>
          <note key="23" vol="100" pan="0" pos="192" len="12"/>
          <note key="23" vol="61" pan="0" pos="204" len="12"/>
          <note key="23" vol="61" pan="0" pos="216" len="12"/>
          <note key="23" vol="100" pan="0" pos="228" len="12"/>
          <note key="23" vol="61" pan="0" pos="240" len="12"/>
          <note key="23" vol="61" pan="0" pos="252" len="12"/>
          <note key="23" vol="93" pan="0" pos="264" len="12"/>
          <note key="23" vol="55" pan="0" pos="276" len="12"/>
          <note key="23" vol="61" pan="0" pos="288" len="12"/>
          <note key="23" vol="87" pan="0" pos="300" len="12"/>
          <note key="23" vol="48" pan="0" pos="312" len="12"/>
          <note key="23" vol="87" pan="0" pos="324" len="12"/>
          <note key="21" vol="87" pan="0" pos="336" len="12"/>
          <note key="21" vol="36" pan="0" pos="348" len="12"/>
          <note key="23" vol="87" pan="0" pos="360" len="24"/>
          <note key="23" vol="100" pan="0" pos="384" len="12"/>
          <note key="23" vol="61" pan="0" pos="396" len="12"/>
          <note key="23" vol="61" pan="0" pos="408" len="12"/>
          <note key="23" vol="100" pan="0" pos="420" len="12"/>
          <note key="23" vol="61" pan="0" pos="432" len="12"/>
          <note key="23" vol="61" pan="0" pos="444" len="12"/>
          <note key="23" vol="93" pan="0" pos="456" len="12"/>
          <note key="23" vol="55" pan="0" pos="468" len="12"/>
          <note key="23" vol="61" pan="0" pos="480" len="12"/>
          <note key="23" vol="87" pan="0" pos="492" len="12"/>
          <note key="23" vol="48" pan="0" pos="504" len="12"/>
          <note key="23" vol="87" pan="0" pos="516" len="12"/>
          <note key="24" vol="100" pan="0" pos="528" len="24"/>
          <note key="23" vol="87" pan="0" pos="552" len="12"/>
          <note key="23" vol="87" pan="0" pos="564" len="6"/>
          <note key="23" vol="87" pan="0" pos="570" len="6"/>
          <note key="23" vol="100" pan="0" pos="576" len="12"/>
          <note key="23" vol="61" pan="0" pos="588" len="12"/>
          <note key="23" vol="61" pan="0" pos="600" len="12"/>
          <note key="23" vol="100" pan="0" pos="612" len="12"/>
          <note key="23" vol="61" pan="0" pos="624" len="12"/>
          <note key="23" vol="61" pan="0" pos="636" len="12"/>
          <note key="23" vol="93" pan="0" pos="648" len="12"/>
          <note key="23" vol="55" pan="0" pos="660" len="12"/>
          <note key="23" vol="61" pan="0" pos="672" len="12"/>
          <note key="23" vol="87" pan="0" pos="684" len="12"/>
          <note key="23" vol="48" pan="0" pos="696" len="12"/>
          <note key="23" vol="87" pan="0" pos="708" len="12"/>
          <note key="21" vol="87" pan="0" pos="720" len="12"/>
          <note key="21" vol="36" pan="0" pos="732" len="12"/>
          <note key="23" vol="87" pan="0" pos="744" len="24"/>
        </pattern>
        <pattern name="Distortion Guitar" pos="2688" type="1" muted="0" steps="16">
          <note key="23" vol="100" pan="0" pos="0" len="12"/>
          <note key="23" vol="61" pan="0" pos="12" len="12"/>
          <note key="23" vol="61" pan="0" pos="24" len="12"/>
          <note key="23" vol="100" pan="0" pos="36" len="12"/>
          <note key="23" vol="61" pan="0" pos="48" len="12"/>
          <note key="23" vol="61" pan="0" pos="60" len="12"/>
          <note key="23" vol="93" pan="0" pos="72" len="12"/>
          <note key="23" vol="55" pan="0" pos="84" len="12"/>
          <note key="23" vol="61" pan="0" pos="96" len="12"/>
          <note key="23" vol="87" pan="0" pos="108" len="12"/>
          <note key="23" vol="48" pan="0" pos="120" len="12"/>
          <note key="23" vol="87" pan="0" pos="132" len="12"/>
          <note key="24" vol="100" pan="0" pos="144" len="24"/>
          <note key="23" vol="87" pan="0" pos="168" len="12"/>
          <note key="23" vol="87" pan="0" pos="180" len="6"/>
          <note key="23" vol="87" pan="0" pos="186" len="6"/>
          <note key="23" vol="100" pan="0" pos="192" len="12"/>
          <note key="23" vol="61" pan="0" pos="204" len="12"/>
          <note key="23" vol="61" pan="0" pos="216" len="12"/>
          <note key="23" vol="100" pan="0" pos="228" len="12"/>
          <note key="23" vol="61" pan="0" pos="240" len="12"/>
          <note key="23" vol="61" pan="0" pos="252" len="12"/>
          <note key="23" vol="93" pan="0" pos="264" len="12"/>
          <note key="23" vol="55" pan="0" pos="276" len="12"/>
          <note key="23" vol="61" pan="0" pos="288" len="12"/>
          <note key="23" vol="87" pan="0" pos="300" len="12"/>
          <note key="23" vol="48" pan="0" pos="312" len="12"/>
          <note key="23" vol="87" pan="0" pos="324" len="12"/>
          <note key="21" vol="87" pan="0" pos="336" len="24"/>
          <note key="23" vol="87" pan="0" pos="360" len="24"/>
          <note key="23" vol="100" pan="0" pos="384" len="12"/>
          <note key="23" vol="61" pan="0" pos="396" len="12"/>
          <note key="23" vol="61" pan="0" pos="408" len="12"/>
          <note key="23" vol="100" pan="0" pos="420" len="12"/>
          <note key="23" vol="61" pan="0" pos="432" len="12"/>
          <note key="23" vol="61" pan="0" pos="444" len="12"/>
          <note key="23" vol="93" pan="0" pos="456" len="12"/>
          <note key="23" vol="55" pan="0" pos="468" len="12"/>
          <note key="23" vol="61" pan="0" pos="480" len="12"/>
          <note key="23" vol="87" pan="0" pos="492" len="12"/>
          <note key="23" vol="48" pan="0" pos="504" len="12"/>
          <note key="23" vol="87" pan="0" pos="516" len="12"/>
          <note key="24" vol="100" pan="0" pos="528" len="24"/>
          <note key="23" vol="87" pan="0" pos="552" len="12"/>
          <note key="23" vol="87" pan="0" pos="564" len="6"/>
          <note key="23" vol="87" pan="0" pos="570" len="6"/>
          <note key="23" vol="100" pan="0" pos="576" len="12"/>
          <note key="23" vol="61" pan="0" pos="588" len="12"/>
          <note key="23" vol="61" pan="0" pos="600" len="12"/>
          <note key="23" vol="100" pan="0" pos="612" len="12"/>
          <note key="23" vol="61" pan="0" pos="624" len="12"/>
          <note key="23" vol="61" pan="0" pos="636" len="12"/>
          <note key="23" vol="93" pan="0" pos="648" len="12"/>
          <note key="23" vol="55" pan="0" pos="660" len="12"/>
          <note key="23" vol="61" pan="0" pos="672" len="12"/>
          <note key="23" vol="87" pan="0" pos="684" len="12"/>
          <note key="23" vol="48" pan="0" pos="696" len="12"/>
          <note key="23" vol="87" pan="0" pos="708" len="12"/>
          <note key="21" vol="87" pan="0" pos="720" len="24"/>
          <note key="23" vol="87" pan="0" pos="744" len="24"/>
        </pattern>
        <pattern name="Distortion Guitar" pos="3456" type="1" muted="0" steps="16">
          <note key="23" vol="100" pan="0" pos="0" len="12"/>
          <note key="23" vol="61" pan="0" pos="12" len="12"/>
          <note key="23" vol="61" pan="0" pos="24" len="12"/>
          <note key="23" vol="100" pan="0" pos="36" len="12"/>
          <note key="23" vol="61" pan="0" pos="48" len="12"/>
          <note key="23" vol="61" pan="0" pos="60" len="12"/>
          <note key="23" vol="93" pan="0" pos="72" len="12"/>
          <note key="23" vol="55" pan="0" pos="84" len="12"/>
          <note key="23" vol="61" pan="0" pos="96" len="12"/>
          <note key="23" vol="87" pan="0" pos="108" len="12"/>
          <note key="23" vol="48" pan="0" pos="120" len="12"/>
          <note key="23" vol="87" pan="0" pos="132" len="12"/>
          <note key="24" vol="100" pan="0" pos="144" len="24"/>
          <note key="23" vol="87" pan="0" pos="168" len="12"/>
          <note key="23" vol="87" pan="0" pos="180" len="6"/>
          <note key="23" vol="87" pan="0" pos="186" len="6"/>
          <note key="23" vol="100" pan="0" pos="192" len="12"/>
          <note key="23" vol="61" pan="0" pos="204" len="12"/>
          <note key="23" vol="61" pan="0" pos="216" len="12"/>
          <note key="23" vol="100" pan="0" pos="228" len="12"/>
          <note key="23" vol="61" pan="0" pos="240" len="12"/>
          <note key="23" vol="61" pan="0" pos="252" len="12"/>
          <note key="23" vol="93" pan="0" pos="264" len="12"/>
          <note key="23" vol="55" pan="0" pos="276" len="12"/>
          <note key="23" vol="61" pan="0" pos="288" len="12"/>
          <note key="23" vol="87" pan="0" pos="300" len="12"/>
          <note key="23" vol="48" pan="0" pos="312" len="12"/>
          <note key="23" vol="87" pan="0" pos="324" len="12"/>
          <note key="21" vol="87" pan="0" pos="336" len="24"/>
          <note key="23" vol="87" pan="0" pos="360" len="24"/>
          <note key="23" vol="100" pan="0" pos="384" len="12"/>
          <note key="23" vol="61" pan="0" pos="396" len="12"/>
          <note key="23" vol="61" pan="0" pos="408" len="12"/>
          <note key="23" vol="100" pan="0" pos="420" len="12"/>
          <note key="23" vol="61" pan="0" pos="432" len="12"/>
          <note key="23" vol="61" pan="0" pos="444" len="12"/>
          <note key="23" vol="93" pan="0" pos="456" len="12"/>
          <note key="23" vol="55" pan="0" pos="468" len="12"/>
          <note key="23" vol="61" pan="0" pos="480" len="12"/>
          <note key="23" vol="87" pan="0" pos="492" len="12"/>
          <note key="23" vol="48" pan="0" pos="504" len="12"/>
          <note key="23" vol="87" pan="0" pos="516" len="12"/>
          <note key="24" vol="100" pan="0" pos="528" len="24"/>
          <note key="23" vol="87" pan="0" pos="552" len="12"/>
          <note key="23" vol="87" pan="0" pos="564" len="6"/>
          <note key="23" vol="87" pan="0" pos="570" len="6"/>
          <note key="23" vol="100" pan="0" pos="576" len="12"/>
          <note key="23" vol="61" pan="0" pos="588" len="12"/>
          <note key="23" vol="61" pan="0" pos="600" len="12"/>
          <note key="23" vol="100" pan="0" pos="612" len="12"/>
          <note key="23" vol="61" pan="0" pos="624" len="12"/>
          <note key="23" vol="61" pan="0" pos="636" len="12"/>
          <note key="23" vol="93" pan="0" pos="648" len="12"/>
          <note key="23" vol="55" pan="0" pos="660" len="12"/>
          <note key="23" vol="61" pan="0" pos="672" len="12"/>
          <note key="23" vol="87" pan="0" pos="684" len="12"/>
          <note key="23" vol="48" pan="0" pos="696" len="12"/>
          <note key="23" vol="87" pan="0" pos="708" len="12"/>
          <note key="21" vol="87" pan="0" pos="720" len="24"/>
          <note key="23" vol="87" pan="0" pos="744" len="24"/>
        </pattern>
        <pattern name="Distortion Guitar" pos="4224" type="1" muted="0" steps="16">
          <note key="21" vol="100" pan="0" pos="0" len="24"/>
          <note key="20" vol="100" pan="0" pos="24" len="24"/>
          <note key="20" vol="100" pan="0" pos="96" len="24"/>
          <note key="19" vol="100" pan="0" pos="144" len="240"/>
          <note key="21" vol="100" pan="0" pos="384" len="24"/>
          <note key="20" vol="100" pan="0" pos="408" len="24"/>
          <note key="20" vol="100" pan="0" pos="480" len="24"/>
          <note key="19" vol="100" pan="0" pos="528" len="240"/>
        </pattern>
        <pattern name="Distortion Guitar" pos="4992" type="1" muted="0" steps="16">
          <note key="23" vol="100" pan="0" pos="0" len="12"/>
          <note key="23" vol="61" pan="0" pos="12" len="12"/>
          <note key="23" vol="61" pan="0" pos="24" len="12"/>
          <note key="23" vol="100" pan="0" pos="36" len="12"/>
          <note key="23" vol="61" pan="0" pos="48" len="12"/>
          <note key="23" vol="61" pan="0" pos="60" len="12"/>
          <note key="23" vol="93" pan="0" pos="72" len="12"/>
          <note key="23" vol="55" pan="0" pos="84" len="12"/>
          <note key="23" vol="61" pan="0" pos="96" len="12"/>
          <note key="23" vol="87" pan="0" pos="108" len="12"/>
          <note key="23" vol="48" pan="0" pos="120" len="12"/>
          <note key="23" vol="87" pan="0" pos="132" len="12"/>
          <note key="24" vol="100" pan="0" pos="144" len="24"/>
          <note key="23" vol="87" pan="0" pos="168" len="12"/>
          <note key="23" vol="87" pan="0" pos="180" len="6"/>
          <note key="23" vol="87" pan="0" pos="186" len="6"/>
          <note key="23" vol="100" pan="0" pos="192" len="12"/>
          <note key="23" vol="61" pan="0" pos="204" len="12"/>
          <note key="23" vol="61" pan="0" pos="216" len="12"/>
          <note key="23" vol="100" pan="0" pos="228" len="12"/>
          <note key="23" vol="61" pan="0" pos="240" len="12"/>
          <note key="23" vol="61" pan="0" pos="252" len="12"/>
          <note key="23" vol="93" pan="0" pos="264" len="12"/>
          <note key="23" vol="55" pan="0" pos="276" len="12"/>
          <note key="23" vol="61" pan="0" pos="288" len="12"/>
          <note key="23" vol="87" pan="0" pos="300" len="12"/>
          <note key="23" vol="48" pan="0" pos="312" len="12"/>
          <note key="23" vol="87" pan="0" pos="324" len="12"/>
          <note key="21" vol="87" pan="0" pos="336" len="24"/>
          <note key="23" vol="87" pan="0" pos="360" len="24"/>
          <note key="23" vol="100" pan="0" pos="384" len="12"/>
          <note key="23" vol="61" pan="0" pos="396" len="12"/>
          <note key="23" vol="61" pan="0" pos="408" len="12"/>
          <note key="23" vol="100" pan="0" pos="420" len="12"/>
          <note key="23" vol="61" pan="0" pos="432" len="12"/>
          <note key="23" vol="61" pan="0" pos="444" len="12"/>
          <note key="23" vol="93" pan="0" pos="456" len="12"/>
          <note key="23" vol="55" pan="0" pos="468" len="12"/>
          <note key="23" vol="61" pan="0" pos="480" len="12"/>
          <note key="23" vol="87" pan="0" pos="492" len="12"/>
          <note key="23" vol="48" pan="0" pos="504" len="12"/>
          <note key="23" vol="87" pan="0" pos="516" len="12"/>
          <note key="24" vol="100" pan="0" pos="528" len="24"/>
          <note key="23" vol="87" pan="0" pos="552" len="12"/>
          <note key="23" vol="87" pan="0" pos="564" len="6"/>
          <note key="23" vol="87" pan="0" pos="570" len="6"/>
          <note key="23" vol="100" pan="0" pos="576" len="12"/>
          <note key="23" vol="61" pan="0" pos="588" len="12"/>
          <note key="23" vol="61" pan="0" pos="600" len="12"/>
          <note key="23" vol="100" pan="0" pos="612" len="12"/>
          <note key="23" vol="61" pan="0" pos="624" len="12"/>
          <note key="23" vol="61" pan="0" pos="636" len="12"/>
          <note key="23" vol="93" pan="0" pos="648" len="12"/>
          <note key="23" vol="55" pan="0" pos="660" len="12"/>
          <note key="23" vol="61" pan="0" pos="672" len="12"/>
          <note key="23" vol="87" pan="0" pos="684" len="12"/>
          <note key="23" vol="48" pan="0" pos="696" len="12"/>
          <note key="23" vol="87" pan="0" pos="708" len="12"/>
          <note key="21" vol="87" pan="0" pos="720" len="48"/>
        </pattern>
        <pattern name="Distortion Guitar" pos="5760" type="1" muted="0" steps="16">
          <note key="23" vol="100" pan="0" pos="0" len="768"/>
        </pattern>
        <pattern name="Distortion Guitar" pos="6528" type="1" muted="0" steps="16">
          <note key="23" vol="100" pan="0" pos="0" len="768"/>
        </pattern>
        <pattern name="Distortion Guitar" pos="7296" type="1" muted="0" steps="16">
          <note key="23" vol="100" pan="0" pos="0" len="768"/>
        </pattern>
        <pattern name="Distortion Guitar" pos="8064" type="1" muted="0" steps="16">
          <note key="23" vol="100" pan="0" pos="0" len="768"/>
        </pattern>
        <pattern name="Distortion Guitar" pos="9600" type="1" muted="0" steps="16">
          <note key="23" vol="100" pan="0" pos="0" len="12"/>
          <note key="23" vol="61" pan="0" pos="12" len="12"/>
          <note key="23" vol="61" pan="0" pos="24" len="12"/>
          <note key="23" vol="100" pan="0" pos="36" len="12"/>
          <note key="23" vol="61" pan="0" pos="48" len="12"/>
          <note key="23" vol="61" pan="0" pos="60" len="12"/>
          <note key="23" vol="93" pan="0" pos="72" len="12"/>
          <note key="23" vol="55" pan="0" pos="84" len="12"/>
          <note key="23" vol="61" pan="0" pos="96" len="12"/>
          <note key="23" vol="87" pan="0" pos="108" len="12"/>
          <note key="23" vol="48" pan="0" pos="120" len="12"/>
          <note key="23" vol="87" pan="0" pos="132" len="12"/>
          <note key="24" vol="100" pan="0" pos="144" len="24"/>
          <note key="23" vol="87" pan="0" pos="168" len="12"/>
          <note key="23" vol="87" pan="0" pos="180" len="6"/>
          <note key="23" vol="87" pan="0" pos="186" len="6"/>
          <note key="23" vol="100" pan="0" pos="192" len="12"/>
          <note key="23" vol="61" pan="0" pos="204" len="12"/>
          <note key="23" vol="61" pan="0" pos="216" len="12"/>
          <note key="23" vol="100" pan="0" pos="228" len="12"/>
          <note key="23" vol="61" pan="0" pos="240" len="12"/>
          <note key="23" vol="61" pan="0" pos="252" len="12"/>
          <note key="23" vol="93" pan="0" pos="264" len="12"/>
          <note key="23" vol="55" pan="0" pos="276" len="12"/>
          <note key="23" vol="61" pan="0" pos="288" len="12"/>
          <note key="23" vol="87" pan="0" pos="300" len="12"/>
          <note key="23" vol="48" pan="0" pos="312" len="12"/>
          <note key="23" vol="87" pan="0" pos="324" len="12"/>
          <note key="21" vol="87" pan="0" pos="336" len="24"/>
          <note key="23" vol="87" pan="0" pos="360" len="24"/>
          <note key="23" vol="100" pan="0" pos="384" len="12"/>
          <note key="23" vol="61" pan="0" pos="396" len="12"/>
          <note key="23" vol="61" pan="0" pos="408" len="12"/>
          <note key="23" vol="100" pan="0" pos="420" len="12"/>
          <note key="23" vol="61" pan="0" pos="432" len="12"/>
          <note key="23" vol="61" pan="0" pos="444" len="12"/>
          <note key="23" vol="93" pan="0" pos="456" len="12"/>
          <note key="23" vol="55" pan="0" pos="468" len="12"/>
          <note key="23" vol="61" pan="0" pos="480" len="12"/>
          <note key="23" vol="87" pan="0" pos="492" len="12"/>
          <note key="23" vol="48" pan="0" pos="504" len="12"/>
          <note key="23" vol="87" pan="0" pos="516" len="12"/>
          <note key="24" vol="100" pan="0" pos="528" len="24"/>
          <note key="23" vol="87" pan="0" pos="552" len="12"/>
          <note key="23" vol="87" pan="0" pos="564" len="6"/>
          <note key="23" vol="87" pan="0" pos="570" len="6"/>
          <note key="23" vol="100" pan="0" pos="576" len="12"/>
          <note key="23" vol="61" pan="0" pos="588" len="12"/>
          <note key="23" vol="61" pan="0" pos="600" len="12"/>
          <note key="23" vol="100" pan="0" pos="612" len="12"/>
          <note key="23" vol="61" pan="0" pos="624" len="12"/>
          <note key="23" vol="61" pan="0" pos="636" len="12"/>
          <note key="23" vol="93" pan="0" pos="648" len="12"/>
          <note key="23" vol="55" pan="0" pos="660" len="12"/>
          <note key="23" vol="61" pan="0" pos="672" len="12"/>
          <note key="23" vol="87" pan="0" pos="684" len="12"/>
          <note key="23" vol="48" pan="0" pos="696" len="12"/>
          <note key="23" vol="87" pan="0" pos="708" len="12"/>
          <note key="21" vol="87" pan="0" pos="720" len="24"/>
          <note key="23" vol="87" pan="0" pos="744" len="24"/>
        </pattern>
        <pattern name="Distortion Guitar" pos="10368" type="1" muted="0" steps="16">
          <note key="23" vol="100" pan="0" pos="0" len="12"/>
          <note key="23" vol="61" pan="0" pos="12" len="12"/>
          <note key="23" vol="61" pan="0" pos="24" len="12"/>
          <note key="23" vol="100" pan="0" pos="36" len="12"/>
          <note key="23" vol="61" pan="0" pos="48" len="12"/>
          <note key="23" vol="61" pan="0" pos="60" len="12"/>
          <note key="23" vol="93" pan="0" pos="72" len="12"/>
          <note key="23" vol="55" pan="0" pos="84" len="12"/>
          <note key="23" vol="61" pan="0" pos="96" len="12"/>
          <note key="23" vol="87" pan="0" pos="108" len="12"/>
          <note key="23" vol="48" pan="0" pos="120" len="12"/>
          <note key="23" vol="87" pan="0" pos="132" len="12"/>
          <note key="24" vol="100" pan="0" pos="144" len="24"/>
          <note key="23" vol="87" pan="0" pos="168" len="12"/>
          <note key="23" vol="87" pan="0" pos="180" len="6"/>
          <note key="23" vol="87" pan="0" pos="186" len="6"/>
          <note key="23" vol="100" pan="0" pos="192" len="12"/>
          <note key="23" vol="61" pan="0" pos="204" len="12"/>
          <note key="23" vol="61" pan="0" pos="216" len="12"/>
          <note key="23" vol="100" pan="0" pos="228" len="12"/>
          <note key="23" vol="61" pan="0" pos="240" len="12"/>
          <note key="23" vol="61" pan="0" pos="252" len="12"/>
          <note key="23" vol="93" pan="0" pos="264" len="12"/>
          <note key="23" vol="55" pan="0" pos="276" len="12"/>
          <note key="23" vol="61" pan="0" pos="288" len="12"/>
          <note key="23" vol="87" pan="0" pos="300" len="12"/>
          <note key="23" vol="48" pan="0" pos="312" len="12"/>
          <note key="23" vol="87" pan="0" pos="324" len="12"/>
          <note key="21" vol="87" pan="0" pos="336" len="24"/>
          <note key="23" vol="87" pan="0" pos="360" len="24"/>
          <note key="23" vol="100" pan="0" pos="384" len="12"/>
          <note key="23" vol="61" pan="0" pos="396" len="12"/>
          <note key="23" vol="61" pan="0" pos="408" len="12"/>
          <note key="23" vol="100" pan="0" pos="420" len="12"/>
          <note key="23" vol="61" pan="0" pos="432" len="12"/>
          <note key="23" vol="61" pan="0" pos="444" len="12"/>
          <note key="23" vol="93" pan="0" pos="456" len="12"/>
          <note key="23" vol="55" pan="0" pos="468" len="12"/>
          <note key="23" vol="61" pan="0" pos="480" len="12"/>
          <note key="23" vol="87" pan="0" pos="492" len="12"/>
          <note key="23" vol="48" pan="0" pos="504" len="12"/>
          <note key="23" vol="87" pan="0" pos="516" len="12"/>
          <note key="24" vol="100" pan="0" pos="528" len="24"/>
          <note key="23" vol="87" pan="0" pos="552" len="12"/>
          <note key="23" vol="87" pan="0" pos="564" len="6"/>
          <note key="23" vol="87" pan="0" pos="570" len="6"/>
          <note key="23" vol="100" pan="0" pos="576" len="12"/>
          <note key="23" vol="61" pan="0" pos="588" len="12"/>
          <note key="23" vol="61" pan="0" pos="600" len="12"/>
          <note key="23" vol="100" pan="0" pos="612" len="12"/>
          <note key="23" vol="61" pan="0" pos="624" len="12"/>
          <note key="23" vol="61" pan="0" pos="636" len="12"/>
          <note key="23" vol="93" pan="0" pos="648" len="12"/>
          <note key="23" vol="55" pan="0" pos="660" len="12"/>
          <note key="23" vol="61" pan="0" pos="672" len="12"/>
          <note key="23" vol="87" pan="0" pos="684" len="12"/>
          <note key="23" vol="48" pan="0" pos="696" len="12"/>
          <note key="23" vol="87" pan="0" pos="708" len="12"/>
          <note key="21" vol="87" pan="0" pos="720" len="24"/>
          <note key="23" vol="87" pan="0" pos="744" len="24"/>
        </pattern>
        <pattern name="Distortion Guitar" pos="8832" type="1" muted="0" steps="16">
          <note key="23" vol="100" pan="0" pos="0" len="12"/>
          <note key="23" vol="61" pan="0" pos="12" len="12"/>
          <note key="23" vol="61" pan="0" pos="24" len="12"/>
          <note key="23" vol="100" pan="0" pos="36" len="12"/>
          <note key="23" vol="61" pan="0" pos="48" len="12"/>
          <note key="23" vol="61" pan="0" pos="60" len="12"/>
          <note key="23" vol="93" pan="0" pos="72" len="12"/>
          <note key="23" vol="55" pan="0" pos="84" len="12"/>
          <note key="23" vol="61" pan="0" pos="96" len="12"/>
          <note key="23" vol="87" pan="0" pos="108" len="12"/>
          <note key="23" vol="48" pan="0" pos="120" len="12"/>
          <note key="23" vol="87" pan="0" pos="132" len="12"/>
          <note key="21" vol="100" pan="0" pos="144" len="24"/>
          <note key="23" vol="87" pan="0" pos="168" len="12"/>
          <note key="23" vol="87" pan="0" pos="180" len="6"/>
          <note key="23" vol="87" pan="0" pos="186" len="6"/>
          <note key="23" vol="100" pan="0" pos="192" len="12"/>
          <note key="23" vol="61" pan="0" pos="204" len="12"/>
          <note key="23" vol="61" pan="0" pos="216" len="12"/>
          <note key="23" vol="100" pan="0" pos="228" len="12"/>
          <note key="23" vol="61" pan="0" pos="240" len="12"/>
          <note key="23" vol="61" pan="0" pos="252" len="12"/>
          <note key="23" vol="93" pan="0" pos="264" len="12"/>
          <note key="23" vol="55" pan="0" pos="276" len="12"/>
          <note key="23" vol="61" pan="0" pos="288" len="12"/>
          <note key="23" vol="87" pan="0" pos="300" len="12"/>
          <note key="23" vol="48" pan="0" pos="312" len="12"/>
          <note key="23" vol="87" pan="0" pos="324" len="12"/>
          <note key="21" vol="87" pan="0" pos="336" len="12"/>
          <note key="21" vol="36" pan="0" pos="348" len="12"/>
          <note key="23" vol="87" pan="0" pos="360" len="24"/>
          <note key="23" vol="100" pan="0" pos="384" len="12"/>
          <note key="23" vol="61" pan="0" pos="396" len="12"/>
          <note key="23" vol="61" pan="0" pos="408" len="12"/>
          <note key="23" vol="100" pan="0" pos="420" len="12"/>
          <note key="23" vol="61" pan="0" pos="432" len="12"/>
          <note key="23" vol="61" pan="0" pos="444" len="12"/>
          <note key="23" vol="93" pan="0" pos="456" len="12"/>
          <note key="23" vol="55" pan="0" pos="468" len="12"/>
          <note key="23" vol="61" pan="0" pos="480" len="12"/>
          <note key="23" vol="87" pan="0" pos="492" len="12"/>
          <note key="23" vol="48" pan="0" pos="504" len="12"/>
          <note key="23" vol="87" pan="0" pos="516" len="12"/>
          <note key="24" vol="100" pan="0" pos="528" len="24"/>
          <note key="23" vol="87" pan="0" pos="552" len="12"/>
          <note key="23" vol="87" pan="0" pos="564" len="6"/>
          <note key="23" vol="87" pan="0" pos="570" len="6"/>
          <note key="23" vol="100" pan="0" pos="576" len="12"/>
          <note key="23" vol="61" pan="0" pos="588" len="12"/>
          <note key="23" vol="61" pan="0" pos="600" len="12"/>
          <note key="23" vol="100" pan="0" pos="612" len="12"/>
          <note key="23" vol="61" pan="0" pos="624" len="12"/>
          <note key="23" vol="61" pan="0" pos="636" len="12"/>
          <note key="23" vol="93" pan="0" pos="648" len="12"/>
          <note key="23" vol="55" pan="0" pos="660" len="12"/>
          <note key="23" vol="61" pan="0" pos="672" len="12"/>
          <note key="23" vol="87" pan="0" pos="684" len="12"/>
          <note key="23" vol="48" pan="0" pos="696" len="12"/>
          <note key="23" vol="87" pan="0" pos="708" len="12"/>
          <note key="23" vol="87" pan="0" pos="720" len="48"/>
        </pattern>
        <pattern name="Distortion Guitar" pos="11136" type="1" muted="0" steps="16">
          <note key="23" vol="100" pan="0" pos="0" len="12"/>
          <note key="23" vol="61" pan="0" pos="12" len="12"/>
          <note key="23" vol="61" pan="0" pos="24" len="12"/>
          <note key="23" vol="100" pan="0" pos="36" len="12"/>
          <note key="23" vol="61" pan="0" pos="48" len="12"/>
          <note key="23" vol="61" pan="0" pos="60" len="12"/>
          <note key="23" vol="93" pan="0" pos="72" len="12"/>
          <note key="23" vol="55" pan="0" pos="84" len="12"/>
          <note key="23" vol="61" pan="0" pos="96" len="12"/>
          <note key="23" vol="87" pan="0" pos="108" len="12"/>
          <note key="23" vol="48" pan="0" pos="120" len="12"/>
          <note key="23" vol="87" pan="0" pos="132" len="12"/>
          <note key="24" vol="100" pan="0" pos="144" len="24"/>
          <note key="23" vol="87" pan="0" pos="168" len="12"/>
          <note key="23" vol="87" pan="0" pos="180" len="6"/>
          <note key="23" vol="87" pan="0" pos="186" len="6"/>
          <note key="23" vol="100" pan="0" pos="192" len="12"/>
          <note key="23" vol="61" pan="0" pos="204" len="12"/>
          <note key="23" vol="61" pan="0" pos="216" len="12"/>
          <note key="23" vol="100" pan="0" pos="228" len="12"/>
          <note key="23" vol="61" pan="0" pos="240" len="12"/>
          <note key="23" vol="61" pan="0" pos="252" len="12"/>
          <note key="23" vol="93" pan="0" pos="264" len="12"/>
          <note key="23" vol="55" pan="0" pos="276" len="12"/>
          <note key="23" vol="61" pan="0" pos="288" len="12"/>
          <note key="23" vol="87" pan="0" pos="300" len="12"/>
          <note key="23" vol="48" pan="0" pos="312" len="12"/>
          <note key="23" vol="87" pan="0" pos="324" len="12"/>
          <note key="21" vol="87" pan="0" pos="336" len="24"/>
          <note key="23" vol="87" pan="0" pos="360" len="24"/>
          <note key="23" vol="100" pan="0" pos="384" len="12"/>
          <note key="23" vol="61" pan="0" pos="396" len="12"/>
          <note key="23" vol="61" pan="0" pos="408" len="12"/>
          <note key="23" vol="100" pan="0" pos="420" len="12"/>
          <note key="23" vol="61" pan="0" pos="432" len="12"/>
          <note key="23" vol="61" pan="0" pos="444" len="12"/>
          <note key="23" vol="93" pan="0" pos="456" len="12"/>
          <note key="23" vol="55" pan="0" pos="468" len="12"/>
          <note key="23" vol="61" pan="0" pos="480" len="12"/>
          <note key="23" vol="87" pan="0" pos="492" len="12"/>
          <note key="23" vol="48" pan="0" pos="504" len="12"/>
          <note key="23" vol="87" pan="0" pos="516" len="12"/>
          <note key="24" vol="100" pan="0" pos="528" len="24"/>
          <note key="23" vol="87" pan="0" pos="552" len="12"/>
          <note key="23" vol="87" pan="0" pos="564" len="6"/>
          <note key="23" vol="87" pan="0" pos="570" len="6"/>
          <note key="23" vol="100" pan="0" pos="576" len="12"/>
          <note key="23" vol="61" pan="0" pos="588" len="12"/>
          <note key="23" vol="61" pan="0" pos="600" len="12"/>
          <note key="23" vol="100" pan="0" pos="612" len="12"/>
          <note key="23" vol="61" pan="0" pos="624" len="12"/>
          <note key="23" vol="61" pan="0" pos="636" len="12"/>
          <note key="23" vol="93" pan="0" pos="648" len="12"/>
          <note key="23" vol="55" pan="0" pos="660" len="12"/>
          <note key="23" vol="61" pan="0" pos="672" len="12"/>
          <note key="23" vol="87" pan="0" pos="684" len="12"/>
          <note key="23" vol="48" pan="0" pos="696" len="12"/>
          <note key="23" vol="87" pan="0" pos="708" len="12"/>
          <note key="21" vol="87" pan="0" pos="720" len="24"/>
          <note key="23" vol="87" pan="0" pos="744" len="24"/>
        </pattern>
        <pattern name="Distortion Guitar" pos="11904" type="1" muted="0" steps="16">
          <note key="23" vol="100" pan="0" pos="0" len="12"/>
          <note key="23" vol="61" pan="0" pos="12" len="12"/>
          <note key="23" vol="61" pan="0" pos="24" len="12"/>
          <note key="23" vol="100" pan="0" pos="36" len="12"/>
          <note key="23" vol="61" pan="0" pos="48" len="12"/>
          <note key="23" vol="61" pan="0" pos="60" len="12"/>
          <note key="23" vol="93" pan="0" pos="72" len="12"/>
          <note key="23" vol="55" pan="0" pos="84" len="12"/>
          <note key="23" vol="61" pan="0" pos="96" len="12"/>
          <note key="23" vol="87" pan="0" pos="108" len="12"/>
          <note key="23" vol="48" pan="0" pos="120" len="12"/>
          <note key="23" vol="87" pan="0" pos="132" len="12"/>
          <note key="24" vol="100" pan="0" pos="144" len="24"/>
          <note key="23" vol="87" pan="0" pos="168" len="12"/>
          <note key="23" vol="87" pan="0" pos="180" len="6"/>
          <note key="23" vol="87" pan="0" pos="186" len="6"/>
          <note key="23" vol="100" pan="0" pos="192" len="12"/>
          <note key="23" vol="61" pan="0" pos="204" len="12"/>
          <note key="23" vol="61" pan="0" pos="216" len="12"/>
          <note key="23" vol="100" pan="0" pos="228" len="12"/>
          <note key="23" vol="61" pan="0" pos="240" len="12"/>
          <note key="23" vol="61" pan="0" pos="252" len="12"/>
          <note key="23" vol="93" pan="0" pos="264" len="12"/>
          <note key="23" vol="55" pan="0" pos="276" len="12"/>
          <note key="23" vol="61" pan="0" pos="288" len="12"/>
          <note key="23" vol="87" pan="0" pos="300" len="12"/>
          <note key="23" vol="48" pan="0" pos="312" len="12"/>
          <note key="23" vol="87" pan="0" pos="324" len="12"/>
          <note key="21" vol="87" pan="0" pos="336" len="24"/>
          <note key="23" vol="87" pan="0" pos="360" len="24"/>
          <note key="23" vol="100" pan="0" pos="384" len="12"/>
          <note key="23" vol="61" pan="0" pos="396" len="12"/>
          <note key="23" vol="61" pan="0" pos="408" len="12"/>
          <note key="23" vol="100" pan="0" pos="420" len="12"/>
          <note key="23" vol="61" pan="0" pos="432" len="12"/>
          <note key="23" vol="61" pan="0" pos="444" len="12"/>
          <note key="23" vol="93" pan="0" pos="456" len="12"/>
          <note key="23" vol="55" pan="0" pos="468" len="12"/>
          <note key="23" vol="61" pan="0" pos="480" len="12"/>
          <note key="23" vol="87" pan="0" pos="492" len="12"/>
          <note key="23" vol="48" pan="0" pos="504" len="12"/>
          <note key="23" vol="87" pan="0" pos="516" len="12"/>
          <note key="24" vol="100" pan="0" pos="528" len="24"/>
          <note key="23" vol="87" pan="0" pos="552" len="12"/>
          <note key="23" vol="87" pan="0" pos="564" len="6"/>
          <note key="23" vol="87" pan="0" pos="570" len="6"/>
          <note key="23" vol="100" pan="0" pos="576" len="12"/>
          <note key="23" vol="61" pan="0" pos="588" len="12"/>
          <note key="23" vol="61" pan="0" pos="600" len="12"/>
          <note key="23" vol="100" pan="0" pos="612" len="12"/>
          <note key="23" vol="61" pan="0" pos="624" len="12"/>
          <note key="23" vol="61" pan="0" pos="636" len="12"/>
          <note key="23" vol="93" pan="0" pos="648" len="12"/>
          <note key="23" vol="55" pan="0" pos="660" len="12"/>
          <note key="23" vol="61" pan="0" pos="672" len="12"/>
          <note key="23" vol="87" pan="0" pos="684" len="12"/>
          <note key="23" vol="48" pan="0" pos="696" len="12"/>
          <note key="23" vol="87" pan="0" pos="708" len="12"/>
          <note key="21" vol="87" pan="0" pos="720" len="24"/>
          <note key="23" vol="87" pan="0" pos="744" len="24"/>
        </pattern>
        <pattern name="Distortion Guitar" pos="12672" type="1" muted="0" steps="16">
          <note key="21" vol="100" pan="0" pos="0" len="24"/>
          <note key="20" vol="100" pan="0" pos="24" len="24"/>
          <note key="20" vol="100" pan="0" pos="96" len="24"/>
          <note key="19" vol="100" pan="0" pos="144" len="240"/>
          <note key="21" vol="100" pan="0" pos="384" len="24"/>
          <note key="20" vol="100" pan="0" pos="408" len="24"/>
          <note key="20" vol="100" pan="0" pos="480" len="24"/>
          <note key="19" vol="100" pan="0" pos="528" len="240"/>
        </pattern>
        <pattern name="Distortion Guitar" pos="13440" type="1" muted="0" steps="16">
          <note key="23" vol="100" pan="0" pos="0" len="12"/>
          <note key="23" vol="61" pan="0" pos="12" len="12"/>
          <note key="23" vol="61" pan="0" pos="24" len="12"/>
          <note key="23" vol="100" pan="0" pos="36" len="12"/>
          <note key="23" vol="61" pan="0" pos="48" len="12"/>
          <note key="23" vol="61" pan="0" pos="60" len="12"/>
          <note key="23" vol="93" pan="0" pos="72" len="12"/>
          <note key="23" vol="55" pan="0" pos="84" len="12"/>
          <note key="23" vol="61" pan="0" pos="96" len="12"/>
          <note key="23" vol="87" pan="0" pos="108" len="12"/>
          <note key="23" vol="48" pan="0" pos="120" len="12"/>
          <note key="23" vol="87" pan="0" pos="132" len="12"/>
          <note key="24" vol="100" pan="0" pos="144" len="24"/>
          <note key="23" vol="87" pan="0" pos="168" len="12"/>
          <note key="23" vol="87" pan="0" pos="180" len="6"/>
          <note key="23" vol="87" pan="0" pos="186" len="6"/>
          <note key="23" vol="100" pan="0" pos="192" len="12"/>
          <note key="23" vol="61" pan="0" pos="204" len="12"/>
          <note key="23" vol="61" pan="0" pos="216" len="12"/>
          <note key="23" vol="100" pan="0" pos="228" len="12"/>
          <note key="23" vol="61" pan="0" pos="240" len="12"/>
          <note key="23" vol="61" pan="0" pos="252" len="12"/>
          <note key="23" vol="93" pan="0" pos="264" len="12"/>
          <note key="23" vol="55" pan="0" pos="276" len="12"/>
          <note key="23" vol="61" pan="0" pos="288" len="12"/>
          <note key="23" vol="87" pan="0" pos="300" len="12"/>
          <note key="23" vol="48" pan="0" pos="312" len="12"/>
          <note key="23" vol="87" pan="0" pos="324" len="12"/>
          <note key="21" vol="87" pan="0" pos="336" len="24"/>
          <note key="23" vol="87" pan="0" pos="360" len="24"/>
          <note key="23" vol="100" pan="0" pos="384" len="12"/>
          <note key="23" vol="61" pan="0" pos="396" len="12"/>
          <note key="23" vol="61" pan="0" pos="408" len="12"/>
          <note key="23" vol="100" pan="0" pos="420" len="12"/>
          <note key="23" vol="61" pan="0" pos="432" len="12"/>
          <note key="23" vol="61" pan="0" pos="444" len="12"/>
          <note key="23" vol="93" pan="0" pos="456" len="12"/>
          <note key="23" vol="55" pan="0" pos="468" len="12"/>
          <note key="23" vol="61" pan="0" pos="480" len="12"/>
          <note key="23" vol="87" pan="0" pos="492" len="12"/>
          <note key="23" vol="48" pan="0" pos="504" len="12"/>
          <note key="23" vol="87" pan="0" pos="516" len="12"/>
          <note key="24" vol="100" pan="0" pos="528" len="24"/>
          <note key="23" vol="87" pan="0" pos="552" len="12"/>
          <note key="23" vol="87" pan="0" pos="564" len="6"/>
          <note key="23" vol="87" pan="0" pos="570" len="6"/>
          <note key="23" vol="100" pan="0" pos="576" len="12"/>
          <note key="23" vol="61" pan="0" pos="588" len="12"/>
          <note key="23" vol="61" pan="0" pos="600" len="12"/>
          <note key="23" vol="100" pan="0" pos="612" len="12"/>
          <note key="23" vol="61" pan="0" pos="624" len="12"/>
          <note key="23" vol="61" pan="0" pos="636" len="12"/>
          <note key="23" vol="93" pan="0" pos="648" len="12"/>
          <note key="23" vol="55" pan="0" pos="660" len="12"/>
          <note key="23" vol="61" pan="0" pos="672" len="12"/>
          <note key="23" vol="87" pan="0" pos="684" len="12"/>
          <note key="23" vol="48" pan="0" pos="696" len="12"/>
          <note key="23" vol="87" pan="0" pos="708" len="12"/>
          <note key="21" vol="87" pan="0" pos="720" len="48"/>
        </pattern>
        <pattern name="Distortion Guitar" pos="14976" type="1" muted="0" steps="16">
          <note key="23" vol="100" pan="0" pos="0" len="12"/>
          <note key="23" vol="61" pan="0" pos="12" len="12"/>
          <note key="23" vol="61" pan="0" pos="24" len="12"/>
          <note key="23" vol="100" pan="0" pos="36" len="12"/>
          <note key="23" vol="61" pan="0" pos="48" len="12"/>
          <note key="23" vol="61" pan="0" pos="60" len="12"/>
          <note key="23" vol="93" pan="0" pos="72" len="12"/>
          <note key="23" vol="55" pan="0" pos="84" len="12"/>
          <note key="23" vol="61" pan="0" pos="96" len="12"/>
          <note key="23" vol="87" pan="0" pos="108" len="12"/>
          <note key="23" vol="48" pan="0" pos="120" len="12"/>
          <note key="23" vol="87" pan="0" pos="132" len="12"/>
          <note key="24" vol="100" pan="0" pos="144" len="24"/>
          <note key="23" vol="87" pan="0" pos="168" len="12"/>
          <note key="23" vol="87" pan="0" pos="180" len="6"/>
          <note key="23" vol="87" pan="0" pos="186" len="6"/>
          <note key="23" vol="100" pan="0" pos="192" len="12"/>
          <note key="23" vol="61" pan="0" pos="204" len="12"/>
          <note key="23" vol="61" pan="0" pos="216" len="12"/>
          <note key="23" vol="100" pan="0" pos="228" len="12"/>
          <note key="23" vol="61" pan="0" pos="240" len="12"/>
          <note key="23" vol="61" pan="0" pos="252" len="12"/>
          <note key="23" vol="93" pan="0" pos="264" len="12"/>
          <note key="23" vol="55" pan="0" pos="276" len="12"/>
          <note key="23" vol="61" pan="0" pos="288" len="12"/>
          <note key="23" vol="87" pan="0" pos="300" len="12"/>
          <note key="23" vol="48" pan="0" pos="312" len="12"/>
          <note key="23" vol="87" pan="0" pos="324" len="12"/>
          <note key="21" vol="87" pan="0" pos="336" len="24"/>
          <note key="23" vol="87" pan="0" pos="360" len="24"/>
          <note key="23" vol="100" pan="0" pos="384" len="12"/>
          <note key="23" vol="61" pan="0" pos="396" len="12"/>
          <note key="23" vol="61" pan="0" pos="408" len="12"/>
          <note key="23" vol="100" pan="0" pos="420" len="12"/>
          <note key="23" vol="61" pan="0" pos="432" len="12"/>
          <note key="23" vol="61" pan="0" pos="444" len="12"/>
          <note key="23" vol="93" pan="0" pos="456" len="12"/>
          <note key="23" vol="55" pan="0" pos="468" len="12"/>
          <note key="23" vol="61" pan="0" pos="480" len="12"/>
          <note key="23" vol="87" pan="0" pos="492" len="12"/>
          <note key="23" vol="48" pan="0" pos="504" len="12"/>
          <note key="23" vol="87" pan="0" pos="516" len="12"/>
          <note key="24" vol="100" pan="0" pos="528" len="24"/>
          <note key="23" vol="87" pan="0" pos="552" len="12"/>
          <note key="23" vol="87" pan="0" pos="564" len="6"/>
          <note key="23" vol="87" pan="0" pos="570" len="6"/>
          <note key="23" vol="100" pan="0" pos="576" len="12"/>
          <note key="23" vol="61" pan="0" pos="588" len="12"/>
          <note key="23" vol="61" pan="0" pos="600" len="12"/>
          <note key="23" vol="100" pan="0" pos="612" len="12"/>
          <note key="23" vol="61" pan="0" pos="624" len="12"/>
          <note key="23" vol="61" pan="0" pos="636" len="12"/>
          <note key="23" vol="93" pan="0" pos="648" len="12"/>
          <note key="23" vol="55" pan="0" pos="660" len="12"/>
          <note key="23" vol="61" pan="0" pos="672" len="12"/>
          <note key="23" vol="87" pan="0" pos="684" len="12"/>
          <note key="23" vol="48" pan="0" pos="696" len="12"/>
          <note key="23" vol="87" pan="0" pos="708" len="12"/>
          <note key="22" vol="87" pan="0" pos="720" len="432"/>
        </pattern>
        <pattern name="Distortion Guitar" pos="14208" type="1" muted="0" steps="16">
          <note key="23" vol="100" pan="0" pos="0" len="12"/>
          <note key="23" vol="61" pan="0" pos="12" len="12"/>
          <note key="23" vol="61" pan="0" pos="24" len="12"/>
          <note key="23" vol="100" pan="0" pos="36" len="12"/>
          <note key="23" vol="61" pan="0" pos="48" len="12"/>
          <note key="23" vol="61" pan="0" pos="60" len="12"/>
          <note key="23" vol="93" pan="0" pos="72" len="12"/>
          <note key="23" vol="55" pan="0" pos="84" len="12"/>
          <note key="23" vol="61" pan="0" pos="96" len="12"/>
          <note key="23" vol="87" pan="0" pos="108" len="12"/>
          <note key="23" vol="48" pan="0" pos="120" len="12"/>
          <note key="23" vol="87" pan="0" pos="132" len="12"/>
          <note key="24" vol="100" pan="0" pos="144" len="24"/>
          <note key="23" vol="87" pan="0" pos="168" len="12"/>
          <note key="23" vol="87" pan="0" pos="180" len="6"/>
          <note key="23" vol="87" pan="0" pos="186" len="6"/>
          <note key="23" vol="100" pan="0" pos="192" len="12"/>
          <note key="23" vol="61" pan="0" pos="204" len="12"/>
          <note key="23" vol="61" pan="0" pos="216" len="12"/>
          <note key="23" vol="100" pan="0" pos="228" len="12"/>
          <note key="23" vol="61" pan="0" pos="240" len="12"/>
          <note key="23" vol="61" pan="0" pos="252" len="12"/>
          <note key="23" vol="93" pan="0" pos="264" len="12"/>
          <note key="23" vol="55" pan="0" pos="276" len="12"/>
          <note key="23" vol="61" pan="0" pos="288" len="12"/>
          <note key="23" vol="87" pan="0" pos="300" len="12"/>
          <note key="23" vol="48" pan="0" pos="312" len="12"/>
          <note key="23" vol="87" pan="0" pos="324" len="12"/>
          <note key="21" vol="87" pan="0" pos="336" len="24"/>
          <note key="23" vol="87" pan="0" pos="360" len="24"/>
          <note key="23" vol="100" pan="0" pos="384" len="12"/>
          <note key="23" vol="61" pan="0" pos="396" len="12"/>
          <note key="23" vol="61" pan="0" pos="408" len="12"/>
          <note key="23" vol="100" pan="0" pos="420" len="12"/>
          <note key="23" vol="61" pan="0" pos="432" len="12"/>
          <note key="23" vol="61" pan="0" pos="444" len="12"/>
          <note key="23" vol="93" pan="0" pos="456" len="12"/>
          <note key="23" vol="55" pan="0" pos="468" len="12"/>
          <note key="23" vol="61" pan="0" pos="480" len="12"/>
          <note key="23" vol="87" pan="0" pos="492" len="12"/>
          <note key="23" vol="48" pan="0" pos="504" len="12"/>
          <note key="23" vol="87" pan="0" pos="516" len="12"/>
          <note key="24" vol="100" pan="0" pos="528" len="24"/>
          <note key="23" vol="87" pan="0" pos="552" len="12"/>
          <note key="23" vol="87" pan="0" pos="564" len="6"/>
          <note key="23" vol="87" pan="0" pos="570" len="6"/>
          <note key="23" vol="100" pan="0" pos="576" len="12"/>
          <note key="23" vol="61" pan="0" pos="588" len="12"/>
          <note key="23" vol="61" pan="0" pos="600" len="12"/>
          <note key="23" vol="100" pan="0" pos="612" len="12"/>
          <note key="23" vol="61" pan="0" pos="624" len="12"/>
          <note key="23" vol="61" pan="0" pos="636" len="12"/>
          <note key="23" vol="93" pan="0" pos="648" len="12"/>
          <note key="23" vol="55" pan="0" pos="660" len="12"/>
          <note key="23" vol="61" pan="0" pos="672" len="12"/>
          <note key="23" vol="87" pan="0" pos="684" len="12"/>
          <note key="23" vol="48" pan="0" pos="696" len="12"/>
          <note key="23" vol="87" pan="0" pos="708" len="12"/>
          <note key="21" vol="87" pan="0" pos="720" len="48"/>
        </pattern>
        <pattern name="Distortion Guitar" pos="1536" type="1" muted="0" steps="16">
          <note key="23" vol="100" pan="0" pos="0" len="12"/>
          <note key="23" vol="61" pan="0" pos="12" len="12"/>
          <note key="23" vol="61" pan="0" pos="24" len="12"/>
          <note key="23" vol="100" pan="0" pos="36" len="12"/>
          <note key="23" vol="61" pan="0" pos="48" len="12"/>
          <note key="23" vol="61" pan="0" pos="60" len="12"/>
          <note key="23" vol="93" pan="0" pos="72" len="12"/>
          <note key="23" vol="55" pan="0" pos="84" len="12"/>
          <note key="23" vol="61" pan="0" pos="96" len="12"/>
          <note key="23" vol="87" pan="0" pos="108" len="12"/>
          <note key="23" vol="48" pan="0" pos="120" len="12"/>
          <note key="23" vol="87" pan="0" pos="132" len="12"/>
          <note key="24" vol="100" pan="0" pos="144" len="24"/>
          <note key="23" vol="87" pan="0" pos="168" len="12"/>
          <note key="23" vol="87" pan="0" pos="180" len="6"/>
          <note key="23" vol="87" pan="0" pos="186" len="6"/>
          <note key="23" vol="100" pan="0" pos="192" len="12"/>
          <note key="23" vol="61" pan="0" pos="204" len="12"/>
          <note key="23" vol="61" pan="0" pos="216" len="12"/>
          <note key="23" vol="100" pan="0" pos="228" len="12"/>
          <note key="23" vol="61" pan="0" pos="240" len="12"/>
          <note key="23" vol="61" pan="0" pos="252" len="12"/>
          <note key="23" vol="93" pan="0" pos="264" len="12"/>
          <note key="23" vol="55" pan="0" pos="276" len="12"/>
          <note key="23" vol="61" pan="0" pos="288" len="12"/>
          <note key="23" vol="87" pan="0" pos="300" len="12"/>
          <note key="23" vol="48" pan="0" pos="312" len="12"/>
          <note key="23" vol="87" pan="0" pos="324" len="12"/>
          <note key="21" vol="87" pan="0" pos="336" len="12"/>
          <note key="21" vol="36" pan="0" pos="348" len="12"/>
          <note key="23" vol="87" pan="0" pos="360" len="24"/>
          <note key="23" vol="100" pan="0" pos="384" len="12"/>
          <note key="23" vol="61" pan="0" pos="396" len="12"/>
          <note key="23" vol="61" pan="0" pos="408" len="12"/>
          <note key="23" vol="100" pan="0" pos="420" len="12"/>
          <note key="23" vol="61" pan="0" pos="432" len="12"/>
          <note key="23" vol="61" pan="0" pos="444" len="12"/>
          <note key="23" vol="93" pan="0" pos="456" len="12"/>
          <note key="23" vol="55" pan="0" pos="468" len="12"/>
          <note key="23" vol="61" pan="0" pos="480" len="12"/>
          <note key="23" vol="87" pan="0" pos="492" len="12"/>
          <note key="23" vol="48" pan="0" pos="504" len="12"/>
          <note key="23" vol="87" pan="0" pos="516" len="12"/>
          <note key="24" vol="100" pan="0" pos="528" len="24"/>
          <note key="23" vol="87" pan="0" pos="552" len="12"/>
          <note key="23" vol="87" pan="0" pos="564" len="6"/>
          <note key="23" vol="87" pan="0" pos="570" len="6"/>
          <note key="23" vol="100" pan="0" pos="576" len="12"/>
          <note key="23" vol="61" pan="0" pos="588" len="12"/>
          <note key="23" vol="61" pan="0" pos="600" len="12"/>
          <note key="23" vol="100" pan="0" pos="612" len="12"/>
          <note key="23" vol="61" pan="0" pos="624" len="12"/>
          <note key="23" vol="61" pan="0" pos="636" len="12"/>
          <note key="23" vol="93" pan="0" pos="648" len="12"/>
          <note key="23" vol="55" pan="0" pos="660" len="12"/>
          <note key="23" vol="61" pan="0" pos="672" len="12"/>
          <note key="23" vol="87" pan="0" pos="684" len="12"/>
          <note key="23" vol="48" pan="0" pos="696" len="12"/>
          <note key="23" vol="87" pan="0" pos="708" len="12"/>
          <note key="21" vol="87" pan="0" pos="720" len="12"/>
          <note key="21" vol="36" pan="0" pos="732" len="12"/>
          <note key="23" vol="87" pan="0" pos="744" len="24"/>
        </pattern>
      </track>
      <track name="Distortion Guitar" type="0" muted="0" solo="0">
        <instrumenttrack vol="60.799999" pan="-63.200001" pitch="0" usemasterpitch="1" fxch="4" basenote="45" pitchrange="1">
          <instrument name="zynaddsubfx">
            <zynaddsubfx forwardmidicc="1" fmgain="127" bandwidth="64" modifiedcontrollers="" rescenterfreq="64" resbandwidth="64" filterfreq="64" filterq="64" portamento="0">
              <ZynAddSubFX-data version-revision="1" ZynAddSubFX-author="Nasca Octavian Paul" version-minor="4" version-major="2">
                <INFORMATION/>
                <BASE_PARAMETERS>
                  <par name="max_midi_parts" value="16"/>
                  <par name="max_kit_items_per_instrument" value="16"/>
                  <par name="max_system_effects" value="4"/>
                  <par name="max_insertion_effects" value="8"/>
                  <par name="max_instrument_effects" value="3"/>
                  <par name="max_addsynth_voices" value="8"/>
                </BASE_PARAMETERS>
                <MASTER>
                  <par name="volume" value="80"/>
                  <par name="key_shift" value="64"/>
                  <par_bool name="nrpn_receive" value="yes"/>
                  <MICROTONAL>
                    <string name="name">12tET</string>
                    <string name="comment">Equal Temperament 12 notes per octave</string>
                    <par_bool name="invert_up_down" value="no"/>
                    <par name="invert_up_down_center" value="60"/>
                    <par_bool name="enabled" value="no"/>
                    <par name="global_fine_detune" value="64"/>
                    <par name="a_note" value="69"/>
                    <par_real name="a_freq" value="440.000000"/>
                  </MICROTONAL>
                  <PART id="0">
                    <par_bool name="enabled" value="yes"/>
                    <par name="volume" value="96"/>
                    <par name="panning" value="64"/>
                    <par name="min_key" value="0"/>
                    <par name="max_key" value="127"/>
                    <par name="key_shift" value="64"/>
                    <par name="rcv_chn" value="0"/>
                    <par name="velocity_sensing" value="64"/>
                    <par name="velocity_offset" value="64"/>
                    <par_bool name="note_on" value="yes"/>
                    <par_bool name="poly_mode" value="yes"/>
                    <par name="legato_mode" value="0"/>
                    <par name="key_limit" value="15"/>
                    <INSTRUMENT>
                      <INFO>
                        <string name="name"/>
                        <string name="author"/>
                        <string name="comments"/>
                        <par name="type" value="0"/>
                      </INFO>
                      <INSTRUMENT_KIT>
                        <par name="kit_mode" value="0"/>
                        <par_bool name="drum_mode" value="no"/>
                        <INSTRUMENT_KIT_ITEM id="0">
                          <par_bool name="enabled" value="yes"/>
                          <string name="name"/>
                          <par_bool name="muted" value="no"/>
                          <par name="min_key" value="0"/>
                          <par name="max_key" value="127"/>
                          <par name="send_to_instrument_effect" value="0"/>
                          <par_bool name="add_enabled" value="yes"/>
                          <ADD_SYNTH_PARAMETERS>
                            <par_bool name="stereo" value="yes"/>
                            <AMPLITUDE_PARAMETERS>
                              <par name="volume" value="90"/>
                              <par name="panning" value="64"/>
                              <par name="velocity_sensing" value="64"/>
                              <par name="punch_strength" value="0"/>
                              <par name="punch_time" value="60"/>
                              <par name="punch_stretch" value="64"/>
                              <par name="punch_velocity_sensing" value="72"/>
                              <par name="harmonic_randomness_grouping" value="0"/>
                              <AMPLITUDE_ENVELOPE>
                                <par_bool name="free_mode" value="no"/>
                                <par name="env_points" value="4"/>
                                <par name="env_sustain" value="2"/>
                                <par name="env_stretch" value="64"/>
                                <par_bool name="forced_release" value="yes"/>
                                <par_bool name="linear_envelope" value="no"/>
                                <par name="A_dt" value="1"/>
                                <par name="D_dt" value="81"/>
                                <par name="R_dt" value="33"/>
                                <par name="A_val" value="64"/>
                                <par name="D_val" value="64"/>
                                <par name="S_val" value="65"/>
                                <par name="R_val" value="64"/>
                              </AMPLITUDE_ENVELOPE>
                              <AMPLITUDE_LFO>
                                <par_real name="freq" value="0.629921"/>
                                <par name="intensity" value="0"/>
                                <par name="start_phase" value="64"/>
                                <par name="lfo_type" value="0"/>
                                <par name="randomness_amplitude" value="0"/>
                                <par name="randomness_frequency" value="0"/>
                                <par name="delay" value="0"/>
                                <par name="stretch" value="64"/>
                                <par_bool name="continous" value="no"/>
                              </AMPLITUDE_LFO>
                            </AMPLITUDE_PARAMETERS>
                            <FREQUENCY_PARAMETERS>
                              <par name="detune" value="8192"/>
                              <par name="coarse_detune" value="0"/>
                              <par name="detune_type" value="1"/>
                              <par name="bandwidth" value="64"/>
                              <FREQUENCY_ENVELOPE>
                                <par_bool name="free_mode" value="no"/>
                                <par name="env_points" value="3"/>
                                <par name="env_sustain" value="1"/>
                                <par name="env_stretch" value="0"/>
                                <par_bool name="forced_release" value="no"/>
                                <par_bool name="linear_envelope" value="no"/>
                                <par name="A_dt" value="50"/>
                                <par name="D_dt" value="10"/>
                                <par name="R_dt" value="60"/>
                                <par name="A_val" value="64"/>
                                <par name="D_val" value="64"/>
                                <par name="S_val" value="64"/>
                                <par name="R_val" value="64"/>
                              </FREQUENCY_ENVELOPE>
                              <FREQUENCY_LFO>
                                <par_real name="freq" value="0.551181"/>
                                <par name="intensity" value="0"/>
                                <par name="start_phase" value="64"/>
                                <par name="lfo_type" value="0"/>
                                <par name="randomness_amplitude" value="0"/>
                                <par name="randomness_frequency" value="0"/>
                                <par name="delay" value="0"/>
                                <par name="stretch" value="64"/>
                                <par_bool name="continous" value="no"/>
                              </FREQUENCY_LFO>
                            </FREQUENCY_PARAMETERS>
                            <FILTER_PARAMETERS>
                              <par name="velocity_sensing_amplitude" value="64"/>
                              <par name="velocity_sensing" value="64"/>
                              <FILTER>
                                <par name="category" value="0"/>
                                <par name="type" value="2"/>
                                <par name="freq" value="94"/>
                                <par name="q" value="40"/>
                                <par name="stages" value="0"/>
                                <par name="freq_track" value="64"/>
                                <par name="gain" value="64"/>
                              </FILTER>
                              <FILTER_ENVELOPE>
                                <par_bool name="free_mode" value="no"/>
                                <par name="env_points" value="4"/>
                                <par name="env_sustain" value="2"/>
                                <par name="env_stretch" value="0"/>
                                <par_bool name="forced_release" value="yes"/>
                                <par_bool name="linear_envelope" value="no"/>
                                <par name="A_dt" value="40"/>
                                <par name="D_dt" value="70"/>
                                <par name="R_dt" value="60"/>
                                <par name="A_val" value="64"/>
                                <par name="D_val" value="64"/>
                                <par name="S_val" value="64"/>
                                <par name="R_val" value="64"/>
                              </FILTER_ENVELOPE>
                              <FILTER_LFO>
                                <par_real name="freq" value="0.629921"/>
                                <par name="intensity" value="0"/>
                                <par name="start_phase" value="64"/>
                                <par name="lfo_type" value="0"/>
                                <par name="randomness_amplitude" value="0"/>
                                <par name="randomness_frequency" value="0"/>
                                <par name="delay" value="0"/>
                                <par name="stretch" value="64"/>
                                <par_bool name="continous" value="no"/>
                              </FILTER_LFO>
                            </FILTER_PARAMETERS>
                            <RESONANCE>
                              <par_bool name="enabled" value="yes"/>
                              <par name="max_db" value="20"/>
                              <par name="center_freq" value="64"/>
                              <par name="octaves_freq" value="64"/>
                              <par_bool name="protect_fundamental_frequency" value="no"/>
                              <par name="resonance_points" value="256"/>
                              <RESPOINT id="0">
                                <par name="val" value="112"/>
                              </RESPOINT>
                              <RESPOINT id="1">
                                <par name="val" value="112"/>
                              </RESPOINT>
                              <RESPOINT id="2">
                                <par name="val" value="111"/>
                              </RESPOINT>
                              <RESPOINT id="3">
                                <par name="val" value="110"/>
                              </RESPOINT>
                              <RESPOINT id="4">
                                <par name="val" value="109"/>
                              </RESPOINT>
                              <RESPOINT id="5">
                                <par name="val" value="109"/>
                              </RESPOINT>
                              <RESPOINT id="6">
                                <par name="val" value="109"/>
                              </RESPOINT>
                              <RESPOINT id="7">
                                <par name="val" value="108"/>
                              </RESPOINT>
                              <RESPOINT id="8">
                                <par name="val" value="107"/>
                              </RESPOINT>
                              <RESPOINT id="9">
                                <par name="val" value="107"/>
                              </RESPOINT>
                              <RESPOINT id="10">
                                <par name="val" value="106"/>
                              </RESPOINT>
                              <RESPOINT id="11">
                                <par name="val" value="106"/>
                              </RESPOINT>
                              <RESPOINT id="12">
                                <par name="val" value="105"/>
                              </RESPOINT>
                              <RESPOINT id="13">
                                <par name="val" value="105"/>
                              </RESPOINT>
                              <RESPOINT id="14">
                                <par name="val" value="104"/>
                              </RESPOINT>
                              <RESPOINT id="15">
                                <par name="val" value="104"/>
                              </RESPOINT>
                              <RESPOINT id="16">
                                <par name="val" value="103"/>
                              </RESPOINT>
                              <RESPOINT id="17">
                                <par name="val" value="103"/>
                              </RESPOINT>
                              <RESPOINT id="18">
                                <par name="val" value="103"/>
                              </RESPOINT>
                              <RESPOINT id="19">
                                <par name="val" value="103"/>
                              </RESPOINT>
                              <RESPOINT id="20">
                                <par name="val" value="102"/>
                              </RESPOINT>
                              <RESPOINT id="21">
                                <par name="val" value="102"/>
                              </RESPOINT>
                              <RESPOINT id="22">
                                <par name="val" value="101"/>
                              </RESPOINT>
                              <RESPOINT id="23">
                                <par name="val" value="101"/>
                              </RESPOINT>
                              <RESPOINT id="24">
                                <par name="val" value="100"/>
                              </RESPOINT>
                              <RESPOINT id="25">
                                <par name="val" value="100"/>
                              </RESPOINT>
                              <RESPOINT id="26">
                                <par name="val" value="99"/>
                              </RESPOINT>
                              <RESPOINT id="27">
                                <par name="val" value="99"/>
                              </RESPOINT>
                              <RESPOINT id="28">
                                <par name="val" value="98"/>
                              </RESPOINT>
                              <RESPOINT id="29">
                                <par name="val" value="98"/>
                              </RESPOINT>
                              <RESPOINT id="30">
                                <par name="val" value="98"/>
                              </RESPOINT>
                              <RESPOINT id="31">
                                <par name="val" value="98"/>
                              </RESPOINT>
                              <RESPOINT id="32">
                                <par name="val" value="97"/>
                              </RESPOINT>
                              <RESPOINT id="33">
                                <par name="val" value="96"/>
                              </RESPOINT>
                              <RESPOINT id="34">
                                <par name="val" value="96"/>
                              </RESPOINT>
                              <RESPOINT id="35">
                                <par name="val" value="95"/>
                              </RESPOINT>
                              <RESPOINT id="36">
                                <par name="val" value="95"/>
                              </RESPOINT>
                              <RESPOINT id="37">
                                <par name="val" value="94"/>
                              </RESPOINT>
                              <RESPOINT id="38">
                                <par name="val" value="94"/>
                              </RESPOINT>
                              <RESPOINT id="39">
                                <par name="val" value="93"/>
                              </RESPOINT>
                              <RESPOINT id="40">
                                <par name="val" value="93"/>
                              </RESPOINT>
                              <RESPOINT id="41">
                                <par name="val" value="93"/>
                              </RESPOINT>
                              <RESPOINT id="42">
                                <par name="val" value="92"/>
                              </RESPOINT>
                              <RESPOINT id="43">
                                <par name="val" value="92"/>
                              </RESPOINT>
                              <RESPOINT id="44">
                                <par name="val" value="92"/>
                              </RESPOINT>
                              <RESPOINT id="45">
                                <par name="val" value="92"/>
                              </RESPOINT>
                              <RESPOINT id="46">
                                <par name="val" value="91"/>
                              </RESPOINT>
                              <RESPOINT id="47">
                                <par name="val" value="91"/>
                              </RESPOINT>
                              <RESPOINT id="48">
                                <par name="val" value="90"/>
                              </RESPOINT>
                              <RESPOINT id="49">
                                <par name="val" value="90"/>
                              </RESPOINT>
                              <RESPOINT id="50">
                                <par name="val" value="89"/>
                              </RESPOINT>
                              <RESPOINT id="51">
                                <par name="val" value="89"/>
                              </RESPOINT>
                              <RESPOINT id="52">
                                <par name="val" value="88"/>
                              </RESPOINT>
                              <RESPOINT id="53">
                                <par name="val" value="88"/>
                              </RESPOINT>
                              <RESPOINT id="54">
                                <par name="val" value="88"/>
                              </RESPOINT>
                              <RESPOINT id="55">
                                <par name="val" value="87"/>
                              </RESPOINT>
                              <RESPOINT id="56">
                                <par name="val" value="87"/>
                              </RESPOINT>
                              <RESPOINT id="57">
                                <par name="val" value="87"/>
                              </RESPOINT>
                              <RESPOINT id="58">
                                <par name="val" value="87"/>
                              </RESPOINT>
                              <RESPOINT id="59">
                                <par name="val" value="86"/>
                              </RESPOINT>
                              <RESPOINT id="60">
                                <par name="val" value="86"/>
                              </RESPOINT>
                              <RESPOINT id="61">
                                <par name="val" value="85"/>
                              </RESPOINT>
                              <RESPOINT id="62">
                                <par name="val" value="85"/>
                              </RESPOINT>
                              <RESPOINT id="63">
                                <par name="val" value="84"/>
                              </RESPOINT>
                              <RESPOINT id="64">
                                <par name="val" value="84"/>
                              </RESPOINT>
                              <RESPOINT id="65">
                                <par name="val" value="83"/>
                              </RESPOINT>
                              <RESPOINT id="66">
                                <par name="val" value="83"/>
                              </RESPOINT>
                              <RESPOINT id="67">
                                <par name="val" value="83"/>
                              </RESPOINT>
                              <RESPOINT id="68">
                                <par name="val" value="82"/>
                              </RESPOINT>
                              <RESPOINT id="69">
                                <par name="val" value="82"/>
                              </RESPOINT>
                              <RESPOINT id="70">
                                <par name="val" value="81"/>
                              </RESPOINT>
                              <RESPOINT id="71">
                                <par name="val" value="81"/>
                              </RESPOINT>
                              <RESPOINT id="72">
                                <par name="val" value="81"/>
                              </RESPOINT>
                              <RESPOINT id="73">
                                <par name="val" value="81"/>
                              </RESPOINT>
                              <RESPOINT id="74">
                                <par name="val" value="80"/>
                              </RESPOINT>
                              <RESPOINT id="75">
                                <par name="val" value="80"/>
                              </RESPOINT>
                              <RESPOINT id="76">
                                <par name="val" value="79"/>
                              </RESPOINT>
                              <RESPOINT id="77">
                                <par name="val" value="79"/>
                              </RESPOINT>
                              <RESPOINT id="78">
                                <par name="val" value="78"/>
                              </RESPOINT>
                              <RESPOINT id="79">
                                <par name="val" value="78"/>
                              </RESPOINT>
                              <RESPOINT id="80">
                                <par name="val" value="77"/>
                              </RESPOINT>
                              <RESPOINT id="81">
                                <par name="val" value="77"/>
                              </RESPOINT>
                              <RESPOINT id="82">
                                <par name="val" value="76"/>
                              </RESPOINT>
                              <RESPOINT id="83">
                                <par name="val" value="76"/>
                              </RESPOINT>
                              <RESPOINT id="84">
                                <par name="val" value="75"/>
                              </RESPOINT>
                              <RESPOINT id="85">
                                <par name="val" value="75"/>
                              </RESPOINT>
                              <RESPOINT id="86">
                                <par name="val" value="75"/>
                              </RESPOINT>
                              <RESPOINT id="87">
                                <par name="val" value="75"/>
                              </RESPOINT>
                              <RESPOINT id="88">
                                <par name="val" value="74"/>
                              </RESPOINT>
                              <RESPOINT id="89">
                                <par name="val" value="74"/>
                              </RESPOINT>
                              <RESPOINT id="90">
                                <par name="val" value="73"/>
                              </RESPOINT>
                              <RESPOINT id="91">
                                <par name="val" value="73"/>
                              </RESPOINT>
                              <RESPOINT id="92">
                                <par name="val" value="72"/>
                              </RESPOINT>
                              <RESPOINT id="93">
                                <par name="val" value="72"/>
                              </RESPOINT>
                              <RESPOINT id="94">
                                <par name="val" value="71"/>
                              </RESPOINT>
                              <RESPOINT id="95">
                                <par name="val" value="70"/>
                              </RESPOINT>
                              <RESPOINT id="96">
                                <par name="val" value="70"/>
                              </RESPOINT>
                              <RESPOINT id="97">
                                <par name="val" value="70"/>
                              </RESPOINT>
                              <RESPOINT id="98">
                                <par name="val" value="69"/>
                              </RESPOINT>
                              <RESPOINT id="99">
                                <par name="val" value="69"/>
                              </RESPOINT>
                              <RESPOINT id="100">
                                <par name="val" value="69"/>
                              </RESPOINT>
                              <RESPOINT id="101">
                                <par name="val" value="69"/>
                              </RESPOINT>
                              <RESPOINT id="102">
                                <par name="val" value="68"/>
                              </RESPOINT>
                              <RESPOINT id="103">
                                <par name="val" value="68"/>
                              </RESPOINT>
                              <RESPOINT id="104">
                                <par name="val" value="68"/>
                              </RESPOINT>
                              <RESPOINT id="105">
                                <par name="val" value="67"/>
                              </RESPOINT>
                              <RESPOINT id="106">
                                <par name="val" value="67"/>
                              </RESPOINT>
                              <RESPOINT id="107">
                                <par name="val" value="66"/>
                              </RESPOINT>
                              <RESPOINT id="108">
                                <par name="val" value="66"/>
                              </RESPOINT>
                              <RESPOINT id="109">
                                <par name="val" value="65"/>
                              </RESPOINT>
                              <RESPOINT id="110">
                                <par name="val" value="65"/>
                              </RESPOINT>
                              <RESPOINT id="111">
                                <par name="val" value="64"/>
                              </RESPOINT>
                              <RESPOINT id="112">
                                <par name="val" value="64"/>
                              </RESPOINT>
                              <RESPOINT id="113">
                                <par name="val" value="63"/>
                              </RESPOINT>
                              <RESPOINT id="114">
                                <par name="val" value="63"/>
                              </RESPOINT>
                              <RESPOINT id="115">
                                <par name="val" value="63"/>
                              </RESPOINT>
                              <RESPOINT id="116">
                                <par name="val" value="63"/>
                              </RESPOINT>
                              <RESPOINT id="117">
                                <par name="val" value="62"/>
                              </RESPOINT>
                              <RESPOINT id="118">
                                <par name="val" value="62"/>
                              </RESPOINT>
                              <RESPOINT id="119">
                                <par name="val" value="61"/>
                              </RESPOINT>
                              <RESPOINT id="120">
                                <par name="val" value="61"/>
                              </RESPOINT>
                              <RESPOINT id="121">
                                <par name="val" value="60"/>
                              </RESPOINT>
                              <RESPOINT id="122">
                                <par name="val" value="60"/>
                              </RESPOINT>
                              <RESPOINT id="123">
                                <par name="val" value="59"/>
                              </RESPOINT>
                              <RESPOINT id="124">
                                <par name="val" value="59"/>
                              </RESPOINT>
                              <RESPOINT id="125">
                                <par name="val" value="58"/>
                              </RESPOINT>
                              <RESPOINT id="126">
                                <par name="val" value="58"/>
                              </RESPOINT>
                              <RESPOINT id="127">
                                <par name="val" value="57"/>
                              </RESPOINT>
                              <RESPOINT id="128">
                                <par name="val" value="57"/>
                              </RESPOINT>
                              <RESPOINT id="129">
                                <par name="val" value="57"/>
                              </RESPOINT>
                              <RESPOINT id="130">
                                <par name="val" value="57"/>
                              </RESPOINT>
                              <RESPOINT id="131">
                                <par name="val" value="56"/>
                              </RESPOINT>
                              <RESPOINT id="132">
                                <par name="val" value="56"/>
                              </RESPOINT>
                              <RESPOINT id="133">
                                <par name="val" value="55"/>
                              </RESPOINT>
                              <RESPOINT id="134">
                                <par name="val" value="55"/>
                              </RESPOINT>
                              <RESPOINT id="135">
                                <par name="val" value="54"/>
                              </RESPOINT>
                              <RESPOINT id="136">
                                <par name="val" value="54"/>
                              </RESPOINT>
                              <RESPOINT id="137">
                                <par name="val" value="53"/>
                              </RESPOINT>
                              <RESPOINT id="138">
                                <par name="val" value="53"/>
                              </RESPOINT>
                              <RESPOINT id="139">
                                <par name="val" value="53"/>
                              </RESPOINT>
                              <RESPOINT id="140">
                                <par name="val" value="52"/>
                              </RESPOINT>
                              <RESPOINT id="141">
                                <par name="val" value="52"/>
                              </RESPOINT>
                              <RESPOINT id="142">
                                <par name="val" value="51"/>
                              </RESPOINT>
                              <RESPOINT id="143">
                                <par name="val" value="51"/>
                              </RESPOINT>
                              <RESPOINT id="144">
                                <par name="val" value="51"/>
                              </RESPOINT>
                              <RESPOINT id="145">
                                <par name="val" value="51"/>
                              </RESPOINT>
                              <RESPOINT id="146">
                                <par name="val" value="50"/>
                              </RESPOINT>
                              <RESPOINT id="147">
                                <par name="val" value="50"/>
                              </RESPOINT>
                              <RESPOINT id="148">
                                <par name="val" value="49"/>
                              </RESPOINT>
                              <RESPOINT id="149">
                                <par name="val" value="49"/>
                              </RESPOINT>
                              <RESPOINT id="150">
                                <par name="val" value="48"/>
                              </RESPOINT>
                              <RESPOINT id="151">
                                <par name="val" value="48"/>
                              </RESPOINT>
                              <RESPOINT id="152">
                                <par name="val" value="47"/>
                              </RESPOINT>
                              <RESPOINT id="153">
                                <par name="val" value="47"/>
                              </RESPOINT>
                              <RESPOINT id="154">
                                <par name="val" value="46"/>
                              </RESPOINT>
                              <RESPOINT id="155">
                                <par name="val" value="46"/>
                              </RESPOINT>
                              <RESPOINT id="156">
                                <par name="val" value="45"/>
                              </RESPOINT>
                              <RESPOINT id="157">
                                <par name="val" value="45"/>
                              </RESPOINT>
                              <RESPOINT id="158">
                                <par name="val" value="45"/>
                              </RESPOINT>
                              <RESPOINT id="159">
                                <par name="val" value="44"/>
                              </RESPOINT>
                              <RESPOINT id="160">
                                <par name="val" value="44"/>
                              </RESPOINT>
                              <RESPOINT id="161">
                                <par name="val" value="44"/>
                              </RESPOINT>
                              <RESPOINT id="162">
                                <par name="val" value="44"/>
                              </RESPOINT>
                              <RESPOINT id="163">
                                <par name="val" value="43"/>
                              </RESPOINT>
                              <RESPOINT id="164">
                                <par name="val" value="43"/>
                              </RESPOINT>
                              <RESPOINT id="165">
                                <par name="val" value="43"/>
                              </RESPOINT>
                              <RESPOINT id="166">
                                <par name="val" value="43"/>
                              </RESPOINT>
                              <RESPOINT id="167">
                                <par name="val" value="42"/>
                              </RESPOINT>
                              <RESPOINT id="168">
                                <par name="val" value="42"/>
                              </RESPOINT>
                              <RESPOINT id="169">
                                <par name="val" value="41"/>
                              </RESPOINT>
                              <RESPOINT id="170">
                                <par name="val" value="41"/>
                              </RESPOINT>
                              <RESPOINT id="171">
                                <par name="val" value="40"/>
                              </RESPOINT>
                              <RESPOINT id="172">
                                <par name="val" value="40"/>
                              </RESPOINT>
                              <RESPOINT id="173">
                                <par name="val" value="39"/>
                              </RESPOINT>
                              <RESPOINT id="174">
                                <par name="val" value="39"/>
                              </RESPOINT>
                              <RESPOINT id="175">
                                <par name="val" value="39"/>
                              </RESPOINT>
                              <RESPOINT id="176">
                                <par name="val" value="38"/>
                              </RESPOINT>
                              <RESPOINT id="177">
                                <par name="val" value="38"/>
                              </RESPOINT>
                              <RESPOINT id="178">
                                <par name="val" value="37"/>
                              </RESPOINT>
                              <RESPOINT id="179">
                                <par name="val" value="36"/>
                              </RESPOINT>
                              <RESPOINT id="180">
                                <par name="val" value="36"/>
                              </RESPOINT>
                              <RESPOINT id="181">
                                <par name="val" value="36"/>
                              </RESPOINT>
                              <RESPOINT id="182">
                                <par name="val" value="36"/>
                              </RESPOINT>
                              <RESPOINT id="183">
                                <par name="val" value="35"/>
                              </RESPOINT>
                              <RESPOINT id="184">
                                <par name="val" value="35"/>
                              </RESPOINT>
                              <RESPOINT id="185">
                                <par name="val" value="34"/>
                              </RESPOINT>
                              <RESPOINT id="186">
                                <par name="val" value="34"/>
                              </RESPOINT>
                              <RESPOINT id="187">
                                <par name="val" value="33"/>
                              </RESPOINT>
                              <RESPOINT id="188">
                                <par name="val" value="33"/>
                              </RESPOINT>
                              <RESPOINT id="189">
                                <par name="val" value="44"/>
                              </RESPOINT>
                              <RESPOINT id="190">
                                <par name="val" value="49"/>
                              </RESPOINT>
                              <RESPOINT id="191">
                                <par name="val" value="57"/>
                              </RESPOINT>
                              <RESPOINT id="192">
                                <par name="val" value="60"/>
                              </RESPOINT>
                              <RESPOINT id="193">
                                <par name="val" value="63"/>
                              </RESPOINT>
                              <RESPOINT id="194">
                                <par name="val" value="66"/>
                              </RESPOINT>
                              <RESPOINT id="195">
                                <par name="val" value="69"/>
                              </RESPOINT>
                              <RESPOINT id="196">
                                <par name="val" value="72"/>
                              </RESPOINT>
                              <RESPOINT id="197">
                                <par name="val" value="77"/>
                              </RESPOINT>
                              <RESPOINT id="198">
                                <par name="val" value="80"/>
                              </RESPOINT>
                              <RESPOINT id="199">
                                <par name="val" value="83"/>
                              </RESPOINT>
                              <RESPOINT id="200">
                                <par name="val" value="85"/>
                              </RESPOINT>
                              <RESPOINT id="201">
                                <par name="val" value="88"/>
                              </RESPOINT>
                              <RESPOINT id="202">
                                <par name="val" value="88"/>
                              </RESPOINT>
                              <RESPOINT id="203">
                                <par name="val" value="88"/>
                              </RESPOINT>
                              <RESPOINT id="204">
                                <par name="val" value="88"/>
                              </RESPOINT>
                              <RESPOINT id="205">
                                <par name="val" value="88"/>
                              </RESPOINT>
                              <RESPOINT id="206">
                                <par name="val" value="88"/>
                              </RESPOINT>
                              <RESPOINT id="207">
                                <par name="val" value="88"/>
                              </RESPOINT>
                              <RESPOINT id="208">
                                <par name="val" value="88"/>
                              </RESPOINT>
                              <RESPOINT id="209">
                                <par name="val" value="88"/>
                              </RESPOINT>
                              <RESPOINT id="210">
                                <par name="val" value="88"/>
                              </RESPOINT>
                              <RESPOINT id="211">
                                <par name="val" value="88"/>
                              </RESPOINT>
                              <RESPOINT id="212">
                                <par name="val" value="88"/>
                              </RESPOINT>
                              <RESPOINT id="213">
                                <par name="val" value="88"/>
                              </RESPOINT>
                              <RESPOINT id="214">
                                <par name="val" value="88"/>
                              </RESPOINT>
                              <RESPOINT id="215">
                                <par name="val" value="88"/>
                              </RESPOINT>
                              <RESPOINT id="216">
                                <par name="val" value="88"/>
                              </RESPOINT>
                              <RESPOINT id="217">
                                <par name="val" value="88"/>
                              </RESPOINT>
                              <RESPOINT id="218">
                                <par name="val" value="88"/>
                              </RESPOINT>
                              <RESPOINT id="219">
                                <par name="val" value="88"/>
                              </RESPOINT>
                              <RESPOINT id="220">
                                <par name="val" value="88"/>
                              </RESPOINT>
                              <RESPOINT id="221">
                                <par name="val" value="88"/>
                              </RESPOINT>
                              <RESPOINT id="222">
                                <par name="val" value="88"/>
                              </RESPOINT>
                              <RESPOINT id="223">
                                <par name="val" value="88"/>
                              </RESPOINT>
                              <RESPOINT id="224">
                                <par name="val" value="88"/>
                              </RESPOINT>
                              <RESPOINT id="225">
                                <par name="val" value="88"/>
                              </RESPOINT>
                              <RESPOINT id="226">
                                <par name="val" value="88"/>
                              </RESPOINT>
                              <RESPOINT id="227">
                                <par name="val" value="88"/>
                              </RESPOINT>
                              <RESPOINT id="228">
                                <par name="val" value="88"/>
                              </RESPOINT>
                              <RESPOINT id="229">
                                <par name="val" value="88"/>
                              </RESPOINT>
                              <RESPOINT id="230">
                                <par name="val" value="88"/>
                              </RESPOINT>
                              <RESPOINT id="231">
                                <par name="val" value="88"/>
                              </RESPOINT>
                              <RESPOINT id="232">
                                <par name="val" value="88"/>
                              </RESPOINT>
                              <RESPOINT id="233">
                                <par name="val" value="88"/>
                              </RESPOINT>
                              <RESPOINT id="234">
                                <par name="val" value="88"/>
                              </RESPOINT>
                              <RESPOINT id="235">
                                <par name="val" value="88"/>
                              </RESPOINT>
                              <RESPOINT id="236">
                                <par name="val" value="88"/>
                              </RESPOINT>
                              <RESPOINT id="237">
                                <par name="val" value="88"/>
                              </RESPOINT>
                              <RESPOINT id="238">
                                <par name="val" value="87"/>
                              </RESPOINT>
                              <RESPOINT id="239">
                                <par name="val" value="87"/>
                              </RESPOINT>
                              <RESPOINT id="240">
                                <par name="val" value="87"/>
                              </RESPOINT>
                              <RESPOINT id="241">
                                <par name="val" value="87"/>
                              </RESPOINT>
                              <RESPOINT id="242">
                                <par name="val" value="87"/>
                              </RESPOINT>
                              <RESPOINT id="243">
                                <par name="val" value="87"/>
                              </RESPOINT>
                              <RESPOINT id="244">
                                <par name="val" value="87"/>
                              </RESPOINT>
                              <RESPOINT id="245">
                                <par name="val" value="86"/>
                              </RESPOINT>
                              <RESPOINT id="246">
                                <par name="val" value="86"/>
                              </RESPOINT>
                              <RESPOINT id="247">
                                <par name="val" value="86"/>
                              </RESPOINT>
                              <RESPOINT id="248">
                                <par name="val" value="86"/>
                              </RESPOINT>
                              <RESPOINT id="249">
                                <par name="val" value="86"/>
                              </RESPOINT>
                              <RESPOINT id="250">
                                <par name="val" value="86"/>
                              </RESPOINT>
                              <RESPOINT id="251">
                                <par name="val" value="86"/>
                              </RESPOINT>
                              <RESPOINT id="252">
                                <par name="val" value="86"/>
                              </RESPOINT>
                              <RESPOINT id="253">
                                <par name="val" value="86"/>
                              </RESPOINT>
                              <RESPOINT id="254">
                                <par name="val" value="86"/>
                              </RESPOINT>
                              <RESPOINT id="255">
                                <par name="val" value="86"/>
                              </RESPOINT>
                            </RESONANCE>
                            <VOICE id="0">
                              <par_bool name="enabled" value="yes"/>
                              <par name="type" value="0"/>
                              <par name="unison_size" value="3"/>
                              <par name="unison_frequency_spread" value="60"/>
                              <par name="unison_stereo_spread" value="64"/>
                              <par name="unison_vibratto" value="0"/>
                              <par name="unison_vibratto_speed" value="64"/>
                              <par name="unison_invert_phase" value="0"/>
                              <par name="unison_phase_randomness" value="127"/>
                              <par name="delay" value="0"/>
                              <par_bool name="resonance" value="yes"/>
                              <par name="ext_oscil" value="-1"/>
                              <par name="ext_fm_oscil" value="-1"/>
                              <par name="oscil_phase" value="64"/>
                              <par name="oscil_fm_phase" value="64"/>
                              <par_bool name="filter_enabled" value="no"/>
                              <par_bool name="filter_bypass" value="no"/>
                              <par name="fm_enabled" value="0"/>
                              <OSCIL>
                                <par name="harmonic_mag_type" value="0"/>
                                <par name="base_function" value="4"/>
                                <par name="base_function_par" value="64"/>
                                <par name="base_function_modulation" value="0"/>
                                <par name="base_function_modulation_par1" value="64"/>
                                <par name="base_function_modulation_par2" value="64"/>
                                <par name="base_function_modulation_par3" value="32"/>
                                <par name="modulation" value="0"/>
                                <par name="modulation_par1" value="64"/>
                                <par name="modulation_par2" value="64"/>
                                <par name="modulation_par3" value="32"/>
                                <par name="wave_shaping" value="64"/>
                                <par name="wave_shaping_function" value="0"/>
                                <par name="filter_type" value="0"/>
                                <par name="filter_par1" value="64"/>
                                <par name="filter_par2" value="64"/>
                                <par name="filter_before_wave_shaping" value="0"/>
                                <par name="spectrum_adjust_type" value="0"/>
                                <par name="spectrum_adjust_par" value="64"/>
                                <par name="rand" value="64"/>
                                <par name="amp_rand_type" value="0"/>
                                <par name="amp_rand_power" value="64"/>
                                <par name="harmonic_shift" value="0"/>
                                <par_bool name="harmonic_shift_first" value="no"/>
                                <par name="adaptive_harmonics" value="0"/>
                                <par name="adaptive_harmonics_base_frequency" value="128"/>
                                <par name="adaptive_harmonics_power" value="100"/>
                                <HARMONICS>
                                  <HARMONIC id="1">
                                    <par name="mag" value="127"/>
                                    <par name="phase" value="64"/>
                                  </HARMONIC>
                                  <HARMONIC id="2">
                                    <par name="mag" value="92"/>
                                    <par name="phase" value="64"/>
                                  </HARMONIC>
                                  <HARMONIC id="4">
                                    <par name="mag" value="58"/>
                                    <par name="phase" value="64"/>
                                  </HARMONIC>
                                  <HARMONIC id="5">
                                    <par name="mag" value="53"/>
                                    <par name="phase" value="64"/>
                                  </HARMONIC>
                                  <HARMONIC id="6">
                                    <par name="mag" value="65"/>
                                    <par name="phase" value="64"/>
                                  </HARMONIC>
                                </HARMONICS>
                              </OSCIL>
                              <AMPLITUDE_PARAMETERS>
                                <par name="panning" value="64"/>
                                <par name="volume" value="100"/>
                                <par_bool name="volume_minus" value="no"/>
                                <par name="velocity_sensing" value="127"/>
                                <par_bool name="amp_envelope_enabled" value="no"/>
                                <par_bool name="amp_lfo_enabled" value="no"/>
                              </AMPLITUDE_PARAMETERS>
                              <FREQUENCY_PARAMETERS>
                                <par_bool name="fixed_freq" value="no"/>
                                <par name="fixed_freq_et" value="0"/>
                                <par name="detune" value="8192"/>
                                <par name="coarse_detune" value="0"/>
                                <par name="detune_type" value="0"/>
                                <par_bool name="freq_envelope_enabled" value="no"/>
                                <par_bool name="freq_lfo_enabled" value="no"/>
                              </FREQUENCY_PARAMETERS>
                            </VOICE>
                            <VOICE id="1">
                              <par_bool name="enabled" value="yes"/>
                              <par name="type" value="0"/>
                              <par name="unison_size" value="1"/>
                              <par name="unison_frequency_spread" value="60"/>
                              <par name="unison_stereo_spread" value="64"/>
                              <par name="unison_vibratto" value="64"/>
                              <par name="unison_vibratto_speed" value="64"/>
                              <par name="unison_invert_phase" value="0"/>
                              <par name="unison_phase_randomness" value="127"/>
                              <par name="delay" value="0"/>
                              <par_bool name="resonance" value="yes"/>
                              <par name="ext_oscil" value="-1"/>
                              <par name="ext_fm_oscil" value="-1"/>
                              <par name="oscil_phase" value="64"/>
                              <par name="oscil_fm_phase" value="64"/>
                              <par_bool name="filter_enabled" value="no"/>
                              <par_bool name="filter_bypass" value="no"/>
                              <par name="fm_enabled" value="0"/>
                              <OSCIL>
                                <par name="harmonic_mag_type" value="0"/>
                                <par name="base_function" value="4"/>
                                <par name="base_function_par" value="64"/>
                                <par name="base_function_modulation" value="0"/>
                                <par name="base_function_modulation_par1" value="64"/>
                                <par name="base_function_modulation_par2" value="64"/>
                                <par name="base_function_modulation_par3" value="32"/>
                                <par name="modulation" value="0"/>
                                <par name="modulation_par1" value="64"/>
                                <par name="modulation_par2" value="64"/>
                                <par name="modulation_par3" value="32"/>
                                <par name="wave_shaping" value="64"/>
                                <par name="wave_shaping_function" value="0"/>
                                <par name="filter_type" value="0"/>
                                <par name="filter_par1" value="64"/>
                                <par name="filter_par2" value="64"/>
                                <par name="filter_before_wave_shaping" value="0"/>
                                <par name="spectrum_adjust_type" value="0"/>
                                <par name="spectrum_adjust_par" value="64"/>
                                <par name="rand" value="64"/>
                                <par name="amp_rand_type" value="0"/>
                                <par name="amp_rand_power" value="64"/>
                                <par name="harmonic_shift" value="0"/>
                                <par_bool name="harmonic_shift_first" value="no"/>
                                <par name="adaptive_harmonics" value="0"/>
                                <par name="adaptive_harmonics_base_frequency" value="128"/>
                                <par name="adaptive_harmonics_power" value="100"/>
                                <HARMONICS>
                                  <HARMONIC id="1">
                                    <par name="mag" value="127"/>
                                    <par name="phase" value="64"/>
                                  </HARMONIC>
                                  <HARMONIC id="2">
                                    <par name="mag" value="33"/>
                                    <par name="phase" value="64"/>
                                  </HARMONIC>
                                  <HARMONIC id="4">
                                    <par name="mag" value="76"/>
                                    <par name="phase" value="64"/>
                                  </HARMONIC>
                                </HARMONICS>
                              </OSCIL>
                              <AMPLITUDE_PARAMETERS>
                                <par name="panning" value="64"/>
                                <par name="volume" value="100"/>
                                <par_bool name="volume_minus" value="no"/>
                                <par name="velocity_sensing" value="127"/>
                                <par_bool name="amp_envelope_enabled" value="no"/>
                                <par_bool name="amp_lfo_enabled" value="no"/>
                              </AMPLITUDE_PARAMETERS>
                              <FREQUENCY_PARAMETERS>
                                <par_bool name="fixed_freq" value="no"/>
                                <par name="fixed_freq_et" value="0"/>
                                <par name="detune" value="10879"/>
                                <par name="coarse_detune" value="0"/>
                                <par name="detune_type" value="0"/>
                                <par_bool name="freq_envelope_enabled" value="no"/>
                                <par_bool name="freq_lfo_enabled" value="no"/>
                              </FREQUENCY_PARAMETERS>
                            </VOICE>
                            <VOICE id="2">
                              <par_bool name="enabled" value="yes"/>
                              <par name="type" value="0"/>
                              <par name="unison_size" value="1"/>
                              <par name="unison_frequency_spread" value="60"/>
                              <par name="unison_stereo_spread" value="64"/>
                              <par name="unison_vibratto" value="64"/>
                              <par name="unison_vibratto_speed" value="64"/>
                              <par name="unison_invert_phase" value="0"/>
                              <par name="unison_phase_randomness" value="127"/>
                              <par name="delay" value="0"/>
                              <par_bool name="resonance" value="yes"/>
                              <par name="ext_oscil" value="-1"/>
                              <par name="ext_fm_oscil" value="-1"/>
                              <par name="oscil_phase" value="64"/>
                              <par name="oscil_fm_phase" value="64"/>
                              <par_bool name="filter_enabled" value="no"/>
                              <par_bool name="filter_bypass" value="no"/>
                              <par name="fm_enabled" value="0"/>
                              <OSCIL>
                                <par name="harmonic_mag_type" value="0"/>
                                <par name="base_function" value="4"/>
                                <par name="base_function_par" value="64"/>
                                <par name="base_function_modulation" value="0"/>
                                <par name="base_function_modulation_par1" value="64"/>
                                <par name="base_function_modulation_par2" value="64"/>
                                <par name="base_function_modulation_par3" value="32"/>
                                <par name="modulation" value="0"/>
                                <par name="modulation_par1" value="64"/>
                                <par name="modulation_par2" value="64"/>
                                <par name="modulation_par3" value="32"/>
                                <par name="wave_shaping" value="64"/>
                                <par name="wave_shaping_function" value="0"/>
                                <par name="filter_type" value="0"/>
                                <par name="filter_par1" value="64"/>
                                <par name="filter_par2" value="64"/>
                                <par name="filter_before_wave_shaping" value="0"/>
                                <par name="spectrum_adjust_type" value="0"/>
                                <par name="spectrum_adjust_par" value="64"/>
                                <par name="rand" value="64"/>
                                <par name="amp_rand_type" value="0"/>
                                <par name="amp_rand_power" value="64"/>
                                <par name="harmonic_shift" value="0"/>
                                <par_bool name="harmonic_shift_first" value="no"/>
                                <par name="adaptive_harmonics" value="0"/>
                                <par name="adaptive_harmonics_base_frequency" value="128"/>
                                <par name="adaptive_harmonics_power" value="100"/>
                                <HARMONICS>
                                  <HARMONIC id="1">
                                    <par name="mag" value="127"/>
                                    <par name="phase" value="64"/>
                                  </HARMONIC>
                                  <HARMONIC id="2">
                                    <par name="mag" value="95"/>
                                    <par name="phase" value="64"/>
                                  </HARMONIC>
                                  <HARMONIC id="3">
                                    <par name="mag" value="16"/>
                                    <par name="phase" value="64"/>
                                  </HARMONIC>
                                </HARMONICS>
                              </OSCIL>
                              <AMPLITUDE_PARAMETERS>
                                <par name="panning" value="64"/>
                                <par name="volume" value="100"/>
                                <par_bool name="volume_minus" value="no"/>
                                <par name="velocity_sensing" value="127"/>
                                <par_bool name="amp_envelope_enabled" value="no"/>
                                <par_bool name="amp_lfo_enabled" value="no"/>
                              </AMPLITUDE_PARAMETERS>
                              <FREQUENCY_PARAMETERS>
                                <par_bool name="fixed_freq" value="no"/>
                                <par name="fixed_freq_et" value="0"/>
                                <par name="detune" value="7224"/>
                                <par name="coarse_detune" value="0"/>
                                <par name="detune_type" value="0"/>
                                <par_bool name="freq_envelope_enabled" value="no"/>
                                <par_bool name="freq_lfo_enabled" value="no"/>
                              </FREQUENCY_PARAMETERS>
                            </VOICE>
                            <VOICE id="3">
                              <par_bool name="enabled" value="no"/>
                            </VOICE>
                            <VOICE id="4">
                              <par_bool name="enabled" value="no"/>
                            </VOICE>
                            <VOICE id="5">
                              <par_bool name="enabled" value="no"/>
                            </VOICE>
                            <VOICE id="6">
                              <par_bool name="enabled" value="no"/>
                            </VOICE>
                            <VOICE id="7">
                              <par_bool name="enabled" value="no"/>
                            </VOICE>
                          </ADD_SYNTH_PARAMETERS>
                          <par_bool name="sub_enabled" value="no"/>
                          <par_bool name="pad_enabled" value="no"/>
                        </INSTRUMENT_KIT_ITEM>
                        <INSTRUMENT_KIT_ITEM id="1">
                          <par_bool name="enabled" value="no"/>
                        </INSTRUMENT_KIT_ITEM>
                        <INSTRUMENT_KIT_ITEM id="2">
                          <par_bool name="enabled" value="no"/>
                        </INSTRUMENT_KIT_ITEM>
                        <INSTRUMENT_KIT_ITEM id="3">
                          <par_bool name="enabled" value="no"/>
                        </INSTRUMENT_KIT_ITEM>
                        <INSTRUMENT_KIT_ITEM id="4">
                          <par_bool name="enabled" value="no"/>
                        </INSTRUMENT_KIT_ITEM>
                        <INSTRUMENT_KIT_ITEM id="5">
                          <par_bool name="enabled" value="no"/>
                        </INSTRUMENT_KIT_ITEM>
                        <INSTRUMENT_KIT_ITEM id="6">
                          <par_bool name="enabled" value="no"/>
                        </INSTRUMENT_KIT_ITEM>
                        <INSTRUMENT_KIT_ITEM id="7">
                          <par_bool name="enabled" value="no"/>
                        </INSTRUMENT_KIT_ITEM>
                        <INSTRUMENT_KIT_ITEM id="8">
                          <par_bool name="enabled" value="no"/>
                        </INSTRUMENT_KIT_ITEM>
                        <INSTRUMENT_KIT_ITEM id="9">
                          <par_bool name="enabled" value="no"/>
                        </INSTRUMENT_KIT_ITEM>
                        <INSTRUMENT_KIT_ITEM id="10">
                          <par_bool name="enabled" value="no"/>
                        </INSTRUMENT_KIT_ITEM>
                        <INSTRUMENT_KIT_ITEM id="11">
                          <par_bool name="enabled" value="no"/>
                        </INSTRUMENT_KIT_ITEM>
                        <INSTRUMENT_KIT_ITEM id="12">
                          <par_bool name="enabled" value="no"/>
                        </INSTRUMENT_KIT_ITEM>
                        <INSTRUMENT_KIT_ITEM id="13">
                          <par_bool name="enabled" value="no"/>
                        </INSTRUMENT_KIT_ITEM>
                        <INSTRUMENT_KIT_ITEM id="14">
                          <par_bool name="enabled" value="no"/>
                        </INSTRUMENT_KIT_ITEM>
                        <INSTRUMENT_KIT_ITEM id="15">
                          <par_bool name="enabled" value="no"/>
                        </INSTRUMENT_KIT_ITEM>
                      </INSTRUMENT_KIT>
                      <INSTRUMENT_EFFECTS>
                        <INSTRUMENT_EFFECT id="0">
                          <EFFECT>
                            <par name="type" value="6"/>
                            <par name="preset" value="0"/>
                            <EFFECT_PARAMETERS>
                              <par_no id="0">
                                <par name="par" value="127"/>
                              </par_no>
                              <par_no id="1">
                                <par name="par" value="63"/>
                              </par_no>
                              <par_no id="2">
                                <par name="par" value="52"/>
                              </par_no>
                              <par_no id="3">
                                <par name="par" value="104"/>
                              </par_no>
                              <par_no id="4">
                                <par name="par" value="49"/>
                              </par_no>
                              <par_no id="5">
                                <par name="par" value="5"/>
                              </par_no>
                              <par_no id="7">
                                <par name="par" value="107"/>
                              </par_no>
                            </EFFECT_PARAMETERS>
                          </EFFECT>
                          <par name="route" value="0"/>
                          <par_bool name="bypass" value="no"/>
                        </INSTRUMENT_EFFECT>
                        <INSTRUMENT_EFFECT id="1">
                          <EFFECT>
                            <par name="type" value="7"/>
                            <par name="preset" value="0"/>
                            <EFFECT_PARAMETERS>
                              <par_no id="0">
                                <par name="par" value="67"/>
                              </par_no>
                              <par_no id="10">
                                <par name="par" value="5"/>
                              </par_no>
                              <par_no id="11">
                                <par name="par" value="48"/>
                              </par_no>
                              <par_no id="12">
                                <par name="par" value="64"/>
                              </par_no>
                              <par_no id="13">
                                <par name="par" value="60"/>
                              </par_no>
                              <par_no id="15">
                                <par name="par" value="7"/>
                              </par_no>
                              <par_no id="16">
                                <par name="par" value="126"/>
                              </par_no>
                              <par_no id="17">
                                <par name="par" value="117"/>
                              </par_no>
                              <par_no id="18">
                                <par name="par" value="13"/>
                              </par_no>
                              <par_no id="21">
                                <par name="par" value="64"/>
                              </par_no>
                              <par_no id="22">
                                <par name="par" value="64"/>
                              </par_no>
                              <par_no id="23">
                                <par name="par" value="64"/>
                              </par_no>
                              <par_no id="26">
                                <par name="par" value="64"/>
                              </par_no>
                              <par_no id="27">
                                <par name="par" value="64"/>
                              </par_no>
                              <par_no id="28">
                                <par name="par" value="64"/>
                              </par_no>
                              <par_no id="31">
                                <par name="par" value="64"/>
                              </par_no>
                              <par_no id="32">
                                <par name="par" value="64"/>
                              </par_no>
                              <par_no id="33">
                                <par name="par" value="64"/>
                              </par_no>
                              <par_no id="36">
                                <par name="par" value="64"/>
                              </par_no>
                              <par_no id="37">
                                <par name="par" value="64"/>
                              </par_no>
                              <par_no id="38">
                                <par name="par" value="64"/>
                              </par_no>
                              <par_no id="41">
                                <par name="par" value="64"/>
                              </par_no>
                              <par_no id="42">
                                <par name="par" value="64"/>
                              </par_no>
                              <par_no id="43">
                                <par name="par" value="64"/>
                              </par_no>
                              <par_no id="46">
                                <par name="par" value="64"/>
                              </par_no>
                              <par_no id="47">
                                <par name="par" value="64"/>
                              </par_no>
                              <par_no id="48">
                                <par name="par" value="64"/>
                              </par_no>
                            </EFFECT_PARAMETERS>
                          </EFFECT>
                          <par name="route" value="0"/>
                          <par_bool name="bypass" value="no"/>
                        </INSTRUMENT_EFFECT>
                        <INSTRUMENT_EFFECT id="2">
                          <EFFECT>
                            <par name="type" value="3"/>
                            <par name="preset" value="0"/>
                            <EFFECT_PARAMETERS>
                              <par_no id="0">
                                <par name="par" value="32"/>
                              </par_no>
                              <par_no id="1">
                                <par name="par" value="62"/>
                              </par_no>
                              <par_no id="2">
                                <par name="par" value="18"/>
                              </par_no>
                              <par_no id="5">
                                <par name="par" value="90"/>
                              </par_no>
                              <par_no id="6">
                                <par name="par" value="40"/>
                              </par_no>
                              <par_no id="7">
                                <par name="par" value="85"/>
                              </par_no>
                              <par_no id="8">
                                <par name="par" value="64"/>
                              </par_no>
                              <par_no id="9">
                                <par name="par" value="119"/>
                              </par_no>
                            </EFFECT_PARAMETERS>
                          </EFFECT>
                          <par name="route" value="0"/>
                          <par_bool name="bypass" value="no"/>
                        </INSTRUMENT_EFFECT>
                      </INSTRUMENT_EFFECTS>
                    </INSTRUMENT>
                    <CONTROLLER>
                      <par name="pitchwheel_bendrange" value="100"/>
                      <par_bool name="expression_receive" value="yes"/>
                      <par name="panning_depth" value="64"/>
                      <par name="filter_cutoff_depth" value="64"/>
                      <par name="filter_q_depth" value="64"/>
                      <par name="bandwidth_depth" value="64"/>
                      <par name="mod_wheel_depth" value="80"/>
                      <par_bool name="mod_wheel_exponential" value="no"/>
                      <par_bool name="fm_amp_receive" value="yes"/>
                      <par_bool name="volume_receive" value="yes"/>
                      <par_bool name="sustain_receive" value="yes"/>
                      <par_bool name="portamento_receive" value="yes"/>
                      <par name="portamento_time" value="64"/>
                      <par name="portamento_pitchthresh" value="3"/>
                      <par name="portamento_pitchthreshtype" value="1"/>
                      <par name="portamento_portamento" value="0"/>
                      <par name="portamento_updowntimestretch" value="64"/>
                      <par name="portamento_proportional" value="0"/>
                      <par name="portamento_proprate" value="80"/>
                      <par name="portamento_propdepth" value="90"/>
                      <par name="resonance_center_depth" value="64"/>
                      <par name="resonance_bandwidth_depth" value="64"/>
                    </CONTROLLER>
                  </PART>
                  <PART id="1">
                    <par_bool name="enabled" value="no"/>
                  </PART>
                  <PART id="2">
                    <par_bool name="enabled" value="no"/>
                  </PART>
                  <PART id="3">
                    <par_bool name="enabled" value="no"/>
                  </PART>
                  <PART id="4">
                    <par_bool name="enabled" value="no"/>
                  </PART>
                  <PART id="5">
                    <par_bool name="enabled" value="no"/>
                  </PART>
                  <PART id="6">
                    <par_bool name="enabled" value="no"/>
                  </PART>
                  <PART id="7">
                    <par_bool name="enabled" value="no"/>
                  </PART>
                  <PART id="8">
                    <par_bool name="enabled" value="no"/>
                  </PART>
                  <PART id="9">
                    <par_bool name="enabled" value="no"/>
                  </PART>
                  <PART id="10">
                    <par_bool name="enabled" value="no"/>
                  </PART>
                  <PART id="11">
                    <par_bool name="enabled" value="no"/>
                  </PART>
                  <PART id="12">
                    <par_bool name="enabled" value="no"/>
                  </PART>
                  <PART id="13">
                    <par_bool name="enabled" value="no"/>
                  </PART>
                  <PART id="14">
                    <par_bool name="enabled" value="no"/>
                  </PART>
                  <PART id="15">
                    <par_bool name="enabled" value="no"/>
                  </PART>
                  <SYSTEM_EFFECTS>
                    <SYSTEM_EFFECT id="0">
                      <EFFECT>
                        <par name="type" value="0"/>
                      </EFFECT>
                      <VOLUME id="0">
                        <par name="vol" value="0"/>
                      </VOLUME>
                      <VOLUME id="1">
                        <par name="vol" value="0"/>
                      </VOLUME>
                      <VOLUME id="2">
                        <par name="vol" value="0"/>
                      </VOLUME>
                      <VOLUME id="3">
                        <par name="vol" value="0"/>
                      </VOLUME>
                      <VOLUME id="4">
                        <par name="vol" value="0"/>
                      </VOLUME>
                      <VOLUME id="5">
                        <par name="vol" value="0"/>
                      </VOLUME>
                      <VOLUME id="6">
                        <par name="vol" value="0"/>
                      </VOLUME>
                      <VOLUME id="7">
                        <par name="vol" value="0"/>
                      </VOLUME>
                      <VOLUME id="8">
                        <par name="vol" value="0"/>
                      </VOLUME>
                      <VOLUME id="9">
                        <par name="vol" value="0"/>
                      </VOLUME>
                      <VOLUME id="10">
                        <par name="vol" value="0"/>
                      </VOLUME>
                      <VOLUME id="11">
                        <par name="vol" value="0"/>
                      </VOLUME>
                      <VOLUME id="12">
                        <par name="vol" value="0"/>
                      </VOLUME>
                      <VOLUME id="13">
                        <par name="vol" value="0"/>
                      </VOLUME>
                      <VOLUME id="14">
                        <par name="vol" value="0"/>
                      </VOLUME>
                      <VOLUME id="15">
                        <par name="vol" value="0"/>
                      </VOLUME>
                      <SENDTO id="1">
                        <par name="send_vol" value="0"/>
                      </SENDTO>
                      <SENDTO id="2">
                        <par name="send_vol" value="0"/>
                      </SENDTO>
                      <SENDTO id="3">
                        <par name="send_vol" value="0"/>
                      </SENDTO>
                    </SYSTEM_EFFECT>
                    <SYSTEM_EFFECT id="1">
                      <EFFECT>
                        <par name="type" value="0"/>
                      </EFFECT>
                      <VOLUME id="0">
                        <par name="vol" value="0"/>
                      </VOLUME>
                      <VOLUME id="1">
                        <par name="vol" value="0"/>
                      </VOLUME>
                      <VOLUME id="2">
                        <par name="vol" value="0"/>
                      </VOLUME>
                      <VOLUME id="3">
                        <par name="vol" value="0"/>
                      </VOLUME>
                      <VOLUME id="4">
                        <par name="vol" value="0"/>
                      </VOLUME>
                      <VOLUME id="5">
                        <par name="vol" value="0"/>
                      </VOLUME>
                      <VOLUME id="6">
                        <par name="vol" value="0"/>
                      </VOLUME>
                      <VOLUME id="7">
                        <par name="vol" value="0"/>
                      </VOLUME>
                      <VOLUME id="8">
                        <par name="vol" value="0"/>
                      </VOLUME>
                      <VOLUME id="9">
                        <par name="vol" value="0"/>
                      </VOLUME>
                      <VOLUME id="10">
                        <par name="vol" value="0"/>
                      </VOLUME>
                      <VOLUME id="11">
                        <par name="vol" value="0"/>
                      </VOLUME>
                      <VOLUME id="12">
                        <par name="vol" value="0"/>
                      </VOLUME>
                      <VOLUME id="13">
                        <par name="vol" value="0"/>
                      </VOLUME>
                      <VOLUME id="14">
                        <par name="vol" value="0"/>
                      </VOLUME>
                      <VOLUME id="15">
                        <par name="vol" value="0"/>
                      </VOLUME>
                      <SENDTO id="2">
                        <par name="send_vol" value="0"/>
                      </SENDTO>
                      <SENDTO id="3">
                        <par name="send_vol" value="0"/>
                      </SENDTO>
                    </SYSTEM_EFFECT>
                    <SYSTEM_EFFECT id="2">
                      <EFFECT>
                        <par name="type" value="0"/>
                      </EFFECT>
                      <VOLUME id="0">
                        <par name="vol" value="0"/>
                      </VOLUME>
                      <VOLUME id="1">
                        <par name="vol" value="0"/>
                      </VOLUME>
                      <VOLUME id="2">
                        <par name="vol" value="0"/>
                      </VOLUME>
                      <VOLUME id="3">
                        <par name="vol" value="0"/>
                      </VOLUME>
                      <VOLUME id="4">
                        <par name="vol" value="0"/>
                      </VOLUME>
                      <VOLUME id="5">
                        <par name="vol" value="0"/>
                      </VOLUME>
                      <VOLUME id="6">
                        <par name="vol" value="0"/>
                      </VOLUME>
                      <VOLUME id="7">
                        <par name="vol" value="0"/>
                      </VOLUME>
                      <VOLUME id="8">
                        <par name="vol" value="0"/>
                      </VOLUME>
                      <VOLUME id="9">
                        <par name="vol" value="0"/>
                      </VOLUME>
                      <VOLUME id="10">
                        <par name="vol" value="0"/>
                      </VOLUME>
                      <VOLUME id="11">
                        <par name="vol" value="0"/>
                      </VOLUME>
                      <VOLUME id="12">
                        <par name="vol" value="0"/>
                      </VOLUME>
                      <VOLUME id="13">
                        <par name="vol" value="0"/>
                      </VOLUME>
                      <VOLUME id="14">
                        <par name="vol" value="0"/>
                      </VOLUME>
                      <VOLUME id="15">
                        <par name="vol" value="0"/>
                      </VOLUME>
                      <SENDTO id="3">
                        <par name="send_vol" value="0"/>
                      </SENDTO>
                    </SYSTEM_EFFECT>
                    <SYSTEM_EFFECT id="3">
                      <EFFECT>
                        <par name="type" value="0"/>
                      </EFFECT>
                      <VOLUME id="0">
                        <par name="vol" value="0"/>
                      </VOLUME>
                      <VOLUME id="1">
                        <par name="vol" value="0"/>
                      </VOLUME>
                      <VOLUME id="2">
                        <par name="vol" value="0"/>
                      </VOLUME>
                      <VOLUME id="3">
                        <par name="vol" value="0"/>
                      </VOLUME>
                      <VOLUME id="4">
                        <par name="vol" value="0"/>
                      </VOLUME>
                      <VOLUME id="5">
                        <par name="vol" value="0"/>
                      </VOLUME>
                      <VOLUME id="6">
                        <par name="vol" value="0"/>
                      </VOLUME>
                      <VOLUME id="7">
                        <par name="vol" value="0"/>
                      </VOLUME>
                      <VOLUME id="8">
                        <par name="vol" value="0"/>
                      </VOLUME>
                      <VOLUME id="9">
                        <par name="vol" value="0"/>
                      </VOLUME>
                      <VOLUME id="10">
                        <par name="vol" value="0"/>
                      </VOLUME>
                      <VOLUME id="11">
                        <par name="vol" value="0"/>
                      </VOLUME>
                      <VOLUME id="12">
                        <par name="vol" value="0"/>
                      </VOLUME>
                      <VOLUME id="13">
                        <par name="vol" value="0"/>
                      </VOLUME>
                      <VOLUME id="14">
                        <par name="vol" value="0"/>
                      </VOLUME>
                      <VOLUME id="15">
                        <par name="vol" value="0"/>
                      </VOLUME>
                    </SYSTEM_EFFECT>
                  </SYSTEM_EFFECTS>
                  <INSERTION_EFFECTS>
                    <INSERTION_EFFECT id="0">
                      <par name="part" value="-2"/>
                      <EFFECT>
                        <par name="type" value="1"/>
                        <par name="preset" value="0"/>
                        <EFFECT_PARAMETERS>
                          <par_no id="0">
                            <par name="par" value="19"/>
                          </par_no>
                          <par_no id="1">
                            <par name="par" value="64"/>
                          </par_no>
                          <par_no id="2">
                            <par name="par" value="19"/>
                          </par_no>
                          <par_no id="3">
                            <par name="par" value="24"/>
                          </par_no>
                          <par_no id="7">
                            <par name="par" value="85"/>
                          </par_no>
                          <par_no id="8">
                            <par name="par" value="5"/>
                          </par_no>
                          <par_no id="9">
                            <par name="par" value="83"/>
                          </par_no>
                          <par_no id="10">
                            <par name="par" value="1"/>
                          </par_no>
                          <par_no id="11">
                            <par name="par" value="64"/>
                          </par_no>
                          <par_no id="12">
                            <par name="par" value="20"/>
                          </par_no>
                        </EFFECT_PARAMETERS>
                      </EFFECT>
                    </INSERTION_EFFECT>
                    <INSERTION_EFFECT id="1">
                      <par name="part" value="-1"/>
                      <EFFECT>
                        <par name="type" value="4"/>
                        <par name="preset" value="5"/>
                        <EFFECT_PARAMETERS>
                          <par_no id="0">
                            <par name="par" value="64"/>
                          </par_no>
                          <par_no id="1">
                            <par name="par" value="64"/>
                          </par_no>
                          <par_no id="2">
                            <par name="par" value="16"/>
                          </par_no>
                          <par_no id="3">
                            <par name="par" value="100"/>
                          </par_no>
                          <par_no id="5">
                            <par name="par" value="58"/>
                          </par_no>
                          <par_no id="6">
                            <par name="par" value="37"/>
                          </par_no>
                          <par_no id="7">
                            <par name="par" value="78"/>
                          </par_no>
                          <par_no id="8">
                            <par name="par" value="3"/>
                          </par_no>
                          <par_no id="11">
                            <par name="par" value="20"/>
                          </par_no>
                        </EFFECT_PARAMETERS>
                      </EFFECT>
                    </INSERTION_EFFECT>
                    <INSERTION_EFFECT id="2">
                      <par name="part" value="-1"/>
                      <EFFECT>
                        <par name="type" value="0"/>
                      </EFFECT>
                    </INSERTION_EFFECT>
                    <INSERTION_EFFECT id="3">
                      <par name="part" value="-1"/>
                      <EFFECT>
                        <par name="type" value="0"/>
                      </EFFECT>
                    </INSERTION_EFFECT>
                    <INSERTION_EFFECT id="4">
                      <par name="part" value="-1"/>
                      <EFFECT>
                        <par name="type" value="0"/>
                      </EFFECT>
                    </INSERTION_EFFECT>
                    <INSERTION_EFFECT id="5">
                      <par name="part" value="-1"/>
                      <EFFECT>
                        <par name="type" value="0"/>
                      </EFFECT>
                    </INSERTION_EFFECT>
                    <INSERTION_EFFECT id="6">
                      <par name="part" value="-1"/>
                      <EFFECT>
                        <par name="type" value="0"/>
                      </EFFECT>
                    </INSERTION_EFFECT>
                    <INSERTION_EFFECT id="7">
                      <par name="part" value="-1"/>
                      <EFFECT>
                        <par name="type" value="0"/>
                      </EFFECT>
                    </INSERTION_EFFECT>
                  </INSERTION_EFFECTS>
                </MASTER>
              </ZynAddSubFX-data>
            </zynaddsubfx>
          </instrument>
          <eldata ftype="0" fres="0.5" fwet="0" fcut="14000">
            <elvol lamt="0" sustain="0.5" pdel="0" latt="0" dec="0.5" lspd_numerator="4" amt="0" userwavefile="" rel="0.1" lspd_denominator="4" lpdel="0" lspd="0.1" lshp="0" hold="0.5" att="0" ctlenvamt="0" lspd_syncmode="0" x100="0"/>
            <elcut lamt="0" sustain="0.5" pdel="0" latt="0" dec="0.5" lspd_numerator="4" amt="0" userwavefile="" rel="0.1" lspd_denominator="4" lpdel="0" lspd="0.1" lshp="0" hold="0.5" att="0" ctlenvamt="0" lspd_syncmode="0" x100="0"/>
            <elres lamt="0" sustain="0.5" pdel="0" latt="0" dec="0.5" lspd_numerator="4" amt="0" userwavefile="" rel="0.1" lspd_denominator="4" lpdel="0" lspd="0.1" lshp="0" hold="0.5" att="0" ctlenvamt="0" lspd_syncmode="0" x100="0"/>
          </eldata>
          <chordcreator chordrange="1" chord-enabled="0" chord="0"/>
          <arpeggiator arpmiss="0" arptime_numerator="4" arptime_syncmode="0" arpgate="100" arptime="200" arpcycle="0" arptime_denominator="4" arp="0" arpmode="0" arprange="1" arp-enabled="0" arpskip="0" arpdir="0"/>
          <midiport outputchannel="1" fixedoutputnote="-1" writable="0" inputchannel="0" inputcontroller="0" outputcontroller="0" fixedinputvelocity="-1" outputprogram="1" readable="0" basevelocity="63" fixedoutputvelocity="-1"/>
          <fxchain numofeffects="1" enabled="1">
            <effect wet="1" autoquit_numerator="4" name="eq" autoquit_syncmode="0" on="1" autoquit="1" gate="0" autoquit_denominator="4">
              <Eq LP24="0" Peak2gain="8.8200006" HighShelfres="1.4" AnalyseIn="1" LPres="0.70700002" Peak4active="1" LPactive="1" LP="0" LP12="1" Peak4gain="-0.36000001" Peak2bw="0.30000001" HPactive="1" AnalyseOut="1" Lowshelfactive="1" Peak3gain="3.6000001" LowShelfres="1.4" Peak4bw="0.30000001" LP48="0" HP="0" Peak3bw="0.30000001" Lowshelfgain="-4.1400003" Peak1bw="0.30000001" HP48="0" Peak2active="1" Peak3active="1" HP12="1" HighShelfgain="-6.1200004" HPres="0.70700002" Highshelfactive="1" HP24="0" Peak1active="1" Outputgain="0">
                <Inputgain id="6624265" value="0" scale_type="log"/>
                <Peak1gain id="5155110" value="-2.52" scale_type="log"/>
                <HPfreq id="5514406" value="28.272341" scale_type="log"/>
                <LowShelffreq id="6501044" value="59.761753" scale_type="log"/>
                <Peak1freq id="3993131" value="123.74126" scale_type="log"/>
                <Peak2freq id="1980509" value="204.77342" scale_type="log"/>
                <Peak3freq id="66319" value="534.19055" scale_type="log"/>
                <Peak4freq id="6870404" value="3483.8574" scale_type="log"/>
                <Highshelffreq id="4924713" value="8693.2334" scale_type="log"/>
                <LPfreq id="3421696" value="17999.996" scale_type="log"/>
              </Eq>
              <key/>
            </effect>
          </fxchain>
        </instrumenttrack>
        <pattern name="Distortion Guitar" pos="0" type="1" muted="0" steps="16">
          <note key="23" vol="100" pan="0" pos="0" len="12"/>
          <note key="23" vol="61" pan="0" pos="12" len="12"/>
          <note key="23" vol="61" pan="0" pos="24" len="12"/>
          <note key="23" vol="100" pan="0" pos="36" len="12"/>
          <note key="23" vol="61" pan="0" pos="48" len="12"/>
          <note key="23" vol="61" pan="0" pos="60" len="12"/>
          <note key="23" vol="93" pan="0" pos="72" len="12"/>
          <note key="23" vol="55" pan="0" pos="84" len="12"/>
          <note key="23" vol="61" pan="0" pos="96" len="12"/>
          <note key="23" vol="87" pan="0" pos="108" len="12"/>
          <note key="23" vol="48" pan="0" pos="120" len="12"/>
          <note key="23" vol="87" pan="0" pos="132" len="12"/>
          <note key="21" vol="87" pan="0" pos="144" len="12"/>
          <note key="21" vol="36" pan="0" pos="156" len="12"/>
          <note key="23" vol="87" pan="0" pos="168" len="12"/>
          <note key="23" vol="87" pan="0" pos="180" len="6"/>
          <note key="23" vol="87" pan="0" pos="186" len="6"/>
          <note key="23" vol="100" pan="0" pos="192" len="12"/>
          <note key="23" vol="61" pan="0" pos="204" len="12"/>
          <note key="23" vol="61" pan="0" pos="216" len="12"/>
          <note key="23" vol="100" pan="0" pos="228" len="12"/>
          <note key="23" vol="61" pan="0" pos="240" len="12"/>
          <note key="23" vol="61" pan="0" pos="252" len="12"/>
          <note key="23" vol="93" pan="0" pos="264" len="12"/>
          <note key="23" vol="55" pan="0" pos="276" len="12"/>
          <note key="23" vol="61" pan="0" pos="288" len="12"/>
          <note key="23" vol="87" pan="0" pos="300" len="12"/>
          <note key="23" vol="48" pan="0" pos="312" len="12"/>
          <note key="23" vol="87" pan="0" pos="324" len="12"/>
          <note key="21" vol="87" pan="0" pos="336" len="12"/>
          <note key="21" vol="36" pan="0" pos="348" len="12"/>
          <note key="23" vol="87" pan="0" pos="360" len="24"/>
          <note key="23" vol="100" pan="0" pos="384" len="12"/>
          <note key="23" vol="61" pan="0" pos="396" len="12"/>
          <note key="23" vol="61" pan="0" pos="408" len="12"/>
          <note key="23" vol="100" pan="0" pos="420" len="12"/>
          <note key="23" vol="61" pan="0" pos="432" len="12"/>
          <note key="23" vol="61" pan="0" pos="444" len="12"/>
          <note key="23" vol="93" pan="0" pos="456" len="12"/>
          <note key="23" vol="55" pan="0" pos="468" len="12"/>
          <note key="23" vol="61" pan="0" pos="480" len="12"/>
          <note key="23" vol="87" pan="0" pos="492" len="12"/>
          <note key="23" vol="48" pan="0" pos="504" len="12"/>
          <note key="23" vol="87" pan="0" pos="516" len="12"/>
          <note key="21" vol="87" pan="0" pos="528" len="12"/>
          <note key="21" vol="36" pan="0" pos="540" len="12"/>
          <note key="23" vol="87" pan="0" pos="552" len="12"/>
          <note key="23" vol="87" pan="0" pos="564" len="6"/>
          <note key="23" vol="87" pan="0" pos="570" len="6"/>
          <note key="23" vol="100" pan="0" pos="576" len="12"/>
          <note key="23" vol="61" pan="0" pos="588" len="12"/>
          <note key="23" vol="61" pan="0" pos="600" len="12"/>
          <note key="23" vol="100" pan="0" pos="612" len="12"/>
          <note key="23" vol="61" pan="0" pos="624" len="12"/>
          <note key="23" vol="61" pan="0" pos="636" len="12"/>
          <note key="23" vol="93" pan="0" pos="648" len="12"/>
          <note key="23" vol="55" pan="0" pos="660" len="12"/>
          <note key="23" vol="61" pan="0" pos="672" len="12"/>
          <note key="23" vol="87" pan="0" pos="684" len="12"/>
          <note key="23" vol="48" pan="0" pos="696" len="12"/>
          <note key="23" vol="87" pan="0" pos="708" len="12"/>
          <note key="21" vol="87" pan="0" pos="720" len="12"/>
          <note key="21" vol="36" pan="0" pos="732" len="12"/>
          <note key="23" vol="87" pan="0" pos="744" len="24"/>
        </pattern>
        <pattern name="Distortion Guitar" pos="768" type="1" muted="0" steps="16">
          <note key="23" vol="100" pan="0" pos="0" len="12"/>
          <note key="23" vol="61" pan="0" pos="12" len="12"/>
          <note key="23" vol="61" pan="0" pos="24" len="12"/>
          <note key="23" vol="100" pan="0" pos="36" len="12"/>
          <note key="23" vol="61" pan="0" pos="48" len="12"/>
          <note key="23" vol="61" pan="0" pos="60" len="12"/>
          <note key="23" vol="93" pan="0" pos="72" len="12"/>
          <note key="23" vol="55" pan="0" pos="84" len="12"/>
          <note key="23" vol="61" pan="0" pos="96" len="12"/>
          <note key="23" vol="87" pan="0" pos="108" len="12"/>
          <note key="23" vol="48" pan="0" pos="120" len="12"/>
          <note key="23" vol="87" pan="0" pos="132" len="12"/>
          <note key="24" vol="100" pan="0" pos="144" len="24"/>
          <note key="23" vol="87" pan="0" pos="168" len="12"/>
          <note key="23" vol="87" pan="0" pos="180" len="6"/>
          <note key="23" vol="87" pan="0" pos="186" len="6"/>
          <note key="23" vol="100" pan="0" pos="192" len="12"/>
          <note key="23" vol="61" pan="0" pos="204" len="12"/>
          <note key="23" vol="61" pan="0" pos="216" len="12"/>
          <note key="23" vol="100" pan="0" pos="228" len="12"/>
          <note key="23" vol="61" pan="0" pos="240" len="12"/>
          <note key="23" vol="61" pan="0" pos="252" len="12"/>
          <note key="23" vol="93" pan="0" pos="264" len="12"/>
          <note key="23" vol="55" pan="0" pos="276" len="12"/>
          <note key="23" vol="61" pan="0" pos="288" len="12"/>
          <note key="23" vol="87" pan="0" pos="300" len="12"/>
          <note key="23" vol="48" pan="0" pos="312" len="12"/>
          <note key="23" vol="87" pan="0" pos="324" len="12"/>
          <note key="21" vol="87" pan="0" pos="336" len="12"/>
          <note key="21" vol="36" pan="0" pos="348" len="12"/>
          <note key="23" vol="87" pan="0" pos="360" len="24"/>
          <note key="23" vol="100" pan="0" pos="384" len="12"/>
          <note key="23" vol="61" pan="0" pos="396" len="12"/>
          <note key="23" vol="61" pan="0" pos="408" len="12"/>
          <note key="23" vol="100" pan="0" pos="420" len="12"/>
          <note key="23" vol="61" pan="0" pos="432" len="12"/>
          <note key="23" vol="61" pan="0" pos="444" len="12"/>
          <note key="23" vol="93" pan="0" pos="456" len="12"/>
          <note key="23" vol="55" pan="0" pos="468" len="12"/>
          <note key="23" vol="61" pan="0" pos="480" len="12"/>
          <note key="23" vol="87" pan="0" pos="492" len="12"/>
          <note key="23" vol="48" pan="0" pos="504" len="12"/>
          <note key="23" vol="87" pan="0" pos="516" len="12"/>
          <note key="24" vol="100" pan="0" pos="528" len="24"/>
          <note key="23" vol="87" pan="0" pos="552" len="12"/>
          <note key="23" vol="87" pan="0" pos="564" len="6"/>
          <note key="23" vol="87" pan="0" pos="570" len="6"/>
          <note key="23" vol="100" pan="0" pos="576" len="12"/>
          <note key="23" vol="61" pan="0" pos="588" len="12"/>
          <note key="23" vol="61" pan="0" pos="600" len="12"/>
          <note key="23" vol="100" pan="0" pos="612" len="12"/>
          <note key="23" vol="61" pan="0" pos="624" len="12"/>
          <note key="23" vol="61" pan="0" pos="636" len="12"/>
          <note key="23" vol="93" pan="0" pos="648" len="12"/>
          <note key="23" vol="55" pan="0" pos="660" len="12"/>
          <note key="23" vol="61" pan="0" pos="672" len="12"/>
          <note key="23" vol="87" pan="0" pos="684" len="12"/>
          <note key="23" vol="48" pan="0" pos="696" len="12"/>
          <note key="23" vol="87" pan="0" pos="708" len="12"/>
          <note key="21" vol="87" pan="0" pos="720" len="12"/>
          <note key="21" vol="36" pan="0" pos="732" len="12"/>
          <note key="23" vol="87" pan="0" pos="744" len="24"/>
        </pattern>
        <pattern name="Distortion Guitar" pos="2688" type="1" muted="0" steps="16">
          <note key="23" vol="100" pan="0" pos="0" len="12"/>
          <note key="23" vol="61" pan="0" pos="12" len="12"/>
          <note key="23" vol="61" pan="0" pos="24" len="12"/>
          <note key="23" vol="100" pan="0" pos="36" len="12"/>
          <note key="23" vol="61" pan="0" pos="48" len="12"/>
          <note key="23" vol="61" pan="0" pos="60" len="12"/>
          <note key="23" vol="93" pan="0" pos="72" len="12"/>
          <note key="23" vol="55" pan="0" pos="84" len="12"/>
          <note key="23" vol="61" pan="0" pos="96" len="12"/>
          <note key="23" vol="87" pan="0" pos="108" len="12"/>
          <note key="23" vol="48" pan="0" pos="120" len="12"/>
          <note key="23" vol="87" pan="0" pos="132" len="12"/>
          <note key="24" vol="100" pan="0" pos="144" len="24"/>
          <note key="23" vol="87" pan="0" pos="168" len="12"/>
          <note key="23" vol="87" pan="0" pos="180" len="6"/>
          <note key="23" vol="87" pan="0" pos="186" len="6"/>
          <note key="23" vol="100" pan="0" pos="192" len="12"/>
          <note key="23" vol="61" pan="0" pos="204" len="12"/>
          <note key="23" vol="61" pan="0" pos="216" len="12"/>
          <note key="23" vol="100" pan="0" pos="228" len="12"/>
          <note key="23" vol="61" pan="0" pos="240" len="12"/>
          <note key="23" vol="61" pan="0" pos="252" len="12"/>
          <note key="23" vol="93" pan="0" pos="264" len="12"/>
          <note key="23" vol="55" pan="0" pos="276" len="12"/>
          <note key="23" vol="61" pan="0" pos="288" len="12"/>
          <note key="23" vol="87" pan="0" pos="300" len="12"/>
          <note key="23" vol="48" pan="0" pos="312" len="12"/>
          <note key="23" vol="87" pan="0" pos="324" len="12"/>
          <note key="21" vol="87" pan="0" pos="336" len="24"/>
          <note key="23" vol="87" pan="0" pos="360" len="24"/>
          <note key="23" vol="100" pan="0" pos="384" len="12"/>
          <note key="23" vol="61" pan="0" pos="396" len="12"/>
          <note key="23" vol="61" pan="0" pos="408" len="12"/>
          <note key="23" vol="100" pan="0" pos="420" len="12"/>
          <note key="23" vol="61" pan="0" pos="432" len="12"/>
          <note key="23" vol="61" pan="0" pos="444" len="12"/>
          <note key="23" vol="93" pan="0" pos="456" len="12"/>
          <note key="23" vol="55" pan="0" pos="468" len="12"/>
          <note key="23" vol="61" pan="0" pos="480" len="12"/>
          <note key="23" vol="87" pan="0" pos="492" len="12"/>
          <note key="23" vol="48" pan="0" pos="504" len="12"/>
          <note key="23" vol="87" pan="0" pos="516" len="12"/>
          <note key="24" vol="100" pan="0" pos="528" len="24"/>
          <note key="23" vol="87" pan="0" pos="552" len="12"/>
          <note key="23" vol="87" pan="0" pos="564" len="6"/>
          <note key="23" vol="87" pan="0" pos="570" len="6"/>
          <note key="23" vol="100" pan="0" pos="576" len="12"/>
          <note key="23" vol="61" pan="0" pos="588" len="12"/>
          <note key="23" vol="61" pan="0" pos="600" len="12"/>
          <note key="23" vol="100" pan="0" pos="612" len="12"/>
          <note key="23" vol="61" pan="0" pos="624" len="12"/>
          <note key="23" vol="61" pan="0" pos="636" len="12"/>
          <note key="23" vol="93" pan="0" pos="648" len="12"/>
          <note key="23" vol="55" pan="0" pos="660" len="12"/>
          <note key="23" vol="61" pan="0" pos="672" len="12"/>
          <note key="23" vol="87" pan="0" pos="684" len="12"/>
          <note key="23" vol="48" pan="0" pos="696" len="12"/>
          <note key="23" vol="87" pan="0" pos="708" len="12"/>
          <note key="21" vol="87" pan="0" pos="720" len="24"/>
          <note key="23" vol="87" pan="0" pos="744" len="24"/>
        </pattern>
        <pattern name="Distortion Guitar" pos="3456" type="1" muted="0" steps="16">
          <note key="23" vol="100" pan="0" pos="0" len="12"/>
          <note key="23" vol="61" pan="0" pos="12" len="12"/>
          <note key="23" vol="61" pan="0" pos="24" len="12"/>
          <note key="23" vol="100" pan="0" pos="36" len="12"/>
          <note key="23" vol="61" pan="0" pos="48" len="12"/>
          <note key="23" vol="61" pan="0" pos="60" len="12"/>
          <note key="23" vol="93" pan="0" pos="72" len="12"/>
          <note key="23" vol="55" pan="0" pos="84" len="12"/>
          <note key="23" vol="61" pan="0" pos="96" len="12"/>
          <note key="23" vol="87" pan="0" pos="108" len="12"/>
          <note key="23" vol="48" pan="0" pos="120" len="12"/>
          <note key="23" vol="87" pan="0" pos="132" len="12"/>
          <note key="24" vol="100" pan="0" pos="144" len="24"/>
          <note key="23" vol="87" pan="0" pos="168" len="12"/>
          <note key="23" vol="87" pan="0" pos="180" len="6"/>
          <note key="23" vol="87" pan="0" pos="186" len="6"/>
          <note key="23" vol="100" pan="0" pos="192" len="12"/>
          <note key="23" vol="61" pan="0" pos="204" len="12"/>
          <note key="23" vol="61" pan="0" pos="216" len="12"/>
          <note key="23" vol="100" pan="0" pos="228" len="12"/>
          <note key="23" vol="61" pan="0" pos="240" len="12"/>
          <note key="23" vol="61" pan="0" pos="252" len="12"/>
          <note key="23" vol="93" pan="0" pos="264" len="12"/>
          <note key="23" vol="55" pan="0" pos="276" len="12"/>
          <note key="23" vol="61" pan="0" pos="288" len="12"/>
          <note key="23" vol="87" pan="0" pos="300" len="12"/>
          <note key="23" vol="48" pan="0" pos="312" len="12"/>
          <note key="23" vol="87" pan="0" pos="324" len="12"/>
          <note key="21" vol="87" pan="0" pos="336" len="24"/>
          <note key="23" vol="87" pan="0" pos="360" len="24"/>
          <note key="23" vol="100" pan="0" pos="384" len="12"/>
          <note key="23" vol="61" pan="0" pos="396" len="12"/>
          <note key="23" vol="61" pan="0" pos="408" len="12"/>
          <note key="23" vol="100" pan="0" pos="420" len="12"/>
          <note key="23" vol="61" pan="0" pos="432" len="12"/>
          <note key="23" vol="61" pan="0" pos="444" len="12"/>
          <note key="23" vol="93" pan="0" pos="456" len="12"/>
          <note key="23" vol="55" pan="0" pos="468" len="12"/>
          <note key="23" vol="61" pan="0" pos="480" len="12"/>
          <note key="23" vol="87" pan="0" pos="492" len="12"/>
          <note key="23" vol="48" pan="0" pos="504" len="12"/>
          <note key="23" vol="87" pan="0" pos="516" len="12"/>
          <note key="24" vol="100" pan="0" pos="528" len="24"/>
          <note key="23" vol="87" pan="0" pos="552" len="12"/>
          <note key="23" vol="87" pan="0" pos="564" len="6"/>
          <note key="23" vol="87" pan="0" pos="570" len="6"/>
          <note key="23" vol="100" pan="0" pos="576" len="12"/>
          <note key="23" vol="61" pan="0" pos="588" len="12"/>
          <note key="23" vol="61" pan="0" pos="600" len="12"/>
          <note key="23" vol="100" pan="0" pos="612" len="12"/>
          <note key="23" vol="61" pan="0" pos="624" len="12"/>
          <note key="23" vol="61" pan="0" pos="636" len="12"/>
          <note key="23" vol="93" pan="0" pos="648" len="12"/>
          <note key="23" vol="55" pan="0" pos="660" len="12"/>
          <note key="23" vol="61" pan="0" pos="672" len="12"/>
          <note key="23" vol="87" pan="0" pos="684" len="12"/>
          <note key="23" vol="48" pan="0" pos="696" len="12"/>
          <note key="23" vol="87" pan="0" pos="708" len="12"/>
          <note key="21" vol="87" pan="0" pos="720" len="24"/>
          <note key="23" vol="87" pan="0" pos="744" len="24"/>
        </pattern>
        <pattern name="Distortion Guitar" pos="4224" type="1" muted="0" steps="16">
          <note key="21" vol="100" pan="0" pos="0" len="24"/>
          <note key="20" vol="100" pan="0" pos="24" len="24"/>
          <note key="20" vol="100" pan="0" pos="96" len="24"/>
          <note key="19" vol="100" pan="0" pos="144" len="240"/>
          <note key="21" vol="100" pan="0" pos="384" len="24"/>
          <note key="20" vol="100" pan="0" pos="408" len="24"/>
          <note key="20" vol="100" pan="0" pos="480" len="24"/>
          <note key="19" vol="100" pan="0" pos="528" len="240"/>
        </pattern>
        <pattern name="Distortion Guitar" pos="4992" type="1" muted="0" steps="16">
          <note key="23" vol="100" pan="0" pos="0" len="12"/>
          <note key="23" vol="61" pan="0" pos="12" len="12"/>
          <note key="23" vol="61" pan="0" pos="24" len="12"/>
          <note key="23" vol="100" pan="0" pos="36" len="12"/>
          <note key="23" vol="61" pan="0" pos="48" len="12"/>
          <note key="23" vol="61" pan="0" pos="60" len="12"/>
          <note key="23" vol="93" pan="0" pos="72" len="12"/>
          <note key="23" vol="55" pan="0" pos="84" len="12"/>
          <note key="23" vol="61" pan="0" pos="96" len="12"/>
          <note key="23" vol="87" pan="0" pos="108" len="12"/>
          <note key="23" vol="48" pan="0" pos="120" len="12"/>
          <note key="23" vol="87" pan="0" pos="132" len="12"/>
          <note key="24" vol="100" pan="0" pos="144" len="24"/>
          <note key="23" vol="87" pan="0" pos="168" len="12"/>
          <note key="23" vol="87" pan="0" pos="180" len="6"/>
          <note key="23" vol="87" pan="0" pos="186" len="6"/>
          <note key="23" vol="100" pan="0" pos="192" len="12"/>
          <note key="23" vol="61" pan="0" pos="204" len="12"/>
          <note key="23" vol="61" pan="0" pos="216" len="12"/>
          <note key="23" vol="100" pan="0" pos="228" len="12"/>
          <note key="23" vol="61" pan="0" pos="240" len="12"/>
          <note key="23" vol="61" pan="0" pos="252" len="12"/>
          <note key="23" vol="93" pan="0" pos="264" len="12"/>
          <note key="23" vol="55" pan="0" pos="276" len="12"/>
          <note key="23" vol="61" pan="0" pos="288" len="12"/>
          <note key="23" vol="87" pan="0" pos="300" len="12"/>
          <note key="23" vol="48" pan="0" pos="312" len="12"/>
          <note key="23" vol="87" pan="0" pos="324" len="12"/>
          <note key="21" vol="87" pan="0" pos="336" len="24"/>
          <note key="23" vol="87" pan="0" pos="360" len="24"/>
          <note key="23" vol="100" pan="0" pos="384" len="12"/>
          <note key="23" vol="61" pan="0" pos="396" len="12"/>
          <note key="23" vol="61" pan="0" pos="408" len="12"/>
          <note key="23" vol="100" pan="0" pos="420" len="12"/>
          <note key="23" vol="61" pan="0" pos="432" len="12"/>
          <note key="23" vol="61" pan="0" pos="444" len="12"/>
          <note key="23" vol="93" pan="0" pos="456" len="12"/>
          <note key="23" vol="55" pan="0" pos="468" len="12"/>
          <note key="23" vol="61" pan="0" pos="480" len="12"/>
          <note key="23" vol="87" pan="0" pos="492" len="12"/>
          <note key="23" vol="48" pan="0" pos="504" len="12"/>
          <note key="23" vol="87" pan="0" pos="516" len="12"/>
          <note key="24" vol="100" pan="0" pos="528" len="24"/>
          <note key="23" vol="87" pan="0" pos="552" len="12"/>
          <note key="23" vol="87" pan="0" pos="564" len="6"/>
          <note key="23" vol="87" pan="0" pos="570" len="6"/>
          <note key="23" vol="100" pan="0" pos="576" len="12"/>
          <note key="23" vol="61" pan="0" pos="588" len="12"/>
          <note key="23" vol="61" pan="0" pos="600" len="12"/>
          <note key="23" vol="100" pan="0" pos="612" len="12"/>
          <note key="23" vol="61" pan="0" pos="624" len="12"/>
          <note key="23" vol="61" pan="0" pos="636" len="12"/>
          <note key="23" vol="93" pan="0" pos="648" len="12"/>
          <note key="23" vol="55" pan="0" pos="660" len="12"/>
          <note key="23" vol="61" pan="0" pos="672" len="12"/>
          <note key="23" vol="87" pan="0" pos="684" len="12"/>
          <note key="23" vol="48" pan="0" pos="696" len="12"/>
          <note key="23" vol="87" pan="0" pos="708" len="12"/>
          <note key="21" vol="87" pan="0" pos="720" len="48"/>
        </pattern>
        <pattern name="Distortion Guitar" pos="5760" type="1" muted="0" steps="16">
          <note key="23" vol="100" pan="0" pos="0" len="768"/>
        </pattern>
        <pattern name="Distortion Guitar" pos="6528" type="1" muted="0" steps="16">
          <note key="23" vol="100" pan="0" pos="0" len="768"/>
        </pattern>
        <pattern name="Distortion Guitar" pos="7296" type="1" muted="0" steps="16">
          <note key="23" vol="100" pan="0" pos="0" len="768"/>
        </pattern>
        <pattern name="Distortion Guitar" pos="8064" type="1" muted="0" steps="16">
          <note key="23" vol="100" pan="0" pos="0" len="768"/>
        </pattern>
        <pattern name="Distortion Guitar" pos="9600" type="1" muted="0" steps="16">
          <note key="23" vol="100" pan="0" pos="0" len="12"/>
          <note key="23" vol="61" pan="0" pos="12" len="12"/>
          <note key="23" vol="61" pan="0" pos="24" len="12"/>
          <note key="23" vol="100" pan="0" pos="36" len="12"/>
          <note key="23" vol="61" pan="0" pos="48" len="12"/>
          <note key="23" vol="61" pan="0" pos="60" len="12"/>
          <note key="23" vol="93" pan="0" pos="72" len="12"/>
          <note key="23" vol="55" pan="0" pos="84" len="12"/>
          <note key="23" vol="61" pan="0" pos="96" len="12"/>
          <note key="23" vol="87" pan="0" pos="108" len="12"/>
          <note key="23" vol="48" pan="0" pos="120" len="12"/>
          <note key="23" vol="87" pan="0" pos="132" len="12"/>
          <note key="24" vol="100" pan="0" pos="144" len="24"/>
          <note key="23" vol="87" pan="0" pos="168" len="12"/>
          <note key="23" vol="87" pan="0" pos="180" len="6"/>
          <note key="23" vol="87" pan="0" pos="186" len="6"/>
          <note key="23" vol="100" pan="0" pos="192" len="12"/>
          <note key="23" vol="61" pan="0" pos="204" len="12"/>
          <note key="23" vol="61" pan="0" pos="216" len="12"/>
          <note key="23" vol="100" pan="0" pos="228" len="12"/>
          <note key="23" vol="61" pan="0" pos="240" len="12"/>
          <note key="23" vol="61" pan="0" pos="252" len="12"/>
          <note key="23" vol="93" pan="0" pos="264" len="12"/>
          <note key="23" vol="55" pan="0" pos="276" len="12"/>
          <note key="23" vol="61" pan="0" pos="288" len="12"/>
          <note key="23" vol="87" pan="0" pos="300" len="12"/>
          <note key="23" vol="48" pan="0" pos="312" len="12"/>
          <note key="23" vol="87" pan="0" pos="324" len="12"/>
          <note key="21" vol="87" pan="0" pos="336" len="24"/>
          <note key="23" vol="87" pan="0" pos="360" len="24"/>
          <note key="23" vol="100" pan="0" pos="384" len="12"/>
          <note key="23" vol="61" pan="0" pos="396" len="12"/>
          <note key="23" vol="61" pan="0" pos="408" len="12"/>
          <note key="23" vol="100" pan="0" pos="420" len="12"/>
          <note key="23" vol="61" pan="0" pos="432" len="12"/>
          <note key="23" vol="61" pan="0" pos="444" len="12"/>
          <note key="23" vol="93" pan="0" pos="456" len="12"/>
          <note key="23" vol="55" pan="0" pos="468" len="12"/>
          <note key="23" vol="61" pan="0" pos="480" len="12"/>
          <note key="23" vol="87" pan="0" pos="492" len="12"/>
          <note key="23" vol="48" pan="0" pos="504" len="12"/>
          <note key="23" vol="87" pan="0" pos="516" len="12"/>
          <note key="24" vol="100" pan="0" pos="528" len="24"/>
          <note key="23" vol="87" pan="0" pos="552" len="12"/>
          <note key="23" vol="87" pan="0" pos="564" len="6"/>
          <note key="23" vol="87" pan="0" pos="570" len="6"/>
          <note key="23" vol="100" pan="0" pos="576" len="12"/>
          <note key="23" vol="61" pan="0" pos="588" len="12"/>
          <note key="23" vol="61" pan="0" pos="600" len="12"/>
          <note key="23" vol="100" pan="0" pos="612" len="12"/>
          <note key="23" vol="61" pan="0" pos="624" len="12"/>
          <note key="23" vol="61" pan="0" pos="636" len="12"/>
          <note key="23" vol="93" pan="0" pos="648" len="12"/>
          <note key="23" vol="55" pan="0" pos="660" len="12"/>
          <note key="23" vol="61" pan="0" pos="672" len="12"/>
          <note key="23" vol="87" pan="0" pos="684" len="12"/>
          <note key="23" vol="48" pan="0" pos="696" len="12"/>
          <note key="23" vol="87" pan="0" pos="708" len="12"/>
          <note key="21" vol="87" pan="0" pos="720" len="24"/>
          <note key="23" vol="87" pan="0" pos="744" len="24"/>
        </pattern>
        <pattern name="Distortion Guitar" pos="10368" type="1" muted="0" steps="16">
          <note key="23" vol="100" pan="0" pos="0" len="12"/>
          <note key="23" vol="61" pan="0" pos="12" len="12"/>
          <note key="23" vol="61" pan="0" pos="24" len="12"/>
          <note key="23" vol="100" pan="0" pos="36" len="12"/>
          <note key="23" vol="61" pan="0" pos="48" len="12"/>
          <note key="23" vol="61" pan="0" pos="60" len="12"/>
          <note key="23" vol="93" pan="0" pos="72" len="12"/>
          <note key="23" vol="55" pan="0" pos="84" len="12"/>
          <note key="23" vol="61" pan="0" pos="96" len="12"/>
          <note key="23" vol="87" pan="0" pos="108" len="12"/>
          <note key="23" vol="48" pan="0" pos="120" len="12"/>
          <note key="23" vol="87" pan="0" pos="132" len="12"/>
          <note key="24" vol="100" pan="0" pos="144" len="24"/>
          <note key="23" vol="87" pan="0" pos="168" len="12"/>
          <note key="23" vol="87" pan="0" pos="180" len="6"/>
          <note key="23" vol="87" pan="0" pos="186" len="6"/>
          <note key="23" vol="100" pan="0" pos="192" len="12"/>
          <note key="23" vol="61" pan="0" pos="204" len="12"/>
          <note key="23" vol="61" pan="0" pos="216" len="12"/>
          <note key="23" vol="100" pan="0" pos="228" len="12"/>
          <note key="23" vol="61" pan="0" pos="240" len="12"/>
          <note key="23" vol="61" pan="0" pos="252" len="12"/>
          <note key="23" vol="93" pan="0" pos="264" len="12"/>
          <note key="23" vol="55" pan="0" pos="276" len="12"/>
          <note key="23" vol="61" pan="0" pos="288" len="12"/>
          <note key="23" vol="87" pan="0" pos="300" len="12"/>
          <note key="23" vol="48" pan="0" pos="312" len="12"/>
          <note key="23" vol="87" pan="0" pos="324" len="12"/>
          <note key="21" vol="87" pan="0" pos="336" len="24"/>
          <note key="23" vol="87" pan="0" pos="360" len="24"/>
          <note key="23" vol="100" pan="0" pos="384" len="12"/>
          <note key="23" vol="61" pan="0" pos="396" len="12"/>
          <note key="23" vol="61" pan="0" pos="408" len="12"/>
          <note key="23" vol="100" pan="0" pos="420" len="12"/>
          <note key="23" vol="61" pan="0" pos="432" len="12"/>
          <note key="23" vol="61" pan="0" pos="444" len="12"/>
          <note key="23" vol="93" pan="0" pos="456" len="12"/>
          <note key="23" vol="55" pan="0" pos="468" len="12"/>
          <note key="23" vol="61" pan="0" pos="480" len="12"/>
          <note key="23" vol="87" pan="0" pos="492" len="12"/>
          <note key="23" vol="48" pan="0" pos="504" len="12"/>
          <note key="23" vol="87" pan="0" pos="516" len="12"/>
          <note key="24" vol="100" pan="0" pos="528" len="24"/>
          <note key="23" vol="87" pan="0" pos="552" len="12"/>
          <note key="23" vol="87" pan="0" pos="564" len="6"/>
          <note key="23" vol="87" pan="0" pos="570" len="6"/>
          <note key="23" vol="100" pan="0" pos="576" len="12"/>
          <note key="23" vol="61" pan="0" pos="588" len="12"/>
          <note key="23" vol="61" pan="0" pos="600" len="12"/>
          <note key="23" vol="100" pan="0" pos="612" len="12"/>
          <note key="23" vol="61" pan="0" pos="624" len="12"/>
          <note key="23" vol="61" pan="0" pos="636" len="12"/>
          <note key="23" vol="93" pan="0" pos="648" len="12"/>
          <note key="23" vol="55" pan="0" pos="660" len="12"/>
          <note key="23" vol="61" pan="0" pos="672" len="12"/>
          <note key="23" vol="87" pan="0" pos="684" len="12"/>
          <note key="23" vol="48" pan="0" pos="696" len="12"/>
          <note key="23" vol="87" pan="0" pos="708" len="12"/>
          <note key="21" vol="87" pan="0" pos="720" len="24"/>
          <note key="23" vol="87" pan="0" pos="744" len="24"/>
        </pattern>
        <pattern name="Distortion Guitar" pos="8832" type="1" muted="0" steps="16">
          <note key="23" vol="100" pan="0" pos="0" len="12"/>
          <note key="23" vol="61" pan="0" pos="12" len="12"/>
          <note key="23" vol="61" pan="0" pos="24" len="12"/>
          <note key="23" vol="100" pan="0" pos="36" len="12"/>
          <note key="23" vol="61" pan="0" pos="48" len="12"/>
          <note key="23" vol="61" pan="0" pos="60" len="12"/>
          <note key="23" vol="93" pan="0" pos="72" len="12"/>
          <note key="23" vol="55" pan="0" pos="84" len="12"/>
          <note key="23" vol="61" pan="0" pos="96" len="12"/>
          <note key="23" vol="87" pan="0" pos="108" len="12"/>
          <note key="23" vol="48" pan="0" pos="120" len="12"/>
          <note key="23" vol="87" pan="0" pos="132" len="12"/>
          <note key="21" vol="100" pan="0" pos="144" len="24"/>
          <note key="23" vol="87" pan="0" pos="168" len="12"/>
          <note key="23" vol="87" pan="0" pos="180" len="6"/>
          <note key="23" vol="87" pan="0" pos="186" len="6"/>
          <note key="23" vol="100" pan="0" pos="192" len="12"/>
          <note key="23" vol="61" pan="0" pos="204" len="12"/>
          <note key="23" vol="61" pan="0" pos="216" len="12"/>
          <note key="23" vol="100" pan="0" pos="228" len="12"/>
          <note key="23" vol="61" pan="0" pos="240" len="12"/>
          <note key="23" vol="61" pan="0" pos="252" len="12"/>
          <note key="23" vol="93" pan="0" pos="264" len="12"/>
          <note key="23" vol="55" pan="0" pos="276" len="12"/>
          <note key="23" vol="61" pan="0" pos="288" len="12"/>
          <note key="23" vol="87" pan="0" pos="300" len="12"/>
          <note key="23" vol="48" pan="0" pos="312" len="12"/>
          <note key="23" vol="87" pan="0" pos="324" len="12"/>
          <note key="21" vol="87" pan="0" pos="336" len="12"/>
          <note key="21" vol="36" pan="0" pos="348" len="12"/>
          <note key="23" vol="87" pan="0" pos="360" len="24"/>
          <note key="23" vol="100" pan="0" pos="384" len="12"/>
          <note key="23" vol="61" pan="0" pos="396" len="12"/>
          <note key="23" vol="61" pan="0" pos="408" len="12"/>
          <note key="23" vol="100" pan="0" pos="420" len="12"/>
          <note key="23" vol="61" pan="0" pos="432" len="12"/>
          <note key="23" vol="61" pan="0" pos="444" len="12"/>
          <note key="23" vol="93" pan="0" pos="456" len="12"/>
          <note key="23" vol="55" pan="0" pos="468" len="12"/>
          <note key="23" vol="61" pan="0" pos="480" len="12"/>
          <note key="23" vol="87" pan="0" pos="492" len="12"/>
          <note key="23" vol="48" pan="0" pos="504" len="12"/>
          <note key="23" vol="87" pan="0" pos="516" len="12"/>
          <note key="24" vol="100" pan="0" pos="528" len="24"/>
          <note key="23" vol="87" pan="0" pos="552" len="12"/>
          <note key="23" vol="87" pan="0" pos="564" len="6"/>
          <note key="23" vol="87" pan="0" pos="570" len="6"/>
          <note key="23" vol="100" pan="0" pos="576" len="12"/>
          <note key="23" vol="61" pan="0" pos="588" len="12"/>
          <note key="23" vol="61" pan="0" pos="600" len="12"/>
          <note key="23" vol="100" pan="0" pos="612" len="12"/>
          <note key="23" vol="61" pan="0" pos="624" len="12"/>
          <note key="23" vol="61" pan="0" pos="636" len="12"/>
          <note key="23" vol="93" pan="0" pos="648" len="12"/>
          <note key="23" vol="55" pan="0" pos="660" len="12"/>
          <note key="23" vol="61" pan="0" pos="672" len="12"/>
          <note key="23" vol="87" pan="0" pos="684" len="12"/>
          <note key="23" vol="48" pan="0" pos="696" len="12"/>
          <note key="23" vol="87" pan="0" pos="708" len="12"/>
          <note key="23" vol="87" pan="0" pos="720" len="48"/>
        </pattern>
        <pattern name="Distortion Guitar" pos="11136" type="1" muted="0" steps="16">
          <note key="23" vol="100" pan="0" pos="0" len="12"/>
          <note key="23" vol="61" pan="0" pos="12" len="12"/>
          <note key="23" vol="61" pan="0" pos="24" len="12"/>
          <note key="23" vol="100" pan="0" pos="36" len="12"/>
          <note key="23" vol="61" pan="0" pos="48" len="12"/>
          <note key="23" vol="61" pan="0" pos="60" len="12"/>
          <note key="23" vol="93" pan="0" pos="72" len="12"/>
          <note key="23" vol="55" pan="0" pos="84" len="12"/>
          <note key="23" vol="61" pan="0" pos="96" len="12"/>
          <note key="23" vol="87" pan="0" pos="108" len="12"/>
          <note key="23" vol="48" pan="0" pos="120" len="12"/>
          <note key="23" vol="87" pan="0" pos="132" len="12"/>
          <note key="24" vol="100" pan="0" pos="144" len="24"/>
          <note key="23" vol="87" pan="0" pos="168" len="12"/>
          <note key="23" vol="87" pan="0" pos="180" len="6"/>
          <note key="23" vol="87" pan="0" pos="186" len="6"/>
          <note key="23" vol="100" pan="0" pos="192" len="12"/>
          <note key="23" vol="61" pan="0" pos="204" len="12"/>
          <note key="23" vol="61" pan="0" pos="216" len="12"/>
          <note key="23" vol="100" pan="0" pos="228" len="12"/>
          <note key="23" vol="61" pan="0" pos="240" len="12"/>
          <note key="23" vol="61" pan="0" pos="252" len="12"/>
          <note key="23" vol="93" pan="0" pos="264" len="12"/>
          <note key="23" vol="55" pan="0" pos="276" len="12"/>
          <note key="23" vol="61" pan="0" pos="288" len="12"/>
          <note key="23" vol="87" pan="0" pos="300" len="12"/>
          <note key="23" vol="48" pan="0" pos="312" len="12"/>
          <note key="23" vol="87" pan="0" pos="324" len="12"/>
          <note key="21" vol="87" pan="0" pos="336" len="24"/>
          <note key="23" vol="87" pan="0" pos="360" len="24"/>
          <note key="23" vol="100" pan="0" pos="384" len="12"/>
          <note key="23" vol="61" pan="0" pos="396" len="12"/>
          <note key="23" vol="61" pan="0" pos="408" len="12"/>
          <note key="23" vol="100" pan="0" pos="420" len="12"/>
          <note key="23" vol="61" pan="0" pos="432" len="12"/>
          <note key="23" vol="61" pan="0" pos="444" len="12"/>
          <note key="23" vol="93" pan="0" pos="456" len="12"/>
          <note key="23" vol="55" pan="0" pos="468" len="12"/>
          <note key="23" vol="61" pan="0" pos="480" len="12"/>
          <note key="23" vol="87" pan="0" pos="492" len="12"/>
          <note key="23" vol="48" pan="0" pos="504" len="12"/>
          <note key="23" vol="87" pan="0" pos="516" len="12"/>
          <note key="24" vol="100" pan="0" pos="528" len="24"/>
          <note key="23" vol="87" pan="0" pos="552" len="12"/>
          <note key="23" vol="87" pan="0" pos="564" len="6"/>
          <note key="23" vol="87" pan="0" pos="570" len="6"/>
          <note key="23" vol="100" pan="0" pos="576" len="12"/>
          <note key="23" vol="61" pan="0" pos="588" len="12"/>
          <note key="23" vol="61" pan="0" pos="600" len="12"/>
          <note key="23" vol="100" pan="0" pos="612" len="12"/>
          <note key="23" vol="61" pan="0" pos="624" len="12"/>
          <note key="23" vol="61" pan="0" pos="636" len="12"/>
          <note key="23" vol="93" pan="0" pos="648" len="12"/>
          <note key="23" vol="55" pan="0" pos="660" len="12"/>
          <note key="23" vol="61" pan="0" pos="672" len="12"/>
          <note key="23" vol="87" pan="0" pos="684" len="12"/>
          <note key="23" vol="48" pan="0" pos="696" len="12"/>
          <note key="23" vol="87" pan="0" pos="708" len="12"/>
          <note key="21" vol="87" pan="0" pos="720" len="24"/>
          <note key="23" vol="87" pan="0" pos="744" len="24"/>
        </pattern>
        <pattern name="Distortion Guitar" pos="11904" type="1" muted="0" steps="16">
          <note key="23" vol="100" pan="0" pos="0" len="12"/>
          <note key="23" vol="61" pan="0" pos="12" len="12"/>
          <note key="23" vol="61" pan="0" pos="24" len="12"/>
          <note key="23" vol="100" pan="0" pos="36" len="12"/>
          <note key="23" vol="61" pan="0" pos="48" len="12"/>
          <note key="23" vol="61" pan="0" pos="60" len="12"/>
          <note key="23" vol="93" pan="0" pos="72" len="12"/>
          <note key="23" vol="55" pan="0" pos="84" len="12"/>
          <note key="23" vol="61" pan="0" pos="96" len="12"/>
          <note key="23" vol="87" pan="0" pos="108" len="12"/>
          <note key="23" vol="48" pan="0" pos="120" len="12"/>
          <note key="23" vol="87" pan="0" pos="132" len="12"/>
          <note key="24" vol="100" pan="0" pos="144" len="24"/>
          <note key="23" vol="87" pan="0" pos="168" len="12"/>
          <note key="23" vol="87" pan="0" pos="180" len="6"/>
          <note key="23" vol="87" pan="0" pos="186" len="6"/>
          <note key="23" vol="100" pan="0" pos="192" len="12"/>
          <note key="23" vol="61" pan="0" pos="204" len="12"/>
          <note key="23" vol="61" pan="0" pos="216" len="12"/>
          <note key="23" vol="100" pan="0" pos="228" len="12"/>
          <note key="23" vol="61" pan="0" pos="240" len="12"/>
          <note key="23" vol="61" pan="0" pos="252" len="12"/>
          <note key="23" vol="93" pan="0" pos="264" len="12"/>
          <note key="23" vol="55" pan="0" pos="276" len="12"/>
          <note key="23" vol="61" pan="0" pos="288" len="12"/>
          <note key="23" vol="87" pan="0" pos="300" len="12"/>
          <note key="23" vol="48" pan="0" pos="312" len="12"/>
          <note key="23" vol="87" pan="0" pos="324" len="12"/>
          <note key="21" vol="87" pan="0" pos="336" len="24"/>
          <note key="23" vol="87" pan="0" pos="360" len="24"/>
          <note key="23" vol="100" pan="0" pos="384" len="12"/>
          <note key="23" vol="61" pan="0" pos="396" len="12"/>
          <note key="23" vol="61" pan="0" pos="408" len="12"/>
          <note key="23" vol="100" pan="0" pos="420" len="12"/>
          <note key="23" vol="61" pan="0" pos="432" len="12"/>
          <note key="23" vol="61" pan="0" pos="444" len="12"/>
          <note key="23" vol="93" pan="0" pos="456" len="12"/>
          <note key="23" vol="55" pan="0" pos="468" len="12"/>
          <note key="23" vol="61" pan="0" pos="480" len="12"/>
          <note key="23" vol="87" pan="0" pos="492" len="12"/>
          <note key="23" vol="48" pan="0" pos="504" len="12"/>
          <note key="23" vol="87" pan="0" pos="516" len="12"/>
          <note key="24" vol="100" pan="0" pos="528" len="24"/>
          <note key="23" vol="87" pan="0" pos="552" len="12"/>
          <note key="23" vol="87" pan="0" pos="564" len="6"/>
          <note key="23" vol="87" pan="0" pos="570" len="6"/>
          <note key="23" vol="100" pan="0" pos="576" len="12"/>
          <note key="23" vol="61" pan="0" pos="588" len="12"/>
          <note key="23" vol="61" pan="0" pos="600" len="12"/>
          <note key="23" vol="100" pan="0" pos="612" len="12"/>
          <note key="23" vol="61" pan="0" pos="624" len="12"/>
          <note key="23" vol="61" pan="0" pos="636" len="12"/>
          <note key="23" vol="93" pan="0" pos="648" len="12"/>
          <note key="23" vol="55" pan="0" pos="660" len="12"/>
          <note key="23" vol="61" pan="0" pos="672" len="12"/>
          <note key="23" vol="87" pan="0" pos="684" len="12"/>
          <note key="23" vol="48" pan="0" pos="696" len="12"/>
          <note key="23" vol="87" pan="0" pos="708" len="12"/>
          <note key="21" vol="87" pan="0" pos="720" len="24"/>
          <note key="23" vol="87" pan="0" pos="744" len="24"/>
        </pattern>
        <pattern name="Distortion Guitar" pos="12672" type="1" muted="0" steps="16">
          <note key="21" vol="100" pan="0" pos="0" len="24"/>
          <note key="20" vol="100" pan="0" pos="24" len="24"/>
          <note key="20" vol="100" pan="0" pos="96" len="24"/>
          <note key="19" vol="100" pan="0" pos="144" len="240"/>
          <note key="21" vol="100" pan="0" pos="384" len="24"/>
          <note key="20" vol="100" pan="0" pos="408" len="24"/>
          <note key="20" vol="100" pan="0" pos="480" len="24"/>
          <note key="19" vol="100" pan="0" pos="528" len="240"/>
        </pattern>
        <pattern name="Distortion Guitar" pos="13440" type="1" muted="0" steps="16">
          <note key="23" vol="100" pan="0" pos="0" len="12"/>
          <note key="23" vol="61" pan="0" pos="12" len="12"/>
          <note key="23" vol="61" pan="0" pos="24" len="12"/>
          <note key="23" vol="100" pan="0" pos="36" len="12"/>
          <note key="23" vol="61" pan="0" pos="48" len="12"/>
          <note key="23" vol="61" pan="0" pos="60" len="12"/>
          <note key="23" vol="93" pan="0" pos="72" len="12"/>
          <note key="23" vol="55" pan="0" pos="84" len="12"/>
          <note key="23" vol="61" pan="0" pos="96" len="12"/>
          <note key="23" vol="87" pan="0" pos="108" len="12"/>
          <note key="23" vol="48" pan="0" pos="120" len="12"/>
          <note key="23" vol="87" pan="0" pos="132" len="12"/>
          <note key="24" vol="100" pan="0" pos="144" len="24"/>
          <note key="23" vol="87" pan="0" pos="168" len="12"/>
          <note key="23" vol="87" pan="0" pos="180" len="6"/>
          <note key="23" vol="87" pan="0" pos="186" len="6"/>
          <note key="23" vol="100" pan="0" pos="192" len="12"/>
          <note key="23" vol="61" pan="0" pos="204" len="12"/>
          <note key="23" vol="61" pan="0" pos="216" len="12"/>
          <note key="23" vol="100" pan="0" pos="228" len="12"/>
          <note key="23" vol="61" pan="0" pos="240" len="12"/>
          <note key="23" vol="61" pan="0" pos="252" len="12"/>
          <note key="23" vol="93" pan="0" pos="264" len="12"/>
          <note key="23" vol="55" pan="0" pos="276" len="12"/>
          <note key="23" vol="61" pan="0" pos="288" len="12"/>
          <note key="23" vol="87" pan="0" pos="300" len="12"/>
          <note key="23" vol="48" pan="0" pos="312" len="12"/>
          <note key="23" vol="87" pan="0" pos="324" len="12"/>
          <note key="21" vol="87" pan="0" pos="336" len="24"/>
          <note key="23" vol="87" pan="0" pos="360" len="24"/>
          <note key="23" vol="100" pan="0" pos="384" len="12"/>
          <note key="23" vol="61" pan="0" pos="396" len="12"/>
          <note key="23" vol="61" pan="0" pos="408" len="12"/>
          <note key="23" vol="100" pan="0" pos="420" len="12"/>
          <note key="23" vol="61" pan="0" pos="432" len="12"/>
          <note key="23" vol="61" pan="0" pos="444" len="12"/>
          <note key="23" vol="93" pan="0" pos="456" len="12"/>
          <note key="23" vol="55" pan="0" pos="468" len="12"/>
          <note key="23" vol="61" pan="0" pos="480" len="12"/>
          <note key="23" vol="87" pan="0" pos="492" len="12"/>
          <note key="23" vol="48" pan="0" pos="504" len="12"/>
          <note key="23" vol="87" pan="0" pos="516" len="12"/>
          <note key="24" vol="100" pan="0" pos="528" len="24"/>
          <note key="23" vol="87" pan="0" pos="552" len="12"/>
          <note key="23" vol="87" pan="0" pos="564" len="6"/>
          <note key="23" vol="87" pan="0" pos="570" len="6"/>
          <note key="23" vol="100" pan="0" pos="576" len="12"/>
          <note key="23" vol="61" pan="0" pos="588" len="12"/>
          <note key="23" vol="61" pan="0" pos="600" len="12"/>
          <note key="23" vol="100" pan="0" pos="612" len="12"/>
          <note key="23" vol="61" pan="0" pos="624" len="12"/>
          <note key="23" vol="61" pan="0" pos="636" len="12"/>
          <note key="23" vol="93" pan="0" pos="648" len="12"/>
          <note key="23" vol="55" pan="0" pos="660" len="12"/>
          <note key="23" vol="61" pan="0" pos="672" len="12"/>
          <note key="23" vol="87" pan="0" pos="684" len="12"/>
          <note key="23" vol="48" pan="0" pos="696" len="12"/>
          <note key="23" vol="87" pan="0" pos="708" len="12"/>
          <note key="21" vol="87" pan="0" pos="720" len="48"/>
        </pattern>
        <pattern name="Distortion Guitar" pos="14976" type="1" muted="0" steps="16">
          <note key="23" vol="100" pan="0" pos="0" len="12"/>
          <note key="23" vol="61" pan="0" pos="12" len="12"/>
          <note key="23" vol="61" pan="0" pos="24" len="12"/>
          <note key="23" vol="100" pan="0" pos="36" len="12"/>
          <note key="23" vol="61" pan="0" pos="48" len="12"/>
          <note key="23" vol="61" pan="0" pos="60" len="12"/>
          <note key="23" vol="93" pan="0" pos="72" len="12"/>
          <note key="23" vol="55" pan="0" pos="84" len="12"/>
          <note key="23" vol="61" pan="0" pos="96" len="12"/>
          <note key="23" vol="87" pan="0" pos="108" len="12"/>
          <note key="23" vol="48" pan="0" pos="120" len="12"/>
          <note key="23" vol="87" pan="0" pos="132" len="12"/>
          <note key="24" vol="100" pan="0" pos="144" len="24"/>
          <note key="23" vol="87" pan="0" pos="168" len="12"/>
          <note key="23" vol="87" pan="0" pos="180" len="6"/>
          <note key="23" vol="87" pan="0" pos="186" len="6"/>
          <note key="23" vol="100" pan="0" pos="192" len="12"/>
          <note key="23" vol="61" pan="0" pos="204" len="12"/>
          <note key="23" vol="61" pan="0" pos="216" len="12"/>
          <note key="23" vol="100" pan="0" pos="228" len="12"/>
          <note key="23" vol="61" pan="0" pos="240" len="12"/>
          <note key="23" vol="61" pan="0" pos="252" len="12"/>
          <note key="23" vol="93" pan="0" pos="264" len="12"/>
          <note key="23" vol="55" pan="0" pos="276" len="12"/>
          <note key="23" vol="61" pan="0" pos="288" len="12"/>
          <note key="23" vol="87" pan="0" pos="300" len="12"/>
          <note key="23" vol="48" pan="0" pos="312" len="12"/>
          <note key="23" vol="87" pan="0" pos="324" len="12"/>
          <note key="21" vol="87" pan="0" pos="336" len="24"/>
          <note key="23" vol="87" pan="0" pos="360" len="24"/>
          <note key="23" vol="100" pan="0" pos="384" len="12"/>
          <note key="23" vol="61" pan="0" pos="396" len="12"/>
          <note key="23" vol="61" pan="0" pos="408" len="12"/>
          <note key="23" vol="100" pan="0" pos="420" len="12"/>
          <note key="23" vol="61" pan="0" pos="432" len="12"/>
          <note key="23" vol="61" pan="0" pos="444" len="12"/>
          <note key="23" vol="93" pan="0" pos="456" len="12"/>
          <note key="23" vol="55" pan="0" pos="468" len="12"/>
          <note key="23" vol="61" pan="0" pos="480" len="12"/>
          <note key="23" vol="87" pan="0" pos="492" len="12"/>
          <note key="23" vol="48" pan="0" pos="504" len="12"/>
          <note key="23" vol="87" pan="0" pos="516" len="12"/>
          <note key="24" vol="100" pan="0" pos="528" len="24"/>
          <note key="23" vol="87" pan="0" pos="552" len="12"/>
          <note key="23" vol="87" pan="0" pos="564" len="6"/>
          <note key="23" vol="87" pan="0" pos="570" len="6"/>
          <note key="23" vol="100" pan="0" pos="576" len="12"/>
          <note key="23" vol="61" pan="0" pos="588" len="12"/>
          <note key="23" vol="61" pan="0" pos="600" len="12"/>
          <note key="23" vol="100" pan="0" pos="612" len="12"/>
          <note key="23" vol="61" pan="0" pos="624" len="12"/>
          <note key="23" vol="61" pan="0" pos="636" len="12"/>
          <note key="23" vol="93" pan="0" pos="648" len="12"/>
          <note key="23" vol="55" pan="0" pos="660" len="12"/>
          <note key="23" vol="61" pan="0" pos="672" len="12"/>
          <note key="23" vol="87" pan="0" pos="684" len="12"/>
          <note key="23" vol="48" pan="0" pos="696" len="12"/>
          <note key="23" vol="87" pan="0" pos="708" len="12"/>
          <note key="22" vol="87" pan="0" pos="720" len="432"/>
        </pattern>
        <pattern name="Distortion Guitar" pos="14208" type="1" muted="0" steps="16">
          <note key="23" vol="100" pan="0" pos="0" len="12"/>
          <note key="23" vol="61" pan="0" pos="12" len="12"/>
          <note key="23" vol="61" pan="0" pos="24" len="12"/>
          <note key="23" vol="100" pan="0" pos="36" len="12"/>
          <note key="23" vol="61" pan="0" pos="48" len="12"/>
          <note key="23" vol="61" pan="0" pos="60" len="12"/>
          <note key="23" vol="93" pan="0" pos="72" len="12"/>
          <note key="23" vol="55" pan="0" pos="84" len="12"/>
          <note key="23" vol="61" pan="0" pos="96" len="12"/>
          <note key="23" vol="87" pan="0" pos="108" len="12"/>
          <note key="23" vol="48" pan="0" pos="120" len="12"/>
          <note key="23" vol="87" pan="0" pos="132" len="12"/>
          <note key="24" vol="100" pan="0" pos="144" len="24"/>
          <note key="23" vol="87" pan="0" pos="168" len="12"/>
          <note key="23" vol="87" pan="0" pos="180" len="6"/>
          <note key="23" vol="87" pan="0" pos="186" len="6"/>
          <note key="23" vol="100" pan="0" pos="192" len="12"/>
          <note key="23" vol="61" pan="0" pos="204" len="12"/>
          <note key="23" vol="61" pan="0" pos="216" len="12"/>
          <note key="23" vol="100" pan="0" pos="228" len="12"/>
          <note key="23" vol="61" pan="0" pos="240" len="12"/>
          <note key="23" vol="61" pan="0" pos="252" len="12"/>
          <note key="23" vol="93" pan="0" pos="264" len="12"/>
          <note key="23" vol="55" pan="0" pos="276" len="12"/>
          <note key="23" vol="61" pan="0" pos="288" len="12"/>
          <note key="23" vol="87" pan="0" pos="300" len="12"/>
          <note key="23" vol="48" pan="0" pos="312" len="12"/>
          <note key="23" vol="87" pan="0" pos="324" len="12"/>
          <note key="21" vol="87" pan="0" pos="336" len="24"/>
          <note key="23" vol="87" pan="0" pos="360" len="24"/>
          <note key="23" vol="100" pan="0" pos="384" len="12"/>
          <note key="23" vol="61" pan="0" pos="396" len="12"/>
          <note key="23" vol="61" pan="0" pos="408" len="12"/>
          <note key="23" vol="100" pan="0" pos="420" len="12"/>
          <note key="23" vol="61" pan="0" pos="432" len="12"/>
          <note key="23" vol="61" pan="0" pos="444" len="12"/>
          <note key="23" vol="93" pan="0" pos="456" len="12"/>
          <note key="23" vol="55" pan="0" pos="468" len="12"/>
          <note key="23" vol="61" pan="0" pos="480" len="12"/>
          <note key="23" vol="87" pan="0" pos="492" len="12"/>
          <note key="23" vol="48" pan="0" pos="504" len="12"/>
          <note key="23" vol="87" pan="0" pos="516" len="12"/>
          <note key="24" vol="100" pan="0" pos="528" len="24"/>
          <note key="23" vol="87" pan="0" pos="552" len="12"/>
          <note key="23" vol="87" pan="0" pos="564" len="6"/>
          <note key="23" vol="87" pan="0" pos="570" len="6"/>
          <note key="23" vol="100" pan="0" pos="576" len="12"/>
          <note key="23" vol="61" pan="0" pos="588" len="12"/>
          <note key="23" vol="61" pan="0" pos="600" len="12"/>
          <note key="23" vol="100" pan="0" pos="612" len="12"/>
          <note key="23" vol="61" pan="0" pos="624" len="12"/>
          <note key="23" vol="61" pan="0" pos="636" len="12"/>
          <note key="23" vol="93" pan="0" pos="648" len="12"/>
          <note key="23" vol="55" pan="0" pos="660" len="12"/>
          <note key="23" vol="61" pan="0" pos="672" len="12"/>
          <note key="23" vol="87" pan="0" pos="684" len="12"/>
          <note key="23" vol="48" pan="0" pos="696" len="12"/>
          <note key="23" vol="87" pan="0" pos="708" len="12"/>
          <note key="21" vol="87" pan="0" pos="720" len="48"/>
        </pattern>
        <pattern name="" pos="1536" type="1" muted="0" steps="16">
          <note key="23" vol="100" pan="0" pos="0" len="12"/>
          <note key="23" vol="61" pan="0" pos="12" len="12"/>
          <note key="23" vol="61" pan="0" pos="24" len="12"/>
          <note key="23" vol="100" pan="0" pos="36" len="12"/>
          <note key="23" vol="61" pan="0" pos="48" len="12"/>
          <note key="23" vol="61" pan="0" pos="60" len="12"/>
          <note key="23" vol="93" pan="0" pos="72" len="12"/>
          <note key="23" vol="55" pan="0" pos="84" len="12"/>
          <note key="23" vol="61" pan="0" pos="96" len="12"/>
          <note key="23" vol="87" pan="0" pos="108" len="12"/>
          <note key="23" vol="48" pan="0" pos="120" len="12"/>
          <note key="23" vol="87" pan="0" pos="132" len="12"/>
          <note key="24" vol="100" pan="0" pos="144" len="24"/>
          <note key="23" vol="87" pan="0" pos="168" len="12"/>
          <note key="23" vol="87" pan="0" pos="180" len="6"/>
          <note key="23" vol="87" pan="0" pos="186" len="6"/>
          <note key="23" vol="100" pan="0" pos="192" len="12"/>
          <note key="23" vol="61" pan="0" pos="204" len="12"/>
          <note key="23" vol="61" pan="0" pos="216" len="12"/>
          <note key="23" vol="100" pan="0" pos="228" len="12"/>
          <note key="23" vol="61" pan="0" pos="240" len="12"/>
          <note key="23" vol="61" pan="0" pos="252" len="12"/>
          <note key="23" vol="93" pan="0" pos="264" len="12"/>
          <note key="23" vol="55" pan="0" pos="276" len="12"/>
          <note key="23" vol="61" pan="0" pos="288" len="12"/>
          <note key="23" vol="87" pan="0" pos="300" len="12"/>
          <note key="23" vol="48" pan="0" pos="312" len="12"/>
          <note key="23" vol="87" pan="0" pos="324" len="12"/>
          <note key="21" vol="87" pan="0" pos="336" len="12"/>
          <note key="21" vol="36" pan="0" pos="348" len="12"/>
          <note key="23" vol="87" pan="0" pos="360" len="24"/>
          <note key="23" vol="100" pan="0" pos="384" len="12"/>
          <note key="23" vol="61" pan="0" pos="396" len="12"/>
          <note key="23" vol="61" pan="0" pos="408" len="12"/>
          <note key="23" vol="100" pan="0" pos="420" len="12"/>
          <note key="23" vol="61" pan="0" pos="432" len="12"/>
          <note key="23" vol="61" pan="0" pos="444" len="12"/>
          <note key="23" vol="93" pan="0" pos="456" len="12"/>
          <note key="23" vol="55" pan="0" pos="468" len="12"/>
          <note key="23" vol="61" pan="0" pos="480" len="12"/>
          <note key="23" vol="87" pan="0" pos="492" len="12"/>
          <note key="23" vol="48" pan="0" pos="504" len="12"/>
          <note key="23" vol="87" pan="0" pos="516" len="12"/>
          <note key="24" vol="100" pan="0" pos="528" len="24"/>
          <note key="23" vol="87" pan="0" pos="552" len="12"/>
          <note key="23" vol="87" pan="0" pos="564" len="6"/>
          <note key="23" vol="87" pan="0" pos="570" len="6"/>
          <note key="23" vol="100" pan="0" pos="576" len="12"/>
          <note key="23" vol="61" pan="0" pos="588" len="12"/>
          <note key="23" vol="61" pan="0" pos="600" len="12"/>
          <note key="23" vol="100" pan="0" pos="612" len="12"/>
          <note key="23" vol="61" pan="0" pos="624" len="12"/>
          <note key="23" vol="61" pan="0" pos="636" len="12"/>
          <note key="23" vol="93" pan="0" pos="648" len="12"/>
          <note key="23" vol="55" pan="0" pos="660" len="12"/>
          <note key="23" vol="61" pan="0" pos="672" len="12"/>
          <note key="23" vol="87" pan="0" pos="684" len="12"/>
          <note key="23" vol="48" pan="0" pos="696" len="12"/>
          <note key="23" vol="87" pan="0" pos="708" len="12"/>
          <note key="21" vol="87" pan="0" pos="720" len="12"/>
          <note key="21" vol="36" pan="0" pos="732" len="12"/>
          <note key="23" vol="87" pan="0" pos="744" len="24"/>
        </pattern>
      </track>
      <track name="Overdrive Guitar" type="0" muted="0" solo="0">
        <instrumenttrack vol="57.600002" pan="45.600002" pitch="0" usemasterpitch="1" fxch="4" basenote="45" pitchrange="1">
          <instrument name="zynaddsubfx">
            <zynaddsubfx forwardmidicc="1" fmgain="127" bandwidth="64" modifiedcontrollers="" rescenterfreq="64" resbandwidth="64" filterfreq="64" filterq="64" portamento="0">
              <ZynAddSubFX-data version-revision="1" ZynAddSubFX-author="Nasca Octavian Paul" version-minor="4" version-major="2">
                <INFORMATION>
                  <par_bool name="PADsynth_used" value="yes"/>
                </INFORMATION>
                <BASE_PARAMETERS>
                  <par name="max_midi_parts" value="16"/>
                  <par name="max_kit_items_per_instrument" value="16"/>
                  <par name="max_system_effects" value="4"/>
                  <par name="max_insertion_effects" value="8"/>
                  <par name="max_instrument_effects" value="3"/>
                  <par name="max_addsynth_voices" value="8"/>
                </BASE_PARAMETERS>
                <MASTER>
                  <par name="volume" value="80"/>
                  <par name="key_shift" value="64"/>
                  <par_bool name="nrpn_receive" value="yes"/>
                  <MICROTONAL>
                    <string name="name">12tET</string>
                    <string name="comment">Equal Temperament 12 notes per octave</string>
                    <par_bool name="invert_up_down" value="no"/>
                    <par name="invert_up_down_center" value="60"/>
                    <par_bool name="enabled" value="no"/>
                    <par name="global_fine_detune" value="64"/>
                    <par name="a_note" value="69"/>
                    <par_real name="a_freq" value="440.000000"/>
                  </MICROTONAL>
                  <PART id="0">
                    <par_bool name="enabled" value="yes"/>
                    <par name="volume" value="96"/>
                    <par name="panning" value="64"/>
                    <par name="min_key" value="0"/>
                    <par name="max_key" value="127"/>
                    <par name="key_shift" value="64"/>
                    <par name="rcv_chn" value="0"/>
                    <par name="velocity_sensing" value="64"/>
                    <par name="velocity_offset" value="64"/>
                    <par_bool name="note_on" value="yes"/>
                    <par_bool name="poly_mode" value="yes"/>
                    <par name="legato_mode" value="0"/>
                    <par name="key_limit" value="15"/>
                    <INSTRUMENT>
                      <INFO>
                        <string name="name"/>
                        <string name="author"/>
                        <string name="comments"/>
                        <par name="type" value="0"/>
                      </INFO>
                      <INSTRUMENT_KIT>
                        <par name="kit_mode" value="0"/>
                        <par_bool name="drum_mode" value="no"/>
                        <INSTRUMENT_KIT_ITEM id="0">
                          <par_bool name="enabled" value="yes"/>
                          <string name="name"/>
                          <par_bool name="muted" value="no"/>
                          <par name="min_key" value="0"/>
                          <par name="max_key" value="127"/>
                          <par name="send_to_instrument_effect" value="0"/>
                          <par_bool name="add_enabled" value="no"/>
                          <par_bool name="sub_enabled" value="no"/>
                          <par_bool name="pad_enabled" value="yes"/>
                          <PAD_SYNTH_PARAMETERS>
                            <par_bool name="stereo" value="yes"/>
                            <par name="mode" value="0"/>
                            <par name="bandwidth" value="500"/>
                            <par name="bandwidth_scale" value="0"/>
                            <HARMONIC_PROFILE>
                              <par name="base_type" value="2"/>
                              <par name="base_par1" value="80"/>
                              <par name="frequency_multiplier" value="0"/>
                              <par name="modulator_par1" value="0"/>
                              <par name="modulator_frequency" value="30"/>
                              <par name="width" value="127"/>
                              <par name="amplitude_multiplier_type" value="0"/>
                              <par name="amplitude_multiplier_mode" value="0"/>
                              <par name="amplitude_multiplier_par1" value="80"/>
                              <par name="amplitude_multiplier_par2" value="64"/>
                              <par_bool name="autoscale" value="yes"/>
                              <par name="one_half" value="0"/>
                            </HARMONIC_PROFILE>
                            <OSCIL>
                              <par name="harmonic_mag_type" value="0"/>
                              <par name="base_function" value="4"/>
                              <par name="base_function_par" value="64"/>
                              <par name="base_function_modulation" value="0"/>
                              <par name="base_function_modulation_par1" value="64"/>
                              <par name="base_function_modulation_par2" value="64"/>
                              <par name="base_function_modulation_par3" value="32"/>
                              <par name="modulation" value="0"/>
                              <par name="modulation_par1" value="64"/>
                              <par name="modulation_par2" value="64"/>
                              <par name="modulation_par3" value="32"/>
                              <par name="wave_shaping" value="64"/>
                              <par name="wave_shaping_function" value="0"/>
                              <par name="filter_type" value="0"/>
                              <par name="filter_par1" value="64"/>
                              <par name="filter_par2" value="64"/>
                              <par name="filter_before_wave_shaping" value="0"/>
                              <par name="spectrum_adjust_type" value="0"/>
                              <par name="spectrum_adjust_par" value="64"/>
                              <par name="rand" value="127"/>
                              <par name="amp_rand_type" value="0"/>
                              <par name="amp_rand_power" value="64"/>
                              <par name="harmonic_shift" value="0"/>
                              <par_bool name="harmonic_shift_first" value="no"/>
                              <par name="adaptive_harmonics" value="0"/>
                              <par name="adaptive_harmonics_base_frequency" value="128"/>
                              <par name="adaptive_harmonics_power" value="100"/>
                              <HARMONICS>
                                <HARMONIC id="1">
                                  <par name="mag" value="127"/>
                                  <par name="phase" value="64"/>
                                </HARMONIC>
                              </HARMONICS>
                            </OSCIL>
                            <RESONANCE>
                              <par_bool name="enabled" value="no"/>
                            </RESONANCE>
                            <HARMONIC_POSITION>
                              <par name="type" value="0"/>
                              <par name="parameter1" value="64"/>
                              <par name="parameter2" value="64"/>
                              <par name="parameter3" value="0"/>
                            </HARMONIC_POSITION>
                            <SAMPLE_QUALITY>
                              <par name="samplesize" value="3"/>
                              <par name="basenote" value="4"/>
                              <par name="octaves" value="3"/>
                              <par name="samples_per_octave" value="2"/>
                            </SAMPLE_QUALITY>
                            <AMPLITUDE_PARAMETERS>
                              <par name="volume" value="90"/>
                              <par name="panning" value="64"/>
                              <par name="velocity_sensing" value="64"/>
                              <par name="punch_strength" value="0"/>
                              <par name="punch_time" value="60"/>
                              <par name="punch_stretch" value="64"/>
                              <par name="punch_velocity_sensing" value="72"/>
                              <AMPLITUDE_ENVELOPE>
                                <par_bool name="free_mode" value="no"/>
                                <par name="env_points" value="4"/>
                                <par name="env_sustain" value="2"/>
                                <par name="env_stretch" value="64"/>
                                <par_bool name="forced_release" value="yes"/>
                                <par_bool name="linear_envelope" value="no"/>
                                <par name="A_dt" value="0"/>
                                <par name="D_dt" value="40"/>
                                <par name="R_dt" value="31"/>
                                <par name="A_val" value="64"/>
                                <par name="D_val" value="64"/>
                                <par name="S_val" value="95"/>
                                <par name="R_val" value="64"/>
                              </AMPLITUDE_ENVELOPE>
                              <AMPLITUDE_LFO>
                                <par_real name="freq" value="0.629921"/>
                                <par name="intensity" value="0"/>
                                <par name="start_phase" value="64"/>
                                <par name="lfo_type" value="0"/>
                                <par name="randomness_amplitude" value="0"/>
                                <par name="randomness_frequency" value="0"/>
                                <par name="delay" value="0"/>
                                <par name="stretch" value="64"/>
                                <par_bool name="continous" value="no"/>
                              </AMPLITUDE_LFO>
                            </AMPLITUDE_PARAMETERS>
                            <FREQUENCY_PARAMETERS>
                              <par name="fixed_freq" value="0"/>
                              <par name="fixed_freq_et" value="0"/>
                              <par name="detune" value="8192"/>
                              <par name="coarse_detune" value="0"/>
                              <par name="detune_type" value="1"/>
                              <FREQUENCY_ENVELOPE>
                                <par_bool name="free_mode" value="no"/>
                                <par name="env_points" value="3"/>
                                <par name="env_sustain" value="1"/>
                                <par name="env_stretch" value="0"/>
                                <par_bool name="forced_release" value="no"/>
                                <par_bool name="linear_envelope" value="no"/>
                                <par name="A_dt" value="50"/>
                                <par name="D_dt" value="10"/>
                                <par name="R_dt" value="60"/>
                                <par name="A_val" value="64"/>
                                <par name="D_val" value="64"/>
                                <par name="S_val" value="64"/>
                                <par name="R_val" value="64"/>
                              </FREQUENCY_ENVELOPE>
                              <FREQUENCY_LFO>
                                <par_real name="freq" value="0.551181"/>
                                <par name="intensity" value="0"/>
                                <par name="start_phase" value="64"/>
                                <par name="lfo_type" value="0"/>
                                <par name="randomness_amplitude" value="0"/>
                                <par name="randomness_frequency" value="0"/>
                                <par name="delay" value="0"/>
                                <par name="stretch" value="64"/>
                                <par_bool name="continous" value="no"/>
                              </FREQUENCY_LFO>
                            </FREQUENCY_PARAMETERS>
                            <FILTER_PARAMETERS>
                              <par name="velocity_sensing_amplitude" value="64"/>
                              <par name="velocity_sensing" value="64"/>
                              <FILTER>
                                <par name="category" value="0"/>
                                <par name="type" value="2"/>
                                <par name="freq" value="94"/>
                                <par name="q" value="40"/>
                                <par name="stages" value="0"/>
                                <par name="freq_track" value="64"/>
                                <par name="gain" value="64"/>
                              </FILTER>
                              <FILTER_ENVELOPE>
                                <par_bool name="free_mode" value="no"/>
                                <par name="env_points" value="4"/>
                                <par name="env_sustain" value="2"/>
                                <par name="env_stretch" value="0"/>
                                <par_bool name="forced_release" value="yes"/>
                                <par_bool name="linear_envelope" value="no"/>
                                <par name="A_dt" value="40"/>
                                <par name="D_dt" value="70"/>
                                <par name="R_dt" value="60"/>
                                <par name="A_val" value="64"/>
                                <par name="D_val" value="64"/>
                                <par name="S_val" value="64"/>
                                <par name="R_val" value="64"/>
                              </FILTER_ENVELOPE>
                              <FILTER_LFO>
                                <par_real name="freq" value="0.629921"/>
                                <par name="intensity" value="0"/>
                                <par name="start_phase" value="64"/>
                                <par name="lfo_type" value="0"/>
                                <par name="randomness_amplitude" value="0"/>
                                <par name="randomness_frequency" value="0"/>
                                <par name="delay" value="0"/>
                                <par name="stretch" value="64"/>
                                <par_bool name="continous" value="no"/>
                              </FILTER_LFO>
                            </FILTER_PARAMETERS>
                          </PAD_SYNTH_PARAMETERS>
                        </INSTRUMENT_KIT_ITEM>
                        <INSTRUMENT_KIT_ITEM id="1">
                          <par_bool name="enabled" value="no"/>
                        </INSTRUMENT_KIT_ITEM>
                        <INSTRUMENT_KIT_ITEM id="2">
                          <par_bool name="enabled" value="no"/>
                        </INSTRUMENT_KIT_ITEM>
                        <INSTRUMENT_KIT_ITEM id="3">
                          <par_bool name="enabled" value="no"/>
                        </INSTRUMENT_KIT_ITEM>
                        <INSTRUMENT_KIT_ITEM id="4">
                          <par_bool name="enabled" value="no"/>
                        </INSTRUMENT_KIT_ITEM>
                        <INSTRUMENT_KIT_ITEM id="5">
                          <par_bool name="enabled" value="no"/>
                        </INSTRUMENT_KIT_ITEM>
                        <INSTRUMENT_KIT_ITEM id="6">
                          <par_bool name="enabled" value="no"/>
                        </INSTRUMENT_KIT_ITEM>
                        <INSTRUMENT_KIT_ITEM id="7">
                          <par_bool name="enabled" value="no"/>
                        </INSTRUMENT_KIT_ITEM>
                        <INSTRUMENT_KIT_ITEM id="8">
                          <par_bool name="enabled" value="no"/>
                        </INSTRUMENT_KIT_ITEM>
                        <INSTRUMENT_KIT_ITEM id="9">
                          <par_bool name="enabled" value="no"/>
                        </INSTRUMENT_KIT_ITEM>
                        <INSTRUMENT_KIT_ITEM id="10">
                          <par_bool name="enabled" value="no"/>
                        </INSTRUMENT_KIT_ITEM>
                        <INSTRUMENT_KIT_ITEM id="11">
                          <par_bool name="enabled" value="no"/>
                        </INSTRUMENT_KIT_ITEM>
                        <INSTRUMENT_KIT_ITEM id="12">
                          <par_bool name="enabled" value="no"/>
                        </INSTRUMENT_KIT_ITEM>
                        <INSTRUMENT_KIT_ITEM id="13">
                          <par_bool name="enabled" value="no"/>
                        </INSTRUMENT_KIT_ITEM>
                        <INSTRUMENT_KIT_ITEM id="14">
                          <par_bool name="enabled" value="no"/>
                        </INSTRUMENT_KIT_ITEM>
                        <INSTRUMENT_KIT_ITEM id="15">
                          <par_bool name="enabled" value="no"/>
                        </INSTRUMENT_KIT_ITEM>
                      </INSTRUMENT_KIT>
                      <INSTRUMENT_EFFECTS>
                        <INSTRUMENT_EFFECT id="0">
                          <EFFECT>
                            <par name="type" value="6"/>
                            <par name="preset" value="0"/>
                            <EFFECT_PARAMETERS>
                              <par_no id="0">
                                <par name="par" value="127"/>
                              </par_no>
                              <par_no id="1">
                                <par name="par" value="63"/>
                              </par_no>
                              <par_no id="2">
                                <par name="par" value="42"/>
                              </par_no>
                              <par_no id="3">
                                <par name="par" value="110"/>
                              </par_no>
                              <par_no id="4">
                                <par name="par" value="49"/>
                              </par_no>
                              <par_no id="5">
                                <par name="par" value="5"/>
                              </par_no>
                              <par_no id="7">
                                <par name="par" value="109"/>
                              </par_no>
                            </EFFECT_PARAMETERS>
                          </EFFECT>
                          <par name="route" value="0"/>
                          <par_bool name="bypass" value="no"/>
                        </INSTRUMENT_EFFECT>
                        <INSTRUMENT_EFFECT id="1">
                          <EFFECT>
                            <par name="type" value="7"/>
                            <par name="preset" value="0"/>
                            <EFFECT_PARAMETERS>
                              <par_no id="0">
                                <par name="par" value="67"/>
                              </par_no>
                              <par_no id="10">
                                <par name="par" value="5"/>
                              </par_no>
                              <par_no id="11">
                                <par name="par" value="48"/>
                              </par_no>
                              <par_no id="12">
                                <par name="par" value="64"/>
                              </par_no>
                              <par_no id="13">
                                <par name="par" value="60"/>
                              </par_no>
                              <par_no id="15">
                                <par name="par" value="7"/>
                              </par_no>
                              <par_no id="16">
                                <par name="par" value="126"/>
                              </par_no>
                              <par_no id="17">
                                <par name="par" value="117"/>
                              </par_no>
                              <par_no id="18">
                                <par name="par" value="13"/>
                              </par_no>
                              <par_no id="21">
                                <par name="par" value="64"/>
                              </par_no>
                              <par_no id="22">
                                <par name="par" value="64"/>
                              </par_no>
                              <par_no id="23">
                                <par name="par" value="64"/>
                              </par_no>
                              <par_no id="26">
                                <par name="par" value="64"/>
                              </par_no>
                              <par_no id="27">
                                <par name="par" value="64"/>
                              </par_no>
                              <par_no id="28">
                                <par name="par" value="64"/>
                              </par_no>
                              <par_no id="31">
                                <par name="par" value="64"/>
                              </par_no>
                              <par_no id="32">
                                <par name="par" value="64"/>
                              </par_no>
                              <par_no id="33">
                                <par name="par" value="64"/>
                              </par_no>
                              <par_no id="36">
                                <par name="par" value="64"/>
                              </par_no>
                              <par_no id="37">
                                <par name="par" value="64"/>
                              </par_no>
                              <par_no id="38">
                                <par name="par" value="64"/>
                              </par_no>
                              <par_no id="41">
                                <par name="par" value="64"/>
                              </par_no>
                              <par_no id="42">
                                <par name="par" value="64"/>
                              </par_no>
                              <par_no id="43">
                                <par name="par" value="64"/>
                              </par_no>
                              <par_no id="46">
                                <par name="par" value="64"/>
                              </par_no>
                              <par_no id="47">
                                <par name="par" value="64"/>
                              </par_no>
                              <par_no id="48">
                                <par name="par" value="64"/>
                              </par_no>
                            </EFFECT_PARAMETERS>
                          </EFFECT>
                          <par name="route" value="0"/>
                          <par_bool name="bypass" value="no"/>
                        </INSTRUMENT_EFFECT>
                        <INSTRUMENT_EFFECT id="2">
                          <EFFECT>
                            <par name="type" value="0"/>
                          </EFFECT>
                          <par name="route" value="0"/>
                          <par_bool name="bypass" value="no"/>
                        </INSTRUMENT_EFFECT>
                      </INSTRUMENT_EFFECTS>
                    </INSTRUMENT>
                    <CONTROLLER>
                      <par name="pitchwheel_bendrange" value="100"/>
                      <par_bool name="expression_receive" value="yes"/>
                      <par name="panning_depth" value="64"/>
                      <par name="filter_cutoff_depth" value="64"/>
                      <par name="filter_q_depth" value="64"/>
                      <par name="bandwidth_depth" value="64"/>
                      <par name="mod_wheel_depth" value="80"/>
                      <par_bool name="mod_wheel_exponential" value="no"/>
                      <par_bool name="fm_amp_receive" value="yes"/>
                      <par_bool name="volume_receive" value="yes"/>
                      <par_bool name="sustain_receive" value="yes"/>
                      <par_bool name="portamento_receive" value="yes"/>
                      <par name="portamento_time" value="64"/>
                      <par name="portamento_pitchthresh" value="3"/>
                      <par name="portamento_pitchthreshtype" value="1"/>
                      <par name="portamento_portamento" value="0"/>
                      <par name="portamento_updowntimestretch" value="64"/>
                      <par name="portamento_proportional" value="0"/>
                      <par name="portamento_proprate" value="80"/>
                      <par name="portamento_propdepth" value="90"/>
                      <par name="resonance_center_depth" value="64"/>
                      <par name="resonance_bandwidth_depth" value="64"/>
                    </CONTROLLER>
                  </PART>
                  <PART id="1">
                    <par_bool name="enabled" value="no"/>
                  </PART>
                  <PART id="2">
                    <par_bool name="enabled" value="no"/>
                  </PART>
                  <PART id="3">
                    <par_bool name="enabled" value="no"/>
                  </PART>
                  <PART id="4">
                    <par_bool name="enabled" value="no"/>
                  </PART>
                  <PART id="5">
                    <par_bool name="enabled" value="no"/>
                  </PART>
                  <PART id="6">
                    <par_bool name="enabled" value="no"/>
                  </PART>
                  <PART id="7">
                    <par_bool name="enabled" value="no"/>
                  </PART>
                  <PART id="8">
                    <par_bool name="enabled" value="no"/>
                  </PART>
                  <PART id="9">
                    <par_bool name="enabled" value="no"/>
                  </PART>
                  <PART id="10">
                    <par_bool name="enabled" value="no"/>
                  </PART>
                  <PART id="11">
                    <par_bool name="enabled" value="no"/>
                  </PART>
                  <PART id="12">
                    <par_bool name="enabled" value="no"/>
                  </PART>
                  <PART id="13">
                    <par_bool name="enabled" value="no"/>
                  </PART>
                  <PART id="14">
                    <par_bool name="enabled" value="no"/>
                  </PART>
                  <PART id="15">
                    <par_bool name="enabled" value="no"/>
                  </PART>
                  <SYSTEM_EFFECTS>
                    <SYSTEM_EFFECT id="0">
                      <EFFECT>
                        <par name="type" value="0"/>
                      </EFFECT>
                      <VOLUME id="0">
                        <par name="vol" value="0"/>
                      </VOLUME>
                      <VOLUME id="1">
                        <par name="vol" value="0"/>
                      </VOLUME>
                      <VOLUME id="2">
                        <par name="vol" value="0"/>
                      </VOLUME>
                      <VOLUME id="3">
                        <par name="vol" value="0"/>
                      </VOLUME>
                      <VOLUME id="4">
                        <par name="vol" value="0"/>
                      </VOLUME>
                      <VOLUME id="5">
                        <par name="vol" value="0"/>
                      </VOLUME>
                      <VOLUME id="6">
                        <par name="vol" value="0"/>
                      </VOLUME>
                      <VOLUME id="7">
                        <par name="vol" value="0"/>
                      </VOLUME>
                      <VOLUME id="8">
                        <par name="vol" value="0"/>
                      </VOLUME>
                      <VOLUME id="9">
                        <par name="vol" value="0"/>
                      </VOLUME>
                      <VOLUME id="10">
                        <par name="vol" value="0"/>
                      </VOLUME>
                      <VOLUME id="11">
                        <par name="vol" value="0"/>
                      </VOLUME>
                      <VOLUME id="12">
                        <par name="vol" value="0"/>
                      </VOLUME>
                      <VOLUME id="13">
                        <par name="vol" value="0"/>
                      </VOLUME>
                      <VOLUME id="14">
                        <par name="vol" value="0"/>
                      </VOLUME>
                      <VOLUME id="15">
                        <par name="vol" value="0"/>
                      </VOLUME>
                      <SENDTO id="1">
                        <par name="send_vol" value="0"/>
                      </SENDTO>
                      <SENDTO id="2">
                        <par name="send_vol" value="0"/>
                      </SENDTO>
                      <SENDTO id="3">
                        <par name="send_vol" value="0"/>
                      </SENDTO>
                    </SYSTEM_EFFECT>
                    <SYSTEM_EFFECT id="1">
                      <EFFECT>
                        <par name="type" value="0"/>
                      </EFFECT>
                      <VOLUME id="0">
                        <par name="vol" value="0"/>
                      </VOLUME>
                      <VOLUME id="1">
                        <par name="vol" value="0"/>
                      </VOLUME>
                      <VOLUME id="2">
                        <par name="vol" value="0"/>
                      </VOLUME>
                      <VOLUME id="3">
                        <par name="vol" value="0"/>
                      </VOLUME>
                      <VOLUME id="4">
                        <par name="vol" value="0"/>
                      </VOLUME>
                      <VOLUME id="5">
                        <par name="vol" value="0"/>
                      </VOLUME>
                      <VOLUME id="6">
                        <par name="vol" value="0"/>
                      </VOLUME>
                      <VOLUME id="7">
                        <par name="vol" value="0"/>
                      </VOLUME>
                      <VOLUME id="8">
                        <par name="vol" value="0"/>
                      </VOLUME>
                      <VOLUME id="9">
                        <par name="vol" value="0"/>
                      </VOLUME>
                      <VOLUME id="10">
                        <par name="vol" value="0"/>
                      </VOLUME>
                      <VOLUME id="11">
                        <par name="vol" value="0"/>
                      </VOLUME>
                      <VOLUME id="12">
                        <par name="vol" value="0"/>
                      </VOLUME>
                      <VOLUME id="13">
                        <par name="vol" value="0"/>
                      </VOLUME>
                      <VOLUME id="14">
                        <par name="vol" value="0"/>
                      </VOLUME>
                      <VOLUME id="15">
                        <par name="vol" value="0"/>
                      </VOLUME>
                      <SENDTO id="2">
                        <par name="send_vol" value="0"/>
                      </SENDTO>
                      <SENDTO id="3">
                        <par name="send_vol" value="0"/>
                      </SENDTO>
                    </SYSTEM_EFFECT>
                    <SYSTEM_EFFECT id="2">
                      <EFFECT>
                        <par name="type" value="0"/>
                      </EFFECT>
                      <VOLUME id="0">
                        <par name="vol" value="0"/>
                      </VOLUME>
                      <VOLUME id="1">
                        <par name="vol" value="0"/>
                      </VOLUME>
                      <VOLUME id="2">
                        <par name="vol" value="0"/>
                      </VOLUME>
                      <VOLUME id="3">
                        <par name="vol" value="0"/>
                      </VOLUME>
                      <VOLUME id="4">
                        <par name="vol" value="0"/>
                      </VOLUME>
                      <VOLUME id="5">
                        <par name="vol" value="0"/>
                      </VOLUME>
                      <VOLUME id="6">
                        <par name="vol" value="0"/>
                      </VOLUME>
                      <VOLUME id="7">
                        <par name="vol" value="0"/>
                      </VOLUME>
                      <VOLUME id="8">
                        <par name="vol" value="0"/>
                      </VOLUME>
                      <VOLUME id="9">
                        <par name="vol" value="0"/>
                      </VOLUME>
                      <VOLUME id="10">
                        <par name="vol" value="0"/>
                      </VOLUME>
                      <VOLUME id="11">
                        <par name="vol" value="0"/>
                      </VOLUME>
                      <VOLUME id="12">
                        <par name="vol" value="0"/>
                      </VOLUME>
                      <VOLUME id="13">
                        <par name="vol" value="0"/>
                      </VOLUME>
                      <VOLUME id="14">
                        <par name="vol" value="0"/>
                      </VOLUME>
                      <VOLUME id="15">
                        <par name="vol" value="0"/>
                      </VOLUME>
                      <SENDTO id="3">
                        <par name="send_vol" value="0"/>
                      </SENDTO>
                    </SYSTEM_EFFECT>
                    <SYSTEM_EFFECT id="3">
                      <EFFECT>
                        <par name="type" value="0"/>
                      </EFFECT>
                      <VOLUME id="0">
                        <par name="vol" value="0"/>
                      </VOLUME>
                      <VOLUME id="1">
                        <par name="vol" value="0"/>
                      </VOLUME>
                      <VOLUME id="2">
                        <par name="vol" value="0"/>
                      </VOLUME>
                      <VOLUME id="3">
                        <par name="vol" value="0"/>
                      </VOLUME>
                      <VOLUME id="4">
                        <par name="vol" value="0"/>
                      </VOLUME>
                      <VOLUME id="5">
                        <par name="vol" value="0"/>
                      </VOLUME>
                      <VOLUME id="6">
                        <par name="vol" value="0"/>
                      </VOLUME>
                      <VOLUME id="7">
                        <par name="vol" value="0"/>
                      </VOLUME>
                      <VOLUME id="8">
                        <par name="vol" value="0"/>
                      </VOLUME>
                      <VOLUME id="9">
                        <par name="vol" value="0"/>
                      </VOLUME>
                      <VOLUME id="10">
                        <par name="vol" value="0"/>
                      </VOLUME>
                      <VOLUME id="11">
                        <par name="vol" value="0"/>
                      </VOLUME>
                      <VOLUME id="12">
                        <par name="vol" value="0"/>
                      </VOLUME>
                      <VOLUME id="13">
                        <par name="vol" value="0"/>
                      </VOLUME>
                      <VOLUME id="14">
                        <par name="vol" value="0"/>
                      </VOLUME>
                      <VOLUME id="15">
                        <par name="vol" value="0"/>
                      </VOLUME>
                    </SYSTEM_EFFECT>
                  </SYSTEM_EFFECTS>
                  <INSERTION_EFFECTS>
                    <INSERTION_EFFECT id="0">
                      <par name="part" value="-1"/>
                      <EFFECT>
                        <par name="type" value="0"/>
                      </EFFECT>
                    </INSERTION_EFFECT>
                    <INSERTION_EFFECT id="1">
                      <par name="part" value="-1"/>
                      <EFFECT>
                        <par name="type" value="0"/>
                      </EFFECT>
                    </INSERTION_EFFECT>
                    <INSERTION_EFFECT id="2">
                      <par name="part" value="-1"/>
                      <EFFECT>
                        <par name="type" value="0"/>
                      </EFFECT>
                    </INSERTION_EFFECT>
                    <INSERTION_EFFECT id="3">
                      <par name="part" value="-1"/>
                      <EFFECT>
                        <par name="type" value="0"/>
                      </EFFECT>
                    </INSERTION_EFFECT>
                    <INSERTION_EFFECT id="4">
                      <par name="part" value="-1"/>
                      <EFFECT>
                        <par name="type" value="0"/>
                      </EFFECT>
                    </INSERTION_EFFECT>
                    <INSERTION_EFFECT id="5">
                      <par name="part" value="-1"/>
                      <EFFECT>
                        <par name="type" value="0"/>
                      </EFFECT>
                    </INSERTION_EFFECT>
                    <INSERTION_EFFECT id="6">
                      <par name="part" value="-1"/>
                      <EFFECT>
                        <par name="type" value="0"/>
                      </EFFECT>
                    </INSERTION_EFFECT>
                    <INSERTION_EFFECT id="7">
                      <par name="part" value="-1"/>
                      <EFFECT>
                        <par name="type" value="0"/>
                      </EFFECT>
                    </INSERTION_EFFECT>
                  </INSERTION_EFFECTS>
                </MASTER>
              </ZynAddSubFX-data>
            </zynaddsubfx>
          </instrument>
          <eldata ftype="0" fres="0.5" fwet="0" fcut="14000">
            <elvol lamt="0" sustain="0.5" pdel="0" latt="0" dec="0.5" lspd_numerator="4" amt="0" userwavefile="" rel="0.1" lspd_denominator="4" lpdel="0" lspd="0.1" lshp="0" hold="0.5" att="0" ctlenvamt="0" lspd_syncmode="0" x100="0"/>
            <elcut lamt="0" sustain="0.5" pdel="0" latt="0" dec="0.5" lspd_numerator="4" amt="0" userwavefile="" rel="0.1" lspd_denominator="4" lpdel="0" lspd="0.1" lshp="0" hold="0.5" att="0" ctlenvamt="0" lspd_syncmode="0" x100="0"/>
            <elres lamt="0" sustain="0.5" pdel="0" latt="0" dec="0.5" lspd_numerator="4" amt="0" userwavefile="" rel="0.1" lspd_denominator="4" lpdel="0" lspd="0.1" lshp="0" hold="0.5" att="0" ctlenvamt="0" lspd_syncmode="0" x100="0"/>
          </eldata>
          <chordcreator chordrange="1" chord-enabled="0" chord="0"/>
          <arpeggiator arpmiss="0" arptime_numerator="4" arptime_syncmode="0" arpgate="100" arptime="200" arpcycle="0" arptime_denominator="4" arp="0" arpmode="0" arprange="1" arp-enabled="0" arpskip="0" arpdir="0"/>
          <midiport outputchannel="1" fixedoutputnote="-1" writable="0" inputchannel="0" inputcontroller="0" outputcontroller="0" fixedinputvelocity="-1" outputprogram="1" readable="0" basevelocity="63" fixedoutputvelocity="-1"/>
          <fxchain numofeffects="1" enabled="1">
            <effect wet="1" autoquit_numerator="4" name="eq" autoquit_syncmode="0" on="1" autoquit="1" gate="0" autoquit_denominator="4">
              <Eq LP24="1" Peak2gain="6.6600003" HighShelfres="1.4" AnalyseIn="1" LPres="1.307" Peak4active="1" LPactive="1" LP="1" LP12="0" Peak4gain="7.0200005" Peak2bw="0.30000001" HPactive="1" AnalyseOut="1" Lowshelfactive="1" Peak3gain="-4.1400003" LowShelfres="1.4" Peak4bw="0.30000001" LP48="0" HP="1" Peak3bw="0.30000001" Lowshelfgain="0" Peak1bw="0.30000001" HP48="0" Peak2active="1" Peak3active="1" HP12="0" HighShelfgain="3.4200001" HPres="0.70700002" Highshelfactive="1" HP24="1" Peak1active="1" Outputgain="0">
                <Inputgain id="7713697" value="0" scale_type="log"/>
                <Peak1gain id="820956" value="7.5600004" scale_type="log"/>
                <HPfreq id="2854420" value="27.417538" scale_type="log"/>
                <LowShelffreq id="306313" value="67.570442" scale_type="log"/>
                <Peak1freq id="628535" value="112.85338" scale_type="log"/>
                <Peak2freq id="6611383" value="228.00281" scale_type="log"/>
                <Peak3freq id="68418" value="2192.957" scale_type="log"/>
                <Peak4freq id="39352" value="902.388" scale_type="log"/>
                <Highshelffreq id="3723580" value="4424.333" scale_type="log"/>
                <LPfreq id="7217069" value="17688.738" scale_type="log"/>
              </Eq>
              <key/>
            </effect>
          </fxchain>
        </instrumenttrack>
        <pattern name="Overdrive Guitar" pos="0" type="1" muted="0" steps="16">
          <note key="23" vol="100" pan="0" pos="0" len="12"/>
          <note key="23" vol="61" pan="0" pos="12" len="12"/>
          <note key="23" vol="61" pan="0" pos="24" len="12"/>
          <note key="23" vol="100" pan="0" pos="36" len="12"/>
          <note key="23" vol="61" pan="0" pos="48" len="12"/>
          <note key="23" vol="61" pan="0" pos="60" len="12"/>
          <note key="23" vol="93" pan="0" pos="72" len="12"/>
          <note key="23" vol="55" pan="0" pos="84" len="12"/>
          <note key="23" vol="61" pan="0" pos="96" len="12"/>
          <note key="23" vol="87" pan="0" pos="108" len="12"/>
          <note key="23" vol="48" pan="0" pos="120" len="12"/>
          <note key="23" vol="87" pan="0" pos="132" len="12"/>
          <note key="21" vol="87" pan="0" pos="144" len="12"/>
          <note key="21" vol="36" pan="0" pos="156" len="12"/>
          <note key="23" vol="87" pan="0" pos="168" len="12"/>
          <note key="23" vol="87" pan="0" pos="180" len="6"/>
          <note key="23" vol="87" pan="0" pos="186" len="6"/>
          <note key="23" vol="100" pan="0" pos="192" len="12"/>
          <note key="23" vol="61" pan="0" pos="204" len="12"/>
          <note key="23" vol="61" pan="0" pos="216" len="12"/>
          <note key="23" vol="100" pan="0" pos="228" len="12"/>
          <note key="23" vol="61" pan="0" pos="240" len="12"/>
          <note key="23" vol="61" pan="0" pos="252" len="12"/>
          <note key="23" vol="93" pan="0" pos="264" len="12"/>
          <note key="23" vol="55" pan="0" pos="276" len="12"/>
          <note key="23" vol="61" pan="0" pos="288" len="12"/>
          <note key="23" vol="87" pan="0" pos="300" len="12"/>
          <note key="23" vol="48" pan="0" pos="312" len="12"/>
          <note key="23" vol="87" pan="0" pos="324" len="12"/>
          <note key="21" vol="87" pan="0" pos="336" len="12"/>
          <note key="21" vol="36" pan="0" pos="348" len="12"/>
          <note key="23" vol="87" pan="0" pos="360" len="24"/>
          <note key="23" vol="100" pan="0" pos="384" len="12"/>
          <note key="23" vol="61" pan="0" pos="396" len="12"/>
          <note key="23" vol="61" pan="0" pos="408" len="12"/>
          <note key="23" vol="100" pan="0" pos="420" len="12"/>
          <note key="23" vol="61" pan="0" pos="432" len="12"/>
          <note key="23" vol="61" pan="0" pos="444" len="12"/>
          <note key="23" vol="93" pan="0" pos="456" len="12"/>
          <note key="23" vol="55" pan="0" pos="468" len="12"/>
          <note key="23" vol="61" pan="0" pos="480" len="12"/>
          <note key="23" vol="87" pan="0" pos="492" len="12"/>
          <note key="23" vol="48" pan="0" pos="504" len="12"/>
          <note key="23" vol="87" pan="0" pos="516" len="12"/>
          <note key="21" vol="87" pan="0" pos="528" len="12"/>
          <note key="21" vol="36" pan="0" pos="540" len="12"/>
          <note key="23" vol="87" pan="0" pos="552" len="12"/>
          <note key="23" vol="87" pan="0" pos="564" len="6"/>
          <note key="23" vol="87" pan="0" pos="570" len="6"/>
          <note key="23" vol="100" pan="0" pos="576" len="12"/>
          <note key="23" vol="61" pan="0" pos="588" len="12"/>
          <note key="23" vol="61" pan="0" pos="600" len="12"/>
          <note key="23" vol="100" pan="0" pos="612" len="12"/>
          <note key="23" vol="61" pan="0" pos="624" len="12"/>
          <note key="23" vol="61" pan="0" pos="636" len="12"/>
          <note key="23" vol="93" pan="0" pos="648" len="12"/>
          <note key="23" vol="55" pan="0" pos="660" len="12"/>
          <note key="23" vol="61" pan="0" pos="672" len="12"/>
          <note key="23" vol="87" pan="0" pos="684" len="12"/>
          <note key="23" vol="48" pan="0" pos="696" len="12"/>
          <note key="23" vol="87" pan="0" pos="708" len="12"/>
          <note key="21" vol="87" pan="0" pos="720" len="12"/>
          <note key="21" vol="36" pan="0" pos="732" len="12"/>
          <note key="23" vol="87" pan="0" pos="744" len="24"/>
        </pattern>
        <pattern name="Overdrive Guitar" pos="768" type="1" muted="0" steps="16">
          <note key="23" vol="100" pan="0" pos="0" len="12"/>
          <note key="23" vol="61" pan="0" pos="12" len="12"/>
          <note key="23" vol="61" pan="0" pos="24" len="12"/>
          <note key="23" vol="100" pan="0" pos="36" len="12"/>
          <note key="23" vol="61" pan="0" pos="48" len="12"/>
          <note key="23" vol="61" pan="0" pos="60" len="12"/>
          <note key="23" vol="93" pan="0" pos="72" len="12"/>
          <note key="23" vol="55" pan="0" pos="84" len="12"/>
          <note key="23" vol="61" pan="0" pos="96" len="12"/>
          <note key="23" vol="87" pan="0" pos="108" len="12"/>
          <note key="23" vol="48" pan="0" pos="120" len="12"/>
          <note key="23" vol="87" pan="0" pos="132" len="12"/>
          <note key="24" vol="100" pan="0" pos="144" len="24"/>
          <note key="23" vol="87" pan="0" pos="168" len="12"/>
          <note key="23" vol="87" pan="0" pos="180" len="6"/>
          <note key="23" vol="87" pan="0" pos="186" len="6"/>
          <note key="23" vol="100" pan="0" pos="192" len="12"/>
          <note key="23" vol="61" pan="0" pos="204" len="12"/>
          <note key="23" vol="61" pan="0" pos="216" len="12"/>
          <note key="23" vol="100" pan="0" pos="228" len="12"/>
          <note key="23" vol="61" pan="0" pos="240" len="12"/>
          <note key="23" vol="61" pan="0" pos="252" len="12"/>
          <note key="23" vol="93" pan="0" pos="264" len="12"/>
          <note key="23" vol="55" pan="0" pos="276" len="12"/>
          <note key="23" vol="61" pan="0" pos="288" len="12"/>
          <note key="23" vol="87" pan="0" pos="300" len="12"/>
          <note key="23" vol="48" pan="0" pos="312" len="12"/>
          <note key="23" vol="87" pan="0" pos="324" len="12"/>
          <note key="21" vol="87" pan="0" pos="336" len="12"/>
          <note key="21" vol="36" pan="0" pos="348" len="12"/>
          <note key="23" vol="87" pan="0" pos="360" len="24"/>
          <note key="23" vol="100" pan="0" pos="384" len="12"/>
          <note key="23" vol="61" pan="0" pos="396" len="12"/>
          <note key="23" vol="61" pan="0" pos="408" len="12"/>
          <note key="23" vol="100" pan="0" pos="420" len="12"/>
          <note key="23" vol="61" pan="0" pos="432" len="12"/>
          <note key="23" vol="61" pan="0" pos="444" len="12"/>
          <note key="23" vol="93" pan="0" pos="456" len="12"/>
          <note key="23" vol="55" pan="0" pos="468" len="12"/>
          <note key="23" vol="61" pan="0" pos="480" len="12"/>
          <note key="23" vol="87" pan="0" pos="492" len="12"/>
          <note key="23" vol="48" pan="0" pos="504" len="12"/>
          <note key="23" vol="87" pan="0" pos="516" len="12"/>
          <note key="24" vol="100" pan="0" pos="528" len="24"/>
          <note key="23" vol="87" pan="0" pos="552" len="12"/>
          <note key="23" vol="87" pan="0" pos="564" len="6"/>
          <note key="23" vol="87" pan="0" pos="570" len="6"/>
          <note key="23" vol="100" pan="0" pos="576" len="12"/>
          <note key="23" vol="61" pan="0" pos="588" len="12"/>
          <note key="23" vol="61" pan="0" pos="600" len="12"/>
          <note key="23" vol="100" pan="0" pos="612" len="12"/>
          <note key="23" vol="61" pan="0" pos="624" len="12"/>
          <note key="23" vol="61" pan="0" pos="636" len="12"/>
          <note key="23" vol="93" pan="0" pos="648" len="12"/>
          <note key="23" vol="55" pan="0" pos="660" len="12"/>
          <note key="23" vol="61" pan="0" pos="672" len="12"/>
          <note key="23" vol="87" pan="0" pos="684" len="12"/>
          <note key="23" vol="48" pan="0" pos="696" len="12"/>
          <note key="23" vol="87" pan="0" pos="708" len="12"/>
          <note key="21" vol="87" pan="0" pos="720" len="12"/>
          <note key="21" vol="36" pan="0" pos="732" len="12"/>
          <note key="23" vol="87" pan="0" pos="744" len="24"/>
        </pattern>
        <pattern name="Overdrive Guitar" pos="2688" type="1" muted="0" steps="16">
          <note key="23" vol="100" pan="0" pos="0" len="12"/>
          <note key="23" vol="61" pan="0" pos="12" len="12"/>
          <note key="23" vol="61" pan="0" pos="24" len="12"/>
          <note key="23" vol="100" pan="0" pos="36" len="12"/>
          <note key="23" vol="61" pan="0" pos="48" len="12"/>
          <note key="23" vol="61" pan="0" pos="60" len="12"/>
          <note key="23" vol="93" pan="0" pos="72" len="12"/>
          <note key="23" vol="55" pan="0" pos="84" len="12"/>
          <note key="23" vol="61" pan="0" pos="96" len="12"/>
          <note key="23" vol="87" pan="0" pos="108" len="12"/>
          <note key="23" vol="48" pan="0" pos="120" len="12"/>
          <note key="23" vol="87" pan="0" pos="132" len="12"/>
          <note key="24" vol="100" pan="0" pos="144" len="24"/>
          <note key="23" vol="87" pan="0" pos="168" len="12"/>
          <note key="23" vol="87" pan="0" pos="180" len="6"/>
          <note key="23" vol="87" pan="0" pos="186" len="6"/>
          <note key="23" vol="100" pan="0" pos="192" len="12"/>
          <note key="23" vol="61" pan="0" pos="204" len="12"/>
          <note key="23" vol="61" pan="0" pos="216" len="12"/>
          <note key="23" vol="100" pan="0" pos="228" len="12"/>
          <note key="23" vol="61" pan="0" pos="240" len="12"/>
          <note key="23" vol="61" pan="0" pos="252" len="12"/>
          <note key="23" vol="93" pan="0" pos="264" len="12"/>
          <note key="23" vol="55" pan="0" pos="276" len="12"/>
          <note key="23" vol="61" pan="0" pos="288" len="12"/>
          <note key="23" vol="87" pan="0" pos="300" len="12"/>
          <note key="23" vol="48" pan="0" pos="312" len="12"/>
          <note key="23" vol="87" pan="0" pos="324" len="12"/>
          <note key="21" vol="87" pan="0" pos="336" len="24"/>
          <note key="23" vol="87" pan="0" pos="360" len="24"/>
          <note key="23" vol="100" pan="0" pos="384" len="12"/>
          <note key="23" vol="61" pan="0" pos="396" len="12"/>
          <note key="23" vol="61" pan="0" pos="408" len="12"/>
          <note key="23" vol="100" pan="0" pos="420" len="12"/>
          <note key="23" vol="61" pan="0" pos="432" len="12"/>
          <note key="23" vol="61" pan="0" pos="444" len="12"/>
          <note key="23" vol="93" pan="0" pos="456" len="12"/>
          <note key="23" vol="55" pan="0" pos="468" len="12"/>
          <note key="23" vol="61" pan="0" pos="480" len="12"/>
          <note key="23" vol="87" pan="0" pos="492" len="12"/>
          <note key="23" vol="48" pan="0" pos="504" len="12"/>
          <note key="23" vol="87" pan="0" pos="516" len="12"/>
          <note key="24" vol="100" pan="0" pos="528" len="24"/>
          <note key="23" vol="87" pan="0" pos="552" len="12"/>
          <note key="23" vol="87" pan="0" pos="564" len="6"/>
          <note key="23" vol="87" pan="0" pos="570" len="6"/>
          <note key="23" vol="100" pan="0" pos="576" len="12"/>
          <note key="23" vol="61" pan="0" pos="588" len="12"/>
          <note key="23" vol="61" pan="0" pos="600" len="12"/>
          <note key="23" vol="100" pan="0" pos="612" len="12"/>
          <note key="23" vol="61" pan="0" pos="624" len="12"/>
          <note key="23" vol="61" pan="0" pos="636" len="12"/>
          <note key="23" vol="93" pan="0" pos="648" len="12"/>
          <note key="23" vol="55" pan="0" pos="660" len="12"/>
          <note key="23" vol="61" pan="0" pos="672" len="12"/>
          <note key="23" vol="87" pan="0" pos="684" len="12"/>
          <note key="23" vol="48" pan="0" pos="696" len="12"/>
          <note key="23" vol="87" pan="0" pos="708" len="12"/>
          <note key="21" vol="87" pan="0" pos="720" len="24"/>
          <note key="23" vol="87" pan="0" pos="744" len="24"/>
        </pattern>
        <pattern name="Overdrive Guitar" pos="3456" type="1" muted="0" steps="16">
          <note key="23" vol="100" pan="0" pos="0" len="12"/>
          <note key="23" vol="61" pan="0" pos="12" len="12"/>
          <note key="23" vol="61" pan="0" pos="24" len="12"/>
          <note key="23" vol="100" pan="0" pos="36" len="12"/>
          <note key="23" vol="61" pan="0" pos="48" len="12"/>
          <note key="23" vol="61" pan="0" pos="60" len="12"/>
          <note key="23" vol="93" pan="0" pos="72" len="12"/>
          <note key="23" vol="55" pan="0" pos="84" len="12"/>
          <note key="23" vol="61" pan="0" pos="96" len="12"/>
          <note key="23" vol="87" pan="0" pos="108" len="12"/>
          <note key="23" vol="48" pan="0" pos="120" len="12"/>
          <note key="23" vol="87" pan="0" pos="132" len="12"/>
          <note key="24" vol="100" pan="0" pos="144" len="24"/>
          <note key="23" vol="87" pan="0" pos="168" len="12"/>
          <note key="23" vol="87" pan="0" pos="180" len="6"/>
          <note key="23" vol="87" pan="0" pos="186" len="6"/>
          <note key="23" vol="100" pan="0" pos="192" len="12"/>
          <note key="23" vol="61" pan="0" pos="204" len="12"/>
          <note key="23" vol="61" pan="0" pos="216" len="12"/>
          <note key="23" vol="100" pan="0" pos="228" len="12"/>
          <note key="23" vol="61" pan="0" pos="240" len="12"/>
          <note key="23" vol="61" pan="0" pos="252" len="12"/>
          <note key="23" vol="93" pan="0" pos="264" len="12"/>
          <note key="23" vol="55" pan="0" pos="276" len="12"/>
          <note key="23" vol="61" pan="0" pos="288" len="12"/>
          <note key="23" vol="87" pan="0" pos="300" len="12"/>
          <note key="23" vol="48" pan="0" pos="312" len="12"/>
          <note key="23" vol="87" pan="0" pos="324" len="12"/>
          <note key="21" vol="87" pan="0" pos="336" len="24"/>
          <note key="23" vol="87" pan="0" pos="360" len="24"/>
          <note key="23" vol="100" pan="0" pos="384" len="12"/>
          <note key="23" vol="61" pan="0" pos="396" len="12"/>
          <note key="23" vol="61" pan="0" pos="408" len="12"/>
          <note key="23" vol="100" pan="0" pos="420" len="12"/>
          <note key="23" vol="61" pan="0" pos="432" len="12"/>
          <note key="23" vol="61" pan="0" pos="444" len="12"/>
          <note key="23" vol="93" pan="0" pos="456" len="12"/>
          <note key="23" vol="55" pan="0" pos="468" len="12"/>
          <note key="23" vol="61" pan="0" pos="480" len="12"/>
          <note key="23" vol="87" pan="0" pos="492" len="12"/>
          <note key="23" vol="48" pan="0" pos="504" len="12"/>
          <note key="23" vol="87" pan="0" pos="516" len="12"/>
          <note key="24" vol="100" pan="0" pos="528" len="24"/>
          <note key="23" vol="87" pan="0" pos="552" len="12"/>
          <note key="23" vol="87" pan="0" pos="564" len="6"/>
          <note key="23" vol="87" pan="0" pos="570" len="6"/>
          <note key="23" vol="100" pan="0" pos="576" len="12"/>
          <note key="23" vol="61" pan="0" pos="588" len="12"/>
          <note key="23" vol="61" pan="0" pos="600" len="12"/>
          <note key="23" vol="100" pan="0" pos="612" len="12"/>
          <note key="23" vol="61" pan="0" pos="624" len="12"/>
          <note key="23" vol="61" pan="0" pos="636" len="12"/>
          <note key="23" vol="93" pan="0" pos="648" len="12"/>
          <note key="23" vol="55" pan="0" pos="660" len="12"/>
          <note key="23" vol="61" pan="0" pos="672" len="12"/>
          <note key="23" vol="87" pan="0" pos="684" len="12"/>
          <note key="23" vol="48" pan="0" pos="696" len="12"/>
          <note key="23" vol="87" pan="0" pos="708" len="12"/>
          <note key="21" vol="87" pan="0" pos="720" len="24"/>
          <note key="23" vol="87" pan="0" pos="744" len="24"/>
        </pattern>
        <pattern name="Overdrive Guitar" pos="4224" type="1" muted="0" steps="16">
          <note key="21" vol="100" pan="0" pos="0" len="24"/>
          <note key="20" vol="100" pan="0" pos="24" len="24"/>
          <note key="20" vol="100" pan="0" pos="96" len="24"/>
          <note key="19" vol="100" pan="0" pos="144" len="240"/>
          <note key="21" vol="100" pan="0" pos="384" len="24"/>
          <note key="20" vol="100" pan="0" pos="408" len="24"/>
          <note key="20" vol="100" pan="0" pos="480" len="24"/>
          <note key="19" vol="100" pan="0" pos="528" len="240"/>
        </pattern>
        <pattern name="Overdrive Guitar" pos="4992" type="1" muted="0" steps="16">
          <note key="23" vol="100" pan="0" pos="0" len="12"/>
          <note key="23" vol="61" pan="0" pos="12" len="12"/>
          <note key="23" vol="61" pan="0" pos="24" len="12"/>
          <note key="23" vol="100" pan="0" pos="36" len="12"/>
          <note key="23" vol="61" pan="0" pos="48" len="12"/>
          <note key="23" vol="61" pan="0" pos="60" len="12"/>
          <note key="23" vol="93" pan="0" pos="72" len="12"/>
          <note key="23" vol="55" pan="0" pos="84" len="12"/>
          <note key="23" vol="61" pan="0" pos="96" len="12"/>
          <note key="23" vol="87" pan="0" pos="108" len="12"/>
          <note key="23" vol="48" pan="0" pos="120" len="12"/>
          <note key="23" vol="87" pan="0" pos="132" len="12"/>
          <note key="24" vol="100" pan="0" pos="144" len="24"/>
          <note key="23" vol="87" pan="0" pos="168" len="12"/>
          <note key="23" vol="87" pan="0" pos="180" len="6"/>
          <note key="23" vol="87" pan="0" pos="186" len="6"/>
          <note key="23" vol="100" pan="0" pos="192" len="12"/>
          <note key="23" vol="61" pan="0" pos="204" len="12"/>
          <note key="23" vol="61" pan="0" pos="216" len="12"/>
          <note key="23" vol="100" pan="0" pos="228" len="12"/>
          <note key="23" vol="61" pan="0" pos="240" len="12"/>
          <note key="23" vol="61" pan="0" pos="252" len="12"/>
          <note key="23" vol="93" pan="0" pos="264" len="12"/>
          <note key="23" vol="55" pan="0" pos="276" len="12"/>
          <note key="23" vol="61" pan="0" pos="288" len="12"/>
          <note key="23" vol="87" pan="0" pos="300" len="12"/>
          <note key="23" vol="48" pan="0" pos="312" len="12"/>
          <note key="23" vol="87" pan="0" pos="324" len="12"/>
          <note key="21" vol="87" pan="0" pos="336" len="24"/>
          <note key="23" vol="87" pan="0" pos="360" len="24"/>
          <note key="23" vol="100" pan="0" pos="384" len="12"/>
          <note key="23" vol="61" pan="0" pos="396" len="12"/>
          <note key="23" vol="61" pan="0" pos="408" len="12"/>
          <note key="23" vol="100" pan="0" pos="420" len="12"/>
          <note key="23" vol="61" pan="0" pos="432" len="12"/>
          <note key="23" vol="61" pan="0" pos="444" len="12"/>
          <note key="23" vol="93" pan="0" pos="456" len="12"/>
          <note key="23" vol="55" pan="0" pos="468" len="12"/>
          <note key="23" vol="61" pan="0" pos="480" len="12"/>
          <note key="23" vol="87" pan="0" pos="492" len="12"/>
          <note key="23" vol="48" pan="0" pos="504" len="12"/>
          <note key="23" vol="87" pan="0" pos="516" len="12"/>
          <note key="24" vol="100" pan="0" pos="528" len="24"/>
          <note key="23" vol="87" pan="0" pos="552" len="12"/>
          <note key="23" vol="87" pan="0" pos="564" len="6"/>
          <note key="23" vol="87" pan="0" pos="570" len="6"/>
          <note key="23" vol="100" pan="0" pos="576" len="12"/>
          <note key="23" vol="61" pan="0" pos="588" len="12"/>
          <note key="23" vol="61" pan="0" pos="600" len="12"/>
          <note key="23" vol="100" pan="0" pos="612" len="12"/>
          <note key="23" vol="61" pan="0" pos="624" len="12"/>
          <note key="23" vol="61" pan="0" pos="636" len="12"/>
          <note key="23" vol="93" pan="0" pos="648" len="12"/>
          <note key="23" vol="55" pan="0" pos="660" len="12"/>
          <note key="23" vol="61" pan="0" pos="672" len="12"/>
          <note key="23" vol="87" pan="0" pos="684" len="12"/>
          <note key="23" vol="48" pan="0" pos="696" len="12"/>
          <note key="23" vol="87" pan="0" pos="708" len="12"/>
          <note key="21" vol="87" pan="0" pos="720" len="48"/>
        </pattern>
        <pattern name="Overdrive Guitar" pos="5760" type="1" muted="0" steps="16">
          <note key="23" vol="100" pan="0" pos="0" len="768"/>
        </pattern>
        <pattern name="Overdrive Guitar" pos="6528" type="1" muted="0" steps="16">
          <note key="23" vol="100" pan="0" pos="0" len="768"/>
        </pattern>
        <pattern name="Overdrive Guitar" pos="7296" type="1" muted="0" steps="16">
          <note key="23" vol="100" pan="0" pos="0" len="768"/>
        </pattern>
        <pattern name="Overdrive Guitar" pos="8064" type="1" muted="0" steps="16">
          <note key="23" vol="100" pan="0" pos="0" len="768"/>
        </pattern>
        <pattern name="Overdrive Guitar" pos="9600" type="1" muted="0" steps="16">
          <note key="23" vol="100" pan="0" pos="0" len="12"/>
          <note key="23" vol="61" pan="0" pos="12" len="12"/>
          <note key="23" vol="61" pan="0" pos="24" len="12"/>
          <note key="23" vol="100" pan="0" pos="36" len="12"/>
          <note key="23" vol="61" pan="0" pos="48" len="12"/>
          <note key="23" vol="61" pan="0" pos="60" len="12"/>
          <note key="23" vol="93" pan="0" pos="72" len="12"/>
          <note key="23" vol="55" pan="0" pos="84" len="12"/>
          <note key="23" vol="61" pan="0" pos="96" len="12"/>
          <note key="23" vol="87" pan="0" pos="108" len="12"/>
          <note key="23" vol="48" pan="0" pos="120" len="12"/>
          <note key="23" vol="87" pan="0" pos="132" len="12"/>
          <note key="24" vol="100" pan="0" pos="144" len="24"/>
          <note key="23" vol="87" pan="0" pos="168" len="12"/>
          <note key="23" vol="87" pan="0" pos="180" len="6"/>
          <note key="23" vol="87" pan="0" pos="186" len="6"/>
          <note key="23" vol="100" pan="0" pos="192" len="12"/>
          <note key="23" vol="61" pan="0" pos="204" len="12"/>
          <note key="23" vol="61" pan="0" pos="216" len="12"/>
          <note key="23" vol="100" pan="0" pos="228" len="12"/>
          <note key="23" vol="61" pan="0" pos="240" len="12"/>
          <note key="23" vol="61" pan="0" pos="252" len="12"/>
          <note key="23" vol="93" pan="0" pos="264" len="12"/>
          <note key="23" vol="55" pan="0" pos="276" len="12"/>
          <note key="23" vol="61" pan="0" pos="288" len="12"/>
          <note key="23" vol="87" pan="0" pos="300" len="12"/>
          <note key="23" vol="48" pan="0" pos="312" len="12"/>
          <note key="23" vol="87" pan="0" pos="324" len="12"/>
          <note key="21" vol="87" pan="0" pos="336" len="24"/>
          <note key="23" vol="87" pan="0" pos="360" len="24"/>
          <note key="23" vol="100" pan="0" pos="384" len="12"/>
          <note key="23" vol="61" pan="0" pos="396" len="12"/>
          <note key="23" vol="61" pan="0" pos="408" len="12"/>
          <note key="23" vol="100" pan="0" pos="420" len="12"/>
          <note key="23" vol="61" pan="0" pos="432" len="12"/>
          <note key="23" vol="61" pan="0" pos="444" len="12"/>
          <note key="23" vol="93" pan="0" pos="456" len="12"/>
          <note key="23" vol="55" pan="0" pos="468" len="12"/>
          <note key="23" vol="61" pan="0" pos="480" len="12"/>
          <note key="23" vol="87" pan="0" pos="492" len="12"/>
          <note key="23" vol="48" pan="0" pos="504" len="12"/>
          <note key="23" vol="87" pan="0" pos="516" len="12"/>
          <note key="24" vol="100" pan="0" pos="528" len="24"/>
          <note key="23" vol="87" pan="0" pos="552" len="12"/>
          <note key="23" vol="87" pan="0" pos="564" len="6"/>
          <note key="23" vol="87" pan="0" pos="570" len="6"/>
          <note key="23" vol="100" pan="0" pos="576" len="12"/>
          <note key="23" vol="61" pan="0" pos="588" len="12"/>
          <note key="23" vol="61" pan="0" pos="600" len="12"/>
          <note key="23" vol="100" pan="0" pos="612" len="12"/>
          <note key="23" vol="61" pan="0" pos="624" len="12"/>
          <note key="23" vol="61" pan="0" pos="636" len="12"/>
          <note key="23" vol="93" pan="0" pos="648" len="12"/>
          <note key="23" vol="55" pan="0" pos="660" len="12"/>
          <note key="23" vol="61" pan="0" pos="672" len="12"/>
          <note key="23" vol="87" pan="0" pos="684" len="12"/>
          <note key="23" vol="48" pan="0" pos="696" len="12"/>
          <note key="23" vol="87" pan="0" pos="708" len="12"/>
          <note key="21" vol="87" pan="0" pos="720" len="24"/>
          <note key="23" vol="87" pan="0" pos="744" len="24"/>
        </pattern>
        <pattern name="Overdrive Guitar" pos="10368" type="1" muted="0" steps="16">
          <note key="23" vol="100" pan="0" pos="0" len="12"/>
          <note key="23" vol="61" pan="0" pos="12" len="12"/>
          <note key="23" vol="61" pan="0" pos="24" len="12"/>
          <note key="23" vol="100" pan="0" pos="36" len="12"/>
          <note key="23" vol="61" pan="0" pos="48" len="12"/>
          <note key="23" vol="61" pan="0" pos="60" len="12"/>
          <note key="23" vol="93" pan="0" pos="72" len="12"/>
          <note key="23" vol="55" pan="0" pos="84" len="12"/>
          <note key="23" vol="61" pan="0" pos="96" len="12"/>
          <note key="23" vol="87" pan="0" pos="108" len="12"/>
          <note key="23" vol="48" pan="0" pos="120" len="12"/>
          <note key="23" vol="87" pan="0" pos="132" len="12"/>
          <note key="24" vol="100" pan="0" pos="144" len="24"/>
          <note key="23" vol="87" pan="0" pos="168" len="12"/>
          <note key="23" vol="87" pan="0" pos="180" len="6"/>
          <note key="23" vol="87" pan="0" pos="186" len="6"/>
          <note key="23" vol="100" pan="0" pos="192" len="12"/>
          <note key="23" vol="61" pan="0" pos="204" len="12"/>
          <note key="23" vol="61" pan="0" pos="216" len="12"/>
          <note key="23" vol="100" pan="0" pos="228" len="12"/>
          <note key="23" vol="61" pan="0" pos="240" len="12"/>
          <note key="23" vol="61" pan="0" pos="252" len="12"/>
          <note key="23" vol="93" pan="0" pos="264" len="12"/>
          <note key="23" vol="55" pan="0" pos="276" len="12"/>
          <note key="23" vol="61" pan="0" pos="288" len="12"/>
          <note key="23" vol="87" pan="0" pos="300" len="12"/>
          <note key="23" vol="48" pan="0" pos="312" len="12"/>
          <note key="23" vol="87" pan="0" pos="324" len="12"/>
          <note key="21" vol="87" pan="0" pos="336" len="24"/>
          <note key="23" vol="87" pan="0" pos="360" len="24"/>
          <note key="23" vol="100" pan="0" pos="384" len="12"/>
          <note key="23" vol="61" pan="0" pos="396" len="12"/>
          <note key="23" vol="61" pan="0" pos="408" len="12"/>
          <note key="23" vol="100" pan="0" pos="420" len="12"/>
          <note key="23" vol="61" pan="0" pos="432" len="12"/>
          <note key="23" vol="61" pan="0" pos="444" len="12"/>
          <note key="23" vol="93" pan="0" pos="456" len="12"/>
          <note key="23" vol="55" pan="0" pos="468" len="12"/>
          <note key="23" vol="61" pan="0" pos="480" len="12"/>
          <note key="23" vol="87" pan="0" pos="492" len="12"/>
          <note key="23" vol="48" pan="0" pos="504" len="12"/>
          <note key="23" vol="87" pan="0" pos="516" len="12"/>
          <note key="24" vol="100" pan="0" pos="528" len="24"/>
          <note key="23" vol="87" pan="0" pos="552" len="12"/>
          <note key="23" vol="87" pan="0" pos="564" len="6"/>
          <note key="23" vol="87" pan="0" pos="570" len="6"/>
          <note key="23" vol="100" pan="0" pos="576" len="12"/>
          <note key="23" vol="61" pan="0" pos="588" len="12"/>
          <note key="23" vol="61" pan="0" pos="600" len="12"/>
          <note key="23" vol="100" pan="0" pos="612" len="12"/>
          <note key="23" vol="61" pan="0" pos="624" len="12"/>
          <note key="23" vol="61" pan="0" pos="636" len="12"/>
          <note key="23" vol="93" pan="0" pos="648" len="12"/>
          <note key="23" vol="55" pan="0" pos="660" len="12"/>
          <note key="23" vol="61" pan="0" pos="672" len="12"/>
          <note key="23" vol="87" pan="0" pos="684" len="12"/>
          <note key="23" vol="48" pan="0" pos="696" len="12"/>
          <note key="23" vol="87" pan="0" pos="708" len="12"/>
          <note key="21" vol="87" pan="0" pos="720" len="24"/>
          <note key="23" vol="87" pan="0" pos="744" len="24"/>
        </pattern>
        <pattern name="Overdrive Guitar" pos="8832" type="1" muted="0" steps="16">
          <note key="23" vol="100" pan="0" pos="0" len="12"/>
          <note key="23" vol="61" pan="0" pos="12" len="12"/>
          <note key="23" vol="61" pan="0" pos="24" len="12"/>
          <note key="23" vol="100" pan="0" pos="36" len="12"/>
          <note key="23" vol="61" pan="0" pos="48" len="12"/>
          <note key="23" vol="61" pan="0" pos="60" len="12"/>
          <note key="23" vol="93" pan="0" pos="72" len="12"/>
          <note key="23" vol="55" pan="0" pos="84" len="12"/>
          <note key="23" vol="61" pan="0" pos="96" len="12"/>
          <note key="23" vol="87" pan="0" pos="108" len="12"/>
          <note key="23" vol="48" pan="0" pos="120" len="12"/>
          <note key="23" vol="87" pan="0" pos="132" len="12"/>
          <note key="21" vol="100" pan="0" pos="144" len="24"/>
          <note key="23" vol="87" pan="0" pos="168" len="12"/>
          <note key="23" vol="87" pan="0" pos="180" len="6"/>
          <note key="23" vol="87" pan="0" pos="186" len="6"/>
          <note key="23" vol="100" pan="0" pos="192" len="12"/>
          <note key="23" vol="61" pan="0" pos="204" len="12"/>
          <note key="23" vol="61" pan="0" pos="216" len="12"/>
          <note key="23" vol="100" pan="0" pos="228" len="12"/>
          <note key="23" vol="61" pan="0" pos="240" len="12"/>
          <note key="23" vol="61" pan="0" pos="252" len="12"/>
          <note key="23" vol="93" pan="0" pos="264" len="12"/>
          <note key="23" vol="55" pan="0" pos="276" len="12"/>
          <note key="23" vol="61" pan="0" pos="288" len="12"/>
          <note key="23" vol="87" pan="0" pos="300" len="12"/>
          <note key="23" vol="48" pan="0" pos="312" len="12"/>
          <note key="23" vol="87" pan="0" pos="324" len="12"/>
          <note key="21" vol="87" pan="0" pos="336" len="12"/>
          <note key="21" vol="36" pan="0" pos="348" len="12"/>
          <note key="23" vol="87" pan="0" pos="360" len="24"/>
          <note key="23" vol="100" pan="0" pos="384" len="12"/>
          <note key="23" vol="61" pan="0" pos="396" len="12"/>
          <note key="23" vol="61" pan="0" pos="408" len="12"/>
          <note key="23" vol="100" pan="0" pos="420" len="12"/>
          <note key="23" vol="61" pan="0" pos="432" len="12"/>
          <note key="23" vol="61" pan="0" pos="444" len="12"/>
          <note key="23" vol="93" pan="0" pos="456" len="12"/>
          <note key="23" vol="55" pan="0" pos="468" len="12"/>
          <note key="23" vol="61" pan="0" pos="480" len="12"/>
          <note key="23" vol="87" pan="0" pos="492" len="12"/>
          <note key="23" vol="48" pan="0" pos="504" len="12"/>
          <note key="23" vol="87" pan="0" pos="516" len="12"/>
          <note key="24" vol="100" pan="0" pos="528" len="24"/>
          <note key="23" vol="87" pan="0" pos="552" len="12"/>
          <note key="23" vol="87" pan="0" pos="564" len="6"/>
          <note key="23" vol="87" pan="0" pos="570" len="6"/>
          <note key="23" vol="100" pan="0" pos="576" len="12"/>
          <note key="23" vol="61" pan="0" pos="588" len="12"/>
          <note key="23" vol="61" pan="0" pos="600" len="12"/>
          <note key="23" vol="100" pan="0" pos="612" len="12"/>
          <note key="23" vol="61" pan="0" pos="624" len="12"/>
          <note key="23" vol="61" pan="0" pos="636" len="12"/>
          <note key="23" vol="93" pan="0" pos="648" len="12"/>
          <note key="23" vol="55" pan="0" pos="660" len="12"/>
          <note key="23" vol="61" pan="0" pos="672" len="12"/>
          <note key="23" vol="87" pan="0" pos="684" len="12"/>
          <note key="23" vol="48" pan="0" pos="696" len="12"/>
          <note key="23" vol="87" pan="0" pos="708" len="12"/>
          <note key="23" vol="87" pan="0" pos="720" len="48"/>
        </pattern>
        <pattern name="Overdrive Guitar" pos="11136" type="1" muted="0" steps="16">
          <note key="23" vol="100" pan="0" pos="0" len="12"/>
          <note key="23" vol="61" pan="0" pos="12" len="12"/>
          <note key="23" vol="61" pan="0" pos="24" len="12"/>
          <note key="23" vol="100" pan="0" pos="36" len="12"/>
          <note key="23" vol="61" pan="0" pos="48" len="12"/>
          <note key="23" vol="61" pan="0" pos="60" len="12"/>
          <note key="23" vol="93" pan="0" pos="72" len="12"/>
          <note key="23" vol="55" pan="0" pos="84" len="12"/>
          <note key="23" vol="61" pan="0" pos="96" len="12"/>
          <note key="23" vol="87" pan="0" pos="108" len="12"/>
          <note key="23" vol="48" pan="0" pos="120" len="12"/>
          <note key="23" vol="87" pan="0" pos="132" len="12"/>
          <note key="24" vol="100" pan="0" pos="144" len="24"/>
          <note key="23" vol="87" pan="0" pos="168" len="12"/>
          <note key="23" vol="87" pan="0" pos="180" len="6"/>
          <note key="23" vol="87" pan="0" pos="186" len="6"/>
          <note key="23" vol="100" pan="0" pos="192" len="12"/>
          <note key="23" vol="61" pan="0" pos="204" len="12"/>
          <note key="23" vol="61" pan="0" pos="216" len="12"/>
          <note key="23" vol="100" pan="0" pos="228" len="12"/>
          <note key="23" vol="61" pan="0" pos="240" len="12"/>
          <note key="23" vol="61" pan="0" pos="252" len="12"/>
          <note key="23" vol="93" pan="0" pos="264" len="12"/>
          <note key="23" vol="55" pan="0" pos="276" len="12"/>
          <note key="23" vol="61" pan="0" pos="288" len="12"/>
          <note key="23" vol="87" pan="0" pos="300" len="12"/>
          <note key="23" vol="48" pan="0" pos="312" len="12"/>
          <note key="23" vol="87" pan="0" pos="324" len="12"/>
          <note key="21" vol="87" pan="0" pos="336" len="24"/>
          <note key="23" vol="87" pan="0" pos="360" len="24"/>
          <note key="23" vol="100" pan="0" pos="384" len="12"/>
          <note key="23" vol="61" pan="0" pos="396" len="12"/>
          <note key="23" vol="61" pan="0" pos="408" len="12"/>
          <note key="23" vol="100" pan="0" pos="420" len="12"/>
          <note key="23" vol="61" pan="0" pos="432" len="12"/>
          <note key="23" vol="61" pan="0" pos="444" len="12"/>
          <note key="23" vol="93" pan="0" pos="456" len="12"/>
          <note key="23" vol="55" pan="0" pos="468" len="12"/>
          <note key="23" vol="61" pan="0" pos="480" len="12"/>
          <note key="23" vol="87" pan="0" pos="492" len="12"/>
          <note key="23" vol="48" pan="0" pos="504" len="12"/>
          <note key="23" vol="87" pan="0" pos="516" len="12"/>
          <note key="24" vol="100" pan="0" pos="528" len="24"/>
          <note key="23" vol="87" pan="0" pos="552" len="12"/>
          <note key="23" vol="87" pan="0" pos="564" len="6"/>
          <note key="23" vol="87" pan="0" pos="570" len="6"/>
          <note key="23" vol="100" pan="0" pos="576" len="12"/>
          <note key="23" vol="61" pan="0" pos="588" len="12"/>
          <note key="23" vol="61" pan="0" pos="600" len="12"/>
          <note key="23" vol="100" pan="0" pos="612" len="12"/>
          <note key="23" vol="61" pan="0" pos="624" len="12"/>
          <note key="23" vol="61" pan="0" pos="636" len="12"/>
          <note key="23" vol="93" pan="0" pos="648" len="12"/>
          <note key="23" vol="55" pan="0" pos="660" len="12"/>
          <note key="23" vol="61" pan="0" pos="672" len="12"/>
          <note key="23" vol="87" pan="0" pos="684" len="12"/>
          <note key="23" vol="48" pan="0" pos="696" len="12"/>
          <note key="23" vol="87" pan="0" pos="708" len="12"/>
          <note key="21" vol="87" pan="0" pos="720" len="24"/>
          <note key="23" vol="87" pan="0" pos="744" len="24"/>
        </pattern>
        <pattern name="Overdrive Guitar" pos="11904" type="1" muted="0" steps="16">
          <note key="23" vol="100" pan="0" pos="0" len="12"/>
          <note key="23" vol="61" pan="0" pos="12" len="12"/>
          <note key="23" vol="61" pan="0" pos="24" len="12"/>
          <note key="23" vol="100" pan="0" pos="36" len="12"/>
          <note key="23" vol="61" pan="0" pos="48" len="12"/>
          <note key="23" vol="61" pan="0" pos="60" len="12"/>
          <note key="23" vol="93" pan="0" pos="72" len="12"/>
          <note key="23" vol="55" pan="0" pos="84" len="12"/>
          <note key="23" vol="61" pan="0" pos="96" len="12"/>
          <note key="23" vol="87" pan="0" pos="108" len="12"/>
          <note key="23" vol="48" pan="0" pos="120" len="12"/>
          <note key="23" vol="87" pan="0" pos="132" len="12"/>
          <note key="24" vol="100" pan="0" pos="144" len="24"/>
          <note key="23" vol="87" pan="0" pos="168" len="12"/>
          <note key="23" vol="87" pan="0" pos="180" len="6"/>
          <note key="23" vol="87" pan="0" pos="186" len="6"/>
          <note key="23" vol="100" pan="0" pos="192" len="12"/>
          <note key="23" vol="61" pan="0" pos="204" len="12"/>
          <note key="23" vol="61" pan="0" pos="216" len="12"/>
          <note key="23" vol="100" pan="0" pos="228" len="12"/>
          <note key="23" vol="61" pan="0" pos="240" len="12"/>
          <note key="23" vol="61" pan="0" pos="252" len="12"/>
          <note key="23" vol="93" pan="0" pos="264" len="12"/>
          <note key="23" vol="55" pan="0" pos="276" len="12"/>
          <note key="23" vol="61" pan="0" pos="288" len="12"/>
          <note key="23" vol="87" pan="0" pos="300" len="12"/>
          <note key="23" vol="48" pan="0" pos="312" len="12"/>
          <note key="23" vol="87" pan="0" pos="324" len="12"/>
          <note key="21" vol="87" pan="0" pos="336" len="24"/>
          <note key="23" vol="87" pan="0" pos="360" len="24"/>
          <note key="23" vol="100" pan="0" pos="384" len="12"/>
          <note key="23" vol="61" pan="0" pos="396" len="12"/>
          <note key="23" vol="61" pan="0" pos="408" len="12"/>
          <note key="23" vol="100" pan="0" pos="420" len="12"/>
          <note key="23" vol="61" pan="0" pos="432" len="12"/>
          <note key="23" vol="61" pan="0" pos="444" len="12"/>
          <note key="23" vol="93" pan="0" pos="456" len="12"/>
          <note key="23" vol="55" pan="0" pos="468" len="12"/>
          <note key="23" vol="61" pan="0" pos="480" len="12"/>
          <note key="23" vol="87" pan="0" pos="492" len="12"/>
          <note key="23" vol="48" pan="0" pos="504" len="12"/>
          <note key="23" vol="87" pan="0" pos="516" len="12"/>
          <note key="24" vol="100" pan="0" pos="528" len="24"/>
          <note key="23" vol="87" pan="0" pos="552" len="12"/>
          <note key="23" vol="87" pan="0" pos="564" len="6"/>
          <note key="23" vol="87" pan="0" pos="570" len="6"/>
          <note key="23" vol="100" pan="0" pos="576" len="12"/>
          <note key="23" vol="61" pan="0" pos="588" len="12"/>
          <note key="23" vol="61" pan="0" pos="600" len="12"/>
          <note key="23" vol="100" pan="0" pos="612" len="12"/>
          <note key="23" vol="61" pan="0" pos="624" len="12"/>
          <note key="23" vol="61" pan="0" pos="636" len="12"/>
          <note key="23" vol="93" pan="0" pos="648" len="12"/>
          <note key="23" vol="55" pan="0" pos="660" len="12"/>
          <note key="23" vol="61" pan="0" pos="672" len="12"/>
          <note key="23" vol="87" pan="0" pos="684" len="12"/>
          <note key="23" vol="48" pan="0" pos="696" len="12"/>
          <note key="23" vol="87" pan="0" pos="708" len="12"/>
          <note key="21" vol="87" pan="0" pos="720" len="24"/>
          <note key="23" vol="87" pan="0" pos="744" len="24"/>
        </pattern>
        <pattern name="Overdrive Guitar" pos="12672" type="1" muted="0" steps="16">
          <note key="21" vol="100" pan="0" pos="0" len="24"/>
          <note key="20" vol="100" pan="0" pos="24" len="24"/>
          <note key="20" vol="100" pan="0" pos="96" len="24"/>
          <note key="19" vol="100" pan="0" pos="144" len="240"/>
          <note key="21" vol="100" pan="0" pos="384" len="24"/>
          <note key="20" vol="100" pan="0" pos="408" len="24"/>
          <note key="20" vol="100" pan="0" pos="480" len="24"/>
          <note key="19" vol="100" pan="0" pos="528" len="240"/>
        </pattern>
        <pattern name="Overdrive Guitar" pos="13440" type="1" muted="0" steps="16">
          <note key="23" vol="100" pan="0" pos="0" len="12"/>
          <note key="23" vol="61" pan="0" pos="12" len="12"/>
          <note key="23" vol="61" pan="0" pos="24" len="12"/>
          <note key="23" vol="100" pan="0" pos="36" len="12"/>
          <note key="23" vol="61" pan="0" pos="48" len="12"/>
          <note key="23" vol="61" pan="0" pos="60" len="12"/>
          <note key="23" vol="93" pan="0" pos="72" len="12"/>
          <note key="23" vol="55" pan="0" pos="84" len="12"/>
          <note key="23" vol="61" pan="0" pos="96" len="12"/>
          <note key="23" vol="87" pan="0" pos="108" len="12"/>
          <note key="23" vol="48" pan="0" pos="120" len="12"/>
          <note key="23" vol="87" pan="0" pos="132" len="12"/>
          <note key="24" vol="100" pan="0" pos="144" len="24"/>
          <note key="23" vol="87" pan="0" pos="168" len="12"/>
          <note key="23" vol="87" pan="0" pos="180" len="6"/>
          <note key="23" vol="87" pan="0" pos="186" len="6"/>
          <note key="23" vol="100" pan="0" pos="192" len="12"/>
          <note key="23" vol="61" pan="0" pos="204" len="12"/>
          <note key="23" vol="61" pan="0" pos="216" len="12"/>
          <note key="23" vol="100" pan="0" pos="228" len="12"/>
          <note key="23" vol="61" pan="0" pos="240" len="12"/>
          <note key="23" vol="61" pan="0" pos="252" len="12"/>
          <note key="23" vol="93" pan="0" pos="264" len="12"/>
          <note key="23" vol="55" pan="0" pos="276" len="12"/>
          <note key="23" vol="61" pan="0" pos="288" len="12"/>
          <note key="23" vol="87" pan="0" pos="300" len="12"/>
          <note key="23" vol="48" pan="0" pos="312" len="12"/>
          <note key="23" vol="87" pan="0" pos="324" len="12"/>
          <note key="21" vol="87" pan="0" pos="336" len="24"/>
          <note key="23" vol="87" pan="0" pos="360" len="24"/>
          <note key="23" vol="100" pan="0" pos="384" len="12"/>
          <note key="23" vol="61" pan="0" pos="396" len="12"/>
          <note key="23" vol="61" pan="0" pos="408" len="12"/>
          <note key="23" vol="100" pan="0" pos="420" len="12"/>
          <note key="23" vol="61" pan="0" pos="432" len="12"/>
          <note key="23" vol="61" pan="0" pos="444" len="12"/>
          <note key="23" vol="93" pan="0" pos="456" len="12"/>
          <note key="23" vol="55" pan="0" pos="468" len="12"/>
          <note key="23" vol="61" pan="0" pos="480" len="12"/>
          <note key="23" vol="87" pan="0" pos="492" len="12"/>
          <note key="23" vol="48" pan="0" pos="504" len="12"/>
          <note key="23" vol="87" pan="0" pos="516" len="12"/>
          <note key="24" vol="100" pan="0" pos="528" len="24"/>
          <note key="23" vol="87" pan="0" pos="552" len="12"/>
          <note key="23" vol="87" pan="0" pos="564" len="6"/>
          <note key="23" vol="87" pan="0" pos="570" len="6"/>
          <note key="23" vol="100" pan="0" pos="576" len="12"/>
          <note key="23" vol="61" pan="0" pos="588" len="12"/>
          <note key="23" vol="61" pan="0" pos="600" len="12"/>
          <note key="23" vol="100" pan="0" pos="612" len="12"/>
          <note key="23" vol="61" pan="0" pos="624" len="12"/>
          <note key="23" vol="61" pan="0" pos="636" len="12"/>
          <note key="23" vol="93" pan="0" pos="648" len="12"/>
          <note key="23" vol="55" pan="0" pos="660" len="12"/>
          <note key="23" vol="61" pan="0" pos="672" len="12"/>
          <note key="23" vol="87" pan="0" pos="684" len="12"/>
          <note key="23" vol="48" pan="0" pos="696" len="12"/>
          <note key="23" vol="87" pan="0" pos="708" len="12"/>
          <note key="21" vol="87" pan="0" pos="720" len="48"/>
        </pattern>
        <pattern name="Overdrive Guitar" pos="14976" type="1" muted="0" steps="16">
          <note key="23" vol="100" pan="0" pos="0" len="12"/>
          <note key="23" vol="61" pan="0" pos="12" len="12"/>
          <note key="23" vol="61" pan="0" pos="24" len="12"/>
          <note key="23" vol="100" pan="0" pos="36" len="12"/>
          <note key="23" vol="61" pan="0" pos="48" len="12"/>
          <note key="23" vol="61" pan="0" pos="60" len="12"/>
          <note key="23" vol="93" pan="0" pos="72" len="12"/>
          <note key="23" vol="55" pan="0" pos="84" len="12"/>
          <note key="23" vol="61" pan="0" pos="96" len="12"/>
          <note key="23" vol="87" pan="0" pos="108" len="12"/>
          <note key="23" vol="48" pan="0" pos="120" len="12"/>
          <note key="23" vol="87" pan="0" pos="132" len="12"/>
          <note key="24" vol="100" pan="0" pos="144" len="24"/>
          <note key="23" vol="87" pan="0" pos="168" len="12"/>
          <note key="23" vol="87" pan="0" pos="180" len="6"/>
          <note key="23" vol="87" pan="0" pos="186" len="6"/>
          <note key="23" vol="100" pan="0" pos="192" len="12"/>
          <note key="23" vol="61" pan="0" pos="204" len="12"/>
          <note key="23" vol="61" pan="0" pos="216" len="12"/>
          <note key="23" vol="100" pan="0" pos="228" len="12"/>
          <note key="23" vol="61" pan="0" pos="240" len="12"/>
          <note key="23" vol="61" pan="0" pos="252" len="12"/>
          <note key="23" vol="93" pan="0" pos="264" len="12"/>
          <note key="23" vol="55" pan="0" pos="276" len="12"/>
          <note key="23" vol="61" pan="0" pos="288" len="12"/>
          <note key="23" vol="87" pan="0" pos="300" len="12"/>
          <note key="23" vol="48" pan="0" pos="312" len="12"/>
          <note key="23" vol="87" pan="0" pos="324" len="12"/>
          <note key="21" vol="87" pan="0" pos="336" len="24"/>
          <note key="23" vol="87" pan="0" pos="360" len="24"/>
          <note key="23" vol="100" pan="0" pos="384" len="12"/>
          <note key="23" vol="61" pan="0" pos="396" len="12"/>
          <note key="23" vol="61" pan="0" pos="408" len="12"/>
          <note key="23" vol="100" pan="0" pos="420" len="12"/>
          <note key="23" vol="61" pan="0" pos="432" len="12"/>
          <note key="23" vol="61" pan="0" pos="444" len="12"/>
          <note key="23" vol="93" pan="0" pos="456" len="12"/>
          <note key="23" vol="55" pan="0" pos="468" len="12"/>
          <note key="23" vol="61" pan="0" pos="480" len="12"/>
          <note key="23" vol="87" pan="0" pos="492" len="12"/>
          <note key="23" vol="48" pan="0" pos="504" len="12"/>
          <note key="23" vol="87" pan="0" pos="516" len="12"/>
          <note key="24" vol="100" pan="0" pos="528" len="24"/>
          <note key="23" vol="87" pan="0" pos="552" len="12"/>
          <note key="23" vol="87" pan="0" pos="564" len="6"/>
          <note key="23" vol="87" pan="0" pos="570" len="6"/>
          <note key="23" vol="100" pan="0" pos="576" len="12"/>
          <note key="23" vol="61" pan="0" pos="588" len="12"/>
          <note key="23" vol="61" pan="0" pos="600" len="12"/>
          <note key="23" vol="100" pan="0" pos="612" len="12"/>
          <note key="23" vol="61" pan="0" pos="624" len="12"/>
          <note key="23" vol="61" pan="0" pos="636" len="12"/>
          <note key="23" vol="93" pan="0" pos="648" len="12"/>
          <note key="23" vol="55" pan="0" pos="660" len="12"/>
          <note key="23" vol="61" pan="0" pos="672" len="12"/>
          <note key="23" vol="87" pan="0" pos="684" len="12"/>
          <note key="23" vol="48" pan="0" pos="696" len="12"/>
          <note key="23" vol="87" pan="0" pos="708" len="12"/>
          <note key="22" vol="87" pan="0" pos="720" len="432"/>
        </pattern>
        <pattern name="Overdrive Guitar" pos="14208" type="1" muted="0" steps="16">
          <note key="23" vol="100" pan="0" pos="0" len="12"/>
          <note key="23" vol="61" pan="0" pos="12" len="12"/>
          <note key="23" vol="61" pan="0" pos="24" len="12"/>
          <note key="23" vol="100" pan="0" pos="36" len="12"/>
          <note key="23" vol="61" pan="0" pos="48" len="12"/>
          <note key="23" vol="61" pan="0" pos="60" len="12"/>
          <note key="23" vol="93" pan="0" pos="72" len="12"/>
          <note key="23" vol="55" pan="0" pos="84" len="12"/>
          <note key="23" vol="61" pan="0" pos="96" len="12"/>
          <note key="23" vol="87" pan="0" pos="108" len="12"/>
          <note key="23" vol="48" pan="0" pos="120" len="12"/>
          <note key="23" vol="87" pan="0" pos="132" len="12"/>
          <note key="24" vol="100" pan="0" pos="144" len="24"/>
          <note key="23" vol="87" pan="0" pos="168" len="12"/>
          <note key="23" vol="87" pan="0" pos="180" len="6"/>
          <note key="23" vol="87" pan="0" pos="186" len="6"/>
          <note key="23" vol="100" pan="0" pos="192" len="12"/>
          <note key="23" vol="61" pan="0" pos="204" len="12"/>
          <note key="23" vol="61" pan="0" pos="216" len="12"/>
          <note key="23" vol="100" pan="0" pos="228" len="12"/>
          <note key="23" vol="61" pan="0" pos="240" len="12"/>
          <note key="23" vol="61" pan="0" pos="252" len="12"/>
          <note key="23" vol="93" pan="0" pos="264" len="12"/>
          <note key="23" vol="55" pan="0" pos="276" len="12"/>
          <note key="23" vol="61" pan="0" pos="288" len="12"/>
          <note key="23" vol="87" pan="0" pos="300" len="12"/>
          <note key="23" vol="48" pan="0" pos="312" len="12"/>
          <note key="23" vol="87" pan="0" pos="324" len="12"/>
          <note key="21" vol="87" pan="0" pos="336" len="24"/>
          <note key="23" vol="87" pan="0" pos="360" len="24"/>
          <note key="23" vol="100" pan="0" pos="384" len="12"/>
          <note key="23" vol="61" pan="0" pos="396" len="12"/>
          <note key="23" vol="61" pan="0" pos="408" len="12"/>
          <note key="23" vol="100" pan="0" pos="420" len="12"/>
          <note key="23" vol="61" pan="0" pos="432" len="12"/>
          <note key="23" vol="61" pan="0" pos="444" len="12"/>
          <note key="23" vol="93" pan="0" pos="456" len="12"/>
          <note key="23" vol="55" pan="0" pos="468" len="12"/>
          <note key="23" vol="61" pan="0" pos="480" len="12"/>
          <note key="23" vol="87" pan="0" pos="492" len="12"/>
          <note key="23" vol="48" pan="0" pos="504" len="12"/>
          <note key="23" vol="87" pan="0" pos="516" len="12"/>
          <note key="24" vol="100" pan="0" pos="528" len="24"/>
          <note key="23" vol="87" pan="0" pos="552" len="12"/>
          <note key="23" vol="87" pan="0" pos="564" len="6"/>
          <note key="23" vol="87" pan="0" pos="570" len="6"/>
          <note key="23" vol="100" pan="0" pos="576" len="12"/>
          <note key="23" vol="61" pan="0" pos="588" len="12"/>
          <note key="23" vol="61" pan="0" pos="600" len="12"/>
          <note key="23" vol="100" pan="0" pos="612" len="12"/>
          <note key="23" vol="61" pan="0" pos="624" len="12"/>
          <note key="23" vol="61" pan="0" pos="636" len="12"/>
          <note key="23" vol="93" pan="0" pos="648" len="12"/>
          <note key="23" vol="55" pan="0" pos="660" len="12"/>
          <note key="23" vol="61" pan="0" pos="672" len="12"/>
          <note key="23" vol="87" pan="0" pos="684" len="12"/>
          <note key="23" vol="48" pan="0" pos="696" len="12"/>
          <note key="23" vol="87" pan="0" pos="708" len="12"/>
          <note key="21" vol="87" pan="0" pos="720" len="48"/>
        </pattern>
        <pattern name="" pos="1536" type="1" muted="0" steps="16">
          <note key="23" vol="100" pan="0" pos="0" len="12"/>
          <note key="23" vol="61" pan="0" pos="12" len="12"/>
          <note key="23" vol="61" pan="0" pos="24" len="12"/>
          <note key="23" vol="100" pan="0" pos="36" len="12"/>
          <note key="23" vol="61" pan="0" pos="48" len="12"/>
          <note key="23" vol="61" pan="0" pos="60" len="12"/>
          <note key="23" vol="93" pan="0" pos="72" len="12"/>
          <note key="23" vol="55" pan="0" pos="84" len="12"/>
          <note key="23" vol="61" pan="0" pos="96" len="12"/>
          <note key="23" vol="87" pan="0" pos="108" len="12"/>
          <note key="23" vol="48" pan="0" pos="120" len="12"/>
          <note key="23" vol="87" pan="0" pos="132" len="12"/>
          <note key="24" vol="100" pan="0" pos="144" len="24"/>
          <note key="23" vol="87" pan="0" pos="168" len="12"/>
          <note key="23" vol="87" pan="0" pos="180" len="6"/>
          <note key="23" vol="87" pan="0" pos="186" len="6"/>
          <note key="23" vol="100" pan="0" pos="192" len="12"/>
          <note key="23" vol="61" pan="0" pos="204" len="12"/>
          <note key="23" vol="61" pan="0" pos="216" len="12"/>
          <note key="23" vol="100" pan="0" pos="228" len="12"/>
          <note key="23" vol="61" pan="0" pos="240" len="12"/>
          <note key="23" vol="61" pan="0" pos="252" len="12"/>
          <note key="23" vol="93" pan="0" pos="264" len="12"/>
          <note key="23" vol="55" pan="0" pos="276" len="12"/>
          <note key="23" vol="61" pan="0" pos="288" len="12"/>
          <note key="23" vol="87" pan="0" pos="300" len="12"/>
          <note key="23" vol="48" pan="0" pos="312" len="12"/>
          <note key="23" vol="87" pan="0" pos="324" len="12"/>
          <note key="21" vol="87" pan="0" pos="336" len="12"/>
          <note key="21" vol="36" pan="0" pos="348" len="12"/>
          <note key="23" vol="87" pan="0" pos="360" len="24"/>
          <note key="23" vol="100" pan="0" pos="384" len="12"/>
          <note key="23" vol="61" pan="0" pos="396" len="12"/>
          <note key="23" vol="61" pan="0" pos="408" len="12"/>
          <note key="23" vol="100" pan="0" pos="420" len="12"/>
          <note key="23" vol="61" pan="0" pos="432" len="12"/>
          <note key="23" vol="61" pan="0" pos="444" len="12"/>
          <note key="23" vol="93" pan="0" pos="456" len="12"/>
          <note key="23" vol="55" pan="0" pos="468" len="12"/>
          <note key="23" vol="61" pan="0" pos="480" len="12"/>
          <note key="23" vol="87" pan="0" pos="492" len="12"/>
          <note key="23" vol="48" pan="0" pos="504" len="12"/>
          <note key="23" vol="87" pan="0" pos="516" len="12"/>
          <note key="24" vol="100" pan="0" pos="528" len="24"/>
          <note key="23" vol="87" pan="0" pos="552" len="12"/>
          <note key="23" vol="87" pan="0" pos="564" len="6"/>
          <note key="23" vol="87" pan="0" pos="570" len="6"/>
          <note key="23" vol="100" pan="0" pos="576" len="12"/>
          <note key="23" vol="61" pan="0" pos="588" len="12"/>
          <note key="23" vol="61" pan="0" pos="600" len="12"/>
          <note key="23" vol="100" pan="0" pos="612" len="12"/>
          <note key="23" vol="61" pan="0" pos="624" len="12"/>
          <note key="23" vol="61" pan="0" pos="636" len="12"/>
          <note key="23" vol="93" pan="0" pos="648" len="12"/>
          <note key="23" vol="55" pan="0" pos="660" len="12"/>
          <note key="23" vol="61" pan="0" pos="672" len="12"/>
          <note key="23" vol="87" pan="0" pos="684" len="12"/>
          <note key="23" vol="48" pan="0" pos="696" len="12"/>
          <note key="23" vol="87" pan="0" pos="708" len="12"/>
          <note key="21" vol="87" pan="0" pos="720" len="12"/>
          <note key="21" vol="36" pan="0" pos="732" len="12"/>
          <note key="23" vol="87" pan="0" pos="744" len="24"/>
        </pattern>
      </track>
      <track name="Gt.Harmonics" type="0" muted="0" solo="0">
        <instrumenttrack vol="41.600002" pan="-30.4" pitch="0" usemasterpitch="1" fxch="2" basenote="57" pitchrange="1">
          <instrument name="sf2player">
            <sf2player gain="1" reverbRoomSize="0.2" patch="31" reverbWidth="0.5" chorusLevel="2" src="soundfonts/SGM-v2.01-HQ-v3.0.sf2" reverbLevel="0.89999998" chorusSpeed="0.30000001" bank="0" chorusOn="0" reverbDamping="0.2" chorusNum="0.89999998" reverbOn="0" chorusDepth="8"/>
          </instrument>
          <eldata ftype="0" fres="0.5" fwet="0" fcut="14000">
            <elvol lamt="0" sustain="0.5" pdel="0" latt="0" dec="0.5" lspd_numerator="4" amt="0" userwavefile="" rel="0.1" lspd_denominator="4" lpdel="0" lspd="0.1" lshp="0" hold="0.5" att="0" ctlenvamt="0" lspd_syncmode="0" x100="0"/>
            <elcut lamt="0" sustain="0.5" pdel="0" latt="0" dec="0.5" lspd_numerator="4" amt="0" userwavefile="" rel="0.1" lspd_denominator="4" lpdel="0" lspd="0.1" lshp="0" hold="0.5" att="0" ctlenvamt="0" lspd_syncmode="0" x100="0"/>
            <elres lamt="0" sustain="0.5" pdel="0" latt="0" dec="0.5" lspd_numerator="4" amt="0" userwavefile="" rel="0.1" lspd_denominator="4" lpdel="0" lspd="0.1" lshp="0" hold="0.5" att="0" ctlenvamt="0" lspd_syncmode="0" x100="0"/>
          </eldata>
          <chordcreator chordrange="1" chord-enabled="0" chord="0"/>
          <arpeggiator arpmiss="0" arptime_numerator="4" arptime_syncmode="0" arpgate="100" arptime="200" arpcycle="0" arptime_denominator="4" arp="0" arpmode="0" arprange="1" arp-enabled="0" arpskip="0" arpdir="0"/>
          <midiport outputchannel="1" fixedoutputnote="-1" writable="0" inputchannel="0" inputcontroller="0" outputcontroller="0" fixedinputvelocity="-1" outputprogram="1" readable="0" basevelocity="63" fixedoutputvelocity="-1"/>
          <fxchain numofeffects="2" enabled="1">
            <effect wet="1" autoquit_numerator="4" name="ladspaeffect" autoquit_syncmode="0" on="1" autoquit="1" gate="0" autoquit_denominator="4">
              <ladspacontrols link="1" ports="26">
                <port02 data="20" link="1"/>
                <port03 data="0" link="1"/>
                <port04 data="1" link="1"/>
                <port05 data="0.0037499999" link="1"/>
                <port06 data="0" link="1"/>
                <port07 data="110.36" link="1"/>
                <port08 data="1226.25" link="1"/>
                <port09 data="1" link="1"/>
                <port010 data="4263.75" link="1"/>
                <port011 data="8" link="1"/>
                <port012 data="1" link="1"/>
                <port013 data="1" link="1"/>
                <port014 data="1" link="1"/>
                <port12 data="20"/>
                <port13 data="0"/>
                <port14 data="1"/>
                <port15 data="0.0037499999"/>
                <port16 data="0"/>
                <port17 data="110.36"/>
                <port18 data="1226.25"/>
                <port19 data="1"/>
                <port110 data="4263.75"/>
                <port111 data="8"/>
                <port112 data="1"/>
                <port113 data="1"/>
                <port114 data="1"/>
              </ladspacontrols>
              <key>
                <attribute name="file" value="guitarix_distortion"/>
                <attribute name="plugin" value="guitarix-distortion"/>
              </key>
            </effect>
            <effect wet="1" autoquit_numerator="4" name="bitcrush" autoquit_syncmode="0" on="0" autoquit="1" gate="0" autoquit_denominator="4">
              <bitcrushcontrols outclip="-14.2" depthon="1" levels="256" outgain="0.5" ingain="20" rate="43218" stereodiff="29.6" rateon="1" innoise="0"/>
              <key/>
            </effect>
          </fxchain>
        </instrumenttrack>
        <pattern name="Gt.Harmonics" pos="2688" type="1" muted="0" steps="16">
          <note key="59" vol="100" pan="0" pos="0" len="12"/>
          <note key="59" vol="61" pan="0" pos="12" len="12"/>
          <note key="59" vol="61" pan="0" pos="24" len="12"/>
          <note key="59" vol="100" pan="0" pos="36" len="12"/>
          <note key="59" vol="61" pan="0" pos="48" len="12"/>
          <note key="59" vol="61" pan="0" pos="60" len="12"/>
          <note key="59" vol="93" pan="0" pos="72" len="12"/>
          <note key="59" vol="55" pan="0" pos="84" len="12"/>
          <note key="59" vol="61" pan="0" pos="96" len="12"/>
          <note key="59" vol="87" pan="0" pos="108" len="12"/>
          <note key="59" vol="48" pan="0" pos="120" len="12"/>
          <note key="59" vol="87" pan="0" pos="132" len="12"/>
          <note key="60" vol="100" pan="0" pos="144" len="24"/>
          <note key="59" vol="87" pan="0" pos="168" len="12"/>
          <note key="59" vol="87" pan="0" pos="180" len="6"/>
          <note key="59" vol="87" pan="0" pos="186" len="6"/>
          <note key="59" vol="100" pan="0" pos="192" len="12"/>
          <note key="59" vol="61" pan="0" pos="204" len="12"/>
          <note key="59" vol="61" pan="0" pos="216" len="12"/>
          <note key="59" vol="100" pan="0" pos="228" len="12"/>
          <note key="59" vol="61" pan="0" pos="240" len="12"/>
          <note key="59" vol="61" pan="0" pos="252" len="12"/>
          <note key="59" vol="93" pan="0" pos="264" len="12"/>
          <note key="59" vol="55" pan="0" pos="276" len="12"/>
          <note key="59" vol="61" pan="0" pos="288" len="12"/>
          <note key="59" vol="87" pan="0" pos="300" len="12"/>
          <note key="59" vol="48" pan="0" pos="312" len="12"/>
          <note key="59" vol="87" pan="0" pos="324" len="12"/>
          <note key="57" vol="87" pan="0" pos="336" len="24"/>
          <note key="59" vol="87" pan="0" pos="360" len="24"/>
          <note key="59" vol="100" pan="0" pos="384" len="12"/>
          <note key="59" vol="61" pan="0" pos="396" len="12"/>
          <note key="59" vol="61" pan="0" pos="408" len="12"/>
          <note key="59" vol="100" pan="0" pos="420" len="12"/>
          <note key="59" vol="61" pan="0" pos="432" len="12"/>
          <note key="59" vol="61" pan="0" pos="444" len="12"/>
          <note key="59" vol="93" pan="0" pos="456" len="12"/>
          <note key="59" vol="55" pan="0" pos="468" len="12"/>
          <note key="59" vol="61" pan="0" pos="480" len="12"/>
          <note key="59" vol="87" pan="0" pos="492" len="12"/>
          <note key="59" vol="48" pan="0" pos="504" len="12"/>
          <note key="59" vol="87" pan="0" pos="516" len="12"/>
          <note key="60" vol="100" pan="0" pos="528" len="24"/>
          <note key="59" vol="87" pan="0" pos="552" len="12"/>
          <note key="59" vol="87" pan="0" pos="564" len="6"/>
          <note key="59" vol="87" pan="0" pos="570" len="6"/>
          <note key="59" vol="100" pan="0" pos="576" len="12"/>
          <note key="59" vol="61" pan="0" pos="588" len="12"/>
          <note key="59" vol="61" pan="0" pos="600" len="12"/>
          <note key="59" vol="100" pan="0" pos="612" len="12"/>
          <note key="59" vol="61" pan="0" pos="624" len="12"/>
          <note key="59" vol="61" pan="0" pos="636" len="12"/>
          <note key="59" vol="93" pan="0" pos="648" len="12"/>
          <note key="59" vol="55" pan="0" pos="660" len="12"/>
          <note key="59" vol="61" pan="0" pos="672" len="12"/>
          <note key="59" vol="87" pan="0" pos="684" len="12"/>
          <note key="59" vol="48" pan="0" pos="696" len="12"/>
          <note key="59" vol="87" pan="0" pos="708" len="12"/>
          <note key="57" vol="87" pan="0" pos="720" len="24"/>
          <note key="59" vol="87" pan="0" pos="744" len="24"/>
        </pattern>
        <pattern name="Gt.Harmonics" pos="3456" type="1" muted="0" steps="16">
          <note key="59" vol="100" pan="0" pos="0" len="12"/>
          <note key="59" vol="61" pan="0" pos="12" len="12"/>
          <note key="59" vol="61" pan="0" pos="24" len="12"/>
          <note key="59" vol="100" pan="0" pos="36" len="12"/>
          <note key="59" vol="61" pan="0" pos="48" len="12"/>
          <note key="59" vol="61" pan="0" pos="60" len="12"/>
          <note key="59" vol="93" pan="0" pos="72" len="12"/>
          <note key="59" vol="55" pan="0" pos="84" len="12"/>
          <note key="59" vol="61" pan="0" pos="96" len="12"/>
          <note key="59" vol="87" pan="0" pos="108" len="12"/>
          <note key="59" vol="48" pan="0" pos="120" len="12"/>
          <note key="59" vol="87" pan="0" pos="132" len="12"/>
          <note key="60" vol="100" pan="0" pos="144" len="24"/>
          <note key="59" vol="87" pan="0" pos="168" len="12"/>
          <note key="59" vol="87" pan="0" pos="180" len="6"/>
          <note key="59" vol="87" pan="0" pos="186" len="6"/>
          <note key="59" vol="100" pan="0" pos="192" len="12"/>
          <note key="59" vol="61" pan="0" pos="204" len="12"/>
          <note key="59" vol="61" pan="0" pos="216" len="12"/>
          <note key="59" vol="100" pan="0" pos="228" len="12"/>
          <note key="59" vol="61" pan="0" pos="240" len="12"/>
          <note key="59" vol="61" pan="0" pos="252" len="12"/>
          <note key="59" vol="93" pan="0" pos="264" len="12"/>
          <note key="59" vol="55" pan="0" pos="276" len="12"/>
          <note key="59" vol="61" pan="0" pos="288" len="12"/>
          <note key="59" vol="87" pan="0" pos="300" len="12"/>
          <note key="59" vol="48" pan="0" pos="312" len="12"/>
          <note key="59" vol="87" pan="0" pos="324" len="12"/>
          <note key="57" vol="87" pan="0" pos="336" len="24"/>
          <note key="59" vol="87" pan="0" pos="360" len="24"/>
          <note key="59" vol="100" pan="0" pos="384" len="12"/>
          <note key="59" vol="61" pan="0" pos="396" len="12"/>
          <note key="59" vol="61" pan="0" pos="408" len="12"/>
          <note key="59" vol="100" pan="0" pos="420" len="12"/>
          <note key="59" vol="61" pan="0" pos="432" len="12"/>
          <note key="59" vol="61" pan="0" pos="444" len="12"/>
          <note key="59" vol="93" pan="0" pos="456" len="12"/>
          <note key="59" vol="55" pan="0" pos="468" len="12"/>
          <note key="59" vol="61" pan="0" pos="480" len="12"/>
          <note key="59" vol="87" pan="0" pos="492" len="12"/>
          <note key="59" vol="48" pan="0" pos="504" len="12"/>
          <note key="59" vol="87" pan="0" pos="516" len="12"/>
          <note key="60" vol="100" pan="0" pos="528" len="24"/>
          <note key="59" vol="87" pan="0" pos="552" len="12"/>
          <note key="59" vol="87" pan="0" pos="564" len="6"/>
          <note key="59" vol="87" pan="0" pos="570" len="6"/>
          <note key="59" vol="100" pan="0" pos="576" len="12"/>
          <note key="59" vol="61" pan="0" pos="588" len="12"/>
          <note key="59" vol="61" pan="0" pos="600" len="12"/>
          <note key="59" vol="100" pan="0" pos="612" len="12"/>
          <note key="59" vol="61" pan="0" pos="624" len="12"/>
          <note key="59" vol="61" pan="0" pos="636" len="12"/>
          <note key="59" vol="93" pan="0" pos="648" len="12"/>
          <note key="59" vol="55" pan="0" pos="660" len="12"/>
          <note key="59" vol="61" pan="0" pos="672" len="12"/>
          <note key="59" vol="87" pan="0" pos="684" len="12"/>
          <note key="59" vol="48" pan="0" pos="696" len="12"/>
          <note key="59" vol="87" pan="0" pos="708" len="12"/>
          <note key="57" vol="87" pan="0" pos="720" len="24"/>
          <note key="59" vol="87" pan="0" pos="744" len="24"/>
        </pattern>
        <pattern name="Gt.Harmonics" pos="4224" type="1" muted="0" steps="16">
          <note key="57" vol="100" pan="0" pos="0" len="24"/>
          <note key="56" vol="100" pan="0" pos="24" len="24"/>
          <note key="56" vol="100" pan="0" pos="96" len="24"/>
          <note key="55" vol="100" pan="0" pos="144" len="240"/>
          <note key="57" vol="100" pan="0" pos="384" len="24"/>
          <note key="56" vol="100" pan="0" pos="408" len="24"/>
          <note key="56" vol="100" pan="0" pos="480" len="24"/>
          <note key="55" vol="100" pan="0" pos="528" len="240"/>
        </pattern>
        <pattern name="Gt.Harmonics" pos="4992" type="1" muted="0" steps="16">
          <note key="57" vol="100" pan="0" pos="0" len="24"/>
          <note key="56" vol="100" pan="0" pos="24" len="24"/>
          <note key="56" vol="100" pan="0" pos="96" len="24"/>
          <note key="55" vol="100" pan="0" pos="144" len="240"/>
          <note key="57" vol="100" pan="0" pos="384" len="24"/>
          <note key="56" vol="100" pan="0" pos="408" len="24"/>
          <note key="56" vol="100" pan="0" pos="480" len="24"/>
          <note key="55" vol="100" pan="0" pos="528" len="240"/>
        </pattern>
        <pattern name="Gt.Harmonics" pos="9600" type="1" muted="0" steps="16">
          <note key="59" vol="100" pan="0" pos="0" len="12"/>
          <note key="59" vol="61" pan="0" pos="12" len="12"/>
          <note key="59" vol="61" pan="0" pos="24" len="12"/>
          <note key="59" vol="100" pan="0" pos="36" len="12"/>
          <note key="59" vol="61" pan="0" pos="48" len="12"/>
          <note key="59" vol="61" pan="0" pos="60" len="12"/>
          <note key="59" vol="93" pan="0" pos="72" len="12"/>
          <note key="59" vol="55" pan="0" pos="84" len="12"/>
          <note key="59" vol="61" pan="0" pos="96" len="12"/>
          <note key="59" vol="87" pan="0" pos="108" len="12"/>
          <note key="59" vol="48" pan="0" pos="120" len="12"/>
          <note key="59" vol="87" pan="0" pos="132" len="12"/>
          <note key="60" vol="100" pan="0" pos="144" len="24"/>
          <note key="59" vol="87" pan="0" pos="168" len="12"/>
          <note key="59" vol="87" pan="0" pos="180" len="6"/>
          <note key="59" vol="87" pan="0" pos="186" len="6"/>
          <note key="59" vol="100" pan="0" pos="192" len="12"/>
          <note key="59" vol="61" pan="0" pos="204" len="12"/>
          <note key="59" vol="61" pan="0" pos="216" len="12"/>
          <note key="59" vol="100" pan="0" pos="228" len="12"/>
          <note key="59" vol="61" pan="0" pos="240" len="12"/>
          <note key="59" vol="61" pan="0" pos="252" len="12"/>
          <note key="59" vol="93" pan="0" pos="264" len="12"/>
          <note key="59" vol="55" pan="0" pos="276" len="12"/>
          <note key="59" vol="61" pan="0" pos="288" len="12"/>
          <note key="59" vol="87" pan="0" pos="300" len="12"/>
          <note key="59" vol="48" pan="0" pos="312" len="12"/>
          <note key="59" vol="87" pan="0" pos="324" len="12"/>
          <note key="57" vol="87" pan="0" pos="336" len="24"/>
          <note key="59" vol="87" pan="0" pos="360" len="24"/>
          <note key="59" vol="100" pan="0" pos="384" len="12"/>
          <note key="59" vol="61" pan="0" pos="396" len="12"/>
          <note key="59" vol="61" pan="0" pos="408" len="12"/>
          <note key="59" vol="100" pan="0" pos="420" len="12"/>
          <note key="59" vol="61" pan="0" pos="432" len="12"/>
          <note key="59" vol="61" pan="0" pos="444" len="12"/>
          <note key="59" vol="93" pan="0" pos="456" len="12"/>
          <note key="59" vol="55" pan="0" pos="468" len="12"/>
          <note key="59" vol="61" pan="0" pos="480" len="12"/>
          <note key="59" vol="87" pan="0" pos="492" len="12"/>
          <note key="59" vol="48" pan="0" pos="504" len="12"/>
          <note key="59" vol="87" pan="0" pos="516" len="12"/>
          <note key="60" vol="100" pan="0" pos="528" len="24"/>
          <note key="59" vol="87" pan="0" pos="552" len="12"/>
          <note key="59" vol="87" pan="0" pos="564" len="6"/>
          <note key="59" vol="87" pan="0" pos="570" len="6"/>
          <note key="59" vol="100" pan="0" pos="576" len="12"/>
          <note key="59" vol="61" pan="0" pos="588" len="12"/>
          <note key="59" vol="61" pan="0" pos="600" len="12"/>
          <note key="59" vol="100" pan="0" pos="612" len="12"/>
          <note key="59" vol="61" pan="0" pos="624" len="12"/>
          <note key="59" vol="61" pan="0" pos="636" len="12"/>
          <note key="59" vol="93" pan="0" pos="648" len="12"/>
          <note key="59" vol="55" pan="0" pos="660" len="12"/>
          <note key="59" vol="61" pan="0" pos="672" len="12"/>
          <note key="59" vol="87" pan="0" pos="684" len="12"/>
          <note key="59" vol="48" pan="0" pos="696" len="12"/>
          <note key="59" vol="87" pan="0" pos="708" len="12"/>
          <note key="57" vol="87" pan="0" pos="720" len="24"/>
          <note key="59" vol="87" pan="0" pos="744" len="24"/>
        </pattern>
        <pattern name="Gt.Harmonics" pos="10368" type="1" muted="0" steps="16">
          <note key="59" vol="100" pan="0" pos="0" len="12"/>
          <note key="59" vol="61" pan="0" pos="12" len="12"/>
          <note key="59" vol="61" pan="0" pos="24" len="12"/>
          <note key="59" vol="100" pan="0" pos="36" len="12"/>
          <note key="59" vol="61" pan="0" pos="48" len="12"/>
          <note key="59" vol="61" pan="0" pos="60" len="12"/>
          <note key="59" vol="93" pan="0" pos="72" len="12"/>
          <note key="59" vol="55" pan="0" pos="84" len="12"/>
          <note key="59" vol="61" pan="0" pos="96" len="12"/>
          <note key="59" vol="87" pan="0" pos="108" len="12"/>
          <note key="59" vol="48" pan="0" pos="120" len="12"/>
          <note key="59" vol="87" pan="0" pos="132" len="12"/>
          <note key="60" vol="100" pan="0" pos="144" len="24"/>
          <note key="59" vol="87" pan="0" pos="168" len="12"/>
          <note key="59" vol="87" pan="0" pos="180" len="6"/>
          <note key="59" vol="87" pan="0" pos="186" len="6"/>
          <note key="59" vol="100" pan="0" pos="192" len="12"/>
          <note key="59" vol="61" pan="0" pos="204" len="12"/>
          <note key="59" vol="61" pan="0" pos="216" len="12"/>
          <note key="59" vol="100" pan="0" pos="228" len="12"/>
          <note key="59" vol="61" pan="0" pos="240" len="12"/>
          <note key="59" vol="61" pan="0" pos="252" len="12"/>
          <note key="59" vol="93" pan="0" pos="264" len="12"/>
          <note key="59" vol="55" pan="0" pos="276" len="12"/>
          <note key="59" vol="61" pan="0" pos="288" len="12"/>
          <note key="59" vol="87" pan="0" pos="300" len="12"/>
          <note key="59" vol="48" pan="0" pos="312" len="12"/>
          <note key="59" vol="87" pan="0" pos="324" len="12"/>
          <note key="57" vol="87" pan="0" pos="336" len="24"/>
          <note key="59" vol="87" pan="0" pos="360" len="24"/>
          <note key="59" vol="100" pan="0" pos="384" len="12"/>
          <note key="59" vol="61" pan="0" pos="396" len="12"/>
          <note key="59" vol="61" pan="0" pos="408" len="12"/>
          <note key="59" vol="100" pan="0" pos="420" len="12"/>
          <note key="59" vol="61" pan="0" pos="432" len="12"/>
          <note key="59" vol="61" pan="0" pos="444" len="12"/>
          <note key="59" vol="93" pan="0" pos="456" len="12"/>
          <note key="59" vol="55" pan="0" pos="468" len="12"/>
          <note key="59" vol="61" pan="0" pos="480" len="12"/>
          <note key="59" vol="87" pan="0" pos="492" len="12"/>
          <note key="59" vol="48" pan="0" pos="504" len="12"/>
          <note key="59" vol="87" pan="0" pos="516" len="12"/>
          <note key="60" vol="100" pan="0" pos="528" len="24"/>
          <note key="59" vol="87" pan="0" pos="552" len="12"/>
          <note key="59" vol="87" pan="0" pos="564" len="6"/>
          <note key="59" vol="87" pan="0" pos="570" len="6"/>
          <note key="59" vol="100" pan="0" pos="576" len="12"/>
          <note key="59" vol="61" pan="0" pos="588" len="12"/>
          <note key="59" vol="61" pan="0" pos="600" len="12"/>
          <note key="59" vol="100" pan="0" pos="612" len="12"/>
          <note key="59" vol="61" pan="0" pos="624" len="12"/>
          <note key="59" vol="61" pan="0" pos="636" len="12"/>
          <note key="59" vol="93" pan="0" pos="648" len="12"/>
          <note key="59" vol="55" pan="0" pos="660" len="12"/>
          <note key="59" vol="61" pan="0" pos="672" len="12"/>
          <note key="59" vol="87" pan="0" pos="684" len="12"/>
          <note key="59" vol="48" pan="0" pos="696" len="12"/>
          <note key="59" vol="87" pan="0" pos="708" len="12"/>
          <note key="57" vol="87" pan="0" pos="720" len="24"/>
          <note key="59" vol="87" pan="0" pos="744" len="24"/>
        </pattern>
        <pattern name="Gt.Harmonics" pos="11136" type="1" muted="0" steps="16">
          <note key="59" vol="100" pan="0" pos="0" len="12"/>
          <note key="59" vol="61" pan="0" pos="12" len="12"/>
          <note key="59" vol="61" pan="0" pos="24" len="12"/>
          <note key="59" vol="100" pan="0" pos="36" len="12"/>
          <note key="59" vol="61" pan="0" pos="48" len="12"/>
          <note key="59" vol="61" pan="0" pos="60" len="12"/>
          <note key="59" vol="93" pan="0" pos="72" len="12"/>
          <note key="59" vol="55" pan="0" pos="84" len="12"/>
          <note key="59" vol="61" pan="0" pos="96" len="12"/>
          <note key="59" vol="87" pan="0" pos="108" len="12"/>
          <note key="59" vol="48" pan="0" pos="120" len="12"/>
          <note key="59" vol="87" pan="0" pos="132" len="12"/>
          <note key="60" vol="100" pan="0" pos="144" len="24"/>
          <note key="59" vol="87" pan="0" pos="168" len="12"/>
          <note key="59" vol="87" pan="0" pos="180" len="6"/>
          <note key="59" vol="87" pan="0" pos="186" len="6"/>
          <note key="59" vol="100" pan="0" pos="192" len="12"/>
          <note key="59" vol="61" pan="0" pos="204" len="12"/>
          <note key="59" vol="61" pan="0" pos="216" len="12"/>
          <note key="59" vol="100" pan="0" pos="228" len="12"/>
          <note key="59" vol="61" pan="0" pos="240" len="12"/>
          <note key="59" vol="61" pan="0" pos="252" len="12"/>
          <note key="59" vol="93" pan="0" pos="264" len="12"/>
          <note key="59" vol="55" pan="0" pos="276" len="12"/>
          <note key="59" vol="61" pan="0" pos="288" len="12"/>
          <note key="59" vol="87" pan="0" pos="300" len="12"/>
          <note key="59" vol="48" pan="0" pos="312" len="12"/>
          <note key="59" vol="87" pan="0" pos="324" len="12"/>
          <note key="57" vol="87" pan="0" pos="336" len="24"/>
          <note key="59" vol="87" pan="0" pos="360" len="24"/>
          <note key="59" vol="100" pan="0" pos="384" len="12"/>
          <note key="59" vol="61" pan="0" pos="396" len="12"/>
          <note key="59" vol="61" pan="0" pos="408" len="12"/>
          <note key="59" vol="100" pan="0" pos="420" len="12"/>
          <note key="59" vol="61" pan="0" pos="432" len="12"/>
          <note key="59" vol="61" pan="0" pos="444" len="12"/>
          <note key="59" vol="93" pan="0" pos="456" len="12"/>
          <note key="59" vol="55" pan="0" pos="468" len="12"/>
          <note key="59" vol="61" pan="0" pos="480" len="12"/>
          <note key="59" vol="87" pan="0" pos="492" len="12"/>
          <note key="59" vol="48" pan="0" pos="504" len="12"/>
          <note key="59" vol="87" pan="0" pos="516" len="12"/>
          <note key="60" vol="100" pan="0" pos="528" len="24"/>
          <note key="59" vol="87" pan="0" pos="552" len="12"/>
          <note key="59" vol="87" pan="0" pos="564" len="6"/>
          <note key="59" vol="87" pan="0" pos="570" len="6"/>
          <note key="59" vol="100" pan="0" pos="576" len="12"/>
          <note key="59" vol="61" pan="0" pos="588" len="12"/>
          <note key="59" vol="61" pan="0" pos="600" len="12"/>
          <note key="59" vol="100" pan="0" pos="612" len="12"/>
          <note key="59" vol="61" pan="0" pos="624" len="12"/>
          <note key="59" vol="61" pan="0" pos="636" len="12"/>
          <note key="59" vol="93" pan="0" pos="648" len="12"/>
          <note key="59" vol="55" pan="0" pos="660" len="12"/>
          <note key="59" vol="61" pan="0" pos="672" len="12"/>
          <note key="59" vol="87" pan="0" pos="684" len="12"/>
          <note key="59" vol="48" pan="0" pos="696" len="12"/>
          <note key="59" vol="87" pan="0" pos="708" len="12"/>
          <note key="57" vol="87" pan="0" pos="720" len="24"/>
          <note key="59" vol="87" pan="0" pos="744" len="24"/>
        </pattern>
        <pattern name="Gt.Harmonics" pos="11904" type="1" muted="0" steps="16">
          <note key="59" vol="100" pan="0" pos="0" len="12"/>
          <note key="59" vol="61" pan="0" pos="12" len="12"/>
          <note key="59" vol="61" pan="0" pos="24" len="12"/>
          <note key="59" vol="100" pan="0" pos="36" len="12"/>
          <note key="59" vol="61" pan="0" pos="48" len="12"/>
          <note key="59" vol="61" pan="0" pos="60" len="12"/>
          <note key="59" vol="93" pan="0" pos="72" len="12"/>
          <note key="59" vol="55" pan="0" pos="84" len="12"/>
          <note key="59" vol="61" pan="0" pos="96" len="12"/>
          <note key="59" vol="87" pan="0" pos="108" len="12"/>
          <note key="59" vol="48" pan="0" pos="120" len="12"/>
          <note key="59" vol="87" pan="0" pos="132" len="12"/>
          <note key="60" vol="100" pan="0" pos="144" len="24"/>
          <note key="59" vol="87" pan="0" pos="168" len="12"/>
          <note key="59" vol="87" pan="0" pos="180" len="6"/>
          <note key="59" vol="87" pan="0" pos="186" len="6"/>
          <note key="59" vol="100" pan="0" pos="192" len="12"/>
          <note key="59" vol="61" pan="0" pos="204" len="12"/>
          <note key="59" vol="61" pan="0" pos="216" len="12"/>
          <note key="59" vol="100" pan="0" pos="228" len="12"/>
          <note key="59" vol="61" pan="0" pos="240" len="12"/>
          <note key="59" vol="61" pan="0" pos="252" len="12"/>
          <note key="59" vol="93" pan="0" pos="264" len="12"/>
          <note key="59" vol="55" pan="0" pos="276" len="12"/>
          <note key="59" vol="61" pan="0" pos="288" len="12"/>
          <note key="59" vol="87" pan="0" pos="300" len="12"/>
          <note key="59" vol="48" pan="0" pos="312" len="12"/>
          <note key="59" vol="87" pan="0" pos="324" len="12"/>
          <note key="57" vol="87" pan="0" pos="336" len="24"/>
          <note key="59" vol="87" pan="0" pos="360" len="24"/>
          <note key="59" vol="100" pan="0" pos="384" len="12"/>
          <note key="59" vol="61" pan="0" pos="396" len="12"/>
          <note key="59" vol="61" pan="0" pos="408" len="12"/>
          <note key="59" vol="100" pan="0" pos="420" len="12"/>
          <note key="59" vol="61" pan="0" pos="432" len="12"/>
          <note key="59" vol="61" pan="0" pos="444" len="12"/>
          <note key="59" vol="93" pan="0" pos="456" len="12"/>
          <note key="59" vol="55" pan="0" pos="468" len="12"/>
          <note key="59" vol="61" pan="0" pos="480" len="12"/>
          <note key="59" vol="87" pan="0" pos="492" len="12"/>
          <note key="59" vol="48" pan="0" pos="504" len="12"/>
          <note key="59" vol="87" pan="0" pos="516" len="12"/>
          <note key="60" vol="100" pan="0" pos="528" len="24"/>
          <note key="59" vol="87" pan="0" pos="552" len="12"/>
          <note key="59" vol="87" pan="0" pos="564" len="6"/>
          <note key="59" vol="87" pan="0" pos="570" len="6"/>
          <note key="59" vol="100" pan="0" pos="576" len="12"/>
          <note key="59" vol="61" pan="0" pos="588" len="12"/>
          <note key="59" vol="61" pan="0" pos="600" len="12"/>
          <note key="59" vol="100" pan="0" pos="612" len="12"/>
          <note key="59" vol="61" pan="0" pos="624" len="12"/>
          <note key="59" vol="61" pan="0" pos="636" len="12"/>
          <note key="59" vol="93" pan="0" pos="648" len="12"/>
          <note key="59" vol="55" pan="0" pos="660" len="12"/>
          <note key="59" vol="61" pan="0" pos="672" len="12"/>
          <note key="59" vol="87" pan="0" pos="684" len="12"/>
          <note key="59" vol="48" pan="0" pos="696" len="12"/>
          <note key="59" vol="87" pan="0" pos="708" len="12"/>
          <note key="57" vol="87" pan="0" pos="720" len="24"/>
          <note key="59" vol="87" pan="0" pos="744" len="24"/>
        </pattern>
        <pattern name="Gt.Harmonics" pos="12672" type="1" muted="0" steps="16">
          <note key="57" vol="100" pan="0" pos="0" len="24"/>
          <note key="56" vol="100" pan="0" pos="24" len="24"/>
          <note key="56" vol="100" pan="0" pos="96" len="24"/>
          <note key="55" vol="100" pan="0" pos="144" len="240"/>
          <note key="57" vol="100" pan="0" pos="384" len="24"/>
          <note key="56" vol="100" pan="0" pos="408" len="24"/>
          <note key="56" vol="100" pan="0" pos="480" len="24"/>
          <note key="55" vol="100" pan="0" pos="528" len="240"/>
        </pattern>
        <pattern name="Gt.Harmonics" pos="13440" type="1" muted="0" steps="16">
          <note key="57" vol="100" pan="0" pos="0" len="24"/>
          <note key="56" vol="100" pan="0" pos="24" len="24"/>
          <note key="56" vol="100" pan="0" pos="96" len="24"/>
          <note key="55" vol="100" pan="0" pos="144" len="240"/>
          <note key="57" vol="100" pan="0" pos="384" len="24"/>
          <note key="56" vol="100" pan="0" pos="408" len="24"/>
          <note key="56" vol="100" pan="0" pos="480" len="24"/>
          <note key="55" vol="100" pan="0" pos="528" len="240"/>
        </pattern>
        <pattern name="Gt.Harmonics" pos="14208" type="1" muted="0" steps="16">
          <note key="57" vol="100" pan="0" pos="0" len="24"/>
          <note key="56" vol="100" pan="0" pos="24" len="24"/>
          <note key="56" vol="100" pan="0" pos="96" len="24"/>
          <note key="55" vol="100" pan="0" pos="144" len="240"/>
          <note key="57" vol="100" pan="0" pos="384" len="24"/>
          <note key="56" vol="100" pan="0" pos="408" len="24"/>
          <note key="56" vol="100" pan="0" pos="480" len="24"/>
          <note key="55" vol="100" pan="0" pos="528" len="240"/>
        </pattern>
        <pattern name="Gt.Harmonics" pos="14976" type="1" muted="0" steps="16">
          <note key="57" vol="100" pan="0" pos="0" len="24"/>
          <note key="56" vol="100" pan="0" pos="24" len="24"/>
          <note key="56" vol="100" pan="0" pos="96" len="24"/>
          <note key="55" vol="100" pan="0" pos="144" len="240"/>
          <note key="57" vol="100" pan="0" pos="384" len="24"/>
          <note key="56" vol="100" pan="0" pos="408" len="24"/>
          <note key="63" vol="100" pan="0" pos="480" len="24"/>
          <note key="47" vol="100" pan="0" pos="528" len="624"/>
        </pattern>
      </track>
      <track name="Dirty Reece" type="0" muted="0" solo="0">
        <instrumenttrack vol="26.800001" pan="52" pitch="0" usemasterpitch="1" fxch="2" basenote="57" pitchrange="1">
          <instrument name="tripleoscillator">
            <tripleoscillator wavetype0="2" coarse1="-24" userwavefile2="" finer1="-15" stphdetun0="0" vol0="33" stphdetun1="0" finer2="20" pan2="0" modalgo2="2" coarse2="-12" finel2="20" phoffset1="0" userwavefile0="" vol2="33" finel1="-14" pan1="0" coarse0="-24" phoffset0="0" wavetype1="2" phoffset2="0" wavetype2="2" vol1="33" finer0="14" stphdetun2="0" pan0="0" modalgo1="2" modalgo3="2" userwavefile1="" finel0="15"/>
          </instrument>
          <eldata ftype="0" fres="2" fwet="1" fcut="13720">
            <elvol lamt="0" sustain="0.5" pdel="0" latt="0" dec="0.5" lspd_numerator="4" amt="0" userwavefile="" rel="0.1" lspd_denominator="4" lpdel="0" lspd="0.1" lshp="0" hold="0.5" att="0" ctlenvamt="0" lspd_syncmode="0" x100="0"/>
            <elcut lamt="0" sustain="0.5" pdel="0" latt="0" dec="0.5" lspd_numerator="4" amt="0" userwavefile="" rel="0.1" lspd_denominator="4" lpdel="0" lspd="0.1" lshp="0" hold="0.5" att="0" ctlenvamt="0" lspd_syncmode="0" x100="0"/>
            <elres lamt="0" sustain="0.5" pdel="0" latt="0" dec="0.5" lspd_numerator="4" amt="1" userwavefile="" rel="0.1" lspd_denominator="4" lpdel="0" lspd="0.1" lshp="0" hold="0.5" att="0" ctlenvamt="0" lspd_syncmode="0" x100="0"/>
          </eldata>
          <chordcreator chordrange="1" chord-enabled="0" chord="0"/>
          <arpeggiator arpmiss="0" arptime_numerator="4" arptime_syncmode="0" arpgate="100" arptime="100" arpcycle="0" arptime_denominator="4" arp="0" arpmode="0" arprange="1" arp-enabled="0" arpskip="0" arpdir="0"/>
          <midiport outputchannel="1" fixedoutputnote="-1" writable="0" inputchannel="0" inputcontroller="0" outputcontroller="0" fixedinputvelocity="-1" outputprogram="1" readable="0" basevelocity="63" fixedoutputvelocity="-1"/>
          <fxchain numofeffects="5" enabled="1">
            <effect wet="1" autoquit_numerator="4" name="ladspaeffect" autoquit_syncmode="0" on="1" autoquit="8000" gate="0" autoquit_denominator="4">
              <ladspacontrols ports="12">
                <port04 data="3.168"/>
                <port05 data="9.9989996"/>
                <port06 data="0.69964999"/>
                <port07 data="180"/>
                <port08 data="4"/>
                <port09 data="212.39999"/>
                <port010 data="2"/>
                <port011 data="1"/>
                <port012 data="99.949997"/>
                <port013 data="2998.5"/>
                <port014 data="0.125"/>
                <port015 data="0.38"/>
              </ladspacontrols>
              <key>
                <attribute name="file" value="calf"/>
                <attribute name="plugin" value="MultiChorus"/>
              </key>
            </effect>
            <effect wet="1" autoquit_numerator="4" name="ladspaeffect" autoquit_syncmode="0" on="0" autoquit="8000" gate="0" autoquit_denominator="4">
              <ladspacontrols ports="7">
                <port00 data="2.8"/>
                <port01 data="90"/>
                <port02 data="100"/>
                <port03 data="0"/>
                <port04 data="20"/>
                <port05 data="0"/>
                <port06 data="0"/>
              </ladspacontrols>
              <key>
                <attribute name="file" value="tap_chorusflanger"/>
                <attribute name="plugin" value="tap_chorusflanger"/>
              </key>
            </effect>
            <effect wet="1" autoquit_numerator="4" name="ladspaeffect" autoquit_syncmode="0" on="0" autoquit="8000" gate="0" autoquit_denominator="4">
              <ladspacontrols ports="4">
                <port02 data="0.50196999"/>
                <port03 data="0.37450001"/>
                <port04 data="0.99949998"/>
                <port05 data="0.25"/>
              </ladspacontrols>
              <key>
                <attribute name="file" value="caps"/>
                <attribute name="plugin" value="Plate2x2"/>
              </key>
            </effect>
            <effect wet="1" autoquit_numerator="4" name="ladspaeffect" autoquit_syncmode="0" on="1" autoquit="8000" gate="0" autoquit_denominator="4">
              <ladspacontrols link="1" ports="6">
                <port00 data="-3" link="1"/>
                <port01 data="1" link="1"/>
                <port02 data="0" link="1"/>
                <port10 data="-3"/>
                <port11 data="1"/>
                <port12 data="0"/>
              </ladspacontrols>
              <key>
                <attribute name="file" value="hard_limiter_1413"/>
                <attribute name="plugin" value="hardLimiter"/>
              </key>
            </effect>
            <effect wet="1" autoquit_numerator="4" name="ladspaeffect" autoquit_syncmode="0" on="1" autoquit="1" gate="0" autoquit_denominator="4">
              <ladspacontrols ports="9">
                <port04 data="0"/>
                <port05 data="1"/>
                <port06 data="1"/>
                <port015 data="0"/>
                <port016>
                  <data id="3370038" value="1" scale_type="log"/>
                </port016>
                <port017 data="0.69999999"/>
                <port018 data="0.5"/>
                <port019 data="0"/>
                <port020 data="0"/>
              </ladspacontrols>
              <key>
                <attribute name="file" value="calf"/>
                <attribute name="plugin" value="Pulsator"/>
              </key>
            </effect>
          </fxchain>
        </instrumenttrack>
        <pattern name="Dirty Reece" pos="2688" type="1" muted="0" steps="16">
          <note key="47" vol="100" pan="0" pos="0" len="12"/>
          <note key="47" vol="61" pan="0" pos="12" len="12"/>
          <note key="47" vol="61" pan="0" pos="24" len="12"/>
          <note key="47" vol="100" pan="0" pos="36" len="12"/>
          <note key="47" vol="61" pan="0" pos="48" len="12"/>
          <note key="47" vol="61" pan="0" pos="60" len="12"/>
          <note key="47" vol="93" pan="0" pos="72" len="12"/>
          <note key="47" vol="55" pan="0" pos="84" len="12"/>
          <note key="47" vol="61" pan="0" pos="96" len="12"/>
          <note key="47" vol="87" pan="0" pos="108" len="12"/>
          <note key="47" vol="48" pan="0" pos="120" len="12"/>
          <note key="47" vol="87" pan="0" pos="132" len="12"/>
          <note key="48" vol="100" pan="0" pos="144" len="24"/>
          <note key="47" vol="87" pan="0" pos="168" len="12"/>
          <note key="47" vol="87" pan="0" pos="180" len="6"/>
          <note key="47" vol="87" pan="0" pos="186" len="6"/>
          <note key="47" vol="100" pan="0" pos="192" len="12"/>
          <note key="47" vol="61" pan="0" pos="204" len="12"/>
          <note key="47" vol="61" pan="0" pos="216" len="12"/>
          <note key="47" vol="100" pan="0" pos="228" len="12"/>
          <note key="47" vol="61" pan="0" pos="240" len="12"/>
          <note key="47" vol="61" pan="0" pos="252" len="12"/>
          <note key="47" vol="93" pan="0" pos="264" len="12"/>
          <note key="47" vol="55" pan="0" pos="276" len="12"/>
          <note key="47" vol="61" pan="0" pos="288" len="12"/>
          <note key="47" vol="87" pan="0" pos="300" len="12"/>
          <note key="47" vol="48" pan="0" pos="312" len="12"/>
          <note key="47" vol="87" pan="0" pos="324" len="12"/>
          <note key="45" vol="87" pan="0" pos="336" len="24"/>
          <note key="47" vol="87" pan="0" pos="360" len="24"/>
          <note key="47" vol="100" pan="0" pos="384" len="12"/>
          <note key="47" vol="61" pan="0" pos="396" len="12"/>
          <note key="47" vol="61" pan="0" pos="408" len="12"/>
          <note key="47" vol="100" pan="0" pos="420" len="12"/>
          <note key="47" vol="61" pan="0" pos="432" len="12"/>
          <note key="47" vol="61" pan="0" pos="444" len="12"/>
          <note key="47" vol="93" pan="0" pos="456" len="12"/>
          <note key="47" vol="55" pan="0" pos="468" len="12"/>
          <note key="47" vol="61" pan="0" pos="480" len="12"/>
          <note key="47" vol="87" pan="0" pos="492" len="12"/>
          <note key="47" vol="48" pan="0" pos="504" len="12"/>
          <note key="47" vol="87" pan="0" pos="516" len="12"/>
          <note key="48" vol="100" pan="0" pos="528" len="24"/>
          <note key="47" vol="87" pan="0" pos="552" len="12"/>
          <note key="47" vol="87" pan="0" pos="564" len="6"/>
          <note key="47" vol="87" pan="0" pos="570" len="6"/>
          <note key="47" vol="100" pan="0" pos="576" len="12"/>
          <note key="47" vol="61" pan="0" pos="588" len="12"/>
          <note key="47" vol="61" pan="0" pos="600" len="12"/>
          <note key="47" vol="100" pan="0" pos="612" len="12"/>
          <note key="47" vol="61" pan="0" pos="624" len="12"/>
          <note key="47" vol="61" pan="0" pos="636" len="12"/>
          <note key="47" vol="93" pan="0" pos="648" len="12"/>
          <note key="47" vol="55" pan="0" pos="660" len="12"/>
          <note key="47" vol="61" pan="0" pos="672" len="12"/>
          <note key="47" vol="87" pan="0" pos="684" len="12"/>
          <note key="47" vol="48" pan="0" pos="696" len="12"/>
          <note key="47" vol="87" pan="0" pos="708" len="12"/>
          <note key="45" vol="87" pan="0" pos="720" len="24"/>
          <note key="47" vol="87" pan="0" pos="744" len="24"/>
        </pattern>
        <pattern name="Dirty Reece" pos="3456" type="1" muted="0" steps="16">
          <note key="47" vol="100" pan="0" pos="0" len="12"/>
          <note key="47" vol="61" pan="0" pos="12" len="12"/>
          <note key="47" vol="61" pan="0" pos="24" len="12"/>
          <note key="47" vol="100" pan="0" pos="36" len="12"/>
          <note key="47" vol="61" pan="0" pos="48" len="12"/>
          <note key="47" vol="61" pan="0" pos="60" len="12"/>
          <note key="47" vol="93" pan="0" pos="72" len="12"/>
          <note key="47" vol="55" pan="0" pos="84" len="12"/>
          <note key="47" vol="61" pan="0" pos="96" len="12"/>
          <note key="47" vol="87" pan="0" pos="108" len="12"/>
          <note key="47" vol="48" pan="0" pos="120" len="12"/>
          <note key="47" vol="87" pan="0" pos="132" len="12"/>
          <note key="48" vol="100" pan="0" pos="144" len="24"/>
          <note key="47" vol="87" pan="0" pos="168" len="12"/>
          <note key="47" vol="87" pan="0" pos="180" len="6"/>
          <note key="47" vol="87" pan="0" pos="186" len="6"/>
          <note key="47" vol="100" pan="0" pos="192" len="12"/>
          <note key="47" vol="61" pan="0" pos="204" len="12"/>
          <note key="47" vol="61" pan="0" pos="216" len="12"/>
          <note key="47" vol="100" pan="0" pos="228" len="12"/>
          <note key="47" vol="61" pan="0" pos="240" len="12"/>
          <note key="47" vol="61" pan="0" pos="252" len="12"/>
          <note key="47" vol="93" pan="0" pos="264" len="12"/>
          <note key="47" vol="55" pan="0" pos="276" len="12"/>
          <note key="47" vol="61" pan="0" pos="288" len="12"/>
          <note key="47" vol="87" pan="0" pos="300" len="12"/>
          <note key="47" vol="48" pan="0" pos="312" len="12"/>
          <note key="47" vol="87" pan="0" pos="324" len="12"/>
          <note key="45" vol="87" pan="0" pos="336" len="24"/>
          <note key="47" vol="87" pan="0" pos="360" len="24"/>
          <note key="47" vol="100" pan="0" pos="384" len="12"/>
          <note key="47" vol="61" pan="0" pos="396" len="12"/>
          <note key="47" vol="61" pan="0" pos="408" len="12"/>
          <note key="47" vol="100" pan="0" pos="420" len="12"/>
          <note key="47" vol="61" pan="0" pos="432" len="12"/>
          <note key="47" vol="61" pan="0" pos="444" len="12"/>
          <note key="47" vol="93" pan="0" pos="456" len="12"/>
          <note key="47" vol="55" pan="0" pos="468" len="12"/>
          <note key="47" vol="61" pan="0" pos="480" len="12"/>
          <note key="47" vol="87" pan="0" pos="492" len="12"/>
          <note key="47" vol="48" pan="0" pos="504" len="12"/>
          <note key="47" vol="87" pan="0" pos="516" len="12"/>
          <note key="48" vol="100" pan="0" pos="528" len="24"/>
          <note key="47" vol="87" pan="0" pos="552" len="12"/>
          <note key="47" vol="87" pan="0" pos="564" len="6"/>
          <note key="47" vol="87" pan="0" pos="570" len="6"/>
          <note key="47" vol="100" pan="0" pos="576" len="12"/>
          <note key="47" vol="61" pan="0" pos="588" len="12"/>
          <note key="47" vol="61" pan="0" pos="600" len="12"/>
          <note key="47" vol="100" pan="0" pos="612" len="12"/>
          <note key="47" vol="61" pan="0" pos="624" len="12"/>
          <note key="47" vol="61" pan="0" pos="636" len="12"/>
          <note key="47" vol="93" pan="0" pos="648" len="12"/>
          <note key="47" vol="55" pan="0" pos="660" len="12"/>
          <note key="47" vol="61" pan="0" pos="672" len="12"/>
          <note key="47" vol="87" pan="0" pos="684" len="12"/>
          <note key="47" vol="48" pan="0" pos="696" len="12"/>
          <note key="47" vol="87" pan="0" pos="708" len="12"/>
          <note key="45" vol="87" pan="0" pos="720" len="24"/>
          <note key="47" vol="87" pan="0" pos="744" len="24"/>
        </pattern>
        <pattern name="Dirty Reece" pos="4224" type="1" muted="0" steps="16">
          <note key="57" vol="100" pan="0" pos="0" len="24"/>
          <note key="56" vol="100" pan="0" pos="24" len="24"/>
          <note key="56" vol="100" pan="0" pos="96" len="24"/>
          <note key="55" vol="100" pan="0" pos="144" len="240"/>
          <note key="57" vol="100" pan="0" pos="384" len="24"/>
          <note key="56" vol="100" pan="0" pos="408" len="24"/>
          <note key="56" vol="100" pan="0" pos="480" len="24"/>
          <note key="55" vol="100" pan="0" pos="528" len="240"/>
        </pattern>
        <pattern name="Dirty Reece" pos="4992" type="1" muted="0" steps="16">
          <note key="57" vol="100" pan="0" pos="0" len="24"/>
          <note key="56" vol="100" pan="0" pos="24" len="24"/>
          <note key="56" vol="100" pan="0" pos="96" len="24"/>
          <note key="55" vol="100" pan="0" pos="144" len="240"/>
          <note key="57" vol="100" pan="0" pos="384" len="24"/>
          <note key="56" vol="100" pan="0" pos="408" len="24"/>
          <note key="56" vol="100" pan="0" pos="480" len="24"/>
          <note key="55" vol="100" pan="0" pos="528" len="240"/>
        </pattern>
        <pattern name="Dirty Reece" pos="7296" type="1" muted="0" steps="16">
          <note key="47" vol="100" pan="0" pos="0" len="768"/>
        </pattern>
        <pattern name="Dirty Reece" pos="8064" type="1" muted="0" steps="16">
          <note key="47" vol="100" pan="0" pos="0" len="768"/>
        </pattern>
        <pattern name="Dirty Reece" pos="9600" type="1" muted="0" steps="16">
          <note key="47" vol="100" pan="0" pos="0" len="12"/>
          <note key="47" vol="61" pan="0" pos="12" len="12"/>
          <note key="47" vol="61" pan="0" pos="24" len="12"/>
          <note key="47" vol="100" pan="0" pos="36" len="12"/>
          <note key="47" vol="61" pan="0" pos="48" len="12"/>
          <note key="47" vol="61" pan="0" pos="60" len="12"/>
          <note key="47" vol="93" pan="0" pos="72" len="12"/>
          <note key="47" vol="55" pan="0" pos="84" len="12"/>
          <note key="47" vol="61" pan="0" pos="96" len="12"/>
          <note key="47" vol="87" pan="0" pos="108" len="12"/>
          <note key="47" vol="48" pan="0" pos="120" len="12"/>
          <note key="47" vol="87" pan="0" pos="132" len="12"/>
          <note key="48" vol="100" pan="0" pos="144" len="24"/>
          <note key="47" vol="87" pan="0" pos="168" len="12"/>
          <note key="47" vol="87" pan="0" pos="180" len="6"/>
          <note key="47" vol="87" pan="0" pos="186" len="6"/>
          <note key="47" vol="100" pan="0" pos="192" len="12"/>
          <note key="47" vol="61" pan="0" pos="204" len="12"/>
          <note key="47" vol="61" pan="0" pos="216" len="12"/>
          <note key="47" vol="100" pan="0" pos="228" len="12"/>
          <note key="47" vol="61" pan="0" pos="240" len="12"/>
          <note key="47" vol="61" pan="0" pos="252" len="12"/>
          <note key="47" vol="93" pan="0" pos="264" len="12"/>
          <note key="47" vol="55" pan="0" pos="276" len="12"/>
          <note key="47" vol="61" pan="0" pos="288" len="12"/>
          <note key="47" vol="87" pan="0" pos="300" len="12"/>
          <note key="47" vol="48" pan="0" pos="312" len="12"/>
          <note key="47" vol="87" pan="0" pos="324" len="12"/>
          <note key="45" vol="87" pan="0" pos="336" len="24"/>
          <note key="47" vol="87" pan="0" pos="360" len="24"/>
          <note key="47" vol="100" pan="0" pos="384" len="12"/>
          <note key="47" vol="61" pan="0" pos="396" len="12"/>
          <note key="47" vol="61" pan="0" pos="408" len="12"/>
          <note key="47" vol="100" pan="0" pos="420" len="12"/>
          <note key="47" vol="61" pan="0" pos="432" len="12"/>
          <note key="47" vol="61" pan="0" pos="444" len="12"/>
          <note key="47" vol="93" pan="0" pos="456" len="12"/>
          <note key="47" vol="55" pan="0" pos="468" len="12"/>
          <note key="47" vol="61" pan="0" pos="480" len="12"/>
          <note key="47" vol="87" pan="0" pos="492" len="12"/>
          <note key="47" vol="48" pan="0" pos="504" len="12"/>
          <note key="47" vol="87" pan="0" pos="516" len="12"/>
          <note key="48" vol="100" pan="0" pos="528" len="24"/>
          <note key="47" vol="87" pan="0" pos="552" len="12"/>
          <note key="47" vol="87" pan="0" pos="564" len="6"/>
          <note key="47" vol="87" pan="0" pos="570" len="6"/>
          <note key="47" vol="100" pan="0" pos="576" len="12"/>
          <note key="47" vol="61" pan="0" pos="588" len="12"/>
          <note key="47" vol="61" pan="0" pos="600" len="12"/>
          <note key="47" vol="100" pan="0" pos="612" len="12"/>
          <note key="47" vol="61" pan="0" pos="624" len="12"/>
          <note key="47" vol="61" pan="0" pos="636" len="12"/>
          <note key="47" vol="93" pan="0" pos="648" len="12"/>
          <note key="47" vol="55" pan="0" pos="660" len="12"/>
          <note key="47" vol="61" pan="0" pos="672" len="12"/>
          <note key="47" vol="87" pan="0" pos="684" len="12"/>
          <note key="47" vol="48" pan="0" pos="696" len="12"/>
          <note key="47" vol="87" pan="0" pos="708" len="12"/>
          <note key="45" vol="87" pan="0" pos="720" len="24"/>
          <note key="47" vol="87" pan="0" pos="744" len="24"/>
        </pattern>
        <pattern name="Dirty Reece" pos="10368" type="1" muted="0" steps="16">
          <note key="47" vol="100" pan="0" pos="0" len="12"/>
          <note key="47" vol="61" pan="0" pos="12" len="12"/>
          <note key="47" vol="61" pan="0" pos="24" len="12"/>
          <note key="47" vol="100" pan="0" pos="36" len="12"/>
          <note key="47" vol="61" pan="0" pos="48" len="12"/>
          <note key="47" vol="61" pan="0" pos="60" len="12"/>
          <note key="47" vol="93" pan="0" pos="72" len="12"/>
          <note key="47" vol="55" pan="0" pos="84" len="12"/>
          <note key="47" vol="61" pan="0" pos="96" len="12"/>
          <note key="47" vol="87" pan="0" pos="108" len="12"/>
          <note key="47" vol="48" pan="0" pos="120" len="12"/>
          <note key="47" vol="87" pan="0" pos="132" len="12"/>
          <note key="48" vol="100" pan="0" pos="144" len="24"/>
          <note key="47" vol="87" pan="0" pos="168" len="12"/>
          <note key="47" vol="87" pan="0" pos="180" len="6"/>
          <note key="47" vol="87" pan="0" pos="186" len="6"/>
          <note key="47" vol="100" pan="0" pos="192" len="12"/>
          <note key="47" vol="61" pan="0" pos="204" len="12"/>
          <note key="47" vol="61" pan="0" pos="216" len="12"/>
          <note key="47" vol="100" pan="0" pos="228" len="12"/>
          <note key="47" vol="61" pan="0" pos="240" len="12"/>
          <note key="47" vol="61" pan="0" pos="252" len="12"/>
          <note key="47" vol="93" pan="0" pos="264" len="12"/>
          <note key="47" vol="55" pan="0" pos="276" len="12"/>
          <note key="47" vol="61" pan="0" pos="288" len="12"/>
          <note key="47" vol="87" pan="0" pos="300" len="12"/>
          <note key="47" vol="48" pan="0" pos="312" len="12"/>
          <note key="47" vol="87" pan="0" pos="324" len="12"/>
          <note key="45" vol="87" pan="0" pos="336" len="24"/>
          <note key="47" vol="87" pan="0" pos="360" len="24"/>
          <note key="47" vol="100" pan="0" pos="384" len="12"/>
          <note key="47" vol="61" pan="0" pos="396" len="12"/>
          <note key="47" vol="61" pan="0" pos="408" len="12"/>
          <note key="47" vol="100" pan="0" pos="420" len="12"/>
          <note key="47" vol="61" pan="0" pos="432" len="12"/>
          <note key="47" vol="61" pan="0" pos="444" len="12"/>
          <note key="47" vol="93" pan="0" pos="456" len="12"/>
          <note key="47" vol="55" pan="0" pos="468" len="12"/>
          <note key="47" vol="61" pan="0" pos="480" len="12"/>
          <note key="47" vol="87" pan="0" pos="492" len="12"/>
          <note key="47" vol="48" pan="0" pos="504" len="12"/>
          <note key="47" vol="87" pan="0" pos="516" len="12"/>
          <note key="48" vol="100" pan="0" pos="528" len="24"/>
          <note key="47" vol="87" pan="0" pos="552" len="12"/>
          <note key="47" vol="87" pan="0" pos="564" len="6"/>
          <note key="47" vol="87" pan="0" pos="570" len="6"/>
          <note key="47" vol="100" pan="0" pos="576" len="12"/>
          <note key="47" vol="61" pan="0" pos="588" len="12"/>
          <note key="47" vol="61" pan="0" pos="600" len="12"/>
          <note key="47" vol="100" pan="0" pos="612" len="12"/>
          <note key="47" vol="61" pan="0" pos="624" len="12"/>
          <note key="47" vol="61" pan="0" pos="636" len="12"/>
          <note key="47" vol="93" pan="0" pos="648" len="12"/>
          <note key="47" vol="55" pan="0" pos="660" len="12"/>
          <note key="47" vol="61" pan="0" pos="672" len="12"/>
          <note key="47" vol="87" pan="0" pos="684" len="12"/>
          <note key="47" vol="48" pan="0" pos="696" len="12"/>
          <note key="47" vol="87" pan="0" pos="708" len="12"/>
          <note key="45" vol="87" pan="0" pos="720" len="24"/>
          <note key="47" vol="87" pan="0" pos="744" len="24"/>
        </pattern>
        <pattern name="Dirty Reece" pos="11136" type="1" muted="0" steps="16">
          <note key="47" vol="100" pan="0" pos="0" len="12"/>
          <note key="47" vol="61" pan="0" pos="12" len="12"/>
          <note key="47" vol="61" pan="0" pos="24" len="12"/>
          <note key="47" vol="100" pan="0" pos="36" len="12"/>
          <note key="47" vol="61" pan="0" pos="48" len="12"/>
          <note key="47" vol="61" pan="0" pos="60" len="12"/>
          <note key="47" vol="93" pan="0" pos="72" len="12"/>
          <note key="47" vol="55" pan="0" pos="84" len="12"/>
          <note key="47" vol="61" pan="0" pos="96" len="12"/>
          <note key="47" vol="87" pan="0" pos="108" len="12"/>
          <note key="47" vol="48" pan="0" pos="120" len="12"/>
          <note key="47" vol="87" pan="0" pos="132" len="12"/>
          <note key="48" vol="100" pan="0" pos="144" len="24"/>
          <note key="47" vol="87" pan="0" pos="168" len="12"/>
          <note key="47" vol="87" pan="0" pos="180" len="6"/>
          <note key="47" vol="87" pan="0" pos="186" len="6"/>
          <note key="47" vol="100" pan="0" pos="192" len="12"/>
          <note key="47" vol="61" pan="0" pos="204" len="12"/>
          <note key="47" vol="61" pan="0" pos="216" len="12"/>
          <note key="47" vol="100" pan="0" pos="228" len="12"/>
          <note key="47" vol="61" pan="0" pos="240" len="12"/>
          <note key="47" vol="61" pan="0" pos="252" len="12"/>
          <note key="47" vol="93" pan="0" pos="264" len="12"/>
          <note key="47" vol="55" pan="0" pos="276" len="12"/>
          <note key="47" vol="61" pan="0" pos="288" len="12"/>
          <note key="47" vol="87" pan="0" pos="300" len="12"/>
          <note key="47" vol="48" pan="0" pos="312" len="12"/>
          <note key="47" vol="87" pan="0" pos="324" len="12"/>
          <note key="45" vol="87" pan="0" pos="336" len="24"/>
          <note key="47" vol="87" pan="0" pos="360" len="24"/>
          <note key="47" vol="100" pan="0" pos="384" len="12"/>
          <note key="47" vol="61" pan="0" pos="396" len="12"/>
          <note key="47" vol="61" pan="0" pos="408" len="12"/>
          <note key="47" vol="100" pan="0" pos="420" len="12"/>
          <note key="47" vol="61" pan="0" pos="432" len="12"/>
          <note key="47" vol="61" pan="0" pos="444" len="12"/>
          <note key="47" vol="93" pan="0" pos="456" len="12"/>
          <note key="47" vol="55" pan="0" pos="468" len="12"/>
          <note key="47" vol="61" pan="0" pos="480" len="12"/>
          <note key="47" vol="87" pan="0" pos="492" len="12"/>
          <note key="47" vol="48" pan="0" pos="504" len="12"/>
          <note key="47" vol="87" pan="0" pos="516" len="12"/>
          <note key="48" vol="100" pan="0" pos="528" len="24"/>
          <note key="47" vol="87" pan="0" pos="552" len="12"/>
          <note key="47" vol="87" pan="0" pos="564" len="6"/>
          <note key="47" vol="87" pan="0" pos="570" len="6"/>
          <note key="47" vol="100" pan="0" pos="576" len="12"/>
          <note key="47" vol="61" pan="0" pos="588" len="12"/>
          <note key="47" vol="61" pan="0" pos="600" len="12"/>
          <note key="47" vol="100" pan="0" pos="612" len="12"/>
          <note key="47" vol="61" pan="0" pos="624" len="12"/>
          <note key="47" vol="61" pan="0" pos="636" len="12"/>
          <note key="47" vol="93" pan="0" pos="648" len="12"/>
          <note key="47" vol="55" pan="0" pos="660" len="12"/>
          <note key="47" vol="61" pan="0" pos="672" len="12"/>
          <note key="47" vol="87" pan="0" pos="684" len="12"/>
          <note key="47" vol="48" pan="0" pos="696" len="12"/>
          <note key="47" vol="87" pan="0" pos="708" len="12"/>
          <note key="45" vol="87" pan="0" pos="720" len="24"/>
          <note key="47" vol="87" pan="0" pos="744" len="24"/>
        </pattern>
        <pattern name="Dirty Reece" pos="11904" type="1" muted="0" steps="16">
          <note key="47" vol="100" pan="0" pos="0" len="12"/>
          <note key="47" vol="61" pan="0" pos="12" len="12"/>
          <note key="47" vol="61" pan="0" pos="24" len="12"/>
          <note key="47" vol="100" pan="0" pos="36" len="12"/>
          <note key="47" vol="61" pan="0" pos="48" len="12"/>
          <note key="47" vol="61" pan="0" pos="60" len="12"/>
          <note key="47" vol="93" pan="0" pos="72" len="12"/>
          <note key="47" vol="55" pan="0" pos="84" len="12"/>
          <note key="47" vol="61" pan="0" pos="96" len="12"/>
          <note key="47" vol="87" pan="0" pos="108" len="12"/>
          <note key="47" vol="48" pan="0" pos="120" len="12"/>
          <note key="47" vol="87" pan="0" pos="132" len="12"/>
          <note key="48" vol="100" pan="0" pos="144" len="24"/>
          <note key="47" vol="87" pan="0" pos="168" len="12"/>
          <note key="47" vol="87" pan="0" pos="180" len="6"/>
          <note key="47" vol="87" pan="0" pos="186" len="6"/>
          <note key="47" vol="100" pan="0" pos="192" len="12"/>
          <note key="47" vol="61" pan="0" pos="204" len="12"/>
          <note key="47" vol="61" pan="0" pos="216" len="12"/>
          <note key="47" vol="100" pan="0" pos="228" len="12"/>
          <note key="47" vol="61" pan="0" pos="240" len="12"/>
          <note key="47" vol="61" pan="0" pos="252" len="12"/>
          <note key="47" vol="93" pan="0" pos="264" len="12"/>
          <note key="47" vol="55" pan="0" pos="276" len="12"/>
          <note key="47" vol="61" pan="0" pos="288" len="12"/>
          <note key="47" vol="87" pan="0" pos="300" len="12"/>
          <note key="47" vol="48" pan="0" pos="312" len="12"/>
          <note key="47" vol="87" pan="0" pos="324" len="12"/>
          <note key="45" vol="87" pan="0" pos="336" len="24"/>
          <note key="47" vol="87" pan="0" pos="360" len="24"/>
          <note key="47" vol="100" pan="0" pos="384" len="12"/>
          <note key="47" vol="61" pan="0" pos="396" len="12"/>
          <note key="47" vol="61" pan="0" pos="408" len="12"/>
          <note key="47" vol="100" pan="0" pos="420" len="12"/>
          <note key="47" vol="61" pan="0" pos="432" len="12"/>
          <note key="47" vol="61" pan="0" pos="444" len="12"/>
          <note key="47" vol="93" pan="0" pos="456" len="12"/>
          <note key="47" vol="55" pan="0" pos="468" len="12"/>
          <note key="47" vol="61" pan="0" pos="480" len="12"/>
          <note key="47" vol="87" pan="0" pos="492" len="12"/>
          <note key="47" vol="48" pan="0" pos="504" len="12"/>
          <note key="47" vol="87" pan="0" pos="516" len="12"/>
          <note key="48" vol="100" pan="0" pos="528" len="24"/>
          <note key="47" vol="87" pan="0" pos="552" len="12"/>
          <note key="47" vol="87" pan="0" pos="564" len="6"/>
          <note key="47" vol="87" pan="0" pos="570" len="6"/>
          <note key="47" vol="100" pan="0" pos="576" len="12"/>
          <note key="47" vol="61" pan="0" pos="588" len="12"/>
          <note key="47" vol="61" pan="0" pos="600" len="12"/>
          <note key="47" vol="100" pan="0" pos="612" len="12"/>
          <note key="47" vol="61" pan="0" pos="624" len="12"/>
          <note key="47" vol="61" pan="0" pos="636" len="12"/>
          <note key="47" vol="93" pan="0" pos="648" len="12"/>
          <note key="47" vol="55" pan="0" pos="660" len="12"/>
          <note key="47" vol="61" pan="0" pos="672" len="12"/>
          <note key="47" vol="87" pan="0" pos="684" len="12"/>
          <note key="47" vol="48" pan="0" pos="696" len="12"/>
          <note key="47" vol="87" pan="0" pos="708" len="12"/>
          <note key="45" vol="87" pan="0" pos="720" len="24"/>
          <note key="47" vol="87" pan="0" pos="744" len="24"/>
        </pattern>
        <pattern name="Dirty Reece" pos="12672" type="1" muted="0" steps="16">
          <note key="57" vol="100" pan="0" pos="0" len="24"/>
          <note key="56" vol="100" pan="0" pos="24" len="24"/>
          <note key="56" vol="100" pan="0" pos="96" len="24"/>
          <note key="55" vol="100" pan="0" pos="144" len="240"/>
          <note key="57" vol="100" pan="0" pos="384" len="24"/>
          <note key="56" vol="100" pan="0" pos="408" len="24"/>
          <note key="56" vol="100" pan="0" pos="480" len="24"/>
          <note key="55" vol="100" pan="0" pos="528" len="240"/>
        </pattern>
        <pattern name="Dirty Reece" pos="13440" type="1" muted="0" steps="16">
          <note key="57" vol="100" pan="0" pos="0" len="24"/>
          <note key="56" vol="100" pan="0" pos="24" len="24"/>
          <note key="56" vol="100" pan="0" pos="96" len="24"/>
          <note key="55" vol="100" pan="0" pos="144" len="240"/>
          <note key="57" vol="100" pan="0" pos="384" len="24"/>
          <note key="56" vol="100" pan="0" pos="408" len="24"/>
          <note key="56" vol="100" pan="0" pos="480" len="24"/>
          <note key="55" vol="100" pan="0" pos="528" len="240"/>
        </pattern>
        <pattern name="Dirty Reece" pos="14208" type="1" muted="0" steps="16">
          <note key="57" vol="100" pan="0" pos="0" len="24"/>
          <note key="56" vol="100" pan="0" pos="24" len="24"/>
          <note key="56" vol="100" pan="0" pos="96" len="24"/>
          <note key="55" vol="100" pan="0" pos="144" len="240"/>
          <note key="57" vol="100" pan="0" pos="384" len="24"/>
          <note key="56" vol="100" pan="0" pos="408" len="24"/>
          <note key="56" vol="100" pan="0" pos="480" len="24"/>
          <note key="55" vol="100" pan="0" pos="528" len="240"/>
        </pattern>
        <pattern name="Dirty Reece" pos="14976" type="1" muted="0" steps="16">
          <note key="57" vol="100" pan="0" pos="0" len="24"/>
          <note key="56" vol="100" pan="0" pos="24" len="24"/>
          <note key="56" vol="100" pan="0" pos="96" len="24"/>
          <note key="55" vol="100" pan="0" pos="144" len="240"/>
          <note key="57" vol="100" pan="0" pos="384" len="24"/>
          <note key="56" vol="100" pan="0" pos="408" len="24"/>
          <note key="63" vol="100" pan="0" pos="480" len="24"/>
          <note key="47" vol="100" pan="0" pos="528" len="624"/>
        </pattern>
      </track>
      <track name="Carla Rack (Drums)" type="0" muted="0" solo="0">
        <instrumenttrack vol="61.600002" pan="0" pitch="0" usemasterpitch="1" fxch="6" basenote="57" pitchrange="1">
          <instrument name="carlarack">
            <carlarack>
              <CARLA-PROJECT VERSION="2.5">
                <EngineSettings>
                  <ForceStereo>false</ForceStereo>
                  <PreferPluginBridges>false</PreferPluginBridges>
                  <PreferUiBridges>true</PreferUiBridges>
                  <UIsAlwaysOnTop>false</UIsAlwaysOnTop>
                  <MaxParameters>200</MaxParameters>
                  <UIBridgesTimeout>4000</UIBridgesTimeout>
                  <LADSPA_PATH>/var/home/pastthepixels/.ladspa:/usr/lib/ladspa:/usr/local/lib/ladspa</LADSPA_PATH>
                  <DSSI_PATH>/var/home/pastthepixels/.dssi:/usr/lib/dssi:/usr/local/lib/dssi</DSSI_PATH>
                  <LV2_PATH>/var/home/pastthepixels/.lv2:/usr/lib/lv2:/usr/local/lib/lv2</LV2_PATH>
                  <VST2_PATH>/var/home/pastthepixels/.vst:/usr/lib/vst:/usr/local/lib/vst/var/home/pastthepixels/.lxvst:/usr/lib/lxvst:/usr/local/lib/lxvst</VST2_PATH>
                  <VST3_PATH>/var/home/pastthepixels/.vst3:/usr/lib/vst3:/usr/local/lib/vst3</VST3_PATH>
                  <SF2_PATH>/var/home/pastthepixels/.sounds/sf2:/var/home/pastthepixels/.sounds/sf3:/usr/share/sounds/sf2:/usr/share/sounds/sf3:/usr/share/soundfonts</SF2_PATH>
                  <SFZ_PATH>/var/home/pastthepixels/.sounds/sfz:/usr/share/sounds/sfz</SFZ_PATH>
                  <JSFX_PATH>/var/home/pastthepixels/.config/REAPER/Effects</JSFX_PATH>
                </EngineSettings>
                <!-- Red Zeppelin Drumkit -->
                <Plugin>
                  <Info>
                    <Type>LV2</Type>
                    <Name>Red Zeppelin Drumkit</Name>
                    <URI>http://gareus.org/oss/lv2/avldrums#RedZeppelin</URI>
                  </Info>
                  <Data>
                    <Active>Yes</Active>
                    <ControlChannel>1</ControlChannel>
                    <Options>0x3f0</Options>
                  </Data>
                </Plugin>
              </CARLA-PROJECT>
            </carlarack>
          </instrument>
          <eldata ftype="0" fres="0.5" fwet="0" fcut="14000">
            <elvol lamt="0" sustain="0.5" pdel="0" latt="0" dec="0.5" lspd_numerator="4" amt="0" userwavefile="" rel="0.1" lspd_denominator="4" lpdel="0" lspd="0.1" lshp="0" hold="0.5" att="0" ctlenvamt="0" lspd_syncmode="0" x100="0"/>
            <elcut lamt="0" sustain="0.5" pdel="0" latt="0" dec="0.5" lspd_numerator="4" amt="0" userwavefile="" rel="0.1" lspd_denominator="4" lpdel="0" lspd="0.1" lshp="0" hold="0.5" att="0" ctlenvamt="0" lspd_syncmode="0" x100="0"/>
            <elres lamt="0" sustain="0.5" pdel="0" latt="0" dec="0.5" lspd_numerator="4" amt="0" userwavefile="" rel="0.1" lspd_denominator="4" lpdel="0" lspd="0.1" lshp="0" hold="0.5" att="0" ctlenvamt="0" lspd_syncmode="0" x100="0"/>
          </eldata>
          <chordcreator chordrange="1" chord-enabled="0" chord="0"/>
          <arpeggiator arpmiss="0" arptime_numerator="4" arptime_syncmode="0" arpgate="100" arptime="200" arpcycle="0" arptime_denominator="4" arp="0" arpmode="0" arprange="1" arp-enabled="0" arpskip="0" arpdir="0"/>
          <midiport outputchannel="1" fixedoutputnote="-1" writable="0" inputchannel="0" inputcontroller="0" outputcontroller="0" fixedinputvelocity="-1" outputprogram="1" readable="0" basevelocity="63" fixedoutputvelocity="-1"/>
          <fxchain numofeffects="1" enabled="1">
            <effect wet="1" autoquit_numerator="4" name="eq" autoquit_syncmode="0" on="1" autoquit="1" gate="0" autoquit_denominator="4">
              <Eq LP24="0" Peak2gain="0" HighShelfres="1.4" AnalyseIn="1" LPres="0.70700002" Peak4active="0" LPactive="0" LP="0" LP12="1" Peak4gain="0" Peak2bw="0.30000001" HPactive="0" AnalyseOut="1" Lowshelfactive="0" Peak3gain="0" LowShelfres="1.4" Peak4bw="0.30000001" LP48="0" HP="0" Peak3bw="0.30000001" Lowshelfgain="0" Peak1bw="0.30000001" HP48="0" Peak2active="0" Peak3active="0" HP12="1" HighShelfgain="0" HPres="0.70700002" Highshelfactive="0" HP24="0" Peak1active="0" Outputgain="4.7999997">
                <Inputgain id="8339997" value="0" scale_type="log"/>
                <Peak1gain id="4968232" value="0" scale_type="log"/>
                <HPfreq id="6524572" value="31" scale_type="log"/>
                <LowShelffreq id="6027266" value="80" scale_type="log"/>
                <Peak1freq id="8324875" value="120" scale_type="log"/>
                <Peak2freq id="3034972" value="250" scale_type="log"/>
                <Peak3freq id="8089622" value="2000" scale_type="log"/>
                <Peak4freq id="3087084" value="4000" scale_type="log"/>
                <Highshelffreq id="6183354" value="12000" scale_type="log"/>
                <LPfreq id="5019791" value="18000" scale_type="log"/>
              </Eq>
              <key/>
            </effect>
          </fxchain>
        </instrumenttrack>
        <pattern name="Carla Rack (Drums)" pos="768" type="1" muted="0" steps="16">
          <note key="55" vol="122" pan="0" pos="0" len="12"/>
          <note key="46" vol="122" pan="0" pos="0" len="12"/>
          <note key="36" vol="90" pan="0" pos="0" len="12"/>
          <note key="46" vol="122" pan="0" pos="24" len="12"/>
          <note key="55" vol="122" pan="0" pos="48" len="12"/>
          <note key="46" vol="122" pan="0" pos="48" len="12"/>
          <note key="36" vol="90" pan="0" pos="48" len="12"/>
          <note key="46" vol="122" pan="0" pos="72" len="12"/>
          <note key="55" vol="122" pan="0" pos="96" len="12"/>
          <note key="46" vol="122" pan="0" pos="96" len="12"/>
          <note key="36" vol="90" pan="0" pos="96" len="12"/>
          <note key="46" vol="122" pan="0" pos="120" len="12"/>
          <note key="55" vol="122" pan="0" pos="144" len="12"/>
          <note key="46" vol="122" pan="0" pos="144" len="12"/>
          <note key="36" vol="90" pan="0" pos="144" len="12"/>
          <note key="46" vol="122" pan="0" pos="168" len="12"/>
          <note key="55" vol="122" pan="0" pos="192" len="12"/>
          <note key="46" vol="122" pan="0" pos="192" len="12"/>
          <note key="36" vol="90" pan="0" pos="192" len="12"/>
          <note key="46" vol="122" pan="0" pos="216" len="12"/>
          <note key="55" vol="122" pan="0" pos="240" len="12"/>
          <note key="46" vol="122" pan="0" pos="240" len="12"/>
          <note key="36" vol="90" pan="0" pos="240" len="12"/>
          <note key="46" vol="122" pan="0" pos="264" len="12"/>
          <note key="55" vol="122" pan="0" pos="288" len="12"/>
          <note key="46" vol="122" pan="0" pos="288" len="12"/>
          <note key="36" vol="90" pan="0" pos="288" len="12"/>
          <note key="46" vol="122" pan="0" pos="312" len="12"/>
          <note key="55" vol="122" pan="0" pos="336" len="12"/>
          <note key="46" vol="122" pan="0" pos="336" len="12"/>
          <note key="36" vol="90" pan="0" pos="336" len="12"/>
          <note key="46" vol="122" pan="0" pos="360" len="12"/>
          <note key="55" vol="122" pan="0" pos="384" len="12"/>
          <note key="46" vol="122" pan="0" pos="384" len="12"/>
          <note key="36" vol="90" pan="0" pos="384" len="12"/>
          <note key="46" vol="122" pan="0" pos="408" len="12"/>
          <note key="55" vol="122" pan="0" pos="432" len="12"/>
          <note key="46" vol="122" pan="0" pos="432" len="12"/>
          <note key="36" vol="90" pan="0" pos="432" len="12"/>
          <note key="46" vol="122" pan="0" pos="456" len="12"/>
          <note key="55" vol="122" pan="0" pos="480" len="12"/>
          <note key="46" vol="122" pan="0" pos="480" len="12"/>
          <note key="36" vol="90" pan="0" pos="480" len="12"/>
          <note key="46" vol="122" pan="0" pos="504" len="12"/>
          <note key="55" vol="122" pan="0" pos="528" len="12"/>
          <note key="46" vol="122" pan="0" pos="528" len="12"/>
          <note key="36" vol="90" pan="0" pos="528" len="12"/>
          <note key="46" vol="122" pan="0" pos="552" len="12"/>
          <note key="55" vol="122" pan="0" pos="576" len="12"/>
          <note key="46" vol="122" pan="0" pos="576" len="12"/>
          <note key="36" vol="90" pan="0" pos="576" len="12"/>
          <note key="46" vol="122" pan="0" pos="600" len="12"/>
          <note key="55" vol="122" pan="0" pos="624" len="12"/>
          <note key="46" vol="122" pan="0" pos="624" len="12"/>
          <note key="36" vol="90" pan="0" pos="624" len="12"/>
          <note key="46" vol="122" pan="0" pos="648" len="12"/>
          <note key="55" vol="122" pan="0" pos="672" len="12"/>
          <note key="46" vol="122" pan="0" pos="672" len="12"/>
          <note key="36" vol="90" pan="0" pos="672" len="12"/>
          <note key="46" vol="122" pan="0" pos="696" len="12"/>
          <note key="55" vol="122" pan="0" pos="720" len="12"/>
          <note key="46" vol="122" pan="0" pos="720" len="12"/>
          <note key="36" vol="90" pan="0" pos="720" len="12"/>
          <note key="46" vol="122" pan="0" pos="744" len="12"/>
          <note key="55" vol="122" pan="0" pos="768" len="12"/>
          <note key="46" vol="122" pan="0" pos="768" len="12"/>
          <note key="36" vol="90" pan="0" pos="768" len="12"/>
          <note key="46" vol="122" pan="0" pos="792" len="12"/>
          <note key="55" vol="122" pan="0" pos="816" len="12"/>
          <note key="46" vol="122" pan="0" pos="816" len="12"/>
          <note key="36" vol="90" pan="0" pos="816" len="12"/>
          <note key="46" vol="122" pan="0" pos="840" len="12"/>
          <note key="55" vol="122" pan="0" pos="864" len="12"/>
          <note key="46" vol="122" pan="0" pos="864" len="12"/>
          <note key="36" vol="90" pan="0" pos="864" len="12"/>
          <note key="46" vol="122" pan="0" pos="888" len="12"/>
          <note key="55" vol="122" pan="0" pos="912" len="12"/>
          <note key="46" vol="122" pan="0" pos="912" len="12"/>
          <note key="36" vol="90" pan="0" pos="912" len="12"/>
          <note key="46" vol="122" pan="0" pos="936" len="12"/>
          <note key="55" vol="122" pan="0" pos="960" len="12"/>
          <note key="46" vol="122" pan="0" pos="960" len="12"/>
          <note key="36" vol="90" pan="0" pos="960" len="12"/>
          <note key="46" vol="122" pan="0" pos="984" len="12"/>
          <note key="55" vol="122" pan="0" pos="1008" len="12"/>
          <note key="46" vol="122" pan="0" pos="1008" len="12"/>
          <note key="36" vol="90" pan="0" pos="1008" len="12"/>
          <note key="46" vol="122" pan="0" pos="1032" len="12"/>
          <note key="55" vol="122" pan="0" pos="1056" len="12"/>
          <note key="46" vol="122" pan="0" pos="1056" len="12"/>
          <note key="36" vol="90" pan="0" pos="1056" len="12"/>
          <note key="46" vol="122" pan="0" pos="1080" len="12"/>
          <note key="55" vol="122" pan="0" pos="1104" len="12"/>
          <note key="46" vol="122" pan="0" pos="1104" len="12"/>
          <note key="36" vol="90" pan="0" pos="1104" len="12"/>
          <note key="46" vol="122" pan="0" pos="1128" len="12"/>
          <note key="55" vol="122" pan="0" pos="1152" len="12"/>
          <note key="46" vol="122" pan="0" pos="1152" len="12"/>
          <note key="36" vol="90" pan="0" pos="1152" len="12"/>
          <note key="46" vol="122" pan="0" pos="1176" len="12"/>
          <note key="55" vol="122" pan="0" pos="1200" len="12"/>
          <note key="46" vol="122" pan="0" pos="1200" len="12"/>
          <note key="36" vol="90" pan="0" pos="1200" len="12"/>
          <note key="46" vol="122" pan="0" pos="1224" len="12"/>
          <note key="55" vol="122" pan="0" pos="1248" len="12"/>
          <note key="46" vol="122" pan="0" pos="1248" len="12"/>
          <note key="36" vol="90" pan="0" pos="1248" len="12"/>
          <note key="46" vol="122" pan="0" pos="1272" len="12"/>
          <note key="55" vol="122" pan="0" pos="1296" len="12"/>
          <note key="46" vol="122" pan="0" pos="1296" len="12"/>
          <note key="36" vol="90" pan="0" pos="1296" len="12"/>
          <note key="46" vol="122" pan="0" pos="1320" len="12"/>
          <note key="55" vol="122" pan="0" pos="1344" len="12"/>
          <note key="46" vol="122" pan="0" pos="1344" len="12"/>
          <note key="36" vol="90" pan="0" pos="1344" len="12"/>
          <note key="46" vol="122" pan="0" pos="1368" len="12"/>
          <note key="55" vol="122" pan="0" pos="1392" len="12"/>
          <note key="46" vol="122" pan="0" pos="1392" len="12"/>
          <note key="36" vol="90" pan="0" pos="1392" len="12"/>
          <note key="46" vol="122" pan="0" pos="1416" len="12"/>
          <note key="55" vol="122" pan="0" pos="1440" len="12"/>
          <note key="46" vol="122" pan="0" pos="1440" len="12"/>
          <note key="36" vol="90" pan="0" pos="1440" len="12"/>
          <note key="46" vol="122" pan="0" pos="1464" len="12"/>
          <note key="55" vol="122" pan="0" pos="1488" len="12"/>
          <note key="46" vol="122" pan="0" pos="1488" len="12"/>
          <note key="36" vol="90" pan="0" pos="1488" len="12"/>
          <note key="46" vol="122" pan="0" pos="1512" len="12"/>
          <note key="55" vol="122" pan="0" pos="1536" len="12"/>
          <note key="46" vol="122" pan="0" pos="1536" len="12"/>
        </pattern>
        <pattern name="Carla Rack (Drums)" pos="2688" type="1" muted="0" steps="16">
          <note key="55" vol="123" pan="0" pos="0" len="12"/>
          <note key="46" vol="123" pan="0" pos="0" len="12"/>
          <note key="36" vol="187" pan="0" pos="0" len="12"/>
          <note key="46" vol="123" pan="0" pos="24" len="12"/>
          <note key="55" vol="123" pan="0" pos="48" len="12"/>
          <note key="46" vol="123" pan="0" pos="48" len="12"/>
          <note key="40" vol="187" pan="0" pos="48" len="12"/>
          <note key="36" vol="187" pan="0" pos="48" len="12"/>
          <note key="46" vol="123" pan="0" pos="72" len="12"/>
          <note key="55" vol="123" pan="0" pos="96" len="12"/>
          <note key="46" vol="123" pan="0" pos="96" len="12"/>
          <note key="36" vol="187" pan="0" pos="96" len="12"/>
          <note key="46" vol="123" pan="0" pos="120" len="12"/>
          <note key="55" vol="123" pan="0" pos="144" len="12"/>
          <note key="46" vol="123" pan="0" pos="144" len="12"/>
          <note key="40" vol="187" pan="0" pos="144" len="12"/>
          <note key="36" vol="187" pan="0" pos="144" len="12"/>
          <note key="46" vol="123" pan="0" pos="168" len="12"/>
          <note key="55" vol="123" pan="0" pos="192" len="12"/>
          <note key="46" vol="123" pan="0" pos="192" len="12"/>
          <note key="36" vol="187" pan="0" pos="192" len="12"/>
          <note key="46" vol="123" pan="0" pos="216" len="12"/>
          <note key="55" vol="123" pan="0" pos="240" len="12"/>
          <note key="46" vol="123" pan="0" pos="240" len="12"/>
          <note key="40" vol="187" pan="0" pos="240" len="12"/>
          <note key="36" vol="187" pan="0" pos="240" len="12"/>
          <note key="46" vol="123" pan="0" pos="264" len="12"/>
          <note key="55" vol="123" pan="0" pos="288" len="12"/>
          <note key="46" vol="123" pan="0" pos="288" len="12"/>
          <note key="36" vol="187" pan="0" pos="288" len="12"/>
          <note key="46" vol="123" pan="0" pos="312" len="12"/>
          <note key="55" vol="123" pan="0" pos="336" len="12"/>
          <note key="46" vol="123" pan="0" pos="336" len="12"/>
          <note key="40" vol="187" pan="0" pos="336" len="6"/>
          <note key="36" vol="187" pan="0" pos="336" len="12"/>
          <note key="57" vol="123" pan="0" pos="360" len="12"/>
          <note key="46" vol="123" pan="0" pos="360" len="12"/>
          <note key="55" vol="123" pan="0" pos="384" len="12"/>
          <note key="46" vol="123" pan="0" pos="384" len="12"/>
          <note key="36" vol="187" pan="0" pos="384" len="12"/>
          <note key="46" vol="123" pan="0" pos="408" len="12"/>
          <note key="55" vol="123" pan="0" pos="432" len="12"/>
          <note key="46" vol="123" pan="0" pos="432" len="12"/>
          <note key="40" vol="187" pan="0" pos="432" len="12"/>
          <note key="36" vol="187" pan="0" pos="432" len="12"/>
          <note key="46" vol="123" pan="0" pos="456" len="12"/>
          <note key="55" vol="123" pan="0" pos="480" len="12"/>
          <note key="46" vol="123" pan="0" pos="480" len="12"/>
          <note key="36" vol="187" pan="0" pos="480" len="12"/>
          <note key="46" vol="123" pan="0" pos="504" len="12"/>
          <note key="55" vol="123" pan="0" pos="528" len="12"/>
          <note key="46" vol="123" pan="0" pos="528" len="12"/>
          <note key="40" vol="187" pan="0" pos="528" len="12"/>
          <note key="36" vol="187" pan="0" pos="528" len="12"/>
          <note key="46" vol="123" pan="0" pos="552" len="12"/>
          <note key="55" vol="123" pan="0" pos="576" len="12"/>
          <note key="46" vol="123" pan="0" pos="576" len="12"/>
          <note key="36" vol="187" pan="0" pos="576" len="12"/>
          <note key="46" vol="123" pan="0" pos="600" len="12"/>
          <note key="55" vol="123" pan="0" pos="624" len="12"/>
          <note key="46" vol="123" pan="0" pos="624" len="12"/>
          <note key="40" vol="187" pan="0" pos="624" len="12"/>
          <note key="36" vol="187" pan="0" pos="624" len="12"/>
          <note key="46" vol="123" pan="0" pos="648" len="12"/>
          <note key="55" vol="123" pan="0" pos="672" len="12"/>
          <note key="46" vol="123" pan="0" pos="672" len="12"/>
          <note key="36" vol="187" pan="0" pos="672" len="12"/>
          <note key="46" vol="123" pan="0" pos="696" len="12"/>
          <note key="55" vol="123" pan="0" pos="720" len="12"/>
          <note key="46" vol="123" pan="0" pos="720" len="12"/>
          <note key="40" vol="187" pan="0" pos="720" len="12"/>
          <note key="36" vol="187" pan="0" pos="720" len="12"/>
          <note key="46" vol="123" pan="0" pos="744" len="12"/>
        </pattern>
        <pattern name="Carla Rack (Drums)" pos="3456" type="1" muted="0" steps="16">
          <note key="55" vol="123" pan="0" pos="0" len="12"/>
          <note key="46" vol="123" pan="0" pos="0" len="12"/>
          <note key="36" vol="187" pan="0" pos="0" len="12"/>
          <note key="46" vol="123" pan="0" pos="24" len="12"/>
          <note key="55" vol="123" pan="0" pos="48" len="12"/>
          <note key="46" vol="123" pan="0" pos="48" len="12"/>
          <note key="40" vol="187" pan="0" pos="48" len="12"/>
          <note key="36" vol="187" pan="0" pos="48" len="12"/>
          <note key="46" vol="123" pan="0" pos="72" len="12"/>
          <note key="55" vol="123" pan="0" pos="96" len="12"/>
          <note key="46" vol="123" pan="0" pos="96" len="12"/>
          <note key="36" vol="187" pan="0" pos="96" len="12"/>
          <note key="46" vol="123" pan="0" pos="120" len="12"/>
          <note key="55" vol="123" pan="0" pos="144" len="12"/>
          <note key="46" vol="123" pan="0" pos="144" len="12"/>
          <note key="40" vol="187" pan="0" pos="144" len="12"/>
          <note key="36" vol="187" pan="0" pos="144" len="12"/>
          <note key="46" vol="123" pan="0" pos="168" len="12"/>
          <note key="55" vol="123" pan="0" pos="192" len="12"/>
          <note key="46" vol="123" pan="0" pos="192" len="12"/>
          <note key="36" vol="187" pan="0" pos="192" len="12"/>
          <note key="46" vol="123" pan="0" pos="216" len="12"/>
          <note key="55" vol="123" pan="0" pos="240" len="12"/>
          <note key="46" vol="123" pan="0" pos="240" len="12"/>
          <note key="40" vol="187" pan="0" pos="240" len="12"/>
          <note key="36" vol="187" pan="0" pos="240" len="12"/>
          <note key="46" vol="123" pan="0" pos="264" len="12"/>
          <note key="55" vol="123" pan="0" pos="288" len="12"/>
          <note key="46" vol="123" pan="0" pos="288" len="12"/>
          <note key="36" vol="187" pan="0" pos="288" len="12"/>
          <note key="46" vol="123" pan="0" pos="312" len="12"/>
          <note key="55" vol="123" pan="0" pos="336" len="12"/>
          <note key="46" vol="123" pan="0" pos="336" len="12"/>
          <note key="40" vol="187" pan="0" pos="336" len="6"/>
          <note key="36" vol="187" pan="0" pos="336" len="12"/>
          <note key="57" vol="123" pan="0" pos="360" len="12"/>
          <note key="46" vol="123" pan="0" pos="360" len="12"/>
          <note key="55" vol="123" pan="0" pos="384" len="12"/>
          <note key="46" vol="123" pan="0" pos="384" len="12"/>
          <note key="36" vol="187" pan="0" pos="384" len="12"/>
          <note key="46" vol="123" pan="0" pos="408" len="12"/>
          <note key="55" vol="123" pan="0" pos="432" len="12"/>
          <note key="46" vol="123" pan="0" pos="432" len="12"/>
          <note key="40" vol="187" pan="0" pos="432" len="12"/>
          <note key="36" vol="187" pan="0" pos="432" len="12"/>
          <note key="46" vol="123" pan="0" pos="456" len="12"/>
          <note key="55" vol="123" pan="0" pos="480" len="12"/>
          <note key="46" vol="123" pan="0" pos="480" len="12"/>
          <note key="36" vol="187" pan="0" pos="480" len="12"/>
          <note key="46" vol="123" pan="0" pos="504" len="12"/>
          <note key="55" vol="123" pan="0" pos="528" len="12"/>
          <note key="46" vol="123" pan="0" pos="528" len="12"/>
          <note key="40" vol="187" pan="0" pos="528" len="12"/>
          <note key="36" vol="187" pan="0" pos="528" len="12"/>
          <note key="46" vol="123" pan="0" pos="552" len="12"/>
          <note key="55" vol="123" pan="0" pos="576" len="12"/>
          <note key="46" vol="123" pan="0" pos="576" len="12"/>
          <note key="36" vol="187" pan="0" pos="576" len="12"/>
          <note key="46" vol="123" pan="0" pos="600" len="12"/>
          <note key="55" vol="123" pan="0" pos="624" len="12"/>
          <note key="46" vol="123" pan="0" pos="624" len="12"/>
          <note key="40" vol="187" pan="0" pos="624" len="12"/>
          <note key="36" vol="187" pan="0" pos="624" len="12"/>
          <note key="46" vol="123" pan="0" pos="648" len="12"/>
          <note key="55" vol="123" pan="0" pos="672" len="12"/>
          <note key="46" vol="123" pan="0" pos="672" len="12"/>
          <note key="36" vol="187" pan="0" pos="672" len="12"/>
          <note key="46" vol="123" pan="0" pos="696" len="12"/>
          <note key="59" vol="180" pan="0" pos="720" len="48"/>
          <note key="55" vol="123" pan="0" pos="720" len="12"/>
          <note key="46" vol="123" pan="0" pos="720" len="12"/>
          <note key="40" vol="187" pan="0" pos="720" len="12"/>
          <note key="36" vol="187" pan="0" pos="720" len="12"/>
          <note key="46" vol="123" pan="0" pos="744" len="12"/>
        </pattern>
        <pattern name="Carla Rack (Drums)" pos="4224" type="1" muted="0" steps="16">
          <note key="57" vol="180" pan="0" pos="0" len="48"/>
          <note key="55" vol="123" pan="0" pos="0" len="12"/>
          <note key="46" vol="123" pan="0" pos="0" len="12"/>
          <note key="36" vol="187" pan="0" pos="0" len="12"/>
          <note key="46" vol="123" pan="0" pos="24" len="12"/>
          <note key="55" vol="123" pan="0" pos="48" len="12"/>
          <note key="46" vol="123" pan="0" pos="48" len="12"/>
          <note key="40" vol="187" pan="0" pos="48" len="12"/>
          <note key="36" vol="187" pan="0" pos="48" len="12"/>
          <note key="46" vol="123" pan="0" pos="72" len="12"/>
          <note key="55" vol="123" pan="0" pos="96" len="12"/>
          <note key="46" vol="123" pan="0" pos="96" len="12"/>
          <note key="36" vol="187" pan="0" pos="96" len="12"/>
          <note key="46" vol="123" pan="0" pos="120" len="12"/>
          <note key="55" vol="123" pan="0" pos="144" len="12"/>
          <note key="46" vol="123" pan="0" pos="144" len="12"/>
          <note key="40" vol="187" pan="0" pos="144" len="12"/>
          <note key="36" vol="187" pan="0" pos="144" len="12"/>
          <note key="46" vol="123" pan="0" pos="168" len="12"/>
          <note key="55" vol="123" pan="0" pos="192" len="12"/>
          <note key="46" vol="123" pan="0" pos="192" len="12"/>
          <note key="36" vol="187" pan="0" pos="192" len="12"/>
          <note key="46" vol="123" pan="0" pos="216" len="12"/>
          <note key="55" vol="123" pan="0" pos="240" len="12"/>
          <note key="46" vol="123" pan="0" pos="240" len="12"/>
          <note key="40" vol="187" pan="0" pos="240" len="12"/>
          <note key="36" vol="187" pan="0" pos="240" len="12"/>
          <note key="46" vol="123" pan="0" pos="264" len="12"/>
          <note key="55" vol="123" pan="0" pos="288" len="12"/>
          <note key="46" vol="123" pan="0" pos="288" len="12"/>
          <note key="36" vol="187" pan="0" pos="288" len="12"/>
          <note key="46" vol="123" pan="0" pos="312" len="12"/>
          <note key="55" vol="123" pan="0" pos="336" len="12"/>
          <note key="46" vol="123" pan="0" pos="336" len="12"/>
          <note key="40" vol="187" pan="0" pos="336" len="12"/>
          <note key="36" vol="187" pan="0" pos="336" len="12"/>
          <note key="46" vol="123" pan="0" pos="360" len="12"/>
          <note key="55" vol="123" pan="0" pos="384" len="12"/>
          <note key="46" vol="123" pan="0" pos="384" len="12"/>
          <note key="36" vol="187" pan="0" pos="384" len="12"/>
          <note key="46" vol="123" pan="0" pos="408" len="12"/>
          <note key="55" vol="123" pan="0" pos="432" len="12"/>
          <note key="46" vol="123" pan="0" pos="432" len="12"/>
          <note key="40" vol="187" pan="0" pos="432" len="12"/>
          <note key="36" vol="187" pan="0" pos="432" len="12"/>
          <note key="46" vol="123" pan="0" pos="456" len="12"/>
          <note key="55" vol="123" pan="0" pos="480" len="12"/>
          <note key="46" vol="123" pan="0" pos="480" len="12"/>
          <note key="36" vol="187" pan="0" pos="480" len="12"/>
          <note key="46" vol="123" pan="0" pos="504" len="12"/>
          <note key="55" vol="123" pan="0" pos="528" len="12"/>
          <note key="46" vol="123" pan="0" pos="528" len="12"/>
          <note key="40" vol="187" pan="0" pos="528" len="12"/>
          <note key="36" vol="187" pan="0" pos="528" len="12"/>
          <note key="46" vol="123" pan="0" pos="552" len="12"/>
          <note key="55" vol="123" pan="0" pos="576" len="12"/>
          <note key="46" vol="123" pan="0" pos="576" len="12"/>
          <note key="36" vol="187" pan="0" pos="576" len="12"/>
          <note key="46" vol="123" pan="0" pos="600" len="12"/>
          <note key="55" vol="123" pan="0" pos="624" len="12"/>
          <note key="46" vol="123" pan="0" pos="624" len="12"/>
          <note key="40" vol="187" pan="0" pos="624" len="12"/>
          <note key="36" vol="187" pan="0" pos="624" len="12"/>
          <note key="46" vol="123" pan="0" pos="648" len="12"/>
          <note key="55" vol="123" pan="0" pos="672" len="12"/>
          <note key="46" vol="123" pan="0" pos="672" len="12"/>
          <note key="36" vol="187" pan="0" pos="672" len="12"/>
          <note key="46" vol="123" pan="0" pos="696" len="12"/>
          <note key="55" vol="123" pan="0" pos="720" len="12"/>
          <note key="46" vol="123" pan="0" pos="720" len="12"/>
          <note key="40" vol="187" pan="0" pos="720" len="12"/>
          <note key="36" vol="187" pan="0" pos="720" len="12"/>
          <note key="46" vol="123" pan="0" pos="744" len="12"/>
        </pattern>
        <pattern name="Carla Rack (Drums)" pos="5760" type="1" muted="0" steps="16">
          <note key="55" vol="97" pan="0" pos="0" len="12"/>
          <note key="46" vol="97" pan="0" pos="0" len="12"/>
          <note key="36" vol="65" pan="0" pos="0" len="12"/>
          <note key="46" vol="97" pan="0" pos="24" len="12"/>
          <note key="55" vol="97" pan="0" pos="48" len="12"/>
          <note key="46" vol="97" pan="0" pos="48" len="12"/>
          <note key="36" vol="65" pan="0" pos="48" len="12"/>
          <note key="46" vol="97" pan="0" pos="72" len="12"/>
          <note key="55" vol="97" pan="0" pos="96" len="12"/>
          <note key="46" vol="97" pan="0" pos="96" len="12"/>
          <note key="36" vol="65" pan="0" pos="96" len="12"/>
          <note key="46" vol="97" pan="0" pos="120" len="12"/>
          <note key="55" vol="97" pan="0" pos="144" len="12"/>
          <note key="46" vol="97" pan="0" pos="144" len="12"/>
          <note key="36" vol="65" pan="0" pos="144" len="12"/>
          <note key="46" vol="97" pan="0" pos="168" len="12"/>
          <note key="55" vol="97" pan="0" pos="192" len="12"/>
          <note key="46" vol="97" pan="0" pos="192" len="12"/>
          <note key="36" vol="65" pan="0" pos="192" len="12"/>
          <note key="46" vol="97" pan="0" pos="216" len="12"/>
          <note key="55" vol="97" pan="0" pos="240" len="12"/>
          <note key="46" vol="97" pan="0" pos="240" len="12"/>
          <note key="36" vol="65" pan="0" pos="240" len="12"/>
          <note key="46" vol="97" pan="0" pos="264" len="12"/>
          <note key="55" vol="97" pan="0" pos="288" len="12"/>
          <note key="46" vol="97" pan="0" pos="288" len="12"/>
          <note key="36" vol="65" pan="0" pos="288" len="12"/>
          <note key="46" vol="97" pan="0" pos="312" len="12"/>
          <note key="55" vol="97" pan="0" pos="336" len="12"/>
          <note key="46" vol="97" pan="0" pos="336" len="12"/>
          <note key="36" vol="65" pan="0" pos="336" len="12"/>
          <note key="46" vol="97" pan="0" pos="360" len="12"/>
          <note key="55" vol="97" pan="0" pos="384" len="12"/>
          <note key="46" vol="97" pan="0" pos="384" len="12"/>
          <note key="36" vol="65" pan="0" pos="384" len="12"/>
          <note key="46" vol="97" pan="0" pos="408" len="12"/>
          <note key="55" vol="97" pan="0" pos="432" len="12"/>
          <note key="46" vol="97" pan="0" pos="432" len="12"/>
          <note key="36" vol="65" pan="0" pos="432" len="12"/>
          <note key="46" vol="97" pan="0" pos="456" len="12"/>
          <note key="55" vol="97" pan="0" pos="480" len="12"/>
          <note key="46" vol="97" pan="0" pos="480" len="12"/>
          <note key="36" vol="65" pan="0" pos="480" len="12"/>
          <note key="46" vol="97" pan="0" pos="504" len="12"/>
          <note key="55" vol="97" pan="0" pos="528" len="12"/>
          <note key="46" vol="97" pan="0" pos="528" len="12"/>
          <note key="36" vol="65" pan="0" pos="528" len="12"/>
          <note key="46" vol="97" pan="0" pos="552" len="12"/>
          <note key="55" vol="97" pan="0" pos="576" len="12"/>
          <note key="46" vol="97" pan="0" pos="576" len="12"/>
          <note key="36" vol="65" pan="0" pos="576" len="12"/>
          <note key="46" vol="97" pan="0" pos="600" len="12"/>
          <note key="55" vol="97" pan="0" pos="624" len="12"/>
          <note key="46" vol="97" pan="0" pos="624" len="12"/>
          <note key="36" vol="65" pan="0" pos="624" len="12"/>
          <note key="46" vol="97" pan="0" pos="648" len="12"/>
          <note key="55" vol="97" pan="0" pos="672" len="12"/>
          <note key="46" vol="97" pan="0" pos="672" len="12"/>
          <note key="36" vol="65" pan="0" pos="672" len="12"/>
          <note key="46" vol="97" pan="0" pos="696" len="12"/>
          <note key="55" vol="97" pan="0" pos="720" len="12"/>
          <note key="46" vol="97" pan="0" pos="720" len="12"/>
          <note key="36" vol="65" pan="0" pos="720" len="12"/>
          <note key="46" vol="97" pan="0" pos="744" len="12"/>
        </pattern>
        <pattern name="Carla Rack (Drums)" pos="6528" type="1" muted="0" steps="16">
          <note key="55" vol="97" pan="0" pos="0" len="12"/>
          <note key="46" vol="97" pan="0" pos="0" len="12"/>
          <note key="36" vol="65" pan="0" pos="0" len="12"/>
          <note key="46" vol="97" pan="0" pos="24" len="12"/>
          <note key="55" vol="97" pan="0" pos="48" len="12"/>
          <note key="46" vol="97" pan="0" pos="48" len="12"/>
          <note key="36" vol="65" pan="0" pos="48" len="12"/>
          <note key="46" vol="97" pan="0" pos="72" len="12"/>
          <note key="55" vol="97" pan="0" pos="96" len="12"/>
          <note key="46" vol="97" pan="0" pos="96" len="12"/>
          <note key="36" vol="65" pan="0" pos="96" len="12"/>
          <note key="46" vol="97" pan="0" pos="120" len="12"/>
          <note key="55" vol="97" pan="0" pos="144" len="12"/>
          <note key="46" vol="97" pan="0" pos="144" len="12"/>
          <note key="36" vol="65" pan="0" pos="144" len="12"/>
          <note key="46" vol="97" pan="0" pos="168" len="12"/>
          <note key="55" vol="97" pan="0" pos="192" len="12"/>
          <note key="46" vol="97" pan="0" pos="192" len="12"/>
          <note key="36" vol="65" pan="0" pos="192" len="12"/>
          <note key="46" vol="97" pan="0" pos="216" len="12"/>
          <note key="55" vol="97" pan="0" pos="240" len="12"/>
          <note key="46" vol="97" pan="0" pos="240" len="12"/>
          <note key="36" vol="65" pan="0" pos="240" len="12"/>
          <note key="46" vol="97" pan="0" pos="264" len="12"/>
          <note key="55" vol="97" pan="0" pos="288" len="12"/>
          <note key="46" vol="97" pan="0" pos="288" len="12"/>
          <note key="36" vol="65" pan="0" pos="288" len="12"/>
          <note key="46" vol="97" pan="0" pos="312" len="12"/>
          <note key="55" vol="97" pan="0" pos="336" len="12"/>
          <note key="46" vol="97" pan="0" pos="336" len="12"/>
          <note key="36" vol="65" pan="0" pos="336" len="12"/>
          <note key="46" vol="97" pan="0" pos="360" len="12"/>
          <note key="55" vol="97" pan="0" pos="384" len="12"/>
          <note key="46" vol="97" pan="0" pos="384" len="12"/>
          <note key="36" vol="65" pan="0" pos="384" len="12"/>
          <note key="46" vol="97" pan="0" pos="408" len="12"/>
          <note key="55" vol="97" pan="0" pos="432" len="12"/>
          <note key="46" vol="97" pan="0" pos="432" len="12"/>
          <note key="36" vol="65" pan="0" pos="432" len="12"/>
          <note key="46" vol="97" pan="0" pos="456" len="12"/>
          <note key="55" vol="97" pan="0" pos="480" len="12"/>
          <note key="46" vol="97" pan="0" pos="480" len="12"/>
          <note key="36" vol="65" pan="0" pos="480" len="12"/>
          <note key="46" vol="97" pan="0" pos="504" len="12"/>
          <note key="55" vol="97" pan="0" pos="528" len="12"/>
          <note key="46" vol="97" pan="0" pos="528" len="12"/>
          <note key="36" vol="65" pan="0" pos="528" len="12"/>
          <note key="46" vol="97" pan="0" pos="552" len="12"/>
          <note key="55" vol="97" pan="0" pos="576" len="12"/>
          <note key="46" vol="97" pan="0" pos="576" len="12"/>
          <note key="36" vol="65" pan="0" pos="576" len="12"/>
          <note key="46" vol="97" pan="0" pos="600" len="12"/>
          <note key="55" vol="97" pan="0" pos="624" len="12"/>
          <note key="46" vol="97" pan="0" pos="624" len="12"/>
          <note key="36" vol="65" pan="0" pos="624" len="12"/>
          <note key="46" vol="97" pan="0" pos="648" len="12"/>
          <note key="55" vol="97" pan="0" pos="672" len="12"/>
          <note key="46" vol="97" pan="0" pos="672" len="12"/>
          <note key="36" vol="65" pan="0" pos="672" len="12"/>
          <note key="46" vol="97" pan="0" pos="696" len="12"/>
          <note key="55" vol="97" pan="0" pos="720" len="12"/>
          <note key="46" vol="97" pan="0" pos="720" len="12"/>
          <note key="36" vol="65" pan="0" pos="720" len="12"/>
          <note key="46" vol="97" pan="0" pos="744" len="12"/>
        </pattern>
        <pattern name="Carla Rack (Drums)" pos="4992" type="1" muted="0" steps="16">
          <note key="57" vol="180" pan="0" pos="0" len="48"/>
          <note key="55" vol="123" pan="0" pos="0" len="12"/>
          <note key="46" vol="123" pan="0" pos="0" len="12"/>
          <note key="36" vol="187" pan="0" pos="0" len="12"/>
          <note key="46" vol="123" pan="0" pos="24" len="12"/>
          <note key="55" vol="123" pan="0" pos="48" len="12"/>
          <note key="46" vol="123" pan="0" pos="48" len="12"/>
          <note key="40" vol="187" pan="0" pos="48" len="12"/>
          <note key="36" vol="187" pan="0" pos="48" len="12"/>
          <note key="46" vol="123" pan="0" pos="72" len="12"/>
          <note key="55" vol="123" pan="0" pos="96" len="12"/>
          <note key="46" vol="123" pan="0" pos="96" len="12"/>
          <note key="36" vol="187" pan="0" pos="96" len="12"/>
          <note key="46" vol="123" pan="0" pos="120" len="12"/>
          <note key="55" vol="123" pan="0" pos="144" len="12"/>
          <note key="46" vol="123" pan="0" pos="144" len="12"/>
          <note key="40" vol="187" pan="0" pos="144" len="12"/>
          <note key="36" vol="187" pan="0" pos="144" len="12"/>
          <note key="46" vol="123" pan="0" pos="168" len="12"/>
          <note key="55" vol="123" pan="0" pos="192" len="12"/>
          <note key="46" vol="123" pan="0" pos="192" len="12"/>
          <note key="36" vol="187" pan="0" pos="192" len="12"/>
          <note key="46" vol="123" pan="0" pos="216" len="12"/>
          <note key="55" vol="123" pan="0" pos="240" len="12"/>
          <note key="46" vol="123" pan="0" pos="240" len="12"/>
          <note key="40" vol="187" pan="0" pos="240" len="12"/>
          <note key="36" vol="187" pan="0" pos="240" len="12"/>
          <note key="46" vol="123" pan="0" pos="264" len="12"/>
          <note key="55" vol="123" pan="0" pos="288" len="12"/>
          <note key="46" vol="123" pan="0" pos="288" len="12"/>
          <note key="36" vol="187" pan="0" pos="288" len="12"/>
          <note key="46" vol="123" pan="0" pos="312" len="12"/>
          <note key="55" vol="123" pan="0" pos="336" len="12"/>
          <note key="46" vol="123" pan="0" pos="336" len="12"/>
          <note key="40" vol="187" pan="0" pos="336" len="12"/>
          <note key="36" vol="187" pan="0" pos="336" len="12"/>
          <note key="46" vol="123" pan="0" pos="360" len="12"/>
          <note key="55" vol="123" pan="0" pos="384" len="12"/>
          <note key="46" vol="123" pan="0" pos="384" len="12"/>
          <note key="36" vol="187" pan="0" pos="384" len="12"/>
          <note key="46" vol="123" pan="0" pos="408" len="12"/>
          <note key="55" vol="123" pan="0" pos="432" len="12"/>
          <note key="46" vol="123" pan="0" pos="432" len="12"/>
          <note key="40" vol="187" pan="0" pos="432" len="12"/>
          <note key="36" vol="187" pan="0" pos="432" len="12"/>
          <note key="46" vol="123" pan="0" pos="456" len="12"/>
          <note key="55" vol="123" pan="0" pos="480" len="12"/>
          <note key="46" vol="123" pan="0" pos="480" len="12"/>
          <note key="36" vol="187" pan="0" pos="480" len="12"/>
          <note key="46" vol="123" pan="0" pos="504" len="12"/>
          <note key="55" vol="123" pan="0" pos="528" len="12"/>
          <note key="46" vol="123" pan="0" pos="528" len="12"/>
          <note key="40" vol="187" pan="0" pos="528" len="12"/>
          <note key="36" vol="187" pan="0" pos="528" len="12"/>
          <note key="46" vol="123" pan="0" pos="552" len="12"/>
          <note key="55" vol="123" pan="0" pos="576" len="12"/>
          <note key="46" vol="123" pan="0" pos="576" len="12"/>
          <note key="36" vol="187" pan="0" pos="576" len="12"/>
          <note key="46" vol="123" pan="0" pos="600" len="12"/>
          <note key="55" vol="123" pan="0" pos="624" len="12"/>
          <note key="46" vol="123" pan="0" pos="624" len="12"/>
          <note key="40" vol="187" pan="0" pos="624" len="12"/>
          <note key="36" vol="187" pan="0" pos="624" len="12"/>
          <note key="46" vol="123" pan="0" pos="648" len="12"/>
          <note key="55" vol="123" pan="0" pos="672" len="12"/>
          <note key="46" vol="123" pan="0" pos="672" len="12"/>
          <note key="36" vol="187" pan="0" pos="672" len="12"/>
          <note key="46" vol="123" pan="0" pos="696" len="12"/>
          <note key="55" vol="123" pan="0" pos="720" len="12"/>
          <note key="46" vol="123" pan="0" pos="720" len="12"/>
          <note key="40" vol="187" pan="0" pos="720" len="12"/>
          <note key="36" vol="187" pan="0" pos="720" len="12"/>
          <note key="46" vol="123" pan="0" pos="744" len="12"/>
        </pattern>
        <pattern name="Carla Rack (Drums)" pos="7296" type="1" muted="0" steps="16">
          <note key="57" vol="180" pan="0" pos="0" len="48"/>
          <note key="55" vol="123" pan="0" pos="0" len="12"/>
          <note key="46" vol="123" pan="0" pos="0" len="12"/>
          <note key="36" vol="187" pan="0" pos="0" len="12"/>
          <note key="46" vol="123" pan="0" pos="24" len="12"/>
          <note key="55" vol="123" pan="0" pos="48" len="12"/>
          <note key="46" vol="123" pan="0" pos="48" len="12"/>
          <note key="40" vol="187" pan="0" pos="48" len="12"/>
          <note key="36" vol="187" pan="0" pos="48" len="12"/>
          <note key="46" vol="123" pan="0" pos="72" len="12"/>
          <note key="55" vol="123" pan="0" pos="96" len="12"/>
          <note key="46" vol="123" pan="0" pos="96" len="12"/>
          <note key="36" vol="187" pan="0" pos="96" len="12"/>
          <note key="46" vol="123" pan="0" pos="120" len="12"/>
          <note key="55" vol="123" pan="0" pos="144" len="12"/>
          <note key="46" vol="123" pan="0" pos="144" len="12"/>
          <note key="40" vol="187" pan="0" pos="144" len="12"/>
          <note key="36" vol="187" pan="0" pos="144" len="12"/>
          <note key="46" vol="123" pan="0" pos="168" len="12"/>
          <note key="55" vol="123" pan="0" pos="192" len="12"/>
          <note key="46" vol="123" pan="0" pos="192" len="12"/>
          <note key="36" vol="187" pan="0" pos="192" len="12"/>
          <note key="46" vol="123" pan="0" pos="216" len="12"/>
          <note key="55" vol="123" pan="0" pos="240" len="12"/>
          <note key="46" vol="123" pan="0" pos="240" len="12"/>
          <note key="40" vol="187" pan="0" pos="240" len="12"/>
          <note key="36" vol="187" pan="0" pos="240" len="12"/>
          <note key="46" vol="123" pan="0" pos="264" len="12"/>
          <note key="55" vol="123" pan="0" pos="288" len="12"/>
          <note key="46" vol="123" pan="0" pos="288" len="12"/>
          <note key="36" vol="187" pan="0" pos="288" len="12"/>
          <note key="46" vol="123" pan="0" pos="312" len="12"/>
          <note key="55" vol="123" pan="0" pos="336" len="12"/>
          <note key="46" vol="123" pan="0" pos="336" len="12"/>
          <note key="40" vol="187" pan="0" pos="336" len="12"/>
          <note key="36" vol="187" pan="0" pos="336" len="12"/>
          <note key="46" vol="123" pan="0" pos="360" len="12"/>
          <note key="55" vol="123" pan="0" pos="384" len="12"/>
          <note key="46" vol="123" pan="0" pos="384" len="12"/>
          <note key="36" vol="187" pan="0" pos="384" len="12"/>
          <note key="46" vol="123" pan="0" pos="408" len="12"/>
          <note key="55" vol="123" pan="0" pos="432" len="12"/>
          <note key="46" vol="123" pan="0" pos="432" len="12"/>
          <note key="40" vol="187" pan="0" pos="432" len="12"/>
          <note key="36" vol="187" pan="0" pos="432" len="12"/>
          <note key="46" vol="123" pan="0" pos="456" len="12"/>
          <note key="55" vol="123" pan="0" pos="480" len="12"/>
          <note key="46" vol="123" pan="0" pos="480" len="12"/>
          <note key="36" vol="187" pan="0" pos="480" len="12"/>
          <note key="46" vol="123" pan="0" pos="504" len="12"/>
          <note key="55" vol="123" pan="0" pos="528" len="12"/>
          <note key="46" vol="123" pan="0" pos="528" len="12"/>
          <note key="40" vol="187" pan="0" pos="528" len="12"/>
          <note key="36" vol="187" pan="0" pos="528" len="12"/>
          <note key="46" vol="123" pan="0" pos="552" len="12"/>
          <note key="55" vol="123" pan="0" pos="576" len="12"/>
          <note key="46" vol="123" pan="0" pos="576" len="12"/>
          <note key="36" vol="187" pan="0" pos="576" len="12"/>
          <note key="46" vol="123" pan="0" pos="600" len="12"/>
          <note key="55" vol="123" pan="0" pos="624" len="12"/>
          <note key="46" vol="123" pan="0" pos="624" len="12"/>
          <note key="40" vol="187" pan="0" pos="624" len="12"/>
          <note key="36" vol="187" pan="0" pos="624" len="12"/>
          <note key="46" vol="123" pan="0" pos="648" len="12"/>
          <note key="55" vol="123" pan="0" pos="672" len="12"/>
          <note key="46" vol="123" pan="0" pos="672" len="12"/>
          <note key="36" vol="187" pan="0" pos="672" len="12"/>
          <note key="46" vol="123" pan="0" pos="696" len="12"/>
          <note key="55" vol="123" pan="0" pos="720" len="12"/>
          <note key="46" vol="123" pan="0" pos="720" len="12"/>
          <note key="40" vol="187" pan="0" pos="720" len="12"/>
          <note key="36" vol="187" pan="0" pos="720" len="12"/>
          <note key="46" vol="123" pan="0" pos="744" len="12"/>
        </pattern>
        <pattern name="Carla Rack (Drums)" pos="8064" type="1" muted="0" steps="16">
          <note key="57" vol="180" pan="0" pos="0" len="48"/>
          <note key="55" vol="123" pan="0" pos="0" len="12"/>
          <note key="46" vol="123" pan="0" pos="0" len="12"/>
          <note key="36" vol="187" pan="0" pos="0" len="12"/>
          <note key="46" vol="123" pan="0" pos="24" len="12"/>
          <note key="55" vol="123" pan="0" pos="48" len="12"/>
          <note key="46" vol="123" pan="0" pos="48" len="12"/>
          <note key="40" vol="187" pan="0" pos="48" len="12"/>
          <note key="36" vol="187" pan="0" pos="48" len="12"/>
          <note key="46" vol="123" pan="0" pos="72" len="12"/>
          <note key="55" vol="123" pan="0" pos="96" len="12"/>
          <note key="46" vol="123" pan="0" pos="96" len="12"/>
          <note key="36" vol="187" pan="0" pos="96" len="12"/>
          <note key="46" vol="123" pan="0" pos="120" len="12"/>
          <note key="55" vol="123" pan="0" pos="144" len="12"/>
          <note key="46" vol="123" pan="0" pos="144" len="12"/>
          <note key="40" vol="187" pan="0" pos="144" len="12"/>
          <note key="36" vol="187" pan="0" pos="144" len="12"/>
          <note key="46" vol="123" pan="0" pos="168" len="12"/>
          <note key="55" vol="123" pan="0" pos="192" len="12"/>
          <note key="46" vol="123" pan="0" pos="192" len="12"/>
          <note key="36" vol="187" pan="0" pos="192" len="12"/>
          <note key="46" vol="123" pan="0" pos="216" len="12"/>
          <note key="55" vol="123" pan="0" pos="240" len="12"/>
          <note key="46" vol="123" pan="0" pos="240" len="12"/>
          <note key="40" vol="187" pan="0" pos="240" len="12"/>
          <note key="36" vol="187" pan="0" pos="240" len="12"/>
          <note key="46" vol="123" pan="0" pos="264" len="12"/>
          <note key="55" vol="123" pan="0" pos="288" len="12"/>
          <note key="46" vol="123" pan="0" pos="288" len="12"/>
          <note key="36" vol="187" pan="0" pos="288" len="12"/>
          <note key="46" vol="123" pan="0" pos="312" len="12"/>
          <note key="55" vol="123" pan="0" pos="336" len="12"/>
          <note key="46" vol="123" pan="0" pos="336" len="12"/>
          <note key="40" vol="187" pan="0" pos="336" len="12"/>
          <note key="36" vol="187" pan="0" pos="336" len="12"/>
          <note key="46" vol="123" pan="0" pos="360" len="12"/>
          <note key="55" vol="123" pan="0" pos="384" len="12"/>
          <note key="46" vol="123" pan="0" pos="384" len="12"/>
          <note key="36" vol="187" pan="0" pos="384" len="12"/>
          <note key="46" vol="123" pan="0" pos="408" len="12"/>
          <note key="55" vol="123" pan="0" pos="432" len="12"/>
          <note key="46" vol="123" pan="0" pos="432" len="12"/>
          <note key="40" vol="187" pan="0" pos="432" len="12"/>
          <note key="36" vol="187" pan="0" pos="432" len="12"/>
          <note key="46" vol="123" pan="0" pos="456" len="12"/>
          <note key="55" vol="123" pan="0" pos="480" len="12"/>
          <note key="46" vol="123" pan="0" pos="480" len="12"/>
          <note key="36" vol="187" pan="0" pos="480" len="12"/>
          <note key="46" vol="123" pan="0" pos="504" len="12"/>
          <note key="55" vol="123" pan="0" pos="528" len="12"/>
          <note key="46" vol="123" pan="0" pos="528" len="12"/>
          <note key="40" vol="187" pan="0" pos="528" len="12"/>
          <note key="36" vol="187" pan="0" pos="528" len="12"/>
          <note key="46" vol="123" pan="0" pos="552" len="12"/>
          <note key="55" vol="123" pan="0" pos="576" len="12"/>
          <note key="46" vol="123" pan="0" pos="576" len="12"/>
          <note key="36" vol="187" pan="0" pos="576" len="12"/>
          <note key="46" vol="123" pan="0" pos="600" len="12"/>
          <note key="55" vol="123" pan="0" pos="624" len="12"/>
          <note key="46" vol="123" pan="0" pos="624" len="12"/>
          <note key="40" vol="187" pan="0" pos="624" len="12"/>
          <note key="36" vol="187" pan="0" pos="624" len="12"/>
          <note key="46" vol="123" pan="0" pos="648" len="12"/>
          <note key="55" vol="123" pan="0" pos="672" len="12"/>
          <note key="46" vol="123" pan="0" pos="672" len="12"/>
          <note key="36" vol="187" pan="0" pos="672" len="12"/>
          <note key="46" vol="123" pan="0" pos="696" len="12"/>
          <note key="55" vol="123" pan="0" pos="720" len="12"/>
          <note key="46" vol="123" pan="0" pos="720" len="12"/>
          <note key="40" vol="187" pan="0" pos="720" len="12"/>
          <note key="36" vol="187" pan="0" pos="720" len="12"/>
          <note key="46" vol="123" pan="0" pos="744" len="12"/>
        </pattern>
        <pattern name="Carla Rack (Drums)" pos="9600" type="1" muted="0" steps="16">
          <note key="55" vol="123" pan="0" pos="0" len="12"/>
          <note key="46" vol="123" pan="0" pos="0" len="12"/>
          <note key="36" vol="187" pan="0" pos="0" len="12"/>
          <note key="46" vol="123" pan="0" pos="24" len="12"/>
          <note key="55" vol="123" pan="0" pos="48" len="12"/>
          <note key="46" vol="123" pan="0" pos="48" len="12"/>
          <note key="40" vol="187" pan="0" pos="48" len="12"/>
          <note key="36" vol="187" pan="0" pos="48" len="12"/>
          <note key="46" vol="123" pan="0" pos="72" len="12"/>
          <note key="55" vol="123" pan="0" pos="96" len="12"/>
          <note key="46" vol="123" pan="0" pos="96" len="12"/>
          <note key="36" vol="187" pan="0" pos="96" len="12"/>
          <note key="46" vol="123" pan="0" pos="120" len="12"/>
          <note key="55" vol="123" pan="0" pos="144" len="12"/>
          <note key="46" vol="123" pan="0" pos="144" len="12"/>
          <note key="40" vol="187" pan="0" pos="144" len="12"/>
          <note key="36" vol="187" pan="0" pos="144" len="12"/>
          <note key="46" vol="123" pan="0" pos="168" len="12"/>
          <note key="55" vol="123" pan="0" pos="192" len="12"/>
          <note key="46" vol="123" pan="0" pos="192" len="12"/>
          <note key="36" vol="187" pan="0" pos="192" len="12"/>
          <note key="46" vol="123" pan="0" pos="216" len="12"/>
          <note key="55" vol="123" pan="0" pos="240" len="12"/>
          <note key="46" vol="123" pan="0" pos="240" len="12"/>
          <note key="40" vol="187" pan="0" pos="240" len="12"/>
          <note key="36" vol="187" pan="0" pos="240" len="12"/>
          <note key="46" vol="123" pan="0" pos="264" len="12"/>
          <note key="55" vol="123" pan="0" pos="288" len="12"/>
          <note key="46" vol="123" pan="0" pos="288" len="12"/>
          <note key="36" vol="187" pan="0" pos="288" len="12"/>
          <note key="46" vol="123" pan="0" pos="312" len="12"/>
          <note key="55" vol="123" pan="0" pos="336" len="12"/>
          <note key="46" vol="123" pan="0" pos="336" len="12"/>
          <note key="40" vol="187" pan="0" pos="336" len="6"/>
          <note key="36" vol="187" pan="0" pos="336" len="12"/>
          <note key="57" vol="123" pan="0" pos="360" len="12"/>
          <note key="46" vol="123" pan="0" pos="360" len="12"/>
          <note key="55" vol="123" pan="0" pos="384" len="12"/>
          <note key="46" vol="123" pan="0" pos="384" len="12"/>
          <note key="36" vol="187" pan="0" pos="384" len="12"/>
          <note key="46" vol="123" pan="0" pos="408" len="12"/>
          <note key="55" vol="123" pan="0" pos="432" len="12"/>
          <note key="46" vol="123" pan="0" pos="432" len="12"/>
          <note key="40" vol="187" pan="0" pos="432" len="12"/>
          <note key="36" vol="187" pan="0" pos="432" len="12"/>
          <note key="46" vol="123" pan="0" pos="456" len="12"/>
          <note key="55" vol="123" pan="0" pos="480" len="12"/>
          <note key="46" vol="123" pan="0" pos="480" len="12"/>
          <note key="36" vol="187" pan="0" pos="480" len="12"/>
          <note key="46" vol="123" pan="0" pos="504" len="12"/>
          <note key="55" vol="123" pan="0" pos="528" len="12"/>
          <note key="46" vol="123" pan="0" pos="528" len="12"/>
          <note key="40" vol="187" pan="0" pos="528" len="12"/>
          <note key="36" vol="187" pan="0" pos="528" len="12"/>
          <note key="46" vol="123" pan="0" pos="552" len="12"/>
          <note key="55" vol="123" pan="0" pos="576" len="12"/>
          <note key="46" vol="123" pan="0" pos="576" len="12"/>
          <note key="36" vol="187" pan="0" pos="576" len="12"/>
          <note key="46" vol="123" pan="0" pos="600" len="12"/>
          <note key="55" vol="123" pan="0" pos="624" len="12"/>
          <note key="46" vol="123" pan="0" pos="624" len="12"/>
          <note key="40" vol="187" pan="0" pos="624" len="12"/>
          <note key="36" vol="187" pan="0" pos="624" len="12"/>
          <note key="46" vol="123" pan="0" pos="648" len="12"/>
          <note key="55" vol="123" pan="0" pos="672" len="12"/>
          <note key="46" vol="123" pan="0" pos="672" len="12"/>
          <note key="36" vol="187" pan="0" pos="672" len="12"/>
          <note key="46" vol="123" pan="0" pos="696" len="12"/>
          <note key="55" vol="123" pan="0" pos="720" len="12"/>
          <note key="46" vol="123" pan="0" pos="720" len="12"/>
          <note key="40" vol="187" pan="0" pos="720" len="12"/>
          <note key="36" vol="187" pan="0" pos="720" len="12"/>
          <note key="46" vol="123" pan="0" pos="744" len="12"/>
        </pattern>
        <pattern name="Carla Rack (Drums)" pos="10368" type="1" muted="0" steps="16">
          <note key="57" vol="182" pan="0" pos="0" len="12"/>
          <note key="46" vol="123" pan="0" pos="0" len="12"/>
          <note key="36" vol="187" pan="0" pos="0" len="12"/>
          <note key="46" vol="123" pan="0" pos="24" len="12"/>
          <note key="55" vol="123" pan="0" pos="48" len="12"/>
          <note key="46" vol="123" pan="0" pos="48" len="12"/>
          <note key="40" vol="187" pan="0" pos="48" len="12"/>
          <note key="36" vol="187" pan="0" pos="48" len="12"/>
          <note key="46" vol="123" pan="0" pos="72" len="12"/>
          <note key="55" vol="123" pan="0" pos="96" len="12"/>
          <note key="46" vol="123" pan="0" pos="96" len="12"/>
          <note key="36" vol="187" pan="0" pos="96" len="12"/>
          <note key="46" vol="123" pan="0" pos="120" len="12"/>
          <note key="55" vol="123" pan="0" pos="144" len="12"/>
          <note key="46" vol="123" pan="0" pos="144" len="12"/>
          <note key="40" vol="187" pan="0" pos="144" len="12"/>
          <note key="36" vol="187" pan="0" pos="144" len="12"/>
          <note key="46" vol="123" pan="0" pos="168" len="12"/>
          <note key="55" vol="123" pan="0" pos="192" len="12"/>
          <note key="46" vol="123" pan="0" pos="192" len="12"/>
          <note key="36" vol="187" pan="0" pos="192" len="12"/>
          <note key="46" vol="123" pan="0" pos="216" len="12"/>
          <note key="55" vol="123" pan="0" pos="240" len="12"/>
          <note key="46" vol="123" pan="0" pos="240" len="12"/>
          <note key="40" vol="187" pan="0" pos="240" len="12"/>
          <note key="36" vol="187" pan="0" pos="240" len="12"/>
          <note key="46" vol="123" pan="0" pos="264" len="12"/>
          <note key="55" vol="123" pan="0" pos="288" len="12"/>
          <note key="46" vol="123" pan="0" pos="288" len="12"/>
          <note key="36" vol="187" pan="0" pos="288" len="12"/>
          <note key="46" vol="123" pan="0" pos="312" len="12"/>
          <note key="55" vol="123" pan="0" pos="336" len="12"/>
          <note key="46" vol="123" pan="0" pos="336" len="12"/>
          <note key="40" vol="187" pan="0" pos="336" len="6"/>
          <note key="36" vol="187" pan="0" pos="336" len="12"/>
          <note key="57" vol="123" pan="0" pos="360" len="12"/>
          <note key="46" vol="123" pan="0" pos="360" len="12"/>
          <note key="55" vol="123" pan="0" pos="384" len="12"/>
          <note key="46" vol="123" pan="0" pos="384" len="12"/>
          <note key="36" vol="187" pan="0" pos="384" len="12"/>
          <note key="46" vol="123" pan="0" pos="408" len="12"/>
          <note key="55" vol="123" pan="0" pos="432" len="12"/>
          <note key="46" vol="123" pan="0" pos="432" len="12"/>
          <note key="40" vol="187" pan="0" pos="432" len="12"/>
          <note key="36" vol="187" pan="0" pos="432" len="12"/>
          <note key="46" vol="123" pan="0" pos="456" len="12"/>
          <note key="55" vol="123" pan="0" pos="480" len="12"/>
          <note key="46" vol="123" pan="0" pos="480" len="12"/>
          <note key="36" vol="187" pan="0" pos="480" len="12"/>
          <note key="46" vol="123" pan="0" pos="504" len="12"/>
          <note key="55" vol="123" pan="0" pos="528" len="12"/>
          <note key="46" vol="123" pan="0" pos="528" len="12"/>
          <note key="40" vol="187" pan="0" pos="528" len="12"/>
          <note key="36" vol="187" pan="0" pos="528" len="12"/>
          <note key="46" vol="123" pan="0" pos="552" len="12"/>
          <note key="55" vol="123" pan="0" pos="576" len="12"/>
          <note key="46" vol="123" pan="0" pos="576" len="12"/>
          <note key="36" vol="187" pan="0" pos="576" len="12"/>
          <note key="46" vol="123" pan="0" pos="600" len="12"/>
          <note key="55" vol="123" pan="0" pos="624" len="12"/>
          <note key="46" vol="123" pan="0" pos="624" len="12"/>
          <note key="40" vol="187" pan="0" pos="624" len="12"/>
          <note key="36" vol="187" pan="0" pos="624" len="12"/>
          <note key="46" vol="123" pan="0" pos="648" len="12"/>
          <note key="55" vol="123" pan="0" pos="672" len="12"/>
          <note key="46" vol="123" pan="0" pos="672" len="12"/>
          <note key="36" vol="187" pan="0" pos="672" len="12"/>
          <note key="46" vol="123" pan="0" pos="696" len="12"/>
          <note key="59" vol="180" pan="0" pos="720" len="48"/>
          <note key="55" vol="123" pan="0" pos="720" len="12"/>
          <note key="46" vol="123" pan="0" pos="720" len="12"/>
          <note key="40" vol="187" pan="0" pos="720" len="12"/>
          <note key="36" vol="187" pan="0" pos="720" len="12"/>
          <note key="46" vol="123" pan="0" pos="744" len="12"/>
        </pattern>
        <pattern name="Carla Rack (Drums)" pos="11136" type="1" muted="0" steps="16">
          <note key="55" vol="123" pan="0" pos="0" len="12"/>
          <note key="46" vol="123" pan="0" pos="0" len="12"/>
          <note key="36" vol="187" pan="0" pos="0" len="12"/>
          <note key="46" vol="123" pan="0" pos="24" len="12"/>
          <note key="55" vol="123" pan="0" pos="48" len="12"/>
          <note key="46" vol="123" pan="0" pos="48" len="12"/>
          <note key="40" vol="187" pan="0" pos="48" len="12"/>
          <note key="36" vol="187" pan="0" pos="48" len="12"/>
          <note key="46" vol="123" pan="0" pos="72" len="12"/>
          <note key="55" vol="123" pan="0" pos="96" len="12"/>
          <note key="46" vol="123" pan="0" pos="96" len="12"/>
          <note key="36" vol="187" pan="0" pos="96" len="12"/>
          <note key="46" vol="123" pan="0" pos="120" len="12"/>
          <note key="55" vol="123" pan="0" pos="144" len="12"/>
          <note key="46" vol="123" pan="0" pos="144" len="12"/>
          <note key="40" vol="187" pan="0" pos="144" len="12"/>
          <note key="36" vol="187" pan="0" pos="144" len="12"/>
          <note key="46" vol="123" pan="0" pos="168" len="12"/>
          <note key="55" vol="123" pan="0" pos="192" len="12"/>
          <note key="46" vol="123" pan="0" pos="192" len="12"/>
          <note key="36" vol="187" pan="0" pos="192" len="12"/>
          <note key="46" vol="123" pan="0" pos="216" len="12"/>
          <note key="55" vol="123" pan="0" pos="240" len="12"/>
          <note key="46" vol="123" pan="0" pos="240" len="12"/>
          <note key="40" vol="187" pan="0" pos="240" len="12"/>
          <note key="36" vol="187" pan="0" pos="240" len="12"/>
          <note key="46" vol="123" pan="0" pos="264" len="12"/>
          <note key="55" vol="123" pan="0" pos="288" len="12"/>
          <note key="46" vol="123" pan="0" pos="288" len="12"/>
          <note key="36" vol="187" pan="0" pos="288" len="12"/>
          <note key="46" vol="123" pan="0" pos="312" len="12"/>
          <note key="55" vol="123" pan="0" pos="336" len="12"/>
          <note key="46" vol="123" pan="0" pos="336" len="12"/>
          <note key="40" vol="187" pan="0" pos="336" len="6"/>
          <note key="36" vol="187" pan="0" pos="336" len="12"/>
          <note key="57" vol="123" pan="0" pos="360" len="12"/>
          <note key="46" vol="123" pan="0" pos="360" len="12"/>
          <note key="55" vol="123" pan="0" pos="384" len="12"/>
          <note key="46" vol="123" pan="0" pos="384" len="12"/>
          <note key="36" vol="187" pan="0" pos="384" len="12"/>
          <note key="46" vol="123" pan="0" pos="408" len="12"/>
          <note key="55" vol="123" pan="0" pos="432" len="12"/>
          <note key="46" vol="123" pan="0" pos="432" len="12"/>
          <note key="40" vol="187" pan="0" pos="432" len="12"/>
          <note key="36" vol="187" pan="0" pos="432" len="12"/>
          <note key="46" vol="123" pan="0" pos="456" len="12"/>
          <note key="55" vol="123" pan="0" pos="480" len="12"/>
          <note key="46" vol="123" pan="0" pos="480" len="12"/>
          <note key="36" vol="187" pan="0" pos="480" len="12"/>
          <note key="46" vol="123" pan="0" pos="504" len="12"/>
          <note key="55" vol="123" pan="0" pos="528" len="12"/>
          <note key="46" vol="123" pan="0" pos="528" len="12"/>
          <note key="40" vol="187" pan="0" pos="528" len="12"/>
          <note key="36" vol="187" pan="0" pos="528" len="12"/>
          <note key="46" vol="123" pan="0" pos="552" len="12"/>
          <note key="55" vol="123" pan="0" pos="576" len="12"/>
          <note key="46" vol="123" pan="0" pos="576" len="12"/>
          <note key="36" vol="187" pan="0" pos="576" len="12"/>
          <note key="46" vol="123" pan="0" pos="600" len="12"/>
          <note key="55" vol="123" pan="0" pos="624" len="12"/>
          <note key="46" vol="123" pan="0" pos="624" len="12"/>
          <note key="40" vol="187" pan="0" pos="624" len="12"/>
          <note key="36" vol="187" pan="0" pos="624" len="12"/>
          <note key="46" vol="123" pan="0" pos="648" len="12"/>
          <note key="55" vol="123" pan="0" pos="672" len="12"/>
          <note key="46" vol="123" pan="0" pos="672" len="12"/>
          <note key="36" vol="187" pan="0" pos="672" len="12"/>
          <note key="46" vol="123" pan="0" pos="696" len="12"/>
          <note key="55" vol="123" pan="0" pos="720" len="12"/>
          <note key="46" vol="123" pan="0" pos="720" len="12"/>
          <note key="40" vol="187" pan="0" pos="720" len="12"/>
          <note key="36" vol="187" pan="0" pos="720" len="12"/>
          <note key="46" vol="123" pan="0" pos="744" len="12"/>
        </pattern>
        <pattern name="Carla Rack (Drums)" pos="11904" type="1" muted="0" steps="16">
          <note key="55" vol="123" pan="0" pos="0" len="12"/>
          <note key="46" vol="123" pan="0" pos="0" len="12"/>
          <note key="36" vol="187" pan="0" pos="0" len="12"/>
          <note key="46" vol="123" pan="0" pos="24" len="12"/>
          <note key="55" vol="123" pan="0" pos="48" len="12"/>
          <note key="46" vol="123" pan="0" pos="48" len="12"/>
          <note key="40" vol="187" pan="0" pos="48" len="12"/>
          <note key="36" vol="187" pan="0" pos="48" len="12"/>
          <note key="46" vol="123" pan="0" pos="72" len="12"/>
          <note key="55" vol="123" pan="0" pos="96" len="12"/>
          <note key="46" vol="123" pan="0" pos="96" len="12"/>
          <note key="36" vol="187" pan="0" pos="96" len="12"/>
          <note key="46" vol="123" pan="0" pos="120" len="12"/>
          <note key="55" vol="123" pan="0" pos="144" len="12"/>
          <note key="46" vol="123" pan="0" pos="144" len="12"/>
          <note key="40" vol="187" pan="0" pos="144" len="12"/>
          <note key="36" vol="187" pan="0" pos="144" len="12"/>
          <note key="46" vol="123" pan="0" pos="168" len="12"/>
          <note key="55" vol="123" pan="0" pos="192" len="12"/>
          <note key="46" vol="123" pan="0" pos="192" len="12"/>
          <note key="36" vol="187" pan="0" pos="192" len="12"/>
          <note key="46" vol="123" pan="0" pos="216" len="12"/>
          <note key="55" vol="123" pan="0" pos="240" len="12"/>
          <note key="46" vol="123" pan="0" pos="240" len="12"/>
          <note key="40" vol="187" pan="0" pos="240" len="12"/>
          <note key="36" vol="187" pan="0" pos="240" len="12"/>
          <note key="46" vol="123" pan="0" pos="264" len="12"/>
          <note key="55" vol="123" pan="0" pos="288" len="12"/>
          <note key="46" vol="123" pan="0" pos="288" len="12"/>
          <note key="36" vol="187" pan="0" pos="288" len="12"/>
          <note key="46" vol="123" pan="0" pos="312" len="12"/>
          <note key="55" vol="123" pan="0" pos="336" len="12"/>
          <note key="46" vol="123" pan="0" pos="336" len="12"/>
          <note key="40" vol="187" pan="0" pos="336" len="6"/>
          <note key="36" vol="187" pan="0" pos="336" len="12"/>
          <note key="57" vol="123" pan="0" pos="360" len="12"/>
          <note key="46" vol="123" pan="0" pos="360" len="12"/>
          <note key="55" vol="123" pan="0" pos="384" len="12"/>
          <note key="46" vol="123" pan="0" pos="384" len="12"/>
          <note key="36" vol="187" pan="0" pos="384" len="12"/>
          <note key="46" vol="123" pan="0" pos="408" len="12"/>
          <note key="55" vol="123" pan="0" pos="432" len="12"/>
          <note key="46" vol="123" pan="0" pos="432" len="12"/>
          <note key="40" vol="187" pan="0" pos="432" len="12"/>
          <note key="36" vol="187" pan="0" pos="432" len="12"/>
          <note key="46" vol="123" pan="0" pos="456" len="12"/>
          <note key="55" vol="123" pan="0" pos="480" len="12"/>
          <note key="46" vol="123" pan="0" pos="480" len="12"/>
          <note key="36" vol="187" pan="0" pos="480" len="12"/>
          <note key="46" vol="123" pan="0" pos="504" len="12"/>
          <note key="55" vol="123" pan="0" pos="528" len="12"/>
          <note key="46" vol="123" pan="0" pos="528" len="12"/>
          <note key="40" vol="187" pan="0" pos="528" len="12"/>
          <note key="36" vol="187" pan="0" pos="528" len="12"/>
          <note key="46" vol="123" pan="0" pos="552" len="12"/>
          <note key="55" vol="123" pan="0" pos="576" len="12"/>
          <note key="46" vol="123" pan="0" pos="576" len="12"/>
          <note key="36" vol="187" pan="0" pos="576" len="12"/>
          <note key="46" vol="123" pan="0" pos="600" len="12"/>
          <note key="55" vol="123" pan="0" pos="624" len="12"/>
          <note key="46" vol="123" pan="0" pos="624" len="12"/>
          <note key="40" vol="187" pan="0" pos="624" len="12"/>
          <note key="36" vol="187" pan="0" pos="624" len="12"/>
          <note key="46" vol="123" pan="0" pos="648" len="12"/>
          <note key="55" vol="123" pan="0" pos="672" len="12"/>
          <note key="46" vol="123" pan="0" pos="672" len="12"/>
          <note key="36" vol="187" pan="0" pos="672" len="12"/>
          <note key="46" vol="123" pan="0" pos="696" len="12"/>
          <note key="55" vol="123" pan="0" pos="720" len="12"/>
          <note key="46" vol="123" pan="0" pos="720" len="12"/>
          <note key="40" vol="187" pan="0" pos="720" len="12"/>
          <note key="36" vol="187" pan="0" pos="720" len="12"/>
          <note key="46" vol="123" pan="0" pos="744" len="12"/>
        </pattern>
        <pattern name="Carla Rack (Drums)" pos="13440" type="1" muted="0" steps="16">
          <note key="57" vol="180" pan="0" pos="0" len="48"/>
          <note key="55" vol="123" pan="0" pos="0" len="12"/>
          <note key="46" vol="123" pan="0" pos="0" len="12"/>
          <note key="36" vol="187" pan="0" pos="0" len="12"/>
          <note key="46" vol="123" pan="0" pos="24" len="12"/>
          <note key="55" vol="123" pan="0" pos="48" len="12"/>
          <note key="46" vol="123" pan="0" pos="48" len="12"/>
          <note key="40" vol="187" pan="0" pos="48" len="12"/>
          <note key="36" vol="187" pan="0" pos="48" len="12"/>
          <note key="46" vol="123" pan="0" pos="72" len="12"/>
          <note key="55" vol="123" pan="0" pos="96" len="12"/>
          <note key="46" vol="123" pan="0" pos="96" len="12"/>
          <note key="36" vol="187" pan="0" pos="96" len="12"/>
          <note key="46" vol="123" pan="0" pos="120" len="12"/>
          <note key="55" vol="123" pan="0" pos="144" len="12"/>
          <note key="46" vol="123" pan="0" pos="144" len="12"/>
          <note key="40" vol="187" pan="0" pos="144" len="12"/>
          <note key="36" vol="187" pan="0" pos="144" len="12"/>
          <note key="46" vol="123" pan="0" pos="168" len="12"/>
          <note key="55" vol="123" pan="0" pos="192" len="12"/>
          <note key="46" vol="123" pan="0" pos="192" len="12"/>
          <note key="36" vol="187" pan="0" pos="192" len="12"/>
          <note key="46" vol="123" pan="0" pos="216" len="12"/>
          <note key="55" vol="123" pan="0" pos="240" len="12"/>
          <note key="46" vol="123" pan="0" pos="240" len="12"/>
          <note key="40" vol="187" pan="0" pos="240" len="12"/>
          <note key="36" vol="187" pan="0" pos="240" len="12"/>
          <note key="46" vol="123" pan="0" pos="264" len="12"/>
          <note key="55" vol="123" pan="0" pos="288" len="12"/>
          <note key="46" vol="123" pan="0" pos="288" len="12"/>
          <note key="36" vol="187" pan="0" pos="288" len="12"/>
          <note key="46" vol="123" pan="0" pos="312" len="12"/>
          <note key="55" vol="123" pan="0" pos="336" len="12"/>
          <note key="46" vol="123" pan="0" pos="336" len="12"/>
          <note key="40" vol="187" pan="0" pos="336" len="12"/>
          <note key="36" vol="187" pan="0" pos="336" len="12"/>
          <note key="46" vol="123" pan="0" pos="360" len="12"/>
          <note key="55" vol="123" pan="0" pos="384" len="12"/>
          <note key="46" vol="123" pan="0" pos="384" len="12"/>
          <note key="36" vol="187" pan="0" pos="384" len="12"/>
          <note key="46" vol="123" pan="0" pos="408" len="12"/>
          <note key="55" vol="123" pan="0" pos="432" len="12"/>
          <note key="46" vol="123" pan="0" pos="432" len="12"/>
          <note key="40" vol="187" pan="0" pos="432" len="12"/>
          <note key="36" vol="187" pan="0" pos="432" len="12"/>
          <note key="46" vol="123" pan="0" pos="456" len="12"/>
          <note key="55" vol="123" pan="0" pos="480" len="12"/>
          <note key="46" vol="123" pan="0" pos="480" len="12"/>
          <note key="36" vol="187" pan="0" pos="480" len="12"/>
          <note key="46" vol="123" pan="0" pos="504" len="12"/>
          <note key="55" vol="123" pan="0" pos="528" len="12"/>
          <note key="46" vol="123" pan="0" pos="528" len="12"/>
          <note key="40" vol="187" pan="0" pos="528" len="12"/>
          <note key="36" vol="187" pan="0" pos="528" len="12"/>
          <note key="46" vol="123" pan="0" pos="552" len="12"/>
          <note key="55" vol="123" pan="0" pos="576" len="12"/>
          <note key="46" vol="123" pan="0" pos="576" len="12"/>
          <note key="36" vol="187" pan="0" pos="576" len="12"/>
          <note key="46" vol="123" pan="0" pos="600" len="12"/>
          <note key="55" vol="123" pan="0" pos="624" len="12"/>
          <note key="46" vol="123" pan="0" pos="624" len="12"/>
          <note key="40" vol="187" pan="0" pos="624" len="12"/>
          <note key="36" vol="187" pan="0" pos="624" len="12"/>
          <note key="46" vol="123" pan="0" pos="648" len="12"/>
          <note key="55" vol="123" pan="0" pos="672" len="12"/>
          <note key="46" vol="123" pan="0" pos="672" len="12"/>
          <note key="36" vol="187" pan="0" pos="672" len="12"/>
          <note key="46" vol="123" pan="0" pos="696" len="12"/>
          <note key="55" vol="123" pan="0" pos="720" len="12"/>
          <note key="46" vol="123" pan="0" pos="720" len="12"/>
          <note key="40" vol="187" pan="0" pos="720" len="12"/>
          <note key="36" vol="187" pan="0" pos="720" len="12"/>
          <note key="46" vol="123" pan="0" pos="744" len="12"/>
        </pattern>
        <pattern name="Carla Rack (Drums)" pos="14208" type="1" muted="0" steps="16">
          <note key="57" vol="180" pan="0" pos="0" len="48"/>
          <note key="55" vol="123" pan="0" pos="0" len="12"/>
          <note key="46" vol="123" pan="0" pos="0" len="12"/>
          <note key="36" vol="187" pan="0" pos="0" len="12"/>
          <note key="46" vol="123" pan="0" pos="24" len="12"/>
          <note key="55" vol="123" pan="0" pos="48" len="12"/>
          <note key="46" vol="123" pan="0" pos="48" len="12"/>
          <note key="40" vol="187" pan="0" pos="48" len="12"/>
          <note key="36" vol="187" pan="0" pos="48" len="12"/>
          <note key="46" vol="123" pan="0" pos="72" len="12"/>
          <note key="55" vol="123" pan="0" pos="96" len="12"/>
          <note key="46" vol="123" pan="0" pos="96" len="12"/>
          <note key="36" vol="187" pan="0" pos="96" len="12"/>
          <note key="46" vol="123" pan="0" pos="120" len="12"/>
          <note key="55" vol="123" pan="0" pos="144" len="12"/>
          <note key="46" vol="123" pan="0" pos="144" len="12"/>
          <note key="40" vol="187" pan="0" pos="144" len="12"/>
          <note key="36" vol="187" pan="0" pos="144" len="12"/>
          <note key="46" vol="123" pan="0" pos="168" len="12"/>
          <note key="55" vol="123" pan="0" pos="192" len="12"/>
          <note key="46" vol="123" pan="0" pos="192" len="12"/>
          <note key="36" vol="187" pan="0" pos="192" len="12"/>
          <note key="46" vol="123" pan="0" pos="216" len="12"/>
          <note key="55" vol="123" pan="0" pos="240" len="12"/>
          <note key="46" vol="123" pan="0" pos="240" len="12"/>
          <note key="40" vol="187" pan="0" pos="240" len="12"/>
          <note key="36" vol="187" pan="0" pos="240" len="12"/>
          <note key="46" vol="123" pan="0" pos="264" len="12"/>
          <note key="55" vol="123" pan="0" pos="288" len="12"/>
          <note key="46" vol="123" pan="0" pos="288" len="12"/>
          <note key="36" vol="187" pan="0" pos="288" len="12"/>
          <note key="46" vol="123" pan="0" pos="312" len="12"/>
          <note key="55" vol="123" pan="0" pos="336" len="12"/>
          <note key="46" vol="123" pan="0" pos="336" len="12"/>
          <note key="40" vol="187" pan="0" pos="336" len="12"/>
          <note key="36" vol="187" pan="0" pos="336" len="12"/>
          <note key="46" vol="123" pan="0" pos="360" len="12"/>
          <note key="55" vol="123" pan="0" pos="384" len="12"/>
          <note key="46" vol="123" pan="0" pos="384" len="12"/>
          <note key="36" vol="187" pan="0" pos="384" len="12"/>
          <note key="46" vol="123" pan="0" pos="408" len="12"/>
          <note key="55" vol="123" pan="0" pos="432" len="12"/>
          <note key="46" vol="123" pan="0" pos="432" len="12"/>
          <note key="40" vol="187" pan="0" pos="432" len="12"/>
          <note key="36" vol="187" pan="0" pos="432" len="12"/>
          <note key="46" vol="123" pan="0" pos="456" len="12"/>
          <note key="55" vol="123" pan="0" pos="480" len="12"/>
          <note key="46" vol="123" pan="0" pos="480" len="12"/>
          <note key="36" vol="187" pan="0" pos="480" len="12"/>
          <note key="46" vol="123" pan="0" pos="504" len="12"/>
          <note key="55" vol="123" pan="0" pos="528" len="12"/>
          <note key="46" vol="123" pan="0" pos="528" len="12"/>
          <note key="40" vol="187" pan="0" pos="528" len="12"/>
          <note key="36" vol="187" pan="0" pos="528" len="12"/>
          <note key="46" vol="123" pan="0" pos="552" len="12"/>
          <note key="55" vol="123" pan="0" pos="576" len="12"/>
          <note key="46" vol="123" pan="0" pos="576" len="12"/>
          <note key="36" vol="187" pan="0" pos="576" len="12"/>
          <note key="46" vol="123" pan="0" pos="600" len="12"/>
          <note key="55" vol="123" pan="0" pos="624" len="12"/>
          <note key="46" vol="123" pan="0" pos="624" len="12"/>
          <note key="40" vol="187" pan="0" pos="624" len="12"/>
          <note key="36" vol="187" pan="0" pos="624" len="12"/>
          <note key="46" vol="123" pan="0" pos="648" len="12"/>
          <note key="55" vol="123" pan="0" pos="672" len="12"/>
          <note key="46" vol="123" pan="0" pos="672" len="12"/>
          <note key="36" vol="187" pan="0" pos="672" len="12"/>
          <note key="46" vol="123" pan="0" pos="696" len="12"/>
          <note key="55" vol="123" pan="0" pos="720" len="12"/>
          <note key="46" vol="123" pan="0" pos="720" len="12"/>
          <note key="40" vol="187" pan="0" pos="720" len="12"/>
          <note key="36" vol="187" pan="0" pos="720" len="12"/>
          <note key="46" vol="123" pan="0" pos="744" len="12"/>
        </pattern>
        <pattern name="Carla Rack (Drums)" pos="14976" type="1" muted="0" steps="16">
          <note key="57" vol="180" pan="0" pos="0" len="48"/>
          <note key="55" vol="134" pan="0" pos="0" len="12"/>
          <note key="46" vol="134" pan="0" pos="0" len="12"/>
          <note key="36" vol="174" pan="0" pos="0" len="12"/>
          <note key="46" vol="134" pan="0" pos="24" len="12"/>
          <note key="55" vol="134" pan="0" pos="48" len="12"/>
          <note key="46" vol="134" pan="0" pos="48" len="12"/>
          <note key="40" vol="174" pan="0" pos="48" len="12"/>
          <note key="36" vol="174" pan="0" pos="48" len="12"/>
          <note key="46" vol="134" pan="0" pos="72" len="12"/>
          <note key="55" vol="134" pan="0" pos="96" len="12"/>
          <note key="46" vol="134" pan="0" pos="96" len="12"/>
          <note key="36" vol="174" pan="0" pos="96" len="12"/>
          <note key="46" vol="134" pan="0" pos="120" len="12"/>
          <note key="55" vol="134" pan="0" pos="144" len="12"/>
          <note key="46" vol="134" pan="0" pos="144" len="12"/>
          <note key="40" vol="174" pan="0" pos="144" len="12"/>
          <note key="36" vol="174" pan="0" pos="144" len="12"/>
          <note key="46" vol="134" pan="0" pos="168" len="12"/>
          <note key="55" vol="134" pan="0" pos="192" len="12"/>
          <note key="46" vol="134" pan="0" pos="192" len="12"/>
          <note key="36" vol="174" pan="0" pos="192" len="12"/>
          <note key="46" vol="134" pan="0" pos="216" len="12"/>
          <note key="55" vol="134" pan="0" pos="240" len="12"/>
          <note key="46" vol="134" pan="0" pos="240" len="12"/>
          <note key="40" vol="174" pan="0" pos="240" len="12"/>
          <note key="36" vol="174" pan="0" pos="240" len="12"/>
          <note key="46" vol="134" pan="0" pos="264" len="12"/>
          <note key="55" vol="134" pan="0" pos="288" len="12"/>
          <note key="46" vol="134" pan="0" pos="288" len="12"/>
          <note key="36" vol="174" pan="0" pos="288" len="12"/>
          <note key="46" vol="134" pan="0" pos="312" len="12"/>
          <note key="55" vol="134" pan="0" pos="336" len="12"/>
          <note key="46" vol="134" pan="0" pos="336" len="12"/>
          <note key="40" vol="174" pan="0" pos="336" len="12"/>
          <note key="36" vol="174" pan="0" pos="336" len="12"/>
          <note key="46" vol="134" pan="0" pos="360" len="12"/>
          <note key="55" vol="134" pan="0" pos="384" len="12"/>
          <note key="46" vol="134" pan="0" pos="384" len="12"/>
          <note key="36" vol="174" pan="0" pos="384" len="12"/>
          <note key="46" vol="134" pan="0" pos="408" len="12"/>
          <note key="55" vol="134" pan="0" pos="432" len="12"/>
          <note key="46" vol="134" pan="0" pos="432" len="12"/>
          <note key="40" vol="174" pan="0" pos="432" len="12"/>
          <note key="36" vol="174" pan="0" pos="432" len="12"/>
          <note key="46" vol="134" pan="0" pos="456" len="12"/>
          <note key="40" vol="100" pan="0" pos="456" len="12"/>
          <note key="49" vol="134" pan="0" pos="480" len="12"/>
          <note key="46" vol="134" pan="0" pos="480" len="12"/>
          <note key="40" vol="100" pan="0" pos="480" len="12"/>
          <note key="36" vol="174" pan="0" pos="480" len="12"/>
          <note key="57" vol="182" pan="0" pos="528" len="36"/>
          <note key="46" vol="134" pan="0" pos="528" len="12"/>
          <note key="40" vol="174" pan="0" pos="528" len="6"/>
          <note key="36" vol="174" pan="0" pos="528" len="12"/>
        </pattern>
        <pattern name="Carla Rack (Drums)" pos="12672" type="1" muted="0" steps="16">
          <note key="57" vol="180" pan="0" pos="0" len="48"/>
          <note key="55" vol="134" pan="0" pos="0" len="12"/>
          <note key="46" vol="134" pan="0" pos="0" len="12"/>
          <note key="36" vol="174" pan="0" pos="0" len="12"/>
          <note key="46" vol="134" pan="0" pos="24" len="12"/>
          <note key="55" vol="134" pan="0" pos="48" len="12"/>
          <note key="46" vol="134" pan="0" pos="48" len="12"/>
          <note key="40" vol="174" pan="0" pos="48" len="12"/>
          <note key="36" vol="174" pan="0" pos="48" len="12"/>
          <note key="46" vol="134" pan="0" pos="72" len="12"/>
          <note key="55" vol="134" pan="0" pos="96" len="12"/>
          <note key="46" vol="134" pan="0" pos="96" len="12"/>
          <note key="36" vol="174" pan="0" pos="96" len="12"/>
          <note key="46" vol="134" pan="0" pos="120" len="12"/>
          <note key="55" vol="134" pan="0" pos="144" len="12"/>
          <note key="46" vol="134" pan="0" pos="144" len="12"/>
          <note key="40" vol="174" pan="0" pos="144" len="12"/>
          <note key="36" vol="174" pan="0" pos="144" len="12"/>
          <note key="46" vol="134" pan="0" pos="168" len="12"/>
          <note key="55" vol="134" pan="0" pos="192" len="12"/>
          <note key="46" vol="134" pan="0" pos="192" len="12"/>
          <note key="36" vol="174" pan="0" pos="192" len="12"/>
          <note key="46" vol="134" pan="0" pos="216" len="12"/>
          <note key="55" vol="134" pan="0" pos="240" len="12"/>
          <note key="46" vol="134" pan="0" pos="240" len="12"/>
          <note key="40" vol="174" pan="0" pos="240" len="12"/>
          <note key="36" vol="174" pan="0" pos="240" len="12"/>
          <note key="46" vol="134" pan="0" pos="264" len="12"/>
          <note key="55" vol="134" pan="0" pos="288" len="12"/>
          <note key="46" vol="134" pan="0" pos="288" len="12"/>
          <note key="36" vol="174" pan="0" pos="288" len="12"/>
          <note key="46" vol="134" pan="0" pos="312" len="12"/>
          <note key="55" vol="134" pan="0" pos="336" len="12"/>
          <note key="46" vol="134" pan="0" pos="336" len="12"/>
          <note key="40" vol="174" pan="0" pos="336" len="12"/>
          <note key="36" vol="174" pan="0" pos="336" len="12"/>
          <note key="46" vol="134" pan="0" pos="360" len="12"/>
          <note key="55" vol="134" pan="0" pos="384" len="12"/>
          <note key="46" vol="134" pan="0" pos="384" len="12"/>
          <note key="36" vol="174" pan="0" pos="384" len="12"/>
          <note key="46" vol="134" pan="0" pos="408" len="12"/>
          <note key="55" vol="134" pan="0" pos="432" len="12"/>
          <note key="46" vol="134" pan="0" pos="432" len="12"/>
          <note key="40" vol="174" pan="0" pos="432" len="12"/>
          <note key="36" vol="174" pan="0" pos="432" len="12"/>
          <note key="46" vol="134" pan="0" pos="456" len="12"/>
          <note key="55" vol="134" pan="0" pos="480" len="12"/>
          <note key="47" vol="161" pan="0" pos="480" len="6"/>
          <note key="46" vol="134" pan="0" pos="480" len="12"/>
          <note key="40" vol="170" pan="0" pos="480" len="12"/>
          <note key="36" vol="174" pan="0" pos="480" len="12"/>
          <note key="47" vol="161" pan="0" pos="486" len="6"/>
          <note key="47" vol="161" pan="0" pos="492" len="6"/>
          <note key="47" vol="161" pan="0" pos="498" len="6"/>
          <note key="46" vol="134" pan="0" pos="504" len="12"/>
          <note key="43" vol="161" pan="0" pos="504" len="12"/>
          <note key="55" vol="134" pan="0" pos="528" len="12"/>
          <note key="47" vol="161" pan="0" pos="528" len="6"/>
          <note key="46" vol="134" pan="0" pos="528" len="12"/>
          <note key="40" vol="174" pan="0" pos="528" len="12"/>
          <note key="36" vol="174" pan="0" pos="528" len="12"/>
          <note key="47" vol="161" pan="0" pos="534" len="6"/>
          <note key="47" vol="161" pan="0" pos="540" len="6"/>
          <note key="47" vol="161" pan="0" pos="546" len="6"/>
          <note key="46" vol="134" pan="0" pos="552" len="12"/>
          <note key="43" vol="161" pan="0" pos="552" len="12"/>
          <note key="55" vol="134" pan="0" pos="576" len="12"/>
          <note key="46" vol="134" pan="0" pos="576" len="12"/>
          <note key="36" vol="174" pan="0" pos="576" len="12"/>
          <note key="46" vol="134" pan="0" pos="600" len="12"/>
          <note key="55" vol="134" pan="0" pos="624" len="12"/>
          <note key="46" vol="134" pan="0" pos="624" len="12"/>
          <note key="40" vol="174" pan="0" pos="624" len="12"/>
          <note key="36" vol="174" pan="0" pos="624" len="12"/>
          <note key="46" vol="134" pan="0" pos="648" len="12"/>
          <note key="55" vol="134" pan="0" pos="672" len="12"/>
          <note key="46" vol="134" pan="0" pos="672" len="12"/>
          <note key="36" vol="174" pan="0" pos="672" len="12"/>
          <note key="46" vol="134" pan="0" pos="696" len="12"/>
          <note key="55" vol="134" pan="0" pos="720" len="12"/>
          <note key="46" vol="134" pan="0" pos="720" len="12"/>
          <note key="40" vol="174" pan="0" pos="720" len="6"/>
          <note key="36" vol="174" pan="0" pos="720" len="12"/>
          <note key="46" vol="134" pan="0" pos="744" len="12"/>
        </pattern>
      </track>
      <track name="Drums" type="0" muted="0" solo="0">
        <instrumenttrack vol="157.60001" pan="0" pitch="0" usemasterpitch="1" fxch="6" basenote="57" pitchrange="1">
          <instrument name="sf2player">
            <sf2player gain="1" reverbRoomSize="0.2" patch="0" reverbWidth="0.5" chorusLevel="2" src="soundfonts/SGM-v2.01-HQ-v3.0.sf2" reverbLevel="0.89999998" chorusSpeed="0.30000001" bank="128" chorusOn="0" reverbDamping="0.2" chorusNum="0.89999998" reverbOn="0" chorusDepth="8"/>
          </instrument>
          <eldata ftype="0" fres="0.5" fwet="0" fcut="14000">
            <elvol lamt="0" sustain="0.5" pdel="0" latt="0" dec="0.5" lspd_numerator="4" amt="0" userwavefile="" rel="0.1" lspd_denominator="4" lpdel="0" lspd="0.1" lshp="0" hold="0.5" att="0" ctlenvamt="0" lspd_syncmode="0" x100="0"/>
            <elcut lamt="0" sustain="0.5" pdel="0" latt="0" dec="0.5" lspd_numerator="4" amt="0" userwavefile="" rel="0.1" lspd_denominator="4" lpdel="0" lspd="0.1" lshp="0" hold="0.5" att="0" ctlenvamt="0" lspd_syncmode="0" x100="0"/>
            <elres lamt="0" sustain="0.5" pdel="0" latt="0" dec="0.5" lspd_numerator="4" amt="0" userwavefile="" rel="0.1" lspd_denominator="4" lpdel="0" lspd="0.1" lshp="0" hold="0.5" att="0" ctlenvamt="0" lspd_syncmode="0" x100="0"/>
          </eldata>
          <chordcreator chordrange="1" chord-enabled="0" chord="0"/>
          <arpeggiator arpmiss="0" arptime_numerator="4" arptime_syncmode="0" arpgate="100" arptime="200" arpcycle="0" arptime_denominator="4" arp="0" arpmode="0" arprange="1" arp-enabled="0" arpskip="0" arpdir="0"/>
          <midiport outputchannel="1" fixedoutputnote="-1" writable="0" inputchannel="0" inputcontroller="0" outputcontroller="0" fixedinputvelocity="-1" outputprogram="1" readable="0" basevelocity="63" fixedoutputvelocity="-1"/>
          <fxchain numofeffects="1" enabled="1">
            <effect wet="1" autoquit_numerator="4" name="eq" autoquit_syncmode="0" on="1" autoquit="1" gate="0" autoquit_denominator="4">
              <Eq LP24="0" Peak2gain="0" HighShelfres="1.4" AnalyseIn="1" LPres="0.70700002" Peak4active="0" LPactive="0" LP="0" LP12="1" Peak4gain="0" Peak2bw="0.30000001" HPactive="0" AnalyseOut="1" Lowshelfactive="0" Peak3gain="0" LowShelfres="1.4" Peak4bw="0.30000001" LP48="0" HP="0" Peak3bw="0.30000001" Lowshelfgain="0" Peak1bw="0.30000001" HP48="0" Peak2active="0" Peak3active="0" HP12="1" HighShelfgain="0" HPres="0.70700002" Highshelfactive="0" HP24="0" Peak1active="0" Outputgain="0">
                <Inputgain id="6869205" value="2" scale_type="log"/>
                <Peak1gain id="404232" value="0" scale_type="log"/>
                <HPfreq id="8067842" value="31" scale_type="log"/>
                <LowShelffreq id="5108905" value="80" scale_type="log"/>
                <Peak1freq id="4318011" value="120" scale_type="log"/>
                <Peak2freq id="2888856" value="250" scale_type="log"/>
                <Peak3freq id="4987975" value="2000" scale_type="log"/>
                <Peak4freq id="7198102" value="4000" scale_type="log"/>
                <Highshelffreq id="7051751" value="12000" scale_type="log"/>
                <LPfreq id="7790170" value="18000" scale_type="log"/>
              </Eq>
              <key/>
            </effect>
          </fxchain>
        </instrumenttrack>
        <pattern name="Drums" pos="2688" type="1" muted="0" steps="16">
          <note key="43" vol="134" pan="0" pos="0" len="12"/>
          <note key="34" vol="134" pan="0" pos="0" len="12"/>
          <note key="24" vol="174" pan="0" pos="0" len="12"/>
          <note key="34" vol="134" pan="0" pos="24" len="12"/>
          <note key="43" vol="134" pan="0" pos="48" len="12"/>
          <note key="34" vol="134" pan="0" pos="48" len="12"/>
          <note key="28" vol="174" pan="0" pos="48" len="12"/>
          <note key="24" vol="174" pan="0" pos="48" len="12"/>
          <note key="34" vol="134" pan="0" pos="72" len="12"/>
          <note key="43" vol="134" pan="0" pos="96" len="12"/>
          <note key="34" vol="134" pan="0" pos="96" len="12"/>
          <note key="24" vol="174" pan="0" pos="96" len="12"/>
          <note key="34" vol="134" pan="0" pos="120" len="12"/>
          <note key="43" vol="134" pan="0" pos="144" len="12"/>
          <note key="34" vol="134" pan="0" pos="144" len="12"/>
          <note key="28" vol="174" pan="0" pos="144" len="12"/>
          <note key="24" vol="174" pan="0" pos="144" len="12"/>
          <note key="34" vol="134" pan="0" pos="168" len="12"/>
          <note key="43" vol="134" pan="0" pos="192" len="12"/>
          <note key="34" vol="134" pan="0" pos="192" len="12"/>
          <note key="24" vol="174" pan="0" pos="192" len="12"/>
          <note key="34" vol="134" pan="0" pos="216" len="12"/>
          <note key="43" vol="134" pan="0" pos="240" len="12"/>
          <note key="34" vol="134" pan="0" pos="240" len="12"/>
          <note key="28" vol="174" pan="0" pos="240" len="12"/>
          <note key="24" vol="174" pan="0" pos="240" len="12"/>
          <note key="34" vol="134" pan="0" pos="264" len="12"/>
          <note key="43" vol="134" pan="0" pos="288" len="12"/>
          <note key="34" vol="134" pan="0" pos="288" len="12"/>
          <note key="24" vol="174" pan="0" pos="288" len="12"/>
          <note key="34" vol="134" pan="0" pos="312" len="12"/>
          <note key="43" vol="134" pan="0" pos="336" len="12"/>
          <note key="34" vol="134" pan="0" pos="336" len="12"/>
          <note key="28" vol="174" pan="0" pos="336" len="6"/>
          <note key="24" vol="174" pan="0" pos="336" len="12"/>
          <note key="45" vol="134" pan="0" pos="360" len="12"/>
          <note key="34" vol="134" pan="0" pos="360" len="12"/>
          <note key="43" vol="134" pan="0" pos="384" len="12"/>
          <note key="34" vol="134" pan="0" pos="384" len="12"/>
          <note key="24" vol="174" pan="0" pos="384" len="12"/>
          <note key="34" vol="134" pan="0" pos="408" len="12"/>
          <note key="43" vol="134" pan="0" pos="432" len="12"/>
          <note key="34" vol="134" pan="0" pos="432" len="12"/>
          <note key="28" vol="174" pan="0" pos="432" len="12"/>
          <note key="24" vol="174" pan="0" pos="432" len="12"/>
          <note key="34" vol="134" pan="0" pos="456" len="12"/>
          <note key="43" vol="134" pan="0" pos="480" len="12"/>
          <note key="34" vol="134" pan="0" pos="480" len="12"/>
          <note key="24" vol="174" pan="0" pos="480" len="12"/>
          <note key="34" vol="134" pan="0" pos="504" len="12"/>
          <note key="43" vol="134" pan="0" pos="528" len="12"/>
          <note key="34" vol="134" pan="0" pos="528" len="12"/>
          <note key="28" vol="174" pan="0" pos="528" len="12"/>
          <note key="24" vol="174" pan="0" pos="528" len="12"/>
          <note key="34" vol="134" pan="0" pos="552" len="12"/>
          <note key="43" vol="134" pan="0" pos="576" len="12"/>
          <note key="34" vol="134" pan="0" pos="576" len="12"/>
          <note key="24" vol="174" pan="0" pos="576" len="12"/>
          <note key="34" vol="134" pan="0" pos="600" len="12"/>
          <note key="43" vol="134" pan="0" pos="624" len="12"/>
          <note key="34" vol="134" pan="0" pos="624" len="12"/>
          <note key="28" vol="174" pan="0" pos="624" len="12"/>
          <note key="24" vol="174" pan="0" pos="624" len="12"/>
          <note key="34" vol="134" pan="0" pos="648" len="12"/>
          <note key="43" vol="134" pan="0" pos="672" len="12"/>
          <note key="34" vol="134" pan="0" pos="672" len="12"/>
          <note key="24" vol="174" pan="0" pos="672" len="12"/>
          <note key="34" vol="134" pan="0" pos="696" len="12"/>
          <note key="43" vol="134" pan="0" pos="720" len="12"/>
          <note key="34" vol="134" pan="0" pos="720" len="12"/>
          <note key="28" vol="174" pan="0" pos="720" len="6"/>
          <note key="24" vol="174" pan="0" pos="720" len="12"/>
          <note key="34" vol="134" pan="0" pos="744" len="12"/>
        </pattern>
        <pattern name="Drums" pos="3456" type="1" muted="0" steps="16">
          <note key="43" vol="134" pan="0" pos="0" len="12"/>
          <note key="34" vol="134" pan="0" pos="0" len="12"/>
          <note key="24" vol="174" pan="0" pos="0" len="12"/>
          <note key="34" vol="134" pan="0" pos="24" len="12"/>
          <note key="43" vol="134" pan="0" pos="48" len="12"/>
          <note key="34" vol="134" pan="0" pos="48" len="12"/>
          <note key="28" vol="174" pan="0" pos="48" len="12"/>
          <note key="24" vol="174" pan="0" pos="48" len="12"/>
          <note key="34" vol="134" pan="0" pos="72" len="12"/>
          <note key="43" vol="134" pan="0" pos="96" len="12"/>
          <note key="34" vol="134" pan="0" pos="96" len="12"/>
          <note key="24" vol="174" pan="0" pos="96" len="12"/>
          <note key="34" vol="134" pan="0" pos="120" len="12"/>
          <note key="43" vol="134" pan="0" pos="144" len="12"/>
          <note key="34" vol="134" pan="0" pos="144" len="12"/>
          <note key="28" vol="174" pan="0" pos="144" len="12"/>
          <note key="24" vol="174" pan="0" pos="144" len="12"/>
          <note key="34" vol="134" pan="0" pos="168" len="12"/>
          <note key="43" vol="134" pan="0" pos="192" len="12"/>
          <note key="34" vol="134" pan="0" pos="192" len="12"/>
          <note key="24" vol="174" pan="0" pos="192" len="12"/>
          <note key="34" vol="134" pan="0" pos="216" len="12"/>
          <note key="43" vol="134" pan="0" pos="240" len="12"/>
          <note key="34" vol="134" pan="0" pos="240" len="12"/>
          <note key="28" vol="174" pan="0" pos="240" len="12"/>
          <note key="24" vol="174" pan="0" pos="240" len="12"/>
          <note key="34" vol="134" pan="0" pos="264" len="12"/>
          <note key="43" vol="134" pan="0" pos="288" len="12"/>
          <note key="34" vol="134" pan="0" pos="288" len="12"/>
          <note key="24" vol="174" pan="0" pos="288" len="12"/>
          <note key="34" vol="134" pan="0" pos="312" len="12"/>
          <note key="43" vol="134" pan="0" pos="336" len="12"/>
          <note key="34" vol="134" pan="0" pos="336" len="12"/>
          <note key="28" vol="174" pan="0" pos="336" len="6"/>
          <note key="24" vol="174" pan="0" pos="336" len="12"/>
          <note key="45" vol="134" pan="0" pos="360" len="12"/>
          <note key="34" vol="134" pan="0" pos="360" len="12"/>
          <note key="43" vol="134" pan="0" pos="384" len="12"/>
          <note key="34" vol="134" pan="0" pos="384" len="12"/>
          <note key="24" vol="174" pan="0" pos="384" len="12"/>
          <note key="34" vol="134" pan="0" pos="408" len="12"/>
          <note key="43" vol="134" pan="0" pos="432" len="12"/>
          <note key="34" vol="134" pan="0" pos="432" len="12"/>
          <note key="28" vol="174" pan="0" pos="432" len="12"/>
          <note key="24" vol="174" pan="0" pos="432" len="12"/>
          <note key="34" vol="134" pan="0" pos="456" len="12"/>
          <note key="43" vol="134" pan="0" pos="480" len="12"/>
          <note key="34" vol="134" pan="0" pos="480" len="12"/>
          <note key="24" vol="174" pan="0" pos="480" len="12"/>
          <note key="34" vol="134" pan="0" pos="504" len="12"/>
          <note key="43" vol="134" pan="0" pos="528" len="12"/>
          <note key="34" vol="134" pan="0" pos="528" len="12"/>
          <note key="28" vol="174" pan="0" pos="528" len="12"/>
          <note key="24" vol="174" pan="0" pos="528" len="12"/>
          <note key="34" vol="134" pan="0" pos="552" len="12"/>
          <note key="43" vol="134" pan="0" pos="576" len="12"/>
          <note key="34" vol="134" pan="0" pos="576" len="12"/>
          <note key="24" vol="174" pan="0" pos="576" len="12"/>
          <note key="34" vol="134" pan="0" pos="600" len="12"/>
          <note key="43" vol="134" pan="0" pos="624" len="12"/>
          <note key="34" vol="134" pan="0" pos="624" len="12"/>
          <note key="28" vol="174" pan="0" pos="624" len="12"/>
          <note key="24" vol="174" pan="0" pos="624" len="12"/>
          <note key="34" vol="134" pan="0" pos="648" len="12"/>
          <note key="43" vol="134" pan="0" pos="672" len="12"/>
          <note key="34" vol="134" pan="0" pos="672" len="12"/>
          <note key="24" vol="174" pan="0" pos="672" len="12"/>
          <note key="34" vol="134" pan="0" pos="696" len="12"/>
          <note key="43" vol="134" pan="0" pos="720" len="12"/>
          <note key="34" vol="134" pan="0" pos="720" len="12"/>
          <note key="28" vol="174" pan="0" pos="720" len="6"/>
          <note key="24" vol="174" pan="0" pos="720" len="12"/>
          <note key="34" vol="134" pan="0" pos="744" len="12"/>
        </pattern>
        <pattern name="Drums" pos="4224" type="1" muted="0" steps="16">
          <note key="45" vol="180" pan="0" pos="0" len="48"/>
          <note key="43" vol="134" pan="0" pos="0" len="12"/>
          <note key="34" vol="134" pan="0" pos="0" len="12"/>
          <note key="24" vol="174" pan="0" pos="0" len="12"/>
          <note key="34" vol="134" pan="0" pos="24" len="12"/>
          <note key="43" vol="134" pan="0" pos="48" len="12"/>
          <note key="34" vol="134" pan="0" pos="48" len="12"/>
          <note key="28" vol="174" pan="0" pos="48" len="12"/>
          <note key="24" vol="174" pan="0" pos="48" len="12"/>
          <note key="34" vol="134" pan="0" pos="72" len="12"/>
          <note key="43" vol="134" pan="0" pos="96" len="12"/>
          <note key="34" vol="134" pan="0" pos="96" len="12"/>
          <note key="24" vol="174" pan="0" pos="96" len="12"/>
          <note key="34" vol="134" pan="0" pos="120" len="12"/>
          <note key="43" vol="134" pan="0" pos="144" len="12"/>
          <note key="34" vol="134" pan="0" pos="144" len="12"/>
          <note key="28" vol="174" pan="0" pos="144" len="12"/>
          <note key="24" vol="174" pan="0" pos="144" len="12"/>
          <note key="34" vol="134" pan="0" pos="168" len="12"/>
          <note key="43" vol="134" pan="0" pos="192" len="12"/>
          <note key="34" vol="134" pan="0" pos="192" len="12"/>
          <note key="24" vol="174" pan="0" pos="192" len="12"/>
          <note key="34" vol="134" pan="0" pos="216" len="12"/>
          <note key="43" vol="134" pan="0" pos="240" len="12"/>
          <note key="34" vol="134" pan="0" pos="240" len="12"/>
          <note key="28" vol="174" pan="0" pos="240" len="12"/>
          <note key="24" vol="174" pan="0" pos="240" len="12"/>
          <note key="34" vol="134" pan="0" pos="264" len="12"/>
          <note key="43" vol="134" pan="0" pos="288" len="12"/>
          <note key="34" vol="134" pan="0" pos="288" len="12"/>
          <note key="24" vol="174" pan="0" pos="288" len="12"/>
          <note key="34" vol="134" pan="0" pos="312" len="12"/>
          <note key="43" vol="134" pan="0" pos="336" len="12"/>
          <note key="34" vol="134" pan="0" pos="336" len="12"/>
          <note key="28" vol="174" pan="0" pos="336" len="12"/>
          <note key="24" vol="174" pan="0" pos="336" len="12"/>
          <note key="34" vol="134" pan="0" pos="360" len="12"/>
          <note key="43" vol="134" pan="0" pos="384" len="12"/>
          <note key="34" vol="134" pan="0" pos="384" len="12"/>
          <note key="24" vol="174" pan="0" pos="384" len="12"/>
          <note key="34" vol="134" pan="0" pos="408" len="12"/>
          <note key="43" vol="134" pan="0" pos="432" len="12"/>
          <note key="34" vol="134" pan="0" pos="432" len="12"/>
          <note key="28" vol="174" pan="0" pos="432" len="12"/>
          <note key="24" vol="174" pan="0" pos="432" len="12"/>
          <note key="34" vol="134" pan="0" pos="456" len="12"/>
          <note key="43" vol="134" pan="0" pos="480" len="12"/>
          <note key="34" vol="134" pan="0" pos="480" len="12"/>
          <note key="24" vol="174" pan="0" pos="480" len="12"/>
          <note key="34" vol="134" pan="0" pos="504" len="12"/>
          <note key="43" vol="134" pan="0" pos="528" len="12"/>
          <note key="34" vol="134" pan="0" pos="528" len="12"/>
          <note key="28" vol="174" pan="0" pos="528" len="12"/>
          <note key="24" vol="174" pan="0" pos="528" len="12"/>
          <note key="34" vol="134" pan="0" pos="552" len="12"/>
          <note key="43" vol="134" pan="0" pos="576" len="12"/>
          <note key="34" vol="134" pan="0" pos="576" len="12"/>
          <note key="24" vol="174" pan="0" pos="576" len="12"/>
          <note key="34" vol="134" pan="0" pos="600" len="12"/>
          <note key="43" vol="134" pan="0" pos="624" len="12"/>
          <note key="34" vol="134" pan="0" pos="624" len="12"/>
          <note key="28" vol="174" pan="0" pos="624" len="12"/>
          <note key="24" vol="174" pan="0" pos="624" len="12"/>
          <note key="34" vol="134" pan="0" pos="648" len="12"/>
          <note key="43" vol="134" pan="0" pos="672" len="12"/>
          <note key="34" vol="134" pan="0" pos="672" len="12"/>
          <note key="24" vol="174" pan="0" pos="672" len="12"/>
          <note key="34" vol="134" pan="0" pos="696" len="12"/>
          <note key="43" vol="134" pan="0" pos="720" len="12"/>
          <note key="34" vol="134" pan="0" pos="720" len="12"/>
          <note key="28" vol="174" pan="0" pos="720" len="6"/>
          <note key="24" vol="174" pan="0" pos="720" len="12"/>
          <note key="34" vol="134" pan="0" pos="744" len="12"/>
        </pattern>
        <pattern name="Drums" pos="4992" type="1" muted="0" steps="16">
          <note key="45" vol="180" pan="0" pos="0" len="48"/>
          <note key="43" vol="134" pan="0" pos="0" len="12"/>
          <note key="34" vol="134" pan="0" pos="0" len="12"/>
          <note key="24" vol="174" pan="0" pos="0" len="12"/>
          <note key="34" vol="134" pan="0" pos="24" len="12"/>
          <note key="43" vol="134" pan="0" pos="48" len="12"/>
          <note key="34" vol="134" pan="0" pos="48" len="12"/>
          <note key="28" vol="174" pan="0" pos="48" len="12"/>
          <note key="24" vol="174" pan="0" pos="48" len="12"/>
          <note key="34" vol="134" pan="0" pos="72" len="12"/>
          <note key="43" vol="134" pan="0" pos="96" len="12"/>
          <note key="34" vol="134" pan="0" pos="96" len="12"/>
          <note key="24" vol="174" pan="0" pos="96" len="12"/>
          <note key="34" vol="134" pan="0" pos="120" len="12"/>
          <note key="43" vol="134" pan="0" pos="144" len="12"/>
          <note key="34" vol="134" pan="0" pos="144" len="12"/>
          <note key="28" vol="174" pan="0" pos="144" len="12"/>
          <note key="24" vol="174" pan="0" pos="144" len="12"/>
          <note key="34" vol="134" pan="0" pos="168" len="12"/>
          <note key="43" vol="134" pan="0" pos="192" len="12"/>
          <note key="34" vol="134" pan="0" pos="192" len="12"/>
          <note key="24" vol="174" pan="0" pos="192" len="12"/>
          <note key="34" vol="134" pan="0" pos="216" len="12"/>
          <note key="43" vol="134" pan="0" pos="240" len="12"/>
          <note key="34" vol="134" pan="0" pos="240" len="12"/>
          <note key="28" vol="174" pan="0" pos="240" len="12"/>
          <note key="24" vol="174" pan="0" pos="240" len="12"/>
          <note key="34" vol="134" pan="0" pos="264" len="12"/>
          <note key="43" vol="134" pan="0" pos="288" len="12"/>
          <note key="34" vol="134" pan="0" pos="288" len="12"/>
          <note key="24" vol="174" pan="0" pos="288" len="12"/>
          <note key="34" vol="134" pan="0" pos="312" len="12"/>
          <note key="43" vol="134" pan="0" pos="336" len="12"/>
          <note key="34" vol="134" pan="0" pos="336" len="12"/>
          <note key="28" vol="174" pan="0" pos="336" len="12"/>
          <note key="24" vol="174" pan="0" pos="336" len="12"/>
          <note key="34" vol="134" pan="0" pos="360" len="12"/>
          <note key="43" vol="134" pan="0" pos="384" len="12"/>
          <note key="34" vol="134" pan="0" pos="384" len="12"/>
          <note key="24" vol="174" pan="0" pos="384" len="12"/>
          <note key="34" vol="134" pan="0" pos="408" len="12"/>
          <note key="43" vol="134" pan="0" pos="432" len="12"/>
          <note key="34" vol="134" pan="0" pos="432" len="12"/>
          <note key="28" vol="174" pan="0" pos="432" len="12"/>
          <note key="24" vol="174" pan="0" pos="432" len="12"/>
          <note key="34" vol="134" pan="0" pos="456" len="12"/>
          <note key="43" vol="134" pan="0" pos="480" len="12"/>
          <note key="34" vol="134" pan="0" pos="480" len="12"/>
          <note key="24" vol="174" pan="0" pos="480" len="12"/>
          <note key="34" vol="134" pan="0" pos="504" len="12"/>
          <note key="43" vol="134" pan="0" pos="528" len="12"/>
          <note key="34" vol="134" pan="0" pos="528" len="12"/>
          <note key="28" vol="174" pan="0" pos="528" len="12"/>
          <note key="24" vol="174" pan="0" pos="528" len="12"/>
          <note key="34" vol="134" pan="0" pos="552" len="12"/>
          <note key="43" vol="134" pan="0" pos="576" len="12"/>
          <note key="34" vol="134" pan="0" pos="576" len="12"/>
          <note key="24" vol="174" pan="0" pos="576" len="12"/>
          <note key="34" vol="134" pan="0" pos="600" len="12"/>
          <note key="43" vol="134" pan="0" pos="624" len="12"/>
          <note key="34" vol="134" pan="0" pos="624" len="12"/>
          <note key="28" vol="174" pan="0" pos="624" len="12"/>
          <note key="24" vol="174" pan="0" pos="624" len="12"/>
          <note key="34" vol="134" pan="0" pos="648" len="12"/>
          <note key="43" vol="134" pan="0" pos="672" len="12"/>
          <note key="34" vol="134" pan="0" pos="672" len="12"/>
          <note key="24" vol="174" pan="0" pos="672" len="12"/>
          <note key="34" vol="134" pan="0" pos="696" len="12"/>
          <note key="45" vol="182" pan="0" pos="720" len="36"/>
          <note key="34" vol="134" pan="0" pos="720" len="12"/>
          <note key="28" vol="174" pan="0" pos="720" len="6"/>
          <note key="24" vol="174" pan="0" pos="720" len="12"/>
          <note key="34" vol="134" pan="0" pos="744" len="12"/>
        </pattern>
        <pattern name="Drums" pos="5760" type="1" muted="0" steps="16">
          <note key="45" vol="180" pan="0" pos="0" len="48"/>
          <note key="43" vol="134" pan="0" pos="0" len="12"/>
          <note key="34" vol="134" pan="0" pos="0" len="12"/>
          <note key="24" vol="174" pan="0" pos="0" len="12"/>
        </pattern>
        <pattern name="Drums" pos="7296" type="1" muted="0" steps="16">
          <note key="45" vol="180" pan="0" pos="0" len="48"/>
          <note key="43" vol="134" pan="0" pos="0" len="12"/>
          <note key="34" vol="134" pan="0" pos="0" len="12"/>
          <note key="24" vol="174" pan="0" pos="0" len="12"/>
          <note key="34" vol="134" pan="0" pos="24" len="12"/>
          <note key="43" vol="134" pan="0" pos="48" len="12"/>
          <note key="34" vol="134" pan="0" pos="48" len="12"/>
          <note key="28" vol="174" pan="0" pos="48" len="12"/>
          <note key="24" vol="174" pan="0" pos="48" len="12"/>
          <note key="34" vol="134" pan="0" pos="72" len="12"/>
          <note key="43" vol="134" pan="0" pos="96" len="12"/>
          <note key="34" vol="134" pan="0" pos="96" len="12"/>
          <note key="24" vol="174" pan="0" pos="96" len="12"/>
          <note key="34" vol="134" pan="0" pos="120" len="12"/>
          <note key="43" vol="134" pan="0" pos="144" len="12"/>
          <note key="34" vol="134" pan="0" pos="144" len="12"/>
          <note key="28" vol="174" pan="0" pos="144" len="12"/>
          <note key="24" vol="174" pan="0" pos="144" len="12"/>
          <note key="34" vol="134" pan="0" pos="168" len="12"/>
          <note key="43" vol="134" pan="0" pos="192" len="12"/>
          <note key="34" vol="134" pan="0" pos="192" len="12"/>
          <note key="24" vol="174" pan="0" pos="192" len="12"/>
          <note key="34" vol="134" pan="0" pos="216" len="12"/>
          <note key="43" vol="134" pan="0" pos="240" len="12"/>
          <note key="34" vol="134" pan="0" pos="240" len="12"/>
          <note key="28" vol="174" pan="0" pos="240" len="12"/>
          <note key="24" vol="174" pan="0" pos="240" len="12"/>
          <note key="34" vol="134" pan="0" pos="264" len="12"/>
          <note key="43" vol="134" pan="0" pos="288" len="12"/>
          <note key="34" vol="134" pan="0" pos="288" len="12"/>
          <note key="24" vol="174" pan="0" pos="288" len="12"/>
          <note key="34" vol="134" pan="0" pos="312" len="12"/>
          <note key="43" vol="134" pan="0" pos="336" len="12"/>
          <note key="34" vol="134" pan="0" pos="336" len="12"/>
          <note key="28" vol="174" pan="0" pos="336" len="12"/>
          <note key="24" vol="174" pan="0" pos="336" len="12"/>
          <note key="34" vol="134" pan="0" pos="360" len="12"/>
          <note key="43" vol="134" pan="0" pos="384" len="12"/>
          <note key="34" vol="134" pan="0" pos="384" len="12"/>
          <note key="24" vol="174" pan="0" pos="384" len="12"/>
          <note key="34" vol="134" pan="0" pos="408" len="12"/>
          <note key="43" vol="134" pan="0" pos="432" len="12"/>
          <note key="34" vol="134" pan="0" pos="432" len="12"/>
          <note key="28" vol="174" pan="0" pos="432" len="12"/>
          <note key="24" vol="174" pan="0" pos="432" len="12"/>
          <note key="34" vol="134" pan="0" pos="456" len="12"/>
          <note key="43" vol="134" pan="0" pos="480" len="12"/>
          <note key="34" vol="134" pan="0" pos="480" len="12"/>
          <note key="24" vol="174" pan="0" pos="480" len="12"/>
          <note key="34" vol="134" pan="0" pos="504" len="12"/>
          <note key="43" vol="134" pan="0" pos="528" len="12"/>
          <note key="34" vol="134" pan="0" pos="528" len="12"/>
          <note key="28" vol="174" pan="0" pos="528" len="12"/>
          <note key="24" vol="174" pan="0" pos="528" len="12"/>
          <note key="34" vol="134" pan="0" pos="552" len="12"/>
          <note key="43" vol="134" pan="0" pos="576" len="12"/>
          <note key="34" vol="134" pan="0" pos="576" len="12"/>
          <note key="24" vol="174" pan="0" pos="576" len="12"/>
          <note key="34" vol="134" pan="0" pos="600" len="12"/>
          <note key="43" vol="134" pan="0" pos="624" len="12"/>
          <note key="34" vol="134" pan="0" pos="624" len="12"/>
          <note key="28" vol="174" pan="0" pos="624" len="12"/>
          <note key="24" vol="174" pan="0" pos="624" len="12"/>
          <note key="34" vol="134" pan="0" pos="648" len="12"/>
          <note key="43" vol="134" pan="0" pos="672" len="12"/>
          <note key="34" vol="134" pan="0" pos="672" len="12"/>
          <note key="24" vol="174" pan="0" pos="672" len="12"/>
          <note key="34" vol="134" pan="0" pos="696" len="12"/>
          <note key="45" vol="182" pan="0" pos="720" len="36"/>
          <note key="34" vol="134" pan="0" pos="720" len="12"/>
          <note key="28" vol="174" pan="0" pos="720" len="6"/>
          <note key="24" vol="174" pan="0" pos="720" len="12"/>
          <note key="34" vol="134" pan="0" pos="744" len="12"/>
        </pattern>
        <pattern name="Drums" pos="8064" type="1" muted="0" steps="16">
          <note key="45" vol="180" pan="0" pos="0" len="48"/>
          <note key="43" vol="134" pan="0" pos="0" len="12"/>
          <note key="34" vol="134" pan="0" pos="0" len="12"/>
          <note key="24" vol="174" pan="0" pos="0" len="12"/>
          <note key="34" vol="134" pan="0" pos="24" len="12"/>
          <note key="43" vol="134" pan="0" pos="48" len="12"/>
          <note key="34" vol="134" pan="0" pos="48" len="12"/>
          <note key="28" vol="174" pan="0" pos="48" len="12"/>
          <note key="24" vol="174" pan="0" pos="48" len="12"/>
          <note key="34" vol="134" pan="0" pos="72" len="12"/>
          <note key="43" vol="134" pan="0" pos="96" len="12"/>
          <note key="34" vol="134" pan="0" pos="96" len="12"/>
          <note key="24" vol="174" pan="0" pos="96" len="12"/>
          <note key="34" vol="134" pan="0" pos="120" len="12"/>
          <note key="43" vol="134" pan="0" pos="144" len="12"/>
          <note key="34" vol="134" pan="0" pos="144" len="12"/>
          <note key="28" vol="174" pan="0" pos="144" len="12"/>
          <note key="24" vol="174" pan="0" pos="144" len="12"/>
          <note key="34" vol="134" pan="0" pos="168" len="12"/>
          <note key="43" vol="134" pan="0" pos="192" len="12"/>
          <note key="34" vol="134" pan="0" pos="192" len="12"/>
          <note key="24" vol="174" pan="0" pos="192" len="12"/>
          <note key="34" vol="134" pan="0" pos="216" len="12"/>
          <note key="43" vol="134" pan="0" pos="240" len="12"/>
          <note key="34" vol="134" pan="0" pos="240" len="12"/>
          <note key="28" vol="174" pan="0" pos="240" len="12"/>
          <note key="24" vol="174" pan="0" pos="240" len="12"/>
          <note key="34" vol="134" pan="0" pos="264" len="12"/>
          <note key="43" vol="134" pan="0" pos="288" len="12"/>
          <note key="34" vol="134" pan="0" pos="288" len="12"/>
          <note key="24" vol="174" pan="0" pos="288" len="12"/>
          <note key="34" vol="134" pan="0" pos="312" len="12"/>
          <note key="43" vol="134" pan="0" pos="336" len="12"/>
          <note key="34" vol="134" pan="0" pos="336" len="12"/>
          <note key="28" vol="174" pan="0" pos="336" len="12"/>
          <note key="24" vol="174" pan="0" pos="336" len="12"/>
          <note key="34" vol="134" pan="0" pos="360" len="12"/>
          <note key="43" vol="134" pan="0" pos="384" len="12"/>
          <note key="34" vol="134" pan="0" pos="384" len="12"/>
          <note key="24" vol="174" pan="0" pos="384" len="12"/>
          <note key="34" vol="134" pan="0" pos="408" len="12"/>
          <note key="43" vol="134" pan="0" pos="432" len="12"/>
          <note key="34" vol="134" pan="0" pos="432" len="12"/>
          <note key="28" vol="174" pan="0" pos="432" len="12"/>
          <note key="24" vol="174" pan="0" pos="432" len="12"/>
          <note key="34" vol="134" pan="0" pos="456" len="12"/>
          <note key="43" vol="134" pan="0" pos="480" len="12"/>
          <note key="34" vol="134" pan="0" pos="480" len="12"/>
          <note key="24" vol="174" pan="0" pos="480" len="12"/>
          <note key="34" vol="134" pan="0" pos="504" len="12"/>
          <note key="43" vol="134" pan="0" pos="528" len="12"/>
          <note key="34" vol="134" pan="0" pos="528" len="12"/>
          <note key="28" vol="174" pan="0" pos="528" len="12"/>
          <note key="24" vol="174" pan="0" pos="528" len="12"/>
          <note key="34" vol="134" pan="0" pos="552" len="12"/>
          <note key="43" vol="134" pan="0" pos="576" len="12"/>
          <note key="34" vol="134" pan="0" pos="576" len="12"/>
          <note key="24" vol="174" pan="0" pos="576" len="12"/>
          <note key="34" vol="134" pan="0" pos="600" len="12"/>
          <note key="43" vol="134" pan="0" pos="624" len="12"/>
          <note key="34" vol="134" pan="0" pos="624" len="12"/>
          <note key="28" vol="174" pan="0" pos="624" len="12"/>
          <note key="24" vol="174" pan="0" pos="624" len="12"/>
          <note key="34" vol="134" pan="0" pos="648" len="12"/>
          <note key="43" vol="134" pan="0" pos="672" len="12"/>
          <note key="34" vol="134" pan="0" pos="672" len="12"/>
          <note key="24" vol="174" pan="0" pos="672" len="12"/>
          <note key="34" vol="134" pan="0" pos="696" len="12"/>
          <note key="43" vol="134" pan="0" pos="720" len="12"/>
          <note key="34" vol="134" pan="0" pos="720" len="12"/>
          <note key="28" vol="174" pan="0" pos="720" len="6"/>
          <note key="24" vol="174" pan="0" pos="720" len="12"/>
          <note key="34" vol="134" pan="0" pos="744" len="12"/>
        </pattern>
        <pattern name="Drums" pos="8832" type="1" muted="0" steps="16">
          <note key="45" vol="180" pan="0" pos="0" len="48"/>
          <note key="43" vol="134" pan="0" pos="0" len="12"/>
          <note key="34" vol="134" pan="0" pos="0" len="12"/>
          <note key="24" vol="174" pan="0" pos="0" len="12"/>
        </pattern>
        <pattern name="Drums" pos="9600" type="1" muted="0" steps="16">
          <note key="43" vol="134" pan="0" pos="0" len="12"/>
          <note key="34" vol="134" pan="0" pos="0" len="12"/>
          <note key="24" vol="174" pan="0" pos="0" len="12"/>
          <note key="34" vol="134" pan="0" pos="24" len="12"/>
          <note key="43" vol="134" pan="0" pos="48" len="12"/>
          <note key="34" vol="134" pan="0" pos="48" len="12"/>
          <note key="28" vol="174" pan="0" pos="48" len="12"/>
          <note key="24" vol="174" pan="0" pos="48" len="12"/>
          <note key="34" vol="134" pan="0" pos="72" len="12"/>
          <note key="43" vol="134" pan="0" pos="96" len="12"/>
          <note key="34" vol="134" pan="0" pos="96" len="12"/>
          <note key="24" vol="174" pan="0" pos="96" len="12"/>
          <note key="34" vol="134" pan="0" pos="120" len="12"/>
          <note key="43" vol="134" pan="0" pos="144" len="12"/>
          <note key="34" vol="134" pan="0" pos="144" len="12"/>
          <note key="28" vol="174" pan="0" pos="144" len="12"/>
          <note key="24" vol="174" pan="0" pos="144" len="12"/>
          <note key="34" vol="134" pan="0" pos="168" len="12"/>
          <note key="43" vol="134" pan="0" pos="192" len="12"/>
          <note key="34" vol="134" pan="0" pos="192" len="12"/>
          <note key="24" vol="174" pan="0" pos="192" len="12"/>
          <note key="34" vol="134" pan="0" pos="216" len="12"/>
          <note key="43" vol="134" pan="0" pos="240" len="12"/>
          <note key="34" vol="134" pan="0" pos="240" len="12"/>
          <note key="28" vol="174" pan="0" pos="240" len="12"/>
          <note key="24" vol="174" pan="0" pos="240" len="12"/>
          <note key="34" vol="134" pan="0" pos="264" len="12"/>
          <note key="43" vol="134" pan="0" pos="288" len="12"/>
          <note key="34" vol="134" pan="0" pos="288" len="12"/>
          <note key="24" vol="174" pan="0" pos="288" len="12"/>
          <note key="34" vol="134" pan="0" pos="312" len="12"/>
          <note key="43" vol="134" pan="0" pos="336" len="12"/>
          <note key="34" vol="134" pan="0" pos="336" len="12"/>
          <note key="28" vol="174" pan="0" pos="336" len="6"/>
          <note key="24" vol="174" pan="0" pos="336" len="12"/>
          <note key="45" vol="134" pan="0" pos="360" len="12"/>
          <note key="34" vol="134" pan="0" pos="360" len="12"/>
          <note key="43" vol="134" pan="0" pos="384" len="12"/>
          <note key="34" vol="134" pan="0" pos="384" len="12"/>
          <note key="24" vol="174" pan="0" pos="384" len="12"/>
          <note key="34" vol="134" pan="0" pos="408" len="12"/>
          <note key="43" vol="134" pan="0" pos="432" len="12"/>
          <note key="34" vol="134" pan="0" pos="432" len="12"/>
          <note key="28" vol="174" pan="0" pos="432" len="12"/>
          <note key="24" vol="174" pan="0" pos="432" len="12"/>
          <note key="34" vol="134" pan="0" pos="456" len="12"/>
          <note key="43" vol="134" pan="0" pos="480" len="12"/>
          <note key="34" vol="134" pan="0" pos="480" len="12"/>
          <note key="24" vol="174" pan="0" pos="480" len="12"/>
          <note key="34" vol="134" pan="0" pos="504" len="12"/>
          <note key="43" vol="134" pan="0" pos="528" len="12"/>
          <note key="34" vol="134" pan="0" pos="528" len="12"/>
          <note key="28" vol="174" pan="0" pos="528" len="12"/>
          <note key="24" vol="174" pan="0" pos="528" len="12"/>
          <note key="34" vol="134" pan="0" pos="552" len="12"/>
          <note key="43" vol="134" pan="0" pos="576" len="12"/>
          <note key="34" vol="134" pan="0" pos="576" len="12"/>
          <note key="24" vol="174" pan="0" pos="576" len="12"/>
          <note key="34" vol="134" pan="0" pos="600" len="12"/>
          <note key="43" vol="134" pan="0" pos="624" len="12"/>
          <note key="34" vol="134" pan="0" pos="624" len="12"/>
          <note key="28" vol="174" pan="0" pos="624" len="12"/>
          <note key="24" vol="174" pan="0" pos="624" len="12"/>
          <note key="34" vol="134" pan="0" pos="648" len="12"/>
          <note key="43" vol="134" pan="0" pos="672" len="12"/>
          <note key="34" vol="134" pan="0" pos="672" len="12"/>
          <note key="24" vol="174" pan="0" pos="672" len="12"/>
          <note key="34" vol="134" pan="0" pos="696" len="12"/>
          <note key="43" vol="134" pan="0" pos="720" len="12"/>
          <note key="34" vol="134" pan="0" pos="720" len="12"/>
          <note key="28" vol="174" pan="0" pos="720" len="6"/>
          <note key="24" vol="174" pan="0" pos="720" len="12"/>
          <note key="34" vol="134" pan="0" pos="744" len="12"/>
        </pattern>
        <pattern name="Drums" pos="10368" type="1" muted="0" steps="16">
          <note key="45" vol="174" pan="0" pos="0" len="12"/>
          <note key="34" vol="134" pan="0" pos="0" len="12"/>
          <note key="24" vol="174" pan="0" pos="0" len="12"/>
          <note key="34" vol="134" pan="0" pos="24" len="12"/>
          <note key="43" vol="134" pan="0" pos="48" len="12"/>
          <note key="34" vol="134" pan="0" pos="48" len="12"/>
          <note key="28" vol="174" pan="0" pos="48" len="12"/>
          <note key="24" vol="174" pan="0" pos="48" len="12"/>
          <note key="34" vol="134" pan="0" pos="72" len="12"/>
          <note key="43" vol="134" pan="0" pos="96" len="12"/>
          <note key="34" vol="134" pan="0" pos="96" len="12"/>
          <note key="24" vol="174" pan="0" pos="96" len="12"/>
          <note key="34" vol="134" pan="0" pos="120" len="12"/>
          <note key="43" vol="134" pan="0" pos="144" len="12"/>
          <note key="34" vol="134" pan="0" pos="144" len="12"/>
          <note key="28" vol="174" pan="0" pos="144" len="12"/>
          <note key="24" vol="174" pan="0" pos="144" len="12"/>
          <note key="34" vol="134" pan="0" pos="168" len="12"/>
          <note key="43" vol="134" pan="0" pos="192" len="12"/>
          <note key="34" vol="134" pan="0" pos="192" len="12"/>
          <note key="24" vol="174" pan="0" pos="192" len="12"/>
          <note key="34" vol="134" pan="0" pos="216" len="12"/>
          <note key="43" vol="134" pan="0" pos="240" len="12"/>
          <note key="34" vol="134" pan="0" pos="240" len="12"/>
          <note key="28" vol="174" pan="0" pos="240" len="12"/>
          <note key="24" vol="174" pan="0" pos="240" len="12"/>
          <note key="34" vol="134" pan="0" pos="264" len="12"/>
          <note key="43" vol="134" pan="0" pos="288" len="12"/>
          <note key="34" vol="134" pan="0" pos="288" len="12"/>
          <note key="24" vol="174" pan="0" pos="288" len="12"/>
          <note key="34" vol="134" pan="0" pos="312" len="12"/>
          <note key="43" vol="134" pan="0" pos="336" len="12"/>
          <note key="34" vol="134" pan="0" pos="336" len="12"/>
          <note key="28" vol="174" pan="0" pos="336" len="6"/>
          <note key="24" vol="174" pan="0" pos="336" len="12"/>
          <note key="45" vol="134" pan="0" pos="360" len="12"/>
          <note key="34" vol="134" pan="0" pos="360" len="12"/>
          <note key="43" vol="134" pan="0" pos="384" len="12"/>
          <note key="34" vol="134" pan="0" pos="384" len="12"/>
          <note key="24" vol="174" pan="0" pos="384" len="12"/>
          <note key="34" vol="134" pan="0" pos="408" len="12"/>
          <note key="43" vol="134" pan="0" pos="432" len="12"/>
          <note key="34" vol="134" pan="0" pos="432" len="12"/>
          <note key="28" vol="174" pan="0" pos="432" len="12"/>
          <note key="24" vol="174" pan="0" pos="432" len="12"/>
          <note key="34" vol="134" pan="0" pos="456" len="12"/>
          <note key="43" vol="134" pan="0" pos="480" len="12"/>
          <note key="34" vol="134" pan="0" pos="480" len="12"/>
          <note key="24" vol="174" pan="0" pos="480" len="12"/>
          <note key="34" vol="134" pan="0" pos="504" len="12"/>
          <note key="43" vol="134" pan="0" pos="528" len="12"/>
          <note key="34" vol="134" pan="0" pos="528" len="12"/>
          <note key="28" vol="174" pan="0" pos="528" len="12"/>
          <note key="24" vol="174" pan="0" pos="528" len="12"/>
          <note key="34" vol="134" pan="0" pos="552" len="12"/>
          <note key="43" vol="134" pan="0" pos="576" len="12"/>
          <note key="34" vol="134" pan="0" pos="576" len="12"/>
          <note key="24" vol="174" pan="0" pos="576" len="12"/>
          <note key="34" vol="134" pan="0" pos="600" len="12"/>
          <note key="43" vol="134" pan="0" pos="624" len="12"/>
          <note key="34" vol="134" pan="0" pos="624" len="12"/>
          <note key="28" vol="174" pan="0" pos="624" len="12"/>
          <note key="24" vol="174" pan="0" pos="624" len="12"/>
          <note key="34" vol="134" pan="0" pos="648" len="12"/>
          <note key="43" vol="134" pan="0" pos="672" len="12"/>
          <note key="34" vol="134" pan="0" pos="672" len="12"/>
          <note key="24" vol="174" pan="0" pos="672" len="12"/>
          <note key="34" vol="134" pan="0" pos="696" len="12"/>
          <note key="43" vol="134" pan="0" pos="720" len="12"/>
          <note key="34" vol="134" pan="0" pos="720" len="12"/>
          <note key="28" vol="174" pan="0" pos="720" len="6"/>
          <note key="24" vol="174" pan="0" pos="720" len="12"/>
          <note key="34" vol="134" pan="0" pos="744" len="12"/>
        </pattern>
        <pattern name="Drums" pos="11136" type="1" muted="0" steps="16">
          <note key="43" vol="134" pan="0" pos="0" len="12"/>
          <note key="34" vol="134" pan="0" pos="0" len="12"/>
          <note key="24" vol="174" pan="0" pos="0" len="12"/>
          <note key="34" vol="134" pan="0" pos="24" len="12"/>
          <note key="43" vol="134" pan="0" pos="48" len="12"/>
          <note key="34" vol="134" pan="0" pos="48" len="12"/>
          <note key="28" vol="174" pan="0" pos="48" len="12"/>
          <note key="24" vol="174" pan="0" pos="48" len="12"/>
          <note key="34" vol="134" pan="0" pos="72" len="12"/>
          <note key="43" vol="134" pan="0" pos="96" len="12"/>
          <note key="34" vol="134" pan="0" pos="96" len="12"/>
          <note key="24" vol="174" pan="0" pos="96" len="12"/>
          <note key="34" vol="134" pan="0" pos="120" len="12"/>
          <note key="43" vol="134" pan="0" pos="144" len="12"/>
          <note key="34" vol="134" pan="0" pos="144" len="12"/>
          <note key="28" vol="174" pan="0" pos="144" len="12"/>
          <note key="24" vol="174" pan="0" pos="144" len="12"/>
          <note key="34" vol="134" pan="0" pos="168" len="12"/>
          <note key="43" vol="134" pan="0" pos="192" len="12"/>
          <note key="34" vol="134" pan="0" pos="192" len="12"/>
          <note key="24" vol="174" pan="0" pos="192" len="12"/>
          <note key="34" vol="134" pan="0" pos="216" len="12"/>
          <note key="43" vol="134" pan="0" pos="240" len="12"/>
          <note key="34" vol="134" pan="0" pos="240" len="12"/>
          <note key="28" vol="174" pan="0" pos="240" len="12"/>
          <note key="24" vol="174" pan="0" pos="240" len="12"/>
          <note key="34" vol="134" pan="0" pos="264" len="12"/>
          <note key="43" vol="134" pan="0" pos="288" len="12"/>
          <note key="34" vol="134" pan="0" pos="288" len="12"/>
          <note key="24" vol="174" pan="0" pos="288" len="12"/>
          <note key="34" vol="134" pan="0" pos="312" len="12"/>
          <note key="43" vol="134" pan="0" pos="336" len="12"/>
          <note key="34" vol="134" pan="0" pos="336" len="12"/>
          <note key="28" vol="174" pan="0" pos="336" len="6"/>
          <note key="24" vol="174" pan="0" pos="336" len="12"/>
          <note key="45" vol="134" pan="0" pos="360" len="12"/>
          <note key="34" vol="134" pan="0" pos="360" len="12"/>
          <note key="43" vol="134" pan="0" pos="384" len="12"/>
          <note key="34" vol="134" pan="0" pos="384" len="12"/>
          <note key="24" vol="174" pan="0" pos="384" len="12"/>
          <note key="34" vol="134" pan="0" pos="408" len="12"/>
          <note key="43" vol="134" pan="0" pos="432" len="12"/>
          <note key="34" vol="134" pan="0" pos="432" len="12"/>
          <note key="28" vol="174" pan="0" pos="432" len="12"/>
          <note key="24" vol="174" pan="0" pos="432" len="12"/>
          <note key="34" vol="134" pan="0" pos="456" len="12"/>
          <note key="43" vol="134" pan="0" pos="480" len="12"/>
          <note key="34" vol="134" pan="0" pos="480" len="12"/>
          <note key="24" vol="174" pan="0" pos="480" len="12"/>
          <note key="34" vol="134" pan="0" pos="504" len="12"/>
          <note key="43" vol="134" pan="0" pos="528" len="12"/>
          <note key="34" vol="134" pan="0" pos="528" len="12"/>
          <note key="28" vol="174" pan="0" pos="528" len="12"/>
          <note key="24" vol="174" pan="0" pos="528" len="12"/>
          <note key="34" vol="134" pan="0" pos="552" len="12"/>
          <note key="43" vol="134" pan="0" pos="576" len="12"/>
          <note key="34" vol="134" pan="0" pos="576" len="12"/>
          <note key="24" vol="174" pan="0" pos="576" len="12"/>
          <note key="34" vol="134" pan="0" pos="600" len="12"/>
          <note key="43" vol="134" pan="0" pos="624" len="12"/>
          <note key="34" vol="134" pan="0" pos="624" len="12"/>
          <note key="28" vol="174" pan="0" pos="624" len="12"/>
          <note key="24" vol="174" pan="0" pos="624" len="12"/>
          <note key="34" vol="134" pan="0" pos="648" len="12"/>
          <note key="43" vol="134" pan="0" pos="672" len="12"/>
          <note key="34" vol="134" pan="0" pos="672" len="12"/>
          <note key="24" vol="174" pan="0" pos="672" len="12"/>
          <note key="34" vol="134" pan="0" pos="696" len="12"/>
          <note key="43" vol="134" pan="0" pos="720" len="12"/>
          <note key="34" vol="134" pan="0" pos="720" len="12"/>
          <note key="28" vol="174" pan="0" pos="720" len="6"/>
          <note key="24" vol="174" pan="0" pos="720" len="12"/>
          <note key="34" vol="134" pan="0" pos="744" len="12"/>
        </pattern>
        <pattern name="Drums" pos="11904" type="1" muted="0" steps="16">
          <note key="43" vol="134" pan="0" pos="0" len="12"/>
          <note key="34" vol="134" pan="0" pos="0" len="12"/>
          <note key="24" vol="174" pan="0" pos="0" len="12"/>
          <note key="34" vol="134" pan="0" pos="24" len="12"/>
          <note key="43" vol="134" pan="0" pos="48" len="12"/>
          <note key="34" vol="134" pan="0" pos="48" len="12"/>
          <note key="28" vol="174" pan="0" pos="48" len="12"/>
          <note key="24" vol="174" pan="0" pos="48" len="12"/>
          <note key="34" vol="134" pan="0" pos="72" len="12"/>
          <note key="43" vol="134" pan="0" pos="96" len="12"/>
          <note key="34" vol="134" pan="0" pos="96" len="12"/>
          <note key="24" vol="174" pan="0" pos="96" len="12"/>
          <note key="34" vol="134" pan="0" pos="120" len="12"/>
          <note key="43" vol="134" pan="0" pos="144" len="12"/>
          <note key="34" vol="134" pan="0" pos="144" len="12"/>
          <note key="28" vol="174" pan="0" pos="144" len="12"/>
          <note key="24" vol="174" pan="0" pos="144" len="12"/>
          <note key="34" vol="134" pan="0" pos="168" len="12"/>
          <note key="43" vol="134" pan="0" pos="192" len="12"/>
          <note key="34" vol="134" pan="0" pos="192" len="12"/>
          <note key="24" vol="174" pan="0" pos="192" len="12"/>
          <note key="34" vol="134" pan="0" pos="216" len="12"/>
          <note key="43" vol="134" pan="0" pos="240" len="12"/>
          <note key="34" vol="134" pan="0" pos="240" len="12"/>
          <note key="28" vol="174" pan="0" pos="240" len="12"/>
          <note key="24" vol="174" pan="0" pos="240" len="12"/>
          <note key="34" vol="134" pan="0" pos="264" len="12"/>
          <note key="43" vol="134" pan="0" pos="288" len="12"/>
          <note key="34" vol="134" pan="0" pos="288" len="12"/>
          <note key="24" vol="174" pan="0" pos="288" len="12"/>
          <note key="34" vol="134" pan="0" pos="312" len="12"/>
          <note key="43" vol="134" pan="0" pos="336" len="12"/>
          <note key="34" vol="134" pan="0" pos="336" len="12"/>
          <note key="28" vol="174" pan="0" pos="336" len="6"/>
          <note key="24" vol="174" pan="0" pos="336" len="12"/>
          <note key="45" vol="134" pan="0" pos="360" len="12"/>
          <note key="34" vol="134" pan="0" pos="360" len="12"/>
          <note key="43" vol="134" pan="0" pos="384" len="12"/>
          <note key="34" vol="134" pan="0" pos="384" len="12"/>
          <note key="24" vol="174" pan="0" pos="384" len="12"/>
          <note key="34" vol="134" pan="0" pos="408" len="12"/>
          <note key="43" vol="134" pan="0" pos="432" len="12"/>
          <note key="34" vol="134" pan="0" pos="432" len="12"/>
          <note key="28" vol="174" pan="0" pos="432" len="12"/>
          <note key="24" vol="174" pan="0" pos="432" len="12"/>
          <note key="34" vol="134" pan="0" pos="456" len="12"/>
          <note key="43" vol="134" pan="0" pos="480" len="12"/>
          <note key="34" vol="134" pan="0" pos="480" len="12"/>
          <note key="24" vol="174" pan="0" pos="480" len="12"/>
          <note key="34" vol="134" pan="0" pos="504" len="12"/>
          <note key="43" vol="134" pan="0" pos="528" len="12"/>
          <note key="34" vol="134" pan="0" pos="528" len="12"/>
          <note key="28" vol="174" pan="0" pos="528" len="12"/>
          <note key="24" vol="174" pan="0" pos="528" len="12"/>
          <note key="34" vol="134" pan="0" pos="552" len="12"/>
          <note key="43" vol="134" pan="0" pos="576" len="12"/>
          <note key="34" vol="134" pan="0" pos="576" len="12"/>
          <note key="24" vol="174" pan="0" pos="576" len="12"/>
          <note key="34" vol="134" pan="0" pos="600" len="12"/>
          <note key="43" vol="134" pan="0" pos="624" len="12"/>
          <note key="34" vol="134" pan="0" pos="624" len="12"/>
          <note key="28" vol="174" pan="0" pos="624" len="12"/>
          <note key="24" vol="174" pan="0" pos="624" len="12"/>
          <note key="34" vol="134" pan="0" pos="648" len="12"/>
          <note key="43" vol="134" pan="0" pos="672" len="12"/>
          <note key="34" vol="134" pan="0" pos="672" len="12"/>
          <note key="24" vol="174" pan="0" pos="672" len="12"/>
          <note key="34" vol="134" pan="0" pos="696" len="12"/>
          <note key="43" vol="134" pan="0" pos="720" len="12"/>
          <note key="34" vol="134" pan="0" pos="720" len="12"/>
          <note key="28" vol="174" pan="0" pos="720" len="6"/>
          <note key="24" vol="174" pan="0" pos="720" len="12"/>
          <note key="34" vol="134" pan="0" pos="744" len="12"/>
        </pattern>
        <pattern name="Drums" pos="12672" type="1" muted="0" steps="16">
          <note key="45" vol="180" pan="0" pos="0" len="48"/>
          <note key="43" vol="134" pan="0" pos="0" len="12"/>
          <note key="34" vol="134" pan="0" pos="0" len="12"/>
          <note key="24" vol="174" pan="0" pos="0" len="12"/>
          <note key="34" vol="134" pan="0" pos="24" len="12"/>
          <note key="43" vol="134" pan="0" pos="48" len="12"/>
          <note key="34" vol="134" pan="0" pos="48" len="12"/>
          <note key="28" vol="174" pan="0" pos="48" len="12"/>
          <note key="24" vol="174" pan="0" pos="48" len="12"/>
          <note key="34" vol="134" pan="0" pos="72" len="12"/>
          <note key="43" vol="134" pan="0" pos="96" len="12"/>
          <note key="34" vol="134" pan="0" pos="96" len="12"/>
          <note key="24" vol="174" pan="0" pos="96" len="12"/>
          <note key="34" vol="134" pan="0" pos="120" len="12"/>
          <note key="43" vol="134" pan="0" pos="144" len="12"/>
          <note key="34" vol="134" pan="0" pos="144" len="12"/>
          <note key="28" vol="174" pan="0" pos="144" len="12"/>
          <note key="24" vol="174" pan="0" pos="144" len="12"/>
          <note key="34" vol="134" pan="0" pos="168" len="12"/>
          <note key="43" vol="134" pan="0" pos="192" len="12"/>
          <note key="34" vol="134" pan="0" pos="192" len="12"/>
          <note key="24" vol="174" pan="0" pos="192" len="12"/>
          <note key="34" vol="134" pan="0" pos="216" len="12"/>
          <note key="43" vol="134" pan="0" pos="240" len="12"/>
          <note key="34" vol="134" pan="0" pos="240" len="12"/>
          <note key="28" vol="174" pan="0" pos="240" len="12"/>
          <note key="24" vol="174" pan="0" pos="240" len="12"/>
          <note key="34" vol="134" pan="0" pos="264" len="12"/>
          <note key="43" vol="134" pan="0" pos="288" len="12"/>
          <note key="34" vol="134" pan="0" pos="288" len="12"/>
          <note key="24" vol="174" pan="0" pos="288" len="12"/>
          <note key="34" vol="134" pan="0" pos="312" len="12"/>
          <note key="43" vol="134" pan="0" pos="336" len="12"/>
          <note key="34" vol="134" pan="0" pos="336" len="12"/>
          <note key="28" vol="174" pan="0" pos="336" len="12"/>
          <note key="24" vol="174" pan="0" pos="336" len="12"/>
          <note key="34" vol="134" pan="0" pos="360" len="12"/>
          <note key="43" vol="134" pan="0" pos="384" len="12"/>
          <note key="34" vol="134" pan="0" pos="384" len="12"/>
          <note key="24" vol="174" pan="0" pos="384" len="12"/>
          <note key="34" vol="134" pan="0" pos="408" len="12"/>
          <note key="43" vol="134" pan="0" pos="432" len="12"/>
          <note key="34" vol="134" pan="0" pos="432" len="12"/>
          <note key="28" vol="174" pan="0" pos="432" len="12"/>
          <note key="24" vol="174" pan="0" pos="432" len="12"/>
          <note key="34" vol="134" pan="0" pos="456" len="12"/>
          <note key="43" vol="134" pan="0" pos="480" len="12"/>
          <note key="35" vol="108" pan="0" pos="480" len="6"/>
          <note key="34" vol="134" pan="0" pos="480" len="12"/>
          <note key="28" vol="170" pan="0" pos="480" len="12"/>
          <note key="24" vol="174" pan="0" pos="480" len="12"/>
          <note key="35" vol="108" pan="0" pos="486" len="6"/>
          <note key="35" vol="108" pan="0" pos="492" len="6"/>
          <note key="35" vol="108" pan="0" pos="498" len="6"/>
          <note key="34" vol="134" pan="0" pos="504" len="12"/>
          <note key="31" vol="108" pan="0" pos="504" len="12"/>
          <note key="43" vol="134" pan="0" pos="528" len="12"/>
          <note key="35" vol="108" pan="0" pos="528" len="6"/>
          <note key="34" vol="134" pan="0" pos="528" len="12"/>
          <note key="28" vol="174" pan="0" pos="528" len="12"/>
          <note key="24" vol="174" pan="0" pos="528" len="12"/>
          <note key="35" vol="108" pan="0" pos="534" len="6"/>
          <note key="35" vol="108" pan="0" pos="540" len="6"/>
          <note key="35" vol="108" pan="0" pos="546" len="6"/>
          <note key="34" vol="134" pan="0" pos="552" len="12"/>
          <note key="31" vol="108" pan="0" pos="552" len="12"/>
          <note key="43" vol="134" pan="0" pos="576" len="12"/>
          <note key="34" vol="134" pan="0" pos="576" len="12"/>
          <note key="24" vol="174" pan="0" pos="576" len="12"/>
          <note key="34" vol="134" pan="0" pos="600" len="12"/>
          <note key="43" vol="134" pan="0" pos="624" len="12"/>
          <note key="34" vol="134" pan="0" pos="624" len="12"/>
          <note key="28" vol="174" pan="0" pos="624" len="12"/>
          <note key="24" vol="174" pan="0" pos="624" len="12"/>
          <note key="34" vol="134" pan="0" pos="648" len="12"/>
          <note key="43" vol="134" pan="0" pos="672" len="12"/>
          <note key="34" vol="134" pan="0" pos="672" len="12"/>
          <note key="24" vol="174" pan="0" pos="672" len="12"/>
          <note key="34" vol="134" pan="0" pos="696" len="12"/>
          <note key="43" vol="134" pan="0" pos="720" len="12"/>
          <note key="34" vol="134" pan="0" pos="720" len="12"/>
          <note key="28" vol="174" pan="0" pos="720" len="6"/>
          <note key="24" vol="174" pan="0" pos="720" len="12"/>
          <note key="34" vol="134" pan="0" pos="744" len="12"/>
        </pattern>
        <pattern name="Drums" pos="13440" type="1" muted="0" steps="16">
          <note key="45" vol="180" pan="0" pos="0" len="48"/>
          <note key="43" vol="134" pan="0" pos="0" len="12"/>
          <note key="34" vol="134" pan="0" pos="0" len="12"/>
          <note key="24" vol="174" pan="0" pos="0" len="12"/>
          <note key="34" vol="134" pan="0" pos="24" len="12"/>
          <note key="43" vol="134" pan="0" pos="48" len="12"/>
          <note key="34" vol="134" pan="0" pos="48" len="12"/>
          <note key="28" vol="174" pan="0" pos="48" len="12"/>
          <note key="24" vol="174" pan="0" pos="48" len="12"/>
          <note key="34" vol="134" pan="0" pos="72" len="12"/>
          <note key="43" vol="134" pan="0" pos="96" len="12"/>
          <note key="34" vol="134" pan="0" pos="96" len="12"/>
          <note key="24" vol="174" pan="0" pos="96" len="12"/>
          <note key="34" vol="134" pan="0" pos="120" len="12"/>
          <note key="43" vol="134" pan="0" pos="144" len="12"/>
          <note key="34" vol="134" pan="0" pos="144" len="12"/>
          <note key="28" vol="174" pan="0" pos="144" len="12"/>
          <note key="24" vol="174" pan="0" pos="144" len="12"/>
          <note key="34" vol="134" pan="0" pos="168" len="12"/>
          <note key="43" vol="134" pan="0" pos="192" len="12"/>
          <note key="34" vol="134" pan="0" pos="192" len="12"/>
          <note key="24" vol="174" pan="0" pos="192" len="12"/>
          <note key="34" vol="134" pan="0" pos="216" len="12"/>
          <note key="43" vol="134" pan="0" pos="240" len="12"/>
          <note key="34" vol="134" pan="0" pos="240" len="12"/>
          <note key="28" vol="174" pan="0" pos="240" len="12"/>
          <note key="24" vol="174" pan="0" pos="240" len="12"/>
          <note key="34" vol="134" pan="0" pos="264" len="12"/>
          <note key="43" vol="134" pan="0" pos="288" len="12"/>
          <note key="34" vol="134" pan="0" pos="288" len="12"/>
          <note key="24" vol="174" pan="0" pos="288" len="12"/>
          <note key="34" vol="134" pan="0" pos="312" len="12"/>
          <note key="43" vol="134" pan="0" pos="336" len="12"/>
          <note key="34" vol="134" pan="0" pos="336" len="12"/>
          <note key="28" vol="174" pan="0" pos="336" len="12"/>
          <note key="24" vol="174" pan="0" pos="336" len="12"/>
          <note key="34" vol="134" pan="0" pos="360" len="12"/>
          <note key="43" vol="134" pan="0" pos="384" len="12"/>
          <note key="34" vol="134" pan="0" pos="384" len="12"/>
          <note key="24" vol="174" pan="0" pos="384" len="12"/>
          <note key="34" vol="134" pan="0" pos="408" len="12"/>
          <note key="43" vol="134" pan="0" pos="432" len="12"/>
          <note key="34" vol="134" pan="0" pos="432" len="12"/>
          <note key="28" vol="174" pan="0" pos="432" len="12"/>
          <note key="24" vol="174" pan="0" pos="432" len="12"/>
          <note key="34" vol="134" pan="0" pos="456" len="12"/>
          <note key="43" vol="134" pan="0" pos="480" len="12"/>
          <note key="34" vol="134" pan="0" pos="480" len="12"/>
          <note key="24" vol="174" pan="0" pos="480" len="12"/>
          <note key="34" vol="134" pan="0" pos="504" len="12"/>
          <note key="43" vol="134" pan="0" pos="528" len="12"/>
          <note key="34" vol="134" pan="0" pos="528" len="12"/>
          <note key="28" vol="174" pan="0" pos="528" len="12"/>
          <note key="24" vol="174" pan="0" pos="528" len="12"/>
          <note key="34" vol="134" pan="0" pos="552" len="12"/>
          <note key="43" vol="134" pan="0" pos="576" len="12"/>
          <note key="34" vol="134" pan="0" pos="576" len="12"/>
          <note key="24" vol="174" pan="0" pos="576" len="12"/>
          <note key="34" vol="134" pan="0" pos="600" len="12"/>
          <note key="43" vol="134" pan="0" pos="624" len="12"/>
          <note key="34" vol="134" pan="0" pos="624" len="12"/>
          <note key="28" vol="174" pan="0" pos="624" len="12"/>
          <note key="24" vol="174" pan="0" pos="624" len="12"/>
          <note key="34" vol="134" pan="0" pos="648" len="12"/>
          <note key="43" vol="134" pan="0" pos="672" len="12"/>
          <note key="34" vol="134" pan="0" pos="672" len="12"/>
          <note key="24" vol="174" pan="0" pos="672" len="12"/>
          <note key="34" vol="134" pan="0" pos="696" len="12"/>
          <note key="45" vol="182" pan="0" pos="720" len="36"/>
          <note key="34" vol="134" pan="0" pos="720" len="12"/>
          <note key="28" vol="174" pan="0" pos="720" len="6"/>
          <note key="24" vol="174" pan="0" pos="720" len="12"/>
          <note key="34" vol="134" pan="0" pos="744" len="12"/>
        </pattern>
        <pattern name="Drums" pos="14208" type="1" muted="0" steps="16">
          <note key="45" vol="180" pan="0" pos="0" len="48"/>
          <note key="43" vol="134" pan="0" pos="0" len="12"/>
          <note key="34" vol="134" pan="0" pos="0" len="12"/>
          <note key="24" vol="174" pan="0" pos="0" len="12"/>
          <note key="34" vol="134" pan="0" pos="24" len="12"/>
          <note key="43" vol="134" pan="0" pos="48" len="12"/>
          <note key="34" vol="134" pan="0" pos="48" len="12"/>
          <note key="28" vol="174" pan="0" pos="48" len="12"/>
          <note key="24" vol="174" pan="0" pos="48" len="12"/>
          <note key="34" vol="134" pan="0" pos="72" len="12"/>
          <note key="43" vol="134" pan="0" pos="96" len="12"/>
          <note key="34" vol="134" pan="0" pos="96" len="12"/>
          <note key="24" vol="174" pan="0" pos="96" len="12"/>
          <note key="34" vol="134" pan="0" pos="120" len="12"/>
          <note key="43" vol="134" pan="0" pos="144" len="12"/>
          <note key="34" vol="134" pan="0" pos="144" len="12"/>
          <note key="28" vol="174" pan="0" pos="144" len="12"/>
          <note key="24" vol="174" pan="0" pos="144" len="12"/>
          <note key="34" vol="134" pan="0" pos="168" len="12"/>
          <note key="43" vol="134" pan="0" pos="192" len="12"/>
          <note key="34" vol="134" pan="0" pos="192" len="12"/>
          <note key="24" vol="174" pan="0" pos="192" len="12"/>
          <note key="34" vol="134" pan="0" pos="216" len="12"/>
          <note key="43" vol="134" pan="0" pos="240" len="12"/>
          <note key="34" vol="134" pan="0" pos="240" len="12"/>
          <note key="28" vol="174" pan="0" pos="240" len="12"/>
          <note key="24" vol="174" pan="0" pos="240" len="12"/>
          <note key="34" vol="134" pan="0" pos="264" len="12"/>
          <note key="43" vol="134" pan="0" pos="288" len="12"/>
          <note key="34" vol="134" pan="0" pos="288" len="12"/>
          <note key="24" vol="174" pan="0" pos="288" len="12"/>
          <note key="34" vol="134" pan="0" pos="312" len="12"/>
          <note key="43" vol="134" pan="0" pos="336" len="12"/>
          <note key="34" vol="134" pan="0" pos="336" len="12"/>
          <note key="28" vol="174" pan="0" pos="336" len="12"/>
          <note key="24" vol="174" pan="0" pos="336" len="12"/>
          <note key="34" vol="134" pan="0" pos="360" len="12"/>
          <note key="43" vol="134" pan="0" pos="384" len="12"/>
          <note key="34" vol="134" pan="0" pos="384" len="12"/>
          <note key="24" vol="174" pan="0" pos="384" len="12"/>
          <note key="34" vol="134" pan="0" pos="408" len="12"/>
          <note key="43" vol="134" pan="0" pos="432" len="12"/>
          <note key="34" vol="134" pan="0" pos="432" len="12"/>
          <note key="28" vol="174" pan="0" pos="432" len="12"/>
          <note key="24" vol="174" pan="0" pos="432" len="12"/>
          <note key="34" vol="134" pan="0" pos="456" len="12"/>
          <note key="43" vol="134" pan="0" pos="480" len="12"/>
          <note key="34" vol="134" pan="0" pos="480" len="12"/>
          <note key="24" vol="174" pan="0" pos="480" len="12"/>
          <note key="34" vol="134" pan="0" pos="504" len="12"/>
          <note key="43" vol="134" pan="0" pos="528" len="12"/>
          <note key="34" vol="134" pan="0" pos="528" len="12"/>
          <note key="28" vol="174" pan="0" pos="528" len="12"/>
          <note key="24" vol="174" pan="0" pos="528" len="12"/>
          <note key="34" vol="134" pan="0" pos="552" len="12"/>
          <note key="43" vol="134" pan="0" pos="576" len="12"/>
          <note key="34" vol="134" pan="0" pos="576" len="12"/>
          <note key="24" vol="174" pan="0" pos="576" len="12"/>
          <note key="34" vol="134" pan="0" pos="600" len="12"/>
          <note key="43" vol="134" pan="0" pos="624" len="12"/>
          <note key="34" vol="134" pan="0" pos="624" len="12"/>
          <note key="28" vol="174" pan="0" pos="624" len="12"/>
          <note key="24" vol="174" pan="0" pos="624" len="12"/>
          <note key="34" vol="134" pan="0" pos="648" len="12"/>
          <note key="43" vol="134" pan="0" pos="672" len="12"/>
          <note key="34" vol="134" pan="0" pos="672" len="12"/>
          <note key="24" vol="174" pan="0" pos="672" len="12"/>
          <note key="34" vol="134" pan="0" pos="696" len="12"/>
          <note key="43" vol="134" pan="0" pos="720" len="12"/>
          <note key="34" vol="134" pan="0" pos="720" len="12"/>
          <note key="28" vol="174" pan="0" pos="720" len="6"/>
          <note key="24" vol="174" pan="0" pos="720" len="12"/>
          <note key="34" vol="134" pan="0" pos="744" len="12"/>
        </pattern>
        <pattern name="Drums" pos="14976" type="1" muted="0" steps="16">
          <note key="45" vol="180" pan="0" pos="0" len="48"/>
          <note key="43" vol="134" pan="0" pos="0" len="12"/>
          <note key="34" vol="134" pan="0" pos="0" len="12"/>
          <note key="24" vol="174" pan="0" pos="0" len="12"/>
          <note key="34" vol="134" pan="0" pos="24" len="12"/>
          <note key="43" vol="134" pan="0" pos="48" len="12"/>
          <note key="34" vol="134" pan="0" pos="48" len="12"/>
          <note key="28" vol="174" pan="0" pos="48" len="12"/>
          <note key="24" vol="174" pan="0" pos="48" len="12"/>
          <note key="34" vol="134" pan="0" pos="72" len="12"/>
          <note key="43" vol="134" pan="0" pos="96" len="12"/>
          <note key="34" vol="134" pan="0" pos="96" len="12"/>
          <note key="24" vol="174" pan="0" pos="96" len="12"/>
          <note key="34" vol="134" pan="0" pos="120" len="12"/>
          <note key="43" vol="134" pan="0" pos="144" len="12"/>
          <note key="34" vol="134" pan="0" pos="144" len="12"/>
          <note key="28" vol="174" pan="0" pos="144" len="12"/>
          <note key="24" vol="174" pan="0" pos="144" len="12"/>
          <note key="34" vol="134" pan="0" pos="168" len="12"/>
          <note key="43" vol="134" pan="0" pos="192" len="12"/>
          <note key="34" vol="134" pan="0" pos="192" len="12"/>
          <note key="24" vol="174" pan="0" pos="192" len="12"/>
          <note key="34" vol="134" pan="0" pos="216" len="12"/>
          <note key="43" vol="134" pan="0" pos="240" len="12"/>
          <note key="34" vol="134" pan="0" pos="240" len="12"/>
          <note key="28" vol="174" pan="0" pos="240" len="12"/>
          <note key="24" vol="174" pan="0" pos="240" len="12"/>
          <note key="34" vol="134" pan="0" pos="264" len="12"/>
          <note key="43" vol="134" pan="0" pos="288" len="12"/>
          <note key="34" vol="134" pan="0" pos="288" len="12"/>
          <note key="24" vol="174" pan="0" pos="288" len="12"/>
          <note key="34" vol="134" pan="0" pos="312" len="12"/>
          <note key="43" vol="134" pan="0" pos="336" len="12"/>
          <note key="34" vol="134" pan="0" pos="336" len="12"/>
          <note key="28" vol="174" pan="0" pos="336" len="12"/>
          <note key="24" vol="174" pan="0" pos="336" len="12"/>
          <note key="34" vol="134" pan="0" pos="360" len="12"/>
          <note key="43" vol="134" pan="0" pos="384" len="12"/>
          <note key="34" vol="134" pan="0" pos="384" len="12"/>
          <note key="24" vol="174" pan="0" pos="384" len="12"/>
          <note key="34" vol="134" pan="0" pos="408" len="12"/>
          <note key="43" vol="134" pan="0" pos="432" len="12"/>
          <note key="34" vol="134" pan="0" pos="432" len="12"/>
          <note key="28" vol="174" pan="0" pos="432" len="12"/>
          <note key="24" vol="174" pan="0" pos="432" len="12"/>
          <note key="34" vol="134" pan="0" pos="456" len="12"/>
          <note key="28" vol="100" pan="0" pos="456" len="12"/>
          <note key="37" vol="134" pan="0" pos="480" len="12"/>
          <note key="34" vol="134" pan="0" pos="480" len="12"/>
          <note key="28" vol="100" pan="0" pos="480" len="12"/>
          <note key="24" vol="174" pan="0" pos="480" len="12"/>
          <note key="45" vol="182" pan="0" pos="528" len="36"/>
          <note key="34" vol="134" pan="0" pos="528" len="12"/>
          <note key="28" vol="174" pan="0" pos="528" len="6"/>
          <note key="24" vol="174" pan="0" pos="528" len="12"/>
        </pattern>
      </track>
      <track name="HugeGrittyBass" type="0" muted="1" solo="0">
        <instrumenttrack vol="128.8" pan="-80" pitch="0" usemasterpitch="1" fxch="0" basenote="69" pitchrange="1">
          <instrument name="tripleoscillator">
            <tripleoscillator wavetype0="3" coarse1="-12" userwavefile2="" finer1="-4" stphdetun0="0" vol0="44" stphdetun1="0" finer2="0" pan2="0" modalgo2="2" coarse2="-23" finel2="0" phoffset1="0" userwavefile0="" vol2="33" finel1="4" pan1="0" coarse0="0" phoffset0="0" wavetype1="4" phoffset2="0" wavetype2="2" vol1="11" finer0="8" stphdetun2="0" pan0="0" modalgo1="2" modalgo3="2" userwavefile1="" finel0="-8"/>
          </instrument>
          <eldata ftype="4" fres="0.5" fwet="1" fcut="561">
            <elvol lamt="0.079999998" sustain="0.34800002" pdel="0" latt="0.028000001" dec="0.21600001" lspd_numerator="4" amt="1" userwavefile="" rel="0.21600001" lspd_denominator="4" lpdel="0" lspd="0.02" lshp="0" hold="0" att="0" ctlenvamt="0" lspd_syncmode="0" x100="1"/>
            <elcut lamt="0.59499997" sustain="1" pdel="0" latt="0" dec="0" lspd_numerator="4" amt="0" userwavefile="" rel="0" lspd_denominator="4" lpdel="0" lspd="0.1" lshp="0" hold="0.5" att="0" ctlenvamt="0" lspd_syncmode="0" x100="0"/>
            <elres lamt="0" sustain="0.5" pdel="0" latt="0" dec="0.5" lspd_numerator="4" amt="0" userwavefile="" rel="0.1" lspd_denominator="4" lpdel="0" lspd="0.16499999" lshp="0" hold="0.5" att="0" ctlenvamt="0" lspd_syncmode="0" x100="0"/>
          </eldata>
          <chordcreator chordrange="3" chord-enabled="1" chord="0"/>
          <arpeggiator arpmiss="0" arptime_numerator="4" arptime_syncmode="0" arpgate="100" arptime="91" arpcycle="0" arptime_denominator="4" arp="92" arpmode="0" arprange="3" arp-enabled="0" arpskip="0" arpdir="3"/>
          <midiport outputchannel="1" fixedoutputnote="-1" writable="0" inputchannel="0" inputcontroller="0" outputcontroller="0" fixedinputvelocity="-1" outputprogram="1" readable="0" basevelocity="127" fixedoutputvelocity="-1"/>
          <fxchain numofeffects="6" enabled="1">
            <effect wet="1" autoquit_numerator="4" name="ladspaeffect" autoquit_syncmode="0" on="1" autoquit="1" gate="0" autoquit_denominator="4">
              <ladspacontrols ports="7">
                <port00 data="1.25"/>
                <port01 data="90"/>
                <port02 data="75"/>
                <port03 data="25"/>
                <port04 data="100"/>
                <port05 data="0"/>
                <port06 data="0"/>
              </ladspacontrols>
              <key>
                <attribute name="file" value="tap_chorusflanger"/>
                <attribute name="plugin" value="tap_chorusflanger"/>
              </key>
            </effect>
            <effect wet="1" autoquit_numerator="4" name="ladspaeffect" autoquit_syncmode="0" on="1" autoquit="1" gate="0" autoquit_denominator="4">
              <ladspacontrols link="1" ports="2">
                <port00 data="3" link="1"/>
                <port10 data="3"/>
              </ladspacontrols>
              <key>
                <attribute name="file" value="foverdrive_1196"/>
                <attribute name="plugin" value="foverdrive"/>
              </key>
            </effect>
            <effect wet="1" autoquit_numerator="4" name="eq" autoquit_syncmode="0" on="1" autoquit="1" gate="0" autoquit_denominator="4">
              <Eq LP24="0" Peak2gain="0" HighShelfres="1.4" AnalyseIn="1" LPres="0.70700002" Peak4active="0" LPactive="0" LP="0" LP12="1" Peak4gain="0" Peak2bw="0.30000001" HPactive="0" AnalyseOut="1" Lowshelfactive="0" Peak3gain="0" LowShelfres="1.4" Peak4bw="0.30000001" LP48="0" HP="0" Peak3bw="0.30000001" Lowshelfgain="0" Peak1bw="0.30000001" HP48="0" Peak2active="0" Peak3active="0" HP12="1" HighShelfgain="0" HPres="0.70700002" Highshelfactive="0" HP24="0" Peak1active="0" Outputgain="-7">
                <Inputgain id="6549991" value="0" scale_type="log"/>
                <Peak1gain id="2684673" value="0" scale_type="log"/>
                <HPfreq id="5264646" value="31" scale_type="log"/>
                <LowShelffreq id="2140135" value="80" scale_type="log"/>
                <Peak1freq id="7350342" value="120" scale_type="log"/>
                <Peak2freq id="5221030" value="250" scale_type="log"/>
                <Peak3freq id="7198793" value="2000" scale_type="log"/>
                <Peak4freq id="4935746" value="4000" scale_type="log"/>
                <Highshelffreq id="6380401" value="12000" scale_type="log"/>
                <LPfreq id="212894" value="18000" scale_type="log"/>
              </Eq>
              <key/>
            </effect>
            <effect wet="1" autoquit_numerator="4" name="ladspaeffect" autoquit_syncmode="0" on="1" autoquit="1" gate="0" autoquit_denominator="4">
              <ladspacontrols link="1" ports="8">
                <port00 data="-25.231251" link="1"/>
                <port01 data_syncmode="0" data="1.275" data_denominator="4" link="1" data_numerator="4"/>
                <port02 data="-39.200001" link="1"/>
                <port03 data="59" link="1"/>
                <port10 data="-25.231251"/>
                <port11 data_syncmode="0" data="1.275" data_denominator="4" data_numerator="4"/>
                <port12 data="-39.200001"/>
                <port13 data="59"/>
              </ladspacontrols>
              <key>
                <attribute name="file" value="caps"/>
                <attribute name="plugin" value="Noisegate"/>
              </key>
            </effect>
            <effect wet="-0.41" autoquit_numerator="4" name="ladspaeffect" autoquit_syncmode="0" on="1" autoquit="1" gate="0" autoquit_denominator="4">
              <ladspacontrols ports="4">
                <port02 data="0.8883875"/>
                <port03 data="0.072091252"/>
                <port04 data="0.71214372"/>
                <port05 data="0.71249998"/>
              </ladspacontrols>
              <key>
                <attribute name="file" value="caps"/>
                <attribute name="plugin" value="Plate2x2"/>
              </key>
            </effect>
            <effect wet="0.37" autoquit_numerator="4" name="ladspaeffect" autoquit_syncmode="0" on="1" autoquit="1" gate="0" autoquit_denominator="4">
              <ladspacontrols ports="7">
                <port00 data="1.25"/>
                <port01 data="90"/>
                <port02 data="75"/>
                <port03 data="25"/>
                <port04 data="100"/>
                <port05 data="0"/>
                <port06 data="0"/>
              </ladspacontrols>
              <key>
                <attribute name="file" value="tap_chorusflanger"/>
                <attribute name="plugin" value="tap_chorusflanger"/>
              </key>
            </effect>
          </fxchain>
        </instrumenttrack>
        <pattern name="HugeGrittyBass" pos="10368" type="1" muted="0" steps="16">
          <note key="59" vol="51" pan="0" pos="0" len="48"/>
          <note key="58" vol="74" pan="0" pos="48" len="48"/>
          <note key="63" vol="112" pan="0" pos="96" len="48"/>
          <note key="58" vol="61" pan="0" pos="144" len="48"/>
          <note key="59" vol="87" pan="0" pos="192" len="48"/>
          <note key="54" vol="123" pan="0" pos="240" len="48"/>
          <note key="55" vol="53" pan="0" pos="288" len="48"/>
          <note key="52" vol="87" pan="0" pos="336" len="48"/>
          <note key="54" vol="87" pan="0" pos="384" len="48"/>
          <note key="60" vol="136" pan="0" pos="432" len="48"/>
          <note key="54" vol="87" pan="0" pos="480" len="48"/>
          <note key="59" vol="123" pan="0" pos="528" len="48"/>
          <note key="58" vol="87" pan="0" pos="576" len="48"/>
          <note key="61" vol="136" pan="0" pos="624" len="48"/>
          <note key="59" vol="114" pan="0" pos="672" len="96"/>
          <note key="59" vol="65" pan="0" pos="768" len="48"/>
          <note key="61" vol="87" pan="0" pos="816" len="48"/>
          <note key="62" vol="117" pan="0" pos="864" len="48"/>
          <note key="66" vol="123" pan="0" pos="912" len="48"/>
          <note key="65" vol="87" pan="0" pos="960" len="48"/>
          <note key="66" vol="123" pan="0" pos="1008" len="48"/>
          <note key="62" vol="74" pan="0" pos="1056" len="48"/>
          <note key="61" vol="106" pan="0" pos="1104" len="48"/>
          <note key="59" vol="78" pan="0" pos="1152" len="48"/>
          <note key="61" vol="112" pan="0" pos="1200" len="48"/>
          <note key="62" vol="121" pan="0" pos="1248" len="48"/>
          <note key="59" vol="112" pan="0" pos="1296" len="48"/>
          <note key="55" vol="87" pan="0" pos="1344" len="48"/>
          <note key="54" vol="82" pan="0" pos="1392" len="48"/>
          <note key="52" vol="112" pan="0" pos="1440" len="96"/>
          <note key="52" vol="85" pan="0" pos="1536" len="48"/>
          <note key="54" vol="93" pan="0" pos="1584" len="48"/>
          <note key="55" vol="108" pan="0" pos="1632" len="48"/>
          <note key="52" vol="106" pan="0" pos="1680" len="48"/>
          <note key="54" vol="87" pan="0" pos="1728" len="48"/>
          <note key="52" vol="97" pan="0" pos="1776" len="48"/>
          <note key="50" vol="91" pan="0" pos="1824" len="48"/>
          <note key="49" vol="87" pan="0" pos="1872" len="48"/>
          <note key="47" vol="108" pan="0" pos="1920" len="48"/>
          <note key="49" vol="65" pan="0" pos="1968" len="48"/>
          <note key="50" vol="87" pan="0" pos="2016" len="48"/>
          <note key="52" vol="112" pan="0" pos="2064" len="48"/>
          <note key="47" vol="100" pan="0" pos="2112" len="192"/>
        </pattern>
        <pattern name="HugeGrittyBass" pos="14208" type="1" muted="0" steps="16">
          <note key="57" vol="100" pan="0" pos="0" len="24"/>
          <note key="56" vol="100" pan="0" pos="24" len="24"/>
          <note key="56" vol="100" pan="0" pos="96" len="24"/>
          <note key="55" vol="100" pan="0" pos="144" len="240"/>
          <note key="57" vol="100" pan="0" pos="384" len="24"/>
          <note key="56" vol="100" pan="0" pos="408" len="24"/>
          <note key="56" vol="100" pan="0" pos="480" len="24"/>
          <note key="55" vol="100" pan="0" pos="528" len="240">
            <automationpattern>
              <detuning tens="1" prog="2" name="Note detuning" pos="0" mute="0" len="192">
                <time pos="0" value="0"/>
                <time pos="192" value="5.5"/>
                <time pos="240" value="28.5"/>
                <object id="2143500"/>
              </detuning>
            </automationpattern>
          </note>
        </pattern>
        <pattern name="HugeGrittyBass" pos="14976" type="1" muted="0" steps="16">
          <note key="69" vol="100" pan="0" pos="0" len="24"/>
          <note key="68" vol="100" pan="0" pos="24" len="24"/>
          <note key="68" vol="100" pan="0" pos="96" len="24"/>
          <note key="67" vol="100" pan="0" pos="144" len="240"/>
          <note key="69" vol="100" pan="0" pos="384" len="24"/>
          <note key="68" vol="100" pan="0" pos="408" len="24"/>
          <note key="75" vol="100" pan="0" pos="480" len="24"/>
          <note key="59" vol="100" pan="0" pos="528" len="624"/>
        </pattern>
      </track>
      <track name="HugeGrittyBass" type="0" muted="0" solo="0">
        <instrumenttrack vol="97.599998" pan="0" pitch="0" usemasterpitch="1" fxch="0" basenote="69" pitchrange="1">
          <instrument name="tripleoscillator">
            <tripleoscillator wavetype0="3" coarse1="-12" userwavefile2="" finer1="-4" stphdetun0="0" vol0="44" stphdetun1="0" finer2="0" pan2="0" modalgo2="2" coarse2="-24" finel2="0" phoffset1="0" userwavefile0="" vol2="33" finel1="4" pan1="0" coarse0="0" phoffset0="0" wavetype1="5" phoffset2="0" wavetype2="2" vol1="11" finer0="8" stphdetun2="0" pan0="0" modalgo1="2" modalgo3="2" userwavefile1="" finel0="-8"/>
          </instrument>
          <eldata ftype="4" fres="0.5" fwet="1" fcut="561">
            <elvol lamt="0.57999998" sustain="0.39600003" pdel="0" latt="0" dec="0.056000002" lspd_numerator="4" amt="1" userwavefile="" rel="0.13600001" lspd_denominator="4" lpdel="0" lspd="0.1" lshp="0" hold="0" att="0.44800001" ctlenvamt="0" lspd_syncmode="0" x100="1"/>
            <elcut lamt="0" sustain="1" pdel="0" latt="0" dec="0" lspd_numerator="4" amt="0" userwavefile="" rel="0" lspd_denominator="4" lpdel="0" lspd="0.1" lshp="0" hold="0.5" att="0" ctlenvamt="0" lspd_syncmode="0" x100="0"/>
            <elres lamt="0" sustain="0.5" pdel="0" latt="0" dec="0.5" lspd_numerator="4" amt="0" userwavefile="" rel="0.1" lspd_denominator="4" lpdel="0" lspd="0.1" lshp="0" hold="0.5" att="0" ctlenvamt="0" lspd_syncmode="0" x100="0"/>
          </eldata>
          <chordcreator chordrange="3" chord-enabled="1" chord="0"/>
          <arpeggiator arpmiss="0" arptime_numerator="4" arptime_syncmode="0" arpgate="100" arptime="91" arpcycle="0" arptime_denominator="4" arp="92" arpmode="0" arprange="3" arp-enabled="0" arpskip="0" arpdir="3"/>
          <midiport outputchannel="1" fixedoutputnote="-1" writable="0" inputchannel="0" inputcontroller="0" outputcontroller="0" fixedinputvelocity="-1" outputprogram="1" readable="0" basevelocity="127" fixedoutputvelocity="-1"/>
          <fxchain numofeffects="6" enabled="1">
            <effect wet="1" autoquit_numerator="4" name="ladspaeffect" autoquit_syncmode="0" on="1" autoquit="1" gate="0" autoquit_denominator="4">
              <ladspacontrols ports="7">
                <port00 data="1.25"/>
                <port01 data="90"/>
                <port02 data="75"/>
                <port03 data="25"/>
                <port04 data="100"/>
                <port05 data="0"/>
                <port06 data="0"/>
              </ladspacontrols>
              <key>
                <attribute name="file" value="tap_chorusflanger"/>
                <attribute name="plugin" value="tap_chorusflanger"/>
              </key>
            </effect>
            <effect wet="1" autoquit_numerator="4" name="ladspaeffect" autoquit_syncmode="0" on="1" autoquit="1" gate="0" autoquit_denominator="4">
              <ladspacontrols link="1" ports="2">
                <port00 data="3" link="1"/>
                <port10 data="3"/>
              </ladspacontrols>
              <key>
                <attribute name="file" value="foverdrive_1196"/>
                <attribute name="plugin" value="foverdrive"/>
              </key>
            </effect>
            <effect wet="1" autoquit_numerator="4" name="eq" autoquit_syncmode="0" on="1" autoquit="1" gate="0" autoquit_denominator="4">
              <Eq LP24="0" Peak2gain="0" HighShelfres="1.4" AnalyseIn="1" LPres="0.70700002" Peak4active="0" LPactive="0" LP="0" LP12="1" Peak4gain="0" Peak2bw="0.30000001" HPactive="0" AnalyseOut="1" Lowshelfactive="0" Peak3gain="0" LowShelfres="1.4" Peak4bw="0.30000001" LP48="0" HP="0" Peak3bw="0.30000001" Lowshelfgain="0" Peak1bw="0.30000001" HP48="0" Peak2active="0" Peak3active="0" HP12="1" HighShelfgain="0" HPres="0.70700002" Highshelfactive="0" HP24="0" Peak1active="0" Outputgain="-7">
                <Inputgain id="6268685" value="0" scale_type="log"/>
                <Peak1gain id="5269860" value="0" scale_type="log"/>
                <HPfreq id="5452228" value="31" scale_type="log"/>
                <LowShelffreq id="455478" value="80" scale_type="log"/>
                <Peak1freq id="2384142" value="120" scale_type="log"/>
                <Peak2freq id="6181337" value="250" scale_type="log"/>
                <Peak3freq id="3935011" value="2000" scale_type="log"/>
                <Peak4freq id="4006347" value="4000" scale_type="log"/>
                <Highshelffreq id="3246494" value="12000" scale_type="log"/>
                <LPfreq id="6375055" value="18000" scale_type="log"/>
              </Eq>
              <key/>
            </effect>
            <effect wet="1" autoquit_numerator="4" name="ladspaeffect" autoquit_syncmode="0" on="1" autoquit="1" gate="0" autoquit_denominator="4">
              <ladspacontrols link="1" ports="8">
                <port00 data="-25.231251" link="1"/>
                <port01 data_syncmode="0" data="1.275" data_denominator="4" link="1" data_numerator="4"/>
                <port02 data="-39.200001" link="1"/>
                <port03 data="59" link="1"/>
                <port10 data="-25.231251"/>
                <port11 data_syncmode="0" data="1.275" data_denominator="4" data_numerator="4"/>
                <port12 data="-39.200001"/>
                <port13 data="59"/>
              </ladspacontrols>
              <key>
                <attribute name="file" value="caps"/>
                <attribute name="plugin" value="Noisegate"/>
              </key>
            </effect>
            <effect wet="0.63" autoquit_numerator="4" name="ladspaeffect" autoquit_syncmode="0" on="1" autoquit="1" gate="0" autoquit_denominator="4">
              <ladspacontrols ports="4">
                <port02 data="0.8883875"/>
                <port03 data="0.072091252"/>
                <port04 data="0.71214372"/>
                <port05 data="0.71249998"/>
              </ladspacontrols>
              <key>
                <attribute name="file" value="caps"/>
                <attribute name="plugin" value="Plate2x2"/>
              </key>
            </effect>
            <effect wet="1" autoquit_numerator="4" name="ladspaeffect" autoquit_syncmode="0" on="1" autoquit="1" gate="0" autoquit_denominator="4">
              <ladspacontrols ports="7">
                <port00 data="1.25"/>
                <port01 data="90"/>
                <port02 data="75"/>
                <port03 data="25"/>
                <port04 data="100"/>
                <port05 data="0"/>
                <port06 data="0"/>
              </ladspacontrols>
              <key>
                <attribute name="file" value="tap_chorusflanger"/>
                <attribute name="plugin" value="tap_chorusflanger"/>
              </key>
            </effect>
          </fxchain>
        </instrumenttrack>
        <pattern name="HugeGrittyBass" pos="10368" type="1" muted="0" steps="16">
          <note key="59" vol="51" pan="0" pos="0" len="48"/>
          <note key="58" vol="74" pan="0" pos="48" len="48"/>
          <note key="63" vol="112" pan="0" pos="96" len="48"/>
          <note key="58" vol="61" pan="0" pos="144" len="48"/>
          <note key="59" vol="87" pan="0" pos="192" len="48"/>
          <note key="54" vol="123" pan="0" pos="240" len="48"/>
          <note key="55" vol="53" pan="0" pos="288" len="48"/>
          <note key="52" vol="87" pan="0" pos="336" len="48"/>
          <note key="54" vol="87" pan="0" pos="384" len="48"/>
          <note key="60" vol="136" pan="0" pos="432" len="48"/>
          <note key="54" vol="87" pan="0" pos="480" len="48"/>
          <note key="59" vol="123" pan="0" pos="528" len="48"/>
          <note key="58" vol="87" pan="0" pos="576" len="48"/>
          <note key="61" vol="136" pan="0" pos="624" len="48"/>
          <note key="59" vol="114" pan="0" pos="672" len="96"/>
          <note key="59" vol="65" pan="0" pos="768" len="48"/>
          <note key="61" vol="87" pan="0" pos="816" len="48"/>
          <note key="62" vol="117" pan="0" pos="864" len="48"/>
          <note key="66" vol="123" pan="0" pos="912" len="48"/>
          <note key="65" vol="87" pan="0" pos="960" len="48"/>
          <note key="66" vol="123" pan="0" pos="1008" len="48"/>
          <note key="62" vol="74" pan="0" pos="1056" len="48"/>
          <note key="61" vol="106" pan="0" pos="1104" len="48"/>
          <note key="59" vol="78" pan="0" pos="1152" len="48"/>
          <note key="61" vol="112" pan="0" pos="1200" len="48"/>
          <note key="62" vol="121" pan="0" pos="1248" len="48"/>
          <note key="59" vol="112" pan="0" pos="1296" len="48"/>
          <note key="55" vol="87" pan="0" pos="1344" len="48"/>
          <note key="54" vol="82" pan="0" pos="1392" len="48"/>
          <note key="52" vol="112" pan="0" pos="1440" len="96"/>
          <note key="52" vol="85" pan="0" pos="1536" len="48"/>
          <note key="54" vol="93" pan="0" pos="1584" len="48"/>
          <note key="55" vol="108" pan="0" pos="1632" len="48"/>
          <note key="52" vol="106" pan="0" pos="1680" len="48"/>
          <note key="54" vol="87" pan="0" pos="1728" len="48"/>
          <note key="52" vol="97" pan="0" pos="1776" len="48"/>
          <note key="50" vol="91" pan="0" pos="1824" len="48"/>
          <note key="49" vol="87" pan="0" pos="1872" len="48"/>
          <note key="47" vol="108" pan="0" pos="1920" len="48"/>
          <note key="49" vol="65" pan="0" pos="1968" len="48"/>
          <note key="50" vol="87" pan="0" pos="2016" len="48"/>
          <note key="52" vol="112" pan="0" pos="2064" len="48"/>
          <note key="47" vol="100" pan="0" pos="2112" len="192"/>
        </pattern>
        <pattern name="" pos="14172" type="1" muted="0" steps="16">
          <note key="57" vol="100" pan="0" pos="0" len="24"/>
          <note key="56" vol="100" pan="0" pos="24" len="24"/>
          <note key="56" vol="100" pan="0" pos="96" len="24"/>
          <note key="55" vol="100" pan="0" pos="144" len="240"/>
          <note key="57" vol="100" pan="0" pos="384" len="24"/>
          <note key="56" vol="100" pan="0" pos="408" len="24"/>
          <note key="56" vol="100" pan="0" pos="480" len="24"/>
          <note key="55" vol="100" pan="0" pos="528" len="240">
            <automationpattern>
              <detuning tens="1" prog="2" name="Note detuning" pos="0" mute="0" len="192">
                <time pos="0" value="0"/>
                <time pos="192" value="5.5"/>
                <time pos="240" value="28.5"/>
                <object id="4869525"/>
              </detuning>
            </automationpattern>
          </note>
        </pattern>
        <pattern name="" pos="14976" type="1" muted="0" steps="16">
          <note key="69" vol="100" pan="0" pos="0" len="24"/>
          <note key="68" vol="100" pan="0" pos="24" len="24"/>
          <note key="68" vol="100" pan="0" pos="96" len="24"/>
          <note key="67" vol="100" pan="0" pos="144" len="240"/>
          <note key="69" vol="100" pan="0" pos="384" len="24"/>
          <note key="68" vol="100" pan="0" pos="408" len="24"/>
          <note key="75" vol="100" pan="0" pos="480" len="24"/>
          <note key="59" vol="100" pan="0" pos="528" len="624"/>
        </pattern>
      </track>
      <track name="Phat" type="0" muted="0" solo="0">
        <instrumenttrack vol="41" pan="0" pitch="0" usemasterpitch="1" fxch="0" basenote="81" pitchrange="1">
          <instrument name="monstro">
            <monstro v1l1="0" f3l1="0" o3spo="0" e1slo="-0.97000003" o3wav2="6" v2e1="0.92799997" l2rat_syncmode="0" v2e2="0" o3pan="0" e2att="4" e1rel="32" o1pan="0" o2ftr="0" e2pre_denominator="4" l1phs="176" e2rel_numerator="4" l2att="24" e1dec_numerator="4" e1att_denominator="4" e1pre_numerator="4" p1l1="0" o2wav="0" e2hol="0" o2ftl="0" w1e2="0" w1l2="0" f3e1="0" e1hol_numerator="4" o1ftl="0" l2wav="0" e2att_denominator="4" o1pw="79.989998" o23mo="3" e1pre_denominator="4" e1pre="0" f1e1="0" e1att="1452" f2l1="0" o2vol="34.200001" e2hol_denominator="4" e2sus="0.55600005" o2syn="1" s3l2="0" e2pre_numerator="4" o3vol="33" e2dec_syncmode="0" o1crs="0" f1l2="0" e2pre="0" l1rat_numerator="4" e1rel_syncmode="0" v1l2="0" f2e2="1" l2rat="120.1" v3l1="0" l2att_syncmode="0" e1dec="0" o3sub="-100" s3e1="0" l1att="22" e2att_numerator="4" l2att_numerator="4" o1ftr="0" e1rel_numerator="4" v3e1="0" o3synr="1" e1pre_syncmode="0" e1dec_syncmode="0" o1vol="46.600002" e2rel="88" e1sus="1" e2att_syncmode="0" s3e2="0" l1att_denominator="4" v2l2="0" v1e1="0" o2pan="1.4" e1hol_syncmode="0" e2hol_syncmode="0" p1l2="0" f2e1="0.89600003" e2rel_denominator="4" o2crs="0" o3syn="1" p2l1="0" s3l1="0" e1dec_denominator="4" l2rat_numerator="4" l1att_numerator="4" l1att_syncmode="0" l2rat_denominator="4" v2l1="0" p3l1="0" e2dec="1240" f1l1="0" f1e2="0" l2phs="-2.1000001" p2e2="0" o3crs="0" e2dec_denominator="4" l1rat_syncmode="0" f3e2="0" p3e2="0" o2synr="1" e2dec_numerator="4" l1rat_denominator="4" v1e2="0" e1hol_denominator="4" e2slo="0.257" o1ssf="1" p1e2="-1" e1att_numerator="4" o2spo="167.7" l1rat="5141.3999" f2l2="0" l2att_denominator="4" p2e1="0" v3e2="0" e1rel_denominator="4" v3l2="0" f3l2="0" e1att_syncmode="0" e1hol="0" o1spo="0" w1l1="0" e2pre_syncmode="0" w1e1="0.65899998" e2hol_numerator="4" p1e1="0.65799999" o3wav1="4" e2rel_syncmode="0" p2l2="0" p3e1="0" l1wav="6" o1ssr="1" p3l2="0"/>
          </instrument>
          <eldata ftype="0" fres="2.0799999" fwet="0" fcut="4321">
            <elvol lamt="0" sustain="0.5" pdel="0" latt="0" dec="0.5" lspd_numerator="4" amt="0" userwavefile="" rel="0.1" lspd_denominator="4" lpdel="0" lspd="0.1" lshp="0" hold="0.5" att="0" ctlenvamt="0" lspd_syncmode="0" x100="0"/>
            <elcut lamt="0" sustain="0" pdel="0" latt="0" dec="0.167" lspd_numerator="4" amt="1" userwavefile="" rel="0" lspd_denominator="4" lpdel="0" lspd="0.1" lshp="0" hold="0" att="0" ctlenvamt="0" lspd_syncmode="0" x100="0"/>
            <elres lamt="0" sustain="0.5" pdel="0" latt="0" dec="0.5" lspd_numerator="4" amt="0" userwavefile="" rel="0.1" lspd_denominator="4" lpdel="0" lspd="0.1" lshp="0" hold="0.5" att="0" ctlenvamt="0" lspd_syncmode="0" x100="0"/>
          </eldata>
          <chordcreator chordrange="1" chord-enabled="1" chord="0"/>
          <arpeggiator arpmiss="0" arptime_numerator="4" arptime_syncmode="0" arpgate="100" arptime="187" arpcycle="0" arptime_denominator="4" arp="0" arpmode="0" arprange="2" arp-enabled="0" arpskip="0" arpdir="3"/>
          <midiport outputchannel="1" fixedoutputnote="-1" writable="0" inputchannel="0" inputcontroller="0" outputcontroller="0" fixedinputvelocity="-1" outputprogram="1" readable="0" basevelocity="127" fixedoutputvelocity="-1"/>
          <fxchain numofeffects="1" enabled="1">
            <effect wet="1" autoquit_numerator="4" name="ladspaeffect" autoquit_syncmode="0" on="1" autoquit="1" gate="0" autoquit_denominator="4">
              <ladspacontrols ports="4">
                <port02 data="0.50196999"/>
                <port03 data="0.31926125"/>
                <port04 data="0.24987499"/>
                <port05 data="0.35249999"/>
              </ladspacontrols>
              <key>
                <attribute name="file" value="caps"/>
                <attribute name="plugin" value="Plate2x2"/>
              </key>
            </effect>
          </fxchain>
        </instrumenttrack>
        <pattern name="Phat" pos="10368" type="1" muted="0" steps="16">
          <note key="95" vol="51" pan="0" pos="0" len="48"/>
          <note key="59" vol="51" pan="0" pos="0" len="48"/>
          <note key="94" vol="74" pan="0" pos="48" len="48"/>
          <note key="58" vol="74" pan="0" pos="48" len="48"/>
          <note key="99" vol="112" pan="0" pos="96" len="48"/>
          <note key="63" vol="112" pan="0" pos="96" len="48"/>
          <note key="94" vol="61" pan="0" pos="144" len="48"/>
          <note key="58" vol="61" pan="0" pos="144" len="48"/>
          <note key="95" vol="87" pan="0" pos="192" len="48"/>
          <note key="59" vol="87" pan="0" pos="192" len="48"/>
          <note key="90" vol="123" pan="0" pos="240" len="48"/>
          <note key="54" vol="123" pan="0" pos="240" len="48"/>
          <note key="91" vol="53" pan="0" pos="288" len="48"/>
          <note key="55" vol="53" pan="0" pos="288" len="48"/>
          <note key="88" vol="87" pan="0" pos="336" len="48"/>
          <note key="52" vol="87" pan="0" pos="336" len="48"/>
          <note key="90" vol="87" pan="0" pos="384" len="48"/>
          <note key="54" vol="87" pan="0" pos="384" len="48"/>
          <note key="96" vol="136" pan="0" pos="432" len="48"/>
          <note key="60" vol="136" pan="0" pos="432" len="48"/>
          <note key="90" vol="87" pan="0" pos="480" len="48"/>
          <note key="54" vol="87" pan="0" pos="480" len="48"/>
          <note key="95" vol="123" pan="0" pos="528" len="48"/>
          <note key="59" vol="123" pan="0" pos="528" len="48"/>
          <note key="94" vol="87" pan="0" pos="576" len="48"/>
          <note key="58" vol="87" pan="0" pos="576" len="48"/>
          <note key="97" vol="136" pan="0" pos="624" len="48"/>
          <note key="61" vol="136" pan="0" pos="624" len="48"/>
          <note key="95" vol="114" pan="0" pos="672" len="96"/>
          <note key="59" vol="114" pan="0" pos="672" len="96"/>
          <note key="95" vol="65" pan="0" pos="768" len="48"/>
          <note key="59" vol="65" pan="0" pos="768" len="48"/>
          <note key="97" vol="87" pan="0" pos="816" len="48"/>
          <note key="61" vol="87" pan="0" pos="816" len="48"/>
          <note key="98" vol="117" pan="0" pos="864" len="48"/>
          <note key="62" vol="117" pan="0" pos="864" len="48"/>
          <note key="102" vol="123" pan="0" pos="912" len="48"/>
          <note key="66" vol="123" pan="0" pos="912" len="48"/>
          <note key="101" vol="87" pan="0" pos="960" len="48"/>
          <note key="65" vol="87" pan="0" pos="960" len="48"/>
          <note key="102" vol="123" pan="0" pos="1008" len="48"/>
          <note key="66" vol="123" pan="0" pos="1008" len="48"/>
          <note key="98" vol="74" pan="0" pos="1056" len="48"/>
          <note key="62" vol="74" pan="0" pos="1056" len="48"/>
          <note key="97" vol="106" pan="0" pos="1104" len="48"/>
          <note key="61" vol="106" pan="0" pos="1104" len="48"/>
          <note key="95" vol="78" pan="0" pos="1152" len="48"/>
          <note key="59" vol="78" pan="0" pos="1152" len="48"/>
          <note key="97" vol="112" pan="0" pos="1200" len="48"/>
          <note key="61" vol="112" pan="0" pos="1200" len="48"/>
          <note key="98" vol="121" pan="0" pos="1248" len="48"/>
          <note key="62" vol="121" pan="0" pos="1248" len="48"/>
          <note key="95" vol="112" pan="0" pos="1296" len="48"/>
          <note key="59" vol="112" pan="0" pos="1296" len="48"/>
          <note key="91" vol="87" pan="0" pos="1344" len="48"/>
          <note key="55" vol="87" pan="0" pos="1344" len="48"/>
          <note key="90" vol="82" pan="0" pos="1392" len="48"/>
          <note key="54" vol="82" pan="0" pos="1392" len="48"/>
          <note key="88" vol="112" pan="0" pos="1440" len="96"/>
          <note key="52" vol="112" pan="0" pos="1440" len="96"/>
          <note key="88" vol="85" pan="0" pos="1536" len="48"/>
          <note key="52" vol="85" pan="0" pos="1536" len="48"/>
          <note key="90" vol="93" pan="0" pos="1584" len="48"/>
          <note key="54" vol="93" pan="0" pos="1584" len="48"/>
          <note key="91" vol="108" pan="0" pos="1632" len="48"/>
          <note key="55" vol="108" pan="0" pos="1632" len="48"/>
          <note key="88" vol="106" pan="0" pos="1680" len="48"/>
          <note key="52" vol="106" pan="0" pos="1680" len="48"/>
          <note key="90" vol="87" pan="0" pos="1728" len="48"/>
          <note key="54" vol="87" pan="0" pos="1728" len="48"/>
          <note key="88" vol="97" pan="0" pos="1776" len="48"/>
          <note key="52" vol="97" pan="0" pos="1776" len="48"/>
          <note key="86" vol="91" pan="0" pos="1824" len="48"/>
          <note key="50" vol="91" pan="0" pos="1824" len="48"/>
          <note key="85" vol="87" pan="0" pos="1872" len="48"/>
          <note key="49" vol="87" pan="0" pos="1872" len="48"/>
          <note key="83" vol="108" pan="0" pos="1920" len="48"/>
          <note key="47" vol="108" pan="0" pos="1920" len="48"/>
          <note key="85" vol="65" pan="0" pos="1968" len="48"/>
          <note key="49" vol="65" pan="0" pos="1968" len="48"/>
          <note key="86" vol="87" pan="0" pos="2016" len="48"/>
          <note key="50" vol="87" pan="0" pos="2016" len="48"/>
          <note key="88" vol="112" pan="0" pos="2064" len="48"/>
          <note key="52" vol="112" pan="0" pos="2064" len="48"/>
          <note key="83" vol="100" pan="0" pos="2112" len="192"/>
          <note key="47" vol="100" pan="0" pos="2112" len="192"/>
        </pattern>
        <pattern name="Phat" pos="14208" type="1" muted="0" steps="16">
          <note key="57" vol="100" pan="0" pos="0" len="24"/>
          <note key="56" vol="100" pan="0" pos="24" len="24"/>
          <note key="56" vol="100" pan="0" pos="96" len="24"/>
          <note key="55" vol="100" pan="0" pos="144" len="240"/>
          <note key="57" vol="100" pan="0" pos="384" len="24"/>
          <note key="56" vol="100" pan="0" pos="408" len="24"/>
          <note key="56" vol="100" pan="0" pos="480" len="24"/>
          <note key="55" vol="100" pan="0" pos="528" len="240">
            <automationpattern>
              <detuning tens="1" prog="2" name="Note detuning" pos="0" mute="0" len="192">
                <time pos="0" value="0"/>
                <time pos="192" value="5.5"/>
                <time pos="240" value="28.5"/>
                <object id="4341823"/>
              </detuning>
            </automationpattern>
          </note>
        </pattern>
        <pattern name="Phat" pos="14976" type="1" muted="0" steps="16">
          <note key="69" vol="100" pan="0" pos="0" len="24"/>
          <note key="68" vol="100" pan="0" pos="24" len="24"/>
          <note key="68" vol="100" pan="0" pos="96" len="24"/>
          <note key="67" vol="100" pan="0" pos="144" len="240"/>
          <note key="69" vol="100" pan="0" pos="384" len="24"/>
          <note key="68" vol="100" pan="0" pos="408" len="24"/>
          <note key="75" vol="100" pan="0" pos="480" len="24"/>
          <note key="59" vol="100" pan="0" pos="528" len="624"/>
        </pattern>
      </track>
      <track name="Horror Lead" type="0" muted="0" solo="0">
        <instrumenttrack vol="11.8" pan="0" pitch="0" usemasterpitch="1" fxch="0" basenote="69" pitchrange="1">
          <instrument name="monstro">
            <monstro v1l1="0" f3l1="0" o3spo="0" e1slo="0.333" o3wav2="2" v2e1="0" l2rat_syncmode="0" v2e2="0" o3pan="0" e2att="500" e1rel="0" o1pan="0" o2ftr="0" e2pre_denominator="4" l1phs="0" e2rel_numerator="4" l2att="14" e1dec_numerator="4" e1att_denominator="4" e1pre_numerator="4" p1l1="0.68900001" o2wav="11" e2hol="1280" o2ftl="0" w1e2="-0.022" w1l2="0" f3e1="0" e1hol_numerator="4" o1ftl="2" l2wav="0" e2att_denominator="4" o1pw="87.650002" o23mo="3" e1pre_denominator="4" e1pre="0" f1e1="1" e1att="6" f2l1="0" o2vol="33" e2hol_denominator="4" e2sus="1" o2syn="0" s3l2="0" e2pre_numerator="4" o3vol="33" e2dec_syncmode="0" o1crs="-12" f1l2="0" e2pre="0" l1rat_numerator="4" e1rel_syncmode="0" v1l2="0" f2e2="0" l2rat="1" v3l1="0" l2att_syncmode="0" e1dec="0" o3sub="13.4" s3e1="0" l1att="12" e2att_numerator="4" l2att_numerator="4" o1ftr="0" e1rel_numerator="4" v3e1="0" o3synr="0" e1pre_syncmode="0" e1dec_syncmode="0" o1vol="33" e2rel="0" e1sus="1" e2att_syncmode="0" s3e2="0" l1att_denominator="4" v2l2="0" v1e1="0" o2pan="0" e1hol_syncmode="0" e2hol_syncmode="0" p1l2="0" f2e1="1" e2rel_denominator="4" o2crs="0" o3syn="0" p2l1="0.33700001" s3l1="0" e1dec_denominator="4" l2rat_numerator="4" l1att_numerator="4" l1att_syncmode="0" l2rat_denominator="4" v2l1="0" p3l1="0.075999998" e2dec="0" f1l1="0" f1e2="0" l2phs="0" p2e2="1" o3crs="-24" e2dec_denominator="4" l1rat_syncmode="0" f3e2="0" p3e2="0" o2synr="0" e2dec_numerator="4" l1rat_denominator="4" v1e2="0" e1hol_denominator="4" e2slo="0.208" o1ssf="0" p1e2="0" e1att_numerator="4" o2spo="0" l1rat="6035.8999" f2l2="0" l2att_denominator="4" p2e1="0" v3e2="0" e1rel_denominator="4" v3l2="0" f3l2="0" e1att_syncmode="0" e1hol="868" o1spo="0" w1l1="0" e2pre_syncmode="0" w1e1="0" e2hol_numerator="4" p1e1="0" o3wav1="2" e2rel_syncmode="0" p2l2="0" p3e1="0" l1wav="0" o1ssr="0" p3l2="0"/>
          </instrument>
          <eldata ftype="1" fres="0.50999999" fwet="1" fcut="249">
            <elvol lamt="0" sustain="0" pdel="0" latt="0" dec="0" lspd_numerator="4" amt="0" userwavefile="" rel="0" lspd_denominator="4" lpdel="0" lspd="0.1" lshp="0" hold="0" att="0" ctlenvamt="0" lspd_syncmode="0" x100="0"/>
            <elcut lamt="0" sustain="0.5" pdel="0" latt="0" dec="0.5" lspd_numerator="4" amt="0" userwavefile="" rel="0.1" lspd_denominator="4" lpdel="0" lspd="0.1" lshp="0" hold="0.5" att="0" ctlenvamt="0" lspd_syncmode="0" x100="0"/>
            <elres lamt="0" sustain="0.5" pdel="0" latt="0" dec="0.5" lspd_numerator="4" amt="0" userwavefile="" rel="0.1" lspd_denominator="4" lpdel="0" lspd="0.1" lshp="0" hold="0.5" att="0" ctlenvamt="0" lspd_syncmode="0" x100="0"/>
          </eldata>
          <chordcreator chordrange="2" chord-enabled="1" chord="0"/>
          <arpeggiator arpmiss="0" arptime_numerator="4" arptime_syncmode="0" arpgate="100" arptime="100" arpcycle="0" arptime_denominator="4" arp="0" arpmode="0" arprange="1" arp-enabled="0" arpskip="0" arpdir="0"/>
          <midiport outputchannel="1" fixedoutputnote="-1" writable="0" inputchannel="0" inputcontroller="0" outputcontroller="0" fixedinputvelocity="-1" outputprogram="1" readable="0" basevelocity="127" fixedoutputvelocity="-1"/>
          <fxchain numofeffects="5" enabled="1">
            <effect wet="1" autoquit_numerator="4" name="ladspaeffect" autoquit_syncmode="0" on="1" autoquit="8000" gate="0.15000001" autoquit_denominator="4">
              <ladspacontrols ports="4">
                <port02 data="0.99896997"/>
                <port03 data="0.74900001"/>
                <port04 data="0.00050000002"/>
                <port05 data="0.16749999"/>
              </ladspacontrols>
              <key>
                <attribute name="file" value="caps"/>
                <attribute name="plugin" value="Plate2x2"/>
              </key>
            </effect>
            <effect wet="1" autoquit_numerator="4" name="ladspaeffect" autoquit_syncmode="0" on="1" autoquit="1" gate="0" autoquit_denominator="4">
              <ladspacontrols link="1" ports="6">
                <port00 data="-10.5" link="1"/>
                <port01 data="1" link="1"/>
                <port02 data="0" link="1"/>
                <port10 data="-10.5"/>
                <port11 data="1"/>
                <port12 data="0"/>
              </ladspacontrols>
              <key>
                <attribute name="file" value="hard_limiter_1413"/>
                <attribute name="plugin" value="hardLimiter"/>
              </key>
            </effect>
            <effect wet="1" autoquit_numerator="4" name="amplifier" autoquit_syncmode="0" on="1" autoquit="1" gate="0" autoquit_denominator="4">
              <AmplifierControls pan="0" left="100" volume="200" right="100"/>
              <key/>
            </effect>
            <effect wet="1" autoquit_numerator="4" name="eq" autoquit_syncmode="0" on="1" autoquit="1" gate="0" autoquit_denominator="4">
              <Eq LP24="0" Peak2gain="0" HighShelfres="1.4" AnalyseIn="1" LPres="0.70700002" Peak4active="0" LPactive="0" LP="0" LP12="1" Peak4gain="0" Peak2bw="0.30000001" HPactive="1" AnalyseOut="1" Lowshelfactive="1" Peak3gain="0" LowShelfres="1.4" Peak4bw="0.30000001" LP48="0" HP="0" Peak3bw="0.30000001" Lowshelfgain="8.46" Peak1bw="0.30000001" HP48="0" Peak2active="0" Peak3active="0" HP12="1" HighShelfgain="0" HPres="0.70700002" Highshelfactive="0" HP24="0" Peak1active="0" Outputgain="0">
                <Inputgain id="5288871" value="0" scale_type="log"/>
                <Peak1gain id="7106214" value="0" scale_type="log"/>
                <HPfreq id="3344278" value="43.453861" scale_type="log"/>
                <LowShelffreq id="8191975" value="343.89288" scale_type="log"/>
                <Peak1freq id="6640245" value="119.99998" scale_type="log"/>
                <Peak2freq id="3440424" value="250.00009" scale_type="log"/>
                <Peak3freq id="5986121" value="1999.9996" scale_type="log"/>
                <Peak4freq id="3185591" value="4000.0029" scale_type="log"/>
                <Highshelffreq id="7099222" value="11999.999" scale_type="log"/>
                <LPfreq id="2943174" value="17999.996" scale_type="log"/>
              </Eq>
              <key/>
            </effect>
            <effect wet="1" autoquit_numerator="4" name="ladspaeffect" autoquit_syncmode="0" on="0" autoquit="1" gate="0" autoquit_denominator="4">
              <ladspacontrols ports="10">
                <port00 data="90"/>
                <port01 data="0"/>
                <port02 data="70"/>
                <port03 data="0"/>
                <port04 data="0"/>
                <port05 data="0"/>
                <port06 data="0"/>
                <port07 data="0"/>
                <port08 data="1"/>
                <port09 data="0"/>
              </ladspacontrols>
              <key>
                <attribute name="file" value="tap_echo"/>
                <attribute name="plugin" value="tap_stereo_echo"/>
              </key>
            </effect>
          </fxchain>
        </instrumenttrack>
        <pattern name="Horror Lead" pos="10368" type="1" muted="0" steps="16">
          <note key="59" vol="51" pan="0" pos="0" len="48"/>
          <note key="58" vol="74" pan="0" pos="48" len="48"/>
          <note key="63" vol="112" pan="0" pos="96" len="48"/>
          <note key="58" vol="61" pan="0" pos="144" len="48"/>
          <note key="59" vol="87" pan="0" pos="192" len="48"/>
          <note key="54" vol="123" pan="0" pos="240" len="48"/>
          <note key="55" vol="53" pan="0" pos="288" len="48"/>
          <note key="52" vol="87" pan="0" pos="336" len="48"/>
          <note key="54" vol="87" pan="0" pos="384" len="48"/>
          <note key="60" vol="136" pan="0" pos="432" len="48"/>
          <note key="54" vol="87" pan="0" pos="480" len="48"/>
          <note key="59" vol="123" pan="0" pos="528" len="48"/>
          <note key="58" vol="87" pan="0" pos="576" len="48"/>
          <note key="61" vol="136" pan="0" pos="624" len="48"/>
          <note key="59" vol="114" pan="0" pos="672" len="96"/>
          <note key="59" vol="65" pan="0" pos="768" len="48"/>
          <note key="61" vol="87" pan="0" pos="816" len="48"/>
          <note key="62" vol="117" pan="0" pos="864" len="48"/>
          <note key="66" vol="123" pan="0" pos="912" len="48"/>
          <note key="65" vol="87" pan="0" pos="960" len="48"/>
          <note key="66" vol="123" pan="0" pos="1008" len="48"/>
          <note key="62" vol="74" pan="0" pos="1056" len="48"/>
          <note key="61" vol="106" pan="0" pos="1104" len="48"/>
          <note key="59" vol="78" pan="0" pos="1152" len="48"/>
          <note key="61" vol="112" pan="0" pos="1200" len="48"/>
          <note key="62" vol="121" pan="0" pos="1248" len="48"/>
          <note key="59" vol="112" pan="0" pos="1296" len="48"/>
          <note key="55" vol="87" pan="0" pos="1344" len="48"/>
          <note key="54" vol="82" pan="0" pos="1392" len="48"/>
          <note key="52" vol="112" pan="0" pos="1440" len="96"/>
          <note key="52" vol="85" pan="0" pos="1536" len="48"/>
          <note key="54" vol="93" pan="0" pos="1584" len="48"/>
          <note key="55" vol="108" pan="0" pos="1632" len="48"/>
          <note key="52" vol="106" pan="0" pos="1680" len="48"/>
          <note key="54" vol="87" pan="0" pos="1728" len="48"/>
          <note key="52" vol="97" pan="0" pos="1776" len="48"/>
          <note key="50" vol="91" pan="0" pos="1824" len="48"/>
          <note key="49" vol="87" pan="0" pos="1872" len="48"/>
          <note key="47" vol="108" pan="0" pos="1920" len="48"/>
          <note key="49" vol="65" pan="0" pos="1968" len="48"/>
          <note key="50" vol="87" pan="0" pos="2016" len="48"/>
          <note key="52" vol="112" pan="0" pos="2064" len="48"/>
          <note key="47" vol="100" pan="0" pos="2112" len="192"/>
        </pattern>
        <pattern name="Horror Lead" pos="14208" type="1" muted="0" steps="16">
          <note key="57" vol="100" pan="0" pos="0" len="24"/>
          <note key="56" vol="100" pan="0" pos="24" len="24"/>
          <note key="56" vol="100" pan="0" pos="96" len="24"/>
          <note key="55" vol="100" pan="0" pos="144" len="240"/>
          <note key="57" vol="100" pan="0" pos="384" len="24"/>
          <note key="56" vol="100" pan="0" pos="408" len="24"/>
          <note key="56" vol="100" pan="0" pos="480" len="24"/>
          <note key="55" vol="100" pan="0" pos="528" len="240">
            <automationpattern>
              <detuning tens="1" prog="2" name="Note detuning" pos="0" mute="0" len="192">
                <time pos="0" value="0"/>
                <time pos="192" value="5.5"/>
                <time pos="240" value="28.5"/>
                <object id="7190930"/>
              </detuning>
            </automationpattern>
          </note>
        </pattern>
        <pattern name="Horror Lead" pos="14976" type="1" muted="0" steps="16">
          <note key="69" vol="100" pan="0" pos="0" len="24"/>
          <note key="68" vol="100" pan="0" pos="24" len="24"/>
          <note key="68" vol="100" pan="0" pos="96" len="24"/>
          <note key="67" vol="100" pan="0" pos="144" len="240"/>
          <note key="69" vol="100" pan="0" pos="384" len="24"/>
          <note key="68" vol="100" pan="0" pos="408" len="24"/>
          <note key="75" vol="100" pan="0" pos="480" len="24"/>
          <note key="59" vol="100" pan="0" pos="528" len="624"/>
        </pattern>
      </track>
      <track name="Gt.FretNoise" type="0" muted="0" solo="0">
        <instrumenttrack vol="131.2" pan="49.600002" pitch="0" usemasterpitch="1" fxch="0" basenote="57" pitchrange="1">
          <instrument name="sf2player">
            <sf2player gain="1" reverbRoomSize="0.2" patch="120" reverbWidth="0.5" chorusLevel="2" src="soundfonts/SGM-v2.01-HQ-v3.0.sf2" reverbLevel="0.89999998" chorusSpeed="0.30000001" bank="0" chorusOn="0" reverbDamping="0.2" chorusNum="0.89999998" reverbOn="0" chorusDepth="8"/>
          </instrument>
          <eldata ftype="0" fres="0.5" fwet="0" fcut="14000">
            <elvol lamt="0" sustain="0.5" pdel="0" latt="0" dec="0.5" lspd_numerator="4" amt="0" userwavefile="" rel="0.1" lspd_denominator="4" lpdel="0" lspd="0.1" lshp="0" hold="0.5" att="0" ctlenvamt="0" lspd_syncmode="0" x100="0"/>
            <elcut lamt="0" sustain="0.5" pdel="0" latt="0" dec="0.5" lspd_numerator="4" amt="0" userwavefile="" rel="0.1" lspd_denominator="4" lpdel="0" lspd="0.1" lshp="0" hold="0.5" att="0" ctlenvamt="0" lspd_syncmode="0" x100="0"/>
            <elres lamt="0" sustain="0.5" pdel="0" latt="0" dec="0.5" lspd_numerator="4" amt="0" userwavefile="" rel="0.1" lspd_denominator="4" lpdel="0" lspd="0.1" lshp="0" hold="0.5" att="0" ctlenvamt="0" lspd_syncmode="0" x100="0"/>
          </eldata>
          <chordcreator chordrange="1" chord-enabled="0" chord="0"/>
          <arpeggiator arpmiss="0" arptime_numerator="4" arptime_syncmode="0" arpgate="100" arptime="200" arpcycle="0" arptime_denominator="4" arp="0" arpmode="0" arprange="1" arp-enabled="0" arpskip="0" arpdir="0"/>
          <midiport outputchannel="1" fixedoutputnote="-1" writable="0" inputchannel="0" inputcontroller="0" outputcontroller="0" fixedinputvelocity="-1" outputprogram="1" readable="0" basevelocity="63" fixedoutputvelocity="-1"/>
          <fxchain numofeffects="0" enabled="0"/>
        </instrumenttrack>
        <pattern name="Gt.FretNoise" pos="15552" type="1" muted="0" steps="16">
          <note key="57" vol="134" pan="0" pos="204" len="96"/>
        </pattern>
      </track>
      <track name="Choir I" type="0" muted="0" solo="0">
        <instrumenttrack vol="200" pan="70" pitch="0" usemasterpitch="1" fxch="9" basenote="57" pitchrange="1">
          <instrument name="sf2player">
            <sf2player gain="1" reverbRoomSize="0.2" patch="52" reverbWidth="0.5" chorusLevel="2" src="soundfonts/SGM-v2.01-HQ-v3.0.sf2" reverbLevel="0.89999998" chorusSpeed="0.30000001" bank="8" chorusOn="0" reverbDamping="0.2" chorusNum="0.89999998" reverbOn="0" chorusDepth="8"/>
          </instrument>
          <eldata ftype="0" fres="0.5" fwet="0" fcut="14000">
            <elvol lamt="0" sustain="0.5" pdel="0" latt="0" dec="0.5" lspd_numerator="4" amt="0" userwavefile="" rel="0.1" lspd_denominator="4" lpdel="0" lspd="0.1" lshp="0" hold="0.5" att="0" ctlenvamt="0" lspd_syncmode="0" x100="0"/>
            <elcut lamt="0" sustain="0.5" pdel="0" latt="0" dec="0.5" lspd_numerator="4" amt="0" userwavefile="" rel="0.1" lspd_denominator="4" lpdel="0" lspd="0.1" lshp="0" hold="0.5" att="0" ctlenvamt="0" lspd_syncmode="0" x100="0"/>
            <elres lamt="0" sustain="0.5" pdel="0" latt="0" dec="0.5" lspd_numerator="4" amt="0" userwavefile="" rel="0.1" lspd_denominator="4" lpdel="0" lspd="0.1" lshp="0" hold="0.5" att="0" ctlenvamt="0" lspd_syncmode="0" x100="0"/>
          </eldata>
          <chordcreator chordrange="1" chord-enabled="0" chord="0"/>
          <arpeggiator arpmiss="0" arptime_numerator="4" arptime_syncmode="0" arpgate="100" arptime="200" arpcycle="0" arptime_denominator="4" arp="0" arpmode="0" arprange="1" arp-enabled="0" arpskip="0" arpdir="0"/>
          <midiport outputchannel="1" fixedoutputnote="-1" writable="0" inputchannel="0" inputcontroller="0" outputcontroller="0" fixedinputvelocity="-1" outputprogram="1" readable="0" basevelocity="63" fixedoutputvelocity="-1"/>
          <fxchain numofeffects="0" enabled="0"/>
        </instrumenttrack>
        <pattern name="Choir I" pos="9600" type="1" muted="0" steps="16">
          <note key="71" vol="112" pan="0" pos="0" len="192"/>
          <note key="35" vol="197" pan="0" pos="0" len="192"/>
          <note key="76" vol="112" pan="0" pos="192" len="192"/>
          <note key="40" vol="112" pan="0" pos="192" len="192"/>
          <note key="74" vol="112" pan="0" pos="384" len="192"/>
          <note key="38" vol="197" pan="0" pos="384" len="192"/>
          <note key="70" vol="112" pan="0" pos="576" len="192"/>
          <note key="34" vol="197" pan="0" pos="576" len="192"/>
          <note key="71" vol="112" pan="0" pos="768" len="384"/>
          <note key="35" vol="197" pan="0" pos="768" len="384"/>
          <note key="70" vol="112" pan="0" pos="1152" len="384"/>
          <note key="34" vol="197" pan="0" pos="1152" len="384"/>
          <note key="71" vol="112" pan="0" pos="1536" len="384"/>
          <note key="35" vol="197" pan="0" pos="1536" len="384"/>
          <note key="71" vol="112" pan="0" pos="1920" len="384"/>
          <note key="35" vol="197" pan="0" pos="1920" len="384"/>
          <note key="70" vol="112" pan="0" pos="2304" len="384"/>
          <note key="34" vol="197" pan="0" pos="2304" len="384"/>
          <note key="70" vol="112" pan="0" pos="2688" len="384"/>
          <note key="34" vol="197" pan="0" pos="2688" len="384"/>
        </pattern>
      </track>
      <track name="Choir II" type="0" muted="0" solo="0">
        <instrumenttrack vol="181" pan="-70" pitch="0" usemasterpitch="1" fxch="9" basenote="57" pitchrange="1">
          <instrument name="sf2player">
            <sf2player gain="1" reverbRoomSize="0.2" patch="52" reverbWidth="0.5" chorusLevel="2" src="soundfonts/SGM-v2.01-HQ-v3.0.sf2" reverbLevel="0.89999998" chorusSpeed="0.30000001" bank="8" chorusOn="0" reverbDamping="0.2" chorusNum="0.89999998" reverbOn="0" chorusDepth="8"/>
          </instrument>
          <eldata ftype="0" fres="0.5" fwet="0" fcut="14000">
            <elvol lamt="0" sustain="0.5" pdel="0" latt="0" dec="0.5" lspd_numerator="4" amt="0" userwavefile="" rel="0.1" lspd_denominator="4" lpdel="0" lspd="0.1" lshp="0" hold="0.5" att="0" ctlenvamt="0" lspd_syncmode="0" x100="0"/>
            <elcut lamt="0" sustain="0.5" pdel="0" latt="0" dec="0.5" lspd_numerator="4" amt="0" userwavefile="" rel="0.1" lspd_denominator="4" lpdel="0" lspd="0.1" lshp="0" hold="0.5" att="0" ctlenvamt="0" lspd_syncmode="0" x100="0"/>
            <elres lamt="0" sustain="0.5" pdel="0" latt="0" dec="0.5" lspd_numerator="4" amt="0" userwavefile="" rel="0.1" lspd_denominator="4" lpdel="0" lspd="0.1" lshp="0" hold="0.5" att="0" ctlenvamt="0" lspd_syncmode="0" x100="0"/>
          </eldata>
          <chordcreator chordrange="1" chord-enabled="0" chord="0"/>
          <arpeggiator arpmiss="0" arptime_numerator="4" arptime_syncmode="0" arpgate="100" arptime="200" arpcycle="0" arptime_denominator="4" arp="0" arpmode="0" arprange="1" arp-enabled="0" arpskip="0" arpdir="0"/>
          <midiport outputchannel="1" fixedoutputnote="-1" writable="0" inputchannel="0" inputcontroller="0" outputcontroller="0" fixedinputvelocity="-1" outputprogram="1" readable="0" basevelocity="63" fixedoutputvelocity="-1"/>
          <fxchain numofeffects="0" enabled="0"/>
        </instrumenttrack>
        <pattern name="Choir II" pos="9600" type="1" muted="0" steps="16">
          <note key="59" vol="121" pan="0" pos="0" len="192"/>
          <note key="23" vol="121" pan="0" pos="0" len="192"/>
          <note key="64" vol="121" pan="0" pos="192" len="192"/>
          <note key="28" vol="121" pan="0" pos="192" len="192"/>
          <note key="62" vol="121" pan="0" pos="384" len="192"/>
          <note key="26" vol="121" pan="0" pos="384" len="192"/>
          <note key="58" vol="121" pan="0" pos="576" len="192"/>
          <note key="22" vol="121" pan="0" pos="576" len="192"/>
          <note key="59" vol="121" pan="0" pos="768" len="384"/>
          <note key="23" vol="121" pan="0" pos="768" len="384"/>
          <note key="58" vol="121" pan="0" pos="1152" len="384"/>
          <note key="22" vol="121" pan="0" pos="1152" len="384"/>
          <note key="59" vol="121" pan="0" pos="1536" len="384"/>
          <note key="23" vol="121" pan="0" pos="1536" len="384"/>
          <note key="59" vol="121" pan="0" pos="1920" len="384"/>
          <note key="23" vol="121" pan="0" pos="1920" len="384"/>
          <note key="58" vol="121" pan="0" pos="2304" len="384"/>
          <note key="22" vol="121" pan="0" pos="2304" len="384"/>
          <note key="58" vol="121" pan="0" pos="2688" len="384"/>
          <note key="22" vol="121" pan="0" pos="2688" len="384"/>
        </pattern>
      </track>
      <track name="Choir III" type="0" muted="0" solo="0">
        <instrumenttrack vol="196" pan="0" pitch="0" usemasterpitch="1" fxch="9" basenote="57" pitchrange="1">
          <instrument name="sf2player">
            <sf2player gain="1" reverbRoomSize="0.2" patch="53" reverbWidth="0.5" chorusLevel="2" src="soundfonts/SGM-v2.01-HQ-v3.0.sf2" reverbLevel="0.89999998" chorusSpeed="0.30000001" bank="0" chorusOn="0" reverbDamping="0.2" chorusNum="0.89999998" reverbOn="0" chorusDepth="8"/>
          </instrument>
          <eldata ftype="0" fres="0.5" fwet="0" fcut="14000">
            <elvol lamt="0" sustain="0.5" pdel="0" latt="0" dec="0.5" lspd_numerator="4" amt="0" userwavefile="" rel="0.1" lspd_denominator="4" lpdel="0" lspd="0.1" lshp="0" hold="0.5" att="0" ctlenvamt="0" lspd_syncmode="0" x100="0"/>
            <elcut lamt="0" sustain="0.5" pdel="0" latt="0" dec="0.5" lspd_numerator="4" amt="0" userwavefile="" rel="0.1" lspd_denominator="4" lpdel="0" lspd="0.1" lshp="0" hold="0.5" att="0" ctlenvamt="0" lspd_syncmode="0" x100="0"/>
            <elres lamt="0" sustain="0.5" pdel="0" latt="0" dec="0.5" lspd_numerator="4" amt="0" userwavefile="" rel="0.1" lspd_denominator="4" lpdel="0" lspd="0.1" lshp="0" hold="0.5" att="0" ctlenvamt="0" lspd_syncmode="0" x100="0"/>
          </eldata>
          <chordcreator chordrange="1" chord-enabled="0" chord="0"/>
          <arpeggiator arpmiss="0" arptime_numerator="4" arptime_syncmode="0" arpgate="100" arptime="200" arpcycle="0" arptime_denominator="4" arp="0" arpmode="0" arprange="1" arp-enabled="0" arpskip="0" arpdir="0"/>
          <midiport outputchannel="1" fixedoutputnote="-1" writable="0" inputchannel="0" inputcontroller="0" outputcontroller="0" fixedinputvelocity="-1" outputprogram="1" readable="0" basevelocity="63" fixedoutputvelocity="-1"/>
          <fxchain numofeffects="0" enabled="0"/>
        </instrumenttrack>
        <pattern name="Choir III" pos="9600" type="1" muted="0" steps="16">
          <note key="35" vol="168" pan="0" pos="0" len="192"/>
          <note key="40" vol="168" pan="0" pos="192" len="192"/>
          <note key="38" vol="168" pan="0" pos="384" len="192"/>
          <note key="34" vol="168" pan="0" pos="576" len="192"/>
          <note key="35" vol="168" pan="0" pos="768" len="384"/>
          <note key="34" vol="168" pan="0" pos="1152" len="384"/>
          <note key="35" vol="168" pan="0" pos="1536" len="384"/>
          <note key="35" vol="168" pan="0" pos="1920" len="384"/>
          <note key="34" vol="168" pan="0" pos="2304" len="384"/>
          <note key="34" vol="168" pan="0" pos="2688" len="384"/>
        </pattern>
      </track>
      <track name="Automation track" type="5" muted="0" solo="0">
        <automationtrack/>
        <automationpattern tens="1" prog="0" name="Master volume" pos="0" mute="0" len="192">
          <time pos="0" value="100"/>
          <object id="3742775"/>
        </automationpattern>
        <automationpattern tens="1" prog="1" name="Master volume" pos="15552" mute="0" len="576">
          <time pos="0" value="100"/>
          <time pos="144" value="81"/>
          <time pos="384" value="8"/>
          <time pos="408" value="3"/>
          <time pos="480" value="0"/>
          <object id="3742775"/>
        </automationpattern>
      </track>
      <track name="Beat/Bassline 0" type="1" muted="0" solo="0">
        <bbtrack>
          <trackcontainer visible="0" type="bbtrackcontainer" y="425" height="400" x="393" maximized="0" width="700" minimized="0">
            <track name="Kicker" type="0" muted="0" solo="0">
              <instrumenttrack vol="111.2" pan="0" pitch="0" usemasterpitch="1" fxch="7" basenote="57" pitchrange="1">
                <instrument name="kicker">
                  <kicker dist="4" distend="4.4000001" gain="2.75" click="0.1" endfreq="40" env="0.163" startfreq="274" slope="0.059999999" endnote="0" decay_denominator="4" decay="220" decay_syncmode="0" noise="0" startnote="0" decay_numerator="4" version="1"/>
                </instrument>
                <eldata ftype="0" fres="0.5" fwet="0" fcut="14000">
                  <elvol lamt="0" sustain="0.5" pdel="0" latt="0" dec="0.5" lspd_numerator="4" amt="0" userwavefile="" rel="0.1" lspd_denominator="4" lpdel="0" lspd="0.1" lshp="0" hold="0.5" att="0" ctlenvamt="0" lspd_syncmode="0" x100="0"/>
                  <elcut lamt="0" sustain="0.5" pdel="0" latt="0" dec="0.5" lspd_numerator="4" amt="0" userwavefile="" rel="0.1" lspd_denominator="4" lpdel="0" lspd="0.1" lshp="0" hold="0.5" att="0" ctlenvamt="0" lspd_syncmode="0" x100="0"/>
                  <elres lamt="0" sustain="0.5" pdel="0" latt="0" dec="0.5" lspd_numerator="4" amt="0" userwavefile="" rel="0.1" lspd_denominator="4" lpdel="0" lspd="0.1" lshp="0" hold="0.5" att="0" ctlenvamt="0" lspd_syncmode="0" x100="0"/>
                </eldata>
                <chordcreator chordrange="1" chord-enabled="0" chord="0"/>
                <arpeggiator arpmiss="0" arptime_numerator="4" arptime_syncmode="0" arpgate="100" arptime="200" arpcycle="0" arptime_denominator="4" arp="0" arpmode="0" arprange="1" arp-enabled="0" arpskip="0" arpdir="0"/>
                <midiport outputchannel="1" fixedoutputnote="-1" writable="0" inputchannel="0" inputcontroller="0" outputcontroller="0" fixedinputvelocity="-1" outputprogram="1" readable="0" basevelocity="63" fixedoutputvelocity="-1"/>
                <fxchain numofeffects="0" enabled="0"/>
              </instrumenttrack>
              <pattern name="Kicker" pos="0" type="0" muted="0" steps="128">
                <note key="57" vol="100" pan="0" pos="0" len="-192"/>
                <note key="57" vol="20" pan="0" pos="12" len="-192"/>
                <note key="57" vol="100" pan="0" pos="36" len="-192"/>
                <note key="57" vol="100" pan="0" pos="48" len="-192"/>
                <note key="57" vol="15" pan="0" pos="60" len="-192"/>
                <note key="57" vol="100" pan="0" pos="84" len="-192"/>
                <note key="57" vol="100" pan="0" pos="96" len="-192"/>
                <note key="57" vol="15" pan="0" pos="108" len="-192"/>
                <note key="57" vol="100" pan="0" pos="120" len="-192"/>
                <note key="57" vol="10" pan="0" pos="132" len="-192"/>
                <note key="57" vol="100" pan="0" pos="144" len="-192"/>
                <note key="57" vol="100" pan="0" pos="192" len="-192"/>
                <note key="57" vol="20" pan="0" pos="204" len="-192"/>
                <note key="57" vol="100" pan="0" pos="228" len="-192"/>
                <note key="57" vol="100" pan="0" pos="240" len="-192"/>
                <note key="57" vol="15" pan="0" pos="252" len="-192"/>
                <note key="57" vol="100" pan="0" pos="276" len="-192"/>
                <note key="57" vol="100" pan="0" pos="288" len="-192"/>
                <note key="57" vol="15" pan="0" pos="300" len="-192"/>
                <note key="57" vol="100" pan="0" pos="324" len="-192"/>
                <note key="57" vol="100" pan="0" pos="336" len="-192"/>
                <note key="57" vol="100" pan="0" pos="348" len="-192"/>
                <note key="57" vol="100" pan="0" pos="372" len="-192"/>
                <note key="57" vol="100" pan="0" pos="384" len="-192"/>
                <note key="57" vol="20" pan="0" pos="396" len="-192"/>
                <note key="57" vol="100" pan="0" pos="420" len="-192"/>
                <note key="57" vol="100" pan="0" pos="432" len="-192"/>
                <note key="57" vol="15" pan="0" pos="444" len="-192"/>
                <note key="57" vol="100" pan="0" pos="468" len="-192"/>
                <note key="57" vol="100" pan="0" pos="480" len="-192"/>
                <note key="57" vol="15" pan="0" pos="492" len="-192"/>
                <note key="57" vol="100" pan="0" pos="516" len="-192"/>
                <note key="57" vol="100" pan="0" pos="528" len="-192"/>
                <note key="57" vol="100" pan="0" pos="576" len="-192"/>
                <note key="57" vol="20" pan="0" pos="588" len="-192"/>
                <note key="57" vol="100" pan="0" pos="612" len="-192"/>
                <note key="57" vol="100" pan="0" pos="624" len="-192"/>
                <note key="57" vol="15" pan="0" pos="636" len="-192"/>
                <note key="57" vol="100" pan="0" pos="660" len="-192"/>
                <note key="57" vol="100" pan="0" pos="672" len="-192"/>
                <note key="57" vol="15" pan="0" pos="684" len="-192"/>
                <note key="57" vol="100" pan="0" pos="708" len="-192"/>
                <note key="57" vol="100" pan="0" pos="720" len="-192"/>
                <note key="57" vol="100" pan="0" pos="744" len="-192"/>
                <note key="57" vol="100" pan="0" pos="768" len="-192"/>
                <note key="57" vol="20" pan="0" pos="780" len="-192"/>
                <note key="57" vol="100" pan="0" pos="804" len="-192"/>
                <note key="57" vol="100" pan="0" pos="816" len="-192"/>
                <note key="57" vol="15" pan="0" pos="828" len="-192"/>
                <note key="57" vol="100" pan="0" pos="852" len="-192"/>
                <note key="57" vol="100" pan="0" pos="864" len="-192"/>
                <note key="57" vol="15" pan="0" pos="876" len="-192"/>
                <note key="57" vol="100" pan="0" pos="888" len="-192"/>
                <note key="57" vol="10" pan="0" pos="900" len="-192"/>
                <note key="57" vol="100" pan="0" pos="912" len="-192"/>
                <note key="57" vol="100" pan="0" pos="960" len="-192"/>
                <note key="57" vol="20" pan="0" pos="972" len="-192"/>
                <note key="57" vol="100" pan="0" pos="996" len="-192"/>
                <note key="57" vol="100" pan="0" pos="1008" len="-192"/>
                <note key="57" vol="15" pan="0" pos="1020" len="-192"/>
                <note key="57" vol="100" pan="0" pos="1044" len="-192"/>
                <note key="57" vol="100" pan="0" pos="1056" len="-192"/>
                <note key="57" vol="15" pan="0" pos="1068" len="-192"/>
                <note key="57" vol="100" pan="0" pos="1092" len="-192"/>
                <note key="57" vol="100" pan="0" pos="1104" len="-192"/>
                <note key="57" vol="100" pan="0" pos="1116" len="-192"/>
                <note key="57" vol="100" pan="0" pos="1140" len="-192"/>
                <note key="57" vol="100" pan="0" pos="1152" len="-192"/>
                <note key="57" vol="20" pan="0" pos="1164" len="-192"/>
                <note key="57" vol="100" pan="0" pos="1188" len="-192"/>
                <note key="57" vol="100" pan="0" pos="1200" len="-192"/>
                <note key="57" vol="15" pan="0" pos="1212" len="-192"/>
                <note key="57" vol="100" pan="0" pos="1236" len="-192"/>
                <note key="57" vol="100" pan="0" pos="1248" len="-192"/>
                <note key="57" vol="15" pan="0" pos="1260" len="-192"/>
                <note key="57" vol="100" pan="0" pos="1284" len="-192"/>
                <note key="57" vol="100" pan="0" pos="1296" len="-192"/>
                <note key="57" vol="100" pan="0" pos="1344" len="-192"/>
                <note key="57" vol="20" pan="0" pos="1356" len="-192"/>
                <note key="57" vol="100" pan="0" pos="1380" len="-192"/>
                <note key="57" vol="100" pan="0" pos="1392" len="-192"/>
                <note key="57" vol="15" pan="0" pos="1404" len="-192"/>
                <note key="57" vol="100" pan="0" pos="1428" len="-192"/>
                <note key="57" vol="100" pan="0" pos="1440" len="-192"/>
                <note key="57" vol="15" pan="0" pos="1452" len="-192"/>
                <note key="57" vol="100" pan="0" pos="1476" len="-192"/>
                <note key="57" vol="100" pan="0" pos="1488" len="-192"/>
                <note key="57" vol="100" pan="0" pos="1512" len="-192"/>
              </pattern>
              <pattern name="Kicker" pos="192" type="0" muted="0" steps="16">
                <note key="57" vol="100" pan="0" pos="0" len="-192"/>
                <note key="57" vol="20" pan="0" pos="12" len="-192"/>
                <note key="57" vol="100" pan="0" pos="36" len="-192"/>
                <note key="57" vol="100" pan="0" pos="48" len="-192"/>
                <note key="57" vol="15" pan="0" pos="60" len="-192"/>
                <note key="57" vol="100" pan="0" pos="84" len="-192"/>
                <note key="57" vol="100" pan="0" pos="96" len="-192"/>
                <note key="57" vol="15" pan="0" pos="108" len="-192"/>
                <note key="57" vol="100" pan="0" pos="120" len="-192"/>
                <note key="57" vol="10" pan="0" pos="132" len="-192"/>
                <note key="57" vol="100" pan="0" pos="144" len="-192"/>
              </pattern>
              <pattern name="Kicker" pos="384" type="0" muted="0" steps="64">
                <note key="57" vol="100" pan="0" pos="0" len="-192"/>
                <note key="57" vol="35" pan="0" pos="24" len="-192"/>
                <note key="57" vol="45" pan="0" pos="72" len="-192"/>
                <note key="57" vol="100" pan="0" pos="96" len="-192"/>
                <note key="57" vol="65" pan="0" pos="120" len="-192"/>
                <note key="57" vol="100" pan="0" pos="168" len="-192"/>
                <note key="57" vol="100" pan="0" pos="192" len="-192"/>
                <note key="57" vol="35" pan="0" pos="216" len="-192"/>
                <note key="57" vol="100" pan="0" pos="264" len="-192"/>
                <note key="57" vol="100" pan="0" pos="312" len="-192"/>
                <note key="57" vol="65" pan="0" pos="360" len="-192"/>
                <note key="57" vol="100" pan="0" pos="384" len="-192"/>
                <note key="57" vol="35" pan="0" pos="408" len="-192"/>
                <note key="57" vol="70" pan="0" pos="456" len="-192"/>
                <note key="57" vol="100" pan="0" pos="480" len="-192"/>
                <note key="57" vol="70" pan="0" pos="504" len="-192"/>
                <note key="57" vol="70" pan="0" pos="552" len="-192"/>
                <note key="57" vol="100" pan="0" pos="576" len="-192"/>
                <note key="57" vol="35" pan="0" pos="600" len="-192"/>
                <note key="57" vol="100" pan="0" pos="648" len="-192"/>
                <note key="57" vol="100" pan="0" pos="696" len="-192"/>
                <note key="57" vol="100" pan="0" pos="744" len="-192"/>
              </pattern>
            </track>
            <track name="Dubstep snare (short decay).wav" type="0" muted="0" solo="0">
              <instrumenttrack vol="99.200005" pan="0" pitch="0" usemasterpitch="1" fxch="0" basenote="57" pitchrange="1">
                <instrument name="audiofileprocessor">
                  <audiofileprocessor lframe="0" reversed="0" looped="0" sframe="0" stutter="0" src="gig/Dubstep snare (short decay).wav" eframe="1" amp="100" interp="1"/>
                </instrument>
                <eldata ftype="0" fres="0.5" fwet="0" fcut="14000">
                  <elvol lamt="0" sustain="0.38800001" pdel="0" latt="0" dec="0.30800003" lspd_numerator="4" amt="1" userwavefile="" rel="0.77200001" lspd_denominator="4" lpdel="0" lspd="0.1" lshp="0" hold="0" att="0" ctlenvamt="0" lspd_syncmode="0" x100="0"/>
                  <elcut lamt="0" sustain="0.5" pdel="0" latt="0" dec="0.5" lspd_numerator="4" amt="0" userwavefile="" rel="0.1" lspd_denominator="4" lpdel="0" lspd="0.1" lshp="0" hold="0.5" att="0" ctlenvamt="0" lspd_syncmode="0" x100="0"/>
                  <elres lamt="0" sustain="0.5" pdel="0" latt="0" dec="0.5" lspd_numerator="4" amt="0" userwavefile="" rel="0.1" lspd_denominator="4" lpdel="0" lspd="0.1" lshp="0" hold="0.5" att="0" ctlenvamt="0" lspd_syncmode="0" x100="0"/>
                </eldata>
                <chordcreator chordrange="2" chord-enabled="0" chord="0"/>
                <arpeggiator arpmiss="0" arptime_numerator="4" arptime_syncmode="0" arpgate="100" arptime="200" arpcycle="0" arptime_denominator="4" arp="0" arpmode="0" arprange="1" arp-enabled="0" arpskip="0" arpdir="0"/>
                <midiport outputchannel="1" fixedoutputnote="-1" writable="0" inputchannel="0" inputcontroller="0" outputcontroller="0" fixedinputvelocity="-1" outputprogram="1" readable="0" basevelocity="63" fixedoutputvelocity="-1"/>
                <fxchain numofeffects="0" enabled="0"/>
              </instrumenttrack>
              <pattern name="Dubstep snare (short decay).wav" pos="0" type="1" muted="0" steps="128">
                <note key="57" vol="100" pan="0" pos="48" len="-192"/>
                <note key="57" vol="100" pan="0" pos="144" len="-192"/>
                <note key="57" vol="100" pan="0" pos="240" len="-192"/>
                <note key="57" vol="100" pan="0" pos="336" len="-192"/>
                <note key="57" vol="100" pan="0" pos="432" len="-192"/>
                <note key="57" vol="100" pan="0" pos="528" len="-192"/>
                <note key="57" vol="4" pan="0" pos="564" len="-192"/>
                <note key="57" vol="100" pan="0" pos="624" len="-192"/>
                <note key="57" vol="100" pan="0" pos="720" len="-192"/>
                <note key="57" vol="100" pan="0" pos="816" len="-192"/>
                <note key="57" vol="100" pan="0" pos="912" len="-192"/>
                <note key="57" vol="4" pan="0" pos="948" len="-192"/>
                <note key="57" vol="100" pan="0" pos="1008" len="-192"/>
                <note key="57" vol="100" pan="0" pos="1104" len="-192"/>
                <note key="57" vol="12" pan="0" pos="1128" len="-192"/>
                <note key="57" vol="100" pan="0" pos="1200" len="-192"/>
                <note key="57" vol="100" pan="0" pos="1296" len="-192"/>
                <note key="57" vol="50" pan="0" pos="1332" len="-192"/>
                <note key="57" vol="100" pan="0" pos="1392" len="-192"/>
                <note key="57" vol="70" pan="0" pos="1440" len="6"/>
                <note key="57" vol="100" pan="0" pos="1488" len="-192"/>
              </pattern>
              <pattern name="Dubstep snare (short decay).wav" pos="192" type="0" muted="0" steps="16">
                <note key="57" vol="100" pan="0" pos="48" len="-192"/>
                <note key="57" vol="100" pan="0" pos="144" len="-192"/>
                <note key="57" vol="100" pan="0" pos="156" len="-192"/>
                <note key="57" vol="100" pan="0" pos="168" len="-192"/>
                <note key="57" vol="100" pan="0" pos="180" len="-192"/>
              </pattern>
              <pattern name="Dubstep snare (short decay).wav" pos="384" type="0" muted="0" steps="64">
                <note key="57" vol="100" pan="0" pos="48" len="-192"/>
                <note key="57" vol="100" pan="0" pos="144" len="-192"/>
                <note key="57" vol="100" pan="0" pos="240" len="-192"/>
                <note key="57" vol="100" pan="0" pos="288" len="-192"/>
                <note key="57" vol="100" pan="0" pos="336" len="-192"/>
                <note key="57" vol="100" pan="0" pos="432" len="-192"/>
                <note key="57" vol="100" pan="0" pos="528" len="-192"/>
                <note key="57" vol="100" pan="0" pos="624" len="-192"/>
                <note key="57" vol="100" pan="0" pos="672" len="-192"/>
                <note key="57" vol="100" pan="0" pos="720" len="-192"/>
                <note key="57" vol="100" pan="0" pos="732" len="-192"/>
              </pattern>
            </track>
            <track name="snare07.ogg" type="0" muted="1" solo="0">
              <instrumenttrack vol="31.200001" pan="0" pitch="0" usemasterpitch="1" fxch="0" basenote="57" pitchrange="1">
                <instrument name="audiofileprocessor">
                  <audiofileprocessor lframe="0" reversed="0" looped="0" sframe="0" stutter="0" src="drums/snare07.ogg" eframe="1" amp="100" interp="1"/>
                </instrument>
                <eldata ftype="0" fres="0.5" fwet="0" fcut="14000">
                  <elvol lamt="0" sustain="0.5" pdel="0" latt="0" dec="0.5" lspd_numerator="4" amt="0" userwavefile="" rel="0.1" lspd_denominator="4" lpdel="0" lspd="0.1" lshp="0" hold="0.5" att="0" ctlenvamt="0" lspd_syncmode="0" x100="0"/>
                  <elcut lamt="0" sustain="0.5" pdel="0" latt="0" dec="0.5" lspd_numerator="4" amt="0" userwavefile="" rel="0.1" lspd_denominator="4" lpdel="0" lspd="0.1" lshp="0" hold="0.5" att="0" ctlenvamt="0" lspd_syncmode="0" x100="0"/>
                  <elres lamt="0" sustain="0.5" pdel="0" latt="0" dec="0.5" lspd_numerator="4" amt="0" userwavefile="" rel="0.1" lspd_denominator="4" lpdel="0" lspd="0.1" lshp="0" hold="0.5" att="0" ctlenvamt="0" lspd_syncmode="0" x100="0"/>
                </eldata>
                <chordcreator chordrange="1" chord-enabled="0" chord="0"/>
                <arpeggiator arpmiss="0" arptime_numerator="4" arptime_syncmode="0" arpgate="100" arptime="200" arpcycle="0" arptime_denominator="4" arp="0" arpmode="0" arprange="1" arp-enabled="0" arpskip="0" arpdir="0"/>
                <midiport outputchannel="1" fixedoutputnote="-1" writable="0" inputchannel="0" inputcontroller="0" outputcontroller="0" fixedinputvelocity="-1" outputprogram="1" readable="0" basevelocity="63" fixedoutputvelocity="-1"/>
                <fxchain numofeffects="0" enabled="0"/>
              </instrumenttrack>
              <pattern name="snare07.ogg" pos="0" type="0" muted="0" steps="128">
                <note key="57" vol="100" pan="0" pos="48" len="-192"/>
                <note key="57" vol="100" pan="0" pos="144" len="-192"/>
                <note key="57" vol="100" pan="0" pos="240" len="-192"/>
                <note key="57" vol="100" pan="0" pos="336" len="-192"/>
                <note key="57" vol="100" pan="0" pos="432" len="-192"/>
                <note key="57" vol="100" pan="0" pos="528" len="-192"/>
                <note key="57" vol="100" pan="0" pos="624" len="-192"/>
                <note key="57" vol="100" pan="0" pos="720" len="-192"/>
                <note key="57" vol="100" pan="0" pos="816" len="-192"/>
                <note key="57" vol="100" pan="0" pos="912" len="-192"/>
                <note key="57" vol="100" pan="0" pos="1008" len="-192"/>
                <note key="57" vol="100" pan="0" pos="1104" len="-192"/>
                <note key="57" vol="100" pan="0" pos="1200" len="-192"/>
                <note key="57" vol="100" pan="0" pos="1296" len="-192"/>
                <note key="57" vol="100" pan="0" pos="1392" len="-192"/>
                <note key="57" vol="100" pan="0" pos="1488" len="-192"/>
              </pattern>
              <pattern name="snare07.ogg" pos="192" type="0" muted="0" steps="16">
                <note key="57" vol="100" pan="0" pos="48" len="-192"/>
                <note key="57" vol="100" pan="0" pos="144" len="-192"/>
              </pattern>
              <pattern name="snare07.ogg" pos="384" type="0" muted="0" steps="64"/>
            </track>
            <track name="crash02.ogg" type="0" muted="1" solo="0">
              <instrumenttrack vol="27.200001" pan="0" pitch="0" usemasterpitch="1" fxch="0" basenote="57" pitchrange="1">
                <instrument name="audiofileprocessor">
                  <audiofileprocessor lframe="0" reversed="0" looped="0" sframe="0" stutter="0" src="drums/crash02.ogg" eframe="1" amp="100" interp="1"/>
                </instrument>
                <eldata ftype="0" fres="0.5" fwet="0" fcut="14000">
                  <elvol lamt="0" sustain="0.5" pdel="0" latt="0" dec="0.5" lspd_numerator="4" amt="0" userwavefile="" rel="0.1" lspd_denominator="4" lpdel="0" lspd="0.1" lshp="0" hold="0.5" att="0" ctlenvamt="0" lspd_syncmode="0" x100="0"/>
                  <elcut lamt="0" sustain="0.5" pdel="0" latt="0" dec="0.5" lspd_numerator="4" amt="0" userwavefile="" rel="0.1" lspd_denominator="4" lpdel="0" lspd="0.1" lshp="0" hold="0.5" att="0" ctlenvamt="0" lspd_syncmode="0" x100="0"/>
                  <elres lamt="0" sustain="0.5" pdel="0" latt="0" dec="0.5" lspd_numerator="4" amt="0" userwavefile="" rel="0.1" lspd_denominator="4" lpdel="0" lspd="0.1" lshp="0" hold="0.5" att="0" ctlenvamt="0" lspd_syncmode="0" x100="0"/>
                </eldata>
                <chordcreator chordrange="1" chord-enabled="0" chord="0"/>
                <arpeggiator arpmiss="0" arptime_numerator="4" arptime_syncmode="0" arpgate="100" arptime="200" arpcycle="0" arptime_denominator="4" arp="0" arpmode="0" arprange="1" arp-enabled="0" arpskip="0" arpdir="0"/>
                <midiport outputchannel="1" fixedoutputnote="-1" writable="0" inputchannel="0" inputcontroller="0" outputcontroller="0" fixedinputvelocity="-1" outputprogram="1" readable="0" basevelocity="63" fixedoutputvelocity="-1"/>
                <fxchain numofeffects="0" enabled="0"/>
              </instrumenttrack>
              <pattern name="crash02.ogg" pos="0" type="0" muted="0" steps="128">
                <note key="57" vol="55" pan="0" pos="0" len="-192"/>
                <note key="57" vol="100" pan="0" pos="48" len="-192"/>
                <note key="57" vol="65" pan="0" pos="96" len="-192"/>
                <note key="57" vol="100" pan="0" pos="144" len="-192"/>
                <note key="57" vol="55" pan="0" pos="192" len="-192"/>
                <note key="57" vol="100" pan="0" pos="240" len="-192"/>
                <note key="57" vol="65" pan="0" pos="288" len="-192"/>
                <note key="57" vol="100" pan="0" pos="336" len="-192"/>
                <note key="57" vol="55" pan="0" pos="384" len="-192"/>
                <note key="57" vol="100" pan="0" pos="432" len="-192"/>
                <note key="57" vol="65" pan="0" pos="480" len="-192"/>
                <note key="57" vol="100" pan="0" pos="528" len="-192"/>
                <note key="57" vol="55" pan="0" pos="576" len="-192"/>
                <note key="57" vol="100" pan="0" pos="624" len="-192"/>
                <note key="57" vol="65" pan="0" pos="672" len="-192"/>
                <note key="57" vol="100" pan="0" pos="720" len="-192"/>
                <note key="57" vol="55" pan="0" pos="768" len="-192"/>
                <note key="57" vol="100" pan="0" pos="816" len="-192"/>
                <note key="57" vol="65" pan="0" pos="864" len="-192"/>
                <note key="57" vol="100" pan="0" pos="912" len="-192"/>
                <note key="57" vol="55" pan="0" pos="960" len="-192"/>
                <note key="57" vol="100" pan="0" pos="1008" len="-192"/>
                <note key="57" vol="65" pan="0" pos="1056" len="-192"/>
                <note key="57" vol="100" pan="0" pos="1104" len="-192"/>
                <note key="57" vol="55" pan="0" pos="1152" len="-192"/>
                <note key="57" vol="100" pan="0" pos="1200" len="-192"/>
                <note key="57" vol="65" pan="0" pos="1248" len="-192"/>
                <note key="57" vol="100" pan="0" pos="1296" len="-192"/>
                <note key="57" vol="55" pan="0" pos="1344" len="-192"/>
                <note key="57" vol="100" pan="0" pos="1392" len="-192"/>
                <note key="57" vol="65" pan="0" pos="1440" len="-192"/>
                <note key="57" vol="100" pan="0" pos="1488" len="-192"/>
              </pattern>
              <pattern name="crash02.ogg" pos="192" type="0" muted="0" steps="16">
                <note key="57" vol="55" pan="0" pos="0" len="-192"/>
                <note key="57" vol="100" pan="0" pos="48" len="-192"/>
                <note key="57" vol="65" pan="0" pos="96" len="-192"/>
                <note key="57" vol="100" pan="0" pos="144" len="-192"/>
              </pattern>
              <pattern name="crash02.ogg" pos="384" type="0" muted="0" steps="64"/>
            </track>
          </trackcontainer>
        </bbtrack>
        <bbtco usestyle="1" name="" pos="2688" muted="0" len="1536" color="4286611584"/>
        <bbtco usestyle="1" name="" pos="9600" muted="0" len="576" color="4286611584"/>
        <bbtco usestyle="1" name="" pos="14208" muted="0" len="1308" color="4286611584"/>
        <bbtco usestyle="1" name="" pos="10368" muted="0" len="2304" color="4286611584"/>
      </track>
      <track name="Clone of Beat/Bassline 0" type="1" muted="0" solo="0">
        <bbtrack/>
        <bbtco usestyle="1" name="" pos="10176" muted="0" len="192" color="4286611584"/>
      </track>
      <track name="Beat/Bassline 1" type="1" muted="0" solo="0">
        <bbtrack/>
        <bbtco usestyle="1" name="" pos="4224" muted="0" len="1536" color="4286611584"/>
        <bbtco usestyle="1" name="" pos="12672" muted="0" len="1536" color="4286611584"/>
      </track>
      <track name="Automation track" type="5" muted="0" solo="0">
        <automationtrack/>
        <automationpattern tens="1" prog="2" name="Muted Dis. Gt>Volume" pos="2304" mute="0" len="384">
          <time pos="0" value="40.799999"/>
          <time pos="192" value="37.200001"/>
          <time pos="312" value="30.700001"/>
          <time pos="336" value="16.1"/>
          <time pos="360" value="47.400002"/>
          <time pos="384" value="106.6"/>
          <object id="4620640"/>
        </automationpattern>
        <automationpattern tens="1" prog="0" name="Muted Dis. Gt>Volume" pos="2688" mute="0" len="192">
          <time pos="0" value="40.799999"/>
          <object id="4620640"/>
        </automationpattern>
      </track>
      <track name="e_piano_accord02.ogg" type="0" muted="0" solo="0">
        <instrumenttrack vol="140" pan="-87.200005" pitch="0" usemasterpitch="1" fxch="0" basenote="57" pitchrange="1">
          <instrument name="audiofileprocessor">
            <audiofileprocessor lframe="0.064000003" reversed="0" looped="0" sframe="0.064000003" stutter="0" src="instruments/e_piano_accord02.ogg" eframe="1" amp="100" interp="1"/>
          </instrument>
          <eldata ftype="0" fres="0.5" fwet="0" fcut="14000">
            <elvol lamt="0" sustain="0.48400003" pdel="0" latt="0" dec="1.0600001" lspd_numerator="4" amt="1" userwavefile="" rel="0.77200001" lspd_denominator="4" lpdel="0" lspd="0.1" lshp="0" hold="0.056000002" att="0" ctlenvamt="0" lspd_syncmode="0" x100="0"/>
            <elcut lamt="0" sustain="0.5" pdel="0" latt="0" dec="0.5" lspd_numerator="4" amt="0" userwavefile="" rel="0.1" lspd_denominator="4" lpdel="0" lspd="0.1" lshp="0" hold="0.5" att="0" ctlenvamt="0" lspd_syncmode="0" x100="0"/>
            <elres lamt="0" sustain="0.5" pdel="0" latt="0" dec="0.5" lspd_numerator="4" amt="0" userwavefile="" rel="0.1" lspd_denominator="4" lpdel="0" lspd="0.1" lshp="0" hold="0.5" att="0" ctlenvamt="0" lspd_syncmode="0" x100="0"/>
          </eldata>
          <chordcreator chordrange="1" chord-enabled="0" chord="0"/>
          <arpeggiator arpmiss="0" arptime_numerator="4" arptime_syncmode="0" arpgate="100" arptime="200" arpcycle="0" arptime_denominator="4" arp="0" arpmode="0" arprange="1" arp-enabled="0" arpskip="0" arpdir="0"/>
          <midiport outputchannel="1" fixedoutputnote="-1" writable="0" inputchannel="0" inputcontroller="0" outputcontroller="0" fixedinputvelocity="-1" outputprogram="1" readable="0" basevelocity="63" fixedoutputvelocity="-1"/>
          <fxchain numofeffects="2" enabled="1">
            <effect wet="1" autoquit_numerator="4" name="bitcrush" autoquit_syncmode="0" on="1" autoquit="1" gate="0" autoquit_denominator="4">
              <bitcrushcontrols outclip="-14.1" depthon="1" levels="256" outgain="0" ingain="-2.2" rate="44100" stereodiff="0" rateon="1" innoise="0"/>
              <key/>
            </effect>
            <effect wet="1" autoquit_numerator="4" name="reverbsc" autoquit_syncmode="0" on="1" autoquit="1" gate="0" autoquit_denominator="4">
              <ReverbSCControls output_gain="-5.0999999" size="0.88999999" input_gain="5.7000003" color="10000"/>
              <key/>
            </effect>
          </fxchain>
        </instrumenttrack>
        <pattern name="e_piano_accord02.ogg" pos="2688" type="1" muted="0" steps="16">
          <note key="35" vol="100" pan="0" pos="0" len="384"/>
        </pattern>
        <pattern name="e_piano_accord02.ogg" pos="9600" type="1" muted="0" steps="16">
          <note key="35" vol="100" pan="0" pos="0" len="384"/>
        </pattern>
      </track>
      <track name="sfxr" type="0" muted="0" solo="0">
        <instrumenttrack pan="0" pitch="0" usemasterpitch="1" fxch="0" basenote="57" pitchrange="1">
          <vol id="3790067" value="19.80463" scale_type="linear"/>
          <instrument name="sfxr">
            <sfxr minFreq="0" hpFilCut="0.18800001" waveForm="2" sus="0.037357163" changeAmt="0.39900002" dSlide="-0.0083160736" lpFilCut="0.91600007" sqrSweep="0.49716949" sqrDuty="0" phaserSweep="0.75954908" dec="0.85700005" repeatSpeed="0" changeSpeed="0.40439999" phaserOffset="0.42390317" slide="0.050000001" version="1" hold="0.44400004" vibDepth="0" hpFilCutSweep="0.13600001" att="0" lpFilReso="0.21959996" lpFilCutSweep="-0.22400001" vibSpeed="0">
              <startFreq id="1214353" value="0.71455353" scale_type="linear"/>
            </sfxr>
          </instrument>
          <eldata ftype="0" fres="0.5" fwet="0" fcut="14000">
            <elvol lamt="0" sustain="0.5" pdel="0" latt="0" dec="0.5" lspd_numerator="4" amt="0" userwavefile="" rel="0.1" lspd_denominator="4" lpdel="0" lspd="0.1" lshp="0" hold="0.5" att="0" ctlenvamt="0" lspd_syncmode="0" x100="0"/>
            <elcut lamt="0" sustain="0.5" pdel="0" latt="0" dec="0.5" lspd_numerator="4" amt="0" userwavefile="" rel="0.1" lspd_denominator="4" lpdel="0" lspd="0.1" lshp="0" hold="0.5" att="0" ctlenvamt="0" lspd_syncmode="0" x100="0"/>
            <elres lamt="0" sustain="0.5" pdel="0" latt="0" dec="0.5" lspd_numerator="4" amt="0" userwavefile="" rel="0.1" lspd_denominator="4" lpdel="0" lspd="0.1" lshp="0" hold="0.5" att="0" ctlenvamt="0" lspd_syncmode="0" x100="0"/>
          </eldata>
          <chordcreator chordrange="1" chord-enabled="0" chord="0"/>
          <arpeggiator arpmiss="0" arptime_numerator="4" arptime_syncmode="0" arpgate="100" arptime="200" arpcycle="0" arptime_denominator="4" arp="0" arpmode="0" arprange="1" arp-enabled="0" arpskip="0" arpdir="0"/>
          <midiport outputchannel="1" fixedoutputnote="-1" writable="0" inputchannel="0" inputcontroller="0" outputcontroller="0" fixedinputvelocity="-1" outputprogram="1" readable="0" basevelocity="63" fixedoutputvelocity="-1"/>
          <fxchain numofeffects="2" enabled="1">
            <effect wet="1" autoquit_numerator="4" name="ladspaeffect" autoquit_syncmode="0" on="1" autoquit="1" gate="0" autoquit_denominator="4">
              <ladspacontrols link="1" ports="6">
                <port02 data="0.96749997" link="1"/>
                <port03 data="0.5" link="1"/>
                <port04 data="0.25" link="1"/>
                <port12 data="0.96749997"/>
                <port13 data="0.5"/>
                <port14 data="0.25"/>
              </ladspacontrols>
              <key>
                <attribute name="file" value="guitarix_freeverb"/>
                <attribute name="plugin" value="guitarix_freeverb"/>
              </key>
            </effect>
            <effect wet="1" autoquit_numerator="4" name="eq" autoquit_syncmode="0" on="1" autoquit="1" gate="0" autoquit_denominator="4">
              <Eq LP24="0" Peak2gain="0" HighShelfres="1.4" AnalyseIn="1" LPres="0.70700002" Peak4active="0" LPactive="1" LP="0" LP12="1" Peak4gain="0" Peak2bw="0.30000001" HPactive="0" AnalyseOut="1" Lowshelfactive="0" Peak3gain="0" LowShelfres="1.4" Peak4bw="0.30000001" LP48="0" HP="0" Peak3bw="0.30000001" Lowshelfgain="0" Peak1bw="0.30000001" HP48="0" Peak2active="0" Peak3active="0" HP12="1" HighShelfgain="0" HPres="0.70700002" Highshelfactive="0" HP24="0" Peak1active="0" Outputgain="0">
                <Inputgain id="1045609" value="0" scale_type="log"/>
                <Peak1gain id="4005913" value="0" scale_type="log"/>
                <HPfreq id="4246465" value="31.000004" scale_type="log"/>
                <LowShelffreq id="7674417" value="80" scale_type="log"/>
                <Peak1freq id="7084524" value="119.99998" scale_type="log"/>
                <Peak2freq id="4147125" value="250.00009" scale_type="log"/>
                <Peak3freq id="870654" value="1999.9996" scale_type="log"/>
                <Peak4freq id="3700242" value="4000.0029" scale_type="log"/>
                <Highshelffreq id="2395602" value="11999.999" scale_type="log"/>
                <LPfreq id="3442448" value="9891.7275" scale_type="log"/>
              </Eq>
              <key/>
            </effect>
          </fxchain>
        </instrumenttrack>
        <pattern name="Muted Dis. Gt" pos="768" type="1" muted="0" steps="16">
          <note key="84" vol="100" pan="0" pos="0" len="12"/>
          <note key="84" vol="61" pan="0" pos="12" len="12"/>
          <note key="84" vol="61" pan="0" pos="24" len="12"/>
          <note key="84" vol="100" pan="0" pos="36" len="12"/>
          <note key="84" vol="61" pan="0" pos="48" len="12"/>
          <note key="84" vol="61" pan="0" pos="60" len="12"/>
          <note key="84" vol="93" pan="0" pos="72" len="12"/>
          <note key="84" vol="55" pan="0" pos="84" len="12"/>
          <note key="84" vol="61" pan="0" pos="96" len="12"/>
          <note key="84" vol="87" pan="0" pos="108" len="12"/>
          <note key="84" vol="48" pan="0" pos="120" len="12"/>
          <note key="84" vol="87" pan="0" pos="132" len="12"/>
          <note key="84" vol="74" pan="0" pos="144" len="12"/>
          <note key="84" vol="74" pan="0" pos="156" len="12"/>
          <note key="84" vol="87" pan="0" pos="168" len="12"/>
          <note key="84" vol="87" pan="0" pos="180" len="6"/>
          <note key="84" vol="87" pan="0" pos="186" len="6"/>
          <note key="84" vol="100" pan="0" pos="192" len="12"/>
          <note key="84" vol="61" pan="0" pos="204" len="12"/>
          <note key="84" vol="61" pan="0" pos="216" len="12"/>
          <note key="84" vol="100" pan="0" pos="228" len="12"/>
          <note key="84" vol="61" pan="0" pos="240" len="12"/>
          <note key="84" vol="61" pan="0" pos="252" len="12"/>
          <note key="84" vol="93" pan="0" pos="264" len="12"/>
          <note key="84" vol="55" pan="0" pos="276" len="12"/>
          <note key="84" vol="61" pan="0" pos="288" len="12"/>
          <note key="84" vol="87" pan="0" pos="300" len="12"/>
          <note key="84" vol="48" pan="0" pos="312" len="12"/>
          <note key="84" vol="87" pan="0" pos="324" len="12"/>
          <note key="84" vol="74" pan="0" pos="336" len="12"/>
          <note key="84" vol="74" pan="0" pos="348" len="12"/>
          <note key="84" vol="87" pan="0" pos="360" len="12"/>
          <note key="84" vol="87" pan="0" pos="372" len="6"/>
          <note key="84" vol="87" pan="0" pos="378" len="6"/>
          <note key="84" vol="100" pan="0" pos="384" len="12"/>
          <note key="84" vol="61" pan="0" pos="396" len="12"/>
          <note key="84" vol="61" pan="0" pos="408" len="12"/>
          <note key="84" vol="100" pan="0" pos="420" len="12"/>
          <note key="84" vol="61" pan="0" pos="432" len="12"/>
          <note key="84" vol="61" pan="0" pos="444" len="12"/>
          <note key="84" vol="93" pan="0" pos="456" len="12"/>
          <note key="84" vol="55" pan="0" pos="468" len="12"/>
          <note key="84" vol="61" pan="0" pos="480" len="12"/>
          <note key="84" vol="87" pan="0" pos="492" len="12"/>
          <note key="84" vol="48" pan="0" pos="504" len="12"/>
          <note key="84" vol="87" pan="0" pos="516" len="12"/>
          <note key="84" vol="74" pan="0" pos="528" len="12"/>
          <note key="84" vol="74" pan="0" pos="540" len="12"/>
          <note key="84" vol="87" pan="0" pos="552" len="12"/>
          <note key="84" vol="87" pan="0" pos="564" len="6"/>
          <note key="84" vol="87" pan="0" pos="570" len="6"/>
          <note key="84" vol="100" pan="0" pos="576" len="12"/>
          <note key="84" vol="61" pan="0" pos="588" len="12"/>
          <note key="84" vol="61" pan="0" pos="600" len="12"/>
          <note key="84" vol="100" pan="0" pos="612" len="12"/>
          <note key="84" vol="61" pan="0" pos="624" len="12"/>
          <note key="84" vol="61" pan="0" pos="636" len="12"/>
          <note key="84" vol="93" pan="0" pos="648" len="12"/>
          <note key="84" vol="55" pan="0" pos="660" len="12"/>
          <note key="84" vol="61" pan="0" pos="672" len="12"/>
          <note key="84" vol="87" pan="0" pos="684" len="12"/>
          <note key="84" vol="48" pan="0" pos="696" len="12"/>
          <note key="84" vol="87" pan="0" pos="708" len="12"/>
          <note key="84" vol="74" pan="0" pos="720" len="12"/>
          <note key="84" vol="74" pan="0" pos="732" len="12"/>
          <note key="84" vol="87" pan="0" pos="744" len="12"/>
          <note key="84" vol="87" pan="0" pos="756" len="6"/>
          <note key="84" vol="87" pan="0" pos="762" len="6"/>
        </pattern>
        <pattern name="Muted Dis. Gt" pos="5760" type="1" muted="0" steps="16">
          <note key="84" vol="100" pan="0" pos="0" len="12"/>
          <note key="84" vol="61" pan="0" pos="12" len="12"/>
          <note key="84" vol="61" pan="0" pos="24" len="12"/>
          <note key="84" vol="100" pan="0" pos="36" len="12"/>
          <note key="84" vol="61" pan="0" pos="48" len="12"/>
          <note key="84" vol="61" pan="0" pos="60" len="12"/>
          <note key="84" vol="93" pan="0" pos="72" len="12"/>
          <note key="84" vol="55" pan="0" pos="84" len="12"/>
          <note key="84" vol="61" pan="0" pos="96" len="12"/>
          <note key="84" vol="87" pan="0" pos="108" len="12"/>
          <note key="84" vol="48" pan="0" pos="120" len="12"/>
          <note key="84" vol="87" pan="0" pos="132" len="12"/>
          <note key="84" vol="74" pan="0" pos="144" len="12"/>
          <note key="84" vol="74" pan="0" pos="156" len="12"/>
          <note key="84" vol="87" pan="0" pos="168" len="12"/>
          <note key="84" vol="87" pan="0" pos="180" len="6"/>
          <note key="84" vol="87" pan="0" pos="186" len="6"/>
          <note key="84" vol="100" pan="0" pos="192" len="12"/>
          <note key="84" vol="61" pan="0" pos="204" len="12"/>
          <note key="84" vol="61" pan="0" pos="216" len="12"/>
          <note key="84" vol="100" pan="0" pos="228" len="12"/>
          <note key="84" vol="61" pan="0" pos="240" len="12"/>
          <note key="84" vol="61" pan="0" pos="252" len="12"/>
          <note key="84" vol="93" pan="0" pos="264" len="12"/>
          <note key="84" vol="55" pan="0" pos="276" len="12"/>
          <note key="84" vol="61" pan="0" pos="288" len="12"/>
          <note key="84" vol="87" pan="0" pos="300" len="12"/>
          <note key="84" vol="48" pan="0" pos="312" len="12"/>
          <note key="84" vol="87" pan="0" pos="324" len="12"/>
          <note key="84" vol="74" pan="0" pos="336" len="12"/>
          <note key="84" vol="74" pan="0" pos="348" len="12"/>
          <note key="84" vol="87" pan="0" pos="360" len="12"/>
          <note key="84" vol="87" pan="0" pos="372" len="6"/>
          <note key="84" vol="87" pan="0" pos="378" len="6"/>
          <note key="84" vol="100" pan="0" pos="384" len="12"/>
          <note key="84" vol="61" pan="0" pos="396" len="12"/>
          <note key="84" vol="61" pan="0" pos="408" len="12"/>
          <note key="84" vol="100" pan="0" pos="420" len="12"/>
          <note key="84" vol="61" pan="0" pos="432" len="12"/>
          <note key="84" vol="61" pan="0" pos="444" len="12"/>
          <note key="84" vol="93" pan="0" pos="456" len="12"/>
          <note key="84" vol="55" pan="0" pos="468" len="12"/>
          <note key="84" vol="61" pan="0" pos="480" len="12"/>
          <note key="84" vol="87" pan="0" pos="492" len="12"/>
          <note key="84" vol="48" pan="0" pos="504" len="12"/>
          <note key="84" vol="87" pan="0" pos="516" len="12"/>
          <note key="84" vol="74" pan="0" pos="528" len="12"/>
          <note key="84" vol="74" pan="0" pos="540" len="12"/>
          <note key="84" vol="87" pan="0" pos="552" len="12"/>
          <note key="84" vol="87" pan="0" pos="564" len="6"/>
          <note key="84" vol="87" pan="0" pos="570" len="6"/>
          <note key="84" vol="100" pan="0" pos="576" len="12"/>
          <note key="84" vol="61" pan="0" pos="588" len="12"/>
          <note key="84" vol="61" pan="0" pos="600" len="12"/>
          <note key="84" vol="100" pan="0" pos="612" len="12"/>
          <note key="84" vol="61" pan="0" pos="624" len="12"/>
          <note key="84" vol="61" pan="0" pos="636" len="12"/>
          <note key="84" vol="93" pan="0" pos="648" len="12"/>
          <note key="84" vol="55" pan="0" pos="660" len="12"/>
          <note key="84" vol="61" pan="0" pos="672" len="12"/>
          <note key="84" vol="87" pan="0" pos="684" len="12"/>
          <note key="84" vol="48" pan="0" pos="696" len="12"/>
          <note key="84" vol="87" pan="0" pos="708" len="12"/>
          <note key="84" vol="74" pan="0" pos="720" len="12"/>
          <note key="84" vol="74" pan="0" pos="732" len="12"/>
          <note key="84" vol="87" pan="0" pos="744" len="12"/>
          <note key="84" vol="87" pan="0" pos="756" len="6"/>
          <note key="84" vol="87" pan="0" pos="762" len="6"/>
        </pattern>
        <pattern name="Muted Dis. Gt" pos="6528" type="1" muted="0" steps="16">
          <note key="84" vol="100" pan="0" pos="0" len="12"/>
          <note key="84" vol="61" pan="0" pos="12" len="12"/>
          <note key="84" vol="61" pan="0" pos="24" len="12"/>
          <note key="84" vol="100" pan="0" pos="36" len="12"/>
          <note key="84" vol="61" pan="0" pos="48" len="12"/>
          <note key="84" vol="61" pan="0" pos="60" len="12"/>
          <note key="84" vol="93" pan="0" pos="72" len="12"/>
          <note key="84" vol="55" pan="0" pos="84" len="12"/>
          <note key="84" vol="61" pan="0" pos="96" len="12"/>
          <note key="84" vol="87" pan="0" pos="108" len="12"/>
          <note key="84" vol="48" pan="0" pos="120" len="12"/>
          <note key="84" vol="87" pan="0" pos="132" len="12"/>
          <note key="84" vol="74" pan="0" pos="144" len="12"/>
          <note key="84" vol="74" pan="0" pos="156" len="12"/>
          <note key="84" vol="87" pan="0" pos="168" len="12"/>
          <note key="84" vol="87" pan="0" pos="180" len="6"/>
          <note key="84" vol="87" pan="0" pos="186" len="6"/>
          <note key="84" vol="100" pan="0" pos="192" len="12"/>
          <note key="84" vol="61" pan="0" pos="204" len="12"/>
          <note key="84" vol="61" pan="0" pos="216" len="12"/>
          <note key="84" vol="100" pan="0" pos="228" len="12"/>
          <note key="84" vol="61" pan="0" pos="240" len="12"/>
          <note key="84" vol="61" pan="0" pos="252" len="12"/>
          <note key="84" vol="93" pan="0" pos="264" len="12"/>
          <note key="84" vol="55" pan="0" pos="276" len="12"/>
          <note key="84" vol="61" pan="0" pos="288" len="12"/>
          <note key="84" vol="87" pan="0" pos="300" len="12"/>
          <note key="84" vol="48" pan="0" pos="312" len="12"/>
          <note key="84" vol="87" pan="0" pos="324" len="12"/>
          <note key="84" vol="74" pan="0" pos="336" len="12"/>
          <note key="84" vol="74" pan="0" pos="348" len="12"/>
          <note key="84" vol="87" pan="0" pos="360" len="12"/>
          <note key="84" vol="87" pan="0" pos="372" len="6"/>
          <note key="84" vol="87" pan="0" pos="378" len="6"/>
          <note key="84" vol="100" pan="0" pos="384" len="12"/>
          <note key="84" vol="61" pan="0" pos="396" len="12"/>
          <note key="84" vol="61" pan="0" pos="408" len="12"/>
          <note key="84" vol="100" pan="0" pos="420" len="12"/>
          <note key="84" vol="61" pan="0" pos="432" len="12"/>
          <note key="84" vol="61" pan="0" pos="444" len="12"/>
          <note key="84" vol="93" pan="0" pos="456" len="12"/>
          <note key="84" vol="55" pan="0" pos="468" len="12"/>
          <note key="84" vol="61" pan="0" pos="480" len="12"/>
          <note key="84" vol="87" pan="0" pos="492" len="12"/>
          <note key="84" vol="48" pan="0" pos="504" len="12"/>
          <note key="84" vol="87" pan="0" pos="516" len="12"/>
          <note key="84" vol="74" pan="0" pos="528" len="12"/>
          <note key="84" vol="74" pan="0" pos="540" len="12"/>
          <note key="84" vol="87" pan="0" pos="552" len="12"/>
          <note key="84" vol="87" pan="0" pos="564" len="6"/>
          <note key="84" vol="87" pan="0" pos="570" len="6"/>
          <note key="84" vol="100" pan="0" pos="576" len="12"/>
          <note key="84" vol="61" pan="0" pos="588" len="12"/>
          <note key="84" vol="61" pan="0" pos="600" len="12"/>
          <note key="84" vol="100" pan="0" pos="612" len="12"/>
          <note key="84" vol="61" pan="0" pos="624" len="12"/>
          <note key="84" vol="61" pan="0" pos="636" len="12"/>
          <note key="84" vol="93" pan="0" pos="648" len="12"/>
          <note key="84" vol="55" pan="0" pos="660" len="12"/>
          <note key="84" vol="61" pan="0" pos="672" len="12"/>
          <note key="84" vol="87" pan="0" pos="684" len="12"/>
          <note key="84" vol="48" pan="0" pos="696" len="12"/>
          <note key="84" vol="87" pan="0" pos="708" len="12"/>
          <note key="84" vol="74" pan="0" pos="720" len="12"/>
          <note key="84" vol="74" pan="0" pos="732" len="12"/>
          <note key="84" vol="87" pan="0" pos="744" len="12"/>
          <note key="84" vol="87" pan="0" pos="756" len="6"/>
          <note key="84" vol="87" pan="0" pos="762" len="6"/>
        </pattern>
        <pattern name="Muted Dis. Gt" pos="7296" type="1" muted="0" steps="16">
          <note key="84" vol="100" pan="0" pos="0" len="12"/>
          <note key="84" vol="61" pan="0" pos="12" len="12"/>
          <note key="84" vol="61" pan="0" pos="24" len="12"/>
          <note key="84" vol="100" pan="0" pos="36" len="12"/>
          <note key="84" vol="61" pan="0" pos="48" len="12"/>
          <note key="84" vol="61" pan="0" pos="60" len="12"/>
          <note key="84" vol="93" pan="0" pos="72" len="12"/>
          <note key="84" vol="55" pan="0" pos="84" len="12"/>
          <note key="84" vol="61" pan="0" pos="96" len="12"/>
          <note key="84" vol="87" pan="0" pos="108" len="12"/>
          <note key="84" vol="48" pan="0" pos="120" len="12"/>
          <note key="84" vol="87" pan="0" pos="132" len="12"/>
          <note key="84" vol="74" pan="0" pos="144" len="12"/>
          <note key="84" vol="74" pan="0" pos="156" len="12"/>
          <note key="84" vol="87" pan="0" pos="168" len="12"/>
          <note key="84" vol="87" pan="0" pos="180" len="6"/>
          <note key="84" vol="87" pan="0" pos="186" len="6"/>
          <note key="84" vol="100" pan="0" pos="192" len="12"/>
          <note key="84" vol="61" pan="0" pos="204" len="12"/>
          <note key="84" vol="61" pan="0" pos="216" len="12"/>
          <note key="84" vol="100" pan="0" pos="228" len="12"/>
          <note key="84" vol="61" pan="0" pos="240" len="12"/>
          <note key="84" vol="61" pan="0" pos="252" len="12"/>
          <note key="84" vol="93" pan="0" pos="264" len="12"/>
          <note key="84" vol="55" pan="0" pos="276" len="12"/>
          <note key="84" vol="61" pan="0" pos="288" len="12"/>
          <note key="84" vol="87" pan="0" pos="300" len="12"/>
          <note key="84" vol="48" pan="0" pos="312" len="12"/>
          <note key="84" vol="87" pan="0" pos="324" len="12"/>
          <note key="84" vol="74" pan="0" pos="336" len="12"/>
          <note key="84" vol="74" pan="0" pos="348" len="12"/>
          <note key="84" vol="87" pan="0" pos="360" len="12"/>
          <note key="84" vol="87" pan="0" pos="372" len="6"/>
          <note key="84" vol="87" pan="0" pos="378" len="6"/>
          <note key="84" vol="100" pan="0" pos="384" len="12"/>
          <note key="84" vol="61" pan="0" pos="396" len="12"/>
          <note key="84" vol="61" pan="0" pos="408" len="12"/>
          <note key="84" vol="100" pan="0" pos="420" len="12"/>
          <note key="84" vol="61" pan="0" pos="432" len="12"/>
          <note key="84" vol="61" pan="0" pos="444" len="12"/>
          <note key="84" vol="93" pan="0" pos="456" len="12"/>
          <note key="84" vol="55" pan="0" pos="468" len="12"/>
          <note key="84" vol="61" pan="0" pos="480" len="12"/>
          <note key="84" vol="87" pan="0" pos="492" len="12"/>
          <note key="84" vol="48" pan="0" pos="504" len="12"/>
          <note key="84" vol="87" pan="0" pos="516" len="12"/>
          <note key="84" vol="74" pan="0" pos="528" len="12"/>
          <note key="84" vol="74" pan="0" pos="540" len="12"/>
          <note key="84" vol="87" pan="0" pos="552" len="12"/>
          <note key="84" vol="87" pan="0" pos="564" len="6"/>
          <note key="84" vol="87" pan="0" pos="570" len="6"/>
          <note key="84" vol="100" pan="0" pos="576" len="12"/>
          <note key="84" vol="61" pan="0" pos="588" len="12"/>
          <note key="84" vol="61" pan="0" pos="600" len="12"/>
          <note key="84" vol="100" pan="0" pos="612" len="12"/>
          <note key="84" vol="61" pan="0" pos="624" len="12"/>
          <note key="84" vol="61" pan="0" pos="636" len="12"/>
          <note key="84" vol="93" pan="0" pos="648" len="12"/>
          <note key="84" vol="55" pan="0" pos="660" len="12"/>
          <note key="84" vol="61" pan="0" pos="672" len="12"/>
          <note key="84" vol="87" pan="0" pos="684" len="12"/>
          <note key="84" vol="48" pan="0" pos="696" len="12"/>
          <note key="84" vol="87" pan="0" pos="708" len="12"/>
          <note key="84" vol="74" pan="0" pos="720" len="12"/>
          <note key="84" vol="74" pan="0" pos="732" len="12"/>
          <note key="84" vol="87" pan="0" pos="744" len="12"/>
          <note key="84" vol="87" pan="0" pos="756" len="6"/>
          <note key="84" vol="87" pan="0" pos="762" len="6"/>
        </pattern>
        <pattern name="Muted Dis. Gt" pos="8064" type="1" muted="0" steps="16">
          <note key="84" vol="100" pan="0" pos="0" len="12"/>
          <note key="84" vol="61" pan="0" pos="12" len="12"/>
          <note key="84" vol="61" pan="0" pos="24" len="12"/>
          <note key="84" vol="100" pan="0" pos="36" len="12"/>
          <note key="84" vol="61" pan="0" pos="48" len="12"/>
          <note key="84" vol="61" pan="0" pos="60" len="12"/>
          <note key="84" vol="93" pan="0" pos="72" len="12"/>
          <note key="84" vol="55" pan="0" pos="84" len="12"/>
          <note key="84" vol="61" pan="0" pos="96" len="12"/>
          <note key="84" vol="87" pan="0" pos="108" len="12"/>
          <note key="84" vol="48" pan="0" pos="120" len="12"/>
          <note key="84" vol="87" pan="0" pos="132" len="12"/>
          <note key="84" vol="74" pan="0" pos="144" len="12"/>
          <note key="84" vol="74" pan="0" pos="156" len="12"/>
          <note key="84" vol="87" pan="0" pos="168" len="12"/>
          <note key="84" vol="87" pan="0" pos="180" len="6"/>
          <note key="84" vol="87" pan="0" pos="186" len="6"/>
          <note key="84" vol="100" pan="0" pos="192" len="12"/>
          <note key="84" vol="61" pan="0" pos="204" len="12"/>
          <note key="84" vol="61" pan="0" pos="216" len="12"/>
          <note key="84" vol="100" pan="0" pos="228" len="12"/>
          <note key="84" vol="61" pan="0" pos="240" len="12"/>
          <note key="84" vol="61" pan="0" pos="252" len="12"/>
          <note key="84" vol="93" pan="0" pos="264" len="12"/>
          <note key="84" vol="55" pan="0" pos="276" len="12"/>
          <note key="84" vol="61" pan="0" pos="288" len="12"/>
          <note key="84" vol="87" pan="0" pos="300" len="12"/>
          <note key="84" vol="48" pan="0" pos="312" len="12"/>
          <note key="84" vol="87" pan="0" pos="324" len="12"/>
          <note key="84" vol="74" pan="0" pos="336" len="12"/>
          <note key="84" vol="74" pan="0" pos="348" len="12"/>
          <note key="84" vol="87" pan="0" pos="360" len="12"/>
          <note key="84" vol="87" pan="0" pos="372" len="6"/>
          <note key="84" vol="87" pan="0" pos="378" len="6"/>
          <note key="84" vol="100" pan="0" pos="384" len="12"/>
          <note key="84" vol="61" pan="0" pos="396" len="12"/>
          <note key="84" vol="61" pan="0" pos="408" len="12"/>
          <note key="84" vol="100" pan="0" pos="420" len="12"/>
          <note key="84" vol="61" pan="0" pos="432" len="12"/>
          <note key="84" vol="61" pan="0" pos="444" len="12"/>
          <note key="84" vol="93" pan="0" pos="456" len="12"/>
          <note key="84" vol="55" pan="0" pos="468" len="12"/>
          <note key="84" vol="61" pan="0" pos="480" len="12"/>
          <note key="84" vol="87" pan="0" pos="492" len="12"/>
          <note key="84" vol="48" pan="0" pos="504" len="12"/>
          <note key="84" vol="87" pan="0" pos="516" len="12"/>
          <note key="84" vol="74" pan="0" pos="528" len="12"/>
          <note key="84" vol="74" pan="0" pos="540" len="12"/>
          <note key="84" vol="87" pan="0" pos="552" len="12"/>
          <note key="84" vol="87" pan="0" pos="564" len="6"/>
          <note key="84" vol="87" pan="0" pos="570" len="6"/>
          <note key="84" vol="100" pan="0" pos="576" len="12"/>
          <note key="84" vol="61" pan="0" pos="588" len="12"/>
          <note key="84" vol="61" pan="0" pos="600" len="12"/>
          <note key="84" vol="100" pan="0" pos="612" len="12"/>
          <note key="84" vol="61" pan="0" pos="624" len="12"/>
          <note key="84" vol="61" pan="0" pos="636" len="12"/>
          <note key="84" vol="93" pan="0" pos="648" len="12"/>
          <note key="84" vol="55" pan="0" pos="660" len="12"/>
          <note key="84" vol="61" pan="0" pos="672" len="12"/>
          <note key="84" vol="87" pan="0" pos="684" len="12"/>
          <note key="84" vol="48" pan="0" pos="696" len="12"/>
          <note key="84" vol="87" pan="0" pos="708" len="12"/>
          <note key="84" vol="74" pan="0" pos="720" len="12"/>
          <note key="84" vol="74" pan="0" pos="732" len="12"/>
          <note key="84" vol="87" pan="0" pos="744" len="12"/>
          <note key="84" vol="87" pan="0" pos="756" len="6"/>
          <note key="84" vol="87" pan="0" pos="762" len="6"/>
        </pattern>
        <pattern name="Muted Dis. Gt" pos="1536" type="1" muted="0" steps="16">
          <note key="84" vol="100" pan="0" pos="0" len="12"/>
          <note key="84" vol="61" pan="0" pos="12" len="12"/>
          <note key="84" vol="61" pan="0" pos="24" len="12"/>
          <note key="84" vol="100" pan="0" pos="36" len="12"/>
          <note key="84" vol="61" pan="0" pos="48" len="12"/>
          <note key="84" vol="61" pan="0" pos="60" len="12"/>
          <note key="84" vol="93" pan="0" pos="72" len="12"/>
          <note key="84" vol="55" pan="0" pos="84" len="12"/>
          <note key="84" vol="61" pan="0" pos="96" len="12"/>
          <note key="84" vol="87" pan="0" pos="108" len="12"/>
          <note key="84" vol="48" pan="0" pos="120" len="12"/>
          <note key="84" vol="87" pan="0" pos="132" len="12"/>
          <note key="84" vol="74" pan="0" pos="144" len="12"/>
          <note key="84" vol="74" pan="0" pos="156" len="12"/>
          <note key="84" vol="87" pan="0" pos="168" len="12"/>
          <note key="84" vol="87" pan="0" pos="180" len="6"/>
          <note key="84" vol="87" pan="0" pos="186" len="6"/>
          <note key="84" vol="100" pan="0" pos="192" len="12"/>
          <note key="84" vol="61" pan="0" pos="204" len="12"/>
          <note key="84" vol="61" pan="0" pos="216" len="12"/>
          <note key="84" vol="100" pan="0" pos="228" len="12"/>
          <note key="84" vol="61" pan="0" pos="240" len="12"/>
          <note key="84" vol="61" pan="0" pos="252" len="12"/>
          <note key="84" vol="93" pan="0" pos="264" len="12"/>
          <note key="84" vol="55" pan="0" pos="276" len="12"/>
          <note key="84" vol="61" pan="0" pos="288" len="12"/>
          <note key="84" vol="87" pan="0" pos="300" len="12"/>
          <note key="84" vol="48" pan="0" pos="312" len="12"/>
          <note key="84" vol="87" pan="0" pos="324" len="12"/>
          <note key="84" vol="74" pan="0" pos="336" len="12"/>
          <note key="84" vol="74" pan="0" pos="348" len="12"/>
          <note key="84" vol="87" pan="0" pos="360" len="12"/>
          <note key="84" vol="87" pan="0" pos="372" len="6"/>
          <note key="84" vol="87" pan="0" pos="378" len="6"/>
          <note key="84" vol="100" pan="0" pos="384" len="12"/>
          <note key="84" vol="61" pan="0" pos="396" len="12"/>
          <note key="84" vol="61" pan="0" pos="408" len="12"/>
          <note key="84" vol="100" pan="0" pos="420" len="12"/>
          <note key="84" vol="61" pan="0" pos="432" len="12"/>
          <note key="84" vol="61" pan="0" pos="444" len="12"/>
          <note key="84" vol="93" pan="0" pos="456" len="12"/>
          <note key="84" vol="55" pan="0" pos="468" len="12"/>
          <note key="84" vol="61" pan="0" pos="480" len="12"/>
          <note key="84" vol="87" pan="0" pos="492" len="12"/>
          <note key="84" vol="48" pan="0" pos="504" len="12"/>
          <note key="84" vol="87" pan="0" pos="516" len="12"/>
          <note key="84" vol="74" pan="0" pos="528" len="12"/>
          <note key="84" vol="74" pan="0" pos="540" len="12"/>
          <note key="84" vol="87" pan="0" pos="552" len="12"/>
          <note key="84" vol="87" pan="0" pos="564" len="6"/>
          <note key="84" vol="87" pan="0" pos="570" len="6"/>
          <note key="84" vol="100" pan="0" pos="576" len="12"/>
          <note key="84" vol="61" pan="0" pos="588" len="12"/>
          <note key="84" vol="61" pan="0" pos="600" len="12"/>
          <note key="84" vol="100" pan="0" pos="612" len="12"/>
          <note key="84" vol="61" pan="0" pos="624" len="12"/>
          <note key="84" vol="61" pan="0" pos="636" len="12"/>
          <note key="84" vol="93" pan="0" pos="648" len="12"/>
          <note key="84" vol="55" pan="0" pos="660" len="12"/>
          <note key="84" vol="61" pan="0" pos="672" len="12"/>
          <note key="84" vol="87" pan="0" pos="684" len="12"/>
          <note key="84" vol="48" pan="0" pos="696" len="12"/>
          <note key="84" vol="87" pan="0" pos="708" len="12"/>
          <note key="84" vol="74" pan="0" pos="720" len="12"/>
          <note key="84" vol="74" pan="0" pos="732" len="12"/>
          <note key="84" vol="87" pan="0" pos="744" len="12"/>
          <note key="84" vol="87" pan="0" pos="756" len="6"/>
          <note key="84" vol="87" pan="0" pos="762" len="6"/>
        </pattern>
      </track>
      <track name="Automation track" type="5" muted="0" solo="0">
        <automationtrack/>
        <automationpattern tens="1" prog="2" name="sfxr>Start Frequency" pos="768" mute="0" len="768">
          <time pos="0" value="0.80800003"/>
          <time pos="120" value="0.66800004"/>
          <time pos="264" value="0.84300005"/>
          <time pos="408" value="0.73700005"/>
          <time pos="504" value="0.68200004"/>
          <time pos="600" value="0.89400005"/>
          <time pos="696" value="0.75900006"/>
          <time pos="768" value="0.81400001"/>
          <object id="1214353"/>
        </automationpattern>
        <automationpattern tens="1" prog="2" name="sfxr>Start Frequency" pos="5760" mute="0" len="3072">
          <time pos="0" value="0.80800003"/>
          <time pos="120" value="0.551"/>
          <time pos="264" value="0.84300005"/>
          <time pos="408" value="0.57700002"/>
          <time pos="576" value="0.69000006"/>
          <time pos="696" value="0.60200006"/>
          <time pos="768" value="0.83200002"/>
          <time pos="960" value="0.58400005"/>
          <time pos="1080" value="0.76600003"/>
          <time pos="1176" value="0.57700002"/>
          <time pos="1320" value="0.82800007"/>
          <time pos="1536" value="0.55500001"/>
          <time pos="1728" value="0.78100002"/>
          <time pos="1944" value="0.63900006"/>
          <time pos="2112" value="0.86100006"/>
          <time pos="2280" value="0.63900006"/>
          <time pos="2496" value="0.80700004"/>
          <time pos="2688" value="0.59100002"/>
          <time pos="2904" value="0.84300005"/>
          <time pos="3096" value="0.708"/>
          <object id="1214353"/>
        </automationpattern>
        <automationpattern tens="1" prog="2" name="sfxr>Start Frequency" pos="1536" mute="0" len="768">
          <time pos="0" value="0.80800003"/>
          <time pos="120" value="0.66800004"/>
          <time pos="264" value="0.84300005"/>
          <time pos="408" value="0.73700005"/>
          <time pos="504" value="0.68200004"/>
          <time pos="600" value="0.89400005"/>
          <time pos="672" value="0.76300001"/>
          <time pos="744" value="0.62400001"/>
          <time pos="768" value="0.38000003"/>
          <object id="1214353"/>
        </automationpattern>
      </track>
      <track name="Automation track" type="5" muted="0" solo="0">
        <automationtrack/>
        <automationpattern tens="1" prog="0" name="sfxr>Volume" pos="768" mute="0" len="192">
          <time pos="0" value="116.8"/>
          <object id="3790067"/>
        </automationpattern>
        <automationpattern tens="1" prog="2" name="sfxr>Volume" pos="5760" mute="0" len="960">
          <time pos="0" value="116.8"/>
          <time pos="1152" value="14.6"/>
          <object id="3790067"/>
        </automationpattern>
      </track>
      <track name="Automation track" type="5" muted="0" solo="0">
        <automationtrack/>
        <automationpattern tens="1" prog="0" name="FX 7>Volume" pos="768" mute="0" len="192">
          <time pos="0" value="1"/>
          <object id="2609902"/>
        </automationpattern>
        <automationpattern tens="1" prog="0" name="FX 7>Volume" pos="7296" mute="0" len="192">
          <time pos="0" value="1.4820001"/>
          <object id="2609902"/>
        </automationpattern>
        <automationpattern tens="1" prog="0" name="FX 7>Volume" pos="9600" mute="0" len="192">
          <time pos="0" value="1"/>
          <object id="2609902"/>
        </automationpattern>
      </track>
      <track name="Automation track" type="5" muted="0" solo="0">
        <automationtrack/>
        <automationpattern tens="1" prog="1" name="FX 9>Volume" pos="9600" mute="0" len="2496">
          <time pos="0" value="0.43800002"/>
          <time pos="576" value="1.3750001"/>
          <time pos="768" value="0.98500007"/>
          <time pos="960" value="0.83100003"/>
          <time pos="1152" value="0.49800003"/>
          <time pos="1920" value="0.35800001"/>
          <object id="1460065"/>
        </automationpattern>
        <automationpattern tens="1" prog="2" name="FX 9>Volume" pos="12480" mute="0" len="192">
          <time pos="0" value="0.35800001"/>
          <time pos="96" value="0.19700001"/>
          <time pos="144" value="0.48900002"/>
          <time pos="192" value="1.2040001"/>
          <object id="1460065"/>
        </automationpattern>
      </track>
      <track name="Automation track" type="5" muted="0" solo="0">
        <automationtrack/>
        <automationpattern tens="1" prog="2" name="FX 3>Volume" pos="9216" mute="0" len="576">
          <time pos="0" value="0.83700001"/>
          <time pos="312" value="0.73500001"/>
          <time pos="336" value="0.71300006"/>
          <time pos="360" value="0.38700002"/>
          <time pos="384" value="1.891"/>
          <time pos="408" value="0.82500005"/>
          <object id="2200038"/>
        </automationpattern>
      </track>
    </trackcontainer>
    <track name="Automation track" type="6" muted="0" solo="0">
      <automationtrack/>
      <automationpattern tens="1" prog="0" name="Numerator" pos="0" mute="0" len="192"/>
      <automationpattern tens="1" prog="0" name="Denominator" pos="0" mute="0" len="192"/>
      <automationpattern tens="1" prog="0" name="Tempo" pos="0" mute="0" len="192"/>
      <automationpattern tens="1" prog="0" name="Master volume" pos="0" mute="0" len="192"/>
      <automationpattern tens="1" prog="0" name="Master pitch" pos="0" mute="0" len="192"/>
      <automationpattern tens="1" prog="0" name="Numerator" pos="0" mute="0" len="192"/>
      <automationpattern tens="1" prog="0" name="Denominator" pos="0" mute="0" len="192"/>
      <automationpattern tens="1" prog="0" name="Tempo" pos="0" mute="0" len="192"/>
      <automationpattern tens="1" prog="0" name="Master volume" pos="0" mute="0" len="192"/>
      <automationpattern tens="1" prog="0" name="Master pitch" pos="0" mute="0" len="192"/>
      <automationpattern tens="1" prog="0" name="Numerator" pos="0" mute="0" len="192"/>
      <automationpattern tens="1" prog="0" name="Denominator" pos="0" mute="0" len="192"/>
      <automationpattern tens="1" prog="0" name="Tempo" pos="0" mute="0" len="192"/>
      <automationpattern tens="1" prog="0" name="Master volume" pos="0" mute="0" len="192"/>
      <automationpattern tens="1" prog="0" name="Master pitch" pos="0" mute="0" len="192"/>
    </track>
    <fxmixer visible="1" y="268" height="333" x="574" maximized="0" width="1037" minimized="0">
      <fxchannel name="Master" volume="0.79999995" soloed="0" muted="0" num="0">
        <fxchain numofeffects="1" enabled="1">
          <effect wet="0.69999999" autoquit_numerator="4" name="ladspaeffect" autoquit_syncmode="0" on="1" autoquit="1" gate="0" autoquit_denominator="4">
            <ladspacontrols ports="18">
              <port04 data="0"/>
              <port05 data="1.52"/>
              <port010 data="0.32093626"/>
              <port011 data="2.5650001"/>
              <port012>
                <data id="135115" value="4.472136" scale_type="log"/>
              </port012>
              <port013>
                <data id="2788668" value="40" scale_type="log"/>
              </port013>
              <port014 data="1"/>
              <port015 data="2.75"/>
              <port016 data="0"/>
              <port017 data="0"/>
              <port019 data="0"/>
              <port020>
                <data id="3107830" value="424.26407" scale_type="log"/>
              </port020>
              <port021>
                <data id="4335337" value="2763.468" scale_type="log"/>
              </port021>
              <port022 data="1"/>
              <port023 data="1"/>
              <port024 data="0"/>
              <port027 data="0"/>
              <port028 data="1"/>
            </ladspacontrols>
            <key>
              <attribute name="file" value="calf"/>
              <attribute name="plugin" value="Sidechaincompressor"/>
            </key>
          </effect>
        </fxchain>
      </fxchannel>
      <fxchannel name="Percussion" volume="0.95300007" soloed="0" muted="0" num="1">
        <fxchain numofeffects="1" enabled="1">
          <effect wet="1" autoquit_numerator="4" name="ladspaeffect" autoquit_syncmode="0" on="1" autoquit="1" gate="0" autoquit_denominator="4">
            <ladspacontrols link="1" ports="20">
              <port01 data="-33.120003" link="1"/>
              <port02 data="-4.23" link="1"/>
              <port03 data="3.5100002" link="1"/>
              <port04 data="0" link="1"/>
              <port05 data="0" link="1"/>
              <port06 data="0" link="1"/>
              <port07 data="0" link="1"/>
              <port08 data="0" link="1"/>
              <port09 data="0" link="1"/>
              <port010 data="0" link="1"/>
              <port11 data="-33.120003"/>
              <port12 data="-4.23"/>
              <port13 data="3.5100002"/>
              <port14 data="0"/>
              <port15 data="0"/>
              <port16 data="0"/>
              <port17 data="0"/>
              <port18 data="0"/>
              <port19 data="0"/>
              <port110 data="0"/>
            </ladspacontrols>
            <key>
              <attribute name="file" value="caps"/>
              <attribute name="plugin" value="Eq"/>
            </key>
          </effect>
        </fxchain>
        <send amount="1" channel="0"/>
      </fxchannel>
      <fxchannel name="Lead" volume="0.5" soloed="0" muted="0" num="2">
        <fxchain numofeffects="1" enabled="1">
          <effect wet="1" autoquit_numerator="4" name="ladspaeffect" autoquit_syncmode="0" on="1" autoquit="1" gate="0" autoquit_denominator="4">
            <ladspacontrols link="1" ports="20">
              <port01 data="-28.800001" link="1"/>
              <port02 data="-26.730001" link="1"/>
              <port03 data="2.7900002" link="1"/>
              <port04 data="0" link="1"/>
              <port05 data="4.0500002" link="1"/>
              <port06 data="0" link="1"/>
              <port07 data="0" link="1"/>
              <port08 data="0" link="1"/>
              <port09 data="0" link="1"/>
              <port010 data="0" link="1"/>
              <port11 data="-28.800001"/>
              <port12 data="-26.730001"/>
              <port13 data="2.7900002"/>
              <port14 data="0"/>
              <port15 data="4.0500002"/>
              <port16 data="0"/>
              <port17 data="0"/>
              <port18 data="0"/>
              <port19 data="0"/>
              <port110 data="0"/>
            </ladspacontrols>
            <key>
              <attribute name="file" value="caps"/>
              <attribute name="plugin" value="Eq"/>
            </key>
          </effect>
        </fxchain>
        <send amount="1" channel="8"/>
      </fxchannel>
      <fxchannel name="Guitars" soloed="0" muted="0" num="3">
        <fxchain numofeffects="0" enabled="1"/>
        <volume id="2200038" value="0.82500005" scale_type="linear"/>
        <send amount="1" channel="8"/>
      </fxchannel>
      <fxchannel name="Synth Guitars" volume="0.37100002" soloed="0" muted="0" num="4">
        <fxchain numofeffects="2" enabled="1">
          <effect wet="1" autoquit_numerator="4" name="ladspaeffect" autoquit_syncmode="0" on="1" autoquit="1" gate="0" autoquit_denominator="4">
            <ladspacontrols link="1" ports="6">
              <port02 data="0.5" link="1"/>
              <port03 data="0.5" link="1"/>
              <port04 data="0.25" link="1"/>
              <port12 data="0.5"/>
              <port13 data="0.5"/>
              <port14 data="0.25"/>
            </ladspacontrols>
            <key>
              <attribute name="file" value="guitarix_freeverb"/>
              <attribute name="plugin" value="guitarix_freeverb"/>
            </key>
          </effect>
          <effect wet="0.39999998" autoquit_numerator="4" name="ladspaeffect" autoquit_syncmode="0" on="1" autoquit="1" gate="0" autoquit_denominator="4">
            <ladspacontrols ports="12">
              <port04>
                <data id="840814" value="3.1622777" scale_type="log"/>
              </port04>
              <port05>
                <data id="7619248" value="2.0802374" scale_type="log"/>
              </port05>
              <port06>
                <data id="5180661" value="1.4492749" scale_type="log"/>
              </port06>
              <port07 data="210.59999"/>
              <port08 data="6"/>
              <port09 data="89.099998"/>
              <port010 data="1.3249999"/>
              <port011 data="0.98499995"/>
              <port012>
                <data id="2843877" value="100" scale_type="log"/>
              </port012>
              <port013>
                <data id="2514537" value="3688.155" scale_type="log"/>
              </port013>
              <port014>
                <data id="1501280" value="0.21951562" scale_type="log"/>
              </port014>
              <port015 data="1"/>
            </ladspacontrols>
            <key>
              <attribute name="file" value="calf"/>
              <attribute name="plugin" value="MultiChorus"/>
            </key>
          </effect>
        </fxchain>
        <send amount="1" channel="3"/>
      </fxchannel>
      <fxchannel name="SF2 Guitars" volume="1.0220001" soloed="0" muted="0" num="5">
        <fxchain numofeffects="0" enabled="0"/>
        <send amount="1" channel="3"/>
      </fxchannel>
      <fxchannel name="Drums" soloed="0" muted="0" num="6">
        <fxchain numofeffects="0" enabled="0"/>
        <volume id="2609902" value="1" scale_type="linear"/>
        <send amount="1" channel="1"/>
      </fxchannel>
      <fxchannel name="Kicker" volume="0.53500003" soloed="0" muted="0" num="7">
        <fxchain numofeffects="0" enabled="0"/>
        <send amount="1" channel="8"/>
        <send amount="0.37200001" channel="0"/>
      </fxchannel>
      <fxchannel name="Compressed" volume="1" soloed="0" muted="0" num="8">
        <fxchain numofeffects="1" enabled="1">
          <effect wet="1" autoquit_numerator="4" name="ladspaeffect" autoquit_syncmode="0" on="1" autoquit="1" gate="0" autoquit_denominator="4">
            <ladspacontrols ports="18">
              <port04 data="0"/>
              <port05 data="1"/>
              <port010 data="0.16608764"/>
              <port011 data="2.44625"/>
              <port012>
                <data id="1942698" value="4.472136" scale_type="log"/>
              </port012>
              <port013>
                <data id="2115631" value="31.99984" scale_type="log"/>
              </port013>
              <port014 data="1"/>
              <port015 data="2.75"/>
              <port016 data="0"/>
              <port017 data="0"/>
              <port019 data="0"/>
              <port020>
                <data id="1203986" value="424.26407" scale_type="log"/>
              </port020>
              <port021>
                <data id="6345164" value="2763.468" scale_type="log"/>
              </port021>
              <port022 data="1"/>
              <port023 data="1"/>
              <port024 data="0"/>
              <port027 data="0"/>
              <port028 data="1"/>
            </ladspacontrols>
            <key>
              <attribute name="file" value="calf"/>
              <attribute name="plugin" value="Sidechaincompressor"/>
            </key>
          </effect>
        </fxchain>
        <send amount="1" channel="0"/>
      </fxchannel>
      <fxchannel name="Choir" soloed="0" muted="0" num="9">
        <fxchain numofeffects="0" enabled="0"/>
        <volume id="1460065" value="0.38133335" scale_type="linear"/>
        <send amount="1" channel="0"/>
      </fxchannel>
      <fxchannel name="FX 10" volume="1" soloed="0" muted="0" num="10">
        <fxchain numofeffects="0" enabled="0"/>
        <send amount="1" channel="0"/>
      </fxchannel>
    </fxmixer>
    <ControllerRackView visible="0" y="307" height="200" x="608" maximized="0" width="350" minimized="0"/>
    <pianoroll visible="0" y="257" height="597" x="243" maximized="0" width="1109" minimized="0"/>
    <automationeditor visible="1" y="332" height="395" x="446" maximized="0" width="860" minimized="0"/>
    <projectnotes visible="0" y="177" height="400" x="60" maximized="0" width="860" minimized="0"><![CDATA[<!DOCTYPE HTML PUBLIC "-//W3C//DTD HTML 4.0//EN" "http://www.w3.org/TR/REC-html40/strict.dtd">
<html><head><meta name="qrichtext" content="1" /><style type="text/css">
p, li { white-space: pre-wrap; }
</style></head><body style=" font-family:'Cantarell'; font-size:11pt; font-weight:400; font-style:normal;">
<p style=" margin-top:12px; margin-bottom:12px; margin-left:0px; margin-right:0px; -qt-block-indent:0; text-indent:0px;"><span style=" font-family:'Bitstream Vera Sans'; font-weight:600;">Some drums for making music rocking the club!</span></p></body></html>]]></projectnotes>
    <timeline lp0pos="0" lpstate="1" lp1pos="16128"/>
    <controllers>
      <lfocontroller speed_denominator="4" phase="0" userwavefile="" speed_numerator="4" speed_syncmode="0" multiplier="0" name="Controller 1" base="0.5" amount="1" type="1" wave="0" speed="2"/>
    </controllers>
  </song>
</lmms-project>
